<?xml version="1.0" encoding="utf-8" standalone="no"?>
<!DOCTYPE svg PUBLIC "-//W3C//DTD SVG 1.1//EN"
  "http://www.w3.org/Graphics/SVG/1.1/DTD/svg11.dtd">
<svg xmlns:xlink="http://www.w3.org/1999/xlink" width="432pt" height="288pt" viewBox="0 0 432 288" xmlns="http://www.w3.org/2000/svg" version="1.1">
 <metadata>
  <rdf:RDF xmlns:dc="http://purl.org/dc/elements/1.1/" xmlns:cc="http://creativecommons.org/ns#" xmlns:rdf="http://www.w3.org/1999/02/22-rdf-syntax-ns#">
   <cc:Work>
    <dc:type rdf:resource="http://purl.org/dc/dcmitype/StillImage"/>
    <dc:date>2023-01-11T15:36:08.726842</dc:date>
    <dc:format>image/svg+xml</dc:format>
    <dc:creator>
     <cc:Agent>
      <dc:title>Matplotlib v3.5.2, https://matplotlib.org/</dc:title>
     </cc:Agent>
    </dc:creator>
   </cc:Work>
  </rdf:RDF>
 </metadata>
 <defs>
  <style type="text/css">*{stroke-linejoin: round; stroke-linecap: butt}</style>
 </defs>
 <g id="figure_1">
  <g id="patch_1">
   <path d="M 0 288 
L 432 288 
L 432 0 
L 0 0 
z
" style="fill: #ffffff"/>
  </g>
  <g id="axes_1">
   <g id="patch_2">
    <path d="M 54 252 
L 388.8 252 
L 388.8 34.56 
L 54 34.56 
z
" style="fill: #ffffff"/>
   </g>
   <g id="PolyCollection_1">
    <defs>
     <path id="md62e896bc5" d="M 69.218182 -35.030153 
L 69.218182 -35.030153 
L 74.376888 -33.21394 
L 79.535593 -39.563031 
L 84.694299 -55.822706 
L 89.853005 -55.066291 
L 95.01171 -49.591793 
L 100.170416 -41.851577 
L 105.329122 -44.933404 
L 110.487827 -40.663891 
L 115.646533 -34.684594 
L 120.805239 -40.585201 
L 125.963945 -55.057966 
L 131.12265 -58.072491 
L 136.281356 -55.80722 
L 141.440062 -58.38941 
L 146.598767 -62.640289 
L 151.757473 -69.22536 
L 156.916179 -61.986575 
L 162.074884 -60.926419 
L 167.23359 -70.235183 
L 172.392296 -75.381412 
L 177.551002 -74.816297 
L 182.709707 -73.565888 
L 187.868413 -69.595877 
L 193.027119 -116.596215 
L 198.185824 -116.341428 
L 203.34453 -116.341428 
L 208.503236 -116.341428 
L 213.661941 -116.341428 
L 218.820647 -116.341428 
L 223.979353 -116.341428 
L 229.138059 -116.328563 
L 234.296764 -118.840444 
L 239.45547 -118.840444 
L 244.614176 -119.132826 
L 249.772881 -161.431845 
L 254.931587 -161.898136 
L 260.090293 -163.040296 
L 265.248998 -238.678825 
L 270.407704 -238.678825 
L 275.56641 -238.678825 
L 280.725116 -238.678825 
L 285.883821 -238.678825 
L 291.042527 -235.099341 
L 296.201233 -235.233799 
L 301.359938 -235.233799 
L 306.518644 -235.233799 
L 311.67735 -234.966811 
L 316.836055 -235.233799 
L 321.994761 -235.241547 
L 327.153467 -235.241547 
L 332.312173 -235.241547 
L 337.470878 -243.95486 
L 342.629584 -244.680736 
L 347.78829 -244.680736 
L 352.946995 -244.680736 
L 358.105701 -235.241547 
L 363.264407 -235.241547 
L 368.423112 -235.241547 
L 373.581818 -235.241547 
L 373.581818 -235.241547 
L 373.581818 -235.241547 
L 368.423112 -235.241547 
L 363.264407 -235.241547 
L 358.105701 -235.241547 
L 352.946995 -244.680736 
L 347.78829 -244.680736 
L 342.629584 -244.680736 
L 337.470878 -243.95486 
L 332.312173 -235.241547 
L 327.153467 -235.241547 
L 321.994761 -235.241547 
L 316.836055 -235.233799 
L 311.67735 -234.966811 
L 306.518644 -235.233799 
L 301.359938 -235.233799 
L 296.201233 -235.233799 
L 291.042527 -235.099341 
L 285.883821 -238.678825 
L 280.725116 -238.678825 
L 275.56641 -238.678825 
L 270.407704 -238.678825 
L 265.248998 -238.678825 
L 260.090293 -163.040296 
L 254.931587 -161.898136 
L 249.772881 -161.431845 
L 244.614176 -119.132826 
L 239.45547 -118.840444 
L 234.296764 -118.840444 
L 229.138059 -116.328563 
L 223.979353 -116.341428 
L 218.820647 -116.341428 
L 213.661941 -116.341428 
L 208.503236 -116.341428 
L 203.34453 -116.341428 
L 198.185824 -116.341428 
L 193.027119 -116.596215 
L 187.868413 -69.595877 
L 182.709707 -73.565888 
L 177.551002 -74.816297 
L 172.392296 -75.381412 
L 167.23359 -70.235183 
L 162.074884 -60.926419 
L 156.916179 -61.986575 
L 151.757473 -69.22536 
L 146.598767 -62.640289 
L 141.440062 -58.38941 
L 136.281356 -55.80722 
L 131.12265 -58.072491 
L 125.963945 -55.057966 
L 120.805239 -40.585201 
L 115.646533 -34.684594 
L 110.487827 -40.663891 
L 105.329122 -44.933404 
L 100.170416 -41.851577 
L 95.01171 -49.591793 
L 89.853005 -55.066291 
L 84.694299 -55.822706 
L 79.535593 -39.563031 
L 74.376888 -33.21394 
L 69.218182 -35.030153 
z
" style="stroke: #9d02d7; stroke-opacity: 0.2"/>
    </defs>
    <g clip-path="url(#p8c4c136ec8)">
     <use xlink:href="#md62e896bc5" x="0" y="288" style="fill: #9d02d7; fill-opacity: 0.2; stroke: #9d02d7; stroke-opacity: 0.2"/>
    </g>
   </g>
   <g id="PolyCollection_2">
    <defs>
     <path id="me22dafff65" d="M 69.218182 -35.304797 
L 69.218182 -35.304797 
L 74.376888 -35.738572 
L 79.535593 -32.187741 
L 84.694299 -33.01487 
L 89.853005 -39.381391 
L 95.01171 -21.815147 
L 100.170416 -16.280521 
L 105.329122 -34.887454 
L 110.487827 -16.49739 
L 115.646533 -34.403303 
L 120.805239 -34.041092 
L 125.963945 -33.827242 
L 131.12265 -19.949252 
L 136.281356 -20.020891 
L 141.440062 -32.90591 
L 146.598767 -32.902447 
L 151.757473 -33.854562 
L 156.916179 -26.067891 
L 162.074884 -26.849465 
L 167.23359 -23.801298 
L 172.392296 -32.493613 
L 177.551002 -17.765811 
L 182.709707 -32.170038 
L 187.868413 -35.248436 
L 193.027119 -34.350647 
L 198.185824 -39.492819 
L 203.34453 -34.776338 
L 208.503236 -34.535571 
L 213.661941 -34.324317 
L 218.820647 -35.126459 
L 223.979353 -37.02082 
L 229.138059 -36.007864 
L 234.296764 -52.034212 
L 239.45547 -52.033416 
L 244.614176 -52.033695 
L 249.772881 -68.680773 
L 254.931587 -69.32889 
L 260.090293 -71.076022 
L 265.248998 -70.446743 
L 270.407704 -164.15316 
L 275.56641 -165.413439 
L 280.725116 -165.637582 
L 285.883821 -172.567122 
L 291.042527 -173.474661 
L 296.201233 -173.474661 
L 301.359938 -173.474661 
L 306.518644 -173.476637 
L 311.67735 -173.476637 
L 316.836055 -173.476637 
L 321.994761 -173.476637 
L 327.153467 -173.476637 
L 332.312173 -244.245783 
L 337.470878 -244.245783 
L 342.629584 -244.245783 
L 347.78829 -244.245783 
L 352.946995 -244.242825 
L 358.105701 -244.242825 
L 363.264407 -244.242825 
L 368.423112 -244.242825 
L 373.581818 -244.242825 
L 373.581818 -244.242825 
L 373.581818 -244.242825 
L 368.423112 -244.242825 
L 363.264407 -244.242825 
L 358.105701 -244.242825 
L 352.946995 -244.242825 
L 347.78829 -244.245783 
L 342.629584 -244.245783 
L 337.470878 -244.245783 
L 332.312173 -244.245783 
L 327.153467 -173.476637 
L 321.994761 -173.476637 
L 316.836055 -173.476637 
L 311.67735 -173.476637 
L 306.518644 -173.476637 
L 301.359938 -173.474661 
L 296.201233 -173.474661 
L 291.042527 -173.474661 
L 285.883821 -172.567122 
L 280.725116 -165.637582 
L 275.56641 -165.413439 
L 270.407704 -164.15316 
L 265.248998 -70.446743 
L 260.090293 -71.076022 
L 254.931587 -69.32889 
L 249.772881 -68.680773 
L 244.614176 -52.033695 
L 239.45547 -52.033416 
L 234.296764 -52.034212 
L 229.138059 -36.007864 
L 223.979353 -37.02082 
L 218.820647 -35.126459 
L 213.661941 -34.324317 
L 208.503236 -34.535571 
L 203.34453 -34.776338 
L 198.185824 -39.492819 
L 193.027119 -34.350647 
L 187.868413 -35.248436 
L 182.709707 -32.170038 
L 177.551002 -17.765811 
L 172.392296 -32.493613 
L 167.23359 -23.801298 
L 162.074884 -26.849465 
L 156.916179 -26.067891 
L 151.757473 -33.854562 
L 146.598767 -32.902447 
L 141.440062 -32.90591 
L 136.281356 -20.020891 
L 131.12265 -19.949252 
L 125.963945 -33.827242 
L 120.805239 -34.041092 
L 115.646533 -34.403303 
L 110.487827 -16.49739 
L 105.329122 -34.887454 
L 100.170416 -16.280521 
L 95.01171 -21.815147 
L 89.853005 -39.381391 
L 84.694299 -33.01487 
L 79.535593 -32.187741 
L 74.376888 -35.738572 
L 69.218182 -35.304797 
z
" style="stroke: #0000ff; stroke-opacity: 0.2"/>
    </defs>
    <g clip-path="url(#p8c4c136ec8)">
     <use xlink:href="#me22dafff65" x="0" y="288" style="fill: #0000ff; fill-opacity: 0.2; stroke: #0000ff; stroke-opacity: 0.2"/>
    </g>
   </g>
   <g id="PolyCollection_3">
    <defs>
     <path id="m71ad5c281a" d="M 69.218182 -29.819255 
L 69.218182 -29.819255 
L 74.376888 -35.091182 
L 79.535593 -35.091182 
L 84.694299 -33.742678 
L 89.853005 -33.263945 
L 95.01171 -33.846113 
L 100.170416 -34.895904 
L 105.329122 -30.98162 
L 110.487827 -83.049137 
L 115.646533 -40.063794 
L 120.805239 -34.841211 
L 125.963945 -41.659676 
L 131.12265 -57.195653 
L 136.281356 -33.267164 
L 141.440062 -42.887451 
L 146.598767 -31.129349 
L 151.757473 -34.831185 
L 156.916179 -35.638051 
L 162.074884 -34.613283 
L 167.23359 -37.976006 
L 172.392296 -37.862685 
L 177.551002 -33.577644 
L 182.709707 -34.526003 
L 187.868413 -33.591703 
L 193.027119 -33.908501 
L 198.185824 -36.563428 
L 203.34453 -47.726216 
L 208.503236 -39.65315 
L 213.661941 -39.390989 
L 218.820647 -52.557182 
L 223.979353 -79.179058 
L 229.138059 -67.577132 
L 234.296764 -161.137238 
L 239.45547 -161.399462 
L 244.614176 -163.452188 
L 249.772881 -164.149511 
L 254.931587 -164.149511 
L 260.090293 -163.723902 
L 265.248998 -164.785554 
L 270.407704 -167.351555 
L 275.56641 -154.255351 
L 280.725116 -155.890655 
L 285.883821 -164.819783 
L 291.042527 -235.516643 
L 296.201233 -232.846681 
L 301.359938 -228.227806 
L 306.518644 -231.335877 
L 311.67735 -230.408679 
L 316.836055 -234.348292 
L 321.994761 -244.037403 
L 327.153467 -244.037403 
L 332.312173 -244.037403 
L 337.470878 -244.129823 
L 342.629584 -244.129823 
L 347.78829 -244.129647 
L 352.946995 -244.129823 
L 358.105701 -244.129823 
L 363.264407 -244.129823 
L 368.423112 -244.129823 
L 373.581818 -244.129823 
L 373.581818 -244.129823 
L 373.581818 -244.129823 
L 368.423112 -244.129823 
L 363.264407 -244.129823 
L 358.105701 -244.129823 
L 352.946995 -244.129823 
L 347.78829 -244.129647 
L 342.629584 -244.129823 
L 337.470878 -244.129823 
L 332.312173 -244.037403 
L 327.153467 -244.037403 
L 321.994761 -244.037403 
L 316.836055 -234.348292 
L 311.67735 -230.408679 
L 306.518644 -231.335877 
L 301.359938 -228.227806 
L 296.201233 -232.846681 
L 291.042527 -235.516643 
L 285.883821 -164.819783 
L 280.725116 -155.890655 
L 275.56641 -154.255351 
L 270.407704 -167.351555 
L 265.248998 -164.785554 
L 260.090293 -163.723902 
L 254.931587 -164.149511 
L 249.772881 -164.149511 
L 244.614176 -163.452188 
L 239.45547 -161.399462 
L 234.296764 -161.137238 
L 229.138059 -67.577132 
L 223.979353 -79.179058 
L 218.820647 -52.557182 
L 213.661941 -39.390989 
L 208.503236 -39.65315 
L 203.34453 -47.726216 
L 198.185824 -36.563428 
L 193.027119 -33.908501 
L 187.868413 -33.591703 
L 182.709707 -34.526003 
L 177.551002 -33.577644 
L 172.392296 -37.862685 
L 167.23359 -37.976006 
L 162.074884 -34.613283 
L 156.916179 -35.638051 
L 151.757473 -34.831185 
L 146.598767 -31.129349 
L 141.440062 -42.887451 
L 136.281356 -33.267164 
L 131.12265 -57.195653 
L 125.963945 -41.659676 
L 120.805239 -34.841211 
L 115.646533 -40.063794 
L 110.487827 -83.049137 
L 105.329122 -30.98162 
L 100.170416 -34.895904 
L 95.01171 -33.846113 
L 89.853005 -33.263945 
L 84.694299 -33.742678 
L 79.535593 -35.091182 
L 74.376888 -35.091182 
L 69.218182 -29.819255 
z
" style="stroke: #ff7763; stroke-opacity: 0.2"/>
    </defs>
    <g clip-path="url(#p8c4c136ec8)">
     <use xlink:href="#m71ad5c281a" x="0" y="288" style="fill: #ff7763; fill-opacity: 0.2; stroke: #ff7763; stroke-opacity: 0.2"/>
    </g>
   </g>
   <g id="PolyCollection_4">
    <defs>
     <path id="maf902798ac" d="M 69.218182 -35.004598 
L 69.218182 -35.004598 
L 74.376888 -87.088304 
L 79.535593 -68.598249 
L 84.694299 -55.791946 
L 89.853005 -34.332653 
L 95.01171 -94.57523 
L 100.170416 -36.250152 
L 105.329122 -36.60942 
L 110.487827 -83.884314 
L 115.646533 -58.19005 
L 120.805239 -33.93392 
L 125.963945 -35.634733 
L 131.12265 -69.728366 
L 136.281356 -38.164279 
L 141.440062 -63.938871 
L 146.598767 -93.812916 
L 151.757473 -35.101662 
L 156.916179 -35.163252 
L 162.074884 -36.311091 
L 167.23359 -35.165611 
L 172.392296 -43.106914 
L 177.551002 -40.311042 
L 182.709707 -43.683921 
L 187.868413 -45.94141 
L 193.027119 -43.459791 
L 198.185824 -43.211877 
L 203.34453 -35.469782 
L 208.503236 -34.795959 
L 213.661941 -43.458093 
L 218.820647 -45.122455 
L 223.979353 -45.885469 
L 229.138059 -46.057288 
L 234.296764 -50.569695 
L 239.45547 -97.914256 
L 244.614176 -127.238985 
L 249.772881 -114.866144 
L 254.931587 -128.414853 
L 260.090293 -100.418258 
L 265.248998 -112.642331 
L 270.407704 -131.921581 
L 275.56641 -131.922271 
L 280.725116 -131.927098 
L 285.883821 -132.000086 
L 291.042527 -131.999284 
L 296.201233 -132.964026 
L 301.359938 -133.210067 
L 306.518644 -133.210067 
L 311.67735 -134.486499 
L 316.836055 -127.111832 
L 321.994761 -134.478894 
L 327.153467 -134.561819 
L 332.312173 -134.561819 
L 337.470878 -134.561819 
L 342.629584 -134.561819 
L 347.78829 -240.995664 
L 352.946995 -240.8845 
L 358.105701 -240.995664 
L 363.264407 -240.995664 
L 368.423112 -240.995664 
L 373.581818 -240.995664 
L 373.581818 -240.995664 
L 373.581818 -240.995664 
L 368.423112 -240.995664 
L 363.264407 -240.995664 
L 358.105701 -240.995664 
L 352.946995 -240.8845 
L 347.78829 -240.995664 
L 342.629584 -134.561819 
L 337.470878 -134.561819 
L 332.312173 -134.561819 
L 327.153467 -134.561819 
L 321.994761 -134.478894 
L 316.836055 -127.111832 
L 311.67735 -134.486499 
L 306.518644 -133.210067 
L 301.359938 -133.210067 
L 296.201233 -132.964026 
L 291.042527 -131.999284 
L 285.883821 -132.000086 
L 280.725116 -131.927098 
L 275.56641 -131.922271 
L 270.407704 -131.921581 
L 265.248998 -112.642331 
L 260.090293 -100.418258 
L 254.931587 -128.414853 
L 249.772881 -114.866144 
L 244.614176 -127.238985 
L 239.45547 -97.914256 
L 234.296764 -50.569695 
L 229.138059 -46.057288 
L 223.979353 -45.885469 
L 218.820647 -45.122455 
L 213.661941 -43.458093 
L 208.503236 -34.795959 
L 203.34453 -35.469782 
L 198.185824 -43.211877 
L 193.027119 -43.459791 
L 187.868413 -45.94141 
L 182.709707 -43.683921 
L 177.551002 -40.311042 
L 172.392296 -43.106914 
L 167.23359 -35.165611 
L 162.074884 -36.311091 
L 156.916179 -35.163252 
L 151.757473 -35.101662 
L 146.598767 -93.812916 
L 141.440062 -63.938871 
L 136.281356 -38.164279 
L 131.12265 -69.728366 
L 125.963945 -35.634733 
L 120.805239 -33.93392 
L 115.646533 -58.19005 
L 110.487827 -83.884314 
L 105.329122 -36.60942 
L 100.170416 -36.250152 
L 95.01171 -94.57523 
L 89.853005 -34.332653 
L 84.694299 -55.791946 
L 79.535593 -68.598249 
L 74.376888 -87.088304 
L 69.218182 -35.004598 
z
" style="stroke: #ffac1e; stroke-opacity: 0.2"/>
    </defs>
    <g clip-path="url(#p8c4c136ec8)">
     <use xlink:href="#maf902798ac" x="0" y="288" style="fill: #ffac1e; fill-opacity: 0.2; stroke: #ffac1e; stroke-opacity: 0.2"/>
    </g>
   </g>
   <g id="PolyCollection_5">
    <defs>
     <path id="mc317d17c70" d="M 69.218182 -26.88228 
L 69.218182 -26.88228 
L 74.376888 -35.091182 
L 79.535593 -34.83227 
L 84.694299 -35.850479 
L 89.853005 -35.078572 
L 95.01171 -35.090566 
L 100.170416 -37.486685 
L 105.329122 -35.091182 
L 110.487827 -34.506469 
L 115.646533 -35.091182 
L 120.805239 -36.433751 
L 125.963945 -34.533246 
L 131.12265 -35.088268 
L 136.281356 -35.091182 
L 141.440062 -34.46014 
L 146.598767 -104.3777 
L 151.757473 -35.080146 
L 156.916179 -35.48338 
L 162.074884 -35.044311 
L 167.23359 -34.797091 
L 172.392296 -35.087331 
L 177.551002 -35.088709 
L 182.709707 -35.087997 
L 187.868413 -33.991801 
L 193.027119 -35.040126 
L 198.185824 -34.65826 
L 203.34453 -35.131759 
L 208.503236 -34.60922 
L 213.661941 -34.198387 
L 218.820647 -34.987015 
L 223.979353 -35.221735 
L 229.138059 -35.101335 
L 234.296764 -34.98761 
L 239.45547 -35.362724 
L 244.614176 -53.163971 
L 249.772881 -35.057738 
L 254.931587 -34.407097 
L 260.090293 -33.842998 
L 265.248998 -33.578148 
L 270.407704 -34.812442 
L 275.56641 -33.824013 
L 280.725116 -34.51016 
L 285.883821 -36.754763 
L 291.042527 -37.043037 
L 296.201233 -36.618663 
L 301.359938 -36.851814 
L 306.518644 -36.618663 
L 311.67735 -44.89128 
L 316.836055 -42.548937 
L 321.994761 -122.95853 
L 327.153467 -121.411449 
L 332.312173 -121.411449 
L 337.470878 -122.068744 
L 342.629584 -122.06926 
L 347.78829 -122.06926 
L 352.946995 -125.433767 
L 358.105701 -159.40783 
L 363.264407 -244.588009 
L 368.423112 -244.588009 
L 373.581818 -244.732875 
L 373.581818 -244.732875 
L 373.581818 -244.732875 
L 368.423112 -244.588009 
L 363.264407 -244.588009 
L 358.105701 -159.40783 
L 352.946995 -125.433767 
L 347.78829 -122.06926 
L 342.629584 -122.06926 
L 337.470878 -122.068744 
L 332.312173 -121.411449 
L 327.153467 -121.411449 
L 321.994761 -122.95853 
L 316.836055 -42.548937 
L 311.67735 -44.89128 
L 306.518644 -36.618663 
L 301.359938 -36.851814 
L 296.201233 -36.618663 
L 291.042527 -37.043037 
L 285.883821 -36.754763 
L 280.725116 -34.51016 
L 275.56641 -33.824013 
L 270.407704 -34.812442 
L 265.248998 -33.578148 
L 260.090293 -33.842998 
L 254.931587 -34.407097 
L 249.772881 -35.057738 
L 244.614176 -53.163971 
L 239.45547 -35.362724 
L 234.296764 -34.98761 
L 229.138059 -35.101335 
L 223.979353 -35.221735 
L 218.820647 -34.987015 
L 213.661941 -34.198387 
L 208.503236 -34.60922 
L 203.34453 -35.131759 
L 198.185824 -34.65826 
L 193.027119 -35.040126 
L 187.868413 -33.991801 
L 182.709707 -35.087997 
L 177.551002 -35.088709 
L 172.392296 -35.087331 
L 167.23359 -34.797091 
L 162.074884 -35.044311 
L 156.916179 -35.48338 
L 151.757473 -35.080146 
L 146.598767 -104.3777 
L 141.440062 -34.46014 
L 136.281356 -35.091182 
L 131.12265 -35.088268 
L 125.963945 -34.533246 
L 120.805239 -36.433751 
L 115.646533 -35.091182 
L 110.487827 -34.506469 
L 105.329122 -35.091182 
L 100.170416 -37.486685 
L 95.01171 -35.090566 
L 89.853005 -35.078572 
L 84.694299 -35.850479 
L 79.535593 -34.83227 
L 74.376888 -35.091182 
L 69.218182 -26.88228 
z
" style="stroke: #009435; stroke-opacity: 0.2"/>
    </defs>
    <g clip-path="url(#p8c4c136ec8)">
     <use xlink:href="#mc317d17c70" x="0" y="288" style="fill: #009435; fill-opacity: 0.2; stroke: #009435; stroke-opacity: 0.2"/>
    </g>
   </g>
   <g id="matplotlib.axis_1">
    <g id="xtick_1">
     <g id="line2d_1">
      <path d="M 69.218182 252 
L 69.218182 34.56 
" clip-path="url(#p8c4c136ec8)" style="fill: none; stroke-dasharray: 2.96,1.28; stroke-dashoffset: 0; stroke: #b0b0b0; stroke-width: 0.8"/>
     </g>
     <g id="line2d_2">
      <defs>
       <path id="m7828543f81" d="M 0 0 
L 0 3.5 
" style="stroke: #000000; stroke-width: 0.8"/>
      </defs>
      <g>
       <use xlink:href="#m7828543f81" x="69.218182" y="252" style="stroke: #000000; stroke-width: 0.8"/>
      </g>
     </g>
     <g id="text_1">
      <!-- 0 -->
      <g transform="translate(66.036932 266.598437)scale(0.1 -0.1)">
       <defs>
        <path id="DejaVuSans-30" d="M 2034 4250 
Q 1547 4250 1301 3770 
Q 1056 3291 1056 2328 
Q 1056 1369 1301 889 
Q 1547 409 2034 409 
Q 2525 409 2770 889 
Q 3016 1369 3016 2328 
Q 3016 3291 2770 3770 
Q 2525 4250 2034 4250 
z
M 2034 4750 
Q 2819 4750 3233 4129 
Q 3647 3509 3647 2328 
Q 3647 1150 3233 529 
Q 2819 -91 2034 -91 
Q 1250 -91 836 529 
Q 422 1150 422 2328 
Q 422 3509 836 4129 
Q 1250 4750 2034 4750 
z
" transform="scale(0.015625)"/>
       </defs>
       <use xlink:href="#DejaVuSans-30"/>
      </g>
     </g>
    </g>
    <g id="xtick_2">
     <g id="line2d_3">
      <path d="M 120.805239 252 
L 120.805239 34.56 
" clip-path="url(#p8c4c136ec8)" style="fill: none; stroke-dasharray: 2.96,1.28; stroke-dashoffset: 0; stroke: #b0b0b0; stroke-width: 0.8"/>
     </g>
     <g id="line2d_4">
      <g>
       <use xlink:href="#m7828543f81" x="120.805239" y="252" style="stroke: #000000; stroke-width: 0.8"/>
      </g>
     </g>
     <g id="text_2">
      <!-- 500 -->
      <g transform="translate(111.261489 266.598437)scale(0.1 -0.1)">
       <defs>
        <path id="DejaVuSans-35" d="M 691 4666 
L 3169 4666 
L 3169 4134 
L 1269 4134 
L 1269 2991 
Q 1406 3038 1543 3061 
Q 1681 3084 1819 3084 
Q 2600 3084 3056 2656 
Q 3513 2228 3513 1497 
Q 3513 744 3044 326 
Q 2575 -91 1722 -91 
Q 1428 -91 1123 -41 
Q 819 9 494 109 
L 494 744 
Q 775 591 1075 516 
Q 1375 441 1709 441 
Q 2250 441 2565 725 
Q 2881 1009 2881 1497 
Q 2881 1984 2565 2268 
Q 2250 2553 1709 2553 
Q 1456 2553 1204 2497 
Q 953 2441 691 2322 
L 691 4666 
z
" transform="scale(0.015625)"/>
       </defs>
       <use xlink:href="#DejaVuSans-35"/>
       <use xlink:href="#DejaVuSans-30" x="63.623047"/>
       <use xlink:href="#DejaVuSans-30" x="127.246094"/>
      </g>
     </g>
    </g>
    <g id="xtick_3">
     <g id="line2d_5">
      <path d="M 172.392296 252 
L 172.392296 34.56 
" clip-path="url(#p8c4c136ec8)" style="fill: none; stroke-dasharray: 2.96,1.28; stroke-dashoffset: 0; stroke: #b0b0b0; stroke-width: 0.8"/>
     </g>
     <g id="line2d_6">
      <g>
       <use xlink:href="#m7828543f81" x="172.392296" y="252" style="stroke: #000000; stroke-width: 0.8"/>
      </g>
     </g>
     <g id="text_3">
      <!-- 1000 -->
      <g transform="translate(159.667296 266.598437)scale(0.1 -0.1)">
       <defs>
        <path id="DejaVuSans-31" d="M 794 531 
L 1825 531 
L 1825 4091 
L 703 3866 
L 703 4441 
L 1819 4666 
L 2450 4666 
L 2450 531 
L 3481 531 
L 3481 0 
L 794 0 
L 794 531 
z
" transform="scale(0.015625)"/>
       </defs>
       <use xlink:href="#DejaVuSans-31"/>
       <use xlink:href="#DejaVuSans-30" x="63.623047"/>
       <use xlink:href="#DejaVuSans-30" x="127.246094"/>
       <use xlink:href="#DejaVuSans-30" x="190.869141"/>
      </g>
     </g>
    </g>
    <g id="xtick_4">
     <g id="line2d_7">
      <path d="M 223.979353 252 
L 223.979353 34.56 
" clip-path="url(#p8c4c136ec8)" style="fill: none; stroke-dasharray: 2.96,1.28; stroke-dashoffset: 0; stroke: #b0b0b0; stroke-width: 0.8"/>
     </g>
     <g id="line2d_8">
      <g>
       <use xlink:href="#m7828543f81" x="223.979353" y="252" style="stroke: #000000; stroke-width: 0.8"/>
      </g>
     </g>
     <g id="text_4">
      <!-- 1500 -->
      <g transform="translate(211.254353 266.598437)scale(0.1 -0.1)">
       <use xlink:href="#DejaVuSans-31"/>
       <use xlink:href="#DejaVuSans-35" x="63.623047"/>
       <use xlink:href="#DejaVuSans-30" x="127.246094"/>
       <use xlink:href="#DejaVuSans-30" x="190.869141"/>
      </g>
     </g>
    </g>
    <g id="xtick_5">
     <g id="line2d_9">
      <path d="M 275.56641 252 
L 275.56641 34.56 
" clip-path="url(#p8c4c136ec8)" style="fill: none; stroke-dasharray: 2.96,1.28; stroke-dashoffset: 0; stroke: #b0b0b0; stroke-width: 0.8"/>
     </g>
     <g id="line2d_10">
      <g>
       <use xlink:href="#m7828543f81" x="275.56641" y="252" style="stroke: #000000; stroke-width: 0.8"/>
      </g>
     </g>
     <g id="text_5">
      <!-- 2000 -->
      <g transform="translate(262.84141 266.598437)scale(0.1 -0.1)">
       <defs>
        <path id="DejaVuSans-32" d="M 1228 531 
L 3431 531 
L 3431 0 
L 469 0 
L 469 531 
Q 828 903 1448 1529 
Q 2069 2156 2228 2338 
Q 2531 2678 2651 2914 
Q 2772 3150 2772 3378 
Q 2772 3750 2511 3984 
Q 2250 4219 1831 4219 
Q 1534 4219 1204 4116 
Q 875 4013 500 3803 
L 500 4441 
Q 881 4594 1212 4672 
Q 1544 4750 1819 4750 
Q 2544 4750 2975 4387 
Q 3406 4025 3406 3419 
Q 3406 3131 3298 2873 
Q 3191 2616 2906 2266 
Q 2828 2175 2409 1742 
Q 1991 1309 1228 531 
z
" transform="scale(0.015625)"/>
       </defs>
       <use xlink:href="#DejaVuSans-32"/>
       <use xlink:href="#DejaVuSans-30" x="63.623047"/>
       <use xlink:href="#DejaVuSans-30" x="127.246094"/>
       <use xlink:href="#DejaVuSans-30" x="190.869141"/>
      </g>
     </g>
    </g>
    <g id="xtick_6">
     <g id="line2d_11">
      <path d="M 327.153467 252 
L 327.153467 34.56 
" clip-path="url(#p8c4c136ec8)" style="fill: none; stroke-dasharray: 2.96,1.28; stroke-dashoffset: 0; stroke: #b0b0b0; stroke-width: 0.8"/>
     </g>
     <g id="line2d_12">
      <g>
       <use xlink:href="#m7828543f81" x="327.153467" y="252" style="stroke: #000000; stroke-width: 0.8"/>
      </g>
     </g>
     <g id="text_6">
      <!-- 2500 -->
      <g transform="translate(314.428467 266.598437)scale(0.1 -0.1)">
       <use xlink:href="#DejaVuSans-32"/>
       <use xlink:href="#DejaVuSans-35" x="63.623047"/>
       <use xlink:href="#DejaVuSans-30" x="127.246094"/>
       <use xlink:href="#DejaVuSans-30" x="190.869141"/>
      </g>
     </g>
    </g>
    <g id="xtick_7">
     <g id="line2d_13">
      <path d="M 378.740524 252 
L 378.740524 34.56 
" clip-path="url(#p8c4c136ec8)" style="fill: none; stroke-dasharray: 2.96,1.28; stroke-dashoffset: 0; stroke: #b0b0b0; stroke-width: 0.8"/>
     </g>
     <g id="line2d_14">
      <g>
       <use xlink:href="#m7828543f81" x="378.740524" y="252" style="stroke: #000000; stroke-width: 0.8"/>
      </g>
     </g>
     <g id="text_7">
      <!-- 3000 -->
      <g transform="translate(366.015524 266.598437)scale(0.1 -0.1)">
       <defs>
        <path id="DejaVuSans-33" d="M 2597 2516 
Q 3050 2419 3304 2112 
Q 3559 1806 3559 1356 
Q 3559 666 3084 287 
Q 2609 -91 1734 -91 
Q 1441 -91 1130 -33 
Q 819 25 488 141 
L 488 750 
Q 750 597 1062 519 
Q 1375 441 1716 441 
Q 2309 441 2620 675 
Q 2931 909 2931 1356 
Q 2931 1769 2642 2001 
Q 2353 2234 1838 2234 
L 1294 2234 
L 1294 2753 
L 1863 2753 
Q 2328 2753 2575 2939 
Q 2822 3125 2822 3475 
Q 2822 3834 2567 4026 
Q 2313 4219 1838 4219 
Q 1578 4219 1281 4162 
Q 984 4106 628 3988 
L 628 4550 
Q 988 4650 1302 4700 
Q 1616 4750 1894 4750 
Q 2613 4750 3031 4423 
Q 3450 4097 3450 3541 
Q 3450 3153 3228 2886 
Q 3006 2619 2597 2516 
z
" transform="scale(0.015625)"/>
       </defs>
       <use xlink:href="#DejaVuSans-33"/>
       <use xlink:href="#DejaVuSans-30" x="63.623047"/>
       <use xlink:href="#DejaVuSans-30" x="127.246094"/>
       <use xlink:href="#DejaVuSans-30" x="190.869141"/>
      </g>
     </g>
    </g>
    <g id="text_8">
     <!-- Steps -->
     <g transform="translate(207.410156 280.276563)scale(0.1 -0.1)">
      <defs>
       <path id="DejaVuSans-53" d="M 3425 4513 
L 3425 3897 
Q 3066 4069 2747 4153 
Q 2428 4238 2131 4238 
Q 1616 4238 1336 4038 
Q 1056 3838 1056 3469 
Q 1056 3159 1242 3001 
Q 1428 2844 1947 2747 
L 2328 2669 
Q 3034 2534 3370 2195 
Q 3706 1856 3706 1288 
Q 3706 609 3251 259 
Q 2797 -91 1919 -91 
Q 1588 -91 1214 -16 
Q 841 59 441 206 
L 441 856 
Q 825 641 1194 531 
Q 1563 422 1919 422 
Q 2459 422 2753 634 
Q 3047 847 3047 1241 
Q 3047 1584 2836 1778 
Q 2625 1972 2144 2069 
L 1759 2144 
Q 1053 2284 737 2584 
Q 422 2884 422 3419 
Q 422 4038 858 4394 
Q 1294 4750 2059 4750 
Q 2388 4750 2728 4690 
Q 3069 4631 3425 4513 
z
" transform="scale(0.015625)"/>
       <path id="DejaVuSans-74" d="M 1172 4494 
L 1172 3500 
L 2356 3500 
L 2356 3053 
L 1172 3053 
L 1172 1153 
Q 1172 725 1289 603 
Q 1406 481 1766 481 
L 2356 481 
L 2356 0 
L 1766 0 
Q 1100 0 847 248 
Q 594 497 594 1153 
L 594 3053 
L 172 3053 
L 172 3500 
L 594 3500 
L 594 4494 
L 1172 4494 
z
" transform="scale(0.015625)"/>
       <path id="DejaVuSans-65" d="M 3597 1894 
L 3597 1613 
L 953 1613 
Q 991 1019 1311 708 
Q 1631 397 2203 397 
Q 2534 397 2845 478 
Q 3156 559 3463 722 
L 3463 178 
Q 3153 47 2828 -22 
Q 2503 -91 2169 -91 
Q 1331 -91 842 396 
Q 353 884 353 1716 
Q 353 2575 817 3079 
Q 1281 3584 2069 3584 
Q 2775 3584 3186 3129 
Q 3597 2675 3597 1894 
z
M 3022 2063 
Q 3016 2534 2758 2815 
Q 2500 3097 2075 3097 
Q 1594 3097 1305 2825 
Q 1016 2553 972 2059 
L 3022 2063 
z
" transform="scale(0.015625)"/>
       <path id="DejaVuSans-70" d="M 1159 525 
L 1159 -1331 
L 581 -1331 
L 581 3500 
L 1159 3500 
L 1159 2969 
Q 1341 3281 1617 3432 
Q 1894 3584 2278 3584 
Q 2916 3584 3314 3078 
Q 3713 2572 3713 1747 
Q 3713 922 3314 415 
Q 2916 -91 2278 -91 
Q 1894 -91 1617 61 
Q 1341 213 1159 525 
z
M 3116 1747 
Q 3116 2381 2855 2742 
Q 2594 3103 2138 3103 
Q 1681 3103 1420 2742 
Q 1159 2381 1159 1747 
Q 1159 1113 1420 752 
Q 1681 391 2138 391 
Q 2594 391 2855 752 
Q 3116 1113 3116 1747 
z
" transform="scale(0.015625)"/>
       <path id="DejaVuSans-73" d="M 2834 3397 
L 2834 2853 
Q 2591 2978 2328 3040 
Q 2066 3103 1784 3103 
Q 1356 3103 1142 2972 
Q 928 2841 928 2578 
Q 928 2378 1081 2264 
Q 1234 2150 1697 2047 
L 1894 2003 
Q 2506 1872 2764 1633 
Q 3022 1394 3022 966 
Q 3022 478 2636 193 
Q 2250 -91 1575 -91 
Q 1294 -91 989 -36 
Q 684 19 347 128 
L 347 722 
Q 666 556 975 473 
Q 1284 391 1588 391 
Q 1994 391 2212 530 
Q 2431 669 2431 922 
Q 2431 1156 2273 1281 
Q 2116 1406 1581 1522 
L 1381 1569 
Q 847 1681 609 1914 
Q 372 2147 372 2553 
Q 372 3047 722 3315 
Q 1072 3584 1716 3584 
Q 2034 3584 2315 3537 
Q 2597 3491 2834 3397 
z
" transform="scale(0.015625)"/>
      </defs>
      <use xlink:href="#DejaVuSans-53"/>
      <use xlink:href="#DejaVuSans-74" x="63.476562"/>
      <use xlink:href="#DejaVuSans-65" x="102.685547"/>
      <use xlink:href="#DejaVuSans-70" x="164.208984"/>
      <use xlink:href="#DejaVuSans-73" x="227.685547"/>
     </g>
    </g>
   </g>
   <g id="matplotlib.axis_2">
    <g id="ytick_1">
     <g id="line2d_15">
      <path d="M 54 243.636923 
L 388.8 243.636923 
" clip-path="url(#p8c4c136ec8)" style="fill: none; stroke-dasharray: 2.96,1.28; stroke-dashoffset: 0; stroke: #b0b0b0; stroke-width: 0.8"/>
     </g>
     <g id="line2d_16">
      <defs>
       <path id="mc875c272fc" d="M 0 0 
L -3.5 0 
" style="stroke: #000000; stroke-width: 0.8"/>
      </defs>
      <g>
       <use xlink:href="#mc875c272fc" x="54" y="243.636923" style="stroke: #000000; stroke-width: 0.8"/>
      </g>
     </g>
     <g id="text_9">
      <!-- −12 -->
      <g transform="translate(25.895312 247.436142)scale(0.1 -0.1)">
       <defs>
        <path id="DejaVuSans-2212" d="M 678 2272 
L 4684 2272 
L 4684 1741 
L 678 1741 
L 678 2272 
z
" transform="scale(0.015625)"/>
       </defs>
       <use xlink:href="#DejaVuSans-2212"/>
       <use xlink:href="#DejaVuSans-31" x="83.789062"/>
       <use xlink:href="#DejaVuSans-32" x="147.412109"/>
      </g>
     </g>
    </g>
    <g id="ytick_2">
     <g id="line2d_17">
      <path d="M 54 210.184615 
L 388.8 210.184615 
" clip-path="url(#p8c4c136ec8)" style="fill: none; stroke-dasharray: 2.96,1.28; stroke-dashoffset: 0; stroke: #b0b0b0; stroke-width: 0.8"/>
     </g>
     <g id="line2d_18">
      <g>
       <use xlink:href="#mc875c272fc" x="54" y="210.184615" style="stroke: #000000; stroke-width: 0.8"/>
      </g>
     </g>
     <g id="text_10">
      <!-- −10 -->
      <g transform="translate(25.895312 213.983834)scale(0.1 -0.1)">
       <use xlink:href="#DejaVuSans-2212"/>
       <use xlink:href="#DejaVuSans-31" x="83.789062"/>
       <use xlink:href="#DejaVuSans-30" x="147.412109"/>
      </g>
     </g>
    </g>
    <g id="ytick_3">
     <g id="line2d_19">
      <path d="M 54 176.732308 
L 388.8 176.732308 
" clip-path="url(#p8c4c136ec8)" style="fill: none; stroke-dasharray: 2.96,1.28; stroke-dashoffset: 0; stroke: #b0b0b0; stroke-width: 0.8"/>
     </g>
     <g id="line2d_20">
      <g>
       <use xlink:href="#mc875c272fc" x="54" y="176.732308" style="stroke: #000000; stroke-width: 0.8"/>
      </g>
     </g>
     <g id="text_11">
      <!-- −8 -->
      <g transform="translate(32.257812 180.531526)scale(0.1 -0.1)">
       <defs>
        <path id="DejaVuSans-38" d="M 2034 2216 
Q 1584 2216 1326 1975 
Q 1069 1734 1069 1313 
Q 1069 891 1326 650 
Q 1584 409 2034 409 
Q 2484 409 2743 651 
Q 3003 894 3003 1313 
Q 3003 1734 2745 1975 
Q 2488 2216 2034 2216 
z
M 1403 2484 
Q 997 2584 770 2862 
Q 544 3141 544 3541 
Q 544 4100 942 4425 
Q 1341 4750 2034 4750 
Q 2731 4750 3128 4425 
Q 3525 4100 3525 3541 
Q 3525 3141 3298 2862 
Q 3072 2584 2669 2484 
Q 3125 2378 3379 2068 
Q 3634 1759 3634 1313 
Q 3634 634 3220 271 
Q 2806 -91 2034 -91 
Q 1263 -91 848 271 
Q 434 634 434 1313 
Q 434 1759 690 2068 
Q 947 2378 1403 2484 
z
M 1172 3481 
Q 1172 3119 1398 2916 
Q 1625 2713 2034 2713 
Q 2441 2713 2670 2916 
Q 2900 3119 2900 3481 
Q 2900 3844 2670 4047 
Q 2441 4250 2034 4250 
Q 1625 4250 1398 4047 
Q 1172 3844 1172 3481 
z
" transform="scale(0.015625)"/>
       </defs>
       <use xlink:href="#DejaVuSans-2212"/>
       <use xlink:href="#DejaVuSans-38" x="83.789062"/>
      </g>
     </g>
    </g>
    <g id="ytick_4">
     <g id="line2d_21">
      <path d="M 54 143.28 
L 388.8 143.28 
" clip-path="url(#p8c4c136ec8)" style="fill: none; stroke-dasharray: 2.96,1.28; stroke-dashoffset: 0; stroke: #b0b0b0; stroke-width: 0.8"/>
     </g>
     <g id="line2d_22">
      <g>
       <use xlink:href="#mc875c272fc" x="54" y="143.28" style="stroke: #000000; stroke-width: 0.8"/>
      </g>
     </g>
     <g id="text_12">
      <!-- −6 -->
      <g transform="translate(32.257812 147.079219)scale(0.1 -0.1)">
       <defs>
        <path id="DejaVuSans-36" d="M 2113 2584 
Q 1688 2584 1439 2293 
Q 1191 2003 1191 1497 
Q 1191 994 1439 701 
Q 1688 409 2113 409 
Q 2538 409 2786 701 
Q 3034 994 3034 1497 
Q 3034 2003 2786 2293 
Q 2538 2584 2113 2584 
z
M 3366 4563 
L 3366 3988 
Q 3128 4100 2886 4159 
Q 2644 4219 2406 4219 
Q 1781 4219 1451 3797 
Q 1122 3375 1075 2522 
Q 1259 2794 1537 2939 
Q 1816 3084 2150 3084 
Q 2853 3084 3261 2657 
Q 3669 2231 3669 1497 
Q 3669 778 3244 343 
Q 2819 -91 2113 -91 
Q 1303 -91 875 529 
Q 447 1150 447 2328 
Q 447 3434 972 4092 
Q 1497 4750 2381 4750 
Q 2619 4750 2861 4703 
Q 3103 4656 3366 4563 
z
" transform="scale(0.015625)"/>
       </defs>
       <use xlink:href="#DejaVuSans-2212"/>
       <use xlink:href="#DejaVuSans-36" x="83.789062"/>
      </g>
     </g>
    </g>
    <g id="ytick_5">
     <g id="line2d_23">
      <path d="M 54 109.827692 
L 388.8 109.827692 
" clip-path="url(#p8c4c136ec8)" style="fill: none; stroke-dasharray: 2.96,1.28; stroke-dashoffset: 0; stroke: #b0b0b0; stroke-width: 0.8"/>
     </g>
     <g id="line2d_24">
      <g>
       <use xlink:href="#mc875c272fc" x="54" y="109.827692" style="stroke: #000000; stroke-width: 0.8"/>
      </g>
     </g>
     <g id="text_13">
      <!-- −4 -->
      <g transform="translate(32.257812 113.626911)scale(0.1 -0.1)">
       <defs>
        <path id="DejaVuSans-34" d="M 2419 4116 
L 825 1625 
L 2419 1625 
L 2419 4116 
z
M 2253 4666 
L 3047 4666 
L 3047 1625 
L 3713 1625 
L 3713 1100 
L 3047 1100 
L 3047 0 
L 2419 0 
L 2419 1100 
L 313 1100 
L 313 1709 
L 2253 4666 
z
" transform="scale(0.015625)"/>
       </defs>
       <use xlink:href="#DejaVuSans-2212"/>
       <use xlink:href="#DejaVuSans-34" x="83.789062"/>
      </g>
     </g>
    </g>
    <g id="ytick_6">
     <g id="line2d_25">
      <path d="M 54 76.375385 
L 388.8 76.375385 
" clip-path="url(#p8c4c136ec8)" style="fill: none; stroke-dasharray: 2.96,1.28; stroke-dashoffset: 0; stroke: #b0b0b0; stroke-width: 0.8"/>
     </g>
     <g id="line2d_26">
      <g>
       <use xlink:href="#mc875c272fc" x="54" y="76.375385" style="stroke: #000000; stroke-width: 0.8"/>
      </g>
     </g>
     <g id="text_14">
      <!-- −2 -->
      <g transform="translate(32.257812 80.174603)scale(0.1 -0.1)">
       <use xlink:href="#DejaVuSans-2212"/>
       <use xlink:href="#DejaVuSans-32" x="83.789062"/>
      </g>
     </g>
    </g>
    <g id="ytick_7">
     <g id="line2d_27">
      <path d="M 54 42.923077 
L 388.8 42.923077 
" clip-path="url(#p8c4c136ec8)" style="fill: none; stroke-dasharray: 2.96,1.28; stroke-dashoffset: 0; stroke: #b0b0b0; stroke-width: 0.8"/>
     </g>
     <g id="line2d_28">
      <g>
       <use xlink:href="#mc875c272fc" x="54" y="42.923077" style="stroke: #000000; stroke-width: 0.8"/>
      </g>
     </g>
     <g id="text_15">
      <!-- 0 -->
      <g transform="translate(40.6375 46.722296)scale(0.1 -0.1)">
       <use xlink:href="#DejaVuSans-30"/>
      </g>
     </g>
    </g>
    <g id="text_16">
     <!-- Policy value error -->
     <g transform="translate(19.815625 186.597969)rotate(-90)scale(0.1 -0.1)">
      <defs>
       <path id="DejaVuSans-50" d="M 1259 4147 
L 1259 2394 
L 2053 2394 
Q 2494 2394 2734 2622 
Q 2975 2850 2975 3272 
Q 2975 3691 2734 3919 
Q 2494 4147 2053 4147 
L 1259 4147 
z
M 628 4666 
L 2053 4666 
Q 2838 4666 3239 4311 
Q 3641 3956 3641 3272 
Q 3641 2581 3239 2228 
Q 2838 1875 2053 1875 
L 1259 1875 
L 1259 0 
L 628 0 
L 628 4666 
z
" transform="scale(0.015625)"/>
       <path id="DejaVuSans-6f" d="M 1959 3097 
Q 1497 3097 1228 2736 
Q 959 2375 959 1747 
Q 959 1119 1226 758 
Q 1494 397 1959 397 
Q 2419 397 2687 759 
Q 2956 1122 2956 1747 
Q 2956 2369 2687 2733 
Q 2419 3097 1959 3097 
z
M 1959 3584 
Q 2709 3584 3137 3096 
Q 3566 2609 3566 1747 
Q 3566 888 3137 398 
Q 2709 -91 1959 -91 
Q 1206 -91 779 398 
Q 353 888 353 1747 
Q 353 2609 779 3096 
Q 1206 3584 1959 3584 
z
" transform="scale(0.015625)"/>
       <path id="DejaVuSans-6c" d="M 603 4863 
L 1178 4863 
L 1178 0 
L 603 0 
L 603 4863 
z
" transform="scale(0.015625)"/>
       <path id="DejaVuSans-69" d="M 603 3500 
L 1178 3500 
L 1178 0 
L 603 0 
L 603 3500 
z
M 603 4863 
L 1178 4863 
L 1178 4134 
L 603 4134 
L 603 4863 
z
" transform="scale(0.015625)"/>
       <path id="DejaVuSans-63" d="M 3122 3366 
L 3122 2828 
Q 2878 2963 2633 3030 
Q 2388 3097 2138 3097 
Q 1578 3097 1268 2742 
Q 959 2388 959 1747 
Q 959 1106 1268 751 
Q 1578 397 2138 397 
Q 2388 397 2633 464 
Q 2878 531 3122 666 
L 3122 134 
Q 2881 22 2623 -34 
Q 2366 -91 2075 -91 
Q 1284 -91 818 406 
Q 353 903 353 1747 
Q 353 2603 823 3093 
Q 1294 3584 2113 3584 
Q 2378 3584 2631 3529 
Q 2884 3475 3122 3366 
z
" transform="scale(0.015625)"/>
       <path id="DejaVuSans-79" d="M 2059 -325 
Q 1816 -950 1584 -1140 
Q 1353 -1331 966 -1331 
L 506 -1331 
L 506 -850 
L 844 -850 
Q 1081 -850 1212 -737 
Q 1344 -625 1503 -206 
L 1606 56 
L 191 3500 
L 800 3500 
L 1894 763 
L 2988 3500 
L 3597 3500 
L 2059 -325 
z
" transform="scale(0.015625)"/>
       <path id="DejaVuSans-20" transform="scale(0.015625)"/>
       <path id="DejaVuSans-76" d="M 191 3500 
L 800 3500 
L 1894 563 
L 2988 3500 
L 3597 3500 
L 2284 0 
L 1503 0 
L 191 3500 
z
" transform="scale(0.015625)"/>
       <path id="DejaVuSans-61" d="M 2194 1759 
Q 1497 1759 1228 1600 
Q 959 1441 959 1056 
Q 959 750 1161 570 
Q 1363 391 1709 391 
Q 2188 391 2477 730 
Q 2766 1069 2766 1631 
L 2766 1759 
L 2194 1759 
z
M 3341 1997 
L 3341 0 
L 2766 0 
L 2766 531 
Q 2569 213 2275 61 
Q 1981 -91 1556 -91 
Q 1019 -91 701 211 
Q 384 513 384 1019 
Q 384 1609 779 1909 
Q 1175 2209 1959 2209 
L 2766 2209 
L 2766 2266 
Q 2766 2663 2505 2880 
Q 2244 3097 1772 3097 
Q 1472 3097 1187 3025 
Q 903 2953 641 2809 
L 641 3341 
Q 956 3463 1253 3523 
Q 1550 3584 1831 3584 
Q 2591 3584 2966 3190 
Q 3341 2797 3341 1997 
z
" transform="scale(0.015625)"/>
       <path id="DejaVuSans-75" d="M 544 1381 
L 544 3500 
L 1119 3500 
L 1119 1403 
Q 1119 906 1312 657 
Q 1506 409 1894 409 
Q 2359 409 2629 706 
Q 2900 1003 2900 1516 
L 2900 3500 
L 3475 3500 
L 3475 0 
L 2900 0 
L 2900 538 
Q 2691 219 2414 64 
Q 2138 -91 1772 -91 
Q 1169 -91 856 284 
Q 544 659 544 1381 
z
M 1991 3584 
L 1991 3584 
z
" transform="scale(0.015625)"/>
       <path id="DejaVuSans-72" d="M 2631 2963 
Q 2534 3019 2420 3045 
Q 2306 3072 2169 3072 
Q 1681 3072 1420 2755 
Q 1159 2438 1159 1844 
L 1159 0 
L 581 0 
L 581 3500 
L 1159 3500 
L 1159 2956 
Q 1341 3275 1631 3429 
Q 1922 3584 2338 3584 
Q 2397 3584 2469 3576 
Q 2541 3569 2628 3553 
L 2631 2963 
z
" transform="scale(0.015625)"/>
      </defs>
      <use xlink:href="#DejaVuSans-50"/>
      <use xlink:href="#DejaVuSans-6f" x="56.677734"/>
      <use xlink:href="#DejaVuSans-6c" x="117.859375"/>
      <use xlink:href="#DejaVuSans-69" x="145.642578"/>
      <use xlink:href="#DejaVuSans-63" x="173.425781"/>
      <use xlink:href="#DejaVuSans-79" x="228.40625"/>
      <use xlink:href="#DejaVuSans-20" x="287.585938"/>
      <use xlink:href="#DejaVuSans-76" x="319.373047"/>
      <use xlink:href="#DejaVuSans-61" x="378.552734"/>
      <use xlink:href="#DejaVuSans-6c" x="439.832031"/>
      <use xlink:href="#DejaVuSans-75" x="467.615234"/>
      <use xlink:href="#DejaVuSans-65" x="530.994141"/>
      <use xlink:href="#DejaVuSans-20" x="592.517578"/>
      <use xlink:href="#DejaVuSans-65" x="624.304688"/>
      <use xlink:href="#DejaVuSans-72" x="685.828125"/>
      <use xlink:href="#DejaVuSans-72" x="725.191406"/>
      <use xlink:href="#DejaVuSans-6f" x="764.054688"/>
      <use xlink:href="#DejaVuSans-72" x="825.236328"/>
     </g>
    </g>
   </g>
   <g id="line2d_29">
    <path d="M 69.218182 252.969847 
L 74.376888 254.78606 
L 79.535593 248.436969 
L 84.694299 232.177294 
L 89.853005 232.933709 
L 95.01171 238.408207 
L 100.170416 246.148423 
L 105.329122 243.066596 
L 110.487827 247.336109 
L 115.646533 253.315406 
L 120.805239 247.414799 
L 125.963945 232.942034 
L 131.12265 229.927509 
L 136.281356 232.19278 
L 141.440062 229.61059 
L 146.598767 225.359711 
L 151.757473 218.77464 
L 156.916179 226.013425 
L 162.074884 227.073581 
L 167.23359 217.764817 
L 172.392296 212.618588 
L 177.551002 213.183703 
L 182.709707 214.434112 
L 187.868413 218.404123 
L 193.027119 171.403785 
L 198.185824 171.658572 
L 203.34453 171.658572 
L 208.503236 171.658572 
L 213.661941 171.658572 
L 218.820647 171.658572 
L 223.979353 171.658572 
L 229.138059 171.671437 
L 234.296764 169.159556 
L 239.45547 169.159556 
L 244.614176 168.867174 
L 249.772881 126.568155 
L 254.931587 126.101864 
L 260.090293 124.959704 
L 265.248998 49.321175 
L 270.407704 49.321175 
L 275.56641 49.321175 
L 280.725116 49.321175 
L 285.883821 49.321175 
L 291.042527 52.900659 
L 296.201233 52.766201 
L 301.359938 52.766201 
L 306.518644 52.766201 
L 311.67735 53.033189 
L 316.836055 52.766201 
L 321.994761 52.758453 
L 327.153467 52.758453 
L 332.312173 52.758453 
L 337.470878 44.04514 
L 342.629584 43.319264 
L 347.78829 43.319264 
L 352.946995 43.319264 
L 358.105701 52.758453 
L 363.264407 52.758453 
L 368.423112 52.758453 
L 373.581818 52.758453 
" clip-path="url(#p8c4c136ec8)" style="fill: none; stroke: #9d02d7; stroke-width: 1.5; stroke-linecap: square"/>
    <defs>
     <path id="mebdabbd3fc" d="M 0 -2 
L -2 2 
L 2 2 
z
" style="stroke: #9d02d7; stroke-linejoin: miter"/>
    </defs>
    <g clip-path="url(#p8c4c136ec8)">
     <use xlink:href="#mebdabbd3fc" x="69.218182" y="252.969847" style="fill: #9d02d7; stroke: #9d02d7; stroke-linejoin: miter"/>
     <use xlink:href="#mebdabbd3fc" x="74.376888" y="254.78606" style="fill: #9d02d7; stroke: #9d02d7; stroke-linejoin: miter"/>
     <use xlink:href="#mebdabbd3fc" x="79.535593" y="248.436969" style="fill: #9d02d7; stroke: #9d02d7; stroke-linejoin: miter"/>
     <use xlink:href="#mebdabbd3fc" x="84.694299" y="232.177294" style="fill: #9d02d7; stroke: #9d02d7; stroke-linejoin: miter"/>
     <use xlink:href="#mebdabbd3fc" x="89.853005" y="232.933709" style="fill: #9d02d7; stroke: #9d02d7; stroke-linejoin: miter"/>
     <use xlink:href="#mebdabbd3fc" x="95.01171" y="238.408207" style="fill: #9d02d7; stroke: #9d02d7; stroke-linejoin: miter"/>
     <use xlink:href="#mebdabbd3fc" x="100.170416" y="246.148423" style="fill: #9d02d7; stroke: #9d02d7; stroke-linejoin: miter"/>
     <use xlink:href="#mebdabbd3fc" x="105.329122" y="243.066596" style="fill: #9d02d7; stroke: #9d02d7; stroke-linejoin: miter"/>
     <use xlink:href="#mebdabbd3fc" x="110.487827" y="247.336109" style="fill: #9d02d7; stroke: #9d02d7; stroke-linejoin: miter"/>
     <use xlink:href="#mebdabbd3fc" x="115.646533" y="253.315406" style="fill: #9d02d7; stroke: #9d02d7; stroke-linejoin: miter"/>
     <use xlink:href="#mebdabbd3fc" x="120.805239" y="247.414799" style="fill: #9d02d7; stroke: #9d02d7; stroke-linejoin: miter"/>
     <use xlink:href="#mebdabbd3fc" x="125.963945" y="232.942034" style="fill: #9d02d7; stroke: #9d02d7; stroke-linejoin: miter"/>
     <use xlink:href="#mebdabbd3fc" x="131.12265" y="229.927509" style="fill: #9d02d7; stroke: #9d02d7; stroke-linejoin: miter"/>
     <use xlink:href="#mebdabbd3fc" x="136.281356" y="232.19278" style="fill: #9d02d7; stroke: #9d02d7; stroke-linejoin: miter"/>
     <use xlink:href="#mebdabbd3fc" x="141.440062" y="229.61059" style="fill: #9d02d7; stroke: #9d02d7; stroke-linejoin: miter"/>
     <use xlink:href="#mebdabbd3fc" x="146.598767" y="225.359711" style="fill: #9d02d7; stroke: #9d02d7; stroke-linejoin: miter"/>
     <use xlink:href="#mebdabbd3fc" x="151.757473" y="218.77464" style="fill: #9d02d7; stroke: #9d02d7; stroke-linejoin: miter"/>
     <use xlink:href="#mebdabbd3fc" x="156.916179" y="226.013425" style="fill: #9d02d7; stroke: #9d02d7; stroke-linejoin: miter"/>
     <use xlink:href="#mebdabbd3fc" x="162.074884" y="227.073581" style="fill: #9d02d7; stroke: #9d02d7; stroke-linejoin: miter"/>
     <use xlink:href="#mebdabbd3fc" x="167.23359" y="217.764817" style="fill: #9d02d7; stroke: #9d02d7; stroke-linejoin: miter"/>
     <use xlink:href="#mebdabbd3fc" x="172.392296" y="212.618588" style="fill: #9d02d7; stroke: #9d02d7; stroke-linejoin: miter"/>
     <use xlink:href="#mebdabbd3fc" x="177.551002" y="213.183703" style="fill: #9d02d7; stroke: #9d02d7; stroke-linejoin: miter"/>
     <use xlink:href="#mebdabbd3fc" x="182.709707" y="214.434112" style="fill: #9d02d7; stroke: #9d02d7; stroke-linejoin: miter"/>
     <use xlink:href="#mebdabbd3fc" x="187.868413" y="218.404123" style="fill: #9d02d7; stroke: #9d02d7; stroke-linejoin: miter"/>
     <use xlink:href="#mebdabbd3fc" x="193.027119" y="171.403785" style="fill: #9d02d7; stroke: #9d02d7; stroke-linejoin: miter"/>
     <use xlink:href="#mebdabbd3fc" x="198.185824" y="171.658572" style="fill: #9d02d7; stroke: #9d02d7; stroke-linejoin: miter"/>
     <use xlink:href="#mebdabbd3fc" x="203.34453" y="171.658572" style="fill: #9d02d7; stroke: #9d02d7; stroke-linejoin: miter"/>
     <use xlink:href="#mebdabbd3fc" x="208.503236" y="171.658572" style="fill: #9d02d7; stroke: #9d02d7; stroke-linejoin: miter"/>
     <use xlink:href="#mebdabbd3fc" x="213.661941" y="171.658572" style="fill: #9d02d7; stroke: #9d02d7; stroke-linejoin: miter"/>
     <use xlink:href="#mebdabbd3fc" x="218.820647" y="171.658572" style="fill: #9d02d7; stroke: #9d02d7; stroke-linejoin: miter"/>
     <use xlink:href="#mebdabbd3fc" x="223.979353" y="171.658572" style="fill: #9d02d7; stroke: #9d02d7; stroke-linejoin: miter"/>
     <use xlink:href="#mebdabbd3fc" x="229.138059" y="171.671437" style="fill: #9d02d7; stroke: #9d02d7; stroke-linejoin: miter"/>
     <use xlink:href="#mebdabbd3fc" x="234.296764" y="169.159556" style="fill: #9d02d7; stroke: #9d02d7; stroke-linejoin: miter"/>
     <use xlink:href="#mebdabbd3fc" x="239.45547" y="169.159556" style="fill: #9d02d7; stroke: #9d02d7; stroke-linejoin: miter"/>
     <use xlink:href="#mebdabbd3fc" x="244.614176" y="168.867174" style="fill: #9d02d7; stroke: #9d02d7; stroke-linejoin: miter"/>
     <use xlink:href="#mebdabbd3fc" x="249.772881" y="126.568155" style="fill: #9d02d7; stroke: #9d02d7; stroke-linejoin: miter"/>
     <use xlink:href="#mebdabbd3fc" x="254.931587" y="126.101864" style="fill: #9d02d7; stroke: #9d02d7; stroke-linejoin: miter"/>
     <use xlink:href="#mebdabbd3fc" x="260.090293" y="124.959704" style="fill: #9d02d7; stroke: #9d02d7; stroke-linejoin: miter"/>
     <use xlink:href="#mebdabbd3fc" x="265.248998" y="49.321175" style="fill: #9d02d7; stroke: #9d02d7; stroke-linejoin: miter"/>
     <use xlink:href="#mebdabbd3fc" x="270.407704" y="49.321175" style="fill: #9d02d7; stroke: #9d02d7; stroke-linejoin: miter"/>
     <use xlink:href="#mebdabbd3fc" x="275.56641" y="49.321175" style="fill: #9d02d7; stroke: #9d02d7; stroke-linejoin: miter"/>
     <use xlink:href="#mebdabbd3fc" x="280.725116" y="49.321175" style="fill: #9d02d7; stroke: #9d02d7; stroke-linejoin: miter"/>
     <use xlink:href="#mebdabbd3fc" x="285.883821" y="49.321175" style="fill: #9d02d7; stroke: #9d02d7; stroke-linejoin: miter"/>
     <use xlink:href="#mebdabbd3fc" x="291.042527" y="52.900659" style="fill: #9d02d7; stroke: #9d02d7; stroke-linejoin: miter"/>
     <use xlink:href="#mebdabbd3fc" x="296.201233" y="52.766201" style="fill: #9d02d7; stroke: #9d02d7; stroke-linejoin: miter"/>
     <use xlink:href="#mebdabbd3fc" x="301.359938" y="52.766201" style="fill: #9d02d7; stroke: #9d02d7; stroke-linejoin: miter"/>
     <use xlink:href="#mebdabbd3fc" x="306.518644" y="52.766201" style="fill: #9d02d7; stroke: #9d02d7; stroke-linejoin: miter"/>
     <use xlink:href="#mebdabbd3fc" x="311.67735" y="53.033189" style="fill: #9d02d7; stroke: #9d02d7; stroke-linejoin: miter"/>
     <use xlink:href="#mebdabbd3fc" x="316.836055" y="52.766201" style="fill: #9d02d7; stroke: #9d02d7; stroke-linejoin: miter"/>
     <use xlink:href="#mebdabbd3fc" x="321.994761" y="52.758453" style="fill: #9d02d7; stroke: #9d02d7; stroke-linejoin: miter"/>
     <use xlink:href="#mebdabbd3fc" x="327.153467" y="52.758453" style="fill: #9d02d7; stroke: #9d02d7; stroke-linejoin: miter"/>
     <use xlink:href="#mebdabbd3fc" x="332.312173" y="52.758453" style="fill: #9d02d7; stroke: #9d02d7; stroke-linejoin: miter"/>
     <use xlink:href="#mebdabbd3fc" x="337.470878" y="44.04514" style="fill: #9d02d7; stroke: #9d02d7; stroke-linejoin: miter"/>
     <use xlink:href="#mebdabbd3fc" x="342.629584" y="43.319264" style="fill: #9d02d7; stroke: #9d02d7; stroke-linejoin: miter"/>
     <use xlink:href="#mebdabbd3fc" x="347.78829" y="43.319264" style="fill: #9d02d7; stroke: #9d02d7; stroke-linejoin: miter"/>
     <use xlink:href="#mebdabbd3fc" x="352.946995" y="43.319264" style="fill: #9d02d7; stroke: #9d02d7; stroke-linejoin: miter"/>
     <use xlink:href="#mebdabbd3fc" x="358.105701" y="52.758453" style="fill: #9d02d7; stroke: #9d02d7; stroke-linejoin: miter"/>
     <use xlink:href="#mebdabbd3fc" x="363.264407" y="52.758453" style="fill: #9d02d7; stroke: #9d02d7; stroke-linejoin: miter"/>
     <use xlink:href="#mebdabbd3fc" x="368.423112" y="52.758453" style="fill: #9d02d7; stroke: #9d02d7; stroke-linejoin: miter"/>
     <use xlink:href="#mebdabbd3fc" x="373.581818" y="52.758453" style="fill: #9d02d7; stroke: #9d02d7; stroke-linejoin: miter"/>
    </g>
   </g>
   <g id="line2d_30">
    <path d="M 69.218182 252.695203 
L 74.376888 252.261428 
L 79.535593 255.812259 
L 84.694299 254.98513 
L 89.853005 248.618609 
L 95.01171 266.184853 
L 100.170416 271.719479 
L 105.329122 253.112546 
L 110.487827 271.50261 
L 115.646533 253.596697 
L 120.805239 253.958908 
L 125.963945 254.172758 
L 131.12265 268.050748 
L 136.281356 267.979109 
L 141.440062 255.09409 
L 146.598767 255.097553 
L 151.757473 254.145438 
L 156.916179 261.932109 
L 162.074884 261.150535 
L 167.23359 264.198702 
L 172.392296 255.506387 
L 177.551002 270.234189 
L 182.709707 255.829962 
L 187.868413 252.751564 
L 193.027119 253.649353 
L 198.185824 248.507181 
L 203.34453 253.223662 
L 208.503236 253.464429 
L 213.661941 253.675683 
L 218.820647 252.873541 
L 223.979353 250.97918 
L 229.138059 251.992136 
L 234.296764 235.965788 
L 239.45547 235.966584 
L 244.614176 235.966305 
L 249.772881 219.319227 
L 254.931587 218.67111 
L 260.090293 216.923978 
L 265.248998 217.553257 
L 270.407704 123.84684 
L 275.56641 122.586561 
L 280.725116 122.362418 
L 285.883821 115.432878 
L 291.042527 114.525339 
L 296.201233 114.525339 
L 301.359938 114.525339 
L 306.518644 114.523363 
L 311.67735 114.523363 
L 316.836055 114.523363 
L 321.994761 114.523363 
L 327.153467 114.523363 
L 332.312173 43.754217 
L 337.470878 43.754217 
L 342.629584 43.754217 
L 347.78829 43.754217 
L 352.946995 43.757175 
L 358.105701 43.757175 
L 363.264407 43.757175 
L 368.423112 43.757175 
L 373.581818 43.757175 
" clip-path="url(#p8c4c136ec8)" style="fill: none; stroke: #0000ff; stroke-width: 1.5; stroke-linecap: square"/>
    <defs>
     <path id="m859f893919" d="M 0 2 
C 0.530406 2 1.03916 1.789267 1.414214 1.414214 
C 1.789267 1.03916 2 0.530406 2 0 
C 2 -0.530406 1.789267 -1.03916 1.414214 -1.414214 
C 1.03916 -1.789267 0.530406 -2 0 -2 
C -0.530406 -2 -1.03916 -1.789267 -1.414214 -1.414214 
C -1.789267 -1.03916 -2 -0.530406 -2 0 
C -2 0.530406 -1.789267 1.03916 -1.414214 1.414214 
C -1.03916 1.789267 -0.530406 2 0 2 
z
" style="stroke: #0000ff"/>
    </defs>
    <g clip-path="url(#p8c4c136ec8)">
     <use xlink:href="#m859f893919" x="69.218182" y="252.695203" style="fill: #0000ff; stroke: #0000ff"/>
     <use xlink:href="#m859f893919" x="74.376888" y="252.261428" style="fill: #0000ff; stroke: #0000ff"/>
     <use xlink:href="#m859f893919" x="79.535593" y="255.812259" style="fill: #0000ff; stroke: #0000ff"/>
     <use xlink:href="#m859f893919" x="84.694299" y="254.98513" style="fill: #0000ff; stroke: #0000ff"/>
     <use xlink:href="#m859f893919" x="89.853005" y="248.618609" style="fill: #0000ff; stroke: #0000ff"/>
     <use xlink:href="#m859f893919" x="95.01171" y="266.184853" style="fill: #0000ff; stroke: #0000ff"/>
     <use xlink:href="#m859f893919" x="100.170416" y="271.719479" style="fill: #0000ff; stroke: #0000ff"/>
     <use xlink:href="#m859f893919" x="105.329122" y="253.112546" style="fill: #0000ff; stroke: #0000ff"/>
     <use xlink:href="#m859f893919" x="110.487827" y="271.50261" style="fill: #0000ff; stroke: #0000ff"/>
     <use xlink:href="#m859f893919" x="115.646533" y="253.596697" style="fill: #0000ff; stroke: #0000ff"/>
     <use xlink:href="#m859f893919" x="120.805239" y="253.958908" style="fill: #0000ff; stroke: #0000ff"/>
     <use xlink:href="#m859f893919" x="125.963945" y="254.172758" style="fill: #0000ff; stroke: #0000ff"/>
     <use xlink:href="#m859f893919" x="131.12265" y="268.050748" style="fill: #0000ff; stroke: #0000ff"/>
     <use xlink:href="#m859f893919" x="136.281356" y="267.979109" style="fill: #0000ff; stroke: #0000ff"/>
     <use xlink:href="#m859f893919" x="141.440062" y="255.09409" style="fill: #0000ff; stroke: #0000ff"/>
     <use xlink:href="#m859f893919" x="146.598767" y="255.097553" style="fill: #0000ff; stroke: #0000ff"/>
     <use xlink:href="#m859f893919" x="151.757473" y="254.145438" style="fill: #0000ff; stroke: #0000ff"/>
     <use xlink:href="#m859f893919" x="156.916179" y="261.932109" style="fill: #0000ff; stroke: #0000ff"/>
     <use xlink:href="#m859f893919" x="162.074884" y="261.150535" style="fill: #0000ff; stroke: #0000ff"/>
     <use xlink:href="#m859f893919" x="167.23359" y="264.198702" style="fill: #0000ff; stroke: #0000ff"/>
     <use xlink:href="#m859f893919" x="172.392296" y="255.506387" style="fill: #0000ff; stroke: #0000ff"/>
     <use xlink:href="#m859f893919" x="177.551002" y="270.234189" style="fill: #0000ff; stroke: #0000ff"/>
     <use xlink:href="#m859f893919" x="182.709707" y="255.829962" style="fill: #0000ff; stroke: #0000ff"/>
     <use xlink:href="#m859f893919" x="187.868413" y="252.751564" style="fill: #0000ff; stroke: #0000ff"/>
     <use xlink:href="#m859f893919" x="193.027119" y="253.649353" style="fill: #0000ff; stroke: #0000ff"/>
     <use xlink:href="#m859f893919" x="198.185824" y="248.507181" style="fill: #0000ff; stroke: #0000ff"/>
     <use xlink:href="#m859f893919" x="203.34453" y="253.223662" style="fill: #0000ff; stroke: #0000ff"/>
     <use xlink:href="#m859f893919" x="208.503236" y="253.464429" style="fill: #0000ff; stroke: #0000ff"/>
     <use xlink:href="#m859f893919" x="213.661941" y="253.675683" style="fill: #0000ff; stroke: #0000ff"/>
     <use xlink:href="#m859f893919" x="218.820647" y="252.873541" style="fill: #0000ff; stroke: #0000ff"/>
     <use xlink:href="#m859f893919" x="223.979353" y="250.97918" style="fill: #0000ff; stroke: #0000ff"/>
     <use xlink:href="#m859f893919" x="229.138059" y="251.992136" style="fill: #0000ff; stroke: #0000ff"/>
     <use xlink:href="#m859f893919" x="234.296764" y="235.965788" style="fill: #0000ff; stroke: #0000ff"/>
     <use xlink:href="#m859f893919" x="239.45547" y="235.966584" style="fill: #0000ff; stroke: #0000ff"/>
     <use xlink:href="#m859f893919" x="244.614176" y="235.966305" style="fill: #0000ff; stroke: #0000ff"/>
     <use xlink:href="#m859f893919" x="249.772881" y="219.319227" style="fill: #0000ff; stroke: #0000ff"/>
     <use xlink:href="#m859f893919" x="254.931587" y="218.67111" style="fill: #0000ff; stroke: #0000ff"/>
     <use xlink:href="#m859f893919" x="260.090293" y="216.923978" style="fill: #0000ff; stroke: #0000ff"/>
     <use xlink:href="#m859f893919" x="265.248998" y="217.553257" style="fill: #0000ff; stroke: #0000ff"/>
     <use xlink:href="#m859f893919" x="270.407704" y="123.84684" style="fill: #0000ff; stroke: #0000ff"/>
     <use xlink:href="#m859f893919" x="275.56641" y="122.586561" style="fill: #0000ff; stroke: #0000ff"/>
     <use xlink:href="#m859f893919" x="280.725116" y="122.362418" style="fill: #0000ff; stroke: #0000ff"/>
     <use xlink:href="#m859f893919" x="285.883821" y="115.432878" style="fill: #0000ff; stroke: #0000ff"/>
     <use xlink:href="#m859f893919" x="291.042527" y="114.525339" style="fill: #0000ff; stroke: #0000ff"/>
     <use xlink:href="#m859f893919" x="296.201233" y="114.525339" style="fill: #0000ff; stroke: #0000ff"/>
     <use xlink:href="#m859f893919" x="301.359938" y="114.525339" style="fill: #0000ff; stroke: #0000ff"/>
     <use xlink:href="#m859f893919" x="306.518644" y="114.523363" style="fill: #0000ff; stroke: #0000ff"/>
     <use xlink:href="#m859f893919" x="311.67735" y="114.523363" style="fill: #0000ff; stroke: #0000ff"/>
     <use xlink:href="#m859f893919" x="316.836055" y="114.523363" style="fill: #0000ff; stroke: #0000ff"/>
     <use xlink:href="#m859f893919" x="321.994761" y="114.523363" style="fill: #0000ff; stroke: #0000ff"/>
     <use xlink:href="#m859f893919" x="327.153467" y="114.523363" style="fill: #0000ff; stroke: #0000ff"/>
     <use xlink:href="#m859f893919" x="332.312173" y="43.754217" style="fill: #0000ff; stroke: #0000ff"/>
     <use xlink:href="#m859f893919" x="337.470878" y="43.754217" style="fill: #0000ff; stroke: #0000ff"/>
     <use xlink:href="#m859f893919" x="342.629584" y="43.754217" style="fill: #0000ff; stroke: #0000ff"/>
     <use xlink:href="#m859f893919" x="347.78829" y="43.754217" style="fill: #0000ff; stroke: #0000ff"/>
     <use xlink:href="#m859f893919" x="352.946995" y="43.757175" style="fill: #0000ff; stroke: #0000ff"/>
     <use xlink:href="#m859f893919" x="358.105701" y="43.757175" style="fill: #0000ff; stroke: #0000ff"/>
     <use xlink:href="#m859f893919" x="363.264407" y="43.757175" style="fill: #0000ff; stroke: #0000ff"/>
     <use xlink:href="#m859f893919" x="368.423112" y="43.757175" style="fill: #0000ff; stroke: #0000ff"/>
     <use xlink:href="#m859f893919" x="373.581818" y="43.757175" style="fill: #0000ff; stroke: #0000ff"/>
    </g>
   </g>
   <g id="line2d_31">
    <path d="M 69.218182 258.180745 
L 74.376888 252.908818 
L 79.535593 252.908818 
L 84.694299 254.257322 
L 89.853005 254.736055 
L 95.01171 254.153887 
L 100.170416 253.104096 
L 105.329122 257.01838 
L 110.487827 204.950863 
L 115.646533 247.936206 
L 120.805239 253.158789 
L 125.963945 246.340324 
L 131.12265 230.804347 
L 136.281356 254.732836 
L 141.440062 245.112549 
L 146.598767 256.870651 
L 151.757473 253.168815 
L 156.916179 252.361949 
L 162.074884 253.386717 
L 167.23359 250.023994 
L 172.392296 250.137315 
L 177.551002 254.422356 
L 182.709707 253.473997 
L 187.868413 254.408297 
L 193.027119 254.091499 
L 198.185824 251.436572 
L 203.34453 240.273784 
L 208.503236 248.34685 
L 213.661941 248.609011 
L 218.820647 235.442818 
L 223.979353 208.820942 
L 229.138059 220.422868 
L 234.296764 126.862762 
L 239.45547 126.600538 
L 244.614176 124.547812 
L 249.772881 123.850489 
L 254.931587 123.850489 
L 260.090293 124.276098 
L 265.248998 123.214446 
L 270.407704 120.648445 
L 275.56641 133.744649 
L 280.725116 132.109345 
L 285.883821 123.180217 
L 291.042527 52.483357 
L 296.201233 55.153319 
L 301.359938 59.772194 
L 306.518644 56.664123 
L 311.67735 57.591321 
L 316.836055 53.651708 
L 321.994761 43.962597 
L 327.153467 43.962597 
L 332.312173 43.962597 
L 337.470878 43.870177 
L 342.629584 43.870177 
L 347.78829 43.870353 
L 352.946995 43.870177 
L 358.105701 43.870177 
L 363.264407 43.870177 
L 368.423112 43.870177 
L 373.581818 43.870177 
" clip-path="url(#p8c4c136ec8)" style="fill: none; stroke: #ff7763; stroke-width: 1.5; stroke-linecap: square"/>
    <defs>
     <path id="m69754255ae" d="M -2 2 
L 2 -2 
M -2 -2 
L 2 2 
" style="stroke: #ff7763"/>
    </defs>
    <g clip-path="url(#p8c4c136ec8)">
     <use xlink:href="#m69754255ae" x="69.218182" y="258.180745" style="fill: #ff7763; stroke: #ff7763"/>
     <use xlink:href="#m69754255ae" x="74.376888" y="252.908818" style="fill: #ff7763; stroke: #ff7763"/>
     <use xlink:href="#m69754255ae" x="79.535593" y="252.908818" style="fill: #ff7763; stroke: #ff7763"/>
     <use xlink:href="#m69754255ae" x="84.694299" y="254.257322" style="fill: #ff7763; stroke: #ff7763"/>
     <use xlink:href="#m69754255ae" x="89.853005" y="254.736055" style="fill: #ff7763; stroke: #ff7763"/>
     <use xlink:href="#m69754255ae" x="95.01171" y="254.153887" style="fill: #ff7763; stroke: #ff7763"/>
     <use xlink:href="#m69754255ae" x="100.170416" y="253.104096" style="fill: #ff7763; stroke: #ff7763"/>
     <use xlink:href="#m69754255ae" x="105.329122" y="257.01838" style="fill: #ff7763; stroke: #ff7763"/>
     <use xlink:href="#m69754255ae" x="110.487827" y="204.950863" style="fill: #ff7763; stroke: #ff7763"/>
     <use xlink:href="#m69754255ae" x="115.646533" y="247.936206" style="fill: #ff7763; stroke: #ff7763"/>
     <use xlink:href="#m69754255ae" x="120.805239" y="253.158789" style="fill: #ff7763; stroke: #ff7763"/>
     <use xlink:href="#m69754255ae" x="125.963945" y="246.340324" style="fill: #ff7763; stroke: #ff7763"/>
     <use xlink:href="#m69754255ae" x="131.12265" y="230.804347" style="fill: #ff7763; stroke: #ff7763"/>
     <use xlink:href="#m69754255ae" x="136.281356" y="254.732836" style="fill: #ff7763; stroke: #ff7763"/>
     <use xlink:href="#m69754255ae" x="141.440062" y="245.112549" style="fill: #ff7763; stroke: #ff7763"/>
     <use xlink:href="#m69754255ae" x="146.598767" y="256.870651" style="fill: #ff7763; stroke: #ff7763"/>
     <use xlink:href="#m69754255ae" x="151.757473" y="253.168815" style="fill: #ff7763; stroke: #ff7763"/>
     <use xlink:href="#m69754255ae" x="156.916179" y="252.361949" style="fill: #ff7763; stroke: #ff7763"/>
     <use xlink:href="#m69754255ae" x="162.074884" y="253.386717" style="fill: #ff7763; stroke: #ff7763"/>
     <use xlink:href="#m69754255ae" x="167.23359" y="250.023994" style="fill: #ff7763; stroke: #ff7763"/>
     <use xlink:href="#m69754255ae" x="172.392296" y="250.137315" style="fill: #ff7763; stroke: #ff7763"/>
     <use xlink:href="#m69754255ae" x="177.551002" y="254.422356" style="fill: #ff7763; stroke: #ff7763"/>
     <use xlink:href="#m69754255ae" x="182.709707" y="253.473997" style="fill: #ff7763; stroke: #ff7763"/>
     <use xlink:href="#m69754255ae" x="187.868413" y="254.408297" style="fill: #ff7763; stroke: #ff7763"/>
     <use xlink:href="#m69754255ae" x="193.027119" y="254.091499" style="fill: #ff7763; stroke: #ff7763"/>
     <use xlink:href="#m69754255ae" x="198.185824" y="251.436572" style="fill: #ff7763; stroke: #ff7763"/>
     <use xlink:href="#m69754255ae" x="203.34453" y="240.273784" style="fill: #ff7763; stroke: #ff7763"/>
     <use xlink:href="#m69754255ae" x="208.503236" y="248.34685" style="fill: #ff7763; stroke: #ff7763"/>
     <use xlink:href="#m69754255ae" x="213.661941" y="248.609011" style="fill: #ff7763; stroke: #ff7763"/>
     <use xlink:href="#m69754255ae" x="218.820647" y="235.442818" style="fill: #ff7763; stroke: #ff7763"/>
     <use xlink:href="#m69754255ae" x="223.979353" y="208.820942" style="fill: #ff7763; stroke: #ff7763"/>
     <use xlink:href="#m69754255ae" x="229.138059" y="220.422868" style="fill: #ff7763; stroke: #ff7763"/>
     <use xlink:href="#m69754255ae" x="234.296764" y="126.862762" style="fill: #ff7763; stroke: #ff7763"/>
     <use xlink:href="#m69754255ae" x="239.45547" y="126.600538" style="fill: #ff7763; stroke: #ff7763"/>
     <use xlink:href="#m69754255ae" x="244.614176" y="124.547812" style="fill: #ff7763; stroke: #ff7763"/>
     <use xlink:href="#m69754255ae" x="249.772881" y="123.850489" style="fill: #ff7763; stroke: #ff7763"/>
     <use xlink:href="#m69754255ae" x="254.931587" y="123.850489" style="fill: #ff7763; stroke: #ff7763"/>
     <use xlink:href="#m69754255ae" x="260.090293" y="124.276098" style="fill: #ff7763; stroke: #ff7763"/>
     <use xlink:href="#m69754255ae" x="265.248998" y="123.214446" style="fill: #ff7763; stroke: #ff7763"/>
     <use xlink:href="#m69754255ae" x="270.407704" y="120.648445" style="fill: #ff7763; stroke: #ff7763"/>
     <use xlink:href="#m69754255ae" x="275.56641" y="133.744649" style="fill: #ff7763; stroke: #ff7763"/>
     <use xlink:href="#m69754255ae" x="280.725116" y="132.109345" style="fill: #ff7763; stroke: #ff7763"/>
     <use xlink:href="#m69754255ae" x="285.883821" y="123.180217" style="fill: #ff7763; stroke: #ff7763"/>
     <use xlink:href="#m69754255ae" x="291.042527" y="52.483357" style="fill: #ff7763; stroke: #ff7763"/>
     <use xlink:href="#m69754255ae" x="296.201233" y="55.153319" style="fill: #ff7763; stroke: #ff7763"/>
     <use xlink:href="#m69754255ae" x="301.359938" y="59.772194" style="fill: #ff7763; stroke: #ff7763"/>
     <use xlink:href="#m69754255ae" x="306.518644" y="56.664123" style="fill: #ff7763; stroke: #ff7763"/>
     <use xlink:href="#m69754255ae" x="311.67735" y="57.591321" style="fill: #ff7763; stroke: #ff7763"/>
     <use xlink:href="#m69754255ae" x="316.836055" y="53.651708" style="fill: #ff7763; stroke: #ff7763"/>
     <use xlink:href="#m69754255ae" x="321.994761" y="43.962597" style="fill: #ff7763; stroke: #ff7763"/>
     <use xlink:href="#m69754255ae" x="327.153467" y="43.962597" style="fill: #ff7763; stroke: #ff7763"/>
     <use xlink:href="#m69754255ae" x="332.312173" y="43.962597" style="fill: #ff7763; stroke: #ff7763"/>
     <use xlink:href="#m69754255ae" x="337.470878" y="43.870177" style="fill: #ff7763; stroke: #ff7763"/>
     <use xlink:href="#m69754255ae" x="342.629584" y="43.870177" style="fill: #ff7763; stroke: #ff7763"/>
     <use xlink:href="#m69754255ae" x="347.78829" y="43.870353" style="fill: #ff7763; stroke: #ff7763"/>
     <use xlink:href="#m69754255ae" x="352.946995" y="43.870177" style="fill: #ff7763; stroke: #ff7763"/>
     <use xlink:href="#m69754255ae" x="358.105701" y="43.870177" style="fill: #ff7763; stroke: #ff7763"/>
     <use xlink:href="#m69754255ae" x="363.264407" y="43.870177" style="fill: #ff7763; stroke: #ff7763"/>
     <use xlink:href="#m69754255ae" x="368.423112" y="43.870177" style="fill: #ff7763; stroke: #ff7763"/>
     <use xlink:href="#m69754255ae" x="373.581818" y="43.870177" style="fill: #ff7763; stroke: #ff7763"/>
    </g>
   </g>
   <g id="line2d_32">
    <path d="M 69.218182 252.995402 
L 74.376888 200.911696 
L 79.535593 219.401751 
L 84.694299 232.208054 
L 89.853005 253.667347 
L 95.01171 193.42477 
L 100.170416 251.749848 
L 105.329122 251.39058 
L 110.487827 204.115686 
L 115.646533 229.80995 
L 120.805239 254.06608 
L 125.963945 252.365267 
L 131.12265 218.271634 
L 136.281356 249.835721 
L 141.440062 224.061129 
L 146.598767 194.187084 
L 151.757473 252.898338 
L 156.916179 252.836748 
L 162.074884 251.688909 
L 167.23359 252.834389 
L 172.392296 244.893086 
L 177.551002 247.688958 
L 182.709707 244.316079 
L 187.868413 242.05859 
L 193.027119 244.540209 
L 198.185824 244.788123 
L 203.34453 252.530218 
L 208.503236 253.204041 
L 213.661941 244.541907 
L 218.820647 242.877545 
L 223.979353 242.114531 
L 229.138059 241.942712 
L 234.296764 237.430305 
L 239.45547 190.085744 
L 244.614176 160.761015 
L 249.772881 173.133856 
L 254.931587 159.585147 
L 260.090293 187.581742 
L 265.248998 175.357669 
L 270.407704 156.078419 
L 275.56641 156.077729 
L 280.725116 156.072902 
L 285.883821 155.999914 
L 291.042527 156.000716 
L 296.201233 155.035974 
L 301.359938 154.789933 
L 306.518644 154.789933 
L 311.67735 153.513501 
L 316.836055 160.888168 
L 321.994761 153.521106 
L 327.153467 153.438181 
L 332.312173 153.438181 
L 337.470878 153.438181 
L 342.629584 153.438181 
L 347.78829 47.004336 
L 352.946995 47.1155 
L 358.105701 47.004336 
L 363.264407 47.004336 
L 368.423112 47.004336 
L 373.581818 47.004336 
" clip-path="url(#p8c4c136ec8)" style="fill: none; stroke: #ffac1e; stroke-width: 1.5; stroke-linecap: square"/>
    <defs>
     <path id="m62818ea854" d="M 0 -2 
L -0.449028 -0.618034 
L -1.902113 -0.618034 
L -0.726543 0.236068 
L -1.175571 1.618034 
L -0 0.763932 
L 1.175571 1.618034 
L 0.726543 0.236068 
L 1.902113 -0.618034 
L 0.449028 -0.618034 
z
" style="stroke: #ffac1e; stroke-linejoin: bevel"/>
    </defs>
    <g clip-path="url(#p8c4c136ec8)">
     <use xlink:href="#m62818ea854" x="69.218182" y="252.995402" style="fill: #ffac1e; stroke: #ffac1e; stroke-linejoin: bevel"/>
     <use xlink:href="#m62818ea854" x="74.376888" y="200.911696" style="fill: #ffac1e; stroke: #ffac1e; stroke-linejoin: bevel"/>
     <use xlink:href="#m62818ea854" x="79.535593" y="219.401751" style="fill: #ffac1e; stroke: #ffac1e; stroke-linejoin: bevel"/>
     <use xlink:href="#m62818ea854" x="84.694299" y="232.208054" style="fill: #ffac1e; stroke: #ffac1e; stroke-linejoin: bevel"/>
     <use xlink:href="#m62818ea854" x="89.853005" y="253.667347" style="fill: #ffac1e; stroke: #ffac1e; stroke-linejoin: bevel"/>
     <use xlink:href="#m62818ea854" x="95.01171" y="193.42477" style="fill: #ffac1e; stroke: #ffac1e; stroke-linejoin: bevel"/>
     <use xlink:href="#m62818ea854" x="100.170416" y="251.749848" style="fill: #ffac1e; stroke: #ffac1e; stroke-linejoin: bevel"/>
     <use xlink:href="#m62818ea854" x="105.329122" y="251.39058" style="fill: #ffac1e; stroke: #ffac1e; stroke-linejoin: bevel"/>
     <use xlink:href="#m62818ea854" x="110.487827" y="204.115686" style="fill: #ffac1e; stroke: #ffac1e; stroke-linejoin: bevel"/>
     <use xlink:href="#m62818ea854" x="115.646533" y="229.80995" style="fill: #ffac1e; stroke: #ffac1e; stroke-linejoin: bevel"/>
     <use xlink:href="#m62818ea854" x="120.805239" y="254.06608" style="fill: #ffac1e; stroke: #ffac1e; stroke-linejoin: bevel"/>
     <use xlink:href="#m62818ea854" x="125.963945" y="252.365267" style="fill: #ffac1e; stroke: #ffac1e; stroke-linejoin: bevel"/>
     <use xlink:href="#m62818ea854" x="131.12265" y="218.271634" style="fill: #ffac1e; stroke: #ffac1e; stroke-linejoin: bevel"/>
     <use xlink:href="#m62818ea854" x="136.281356" y="249.835721" style="fill: #ffac1e; stroke: #ffac1e; stroke-linejoin: bevel"/>
     <use xlink:href="#m62818ea854" x="141.440062" y="224.061129" style="fill: #ffac1e; stroke: #ffac1e; stroke-linejoin: bevel"/>
     <use xlink:href="#m62818ea854" x="146.598767" y="194.187084" style="fill: #ffac1e; stroke: #ffac1e; stroke-linejoin: bevel"/>
     <use xlink:href="#m62818ea854" x="151.757473" y="252.898338" style="fill: #ffac1e; stroke: #ffac1e; stroke-linejoin: bevel"/>
     <use xlink:href="#m62818ea854" x="156.916179" y="252.836748" style="fill: #ffac1e; stroke: #ffac1e; stroke-linejoin: bevel"/>
     <use xlink:href="#m62818ea854" x="162.074884" y="251.688909" style="fill: #ffac1e; stroke: #ffac1e; stroke-linejoin: bevel"/>
     <use xlink:href="#m62818ea854" x="167.23359" y="252.834389" style="fill: #ffac1e; stroke: #ffac1e; stroke-linejoin: bevel"/>
     <use xlink:href="#m62818ea854" x="172.392296" y="244.893086" style="fill: #ffac1e; stroke: #ffac1e; stroke-linejoin: bevel"/>
     <use xlink:href="#m62818ea854" x="177.551002" y="247.688958" style="fill: #ffac1e; stroke: #ffac1e; stroke-linejoin: bevel"/>
     <use xlink:href="#m62818ea854" x="182.709707" y="244.316079" style="fill: #ffac1e; stroke: #ffac1e; stroke-linejoin: bevel"/>
     <use xlink:href="#m62818ea854" x="187.868413" y="242.05859" style="fill: #ffac1e; stroke: #ffac1e; stroke-linejoin: bevel"/>
     <use xlink:href="#m62818ea854" x="193.027119" y="244.540209" style="fill: #ffac1e; stroke: #ffac1e; stroke-linejoin: bevel"/>
     <use xlink:href="#m62818ea854" x="198.185824" y="244.788123" style="fill: #ffac1e; stroke: #ffac1e; stroke-linejoin: bevel"/>
     <use xlink:href="#m62818ea854" x="203.34453" y="252.530218" style="fill: #ffac1e; stroke: #ffac1e; stroke-linejoin: bevel"/>
     <use xlink:href="#m62818ea854" x="208.503236" y="253.204041" style="fill: #ffac1e; stroke: #ffac1e; stroke-linejoin: bevel"/>
     <use xlink:href="#m62818ea854" x="213.661941" y="244.541907" style="fill: #ffac1e; stroke: #ffac1e; stroke-linejoin: bevel"/>
     <use xlink:href="#m62818ea854" x="218.820647" y="242.877545" style="fill: #ffac1e; stroke: #ffac1e; stroke-linejoin: bevel"/>
     <use xlink:href="#m62818ea854" x="223.979353" y="242.114531" style="fill: #ffac1e; stroke: #ffac1e; stroke-linejoin: bevel"/>
     <use xlink:href="#m62818ea854" x="229.138059" y="241.942712" style="fill: #ffac1e; stroke: #ffac1e; stroke-linejoin: bevel"/>
     <use xlink:href="#m62818ea854" x="234.296764" y="237.430305" style="fill: #ffac1e; stroke: #ffac1e; stroke-linejoin: bevel"/>
     <use xlink:href="#m62818ea854" x="239.45547" y="190.085744" style="fill: #ffac1e; stroke: #ffac1e; stroke-linejoin: bevel"/>
     <use xlink:href="#m62818ea854" x="244.614176" y="160.761015" style="fill: #ffac1e; stroke: #ffac1e; stroke-linejoin: bevel"/>
     <use xlink:href="#m62818ea854" x="249.772881" y="173.133856" style="fill: #ffac1e; stroke: #ffac1e; stroke-linejoin: bevel"/>
     <use xlink:href="#m62818ea854" x="254.931587" y="159.585147" style="fill: #ffac1e; stroke: #ffac1e; stroke-linejoin: bevel"/>
     <use xlink:href="#m62818ea854" x="260.090293" y="187.581742" style="fill: #ffac1e; stroke: #ffac1e; stroke-linejoin: bevel"/>
     <use xlink:href="#m62818ea854" x="265.248998" y="175.357669" style="fill: #ffac1e; stroke: #ffac1e; stroke-linejoin: bevel"/>
     <use xlink:href="#m62818ea854" x="270.407704" y="156.078419" style="fill: #ffac1e; stroke: #ffac1e; stroke-linejoin: bevel"/>
     <use xlink:href="#m62818ea854" x="275.56641" y="156.077729" style="fill: #ffac1e; stroke: #ffac1e; stroke-linejoin: bevel"/>
     <use xlink:href="#m62818ea854" x="280.725116" y="156.072902" style="fill: #ffac1e; stroke: #ffac1e; stroke-linejoin: bevel"/>
     <use xlink:href="#m62818ea854" x="285.883821" y="155.999914" style="fill: #ffac1e; stroke: #ffac1e; stroke-linejoin: bevel"/>
     <use xlink:href="#m62818ea854" x="291.042527" y="156.000716" style="fill: #ffac1e; stroke: #ffac1e; stroke-linejoin: bevel"/>
     <use xlink:href="#m62818ea854" x="296.201233" y="155.035974" style="fill: #ffac1e; stroke: #ffac1e; stroke-linejoin: bevel"/>
     <use xlink:href="#m62818ea854" x="301.359938" y="154.789933" style="fill: #ffac1e; stroke: #ffac1e; stroke-linejoin: bevel"/>
     <use xlink:href="#m62818ea854" x="306.518644" y="154.789933" style="fill: #ffac1e; stroke: #ffac1e; stroke-linejoin: bevel"/>
     <use xlink:href="#m62818ea854" x="311.67735" y="153.513501" style="fill: #ffac1e; stroke: #ffac1e; stroke-linejoin: bevel"/>
     <use xlink:href="#m62818ea854" x="316.836055" y="160.888168" style="fill: #ffac1e; stroke: #ffac1e; stroke-linejoin: bevel"/>
     <use xlink:href="#m62818ea854" x="321.994761" y="153.521106" style="fill: #ffac1e; stroke: #ffac1e; stroke-linejoin: bevel"/>
     <use xlink:href="#m62818ea854" x="327.153467" y="153.438181" style="fill: #ffac1e; stroke: #ffac1e; stroke-linejoin: bevel"/>
     <use xlink:href="#m62818ea854" x="332.312173" y="153.438181" style="fill: #ffac1e; stroke: #ffac1e; stroke-linejoin: bevel"/>
     <use xlink:href="#m62818ea854" x="337.470878" y="153.438181" style="fill: #ffac1e; stroke: #ffac1e; stroke-linejoin: bevel"/>
     <use xlink:href="#m62818ea854" x="342.629584" y="153.438181" style="fill: #ffac1e; stroke: #ffac1e; stroke-linejoin: bevel"/>
     <use xlink:href="#m62818ea854" x="347.78829" y="47.004336" style="fill: #ffac1e; stroke: #ffac1e; stroke-linejoin: bevel"/>
     <use xlink:href="#m62818ea854" x="352.946995" y="47.1155" style="fill: #ffac1e; stroke: #ffac1e; stroke-linejoin: bevel"/>
     <use xlink:href="#m62818ea854" x="358.105701" y="47.004336" style="fill: #ffac1e; stroke: #ffac1e; stroke-linejoin: bevel"/>
     <use xlink:href="#m62818ea854" x="363.264407" y="47.004336" style="fill: #ffac1e; stroke: #ffac1e; stroke-linejoin: bevel"/>
     <use xlink:href="#m62818ea854" x="368.423112" y="47.004336" style="fill: #ffac1e; stroke: #ffac1e; stroke-linejoin: bevel"/>
     <use xlink:href="#m62818ea854" x="373.581818" y="47.004336" style="fill: #ffac1e; stroke: #ffac1e; stroke-linejoin: bevel"/>
    </g>
   </g>
   <g id="line2d_33">
    <path d="M 69.218182 261.11772 
L 74.376888 252.908818 
L 79.535593 253.16773 
L 84.694299 252.149521 
L 89.853005 252.921428 
L 95.01171 252.909434 
L 100.170416 250.513315 
L 105.329122 252.908818 
L 110.487827 253.493531 
L 115.646533 252.908818 
L 120.805239 251.566249 
L 125.963945 253.466754 
L 131.12265 252.911732 
L 136.281356 252.908818 
L 141.440062 253.53986 
L 146.598767 183.6223 
L 151.757473 252.919854 
L 156.916179 252.51662 
L 162.074884 252.955689 
L 167.23359 253.202909 
L 172.392296 252.912669 
L 177.551002 252.911291 
L 182.709707 252.912003 
L 187.868413 254.008199 
L 193.027119 252.959874 
L 198.185824 253.34174 
L 203.34453 252.868241 
L 208.503236 253.39078 
L 213.661941 253.801613 
L 218.820647 253.012985 
L 223.979353 252.778265 
L 229.138059 252.898665 
L 234.296764 253.01239 
L 239.45547 252.637276 
L 244.614176 234.836029 
L 249.772881 252.942262 
L 254.931587 253.592903 
L 260.090293 254.157002 
L 265.248998 254.421852 
L 270.407704 253.187558 
L 275.56641 254.175987 
L 280.725116 253.48984 
L 285.883821 251.245237 
L 291.042527 250.956963 
L 296.201233 251.381337 
L 301.359938 251.148186 
L 306.518644 251.381337 
L 311.67735 243.10872 
L 316.836055 245.451063 
L 321.994761 165.04147 
L 327.153467 166.588551 
L 332.312173 166.588551 
L 337.470878 165.931256 
L 342.629584 165.93074 
L 347.78829 165.93074 
L 352.946995 162.566233 
L 358.105701 128.59217 
L 363.264407 43.411991 
L 368.423112 43.411991 
L 373.581818 43.267125 
" clip-path="url(#p8c4c136ec8)" style="fill: none; stroke: #009435; stroke-width: 1.5; stroke-linecap: square"/>
    <defs>
     <path id="m511a80437c" d="M -2 2 
L 2 2 
L 2 -2 
L -2 -2 
z
" style="stroke: #009435; stroke-linejoin: miter"/>
    </defs>
    <g clip-path="url(#p8c4c136ec8)">
     <use xlink:href="#m511a80437c" x="69.218182" y="261.11772" style="fill: #009435; stroke: #009435; stroke-linejoin: miter"/>
     <use xlink:href="#m511a80437c" x="74.376888" y="252.908818" style="fill: #009435; stroke: #009435; stroke-linejoin: miter"/>
     <use xlink:href="#m511a80437c" x="79.535593" y="253.16773" style="fill: #009435; stroke: #009435; stroke-linejoin: miter"/>
     <use xlink:href="#m511a80437c" x="84.694299" y="252.149521" style="fill: #009435; stroke: #009435; stroke-linejoin: miter"/>
     <use xlink:href="#m511a80437c" x="89.853005" y="252.921428" style="fill: #009435; stroke: #009435; stroke-linejoin: miter"/>
     <use xlink:href="#m511a80437c" x="95.01171" y="252.909434" style="fill: #009435; stroke: #009435; stroke-linejoin: miter"/>
     <use xlink:href="#m511a80437c" x="100.170416" y="250.513315" style="fill: #009435; stroke: #009435; stroke-linejoin: miter"/>
     <use xlink:href="#m511a80437c" x="105.329122" y="252.908818" style="fill: #009435; stroke: #009435; stroke-linejoin: miter"/>
     <use xlink:href="#m511a80437c" x="110.487827" y="253.493531" style="fill: #009435; stroke: #009435; stroke-linejoin: miter"/>
     <use xlink:href="#m511a80437c" x="115.646533" y="252.908818" style="fill: #009435; stroke: #009435; stroke-linejoin: miter"/>
     <use xlink:href="#m511a80437c" x="120.805239" y="251.566249" style="fill: #009435; stroke: #009435; stroke-linejoin: miter"/>
     <use xlink:href="#m511a80437c" x="125.963945" y="253.466754" style="fill: #009435; stroke: #009435; stroke-linejoin: miter"/>
     <use xlink:href="#m511a80437c" x="131.12265" y="252.911732" style="fill: #009435; stroke: #009435; stroke-linejoin: miter"/>
     <use xlink:href="#m511a80437c" x="136.281356" y="252.908818" style="fill: #009435; stroke: #009435; stroke-linejoin: miter"/>
     <use xlink:href="#m511a80437c" x="141.440062" y="253.53986" style="fill: #009435; stroke: #009435; stroke-linejoin: miter"/>
     <use xlink:href="#m511a80437c" x="146.598767" y="183.6223" style="fill: #009435; stroke: #009435; stroke-linejoin: miter"/>
     <use xlink:href="#m511a80437c" x="151.757473" y="252.919854" style="fill: #009435; stroke: #009435; stroke-linejoin: miter"/>
     <use xlink:href="#m511a80437c" x="156.916179" y="252.51662" style="fill: #009435; stroke: #009435; stroke-linejoin: miter"/>
     <use xlink:href="#m511a80437c" x="162.074884" y="252.955689" style="fill: #009435; stroke: #009435; stroke-linejoin: miter"/>
     <use xlink:href="#m511a80437c" x="167.23359" y="253.202909" style="fill: #009435; stroke: #009435; stroke-linejoin: miter"/>
     <use xlink:href="#m511a80437c" x="172.392296" y="252.912669" style="fill: #009435; stroke: #009435; stroke-linejoin: miter"/>
     <use xlink:href="#m511a80437c" x="177.551002" y="252.911291" style="fill: #009435; stroke: #009435; stroke-linejoin: miter"/>
     <use xlink:href="#m511a80437c" x="182.709707" y="252.912003" style="fill: #009435; stroke: #009435; stroke-linejoin: miter"/>
     <use xlink:href="#m511a80437c" x="187.868413" y="254.008199" style="fill: #009435; stroke: #009435; stroke-linejoin: miter"/>
     <use xlink:href="#m511a80437c" x="193.027119" y="252.959874" style="fill: #009435; stroke: #009435; stroke-linejoin: miter"/>
     <use xlink:href="#m511a80437c" x="198.185824" y="253.34174" style="fill: #009435; stroke: #009435; stroke-linejoin: miter"/>
     <use xlink:href="#m511a80437c" x="203.34453" y="252.868241" style="fill: #009435; stroke: #009435; stroke-linejoin: miter"/>
     <use xlink:href="#m511a80437c" x="208.503236" y="253.39078" style="fill: #009435; stroke: #009435; stroke-linejoin: miter"/>
     <use xlink:href="#m511a80437c" x="213.661941" y="253.801613" style="fill: #009435; stroke: #009435; stroke-linejoin: miter"/>
     <use xlink:href="#m511a80437c" x="218.820647" y="253.012985" style="fill: #009435; stroke: #009435; stroke-linejoin: miter"/>
     <use xlink:href="#m511a80437c" x="223.979353" y="252.778265" style="fill: #009435; stroke: #009435; stroke-linejoin: miter"/>
     <use xlink:href="#m511a80437c" x="229.138059" y="252.898665" style="fill: #009435; stroke: #009435; stroke-linejoin: miter"/>
     <use xlink:href="#m511a80437c" x="234.296764" y="253.01239" style="fill: #009435; stroke: #009435; stroke-linejoin: miter"/>
     <use xlink:href="#m511a80437c" x="239.45547" y="252.637276" style="fill: #009435; stroke: #009435; stroke-linejoin: miter"/>
     <use xlink:href="#m511a80437c" x="244.614176" y="234.836029" style="fill: #009435; stroke: #009435; stroke-linejoin: miter"/>
     <use xlink:href="#m511a80437c" x="249.772881" y="252.942262" style="fill: #009435; stroke: #009435; stroke-linejoin: miter"/>
     <use xlink:href="#m511a80437c" x="254.931587" y="253.592903" style="fill: #009435; stroke: #009435; stroke-linejoin: miter"/>
     <use xlink:href="#m511a80437c" x="260.090293" y="254.157002" style="fill: #009435; stroke: #009435; stroke-linejoin: miter"/>
     <use xlink:href="#m511a80437c" x="265.248998" y="254.421852" style="fill: #009435; stroke: #009435; stroke-linejoin: miter"/>
     <use xlink:href="#m511a80437c" x="270.407704" y="253.187558" style="fill: #009435; stroke: #009435; stroke-linejoin: miter"/>
     <use xlink:href="#m511a80437c" x="275.56641" y="254.175987" style="fill: #009435; stroke: #009435; stroke-linejoin: miter"/>
     <use xlink:href="#m511a80437c" x="280.725116" y="253.48984" style="fill: #009435; stroke: #009435; stroke-linejoin: miter"/>
     <use xlink:href="#m511a80437c" x="285.883821" y="251.245237" style="fill: #009435; stroke: #009435; stroke-linejoin: miter"/>
     <use xlink:href="#m511a80437c" x="291.042527" y="250.956963" style="fill: #009435; stroke: #009435; stroke-linejoin: miter"/>
     <use xlink:href="#m511a80437c" x="296.201233" y="251.381337" style="fill: #009435; stroke: #009435; stroke-linejoin: miter"/>
     <use xlink:href="#m511a80437c" x="301.359938" y="251.148186" style="fill: #009435; stroke: #009435; stroke-linejoin: miter"/>
     <use xlink:href="#m511a80437c" x="306.518644" y="251.381337" style="fill: #009435; stroke: #009435; stroke-linejoin: miter"/>
     <use xlink:href="#m511a80437c" x="311.67735" y="243.10872" style="fill: #009435; stroke: #009435; stroke-linejoin: miter"/>
     <use xlink:href="#m511a80437c" x="316.836055" y="245.451063" style="fill: #009435; stroke: #009435; stroke-linejoin: miter"/>
     <use xlink:href="#m511a80437c" x="321.994761" y="165.04147" style="fill: #009435; stroke: #009435; stroke-linejoin: miter"/>
     <use xlink:href="#m511a80437c" x="327.153467" y="166.588551" style="fill: #009435; stroke: #009435; stroke-linejoin: miter"/>
     <use xlink:href="#m511a80437c" x="332.312173" y="166.588551" style="fill: #009435; stroke: #009435; stroke-linejoin: miter"/>
     <use xlink:href="#m511a80437c" x="337.470878" y="165.931256" style="fill: #009435; stroke: #009435; stroke-linejoin: miter"/>
     <use xlink:href="#m511a80437c" x="342.629584" y="165.93074" style="fill: #009435; stroke: #009435; stroke-linejoin: miter"/>
     <use xlink:href="#m511a80437c" x="347.78829" y="165.93074" style="fill: #009435; stroke: #009435; stroke-linejoin: miter"/>
     <use xlink:href="#m511a80437c" x="352.946995" y="162.566233" style="fill: #009435; stroke: #009435; stroke-linejoin: miter"/>
     <use xlink:href="#m511a80437c" x="358.105701" y="128.59217" style="fill: #009435; stroke: #009435; stroke-linejoin: miter"/>
     <use xlink:href="#m511a80437c" x="363.264407" y="43.411991" style="fill: #009435; stroke: #009435; stroke-linejoin: miter"/>
     <use xlink:href="#m511a80437c" x="368.423112" y="43.411991" style="fill: #009435; stroke: #009435; stroke-linejoin: miter"/>
     <use xlink:href="#m511a80437c" x="373.581818" y="43.267125" style="fill: #009435; stroke: #009435; stroke-linejoin: miter"/>
    </g>
   </g>
   <g id="patch_3">
    <path d="M 54 252 
L 54 34.56 
" style="fill: none; stroke: #000000; stroke-width: 0.8; stroke-linejoin: miter; stroke-linecap: square"/>
   </g>
   <g id="patch_4">
    <path d="M 388.8 252 
L 388.8 34.56 
" style="fill: none; stroke: #000000; stroke-width: 0.8; stroke-linejoin: miter; stroke-linecap: square"/>
   </g>
   <g id="patch_5">
    <path d="M 54 252 
L 388.8 252 
" style="fill: none; stroke: #000000; stroke-width: 0.8; stroke-linejoin: miter; stroke-linecap: square"/>
   </g>
   <g id="patch_6">
    <path d="M 54 34.56 
L 388.8 34.56 
" style="fill: none; stroke: #000000; stroke-width: 0.8; stroke-linejoin: miter; stroke-linecap: square"/>
   </g>
   <g id="text_17">
    <!-- R-max optimal policy with m = 30 -->
    <g transform="translate(119.205 28.56)scale(0.12 -0.12)">
     <defs>
      <path id="DejaVuSans-52" d="M 2841 2188 
Q 3044 2119 3236 1894 
Q 3428 1669 3622 1275 
L 4263 0 
L 3584 0 
L 2988 1197 
Q 2756 1666 2539 1819 
Q 2322 1972 1947 1972 
L 1259 1972 
L 1259 0 
L 628 0 
L 628 4666 
L 2053 4666 
Q 2853 4666 3247 4331 
Q 3641 3997 3641 3322 
Q 3641 2881 3436 2590 
Q 3231 2300 2841 2188 
z
M 1259 4147 
L 1259 2491 
L 2053 2491 
Q 2509 2491 2742 2702 
Q 2975 2913 2975 3322 
Q 2975 3731 2742 3939 
Q 2509 4147 2053 4147 
L 1259 4147 
z
" transform="scale(0.015625)"/>
      <path id="DejaVuSans-2d" d="M 313 2009 
L 1997 2009 
L 1997 1497 
L 313 1497 
L 313 2009 
z
" transform="scale(0.015625)"/>
      <path id="DejaVuSans-6d" d="M 3328 2828 
Q 3544 3216 3844 3400 
Q 4144 3584 4550 3584 
Q 5097 3584 5394 3201 
Q 5691 2819 5691 2113 
L 5691 0 
L 5113 0 
L 5113 2094 
Q 5113 2597 4934 2840 
Q 4756 3084 4391 3084 
Q 3944 3084 3684 2787 
Q 3425 2491 3425 1978 
L 3425 0 
L 2847 0 
L 2847 2094 
Q 2847 2600 2669 2842 
Q 2491 3084 2119 3084 
Q 1678 3084 1418 2786 
Q 1159 2488 1159 1978 
L 1159 0 
L 581 0 
L 581 3500 
L 1159 3500 
L 1159 2956 
Q 1356 3278 1631 3431 
Q 1906 3584 2284 3584 
Q 2666 3584 2933 3390 
Q 3200 3197 3328 2828 
z
" transform="scale(0.015625)"/>
      <path id="DejaVuSans-78" d="M 3513 3500 
L 2247 1797 
L 3578 0 
L 2900 0 
L 1881 1375 
L 863 0 
L 184 0 
L 1544 1831 
L 300 3500 
L 978 3500 
L 1906 2253 
L 2834 3500 
L 3513 3500 
z
" transform="scale(0.015625)"/>
      <path id="DejaVuSans-77" d="M 269 3500 
L 844 3500 
L 1563 769 
L 2278 3500 
L 2956 3500 
L 3675 769 
L 4391 3500 
L 4966 3500 
L 4050 0 
L 3372 0 
L 2619 2869 
L 1863 0 
L 1184 0 
L 269 3500 
z
" transform="scale(0.015625)"/>
      <path id="DejaVuSans-68" d="M 3513 2113 
L 3513 0 
L 2938 0 
L 2938 2094 
Q 2938 2591 2744 2837 
Q 2550 3084 2163 3084 
Q 1697 3084 1428 2787 
Q 1159 2491 1159 1978 
L 1159 0 
L 581 0 
L 581 4863 
L 1159 4863 
L 1159 2956 
Q 1366 3272 1645 3428 
Q 1925 3584 2291 3584 
Q 2894 3584 3203 3211 
Q 3513 2838 3513 2113 
z
" transform="scale(0.015625)"/>
      <path id="DejaVuSans-3d" d="M 678 2906 
L 4684 2906 
L 4684 2381 
L 678 2381 
L 678 2906 
z
M 678 1631 
L 4684 1631 
L 4684 1100 
L 678 1100 
L 678 1631 
z
" transform="scale(0.015625)"/>
     </defs>
     <use xlink:href="#DejaVuSans-52"/>
     <use xlink:href="#DejaVuSans-2d" x="65.482422"/>
     <use xlink:href="#DejaVuSans-6d" x="101.566406"/>
     <use xlink:href="#DejaVuSans-61" x="198.978516"/>
     <use xlink:href="#DejaVuSans-78" x="260.257812"/>
     <use xlink:href="#DejaVuSans-20" x="319.4375"/>
     <use xlink:href="#DejaVuSans-6f" x="351.224609"/>
     <use xlink:href="#DejaVuSans-70" x="412.40625"/>
     <use xlink:href="#DejaVuSans-74" x="475.882812"/>
     <use xlink:href="#DejaVuSans-69" x="515.091797"/>
     <use xlink:href="#DejaVuSans-6d" x="542.875"/>
     <use xlink:href="#DejaVuSans-61" x="640.287109"/>
     <use xlink:href="#DejaVuSans-6c" x="701.566406"/>
     <use xlink:href="#DejaVuSans-20" x="729.349609"/>
     <use xlink:href="#DejaVuSans-70" x="761.136719"/>
     <use xlink:href="#DejaVuSans-6f" x="824.613281"/>
     <use xlink:href="#DejaVuSans-6c" x="885.794922"/>
     <use xlink:href="#DejaVuSans-69" x="913.578125"/>
     <use xlink:href="#DejaVuSans-63" x="941.361328"/>
     <use xlink:href="#DejaVuSans-79" x="996.341797"/>
     <use xlink:href="#DejaVuSans-20" x="1055.521484"/>
     <use xlink:href="#DejaVuSans-77" x="1087.308594"/>
     <use xlink:href="#DejaVuSans-69" x="1169.095703"/>
     <use xlink:href="#DejaVuSans-74" x="1196.878906"/>
     <use xlink:href="#DejaVuSans-68" x="1236.087891"/>
     <use xlink:href="#DejaVuSans-20" x="1299.466797"/>
     <use xlink:href="#DejaVuSans-6d" x="1331.253906"/>
     <use xlink:href="#DejaVuSans-20" x="1428.666016"/>
     <use xlink:href="#DejaVuSans-3d" x="1460.453125"/>
     <use xlink:href="#DejaVuSans-20" x="1544.242188"/>
     <use xlink:href="#DejaVuSans-33" x="1576.029297"/>
     <use xlink:href="#DejaVuSans-30" x="1639.652344"/>
    </g>
   </g>
   <g id="legend_1">
    <g id="patch_7">
     <path d="M 61 117.34125 
L 211.9875 117.34125 
Q 213.9875 117.34125 213.9875 115.34125 
L 213.9875 41.56 
Q 213.9875 39.56 211.9875 39.56 
L 61 39.56 
Q 59 39.56 59 41.56 
L 59 115.34125 
Q 59 117.34125 61 117.34125 
z
" style="fill: #ffffff; opacity: 0.8; stroke: #cccccc; stroke-linejoin: miter"/>
    </g>
    <g id="line2d_34">
     <path d="M 63 47.658437 
L 73 47.658437 
L 83 47.658437 
" style="fill: none; stroke: #9d02d7; stroke-width: 1.5; stroke-linecap: square"/>
     <g>
      <use xlink:href="#mebdabbd3fc" x="73" y="47.658437" style="fill: #9d02d7; stroke: #9d02d7; stroke-linejoin: miter"/>
     </g>
    </g>
    <g id="text_18">
     <!-- m_uncertain_states=5 -->
     <g transform="translate(91 51.158437)scale(0.1 -0.1)">
      <defs>
       <path id="DejaVuSans-5f" d="M 3263 -1063 
L 3263 -1509 
L -63 -1509 
L -63 -1063 
L 3263 -1063 
z
" transform="scale(0.015625)"/>
       <path id="DejaVuSans-6e" d="M 3513 2113 
L 3513 0 
L 2938 0 
L 2938 2094 
Q 2938 2591 2744 2837 
Q 2550 3084 2163 3084 
Q 1697 3084 1428 2787 
Q 1159 2491 1159 1978 
L 1159 0 
L 581 0 
L 581 3500 
L 1159 3500 
L 1159 2956 
Q 1366 3272 1645 3428 
Q 1925 3584 2291 3584 
Q 2894 3584 3203 3211 
Q 3513 2838 3513 2113 
z
" transform="scale(0.015625)"/>
      </defs>
      <use xlink:href="#DejaVuSans-6d"/>
      <use xlink:href="#DejaVuSans-5f" x="97.412109"/>
      <use xlink:href="#DejaVuSans-75" x="147.412109"/>
      <use xlink:href="#DejaVuSans-6e" x="210.791016"/>
      <use xlink:href="#DejaVuSans-63" x="274.169922"/>
      <use xlink:href="#DejaVuSans-65" x="329.150391"/>
      <use xlink:href="#DejaVuSans-72" x="390.673828"/>
      <use xlink:href="#DejaVuSans-74" x="431.787109"/>
      <use xlink:href="#DejaVuSans-61" x="470.996094"/>
      <use xlink:href="#DejaVuSans-69" x="532.275391"/>
      <use xlink:href="#DejaVuSans-6e" x="560.058594"/>
      <use xlink:href="#DejaVuSans-5f" x="623.4375"/>
      <use xlink:href="#DejaVuSans-73" x="673.4375"/>
      <use xlink:href="#DejaVuSans-74" x="725.537109"/>
      <use xlink:href="#DejaVuSans-61" x="764.746094"/>
      <use xlink:href="#DejaVuSans-74" x="826.025391"/>
      <use xlink:href="#DejaVuSans-65" x="865.234375"/>
      <use xlink:href="#DejaVuSans-73" x="926.757812"/>
      <use xlink:href="#DejaVuSans-3d" x="978.857422"/>
      <use xlink:href="#DejaVuSans-35" x="1062.646484"/>
     </g>
    </g>
    <g id="line2d_35">
     <path d="M 63 62.614688 
L 73 62.614688 
L 83 62.614688 
" style="fill: none; stroke: #0000ff; stroke-width: 1.5; stroke-linecap: square"/>
     <g>
      <use xlink:href="#m859f893919" x="73" y="62.614688" style="fill: #0000ff; stroke: #0000ff"/>
     </g>
    </g>
    <g id="text_19">
     <!-- m_uncertain_states=10 -->
     <g transform="translate(91 66.114688)scale(0.1 -0.1)">
      <use xlink:href="#DejaVuSans-6d"/>
      <use xlink:href="#DejaVuSans-5f" x="97.412109"/>
      <use xlink:href="#DejaVuSans-75" x="147.412109"/>
      <use xlink:href="#DejaVuSans-6e" x="210.791016"/>
      <use xlink:href="#DejaVuSans-63" x="274.169922"/>
      <use xlink:href="#DejaVuSans-65" x="329.150391"/>
      <use xlink:href="#DejaVuSans-72" x="390.673828"/>
      <use xlink:href="#DejaVuSans-74" x="431.787109"/>
      <use xlink:href="#DejaVuSans-61" x="470.996094"/>
      <use xlink:href="#DejaVuSans-69" x="532.275391"/>
      <use xlink:href="#DejaVuSans-6e" x="560.058594"/>
      <use xlink:href="#DejaVuSans-5f" x="623.4375"/>
      <use xlink:href="#DejaVuSans-73" x="673.4375"/>
      <use xlink:href="#DejaVuSans-74" x="725.537109"/>
      <use xlink:href="#DejaVuSans-61" x="764.746094"/>
      <use xlink:href="#DejaVuSans-74" x="826.025391"/>
      <use xlink:href="#DejaVuSans-65" x="865.234375"/>
      <use xlink:href="#DejaVuSans-73" x="926.757812"/>
      <use xlink:href="#DejaVuSans-3d" x="978.857422"/>
      <use xlink:href="#DejaVuSans-31" x="1062.646484"/>
      <use xlink:href="#DejaVuSans-30" x="1126.269531"/>
     </g>
    </g>
    <g id="line2d_36">
     <path d="M 63 77.570937 
L 73 77.570937 
L 83 77.570937 
" style="fill: none; stroke: #ff7763; stroke-width: 1.5; stroke-linecap: square"/>
     <g>
      <use xlink:href="#m69754255ae" x="73" y="77.570937" style="fill: #ff7763; stroke: #ff7763"/>
     </g>
    </g>
    <g id="text_20">
     <!-- m_uncertain_states=15 -->
     <g transform="translate(91 81.070937)scale(0.1 -0.1)">
      <use xlink:href="#DejaVuSans-6d"/>
      <use xlink:href="#DejaVuSans-5f" x="97.412109"/>
      <use xlink:href="#DejaVuSans-75" x="147.412109"/>
      <use xlink:href="#DejaVuSans-6e" x="210.791016"/>
      <use xlink:href="#DejaVuSans-63" x="274.169922"/>
      <use xlink:href="#DejaVuSans-65" x="329.150391"/>
      <use xlink:href="#DejaVuSans-72" x="390.673828"/>
      <use xlink:href="#DejaVuSans-74" x="431.787109"/>
      <use xlink:href="#DejaVuSans-61" x="470.996094"/>
      <use xlink:href="#DejaVuSans-69" x="532.275391"/>
      <use xlink:href="#DejaVuSans-6e" x="560.058594"/>
      <use xlink:href="#DejaVuSans-5f" x="623.4375"/>
      <use xlink:href="#DejaVuSans-73" x="673.4375"/>
      <use xlink:href="#DejaVuSans-74" x="725.537109"/>
      <use xlink:href="#DejaVuSans-61" x="764.746094"/>
      <use xlink:href="#DejaVuSans-74" x="826.025391"/>
      <use xlink:href="#DejaVuSans-65" x="865.234375"/>
      <use xlink:href="#DejaVuSans-73" x="926.757812"/>
      <use xlink:href="#DejaVuSans-3d" x="978.857422"/>
      <use xlink:href="#DejaVuSans-31" x="1062.646484"/>
      <use xlink:href="#DejaVuSans-35" x="1126.269531"/>
     </g>
    </g>
    <g id="line2d_37">
     <path d="M 63 92.527187 
L 73 92.527187 
L 83 92.527187 
" style="fill: none; stroke: #ffac1e; stroke-width: 1.5; stroke-linecap: square"/>
     <g>
      <use xlink:href="#m62818ea854" x="73" y="92.527187" style="fill: #ffac1e; stroke: #ffac1e; stroke-linejoin: bevel"/>
     </g>
    </g>
    <g id="text_21">
     <!-- m_uncertain_states=20 -->
     <g transform="translate(91 96.027187)scale(0.1 -0.1)">
      <use xlink:href="#DejaVuSans-6d"/>
      <use xlink:href="#DejaVuSans-5f" x="97.412109"/>
      <use xlink:href="#DejaVuSans-75" x="147.412109"/>
      <use xlink:href="#DejaVuSans-6e" x="210.791016"/>
      <use xlink:href="#DejaVuSans-63" x="274.169922"/>
      <use xlink:href="#DejaVuSans-65" x="329.150391"/>
      <use xlink:href="#DejaVuSans-72" x="390.673828"/>
      <use xlink:href="#DejaVuSans-74" x="431.787109"/>
      <use xlink:href="#DejaVuSans-61" x="470.996094"/>
      <use xlink:href="#DejaVuSans-69" x="532.275391"/>
      <use xlink:href="#DejaVuSans-6e" x="560.058594"/>
      <use xlink:href="#DejaVuSans-5f" x="623.4375"/>
      <use xlink:href="#DejaVuSans-73" x="673.4375"/>
      <use xlink:href="#DejaVuSans-74" x="725.537109"/>
      <use xlink:href="#DejaVuSans-61" x="764.746094"/>
      <use xlink:href="#DejaVuSans-74" x="826.025391"/>
      <use xlink:href="#DejaVuSans-65" x="865.234375"/>
      <use xlink:href="#DejaVuSans-73" x="926.757812"/>
      <use xlink:href="#DejaVuSans-3d" x="978.857422"/>
      <use xlink:href="#DejaVuSans-32" x="1062.646484"/>
      <use xlink:href="#DejaVuSans-30" x="1126.269531"/>
     </g>
    </g>
    <g id="line2d_38">
     <path d="M 63 107.483437 
L 73 107.483437 
L 83 107.483437 
" style="fill: none; stroke: #009435; stroke-width: 1.5; stroke-linecap: square"/>
     <g>
      <use xlink:href="#m511a80437c" x="73" y="107.483437" style="fill: #009435; stroke: #009435; stroke-linejoin: miter"/>
     </g>
    </g>
    <g id="text_22">
     <!-- m_uncertain_states=25 -->
     <g transform="translate(91 110.983437)scale(0.1 -0.1)">
      <use xlink:href="#DejaVuSans-6d"/>
      <use xlink:href="#DejaVuSans-5f" x="97.412109"/>
      <use xlink:href="#DejaVuSans-75" x="147.412109"/>
      <use xlink:href="#DejaVuSans-6e" x="210.791016"/>
      <use xlink:href="#DejaVuSans-63" x="274.169922"/>
      <use xlink:href="#DejaVuSans-65" x="329.150391"/>
      <use xlink:href="#DejaVuSans-72" x="390.673828"/>
      <use xlink:href="#DejaVuSans-74" x="431.787109"/>
      <use xlink:href="#DejaVuSans-61" x="470.996094"/>
      <use xlink:href="#DejaVuSans-69" x="532.275391"/>
      <use xlink:href="#DejaVuSans-6e" x="560.058594"/>
      <use xlink:href="#DejaVuSans-5f" x="623.4375"/>
      <use xlink:href="#DejaVuSans-73" x="673.4375"/>
      <use xlink:href="#DejaVuSans-74" x="725.537109"/>
      <use xlink:href="#DejaVuSans-61" x="764.746094"/>
      <use xlink:href="#DejaVuSans-74" x="826.025391"/>
      <use xlink:href="#DejaVuSans-65" x="865.234375"/>
      <use xlink:href="#DejaVuSans-73" x="926.757812"/>
      <use xlink:href="#DejaVuSans-3d" x="978.857422"/>
      <use xlink:href="#DejaVuSans-32" x="1062.646484"/>
      <use xlink:href="#DejaVuSans-35" x="1126.269531"/>
     </g>
    </g>
   </g>
  </g>
 </g>
 <defs>
  <clipPath id="p8c4c136ec8">
   <rect x="54" y="34.56" width="334.8" height="217.44"/>
  </clipPath>
 </defs>
</svg>
