<?xml version="1.0" encoding="utf-8" standalone="no"?>
<!DOCTYPE svg PUBLIC "-//W3C//DTD SVG 1.1//EN"
  "http://www.w3.org/Graphics/SVG/1.1/DTD/svg11.dtd">
<svg xmlns:xlink="http://www.w3.org/1999/xlink" width="432pt" height="288pt" viewBox="0 0 432 288" xmlns="http://www.w3.org/2000/svg" version="1.1">
 <metadata>
  <rdf:RDF xmlns:dc="http://purl.org/dc/elements/1.1/" xmlns:cc="http://creativecommons.org/ns#" xmlns:rdf="http://www.w3.org/1999/02/22-rdf-syntax-ns#">
   <cc:Work>
    <dc:type rdf:resource="http://purl.org/dc/dcmitype/StillImage"/>
    <dc:date>2023-01-11T15:36:54.456018</dc:date>
    <dc:format>image/svg+xml</dc:format>
    <dc:creator>
     <cc:Agent>
      <dc:title>Matplotlib v3.5.2, https://matplotlib.org/</dc:title>
     </cc:Agent>
    </dc:creator>
   </cc:Work>
  </rdf:RDF>
 </metadata>
 <defs>
  <style type="text/css">*{stroke-linejoin: round; stroke-linecap: butt}</style>
 </defs>
 <g id="figure_1">
  <g id="patch_1">
   <path d="M 0 288 
L 432 288 
L 432 0 
L 0 0 
z
" style="fill: #ffffff"/>
  </g>
  <g id="axes_1">
   <g id="patch_2">
    <path d="M 54 252 
L 388.8 252 
L 388.8 34.56 
L 54 34.56 
z
" style="fill: #ffffff"/>
   </g>
   <g id="PolyCollection_1">
    <defs>
     <path id="m5c4e4434f2" d="M 69.218182 -35.586366 
L 69.218182 -35.586366 
L 74.376888 -33.673543 
L 79.535593 -35.27121 
L 84.694299 -38.344389 
L 89.853005 -55.560765 
L 95.01171 -64.72053 
L 100.170416 -35.340389 
L 105.329122 -86.649145 
L 110.487827 -98.044285 
L 115.646533 -100.62019 
L 120.805239 -107.193098 
L 125.963945 -117.769744 
L 131.12265 -119.180505 
L 136.281356 -119.644545 
L 141.440062 -120.758069 
L 146.598767 -118.503609 
L 151.757473 -119.703058 
L 156.916179 -119.558289 
L 162.074884 -117.56414 
L 167.23359 -114.610239 
L 172.392296 -121.084907 
L 177.551002 -121.634352 
L 182.709707 -121.634352 
L 187.868413 -121.634352 
L 193.027119 -121.634352 
L 198.185824 -121.2209 
L 203.34453 -122.102886 
L 208.503236 -121.890674 
L 213.661941 -119.712929 
L 218.820647 -122.077262 
L 223.979353 -122.077262 
L 229.138059 -122.077262 
L 234.296764 -122.126501 
L 239.45547 -122.126501 
L 244.614176 -122.126501 
L 249.772881 -122.126501 
L 254.931587 -122.095044 
L 260.090293 -122.471684 
L 265.248998 -122.471684 
L 270.407704 -121.97079 
L 275.56641 -121.97079 
L 280.725116 -121.171833 
L 285.883821 -121.97079 
L 291.042527 -121.97079 
L 296.201233 -121.771388 
L 301.359938 -121.771388 
L 306.518644 -121.771388 
L 311.67735 -121.771388 
L 316.836055 -121.718886 
L 321.994761 -121.718886 
L 327.153467 -121.718886 
L 332.312173 -121.718886 
L 337.470878 -121.561492 
L 342.629584 -121.561492 
L 347.78829 -121.561492 
L 352.946995 -121.561492 
L 358.105701 -121.561492 
L 363.264407 -121.561492 
L 368.423112 -121.561492 
L 373.581818 -121.561492 
L 373.581818 -121.561492 
L 373.581818 -121.561492 
L 368.423112 -121.561492 
L 363.264407 -121.561492 
L 358.105701 -121.561492 
L 352.946995 -121.561492 
L 347.78829 -121.561492 
L 342.629584 -121.561492 
L 337.470878 -121.561492 
L 332.312173 -121.718886 
L 327.153467 -121.718886 
L 321.994761 -121.718886 
L 316.836055 -121.718886 
L 311.67735 -121.771388 
L 306.518644 -121.771388 
L 301.359938 -121.771388 
L 296.201233 -121.771388 
L 291.042527 -121.97079 
L 285.883821 -121.97079 
L 280.725116 -121.171833 
L 275.56641 -121.97079 
L 270.407704 -121.97079 
L 265.248998 -122.471684 
L 260.090293 -122.471684 
L 254.931587 -122.095044 
L 249.772881 -122.126501 
L 244.614176 -122.126501 
L 239.45547 -122.126501 
L 234.296764 -122.126501 
L 229.138059 -122.077262 
L 223.979353 -122.077262 
L 218.820647 -122.077262 
L 213.661941 -119.712929 
L 208.503236 -121.890674 
L 203.34453 -122.102886 
L 198.185824 -121.2209 
L 193.027119 -121.634352 
L 187.868413 -121.634352 
L 182.709707 -121.634352 
L 177.551002 -121.634352 
L 172.392296 -121.084907 
L 167.23359 -114.610239 
L 162.074884 -117.56414 
L 156.916179 -119.558289 
L 151.757473 -119.703058 
L 146.598767 -118.503609 
L 141.440062 -120.758069 
L 136.281356 -119.644545 
L 131.12265 -119.180505 
L 125.963945 -117.769744 
L 120.805239 -107.193098 
L 115.646533 -100.62019 
L 110.487827 -98.044285 
L 105.329122 -86.649145 
L 100.170416 -35.340389 
L 95.01171 -64.72053 
L 89.853005 -55.560765 
L 84.694299 -38.344389 
L 79.535593 -35.27121 
L 74.376888 -33.673543 
L 69.218182 -35.586366 
z
" style="stroke: #9d02d7; stroke-opacity: 0.2"/>
    </defs>
    <g clip-path="url(#p9359a7a433)">
     <use xlink:href="#m5c4e4434f2" x="0" y="288" style="fill: #9d02d7; fill-opacity: 0.2; stroke: #9d02d7; stroke-opacity: 0.2"/>
    </g>
   </g>
   <g id="PolyCollection_2">
    <defs>
     <path id="m58e34bc15b" d="M 69.218182 -33.136461 
L 69.218182 -33.136461 
L 74.376888 -33.559685 
L 79.535593 -35.349583 
L 84.694299 -36.127449 
L 89.853005 -35.104272 
L 95.01171 -36.686462 
L 100.170416 -38.740573 
L 105.329122 -52.402094 
L 110.487827 -52.237349 
L 115.646533 -58.616662 
L 120.805239 -58.208676 
L 125.963945 -58.688018 
L 131.12265 -60.217754 
L 136.281356 -61.420026 
L 141.440062 -67.994303 
L 146.598767 -71.656182 
L 151.757473 -73.058674 
L 156.916179 -73.713057 
L 162.074884 -73.490624 
L 167.23359 -73.713057 
L 172.392296 -73.490624 
L 177.551002 -74.427801 
L 182.709707 -73.713057 
L 187.868413 -73.490624 
L 193.027119 -73.490624 
L 198.185824 -73.64952 
L 203.34453 -74.112538 
L 208.503236 -74.112538 
L 213.661941 -72.873568 
L 218.820647 -73.058674 
L 223.979353 -72.759023 
L 229.138059 -73.28241 
L 234.296764 -73.28241 
L 239.45547 -73.165842 
L 244.614176 -72.918573 
L 249.772881 -73.165842 
L 254.931587 -73.165842 
L 260.090293 -73.165842 
L 265.248998 -73.165842 
L 270.407704 -73.165842 
L 275.56641 -73.165842 
L 280.725116 -73.165842 
L 285.883821 -73.165842 
L 291.042527 -74.086907 
L 296.201233 -69.527151 
L 301.359938 -74.790405 
L 306.518644 -71.144015 
L 311.67735 -73.869939 
L 316.836055 -73.869939 
L 321.994761 -69.916508 
L 327.153467 -73.755955 
L 332.312173 -73.755955 
L 337.470878 -73.755955 
L 342.629584 -73.869939 
L 347.78829 -73.869939 
L 352.946995 -73.869939 
L 358.105701 -73.869939 
L 363.264407 -73.869939 
L 368.423112 -73.869939 
L 373.581818 -73.869939 
L 373.581818 -73.869939 
L 373.581818 -73.869939 
L 368.423112 -73.869939 
L 363.264407 -73.869939 
L 358.105701 -73.869939 
L 352.946995 -73.869939 
L 347.78829 -73.869939 
L 342.629584 -73.869939 
L 337.470878 -73.755955 
L 332.312173 -73.755955 
L 327.153467 -73.755955 
L 321.994761 -69.916508 
L 316.836055 -73.869939 
L 311.67735 -73.869939 
L 306.518644 -71.144015 
L 301.359938 -74.790405 
L 296.201233 -69.527151 
L 291.042527 -74.086907 
L 285.883821 -73.165842 
L 280.725116 -73.165842 
L 275.56641 -73.165842 
L 270.407704 -73.165842 
L 265.248998 -73.165842 
L 260.090293 -73.165842 
L 254.931587 -73.165842 
L 249.772881 -73.165842 
L 244.614176 -72.918573 
L 239.45547 -73.165842 
L 234.296764 -73.28241 
L 229.138059 -73.28241 
L 223.979353 -72.759023 
L 218.820647 -73.058674 
L 213.661941 -72.873568 
L 208.503236 -74.112538 
L 203.34453 -74.112538 
L 198.185824 -73.64952 
L 193.027119 -73.490624 
L 187.868413 -73.490624 
L 182.709707 -73.713057 
L 177.551002 -74.427801 
L 172.392296 -73.490624 
L 167.23359 -73.713057 
L 162.074884 -73.490624 
L 156.916179 -73.713057 
L 151.757473 -73.058674 
L 146.598767 -71.656182 
L 141.440062 -67.994303 
L 136.281356 -61.420026 
L 131.12265 -60.217754 
L 125.963945 -58.688018 
L 120.805239 -58.208676 
L 115.646533 -58.616662 
L 110.487827 -52.237349 
L 105.329122 -52.402094 
L 100.170416 -38.740573 
L 95.01171 -36.686462 
L 89.853005 -35.104272 
L 84.694299 -36.127449 
L 79.535593 -35.349583 
L 74.376888 -33.559685 
L 69.218182 -33.136461 
z
" style="stroke: #0000ff; stroke-opacity: 0.2"/>
    </defs>
    <g clip-path="url(#p9359a7a433)">
     <use xlink:href="#m58e34bc15b" x="0" y="288" style="fill: #0000ff; fill-opacity: 0.2; stroke: #0000ff; stroke-opacity: 0.2"/>
    </g>
   </g>
   <g id="PolyCollection_3">
    <defs>
     <path id="m066c53b88e" d="M 69.218182 -33.041643 
L 69.218182 -33.041643 
L 74.376888 -32.244026 
L 79.535593 -32.871672 
L 84.694299 -34.004273 
L 89.853005 -33.460364 
L 95.01171 -33.281433 
L 100.170416 -33.058533 
L 105.329122 -33.610377 
L 110.487827 -33.825059 
L 115.646533 -36.281664 
L 120.805239 -37.711612 
L 125.963945 -36.514693 
L 131.12265 -38.895897 
L 136.281356 -38.459079 
L 141.440062 -38.204365 
L 146.598767 -42.000637 
L 151.757473 -42.560184 
L 156.916179 -42.817643 
L 162.074884 -42.38562 
L 167.23359 -42.641486 
L 172.392296 -42.860859 
L 177.551002 -43.241402 
L 182.709707 -43.17012 
L 187.868413 -42.724418 
L 193.027119 -43.2969 
L 198.185824 -41.690645 
L 203.34453 -42.984014 
L 208.503236 -43.19576 
L 213.661941 -43.667977 
L 218.820647 -43.19576 
L 223.979353 -43.667977 
L 229.138059 -43.23255 
L 234.296764 -43.23255 
L 239.45547 -41.689347 
L 244.614176 -41.880357 
L 249.772881 -43.050854 
L 254.931587 -42.894313 
L 260.090293 -42.894313 
L 265.248998 -43.19576 
L 270.407704 -42.894313 
L 275.56641 -43.19576 
L 280.725116 -42.894313 
L 285.883821 -42.894313 
L 291.042527 -42.894313 
L 296.201233 -43.306452 
L 301.359938 -43.306452 
L 306.518644 -42.894313 
L 311.67735 -42.894313 
L 316.836055 -42.762628 
L 321.994761 -42.23841 
L 327.153467 -42.23841 
L 332.312173 -42.894313 
L 337.470878 -42.820399 
L 342.629584 -42.820399 
L 347.78829 -42.820399 
L 352.946995 -42.820399 
L 358.105701 -42.820399 
L 363.264407 -42.516189 
L 368.423112 -42.172068 
L 373.581818 -42.516189 
L 373.581818 -42.516189 
L 373.581818 -42.516189 
L 368.423112 -42.172068 
L 363.264407 -42.516189 
L 358.105701 -42.820399 
L 352.946995 -42.820399 
L 347.78829 -42.820399 
L 342.629584 -42.820399 
L 337.470878 -42.820399 
L 332.312173 -42.894313 
L 327.153467 -42.23841 
L 321.994761 -42.23841 
L 316.836055 -42.762628 
L 311.67735 -42.894313 
L 306.518644 -42.894313 
L 301.359938 -43.306452 
L 296.201233 -43.306452 
L 291.042527 -42.894313 
L 285.883821 -42.894313 
L 280.725116 -42.894313 
L 275.56641 -43.19576 
L 270.407704 -42.894313 
L 265.248998 -43.19576 
L 260.090293 -42.894313 
L 254.931587 -42.894313 
L 249.772881 -43.050854 
L 244.614176 -41.880357 
L 239.45547 -41.689347 
L 234.296764 -43.23255 
L 229.138059 -43.23255 
L 223.979353 -43.667977 
L 218.820647 -43.19576 
L 213.661941 -43.667977 
L 208.503236 -43.19576 
L 203.34453 -42.984014 
L 198.185824 -41.690645 
L 193.027119 -43.2969 
L 187.868413 -42.724418 
L 182.709707 -43.17012 
L 177.551002 -43.241402 
L 172.392296 -42.860859 
L 167.23359 -42.641486 
L 162.074884 -42.38562 
L 156.916179 -42.817643 
L 151.757473 -42.560184 
L 146.598767 -42.000637 
L 141.440062 -38.204365 
L 136.281356 -38.459079 
L 131.12265 -38.895897 
L 125.963945 -36.514693 
L 120.805239 -37.711612 
L 115.646533 -36.281664 
L 110.487827 -33.825059 
L 105.329122 -33.610377 
L 100.170416 -33.058533 
L 95.01171 -33.281433 
L 89.853005 -33.460364 
L 84.694299 -34.004273 
L 79.535593 -32.871672 
L 74.376888 -32.244026 
L 69.218182 -33.041643 
z
" style="stroke: #ff7763; stroke-opacity: 0.2"/>
    </defs>
    <g clip-path="url(#p9359a7a433)">
     <use xlink:href="#m066c53b88e" x="0" y="288" style="fill: #ff7763; fill-opacity: 0.2; stroke: #ff7763; stroke-opacity: 0.2"/>
    </g>
   </g>
   <g id="PolyCollection_4">
    <defs>
     <path id="m0f69cc3795" d="M 69.218182 -32.773581 
L 69.218182 -32.773581 
L 74.376888 -32.773581 
L 79.535593 -32.773581 
L 84.694299 -32.773581 
L 89.853005 -32.773581 
L 95.01171 -32.773581 
L 100.170416 -32.773581 
L 105.329122 -32.773581 
L 110.487827 -32.773581 
L 115.646533 -32.773581 
L 120.805239 -32.773581 
L 125.963945 -32.773581 
L 131.12265 -32.773581 
L 136.281356 -32.773581 
L 141.440062 -32.773581 
L 146.598767 -32.773581 
L 151.757473 -32.773581 
L 156.916179 -32.773581 
L 162.074884 -32.773581 
L 167.23359 -32.773581 
L 172.392296 -32.773581 
L 177.551002 -32.773581 
L 182.709707 -32.773581 
L 187.868413 -32.773581 
L 193.027119 -32.773581 
L 198.185824 -32.773581 
L 203.34453 -32.773581 
L 208.503236 -32.773581 
L 213.661941 -32.773581 
L 218.820647 -32.773581 
L 223.979353 -32.773581 
L 229.138059 -32.773581 
L 234.296764 -32.773581 
L 239.45547 -32.773581 
L 244.614176 -32.773581 
L 249.772881 -32.773581 
L 254.931587 -32.773581 
L 260.090293 -32.773581 
L 265.248998 -32.773581 
L 270.407704 -32.773581 
L 275.56641 -32.773581 
L 280.725116 -32.773581 
L 285.883821 -32.773581 
L 291.042527 -32.773581 
L 296.201233 -32.773581 
L 301.359938 -32.773581 
L 306.518644 -32.773581 
L 311.67735 -32.773581 
L 316.836055 -32.773581 
L 321.994761 -32.773581 
L 327.153467 -32.773581 
L 332.312173 -32.773581 
L 337.470878 -32.773581 
L 342.629584 -32.773581 
L 347.78829 -32.773581 
L 352.946995 -32.773581 
L 358.105701 -32.773581 
L 363.264407 -32.773581 
L 368.423112 -32.773581 
L 373.581818 -32.773581 
L 373.581818 -32.773581 
L 373.581818 -32.773581 
L 368.423112 -32.773581 
L 363.264407 -32.773581 
L 358.105701 -32.773581 
L 352.946995 -32.773581 
L 347.78829 -32.773581 
L 342.629584 -32.773581 
L 337.470878 -32.773581 
L 332.312173 -32.773581 
L 327.153467 -32.773581 
L 321.994761 -32.773581 
L 316.836055 -32.773581 
L 311.67735 -32.773581 
L 306.518644 -32.773581 
L 301.359938 -32.773581 
L 296.201233 -32.773581 
L 291.042527 -32.773581 
L 285.883821 -32.773581 
L 280.725116 -32.773581 
L 275.56641 -32.773581 
L 270.407704 -32.773581 
L 265.248998 -32.773581 
L 260.090293 -32.773581 
L 254.931587 -32.773581 
L 249.772881 -32.773581 
L 244.614176 -32.773581 
L 239.45547 -32.773581 
L 234.296764 -32.773581 
L 229.138059 -32.773581 
L 223.979353 -32.773581 
L 218.820647 -32.773581 
L 213.661941 -32.773581 
L 208.503236 -32.773581 
L 203.34453 -32.773581 
L 198.185824 -32.773581 
L 193.027119 -32.773581 
L 187.868413 -32.773581 
L 182.709707 -32.773581 
L 177.551002 -32.773581 
L 172.392296 -32.773581 
L 167.23359 -32.773581 
L 162.074884 -32.773581 
L 156.916179 -32.773581 
L 151.757473 -32.773581 
L 146.598767 -32.773581 
L 141.440062 -32.773581 
L 136.281356 -32.773581 
L 131.12265 -32.773581 
L 125.963945 -32.773581 
L 120.805239 -32.773581 
L 115.646533 -32.773581 
L 110.487827 -32.773581 
L 105.329122 -32.773581 
L 100.170416 -32.773581 
L 95.01171 -32.773581 
L 89.853005 -32.773581 
L 84.694299 -32.773581 
L 79.535593 -32.773581 
L 74.376888 -32.773581 
L 69.218182 -32.773581 
z
" style="stroke: #ffac1e; stroke-opacity: 0.2"/>
    </defs>
    <g clip-path="url(#p9359a7a433)">
     <use xlink:href="#m0f69cc3795" x="0" y="288" style="fill: #ffac1e; fill-opacity: 0.2; stroke: #ffac1e; stroke-opacity: 0.2"/>
    </g>
   </g>
   <g id="matplotlib.axis_1">
    <g id="xtick_1">
     <g id="line2d_1">
      <path d="M 69.218182 252 
L 69.218182 34.56 
" clip-path="url(#p9359a7a433)" style="fill: none; stroke-dasharray: 2.96,1.28; stroke-dashoffset: 0; stroke: #b0b0b0; stroke-width: 0.8"/>
     </g>
     <g id="line2d_2">
      <defs>
       <path id="m1c699d8acc" d="M 0 0 
L 0 3.5 
" style="stroke: #000000; stroke-width: 0.8"/>
      </defs>
      <g>
       <use xlink:href="#m1c699d8acc" x="69.218182" y="252" style="stroke: #000000; stroke-width: 0.8"/>
      </g>
     </g>
     <g id="text_1">
      <!-- 0 -->
      <g transform="translate(66.036932 266.598437)scale(0.1 -0.1)">
       <defs>
        <path id="DejaVuSans-30" d="M 2034 4250 
Q 1547 4250 1301 3770 
Q 1056 3291 1056 2328 
Q 1056 1369 1301 889 
Q 1547 409 2034 409 
Q 2525 409 2770 889 
Q 3016 1369 3016 2328 
Q 3016 3291 2770 3770 
Q 2525 4250 2034 4250 
z
M 2034 4750 
Q 2819 4750 3233 4129 
Q 3647 3509 3647 2328 
Q 3647 1150 3233 529 
Q 2819 -91 2034 -91 
Q 1250 -91 836 529 
Q 422 1150 422 2328 
Q 422 3509 836 4129 
Q 1250 4750 2034 4750 
z
" transform="scale(0.015625)"/>
       </defs>
       <use xlink:href="#DejaVuSans-30"/>
      </g>
     </g>
    </g>
    <g id="xtick_2">
     <g id="line2d_3">
      <path d="M 120.805239 252 
L 120.805239 34.56 
" clip-path="url(#p9359a7a433)" style="fill: none; stroke-dasharray: 2.96,1.28; stroke-dashoffset: 0; stroke: #b0b0b0; stroke-width: 0.8"/>
     </g>
     <g id="line2d_4">
      <g>
       <use xlink:href="#m1c699d8acc" x="120.805239" y="252" style="stroke: #000000; stroke-width: 0.8"/>
      </g>
     </g>
     <g id="text_2">
      <!-- 500 -->
      <g transform="translate(111.261489 266.598437)scale(0.1 -0.1)">
       <defs>
        <path id="DejaVuSans-35" d="M 691 4666 
L 3169 4666 
L 3169 4134 
L 1269 4134 
L 1269 2991 
Q 1406 3038 1543 3061 
Q 1681 3084 1819 3084 
Q 2600 3084 3056 2656 
Q 3513 2228 3513 1497 
Q 3513 744 3044 326 
Q 2575 -91 1722 -91 
Q 1428 -91 1123 -41 
Q 819 9 494 109 
L 494 744 
Q 775 591 1075 516 
Q 1375 441 1709 441 
Q 2250 441 2565 725 
Q 2881 1009 2881 1497 
Q 2881 1984 2565 2268 
Q 2250 2553 1709 2553 
Q 1456 2553 1204 2497 
Q 953 2441 691 2322 
L 691 4666 
z
" transform="scale(0.015625)"/>
       </defs>
       <use xlink:href="#DejaVuSans-35"/>
       <use xlink:href="#DejaVuSans-30" x="63.623047"/>
       <use xlink:href="#DejaVuSans-30" x="127.246094"/>
      </g>
     </g>
    </g>
    <g id="xtick_3">
     <g id="line2d_5">
      <path d="M 172.392296 252 
L 172.392296 34.56 
" clip-path="url(#p9359a7a433)" style="fill: none; stroke-dasharray: 2.96,1.28; stroke-dashoffset: 0; stroke: #b0b0b0; stroke-width: 0.8"/>
     </g>
     <g id="line2d_6">
      <g>
       <use xlink:href="#m1c699d8acc" x="172.392296" y="252" style="stroke: #000000; stroke-width: 0.8"/>
      </g>
     </g>
     <g id="text_3">
      <!-- 1000 -->
      <g transform="translate(159.667296 266.598437)scale(0.1 -0.1)">
       <defs>
        <path id="DejaVuSans-31" d="M 794 531 
L 1825 531 
L 1825 4091 
L 703 3866 
L 703 4441 
L 1819 4666 
L 2450 4666 
L 2450 531 
L 3481 531 
L 3481 0 
L 794 0 
L 794 531 
z
" transform="scale(0.015625)"/>
       </defs>
       <use xlink:href="#DejaVuSans-31"/>
       <use xlink:href="#DejaVuSans-30" x="63.623047"/>
       <use xlink:href="#DejaVuSans-30" x="127.246094"/>
       <use xlink:href="#DejaVuSans-30" x="190.869141"/>
      </g>
     </g>
    </g>
    <g id="xtick_4">
     <g id="line2d_7">
      <path d="M 223.979353 252 
L 223.979353 34.56 
" clip-path="url(#p9359a7a433)" style="fill: none; stroke-dasharray: 2.96,1.28; stroke-dashoffset: 0; stroke: #b0b0b0; stroke-width: 0.8"/>
     </g>
     <g id="line2d_8">
      <g>
       <use xlink:href="#m1c699d8acc" x="223.979353" y="252" style="stroke: #000000; stroke-width: 0.8"/>
      </g>
     </g>
     <g id="text_4">
      <!-- 1500 -->
      <g transform="translate(211.254353 266.598437)scale(0.1 -0.1)">
       <use xlink:href="#DejaVuSans-31"/>
       <use xlink:href="#DejaVuSans-35" x="63.623047"/>
       <use xlink:href="#DejaVuSans-30" x="127.246094"/>
       <use xlink:href="#DejaVuSans-30" x="190.869141"/>
      </g>
     </g>
    </g>
    <g id="xtick_5">
     <g id="line2d_9">
      <path d="M 275.56641 252 
L 275.56641 34.56 
" clip-path="url(#p9359a7a433)" style="fill: none; stroke-dasharray: 2.96,1.28; stroke-dashoffset: 0; stroke: #b0b0b0; stroke-width: 0.8"/>
     </g>
     <g id="line2d_10">
      <g>
       <use xlink:href="#m1c699d8acc" x="275.56641" y="252" style="stroke: #000000; stroke-width: 0.8"/>
      </g>
     </g>
     <g id="text_5">
      <!-- 2000 -->
      <g transform="translate(262.84141 266.598437)scale(0.1 -0.1)">
       <defs>
        <path id="DejaVuSans-32" d="M 1228 531 
L 3431 531 
L 3431 0 
L 469 0 
L 469 531 
Q 828 903 1448 1529 
Q 2069 2156 2228 2338 
Q 2531 2678 2651 2914 
Q 2772 3150 2772 3378 
Q 2772 3750 2511 3984 
Q 2250 4219 1831 4219 
Q 1534 4219 1204 4116 
Q 875 4013 500 3803 
L 500 4441 
Q 881 4594 1212 4672 
Q 1544 4750 1819 4750 
Q 2544 4750 2975 4387 
Q 3406 4025 3406 3419 
Q 3406 3131 3298 2873 
Q 3191 2616 2906 2266 
Q 2828 2175 2409 1742 
Q 1991 1309 1228 531 
z
" transform="scale(0.015625)"/>
       </defs>
       <use xlink:href="#DejaVuSans-32"/>
       <use xlink:href="#DejaVuSans-30" x="63.623047"/>
       <use xlink:href="#DejaVuSans-30" x="127.246094"/>
       <use xlink:href="#DejaVuSans-30" x="190.869141"/>
      </g>
     </g>
    </g>
    <g id="xtick_6">
     <g id="line2d_11">
      <path d="M 327.153467 252 
L 327.153467 34.56 
" clip-path="url(#p9359a7a433)" style="fill: none; stroke-dasharray: 2.96,1.28; stroke-dashoffset: 0; stroke: #b0b0b0; stroke-width: 0.8"/>
     </g>
     <g id="line2d_12">
      <g>
       <use xlink:href="#m1c699d8acc" x="327.153467" y="252" style="stroke: #000000; stroke-width: 0.8"/>
      </g>
     </g>
     <g id="text_6">
      <!-- 2500 -->
      <g transform="translate(314.428467 266.598437)scale(0.1 -0.1)">
       <use xlink:href="#DejaVuSans-32"/>
       <use xlink:href="#DejaVuSans-35" x="63.623047"/>
       <use xlink:href="#DejaVuSans-30" x="127.246094"/>
       <use xlink:href="#DejaVuSans-30" x="190.869141"/>
      </g>
     </g>
    </g>
    <g id="xtick_7">
     <g id="line2d_13">
      <path d="M 378.740524 252 
L 378.740524 34.56 
" clip-path="url(#p9359a7a433)" style="fill: none; stroke-dasharray: 2.96,1.28; stroke-dashoffset: 0; stroke: #b0b0b0; stroke-width: 0.8"/>
     </g>
     <g id="line2d_14">
      <g>
       <use xlink:href="#m1c699d8acc" x="378.740524" y="252" style="stroke: #000000; stroke-width: 0.8"/>
      </g>
     </g>
     <g id="text_7">
      <!-- 3000 -->
      <g transform="translate(366.015524 266.598437)scale(0.1 -0.1)">
       <defs>
        <path id="DejaVuSans-33" d="M 2597 2516 
Q 3050 2419 3304 2112 
Q 3559 1806 3559 1356 
Q 3559 666 3084 287 
Q 2609 -91 1734 -91 
Q 1441 -91 1130 -33 
Q 819 25 488 141 
L 488 750 
Q 750 597 1062 519 
Q 1375 441 1716 441 
Q 2309 441 2620 675 
Q 2931 909 2931 1356 
Q 2931 1769 2642 2001 
Q 2353 2234 1838 2234 
L 1294 2234 
L 1294 2753 
L 1863 2753 
Q 2328 2753 2575 2939 
Q 2822 3125 2822 3475 
Q 2822 3834 2567 4026 
Q 2313 4219 1838 4219 
Q 1578 4219 1281 4162 
Q 984 4106 628 3988 
L 628 4550 
Q 988 4650 1302 4700 
Q 1616 4750 1894 4750 
Q 2613 4750 3031 4423 
Q 3450 4097 3450 3541 
Q 3450 3153 3228 2886 
Q 3006 2619 2597 2516 
z
" transform="scale(0.015625)"/>
       </defs>
       <use xlink:href="#DejaVuSans-33"/>
       <use xlink:href="#DejaVuSans-30" x="63.623047"/>
       <use xlink:href="#DejaVuSans-30" x="127.246094"/>
       <use xlink:href="#DejaVuSans-30" x="190.869141"/>
      </g>
     </g>
    </g>
    <g id="text_8">
     <!-- Steps -->
     <g transform="translate(207.410156 280.276563)scale(0.1 -0.1)">
      <defs>
       <path id="DejaVuSans-53" d="M 3425 4513 
L 3425 3897 
Q 3066 4069 2747 4153 
Q 2428 4238 2131 4238 
Q 1616 4238 1336 4038 
Q 1056 3838 1056 3469 
Q 1056 3159 1242 3001 
Q 1428 2844 1947 2747 
L 2328 2669 
Q 3034 2534 3370 2195 
Q 3706 1856 3706 1288 
Q 3706 609 3251 259 
Q 2797 -91 1919 -91 
Q 1588 -91 1214 -16 
Q 841 59 441 206 
L 441 856 
Q 825 641 1194 531 
Q 1563 422 1919 422 
Q 2459 422 2753 634 
Q 3047 847 3047 1241 
Q 3047 1584 2836 1778 
Q 2625 1972 2144 2069 
L 1759 2144 
Q 1053 2284 737 2584 
Q 422 2884 422 3419 
Q 422 4038 858 4394 
Q 1294 4750 2059 4750 
Q 2388 4750 2728 4690 
Q 3069 4631 3425 4513 
z
" transform="scale(0.015625)"/>
       <path id="DejaVuSans-74" d="M 1172 4494 
L 1172 3500 
L 2356 3500 
L 2356 3053 
L 1172 3053 
L 1172 1153 
Q 1172 725 1289 603 
Q 1406 481 1766 481 
L 2356 481 
L 2356 0 
L 1766 0 
Q 1100 0 847 248 
Q 594 497 594 1153 
L 594 3053 
L 172 3053 
L 172 3500 
L 594 3500 
L 594 4494 
L 1172 4494 
z
" transform="scale(0.015625)"/>
       <path id="DejaVuSans-65" d="M 3597 1894 
L 3597 1613 
L 953 1613 
Q 991 1019 1311 708 
Q 1631 397 2203 397 
Q 2534 397 2845 478 
Q 3156 559 3463 722 
L 3463 178 
Q 3153 47 2828 -22 
Q 2503 -91 2169 -91 
Q 1331 -91 842 396 
Q 353 884 353 1716 
Q 353 2575 817 3079 
Q 1281 3584 2069 3584 
Q 2775 3584 3186 3129 
Q 3597 2675 3597 1894 
z
M 3022 2063 
Q 3016 2534 2758 2815 
Q 2500 3097 2075 3097 
Q 1594 3097 1305 2825 
Q 1016 2553 972 2059 
L 3022 2063 
z
" transform="scale(0.015625)"/>
       <path id="DejaVuSans-70" d="M 1159 525 
L 1159 -1331 
L 581 -1331 
L 581 3500 
L 1159 3500 
L 1159 2969 
Q 1341 3281 1617 3432 
Q 1894 3584 2278 3584 
Q 2916 3584 3314 3078 
Q 3713 2572 3713 1747 
Q 3713 922 3314 415 
Q 2916 -91 2278 -91 
Q 1894 -91 1617 61 
Q 1341 213 1159 525 
z
M 3116 1747 
Q 3116 2381 2855 2742 
Q 2594 3103 2138 3103 
Q 1681 3103 1420 2742 
Q 1159 2381 1159 1747 
Q 1159 1113 1420 752 
Q 1681 391 2138 391 
Q 2594 391 2855 752 
Q 3116 1113 3116 1747 
z
" transform="scale(0.015625)"/>
       <path id="DejaVuSans-73" d="M 2834 3397 
L 2834 2853 
Q 2591 2978 2328 3040 
Q 2066 3103 1784 3103 
Q 1356 3103 1142 2972 
Q 928 2841 928 2578 
Q 928 2378 1081 2264 
Q 1234 2150 1697 2047 
L 1894 2003 
Q 2506 1872 2764 1633 
Q 3022 1394 3022 966 
Q 3022 478 2636 193 
Q 2250 -91 1575 -91 
Q 1294 -91 989 -36 
Q 684 19 347 128 
L 347 722 
Q 666 556 975 473 
Q 1284 391 1588 391 
Q 1994 391 2212 530 
Q 2431 669 2431 922 
Q 2431 1156 2273 1281 
Q 2116 1406 1581 1522 
L 1381 1569 
Q 847 1681 609 1914 
Q 372 2147 372 2553 
Q 372 3047 722 3315 
Q 1072 3584 1716 3584 
Q 2034 3584 2315 3537 
Q 2597 3491 2834 3397 
z
" transform="scale(0.015625)"/>
      </defs>
      <use xlink:href="#DejaVuSans-53"/>
      <use xlink:href="#DejaVuSans-74" x="63.476562"/>
      <use xlink:href="#DejaVuSans-65" x="102.685547"/>
      <use xlink:href="#DejaVuSans-70" x="164.208984"/>
      <use xlink:href="#DejaVuSans-73" x="227.685547"/>
     </g>
    </g>
   </g>
   <g id="matplotlib.axis_2">
    <g id="ytick_1">
     <g id="line2d_15">
      <path d="M 54 243.636923 
L 388.8 243.636923 
" clip-path="url(#p9359a7a433)" style="fill: none; stroke-dasharray: 2.96,1.28; stroke-dashoffset: 0; stroke: #b0b0b0; stroke-width: 0.8"/>
     </g>
     <g id="line2d_16">
      <defs>
       <path id="m5e56dab69f" d="M 0 0 
L -3.5 0 
" style="stroke: #000000; stroke-width: 0.8"/>
      </defs>
      <g>
       <use xlink:href="#m5e56dab69f" x="54" y="243.636923" style="stroke: #000000; stroke-width: 0.8"/>
      </g>
     </g>
     <g id="text_9">
      <!-- −12 -->
      <g transform="translate(25.895312 247.436142)scale(0.1 -0.1)">
       <defs>
        <path id="DejaVuSans-2212" d="M 678 2272 
L 4684 2272 
L 4684 1741 
L 678 1741 
L 678 2272 
z
" transform="scale(0.015625)"/>
       </defs>
       <use xlink:href="#DejaVuSans-2212"/>
       <use xlink:href="#DejaVuSans-31" x="83.789062"/>
       <use xlink:href="#DejaVuSans-32" x="147.412109"/>
      </g>
     </g>
    </g>
    <g id="ytick_2">
     <g id="line2d_17">
      <path d="M 54 210.184615 
L 388.8 210.184615 
" clip-path="url(#p9359a7a433)" style="fill: none; stroke-dasharray: 2.96,1.28; stroke-dashoffset: 0; stroke: #b0b0b0; stroke-width: 0.8"/>
     </g>
     <g id="line2d_18">
      <g>
       <use xlink:href="#m5e56dab69f" x="54" y="210.184615" style="stroke: #000000; stroke-width: 0.8"/>
      </g>
     </g>
     <g id="text_10">
      <!-- −10 -->
      <g transform="translate(25.895312 213.983834)scale(0.1 -0.1)">
       <use xlink:href="#DejaVuSans-2212"/>
       <use xlink:href="#DejaVuSans-31" x="83.789062"/>
       <use xlink:href="#DejaVuSans-30" x="147.412109"/>
      </g>
     </g>
    </g>
    <g id="ytick_3">
     <g id="line2d_19">
      <path d="M 54 176.732308 
L 388.8 176.732308 
" clip-path="url(#p9359a7a433)" style="fill: none; stroke-dasharray: 2.96,1.28; stroke-dashoffset: 0; stroke: #b0b0b0; stroke-width: 0.8"/>
     </g>
     <g id="line2d_20">
      <g>
       <use xlink:href="#m5e56dab69f" x="54" y="176.732308" style="stroke: #000000; stroke-width: 0.8"/>
      </g>
     </g>
     <g id="text_11">
      <!-- −8 -->
      <g transform="translate(32.257812 180.531526)scale(0.1 -0.1)">
       <defs>
        <path id="DejaVuSans-38" d="M 2034 2216 
Q 1584 2216 1326 1975 
Q 1069 1734 1069 1313 
Q 1069 891 1326 650 
Q 1584 409 2034 409 
Q 2484 409 2743 651 
Q 3003 894 3003 1313 
Q 3003 1734 2745 1975 
Q 2488 2216 2034 2216 
z
M 1403 2484 
Q 997 2584 770 2862 
Q 544 3141 544 3541 
Q 544 4100 942 4425 
Q 1341 4750 2034 4750 
Q 2731 4750 3128 4425 
Q 3525 4100 3525 3541 
Q 3525 3141 3298 2862 
Q 3072 2584 2669 2484 
Q 3125 2378 3379 2068 
Q 3634 1759 3634 1313 
Q 3634 634 3220 271 
Q 2806 -91 2034 -91 
Q 1263 -91 848 271 
Q 434 634 434 1313 
Q 434 1759 690 2068 
Q 947 2378 1403 2484 
z
M 1172 3481 
Q 1172 3119 1398 2916 
Q 1625 2713 2034 2713 
Q 2441 2713 2670 2916 
Q 2900 3119 2900 3481 
Q 2900 3844 2670 4047 
Q 2441 4250 2034 4250 
Q 1625 4250 1398 4047 
Q 1172 3844 1172 3481 
z
" transform="scale(0.015625)"/>
       </defs>
       <use xlink:href="#DejaVuSans-2212"/>
       <use xlink:href="#DejaVuSans-38" x="83.789062"/>
      </g>
     </g>
    </g>
    <g id="ytick_4">
     <g id="line2d_21">
      <path d="M 54 143.28 
L 388.8 143.28 
" clip-path="url(#p9359a7a433)" style="fill: none; stroke-dasharray: 2.96,1.28; stroke-dashoffset: 0; stroke: #b0b0b0; stroke-width: 0.8"/>
     </g>
     <g id="line2d_22">
      <g>
       <use xlink:href="#m5e56dab69f" x="54" y="143.28" style="stroke: #000000; stroke-width: 0.8"/>
      </g>
     </g>
     <g id="text_12">
      <!-- −6 -->
      <g transform="translate(32.257812 147.079219)scale(0.1 -0.1)">
       <defs>
        <path id="DejaVuSans-36" d="M 2113 2584 
Q 1688 2584 1439 2293 
Q 1191 2003 1191 1497 
Q 1191 994 1439 701 
Q 1688 409 2113 409 
Q 2538 409 2786 701 
Q 3034 994 3034 1497 
Q 3034 2003 2786 2293 
Q 2538 2584 2113 2584 
z
M 3366 4563 
L 3366 3988 
Q 3128 4100 2886 4159 
Q 2644 4219 2406 4219 
Q 1781 4219 1451 3797 
Q 1122 3375 1075 2522 
Q 1259 2794 1537 2939 
Q 1816 3084 2150 3084 
Q 2853 3084 3261 2657 
Q 3669 2231 3669 1497 
Q 3669 778 3244 343 
Q 2819 -91 2113 -91 
Q 1303 -91 875 529 
Q 447 1150 447 2328 
Q 447 3434 972 4092 
Q 1497 4750 2381 4750 
Q 2619 4750 2861 4703 
Q 3103 4656 3366 4563 
z
" transform="scale(0.015625)"/>
       </defs>
       <use xlink:href="#DejaVuSans-2212"/>
       <use xlink:href="#DejaVuSans-36" x="83.789062"/>
      </g>
     </g>
    </g>
    <g id="ytick_5">
     <g id="line2d_23">
      <path d="M 54 109.827692 
L 388.8 109.827692 
" clip-path="url(#p9359a7a433)" style="fill: none; stroke-dasharray: 2.96,1.28; stroke-dashoffset: 0; stroke: #b0b0b0; stroke-width: 0.8"/>
     </g>
     <g id="line2d_24">
      <g>
       <use xlink:href="#m5e56dab69f" x="54" y="109.827692" style="stroke: #000000; stroke-width: 0.8"/>
      </g>
     </g>
     <g id="text_13">
      <!-- −4 -->
      <g transform="translate(32.257812 113.626911)scale(0.1 -0.1)">
       <defs>
        <path id="DejaVuSans-34" d="M 2419 4116 
L 825 1625 
L 2419 1625 
L 2419 4116 
z
M 2253 4666 
L 3047 4666 
L 3047 1625 
L 3713 1625 
L 3713 1100 
L 3047 1100 
L 3047 0 
L 2419 0 
L 2419 1100 
L 313 1100 
L 313 1709 
L 2253 4666 
z
" transform="scale(0.015625)"/>
       </defs>
       <use xlink:href="#DejaVuSans-2212"/>
       <use xlink:href="#DejaVuSans-34" x="83.789062"/>
      </g>
     </g>
    </g>
    <g id="ytick_6">
     <g id="line2d_25">
      <path d="M 54 76.375385 
L 388.8 76.375385 
" clip-path="url(#p9359a7a433)" style="fill: none; stroke-dasharray: 2.96,1.28; stroke-dashoffset: 0; stroke: #b0b0b0; stroke-width: 0.8"/>
     </g>
     <g id="line2d_26">
      <g>
       <use xlink:href="#m5e56dab69f" x="54" y="76.375385" style="stroke: #000000; stroke-width: 0.8"/>
      </g>
     </g>
     <g id="text_14">
      <!-- −2 -->
      <g transform="translate(32.257812 80.174603)scale(0.1 -0.1)">
       <use xlink:href="#DejaVuSans-2212"/>
       <use xlink:href="#DejaVuSans-32" x="83.789062"/>
      </g>
     </g>
    </g>
    <g id="ytick_7">
     <g id="line2d_27">
      <path d="M 54 42.923077 
L 388.8 42.923077 
" clip-path="url(#p9359a7a433)" style="fill: none; stroke-dasharray: 2.96,1.28; stroke-dashoffset: 0; stroke: #b0b0b0; stroke-width: 0.8"/>
     </g>
     <g id="line2d_28">
      <g>
       <use xlink:href="#m5e56dab69f" x="54" y="42.923077" style="stroke: #000000; stroke-width: 0.8"/>
      </g>
     </g>
     <g id="text_15">
      <!-- 0 -->
      <g transform="translate(40.6375 46.722296)scale(0.1 -0.1)">
       <use xlink:href="#DejaVuSans-30"/>
      </g>
     </g>
    </g>
    <g id="text_16">
     <!-- Policy value error -->
     <g transform="translate(19.815625 186.597969)rotate(-90)scale(0.1 -0.1)">
      <defs>
       <path id="DejaVuSans-50" d="M 1259 4147 
L 1259 2394 
L 2053 2394 
Q 2494 2394 2734 2622 
Q 2975 2850 2975 3272 
Q 2975 3691 2734 3919 
Q 2494 4147 2053 4147 
L 1259 4147 
z
M 628 4666 
L 2053 4666 
Q 2838 4666 3239 4311 
Q 3641 3956 3641 3272 
Q 3641 2581 3239 2228 
Q 2838 1875 2053 1875 
L 1259 1875 
L 1259 0 
L 628 0 
L 628 4666 
z
" transform="scale(0.015625)"/>
       <path id="DejaVuSans-6f" d="M 1959 3097 
Q 1497 3097 1228 2736 
Q 959 2375 959 1747 
Q 959 1119 1226 758 
Q 1494 397 1959 397 
Q 2419 397 2687 759 
Q 2956 1122 2956 1747 
Q 2956 2369 2687 2733 
Q 2419 3097 1959 3097 
z
M 1959 3584 
Q 2709 3584 3137 3096 
Q 3566 2609 3566 1747 
Q 3566 888 3137 398 
Q 2709 -91 1959 -91 
Q 1206 -91 779 398 
Q 353 888 353 1747 
Q 353 2609 779 3096 
Q 1206 3584 1959 3584 
z
" transform="scale(0.015625)"/>
       <path id="DejaVuSans-6c" d="M 603 4863 
L 1178 4863 
L 1178 0 
L 603 0 
L 603 4863 
z
" transform="scale(0.015625)"/>
       <path id="DejaVuSans-69" d="M 603 3500 
L 1178 3500 
L 1178 0 
L 603 0 
L 603 3500 
z
M 603 4863 
L 1178 4863 
L 1178 4134 
L 603 4134 
L 603 4863 
z
" transform="scale(0.015625)"/>
       <path id="DejaVuSans-63" d="M 3122 3366 
L 3122 2828 
Q 2878 2963 2633 3030 
Q 2388 3097 2138 3097 
Q 1578 3097 1268 2742 
Q 959 2388 959 1747 
Q 959 1106 1268 751 
Q 1578 397 2138 397 
Q 2388 397 2633 464 
Q 2878 531 3122 666 
L 3122 134 
Q 2881 22 2623 -34 
Q 2366 -91 2075 -91 
Q 1284 -91 818 406 
Q 353 903 353 1747 
Q 353 2603 823 3093 
Q 1294 3584 2113 3584 
Q 2378 3584 2631 3529 
Q 2884 3475 3122 3366 
z
" transform="scale(0.015625)"/>
       <path id="DejaVuSans-79" d="M 2059 -325 
Q 1816 -950 1584 -1140 
Q 1353 -1331 966 -1331 
L 506 -1331 
L 506 -850 
L 844 -850 
Q 1081 -850 1212 -737 
Q 1344 -625 1503 -206 
L 1606 56 
L 191 3500 
L 800 3500 
L 1894 763 
L 2988 3500 
L 3597 3500 
L 2059 -325 
z
" transform="scale(0.015625)"/>
       <path id="DejaVuSans-20" transform="scale(0.015625)"/>
       <path id="DejaVuSans-76" d="M 191 3500 
L 800 3500 
L 1894 563 
L 2988 3500 
L 3597 3500 
L 2284 0 
L 1503 0 
L 191 3500 
z
" transform="scale(0.015625)"/>
       <path id="DejaVuSans-61" d="M 2194 1759 
Q 1497 1759 1228 1600 
Q 959 1441 959 1056 
Q 959 750 1161 570 
Q 1363 391 1709 391 
Q 2188 391 2477 730 
Q 2766 1069 2766 1631 
L 2766 1759 
L 2194 1759 
z
M 3341 1997 
L 3341 0 
L 2766 0 
L 2766 531 
Q 2569 213 2275 61 
Q 1981 -91 1556 -91 
Q 1019 -91 701 211 
Q 384 513 384 1019 
Q 384 1609 779 1909 
Q 1175 2209 1959 2209 
L 2766 2209 
L 2766 2266 
Q 2766 2663 2505 2880 
Q 2244 3097 1772 3097 
Q 1472 3097 1187 3025 
Q 903 2953 641 2809 
L 641 3341 
Q 956 3463 1253 3523 
Q 1550 3584 1831 3584 
Q 2591 3584 2966 3190 
Q 3341 2797 3341 1997 
z
" transform="scale(0.015625)"/>
       <path id="DejaVuSans-75" d="M 544 1381 
L 544 3500 
L 1119 3500 
L 1119 1403 
Q 1119 906 1312 657 
Q 1506 409 1894 409 
Q 2359 409 2629 706 
Q 2900 1003 2900 1516 
L 2900 3500 
L 3475 3500 
L 3475 0 
L 2900 0 
L 2900 538 
Q 2691 219 2414 64 
Q 2138 -91 1772 -91 
Q 1169 -91 856 284 
Q 544 659 544 1381 
z
M 1991 3584 
L 1991 3584 
z
" transform="scale(0.015625)"/>
       <path id="DejaVuSans-72" d="M 2631 2963 
Q 2534 3019 2420 3045 
Q 2306 3072 2169 3072 
Q 1681 3072 1420 2755 
Q 1159 2438 1159 1844 
L 1159 0 
L 581 0 
L 581 3500 
L 1159 3500 
L 1159 2956 
Q 1341 3275 1631 3429 
Q 1922 3584 2338 3584 
Q 2397 3584 2469 3576 
Q 2541 3569 2628 3553 
L 2631 2963 
z
" transform="scale(0.015625)"/>
      </defs>
      <use xlink:href="#DejaVuSans-50"/>
      <use xlink:href="#DejaVuSans-6f" x="56.677734"/>
      <use xlink:href="#DejaVuSans-6c" x="117.859375"/>
      <use xlink:href="#DejaVuSans-69" x="145.642578"/>
      <use xlink:href="#DejaVuSans-63" x="173.425781"/>
      <use xlink:href="#DejaVuSans-79" x="228.40625"/>
      <use xlink:href="#DejaVuSans-20" x="287.585938"/>
      <use xlink:href="#DejaVuSans-76" x="319.373047"/>
      <use xlink:href="#DejaVuSans-61" x="378.552734"/>
      <use xlink:href="#DejaVuSans-6c" x="439.832031"/>
      <use xlink:href="#DejaVuSans-75" x="467.615234"/>
      <use xlink:href="#DejaVuSans-65" x="530.994141"/>
      <use xlink:href="#DejaVuSans-20" x="592.517578"/>
      <use xlink:href="#DejaVuSans-65" x="624.304688"/>
      <use xlink:href="#DejaVuSans-72" x="685.828125"/>
      <use xlink:href="#DejaVuSans-72" x="725.191406"/>
      <use xlink:href="#DejaVuSans-6f" x="764.054688"/>
      <use xlink:href="#DejaVuSans-72" x="825.236328"/>
     </g>
    </g>
   </g>
   <g id="line2d_29">
    <path d="M 69.218182 252.413634 
L 74.376888 254.326457 
L 79.535593 252.72879 
L 84.694299 249.655611 
L 89.853005 232.439235 
L 95.01171 223.27947 
L 100.170416 252.659611 
L 105.329122 201.350855 
L 110.487827 189.955715 
L 115.646533 187.37981 
L 120.805239 180.806902 
L 125.963945 170.230256 
L 131.12265 168.819495 
L 136.281356 168.355455 
L 141.440062 167.241931 
L 146.598767 169.496391 
L 151.757473 168.296942 
L 156.916179 168.441711 
L 162.074884 170.43586 
L 167.23359 173.389761 
L 172.392296 166.915093 
L 177.551002 166.365648 
L 182.709707 166.365648 
L 187.868413 166.365648 
L 193.027119 166.365648 
L 198.185824 166.7791 
L 203.34453 165.897114 
L 208.503236 166.109326 
L 213.661941 168.287071 
L 218.820647 165.922738 
L 223.979353 165.922738 
L 229.138059 165.922738 
L 234.296764 165.873499 
L 239.45547 165.873499 
L 244.614176 165.873499 
L 249.772881 165.873499 
L 254.931587 165.904956 
L 260.090293 165.528316 
L 265.248998 165.528316 
L 270.407704 166.02921 
L 275.56641 166.02921 
L 280.725116 166.828167 
L 285.883821 166.02921 
L 291.042527 166.02921 
L 296.201233 166.228612 
L 301.359938 166.228612 
L 306.518644 166.228612 
L 311.67735 166.228612 
L 316.836055 166.281114 
L 321.994761 166.281114 
L 327.153467 166.281114 
L 332.312173 166.281114 
L 337.470878 166.438508 
L 342.629584 166.438508 
L 347.78829 166.438508 
L 352.946995 166.438508 
L 358.105701 166.438508 
L 363.264407 166.438508 
L 368.423112 166.438508 
L 373.581818 166.438508 
" clip-path="url(#p9359a7a433)" style="fill: none; stroke: #9d02d7; stroke-width: 1.5; stroke-linecap: square"/>
    <defs>
     <path id="m8b00573dfe" d="M 0 -2 
L -2 2 
L 2 2 
z
" style="stroke: #9d02d7; stroke-linejoin: miter"/>
    </defs>
    <g clip-path="url(#p9359a7a433)">
     <use xlink:href="#m8b00573dfe" x="69.218182" y="252.413634" style="fill: #9d02d7; stroke: #9d02d7; stroke-linejoin: miter"/>
     <use xlink:href="#m8b00573dfe" x="74.376888" y="254.326457" style="fill: #9d02d7; stroke: #9d02d7; stroke-linejoin: miter"/>
     <use xlink:href="#m8b00573dfe" x="79.535593" y="252.72879" style="fill: #9d02d7; stroke: #9d02d7; stroke-linejoin: miter"/>
     <use xlink:href="#m8b00573dfe" x="84.694299" y="249.655611" style="fill: #9d02d7; stroke: #9d02d7; stroke-linejoin: miter"/>
     <use xlink:href="#m8b00573dfe" x="89.853005" y="232.439235" style="fill: #9d02d7; stroke: #9d02d7; stroke-linejoin: miter"/>
     <use xlink:href="#m8b00573dfe" x="95.01171" y="223.27947" style="fill: #9d02d7; stroke: #9d02d7; stroke-linejoin: miter"/>
     <use xlink:href="#m8b00573dfe" x="100.170416" y="252.659611" style="fill: #9d02d7; stroke: #9d02d7; stroke-linejoin: miter"/>
     <use xlink:href="#m8b00573dfe" x="105.329122" y="201.350855" style="fill: #9d02d7; stroke: #9d02d7; stroke-linejoin: miter"/>
     <use xlink:href="#m8b00573dfe" x="110.487827" y="189.955715" style="fill: #9d02d7; stroke: #9d02d7; stroke-linejoin: miter"/>
     <use xlink:href="#m8b00573dfe" x="115.646533" y="187.37981" style="fill: #9d02d7; stroke: #9d02d7; stroke-linejoin: miter"/>
     <use xlink:href="#m8b00573dfe" x="120.805239" y="180.806902" style="fill: #9d02d7; stroke: #9d02d7; stroke-linejoin: miter"/>
     <use xlink:href="#m8b00573dfe" x="125.963945" y="170.230256" style="fill: #9d02d7; stroke: #9d02d7; stroke-linejoin: miter"/>
     <use xlink:href="#m8b00573dfe" x="131.12265" y="168.819495" style="fill: #9d02d7; stroke: #9d02d7; stroke-linejoin: miter"/>
     <use xlink:href="#m8b00573dfe" x="136.281356" y="168.355455" style="fill: #9d02d7; stroke: #9d02d7; stroke-linejoin: miter"/>
     <use xlink:href="#m8b00573dfe" x="141.440062" y="167.241931" style="fill: #9d02d7; stroke: #9d02d7; stroke-linejoin: miter"/>
     <use xlink:href="#m8b00573dfe" x="146.598767" y="169.496391" style="fill: #9d02d7; stroke: #9d02d7; stroke-linejoin: miter"/>
     <use xlink:href="#m8b00573dfe" x="151.757473" y="168.296942" style="fill: #9d02d7; stroke: #9d02d7; stroke-linejoin: miter"/>
     <use xlink:href="#m8b00573dfe" x="156.916179" y="168.441711" style="fill: #9d02d7; stroke: #9d02d7; stroke-linejoin: miter"/>
     <use xlink:href="#m8b00573dfe" x="162.074884" y="170.43586" style="fill: #9d02d7; stroke: #9d02d7; stroke-linejoin: miter"/>
     <use xlink:href="#m8b00573dfe" x="167.23359" y="173.389761" style="fill: #9d02d7; stroke: #9d02d7; stroke-linejoin: miter"/>
     <use xlink:href="#m8b00573dfe" x="172.392296" y="166.915093" style="fill: #9d02d7; stroke: #9d02d7; stroke-linejoin: miter"/>
     <use xlink:href="#m8b00573dfe" x="177.551002" y="166.365648" style="fill: #9d02d7; stroke: #9d02d7; stroke-linejoin: miter"/>
     <use xlink:href="#m8b00573dfe" x="182.709707" y="166.365648" style="fill: #9d02d7; stroke: #9d02d7; stroke-linejoin: miter"/>
     <use xlink:href="#m8b00573dfe" x="187.868413" y="166.365648" style="fill: #9d02d7; stroke: #9d02d7; stroke-linejoin: miter"/>
     <use xlink:href="#m8b00573dfe" x="193.027119" y="166.365648" style="fill: #9d02d7; stroke: #9d02d7; stroke-linejoin: miter"/>
     <use xlink:href="#m8b00573dfe" x="198.185824" y="166.7791" style="fill: #9d02d7; stroke: #9d02d7; stroke-linejoin: miter"/>
     <use xlink:href="#m8b00573dfe" x="203.34453" y="165.897114" style="fill: #9d02d7; stroke: #9d02d7; stroke-linejoin: miter"/>
     <use xlink:href="#m8b00573dfe" x="208.503236" y="166.109326" style="fill: #9d02d7; stroke: #9d02d7; stroke-linejoin: miter"/>
     <use xlink:href="#m8b00573dfe" x="213.661941" y="168.287071" style="fill: #9d02d7; stroke: #9d02d7; stroke-linejoin: miter"/>
     <use xlink:href="#m8b00573dfe" x="218.820647" y="165.922738" style="fill: #9d02d7; stroke: #9d02d7; stroke-linejoin: miter"/>
     <use xlink:href="#m8b00573dfe" x="223.979353" y="165.922738" style="fill: #9d02d7; stroke: #9d02d7; stroke-linejoin: miter"/>
     <use xlink:href="#m8b00573dfe" x="229.138059" y="165.922738" style="fill: #9d02d7; stroke: #9d02d7; stroke-linejoin: miter"/>
     <use xlink:href="#m8b00573dfe" x="234.296764" y="165.873499" style="fill: #9d02d7; stroke: #9d02d7; stroke-linejoin: miter"/>
     <use xlink:href="#m8b00573dfe" x="239.45547" y="165.873499" style="fill: #9d02d7; stroke: #9d02d7; stroke-linejoin: miter"/>
     <use xlink:href="#m8b00573dfe" x="244.614176" y="165.873499" style="fill: #9d02d7; stroke: #9d02d7; stroke-linejoin: miter"/>
     <use xlink:href="#m8b00573dfe" x="249.772881" y="165.873499" style="fill: #9d02d7; stroke: #9d02d7; stroke-linejoin: miter"/>
     <use xlink:href="#m8b00573dfe" x="254.931587" y="165.904956" style="fill: #9d02d7; stroke: #9d02d7; stroke-linejoin: miter"/>
     <use xlink:href="#m8b00573dfe" x="260.090293" y="165.528316" style="fill: #9d02d7; stroke: #9d02d7; stroke-linejoin: miter"/>
     <use xlink:href="#m8b00573dfe" x="265.248998" y="165.528316" style="fill: #9d02d7; stroke: #9d02d7; stroke-linejoin: miter"/>
     <use xlink:href="#m8b00573dfe" x="270.407704" y="166.02921" style="fill: #9d02d7; stroke: #9d02d7; stroke-linejoin: miter"/>
     <use xlink:href="#m8b00573dfe" x="275.56641" y="166.02921" style="fill: #9d02d7; stroke: #9d02d7; stroke-linejoin: miter"/>
     <use xlink:href="#m8b00573dfe" x="280.725116" y="166.828167" style="fill: #9d02d7; stroke: #9d02d7; stroke-linejoin: miter"/>
     <use xlink:href="#m8b00573dfe" x="285.883821" y="166.02921" style="fill: #9d02d7; stroke: #9d02d7; stroke-linejoin: miter"/>
     <use xlink:href="#m8b00573dfe" x="291.042527" y="166.02921" style="fill: #9d02d7; stroke: #9d02d7; stroke-linejoin: miter"/>
     <use xlink:href="#m8b00573dfe" x="296.201233" y="166.228612" style="fill: #9d02d7; stroke: #9d02d7; stroke-linejoin: miter"/>
     <use xlink:href="#m8b00573dfe" x="301.359938" y="166.228612" style="fill: #9d02d7; stroke: #9d02d7; stroke-linejoin: miter"/>
     <use xlink:href="#m8b00573dfe" x="306.518644" y="166.228612" style="fill: #9d02d7; stroke: #9d02d7; stroke-linejoin: miter"/>
     <use xlink:href="#m8b00573dfe" x="311.67735" y="166.228612" style="fill: #9d02d7; stroke: #9d02d7; stroke-linejoin: miter"/>
     <use xlink:href="#m8b00573dfe" x="316.836055" y="166.281114" style="fill: #9d02d7; stroke: #9d02d7; stroke-linejoin: miter"/>
     <use xlink:href="#m8b00573dfe" x="321.994761" y="166.281114" style="fill: #9d02d7; stroke: #9d02d7; stroke-linejoin: miter"/>
     <use xlink:href="#m8b00573dfe" x="327.153467" y="166.281114" style="fill: #9d02d7; stroke: #9d02d7; stroke-linejoin: miter"/>
     <use xlink:href="#m8b00573dfe" x="332.312173" y="166.281114" style="fill: #9d02d7; stroke: #9d02d7; stroke-linejoin: miter"/>
     <use xlink:href="#m8b00573dfe" x="337.470878" y="166.438508" style="fill: #9d02d7; stroke: #9d02d7; stroke-linejoin: miter"/>
     <use xlink:href="#m8b00573dfe" x="342.629584" y="166.438508" style="fill: #9d02d7; stroke: #9d02d7; stroke-linejoin: miter"/>
     <use xlink:href="#m8b00573dfe" x="347.78829" y="166.438508" style="fill: #9d02d7; stroke: #9d02d7; stroke-linejoin: miter"/>
     <use xlink:href="#m8b00573dfe" x="352.946995" y="166.438508" style="fill: #9d02d7; stroke: #9d02d7; stroke-linejoin: miter"/>
     <use xlink:href="#m8b00573dfe" x="358.105701" y="166.438508" style="fill: #9d02d7; stroke: #9d02d7; stroke-linejoin: miter"/>
     <use xlink:href="#m8b00573dfe" x="363.264407" y="166.438508" style="fill: #9d02d7; stroke: #9d02d7; stroke-linejoin: miter"/>
     <use xlink:href="#m8b00573dfe" x="368.423112" y="166.438508" style="fill: #9d02d7; stroke: #9d02d7; stroke-linejoin: miter"/>
     <use xlink:href="#m8b00573dfe" x="373.581818" y="166.438508" style="fill: #9d02d7; stroke: #9d02d7; stroke-linejoin: miter"/>
    </g>
   </g>
   <g id="line2d_30">
    <path d="M 69.218182 254.863539 
L 74.376888 254.440315 
L 79.535593 252.650417 
L 84.694299 251.872551 
L 89.853005 252.895728 
L 95.01171 251.313538 
L 100.170416 249.259427 
L 105.329122 235.597906 
L 110.487827 235.762651 
L 115.646533 229.383338 
L 120.805239 229.791324 
L 125.963945 229.311982 
L 131.12265 227.782246 
L 136.281356 226.579974 
L 141.440062 220.005697 
L 146.598767 216.343818 
L 151.757473 214.941326 
L 156.916179 214.286943 
L 162.074884 214.509376 
L 167.23359 214.286943 
L 172.392296 214.509376 
L 177.551002 213.572199 
L 182.709707 214.286943 
L 187.868413 214.509376 
L 193.027119 214.509376 
L 198.185824 214.35048 
L 203.34453 213.887462 
L 208.503236 213.887462 
L 213.661941 215.126432 
L 218.820647 214.941326 
L 223.979353 215.240977 
L 229.138059 214.71759 
L 234.296764 214.71759 
L 239.45547 214.834158 
L 244.614176 215.081427 
L 249.772881 214.834158 
L 254.931587 214.834158 
L 260.090293 214.834158 
L 265.248998 214.834158 
L 270.407704 214.834158 
L 275.56641 214.834158 
L 280.725116 214.834158 
L 285.883821 214.834158 
L 291.042527 213.913093 
L 296.201233 218.472849 
L 301.359938 213.209595 
L 306.518644 216.855985 
L 311.67735 214.130061 
L 316.836055 214.130061 
L 321.994761 218.083492 
L 327.153467 214.244045 
L 332.312173 214.244045 
L 337.470878 214.244045 
L 342.629584 214.130061 
L 347.78829 214.130061 
L 352.946995 214.130061 
L 358.105701 214.130061 
L 363.264407 214.130061 
L 368.423112 214.130061 
L 373.581818 214.130061 
" clip-path="url(#p9359a7a433)" style="fill: none; stroke: #0000ff; stroke-width: 1.5; stroke-linecap: square"/>
    <defs>
     <path id="ma0474e9606" d="M 0 2 
C 0.530406 2 1.03916 1.789267 1.414214 1.414214 
C 1.789267 1.03916 2 0.530406 2 0 
C 2 -0.530406 1.789267 -1.03916 1.414214 -1.414214 
C 1.03916 -1.789267 0.530406 -2 0 -2 
C -0.530406 -2 -1.03916 -1.789267 -1.414214 -1.414214 
C -1.789267 -1.03916 -2 -0.530406 -2 0 
C -2 0.530406 -1.789267 1.03916 -1.414214 1.414214 
C -1.03916 1.789267 -0.530406 2 0 2 
z
" style="stroke: #0000ff"/>
    </defs>
    <g clip-path="url(#p9359a7a433)">
     <use xlink:href="#ma0474e9606" x="69.218182" y="254.863539" style="fill: #0000ff; stroke: #0000ff"/>
     <use xlink:href="#ma0474e9606" x="74.376888" y="254.440315" style="fill: #0000ff; stroke: #0000ff"/>
     <use xlink:href="#ma0474e9606" x="79.535593" y="252.650417" style="fill: #0000ff; stroke: #0000ff"/>
     <use xlink:href="#ma0474e9606" x="84.694299" y="251.872551" style="fill: #0000ff; stroke: #0000ff"/>
     <use xlink:href="#ma0474e9606" x="89.853005" y="252.895728" style="fill: #0000ff; stroke: #0000ff"/>
     <use xlink:href="#ma0474e9606" x="95.01171" y="251.313538" style="fill: #0000ff; stroke: #0000ff"/>
     <use xlink:href="#ma0474e9606" x="100.170416" y="249.259427" style="fill: #0000ff; stroke: #0000ff"/>
     <use xlink:href="#ma0474e9606" x="105.329122" y="235.597906" style="fill: #0000ff; stroke: #0000ff"/>
     <use xlink:href="#ma0474e9606" x="110.487827" y="235.762651" style="fill: #0000ff; stroke: #0000ff"/>
     <use xlink:href="#ma0474e9606" x="115.646533" y="229.383338" style="fill: #0000ff; stroke: #0000ff"/>
     <use xlink:href="#ma0474e9606" x="120.805239" y="229.791324" style="fill: #0000ff; stroke: #0000ff"/>
     <use xlink:href="#ma0474e9606" x="125.963945" y="229.311982" style="fill: #0000ff; stroke: #0000ff"/>
     <use xlink:href="#ma0474e9606" x="131.12265" y="227.782246" style="fill: #0000ff; stroke: #0000ff"/>
     <use xlink:href="#ma0474e9606" x="136.281356" y="226.579974" style="fill: #0000ff; stroke: #0000ff"/>
     <use xlink:href="#ma0474e9606" x="141.440062" y="220.005697" style="fill: #0000ff; stroke: #0000ff"/>
     <use xlink:href="#ma0474e9606" x="146.598767" y="216.343818" style="fill: #0000ff; stroke: #0000ff"/>
     <use xlink:href="#ma0474e9606" x="151.757473" y="214.941326" style="fill: #0000ff; stroke: #0000ff"/>
     <use xlink:href="#ma0474e9606" x="156.916179" y="214.286943" style="fill: #0000ff; stroke: #0000ff"/>
     <use xlink:href="#ma0474e9606" x="162.074884" y="214.509376" style="fill: #0000ff; stroke: #0000ff"/>
     <use xlink:href="#ma0474e9606" x="167.23359" y="214.286943" style="fill: #0000ff; stroke: #0000ff"/>
     <use xlink:href="#ma0474e9606" x="172.392296" y="214.509376" style="fill: #0000ff; stroke: #0000ff"/>
     <use xlink:href="#ma0474e9606" x="177.551002" y="213.572199" style="fill: #0000ff; stroke: #0000ff"/>
     <use xlink:href="#ma0474e9606" x="182.709707" y="214.286943" style="fill: #0000ff; stroke: #0000ff"/>
     <use xlink:href="#ma0474e9606" x="187.868413" y="214.509376" style="fill: #0000ff; stroke: #0000ff"/>
     <use xlink:href="#ma0474e9606" x="193.027119" y="214.509376" style="fill: #0000ff; stroke: #0000ff"/>
     <use xlink:href="#ma0474e9606" x="198.185824" y="214.35048" style="fill: #0000ff; stroke: #0000ff"/>
     <use xlink:href="#ma0474e9606" x="203.34453" y="213.887462" style="fill: #0000ff; stroke: #0000ff"/>
     <use xlink:href="#ma0474e9606" x="208.503236" y="213.887462" style="fill: #0000ff; stroke: #0000ff"/>
     <use xlink:href="#ma0474e9606" x="213.661941" y="215.126432" style="fill: #0000ff; stroke: #0000ff"/>
     <use xlink:href="#ma0474e9606" x="218.820647" y="214.941326" style="fill: #0000ff; stroke: #0000ff"/>
     <use xlink:href="#ma0474e9606" x="223.979353" y="215.240977" style="fill: #0000ff; stroke: #0000ff"/>
     <use xlink:href="#ma0474e9606" x="229.138059" y="214.71759" style="fill: #0000ff; stroke: #0000ff"/>
     <use xlink:href="#ma0474e9606" x="234.296764" y="214.71759" style="fill: #0000ff; stroke: #0000ff"/>
     <use xlink:href="#ma0474e9606" x="239.45547" y="214.834158" style="fill: #0000ff; stroke: #0000ff"/>
     <use xlink:href="#ma0474e9606" x="244.614176" y="215.081427" style="fill: #0000ff; stroke: #0000ff"/>
     <use xlink:href="#ma0474e9606" x="249.772881" y="214.834158" style="fill: #0000ff; stroke: #0000ff"/>
     <use xlink:href="#ma0474e9606" x="254.931587" y="214.834158" style="fill: #0000ff; stroke: #0000ff"/>
     <use xlink:href="#ma0474e9606" x="260.090293" y="214.834158" style="fill: #0000ff; stroke: #0000ff"/>
     <use xlink:href="#ma0474e9606" x="265.248998" y="214.834158" style="fill: #0000ff; stroke: #0000ff"/>
     <use xlink:href="#ma0474e9606" x="270.407704" y="214.834158" style="fill: #0000ff; stroke: #0000ff"/>
     <use xlink:href="#ma0474e9606" x="275.56641" y="214.834158" style="fill: #0000ff; stroke: #0000ff"/>
     <use xlink:href="#ma0474e9606" x="280.725116" y="214.834158" style="fill: #0000ff; stroke: #0000ff"/>
     <use xlink:href="#ma0474e9606" x="285.883821" y="214.834158" style="fill: #0000ff; stroke: #0000ff"/>
     <use xlink:href="#ma0474e9606" x="291.042527" y="213.913093" style="fill: #0000ff; stroke: #0000ff"/>
     <use xlink:href="#ma0474e9606" x="296.201233" y="218.472849" style="fill: #0000ff; stroke: #0000ff"/>
     <use xlink:href="#ma0474e9606" x="301.359938" y="213.209595" style="fill: #0000ff; stroke: #0000ff"/>
     <use xlink:href="#ma0474e9606" x="306.518644" y="216.855985" style="fill: #0000ff; stroke: #0000ff"/>
     <use xlink:href="#ma0474e9606" x="311.67735" y="214.130061" style="fill: #0000ff; stroke: #0000ff"/>
     <use xlink:href="#ma0474e9606" x="316.836055" y="214.130061" style="fill: #0000ff; stroke: #0000ff"/>
     <use xlink:href="#ma0474e9606" x="321.994761" y="218.083492" style="fill: #0000ff; stroke: #0000ff"/>
     <use xlink:href="#ma0474e9606" x="327.153467" y="214.244045" style="fill: #0000ff; stroke: #0000ff"/>
     <use xlink:href="#ma0474e9606" x="332.312173" y="214.244045" style="fill: #0000ff; stroke: #0000ff"/>
     <use xlink:href="#ma0474e9606" x="337.470878" y="214.244045" style="fill: #0000ff; stroke: #0000ff"/>
     <use xlink:href="#ma0474e9606" x="342.629584" y="214.130061" style="fill: #0000ff; stroke: #0000ff"/>
     <use xlink:href="#ma0474e9606" x="347.78829" y="214.130061" style="fill: #0000ff; stroke: #0000ff"/>
     <use xlink:href="#ma0474e9606" x="352.946995" y="214.130061" style="fill: #0000ff; stroke: #0000ff"/>
     <use xlink:href="#ma0474e9606" x="358.105701" y="214.130061" style="fill: #0000ff; stroke: #0000ff"/>
     <use xlink:href="#ma0474e9606" x="363.264407" y="214.130061" style="fill: #0000ff; stroke: #0000ff"/>
     <use xlink:href="#ma0474e9606" x="368.423112" y="214.130061" style="fill: #0000ff; stroke: #0000ff"/>
     <use xlink:href="#ma0474e9606" x="373.581818" y="214.130061" style="fill: #0000ff; stroke: #0000ff"/>
    </g>
   </g>
   <g id="line2d_31">
    <path d="M 69.218182 254.958357 
L 74.376888 255.755974 
L 79.535593 255.128328 
L 84.694299 253.995727 
L 89.853005 254.539636 
L 95.01171 254.718567 
L 100.170416 254.941467 
L 105.329122 254.389623 
L 110.487827 254.174941 
L 115.646533 251.718336 
L 120.805239 250.288388 
L 125.963945 251.485307 
L 131.12265 249.104103 
L 136.281356 249.540921 
L 141.440062 249.795635 
L 146.598767 245.999363 
L 151.757473 245.439816 
L 156.916179 245.182357 
L 162.074884 245.61438 
L 167.23359 245.358514 
L 172.392296 245.139141 
L 177.551002 244.758598 
L 182.709707 244.82988 
L 187.868413 245.275582 
L 193.027119 244.7031 
L 198.185824 246.309355 
L 203.34453 245.015986 
L 208.503236 244.80424 
L 213.661941 244.332023 
L 218.820647 244.80424 
L 223.979353 244.332023 
L 229.138059 244.76745 
L 234.296764 244.76745 
L 239.45547 246.310653 
L 244.614176 246.119643 
L 249.772881 244.949146 
L 254.931587 245.105687 
L 260.090293 245.105687 
L 265.248998 244.80424 
L 270.407704 245.105687 
L 275.56641 244.80424 
L 280.725116 245.105687 
L 285.883821 245.105687 
L 291.042527 245.105687 
L 296.201233 244.693548 
L 301.359938 244.693548 
L 306.518644 245.105687 
L 311.67735 245.105687 
L 316.836055 245.237372 
L 321.994761 245.76159 
L 327.153467 245.76159 
L 332.312173 245.105687 
L 337.470878 245.179601 
L 342.629584 245.179601 
L 347.78829 245.179601 
L 352.946995 245.179601 
L 358.105701 245.179601 
L 363.264407 245.483811 
L 368.423112 245.827932 
L 373.581818 245.483811 
" clip-path="url(#p9359a7a433)" style="fill: none; stroke: #ff7763; stroke-width: 1.5; stroke-linecap: square"/>
    <defs>
     <path id="m64d0989fbd" d="M -2 2 
L 2 -2 
M -2 -2 
L 2 2 
" style="stroke: #ff7763"/>
    </defs>
    <g clip-path="url(#p9359a7a433)">
     <use xlink:href="#m64d0989fbd" x="69.218182" y="254.958357" style="fill: #ff7763; stroke: #ff7763"/>
     <use xlink:href="#m64d0989fbd" x="74.376888" y="255.755974" style="fill: #ff7763; stroke: #ff7763"/>
     <use xlink:href="#m64d0989fbd" x="79.535593" y="255.128328" style="fill: #ff7763; stroke: #ff7763"/>
     <use xlink:href="#m64d0989fbd" x="84.694299" y="253.995727" style="fill: #ff7763; stroke: #ff7763"/>
     <use xlink:href="#m64d0989fbd" x="89.853005" y="254.539636" style="fill: #ff7763; stroke: #ff7763"/>
     <use xlink:href="#m64d0989fbd" x="95.01171" y="254.718567" style="fill: #ff7763; stroke: #ff7763"/>
     <use xlink:href="#m64d0989fbd" x="100.170416" y="254.941467" style="fill: #ff7763; stroke: #ff7763"/>
     <use xlink:href="#m64d0989fbd" x="105.329122" y="254.389623" style="fill: #ff7763; stroke: #ff7763"/>
     <use xlink:href="#m64d0989fbd" x="110.487827" y="254.174941" style="fill: #ff7763; stroke: #ff7763"/>
     <use xlink:href="#m64d0989fbd" x="115.646533" y="251.718336" style="fill: #ff7763; stroke: #ff7763"/>
     <use xlink:href="#m64d0989fbd" x="120.805239" y="250.288388" style="fill: #ff7763; stroke: #ff7763"/>
     <use xlink:href="#m64d0989fbd" x="125.963945" y="251.485307" style="fill: #ff7763; stroke: #ff7763"/>
     <use xlink:href="#m64d0989fbd" x="131.12265" y="249.104103" style="fill: #ff7763; stroke: #ff7763"/>
     <use xlink:href="#m64d0989fbd" x="136.281356" y="249.540921" style="fill: #ff7763; stroke: #ff7763"/>
     <use xlink:href="#m64d0989fbd" x="141.440062" y="249.795635" style="fill: #ff7763; stroke: #ff7763"/>
     <use xlink:href="#m64d0989fbd" x="146.598767" y="245.999363" style="fill: #ff7763; stroke: #ff7763"/>
     <use xlink:href="#m64d0989fbd" x="151.757473" y="245.439816" style="fill: #ff7763; stroke: #ff7763"/>
     <use xlink:href="#m64d0989fbd" x="156.916179" y="245.182357" style="fill: #ff7763; stroke: #ff7763"/>
     <use xlink:href="#m64d0989fbd" x="162.074884" y="245.61438" style="fill: #ff7763; stroke: #ff7763"/>
     <use xlink:href="#m64d0989fbd" x="167.23359" y="245.358514" style="fill: #ff7763; stroke: #ff7763"/>
     <use xlink:href="#m64d0989fbd" x="172.392296" y="245.139141" style="fill: #ff7763; stroke: #ff7763"/>
     <use xlink:href="#m64d0989fbd" x="177.551002" y="244.758598" style="fill: #ff7763; stroke: #ff7763"/>
     <use xlink:href="#m64d0989fbd" x="182.709707" y="244.82988" style="fill: #ff7763; stroke: #ff7763"/>
     <use xlink:href="#m64d0989fbd" x="187.868413" y="245.275582" style="fill: #ff7763; stroke: #ff7763"/>
     <use xlink:href="#m64d0989fbd" x="193.027119" y="244.7031" style="fill: #ff7763; stroke: #ff7763"/>
     <use xlink:href="#m64d0989fbd" x="198.185824" y="246.309355" style="fill: #ff7763; stroke: #ff7763"/>
     <use xlink:href="#m64d0989fbd" x="203.34453" y="245.015986" style="fill: #ff7763; stroke: #ff7763"/>
     <use xlink:href="#m64d0989fbd" x="208.503236" y="244.80424" style="fill: #ff7763; stroke: #ff7763"/>
     <use xlink:href="#m64d0989fbd" x="213.661941" y="244.332023" style="fill: #ff7763; stroke: #ff7763"/>
     <use xlink:href="#m64d0989fbd" x="218.820647" y="244.80424" style="fill: #ff7763; stroke: #ff7763"/>
     <use xlink:href="#m64d0989fbd" x="223.979353" y="244.332023" style="fill: #ff7763; stroke: #ff7763"/>
     <use xlink:href="#m64d0989fbd" x="229.138059" y="244.76745" style="fill: #ff7763; stroke: #ff7763"/>
     <use xlink:href="#m64d0989fbd" x="234.296764" y="244.76745" style="fill: #ff7763; stroke: #ff7763"/>
     <use xlink:href="#m64d0989fbd" x="239.45547" y="246.310653" style="fill: #ff7763; stroke: #ff7763"/>
     <use xlink:href="#m64d0989fbd" x="244.614176" y="246.119643" style="fill: #ff7763; stroke: #ff7763"/>
     <use xlink:href="#m64d0989fbd" x="249.772881" y="244.949146" style="fill: #ff7763; stroke: #ff7763"/>
     <use xlink:href="#m64d0989fbd" x="254.931587" y="245.105687" style="fill: #ff7763; stroke: #ff7763"/>
     <use xlink:href="#m64d0989fbd" x="260.090293" y="245.105687" style="fill: #ff7763; stroke: #ff7763"/>
     <use xlink:href="#m64d0989fbd" x="265.248998" y="244.80424" style="fill: #ff7763; stroke: #ff7763"/>
     <use xlink:href="#m64d0989fbd" x="270.407704" y="245.105687" style="fill: #ff7763; stroke: #ff7763"/>
     <use xlink:href="#m64d0989fbd" x="275.56641" y="244.80424" style="fill: #ff7763; stroke: #ff7763"/>
     <use xlink:href="#m64d0989fbd" x="280.725116" y="245.105687" style="fill: #ff7763; stroke: #ff7763"/>
     <use xlink:href="#m64d0989fbd" x="285.883821" y="245.105687" style="fill: #ff7763; stroke: #ff7763"/>
     <use xlink:href="#m64d0989fbd" x="291.042527" y="245.105687" style="fill: #ff7763; stroke: #ff7763"/>
     <use xlink:href="#m64d0989fbd" x="296.201233" y="244.693548" style="fill: #ff7763; stroke: #ff7763"/>
     <use xlink:href="#m64d0989fbd" x="301.359938" y="244.693548" style="fill: #ff7763; stroke: #ff7763"/>
     <use xlink:href="#m64d0989fbd" x="306.518644" y="245.105687" style="fill: #ff7763; stroke: #ff7763"/>
     <use xlink:href="#m64d0989fbd" x="311.67735" y="245.105687" style="fill: #ff7763; stroke: #ff7763"/>
     <use xlink:href="#m64d0989fbd" x="316.836055" y="245.237372" style="fill: #ff7763; stroke: #ff7763"/>
     <use xlink:href="#m64d0989fbd" x="321.994761" y="245.76159" style="fill: #ff7763; stroke: #ff7763"/>
     <use xlink:href="#m64d0989fbd" x="327.153467" y="245.76159" style="fill: #ff7763; stroke: #ff7763"/>
     <use xlink:href="#m64d0989fbd" x="332.312173" y="245.105687" style="fill: #ff7763; stroke: #ff7763"/>
     <use xlink:href="#m64d0989fbd" x="337.470878" y="245.179601" style="fill: #ff7763; stroke: #ff7763"/>
     <use xlink:href="#m64d0989fbd" x="342.629584" y="245.179601" style="fill: #ff7763; stroke: #ff7763"/>
     <use xlink:href="#m64d0989fbd" x="347.78829" y="245.179601" style="fill: #ff7763; stroke: #ff7763"/>
     <use xlink:href="#m64d0989fbd" x="352.946995" y="245.179601" style="fill: #ff7763; stroke: #ff7763"/>
     <use xlink:href="#m64d0989fbd" x="358.105701" y="245.179601" style="fill: #ff7763; stroke: #ff7763"/>
     <use xlink:href="#m64d0989fbd" x="363.264407" y="245.483811" style="fill: #ff7763; stroke: #ff7763"/>
     <use xlink:href="#m64d0989fbd" x="368.423112" y="245.827932" style="fill: #ff7763; stroke: #ff7763"/>
     <use xlink:href="#m64d0989fbd" x="373.581818" y="245.483811" style="fill: #ff7763; stroke: #ff7763"/>
    </g>
   </g>
   <g id="line2d_32">
    <path d="M 69.218182 255.226419 
L 74.376888 255.226419 
L 79.535593 255.226419 
L 84.694299 255.226419 
L 89.853005 255.226419 
L 95.01171 255.226419 
L 100.170416 255.226419 
L 105.329122 255.226419 
L 110.487827 255.226419 
L 115.646533 255.226419 
L 120.805239 255.226419 
L 125.963945 255.226419 
L 131.12265 255.226419 
L 136.281356 255.226419 
L 141.440062 255.226419 
L 146.598767 255.226419 
L 151.757473 255.226419 
L 156.916179 255.226419 
L 162.074884 255.226419 
L 167.23359 255.226419 
L 172.392296 255.226419 
L 177.551002 255.226419 
L 182.709707 255.226419 
L 187.868413 255.226419 
L 193.027119 255.226419 
L 198.185824 255.226419 
L 203.34453 255.226419 
L 208.503236 255.226419 
L 213.661941 255.226419 
L 218.820647 255.226419 
L 223.979353 255.226419 
L 229.138059 255.226419 
L 234.296764 255.226419 
L 239.45547 255.226419 
L 244.614176 255.226419 
L 249.772881 255.226419 
L 254.931587 255.226419 
L 260.090293 255.226419 
L 265.248998 255.226419 
L 270.407704 255.226419 
L 275.56641 255.226419 
L 280.725116 255.226419 
L 285.883821 255.226419 
L 291.042527 255.226419 
L 296.201233 255.226419 
L 301.359938 255.226419 
L 306.518644 255.226419 
L 311.67735 255.226419 
L 316.836055 255.226419 
L 321.994761 255.226419 
L 327.153467 255.226419 
L 332.312173 255.226419 
L 337.470878 255.226419 
L 342.629584 255.226419 
L 347.78829 255.226419 
L 352.946995 255.226419 
L 358.105701 255.226419 
L 363.264407 255.226419 
L 368.423112 255.226419 
L 373.581818 255.226419 
" clip-path="url(#p9359a7a433)" style="fill: none; stroke: #ffac1e; stroke-width: 1.5; stroke-linecap: square"/>
    <defs>
     <path id="m0ba1852326" d="M 0 -2 
L -0.449028 -0.618034 
L -1.902113 -0.618034 
L -0.726543 0.236068 
L -1.175571 1.618034 
L -0 0.763932 
L 1.175571 1.618034 
L 0.726543 0.236068 
L 1.902113 -0.618034 
L 0.449028 -0.618034 
z
" style="stroke: #ffac1e; stroke-linejoin: bevel"/>
    </defs>
    <g clip-path="url(#p9359a7a433)">
     <use xlink:href="#m0ba1852326" x="69.218182" y="255.226419" style="fill: #ffac1e; stroke: #ffac1e; stroke-linejoin: bevel"/>
     <use xlink:href="#m0ba1852326" x="74.376888" y="255.226419" style="fill: #ffac1e; stroke: #ffac1e; stroke-linejoin: bevel"/>
     <use xlink:href="#m0ba1852326" x="79.535593" y="255.226419" style="fill: #ffac1e; stroke: #ffac1e; stroke-linejoin: bevel"/>
     <use xlink:href="#m0ba1852326" x="84.694299" y="255.226419" style="fill: #ffac1e; stroke: #ffac1e; stroke-linejoin: bevel"/>
     <use xlink:href="#m0ba1852326" x="89.853005" y="255.226419" style="fill: #ffac1e; stroke: #ffac1e; stroke-linejoin: bevel"/>
     <use xlink:href="#m0ba1852326" x="95.01171" y="255.226419" style="fill: #ffac1e; stroke: #ffac1e; stroke-linejoin: bevel"/>
     <use xlink:href="#m0ba1852326" x="100.170416" y="255.226419" style="fill: #ffac1e; stroke: #ffac1e; stroke-linejoin: bevel"/>
     <use xlink:href="#m0ba1852326" x="105.329122" y="255.226419" style="fill: #ffac1e; stroke: #ffac1e; stroke-linejoin: bevel"/>
     <use xlink:href="#m0ba1852326" x="110.487827" y="255.226419" style="fill: #ffac1e; stroke: #ffac1e; stroke-linejoin: bevel"/>
     <use xlink:href="#m0ba1852326" x="115.646533" y="255.226419" style="fill: #ffac1e; stroke: #ffac1e; stroke-linejoin: bevel"/>
     <use xlink:href="#m0ba1852326" x="120.805239" y="255.226419" style="fill: #ffac1e; stroke: #ffac1e; stroke-linejoin: bevel"/>
     <use xlink:href="#m0ba1852326" x="125.963945" y="255.226419" style="fill: #ffac1e; stroke: #ffac1e; stroke-linejoin: bevel"/>
     <use xlink:href="#m0ba1852326" x="131.12265" y="255.226419" style="fill: #ffac1e; stroke: #ffac1e; stroke-linejoin: bevel"/>
     <use xlink:href="#m0ba1852326" x="136.281356" y="255.226419" style="fill: #ffac1e; stroke: #ffac1e; stroke-linejoin: bevel"/>
     <use xlink:href="#m0ba1852326" x="141.440062" y="255.226419" style="fill: #ffac1e; stroke: #ffac1e; stroke-linejoin: bevel"/>
     <use xlink:href="#m0ba1852326" x="146.598767" y="255.226419" style="fill: #ffac1e; stroke: #ffac1e; stroke-linejoin: bevel"/>
     <use xlink:href="#m0ba1852326" x="151.757473" y="255.226419" style="fill: #ffac1e; stroke: #ffac1e; stroke-linejoin: bevel"/>
     <use xlink:href="#m0ba1852326" x="156.916179" y="255.226419" style="fill: #ffac1e; stroke: #ffac1e; stroke-linejoin: bevel"/>
     <use xlink:href="#m0ba1852326" x="162.074884" y="255.226419" style="fill: #ffac1e; stroke: #ffac1e; stroke-linejoin: bevel"/>
     <use xlink:href="#m0ba1852326" x="167.23359" y="255.226419" style="fill: #ffac1e; stroke: #ffac1e; stroke-linejoin: bevel"/>
     <use xlink:href="#m0ba1852326" x="172.392296" y="255.226419" style="fill: #ffac1e; stroke: #ffac1e; stroke-linejoin: bevel"/>
     <use xlink:href="#m0ba1852326" x="177.551002" y="255.226419" style="fill: #ffac1e; stroke: #ffac1e; stroke-linejoin: bevel"/>
     <use xlink:href="#m0ba1852326" x="182.709707" y="255.226419" style="fill: #ffac1e; stroke: #ffac1e; stroke-linejoin: bevel"/>
     <use xlink:href="#m0ba1852326" x="187.868413" y="255.226419" style="fill: #ffac1e; stroke: #ffac1e; stroke-linejoin: bevel"/>
     <use xlink:href="#m0ba1852326" x="193.027119" y="255.226419" style="fill: #ffac1e; stroke: #ffac1e; stroke-linejoin: bevel"/>
     <use xlink:href="#m0ba1852326" x="198.185824" y="255.226419" style="fill: #ffac1e; stroke: #ffac1e; stroke-linejoin: bevel"/>
     <use xlink:href="#m0ba1852326" x="203.34453" y="255.226419" style="fill: #ffac1e; stroke: #ffac1e; stroke-linejoin: bevel"/>
     <use xlink:href="#m0ba1852326" x="208.503236" y="255.226419" style="fill: #ffac1e; stroke: #ffac1e; stroke-linejoin: bevel"/>
     <use xlink:href="#m0ba1852326" x="213.661941" y="255.226419" style="fill: #ffac1e; stroke: #ffac1e; stroke-linejoin: bevel"/>
     <use xlink:href="#m0ba1852326" x="218.820647" y="255.226419" style="fill: #ffac1e; stroke: #ffac1e; stroke-linejoin: bevel"/>
     <use xlink:href="#m0ba1852326" x="223.979353" y="255.226419" style="fill: #ffac1e; stroke: #ffac1e; stroke-linejoin: bevel"/>
     <use xlink:href="#m0ba1852326" x="229.138059" y="255.226419" style="fill: #ffac1e; stroke: #ffac1e; stroke-linejoin: bevel"/>
     <use xlink:href="#m0ba1852326" x="234.296764" y="255.226419" style="fill: #ffac1e; stroke: #ffac1e; stroke-linejoin: bevel"/>
     <use xlink:href="#m0ba1852326" x="239.45547" y="255.226419" style="fill: #ffac1e; stroke: #ffac1e; stroke-linejoin: bevel"/>
     <use xlink:href="#m0ba1852326" x="244.614176" y="255.226419" style="fill: #ffac1e; stroke: #ffac1e; stroke-linejoin: bevel"/>
     <use xlink:href="#m0ba1852326" x="249.772881" y="255.226419" style="fill: #ffac1e; stroke: #ffac1e; stroke-linejoin: bevel"/>
     <use xlink:href="#m0ba1852326" x="254.931587" y="255.226419" style="fill: #ffac1e; stroke: #ffac1e; stroke-linejoin: bevel"/>
     <use xlink:href="#m0ba1852326" x="260.090293" y="255.226419" style="fill: #ffac1e; stroke: #ffac1e; stroke-linejoin: bevel"/>
     <use xlink:href="#m0ba1852326" x="265.248998" y="255.226419" style="fill: #ffac1e; stroke: #ffac1e; stroke-linejoin: bevel"/>
     <use xlink:href="#m0ba1852326" x="270.407704" y="255.226419" style="fill: #ffac1e; stroke: #ffac1e; stroke-linejoin: bevel"/>
     <use xlink:href="#m0ba1852326" x="275.56641" y="255.226419" style="fill: #ffac1e; stroke: #ffac1e; stroke-linejoin: bevel"/>
     <use xlink:href="#m0ba1852326" x="280.725116" y="255.226419" style="fill: #ffac1e; stroke: #ffac1e; stroke-linejoin: bevel"/>
     <use xlink:href="#m0ba1852326" x="285.883821" y="255.226419" style="fill: #ffac1e; stroke: #ffac1e; stroke-linejoin: bevel"/>
     <use xlink:href="#m0ba1852326" x="291.042527" y="255.226419" style="fill: #ffac1e; stroke: #ffac1e; stroke-linejoin: bevel"/>
     <use xlink:href="#m0ba1852326" x="296.201233" y="255.226419" style="fill: #ffac1e; stroke: #ffac1e; stroke-linejoin: bevel"/>
     <use xlink:href="#m0ba1852326" x="301.359938" y="255.226419" style="fill: #ffac1e; stroke: #ffac1e; stroke-linejoin: bevel"/>
     <use xlink:href="#m0ba1852326" x="306.518644" y="255.226419" style="fill: #ffac1e; stroke: #ffac1e; stroke-linejoin: bevel"/>
     <use xlink:href="#m0ba1852326" x="311.67735" y="255.226419" style="fill: #ffac1e; stroke: #ffac1e; stroke-linejoin: bevel"/>
     <use xlink:href="#m0ba1852326" x="316.836055" y="255.226419" style="fill: #ffac1e; stroke: #ffac1e; stroke-linejoin: bevel"/>
     <use xlink:href="#m0ba1852326" x="321.994761" y="255.226419" style="fill: #ffac1e; stroke: #ffac1e; stroke-linejoin: bevel"/>
     <use xlink:href="#m0ba1852326" x="327.153467" y="255.226419" style="fill: #ffac1e; stroke: #ffac1e; stroke-linejoin: bevel"/>
     <use xlink:href="#m0ba1852326" x="332.312173" y="255.226419" style="fill: #ffac1e; stroke: #ffac1e; stroke-linejoin: bevel"/>
     <use xlink:href="#m0ba1852326" x="337.470878" y="255.226419" style="fill: #ffac1e; stroke: #ffac1e; stroke-linejoin: bevel"/>
     <use xlink:href="#m0ba1852326" x="342.629584" y="255.226419" style="fill: #ffac1e; stroke: #ffac1e; stroke-linejoin: bevel"/>
     <use xlink:href="#m0ba1852326" x="347.78829" y="255.226419" style="fill: #ffac1e; stroke: #ffac1e; stroke-linejoin: bevel"/>
     <use xlink:href="#m0ba1852326" x="352.946995" y="255.226419" style="fill: #ffac1e; stroke: #ffac1e; stroke-linejoin: bevel"/>
     <use xlink:href="#m0ba1852326" x="358.105701" y="255.226419" style="fill: #ffac1e; stroke: #ffac1e; stroke-linejoin: bevel"/>
     <use xlink:href="#m0ba1852326" x="363.264407" y="255.226419" style="fill: #ffac1e; stroke: #ffac1e; stroke-linejoin: bevel"/>
     <use xlink:href="#m0ba1852326" x="368.423112" y="255.226419" style="fill: #ffac1e; stroke: #ffac1e; stroke-linejoin: bevel"/>
     <use xlink:href="#m0ba1852326" x="373.581818" y="255.226419" style="fill: #ffac1e; stroke: #ffac1e; stroke-linejoin: bevel"/>
    </g>
   </g>
   <g id="patch_3">
    <path d="M 54 252 
L 54 34.56 
" style="fill: none; stroke: #000000; stroke-width: 0.8; stroke-linejoin: miter; stroke-linecap: square"/>
   </g>
   <g id="patch_4">
    <path d="M 388.8 252 
L 388.8 34.56 
" style="fill: none; stroke: #000000; stroke-width: 0.8; stroke-linejoin: miter; stroke-linecap: square"/>
   </g>
   <g id="patch_5">
    <path d="M 54 252 
L 388.8 252 
" style="fill: none; stroke: #000000; stroke-width: 0.8; stroke-linejoin: miter; stroke-linecap: square"/>
   </g>
   <g id="patch_6">
    <path d="M 54 34.56 
L 388.8 34.56 
" style="fill: none; stroke: #000000; stroke-width: 0.8; stroke-linejoin: miter; stroke-linecap: square"/>
   </g>
   <g id="text_17">
    <!-- ε-greedy agent policy with gamma = 0.95 -->
    <g transform="translate(94.7025 28.56)scale(0.12 -0.12)">
     <defs>
      <path id="DejaVuSans-3b5" d="M 1234 1888 
Q 884 1963 697 2166 
Q 509 2366 509 2656 
Q 509 3097 866 3344 
Q 1219 3588 1831 3588 
Q 2069 3588 2334 3550 
Q 2600 3513 2906 3438 
L 2906 2916 
Q 2603 3006 2353 3047 
Q 2100 3088 1878 3088 
Q 1506 3088 1291 2944 
Q 1072 2800 1072 2600 
Q 1072 2381 1284 2241 
Q 1494 2103 1856 2103 
L 2341 2103 
L 2341 1628 
L 1878 1628 
Q 1450 1628 1225 1469 
Q 981 1294 981 1019 
Q 981 738 1244 563 
Q 1509 388 1981 388 
Q 2272 388 2538 444 
Q 2803 503 3025 619 
L 3025 84 
Q 2744 -3 2481 -47 
Q 2216 -91 1966 -91 
Q 1222 -91 819 194 
Q 416 478 416 1019 
Q 416 1356 631 1584 
Q 847 1813 1234 1888 
z
" transform="scale(0.015625)"/>
      <path id="DejaVuSans-2d" d="M 313 2009 
L 1997 2009 
L 1997 1497 
L 313 1497 
L 313 2009 
z
" transform="scale(0.015625)"/>
      <path id="DejaVuSans-67" d="M 2906 1791 
Q 2906 2416 2648 2759 
Q 2391 3103 1925 3103 
Q 1463 3103 1205 2759 
Q 947 2416 947 1791 
Q 947 1169 1205 825 
Q 1463 481 1925 481 
Q 2391 481 2648 825 
Q 2906 1169 2906 1791 
z
M 3481 434 
Q 3481 -459 3084 -895 
Q 2688 -1331 1869 -1331 
Q 1566 -1331 1297 -1286 
Q 1028 -1241 775 -1147 
L 775 -588 
Q 1028 -725 1275 -790 
Q 1522 -856 1778 -856 
Q 2344 -856 2625 -561 
Q 2906 -266 2906 331 
L 2906 616 
Q 2728 306 2450 153 
Q 2172 0 1784 0 
Q 1141 0 747 490 
Q 353 981 353 1791 
Q 353 2603 747 3093 
Q 1141 3584 1784 3584 
Q 2172 3584 2450 3431 
Q 2728 3278 2906 2969 
L 2906 3500 
L 3481 3500 
L 3481 434 
z
" transform="scale(0.015625)"/>
      <path id="DejaVuSans-64" d="M 2906 2969 
L 2906 4863 
L 3481 4863 
L 3481 0 
L 2906 0 
L 2906 525 
Q 2725 213 2448 61 
Q 2172 -91 1784 -91 
Q 1150 -91 751 415 
Q 353 922 353 1747 
Q 353 2572 751 3078 
Q 1150 3584 1784 3584 
Q 2172 3584 2448 3432 
Q 2725 3281 2906 2969 
z
M 947 1747 
Q 947 1113 1208 752 
Q 1469 391 1925 391 
Q 2381 391 2643 752 
Q 2906 1113 2906 1747 
Q 2906 2381 2643 2742 
Q 2381 3103 1925 3103 
Q 1469 3103 1208 2742 
Q 947 2381 947 1747 
z
" transform="scale(0.015625)"/>
      <path id="DejaVuSans-6e" d="M 3513 2113 
L 3513 0 
L 2938 0 
L 2938 2094 
Q 2938 2591 2744 2837 
Q 2550 3084 2163 3084 
Q 1697 3084 1428 2787 
Q 1159 2491 1159 1978 
L 1159 0 
L 581 0 
L 581 3500 
L 1159 3500 
L 1159 2956 
Q 1366 3272 1645 3428 
Q 1925 3584 2291 3584 
Q 2894 3584 3203 3211 
Q 3513 2838 3513 2113 
z
" transform="scale(0.015625)"/>
      <path id="DejaVuSans-77" d="M 269 3500 
L 844 3500 
L 1563 769 
L 2278 3500 
L 2956 3500 
L 3675 769 
L 4391 3500 
L 4966 3500 
L 4050 0 
L 3372 0 
L 2619 2869 
L 1863 0 
L 1184 0 
L 269 3500 
z
" transform="scale(0.015625)"/>
      <path id="DejaVuSans-68" d="M 3513 2113 
L 3513 0 
L 2938 0 
L 2938 2094 
Q 2938 2591 2744 2837 
Q 2550 3084 2163 3084 
Q 1697 3084 1428 2787 
Q 1159 2491 1159 1978 
L 1159 0 
L 581 0 
L 581 4863 
L 1159 4863 
L 1159 2956 
Q 1366 3272 1645 3428 
Q 1925 3584 2291 3584 
Q 2894 3584 3203 3211 
Q 3513 2838 3513 2113 
z
" transform="scale(0.015625)"/>
      <path id="DejaVuSans-6d" d="M 3328 2828 
Q 3544 3216 3844 3400 
Q 4144 3584 4550 3584 
Q 5097 3584 5394 3201 
Q 5691 2819 5691 2113 
L 5691 0 
L 5113 0 
L 5113 2094 
Q 5113 2597 4934 2840 
Q 4756 3084 4391 3084 
Q 3944 3084 3684 2787 
Q 3425 2491 3425 1978 
L 3425 0 
L 2847 0 
L 2847 2094 
Q 2847 2600 2669 2842 
Q 2491 3084 2119 3084 
Q 1678 3084 1418 2786 
Q 1159 2488 1159 1978 
L 1159 0 
L 581 0 
L 581 3500 
L 1159 3500 
L 1159 2956 
Q 1356 3278 1631 3431 
Q 1906 3584 2284 3584 
Q 2666 3584 2933 3390 
Q 3200 3197 3328 2828 
z
" transform="scale(0.015625)"/>
      <path id="DejaVuSans-3d" d="M 678 2906 
L 4684 2906 
L 4684 2381 
L 678 2381 
L 678 2906 
z
M 678 1631 
L 4684 1631 
L 4684 1100 
L 678 1100 
L 678 1631 
z
" transform="scale(0.015625)"/>
      <path id="DejaVuSans-2e" d="M 684 794 
L 1344 794 
L 1344 0 
L 684 0 
L 684 794 
z
" transform="scale(0.015625)"/>
      <path id="DejaVuSans-39" d="M 703 97 
L 703 672 
Q 941 559 1184 500 
Q 1428 441 1663 441 
Q 2288 441 2617 861 
Q 2947 1281 2994 2138 
Q 2813 1869 2534 1725 
Q 2256 1581 1919 1581 
Q 1219 1581 811 2004 
Q 403 2428 403 3163 
Q 403 3881 828 4315 
Q 1253 4750 1959 4750 
Q 2769 4750 3195 4129 
Q 3622 3509 3622 2328 
Q 3622 1225 3098 567 
Q 2575 -91 1691 -91 
Q 1453 -91 1209 -44 
Q 966 3 703 97 
z
M 1959 2075 
Q 2384 2075 2632 2365 
Q 2881 2656 2881 3163 
Q 2881 3666 2632 3958 
Q 2384 4250 1959 4250 
Q 1534 4250 1286 3958 
Q 1038 3666 1038 3163 
Q 1038 2656 1286 2365 
Q 1534 2075 1959 2075 
z
" transform="scale(0.015625)"/>
     </defs>
     <use xlink:href="#DejaVuSans-3b5"/>
     <use xlink:href="#DejaVuSans-2d" x="54.052734"/>
     <use xlink:href="#DejaVuSans-67" x="90.136719"/>
     <use xlink:href="#DejaVuSans-72" x="153.613281"/>
     <use xlink:href="#DejaVuSans-65" x="192.476562"/>
     <use xlink:href="#DejaVuSans-65" x="254"/>
     <use xlink:href="#DejaVuSans-64" x="315.523438"/>
     <use xlink:href="#DejaVuSans-79" x="379"/>
     <use xlink:href="#DejaVuSans-20" x="438.179688"/>
     <use xlink:href="#DejaVuSans-61" x="469.966797"/>
     <use xlink:href="#DejaVuSans-67" x="531.246094"/>
     <use xlink:href="#DejaVuSans-65" x="594.722656"/>
     <use xlink:href="#DejaVuSans-6e" x="656.246094"/>
     <use xlink:href="#DejaVuSans-74" x="719.625"/>
     <use xlink:href="#DejaVuSans-20" x="758.833984"/>
     <use xlink:href="#DejaVuSans-70" x="790.621094"/>
     <use xlink:href="#DejaVuSans-6f" x="854.097656"/>
     <use xlink:href="#DejaVuSans-6c" x="915.279297"/>
     <use xlink:href="#DejaVuSans-69" x="943.0625"/>
     <use xlink:href="#DejaVuSans-63" x="970.845703"/>
     <use xlink:href="#DejaVuSans-79" x="1025.826172"/>
     <use xlink:href="#DejaVuSans-20" x="1085.005859"/>
     <use xlink:href="#DejaVuSans-77" x="1116.792969"/>
     <use xlink:href="#DejaVuSans-69" x="1198.580078"/>
     <use xlink:href="#DejaVuSans-74" x="1226.363281"/>
     <use xlink:href="#DejaVuSans-68" x="1265.572266"/>
     <use xlink:href="#DejaVuSans-20" x="1328.951172"/>
     <use xlink:href="#DejaVuSans-67" x="1360.738281"/>
     <use xlink:href="#DejaVuSans-61" x="1424.214844"/>
     <use xlink:href="#DejaVuSans-6d" x="1485.494141"/>
     <use xlink:href="#DejaVuSans-6d" x="1582.90625"/>
     <use xlink:href="#DejaVuSans-61" x="1680.318359"/>
     <use xlink:href="#DejaVuSans-20" x="1741.597656"/>
     <use xlink:href="#DejaVuSans-3d" x="1773.384766"/>
     <use xlink:href="#DejaVuSans-20" x="1857.173828"/>
     <use xlink:href="#DejaVuSans-30" x="1888.960938"/>
     <use xlink:href="#DejaVuSans-2e" x="1952.583984"/>
     <use xlink:href="#DejaVuSans-39" x="1984.371094"/>
     <use xlink:href="#DejaVuSans-35" x="2047.994141"/>
    </g>
   </g>
   <g id="legend_1">
    <g id="patch_7">
     <path d="M 289.79375 101.2725 
L 381.8 101.2725 
Q 383.8 101.2725 383.8 99.2725 
L 383.8 41.56 
Q 383.8 39.56 381.8 39.56 
L 289.79375 39.56 
Q 287.79375 39.56 287.79375 41.56 
L 287.79375 99.2725 
Q 287.79375 101.2725 289.79375 101.2725 
z
" style="fill: #ffffff; opacity: 0.8; stroke: #cccccc; stroke-linejoin: miter"/>
    </g>
    <g id="line2d_33">
     <path d="M 291.79375 47.658437 
L 301.79375 47.658437 
L 311.79375 47.658437 
" style="fill: none; stroke: #9d02d7; stroke-width: 1.5; stroke-linecap: square"/>
     <g>
      <use xlink:href="#m8b00573dfe" x="301.79375" y="47.658437" style="fill: #9d02d7; stroke: #9d02d7; stroke-linejoin: miter"/>
     </g>
    </g>
    <g id="text_18">
     <!-- epsilon=0.4 -->
     <g transform="translate(319.79375 51.158437)scale(0.1 -0.1)">
      <use xlink:href="#DejaVuSans-65"/>
      <use xlink:href="#DejaVuSans-70" x="61.523438"/>
      <use xlink:href="#DejaVuSans-73" x="125"/>
      <use xlink:href="#DejaVuSans-69" x="177.099609"/>
      <use xlink:href="#DejaVuSans-6c" x="204.882812"/>
      <use xlink:href="#DejaVuSans-6f" x="232.666016"/>
      <use xlink:href="#DejaVuSans-6e" x="293.847656"/>
      <use xlink:href="#DejaVuSans-3d" x="357.226562"/>
      <use xlink:href="#DejaVuSans-30" x="441.015625"/>
      <use xlink:href="#DejaVuSans-2e" x="504.638672"/>
      <use xlink:href="#DejaVuSans-34" x="536.425781"/>
     </g>
    </g>
    <g id="line2d_34">
     <path d="M 291.79375 62.336562 
L 301.79375 62.336562 
L 311.79375 62.336562 
" style="fill: none; stroke: #0000ff; stroke-width: 1.5; stroke-linecap: square"/>
     <g>
      <use xlink:href="#ma0474e9606" x="301.79375" y="62.336562" style="fill: #0000ff; stroke: #0000ff"/>
     </g>
    </g>
    <g id="text_19">
     <!-- epsilon=0.6 -->
     <g transform="translate(319.79375 65.836562)scale(0.1 -0.1)">
      <use xlink:href="#DejaVuSans-65"/>
      <use xlink:href="#DejaVuSans-70" x="61.523438"/>
      <use xlink:href="#DejaVuSans-73" x="125"/>
      <use xlink:href="#DejaVuSans-69" x="177.099609"/>
      <use xlink:href="#DejaVuSans-6c" x="204.882812"/>
      <use xlink:href="#DejaVuSans-6f" x="232.666016"/>
      <use xlink:href="#DejaVuSans-6e" x="293.847656"/>
      <use xlink:href="#DejaVuSans-3d" x="357.226562"/>
      <use xlink:href="#DejaVuSans-30" x="441.015625"/>
      <use xlink:href="#DejaVuSans-2e" x="504.638672"/>
      <use xlink:href="#DejaVuSans-36" x="536.425781"/>
     </g>
    </g>
    <g id="line2d_35">
     <path d="M 291.79375 77.014687 
L 301.79375 77.014687 
L 311.79375 77.014687 
" style="fill: none; stroke: #ff7763; stroke-width: 1.5; stroke-linecap: square"/>
     <g>
      <use xlink:href="#m64d0989fbd" x="301.79375" y="77.014687" style="fill: #ff7763; stroke: #ff7763"/>
     </g>
    </g>
    <g id="text_20">
     <!-- epsilon=0.8 -->
     <g transform="translate(319.79375 80.514687)scale(0.1 -0.1)">
      <use xlink:href="#DejaVuSans-65"/>
      <use xlink:href="#DejaVuSans-70" x="61.523438"/>
      <use xlink:href="#DejaVuSans-73" x="125"/>
      <use xlink:href="#DejaVuSans-69" x="177.099609"/>
      <use xlink:href="#DejaVuSans-6c" x="204.882812"/>
      <use xlink:href="#DejaVuSans-6f" x="232.666016"/>
      <use xlink:href="#DejaVuSans-6e" x="293.847656"/>
      <use xlink:href="#DejaVuSans-3d" x="357.226562"/>
      <use xlink:href="#DejaVuSans-30" x="441.015625"/>
      <use xlink:href="#DejaVuSans-2e" x="504.638672"/>
      <use xlink:href="#DejaVuSans-38" x="536.425781"/>
     </g>
    </g>
    <g id="line2d_36">
     <path d="M 291.79375 91.692813 
L 301.79375 91.692813 
L 311.79375 91.692813 
" style="fill: none; stroke: #ffac1e; stroke-width: 1.5; stroke-linecap: square"/>
     <g>
      <use xlink:href="#m0ba1852326" x="301.79375" y="91.692813" style="fill: #ffac1e; stroke: #ffac1e; stroke-linejoin: bevel"/>
     </g>
    </g>
    <g id="text_21">
     <!-- epsilon=1.0 -->
     <g transform="translate(319.79375 95.192813)scale(0.1 -0.1)">
      <use xlink:href="#DejaVuSans-65"/>
      <use xlink:href="#DejaVuSans-70" x="61.523438"/>
      <use xlink:href="#DejaVuSans-73" x="125"/>
      <use xlink:href="#DejaVuSans-69" x="177.099609"/>
      <use xlink:href="#DejaVuSans-6c" x="204.882812"/>
      <use xlink:href="#DejaVuSans-6f" x="232.666016"/>
      <use xlink:href="#DejaVuSans-6e" x="293.847656"/>
      <use xlink:href="#DejaVuSans-3d" x="357.226562"/>
      <use xlink:href="#DejaVuSans-31" x="441.015625"/>
      <use xlink:href="#DejaVuSans-2e" x="504.638672"/>
      <use xlink:href="#DejaVuSans-30" x="536.425781"/>
     </g>
    </g>
   </g>
  </g>
 </g>
 <defs>
  <clipPath id="p9359a7a433">
   <rect x="54" y="34.56" width="334.8" height="217.44"/>
  </clipPath>
 </defs>
</svg>
