<?xml version="1.0" encoding="utf-8" standalone="no"?>
<!DOCTYPE svg PUBLIC "-//W3C//DTD SVG 1.1//EN"
  "http://www.w3.org/Graphics/SVG/1.1/DTD/svg11.dtd">
<svg xmlns:xlink="http://www.w3.org/1999/xlink" width="432pt" height="288pt" viewBox="0 0 432 288" xmlns="http://www.w3.org/2000/svg" version="1.1">
 <metadata>
  <rdf:RDF xmlns:dc="http://purl.org/dc/elements/1.1/" xmlns:cc="http://creativecommons.org/ns#" xmlns:rdf="http://www.w3.org/1999/02/22-rdf-syntax-ns#">
   <cc:Work>
    <dc:type rdf:resource="http://purl.org/dc/dcmitype/StillImage"/>
    <dc:date>2023-01-11T15:36:34.969262</dc:date>
    <dc:format>image/svg+xml</dc:format>
    <dc:creator>
     <cc:Agent>
      <dc:title>Matplotlib v3.5.2, https://matplotlib.org/</dc:title>
     </cc:Agent>
    </dc:creator>
   </cc:Work>
  </rdf:RDF>
 </metadata>
 <defs>
  <style type="text/css">*{stroke-linejoin: round; stroke-linecap: butt}</style>
 </defs>
 <g id="figure_1">
  <g id="patch_1">
   <path d="M 0 288 
L 432 288 
L 432 0 
L 0 0 
z
" style="fill: #ffffff"/>
  </g>
  <g id="axes_1">
   <g id="patch_2">
    <path d="M 54 252 
L 388.8 252 
L 388.8 34.56 
L 54 34.56 
z
" style="fill: #ffffff"/>
   </g>
   <g id="PolyCollection_1">
    <defs>
     <path id="m6b78b972ce" d="M 69.218182 -33.501461 
L 69.218182 -33.501461 
L 74.376888 -28.093584 
L 79.535593 -75.215849 
L 84.694299 -32.763593 
L 89.853005 -23.432804 
L 95.01171 -153.134712 
L 100.170416 -198.302097 
L 105.329122 -188.865095 
L 110.487827 -229.57059 
L 115.646533 -225.572431 
L 120.805239 -229.826583 
L 125.963945 -229.826583 
L 131.12265 -204.533929 
L 136.281356 -225.587303 
L 141.440062 -229.826583 
L 146.598767 -229.790921 
L 151.757473 -225.587303 
L 156.916179 -218.092624 
L 162.074884 -229.790921 
L 167.23359 -229.790921 
L 172.392296 -229.790921 
L 177.551002 -229.790921 
L 182.709707 -229.790921 
L 187.868413 -229.790921 
L 193.027119 -229.790921 
L 198.185824 -229.790921 
L 203.34453 -229.730477 
L 208.503236 -229.730477 
L 213.661941 -229.730477 
L 218.820647 -229.730477 
L 223.979353 -229.730477 
L 229.138059 -229.730477 
L 234.296764 -229.730477 
L 239.45547 -229.730477 
L 244.614176 -229.730477 
L 249.772881 -229.730477 
L 254.931587 -229.730477 
L 260.090293 -229.730477 
L 265.248998 -225.736714 
L 270.407704 -221.681098 
L 275.56641 -229.730477 
L 280.725116 -229.730477 
L 285.883821 -229.730477 
L 291.042527 -229.730477 
L 296.201233 -229.730477 
L 301.359938 -230.357821 
L 306.518644 -230.357821 
L 311.67735 -230.357821 
L 316.836055 -230.357821 
L 321.994761 -230.357821 
L 327.153467 -230.357821 
L 332.312173 -230.357821 
L 337.470878 -230.357821 
L 342.629584 -230.357821 
L 347.78829 -230.357821 
L 352.946995 -230.357821 
L 358.105701 -230.357821 
L 363.264407 -230.357821 
L 368.423112 -230.357821 
L 373.581818 -229.826583 
L 373.581818 -229.826583 
L 373.581818 -229.826583 
L 368.423112 -230.357821 
L 363.264407 -230.357821 
L 358.105701 -230.357821 
L 352.946995 -230.357821 
L 347.78829 -230.357821 
L 342.629584 -230.357821 
L 337.470878 -230.357821 
L 332.312173 -230.357821 
L 327.153467 -230.357821 
L 321.994761 -230.357821 
L 316.836055 -230.357821 
L 311.67735 -230.357821 
L 306.518644 -230.357821 
L 301.359938 -230.357821 
L 296.201233 -229.730477 
L 291.042527 -229.730477 
L 285.883821 -229.730477 
L 280.725116 -229.730477 
L 275.56641 -229.730477 
L 270.407704 -221.681098 
L 265.248998 -225.736714 
L 260.090293 -229.730477 
L 254.931587 -229.730477 
L 249.772881 -229.730477 
L 244.614176 -229.730477 
L 239.45547 -229.730477 
L 234.296764 -229.730477 
L 229.138059 -229.730477 
L 223.979353 -229.730477 
L 218.820647 -229.730477 
L 213.661941 -229.730477 
L 208.503236 -229.730477 
L 203.34453 -229.730477 
L 198.185824 -229.790921 
L 193.027119 -229.790921 
L 187.868413 -229.790921 
L 182.709707 -229.790921 
L 177.551002 -229.790921 
L 172.392296 -229.790921 
L 167.23359 -229.790921 
L 162.074884 -229.790921 
L 156.916179 -218.092624 
L 151.757473 -225.587303 
L 146.598767 -229.790921 
L 141.440062 -229.826583 
L 136.281356 -225.587303 
L 131.12265 -204.533929 
L 125.963945 -229.826583 
L 120.805239 -229.826583 
L 115.646533 -225.572431 
L 110.487827 -229.57059 
L 105.329122 -188.865095 
L 100.170416 -198.302097 
L 95.01171 -153.134712 
L 89.853005 -23.432804 
L 84.694299 -32.763593 
L 79.535593 -75.215849 
L 74.376888 -28.093584 
L 69.218182 -33.501461 
z
" style="stroke: #9d02d7; stroke-opacity: 0.2"/>
    </defs>
    <g clip-path="url(#p28b3083828)">
     <use xlink:href="#m6b78b972ce" x="0" y="288" style="fill: #9d02d7; fill-opacity: 0.2; stroke: #9d02d7; stroke-opacity: 0.2"/>
    </g>
   </g>
   <g id="PolyCollection_2">
    <defs>
     <path id="m6a1ab3463d" d="M 69.218182 -34.208072 
L 69.218182 -34.208072 
L 74.376888 -31.401795 
L 79.535593 -33.046939 
L 84.694299 -31.521388 
L 89.853005 -193.538587 
L 95.01171 -182.569729 
L 100.170416 -204.01284 
L 105.329122 -206.445967 
L 110.487827 -205.309891 
L 115.646533 -205.081798 
L 120.805239 -205.154456 
L 125.963945 -195.168953 
L 131.12265 -205.528737 
L 136.281356 -214.292659 
L 141.440062 -213.869846 
L 146.598767 -214.71793 
L 151.757473 -214.292659 
L 156.916179 -214.441019 
L 162.074884 -214.71793 
L 167.23359 -215.033937 
L 172.392296 -214.292659 
L 177.551002 -215.09298 
L 182.709707 -214.086168 
L 187.868413 -212.81719 
L 193.027119 -213.433816 
L 198.185824 -215.033937 
L 203.34453 -214.441019 
L 208.503236 -214.71793 
L 213.661941 -223.786112 
L 218.820647 -214.157547 
L 223.979353 -213.869846 
L 229.138059 -214.71793 
L 234.296764 -224.769454 
L 239.45547 -224.359542 
L 244.614176 -224.359542 
L 249.772881 -224.359542 
L 254.931587 -224.533319 
L 260.090293 -224.769454 
L 265.248998 -224.533319 
L 270.407704 -224.769454 
L 275.56641 -224.533319 
L 280.725116 -225.053512 
L 285.883821 -224.632864 
L 291.042527 -224.769454 
L 296.201233 -225.053512 
L 301.359938 -224.359542 
L 306.518644 -224.533319 
L 311.67735 -224.769454 
L 316.836055 -224.632864 
L 321.994761 -225.036648 
L 327.153467 -225.036648 
L 332.312173 -225.053512 
L 337.470878 -221.977589 
L 342.629584 -223.800596 
L 347.78829 -224.359542 
L 352.946995 -225.036648 
L 358.105701 -225.053512 
L 363.264407 -225.053512 
L 368.423112 -225.053512 
L 373.581818 -225.053512 
L 373.581818 -225.053512 
L 373.581818 -225.053512 
L 368.423112 -225.053512 
L 363.264407 -225.053512 
L 358.105701 -225.053512 
L 352.946995 -225.036648 
L 347.78829 -224.359542 
L 342.629584 -223.800596 
L 337.470878 -221.977589 
L 332.312173 -225.053512 
L 327.153467 -225.036648 
L 321.994761 -225.036648 
L 316.836055 -224.632864 
L 311.67735 -224.769454 
L 306.518644 -224.533319 
L 301.359938 -224.359542 
L 296.201233 -225.053512 
L 291.042527 -224.769454 
L 285.883821 -224.632864 
L 280.725116 -225.053512 
L 275.56641 -224.533319 
L 270.407704 -224.769454 
L 265.248998 -224.533319 
L 260.090293 -224.769454 
L 254.931587 -224.533319 
L 249.772881 -224.359542 
L 244.614176 -224.359542 
L 239.45547 -224.359542 
L 234.296764 -224.769454 
L 229.138059 -214.71793 
L 223.979353 -213.869846 
L 218.820647 -214.157547 
L 213.661941 -223.786112 
L 208.503236 -214.71793 
L 203.34453 -214.441019 
L 198.185824 -215.033937 
L 193.027119 -213.433816 
L 187.868413 -212.81719 
L 182.709707 -214.086168 
L 177.551002 -215.09298 
L 172.392296 -214.292659 
L 167.23359 -215.033937 
L 162.074884 -214.71793 
L 156.916179 -214.441019 
L 151.757473 -214.292659 
L 146.598767 -214.71793 
L 141.440062 -213.869846 
L 136.281356 -214.292659 
L 131.12265 -205.528737 
L 125.963945 -195.168953 
L 120.805239 -205.154456 
L 115.646533 -205.081798 
L 110.487827 -205.309891 
L 105.329122 -206.445967 
L 100.170416 -204.01284 
L 95.01171 -182.569729 
L 89.853005 -193.538587 
L 84.694299 -31.521388 
L 79.535593 -33.046939 
L 74.376888 -31.401795 
L 69.218182 -34.208072 
z
" style="stroke: #0000ff; stroke-opacity: 0.2"/>
    </defs>
    <g clip-path="url(#p28b3083828)">
     <use xlink:href="#m6a1ab3463d" x="0" y="288" style="fill: #0000ff; fill-opacity: 0.2; stroke: #0000ff; stroke-opacity: 0.2"/>
    </g>
   </g>
   <g id="PolyCollection_3">
    <defs>
     <path id="mc59ea8c3d1" d="M 69.218182 -34.973735 
L 69.218182 -34.973735 
L 74.376888 -34.623809 
L 79.535593 -20.695297 
L 84.694299 -122.680666 
L 89.853005 -31.042126 
L 95.01171 -178.010511 
L 100.170416 -185.064056 
L 105.329122 -185.533651 
L 110.487827 -233.450336 
L 115.646533 -217.404963 
L 120.805239 -234.38431 
L 125.963945 -229.0391 
L 131.12265 -234.239924 
L 136.281356 -232.614067 
L 141.440062 -236.673068 
L 146.598767 -231.076459 
L 151.757473 -231.927283 
L 156.916179 -231.809758 
L 162.074884 -236.673068 
L 167.23359 -233.141522 
L 172.392296 -232.324526 
L 177.551002 -234.239924 
L 182.709707 -224.438072 
L 187.868413 -224.738857 
L 193.027119 -233.141522 
L 198.185824 -236.610841 
L 203.34453 -230.37157 
L 208.503236 -234.284414 
L 213.661941 -230.371569 
L 218.820647 -227.35675 
L 223.979353 -224.773604 
L 229.138059 -233.231198 
L 234.296764 -234.03746 
L 239.45547 -230.428755 
L 244.614176 -236.031609 
L 249.772881 -225.746634 
L 254.931587 -225.440858 
L 260.090293 -230.286263 
L 265.248998 -233.097192 
L 270.407704 -225.440858 
L 275.56641 -233.905882 
L 280.725116 -233.905882 
L 285.883821 -225.440858 
L 291.042527 -225.440858 
L 296.201233 -226.316594 
L 301.359938 -236.486435 
L 306.518644 -234.38431 
L 311.67735 -236.610841 
L 316.836055 -234.38431 
L 321.994761 -236.610841 
L 327.153467 -236.486435 
L 332.312173 -236.610841 
L 337.470878 -236.486435 
L 342.629584 -236.610841 
L 347.78829 -236.610841 
L 352.946995 -236.486435 
L 358.105701 -236.610841 
L 363.264407 -236.610841 
L 368.423112 -236.610841 
L 373.581818 -236.610841 
L 373.581818 -236.610841 
L 373.581818 -236.610841 
L 368.423112 -236.610841 
L 363.264407 -236.610841 
L 358.105701 -236.610841 
L 352.946995 -236.486435 
L 347.78829 -236.610841 
L 342.629584 -236.610841 
L 337.470878 -236.486435 
L 332.312173 -236.610841 
L 327.153467 -236.486435 
L 321.994761 -236.610841 
L 316.836055 -234.38431 
L 311.67735 -236.610841 
L 306.518644 -234.38431 
L 301.359938 -236.486435 
L 296.201233 -226.316594 
L 291.042527 -225.440858 
L 285.883821 -225.440858 
L 280.725116 -233.905882 
L 275.56641 -233.905882 
L 270.407704 -225.440858 
L 265.248998 -233.097192 
L 260.090293 -230.286263 
L 254.931587 -225.440858 
L 249.772881 -225.746634 
L 244.614176 -236.031609 
L 239.45547 -230.428755 
L 234.296764 -234.03746 
L 229.138059 -233.231198 
L 223.979353 -224.773604 
L 218.820647 -227.35675 
L 213.661941 -230.371569 
L 208.503236 -234.284414 
L 203.34453 -230.37157 
L 198.185824 -236.610841 
L 193.027119 -233.141522 
L 187.868413 -224.738857 
L 182.709707 -224.438072 
L 177.551002 -234.239924 
L 172.392296 -232.324526 
L 167.23359 -233.141522 
L 162.074884 -236.673068 
L 156.916179 -231.809758 
L 151.757473 -231.927283 
L 146.598767 -231.076459 
L 141.440062 -236.673068 
L 136.281356 -232.614067 
L 131.12265 -234.239924 
L 125.963945 -229.0391 
L 120.805239 -234.38431 
L 115.646533 -217.404963 
L 110.487827 -233.450336 
L 105.329122 -185.533651 
L 100.170416 -185.064056 
L 95.01171 -178.010511 
L 89.853005 -31.042126 
L 84.694299 -122.680666 
L 79.535593 -20.695297 
L 74.376888 -34.623809 
L 69.218182 -34.973735 
z
" style="stroke: #ff7763; stroke-opacity: 0.2"/>
    </defs>
    <g clip-path="url(#p28b3083828)">
     <use xlink:href="#mc59ea8c3d1" x="0" y="288" style="fill: #ff7763; fill-opacity: 0.2; stroke: #ff7763; stroke-opacity: 0.2"/>
    </g>
   </g>
   <g id="PolyCollection_4">
    <defs>
     <path id="mc100750f7b" d="M 69.218182 -33.351315 
L 69.218182 -33.351315 
L 74.376888 -34.844613 
L 79.535593 -33.800515 
L 84.694299 -33.727749 
L 89.853005 -178.836375 
L 95.01171 -57.44553 
L 100.170416 -79.998762 
L 105.329122 -192.849557 
L 110.487827 -204.540093 
L 115.646533 -204.546808 
L 120.805239 -242.518259 
L 125.963945 -242.203884 
L 131.12265 -242.239478 
L 136.281356 -241.934168 
L 141.440062 -242.263456 
L 146.598767 -242.241469 
L 151.757473 -230.493535 
L 156.916179 -242.056416 
L 162.074884 -242.056416 
L 167.23359 -241.909044 
L 172.392296 -241.887381 
L 177.551002 -242.078094 
L 182.709707 -241.909044 
L 187.868413 -241.897286 
L 193.027119 -241.720881 
L 198.185824 -226.083931 
L 203.34453 -230.059715 
L 208.503236 -241.742531 
L 213.661941 -241.742531 
L 218.820647 -241.897286 
L 223.979353 -241.720881 
L 229.138059 -241.887381 
L 234.296764 -241.801994 
L 239.45547 -230.787977 
L 244.614176 -231.249133 
L 249.772881 -231.254087 
L 254.931587 -230.79293 
L 260.090293 -232.823633 
L 265.248998 -232.823633 
L 270.407704 -232.823633 
L 275.56641 -241.780336 
L 280.725116 -241.780336 
L 285.883821 -242.066935 
L 291.042527 -241.801994 
L 296.201233 -242.088614 
L 301.359938 -242.088614 
L 306.518644 -242.066935 
L 311.67735 -242.220211 
L 316.836055 -242.220211 
L 321.994761 -241.909044 
L 327.153467 -242.078094 
L 332.312173 -242.056416 
L 337.470878 -242.056416 
L 342.629584 -241.887381 
L 347.78829 -242.056416 
L 352.946995 -241.887381 
L 358.105701 -242.056416 
L 363.264407 -241.909044 
L 368.423112 -241.887381 
L 373.581818 -241.909044 
L 373.581818 -241.909044 
L 373.581818 -241.909044 
L 368.423112 -241.887381 
L 363.264407 -241.909044 
L 358.105701 -242.056416 
L 352.946995 -241.887381 
L 347.78829 -242.056416 
L 342.629584 -241.887381 
L 337.470878 -242.056416 
L 332.312173 -242.056416 
L 327.153467 -242.078094 
L 321.994761 -241.909044 
L 316.836055 -242.220211 
L 311.67735 -242.220211 
L 306.518644 -242.066935 
L 301.359938 -242.088614 
L 296.201233 -242.088614 
L 291.042527 -241.801994 
L 285.883821 -242.066935 
L 280.725116 -241.780336 
L 275.56641 -241.780336 
L 270.407704 -232.823633 
L 265.248998 -232.823633 
L 260.090293 -232.823633 
L 254.931587 -230.79293 
L 249.772881 -231.254087 
L 244.614176 -231.249133 
L 239.45547 -230.787977 
L 234.296764 -241.801994 
L 229.138059 -241.887381 
L 223.979353 -241.720881 
L 218.820647 -241.897286 
L 213.661941 -241.742531 
L 208.503236 -241.742531 
L 203.34453 -230.059715 
L 198.185824 -226.083931 
L 193.027119 -241.720881 
L 187.868413 -241.897286 
L 182.709707 -241.909044 
L 177.551002 -242.078094 
L 172.392296 -241.887381 
L 167.23359 -241.909044 
L 162.074884 -242.056416 
L 156.916179 -242.056416 
L 151.757473 -230.493535 
L 146.598767 -242.241469 
L 141.440062 -242.263456 
L 136.281356 -241.934168 
L 131.12265 -242.239478 
L 125.963945 -242.203884 
L 120.805239 -242.518259 
L 115.646533 -204.546808 
L 110.487827 -204.540093 
L 105.329122 -192.849557 
L 100.170416 -79.998762 
L 95.01171 -57.44553 
L 89.853005 -178.836375 
L 84.694299 -33.727749 
L 79.535593 -33.800515 
L 74.376888 -34.844613 
L 69.218182 -33.351315 
z
" style="stroke: #ffac1e; stroke-opacity: 0.2"/>
    </defs>
    <g clip-path="url(#p28b3083828)">
     <use xlink:href="#mc100750f7b" x="0" y="288" style="fill: #ffac1e; fill-opacity: 0.2; stroke: #ffac1e; stroke-opacity: 0.2"/>
    </g>
   </g>
   <g id="PolyCollection_5">
    <defs>
     <path id="m7cd1969e6c" d="M 69.218182 -34.535672 
L 69.218182 -34.535672 
L 74.376888 -34.31667 
L 79.535593 -30.654043 
L 84.694299 -33.966338 
L 89.853005 -37.950785 
L 95.01171 -120.942302 
L 100.170416 -121.254536 
L 105.329122 -168.302785 
L 110.487827 -168.504368 
L 115.646533 -168.504368 
L 120.805239 -168.264216 
L 125.963945 -168.717885 
L 131.12265 -149.545923 
L 136.281356 -150.305333 
L 141.440062 -169.093594 
L 146.598767 -169.093594 
L 151.757473 -168.000322 
L 156.916179 -168.000322 
L 162.074884 -168.000322 
L 167.23359 -168.000322 
L 172.392296 -23.146752 
L 177.551002 -168.717885 
L 182.709707 -168.717885 
L 187.868413 -168.717885 
L 193.027119 -168.717885 
L 198.185824 -168.717885 
L 203.34453 -168.717885 
L 208.503236 -168.717885 
L 213.661941 -168.717885 
L 218.820647 -168.717885 
L 223.979353 -168.717885 
L 229.138059 -168.717885 
L 234.296764 -168.717885 
L 239.45547 -168.717885 
L 244.614176 -168.717885 
L 249.772881 -168.717885 
L 254.931587 -168.717885 
L 260.090293 -168.717885 
L 265.248998 -169.093594 
L 270.407704 -169.093594 
L 275.56641 -169.093594 
L 280.725116 -169.093594 
L 285.883821 -169.093594 
L 291.042527 -169.093594 
L 296.201233 -169.093594 
L 301.359938 -168.717885 
L 306.518644 -168.717885 
L 311.67735 -168.717885 
L 316.836055 -168.717885 
L 321.994761 -168.717885 
L 327.153467 -168.717885 
L 332.312173 -168.717885 
L 337.470878 -169.093594 
L 342.629584 -169.093594 
L 347.78829 -169.093594 
L 352.946995 -169.093594 
L 358.105701 -169.093594 
L 363.264407 -169.093594 
L 368.423112 -169.093594 
L 373.581818 -169.093594 
L 373.581818 -169.093594 
L 373.581818 -169.093594 
L 368.423112 -169.093594 
L 363.264407 -169.093594 
L 358.105701 -169.093594 
L 352.946995 -169.093594 
L 347.78829 -169.093594 
L 342.629584 -169.093594 
L 337.470878 -169.093594 
L 332.312173 -168.717885 
L 327.153467 -168.717885 
L 321.994761 -168.717885 
L 316.836055 -168.717885 
L 311.67735 -168.717885 
L 306.518644 -168.717885 
L 301.359938 -168.717885 
L 296.201233 -169.093594 
L 291.042527 -169.093594 
L 285.883821 -169.093594 
L 280.725116 -169.093594 
L 275.56641 -169.093594 
L 270.407704 -169.093594 
L 265.248998 -169.093594 
L 260.090293 -168.717885 
L 254.931587 -168.717885 
L 249.772881 -168.717885 
L 244.614176 -168.717885 
L 239.45547 -168.717885 
L 234.296764 -168.717885 
L 229.138059 -168.717885 
L 223.979353 -168.717885 
L 218.820647 -168.717885 
L 213.661941 -168.717885 
L 208.503236 -168.717885 
L 203.34453 -168.717885 
L 198.185824 -168.717885 
L 193.027119 -168.717885 
L 187.868413 -168.717885 
L 182.709707 -168.717885 
L 177.551002 -168.717885 
L 172.392296 -23.146752 
L 167.23359 -168.000322 
L 162.074884 -168.000322 
L 156.916179 -168.000322 
L 151.757473 -168.000322 
L 146.598767 -169.093594 
L 141.440062 -169.093594 
L 136.281356 -150.305333 
L 131.12265 -149.545923 
L 125.963945 -168.717885 
L 120.805239 -168.264216 
L 115.646533 -168.504368 
L 110.487827 -168.504368 
L 105.329122 -168.302785 
L 100.170416 -121.254536 
L 95.01171 -120.942302 
L 89.853005 -37.950785 
L 84.694299 -33.966338 
L 79.535593 -30.654043 
L 74.376888 -34.31667 
L 69.218182 -34.535672 
z
" style="stroke: #009435; stroke-opacity: 0.2"/>
    </defs>
    <g clip-path="url(#p28b3083828)">
     <use xlink:href="#m7cd1969e6c" x="0" y="288" style="fill: #009435; fill-opacity: 0.2; stroke: #009435; stroke-opacity: 0.2"/>
    </g>
   </g>
   <g id="matplotlib.axis_1">
    <g id="xtick_1">
     <g id="line2d_1">
      <path d="M 69.218182 252 
L 69.218182 34.56 
" clip-path="url(#p28b3083828)" style="fill: none; stroke-dasharray: 2.96,1.28; stroke-dashoffset: 0; stroke: #b0b0b0; stroke-width: 0.8"/>
     </g>
     <g id="line2d_2">
      <defs>
       <path id="mb343a3347d" d="M 0 0 
L 0 3.5 
" style="stroke: #000000; stroke-width: 0.8"/>
      </defs>
      <g>
       <use xlink:href="#mb343a3347d" x="69.218182" y="252" style="stroke: #000000; stroke-width: 0.8"/>
      </g>
     </g>
     <g id="text_1">
      <!-- 0 -->
      <g transform="translate(66.036932 266.598437)scale(0.1 -0.1)">
       <defs>
        <path id="DejaVuSans-30" d="M 2034 4250 
Q 1547 4250 1301 3770 
Q 1056 3291 1056 2328 
Q 1056 1369 1301 889 
Q 1547 409 2034 409 
Q 2525 409 2770 889 
Q 3016 1369 3016 2328 
Q 3016 3291 2770 3770 
Q 2525 4250 2034 4250 
z
M 2034 4750 
Q 2819 4750 3233 4129 
Q 3647 3509 3647 2328 
Q 3647 1150 3233 529 
Q 2819 -91 2034 -91 
Q 1250 -91 836 529 
Q 422 1150 422 2328 
Q 422 3509 836 4129 
Q 1250 4750 2034 4750 
z
" transform="scale(0.015625)"/>
       </defs>
       <use xlink:href="#DejaVuSans-30"/>
      </g>
     </g>
    </g>
    <g id="xtick_2">
     <g id="line2d_3">
      <path d="M 120.805239 252 
L 120.805239 34.56 
" clip-path="url(#p28b3083828)" style="fill: none; stroke-dasharray: 2.96,1.28; stroke-dashoffset: 0; stroke: #b0b0b0; stroke-width: 0.8"/>
     </g>
     <g id="line2d_4">
      <g>
       <use xlink:href="#mb343a3347d" x="120.805239" y="252" style="stroke: #000000; stroke-width: 0.8"/>
      </g>
     </g>
     <g id="text_2">
      <!-- 500 -->
      <g transform="translate(111.261489 266.598437)scale(0.1 -0.1)">
       <defs>
        <path id="DejaVuSans-35" d="M 691 4666 
L 3169 4666 
L 3169 4134 
L 1269 4134 
L 1269 2991 
Q 1406 3038 1543 3061 
Q 1681 3084 1819 3084 
Q 2600 3084 3056 2656 
Q 3513 2228 3513 1497 
Q 3513 744 3044 326 
Q 2575 -91 1722 -91 
Q 1428 -91 1123 -41 
Q 819 9 494 109 
L 494 744 
Q 775 591 1075 516 
Q 1375 441 1709 441 
Q 2250 441 2565 725 
Q 2881 1009 2881 1497 
Q 2881 1984 2565 2268 
Q 2250 2553 1709 2553 
Q 1456 2553 1204 2497 
Q 953 2441 691 2322 
L 691 4666 
z
" transform="scale(0.015625)"/>
       </defs>
       <use xlink:href="#DejaVuSans-35"/>
       <use xlink:href="#DejaVuSans-30" x="63.623047"/>
       <use xlink:href="#DejaVuSans-30" x="127.246094"/>
      </g>
     </g>
    </g>
    <g id="xtick_3">
     <g id="line2d_5">
      <path d="M 172.392296 252 
L 172.392296 34.56 
" clip-path="url(#p28b3083828)" style="fill: none; stroke-dasharray: 2.96,1.28; stroke-dashoffset: 0; stroke: #b0b0b0; stroke-width: 0.8"/>
     </g>
     <g id="line2d_6">
      <g>
       <use xlink:href="#mb343a3347d" x="172.392296" y="252" style="stroke: #000000; stroke-width: 0.8"/>
      </g>
     </g>
     <g id="text_3">
      <!-- 1000 -->
      <g transform="translate(159.667296 266.598437)scale(0.1 -0.1)">
       <defs>
        <path id="DejaVuSans-31" d="M 794 531 
L 1825 531 
L 1825 4091 
L 703 3866 
L 703 4441 
L 1819 4666 
L 2450 4666 
L 2450 531 
L 3481 531 
L 3481 0 
L 794 0 
L 794 531 
z
" transform="scale(0.015625)"/>
       </defs>
       <use xlink:href="#DejaVuSans-31"/>
       <use xlink:href="#DejaVuSans-30" x="63.623047"/>
       <use xlink:href="#DejaVuSans-30" x="127.246094"/>
       <use xlink:href="#DejaVuSans-30" x="190.869141"/>
      </g>
     </g>
    </g>
    <g id="xtick_4">
     <g id="line2d_7">
      <path d="M 223.979353 252 
L 223.979353 34.56 
" clip-path="url(#p28b3083828)" style="fill: none; stroke-dasharray: 2.96,1.28; stroke-dashoffset: 0; stroke: #b0b0b0; stroke-width: 0.8"/>
     </g>
     <g id="line2d_8">
      <g>
       <use xlink:href="#mb343a3347d" x="223.979353" y="252" style="stroke: #000000; stroke-width: 0.8"/>
      </g>
     </g>
     <g id="text_4">
      <!-- 1500 -->
      <g transform="translate(211.254353 266.598437)scale(0.1 -0.1)">
       <use xlink:href="#DejaVuSans-31"/>
       <use xlink:href="#DejaVuSans-35" x="63.623047"/>
       <use xlink:href="#DejaVuSans-30" x="127.246094"/>
       <use xlink:href="#DejaVuSans-30" x="190.869141"/>
      </g>
     </g>
    </g>
    <g id="xtick_5">
     <g id="line2d_9">
      <path d="M 275.56641 252 
L 275.56641 34.56 
" clip-path="url(#p28b3083828)" style="fill: none; stroke-dasharray: 2.96,1.28; stroke-dashoffset: 0; stroke: #b0b0b0; stroke-width: 0.8"/>
     </g>
     <g id="line2d_10">
      <g>
       <use xlink:href="#mb343a3347d" x="275.56641" y="252" style="stroke: #000000; stroke-width: 0.8"/>
      </g>
     </g>
     <g id="text_5">
      <!-- 2000 -->
      <g transform="translate(262.84141 266.598437)scale(0.1 -0.1)">
       <defs>
        <path id="DejaVuSans-32" d="M 1228 531 
L 3431 531 
L 3431 0 
L 469 0 
L 469 531 
Q 828 903 1448 1529 
Q 2069 2156 2228 2338 
Q 2531 2678 2651 2914 
Q 2772 3150 2772 3378 
Q 2772 3750 2511 3984 
Q 2250 4219 1831 4219 
Q 1534 4219 1204 4116 
Q 875 4013 500 3803 
L 500 4441 
Q 881 4594 1212 4672 
Q 1544 4750 1819 4750 
Q 2544 4750 2975 4387 
Q 3406 4025 3406 3419 
Q 3406 3131 3298 2873 
Q 3191 2616 2906 2266 
Q 2828 2175 2409 1742 
Q 1991 1309 1228 531 
z
" transform="scale(0.015625)"/>
       </defs>
       <use xlink:href="#DejaVuSans-32"/>
       <use xlink:href="#DejaVuSans-30" x="63.623047"/>
       <use xlink:href="#DejaVuSans-30" x="127.246094"/>
       <use xlink:href="#DejaVuSans-30" x="190.869141"/>
      </g>
     </g>
    </g>
    <g id="xtick_6">
     <g id="line2d_11">
      <path d="M 327.153467 252 
L 327.153467 34.56 
" clip-path="url(#p28b3083828)" style="fill: none; stroke-dasharray: 2.96,1.28; stroke-dashoffset: 0; stroke: #b0b0b0; stroke-width: 0.8"/>
     </g>
     <g id="line2d_12">
      <g>
       <use xlink:href="#mb343a3347d" x="327.153467" y="252" style="stroke: #000000; stroke-width: 0.8"/>
      </g>
     </g>
     <g id="text_6">
      <!-- 2500 -->
      <g transform="translate(314.428467 266.598437)scale(0.1 -0.1)">
       <use xlink:href="#DejaVuSans-32"/>
       <use xlink:href="#DejaVuSans-35" x="63.623047"/>
       <use xlink:href="#DejaVuSans-30" x="127.246094"/>
       <use xlink:href="#DejaVuSans-30" x="190.869141"/>
      </g>
     </g>
    </g>
    <g id="xtick_7">
     <g id="line2d_13">
      <path d="M 378.740524 252 
L 378.740524 34.56 
" clip-path="url(#p28b3083828)" style="fill: none; stroke-dasharray: 2.96,1.28; stroke-dashoffset: 0; stroke: #b0b0b0; stroke-width: 0.8"/>
     </g>
     <g id="line2d_14">
      <g>
       <use xlink:href="#mb343a3347d" x="378.740524" y="252" style="stroke: #000000; stroke-width: 0.8"/>
      </g>
     </g>
     <g id="text_7">
      <!-- 3000 -->
      <g transform="translate(366.015524 266.598437)scale(0.1 -0.1)">
       <defs>
        <path id="DejaVuSans-33" d="M 2597 2516 
Q 3050 2419 3304 2112 
Q 3559 1806 3559 1356 
Q 3559 666 3084 287 
Q 2609 -91 1734 -91 
Q 1441 -91 1130 -33 
Q 819 25 488 141 
L 488 750 
Q 750 597 1062 519 
Q 1375 441 1716 441 
Q 2309 441 2620 675 
Q 2931 909 2931 1356 
Q 2931 1769 2642 2001 
Q 2353 2234 1838 2234 
L 1294 2234 
L 1294 2753 
L 1863 2753 
Q 2328 2753 2575 2939 
Q 2822 3125 2822 3475 
Q 2822 3834 2567 4026 
Q 2313 4219 1838 4219 
Q 1578 4219 1281 4162 
Q 984 4106 628 3988 
L 628 4550 
Q 988 4650 1302 4700 
Q 1616 4750 1894 4750 
Q 2613 4750 3031 4423 
Q 3450 4097 3450 3541 
Q 3450 3153 3228 2886 
Q 3006 2619 2597 2516 
z
" transform="scale(0.015625)"/>
       </defs>
       <use xlink:href="#DejaVuSans-33"/>
       <use xlink:href="#DejaVuSans-30" x="63.623047"/>
       <use xlink:href="#DejaVuSans-30" x="127.246094"/>
       <use xlink:href="#DejaVuSans-30" x="190.869141"/>
      </g>
     </g>
    </g>
    <g id="text_8">
     <!-- Steps -->
     <g transform="translate(207.410156 280.276563)scale(0.1 -0.1)">
      <defs>
       <path id="DejaVuSans-53" d="M 3425 4513 
L 3425 3897 
Q 3066 4069 2747 4153 
Q 2428 4238 2131 4238 
Q 1616 4238 1336 4038 
Q 1056 3838 1056 3469 
Q 1056 3159 1242 3001 
Q 1428 2844 1947 2747 
L 2328 2669 
Q 3034 2534 3370 2195 
Q 3706 1856 3706 1288 
Q 3706 609 3251 259 
Q 2797 -91 1919 -91 
Q 1588 -91 1214 -16 
Q 841 59 441 206 
L 441 856 
Q 825 641 1194 531 
Q 1563 422 1919 422 
Q 2459 422 2753 634 
Q 3047 847 3047 1241 
Q 3047 1584 2836 1778 
Q 2625 1972 2144 2069 
L 1759 2144 
Q 1053 2284 737 2584 
Q 422 2884 422 3419 
Q 422 4038 858 4394 
Q 1294 4750 2059 4750 
Q 2388 4750 2728 4690 
Q 3069 4631 3425 4513 
z
" transform="scale(0.015625)"/>
       <path id="DejaVuSans-74" d="M 1172 4494 
L 1172 3500 
L 2356 3500 
L 2356 3053 
L 1172 3053 
L 1172 1153 
Q 1172 725 1289 603 
Q 1406 481 1766 481 
L 2356 481 
L 2356 0 
L 1766 0 
Q 1100 0 847 248 
Q 594 497 594 1153 
L 594 3053 
L 172 3053 
L 172 3500 
L 594 3500 
L 594 4494 
L 1172 4494 
z
" transform="scale(0.015625)"/>
       <path id="DejaVuSans-65" d="M 3597 1894 
L 3597 1613 
L 953 1613 
Q 991 1019 1311 708 
Q 1631 397 2203 397 
Q 2534 397 2845 478 
Q 3156 559 3463 722 
L 3463 178 
Q 3153 47 2828 -22 
Q 2503 -91 2169 -91 
Q 1331 -91 842 396 
Q 353 884 353 1716 
Q 353 2575 817 3079 
Q 1281 3584 2069 3584 
Q 2775 3584 3186 3129 
Q 3597 2675 3597 1894 
z
M 3022 2063 
Q 3016 2534 2758 2815 
Q 2500 3097 2075 3097 
Q 1594 3097 1305 2825 
Q 1016 2553 972 2059 
L 3022 2063 
z
" transform="scale(0.015625)"/>
       <path id="DejaVuSans-70" d="M 1159 525 
L 1159 -1331 
L 581 -1331 
L 581 3500 
L 1159 3500 
L 1159 2969 
Q 1341 3281 1617 3432 
Q 1894 3584 2278 3584 
Q 2916 3584 3314 3078 
Q 3713 2572 3713 1747 
Q 3713 922 3314 415 
Q 2916 -91 2278 -91 
Q 1894 -91 1617 61 
Q 1341 213 1159 525 
z
M 3116 1747 
Q 3116 2381 2855 2742 
Q 2594 3103 2138 3103 
Q 1681 3103 1420 2742 
Q 1159 2381 1159 1747 
Q 1159 1113 1420 752 
Q 1681 391 2138 391 
Q 2594 391 2855 752 
Q 3116 1113 3116 1747 
z
" transform="scale(0.015625)"/>
       <path id="DejaVuSans-73" d="M 2834 3397 
L 2834 2853 
Q 2591 2978 2328 3040 
Q 2066 3103 1784 3103 
Q 1356 3103 1142 2972 
Q 928 2841 928 2578 
Q 928 2378 1081 2264 
Q 1234 2150 1697 2047 
L 1894 2003 
Q 2506 1872 2764 1633 
Q 3022 1394 3022 966 
Q 3022 478 2636 193 
Q 2250 -91 1575 -91 
Q 1294 -91 989 -36 
Q 684 19 347 128 
L 347 722 
Q 666 556 975 473 
Q 1284 391 1588 391 
Q 1994 391 2212 530 
Q 2431 669 2431 922 
Q 2431 1156 2273 1281 
Q 2116 1406 1581 1522 
L 1381 1569 
Q 847 1681 609 1914 
Q 372 2147 372 2553 
Q 372 3047 722 3315 
Q 1072 3584 1716 3584 
Q 2034 3584 2315 3537 
Q 2597 3491 2834 3397 
z
" transform="scale(0.015625)"/>
      </defs>
      <use xlink:href="#DejaVuSans-53"/>
      <use xlink:href="#DejaVuSans-74" x="63.476562"/>
      <use xlink:href="#DejaVuSans-65" x="102.685547"/>
      <use xlink:href="#DejaVuSans-70" x="164.208984"/>
      <use xlink:href="#DejaVuSans-73" x="227.685547"/>
     </g>
    </g>
   </g>
   <g id="matplotlib.axis_2">
    <g id="ytick_1">
     <g id="line2d_15">
      <path d="M 54 243.636923 
L 388.8 243.636923 
" clip-path="url(#p28b3083828)" style="fill: none; stroke-dasharray: 2.96,1.28; stroke-dashoffset: 0; stroke: #b0b0b0; stroke-width: 0.8"/>
     </g>
     <g id="line2d_16">
      <defs>
       <path id="mc54d2219af" d="M 0 0 
L -3.5 0 
" style="stroke: #000000; stroke-width: 0.8"/>
      </defs>
      <g>
       <use xlink:href="#mc54d2219af" x="54" y="243.636923" style="stroke: #000000; stroke-width: 0.8"/>
      </g>
     </g>
     <g id="text_9">
      <!-- −12 -->
      <g transform="translate(25.895312 247.436142)scale(0.1 -0.1)">
       <defs>
        <path id="DejaVuSans-2212" d="M 678 2272 
L 4684 2272 
L 4684 1741 
L 678 1741 
L 678 2272 
z
" transform="scale(0.015625)"/>
       </defs>
       <use xlink:href="#DejaVuSans-2212"/>
       <use xlink:href="#DejaVuSans-31" x="83.789062"/>
       <use xlink:href="#DejaVuSans-32" x="147.412109"/>
      </g>
     </g>
    </g>
    <g id="ytick_2">
     <g id="line2d_17">
      <path d="M 54 210.184615 
L 388.8 210.184615 
" clip-path="url(#p28b3083828)" style="fill: none; stroke-dasharray: 2.96,1.28; stroke-dashoffset: 0; stroke: #b0b0b0; stroke-width: 0.8"/>
     </g>
     <g id="line2d_18">
      <g>
       <use xlink:href="#mc54d2219af" x="54" y="210.184615" style="stroke: #000000; stroke-width: 0.8"/>
      </g>
     </g>
     <g id="text_10">
      <!-- −10 -->
      <g transform="translate(25.895312 213.983834)scale(0.1 -0.1)">
       <use xlink:href="#DejaVuSans-2212"/>
       <use xlink:href="#DejaVuSans-31" x="83.789062"/>
       <use xlink:href="#DejaVuSans-30" x="147.412109"/>
      </g>
     </g>
    </g>
    <g id="ytick_3">
     <g id="line2d_19">
      <path d="M 54 176.732308 
L 388.8 176.732308 
" clip-path="url(#p28b3083828)" style="fill: none; stroke-dasharray: 2.96,1.28; stroke-dashoffset: 0; stroke: #b0b0b0; stroke-width: 0.8"/>
     </g>
     <g id="line2d_20">
      <g>
       <use xlink:href="#mc54d2219af" x="54" y="176.732308" style="stroke: #000000; stroke-width: 0.8"/>
      </g>
     </g>
     <g id="text_11">
      <!-- −8 -->
      <g transform="translate(32.257812 180.531526)scale(0.1 -0.1)">
       <defs>
        <path id="DejaVuSans-38" d="M 2034 2216 
Q 1584 2216 1326 1975 
Q 1069 1734 1069 1313 
Q 1069 891 1326 650 
Q 1584 409 2034 409 
Q 2484 409 2743 651 
Q 3003 894 3003 1313 
Q 3003 1734 2745 1975 
Q 2488 2216 2034 2216 
z
M 1403 2484 
Q 997 2584 770 2862 
Q 544 3141 544 3541 
Q 544 4100 942 4425 
Q 1341 4750 2034 4750 
Q 2731 4750 3128 4425 
Q 3525 4100 3525 3541 
Q 3525 3141 3298 2862 
Q 3072 2584 2669 2484 
Q 3125 2378 3379 2068 
Q 3634 1759 3634 1313 
Q 3634 634 3220 271 
Q 2806 -91 2034 -91 
Q 1263 -91 848 271 
Q 434 634 434 1313 
Q 434 1759 690 2068 
Q 947 2378 1403 2484 
z
M 1172 3481 
Q 1172 3119 1398 2916 
Q 1625 2713 2034 2713 
Q 2441 2713 2670 2916 
Q 2900 3119 2900 3481 
Q 2900 3844 2670 4047 
Q 2441 4250 2034 4250 
Q 1625 4250 1398 4047 
Q 1172 3844 1172 3481 
z
" transform="scale(0.015625)"/>
       </defs>
       <use xlink:href="#DejaVuSans-2212"/>
       <use xlink:href="#DejaVuSans-38" x="83.789062"/>
      </g>
     </g>
    </g>
    <g id="ytick_4">
     <g id="line2d_21">
      <path d="M 54 143.28 
L 388.8 143.28 
" clip-path="url(#p28b3083828)" style="fill: none; stroke-dasharray: 2.96,1.28; stroke-dashoffset: 0; stroke: #b0b0b0; stroke-width: 0.8"/>
     </g>
     <g id="line2d_22">
      <g>
       <use xlink:href="#mc54d2219af" x="54" y="143.28" style="stroke: #000000; stroke-width: 0.8"/>
      </g>
     </g>
     <g id="text_12">
      <!-- −6 -->
      <g transform="translate(32.257812 147.079219)scale(0.1 -0.1)">
       <defs>
        <path id="DejaVuSans-36" d="M 2113 2584 
Q 1688 2584 1439 2293 
Q 1191 2003 1191 1497 
Q 1191 994 1439 701 
Q 1688 409 2113 409 
Q 2538 409 2786 701 
Q 3034 994 3034 1497 
Q 3034 2003 2786 2293 
Q 2538 2584 2113 2584 
z
M 3366 4563 
L 3366 3988 
Q 3128 4100 2886 4159 
Q 2644 4219 2406 4219 
Q 1781 4219 1451 3797 
Q 1122 3375 1075 2522 
Q 1259 2794 1537 2939 
Q 1816 3084 2150 3084 
Q 2853 3084 3261 2657 
Q 3669 2231 3669 1497 
Q 3669 778 3244 343 
Q 2819 -91 2113 -91 
Q 1303 -91 875 529 
Q 447 1150 447 2328 
Q 447 3434 972 4092 
Q 1497 4750 2381 4750 
Q 2619 4750 2861 4703 
Q 3103 4656 3366 4563 
z
" transform="scale(0.015625)"/>
       </defs>
       <use xlink:href="#DejaVuSans-2212"/>
       <use xlink:href="#DejaVuSans-36" x="83.789062"/>
      </g>
     </g>
    </g>
    <g id="ytick_5">
     <g id="line2d_23">
      <path d="M 54 109.827692 
L 388.8 109.827692 
" clip-path="url(#p28b3083828)" style="fill: none; stroke-dasharray: 2.96,1.28; stroke-dashoffset: 0; stroke: #b0b0b0; stroke-width: 0.8"/>
     </g>
     <g id="line2d_24">
      <g>
       <use xlink:href="#mc54d2219af" x="54" y="109.827692" style="stroke: #000000; stroke-width: 0.8"/>
      </g>
     </g>
     <g id="text_13">
      <!-- −4 -->
      <g transform="translate(32.257812 113.626911)scale(0.1 -0.1)">
       <defs>
        <path id="DejaVuSans-34" d="M 2419 4116 
L 825 1625 
L 2419 1625 
L 2419 4116 
z
M 2253 4666 
L 3047 4666 
L 3047 1625 
L 3713 1625 
L 3713 1100 
L 3047 1100 
L 3047 0 
L 2419 0 
L 2419 1100 
L 313 1100 
L 313 1709 
L 2253 4666 
z
" transform="scale(0.015625)"/>
       </defs>
       <use xlink:href="#DejaVuSans-2212"/>
       <use xlink:href="#DejaVuSans-34" x="83.789062"/>
      </g>
     </g>
    </g>
    <g id="ytick_6">
     <g id="line2d_25">
      <path d="M 54 76.375385 
L 388.8 76.375385 
" clip-path="url(#p28b3083828)" style="fill: none; stroke-dasharray: 2.96,1.28; stroke-dashoffset: 0; stroke: #b0b0b0; stroke-width: 0.8"/>
     </g>
     <g id="line2d_26">
      <g>
       <use xlink:href="#mc54d2219af" x="54" y="76.375385" style="stroke: #000000; stroke-width: 0.8"/>
      </g>
     </g>
     <g id="text_14">
      <!-- −2 -->
      <g transform="translate(32.257812 80.174603)scale(0.1 -0.1)">
       <use xlink:href="#DejaVuSans-2212"/>
       <use xlink:href="#DejaVuSans-32" x="83.789062"/>
      </g>
     </g>
    </g>
    <g id="ytick_7">
     <g id="line2d_27">
      <path d="M 54 42.923077 
L 388.8 42.923077 
" clip-path="url(#p28b3083828)" style="fill: none; stroke-dasharray: 2.96,1.28; stroke-dashoffset: 0; stroke: #b0b0b0; stroke-width: 0.8"/>
     </g>
     <g id="line2d_28">
      <g>
       <use xlink:href="#mc54d2219af" x="54" y="42.923077" style="stroke: #000000; stroke-width: 0.8"/>
      </g>
     </g>
     <g id="text_15">
      <!-- 0 -->
      <g transform="translate(40.6375 46.722296)scale(0.1 -0.1)">
       <use xlink:href="#DejaVuSans-30"/>
      </g>
     </g>
    </g>
    <g id="text_16">
     <!-- Policy value error -->
     <g transform="translate(19.815625 186.597969)rotate(-90)scale(0.1 -0.1)">
      <defs>
       <path id="DejaVuSans-50" d="M 1259 4147 
L 1259 2394 
L 2053 2394 
Q 2494 2394 2734 2622 
Q 2975 2850 2975 3272 
Q 2975 3691 2734 3919 
Q 2494 4147 2053 4147 
L 1259 4147 
z
M 628 4666 
L 2053 4666 
Q 2838 4666 3239 4311 
Q 3641 3956 3641 3272 
Q 3641 2581 3239 2228 
Q 2838 1875 2053 1875 
L 1259 1875 
L 1259 0 
L 628 0 
L 628 4666 
z
" transform="scale(0.015625)"/>
       <path id="DejaVuSans-6f" d="M 1959 3097 
Q 1497 3097 1228 2736 
Q 959 2375 959 1747 
Q 959 1119 1226 758 
Q 1494 397 1959 397 
Q 2419 397 2687 759 
Q 2956 1122 2956 1747 
Q 2956 2369 2687 2733 
Q 2419 3097 1959 3097 
z
M 1959 3584 
Q 2709 3584 3137 3096 
Q 3566 2609 3566 1747 
Q 3566 888 3137 398 
Q 2709 -91 1959 -91 
Q 1206 -91 779 398 
Q 353 888 353 1747 
Q 353 2609 779 3096 
Q 1206 3584 1959 3584 
z
" transform="scale(0.015625)"/>
       <path id="DejaVuSans-6c" d="M 603 4863 
L 1178 4863 
L 1178 0 
L 603 0 
L 603 4863 
z
" transform="scale(0.015625)"/>
       <path id="DejaVuSans-69" d="M 603 3500 
L 1178 3500 
L 1178 0 
L 603 0 
L 603 3500 
z
M 603 4863 
L 1178 4863 
L 1178 4134 
L 603 4134 
L 603 4863 
z
" transform="scale(0.015625)"/>
       <path id="DejaVuSans-63" d="M 3122 3366 
L 3122 2828 
Q 2878 2963 2633 3030 
Q 2388 3097 2138 3097 
Q 1578 3097 1268 2742 
Q 959 2388 959 1747 
Q 959 1106 1268 751 
Q 1578 397 2138 397 
Q 2388 397 2633 464 
Q 2878 531 3122 666 
L 3122 134 
Q 2881 22 2623 -34 
Q 2366 -91 2075 -91 
Q 1284 -91 818 406 
Q 353 903 353 1747 
Q 353 2603 823 3093 
Q 1294 3584 2113 3584 
Q 2378 3584 2631 3529 
Q 2884 3475 3122 3366 
z
" transform="scale(0.015625)"/>
       <path id="DejaVuSans-79" d="M 2059 -325 
Q 1816 -950 1584 -1140 
Q 1353 -1331 966 -1331 
L 506 -1331 
L 506 -850 
L 844 -850 
Q 1081 -850 1212 -737 
Q 1344 -625 1503 -206 
L 1606 56 
L 191 3500 
L 800 3500 
L 1894 763 
L 2988 3500 
L 3597 3500 
L 2059 -325 
z
" transform="scale(0.015625)"/>
       <path id="DejaVuSans-20" transform="scale(0.015625)"/>
       <path id="DejaVuSans-76" d="M 191 3500 
L 800 3500 
L 1894 563 
L 2988 3500 
L 3597 3500 
L 2284 0 
L 1503 0 
L 191 3500 
z
" transform="scale(0.015625)"/>
       <path id="DejaVuSans-61" d="M 2194 1759 
Q 1497 1759 1228 1600 
Q 959 1441 959 1056 
Q 959 750 1161 570 
Q 1363 391 1709 391 
Q 2188 391 2477 730 
Q 2766 1069 2766 1631 
L 2766 1759 
L 2194 1759 
z
M 3341 1997 
L 3341 0 
L 2766 0 
L 2766 531 
Q 2569 213 2275 61 
Q 1981 -91 1556 -91 
Q 1019 -91 701 211 
Q 384 513 384 1019 
Q 384 1609 779 1909 
Q 1175 2209 1959 2209 
L 2766 2209 
L 2766 2266 
Q 2766 2663 2505 2880 
Q 2244 3097 1772 3097 
Q 1472 3097 1187 3025 
Q 903 2953 641 2809 
L 641 3341 
Q 956 3463 1253 3523 
Q 1550 3584 1831 3584 
Q 2591 3584 2966 3190 
Q 3341 2797 3341 1997 
z
" transform="scale(0.015625)"/>
       <path id="DejaVuSans-75" d="M 544 1381 
L 544 3500 
L 1119 3500 
L 1119 1403 
Q 1119 906 1312 657 
Q 1506 409 1894 409 
Q 2359 409 2629 706 
Q 2900 1003 2900 1516 
L 2900 3500 
L 3475 3500 
L 3475 0 
L 2900 0 
L 2900 538 
Q 2691 219 2414 64 
Q 2138 -91 1772 -91 
Q 1169 -91 856 284 
Q 544 659 544 1381 
z
M 1991 3584 
L 1991 3584 
z
" transform="scale(0.015625)"/>
       <path id="DejaVuSans-72" d="M 2631 2963 
Q 2534 3019 2420 3045 
Q 2306 3072 2169 3072 
Q 1681 3072 1420 2755 
Q 1159 2438 1159 1844 
L 1159 0 
L 581 0 
L 581 3500 
L 1159 3500 
L 1159 2956 
Q 1341 3275 1631 3429 
Q 1922 3584 2338 3584 
Q 2397 3584 2469 3576 
Q 2541 3569 2628 3553 
L 2631 2963 
z
" transform="scale(0.015625)"/>
      </defs>
      <use xlink:href="#DejaVuSans-50"/>
      <use xlink:href="#DejaVuSans-6f" x="56.677734"/>
      <use xlink:href="#DejaVuSans-6c" x="117.859375"/>
      <use xlink:href="#DejaVuSans-69" x="145.642578"/>
      <use xlink:href="#DejaVuSans-63" x="173.425781"/>
      <use xlink:href="#DejaVuSans-79" x="228.40625"/>
      <use xlink:href="#DejaVuSans-20" x="287.585938"/>
      <use xlink:href="#DejaVuSans-76" x="319.373047"/>
      <use xlink:href="#DejaVuSans-61" x="378.552734"/>
      <use xlink:href="#DejaVuSans-6c" x="439.832031"/>
      <use xlink:href="#DejaVuSans-75" x="467.615234"/>
      <use xlink:href="#DejaVuSans-65" x="530.994141"/>
      <use xlink:href="#DejaVuSans-20" x="592.517578"/>
      <use xlink:href="#DejaVuSans-65" x="624.304688"/>
      <use xlink:href="#DejaVuSans-72" x="685.828125"/>
      <use xlink:href="#DejaVuSans-72" x="725.191406"/>
      <use xlink:href="#DejaVuSans-6f" x="764.054688"/>
      <use xlink:href="#DejaVuSans-72" x="825.236328"/>
     </g>
    </g>
   </g>
   <g id="line2d_29">
    <path d="M 69.218182 254.498539 
L 74.376888 259.906416 
L 79.535593 212.784151 
L 84.694299 255.236407 
L 89.853005 264.567196 
L 95.01171 134.865288 
L 100.170416 89.697903 
L 105.329122 99.134905 
L 110.487827 58.42941 
L 115.646533 62.427569 
L 120.805239 58.173417 
L 125.963945 58.173417 
L 131.12265 83.466071 
L 136.281356 62.412697 
L 141.440062 58.173417 
L 146.598767 58.209079 
L 151.757473 62.412697 
L 156.916179 69.907376 
L 162.074884 58.209079 
L 167.23359 58.209079 
L 172.392296 58.209079 
L 177.551002 58.209079 
L 182.709707 58.209079 
L 187.868413 58.209079 
L 193.027119 58.209079 
L 198.185824 58.209079 
L 203.34453 58.269523 
L 208.503236 58.269523 
L 213.661941 58.269523 
L 218.820647 58.269523 
L 223.979353 58.269523 
L 229.138059 58.269523 
L 234.296764 58.269523 
L 239.45547 58.269523 
L 244.614176 58.269523 
L 249.772881 58.269523 
L 254.931587 58.269523 
L 260.090293 58.269523 
L 265.248998 62.263286 
L 270.407704 66.318902 
L 275.56641 58.269523 
L 280.725116 58.269523 
L 285.883821 58.269523 
L 291.042527 58.269523 
L 296.201233 58.269523 
L 301.359938 57.642179 
L 306.518644 57.642179 
L 311.67735 57.642179 
L 316.836055 57.642179 
L 321.994761 57.642179 
L 327.153467 57.642179 
L 332.312173 57.642179 
L 337.470878 57.642179 
L 342.629584 57.642179 
L 347.78829 57.642179 
L 352.946995 57.642179 
L 358.105701 57.642179 
L 363.264407 57.642179 
L 368.423112 57.642179 
L 373.581818 58.173417 
" clip-path="url(#p28b3083828)" style="fill: none; stroke: #9d02d7; stroke-width: 1.5; stroke-linecap: square"/>
    <defs>
     <path id="maa2989f6ba" d="M 0 -2 
L -2 2 
L 2 2 
z
" style="stroke: #9d02d7; stroke-linejoin: miter"/>
    </defs>
    <g clip-path="url(#p28b3083828)">
     <use xlink:href="#maa2989f6ba" x="69.218182" y="254.498539" style="fill: #9d02d7; stroke: #9d02d7; stroke-linejoin: miter"/>
     <use xlink:href="#maa2989f6ba" x="74.376888" y="259.906416" style="fill: #9d02d7; stroke: #9d02d7; stroke-linejoin: miter"/>
     <use xlink:href="#maa2989f6ba" x="79.535593" y="212.784151" style="fill: #9d02d7; stroke: #9d02d7; stroke-linejoin: miter"/>
     <use xlink:href="#maa2989f6ba" x="84.694299" y="255.236407" style="fill: #9d02d7; stroke: #9d02d7; stroke-linejoin: miter"/>
     <use xlink:href="#maa2989f6ba" x="89.853005" y="264.567196" style="fill: #9d02d7; stroke: #9d02d7; stroke-linejoin: miter"/>
     <use xlink:href="#maa2989f6ba" x="95.01171" y="134.865288" style="fill: #9d02d7; stroke: #9d02d7; stroke-linejoin: miter"/>
     <use xlink:href="#maa2989f6ba" x="100.170416" y="89.697903" style="fill: #9d02d7; stroke: #9d02d7; stroke-linejoin: miter"/>
     <use xlink:href="#maa2989f6ba" x="105.329122" y="99.134905" style="fill: #9d02d7; stroke: #9d02d7; stroke-linejoin: miter"/>
     <use xlink:href="#maa2989f6ba" x="110.487827" y="58.42941" style="fill: #9d02d7; stroke: #9d02d7; stroke-linejoin: miter"/>
     <use xlink:href="#maa2989f6ba" x="115.646533" y="62.427569" style="fill: #9d02d7; stroke: #9d02d7; stroke-linejoin: miter"/>
     <use xlink:href="#maa2989f6ba" x="120.805239" y="58.173417" style="fill: #9d02d7; stroke: #9d02d7; stroke-linejoin: miter"/>
     <use xlink:href="#maa2989f6ba" x="125.963945" y="58.173417" style="fill: #9d02d7; stroke: #9d02d7; stroke-linejoin: miter"/>
     <use xlink:href="#maa2989f6ba" x="131.12265" y="83.466071" style="fill: #9d02d7; stroke: #9d02d7; stroke-linejoin: miter"/>
     <use xlink:href="#maa2989f6ba" x="136.281356" y="62.412697" style="fill: #9d02d7; stroke: #9d02d7; stroke-linejoin: miter"/>
     <use xlink:href="#maa2989f6ba" x="141.440062" y="58.173417" style="fill: #9d02d7; stroke: #9d02d7; stroke-linejoin: miter"/>
     <use xlink:href="#maa2989f6ba" x="146.598767" y="58.209079" style="fill: #9d02d7; stroke: #9d02d7; stroke-linejoin: miter"/>
     <use xlink:href="#maa2989f6ba" x="151.757473" y="62.412697" style="fill: #9d02d7; stroke: #9d02d7; stroke-linejoin: miter"/>
     <use xlink:href="#maa2989f6ba" x="156.916179" y="69.907376" style="fill: #9d02d7; stroke: #9d02d7; stroke-linejoin: miter"/>
     <use xlink:href="#maa2989f6ba" x="162.074884" y="58.209079" style="fill: #9d02d7; stroke: #9d02d7; stroke-linejoin: miter"/>
     <use xlink:href="#maa2989f6ba" x="167.23359" y="58.209079" style="fill: #9d02d7; stroke: #9d02d7; stroke-linejoin: miter"/>
     <use xlink:href="#maa2989f6ba" x="172.392296" y="58.209079" style="fill: #9d02d7; stroke: #9d02d7; stroke-linejoin: miter"/>
     <use xlink:href="#maa2989f6ba" x="177.551002" y="58.209079" style="fill: #9d02d7; stroke: #9d02d7; stroke-linejoin: miter"/>
     <use xlink:href="#maa2989f6ba" x="182.709707" y="58.209079" style="fill: #9d02d7; stroke: #9d02d7; stroke-linejoin: miter"/>
     <use xlink:href="#maa2989f6ba" x="187.868413" y="58.209079" style="fill: #9d02d7; stroke: #9d02d7; stroke-linejoin: miter"/>
     <use xlink:href="#maa2989f6ba" x="193.027119" y="58.209079" style="fill: #9d02d7; stroke: #9d02d7; stroke-linejoin: miter"/>
     <use xlink:href="#maa2989f6ba" x="198.185824" y="58.209079" style="fill: #9d02d7; stroke: #9d02d7; stroke-linejoin: miter"/>
     <use xlink:href="#maa2989f6ba" x="203.34453" y="58.269523" style="fill: #9d02d7; stroke: #9d02d7; stroke-linejoin: miter"/>
     <use xlink:href="#maa2989f6ba" x="208.503236" y="58.269523" style="fill: #9d02d7; stroke: #9d02d7; stroke-linejoin: miter"/>
     <use xlink:href="#maa2989f6ba" x="213.661941" y="58.269523" style="fill: #9d02d7; stroke: #9d02d7; stroke-linejoin: miter"/>
     <use xlink:href="#maa2989f6ba" x="218.820647" y="58.269523" style="fill: #9d02d7; stroke: #9d02d7; stroke-linejoin: miter"/>
     <use xlink:href="#maa2989f6ba" x="223.979353" y="58.269523" style="fill: #9d02d7; stroke: #9d02d7; stroke-linejoin: miter"/>
     <use xlink:href="#maa2989f6ba" x="229.138059" y="58.269523" style="fill: #9d02d7; stroke: #9d02d7; stroke-linejoin: miter"/>
     <use xlink:href="#maa2989f6ba" x="234.296764" y="58.269523" style="fill: #9d02d7; stroke: #9d02d7; stroke-linejoin: miter"/>
     <use xlink:href="#maa2989f6ba" x="239.45547" y="58.269523" style="fill: #9d02d7; stroke: #9d02d7; stroke-linejoin: miter"/>
     <use xlink:href="#maa2989f6ba" x="244.614176" y="58.269523" style="fill: #9d02d7; stroke: #9d02d7; stroke-linejoin: miter"/>
     <use xlink:href="#maa2989f6ba" x="249.772881" y="58.269523" style="fill: #9d02d7; stroke: #9d02d7; stroke-linejoin: miter"/>
     <use xlink:href="#maa2989f6ba" x="254.931587" y="58.269523" style="fill: #9d02d7; stroke: #9d02d7; stroke-linejoin: miter"/>
     <use xlink:href="#maa2989f6ba" x="260.090293" y="58.269523" style="fill: #9d02d7; stroke: #9d02d7; stroke-linejoin: miter"/>
     <use xlink:href="#maa2989f6ba" x="265.248998" y="62.263286" style="fill: #9d02d7; stroke: #9d02d7; stroke-linejoin: miter"/>
     <use xlink:href="#maa2989f6ba" x="270.407704" y="66.318902" style="fill: #9d02d7; stroke: #9d02d7; stroke-linejoin: miter"/>
     <use xlink:href="#maa2989f6ba" x="275.56641" y="58.269523" style="fill: #9d02d7; stroke: #9d02d7; stroke-linejoin: miter"/>
     <use xlink:href="#maa2989f6ba" x="280.725116" y="58.269523" style="fill: #9d02d7; stroke: #9d02d7; stroke-linejoin: miter"/>
     <use xlink:href="#maa2989f6ba" x="285.883821" y="58.269523" style="fill: #9d02d7; stroke: #9d02d7; stroke-linejoin: miter"/>
     <use xlink:href="#maa2989f6ba" x="291.042527" y="58.269523" style="fill: #9d02d7; stroke: #9d02d7; stroke-linejoin: miter"/>
     <use xlink:href="#maa2989f6ba" x="296.201233" y="58.269523" style="fill: #9d02d7; stroke: #9d02d7; stroke-linejoin: miter"/>
     <use xlink:href="#maa2989f6ba" x="301.359938" y="57.642179" style="fill: #9d02d7; stroke: #9d02d7; stroke-linejoin: miter"/>
     <use xlink:href="#maa2989f6ba" x="306.518644" y="57.642179" style="fill: #9d02d7; stroke: #9d02d7; stroke-linejoin: miter"/>
     <use xlink:href="#maa2989f6ba" x="311.67735" y="57.642179" style="fill: #9d02d7; stroke: #9d02d7; stroke-linejoin: miter"/>
     <use xlink:href="#maa2989f6ba" x="316.836055" y="57.642179" style="fill: #9d02d7; stroke: #9d02d7; stroke-linejoin: miter"/>
     <use xlink:href="#maa2989f6ba" x="321.994761" y="57.642179" style="fill: #9d02d7; stroke: #9d02d7; stroke-linejoin: miter"/>
     <use xlink:href="#maa2989f6ba" x="327.153467" y="57.642179" style="fill: #9d02d7; stroke: #9d02d7; stroke-linejoin: miter"/>
     <use xlink:href="#maa2989f6ba" x="332.312173" y="57.642179" style="fill: #9d02d7; stroke: #9d02d7; stroke-linejoin: miter"/>
     <use xlink:href="#maa2989f6ba" x="337.470878" y="57.642179" style="fill: #9d02d7; stroke: #9d02d7; stroke-linejoin: miter"/>
     <use xlink:href="#maa2989f6ba" x="342.629584" y="57.642179" style="fill: #9d02d7; stroke: #9d02d7; stroke-linejoin: miter"/>
     <use xlink:href="#maa2989f6ba" x="347.78829" y="57.642179" style="fill: #9d02d7; stroke: #9d02d7; stroke-linejoin: miter"/>
     <use xlink:href="#maa2989f6ba" x="352.946995" y="57.642179" style="fill: #9d02d7; stroke: #9d02d7; stroke-linejoin: miter"/>
     <use xlink:href="#maa2989f6ba" x="358.105701" y="57.642179" style="fill: #9d02d7; stroke: #9d02d7; stroke-linejoin: miter"/>
     <use xlink:href="#maa2989f6ba" x="363.264407" y="57.642179" style="fill: #9d02d7; stroke: #9d02d7; stroke-linejoin: miter"/>
     <use xlink:href="#maa2989f6ba" x="368.423112" y="57.642179" style="fill: #9d02d7; stroke: #9d02d7; stroke-linejoin: miter"/>
     <use xlink:href="#maa2989f6ba" x="373.581818" y="58.173417" style="fill: #9d02d7; stroke: #9d02d7; stroke-linejoin: miter"/>
    </g>
   </g>
   <g id="line2d_30">
    <path d="M 69.218182 253.791928 
L 74.376888 256.598205 
L 79.535593 254.953061 
L 84.694299 256.478612 
L 89.853005 94.461413 
L 95.01171 105.430271 
L 100.170416 83.98716 
L 105.329122 81.554033 
L 110.487827 82.690109 
L 115.646533 82.918202 
L 120.805239 82.845544 
L 125.963945 92.831047 
L 131.12265 82.471263 
L 136.281356 73.707341 
L 141.440062 74.130154 
L 146.598767 73.28207 
L 151.757473 73.707341 
L 156.916179 73.558981 
L 162.074884 73.28207 
L 167.23359 72.966063 
L 172.392296 73.707341 
L 177.551002 72.90702 
L 182.709707 73.913832 
L 187.868413 75.18281 
L 193.027119 74.566184 
L 198.185824 72.966063 
L 203.34453 73.558981 
L 208.503236 73.28207 
L 213.661941 64.213888 
L 218.820647 73.842453 
L 223.979353 74.130154 
L 229.138059 73.28207 
L 234.296764 63.230546 
L 239.45547 63.640458 
L 244.614176 63.640458 
L 249.772881 63.640458 
L 254.931587 63.466681 
L 260.090293 63.230546 
L 265.248998 63.466681 
L 270.407704 63.230546 
L 275.56641 63.466681 
L 280.725116 62.946488 
L 285.883821 63.367136 
L 291.042527 63.230546 
L 296.201233 62.946488 
L 301.359938 63.640458 
L 306.518644 63.466681 
L 311.67735 63.230546 
L 316.836055 63.367136 
L 321.994761 62.963352 
L 327.153467 62.963352 
L 332.312173 62.946488 
L 337.470878 66.022411 
L 342.629584 64.199404 
L 347.78829 63.640458 
L 352.946995 62.963352 
L 358.105701 62.946488 
L 363.264407 62.946488 
L 368.423112 62.946488 
L 373.581818 62.946488 
" clip-path="url(#p28b3083828)" style="fill: none; stroke: #0000ff; stroke-width: 1.5; stroke-linecap: square"/>
    <defs>
     <path id="m53f6f1a17f" d="M 0 2 
C 0.530406 2 1.03916 1.789267 1.414214 1.414214 
C 1.789267 1.03916 2 0.530406 2 0 
C 2 -0.530406 1.789267 -1.03916 1.414214 -1.414214 
C 1.03916 -1.789267 0.530406 -2 0 -2 
C -0.530406 -2 -1.03916 -1.789267 -1.414214 -1.414214 
C -1.789267 -1.03916 -2 -0.530406 -2 0 
C -2 0.530406 -1.789267 1.03916 -1.414214 1.414214 
C -1.03916 1.789267 -0.530406 2 0 2 
z
" style="stroke: #0000ff"/>
    </defs>
    <g clip-path="url(#p28b3083828)">
     <use xlink:href="#m53f6f1a17f" x="69.218182" y="253.791928" style="fill: #0000ff; stroke: #0000ff"/>
     <use xlink:href="#m53f6f1a17f" x="74.376888" y="256.598205" style="fill: #0000ff; stroke: #0000ff"/>
     <use xlink:href="#m53f6f1a17f" x="79.535593" y="254.953061" style="fill: #0000ff; stroke: #0000ff"/>
     <use xlink:href="#m53f6f1a17f" x="84.694299" y="256.478612" style="fill: #0000ff; stroke: #0000ff"/>
     <use xlink:href="#m53f6f1a17f" x="89.853005" y="94.461413" style="fill: #0000ff; stroke: #0000ff"/>
     <use xlink:href="#m53f6f1a17f" x="95.01171" y="105.430271" style="fill: #0000ff; stroke: #0000ff"/>
     <use xlink:href="#m53f6f1a17f" x="100.170416" y="83.98716" style="fill: #0000ff; stroke: #0000ff"/>
     <use xlink:href="#m53f6f1a17f" x="105.329122" y="81.554033" style="fill: #0000ff; stroke: #0000ff"/>
     <use xlink:href="#m53f6f1a17f" x="110.487827" y="82.690109" style="fill: #0000ff; stroke: #0000ff"/>
     <use xlink:href="#m53f6f1a17f" x="115.646533" y="82.918202" style="fill: #0000ff; stroke: #0000ff"/>
     <use xlink:href="#m53f6f1a17f" x="120.805239" y="82.845544" style="fill: #0000ff; stroke: #0000ff"/>
     <use xlink:href="#m53f6f1a17f" x="125.963945" y="92.831047" style="fill: #0000ff; stroke: #0000ff"/>
     <use xlink:href="#m53f6f1a17f" x="131.12265" y="82.471263" style="fill: #0000ff; stroke: #0000ff"/>
     <use xlink:href="#m53f6f1a17f" x="136.281356" y="73.707341" style="fill: #0000ff; stroke: #0000ff"/>
     <use xlink:href="#m53f6f1a17f" x="141.440062" y="74.130154" style="fill: #0000ff; stroke: #0000ff"/>
     <use xlink:href="#m53f6f1a17f" x="146.598767" y="73.28207" style="fill: #0000ff; stroke: #0000ff"/>
     <use xlink:href="#m53f6f1a17f" x="151.757473" y="73.707341" style="fill: #0000ff; stroke: #0000ff"/>
     <use xlink:href="#m53f6f1a17f" x="156.916179" y="73.558981" style="fill: #0000ff; stroke: #0000ff"/>
     <use xlink:href="#m53f6f1a17f" x="162.074884" y="73.28207" style="fill: #0000ff; stroke: #0000ff"/>
     <use xlink:href="#m53f6f1a17f" x="167.23359" y="72.966063" style="fill: #0000ff; stroke: #0000ff"/>
     <use xlink:href="#m53f6f1a17f" x="172.392296" y="73.707341" style="fill: #0000ff; stroke: #0000ff"/>
     <use xlink:href="#m53f6f1a17f" x="177.551002" y="72.90702" style="fill: #0000ff; stroke: #0000ff"/>
     <use xlink:href="#m53f6f1a17f" x="182.709707" y="73.913832" style="fill: #0000ff; stroke: #0000ff"/>
     <use xlink:href="#m53f6f1a17f" x="187.868413" y="75.18281" style="fill: #0000ff; stroke: #0000ff"/>
     <use xlink:href="#m53f6f1a17f" x="193.027119" y="74.566184" style="fill: #0000ff; stroke: #0000ff"/>
     <use xlink:href="#m53f6f1a17f" x="198.185824" y="72.966063" style="fill: #0000ff; stroke: #0000ff"/>
     <use xlink:href="#m53f6f1a17f" x="203.34453" y="73.558981" style="fill: #0000ff; stroke: #0000ff"/>
     <use xlink:href="#m53f6f1a17f" x="208.503236" y="73.28207" style="fill: #0000ff; stroke: #0000ff"/>
     <use xlink:href="#m53f6f1a17f" x="213.661941" y="64.213888" style="fill: #0000ff; stroke: #0000ff"/>
     <use xlink:href="#m53f6f1a17f" x="218.820647" y="73.842453" style="fill: #0000ff; stroke: #0000ff"/>
     <use xlink:href="#m53f6f1a17f" x="223.979353" y="74.130154" style="fill: #0000ff; stroke: #0000ff"/>
     <use xlink:href="#m53f6f1a17f" x="229.138059" y="73.28207" style="fill: #0000ff; stroke: #0000ff"/>
     <use xlink:href="#m53f6f1a17f" x="234.296764" y="63.230546" style="fill: #0000ff; stroke: #0000ff"/>
     <use xlink:href="#m53f6f1a17f" x="239.45547" y="63.640458" style="fill: #0000ff; stroke: #0000ff"/>
     <use xlink:href="#m53f6f1a17f" x="244.614176" y="63.640458" style="fill: #0000ff; stroke: #0000ff"/>
     <use xlink:href="#m53f6f1a17f" x="249.772881" y="63.640458" style="fill: #0000ff; stroke: #0000ff"/>
     <use xlink:href="#m53f6f1a17f" x="254.931587" y="63.466681" style="fill: #0000ff; stroke: #0000ff"/>
     <use xlink:href="#m53f6f1a17f" x="260.090293" y="63.230546" style="fill: #0000ff; stroke: #0000ff"/>
     <use xlink:href="#m53f6f1a17f" x="265.248998" y="63.466681" style="fill: #0000ff; stroke: #0000ff"/>
     <use xlink:href="#m53f6f1a17f" x="270.407704" y="63.230546" style="fill: #0000ff; stroke: #0000ff"/>
     <use xlink:href="#m53f6f1a17f" x="275.56641" y="63.466681" style="fill: #0000ff; stroke: #0000ff"/>
     <use xlink:href="#m53f6f1a17f" x="280.725116" y="62.946488" style="fill: #0000ff; stroke: #0000ff"/>
     <use xlink:href="#m53f6f1a17f" x="285.883821" y="63.367136" style="fill: #0000ff; stroke: #0000ff"/>
     <use xlink:href="#m53f6f1a17f" x="291.042527" y="63.230546" style="fill: #0000ff; stroke: #0000ff"/>
     <use xlink:href="#m53f6f1a17f" x="296.201233" y="62.946488" style="fill: #0000ff; stroke: #0000ff"/>
     <use xlink:href="#m53f6f1a17f" x="301.359938" y="63.640458" style="fill: #0000ff; stroke: #0000ff"/>
     <use xlink:href="#m53f6f1a17f" x="306.518644" y="63.466681" style="fill: #0000ff; stroke: #0000ff"/>
     <use xlink:href="#m53f6f1a17f" x="311.67735" y="63.230546" style="fill: #0000ff; stroke: #0000ff"/>
     <use xlink:href="#m53f6f1a17f" x="316.836055" y="63.367136" style="fill: #0000ff; stroke: #0000ff"/>
     <use xlink:href="#m53f6f1a17f" x="321.994761" y="62.963352" style="fill: #0000ff; stroke: #0000ff"/>
     <use xlink:href="#m53f6f1a17f" x="327.153467" y="62.963352" style="fill: #0000ff; stroke: #0000ff"/>
     <use xlink:href="#m53f6f1a17f" x="332.312173" y="62.946488" style="fill: #0000ff; stroke: #0000ff"/>
     <use xlink:href="#m53f6f1a17f" x="337.470878" y="66.022411" style="fill: #0000ff; stroke: #0000ff"/>
     <use xlink:href="#m53f6f1a17f" x="342.629584" y="64.199404" style="fill: #0000ff; stroke: #0000ff"/>
     <use xlink:href="#m53f6f1a17f" x="347.78829" y="63.640458" style="fill: #0000ff; stroke: #0000ff"/>
     <use xlink:href="#m53f6f1a17f" x="352.946995" y="62.963352" style="fill: #0000ff; stroke: #0000ff"/>
     <use xlink:href="#m53f6f1a17f" x="358.105701" y="62.946488" style="fill: #0000ff; stroke: #0000ff"/>
     <use xlink:href="#m53f6f1a17f" x="363.264407" y="62.946488" style="fill: #0000ff; stroke: #0000ff"/>
     <use xlink:href="#m53f6f1a17f" x="368.423112" y="62.946488" style="fill: #0000ff; stroke: #0000ff"/>
     <use xlink:href="#m53f6f1a17f" x="373.581818" y="62.946488" style="fill: #0000ff; stroke: #0000ff"/>
    </g>
   </g>
   <g id="line2d_31">
    <path d="M 69.218182 253.026265 
L 74.376888 253.376191 
L 79.535593 267.304703 
L 84.694299 165.319334 
L 89.853005 256.957874 
L 95.01171 109.989489 
L 100.170416 102.935944 
L 105.329122 102.466349 
L 110.487827 54.549664 
L 115.646533 70.595037 
L 120.805239 53.61569 
L 125.963945 58.9609 
L 131.12265 53.760076 
L 136.281356 55.385933 
L 141.440062 51.326932 
L 146.598767 56.923541 
L 151.757473 56.072717 
L 156.916179 56.190242 
L 162.074884 51.326932 
L 167.23359 54.858478 
L 172.392296 55.675474 
L 177.551002 53.760076 
L 182.709707 63.561928 
L 187.868413 63.261143 
L 193.027119 54.858478 
L 198.185824 51.389159 
L 203.34453 57.62843 
L 208.503236 53.715586 
L 213.661941 57.628431 
L 218.820647 60.64325 
L 223.979353 63.226396 
L 229.138059 54.768802 
L 234.296764 53.96254 
L 239.45547 57.571245 
L 244.614176 51.968391 
L 249.772881 62.253366 
L 254.931587 62.559142 
L 260.090293 57.713737 
L 265.248998 54.902808 
L 270.407704 62.559142 
L 275.56641 54.094118 
L 280.725116 54.094118 
L 285.883821 62.559142 
L 291.042527 62.559142 
L 296.201233 61.683406 
L 301.359938 51.513565 
L 306.518644 53.61569 
L 311.67735 51.389159 
L 316.836055 53.61569 
L 321.994761 51.389159 
L 327.153467 51.513565 
L 332.312173 51.389159 
L 337.470878 51.513565 
L 342.629584 51.389159 
L 347.78829 51.389159 
L 352.946995 51.513565 
L 358.105701 51.389159 
L 363.264407 51.389159 
L 368.423112 51.389159 
L 373.581818 51.389159 
" clip-path="url(#p28b3083828)" style="fill: none; stroke: #ff7763; stroke-width: 1.5; stroke-linecap: square"/>
    <defs>
     <path id="m00dfe400fc" d="M -2 2 
L 2 -2 
M -2 -2 
L 2 2 
" style="stroke: #ff7763"/>
    </defs>
    <g clip-path="url(#p28b3083828)">
     <use xlink:href="#m00dfe400fc" x="69.218182" y="253.026265" style="fill: #ff7763; stroke: #ff7763"/>
     <use xlink:href="#m00dfe400fc" x="74.376888" y="253.376191" style="fill: #ff7763; stroke: #ff7763"/>
     <use xlink:href="#m00dfe400fc" x="79.535593" y="267.304703" style="fill: #ff7763; stroke: #ff7763"/>
     <use xlink:href="#m00dfe400fc" x="84.694299" y="165.319334" style="fill: #ff7763; stroke: #ff7763"/>
     <use xlink:href="#m00dfe400fc" x="89.853005" y="256.957874" style="fill: #ff7763; stroke: #ff7763"/>
     <use xlink:href="#m00dfe400fc" x="95.01171" y="109.989489" style="fill: #ff7763; stroke: #ff7763"/>
     <use xlink:href="#m00dfe400fc" x="100.170416" y="102.935944" style="fill: #ff7763; stroke: #ff7763"/>
     <use xlink:href="#m00dfe400fc" x="105.329122" y="102.466349" style="fill: #ff7763; stroke: #ff7763"/>
     <use xlink:href="#m00dfe400fc" x="110.487827" y="54.549664" style="fill: #ff7763; stroke: #ff7763"/>
     <use xlink:href="#m00dfe400fc" x="115.646533" y="70.595037" style="fill: #ff7763; stroke: #ff7763"/>
     <use xlink:href="#m00dfe400fc" x="120.805239" y="53.61569" style="fill: #ff7763; stroke: #ff7763"/>
     <use xlink:href="#m00dfe400fc" x="125.963945" y="58.9609" style="fill: #ff7763; stroke: #ff7763"/>
     <use xlink:href="#m00dfe400fc" x="131.12265" y="53.760076" style="fill: #ff7763; stroke: #ff7763"/>
     <use xlink:href="#m00dfe400fc" x="136.281356" y="55.385933" style="fill: #ff7763; stroke: #ff7763"/>
     <use xlink:href="#m00dfe400fc" x="141.440062" y="51.326932" style="fill: #ff7763; stroke: #ff7763"/>
     <use xlink:href="#m00dfe400fc" x="146.598767" y="56.923541" style="fill: #ff7763; stroke: #ff7763"/>
     <use xlink:href="#m00dfe400fc" x="151.757473" y="56.072717" style="fill: #ff7763; stroke: #ff7763"/>
     <use xlink:href="#m00dfe400fc" x="156.916179" y="56.190242" style="fill: #ff7763; stroke: #ff7763"/>
     <use xlink:href="#m00dfe400fc" x="162.074884" y="51.326932" style="fill: #ff7763; stroke: #ff7763"/>
     <use xlink:href="#m00dfe400fc" x="167.23359" y="54.858478" style="fill: #ff7763; stroke: #ff7763"/>
     <use xlink:href="#m00dfe400fc" x="172.392296" y="55.675474" style="fill: #ff7763; stroke: #ff7763"/>
     <use xlink:href="#m00dfe400fc" x="177.551002" y="53.760076" style="fill: #ff7763; stroke: #ff7763"/>
     <use xlink:href="#m00dfe400fc" x="182.709707" y="63.561928" style="fill: #ff7763; stroke: #ff7763"/>
     <use xlink:href="#m00dfe400fc" x="187.868413" y="63.261143" style="fill: #ff7763; stroke: #ff7763"/>
     <use xlink:href="#m00dfe400fc" x="193.027119" y="54.858478" style="fill: #ff7763; stroke: #ff7763"/>
     <use xlink:href="#m00dfe400fc" x="198.185824" y="51.389159" style="fill: #ff7763; stroke: #ff7763"/>
     <use xlink:href="#m00dfe400fc" x="203.34453" y="57.62843" style="fill: #ff7763; stroke: #ff7763"/>
     <use xlink:href="#m00dfe400fc" x="208.503236" y="53.715586" style="fill: #ff7763; stroke: #ff7763"/>
     <use xlink:href="#m00dfe400fc" x="213.661941" y="57.628431" style="fill: #ff7763; stroke: #ff7763"/>
     <use xlink:href="#m00dfe400fc" x="218.820647" y="60.64325" style="fill: #ff7763; stroke: #ff7763"/>
     <use xlink:href="#m00dfe400fc" x="223.979353" y="63.226396" style="fill: #ff7763; stroke: #ff7763"/>
     <use xlink:href="#m00dfe400fc" x="229.138059" y="54.768802" style="fill: #ff7763; stroke: #ff7763"/>
     <use xlink:href="#m00dfe400fc" x="234.296764" y="53.96254" style="fill: #ff7763; stroke: #ff7763"/>
     <use xlink:href="#m00dfe400fc" x="239.45547" y="57.571245" style="fill: #ff7763; stroke: #ff7763"/>
     <use xlink:href="#m00dfe400fc" x="244.614176" y="51.968391" style="fill: #ff7763; stroke: #ff7763"/>
     <use xlink:href="#m00dfe400fc" x="249.772881" y="62.253366" style="fill: #ff7763; stroke: #ff7763"/>
     <use xlink:href="#m00dfe400fc" x="254.931587" y="62.559142" style="fill: #ff7763; stroke: #ff7763"/>
     <use xlink:href="#m00dfe400fc" x="260.090293" y="57.713737" style="fill: #ff7763; stroke: #ff7763"/>
     <use xlink:href="#m00dfe400fc" x="265.248998" y="54.902808" style="fill: #ff7763; stroke: #ff7763"/>
     <use xlink:href="#m00dfe400fc" x="270.407704" y="62.559142" style="fill: #ff7763; stroke: #ff7763"/>
     <use xlink:href="#m00dfe400fc" x="275.56641" y="54.094118" style="fill: #ff7763; stroke: #ff7763"/>
     <use xlink:href="#m00dfe400fc" x="280.725116" y="54.094118" style="fill: #ff7763; stroke: #ff7763"/>
     <use xlink:href="#m00dfe400fc" x="285.883821" y="62.559142" style="fill: #ff7763; stroke: #ff7763"/>
     <use xlink:href="#m00dfe400fc" x="291.042527" y="62.559142" style="fill: #ff7763; stroke: #ff7763"/>
     <use xlink:href="#m00dfe400fc" x="296.201233" y="61.683406" style="fill: #ff7763; stroke: #ff7763"/>
     <use xlink:href="#m00dfe400fc" x="301.359938" y="51.513565" style="fill: #ff7763; stroke: #ff7763"/>
     <use xlink:href="#m00dfe400fc" x="306.518644" y="53.61569" style="fill: #ff7763; stroke: #ff7763"/>
     <use xlink:href="#m00dfe400fc" x="311.67735" y="51.389159" style="fill: #ff7763; stroke: #ff7763"/>
     <use xlink:href="#m00dfe400fc" x="316.836055" y="53.61569" style="fill: #ff7763; stroke: #ff7763"/>
     <use xlink:href="#m00dfe400fc" x="321.994761" y="51.389159" style="fill: #ff7763; stroke: #ff7763"/>
     <use xlink:href="#m00dfe400fc" x="327.153467" y="51.513565" style="fill: #ff7763; stroke: #ff7763"/>
     <use xlink:href="#m00dfe400fc" x="332.312173" y="51.389159" style="fill: #ff7763; stroke: #ff7763"/>
     <use xlink:href="#m00dfe400fc" x="337.470878" y="51.513565" style="fill: #ff7763; stroke: #ff7763"/>
     <use xlink:href="#m00dfe400fc" x="342.629584" y="51.389159" style="fill: #ff7763; stroke: #ff7763"/>
     <use xlink:href="#m00dfe400fc" x="347.78829" y="51.389159" style="fill: #ff7763; stroke: #ff7763"/>
     <use xlink:href="#m00dfe400fc" x="352.946995" y="51.513565" style="fill: #ff7763; stroke: #ff7763"/>
     <use xlink:href="#m00dfe400fc" x="358.105701" y="51.389159" style="fill: #ff7763; stroke: #ff7763"/>
     <use xlink:href="#m00dfe400fc" x="363.264407" y="51.389159" style="fill: #ff7763; stroke: #ff7763"/>
     <use xlink:href="#m00dfe400fc" x="368.423112" y="51.389159" style="fill: #ff7763; stroke: #ff7763"/>
     <use xlink:href="#m00dfe400fc" x="373.581818" y="51.389159" style="fill: #ff7763; stroke: #ff7763"/>
    </g>
   </g>
   <g id="line2d_32">
    <path d="M 69.218182 254.648685 
L 74.376888 253.155387 
L 79.535593 254.199485 
L 84.694299 254.272251 
L 89.853005 109.163625 
L 95.01171 230.55447 
L 100.170416 208.001238 
L 105.329122 95.150443 
L 110.487827 83.459907 
L 115.646533 83.453192 
L 120.805239 45.481741 
L 125.963945 45.796116 
L 131.12265 45.760522 
L 136.281356 46.065832 
L 141.440062 45.736544 
L 146.598767 45.758531 
L 151.757473 57.506465 
L 156.916179 45.943584 
L 162.074884 45.943584 
L 167.23359 46.090956 
L 172.392296 46.112619 
L 177.551002 45.921906 
L 182.709707 46.090956 
L 187.868413 46.102714 
L 193.027119 46.279119 
L 198.185824 61.916069 
L 203.34453 57.940285 
L 208.503236 46.257469 
L 213.661941 46.257469 
L 218.820647 46.102714 
L 223.979353 46.279119 
L 229.138059 46.112619 
L 234.296764 46.198006 
L 239.45547 57.212023 
L 244.614176 56.750867 
L 249.772881 56.745913 
L 254.931587 57.20707 
L 260.090293 55.176367 
L 265.248998 55.176367 
L 270.407704 55.176367 
L 275.56641 46.219664 
L 280.725116 46.219664 
L 285.883821 45.933065 
L 291.042527 46.198006 
L 296.201233 45.911386 
L 301.359938 45.911386 
L 306.518644 45.933065 
L 311.67735 45.779789 
L 316.836055 45.779789 
L 321.994761 46.090956 
L 327.153467 45.921906 
L 332.312173 45.943584 
L 337.470878 45.943584 
L 342.629584 46.112619 
L 347.78829 45.943584 
L 352.946995 46.112619 
L 358.105701 45.943584 
L 363.264407 46.090956 
L 368.423112 46.112619 
L 373.581818 46.090956 
" clip-path="url(#p28b3083828)" style="fill: none; stroke: #ffac1e; stroke-width: 1.5; stroke-linecap: square"/>
    <defs>
     <path id="m7f9de4a0ad" d="M 0 -2 
L -0.449028 -0.618034 
L -1.902113 -0.618034 
L -0.726543 0.236068 
L -1.175571 1.618034 
L -0 0.763932 
L 1.175571 1.618034 
L 0.726543 0.236068 
L 1.902113 -0.618034 
L 0.449028 -0.618034 
z
" style="stroke: #ffac1e; stroke-linejoin: bevel"/>
    </defs>
    <g clip-path="url(#p28b3083828)">
     <use xlink:href="#m7f9de4a0ad" x="69.218182" y="254.648685" style="fill: #ffac1e; stroke: #ffac1e; stroke-linejoin: bevel"/>
     <use xlink:href="#m7f9de4a0ad" x="74.376888" y="253.155387" style="fill: #ffac1e; stroke: #ffac1e; stroke-linejoin: bevel"/>
     <use xlink:href="#m7f9de4a0ad" x="79.535593" y="254.199485" style="fill: #ffac1e; stroke: #ffac1e; stroke-linejoin: bevel"/>
     <use xlink:href="#m7f9de4a0ad" x="84.694299" y="254.272251" style="fill: #ffac1e; stroke: #ffac1e; stroke-linejoin: bevel"/>
     <use xlink:href="#m7f9de4a0ad" x="89.853005" y="109.163625" style="fill: #ffac1e; stroke: #ffac1e; stroke-linejoin: bevel"/>
     <use xlink:href="#m7f9de4a0ad" x="95.01171" y="230.55447" style="fill: #ffac1e; stroke: #ffac1e; stroke-linejoin: bevel"/>
     <use xlink:href="#m7f9de4a0ad" x="100.170416" y="208.001238" style="fill: #ffac1e; stroke: #ffac1e; stroke-linejoin: bevel"/>
     <use xlink:href="#m7f9de4a0ad" x="105.329122" y="95.150443" style="fill: #ffac1e; stroke: #ffac1e; stroke-linejoin: bevel"/>
     <use xlink:href="#m7f9de4a0ad" x="110.487827" y="83.459907" style="fill: #ffac1e; stroke: #ffac1e; stroke-linejoin: bevel"/>
     <use xlink:href="#m7f9de4a0ad" x="115.646533" y="83.453192" style="fill: #ffac1e; stroke: #ffac1e; stroke-linejoin: bevel"/>
     <use xlink:href="#m7f9de4a0ad" x="120.805239" y="45.481741" style="fill: #ffac1e; stroke: #ffac1e; stroke-linejoin: bevel"/>
     <use xlink:href="#m7f9de4a0ad" x="125.963945" y="45.796116" style="fill: #ffac1e; stroke: #ffac1e; stroke-linejoin: bevel"/>
     <use xlink:href="#m7f9de4a0ad" x="131.12265" y="45.760522" style="fill: #ffac1e; stroke: #ffac1e; stroke-linejoin: bevel"/>
     <use xlink:href="#m7f9de4a0ad" x="136.281356" y="46.065832" style="fill: #ffac1e; stroke: #ffac1e; stroke-linejoin: bevel"/>
     <use xlink:href="#m7f9de4a0ad" x="141.440062" y="45.736544" style="fill: #ffac1e; stroke: #ffac1e; stroke-linejoin: bevel"/>
     <use xlink:href="#m7f9de4a0ad" x="146.598767" y="45.758531" style="fill: #ffac1e; stroke: #ffac1e; stroke-linejoin: bevel"/>
     <use xlink:href="#m7f9de4a0ad" x="151.757473" y="57.506465" style="fill: #ffac1e; stroke: #ffac1e; stroke-linejoin: bevel"/>
     <use xlink:href="#m7f9de4a0ad" x="156.916179" y="45.943584" style="fill: #ffac1e; stroke: #ffac1e; stroke-linejoin: bevel"/>
     <use xlink:href="#m7f9de4a0ad" x="162.074884" y="45.943584" style="fill: #ffac1e; stroke: #ffac1e; stroke-linejoin: bevel"/>
     <use xlink:href="#m7f9de4a0ad" x="167.23359" y="46.090956" style="fill: #ffac1e; stroke: #ffac1e; stroke-linejoin: bevel"/>
     <use xlink:href="#m7f9de4a0ad" x="172.392296" y="46.112619" style="fill: #ffac1e; stroke: #ffac1e; stroke-linejoin: bevel"/>
     <use xlink:href="#m7f9de4a0ad" x="177.551002" y="45.921906" style="fill: #ffac1e; stroke: #ffac1e; stroke-linejoin: bevel"/>
     <use xlink:href="#m7f9de4a0ad" x="182.709707" y="46.090956" style="fill: #ffac1e; stroke: #ffac1e; stroke-linejoin: bevel"/>
     <use xlink:href="#m7f9de4a0ad" x="187.868413" y="46.102714" style="fill: #ffac1e; stroke: #ffac1e; stroke-linejoin: bevel"/>
     <use xlink:href="#m7f9de4a0ad" x="193.027119" y="46.279119" style="fill: #ffac1e; stroke: #ffac1e; stroke-linejoin: bevel"/>
     <use xlink:href="#m7f9de4a0ad" x="198.185824" y="61.916069" style="fill: #ffac1e; stroke: #ffac1e; stroke-linejoin: bevel"/>
     <use xlink:href="#m7f9de4a0ad" x="203.34453" y="57.940285" style="fill: #ffac1e; stroke: #ffac1e; stroke-linejoin: bevel"/>
     <use xlink:href="#m7f9de4a0ad" x="208.503236" y="46.257469" style="fill: #ffac1e; stroke: #ffac1e; stroke-linejoin: bevel"/>
     <use xlink:href="#m7f9de4a0ad" x="213.661941" y="46.257469" style="fill: #ffac1e; stroke: #ffac1e; stroke-linejoin: bevel"/>
     <use xlink:href="#m7f9de4a0ad" x="218.820647" y="46.102714" style="fill: #ffac1e; stroke: #ffac1e; stroke-linejoin: bevel"/>
     <use xlink:href="#m7f9de4a0ad" x="223.979353" y="46.279119" style="fill: #ffac1e; stroke: #ffac1e; stroke-linejoin: bevel"/>
     <use xlink:href="#m7f9de4a0ad" x="229.138059" y="46.112619" style="fill: #ffac1e; stroke: #ffac1e; stroke-linejoin: bevel"/>
     <use xlink:href="#m7f9de4a0ad" x="234.296764" y="46.198006" style="fill: #ffac1e; stroke: #ffac1e; stroke-linejoin: bevel"/>
     <use xlink:href="#m7f9de4a0ad" x="239.45547" y="57.212023" style="fill: #ffac1e; stroke: #ffac1e; stroke-linejoin: bevel"/>
     <use xlink:href="#m7f9de4a0ad" x="244.614176" y="56.750867" style="fill: #ffac1e; stroke: #ffac1e; stroke-linejoin: bevel"/>
     <use xlink:href="#m7f9de4a0ad" x="249.772881" y="56.745913" style="fill: #ffac1e; stroke: #ffac1e; stroke-linejoin: bevel"/>
     <use xlink:href="#m7f9de4a0ad" x="254.931587" y="57.20707" style="fill: #ffac1e; stroke: #ffac1e; stroke-linejoin: bevel"/>
     <use xlink:href="#m7f9de4a0ad" x="260.090293" y="55.176367" style="fill: #ffac1e; stroke: #ffac1e; stroke-linejoin: bevel"/>
     <use xlink:href="#m7f9de4a0ad" x="265.248998" y="55.176367" style="fill: #ffac1e; stroke: #ffac1e; stroke-linejoin: bevel"/>
     <use xlink:href="#m7f9de4a0ad" x="270.407704" y="55.176367" style="fill: #ffac1e; stroke: #ffac1e; stroke-linejoin: bevel"/>
     <use xlink:href="#m7f9de4a0ad" x="275.56641" y="46.219664" style="fill: #ffac1e; stroke: #ffac1e; stroke-linejoin: bevel"/>
     <use xlink:href="#m7f9de4a0ad" x="280.725116" y="46.219664" style="fill: #ffac1e; stroke: #ffac1e; stroke-linejoin: bevel"/>
     <use xlink:href="#m7f9de4a0ad" x="285.883821" y="45.933065" style="fill: #ffac1e; stroke: #ffac1e; stroke-linejoin: bevel"/>
     <use xlink:href="#m7f9de4a0ad" x="291.042527" y="46.198006" style="fill: #ffac1e; stroke: #ffac1e; stroke-linejoin: bevel"/>
     <use xlink:href="#m7f9de4a0ad" x="296.201233" y="45.911386" style="fill: #ffac1e; stroke: #ffac1e; stroke-linejoin: bevel"/>
     <use xlink:href="#m7f9de4a0ad" x="301.359938" y="45.911386" style="fill: #ffac1e; stroke: #ffac1e; stroke-linejoin: bevel"/>
     <use xlink:href="#m7f9de4a0ad" x="306.518644" y="45.933065" style="fill: #ffac1e; stroke: #ffac1e; stroke-linejoin: bevel"/>
     <use xlink:href="#m7f9de4a0ad" x="311.67735" y="45.779789" style="fill: #ffac1e; stroke: #ffac1e; stroke-linejoin: bevel"/>
     <use xlink:href="#m7f9de4a0ad" x="316.836055" y="45.779789" style="fill: #ffac1e; stroke: #ffac1e; stroke-linejoin: bevel"/>
     <use xlink:href="#m7f9de4a0ad" x="321.994761" y="46.090956" style="fill: #ffac1e; stroke: #ffac1e; stroke-linejoin: bevel"/>
     <use xlink:href="#m7f9de4a0ad" x="327.153467" y="45.921906" style="fill: #ffac1e; stroke: #ffac1e; stroke-linejoin: bevel"/>
     <use xlink:href="#m7f9de4a0ad" x="332.312173" y="45.943584" style="fill: #ffac1e; stroke: #ffac1e; stroke-linejoin: bevel"/>
     <use xlink:href="#m7f9de4a0ad" x="337.470878" y="45.943584" style="fill: #ffac1e; stroke: #ffac1e; stroke-linejoin: bevel"/>
     <use xlink:href="#m7f9de4a0ad" x="342.629584" y="46.112619" style="fill: #ffac1e; stroke: #ffac1e; stroke-linejoin: bevel"/>
     <use xlink:href="#m7f9de4a0ad" x="347.78829" y="45.943584" style="fill: #ffac1e; stroke: #ffac1e; stroke-linejoin: bevel"/>
     <use xlink:href="#m7f9de4a0ad" x="352.946995" y="46.112619" style="fill: #ffac1e; stroke: #ffac1e; stroke-linejoin: bevel"/>
     <use xlink:href="#m7f9de4a0ad" x="358.105701" y="45.943584" style="fill: #ffac1e; stroke: #ffac1e; stroke-linejoin: bevel"/>
     <use xlink:href="#m7f9de4a0ad" x="363.264407" y="46.090956" style="fill: #ffac1e; stroke: #ffac1e; stroke-linejoin: bevel"/>
     <use xlink:href="#m7f9de4a0ad" x="368.423112" y="46.112619" style="fill: #ffac1e; stroke: #ffac1e; stroke-linejoin: bevel"/>
     <use xlink:href="#m7f9de4a0ad" x="373.581818" y="46.090956" style="fill: #ffac1e; stroke: #ffac1e; stroke-linejoin: bevel"/>
    </g>
   </g>
   <g id="line2d_33">
    <path d="M 69.218182 253.464328 
L 74.376888 253.68333 
L 79.535593 257.345957 
L 84.694299 254.033662 
L 89.853005 250.049215 
L 95.01171 167.057698 
L 100.170416 166.745464 
L 105.329122 119.697215 
L 110.487827 119.495632 
L 115.646533 119.495632 
L 120.805239 119.735784 
L 125.963945 119.282115 
L 131.12265 138.454077 
L 136.281356 137.694667 
L 141.440062 118.906406 
L 146.598767 118.906406 
L 151.757473 119.999678 
L 156.916179 119.999678 
L 162.074884 119.999678 
L 167.23359 119.999678 
L 172.392296 264.853248 
L 177.551002 119.282115 
L 182.709707 119.282115 
L 187.868413 119.282115 
L 193.027119 119.282115 
L 198.185824 119.282115 
L 203.34453 119.282115 
L 208.503236 119.282115 
L 213.661941 119.282115 
L 218.820647 119.282115 
L 223.979353 119.282115 
L 229.138059 119.282115 
L 234.296764 119.282115 
L 239.45547 119.282115 
L 244.614176 119.282115 
L 249.772881 119.282115 
L 254.931587 119.282115 
L 260.090293 119.282115 
L 265.248998 118.906406 
L 270.407704 118.906406 
L 275.56641 118.906406 
L 280.725116 118.906406 
L 285.883821 118.906406 
L 291.042527 118.906406 
L 296.201233 118.906406 
L 301.359938 119.282115 
L 306.518644 119.282115 
L 311.67735 119.282115 
L 316.836055 119.282115 
L 321.994761 119.282115 
L 327.153467 119.282115 
L 332.312173 119.282115 
L 337.470878 118.906406 
L 342.629584 118.906406 
L 347.78829 118.906406 
L 352.946995 118.906406 
L 358.105701 118.906406 
L 363.264407 118.906406 
L 368.423112 118.906406 
L 373.581818 118.906406 
" clip-path="url(#p28b3083828)" style="fill: none; stroke: #009435; stroke-width: 1.5; stroke-linecap: square"/>
    <defs>
     <path id="mfd0a653d35" d="M -2 2 
L 2 2 
L 2 -2 
L -2 -2 
z
" style="stroke: #009435; stroke-linejoin: miter"/>
    </defs>
    <g clip-path="url(#p28b3083828)">
     <use xlink:href="#mfd0a653d35" x="69.218182" y="253.464328" style="fill: #009435; stroke: #009435; stroke-linejoin: miter"/>
     <use xlink:href="#mfd0a653d35" x="74.376888" y="253.68333" style="fill: #009435; stroke: #009435; stroke-linejoin: miter"/>
     <use xlink:href="#mfd0a653d35" x="79.535593" y="257.345957" style="fill: #009435; stroke: #009435; stroke-linejoin: miter"/>
     <use xlink:href="#mfd0a653d35" x="84.694299" y="254.033662" style="fill: #009435; stroke: #009435; stroke-linejoin: miter"/>
     <use xlink:href="#mfd0a653d35" x="89.853005" y="250.049215" style="fill: #009435; stroke: #009435; stroke-linejoin: miter"/>
     <use xlink:href="#mfd0a653d35" x="95.01171" y="167.057698" style="fill: #009435; stroke: #009435; stroke-linejoin: miter"/>
     <use xlink:href="#mfd0a653d35" x="100.170416" y="166.745464" style="fill: #009435; stroke: #009435; stroke-linejoin: miter"/>
     <use xlink:href="#mfd0a653d35" x="105.329122" y="119.697215" style="fill: #009435; stroke: #009435; stroke-linejoin: miter"/>
     <use xlink:href="#mfd0a653d35" x="110.487827" y="119.495632" style="fill: #009435; stroke: #009435; stroke-linejoin: miter"/>
     <use xlink:href="#mfd0a653d35" x="115.646533" y="119.495632" style="fill: #009435; stroke: #009435; stroke-linejoin: miter"/>
     <use xlink:href="#mfd0a653d35" x="120.805239" y="119.735784" style="fill: #009435; stroke: #009435; stroke-linejoin: miter"/>
     <use xlink:href="#mfd0a653d35" x="125.963945" y="119.282115" style="fill: #009435; stroke: #009435; stroke-linejoin: miter"/>
     <use xlink:href="#mfd0a653d35" x="131.12265" y="138.454077" style="fill: #009435; stroke: #009435; stroke-linejoin: miter"/>
     <use xlink:href="#mfd0a653d35" x="136.281356" y="137.694667" style="fill: #009435; stroke: #009435; stroke-linejoin: miter"/>
     <use xlink:href="#mfd0a653d35" x="141.440062" y="118.906406" style="fill: #009435; stroke: #009435; stroke-linejoin: miter"/>
     <use xlink:href="#mfd0a653d35" x="146.598767" y="118.906406" style="fill: #009435; stroke: #009435; stroke-linejoin: miter"/>
     <use xlink:href="#mfd0a653d35" x="151.757473" y="119.999678" style="fill: #009435; stroke: #009435; stroke-linejoin: miter"/>
     <use xlink:href="#mfd0a653d35" x="156.916179" y="119.999678" style="fill: #009435; stroke: #009435; stroke-linejoin: miter"/>
     <use xlink:href="#mfd0a653d35" x="162.074884" y="119.999678" style="fill: #009435; stroke: #009435; stroke-linejoin: miter"/>
     <use xlink:href="#mfd0a653d35" x="167.23359" y="119.999678" style="fill: #009435; stroke: #009435; stroke-linejoin: miter"/>
     <use xlink:href="#mfd0a653d35" x="172.392296" y="264.853248" style="fill: #009435; stroke: #009435; stroke-linejoin: miter"/>
     <use xlink:href="#mfd0a653d35" x="177.551002" y="119.282115" style="fill: #009435; stroke: #009435; stroke-linejoin: miter"/>
     <use xlink:href="#mfd0a653d35" x="182.709707" y="119.282115" style="fill: #009435; stroke: #009435; stroke-linejoin: miter"/>
     <use xlink:href="#mfd0a653d35" x="187.868413" y="119.282115" style="fill: #009435; stroke: #009435; stroke-linejoin: miter"/>
     <use xlink:href="#mfd0a653d35" x="193.027119" y="119.282115" style="fill: #009435; stroke: #009435; stroke-linejoin: miter"/>
     <use xlink:href="#mfd0a653d35" x="198.185824" y="119.282115" style="fill: #009435; stroke: #009435; stroke-linejoin: miter"/>
     <use xlink:href="#mfd0a653d35" x="203.34453" y="119.282115" style="fill: #009435; stroke: #009435; stroke-linejoin: miter"/>
     <use xlink:href="#mfd0a653d35" x="208.503236" y="119.282115" style="fill: #009435; stroke: #009435; stroke-linejoin: miter"/>
     <use xlink:href="#mfd0a653d35" x="213.661941" y="119.282115" style="fill: #009435; stroke: #009435; stroke-linejoin: miter"/>
     <use xlink:href="#mfd0a653d35" x="218.820647" y="119.282115" style="fill: #009435; stroke: #009435; stroke-linejoin: miter"/>
     <use xlink:href="#mfd0a653d35" x="223.979353" y="119.282115" style="fill: #009435; stroke: #009435; stroke-linejoin: miter"/>
     <use xlink:href="#mfd0a653d35" x="229.138059" y="119.282115" style="fill: #009435; stroke: #009435; stroke-linejoin: miter"/>
     <use xlink:href="#mfd0a653d35" x="234.296764" y="119.282115" style="fill: #009435; stroke: #009435; stroke-linejoin: miter"/>
     <use xlink:href="#mfd0a653d35" x="239.45547" y="119.282115" style="fill: #009435; stroke: #009435; stroke-linejoin: miter"/>
     <use xlink:href="#mfd0a653d35" x="244.614176" y="119.282115" style="fill: #009435; stroke: #009435; stroke-linejoin: miter"/>
     <use xlink:href="#mfd0a653d35" x="249.772881" y="119.282115" style="fill: #009435; stroke: #009435; stroke-linejoin: miter"/>
     <use xlink:href="#mfd0a653d35" x="254.931587" y="119.282115" style="fill: #009435; stroke: #009435; stroke-linejoin: miter"/>
     <use xlink:href="#mfd0a653d35" x="260.090293" y="119.282115" style="fill: #009435; stroke: #009435; stroke-linejoin: miter"/>
     <use xlink:href="#mfd0a653d35" x="265.248998" y="118.906406" style="fill: #009435; stroke: #009435; stroke-linejoin: miter"/>
     <use xlink:href="#mfd0a653d35" x="270.407704" y="118.906406" style="fill: #009435; stroke: #009435; stroke-linejoin: miter"/>
     <use xlink:href="#mfd0a653d35" x="275.56641" y="118.906406" style="fill: #009435; stroke: #009435; stroke-linejoin: miter"/>
     <use xlink:href="#mfd0a653d35" x="280.725116" y="118.906406" style="fill: #009435; stroke: #009435; stroke-linejoin: miter"/>
     <use xlink:href="#mfd0a653d35" x="285.883821" y="118.906406" style="fill: #009435; stroke: #009435; stroke-linejoin: miter"/>
     <use xlink:href="#mfd0a653d35" x="291.042527" y="118.906406" style="fill: #009435; stroke: #009435; stroke-linejoin: miter"/>
     <use xlink:href="#mfd0a653d35" x="296.201233" y="118.906406" style="fill: #009435; stroke: #009435; stroke-linejoin: miter"/>
     <use xlink:href="#mfd0a653d35" x="301.359938" y="119.282115" style="fill: #009435; stroke: #009435; stroke-linejoin: miter"/>
     <use xlink:href="#mfd0a653d35" x="306.518644" y="119.282115" style="fill: #009435; stroke: #009435; stroke-linejoin: miter"/>
     <use xlink:href="#mfd0a653d35" x="311.67735" y="119.282115" style="fill: #009435; stroke: #009435; stroke-linejoin: miter"/>
     <use xlink:href="#mfd0a653d35" x="316.836055" y="119.282115" style="fill: #009435; stroke: #009435; stroke-linejoin: miter"/>
     <use xlink:href="#mfd0a653d35" x="321.994761" y="119.282115" style="fill: #009435; stroke: #009435; stroke-linejoin: miter"/>
     <use xlink:href="#mfd0a653d35" x="327.153467" y="119.282115" style="fill: #009435; stroke: #009435; stroke-linejoin: miter"/>
     <use xlink:href="#mfd0a653d35" x="332.312173" y="119.282115" style="fill: #009435; stroke: #009435; stroke-linejoin: miter"/>
     <use xlink:href="#mfd0a653d35" x="337.470878" y="118.906406" style="fill: #009435; stroke: #009435; stroke-linejoin: miter"/>
     <use xlink:href="#mfd0a653d35" x="342.629584" y="118.906406" style="fill: #009435; stroke: #009435; stroke-linejoin: miter"/>
     <use xlink:href="#mfd0a653d35" x="347.78829" y="118.906406" style="fill: #009435; stroke: #009435; stroke-linejoin: miter"/>
     <use xlink:href="#mfd0a653d35" x="352.946995" y="118.906406" style="fill: #009435; stroke: #009435; stroke-linejoin: miter"/>
     <use xlink:href="#mfd0a653d35" x="358.105701" y="118.906406" style="fill: #009435; stroke: #009435; stroke-linejoin: miter"/>
     <use xlink:href="#mfd0a653d35" x="363.264407" y="118.906406" style="fill: #009435; stroke: #009435; stroke-linejoin: miter"/>
     <use xlink:href="#mfd0a653d35" x="368.423112" y="118.906406" style="fill: #009435; stroke: #009435; stroke-linejoin: miter"/>
     <use xlink:href="#mfd0a653d35" x="373.581818" y="118.906406" style="fill: #009435; stroke: #009435; stroke-linejoin: miter"/>
    </g>
   </g>
   <g id="patch_3">
    <path d="M 54 252 
L 54 34.56 
" style="fill: none; stroke: #000000; stroke-width: 0.8; stroke-linejoin: miter; stroke-linecap: square"/>
   </g>
   <g id="patch_4">
    <path d="M 388.8 252 
L 388.8 34.56 
" style="fill: none; stroke: #000000; stroke-width: 0.8; stroke-linejoin: miter; stroke-linecap: square"/>
   </g>
   <g id="patch_5">
    <path d="M 54 252 
L 388.8 252 
" style="fill: none; stroke: #000000; stroke-width: 0.8; stroke-linejoin: miter; stroke-linecap: square"/>
   </g>
   <g id="patch_6">
    <path d="M 54 34.56 
L 388.8 34.56 
" style="fill: none; stroke: #000000; stroke-width: 0.8; stroke-linejoin: miter; stroke-linecap: square"/>
   </g>
   <g id="text_17">
    <!-- ζ-R-max agent policy with m = 4.0 -->
    <g transform="translate(117.225 28.56)scale(0.12 -0.12)">
     <defs>
      <path id="DejaVuSans-3b6" d="M 2231 397 
Q 2644 394 2891 159 
Q 3153 -88 3153 -463 
Q 3153 -822 2922 -1072 
Q 2672 -1344 2163 -1344 
Q 2163 -1109 2163 -872 
Q 2378 -888 2509 -750 
Q 2609 -641 2609 -525 
Q 2609 -359 2509 -222 
Q 2413 -91 2231 -91 
Q 338 -91 334 1669 
Q 334 3206 2119 4284 
L 456 4284 
L 456 4863 
L 3175 4863 
L 3175 4284 
Q 913 3147 913 1669 
Q 913 397 2231 397 
z
" transform="scale(0.015625)"/>
      <path id="DejaVuSans-2d" d="M 313 2009 
L 1997 2009 
L 1997 1497 
L 313 1497 
L 313 2009 
z
" transform="scale(0.015625)"/>
      <path id="DejaVuSans-52" d="M 2841 2188 
Q 3044 2119 3236 1894 
Q 3428 1669 3622 1275 
L 4263 0 
L 3584 0 
L 2988 1197 
Q 2756 1666 2539 1819 
Q 2322 1972 1947 1972 
L 1259 1972 
L 1259 0 
L 628 0 
L 628 4666 
L 2053 4666 
Q 2853 4666 3247 4331 
Q 3641 3997 3641 3322 
Q 3641 2881 3436 2590 
Q 3231 2300 2841 2188 
z
M 1259 4147 
L 1259 2491 
L 2053 2491 
Q 2509 2491 2742 2702 
Q 2975 2913 2975 3322 
Q 2975 3731 2742 3939 
Q 2509 4147 2053 4147 
L 1259 4147 
z
" transform="scale(0.015625)"/>
      <path id="DejaVuSans-6d" d="M 3328 2828 
Q 3544 3216 3844 3400 
Q 4144 3584 4550 3584 
Q 5097 3584 5394 3201 
Q 5691 2819 5691 2113 
L 5691 0 
L 5113 0 
L 5113 2094 
Q 5113 2597 4934 2840 
Q 4756 3084 4391 3084 
Q 3944 3084 3684 2787 
Q 3425 2491 3425 1978 
L 3425 0 
L 2847 0 
L 2847 2094 
Q 2847 2600 2669 2842 
Q 2491 3084 2119 3084 
Q 1678 3084 1418 2786 
Q 1159 2488 1159 1978 
L 1159 0 
L 581 0 
L 581 3500 
L 1159 3500 
L 1159 2956 
Q 1356 3278 1631 3431 
Q 1906 3584 2284 3584 
Q 2666 3584 2933 3390 
Q 3200 3197 3328 2828 
z
" transform="scale(0.015625)"/>
      <path id="DejaVuSans-78" d="M 3513 3500 
L 2247 1797 
L 3578 0 
L 2900 0 
L 1881 1375 
L 863 0 
L 184 0 
L 1544 1831 
L 300 3500 
L 978 3500 
L 1906 2253 
L 2834 3500 
L 3513 3500 
z
" transform="scale(0.015625)"/>
      <path id="DejaVuSans-67" d="M 2906 1791 
Q 2906 2416 2648 2759 
Q 2391 3103 1925 3103 
Q 1463 3103 1205 2759 
Q 947 2416 947 1791 
Q 947 1169 1205 825 
Q 1463 481 1925 481 
Q 2391 481 2648 825 
Q 2906 1169 2906 1791 
z
M 3481 434 
Q 3481 -459 3084 -895 
Q 2688 -1331 1869 -1331 
Q 1566 -1331 1297 -1286 
Q 1028 -1241 775 -1147 
L 775 -588 
Q 1028 -725 1275 -790 
Q 1522 -856 1778 -856 
Q 2344 -856 2625 -561 
Q 2906 -266 2906 331 
L 2906 616 
Q 2728 306 2450 153 
Q 2172 0 1784 0 
Q 1141 0 747 490 
Q 353 981 353 1791 
Q 353 2603 747 3093 
Q 1141 3584 1784 3584 
Q 2172 3584 2450 3431 
Q 2728 3278 2906 2969 
L 2906 3500 
L 3481 3500 
L 3481 434 
z
" transform="scale(0.015625)"/>
      <path id="DejaVuSans-6e" d="M 3513 2113 
L 3513 0 
L 2938 0 
L 2938 2094 
Q 2938 2591 2744 2837 
Q 2550 3084 2163 3084 
Q 1697 3084 1428 2787 
Q 1159 2491 1159 1978 
L 1159 0 
L 581 0 
L 581 3500 
L 1159 3500 
L 1159 2956 
Q 1366 3272 1645 3428 
Q 1925 3584 2291 3584 
Q 2894 3584 3203 3211 
Q 3513 2838 3513 2113 
z
" transform="scale(0.015625)"/>
      <path id="DejaVuSans-77" d="M 269 3500 
L 844 3500 
L 1563 769 
L 2278 3500 
L 2956 3500 
L 3675 769 
L 4391 3500 
L 4966 3500 
L 4050 0 
L 3372 0 
L 2619 2869 
L 1863 0 
L 1184 0 
L 269 3500 
z
" transform="scale(0.015625)"/>
      <path id="DejaVuSans-68" d="M 3513 2113 
L 3513 0 
L 2938 0 
L 2938 2094 
Q 2938 2591 2744 2837 
Q 2550 3084 2163 3084 
Q 1697 3084 1428 2787 
Q 1159 2491 1159 1978 
L 1159 0 
L 581 0 
L 581 4863 
L 1159 4863 
L 1159 2956 
Q 1366 3272 1645 3428 
Q 1925 3584 2291 3584 
Q 2894 3584 3203 3211 
Q 3513 2838 3513 2113 
z
" transform="scale(0.015625)"/>
      <path id="DejaVuSans-3d" d="M 678 2906 
L 4684 2906 
L 4684 2381 
L 678 2381 
L 678 2906 
z
M 678 1631 
L 4684 1631 
L 4684 1100 
L 678 1100 
L 678 1631 
z
" transform="scale(0.015625)"/>
      <path id="DejaVuSans-2e" d="M 684 794 
L 1344 794 
L 1344 0 
L 684 0 
L 684 794 
z
" transform="scale(0.015625)"/>
     </defs>
     <use xlink:href="#DejaVuSans-3b6"/>
     <use xlink:href="#DejaVuSans-2d" x="54.394531"/>
     <use xlink:href="#DejaVuSans-52" x="90.478516"/>
     <use xlink:href="#DejaVuSans-2d" x="155.960938"/>
     <use xlink:href="#DejaVuSans-6d" x="192.044922"/>
     <use xlink:href="#DejaVuSans-61" x="289.457031"/>
     <use xlink:href="#DejaVuSans-78" x="350.736328"/>
     <use xlink:href="#DejaVuSans-20" x="409.916016"/>
     <use xlink:href="#DejaVuSans-61" x="441.703125"/>
     <use xlink:href="#DejaVuSans-67" x="502.982422"/>
     <use xlink:href="#DejaVuSans-65" x="566.458984"/>
     <use xlink:href="#DejaVuSans-6e" x="627.982422"/>
     <use xlink:href="#DejaVuSans-74" x="691.361328"/>
     <use xlink:href="#DejaVuSans-20" x="730.570312"/>
     <use xlink:href="#DejaVuSans-70" x="762.357422"/>
     <use xlink:href="#DejaVuSans-6f" x="825.833984"/>
     <use xlink:href="#DejaVuSans-6c" x="887.015625"/>
     <use xlink:href="#DejaVuSans-69" x="914.798828"/>
     <use xlink:href="#DejaVuSans-63" x="942.582031"/>
     <use xlink:href="#DejaVuSans-79" x="997.5625"/>
     <use xlink:href="#DejaVuSans-20" x="1056.742188"/>
     <use xlink:href="#DejaVuSans-77" x="1088.529297"/>
     <use xlink:href="#DejaVuSans-69" x="1170.316406"/>
     <use xlink:href="#DejaVuSans-74" x="1198.099609"/>
     <use xlink:href="#DejaVuSans-68" x="1237.308594"/>
     <use xlink:href="#DejaVuSans-20" x="1300.6875"/>
     <use xlink:href="#DejaVuSans-6d" x="1332.474609"/>
     <use xlink:href="#DejaVuSans-20" x="1429.886719"/>
     <use xlink:href="#DejaVuSans-3d" x="1461.673828"/>
     <use xlink:href="#DejaVuSans-20" x="1545.462891"/>
     <use xlink:href="#DejaVuSans-34" x="1577.25"/>
     <use xlink:href="#DejaVuSans-2e" x="1640.873047"/>
     <use xlink:href="#DejaVuSans-30" x="1672.660156"/>
    </g>
   </g>
   <g id="legend_1">
    <g id="patch_7">
     <path d="M 297.796875 247 
L 381.8 247 
Q 383.8 247 383.8 245 
L 383.8 172.609375 
Q 383.8 170.609375 381.8 170.609375 
L 297.796875 170.609375 
Q 295.796875 170.609375 295.796875 172.609375 
L 295.796875 245 
Q 295.796875 247 297.796875 247 
z
" style="fill: #ffffff; opacity: 0.8; stroke: #cccccc; stroke-linejoin: miter"/>
    </g>
    <g id="line2d_34">
     <path d="M 299.796875 178.707812 
L 309.796875 178.707812 
L 319.796875 178.707812 
" style="fill: none; stroke: #9d02d7; stroke-width: 1.5; stroke-linecap: square"/>
     <g>
      <use xlink:href="#maa2989f6ba" x="309.796875" y="178.707812" style="fill: #9d02d7; stroke: #9d02d7; stroke-linejoin: miter"/>
     </g>
    </g>
    <g id="text_18">
     <!-- alpha=0.1 -->
     <g transform="translate(327.796875 182.207812)scale(0.1 -0.1)">
      <use xlink:href="#DejaVuSans-61"/>
      <use xlink:href="#DejaVuSans-6c" x="61.279297"/>
      <use xlink:href="#DejaVuSans-70" x="89.0625"/>
      <use xlink:href="#DejaVuSans-68" x="152.539062"/>
      <use xlink:href="#DejaVuSans-61" x="215.917969"/>
      <use xlink:href="#DejaVuSans-3d" x="277.197266"/>
      <use xlink:href="#DejaVuSans-30" x="360.986328"/>
      <use xlink:href="#DejaVuSans-2e" x="424.609375"/>
      <use xlink:href="#DejaVuSans-31" x="456.396484"/>
     </g>
    </g>
    <g id="line2d_35">
     <path d="M 299.796875 193.385938 
L 309.796875 193.385938 
L 319.796875 193.385938 
" style="fill: none; stroke: #0000ff; stroke-width: 1.5; stroke-linecap: square"/>
     <g>
      <use xlink:href="#m53f6f1a17f" x="309.796875" y="193.385938" style="fill: #0000ff; stroke: #0000ff"/>
     </g>
    </g>
    <g id="text_19">
     <!-- alpha=0.5 -->
     <g transform="translate(327.796875 196.885938)scale(0.1 -0.1)">
      <use xlink:href="#DejaVuSans-61"/>
      <use xlink:href="#DejaVuSans-6c" x="61.279297"/>
      <use xlink:href="#DejaVuSans-70" x="89.0625"/>
      <use xlink:href="#DejaVuSans-68" x="152.539062"/>
      <use xlink:href="#DejaVuSans-61" x="215.917969"/>
      <use xlink:href="#DejaVuSans-3d" x="277.197266"/>
      <use xlink:href="#DejaVuSans-30" x="360.986328"/>
      <use xlink:href="#DejaVuSans-2e" x="424.609375"/>
      <use xlink:href="#DejaVuSans-35" x="456.396484"/>
     </g>
    </g>
    <g id="line2d_36">
     <path d="M 299.796875 208.064063 
L 309.796875 208.064063 
L 319.796875 208.064063 
" style="fill: none; stroke: #ff7763; stroke-width: 1.5; stroke-linecap: square"/>
     <g>
      <use xlink:href="#m00dfe400fc" x="309.796875" y="208.064063" style="fill: #ff7763; stroke: #ff7763"/>
     </g>
    </g>
    <g id="text_20">
     <!-- alpha=1.0 -->
     <g transform="translate(327.796875 211.564063)scale(0.1 -0.1)">
      <use xlink:href="#DejaVuSans-61"/>
      <use xlink:href="#DejaVuSans-6c" x="61.279297"/>
      <use xlink:href="#DejaVuSans-70" x="89.0625"/>
      <use xlink:href="#DejaVuSans-68" x="152.539062"/>
      <use xlink:href="#DejaVuSans-61" x="215.917969"/>
      <use xlink:href="#DejaVuSans-3d" x="277.197266"/>
      <use xlink:href="#DejaVuSans-31" x="360.986328"/>
      <use xlink:href="#DejaVuSans-2e" x="424.609375"/>
      <use xlink:href="#DejaVuSans-30" x="456.396484"/>
     </g>
    </g>
    <g id="line2d_37">
     <path d="M 299.796875 222.742188 
L 309.796875 222.742188 
L 319.796875 222.742188 
" style="fill: none; stroke: #ffac1e; stroke-width: 1.5; stroke-linecap: square"/>
     <g>
      <use xlink:href="#m7f9de4a0ad" x="309.796875" y="222.742188" style="fill: #ffac1e; stroke: #ffac1e; stroke-linejoin: bevel"/>
     </g>
    </g>
    <g id="text_21">
     <!-- alpha=1.5 -->
     <g transform="translate(327.796875 226.242188)scale(0.1 -0.1)">
      <use xlink:href="#DejaVuSans-61"/>
      <use xlink:href="#DejaVuSans-6c" x="61.279297"/>
      <use xlink:href="#DejaVuSans-70" x="89.0625"/>
      <use xlink:href="#DejaVuSans-68" x="152.539062"/>
      <use xlink:href="#DejaVuSans-61" x="215.917969"/>
      <use xlink:href="#DejaVuSans-3d" x="277.197266"/>
      <use xlink:href="#DejaVuSans-31" x="360.986328"/>
      <use xlink:href="#DejaVuSans-2e" x="424.609375"/>
      <use xlink:href="#DejaVuSans-35" x="456.396484"/>
     </g>
    </g>
    <g id="line2d_38">
     <path d="M 299.796875 237.420313 
L 309.796875 237.420313 
L 319.796875 237.420313 
" style="fill: none; stroke: #009435; stroke-width: 1.5; stroke-linecap: square"/>
     <g>
      <use xlink:href="#mfd0a653d35" x="309.796875" y="237.420313" style="fill: #009435; stroke: #009435; stroke-linejoin: miter"/>
     </g>
    </g>
    <g id="text_22">
     <!-- alpha=2.0 -->
     <g transform="translate(327.796875 240.920313)scale(0.1 -0.1)">
      <use xlink:href="#DejaVuSans-61"/>
      <use xlink:href="#DejaVuSans-6c" x="61.279297"/>
      <use xlink:href="#DejaVuSans-70" x="89.0625"/>
      <use xlink:href="#DejaVuSans-68" x="152.539062"/>
      <use xlink:href="#DejaVuSans-61" x="215.917969"/>
      <use xlink:href="#DejaVuSans-3d" x="277.197266"/>
      <use xlink:href="#DejaVuSans-32" x="360.986328"/>
      <use xlink:href="#DejaVuSans-2e" x="424.609375"/>
      <use xlink:href="#DejaVuSans-30" x="456.396484"/>
     </g>
    </g>
   </g>
  </g>
 </g>
 <defs>
  <clipPath id="p28b3083828">
   <rect x="54" y="34.56" width="334.8" height="217.44"/>
  </clipPath>
 </defs>
</svg>
