<?xml version="1.0" encoding="utf-8" standalone="no"?>
<!DOCTYPE svg PUBLIC "-//W3C//DTD SVG 1.1//EN"
  "http://www.w3.org/Graphics/SVG/1.1/DTD/svg11.dtd">
<svg xmlns:xlink="http://www.w3.org/1999/xlink" width="432pt" height="288pt" viewBox="0 0 432 288" xmlns="http://www.w3.org/2000/svg" version="1.1">
 <metadata>
  <rdf:RDF xmlns:dc="http://purl.org/dc/elements/1.1/" xmlns:cc="http://creativecommons.org/ns#" xmlns:rdf="http://www.w3.org/1999/02/22-rdf-syntax-ns#">
   <cc:Work>
    <dc:type rdf:resource="http://purl.org/dc/dcmitype/StillImage"/>
    <dc:date>2023-01-11T15:36:51.383830</dc:date>
    <dc:format>image/svg+xml</dc:format>
    <dc:creator>
     <cc:Agent>
      <dc:title>Matplotlib v3.5.2, https://matplotlib.org/</dc:title>
     </cc:Agent>
    </dc:creator>
   </cc:Work>
  </rdf:RDF>
 </metadata>
 <defs>
  <style type="text/css">*{stroke-linejoin: round; stroke-linecap: butt}</style>
 </defs>
 <g id="figure_1">
  <g id="patch_1">
   <path d="M 0 288 
L 432 288 
L 432 0 
L 0 0 
z
" style="fill: #ffffff"/>
  </g>
  <g id="axes_1">
   <g id="patch_2">
    <path d="M 54 252 
L 388.8 252 
L 388.8 34.56 
L 54 34.56 
z
" style="fill: #ffffff"/>
   </g>
   <g id="PolyCollection_1">
    <defs>
     <path id="m81b4714c76" d="M 69.218182 -33.27375 
L 69.218182 -33.27375 
L 74.376888 -35.091182 
L 79.535593 -33.225694 
L 84.694299 -32.42638 
L 89.853005 -29.668243 
L 95.01171 -30.773235 
L 100.170416 -32.364373 
L 105.329122 -32.386915 
L 110.487827 -28.039675 
L 115.646533 -24.208533 
L 120.805239 -30.644233 
L 125.963945 -29.681234 
L 131.12265 -37.267821 
L 136.281356 -28.86992 
L 141.440062 -22.567281 
L 146.598767 -41.372438 
L 151.757473 -78.702418 
L 156.916179 -29.139679 
L 162.074884 -39.786618 
L 167.23359 -17.07115 
L 172.392296 -29.609003 
L 177.551002 -31.391538 
L 182.709707 -48.032396 
L 187.868413 -36.237776 
L 193.027119 -34.48026 
L 198.185824 -33.937878 
L 203.34453 -32.794702 
L 208.503236 -34.402752 
L 213.661941 -33.650987 
L 218.820647 -32.400011 
L 223.979353 -35.441723 
L 229.138059 -33.776297 
L 234.296764 -34.853005 
L 239.45547 -35.416143 
L 244.614176 -37.269156 
L 249.772881 -34.772903 
L 254.931587 -34.53318 
L 260.090293 -31.632647 
L 265.248998 -42.305281 
L 270.407704 -33.750772 
L 275.56641 -34.085569 
L 280.725116 -170.842823 
L 285.883821 -225.281031 
L 291.042527 -228.004955 
L 296.201233 -228.004955 
L 301.359938 -222.795621 
L 306.518644 -228.004955 
L 311.67735 -228.005148 
L 316.836055 -228.004955 
L 321.994761 -228.004955 
L 327.153467 -226.34239 
L 332.312173 -226.34239 
L 337.470878 -216.332292 
L 342.629584 -225.058457 
L 347.78829 -225.058653 
L 352.946995 -225.058653 
L 358.105701 -202.611513 
L 363.264407 -223.340018 
L 368.423112 -223.340018 
L 373.581818 -218.866199 
L 373.581818 -218.866199 
L 373.581818 -218.866199 
L 368.423112 -223.340018 
L 363.264407 -223.340018 
L 358.105701 -202.611513 
L 352.946995 -225.058653 
L 347.78829 -225.058653 
L 342.629584 -225.058457 
L 337.470878 -216.332292 
L 332.312173 -226.34239 
L 327.153467 -226.34239 
L 321.994761 -228.004955 
L 316.836055 -228.004955 
L 311.67735 -228.005148 
L 306.518644 -228.004955 
L 301.359938 -222.795621 
L 296.201233 -228.004955 
L 291.042527 -228.004955 
L 285.883821 -225.281031 
L 280.725116 -170.842823 
L 275.56641 -34.085569 
L 270.407704 -33.750772 
L 265.248998 -42.305281 
L 260.090293 -31.632647 
L 254.931587 -34.53318 
L 249.772881 -34.772903 
L 244.614176 -37.269156 
L 239.45547 -35.416143 
L 234.296764 -34.853005 
L 229.138059 -33.776297 
L 223.979353 -35.441723 
L 218.820647 -32.400011 
L 213.661941 -33.650987 
L 208.503236 -34.402752 
L 203.34453 -32.794702 
L 198.185824 -33.937878 
L 193.027119 -34.48026 
L 187.868413 -36.237776 
L 182.709707 -48.032396 
L 177.551002 -31.391538 
L 172.392296 -29.609003 
L 167.23359 -17.07115 
L 162.074884 -39.786618 
L 156.916179 -29.139679 
L 151.757473 -78.702418 
L 146.598767 -41.372438 
L 141.440062 -22.567281 
L 136.281356 -28.86992 
L 131.12265 -37.267821 
L 125.963945 -29.681234 
L 120.805239 -30.644233 
L 115.646533 -24.208533 
L 110.487827 -28.039675 
L 105.329122 -32.386915 
L 100.170416 -32.364373 
L 95.01171 -30.773235 
L 89.853005 -29.668243 
L 84.694299 -32.42638 
L 79.535593 -33.225694 
L 74.376888 -35.091182 
L 69.218182 -33.27375 
z
" style="stroke: #9d02d7; stroke-opacity: 0.2"/>
    </defs>
    <g clip-path="url(#p8c9fe51deb)">
     <use xlink:href="#m81b4714c76" x="0" y="288" style="fill: #9d02d7; fill-opacity: 0.2; stroke: #9d02d7; stroke-opacity: 0.2"/>
    </g>
   </g>
   <g id="PolyCollection_2">
    <defs>
     <path id="macedd8bbc3" d="M 69.218182 -35.182589 
L 69.218182 -35.182589 
L 74.376888 -33.57593 
L 79.535593 -35.303253 
L 84.694299 -33.884717 
L 89.853005 -34.367232 
L 95.01171 -34.079368 
L 100.170416 -31.334115 
L 105.329122 -30.01807 
L 110.487827 -34.534244 
L 115.646533 -26.893706 
L 120.805239 -29.977586 
L 125.963945 -28.776616 
L 131.12265 -33.305455 
L 136.281356 -28.582281 
L 141.440062 -34.577617 
L 146.598767 -33.382904 
L 151.757473 -32.383884 
L 156.916179 -63.968699 
L 162.074884 -80.792985 
L 167.23359 -76.32814 
L 172.392296 -76.32814 
L 177.551002 -58.211746 
L 182.709707 -69.896316 
L 187.868413 -63.294924 
L 193.027119 -73.786506 
L 198.185824 -73.799495 
L 203.34453 -82.915679 
L 208.503236 -52.171816 
L 213.661941 -129.173912 
L 218.820647 -129.173912 
L 223.979353 -129.173912 
L 229.138059 -129.173912 
L 234.296764 -129.125637 
L 239.45547 -129.173912 
L 244.614176 -129.083852 
L 249.772881 -129.084405 
L 254.931587 -129.126754 
L 260.090293 -129.126754 
L 265.248998 -129.084405 
L 270.407704 -129.083852 
L 275.56641 -129.319085 
L 280.725116 -129.083978 
L 285.883821 -128.113241 
L 291.042527 -129.319085 
L 296.201233 -128.113241 
L 301.359938 -129.084405 
L 306.518644 -133.022895 
L 311.67735 -37.392173 
L 316.836055 -56.467645 
L 321.994761 -129.08368 
L 327.153467 -82.32727 
L 332.312173 -82.436263 
L 337.470878 -85.006415 
L 342.629584 -85.006415 
L 347.78829 -119.005112 
L 352.946995 -179.874098 
L 358.105701 -179.874098 
L 363.264407 -180.258924 
L 368.423112 -180.258924 
L 373.581818 -175.573033 
L 373.581818 -175.573033 
L 373.581818 -175.573033 
L 368.423112 -180.258924 
L 363.264407 -180.258924 
L 358.105701 -179.874098 
L 352.946995 -179.874098 
L 347.78829 -119.005112 
L 342.629584 -85.006415 
L 337.470878 -85.006415 
L 332.312173 -82.436263 
L 327.153467 -82.32727 
L 321.994761 -129.08368 
L 316.836055 -56.467645 
L 311.67735 -37.392173 
L 306.518644 -133.022895 
L 301.359938 -129.084405 
L 296.201233 -128.113241 
L 291.042527 -129.319085 
L 285.883821 -128.113241 
L 280.725116 -129.083978 
L 275.56641 -129.319085 
L 270.407704 -129.083852 
L 265.248998 -129.084405 
L 260.090293 -129.126754 
L 254.931587 -129.126754 
L 249.772881 -129.084405 
L 244.614176 -129.083852 
L 239.45547 -129.173912 
L 234.296764 -129.125637 
L 229.138059 -129.173912 
L 223.979353 -129.173912 
L 218.820647 -129.173912 
L 213.661941 -129.173912 
L 208.503236 -52.171816 
L 203.34453 -82.915679 
L 198.185824 -73.799495 
L 193.027119 -73.786506 
L 187.868413 -63.294924 
L 182.709707 -69.896316 
L 177.551002 -58.211746 
L 172.392296 -76.32814 
L 167.23359 -76.32814 
L 162.074884 -80.792985 
L 156.916179 -63.968699 
L 151.757473 -32.383884 
L 146.598767 -33.382904 
L 141.440062 -34.577617 
L 136.281356 -28.582281 
L 131.12265 -33.305455 
L 125.963945 -28.776616 
L 120.805239 -29.977586 
L 115.646533 -26.893706 
L 110.487827 -34.534244 
L 105.329122 -30.01807 
L 100.170416 -31.334115 
L 95.01171 -34.079368 
L 89.853005 -34.367232 
L 84.694299 -33.884717 
L 79.535593 -35.303253 
L 74.376888 -33.57593 
L 69.218182 -35.182589 
z
" style="stroke: #0000ff; stroke-opacity: 0.2"/>
    </defs>
    <g clip-path="url(#p8c9fe51deb)">
     <use xlink:href="#macedd8bbc3" x="0" y="288" style="fill: #0000ff; fill-opacity: 0.2; stroke: #0000ff; stroke-opacity: 0.2"/>
    </g>
   </g>
   <g id="PolyCollection_3">
    <defs>
     <path id="m07a55c8ecc" d="M 69.218182 -34.648458 
L 69.218182 -34.648458 
L 74.376888 -33.352534 
L 79.535593 -30.547161 
L 84.694299 -30.789591 
L 89.853005 -30.955121 
L 95.01171 -30.215837 
L 100.170416 -29.967626 
L 105.329122 -31.754391 
L 110.487827 -32.035898 
L 115.646533 -26.051527 
L 120.805239 -34.981894 
L 125.963945 -28.710926 
L 131.12265 -29.118455 
L 136.281356 -28.17821 
L 141.440062 -29.562752 
L 146.598767 -33.123087 
L 151.757473 -33.755371 
L 156.916179 -31.758561 
L 162.074884 -30.054164 
L 167.23359 -33.560064 
L 172.392296 -33.809871 
L 177.551002 -24.106259 
L 182.709707 -17.225025 
L 187.868413 -7.253551 
L 193.027119 -33.992359 
L 198.185824 -25.115279 
L 203.34453 -22.049647 
L 208.503236 -28.084339 
L 213.661941 -28.085465 
L 218.820647 -28.085057 
L 223.979353 -33.987919 
L 229.138059 -28.877738 
L 234.296764 -34.461037 
L 239.45547 -34.342882 
L 244.614176 -34.239427 
L 249.772881 -34.260249 
L 254.931587 -31.250427 
L 260.090293 -17.081478 
L 265.248998 -89.505369 
L 270.407704 -89.505369 
L 275.56641 -89.461461 
L 280.725116 -89.461461 
L 285.883821 -89.914611 
L 291.042527 -89.914611 
L 296.201233 -88.897072 
L 301.359938 -88.897072 
L 306.518644 -86.10712 
L 311.67735 -86.10712 
L 316.836055 -86.10712 
L 321.994761 -86.10712 
L 327.153467 -86.10712 
L 332.312173 -86.10712 
L 337.470878 -85.584639 
L 342.629584 -85.584639 
L 347.78829 -85.584639 
L 352.946995 -85.584639 
L 358.105701 -85.584639 
L 363.264407 -85.584639 
L 368.423112 -44.08891 
L 373.581818 -82.39604 
L 373.581818 -82.39604 
L 373.581818 -82.39604 
L 368.423112 -44.08891 
L 363.264407 -85.584639 
L 358.105701 -85.584639 
L 352.946995 -85.584639 
L 347.78829 -85.584639 
L 342.629584 -85.584639 
L 337.470878 -85.584639 
L 332.312173 -86.10712 
L 327.153467 -86.10712 
L 321.994761 -86.10712 
L 316.836055 -86.10712 
L 311.67735 -86.10712 
L 306.518644 -86.10712 
L 301.359938 -88.897072 
L 296.201233 -88.897072 
L 291.042527 -89.914611 
L 285.883821 -89.914611 
L 280.725116 -89.461461 
L 275.56641 -89.461461 
L 270.407704 -89.505369 
L 265.248998 -89.505369 
L 260.090293 -17.081478 
L 254.931587 -31.250427 
L 249.772881 -34.260249 
L 244.614176 -34.239427 
L 239.45547 -34.342882 
L 234.296764 -34.461037 
L 229.138059 -28.877738 
L 223.979353 -33.987919 
L 218.820647 -28.085057 
L 213.661941 -28.085465 
L 208.503236 -28.084339 
L 203.34453 -22.049647 
L 198.185824 -25.115279 
L 193.027119 -33.992359 
L 187.868413 -7.253551 
L 182.709707 -17.225025 
L 177.551002 -24.106259 
L 172.392296 -33.809871 
L 167.23359 -33.560064 
L 162.074884 -30.054164 
L 156.916179 -31.758561 
L 151.757473 -33.755371 
L 146.598767 -33.123087 
L 141.440062 -29.562752 
L 136.281356 -28.17821 
L 131.12265 -29.118455 
L 125.963945 -28.710926 
L 120.805239 -34.981894 
L 115.646533 -26.051527 
L 110.487827 -32.035898 
L 105.329122 -31.754391 
L 100.170416 -29.967626 
L 95.01171 -30.215837 
L 89.853005 -30.955121 
L 84.694299 -30.789591 
L 79.535593 -30.547161 
L 74.376888 -33.352534 
L 69.218182 -34.648458 
z
" style="stroke: #ff7763; stroke-opacity: 0.2"/>
    </defs>
    <g clip-path="url(#p8c9fe51deb)">
     <use xlink:href="#m07a55c8ecc" x="0" y="288" style="fill: #ff7763; fill-opacity: 0.2; stroke: #ff7763; stroke-opacity: 0.2"/>
    </g>
   </g>
   <g id="PolyCollection_4">
    <defs>
     <path id="m60810c3382" d="M 69.218182 -35.091182 
L 69.218182 -35.091182 
L 74.376888 -30.892279 
L 79.535593 -33.696264 
L 84.694299 -33.139799 
L 89.853005 -32.88896 
L 95.01171 -32.55983 
L 100.170416 -32.935931 
L 105.329122 -32.534949 
L 110.487827 -37.963008 
L 115.646533 -38.109582 
L 120.805239 -32.181599 
L 125.963945 -32.173544 
L 131.12265 -32.173506 
L 136.281356 -32.173541 
L 141.440062 -32.173543 
L 146.598767 -32.173544 
L 151.757473 -32.173524 
L 156.916179 -32.173543 
L 162.074884 -32.173543 
L 167.23359 -32.173524 
L 172.392296 -32.173543 
L 177.551002 -32.173506 
L 182.709707 -32.173524 
L 187.868413 -32.173544 
L 193.027119 -32.173544 
L 198.185824 -32.173544 
L 203.34453 -32.173544 
L 208.503236 -32.173541 
L 213.661941 -31.956708 
L 218.820647 -31.956708 
L 223.979353 -31.956709 
L 229.138059 -31.956705 
L 234.296764 -31.956705 
L 239.45547 -31.956705 
L 244.614176 -31.956703 
L 249.772881 -31.956709 
L 254.931587 -32.090882 
L 260.090293 -32.090886 
L 265.248998 -32.090886 
L 270.407704 -32.090886 
L 275.56641 -32.090886 
L 280.725116 -32.090886 
L 285.883821 -32.090882 
L 291.042527 -32.090886 
L 296.201233 -32.090886 
L 301.359938 -32.090886 
L 306.518644 -32.090886 
L 311.67735 -33.356681 
L 316.836055 -33.356682 
L 321.994761 -33.356681 
L 327.153467 -33.356681 
L 332.312173 -33.356681 
L 337.470878 -33.356682 
L 342.629584 -33.356682 
L 347.78829 -25.473205 
L 352.946995 -31.732969 
L 358.105701 -31.732965 
L 363.264407 -31.732969 
L 368.423112 -31.738887 
L 373.581818 -31.738891 
L 373.581818 -31.738891 
L 373.581818 -31.738891 
L 368.423112 -31.738887 
L 363.264407 -31.732969 
L 358.105701 -31.732965 
L 352.946995 -31.732969 
L 347.78829 -25.473205 
L 342.629584 -33.356682 
L 337.470878 -33.356682 
L 332.312173 -33.356681 
L 327.153467 -33.356681 
L 321.994761 -33.356681 
L 316.836055 -33.356682 
L 311.67735 -33.356681 
L 306.518644 -32.090886 
L 301.359938 -32.090886 
L 296.201233 -32.090886 
L 291.042527 -32.090886 
L 285.883821 -32.090882 
L 280.725116 -32.090886 
L 275.56641 -32.090886 
L 270.407704 -32.090886 
L 265.248998 -32.090886 
L 260.090293 -32.090886 
L 254.931587 -32.090882 
L 249.772881 -31.956709 
L 244.614176 -31.956703 
L 239.45547 -31.956705 
L 234.296764 -31.956705 
L 229.138059 -31.956705 
L 223.979353 -31.956709 
L 218.820647 -31.956708 
L 213.661941 -31.956708 
L 208.503236 -32.173541 
L 203.34453 -32.173544 
L 198.185824 -32.173544 
L 193.027119 -32.173544 
L 187.868413 -32.173544 
L 182.709707 -32.173524 
L 177.551002 -32.173506 
L 172.392296 -32.173543 
L 167.23359 -32.173524 
L 162.074884 -32.173543 
L 156.916179 -32.173543 
L 151.757473 -32.173524 
L 146.598767 -32.173544 
L 141.440062 -32.173543 
L 136.281356 -32.173541 
L 131.12265 -32.173506 
L 125.963945 -32.173544 
L 120.805239 -32.181599 
L 115.646533 -38.109582 
L 110.487827 -37.963008 
L 105.329122 -32.534949 
L 100.170416 -32.935931 
L 95.01171 -32.55983 
L 89.853005 -32.88896 
L 84.694299 -33.139799 
L 79.535593 -33.696264 
L 74.376888 -30.892279 
L 69.218182 -35.091182 
z
" style="stroke: #ffac1e; stroke-opacity: 0.2"/>
    </defs>
    <g clip-path="url(#p8c9fe51deb)">
     <use xlink:href="#m60810c3382" x="0" y="288" style="fill: #ffac1e; fill-opacity: 0.2; stroke: #ffac1e; stroke-opacity: 0.2"/>
    </g>
   </g>
   <g id="PolyCollection_5">
    <defs>
     <path id="m88d75b3df0" d="M 69.218182 -34.387046 
L 69.218182 -34.387046 
L 74.376888 -31.429314 
L 79.535593 -33.406277 
L 84.694299 -31.338078 
L 89.853005 -32.514628 
L 95.01171 -32.580081 
L 100.170416 -32.444583 
L 105.329122 -32.593426 
L 110.487827 -32.511837 
L 115.646533 -32.439706 
L 120.805239 -32.511398 
L 125.963945 -32.372667 
L 131.12265 -32.43984 
L 136.281356 -32.511829 
L 141.440062 -32.593434 
L 146.598767 -32.02397 
L 151.757473 -31.722828 
L 156.916179 -31.722842 
L 162.074884 -31.722828 
L 167.23359 -31.722842 
L 172.392296 -31.722845 
L 177.551002 -31.722842 
L 182.709707 -31.722842 
L 187.868413 -31.722845 
L 193.027119 -31.820103 
L 198.185824 -31.820103 
L 203.34453 -31.820019 
L 208.503236 -31.82002 
L 213.661941 -31.82002 
L 218.820647 -31.820037 
L 223.979353 -31.820037 
L 229.138059 -31.82002 
L 234.296764 -31.82002 
L 239.45547 -31.82002 
L 244.614176 -31.820103 
L 249.772881 -31.820019 
L 254.931587 -31.820037 
L 260.090293 -31.82002 
L 265.248998 -31.820037 
L 270.407704 -31.820103 
L 275.56641 -31.82002 
L 280.725116 -31.820103 
L 285.883821 -31.820019 
L 291.042527 -31.82002 
L 296.201233 -31.820019 
L 301.359938 -32.463189 
L 306.518644 -32.463188 
L 311.67735 -32.463189 
L 316.836055 -32.507567 
L 321.994761 -32.507567 
L 327.153467 -32.463191 
L 332.312173 -32.463634 
L 337.470878 -32.507567 
L 342.629584 -32.463634 
L 347.78829 -32.463189 
L 352.946995 -32.507567 
L 358.105701 -32.463188 
L 363.264407 -32.463191 
L 368.423112 -32.463189 
L 373.581818 -32.463188 
L 373.581818 -32.463188 
L 373.581818 -32.463188 
L 368.423112 -32.463189 
L 363.264407 -32.463191 
L 358.105701 -32.463188 
L 352.946995 -32.507567 
L 347.78829 -32.463189 
L 342.629584 -32.463634 
L 337.470878 -32.507567 
L 332.312173 -32.463634 
L 327.153467 -32.463191 
L 321.994761 -32.507567 
L 316.836055 -32.507567 
L 311.67735 -32.463189 
L 306.518644 -32.463188 
L 301.359938 -32.463189 
L 296.201233 -31.820019 
L 291.042527 -31.82002 
L 285.883821 -31.820019 
L 280.725116 -31.820103 
L 275.56641 -31.82002 
L 270.407704 -31.820103 
L 265.248998 -31.820037 
L 260.090293 -31.82002 
L 254.931587 -31.820037 
L 249.772881 -31.820019 
L 244.614176 -31.820103 
L 239.45547 -31.82002 
L 234.296764 -31.82002 
L 229.138059 -31.82002 
L 223.979353 -31.820037 
L 218.820647 -31.820037 
L 213.661941 -31.82002 
L 208.503236 -31.82002 
L 203.34453 -31.820019 
L 198.185824 -31.820103 
L 193.027119 -31.820103 
L 187.868413 -31.722845 
L 182.709707 -31.722842 
L 177.551002 -31.722842 
L 172.392296 -31.722845 
L 167.23359 -31.722842 
L 162.074884 -31.722828 
L 156.916179 -31.722842 
L 151.757473 -31.722828 
L 146.598767 -32.02397 
L 141.440062 -32.593434 
L 136.281356 -32.511829 
L 131.12265 -32.43984 
L 125.963945 -32.372667 
L 120.805239 -32.511398 
L 115.646533 -32.439706 
L 110.487827 -32.511837 
L 105.329122 -32.593426 
L 100.170416 -32.444583 
L 95.01171 -32.580081 
L 89.853005 -32.514628 
L 84.694299 -31.338078 
L 79.535593 -33.406277 
L 74.376888 -31.429314 
L 69.218182 -34.387046 
z
" style="stroke: #009435; stroke-opacity: 0.2"/>
    </defs>
    <g clip-path="url(#p8c9fe51deb)">
     <use xlink:href="#m88d75b3df0" x="0" y="288" style="fill: #009435; fill-opacity: 0.2; stroke: #009435; stroke-opacity: 0.2"/>
    </g>
   </g>
   <g id="matplotlib.axis_1">
    <g id="xtick_1">
     <g id="line2d_1">
      <path d="M 69.218182 252 
L 69.218182 34.56 
" clip-path="url(#p8c9fe51deb)" style="fill: none; stroke-dasharray: 2.96,1.28; stroke-dashoffset: 0; stroke: #b0b0b0; stroke-width: 0.8"/>
     </g>
     <g id="line2d_2">
      <defs>
       <path id="m76814e678f" d="M 0 0 
L 0 3.5 
" style="stroke: #000000; stroke-width: 0.8"/>
      </defs>
      <g>
       <use xlink:href="#m76814e678f" x="69.218182" y="252" style="stroke: #000000; stroke-width: 0.8"/>
      </g>
     </g>
     <g id="text_1">
      <!-- 0 -->
      <g transform="translate(66.036932 266.598437)scale(0.1 -0.1)">
       <defs>
        <path id="DejaVuSans-30" d="M 2034 4250 
Q 1547 4250 1301 3770 
Q 1056 3291 1056 2328 
Q 1056 1369 1301 889 
Q 1547 409 2034 409 
Q 2525 409 2770 889 
Q 3016 1369 3016 2328 
Q 3016 3291 2770 3770 
Q 2525 4250 2034 4250 
z
M 2034 4750 
Q 2819 4750 3233 4129 
Q 3647 3509 3647 2328 
Q 3647 1150 3233 529 
Q 2819 -91 2034 -91 
Q 1250 -91 836 529 
Q 422 1150 422 2328 
Q 422 3509 836 4129 
Q 1250 4750 2034 4750 
z
" transform="scale(0.015625)"/>
       </defs>
       <use xlink:href="#DejaVuSans-30"/>
      </g>
     </g>
    </g>
    <g id="xtick_2">
     <g id="line2d_3">
      <path d="M 120.805239 252 
L 120.805239 34.56 
" clip-path="url(#p8c9fe51deb)" style="fill: none; stroke-dasharray: 2.96,1.28; stroke-dashoffset: 0; stroke: #b0b0b0; stroke-width: 0.8"/>
     </g>
     <g id="line2d_4">
      <g>
       <use xlink:href="#m76814e678f" x="120.805239" y="252" style="stroke: #000000; stroke-width: 0.8"/>
      </g>
     </g>
     <g id="text_2">
      <!-- 500 -->
      <g transform="translate(111.261489 266.598437)scale(0.1 -0.1)">
       <defs>
        <path id="DejaVuSans-35" d="M 691 4666 
L 3169 4666 
L 3169 4134 
L 1269 4134 
L 1269 2991 
Q 1406 3038 1543 3061 
Q 1681 3084 1819 3084 
Q 2600 3084 3056 2656 
Q 3513 2228 3513 1497 
Q 3513 744 3044 326 
Q 2575 -91 1722 -91 
Q 1428 -91 1123 -41 
Q 819 9 494 109 
L 494 744 
Q 775 591 1075 516 
Q 1375 441 1709 441 
Q 2250 441 2565 725 
Q 2881 1009 2881 1497 
Q 2881 1984 2565 2268 
Q 2250 2553 1709 2553 
Q 1456 2553 1204 2497 
Q 953 2441 691 2322 
L 691 4666 
z
" transform="scale(0.015625)"/>
       </defs>
       <use xlink:href="#DejaVuSans-35"/>
       <use xlink:href="#DejaVuSans-30" x="63.623047"/>
       <use xlink:href="#DejaVuSans-30" x="127.246094"/>
      </g>
     </g>
    </g>
    <g id="xtick_3">
     <g id="line2d_5">
      <path d="M 172.392296 252 
L 172.392296 34.56 
" clip-path="url(#p8c9fe51deb)" style="fill: none; stroke-dasharray: 2.96,1.28; stroke-dashoffset: 0; stroke: #b0b0b0; stroke-width: 0.8"/>
     </g>
     <g id="line2d_6">
      <g>
       <use xlink:href="#m76814e678f" x="172.392296" y="252" style="stroke: #000000; stroke-width: 0.8"/>
      </g>
     </g>
     <g id="text_3">
      <!-- 1000 -->
      <g transform="translate(159.667296 266.598437)scale(0.1 -0.1)">
       <defs>
        <path id="DejaVuSans-31" d="M 794 531 
L 1825 531 
L 1825 4091 
L 703 3866 
L 703 4441 
L 1819 4666 
L 2450 4666 
L 2450 531 
L 3481 531 
L 3481 0 
L 794 0 
L 794 531 
z
" transform="scale(0.015625)"/>
       </defs>
       <use xlink:href="#DejaVuSans-31"/>
       <use xlink:href="#DejaVuSans-30" x="63.623047"/>
       <use xlink:href="#DejaVuSans-30" x="127.246094"/>
       <use xlink:href="#DejaVuSans-30" x="190.869141"/>
      </g>
     </g>
    </g>
    <g id="xtick_4">
     <g id="line2d_7">
      <path d="M 223.979353 252 
L 223.979353 34.56 
" clip-path="url(#p8c9fe51deb)" style="fill: none; stroke-dasharray: 2.96,1.28; stroke-dashoffset: 0; stroke: #b0b0b0; stroke-width: 0.8"/>
     </g>
     <g id="line2d_8">
      <g>
       <use xlink:href="#m76814e678f" x="223.979353" y="252" style="stroke: #000000; stroke-width: 0.8"/>
      </g>
     </g>
     <g id="text_4">
      <!-- 1500 -->
      <g transform="translate(211.254353 266.598437)scale(0.1 -0.1)">
       <use xlink:href="#DejaVuSans-31"/>
       <use xlink:href="#DejaVuSans-35" x="63.623047"/>
       <use xlink:href="#DejaVuSans-30" x="127.246094"/>
       <use xlink:href="#DejaVuSans-30" x="190.869141"/>
      </g>
     </g>
    </g>
    <g id="xtick_5">
     <g id="line2d_9">
      <path d="M 275.56641 252 
L 275.56641 34.56 
" clip-path="url(#p8c9fe51deb)" style="fill: none; stroke-dasharray: 2.96,1.28; stroke-dashoffset: 0; stroke: #b0b0b0; stroke-width: 0.8"/>
     </g>
     <g id="line2d_10">
      <g>
       <use xlink:href="#m76814e678f" x="275.56641" y="252" style="stroke: #000000; stroke-width: 0.8"/>
      </g>
     </g>
     <g id="text_5">
      <!-- 2000 -->
      <g transform="translate(262.84141 266.598437)scale(0.1 -0.1)">
       <defs>
        <path id="DejaVuSans-32" d="M 1228 531 
L 3431 531 
L 3431 0 
L 469 0 
L 469 531 
Q 828 903 1448 1529 
Q 2069 2156 2228 2338 
Q 2531 2678 2651 2914 
Q 2772 3150 2772 3378 
Q 2772 3750 2511 3984 
Q 2250 4219 1831 4219 
Q 1534 4219 1204 4116 
Q 875 4013 500 3803 
L 500 4441 
Q 881 4594 1212 4672 
Q 1544 4750 1819 4750 
Q 2544 4750 2975 4387 
Q 3406 4025 3406 3419 
Q 3406 3131 3298 2873 
Q 3191 2616 2906 2266 
Q 2828 2175 2409 1742 
Q 1991 1309 1228 531 
z
" transform="scale(0.015625)"/>
       </defs>
       <use xlink:href="#DejaVuSans-32"/>
       <use xlink:href="#DejaVuSans-30" x="63.623047"/>
       <use xlink:href="#DejaVuSans-30" x="127.246094"/>
       <use xlink:href="#DejaVuSans-30" x="190.869141"/>
      </g>
     </g>
    </g>
    <g id="xtick_6">
     <g id="line2d_11">
      <path d="M 327.153467 252 
L 327.153467 34.56 
" clip-path="url(#p8c9fe51deb)" style="fill: none; stroke-dasharray: 2.96,1.28; stroke-dashoffset: 0; stroke: #b0b0b0; stroke-width: 0.8"/>
     </g>
     <g id="line2d_12">
      <g>
       <use xlink:href="#m76814e678f" x="327.153467" y="252" style="stroke: #000000; stroke-width: 0.8"/>
      </g>
     </g>
     <g id="text_6">
      <!-- 2500 -->
      <g transform="translate(314.428467 266.598437)scale(0.1 -0.1)">
       <use xlink:href="#DejaVuSans-32"/>
       <use xlink:href="#DejaVuSans-35" x="63.623047"/>
       <use xlink:href="#DejaVuSans-30" x="127.246094"/>
       <use xlink:href="#DejaVuSans-30" x="190.869141"/>
      </g>
     </g>
    </g>
    <g id="xtick_7">
     <g id="line2d_13">
      <path d="M 378.740524 252 
L 378.740524 34.56 
" clip-path="url(#p8c9fe51deb)" style="fill: none; stroke-dasharray: 2.96,1.28; stroke-dashoffset: 0; stroke: #b0b0b0; stroke-width: 0.8"/>
     </g>
     <g id="line2d_14">
      <g>
       <use xlink:href="#m76814e678f" x="378.740524" y="252" style="stroke: #000000; stroke-width: 0.8"/>
      </g>
     </g>
     <g id="text_7">
      <!-- 3000 -->
      <g transform="translate(366.015524 266.598437)scale(0.1 -0.1)">
       <defs>
        <path id="DejaVuSans-33" d="M 2597 2516 
Q 3050 2419 3304 2112 
Q 3559 1806 3559 1356 
Q 3559 666 3084 287 
Q 2609 -91 1734 -91 
Q 1441 -91 1130 -33 
Q 819 25 488 141 
L 488 750 
Q 750 597 1062 519 
Q 1375 441 1716 441 
Q 2309 441 2620 675 
Q 2931 909 2931 1356 
Q 2931 1769 2642 2001 
Q 2353 2234 1838 2234 
L 1294 2234 
L 1294 2753 
L 1863 2753 
Q 2328 2753 2575 2939 
Q 2822 3125 2822 3475 
Q 2822 3834 2567 4026 
Q 2313 4219 1838 4219 
Q 1578 4219 1281 4162 
Q 984 4106 628 3988 
L 628 4550 
Q 988 4650 1302 4700 
Q 1616 4750 1894 4750 
Q 2613 4750 3031 4423 
Q 3450 4097 3450 3541 
Q 3450 3153 3228 2886 
Q 3006 2619 2597 2516 
z
" transform="scale(0.015625)"/>
       </defs>
       <use xlink:href="#DejaVuSans-33"/>
       <use xlink:href="#DejaVuSans-30" x="63.623047"/>
       <use xlink:href="#DejaVuSans-30" x="127.246094"/>
       <use xlink:href="#DejaVuSans-30" x="190.869141"/>
      </g>
     </g>
    </g>
    <g id="text_8">
     <!-- Steps -->
     <g transform="translate(207.410156 280.276563)scale(0.1 -0.1)">
      <defs>
       <path id="DejaVuSans-53" d="M 3425 4513 
L 3425 3897 
Q 3066 4069 2747 4153 
Q 2428 4238 2131 4238 
Q 1616 4238 1336 4038 
Q 1056 3838 1056 3469 
Q 1056 3159 1242 3001 
Q 1428 2844 1947 2747 
L 2328 2669 
Q 3034 2534 3370 2195 
Q 3706 1856 3706 1288 
Q 3706 609 3251 259 
Q 2797 -91 1919 -91 
Q 1588 -91 1214 -16 
Q 841 59 441 206 
L 441 856 
Q 825 641 1194 531 
Q 1563 422 1919 422 
Q 2459 422 2753 634 
Q 3047 847 3047 1241 
Q 3047 1584 2836 1778 
Q 2625 1972 2144 2069 
L 1759 2144 
Q 1053 2284 737 2584 
Q 422 2884 422 3419 
Q 422 4038 858 4394 
Q 1294 4750 2059 4750 
Q 2388 4750 2728 4690 
Q 3069 4631 3425 4513 
z
" transform="scale(0.015625)"/>
       <path id="DejaVuSans-74" d="M 1172 4494 
L 1172 3500 
L 2356 3500 
L 2356 3053 
L 1172 3053 
L 1172 1153 
Q 1172 725 1289 603 
Q 1406 481 1766 481 
L 2356 481 
L 2356 0 
L 1766 0 
Q 1100 0 847 248 
Q 594 497 594 1153 
L 594 3053 
L 172 3053 
L 172 3500 
L 594 3500 
L 594 4494 
L 1172 4494 
z
" transform="scale(0.015625)"/>
       <path id="DejaVuSans-65" d="M 3597 1894 
L 3597 1613 
L 953 1613 
Q 991 1019 1311 708 
Q 1631 397 2203 397 
Q 2534 397 2845 478 
Q 3156 559 3463 722 
L 3463 178 
Q 3153 47 2828 -22 
Q 2503 -91 2169 -91 
Q 1331 -91 842 396 
Q 353 884 353 1716 
Q 353 2575 817 3079 
Q 1281 3584 2069 3584 
Q 2775 3584 3186 3129 
Q 3597 2675 3597 1894 
z
M 3022 2063 
Q 3016 2534 2758 2815 
Q 2500 3097 2075 3097 
Q 1594 3097 1305 2825 
Q 1016 2553 972 2059 
L 3022 2063 
z
" transform="scale(0.015625)"/>
       <path id="DejaVuSans-70" d="M 1159 525 
L 1159 -1331 
L 581 -1331 
L 581 3500 
L 1159 3500 
L 1159 2969 
Q 1341 3281 1617 3432 
Q 1894 3584 2278 3584 
Q 2916 3584 3314 3078 
Q 3713 2572 3713 1747 
Q 3713 922 3314 415 
Q 2916 -91 2278 -91 
Q 1894 -91 1617 61 
Q 1341 213 1159 525 
z
M 3116 1747 
Q 3116 2381 2855 2742 
Q 2594 3103 2138 3103 
Q 1681 3103 1420 2742 
Q 1159 2381 1159 1747 
Q 1159 1113 1420 752 
Q 1681 391 2138 391 
Q 2594 391 2855 752 
Q 3116 1113 3116 1747 
z
" transform="scale(0.015625)"/>
       <path id="DejaVuSans-73" d="M 2834 3397 
L 2834 2853 
Q 2591 2978 2328 3040 
Q 2066 3103 1784 3103 
Q 1356 3103 1142 2972 
Q 928 2841 928 2578 
Q 928 2378 1081 2264 
Q 1234 2150 1697 2047 
L 1894 2003 
Q 2506 1872 2764 1633 
Q 3022 1394 3022 966 
Q 3022 478 2636 193 
Q 2250 -91 1575 -91 
Q 1294 -91 989 -36 
Q 684 19 347 128 
L 347 722 
Q 666 556 975 473 
Q 1284 391 1588 391 
Q 1994 391 2212 530 
Q 2431 669 2431 922 
Q 2431 1156 2273 1281 
Q 2116 1406 1581 1522 
L 1381 1569 
Q 847 1681 609 1914 
Q 372 2147 372 2553 
Q 372 3047 722 3315 
Q 1072 3584 1716 3584 
Q 2034 3584 2315 3537 
Q 2597 3491 2834 3397 
z
" transform="scale(0.015625)"/>
      </defs>
      <use xlink:href="#DejaVuSans-53"/>
      <use xlink:href="#DejaVuSans-74" x="63.476562"/>
      <use xlink:href="#DejaVuSans-65" x="102.685547"/>
      <use xlink:href="#DejaVuSans-70" x="164.208984"/>
      <use xlink:href="#DejaVuSans-73" x="227.685547"/>
     </g>
    </g>
   </g>
   <g id="matplotlib.axis_2">
    <g id="ytick_1">
     <g id="line2d_15">
      <path d="M 54 243.636923 
L 388.8 243.636923 
" clip-path="url(#p8c9fe51deb)" style="fill: none; stroke-dasharray: 2.96,1.28; stroke-dashoffset: 0; stroke: #b0b0b0; stroke-width: 0.8"/>
     </g>
     <g id="line2d_16">
      <defs>
       <path id="mdbb73c1978" d="M 0 0 
L -3.5 0 
" style="stroke: #000000; stroke-width: 0.8"/>
      </defs>
      <g>
       <use xlink:href="#mdbb73c1978" x="54" y="243.636923" style="stroke: #000000; stroke-width: 0.8"/>
      </g>
     </g>
     <g id="text_9">
      <!-- −12 -->
      <g transform="translate(25.895312 247.436142)scale(0.1 -0.1)">
       <defs>
        <path id="DejaVuSans-2212" d="M 678 2272 
L 4684 2272 
L 4684 1741 
L 678 1741 
L 678 2272 
z
" transform="scale(0.015625)"/>
       </defs>
       <use xlink:href="#DejaVuSans-2212"/>
       <use xlink:href="#DejaVuSans-31" x="83.789062"/>
       <use xlink:href="#DejaVuSans-32" x="147.412109"/>
      </g>
     </g>
    </g>
    <g id="ytick_2">
     <g id="line2d_17">
      <path d="M 54 210.184615 
L 388.8 210.184615 
" clip-path="url(#p8c9fe51deb)" style="fill: none; stroke-dasharray: 2.96,1.28; stroke-dashoffset: 0; stroke: #b0b0b0; stroke-width: 0.8"/>
     </g>
     <g id="line2d_18">
      <g>
       <use xlink:href="#mdbb73c1978" x="54" y="210.184615" style="stroke: #000000; stroke-width: 0.8"/>
      </g>
     </g>
     <g id="text_10">
      <!-- −10 -->
      <g transform="translate(25.895312 213.983834)scale(0.1 -0.1)">
       <use xlink:href="#DejaVuSans-2212"/>
       <use xlink:href="#DejaVuSans-31" x="83.789062"/>
       <use xlink:href="#DejaVuSans-30" x="147.412109"/>
      </g>
     </g>
    </g>
    <g id="ytick_3">
     <g id="line2d_19">
      <path d="M 54 176.732308 
L 388.8 176.732308 
" clip-path="url(#p8c9fe51deb)" style="fill: none; stroke-dasharray: 2.96,1.28; stroke-dashoffset: 0; stroke: #b0b0b0; stroke-width: 0.8"/>
     </g>
     <g id="line2d_20">
      <g>
       <use xlink:href="#mdbb73c1978" x="54" y="176.732308" style="stroke: #000000; stroke-width: 0.8"/>
      </g>
     </g>
     <g id="text_11">
      <!-- −8 -->
      <g transform="translate(32.257812 180.531526)scale(0.1 -0.1)">
       <defs>
        <path id="DejaVuSans-38" d="M 2034 2216 
Q 1584 2216 1326 1975 
Q 1069 1734 1069 1313 
Q 1069 891 1326 650 
Q 1584 409 2034 409 
Q 2484 409 2743 651 
Q 3003 894 3003 1313 
Q 3003 1734 2745 1975 
Q 2488 2216 2034 2216 
z
M 1403 2484 
Q 997 2584 770 2862 
Q 544 3141 544 3541 
Q 544 4100 942 4425 
Q 1341 4750 2034 4750 
Q 2731 4750 3128 4425 
Q 3525 4100 3525 3541 
Q 3525 3141 3298 2862 
Q 3072 2584 2669 2484 
Q 3125 2378 3379 2068 
Q 3634 1759 3634 1313 
Q 3634 634 3220 271 
Q 2806 -91 2034 -91 
Q 1263 -91 848 271 
Q 434 634 434 1313 
Q 434 1759 690 2068 
Q 947 2378 1403 2484 
z
M 1172 3481 
Q 1172 3119 1398 2916 
Q 1625 2713 2034 2713 
Q 2441 2713 2670 2916 
Q 2900 3119 2900 3481 
Q 2900 3844 2670 4047 
Q 2441 4250 2034 4250 
Q 1625 4250 1398 4047 
Q 1172 3844 1172 3481 
z
" transform="scale(0.015625)"/>
       </defs>
       <use xlink:href="#DejaVuSans-2212"/>
       <use xlink:href="#DejaVuSans-38" x="83.789062"/>
      </g>
     </g>
    </g>
    <g id="ytick_4">
     <g id="line2d_21">
      <path d="M 54 143.28 
L 388.8 143.28 
" clip-path="url(#p8c9fe51deb)" style="fill: none; stroke-dasharray: 2.96,1.28; stroke-dashoffset: 0; stroke: #b0b0b0; stroke-width: 0.8"/>
     </g>
     <g id="line2d_22">
      <g>
       <use xlink:href="#mdbb73c1978" x="54" y="143.28" style="stroke: #000000; stroke-width: 0.8"/>
      </g>
     </g>
     <g id="text_12">
      <!-- −6 -->
      <g transform="translate(32.257812 147.079219)scale(0.1 -0.1)">
       <defs>
        <path id="DejaVuSans-36" d="M 2113 2584 
Q 1688 2584 1439 2293 
Q 1191 2003 1191 1497 
Q 1191 994 1439 701 
Q 1688 409 2113 409 
Q 2538 409 2786 701 
Q 3034 994 3034 1497 
Q 3034 2003 2786 2293 
Q 2538 2584 2113 2584 
z
M 3366 4563 
L 3366 3988 
Q 3128 4100 2886 4159 
Q 2644 4219 2406 4219 
Q 1781 4219 1451 3797 
Q 1122 3375 1075 2522 
Q 1259 2794 1537 2939 
Q 1816 3084 2150 3084 
Q 2853 3084 3261 2657 
Q 3669 2231 3669 1497 
Q 3669 778 3244 343 
Q 2819 -91 2113 -91 
Q 1303 -91 875 529 
Q 447 1150 447 2328 
Q 447 3434 972 4092 
Q 1497 4750 2381 4750 
Q 2619 4750 2861 4703 
Q 3103 4656 3366 4563 
z
" transform="scale(0.015625)"/>
       </defs>
       <use xlink:href="#DejaVuSans-2212"/>
       <use xlink:href="#DejaVuSans-36" x="83.789062"/>
      </g>
     </g>
    </g>
    <g id="ytick_5">
     <g id="line2d_23">
      <path d="M 54 109.827692 
L 388.8 109.827692 
" clip-path="url(#p8c9fe51deb)" style="fill: none; stroke-dasharray: 2.96,1.28; stroke-dashoffset: 0; stroke: #b0b0b0; stroke-width: 0.8"/>
     </g>
     <g id="line2d_24">
      <g>
       <use xlink:href="#mdbb73c1978" x="54" y="109.827692" style="stroke: #000000; stroke-width: 0.8"/>
      </g>
     </g>
     <g id="text_13">
      <!-- −4 -->
      <g transform="translate(32.257812 113.626911)scale(0.1 -0.1)">
       <defs>
        <path id="DejaVuSans-34" d="M 2419 4116 
L 825 1625 
L 2419 1625 
L 2419 4116 
z
M 2253 4666 
L 3047 4666 
L 3047 1625 
L 3713 1625 
L 3713 1100 
L 3047 1100 
L 3047 0 
L 2419 0 
L 2419 1100 
L 313 1100 
L 313 1709 
L 2253 4666 
z
" transform="scale(0.015625)"/>
       </defs>
       <use xlink:href="#DejaVuSans-2212"/>
       <use xlink:href="#DejaVuSans-34" x="83.789062"/>
      </g>
     </g>
    </g>
    <g id="ytick_6">
     <g id="line2d_25">
      <path d="M 54 76.375385 
L 388.8 76.375385 
" clip-path="url(#p8c9fe51deb)" style="fill: none; stroke-dasharray: 2.96,1.28; stroke-dashoffset: 0; stroke: #b0b0b0; stroke-width: 0.8"/>
     </g>
     <g id="line2d_26">
      <g>
       <use xlink:href="#mdbb73c1978" x="54" y="76.375385" style="stroke: #000000; stroke-width: 0.8"/>
      </g>
     </g>
     <g id="text_14">
      <!-- −2 -->
      <g transform="translate(32.257812 80.174603)scale(0.1 -0.1)">
       <use xlink:href="#DejaVuSans-2212"/>
       <use xlink:href="#DejaVuSans-32" x="83.789062"/>
      </g>
     </g>
    </g>
    <g id="ytick_7">
     <g id="line2d_27">
      <path d="M 54 42.923077 
L 388.8 42.923077 
" clip-path="url(#p8c9fe51deb)" style="fill: none; stroke-dasharray: 2.96,1.28; stroke-dashoffset: 0; stroke: #b0b0b0; stroke-width: 0.8"/>
     </g>
     <g id="line2d_28">
      <g>
       <use xlink:href="#mdbb73c1978" x="54" y="42.923077" style="stroke: #000000; stroke-width: 0.8"/>
      </g>
     </g>
     <g id="text_15">
      <!-- 0 -->
      <g transform="translate(40.6375 46.722296)scale(0.1 -0.1)">
       <use xlink:href="#DejaVuSans-30"/>
      </g>
     </g>
    </g>
    <g id="text_16">
     <!-- Policy value error -->
     <g transform="translate(19.815625 186.597969)rotate(-90)scale(0.1 -0.1)">
      <defs>
       <path id="DejaVuSans-50" d="M 1259 4147 
L 1259 2394 
L 2053 2394 
Q 2494 2394 2734 2622 
Q 2975 2850 2975 3272 
Q 2975 3691 2734 3919 
Q 2494 4147 2053 4147 
L 1259 4147 
z
M 628 4666 
L 2053 4666 
Q 2838 4666 3239 4311 
Q 3641 3956 3641 3272 
Q 3641 2581 3239 2228 
Q 2838 1875 2053 1875 
L 1259 1875 
L 1259 0 
L 628 0 
L 628 4666 
z
" transform="scale(0.015625)"/>
       <path id="DejaVuSans-6f" d="M 1959 3097 
Q 1497 3097 1228 2736 
Q 959 2375 959 1747 
Q 959 1119 1226 758 
Q 1494 397 1959 397 
Q 2419 397 2687 759 
Q 2956 1122 2956 1747 
Q 2956 2369 2687 2733 
Q 2419 3097 1959 3097 
z
M 1959 3584 
Q 2709 3584 3137 3096 
Q 3566 2609 3566 1747 
Q 3566 888 3137 398 
Q 2709 -91 1959 -91 
Q 1206 -91 779 398 
Q 353 888 353 1747 
Q 353 2609 779 3096 
Q 1206 3584 1959 3584 
z
" transform="scale(0.015625)"/>
       <path id="DejaVuSans-6c" d="M 603 4863 
L 1178 4863 
L 1178 0 
L 603 0 
L 603 4863 
z
" transform="scale(0.015625)"/>
       <path id="DejaVuSans-69" d="M 603 3500 
L 1178 3500 
L 1178 0 
L 603 0 
L 603 3500 
z
M 603 4863 
L 1178 4863 
L 1178 4134 
L 603 4134 
L 603 4863 
z
" transform="scale(0.015625)"/>
       <path id="DejaVuSans-63" d="M 3122 3366 
L 3122 2828 
Q 2878 2963 2633 3030 
Q 2388 3097 2138 3097 
Q 1578 3097 1268 2742 
Q 959 2388 959 1747 
Q 959 1106 1268 751 
Q 1578 397 2138 397 
Q 2388 397 2633 464 
Q 2878 531 3122 666 
L 3122 134 
Q 2881 22 2623 -34 
Q 2366 -91 2075 -91 
Q 1284 -91 818 406 
Q 353 903 353 1747 
Q 353 2603 823 3093 
Q 1294 3584 2113 3584 
Q 2378 3584 2631 3529 
Q 2884 3475 3122 3366 
z
" transform="scale(0.015625)"/>
       <path id="DejaVuSans-79" d="M 2059 -325 
Q 1816 -950 1584 -1140 
Q 1353 -1331 966 -1331 
L 506 -1331 
L 506 -850 
L 844 -850 
Q 1081 -850 1212 -737 
Q 1344 -625 1503 -206 
L 1606 56 
L 191 3500 
L 800 3500 
L 1894 763 
L 2988 3500 
L 3597 3500 
L 2059 -325 
z
" transform="scale(0.015625)"/>
       <path id="DejaVuSans-20" transform="scale(0.015625)"/>
       <path id="DejaVuSans-76" d="M 191 3500 
L 800 3500 
L 1894 563 
L 2988 3500 
L 3597 3500 
L 2284 0 
L 1503 0 
L 191 3500 
z
" transform="scale(0.015625)"/>
       <path id="DejaVuSans-61" d="M 2194 1759 
Q 1497 1759 1228 1600 
Q 959 1441 959 1056 
Q 959 750 1161 570 
Q 1363 391 1709 391 
Q 2188 391 2477 730 
Q 2766 1069 2766 1631 
L 2766 1759 
L 2194 1759 
z
M 3341 1997 
L 3341 0 
L 2766 0 
L 2766 531 
Q 2569 213 2275 61 
Q 1981 -91 1556 -91 
Q 1019 -91 701 211 
Q 384 513 384 1019 
Q 384 1609 779 1909 
Q 1175 2209 1959 2209 
L 2766 2209 
L 2766 2266 
Q 2766 2663 2505 2880 
Q 2244 3097 1772 3097 
Q 1472 3097 1187 3025 
Q 903 2953 641 2809 
L 641 3341 
Q 956 3463 1253 3523 
Q 1550 3584 1831 3584 
Q 2591 3584 2966 3190 
Q 3341 2797 3341 1997 
z
" transform="scale(0.015625)"/>
       <path id="DejaVuSans-75" d="M 544 1381 
L 544 3500 
L 1119 3500 
L 1119 1403 
Q 1119 906 1312 657 
Q 1506 409 1894 409 
Q 2359 409 2629 706 
Q 2900 1003 2900 1516 
L 2900 3500 
L 3475 3500 
L 3475 0 
L 2900 0 
L 2900 538 
Q 2691 219 2414 64 
Q 2138 -91 1772 -91 
Q 1169 -91 856 284 
Q 544 659 544 1381 
z
M 1991 3584 
L 1991 3584 
z
" transform="scale(0.015625)"/>
       <path id="DejaVuSans-72" d="M 2631 2963 
Q 2534 3019 2420 3045 
Q 2306 3072 2169 3072 
Q 1681 3072 1420 2755 
Q 1159 2438 1159 1844 
L 1159 0 
L 581 0 
L 581 3500 
L 1159 3500 
L 1159 2956 
Q 1341 3275 1631 3429 
Q 1922 3584 2338 3584 
Q 2397 3584 2469 3576 
Q 2541 3569 2628 3553 
L 2631 2963 
z
" transform="scale(0.015625)"/>
      </defs>
      <use xlink:href="#DejaVuSans-50"/>
      <use xlink:href="#DejaVuSans-6f" x="56.677734"/>
      <use xlink:href="#DejaVuSans-6c" x="117.859375"/>
      <use xlink:href="#DejaVuSans-69" x="145.642578"/>
      <use xlink:href="#DejaVuSans-63" x="173.425781"/>
      <use xlink:href="#DejaVuSans-79" x="228.40625"/>
      <use xlink:href="#DejaVuSans-20" x="287.585938"/>
      <use xlink:href="#DejaVuSans-76" x="319.373047"/>
      <use xlink:href="#DejaVuSans-61" x="378.552734"/>
      <use xlink:href="#DejaVuSans-6c" x="439.832031"/>
      <use xlink:href="#DejaVuSans-75" x="467.615234"/>
      <use xlink:href="#DejaVuSans-65" x="530.994141"/>
      <use xlink:href="#DejaVuSans-20" x="592.517578"/>
      <use xlink:href="#DejaVuSans-65" x="624.304688"/>
      <use xlink:href="#DejaVuSans-72" x="685.828125"/>
      <use xlink:href="#DejaVuSans-72" x="725.191406"/>
      <use xlink:href="#DejaVuSans-6f" x="764.054688"/>
      <use xlink:href="#DejaVuSans-72" x="825.236328"/>
     </g>
    </g>
   </g>
   <g id="line2d_29">
    <path d="M 69.218182 254.72625 
L 74.376888 252.908818 
L 79.535593 254.774306 
L 84.694299 255.57362 
L 89.853005 258.331757 
L 95.01171 257.226765 
L 100.170416 255.635627 
L 105.329122 255.613085 
L 110.487827 259.960325 
L 115.646533 263.791467 
L 120.805239 257.355767 
L 125.963945 258.318766 
L 131.12265 250.732179 
L 136.281356 259.13008 
L 141.440062 265.432719 
L 146.598767 246.627562 
L 151.757473 209.297582 
L 156.916179 258.860321 
L 162.074884 248.213382 
L 167.23359 270.92885 
L 172.392296 258.390997 
L 177.551002 256.608462 
L 182.709707 239.967604 
L 187.868413 251.762224 
L 193.027119 253.51974 
L 198.185824 254.062122 
L 203.34453 255.205298 
L 208.503236 253.597248 
L 213.661941 254.349013 
L 218.820647 255.599989 
L 223.979353 252.558277 
L 229.138059 254.223703 
L 234.296764 253.146995 
L 239.45547 252.583857 
L 244.614176 250.730844 
L 249.772881 253.227097 
L 254.931587 253.46682 
L 260.090293 256.367353 
L 265.248998 245.694719 
L 270.407704 254.249228 
L 275.56641 253.914431 
L 280.725116 117.157177 
L 285.883821 62.718969 
L 291.042527 59.995045 
L 296.201233 59.995045 
L 301.359938 65.204379 
L 306.518644 59.995045 
L 311.67735 59.994852 
L 316.836055 59.995045 
L 321.994761 59.995045 
L 327.153467 61.65761 
L 332.312173 61.65761 
L 337.470878 71.667708 
L 342.629584 62.941543 
L 347.78829 62.941347 
L 352.946995 62.941347 
L 358.105701 85.388487 
L 363.264407 64.659982 
L 368.423112 64.659982 
L 373.581818 69.133801 
" clip-path="url(#p8c9fe51deb)" style="fill: none; stroke: #9d02d7; stroke-width: 1.5; stroke-linecap: square"/>
    <defs>
     <path id="m07997937de" d="M 0 -2 
L -2 2 
L 2 2 
z
" style="stroke: #9d02d7; stroke-linejoin: miter"/>
    </defs>
    <g clip-path="url(#p8c9fe51deb)">
     <use xlink:href="#m07997937de" x="69.218182" y="254.72625" style="fill: #9d02d7; stroke: #9d02d7; stroke-linejoin: miter"/>
     <use xlink:href="#m07997937de" x="74.376888" y="252.908818" style="fill: #9d02d7; stroke: #9d02d7; stroke-linejoin: miter"/>
     <use xlink:href="#m07997937de" x="79.535593" y="254.774306" style="fill: #9d02d7; stroke: #9d02d7; stroke-linejoin: miter"/>
     <use xlink:href="#m07997937de" x="84.694299" y="255.57362" style="fill: #9d02d7; stroke: #9d02d7; stroke-linejoin: miter"/>
     <use xlink:href="#m07997937de" x="89.853005" y="258.331757" style="fill: #9d02d7; stroke: #9d02d7; stroke-linejoin: miter"/>
     <use xlink:href="#m07997937de" x="95.01171" y="257.226765" style="fill: #9d02d7; stroke: #9d02d7; stroke-linejoin: miter"/>
     <use xlink:href="#m07997937de" x="100.170416" y="255.635627" style="fill: #9d02d7; stroke: #9d02d7; stroke-linejoin: miter"/>
     <use xlink:href="#m07997937de" x="105.329122" y="255.613085" style="fill: #9d02d7; stroke: #9d02d7; stroke-linejoin: miter"/>
     <use xlink:href="#m07997937de" x="110.487827" y="259.960325" style="fill: #9d02d7; stroke: #9d02d7; stroke-linejoin: miter"/>
     <use xlink:href="#m07997937de" x="115.646533" y="263.791467" style="fill: #9d02d7; stroke: #9d02d7; stroke-linejoin: miter"/>
     <use xlink:href="#m07997937de" x="120.805239" y="257.355767" style="fill: #9d02d7; stroke: #9d02d7; stroke-linejoin: miter"/>
     <use xlink:href="#m07997937de" x="125.963945" y="258.318766" style="fill: #9d02d7; stroke: #9d02d7; stroke-linejoin: miter"/>
     <use xlink:href="#m07997937de" x="131.12265" y="250.732179" style="fill: #9d02d7; stroke: #9d02d7; stroke-linejoin: miter"/>
     <use xlink:href="#m07997937de" x="136.281356" y="259.13008" style="fill: #9d02d7; stroke: #9d02d7; stroke-linejoin: miter"/>
     <use xlink:href="#m07997937de" x="141.440062" y="265.432719" style="fill: #9d02d7; stroke: #9d02d7; stroke-linejoin: miter"/>
     <use xlink:href="#m07997937de" x="146.598767" y="246.627562" style="fill: #9d02d7; stroke: #9d02d7; stroke-linejoin: miter"/>
     <use xlink:href="#m07997937de" x="151.757473" y="209.297582" style="fill: #9d02d7; stroke: #9d02d7; stroke-linejoin: miter"/>
     <use xlink:href="#m07997937de" x="156.916179" y="258.860321" style="fill: #9d02d7; stroke: #9d02d7; stroke-linejoin: miter"/>
     <use xlink:href="#m07997937de" x="162.074884" y="248.213382" style="fill: #9d02d7; stroke: #9d02d7; stroke-linejoin: miter"/>
     <use xlink:href="#m07997937de" x="167.23359" y="270.92885" style="fill: #9d02d7; stroke: #9d02d7; stroke-linejoin: miter"/>
     <use xlink:href="#m07997937de" x="172.392296" y="258.390997" style="fill: #9d02d7; stroke: #9d02d7; stroke-linejoin: miter"/>
     <use xlink:href="#m07997937de" x="177.551002" y="256.608462" style="fill: #9d02d7; stroke: #9d02d7; stroke-linejoin: miter"/>
     <use xlink:href="#m07997937de" x="182.709707" y="239.967604" style="fill: #9d02d7; stroke: #9d02d7; stroke-linejoin: miter"/>
     <use xlink:href="#m07997937de" x="187.868413" y="251.762224" style="fill: #9d02d7; stroke: #9d02d7; stroke-linejoin: miter"/>
     <use xlink:href="#m07997937de" x="193.027119" y="253.51974" style="fill: #9d02d7; stroke: #9d02d7; stroke-linejoin: miter"/>
     <use xlink:href="#m07997937de" x="198.185824" y="254.062122" style="fill: #9d02d7; stroke: #9d02d7; stroke-linejoin: miter"/>
     <use xlink:href="#m07997937de" x="203.34453" y="255.205298" style="fill: #9d02d7; stroke: #9d02d7; stroke-linejoin: miter"/>
     <use xlink:href="#m07997937de" x="208.503236" y="253.597248" style="fill: #9d02d7; stroke: #9d02d7; stroke-linejoin: miter"/>
     <use xlink:href="#m07997937de" x="213.661941" y="254.349013" style="fill: #9d02d7; stroke: #9d02d7; stroke-linejoin: miter"/>
     <use xlink:href="#m07997937de" x="218.820647" y="255.599989" style="fill: #9d02d7; stroke: #9d02d7; stroke-linejoin: miter"/>
     <use xlink:href="#m07997937de" x="223.979353" y="252.558277" style="fill: #9d02d7; stroke: #9d02d7; stroke-linejoin: miter"/>
     <use xlink:href="#m07997937de" x="229.138059" y="254.223703" style="fill: #9d02d7; stroke: #9d02d7; stroke-linejoin: miter"/>
     <use xlink:href="#m07997937de" x="234.296764" y="253.146995" style="fill: #9d02d7; stroke: #9d02d7; stroke-linejoin: miter"/>
     <use xlink:href="#m07997937de" x="239.45547" y="252.583857" style="fill: #9d02d7; stroke: #9d02d7; stroke-linejoin: miter"/>
     <use xlink:href="#m07997937de" x="244.614176" y="250.730844" style="fill: #9d02d7; stroke: #9d02d7; stroke-linejoin: miter"/>
     <use xlink:href="#m07997937de" x="249.772881" y="253.227097" style="fill: #9d02d7; stroke: #9d02d7; stroke-linejoin: miter"/>
     <use xlink:href="#m07997937de" x="254.931587" y="253.46682" style="fill: #9d02d7; stroke: #9d02d7; stroke-linejoin: miter"/>
     <use xlink:href="#m07997937de" x="260.090293" y="256.367353" style="fill: #9d02d7; stroke: #9d02d7; stroke-linejoin: miter"/>
     <use xlink:href="#m07997937de" x="265.248998" y="245.694719" style="fill: #9d02d7; stroke: #9d02d7; stroke-linejoin: miter"/>
     <use xlink:href="#m07997937de" x="270.407704" y="254.249228" style="fill: #9d02d7; stroke: #9d02d7; stroke-linejoin: miter"/>
     <use xlink:href="#m07997937de" x="275.56641" y="253.914431" style="fill: #9d02d7; stroke: #9d02d7; stroke-linejoin: miter"/>
     <use xlink:href="#m07997937de" x="280.725116" y="117.157177" style="fill: #9d02d7; stroke: #9d02d7; stroke-linejoin: miter"/>
     <use xlink:href="#m07997937de" x="285.883821" y="62.718969" style="fill: #9d02d7; stroke: #9d02d7; stroke-linejoin: miter"/>
     <use xlink:href="#m07997937de" x="291.042527" y="59.995045" style="fill: #9d02d7; stroke: #9d02d7; stroke-linejoin: miter"/>
     <use xlink:href="#m07997937de" x="296.201233" y="59.995045" style="fill: #9d02d7; stroke: #9d02d7; stroke-linejoin: miter"/>
     <use xlink:href="#m07997937de" x="301.359938" y="65.204379" style="fill: #9d02d7; stroke: #9d02d7; stroke-linejoin: miter"/>
     <use xlink:href="#m07997937de" x="306.518644" y="59.995045" style="fill: #9d02d7; stroke: #9d02d7; stroke-linejoin: miter"/>
     <use xlink:href="#m07997937de" x="311.67735" y="59.994852" style="fill: #9d02d7; stroke: #9d02d7; stroke-linejoin: miter"/>
     <use xlink:href="#m07997937de" x="316.836055" y="59.995045" style="fill: #9d02d7; stroke: #9d02d7; stroke-linejoin: miter"/>
     <use xlink:href="#m07997937de" x="321.994761" y="59.995045" style="fill: #9d02d7; stroke: #9d02d7; stroke-linejoin: miter"/>
     <use xlink:href="#m07997937de" x="327.153467" y="61.65761" style="fill: #9d02d7; stroke: #9d02d7; stroke-linejoin: miter"/>
     <use xlink:href="#m07997937de" x="332.312173" y="61.65761" style="fill: #9d02d7; stroke: #9d02d7; stroke-linejoin: miter"/>
     <use xlink:href="#m07997937de" x="337.470878" y="71.667708" style="fill: #9d02d7; stroke: #9d02d7; stroke-linejoin: miter"/>
     <use xlink:href="#m07997937de" x="342.629584" y="62.941543" style="fill: #9d02d7; stroke: #9d02d7; stroke-linejoin: miter"/>
     <use xlink:href="#m07997937de" x="347.78829" y="62.941347" style="fill: #9d02d7; stroke: #9d02d7; stroke-linejoin: miter"/>
     <use xlink:href="#m07997937de" x="352.946995" y="62.941347" style="fill: #9d02d7; stroke: #9d02d7; stroke-linejoin: miter"/>
     <use xlink:href="#m07997937de" x="358.105701" y="85.388487" style="fill: #9d02d7; stroke: #9d02d7; stroke-linejoin: miter"/>
     <use xlink:href="#m07997937de" x="363.264407" y="64.659982" style="fill: #9d02d7; stroke: #9d02d7; stroke-linejoin: miter"/>
     <use xlink:href="#m07997937de" x="368.423112" y="64.659982" style="fill: #9d02d7; stroke: #9d02d7; stroke-linejoin: miter"/>
     <use xlink:href="#m07997937de" x="373.581818" y="69.133801" style="fill: #9d02d7; stroke: #9d02d7; stroke-linejoin: miter"/>
    </g>
   </g>
   <g id="line2d_30">
    <path d="M 69.218182 252.817411 
L 74.376888 254.42407 
L 79.535593 252.696747 
L 84.694299 254.115283 
L 89.853005 253.632768 
L 95.01171 253.920632 
L 100.170416 256.665885 
L 105.329122 257.98193 
L 110.487827 253.465756 
L 115.646533 261.106294 
L 120.805239 258.022414 
L 125.963945 259.223384 
L 131.12265 254.694545 
L 136.281356 259.417719 
L 141.440062 253.422383 
L 146.598767 254.617096 
L 151.757473 255.616116 
L 156.916179 224.031301 
L 162.074884 207.207015 
L 167.23359 211.67186 
L 172.392296 211.67186 
L 177.551002 229.788254 
L 182.709707 218.103684 
L 187.868413 224.705076 
L 193.027119 214.213494 
L 198.185824 214.200505 
L 203.34453 205.084321 
L 208.503236 235.828184 
L 213.661941 158.826088 
L 218.820647 158.826088 
L 223.979353 158.826088 
L 229.138059 158.826088 
L 234.296764 158.874363 
L 239.45547 158.826088 
L 244.614176 158.916148 
L 249.772881 158.915595 
L 254.931587 158.873246 
L 260.090293 158.873246 
L 265.248998 158.915595 
L 270.407704 158.916148 
L 275.56641 158.680915 
L 280.725116 158.916022 
L 285.883821 159.886759 
L 291.042527 158.680915 
L 296.201233 159.886759 
L 301.359938 158.915595 
L 306.518644 154.977105 
L 311.67735 250.607827 
L 316.836055 231.532355 
L 321.994761 158.91632 
L 327.153467 205.67273 
L 332.312173 205.563737 
L 337.470878 202.993585 
L 342.629584 202.993585 
L 347.78829 168.994888 
L 352.946995 108.125902 
L 358.105701 108.125902 
L 363.264407 107.741076 
L 368.423112 107.741076 
L 373.581818 112.426967 
" clip-path="url(#p8c9fe51deb)" style="fill: none; stroke: #0000ff; stroke-width: 1.5; stroke-linecap: square"/>
    <defs>
     <path id="m6de360efbd" d="M 0 2 
C 0.530406 2 1.03916 1.789267 1.414214 1.414214 
C 1.789267 1.03916 2 0.530406 2 0 
C 2 -0.530406 1.789267 -1.03916 1.414214 -1.414214 
C 1.03916 -1.789267 0.530406 -2 0 -2 
C -0.530406 -2 -1.03916 -1.789267 -1.414214 -1.414214 
C -1.789267 -1.03916 -2 -0.530406 -2 0 
C -2 0.530406 -1.789267 1.03916 -1.414214 1.414214 
C -1.03916 1.789267 -0.530406 2 0 2 
z
" style="stroke: #0000ff"/>
    </defs>
    <g clip-path="url(#p8c9fe51deb)">
     <use xlink:href="#m6de360efbd" x="69.218182" y="252.817411" style="fill: #0000ff; stroke: #0000ff"/>
     <use xlink:href="#m6de360efbd" x="74.376888" y="254.42407" style="fill: #0000ff; stroke: #0000ff"/>
     <use xlink:href="#m6de360efbd" x="79.535593" y="252.696747" style="fill: #0000ff; stroke: #0000ff"/>
     <use xlink:href="#m6de360efbd" x="84.694299" y="254.115283" style="fill: #0000ff; stroke: #0000ff"/>
     <use xlink:href="#m6de360efbd" x="89.853005" y="253.632768" style="fill: #0000ff; stroke: #0000ff"/>
     <use xlink:href="#m6de360efbd" x="95.01171" y="253.920632" style="fill: #0000ff; stroke: #0000ff"/>
     <use xlink:href="#m6de360efbd" x="100.170416" y="256.665885" style="fill: #0000ff; stroke: #0000ff"/>
     <use xlink:href="#m6de360efbd" x="105.329122" y="257.98193" style="fill: #0000ff; stroke: #0000ff"/>
     <use xlink:href="#m6de360efbd" x="110.487827" y="253.465756" style="fill: #0000ff; stroke: #0000ff"/>
     <use xlink:href="#m6de360efbd" x="115.646533" y="261.106294" style="fill: #0000ff; stroke: #0000ff"/>
     <use xlink:href="#m6de360efbd" x="120.805239" y="258.022414" style="fill: #0000ff; stroke: #0000ff"/>
     <use xlink:href="#m6de360efbd" x="125.963945" y="259.223384" style="fill: #0000ff; stroke: #0000ff"/>
     <use xlink:href="#m6de360efbd" x="131.12265" y="254.694545" style="fill: #0000ff; stroke: #0000ff"/>
     <use xlink:href="#m6de360efbd" x="136.281356" y="259.417719" style="fill: #0000ff; stroke: #0000ff"/>
     <use xlink:href="#m6de360efbd" x="141.440062" y="253.422383" style="fill: #0000ff; stroke: #0000ff"/>
     <use xlink:href="#m6de360efbd" x="146.598767" y="254.617096" style="fill: #0000ff; stroke: #0000ff"/>
     <use xlink:href="#m6de360efbd" x="151.757473" y="255.616116" style="fill: #0000ff; stroke: #0000ff"/>
     <use xlink:href="#m6de360efbd" x="156.916179" y="224.031301" style="fill: #0000ff; stroke: #0000ff"/>
     <use xlink:href="#m6de360efbd" x="162.074884" y="207.207015" style="fill: #0000ff; stroke: #0000ff"/>
     <use xlink:href="#m6de360efbd" x="167.23359" y="211.67186" style="fill: #0000ff; stroke: #0000ff"/>
     <use xlink:href="#m6de360efbd" x="172.392296" y="211.67186" style="fill: #0000ff; stroke: #0000ff"/>
     <use xlink:href="#m6de360efbd" x="177.551002" y="229.788254" style="fill: #0000ff; stroke: #0000ff"/>
     <use xlink:href="#m6de360efbd" x="182.709707" y="218.103684" style="fill: #0000ff; stroke: #0000ff"/>
     <use xlink:href="#m6de360efbd" x="187.868413" y="224.705076" style="fill: #0000ff; stroke: #0000ff"/>
     <use xlink:href="#m6de360efbd" x="193.027119" y="214.213494" style="fill: #0000ff; stroke: #0000ff"/>
     <use xlink:href="#m6de360efbd" x="198.185824" y="214.200505" style="fill: #0000ff; stroke: #0000ff"/>
     <use xlink:href="#m6de360efbd" x="203.34453" y="205.084321" style="fill: #0000ff; stroke: #0000ff"/>
     <use xlink:href="#m6de360efbd" x="208.503236" y="235.828184" style="fill: #0000ff; stroke: #0000ff"/>
     <use xlink:href="#m6de360efbd" x="213.661941" y="158.826088" style="fill: #0000ff; stroke: #0000ff"/>
     <use xlink:href="#m6de360efbd" x="218.820647" y="158.826088" style="fill: #0000ff; stroke: #0000ff"/>
     <use xlink:href="#m6de360efbd" x="223.979353" y="158.826088" style="fill: #0000ff; stroke: #0000ff"/>
     <use xlink:href="#m6de360efbd" x="229.138059" y="158.826088" style="fill: #0000ff; stroke: #0000ff"/>
     <use xlink:href="#m6de360efbd" x="234.296764" y="158.874363" style="fill: #0000ff; stroke: #0000ff"/>
     <use xlink:href="#m6de360efbd" x="239.45547" y="158.826088" style="fill: #0000ff; stroke: #0000ff"/>
     <use xlink:href="#m6de360efbd" x="244.614176" y="158.916148" style="fill: #0000ff; stroke: #0000ff"/>
     <use xlink:href="#m6de360efbd" x="249.772881" y="158.915595" style="fill: #0000ff; stroke: #0000ff"/>
     <use xlink:href="#m6de360efbd" x="254.931587" y="158.873246" style="fill: #0000ff; stroke: #0000ff"/>
     <use xlink:href="#m6de360efbd" x="260.090293" y="158.873246" style="fill: #0000ff; stroke: #0000ff"/>
     <use xlink:href="#m6de360efbd" x="265.248998" y="158.915595" style="fill: #0000ff; stroke: #0000ff"/>
     <use xlink:href="#m6de360efbd" x="270.407704" y="158.916148" style="fill: #0000ff; stroke: #0000ff"/>
     <use xlink:href="#m6de360efbd" x="275.56641" y="158.680915" style="fill: #0000ff; stroke: #0000ff"/>
     <use xlink:href="#m6de360efbd" x="280.725116" y="158.916022" style="fill: #0000ff; stroke: #0000ff"/>
     <use xlink:href="#m6de360efbd" x="285.883821" y="159.886759" style="fill: #0000ff; stroke: #0000ff"/>
     <use xlink:href="#m6de360efbd" x="291.042527" y="158.680915" style="fill: #0000ff; stroke: #0000ff"/>
     <use xlink:href="#m6de360efbd" x="296.201233" y="159.886759" style="fill: #0000ff; stroke: #0000ff"/>
     <use xlink:href="#m6de360efbd" x="301.359938" y="158.915595" style="fill: #0000ff; stroke: #0000ff"/>
     <use xlink:href="#m6de360efbd" x="306.518644" y="154.977105" style="fill: #0000ff; stroke: #0000ff"/>
     <use xlink:href="#m6de360efbd" x="311.67735" y="250.607827" style="fill: #0000ff; stroke: #0000ff"/>
     <use xlink:href="#m6de360efbd" x="316.836055" y="231.532355" style="fill: #0000ff; stroke: #0000ff"/>
     <use xlink:href="#m6de360efbd" x="321.994761" y="158.91632" style="fill: #0000ff; stroke: #0000ff"/>
     <use xlink:href="#m6de360efbd" x="327.153467" y="205.67273" style="fill: #0000ff; stroke: #0000ff"/>
     <use xlink:href="#m6de360efbd" x="332.312173" y="205.563737" style="fill: #0000ff; stroke: #0000ff"/>
     <use xlink:href="#m6de360efbd" x="337.470878" y="202.993585" style="fill: #0000ff; stroke: #0000ff"/>
     <use xlink:href="#m6de360efbd" x="342.629584" y="202.993585" style="fill: #0000ff; stroke: #0000ff"/>
     <use xlink:href="#m6de360efbd" x="347.78829" y="168.994888" style="fill: #0000ff; stroke: #0000ff"/>
     <use xlink:href="#m6de360efbd" x="352.946995" y="108.125902" style="fill: #0000ff; stroke: #0000ff"/>
     <use xlink:href="#m6de360efbd" x="358.105701" y="108.125902" style="fill: #0000ff; stroke: #0000ff"/>
     <use xlink:href="#m6de360efbd" x="363.264407" y="107.741076" style="fill: #0000ff; stroke: #0000ff"/>
     <use xlink:href="#m6de360efbd" x="368.423112" y="107.741076" style="fill: #0000ff; stroke: #0000ff"/>
     <use xlink:href="#m6de360efbd" x="373.581818" y="112.426967" style="fill: #0000ff; stroke: #0000ff"/>
    </g>
   </g>
   <g id="line2d_31">
    <path d="M 69.218182 253.351542 
L 74.376888 254.647466 
L 79.535593 257.452839 
L 84.694299 257.210409 
L 89.853005 257.044879 
L 95.01171 257.784163 
L 100.170416 258.032374 
L 105.329122 256.245609 
L 110.487827 255.964102 
L 115.646533 261.948473 
L 120.805239 253.018106 
L 125.963945 259.289074 
L 131.12265 258.881545 
L 136.281356 259.82179 
L 141.440062 258.437248 
L 146.598767 254.876913 
L 151.757473 254.244629 
L 156.916179 256.241439 
L 162.074884 257.945836 
L 167.23359 254.439936 
L 172.392296 254.190129 
L 177.551002 263.893741 
L 182.709707 270.774975 
L 187.868413 280.746449 
L 193.027119 254.007641 
L 198.185824 262.884721 
L 203.34453 265.950353 
L 208.503236 259.915661 
L 213.661941 259.914535 
L 218.820647 259.914943 
L 223.979353 254.012081 
L 229.138059 259.122262 
L 234.296764 253.538963 
L 239.45547 253.657118 
L 244.614176 253.760573 
L 249.772881 253.739751 
L 254.931587 256.749573 
L 260.090293 270.918522 
L 265.248998 198.494631 
L 270.407704 198.494631 
L 275.56641 198.538539 
L 280.725116 198.538539 
L 285.883821 198.085389 
L 291.042527 198.085389 
L 296.201233 199.102928 
L 301.359938 199.102928 
L 306.518644 201.89288 
L 311.67735 201.89288 
L 316.836055 201.89288 
L 321.994761 201.89288 
L 327.153467 201.89288 
L 332.312173 201.89288 
L 337.470878 202.415361 
L 342.629584 202.415361 
L 347.78829 202.415361 
L 352.946995 202.415361 
L 358.105701 202.415361 
L 363.264407 202.415361 
L 368.423112 243.91109 
L 373.581818 205.60396 
" clip-path="url(#p8c9fe51deb)" style="fill: none; stroke: #ff7763; stroke-width: 1.5; stroke-linecap: square"/>
    <defs>
     <path id="m0cfd61ccb1" d="M -2 2 
L 2 -2 
M -2 -2 
L 2 2 
" style="stroke: #ff7763"/>
    </defs>
    <g clip-path="url(#p8c9fe51deb)">
     <use xlink:href="#m0cfd61ccb1" x="69.218182" y="253.351542" style="fill: #ff7763; stroke: #ff7763"/>
     <use xlink:href="#m0cfd61ccb1" x="74.376888" y="254.647466" style="fill: #ff7763; stroke: #ff7763"/>
     <use xlink:href="#m0cfd61ccb1" x="79.535593" y="257.452839" style="fill: #ff7763; stroke: #ff7763"/>
     <use xlink:href="#m0cfd61ccb1" x="84.694299" y="257.210409" style="fill: #ff7763; stroke: #ff7763"/>
     <use xlink:href="#m0cfd61ccb1" x="89.853005" y="257.044879" style="fill: #ff7763; stroke: #ff7763"/>
     <use xlink:href="#m0cfd61ccb1" x="95.01171" y="257.784163" style="fill: #ff7763; stroke: #ff7763"/>
     <use xlink:href="#m0cfd61ccb1" x="100.170416" y="258.032374" style="fill: #ff7763; stroke: #ff7763"/>
     <use xlink:href="#m0cfd61ccb1" x="105.329122" y="256.245609" style="fill: #ff7763; stroke: #ff7763"/>
     <use xlink:href="#m0cfd61ccb1" x="110.487827" y="255.964102" style="fill: #ff7763; stroke: #ff7763"/>
     <use xlink:href="#m0cfd61ccb1" x="115.646533" y="261.948473" style="fill: #ff7763; stroke: #ff7763"/>
     <use xlink:href="#m0cfd61ccb1" x="120.805239" y="253.018106" style="fill: #ff7763; stroke: #ff7763"/>
     <use xlink:href="#m0cfd61ccb1" x="125.963945" y="259.289074" style="fill: #ff7763; stroke: #ff7763"/>
     <use xlink:href="#m0cfd61ccb1" x="131.12265" y="258.881545" style="fill: #ff7763; stroke: #ff7763"/>
     <use xlink:href="#m0cfd61ccb1" x="136.281356" y="259.82179" style="fill: #ff7763; stroke: #ff7763"/>
     <use xlink:href="#m0cfd61ccb1" x="141.440062" y="258.437248" style="fill: #ff7763; stroke: #ff7763"/>
     <use xlink:href="#m0cfd61ccb1" x="146.598767" y="254.876913" style="fill: #ff7763; stroke: #ff7763"/>
     <use xlink:href="#m0cfd61ccb1" x="151.757473" y="254.244629" style="fill: #ff7763; stroke: #ff7763"/>
     <use xlink:href="#m0cfd61ccb1" x="156.916179" y="256.241439" style="fill: #ff7763; stroke: #ff7763"/>
     <use xlink:href="#m0cfd61ccb1" x="162.074884" y="257.945836" style="fill: #ff7763; stroke: #ff7763"/>
     <use xlink:href="#m0cfd61ccb1" x="167.23359" y="254.439936" style="fill: #ff7763; stroke: #ff7763"/>
     <use xlink:href="#m0cfd61ccb1" x="172.392296" y="254.190129" style="fill: #ff7763; stroke: #ff7763"/>
     <use xlink:href="#m0cfd61ccb1" x="177.551002" y="263.893741" style="fill: #ff7763; stroke: #ff7763"/>
     <use xlink:href="#m0cfd61ccb1" x="182.709707" y="270.774975" style="fill: #ff7763; stroke: #ff7763"/>
     <use xlink:href="#m0cfd61ccb1" x="187.868413" y="280.746449" style="fill: #ff7763; stroke: #ff7763"/>
     <use xlink:href="#m0cfd61ccb1" x="193.027119" y="254.007641" style="fill: #ff7763; stroke: #ff7763"/>
     <use xlink:href="#m0cfd61ccb1" x="198.185824" y="262.884721" style="fill: #ff7763; stroke: #ff7763"/>
     <use xlink:href="#m0cfd61ccb1" x="203.34453" y="265.950353" style="fill: #ff7763; stroke: #ff7763"/>
     <use xlink:href="#m0cfd61ccb1" x="208.503236" y="259.915661" style="fill: #ff7763; stroke: #ff7763"/>
     <use xlink:href="#m0cfd61ccb1" x="213.661941" y="259.914535" style="fill: #ff7763; stroke: #ff7763"/>
     <use xlink:href="#m0cfd61ccb1" x="218.820647" y="259.914943" style="fill: #ff7763; stroke: #ff7763"/>
     <use xlink:href="#m0cfd61ccb1" x="223.979353" y="254.012081" style="fill: #ff7763; stroke: #ff7763"/>
     <use xlink:href="#m0cfd61ccb1" x="229.138059" y="259.122262" style="fill: #ff7763; stroke: #ff7763"/>
     <use xlink:href="#m0cfd61ccb1" x="234.296764" y="253.538963" style="fill: #ff7763; stroke: #ff7763"/>
     <use xlink:href="#m0cfd61ccb1" x="239.45547" y="253.657118" style="fill: #ff7763; stroke: #ff7763"/>
     <use xlink:href="#m0cfd61ccb1" x="244.614176" y="253.760573" style="fill: #ff7763; stroke: #ff7763"/>
     <use xlink:href="#m0cfd61ccb1" x="249.772881" y="253.739751" style="fill: #ff7763; stroke: #ff7763"/>
     <use xlink:href="#m0cfd61ccb1" x="254.931587" y="256.749573" style="fill: #ff7763; stroke: #ff7763"/>
     <use xlink:href="#m0cfd61ccb1" x="260.090293" y="270.918522" style="fill: #ff7763; stroke: #ff7763"/>
     <use xlink:href="#m0cfd61ccb1" x="265.248998" y="198.494631" style="fill: #ff7763; stroke: #ff7763"/>
     <use xlink:href="#m0cfd61ccb1" x="270.407704" y="198.494631" style="fill: #ff7763; stroke: #ff7763"/>
     <use xlink:href="#m0cfd61ccb1" x="275.56641" y="198.538539" style="fill: #ff7763; stroke: #ff7763"/>
     <use xlink:href="#m0cfd61ccb1" x="280.725116" y="198.538539" style="fill: #ff7763; stroke: #ff7763"/>
     <use xlink:href="#m0cfd61ccb1" x="285.883821" y="198.085389" style="fill: #ff7763; stroke: #ff7763"/>
     <use xlink:href="#m0cfd61ccb1" x="291.042527" y="198.085389" style="fill: #ff7763; stroke: #ff7763"/>
     <use xlink:href="#m0cfd61ccb1" x="296.201233" y="199.102928" style="fill: #ff7763; stroke: #ff7763"/>
     <use xlink:href="#m0cfd61ccb1" x="301.359938" y="199.102928" style="fill: #ff7763; stroke: #ff7763"/>
     <use xlink:href="#m0cfd61ccb1" x="306.518644" y="201.89288" style="fill: #ff7763; stroke: #ff7763"/>
     <use xlink:href="#m0cfd61ccb1" x="311.67735" y="201.89288" style="fill: #ff7763; stroke: #ff7763"/>
     <use xlink:href="#m0cfd61ccb1" x="316.836055" y="201.89288" style="fill: #ff7763; stroke: #ff7763"/>
     <use xlink:href="#m0cfd61ccb1" x="321.994761" y="201.89288" style="fill: #ff7763; stroke: #ff7763"/>
     <use xlink:href="#m0cfd61ccb1" x="327.153467" y="201.89288" style="fill: #ff7763; stroke: #ff7763"/>
     <use xlink:href="#m0cfd61ccb1" x="332.312173" y="201.89288" style="fill: #ff7763; stroke: #ff7763"/>
     <use xlink:href="#m0cfd61ccb1" x="337.470878" y="202.415361" style="fill: #ff7763; stroke: #ff7763"/>
     <use xlink:href="#m0cfd61ccb1" x="342.629584" y="202.415361" style="fill: #ff7763; stroke: #ff7763"/>
     <use xlink:href="#m0cfd61ccb1" x="347.78829" y="202.415361" style="fill: #ff7763; stroke: #ff7763"/>
     <use xlink:href="#m0cfd61ccb1" x="352.946995" y="202.415361" style="fill: #ff7763; stroke: #ff7763"/>
     <use xlink:href="#m0cfd61ccb1" x="358.105701" y="202.415361" style="fill: #ff7763; stroke: #ff7763"/>
     <use xlink:href="#m0cfd61ccb1" x="363.264407" y="202.415361" style="fill: #ff7763; stroke: #ff7763"/>
     <use xlink:href="#m0cfd61ccb1" x="368.423112" y="243.91109" style="fill: #ff7763; stroke: #ff7763"/>
     <use xlink:href="#m0cfd61ccb1" x="373.581818" y="205.60396" style="fill: #ff7763; stroke: #ff7763"/>
    </g>
   </g>
   <g id="line2d_32">
    <path d="M 69.218182 252.908818 
L 74.376888 257.107721 
L 79.535593 254.303736 
L 84.694299 254.860201 
L 89.853005 255.11104 
L 95.01171 255.44017 
L 100.170416 255.064069 
L 105.329122 255.465051 
L 110.487827 250.036992 
L 115.646533 249.890418 
L 120.805239 255.818401 
L 125.963945 255.826456 
L 131.12265 255.826494 
L 136.281356 255.826459 
L 141.440062 255.826457 
L 146.598767 255.826456 
L 151.757473 255.826476 
L 156.916179 255.826457 
L 162.074884 255.826457 
L 167.23359 255.826476 
L 172.392296 255.826457 
L 177.551002 255.826494 
L 182.709707 255.826476 
L 187.868413 255.826456 
L 193.027119 255.826456 
L 198.185824 255.826456 
L 203.34453 255.826456 
L 208.503236 255.826459 
L 213.661941 256.043292 
L 218.820647 256.043292 
L 223.979353 256.043291 
L 229.138059 256.043295 
L 234.296764 256.043295 
L 239.45547 256.043295 
L 244.614176 256.043297 
L 249.772881 256.043291 
L 254.931587 255.909118 
L 260.090293 255.909114 
L 265.248998 255.909114 
L 270.407704 255.909114 
L 275.56641 255.909114 
L 280.725116 255.909114 
L 285.883821 255.909118 
L 291.042527 255.909114 
L 296.201233 255.909114 
L 301.359938 255.909114 
L 306.518644 255.909114 
L 311.67735 254.643319 
L 316.836055 254.643318 
L 321.994761 254.643319 
L 327.153467 254.643319 
L 332.312173 254.643319 
L 337.470878 254.643318 
L 342.629584 254.643318 
L 347.78829 262.526795 
L 352.946995 256.267031 
L 358.105701 256.267035 
L 363.264407 256.267031 
L 368.423112 256.261113 
L 373.581818 256.261109 
" clip-path="url(#p8c9fe51deb)" style="fill: none; stroke: #ffac1e; stroke-width: 1.5; stroke-linecap: square"/>
    <defs>
     <path id="m4dafe566db" d="M 0 -2 
L -0.449028 -0.618034 
L -1.902113 -0.618034 
L -0.726543 0.236068 
L -1.175571 1.618034 
L -0 0.763932 
L 1.175571 1.618034 
L 0.726543 0.236068 
L 1.902113 -0.618034 
L 0.449028 -0.618034 
z
" style="stroke: #ffac1e; stroke-linejoin: bevel"/>
    </defs>
    <g clip-path="url(#p8c9fe51deb)">
     <use xlink:href="#m4dafe566db" x="69.218182" y="252.908818" style="fill: #ffac1e; stroke: #ffac1e; stroke-linejoin: bevel"/>
     <use xlink:href="#m4dafe566db" x="74.376888" y="257.107721" style="fill: #ffac1e; stroke: #ffac1e; stroke-linejoin: bevel"/>
     <use xlink:href="#m4dafe566db" x="79.535593" y="254.303736" style="fill: #ffac1e; stroke: #ffac1e; stroke-linejoin: bevel"/>
     <use xlink:href="#m4dafe566db" x="84.694299" y="254.860201" style="fill: #ffac1e; stroke: #ffac1e; stroke-linejoin: bevel"/>
     <use xlink:href="#m4dafe566db" x="89.853005" y="255.11104" style="fill: #ffac1e; stroke: #ffac1e; stroke-linejoin: bevel"/>
     <use xlink:href="#m4dafe566db" x="95.01171" y="255.44017" style="fill: #ffac1e; stroke: #ffac1e; stroke-linejoin: bevel"/>
     <use xlink:href="#m4dafe566db" x="100.170416" y="255.064069" style="fill: #ffac1e; stroke: #ffac1e; stroke-linejoin: bevel"/>
     <use xlink:href="#m4dafe566db" x="105.329122" y="255.465051" style="fill: #ffac1e; stroke: #ffac1e; stroke-linejoin: bevel"/>
     <use xlink:href="#m4dafe566db" x="110.487827" y="250.036992" style="fill: #ffac1e; stroke: #ffac1e; stroke-linejoin: bevel"/>
     <use xlink:href="#m4dafe566db" x="115.646533" y="249.890418" style="fill: #ffac1e; stroke: #ffac1e; stroke-linejoin: bevel"/>
     <use xlink:href="#m4dafe566db" x="120.805239" y="255.818401" style="fill: #ffac1e; stroke: #ffac1e; stroke-linejoin: bevel"/>
     <use xlink:href="#m4dafe566db" x="125.963945" y="255.826456" style="fill: #ffac1e; stroke: #ffac1e; stroke-linejoin: bevel"/>
     <use xlink:href="#m4dafe566db" x="131.12265" y="255.826494" style="fill: #ffac1e; stroke: #ffac1e; stroke-linejoin: bevel"/>
     <use xlink:href="#m4dafe566db" x="136.281356" y="255.826459" style="fill: #ffac1e; stroke: #ffac1e; stroke-linejoin: bevel"/>
     <use xlink:href="#m4dafe566db" x="141.440062" y="255.826457" style="fill: #ffac1e; stroke: #ffac1e; stroke-linejoin: bevel"/>
     <use xlink:href="#m4dafe566db" x="146.598767" y="255.826456" style="fill: #ffac1e; stroke: #ffac1e; stroke-linejoin: bevel"/>
     <use xlink:href="#m4dafe566db" x="151.757473" y="255.826476" style="fill: #ffac1e; stroke: #ffac1e; stroke-linejoin: bevel"/>
     <use xlink:href="#m4dafe566db" x="156.916179" y="255.826457" style="fill: #ffac1e; stroke: #ffac1e; stroke-linejoin: bevel"/>
     <use xlink:href="#m4dafe566db" x="162.074884" y="255.826457" style="fill: #ffac1e; stroke: #ffac1e; stroke-linejoin: bevel"/>
     <use xlink:href="#m4dafe566db" x="167.23359" y="255.826476" style="fill: #ffac1e; stroke: #ffac1e; stroke-linejoin: bevel"/>
     <use xlink:href="#m4dafe566db" x="172.392296" y="255.826457" style="fill: #ffac1e; stroke: #ffac1e; stroke-linejoin: bevel"/>
     <use xlink:href="#m4dafe566db" x="177.551002" y="255.826494" style="fill: #ffac1e; stroke: #ffac1e; stroke-linejoin: bevel"/>
     <use xlink:href="#m4dafe566db" x="182.709707" y="255.826476" style="fill: #ffac1e; stroke: #ffac1e; stroke-linejoin: bevel"/>
     <use xlink:href="#m4dafe566db" x="187.868413" y="255.826456" style="fill: #ffac1e; stroke: #ffac1e; stroke-linejoin: bevel"/>
     <use xlink:href="#m4dafe566db" x="193.027119" y="255.826456" style="fill: #ffac1e; stroke: #ffac1e; stroke-linejoin: bevel"/>
     <use xlink:href="#m4dafe566db" x="198.185824" y="255.826456" style="fill: #ffac1e; stroke: #ffac1e; stroke-linejoin: bevel"/>
     <use xlink:href="#m4dafe566db" x="203.34453" y="255.826456" style="fill: #ffac1e; stroke: #ffac1e; stroke-linejoin: bevel"/>
     <use xlink:href="#m4dafe566db" x="208.503236" y="255.826459" style="fill: #ffac1e; stroke: #ffac1e; stroke-linejoin: bevel"/>
     <use xlink:href="#m4dafe566db" x="213.661941" y="256.043292" style="fill: #ffac1e; stroke: #ffac1e; stroke-linejoin: bevel"/>
     <use xlink:href="#m4dafe566db" x="218.820647" y="256.043292" style="fill: #ffac1e; stroke: #ffac1e; stroke-linejoin: bevel"/>
     <use xlink:href="#m4dafe566db" x="223.979353" y="256.043291" style="fill: #ffac1e; stroke: #ffac1e; stroke-linejoin: bevel"/>
     <use xlink:href="#m4dafe566db" x="229.138059" y="256.043295" style="fill: #ffac1e; stroke: #ffac1e; stroke-linejoin: bevel"/>
     <use xlink:href="#m4dafe566db" x="234.296764" y="256.043295" style="fill: #ffac1e; stroke: #ffac1e; stroke-linejoin: bevel"/>
     <use xlink:href="#m4dafe566db" x="239.45547" y="256.043295" style="fill: #ffac1e; stroke: #ffac1e; stroke-linejoin: bevel"/>
     <use xlink:href="#m4dafe566db" x="244.614176" y="256.043297" style="fill: #ffac1e; stroke: #ffac1e; stroke-linejoin: bevel"/>
     <use xlink:href="#m4dafe566db" x="249.772881" y="256.043291" style="fill: #ffac1e; stroke: #ffac1e; stroke-linejoin: bevel"/>
     <use xlink:href="#m4dafe566db" x="254.931587" y="255.909118" style="fill: #ffac1e; stroke: #ffac1e; stroke-linejoin: bevel"/>
     <use xlink:href="#m4dafe566db" x="260.090293" y="255.909114" style="fill: #ffac1e; stroke: #ffac1e; stroke-linejoin: bevel"/>
     <use xlink:href="#m4dafe566db" x="265.248998" y="255.909114" style="fill: #ffac1e; stroke: #ffac1e; stroke-linejoin: bevel"/>
     <use xlink:href="#m4dafe566db" x="270.407704" y="255.909114" style="fill: #ffac1e; stroke: #ffac1e; stroke-linejoin: bevel"/>
     <use xlink:href="#m4dafe566db" x="275.56641" y="255.909114" style="fill: #ffac1e; stroke: #ffac1e; stroke-linejoin: bevel"/>
     <use xlink:href="#m4dafe566db" x="280.725116" y="255.909114" style="fill: #ffac1e; stroke: #ffac1e; stroke-linejoin: bevel"/>
     <use xlink:href="#m4dafe566db" x="285.883821" y="255.909118" style="fill: #ffac1e; stroke: #ffac1e; stroke-linejoin: bevel"/>
     <use xlink:href="#m4dafe566db" x="291.042527" y="255.909114" style="fill: #ffac1e; stroke: #ffac1e; stroke-linejoin: bevel"/>
     <use xlink:href="#m4dafe566db" x="296.201233" y="255.909114" style="fill: #ffac1e; stroke: #ffac1e; stroke-linejoin: bevel"/>
     <use xlink:href="#m4dafe566db" x="301.359938" y="255.909114" style="fill: #ffac1e; stroke: #ffac1e; stroke-linejoin: bevel"/>
     <use xlink:href="#m4dafe566db" x="306.518644" y="255.909114" style="fill: #ffac1e; stroke: #ffac1e; stroke-linejoin: bevel"/>
     <use xlink:href="#m4dafe566db" x="311.67735" y="254.643319" style="fill: #ffac1e; stroke: #ffac1e; stroke-linejoin: bevel"/>
     <use xlink:href="#m4dafe566db" x="316.836055" y="254.643318" style="fill: #ffac1e; stroke: #ffac1e; stroke-linejoin: bevel"/>
     <use xlink:href="#m4dafe566db" x="321.994761" y="254.643319" style="fill: #ffac1e; stroke: #ffac1e; stroke-linejoin: bevel"/>
     <use xlink:href="#m4dafe566db" x="327.153467" y="254.643319" style="fill: #ffac1e; stroke: #ffac1e; stroke-linejoin: bevel"/>
     <use xlink:href="#m4dafe566db" x="332.312173" y="254.643319" style="fill: #ffac1e; stroke: #ffac1e; stroke-linejoin: bevel"/>
     <use xlink:href="#m4dafe566db" x="337.470878" y="254.643318" style="fill: #ffac1e; stroke: #ffac1e; stroke-linejoin: bevel"/>
     <use xlink:href="#m4dafe566db" x="342.629584" y="254.643318" style="fill: #ffac1e; stroke: #ffac1e; stroke-linejoin: bevel"/>
     <use xlink:href="#m4dafe566db" x="347.78829" y="262.526795" style="fill: #ffac1e; stroke: #ffac1e; stroke-linejoin: bevel"/>
     <use xlink:href="#m4dafe566db" x="352.946995" y="256.267031" style="fill: #ffac1e; stroke: #ffac1e; stroke-linejoin: bevel"/>
     <use xlink:href="#m4dafe566db" x="358.105701" y="256.267035" style="fill: #ffac1e; stroke: #ffac1e; stroke-linejoin: bevel"/>
     <use xlink:href="#m4dafe566db" x="363.264407" y="256.267031" style="fill: #ffac1e; stroke: #ffac1e; stroke-linejoin: bevel"/>
     <use xlink:href="#m4dafe566db" x="368.423112" y="256.261113" style="fill: #ffac1e; stroke: #ffac1e; stroke-linejoin: bevel"/>
     <use xlink:href="#m4dafe566db" x="373.581818" y="256.261109" style="fill: #ffac1e; stroke: #ffac1e; stroke-linejoin: bevel"/>
    </g>
   </g>
   <g id="line2d_33">
    <path d="M 69.218182 253.612954 
L 74.376888 256.570686 
L 79.535593 254.593723 
L 84.694299 256.661922 
L 89.853005 255.485372 
L 95.01171 255.419919 
L 100.170416 255.555417 
L 105.329122 255.406574 
L 110.487827 255.488163 
L 115.646533 255.560294 
L 120.805239 255.488602 
L 125.963945 255.627333 
L 131.12265 255.56016 
L 136.281356 255.488171 
L 141.440062 255.406566 
L 146.598767 255.97603 
L 151.757473 256.277172 
L 156.916179 256.277158 
L 162.074884 256.277172 
L 167.23359 256.277158 
L 172.392296 256.277155 
L 177.551002 256.277158 
L 182.709707 256.277158 
L 187.868413 256.277155 
L 193.027119 256.179897 
L 198.185824 256.179897 
L 203.34453 256.179981 
L 208.503236 256.17998 
L 213.661941 256.17998 
L 218.820647 256.179963 
L 223.979353 256.179963 
L 229.138059 256.17998 
L 234.296764 256.17998 
L 239.45547 256.17998 
L 244.614176 256.179897 
L 249.772881 256.179981 
L 254.931587 256.179963 
L 260.090293 256.17998 
L 265.248998 256.179963 
L 270.407704 256.179897 
L 275.56641 256.17998 
L 280.725116 256.179897 
L 285.883821 256.179981 
L 291.042527 256.17998 
L 296.201233 256.179981 
L 301.359938 255.536811 
L 306.518644 255.536812 
L 311.67735 255.536811 
L 316.836055 255.492433 
L 321.994761 255.492433 
L 327.153467 255.536809 
L 332.312173 255.536366 
L 337.470878 255.492433 
L 342.629584 255.536366 
L 347.78829 255.536811 
L 352.946995 255.492433 
L 358.105701 255.536812 
L 363.264407 255.536809 
L 368.423112 255.536811 
L 373.581818 255.536812 
" clip-path="url(#p8c9fe51deb)" style="fill: none; stroke: #009435; stroke-width: 1.5; stroke-linecap: square"/>
    <defs>
     <path id="m07cb77fad9" d="M -2 2 
L 2 2 
L 2 -2 
L -2 -2 
z
" style="stroke: #009435; stroke-linejoin: miter"/>
    </defs>
    <g clip-path="url(#p8c9fe51deb)">
     <use xlink:href="#m07cb77fad9" x="69.218182" y="253.612954" style="fill: #009435; stroke: #009435; stroke-linejoin: miter"/>
     <use xlink:href="#m07cb77fad9" x="74.376888" y="256.570686" style="fill: #009435; stroke: #009435; stroke-linejoin: miter"/>
     <use xlink:href="#m07cb77fad9" x="79.535593" y="254.593723" style="fill: #009435; stroke: #009435; stroke-linejoin: miter"/>
     <use xlink:href="#m07cb77fad9" x="84.694299" y="256.661922" style="fill: #009435; stroke: #009435; stroke-linejoin: miter"/>
     <use xlink:href="#m07cb77fad9" x="89.853005" y="255.485372" style="fill: #009435; stroke: #009435; stroke-linejoin: miter"/>
     <use xlink:href="#m07cb77fad9" x="95.01171" y="255.419919" style="fill: #009435; stroke: #009435; stroke-linejoin: miter"/>
     <use xlink:href="#m07cb77fad9" x="100.170416" y="255.555417" style="fill: #009435; stroke: #009435; stroke-linejoin: miter"/>
     <use xlink:href="#m07cb77fad9" x="105.329122" y="255.406574" style="fill: #009435; stroke: #009435; stroke-linejoin: miter"/>
     <use xlink:href="#m07cb77fad9" x="110.487827" y="255.488163" style="fill: #009435; stroke: #009435; stroke-linejoin: miter"/>
     <use xlink:href="#m07cb77fad9" x="115.646533" y="255.560294" style="fill: #009435; stroke: #009435; stroke-linejoin: miter"/>
     <use xlink:href="#m07cb77fad9" x="120.805239" y="255.488602" style="fill: #009435; stroke: #009435; stroke-linejoin: miter"/>
     <use xlink:href="#m07cb77fad9" x="125.963945" y="255.627333" style="fill: #009435; stroke: #009435; stroke-linejoin: miter"/>
     <use xlink:href="#m07cb77fad9" x="131.12265" y="255.56016" style="fill: #009435; stroke: #009435; stroke-linejoin: miter"/>
     <use xlink:href="#m07cb77fad9" x="136.281356" y="255.488171" style="fill: #009435; stroke: #009435; stroke-linejoin: miter"/>
     <use xlink:href="#m07cb77fad9" x="141.440062" y="255.406566" style="fill: #009435; stroke: #009435; stroke-linejoin: miter"/>
     <use xlink:href="#m07cb77fad9" x="146.598767" y="255.97603" style="fill: #009435; stroke: #009435; stroke-linejoin: miter"/>
     <use xlink:href="#m07cb77fad9" x="151.757473" y="256.277172" style="fill: #009435; stroke: #009435; stroke-linejoin: miter"/>
     <use xlink:href="#m07cb77fad9" x="156.916179" y="256.277158" style="fill: #009435; stroke: #009435; stroke-linejoin: miter"/>
     <use xlink:href="#m07cb77fad9" x="162.074884" y="256.277172" style="fill: #009435; stroke: #009435; stroke-linejoin: miter"/>
     <use xlink:href="#m07cb77fad9" x="167.23359" y="256.277158" style="fill: #009435; stroke: #009435; stroke-linejoin: miter"/>
     <use xlink:href="#m07cb77fad9" x="172.392296" y="256.277155" style="fill: #009435; stroke: #009435; stroke-linejoin: miter"/>
     <use xlink:href="#m07cb77fad9" x="177.551002" y="256.277158" style="fill: #009435; stroke: #009435; stroke-linejoin: miter"/>
     <use xlink:href="#m07cb77fad9" x="182.709707" y="256.277158" style="fill: #009435; stroke: #009435; stroke-linejoin: miter"/>
     <use xlink:href="#m07cb77fad9" x="187.868413" y="256.277155" style="fill: #009435; stroke: #009435; stroke-linejoin: miter"/>
     <use xlink:href="#m07cb77fad9" x="193.027119" y="256.179897" style="fill: #009435; stroke: #009435; stroke-linejoin: miter"/>
     <use xlink:href="#m07cb77fad9" x="198.185824" y="256.179897" style="fill: #009435; stroke: #009435; stroke-linejoin: miter"/>
     <use xlink:href="#m07cb77fad9" x="203.34453" y="256.179981" style="fill: #009435; stroke: #009435; stroke-linejoin: miter"/>
     <use xlink:href="#m07cb77fad9" x="208.503236" y="256.17998" style="fill: #009435; stroke: #009435; stroke-linejoin: miter"/>
     <use xlink:href="#m07cb77fad9" x="213.661941" y="256.17998" style="fill: #009435; stroke: #009435; stroke-linejoin: miter"/>
     <use xlink:href="#m07cb77fad9" x="218.820647" y="256.179963" style="fill: #009435; stroke: #009435; stroke-linejoin: miter"/>
     <use xlink:href="#m07cb77fad9" x="223.979353" y="256.179963" style="fill: #009435; stroke: #009435; stroke-linejoin: miter"/>
     <use xlink:href="#m07cb77fad9" x="229.138059" y="256.17998" style="fill: #009435; stroke: #009435; stroke-linejoin: miter"/>
     <use xlink:href="#m07cb77fad9" x="234.296764" y="256.17998" style="fill: #009435; stroke: #009435; stroke-linejoin: miter"/>
     <use xlink:href="#m07cb77fad9" x="239.45547" y="256.17998" style="fill: #009435; stroke: #009435; stroke-linejoin: miter"/>
     <use xlink:href="#m07cb77fad9" x="244.614176" y="256.179897" style="fill: #009435; stroke: #009435; stroke-linejoin: miter"/>
     <use xlink:href="#m07cb77fad9" x="249.772881" y="256.179981" style="fill: #009435; stroke: #009435; stroke-linejoin: miter"/>
     <use xlink:href="#m07cb77fad9" x="254.931587" y="256.179963" style="fill: #009435; stroke: #009435; stroke-linejoin: miter"/>
     <use xlink:href="#m07cb77fad9" x="260.090293" y="256.17998" style="fill: #009435; stroke: #009435; stroke-linejoin: miter"/>
     <use xlink:href="#m07cb77fad9" x="265.248998" y="256.179963" style="fill: #009435; stroke: #009435; stroke-linejoin: miter"/>
     <use xlink:href="#m07cb77fad9" x="270.407704" y="256.179897" style="fill: #009435; stroke: #009435; stroke-linejoin: miter"/>
     <use xlink:href="#m07cb77fad9" x="275.56641" y="256.17998" style="fill: #009435; stroke: #009435; stroke-linejoin: miter"/>
     <use xlink:href="#m07cb77fad9" x="280.725116" y="256.179897" style="fill: #009435; stroke: #009435; stroke-linejoin: miter"/>
     <use xlink:href="#m07cb77fad9" x="285.883821" y="256.179981" style="fill: #009435; stroke: #009435; stroke-linejoin: miter"/>
     <use xlink:href="#m07cb77fad9" x="291.042527" y="256.17998" style="fill: #009435; stroke: #009435; stroke-linejoin: miter"/>
     <use xlink:href="#m07cb77fad9" x="296.201233" y="256.179981" style="fill: #009435; stroke: #009435; stroke-linejoin: miter"/>
     <use xlink:href="#m07cb77fad9" x="301.359938" y="255.536811" style="fill: #009435; stroke: #009435; stroke-linejoin: miter"/>
     <use xlink:href="#m07cb77fad9" x="306.518644" y="255.536812" style="fill: #009435; stroke: #009435; stroke-linejoin: miter"/>
     <use xlink:href="#m07cb77fad9" x="311.67735" y="255.536811" style="fill: #009435; stroke: #009435; stroke-linejoin: miter"/>
     <use xlink:href="#m07cb77fad9" x="316.836055" y="255.492433" style="fill: #009435; stroke: #009435; stroke-linejoin: miter"/>
     <use xlink:href="#m07cb77fad9" x="321.994761" y="255.492433" style="fill: #009435; stroke: #009435; stroke-linejoin: miter"/>
     <use xlink:href="#m07cb77fad9" x="327.153467" y="255.536809" style="fill: #009435; stroke: #009435; stroke-linejoin: miter"/>
     <use xlink:href="#m07cb77fad9" x="332.312173" y="255.536366" style="fill: #009435; stroke: #009435; stroke-linejoin: miter"/>
     <use xlink:href="#m07cb77fad9" x="337.470878" y="255.492433" style="fill: #009435; stroke: #009435; stroke-linejoin: miter"/>
     <use xlink:href="#m07cb77fad9" x="342.629584" y="255.536366" style="fill: #009435; stroke: #009435; stroke-linejoin: miter"/>
     <use xlink:href="#m07cb77fad9" x="347.78829" y="255.536811" style="fill: #009435; stroke: #009435; stroke-linejoin: miter"/>
     <use xlink:href="#m07cb77fad9" x="352.946995" y="255.492433" style="fill: #009435; stroke: #009435; stroke-linejoin: miter"/>
     <use xlink:href="#m07cb77fad9" x="358.105701" y="255.536812" style="fill: #009435; stroke: #009435; stroke-linejoin: miter"/>
     <use xlink:href="#m07cb77fad9" x="363.264407" y="255.536809" style="fill: #009435; stroke: #009435; stroke-linejoin: miter"/>
     <use xlink:href="#m07cb77fad9" x="368.423112" y="255.536811" style="fill: #009435; stroke: #009435; stroke-linejoin: miter"/>
     <use xlink:href="#m07cb77fad9" x="373.581818" y="255.536812" style="fill: #009435; stroke: #009435; stroke-linejoin: miter"/>
    </g>
   </g>
   <g id="patch_3">
    <path d="M 54 252 
L 54 34.56 
" style="fill: none; stroke: #000000; stroke-width: 0.8; stroke-linejoin: miter; stroke-linecap: square"/>
   </g>
   <g id="patch_4">
    <path d="M 388.8 252 
L 388.8 34.56 
" style="fill: none; stroke: #000000; stroke-width: 0.8; stroke-linejoin: miter; stroke-linecap: square"/>
   </g>
   <g id="patch_5">
    <path d="M 54 252 
L 388.8 252 
" style="fill: none; stroke: #000000; stroke-width: 0.8; stroke-linejoin: miter; stroke-linecap: square"/>
   </g>
   <g id="patch_6">
    <path d="M 54 34.56 
L 388.8 34.56 
" style="fill: none; stroke: #000000; stroke-width: 0.8; stroke-linejoin: miter; stroke-linecap: square"/>
   </g>
   <g id="text_17">
    <!-- ζ-EB agent policy with beta = 2.0 -->
    <g transform="translate(120.797813 28.56)scale(0.12 -0.12)">
     <defs>
      <path id="DejaVuSans-3b6" d="M 2231 397 
Q 2644 394 2891 159 
Q 3153 -88 3153 -463 
Q 3153 -822 2922 -1072 
Q 2672 -1344 2163 -1344 
Q 2163 -1109 2163 -872 
Q 2378 -888 2509 -750 
Q 2609 -641 2609 -525 
Q 2609 -359 2509 -222 
Q 2413 -91 2231 -91 
Q 338 -91 334 1669 
Q 334 3206 2119 4284 
L 456 4284 
L 456 4863 
L 3175 4863 
L 3175 4284 
Q 913 3147 913 1669 
Q 913 397 2231 397 
z
" transform="scale(0.015625)"/>
      <path id="DejaVuSans-2d" d="M 313 2009 
L 1997 2009 
L 1997 1497 
L 313 1497 
L 313 2009 
z
" transform="scale(0.015625)"/>
      <path id="DejaVuSans-45" d="M 628 4666 
L 3578 4666 
L 3578 4134 
L 1259 4134 
L 1259 2753 
L 3481 2753 
L 3481 2222 
L 1259 2222 
L 1259 531 
L 3634 531 
L 3634 0 
L 628 0 
L 628 4666 
z
" transform="scale(0.015625)"/>
      <path id="DejaVuSans-42" d="M 1259 2228 
L 1259 519 
L 2272 519 
Q 2781 519 3026 730 
Q 3272 941 3272 1375 
Q 3272 1813 3026 2020 
Q 2781 2228 2272 2228 
L 1259 2228 
z
M 1259 4147 
L 1259 2741 
L 2194 2741 
Q 2656 2741 2882 2914 
Q 3109 3088 3109 3444 
Q 3109 3797 2882 3972 
Q 2656 4147 2194 4147 
L 1259 4147 
z
M 628 4666 
L 2241 4666 
Q 2963 4666 3353 4366 
Q 3744 4066 3744 3513 
Q 3744 3084 3544 2831 
Q 3344 2578 2956 2516 
Q 3422 2416 3680 2098 
Q 3938 1781 3938 1306 
Q 3938 681 3513 340 
Q 3088 0 2303 0 
L 628 0 
L 628 4666 
z
" transform="scale(0.015625)"/>
      <path id="DejaVuSans-67" d="M 2906 1791 
Q 2906 2416 2648 2759 
Q 2391 3103 1925 3103 
Q 1463 3103 1205 2759 
Q 947 2416 947 1791 
Q 947 1169 1205 825 
Q 1463 481 1925 481 
Q 2391 481 2648 825 
Q 2906 1169 2906 1791 
z
M 3481 434 
Q 3481 -459 3084 -895 
Q 2688 -1331 1869 -1331 
Q 1566 -1331 1297 -1286 
Q 1028 -1241 775 -1147 
L 775 -588 
Q 1028 -725 1275 -790 
Q 1522 -856 1778 -856 
Q 2344 -856 2625 -561 
Q 2906 -266 2906 331 
L 2906 616 
Q 2728 306 2450 153 
Q 2172 0 1784 0 
Q 1141 0 747 490 
Q 353 981 353 1791 
Q 353 2603 747 3093 
Q 1141 3584 1784 3584 
Q 2172 3584 2450 3431 
Q 2728 3278 2906 2969 
L 2906 3500 
L 3481 3500 
L 3481 434 
z
" transform="scale(0.015625)"/>
      <path id="DejaVuSans-6e" d="M 3513 2113 
L 3513 0 
L 2938 0 
L 2938 2094 
Q 2938 2591 2744 2837 
Q 2550 3084 2163 3084 
Q 1697 3084 1428 2787 
Q 1159 2491 1159 1978 
L 1159 0 
L 581 0 
L 581 3500 
L 1159 3500 
L 1159 2956 
Q 1366 3272 1645 3428 
Q 1925 3584 2291 3584 
Q 2894 3584 3203 3211 
Q 3513 2838 3513 2113 
z
" transform="scale(0.015625)"/>
      <path id="DejaVuSans-77" d="M 269 3500 
L 844 3500 
L 1563 769 
L 2278 3500 
L 2956 3500 
L 3675 769 
L 4391 3500 
L 4966 3500 
L 4050 0 
L 3372 0 
L 2619 2869 
L 1863 0 
L 1184 0 
L 269 3500 
z
" transform="scale(0.015625)"/>
      <path id="DejaVuSans-68" d="M 3513 2113 
L 3513 0 
L 2938 0 
L 2938 2094 
Q 2938 2591 2744 2837 
Q 2550 3084 2163 3084 
Q 1697 3084 1428 2787 
Q 1159 2491 1159 1978 
L 1159 0 
L 581 0 
L 581 4863 
L 1159 4863 
L 1159 2956 
Q 1366 3272 1645 3428 
Q 1925 3584 2291 3584 
Q 2894 3584 3203 3211 
Q 3513 2838 3513 2113 
z
" transform="scale(0.015625)"/>
      <path id="DejaVuSans-62" d="M 3116 1747 
Q 3116 2381 2855 2742 
Q 2594 3103 2138 3103 
Q 1681 3103 1420 2742 
Q 1159 2381 1159 1747 
Q 1159 1113 1420 752 
Q 1681 391 2138 391 
Q 2594 391 2855 752 
Q 3116 1113 3116 1747 
z
M 1159 2969 
Q 1341 3281 1617 3432 
Q 1894 3584 2278 3584 
Q 2916 3584 3314 3078 
Q 3713 2572 3713 1747 
Q 3713 922 3314 415 
Q 2916 -91 2278 -91 
Q 1894 -91 1617 61 
Q 1341 213 1159 525 
L 1159 0 
L 581 0 
L 581 4863 
L 1159 4863 
L 1159 2969 
z
" transform="scale(0.015625)"/>
      <path id="DejaVuSans-3d" d="M 678 2906 
L 4684 2906 
L 4684 2381 
L 678 2381 
L 678 2906 
z
M 678 1631 
L 4684 1631 
L 4684 1100 
L 678 1100 
L 678 1631 
z
" transform="scale(0.015625)"/>
      <path id="DejaVuSans-2e" d="M 684 794 
L 1344 794 
L 1344 0 
L 684 0 
L 684 794 
z
" transform="scale(0.015625)"/>
     </defs>
     <use xlink:href="#DejaVuSans-3b6"/>
     <use xlink:href="#DejaVuSans-2d" x="54.394531"/>
     <use xlink:href="#DejaVuSans-45" x="90.478516"/>
     <use xlink:href="#DejaVuSans-42" x="153.662109"/>
     <use xlink:href="#DejaVuSans-20" x="222.265625"/>
     <use xlink:href="#DejaVuSans-61" x="254.052734"/>
     <use xlink:href="#DejaVuSans-67" x="315.332031"/>
     <use xlink:href="#DejaVuSans-65" x="378.808594"/>
     <use xlink:href="#DejaVuSans-6e" x="440.332031"/>
     <use xlink:href="#DejaVuSans-74" x="503.710938"/>
     <use xlink:href="#DejaVuSans-20" x="542.919922"/>
     <use xlink:href="#DejaVuSans-70" x="574.707031"/>
     <use xlink:href="#DejaVuSans-6f" x="638.183594"/>
     <use xlink:href="#DejaVuSans-6c" x="699.365234"/>
     <use xlink:href="#DejaVuSans-69" x="727.148438"/>
     <use xlink:href="#DejaVuSans-63" x="754.931641"/>
     <use xlink:href="#DejaVuSans-79" x="809.912109"/>
     <use xlink:href="#DejaVuSans-20" x="869.091797"/>
     <use xlink:href="#DejaVuSans-77" x="900.878906"/>
     <use xlink:href="#DejaVuSans-69" x="982.666016"/>
     <use xlink:href="#DejaVuSans-74" x="1010.449219"/>
     <use xlink:href="#DejaVuSans-68" x="1049.658203"/>
     <use xlink:href="#DejaVuSans-20" x="1113.037109"/>
     <use xlink:href="#DejaVuSans-62" x="1144.824219"/>
     <use xlink:href="#DejaVuSans-65" x="1208.300781"/>
     <use xlink:href="#DejaVuSans-74" x="1269.824219"/>
     <use xlink:href="#DejaVuSans-61" x="1309.033203"/>
     <use xlink:href="#DejaVuSans-20" x="1370.3125"/>
     <use xlink:href="#DejaVuSans-3d" x="1402.099609"/>
     <use xlink:href="#DejaVuSans-20" x="1485.888672"/>
     <use xlink:href="#DejaVuSans-32" x="1517.675781"/>
     <use xlink:href="#DejaVuSans-2e" x="1581.298828"/>
     <use xlink:href="#DejaVuSans-30" x="1613.085938"/>
    </g>
   </g>
   <g id="legend_1">
    <g id="patch_7">
     <path d="M 61 115.950625 
L 145.003125 115.950625 
Q 147.003125 115.950625 147.003125 113.950625 
L 147.003125 41.56 
Q 147.003125 39.56 145.003125 39.56 
L 61 39.56 
Q 59 39.56 59 41.56 
L 59 113.950625 
Q 59 115.950625 61 115.950625 
z
" style="fill: #ffffff; opacity: 0.8; stroke: #cccccc; stroke-linejoin: miter"/>
    </g>
    <g id="line2d_34">
     <path d="M 63 47.658437 
L 73 47.658437 
L 83 47.658437 
" style="fill: none; stroke: #9d02d7; stroke-width: 1.5; stroke-linecap: square"/>
     <g>
      <use xlink:href="#m07997937de" x="73" y="47.658437" style="fill: #9d02d7; stroke: #9d02d7; stroke-linejoin: miter"/>
     </g>
    </g>
    <g id="text_18">
     <!-- alpha=0.1 -->
     <g transform="translate(91 51.158437)scale(0.1 -0.1)">
      <use xlink:href="#DejaVuSans-61"/>
      <use xlink:href="#DejaVuSans-6c" x="61.279297"/>
      <use xlink:href="#DejaVuSans-70" x="89.0625"/>
      <use xlink:href="#DejaVuSans-68" x="152.539062"/>
      <use xlink:href="#DejaVuSans-61" x="215.917969"/>
      <use xlink:href="#DejaVuSans-3d" x="277.197266"/>
      <use xlink:href="#DejaVuSans-30" x="360.986328"/>
      <use xlink:href="#DejaVuSans-2e" x="424.609375"/>
      <use xlink:href="#DejaVuSans-31" x="456.396484"/>
     </g>
    </g>
    <g id="line2d_35">
     <path d="M 63 62.336562 
L 73 62.336562 
L 83 62.336562 
" style="fill: none; stroke: #0000ff; stroke-width: 1.5; stroke-linecap: square"/>
     <g>
      <use xlink:href="#m6de360efbd" x="73" y="62.336562" style="fill: #0000ff; stroke: #0000ff"/>
     </g>
    </g>
    <g id="text_19">
     <!-- alpha=0.5 -->
     <g transform="translate(91 65.836562)scale(0.1 -0.1)">
      <use xlink:href="#DejaVuSans-61"/>
      <use xlink:href="#DejaVuSans-6c" x="61.279297"/>
      <use xlink:href="#DejaVuSans-70" x="89.0625"/>
      <use xlink:href="#DejaVuSans-68" x="152.539062"/>
      <use xlink:href="#DejaVuSans-61" x="215.917969"/>
      <use xlink:href="#DejaVuSans-3d" x="277.197266"/>
      <use xlink:href="#DejaVuSans-30" x="360.986328"/>
      <use xlink:href="#DejaVuSans-2e" x="424.609375"/>
      <use xlink:href="#DejaVuSans-35" x="456.396484"/>
     </g>
    </g>
    <g id="line2d_36">
     <path d="M 63 77.014687 
L 73 77.014687 
L 83 77.014687 
" style="fill: none; stroke: #ff7763; stroke-width: 1.5; stroke-linecap: square"/>
     <g>
      <use xlink:href="#m0cfd61ccb1" x="73" y="77.014687" style="fill: #ff7763; stroke: #ff7763"/>
     </g>
    </g>
    <g id="text_20">
     <!-- alpha=1.0 -->
     <g transform="translate(91 80.514687)scale(0.1 -0.1)">
      <use xlink:href="#DejaVuSans-61"/>
      <use xlink:href="#DejaVuSans-6c" x="61.279297"/>
      <use xlink:href="#DejaVuSans-70" x="89.0625"/>
      <use xlink:href="#DejaVuSans-68" x="152.539062"/>
      <use xlink:href="#DejaVuSans-61" x="215.917969"/>
      <use xlink:href="#DejaVuSans-3d" x="277.197266"/>
      <use xlink:href="#DejaVuSans-31" x="360.986328"/>
      <use xlink:href="#DejaVuSans-2e" x="424.609375"/>
      <use xlink:href="#DejaVuSans-30" x="456.396484"/>
     </g>
    </g>
    <g id="line2d_37">
     <path d="M 63 91.692813 
L 73 91.692813 
L 83 91.692813 
" style="fill: none; stroke: #ffac1e; stroke-width: 1.5; stroke-linecap: square"/>
     <g>
      <use xlink:href="#m4dafe566db" x="73" y="91.692813" style="fill: #ffac1e; stroke: #ffac1e; stroke-linejoin: bevel"/>
     </g>
    </g>
    <g id="text_21">
     <!-- alpha=1.5 -->
     <g transform="translate(91 95.192813)scale(0.1 -0.1)">
      <use xlink:href="#DejaVuSans-61"/>
      <use xlink:href="#DejaVuSans-6c" x="61.279297"/>
      <use xlink:href="#DejaVuSans-70" x="89.0625"/>
      <use xlink:href="#DejaVuSans-68" x="152.539062"/>
      <use xlink:href="#DejaVuSans-61" x="215.917969"/>
      <use xlink:href="#DejaVuSans-3d" x="277.197266"/>
      <use xlink:href="#DejaVuSans-31" x="360.986328"/>
      <use xlink:href="#DejaVuSans-2e" x="424.609375"/>
      <use xlink:href="#DejaVuSans-35" x="456.396484"/>
     </g>
    </g>
    <g id="line2d_38">
     <path d="M 63 106.370937 
L 73 106.370937 
L 83 106.370937 
" style="fill: none; stroke: #009435; stroke-width: 1.5; stroke-linecap: square"/>
     <g>
      <use xlink:href="#m07cb77fad9" x="73" y="106.370937" style="fill: #009435; stroke: #009435; stroke-linejoin: miter"/>
     </g>
    </g>
    <g id="text_22">
     <!-- alpha=2.0 -->
     <g transform="translate(91 109.870937)scale(0.1 -0.1)">
      <use xlink:href="#DejaVuSans-61"/>
      <use xlink:href="#DejaVuSans-6c" x="61.279297"/>
      <use xlink:href="#DejaVuSans-70" x="89.0625"/>
      <use xlink:href="#DejaVuSans-68" x="152.539062"/>
      <use xlink:href="#DejaVuSans-61" x="215.917969"/>
      <use xlink:href="#DejaVuSans-3d" x="277.197266"/>
      <use xlink:href="#DejaVuSans-32" x="360.986328"/>
      <use xlink:href="#DejaVuSans-2e" x="424.609375"/>
      <use xlink:href="#DejaVuSans-30" x="456.396484"/>
     </g>
    </g>
   </g>
  </g>
 </g>
 <defs>
  <clipPath id="p8c9fe51deb">
   <rect x="54" y="34.56" width="334.8" height="217.44"/>
  </clipPath>
 </defs>
</svg>
