<?xml version="1.0" encoding="utf-8" standalone="no"?>
<!DOCTYPE svg PUBLIC "-//W3C//DTD SVG 1.1//EN"
  "http://www.w3.org/Graphics/SVG/1.1/DTD/svg11.dtd">
<svg xmlns:xlink="http://www.w3.org/1999/xlink" width="432pt" height="288pt" viewBox="0 0 432 288" xmlns="http://www.w3.org/2000/svg" version="1.1">
 <metadata>
  <rdf:RDF xmlns:dc="http://purl.org/dc/elements/1.1/" xmlns:cc="http://creativecommons.org/ns#" xmlns:rdf="http://www.w3.org/1999/02/22-rdf-syntax-ns#">
   <cc:Work>
    <dc:type rdf:resource="http://purl.org/dc/dcmitype/StillImage"/>
    <dc:date>2023-01-11T15:36:21.834943</dc:date>
    <dc:format>image/svg+xml</dc:format>
    <dc:creator>
     <cc:Agent>
      <dc:title>Matplotlib v3.5.2, https://matplotlib.org/</dc:title>
     </cc:Agent>
    </dc:creator>
   </cc:Work>
  </rdf:RDF>
 </metadata>
 <defs>
  <style type="text/css">*{stroke-linejoin: round; stroke-linecap: butt}</style>
 </defs>
 <g id="figure_1">
  <g id="patch_1">
   <path d="M 0 288 
L 432 288 
L 432 0 
L 0 0 
z
" style="fill: #ffffff"/>
  </g>
  <g id="axes_1">
   <g id="patch_2">
    <path d="M 54 252 
L 388.8 252 
L 388.8 34.56 
L 54 34.56 
z
" style="fill: #ffffff"/>
   </g>
   <g id="PolyCollection_1">
    <defs>
     <path id="macfb050c85" d="M 69.218182 -33.027143 
L 69.218182 -33.027143 
L 74.376888 -31.994939 
L 79.535593 -35.091182 
L 84.694299 -35.06731 
L 89.853005 -35.091182 
L 95.01171 -34.789223 
L 100.170416 -35.086284 
L 105.329122 -35.081924 
L 110.487827 -34.442201 
L 115.646533 -34.44771 
L 120.805239 -142.475951 
L 125.963945 -184.024913 
L 131.12265 -190.903136 
L 136.281356 -199.383129 
L 141.440062 -116.960462 
L 146.598767 -183.802894 
L 151.757473 -235.097514 
L 156.916179 -209.884244 
L 162.074884 -209.915648 
L 167.23359 -210.998505 
L 172.392296 -210.80874 
L 177.551002 -211.162023 
L 182.709707 -210.874613 
L 187.868413 -235.928346 
L 193.027119 -211.024178 
L 198.185824 -211.024178 
L 203.34453 -209.447471 
L 208.503236 -201.399747 
L 213.661941 -201.399747 
L 218.820647 -201.576344 
L 223.979353 -201.576344 
L 229.138059 -190.979848 
L 234.296764 -190.979848 
L 239.45547 -201.741273 
L 244.614176 -238.582637 
L 249.772881 -237.660142 
L 254.931587 -237.660142 
L 260.090293 -240.135513 
L 265.248998 -240.135513 
L 270.407704 -240.135513 
L 275.56641 -240.135513 
L 280.725116 -240.135513 
L 285.883821 -240.135513 
L 291.042527 -240.135513 
L 296.201233 -240.135513 
L 301.359938 -235.928346 
L 306.518644 -240.135513 
L 311.67735 -240.135513 
L 316.836055 -240.135513 
L 321.994761 -235.928346 
L 327.153467 -235.928346 
L 332.312173 -235.928346 
L 337.470878 -240.135513 
L 342.629584 -240.135513 
L 347.78829 -240.135513 
L 352.946995 -240.135513 
L 358.105701 -240.135513 
L 363.264407 -240.135513 
L 368.423112 -240.135513 
L 373.581818 -240.135513 
L 373.581818 -240.135513 
L 373.581818 -240.135513 
L 368.423112 -240.135513 
L 363.264407 -240.135513 
L 358.105701 -240.135513 
L 352.946995 -240.135513 
L 347.78829 -240.135513 
L 342.629584 -240.135513 
L 337.470878 -240.135513 
L 332.312173 -235.928346 
L 327.153467 -235.928346 
L 321.994761 -235.928346 
L 316.836055 -240.135513 
L 311.67735 -240.135513 
L 306.518644 -240.135513 
L 301.359938 -235.928346 
L 296.201233 -240.135513 
L 291.042527 -240.135513 
L 285.883821 -240.135513 
L 280.725116 -240.135513 
L 275.56641 -240.135513 
L 270.407704 -240.135513 
L 265.248998 -240.135513 
L 260.090293 -240.135513 
L 254.931587 -237.660142 
L 249.772881 -237.660142 
L 244.614176 -238.582637 
L 239.45547 -201.741273 
L 234.296764 -190.979848 
L 229.138059 -190.979848 
L 223.979353 -201.576344 
L 218.820647 -201.576344 
L 213.661941 -201.399747 
L 208.503236 -201.399747 
L 203.34453 -209.447471 
L 198.185824 -211.024178 
L 193.027119 -211.024178 
L 187.868413 -235.928346 
L 182.709707 -210.874613 
L 177.551002 -211.162023 
L 172.392296 -210.80874 
L 167.23359 -210.998505 
L 162.074884 -209.915648 
L 156.916179 -209.884244 
L 151.757473 -235.097514 
L 146.598767 -183.802894 
L 141.440062 -116.960462 
L 136.281356 -199.383129 
L 131.12265 -190.903136 
L 125.963945 -184.024913 
L 120.805239 -142.475951 
L 115.646533 -34.44771 
L 110.487827 -34.442201 
L 105.329122 -35.081924 
L 100.170416 -35.086284 
L 95.01171 -34.789223 
L 89.853005 -35.091182 
L 84.694299 -35.06731 
L 79.535593 -35.091182 
L 74.376888 -31.994939 
L 69.218182 -33.027143 
z
" style="stroke: #9d02d7; stroke-opacity: 0.2"/>
    </defs>
    <g clip-path="url(#p9b874c6647)">
     <use xlink:href="#macfb050c85" x="0" y="288" style="fill: #9d02d7; fill-opacity: 0.2; stroke: #9d02d7; stroke-opacity: 0.2"/>
    </g>
   </g>
   <g id="PolyCollection_2">
    <defs>
     <path id="m08eed10fbd" d="M 69.218182 -31.772445 
L 69.218182 -31.772445 
L 74.376888 -31.836306 
L 79.535593 -35.091182 
L 84.694299 -34.86113 
L 89.853005 -34.673188 
L 95.01171 -36.162391 
L 100.170416 -64.548087 
L 105.329122 -65.185624 
L 110.487827 -32.516322 
L 115.646533 -30.553261 
L 120.805239 -30.538429 
L 125.963945 -75.667755 
L 131.12265 -76.289444 
L 136.281356 -75.670949 
L 141.440062 -76.538858 
L 146.598767 -76.289444 
L 151.757473 -76.365724 
L 156.916179 -76.323222 
L 162.074884 -77.225646 
L 167.23359 -76.482338 
L 172.392296 -76.499344 
L 177.551002 -76.351681 
L 182.709707 -165.694519 
L 187.868413 -159.976222 
L 193.027119 -161.442517 
L 198.185824 -240.126219 
L 203.34453 -242.492215 
L 208.503236 -241.566964 
L 213.661941 -234.763483 
L 218.820647 -241.443489 
L 223.979353 -240.836991 
L 229.138059 -244.933613 
L 234.296764 -241.443489 
L 239.45547 -241.443489 
L 244.614176 -241.443489 
L 249.772881 -241.443489 
L 254.931587 -241.443489 
L 260.090293 -241.443489 
L 265.248998 -244.933613 
L 270.407704 -244.933613 
L 275.56641 -244.933613 
L 280.725116 -244.933613 
L 285.883821 -244.933613 
L 291.042527 -244.933613 
L 296.201233 -244.933613 
L 301.359938 -244.933613 
L 306.518644 -244.933613 
L 311.67735 -244.933613 
L 316.836055 -244.933613 
L 321.994761 -244.933613 
L 327.153467 -244.933613 
L 332.312173 -244.934779 
L 337.470878 -244.934779 
L 342.629584 -244.934779 
L 347.78829 -244.934779 
L 352.946995 -244.934779 
L 358.105701 -244.934779 
L 363.264407 -244.934779 
L 368.423112 -244.934779 
L 373.581818 -244.934779 
L 373.581818 -244.934779 
L 373.581818 -244.934779 
L 368.423112 -244.934779 
L 363.264407 -244.934779 
L 358.105701 -244.934779 
L 352.946995 -244.934779 
L 347.78829 -244.934779 
L 342.629584 -244.934779 
L 337.470878 -244.934779 
L 332.312173 -244.934779 
L 327.153467 -244.933613 
L 321.994761 -244.933613 
L 316.836055 -244.933613 
L 311.67735 -244.933613 
L 306.518644 -244.933613 
L 301.359938 -244.933613 
L 296.201233 -244.933613 
L 291.042527 -244.933613 
L 285.883821 -244.933613 
L 280.725116 -244.933613 
L 275.56641 -244.933613 
L 270.407704 -244.933613 
L 265.248998 -244.933613 
L 260.090293 -241.443489 
L 254.931587 -241.443489 
L 249.772881 -241.443489 
L 244.614176 -241.443489 
L 239.45547 -241.443489 
L 234.296764 -241.443489 
L 229.138059 -244.933613 
L 223.979353 -240.836991 
L 218.820647 -241.443489 
L 213.661941 -234.763483 
L 208.503236 -241.566964 
L 203.34453 -242.492215 
L 198.185824 -240.126219 
L 193.027119 -161.442517 
L 187.868413 -159.976222 
L 182.709707 -165.694519 
L 177.551002 -76.351681 
L 172.392296 -76.499344 
L 167.23359 -76.482338 
L 162.074884 -77.225646 
L 156.916179 -76.323222 
L 151.757473 -76.365724 
L 146.598767 -76.289444 
L 141.440062 -76.538858 
L 136.281356 -75.670949 
L 131.12265 -76.289444 
L 125.963945 -75.667755 
L 120.805239 -30.538429 
L 115.646533 -30.553261 
L 110.487827 -32.516322 
L 105.329122 -65.185624 
L 100.170416 -64.548087 
L 95.01171 -36.162391 
L 89.853005 -34.673188 
L 84.694299 -34.86113 
L 79.535593 -35.091182 
L 74.376888 -31.836306 
L 69.218182 -31.772445 
z
" style="stroke: #0000ff; stroke-opacity: 0.2"/>
    </defs>
    <g clip-path="url(#p9b874c6647)">
     <use xlink:href="#m08eed10fbd" x="0" y="288" style="fill: #0000ff; fill-opacity: 0.2; stroke: #0000ff; stroke-opacity: 0.2"/>
    </g>
   </g>
   <g id="PolyCollection_3">
    <defs>
     <path id="m6daa13ee9f" d="M 69.218182 -34.509331 
L 69.218182 -34.509331 
L 74.376888 -35.091182 
L 79.535593 -33.467255 
L 84.694299 -40.834708 
L 89.853005 -35.091182 
L 95.01171 -35.039976 
L 100.170416 -35.138824 
L 105.329122 -34.890847 
L 110.487827 -35.091182 
L 115.646533 -35.091182 
L 120.805239 -34.834353 
L 125.963945 -64.736012 
L 131.12265 -45.607456 
L 136.281356 -47.36149 
L 141.440062 -120.532801 
L 146.598767 -46.133998 
L 151.757473 -46.462248 
L 156.916179 -48.6562 
L 162.074884 -51.156207 
L 167.23359 -69.039054 
L 172.392296 -56.507286 
L 177.551002 -171.670426 
L 182.709707 -231.252045 
L 187.868413 -231.004249 
L 193.027119 -231.252045 
L 198.185824 -231.252045 
L 203.34453 -243.608377 
L 208.503236 -243.515179 
L 213.661941 -242.395834 
L 218.820647 -242.395834 
L 223.979353 -243.608377 
L 229.138059 -242.395834 
L 234.296764 -242.395834 
L 239.45547 -242.395834 
L 244.614176 -243.608377 
L 249.772881 -243.608377 
L 254.931587 -244.54921 
L 260.090293 -244.54921 
L 265.248998 -244.54921 
L 270.407704 -244.54921 
L 275.56641 -244.54921 
L 280.725116 -244.54921 
L 285.883821 -244.54921 
L 291.042527 -244.54921 
L 296.201233 -244.54921 
L 301.359938 -244.54921 
L 306.518644 -244.54921 
L 311.67735 -244.54921 
L 316.836055 -244.54921 
L 321.994761 -244.54921 
L 327.153467 -244.54921 
L 332.312173 -244.54921 
L 337.470878 -244.54921 
L 342.629584 -244.54921 
L 347.78829 -244.54921 
L 352.946995 -244.54921 
L 358.105701 -244.54921 
L 363.264407 -244.54921 
L 368.423112 -244.54921 
L 373.581818 -244.54921 
L 373.581818 -244.54921 
L 373.581818 -244.54921 
L 368.423112 -244.54921 
L 363.264407 -244.54921 
L 358.105701 -244.54921 
L 352.946995 -244.54921 
L 347.78829 -244.54921 
L 342.629584 -244.54921 
L 337.470878 -244.54921 
L 332.312173 -244.54921 
L 327.153467 -244.54921 
L 321.994761 -244.54921 
L 316.836055 -244.54921 
L 311.67735 -244.54921 
L 306.518644 -244.54921 
L 301.359938 -244.54921 
L 296.201233 -244.54921 
L 291.042527 -244.54921 
L 285.883821 -244.54921 
L 280.725116 -244.54921 
L 275.56641 -244.54921 
L 270.407704 -244.54921 
L 265.248998 -244.54921 
L 260.090293 -244.54921 
L 254.931587 -244.54921 
L 249.772881 -243.608377 
L 244.614176 -243.608377 
L 239.45547 -242.395834 
L 234.296764 -242.395834 
L 229.138059 -242.395834 
L 223.979353 -243.608377 
L 218.820647 -242.395834 
L 213.661941 -242.395834 
L 208.503236 -243.515179 
L 203.34453 -243.608377 
L 198.185824 -231.252045 
L 193.027119 -231.252045 
L 187.868413 -231.004249 
L 182.709707 -231.252045 
L 177.551002 -171.670426 
L 172.392296 -56.507286 
L 167.23359 -69.039054 
L 162.074884 -51.156207 
L 156.916179 -48.6562 
L 151.757473 -46.462248 
L 146.598767 -46.133998 
L 141.440062 -120.532801 
L 136.281356 -47.36149 
L 131.12265 -45.607456 
L 125.963945 -64.736012 
L 120.805239 -34.834353 
L 115.646533 -35.091182 
L 110.487827 -35.091182 
L 105.329122 -34.890847 
L 100.170416 -35.138824 
L 95.01171 -35.039976 
L 89.853005 -35.091182 
L 84.694299 -40.834708 
L 79.535593 -33.467255 
L 74.376888 -35.091182 
L 69.218182 -34.509331 
z
" style="stroke: #ff7763; stroke-opacity: 0.2"/>
    </defs>
    <g clip-path="url(#p9b874c6647)">
     <use xlink:href="#m6daa13ee9f" x="0" y="288" style="fill: #ff7763; fill-opacity: 0.2; stroke: #ff7763; stroke-opacity: 0.2"/>
    </g>
   </g>
   <g id="PolyCollection_4">
    <defs>
     <path id="mb457ef6571" d="M 69.218182 -19.870652 
L 69.218182 -19.870652 
L 74.376888 -33.288984 
L 79.535593 -34.803147 
L 84.694299 -35.091182 
L 89.853005 -34.645822 
L 95.01171 -34.97859 
L 100.170416 -34.926275 
L 105.329122 -35.091182 
L 110.487827 -33.521695 
L 115.646533 -35.091182 
L 120.805239 -33.362472 
L 125.963945 -35.080045 
L 131.12265 -34.917231 
L 136.281356 -33.644353 
L 141.440062 -30.385433 
L 146.598767 -33.144662 
L 151.757473 -34.802559 
L 156.916179 -35.091182 
L 162.074884 -34.847854 
L 167.23359 -35.04124 
L 172.392296 -36.441507 
L 177.551002 -34.840581 
L 182.709707 -39.103513 
L 187.868413 -166.737721 
L 193.027119 -162.260274 
L 198.185824 -223.047899 
L 203.34453 -235.968062 
L 208.503236 -235.968062 
L 213.661941 -235.968062 
L 218.820647 -239.014545 
L 223.979353 -239.014545 
L 229.138059 -239.014545 
L 234.296764 -239.014545 
L 239.45547 -239.183617 
L 244.614176 -239.183617 
L 249.772881 -239.183617 
L 254.931587 -244.495247 
L 260.090293 -244.495247 
L 265.248998 -244.495247 
L 270.407704 -244.495247 
L 275.56641 -244.495247 
L 280.725116 -244.495247 
L 285.883821 -244.49232 
L 291.042527 -244.49232 
L 296.201233 -244.495247 
L 301.359938 -244.495247 
L 306.518644 -244.495247 
L 311.67735 -239.183617 
L 316.836055 -239.183617 
L 321.994761 -244.495247 
L 327.153467 -244.495247 
L 332.312173 -244.495247 
L 337.470878 -244.495247 
L 342.629584 -244.495247 
L 347.78829 -244.495247 
L 352.946995 -244.495247 
L 358.105701 -244.495247 
L 363.264407 -244.495247 
L 368.423112 -244.495247 
L 373.581818 -244.495247 
L 373.581818 -244.495247 
L 373.581818 -244.495247 
L 368.423112 -244.495247 
L 363.264407 -244.495247 
L 358.105701 -244.495247 
L 352.946995 -244.495247 
L 347.78829 -244.495247 
L 342.629584 -244.495247 
L 337.470878 -244.495247 
L 332.312173 -244.495247 
L 327.153467 -244.495247 
L 321.994761 -244.495247 
L 316.836055 -239.183617 
L 311.67735 -239.183617 
L 306.518644 -244.495247 
L 301.359938 -244.495247 
L 296.201233 -244.495247 
L 291.042527 -244.49232 
L 285.883821 -244.49232 
L 280.725116 -244.495247 
L 275.56641 -244.495247 
L 270.407704 -244.495247 
L 265.248998 -244.495247 
L 260.090293 -244.495247 
L 254.931587 -244.495247 
L 249.772881 -239.183617 
L 244.614176 -239.183617 
L 239.45547 -239.183617 
L 234.296764 -239.014545 
L 229.138059 -239.014545 
L 223.979353 -239.014545 
L 218.820647 -239.014545 
L 213.661941 -235.968062 
L 208.503236 -235.968062 
L 203.34453 -235.968062 
L 198.185824 -223.047899 
L 193.027119 -162.260274 
L 187.868413 -166.737721 
L 182.709707 -39.103513 
L 177.551002 -34.840581 
L 172.392296 -36.441507 
L 167.23359 -35.04124 
L 162.074884 -34.847854 
L 156.916179 -35.091182 
L 151.757473 -34.802559 
L 146.598767 -33.144662 
L 141.440062 -30.385433 
L 136.281356 -33.644353 
L 131.12265 -34.917231 
L 125.963945 -35.080045 
L 120.805239 -33.362472 
L 115.646533 -35.091182 
L 110.487827 -33.521695 
L 105.329122 -35.091182 
L 100.170416 -34.926275 
L 95.01171 -34.97859 
L 89.853005 -34.645822 
L 84.694299 -35.091182 
L 79.535593 -34.803147 
L 74.376888 -33.288984 
L 69.218182 -19.870652 
z
" style="stroke: #ffac1e; stroke-opacity: 0.2"/>
    </defs>
    <g clip-path="url(#p9b874c6647)">
     <use xlink:href="#mb457ef6571" x="0" y="288" style="fill: #ffac1e; fill-opacity: 0.2; stroke: #ffac1e; stroke-opacity: 0.2"/>
    </g>
   </g>
   <g id="PolyCollection_5">
    <defs>
     <path id="m78191cdae1" d="M 69.218182 -32.666684 
L 69.218182 -32.666684 
L 74.376888 -23.662196 
L 79.535593 -35.091182 
L 84.694299 -34.239147 
L 89.853005 -34.805603 
L 95.01171 -35.089111 
L 100.170416 -34.866102 
L 105.329122 -34.924649 
L 110.487827 -34.977656 
L 115.646533 -35.089986 
L 120.805239 -34.406005 
L 125.963945 -35.091182 
L 131.12265 -32.686671 
L 136.281356 -34.968672 
L 141.440062 -35.091182 
L 146.598767 -48.201586 
L 151.757473 -48.228006 
L 156.916179 -48.07132 
L 162.074884 -48.098529 
L 167.23359 -48.430302 
L 172.392296 -48.39664 
L 177.551002 -55.767528 
L 182.709707 -55.767519 
L 187.868413 -55.767591 
L 193.027119 -55.76759 
L 198.185824 -76.928258 
L 203.34453 -245.07571 
L 208.503236 -245.07571 
L 213.661941 -245.07571 
L 218.820647 -245.07571 
L 223.979353 -245.07571 
L 229.138059 -245.07571 
L 234.296764 -245.07571 
L 239.45547 -245.07571 
L 244.614176 -245.07571 
L 249.772881 -245.07571 
L 254.931587 -241.373418 
L 260.090293 -245.07571 
L 265.248998 -245.07571 
L 270.407704 -245.07571 
L 275.56641 -245.07571 
L 280.725116 -245.07571 
L 285.883821 -245.07571 
L 291.042527 -241.373418 
L 296.201233 -245.07571 
L 301.359938 -245.07571 
L 306.518644 -245.07571 
L 311.67735 -245.07571 
L 316.836055 -241.373418 
L 321.994761 -241.373418 
L 327.153467 -241.373418 
L 332.312173 -241.373418 
L 337.470878 -245.07571 
L 342.629584 -245.07571 
L 347.78829 -245.07571 
L 352.946995 -245.07571 
L 358.105701 -245.07571 
L 363.264407 -245.07571 
L 368.423112 -245.07571 
L 373.581818 -245.07571 
L 373.581818 -245.07571 
L 373.581818 -245.07571 
L 368.423112 -245.07571 
L 363.264407 -245.07571 
L 358.105701 -245.07571 
L 352.946995 -245.07571 
L 347.78829 -245.07571 
L 342.629584 -245.07571 
L 337.470878 -245.07571 
L 332.312173 -241.373418 
L 327.153467 -241.373418 
L 321.994761 -241.373418 
L 316.836055 -241.373418 
L 311.67735 -245.07571 
L 306.518644 -245.07571 
L 301.359938 -245.07571 
L 296.201233 -245.07571 
L 291.042527 -241.373418 
L 285.883821 -245.07571 
L 280.725116 -245.07571 
L 275.56641 -245.07571 
L 270.407704 -245.07571 
L 265.248998 -245.07571 
L 260.090293 -245.07571 
L 254.931587 -241.373418 
L 249.772881 -245.07571 
L 244.614176 -245.07571 
L 239.45547 -245.07571 
L 234.296764 -245.07571 
L 229.138059 -245.07571 
L 223.979353 -245.07571 
L 218.820647 -245.07571 
L 213.661941 -245.07571 
L 208.503236 -245.07571 
L 203.34453 -245.07571 
L 198.185824 -76.928258 
L 193.027119 -55.76759 
L 187.868413 -55.767591 
L 182.709707 -55.767519 
L 177.551002 -55.767528 
L 172.392296 -48.39664 
L 167.23359 -48.430302 
L 162.074884 -48.098529 
L 156.916179 -48.07132 
L 151.757473 -48.228006 
L 146.598767 -48.201586 
L 141.440062 -35.091182 
L 136.281356 -34.968672 
L 131.12265 -32.686671 
L 125.963945 -35.091182 
L 120.805239 -34.406005 
L 115.646533 -35.089986 
L 110.487827 -34.977656 
L 105.329122 -34.924649 
L 100.170416 -34.866102 
L 95.01171 -35.089111 
L 89.853005 -34.805603 
L 84.694299 -34.239147 
L 79.535593 -35.091182 
L 74.376888 -23.662196 
L 69.218182 -32.666684 
z
" style="stroke: #009435; stroke-opacity: 0.2"/>
    </defs>
    <g clip-path="url(#p9b874c6647)">
     <use xlink:href="#m78191cdae1" x="0" y="288" style="fill: #009435; fill-opacity: 0.2; stroke: #009435; stroke-opacity: 0.2"/>
    </g>
   </g>
   <g id="matplotlib.axis_1">
    <g id="xtick_1">
     <g id="line2d_1">
      <path d="M 69.218182 252 
L 69.218182 34.56 
" clip-path="url(#p9b874c6647)" style="fill: none; stroke-dasharray: 2.96,1.28; stroke-dashoffset: 0; stroke: #b0b0b0; stroke-width: 0.8"/>
     </g>
     <g id="line2d_2">
      <defs>
       <path id="m6070d47f10" d="M 0 0 
L 0 3.5 
" style="stroke: #000000; stroke-width: 0.8"/>
      </defs>
      <g>
       <use xlink:href="#m6070d47f10" x="69.218182" y="252" style="stroke: #000000; stroke-width: 0.8"/>
      </g>
     </g>
     <g id="text_1">
      <!-- 0 -->
      <g transform="translate(66.036932 266.598437)scale(0.1 -0.1)">
       <defs>
        <path id="DejaVuSans-30" d="M 2034 4250 
Q 1547 4250 1301 3770 
Q 1056 3291 1056 2328 
Q 1056 1369 1301 889 
Q 1547 409 2034 409 
Q 2525 409 2770 889 
Q 3016 1369 3016 2328 
Q 3016 3291 2770 3770 
Q 2525 4250 2034 4250 
z
M 2034 4750 
Q 2819 4750 3233 4129 
Q 3647 3509 3647 2328 
Q 3647 1150 3233 529 
Q 2819 -91 2034 -91 
Q 1250 -91 836 529 
Q 422 1150 422 2328 
Q 422 3509 836 4129 
Q 1250 4750 2034 4750 
z
" transform="scale(0.015625)"/>
       </defs>
       <use xlink:href="#DejaVuSans-30"/>
      </g>
     </g>
    </g>
    <g id="xtick_2">
     <g id="line2d_3">
      <path d="M 120.805239 252 
L 120.805239 34.56 
" clip-path="url(#p9b874c6647)" style="fill: none; stroke-dasharray: 2.96,1.28; stroke-dashoffset: 0; stroke: #b0b0b0; stroke-width: 0.8"/>
     </g>
     <g id="line2d_4">
      <g>
       <use xlink:href="#m6070d47f10" x="120.805239" y="252" style="stroke: #000000; stroke-width: 0.8"/>
      </g>
     </g>
     <g id="text_2">
      <!-- 500 -->
      <g transform="translate(111.261489 266.598437)scale(0.1 -0.1)">
       <defs>
        <path id="DejaVuSans-35" d="M 691 4666 
L 3169 4666 
L 3169 4134 
L 1269 4134 
L 1269 2991 
Q 1406 3038 1543 3061 
Q 1681 3084 1819 3084 
Q 2600 3084 3056 2656 
Q 3513 2228 3513 1497 
Q 3513 744 3044 326 
Q 2575 -91 1722 -91 
Q 1428 -91 1123 -41 
Q 819 9 494 109 
L 494 744 
Q 775 591 1075 516 
Q 1375 441 1709 441 
Q 2250 441 2565 725 
Q 2881 1009 2881 1497 
Q 2881 1984 2565 2268 
Q 2250 2553 1709 2553 
Q 1456 2553 1204 2497 
Q 953 2441 691 2322 
L 691 4666 
z
" transform="scale(0.015625)"/>
       </defs>
       <use xlink:href="#DejaVuSans-35"/>
       <use xlink:href="#DejaVuSans-30" x="63.623047"/>
       <use xlink:href="#DejaVuSans-30" x="127.246094"/>
      </g>
     </g>
    </g>
    <g id="xtick_3">
     <g id="line2d_5">
      <path d="M 172.392296 252 
L 172.392296 34.56 
" clip-path="url(#p9b874c6647)" style="fill: none; stroke-dasharray: 2.96,1.28; stroke-dashoffset: 0; stroke: #b0b0b0; stroke-width: 0.8"/>
     </g>
     <g id="line2d_6">
      <g>
       <use xlink:href="#m6070d47f10" x="172.392296" y="252" style="stroke: #000000; stroke-width: 0.8"/>
      </g>
     </g>
     <g id="text_3">
      <!-- 1000 -->
      <g transform="translate(159.667296 266.598437)scale(0.1 -0.1)">
       <defs>
        <path id="DejaVuSans-31" d="M 794 531 
L 1825 531 
L 1825 4091 
L 703 3866 
L 703 4441 
L 1819 4666 
L 2450 4666 
L 2450 531 
L 3481 531 
L 3481 0 
L 794 0 
L 794 531 
z
" transform="scale(0.015625)"/>
       </defs>
       <use xlink:href="#DejaVuSans-31"/>
       <use xlink:href="#DejaVuSans-30" x="63.623047"/>
       <use xlink:href="#DejaVuSans-30" x="127.246094"/>
       <use xlink:href="#DejaVuSans-30" x="190.869141"/>
      </g>
     </g>
    </g>
    <g id="xtick_4">
     <g id="line2d_7">
      <path d="M 223.979353 252 
L 223.979353 34.56 
" clip-path="url(#p9b874c6647)" style="fill: none; stroke-dasharray: 2.96,1.28; stroke-dashoffset: 0; stroke: #b0b0b0; stroke-width: 0.8"/>
     </g>
     <g id="line2d_8">
      <g>
       <use xlink:href="#m6070d47f10" x="223.979353" y="252" style="stroke: #000000; stroke-width: 0.8"/>
      </g>
     </g>
     <g id="text_4">
      <!-- 1500 -->
      <g transform="translate(211.254353 266.598437)scale(0.1 -0.1)">
       <use xlink:href="#DejaVuSans-31"/>
       <use xlink:href="#DejaVuSans-35" x="63.623047"/>
       <use xlink:href="#DejaVuSans-30" x="127.246094"/>
       <use xlink:href="#DejaVuSans-30" x="190.869141"/>
      </g>
     </g>
    </g>
    <g id="xtick_5">
     <g id="line2d_9">
      <path d="M 275.56641 252 
L 275.56641 34.56 
" clip-path="url(#p9b874c6647)" style="fill: none; stroke-dasharray: 2.96,1.28; stroke-dashoffset: 0; stroke: #b0b0b0; stroke-width: 0.8"/>
     </g>
     <g id="line2d_10">
      <g>
       <use xlink:href="#m6070d47f10" x="275.56641" y="252" style="stroke: #000000; stroke-width: 0.8"/>
      </g>
     </g>
     <g id="text_5">
      <!-- 2000 -->
      <g transform="translate(262.84141 266.598437)scale(0.1 -0.1)">
       <defs>
        <path id="DejaVuSans-32" d="M 1228 531 
L 3431 531 
L 3431 0 
L 469 0 
L 469 531 
Q 828 903 1448 1529 
Q 2069 2156 2228 2338 
Q 2531 2678 2651 2914 
Q 2772 3150 2772 3378 
Q 2772 3750 2511 3984 
Q 2250 4219 1831 4219 
Q 1534 4219 1204 4116 
Q 875 4013 500 3803 
L 500 4441 
Q 881 4594 1212 4672 
Q 1544 4750 1819 4750 
Q 2544 4750 2975 4387 
Q 3406 4025 3406 3419 
Q 3406 3131 3298 2873 
Q 3191 2616 2906 2266 
Q 2828 2175 2409 1742 
Q 1991 1309 1228 531 
z
" transform="scale(0.015625)"/>
       </defs>
       <use xlink:href="#DejaVuSans-32"/>
       <use xlink:href="#DejaVuSans-30" x="63.623047"/>
       <use xlink:href="#DejaVuSans-30" x="127.246094"/>
       <use xlink:href="#DejaVuSans-30" x="190.869141"/>
      </g>
     </g>
    </g>
    <g id="xtick_6">
     <g id="line2d_11">
      <path d="M 327.153467 252 
L 327.153467 34.56 
" clip-path="url(#p9b874c6647)" style="fill: none; stroke-dasharray: 2.96,1.28; stroke-dashoffset: 0; stroke: #b0b0b0; stroke-width: 0.8"/>
     </g>
     <g id="line2d_12">
      <g>
       <use xlink:href="#m6070d47f10" x="327.153467" y="252" style="stroke: #000000; stroke-width: 0.8"/>
      </g>
     </g>
     <g id="text_6">
      <!-- 2500 -->
      <g transform="translate(314.428467 266.598437)scale(0.1 -0.1)">
       <use xlink:href="#DejaVuSans-32"/>
       <use xlink:href="#DejaVuSans-35" x="63.623047"/>
       <use xlink:href="#DejaVuSans-30" x="127.246094"/>
       <use xlink:href="#DejaVuSans-30" x="190.869141"/>
      </g>
     </g>
    </g>
    <g id="xtick_7">
     <g id="line2d_13">
      <path d="M 378.740524 252 
L 378.740524 34.56 
" clip-path="url(#p9b874c6647)" style="fill: none; stroke-dasharray: 2.96,1.28; stroke-dashoffset: 0; stroke: #b0b0b0; stroke-width: 0.8"/>
     </g>
     <g id="line2d_14">
      <g>
       <use xlink:href="#m6070d47f10" x="378.740524" y="252" style="stroke: #000000; stroke-width: 0.8"/>
      </g>
     </g>
     <g id="text_7">
      <!-- 3000 -->
      <g transform="translate(366.015524 266.598437)scale(0.1 -0.1)">
       <defs>
        <path id="DejaVuSans-33" d="M 2597 2516 
Q 3050 2419 3304 2112 
Q 3559 1806 3559 1356 
Q 3559 666 3084 287 
Q 2609 -91 1734 -91 
Q 1441 -91 1130 -33 
Q 819 25 488 141 
L 488 750 
Q 750 597 1062 519 
Q 1375 441 1716 441 
Q 2309 441 2620 675 
Q 2931 909 2931 1356 
Q 2931 1769 2642 2001 
Q 2353 2234 1838 2234 
L 1294 2234 
L 1294 2753 
L 1863 2753 
Q 2328 2753 2575 2939 
Q 2822 3125 2822 3475 
Q 2822 3834 2567 4026 
Q 2313 4219 1838 4219 
Q 1578 4219 1281 4162 
Q 984 4106 628 3988 
L 628 4550 
Q 988 4650 1302 4700 
Q 1616 4750 1894 4750 
Q 2613 4750 3031 4423 
Q 3450 4097 3450 3541 
Q 3450 3153 3228 2886 
Q 3006 2619 2597 2516 
z
" transform="scale(0.015625)"/>
       </defs>
       <use xlink:href="#DejaVuSans-33"/>
       <use xlink:href="#DejaVuSans-30" x="63.623047"/>
       <use xlink:href="#DejaVuSans-30" x="127.246094"/>
       <use xlink:href="#DejaVuSans-30" x="190.869141"/>
      </g>
     </g>
    </g>
    <g id="text_8">
     <!-- Steps -->
     <g transform="translate(207.410156 280.276563)scale(0.1 -0.1)">
      <defs>
       <path id="DejaVuSans-53" d="M 3425 4513 
L 3425 3897 
Q 3066 4069 2747 4153 
Q 2428 4238 2131 4238 
Q 1616 4238 1336 4038 
Q 1056 3838 1056 3469 
Q 1056 3159 1242 3001 
Q 1428 2844 1947 2747 
L 2328 2669 
Q 3034 2534 3370 2195 
Q 3706 1856 3706 1288 
Q 3706 609 3251 259 
Q 2797 -91 1919 -91 
Q 1588 -91 1214 -16 
Q 841 59 441 206 
L 441 856 
Q 825 641 1194 531 
Q 1563 422 1919 422 
Q 2459 422 2753 634 
Q 3047 847 3047 1241 
Q 3047 1584 2836 1778 
Q 2625 1972 2144 2069 
L 1759 2144 
Q 1053 2284 737 2584 
Q 422 2884 422 3419 
Q 422 4038 858 4394 
Q 1294 4750 2059 4750 
Q 2388 4750 2728 4690 
Q 3069 4631 3425 4513 
z
" transform="scale(0.015625)"/>
       <path id="DejaVuSans-74" d="M 1172 4494 
L 1172 3500 
L 2356 3500 
L 2356 3053 
L 1172 3053 
L 1172 1153 
Q 1172 725 1289 603 
Q 1406 481 1766 481 
L 2356 481 
L 2356 0 
L 1766 0 
Q 1100 0 847 248 
Q 594 497 594 1153 
L 594 3053 
L 172 3053 
L 172 3500 
L 594 3500 
L 594 4494 
L 1172 4494 
z
" transform="scale(0.015625)"/>
       <path id="DejaVuSans-65" d="M 3597 1894 
L 3597 1613 
L 953 1613 
Q 991 1019 1311 708 
Q 1631 397 2203 397 
Q 2534 397 2845 478 
Q 3156 559 3463 722 
L 3463 178 
Q 3153 47 2828 -22 
Q 2503 -91 2169 -91 
Q 1331 -91 842 396 
Q 353 884 353 1716 
Q 353 2575 817 3079 
Q 1281 3584 2069 3584 
Q 2775 3584 3186 3129 
Q 3597 2675 3597 1894 
z
M 3022 2063 
Q 3016 2534 2758 2815 
Q 2500 3097 2075 3097 
Q 1594 3097 1305 2825 
Q 1016 2553 972 2059 
L 3022 2063 
z
" transform="scale(0.015625)"/>
       <path id="DejaVuSans-70" d="M 1159 525 
L 1159 -1331 
L 581 -1331 
L 581 3500 
L 1159 3500 
L 1159 2969 
Q 1341 3281 1617 3432 
Q 1894 3584 2278 3584 
Q 2916 3584 3314 3078 
Q 3713 2572 3713 1747 
Q 3713 922 3314 415 
Q 2916 -91 2278 -91 
Q 1894 -91 1617 61 
Q 1341 213 1159 525 
z
M 3116 1747 
Q 3116 2381 2855 2742 
Q 2594 3103 2138 3103 
Q 1681 3103 1420 2742 
Q 1159 2381 1159 1747 
Q 1159 1113 1420 752 
Q 1681 391 2138 391 
Q 2594 391 2855 752 
Q 3116 1113 3116 1747 
z
" transform="scale(0.015625)"/>
       <path id="DejaVuSans-73" d="M 2834 3397 
L 2834 2853 
Q 2591 2978 2328 3040 
Q 2066 3103 1784 3103 
Q 1356 3103 1142 2972 
Q 928 2841 928 2578 
Q 928 2378 1081 2264 
Q 1234 2150 1697 2047 
L 1894 2003 
Q 2506 1872 2764 1633 
Q 3022 1394 3022 966 
Q 3022 478 2636 193 
Q 2250 -91 1575 -91 
Q 1294 -91 989 -36 
Q 684 19 347 128 
L 347 722 
Q 666 556 975 473 
Q 1284 391 1588 391 
Q 1994 391 2212 530 
Q 2431 669 2431 922 
Q 2431 1156 2273 1281 
Q 2116 1406 1581 1522 
L 1381 1569 
Q 847 1681 609 1914 
Q 372 2147 372 2553 
Q 372 3047 722 3315 
Q 1072 3584 1716 3584 
Q 2034 3584 2315 3537 
Q 2597 3491 2834 3397 
z
" transform="scale(0.015625)"/>
      </defs>
      <use xlink:href="#DejaVuSans-53"/>
      <use xlink:href="#DejaVuSans-74" x="63.476562"/>
      <use xlink:href="#DejaVuSans-65" x="102.685547"/>
      <use xlink:href="#DejaVuSans-70" x="164.208984"/>
      <use xlink:href="#DejaVuSans-73" x="227.685547"/>
     </g>
    </g>
   </g>
   <g id="matplotlib.axis_2">
    <g id="ytick_1">
     <g id="line2d_15">
      <path d="M 54 243.636923 
L 388.8 243.636923 
" clip-path="url(#p9b874c6647)" style="fill: none; stroke-dasharray: 2.96,1.28; stroke-dashoffset: 0; stroke: #b0b0b0; stroke-width: 0.8"/>
     </g>
     <g id="line2d_16">
      <defs>
       <path id="me7102e302b" d="M 0 0 
L -3.5 0 
" style="stroke: #000000; stroke-width: 0.8"/>
      </defs>
      <g>
       <use xlink:href="#me7102e302b" x="54" y="243.636923" style="stroke: #000000; stroke-width: 0.8"/>
      </g>
     </g>
     <g id="text_9">
      <!-- −12 -->
      <g transform="translate(25.895312 247.436142)scale(0.1 -0.1)">
       <defs>
        <path id="DejaVuSans-2212" d="M 678 2272 
L 4684 2272 
L 4684 1741 
L 678 1741 
L 678 2272 
z
" transform="scale(0.015625)"/>
       </defs>
       <use xlink:href="#DejaVuSans-2212"/>
       <use xlink:href="#DejaVuSans-31" x="83.789062"/>
       <use xlink:href="#DejaVuSans-32" x="147.412109"/>
      </g>
     </g>
    </g>
    <g id="ytick_2">
     <g id="line2d_17">
      <path d="M 54 210.184615 
L 388.8 210.184615 
" clip-path="url(#p9b874c6647)" style="fill: none; stroke-dasharray: 2.96,1.28; stroke-dashoffset: 0; stroke: #b0b0b0; stroke-width: 0.8"/>
     </g>
     <g id="line2d_18">
      <g>
       <use xlink:href="#me7102e302b" x="54" y="210.184615" style="stroke: #000000; stroke-width: 0.8"/>
      </g>
     </g>
     <g id="text_10">
      <!-- −10 -->
      <g transform="translate(25.895312 213.983834)scale(0.1 -0.1)">
       <use xlink:href="#DejaVuSans-2212"/>
       <use xlink:href="#DejaVuSans-31" x="83.789062"/>
       <use xlink:href="#DejaVuSans-30" x="147.412109"/>
      </g>
     </g>
    </g>
    <g id="ytick_3">
     <g id="line2d_19">
      <path d="M 54 176.732308 
L 388.8 176.732308 
" clip-path="url(#p9b874c6647)" style="fill: none; stroke-dasharray: 2.96,1.28; stroke-dashoffset: 0; stroke: #b0b0b0; stroke-width: 0.8"/>
     </g>
     <g id="line2d_20">
      <g>
       <use xlink:href="#me7102e302b" x="54" y="176.732308" style="stroke: #000000; stroke-width: 0.8"/>
      </g>
     </g>
     <g id="text_11">
      <!-- −8 -->
      <g transform="translate(32.257812 180.531526)scale(0.1 -0.1)">
       <defs>
        <path id="DejaVuSans-38" d="M 2034 2216 
Q 1584 2216 1326 1975 
Q 1069 1734 1069 1313 
Q 1069 891 1326 650 
Q 1584 409 2034 409 
Q 2484 409 2743 651 
Q 3003 894 3003 1313 
Q 3003 1734 2745 1975 
Q 2488 2216 2034 2216 
z
M 1403 2484 
Q 997 2584 770 2862 
Q 544 3141 544 3541 
Q 544 4100 942 4425 
Q 1341 4750 2034 4750 
Q 2731 4750 3128 4425 
Q 3525 4100 3525 3541 
Q 3525 3141 3298 2862 
Q 3072 2584 2669 2484 
Q 3125 2378 3379 2068 
Q 3634 1759 3634 1313 
Q 3634 634 3220 271 
Q 2806 -91 2034 -91 
Q 1263 -91 848 271 
Q 434 634 434 1313 
Q 434 1759 690 2068 
Q 947 2378 1403 2484 
z
M 1172 3481 
Q 1172 3119 1398 2916 
Q 1625 2713 2034 2713 
Q 2441 2713 2670 2916 
Q 2900 3119 2900 3481 
Q 2900 3844 2670 4047 
Q 2441 4250 2034 4250 
Q 1625 4250 1398 4047 
Q 1172 3844 1172 3481 
z
" transform="scale(0.015625)"/>
       </defs>
       <use xlink:href="#DejaVuSans-2212"/>
       <use xlink:href="#DejaVuSans-38" x="83.789062"/>
      </g>
     </g>
    </g>
    <g id="ytick_4">
     <g id="line2d_21">
      <path d="M 54 143.28 
L 388.8 143.28 
" clip-path="url(#p9b874c6647)" style="fill: none; stroke-dasharray: 2.96,1.28; stroke-dashoffset: 0; stroke: #b0b0b0; stroke-width: 0.8"/>
     </g>
     <g id="line2d_22">
      <g>
       <use xlink:href="#me7102e302b" x="54" y="143.28" style="stroke: #000000; stroke-width: 0.8"/>
      </g>
     </g>
     <g id="text_12">
      <!-- −6 -->
      <g transform="translate(32.257812 147.079219)scale(0.1 -0.1)">
       <defs>
        <path id="DejaVuSans-36" d="M 2113 2584 
Q 1688 2584 1439 2293 
Q 1191 2003 1191 1497 
Q 1191 994 1439 701 
Q 1688 409 2113 409 
Q 2538 409 2786 701 
Q 3034 994 3034 1497 
Q 3034 2003 2786 2293 
Q 2538 2584 2113 2584 
z
M 3366 4563 
L 3366 3988 
Q 3128 4100 2886 4159 
Q 2644 4219 2406 4219 
Q 1781 4219 1451 3797 
Q 1122 3375 1075 2522 
Q 1259 2794 1537 2939 
Q 1816 3084 2150 3084 
Q 2853 3084 3261 2657 
Q 3669 2231 3669 1497 
Q 3669 778 3244 343 
Q 2819 -91 2113 -91 
Q 1303 -91 875 529 
Q 447 1150 447 2328 
Q 447 3434 972 4092 
Q 1497 4750 2381 4750 
Q 2619 4750 2861 4703 
Q 3103 4656 3366 4563 
z
" transform="scale(0.015625)"/>
       </defs>
       <use xlink:href="#DejaVuSans-2212"/>
       <use xlink:href="#DejaVuSans-36" x="83.789062"/>
      </g>
     </g>
    </g>
    <g id="ytick_5">
     <g id="line2d_23">
      <path d="M 54 109.827692 
L 388.8 109.827692 
" clip-path="url(#p9b874c6647)" style="fill: none; stroke-dasharray: 2.96,1.28; stroke-dashoffset: 0; stroke: #b0b0b0; stroke-width: 0.8"/>
     </g>
     <g id="line2d_24">
      <g>
       <use xlink:href="#me7102e302b" x="54" y="109.827692" style="stroke: #000000; stroke-width: 0.8"/>
      </g>
     </g>
     <g id="text_13">
      <!-- −4 -->
      <g transform="translate(32.257812 113.626911)scale(0.1 -0.1)">
       <defs>
        <path id="DejaVuSans-34" d="M 2419 4116 
L 825 1625 
L 2419 1625 
L 2419 4116 
z
M 2253 4666 
L 3047 4666 
L 3047 1625 
L 3713 1625 
L 3713 1100 
L 3047 1100 
L 3047 0 
L 2419 0 
L 2419 1100 
L 313 1100 
L 313 1709 
L 2253 4666 
z
" transform="scale(0.015625)"/>
       </defs>
       <use xlink:href="#DejaVuSans-2212"/>
       <use xlink:href="#DejaVuSans-34" x="83.789062"/>
      </g>
     </g>
    </g>
    <g id="ytick_6">
     <g id="line2d_25">
      <path d="M 54 76.375385 
L 388.8 76.375385 
" clip-path="url(#p9b874c6647)" style="fill: none; stroke-dasharray: 2.96,1.28; stroke-dashoffset: 0; stroke: #b0b0b0; stroke-width: 0.8"/>
     </g>
     <g id="line2d_26">
      <g>
       <use xlink:href="#me7102e302b" x="54" y="76.375385" style="stroke: #000000; stroke-width: 0.8"/>
      </g>
     </g>
     <g id="text_14">
      <!-- −2 -->
      <g transform="translate(32.257812 80.174603)scale(0.1 -0.1)">
       <use xlink:href="#DejaVuSans-2212"/>
       <use xlink:href="#DejaVuSans-32" x="83.789062"/>
      </g>
     </g>
    </g>
    <g id="ytick_7">
     <g id="line2d_27">
      <path d="M 54 42.923077 
L 388.8 42.923077 
" clip-path="url(#p9b874c6647)" style="fill: none; stroke-dasharray: 2.96,1.28; stroke-dashoffset: 0; stroke: #b0b0b0; stroke-width: 0.8"/>
     </g>
     <g id="line2d_28">
      <g>
       <use xlink:href="#me7102e302b" x="54" y="42.923077" style="stroke: #000000; stroke-width: 0.8"/>
      </g>
     </g>
     <g id="text_15">
      <!-- 0 -->
      <g transform="translate(40.6375 46.722296)scale(0.1 -0.1)">
       <use xlink:href="#DejaVuSans-30"/>
      </g>
     </g>
    </g>
    <g id="text_16">
     <!-- Policy value error -->
     <g transform="translate(19.815625 186.597969)rotate(-90)scale(0.1 -0.1)">
      <defs>
       <path id="DejaVuSans-50" d="M 1259 4147 
L 1259 2394 
L 2053 2394 
Q 2494 2394 2734 2622 
Q 2975 2850 2975 3272 
Q 2975 3691 2734 3919 
Q 2494 4147 2053 4147 
L 1259 4147 
z
M 628 4666 
L 2053 4666 
Q 2838 4666 3239 4311 
Q 3641 3956 3641 3272 
Q 3641 2581 3239 2228 
Q 2838 1875 2053 1875 
L 1259 1875 
L 1259 0 
L 628 0 
L 628 4666 
z
" transform="scale(0.015625)"/>
       <path id="DejaVuSans-6f" d="M 1959 3097 
Q 1497 3097 1228 2736 
Q 959 2375 959 1747 
Q 959 1119 1226 758 
Q 1494 397 1959 397 
Q 2419 397 2687 759 
Q 2956 1122 2956 1747 
Q 2956 2369 2687 2733 
Q 2419 3097 1959 3097 
z
M 1959 3584 
Q 2709 3584 3137 3096 
Q 3566 2609 3566 1747 
Q 3566 888 3137 398 
Q 2709 -91 1959 -91 
Q 1206 -91 779 398 
Q 353 888 353 1747 
Q 353 2609 779 3096 
Q 1206 3584 1959 3584 
z
" transform="scale(0.015625)"/>
       <path id="DejaVuSans-6c" d="M 603 4863 
L 1178 4863 
L 1178 0 
L 603 0 
L 603 4863 
z
" transform="scale(0.015625)"/>
       <path id="DejaVuSans-69" d="M 603 3500 
L 1178 3500 
L 1178 0 
L 603 0 
L 603 3500 
z
M 603 4863 
L 1178 4863 
L 1178 4134 
L 603 4134 
L 603 4863 
z
" transform="scale(0.015625)"/>
       <path id="DejaVuSans-63" d="M 3122 3366 
L 3122 2828 
Q 2878 2963 2633 3030 
Q 2388 3097 2138 3097 
Q 1578 3097 1268 2742 
Q 959 2388 959 1747 
Q 959 1106 1268 751 
Q 1578 397 2138 397 
Q 2388 397 2633 464 
Q 2878 531 3122 666 
L 3122 134 
Q 2881 22 2623 -34 
Q 2366 -91 2075 -91 
Q 1284 -91 818 406 
Q 353 903 353 1747 
Q 353 2603 823 3093 
Q 1294 3584 2113 3584 
Q 2378 3584 2631 3529 
Q 2884 3475 3122 3366 
z
" transform="scale(0.015625)"/>
       <path id="DejaVuSans-79" d="M 2059 -325 
Q 1816 -950 1584 -1140 
Q 1353 -1331 966 -1331 
L 506 -1331 
L 506 -850 
L 844 -850 
Q 1081 -850 1212 -737 
Q 1344 -625 1503 -206 
L 1606 56 
L 191 3500 
L 800 3500 
L 1894 763 
L 2988 3500 
L 3597 3500 
L 2059 -325 
z
" transform="scale(0.015625)"/>
       <path id="DejaVuSans-20" transform="scale(0.015625)"/>
       <path id="DejaVuSans-76" d="M 191 3500 
L 800 3500 
L 1894 563 
L 2988 3500 
L 3597 3500 
L 2284 0 
L 1503 0 
L 191 3500 
z
" transform="scale(0.015625)"/>
       <path id="DejaVuSans-61" d="M 2194 1759 
Q 1497 1759 1228 1600 
Q 959 1441 959 1056 
Q 959 750 1161 570 
Q 1363 391 1709 391 
Q 2188 391 2477 730 
Q 2766 1069 2766 1631 
L 2766 1759 
L 2194 1759 
z
M 3341 1997 
L 3341 0 
L 2766 0 
L 2766 531 
Q 2569 213 2275 61 
Q 1981 -91 1556 -91 
Q 1019 -91 701 211 
Q 384 513 384 1019 
Q 384 1609 779 1909 
Q 1175 2209 1959 2209 
L 2766 2209 
L 2766 2266 
Q 2766 2663 2505 2880 
Q 2244 3097 1772 3097 
Q 1472 3097 1187 3025 
Q 903 2953 641 2809 
L 641 3341 
Q 956 3463 1253 3523 
Q 1550 3584 1831 3584 
Q 2591 3584 2966 3190 
Q 3341 2797 3341 1997 
z
" transform="scale(0.015625)"/>
       <path id="DejaVuSans-75" d="M 544 1381 
L 544 3500 
L 1119 3500 
L 1119 1403 
Q 1119 906 1312 657 
Q 1506 409 1894 409 
Q 2359 409 2629 706 
Q 2900 1003 2900 1516 
L 2900 3500 
L 3475 3500 
L 3475 0 
L 2900 0 
L 2900 538 
Q 2691 219 2414 64 
Q 2138 -91 1772 -91 
Q 1169 -91 856 284 
Q 544 659 544 1381 
z
M 1991 3584 
L 1991 3584 
z
" transform="scale(0.015625)"/>
       <path id="DejaVuSans-72" d="M 2631 2963 
Q 2534 3019 2420 3045 
Q 2306 3072 2169 3072 
Q 1681 3072 1420 2755 
Q 1159 2438 1159 1844 
L 1159 0 
L 581 0 
L 581 3500 
L 1159 3500 
L 1159 2956 
Q 1341 3275 1631 3429 
Q 1922 3584 2338 3584 
Q 2397 3584 2469 3576 
Q 2541 3569 2628 3553 
L 2631 2963 
z
" transform="scale(0.015625)"/>
      </defs>
      <use xlink:href="#DejaVuSans-50"/>
      <use xlink:href="#DejaVuSans-6f" x="56.677734"/>
      <use xlink:href="#DejaVuSans-6c" x="117.859375"/>
      <use xlink:href="#DejaVuSans-69" x="145.642578"/>
      <use xlink:href="#DejaVuSans-63" x="173.425781"/>
      <use xlink:href="#DejaVuSans-79" x="228.40625"/>
      <use xlink:href="#DejaVuSans-20" x="287.585938"/>
      <use xlink:href="#DejaVuSans-76" x="319.373047"/>
      <use xlink:href="#DejaVuSans-61" x="378.552734"/>
      <use xlink:href="#DejaVuSans-6c" x="439.832031"/>
      <use xlink:href="#DejaVuSans-75" x="467.615234"/>
      <use xlink:href="#DejaVuSans-65" x="530.994141"/>
      <use xlink:href="#DejaVuSans-20" x="592.517578"/>
      <use xlink:href="#DejaVuSans-65" x="624.304688"/>
      <use xlink:href="#DejaVuSans-72" x="685.828125"/>
      <use xlink:href="#DejaVuSans-72" x="725.191406"/>
      <use xlink:href="#DejaVuSans-6f" x="764.054688"/>
      <use xlink:href="#DejaVuSans-72" x="825.236328"/>
     </g>
    </g>
   </g>
   <g id="line2d_29">
    <path d="M 69.218182 254.972857 
L 74.376888 256.005061 
L 79.535593 252.908818 
L 84.694299 252.93269 
L 89.853005 252.908818 
L 95.01171 253.210777 
L 100.170416 252.913716 
L 105.329122 252.918076 
L 110.487827 253.557799 
L 115.646533 253.55229 
L 120.805239 145.524049 
L 125.963945 103.975087 
L 131.12265 97.096864 
L 136.281356 88.616871 
L 141.440062 171.039538 
L 146.598767 104.197106 
L 151.757473 52.902486 
L 156.916179 78.115756 
L 162.074884 78.084352 
L 167.23359 77.001495 
L 172.392296 77.19126 
L 177.551002 76.837977 
L 182.709707 77.125387 
L 187.868413 52.071654 
L 193.027119 76.975822 
L 198.185824 76.975822 
L 203.34453 78.552529 
L 208.503236 86.600253 
L 213.661941 86.600253 
L 218.820647 86.423656 
L 223.979353 86.423656 
L 229.138059 97.020152 
L 234.296764 97.020152 
L 239.45547 86.258727 
L 244.614176 49.417363 
L 249.772881 50.339858 
L 254.931587 50.339858 
L 260.090293 47.864487 
L 265.248998 47.864487 
L 270.407704 47.864487 
L 275.56641 47.864487 
L 280.725116 47.864487 
L 285.883821 47.864487 
L 291.042527 47.864487 
L 296.201233 47.864487 
L 301.359938 52.071654 
L 306.518644 47.864487 
L 311.67735 47.864487 
L 316.836055 47.864487 
L 321.994761 52.071654 
L 327.153467 52.071654 
L 332.312173 52.071654 
L 337.470878 47.864487 
L 342.629584 47.864487 
L 347.78829 47.864487 
L 352.946995 47.864487 
L 358.105701 47.864487 
L 363.264407 47.864487 
L 368.423112 47.864487 
L 373.581818 47.864487 
" clip-path="url(#p9b874c6647)" style="fill: none; stroke: #9d02d7; stroke-width: 1.5; stroke-linecap: square"/>
    <defs>
     <path id="m4680b22459" d="M 0 -2 
L -2 2 
L 2 2 
z
" style="stroke: #9d02d7; stroke-linejoin: miter"/>
    </defs>
    <g clip-path="url(#p9b874c6647)">
     <use xlink:href="#m4680b22459" x="69.218182" y="254.972857" style="fill: #9d02d7; stroke: #9d02d7; stroke-linejoin: miter"/>
     <use xlink:href="#m4680b22459" x="74.376888" y="256.005061" style="fill: #9d02d7; stroke: #9d02d7; stroke-linejoin: miter"/>
     <use xlink:href="#m4680b22459" x="79.535593" y="252.908818" style="fill: #9d02d7; stroke: #9d02d7; stroke-linejoin: miter"/>
     <use xlink:href="#m4680b22459" x="84.694299" y="252.93269" style="fill: #9d02d7; stroke: #9d02d7; stroke-linejoin: miter"/>
     <use xlink:href="#m4680b22459" x="89.853005" y="252.908818" style="fill: #9d02d7; stroke: #9d02d7; stroke-linejoin: miter"/>
     <use xlink:href="#m4680b22459" x="95.01171" y="253.210777" style="fill: #9d02d7; stroke: #9d02d7; stroke-linejoin: miter"/>
     <use xlink:href="#m4680b22459" x="100.170416" y="252.913716" style="fill: #9d02d7; stroke: #9d02d7; stroke-linejoin: miter"/>
     <use xlink:href="#m4680b22459" x="105.329122" y="252.918076" style="fill: #9d02d7; stroke: #9d02d7; stroke-linejoin: miter"/>
     <use xlink:href="#m4680b22459" x="110.487827" y="253.557799" style="fill: #9d02d7; stroke: #9d02d7; stroke-linejoin: miter"/>
     <use xlink:href="#m4680b22459" x="115.646533" y="253.55229" style="fill: #9d02d7; stroke: #9d02d7; stroke-linejoin: miter"/>
     <use xlink:href="#m4680b22459" x="120.805239" y="145.524049" style="fill: #9d02d7; stroke: #9d02d7; stroke-linejoin: miter"/>
     <use xlink:href="#m4680b22459" x="125.963945" y="103.975087" style="fill: #9d02d7; stroke: #9d02d7; stroke-linejoin: miter"/>
     <use xlink:href="#m4680b22459" x="131.12265" y="97.096864" style="fill: #9d02d7; stroke: #9d02d7; stroke-linejoin: miter"/>
     <use xlink:href="#m4680b22459" x="136.281356" y="88.616871" style="fill: #9d02d7; stroke: #9d02d7; stroke-linejoin: miter"/>
     <use xlink:href="#m4680b22459" x="141.440062" y="171.039538" style="fill: #9d02d7; stroke: #9d02d7; stroke-linejoin: miter"/>
     <use xlink:href="#m4680b22459" x="146.598767" y="104.197106" style="fill: #9d02d7; stroke: #9d02d7; stroke-linejoin: miter"/>
     <use xlink:href="#m4680b22459" x="151.757473" y="52.902486" style="fill: #9d02d7; stroke: #9d02d7; stroke-linejoin: miter"/>
     <use xlink:href="#m4680b22459" x="156.916179" y="78.115756" style="fill: #9d02d7; stroke: #9d02d7; stroke-linejoin: miter"/>
     <use xlink:href="#m4680b22459" x="162.074884" y="78.084352" style="fill: #9d02d7; stroke: #9d02d7; stroke-linejoin: miter"/>
     <use xlink:href="#m4680b22459" x="167.23359" y="77.001495" style="fill: #9d02d7; stroke: #9d02d7; stroke-linejoin: miter"/>
     <use xlink:href="#m4680b22459" x="172.392296" y="77.19126" style="fill: #9d02d7; stroke: #9d02d7; stroke-linejoin: miter"/>
     <use xlink:href="#m4680b22459" x="177.551002" y="76.837977" style="fill: #9d02d7; stroke: #9d02d7; stroke-linejoin: miter"/>
     <use xlink:href="#m4680b22459" x="182.709707" y="77.125387" style="fill: #9d02d7; stroke: #9d02d7; stroke-linejoin: miter"/>
     <use xlink:href="#m4680b22459" x="187.868413" y="52.071654" style="fill: #9d02d7; stroke: #9d02d7; stroke-linejoin: miter"/>
     <use xlink:href="#m4680b22459" x="193.027119" y="76.975822" style="fill: #9d02d7; stroke: #9d02d7; stroke-linejoin: miter"/>
     <use xlink:href="#m4680b22459" x="198.185824" y="76.975822" style="fill: #9d02d7; stroke: #9d02d7; stroke-linejoin: miter"/>
     <use xlink:href="#m4680b22459" x="203.34453" y="78.552529" style="fill: #9d02d7; stroke: #9d02d7; stroke-linejoin: miter"/>
     <use xlink:href="#m4680b22459" x="208.503236" y="86.600253" style="fill: #9d02d7; stroke: #9d02d7; stroke-linejoin: miter"/>
     <use xlink:href="#m4680b22459" x="213.661941" y="86.600253" style="fill: #9d02d7; stroke: #9d02d7; stroke-linejoin: miter"/>
     <use xlink:href="#m4680b22459" x="218.820647" y="86.423656" style="fill: #9d02d7; stroke: #9d02d7; stroke-linejoin: miter"/>
     <use xlink:href="#m4680b22459" x="223.979353" y="86.423656" style="fill: #9d02d7; stroke: #9d02d7; stroke-linejoin: miter"/>
     <use xlink:href="#m4680b22459" x="229.138059" y="97.020152" style="fill: #9d02d7; stroke: #9d02d7; stroke-linejoin: miter"/>
     <use xlink:href="#m4680b22459" x="234.296764" y="97.020152" style="fill: #9d02d7; stroke: #9d02d7; stroke-linejoin: miter"/>
     <use xlink:href="#m4680b22459" x="239.45547" y="86.258727" style="fill: #9d02d7; stroke: #9d02d7; stroke-linejoin: miter"/>
     <use xlink:href="#m4680b22459" x="244.614176" y="49.417363" style="fill: #9d02d7; stroke: #9d02d7; stroke-linejoin: miter"/>
     <use xlink:href="#m4680b22459" x="249.772881" y="50.339858" style="fill: #9d02d7; stroke: #9d02d7; stroke-linejoin: miter"/>
     <use xlink:href="#m4680b22459" x="254.931587" y="50.339858" style="fill: #9d02d7; stroke: #9d02d7; stroke-linejoin: miter"/>
     <use xlink:href="#m4680b22459" x="260.090293" y="47.864487" style="fill: #9d02d7; stroke: #9d02d7; stroke-linejoin: miter"/>
     <use xlink:href="#m4680b22459" x="265.248998" y="47.864487" style="fill: #9d02d7; stroke: #9d02d7; stroke-linejoin: miter"/>
     <use xlink:href="#m4680b22459" x="270.407704" y="47.864487" style="fill: #9d02d7; stroke: #9d02d7; stroke-linejoin: miter"/>
     <use xlink:href="#m4680b22459" x="275.56641" y="47.864487" style="fill: #9d02d7; stroke: #9d02d7; stroke-linejoin: miter"/>
     <use xlink:href="#m4680b22459" x="280.725116" y="47.864487" style="fill: #9d02d7; stroke: #9d02d7; stroke-linejoin: miter"/>
     <use xlink:href="#m4680b22459" x="285.883821" y="47.864487" style="fill: #9d02d7; stroke: #9d02d7; stroke-linejoin: miter"/>
     <use xlink:href="#m4680b22459" x="291.042527" y="47.864487" style="fill: #9d02d7; stroke: #9d02d7; stroke-linejoin: miter"/>
     <use xlink:href="#m4680b22459" x="296.201233" y="47.864487" style="fill: #9d02d7; stroke: #9d02d7; stroke-linejoin: miter"/>
     <use xlink:href="#m4680b22459" x="301.359938" y="52.071654" style="fill: #9d02d7; stroke: #9d02d7; stroke-linejoin: miter"/>
     <use xlink:href="#m4680b22459" x="306.518644" y="47.864487" style="fill: #9d02d7; stroke: #9d02d7; stroke-linejoin: miter"/>
     <use xlink:href="#m4680b22459" x="311.67735" y="47.864487" style="fill: #9d02d7; stroke: #9d02d7; stroke-linejoin: miter"/>
     <use xlink:href="#m4680b22459" x="316.836055" y="47.864487" style="fill: #9d02d7; stroke: #9d02d7; stroke-linejoin: miter"/>
     <use xlink:href="#m4680b22459" x="321.994761" y="52.071654" style="fill: #9d02d7; stroke: #9d02d7; stroke-linejoin: miter"/>
     <use xlink:href="#m4680b22459" x="327.153467" y="52.071654" style="fill: #9d02d7; stroke: #9d02d7; stroke-linejoin: miter"/>
     <use xlink:href="#m4680b22459" x="332.312173" y="52.071654" style="fill: #9d02d7; stroke: #9d02d7; stroke-linejoin: miter"/>
     <use xlink:href="#m4680b22459" x="337.470878" y="47.864487" style="fill: #9d02d7; stroke: #9d02d7; stroke-linejoin: miter"/>
     <use xlink:href="#m4680b22459" x="342.629584" y="47.864487" style="fill: #9d02d7; stroke: #9d02d7; stroke-linejoin: miter"/>
     <use xlink:href="#m4680b22459" x="347.78829" y="47.864487" style="fill: #9d02d7; stroke: #9d02d7; stroke-linejoin: miter"/>
     <use xlink:href="#m4680b22459" x="352.946995" y="47.864487" style="fill: #9d02d7; stroke: #9d02d7; stroke-linejoin: miter"/>
     <use xlink:href="#m4680b22459" x="358.105701" y="47.864487" style="fill: #9d02d7; stroke: #9d02d7; stroke-linejoin: miter"/>
     <use xlink:href="#m4680b22459" x="363.264407" y="47.864487" style="fill: #9d02d7; stroke: #9d02d7; stroke-linejoin: miter"/>
     <use xlink:href="#m4680b22459" x="368.423112" y="47.864487" style="fill: #9d02d7; stroke: #9d02d7; stroke-linejoin: miter"/>
     <use xlink:href="#m4680b22459" x="373.581818" y="47.864487" style="fill: #9d02d7; stroke: #9d02d7; stroke-linejoin: miter"/>
    </g>
   </g>
   <g id="line2d_30">
    <path d="M 69.218182 256.227555 
L 74.376888 256.163694 
L 79.535593 252.908818 
L 84.694299 253.13887 
L 89.853005 253.326812 
L 95.01171 251.837609 
L 100.170416 223.451913 
L 105.329122 222.814376 
L 110.487827 255.483678 
L 115.646533 257.446739 
L 120.805239 257.461571 
L 125.963945 212.332245 
L 131.12265 211.710556 
L 136.281356 212.329051 
L 141.440062 211.461142 
L 146.598767 211.710556 
L 151.757473 211.634276 
L 156.916179 211.676778 
L 162.074884 210.774354 
L 167.23359 211.517662 
L 172.392296 211.500656 
L 177.551002 211.648319 
L 182.709707 122.305481 
L 187.868413 128.023778 
L 193.027119 126.557483 
L 198.185824 47.873781 
L 203.34453 45.507785 
L 208.503236 46.433036 
L 213.661941 53.236517 
L 218.820647 46.556511 
L 223.979353 47.163009 
L 229.138059 43.066387 
L 234.296764 46.556511 
L 239.45547 46.556511 
L 244.614176 46.556511 
L 249.772881 46.556511 
L 254.931587 46.556511 
L 260.090293 46.556511 
L 265.248998 43.066387 
L 270.407704 43.066387 
L 275.56641 43.066387 
L 280.725116 43.066387 
L 285.883821 43.066387 
L 291.042527 43.066387 
L 296.201233 43.066387 
L 301.359938 43.066387 
L 306.518644 43.066387 
L 311.67735 43.066387 
L 316.836055 43.066387 
L 321.994761 43.066387 
L 327.153467 43.066387 
L 332.312173 43.065221 
L 337.470878 43.065221 
L 342.629584 43.065221 
L 347.78829 43.065221 
L 352.946995 43.065221 
L 358.105701 43.065221 
L 363.264407 43.065221 
L 368.423112 43.065221 
L 373.581818 43.065221 
" clip-path="url(#p9b874c6647)" style="fill: none; stroke: #0000ff; stroke-width: 1.5; stroke-linecap: square"/>
    <defs>
     <path id="m26b683a0a4" d="M 0 2 
C 0.530406 2 1.03916 1.789267 1.414214 1.414214 
C 1.789267 1.03916 2 0.530406 2 0 
C 2 -0.530406 1.789267 -1.03916 1.414214 -1.414214 
C 1.03916 -1.789267 0.530406 -2 0 -2 
C -0.530406 -2 -1.03916 -1.789267 -1.414214 -1.414214 
C -1.789267 -1.03916 -2 -0.530406 -2 0 
C -2 0.530406 -1.789267 1.03916 -1.414214 1.414214 
C -1.03916 1.789267 -0.530406 2 0 2 
z
" style="stroke: #0000ff"/>
    </defs>
    <g clip-path="url(#p9b874c6647)">
     <use xlink:href="#m26b683a0a4" x="69.218182" y="256.227555" style="fill: #0000ff; stroke: #0000ff"/>
     <use xlink:href="#m26b683a0a4" x="74.376888" y="256.163694" style="fill: #0000ff; stroke: #0000ff"/>
     <use xlink:href="#m26b683a0a4" x="79.535593" y="252.908818" style="fill: #0000ff; stroke: #0000ff"/>
     <use xlink:href="#m26b683a0a4" x="84.694299" y="253.13887" style="fill: #0000ff; stroke: #0000ff"/>
     <use xlink:href="#m26b683a0a4" x="89.853005" y="253.326812" style="fill: #0000ff; stroke: #0000ff"/>
     <use xlink:href="#m26b683a0a4" x="95.01171" y="251.837609" style="fill: #0000ff; stroke: #0000ff"/>
     <use xlink:href="#m26b683a0a4" x="100.170416" y="223.451913" style="fill: #0000ff; stroke: #0000ff"/>
     <use xlink:href="#m26b683a0a4" x="105.329122" y="222.814376" style="fill: #0000ff; stroke: #0000ff"/>
     <use xlink:href="#m26b683a0a4" x="110.487827" y="255.483678" style="fill: #0000ff; stroke: #0000ff"/>
     <use xlink:href="#m26b683a0a4" x="115.646533" y="257.446739" style="fill: #0000ff; stroke: #0000ff"/>
     <use xlink:href="#m26b683a0a4" x="120.805239" y="257.461571" style="fill: #0000ff; stroke: #0000ff"/>
     <use xlink:href="#m26b683a0a4" x="125.963945" y="212.332245" style="fill: #0000ff; stroke: #0000ff"/>
     <use xlink:href="#m26b683a0a4" x="131.12265" y="211.710556" style="fill: #0000ff; stroke: #0000ff"/>
     <use xlink:href="#m26b683a0a4" x="136.281356" y="212.329051" style="fill: #0000ff; stroke: #0000ff"/>
     <use xlink:href="#m26b683a0a4" x="141.440062" y="211.461142" style="fill: #0000ff; stroke: #0000ff"/>
     <use xlink:href="#m26b683a0a4" x="146.598767" y="211.710556" style="fill: #0000ff; stroke: #0000ff"/>
     <use xlink:href="#m26b683a0a4" x="151.757473" y="211.634276" style="fill: #0000ff; stroke: #0000ff"/>
     <use xlink:href="#m26b683a0a4" x="156.916179" y="211.676778" style="fill: #0000ff; stroke: #0000ff"/>
     <use xlink:href="#m26b683a0a4" x="162.074884" y="210.774354" style="fill: #0000ff; stroke: #0000ff"/>
     <use xlink:href="#m26b683a0a4" x="167.23359" y="211.517662" style="fill: #0000ff; stroke: #0000ff"/>
     <use xlink:href="#m26b683a0a4" x="172.392296" y="211.500656" style="fill: #0000ff; stroke: #0000ff"/>
     <use xlink:href="#m26b683a0a4" x="177.551002" y="211.648319" style="fill: #0000ff; stroke: #0000ff"/>
     <use xlink:href="#m26b683a0a4" x="182.709707" y="122.305481" style="fill: #0000ff; stroke: #0000ff"/>
     <use xlink:href="#m26b683a0a4" x="187.868413" y="128.023778" style="fill: #0000ff; stroke: #0000ff"/>
     <use xlink:href="#m26b683a0a4" x="193.027119" y="126.557483" style="fill: #0000ff; stroke: #0000ff"/>
     <use xlink:href="#m26b683a0a4" x="198.185824" y="47.873781" style="fill: #0000ff; stroke: #0000ff"/>
     <use xlink:href="#m26b683a0a4" x="203.34453" y="45.507785" style="fill: #0000ff; stroke: #0000ff"/>
     <use xlink:href="#m26b683a0a4" x="208.503236" y="46.433036" style="fill: #0000ff; stroke: #0000ff"/>
     <use xlink:href="#m26b683a0a4" x="213.661941" y="53.236517" style="fill: #0000ff; stroke: #0000ff"/>
     <use xlink:href="#m26b683a0a4" x="218.820647" y="46.556511" style="fill: #0000ff; stroke: #0000ff"/>
     <use xlink:href="#m26b683a0a4" x="223.979353" y="47.163009" style="fill: #0000ff; stroke: #0000ff"/>
     <use xlink:href="#m26b683a0a4" x="229.138059" y="43.066387" style="fill: #0000ff; stroke: #0000ff"/>
     <use xlink:href="#m26b683a0a4" x="234.296764" y="46.556511" style="fill: #0000ff; stroke: #0000ff"/>
     <use xlink:href="#m26b683a0a4" x="239.45547" y="46.556511" style="fill: #0000ff; stroke: #0000ff"/>
     <use xlink:href="#m26b683a0a4" x="244.614176" y="46.556511" style="fill: #0000ff; stroke: #0000ff"/>
     <use xlink:href="#m26b683a0a4" x="249.772881" y="46.556511" style="fill: #0000ff; stroke: #0000ff"/>
     <use xlink:href="#m26b683a0a4" x="254.931587" y="46.556511" style="fill: #0000ff; stroke: #0000ff"/>
     <use xlink:href="#m26b683a0a4" x="260.090293" y="46.556511" style="fill: #0000ff; stroke: #0000ff"/>
     <use xlink:href="#m26b683a0a4" x="265.248998" y="43.066387" style="fill: #0000ff; stroke: #0000ff"/>
     <use xlink:href="#m26b683a0a4" x="270.407704" y="43.066387" style="fill: #0000ff; stroke: #0000ff"/>
     <use xlink:href="#m26b683a0a4" x="275.56641" y="43.066387" style="fill: #0000ff; stroke: #0000ff"/>
     <use xlink:href="#m26b683a0a4" x="280.725116" y="43.066387" style="fill: #0000ff; stroke: #0000ff"/>
     <use xlink:href="#m26b683a0a4" x="285.883821" y="43.066387" style="fill: #0000ff; stroke: #0000ff"/>
     <use xlink:href="#m26b683a0a4" x="291.042527" y="43.066387" style="fill: #0000ff; stroke: #0000ff"/>
     <use xlink:href="#m26b683a0a4" x="296.201233" y="43.066387" style="fill: #0000ff; stroke: #0000ff"/>
     <use xlink:href="#m26b683a0a4" x="301.359938" y="43.066387" style="fill: #0000ff; stroke: #0000ff"/>
     <use xlink:href="#m26b683a0a4" x="306.518644" y="43.066387" style="fill: #0000ff; stroke: #0000ff"/>
     <use xlink:href="#m26b683a0a4" x="311.67735" y="43.066387" style="fill: #0000ff; stroke: #0000ff"/>
     <use xlink:href="#m26b683a0a4" x="316.836055" y="43.066387" style="fill: #0000ff; stroke: #0000ff"/>
     <use xlink:href="#m26b683a0a4" x="321.994761" y="43.066387" style="fill: #0000ff; stroke: #0000ff"/>
     <use xlink:href="#m26b683a0a4" x="327.153467" y="43.066387" style="fill: #0000ff; stroke: #0000ff"/>
     <use xlink:href="#m26b683a0a4" x="332.312173" y="43.065221" style="fill: #0000ff; stroke: #0000ff"/>
     <use xlink:href="#m26b683a0a4" x="337.470878" y="43.065221" style="fill: #0000ff; stroke: #0000ff"/>
     <use xlink:href="#m26b683a0a4" x="342.629584" y="43.065221" style="fill: #0000ff; stroke: #0000ff"/>
     <use xlink:href="#m26b683a0a4" x="347.78829" y="43.065221" style="fill: #0000ff; stroke: #0000ff"/>
     <use xlink:href="#m26b683a0a4" x="352.946995" y="43.065221" style="fill: #0000ff; stroke: #0000ff"/>
     <use xlink:href="#m26b683a0a4" x="358.105701" y="43.065221" style="fill: #0000ff; stroke: #0000ff"/>
     <use xlink:href="#m26b683a0a4" x="363.264407" y="43.065221" style="fill: #0000ff; stroke: #0000ff"/>
     <use xlink:href="#m26b683a0a4" x="368.423112" y="43.065221" style="fill: #0000ff; stroke: #0000ff"/>
     <use xlink:href="#m26b683a0a4" x="373.581818" y="43.065221" style="fill: #0000ff; stroke: #0000ff"/>
    </g>
   </g>
   <g id="line2d_31">
    <path d="M 69.218182 253.490669 
L 74.376888 252.908818 
L 79.535593 254.532745 
L 84.694299 247.165292 
L 89.853005 252.908818 
L 95.01171 252.960024 
L 100.170416 252.861176 
L 105.329122 253.109153 
L 110.487827 252.908818 
L 115.646533 252.908818 
L 120.805239 253.165647 
L 125.963945 223.263988 
L 131.12265 242.392544 
L 136.281356 240.63851 
L 141.440062 167.467199 
L 146.598767 241.866002 
L 151.757473 241.537752 
L 156.916179 239.3438 
L 162.074884 236.843793 
L 167.23359 218.960946 
L 172.392296 231.492714 
L 177.551002 116.329574 
L 182.709707 56.747955 
L 187.868413 56.995751 
L 193.027119 56.747955 
L 198.185824 56.747955 
L 203.34453 44.391623 
L 208.503236 44.484821 
L 213.661941 45.604166 
L 218.820647 45.604166 
L 223.979353 44.391623 
L 229.138059 45.604166 
L 234.296764 45.604166 
L 239.45547 45.604166 
L 244.614176 44.391623 
L 249.772881 44.391623 
L 254.931587 43.45079 
L 260.090293 43.45079 
L 265.248998 43.45079 
L 270.407704 43.45079 
L 275.56641 43.45079 
L 280.725116 43.45079 
L 285.883821 43.45079 
L 291.042527 43.45079 
L 296.201233 43.45079 
L 301.359938 43.45079 
L 306.518644 43.45079 
L 311.67735 43.45079 
L 316.836055 43.45079 
L 321.994761 43.45079 
L 327.153467 43.45079 
L 332.312173 43.45079 
L 337.470878 43.45079 
L 342.629584 43.45079 
L 347.78829 43.45079 
L 352.946995 43.45079 
L 358.105701 43.45079 
L 363.264407 43.45079 
L 368.423112 43.45079 
L 373.581818 43.45079 
" clip-path="url(#p9b874c6647)" style="fill: none; stroke: #ff7763; stroke-width: 1.5; stroke-linecap: square"/>
    <defs>
     <path id="m40f3b690e2" d="M -2 2 
L 2 -2 
M -2 -2 
L 2 2 
" style="stroke: #ff7763"/>
    </defs>
    <g clip-path="url(#p9b874c6647)">
     <use xlink:href="#m40f3b690e2" x="69.218182" y="253.490669" style="fill: #ff7763; stroke: #ff7763"/>
     <use xlink:href="#m40f3b690e2" x="74.376888" y="252.908818" style="fill: #ff7763; stroke: #ff7763"/>
     <use xlink:href="#m40f3b690e2" x="79.535593" y="254.532745" style="fill: #ff7763; stroke: #ff7763"/>
     <use xlink:href="#m40f3b690e2" x="84.694299" y="247.165292" style="fill: #ff7763; stroke: #ff7763"/>
     <use xlink:href="#m40f3b690e2" x="89.853005" y="252.908818" style="fill: #ff7763; stroke: #ff7763"/>
     <use xlink:href="#m40f3b690e2" x="95.01171" y="252.960024" style="fill: #ff7763; stroke: #ff7763"/>
     <use xlink:href="#m40f3b690e2" x="100.170416" y="252.861176" style="fill: #ff7763; stroke: #ff7763"/>
     <use xlink:href="#m40f3b690e2" x="105.329122" y="253.109153" style="fill: #ff7763; stroke: #ff7763"/>
     <use xlink:href="#m40f3b690e2" x="110.487827" y="252.908818" style="fill: #ff7763; stroke: #ff7763"/>
     <use xlink:href="#m40f3b690e2" x="115.646533" y="252.908818" style="fill: #ff7763; stroke: #ff7763"/>
     <use xlink:href="#m40f3b690e2" x="120.805239" y="253.165647" style="fill: #ff7763; stroke: #ff7763"/>
     <use xlink:href="#m40f3b690e2" x="125.963945" y="223.263988" style="fill: #ff7763; stroke: #ff7763"/>
     <use xlink:href="#m40f3b690e2" x="131.12265" y="242.392544" style="fill: #ff7763; stroke: #ff7763"/>
     <use xlink:href="#m40f3b690e2" x="136.281356" y="240.63851" style="fill: #ff7763; stroke: #ff7763"/>
     <use xlink:href="#m40f3b690e2" x="141.440062" y="167.467199" style="fill: #ff7763; stroke: #ff7763"/>
     <use xlink:href="#m40f3b690e2" x="146.598767" y="241.866002" style="fill: #ff7763; stroke: #ff7763"/>
     <use xlink:href="#m40f3b690e2" x="151.757473" y="241.537752" style="fill: #ff7763; stroke: #ff7763"/>
     <use xlink:href="#m40f3b690e2" x="156.916179" y="239.3438" style="fill: #ff7763; stroke: #ff7763"/>
     <use xlink:href="#m40f3b690e2" x="162.074884" y="236.843793" style="fill: #ff7763; stroke: #ff7763"/>
     <use xlink:href="#m40f3b690e2" x="167.23359" y="218.960946" style="fill: #ff7763; stroke: #ff7763"/>
     <use xlink:href="#m40f3b690e2" x="172.392296" y="231.492714" style="fill: #ff7763; stroke: #ff7763"/>
     <use xlink:href="#m40f3b690e2" x="177.551002" y="116.329574" style="fill: #ff7763; stroke: #ff7763"/>
     <use xlink:href="#m40f3b690e2" x="182.709707" y="56.747955" style="fill: #ff7763; stroke: #ff7763"/>
     <use xlink:href="#m40f3b690e2" x="187.868413" y="56.995751" style="fill: #ff7763; stroke: #ff7763"/>
     <use xlink:href="#m40f3b690e2" x="193.027119" y="56.747955" style="fill: #ff7763; stroke: #ff7763"/>
     <use xlink:href="#m40f3b690e2" x="198.185824" y="56.747955" style="fill: #ff7763; stroke: #ff7763"/>
     <use xlink:href="#m40f3b690e2" x="203.34453" y="44.391623" style="fill: #ff7763; stroke: #ff7763"/>
     <use xlink:href="#m40f3b690e2" x="208.503236" y="44.484821" style="fill: #ff7763; stroke: #ff7763"/>
     <use xlink:href="#m40f3b690e2" x="213.661941" y="45.604166" style="fill: #ff7763; stroke: #ff7763"/>
     <use xlink:href="#m40f3b690e2" x="218.820647" y="45.604166" style="fill: #ff7763; stroke: #ff7763"/>
     <use xlink:href="#m40f3b690e2" x="223.979353" y="44.391623" style="fill: #ff7763; stroke: #ff7763"/>
     <use xlink:href="#m40f3b690e2" x="229.138059" y="45.604166" style="fill: #ff7763; stroke: #ff7763"/>
     <use xlink:href="#m40f3b690e2" x="234.296764" y="45.604166" style="fill: #ff7763; stroke: #ff7763"/>
     <use xlink:href="#m40f3b690e2" x="239.45547" y="45.604166" style="fill: #ff7763; stroke: #ff7763"/>
     <use xlink:href="#m40f3b690e2" x="244.614176" y="44.391623" style="fill: #ff7763; stroke: #ff7763"/>
     <use xlink:href="#m40f3b690e2" x="249.772881" y="44.391623" style="fill: #ff7763; stroke: #ff7763"/>
     <use xlink:href="#m40f3b690e2" x="254.931587" y="43.45079" style="fill: #ff7763; stroke: #ff7763"/>
     <use xlink:href="#m40f3b690e2" x="260.090293" y="43.45079" style="fill: #ff7763; stroke: #ff7763"/>
     <use xlink:href="#m40f3b690e2" x="265.248998" y="43.45079" style="fill: #ff7763; stroke: #ff7763"/>
     <use xlink:href="#m40f3b690e2" x="270.407704" y="43.45079" style="fill: #ff7763; stroke: #ff7763"/>
     <use xlink:href="#m40f3b690e2" x="275.56641" y="43.45079" style="fill: #ff7763; stroke: #ff7763"/>
     <use xlink:href="#m40f3b690e2" x="280.725116" y="43.45079" style="fill: #ff7763; stroke: #ff7763"/>
     <use xlink:href="#m40f3b690e2" x="285.883821" y="43.45079" style="fill: #ff7763; stroke: #ff7763"/>
     <use xlink:href="#m40f3b690e2" x="291.042527" y="43.45079" style="fill: #ff7763; stroke: #ff7763"/>
     <use xlink:href="#m40f3b690e2" x="296.201233" y="43.45079" style="fill: #ff7763; stroke: #ff7763"/>
     <use xlink:href="#m40f3b690e2" x="301.359938" y="43.45079" style="fill: #ff7763; stroke: #ff7763"/>
     <use xlink:href="#m40f3b690e2" x="306.518644" y="43.45079" style="fill: #ff7763; stroke: #ff7763"/>
     <use xlink:href="#m40f3b690e2" x="311.67735" y="43.45079" style="fill: #ff7763; stroke: #ff7763"/>
     <use xlink:href="#m40f3b690e2" x="316.836055" y="43.45079" style="fill: #ff7763; stroke: #ff7763"/>
     <use xlink:href="#m40f3b690e2" x="321.994761" y="43.45079" style="fill: #ff7763; stroke: #ff7763"/>
     <use xlink:href="#m40f3b690e2" x="327.153467" y="43.45079" style="fill: #ff7763; stroke: #ff7763"/>
     <use xlink:href="#m40f3b690e2" x="332.312173" y="43.45079" style="fill: #ff7763; stroke: #ff7763"/>
     <use xlink:href="#m40f3b690e2" x="337.470878" y="43.45079" style="fill: #ff7763; stroke: #ff7763"/>
     <use xlink:href="#m40f3b690e2" x="342.629584" y="43.45079" style="fill: #ff7763; stroke: #ff7763"/>
     <use xlink:href="#m40f3b690e2" x="347.78829" y="43.45079" style="fill: #ff7763; stroke: #ff7763"/>
     <use xlink:href="#m40f3b690e2" x="352.946995" y="43.45079" style="fill: #ff7763; stroke: #ff7763"/>
     <use xlink:href="#m40f3b690e2" x="358.105701" y="43.45079" style="fill: #ff7763; stroke: #ff7763"/>
     <use xlink:href="#m40f3b690e2" x="363.264407" y="43.45079" style="fill: #ff7763; stroke: #ff7763"/>
     <use xlink:href="#m40f3b690e2" x="368.423112" y="43.45079" style="fill: #ff7763; stroke: #ff7763"/>
     <use xlink:href="#m40f3b690e2" x="373.581818" y="43.45079" style="fill: #ff7763; stroke: #ff7763"/>
    </g>
   </g>
   <g id="line2d_32">
    <path d="M 69.218182 268.129348 
L 74.376888 254.711016 
L 79.535593 253.196853 
L 84.694299 252.908818 
L 89.853005 253.354178 
L 95.01171 253.02141 
L 100.170416 253.073725 
L 105.329122 252.908818 
L 110.487827 254.478305 
L 115.646533 252.908818 
L 120.805239 254.637528 
L 125.963945 252.919955 
L 131.12265 253.082769 
L 136.281356 254.355647 
L 141.440062 257.614567 
L 146.598767 254.855338 
L 151.757473 253.197441 
L 156.916179 252.908818 
L 162.074884 253.152146 
L 167.23359 252.95876 
L 172.392296 251.558493 
L 177.551002 253.159419 
L 182.709707 248.896487 
L 187.868413 121.262279 
L 193.027119 125.739726 
L 198.185824 64.952101 
L 203.34453 52.031938 
L 208.503236 52.031938 
L 213.661941 52.031938 
L 218.820647 48.985455 
L 223.979353 48.985455 
L 229.138059 48.985455 
L 234.296764 48.985455 
L 239.45547 48.816383 
L 244.614176 48.816383 
L 249.772881 48.816383 
L 254.931587 43.504753 
L 260.090293 43.504753 
L 265.248998 43.504753 
L 270.407704 43.504753 
L 275.56641 43.504753 
L 280.725116 43.504753 
L 285.883821 43.50768 
L 291.042527 43.50768 
L 296.201233 43.504753 
L 301.359938 43.504753 
L 306.518644 43.504753 
L 311.67735 48.816383 
L 316.836055 48.816383 
L 321.994761 43.504753 
L 327.153467 43.504753 
L 332.312173 43.504753 
L 337.470878 43.504753 
L 342.629584 43.504753 
L 347.78829 43.504753 
L 352.946995 43.504753 
L 358.105701 43.504753 
L 363.264407 43.504753 
L 368.423112 43.504753 
L 373.581818 43.504753 
" clip-path="url(#p9b874c6647)" style="fill: none; stroke: #ffac1e; stroke-width: 1.5; stroke-linecap: square"/>
    <defs>
     <path id="maa6a4a1dad" d="M 0 -2 
L -0.449028 -0.618034 
L -1.902113 -0.618034 
L -0.726543 0.236068 
L -1.175571 1.618034 
L -0 0.763932 
L 1.175571 1.618034 
L 0.726543 0.236068 
L 1.902113 -0.618034 
L 0.449028 -0.618034 
z
" style="stroke: #ffac1e; stroke-linejoin: bevel"/>
    </defs>
    <g clip-path="url(#p9b874c6647)">
     <use xlink:href="#maa6a4a1dad" x="69.218182" y="268.129348" style="fill: #ffac1e; stroke: #ffac1e; stroke-linejoin: bevel"/>
     <use xlink:href="#maa6a4a1dad" x="74.376888" y="254.711016" style="fill: #ffac1e; stroke: #ffac1e; stroke-linejoin: bevel"/>
     <use xlink:href="#maa6a4a1dad" x="79.535593" y="253.196853" style="fill: #ffac1e; stroke: #ffac1e; stroke-linejoin: bevel"/>
     <use xlink:href="#maa6a4a1dad" x="84.694299" y="252.908818" style="fill: #ffac1e; stroke: #ffac1e; stroke-linejoin: bevel"/>
     <use xlink:href="#maa6a4a1dad" x="89.853005" y="253.354178" style="fill: #ffac1e; stroke: #ffac1e; stroke-linejoin: bevel"/>
     <use xlink:href="#maa6a4a1dad" x="95.01171" y="253.02141" style="fill: #ffac1e; stroke: #ffac1e; stroke-linejoin: bevel"/>
     <use xlink:href="#maa6a4a1dad" x="100.170416" y="253.073725" style="fill: #ffac1e; stroke: #ffac1e; stroke-linejoin: bevel"/>
     <use xlink:href="#maa6a4a1dad" x="105.329122" y="252.908818" style="fill: #ffac1e; stroke: #ffac1e; stroke-linejoin: bevel"/>
     <use xlink:href="#maa6a4a1dad" x="110.487827" y="254.478305" style="fill: #ffac1e; stroke: #ffac1e; stroke-linejoin: bevel"/>
     <use xlink:href="#maa6a4a1dad" x="115.646533" y="252.908818" style="fill: #ffac1e; stroke: #ffac1e; stroke-linejoin: bevel"/>
     <use xlink:href="#maa6a4a1dad" x="120.805239" y="254.637528" style="fill: #ffac1e; stroke: #ffac1e; stroke-linejoin: bevel"/>
     <use xlink:href="#maa6a4a1dad" x="125.963945" y="252.919955" style="fill: #ffac1e; stroke: #ffac1e; stroke-linejoin: bevel"/>
     <use xlink:href="#maa6a4a1dad" x="131.12265" y="253.082769" style="fill: #ffac1e; stroke: #ffac1e; stroke-linejoin: bevel"/>
     <use xlink:href="#maa6a4a1dad" x="136.281356" y="254.355647" style="fill: #ffac1e; stroke: #ffac1e; stroke-linejoin: bevel"/>
     <use xlink:href="#maa6a4a1dad" x="141.440062" y="257.614567" style="fill: #ffac1e; stroke: #ffac1e; stroke-linejoin: bevel"/>
     <use xlink:href="#maa6a4a1dad" x="146.598767" y="254.855338" style="fill: #ffac1e; stroke: #ffac1e; stroke-linejoin: bevel"/>
     <use xlink:href="#maa6a4a1dad" x="151.757473" y="253.197441" style="fill: #ffac1e; stroke: #ffac1e; stroke-linejoin: bevel"/>
     <use xlink:href="#maa6a4a1dad" x="156.916179" y="252.908818" style="fill: #ffac1e; stroke: #ffac1e; stroke-linejoin: bevel"/>
     <use xlink:href="#maa6a4a1dad" x="162.074884" y="253.152146" style="fill: #ffac1e; stroke: #ffac1e; stroke-linejoin: bevel"/>
     <use xlink:href="#maa6a4a1dad" x="167.23359" y="252.95876" style="fill: #ffac1e; stroke: #ffac1e; stroke-linejoin: bevel"/>
     <use xlink:href="#maa6a4a1dad" x="172.392296" y="251.558493" style="fill: #ffac1e; stroke: #ffac1e; stroke-linejoin: bevel"/>
     <use xlink:href="#maa6a4a1dad" x="177.551002" y="253.159419" style="fill: #ffac1e; stroke: #ffac1e; stroke-linejoin: bevel"/>
     <use xlink:href="#maa6a4a1dad" x="182.709707" y="248.896487" style="fill: #ffac1e; stroke: #ffac1e; stroke-linejoin: bevel"/>
     <use xlink:href="#maa6a4a1dad" x="187.868413" y="121.262279" style="fill: #ffac1e; stroke: #ffac1e; stroke-linejoin: bevel"/>
     <use xlink:href="#maa6a4a1dad" x="193.027119" y="125.739726" style="fill: #ffac1e; stroke: #ffac1e; stroke-linejoin: bevel"/>
     <use xlink:href="#maa6a4a1dad" x="198.185824" y="64.952101" style="fill: #ffac1e; stroke: #ffac1e; stroke-linejoin: bevel"/>
     <use xlink:href="#maa6a4a1dad" x="203.34453" y="52.031938" style="fill: #ffac1e; stroke: #ffac1e; stroke-linejoin: bevel"/>
     <use xlink:href="#maa6a4a1dad" x="208.503236" y="52.031938" style="fill: #ffac1e; stroke: #ffac1e; stroke-linejoin: bevel"/>
     <use xlink:href="#maa6a4a1dad" x="213.661941" y="52.031938" style="fill: #ffac1e; stroke: #ffac1e; stroke-linejoin: bevel"/>
     <use xlink:href="#maa6a4a1dad" x="218.820647" y="48.985455" style="fill: #ffac1e; stroke: #ffac1e; stroke-linejoin: bevel"/>
     <use xlink:href="#maa6a4a1dad" x="223.979353" y="48.985455" style="fill: #ffac1e; stroke: #ffac1e; stroke-linejoin: bevel"/>
     <use xlink:href="#maa6a4a1dad" x="229.138059" y="48.985455" style="fill: #ffac1e; stroke: #ffac1e; stroke-linejoin: bevel"/>
     <use xlink:href="#maa6a4a1dad" x="234.296764" y="48.985455" style="fill: #ffac1e; stroke: #ffac1e; stroke-linejoin: bevel"/>
     <use xlink:href="#maa6a4a1dad" x="239.45547" y="48.816383" style="fill: #ffac1e; stroke: #ffac1e; stroke-linejoin: bevel"/>
     <use xlink:href="#maa6a4a1dad" x="244.614176" y="48.816383" style="fill: #ffac1e; stroke: #ffac1e; stroke-linejoin: bevel"/>
     <use xlink:href="#maa6a4a1dad" x="249.772881" y="48.816383" style="fill: #ffac1e; stroke: #ffac1e; stroke-linejoin: bevel"/>
     <use xlink:href="#maa6a4a1dad" x="254.931587" y="43.504753" style="fill: #ffac1e; stroke: #ffac1e; stroke-linejoin: bevel"/>
     <use xlink:href="#maa6a4a1dad" x="260.090293" y="43.504753" style="fill: #ffac1e; stroke: #ffac1e; stroke-linejoin: bevel"/>
     <use xlink:href="#maa6a4a1dad" x="265.248998" y="43.504753" style="fill: #ffac1e; stroke: #ffac1e; stroke-linejoin: bevel"/>
     <use xlink:href="#maa6a4a1dad" x="270.407704" y="43.504753" style="fill: #ffac1e; stroke: #ffac1e; stroke-linejoin: bevel"/>
     <use xlink:href="#maa6a4a1dad" x="275.56641" y="43.504753" style="fill: #ffac1e; stroke: #ffac1e; stroke-linejoin: bevel"/>
     <use xlink:href="#maa6a4a1dad" x="280.725116" y="43.504753" style="fill: #ffac1e; stroke: #ffac1e; stroke-linejoin: bevel"/>
     <use xlink:href="#maa6a4a1dad" x="285.883821" y="43.50768" style="fill: #ffac1e; stroke: #ffac1e; stroke-linejoin: bevel"/>
     <use xlink:href="#maa6a4a1dad" x="291.042527" y="43.50768" style="fill: #ffac1e; stroke: #ffac1e; stroke-linejoin: bevel"/>
     <use xlink:href="#maa6a4a1dad" x="296.201233" y="43.504753" style="fill: #ffac1e; stroke: #ffac1e; stroke-linejoin: bevel"/>
     <use xlink:href="#maa6a4a1dad" x="301.359938" y="43.504753" style="fill: #ffac1e; stroke: #ffac1e; stroke-linejoin: bevel"/>
     <use xlink:href="#maa6a4a1dad" x="306.518644" y="43.504753" style="fill: #ffac1e; stroke: #ffac1e; stroke-linejoin: bevel"/>
     <use xlink:href="#maa6a4a1dad" x="311.67735" y="48.816383" style="fill: #ffac1e; stroke: #ffac1e; stroke-linejoin: bevel"/>
     <use xlink:href="#maa6a4a1dad" x="316.836055" y="48.816383" style="fill: #ffac1e; stroke: #ffac1e; stroke-linejoin: bevel"/>
     <use xlink:href="#maa6a4a1dad" x="321.994761" y="43.504753" style="fill: #ffac1e; stroke: #ffac1e; stroke-linejoin: bevel"/>
     <use xlink:href="#maa6a4a1dad" x="327.153467" y="43.504753" style="fill: #ffac1e; stroke: #ffac1e; stroke-linejoin: bevel"/>
     <use xlink:href="#maa6a4a1dad" x="332.312173" y="43.504753" style="fill: #ffac1e; stroke: #ffac1e; stroke-linejoin: bevel"/>
     <use xlink:href="#maa6a4a1dad" x="337.470878" y="43.504753" style="fill: #ffac1e; stroke: #ffac1e; stroke-linejoin: bevel"/>
     <use xlink:href="#maa6a4a1dad" x="342.629584" y="43.504753" style="fill: #ffac1e; stroke: #ffac1e; stroke-linejoin: bevel"/>
     <use xlink:href="#maa6a4a1dad" x="347.78829" y="43.504753" style="fill: #ffac1e; stroke: #ffac1e; stroke-linejoin: bevel"/>
     <use xlink:href="#maa6a4a1dad" x="352.946995" y="43.504753" style="fill: #ffac1e; stroke: #ffac1e; stroke-linejoin: bevel"/>
     <use xlink:href="#maa6a4a1dad" x="358.105701" y="43.504753" style="fill: #ffac1e; stroke: #ffac1e; stroke-linejoin: bevel"/>
     <use xlink:href="#maa6a4a1dad" x="363.264407" y="43.504753" style="fill: #ffac1e; stroke: #ffac1e; stroke-linejoin: bevel"/>
     <use xlink:href="#maa6a4a1dad" x="368.423112" y="43.504753" style="fill: #ffac1e; stroke: #ffac1e; stroke-linejoin: bevel"/>
     <use xlink:href="#maa6a4a1dad" x="373.581818" y="43.504753" style="fill: #ffac1e; stroke: #ffac1e; stroke-linejoin: bevel"/>
    </g>
   </g>
   <g id="line2d_33">
    <path d="M 69.218182 255.333316 
L 74.376888 264.337804 
L 79.535593 252.908818 
L 84.694299 253.760853 
L 89.853005 253.194397 
L 95.01171 252.910889 
L 100.170416 253.133898 
L 105.329122 253.075351 
L 110.487827 253.022344 
L 115.646533 252.910014 
L 120.805239 253.593995 
L 125.963945 252.908818 
L 131.12265 255.313329 
L 136.281356 253.031328 
L 141.440062 252.908818 
L 146.598767 239.798414 
L 151.757473 239.771994 
L 156.916179 239.92868 
L 162.074884 239.901471 
L 167.23359 239.569698 
L 172.392296 239.60336 
L 177.551002 232.232472 
L 182.709707 232.232481 
L 187.868413 232.232409 
L 193.027119 232.23241 
L 198.185824 211.071742 
L 203.34453 42.92429 
L 208.503236 42.92429 
L 213.661941 42.92429 
L 218.820647 42.92429 
L 223.979353 42.92429 
L 229.138059 42.92429 
L 234.296764 42.92429 
L 239.45547 42.92429 
L 244.614176 42.92429 
L 249.772881 42.92429 
L 254.931587 46.626582 
L 260.090293 42.92429 
L 265.248998 42.92429 
L 270.407704 42.92429 
L 275.56641 42.92429 
L 280.725116 42.92429 
L 285.883821 42.92429 
L 291.042527 46.626582 
L 296.201233 42.92429 
L 301.359938 42.92429 
L 306.518644 42.92429 
L 311.67735 42.92429 
L 316.836055 46.626582 
L 321.994761 46.626582 
L 327.153467 46.626582 
L 332.312173 46.626582 
L 337.470878 42.92429 
L 342.629584 42.92429 
L 347.78829 42.92429 
L 352.946995 42.92429 
L 358.105701 42.92429 
L 363.264407 42.92429 
L 368.423112 42.92429 
L 373.581818 42.92429 
" clip-path="url(#p9b874c6647)" style="fill: none; stroke: #009435; stroke-width: 1.5; stroke-linecap: square"/>
    <defs>
     <path id="mba577bd120" d="M -2 2 
L 2 2 
L 2 -2 
L -2 -2 
z
" style="stroke: #009435; stroke-linejoin: miter"/>
    </defs>
    <g clip-path="url(#p9b874c6647)">
     <use xlink:href="#mba577bd120" x="69.218182" y="255.333316" style="fill: #009435; stroke: #009435; stroke-linejoin: miter"/>
     <use xlink:href="#mba577bd120" x="74.376888" y="264.337804" style="fill: #009435; stroke: #009435; stroke-linejoin: miter"/>
     <use xlink:href="#mba577bd120" x="79.535593" y="252.908818" style="fill: #009435; stroke: #009435; stroke-linejoin: miter"/>
     <use xlink:href="#mba577bd120" x="84.694299" y="253.760853" style="fill: #009435; stroke: #009435; stroke-linejoin: miter"/>
     <use xlink:href="#mba577bd120" x="89.853005" y="253.194397" style="fill: #009435; stroke: #009435; stroke-linejoin: miter"/>
     <use xlink:href="#mba577bd120" x="95.01171" y="252.910889" style="fill: #009435; stroke: #009435; stroke-linejoin: miter"/>
     <use xlink:href="#mba577bd120" x="100.170416" y="253.133898" style="fill: #009435; stroke: #009435; stroke-linejoin: miter"/>
     <use xlink:href="#mba577bd120" x="105.329122" y="253.075351" style="fill: #009435; stroke: #009435; stroke-linejoin: miter"/>
     <use xlink:href="#mba577bd120" x="110.487827" y="253.022344" style="fill: #009435; stroke: #009435; stroke-linejoin: miter"/>
     <use xlink:href="#mba577bd120" x="115.646533" y="252.910014" style="fill: #009435; stroke: #009435; stroke-linejoin: miter"/>
     <use xlink:href="#mba577bd120" x="120.805239" y="253.593995" style="fill: #009435; stroke: #009435; stroke-linejoin: miter"/>
     <use xlink:href="#mba577bd120" x="125.963945" y="252.908818" style="fill: #009435; stroke: #009435; stroke-linejoin: miter"/>
     <use xlink:href="#mba577bd120" x="131.12265" y="255.313329" style="fill: #009435; stroke: #009435; stroke-linejoin: miter"/>
     <use xlink:href="#mba577bd120" x="136.281356" y="253.031328" style="fill: #009435; stroke: #009435; stroke-linejoin: miter"/>
     <use xlink:href="#mba577bd120" x="141.440062" y="252.908818" style="fill: #009435; stroke: #009435; stroke-linejoin: miter"/>
     <use xlink:href="#mba577bd120" x="146.598767" y="239.798414" style="fill: #009435; stroke: #009435; stroke-linejoin: miter"/>
     <use xlink:href="#mba577bd120" x="151.757473" y="239.771994" style="fill: #009435; stroke: #009435; stroke-linejoin: miter"/>
     <use xlink:href="#mba577bd120" x="156.916179" y="239.92868" style="fill: #009435; stroke: #009435; stroke-linejoin: miter"/>
     <use xlink:href="#mba577bd120" x="162.074884" y="239.901471" style="fill: #009435; stroke: #009435; stroke-linejoin: miter"/>
     <use xlink:href="#mba577bd120" x="167.23359" y="239.569698" style="fill: #009435; stroke: #009435; stroke-linejoin: miter"/>
     <use xlink:href="#mba577bd120" x="172.392296" y="239.60336" style="fill: #009435; stroke: #009435; stroke-linejoin: miter"/>
     <use xlink:href="#mba577bd120" x="177.551002" y="232.232472" style="fill: #009435; stroke: #009435; stroke-linejoin: miter"/>
     <use xlink:href="#mba577bd120" x="182.709707" y="232.232481" style="fill: #009435; stroke: #009435; stroke-linejoin: miter"/>
     <use xlink:href="#mba577bd120" x="187.868413" y="232.232409" style="fill: #009435; stroke: #009435; stroke-linejoin: miter"/>
     <use xlink:href="#mba577bd120" x="193.027119" y="232.23241" style="fill: #009435; stroke: #009435; stroke-linejoin: miter"/>
     <use xlink:href="#mba577bd120" x="198.185824" y="211.071742" style="fill: #009435; stroke: #009435; stroke-linejoin: miter"/>
     <use xlink:href="#mba577bd120" x="203.34453" y="42.92429" style="fill: #009435; stroke: #009435; stroke-linejoin: miter"/>
     <use xlink:href="#mba577bd120" x="208.503236" y="42.92429" style="fill: #009435; stroke: #009435; stroke-linejoin: miter"/>
     <use xlink:href="#mba577bd120" x="213.661941" y="42.92429" style="fill: #009435; stroke: #009435; stroke-linejoin: miter"/>
     <use xlink:href="#mba577bd120" x="218.820647" y="42.92429" style="fill: #009435; stroke: #009435; stroke-linejoin: miter"/>
     <use xlink:href="#mba577bd120" x="223.979353" y="42.92429" style="fill: #009435; stroke: #009435; stroke-linejoin: miter"/>
     <use xlink:href="#mba577bd120" x="229.138059" y="42.92429" style="fill: #009435; stroke: #009435; stroke-linejoin: miter"/>
     <use xlink:href="#mba577bd120" x="234.296764" y="42.92429" style="fill: #009435; stroke: #009435; stroke-linejoin: miter"/>
     <use xlink:href="#mba577bd120" x="239.45547" y="42.92429" style="fill: #009435; stroke: #009435; stroke-linejoin: miter"/>
     <use xlink:href="#mba577bd120" x="244.614176" y="42.92429" style="fill: #009435; stroke: #009435; stroke-linejoin: miter"/>
     <use xlink:href="#mba577bd120" x="249.772881" y="42.92429" style="fill: #009435; stroke: #009435; stroke-linejoin: miter"/>
     <use xlink:href="#mba577bd120" x="254.931587" y="46.626582" style="fill: #009435; stroke: #009435; stroke-linejoin: miter"/>
     <use xlink:href="#mba577bd120" x="260.090293" y="42.92429" style="fill: #009435; stroke: #009435; stroke-linejoin: miter"/>
     <use xlink:href="#mba577bd120" x="265.248998" y="42.92429" style="fill: #009435; stroke: #009435; stroke-linejoin: miter"/>
     <use xlink:href="#mba577bd120" x="270.407704" y="42.92429" style="fill: #009435; stroke: #009435; stroke-linejoin: miter"/>
     <use xlink:href="#mba577bd120" x="275.56641" y="42.92429" style="fill: #009435; stroke: #009435; stroke-linejoin: miter"/>
     <use xlink:href="#mba577bd120" x="280.725116" y="42.92429" style="fill: #009435; stroke: #009435; stroke-linejoin: miter"/>
     <use xlink:href="#mba577bd120" x="285.883821" y="42.92429" style="fill: #009435; stroke: #009435; stroke-linejoin: miter"/>
     <use xlink:href="#mba577bd120" x="291.042527" y="46.626582" style="fill: #009435; stroke: #009435; stroke-linejoin: miter"/>
     <use xlink:href="#mba577bd120" x="296.201233" y="42.92429" style="fill: #009435; stroke: #009435; stroke-linejoin: miter"/>
     <use xlink:href="#mba577bd120" x="301.359938" y="42.92429" style="fill: #009435; stroke: #009435; stroke-linejoin: miter"/>
     <use xlink:href="#mba577bd120" x="306.518644" y="42.92429" style="fill: #009435; stroke: #009435; stroke-linejoin: miter"/>
     <use xlink:href="#mba577bd120" x="311.67735" y="42.92429" style="fill: #009435; stroke: #009435; stroke-linejoin: miter"/>
     <use xlink:href="#mba577bd120" x="316.836055" y="46.626582" style="fill: #009435; stroke: #009435; stroke-linejoin: miter"/>
     <use xlink:href="#mba577bd120" x="321.994761" y="46.626582" style="fill: #009435; stroke: #009435; stroke-linejoin: miter"/>
     <use xlink:href="#mba577bd120" x="327.153467" y="46.626582" style="fill: #009435; stroke: #009435; stroke-linejoin: miter"/>
     <use xlink:href="#mba577bd120" x="332.312173" y="46.626582" style="fill: #009435; stroke: #009435; stroke-linejoin: miter"/>
     <use xlink:href="#mba577bd120" x="337.470878" y="42.92429" style="fill: #009435; stroke: #009435; stroke-linejoin: miter"/>
     <use xlink:href="#mba577bd120" x="342.629584" y="42.92429" style="fill: #009435; stroke: #009435; stroke-linejoin: miter"/>
     <use xlink:href="#mba577bd120" x="347.78829" y="42.92429" style="fill: #009435; stroke: #009435; stroke-linejoin: miter"/>
     <use xlink:href="#mba577bd120" x="352.946995" y="42.92429" style="fill: #009435; stroke: #009435; stroke-linejoin: miter"/>
     <use xlink:href="#mba577bd120" x="358.105701" y="42.92429" style="fill: #009435; stroke: #009435; stroke-linejoin: miter"/>
     <use xlink:href="#mba577bd120" x="363.264407" y="42.92429" style="fill: #009435; stroke: #009435; stroke-linejoin: miter"/>
     <use xlink:href="#mba577bd120" x="368.423112" y="42.92429" style="fill: #009435; stroke: #009435; stroke-linejoin: miter"/>
     <use xlink:href="#mba577bd120" x="373.581818" y="42.92429" style="fill: #009435; stroke: #009435; stroke-linejoin: miter"/>
    </g>
   </g>
   <g id="patch_3">
    <path d="M 54 252 
L 54 34.56 
" style="fill: none; stroke: #000000; stroke-width: 0.8; stroke-linejoin: miter; stroke-linecap: square"/>
   </g>
   <g id="patch_4">
    <path d="M 388.8 252 
L 388.8 34.56 
" style="fill: none; stroke: #000000; stroke-width: 0.8; stroke-linejoin: miter; stroke-linecap: square"/>
   </g>
   <g id="patch_5">
    <path d="M 54 252 
L 388.8 252 
" style="fill: none; stroke: #000000; stroke-width: 0.8; stroke-linejoin: miter; stroke-linecap: square"/>
   </g>
   <g id="patch_6">
    <path d="M 54 34.56 
L 388.8 34.56 
" style="fill: none; stroke: #000000; stroke-width: 0.8; stroke-linejoin: miter; stroke-linecap: square"/>
   </g>
   <g id="text_17">
    <!-- R-max optimal policy with m = 14 -->
    <g transform="translate(119.205 28.56)scale(0.12 -0.12)">
     <defs>
      <path id="DejaVuSans-52" d="M 2841 2188 
Q 3044 2119 3236 1894 
Q 3428 1669 3622 1275 
L 4263 0 
L 3584 0 
L 2988 1197 
Q 2756 1666 2539 1819 
Q 2322 1972 1947 1972 
L 1259 1972 
L 1259 0 
L 628 0 
L 628 4666 
L 2053 4666 
Q 2853 4666 3247 4331 
Q 3641 3997 3641 3322 
Q 3641 2881 3436 2590 
Q 3231 2300 2841 2188 
z
M 1259 4147 
L 1259 2491 
L 2053 2491 
Q 2509 2491 2742 2702 
Q 2975 2913 2975 3322 
Q 2975 3731 2742 3939 
Q 2509 4147 2053 4147 
L 1259 4147 
z
" transform="scale(0.015625)"/>
      <path id="DejaVuSans-2d" d="M 313 2009 
L 1997 2009 
L 1997 1497 
L 313 1497 
L 313 2009 
z
" transform="scale(0.015625)"/>
      <path id="DejaVuSans-6d" d="M 3328 2828 
Q 3544 3216 3844 3400 
Q 4144 3584 4550 3584 
Q 5097 3584 5394 3201 
Q 5691 2819 5691 2113 
L 5691 0 
L 5113 0 
L 5113 2094 
Q 5113 2597 4934 2840 
Q 4756 3084 4391 3084 
Q 3944 3084 3684 2787 
Q 3425 2491 3425 1978 
L 3425 0 
L 2847 0 
L 2847 2094 
Q 2847 2600 2669 2842 
Q 2491 3084 2119 3084 
Q 1678 3084 1418 2786 
Q 1159 2488 1159 1978 
L 1159 0 
L 581 0 
L 581 3500 
L 1159 3500 
L 1159 2956 
Q 1356 3278 1631 3431 
Q 1906 3584 2284 3584 
Q 2666 3584 2933 3390 
Q 3200 3197 3328 2828 
z
" transform="scale(0.015625)"/>
      <path id="DejaVuSans-78" d="M 3513 3500 
L 2247 1797 
L 3578 0 
L 2900 0 
L 1881 1375 
L 863 0 
L 184 0 
L 1544 1831 
L 300 3500 
L 978 3500 
L 1906 2253 
L 2834 3500 
L 3513 3500 
z
" transform="scale(0.015625)"/>
      <path id="DejaVuSans-77" d="M 269 3500 
L 844 3500 
L 1563 769 
L 2278 3500 
L 2956 3500 
L 3675 769 
L 4391 3500 
L 4966 3500 
L 4050 0 
L 3372 0 
L 2619 2869 
L 1863 0 
L 1184 0 
L 269 3500 
z
" transform="scale(0.015625)"/>
      <path id="DejaVuSans-68" d="M 3513 2113 
L 3513 0 
L 2938 0 
L 2938 2094 
Q 2938 2591 2744 2837 
Q 2550 3084 2163 3084 
Q 1697 3084 1428 2787 
Q 1159 2491 1159 1978 
L 1159 0 
L 581 0 
L 581 4863 
L 1159 4863 
L 1159 2956 
Q 1366 3272 1645 3428 
Q 1925 3584 2291 3584 
Q 2894 3584 3203 3211 
Q 3513 2838 3513 2113 
z
" transform="scale(0.015625)"/>
      <path id="DejaVuSans-3d" d="M 678 2906 
L 4684 2906 
L 4684 2381 
L 678 2381 
L 678 2906 
z
M 678 1631 
L 4684 1631 
L 4684 1100 
L 678 1100 
L 678 1631 
z
" transform="scale(0.015625)"/>
     </defs>
     <use xlink:href="#DejaVuSans-52"/>
     <use xlink:href="#DejaVuSans-2d" x="65.482422"/>
     <use xlink:href="#DejaVuSans-6d" x="101.566406"/>
     <use xlink:href="#DejaVuSans-61" x="198.978516"/>
     <use xlink:href="#DejaVuSans-78" x="260.257812"/>
     <use xlink:href="#DejaVuSans-20" x="319.4375"/>
     <use xlink:href="#DejaVuSans-6f" x="351.224609"/>
     <use xlink:href="#DejaVuSans-70" x="412.40625"/>
     <use xlink:href="#DejaVuSans-74" x="475.882812"/>
     <use xlink:href="#DejaVuSans-69" x="515.091797"/>
     <use xlink:href="#DejaVuSans-6d" x="542.875"/>
     <use xlink:href="#DejaVuSans-61" x="640.287109"/>
     <use xlink:href="#DejaVuSans-6c" x="701.566406"/>
     <use xlink:href="#DejaVuSans-20" x="729.349609"/>
     <use xlink:href="#DejaVuSans-70" x="761.136719"/>
     <use xlink:href="#DejaVuSans-6f" x="824.613281"/>
     <use xlink:href="#DejaVuSans-6c" x="885.794922"/>
     <use xlink:href="#DejaVuSans-69" x="913.578125"/>
     <use xlink:href="#DejaVuSans-63" x="941.361328"/>
     <use xlink:href="#DejaVuSans-79" x="996.341797"/>
     <use xlink:href="#DejaVuSans-20" x="1055.521484"/>
     <use xlink:href="#DejaVuSans-77" x="1087.308594"/>
     <use xlink:href="#DejaVuSans-69" x="1169.095703"/>
     <use xlink:href="#DejaVuSans-74" x="1196.878906"/>
     <use xlink:href="#DejaVuSans-68" x="1236.087891"/>
     <use xlink:href="#DejaVuSans-20" x="1299.466797"/>
     <use xlink:href="#DejaVuSans-6d" x="1331.253906"/>
     <use xlink:href="#DejaVuSans-20" x="1428.666016"/>
     <use xlink:href="#DejaVuSans-3d" x="1460.453125"/>
     <use xlink:href="#DejaVuSans-20" x="1544.242188"/>
     <use xlink:href="#DejaVuSans-31" x="1576.029297"/>
     <use xlink:href="#DejaVuSans-34" x="1639.652344"/>
    </g>
   </g>
   <g id="legend_1">
    <g id="patch_7">
     <path d="M 230.8125 247 
L 381.8 247 
Q 383.8 247 383.8 245 
L 383.8 171.21875 
Q 383.8 169.21875 381.8 169.21875 
L 230.8125 169.21875 
Q 228.8125 169.21875 228.8125 171.21875 
L 228.8125 245 
Q 228.8125 247 230.8125 247 
z
" style="fill: #ffffff; opacity: 0.8; stroke: #cccccc; stroke-linejoin: miter"/>
    </g>
    <g id="line2d_34">
     <path d="M 232.8125 177.317187 
L 242.8125 177.317187 
L 252.8125 177.317187 
" style="fill: none; stroke: #9d02d7; stroke-width: 1.5; stroke-linecap: square"/>
     <g>
      <use xlink:href="#m4680b22459" x="242.8125" y="177.317187" style="fill: #9d02d7; stroke: #9d02d7; stroke-linejoin: miter"/>
     </g>
    </g>
    <g id="text_18">
     <!-- m_uncertain_states=2 -->
     <g transform="translate(260.8125 180.817187)scale(0.1 -0.1)">
      <defs>
       <path id="DejaVuSans-5f" d="M 3263 -1063 
L 3263 -1509 
L -63 -1509 
L -63 -1063 
L 3263 -1063 
z
" transform="scale(0.015625)"/>
       <path id="DejaVuSans-6e" d="M 3513 2113 
L 3513 0 
L 2938 0 
L 2938 2094 
Q 2938 2591 2744 2837 
Q 2550 3084 2163 3084 
Q 1697 3084 1428 2787 
Q 1159 2491 1159 1978 
L 1159 0 
L 581 0 
L 581 3500 
L 1159 3500 
L 1159 2956 
Q 1366 3272 1645 3428 
Q 1925 3584 2291 3584 
Q 2894 3584 3203 3211 
Q 3513 2838 3513 2113 
z
" transform="scale(0.015625)"/>
      </defs>
      <use xlink:href="#DejaVuSans-6d"/>
      <use xlink:href="#DejaVuSans-5f" x="97.412109"/>
      <use xlink:href="#DejaVuSans-75" x="147.412109"/>
      <use xlink:href="#DejaVuSans-6e" x="210.791016"/>
      <use xlink:href="#DejaVuSans-63" x="274.169922"/>
      <use xlink:href="#DejaVuSans-65" x="329.150391"/>
      <use xlink:href="#DejaVuSans-72" x="390.673828"/>
      <use xlink:href="#DejaVuSans-74" x="431.787109"/>
      <use xlink:href="#DejaVuSans-61" x="470.996094"/>
      <use xlink:href="#DejaVuSans-69" x="532.275391"/>
      <use xlink:href="#DejaVuSans-6e" x="560.058594"/>
      <use xlink:href="#DejaVuSans-5f" x="623.4375"/>
      <use xlink:href="#DejaVuSans-73" x="673.4375"/>
      <use xlink:href="#DejaVuSans-74" x="725.537109"/>
      <use xlink:href="#DejaVuSans-61" x="764.746094"/>
      <use xlink:href="#DejaVuSans-74" x="826.025391"/>
      <use xlink:href="#DejaVuSans-65" x="865.234375"/>
      <use xlink:href="#DejaVuSans-73" x="926.757812"/>
      <use xlink:href="#DejaVuSans-3d" x="978.857422"/>
      <use xlink:href="#DejaVuSans-32" x="1062.646484"/>
     </g>
    </g>
    <g id="line2d_35">
     <path d="M 232.8125 192.273438 
L 242.8125 192.273438 
L 252.8125 192.273438 
" style="fill: none; stroke: #0000ff; stroke-width: 1.5; stroke-linecap: square"/>
     <g>
      <use xlink:href="#m26b683a0a4" x="242.8125" y="192.273438" style="fill: #0000ff; stroke: #0000ff"/>
     </g>
    </g>
    <g id="text_19">
     <!-- m_uncertain_states=4 -->
     <g transform="translate(260.8125 195.773438)scale(0.1 -0.1)">
      <use xlink:href="#DejaVuSans-6d"/>
      <use xlink:href="#DejaVuSans-5f" x="97.412109"/>
      <use xlink:href="#DejaVuSans-75" x="147.412109"/>
      <use xlink:href="#DejaVuSans-6e" x="210.791016"/>
      <use xlink:href="#DejaVuSans-63" x="274.169922"/>
      <use xlink:href="#DejaVuSans-65" x="329.150391"/>
      <use xlink:href="#DejaVuSans-72" x="390.673828"/>
      <use xlink:href="#DejaVuSans-74" x="431.787109"/>
      <use xlink:href="#DejaVuSans-61" x="470.996094"/>
      <use xlink:href="#DejaVuSans-69" x="532.275391"/>
      <use xlink:href="#DejaVuSans-6e" x="560.058594"/>
      <use xlink:href="#DejaVuSans-5f" x="623.4375"/>
      <use xlink:href="#DejaVuSans-73" x="673.4375"/>
      <use xlink:href="#DejaVuSans-74" x="725.537109"/>
      <use xlink:href="#DejaVuSans-61" x="764.746094"/>
      <use xlink:href="#DejaVuSans-74" x="826.025391"/>
      <use xlink:href="#DejaVuSans-65" x="865.234375"/>
      <use xlink:href="#DejaVuSans-73" x="926.757812"/>
      <use xlink:href="#DejaVuSans-3d" x="978.857422"/>
      <use xlink:href="#DejaVuSans-34" x="1062.646484"/>
     </g>
    </g>
    <g id="line2d_36">
     <path d="M 232.8125 207.229688 
L 242.8125 207.229688 
L 252.8125 207.229688 
" style="fill: none; stroke: #ff7763; stroke-width: 1.5; stroke-linecap: square"/>
     <g>
      <use xlink:href="#m40f3b690e2" x="242.8125" y="207.229688" style="fill: #ff7763; stroke: #ff7763"/>
     </g>
    </g>
    <g id="text_20">
     <!-- m_uncertain_states=6 -->
     <g transform="translate(260.8125 210.729688)scale(0.1 -0.1)">
      <use xlink:href="#DejaVuSans-6d"/>
      <use xlink:href="#DejaVuSans-5f" x="97.412109"/>
      <use xlink:href="#DejaVuSans-75" x="147.412109"/>
      <use xlink:href="#DejaVuSans-6e" x="210.791016"/>
      <use xlink:href="#DejaVuSans-63" x="274.169922"/>
      <use xlink:href="#DejaVuSans-65" x="329.150391"/>
      <use xlink:href="#DejaVuSans-72" x="390.673828"/>
      <use xlink:href="#DejaVuSans-74" x="431.787109"/>
      <use xlink:href="#DejaVuSans-61" x="470.996094"/>
      <use xlink:href="#DejaVuSans-69" x="532.275391"/>
      <use xlink:href="#DejaVuSans-6e" x="560.058594"/>
      <use xlink:href="#DejaVuSans-5f" x="623.4375"/>
      <use xlink:href="#DejaVuSans-73" x="673.4375"/>
      <use xlink:href="#DejaVuSans-74" x="725.537109"/>
      <use xlink:href="#DejaVuSans-61" x="764.746094"/>
      <use xlink:href="#DejaVuSans-74" x="826.025391"/>
      <use xlink:href="#DejaVuSans-65" x="865.234375"/>
      <use xlink:href="#DejaVuSans-73" x="926.757812"/>
      <use xlink:href="#DejaVuSans-3d" x="978.857422"/>
      <use xlink:href="#DejaVuSans-36" x="1062.646484"/>
     </g>
    </g>
    <g id="line2d_37">
     <path d="M 232.8125 222.185938 
L 242.8125 222.185938 
L 252.8125 222.185938 
" style="fill: none; stroke: #ffac1e; stroke-width: 1.5; stroke-linecap: square"/>
     <g>
      <use xlink:href="#maa6a4a1dad" x="242.8125" y="222.185938" style="fill: #ffac1e; stroke: #ffac1e; stroke-linejoin: bevel"/>
     </g>
    </g>
    <g id="text_21">
     <!-- m_uncertain_states=8 -->
     <g transform="translate(260.8125 225.685938)scale(0.1 -0.1)">
      <use xlink:href="#DejaVuSans-6d"/>
      <use xlink:href="#DejaVuSans-5f" x="97.412109"/>
      <use xlink:href="#DejaVuSans-75" x="147.412109"/>
      <use xlink:href="#DejaVuSans-6e" x="210.791016"/>
      <use xlink:href="#DejaVuSans-63" x="274.169922"/>
      <use xlink:href="#DejaVuSans-65" x="329.150391"/>
      <use xlink:href="#DejaVuSans-72" x="390.673828"/>
      <use xlink:href="#DejaVuSans-74" x="431.787109"/>
      <use xlink:href="#DejaVuSans-61" x="470.996094"/>
      <use xlink:href="#DejaVuSans-69" x="532.275391"/>
      <use xlink:href="#DejaVuSans-6e" x="560.058594"/>
      <use xlink:href="#DejaVuSans-5f" x="623.4375"/>
      <use xlink:href="#DejaVuSans-73" x="673.4375"/>
      <use xlink:href="#DejaVuSans-74" x="725.537109"/>
      <use xlink:href="#DejaVuSans-61" x="764.746094"/>
      <use xlink:href="#DejaVuSans-74" x="826.025391"/>
      <use xlink:href="#DejaVuSans-65" x="865.234375"/>
      <use xlink:href="#DejaVuSans-73" x="926.757812"/>
      <use xlink:href="#DejaVuSans-3d" x="978.857422"/>
      <use xlink:href="#DejaVuSans-38" x="1062.646484"/>
     </g>
    </g>
    <g id="line2d_38">
     <path d="M 232.8125 237.142188 
L 242.8125 237.142188 
L 252.8125 237.142188 
" style="fill: none; stroke: #009435; stroke-width: 1.5; stroke-linecap: square"/>
     <g>
      <use xlink:href="#mba577bd120" x="242.8125" y="237.142188" style="fill: #009435; stroke: #009435; stroke-linejoin: miter"/>
     </g>
    </g>
    <g id="text_22">
     <!-- m_uncertain_states=10 -->
     <g transform="translate(260.8125 240.642188)scale(0.1 -0.1)">
      <use xlink:href="#DejaVuSans-6d"/>
      <use xlink:href="#DejaVuSans-5f" x="97.412109"/>
      <use xlink:href="#DejaVuSans-75" x="147.412109"/>
      <use xlink:href="#DejaVuSans-6e" x="210.791016"/>
      <use xlink:href="#DejaVuSans-63" x="274.169922"/>
      <use xlink:href="#DejaVuSans-65" x="329.150391"/>
      <use xlink:href="#DejaVuSans-72" x="390.673828"/>
      <use xlink:href="#DejaVuSans-74" x="431.787109"/>
      <use xlink:href="#DejaVuSans-61" x="470.996094"/>
      <use xlink:href="#DejaVuSans-69" x="532.275391"/>
      <use xlink:href="#DejaVuSans-6e" x="560.058594"/>
      <use xlink:href="#DejaVuSans-5f" x="623.4375"/>
      <use xlink:href="#DejaVuSans-73" x="673.4375"/>
      <use xlink:href="#DejaVuSans-74" x="725.537109"/>
      <use xlink:href="#DejaVuSans-61" x="764.746094"/>
      <use xlink:href="#DejaVuSans-74" x="826.025391"/>
      <use xlink:href="#DejaVuSans-65" x="865.234375"/>
      <use xlink:href="#DejaVuSans-73" x="926.757812"/>
      <use xlink:href="#DejaVuSans-3d" x="978.857422"/>
      <use xlink:href="#DejaVuSans-31" x="1062.646484"/>
      <use xlink:href="#DejaVuSans-30" x="1126.269531"/>
     </g>
    </g>
   </g>
  </g>
 </g>
 <defs>
  <clipPath id="p9b874c6647">
   <rect x="54" y="34.56" width="334.8" height="217.44"/>
  </clipPath>
 </defs>
</svg>
