<?xml version="1.0" encoding="utf-8" standalone="no"?>
<!DOCTYPE svg PUBLIC "-//W3C//DTD SVG 1.1//EN"
  "http://www.w3.org/Graphics/SVG/1.1/DTD/svg11.dtd">
<svg xmlns:xlink="http://www.w3.org/1999/xlink" width="432pt" height="288pt" viewBox="0 0 432 288" xmlns="http://www.w3.org/2000/svg" version="1.1">
 <metadata>
  <rdf:RDF xmlns:dc="http://purl.org/dc/elements/1.1/" xmlns:cc="http://creativecommons.org/ns#" xmlns:rdf="http://www.w3.org/1999/02/22-rdf-syntax-ns#">
   <cc:Work>
    <dc:type rdf:resource="http://purl.org/dc/dcmitype/StillImage"/>
    <dc:date>2023-01-11T15:36:51.054356</dc:date>
    <dc:format>image/svg+xml</dc:format>
    <dc:creator>
     <cc:Agent>
      <dc:title>Matplotlib v3.5.2, https://matplotlib.org/</dc:title>
     </cc:Agent>
    </dc:creator>
   </cc:Work>
  </rdf:RDF>
 </metadata>
 <defs>
  <style type="text/css">*{stroke-linejoin: round; stroke-linecap: butt}</style>
 </defs>
 <g id="figure_1">
  <g id="patch_1">
   <path d="M 0 288 
L 432 288 
L 432 0 
L 0 0 
z
" style="fill: #ffffff"/>
  </g>
  <g id="axes_1">
   <g id="patch_2">
    <path d="M 54 252 
L 388.8 252 
L 388.8 34.56 
L 54 34.56 
z
" style="fill: #ffffff"/>
   </g>
   <g id="PolyCollection_1">
    <defs>
     <path id="m95029fe5e6" d="M 69.218182 -71.953346 
L 69.218182 -71.953346 
L 74.376888 -33.019729 
L 79.535593 -102.801885 
L 84.694299 -50.461378 
L 89.853005 -81.348117 
L 95.01171 -227.6938 
L 100.170416 -232.157359 
L 105.329122 -232.166395 
L 110.487827 -232.75122 
L 115.646533 -198.824477 
L 120.805239 -232.167669 
L 125.963945 -153.50176 
L 131.12265 -220.22049 
L 136.281356 -206.749833 
L 141.440062 -207.472704 
L 146.598767 -207.329891 
L 151.757473 -207.472704 
L 156.916179 -232.617852 
L 162.074884 -232.617852 
L 167.23359 -232.157359 
L 172.392296 -232.167669 
L 177.551002 -232.752502 
L 182.709707 -232.609367 
L 187.868413 -232.167669 
L 193.027119 -232.157359 
L 198.185824 -232.313761 
L 203.34453 -232.157359 
L 208.503236 -232.324077 
L 213.661941 -232.157359 
L 218.820647 -232.382057 
L 223.979353 -232.382057 
L 229.138059 -232.538088 
L 234.296764 -232.382057 
L 239.45547 -232.371754 
L 244.614176 -232.752387 
L 249.772881 -232.760868 
L 254.931587 -232.760868 
L 260.090293 -232.894734 
L 265.248998 -232.903219 
L 270.407704 -232.752387 
L 275.56641 -232.760868 
L 280.725116 -232.903219 
L 285.883821 -232.760868 
L 291.042527 -232.894734 
L 296.201233 -232.894734 
L 301.359938 -232.527779 
L 306.518644 -232.371754 
L 311.67735 -232.527779 
L 316.836055 -232.371754 
L 321.994761 -231.413648 
L 327.153467 -231.413648 
L 332.312173 -231.204591 
L 337.470878 -231.413648 
L 342.629584 -231.413648 
L 347.78829 -231.204591 
L 352.946995 -231.042229 
L 358.105701 -231.042229 
L 363.264407 -231.413648 
L 368.423112 -231.042229 
L 373.581818 -231.254292 
L 373.581818 -231.254292 
L 373.581818 -231.254292 
L 368.423112 -231.042229 
L 363.264407 -231.413648 
L 358.105701 -231.042229 
L 352.946995 -231.042229 
L 347.78829 -231.204591 
L 342.629584 -231.413648 
L 337.470878 -231.413648 
L 332.312173 -231.204591 
L 327.153467 -231.413648 
L 321.994761 -231.413648 
L 316.836055 -232.371754 
L 311.67735 -232.527779 
L 306.518644 -232.371754 
L 301.359938 -232.527779 
L 296.201233 -232.894734 
L 291.042527 -232.894734 
L 285.883821 -232.760868 
L 280.725116 -232.903219 
L 275.56641 -232.760868 
L 270.407704 -232.752387 
L 265.248998 -232.903219 
L 260.090293 -232.894734 
L 254.931587 -232.760868 
L 249.772881 -232.760868 
L 244.614176 -232.752387 
L 239.45547 -232.371754 
L 234.296764 -232.382057 
L 229.138059 -232.538088 
L 223.979353 -232.382057 
L 218.820647 -232.382057 
L 213.661941 -232.157359 
L 208.503236 -232.324077 
L 203.34453 -232.157359 
L 198.185824 -232.313761 
L 193.027119 -232.157359 
L 187.868413 -232.167669 
L 182.709707 -232.609367 
L 177.551002 -232.752502 
L 172.392296 -232.167669 
L 167.23359 -232.157359 
L 162.074884 -232.617852 
L 156.916179 -232.617852 
L 151.757473 -207.472704 
L 146.598767 -207.329891 
L 141.440062 -207.472704 
L 136.281356 -206.749833 
L 131.12265 -220.22049 
L 125.963945 -153.50176 
L 120.805239 -232.167669 
L 115.646533 -198.824477 
L 110.487827 -232.75122 
L 105.329122 -232.166395 
L 100.170416 -232.157359 
L 95.01171 -227.6938 
L 89.853005 -81.348117 
L 84.694299 -50.461378 
L 79.535593 -102.801885 
L 74.376888 -33.019729 
L 69.218182 -71.953346 
z
" style="stroke: #9d02d7; stroke-opacity: 0.2"/>
    </defs>
    <g clip-path="url(#p765359ef2c)">
     <use xlink:href="#m95029fe5e6" x="0" y="288" style="fill: #9d02d7; fill-opacity: 0.2; stroke: #9d02d7; stroke-opacity: 0.2"/>
    </g>
   </g>
   <g id="PolyCollection_2">
    <defs>
     <path id="m4c62c6ace1" d="M 69.218182 -28.498214 
L 69.218182 -28.498214 
L 74.376888 -25.19318 
L 79.535593 -34.839796 
L 84.694299 -184.546233 
L 89.853005 -241.809309 
L 95.01171 -230.769848 
L 100.170416 -230.766987 
L 105.329122 -231.485371 
L 110.487827 -241.762987 
L 115.646533 -240.447605 
L 120.805239 -238.662438 
L 125.963945 -240.245519 
L 131.12265 -239.165598 
L 136.281356 -240.319673 
L 141.440062 -223.564633 
L 146.598767 -193.70293 
L 151.757473 -240.378937 
L 156.916179 -240.066981 
L 162.074884 -239.699976 
L 167.23359 -240.191767 
L 172.392296 -239.703188 
L 177.551002 -240.191273 
L 182.709707 -202.088251 
L 187.868413 -237.770317 
L 193.027119 -239.668584 
L 198.185824 -240.067385 
L 203.34453 -240.25617 
L 208.503236 -240.133872 
L 213.661941 -240.260204 
L 218.820647 -243.116941 
L 223.979353 -244.446153 
L 229.138059 -244.444417 
L 234.296764 -244.382611 
L 239.45547 -244.379731 
L 244.614176 -244.572882 
L 249.772881 -244.417725 
L 254.931587 -244.383254 
L 260.090293 -244.421886 
L 265.248998 -244.379916 
L 270.407704 -240.579098 
L 275.56641 -240.324588 
L 280.725116 -240.513158 
L 285.883821 -240.575608 
L 291.042527 -240.453194 
L 296.201233 -240.551612 
L 301.359938 -240.706818 
L 306.518644 -244.421697 
L 311.67735 -244.562984 
L 316.836055 -244.442416 
L 321.994761 -244.444853 
L 327.153467 -244.573106 
L 332.312173 -244.574211 
L 337.470878 -244.421021 
L 342.629584 -244.445103 
L 347.78829 -244.409004 
L 352.946995 -244.380858 
L 358.105701 -244.383265 
L 363.264407 -244.382738 
L 368.423112 -244.379291 
L 373.581818 -244.571626 
L 373.581818 -244.571626 
L 373.581818 -244.571626 
L 368.423112 -244.379291 
L 363.264407 -244.382738 
L 358.105701 -244.383265 
L 352.946995 -244.380858 
L 347.78829 -244.409004 
L 342.629584 -244.445103 
L 337.470878 -244.421021 
L 332.312173 -244.574211 
L 327.153467 -244.573106 
L 321.994761 -244.444853 
L 316.836055 -244.442416 
L 311.67735 -244.562984 
L 306.518644 -244.421697 
L 301.359938 -240.706818 
L 296.201233 -240.551612 
L 291.042527 -240.453194 
L 285.883821 -240.575608 
L 280.725116 -240.513158 
L 275.56641 -240.324588 
L 270.407704 -240.579098 
L 265.248998 -244.379916 
L 260.090293 -244.421886 
L 254.931587 -244.383254 
L 249.772881 -244.417725 
L 244.614176 -244.572882 
L 239.45547 -244.379731 
L 234.296764 -244.382611 
L 229.138059 -244.444417 
L 223.979353 -244.446153 
L 218.820647 -243.116941 
L 213.661941 -240.260204 
L 208.503236 -240.133872 
L 203.34453 -240.25617 
L 198.185824 -240.067385 
L 193.027119 -239.668584 
L 187.868413 -237.770317 
L 182.709707 -202.088251 
L 177.551002 -240.191273 
L 172.392296 -239.703188 
L 167.23359 -240.191767 
L 162.074884 -239.699976 
L 156.916179 -240.066981 
L 151.757473 -240.378937 
L 146.598767 -193.70293 
L 141.440062 -223.564633 
L 136.281356 -240.319673 
L 131.12265 -239.165598 
L 125.963945 -240.245519 
L 120.805239 -238.662438 
L 115.646533 -240.447605 
L 110.487827 -241.762987 
L 105.329122 -231.485371 
L 100.170416 -230.766987 
L 95.01171 -230.769848 
L 89.853005 -241.809309 
L 84.694299 -184.546233 
L 79.535593 -34.839796 
L 74.376888 -25.19318 
L 69.218182 -28.498214 
z
" style="stroke: #0000ff; stroke-opacity: 0.2"/>
    </defs>
    <g clip-path="url(#p765359ef2c)">
     <use xlink:href="#m4c62c6ace1" x="0" y="288" style="fill: #0000ff; fill-opacity: 0.2; stroke: #0000ff; stroke-opacity: 0.2"/>
    </g>
   </g>
   <g id="PolyCollection_3">
    <defs>
     <path id="m005e70d78e" d="M 69.218182 -33.255177 
L 69.218182 -33.255177 
L 74.376888 -24.051789 
L 79.535593 -32.503025 
L 84.694299 -31.672106 
L 89.853005 -184.383095 
L 95.01171 -163.180565 
L 100.170416 -192.121931 
L 105.329122 -207.322643 
L 110.487827 -190.023005 
L 115.646533 -200.478692 
L 120.805239 -201.610197 
L 125.963945 -216.528245 
L 131.12265 -201.824506 
L 136.281356 -200.841027 
L 141.440062 -222.365493 
L 146.598767 -199.389781 
L 151.757473 -214.53678 
L 156.916179 -200.189885 
L 162.074884 -195.951611 
L 167.23359 -201.343582 
L 172.392296 -195.024574 
L 177.551002 -214.604078 
L 182.709707 -214.604078 
L 187.868413 -211.833091 
L 193.027119 -214.604078 
L 198.185824 -214.604078 
L 203.34453 -214.854893 
L 208.503236 -214.854893 
L 213.661941 -214.604078 
L 218.820647 -214.604078 
L 223.979353 -214.604078 
L 229.138059 -214.604078 
L 234.296764 -214.604078 
L 239.45547 -211.833091 
L 244.614176 -214.604078 
L 249.772881 -211.833091 
L 254.931587 -211.833091 
L 260.090293 -214.604078 
L 265.248998 -214.452837 
L 270.407704 -214.452837 
L 275.56641 -214.452837 
L 280.725116 -214.604078 
L 285.883821 -214.604078 
L 291.042527 -214.854893 
L 296.201233 -214.854893 
L 301.359938 -214.595082 
L 306.518644 -214.595082 
L 311.67735 -214.595082 
L 316.836055 -214.595082 
L 321.994761 -214.595082 
L 327.153467 -214.595082 
L 332.312173 -214.595082 
L 337.470878 -214.595082 
L 342.629584 -214.595082 
L 347.78829 -214.595082 
L 352.946995 -214.595082 
L 358.105701 -214.595082 
L 363.264407 -214.595082 
L 368.423112 -211.791324 
L 373.581818 -211.791324 
L 373.581818 -211.791324 
L 373.581818 -211.791324 
L 368.423112 -211.791324 
L 363.264407 -214.595082 
L 358.105701 -214.595082 
L 352.946995 -214.595082 
L 347.78829 -214.595082 
L 342.629584 -214.595082 
L 337.470878 -214.595082 
L 332.312173 -214.595082 
L 327.153467 -214.595082 
L 321.994761 -214.595082 
L 316.836055 -214.595082 
L 311.67735 -214.595082 
L 306.518644 -214.595082 
L 301.359938 -214.595082 
L 296.201233 -214.854893 
L 291.042527 -214.854893 
L 285.883821 -214.604078 
L 280.725116 -214.604078 
L 275.56641 -214.452837 
L 270.407704 -214.452837 
L 265.248998 -214.452837 
L 260.090293 -214.604078 
L 254.931587 -211.833091 
L 249.772881 -211.833091 
L 244.614176 -214.604078 
L 239.45547 -211.833091 
L 234.296764 -214.604078 
L 229.138059 -214.604078 
L 223.979353 -214.604078 
L 218.820647 -214.604078 
L 213.661941 -214.604078 
L 208.503236 -214.854893 
L 203.34453 -214.854893 
L 198.185824 -214.604078 
L 193.027119 -214.604078 
L 187.868413 -211.833091 
L 182.709707 -214.604078 
L 177.551002 -214.604078 
L 172.392296 -195.024574 
L 167.23359 -201.343582 
L 162.074884 -195.951611 
L 156.916179 -200.189885 
L 151.757473 -214.53678 
L 146.598767 -199.389781 
L 141.440062 -222.365493 
L 136.281356 -200.841027 
L 131.12265 -201.824506 
L 125.963945 -216.528245 
L 120.805239 -201.610197 
L 115.646533 -200.478692 
L 110.487827 -190.023005 
L 105.329122 -207.322643 
L 100.170416 -192.121931 
L 95.01171 -163.180565 
L 89.853005 -184.383095 
L 84.694299 -31.672106 
L 79.535593 -32.503025 
L 74.376888 -24.051789 
L 69.218182 -33.255177 
z
" style="stroke: #ff7763; stroke-opacity: 0.2"/>
    </defs>
    <g clip-path="url(#p765359ef2c)">
     <use xlink:href="#m005e70d78e" x="0" y="288" style="fill: #ff7763; fill-opacity: 0.2; stroke: #ff7763; stroke-opacity: 0.2"/>
    </g>
   </g>
   <g id="PolyCollection_4">
    <defs>
     <path id="m893b327f2a" d="M 69.218182 -34.918368 
L 69.218182 -34.918368 
L 74.376888 -39.816493 
L 79.535593 -89.485231 
L 84.694299 -39.744183 
L 89.853005 -77.964373 
L 95.01171 -185.381497 
L 100.170416 -183.600215 
L 105.329122 -197.380512 
L 110.487827 -201.324935 
L 115.646533 -229.870257 
L 120.805239 -203.019667 
L 125.963945 -203.019667 
L 131.12265 -203.540908 
L 136.281356 -230.391508 
L 141.440062 -229.38856 
L 146.598767 -229.29085 
L 151.757473 -223.472587 
L 156.916179 -223.913713 
L 162.074884 -223.472587 
L 167.23359 -223.913713 
L 172.392296 -229.29085 
L 177.551002 -229.29085 
L 182.709707 -229.29085 
L 187.868413 -222.910344 
L 193.027119 -223.913713 
L 198.185824 -223.472587 
L 203.34453 -222.392187 
L 208.503236 -222.392187 
L 213.661941 -222.392187 
L 218.820647 -222.910344 
L 223.979353 -222.910344 
L 229.138059 -222.910344 
L 234.296764 -224.784783 
L 239.45547 -224.230312 
L 244.614176 -223.472587 
L 249.772881 -223.718147 
L 254.931587 -223.718147 
L 260.090293 -224.230312 
L 265.248998 -225.220382 
L 270.407704 -223.71812 
L 275.56641 -223.718126 
L 280.725116 -224.784756 
L 285.883821 -229.87023 
L 291.042527 -229.87023 
L 296.201233 -223.71812 
L 301.359938 -229.870223 
L 306.518644 -229.388533 
L 311.67735 -229.388533 
L 316.836055 -230.801819 
L 321.994761 -230.801819 
L 327.153467 -229.87023 
L 332.312173 -230.391474 
L 337.470878 -230.801812 
L 342.629584 -229.388526 
L 347.78829 -229.388526 
L 352.946995 -229.870223 
L 358.105701 -229.388526 
L 363.264407 -230.801819 
L 368.423112 -229.388526 
L 373.581818 -229.388533 
L 373.581818 -229.388533 
L 373.581818 -229.388533 
L 368.423112 -229.388526 
L 363.264407 -230.801819 
L 358.105701 -229.388526 
L 352.946995 -229.870223 
L 347.78829 -229.388526 
L 342.629584 -229.388526 
L 337.470878 -230.801812 
L 332.312173 -230.391474 
L 327.153467 -229.87023 
L 321.994761 -230.801819 
L 316.836055 -230.801819 
L 311.67735 -229.388533 
L 306.518644 -229.388533 
L 301.359938 -229.870223 
L 296.201233 -223.71812 
L 291.042527 -229.87023 
L 285.883821 -229.87023 
L 280.725116 -224.784756 
L 275.56641 -223.718126 
L 270.407704 -223.71812 
L 265.248998 -225.220382 
L 260.090293 -224.230312 
L 254.931587 -223.718147 
L 249.772881 -223.718147 
L 244.614176 -223.472587 
L 239.45547 -224.230312 
L 234.296764 -224.784783 
L 229.138059 -222.910344 
L 223.979353 -222.910344 
L 218.820647 -222.910344 
L 213.661941 -222.392187 
L 208.503236 -222.392187 
L 203.34453 -222.392187 
L 198.185824 -223.472587 
L 193.027119 -223.913713 
L 187.868413 -222.910344 
L 182.709707 -229.29085 
L 177.551002 -229.29085 
L 172.392296 -229.29085 
L 167.23359 -223.913713 
L 162.074884 -223.472587 
L 156.916179 -223.913713 
L 151.757473 -223.472587 
L 146.598767 -229.29085 
L 141.440062 -229.38856 
L 136.281356 -230.391508 
L 131.12265 -203.540908 
L 125.963945 -203.019667 
L 120.805239 -203.019667 
L 115.646533 -229.870257 
L 110.487827 -201.324935 
L 105.329122 -197.380512 
L 100.170416 -183.600215 
L 95.01171 -185.381497 
L 89.853005 -77.964373 
L 84.694299 -39.744183 
L 79.535593 -89.485231 
L 74.376888 -39.816493 
L 69.218182 -34.918368 
z
" style="stroke: #ffac1e; stroke-opacity: 0.2"/>
    </defs>
    <g clip-path="url(#p765359ef2c)">
     <use xlink:href="#m893b327f2a" x="0" y="288" style="fill: #ffac1e; fill-opacity: 0.2; stroke: #ffac1e; stroke-opacity: 0.2"/>
    </g>
   </g>
   <g id="PolyCollection_5">
    <defs>
     <path id="ma26bbeaf36" d="M 69.218182 -35.091182 
L 69.218182 -35.091182 
L 74.376888 -62.439542 
L 79.535593 -27.058418 
L 84.694299 -191.226962 
L 89.853005 -209.728161 
L 95.01171 -218.29532 
L 100.170416 -208.833553 
L 105.329122 -229.849026 
L 110.487827 -231.412016 
L 115.646533 -239.404896 
L 120.805239 -236.416723 
L 125.963945 -236.995952 
L 131.12265 -233.012701 
L 136.281356 -235.577352 
L 141.440062 -227.220912 
L 146.598767 -235.576564 
L 151.757473 -238.844317 
L 156.916179 -236.416747 
L 162.074884 -227.220629 
L 167.23359 -227.865688 
L 172.392296 -236.995738 
L 177.551002 -204.248085 
L 182.709707 -236.417012 
L 187.868413 -239.728713 
L 193.027119 -236.054412 
L 198.185824 -236.054714 
L 203.34453 -228.065592 
L 208.503236 -233.021905 
L 213.661941 -239.917757 
L 218.820647 -239.917432 
L 223.979353 -239.916871 
L 229.138059 -239.916871 
L 234.296764 -239.625603 
L 239.45547 -239.625603 
L 244.614176 -239.625603 
L 249.772881 -239.625603 
L 254.931587 -239.625603 
L 260.090293 -239.626367 
L 265.248998 -239.626367 
L 270.407704 -239.626367 
L 275.56641 -239.626367 
L 280.725116 -239.626367 
L 285.883821 -239.916871 
L 291.042527 -239.916871 
L 296.201233 -239.916871 
L 301.359938 -239.916871 
L 306.518644 -239.916871 
L 311.67735 -239.916871 
L 316.836055 -239.916871 
L 321.994761 -239.625603 
L 327.153467 -239.916871 
L 332.312173 -239.625603 
L 337.470878 -239.625603 
L 342.629584 -239.625603 
L 347.78829 -239.625603 
L 352.946995 -239.625603 
L 358.105701 -239.625603 
L 363.264407 -239.625603 
L 368.423112 -239.625603 
L 373.581818 -239.625603 
L 373.581818 -239.625603 
L 373.581818 -239.625603 
L 368.423112 -239.625603 
L 363.264407 -239.625603 
L 358.105701 -239.625603 
L 352.946995 -239.625603 
L 347.78829 -239.625603 
L 342.629584 -239.625603 
L 337.470878 -239.625603 
L 332.312173 -239.625603 
L 327.153467 -239.916871 
L 321.994761 -239.625603 
L 316.836055 -239.916871 
L 311.67735 -239.916871 
L 306.518644 -239.916871 
L 301.359938 -239.916871 
L 296.201233 -239.916871 
L 291.042527 -239.916871 
L 285.883821 -239.916871 
L 280.725116 -239.626367 
L 275.56641 -239.626367 
L 270.407704 -239.626367 
L 265.248998 -239.626367 
L 260.090293 -239.626367 
L 254.931587 -239.625603 
L 249.772881 -239.625603 
L 244.614176 -239.625603 
L 239.45547 -239.625603 
L 234.296764 -239.625603 
L 229.138059 -239.916871 
L 223.979353 -239.916871 
L 218.820647 -239.917432 
L 213.661941 -239.917757 
L 208.503236 -233.021905 
L 203.34453 -228.065592 
L 198.185824 -236.054714 
L 193.027119 -236.054412 
L 187.868413 -239.728713 
L 182.709707 -236.417012 
L 177.551002 -204.248085 
L 172.392296 -236.995738 
L 167.23359 -227.865688 
L 162.074884 -227.220629 
L 156.916179 -236.416747 
L 151.757473 -238.844317 
L 146.598767 -235.576564 
L 141.440062 -227.220912 
L 136.281356 -235.577352 
L 131.12265 -233.012701 
L 125.963945 -236.995952 
L 120.805239 -236.416723 
L 115.646533 -239.404896 
L 110.487827 -231.412016 
L 105.329122 -229.849026 
L 100.170416 -208.833553 
L 95.01171 -218.29532 
L 89.853005 -209.728161 
L 84.694299 -191.226962 
L 79.535593 -27.058418 
L 74.376888 -62.439542 
L 69.218182 -35.091182 
z
" style="stroke: #009435; stroke-opacity: 0.2"/>
    </defs>
    <g clip-path="url(#p765359ef2c)">
     <use xlink:href="#ma26bbeaf36" x="0" y="288" style="fill: #009435; fill-opacity: 0.2; stroke: #009435; stroke-opacity: 0.2"/>
    </g>
   </g>
   <g id="matplotlib.axis_1">
    <g id="xtick_1">
     <g id="line2d_1">
      <path d="M 69.218182 252 
L 69.218182 34.56 
" clip-path="url(#p765359ef2c)" style="fill: none; stroke-dasharray: 2.96,1.28; stroke-dashoffset: 0; stroke: #b0b0b0; stroke-width: 0.8"/>
     </g>
     <g id="line2d_2">
      <defs>
       <path id="m4a59655b12" d="M 0 0 
L 0 3.5 
" style="stroke: #000000; stroke-width: 0.8"/>
      </defs>
      <g>
       <use xlink:href="#m4a59655b12" x="69.218182" y="252" style="stroke: #000000; stroke-width: 0.8"/>
      </g>
     </g>
     <g id="text_1">
      <!-- 0 -->
      <g transform="translate(66.036932 266.598437)scale(0.1 -0.1)">
       <defs>
        <path id="DejaVuSans-30" d="M 2034 4250 
Q 1547 4250 1301 3770 
Q 1056 3291 1056 2328 
Q 1056 1369 1301 889 
Q 1547 409 2034 409 
Q 2525 409 2770 889 
Q 3016 1369 3016 2328 
Q 3016 3291 2770 3770 
Q 2525 4250 2034 4250 
z
M 2034 4750 
Q 2819 4750 3233 4129 
Q 3647 3509 3647 2328 
Q 3647 1150 3233 529 
Q 2819 -91 2034 -91 
Q 1250 -91 836 529 
Q 422 1150 422 2328 
Q 422 3509 836 4129 
Q 1250 4750 2034 4750 
z
" transform="scale(0.015625)"/>
       </defs>
       <use xlink:href="#DejaVuSans-30"/>
      </g>
     </g>
    </g>
    <g id="xtick_2">
     <g id="line2d_3">
      <path d="M 120.805239 252 
L 120.805239 34.56 
" clip-path="url(#p765359ef2c)" style="fill: none; stroke-dasharray: 2.96,1.28; stroke-dashoffset: 0; stroke: #b0b0b0; stroke-width: 0.8"/>
     </g>
     <g id="line2d_4">
      <g>
       <use xlink:href="#m4a59655b12" x="120.805239" y="252" style="stroke: #000000; stroke-width: 0.8"/>
      </g>
     </g>
     <g id="text_2">
      <!-- 500 -->
      <g transform="translate(111.261489 266.598437)scale(0.1 -0.1)">
       <defs>
        <path id="DejaVuSans-35" d="M 691 4666 
L 3169 4666 
L 3169 4134 
L 1269 4134 
L 1269 2991 
Q 1406 3038 1543 3061 
Q 1681 3084 1819 3084 
Q 2600 3084 3056 2656 
Q 3513 2228 3513 1497 
Q 3513 744 3044 326 
Q 2575 -91 1722 -91 
Q 1428 -91 1123 -41 
Q 819 9 494 109 
L 494 744 
Q 775 591 1075 516 
Q 1375 441 1709 441 
Q 2250 441 2565 725 
Q 2881 1009 2881 1497 
Q 2881 1984 2565 2268 
Q 2250 2553 1709 2553 
Q 1456 2553 1204 2497 
Q 953 2441 691 2322 
L 691 4666 
z
" transform="scale(0.015625)"/>
       </defs>
       <use xlink:href="#DejaVuSans-35"/>
       <use xlink:href="#DejaVuSans-30" x="63.623047"/>
       <use xlink:href="#DejaVuSans-30" x="127.246094"/>
      </g>
     </g>
    </g>
    <g id="xtick_3">
     <g id="line2d_5">
      <path d="M 172.392296 252 
L 172.392296 34.56 
" clip-path="url(#p765359ef2c)" style="fill: none; stroke-dasharray: 2.96,1.28; stroke-dashoffset: 0; stroke: #b0b0b0; stroke-width: 0.8"/>
     </g>
     <g id="line2d_6">
      <g>
       <use xlink:href="#m4a59655b12" x="172.392296" y="252" style="stroke: #000000; stroke-width: 0.8"/>
      </g>
     </g>
     <g id="text_3">
      <!-- 1000 -->
      <g transform="translate(159.667296 266.598437)scale(0.1 -0.1)">
       <defs>
        <path id="DejaVuSans-31" d="M 794 531 
L 1825 531 
L 1825 4091 
L 703 3866 
L 703 4441 
L 1819 4666 
L 2450 4666 
L 2450 531 
L 3481 531 
L 3481 0 
L 794 0 
L 794 531 
z
" transform="scale(0.015625)"/>
       </defs>
       <use xlink:href="#DejaVuSans-31"/>
       <use xlink:href="#DejaVuSans-30" x="63.623047"/>
       <use xlink:href="#DejaVuSans-30" x="127.246094"/>
       <use xlink:href="#DejaVuSans-30" x="190.869141"/>
      </g>
     </g>
    </g>
    <g id="xtick_4">
     <g id="line2d_7">
      <path d="M 223.979353 252 
L 223.979353 34.56 
" clip-path="url(#p765359ef2c)" style="fill: none; stroke-dasharray: 2.96,1.28; stroke-dashoffset: 0; stroke: #b0b0b0; stroke-width: 0.8"/>
     </g>
     <g id="line2d_8">
      <g>
       <use xlink:href="#m4a59655b12" x="223.979353" y="252" style="stroke: #000000; stroke-width: 0.8"/>
      </g>
     </g>
     <g id="text_4">
      <!-- 1500 -->
      <g transform="translate(211.254353 266.598437)scale(0.1 -0.1)">
       <use xlink:href="#DejaVuSans-31"/>
       <use xlink:href="#DejaVuSans-35" x="63.623047"/>
       <use xlink:href="#DejaVuSans-30" x="127.246094"/>
       <use xlink:href="#DejaVuSans-30" x="190.869141"/>
      </g>
     </g>
    </g>
    <g id="xtick_5">
     <g id="line2d_9">
      <path d="M 275.56641 252 
L 275.56641 34.56 
" clip-path="url(#p765359ef2c)" style="fill: none; stroke-dasharray: 2.96,1.28; stroke-dashoffset: 0; stroke: #b0b0b0; stroke-width: 0.8"/>
     </g>
     <g id="line2d_10">
      <g>
       <use xlink:href="#m4a59655b12" x="275.56641" y="252" style="stroke: #000000; stroke-width: 0.8"/>
      </g>
     </g>
     <g id="text_5">
      <!-- 2000 -->
      <g transform="translate(262.84141 266.598437)scale(0.1 -0.1)">
       <defs>
        <path id="DejaVuSans-32" d="M 1228 531 
L 3431 531 
L 3431 0 
L 469 0 
L 469 531 
Q 828 903 1448 1529 
Q 2069 2156 2228 2338 
Q 2531 2678 2651 2914 
Q 2772 3150 2772 3378 
Q 2772 3750 2511 3984 
Q 2250 4219 1831 4219 
Q 1534 4219 1204 4116 
Q 875 4013 500 3803 
L 500 4441 
Q 881 4594 1212 4672 
Q 1544 4750 1819 4750 
Q 2544 4750 2975 4387 
Q 3406 4025 3406 3419 
Q 3406 3131 3298 2873 
Q 3191 2616 2906 2266 
Q 2828 2175 2409 1742 
Q 1991 1309 1228 531 
z
" transform="scale(0.015625)"/>
       </defs>
       <use xlink:href="#DejaVuSans-32"/>
       <use xlink:href="#DejaVuSans-30" x="63.623047"/>
       <use xlink:href="#DejaVuSans-30" x="127.246094"/>
       <use xlink:href="#DejaVuSans-30" x="190.869141"/>
      </g>
     </g>
    </g>
    <g id="xtick_6">
     <g id="line2d_11">
      <path d="M 327.153467 252 
L 327.153467 34.56 
" clip-path="url(#p765359ef2c)" style="fill: none; stroke-dasharray: 2.96,1.28; stroke-dashoffset: 0; stroke: #b0b0b0; stroke-width: 0.8"/>
     </g>
     <g id="line2d_12">
      <g>
       <use xlink:href="#m4a59655b12" x="327.153467" y="252" style="stroke: #000000; stroke-width: 0.8"/>
      </g>
     </g>
     <g id="text_6">
      <!-- 2500 -->
      <g transform="translate(314.428467 266.598437)scale(0.1 -0.1)">
       <use xlink:href="#DejaVuSans-32"/>
       <use xlink:href="#DejaVuSans-35" x="63.623047"/>
       <use xlink:href="#DejaVuSans-30" x="127.246094"/>
       <use xlink:href="#DejaVuSans-30" x="190.869141"/>
      </g>
     </g>
    </g>
    <g id="xtick_7">
     <g id="line2d_13">
      <path d="M 378.740524 252 
L 378.740524 34.56 
" clip-path="url(#p765359ef2c)" style="fill: none; stroke-dasharray: 2.96,1.28; stroke-dashoffset: 0; stroke: #b0b0b0; stroke-width: 0.8"/>
     </g>
     <g id="line2d_14">
      <g>
       <use xlink:href="#m4a59655b12" x="378.740524" y="252" style="stroke: #000000; stroke-width: 0.8"/>
      </g>
     </g>
     <g id="text_7">
      <!-- 3000 -->
      <g transform="translate(366.015524 266.598437)scale(0.1 -0.1)">
       <defs>
        <path id="DejaVuSans-33" d="M 2597 2516 
Q 3050 2419 3304 2112 
Q 3559 1806 3559 1356 
Q 3559 666 3084 287 
Q 2609 -91 1734 -91 
Q 1441 -91 1130 -33 
Q 819 25 488 141 
L 488 750 
Q 750 597 1062 519 
Q 1375 441 1716 441 
Q 2309 441 2620 675 
Q 2931 909 2931 1356 
Q 2931 1769 2642 2001 
Q 2353 2234 1838 2234 
L 1294 2234 
L 1294 2753 
L 1863 2753 
Q 2328 2753 2575 2939 
Q 2822 3125 2822 3475 
Q 2822 3834 2567 4026 
Q 2313 4219 1838 4219 
Q 1578 4219 1281 4162 
Q 984 4106 628 3988 
L 628 4550 
Q 988 4650 1302 4700 
Q 1616 4750 1894 4750 
Q 2613 4750 3031 4423 
Q 3450 4097 3450 3541 
Q 3450 3153 3228 2886 
Q 3006 2619 2597 2516 
z
" transform="scale(0.015625)"/>
       </defs>
       <use xlink:href="#DejaVuSans-33"/>
       <use xlink:href="#DejaVuSans-30" x="63.623047"/>
       <use xlink:href="#DejaVuSans-30" x="127.246094"/>
       <use xlink:href="#DejaVuSans-30" x="190.869141"/>
      </g>
     </g>
    </g>
    <g id="text_8">
     <!-- Steps -->
     <g transform="translate(207.410156 280.276563)scale(0.1 -0.1)">
      <defs>
       <path id="DejaVuSans-53" d="M 3425 4513 
L 3425 3897 
Q 3066 4069 2747 4153 
Q 2428 4238 2131 4238 
Q 1616 4238 1336 4038 
Q 1056 3838 1056 3469 
Q 1056 3159 1242 3001 
Q 1428 2844 1947 2747 
L 2328 2669 
Q 3034 2534 3370 2195 
Q 3706 1856 3706 1288 
Q 3706 609 3251 259 
Q 2797 -91 1919 -91 
Q 1588 -91 1214 -16 
Q 841 59 441 206 
L 441 856 
Q 825 641 1194 531 
Q 1563 422 1919 422 
Q 2459 422 2753 634 
Q 3047 847 3047 1241 
Q 3047 1584 2836 1778 
Q 2625 1972 2144 2069 
L 1759 2144 
Q 1053 2284 737 2584 
Q 422 2884 422 3419 
Q 422 4038 858 4394 
Q 1294 4750 2059 4750 
Q 2388 4750 2728 4690 
Q 3069 4631 3425 4513 
z
" transform="scale(0.015625)"/>
       <path id="DejaVuSans-74" d="M 1172 4494 
L 1172 3500 
L 2356 3500 
L 2356 3053 
L 1172 3053 
L 1172 1153 
Q 1172 725 1289 603 
Q 1406 481 1766 481 
L 2356 481 
L 2356 0 
L 1766 0 
Q 1100 0 847 248 
Q 594 497 594 1153 
L 594 3053 
L 172 3053 
L 172 3500 
L 594 3500 
L 594 4494 
L 1172 4494 
z
" transform="scale(0.015625)"/>
       <path id="DejaVuSans-65" d="M 3597 1894 
L 3597 1613 
L 953 1613 
Q 991 1019 1311 708 
Q 1631 397 2203 397 
Q 2534 397 2845 478 
Q 3156 559 3463 722 
L 3463 178 
Q 3153 47 2828 -22 
Q 2503 -91 2169 -91 
Q 1331 -91 842 396 
Q 353 884 353 1716 
Q 353 2575 817 3079 
Q 1281 3584 2069 3584 
Q 2775 3584 3186 3129 
Q 3597 2675 3597 1894 
z
M 3022 2063 
Q 3016 2534 2758 2815 
Q 2500 3097 2075 3097 
Q 1594 3097 1305 2825 
Q 1016 2553 972 2059 
L 3022 2063 
z
" transform="scale(0.015625)"/>
       <path id="DejaVuSans-70" d="M 1159 525 
L 1159 -1331 
L 581 -1331 
L 581 3500 
L 1159 3500 
L 1159 2969 
Q 1341 3281 1617 3432 
Q 1894 3584 2278 3584 
Q 2916 3584 3314 3078 
Q 3713 2572 3713 1747 
Q 3713 922 3314 415 
Q 2916 -91 2278 -91 
Q 1894 -91 1617 61 
Q 1341 213 1159 525 
z
M 3116 1747 
Q 3116 2381 2855 2742 
Q 2594 3103 2138 3103 
Q 1681 3103 1420 2742 
Q 1159 2381 1159 1747 
Q 1159 1113 1420 752 
Q 1681 391 2138 391 
Q 2594 391 2855 752 
Q 3116 1113 3116 1747 
z
" transform="scale(0.015625)"/>
       <path id="DejaVuSans-73" d="M 2834 3397 
L 2834 2853 
Q 2591 2978 2328 3040 
Q 2066 3103 1784 3103 
Q 1356 3103 1142 2972 
Q 928 2841 928 2578 
Q 928 2378 1081 2264 
Q 1234 2150 1697 2047 
L 1894 2003 
Q 2506 1872 2764 1633 
Q 3022 1394 3022 966 
Q 3022 478 2636 193 
Q 2250 -91 1575 -91 
Q 1294 -91 989 -36 
Q 684 19 347 128 
L 347 722 
Q 666 556 975 473 
Q 1284 391 1588 391 
Q 1994 391 2212 530 
Q 2431 669 2431 922 
Q 2431 1156 2273 1281 
Q 2116 1406 1581 1522 
L 1381 1569 
Q 847 1681 609 1914 
Q 372 2147 372 2553 
Q 372 3047 722 3315 
Q 1072 3584 1716 3584 
Q 2034 3584 2315 3537 
Q 2597 3491 2834 3397 
z
" transform="scale(0.015625)"/>
      </defs>
      <use xlink:href="#DejaVuSans-53"/>
      <use xlink:href="#DejaVuSans-74" x="63.476562"/>
      <use xlink:href="#DejaVuSans-65" x="102.685547"/>
      <use xlink:href="#DejaVuSans-70" x="164.208984"/>
      <use xlink:href="#DejaVuSans-73" x="227.685547"/>
     </g>
    </g>
   </g>
   <g id="matplotlib.axis_2">
    <g id="ytick_1">
     <g id="line2d_15">
      <path d="M 54 243.636923 
L 388.8 243.636923 
" clip-path="url(#p765359ef2c)" style="fill: none; stroke-dasharray: 2.96,1.28; stroke-dashoffset: 0; stroke: #b0b0b0; stroke-width: 0.8"/>
     </g>
     <g id="line2d_16">
      <defs>
       <path id="m79fb2da8f9" d="M 0 0 
L -3.5 0 
" style="stroke: #000000; stroke-width: 0.8"/>
      </defs>
      <g>
       <use xlink:href="#m79fb2da8f9" x="54" y="243.636923" style="stroke: #000000; stroke-width: 0.8"/>
      </g>
     </g>
     <g id="text_9">
      <!-- −12 -->
      <g transform="translate(25.895312 247.436142)scale(0.1 -0.1)">
       <defs>
        <path id="DejaVuSans-2212" d="M 678 2272 
L 4684 2272 
L 4684 1741 
L 678 1741 
L 678 2272 
z
" transform="scale(0.015625)"/>
       </defs>
       <use xlink:href="#DejaVuSans-2212"/>
       <use xlink:href="#DejaVuSans-31" x="83.789062"/>
       <use xlink:href="#DejaVuSans-32" x="147.412109"/>
      </g>
     </g>
    </g>
    <g id="ytick_2">
     <g id="line2d_17">
      <path d="M 54 210.184615 
L 388.8 210.184615 
" clip-path="url(#p765359ef2c)" style="fill: none; stroke-dasharray: 2.96,1.28; stroke-dashoffset: 0; stroke: #b0b0b0; stroke-width: 0.8"/>
     </g>
     <g id="line2d_18">
      <g>
       <use xlink:href="#m79fb2da8f9" x="54" y="210.184615" style="stroke: #000000; stroke-width: 0.8"/>
      </g>
     </g>
     <g id="text_10">
      <!-- −10 -->
      <g transform="translate(25.895312 213.983834)scale(0.1 -0.1)">
       <use xlink:href="#DejaVuSans-2212"/>
       <use xlink:href="#DejaVuSans-31" x="83.789062"/>
       <use xlink:href="#DejaVuSans-30" x="147.412109"/>
      </g>
     </g>
    </g>
    <g id="ytick_3">
     <g id="line2d_19">
      <path d="M 54 176.732308 
L 388.8 176.732308 
" clip-path="url(#p765359ef2c)" style="fill: none; stroke-dasharray: 2.96,1.28; stroke-dashoffset: 0; stroke: #b0b0b0; stroke-width: 0.8"/>
     </g>
     <g id="line2d_20">
      <g>
       <use xlink:href="#m79fb2da8f9" x="54" y="176.732308" style="stroke: #000000; stroke-width: 0.8"/>
      </g>
     </g>
     <g id="text_11">
      <!-- −8 -->
      <g transform="translate(32.257812 180.531526)scale(0.1 -0.1)">
       <defs>
        <path id="DejaVuSans-38" d="M 2034 2216 
Q 1584 2216 1326 1975 
Q 1069 1734 1069 1313 
Q 1069 891 1326 650 
Q 1584 409 2034 409 
Q 2484 409 2743 651 
Q 3003 894 3003 1313 
Q 3003 1734 2745 1975 
Q 2488 2216 2034 2216 
z
M 1403 2484 
Q 997 2584 770 2862 
Q 544 3141 544 3541 
Q 544 4100 942 4425 
Q 1341 4750 2034 4750 
Q 2731 4750 3128 4425 
Q 3525 4100 3525 3541 
Q 3525 3141 3298 2862 
Q 3072 2584 2669 2484 
Q 3125 2378 3379 2068 
Q 3634 1759 3634 1313 
Q 3634 634 3220 271 
Q 2806 -91 2034 -91 
Q 1263 -91 848 271 
Q 434 634 434 1313 
Q 434 1759 690 2068 
Q 947 2378 1403 2484 
z
M 1172 3481 
Q 1172 3119 1398 2916 
Q 1625 2713 2034 2713 
Q 2441 2713 2670 2916 
Q 2900 3119 2900 3481 
Q 2900 3844 2670 4047 
Q 2441 4250 2034 4250 
Q 1625 4250 1398 4047 
Q 1172 3844 1172 3481 
z
" transform="scale(0.015625)"/>
       </defs>
       <use xlink:href="#DejaVuSans-2212"/>
       <use xlink:href="#DejaVuSans-38" x="83.789062"/>
      </g>
     </g>
    </g>
    <g id="ytick_4">
     <g id="line2d_21">
      <path d="M 54 143.28 
L 388.8 143.28 
" clip-path="url(#p765359ef2c)" style="fill: none; stroke-dasharray: 2.96,1.28; stroke-dashoffset: 0; stroke: #b0b0b0; stroke-width: 0.8"/>
     </g>
     <g id="line2d_22">
      <g>
       <use xlink:href="#m79fb2da8f9" x="54" y="143.28" style="stroke: #000000; stroke-width: 0.8"/>
      </g>
     </g>
     <g id="text_12">
      <!-- −6 -->
      <g transform="translate(32.257812 147.079219)scale(0.1 -0.1)">
       <defs>
        <path id="DejaVuSans-36" d="M 2113 2584 
Q 1688 2584 1439 2293 
Q 1191 2003 1191 1497 
Q 1191 994 1439 701 
Q 1688 409 2113 409 
Q 2538 409 2786 701 
Q 3034 994 3034 1497 
Q 3034 2003 2786 2293 
Q 2538 2584 2113 2584 
z
M 3366 4563 
L 3366 3988 
Q 3128 4100 2886 4159 
Q 2644 4219 2406 4219 
Q 1781 4219 1451 3797 
Q 1122 3375 1075 2522 
Q 1259 2794 1537 2939 
Q 1816 3084 2150 3084 
Q 2853 3084 3261 2657 
Q 3669 2231 3669 1497 
Q 3669 778 3244 343 
Q 2819 -91 2113 -91 
Q 1303 -91 875 529 
Q 447 1150 447 2328 
Q 447 3434 972 4092 
Q 1497 4750 2381 4750 
Q 2619 4750 2861 4703 
Q 3103 4656 3366 4563 
z
" transform="scale(0.015625)"/>
       </defs>
       <use xlink:href="#DejaVuSans-2212"/>
       <use xlink:href="#DejaVuSans-36" x="83.789062"/>
      </g>
     </g>
    </g>
    <g id="ytick_5">
     <g id="line2d_23">
      <path d="M 54 109.827692 
L 388.8 109.827692 
" clip-path="url(#p765359ef2c)" style="fill: none; stroke-dasharray: 2.96,1.28; stroke-dashoffset: 0; stroke: #b0b0b0; stroke-width: 0.8"/>
     </g>
     <g id="line2d_24">
      <g>
       <use xlink:href="#m79fb2da8f9" x="54" y="109.827692" style="stroke: #000000; stroke-width: 0.8"/>
      </g>
     </g>
     <g id="text_13">
      <!-- −4 -->
      <g transform="translate(32.257812 113.626911)scale(0.1 -0.1)">
       <defs>
        <path id="DejaVuSans-34" d="M 2419 4116 
L 825 1625 
L 2419 1625 
L 2419 4116 
z
M 2253 4666 
L 3047 4666 
L 3047 1625 
L 3713 1625 
L 3713 1100 
L 3047 1100 
L 3047 0 
L 2419 0 
L 2419 1100 
L 313 1100 
L 313 1709 
L 2253 4666 
z
" transform="scale(0.015625)"/>
       </defs>
       <use xlink:href="#DejaVuSans-2212"/>
       <use xlink:href="#DejaVuSans-34" x="83.789062"/>
      </g>
     </g>
    </g>
    <g id="ytick_6">
     <g id="line2d_25">
      <path d="M 54 76.375385 
L 388.8 76.375385 
" clip-path="url(#p765359ef2c)" style="fill: none; stroke-dasharray: 2.96,1.28; stroke-dashoffset: 0; stroke: #b0b0b0; stroke-width: 0.8"/>
     </g>
     <g id="line2d_26">
      <g>
       <use xlink:href="#m79fb2da8f9" x="54" y="76.375385" style="stroke: #000000; stroke-width: 0.8"/>
      </g>
     </g>
     <g id="text_14">
      <!-- −2 -->
      <g transform="translate(32.257812 80.174603)scale(0.1 -0.1)">
       <use xlink:href="#DejaVuSans-2212"/>
       <use xlink:href="#DejaVuSans-32" x="83.789062"/>
      </g>
     </g>
    </g>
    <g id="ytick_7">
     <g id="line2d_27">
      <path d="M 54 42.923077 
L 388.8 42.923077 
" clip-path="url(#p765359ef2c)" style="fill: none; stroke-dasharray: 2.96,1.28; stroke-dashoffset: 0; stroke: #b0b0b0; stroke-width: 0.8"/>
     </g>
     <g id="line2d_28">
      <g>
       <use xlink:href="#m79fb2da8f9" x="54" y="42.923077" style="stroke: #000000; stroke-width: 0.8"/>
      </g>
     </g>
     <g id="text_15">
      <!-- 0 -->
      <g transform="translate(40.6375 46.722296)scale(0.1 -0.1)">
       <use xlink:href="#DejaVuSans-30"/>
      </g>
     </g>
    </g>
    <g id="text_16">
     <!-- Policy value error -->
     <g transform="translate(19.815625 186.597969)rotate(-90)scale(0.1 -0.1)">
      <defs>
       <path id="DejaVuSans-50" d="M 1259 4147 
L 1259 2394 
L 2053 2394 
Q 2494 2394 2734 2622 
Q 2975 2850 2975 3272 
Q 2975 3691 2734 3919 
Q 2494 4147 2053 4147 
L 1259 4147 
z
M 628 4666 
L 2053 4666 
Q 2838 4666 3239 4311 
Q 3641 3956 3641 3272 
Q 3641 2581 3239 2228 
Q 2838 1875 2053 1875 
L 1259 1875 
L 1259 0 
L 628 0 
L 628 4666 
z
" transform="scale(0.015625)"/>
       <path id="DejaVuSans-6f" d="M 1959 3097 
Q 1497 3097 1228 2736 
Q 959 2375 959 1747 
Q 959 1119 1226 758 
Q 1494 397 1959 397 
Q 2419 397 2687 759 
Q 2956 1122 2956 1747 
Q 2956 2369 2687 2733 
Q 2419 3097 1959 3097 
z
M 1959 3584 
Q 2709 3584 3137 3096 
Q 3566 2609 3566 1747 
Q 3566 888 3137 398 
Q 2709 -91 1959 -91 
Q 1206 -91 779 398 
Q 353 888 353 1747 
Q 353 2609 779 3096 
Q 1206 3584 1959 3584 
z
" transform="scale(0.015625)"/>
       <path id="DejaVuSans-6c" d="M 603 4863 
L 1178 4863 
L 1178 0 
L 603 0 
L 603 4863 
z
" transform="scale(0.015625)"/>
       <path id="DejaVuSans-69" d="M 603 3500 
L 1178 3500 
L 1178 0 
L 603 0 
L 603 3500 
z
M 603 4863 
L 1178 4863 
L 1178 4134 
L 603 4134 
L 603 4863 
z
" transform="scale(0.015625)"/>
       <path id="DejaVuSans-63" d="M 3122 3366 
L 3122 2828 
Q 2878 2963 2633 3030 
Q 2388 3097 2138 3097 
Q 1578 3097 1268 2742 
Q 959 2388 959 1747 
Q 959 1106 1268 751 
Q 1578 397 2138 397 
Q 2388 397 2633 464 
Q 2878 531 3122 666 
L 3122 134 
Q 2881 22 2623 -34 
Q 2366 -91 2075 -91 
Q 1284 -91 818 406 
Q 353 903 353 1747 
Q 353 2603 823 3093 
Q 1294 3584 2113 3584 
Q 2378 3584 2631 3529 
Q 2884 3475 3122 3366 
z
" transform="scale(0.015625)"/>
       <path id="DejaVuSans-79" d="M 2059 -325 
Q 1816 -950 1584 -1140 
Q 1353 -1331 966 -1331 
L 506 -1331 
L 506 -850 
L 844 -850 
Q 1081 -850 1212 -737 
Q 1344 -625 1503 -206 
L 1606 56 
L 191 3500 
L 800 3500 
L 1894 763 
L 2988 3500 
L 3597 3500 
L 2059 -325 
z
" transform="scale(0.015625)"/>
       <path id="DejaVuSans-20" transform="scale(0.015625)"/>
       <path id="DejaVuSans-76" d="M 191 3500 
L 800 3500 
L 1894 563 
L 2988 3500 
L 3597 3500 
L 2284 0 
L 1503 0 
L 191 3500 
z
" transform="scale(0.015625)"/>
       <path id="DejaVuSans-61" d="M 2194 1759 
Q 1497 1759 1228 1600 
Q 959 1441 959 1056 
Q 959 750 1161 570 
Q 1363 391 1709 391 
Q 2188 391 2477 730 
Q 2766 1069 2766 1631 
L 2766 1759 
L 2194 1759 
z
M 3341 1997 
L 3341 0 
L 2766 0 
L 2766 531 
Q 2569 213 2275 61 
Q 1981 -91 1556 -91 
Q 1019 -91 701 211 
Q 384 513 384 1019 
Q 384 1609 779 1909 
Q 1175 2209 1959 2209 
L 2766 2209 
L 2766 2266 
Q 2766 2663 2505 2880 
Q 2244 3097 1772 3097 
Q 1472 3097 1187 3025 
Q 903 2953 641 2809 
L 641 3341 
Q 956 3463 1253 3523 
Q 1550 3584 1831 3584 
Q 2591 3584 2966 3190 
Q 3341 2797 3341 1997 
z
" transform="scale(0.015625)"/>
       <path id="DejaVuSans-75" d="M 544 1381 
L 544 3500 
L 1119 3500 
L 1119 1403 
Q 1119 906 1312 657 
Q 1506 409 1894 409 
Q 2359 409 2629 706 
Q 2900 1003 2900 1516 
L 2900 3500 
L 3475 3500 
L 3475 0 
L 2900 0 
L 2900 538 
Q 2691 219 2414 64 
Q 2138 -91 1772 -91 
Q 1169 -91 856 284 
Q 544 659 544 1381 
z
M 1991 3584 
L 1991 3584 
z
" transform="scale(0.015625)"/>
       <path id="DejaVuSans-72" d="M 2631 2963 
Q 2534 3019 2420 3045 
Q 2306 3072 2169 3072 
Q 1681 3072 1420 2755 
Q 1159 2438 1159 1844 
L 1159 0 
L 581 0 
L 581 3500 
L 1159 3500 
L 1159 2956 
Q 1341 3275 1631 3429 
Q 1922 3584 2338 3584 
Q 2397 3584 2469 3576 
Q 2541 3569 2628 3553 
L 2631 2963 
z
" transform="scale(0.015625)"/>
      </defs>
      <use xlink:href="#DejaVuSans-50"/>
      <use xlink:href="#DejaVuSans-6f" x="56.677734"/>
      <use xlink:href="#DejaVuSans-6c" x="117.859375"/>
      <use xlink:href="#DejaVuSans-69" x="145.642578"/>
      <use xlink:href="#DejaVuSans-63" x="173.425781"/>
      <use xlink:href="#DejaVuSans-79" x="228.40625"/>
      <use xlink:href="#DejaVuSans-20" x="287.585938"/>
      <use xlink:href="#DejaVuSans-76" x="319.373047"/>
      <use xlink:href="#DejaVuSans-61" x="378.552734"/>
      <use xlink:href="#DejaVuSans-6c" x="439.832031"/>
      <use xlink:href="#DejaVuSans-75" x="467.615234"/>
      <use xlink:href="#DejaVuSans-65" x="530.994141"/>
      <use xlink:href="#DejaVuSans-20" x="592.517578"/>
      <use xlink:href="#DejaVuSans-65" x="624.304688"/>
      <use xlink:href="#DejaVuSans-72" x="685.828125"/>
      <use xlink:href="#DejaVuSans-72" x="725.191406"/>
      <use xlink:href="#DejaVuSans-6f" x="764.054688"/>
      <use xlink:href="#DejaVuSans-72" x="825.236328"/>
     </g>
    </g>
   </g>
   <g id="line2d_29">
    <path d="M 69.218182 216.046654 
L 74.376888 254.980271 
L 79.535593 185.198115 
L 84.694299 237.538622 
L 89.853005 206.651883 
L 95.01171 60.3062 
L 100.170416 55.842641 
L 105.329122 55.833605 
L 110.487827 55.24878 
L 115.646533 89.175523 
L 120.805239 55.832331 
L 125.963945 134.49824 
L 131.12265 67.77951 
L 136.281356 81.250167 
L 141.440062 80.527296 
L 146.598767 80.670109 
L 151.757473 80.527296 
L 156.916179 55.382148 
L 162.074884 55.382148 
L 167.23359 55.842641 
L 172.392296 55.832331 
L 177.551002 55.247498 
L 182.709707 55.390633 
L 187.868413 55.832331 
L 193.027119 55.842641 
L 198.185824 55.686239 
L 203.34453 55.842641 
L 208.503236 55.675923 
L 213.661941 55.842641 
L 218.820647 55.617943 
L 223.979353 55.617943 
L 229.138059 55.461912 
L 234.296764 55.617943 
L 239.45547 55.628246 
L 244.614176 55.247613 
L 249.772881 55.239132 
L 254.931587 55.239132 
L 260.090293 55.105266 
L 265.248998 55.096781 
L 270.407704 55.247613 
L 275.56641 55.239132 
L 280.725116 55.096781 
L 285.883821 55.239132 
L 291.042527 55.105266 
L 296.201233 55.105266 
L 301.359938 55.472221 
L 306.518644 55.628246 
L 311.67735 55.472221 
L 316.836055 55.628246 
L 321.994761 56.586352 
L 327.153467 56.586352 
L 332.312173 56.795409 
L 337.470878 56.586352 
L 342.629584 56.586352 
L 347.78829 56.795409 
L 352.946995 56.957771 
L 358.105701 56.957771 
L 363.264407 56.586352 
L 368.423112 56.957771 
L 373.581818 56.745708 
" clip-path="url(#p765359ef2c)" style="fill: none; stroke: #9d02d7; stroke-width: 1.5; stroke-linecap: square"/>
    <defs>
     <path id="m0c327bdabc" d="M 0 -2 
L -2 2 
L 2 2 
z
" style="stroke: #9d02d7; stroke-linejoin: miter"/>
    </defs>
    <g clip-path="url(#p765359ef2c)">
     <use xlink:href="#m0c327bdabc" x="69.218182" y="216.046654" style="fill: #9d02d7; stroke: #9d02d7; stroke-linejoin: miter"/>
     <use xlink:href="#m0c327bdabc" x="74.376888" y="254.980271" style="fill: #9d02d7; stroke: #9d02d7; stroke-linejoin: miter"/>
     <use xlink:href="#m0c327bdabc" x="79.535593" y="185.198115" style="fill: #9d02d7; stroke: #9d02d7; stroke-linejoin: miter"/>
     <use xlink:href="#m0c327bdabc" x="84.694299" y="237.538622" style="fill: #9d02d7; stroke: #9d02d7; stroke-linejoin: miter"/>
     <use xlink:href="#m0c327bdabc" x="89.853005" y="206.651883" style="fill: #9d02d7; stroke: #9d02d7; stroke-linejoin: miter"/>
     <use xlink:href="#m0c327bdabc" x="95.01171" y="60.3062" style="fill: #9d02d7; stroke: #9d02d7; stroke-linejoin: miter"/>
     <use xlink:href="#m0c327bdabc" x="100.170416" y="55.842641" style="fill: #9d02d7; stroke: #9d02d7; stroke-linejoin: miter"/>
     <use xlink:href="#m0c327bdabc" x="105.329122" y="55.833605" style="fill: #9d02d7; stroke: #9d02d7; stroke-linejoin: miter"/>
     <use xlink:href="#m0c327bdabc" x="110.487827" y="55.24878" style="fill: #9d02d7; stroke: #9d02d7; stroke-linejoin: miter"/>
     <use xlink:href="#m0c327bdabc" x="115.646533" y="89.175523" style="fill: #9d02d7; stroke: #9d02d7; stroke-linejoin: miter"/>
     <use xlink:href="#m0c327bdabc" x="120.805239" y="55.832331" style="fill: #9d02d7; stroke: #9d02d7; stroke-linejoin: miter"/>
     <use xlink:href="#m0c327bdabc" x="125.963945" y="134.49824" style="fill: #9d02d7; stroke: #9d02d7; stroke-linejoin: miter"/>
     <use xlink:href="#m0c327bdabc" x="131.12265" y="67.77951" style="fill: #9d02d7; stroke: #9d02d7; stroke-linejoin: miter"/>
     <use xlink:href="#m0c327bdabc" x="136.281356" y="81.250167" style="fill: #9d02d7; stroke: #9d02d7; stroke-linejoin: miter"/>
     <use xlink:href="#m0c327bdabc" x="141.440062" y="80.527296" style="fill: #9d02d7; stroke: #9d02d7; stroke-linejoin: miter"/>
     <use xlink:href="#m0c327bdabc" x="146.598767" y="80.670109" style="fill: #9d02d7; stroke: #9d02d7; stroke-linejoin: miter"/>
     <use xlink:href="#m0c327bdabc" x="151.757473" y="80.527296" style="fill: #9d02d7; stroke: #9d02d7; stroke-linejoin: miter"/>
     <use xlink:href="#m0c327bdabc" x="156.916179" y="55.382148" style="fill: #9d02d7; stroke: #9d02d7; stroke-linejoin: miter"/>
     <use xlink:href="#m0c327bdabc" x="162.074884" y="55.382148" style="fill: #9d02d7; stroke: #9d02d7; stroke-linejoin: miter"/>
     <use xlink:href="#m0c327bdabc" x="167.23359" y="55.842641" style="fill: #9d02d7; stroke: #9d02d7; stroke-linejoin: miter"/>
     <use xlink:href="#m0c327bdabc" x="172.392296" y="55.832331" style="fill: #9d02d7; stroke: #9d02d7; stroke-linejoin: miter"/>
     <use xlink:href="#m0c327bdabc" x="177.551002" y="55.247498" style="fill: #9d02d7; stroke: #9d02d7; stroke-linejoin: miter"/>
     <use xlink:href="#m0c327bdabc" x="182.709707" y="55.390633" style="fill: #9d02d7; stroke: #9d02d7; stroke-linejoin: miter"/>
     <use xlink:href="#m0c327bdabc" x="187.868413" y="55.832331" style="fill: #9d02d7; stroke: #9d02d7; stroke-linejoin: miter"/>
     <use xlink:href="#m0c327bdabc" x="193.027119" y="55.842641" style="fill: #9d02d7; stroke: #9d02d7; stroke-linejoin: miter"/>
     <use xlink:href="#m0c327bdabc" x="198.185824" y="55.686239" style="fill: #9d02d7; stroke: #9d02d7; stroke-linejoin: miter"/>
     <use xlink:href="#m0c327bdabc" x="203.34453" y="55.842641" style="fill: #9d02d7; stroke: #9d02d7; stroke-linejoin: miter"/>
     <use xlink:href="#m0c327bdabc" x="208.503236" y="55.675923" style="fill: #9d02d7; stroke: #9d02d7; stroke-linejoin: miter"/>
     <use xlink:href="#m0c327bdabc" x="213.661941" y="55.842641" style="fill: #9d02d7; stroke: #9d02d7; stroke-linejoin: miter"/>
     <use xlink:href="#m0c327bdabc" x="218.820647" y="55.617943" style="fill: #9d02d7; stroke: #9d02d7; stroke-linejoin: miter"/>
     <use xlink:href="#m0c327bdabc" x="223.979353" y="55.617943" style="fill: #9d02d7; stroke: #9d02d7; stroke-linejoin: miter"/>
     <use xlink:href="#m0c327bdabc" x="229.138059" y="55.461912" style="fill: #9d02d7; stroke: #9d02d7; stroke-linejoin: miter"/>
     <use xlink:href="#m0c327bdabc" x="234.296764" y="55.617943" style="fill: #9d02d7; stroke: #9d02d7; stroke-linejoin: miter"/>
     <use xlink:href="#m0c327bdabc" x="239.45547" y="55.628246" style="fill: #9d02d7; stroke: #9d02d7; stroke-linejoin: miter"/>
     <use xlink:href="#m0c327bdabc" x="244.614176" y="55.247613" style="fill: #9d02d7; stroke: #9d02d7; stroke-linejoin: miter"/>
     <use xlink:href="#m0c327bdabc" x="249.772881" y="55.239132" style="fill: #9d02d7; stroke: #9d02d7; stroke-linejoin: miter"/>
     <use xlink:href="#m0c327bdabc" x="254.931587" y="55.239132" style="fill: #9d02d7; stroke: #9d02d7; stroke-linejoin: miter"/>
     <use xlink:href="#m0c327bdabc" x="260.090293" y="55.105266" style="fill: #9d02d7; stroke: #9d02d7; stroke-linejoin: miter"/>
     <use xlink:href="#m0c327bdabc" x="265.248998" y="55.096781" style="fill: #9d02d7; stroke: #9d02d7; stroke-linejoin: miter"/>
     <use xlink:href="#m0c327bdabc" x="270.407704" y="55.247613" style="fill: #9d02d7; stroke: #9d02d7; stroke-linejoin: miter"/>
     <use xlink:href="#m0c327bdabc" x="275.56641" y="55.239132" style="fill: #9d02d7; stroke: #9d02d7; stroke-linejoin: miter"/>
     <use xlink:href="#m0c327bdabc" x="280.725116" y="55.096781" style="fill: #9d02d7; stroke: #9d02d7; stroke-linejoin: miter"/>
     <use xlink:href="#m0c327bdabc" x="285.883821" y="55.239132" style="fill: #9d02d7; stroke: #9d02d7; stroke-linejoin: miter"/>
     <use xlink:href="#m0c327bdabc" x="291.042527" y="55.105266" style="fill: #9d02d7; stroke: #9d02d7; stroke-linejoin: miter"/>
     <use xlink:href="#m0c327bdabc" x="296.201233" y="55.105266" style="fill: #9d02d7; stroke: #9d02d7; stroke-linejoin: miter"/>
     <use xlink:href="#m0c327bdabc" x="301.359938" y="55.472221" style="fill: #9d02d7; stroke: #9d02d7; stroke-linejoin: miter"/>
     <use xlink:href="#m0c327bdabc" x="306.518644" y="55.628246" style="fill: #9d02d7; stroke: #9d02d7; stroke-linejoin: miter"/>
     <use xlink:href="#m0c327bdabc" x="311.67735" y="55.472221" style="fill: #9d02d7; stroke: #9d02d7; stroke-linejoin: miter"/>
     <use xlink:href="#m0c327bdabc" x="316.836055" y="55.628246" style="fill: #9d02d7; stroke: #9d02d7; stroke-linejoin: miter"/>
     <use xlink:href="#m0c327bdabc" x="321.994761" y="56.586352" style="fill: #9d02d7; stroke: #9d02d7; stroke-linejoin: miter"/>
     <use xlink:href="#m0c327bdabc" x="327.153467" y="56.586352" style="fill: #9d02d7; stroke: #9d02d7; stroke-linejoin: miter"/>
     <use xlink:href="#m0c327bdabc" x="332.312173" y="56.795409" style="fill: #9d02d7; stroke: #9d02d7; stroke-linejoin: miter"/>
     <use xlink:href="#m0c327bdabc" x="337.470878" y="56.586352" style="fill: #9d02d7; stroke: #9d02d7; stroke-linejoin: miter"/>
     <use xlink:href="#m0c327bdabc" x="342.629584" y="56.586352" style="fill: #9d02d7; stroke: #9d02d7; stroke-linejoin: miter"/>
     <use xlink:href="#m0c327bdabc" x="347.78829" y="56.795409" style="fill: #9d02d7; stroke: #9d02d7; stroke-linejoin: miter"/>
     <use xlink:href="#m0c327bdabc" x="352.946995" y="56.957771" style="fill: #9d02d7; stroke: #9d02d7; stroke-linejoin: miter"/>
     <use xlink:href="#m0c327bdabc" x="358.105701" y="56.957771" style="fill: #9d02d7; stroke: #9d02d7; stroke-linejoin: miter"/>
     <use xlink:href="#m0c327bdabc" x="363.264407" y="56.586352" style="fill: #9d02d7; stroke: #9d02d7; stroke-linejoin: miter"/>
     <use xlink:href="#m0c327bdabc" x="368.423112" y="56.957771" style="fill: #9d02d7; stroke: #9d02d7; stroke-linejoin: miter"/>
     <use xlink:href="#m0c327bdabc" x="373.581818" y="56.745708" style="fill: #9d02d7; stroke: #9d02d7; stroke-linejoin: miter"/>
    </g>
   </g>
   <g id="line2d_30">
    <path d="M 69.218182 259.501786 
L 74.376888 262.80682 
L 79.535593 253.160204 
L 84.694299 103.453767 
L 89.853005 46.190691 
L 95.01171 57.230152 
L 100.170416 57.233013 
L 105.329122 56.514629 
L 110.487827 46.237013 
L 115.646533 47.552395 
L 120.805239 49.337562 
L 125.963945 47.754481 
L 131.12265 48.834402 
L 136.281356 47.680327 
L 141.440062 64.435367 
L 146.598767 94.29707 
L 151.757473 47.621063 
L 156.916179 47.933019 
L 162.074884 48.300024 
L 167.23359 47.808233 
L 172.392296 48.296812 
L 177.551002 47.808727 
L 182.709707 85.911749 
L 187.868413 50.229683 
L 193.027119 48.331416 
L 198.185824 47.932615 
L 203.34453 47.74383 
L 208.503236 47.866128 
L 213.661941 47.739796 
L 218.820647 44.883059 
L 223.979353 43.553847 
L 229.138059 43.555583 
L 234.296764 43.617389 
L 239.45547 43.620269 
L 244.614176 43.427118 
L 249.772881 43.582275 
L 254.931587 43.616746 
L 260.090293 43.578114 
L 265.248998 43.620084 
L 270.407704 47.420902 
L 275.56641 47.675412 
L 280.725116 47.486842 
L 285.883821 47.424392 
L 291.042527 47.546806 
L 296.201233 47.448388 
L 301.359938 47.293182 
L 306.518644 43.578303 
L 311.67735 43.437016 
L 316.836055 43.557584 
L 321.994761 43.555147 
L 327.153467 43.426894 
L 332.312173 43.425789 
L 337.470878 43.578979 
L 342.629584 43.554897 
L 347.78829 43.590996 
L 352.946995 43.619142 
L 358.105701 43.616735 
L 363.264407 43.617262 
L 368.423112 43.620709 
L 373.581818 43.428374 
" clip-path="url(#p765359ef2c)" style="fill: none; stroke: #0000ff; stroke-width: 1.5; stroke-linecap: square"/>
    <defs>
     <path id="m48f4786cb8" d="M 0 2 
C 0.530406 2 1.03916 1.789267 1.414214 1.414214 
C 1.789267 1.03916 2 0.530406 2 0 
C 2 -0.530406 1.789267 -1.03916 1.414214 -1.414214 
C 1.03916 -1.789267 0.530406 -2 0 -2 
C -0.530406 -2 -1.03916 -1.789267 -1.414214 -1.414214 
C -1.789267 -1.03916 -2 -0.530406 -2 0 
C -2 0.530406 -1.789267 1.03916 -1.414214 1.414214 
C -1.03916 1.789267 -0.530406 2 0 2 
z
" style="stroke: #0000ff"/>
    </defs>
    <g clip-path="url(#p765359ef2c)">
     <use xlink:href="#m48f4786cb8" x="69.218182" y="259.501786" style="fill: #0000ff; stroke: #0000ff"/>
     <use xlink:href="#m48f4786cb8" x="74.376888" y="262.80682" style="fill: #0000ff; stroke: #0000ff"/>
     <use xlink:href="#m48f4786cb8" x="79.535593" y="253.160204" style="fill: #0000ff; stroke: #0000ff"/>
     <use xlink:href="#m48f4786cb8" x="84.694299" y="103.453767" style="fill: #0000ff; stroke: #0000ff"/>
     <use xlink:href="#m48f4786cb8" x="89.853005" y="46.190691" style="fill: #0000ff; stroke: #0000ff"/>
     <use xlink:href="#m48f4786cb8" x="95.01171" y="57.230152" style="fill: #0000ff; stroke: #0000ff"/>
     <use xlink:href="#m48f4786cb8" x="100.170416" y="57.233013" style="fill: #0000ff; stroke: #0000ff"/>
     <use xlink:href="#m48f4786cb8" x="105.329122" y="56.514629" style="fill: #0000ff; stroke: #0000ff"/>
     <use xlink:href="#m48f4786cb8" x="110.487827" y="46.237013" style="fill: #0000ff; stroke: #0000ff"/>
     <use xlink:href="#m48f4786cb8" x="115.646533" y="47.552395" style="fill: #0000ff; stroke: #0000ff"/>
     <use xlink:href="#m48f4786cb8" x="120.805239" y="49.337562" style="fill: #0000ff; stroke: #0000ff"/>
     <use xlink:href="#m48f4786cb8" x="125.963945" y="47.754481" style="fill: #0000ff; stroke: #0000ff"/>
     <use xlink:href="#m48f4786cb8" x="131.12265" y="48.834402" style="fill: #0000ff; stroke: #0000ff"/>
     <use xlink:href="#m48f4786cb8" x="136.281356" y="47.680327" style="fill: #0000ff; stroke: #0000ff"/>
     <use xlink:href="#m48f4786cb8" x="141.440062" y="64.435367" style="fill: #0000ff; stroke: #0000ff"/>
     <use xlink:href="#m48f4786cb8" x="146.598767" y="94.29707" style="fill: #0000ff; stroke: #0000ff"/>
     <use xlink:href="#m48f4786cb8" x="151.757473" y="47.621063" style="fill: #0000ff; stroke: #0000ff"/>
     <use xlink:href="#m48f4786cb8" x="156.916179" y="47.933019" style="fill: #0000ff; stroke: #0000ff"/>
     <use xlink:href="#m48f4786cb8" x="162.074884" y="48.300024" style="fill: #0000ff; stroke: #0000ff"/>
     <use xlink:href="#m48f4786cb8" x="167.23359" y="47.808233" style="fill: #0000ff; stroke: #0000ff"/>
     <use xlink:href="#m48f4786cb8" x="172.392296" y="48.296812" style="fill: #0000ff; stroke: #0000ff"/>
     <use xlink:href="#m48f4786cb8" x="177.551002" y="47.808727" style="fill: #0000ff; stroke: #0000ff"/>
     <use xlink:href="#m48f4786cb8" x="182.709707" y="85.911749" style="fill: #0000ff; stroke: #0000ff"/>
     <use xlink:href="#m48f4786cb8" x="187.868413" y="50.229683" style="fill: #0000ff; stroke: #0000ff"/>
     <use xlink:href="#m48f4786cb8" x="193.027119" y="48.331416" style="fill: #0000ff; stroke: #0000ff"/>
     <use xlink:href="#m48f4786cb8" x="198.185824" y="47.932615" style="fill: #0000ff; stroke: #0000ff"/>
     <use xlink:href="#m48f4786cb8" x="203.34453" y="47.74383" style="fill: #0000ff; stroke: #0000ff"/>
     <use xlink:href="#m48f4786cb8" x="208.503236" y="47.866128" style="fill: #0000ff; stroke: #0000ff"/>
     <use xlink:href="#m48f4786cb8" x="213.661941" y="47.739796" style="fill: #0000ff; stroke: #0000ff"/>
     <use xlink:href="#m48f4786cb8" x="218.820647" y="44.883059" style="fill: #0000ff; stroke: #0000ff"/>
     <use xlink:href="#m48f4786cb8" x="223.979353" y="43.553847" style="fill: #0000ff; stroke: #0000ff"/>
     <use xlink:href="#m48f4786cb8" x="229.138059" y="43.555583" style="fill: #0000ff; stroke: #0000ff"/>
     <use xlink:href="#m48f4786cb8" x="234.296764" y="43.617389" style="fill: #0000ff; stroke: #0000ff"/>
     <use xlink:href="#m48f4786cb8" x="239.45547" y="43.620269" style="fill: #0000ff; stroke: #0000ff"/>
     <use xlink:href="#m48f4786cb8" x="244.614176" y="43.427118" style="fill: #0000ff; stroke: #0000ff"/>
     <use xlink:href="#m48f4786cb8" x="249.772881" y="43.582275" style="fill: #0000ff; stroke: #0000ff"/>
     <use xlink:href="#m48f4786cb8" x="254.931587" y="43.616746" style="fill: #0000ff; stroke: #0000ff"/>
     <use xlink:href="#m48f4786cb8" x="260.090293" y="43.578114" style="fill: #0000ff; stroke: #0000ff"/>
     <use xlink:href="#m48f4786cb8" x="265.248998" y="43.620084" style="fill: #0000ff; stroke: #0000ff"/>
     <use xlink:href="#m48f4786cb8" x="270.407704" y="47.420902" style="fill: #0000ff; stroke: #0000ff"/>
     <use xlink:href="#m48f4786cb8" x="275.56641" y="47.675412" style="fill: #0000ff; stroke: #0000ff"/>
     <use xlink:href="#m48f4786cb8" x="280.725116" y="47.486842" style="fill: #0000ff; stroke: #0000ff"/>
     <use xlink:href="#m48f4786cb8" x="285.883821" y="47.424392" style="fill: #0000ff; stroke: #0000ff"/>
     <use xlink:href="#m48f4786cb8" x="291.042527" y="47.546806" style="fill: #0000ff; stroke: #0000ff"/>
     <use xlink:href="#m48f4786cb8" x="296.201233" y="47.448388" style="fill: #0000ff; stroke: #0000ff"/>
     <use xlink:href="#m48f4786cb8" x="301.359938" y="47.293182" style="fill: #0000ff; stroke: #0000ff"/>
     <use xlink:href="#m48f4786cb8" x="306.518644" y="43.578303" style="fill: #0000ff; stroke: #0000ff"/>
     <use xlink:href="#m48f4786cb8" x="311.67735" y="43.437016" style="fill: #0000ff; stroke: #0000ff"/>
     <use xlink:href="#m48f4786cb8" x="316.836055" y="43.557584" style="fill: #0000ff; stroke: #0000ff"/>
     <use xlink:href="#m48f4786cb8" x="321.994761" y="43.555147" style="fill: #0000ff; stroke: #0000ff"/>
     <use xlink:href="#m48f4786cb8" x="327.153467" y="43.426894" style="fill: #0000ff; stroke: #0000ff"/>
     <use xlink:href="#m48f4786cb8" x="332.312173" y="43.425789" style="fill: #0000ff; stroke: #0000ff"/>
     <use xlink:href="#m48f4786cb8" x="337.470878" y="43.578979" style="fill: #0000ff; stroke: #0000ff"/>
     <use xlink:href="#m48f4786cb8" x="342.629584" y="43.554897" style="fill: #0000ff; stroke: #0000ff"/>
     <use xlink:href="#m48f4786cb8" x="347.78829" y="43.590996" style="fill: #0000ff; stroke: #0000ff"/>
     <use xlink:href="#m48f4786cb8" x="352.946995" y="43.619142" style="fill: #0000ff; stroke: #0000ff"/>
     <use xlink:href="#m48f4786cb8" x="358.105701" y="43.616735" style="fill: #0000ff; stroke: #0000ff"/>
     <use xlink:href="#m48f4786cb8" x="363.264407" y="43.617262" style="fill: #0000ff; stroke: #0000ff"/>
     <use xlink:href="#m48f4786cb8" x="368.423112" y="43.620709" style="fill: #0000ff; stroke: #0000ff"/>
     <use xlink:href="#m48f4786cb8" x="373.581818" y="43.428374" style="fill: #0000ff; stroke: #0000ff"/>
    </g>
   </g>
   <g id="line2d_31">
    <path d="M 69.218182 254.744823 
L 74.376888 263.948211 
L 79.535593 255.496975 
L 84.694299 256.327894 
L 89.853005 103.616905 
L 95.01171 124.819435 
L 100.170416 95.878069 
L 105.329122 80.677357 
L 110.487827 97.976995 
L 115.646533 87.521308 
L 120.805239 86.389803 
L 125.963945 71.471755 
L 131.12265 86.175494 
L 136.281356 87.158973 
L 141.440062 65.634507 
L 146.598767 88.610219 
L 151.757473 73.46322 
L 156.916179 87.810115 
L 162.074884 92.048389 
L 167.23359 86.656418 
L 172.392296 92.975426 
L 177.551002 73.395922 
L 182.709707 73.395922 
L 187.868413 76.166909 
L 193.027119 73.395922 
L 198.185824 73.395922 
L 203.34453 73.145107 
L 208.503236 73.145107 
L 213.661941 73.395922 
L 218.820647 73.395922 
L 223.979353 73.395922 
L 229.138059 73.395922 
L 234.296764 73.395922 
L 239.45547 76.166909 
L 244.614176 73.395922 
L 249.772881 76.166909 
L 254.931587 76.166909 
L 260.090293 73.395922 
L 265.248998 73.547163 
L 270.407704 73.547163 
L 275.56641 73.547163 
L 280.725116 73.395922 
L 285.883821 73.395922 
L 291.042527 73.145107 
L 296.201233 73.145107 
L 301.359938 73.404918 
L 306.518644 73.404918 
L 311.67735 73.404918 
L 316.836055 73.404918 
L 321.994761 73.404918 
L 327.153467 73.404918 
L 332.312173 73.404918 
L 337.470878 73.404918 
L 342.629584 73.404918 
L 347.78829 73.404918 
L 352.946995 73.404918 
L 358.105701 73.404918 
L 363.264407 73.404918 
L 368.423112 76.208676 
L 373.581818 76.208676 
" clip-path="url(#p765359ef2c)" style="fill: none; stroke: #ff7763; stroke-width: 1.5; stroke-linecap: square"/>
    <defs>
     <path id="m0e5dbfccf7" d="M -2 2 
L 2 -2 
M -2 -2 
L 2 2 
" style="stroke: #ff7763"/>
    </defs>
    <g clip-path="url(#p765359ef2c)">
     <use xlink:href="#m0e5dbfccf7" x="69.218182" y="254.744823" style="fill: #ff7763; stroke: #ff7763"/>
     <use xlink:href="#m0e5dbfccf7" x="74.376888" y="263.948211" style="fill: #ff7763; stroke: #ff7763"/>
     <use xlink:href="#m0e5dbfccf7" x="79.535593" y="255.496975" style="fill: #ff7763; stroke: #ff7763"/>
     <use xlink:href="#m0e5dbfccf7" x="84.694299" y="256.327894" style="fill: #ff7763; stroke: #ff7763"/>
     <use xlink:href="#m0e5dbfccf7" x="89.853005" y="103.616905" style="fill: #ff7763; stroke: #ff7763"/>
     <use xlink:href="#m0e5dbfccf7" x="95.01171" y="124.819435" style="fill: #ff7763; stroke: #ff7763"/>
     <use xlink:href="#m0e5dbfccf7" x="100.170416" y="95.878069" style="fill: #ff7763; stroke: #ff7763"/>
     <use xlink:href="#m0e5dbfccf7" x="105.329122" y="80.677357" style="fill: #ff7763; stroke: #ff7763"/>
     <use xlink:href="#m0e5dbfccf7" x="110.487827" y="97.976995" style="fill: #ff7763; stroke: #ff7763"/>
     <use xlink:href="#m0e5dbfccf7" x="115.646533" y="87.521308" style="fill: #ff7763; stroke: #ff7763"/>
     <use xlink:href="#m0e5dbfccf7" x="120.805239" y="86.389803" style="fill: #ff7763; stroke: #ff7763"/>
     <use xlink:href="#m0e5dbfccf7" x="125.963945" y="71.471755" style="fill: #ff7763; stroke: #ff7763"/>
     <use xlink:href="#m0e5dbfccf7" x="131.12265" y="86.175494" style="fill: #ff7763; stroke: #ff7763"/>
     <use xlink:href="#m0e5dbfccf7" x="136.281356" y="87.158973" style="fill: #ff7763; stroke: #ff7763"/>
     <use xlink:href="#m0e5dbfccf7" x="141.440062" y="65.634507" style="fill: #ff7763; stroke: #ff7763"/>
     <use xlink:href="#m0e5dbfccf7" x="146.598767" y="88.610219" style="fill: #ff7763; stroke: #ff7763"/>
     <use xlink:href="#m0e5dbfccf7" x="151.757473" y="73.46322" style="fill: #ff7763; stroke: #ff7763"/>
     <use xlink:href="#m0e5dbfccf7" x="156.916179" y="87.810115" style="fill: #ff7763; stroke: #ff7763"/>
     <use xlink:href="#m0e5dbfccf7" x="162.074884" y="92.048389" style="fill: #ff7763; stroke: #ff7763"/>
     <use xlink:href="#m0e5dbfccf7" x="167.23359" y="86.656418" style="fill: #ff7763; stroke: #ff7763"/>
     <use xlink:href="#m0e5dbfccf7" x="172.392296" y="92.975426" style="fill: #ff7763; stroke: #ff7763"/>
     <use xlink:href="#m0e5dbfccf7" x="177.551002" y="73.395922" style="fill: #ff7763; stroke: #ff7763"/>
     <use xlink:href="#m0e5dbfccf7" x="182.709707" y="73.395922" style="fill: #ff7763; stroke: #ff7763"/>
     <use xlink:href="#m0e5dbfccf7" x="187.868413" y="76.166909" style="fill: #ff7763; stroke: #ff7763"/>
     <use xlink:href="#m0e5dbfccf7" x="193.027119" y="73.395922" style="fill: #ff7763; stroke: #ff7763"/>
     <use xlink:href="#m0e5dbfccf7" x="198.185824" y="73.395922" style="fill: #ff7763; stroke: #ff7763"/>
     <use xlink:href="#m0e5dbfccf7" x="203.34453" y="73.145107" style="fill: #ff7763; stroke: #ff7763"/>
     <use xlink:href="#m0e5dbfccf7" x="208.503236" y="73.145107" style="fill: #ff7763; stroke: #ff7763"/>
     <use xlink:href="#m0e5dbfccf7" x="213.661941" y="73.395922" style="fill: #ff7763; stroke: #ff7763"/>
     <use xlink:href="#m0e5dbfccf7" x="218.820647" y="73.395922" style="fill: #ff7763; stroke: #ff7763"/>
     <use xlink:href="#m0e5dbfccf7" x="223.979353" y="73.395922" style="fill: #ff7763; stroke: #ff7763"/>
     <use xlink:href="#m0e5dbfccf7" x="229.138059" y="73.395922" style="fill: #ff7763; stroke: #ff7763"/>
     <use xlink:href="#m0e5dbfccf7" x="234.296764" y="73.395922" style="fill: #ff7763; stroke: #ff7763"/>
     <use xlink:href="#m0e5dbfccf7" x="239.45547" y="76.166909" style="fill: #ff7763; stroke: #ff7763"/>
     <use xlink:href="#m0e5dbfccf7" x="244.614176" y="73.395922" style="fill: #ff7763; stroke: #ff7763"/>
     <use xlink:href="#m0e5dbfccf7" x="249.772881" y="76.166909" style="fill: #ff7763; stroke: #ff7763"/>
     <use xlink:href="#m0e5dbfccf7" x="254.931587" y="76.166909" style="fill: #ff7763; stroke: #ff7763"/>
     <use xlink:href="#m0e5dbfccf7" x="260.090293" y="73.395922" style="fill: #ff7763; stroke: #ff7763"/>
     <use xlink:href="#m0e5dbfccf7" x="265.248998" y="73.547163" style="fill: #ff7763; stroke: #ff7763"/>
     <use xlink:href="#m0e5dbfccf7" x="270.407704" y="73.547163" style="fill: #ff7763; stroke: #ff7763"/>
     <use xlink:href="#m0e5dbfccf7" x="275.56641" y="73.547163" style="fill: #ff7763; stroke: #ff7763"/>
     <use xlink:href="#m0e5dbfccf7" x="280.725116" y="73.395922" style="fill: #ff7763; stroke: #ff7763"/>
     <use xlink:href="#m0e5dbfccf7" x="285.883821" y="73.395922" style="fill: #ff7763; stroke: #ff7763"/>
     <use xlink:href="#m0e5dbfccf7" x="291.042527" y="73.145107" style="fill: #ff7763; stroke: #ff7763"/>
     <use xlink:href="#m0e5dbfccf7" x="296.201233" y="73.145107" style="fill: #ff7763; stroke: #ff7763"/>
     <use xlink:href="#m0e5dbfccf7" x="301.359938" y="73.404918" style="fill: #ff7763; stroke: #ff7763"/>
     <use xlink:href="#m0e5dbfccf7" x="306.518644" y="73.404918" style="fill: #ff7763; stroke: #ff7763"/>
     <use xlink:href="#m0e5dbfccf7" x="311.67735" y="73.404918" style="fill: #ff7763; stroke: #ff7763"/>
     <use xlink:href="#m0e5dbfccf7" x="316.836055" y="73.404918" style="fill: #ff7763; stroke: #ff7763"/>
     <use xlink:href="#m0e5dbfccf7" x="321.994761" y="73.404918" style="fill: #ff7763; stroke: #ff7763"/>
     <use xlink:href="#m0e5dbfccf7" x="327.153467" y="73.404918" style="fill: #ff7763; stroke: #ff7763"/>
     <use xlink:href="#m0e5dbfccf7" x="332.312173" y="73.404918" style="fill: #ff7763; stroke: #ff7763"/>
     <use xlink:href="#m0e5dbfccf7" x="337.470878" y="73.404918" style="fill: #ff7763; stroke: #ff7763"/>
     <use xlink:href="#m0e5dbfccf7" x="342.629584" y="73.404918" style="fill: #ff7763; stroke: #ff7763"/>
     <use xlink:href="#m0e5dbfccf7" x="347.78829" y="73.404918" style="fill: #ff7763; stroke: #ff7763"/>
     <use xlink:href="#m0e5dbfccf7" x="352.946995" y="73.404918" style="fill: #ff7763; stroke: #ff7763"/>
     <use xlink:href="#m0e5dbfccf7" x="358.105701" y="73.404918" style="fill: #ff7763; stroke: #ff7763"/>
     <use xlink:href="#m0e5dbfccf7" x="363.264407" y="73.404918" style="fill: #ff7763; stroke: #ff7763"/>
     <use xlink:href="#m0e5dbfccf7" x="368.423112" y="76.208676" style="fill: #ff7763; stroke: #ff7763"/>
     <use xlink:href="#m0e5dbfccf7" x="373.581818" y="76.208676" style="fill: #ff7763; stroke: #ff7763"/>
    </g>
   </g>
   <g id="line2d_32">
    <path d="M 69.218182 253.081632 
L 74.376888 248.183507 
L 79.535593 198.514769 
L 84.694299 248.255817 
L 89.853005 210.035627 
L 95.01171 102.618503 
L 100.170416 104.399785 
L 105.329122 90.619488 
L 110.487827 86.675065 
L 115.646533 58.129743 
L 120.805239 84.980333 
L 125.963945 84.980333 
L 131.12265 84.459092 
L 136.281356 57.608492 
L 141.440062 58.61144 
L 146.598767 58.70915 
L 151.757473 64.527413 
L 156.916179 64.086287 
L 162.074884 64.527413 
L 167.23359 64.086287 
L 172.392296 58.70915 
L 177.551002 58.70915 
L 182.709707 58.70915 
L 187.868413 65.089656 
L 193.027119 64.086287 
L 198.185824 64.527413 
L 203.34453 65.607813 
L 208.503236 65.607813 
L 213.661941 65.607813 
L 218.820647 65.089656 
L 223.979353 65.089656 
L 229.138059 65.089656 
L 234.296764 63.215217 
L 239.45547 63.769688 
L 244.614176 64.527413 
L 249.772881 64.281853 
L 254.931587 64.281853 
L 260.090293 63.769688 
L 265.248998 62.779618 
L 270.407704 64.28188 
L 275.56641 64.281874 
L 280.725116 63.215244 
L 285.883821 58.12977 
L 291.042527 58.12977 
L 296.201233 64.28188 
L 301.359938 58.129777 
L 306.518644 58.611467 
L 311.67735 58.611467 
L 316.836055 57.198181 
L 321.994761 57.198181 
L 327.153467 58.12977 
L 332.312173 57.608526 
L 337.470878 57.198188 
L 342.629584 58.611474 
L 347.78829 58.611474 
L 352.946995 58.129777 
L 358.105701 58.611474 
L 363.264407 57.198181 
L 368.423112 58.611474 
L 373.581818 58.611467 
" clip-path="url(#p765359ef2c)" style="fill: none; stroke: #ffac1e; stroke-width: 1.5; stroke-linecap: square"/>
    <defs>
     <path id="mcca68ca7f6" d="M 0 -2 
L -0.449028 -0.618034 
L -1.902113 -0.618034 
L -0.726543 0.236068 
L -1.175571 1.618034 
L -0 0.763932 
L 1.175571 1.618034 
L 0.726543 0.236068 
L 1.902113 -0.618034 
L 0.449028 -0.618034 
z
" style="stroke: #ffac1e; stroke-linejoin: bevel"/>
    </defs>
    <g clip-path="url(#p765359ef2c)">
     <use xlink:href="#mcca68ca7f6" x="69.218182" y="253.081632" style="fill: #ffac1e; stroke: #ffac1e; stroke-linejoin: bevel"/>
     <use xlink:href="#mcca68ca7f6" x="74.376888" y="248.183507" style="fill: #ffac1e; stroke: #ffac1e; stroke-linejoin: bevel"/>
     <use xlink:href="#mcca68ca7f6" x="79.535593" y="198.514769" style="fill: #ffac1e; stroke: #ffac1e; stroke-linejoin: bevel"/>
     <use xlink:href="#mcca68ca7f6" x="84.694299" y="248.255817" style="fill: #ffac1e; stroke: #ffac1e; stroke-linejoin: bevel"/>
     <use xlink:href="#mcca68ca7f6" x="89.853005" y="210.035627" style="fill: #ffac1e; stroke: #ffac1e; stroke-linejoin: bevel"/>
     <use xlink:href="#mcca68ca7f6" x="95.01171" y="102.618503" style="fill: #ffac1e; stroke: #ffac1e; stroke-linejoin: bevel"/>
     <use xlink:href="#mcca68ca7f6" x="100.170416" y="104.399785" style="fill: #ffac1e; stroke: #ffac1e; stroke-linejoin: bevel"/>
     <use xlink:href="#mcca68ca7f6" x="105.329122" y="90.619488" style="fill: #ffac1e; stroke: #ffac1e; stroke-linejoin: bevel"/>
     <use xlink:href="#mcca68ca7f6" x="110.487827" y="86.675065" style="fill: #ffac1e; stroke: #ffac1e; stroke-linejoin: bevel"/>
     <use xlink:href="#mcca68ca7f6" x="115.646533" y="58.129743" style="fill: #ffac1e; stroke: #ffac1e; stroke-linejoin: bevel"/>
     <use xlink:href="#mcca68ca7f6" x="120.805239" y="84.980333" style="fill: #ffac1e; stroke: #ffac1e; stroke-linejoin: bevel"/>
     <use xlink:href="#mcca68ca7f6" x="125.963945" y="84.980333" style="fill: #ffac1e; stroke: #ffac1e; stroke-linejoin: bevel"/>
     <use xlink:href="#mcca68ca7f6" x="131.12265" y="84.459092" style="fill: #ffac1e; stroke: #ffac1e; stroke-linejoin: bevel"/>
     <use xlink:href="#mcca68ca7f6" x="136.281356" y="57.608492" style="fill: #ffac1e; stroke: #ffac1e; stroke-linejoin: bevel"/>
     <use xlink:href="#mcca68ca7f6" x="141.440062" y="58.61144" style="fill: #ffac1e; stroke: #ffac1e; stroke-linejoin: bevel"/>
     <use xlink:href="#mcca68ca7f6" x="146.598767" y="58.70915" style="fill: #ffac1e; stroke: #ffac1e; stroke-linejoin: bevel"/>
     <use xlink:href="#mcca68ca7f6" x="151.757473" y="64.527413" style="fill: #ffac1e; stroke: #ffac1e; stroke-linejoin: bevel"/>
     <use xlink:href="#mcca68ca7f6" x="156.916179" y="64.086287" style="fill: #ffac1e; stroke: #ffac1e; stroke-linejoin: bevel"/>
     <use xlink:href="#mcca68ca7f6" x="162.074884" y="64.527413" style="fill: #ffac1e; stroke: #ffac1e; stroke-linejoin: bevel"/>
     <use xlink:href="#mcca68ca7f6" x="167.23359" y="64.086287" style="fill: #ffac1e; stroke: #ffac1e; stroke-linejoin: bevel"/>
     <use xlink:href="#mcca68ca7f6" x="172.392296" y="58.70915" style="fill: #ffac1e; stroke: #ffac1e; stroke-linejoin: bevel"/>
     <use xlink:href="#mcca68ca7f6" x="177.551002" y="58.70915" style="fill: #ffac1e; stroke: #ffac1e; stroke-linejoin: bevel"/>
     <use xlink:href="#mcca68ca7f6" x="182.709707" y="58.70915" style="fill: #ffac1e; stroke: #ffac1e; stroke-linejoin: bevel"/>
     <use xlink:href="#mcca68ca7f6" x="187.868413" y="65.089656" style="fill: #ffac1e; stroke: #ffac1e; stroke-linejoin: bevel"/>
     <use xlink:href="#mcca68ca7f6" x="193.027119" y="64.086287" style="fill: #ffac1e; stroke: #ffac1e; stroke-linejoin: bevel"/>
     <use xlink:href="#mcca68ca7f6" x="198.185824" y="64.527413" style="fill: #ffac1e; stroke: #ffac1e; stroke-linejoin: bevel"/>
     <use xlink:href="#mcca68ca7f6" x="203.34453" y="65.607813" style="fill: #ffac1e; stroke: #ffac1e; stroke-linejoin: bevel"/>
     <use xlink:href="#mcca68ca7f6" x="208.503236" y="65.607813" style="fill: #ffac1e; stroke: #ffac1e; stroke-linejoin: bevel"/>
     <use xlink:href="#mcca68ca7f6" x="213.661941" y="65.607813" style="fill: #ffac1e; stroke: #ffac1e; stroke-linejoin: bevel"/>
     <use xlink:href="#mcca68ca7f6" x="218.820647" y="65.089656" style="fill: #ffac1e; stroke: #ffac1e; stroke-linejoin: bevel"/>
     <use xlink:href="#mcca68ca7f6" x="223.979353" y="65.089656" style="fill: #ffac1e; stroke: #ffac1e; stroke-linejoin: bevel"/>
     <use xlink:href="#mcca68ca7f6" x="229.138059" y="65.089656" style="fill: #ffac1e; stroke: #ffac1e; stroke-linejoin: bevel"/>
     <use xlink:href="#mcca68ca7f6" x="234.296764" y="63.215217" style="fill: #ffac1e; stroke: #ffac1e; stroke-linejoin: bevel"/>
     <use xlink:href="#mcca68ca7f6" x="239.45547" y="63.769688" style="fill: #ffac1e; stroke: #ffac1e; stroke-linejoin: bevel"/>
     <use xlink:href="#mcca68ca7f6" x="244.614176" y="64.527413" style="fill: #ffac1e; stroke: #ffac1e; stroke-linejoin: bevel"/>
     <use xlink:href="#mcca68ca7f6" x="249.772881" y="64.281853" style="fill: #ffac1e; stroke: #ffac1e; stroke-linejoin: bevel"/>
     <use xlink:href="#mcca68ca7f6" x="254.931587" y="64.281853" style="fill: #ffac1e; stroke: #ffac1e; stroke-linejoin: bevel"/>
     <use xlink:href="#mcca68ca7f6" x="260.090293" y="63.769688" style="fill: #ffac1e; stroke: #ffac1e; stroke-linejoin: bevel"/>
     <use xlink:href="#mcca68ca7f6" x="265.248998" y="62.779618" style="fill: #ffac1e; stroke: #ffac1e; stroke-linejoin: bevel"/>
     <use xlink:href="#mcca68ca7f6" x="270.407704" y="64.28188" style="fill: #ffac1e; stroke: #ffac1e; stroke-linejoin: bevel"/>
     <use xlink:href="#mcca68ca7f6" x="275.56641" y="64.281874" style="fill: #ffac1e; stroke: #ffac1e; stroke-linejoin: bevel"/>
     <use xlink:href="#mcca68ca7f6" x="280.725116" y="63.215244" style="fill: #ffac1e; stroke: #ffac1e; stroke-linejoin: bevel"/>
     <use xlink:href="#mcca68ca7f6" x="285.883821" y="58.12977" style="fill: #ffac1e; stroke: #ffac1e; stroke-linejoin: bevel"/>
     <use xlink:href="#mcca68ca7f6" x="291.042527" y="58.12977" style="fill: #ffac1e; stroke: #ffac1e; stroke-linejoin: bevel"/>
     <use xlink:href="#mcca68ca7f6" x="296.201233" y="64.28188" style="fill: #ffac1e; stroke: #ffac1e; stroke-linejoin: bevel"/>
     <use xlink:href="#mcca68ca7f6" x="301.359938" y="58.129777" style="fill: #ffac1e; stroke: #ffac1e; stroke-linejoin: bevel"/>
     <use xlink:href="#mcca68ca7f6" x="306.518644" y="58.611467" style="fill: #ffac1e; stroke: #ffac1e; stroke-linejoin: bevel"/>
     <use xlink:href="#mcca68ca7f6" x="311.67735" y="58.611467" style="fill: #ffac1e; stroke: #ffac1e; stroke-linejoin: bevel"/>
     <use xlink:href="#mcca68ca7f6" x="316.836055" y="57.198181" style="fill: #ffac1e; stroke: #ffac1e; stroke-linejoin: bevel"/>
     <use xlink:href="#mcca68ca7f6" x="321.994761" y="57.198181" style="fill: #ffac1e; stroke: #ffac1e; stroke-linejoin: bevel"/>
     <use xlink:href="#mcca68ca7f6" x="327.153467" y="58.12977" style="fill: #ffac1e; stroke: #ffac1e; stroke-linejoin: bevel"/>
     <use xlink:href="#mcca68ca7f6" x="332.312173" y="57.608526" style="fill: #ffac1e; stroke: #ffac1e; stroke-linejoin: bevel"/>
     <use xlink:href="#mcca68ca7f6" x="337.470878" y="57.198188" style="fill: #ffac1e; stroke: #ffac1e; stroke-linejoin: bevel"/>
     <use xlink:href="#mcca68ca7f6" x="342.629584" y="58.611474" style="fill: #ffac1e; stroke: #ffac1e; stroke-linejoin: bevel"/>
     <use xlink:href="#mcca68ca7f6" x="347.78829" y="58.611474" style="fill: #ffac1e; stroke: #ffac1e; stroke-linejoin: bevel"/>
     <use xlink:href="#mcca68ca7f6" x="352.946995" y="58.129777" style="fill: #ffac1e; stroke: #ffac1e; stroke-linejoin: bevel"/>
     <use xlink:href="#mcca68ca7f6" x="358.105701" y="58.611474" style="fill: #ffac1e; stroke: #ffac1e; stroke-linejoin: bevel"/>
     <use xlink:href="#mcca68ca7f6" x="363.264407" y="57.198181" style="fill: #ffac1e; stroke: #ffac1e; stroke-linejoin: bevel"/>
     <use xlink:href="#mcca68ca7f6" x="368.423112" y="58.611474" style="fill: #ffac1e; stroke: #ffac1e; stroke-linejoin: bevel"/>
     <use xlink:href="#mcca68ca7f6" x="373.581818" y="58.611467" style="fill: #ffac1e; stroke: #ffac1e; stroke-linejoin: bevel"/>
    </g>
   </g>
   <g id="line2d_33">
    <path d="M 69.218182 252.908818 
L 74.376888 225.560458 
L 79.535593 260.941582 
L 84.694299 96.773038 
L 89.853005 78.271839 
L 95.01171 69.70468 
L 100.170416 79.166447 
L 105.329122 58.150974 
L 110.487827 56.587984 
L 115.646533 48.595104 
L 120.805239 51.583277 
L 125.963945 51.004048 
L 131.12265 54.987299 
L 136.281356 52.422648 
L 141.440062 60.779088 
L 146.598767 52.423436 
L 151.757473 49.155683 
L 156.916179 51.583253 
L 162.074884 60.779371 
L 167.23359 60.134312 
L 172.392296 51.004262 
L 177.551002 83.751915 
L 182.709707 51.582988 
L 187.868413 48.271287 
L 193.027119 51.945588 
L 198.185824 51.945286 
L 203.34453 59.934408 
L 208.503236 54.978095 
L 213.661941 48.082243 
L 218.820647 48.082568 
L 223.979353 48.083129 
L 229.138059 48.083129 
L 234.296764 48.374397 
L 239.45547 48.374397 
L 244.614176 48.374397 
L 249.772881 48.374397 
L 254.931587 48.374397 
L 260.090293 48.373633 
L 265.248998 48.373633 
L 270.407704 48.373633 
L 275.56641 48.373633 
L 280.725116 48.373633 
L 285.883821 48.083129 
L 291.042527 48.083129 
L 296.201233 48.083129 
L 301.359938 48.083129 
L 306.518644 48.083129 
L 311.67735 48.083129 
L 316.836055 48.083129 
L 321.994761 48.374397 
L 327.153467 48.083129 
L 332.312173 48.374397 
L 337.470878 48.374397 
L 342.629584 48.374397 
L 347.78829 48.374397 
L 352.946995 48.374397 
L 358.105701 48.374397 
L 363.264407 48.374397 
L 368.423112 48.374397 
L 373.581818 48.374397 
" clip-path="url(#p765359ef2c)" style="fill: none; stroke: #009435; stroke-width: 1.5; stroke-linecap: square"/>
    <defs>
     <path id="m116770db53" d="M -2 2 
L 2 2 
L 2 -2 
L -2 -2 
z
" style="stroke: #009435; stroke-linejoin: miter"/>
    </defs>
    <g clip-path="url(#p765359ef2c)">
     <use xlink:href="#m116770db53" x="69.218182" y="252.908818" style="fill: #009435; stroke: #009435; stroke-linejoin: miter"/>
     <use xlink:href="#m116770db53" x="74.376888" y="225.560458" style="fill: #009435; stroke: #009435; stroke-linejoin: miter"/>
     <use xlink:href="#m116770db53" x="79.535593" y="260.941582" style="fill: #009435; stroke: #009435; stroke-linejoin: miter"/>
     <use xlink:href="#m116770db53" x="84.694299" y="96.773038" style="fill: #009435; stroke: #009435; stroke-linejoin: miter"/>
     <use xlink:href="#m116770db53" x="89.853005" y="78.271839" style="fill: #009435; stroke: #009435; stroke-linejoin: miter"/>
     <use xlink:href="#m116770db53" x="95.01171" y="69.70468" style="fill: #009435; stroke: #009435; stroke-linejoin: miter"/>
     <use xlink:href="#m116770db53" x="100.170416" y="79.166447" style="fill: #009435; stroke: #009435; stroke-linejoin: miter"/>
     <use xlink:href="#m116770db53" x="105.329122" y="58.150974" style="fill: #009435; stroke: #009435; stroke-linejoin: miter"/>
     <use xlink:href="#m116770db53" x="110.487827" y="56.587984" style="fill: #009435; stroke: #009435; stroke-linejoin: miter"/>
     <use xlink:href="#m116770db53" x="115.646533" y="48.595104" style="fill: #009435; stroke: #009435; stroke-linejoin: miter"/>
     <use xlink:href="#m116770db53" x="120.805239" y="51.583277" style="fill: #009435; stroke: #009435; stroke-linejoin: miter"/>
     <use xlink:href="#m116770db53" x="125.963945" y="51.004048" style="fill: #009435; stroke: #009435; stroke-linejoin: miter"/>
     <use xlink:href="#m116770db53" x="131.12265" y="54.987299" style="fill: #009435; stroke: #009435; stroke-linejoin: miter"/>
     <use xlink:href="#m116770db53" x="136.281356" y="52.422648" style="fill: #009435; stroke: #009435; stroke-linejoin: miter"/>
     <use xlink:href="#m116770db53" x="141.440062" y="60.779088" style="fill: #009435; stroke: #009435; stroke-linejoin: miter"/>
     <use xlink:href="#m116770db53" x="146.598767" y="52.423436" style="fill: #009435; stroke: #009435; stroke-linejoin: miter"/>
     <use xlink:href="#m116770db53" x="151.757473" y="49.155683" style="fill: #009435; stroke: #009435; stroke-linejoin: miter"/>
     <use xlink:href="#m116770db53" x="156.916179" y="51.583253" style="fill: #009435; stroke: #009435; stroke-linejoin: miter"/>
     <use xlink:href="#m116770db53" x="162.074884" y="60.779371" style="fill: #009435; stroke: #009435; stroke-linejoin: miter"/>
     <use xlink:href="#m116770db53" x="167.23359" y="60.134312" style="fill: #009435; stroke: #009435; stroke-linejoin: miter"/>
     <use xlink:href="#m116770db53" x="172.392296" y="51.004262" style="fill: #009435; stroke: #009435; stroke-linejoin: miter"/>
     <use xlink:href="#m116770db53" x="177.551002" y="83.751915" style="fill: #009435; stroke: #009435; stroke-linejoin: miter"/>
     <use xlink:href="#m116770db53" x="182.709707" y="51.582988" style="fill: #009435; stroke: #009435; stroke-linejoin: miter"/>
     <use xlink:href="#m116770db53" x="187.868413" y="48.271287" style="fill: #009435; stroke: #009435; stroke-linejoin: miter"/>
     <use xlink:href="#m116770db53" x="193.027119" y="51.945588" style="fill: #009435; stroke: #009435; stroke-linejoin: miter"/>
     <use xlink:href="#m116770db53" x="198.185824" y="51.945286" style="fill: #009435; stroke: #009435; stroke-linejoin: miter"/>
     <use xlink:href="#m116770db53" x="203.34453" y="59.934408" style="fill: #009435; stroke: #009435; stroke-linejoin: miter"/>
     <use xlink:href="#m116770db53" x="208.503236" y="54.978095" style="fill: #009435; stroke: #009435; stroke-linejoin: miter"/>
     <use xlink:href="#m116770db53" x="213.661941" y="48.082243" style="fill: #009435; stroke: #009435; stroke-linejoin: miter"/>
     <use xlink:href="#m116770db53" x="218.820647" y="48.082568" style="fill: #009435; stroke: #009435; stroke-linejoin: miter"/>
     <use xlink:href="#m116770db53" x="223.979353" y="48.083129" style="fill: #009435; stroke: #009435; stroke-linejoin: miter"/>
     <use xlink:href="#m116770db53" x="229.138059" y="48.083129" style="fill: #009435; stroke: #009435; stroke-linejoin: miter"/>
     <use xlink:href="#m116770db53" x="234.296764" y="48.374397" style="fill: #009435; stroke: #009435; stroke-linejoin: miter"/>
     <use xlink:href="#m116770db53" x="239.45547" y="48.374397" style="fill: #009435; stroke: #009435; stroke-linejoin: miter"/>
     <use xlink:href="#m116770db53" x="244.614176" y="48.374397" style="fill: #009435; stroke: #009435; stroke-linejoin: miter"/>
     <use xlink:href="#m116770db53" x="249.772881" y="48.374397" style="fill: #009435; stroke: #009435; stroke-linejoin: miter"/>
     <use xlink:href="#m116770db53" x="254.931587" y="48.374397" style="fill: #009435; stroke: #009435; stroke-linejoin: miter"/>
     <use xlink:href="#m116770db53" x="260.090293" y="48.373633" style="fill: #009435; stroke: #009435; stroke-linejoin: miter"/>
     <use xlink:href="#m116770db53" x="265.248998" y="48.373633" style="fill: #009435; stroke: #009435; stroke-linejoin: miter"/>
     <use xlink:href="#m116770db53" x="270.407704" y="48.373633" style="fill: #009435; stroke: #009435; stroke-linejoin: miter"/>
     <use xlink:href="#m116770db53" x="275.56641" y="48.373633" style="fill: #009435; stroke: #009435; stroke-linejoin: miter"/>
     <use xlink:href="#m116770db53" x="280.725116" y="48.373633" style="fill: #009435; stroke: #009435; stroke-linejoin: miter"/>
     <use xlink:href="#m116770db53" x="285.883821" y="48.083129" style="fill: #009435; stroke: #009435; stroke-linejoin: miter"/>
     <use xlink:href="#m116770db53" x="291.042527" y="48.083129" style="fill: #009435; stroke: #009435; stroke-linejoin: miter"/>
     <use xlink:href="#m116770db53" x="296.201233" y="48.083129" style="fill: #009435; stroke: #009435; stroke-linejoin: miter"/>
     <use xlink:href="#m116770db53" x="301.359938" y="48.083129" style="fill: #009435; stroke: #009435; stroke-linejoin: miter"/>
     <use xlink:href="#m116770db53" x="306.518644" y="48.083129" style="fill: #009435; stroke: #009435; stroke-linejoin: miter"/>
     <use xlink:href="#m116770db53" x="311.67735" y="48.083129" style="fill: #009435; stroke: #009435; stroke-linejoin: miter"/>
     <use xlink:href="#m116770db53" x="316.836055" y="48.083129" style="fill: #009435; stroke: #009435; stroke-linejoin: miter"/>
     <use xlink:href="#m116770db53" x="321.994761" y="48.374397" style="fill: #009435; stroke: #009435; stroke-linejoin: miter"/>
     <use xlink:href="#m116770db53" x="327.153467" y="48.083129" style="fill: #009435; stroke: #009435; stroke-linejoin: miter"/>
     <use xlink:href="#m116770db53" x="332.312173" y="48.374397" style="fill: #009435; stroke: #009435; stroke-linejoin: miter"/>
     <use xlink:href="#m116770db53" x="337.470878" y="48.374397" style="fill: #009435; stroke: #009435; stroke-linejoin: miter"/>
     <use xlink:href="#m116770db53" x="342.629584" y="48.374397" style="fill: #009435; stroke: #009435; stroke-linejoin: miter"/>
     <use xlink:href="#m116770db53" x="347.78829" y="48.374397" style="fill: #009435; stroke: #009435; stroke-linejoin: miter"/>
     <use xlink:href="#m116770db53" x="352.946995" y="48.374397" style="fill: #009435; stroke: #009435; stroke-linejoin: miter"/>
     <use xlink:href="#m116770db53" x="358.105701" y="48.374397" style="fill: #009435; stroke: #009435; stroke-linejoin: miter"/>
     <use xlink:href="#m116770db53" x="363.264407" y="48.374397" style="fill: #009435; stroke: #009435; stroke-linejoin: miter"/>
     <use xlink:href="#m116770db53" x="368.423112" y="48.374397" style="fill: #009435; stroke: #009435; stroke-linejoin: miter"/>
     <use xlink:href="#m116770db53" x="373.581818" y="48.374397" style="fill: #009435; stroke: #009435; stroke-linejoin: miter"/>
    </g>
   </g>
   <g id="patch_3">
    <path d="M 54 252 
L 54 34.56 
" style="fill: none; stroke: #000000; stroke-width: 0.8; stroke-linejoin: miter; stroke-linecap: square"/>
   </g>
   <g id="patch_4">
    <path d="M 388.8 252 
L 388.8 34.56 
" style="fill: none; stroke: #000000; stroke-width: 0.8; stroke-linejoin: miter; stroke-linecap: square"/>
   </g>
   <g id="patch_5">
    <path d="M 54 252 
L 388.8 252 
" style="fill: none; stroke: #000000; stroke-width: 0.8; stroke-linejoin: miter; stroke-linecap: square"/>
   </g>
   <g id="patch_6">
    <path d="M 54 34.56 
L 388.8 34.56 
" style="fill: none; stroke: #000000; stroke-width: 0.8; stroke-linejoin: miter; stroke-linecap: square"/>
   </g>
   <g id="text_17">
    <!-- ζ-EB agent policy with beta = 0.5 -->
    <g transform="translate(120.797813 28.56)scale(0.12 -0.12)">
     <defs>
      <path id="DejaVuSans-3b6" d="M 2231 397 
Q 2644 394 2891 159 
Q 3153 -88 3153 -463 
Q 3153 -822 2922 -1072 
Q 2672 -1344 2163 -1344 
Q 2163 -1109 2163 -872 
Q 2378 -888 2509 -750 
Q 2609 -641 2609 -525 
Q 2609 -359 2509 -222 
Q 2413 -91 2231 -91 
Q 338 -91 334 1669 
Q 334 3206 2119 4284 
L 456 4284 
L 456 4863 
L 3175 4863 
L 3175 4284 
Q 913 3147 913 1669 
Q 913 397 2231 397 
z
" transform="scale(0.015625)"/>
      <path id="DejaVuSans-2d" d="M 313 2009 
L 1997 2009 
L 1997 1497 
L 313 1497 
L 313 2009 
z
" transform="scale(0.015625)"/>
      <path id="DejaVuSans-45" d="M 628 4666 
L 3578 4666 
L 3578 4134 
L 1259 4134 
L 1259 2753 
L 3481 2753 
L 3481 2222 
L 1259 2222 
L 1259 531 
L 3634 531 
L 3634 0 
L 628 0 
L 628 4666 
z
" transform="scale(0.015625)"/>
      <path id="DejaVuSans-42" d="M 1259 2228 
L 1259 519 
L 2272 519 
Q 2781 519 3026 730 
Q 3272 941 3272 1375 
Q 3272 1813 3026 2020 
Q 2781 2228 2272 2228 
L 1259 2228 
z
M 1259 4147 
L 1259 2741 
L 2194 2741 
Q 2656 2741 2882 2914 
Q 3109 3088 3109 3444 
Q 3109 3797 2882 3972 
Q 2656 4147 2194 4147 
L 1259 4147 
z
M 628 4666 
L 2241 4666 
Q 2963 4666 3353 4366 
Q 3744 4066 3744 3513 
Q 3744 3084 3544 2831 
Q 3344 2578 2956 2516 
Q 3422 2416 3680 2098 
Q 3938 1781 3938 1306 
Q 3938 681 3513 340 
Q 3088 0 2303 0 
L 628 0 
L 628 4666 
z
" transform="scale(0.015625)"/>
      <path id="DejaVuSans-67" d="M 2906 1791 
Q 2906 2416 2648 2759 
Q 2391 3103 1925 3103 
Q 1463 3103 1205 2759 
Q 947 2416 947 1791 
Q 947 1169 1205 825 
Q 1463 481 1925 481 
Q 2391 481 2648 825 
Q 2906 1169 2906 1791 
z
M 3481 434 
Q 3481 -459 3084 -895 
Q 2688 -1331 1869 -1331 
Q 1566 -1331 1297 -1286 
Q 1028 -1241 775 -1147 
L 775 -588 
Q 1028 -725 1275 -790 
Q 1522 -856 1778 -856 
Q 2344 -856 2625 -561 
Q 2906 -266 2906 331 
L 2906 616 
Q 2728 306 2450 153 
Q 2172 0 1784 0 
Q 1141 0 747 490 
Q 353 981 353 1791 
Q 353 2603 747 3093 
Q 1141 3584 1784 3584 
Q 2172 3584 2450 3431 
Q 2728 3278 2906 2969 
L 2906 3500 
L 3481 3500 
L 3481 434 
z
" transform="scale(0.015625)"/>
      <path id="DejaVuSans-6e" d="M 3513 2113 
L 3513 0 
L 2938 0 
L 2938 2094 
Q 2938 2591 2744 2837 
Q 2550 3084 2163 3084 
Q 1697 3084 1428 2787 
Q 1159 2491 1159 1978 
L 1159 0 
L 581 0 
L 581 3500 
L 1159 3500 
L 1159 2956 
Q 1366 3272 1645 3428 
Q 1925 3584 2291 3584 
Q 2894 3584 3203 3211 
Q 3513 2838 3513 2113 
z
" transform="scale(0.015625)"/>
      <path id="DejaVuSans-77" d="M 269 3500 
L 844 3500 
L 1563 769 
L 2278 3500 
L 2956 3500 
L 3675 769 
L 4391 3500 
L 4966 3500 
L 4050 0 
L 3372 0 
L 2619 2869 
L 1863 0 
L 1184 0 
L 269 3500 
z
" transform="scale(0.015625)"/>
      <path id="DejaVuSans-68" d="M 3513 2113 
L 3513 0 
L 2938 0 
L 2938 2094 
Q 2938 2591 2744 2837 
Q 2550 3084 2163 3084 
Q 1697 3084 1428 2787 
Q 1159 2491 1159 1978 
L 1159 0 
L 581 0 
L 581 4863 
L 1159 4863 
L 1159 2956 
Q 1366 3272 1645 3428 
Q 1925 3584 2291 3584 
Q 2894 3584 3203 3211 
Q 3513 2838 3513 2113 
z
" transform="scale(0.015625)"/>
      <path id="DejaVuSans-62" d="M 3116 1747 
Q 3116 2381 2855 2742 
Q 2594 3103 2138 3103 
Q 1681 3103 1420 2742 
Q 1159 2381 1159 1747 
Q 1159 1113 1420 752 
Q 1681 391 2138 391 
Q 2594 391 2855 752 
Q 3116 1113 3116 1747 
z
M 1159 2969 
Q 1341 3281 1617 3432 
Q 1894 3584 2278 3584 
Q 2916 3584 3314 3078 
Q 3713 2572 3713 1747 
Q 3713 922 3314 415 
Q 2916 -91 2278 -91 
Q 1894 -91 1617 61 
Q 1341 213 1159 525 
L 1159 0 
L 581 0 
L 581 4863 
L 1159 4863 
L 1159 2969 
z
" transform="scale(0.015625)"/>
      <path id="DejaVuSans-3d" d="M 678 2906 
L 4684 2906 
L 4684 2381 
L 678 2381 
L 678 2906 
z
M 678 1631 
L 4684 1631 
L 4684 1100 
L 678 1100 
L 678 1631 
z
" transform="scale(0.015625)"/>
      <path id="DejaVuSans-2e" d="M 684 794 
L 1344 794 
L 1344 0 
L 684 0 
L 684 794 
z
" transform="scale(0.015625)"/>
     </defs>
     <use xlink:href="#DejaVuSans-3b6"/>
     <use xlink:href="#DejaVuSans-2d" x="54.394531"/>
     <use xlink:href="#DejaVuSans-45" x="90.478516"/>
     <use xlink:href="#DejaVuSans-42" x="153.662109"/>
     <use xlink:href="#DejaVuSans-20" x="222.265625"/>
     <use xlink:href="#DejaVuSans-61" x="254.052734"/>
     <use xlink:href="#DejaVuSans-67" x="315.332031"/>
     <use xlink:href="#DejaVuSans-65" x="378.808594"/>
     <use xlink:href="#DejaVuSans-6e" x="440.332031"/>
     <use xlink:href="#DejaVuSans-74" x="503.710938"/>
     <use xlink:href="#DejaVuSans-20" x="542.919922"/>
     <use xlink:href="#DejaVuSans-70" x="574.707031"/>
     <use xlink:href="#DejaVuSans-6f" x="638.183594"/>
     <use xlink:href="#DejaVuSans-6c" x="699.365234"/>
     <use xlink:href="#DejaVuSans-69" x="727.148438"/>
     <use xlink:href="#DejaVuSans-63" x="754.931641"/>
     <use xlink:href="#DejaVuSans-79" x="809.912109"/>
     <use xlink:href="#DejaVuSans-20" x="869.091797"/>
     <use xlink:href="#DejaVuSans-77" x="900.878906"/>
     <use xlink:href="#DejaVuSans-69" x="982.666016"/>
     <use xlink:href="#DejaVuSans-74" x="1010.449219"/>
     <use xlink:href="#DejaVuSans-68" x="1049.658203"/>
     <use xlink:href="#DejaVuSans-20" x="1113.037109"/>
     <use xlink:href="#DejaVuSans-62" x="1144.824219"/>
     <use xlink:href="#DejaVuSans-65" x="1208.300781"/>
     <use xlink:href="#DejaVuSans-74" x="1269.824219"/>
     <use xlink:href="#DejaVuSans-61" x="1309.033203"/>
     <use xlink:href="#DejaVuSans-20" x="1370.3125"/>
     <use xlink:href="#DejaVuSans-3d" x="1402.099609"/>
     <use xlink:href="#DejaVuSans-20" x="1485.888672"/>
     <use xlink:href="#DejaVuSans-30" x="1517.675781"/>
     <use xlink:href="#DejaVuSans-2e" x="1581.298828"/>
     <use xlink:href="#DejaVuSans-35" x="1613.085938"/>
    </g>
   </g>
   <g id="legend_1">
    <g id="patch_7">
     <path d="M 297.796875 247 
L 381.8 247 
Q 383.8 247 383.8 245 
L 383.8 172.609375 
Q 383.8 170.609375 381.8 170.609375 
L 297.796875 170.609375 
Q 295.796875 170.609375 295.796875 172.609375 
L 295.796875 245 
Q 295.796875 247 297.796875 247 
z
" style="fill: #ffffff; opacity: 0.8; stroke: #cccccc; stroke-linejoin: miter"/>
    </g>
    <g id="line2d_34">
     <path d="M 299.796875 178.707812 
L 309.796875 178.707812 
L 319.796875 178.707812 
" style="fill: none; stroke: #9d02d7; stroke-width: 1.5; stroke-linecap: square"/>
     <g>
      <use xlink:href="#m0c327bdabc" x="309.796875" y="178.707812" style="fill: #9d02d7; stroke: #9d02d7; stroke-linejoin: miter"/>
     </g>
    </g>
    <g id="text_18">
     <!-- alpha=0.1 -->
     <g transform="translate(327.796875 182.207812)scale(0.1 -0.1)">
      <use xlink:href="#DejaVuSans-61"/>
      <use xlink:href="#DejaVuSans-6c" x="61.279297"/>
      <use xlink:href="#DejaVuSans-70" x="89.0625"/>
      <use xlink:href="#DejaVuSans-68" x="152.539062"/>
      <use xlink:href="#DejaVuSans-61" x="215.917969"/>
      <use xlink:href="#DejaVuSans-3d" x="277.197266"/>
      <use xlink:href="#DejaVuSans-30" x="360.986328"/>
      <use xlink:href="#DejaVuSans-2e" x="424.609375"/>
      <use xlink:href="#DejaVuSans-31" x="456.396484"/>
     </g>
    </g>
    <g id="line2d_35">
     <path d="M 299.796875 193.385938 
L 309.796875 193.385938 
L 319.796875 193.385938 
" style="fill: none; stroke: #0000ff; stroke-width: 1.5; stroke-linecap: square"/>
     <g>
      <use xlink:href="#m48f4786cb8" x="309.796875" y="193.385938" style="fill: #0000ff; stroke: #0000ff"/>
     </g>
    </g>
    <g id="text_19">
     <!-- alpha=0.5 -->
     <g transform="translate(327.796875 196.885938)scale(0.1 -0.1)">
      <use xlink:href="#DejaVuSans-61"/>
      <use xlink:href="#DejaVuSans-6c" x="61.279297"/>
      <use xlink:href="#DejaVuSans-70" x="89.0625"/>
      <use xlink:href="#DejaVuSans-68" x="152.539062"/>
      <use xlink:href="#DejaVuSans-61" x="215.917969"/>
      <use xlink:href="#DejaVuSans-3d" x="277.197266"/>
      <use xlink:href="#DejaVuSans-30" x="360.986328"/>
      <use xlink:href="#DejaVuSans-2e" x="424.609375"/>
      <use xlink:href="#DejaVuSans-35" x="456.396484"/>
     </g>
    </g>
    <g id="line2d_36">
     <path d="M 299.796875 208.064063 
L 309.796875 208.064063 
L 319.796875 208.064063 
" style="fill: none; stroke: #ff7763; stroke-width: 1.5; stroke-linecap: square"/>
     <g>
      <use xlink:href="#m0e5dbfccf7" x="309.796875" y="208.064063" style="fill: #ff7763; stroke: #ff7763"/>
     </g>
    </g>
    <g id="text_20">
     <!-- alpha=1.0 -->
     <g transform="translate(327.796875 211.564063)scale(0.1 -0.1)">
      <use xlink:href="#DejaVuSans-61"/>
      <use xlink:href="#DejaVuSans-6c" x="61.279297"/>
      <use xlink:href="#DejaVuSans-70" x="89.0625"/>
      <use xlink:href="#DejaVuSans-68" x="152.539062"/>
      <use xlink:href="#DejaVuSans-61" x="215.917969"/>
      <use xlink:href="#DejaVuSans-3d" x="277.197266"/>
      <use xlink:href="#DejaVuSans-31" x="360.986328"/>
      <use xlink:href="#DejaVuSans-2e" x="424.609375"/>
      <use xlink:href="#DejaVuSans-30" x="456.396484"/>
     </g>
    </g>
    <g id="line2d_37">
     <path d="M 299.796875 222.742188 
L 309.796875 222.742188 
L 319.796875 222.742188 
" style="fill: none; stroke: #ffac1e; stroke-width: 1.5; stroke-linecap: square"/>
     <g>
      <use xlink:href="#mcca68ca7f6" x="309.796875" y="222.742188" style="fill: #ffac1e; stroke: #ffac1e; stroke-linejoin: bevel"/>
     </g>
    </g>
    <g id="text_21">
     <!-- alpha=1.5 -->
     <g transform="translate(327.796875 226.242188)scale(0.1 -0.1)">
      <use xlink:href="#DejaVuSans-61"/>
      <use xlink:href="#DejaVuSans-6c" x="61.279297"/>
      <use xlink:href="#DejaVuSans-70" x="89.0625"/>
      <use xlink:href="#DejaVuSans-68" x="152.539062"/>
      <use xlink:href="#DejaVuSans-61" x="215.917969"/>
      <use xlink:href="#DejaVuSans-3d" x="277.197266"/>
      <use xlink:href="#DejaVuSans-31" x="360.986328"/>
      <use xlink:href="#DejaVuSans-2e" x="424.609375"/>
      <use xlink:href="#DejaVuSans-35" x="456.396484"/>
     </g>
    </g>
    <g id="line2d_38">
     <path d="M 299.796875 237.420313 
L 309.796875 237.420313 
L 319.796875 237.420313 
" style="fill: none; stroke: #009435; stroke-width: 1.5; stroke-linecap: square"/>
     <g>
      <use xlink:href="#m116770db53" x="309.796875" y="237.420313" style="fill: #009435; stroke: #009435; stroke-linejoin: miter"/>
     </g>
    </g>
    <g id="text_22">
     <!-- alpha=2.0 -->
     <g transform="translate(327.796875 240.920313)scale(0.1 -0.1)">
      <use xlink:href="#DejaVuSans-61"/>
      <use xlink:href="#DejaVuSans-6c" x="61.279297"/>
      <use xlink:href="#DejaVuSans-70" x="89.0625"/>
      <use xlink:href="#DejaVuSans-68" x="152.539062"/>
      <use xlink:href="#DejaVuSans-61" x="215.917969"/>
      <use xlink:href="#DejaVuSans-3d" x="277.197266"/>
      <use xlink:href="#DejaVuSans-32" x="360.986328"/>
      <use xlink:href="#DejaVuSans-2e" x="424.609375"/>
      <use xlink:href="#DejaVuSans-30" x="456.396484"/>
     </g>
    </g>
   </g>
  </g>
 </g>
 <defs>
  <clipPath id="p765359ef2c">
   <rect x="54" y="34.56" width="334.8" height="217.44"/>
  </clipPath>
 </defs>
</svg>
