<?xml version="1.0" encoding="utf-8" standalone="no"?>
<!DOCTYPE svg PUBLIC "-//W3C//DTD SVG 1.1//EN"
  "http://www.w3.org/Graphics/SVG/1.1/DTD/svg11.dtd">
<svg xmlns:xlink="http://www.w3.org/1999/xlink" width="432pt" height="288pt" viewBox="0 0 432 288" xmlns="http://www.w3.org/2000/svg" version="1.1">
 <metadata>
  <rdf:RDF xmlns:dc="http://purl.org/dc/elements/1.1/" xmlns:cc="http://creativecommons.org/ns#" xmlns:rdf="http://www.w3.org/1999/02/22-rdf-syntax-ns#">
   <cc:Work>
    <dc:type rdf:resource="http://purl.org/dc/dcmitype/StillImage"/>
    <dc:date>2023-01-11T15:36:09.221621</dc:date>
    <dc:format>image/svg+xml</dc:format>
    <dc:creator>
     <cc:Agent>
      <dc:title>Matplotlib v3.5.2, https://matplotlib.org/</dc:title>
     </cc:Agent>
    </dc:creator>
   </cc:Work>
  </rdf:RDF>
 </metadata>
 <defs>
  <style type="text/css">*{stroke-linejoin: round; stroke-linecap: butt}</style>
 </defs>
 <g id="figure_1">
  <g id="patch_1">
   <path d="M 0 288 
L 432 288 
L 432 0 
L 0 0 
z
" style="fill: #ffffff"/>
  </g>
  <g id="axes_1">
   <g id="patch_2">
    <path d="M 54 252 
L 388.8 252 
L 388.8 34.56 
L 54 34.56 
z
" style="fill: #ffffff"/>
   </g>
   <g id="PolyCollection_1">
    <defs>
     <path id="m3975fada5b" d="M 69.218182 -24.586454 
L 69.218182 -24.586454 
L 74.376888 -34.318438 
L 79.535593 -33.574482 
L 84.694299 -34.151294 
L 89.853005 -35.080478 
L 95.01171 -34.726597 
L 100.170416 -34.013155 
L 105.329122 -35.38183 
L 110.487827 -34.834733 
L 115.646533 -34.969049 
L 120.805239 -34.105426 
L 125.963945 -35.091182 
L 131.12265 -34.835607 
L 136.281356 -35.091182 
L 141.440062 -33.906636 
L 146.598767 -34.874725 
L 151.757473 -34.776017 
L 156.916179 -34.748162 
L 162.074884 -34.710688 
L 167.23359 -35.076416 
L 172.392296 -35.091182 
L 177.551002 -47.341022 
L 182.709707 -47.358035 
L 187.868413 -47.377091 
L 193.027119 -47.311786 
L 198.185824 -64.639568 
L 203.34453 -37.391584 
L 208.503236 -54.135431 
L 213.661941 -59.419621 
L 218.820647 -98.969269 
L 223.979353 -93.783625 
L 229.138059 -62.447645 
L 234.296764 -62.512989 
L 239.45547 -58.004602 
L 244.614176 -62.513931 
L 249.772881 -116.814396 
L 254.931587 -100.040111 
L 260.090293 -91.876495 
L 265.248998 -106.316906 
L 270.407704 -101.450054 
L 275.56641 -125.089048 
L 280.725116 -79.001729 
L 285.883821 -187.004702 
L 291.042527 -185.157914 
L 296.201233 -187.002325 
L 301.359938 -185.157914 
L 306.518644 -201.188433 
L 311.67735 -204.750108 
L 316.836055 -212.637762 
L 321.994761 -212.637768 
L 327.153467 -213.767403 
L 332.312173 -242.586891 
L 337.470878 -242.520436 
L 342.629584 -242.520436 
L 347.78829 -242.520436 
L 352.946995 -242.030348 
L 358.105701 -242.030348 
L 363.264407 -242.030348 
L 368.423112 -242.030348 
L 373.581818 -242.585749 
L 373.581818 -242.585749 
L 373.581818 -242.585749 
L 368.423112 -242.030348 
L 363.264407 -242.030348 
L 358.105701 -242.030348 
L 352.946995 -242.030348 
L 347.78829 -242.520436 
L 342.629584 -242.520436 
L 337.470878 -242.520436 
L 332.312173 -242.586891 
L 327.153467 -213.767403 
L 321.994761 -212.637768 
L 316.836055 -212.637762 
L 311.67735 -204.750108 
L 306.518644 -201.188433 
L 301.359938 -185.157914 
L 296.201233 -187.002325 
L 291.042527 -185.157914 
L 285.883821 -187.004702 
L 280.725116 -79.001729 
L 275.56641 -125.089048 
L 270.407704 -101.450054 
L 265.248998 -106.316906 
L 260.090293 -91.876495 
L 254.931587 -100.040111 
L 249.772881 -116.814396 
L 244.614176 -62.513931 
L 239.45547 -58.004602 
L 234.296764 -62.512989 
L 229.138059 -62.447645 
L 223.979353 -93.783625 
L 218.820647 -98.969269 
L 213.661941 -59.419621 
L 208.503236 -54.135431 
L 203.34453 -37.391584 
L 198.185824 -64.639568 
L 193.027119 -47.311786 
L 187.868413 -47.377091 
L 182.709707 -47.358035 
L 177.551002 -47.341022 
L 172.392296 -35.091182 
L 167.23359 -35.076416 
L 162.074884 -34.710688 
L 156.916179 -34.748162 
L 151.757473 -34.776017 
L 146.598767 -34.874725 
L 141.440062 -33.906636 
L 136.281356 -35.091182 
L 131.12265 -34.835607 
L 125.963945 -35.091182 
L 120.805239 -34.105426 
L 115.646533 -34.969049 
L 110.487827 -34.834733 
L 105.329122 -35.38183 
L 100.170416 -34.013155 
L 95.01171 -34.726597 
L 89.853005 -35.080478 
L 84.694299 -34.151294 
L 79.535593 -33.574482 
L 74.376888 -34.318438 
L 69.218182 -24.586454 
z
" style="stroke: #9d02d7; stroke-opacity: 0.2"/>
    </defs>
    <g clip-path="url(#p3968b6c271)">
     <use xlink:href="#m3975fada5b" x="0" y="288" style="fill: #9d02d7; fill-opacity: 0.2; stroke: #9d02d7; stroke-opacity: 0.2"/>
    </g>
   </g>
   <g id="PolyCollection_2">
    <defs>
     <path id="m383234dde7" d="M 69.218182 -25.175102 
L 69.218182 -25.175102 
L 74.376888 -35.091182 
L 79.535593 -34.898279 
L 84.694299 -35.071081 
L 89.853005 -35.04697 
L 95.01171 -34.62153 
L 100.170416 -35.065429 
L 105.329122 -35.099108 
L 110.487827 -35.091182 
L 115.646533 -34.846384 
L 120.805239 -33.989677 
L 125.963945 -35.091182 
L 131.12265 -35.085197 
L 136.281356 -35.091182 
L 141.440062 -35.080713 
L 146.598767 -34.834126 
L 151.757473 -35.091182 
L 156.916179 -35.200172 
L 162.074884 -35.091182 
L 167.23359 -37.433231 
L 172.392296 -34.743826 
L 177.551002 -35.171816 
L 182.709707 -35.088961 
L 187.868413 -35.091182 
L 193.027119 -35.175157 
L 198.185824 -35.091182 
L 203.34453 -34.819043 
L 208.503236 -35.091182 
L 213.661941 -35.091182 
L 218.820647 -35.091182 
L 223.979353 -36.972415 
L 229.138059 -35.082958 
L 234.296764 -34.977746 
L 239.45547 -35.009216 
L 244.614176 -35.091182 
L 249.772881 -35.000605 
L 254.931587 -35.013772 
L 260.090293 -35.040568 
L 265.248998 -40.529818 
L 270.407704 -39.844874 
L 275.56641 -40.438813 
L 280.725116 -40.253197 
L 285.883821 -52.116115 
L 291.042527 -46.813323 
L 296.201233 -46.958748 
L 301.359938 -46.958748 
L 306.518644 -46.958748 
L 311.67735 -46.958748 
L 316.836055 -47.776402 
L 321.994761 -47.263482 
L 327.153467 -235.856768 
L 332.312173 -242.392548 
L 337.470878 -242.392548 
L 342.629584 -243.690789 
L 347.78829 -244.801389 
L 352.946995 -243.690789 
L 358.105701 -244.801389 
L 363.264407 -244.801389 
L 368.423112 -244.801389 
L 373.581818 -244.798528 
L 373.581818 -244.798528 
L 373.581818 -244.798528 
L 368.423112 -244.801389 
L 363.264407 -244.801389 
L 358.105701 -244.801389 
L 352.946995 -243.690789 
L 347.78829 -244.801389 
L 342.629584 -243.690789 
L 337.470878 -242.392548 
L 332.312173 -242.392548 
L 327.153467 -235.856768 
L 321.994761 -47.263482 
L 316.836055 -47.776402 
L 311.67735 -46.958748 
L 306.518644 -46.958748 
L 301.359938 -46.958748 
L 296.201233 -46.958748 
L 291.042527 -46.813323 
L 285.883821 -52.116115 
L 280.725116 -40.253197 
L 275.56641 -40.438813 
L 270.407704 -39.844874 
L 265.248998 -40.529818 
L 260.090293 -35.040568 
L 254.931587 -35.013772 
L 249.772881 -35.000605 
L 244.614176 -35.091182 
L 239.45547 -35.009216 
L 234.296764 -34.977746 
L 229.138059 -35.082958 
L 223.979353 -36.972415 
L 218.820647 -35.091182 
L 213.661941 -35.091182 
L 208.503236 -35.091182 
L 203.34453 -34.819043 
L 198.185824 -35.091182 
L 193.027119 -35.175157 
L 187.868413 -35.091182 
L 182.709707 -35.088961 
L 177.551002 -35.171816 
L 172.392296 -34.743826 
L 167.23359 -37.433231 
L 162.074884 -35.091182 
L 156.916179 -35.200172 
L 151.757473 -35.091182 
L 146.598767 -34.834126 
L 141.440062 -35.080713 
L 136.281356 -35.091182 
L 131.12265 -35.085197 
L 125.963945 -35.091182 
L 120.805239 -33.989677 
L 115.646533 -34.846384 
L 110.487827 -35.091182 
L 105.329122 -35.099108 
L 100.170416 -35.065429 
L 95.01171 -34.62153 
L 89.853005 -35.04697 
L 84.694299 -35.071081 
L 79.535593 -34.898279 
L 74.376888 -35.091182 
L 69.218182 -25.175102 
z
" style="stroke: #0000ff; stroke-opacity: 0.2"/>
    </defs>
    <g clip-path="url(#p3968b6c271)">
     <use xlink:href="#m383234dde7" x="0" y="288" style="fill: #0000ff; fill-opacity: 0.2; stroke: #0000ff; stroke-opacity: 0.2"/>
    </g>
   </g>
   <g id="PolyCollection_3">
    <defs>
     <path id="mfeff34896a" d="M 69.218182 -28.03979 
L 69.218182 -28.03979 
L 74.376888 -35.091182 
L 79.535593 -124.061468 
L 84.694299 -50.350967 
L 89.853005 -39.214604 
L 95.01171 -47.375494 
L 100.170416 -81.950727 
L 105.329122 -175.094422 
L 110.487827 -87.452567 
L 115.646533 -83.450541 
L 120.805239 -81.929385 
L 125.963945 -49.205234 
L 131.12265 -38.609798 
L 136.281356 -60.366142 
L 141.440062 -49.588361 
L 146.598767 -49.730386 
L 151.757473 -41.512291 
L 156.916179 -41.376287 
L 162.074884 -41.383615 
L 167.23359 -44.697265 
L 172.392296 -44.703754 
L 177.551002 -66.104931 
L 182.709707 -64.782894 
L 187.868413 -68.903085 
L 193.027119 -70.22479 
L 198.185824 -68.903085 
L 203.34453 -70.224789 
L 208.503236 -68.900199 
L 213.661941 -70.226304 
L 218.820647 -70.188612 
L 223.979353 -70.226307 
L 229.138059 -70.188623 
L 234.296764 -70.18849 
L 239.45547 -70.188621 
L 244.614176 -70.188621 
L 249.772881 -54.92953 
L 254.931587 -54.983334 
L 260.090293 -54.983298 
L 265.248998 -54.983298 
L 270.407704 -63.948702 
L 275.56641 -63.886457 
L 280.725116 -69.251947 
L 285.883821 -52.755879 
L 291.042527 -66.716641 
L 296.201233 -66.709097 
L 301.359938 -53.291919 
L 306.518644 -54.537707 
L 311.67735 -54.636 
L 316.836055 -226.708727 
L 321.994761 -231.235948 
L 327.153467 -226.493493 
L 332.312173 -226.649914 
L 337.470878 -226.50965 
L 342.629584 -226.513447 
L 347.78829 -237.027092 
L 352.946995 -237.027092 
L 358.105701 -237.027092 
L 363.264407 -237.027092 
L 368.423112 -237.027092 
L 373.581818 -237.027092 
L 373.581818 -237.027092 
L 373.581818 -237.027092 
L 368.423112 -237.027092 
L 363.264407 -237.027092 
L 358.105701 -237.027092 
L 352.946995 -237.027092 
L 347.78829 -237.027092 
L 342.629584 -226.513447 
L 337.470878 -226.50965 
L 332.312173 -226.649914 
L 327.153467 -226.493493 
L 321.994761 -231.235948 
L 316.836055 -226.708727 
L 311.67735 -54.636 
L 306.518644 -54.537707 
L 301.359938 -53.291919 
L 296.201233 -66.709097 
L 291.042527 -66.716641 
L 285.883821 -52.755879 
L 280.725116 -69.251947 
L 275.56641 -63.886457 
L 270.407704 -63.948702 
L 265.248998 -54.983298 
L 260.090293 -54.983298 
L 254.931587 -54.983334 
L 249.772881 -54.92953 
L 244.614176 -70.188621 
L 239.45547 -70.188621 
L 234.296764 -70.18849 
L 229.138059 -70.188623 
L 223.979353 -70.226307 
L 218.820647 -70.188612 
L 213.661941 -70.226304 
L 208.503236 -68.900199 
L 203.34453 -70.224789 
L 198.185824 -68.903085 
L 193.027119 -70.22479 
L 187.868413 -68.903085 
L 182.709707 -64.782894 
L 177.551002 -66.104931 
L 172.392296 -44.703754 
L 167.23359 -44.697265 
L 162.074884 -41.383615 
L 156.916179 -41.376287 
L 151.757473 -41.512291 
L 146.598767 -49.730386 
L 141.440062 -49.588361 
L 136.281356 -60.366142 
L 131.12265 -38.609798 
L 125.963945 -49.205234 
L 120.805239 -81.929385 
L 115.646533 -83.450541 
L 110.487827 -87.452567 
L 105.329122 -175.094422 
L 100.170416 -81.950727 
L 95.01171 -47.375494 
L 89.853005 -39.214604 
L 84.694299 -50.350967 
L 79.535593 -124.061468 
L 74.376888 -35.091182 
L 69.218182 -28.03979 
z
" style="stroke: #ff7763; stroke-opacity: 0.2"/>
    </defs>
    <g clip-path="url(#p3968b6c271)">
     <use xlink:href="#mfeff34896a" x="0" y="288" style="fill: #ff7763; fill-opacity: 0.2; stroke: #ff7763; stroke-opacity: 0.2"/>
    </g>
   </g>
   <g id="PolyCollection_4">
    <defs>
     <path id="m47698fe0a3" d="M 69.218182 -28.870383 
L 69.218182 -28.870383 
L 74.376888 -35.091182 
L 79.535593 -117.254659 
L 84.694299 -176.117753 
L 89.853005 -47.297994 
L 95.01171 -47.344415 
L 100.170416 -48.10574 
L 105.329122 -192.426542 
L 110.487827 -47.88381 
L 115.646533 -106.086673 
L 120.805239 -196.492637 
L 125.963945 -191.847464 
L 131.12265 -195.215617 
L 136.281356 -55.734184 
L 141.440062 -191.320606 
L 146.598767 -194.13384 
L 151.757473 -50.854579 
L 156.916179 -37.586997 
L 162.074884 -42.897373 
L 167.23359 -73.282926 
L 172.392296 -39.59109 
L 177.551002 -138.881903 
L 182.709707 -62.396807 
L 187.868413 -72.618074 
L 193.027119 -69.92308 
L 198.185824 -202.59448 
L 203.34453 -74.088713 
L 208.503236 -73.776435 
L 213.661941 -69.900081 
L 218.820647 -150.977118 
L 223.979353 -65.444133 
L 229.138059 -47.904925 
L 234.296764 -200.133776 
L 239.45547 -222.350677 
L 244.614176 -202.74288 
L 249.772881 -211.550637 
L 254.931587 -223.335361 
L 260.090293 -211.154163 
L 265.248998 -202.61271 
L 270.407704 -204.797469 
L 275.56641 -221.897638 
L 280.725116 -221.897638 
L 285.883821 -221.897638 
L 291.042527 -221.195322 
L 296.201233 -231.963499 
L 301.359938 -231.711149 
L 306.518644 -241.0775 
L 311.67735 -241.075312 
L 316.836055 -241.075312 
L 321.994761 -241.07535 
L 327.153467 -241.07535 
L 332.312173 -241.07535 
L 337.470878 -241.309922 
L 342.629584 -244.545043 
L 347.78829 -244.802216 
L 352.946995 -244.415059 
L 358.105701 -244.415059 
L 363.264407 -244.934442 
L 368.423112 -244.415059 
L 373.581818 -244.415059 
L 373.581818 -244.415059 
L 373.581818 -244.415059 
L 368.423112 -244.415059 
L 363.264407 -244.934442 
L 358.105701 -244.415059 
L 352.946995 -244.415059 
L 347.78829 -244.802216 
L 342.629584 -244.545043 
L 337.470878 -241.309922 
L 332.312173 -241.07535 
L 327.153467 -241.07535 
L 321.994761 -241.07535 
L 316.836055 -241.075312 
L 311.67735 -241.075312 
L 306.518644 -241.0775 
L 301.359938 -231.711149 
L 296.201233 -231.963499 
L 291.042527 -221.195322 
L 285.883821 -221.897638 
L 280.725116 -221.897638 
L 275.56641 -221.897638 
L 270.407704 -204.797469 
L 265.248998 -202.61271 
L 260.090293 -211.154163 
L 254.931587 -223.335361 
L 249.772881 -211.550637 
L 244.614176 -202.74288 
L 239.45547 -222.350677 
L 234.296764 -200.133776 
L 229.138059 -47.904925 
L 223.979353 -65.444133 
L 218.820647 -150.977118 
L 213.661941 -69.900081 
L 208.503236 -73.776435 
L 203.34453 -74.088713 
L 198.185824 -202.59448 
L 193.027119 -69.92308 
L 187.868413 -72.618074 
L 182.709707 -62.396807 
L 177.551002 -138.881903 
L 172.392296 -39.59109 
L 167.23359 -73.282926 
L 162.074884 -42.897373 
L 156.916179 -37.586997 
L 151.757473 -50.854579 
L 146.598767 -194.13384 
L 141.440062 -191.320606 
L 136.281356 -55.734184 
L 131.12265 -195.215617 
L 125.963945 -191.847464 
L 120.805239 -196.492637 
L 115.646533 -106.086673 
L 110.487827 -47.88381 
L 105.329122 -192.426542 
L 100.170416 -48.10574 
L 95.01171 -47.344415 
L 89.853005 -47.297994 
L 84.694299 -176.117753 
L 79.535593 -117.254659 
L 74.376888 -35.091182 
L 69.218182 -28.870383 
z
" style="stroke: #ffac1e; stroke-opacity: 0.2"/>
    </defs>
    <g clip-path="url(#p3968b6c271)">
     <use xlink:href="#m47698fe0a3" x="0" y="288" style="fill: #ffac1e; fill-opacity: 0.2; stroke: #ffac1e; stroke-opacity: 0.2"/>
    </g>
   </g>
   <g id="PolyCollection_5">
    <defs>
     <path id="m5977d5b5f5" d="M 69.218182 -33.027143 
L 69.218182 -33.027143 
L 74.376888 -31.994939 
L 79.535593 -35.064485 
L 84.694299 -34.856197 
L 89.853005 -34.954993 
L 95.01171 -35.091182 
L 100.170416 -35.091182 
L 105.329122 -34.76756 
L 110.487827 -22.859721 
L 115.646533 -35.091182 
L 120.805239 -35.091182 
L 125.963945 -25.829359 
L 131.12265 -31.938091 
L 136.281356 -34.734797 
L 141.440062 -35.091182 
L 146.598767 -33.941671 
L 151.757473 -34.942155 
L 156.916179 -33.59645 
L 162.074884 -22.251284 
L 167.23359 -35.091182 
L 172.392296 -26.62659 
L 177.551002 -33.257773 
L 182.709707 -37.00533 
L 187.868413 -86.416312 
L 193.027119 -21.225585 
L 198.185824 -64.17788 
L 203.34453 -35.82933 
L 208.503236 -62.100599 
L 213.661941 -71.408008 
L 218.820647 -43.394174 
L 223.979353 -41.019085 
L 229.138059 -48.785542 
L 234.296764 -36.69874 
L 239.45547 -34.551717 
L 244.614176 -32.88834 
L 249.772881 -32.88927 
L 254.931587 -32.886736 
L 260.090293 -36.144803 
L 265.248998 -33.846933 
L 270.407704 -34.089045 
L 275.56641 -33.106077 
L 280.725116 -34.790704 
L 285.883821 -33.733875 
L 291.042527 -33.428687 
L 296.201233 -33.57806 
L 301.359938 -37.785723 
L 306.518644 -33.562992 
L 311.67735 -40.890786 
L 316.836055 -38.07226 
L 321.994761 -37.103553 
L 327.153467 -26.741019 
L 332.312173 -192.836839 
L 337.470878 -160.135093 
L 342.629584 -208.098707 
L 347.78829 -169.98707 
L 352.946995 -207.23857 
L 358.105701 -225.207037 
L 363.264407 -191.21836 
L 368.423112 -225.207037 
L 373.581818 -191.21836 
L 373.581818 -191.21836 
L 373.581818 -191.21836 
L 368.423112 -225.207037 
L 363.264407 -191.21836 
L 358.105701 -225.207037 
L 352.946995 -207.23857 
L 347.78829 -169.98707 
L 342.629584 -208.098707 
L 337.470878 -160.135093 
L 332.312173 -192.836839 
L 327.153467 -26.741019 
L 321.994761 -37.103553 
L 316.836055 -38.07226 
L 311.67735 -40.890786 
L 306.518644 -33.562992 
L 301.359938 -37.785723 
L 296.201233 -33.57806 
L 291.042527 -33.428687 
L 285.883821 -33.733875 
L 280.725116 -34.790704 
L 275.56641 -33.106077 
L 270.407704 -34.089045 
L 265.248998 -33.846933 
L 260.090293 -36.144803 
L 254.931587 -32.886736 
L 249.772881 -32.88927 
L 244.614176 -32.88834 
L 239.45547 -34.551717 
L 234.296764 -36.69874 
L 229.138059 -48.785542 
L 223.979353 -41.019085 
L 218.820647 -43.394174 
L 213.661941 -71.408008 
L 208.503236 -62.100599 
L 203.34453 -35.82933 
L 198.185824 -64.17788 
L 193.027119 -21.225585 
L 187.868413 -86.416312 
L 182.709707 -37.00533 
L 177.551002 -33.257773 
L 172.392296 -26.62659 
L 167.23359 -35.091182 
L 162.074884 -22.251284 
L 156.916179 -33.59645 
L 151.757473 -34.942155 
L 146.598767 -33.941671 
L 141.440062 -35.091182 
L 136.281356 -34.734797 
L 131.12265 -31.938091 
L 125.963945 -25.829359 
L 120.805239 -35.091182 
L 115.646533 -35.091182 
L 110.487827 -22.859721 
L 105.329122 -34.76756 
L 100.170416 -35.091182 
L 95.01171 -35.091182 
L 89.853005 -34.954993 
L 84.694299 -34.856197 
L 79.535593 -35.064485 
L 74.376888 -31.994939 
L 69.218182 -33.027143 
z
" style="stroke: #009435; stroke-opacity: 0.2"/>
    </defs>
    <g clip-path="url(#p3968b6c271)">
     <use xlink:href="#m5977d5b5f5" x="0" y="288" style="fill: #009435; fill-opacity: 0.2; stroke: #009435; stroke-opacity: 0.2"/>
    </g>
   </g>
   <g id="matplotlib.axis_1">
    <g id="xtick_1">
     <g id="line2d_1">
      <path d="M 69.218182 252 
L 69.218182 34.56 
" clip-path="url(#p3968b6c271)" style="fill: none; stroke-dasharray: 2.96,1.28; stroke-dashoffset: 0; stroke: #b0b0b0; stroke-width: 0.8"/>
     </g>
     <g id="line2d_2">
      <defs>
       <path id="m45f8e53333" d="M 0 0 
L 0 3.5 
" style="stroke: #000000; stroke-width: 0.8"/>
      </defs>
      <g>
       <use xlink:href="#m45f8e53333" x="69.218182" y="252" style="stroke: #000000; stroke-width: 0.8"/>
      </g>
     </g>
     <g id="text_1">
      <!-- 0 -->
      <g transform="translate(66.036932 266.598437)scale(0.1 -0.1)">
       <defs>
        <path id="DejaVuSans-30" d="M 2034 4250 
Q 1547 4250 1301 3770 
Q 1056 3291 1056 2328 
Q 1056 1369 1301 889 
Q 1547 409 2034 409 
Q 2525 409 2770 889 
Q 3016 1369 3016 2328 
Q 3016 3291 2770 3770 
Q 2525 4250 2034 4250 
z
M 2034 4750 
Q 2819 4750 3233 4129 
Q 3647 3509 3647 2328 
Q 3647 1150 3233 529 
Q 2819 -91 2034 -91 
Q 1250 -91 836 529 
Q 422 1150 422 2328 
Q 422 3509 836 4129 
Q 1250 4750 2034 4750 
z
" transform="scale(0.015625)"/>
       </defs>
       <use xlink:href="#DejaVuSans-30"/>
      </g>
     </g>
    </g>
    <g id="xtick_2">
     <g id="line2d_3">
      <path d="M 120.805239 252 
L 120.805239 34.56 
" clip-path="url(#p3968b6c271)" style="fill: none; stroke-dasharray: 2.96,1.28; stroke-dashoffset: 0; stroke: #b0b0b0; stroke-width: 0.8"/>
     </g>
     <g id="line2d_4">
      <g>
       <use xlink:href="#m45f8e53333" x="120.805239" y="252" style="stroke: #000000; stroke-width: 0.8"/>
      </g>
     </g>
     <g id="text_2">
      <!-- 500 -->
      <g transform="translate(111.261489 266.598437)scale(0.1 -0.1)">
       <defs>
        <path id="DejaVuSans-35" d="M 691 4666 
L 3169 4666 
L 3169 4134 
L 1269 4134 
L 1269 2991 
Q 1406 3038 1543 3061 
Q 1681 3084 1819 3084 
Q 2600 3084 3056 2656 
Q 3513 2228 3513 1497 
Q 3513 744 3044 326 
Q 2575 -91 1722 -91 
Q 1428 -91 1123 -41 
Q 819 9 494 109 
L 494 744 
Q 775 591 1075 516 
Q 1375 441 1709 441 
Q 2250 441 2565 725 
Q 2881 1009 2881 1497 
Q 2881 1984 2565 2268 
Q 2250 2553 1709 2553 
Q 1456 2553 1204 2497 
Q 953 2441 691 2322 
L 691 4666 
z
" transform="scale(0.015625)"/>
       </defs>
       <use xlink:href="#DejaVuSans-35"/>
       <use xlink:href="#DejaVuSans-30" x="63.623047"/>
       <use xlink:href="#DejaVuSans-30" x="127.246094"/>
      </g>
     </g>
    </g>
    <g id="xtick_3">
     <g id="line2d_5">
      <path d="M 172.392296 252 
L 172.392296 34.56 
" clip-path="url(#p3968b6c271)" style="fill: none; stroke-dasharray: 2.96,1.28; stroke-dashoffset: 0; stroke: #b0b0b0; stroke-width: 0.8"/>
     </g>
     <g id="line2d_6">
      <g>
       <use xlink:href="#m45f8e53333" x="172.392296" y="252" style="stroke: #000000; stroke-width: 0.8"/>
      </g>
     </g>
     <g id="text_3">
      <!-- 1000 -->
      <g transform="translate(159.667296 266.598437)scale(0.1 -0.1)">
       <defs>
        <path id="DejaVuSans-31" d="M 794 531 
L 1825 531 
L 1825 4091 
L 703 3866 
L 703 4441 
L 1819 4666 
L 2450 4666 
L 2450 531 
L 3481 531 
L 3481 0 
L 794 0 
L 794 531 
z
" transform="scale(0.015625)"/>
       </defs>
       <use xlink:href="#DejaVuSans-31"/>
       <use xlink:href="#DejaVuSans-30" x="63.623047"/>
       <use xlink:href="#DejaVuSans-30" x="127.246094"/>
       <use xlink:href="#DejaVuSans-30" x="190.869141"/>
      </g>
     </g>
    </g>
    <g id="xtick_4">
     <g id="line2d_7">
      <path d="M 223.979353 252 
L 223.979353 34.56 
" clip-path="url(#p3968b6c271)" style="fill: none; stroke-dasharray: 2.96,1.28; stroke-dashoffset: 0; stroke: #b0b0b0; stroke-width: 0.8"/>
     </g>
     <g id="line2d_8">
      <g>
       <use xlink:href="#m45f8e53333" x="223.979353" y="252" style="stroke: #000000; stroke-width: 0.8"/>
      </g>
     </g>
     <g id="text_4">
      <!-- 1500 -->
      <g transform="translate(211.254353 266.598437)scale(0.1 -0.1)">
       <use xlink:href="#DejaVuSans-31"/>
       <use xlink:href="#DejaVuSans-35" x="63.623047"/>
       <use xlink:href="#DejaVuSans-30" x="127.246094"/>
       <use xlink:href="#DejaVuSans-30" x="190.869141"/>
      </g>
     </g>
    </g>
    <g id="xtick_5">
     <g id="line2d_9">
      <path d="M 275.56641 252 
L 275.56641 34.56 
" clip-path="url(#p3968b6c271)" style="fill: none; stroke-dasharray: 2.96,1.28; stroke-dashoffset: 0; stroke: #b0b0b0; stroke-width: 0.8"/>
     </g>
     <g id="line2d_10">
      <g>
       <use xlink:href="#m45f8e53333" x="275.56641" y="252" style="stroke: #000000; stroke-width: 0.8"/>
      </g>
     </g>
     <g id="text_5">
      <!-- 2000 -->
      <g transform="translate(262.84141 266.598437)scale(0.1 -0.1)">
       <defs>
        <path id="DejaVuSans-32" d="M 1228 531 
L 3431 531 
L 3431 0 
L 469 0 
L 469 531 
Q 828 903 1448 1529 
Q 2069 2156 2228 2338 
Q 2531 2678 2651 2914 
Q 2772 3150 2772 3378 
Q 2772 3750 2511 3984 
Q 2250 4219 1831 4219 
Q 1534 4219 1204 4116 
Q 875 4013 500 3803 
L 500 4441 
Q 881 4594 1212 4672 
Q 1544 4750 1819 4750 
Q 2544 4750 2975 4387 
Q 3406 4025 3406 3419 
Q 3406 3131 3298 2873 
Q 3191 2616 2906 2266 
Q 2828 2175 2409 1742 
Q 1991 1309 1228 531 
z
" transform="scale(0.015625)"/>
       </defs>
       <use xlink:href="#DejaVuSans-32"/>
       <use xlink:href="#DejaVuSans-30" x="63.623047"/>
       <use xlink:href="#DejaVuSans-30" x="127.246094"/>
       <use xlink:href="#DejaVuSans-30" x="190.869141"/>
      </g>
     </g>
    </g>
    <g id="xtick_6">
     <g id="line2d_11">
      <path d="M 327.153467 252 
L 327.153467 34.56 
" clip-path="url(#p3968b6c271)" style="fill: none; stroke-dasharray: 2.96,1.28; stroke-dashoffset: 0; stroke: #b0b0b0; stroke-width: 0.8"/>
     </g>
     <g id="line2d_12">
      <g>
       <use xlink:href="#m45f8e53333" x="327.153467" y="252" style="stroke: #000000; stroke-width: 0.8"/>
      </g>
     </g>
     <g id="text_6">
      <!-- 2500 -->
      <g transform="translate(314.428467 266.598437)scale(0.1 -0.1)">
       <use xlink:href="#DejaVuSans-32"/>
       <use xlink:href="#DejaVuSans-35" x="63.623047"/>
       <use xlink:href="#DejaVuSans-30" x="127.246094"/>
       <use xlink:href="#DejaVuSans-30" x="190.869141"/>
      </g>
     </g>
    </g>
    <g id="xtick_7">
     <g id="line2d_13">
      <path d="M 378.740524 252 
L 378.740524 34.56 
" clip-path="url(#p3968b6c271)" style="fill: none; stroke-dasharray: 2.96,1.28; stroke-dashoffset: 0; stroke: #b0b0b0; stroke-width: 0.8"/>
     </g>
     <g id="line2d_14">
      <g>
       <use xlink:href="#m45f8e53333" x="378.740524" y="252" style="stroke: #000000; stroke-width: 0.8"/>
      </g>
     </g>
     <g id="text_7">
      <!-- 3000 -->
      <g transform="translate(366.015524 266.598437)scale(0.1 -0.1)">
       <defs>
        <path id="DejaVuSans-33" d="M 2597 2516 
Q 3050 2419 3304 2112 
Q 3559 1806 3559 1356 
Q 3559 666 3084 287 
Q 2609 -91 1734 -91 
Q 1441 -91 1130 -33 
Q 819 25 488 141 
L 488 750 
Q 750 597 1062 519 
Q 1375 441 1716 441 
Q 2309 441 2620 675 
Q 2931 909 2931 1356 
Q 2931 1769 2642 2001 
Q 2353 2234 1838 2234 
L 1294 2234 
L 1294 2753 
L 1863 2753 
Q 2328 2753 2575 2939 
Q 2822 3125 2822 3475 
Q 2822 3834 2567 4026 
Q 2313 4219 1838 4219 
Q 1578 4219 1281 4162 
Q 984 4106 628 3988 
L 628 4550 
Q 988 4650 1302 4700 
Q 1616 4750 1894 4750 
Q 2613 4750 3031 4423 
Q 3450 4097 3450 3541 
Q 3450 3153 3228 2886 
Q 3006 2619 2597 2516 
z
" transform="scale(0.015625)"/>
       </defs>
       <use xlink:href="#DejaVuSans-33"/>
       <use xlink:href="#DejaVuSans-30" x="63.623047"/>
       <use xlink:href="#DejaVuSans-30" x="127.246094"/>
       <use xlink:href="#DejaVuSans-30" x="190.869141"/>
      </g>
     </g>
    </g>
    <g id="text_8">
     <!-- Steps -->
     <g transform="translate(207.410156 280.276563)scale(0.1 -0.1)">
      <defs>
       <path id="DejaVuSans-53" d="M 3425 4513 
L 3425 3897 
Q 3066 4069 2747 4153 
Q 2428 4238 2131 4238 
Q 1616 4238 1336 4038 
Q 1056 3838 1056 3469 
Q 1056 3159 1242 3001 
Q 1428 2844 1947 2747 
L 2328 2669 
Q 3034 2534 3370 2195 
Q 3706 1856 3706 1288 
Q 3706 609 3251 259 
Q 2797 -91 1919 -91 
Q 1588 -91 1214 -16 
Q 841 59 441 206 
L 441 856 
Q 825 641 1194 531 
Q 1563 422 1919 422 
Q 2459 422 2753 634 
Q 3047 847 3047 1241 
Q 3047 1584 2836 1778 
Q 2625 1972 2144 2069 
L 1759 2144 
Q 1053 2284 737 2584 
Q 422 2884 422 3419 
Q 422 4038 858 4394 
Q 1294 4750 2059 4750 
Q 2388 4750 2728 4690 
Q 3069 4631 3425 4513 
z
" transform="scale(0.015625)"/>
       <path id="DejaVuSans-74" d="M 1172 4494 
L 1172 3500 
L 2356 3500 
L 2356 3053 
L 1172 3053 
L 1172 1153 
Q 1172 725 1289 603 
Q 1406 481 1766 481 
L 2356 481 
L 2356 0 
L 1766 0 
Q 1100 0 847 248 
Q 594 497 594 1153 
L 594 3053 
L 172 3053 
L 172 3500 
L 594 3500 
L 594 4494 
L 1172 4494 
z
" transform="scale(0.015625)"/>
       <path id="DejaVuSans-65" d="M 3597 1894 
L 3597 1613 
L 953 1613 
Q 991 1019 1311 708 
Q 1631 397 2203 397 
Q 2534 397 2845 478 
Q 3156 559 3463 722 
L 3463 178 
Q 3153 47 2828 -22 
Q 2503 -91 2169 -91 
Q 1331 -91 842 396 
Q 353 884 353 1716 
Q 353 2575 817 3079 
Q 1281 3584 2069 3584 
Q 2775 3584 3186 3129 
Q 3597 2675 3597 1894 
z
M 3022 2063 
Q 3016 2534 2758 2815 
Q 2500 3097 2075 3097 
Q 1594 3097 1305 2825 
Q 1016 2553 972 2059 
L 3022 2063 
z
" transform="scale(0.015625)"/>
       <path id="DejaVuSans-70" d="M 1159 525 
L 1159 -1331 
L 581 -1331 
L 581 3500 
L 1159 3500 
L 1159 2969 
Q 1341 3281 1617 3432 
Q 1894 3584 2278 3584 
Q 2916 3584 3314 3078 
Q 3713 2572 3713 1747 
Q 3713 922 3314 415 
Q 2916 -91 2278 -91 
Q 1894 -91 1617 61 
Q 1341 213 1159 525 
z
M 3116 1747 
Q 3116 2381 2855 2742 
Q 2594 3103 2138 3103 
Q 1681 3103 1420 2742 
Q 1159 2381 1159 1747 
Q 1159 1113 1420 752 
Q 1681 391 2138 391 
Q 2594 391 2855 752 
Q 3116 1113 3116 1747 
z
" transform="scale(0.015625)"/>
       <path id="DejaVuSans-73" d="M 2834 3397 
L 2834 2853 
Q 2591 2978 2328 3040 
Q 2066 3103 1784 3103 
Q 1356 3103 1142 2972 
Q 928 2841 928 2578 
Q 928 2378 1081 2264 
Q 1234 2150 1697 2047 
L 1894 2003 
Q 2506 1872 2764 1633 
Q 3022 1394 3022 966 
Q 3022 478 2636 193 
Q 2250 -91 1575 -91 
Q 1294 -91 989 -36 
Q 684 19 347 128 
L 347 722 
Q 666 556 975 473 
Q 1284 391 1588 391 
Q 1994 391 2212 530 
Q 2431 669 2431 922 
Q 2431 1156 2273 1281 
Q 2116 1406 1581 1522 
L 1381 1569 
Q 847 1681 609 1914 
Q 372 2147 372 2553 
Q 372 3047 722 3315 
Q 1072 3584 1716 3584 
Q 2034 3584 2315 3537 
Q 2597 3491 2834 3397 
z
" transform="scale(0.015625)"/>
      </defs>
      <use xlink:href="#DejaVuSans-53"/>
      <use xlink:href="#DejaVuSans-74" x="63.476562"/>
      <use xlink:href="#DejaVuSans-65" x="102.685547"/>
      <use xlink:href="#DejaVuSans-70" x="164.208984"/>
      <use xlink:href="#DejaVuSans-73" x="227.685547"/>
     </g>
    </g>
   </g>
   <g id="matplotlib.axis_2">
    <g id="ytick_1">
     <g id="line2d_15">
      <path d="M 54 243.636923 
L 388.8 243.636923 
" clip-path="url(#p3968b6c271)" style="fill: none; stroke-dasharray: 2.96,1.28; stroke-dashoffset: 0; stroke: #b0b0b0; stroke-width: 0.8"/>
     </g>
     <g id="line2d_16">
      <defs>
       <path id="m4b139cb5e0" d="M 0 0 
L -3.5 0 
" style="stroke: #000000; stroke-width: 0.8"/>
      </defs>
      <g>
       <use xlink:href="#m4b139cb5e0" x="54" y="243.636923" style="stroke: #000000; stroke-width: 0.8"/>
      </g>
     </g>
     <g id="text_9">
      <!-- −12 -->
      <g transform="translate(25.895312 247.436142)scale(0.1 -0.1)">
       <defs>
        <path id="DejaVuSans-2212" d="M 678 2272 
L 4684 2272 
L 4684 1741 
L 678 1741 
L 678 2272 
z
" transform="scale(0.015625)"/>
       </defs>
       <use xlink:href="#DejaVuSans-2212"/>
       <use xlink:href="#DejaVuSans-31" x="83.789062"/>
       <use xlink:href="#DejaVuSans-32" x="147.412109"/>
      </g>
     </g>
    </g>
    <g id="ytick_2">
     <g id="line2d_17">
      <path d="M 54 210.184615 
L 388.8 210.184615 
" clip-path="url(#p3968b6c271)" style="fill: none; stroke-dasharray: 2.96,1.28; stroke-dashoffset: 0; stroke: #b0b0b0; stroke-width: 0.8"/>
     </g>
     <g id="line2d_18">
      <g>
       <use xlink:href="#m4b139cb5e0" x="54" y="210.184615" style="stroke: #000000; stroke-width: 0.8"/>
      </g>
     </g>
     <g id="text_10">
      <!-- −10 -->
      <g transform="translate(25.895312 213.983834)scale(0.1 -0.1)">
       <use xlink:href="#DejaVuSans-2212"/>
       <use xlink:href="#DejaVuSans-31" x="83.789062"/>
       <use xlink:href="#DejaVuSans-30" x="147.412109"/>
      </g>
     </g>
    </g>
    <g id="ytick_3">
     <g id="line2d_19">
      <path d="M 54 176.732308 
L 388.8 176.732308 
" clip-path="url(#p3968b6c271)" style="fill: none; stroke-dasharray: 2.96,1.28; stroke-dashoffset: 0; stroke: #b0b0b0; stroke-width: 0.8"/>
     </g>
     <g id="line2d_20">
      <g>
       <use xlink:href="#m4b139cb5e0" x="54" y="176.732308" style="stroke: #000000; stroke-width: 0.8"/>
      </g>
     </g>
     <g id="text_11">
      <!-- −8 -->
      <g transform="translate(32.257812 180.531526)scale(0.1 -0.1)">
       <defs>
        <path id="DejaVuSans-38" d="M 2034 2216 
Q 1584 2216 1326 1975 
Q 1069 1734 1069 1313 
Q 1069 891 1326 650 
Q 1584 409 2034 409 
Q 2484 409 2743 651 
Q 3003 894 3003 1313 
Q 3003 1734 2745 1975 
Q 2488 2216 2034 2216 
z
M 1403 2484 
Q 997 2584 770 2862 
Q 544 3141 544 3541 
Q 544 4100 942 4425 
Q 1341 4750 2034 4750 
Q 2731 4750 3128 4425 
Q 3525 4100 3525 3541 
Q 3525 3141 3298 2862 
Q 3072 2584 2669 2484 
Q 3125 2378 3379 2068 
Q 3634 1759 3634 1313 
Q 3634 634 3220 271 
Q 2806 -91 2034 -91 
Q 1263 -91 848 271 
Q 434 634 434 1313 
Q 434 1759 690 2068 
Q 947 2378 1403 2484 
z
M 1172 3481 
Q 1172 3119 1398 2916 
Q 1625 2713 2034 2713 
Q 2441 2713 2670 2916 
Q 2900 3119 2900 3481 
Q 2900 3844 2670 4047 
Q 2441 4250 2034 4250 
Q 1625 4250 1398 4047 
Q 1172 3844 1172 3481 
z
" transform="scale(0.015625)"/>
       </defs>
       <use xlink:href="#DejaVuSans-2212"/>
       <use xlink:href="#DejaVuSans-38" x="83.789062"/>
      </g>
     </g>
    </g>
    <g id="ytick_4">
     <g id="line2d_21">
      <path d="M 54 143.28 
L 388.8 143.28 
" clip-path="url(#p3968b6c271)" style="fill: none; stroke-dasharray: 2.96,1.28; stroke-dashoffset: 0; stroke: #b0b0b0; stroke-width: 0.8"/>
     </g>
     <g id="line2d_22">
      <g>
       <use xlink:href="#m4b139cb5e0" x="54" y="143.28" style="stroke: #000000; stroke-width: 0.8"/>
      </g>
     </g>
     <g id="text_12">
      <!-- −6 -->
      <g transform="translate(32.257812 147.079219)scale(0.1 -0.1)">
       <defs>
        <path id="DejaVuSans-36" d="M 2113 2584 
Q 1688 2584 1439 2293 
Q 1191 2003 1191 1497 
Q 1191 994 1439 701 
Q 1688 409 2113 409 
Q 2538 409 2786 701 
Q 3034 994 3034 1497 
Q 3034 2003 2786 2293 
Q 2538 2584 2113 2584 
z
M 3366 4563 
L 3366 3988 
Q 3128 4100 2886 4159 
Q 2644 4219 2406 4219 
Q 1781 4219 1451 3797 
Q 1122 3375 1075 2522 
Q 1259 2794 1537 2939 
Q 1816 3084 2150 3084 
Q 2853 3084 3261 2657 
Q 3669 2231 3669 1497 
Q 3669 778 3244 343 
Q 2819 -91 2113 -91 
Q 1303 -91 875 529 
Q 447 1150 447 2328 
Q 447 3434 972 4092 
Q 1497 4750 2381 4750 
Q 2619 4750 2861 4703 
Q 3103 4656 3366 4563 
z
" transform="scale(0.015625)"/>
       </defs>
       <use xlink:href="#DejaVuSans-2212"/>
       <use xlink:href="#DejaVuSans-36" x="83.789062"/>
      </g>
     </g>
    </g>
    <g id="ytick_5">
     <g id="line2d_23">
      <path d="M 54 109.827692 
L 388.8 109.827692 
" clip-path="url(#p3968b6c271)" style="fill: none; stroke-dasharray: 2.96,1.28; stroke-dashoffset: 0; stroke: #b0b0b0; stroke-width: 0.8"/>
     </g>
     <g id="line2d_24">
      <g>
       <use xlink:href="#m4b139cb5e0" x="54" y="109.827692" style="stroke: #000000; stroke-width: 0.8"/>
      </g>
     </g>
     <g id="text_13">
      <!-- −4 -->
      <g transform="translate(32.257812 113.626911)scale(0.1 -0.1)">
       <defs>
        <path id="DejaVuSans-34" d="M 2419 4116 
L 825 1625 
L 2419 1625 
L 2419 4116 
z
M 2253 4666 
L 3047 4666 
L 3047 1625 
L 3713 1625 
L 3713 1100 
L 3047 1100 
L 3047 0 
L 2419 0 
L 2419 1100 
L 313 1100 
L 313 1709 
L 2253 4666 
z
" transform="scale(0.015625)"/>
       </defs>
       <use xlink:href="#DejaVuSans-2212"/>
       <use xlink:href="#DejaVuSans-34" x="83.789062"/>
      </g>
     </g>
    </g>
    <g id="ytick_6">
     <g id="line2d_25">
      <path d="M 54 76.375385 
L 388.8 76.375385 
" clip-path="url(#p3968b6c271)" style="fill: none; stroke-dasharray: 2.96,1.28; stroke-dashoffset: 0; stroke: #b0b0b0; stroke-width: 0.8"/>
     </g>
     <g id="line2d_26">
      <g>
       <use xlink:href="#m4b139cb5e0" x="54" y="76.375385" style="stroke: #000000; stroke-width: 0.8"/>
      </g>
     </g>
     <g id="text_14">
      <!-- −2 -->
      <g transform="translate(32.257812 80.174603)scale(0.1 -0.1)">
       <use xlink:href="#DejaVuSans-2212"/>
       <use xlink:href="#DejaVuSans-32" x="83.789062"/>
      </g>
     </g>
    </g>
    <g id="ytick_7">
     <g id="line2d_27">
      <path d="M 54 42.923077 
L 388.8 42.923077 
" clip-path="url(#p3968b6c271)" style="fill: none; stroke-dasharray: 2.96,1.28; stroke-dashoffset: 0; stroke: #b0b0b0; stroke-width: 0.8"/>
     </g>
     <g id="line2d_28">
      <g>
       <use xlink:href="#m4b139cb5e0" x="54" y="42.923077" style="stroke: #000000; stroke-width: 0.8"/>
      </g>
     </g>
     <g id="text_15">
      <!-- 0 -->
      <g transform="translate(40.6375 46.722296)scale(0.1 -0.1)">
       <use xlink:href="#DejaVuSans-30"/>
      </g>
     </g>
    </g>
    <g id="text_16">
     <!-- Policy value error -->
     <g transform="translate(19.815625 186.597969)rotate(-90)scale(0.1 -0.1)">
      <defs>
       <path id="DejaVuSans-50" d="M 1259 4147 
L 1259 2394 
L 2053 2394 
Q 2494 2394 2734 2622 
Q 2975 2850 2975 3272 
Q 2975 3691 2734 3919 
Q 2494 4147 2053 4147 
L 1259 4147 
z
M 628 4666 
L 2053 4666 
Q 2838 4666 3239 4311 
Q 3641 3956 3641 3272 
Q 3641 2581 3239 2228 
Q 2838 1875 2053 1875 
L 1259 1875 
L 1259 0 
L 628 0 
L 628 4666 
z
" transform="scale(0.015625)"/>
       <path id="DejaVuSans-6f" d="M 1959 3097 
Q 1497 3097 1228 2736 
Q 959 2375 959 1747 
Q 959 1119 1226 758 
Q 1494 397 1959 397 
Q 2419 397 2687 759 
Q 2956 1122 2956 1747 
Q 2956 2369 2687 2733 
Q 2419 3097 1959 3097 
z
M 1959 3584 
Q 2709 3584 3137 3096 
Q 3566 2609 3566 1747 
Q 3566 888 3137 398 
Q 2709 -91 1959 -91 
Q 1206 -91 779 398 
Q 353 888 353 1747 
Q 353 2609 779 3096 
Q 1206 3584 1959 3584 
z
" transform="scale(0.015625)"/>
       <path id="DejaVuSans-6c" d="M 603 4863 
L 1178 4863 
L 1178 0 
L 603 0 
L 603 4863 
z
" transform="scale(0.015625)"/>
       <path id="DejaVuSans-69" d="M 603 3500 
L 1178 3500 
L 1178 0 
L 603 0 
L 603 3500 
z
M 603 4863 
L 1178 4863 
L 1178 4134 
L 603 4134 
L 603 4863 
z
" transform="scale(0.015625)"/>
       <path id="DejaVuSans-63" d="M 3122 3366 
L 3122 2828 
Q 2878 2963 2633 3030 
Q 2388 3097 2138 3097 
Q 1578 3097 1268 2742 
Q 959 2388 959 1747 
Q 959 1106 1268 751 
Q 1578 397 2138 397 
Q 2388 397 2633 464 
Q 2878 531 3122 666 
L 3122 134 
Q 2881 22 2623 -34 
Q 2366 -91 2075 -91 
Q 1284 -91 818 406 
Q 353 903 353 1747 
Q 353 2603 823 3093 
Q 1294 3584 2113 3584 
Q 2378 3584 2631 3529 
Q 2884 3475 3122 3366 
z
" transform="scale(0.015625)"/>
       <path id="DejaVuSans-79" d="M 2059 -325 
Q 1816 -950 1584 -1140 
Q 1353 -1331 966 -1331 
L 506 -1331 
L 506 -850 
L 844 -850 
Q 1081 -850 1212 -737 
Q 1344 -625 1503 -206 
L 1606 56 
L 191 3500 
L 800 3500 
L 1894 763 
L 2988 3500 
L 3597 3500 
L 2059 -325 
z
" transform="scale(0.015625)"/>
       <path id="DejaVuSans-20" transform="scale(0.015625)"/>
       <path id="DejaVuSans-76" d="M 191 3500 
L 800 3500 
L 1894 563 
L 2988 3500 
L 3597 3500 
L 2284 0 
L 1503 0 
L 191 3500 
z
" transform="scale(0.015625)"/>
       <path id="DejaVuSans-61" d="M 2194 1759 
Q 1497 1759 1228 1600 
Q 959 1441 959 1056 
Q 959 750 1161 570 
Q 1363 391 1709 391 
Q 2188 391 2477 730 
Q 2766 1069 2766 1631 
L 2766 1759 
L 2194 1759 
z
M 3341 1997 
L 3341 0 
L 2766 0 
L 2766 531 
Q 2569 213 2275 61 
Q 1981 -91 1556 -91 
Q 1019 -91 701 211 
Q 384 513 384 1019 
Q 384 1609 779 1909 
Q 1175 2209 1959 2209 
L 2766 2209 
L 2766 2266 
Q 2766 2663 2505 2880 
Q 2244 3097 1772 3097 
Q 1472 3097 1187 3025 
Q 903 2953 641 2809 
L 641 3341 
Q 956 3463 1253 3523 
Q 1550 3584 1831 3584 
Q 2591 3584 2966 3190 
Q 3341 2797 3341 1997 
z
" transform="scale(0.015625)"/>
       <path id="DejaVuSans-75" d="M 544 1381 
L 544 3500 
L 1119 3500 
L 1119 1403 
Q 1119 906 1312 657 
Q 1506 409 1894 409 
Q 2359 409 2629 706 
Q 2900 1003 2900 1516 
L 2900 3500 
L 3475 3500 
L 3475 0 
L 2900 0 
L 2900 538 
Q 2691 219 2414 64 
Q 2138 -91 1772 -91 
Q 1169 -91 856 284 
Q 544 659 544 1381 
z
M 1991 3584 
L 1991 3584 
z
" transform="scale(0.015625)"/>
       <path id="DejaVuSans-72" d="M 2631 2963 
Q 2534 3019 2420 3045 
Q 2306 3072 2169 3072 
Q 1681 3072 1420 2755 
Q 1159 2438 1159 1844 
L 1159 0 
L 581 0 
L 581 3500 
L 1159 3500 
L 1159 2956 
Q 1341 3275 1631 3429 
Q 1922 3584 2338 3584 
Q 2397 3584 2469 3576 
Q 2541 3569 2628 3553 
L 2631 2963 
z
" transform="scale(0.015625)"/>
      </defs>
      <use xlink:href="#DejaVuSans-50"/>
      <use xlink:href="#DejaVuSans-6f" x="56.677734"/>
      <use xlink:href="#DejaVuSans-6c" x="117.859375"/>
      <use xlink:href="#DejaVuSans-69" x="145.642578"/>
      <use xlink:href="#DejaVuSans-63" x="173.425781"/>
      <use xlink:href="#DejaVuSans-79" x="228.40625"/>
      <use xlink:href="#DejaVuSans-20" x="287.585938"/>
      <use xlink:href="#DejaVuSans-76" x="319.373047"/>
      <use xlink:href="#DejaVuSans-61" x="378.552734"/>
      <use xlink:href="#DejaVuSans-6c" x="439.832031"/>
      <use xlink:href="#DejaVuSans-75" x="467.615234"/>
      <use xlink:href="#DejaVuSans-65" x="530.994141"/>
      <use xlink:href="#DejaVuSans-20" x="592.517578"/>
      <use xlink:href="#DejaVuSans-65" x="624.304688"/>
      <use xlink:href="#DejaVuSans-72" x="685.828125"/>
      <use xlink:href="#DejaVuSans-72" x="725.191406"/>
      <use xlink:href="#DejaVuSans-6f" x="764.054688"/>
      <use xlink:href="#DejaVuSans-72" x="825.236328"/>
     </g>
    </g>
   </g>
   <g id="line2d_29">
    <path d="M 69.218182 263.413546 
L 74.376888 253.681562 
L 79.535593 254.425518 
L 84.694299 253.848706 
L 89.853005 252.919522 
L 95.01171 253.273403 
L 100.170416 253.986845 
L 105.329122 252.61817 
L 110.487827 253.165267 
L 115.646533 253.030951 
L 120.805239 253.894574 
L 125.963945 252.908818 
L 131.12265 253.164393 
L 136.281356 252.908818 
L 141.440062 254.093364 
L 146.598767 253.125275 
L 151.757473 253.223983 
L 156.916179 253.251838 
L 162.074884 253.289312 
L 167.23359 252.923584 
L 172.392296 252.908818 
L 177.551002 240.658978 
L 182.709707 240.641965 
L 187.868413 240.622909 
L 193.027119 240.688214 
L 198.185824 223.360432 
L 203.34453 250.608416 
L 208.503236 233.864569 
L 213.661941 228.580379 
L 218.820647 189.030731 
L 223.979353 194.216375 
L 229.138059 225.552355 
L 234.296764 225.487011 
L 239.45547 229.995398 
L 244.614176 225.486069 
L 249.772881 171.185604 
L 254.931587 187.959889 
L 260.090293 196.123505 
L 265.248998 181.683094 
L 270.407704 186.549946 
L 275.56641 162.910952 
L 280.725116 208.998271 
L 285.883821 100.995298 
L 291.042527 102.842086 
L 296.201233 100.997675 
L 301.359938 102.842086 
L 306.518644 86.811567 
L 311.67735 83.249892 
L 316.836055 75.362238 
L 321.994761 75.362232 
L 327.153467 74.232597 
L 332.312173 45.413109 
L 337.470878 45.479564 
L 342.629584 45.479564 
L 347.78829 45.479564 
L 352.946995 45.969652 
L 358.105701 45.969652 
L 363.264407 45.969652 
L 368.423112 45.969652 
L 373.581818 45.414251 
" clip-path="url(#p3968b6c271)" style="fill: none; stroke: #9d02d7; stroke-width: 1.5; stroke-linecap: square"/>
    <defs>
     <path id="md8fc1bf867" d="M 0 -2 
L -2 2 
L 2 2 
z
" style="stroke: #9d02d7; stroke-linejoin: miter"/>
    </defs>
    <g clip-path="url(#p3968b6c271)">
     <use xlink:href="#md8fc1bf867" x="69.218182" y="263.413546" style="fill: #9d02d7; stroke: #9d02d7; stroke-linejoin: miter"/>
     <use xlink:href="#md8fc1bf867" x="74.376888" y="253.681562" style="fill: #9d02d7; stroke: #9d02d7; stroke-linejoin: miter"/>
     <use xlink:href="#md8fc1bf867" x="79.535593" y="254.425518" style="fill: #9d02d7; stroke: #9d02d7; stroke-linejoin: miter"/>
     <use xlink:href="#md8fc1bf867" x="84.694299" y="253.848706" style="fill: #9d02d7; stroke: #9d02d7; stroke-linejoin: miter"/>
     <use xlink:href="#md8fc1bf867" x="89.853005" y="252.919522" style="fill: #9d02d7; stroke: #9d02d7; stroke-linejoin: miter"/>
     <use xlink:href="#md8fc1bf867" x="95.01171" y="253.273403" style="fill: #9d02d7; stroke: #9d02d7; stroke-linejoin: miter"/>
     <use xlink:href="#md8fc1bf867" x="100.170416" y="253.986845" style="fill: #9d02d7; stroke: #9d02d7; stroke-linejoin: miter"/>
     <use xlink:href="#md8fc1bf867" x="105.329122" y="252.61817" style="fill: #9d02d7; stroke: #9d02d7; stroke-linejoin: miter"/>
     <use xlink:href="#md8fc1bf867" x="110.487827" y="253.165267" style="fill: #9d02d7; stroke: #9d02d7; stroke-linejoin: miter"/>
     <use xlink:href="#md8fc1bf867" x="115.646533" y="253.030951" style="fill: #9d02d7; stroke: #9d02d7; stroke-linejoin: miter"/>
     <use xlink:href="#md8fc1bf867" x="120.805239" y="253.894574" style="fill: #9d02d7; stroke: #9d02d7; stroke-linejoin: miter"/>
     <use xlink:href="#md8fc1bf867" x="125.963945" y="252.908818" style="fill: #9d02d7; stroke: #9d02d7; stroke-linejoin: miter"/>
     <use xlink:href="#md8fc1bf867" x="131.12265" y="253.164393" style="fill: #9d02d7; stroke: #9d02d7; stroke-linejoin: miter"/>
     <use xlink:href="#md8fc1bf867" x="136.281356" y="252.908818" style="fill: #9d02d7; stroke: #9d02d7; stroke-linejoin: miter"/>
     <use xlink:href="#md8fc1bf867" x="141.440062" y="254.093364" style="fill: #9d02d7; stroke: #9d02d7; stroke-linejoin: miter"/>
     <use xlink:href="#md8fc1bf867" x="146.598767" y="253.125275" style="fill: #9d02d7; stroke: #9d02d7; stroke-linejoin: miter"/>
     <use xlink:href="#md8fc1bf867" x="151.757473" y="253.223983" style="fill: #9d02d7; stroke: #9d02d7; stroke-linejoin: miter"/>
     <use xlink:href="#md8fc1bf867" x="156.916179" y="253.251838" style="fill: #9d02d7; stroke: #9d02d7; stroke-linejoin: miter"/>
     <use xlink:href="#md8fc1bf867" x="162.074884" y="253.289312" style="fill: #9d02d7; stroke: #9d02d7; stroke-linejoin: miter"/>
     <use xlink:href="#md8fc1bf867" x="167.23359" y="252.923584" style="fill: #9d02d7; stroke: #9d02d7; stroke-linejoin: miter"/>
     <use xlink:href="#md8fc1bf867" x="172.392296" y="252.908818" style="fill: #9d02d7; stroke: #9d02d7; stroke-linejoin: miter"/>
     <use xlink:href="#md8fc1bf867" x="177.551002" y="240.658978" style="fill: #9d02d7; stroke: #9d02d7; stroke-linejoin: miter"/>
     <use xlink:href="#md8fc1bf867" x="182.709707" y="240.641965" style="fill: #9d02d7; stroke: #9d02d7; stroke-linejoin: miter"/>
     <use xlink:href="#md8fc1bf867" x="187.868413" y="240.622909" style="fill: #9d02d7; stroke: #9d02d7; stroke-linejoin: miter"/>
     <use xlink:href="#md8fc1bf867" x="193.027119" y="240.688214" style="fill: #9d02d7; stroke: #9d02d7; stroke-linejoin: miter"/>
     <use xlink:href="#md8fc1bf867" x="198.185824" y="223.360432" style="fill: #9d02d7; stroke: #9d02d7; stroke-linejoin: miter"/>
     <use xlink:href="#md8fc1bf867" x="203.34453" y="250.608416" style="fill: #9d02d7; stroke: #9d02d7; stroke-linejoin: miter"/>
     <use xlink:href="#md8fc1bf867" x="208.503236" y="233.864569" style="fill: #9d02d7; stroke: #9d02d7; stroke-linejoin: miter"/>
     <use xlink:href="#md8fc1bf867" x="213.661941" y="228.580379" style="fill: #9d02d7; stroke: #9d02d7; stroke-linejoin: miter"/>
     <use xlink:href="#md8fc1bf867" x="218.820647" y="189.030731" style="fill: #9d02d7; stroke: #9d02d7; stroke-linejoin: miter"/>
     <use xlink:href="#md8fc1bf867" x="223.979353" y="194.216375" style="fill: #9d02d7; stroke: #9d02d7; stroke-linejoin: miter"/>
     <use xlink:href="#md8fc1bf867" x="229.138059" y="225.552355" style="fill: #9d02d7; stroke: #9d02d7; stroke-linejoin: miter"/>
     <use xlink:href="#md8fc1bf867" x="234.296764" y="225.487011" style="fill: #9d02d7; stroke: #9d02d7; stroke-linejoin: miter"/>
     <use xlink:href="#md8fc1bf867" x="239.45547" y="229.995398" style="fill: #9d02d7; stroke: #9d02d7; stroke-linejoin: miter"/>
     <use xlink:href="#md8fc1bf867" x="244.614176" y="225.486069" style="fill: #9d02d7; stroke: #9d02d7; stroke-linejoin: miter"/>
     <use xlink:href="#md8fc1bf867" x="249.772881" y="171.185604" style="fill: #9d02d7; stroke: #9d02d7; stroke-linejoin: miter"/>
     <use xlink:href="#md8fc1bf867" x="254.931587" y="187.959889" style="fill: #9d02d7; stroke: #9d02d7; stroke-linejoin: miter"/>
     <use xlink:href="#md8fc1bf867" x="260.090293" y="196.123505" style="fill: #9d02d7; stroke: #9d02d7; stroke-linejoin: miter"/>
     <use xlink:href="#md8fc1bf867" x="265.248998" y="181.683094" style="fill: #9d02d7; stroke: #9d02d7; stroke-linejoin: miter"/>
     <use xlink:href="#md8fc1bf867" x="270.407704" y="186.549946" style="fill: #9d02d7; stroke: #9d02d7; stroke-linejoin: miter"/>
     <use xlink:href="#md8fc1bf867" x="275.56641" y="162.910952" style="fill: #9d02d7; stroke: #9d02d7; stroke-linejoin: miter"/>
     <use xlink:href="#md8fc1bf867" x="280.725116" y="208.998271" style="fill: #9d02d7; stroke: #9d02d7; stroke-linejoin: miter"/>
     <use xlink:href="#md8fc1bf867" x="285.883821" y="100.995298" style="fill: #9d02d7; stroke: #9d02d7; stroke-linejoin: miter"/>
     <use xlink:href="#md8fc1bf867" x="291.042527" y="102.842086" style="fill: #9d02d7; stroke: #9d02d7; stroke-linejoin: miter"/>
     <use xlink:href="#md8fc1bf867" x="296.201233" y="100.997675" style="fill: #9d02d7; stroke: #9d02d7; stroke-linejoin: miter"/>
     <use xlink:href="#md8fc1bf867" x="301.359938" y="102.842086" style="fill: #9d02d7; stroke: #9d02d7; stroke-linejoin: miter"/>
     <use xlink:href="#md8fc1bf867" x="306.518644" y="86.811567" style="fill: #9d02d7; stroke: #9d02d7; stroke-linejoin: miter"/>
     <use xlink:href="#md8fc1bf867" x="311.67735" y="83.249892" style="fill: #9d02d7; stroke: #9d02d7; stroke-linejoin: miter"/>
     <use xlink:href="#md8fc1bf867" x="316.836055" y="75.362238" style="fill: #9d02d7; stroke: #9d02d7; stroke-linejoin: miter"/>
     <use xlink:href="#md8fc1bf867" x="321.994761" y="75.362232" style="fill: #9d02d7; stroke: #9d02d7; stroke-linejoin: miter"/>
     <use xlink:href="#md8fc1bf867" x="327.153467" y="74.232597" style="fill: #9d02d7; stroke: #9d02d7; stroke-linejoin: miter"/>
     <use xlink:href="#md8fc1bf867" x="332.312173" y="45.413109" style="fill: #9d02d7; stroke: #9d02d7; stroke-linejoin: miter"/>
     <use xlink:href="#md8fc1bf867" x="337.470878" y="45.479564" style="fill: #9d02d7; stroke: #9d02d7; stroke-linejoin: miter"/>
     <use xlink:href="#md8fc1bf867" x="342.629584" y="45.479564" style="fill: #9d02d7; stroke: #9d02d7; stroke-linejoin: miter"/>
     <use xlink:href="#md8fc1bf867" x="347.78829" y="45.479564" style="fill: #9d02d7; stroke: #9d02d7; stroke-linejoin: miter"/>
     <use xlink:href="#md8fc1bf867" x="352.946995" y="45.969652" style="fill: #9d02d7; stroke: #9d02d7; stroke-linejoin: miter"/>
     <use xlink:href="#md8fc1bf867" x="358.105701" y="45.969652" style="fill: #9d02d7; stroke: #9d02d7; stroke-linejoin: miter"/>
     <use xlink:href="#md8fc1bf867" x="363.264407" y="45.969652" style="fill: #9d02d7; stroke: #9d02d7; stroke-linejoin: miter"/>
     <use xlink:href="#md8fc1bf867" x="368.423112" y="45.969652" style="fill: #9d02d7; stroke: #9d02d7; stroke-linejoin: miter"/>
     <use xlink:href="#md8fc1bf867" x="373.581818" y="45.414251" style="fill: #9d02d7; stroke: #9d02d7; stroke-linejoin: miter"/>
    </g>
   </g>
   <g id="line2d_30">
    <path d="M 69.218182 262.824898 
L 74.376888 252.908818 
L 79.535593 253.101721 
L 84.694299 252.928919 
L 89.853005 252.95303 
L 95.01171 253.37847 
L 100.170416 252.934571 
L 105.329122 252.900892 
L 110.487827 252.908818 
L 115.646533 253.153616 
L 120.805239 254.010323 
L 125.963945 252.908818 
L 131.12265 252.914803 
L 136.281356 252.908818 
L 141.440062 252.919287 
L 146.598767 253.165874 
L 151.757473 252.908818 
L 156.916179 252.799828 
L 162.074884 252.908818 
L 167.23359 250.566769 
L 172.392296 253.256174 
L 177.551002 252.828184 
L 182.709707 252.911039 
L 187.868413 252.908818 
L 193.027119 252.824843 
L 198.185824 252.908818 
L 203.34453 253.180957 
L 208.503236 252.908818 
L 213.661941 252.908818 
L 218.820647 252.908818 
L 223.979353 251.027585 
L 229.138059 252.917042 
L 234.296764 253.022254 
L 239.45547 252.990784 
L 244.614176 252.908818 
L 249.772881 252.999395 
L 254.931587 252.986228 
L 260.090293 252.959432 
L 265.248998 247.470182 
L 270.407704 248.155126 
L 275.56641 247.561187 
L 280.725116 247.746803 
L 285.883821 235.883885 
L 291.042527 241.186677 
L 296.201233 241.041252 
L 301.359938 241.041252 
L 306.518644 241.041252 
L 311.67735 241.041252 
L 316.836055 240.223598 
L 321.994761 240.736518 
L 327.153467 52.143232 
L 332.312173 45.607452 
L 337.470878 45.607452 
L 342.629584 44.309211 
L 347.78829 43.198611 
L 352.946995 44.309211 
L 358.105701 43.198611 
L 363.264407 43.198611 
L 368.423112 43.198611 
L 373.581818 43.201472 
" clip-path="url(#p3968b6c271)" style="fill: none; stroke: #0000ff; stroke-width: 1.5; stroke-linecap: square"/>
    <defs>
     <path id="m85b9925e4e" d="M 0 2 
C 0.530406 2 1.03916 1.789267 1.414214 1.414214 
C 1.789267 1.03916 2 0.530406 2 0 
C 2 -0.530406 1.789267 -1.03916 1.414214 -1.414214 
C 1.03916 -1.789267 0.530406 -2 0 -2 
C -0.530406 -2 -1.03916 -1.789267 -1.414214 -1.414214 
C -1.789267 -1.03916 -2 -0.530406 -2 0 
C -2 0.530406 -1.789267 1.03916 -1.414214 1.414214 
C -1.03916 1.789267 -0.530406 2 0 2 
z
" style="stroke: #0000ff"/>
    </defs>
    <g clip-path="url(#p3968b6c271)">
     <use xlink:href="#m85b9925e4e" x="69.218182" y="262.824898" style="fill: #0000ff; stroke: #0000ff"/>
     <use xlink:href="#m85b9925e4e" x="74.376888" y="252.908818" style="fill: #0000ff; stroke: #0000ff"/>
     <use xlink:href="#m85b9925e4e" x="79.535593" y="253.101721" style="fill: #0000ff; stroke: #0000ff"/>
     <use xlink:href="#m85b9925e4e" x="84.694299" y="252.928919" style="fill: #0000ff; stroke: #0000ff"/>
     <use xlink:href="#m85b9925e4e" x="89.853005" y="252.95303" style="fill: #0000ff; stroke: #0000ff"/>
     <use xlink:href="#m85b9925e4e" x="95.01171" y="253.37847" style="fill: #0000ff; stroke: #0000ff"/>
     <use xlink:href="#m85b9925e4e" x="100.170416" y="252.934571" style="fill: #0000ff; stroke: #0000ff"/>
     <use xlink:href="#m85b9925e4e" x="105.329122" y="252.900892" style="fill: #0000ff; stroke: #0000ff"/>
     <use xlink:href="#m85b9925e4e" x="110.487827" y="252.908818" style="fill: #0000ff; stroke: #0000ff"/>
     <use xlink:href="#m85b9925e4e" x="115.646533" y="253.153616" style="fill: #0000ff; stroke: #0000ff"/>
     <use xlink:href="#m85b9925e4e" x="120.805239" y="254.010323" style="fill: #0000ff; stroke: #0000ff"/>
     <use xlink:href="#m85b9925e4e" x="125.963945" y="252.908818" style="fill: #0000ff; stroke: #0000ff"/>
     <use xlink:href="#m85b9925e4e" x="131.12265" y="252.914803" style="fill: #0000ff; stroke: #0000ff"/>
     <use xlink:href="#m85b9925e4e" x="136.281356" y="252.908818" style="fill: #0000ff; stroke: #0000ff"/>
     <use xlink:href="#m85b9925e4e" x="141.440062" y="252.919287" style="fill: #0000ff; stroke: #0000ff"/>
     <use xlink:href="#m85b9925e4e" x="146.598767" y="253.165874" style="fill: #0000ff; stroke: #0000ff"/>
     <use xlink:href="#m85b9925e4e" x="151.757473" y="252.908818" style="fill: #0000ff; stroke: #0000ff"/>
     <use xlink:href="#m85b9925e4e" x="156.916179" y="252.799828" style="fill: #0000ff; stroke: #0000ff"/>
     <use xlink:href="#m85b9925e4e" x="162.074884" y="252.908818" style="fill: #0000ff; stroke: #0000ff"/>
     <use xlink:href="#m85b9925e4e" x="167.23359" y="250.566769" style="fill: #0000ff; stroke: #0000ff"/>
     <use xlink:href="#m85b9925e4e" x="172.392296" y="253.256174" style="fill: #0000ff; stroke: #0000ff"/>
     <use xlink:href="#m85b9925e4e" x="177.551002" y="252.828184" style="fill: #0000ff; stroke: #0000ff"/>
     <use xlink:href="#m85b9925e4e" x="182.709707" y="252.911039" style="fill: #0000ff; stroke: #0000ff"/>
     <use xlink:href="#m85b9925e4e" x="187.868413" y="252.908818" style="fill: #0000ff; stroke: #0000ff"/>
     <use xlink:href="#m85b9925e4e" x="193.027119" y="252.824843" style="fill: #0000ff; stroke: #0000ff"/>
     <use xlink:href="#m85b9925e4e" x="198.185824" y="252.908818" style="fill: #0000ff; stroke: #0000ff"/>
     <use xlink:href="#m85b9925e4e" x="203.34453" y="253.180957" style="fill: #0000ff; stroke: #0000ff"/>
     <use xlink:href="#m85b9925e4e" x="208.503236" y="252.908818" style="fill: #0000ff; stroke: #0000ff"/>
     <use xlink:href="#m85b9925e4e" x="213.661941" y="252.908818" style="fill: #0000ff; stroke: #0000ff"/>
     <use xlink:href="#m85b9925e4e" x="218.820647" y="252.908818" style="fill: #0000ff; stroke: #0000ff"/>
     <use xlink:href="#m85b9925e4e" x="223.979353" y="251.027585" style="fill: #0000ff; stroke: #0000ff"/>
     <use xlink:href="#m85b9925e4e" x="229.138059" y="252.917042" style="fill: #0000ff; stroke: #0000ff"/>
     <use xlink:href="#m85b9925e4e" x="234.296764" y="253.022254" style="fill: #0000ff; stroke: #0000ff"/>
     <use xlink:href="#m85b9925e4e" x="239.45547" y="252.990784" style="fill: #0000ff; stroke: #0000ff"/>
     <use xlink:href="#m85b9925e4e" x="244.614176" y="252.908818" style="fill: #0000ff; stroke: #0000ff"/>
     <use xlink:href="#m85b9925e4e" x="249.772881" y="252.999395" style="fill: #0000ff; stroke: #0000ff"/>
     <use xlink:href="#m85b9925e4e" x="254.931587" y="252.986228" style="fill: #0000ff; stroke: #0000ff"/>
     <use xlink:href="#m85b9925e4e" x="260.090293" y="252.959432" style="fill: #0000ff; stroke: #0000ff"/>
     <use xlink:href="#m85b9925e4e" x="265.248998" y="247.470182" style="fill: #0000ff; stroke: #0000ff"/>
     <use xlink:href="#m85b9925e4e" x="270.407704" y="248.155126" style="fill: #0000ff; stroke: #0000ff"/>
     <use xlink:href="#m85b9925e4e" x="275.56641" y="247.561187" style="fill: #0000ff; stroke: #0000ff"/>
     <use xlink:href="#m85b9925e4e" x="280.725116" y="247.746803" style="fill: #0000ff; stroke: #0000ff"/>
     <use xlink:href="#m85b9925e4e" x="285.883821" y="235.883885" style="fill: #0000ff; stroke: #0000ff"/>
     <use xlink:href="#m85b9925e4e" x="291.042527" y="241.186677" style="fill: #0000ff; stroke: #0000ff"/>
     <use xlink:href="#m85b9925e4e" x="296.201233" y="241.041252" style="fill: #0000ff; stroke: #0000ff"/>
     <use xlink:href="#m85b9925e4e" x="301.359938" y="241.041252" style="fill: #0000ff; stroke: #0000ff"/>
     <use xlink:href="#m85b9925e4e" x="306.518644" y="241.041252" style="fill: #0000ff; stroke: #0000ff"/>
     <use xlink:href="#m85b9925e4e" x="311.67735" y="241.041252" style="fill: #0000ff; stroke: #0000ff"/>
     <use xlink:href="#m85b9925e4e" x="316.836055" y="240.223598" style="fill: #0000ff; stroke: #0000ff"/>
     <use xlink:href="#m85b9925e4e" x="321.994761" y="240.736518" style="fill: #0000ff; stroke: #0000ff"/>
     <use xlink:href="#m85b9925e4e" x="327.153467" y="52.143232" style="fill: #0000ff; stroke: #0000ff"/>
     <use xlink:href="#m85b9925e4e" x="332.312173" y="45.607452" style="fill: #0000ff; stroke: #0000ff"/>
     <use xlink:href="#m85b9925e4e" x="337.470878" y="45.607452" style="fill: #0000ff; stroke: #0000ff"/>
     <use xlink:href="#m85b9925e4e" x="342.629584" y="44.309211" style="fill: #0000ff; stroke: #0000ff"/>
     <use xlink:href="#m85b9925e4e" x="347.78829" y="43.198611" style="fill: #0000ff; stroke: #0000ff"/>
     <use xlink:href="#m85b9925e4e" x="352.946995" y="44.309211" style="fill: #0000ff; stroke: #0000ff"/>
     <use xlink:href="#m85b9925e4e" x="358.105701" y="43.198611" style="fill: #0000ff; stroke: #0000ff"/>
     <use xlink:href="#m85b9925e4e" x="363.264407" y="43.198611" style="fill: #0000ff; stroke: #0000ff"/>
     <use xlink:href="#m85b9925e4e" x="368.423112" y="43.198611" style="fill: #0000ff; stroke: #0000ff"/>
     <use xlink:href="#m85b9925e4e" x="373.581818" y="43.201472" style="fill: #0000ff; stroke: #0000ff"/>
    </g>
   </g>
   <g id="line2d_31">
    <path d="M 69.218182 259.96021 
L 74.376888 252.908818 
L 79.535593 163.938532 
L 84.694299 237.649033 
L 89.853005 248.785396 
L 95.01171 240.624506 
L 100.170416 206.049273 
L 105.329122 112.905578 
L 110.487827 200.547433 
L 115.646533 204.549459 
L 120.805239 206.070615 
L 125.963945 238.794766 
L 131.12265 249.390202 
L 136.281356 227.633858 
L 141.440062 238.411639 
L 146.598767 238.269614 
L 151.757473 246.487709 
L 156.916179 246.623713 
L 162.074884 246.616385 
L 167.23359 243.302735 
L 172.392296 243.296246 
L 177.551002 221.895069 
L 182.709707 223.217106 
L 187.868413 219.096915 
L 193.027119 217.77521 
L 198.185824 219.096915 
L 203.34453 217.775211 
L 208.503236 219.099801 
L 213.661941 217.773696 
L 218.820647 217.811388 
L 223.979353 217.773693 
L 229.138059 217.811377 
L 234.296764 217.81151 
L 239.45547 217.811379 
L 244.614176 217.811379 
L 249.772881 233.07047 
L 254.931587 233.016666 
L 260.090293 233.016702 
L 265.248998 233.016702 
L 270.407704 224.051298 
L 275.56641 224.113543 
L 280.725116 218.748053 
L 285.883821 235.244121 
L 291.042527 221.283359 
L 296.201233 221.290903 
L 301.359938 234.708081 
L 306.518644 233.462293 
L 311.67735 233.364 
L 316.836055 61.291273 
L 321.994761 56.764052 
L 327.153467 61.506507 
L 332.312173 61.350086 
L 337.470878 61.49035 
L 342.629584 61.486553 
L 347.78829 50.972908 
L 352.946995 50.972908 
L 358.105701 50.972908 
L 363.264407 50.972908 
L 368.423112 50.972908 
L 373.581818 50.972908 
" clip-path="url(#p3968b6c271)" style="fill: none; stroke: #ff7763; stroke-width: 1.5; stroke-linecap: square"/>
    <defs>
     <path id="ma636dc5938" d="M -2 2 
L 2 -2 
M -2 -2 
L 2 2 
" style="stroke: #ff7763"/>
    </defs>
    <g clip-path="url(#p3968b6c271)">
     <use xlink:href="#ma636dc5938" x="69.218182" y="259.96021" style="fill: #ff7763; stroke: #ff7763"/>
     <use xlink:href="#ma636dc5938" x="74.376888" y="252.908818" style="fill: #ff7763; stroke: #ff7763"/>
     <use xlink:href="#ma636dc5938" x="79.535593" y="163.938532" style="fill: #ff7763; stroke: #ff7763"/>
     <use xlink:href="#ma636dc5938" x="84.694299" y="237.649033" style="fill: #ff7763; stroke: #ff7763"/>
     <use xlink:href="#ma636dc5938" x="89.853005" y="248.785396" style="fill: #ff7763; stroke: #ff7763"/>
     <use xlink:href="#ma636dc5938" x="95.01171" y="240.624506" style="fill: #ff7763; stroke: #ff7763"/>
     <use xlink:href="#ma636dc5938" x="100.170416" y="206.049273" style="fill: #ff7763; stroke: #ff7763"/>
     <use xlink:href="#ma636dc5938" x="105.329122" y="112.905578" style="fill: #ff7763; stroke: #ff7763"/>
     <use xlink:href="#ma636dc5938" x="110.487827" y="200.547433" style="fill: #ff7763; stroke: #ff7763"/>
     <use xlink:href="#ma636dc5938" x="115.646533" y="204.549459" style="fill: #ff7763; stroke: #ff7763"/>
     <use xlink:href="#ma636dc5938" x="120.805239" y="206.070615" style="fill: #ff7763; stroke: #ff7763"/>
     <use xlink:href="#ma636dc5938" x="125.963945" y="238.794766" style="fill: #ff7763; stroke: #ff7763"/>
     <use xlink:href="#ma636dc5938" x="131.12265" y="249.390202" style="fill: #ff7763; stroke: #ff7763"/>
     <use xlink:href="#ma636dc5938" x="136.281356" y="227.633858" style="fill: #ff7763; stroke: #ff7763"/>
     <use xlink:href="#ma636dc5938" x="141.440062" y="238.411639" style="fill: #ff7763; stroke: #ff7763"/>
     <use xlink:href="#ma636dc5938" x="146.598767" y="238.269614" style="fill: #ff7763; stroke: #ff7763"/>
     <use xlink:href="#ma636dc5938" x="151.757473" y="246.487709" style="fill: #ff7763; stroke: #ff7763"/>
     <use xlink:href="#ma636dc5938" x="156.916179" y="246.623713" style="fill: #ff7763; stroke: #ff7763"/>
     <use xlink:href="#ma636dc5938" x="162.074884" y="246.616385" style="fill: #ff7763; stroke: #ff7763"/>
     <use xlink:href="#ma636dc5938" x="167.23359" y="243.302735" style="fill: #ff7763; stroke: #ff7763"/>
     <use xlink:href="#ma636dc5938" x="172.392296" y="243.296246" style="fill: #ff7763; stroke: #ff7763"/>
     <use xlink:href="#ma636dc5938" x="177.551002" y="221.895069" style="fill: #ff7763; stroke: #ff7763"/>
     <use xlink:href="#ma636dc5938" x="182.709707" y="223.217106" style="fill: #ff7763; stroke: #ff7763"/>
     <use xlink:href="#ma636dc5938" x="187.868413" y="219.096915" style="fill: #ff7763; stroke: #ff7763"/>
     <use xlink:href="#ma636dc5938" x="193.027119" y="217.77521" style="fill: #ff7763; stroke: #ff7763"/>
     <use xlink:href="#ma636dc5938" x="198.185824" y="219.096915" style="fill: #ff7763; stroke: #ff7763"/>
     <use xlink:href="#ma636dc5938" x="203.34453" y="217.775211" style="fill: #ff7763; stroke: #ff7763"/>
     <use xlink:href="#ma636dc5938" x="208.503236" y="219.099801" style="fill: #ff7763; stroke: #ff7763"/>
     <use xlink:href="#ma636dc5938" x="213.661941" y="217.773696" style="fill: #ff7763; stroke: #ff7763"/>
     <use xlink:href="#ma636dc5938" x="218.820647" y="217.811388" style="fill: #ff7763; stroke: #ff7763"/>
     <use xlink:href="#ma636dc5938" x="223.979353" y="217.773693" style="fill: #ff7763; stroke: #ff7763"/>
     <use xlink:href="#ma636dc5938" x="229.138059" y="217.811377" style="fill: #ff7763; stroke: #ff7763"/>
     <use xlink:href="#ma636dc5938" x="234.296764" y="217.81151" style="fill: #ff7763; stroke: #ff7763"/>
     <use xlink:href="#ma636dc5938" x="239.45547" y="217.811379" style="fill: #ff7763; stroke: #ff7763"/>
     <use xlink:href="#ma636dc5938" x="244.614176" y="217.811379" style="fill: #ff7763; stroke: #ff7763"/>
     <use xlink:href="#ma636dc5938" x="249.772881" y="233.07047" style="fill: #ff7763; stroke: #ff7763"/>
     <use xlink:href="#ma636dc5938" x="254.931587" y="233.016666" style="fill: #ff7763; stroke: #ff7763"/>
     <use xlink:href="#ma636dc5938" x="260.090293" y="233.016702" style="fill: #ff7763; stroke: #ff7763"/>
     <use xlink:href="#ma636dc5938" x="265.248998" y="233.016702" style="fill: #ff7763; stroke: #ff7763"/>
     <use xlink:href="#ma636dc5938" x="270.407704" y="224.051298" style="fill: #ff7763; stroke: #ff7763"/>
     <use xlink:href="#ma636dc5938" x="275.56641" y="224.113543" style="fill: #ff7763; stroke: #ff7763"/>
     <use xlink:href="#ma636dc5938" x="280.725116" y="218.748053" style="fill: #ff7763; stroke: #ff7763"/>
     <use xlink:href="#ma636dc5938" x="285.883821" y="235.244121" style="fill: #ff7763; stroke: #ff7763"/>
     <use xlink:href="#ma636dc5938" x="291.042527" y="221.283359" style="fill: #ff7763; stroke: #ff7763"/>
     <use xlink:href="#ma636dc5938" x="296.201233" y="221.290903" style="fill: #ff7763; stroke: #ff7763"/>
     <use xlink:href="#ma636dc5938" x="301.359938" y="234.708081" style="fill: #ff7763; stroke: #ff7763"/>
     <use xlink:href="#ma636dc5938" x="306.518644" y="233.462293" style="fill: #ff7763; stroke: #ff7763"/>
     <use xlink:href="#ma636dc5938" x="311.67735" y="233.364" style="fill: #ff7763; stroke: #ff7763"/>
     <use xlink:href="#ma636dc5938" x="316.836055" y="61.291273" style="fill: #ff7763; stroke: #ff7763"/>
     <use xlink:href="#ma636dc5938" x="321.994761" y="56.764052" style="fill: #ff7763; stroke: #ff7763"/>
     <use xlink:href="#ma636dc5938" x="327.153467" y="61.506507" style="fill: #ff7763; stroke: #ff7763"/>
     <use xlink:href="#ma636dc5938" x="332.312173" y="61.350086" style="fill: #ff7763; stroke: #ff7763"/>
     <use xlink:href="#ma636dc5938" x="337.470878" y="61.49035" style="fill: #ff7763; stroke: #ff7763"/>
     <use xlink:href="#ma636dc5938" x="342.629584" y="61.486553" style="fill: #ff7763; stroke: #ff7763"/>
     <use xlink:href="#ma636dc5938" x="347.78829" y="50.972908" style="fill: #ff7763; stroke: #ff7763"/>
     <use xlink:href="#ma636dc5938" x="352.946995" y="50.972908" style="fill: #ff7763; stroke: #ff7763"/>
     <use xlink:href="#ma636dc5938" x="358.105701" y="50.972908" style="fill: #ff7763; stroke: #ff7763"/>
     <use xlink:href="#ma636dc5938" x="363.264407" y="50.972908" style="fill: #ff7763; stroke: #ff7763"/>
     <use xlink:href="#ma636dc5938" x="368.423112" y="50.972908" style="fill: #ff7763; stroke: #ff7763"/>
     <use xlink:href="#ma636dc5938" x="373.581818" y="50.972908" style="fill: #ff7763; stroke: #ff7763"/>
    </g>
   </g>
   <g id="line2d_32">
    <path d="M 69.218182 259.129617 
L 74.376888 252.908818 
L 79.535593 170.745341 
L 84.694299 111.882247 
L 89.853005 240.702006 
L 95.01171 240.655585 
L 100.170416 239.89426 
L 105.329122 95.573458 
L 110.487827 240.11619 
L 115.646533 181.913327 
L 120.805239 91.507363 
L 125.963945 96.152536 
L 131.12265 92.784383 
L 136.281356 232.265816 
L 141.440062 96.679394 
L 146.598767 93.86616 
L 151.757473 237.145421 
L 156.916179 250.413003 
L 162.074884 245.102627 
L 167.23359 214.717074 
L 172.392296 248.40891 
L 177.551002 149.118097 
L 182.709707 225.603193 
L 187.868413 215.381926 
L 193.027119 218.07692 
L 198.185824 85.40552 
L 203.34453 213.911287 
L 208.503236 214.223565 
L 213.661941 218.099919 
L 218.820647 137.022882 
L 223.979353 222.555867 
L 229.138059 240.095075 
L 234.296764 87.866224 
L 239.45547 65.649323 
L 244.614176 85.25712 
L 249.772881 76.449363 
L 254.931587 64.664639 
L 260.090293 76.845837 
L 265.248998 85.38729 
L 270.407704 83.202531 
L 275.56641 66.102362 
L 280.725116 66.102362 
L 285.883821 66.102362 
L 291.042527 66.804678 
L 296.201233 56.036501 
L 301.359938 56.288851 
L 306.518644 46.9225 
L 311.67735 46.924688 
L 316.836055 46.924688 
L 321.994761 46.92465 
L 327.153467 46.92465 
L 332.312173 46.92465 
L 337.470878 46.690078 
L 342.629584 43.454957 
L 347.78829 43.197784 
L 352.946995 43.584941 
L 358.105701 43.584941 
L 363.264407 43.065558 
L 368.423112 43.584941 
L 373.581818 43.584941 
" clip-path="url(#p3968b6c271)" style="fill: none; stroke: #ffac1e; stroke-width: 1.5; stroke-linecap: square"/>
    <defs>
     <path id="me9a4e455b9" d="M 0 -2 
L -0.449028 -0.618034 
L -1.902113 -0.618034 
L -0.726543 0.236068 
L -1.175571 1.618034 
L -0 0.763932 
L 1.175571 1.618034 
L 0.726543 0.236068 
L 1.902113 -0.618034 
L 0.449028 -0.618034 
z
" style="stroke: #ffac1e; stroke-linejoin: bevel"/>
    </defs>
    <g clip-path="url(#p3968b6c271)">
     <use xlink:href="#me9a4e455b9" x="69.218182" y="259.129617" style="fill: #ffac1e; stroke: #ffac1e; stroke-linejoin: bevel"/>
     <use xlink:href="#me9a4e455b9" x="74.376888" y="252.908818" style="fill: #ffac1e; stroke: #ffac1e; stroke-linejoin: bevel"/>
     <use xlink:href="#me9a4e455b9" x="79.535593" y="170.745341" style="fill: #ffac1e; stroke: #ffac1e; stroke-linejoin: bevel"/>
     <use xlink:href="#me9a4e455b9" x="84.694299" y="111.882247" style="fill: #ffac1e; stroke: #ffac1e; stroke-linejoin: bevel"/>
     <use xlink:href="#me9a4e455b9" x="89.853005" y="240.702006" style="fill: #ffac1e; stroke: #ffac1e; stroke-linejoin: bevel"/>
     <use xlink:href="#me9a4e455b9" x="95.01171" y="240.655585" style="fill: #ffac1e; stroke: #ffac1e; stroke-linejoin: bevel"/>
     <use xlink:href="#me9a4e455b9" x="100.170416" y="239.89426" style="fill: #ffac1e; stroke: #ffac1e; stroke-linejoin: bevel"/>
     <use xlink:href="#me9a4e455b9" x="105.329122" y="95.573458" style="fill: #ffac1e; stroke: #ffac1e; stroke-linejoin: bevel"/>
     <use xlink:href="#me9a4e455b9" x="110.487827" y="240.11619" style="fill: #ffac1e; stroke: #ffac1e; stroke-linejoin: bevel"/>
     <use xlink:href="#me9a4e455b9" x="115.646533" y="181.913327" style="fill: #ffac1e; stroke: #ffac1e; stroke-linejoin: bevel"/>
     <use xlink:href="#me9a4e455b9" x="120.805239" y="91.507363" style="fill: #ffac1e; stroke: #ffac1e; stroke-linejoin: bevel"/>
     <use xlink:href="#me9a4e455b9" x="125.963945" y="96.152536" style="fill: #ffac1e; stroke: #ffac1e; stroke-linejoin: bevel"/>
     <use xlink:href="#me9a4e455b9" x="131.12265" y="92.784383" style="fill: #ffac1e; stroke: #ffac1e; stroke-linejoin: bevel"/>
     <use xlink:href="#me9a4e455b9" x="136.281356" y="232.265816" style="fill: #ffac1e; stroke: #ffac1e; stroke-linejoin: bevel"/>
     <use xlink:href="#me9a4e455b9" x="141.440062" y="96.679394" style="fill: #ffac1e; stroke: #ffac1e; stroke-linejoin: bevel"/>
     <use xlink:href="#me9a4e455b9" x="146.598767" y="93.86616" style="fill: #ffac1e; stroke: #ffac1e; stroke-linejoin: bevel"/>
     <use xlink:href="#me9a4e455b9" x="151.757473" y="237.145421" style="fill: #ffac1e; stroke: #ffac1e; stroke-linejoin: bevel"/>
     <use xlink:href="#me9a4e455b9" x="156.916179" y="250.413003" style="fill: #ffac1e; stroke: #ffac1e; stroke-linejoin: bevel"/>
     <use xlink:href="#me9a4e455b9" x="162.074884" y="245.102627" style="fill: #ffac1e; stroke: #ffac1e; stroke-linejoin: bevel"/>
     <use xlink:href="#me9a4e455b9" x="167.23359" y="214.717074" style="fill: #ffac1e; stroke: #ffac1e; stroke-linejoin: bevel"/>
     <use xlink:href="#me9a4e455b9" x="172.392296" y="248.40891" style="fill: #ffac1e; stroke: #ffac1e; stroke-linejoin: bevel"/>
     <use xlink:href="#me9a4e455b9" x="177.551002" y="149.118097" style="fill: #ffac1e; stroke: #ffac1e; stroke-linejoin: bevel"/>
     <use xlink:href="#me9a4e455b9" x="182.709707" y="225.603193" style="fill: #ffac1e; stroke: #ffac1e; stroke-linejoin: bevel"/>
     <use xlink:href="#me9a4e455b9" x="187.868413" y="215.381926" style="fill: #ffac1e; stroke: #ffac1e; stroke-linejoin: bevel"/>
     <use xlink:href="#me9a4e455b9" x="193.027119" y="218.07692" style="fill: #ffac1e; stroke: #ffac1e; stroke-linejoin: bevel"/>
     <use xlink:href="#me9a4e455b9" x="198.185824" y="85.40552" style="fill: #ffac1e; stroke: #ffac1e; stroke-linejoin: bevel"/>
     <use xlink:href="#me9a4e455b9" x="203.34453" y="213.911287" style="fill: #ffac1e; stroke: #ffac1e; stroke-linejoin: bevel"/>
     <use xlink:href="#me9a4e455b9" x="208.503236" y="214.223565" style="fill: #ffac1e; stroke: #ffac1e; stroke-linejoin: bevel"/>
     <use xlink:href="#me9a4e455b9" x="213.661941" y="218.099919" style="fill: #ffac1e; stroke: #ffac1e; stroke-linejoin: bevel"/>
     <use xlink:href="#me9a4e455b9" x="218.820647" y="137.022882" style="fill: #ffac1e; stroke: #ffac1e; stroke-linejoin: bevel"/>
     <use xlink:href="#me9a4e455b9" x="223.979353" y="222.555867" style="fill: #ffac1e; stroke: #ffac1e; stroke-linejoin: bevel"/>
     <use xlink:href="#me9a4e455b9" x="229.138059" y="240.095075" style="fill: #ffac1e; stroke: #ffac1e; stroke-linejoin: bevel"/>
     <use xlink:href="#me9a4e455b9" x="234.296764" y="87.866224" style="fill: #ffac1e; stroke: #ffac1e; stroke-linejoin: bevel"/>
     <use xlink:href="#me9a4e455b9" x="239.45547" y="65.649323" style="fill: #ffac1e; stroke: #ffac1e; stroke-linejoin: bevel"/>
     <use xlink:href="#me9a4e455b9" x="244.614176" y="85.25712" style="fill: #ffac1e; stroke: #ffac1e; stroke-linejoin: bevel"/>
     <use xlink:href="#me9a4e455b9" x="249.772881" y="76.449363" style="fill: #ffac1e; stroke: #ffac1e; stroke-linejoin: bevel"/>
     <use xlink:href="#me9a4e455b9" x="254.931587" y="64.664639" style="fill: #ffac1e; stroke: #ffac1e; stroke-linejoin: bevel"/>
     <use xlink:href="#me9a4e455b9" x="260.090293" y="76.845837" style="fill: #ffac1e; stroke: #ffac1e; stroke-linejoin: bevel"/>
     <use xlink:href="#me9a4e455b9" x="265.248998" y="85.38729" style="fill: #ffac1e; stroke: #ffac1e; stroke-linejoin: bevel"/>
     <use xlink:href="#me9a4e455b9" x="270.407704" y="83.202531" style="fill: #ffac1e; stroke: #ffac1e; stroke-linejoin: bevel"/>
     <use xlink:href="#me9a4e455b9" x="275.56641" y="66.102362" style="fill: #ffac1e; stroke: #ffac1e; stroke-linejoin: bevel"/>
     <use xlink:href="#me9a4e455b9" x="280.725116" y="66.102362" style="fill: #ffac1e; stroke: #ffac1e; stroke-linejoin: bevel"/>
     <use xlink:href="#me9a4e455b9" x="285.883821" y="66.102362" style="fill: #ffac1e; stroke: #ffac1e; stroke-linejoin: bevel"/>
     <use xlink:href="#me9a4e455b9" x="291.042527" y="66.804678" style="fill: #ffac1e; stroke: #ffac1e; stroke-linejoin: bevel"/>
     <use xlink:href="#me9a4e455b9" x="296.201233" y="56.036501" style="fill: #ffac1e; stroke: #ffac1e; stroke-linejoin: bevel"/>
     <use xlink:href="#me9a4e455b9" x="301.359938" y="56.288851" style="fill: #ffac1e; stroke: #ffac1e; stroke-linejoin: bevel"/>
     <use xlink:href="#me9a4e455b9" x="306.518644" y="46.9225" style="fill: #ffac1e; stroke: #ffac1e; stroke-linejoin: bevel"/>
     <use xlink:href="#me9a4e455b9" x="311.67735" y="46.924688" style="fill: #ffac1e; stroke: #ffac1e; stroke-linejoin: bevel"/>
     <use xlink:href="#me9a4e455b9" x="316.836055" y="46.924688" style="fill: #ffac1e; stroke: #ffac1e; stroke-linejoin: bevel"/>
     <use xlink:href="#me9a4e455b9" x="321.994761" y="46.92465" style="fill: #ffac1e; stroke: #ffac1e; stroke-linejoin: bevel"/>
     <use xlink:href="#me9a4e455b9" x="327.153467" y="46.92465" style="fill: #ffac1e; stroke: #ffac1e; stroke-linejoin: bevel"/>
     <use xlink:href="#me9a4e455b9" x="332.312173" y="46.92465" style="fill: #ffac1e; stroke: #ffac1e; stroke-linejoin: bevel"/>
     <use xlink:href="#me9a4e455b9" x="337.470878" y="46.690078" style="fill: #ffac1e; stroke: #ffac1e; stroke-linejoin: bevel"/>
     <use xlink:href="#me9a4e455b9" x="342.629584" y="43.454957" style="fill: #ffac1e; stroke: #ffac1e; stroke-linejoin: bevel"/>
     <use xlink:href="#me9a4e455b9" x="347.78829" y="43.197784" style="fill: #ffac1e; stroke: #ffac1e; stroke-linejoin: bevel"/>
     <use xlink:href="#me9a4e455b9" x="352.946995" y="43.584941" style="fill: #ffac1e; stroke: #ffac1e; stroke-linejoin: bevel"/>
     <use xlink:href="#me9a4e455b9" x="358.105701" y="43.584941" style="fill: #ffac1e; stroke: #ffac1e; stroke-linejoin: bevel"/>
     <use xlink:href="#me9a4e455b9" x="363.264407" y="43.065558" style="fill: #ffac1e; stroke: #ffac1e; stroke-linejoin: bevel"/>
     <use xlink:href="#me9a4e455b9" x="368.423112" y="43.584941" style="fill: #ffac1e; stroke: #ffac1e; stroke-linejoin: bevel"/>
     <use xlink:href="#me9a4e455b9" x="373.581818" y="43.584941" style="fill: #ffac1e; stroke: #ffac1e; stroke-linejoin: bevel"/>
    </g>
   </g>
   <g id="line2d_33">
    <path d="M 69.218182 254.972857 
L 74.376888 256.005061 
L 79.535593 252.935515 
L 84.694299 253.143803 
L 89.853005 253.045007 
L 95.01171 252.908818 
L 100.170416 252.908818 
L 105.329122 253.23244 
L 110.487827 265.140279 
L 115.646533 252.908818 
L 120.805239 252.908818 
L 125.963945 262.170641 
L 131.12265 256.061909 
L 136.281356 253.265203 
L 141.440062 252.908818 
L 146.598767 254.058329 
L 151.757473 253.057845 
L 156.916179 254.40355 
L 162.074884 265.748716 
L 167.23359 252.908818 
L 172.392296 261.37341 
L 177.551002 254.742227 
L 182.709707 250.99467 
L 187.868413 201.583688 
L 193.027119 266.774415 
L 198.185824 223.82212 
L 203.34453 252.17067 
L 208.503236 225.899401 
L 213.661941 216.591992 
L 218.820647 244.605826 
L 223.979353 246.980915 
L 229.138059 239.214458 
L 234.296764 251.30126 
L 239.45547 253.448283 
L 244.614176 255.11166 
L 249.772881 255.11073 
L 254.931587 255.113264 
L 260.090293 251.855197 
L 265.248998 254.153067 
L 270.407704 253.910955 
L 275.56641 254.893923 
L 280.725116 253.209296 
L 285.883821 254.266125 
L 291.042527 254.571313 
L 296.201233 254.42194 
L 301.359938 250.214277 
L 306.518644 254.437008 
L 311.67735 247.109214 
L 316.836055 249.92774 
L 321.994761 250.896447 
L 327.153467 261.258981 
L 332.312173 95.163161 
L 337.470878 127.864907 
L 342.629584 79.901293 
L 347.78829 118.01293 
L 352.946995 80.76143 
L 358.105701 62.792963 
L 363.264407 96.78164 
L 368.423112 62.792963 
L 373.581818 96.78164 
" clip-path="url(#p3968b6c271)" style="fill: none; stroke: #009435; stroke-width: 1.5; stroke-linecap: square"/>
    <defs>
     <path id="mc7d32c2589" d="M -2 2 
L 2 2 
L 2 -2 
L -2 -2 
z
" style="stroke: #009435; stroke-linejoin: miter"/>
    </defs>
    <g clip-path="url(#p3968b6c271)">
     <use xlink:href="#mc7d32c2589" x="69.218182" y="254.972857" style="fill: #009435; stroke: #009435; stroke-linejoin: miter"/>
     <use xlink:href="#mc7d32c2589" x="74.376888" y="256.005061" style="fill: #009435; stroke: #009435; stroke-linejoin: miter"/>
     <use xlink:href="#mc7d32c2589" x="79.535593" y="252.935515" style="fill: #009435; stroke: #009435; stroke-linejoin: miter"/>
     <use xlink:href="#mc7d32c2589" x="84.694299" y="253.143803" style="fill: #009435; stroke: #009435; stroke-linejoin: miter"/>
     <use xlink:href="#mc7d32c2589" x="89.853005" y="253.045007" style="fill: #009435; stroke: #009435; stroke-linejoin: miter"/>
     <use xlink:href="#mc7d32c2589" x="95.01171" y="252.908818" style="fill: #009435; stroke: #009435; stroke-linejoin: miter"/>
     <use xlink:href="#mc7d32c2589" x="100.170416" y="252.908818" style="fill: #009435; stroke: #009435; stroke-linejoin: miter"/>
     <use xlink:href="#mc7d32c2589" x="105.329122" y="253.23244" style="fill: #009435; stroke: #009435; stroke-linejoin: miter"/>
     <use xlink:href="#mc7d32c2589" x="110.487827" y="265.140279" style="fill: #009435; stroke: #009435; stroke-linejoin: miter"/>
     <use xlink:href="#mc7d32c2589" x="115.646533" y="252.908818" style="fill: #009435; stroke: #009435; stroke-linejoin: miter"/>
     <use xlink:href="#mc7d32c2589" x="120.805239" y="252.908818" style="fill: #009435; stroke: #009435; stroke-linejoin: miter"/>
     <use xlink:href="#mc7d32c2589" x="125.963945" y="262.170641" style="fill: #009435; stroke: #009435; stroke-linejoin: miter"/>
     <use xlink:href="#mc7d32c2589" x="131.12265" y="256.061909" style="fill: #009435; stroke: #009435; stroke-linejoin: miter"/>
     <use xlink:href="#mc7d32c2589" x="136.281356" y="253.265203" style="fill: #009435; stroke: #009435; stroke-linejoin: miter"/>
     <use xlink:href="#mc7d32c2589" x="141.440062" y="252.908818" style="fill: #009435; stroke: #009435; stroke-linejoin: miter"/>
     <use xlink:href="#mc7d32c2589" x="146.598767" y="254.058329" style="fill: #009435; stroke: #009435; stroke-linejoin: miter"/>
     <use xlink:href="#mc7d32c2589" x="151.757473" y="253.057845" style="fill: #009435; stroke: #009435; stroke-linejoin: miter"/>
     <use xlink:href="#mc7d32c2589" x="156.916179" y="254.40355" style="fill: #009435; stroke: #009435; stroke-linejoin: miter"/>
     <use xlink:href="#mc7d32c2589" x="162.074884" y="265.748716" style="fill: #009435; stroke: #009435; stroke-linejoin: miter"/>
     <use xlink:href="#mc7d32c2589" x="167.23359" y="252.908818" style="fill: #009435; stroke: #009435; stroke-linejoin: miter"/>
     <use xlink:href="#mc7d32c2589" x="172.392296" y="261.37341" style="fill: #009435; stroke: #009435; stroke-linejoin: miter"/>
     <use xlink:href="#mc7d32c2589" x="177.551002" y="254.742227" style="fill: #009435; stroke: #009435; stroke-linejoin: miter"/>
     <use xlink:href="#mc7d32c2589" x="182.709707" y="250.99467" style="fill: #009435; stroke: #009435; stroke-linejoin: miter"/>
     <use xlink:href="#mc7d32c2589" x="187.868413" y="201.583688" style="fill: #009435; stroke: #009435; stroke-linejoin: miter"/>
     <use xlink:href="#mc7d32c2589" x="193.027119" y="266.774415" style="fill: #009435; stroke: #009435; stroke-linejoin: miter"/>
     <use xlink:href="#mc7d32c2589" x="198.185824" y="223.82212" style="fill: #009435; stroke: #009435; stroke-linejoin: miter"/>
     <use xlink:href="#mc7d32c2589" x="203.34453" y="252.17067" style="fill: #009435; stroke: #009435; stroke-linejoin: miter"/>
     <use xlink:href="#mc7d32c2589" x="208.503236" y="225.899401" style="fill: #009435; stroke: #009435; stroke-linejoin: miter"/>
     <use xlink:href="#mc7d32c2589" x="213.661941" y="216.591992" style="fill: #009435; stroke: #009435; stroke-linejoin: miter"/>
     <use xlink:href="#mc7d32c2589" x="218.820647" y="244.605826" style="fill: #009435; stroke: #009435; stroke-linejoin: miter"/>
     <use xlink:href="#mc7d32c2589" x="223.979353" y="246.980915" style="fill: #009435; stroke: #009435; stroke-linejoin: miter"/>
     <use xlink:href="#mc7d32c2589" x="229.138059" y="239.214458" style="fill: #009435; stroke: #009435; stroke-linejoin: miter"/>
     <use xlink:href="#mc7d32c2589" x="234.296764" y="251.30126" style="fill: #009435; stroke: #009435; stroke-linejoin: miter"/>
     <use xlink:href="#mc7d32c2589" x="239.45547" y="253.448283" style="fill: #009435; stroke: #009435; stroke-linejoin: miter"/>
     <use xlink:href="#mc7d32c2589" x="244.614176" y="255.11166" style="fill: #009435; stroke: #009435; stroke-linejoin: miter"/>
     <use xlink:href="#mc7d32c2589" x="249.772881" y="255.11073" style="fill: #009435; stroke: #009435; stroke-linejoin: miter"/>
     <use xlink:href="#mc7d32c2589" x="254.931587" y="255.113264" style="fill: #009435; stroke: #009435; stroke-linejoin: miter"/>
     <use xlink:href="#mc7d32c2589" x="260.090293" y="251.855197" style="fill: #009435; stroke: #009435; stroke-linejoin: miter"/>
     <use xlink:href="#mc7d32c2589" x="265.248998" y="254.153067" style="fill: #009435; stroke: #009435; stroke-linejoin: miter"/>
     <use xlink:href="#mc7d32c2589" x="270.407704" y="253.910955" style="fill: #009435; stroke: #009435; stroke-linejoin: miter"/>
     <use xlink:href="#mc7d32c2589" x="275.56641" y="254.893923" style="fill: #009435; stroke: #009435; stroke-linejoin: miter"/>
     <use xlink:href="#mc7d32c2589" x="280.725116" y="253.209296" style="fill: #009435; stroke: #009435; stroke-linejoin: miter"/>
     <use xlink:href="#mc7d32c2589" x="285.883821" y="254.266125" style="fill: #009435; stroke: #009435; stroke-linejoin: miter"/>
     <use xlink:href="#mc7d32c2589" x="291.042527" y="254.571313" style="fill: #009435; stroke: #009435; stroke-linejoin: miter"/>
     <use xlink:href="#mc7d32c2589" x="296.201233" y="254.42194" style="fill: #009435; stroke: #009435; stroke-linejoin: miter"/>
     <use xlink:href="#mc7d32c2589" x="301.359938" y="250.214277" style="fill: #009435; stroke: #009435; stroke-linejoin: miter"/>
     <use xlink:href="#mc7d32c2589" x="306.518644" y="254.437008" style="fill: #009435; stroke: #009435; stroke-linejoin: miter"/>
     <use xlink:href="#mc7d32c2589" x="311.67735" y="247.109214" style="fill: #009435; stroke: #009435; stroke-linejoin: miter"/>
     <use xlink:href="#mc7d32c2589" x="316.836055" y="249.92774" style="fill: #009435; stroke: #009435; stroke-linejoin: miter"/>
     <use xlink:href="#mc7d32c2589" x="321.994761" y="250.896447" style="fill: #009435; stroke: #009435; stroke-linejoin: miter"/>
     <use xlink:href="#mc7d32c2589" x="327.153467" y="261.258981" style="fill: #009435; stroke: #009435; stroke-linejoin: miter"/>
     <use xlink:href="#mc7d32c2589" x="332.312173" y="95.163161" style="fill: #009435; stroke: #009435; stroke-linejoin: miter"/>
     <use xlink:href="#mc7d32c2589" x="337.470878" y="127.864907" style="fill: #009435; stroke: #009435; stroke-linejoin: miter"/>
     <use xlink:href="#mc7d32c2589" x="342.629584" y="79.901293" style="fill: #009435; stroke: #009435; stroke-linejoin: miter"/>
     <use xlink:href="#mc7d32c2589" x="347.78829" y="118.01293" style="fill: #009435; stroke: #009435; stroke-linejoin: miter"/>
     <use xlink:href="#mc7d32c2589" x="352.946995" y="80.76143" style="fill: #009435; stroke: #009435; stroke-linejoin: miter"/>
     <use xlink:href="#mc7d32c2589" x="358.105701" y="62.792963" style="fill: #009435; stroke: #009435; stroke-linejoin: miter"/>
     <use xlink:href="#mc7d32c2589" x="363.264407" y="96.78164" style="fill: #009435; stroke: #009435; stroke-linejoin: miter"/>
     <use xlink:href="#mc7d32c2589" x="368.423112" y="62.792963" style="fill: #009435; stroke: #009435; stroke-linejoin: miter"/>
     <use xlink:href="#mc7d32c2589" x="373.581818" y="96.78164" style="fill: #009435; stroke: #009435; stroke-linejoin: miter"/>
    </g>
   </g>
   <g id="patch_3">
    <path d="M 54 252 
L 54 34.56 
" style="fill: none; stroke: #000000; stroke-width: 0.8; stroke-linejoin: miter; stroke-linecap: square"/>
   </g>
   <g id="patch_4">
    <path d="M 388.8 252 
L 388.8 34.56 
" style="fill: none; stroke: #000000; stroke-width: 0.8; stroke-linejoin: miter; stroke-linecap: square"/>
   </g>
   <g id="patch_5">
    <path d="M 54 252 
L 388.8 252 
" style="fill: none; stroke: #000000; stroke-width: 0.8; stroke-linejoin: miter; stroke-linecap: square"/>
   </g>
   <g id="patch_6">
    <path d="M 54 34.56 
L 388.8 34.56 
" style="fill: none; stroke: #000000; stroke-width: 0.8; stroke-linejoin: miter; stroke-linecap: square"/>
   </g>
   <g id="text_17">
    <!-- R-max optimal policy with m = 40 -->
    <g transform="translate(119.205 28.56)scale(0.12 -0.12)">
     <defs>
      <path id="DejaVuSans-52" d="M 2841 2188 
Q 3044 2119 3236 1894 
Q 3428 1669 3622 1275 
L 4263 0 
L 3584 0 
L 2988 1197 
Q 2756 1666 2539 1819 
Q 2322 1972 1947 1972 
L 1259 1972 
L 1259 0 
L 628 0 
L 628 4666 
L 2053 4666 
Q 2853 4666 3247 4331 
Q 3641 3997 3641 3322 
Q 3641 2881 3436 2590 
Q 3231 2300 2841 2188 
z
M 1259 4147 
L 1259 2491 
L 2053 2491 
Q 2509 2491 2742 2702 
Q 2975 2913 2975 3322 
Q 2975 3731 2742 3939 
Q 2509 4147 2053 4147 
L 1259 4147 
z
" transform="scale(0.015625)"/>
      <path id="DejaVuSans-2d" d="M 313 2009 
L 1997 2009 
L 1997 1497 
L 313 1497 
L 313 2009 
z
" transform="scale(0.015625)"/>
      <path id="DejaVuSans-6d" d="M 3328 2828 
Q 3544 3216 3844 3400 
Q 4144 3584 4550 3584 
Q 5097 3584 5394 3201 
Q 5691 2819 5691 2113 
L 5691 0 
L 5113 0 
L 5113 2094 
Q 5113 2597 4934 2840 
Q 4756 3084 4391 3084 
Q 3944 3084 3684 2787 
Q 3425 2491 3425 1978 
L 3425 0 
L 2847 0 
L 2847 2094 
Q 2847 2600 2669 2842 
Q 2491 3084 2119 3084 
Q 1678 3084 1418 2786 
Q 1159 2488 1159 1978 
L 1159 0 
L 581 0 
L 581 3500 
L 1159 3500 
L 1159 2956 
Q 1356 3278 1631 3431 
Q 1906 3584 2284 3584 
Q 2666 3584 2933 3390 
Q 3200 3197 3328 2828 
z
" transform="scale(0.015625)"/>
      <path id="DejaVuSans-78" d="M 3513 3500 
L 2247 1797 
L 3578 0 
L 2900 0 
L 1881 1375 
L 863 0 
L 184 0 
L 1544 1831 
L 300 3500 
L 978 3500 
L 1906 2253 
L 2834 3500 
L 3513 3500 
z
" transform="scale(0.015625)"/>
      <path id="DejaVuSans-77" d="M 269 3500 
L 844 3500 
L 1563 769 
L 2278 3500 
L 2956 3500 
L 3675 769 
L 4391 3500 
L 4966 3500 
L 4050 0 
L 3372 0 
L 2619 2869 
L 1863 0 
L 1184 0 
L 269 3500 
z
" transform="scale(0.015625)"/>
      <path id="DejaVuSans-68" d="M 3513 2113 
L 3513 0 
L 2938 0 
L 2938 2094 
Q 2938 2591 2744 2837 
Q 2550 3084 2163 3084 
Q 1697 3084 1428 2787 
Q 1159 2491 1159 1978 
L 1159 0 
L 581 0 
L 581 4863 
L 1159 4863 
L 1159 2956 
Q 1366 3272 1645 3428 
Q 1925 3584 2291 3584 
Q 2894 3584 3203 3211 
Q 3513 2838 3513 2113 
z
" transform="scale(0.015625)"/>
      <path id="DejaVuSans-3d" d="M 678 2906 
L 4684 2906 
L 4684 2381 
L 678 2381 
L 678 2906 
z
M 678 1631 
L 4684 1631 
L 4684 1100 
L 678 1100 
L 678 1631 
z
" transform="scale(0.015625)"/>
     </defs>
     <use xlink:href="#DejaVuSans-52"/>
     <use xlink:href="#DejaVuSans-2d" x="65.482422"/>
     <use xlink:href="#DejaVuSans-6d" x="101.566406"/>
     <use xlink:href="#DejaVuSans-61" x="198.978516"/>
     <use xlink:href="#DejaVuSans-78" x="260.257812"/>
     <use xlink:href="#DejaVuSans-20" x="319.4375"/>
     <use xlink:href="#DejaVuSans-6f" x="351.224609"/>
     <use xlink:href="#DejaVuSans-70" x="412.40625"/>
     <use xlink:href="#DejaVuSans-74" x="475.882812"/>
     <use xlink:href="#DejaVuSans-69" x="515.091797"/>
     <use xlink:href="#DejaVuSans-6d" x="542.875"/>
     <use xlink:href="#DejaVuSans-61" x="640.287109"/>
     <use xlink:href="#DejaVuSans-6c" x="701.566406"/>
     <use xlink:href="#DejaVuSans-20" x="729.349609"/>
     <use xlink:href="#DejaVuSans-70" x="761.136719"/>
     <use xlink:href="#DejaVuSans-6f" x="824.613281"/>
     <use xlink:href="#DejaVuSans-6c" x="885.794922"/>
     <use xlink:href="#DejaVuSans-69" x="913.578125"/>
     <use xlink:href="#DejaVuSans-63" x="941.361328"/>
     <use xlink:href="#DejaVuSans-79" x="996.341797"/>
     <use xlink:href="#DejaVuSans-20" x="1055.521484"/>
     <use xlink:href="#DejaVuSans-77" x="1087.308594"/>
     <use xlink:href="#DejaVuSans-69" x="1169.095703"/>
     <use xlink:href="#DejaVuSans-74" x="1196.878906"/>
     <use xlink:href="#DejaVuSans-68" x="1236.087891"/>
     <use xlink:href="#DejaVuSans-20" x="1299.466797"/>
     <use xlink:href="#DejaVuSans-6d" x="1331.253906"/>
     <use xlink:href="#DejaVuSans-20" x="1428.666016"/>
     <use xlink:href="#DejaVuSans-3d" x="1460.453125"/>
     <use xlink:href="#DejaVuSans-20" x="1544.242188"/>
     <use xlink:href="#DejaVuSans-34" x="1576.029297"/>
     <use xlink:href="#DejaVuSans-30" x="1639.652344"/>
    </g>
   </g>
   <g id="legend_1">
    <g id="patch_7">
     <path d="M 145.90625 182.170625 
L 296.89375 182.170625 
Q 298.89375 182.170625 298.89375 180.170625 
L 298.89375 106.389375 
Q 298.89375 104.389375 296.89375 104.389375 
L 145.90625 104.389375 
Q 143.90625 104.389375 143.90625 106.389375 
L 143.90625 180.170625 
Q 143.90625 182.170625 145.90625 182.170625 
z
" style="fill: #ffffff; opacity: 0.8; stroke: #cccccc; stroke-linejoin: miter"/>
    </g>
    <g id="line2d_34">
     <path d="M 147.90625 112.487813 
L 157.90625 112.487813 
L 167.90625 112.487813 
" style="fill: none; stroke: #9d02d7; stroke-width: 1.5; stroke-linecap: square"/>
     <g>
      <use xlink:href="#md8fc1bf867" x="157.90625" y="112.487813" style="fill: #9d02d7; stroke: #9d02d7; stroke-linejoin: miter"/>
     </g>
    </g>
    <g id="text_18">
     <!-- m_uncertain_states=5 -->
     <g transform="translate(175.90625 115.987813)scale(0.1 -0.1)">
      <defs>
       <path id="DejaVuSans-5f" d="M 3263 -1063 
L 3263 -1509 
L -63 -1509 
L -63 -1063 
L 3263 -1063 
z
" transform="scale(0.015625)"/>
       <path id="DejaVuSans-6e" d="M 3513 2113 
L 3513 0 
L 2938 0 
L 2938 2094 
Q 2938 2591 2744 2837 
Q 2550 3084 2163 3084 
Q 1697 3084 1428 2787 
Q 1159 2491 1159 1978 
L 1159 0 
L 581 0 
L 581 3500 
L 1159 3500 
L 1159 2956 
Q 1366 3272 1645 3428 
Q 1925 3584 2291 3584 
Q 2894 3584 3203 3211 
Q 3513 2838 3513 2113 
z
" transform="scale(0.015625)"/>
      </defs>
      <use xlink:href="#DejaVuSans-6d"/>
      <use xlink:href="#DejaVuSans-5f" x="97.412109"/>
      <use xlink:href="#DejaVuSans-75" x="147.412109"/>
      <use xlink:href="#DejaVuSans-6e" x="210.791016"/>
      <use xlink:href="#DejaVuSans-63" x="274.169922"/>
      <use xlink:href="#DejaVuSans-65" x="329.150391"/>
      <use xlink:href="#DejaVuSans-72" x="390.673828"/>
      <use xlink:href="#DejaVuSans-74" x="431.787109"/>
      <use xlink:href="#DejaVuSans-61" x="470.996094"/>
      <use xlink:href="#DejaVuSans-69" x="532.275391"/>
      <use xlink:href="#DejaVuSans-6e" x="560.058594"/>
      <use xlink:href="#DejaVuSans-5f" x="623.4375"/>
      <use xlink:href="#DejaVuSans-73" x="673.4375"/>
      <use xlink:href="#DejaVuSans-74" x="725.537109"/>
      <use xlink:href="#DejaVuSans-61" x="764.746094"/>
      <use xlink:href="#DejaVuSans-74" x="826.025391"/>
      <use xlink:href="#DejaVuSans-65" x="865.234375"/>
      <use xlink:href="#DejaVuSans-73" x="926.757812"/>
      <use xlink:href="#DejaVuSans-3d" x="978.857422"/>
      <use xlink:href="#DejaVuSans-35" x="1062.646484"/>
     </g>
    </g>
    <g id="line2d_35">
     <path d="M 147.90625 127.444063 
L 157.90625 127.444063 
L 167.90625 127.444063 
" style="fill: none; stroke: #0000ff; stroke-width: 1.5; stroke-linecap: square"/>
     <g>
      <use xlink:href="#m85b9925e4e" x="157.90625" y="127.444063" style="fill: #0000ff; stroke: #0000ff"/>
     </g>
    </g>
    <g id="text_19">
     <!-- m_uncertain_states=10 -->
     <g transform="translate(175.90625 130.944063)scale(0.1 -0.1)">
      <use xlink:href="#DejaVuSans-6d"/>
      <use xlink:href="#DejaVuSans-5f" x="97.412109"/>
      <use xlink:href="#DejaVuSans-75" x="147.412109"/>
      <use xlink:href="#DejaVuSans-6e" x="210.791016"/>
      <use xlink:href="#DejaVuSans-63" x="274.169922"/>
      <use xlink:href="#DejaVuSans-65" x="329.150391"/>
      <use xlink:href="#DejaVuSans-72" x="390.673828"/>
      <use xlink:href="#DejaVuSans-74" x="431.787109"/>
      <use xlink:href="#DejaVuSans-61" x="470.996094"/>
      <use xlink:href="#DejaVuSans-69" x="532.275391"/>
      <use xlink:href="#DejaVuSans-6e" x="560.058594"/>
      <use xlink:href="#DejaVuSans-5f" x="623.4375"/>
      <use xlink:href="#DejaVuSans-73" x="673.4375"/>
      <use xlink:href="#DejaVuSans-74" x="725.537109"/>
      <use xlink:href="#DejaVuSans-61" x="764.746094"/>
      <use xlink:href="#DejaVuSans-74" x="826.025391"/>
      <use xlink:href="#DejaVuSans-65" x="865.234375"/>
      <use xlink:href="#DejaVuSans-73" x="926.757812"/>
      <use xlink:href="#DejaVuSans-3d" x="978.857422"/>
      <use xlink:href="#DejaVuSans-31" x="1062.646484"/>
      <use xlink:href="#DejaVuSans-30" x="1126.269531"/>
     </g>
    </g>
    <g id="line2d_36">
     <path d="M 147.90625 142.400313 
L 157.90625 142.400313 
L 167.90625 142.400313 
" style="fill: none; stroke: #ff7763; stroke-width: 1.5; stroke-linecap: square"/>
     <g>
      <use xlink:href="#ma636dc5938" x="157.90625" y="142.400313" style="fill: #ff7763; stroke: #ff7763"/>
     </g>
    </g>
    <g id="text_20">
     <!-- m_uncertain_states=15 -->
     <g transform="translate(175.90625 145.900313)scale(0.1 -0.1)">
      <use xlink:href="#DejaVuSans-6d"/>
      <use xlink:href="#DejaVuSans-5f" x="97.412109"/>
      <use xlink:href="#DejaVuSans-75" x="147.412109"/>
      <use xlink:href="#DejaVuSans-6e" x="210.791016"/>
      <use xlink:href="#DejaVuSans-63" x="274.169922"/>
      <use xlink:href="#DejaVuSans-65" x="329.150391"/>
      <use xlink:href="#DejaVuSans-72" x="390.673828"/>
      <use xlink:href="#DejaVuSans-74" x="431.787109"/>
      <use xlink:href="#DejaVuSans-61" x="470.996094"/>
      <use xlink:href="#DejaVuSans-69" x="532.275391"/>
      <use xlink:href="#DejaVuSans-6e" x="560.058594"/>
      <use xlink:href="#DejaVuSans-5f" x="623.4375"/>
      <use xlink:href="#DejaVuSans-73" x="673.4375"/>
      <use xlink:href="#DejaVuSans-74" x="725.537109"/>
      <use xlink:href="#DejaVuSans-61" x="764.746094"/>
      <use xlink:href="#DejaVuSans-74" x="826.025391"/>
      <use xlink:href="#DejaVuSans-65" x="865.234375"/>
      <use xlink:href="#DejaVuSans-73" x="926.757812"/>
      <use xlink:href="#DejaVuSans-3d" x="978.857422"/>
      <use xlink:href="#DejaVuSans-31" x="1062.646484"/>
      <use xlink:href="#DejaVuSans-35" x="1126.269531"/>
     </g>
    </g>
    <g id="line2d_37">
     <path d="M 147.90625 157.356563 
L 157.90625 157.356563 
L 167.90625 157.356563 
" style="fill: none; stroke: #ffac1e; stroke-width: 1.5; stroke-linecap: square"/>
     <g>
      <use xlink:href="#me9a4e455b9" x="157.90625" y="157.356563" style="fill: #ffac1e; stroke: #ffac1e; stroke-linejoin: bevel"/>
     </g>
    </g>
    <g id="text_21">
     <!-- m_uncertain_states=20 -->
     <g transform="translate(175.90625 160.856563)scale(0.1 -0.1)">
      <use xlink:href="#DejaVuSans-6d"/>
      <use xlink:href="#DejaVuSans-5f" x="97.412109"/>
      <use xlink:href="#DejaVuSans-75" x="147.412109"/>
      <use xlink:href="#DejaVuSans-6e" x="210.791016"/>
      <use xlink:href="#DejaVuSans-63" x="274.169922"/>
      <use xlink:href="#DejaVuSans-65" x="329.150391"/>
      <use xlink:href="#DejaVuSans-72" x="390.673828"/>
      <use xlink:href="#DejaVuSans-74" x="431.787109"/>
      <use xlink:href="#DejaVuSans-61" x="470.996094"/>
      <use xlink:href="#DejaVuSans-69" x="532.275391"/>
      <use xlink:href="#DejaVuSans-6e" x="560.058594"/>
      <use xlink:href="#DejaVuSans-5f" x="623.4375"/>
      <use xlink:href="#DejaVuSans-73" x="673.4375"/>
      <use xlink:href="#DejaVuSans-74" x="725.537109"/>
      <use xlink:href="#DejaVuSans-61" x="764.746094"/>
      <use xlink:href="#DejaVuSans-74" x="826.025391"/>
      <use xlink:href="#DejaVuSans-65" x="865.234375"/>
      <use xlink:href="#DejaVuSans-73" x="926.757812"/>
      <use xlink:href="#DejaVuSans-3d" x="978.857422"/>
      <use xlink:href="#DejaVuSans-32" x="1062.646484"/>
      <use xlink:href="#DejaVuSans-30" x="1126.269531"/>
     </g>
    </g>
    <g id="line2d_38">
     <path d="M 147.90625 172.312813 
L 157.90625 172.312813 
L 167.90625 172.312813 
" style="fill: none; stroke: #009435; stroke-width: 1.5; stroke-linecap: square"/>
     <g>
      <use xlink:href="#mc7d32c2589" x="157.90625" y="172.312813" style="fill: #009435; stroke: #009435; stroke-linejoin: miter"/>
     </g>
    </g>
    <g id="text_22">
     <!-- m_uncertain_states=25 -->
     <g transform="translate(175.90625 175.812813)scale(0.1 -0.1)">
      <use xlink:href="#DejaVuSans-6d"/>
      <use xlink:href="#DejaVuSans-5f" x="97.412109"/>
      <use xlink:href="#DejaVuSans-75" x="147.412109"/>
      <use xlink:href="#DejaVuSans-6e" x="210.791016"/>
      <use xlink:href="#DejaVuSans-63" x="274.169922"/>
      <use xlink:href="#DejaVuSans-65" x="329.150391"/>
      <use xlink:href="#DejaVuSans-72" x="390.673828"/>
      <use xlink:href="#DejaVuSans-74" x="431.787109"/>
      <use xlink:href="#DejaVuSans-61" x="470.996094"/>
      <use xlink:href="#DejaVuSans-69" x="532.275391"/>
      <use xlink:href="#DejaVuSans-6e" x="560.058594"/>
      <use xlink:href="#DejaVuSans-5f" x="623.4375"/>
      <use xlink:href="#DejaVuSans-73" x="673.4375"/>
      <use xlink:href="#DejaVuSans-74" x="725.537109"/>
      <use xlink:href="#DejaVuSans-61" x="764.746094"/>
      <use xlink:href="#DejaVuSans-74" x="826.025391"/>
      <use xlink:href="#DejaVuSans-65" x="865.234375"/>
      <use xlink:href="#DejaVuSans-73" x="926.757812"/>
      <use xlink:href="#DejaVuSans-3d" x="978.857422"/>
      <use xlink:href="#DejaVuSans-32" x="1062.646484"/>
      <use xlink:href="#DejaVuSans-35" x="1126.269531"/>
     </g>
    </g>
   </g>
  </g>
 </g>
 <defs>
  <clipPath id="p3968b6c271">
   <rect x="54" y="34.56" width="334.8" height="217.44"/>
  </clipPath>
 </defs>
</svg>
