<?xml version="1.0" encoding="utf-8" standalone="no"?>
<!DOCTYPE svg PUBLIC "-//W3C//DTD SVG 1.1//EN"
  "http://www.w3.org/Graphics/SVG/1.1/DTD/svg11.dtd">
<svg xmlns:xlink="http://www.w3.org/1999/xlink" width="432pt" height="288pt" viewBox="0 0 432 288" xmlns="http://www.w3.org/2000/svg" version="1.1">
 <metadata>
  <rdf:RDF xmlns:dc="http://purl.org/dc/elements/1.1/" xmlns:cc="http://creativecommons.org/ns#" xmlns:rdf="http://www.w3.org/1999/02/22-rdf-syntax-ns#">
   <cc:Work>
    <dc:type rdf:resource="http://purl.org/dc/dcmitype/StillImage"/>
    <dc:date>2023-01-11T15:36:35.467617</dc:date>
    <dc:format>image/svg+xml</dc:format>
    <dc:creator>
     <cc:Agent>
      <dc:title>Matplotlib v3.5.2, https://matplotlib.org/</dc:title>
     </cc:Agent>
    </dc:creator>
   </cc:Work>
  </rdf:RDF>
 </metadata>
 <defs>
  <style type="text/css">*{stroke-linejoin: round; stroke-linecap: butt}</style>
 </defs>
 <g id="figure_1">
  <g id="patch_1">
   <path d="M 0 288 
L 432 288 
L 432 0 
L 0 0 
z
" style="fill: #ffffff"/>
  </g>
  <g id="axes_1">
   <g id="patch_2">
    <path d="M 54 252 
L 388.8 252 
L 388.8 34.56 
L 54 34.56 
z
" style="fill: #ffffff"/>
   </g>
   <g id="PolyCollection_1">
    <defs>
     <path id="m6b5cb1adef" d="M 69.218182 -35.08094 
L 69.218182 -35.08094 
L 74.376888 -34.511663 
L 79.535593 -34.817547 
L 84.694299 -35.215999 
L 89.853005 -35.091182 
L 95.01171 -34.979977 
L 100.170416 -35.076115 
L 105.329122 -35.091182 
L 110.487827 -35.081254 
L 115.646533 -35.070991 
L 120.805239 -34.707919 
L 125.963945 -26.5702 
L 131.12265 -25.900948 
L 136.281356 -34.364846 
L 141.440062 -34.367067 
L 146.598767 -26.43628 
L 151.757473 -31.991071 
L 156.916179 -29.748818 
L 162.074884 -29.200767 
L 167.23359 -34.364912 
L 172.392296 -34.029626 
L 177.551002 -50.653493 
L 182.709707 -52.228707 
L 187.868413 -42.393814 
L 193.027119 -36.202995 
L 198.185824 -34.986274 
L 203.34453 -67.317787 
L 208.503236 -36.988529 
L 213.661941 -41.964647 
L 218.820647 -35.637046 
L 223.979353 -35.794624 
L 229.138059 -36.826477 
L 234.296764 -44.701995 
L 239.45547 -47.41458 
L 244.614176 -95.527178 
L 249.772881 -32.997396 
L 254.931587 -34.673853 
L 260.090293 -34.972909 
L 265.248998 -34.219991 
L 270.407704 -35.961656 
L 275.56641 -35.897625 
L 280.725116 -33.078217 
L 285.883821 -34.18249 
L 291.042527 -36.440165 
L 296.201233 -37.261153 
L 301.359938 -50.919039 
L 306.518644 -119.749144 
L 311.67735 -49.4727 
L 316.836055 -37.023532 
L 321.994761 -34.219992 
L 327.153467 -44.773059 
L 332.312173 -41.554707 
L 337.470878 -29.61917 
L 342.629584 -75.019508 
L 347.78829 -37.041729 
L 352.946995 -36.384319 
L 358.105701 -37.365913 
L 363.264407 -43.733066 
L 368.423112 -44.736844 
L 373.581818 -36.854831 
L 373.581818 -36.854831 
L 373.581818 -36.854831 
L 368.423112 -44.736844 
L 363.264407 -43.733066 
L 358.105701 -37.365913 
L 352.946995 -36.384319 
L 347.78829 -37.041729 
L 342.629584 -75.019508 
L 337.470878 -29.61917 
L 332.312173 -41.554707 
L 327.153467 -44.773059 
L 321.994761 -34.219992 
L 316.836055 -37.023532 
L 311.67735 -49.4727 
L 306.518644 -119.749144 
L 301.359938 -50.919039 
L 296.201233 -37.261153 
L 291.042527 -36.440165 
L 285.883821 -34.18249 
L 280.725116 -33.078217 
L 275.56641 -35.897625 
L 270.407704 -35.961656 
L 265.248998 -34.219991 
L 260.090293 -34.972909 
L 254.931587 -34.673853 
L 249.772881 -32.997396 
L 244.614176 -95.527178 
L 239.45547 -47.41458 
L 234.296764 -44.701995 
L 229.138059 -36.826477 
L 223.979353 -35.794624 
L 218.820647 -35.637046 
L 213.661941 -41.964647 
L 208.503236 -36.988529 
L 203.34453 -67.317787 
L 198.185824 -34.986274 
L 193.027119 -36.202995 
L 187.868413 -42.393814 
L 182.709707 -52.228707 
L 177.551002 -50.653493 
L 172.392296 -34.029626 
L 167.23359 -34.364912 
L 162.074884 -29.200767 
L 156.916179 -29.748818 
L 151.757473 -31.991071 
L 146.598767 -26.43628 
L 141.440062 -34.367067 
L 136.281356 -34.364846 
L 131.12265 -25.900948 
L 125.963945 -26.5702 
L 120.805239 -34.707919 
L 115.646533 -35.070991 
L 110.487827 -35.081254 
L 105.329122 -35.091182 
L 100.170416 -35.076115 
L 95.01171 -34.979977 
L 89.853005 -35.091182 
L 84.694299 -35.215999 
L 79.535593 -34.817547 
L 74.376888 -34.511663 
L 69.218182 -35.08094 
z
" style="stroke: #9d02d7; stroke-opacity: 0.2"/>
    </defs>
    <g clip-path="url(#pacb667b7b2)">
     <use xlink:href="#m6b5cb1adef" x="0" y="288" style="fill: #9d02d7; fill-opacity: 0.2; stroke: #9d02d7; stroke-opacity: 0.2"/>
    </g>
   </g>
   <g id="PolyCollection_2">
    <defs>
     <path id="mbdc5782327" d="M 69.218182 -35.091182 
L 69.218182 -35.091182 
L 74.376888 -35.875048 
L 79.535593 -31.927455 
L 84.694299 -30.179398 
L 89.853005 -33.707235 
L 95.01171 -33.838289 
L 100.170416 -31.566574 
L 105.329122 -33.868619 
L 110.487827 -34.565689 
L 115.646533 -33.258081 
L 120.805239 -33.859081 
L 125.963945 -34.491547 
L 131.12265 -34.636631 
L 136.281356 -33.554288 
L 141.440062 -35.437482 
L 146.598767 -35.334937 
L 151.757473 -30.997684 
L 156.916179 -31.221808 
L 162.074884 -32.482339 
L 167.23359 -34.375968 
L 172.392296 -33.289343 
L 177.551002 -35.328275 
L 182.709707 -34.831203 
L 187.868413 -35.525426 
L 193.027119 -34.254416 
L 198.185824 -14.91705 
L 203.34453 -25.431531 
L 208.503236 -34.661298 
L 213.661941 -33.985956 
L 218.820647 -32.222831 
L 223.979353 -28.856991 
L 229.138059 -32.420475 
L 234.296764 -31.258257 
L 239.45547 -37.915153 
L 244.614176 -14.458631 
L 249.772881 -30.695785 
L 254.931587 -13.549754 
L 260.090293 -16.309022 
L 265.248998 -14.917397 
L 270.407704 -32.215662 
L 275.56641 -33.994675 
L 280.725116 -32.778623 
L 285.883821 -16.024254 
L 291.042527 -14.486745 
L 296.201233 -13.717104 
L 301.359938 -31.891923 
L 306.518644 -31.780136 
L 311.67735 -30.029513 
L 316.836055 -31.740839 
L 321.994761 -29.768707 
L 327.153467 -30.030421 
L 332.312173 -14.470482 
L 337.470878 -33.68118 
L 342.629584 -55.376917 
L 347.78829 -32.206922 
L 352.946995 -14.940435 
L 358.105701 -30.695867 
L 363.264407 -55.620507 
L 368.423112 -13.777588 
L 373.581818 -30.688938 
L 373.581818 -30.688938 
L 373.581818 -30.688938 
L 368.423112 -13.777588 
L 363.264407 -55.620507 
L 358.105701 -30.695867 
L 352.946995 -14.940435 
L 347.78829 -32.206922 
L 342.629584 -55.376917 
L 337.470878 -33.68118 
L 332.312173 -14.470482 
L 327.153467 -30.030421 
L 321.994761 -29.768707 
L 316.836055 -31.740839 
L 311.67735 -30.029513 
L 306.518644 -31.780136 
L 301.359938 -31.891923 
L 296.201233 -13.717104 
L 291.042527 -14.486745 
L 285.883821 -16.024254 
L 280.725116 -32.778623 
L 275.56641 -33.994675 
L 270.407704 -32.215662 
L 265.248998 -14.917397 
L 260.090293 -16.309022 
L 254.931587 -13.549754 
L 249.772881 -30.695785 
L 244.614176 -14.458631 
L 239.45547 -37.915153 
L 234.296764 -31.258257 
L 229.138059 -32.420475 
L 223.979353 -28.856991 
L 218.820647 -32.222831 
L 213.661941 -33.985956 
L 208.503236 -34.661298 
L 203.34453 -25.431531 
L 198.185824 -14.91705 
L 193.027119 -34.254416 
L 187.868413 -35.525426 
L 182.709707 -34.831203 
L 177.551002 -35.328275 
L 172.392296 -33.289343 
L 167.23359 -34.375968 
L 162.074884 -32.482339 
L 156.916179 -31.221808 
L 151.757473 -30.997684 
L 146.598767 -35.334937 
L 141.440062 -35.437482 
L 136.281356 -33.554288 
L 131.12265 -34.636631 
L 125.963945 -34.491547 
L 120.805239 -33.859081 
L 115.646533 -33.258081 
L 110.487827 -34.565689 
L 105.329122 -33.868619 
L 100.170416 -31.566574 
L 95.01171 -33.838289 
L 89.853005 -33.707235 
L 84.694299 -30.179398 
L 79.535593 -31.927455 
L 74.376888 -35.875048 
L 69.218182 -35.091182 
z
" style="stroke: #0000ff; stroke-opacity: 0.2"/>
    </defs>
    <g clip-path="url(#pacb667b7b2)">
     <use xlink:href="#mbdc5782327" x="0" y="288" style="fill: #0000ff; fill-opacity: 0.2; stroke: #0000ff; stroke-opacity: 0.2"/>
    </g>
   </g>
   <g id="PolyCollection_3">
    <defs>
     <path id="mef934769c5" d="M 69.218182 -33.910345 
L 69.218182 -33.910345 
L 74.376888 -35.091182 
L 79.535593 -34.798113 
L 84.694299 -35.061966 
L 89.853005 -34.879911 
L 95.01171 -34.78993 
L 100.170416 -35.091182 
L 105.329122 -35.079512 
L 110.487827 -35.091182 
L 115.646533 -33.782308 
L 120.805239 -34.763303 
L 125.963945 -35.091182 
L 131.12265 -35.091182 
L 136.281356 -35.081261 
L 141.440062 -35.091182 
L 146.598767 -35.080856 
L 151.757473 -34.570402 
L 156.916179 -33.302616 
L 162.074884 -34.838386 
L 167.23359 -29.742793 
L 172.392296 -35.091182 
L 177.551002 -35.091182 
L 182.709707 -34.688249 
L 187.868413 -34.953623 
L 193.027119 -35.091182 
L 198.185824 -34.304226 
L 203.34453 -34.510199 
L 208.503236 -35.08189 
L 213.661941 -35.030214 
L 218.820647 -31.41595 
L 223.979353 -35.091182 
L 229.138059 -35.091182 
L 234.296764 -35.033034 
L 239.45547 -34.550072 
L 244.614176 -31.45131 
L 249.772881 -34.751785 
L 254.931587 -35.047841 
L 260.090293 -34.908614 
L 265.248998 -31.706726 
L 270.407704 -33.182001 
L 275.56641 -32.698547 
L 280.725116 -33.90926 
L 285.883821 -35.091182 
L 291.042527 -34.479039 
L 296.201233 -34.768827 
L 301.359938 -29.098416 
L 306.518644 -35.091182 
L 311.67735 -35.091182 
L 316.836055 -34.772185 
L 321.994761 -35.091182 
L 327.153467 -31.622088 
L 332.312173 -34.649723 
L 337.470878 -35.088991 
L 342.629584 -33.932561 
L 347.78829 -34.946835 
L 352.946995 -34.165612 
L 358.105701 -35.091182 
L 363.264407 -35.046375 
L 368.423112 -35.091182 
L 373.581818 -27.040687 
L 373.581818 -27.040687 
L 373.581818 -27.040687 
L 368.423112 -35.091182 
L 363.264407 -35.046375 
L 358.105701 -35.091182 
L 352.946995 -34.165612 
L 347.78829 -34.946835 
L 342.629584 -33.932561 
L 337.470878 -35.088991 
L 332.312173 -34.649723 
L 327.153467 -31.622088 
L 321.994761 -35.091182 
L 316.836055 -34.772185 
L 311.67735 -35.091182 
L 306.518644 -35.091182 
L 301.359938 -29.098416 
L 296.201233 -34.768827 
L 291.042527 -34.479039 
L 285.883821 -35.091182 
L 280.725116 -33.90926 
L 275.56641 -32.698547 
L 270.407704 -33.182001 
L 265.248998 -31.706726 
L 260.090293 -34.908614 
L 254.931587 -35.047841 
L 249.772881 -34.751785 
L 244.614176 -31.45131 
L 239.45547 -34.550072 
L 234.296764 -35.033034 
L 229.138059 -35.091182 
L 223.979353 -35.091182 
L 218.820647 -31.41595 
L 213.661941 -35.030214 
L 208.503236 -35.08189 
L 203.34453 -34.510199 
L 198.185824 -34.304226 
L 193.027119 -35.091182 
L 187.868413 -34.953623 
L 182.709707 -34.688249 
L 177.551002 -35.091182 
L 172.392296 -35.091182 
L 167.23359 -29.742793 
L 162.074884 -34.838386 
L 156.916179 -33.302616 
L 151.757473 -34.570402 
L 146.598767 -35.080856 
L 141.440062 -35.091182 
L 136.281356 -35.081261 
L 131.12265 -35.091182 
L 125.963945 -35.091182 
L 120.805239 -34.763303 
L 115.646533 -33.782308 
L 110.487827 -35.091182 
L 105.329122 -35.079512 
L 100.170416 -35.091182 
L 95.01171 -34.78993 
L 89.853005 -34.879911 
L 84.694299 -35.061966 
L 79.535593 -34.798113 
L 74.376888 -35.091182 
L 69.218182 -33.910345 
z
" style="stroke: #ff7763; stroke-opacity: 0.2"/>
    </defs>
    <g clip-path="url(#pacb667b7b2)">
     <use xlink:href="#mef934769c5" x="0" y="288" style="fill: #ff7763; fill-opacity: 0.2; stroke: #ff7763; stroke-opacity: 0.2"/>
    </g>
   </g>
   <g id="PolyCollection_4">
    <defs>
     <path id="md8f2638474" d="M 69.218182 -33.321761 
L 69.218182 -33.321761 
L 74.376888 -34.741944 
L 79.535593 -34.884994 
L 84.694299 -35.091182 
L 89.853005 -35.091182 
L 95.01171 -35.304844 
L 100.170416 -35.091182 
L 105.329122 -35.091182 
L 110.487827 -35.091182 
L 115.646533 -35.091182 
L 120.805239 -35.091182 
L 125.963945 -35.091182 
L 131.12265 -35.091182 
L 136.281356 -35.091182 
L 141.440062 -35.091182 
L 146.598767 -35.091182 
L 151.757473 -35.091182 
L 156.916179 -35.091182 
L 162.074884 -35.091182 
L 167.23359 -35.091182 
L 172.392296 -35.091182 
L 177.551002 -35.091182 
L 182.709707 -35.091182 
L 187.868413 -35.091182 
L 193.027119 -35.091182 
L 198.185824 -35.091182 
L 203.34453 -35.091182 
L 208.503236 -35.091182 
L 213.661941 -35.091182 
L 218.820647 -35.091182 
L 223.979353 -35.091182 
L 229.138059 -35.091182 
L 234.296764 -35.091182 
L 239.45547 -35.091182 
L 244.614176 -35.091182 
L 249.772881 -35.091182 
L 254.931587 -35.091182 
L 260.090293 -35.091182 
L 265.248998 -35.091182 
L 270.407704 -35.091182 
L 275.56641 -35.091182 
L 280.725116 -35.091182 
L 285.883821 -35.091182 
L 291.042527 -35.091182 
L 296.201233 -35.091182 
L 301.359938 -35.091182 
L 306.518644 -35.091182 
L 311.67735 -35.091182 
L 316.836055 -35.091182 
L 321.994761 -35.091182 
L 327.153467 -35.091182 
L 332.312173 -35.091182 
L 337.470878 -35.091182 
L 342.629584 -35.091182 
L 347.78829 -35.091182 
L 352.946995 -35.091182 
L 358.105701 -35.091182 
L 363.264407 -35.091182 
L 368.423112 -35.091182 
L 373.581818 -35.091182 
L 373.581818 -35.091182 
L 373.581818 -35.091182 
L 368.423112 -35.091182 
L 363.264407 -35.091182 
L 358.105701 -35.091182 
L 352.946995 -35.091182 
L 347.78829 -35.091182 
L 342.629584 -35.091182 
L 337.470878 -35.091182 
L 332.312173 -35.091182 
L 327.153467 -35.091182 
L 321.994761 -35.091182 
L 316.836055 -35.091182 
L 311.67735 -35.091182 
L 306.518644 -35.091182 
L 301.359938 -35.091182 
L 296.201233 -35.091182 
L 291.042527 -35.091182 
L 285.883821 -35.091182 
L 280.725116 -35.091182 
L 275.56641 -35.091182 
L 270.407704 -35.091182 
L 265.248998 -35.091182 
L 260.090293 -35.091182 
L 254.931587 -35.091182 
L 249.772881 -35.091182 
L 244.614176 -35.091182 
L 239.45547 -35.091182 
L 234.296764 -35.091182 
L 229.138059 -35.091182 
L 223.979353 -35.091182 
L 218.820647 -35.091182 
L 213.661941 -35.091182 
L 208.503236 -35.091182 
L 203.34453 -35.091182 
L 198.185824 -35.091182 
L 193.027119 -35.091182 
L 187.868413 -35.091182 
L 182.709707 -35.091182 
L 177.551002 -35.091182 
L 172.392296 -35.091182 
L 167.23359 -35.091182 
L 162.074884 -35.091182 
L 156.916179 -35.091182 
L 151.757473 -35.091182 
L 146.598767 -35.091182 
L 141.440062 -35.091182 
L 136.281356 -35.091182 
L 131.12265 -35.091182 
L 125.963945 -35.091182 
L 120.805239 -35.091182 
L 115.646533 -35.091182 
L 110.487827 -35.091182 
L 105.329122 -35.091182 
L 100.170416 -35.091182 
L 95.01171 -35.304844 
L 89.853005 -35.091182 
L 84.694299 -35.091182 
L 79.535593 -34.884994 
L 74.376888 -34.741944 
L 69.218182 -33.321761 
z
" style="stroke: #ffac1e; stroke-opacity: 0.2"/>
    </defs>
    <g clip-path="url(#pacb667b7b2)">
     <use xlink:href="#md8f2638474" x="0" y="288" style="fill: #ffac1e; fill-opacity: 0.2; stroke: #ffac1e; stroke-opacity: 0.2"/>
    </g>
   </g>
   <g id="matplotlib.axis_1">
    <g id="xtick_1">
     <g id="line2d_1">
      <path d="M 69.218182 252 
L 69.218182 34.56 
" clip-path="url(#pacb667b7b2)" style="fill: none; stroke-dasharray: 2.96,1.28; stroke-dashoffset: 0; stroke: #b0b0b0; stroke-width: 0.8"/>
     </g>
     <g id="line2d_2">
      <defs>
       <path id="m79bcd3fa0b" d="M 0 0 
L 0 3.5 
" style="stroke: #000000; stroke-width: 0.8"/>
      </defs>
      <g>
       <use xlink:href="#m79bcd3fa0b" x="69.218182" y="252" style="stroke: #000000; stroke-width: 0.8"/>
      </g>
     </g>
     <g id="text_1">
      <!-- 0 -->
      <g transform="translate(66.036932 266.598437)scale(0.1 -0.1)">
       <defs>
        <path id="DejaVuSans-30" d="M 2034 4250 
Q 1547 4250 1301 3770 
Q 1056 3291 1056 2328 
Q 1056 1369 1301 889 
Q 1547 409 2034 409 
Q 2525 409 2770 889 
Q 3016 1369 3016 2328 
Q 3016 3291 2770 3770 
Q 2525 4250 2034 4250 
z
M 2034 4750 
Q 2819 4750 3233 4129 
Q 3647 3509 3647 2328 
Q 3647 1150 3233 529 
Q 2819 -91 2034 -91 
Q 1250 -91 836 529 
Q 422 1150 422 2328 
Q 422 3509 836 4129 
Q 1250 4750 2034 4750 
z
" transform="scale(0.015625)"/>
       </defs>
       <use xlink:href="#DejaVuSans-30"/>
      </g>
     </g>
    </g>
    <g id="xtick_2">
     <g id="line2d_3">
      <path d="M 120.805239 252 
L 120.805239 34.56 
" clip-path="url(#pacb667b7b2)" style="fill: none; stroke-dasharray: 2.96,1.28; stroke-dashoffset: 0; stroke: #b0b0b0; stroke-width: 0.8"/>
     </g>
     <g id="line2d_4">
      <g>
       <use xlink:href="#m79bcd3fa0b" x="120.805239" y="252" style="stroke: #000000; stroke-width: 0.8"/>
      </g>
     </g>
     <g id="text_2">
      <!-- 500 -->
      <g transform="translate(111.261489 266.598437)scale(0.1 -0.1)">
       <defs>
        <path id="DejaVuSans-35" d="M 691 4666 
L 3169 4666 
L 3169 4134 
L 1269 4134 
L 1269 2991 
Q 1406 3038 1543 3061 
Q 1681 3084 1819 3084 
Q 2600 3084 3056 2656 
Q 3513 2228 3513 1497 
Q 3513 744 3044 326 
Q 2575 -91 1722 -91 
Q 1428 -91 1123 -41 
Q 819 9 494 109 
L 494 744 
Q 775 591 1075 516 
Q 1375 441 1709 441 
Q 2250 441 2565 725 
Q 2881 1009 2881 1497 
Q 2881 1984 2565 2268 
Q 2250 2553 1709 2553 
Q 1456 2553 1204 2497 
Q 953 2441 691 2322 
L 691 4666 
z
" transform="scale(0.015625)"/>
       </defs>
       <use xlink:href="#DejaVuSans-35"/>
       <use xlink:href="#DejaVuSans-30" x="63.623047"/>
       <use xlink:href="#DejaVuSans-30" x="127.246094"/>
      </g>
     </g>
    </g>
    <g id="xtick_3">
     <g id="line2d_5">
      <path d="M 172.392296 252 
L 172.392296 34.56 
" clip-path="url(#pacb667b7b2)" style="fill: none; stroke-dasharray: 2.96,1.28; stroke-dashoffset: 0; stroke: #b0b0b0; stroke-width: 0.8"/>
     </g>
     <g id="line2d_6">
      <g>
       <use xlink:href="#m79bcd3fa0b" x="172.392296" y="252" style="stroke: #000000; stroke-width: 0.8"/>
      </g>
     </g>
     <g id="text_3">
      <!-- 1000 -->
      <g transform="translate(159.667296 266.598437)scale(0.1 -0.1)">
       <defs>
        <path id="DejaVuSans-31" d="M 794 531 
L 1825 531 
L 1825 4091 
L 703 3866 
L 703 4441 
L 1819 4666 
L 2450 4666 
L 2450 531 
L 3481 531 
L 3481 0 
L 794 0 
L 794 531 
z
" transform="scale(0.015625)"/>
       </defs>
       <use xlink:href="#DejaVuSans-31"/>
       <use xlink:href="#DejaVuSans-30" x="63.623047"/>
       <use xlink:href="#DejaVuSans-30" x="127.246094"/>
       <use xlink:href="#DejaVuSans-30" x="190.869141"/>
      </g>
     </g>
    </g>
    <g id="xtick_4">
     <g id="line2d_7">
      <path d="M 223.979353 252 
L 223.979353 34.56 
" clip-path="url(#pacb667b7b2)" style="fill: none; stroke-dasharray: 2.96,1.28; stroke-dashoffset: 0; stroke: #b0b0b0; stroke-width: 0.8"/>
     </g>
     <g id="line2d_8">
      <g>
       <use xlink:href="#m79bcd3fa0b" x="223.979353" y="252" style="stroke: #000000; stroke-width: 0.8"/>
      </g>
     </g>
     <g id="text_4">
      <!-- 1500 -->
      <g transform="translate(211.254353 266.598437)scale(0.1 -0.1)">
       <use xlink:href="#DejaVuSans-31"/>
       <use xlink:href="#DejaVuSans-35" x="63.623047"/>
       <use xlink:href="#DejaVuSans-30" x="127.246094"/>
       <use xlink:href="#DejaVuSans-30" x="190.869141"/>
      </g>
     </g>
    </g>
    <g id="xtick_5">
     <g id="line2d_9">
      <path d="M 275.56641 252 
L 275.56641 34.56 
" clip-path="url(#pacb667b7b2)" style="fill: none; stroke-dasharray: 2.96,1.28; stroke-dashoffset: 0; stroke: #b0b0b0; stroke-width: 0.8"/>
     </g>
     <g id="line2d_10">
      <g>
       <use xlink:href="#m79bcd3fa0b" x="275.56641" y="252" style="stroke: #000000; stroke-width: 0.8"/>
      </g>
     </g>
     <g id="text_5">
      <!-- 2000 -->
      <g transform="translate(262.84141 266.598437)scale(0.1 -0.1)">
       <defs>
        <path id="DejaVuSans-32" d="M 1228 531 
L 3431 531 
L 3431 0 
L 469 0 
L 469 531 
Q 828 903 1448 1529 
Q 2069 2156 2228 2338 
Q 2531 2678 2651 2914 
Q 2772 3150 2772 3378 
Q 2772 3750 2511 3984 
Q 2250 4219 1831 4219 
Q 1534 4219 1204 4116 
Q 875 4013 500 3803 
L 500 4441 
Q 881 4594 1212 4672 
Q 1544 4750 1819 4750 
Q 2544 4750 2975 4387 
Q 3406 4025 3406 3419 
Q 3406 3131 3298 2873 
Q 3191 2616 2906 2266 
Q 2828 2175 2409 1742 
Q 1991 1309 1228 531 
z
" transform="scale(0.015625)"/>
       </defs>
       <use xlink:href="#DejaVuSans-32"/>
       <use xlink:href="#DejaVuSans-30" x="63.623047"/>
       <use xlink:href="#DejaVuSans-30" x="127.246094"/>
       <use xlink:href="#DejaVuSans-30" x="190.869141"/>
      </g>
     </g>
    </g>
    <g id="xtick_6">
     <g id="line2d_11">
      <path d="M 327.153467 252 
L 327.153467 34.56 
" clip-path="url(#pacb667b7b2)" style="fill: none; stroke-dasharray: 2.96,1.28; stroke-dashoffset: 0; stroke: #b0b0b0; stroke-width: 0.8"/>
     </g>
     <g id="line2d_12">
      <g>
       <use xlink:href="#m79bcd3fa0b" x="327.153467" y="252" style="stroke: #000000; stroke-width: 0.8"/>
      </g>
     </g>
     <g id="text_6">
      <!-- 2500 -->
      <g transform="translate(314.428467 266.598437)scale(0.1 -0.1)">
       <use xlink:href="#DejaVuSans-32"/>
       <use xlink:href="#DejaVuSans-35" x="63.623047"/>
       <use xlink:href="#DejaVuSans-30" x="127.246094"/>
       <use xlink:href="#DejaVuSans-30" x="190.869141"/>
      </g>
     </g>
    </g>
    <g id="xtick_7">
     <g id="line2d_13">
      <path d="M 378.740524 252 
L 378.740524 34.56 
" clip-path="url(#pacb667b7b2)" style="fill: none; stroke-dasharray: 2.96,1.28; stroke-dashoffset: 0; stroke: #b0b0b0; stroke-width: 0.8"/>
     </g>
     <g id="line2d_14">
      <g>
       <use xlink:href="#m79bcd3fa0b" x="378.740524" y="252" style="stroke: #000000; stroke-width: 0.8"/>
      </g>
     </g>
     <g id="text_7">
      <!-- 3000 -->
      <g transform="translate(366.015524 266.598437)scale(0.1 -0.1)">
       <defs>
        <path id="DejaVuSans-33" d="M 2597 2516 
Q 3050 2419 3304 2112 
Q 3559 1806 3559 1356 
Q 3559 666 3084 287 
Q 2609 -91 1734 -91 
Q 1441 -91 1130 -33 
Q 819 25 488 141 
L 488 750 
Q 750 597 1062 519 
Q 1375 441 1716 441 
Q 2309 441 2620 675 
Q 2931 909 2931 1356 
Q 2931 1769 2642 2001 
Q 2353 2234 1838 2234 
L 1294 2234 
L 1294 2753 
L 1863 2753 
Q 2328 2753 2575 2939 
Q 2822 3125 2822 3475 
Q 2822 3834 2567 4026 
Q 2313 4219 1838 4219 
Q 1578 4219 1281 4162 
Q 984 4106 628 3988 
L 628 4550 
Q 988 4650 1302 4700 
Q 1616 4750 1894 4750 
Q 2613 4750 3031 4423 
Q 3450 4097 3450 3541 
Q 3450 3153 3228 2886 
Q 3006 2619 2597 2516 
z
" transform="scale(0.015625)"/>
       </defs>
       <use xlink:href="#DejaVuSans-33"/>
       <use xlink:href="#DejaVuSans-30" x="63.623047"/>
       <use xlink:href="#DejaVuSans-30" x="127.246094"/>
       <use xlink:href="#DejaVuSans-30" x="190.869141"/>
      </g>
     </g>
    </g>
    <g id="text_8">
     <!-- Steps -->
     <g transform="translate(207.410156 280.276563)scale(0.1 -0.1)">
      <defs>
       <path id="DejaVuSans-53" d="M 3425 4513 
L 3425 3897 
Q 3066 4069 2747 4153 
Q 2428 4238 2131 4238 
Q 1616 4238 1336 4038 
Q 1056 3838 1056 3469 
Q 1056 3159 1242 3001 
Q 1428 2844 1947 2747 
L 2328 2669 
Q 3034 2534 3370 2195 
Q 3706 1856 3706 1288 
Q 3706 609 3251 259 
Q 2797 -91 1919 -91 
Q 1588 -91 1214 -16 
Q 841 59 441 206 
L 441 856 
Q 825 641 1194 531 
Q 1563 422 1919 422 
Q 2459 422 2753 634 
Q 3047 847 3047 1241 
Q 3047 1584 2836 1778 
Q 2625 1972 2144 2069 
L 1759 2144 
Q 1053 2284 737 2584 
Q 422 2884 422 3419 
Q 422 4038 858 4394 
Q 1294 4750 2059 4750 
Q 2388 4750 2728 4690 
Q 3069 4631 3425 4513 
z
" transform="scale(0.015625)"/>
       <path id="DejaVuSans-74" d="M 1172 4494 
L 1172 3500 
L 2356 3500 
L 2356 3053 
L 1172 3053 
L 1172 1153 
Q 1172 725 1289 603 
Q 1406 481 1766 481 
L 2356 481 
L 2356 0 
L 1766 0 
Q 1100 0 847 248 
Q 594 497 594 1153 
L 594 3053 
L 172 3053 
L 172 3500 
L 594 3500 
L 594 4494 
L 1172 4494 
z
" transform="scale(0.015625)"/>
       <path id="DejaVuSans-65" d="M 3597 1894 
L 3597 1613 
L 953 1613 
Q 991 1019 1311 708 
Q 1631 397 2203 397 
Q 2534 397 2845 478 
Q 3156 559 3463 722 
L 3463 178 
Q 3153 47 2828 -22 
Q 2503 -91 2169 -91 
Q 1331 -91 842 396 
Q 353 884 353 1716 
Q 353 2575 817 3079 
Q 1281 3584 2069 3584 
Q 2775 3584 3186 3129 
Q 3597 2675 3597 1894 
z
M 3022 2063 
Q 3016 2534 2758 2815 
Q 2500 3097 2075 3097 
Q 1594 3097 1305 2825 
Q 1016 2553 972 2059 
L 3022 2063 
z
" transform="scale(0.015625)"/>
       <path id="DejaVuSans-70" d="M 1159 525 
L 1159 -1331 
L 581 -1331 
L 581 3500 
L 1159 3500 
L 1159 2969 
Q 1341 3281 1617 3432 
Q 1894 3584 2278 3584 
Q 2916 3584 3314 3078 
Q 3713 2572 3713 1747 
Q 3713 922 3314 415 
Q 2916 -91 2278 -91 
Q 1894 -91 1617 61 
Q 1341 213 1159 525 
z
M 3116 1747 
Q 3116 2381 2855 2742 
Q 2594 3103 2138 3103 
Q 1681 3103 1420 2742 
Q 1159 2381 1159 1747 
Q 1159 1113 1420 752 
Q 1681 391 2138 391 
Q 2594 391 2855 752 
Q 3116 1113 3116 1747 
z
" transform="scale(0.015625)"/>
       <path id="DejaVuSans-73" d="M 2834 3397 
L 2834 2853 
Q 2591 2978 2328 3040 
Q 2066 3103 1784 3103 
Q 1356 3103 1142 2972 
Q 928 2841 928 2578 
Q 928 2378 1081 2264 
Q 1234 2150 1697 2047 
L 1894 2003 
Q 2506 1872 2764 1633 
Q 3022 1394 3022 966 
Q 3022 478 2636 193 
Q 2250 -91 1575 -91 
Q 1294 -91 989 -36 
Q 684 19 347 128 
L 347 722 
Q 666 556 975 473 
Q 1284 391 1588 391 
Q 1994 391 2212 530 
Q 2431 669 2431 922 
Q 2431 1156 2273 1281 
Q 2116 1406 1581 1522 
L 1381 1569 
Q 847 1681 609 1914 
Q 372 2147 372 2553 
Q 372 3047 722 3315 
Q 1072 3584 1716 3584 
Q 2034 3584 2315 3537 
Q 2597 3491 2834 3397 
z
" transform="scale(0.015625)"/>
      </defs>
      <use xlink:href="#DejaVuSans-53"/>
      <use xlink:href="#DejaVuSans-74" x="63.476562"/>
      <use xlink:href="#DejaVuSans-65" x="102.685547"/>
      <use xlink:href="#DejaVuSans-70" x="164.208984"/>
      <use xlink:href="#DejaVuSans-73" x="227.685547"/>
     </g>
    </g>
   </g>
   <g id="matplotlib.axis_2">
    <g id="ytick_1">
     <g id="line2d_15">
      <path d="M 54 243.636923 
L 388.8 243.636923 
" clip-path="url(#pacb667b7b2)" style="fill: none; stroke-dasharray: 2.96,1.28; stroke-dashoffset: 0; stroke: #b0b0b0; stroke-width: 0.8"/>
     </g>
     <g id="line2d_16">
      <defs>
       <path id="m249082d86f" d="M 0 0 
L -3.5 0 
" style="stroke: #000000; stroke-width: 0.8"/>
      </defs>
      <g>
       <use xlink:href="#m249082d86f" x="54" y="243.636923" style="stroke: #000000; stroke-width: 0.8"/>
      </g>
     </g>
     <g id="text_9">
      <!-- −12 -->
      <g transform="translate(25.895312 247.436142)scale(0.1 -0.1)">
       <defs>
        <path id="DejaVuSans-2212" d="M 678 2272 
L 4684 2272 
L 4684 1741 
L 678 1741 
L 678 2272 
z
" transform="scale(0.015625)"/>
       </defs>
       <use xlink:href="#DejaVuSans-2212"/>
       <use xlink:href="#DejaVuSans-31" x="83.789062"/>
       <use xlink:href="#DejaVuSans-32" x="147.412109"/>
      </g>
     </g>
    </g>
    <g id="ytick_2">
     <g id="line2d_17">
      <path d="M 54 210.184615 
L 388.8 210.184615 
" clip-path="url(#pacb667b7b2)" style="fill: none; stroke-dasharray: 2.96,1.28; stroke-dashoffset: 0; stroke: #b0b0b0; stroke-width: 0.8"/>
     </g>
     <g id="line2d_18">
      <g>
       <use xlink:href="#m249082d86f" x="54" y="210.184615" style="stroke: #000000; stroke-width: 0.8"/>
      </g>
     </g>
     <g id="text_10">
      <!-- −10 -->
      <g transform="translate(25.895312 213.983834)scale(0.1 -0.1)">
       <use xlink:href="#DejaVuSans-2212"/>
       <use xlink:href="#DejaVuSans-31" x="83.789062"/>
       <use xlink:href="#DejaVuSans-30" x="147.412109"/>
      </g>
     </g>
    </g>
    <g id="ytick_3">
     <g id="line2d_19">
      <path d="M 54 176.732308 
L 388.8 176.732308 
" clip-path="url(#pacb667b7b2)" style="fill: none; stroke-dasharray: 2.96,1.28; stroke-dashoffset: 0; stroke: #b0b0b0; stroke-width: 0.8"/>
     </g>
     <g id="line2d_20">
      <g>
       <use xlink:href="#m249082d86f" x="54" y="176.732308" style="stroke: #000000; stroke-width: 0.8"/>
      </g>
     </g>
     <g id="text_11">
      <!-- −8 -->
      <g transform="translate(32.257812 180.531526)scale(0.1 -0.1)">
       <defs>
        <path id="DejaVuSans-38" d="M 2034 2216 
Q 1584 2216 1326 1975 
Q 1069 1734 1069 1313 
Q 1069 891 1326 650 
Q 1584 409 2034 409 
Q 2484 409 2743 651 
Q 3003 894 3003 1313 
Q 3003 1734 2745 1975 
Q 2488 2216 2034 2216 
z
M 1403 2484 
Q 997 2584 770 2862 
Q 544 3141 544 3541 
Q 544 4100 942 4425 
Q 1341 4750 2034 4750 
Q 2731 4750 3128 4425 
Q 3525 4100 3525 3541 
Q 3525 3141 3298 2862 
Q 3072 2584 2669 2484 
Q 3125 2378 3379 2068 
Q 3634 1759 3634 1313 
Q 3634 634 3220 271 
Q 2806 -91 2034 -91 
Q 1263 -91 848 271 
Q 434 634 434 1313 
Q 434 1759 690 2068 
Q 947 2378 1403 2484 
z
M 1172 3481 
Q 1172 3119 1398 2916 
Q 1625 2713 2034 2713 
Q 2441 2713 2670 2916 
Q 2900 3119 2900 3481 
Q 2900 3844 2670 4047 
Q 2441 4250 2034 4250 
Q 1625 4250 1398 4047 
Q 1172 3844 1172 3481 
z
" transform="scale(0.015625)"/>
       </defs>
       <use xlink:href="#DejaVuSans-2212"/>
       <use xlink:href="#DejaVuSans-38" x="83.789062"/>
      </g>
     </g>
    </g>
    <g id="ytick_4">
     <g id="line2d_21">
      <path d="M 54 143.28 
L 388.8 143.28 
" clip-path="url(#pacb667b7b2)" style="fill: none; stroke-dasharray: 2.96,1.28; stroke-dashoffset: 0; stroke: #b0b0b0; stroke-width: 0.8"/>
     </g>
     <g id="line2d_22">
      <g>
       <use xlink:href="#m249082d86f" x="54" y="143.28" style="stroke: #000000; stroke-width: 0.8"/>
      </g>
     </g>
     <g id="text_12">
      <!-- −6 -->
      <g transform="translate(32.257812 147.079219)scale(0.1 -0.1)">
       <defs>
        <path id="DejaVuSans-36" d="M 2113 2584 
Q 1688 2584 1439 2293 
Q 1191 2003 1191 1497 
Q 1191 994 1439 701 
Q 1688 409 2113 409 
Q 2538 409 2786 701 
Q 3034 994 3034 1497 
Q 3034 2003 2786 2293 
Q 2538 2584 2113 2584 
z
M 3366 4563 
L 3366 3988 
Q 3128 4100 2886 4159 
Q 2644 4219 2406 4219 
Q 1781 4219 1451 3797 
Q 1122 3375 1075 2522 
Q 1259 2794 1537 2939 
Q 1816 3084 2150 3084 
Q 2853 3084 3261 2657 
Q 3669 2231 3669 1497 
Q 3669 778 3244 343 
Q 2819 -91 2113 -91 
Q 1303 -91 875 529 
Q 447 1150 447 2328 
Q 447 3434 972 4092 
Q 1497 4750 2381 4750 
Q 2619 4750 2861 4703 
Q 3103 4656 3366 4563 
z
" transform="scale(0.015625)"/>
       </defs>
       <use xlink:href="#DejaVuSans-2212"/>
       <use xlink:href="#DejaVuSans-36" x="83.789062"/>
      </g>
     </g>
    </g>
    <g id="ytick_5">
     <g id="line2d_23">
      <path d="M 54 109.827692 
L 388.8 109.827692 
" clip-path="url(#pacb667b7b2)" style="fill: none; stroke-dasharray: 2.96,1.28; stroke-dashoffset: 0; stroke: #b0b0b0; stroke-width: 0.8"/>
     </g>
     <g id="line2d_24">
      <g>
       <use xlink:href="#m249082d86f" x="54" y="109.827692" style="stroke: #000000; stroke-width: 0.8"/>
      </g>
     </g>
     <g id="text_13">
      <!-- −4 -->
      <g transform="translate(32.257812 113.626911)scale(0.1 -0.1)">
       <defs>
        <path id="DejaVuSans-34" d="M 2419 4116 
L 825 1625 
L 2419 1625 
L 2419 4116 
z
M 2253 4666 
L 3047 4666 
L 3047 1625 
L 3713 1625 
L 3713 1100 
L 3047 1100 
L 3047 0 
L 2419 0 
L 2419 1100 
L 313 1100 
L 313 1709 
L 2253 4666 
z
" transform="scale(0.015625)"/>
       </defs>
       <use xlink:href="#DejaVuSans-2212"/>
       <use xlink:href="#DejaVuSans-34" x="83.789062"/>
      </g>
     </g>
    </g>
    <g id="ytick_6">
     <g id="line2d_25">
      <path d="M 54 76.375385 
L 388.8 76.375385 
" clip-path="url(#pacb667b7b2)" style="fill: none; stroke-dasharray: 2.96,1.28; stroke-dashoffset: 0; stroke: #b0b0b0; stroke-width: 0.8"/>
     </g>
     <g id="line2d_26">
      <g>
       <use xlink:href="#m249082d86f" x="54" y="76.375385" style="stroke: #000000; stroke-width: 0.8"/>
      </g>
     </g>
     <g id="text_14">
      <!-- −2 -->
      <g transform="translate(32.257812 80.174603)scale(0.1 -0.1)">
       <use xlink:href="#DejaVuSans-2212"/>
       <use xlink:href="#DejaVuSans-32" x="83.789062"/>
      </g>
     </g>
    </g>
    <g id="ytick_7">
     <g id="line2d_27">
      <path d="M 54 42.923077 
L 388.8 42.923077 
" clip-path="url(#pacb667b7b2)" style="fill: none; stroke-dasharray: 2.96,1.28; stroke-dashoffset: 0; stroke: #b0b0b0; stroke-width: 0.8"/>
     </g>
     <g id="line2d_28">
      <g>
       <use xlink:href="#m249082d86f" x="54" y="42.923077" style="stroke: #000000; stroke-width: 0.8"/>
      </g>
     </g>
     <g id="text_15">
      <!-- 0 -->
      <g transform="translate(40.6375 46.722296)scale(0.1 -0.1)">
       <use xlink:href="#DejaVuSans-30"/>
      </g>
     </g>
    </g>
    <g id="text_16">
     <!-- Policy value error -->
     <g transform="translate(19.815625 186.597969)rotate(-90)scale(0.1 -0.1)">
      <defs>
       <path id="DejaVuSans-50" d="M 1259 4147 
L 1259 2394 
L 2053 2394 
Q 2494 2394 2734 2622 
Q 2975 2850 2975 3272 
Q 2975 3691 2734 3919 
Q 2494 4147 2053 4147 
L 1259 4147 
z
M 628 4666 
L 2053 4666 
Q 2838 4666 3239 4311 
Q 3641 3956 3641 3272 
Q 3641 2581 3239 2228 
Q 2838 1875 2053 1875 
L 1259 1875 
L 1259 0 
L 628 0 
L 628 4666 
z
" transform="scale(0.015625)"/>
       <path id="DejaVuSans-6f" d="M 1959 3097 
Q 1497 3097 1228 2736 
Q 959 2375 959 1747 
Q 959 1119 1226 758 
Q 1494 397 1959 397 
Q 2419 397 2687 759 
Q 2956 1122 2956 1747 
Q 2956 2369 2687 2733 
Q 2419 3097 1959 3097 
z
M 1959 3584 
Q 2709 3584 3137 3096 
Q 3566 2609 3566 1747 
Q 3566 888 3137 398 
Q 2709 -91 1959 -91 
Q 1206 -91 779 398 
Q 353 888 353 1747 
Q 353 2609 779 3096 
Q 1206 3584 1959 3584 
z
" transform="scale(0.015625)"/>
       <path id="DejaVuSans-6c" d="M 603 4863 
L 1178 4863 
L 1178 0 
L 603 0 
L 603 4863 
z
" transform="scale(0.015625)"/>
       <path id="DejaVuSans-69" d="M 603 3500 
L 1178 3500 
L 1178 0 
L 603 0 
L 603 3500 
z
M 603 4863 
L 1178 4863 
L 1178 4134 
L 603 4134 
L 603 4863 
z
" transform="scale(0.015625)"/>
       <path id="DejaVuSans-63" d="M 3122 3366 
L 3122 2828 
Q 2878 2963 2633 3030 
Q 2388 3097 2138 3097 
Q 1578 3097 1268 2742 
Q 959 2388 959 1747 
Q 959 1106 1268 751 
Q 1578 397 2138 397 
Q 2388 397 2633 464 
Q 2878 531 3122 666 
L 3122 134 
Q 2881 22 2623 -34 
Q 2366 -91 2075 -91 
Q 1284 -91 818 406 
Q 353 903 353 1747 
Q 353 2603 823 3093 
Q 1294 3584 2113 3584 
Q 2378 3584 2631 3529 
Q 2884 3475 3122 3366 
z
" transform="scale(0.015625)"/>
       <path id="DejaVuSans-79" d="M 2059 -325 
Q 1816 -950 1584 -1140 
Q 1353 -1331 966 -1331 
L 506 -1331 
L 506 -850 
L 844 -850 
Q 1081 -850 1212 -737 
Q 1344 -625 1503 -206 
L 1606 56 
L 191 3500 
L 800 3500 
L 1894 763 
L 2988 3500 
L 3597 3500 
L 2059 -325 
z
" transform="scale(0.015625)"/>
       <path id="DejaVuSans-20" transform="scale(0.015625)"/>
       <path id="DejaVuSans-76" d="M 191 3500 
L 800 3500 
L 1894 563 
L 2988 3500 
L 3597 3500 
L 2284 0 
L 1503 0 
L 191 3500 
z
" transform="scale(0.015625)"/>
       <path id="DejaVuSans-61" d="M 2194 1759 
Q 1497 1759 1228 1600 
Q 959 1441 959 1056 
Q 959 750 1161 570 
Q 1363 391 1709 391 
Q 2188 391 2477 730 
Q 2766 1069 2766 1631 
L 2766 1759 
L 2194 1759 
z
M 3341 1997 
L 3341 0 
L 2766 0 
L 2766 531 
Q 2569 213 2275 61 
Q 1981 -91 1556 -91 
Q 1019 -91 701 211 
Q 384 513 384 1019 
Q 384 1609 779 1909 
Q 1175 2209 1959 2209 
L 2766 2209 
L 2766 2266 
Q 2766 2663 2505 2880 
Q 2244 3097 1772 3097 
Q 1472 3097 1187 3025 
Q 903 2953 641 2809 
L 641 3341 
Q 956 3463 1253 3523 
Q 1550 3584 1831 3584 
Q 2591 3584 2966 3190 
Q 3341 2797 3341 1997 
z
" transform="scale(0.015625)"/>
       <path id="DejaVuSans-75" d="M 544 1381 
L 544 3500 
L 1119 3500 
L 1119 1403 
Q 1119 906 1312 657 
Q 1506 409 1894 409 
Q 2359 409 2629 706 
Q 2900 1003 2900 1516 
L 2900 3500 
L 3475 3500 
L 3475 0 
L 2900 0 
L 2900 538 
Q 2691 219 2414 64 
Q 2138 -91 1772 -91 
Q 1169 -91 856 284 
Q 544 659 544 1381 
z
M 1991 3584 
L 1991 3584 
z
" transform="scale(0.015625)"/>
       <path id="DejaVuSans-72" d="M 2631 2963 
Q 2534 3019 2420 3045 
Q 2306 3072 2169 3072 
Q 1681 3072 1420 2755 
Q 1159 2438 1159 1844 
L 1159 0 
L 581 0 
L 581 3500 
L 1159 3500 
L 1159 2956 
Q 1341 3275 1631 3429 
Q 1922 3584 2338 3584 
Q 2397 3584 2469 3576 
Q 2541 3569 2628 3553 
L 2631 2963 
z
" transform="scale(0.015625)"/>
      </defs>
      <use xlink:href="#DejaVuSans-50"/>
      <use xlink:href="#DejaVuSans-6f" x="56.677734"/>
      <use xlink:href="#DejaVuSans-6c" x="117.859375"/>
      <use xlink:href="#DejaVuSans-69" x="145.642578"/>
      <use xlink:href="#DejaVuSans-63" x="173.425781"/>
      <use xlink:href="#DejaVuSans-79" x="228.40625"/>
      <use xlink:href="#DejaVuSans-20" x="287.585938"/>
      <use xlink:href="#DejaVuSans-76" x="319.373047"/>
      <use xlink:href="#DejaVuSans-61" x="378.552734"/>
      <use xlink:href="#DejaVuSans-6c" x="439.832031"/>
      <use xlink:href="#DejaVuSans-75" x="467.615234"/>
      <use xlink:href="#DejaVuSans-65" x="530.994141"/>
      <use xlink:href="#DejaVuSans-20" x="592.517578"/>
      <use xlink:href="#DejaVuSans-65" x="624.304688"/>
      <use xlink:href="#DejaVuSans-72" x="685.828125"/>
      <use xlink:href="#DejaVuSans-72" x="725.191406"/>
      <use xlink:href="#DejaVuSans-6f" x="764.054688"/>
      <use xlink:href="#DejaVuSans-72" x="825.236328"/>
     </g>
    </g>
   </g>
   <g id="line2d_29">
    <path d="M 69.218182 252.91906 
L 74.376888 253.488337 
L 79.535593 253.182453 
L 84.694299 252.784001 
L 89.853005 252.908818 
L 95.01171 253.020023 
L 100.170416 252.923885 
L 105.329122 252.908818 
L 110.487827 252.918746 
L 115.646533 252.929009 
L 120.805239 253.292081 
L 125.963945 261.4298 
L 131.12265 262.099052 
L 136.281356 253.635154 
L 141.440062 253.632933 
L 146.598767 261.56372 
L 151.757473 256.008929 
L 156.916179 258.251182 
L 162.074884 258.799233 
L 167.23359 253.635088 
L 172.392296 253.970374 
L 177.551002 237.346507 
L 182.709707 235.771293 
L 187.868413 245.606186 
L 193.027119 251.797005 
L 198.185824 253.013726 
L 203.34453 220.682213 
L 208.503236 251.011471 
L 213.661941 246.035353 
L 218.820647 252.362954 
L 223.979353 252.205376 
L 229.138059 251.173523 
L 234.296764 243.298005 
L 239.45547 240.58542 
L 244.614176 192.472822 
L 249.772881 255.002604 
L 254.931587 253.326147 
L 260.090293 253.027091 
L 265.248998 253.780009 
L 270.407704 252.038344 
L 275.56641 252.102375 
L 280.725116 254.921783 
L 285.883821 253.81751 
L 291.042527 251.559835 
L 296.201233 250.738847 
L 301.359938 237.080961 
L 306.518644 168.250856 
L 311.67735 238.5273 
L 316.836055 250.976468 
L 321.994761 253.780008 
L 327.153467 243.226941 
L 332.312173 246.445293 
L 337.470878 258.38083 
L 342.629584 212.980492 
L 347.78829 250.958271 
L 352.946995 251.615681 
L 358.105701 250.634087 
L 363.264407 244.266934 
L 368.423112 243.263156 
L 373.581818 251.145169 
" clip-path="url(#pacb667b7b2)" style="fill: none; stroke: #9d02d7; stroke-width: 1.5; stroke-linecap: square"/>
    <defs>
     <path id="mcf83f55b82" d="M 0 -2 
L -2 2 
L 2 2 
z
" style="stroke: #9d02d7; stroke-linejoin: miter"/>
    </defs>
    <g clip-path="url(#pacb667b7b2)">
     <use xlink:href="#mcf83f55b82" x="69.218182" y="252.91906" style="fill: #9d02d7; stroke: #9d02d7; stroke-linejoin: miter"/>
     <use xlink:href="#mcf83f55b82" x="74.376888" y="253.488337" style="fill: #9d02d7; stroke: #9d02d7; stroke-linejoin: miter"/>
     <use xlink:href="#mcf83f55b82" x="79.535593" y="253.182453" style="fill: #9d02d7; stroke: #9d02d7; stroke-linejoin: miter"/>
     <use xlink:href="#mcf83f55b82" x="84.694299" y="252.784001" style="fill: #9d02d7; stroke: #9d02d7; stroke-linejoin: miter"/>
     <use xlink:href="#mcf83f55b82" x="89.853005" y="252.908818" style="fill: #9d02d7; stroke: #9d02d7; stroke-linejoin: miter"/>
     <use xlink:href="#mcf83f55b82" x="95.01171" y="253.020023" style="fill: #9d02d7; stroke: #9d02d7; stroke-linejoin: miter"/>
     <use xlink:href="#mcf83f55b82" x="100.170416" y="252.923885" style="fill: #9d02d7; stroke: #9d02d7; stroke-linejoin: miter"/>
     <use xlink:href="#mcf83f55b82" x="105.329122" y="252.908818" style="fill: #9d02d7; stroke: #9d02d7; stroke-linejoin: miter"/>
     <use xlink:href="#mcf83f55b82" x="110.487827" y="252.918746" style="fill: #9d02d7; stroke: #9d02d7; stroke-linejoin: miter"/>
     <use xlink:href="#mcf83f55b82" x="115.646533" y="252.929009" style="fill: #9d02d7; stroke: #9d02d7; stroke-linejoin: miter"/>
     <use xlink:href="#mcf83f55b82" x="120.805239" y="253.292081" style="fill: #9d02d7; stroke: #9d02d7; stroke-linejoin: miter"/>
     <use xlink:href="#mcf83f55b82" x="125.963945" y="261.4298" style="fill: #9d02d7; stroke: #9d02d7; stroke-linejoin: miter"/>
     <use xlink:href="#mcf83f55b82" x="131.12265" y="262.099052" style="fill: #9d02d7; stroke: #9d02d7; stroke-linejoin: miter"/>
     <use xlink:href="#mcf83f55b82" x="136.281356" y="253.635154" style="fill: #9d02d7; stroke: #9d02d7; stroke-linejoin: miter"/>
     <use xlink:href="#mcf83f55b82" x="141.440062" y="253.632933" style="fill: #9d02d7; stroke: #9d02d7; stroke-linejoin: miter"/>
     <use xlink:href="#mcf83f55b82" x="146.598767" y="261.56372" style="fill: #9d02d7; stroke: #9d02d7; stroke-linejoin: miter"/>
     <use xlink:href="#mcf83f55b82" x="151.757473" y="256.008929" style="fill: #9d02d7; stroke: #9d02d7; stroke-linejoin: miter"/>
     <use xlink:href="#mcf83f55b82" x="156.916179" y="258.251182" style="fill: #9d02d7; stroke: #9d02d7; stroke-linejoin: miter"/>
     <use xlink:href="#mcf83f55b82" x="162.074884" y="258.799233" style="fill: #9d02d7; stroke: #9d02d7; stroke-linejoin: miter"/>
     <use xlink:href="#mcf83f55b82" x="167.23359" y="253.635088" style="fill: #9d02d7; stroke: #9d02d7; stroke-linejoin: miter"/>
     <use xlink:href="#mcf83f55b82" x="172.392296" y="253.970374" style="fill: #9d02d7; stroke: #9d02d7; stroke-linejoin: miter"/>
     <use xlink:href="#mcf83f55b82" x="177.551002" y="237.346507" style="fill: #9d02d7; stroke: #9d02d7; stroke-linejoin: miter"/>
     <use xlink:href="#mcf83f55b82" x="182.709707" y="235.771293" style="fill: #9d02d7; stroke: #9d02d7; stroke-linejoin: miter"/>
     <use xlink:href="#mcf83f55b82" x="187.868413" y="245.606186" style="fill: #9d02d7; stroke: #9d02d7; stroke-linejoin: miter"/>
     <use xlink:href="#mcf83f55b82" x="193.027119" y="251.797005" style="fill: #9d02d7; stroke: #9d02d7; stroke-linejoin: miter"/>
     <use xlink:href="#mcf83f55b82" x="198.185824" y="253.013726" style="fill: #9d02d7; stroke: #9d02d7; stroke-linejoin: miter"/>
     <use xlink:href="#mcf83f55b82" x="203.34453" y="220.682213" style="fill: #9d02d7; stroke: #9d02d7; stroke-linejoin: miter"/>
     <use xlink:href="#mcf83f55b82" x="208.503236" y="251.011471" style="fill: #9d02d7; stroke: #9d02d7; stroke-linejoin: miter"/>
     <use xlink:href="#mcf83f55b82" x="213.661941" y="246.035353" style="fill: #9d02d7; stroke: #9d02d7; stroke-linejoin: miter"/>
     <use xlink:href="#mcf83f55b82" x="218.820647" y="252.362954" style="fill: #9d02d7; stroke: #9d02d7; stroke-linejoin: miter"/>
     <use xlink:href="#mcf83f55b82" x="223.979353" y="252.205376" style="fill: #9d02d7; stroke: #9d02d7; stroke-linejoin: miter"/>
     <use xlink:href="#mcf83f55b82" x="229.138059" y="251.173523" style="fill: #9d02d7; stroke: #9d02d7; stroke-linejoin: miter"/>
     <use xlink:href="#mcf83f55b82" x="234.296764" y="243.298005" style="fill: #9d02d7; stroke: #9d02d7; stroke-linejoin: miter"/>
     <use xlink:href="#mcf83f55b82" x="239.45547" y="240.58542" style="fill: #9d02d7; stroke: #9d02d7; stroke-linejoin: miter"/>
     <use xlink:href="#mcf83f55b82" x="244.614176" y="192.472822" style="fill: #9d02d7; stroke: #9d02d7; stroke-linejoin: miter"/>
     <use xlink:href="#mcf83f55b82" x="249.772881" y="255.002604" style="fill: #9d02d7; stroke: #9d02d7; stroke-linejoin: miter"/>
     <use xlink:href="#mcf83f55b82" x="254.931587" y="253.326147" style="fill: #9d02d7; stroke: #9d02d7; stroke-linejoin: miter"/>
     <use xlink:href="#mcf83f55b82" x="260.090293" y="253.027091" style="fill: #9d02d7; stroke: #9d02d7; stroke-linejoin: miter"/>
     <use xlink:href="#mcf83f55b82" x="265.248998" y="253.780009" style="fill: #9d02d7; stroke: #9d02d7; stroke-linejoin: miter"/>
     <use xlink:href="#mcf83f55b82" x="270.407704" y="252.038344" style="fill: #9d02d7; stroke: #9d02d7; stroke-linejoin: miter"/>
     <use xlink:href="#mcf83f55b82" x="275.56641" y="252.102375" style="fill: #9d02d7; stroke: #9d02d7; stroke-linejoin: miter"/>
     <use xlink:href="#mcf83f55b82" x="280.725116" y="254.921783" style="fill: #9d02d7; stroke: #9d02d7; stroke-linejoin: miter"/>
     <use xlink:href="#mcf83f55b82" x="285.883821" y="253.81751" style="fill: #9d02d7; stroke: #9d02d7; stroke-linejoin: miter"/>
     <use xlink:href="#mcf83f55b82" x="291.042527" y="251.559835" style="fill: #9d02d7; stroke: #9d02d7; stroke-linejoin: miter"/>
     <use xlink:href="#mcf83f55b82" x="296.201233" y="250.738847" style="fill: #9d02d7; stroke: #9d02d7; stroke-linejoin: miter"/>
     <use xlink:href="#mcf83f55b82" x="301.359938" y="237.080961" style="fill: #9d02d7; stroke: #9d02d7; stroke-linejoin: miter"/>
     <use xlink:href="#mcf83f55b82" x="306.518644" y="168.250856" style="fill: #9d02d7; stroke: #9d02d7; stroke-linejoin: miter"/>
     <use xlink:href="#mcf83f55b82" x="311.67735" y="238.5273" style="fill: #9d02d7; stroke: #9d02d7; stroke-linejoin: miter"/>
     <use xlink:href="#mcf83f55b82" x="316.836055" y="250.976468" style="fill: #9d02d7; stroke: #9d02d7; stroke-linejoin: miter"/>
     <use xlink:href="#mcf83f55b82" x="321.994761" y="253.780008" style="fill: #9d02d7; stroke: #9d02d7; stroke-linejoin: miter"/>
     <use xlink:href="#mcf83f55b82" x="327.153467" y="243.226941" style="fill: #9d02d7; stroke: #9d02d7; stroke-linejoin: miter"/>
     <use xlink:href="#mcf83f55b82" x="332.312173" y="246.445293" style="fill: #9d02d7; stroke: #9d02d7; stroke-linejoin: miter"/>
     <use xlink:href="#mcf83f55b82" x="337.470878" y="258.38083" style="fill: #9d02d7; stroke: #9d02d7; stroke-linejoin: miter"/>
     <use xlink:href="#mcf83f55b82" x="342.629584" y="212.980492" style="fill: #9d02d7; stroke: #9d02d7; stroke-linejoin: miter"/>
     <use xlink:href="#mcf83f55b82" x="347.78829" y="250.958271" style="fill: #9d02d7; stroke: #9d02d7; stroke-linejoin: miter"/>
     <use xlink:href="#mcf83f55b82" x="352.946995" y="251.615681" style="fill: #9d02d7; stroke: #9d02d7; stroke-linejoin: miter"/>
     <use xlink:href="#mcf83f55b82" x="358.105701" y="250.634087" style="fill: #9d02d7; stroke: #9d02d7; stroke-linejoin: miter"/>
     <use xlink:href="#mcf83f55b82" x="363.264407" y="244.266934" style="fill: #9d02d7; stroke: #9d02d7; stroke-linejoin: miter"/>
     <use xlink:href="#mcf83f55b82" x="368.423112" y="243.263156" style="fill: #9d02d7; stroke: #9d02d7; stroke-linejoin: miter"/>
     <use xlink:href="#mcf83f55b82" x="373.581818" y="251.145169" style="fill: #9d02d7; stroke: #9d02d7; stroke-linejoin: miter"/>
    </g>
   </g>
   <g id="line2d_30">
    <path d="M 69.218182 252.908818 
L 74.376888 252.124952 
L 79.535593 256.072545 
L 84.694299 257.820602 
L 89.853005 254.292765 
L 95.01171 254.161711 
L 100.170416 256.433426 
L 105.329122 254.131381 
L 110.487827 253.434311 
L 115.646533 254.741919 
L 120.805239 254.140919 
L 125.963945 253.508453 
L 131.12265 253.363369 
L 136.281356 254.445712 
L 141.440062 252.562518 
L 146.598767 252.665063 
L 151.757473 257.002316 
L 156.916179 256.778192 
L 162.074884 255.517661 
L 167.23359 253.624032 
L 172.392296 254.710657 
L 177.551002 252.671725 
L 182.709707 253.168797 
L 187.868413 252.474574 
L 193.027119 253.745584 
L 198.185824 273.08295 
L 203.34453 262.568469 
L 208.503236 253.338702 
L 213.661941 254.014044 
L 218.820647 255.777169 
L 223.979353 259.143009 
L 229.138059 255.579525 
L 234.296764 256.741743 
L 239.45547 250.084847 
L 244.614176 273.541369 
L 249.772881 257.304215 
L 254.931587 274.450246 
L 260.090293 271.690978 
L 265.248998 273.082603 
L 270.407704 255.784338 
L 275.56641 254.005325 
L 280.725116 255.221377 
L 285.883821 271.975746 
L 291.042527 273.513255 
L 296.201233 274.282896 
L 301.359938 256.108077 
L 306.518644 256.219864 
L 311.67735 257.970487 
L 316.836055 256.259161 
L 321.994761 258.231293 
L 327.153467 257.969579 
L 332.312173 273.529518 
L 337.470878 254.31882 
L 342.629584 232.623083 
L 347.78829 255.793078 
L 352.946995 273.059565 
L 358.105701 257.304133 
L 363.264407 232.379493 
L 368.423112 274.222412 
L 373.581818 257.311062 
" clip-path="url(#pacb667b7b2)" style="fill: none; stroke: #0000ff; stroke-width: 1.5; stroke-linecap: square"/>
    <defs>
     <path id="ma6bd1902cb" d="M 0 2 
C 0.530406 2 1.03916 1.789267 1.414214 1.414214 
C 1.789267 1.03916 2 0.530406 2 0 
C 2 -0.530406 1.789267 -1.03916 1.414214 -1.414214 
C 1.03916 -1.789267 0.530406 -2 0 -2 
C -0.530406 -2 -1.03916 -1.789267 -1.414214 -1.414214 
C -1.789267 -1.03916 -2 -0.530406 -2 0 
C -2 0.530406 -1.789267 1.03916 -1.414214 1.414214 
C -1.03916 1.789267 -0.530406 2 0 2 
z
" style="stroke: #0000ff"/>
    </defs>
    <g clip-path="url(#pacb667b7b2)">
     <use xlink:href="#ma6bd1902cb" x="69.218182" y="252.908818" style="fill: #0000ff; stroke: #0000ff"/>
     <use xlink:href="#ma6bd1902cb" x="74.376888" y="252.124952" style="fill: #0000ff; stroke: #0000ff"/>
     <use xlink:href="#ma6bd1902cb" x="79.535593" y="256.072545" style="fill: #0000ff; stroke: #0000ff"/>
     <use xlink:href="#ma6bd1902cb" x="84.694299" y="257.820602" style="fill: #0000ff; stroke: #0000ff"/>
     <use xlink:href="#ma6bd1902cb" x="89.853005" y="254.292765" style="fill: #0000ff; stroke: #0000ff"/>
     <use xlink:href="#ma6bd1902cb" x="95.01171" y="254.161711" style="fill: #0000ff; stroke: #0000ff"/>
     <use xlink:href="#ma6bd1902cb" x="100.170416" y="256.433426" style="fill: #0000ff; stroke: #0000ff"/>
     <use xlink:href="#ma6bd1902cb" x="105.329122" y="254.131381" style="fill: #0000ff; stroke: #0000ff"/>
     <use xlink:href="#ma6bd1902cb" x="110.487827" y="253.434311" style="fill: #0000ff; stroke: #0000ff"/>
     <use xlink:href="#ma6bd1902cb" x="115.646533" y="254.741919" style="fill: #0000ff; stroke: #0000ff"/>
     <use xlink:href="#ma6bd1902cb" x="120.805239" y="254.140919" style="fill: #0000ff; stroke: #0000ff"/>
     <use xlink:href="#ma6bd1902cb" x="125.963945" y="253.508453" style="fill: #0000ff; stroke: #0000ff"/>
     <use xlink:href="#ma6bd1902cb" x="131.12265" y="253.363369" style="fill: #0000ff; stroke: #0000ff"/>
     <use xlink:href="#ma6bd1902cb" x="136.281356" y="254.445712" style="fill: #0000ff; stroke: #0000ff"/>
     <use xlink:href="#ma6bd1902cb" x="141.440062" y="252.562518" style="fill: #0000ff; stroke: #0000ff"/>
     <use xlink:href="#ma6bd1902cb" x="146.598767" y="252.665063" style="fill: #0000ff; stroke: #0000ff"/>
     <use xlink:href="#ma6bd1902cb" x="151.757473" y="257.002316" style="fill: #0000ff; stroke: #0000ff"/>
     <use xlink:href="#ma6bd1902cb" x="156.916179" y="256.778192" style="fill: #0000ff; stroke: #0000ff"/>
     <use xlink:href="#ma6bd1902cb" x="162.074884" y="255.517661" style="fill: #0000ff; stroke: #0000ff"/>
     <use xlink:href="#ma6bd1902cb" x="167.23359" y="253.624032" style="fill: #0000ff; stroke: #0000ff"/>
     <use xlink:href="#ma6bd1902cb" x="172.392296" y="254.710657" style="fill: #0000ff; stroke: #0000ff"/>
     <use xlink:href="#ma6bd1902cb" x="177.551002" y="252.671725" style="fill: #0000ff; stroke: #0000ff"/>
     <use xlink:href="#ma6bd1902cb" x="182.709707" y="253.168797" style="fill: #0000ff; stroke: #0000ff"/>
     <use xlink:href="#ma6bd1902cb" x="187.868413" y="252.474574" style="fill: #0000ff; stroke: #0000ff"/>
     <use xlink:href="#ma6bd1902cb" x="193.027119" y="253.745584" style="fill: #0000ff; stroke: #0000ff"/>
     <use xlink:href="#ma6bd1902cb" x="198.185824" y="273.08295" style="fill: #0000ff; stroke: #0000ff"/>
     <use xlink:href="#ma6bd1902cb" x="203.34453" y="262.568469" style="fill: #0000ff; stroke: #0000ff"/>
     <use xlink:href="#ma6bd1902cb" x="208.503236" y="253.338702" style="fill: #0000ff; stroke: #0000ff"/>
     <use xlink:href="#ma6bd1902cb" x="213.661941" y="254.014044" style="fill: #0000ff; stroke: #0000ff"/>
     <use xlink:href="#ma6bd1902cb" x="218.820647" y="255.777169" style="fill: #0000ff; stroke: #0000ff"/>
     <use xlink:href="#ma6bd1902cb" x="223.979353" y="259.143009" style="fill: #0000ff; stroke: #0000ff"/>
     <use xlink:href="#ma6bd1902cb" x="229.138059" y="255.579525" style="fill: #0000ff; stroke: #0000ff"/>
     <use xlink:href="#ma6bd1902cb" x="234.296764" y="256.741743" style="fill: #0000ff; stroke: #0000ff"/>
     <use xlink:href="#ma6bd1902cb" x="239.45547" y="250.084847" style="fill: #0000ff; stroke: #0000ff"/>
     <use xlink:href="#ma6bd1902cb" x="244.614176" y="273.541369" style="fill: #0000ff; stroke: #0000ff"/>
     <use xlink:href="#ma6bd1902cb" x="249.772881" y="257.304215" style="fill: #0000ff; stroke: #0000ff"/>
     <use xlink:href="#ma6bd1902cb" x="254.931587" y="274.450246" style="fill: #0000ff; stroke: #0000ff"/>
     <use xlink:href="#ma6bd1902cb" x="260.090293" y="271.690978" style="fill: #0000ff; stroke: #0000ff"/>
     <use xlink:href="#ma6bd1902cb" x="265.248998" y="273.082603" style="fill: #0000ff; stroke: #0000ff"/>
     <use xlink:href="#ma6bd1902cb" x="270.407704" y="255.784338" style="fill: #0000ff; stroke: #0000ff"/>
     <use xlink:href="#ma6bd1902cb" x="275.56641" y="254.005325" style="fill: #0000ff; stroke: #0000ff"/>
     <use xlink:href="#ma6bd1902cb" x="280.725116" y="255.221377" style="fill: #0000ff; stroke: #0000ff"/>
     <use xlink:href="#ma6bd1902cb" x="285.883821" y="271.975746" style="fill: #0000ff; stroke: #0000ff"/>
     <use xlink:href="#ma6bd1902cb" x="291.042527" y="273.513255" style="fill: #0000ff; stroke: #0000ff"/>
     <use xlink:href="#ma6bd1902cb" x="296.201233" y="274.282896" style="fill: #0000ff; stroke: #0000ff"/>
     <use xlink:href="#ma6bd1902cb" x="301.359938" y="256.108077" style="fill: #0000ff; stroke: #0000ff"/>
     <use xlink:href="#ma6bd1902cb" x="306.518644" y="256.219864" style="fill: #0000ff; stroke: #0000ff"/>
     <use xlink:href="#ma6bd1902cb" x="311.67735" y="257.970487" style="fill: #0000ff; stroke: #0000ff"/>
     <use xlink:href="#ma6bd1902cb" x="316.836055" y="256.259161" style="fill: #0000ff; stroke: #0000ff"/>
     <use xlink:href="#ma6bd1902cb" x="321.994761" y="258.231293" style="fill: #0000ff; stroke: #0000ff"/>
     <use xlink:href="#ma6bd1902cb" x="327.153467" y="257.969579" style="fill: #0000ff; stroke: #0000ff"/>
     <use xlink:href="#ma6bd1902cb" x="332.312173" y="273.529518" style="fill: #0000ff; stroke: #0000ff"/>
     <use xlink:href="#ma6bd1902cb" x="337.470878" y="254.31882" style="fill: #0000ff; stroke: #0000ff"/>
     <use xlink:href="#ma6bd1902cb" x="342.629584" y="232.623083" style="fill: #0000ff; stroke: #0000ff"/>
     <use xlink:href="#ma6bd1902cb" x="347.78829" y="255.793078" style="fill: #0000ff; stroke: #0000ff"/>
     <use xlink:href="#ma6bd1902cb" x="352.946995" y="273.059565" style="fill: #0000ff; stroke: #0000ff"/>
     <use xlink:href="#ma6bd1902cb" x="358.105701" y="257.304133" style="fill: #0000ff; stroke: #0000ff"/>
     <use xlink:href="#ma6bd1902cb" x="363.264407" y="232.379493" style="fill: #0000ff; stroke: #0000ff"/>
     <use xlink:href="#ma6bd1902cb" x="368.423112" y="274.222412" style="fill: #0000ff; stroke: #0000ff"/>
     <use xlink:href="#ma6bd1902cb" x="373.581818" y="257.311062" style="fill: #0000ff; stroke: #0000ff"/>
    </g>
   </g>
   <g id="line2d_31">
    <path d="M 69.218182 254.089655 
L 74.376888 252.908818 
L 79.535593 253.201887 
L 84.694299 252.938034 
L 89.853005 253.120089 
L 95.01171 253.21007 
L 100.170416 252.908818 
L 105.329122 252.920488 
L 110.487827 252.908818 
L 115.646533 254.217692 
L 120.805239 253.236697 
L 125.963945 252.908818 
L 131.12265 252.908818 
L 136.281356 252.918739 
L 141.440062 252.908818 
L 146.598767 252.919144 
L 151.757473 253.429598 
L 156.916179 254.697384 
L 162.074884 253.161614 
L 167.23359 258.257207 
L 172.392296 252.908818 
L 177.551002 252.908818 
L 182.709707 253.311751 
L 187.868413 253.046377 
L 193.027119 252.908818 
L 198.185824 253.695774 
L 203.34453 253.489801 
L 208.503236 252.91811 
L 213.661941 252.969786 
L 218.820647 256.58405 
L 223.979353 252.908818 
L 229.138059 252.908818 
L 234.296764 252.966966 
L 239.45547 253.449928 
L 244.614176 256.54869 
L 249.772881 253.248215 
L 254.931587 252.952159 
L 260.090293 253.091386 
L 265.248998 256.293274 
L 270.407704 254.817999 
L 275.56641 255.301453 
L 280.725116 254.09074 
L 285.883821 252.908818 
L 291.042527 253.520961 
L 296.201233 253.231173 
L 301.359938 258.901584 
L 306.518644 252.908818 
L 311.67735 252.908818 
L 316.836055 253.227815 
L 321.994761 252.908818 
L 327.153467 256.377912 
L 332.312173 253.350277 
L 337.470878 252.911009 
L 342.629584 254.067439 
L 347.78829 253.053165 
L 352.946995 253.834388 
L 358.105701 252.908818 
L 363.264407 252.953625 
L 368.423112 252.908818 
L 373.581818 260.959313 
" clip-path="url(#pacb667b7b2)" style="fill: none; stroke: #ff7763; stroke-width: 1.5; stroke-linecap: square"/>
    <defs>
     <path id="md21edd1092" d="M -2 2 
L 2 -2 
M -2 -2 
L 2 2 
" style="stroke: #ff7763"/>
    </defs>
    <g clip-path="url(#pacb667b7b2)">
     <use xlink:href="#md21edd1092" x="69.218182" y="254.089655" style="fill: #ff7763; stroke: #ff7763"/>
     <use xlink:href="#md21edd1092" x="74.376888" y="252.908818" style="fill: #ff7763; stroke: #ff7763"/>
     <use xlink:href="#md21edd1092" x="79.535593" y="253.201887" style="fill: #ff7763; stroke: #ff7763"/>
     <use xlink:href="#md21edd1092" x="84.694299" y="252.938034" style="fill: #ff7763; stroke: #ff7763"/>
     <use xlink:href="#md21edd1092" x="89.853005" y="253.120089" style="fill: #ff7763; stroke: #ff7763"/>
     <use xlink:href="#md21edd1092" x="95.01171" y="253.21007" style="fill: #ff7763; stroke: #ff7763"/>
     <use xlink:href="#md21edd1092" x="100.170416" y="252.908818" style="fill: #ff7763; stroke: #ff7763"/>
     <use xlink:href="#md21edd1092" x="105.329122" y="252.920488" style="fill: #ff7763; stroke: #ff7763"/>
     <use xlink:href="#md21edd1092" x="110.487827" y="252.908818" style="fill: #ff7763; stroke: #ff7763"/>
     <use xlink:href="#md21edd1092" x="115.646533" y="254.217692" style="fill: #ff7763; stroke: #ff7763"/>
     <use xlink:href="#md21edd1092" x="120.805239" y="253.236697" style="fill: #ff7763; stroke: #ff7763"/>
     <use xlink:href="#md21edd1092" x="125.963945" y="252.908818" style="fill: #ff7763; stroke: #ff7763"/>
     <use xlink:href="#md21edd1092" x="131.12265" y="252.908818" style="fill: #ff7763; stroke: #ff7763"/>
     <use xlink:href="#md21edd1092" x="136.281356" y="252.918739" style="fill: #ff7763; stroke: #ff7763"/>
     <use xlink:href="#md21edd1092" x="141.440062" y="252.908818" style="fill: #ff7763; stroke: #ff7763"/>
     <use xlink:href="#md21edd1092" x="146.598767" y="252.919144" style="fill: #ff7763; stroke: #ff7763"/>
     <use xlink:href="#md21edd1092" x="151.757473" y="253.429598" style="fill: #ff7763; stroke: #ff7763"/>
     <use xlink:href="#md21edd1092" x="156.916179" y="254.697384" style="fill: #ff7763; stroke: #ff7763"/>
     <use xlink:href="#md21edd1092" x="162.074884" y="253.161614" style="fill: #ff7763; stroke: #ff7763"/>
     <use xlink:href="#md21edd1092" x="167.23359" y="258.257207" style="fill: #ff7763; stroke: #ff7763"/>
     <use xlink:href="#md21edd1092" x="172.392296" y="252.908818" style="fill: #ff7763; stroke: #ff7763"/>
     <use xlink:href="#md21edd1092" x="177.551002" y="252.908818" style="fill: #ff7763; stroke: #ff7763"/>
     <use xlink:href="#md21edd1092" x="182.709707" y="253.311751" style="fill: #ff7763; stroke: #ff7763"/>
     <use xlink:href="#md21edd1092" x="187.868413" y="253.046377" style="fill: #ff7763; stroke: #ff7763"/>
     <use xlink:href="#md21edd1092" x="193.027119" y="252.908818" style="fill: #ff7763; stroke: #ff7763"/>
     <use xlink:href="#md21edd1092" x="198.185824" y="253.695774" style="fill: #ff7763; stroke: #ff7763"/>
     <use xlink:href="#md21edd1092" x="203.34453" y="253.489801" style="fill: #ff7763; stroke: #ff7763"/>
     <use xlink:href="#md21edd1092" x="208.503236" y="252.91811" style="fill: #ff7763; stroke: #ff7763"/>
     <use xlink:href="#md21edd1092" x="213.661941" y="252.969786" style="fill: #ff7763; stroke: #ff7763"/>
     <use xlink:href="#md21edd1092" x="218.820647" y="256.58405" style="fill: #ff7763; stroke: #ff7763"/>
     <use xlink:href="#md21edd1092" x="223.979353" y="252.908818" style="fill: #ff7763; stroke: #ff7763"/>
     <use xlink:href="#md21edd1092" x="229.138059" y="252.908818" style="fill: #ff7763; stroke: #ff7763"/>
     <use xlink:href="#md21edd1092" x="234.296764" y="252.966966" style="fill: #ff7763; stroke: #ff7763"/>
     <use xlink:href="#md21edd1092" x="239.45547" y="253.449928" style="fill: #ff7763; stroke: #ff7763"/>
     <use xlink:href="#md21edd1092" x="244.614176" y="256.54869" style="fill: #ff7763; stroke: #ff7763"/>
     <use xlink:href="#md21edd1092" x="249.772881" y="253.248215" style="fill: #ff7763; stroke: #ff7763"/>
     <use xlink:href="#md21edd1092" x="254.931587" y="252.952159" style="fill: #ff7763; stroke: #ff7763"/>
     <use xlink:href="#md21edd1092" x="260.090293" y="253.091386" style="fill: #ff7763; stroke: #ff7763"/>
     <use xlink:href="#md21edd1092" x="265.248998" y="256.293274" style="fill: #ff7763; stroke: #ff7763"/>
     <use xlink:href="#md21edd1092" x="270.407704" y="254.817999" style="fill: #ff7763; stroke: #ff7763"/>
     <use xlink:href="#md21edd1092" x="275.56641" y="255.301453" style="fill: #ff7763; stroke: #ff7763"/>
     <use xlink:href="#md21edd1092" x="280.725116" y="254.09074" style="fill: #ff7763; stroke: #ff7763"/>
     <use xlink:href="#md21edd1092" x="285.883821" y="252.908818" style="fill: #ff7763; stroke: #ff7763"/>
     <use xlink:href="#md21edd1092" x="291.042527" y="253.520961" style="fill: #ff7763; stroke: #ff7763"/>
     <use xlink:href="#md21edd1092" x="296.201233" y="253.231173" style="fill: #ff7763; stroke: #ff7763"/>
     <use xlink:href="#md21edd1092" x="301.359938" y="258.901584" style="fill: #ff7763; stroke: #ff7763"/>
     <use xlink:href="#md21edd1092" x="306.518644" y="252.908818" style="fill: #ff7763; stroke: #ff7763"/>
     <use xlink:href="#md21edd1092" x="311.67735" y="252.908818" style="fill: #ff7763; stroke: #ff7763"/>
     <use xlink:href="#md21edd1092" x="316.836055" y="253.227815" style="fill: #ff7763; stroke: #ff7763"/>
     <use xlink:href="#md21edd1092" x="321.994761" y="252.908818" style="fill: #ff7763; stroke: #ff7763"/>
     <use xlink:href="#md21edd1092" x="327.153467" y="256.377912" style="fill: #ff7763; stroke: #ff7763"/>
     <use xlink:href="#md21edd1092" x="332.312173" y="253.350277" style="fill: #ff7763; stroke: #ff7763"/>
     <use xlink:href="#md21edd1092" x="337.470878" y="252.911009" style="fill: #ff7763; stroke: #ff7763"/>
     <use xlink:href="#md21edd1092" x="342.629584" y="254.067439" style="fill: #ff7763; stroke: #ff7763"/>
     <use xlink:href="#md21edd1092" x="347.78829" y="253.053165" style="fill: #ff7763; stroke: #ff7763"/>
     <use xlink:href="#md21edd1092" x="352.946995" y="253.834388" style="fill: #ff7763; stroke: #ff7763"/>
     <use xlink:href="#md21edd1092" x="358.105701" y="252.908818" style="fill: #ff7763; stroke: #ff7763"/>
     <use xlink:href="#md21edd1092" x="363.264407" y="252.953625" style="fill: #ff7763; stroke: #ff7763"/>
     <use xlink:href="#md21edd1092" x="368.423112" y="252.908818" style="fill: #ff7763; stroke: #ff7763"/>
     <use xlink:href="#md21edd1092" x="373.581818" y="260.959313" style="fill: #ff7763; stroke: #ff7763"/>
    </g>
   </g>
   <g id="line2d_32">
    <path d="M 69.218182 254.678239 
L 74.376888 253.258056 
L 79.535593 253.115006 
L 84.694299 252.908818 
L 89.853005 252.908818 
L 95.01171 252.695156 
L 100.170416 252.908818 
L 105.329122 252.908818 
L 110.487827 252.908818 
L 115.646533 252.908818 
L 120.805239 252.908818 
L 125.963945 252.908818 
L 131.12265 252.908818 
L 136.281356 252.908818 
L 141.440062 252.908818 
L 146.598767 252.908818 
L 151.757473 252.908818 
L 156.916179 252.908818 
L 162.074884 252.908818 
L 167.23359 252.908818 
L 172.392296 252.908818 
L 177.551002 252.908818 
L 182.709707 252.908818 
L 187.868413 252.908818 
L 193.027119 252.908818 
L 198.185824 252.908818 
L 203.34453 252.908818 
L 208.503236 252.908818 
L 213.661941 252.908818 
L 218.820647 252.908818 
L 223.979353 252.908818 
L 229.138059 252.908818 
L 234.296764 252.908818 
L 239.45547 252.908818 
L 244.614176 252.908818 
L 249.772881 252.908818 
L 254.931587 252.908818 
L 260.090293 252.908818 
L 265.248998 252.908818 
L 270.407704 252.908818 
L 275.56641 252.908818 
L 280.725116 252.908818 
L 285.883821 252.908818 
L 291.042527 252.908818 
L 296.201233 252.908818 
L 301.359938 252.908818 
L 306.518644 252.908818 
L 311.67735 252.908818 
L 316.836055 252.908818 
L 321.994761 252.908818 
L 327.153467 252.908818 
L 332.312173 252.908818 
L 337.470878 252.908818 
L 342.629584 252.908818 
L 347.78829 252.908818 
L 352.946995 252.908818 
L 358.105701 252.908818 
L 363.264407 252.908818 
L 368.423112 252.908818 
L 373.581818 252.908818 
" clip-path="url(#pacb667b7b2)" style="fill: none; stroke: #ffac1e; stroke-width: 1.5; stroke-linecap: square"/>
    <defs>
     <path id="mbe1b803298" d="M 0 -2 
L -0.449028 -0.618034 
L -1.902113 -0.618034 
L -0.726543 0.236068 
L -1.175571 1.618034 
L -0 0.763932 
L 1.175571 1.618034 
L 0.726543 0.236068 
L 1.902113 -0.618034 
L 0.449028 -0.618034 
z
" style="stroke: #ffac1e; stroke-linejoin: bevel"/>
    </defs>
    <g clip-path="url(#pacb667b7b2)">
     <use xlink:href="#mbe1b803298" x="69.218182" y="254.678239" style="fill: #ffac1e; stroke: #ffac1e; stroke-linejoin: bevel"/>
     <use xlink:href="#mbe1b803298" x="74.376888" y="253.258056" style="fill: #ffac1e; stroke: #ffac1e; stroke-linejoin: bevel"/>
     <use xlink:href="#mbe1b803298" x="79.535593" y="253.115006" style="fill: #ffac1e; stroke: #ffac1e; stroke-linejoin: bevel"/>
     <use xlink:href="#mbe1b803298" x="84.694299" y="252.908818" style="fill: #ffac1e; stroke: #ffac1e; stroke-linejoin: bevel"/>
     <use xlink:href="#mbe1b803298" x="89.853005" y="252.908818" style="fill: #ffac1e; stroke: #ffac1e; stroke-linejoin: bevel"/>
     <use xlink:href="#mbe1b803298" x="95.01171" y="252.695156" style="fill: #ffac1e; stroke: #ffac1e; stroke-linejoin: bevel"/>
     <use xlink:href="#mbe1b803298" x="100.170416" y="252.908818" style="fill: #ffac1e; stroke: #ffac1e; stroke-linejoin: bevel"/>
     <use xlink:href="#mbe1b803298" x="105.329122" y="252.908818" style="fill: #ffac1e; stroke: #ffac1e; stroke-linejoin: bevel"/>
     <use xlink:href="#mbe1b803298" x="110.487827" y="252.908818" style="fill: #ffac1e; stroke: #ffac1e; stroke-linejoin: bevel"/>
     <use xlink:href="#mbe1b803298" x="115.646533" y="252.908818" style="fill: #ffac1e; stroke: #ffac1e; stroke-linejoin: bevel"/>
     <use xlink:href="#mbe1b803298" x="120.805239" y="252.908818" style="fill: #ffac1e; stroke: #ffac1e; stroke-linejoin: bevel"/>
     <use xlink:href="#mbe1b803298" x="125.963945" y="252.908818" style="fill: #ffac1e; stroke: #ffac1e; stroke-linejoin: bevel"/>
     <use xlink:href="#mbe1b803298" x="131.12265" y="252.908818" style="fill: #ffac1e; stroke: #ffac1e; stroke-linejoin: bevel"/>
     <use xlink:href="#mbe1b803298" x="136.281356" y="252.908818" style="fill: #ffac1e; stroke: #ffac1e; stroke-linejoin: bevel"/>
     <use xlink:href="#mbe1b803298" x="141.440062" y="252.908818" style="fill: #ffac1e; stroke: #ffac1e; stroke-linejoin: bevel"/>
     <use xlink:href="#mbe1b803298" x="146.598767" y="252.908818" style="fill: #ffac1e; stroke: #ffac1e; stroke-linejoin: bevel"/>
     <use xlink:href="#mbe1b803298" x="151.757473" y="252.908818" style="fill: #ffac1e; stroke: #ffac1e; stroke-linejoin: bevel"/>
     <use xlink:href="#mbe1b803298" x="156.916179" y="252.908818" style="fill: #ffac1e; stroke: #ffac1e; stroke-linejoin: bevel"/>
     <use xlink:href="#mbe1b803298" x="162.074884" y="252.908818" style="fill: #ffac1e; stroke: #ffac1e; stroke-linejoin: bevel"/>
     <use xlink:href="#mbe1b803298" x="167.23359" y="252.908818" style="fill: #ffac1e; stroke: #ffac1e; stroke-linejoin: bevel"/>
     <use xlink:href="#mbe1b803298" x="172.392296" y="252.908818" style="fill: #ffac1e; stroke: #ffac1e; stroke-linejoin: bevel"/>
     <use xlink:href="#mbe1b803298" x="177.551002" y="252.908818" style="fill: #ffac1e; stroke: #ffac1e; stroke-linejoin: bevel"/>
     <use xlink:href="#mbe1b803298" x="182.709707" y="252.908818" style="fill: #ffac1e; stroke: #ffac1e; stroke-linejoin: bevel"/>
     <use xlink:href="#mbe1b803298" x="187.868413" y="252.908818" style="fill: #ffac1e; stroke: #ffac1e; stroke-linejoin: bevel"/>
     <use xlink:href="#mbe1b803298" x="193.027119" y="252.908818" style="fill: #ffac1e; stroke: #ffac1e; stroke-linejoin: bevel"/>
     <use xlink:href="#mbe1b803298" x="198.185824" y="252.908818" style="fill: #ffac1e; stroke: #ffac1e; stroke-linejoin: bevel"/>
     <use xlink:href="#mbe1b803298" x="203.34453" y="252.908818" style="fill: #ffac1e; stroke: #ffac1e; stroke-linejoin: bevel"/>
     <use xlink:href="#mbe1b803298" x="208.503236" y="252.908818" style="fill: #ffac1e; stroke: #ffac1e; stroke-linejoin: bevel"/>
     <use xlink:href="#mbe1b803298" x="213.661941" y="252.908818" style="fill: #ffac1e; stroke: #ffac1e; stroke-linejoin: bevel"/>
     <use xlink:href="#mbe1b803298" x="218.820647" y="252.908818" style="fill: #ffac1e; stroke: #ffac1e; stroke-linejoin: bevel"/>
     <use xlink:href="#mbe1b803298" x="223.979353" y="252.908818" style="fill: #ffac1e; stroke: #ffac1e; stroke-linejoin: bevel"/>
     <use xlink:href="#mbe1b803298" x="229.138059" y="252.908818" style="fill: #ffac1e; stroke: #ffac1e; stroke-linejoin: bevel"/>
     <use xlink:href="#mbe1b803298" x="234.296764" y="252.908818" style="fill: #ffac1e; stroke: #ffac1e; stroke-linejoin: bevel"/>
     <use xlink:href="#mbe1b803298" x="239.45547" y="252.908818" style="fill: #ffac1e; stroke: #ffac1e; stroke-linejoin: bevel"/>
     <use xlink:href="#mbe1b803298" x="244.614176" y="252.908818" style="fill: #ffac1e; stroke: #ffac1e; stroke-linejoin: bevel"/>
     <use xlink:href="#mbe1b803298" x="249.772881" y="252.908818" style="fill: #ffac1e; stroke: #ffac1e; stroke-linejoin: bevel"/>
     <use xlink:href="#mbe1b803298" x="254.931587" y="252.908818" style="fill: #ffac1e; stroke: #ffac1e; stroke-linejoin: bevel"/>
     <use xlink:href="#mbe1b803298" x="260.090293" y="252.908818" style="fill: #ffac1e; stroke: #ffac1e; stroke-linejoin: bevel"/>
     <use xlink:href="#mbe1b803298" x="265.248998" y="252.908818" style="fill: #ffac1e; stroke: #ffac1e; stroke-linejoin: bevel"/>
     <use xlink:href="#mbe1b803298" x="270.407704" y="252.908818" style="fill: #ffac1e; stroke: #ffac1e; stroke-linejoin: bevel"/>
     <use xlink:href="#mbe1b803298" x="275.56641" y="252.908818" style="fill: #ffac1e; stroke: #ffac1e; stroke-linejoin: bevel"/>
     <use xlink:href="#mbe1b803298" x="280.725116" y="252.908818" style="fill: #ffac1e; stroke: #ffac1e; stroke-linejoin: bevel"/>
     <use xlink:href="#mbe1b803298" x="285.883821" y="252.908818" style="fill: #ffac1e; stroke: #ffac1e; stroke-linejoin: bevel"/>
     <use xlink:href="#mbe1b803298" x="291.042527" y="252.908818" style="fill: #ffac1e; stroke: #ffac1e; stroke-linejoin: bevel"/>
     <use xlink:href="#mbe1b803298" x="296.201233" y="252.908818" style="fill: #ffac1e; stroke: #ffac1e; stroke-linejoin: bevel"/>
     <use xlink:href="#mbe1b803298" x="301.359938" y="252.908818" style="fill: #ffac1e; stroke: #ffac1e; stroke-linejoin: bevel"/>
     <use xlink:href="#mbe1b803298" x="306.518644" y="252.908818" style="fill: #ffac1e; stroke: #ffac1e; stroke-linejoin: bevel"/>
     <use xlink:href="#mbe1b803298" x="311.67735" y="252.908818" style="fill: #ffac1e; stroke: #ffac1e; stroke-linejoin: bevel"/>
     <use xlink:href="#mbe1b803298" x="316.836055" y="252.908818" style="fill: #ffac1e; stroke: #ffac1e; stroke-linejoin: bevel"/>
     <use xlink:href="#mbe1b803298" x="321.994761" y="252.908818" style="fill: #ffac1e; stroke: #ffac1e; stroke-linejoin: bevel"/>
     <use xlink:href="#mbe1b803298" x="327.153467" y="252.908818" style="fill: #ffac1e; stroke: #ffac1e; stroke-linejoin: bevel"/>
     <use xlink:href="#mbe1b803298" x="332.312173" y="252.908818" style="fill: #ffac1e; stroke: #ffac1e; stroke-linejoin: bevel"/>
     <use xlink:href="#mbe1b803298" x="337.470878" y="252.908818" style="fill: #ffac1e; stroke: #ffac1e; stroke-linejoin: bevel"/>
     <use xlink:href="#mbe1b803298" x="342.629584" y="252.908818" style="fill: #ffac1e; stroke: #ffac1e; stroke-linejoin: bevel"/>
     <use xlink:href="#mbe1b803298" x="347.78829" y="252.908818" style="fill: #ffac1e; stroke: #ffac1e; stroke-linejoin: bevel"/>
     <use xlink:href="#mbe1b803298" x="352.946995" y="252.908818" style="fill: #ffac1e; stroke: #ffac1e; stroke-linejoin: bevel"/>
     <use xlink:href="#mbe1b803298" x="358.105701" y="252.908818" style="fill: #ffac1e; stroke: #ffac1e; stroke-linejoin: bevel"/>
     <use xlink:href="#mbe1b803298" x="363.264407" y="252.908818" style="fill: #ffac1e; stroke: #ffac1e; stroke-linejoin: bevel"/>
     <use xlink:href="#mbe1b803298" x="368.423112" y="252.908818" style="fill: #ffac1e; stroke: #ffac1e; stroke-linejoin: bevel"/>
     <use xlink:href="#mbe1b803298" x="373.581818" y="252.908818" style="fill: #ffac1e; stroke: #ffac1e; stroke-linejoin: bevel"/>
    </g>
   </g>
   <g id="patch_3">
    <path d="M 54 252 
L 54 34.56 
" style="fill: none; stroke: #000000; stroke-width: 0.8; stroke-linejoin: miter; stroke-linecap: square"/>
   </g>
   <g id="patch_4">
    <path d="M 388.8 252 
L 388.8 34.56 
" style="fill: none; stroke: #000000; stroke-width: 0.8; stroke-linejoin: miter; stroke-linecap: square"/>
   </g>
   <g id="patch_5">
    <path d="M 54 252 
L 388.8 252 
" style="fill: none; stroke: #000000; stroke-width: 0.8; stroke-linejoin: miter; stroke-linecap: square"/>
   </g>
   <g id="patch_6">
    <path d="M 54 34.56 
L 388.8 34.56 
" style="fill: none; stroke: #000000; stroke-width: 0.8; stroke-linejoin: miter; stroke-linecap: square"/>
   </g>
   <g id="text_17">
    <!-- ζ-R-max optimal policy with m = 0.5 -->
    <g transform="translate(111.87 28.56)scale(0.12 -0.12)">
     <defs>
      <path id="DejaVuSans-3b6" d="M 2231 397 
Q 2644 394 2891 159 
Q 3153 -88 3153 -463 
Q 3153 -822 2922 -1072 
Q 2672 -1344 2163 -1344 
Q 2163 -1109 2163 -872 
Q 2378 -888 2509 -750 
Q 2609 -641 2609 -525 
Q 2609 -359 2509 -222 
Q 2413 -91 2231 -91 
Q 338 -91 334 1669 
Q 334 3206 2119 4284 
L 456 4284 
L 456 4863 
L 3175 4863 
L 3175 4284 
Q 913 3147 913 1669 
Q 913 397 2231 397 
z
" transform="scale(0.015625)"/>
      <path id="DejaVuSans-2d" d="M 313 2009 
L 1997 2009 
L 1997 1497 
L 313 1497 
L 313 2009 
z
" transform="scale(0.015625)"/>
      <path id="DejaVuSans-52" d="M 2841 2188 
Q 3044 2119 3236 1894 
Q 3428 1669 3622 1275 
L 4263 0 
L 3584 0 
L 2988 1197 
Q 2756 1666 2539 1819 
Q 2322 1972 1947 1972 
L 1259 1972 
L 1259 0 
L 628 0 
L 628 4666 
L 2053 4666 
Q 2853 4666 3247 4331 
Q 3641 3997 3641 3322 
Q 3641 2881 3436 2590 
Q 3231 2300 2841 2188 
z
M 1259 4147 
L 1259 2491 
L 2053 2491 
Q 2509 2491 2742 2702 
Q 2975 2913 2975 3322 
Q 2975 3731 2742 3939 
Q 2509 4147 2053 4147 
L 1259 4147 
z
" transform="scale(0.015625)"/>
      <path id="DejaVuSans-6d" d="M 3328 2828 
Q 3544 3216 3844 3400 
Q 4144 3584 4550 3584 
Q 5097 3584 5394 3201 
Q 5691 2819 5691 2113 
L 5691 0 
L 5113 0 
L 5113 2094 
Q 5113 2597 4934 2840 
Q 4756 3084 4391 3084 
Q 3944 3084 3684 2787 
Q 3425 2491 3425 1978 
L 3425 0 
L 2847 0 
L 2847 2094 
Q 2847 2600 2669 2842 
Q 2491 3084 2119 3084 
Q 1678 3084 1418 2786 
Q 1159 2488 1159 1978 
L 1159 0 
L 581 0 
L 581 3500 
L 1159 3500 
L 1159 2956 
Q 1356 3278 1631 3431 
Q 1906 3584 2284 3584 
Q 2666 3584 2933 3390 
Q 3200 3197 3328 2828 
z
" transform="scale(0.015625)"/>
      <path id="DejaVuSans-78" d="M 3513 3500 
L 2247 1797 
L 3578 0 
L 2900 0 
L 1881 1375 
L 863 0 
L 184 0 
L 1544 1831 
L 300 3500 
L 978 3500 
L 1906 2253 
L 2834 3500 
L 3513 3500 
z
" transform="scale(0.015625)"/>
      <path id="DejaVuSans-77" d="M 269 3500 
L 844 3500 
L 1563 769 
L 2278 3500 
L 2956 3500 
L 3675 769 
L 4391 3500 
L 4966 3500 
L 4050 0 
L 3372 0 
L 2619 2869 
L 1863 0 
L 1184 0 
L 269 3500 
z
" transform="scale(0.015625)"/>
      <path id="DejaVuSans-68" d="M 3513 2113 
L 3513 0 
L 2938 0 
L 2938 2094 
Q 2938 2591 2744 2837 
Q 2550 3084 2163 3084 
Q 1697 3084 1428 2787 
Q 1159 2491 1159 1978 
L 1159 0 
L 581 0 
L 581 4863 
L 1159 4863 
L 1159 2956 
Q 1366 3272 1645 3428 
Q 1925 3584 2291 3584 
Q 2894 3584 3203 3211 
Q 3513 2838 3513 2113 
z
" transform="scale(0.015625)"/>
      <path id="DejaVuSans-3d" d="M 678 2906 
L 4684 2906 
L 4684 2381 
L 678 2381 
L 678 2906 
z
M 678 1631 
L 4684 1631 
L 4684 1100 
L 678 1100 
L 678 1631 
z
" transform="scale(0.015625)"/>
      <path id="DejaVuSans-2e" d="M 684 794 
L 1344 794 
L 1344 0 
L 684 0 
L 684 794 
z
" transform="scale(0.015625)"/>
     </defs>
     <use xlink:href="#DejaVuSans-3b6"/>
     <use xlink:href="#DejaVuSans-2d" x="54.394531"/>
     <use xlink:href="#DejaVuSans-52" x="90.478516"/>
     <use xlink:href="#DejaVuSans-2d" x="155.960938"/>
     <use xlink:href="#DejaVuSans-6d" x="192.044922"/>
     <use xlink:href="#DejaVuSans-61" x="289.457031"/>
     <use xlink:href="#DejaVuSans-78" x="350.736328"/>
     <use xlink:href="#DejaVuSans-20" x="409.916016"/>
     <use xlink:href="#DejaVuSans-6f" x="441.703125"/>
     <use xlink:href="#DejaVuSans-70" x="502.884766"/>
     <use xlink:href="#DejaVuSans-74" x="566.361328"/>
     <use xlink:href="#DejaVuSans-69" x="605.570312"/>
     <use xlink:href="#DejaVuSans-6d" x="633.353516"/>
     <use xlink:href="#DejaVuSans-61" x="730.765625"/>
     <use xlink:href="#DejaVuSans-6c" x="792.044922"/>
     <use xlink:href="#DejaVuSans-20" x="819.828125"/>
     <use xlink:href="#DejaVuSans-70" x="851.615234"/>
     <use xlink:href="#DejaVuSans-6f" x="915.091797"/>
     <use xlink:href="#DejaVuSans-6c" x="976.273438"/>
     <use xlink:href="#DejaVuSans-69" x="1004.056641"/>
     <use xlink:href="#DejaVuSans-63" x="1031.839844"/>
     <use xlink:href="#DejaVuSans-79" x="1086.820312"/>
     <use xlink:href="#DejaVuSans-20" x="1146"/>
     <use xlink:href="#DejaVuSans-77" x="1177.787109"/>
     <use xlink:href="#DejaVuSans-69" x="1259.574219"/>
     <use xlink:href="#DejaVuSans-74" x="1287.357422"/>
     <use xlink:href="#DejaVuSans-68" x="1326.566406"/>
     <use xlink:href="#DejaVuSans-20" x="1389.945312"/>
     <use xlink:href="#DejaVuSans-6d" x="1421.732422"/>
     <use xlink:href="#DejaVuSans-20" x="1519.144531"/>
     <use xlink:href="#DejaVuSans-3d" x="1550.931641"/>
     <use xlink:href="#DejaVuSans-20" x="1634.720703"/>
     <use xlink:href="#DejaVuSans-30" x="1666.507812"/>
     <use xlink:href="#DejaVuSans-2e" x="1730.130859"/>
     <use xlink:href="#DejaVuSans-35" x="1761.917969"/>
    </g>
   </g>
   <g id="legend_1">
    <g id="patch_7">
     <path d="M 297.796875 101.2725 
L 381.8 101.2725 
Q 383.8 101.2725 383.8 99.2725 
L 383.8 41.56 
Q 383.8 39.56 381.8 39.56 
L 297.796875 39.56 
Q 295.796875 39.56 295.796875 41.56 
L 295.796875 99.2725 
Q 295.796875 101.2725 297.796875 101.2725 
z
" style="fill: #ffffff; opacity: 0.8; stroke: #cccccc; stroke-linejoin: miter"/>
    </g>
    <g id="line2d_33">
     <path d="M 299.796875 47.658437 
L 309.796875 47.658437 
L 319.796875 47.658437 
" style="fill: none; stroke: #9d02d7; stroke-width: 1.5; stroke-linecap: square"/>
     <g>
      <use xlink:href="#mcf83f55b82" x="309.796875" y="47.658437" style="fill: #9d02d7; stroke: #9d02d7; stroke-linejoin: miter"/>
     </g>
    </g>
    <g id="text_18">
     <!-- alpha=2.5 -->
     <g transform="translate(327.796875 51.158437)scale(0.1 -0.1)">
      <use xlink:href="#DejaVuSans-61"/>
      <use xlink:href="#DejaVuSans-6c" x="61.279297"/>
      <use xlink:href="#DejaVuSans-70" x="89.0625"/>
      <use xlink:href="#DejaVuSans-68" x="152.539062"/>
      <use xlink:href="#DejaVuSans-61" x="215.917969"/>
      <use xlink:href="#DejaVuSans-3d" x="277.197266"/>
      <use xlink:href="#DejaVuSans-32" x="360.986328"/>
      <use xlink:href="#DejaVuSans-2e" x="424.609375"/>
      <use xlink:href="#DejaVuSans-35" x="456.396484"/>
     </g>
    </g>
    <g id="line2d_34">
     <path d="M 299.796875 62.336562 
L 309.796875 62.336562 
L 319.796875 62.336562 
" style="fill: none; stroke: #0000ff; stroke-width: 1.5; stroke-linecap: square"/>
     <g>
      <use xlink:href="#ma6bd1902cb" x="309.796875" y="62.336562" style="fill: #0000ff; stroke: #0000ff"/>
     </g>
    </g>
    <g id="text_19">
     <!-- alpha=3.0 -->
     <g transform="translate(327.796875 65.836562)scale(0.1 -0.1)">
      <use xlink:href="#DejaVuSans-61"/>
      <use xlink:href="#DejaVuSans-6c" x="61.279297"/>
      <use xlink:href="#DejaVuSans-70" x="89.0625"/>
      <use xlink:href="#DejaVuSans-68" x="152.539062"/>
      <use xlink:href="#DejaVuSans-61" x="215.917969"/>
      <use xlink:href="#DejaVuSans-3d" x="277.197266"/>
      <use xlink:href="#DejaVuSans-33" x="360.986328"/>
      <use xlink:href="#DejaVuSans-2e" x="424.609375"/>
      <use xlink:href="#DejaVuSans-30" x="456.396484"/>
     </g>
    </g>
    <g id="line2d_35">
     <path d="M 299.796875 77.014687 
L 309.796875 77.014687 
L 319.796875 77.014687 
" style="fill: none; stroke: #ff7763; stroke-width: 1.5; stroke-linecap: square"/>
     <g>
      <use xlink:href="#md21edd1092" x="309.796875" y="77.014687" style="fill: #ff7763; stroke: #ff7763"/>
     </g>
    </g>
    <g id="text_20">
     <!-- alpha=3.5 -->
     <g transform="translate(327.796875 80.514687)scale(0.1 -0.1)">
      <use xlink:href="#DejaVuSans-61"/>
      <use xlink:href="#DejaVuSans-6c" x="61.279297"/>
      <use xlink:href="#DejaVuSans-70" x="89.0625"/>
      <use xlink:href="#DejaVuSans-68" x="152.539062"/>
      <use xlink:href="#DejaVuSans-61" x="215.917969"/>
      <use xlink:href="#DejaVuSans-3d" x="277.197266"/>
      <use xlink:href="#DejaVuSans-33" x="360.986328"/>
      <use xlink:href="#DejaVuSans-2e" x="424.609375"/>
      <use xlink:href="#DejaVuSans-35" x="456.396484"/>
     </g>
    </g>
    <g id="line2d_36">
     <path d="M 299.796875 91.692813 
L 309.796875 91.692813 
L 319.796875 91.692813 
" style="fill: none; stroke: #ffac1e; stroke-width: 1.5; stroke-linecap: square"/>
     <g>
      <use xlink:href="#mbe1b803298" x="309.796875" y="91.692813" style="fill: #ffac1e; stroke: #ffac1e; stroke-linejoin: bevel"/>
     </g>
    </g>
    <g id="text_21">
     <!-- alpha=4.0 -->
     <g transform="translate(327.796875 95.192813)scale(0.1 -0.1)">
      <use xlink:href="#DejaVuSans-61"/>
      <use xlink:href="#DejaVuSans-6c" x="61.279297"/>
      <use xlink:href="#DejaVuSans-70" x="89.0625"/>
      <use xlink:href="#DejaVuSans-68" x="152.539062"/>
      <use xlink:href="#DejaVuSans-61" x="215.917969"/>
      <use xlink:href="#DejaVuSans-3d" x="277.197266"/>
      <use xlink:href="#DejaVuSans-34" x="360.986328"/>
      <use xlink:href="#DejaVuSans-2e" x="424.609375"/>
      <use xlink:href="#DejaVuSans-30" x="456.396484"/>
     </g>
    </g>
   </g>
  </g>
 </g>
 <defs>
  <clipPath id="pacb667b7b2">
   <rect x="54" y="34.56" width="334.8" height="217.44"/>
  </clipPath>
 </defs>
</svg>
