<?xml version="1.0" encoding="utf-8" standalone="no"?>
<!DOCTYPE svg PUBLIC "-//W3C//DTD SVG 1.1//EN"
  "http://www.w3.org/Graphics/SVG/1.1/DTD/svg11.dtd">
<svg xmlns:xlink="http://www.w3.org/1999/xlink" width="432pt" height="288pt" viewBox="0 0 432 288" xmlns="http://www.w3.org/2000/svg" version="1.1">
 <metadata>
  <rdf:RDF xmlns:dc="http://purl.org/dc/elements/1.1/" xmlns:cc="http://creativecommons.org/ns#" xmlns:rdf="http://www.w3.org/1999/02/22-rdf-syntax-ns#">
   <cc:Work>
    <dc:type rdf:resource="http://purl.org/dc/dcmitype/StillImage"/>
    <dc:date>2023-01-11T15:36:33.419425</dc:date>
    <dc:format>image/svg+xml</dc:format>
    <dc:creator>
     <cc:Agent>
      <dc:title>Matplotlib v3.5.2, https://matplotlib.org/</dc:title>
     </cc:Agent>
    </dc:creator>
   </cc:Work>
  </rdf:RDF>
 </metadata>
 <defs>
  <style type="text/css">*{stroke-linejoin: round; stroke-linecap: butt}</style>
 </defs>
 <g id="figure_1">
  <g id="patch_1">
   <path d="M 0 288 
L 432 288 
L 432 0 
L 0 0 
z
" style="fill: #ffffff"/>
  </g>
  <g id="axes_1">
   <g id="patch_2">
    <path d="M 54 252 
L 388.8 252 
L 388.8 34.56 
L 54 34.56 
z
" style="fill: #ffffff"/>
   </g>
   <g id="PolyCollection_1">
    <defs>
     <path id="me975d652c7" d="M 69.218182 -33.240359 
L 69.218182 -33.240359 
L 74.376888 -35.091182 
L 79.535593 -35.030966 
L 84.694299 -34.379831 
L 89.853005 -39.391929 
L 95.01171 -35.091182 
L 100.170416 -35.091182 
L 105.329122 -29.646078 
L 110.487827 -33.006539 
L 115.646533 -32.611424 
L 120.805239 -34.719788 
L 125.963945 -24.346308 
L 131.12265 -27.185713 
L 136.281356 -18.233077 
L 141.440062 -31.528744 
L 146.598767 -31.003013 
L 151.757473 -30.38689 
L 156.916179 -34.674278 
L 162.074884 -37.341948 
L 167.23359 -32.500795 
L 172.392296 -33.212449 
L 177.551002 -39.201485 
L 182.709707 -44.785791 
L 187.868413 -30.688117 
L 193.027119 -33.815042 
L 198.185824 -33.519023 
L 203.34453 -55.063991 
L 208.503236 -40.60275 
L 213.661941 -85.882671 
L 218.820647 -36.936854 
L 223.979353 -167.152252 
L 229.138059 -57.521561 
L 234.296764 -34.629153 
L 239.45547 -144.160189 
L 244.614176 -119.375247 
L 249.772881 -141.294866 
L 254.931587 -58.588459 
L 260.090293 -186.034625 
L 265.248998 -176.558175 
L 270.407704 -222.824962 
L 275.56641 -224.795144 
L 280.725116 -234.27801 
L 285.883821 -230.171673 
L 291.042527 -224.283217 
L 296.201233 -234.060749 
L 301.359938 -234.702194 
L 306.518644 -239.749744 
L 311.67735 -239.749744 
L 316.836055 -239.749744 
L 321.994761 -239.749744 
L 327.153467 -239.749744 
L 332.312173 -239.749744 
L 337.470878 -239.749744 
L 342.629584 -239.749744 
L 347.78829 -239.749744 
L 352.946995 -233.946569 
L 358.105701 -233.946569 
L 363.264407 -233.946569 
L 368.423112 -233.946569 
L 373.581818 -233.946569 
L 373.581818 -233.946569 
L 373.581818 -233.946569 
L 368.423112 -233.946569 
L 363.264407 -233.946569 
L 358.105701 -233.946569 
L 352.946995 -233.946569 
L 347.78829 -239.749744 
L 342.629584 -239.749744 
L 337.470878 -239.749744 
L 332.312173 -239.749744 
L 327.153467 -239.749744 
L 321.994761 -239.749744 
L 316.836055 -239.749744 
L 311.67735 -239.749744 
L 306.518644 -239.749744 
L 301.359938 -234.702194 
L 296.201233 -234.060749 
L 291.042527 -224.283217 
L 285.883821 -230.171673 
L 280.725116 -234.27801 
L 275.56641 -224.795144 
L 270.407704 -222.824962 
L 265.248998 -176.558175 
L 260.090293 -186.034625 
L 254.931587 -58.588459 
L 249.772881 -141.294866 
L 244.614176 -119.375247 
L 239.45547 -144.160189 
L 234.296764 -34.629153 
L 229.138059 -57.521561 
L 223.979353 -167.152252 
L 218.820647 -36.936854 
L 213.661941 -85.882671 
L 208.503236 -40.60275 
L 203.34453 -55.063991 
L 198.185824 -33.519023 
L 193.027119 -33.815042 
L 187.868413 -30.688117 
L 182.709707 -44.785791 
L 177.551002 -39.201485 
L 172.392296 -33.212449 
L 167.23359 -32.500795 
L 162.074884 -37.341948 
L 156.916179 -34.674278 
L 151.757473 -30.38689 
L 146.598767 -31.003013 
L 141.440062 -31.528744 
L 136.281356 -18.233077 
L 131.12265 -27.185713 
L 125.963945 -24.346308 
L 120.805239 -34.719788 
L 115.646533 -32.611424 
L 110.487827 -33.006539 
L 105.329122 -29.646078 
L 100.170416 -35.091182 
L 95.01171 -35.091182 
L 89.853005 -39.391929 
L 84.694299 -34.379831 
L 79.535593 -35.030966 
L 74.376888 -35.091182 
L 69.218182 -33.240359 
z
" style="stroke: #9d02d7; stroke-opacity: 0.2"/>
    </defs>
    <g clip-path="url(#p37569af33c)">
     <use xlink:href="#me975d652c7" x="0" y="288" style="fill: #9d02d7; fill-opacity: 0.2; stroke: #9d02d7; stroke-opacity: 0.2"/>
    </g>
   </g>
   <g id="PolyCollection_2">
    <defs>
     <path id="m7ed5855972" d="M 69.218182 -35.068692 
L 69.218182 -35.068692 
L 74.376888 -35.766587 
L 79.535593 -29.14055 
L 84.694299 -34.433631 
L 89.853005 -36.771787 
L 95.01171 -30.152892 
L 100.170416 -32.146297 
L 105.329122 -33.986074 
L 110.487827 -33.287074 
L 115.646533 -32.033122 
L 120.805239 -34.336472 
L 125.963945 -28.067949 
L 131.12265 -31.000491 
L 136.281356 -14.444448 
L 141.440062 -32.55631 
L 146.598767 -30.569982 
L 151.757473 -35.698372 
L 156.916179 -32.616427 
L 162.074884 -38.191579 
L 167.23359 -33.493228 
L 172.392296 -14.074981 
L 177.551002 -18.547998 
L 182.709707 -29.196809 
L 187.868413 -32.320675 
L 193.027119 -31.797419 
L 198.185824 -26.184165 
L 203.34453 -165.864014 
L 208.503236 -26.260802 
L 213.661941 -41.494931 
L 218.820647 -50.24878 
L 223.979353 -39.253811 
L 229.138059 -32.860191 
L 234.296764 -31.721633 
L 239.45547 -31.218042 
L 244.614176 -31.486894 
L 249.772881 -27.68245 
L 254.931587 -31.040768 
L 260.090293 -47.710043 
L 265.248998 -190.002965 
L 270.407704 -149.229448 
L 275.56641 -161.026207 
L 280.725116 -198.738708 
L 285.883821 -198.738708 
L 291.042527 -177.170172 
L 296.201233 -176.758777 
L 301.359938 -177.594276 
L 306.518644 -201.212601 
L 311.67735 -207.389409 
L 316.836055 -158.818775 
L 321.994761 -229.183805 
L 327.153467 -166.476368 
L 332.312173 -169.816391 
L 337.470878 -225.09583 
L 342.629584 -228.223346 
L 347.78829 -225.09583 
L 352.946995 -225.09583 
L 358.105701 -225.09583 
L 363.264407 -228.223347 
L 368.423112 -225.09583 
L 373.581818 -229.849462 
L 373.581818 -229.849462 
L 373.581818 -229.849462 
L 368.423112 -225.09583 
L 363.264407 -228.223347 
L 358.105701 -225.09583 
L 352.946995 -225.09583 
L 347.78829 -225.09583 
L 342.629584 -228.223346 
L 337.470878 -225.09583 
L 332.312173 -169.816391 
L 327.153467 -166.476368 
L 321.994761 -229.183805 
L 316.836055 -158.818775 
L 311.67735 -207.389409 
L 306.518644 -201.212601 
L 301.359938 -177.594276 
L 296.201233 -176.758777 
L 291.042527 -177.170172 
L 285.883821 -198.738708 
L 280.725116 -198.738708 
L 275.56641 -161.026207 
L 270.407704 -149.229448 
L 265.248998 -190.002965 
L 260.090293 -47.710043 
L 254.931587 -31.040768 
L 249.772881 -27.68245 
L 244.614176 -31.486894 
L 239.45547 -31.218042 
L 234.296764 -31.721633 
L 229.138059 -32.860191 
L 223.979353 -39.253811 
L 218.820647 -50.24878 
L 213.661941 -41.494931 
L 208.503236 -26.260802 
L 203.34453 -165.864014 
L 198.185824 -26.184165 
L 193.027119 -31.797419 
L 187.868413 -32.320675 
L 182.709707 -29.196809 
L 177.551002 -18.547998 
L 172.392296 -14.074981 
L 167.23359 -33.493228 
L 162.074884 -38.191579 
L 156.916179 -32.616427 
L 151.757473 -35.698372 
L 146.598767 -30.569982 
L 141.440062 -32.55631 
L 136.281356 -14.444448 
L 131.12265 -31.000491 
L 125.963945 -28.067949 
L 120.805239 -34.336472 
L 115.646533 -32.033122 
L 110.487827 -33.287074 
L 105.329122 -33.986074 
L 100.170416 -32.146297 
L 95.01171 -30.152892 
L 89.853005 -36.771787 
L 84.694299 -34.433631 
L 79.535593 -29.14055 
L 74.376888 -35.766587 
L 69.218182 -35.068692 
z
" style="stroke: #0000ff; stroke-opacity: 0.2"/>
    </defs>
    <g clip-path="url(#p37569af33c)">
     <use xlink:href="#m7ed5855972" x="0" y="288" style="fill: #0000ff; fill-opacity: 0.2; stroke: #0000ff; stroke-opacity: 0.2"/>
    </g>
   </g>
   <g id="PolyCollection_3">
    <defs>
     <path id="m6c63d80f20" d="M 69.218182 -35.091182 
L 69.218182 -35.091182 
L 74.376888 -42.399463 
L 79.535593 -32.81751 
L 84.694299 -34.364917 
L 89.853005 -36.805476 
L 95.01171 -35.091182 
L 100.170416 -33.024598 
L 105.329122 -35.091182 
L 110.487827 -34.527356 
L 115.646533 -35.014179 
L 120.805239 -35.065887 
L 125.963945 -31.763573 
L 131.12265 -35.091182 
L 136.281356 -33.831238 
L 141.440062 -34.185697 
L 146.598767 -35.077354 
L 151.757473 -34.896696 
L 156.916179 -33.752987 
L 162.074884 -35.091182 
L 167.23359 -23.936373 
L 172.392296 -25.193699 
L 177.551002 -35.091182 
L 182.709707 -35.091182 
L 187.868413 -32.284432 
L 193.027119 -34.201972 
L 198.185824 -33.953266 
L 203.34453 -34.040729 
L 208.503236 -34.381933 
L 213.661941 -33.616311 
L 218.820647 -29.746618 
L 223.979353 -40.408692 
L 229.138059 -34.873276 
L 234.296764 -34.757071 
L 239.45547 -30.467661 
L 244.614176 -33.592767 
L 249.772881 -34.41218 
L 254.931587 -34.516444 
L 260.090293 -58.032834 
L 265.248998 -31.983782 
L 270.407704 -31.879039 
L 275.56641 -34.600034 
L 280.725116 -32.233466 
L 285.883821 -28.473268 
L 291.042527 -29.834269 
L 296.201233 -34.568789 
L 301.359938 -33.386052 
L 306.518644 -34.727306 
L 311.67735 -28.068991 
L 316.836055 -35.881275 
L 321.994761 -32.379085 
L 327.153467 -34.616772 
L 332.312173 -32.870482 
L 337.470878 -33.670564 
L 342.629584 -34.803923 
L 347.78829 -32.400422 
L 352.946995 -25.062712 
L 358.105701 -34.720321 
L 363.264407 -30.661136 
L 368.423112 -34.65518 
L 373.581818 -34.134119 
L 373.581818 -34.134119 
L 373.581818 -34.134119 
L 368.423112 -34.65518 
L 363.264407 -30.661136 
L 358.105701 -34.720321 
L 352.946995 -25.062712 
L 347.78829 -32.400422 
L 342.629584 -34.803923 
L 337.470878 -33.670564 
L 332.312173 -32.870482 
L 327.153467 -34.616772 
L 321.994761 -32.379085 
L 316.836055 -35.881275 
L 311.67735 -28.068991 
L 306.518644 -34.727306 
L 301.359938 -33.386052 
L 296.201233 -34.568789 
L 291.042527 -29.834269 
L 285.883821 -28.473268 
L 280.725116 -32.233466 
L 275.56641 -34.600034 
L 270.407704 -31.879039 
L 265.248998 -31.983782 
L 260.090293 -58.032834 
L 254.931587 -34.516444 
L 249.772881 -34.41218 
L 244.614176 -33.592767 
L 239.45547 -30.467661 
L 234.296764 -34.757071 
L 229.138059 -34.873276 
L 223.979353 -40.408692 
L 218.820647 -29.746618 
L 213.661941 -33.616311 
L 208.503236 -34.381933 
L 203.34453 -34.040729 
L 198.185824 -33.953266 
L 193.027119 -34.201972 
L 187.868413 -32.284432 
L 182.709707 -35.091182 
L 177.551002 -35.091182 
L 172.392296 -25.193699 
L 167.23359 -23.936373 
L 162.074884 -35.091182 
L 156.916179 -33.752987 
L 151.757473 -34.896696 
L 146.598767 -35.077354 
L 141.440062 -34.185697 
L 136.281356 -33.831238 
L 131.12265 -35.091182 
L 125.963945 -31.763573 
L 120.805239 -35.065887 
L 115.646533 -35.014179 
L 110.487827 -34.527356 
L 105.329122 -35.091182 
L 100.170416 -33.024598 
L 95.01171 -35.091182 
L 89.853005 -36.805476 
L 84.694299 -34.364917 
L 79.535593 -32.81751 
L 74.376888 -42.399463 
L 69.218182 -35.091182 
z
" style="stroke: #ff7763; stroke-opacity: 0.2"/>
    </defs>
    <g clip-path="url(#p37569af33c)">
     <use xlink:href="#m6c63d80f20" x="0" y="288" style="fill: #ff7763; fill-opacity: 0.2; stroke: #ff7763; stroke-opacity: 0.2"/>
    </g>
   </g>
   <g id="PolyCollection_4">
    <defs>
     <path id="mc251f93003" d="M 69.218182 -33.341998 
L 69.218182 -33.341998 
L 74.376888 -35.998664 
L 79.535593 -35.091182 
L 84.694299 -25.582056 
L 89.853005 -35.040594 
L 95.01171 -26.509697 
L 100.170416 -33.706288 
L 105.329122 -35.054311 
L 110.487827 -35.027269 
L 115.646533 -21.028591 
L 120.805239 -35.091182 
L 125.963945 -31.20202 
L 131.12265 -34.808442 
L 136.281356 -30.04595 
L 141.440062 -33.881096 
L 146.598767 -35.091182 
L 151.757473 -33.027122 
L 156.916179 -35.073612 
L 162.074884 -31.304984 
L 167.23359 -34.627286 
L 172.392296 -44.762181 
L 177.551002 -35.091182 
L 182.709707 -32.911801 
L 187.868413 -35.07397 
L 193.027119 -35.091182 
L 198.185824 -29.971389 
L 203.34453 -34.048443 
L 208.503236 -35.091182 
L 213.661941 -35.091182 
L 218.820647 -34.51676 
L 223.979353 -27.804222 
L 229.138059 -35.066144 
L 234.296764 -34.725986 
L 239.45547 -51.496475 
L 244.614176 -30.307806 
L 249.772881 -35.091182 
L 254.931587 -30.683595 
L 260.090293 -35.078987 
L 265.248998 -34.59095 
L 270.407704 -37.37688 
L 275.56641 -35.06292 
L 280.725116 -31.635714 
L 285.883821 -35.091182 
L 291.042527 -34.916627 
L 296.201233 -34.996181 
L 301.359938 -34.26594 
L 306.518644 -35.003498 
L 311.67735 -35.091182 
L 316.836055 -28.450189 
L 321.994761 -34.90586 
L 327.153467 -17.277796 
L 332.312173 -35.075207 
L 337.470878 -13.799532 
L 342.629584 -31.155515 
L 347.78829 -35.037573 
L 352.946995 -23.418806 
L 358.105701 -34.939463 
L 363.264407 -34.984781 
L 368.423112 -32.752438 
L 373.581818 -33.477778 
L 373.581818 -33.477778 
L 373.581818 -33.477778 
L 368.423112 -32.752438 
L 363.264407 -34.984781 
L 358.105701 -34.939463 
L 352.946995 -23.418806 
L 347.78829 -35.037573 
L 342.629584 -31.155515 
L 337.470878 -13.799532 
L 332.312173 -35.075207 
L 327.153467 -17.277796 
L 321.994761 -34.90586 
L 316.836055 -28.450189 
L 311.67735 -35.091182 
L 306.518644 -35.003498 
L 301.359938 -34.26594 
L 296.201233 -34.996181 
L 291.042527 -34.916627 
L 285.883821 -35.091182 
L 280.725116 -31.635714 
L 275.56641 -35.06292 
L 270.407704 -37.37688 
L 265.248998 -34.59095 
L 260.090293 -35.078987 
L 254.931587 -30.683595 
L 249.772881 -35.091182 
L 244.614176 -30.307806 
L 239.45547 -51.496475 
L 234.296764 -34.725986 
L 229.138059 -35.066144 
L 223.979353 -27.804222 
L 218.820647 -34.51676 
L 213.661941 -35.091182 
L 208.503236 -35.091182 
L 203.34453 -34.048443 
L 198.185824 -29.971389 
L 193.027119 -35.091182 
L 187.868413 -35.07397 
L 182.709707 -32.911801 
L 177.551002 -35.091182 
L 172.392296 -44.762181 
L 167.23359 -34.627286 
L 162.074884 -31.304984 
L 156.916179 -35.073612 
L 151.757473 -33.027122 
L 146.598767 -35.091182 
L 141.440062 -33.881096 
L 136.281356 -30.04595 
L 131.12265 -34.808442 
L 125.963945 -31.20202 
L 120.805239 -35.091182 
L 115.646533 -21.028591 
L 110.487827 -35.027269 
L 105.329122 -35.054311 
L 100.170416 -33.706288 
L 95.01171 -26.509697 
L 89.853005 -35.040594 
L 84.694299 -25.582056 
L 79.535593 -35.091182 
L 74.376888 -35.998664 
L 69.218182 -33.341998 
z
" style="stroke: #ffac1e; stroke-opacity: 0.2"/>
    </defs>
    <g clip-path="url(#p37569af33c)">
     <use xlink:href="#mc251f93003" x="0" y="288" style="fill: #ffac1e; fill-opacity: 0.2; stroke: #ffac1e; stroke-opacity: 0.2"/>
    </g>
   </g>
   <g id="PolyCollection_5">
    <defs>
     <path id="m488977b04f" d="M 69.218182 -34.717764 
L 69.218182 -34.717764 
L 74.376888 -33.99139 
L 79.535593 -35.07081 
L 84.694299 -35.012454 
L 89.853005 -33.474638 
L 95.01171 -30.214956 
L 100.170416 -35.091182 
L 105.329122 -35.05886 
L 110.487827 -35.091182 
L 115.646533 -35.091182 
L 120.805239 -33.258794 
L 125.963945 -35.091182 
L 131.12265 -35.091182 
L 136.281356 -34.71181 
L 141.440062 -31.56334 
L 146.598767 -29.874172 
L 151.757473 -34.030363 
L 156.916179 -35.091182 
L 162.074884 -33.517743 
L 167.23359 -34.971935 
L 172.392296 -35.777857 
L 177.551002 -35.091182 
L 182.709707 -34.873112 
L 187.868413 -35.084656 
L 193.027119 -33.409058 
L 198.185824 -35.091182 
L 203.34453 -32.73079 
L 208.503236 -35.683885 
L 213.661941 -39.441195 
L 218.820647 -34.044186 
L 223.979353 -28.862384 
L 229.138059 -32.664696 
L 234.296764 -35.367538 
L 239.45547 -34.786993 
L 244.614176 -34.249325 
L 249.772881 -35.091182 
L 254.931587 -33.301198 
L 260.090293 -27.970302 
L 265.248998 -32.709015 
L 270.407704 -35.091182 
L 275.56641 -35.091182 
L 280.725116 -28.929495 
L 285.883821 -35.187062 
L 291.042527 -38.333396 
L 296.201233 -35.091182 
L 301.359938 -35.246122 
L 306.518644 -26.315464 
L 311.67735 -33.564915 
L 316.836055 -31.721359 
L 321.994761 -35.091182 
L 327.153467 -35.058424 
L 332.312173 -35.020503 
L 337.470878 -33.269045 
L 342.629584 -32.859743 
L 347.78829 -27.619612 
L 352.946995 -14.43325 
L 358.105701 -34.939069 
L 363.264407 -35.091182 
L 368.423112 -35.091182 
L 373.581818 -34.596578 
L 373.581818 -34.596578 
L 373.581818 -34.596578 
L 368.423112 -35.091182 
L 363.264407 -35.091182 
L 358.105701 -34.939069 
L 352.946995 -14.43325 
L 347.78829 -27.619612 
L 342.629584 -32.859743 
L 337.470878 -33.269045 
L 332.312173 -35.020503 
L 327.153467 -35.058424 
L 321.994761 -35.091182 
L 316.836055 -31.721359 
L 311.67735 -33.564915 
L 306.518644 -26.315464 
L 301.359938 -35.246122 
L 296.201233 -35.091182 
L 291.042527 -38.333396 
L 285.883821 -35.187062 
L 280.725116 -28.929495 
L 275.56641 -35.091182 
L 270.407704 -35.091182 
L 265.248998 -32.709015 
L 260.090293 -27.970302 
L 254.931587 -33.301198 
L 249.772881 -35.091182 
L 244.614176 -34.249325 
L 239.45547 -34.786993 
L 234.296764 -35.367538 
L 229.138059 -32.664696 
L 223.979353 -28.862384 
L 218.820647 -34.044186 
L 213.661941 -39.441195 
L 208.503236 -35.683885 
L 203.34453 -32.73079 
L 198.185824 -35.091182 
L 193.027119 -33.409058 
L 187.868413 -35.084656 
L 182.709707 -34.873112 
L 177.551002 -35.091182 
L 172.392296 -35.777857 
L 167.23359 -34.971935 
L 162.074884 -33.517743 
L 156.916179 -35.091182 
L 151.757473 -34.030363 
L 146.598767 -29.874172 
L 141.440062 -31.56334 
L 136.281356 -34.71181 
L 131.12265 -35.091182 
L 125.963945 -35.091182 
L 120.805239 -33.258794 
L 115.646533 -35.091182 
L 110.487827 -35.091182 
L 105.329122 -35.05886 
L 100.170416 -35.091182 
L 95.01171 -30.214956 
L 89.853005 -33.474638 
L 84.694299 -35.012454 
L 79.535593 -35.07081 
L 74.376888 -33.99139 
L 69.218182 -34.717764 
z
" style="stroke: #009435; stroke-opacity: 0.2"/>
    </defs>
    <g clip-path="url(#p37569af33c)">
     <use xlink:href="#m488977b04f" x="0" y="288" style="fill: #009435; fill-opacity: 0.2; stroke: #009435; stroke-opacity: 0.2"/>
    </g>
   </g>
   <g id="matplotlib.axis_1">
    <g id="xtick_1">
     <g id="line2d_1">
      <path d="M 69.218182 252 
L 69.218182 34.56 
" clip-path="url(#p37569af33c)" style="fill: none; stroke-dasharray: 2.96,1.28; stroke-dashoffset: 0; stroke: #b0b0b0; stroke-width: 0.8"/>
     </g>
     <g id="line2d_2">
      <defs>
       <path id="m02ce52aadf" d="M 0 0 
L 0 3.5 
" style="stroke: #000000; stroke-width: 0.8"/>
      </defs>
      <g>
       <use xlink:href="#m02ce52aadf" x="69.218182" y="252" style="stroke: #000000; stroke-width: 0.8"/>
      </g>
     </g>
     <g id="text_1">
      <!-- 0 -->
      <g transform="translate(66.036932 266.598437)scale(0.1 -0.1)">
       <defs>
        <path id="DejaVuSans-30" d="M 2034 4250 
Q 1547 4250 1301 3770 
Q 1056 3291 1056 2328 
Q 1056 1369 1301 889 
Q 1547 409 2034 409 
Q 2525 409 2770 889 
Q 3016 1369 3016 2328 
Q 3016 3291 2770 3770 
Q 2525 4250 2034 4250 
z
M 2034 4750 
Q 2819 4750 3233 4129 
Q 3647 3509 3647 2328 
Q 3647 1150 3233 529 
Q 2819 -91 2034 -91 
Q 1250 -91 836 529 
Q 422 1150 422 2328 
Q 422 3509 836 4129 
Q 1250 4750 2034 4750 
z
" transform="scale(0.015625)"/>
       </defs>
       <use xlink:href="#DejaVuSans-30"/>
      </g>
     </g>
    </g>
    <g id="xtick_2">
     <g id="line2d_3">
      <path d="M 120.805239 252 
L 120.805239 34.56 
" clip-path="url(#p37569af33c)" style="fill: none; stroke-dasharray: 2.96,1.28; stroke-dashoffset: 0; stroke: #b0b0b0; stroke-width: 0.8"/>
     </g>
     <g id="line2d_4">
      <g>
       <use xlink:href="#m02ce52aadf" x="120.805239" y="252" style="stroke: #000000; stroke-width: 0.8"/>
      </g>
     </g>
     <g id="text_2">
      <!-- 500 -->
      <g transform="translate(111.261489 266.598437)scale(0.1 -0.1)">
       <defs>
        <path id="DejaVuSans-35" d="M 691 4666 
L 3169 4666 
L 3169 4134 
L 1269 4134 
L 1269 2991 
Q 1406 3038 1543 3061 
Q 1681 3084 1819 3084 
Q 2600 3084 3056 2656 
Q 3513 2228 3513 1497 
Q 3513 744 3044 326 
Q 2575 -91 1722 -91 
Q 1428 -91 1123 -41 
Q 819 9 494 109 
L 494 744 
Q 775 591 1075 516 
Q 1375 441 1709 441 
Q 2250 441 2565 725 
Q 2881 1009 2881 1497 
Q 2881 1984 2565 2268 
Q 2250 2553 1709 2553 
Q 1456 2553 1204 2497 
Q 953 2441 691 2322 
L 691 4666 
z
" transform="scale(0.015625)"/>
       </defs>
       <use xlink:href="#DejaVuSans-35"/>
       <use xlink:href="#DejaVuSans-30" x="63.623047"/>
       <use xlink:href="#DejaVuSans-30" x="127.246094"/>
      </g>
     </g>
    </g>
    <g id="xtick_3">
     <g id="line2d_5">
      <path d="M 172.392296 252 
L 172.392296 34.56 
" clip-path="url(#p37569af33c)" style="fill: none; stroke-dasharray: 2.96,1.28; stroke-dashoffset: 0; stroke: #b0b0b0; stroke-width: 0.8"/>
     </g>
     <g id="line2d_6">
      <g>
       <use xlink:href="#m02ce52aadf" x="172.392296" y="252" style="stroke: #000000; stroke-width: 0.8"/>
      </g>
     </g>
     <g id="text_3">
      <!-- 1000 -->
      <g transform="translate(159.667296 266.598437)scale(0.1 -0.1)">
       <defs>
        <path id="DejaVuSans-31" d="M 794 531 
L 1825 531 
L 1825 4091 
L 703 3866 
L 703 4441 
L 1819 4666 
L 2450 4666 
L 2450 531 
L 3481 531 
L 3481 0 
L 794 0 
L 794 531 
z
" transform="scale(0.015625)"/>
       </defs>
       <use xlink:href="#DejaVuSans-31"/>
       <use xlink:href="#DejaVuSans-30" x="63.623047"/>
       <use xlink:href="#DejaVuSans-30" x="127.246094"/>
       <use xlink:href="#DejaVuSans-30" x="190.869141"/>
      </g>
     </g>
    </g>
    <g id="xtick_4">
     <g id="line2d_7">
      <path d="M 223.979353 252 
L 223.979353 34.56 
" clip-path="url(#p37569af33c)" style="fill: none; stroke-dasharray: 2.96,1.28; stroke-dashoffset: 0; stroke: #b0b0b0; stroke-width: 0.8"/>
     </g>
     <g id="line2d_8">
      <g>
       <use xlink:href="#m02ce52aadf" x="223.979353" y="252" style="stroke: #000000; stroke-width: 0.8"/>
      </g>
     </g>
     <g id="text_4">
      <!-- 1500 -->
      <g transform="translate(211.254353 266.598437)scale(0.1 -0.1)">
       <use xlink:href="#DejaVuSans-31"/>
       <use xlink:href="#DejaVuSans-35" x="63.623047"/>
       <use xlink:href="#DejaVuSans-30" x="127.246094"/>
       <use xlink:href="#DejaVuSans-30" x="190.869141"/>
      </g>
     </g>
    </g>
    <g id="xtick_5">
     <g id="line2d_9">
      <path d="M 275.56641 252 
L 275.56641 34.56 
" clip-path="url(#p37569af33c)" style="fill: none; stroke-dasharray: 2.96,1.28; stroke-dashoffset: 0; stroke: #b0b0b0; stroke-width: 0.8"/>
     </g>
     <g id="line2d_10">
      <g>
       <use xlink:href="#m02ce52aadf" x="275.56641" y="252" style="stroke: #000000; stroke-width: 0.8"/>
      </g>
     </g>
     <g id="text_5">
      <!-- 2000 -->
      <g transform="translate(262.84141 266.598437)scale(0.1 -0.1)">
       <defs>
        <path id="DejaVuSans-32" d="M 1228 531 
L 3431 531 
L 3431 0 
L 469 0 
L 469 531 
Q 828 903 1448 1529 
Q 2069 2156 2228 2338 
Q 2531 2678 2651 2914 
Q 2772 3150 2772 3378 
Q 2772 3750 2511 3984 
Q 2250 4219 1831 4219 
Q 1534 4219 1204 4116 
Q 875 4013 500 3803 
L 500 4441 
Q 881 4594 1212 4672 
Q 1544 4750 1819 4750 
Q 2544 4750 2975 4387 
Q 3406 4025 3406 3419 
Q 3406 3131 3298 2873 
Q 3191 2616 2906 2266 
Q 2828 2175 2409 1742 
Q 1991 1309 1228 531 
z
" transform="scale(0.015625)"/>
       </defs>
       <use xlink:href="#DejaVuSans-32"/>
       <use xlink:href="#DejaVuSans-30" x="63.623047"/>
       <use xlink:href="#DejaVuSans-30" x="127.246094"/>
       <use xlink:href="#DejaVuSans-30" x="190.869141"/>
      </g>
     </g>
    </g>
    <g id="xtick_6">
     <g id="line2d_11">
      <path d="M 327.153467 252 
L 327.153467 34.56 
" clip-path="url(#p37569af33c)" style="fill: none; stroke-dasharray: 2.96,1.28; stroke-dashoffset: 0; stroke: #b0b0b0; stroke-width: 0.8"/>
     </g>
     <g id="line2d_12">
      <g>
       <use xlink:href="#m02ce52aadf" x="327.153467" y="252" style="stroke: #000000; stroke-width: 0.8"/>
      </g>
     </g>
     <g id="text_6">
      <!-- 2500 -->
      <g transform="translate(314.428467 266.598437)scale(0.1 -0.1)">
       <use xlink:href="#DejaVuSans-32"/>
       <use xlink:href="#DejaVuSans-35" x="63.623047"/>
       <use xlink:href="#DejaVuSans-30" x="127.246094"/>
       <use xlink:href="#DejaVuSans-30" x="190.869141"/>
      </g>
     </g>
    </g>
    <g id="xtick_7">
     <g id="line2d_13">
      <path d="M 378.740524 252 
L 378.740524 34.56 
" clip-path="url(#p37569af33c)" style="fill: none; stroke-dasharray: 2.96,1.28; stroke-dashoffset: 0; stroke: #b0b0b0; stroke-width: 0.8"/>
     </g>
     <g id="line2d_14">
      <g>
       <use xlink:href="#m02ce52aadf" x="378.740524" y="252" style="stroke: #000000; stroke-width: 0.8"/>
      </g>
     </g>
     <g id="text_7">
      <!-- 3000 -->
      <g transform="translate(366.015524 266.598437)scale(0.1 -0.1)">
       <defs>
        <path id="DejaVuSans-33" d="M 2597 2516 
Q 3050 2419 3304 2112 
Q 3559 1806 3559 1356 
Q 3559 666 3084 287 
Q 2609 -91 1734 -91 
Q 1441 -91 1130 -33 
Q 819 25 488 141 
L 488 750 
Q 750 597 1062 519 
Q 1375 441 1716 441 
Q 2309 441 2620 675 
Q 2931 909 2931 1356 
Q 2931 1769 2642 2001 
Q 2353 2234 1838 2234 
L 1294 2234 
L 1294 2753 
L 1863 2753 
Q 2328 2753 2575 2939 
Q 2822 3125 2822 3475 
Q 2822 3834 2567 4026 
Q 2313 4219 1838 4219 
Q 1578 4219 1281 4162 
Q 984 4106 628 3988 
L 628 4550 
Q 988 4650 1302 4700 
Q 1616 4750 1894 4750 
Q 2613 4750 3031 4423 
Q 3450 4097 3450 3541 
Q 3450 3153 3228 2886 
Q 3006 2619 2597 2516 
z
" transform="scale(0.015625)"/>
       </defs>
       <use xlink:href="#DejaVuSans-33"/>
       <use xlink:href="#DejaVuSans-30" x="63.623047"/>
       <use xlink:href="#DejaVuSans-30" x="127.246094"/>
       <use xlink:href="#DejaVuSans-30" x="190.869141"/>
      </g>
     </g>
    </g>
    <g id="text_8">
     <!-- Steps -->
     <g transform="translate(207.410156 280.276563)scale(0.1 -0.1)">
      <defs>
       <path id="DejaVuSans-53" d="M 3425 4513 
L 3425 3897 
Q 3066 4069 2747 4153 
Q 2428 4238 2131 4238 
Q 1616 4238 1336 4038 
Q 1056 3838 1056 3469 
Q 1056 3159 1242 3001 
Q 1428 2844 1947 2747 
L 2328 2669 
Q 3034 2534 3370 2195 
Q 3706 1856 3706 1288 
Q 3706 609 3251 259 
Q 2797 -91 1919 -91 
Q 1588 -91 1214 -16 
Q 841 59 441 206 
L 441 856 
Q 825 641 1194 531 
Q 1563 422 1919 422 
Q 2459 422 2753 634 
Q 3047 847 3047 1241 
Q 3047 1584 2836 1778 
Q 2625 1972 2144 2069 
L 1759 2144 
Q 1053 2284 737 2584 
Q 422 2884 422 3419 
Q 422 4038 858 4394 
Q 1294 4750 2059 4750 
Q 2388 4750 2728 4690 
Q 3069 4631 3425 4513 
z
" transform="scale(0.015625)"/>
       <path id="DejaVuSans-74" d="M 1172 4494 
L 1172 3500 
L 2356 3500 
L 2356 3053 
L 1172 3053 
L 1172 1153 
Q 1172 725 1289 603 
Q 1406 481 1766 481 
L 2356 481 
L 2356 0 
L 1766 0 
Q 1100 0 847 248 
Q 594 497 594 1153 
L 594 3053 
L 172 3053 
L 172 3500 
L 594 3500 
L 594 4494 
L 1172 4494 
z
" transform="scale(0.015625)"/>
       <path id="DejaVuSans-65" d="M 3597 1894 
L 3597 1613 
L 953 1613 
Q 991 1019 1311 708 
Q 1631 397 2203 397 
Q 2534 397 2845 478 
Q 3156 559 3463 722 
L 3463 178 
Q 3153 47 2828 -22 
Q 2503 -91 2169 -91 
Q 1331 -91 842 396 
Q 353 884 353 1716 
Q 353 2575 817 3079 
Q 1281 3584 2069 3584 
Q 2775 3584 3186 3129 
Q 3597 2675 3597 1894 
z
M 3022 2063 
Q 3016 2534 2758 2815 
Q 2500 3097 2075 3097 
Q 1594 3097 1305 2825 
Q 1016 2553 972 2059 
L 3022 2063 
z
" transform="scale(0.015625)"/>
       <path id="DejaVuSans-70" d="M 1159 525 
L 1159 -1331 
L 581 -1331 
L 581 3500 
L 1159 3500 
L 1159 2969 
Q 1341 3281 1617 3432 
Q 1894 3584 2278 3584 
Q 2916 3584 3314 3078 
Q 3713 2572 3713 1747 
Q 3713 922 3314 415 
Q 2916 -91 2278 -91 
Q 1894 -91 1617 61 
Q 1341 213 1159 525 
z
M 3116 1747 
Q 3116 2381 2855 2742 
Q 2594 3103 2138 3103 
Q 1681 3103 1420 2742 
Q 1159 2381 1159 1747 
Q 1159 1113 1420 752 
Q 1681 391 2138 391 
Q 2594 391 2855 752 
Q 3116 1113 3116 1747 
z
" transform="scale(0.015625)"/>
       <path id="DejaVuSans-73" d="M 2834 3397 
L 2834 2853 
Q 2591 2978 2328 3040 
Q 2066 3103 1784 3103 
Q 1356 3103 1142 2972 
Q 928 2841 928 2578 
Q 928 2378 1081 2264 
Q 1234 2150 1697 2047 
L 1894 2003 
Q 2506 1872 2764 1633 
Q 3022 1394 3022 966 
Q 3022 478 2636 193 
Q 2250 -91 1575 -91 
Q 1294 -91 989 -36 
Q 684 19 347 128 
L 347 722 
Q 666 556 975 473 
Q 1284 391 1588 391 
Q 1994 391 2212 530 
Q 2431 669 2431 922 
Q 2431 1156 2273 1281 
Q 2116 1406 1581 1522 
L 1381 1569 
Q 847 1681 609 1914 
Q 372 2147 372 2553 
Q 372 3047 722 3315 
Q 1072 3584 1716 3584 
Q 2034 3584 2315 3537 
Q 2597 3491 2834 3397 
z
" transform="scale(0.015625)"/>
      </defs>
      <use xlink:href="#DejaVuSans-53"/>
      <use xlink:href="#DejaVuSans-74" x="63.476562"/>
      <use xlink:href="#DejaVuSans-65" x="102.685547"/>
      <use xlink:href="#DejaVuSans-70" x="164.208984"/>
      <use xlink:href="#DejaVuSans-73" x="227.685547"/>
     </g>
    </g>
   </g>
   <g id="matplotlib.axis_2">
    <g id="ytick_1">
     <g id="line2d_15">
      <path d="M 54 243.636923 
L 388.8 243.636923 
" clip-path="url(#p37569af33c)" style="fill: none; stroke-dasharray: 2.96,1.28; stroke-dashoffset: 0; stroke: #b0b0b0; stroke-width: 0.8"/>
     </g>
     <g id="line2d_16">
      <defs>
       <path id="m6967e0c99e" d="M 0 0 
L -3.5 0 
" style="stroke: #000000; stroke-width: 0.8"/>
      </defs>
      <g>
       <use xlink:href="#m6967e0c99e" x="54" y="243.636923" style="stroke: #000000; stroke-width: 0.8"/>
      </g>
     </g>
     <g id="text_9">
      <!-- −12 -->
      <g transform="translate(25.895312 247.436142)scale(0.1 -0.1)">
       <defs>
        <path id="DejaVuSans-2212" d="M 678 2272 
L 4684 2272 
L 4684 1741 
L 678 1741 
L 678 2272 
z
" transform="scale(0.015625)"/>
       </defs>
       <use xlink:href="#DejaVuSans-2212"/>
       <use xlink:href="#DejaVuSans-31" x="83.789062"/>
       <use xlink:href="#DejaVuSans-32" x="147.412109"/>
      </g>
     </g>
    </g>
    <g id="ytick_2">
     <g id="line2d_17">
      <path d="M 54 210.184615 
L 388.8 210.184615 
" clip-path="url(#p37569af33c)" style="fill: none; stroke-dasharray: 2.96,1.28; stroke-dashoffset: 0; stroke: #b0b0b0; stroke-width: 0.8"/>
     </g>
     <g id="line2d_18">
      <g>
       <use xlink:href="#m6967e0c99e" x="54" y="210.184615" style="stroke: #000000; stroke-width: 0.8"/>
      </g>
     </g>
     <g id="text_10">
      <!-- −10 -->
      <g transform="translate(25.895312 213.983834)scale(0.1 -0.1)">
       <use xlink:href="#DejaVuSans-2212"/>
       <use xlink:href="#DejaVuSans-31" x="83.789062"/>
       <use xlink:href="#DejaVuSans-30" x="147.412109"/>
      </g>
     </g>
    </g>
    <g id="ytick_3">
     <g id="line2d_19">
      <path d="M 54 176.732308 
L 388.8 176.732308 
" clip-path="url(#p37569af33c)" style="fill: none; stroke-dasharray: 2.96,1.28; stroke-dashoffset: 0; stroke: #b0b0b0; stroke-width: 0.8"/>
     </g>
     <g id="line2d_20">
      <g>
       <use xlink:href="#m6967e0c99e" x="54" y="176.732308" style="stroke: #000000; stroke-width: 0.8"/>
      </g>
     </g>
     <g id="text_11">
      <!-- −8 -->
      <g transform="translate(32.257812 180.531526)scale(0.1 -0.1)">
       <defs>
        <path id="DejaVuSans-38" d="M 2034 2216 
Q 1584 2216 1326 1975 
Q 1069 1734 1069 1313 
Q 1069 891 1326 650 
Q 1584 409 2034 409 
Q 2484 409 2743 651 
Q 3003 894 3003 1313 
Q 3003 1734 2745 1975 
Q 2488 2216 2034 2216 
z
M 1403 2484 
Q 997 2584 770 2862 
Q 544 3141 544 3541 
Q 544 4100 942 4425 
Q 1341 4750 2034 4750 
Q 2731 4750 3128 4425 
Q 3525 4100 3525 3541 
Q 3525 3141 3298 2862 
Q 3072 2584 2669 2484 
Q 3125 2378 3379 2068 
Q 3634 1759 3634 1313 
Q 3634 634 3220 271 
Q 2806 -91 2034 -91 
Q 1263 -91 848 271 
Q 434 634 434 1313 
Q 434 1759 690 2068 
Q 947 2378 1403 2484 
z
M 1172 3481 
Q 1172 3119 1398 2916 
Q 1625 2713 2034 2713 
Q 2441 2713 2670 2916 
Q 2900 3119 2900 3481 
Q 2900 3844 2670 4047 
Q 2441 4250 2034 4250 
Q 1625 4250 1398 4047 
Q 1172 3844 1172 3481 
z
" transform="scale(0.015625)"/>
       </defs>
       <use xlink:href="#DejaVuSans-2212"/>
       <use xlink:href="#DejaVuSans-38" x="83.789062"/>
      </g>
     </g>
    </g>
    <g id="ytick_4">
     <g id="line2d_21">
      <path d="M 54 143.28 
L 388.8 143.28 
" clip-path="url(#p37569af33c)" style="fill: none; stroke-dasharray: 2.96,1.28; stroke-dashoffset: 0; stroke: #b0b0b0; stroke-width: 0.8"/>
     </g>
     <g id="line2d_22">
      <g>
       <use xlink:href="#m6967e0c99e" x="54" y="143.28" style="stroke: #000000; stroke-width: 0.8"/>
      </g>
     </g>
     <g id="text_12">
      <!-- −6 -->
      <g transform="translate(32.257812 147.079219)scale(0.1 -0.1)">
       <defs>
        <path id="DejaVuSans-36" d="M 2113 2584 
Q 1688 2584 1439 2293 
Q 1191 2003 1191 1497 
Q 1191 994 1439 701 
Q 1688 409 2113 409 
Q 2538 409 2786 701 
Q 3034 994 3034 1497 
Q 3034 2003 2786 2293 
Q 2538 2584 2113 2584 
z
M 3366 4563 
L 3366 3988 
Q 3128 4100 2886 4159 
Q 2644 4219 2406 4219 
Q 1781 4219 1451 3797 
Q 1122 3375 1075 2522 
Q 1259 2794 1537 2939 
Q 1816 3084 2150 3084 
Q 2853 3084 3261 2657 
Q 3669 2231 3669 1497 
Q 3669 778 3244 343 
Q 2819 -91 2113 -91 
Q 1303 -91 875 529 
Q 447 1150 447 2328 
Q 447 3434 972 4092 
Q 1497 4750 2381 4750 
Q 2619 4750 2861 4703 
Q 3103 4656 3366 4563 
z
" transform="scale(0.015625)"/>
       </defs>
       <use xlink:href="#DejaVuSans-2212"/>
       <use xlink:href="#DejaVuSans-36" x="83.789062"/>
      </g>
     </g>
    </g>
    <g id="ytick_5">
     <g id="line2d_23">
      <path d="M 54 109.827692 
L 388.8 109.827692 
" clip-path="url(#p37569af33c)" style="fill: none; stroke-dasharray: 2.96,1.28; stroke-dashoffset: 0; stroke: #b0b0b0; stroke-width: 0.8"/>
     </g>
     <g id="line2d_24">
      <g>
       <use xlink:href="#m6967e0c99e" x="54" y="109.827692" style="stroke: #000000; stroke-width: 0.8"/>
      </g>
     </g>
     <g id="text_13">
      <!-- −4 -->
      <g transform="translate(32.257812 113.626911)scale(0.1 -0.1)">
       <defs>
        <path id="DejaVuSans-34" d="M 2419 4116 
L 825 1625 
L 2419 1625 
L 2419 4116 
z
M 2253 4666 
L 3047 4666 
L 3047 1625 
L 3713 1625 
L 3713 1100 
L 3047 1100 
L 3047 0 
L 2419 0 
L 2419 1100 
L 313 1100 
L 313 1709 
L 2253 4666 
z
" transform="scale(0.015625)"/>
       </defs>
       <use xlink:href="#DejaVuSans-2212"/>
       <use xlink:href="#DejaVuSans-34" x="83.789062"/>
      </g>
     </g>
    </g>
    <g id="ytick_6">
     <g id="line2d_25">
      <path d="M 54 76.375385 
L 388.8 76.375385 
" clip-path="url(#p37569af33c)" style="fill: none; stroke-dasharray: 2.96,1.28; stroke-dashoffset: 0; stroke: #b0b0b0; stroke-width: 0.8"/>
     </g>
     <g id="line2d_26">
      <g>
       <use xlink:href="#m6967e0c99e" x="54" y="76.375385" style="stroke: #000000; stroke-width: 0.8"/>
      </g>
     </g>
     <g id="text_14">
      <!-- −2 -->
      <g transform="translate(32.257812 80.174603)scale(0.1 -0.1)">
       <use xlink:href="#DejaVuSans-2212"/>
       <use xlink:href="#DejaVuSans-32" x="83.789062"/>
      </g>
     </g>
    </g>
    <g id="ytick_7">
     <g id="line2d_27">
      <path d="M 54 42.923077 
L 388.8 42.923077 
" clip-path="url(#p37569af33c)" style="fill: none; stroke-dasharray: 2.96,1.28; stroke-dashoffset: 0; stroke: #b0b0b0; stroke-width: 0.8"/>
     </g>
     <g id="line2d_28">
      <g>
       <use xlink:href="#m6967e0c99e" x="54" y="42.923077" style="stroke: #000000; stroke-width: 0.8"/>
      </g>
     </g>
     <g id="text_15">
      <!-- 0 -->
      <g transform="translate(40.6375 46.722296)scale(0.1 -0.1)">
       <use xlink:href="#DejaVuSans-30"/>
      </g>
     </g>
    </g>
    <g id="text_16">
     <!-- Policy value error -->
     <g transform="translate(19.815625 186.597969)rotate(-90)scale(0.1 -0.1)">
      <defs>
       <path id="DejaVuSans-50" d="M 1259 4147 
L 1259 2394 
L 2053 2394 
Q 2494 2394 2734 2622 
Q 2975 2850 2975 3272 
Q 2975 3691 2734 3919 
Q 2494 4147 2053 4147 
L 1259 4147 
z
M 628 4666 
L 2053 4666 
Q 2838 4666 3239 4311 
Q 3641 3956 3641 3272 
Q 3641 2581 3239 2228 
Q 2838 1875 2053 1875 
L 1259 1875 
L 1259 0 
L 628 0 
L 628 4666 
z
" transform="scale(0.015625)"/>
       <path id="DejaVuSans-6f" d="M 1959 3097 
Q 1497 3097 1228 2736 
Q 959 2375 959 1747 
Q 959 1119 1226 758 
Q 1494 397 1959 397 
Q 2419 397 2687 759 
Q 2956 1122 2956 1747 
Q 2956 2369 2687 2733 
Q 2419 3097 1959 3097 
z
M 1959 3584 
Q 2709 3584 3137 3096 
Q 3566 2609 3566 1747 
Q 3566 888 3137 398 
Q 2709 -91 1959 -91 
Q 1206 -91 779 398 
Q 353 888 353 1747 
Q 353 2609 779 3096 
Q 1206 3584 1959 3584 
z
" transform="scale(0.015625)"/>
       <path id="DejaVuSans-6c" d="M 603 4863 
L 1178 4863 
L 1178 0 
L 603 0 
L 603 4863 
z
" transform="scale(0.015625)"/>
       <path id="DejaVuSans-69" d="M 603 3500 
L 1178 3500 
L 1178 0 
L 603 0 
L 603 3500 
z
M 603 4863 
L 1178 4863 
L 1178 4134 
L 603 4134 
L 603 4863 
z
" transform="scale(0.015625)"/>
       <path id="DejaVuSans-63" d="M 3122 3366 
L 3122 2828 
Q 2878 2963 2633 3030 
Q 2388 3097 2138 3097 
Q 1578 3097 1268 2742 
Q 959 2388 959 1747 
Q 959 1106 1268 751 
Q 1578 397 2138 397 
Q 2388 397 2633 464 
Q 2878 531 3122 666 
L 3122 134 
Q 2881 22 2623 -34 
Q 2366 -91 2075 -91 
Q 1284 -91 818 406 
Q 353 903 353 1747 
Q 353 2603 823 3093 
Q 1294 3584 2113 3584 
Q 2378 3584 2631 3529 
Q 2884 3475 3122 3366 
z
" transform="scale(0.015625)"/>
       <path id="DejaVuSans-79" d="M 2059 -325 
Q 1816 -950 1584 -1140 
Q 1353 -1331 966 -1331 
L 506 -1331 
L 506 -850 
L 844 -850 
Q 1081 -850 1212 -737 
Q 1344 -625 1503 -206 
L 1606 56 
L 191 3500 
L 800 3500 
L 1894 763 
L 2988 3500 
L 3597 3500 
L 2059 -325 
z
" transform="scale(0.015625)"/>
       <path id="DejaVuSans-20" transform="scale(0.015625)"/>
       <path id="DejaVuSans-76" d="M 191 3500 
L 800 3500 
L 1894 563 
L 2988 3500 
L 3597 3500 
L 2284 0 
L 1503 0 
L 191 3500 
z
" transform="scale(0.015625)"/>
       <path id="DejaVuSans-61" d="M 2194 1759 
Q 1497 1759 1228 1600 
Q 959 1441 959 1056 
Q 959 750 1161 570 
Q 1363 391 1709 391 
Q 2188 391 2477 730 
Q 2766 1069 2766 1631 
L 2766 1759 
L 2194 1759 
z
M 3341 1997 
L 3341 0 
L 2766 0 
L 2766 531 
Q 2569 213 2275 61 
Q 1981 -91 1556 -91 
Q 1019 -91 701 211 
Q 384 513 384 1019 
Q 384 1609 779 1909 
Q 1175 2209 1959 2209 
L 2766 2209 
L 2766 2266 
Q 2766 2663 2505 2880 
Q 2244 3097 1772 3097 
Q 1472 3097 1187 3025 
Q 903 2953 641 2809 
L 641 3341 
Q 956 3463 1253 3523 
Q 1550 3584 1831 3584 
Q 2591 3584 2966 3190 
Q 3341 2797 3341 1997 
z
" transform="scale(0.015625)"/>
       <path id="DejaVuSans-75" d="M 544 1381 
L 544 3500 
L 1119 3500 
L 1119 1403 
Q 1119 906 1312 657 
Q 1506 409 1894 409 
Q 2359 409 2629 706 
Q 2900 1003 2900 1516 
L 2900 3500 
L 3475 3500 
L 3475 0 
L 2900 0 
L 2900 538 
Q 2691 219 2414 64 
Q 2138 -91 1772 -91 
Q 1169 -91 856 284 
Q 544 659 544 1381 
z
M 1991 3584 
L 1991 3584 
z
" transform="scale(0.015625)"/>
       <path id="DejaVuSans-72" d="M 2631 2963 
Q 2534 3019 2420 3045 
Q 2306 3072 2169 3072 
Q 1681 3072 1420 2755 
Q 1159 2438 1159 1844 
L 1159 0 
L 581 0 
L 581 3500 
L 1159 3500 
L 1159 2956 
Q 1341 3275 1631 3429 
Q 1922 3584 2338 3584 
Q 2397 3584 2469 3576 
Q 2541 3569 2628 3553 
L 2631 2963 
z
" transform="scale(0.015625)"/>
      </defs>
      <use xlink:href="#DejaVuSans-50"/>
      <use xlink:href="#DejaVuSans-6f" x="56.677734"/>
      <use xlink:href="#DejaVuSans-6c" x="117.859375"/>
      <use xlink:href="#DejaVuSans-69" x="145.642578"/>
      <use xlink:href="#DejaVuSans-63" x="173.425781"/>
      <use xlink:href="#DejaVuSans-79" x="228.40625"/>
      <use xlink:href="#DejaVuSans-20" x="287.585938"/>
      <use xlink:href="#DejaVuSans-76" x="319.373047"/>
      <use xlink:href="#DejaVuSans-61" x="378.552734"/>
      <use xlink:href="#DejaVuSans-6c" x="439.832031"/>
      <use xlink:href="#DejaVuSans-75" x="467.615234"/>
      <use xlink:href="#DejaVuSans-65" x="530.994141"/>
      <use xlink:href="#DejaVuSans-20" x="592.517578"/>
      <use xlink:href="#DejaVuSans-65" x="624.304688"/>
      <use xlink:href="#DejaVuSans-72" x="685.828125"/>
      <use xlink:href="#DejaVuSans-72" x="725.191406"/>
      <use xlink:href="#DejaVuSans-6f" x="764.054688"/>
      <use xlink:href="#DejaVuSans-72" x="825.236328"/>
     </g>
    </g>
   </g>
   <g id="line2d_29">
    <path d="M 69.218182 254.759641 
L 74.376888 252.908818 
L 79.535593 252.969034 
L 84.694299 253.620169 
L 89.853005 248.608071 
L 95.01171 252.908818 
L 100.170416 252.908818 
L 105.329122 258.353922 
L 110.487827 254.993461 
L 115.646533 255.388576 
L 120.805239 253.280212 
L 125.963945 263.653692 
L 131.12265 260.814287 
L 136.281356 269.766923 
L 141.440062 256.471256 
L 146.598767 256.996987 
L 151.757473 257.61311 
L 156.916179 253.325722 
L 162.074884 250.658052 
L 167.23359 255.499205 
L 172.392296 254.787551 
L 177.551002 248.798515 
L 182.709707 243.214209 
L 187.868413 257.311883 
L 193.027119 254.184958 
L 198.185824 254.480977 
L 203.34453 232.936009 
L 208.503236 247.39725 
L 213.661941 202.117329 
L 218.820647 251.063146 
L 223.979353 120.847748 
L 229.138059 230.478439 
L 234.296764 253.370847 
L 239.45547 143.839811 
L 244.614176 168.624753 
L 249.772881 146.705134 
L 254.931587 229.411541 
L 260.090293 101.965375 
L 265.248998 111.441825 
L 270.407704 65.175038 
L 275.56641 63.204856 
L 280.725116 53.72199 
L 285.883821 57.828327 
L 291.042527 63.716783 
L 296.201233 53.939251 
L 301.359938 53.297806 
L 306.518644 48.250256 
L 311.67735 48.250256 
L 316.836055 48.250256 
L 321.994761 48.250256 
L 327.153467 48.250256 
L 332.312173 48.250256 
L 337.470878 48.250256 
L 342.629584 48.250256 
L 347.78829 48.250256 
L 352.946995 54.053431 
L 358.105701 54.053431 
L 363.264407 54.053431 
L 368.423112 54.053431 
L 373.581818 54.053431 
" clip-path="url(#p37569af33c)" style="fill: none; stroke: #9d02d7; stroke-width: 1.5; stroke-linecap: square"/>
    <defs>
     <path id="mfb04b4e881" d="M 0 -2 
L -2 2 
L 2 2 
z
" style="stroke: #9d02d7; stroke-linejoin: miter"/>
    </defs>
    <g clip-path="url(#p37569af33c)">
     <use xlink:href="#mfb04b4e881" x="69.218182" y="254.759641" style="fill: #9d02d7; stroke: #9d02d7; stroke-linejoin: miter"/>
     <use xlink:href="#mfb04b4e881" x="74.376888" y="252.908818" style="fill: #9d02d7; stroke: #9d02d7; stroke-linejoin: miter"/>
     <use xlink:href="#mfb04b4e881" x="79.535593" y="252.969034" style="fill: #9d02d7; stroke: #9d02d7; stroke-linejoin: miter"/>
     <use xlink:href="#mfb04b4e881" x="84.694299" y="253.620169" style="fill: #9d02d7; stroke: #9d02d7; stroke-linejoin: miter"/>
     <use xlink:href="#mfb04b4e881" x="89.853005" y="248.608071" style="fill: #9d02d7; stroke: #9d02d7; stroke-linejoin: miter"/>
     <use xlink:href="#mfb04b4e881" x="95.01171" y="252.908818" style="fill: #9d02d7; stroke: #9d02d7; stroke-linejoin: miter"/>
     <use xlink:href="#mfb04b4e881" x="100.170416" y="252.908818" style="fill: #9d02d7; stroke: #9d02d7; stroke-linejoin: miter"/>
     <use xlink:href="#mfb04b4e881" x="105.329122" y="258.353922" style="fill: #9d02d7; stroke: #9d02d7; stroke-linejoin: miter"/>
     <use xlink:href="#mfb04b4e881" x="110.487827" y="254.993461" style="fill: #9d02d7; stroke: #9d02d7; stroke-linejoin: miter"/>
     <use xlink:href="#mfb04b4e881" x="115.646533" y="255.388576" style="fill: #9d02d7; stroke: #9d02d7; stroke-linejoin: miter"/>
     <use xlink:href="#mfb04b4e881" x="120.805239" y="253.280212" style="fill: #9d02d7; stroke: #9d02d7; stroke-linejoin: miter"/>
     <use xlink:href="#mfb04b4e881" x="125.963945" y="263.653692" style="fill: #9d02d7; stroke: #9d02d7; stroke-linejoin: miter"/>
     <use xlink:href="#mfb04b4e881" x="131.12265" y="260.814287" style="fill: #9d02d7; stroke: #9d02d7; stroke-linejoin: miter"/>
     <use xlink:href="#mfb04b4e881" x="136.281356" y="269.766923" style="fill: #9d02d7; stroke: #9d02d7; stroke-linejoin: miter"/>
     <use xlink:href="#mfb04b4e881" x="141.440062" y="256.471256" style="fill: #9d02d7; stroke: #9d02d7; stroke-linejoin: miter"/>
     <use xlink:href="#mfb04b4e881" x="146.598767" y="256.996987" style="fill: #9d02d7; stroke: #9d02d7; stroke-linejoin: miter"/>
     <use xlink:href="#mfb04b4e881" x="151.757473" y="257.61311" style="fill: #9d02d7; stroke: #9d02d7; stroke-linejoin: miter"/>
     <use xlink:href="#mfb04b4e881" x="156.916179" y="253.325722" style="fill: #9d02d7; stroke: #9d02d7; stroke-linejoin: miter"/>
     <use xlink:href="#mfb04b4e881" x="162.074884" y="250.658052" style="fill: #9d02d7; stroke: #9d02d7; stroke-linejoin: miter"/>
     <use xlink:href="#mfb04b4e881" x="167.23359" y="255.499205" style="fill: #9d02d7; stroke: #9d02d7; stroke-linejoin: miter"/>
     <use xlink:href="#mfb04b4e881" x="172.392296" y="254.787551" style="fill: #9d02d7; stroke: #9d02d7; stroke-linejoin: miter"/>
     <use xlink:href="#mfb04b4e881" x="177.551002" y="248.798515" style="fill: #9d02d7; stroke: #9d02d7; stroke-linejoin: miter"/>
     <use xlink:href="#mfb04b4e881" x="182.709707" y="243.214209" style="fill: #9d02d7; stroke: #9d02d7; stroke-linejoin: miter"/>
     <use xlink:href="#mfb04b4e881" x="187.868413" y="257.311883" style="fill: #9d02d7; stroke: #9d02d7; stroke-linejoin: miter"/>
     <use xlink:href="#mfb04b4e881" x="193.027119" y="254.184958" style="fill: #9d02d7; stroke: #9d02d7; stroke-linejoin: miter"/>
     <use xlink:href="#mfb04b4e881" x="198.185824" y="254.480977" style="fill: #9d02d7; stroke: #9d02d7; stroke-linejoin: miter"/>
     <use xlink:href="#mfb04b4e881" x="203.34453" y="232.936009" style="fill: #9d02d7; stroke: #9d02d7; stroke-linejoin: miter"/>
     <use xlink:href="#mfb04b4e881" x="208.503236" y="247.39725" style="fill: #9d02d7; stroke: #9d02d7; stroke-linejoin: miter"/>
     <use xlink:href="#mfb04b4e881" x="213.661941" y="202.117329" style="fill: #9d02d7; stroke: #9d02d7; stroke-linejoin: miter"/>
     <use xlink:href="#mfb04b4e881" x="218.820647" y="251.063146" style="fill: #9d02d7; stroke: #9d02d7; stroke-linejoin: miter"/>
     <use xlink:href="#mfb04b4e881" x="223.979353" y="120.847748" style="fill: #9d02d7; stroke: #9d02d7; stroke-linejoin: miter"/>
     <use xlink:href="#mfb04b4e881" x="229.138059" y="230.478439" style="fill: #9d02d7; stroke: #9d02d7; stroke-linejoin: miter"/>
     <use xlink:href="#mfb04b4e881" x="234.296764" y="253.370847" style="fill: #9d02d7; stroke: #9d02d7; stroke-linejoin: miter"/>
     <use xlink:href="#mfb04b4e881" x="239.45547" y="143.839811" style="fill: #9d02d7; stroke: #9d02d7; stroke-linejoin: miter"/>
     <use xlink:href="#mfb04b4e881" x="244.614176" y="168.624753" style="fill: #9d02d7; stroke: #9d02d7; stroke-linejoin: miter"/>
     <use xlink:href="#mfb04b4e881" x="249.772881" y="146.705134" style="fill: #9d02d7; stroke: #9d02d7; stroke-linejoin: miter"/>
     <use xlink:href="#mfb04b4e881" x="254.931587" y="229.411541" style="fill: #9d02d7; stroke: #9d02d7; stroke-linejoin: miter"/>
     <use xlink:href="#mfb04b4e881" x="260.090293" y="101.965375" style="fill: #9d02d7; stroke: #9d02d7; stroke-linejoin: miter"/>
     <use xlink:href="#mfb04b4e881" x="265.248998" y="111.441825" style="fill: #9d02d7; stroke: #9d02d7; stroke-linejoin: miter"/>
     <use xlink:href="#mfb04b4e881" x="270.407704" y="65.175038" style="fill: #9d02d7; stroke: #9d02d7; stroke-linejoin: miter"/>
     <use xlink:href="#mfb04b4e881" x="275.56641" y="63.204856" style="fill: #9d02d7; stroke: #9d02d7; stroke-linejoin: miter"/>
     <use xlink:href="#mfb04b4e881" x="280.725116" y="53.72199" style="fill: #9d02d7; stroke: #9d02d7; stroke-linejoin: miter"/>
     <use xlink:href="#mfb04b4e881" x="285.883821" y="57.828327" style="fill: #9d02d7; stroke: #9d02d7; stroke-linejoin: miter"/>
     <use xlink:href="#mfb04b4e881" x="291.042527" y="63.716783" style="fill: #9d02d7; stroke: #9d02d7; stroke-linejoin: miter"/>
     <use xlink:href="#mfb04b4e881" x="296.201233" y="53.939251" style="fill: #9d02d7; stroke: #9d02d7; stroke-linejoin: miter"/>
     <use xlink:href="#mfb04b4e881" x="301.359938" y="53.297806" style="fill: #9d02d7; stroke: #9d02d7; stroke-linejoin: miter"/>
     <use xlink:href="#mfb04b4e881" x="306.518644" y="48.250256" style="fill: #9d02d7; stroke: #9d02d7; stroke-linejoin: miter"/>
     <use xlink:href="#mfb04b4e881" x="311.67735" y="48.250256" style="fill: #9d02d7; stroke: #9d02d7; stroke-linejoin: miter"/>
     <use xlink:href="#mfb04b4e881" x="316.836055" y="48.250256" style="fill: #9d02d7; stroke: #9d02d7; stroke-linejoin: miter"/>
     <use xlink:href="#mfb04b4e881" x="321.994761" y="48.250256" style="fill: #9d02d7; stroke: #9d02d7; stroke-linejoin: miter"/>
     <use xlink:href="#mfb04b4e881" x="327.153467" y="48.250256" style="fill: #9d02d7; stroke: #9d02d7; stroke-linejoin: miter"/>
     <use xlink:href="#mfb04b4e881" x="332.312173" y="48.250256" style="fill: #9d02d7; stroke: #9d02d7; stroke-linejoin: miter"/>
     <use xlink:href="#mfb04b4e881" x="337.470878" y="48.250256" style="fill: #9d02d7; stroke: #9d02d7; stroke-linejoin: miter"/>
     <use xlink:href="#mfb04b4e881" x="342.629584" y="48.250256" style="fill: #9d02d7; stroke: #9d02d7; stroke-linejoin: miter"/>
     <use xlink:href="#mfb04b4e881" x="347.78829" y="48.250256" style="fill: #9d02d7; stroke: #9d02d7; stroke-linejoin: miter"/>
     <use xlink:href="#mfb04b4e881" x="352.946995" y="54.053431" style="fill: #9d02d7; stroke: #9d02d7; stroke-linejoin: miter"/>
     <use xlink:href="#mfb04b4e881" x="358.105701" y="54.053431" style="fill: #9d02d7; stroke: #9d02d7; stroke-linejoin: miter"/>
     <use xlink:href="#mfb04b4e881" x="363.264407" y="54.053431" style="fill: #9d02d7; stroke: #9d02d7; stroke-linejoin: miter"/>
     <use xlink:href="#mfb04b4e881" x="368.423112" y="54.053431" style="fill: #9d02d7; stroke: #9d02d7; stroke-linejoin: miter"/>
     <use xlink:href="#mfb04b4e881" x="373.581818" y="54.053431" style="fill: #9d02d7; stroke: #9d02d7; stroke-linejoin: miter"/>
    </g>
   </g>
   <g id="line2d_30">
    <path d="M 69.218182 252.931308 
L 74.376888 252.233413 
L 79.535593 258.85945 
L 84.694299 253.566369 
L 89.853005 251.228213 
L 95.01171 257.847108 
L 100.170416 255.853703 
L 105.329122 254.013926 
L 110.487827 254.712926 
L 115.646533 255.966878 
L 120.805239 253.663528 
L 125.963945 259.932051 
L 131.12265 256.999509 
L 136.281356 273.555552 
L 141.440062 255.44369 
L 146.598767 257.430018 
L 151.757473 252.301628 
L 156.916179 255.383573 
L 162.074884 249.808421 
L 167.23359 254.506772 
L 172.392296 273.925019 
L 177.551002 269.452002 
L 182.709707 258.803191 
L 187.868413 255.679325 
L 193.027119 256.202581 
L 198.185824 261.815835 
L 203.34453 122.135986 
L 208.503236 261.739198 
L 213.661941 246.505069 
L 218.820647 237.75122 
L 223.979353 248.746189 
L 229.138059 255.139809 
L 234.296764 256.278367 
L 239.45547 256.781958 
L 244.614176 256.513106 
L 249.772881 260.31755 
L 254.931587 256.959232 
L 260.090293 240.289957 
L 265.248998 97.997035 
L 270.407704 138.770552 
L 275.56641 126.973793 
L 280.725116 89.261292 
L 285.883821 89.261292 
L 291.042527 110.829828 
L 296.201233 111.241223 
L 301.359938 110.405724 
L 306.518644 86.787399 
L 311.67735 80.610591 
L 316.836055 129.181225 
L 321.994761 58.816195 
L 327.153467 121.523632 
L 332.312173 118.183609 
L 337.470878 62.90417 
L 342.629584 59.776654 
L 347.78829 62.90417 
L 352.946995 62.90417 
L 358.105701 62.90417 
L 363.264407 59.776653 
L 368.423112 62.90417 
L 373.581818 58.150538 
" clip-path="url(#p37569af33c)" style="fill: none; stroke: #0000ff; stroke-width: 1.5; stroke-linecap: square"/>
    <defs>
     <path id="macd02c562f" d="M 0 2 
C 0.530406 2 1.03916 1.789267 1.414214 1.414214 
C 1.789267 1.03916 2 0.530406 2 0 
C 2 -0.530406 1.789267 -1.03916 1.414214 -1.414214 
C 1.03916 -1.789267 0.530406 -2 0 -2 
C -0.530406 -2 -1.03916 -1.789267 -1.414214 -1.414214 
C -1.789267 -1.03916 -2 -0.530406 -2 0 
C -2 0.530406 -1.789267 1.03916 -1.414214 1.414214 
C -1.03916 1.789267 -0.530406 2 0 2 
z
" style="stroke: #0000ff"/>
    </defs>
    <g clip-path="url(#p37569af33c)">
     <use xlink:href="#macd02c562f" x="69.218182" y="252.931308" style="fill: #0000ff; stroke: #0000ff"/>
     <use xlink:href="#macd02c562f" x="74.376888" y="252.233413" style="fill: #0000ff; stroke: #0000ff"/>
     <use xlink:href="#macd02c562f" x="79.535593" y="258.85945" style="fill: #0000ff; stroke: #0000ff"/>
     <use xlink:href="#macd02c562f" x="84.694299" y="253.566369" style="fill: #0000ff; stroke: #0000ff"/>
     <use xlink:href="#macd02c562f" x="89.853005" y="251.228213" style="fill: #0000ff; stroke: #0000ff"/>
     <use xlink:href="#macd02c562f" x="95.01171" y="257.847108" style="fill: #0000ff; stroke: #0000ff"/>
     <use xlink:href="#macd02c562f" x="100.170416" y="255.853703" style="fill: #0000ff; stroke: #0000ff"/>
     <use xlink:href="#macd02c562f" x="105.329122" y="254.013926" style="fill: #0000ff; stroke: #0000ff"/>
     <use xlink:href="#macd02c562f" x="110.487827" y="254.712926" style="fill: #0000ff; stroke: #0000ff"/>
     <use xlink:href="#macd02c562f" x="115.646533" y="255.966878" style="fill: #0000ff; stroke: #0000ff"/>
     <use xlink:href="#macd02c562f" x="120.805239" y="253.663528" style="fill: #0000ff; stroke: #0000ff"/>
     <use xlink:href="#macd02c562f" x="125.963945" y="259.932051" style="fill: #0000ff; stroke: #0000ff"/>
     <use xlink:href="#macd02c562f" x="131.12265" y="256.999509" style="fill: #0000ff; stroke: #0000ff"/>
     <use xlink:href="#macd02c562f" x="136.281356" y="273.555552" style="fill: #0000ff; stroke: #0000ff"/>
     <use xlink:href="#macd02c562f" x="141.440062" y="255.44369" style="fill: #0000ff; stroke: #0000ff"/>
     <use xlink:href="#macd02c562f" x="146.598767" y="257.430018" style="fill: #0000ff; stroke: #0000ff"/>
     <use xlink:href="#macd02c562f" x="151.757473" y="252.301628" style="fill: #0000ff; stroke: #0000ff"/>
     <use xlink:href="#macd02c562f" x="156.916179" y="255.383573" style="fill: #0000ff; stroke: #0000ff"/>
     <use xlink:href="#macd02c562f" x="162.074884" y="249.808421" style="fill: #0000ff; stroke: #0000ff"/>
     <use xlink:href="#macd02c562f" x="167.23359" y="254.506772" style="fill: #0000ff; stroke: #0000ff"/>
     <use xlink:href="#macd02c562f" x="172.392296" y="273.925019" style="fill: #0000ff; stroke: #0000ff"/>
     <use xlink:href="#macd02c562f" x="177.551002" y="269.452002" style="fill: #0000ff; stroke: #0000ff"/>
     <use xlink:href="#macd02c562f" x="182.709707" y="258.803191" style="fill: #0000ff; stroke: #0000ff"/>
     <use xlink:href="#macd02c562f" x="187.868413" y="255.679325" style="fill: #0000ff; stroke: #0000ff"/>
     <use xlink:href="#macd02c562f" x="193.027119" y="256.202581" style="fill: #0000ff; stroke: #0000ff"/>
     <use xlink:href="#macd02c562f" x="198.185824" y="261.815835" style="fill: #0000ff; stroke: #0000ff"/>
     <use xlink:href="#macd02c562f" x="203.34453" y="122.135986" style="fill: #0000ff; stroke: #0000ff"/>
     <use xlink:href="#macd02c562f" x="208.503236" y="261.739198" style="fill: #0000ff; stroke: #0000ff"/>
     <use xlink:href="#macd02c562f" x="213.661941" y="246.505069" style="fill: #0000ff; stroke: #0000ff"/>
     <use xlink:href="#macd02c562f" x="218.820647" y="237.75122" style="fill: #0000ff; stroke: #0000ff"/>
     <use xlink:href="#macd02c562f" x="223.979353" y="248.746189" style="fill: #0000ff; stroke: #0000ff"/>
     <use xlink:href="#macd02c562f" x="229.138059" y="255.139809" style="fill: #0000ff; stroke: #0000ff"/>
     <use xlink:href="#macd02c562f" x="234.296764" y="256.278367" style="fill: #0000ff; stroke: #0000ff"/>
     <use xlink:href="#macd02c562f" x="239.45547" y="256.781958" style="fill: #0000ff; stroke: #0000ff"/>
     <use xlink:href="#macd02c562f" x="244.614176" y="256.513106" style="fill: #0000ff; stroke: #0000ff"/>
     <use xlink:href="#macd02c562f" x="249.772881" y="260.31755" style="fill: #0000ff; stroke: #0000ff"/>
     <use xlink:href="#macd02c562f" x="254.931587" y="256.959232" style="fill: #0000ff; stroke: #0000ff"/>
     <use xlink:href="#macd02c562f" x="260.090293" y="240.289957" style="fill: #0000ff; stroke: #0000ff"/>
     <use xlink:href="#macd02c562f" x="265.248998" y="97.997035" style="fill: #0000ff; stroke: #0000ff"/>
     <use xlink:href="#macd02c562f" x="270.407704" y="138.770552" style="fill: #0000ff; stroke: #0000ff"/>
     <use xlink:href="#macd02c562f" x="275.56641" y="126.973793" style="fill: #0000ff; stroke: #0000ff"/>
     <use xlink:href="#macd02c562f" x="280.725116" y="89.261292" style="fill: #0000ff; stroke: #0000ff"/>
     <use xlink:href="#macd02c562f" x="285.883821" y="89.261292" style="fill: #0000ff; stroke: #0000ff"/>
     <use xlink:href="#macd02c562f" x="291.042527" y="110.829828" style="fill: #0000ff; stroke: #0000ff"/>
     <use xlink:href="#macd02c562f" x="296.201233" y="111.241223" style="fill: #0000ff; stroke: #0000ff"/>
     <use xlink:href="#macd02c562f" x="301.359938" y="110.405724" style="fill: #0000ff; stroke: #0000ff"/>
     <use xlink:href="#macd02c562f" x="306.518644" y="86.787399" style="fill: #0000ff; stroke: #0000ff"/>
     <use xlink:href="#macd02c562f" x="311.67735" y="80.610591" style="fill: #0000ff; stroke: #0000ff"/>
     <use xlink:href="#macd02c562f" x="316.836055" y="129.181225" style="fill: #0000ff; stroke: #0000ff"/>
     <use xlink:href="#macd02c562f" x="321.994761" y="58.816195" style="fill: #0000ff; stroke: #0000ff"/>
     <use xlink:href="#macd02c562f" x="327.153467" y="121.523632" style="fill: #0000ff; stroke: #0000ff"/>
     <use xlink:href="#macd02c562f" x="332.312173" y="118.183609" style="fill: #0000ff; stroke: #0000ff"/>
     <use xlink:href="#macd02c562f" x="337.470878" y="62.90417" style="fill: #0000ff; stroke: #0000ff"/>
     <use xlink:href="#macd02c562f" x="342.629584" y="59.776654" style="fill: #0000ff; stroke: #0000ff"/>
     <use xlink:href="#macd02c562f" x="347.78829" y="62.90417" style="fill: #0000ff; stroke: #0000ff"/>
     <use xlink:href="#macd02c562f" x="352.946995" y="62.90417" style="fill: #0000ff; stroke: #0000ff"/>
     <use xlink:href="#macd02c562f" x="358.105701" y="62.90417" style="fill: #0000ff; stroke: #0000ff"/>
     <use xlink:href="#macd02c562f" x="363.264407" y="59.776653" style="fill: #0000ff; stroke: #0000ff"/>
     <use xlink:href="#macd02c562f" x="368.423112" y="62.90417" style="fill: #0000ff; stroke: #0000ff"/>
     <use xlink:href="#macd02c562f" x="373.581818" y="58.150538" style="fill: #0000ff; stroke: #0000ff"/>
    </g>
   </g>
   <g id="line2d_31">
    <path d="M 69.218182 252.908818 
L 74.376888 245.600537 
L 79.535593 255.18249 
L 84.694299 253.635083 
L 89.853005 251.194524 
L 95.01171 252.908818 
L 100.170416 254.975402 
L 105.329122 252.908818 
L 110.487827 253.472644 
L 115.646533 252.985821 
L 120.805239 252.934113 
L 125.963945 256.236427 
L 131.12265 252.908818 
L 136.281356 254.168762 
L 141.440062 253.814303 
L 146.598767 252.922646 
L 151.757473 253.103304 
L 156.916179 254.247013 
L 162.074884 252.908818 
L 167.23359 264.063627 
L 172.392296 262.806301 
L 177.551002 252.908818 
L 182.709707 252.908818 
L 187.868413 255.715568 
L 193.027119 253.798028 
L 198.185824 254.046734 
L 203.34453 253.959271 
L 208.503236 253.618067 
L 213.661941 254.383689 
L 218.820647 258.253382 
L 223.979353 247.591308 
L 229.138059 253.126724 
L 234.296764 253.242929 
L 239.45547 257.532339 
L 244.614176 254.407233 
L 249.772881 253.58782 
L 254.931587 253.483556 
L 260.090293 229.967166 
L 265.248998 256.016218 
L 270.407704 256.120961 
L 275.56641 253.399966 
L 280.725116 255.766534 
L 285.883821 259.526732 
L 291.042527 258.165731 
L 296.201233 253.431211 
L 301.359938 254.613948 
L 306.518644 253.272694 
L 311.67735 259.931009 
L 316.836055 252.118725 
L 321.994761 255.620915 
L 327.153467 253.383228 
L 332.312173 255.129518 
L 337.470878 254.329436 
L 342.629584 253.196077 
L 347.78829 255.599578 
L 352.946995 262.937288 
L 358.105701 253.279679 
L 363.264407 257.338864 
L 368.423112 253.34482 
L 373.581818 253.865881 
" clip-path="url(#p37569af33c)" style="fill: none; stroke: #ff7763; stroke-width: 1.5; stroke-linecap: square"/>
    <defs>
     <path id="m0ad2af0dbf" d="M -2 2 
L 2 -2 
M -2 -2 
L 2 2 
" style="stroke: #ff7763"/>
    </defs>
    <g clip-path="url(#p37569af33c)">
     <use xlink:href="#m0ad2af0dbf" x="69.218182" y="252.908818" style="fill: #ff7763; stroke: #ff7763"/>
     <use xlink:href="#m0ad2af0dbf" x="74.376888" y="245.600537" style="fill: #ff7763; stroke: #ff7763"/>
     <use xlink:href="#m0ad2af0dbf" x="79.535593" y="255.18249" style="fill: #ff7763; stroke: #ff7763"/>
     <use xlink:href="#m0ad2af0dbf" x="84.694299" y="253.635083" style="fill: #ff7763; stroke: #ff7763"/>
     <use xlink:href="#m0ad2af0dbf" x="89.853005" y="251.194524" style="fill: #ff7763; stroke: #ff7763"/>
     <use xlink:href="#m0ad2af0dbf" x="95.01171" y="252.908818" style="fill: #ff7763; stroke: #ff7763"/>
     <use xlink:href="#m0ad2af0dbf" x="100.170416" y="254.975402" style="fill: #ff7763; stroke: #ff7763"/>
     <use xlink:href="#m0ad2af0dbf" x="105.329122" y="252.908818" style="fill: #ff7763; stroke: #ff7763"/>
     <use xlink:href="#m0ad2af0dbf" x="110.487827" y="253.472644" style="fill: #ff7763; stroke: #ff7763"/>
     <use xlink:href="#m0ad2af0dbf" x="115.646533" y="252.985821" style="fill: #ff7763; stroke: #ff7763"/>
     <use xlink:href="#m0ad2af0dbf" x="120.805239" y="252.934113" style="fill: #ff7763; stroke: #ff7763"/>
     <use xlink:href="#m0ad2af0dbf" x="125.963945" y="256.236427" style="fill: #ff7763; stroke: #ff7763"/>
     <use xlink:href="#m0ad2af0dbf" x="131.12265" y="252.908818" style="fill: #ff7763; stroke: #ff7763"/>
     <use xlink:href="#m0ad2af0dbf" x="136.281356" y="254.168762" style="fill: #ff7763; stroke: #ff7763"/>
     <use xlink:href="#m0ad2af0dbf" x="141.440062" y="253.814303" style="fill: #ff7763; stroke: #ff7763"/>
     <use xlink:href="#m0ad2af0dbf" x="146.598767" y="252.922646" style="fill: #ff7763; stroke: #ff7763"/>
     <use xlink:href="#m0ad2af0dbf" x="151.757473" y="253.103304" style="fill: #ff7763; stroke: #ff7763"/>
     <use xlink:href="#m0ad2af0dbf" x="156.916179" y="254.247013" style="fill: #ff7763; stroke: #ff7763"/>
     <use xlink:href="#m0ad2af0dbf" x="162.074884" y="252.908818" style="fill: #ff7763; stroke: #ff7763"/>
     <use xlink:href="#m0ad2af0dbf" x="167.23359" y="264.063627" style="fill: #ff7763; stroke: #ff7763"/>
     <use xlink:href="#m0ad2af0dbf" x="172.392296" y="262.806301" style="fill: #ff7763; stroke: #ff7763"/>
     <use xlink:href="#m0ad2af0dbf" x="177.551002" y="252.908818" style="fill: #ff7763; stroke: #ff7763"/>
     <use xlink:href="#m0ad2af0dbf" x="182.709707" y="252.908818" style="fill: #ff7763; stroke: #ff7763"/>
     <use xlink:href="#m0ad2af0dbf" x="187.868413" y="255.715568" style="fill: #ff7763; stroke: #ff7763"/>
     <use xlink:href="#m0ad2af0dbf" x="193.027119" y="253.798028" style="fill: #ff7763; stroke: #ff7763"/>
     <use xlink:href="#m0ad2af0dbf" x="198.185824" y="254.046734" style="fill: #ff7763; stroke: #ff7763"/>
     <use xlink:href="#m0ad2af0dbf" x="203.34453" y="253.959271" style="fill: #ff7763; stroke: #ff7763"/>
     <use xlink:href="#m0ad2af0dbf" x="208.503236" y="253.618067" style="fill: #ff7763; stroke: #ff7763"/>
     <use xlink:href="#m0ad2af0dbf" x="213.661941" y="254.383689" style="fill: #ff7763; stroke: #ff7763"/>
     <use xlink:href="#m0ad2af0dbf" x="218.820647" y="258.253382" style="fill: #ff7763; stroke: #ff7763"/>
     <use xlink:href="#m0ad2af0dbf" x="223.979353" y="247.591308" style="fill: #ff7763; stroke: #ff7763"/>
     <use xlink:href="#m0ad2af0dbf" x="229.138059" y="253.126724" style="fill: #ff7763; stroke: #ff7763"/>
     <use xlink:href="#m0ad2af0dbf" x="234.296764" y="253.242929" style="fill: #ff7763; stroke: #ff7763"/>
     <use xlink:href="#m0ad2af0dbf" x="239.45547" y="257.532339" style="fill: #ff7763; stroke: #ff7763"/>
     <use xlink:href="#m0ad2af0dbf" x="244.614176" y="254.407233" style="fill: #ff7763; stroke: #ff7763"/>
     <use xlink:href="#m0ad2af0dbf" x="249.772881" y="253.58782" style="fill: #ff7763; stroke: #ff7763"/>
     <use xlink:href="#m0ad2af0dbf" x="254.931587" y="253.483556" style="fill: #ff7763; stroke: #ff7763"/>
     <use xlink:href="#m0ad2af0dbf" x="260.090293" y="229.967166" style="fill: #ff7763; stroke: #ff7763"/>
     <use xlink:href="#m0ad2af0dbf" x="265.248998" y="256.016218" style="fill: #ff7763; stroke: #ff7763"/>
     <use xlink:href="#m0ad2af0dbf" x="270.407704" y="256.120961" style="fill: #ff7763; stroke: #ff7763"/>
     <use xlink:href="#m0ad2af0dbf" x="275.56641" y="253.399966" style="fill: #ff7763; stroke: #ff7763"/>
     <use xlink:href="#m0ad2af0dbf" x="280.725116" y="255.766534" style="fill: #ff7763; stroke: #ff7763"/>
     <use xlink:href="#m0ad2af0dbf" x="285.883821" y="259.526732" style="fill: #ff7763; stroke: #ff7763"/>
     <use xlink:href="#m0ad2af0dbf" x="291.042527" y="258.165731" style="fill: #ff7763; stroke: #ff7763"/>
     <use xlink:href="#m0ad2af0dbf" x="296.201233" y="253.431211" style="fill: #ff7763; stroke: #ff7763"/>
     <use xlink:href="#m0ad2af0dbf" x="301.359938" y="254.613948" style="fill: #ff7763; stroke: #ff7763"/>
     <use xlink:href="#m0ad2af0dbf" x="306.518644" y="253.272694" style="fill: #ff7763; stroke: #ff7763"/>
     <use xlink:href="#m0ad2af0dbf" x="311.67735" y="259.931009" style="fill: #ff7763; stroke: #ff7763"/>
     <use xlink:href="#m0ad2af0dbf" x="316.836055" y="252.118725" style="fill: #ff7763; stroke: #ff7763"/>
     <use xlink:href="#m0ad2af0dbf" x="321.994761" y="255.620915" style="fill: #ff7763; stroke: #ff7763"/>
     <use xlink:href="#m0ad2af0dbf" x="327.153467" y="253.383228" style="fill: #ff7763; stroke: #ff7763"/>
     <use xlink:href="#m0ad2af0dbf" x="332.312173" y="255.129518" style="fill: #ff7763; stroke: #ff7763"/>
     <use xlink:href="#m0ad2af0dbf" x="337.470878" y="254.329436" style="fill: #ff7763; stroke: #ff7763"/>
     <use xlink:href="#m0ad2af0dbf" x="342.629584" y="253.196077" style="fill: #ff7763; stroke: #ff7763"/>
     <use xlink:href="#m0ad2af0dbf" x="347.78829" y="255.599578" style="fill: #ff7763; stroke: #ff7763"/>
     <use xlink:href="#m0ad2af0dbf" x="352.946995" y="262.937288" style="fill: #ff7763; stroke: #ff7763"/>
     <use xlink:href="#m0ad2af0dbf" x="358.105701" y="253.279679" style="fill: #ff7763; stroke: #ff7763"/>
     <use xlink:href="#m0ad2af0dbf" x="363.264407" y="257.338864" style="fill: #ff7763; stroke: #ff7763"/>
     <use xlink:href="#m0ad2af0dbf" x="368.423112" y="253.34482" style="fill: #ff7763; stroke: #ff7763"/>
     <use xlink:href="#m0ad2af0dbf" x="373.581818" y="253.865881" style="fill: #ff7763; stroke: #ff7763"/>
    </g>
   </g>
   <g id="line2d_32">
    <path d="M 69.218182 254.658002 
L 74.376888 252.001336 
L 79.535593 252.908818 
L 84.694299 262.417944 
L 89.853005 252.959406 
L 95.01171 261.490303 
L 100.170416 254.293712 
L 105.329122 252.945689 
L 110.487827 252.972731 
L 115.646533 266.971409 
L 120.805239 252.908818 
L 125.963945 256.79798 
L 131.12265 253.191558 
L 136.281356 257.95405 
L 141.440062 254.118904 
L 146.598767 252.908818 
L 151.757473 254.972878 
L 156.916179 252.926388 
L 162.074884 256.695016 
L 167.23359 253.372714 
L 172.392296 243.237819 
L 177.551002 252.908818 
L 182.709707 255.088199 
L 187.868413 252.92603 
L 193.027119 252.908818 
L 198.185824 258.028611 
L 203.34453 253.951557 
L 208.503236 252.908818 
L 213.661941 252.908818 
L 218.820647 253.48324 
L 223.979353 260.195778 
L 229.138059 252.933856 
L 234.296764 253.274014 
L 239.45547 236.503525 
L 244.614176 257.692194 
L 249.772881 252.908818 
L 254.931587 257.316405 
L 260.090293 252.921013 
L 265.248998 253.40905 
L 270.407704 250.62312 
L 275.56641 252.93708 
L 280.725116 256.364286 
L 285.883821 252.908818 
L 291.042527 253.083373 
L 296.201233 253.003819 
L 301.359938 253.73406 
L 306.518644 252.996502 
L 311.67735 252.908818 
L 316.836055 259.549811 
L 321.994761 253.09414 
L 327.153467 270.722204 
L 332.312173 252.924793 
L 337.470878 274.200468 
L 342.629584 256.844485 
L 347.78829 252.962427 
L 352.946995 264.581194 
L 358.105701 253.060537 
L 363.264407 253.015219 
L 368.423112 255.247562 
L 373.581818 254.522222 
" clip-path="url(#p37569af33c)" style="fill: none; stroke: #ffac1e; stroke-width: 1.5; stroke-linecap: square"/>
    <defs>
     <path id="m904c086cea" d="M 0 -2 
L -0.449028 -0.618034 
L -1.902113 -0.618034 
L -0.726543 0.236068 
L -1.175571 1.618034 
L -0 0.763932 
L 1.175571 1.618034 
L 0.726543 0.236068 
L 1.902113 -0.618034 
L 0.449028 -0.618034 
z
" style="stroke: #ffac1e; stroke-linejoin: bevel"/>
    </defs>
    <g clip-path="url(#p37569af33c)">
     <use xlink:href="#m904c086cea" x="69.218182" y="254.658002" style="fill: #ffac1e; stroke: #ffac1e; stroke-linejoin: bevel"/>
     <use xlink:href="#m904c086cea" x="74.376888" y="252.001336" style="fill: #ffac1e; stroke: #ffac1e; stroke-linejoin: bevel"/>
     <use xlink:href="#m904c086cea" x="79.535593" y="252.908818" style="fill: #ffac1e; stroke: #ffac1e; stroke-linejoin: bevel"/>
     <use xlink:href="#m904c086cea" x="84.694299" y="262.417944" style="fill: #ffac1e; stroke: #ffac1e; stroke-linejoin: bevel"/>
     <use xlink:href="#m904c086cea" x="89.853005" y="252.959406" style="fill: #ffac1e; stroke: #ffac1e; stroke-linejoin: bevel"/>
     <use xlink:href="#m904c086cea" x="95.01171" y="261.490303" style="fill: #ffac1e; stroke: #ffac1e; stroke-linejoin: bevel"/>
     <use xlink:href="#m904c086cea" x="100.170416" y="254.293712" style="fill: #ffac1e; stroke: #ffac1e; stroke-linejoin: bevel"/>
     <use xlink:href="#m904c086cea" x="105.329122" y="252.945689" style="fill: #ffac1e; stroke: #ffac1e; stroke-linejoin: bevel"/>
     <use xlink:href="#m904c086cea" x="110.487827" y="252.972731" style="fill: #ffac1e; stroke: #ffac1e; stroke-linejoin: bevel"/>
     <use xlink:href="#m904c086cea" x="115.646533" y="266.971409" style="fill: #ffac1e; stroke: #ffac1e; stroke-linejoin: bevel"/>
     <use xlink:href="#m904c086cea" x="120.805239" y="252.908818" style="fill: #ffac1e; stroke: #ffac1e; stroke-linejoin: bevel"/>
     <use xlink:href="#m904c086cea" x="125.963945" y="256.79798" style="fill: #ffac1e; stroke: #ffac1e; stroke-linejoin: bevel"/>
     <use xlink:href="#m904c086cea" x="131.12265" y="253.191558" style="fill: #ffac1e; stroke: #ffac1e; stroke-linejoin: bevel"/>
     <use xlink:href="#m904c086cea" x="136.281356" y="257.95405" style="fill: #ffac1e; stroke: #ffac1e; stroke-linejoin: bevel"/>
     <use xlink:href="#m904c086cea" x="141.440062" y="254.118904" style="fill: #ffac1e; stroke: #ffac1e; stroke-linejoin: bevel"/>
     <use xlink:href="#m904c086cea" x="146.598767" y="252.908818" style="fill: #ffac1e; stroke: #ffac1e; stroke-linejoin: bevel"/>
     <use xlink:href="#m904c086cea" x="151.757473" y="254.972878" style="fill: #ffac1e; stroke: #ffac1e; stroke-linejoin: bevel"/>
     <use xlink:href="#m904c086cea" x="156.916179" y="252.926388" style="fill: #ffac1e; stroke: #ffac1e; stroke-linejoin: bevel"/>
     <use xlink:href="#m904c086cea" x="162.074884" y="256.695016" style="fill: #ffac1e; stroke: #ffac1e; stroke-linejoin: bevel"/>
     <use xlink:href="#m904c086cea" x="167.23359" y="253.372714" style="fill: #ffac1e; stroke: #ffac1e; stroke-linejoin: bevel"/>
     <use xlink:href="#m904c086cea" x="172.392296" y="243.237819" style="fill: #ffac1e; stroke: #ffac1e; stroke-linejoin: bevel"/>
     <use xlink:href="#m904c086cea" x="177.551002" y="252.908818" style="fill: #ffac1e; stroke: #ffac1e; stroke-linejoin: bevel"/>
     <use xlink:href="#m904c086cea" x="182.709707" y="255.088199" style="fill: #ffac1e; stroke: #ffac1e; stroke-linejoin: bevel"/>
     <use xlink:href="#m904c086cea" x="187.868413" y="252.92603" style="fill: #ffac1e; stroke: #ffac1e; stroke-linejoin: bevel"/>
     <use xlink:href="#m904c086cea" x="193.027119" y="252.908818" style="fill: #ffac1e; stroke: #ffac1e; stroke-linejoin: bevel"/>
     <use xlink:href="#m904c086cea" x="198.185824" y="258.028611" style="fill: #ffac1e; stroke: #ffac1e; stroke-linejoin: bevel"/>
     <use xlink:href="#m904c086cea" x="203.34453" y="253.951557" style="fill: #ffac1e; stroke: #ffac1e; stroke-linejoin: bevel"/>
     <use xlink:href="#m904c086cea" x="208.503236" y="252.908818" style="fill: #ffac1e; stroke: #ffac1e; stroke-linejoin: bevel"/>
     <use xlink:href="#m904c086cea" x="213.661941" y="252.908818" style="fill: #ffac1e; stroke: #ffac1e; stroke-linejoin: bevel"/>
     <use xlink:href="#m904c086cea" x="218.820647" y="253.48324" style="fill: #ffac1e; stroke: #ffac1e; stroke-linejoin: bevel"/>
     <use xlink:href="#m904c086cea" x="223.979353" y="260.195778" style="fill: #ffac1e; stroke: #ffac1e; stroke-linejoin: bevel"/>
     <use xlink:href="#m904c086cea" x="229.138059" y="252.933856" style="fill: #ffac1e; stroke: #ffac1e; stroke-linejoin: bevel"/>
     <use xlink:href="#m904c086cea" x="234.296764" y="253.274014" style="fill: #ffac1e; stroke: #ffac1e; stroke-linejoin: bevel"/>
     <use xlink:href="#m904c086cea" x="239.45547" y="236.503525" style="fill: #ffac1e; stroke: #ffac1e; stroke-linejoin: bevel"/>
     <use xlink:href="#m904c086cea" x="244.614176" y="257.692194" style="fill: #ffac1e; stroke: #ffac1e; stroke-linejoin: bevel"/>
     <use xlink:href="#m904c086cea" x="249.772881" y="252.908818" style="fill: #ffac1e; stroke: #ffac1e; stroke-linejoin: bevel"/>
     <use xlink:href="#m904c086cea" x="254.931587" y="257.316405" style="fill: #ffac1e; stroke: #ffac1e; stroke-linejoin: bevel"/>
     <use xlink:href="#m904c086cea" x="260.090293" y="252.921013" style="fill: #ffac1e; stroke: #ffac1e; stroke-linejoin: bevel"/>
     <use xlink:href="#m904c086cea" x="265.248998" y="253.40905" style="fill: #ffac1e; stroke: #ffac1e; stroke-linejoin: bevel"/>
     <use xlink:href="#m904c086cea" x="270.407704" y="250.62312" style="fill: #ffac1e; stroke: #ffac1e; stroke-linejoin: bevel"/>
     <use xlink:href="#m904c086cea" x="275.56641" y="252.93708" style="fill: #ffac1e; stroke: #ffac1e; stroke-linejoin: bevel"/>
     <use xlink:href="#m904c086cea" x="280.725116" y="256.364286" style="fill: #ffac1e; stroke: #ffac1e; stroke-linejoin: bevel"/>
     <use xlink:href="#m904c086cea" x="285.883821" y="252.908818" style="fill: #ffac1e; stroke: #ffac1e; stroke-linejoin: bevel"/>
     <use xlink:href="#m904c086cea" x="291.042527" y="253.083373" style="fill: #ffac1e; stroke: #ffac1e; stroke-linejoin: bevel"/>
     <use xlink:href="#m904c086cea" x="296.201233" y="253.003819" style="fill: #ffac1e; stroke: #ffac1e; stroke-linejoin: bevel"/>
     <use xlink:href="#m904c086cea" x="301.359938" y="253.73406" style="fill: #ffac1e; stroke: #ffac1e; stroke-linejoin: bevel"/>
     <use xlink:href="#m904c086cea" x="306.518644" y="252.996502" style="fill: #ffac1e; stroke: #ffac1e; stroke-linejoin: bevel"/>
     <use xlink:href="#m904c086cea" x="311.67735" y="252.908818" style="fill: #ffac1e; stroke: #ffac1e; stroke-linejoin: bevel"/>
     <use xlink:href="#m904c086cea" x="316.836055" y="259.549811" style="fill: #ffac1e; stroke: #ffac1e; stroke-linejoin: bevel"/>
     <use xlink:href="#m904c086cea" x="321.994761" y="253.09414" style="fill: #ffac1e; stroke: #ffac1e; stroke-linejoin: bevel"/>
     <use xlink:href="#m904c086cea" x="327.153467" y="270.722204" style="fill: #ffac1e; stroke: #ffac1e; stroke-linejoin: bevel"/>
     <use xlink:href="#m904c086cea" x="332.312173" y="252.924793" style="fill: #ffac1e; stroke: #ffac1e; stroke-linejoin: bevel"/>
     <use xlink:href="#m904c086cea" x="337.470878" y="274.200468" style="fill: #ffac1e; stroke: #ffac1e; stroke-linejoin: bevel"/>
     <use xlink:href="#m904c086cea" x="342.629584" y="256.844485" style="fill: #ffac1e; stroke: #ffac1e; stroke-linejoin: bevel"/>
     <use xlink:href="#m904c086cea" x="347.78829" y="252.962427" style="fill: #ffac1e; stroke: #ffac1e; stroke-linejoin: bevel"/>
     <use xlink:href="#m904c086cea" x="352.946995" y="264.581194" style="fill: #ffac1e; stroke: #ffac1e; stroke-linejoin: bevel"/>
     <use xlink:href="#m904c086cea" x="358.105701" y="253.060537" style="fill: #ffac1e; stroke: #ffac1e; stroke-linejoin: bevel"/>
     <use xlink:href="#m904c086cea" x="363.264407" y="253.015219" style="fill: #ffac1e; stroke: #ffac1e; stroke-linejoin: bevel"/>
     <use xlink:href="#m904c086cea" x="368.423112" y="255.247562" style="fill: #ffac1e; stroke: #ffac1e; stroke-linejoin: bevel"/>
     <use xlink:href="#m904c086cea" x="373.581818" y="254.522222" style="fill: #ffac1e; stroke: #ffac1e; stroke-linejoin: bevel"/>
    </g>
   </g>
   <g id="line2d_33">
    <path d="M 69.218182 253.282236 
L 74.376888 254.00861 
L 79.535593 252.92919 
L 84.694299 252.987546 
L 89.853005 254.525362 
L 95.01171 257.785044 
L 100.170416 252.908818 
L 105.329122 252.94114 
L 110.487827 252.908818 
L 115.646533 252.908818 
L 120.805239 254.741206 
L 125.963945 252.908818 
L 131.12265 252.908818 
L 136.281356 253.28819 
L 141.440062 256.43666 
L 146.598767 258.125828 
L 151.757473 253.969637 
L 156.916179 252.908818 
L 162.074884 254.482257 
L 167.23359 253.028065 
L 172.392296 252.222143 
L 177.551002 252.908818 
L 182.709707 253.126888 
L 187.868413 252.915344 
L 193.027119 254.590942 
L 198.185824 252.908818 
L 203.34453 255.26921 
L 208.503236 252.316115 
L 213.661941 248.558805 
L 218.820647 253.955814 
L 223.979353 259.137616 
L 229.138059 255.335304 
L 234.296764 252.632462 
L 239.45547 253.213007 
L 244.614176 253.750675 
L 249.772881 252.908818 
L 254.931587 254.698802 
L 260.090293 260.029698 
L 265.248998 255.290985 
L 270.407704 252.908818 
L 275.56641 252.908818 
L 280.725116 259.070505 
L 285.883821 252.812938 
L 291.042527 249.666604 
L 296.201233 252.908818 
L 301.359938 252.753878 
L 306.518644 261.684536 
L 311.67735 254.435085 
L 316.836055 256.278641 
L 321.994761 252.908818 
L 327.153467 252.941576 
L 332.312173 252.979497 
L 337.470878 254.730955 
L 342.629584 255.140257 
L 347.78829 260.380388 
L 352.946995 273.56675 
L 358.105701 253.060931 
L 363.264407 252.908818 
L 368.423112 252.908818 
L 373.581818 253.403422 
" clip-path="url(#p37569af33c)" style="fill: none; stroke: #009435; stroke-width: 1.5; stroke-linecap: square"/>
    <defs>
     <path id="m71d025746d" d="M -2 2 
L 2 2 
L 2 -2 
L -2 -2 
z
" style="stroke: #009435; stroke-linejoin: miter"/>
    </defs>
    <g clip-path="url(#p37569af33c)">
     <use xlink:href="#m71d025746d" x="69.218182" y="253.282236" style="fill: #009435; stroke: #009435; stroke-linejoin: miter"/>
     <use xlink:href="#m71d025746d" x="74.376888" y="254.00861" style="fill: #009435; stroke: #009435; stroke-linejoin: miter"/>
     <use xlink:href="#m71d025746d" x="79.535593" y="252.92919" style="fill: #009435; stroke: #009435; stroke-linejoin: miter"/>
     <use xlink:href="#m71d025746d" x="84.694299" y="252.987546" style="fill: #009435; stroke: #009435; stroke-linejoin: miter"/>
     <use xlink:href="#m71d025746d" x="89.853005" y="254.525362" style="fill: #009435; stroke: #009435; stroke-linejoin: miter"/>
     <use xlink:href="#m71d025746d" x="95.01171" y="257.785044" style="fill: #009435; stroke: #009435; stroke-linejoin: miter"/>
     <use xlink:href="#m71d025746d" x="100.170416" y="252.908818" style="fill: #009435; stroke: #009435; stroke-linejoin: miter"/>
     <use xlink:href="#m71d025746d" x="105.329122" y="252.94114" style="fill: #009435; stroke: #009435; stroke-linejoin: miter"/>
     <use xlink:href="#m71d025746d" x="110.487827" y="252.908818" style="fill: #009435; stroke: #009435; stroke-linejoin: miter"/>
     <use xlink:href="#m71d025746d" x="115.646533" y="252.908818" style="fill: #009435; stroke: #009435; stroke-linejoin: miter"/>
     <use xlink:href="#m71d025746d" x="120.805239" y="254.741206" style="fill: #009435; stroke: #009435; stroke-linejoin: miter"/>
     <use xlink:href="#m71d025746d" x="125.963945" y="252.908818" style="fill: #009435; stroke: #009435; stroke-linejoin: miter"/>
     <use xlink:href="#m71d025746d" x="131.12265" y="252.908818" style="fill: #009435; stroke: #009435; stroke-linejoin: miter"/>
     <use xlink:href="#m71d025746d" x="136.281356" y="253.28819" style="fill: #009435; stroke: #009435; stroke-linejoin: miter"/>
     <use xlink:href="#m71d025746d" x="141.440062" y="256.43666" style="fill: #009435; stroke: #009435; stroke-linejoin: miter"/>
     <use xlink:href="#m71d025746d" x="146.598767" y="258.125828" style="fill: #009435; stroke: #009435; stroke-linejoin: miter"/>
     <use xlink:href="#m71d025746d" x="151.757473" y="253.969637" style="fill: #009435; stroke: #009435; stroke-linejoin: miter"/>
     <use xlink:href="#m71d025746d" x="156.916179" y="252.908818" style="fill: #009435; stroke: #009435; stroke-linejoin: miter"/>
     <use xlink:href="#m71d025746d" x="162.074884" y="254.482257" style="fill: #009435; stroke: #009435; stroke-linejoin: miter"/>
     <use xlink:href="#m71d025746d" x="167.23359" y="253.028065" style="fill: #009435; stroke: #009435; stroke-linejoin: miter"/>
     <use xlink:href="#m71d025746d" x="172.392296" y="252.222143" style="fill: #009435; stroke: #009435; stroke-linejoin: miter"/>
     <use xlink:href="#m71d025746d" x="177.551002" y="252.908818" style="fill: #009435; stroke: #009435; stroke-linejoin: miter"/>
     <use xlink:href="#m71d025746d" x="182.709707" y="253.126888" style="fill: #009435; stroke: #009435; stroke-linejoin: miter"/>
     <use xlink:href="#m71d025746d" x="187.868413" y="252.915344" style="fill: #009435; stroke: #009435; stroke-linejoin: miter"/>
     <use xlink:href="#m71d025746d" x="193.027119" y="254.590942" style="fill: #009435; stroke: #009435; stroke-linejoin: miter"/>
     <use xlink:href="#m71d025746d" x="198.185824" y="252.908818" style="fill: #009435; stroke: #009435; stroke-linejoin: miter"/>
     <use xlink:href="#m71d025746d" x="203.34453" y="255.26921" style="fill: #009435; stroke: #009435; stroke-linejoin: miter"/>
     <use xlink:href="#m71d025746d" x="208.503236" y="252.316115" style="fill: #009435; stroke: #009435; stroke-linejoin: miter"/>
     <use xlink:href="#m71d025746d" x="213.661941" y="248.558805" style="fill: #009435; stroke: #009435; stroke-linejoin: miter"/>
     <use xlink:href="#m71d025746d" x="218.820647" y="253.955814" style="fill: #009435; stroke: #009435; stroke-linejoin: miter"/>
     <use xlink:href="#m71d025746d" x="223.979353" y="259.137616" style="fill: #009435; stroke: #009435; stroke-linejoin: miter"/>
     <use xlink:href="#m71d025746d" x="229.138059" y="255.335304" style="fill: #009435; stroke: #009435; stroke-linejoin: miter"/>
     <use xlink:href="#m71d025746d" x="234.296764" y="252.632462" style="fill: #009435; stroke: #009435; stroke-linejoin: miter"/>
     <use xlink:href="#m71d025746d" x="239.45547" y="253.213007" style="fill: #009435; stroke: #009435; stroke-linejoin: miter"/>
     <use xlink:href="#m71d025746d" x="244.614176" y="253.750675" style="fill: #009435; stroke: #009435; stroke-linejoin: miter"/>
     <use xlink:href="#m71d025746d" x="249.772881" y="252.908818" style="fill: #009435; stroke: #009435; stroke-linejoin: miter"/>
     <use xlink:href="#m71d025746d" x="254.931587" y="254.698802" style="fill: #009435; stroke: #009435; stroke-linejoin: miter"/>
     <use xlink:href="#m71d025746d" x="260.090293" y="260.029698" style="fill: #009435; stroke: #009435; stroke-linejoin: miter"/>
     <use xlink:href="#m71d025746d" x="265.248998" y="255.290985" style="fill: #009435; stroke: #009435; stroke-linejoin: miter"/>
     <use xlink:href="#m71d025746d" x="270.407704" y="252.908818" style="fill: #009435; stroke: #009435; stroke-linejoin: miter"/>
     <use xlink:href="#m71d025746d" x="275.56641" y="252.908818" style="fill: #009435; stroke: #009435; stroke-linejoin: miter"/>
     <use xlink:href="#m71d025746d" x="280.725116" y="259.070505" style="fill: #009435; stroke: #009435; stroke-linejoin: miter"/>
     <use xlink:href="#m71d025746d" x="285.883821" y="252.812938" style="fill: #009435; stroke: #009435; stroke-linejoin: miter"/>
     <use xlink:href="#m71d025746d" x="291.042527" y="249.666604" style="fill: #009435; stroke: #009435; stroke-linejoin: miter"/>
     <use xlink:href="#m71d025746d" x="296.201233" y="252.908818" style="fill: #009435; stroke: #009435; stroke-linejoin: miter"/>
     <use xlink:href="#m71d025746d" x="301.359938" y="252.753878" style="fill: #009435; stroke: #009435; stroke-linejoin: miter"/>
     <use xlink:href="#m71d025746d" x="306.518644" y="261.684536" style="fill: #009435; stroke: #009435; stroke-linejoin: miter"/>
     <use xlink:href="#m71d025746d" x="311.67735" y="254.435085" style="fill: #009435; stroke: #009435; stroke-linejoin: miter"/>
     <use xlink:href="#m71d025746d" x="316.836055" y="256.278641" style="fill: #009435; stroke: #009435; stroke-linejoin: miter"/>
     <use xlink:href="#m71d025746d" x="321.994761" y="252.908818" style="fill: #009435; stroke: #009435; stroke-linejoin: miter"/>
     <use xlink:href="#m71d025746d" x="327.153467" y="252.941576" style="fill: #009435; stroke: #009435; stroke-linejoin: miter"/>
     <use xlink:href="#m71d025746d" x="332.312173" y="252.979497" style="fill: #009435; stroke: #009435; stroke-linejoin: miter"/>
     <use xlink:href="#m71d025746d" x="337.470878" y="254.730955" style="fill: #009435; stroke: #009435; stroke-linejoin: miter"/>
     <use xlink:href="#m71d025746d" x="342.629584" y="255.140257" style="fill: #009435; stroke: #009435; stroke-linejoin: miter"/>
     <use xlink:href="#m71d025746d" x="347.78829" y="260.380388" style="fill: #009435; stroke: #009435; stroke-linejoin: miter"/>
     <use xlink:href="#m71d025746d" x="352.946995" y="273.56675" style="fill: #009435; stroke: #009435; stroke-linejoin: miter"/>
     <use xlink:href="#m71d025746d" x="358.105701" y="253.060931" style="fill: #009435; stroke: #009435; stroke-linejoin: miter"/>
     <use xlink:href="#m71d025746d" x="363.264407" y="252.908818" style="fill: #009435; stroke: #009435; stroke-linejoin: miter"/>
     <use xlink:href="#m71d025746d" x="368.423112" y="252.908818" style="fill: #009435; stroke: #009435; stroke-linejoin: miter"/>
     <use xlink:href="#m71d025746d" x="373.581818" y="253.403422" style="fill: #009435; stroke: #009435; stroke-linejoin: miter"/>
    </g>
   </g>
   <g id="patch_3">
    <path d="M 54 252 
L 54 34.56 
" style="fill: none; stroke: #000000; stroke-width: 0.8; stroke-linejoin: miter; stroke-linecap: square"/>
   </g>
   <g id="patch_4">
    <path d="M 388.8 252 
L 388.8 34.56 
" style="fill: none; stroke: #000000; stroke-width: 0.8; stroke-linejoin: miter; stroke-linecap: square"/>
   </g>
   <g id="patch_5">
    <path d="M 54 252 
L 388.8 252 
" style="fill: none; stroke: #000000; stroke-width: 0.8; stroke-linejoin: miter; stroke-linecap: square"/>
   </g>
   <g id="patch_6">
    <path d="M 54 34.56 
L 388.8 34.56 
" style="fill: none; stroke: #000000; stroke-width: 0.8; stroke-linejoin: miter; stroke-linecap: square"/>
   </g>
   <g id="text_17">
    <!-- ζ-R-max agent policy with m = 0.5 -->
    <g transform="translate(117.225 28.56)scale(0.12 -0.12)">
     <defs>
      <path id="DejaVuSans-3b6" d="M 2231 397 
Q 2644 394 2891 159 
Q 3153 -88 3153 -463 
Q 3153 -822 2922 -1072 
Q 2672 -1344 2163 -1344 
Q 2163 -1109 2163 -872 
Q 2378 -888 2509 -750 
Q 2609 -641 2609 -525 
Q 2609 -359 2509 -222 
Q 2413 -91 2231 -91 
Q 338 -91 334 1669 
Q 334 3206 2119 4284 
L 456 4284 
L 456 4863 
L 3175 4863 
L 3175 4284 
Q 913 3147 913 1669 
Q 913 397 2231 397 
z
" transform="scale(0.015625)"/>
      <path id="DejaVuSans-2d" d="M 313 2009 
L 1997 2009 
L 1997 1497 
L 313 1497 
L 313 2009 
z
" transform="scale(0.015625)"/>
      <path id="DejaVuSans-52" d="M 2841 2188 
Q 3044 2119 3236 1894 
Q 3428 1669 3622 1275 
L 4263 0 
L 3584 0 
L 2988 1197 
Q 2756 1666 2539 1819 
Q 2322 1972 1947 1972 
L 1259 1972 
L 1259 0 
L 628 0 
L 628 4666 
L 2053 4666 
Q 2853 4666 3247 4331 
Q 3641 3997 3641 3322 
Q 3641 2881 3436 2590 
Q 3231 2300 2841 2188 
z
M 1259 4147 
L 1259 2491 
L 2053 2491 
Q 2509 2491 2742 2702 
Q 2975 2913 2975 3322 
Q 2975 3731 2742 3939 
Q 2509 4147 2053 4147 
L 1259 4147 
z
" transform="scale(0.015625)"/>
      <path id="DejaVuSans-6d" d="M 3328 2828 
Q 3544 3216 3844 3400 
Q 4144 3584 4550 3584 
Q 5097 3584 5394 3201 
Q 5691 2819 5691 2113 
L 5691 0 
L 5113 0 
L 5113 2094 
Q 5113 2597 4934 2840 
Q 4756 3084 4391 3084 
Q 3944 3084 3684 2787 
Q 3425 2491 3425 1978 
L 3425 0 
L 2847 0 
L 2847 2094 
Q 2847 2600 2669 2842 
Q 2491 3084 2119 3084 
Q 1678 3084 1418 2786 
Q 1159 2488 1159 1978 
L 1159 0 
L 581 0 
L 581 3500 
L 1159 3500 
L 1159 2956 
Q 1356 3278 1631 3431 
Q 1906 3584 2284 3584 
Q 2666 3584 2933 3390 
Q 3200 3197 3328 2828 
z
" transform="scale(0.015625)"/>
      <path id="DejaVuSans-78" d="M 3513 3500 
L 2247 1797 
L 3578 0 
L 2900 0 
L 1881 1375 
L 863 0 
L 184 0 
L 1544 1831 
L 300 3500 
L 978 3500 
L 1906 2253 
L 2834 3500 
L 3513 3500 
z
" transform="scale(0.015625)"/>
      <path id="DejaVuSans-67" d="M 2906 1791 
Q 2906 2416 2648 2759 
Q 2391 3103 1925 3103 
Q 1463 3103 1205 2759 
Q 947 2416 947 1791 
Q 947 1169 1205 825 
Q 1463 481 1925 481 
Q 2391 481 2648 825 
Q 2906 1169 2906 1791 
z
M 3481 434 
Q 3481 -459 3084 -895 
Q 2688 -1331 1869 -1331 
Q 1566 -1331 1297 -1286 
Q 1028 -1241 775 -1147 
L 775 -588 
Q 1028 -725 1275 -790 
Q 1522 -856 1778 -856 
Q 2344 -856 2625 -561 
Q 2906 -266 2906 331 
L 2906 616 
Q 2728 306 2450 153 
Q 2172 0 1784 0 
Q 1141 0 747 490 
Q 353 981 353 1791 
Q 353 2603 747 3093 
Q 1141 3584 1784 3584 
Q 2172 3584 2450 3431 
Q 2728 3278 2906 2969 
L 2906 3500 
L 3481 3500 
L 3481 434 
z
" transform="scale(0.015625)"/>
      <path id="DejaVuSans-6e" d="M 3513 2113 
L 3513 0 
L 2938 0 
L 2938 2094 
Q 2938 2591 2744 2837 
Q 2550 3084 2163 3084 
Q 1697 3084 1428 2787 
Q 1159 2491 1159 1978 
L 1159 0 
L 581 0 
L 581 3500 
L 1159 3500 
L 1159 2956 
Q 1366 3272 1645 3428 
Q 1925 3584 2291 3584 
Q 2894 3584 3203 3211 
Q 3513 2838 3513 2113 
z
" transform="scale(0.015625)"/>
      <path id="DejaVuSans-77" d="M 269 3500 
L 844 3500 
L 1563 769 
L 2278 3500 
L 2956 3500 
L 3675 769 
L 4391 3500 
L 4966 3500 
L 4050 0 
L 3372 0 
L 2619 2869 
L 1863 0 
L 1184 0 
L 269 3500 
z
" transform="scale(0.015625)"/>
      <path id="DejaVuSans-68" d="M 3513 2113 
L 3513 0 
L 2938 0 
L 2938 2094 
Q 2938 2591 2744 2837 
Q 2550 3084 2163 3084 
Q 1697 3084 1428 2787 
Q 1159 2491 1159 1978 
L 1159 0 
L 581 0 
L 581 4863 
L 1159 4863 
L 1159 2956 
Q 1366 3272 1645 3428 
Q 1925 3584 2291 3584 
Q 2894 3584 3203 3211 
Q 3513 2838 3513 2113 
z
" transform="scale(0.015625)"/>
      <path id="DejaVuSans-3d" d="M 678 2906 
L 4684 2906 
L 4684 2381 
L 678 2381 
L 678 2906 
z
M 678 1631 
L 4684 1631 
L 4684 1100 
L 678 1100 
L 678 1631 
z
" transform="scale(0.015625)"/>
      <path id="DejaVuSans-2e" d="M 684 794 
L 1344 794 
L 1344 0 
L 684 0 
L 684 794 
z
" transform="scale(0.015625)"/>
     </defs>
     <use xlink:href="#DejaVuSans-3b6"/>
     <use xlink:href="#DejaVuSans-2d" x="54.394531"/>
     <use xlink:href="#DejaVuSans-52" x="90.478516"/>
     <use xlink:href="#DejaVuSans-2d" x="155.960938"/>
     <use xlink:href="#DejaVuSans-6d" x="192.044922"/>
     <use xlink:href="#DejaVuSans-61" x="289.457031"/>
     <use xlink:href="#DejaVuSans-78" x="350.736328"/>
     <use xlink:href="#DejaVuSans-20" x="409.916016"/>
     <use xlink:href="#DejaVuSans-61" x="441.703125"/>
     <use xlink:href="#DejaVuSans-67" x="502.982422"/>
     <use xlink:href="#DejaVuSans-65" x="566.458984"/>
     <use xlink:href="#DejaVuSans-6e" x="627.982422"/>
     <use xlink:href="#DejaVuSans-74" x="691.361328"/>
     <use xlink:href="#DejaVuSans-20" x="730.570312"/>
     <use xlink:href="#DejaVuSans-70" x="762.357422"/>
     <use xlink:href="#DejaVuSans-6f" x="825.833984"/>
     <use xlink:href="#DejaVuSans-6c" x="887.015625"/>
     <use xlink:href="#DejaVuSans-69" x="914.798828"/>
     <use xlink:href="#DejaVuSans-63" x="942.582031"/>
     <use xlink:href="#DejaVuSans-79" x="997.5625"/>
     <use xlink:href="#DejaVuSans-20" x="1056.742188"/>
     <use xlink:href="#DejaVuSans-77" x="1088.529297"/>
     <use xlink:href="#DejaVuSans-69" x="1170.316406"/>
     <use xlink:href="#DejaVuSans-74" x="1198.099609"/>
     <use xlink:href="#DejaVuSans-68" x="1237.308594"/>
     <use xlink:href="#DejaVuSans-20" x="1300.6875"/>
     <use xlink:href="#DejaVuSans-6d" x="1332.474609"/>
     <use xlink:href="#DejaVuSans-20" x="1429.886719"/>
     <use xlink:href="#DejaVuSans-3d" x="1461.673828"/>
     <use xlink:href="#DejaVuSans-20" x="1545.462891"/>
     <use xlink:href="#DejaVuSans-30" x="1577.25"/>
     <use xlink:href="#DejaVuSans-2e" x="1640.873047"/>
     <use xlink:href="#DejaVuSans-35" x="1672.660156"/>
    </g>
   </g>
   <g id="legend_1">
    <g id="patch_7">
     <path d="M 61 115.950625 
L 145.003125 115.950625 
Q 147.003125 115.950625 147.003125 113.950625 
L 147.003125 41.56 
Q 147.003125 39.56 145.003125 39.56 
L 61 39.56 
Q 59 39.56 59 41.56 
L 59 113.950625 
Q 59 115.950625 61 115.950625 
z
" style="fill: #ffffff; opacity: 0.8; stroke: #cccccc; stroke-linejoin: miter"/>
    </g>
    <g id="line2d_34">
     <path d="M 63 47.658437 
L 73 47.658437 
L 83 47.658437 
" style="fill: none; stroke: #9d02d7; stroke-width: 1.5; stroke-linecap: square"/>
     <g>
      <use xlink:href="#mfb04b4e881" x="73" y="47.658437" style="fill: #9d02d7; stroke: #9d02d7; stroke-linejoin: miter"/>
     </g>
    </g>
    <g id="text_18">
     <!-- alpha=0.1 -->
     <g transform="translate(91 51.158437)scale(0.1 -0.1)">
      <use xlink:href="#DejaVuSans-61"/>
      <use xlink:href="#DejaVuSans-6c" x="61.279297"/>
      <use xlink:href="#DejaVuSans-70" x="89.0625"/>
      <use xlink:href="#DejaVuSans-68" x="152.539062"/>
      <use xlink:href="#DejaVuSans-61" x="215.917969"/>
      <use xlink:href="#DejaVuSans-3d" x="277.197266"/>
      <use xlink:href="#DejaVuSans-30" x="360.986328"/>
      <use xlink:href="#DejaVuSans-2e" x="424.609375"/>
      <use xlink:href="#DejaVuSans-31" x="456.396484"/>
     </g>
    </g>
    <g id="line2d_35">
     <path d="M 63 62.336562 
L 73 62.336562 
L 83 62.336562 
" style="fill: none; stroke: #0000ff; stroke-width: 1.5; stroke-linecap: square"/>
     <g>
      <use xlink:href="#macd02c562f" x="73" y="62.336562" style="fill: #0000ff; stroke: #0000ff"/>
     </g>
    </g>
    <g id="text_19">
     <!-- alpha=0.5 -->
     <g transform="translate(91 65.836562)scale(0.1 -0.1)">
      <use xlink:href="#DejaVuSans-61"/>
      <use xlink:href="#DejaVuSans-6c" x="61.279297"/>
      <use xlink:href="#DejaVuSans-70" x="89.0625"/>
      <use xlink:href="#DejaVuSans-68" x="152.539062"/>
      <use xlink:href="#DejaVuSans-61" x="215.917969"/>
      <use xlink:href="#DejaVuSans-3d" x="277.197266"/>
      <use xlink:href="#DejaVuSans-30" x="360.986328"/>
      <use xlink:href="#DejaVuSans-2e" x="424.609375"/>
      <use xlink:href="#DejaVuSans-35" x="456.396484"/>
     </g>
    </g>
    <g id="line2d_36">
     <path d="M 63 77.014687 
L 73 77.014687 
L 83 77.014687 
" style="fill: none; stroke: #ff7763; stroke-width: 1.5; stroke-linecap: square"/>
     <g>
      <use xlink:href="#m0ad2af0dbf" x="73" y="77.014687" style="fill: #ff7763; stroke: #ff7763"/>
     </g>
    </g>
    <g id="text_20">
     <!-- alpha=1.0 -->
     <g transform="translate(91 80.514687)scale(0.1 -0.1)">
      <use xlink:href="#DejaVuSans-61"/>
      <use xlink:href="#DejaVuSans-6c" x="61.279297"/>
      <use xlink:href="#DejaVuSans-70" x="89.0625"/>
      <use xlink:href="#DejaVuSans-68" x="152.539062"/>
      <use xlink:href="#DejaVuSans-61" x="215.917969"/>
      <use xlink:href="#DejaVuSans-3d" x="277.197266"/>
      <use xlink:href="#DejaVuSans-31" x="360.986328"/>
      <use xlink:href="#DejaVuSans-2e" x="424.609375"/>
      <use xlink:href="#DejaVuSans-30" x="456.396484"/>
     </g>
    </g>
    <g id="line2d_37">
     <path d="M 63 91.692813 
L 73 91.692813 
L 83 91.692813 
" style="fill: none; stroke: #ffac1e; stroke-width: 1.5; stroke-linecap: square"/>
     <g>
      <use xlink:href="#m904c086cea" x="73" y="91.692813" style="fill: #ffac1e; stroke: #ffac1e; stroke-linejoin: bevel"/>
     </g>
    </g>
    <g id="text_21">
     <!-- alpha=1.5 -->
     <g transform="translate(91 95.192813)scale(0.1 -0.1)">
      <use xlink:href="#DejaVuSans-61"/>
      <use xlink:href="#DejaVuSans-6c" x="61.279297"/>
      <use xlink:href="#DejaVuSans-70" x="89.0625"/>
      <use xlink:href="#DejaVuSans-68" x="152.539062"/>
      <use xlink:href="#DejaVuSans-61" x="215.917969"/>
      <use xlink:href="#DejaVuSans-3d" x="277.197266"/>
      <use xlink:href="#DejaVuSans-31" x="360.986328"/>
      <use xlink:href="#DejaVuSans-2e" x="424.609375"/>
      <use xlink:href="#DejaVuSans-35" x="456.396484"/>
     </g>
    </g>
    <g id="line2d_38">
     <path d="M 63 106.370937 
L 73 106.370937 
L 83 106.370937 
" style="fill: none; stroke: #009435; stroke-width: 1.5; stroke-linecap: square"/>
     <g>
      <use xlink:href="#m71d025746d" x="73" y="106.370937" style="fill: #009435; stroke: #009435; stroke-linejoin: miter"/>
     </g>
    </g>
    <g id="text_22">
     <!-- alpha=2.0 -->
     <g transform="translate(91 109.870937)scale(0.1 -0.1)">
      <use xlink:href="#DejaVuSans-61"/>
      <use xlink:href="#DejaVuSans-6c" x="61.279297"/>
      <use xlink:href="#DejaVuSans-70" x="89.0625"/>
      <use xlink:href="#DejaVuSans-68" x="152.539062"/>
      <use xlink:href="#DejaVuSans-61" x="215.917969"/>
      <use xlink:href="#DejaVuSans-3d" x="277.197266"/>
      <use xlink:href="#DejaVuSans-32" x="360.986328"/>
      <use xlink:href="#DejaVuSans-2e" x="424.609375"/>
      <use xlink:href="#DejaVuSans-30" x="456.396484"/>
     </g>
    </g>
   </g>
  </g>
 </g>
 <defs>
  <clipPath id="p37569af33c">
   <rect x="54" y="34.56" width="334.8" height="217.44"/>
  </clipPath>
 </defs>
</svg>
