<?xml version="1.0" encoding="utf-8" standalone="no"?>
<!DOCTYPE svg PUBLIC "-//W3C//DTD SVG 1.1//EN"
  "http://www.w3.org/Graphics/SVG/1.1/DTD/svg11.dtd">
<svg xmlns:xlink="http://www.w3.org/1999/xlink" width="432pt" height="288pt" viewBox="0 0 432 288" xmlns="http://www.w3.org/2000/svg" version="1.1">
 <metadata>
  <rdf:RDF xmlns:dc="http://purl.org/dc/elements/1.1/" xmlns:cc="http://creativecommons.org/ns#" xmlns:rdf="http://www.w3.org/1999/02/22-rdf-syntax-ns#">
   <cc:Work>
    <dc:type rdf:resource="http://purl.org/dc/dcmitype/StillImage"/>
    <dc:date>2023-01-11T15:36:34.422552</dc:date>
    <dc:format>image/svg+xml</dc:format>
    <dc:creator>
     <cc:Agent>
      <dc:title>Matplotlib v3.5.2, https://matplotlib.org/</dc:title>
     </cc:Agent>
    </dc:creator>
   </cc:Work>
  </rdf:RDF>
 </metadata>
 <defs>
  <style type="text/css">*{stroke-linejoin: round; stroke-linecap: butt}</style>
 </defs>
 <g id="figure_1">
  <g id="patch_1">
   <path d="M 0 288 
L 432 288 
L 432 0 
L 0 0 
z
" style="fill: #ffffff"/>
  </g>
  <g id="axes_1">
   <g id="patch_2">
    <path d="M 54 252 
L 388.8 252 
L 388.8 34.56 
L 54 34.56 
z
" style="fill: #ffffff"/>
   </g>
   <g id="PolyCollection_1">
    <defs>
     <path id="maeb6fcd93e" d="M 69.218182 -33.93524 
L 69.218182 -33.93524 
L 74.376888 -41.398516 
L 79.535593 -29.804005 
L 84.694299 -35.006706 
L 89.853005 -32.261315 
L 95.01171 -39.848804 
L 100.170416 -28.516554 
L 105.329122 -34.494464 
L 110.487827 -15.863936 
L 115.646533 -29.319704 
L 120.805239 -13.160373 
L 125.963945 -26.945243 
L 131.12265 -34.49175 
L 136.281356 -37.740341 
L 141.440062 -35.552213 
L 146.598767 -28.945591 
L 151.757473 -25.280569 
L 156.916179 -28.285315 
L 162.074884 -25.433672 
L 167.23359 -167.053684 
L 172.392296 -38.739486 
L 177.551002 -32.220356 
L 182.709707 -32.701205 
L 187.868413 -34.198944 
L 193.027119 -42.300799 
L 198.185824 -35.531616 
L 203.34453 -34.804145 
L 208.503236 -35.185653 
L 213.661941 -29.011418 
L 218.820647 -34.596285 
L 223.979353 -34.732535 
L 229.138059 -100.573476 
L 234.296764 -34.009095 
L 239.45547 -34.114929 
L 244.614176 -145.068283 
L 249.772881 -34.514037 
L 254.931587 -34.342492 
L 260.090293 -34.330172 
L 265.248998 -28.046879 
L 270.407704 -28.78889 
L 275.56641 -211.443741 
L 280.725116 -216.6289 
L 285.883821 -221.302129 
L 291.042527 -221.302129 
L 296.201233 -196.674591 
L 301.359938 -196.531179 
L 306.518644 -220.383249 
L 311.67735 -220.383249 
L 316.836055 -223.145069 
L 321.994761 -237.190051 
L 327.153467 -98.654157 
L 332.312173 -133.634825 
L 337.470878 -133.226324 
L 342.629584 -65.112235 
L 347.78829 -32.470229 
L 352.946995 -237.042558 
L 358.105701 -237.042558 
L 363.264407 -238.84439 
L 368.423112 -233.339128 
L 373.581818 -227.134798 
L 373.581818 -227.134798 
L 373.581818 -227.134798 
L 368.423112 -233.339128 
L 363.264407 -238.84439 
L 358.105701 -237.042558 
L 352.946995 -237.042558 
L 347.78829 -32.470229 
L 342.629584 -65.112235 
L 337.470878 -133.226324 
L 332.312173 -133.634825 
L 327.153467 -98.654157 
L 321.994761 -237.190051 
L 316.836055 -223.145069 
L 311.67735 -220.383249 
L 306.518644 -220.383249 
L 301.359938 -196.531179 
L 296.201233 -196.674591 
L 291.042527 -221.302129 
L 285.883821 -221.302129 
L 280.725116 -216.6289 
L 275.56641 -211.443741 
L 270.407704 -28.78889 
L 265.248998 -28.046879 
L 260.090293 -34.330172 
L 254.931587 -34.342492 
L 249.772881 -34.514037 
L 244.614176 -145.068283 
L 239.45547 -34.114929 
L 234.296764 -34.009095 
L 229.138059 -100.573476 
L 223.979353 -34.732535 
L 218.820647 -34.596285 
L 213.661941 -29.011418 
L 208.503236 -35.185653 
L 203.34453 -34.804145 
L 198.185824 -35.531616 
L 193.027119 -42.300799 
L 187.868413 -34.198944 
L 182.709707 -32.701205 
L 177.551002 -32.220356 
L 172.392296 -38.739486 
L 167.23359 -167.053684 
L 162.074884 -25.433672 
L 156.916179 -28.285315 
L 151.757473 -25.280569 
L 146.598767 -28.945591 
L 141.440062 -35.552213 
L 136.281356 -37.740341 
L 131.12265 -34.49175 
L 125.963945 -26.945243 
L 120.805239 -13.160373 
L 115.646533 -29.319704 
L 110.487827 -15.863936 
L 105.329122 -34.494464 
L 100.170416 -28.516554 
L 95.01171 -39.848804 
L 89.853005 -32.261315 
L 84.694299 -35.006706 
L 79.535593 -29.804005 
L 74.376888 -41.398516 
L 69.218182 -33.93524 
z
" style="stroke: #9d02d7; stroke-opacity: 0.2"/>
    </defs>
    <g clip-path="url(#pa9380d97be)">
     <use xlink:href="#maeb6fcd93e" x="0" y="288" style="fill: #9d02d7; fill-opacity: 0.2; stroke: #9d02d7; stroke-opacity: 0.2"/>
    </g>
   </g>
   <g id="PolyCollection_2">
    <defs>
     <path id="mbd80b5ea59" d="M 69.218182 -32.324876 
L 69.218182 -32.324876 
L 74.376888 -35.091182 
L 79.535593 -29.992013 
L 84.694299 -35.330162 
L 89.853005 -35.079465 
L 95.01171 -35.026969 
L 100.170416 -34.48797 
L 105.329122 -36.837485 
L 110.487827 -33.76103 
L 115.646533 -33.482073 
L 120.805239 -35.289989 
L 125.963945 -35.242901 
L 131.12265 -33.398202 
L 136.281356 -26.565667 
L 141.440062 -32.012262 
L 146.598767 -15.505465 
L 151.757473 -27.830114 
L 156.916179 -34.628944 
L 162.074884 -31.90666 
L 167.23359 -32.962705 
L 172.392296 -32.102723 
L 177.551002 -30.756444 
L 182.709707 -32.752114 
L 187.868413 -33.803024 
L 193.027119 -32.453438 
L 198.185824 -31.858101 
L 203.34453 -33.491297 
L 208.503236 -32.574412 
L 213.661941 -33.290877 
L 218.820647 -33.410288 
L 223.979353 -33.582854 
L 229.138059 -34.944976 
L 234.296764 -55.366721 
L 239.45547 -33.077677 
L 244.614176 -33.912036 
L 249.772881 -30.755302 
L 254.931587 -37.792435 
L 260.090293 -37.078605 
L 265.248998 -48.808415 
L 270.407704 -25.257429 
L 275.56641 -32.240843 
L 280.725116 -31.64242 
L 285.883821 -31.47772 
L 291.042527 -30.317028 
L 296.201233 -30.222045 
L 301.359938 -34.096026 
L 306.518644 -64.211726 
L 311.67735 -79.664246 
L 316.836055 -33.479416 
L 321.994761 -49.959881 
L 327.153467 -33.870426 
L 332.312173 -28.775638 
L 337.470878 -31.827476 
L 342.629584 -33.535731 
L 347.78829 -32.967874 
L 352.946995 -30.8643 
L 358.105701 -31.273822 
L 363.264407 -32.727007 
L 368.423112 -34.276529 
L 373.581818 -29.873322 
L 373.581818 -29.873322 
L 373.581818 -29.873322 
L 368.423112 -34.276529 
L 363.264407 -32.727007 
L 358.105701 -31.273822 
L 352.946995 -30.8643 
L 347.78829 -32.967874 
L 342.629584 -33.535731 
L 337.470878 -31.827476 
L 332.312173 -28.775638 
L 327.153467 -33.870426 
L 321.994761 -49.959881 
L 316.836055 -33.479416 
L 311.67735 -79.664246 
L 306.518644 -64.211726 
L 301.359938 -34.096026 
L 296.201233 -30.222045 
L 291.042527 -30.317028 
L 285.883821 -31.47772 
L 280.725116 -31.64242 
L 275.56641 -32.240843 
L 270.407704 -25.257429 
L 265.248998 -48.808415 
L 260.090293 -37.078605 
L 254.931587 -37.792435 
L 249.772881 -30.755302 
L 244.614176 -33.912036 
L 239.45547 -33.077677 
L 234.296764 -55.366721 
L 229.138059 -34.944976 
L 223.979353 -33.582854 
L 218.820647 -33.410288 
L 213.661941 -33.290877 
L 208.503236 -32.574412 
L 203.34453 -33.491297 
L 198.185824 -31.858101 
L 193.027119 -32.453438 
L 187.868413 -33.803024 
L 182.709707 -32.752114 
L 177.551002 -30.756444 
L 172.392296 -32.102723 
L 167.23359 -32.962705 
L 162.074884 -31.90666 
L 156.916179 -34.628944 
L 151.757473 -27.830114 
L 146.598767 -15.505465 
L 141.440062 -32.012262 
L 136.281356 -26.565667 
L 131.12265 -33.398202 
L 125.963945 -35.242901 
L 120.805239 -35.289989 
L 115.646533 -33.482073 
L 110.487827 -33.76103 
L 105.329122 -36.837485 
L 100.170416 -34.48797 
L 95.01171 -35.026969 
L 89.853005 -35.079465 
L 84.694299 -35.330162 
L 79.535593 -29.992013 
L 74.376888 -35.091182 
L 69.218182 -32.324876 
z
" style="stroke: #0000ff; stroke-opacity: 0.2"/>
    </defs>
    <g clip-path="url(#pa9380d97be)">
     <use xlink:href="#mbd80b5ea59" x="0" y="288" style="fill: #0000ff; fill-opacity: 0.2; stroke: #0000ff; stroke-opacity: 0.2"/>
    </g>
   </g>
   <g id="PolyCollection_3">
    <defs>
     <path id="mb3eb5a36bb" d="M 69.218182 -34.388796 
L 69.218182 -34.388796 
L 74.376888 -33.84851 
L 79.535593 -35.082301 
L 84.694299 -24.329683 
L 89.853005 -33.033402 
L 95.01171 -34.992472 
L 100.170416 -35.020312 
L 105.329122 -34.104167 
L 110.487827 -35.098178 
L 115.646533 -30.941427 
L 120.805239 -30.300939 
L 125.963945 -33.537271 
L 131.12265 -33.810305 
L 136.281356 -28.711007 
L 141.440062 -33.252287 
L 146.598767 -26.935906 
L 151.757473 -34.897265 
L 156.916179 -34.981447 
L 162.074884 -33.307309 
L 167.23359 -12.610741 
L 172.392296 -22.628687 
L 177.551002 -12.952368 
L 182.709707 -31.292173 
L 187.868413 -31.374356 
L 193.027119 -32.734068 
L 198.185824 -34.984834 
L 203.34453 -35.735763 
L 208.503236 -34.741633 
L 213.661941 -43.885598 
L 218.820647 -32.936931 
L 223.979353 -33.167989 
L 229.138059 -33.41998 
L 234.296764 -35.767201 
L 239.45547 -34.758669 
L 244.614176 -31.914998 
L 249.772881 -41.954121 
L 254.931587 -33.627847 
L 260.090293 -34.711555 
L 265.248998 -34.831664 
L 270.407704 -8.462522 
L 275.56641 -26.547834 
L 280.725116 -88.12969 
L 285.883821 -86.801977 
L 291.042527 -25.914775 
L 296.201233 -49.843243 
L 301.359938 -29.151378 
L 306.518644 -179.73684 
L 311.67735 -23.823616 
L 316.836055 -28.350017 
L 321.994761 -28.253115 
L 327.153467 -24.752492 
L 332.312173 -23.880248 
L 337.470878 -25.49321 
L 342.629584 -35.344239 
L 347.78829 -23.934996 
L 352.946995 -23.662627 
L 358.105701 -43.069368 
L 363.264407 -31.626728 
L 368.423112 -28.737831 
L 373.581818 -28.515383 
L 373.581818 -28.515383 
L 373.581818 -28.515383 
L 368.423112 -28.737831 
L 363.264407 -31.626728 
L 358.105701 -43.069368 
L 352.946995 -23.662627 
L 347.78829 -23.934996 
L 342.629584 -35.344239 
L 337.470878 -25.49321 
L 332.312173 -23.880248 
L 327.153467 -24.752492 
L 321.994761 -28.253115 
L 316.836055 -28.350017 
L 311.67735 -23.823616 
L 306.518644 -179.73684 
L 301.359938 -29.151378 
L 296.201233 -49.843243 
L 291.042527 -25.914775 
L 285.883821 -86.801977 
L 280.725116 -88.12969 
L 275.56641 -26.547834 
L 270.407704 -8.462522 
L 265.248998 -34.831664 
L 260.090293 -34.711555 
L 254.931587 -33.627847 
L 249.772881 -41.954121 
L 244.614176 -31.914998 
L 239.45547 -34.758669 
L 234.296764 -35.767201 
L 229.138059 -33.41998 
L 223.979353 -33.167989 
L 218.820647 -32.936931 
L 213.661941 -43.885598 
L 208.503236 -34.741633 
L 203.34453 -35.735763 
L 198.185824 -34.984834 
L 193.027119 -32.734068 
L 187.868413 -31.374356 
L 182.709707 -31.292173 
L 177.551002 -12.952368 
L 172.392296 -22.628687 
L 167.23359 -12.610741 
L 162.074884 -33.307309 
L 156.916179 -34.981447 
L 151.757473 -34.897265 
L 146.598767 -26.935906 
L 141.440062 -33.252287 
L 136.281356 -28.711007 
L 131.12265 -33.810305 
L 125.963945 -33.537271 
L 120.805239 -30.300939 
L 115.646533 -30.941427 
L 110.487827 -35.098178 
L 105.329122 -34.104167 
L 100.170416 -35.020312 
L 95.01171 -34.992472 
L 89.853005 -33.033402 
L 84.694299 -24.329683 
L 79.535593 -35.082301 
L 74.376888 -33.84851 
L 69.218182 -34.388796 
z
" style="stroke: #ff7763; stroke-opacity: 0.2"/>
    </defs>
    <g clip-path="url(#pa9380d97be)">
     <use xlink:href="#mb3eb5a36bb" x="0" y="288" style="fill: #ff7763; fill-opacity: 0.2; stroke: #ff7763; stroke-opacity: 0.2"/>
    </g>
   </g>
   <g id="PolyCollection_4">
    <defs>
     <path id="m9d831e61e8" d="M 69.218182 -34.138008 
L 69.218182 -34.138008 
L 74.376888 -37.707863 
L 79.535593 -32.964031 
L 84.694299 -34.654634 
L 89.853005 -33.707609 
L 95.01171 -20.969982 
L 100.170416 -34.351065 
L 105.329122 -34.828709 
L 110.487827 -13.992923 
L 115.646533 -25.635727 
L 120.805239 -34.427675 
L 125.963945 -37.660999 
L 131.12265 -34.755297 
L 136.281356 -29.083225 
L 141.440062 -35.796163 
L 146.598767 -35.254168 
L 151.757473 -33.817444 
L 156.916179 -27.157024 
L 162.074884 -34.381992 
L 167.23359 -33.598587 
L 172.392296 -27.356339 
L 177.551002 -30.171446 
L 182.709707 -11.364926 
L 187.868413 -30.779222 
L 193.027119 -16.594197 
L 198.185824 -25.836457 
L 203.34453 -30.253243 
L 208.503236 -38.537097 
L 213.661941 -33.199532 
L 218.820647 -31.360351 
L 223.979353 -32.491597 
L 229.138059 -35.533673 
L 234.296764 -27.342356 
L 239.45547 -30.849859 
L 244.614176 -55.192465 
L 249.772881 -34.639699 
L 254.931587 -33.174506 
L 260.090293 -34.61056 
L 265.248998 -33.915784 
L 270.407704 -34.428329 
L 275.56641 -33.475753 
L 280.725116 -34.705452 
L 285.883821 -37.100689 
L 291.042527 -35.313309 
L 296.201233 -31.573546 
L 301.359938 -40.233327 
L 306.518644 -28.057899 
L 311.67735 -27.685145 
L 316.836055 -35.086421 
L 321.994761 -33.992145 
L 327.153467 -33.354223 
L 332.312173 -33.052741 
L 337.470878 -51.665542 
L 342.629584 -33.296237 
L 347.78829 -52.413457 
L 352.946995 -94.002362 
L 358.105701 -46.049667 
L 363.264407 -50.572395 
L 368.423112 -133.155027 
L 373.581818 -46.907174 
L 373.581818 -46.907174 
L 373.581818 -46.907174 
L 368.423112 -133.155027 
L 363.264407 -50.572395 
L 358.105701 -46.049667 
L 352.946995 -94.002362 
L 347.78829 -52.413457 
L 342.629584 -33.296237 
L 337.470878 -51.665542 
L 332.312173 -33.052741 
L 327.153467 -33.354223 
L 321.994761 -33.992145 
L 316.836055 -35.086421 
L 311.67735 -27.685145 
L 306.518644 -28.057899 
L 301.359938 -40.233327 
L 296.201233 -31.573546 
L 291.042527 -35.313309 
L 285.883821 -37.100689 
L 280.725116 -34.705452 
L 275.56641 -33.475753 
L 270.407704 -34.428329 
L 265.248998 -33.915784 
L 260.090293 -34.61056 
L 254.931587 -33.174506 
L 249.772881 -34.639699 
L 244.614176 -55.192465 
L 239.45547 -30.849859 
L 234.296764 -27.342356 
L 229.138059 -35.533673 
L 223.979353 -32.491597 
L 218.820647 -31.360351 
L 213.661941 -33.199532 
L 208.503236 -38.537097 
L 203.34453 -30.253243 
L 198.185824 -25.836457 
L 193.027119 -16.594197 
L 187.868413 -30.779222 
L 182.709707 -11.364926 
L 177.551002 -30.171446 
L 172.392296 -27.356339 
L 167.23359 -33.598587 
L 162.074884 -34.381992 
L 156.916179 -27.157024 
L 151.757473 -33.817444 
L 146.598767 -35.254168 
L 141.440062 -35.796163 
L 136.281356 -29.083225 
L 131.12265 -34.755297 
L 125.963945 -37.660999 
L 120.805239 -34.427675 
L 115.646533 -25.635727 
L 110.487827 -13.992923 
L 105.329122 -34.828709 
L 100.170416 -34.351065 
L 95.01171 -20.969982 
L 89.853005 -33.707609 
L 84.694299 -34.654634 
L 79.535593 -32.964031 
L 74.376888 -37.707863 
L 69.218182 -34.138008 
z
" style="stroke: #ffac1e; stroke-opacity: 0.2"/>
    </defs>
    <g clip-path="url(#pa9380d97be)">
     <use xlink:href="#m9d831e61e8" x="0" y="288" style="fill: #ffac1e; fill-opacity: 0.2; stroke: #ffac1e; stroke-opacity: 0.2"/>
    </g>
   </g>
   <g id="matplotlib.axis_1">
    <g id="xtick_1">
     <g id="line2d_1">
      <path d="M 69.218182 252 
L 69.218182 34.56 
" clip-path="url(#pa9380d97be)" style="fill: none; stroke-dasharray: 2.96,1.28; stroke-dashoffset: 0; stroke: #b0b0b0; stroke-width: 0.8"/>
     </g>
     <g id="line2d_2">
      <defs>
       <path id="m8007353529" d="M 0 0 
L 0 3.5 
" style="stroke: #000000; stroke-width: 0.8"/>
      </defs>
      <g>
       <use xlink:href="#m8007353529" x="69.218182" y="252" style="stroke: #000000; stroke-width: 0.8"/>
      </g>
     </g>
     <g id="text_1">
      <!-- 0 -->
      <g transform="translate(66.036932 266.598437)scale(0.1 -0.1)">
       <defs>
        <path id="DejaVuSans-30" d="M 2034 4250 
Q 1547 4250 1301 3770 
Q 1056 3291 1056 2328 
Q 1056 1369 1301 889 
Q 1547 409 2034 409 
Q 2525 409 2770 889 
Q 3016 1369 3016 2328 
Q 3016 3291 2770 3770 
Q 2525 4250 2034 4250 
z
M 2034 4750 
Q 2819 4750 3233 4129 
Q 3647 3509 3647 2328 
Q 3647 1150 3233 529 
Q 2819 -91 2034 -91 
Q 1250 -91 836 529 
Q 422 1150 422 2328 
Q 422 3509 836 4129 
Q 1250 4750 2034 4750 
z
" transform="scale(0.015625)"/>
       </defs>
       <use xlink:href="#DejaVuSans-30"/>
      </g>
     </g>
    </g>
    <g id="xtick_2">
     <g id="line2d_3">
      <path d="M 120.805239 252 
L 120.805239 34.56 
" clip-path="url(#pa9380d97be)" style="fill: none; stroke-dasharray: 2.96,1.28; stroke-dashoffset: 0; stroke: #b0b0b0; stroke-width: 0.8"/>
     </g>
     <g id="line2d_4">
      <g>
       <use xlink:href="#m8007353529" x="120.805239" y="252" style="stroke: #000000; stroke-width: 0.8"/>
      </g>
     </g>
     <g id="text_2">
      <!-- 500 -->
      <g transform="translate(111.261489 266.598437)scale(0.1 -0.1)">
       <defs>
        <path id="DejaVuSans-35" d="M 691 4666 
L 3169 4666 
L 3169 4134 
L 1269 4134 
L 1269 2991 
Q 1406 3038 1543 3061 
Q 1681 3084 1819 3084 
Q 2600 3084 3056 2656 
Q 3513 2228 3513 1497 
Q 3513 744 3044 326 
Q 2575 -91 1722 -91 
Q 1428 -91 1123 -41 
Q 819 9 494 109 
L 494 744 
Q 775 591 1075 516 
Q 1375 441 1709 441 
Q 2250 441 2565 725 
Q 2881 1009 2881 1497 
Q 2881 1984 2565 2268 
Q 2250 2553 1709 2553 
Q 1456 2553 1204 2497 
Q 953 2441 691 2322 
L 691 4666 
z
" transform="scale(0.015625)"/>
       </defs>
       <use xlink:href="#DejaVuSans-35"/>
       <use xlink:href="#DejaVuSans-30" x="63.623047"/>
       <use xlink:href="#DejaVuSans-30" x="127.246094"/>
      </g>
     </g>
    </g>
    <g id="xtick_3">
     <g id="line2d_5">
      <path d="M 172.392296 252 
L 172.392296 34.56 
" clip-path="url(#pa9380d97be)" style="fill: none; stroke-dasharray: 2.96,1.28; stroke-dashoffset: 0; stroke: #b0b0b0; stroke-width: 0.8"/>
     </g>
     <g id="line2d_6">
      <g>
       <use xlink:href="#m8007353529" x="172.392296" y="252" style="stroke: #000000; stroke-width: 0.8"/>
      </g>
     </g>
     <g id="text_3">
      <!-- 1000 -->
      <g transform="translate(159.667296 266.598437)scale(0.1 -0.1)">
       <defs>
        <path id="DejaVuSans-31" d="M 794 531 
L 1825 531 
L 1825 4091 
L 703 3866 
L 703 4441 
L 1819 4666 
L 2450 4666 
L 2450 531 
L 3481 531 
L 3481 0 
L 794 0 
L 794 531 
z
" transform="scale(0.015625)"/>
       </defs>
       <use xlink:href="#DejaVuSans-31"/>
       <use xlink:href="#DejaVuSans-30" x="63.623047"/>
       <use xlink:href="#DejaVuSans-30" x="127.246094"/>
       <use xlink:href="#DejaVuSans-30" x="190.869141"/>
      </g>
     </g>
    </g>
    <g id="xtick_4">
     <g id="line2d_7">
      <path d="M 223.979353 252 
L 223.979353 34.56 
" clip-path="url(#pa9380d97be)" style="fill: none; stroke-dasharray: 2.96,1.28; stroke-dashoffset: 0; stroke: #b0b0b0; stroke-width: 0.8"/>
     </g>
     <g id="line2d_8">
      <g>
       <use xlink:href="#m8007353529" x="223.979353" y="252" style="stroke: #000000; stroke-width: 0.8"/>
      </g>
     </g>
     <g id="text_4">
      <!-- 1500 -->
      <g transform="translate(211.254353 266.598437)scale(0.1 -0.1)">
       <use xlink:href="#DejaVuSans-31"/>
       <use xlink:href="#DejaVuSans-35" x="63.623047"/>
       <use xlink:href="#DejaVuSans-30" x="127.246094"/>
       <use xlink:href="#DejaVuSans-30" x="190.869141"/>
      </g>
     </g>
    </g>
    <g id="xtick_5">
     <g id="line2d_9">
      <path d="M 275.56641 252 
L 275.56641 34.56 
" clip-path="url(#pa9380d97be)" style="fill: none; stroke-dasharray: 2.96,1.28; stroke-dashoffset: 0; stroke: #b0b0b0; stroke-width: 0.8"/>
     </g>
     <g id="line2d_10">
      <g>
       <use xlink:href="#m8007353529" x="275.56641" y="252" style="stroke: #000000; stroke-width: 0.8"/>
      </g>
     </g>
     <g id="text_5">
      <!-- 2000 -->
      <g transform="translate(262.84141 266.598437)scale(0.1 -0.1)">
       <defs>
        <path id="DejaVuSans-32" d="M 1228 531 
L 3431 531 
L 3431 0 
L 469 0 
L 469 531 
Q 828 903 1448 1529 
Q 2069 2156 2228 2338 
Q 2531 2678 2651 2914 
Q 2772 3150 2772 3378 
Q 2772 3750 2511 3984 
Q 2250 4219 1831 4219 
Q 1534 4219 1204 4116 
Q 875 4013 500 3803 
L 500 4441 
Q 881 4594 1212 4672 
Q 1544 4750 1819 4750 
Q 2544 4750 2975 4387 
Q 3406 4025 3406 3419 
Q 3406 3131 3298 2873 
Q 3191 2616 2906 2266 
Q 2828 2175 2409 1742 
Q 1991 1309 1228 531 
z
" transform="scale(0.015625)"/>
       </defs>
       <use xlink:href="#DejaVuSans-32"/>
       <use xlink:href="#DejaVuSans-30" x="63.623047"/>
       <use xlink:href="#DejaVuSans-30" x="127.246094"/>
       <use xlink:href="#DejaVuSans-30" x="190.869141"/>
      </g>
     </g>
    </g>
    <g id="xtick_6">
     <g id="line2d_11">
      <path d="M 327.153467 252 
L 327.153467 34.56 
" clip-path="url(#pa9380d97be)" style="fill: none; stroke-dasharray: 2.96,1.28; stroke-dashoffset: 0; stroke: #b0b0b0; stroke-width: 0.8"/>
     </g>
     <g id="line2d_12">
      <g>
       <use xlink:href="#m8007353529" x="327.153467" y="252" style="stroke: #000000; stroke-width: 0.8"/>
      </g>
     </g>
     <g id="text_6">
      <!-- 2500 -->
      <g transform="translate(314.428467 266.598437)scale(0.1 -0.1)">
       <use xlink:href="#DejaVuSans-32"/>
       <use xlink:href="#DejaVuSans-35" x="63.623047"/>
       <use xlink:href="#DejaVuSans-30" x="127.246094"/>
       <use xlink:href="#DejaVuSans-30" x="190.869141"/>
      </g>
     </g>
    </g>
    <g id="xtick_7">
     <g id="line2d_13">
      <path d="M 378.740524 252 
L 378.740524 34.56 
" clip-path="url(#pa9380d97be)" style="fill: none; stroke-dasharray: 2.96,1.28; stroke-dashoffset: 0; stroke: #b0b0b0; stroke-width: 0.8"/>
     </g>
     <g id="line2d_14">
      <g>
       <use xlink:href="#m8007353529" x="378.740524" y="252" style="stroke: #000000; stroke-width: 0.8"/>
      </g>
     </g>
     <g id="text_7">
      <!-- 3000 -->
      <g transform="translate(366.015524 266.598437)scale(0.1 -0.1)">
       <defs>
        <path id="DejaVuSans-33" d="M 2597 2516 
Q 3050 2419 3304 2112 
Q 3559 1806 3559 1356 
Q 3559 666 3084 287 
Q 2609 -91 1734 -91 
Q 1441 -91 1130 -33 
Q 819 25 488 141 
L 488 750 
Q 750 597 1062 519 
Q 1375 441 1716 441 
Q 2309 441 2620 675 
Q 2931 909 2931 1356 
Q 2931 1769 2642 2001 
Q 2353 2234 1838 2234 
L 1294 2234 
L 1294 2753 
L 1863 2753 
Q 2328 2753 2575 2939 
Q 2822 3125 2822 3475 
Q 2822 3834 2567 4026 
Q 2313 4219 1838 4219 
Q 1578 4219 1281 4162 
Q 984 4106 628 3988 
L 628 4550 
Q 988 4650 1302 4700 
Q 1616 4750 1894 4750 
Q 2613 4750 3031 4423 
Q 3450 4097 3450 3541 
Q 3450 3153 3228 2886 
Q 3006 2619 2597 2516 
z
" transform="scale(0.015625)"/>
       </defs>
       <use xlink:href="#DejaVuSans-33"/>
       <use xlink:href="#DejaVuSans-30" x="63.623047"/>
       <use xlink:href="#DejaVuSans-30" x="127.246094"/>
       <use xlink:href="#DejaVuSans-30" x="190.869141"/>
      </g>
     </g>
    </g>
    <g id="text_8">
     <!-- Steps -->
     <g transform="translate(207.410156 280.276563)scale(0.1 -0.1)">
      <defs>
       <path id="DejaVuSans-53" d="M 3425 4513 
L 3425 3897 
Q 3066 4069 2747 4153 
Q 2428 4238 2131 4238 
Q 1616 4238 1336 4038 
Q 1056 3838 1056 3469 
Q 1056 3159 1242 3001 
Q 1428 2844 1947 2747 
L 2328 2669 
Q 3034 2534 3370 2195 
Q 3706 1856 3706 1288 
Q 3706 609 3251 259 
Q 2797 -91 1919 -91 
Q 1588 -91 1214 -16 
Q 841 59 441 206 
L 441 856 
Q 825 641 1194 531 
Q 1563 422 1919 422 
Q 2459 422 2753 634 
Q 3047 847 3047 1241 
Q 3047 1584 2836 1778 
Q 2625 1972 2144 2069 
L 1759 2144 
Q 1053 2284 737 2584 
Q 422 2884 422 3419 
Q 422 4038 858 4394 
Q 1294 4750 2059 4750 
Q 2388 4750 2728 4690 
Q 3069 4631 3425 4513 
z
" transform="scale(0.015625)"/>
       <path id="DejaVuSans-74" d="M 1172 4494 
L 1172 3500 
L 2356 3500 
L 2356 3053 
L 1172 3053 
L 1172 1153 
Q 1172 725 1289 603 
Q 1406 481 1766 481 
L 2356 481 
L 2356 0 
L 1766 0 
Q 1100 0 847 248 
Q 594 497 594 1153 
L 594 3053 
L 172 3053 
L 172 3500 
L 594 3500 
L 594 4494 
L 1172 4494 
z
" transform="scale(0.015625)"/>
       <path id="DejaVuSans-65" d="M 3597 1894 
L 3597 1613 
L 953 1613 
Q 991 1019 1311 708 
Q 1631 397 2203 397 
Q 2534 397 2845 478 
Q 3156 559 3463 722 
L 3463 178 
Q 3153 47 2828 -22 
Q 2503 -91 2169 -91 
Q 1331 -91 842 396 
Q 353 884 353 1716 
Q 353 2575 817 3079 
Q 1281 3584 2069 3584 
Q 2775 3584 3186 3129 
Q 3597 2675 3597 1894 
z
M 3022 2063 
Q 3016 2534 2758 2815 
Q 2500 3097 2075 3097 
Q 1594 3097 1305 2825 
Q 1016 2553 972 2059 
L 3022 2063 
z
" transform="scale(0.015625)"/>
       <path id="DejaVuSans-70" d="M 1159 525 
L 1159 -1331 
L 581 -1331 
L 581 3500 
L 1159 3500 
L 1159 2969 
Q 1341 3281 1617 3432 
Q 1894 3584 2278 3584 
Q 2916 3584 3314 3078 
Q 3713 2572 3713 1747 
Q 3713 922 3314 415 
Q 2916 -91 2278 -91 
Q 1894 -91 1617 61 
Q 1341 213 1159 525 
z
M 3116 1747 
Q 3116 2381 2855 2742 
Q 2594 3103 2138 3103 
Q 1681 3103 1420 2742 
Q 1159 2381 1159 1747 
Q 1159 1113 1420 752 
Q 1681 391 2138 391 
Q 2594 391 2855 752 
Q 3116 1113 3116 1747 
z
" transform="scale(0.015625)"/>
       <path id="DejaVuSans-73" d="M 2834 3397 
L 2834 2853 
Q 2591 2978 2328 3040 
Q 2066 3103 1784 3103 
Q 1356 3103 1142 2972 
Q 928 2841 928 2578 
Q 928 2378 1081 2264 
Q 1234 2150 1697 2047 
L 1894 2003 
Q 2506 1872 2764 1633 
Q 3022 1394 3022 966 
Q 3022 478 2636 193 
Q 2250 -91 1575 -91 
Q 1294 -91 989 -36 
Q 684 19 347 128 
L 347 722 
Q 666 556 975 473 
Q 1284 391 1588 391 
Q 1994 391 2212 530 
Q 2431 669 2431 922 
Q 2431 1156 2273 1281 
Q 2116 1406 1581 1522 
L 1381 1569 
Q 847 1681 609 1914 
Q 372 2147 372 2553 
Q 372 3047 722 3315 
Q 1072 3584 1716 3584 
Q 2034 3584 2315 3537 
Q 2597 3491 2834 3397 
z
" transform="scale(0.015625)"/>
      </defs>
      <use xlink:href="#DejaVuSans-53"/>
      <use xlink:href="#DejaVuSans-74" x="63.476562"/>
      <use xlink:href="#DejaVuSans-65" x="102.685547"/>
      <use xlink:href="#DejaVuSans-70" x="164.208984"/>
      <use xlink:href="#DejaVuSans-73" x="227.685547"/>
     </g>
    </g>
   </g>
   <g id="matplotlib.axis_2">
    <g id="ytick_1">
     <g id="line2d_15">
      <path d="M 54 243.636923 
L 388.8 243.636923 
" clip-path="url(#pa9380d97be)" style="fill: none; stroke-dasharray: 2.96,1.28; stroke-dashoffset: 0; stroke: #b0b0b0; stroke-width: 0.8"/>
     </g>
     <g id="line2d_16">
      <defs>
       <path id="mf9a8b4ec70" d="M 0 0 
L -3.5 0 
" style="stroke: #000000; stroke-width: 0.8"/>
      </defs>
      <g>
       <use xlink:href="#mf9a8b4ec70" x="54" y="243.636923" style="stroke: #000000; stroke-width: 0.8"/>
      </g>
     </g>
     <g id="text_9">
      <!-- −12 -->
      <g transform="translate(25.895312 247.436142)scale(0.1 -0.1)">
       <defs>
        <path id="DejaVuSans-2212" d="M 678 2272 
L 4684 2272 
L 4684 1741 
L 678 1741 
L 678 2272 
z
" transform="scale(0.015625)"/>
       </defs>
       <use xlink:href="#DejaVuSans-2212"/>
       <use xlink:href="#DejaVuSans-31" x="83.789062"/>
       <use xlink:href="#DejaVuSans-32" x="147.412109"/>
      </g>
     </g>
    </g>
    <g id="ytick_2">
     <g id="line2d_17">
      <path d="M 54 210.184615 
L 388.8 210.184615 
" clip-path="url(#pa9380d97be)" style="fill: none; stroke-dasharray: 2.96,1.28; stroke-dashoffset: 0; stroke: #b0b0b0; stroke-width: 0.8"/>
     </g>
     <g id="line2d_18">
      <g>
       <use xlink:href="#mf9a8b4ec70" x="54" y="210.184615" style="stroke: #000000; stroke-width: 0.8"/>
      </g>
     </g>
     <g id="text_10">
      <!-- −10 -->
      <g transform="translate(25.895312 213.983834)scale(0.1 -0.1)">
       <use xlink:href="#DejaVuSans-2212"/>
       <use xlink:href="#DejaVuSans-31" x="83.789062"/>
       <use xlink:href="#DejaVuSans-30" x="147.412109"/>
      </g>
     </g>
    </g>
    <g id="ytick_3">
     <g id="line2d_19">
      <path d="M 54 176.732308 
L 388.8 176.732308 
" clip-path="url(#pa9380d97be)" style="fill: none; stroke-dasharray: 2.96,1.28; stroke-dashoffset: 0; stroke: #b0b0b0; stroke-width: 0.8"/>
     </g>
     <g id="line2d_20">
      <g>
       <use xlink:href="#mf9a8b4ec70" x="54" y="176.732308" style="stroke: #000000; stroke-width: 0.8"/>
      </g>
     </g>
     <g id="text_11">
      <!-- −8 -->
      <g transform="translate(32.257812 180.531526)scale(0.1 -0.1)">
       <defs>
        <path id="DejaVuSans-38" d="M 2034 2216 
Q 1584 2216 1326 1975 
Q 1069 1734 1069 1313 
Q 1069 891 1326 650 
Q 1584 409 2034 409 
Q 2484 409 2743 651 
Q 3003 894 3003 1313 
Q 3003 1734 2745 1975 
Q 2488 2216 2034 2216 
z
M 1403 2484 
Q 997 2584 770 2862 
Q 544 3141 544 3541 
Q 544 4100 942 4425 
Q 1341 4750 2034 4750 
Q 2731 4750 3128 4425 
Q 3525 4100 3525 3541 
Q 3525 3141 3298 2862 
Q 3072 2584 2669 2484 
Q 3125 2378 3379 2068 
Q 3634 1759 3634 1313 
Q 3634 634 3220 271 
Q 2806 -91 2034 -91 
Q 1263 -91 848 271 
Q 434 634 434 1313 
Q 434 1759 690 2068 
Q 947 2378 1403 2484 
z
M 1172 3481 
Q 1172 3119 1398 2916 
Q 1625 2713 2034 2713 
Q 2441 2713 2670 2916 
Q 2900 3119 2900 3481 
Q 2900 3844 2670 4047 
Q 2441 4250 2034 4250 
Q 1625 4250 1398 4047 
Q 1172 3844 1172 3481 
z
" transform="scale(0.015625)"/>
       </defs>
       <use xlink:href="#DejaVuSans-2212"/>
       <use xlink:href="#DejaVuSans-38" x="83.789062"/>
      </g>
     </g>
    </g>
    <g id="ytick_4">
     <g id="line2d_21">
      <path d="M 54 143.28 
L 388.8 143.28 
" clip-path="url(#pa9380d97be)" style="fill: none; stroke-dasharray: 2.96,1.28; stroke-dashoffset: 0; stroke: #b0b0b0; stroke-width: 0.8"/>
     </g>
     <g id="line2d_22">
      <g>
       <use xlink:href="#mf9a8b4ec70" x="54" y="143.28" style="stroke: #000000; stroke-width: 0.8"/>
      </g>
     </g>
     <g id="text_12">
      <!-- −6 -->
      <g transform="translate(32.257812 147.079219)scale(0.1 -0.1)">
       <defs>
        <path id="DejaVuSans-36" d="M 2113 2584 
Q 1688 2584 1439 2293 
Q 1191 2003 1191 1497 
Q 1191 994 1439 701 
Q 1688 409 2113 409 
Q 2538 409 2786 701 
Q 3034 994 3034 1497 
Q 3034 2003 2786 2293 
Q 2538 2584 2113 2584 
z
M 3366 4563 
L 3366 3988 
Q 3128 4100 2886 4159 
Q 2644 4219 2406 4219 
Q 1781 4219 1451 3797 
Q 1122 3375 1075 2522 
Q 1259 2794 1537 2939 
Q 1816 3084 2150 3084 
Q 2853 3084 3261 2657 
Q 3669 2231 3669 1497 
Q 3669 778 3244 343 
Q 2819 -91 2113 -91 
Q 1303 -91 875 529 
Q 447 1150 447 2328 
Q 447 3434 972 4092 
Q 1497 4750 2381 4750 
Q 2619 4750 2861 4703 
Q 3103 4656 3366 4563 
z
" transform="scale(0.015625)"/>
       </defs>
       <use xlink:href="#DejaVuSans-2212"/>
       <use xlink:href="#DejaVuSans-36" x="83.789062"/>
      </g>
     </g>
    </g>
    <g id="ytick_5">
     <g id="line2d_23">
      <path d="M 54 109.827692 
L 388.8 109.827692 
" clip-path="url(#pa9380d97be)" style="fill: none; stroke-dasharray: 2.96,1.28; stroke-dashoffset: 0; stroke: #b0b0b0; stroke-width: 0.8"/>
     </g>
     <g id="line2d_24">
      <g>
       <use xlink:href="#mf9a8b4ec70" x="54" y="109.827692" style="stroke: #000000; stroke-width: 0.8"/>
      </g>
     </g>
     <g id="text_13">
      <!-- −4 -->
      <g transform="translate(32.257812 113.626911)scale(0.1 -0.1)">
       <defs>
        <path id="DejaVuSans-34" d="M 2419 4116 
L 825 1625 
L 2419 1625 
L 2419 4116 
z
M 2253 4666 
L 3047 4666 
L 3047 1625 
L 3713 1625 
L 3713 1100 
L 3047 1100 
L 3047 0 
L 2419 0 
L 2419 1100 
L 313 1100 
L 313 1709 
L 2253 4666 
z
" transform="scale(0.015625)"/>
       </defs>
       <use xlink:href="#DejaVuSans-2212"/>
       <use xlink:href="#DejaVuSans-34" x="83.789062"/>
      </g>
     </g>
    </g>
    <g id="ytick_6">
     <g id="line2d_25">
      <path d="M 54 76.375385 
L 388.8 76.375385 
" clip-path="url(#pa9380d97be)" style="fill: none; stroke-dasharray: 2.96,1.28; stroke-dashoffset: 0; stroke: #b0b0b0; stroke-width: 0.8"/>
     </g>
     <g id="line2d_26">
      <g>
       <use xlink:href="#mf9a8b4ec70" x="54" y="76.375385" style="stroke: #000000; stroke-width: 0.8"/>
      </g>
     </g>
     <g id="text_14">
      <!-- −2 -->
      <g transform="translate(32.257812 80.174603)scale(0.1 -0.1)">
       <use xlink:href="#DejaVuSans-2212"/>
       <use xlink:href="#DejaVuSans-32" x="83.789062"/>
      </g>
     </g>
    </g>
    <g id="ytick_7">
     <g id="line2d_27">
      <path d="M 54 42.923077 
L 388.8 42.923077 
" clip-path="url(#pa9380d97be)" style="fill: none; stroke-dasharray: 2.96,1.28; stroke-dashoffset: 0; stroke: #b0b0b0; stroke-width: 0.8"/>
     </g>
     <g id="line2d_28">
      <g>
       <use xlink:href="#mf9a8b4ec70" x="54" y="42.923077" style="stroke: #000000; stroke-width: 0.8"/>
      </g>
     </g>
     <g id="text_15">
      <!-- 0 -->
      <g transform="translate(40.6375 46.722296)scale(0.1 -0.1)">
       <use xlink:href="#DejaVuSans-30"/>
      </g>
     </g>
    </g>
    <g id="text_16">
     <!-- Policy value error -->
     <g transform="translate(19.815625 186.597969)rotate(-90)scale(0.1 -0.1)">
      <defs>
       <path id="DejaVuSans-50" d="M 1259 4147 
L 1259 2394 
L 2053 2394 
Q 2494 2394 2734 2622 
Q 2975 2850 2975 3272 
Q 2975 3691 2734 3919 
Q 2494 4147 2053 4147 
L 1259 4147 
z
M 628 4666 
L 2053 4666 
Q 2838 4666 3239 4311 
Q 3641 3956 3641 3272 
Q 3641 2581 3239 2228 
Q 2838 1875 2053 1875 
L 1259 1875 
L 1259 0 
L 628 0 
L 628 4666 
z
" transform="scale(0.015625)"/>
       <path id="DejaVuSans-6f" d="M 1959 3097 
Q 1497 3097 1228 2736 
Q 959 2375 959 1747 
Q 959 1119 1226 758 
Q 1494 397 1959 397 
Q 2419 397 2687 759 
Q 2956 1122 2956 1747 
Q 2956 2369 2687 2733 
Q 2419 3097 1959 3097 
z
M 1959 3584 
Q 2709 3584 3137 3096 
Q 3566 2609 3566 1747 
Q 3566 888 3137 398 
Q 2709 -91 1959 -91 
Q 1206 -91 779 398 
Q 353 888 353 1747 
Q 353 2609 779 3096 
Q 1206 3584 1959 3584 
z
" transform="scale(0.015625)"/>
       <path id="DejaVuSans-6c" d="M 603 4863 
L 1178 4863 
L 1178 0 
L 603 0 
L 603 4863 
z
" transform="scale(0.015625)"/>
       <path id="DejaVuSans-69" d="M 603 3500 
L 1178 3500 
L 1178 0 
L 603 0 
L 603 3500 
z
M 603 4863 
L 1178 4863 
L 1178 4134 
L 603 4134 
L 603 4863 
z
" transform="scale(0.015625)"/>
       <path id="DejaVuSans-63" d="M 3122 3366 
L 3122 2828 
Q 2878 2963 2633 3030 
Q 2388 3097 2138 3097 
Q 1578 3097 1268 2742 
Q 959 2388 959 1747 
Q 959 1106 1268 751 
Q 1578 397 2138 397 
Q 2388 397 2633 464 
Q 2878 531 3122 666 
L 3122 134 
Q 2881 22 2623 -34 
Q 2366 -91 2075 -91 
Q 1284 -91 818 406 
Q 353 903 353 1747 
Q 353 2603 823 3093 
Q 1294 3584 2113 3584 
Q 2378 3584 2631 3529 
Q 2884 3475 3122 3366 
z
" transform="scale(0.015625)"/>
       <path id="DejaVuSans-79" d="M 2059 -325 
Q 1816 -950 1584 -1140 
Q 1353 -1331 966 -1331 
L 506 -1331 
L 506 -850 
L 844 -850 
Q 1081 -850 1212 -737 
Q 1344 -625 1503 -206 
L 1606 56 
L 191 3500 
L 800 3500 
L 1894 763 
L 2988 3500 
L 3597 3500 
L 2059 -325 
z
" transform="scale(0.015625)"/>
       <path id="DejaVuSans-20" transform="scale(0.015625)"/>
       <path id="DejaVuSans-76" d="M 191 3500 
L 800 3500 
L 1894 563 
L 2988 3500 
L 3597 3500 
L 2284 0 
L 1503 0 
L 191 3500 
z
" transform="scale(0.015625)"/>
       <path id="DejaVuSans-61" d="M 2194 1759 
Q 1497 1759 1228 1600 
Q 959 1441 959 1056 
Q 959 750 1161 570 
Q 1363 391 1709 391 
Q 2188 391 2477 730 
Q 2766 1069 2766 1631 
L 2766 1759 
L 2194 1759 
z
M 3341 1997 
L 3341 0 
L 2766 0 
L 2766 531 
Q 2569 213 2275 61 
Q 1981 -91 1556 -91 
Q 1019 -91 701 211 
Q 384 513 384 1019 
Q 384 1609 779 1909 
Q 1175 2209 1959 2209 
L 2766 2209 
L 2766 2266 
Q 2766 2663 2505 2880 
Q 2244 3097 1772 3097 
Q 1472 3097 1187 3025 
Q 903 2953 641 2809 
L 641 3341 
Q 956 3463 1253 3523 
Q 1550 3584 1831 3584 
Q 2591 3584 2966 3190 
Q 3341 2797 3341 1997 
z
" transform="scale(0.015625)"/>
       <path id="DejaVuSans-75" d="M 544 1381 
L 544 3500 
L 1119 3500 
L 1119 1403 
Q 1119 906 1312 657 
Q 1506 409 1894 409 
Q 2359 409 2629 706 
Q 2900 1003 2900 1516 
L 2900 3500 
L 3475 3500 
L 3475 0 
L 2900 0 
L 2900 538 
Q 2691 219 2414 64 
Q 2138 -91 1772 -91 
Q 1169 -91 856 284 
Q 544 659 544 1381 
z
M 1991 3584 
L 1991 3584 
z
" transform="scale(0.015625)"/>
       <path id="DejaVuSans-72" d="M 2631 2963 
Q 2534 3019 2420 3045 
Q 2306 3072 2169 3072 
Q 1681 3072 1420 2755 
Q 1159 2438 1159 1844 
L 1159 0 
L 581 0 
L 581 3500 
L 1159 3500 
L 1159 2956 
Q 1341 3275 1631 3429 
Q 1922 3584 2338 3584 
Q 2397 3584 2469 3576 
Q 2541 3569 2628 3553 
L 2631 2963 
z
" transform="scale(0.015625)"/>
      </defs>
      <use xlink:href="#DejaVuSans-50"/>
      <use xlink:href="#DejaVuSans-6f" x="56.677734"/>
      <use xlink:href="#DejaVuSans-6c" x="117.859375"/>
      <use xlink:href="#DejaVuSans-69" x="145.642578"/>
      <use xlink:href="#DejaVuSans-63" x="173.425781"/>
      <use xlink:href="#DejaVuSans-79" x="228.40625"/>
      <use xlink:href="#DejaVuSans-20" x="287.585938"/>
      <use xlink:href="#DejaVuSans-76" x="319.373047"/>
      <use xlink:href="#DejaVuSans-61" x="378.552734"/>
      <use xlink:href="#DejaVuSans-6c" x="439.832031"/>
      <use xlink:href="#DejaVuSans-75" x="467.615234"/>
      <use xlink:href="#DejaVuSans-65" x="530.994141"/>
      <use xlink:href="#DejaVuSans-20" x="592.517578"/>
      <use xlink:href="#DejaVuSans-65" x="624.304688"/>
      <use xlink:href="#DejaVuSans-72" x="685.828125"/>
      <use xlink:href="#DejaVuSans-72" x="725.191406"/>
      <use xlink:href="#DejaVuSans-6f" x="764.054688"/>
      <use xlink:href="#DejaVuSans-72" x="825.236328"/>
     </g>
    </g>
   </g>
   <g id="line2d_29">
    <path d="M 69.218182 254.06476 
L 74.376888 246.601484 
L 79.535593 258.195995 
L 84.694299 252.993294 
L 89.853005 255.738685 
L 95.01171 248.151196 
L 100.170416 259.483446 
L 105.329122 253.505536 
L 110.487827 272.136064 
L 115.646533 258.680296 
L 120.805239 274.839627 
L 125.963945 261.054757 
L 131.12265 253.50825 
L 136.281356 250.259659 
L 141.440062 252.447787 
L 146.598767 259.054409 
L 151.757473 262.719431 
L 156.916179 259.714685 
L 162.074884 262.566328 
L 167.23359 120.946316 
L 172.392296 249.260514 
L 177.551002 255.779644 
L 182.709707 255.298795 
L 187.868413 253.801056 
L 193.027119 245.699201 
L 198.185824 252.468384 
L 203.34453 253.195855 
L 208.503236 252.814347 
L 213.661941 258.988582 
L 218.820647 253.403715 
L 223.979353 253.267465 
L 229.138059 187.426524 
L 234.296764 253.990905 
L 239.45547 253.885071 
L 244.614176 142.931717 
L 249.772881 253.485963 
L 254.931587 253.657508 
L 260.090293 253.669828 
L 265.248998 259.953121 
L 270.407704 259.21111 
L 275.56641 76.556259 
L 280.725116 71.3711 
L 285.883821 66.697871 
L 291.042527 66.697871 
L 296.201233 91.325409 
L 301.359938 91.468821 
L 306.518644 67.616751 
L 311.67735 67.616751 
L 316.836055 64.854931 
L 321.994761 50.809949 
L 327.153467 189.345843 
L 332.312173 154.365175 
L 337.470878 154.773676 
L 342.629584 222.887765 
L 347.78829 255.529771 
L 352.946995 50.957442 
L 358.105701 50.957442 
L 363.264407 49.15561 
L 368.423112 54.660872 
L 373.581818 60.865202 
" clip-path="url(#pa9380d97be)" style="fill: none; stroke: #9d02d7; stroke-width: 1.5; stroke-linecap: square"/>
    <defs>
     <path id="mcc23731f4b" d="M 0 -2 
L -2 2 
L 2 2 
z
" style="stroke: #9d02d7; stroke-linejoin: miter"/>
    </defs>
    <g clip-path="url(#pa9380d97be)">
     <use xlink:href="#mcc23731f4b" x="69.218182" y="254.06476" style="fill: #9d02d7; stroke: #9d02d7; stroke-linejoin: miter"/>
     <use xlink:href="#mcc23731f4b" x="74.376888" y="246.601484" style="fill: #9d02d7; stroke: #9d02d7; stroke-linejoin: miter"/>
     <use xlink:href="#mcc23731f4b" x="79.535593" y="258.195995" style="fill: #9d02d7; stroke: #9d02d7; stroke-linejoin: miter"/>
     <use xlink:href="#mcc23731f4b" x="84.694299" y="252.993294" style="fill: #9d02d7; stroke: #9d02d7; stroke-linejoin: miter"/>
     <use xlink:href="#mcc23731f4b" x="89.853005" y="255.738685" style="fill: #9d02d7; stroke: #9d02d7; stroke-linejoin: miter"/>
     <use xlink:href="#mcc23731f4b" x="95.01171" y="248.151196" style="fill: #9d02d7; stroke: #9d02d7; stroke-linejoin: miter"/>
     <use xlink:href="#mcc23731f4b" x="100.170416" y="259.483446" style="fill: #9d02d7; stroke: #9d02d7; stroke-linejoin: miter"/>
     <use xlink:href="#mcc23731f4b" x="105.329122" y="253.505536" style="fill: #9d02d7; stroke: #9d02d7; stroke-linejoin: miter"/>
     <use xlink:href="#mcc23731f4b" x="110.487827" y="272.136064" style="fill: #9d02d7; stroke: #9d02d7; stroke-linejoin: miter"/>
     <use xlink:href="#mcc23731f4b" x="115.646533" y="258.680296" style="fill: #9d02d7; stroke: #9d02d7; stroke-linejoin: miter"/>
     <use xlink:href="#mcc23731f4b" x="120.805239" y="274.839627" style="fill: #9d02d7; stroke: #9d02d7; stroke-linejoin: miter"/>
     <use xlink:href="#mcc23731f4b" x="125.963945" y="261.054757" style="fill: #9d02d7; stroke: #9d02d7; stroke-linejoin: miter"/>
     <use xlink:href="#mcc23731f4b" x="131.12265" y="253.50825" style="fill: #9d02d7; stroke: #9d02d7; stroke-linejoin: miter"/>
     <use xlink:href="#mcc23731f4b" x="136.281356" y="250.259659" style="fill: #9d02d7; stroke: #9d02d7; stroke-linejoin: miter"/>
     <use xlink:href="#mcc23731f4b" x="141.440062" y="252.447787" style="fill: #9d02d7; stroke: #9d02d7; stroke-linejoin: miter"/>
     <use xlink:href="#mcc23731f4b" x="146.598767" y="259.054409" style="fill: #9d02d7; stroke: #9d02d7; stroke-linejoin: miter"/>
     <use xlink:href="#mcc23731f4b" x="151.757473" y="262.719431" style="fill: #9d02d7; stroke: #9d02d7; stroke-linejoin: miter"/>
     <use xlink:href="#mcc23731f4b" x="156.916179" y="259.714685" style="fill: #9d02d7; stroke: #9d02d7; stroke-linejoin: miter"/>
     <use xlink:href="#mcc23731f4b" x="162.074884" y="262.566328" style="fill: #9d02d7; stroke: #9d02d7; stroke-linejoin: miter"/>
     <use xlink:href="#mcc23731f4b" x="167.23359" y="120.946316" style="fill: #9d02d7; stroke: #9d02d7; stroke-linejoin: miter"/>
     <use xlink:href="#mcc23731f4b" x="172.392296" y="249.260514" style="fill: #9d02d7; stroke: #9d02d7; stroke-linejoin: miter"/>
     <use xlink:href="#mcc23731f4b" x="177.551002" y="255.779644" style="fill: #9d02d7; stroke: #9d02d7; stroke-linejoin: miter"/>
     <use xlink:href="#mcc23731f4b" x="182.709707" y="255.298795" style="fill: #9d02d7; stroke: #9d02d7; stroke-linejoin: miter"/>
     <use xlink:href="#mcc23731f4b" x="187.868413" y="253.801056" style="fill: #9d02d7; stroke: #9d02d7; stroke-linejoin: miter"/>
     <use xlink:href="#mcc23731f4b" x="193.027119" y="245.699201" style="fill: #9d02d7; stroke: #9d02d7; stroke-linejoin: miter"/>
     <use xlink:href="#mcc23731f4b" x="198.185824" y="252.468384" style="fill: #9d02d7; stroke: #9d02d7; stroke-linejoin: miter"/>
     <use xlink:href="#mcc23731f4b" x="203.34453" y="253.195855" style="fill: #9d02d7; stroke: #9d02d7; stroke-linejoin: miter"/>
     <use xlink:href="#mcc23731f4b" x="208.503236" y="252.814347" style="fill: #9d02d7; stroke: #9d02d7; stroke-linejoin: miter"/>
     <use xlink:href="#mcc23731f4b" x="213.661941" y="258.988582" style="fill: #9d02d7; stroke: #9d02d7; stroke-linejoin: miter"/>
     <use xlink:href="#mcc23731f4b" x="218.820647" y="253.403715" style="fill: #9d02d7; stroke: #9d02d7; stroke-linejoin: miter"/>
     <use xlink:href="#mcc23731f4b" x="223.979353" y="253.267465" style="fill: #9d02d7; stroke: #9d02d7; stroke-linejoin: miter"/>
     <use xlink:href="#mcc23731f4b" x="229.138059" y="187.426524" style="fill: #9d02d7; stroke: #9d02d7; stroke-linejoin: miter"/>
     <use xlink:href="#mcc23731f4b" x="234.296764" y="253.990905" style="fill: #9d02d7; stroke: #9d02d7; stroke-linejoin: miter"/>
     <use xlink:href="#mcc23731f4b" x="239.45547" y="253.885071" style="fill: #9d02d7; stroke: #9d02d7; stroke-linejoin: miter"/>
     <use xlink:href="#mcc23731f4b" x="244.614176" y="142.931717" style="fill: #9d02d7; stroke: #9d02d7; stroke-linejoin: miter"/>
     <use xlink:href="#mcc23731f4b" x="249.772881" y="253.485963" style="fill: #9d02d7; stroke: #9d02d7; stroke-linejoin: miter"/>
     <use xlink:href="#mcc23731f4b" x="254.931587" y="253.657508" style="fill: #9d02d7; stroke: #9d02d7; stroke-linejoin: miter"/>
     <use xlink:href="#mcc23731f4b" x="260.090293" y="253.669828" style="fill: #9d02d7; stroke: #9d02d7; stroke-linejoin: miter"/>
     <use xlink:href="#mcc23731f4b" x="265.248998" y="259.953121" style="fill: #9d02d7; stroke: #9d02d7; stroke-linejoin: miter"/>
     <use xlink:href="#mcc23731f4b" x="270.407704" y="259.21111" style="fill: #9d02d7; stroke: #9d02d7; stroke-linejoin: miter"/>
     <use xlink:href="#mcc23731f4b" x="275.56641" y="76.556259" style="fill: #9d02d7; stroke: #9d02d7; stroke-linejoin: miter"/>
     <use xlink:href="#mcc23731f4b" x="280.725116" y="71.3711" style="fill: #9d02d7; stroke: #9d02d7; stroke-linejoin: miter"/>
     <use xlink:href="#mcc23731f4b" x="285.883821" y="66.697871" style="fill: #9d02d7; stroke: #9d02d7; stroke-linejoin: miter"/>
     <use xlink:href="#mcc23731f4b" x="291.042527" y="66.697871" style="fill: #9d02d7; stroke: #9d02d7; stroke-linejoin: miter"/>
     <use xlink:href="#mcc23731f4b" x="296.201233" y="91.325409" style="fill: #9d02d7; stroke: #9d02d7; stroke-linejoin: miter"/>
     <use xlink:href="#mcc23731f4b" x="301.359938" y="91.468821" style="fill: #9d02d7; stroke: #9d02d7; stroke-linejoin: miter"/>
     <use xlink:href="#mcc23731f4b" x="306.518644" y="67.616751" style="fill: #9d02d7; stroke: #9d02d7; stroke-linejoin: miter"/>
     <use xlink:href="#mcc23731f4b" x="311.67735" y="67.616751" style="fill: #9d02d7; stroke: #9d02d7; stroke-linejoin: miter"/>
     <use xlink:href="#mcc23731f4b" x="316.836055" y="64.854931" style="fill: #9d02d7; stroke: #9d02d7; stroke-linejoin: miter"/>
     <use xlink:href="#mcc23731f4b" x="321.994761" y="50.809949" style="fill: #9d02d7; stroke: #9d02d7; stroke-linejoin: miter"/>
     <use xlink:href="#mcc23731f4b" x="327.153467" y="189.345843" style="fill: #9d02d7; stroke: #9d02d7; stroke-linejoin: miter"/>
     <use xlink:href="#mcc23731f4b" x="332.312173" y="154.365175" style="fill: #9d02d7; stroke: #9d02d7; stroke-linejoin: miter"/>
     <use xlink:href="#mcc23731f4b" x="337.470878" y="154.773676" style="fill: #9d02d7; stroke: #9d02d7; stroke-linejoin: miter"/>
     <use xlink:href="#mcc23731f4b" x="342.629584" y="222.887765" style="fill: #9d02d7; stroke: #9d02d7; stroke-linejoin: miter"/>
     <use xlink:href="#mcc23731f4b" x="347.78829" y="255.529771" style="fill: #9d02d7; stroke: #9d02d7; stroke-linejoin: miter"/>
     <use xlink:href="#mcc23731f4b" x="352.946995" y="50.957442" style="fill: #9d02d7; stroke: #9d02d7; stroke-linejoin: miter"/>
     <use xlink:href="#mcc23731f4b" x="358.105701" y="50.957442" style="fill: #9d02d7; stroke: #9d02d7; stroke-linejoin: miter"/>
     <use xlink:href="#mcc23731f4b" x="363.264407" y="49.15561" style="fill: #9d02d7; stroke: #9d02d7; stroke-linejoin: miter"/>
     <use xlink:href="#mcc23731f4b" x="368.423112" y="54.660872" style="fill: #9d02d7; stroke: #9d02d7; stroke-linejoin: miter"/>
     <use xlink:href="#mcc23731f4b" x="373.581818" y="60.865202" style="fill: #9d02d7; stroke: #9d02d7; stroke-linejoin: miter"/>
    </g>
   </g>
   <g id="line2d_30">
    <path d="M 69.218182 255.675124 
L 74.376888 252.908818 
L 79.535593 258.007987 
L 84.694299 252.669838 
L 89.853005 252.920535 
L 95.01171 252.973031 
L 100.170416 253.51203 
L 105.329122 251.162515 
L 110.487827 254.23897 
L 115.646533 254.517927 
L 120.805239 252.710011 
L 125.963945 252.757099 
L 131.12265 254.601798 
L 136.281356 261.434333 
L 141.440062 255.987738 
L 146.598767 272.494535 
L 151.757473 260.169886 
L 156.916179 253.371056 
L 162.074884 256.09334 
L 167.23359 255.037295 
L 172.392296 255.897277 
L 177.551002 257.243556 
L 182.709707 255.247886 
L 187.868413 254.196976 
L 193.027119 255.546562 
L 198.185824 256.141899 
L 203.34453 254.508703 
L 208.503236 255.425588 
L 213.661941 254.709123 
L 218.820647 254.589712 
L 223.979353 254.417146 
L 229.138059 253.055024 
L 234.296764 232.633279 
L 239.45547 254.922323 
L 244.614176 254.087964 
L 249.772881 257.244698 
L 254.931587 250.207565 
L 260.090293 250.921395 
L 265.248998 239.191585 
L 270.407704 262.742571 
L 275.56641 255.759157 
L 280.725116 256.35758 
L 285.883821 256.52228 
L 291.042527 257.682972 
L 296.201233 257.777955 
L 301.359938 253.903974 
L 306.518644 223.788274 
L 311.67735 208.335754 
L 316.836055 254.520584 
L 321.994761 238.040119 
L 327.153467 254.129574 
L 332.312173 259.224362 
L 337.470878 256.172524 
L 342.629584 254.464269 
L 347.78829 255.032126 
L 352.946995 257.1357 
L 358.105701 256.726178 
L 363.264407 255.272993 
L 368.423112 253.723471 
L 373.581818 258.126678 
" clip-path="url(#pa9380d97be)" style="fill: none; stroke: #0000ff; stroke-width: 1.5; stroke-linecap: square"/>
    <defs>
     <path id="m1f04ed942f" d="M 0 2 
C 0.530406 2 1.03916 1.789267 1.414214 1.414214 
C 1.789267 1.03916 2 0.530406 2 0 
C 2 -0.530406 1.789267 -1.03916 1.414214 -1.414214 
C 1.03916 -1.789267 0.530406 -2 0 -2 
C -0.530406 -2 -1.03916 -1.789267 -1.414214 -1.414214 
C -1.789267 -1.03916 -2 -0.530406 -2 0 
C -2 0.530406 -1.789267 1.03916 -1.414214 1.414214 
C -1.03916 1.789267 -0.530406 2 0 2 
z
" style="stroke: #0000ff"/>
    </defs>
    <g clip-path="url(#pa9380d97be)">
     <use xlink:href="#m1f04ed942f" x="69.218182" y="255.675124" style="fill: #0000ff; stroke: #0000ff"/>
     <use xlink:href="#m1f04ed942f" x="74.376888" y="252.908818" style="fill: #0000ff; stroke: #0000ff"/>
     <use xlink:href="#m1f04ed942f" x="79.535593" y="258.007987" style="fill: #0000ff; stroke: #0000ff"/>
     <use xlink:href="#m1f04ed942f" x="84.694299" y="252.669838" style="fill: #0000ff; stroke: #0000ff"/>
     <use xlink:href="#m1f04ed942f" x="89.853005" y="252.920535" style="fill: #0000ff; stroke: #0000ff"/>
     <use xlink:href="#m1f04ed942f" x="95.01171" y="252.973031" style="fill: #0000ff; stroke: #0000ff"/>
     <use xlink:href="#m1f04ed942f" x="100.170416" y="253.51203" style="fill: #0000ff; stroke: #0000ff"/>
     <use xlink:href="#m1f04ed942f" x="105.329122" y="251.162515" style="fill: #0000ff; stroke: #0000ff"/>
     <use xlink:href="#m1f04ed942f" x="110.487827" y="254.23897" style="fill: #0000ff; stroke: #0000ff"/>
     <use xlink:href="#m1f04ed942f" x="115.646533" y="254.517927" style="fill: #0000ff; stroke: #0000ff"/>
     <use xlink:href="#m1f04ed942f" x="120.805239" y="252.710011" style="fill: #0000ff; stroke: #0000ff"/>
     <use xlink:href="#m1f04ed942f" x="125.963945" y="252.757099" style="fill: #0000ff; stroke: #0000ff"/>
     <use xlink:href="#m1f04ed942f" x="131.12265" y="254.601798" style="fill: #0000ff; stroke: #0000ff"/>
     <use xlink:href="#m1f04ed942f" x="136.281356" y="261.434333" style="fill: #0000ff; stroke: #0000ff"/>
     <use xlink:href="#m1f04ed942f" x="141.440062" y="255.987738" style="fill: #0000ff; stroke: #0000ff"/>
     <use xlink:href="#m1f04ed942f" x="146.598767" y="272.494535" style="fill: #0000ff; stroke: #0000ff"/>
     <use xlink:href="#m1f04ed942f" x="151.757473" y="260.169886" style="fill: #0000ff; stroke: #0000ff"/>
     <use xlink:href="#m1f04ed942f" x="156.916179" y="253.371056" style="fill: #0000ff; stroke: #0000ff"/>
     <use xlink:href="#m1f04ed942f" x="162.074884" y="256.09334" style="fill: #0000ff; stroke: #0000ff"/>
     <use xlink:href="#m1f04ed942f" x="167.23359" y="255.037295" style="fill: #0000ff; stroke: #0000ff"/>
     <use xlink:href="#m1f04ed942f" x="172.392296" y="255.897277" style="fill: #0000ff; stroke: #0000ff"/>
     <use xlink:href="#m1f04ed942f" x="177.551002" y="257.243556" style="fill: #0000ff; stroke: #0000ff"/>
     <use xlink:href="#m1f04ed942f" x="182.709707" y="255.247886" style="fill: #0000ff; stroke: #0000ff"/>
     <use xlink:href="#m1f04ed942f" x="187.868413" y="254.196976" style="fill: #0000ff; stroke: #0000ff"/>
     <use xlink:href="#m1f04ed942f" x="193.027119" y="255.546562" style="fill: #0000ff; stroke: #0000ff"/>
     <use xlink:href="#m1f04ed942f" x="198.185824" y="256.141899" style="fill: #0000ff; stroke: #0000ff"/>
     <use xlink:href="#m1f04ed942f" x="203.34453" y="254.508703" style="fill: #0000ff; stroke: #0000ff"/>
     <use xlink:href="#m1f04ed942f" x="208.503236" y="255.425588" style="fill: #0000ff; stroke: #0000ff"/>
     <use xlink:href="#m1f04ed942f" x="213.661941" y="254.709123" style="fill: #0000ff; stroke: #0000ff"/>
     <use xlink:href="#m1f04ed942f" x="218.820647" y="254.589712" style="fill: #0000ff; stroke: #0000ff"/>
     <use xlink:href="#m1f04ed942f" x="223.979353" y="254.417146" style="fill: #0000ff; stroke: #0000ff"/>
     <use xlink:href="#m1f04ed942f" x="229.138059" y="253.055024" style="fill: #0000ff; stroke: #0000ff"/>
     <use xlink:href="#m1f04ed942f" x="234.296764" y="232.633279" style="fill: #0000ff; stroke: #0000ff"/>
     <use xlink:href="#m1f04ed942f" x="239.45547" y="254.922323" style="fill: #0000ff; stroke: #0000ff"/>
     <use xlink:href="#m1f04ed942f" x="244.614176" y="254.087964" style="fill: #0000ff; stroke: #0000ff"/>
     <use xlink:href="#m1f04ed942f" x="249.772881" y="257.244698" style="fill: #0000ff; stroke: #0000ff"/>
     <use xlink:href="#m1f04ed942f" x="254.931587" y="250.207565" style="fill: #0000ff; stroke: #0000ff"/>
     <use xlink:href="#m1f04ed942f" x="260.090293" y="250.921395" style="fill: #0000ff; stroke: #0000ff"/>
     <use xlink:href="#m1f04ed942f" x="265.248998" y="239.191585" style="fill: #0000ff; stroke: #0000ff"/>
     <use xlink:href="#m1f04ed942f" x="270.407704" y="262.742571" style="fill: #0000ff; stroke: #0000ff"/>
     <use xlink:href="#m1f04ed942f" x="275.56641" y="255.759157" style="fill: #0000ff; stroke: #0000ff"/>
     <use xlink:href="#m1f04ed942f" x="280.725116" y="256.35758" style="fill: #0000ff; stroke: #0000ff"/>
     <use xlink:href="#m1f04ed942f" x="285.883821" y="256.52228" style="fill: #0000ff; stroke: #0000ff"/>
     <use xlink:href="#m1f04ed942f" x="291.042527" y="257.682972" style="fill: #0000ff; stroke: #0000ff"/>
     <use xlink:href="#m1f04ed942f" x="296.201233" y="257.777955" style="fill: #0000ff; stroke: #0000ff"/>
     <use xlink:href="#m1f04ed942f" x="301.359938" y="253.903974" style="fill: #0000ff; stroke: #0000ff"/>
     <use xlink:href="#m1f04ed942f" x="306.518644" y="223.788274" style="fill: #0000ff; stroke: #0000ff"/>
     <use xlink:href="#m1f04ed942f" x="311.67735" y="208.335754" style="fill: #0000ff; stroke: #0000ff"/>
     <use xlink:href="#m1f04ed942f" x="316.836055" y="254.520584" style="fill: #0000ff; stroke: #0000ff"/>
     <use xlink:href="#m1f04ed942f" x="321.994761" y="238.040119" style="fill: #0000ff; stroke: #0000ff"/>
     <use xlink:href="#m1f04ed942f" x="327.153467" y="254.129574" style="fill: #0000ff; stroke: #0000ff"/>
     <use xlink:href="#m1f04ed942f" x="332.312173" y="259.224362" style="fill: #0000ff; stroke: #0000ff"/>
     <use xlink:href="#m1f04ed942f" x="337.470878" y="256.172524" style="fill: #0000ff; stroke: #0000ff"/>
     <use xlink:href="#m1f04ed942f" x="342.629584" y="254.464269" style="fill: #0000ff; stroke: #0000ff"/>
     <use xlink:href="#m1f04ed942f" x="347.78829" y="255.032126" style="fill: #0000ff; stroke: #0000ff"/>
     <use xlink:href="#m1f04ed942f" x="352.946995" y="257.1357" style="fill: #0000ff; stroke: #0000ff"/>
     <use xlink:href="#m1f04ed942f" x="358.105701" y="256.726178" style="fill: #0000ff; stroke: #0000ff"/>
     <use xlink:href="#m1f04ed942f" x="363.264407" y="255.272993" style="fill: #0000ff; stroke: #0000ff"/>
     <use xlink:href="#m1f04ed942f" x="368.423112" y="253.723471" style="fill: #0000ff; stroke: #0000ff"/>
     <use xlink:href="#m1f04ed942f" x="373.581818" y="258.126678" style="fill: #0000ff; stroke: #0000ff"/>
    </g>
   </g>
   <g id="line2d_31">
    <path d="M 69.218182 253.611204 
L 74.376888 254.15149 
L 79.535593 252.917699 
L 84.694299 263.670317 
L 89.853005 254.966598 
L 95.01171 253.007528 
L 100.170416 252.979688 
L 105.329122 253.895833 
L 110.487827 252.901822 
L 115.646533 257.058573 
L 120.805239 257.699061 
L 125.963945 254.462729 
L 131.12265 254.189695 
L 136.281356 259.288993 
L 141.440062 254.747713 
L 146.598767 261.064094 
L 151.757473 253.102735 
L 156.916179 253.018553 
L 162.074884 254.692691 
L 167.23359 275.389259 
L 172.392296 265.371313 
L 177.551002 275.047632 
L 182.709707 256.707827 
L 187.868413 256.625644 
L 193.027119 255.265932 
L 198.185824 253.015166 
L 203.34453 252.264237 
L 208.503236 253.258367 
L 213.661941 244.114402 
L 218.820647 255.063069 
L 223.979353 254.832011 
L 229.138059 254.58002 
L 234.296764 252.232799 
L 239.45547 253.241331 
L 244.614176 256.085002 
L 249.772881 246.045879 
L 254.931587 254.372153 
L 260.090293 253.288445 
L 265.248998 253.168336 
L 270.407704 279.537478 
L 275.56641 261.452166 
L 280.725116 199.87031 
L 285.883821 201.198023 
L 291.042527 262.085225 
L 296.201233 238.156757 
L 301.359938 258.848622 
L 306.518644 108.26316 
L 311.67735 264.176384 
L 316.836055 259.649983 
L 321.994761 259.746885 
L 327.153467 263.247508 
L 332.312173 264.119752 
L 337.470878 262.50679 
L 342.629584 252.655761 
L 347.78829 264.065004 
L 352.946995 264.337373 
L 358.105701 244.930632 
L 363.264407 256.373272 
L 368.423112 259.262169 
L 373.581818 259.484617 
" clip-path="url(#pa9380d97be)" style="fill: none; stroke: #ff7763; stroke-width: 1.5; stroke-linecap: square"/>
    <defs>
     <path id="mffd1fa4fb0" d="M -2 2 
L 2 -2 
M -2 -2 
L 2 2 
" style="stroke: #ff7763"/>
    </defs>
    <g clip-path="url(#pa9380d97be)">
     <use xlink:href="#mffd1fa4fb0" x="69.218182" y="253.611204" style="fill: #ff7763; stroke: #ff7763"/>
     <use xlink:href="#mffd1fa4fb0" x="74.376888" y="254.15149" style="fill: #ff7763; stroke: #ff7763"/>
     <use xlink:href="#mffd1fa4fb0" x="79.535593" y="252.917699" style="fill: #ff7763; stroke: #ff7763"/>
     <use xlink:href="#mffd1fa4fb0" x="84.694299" y="263.670317" style="fill: #ff7763; stroke: #ff7763"/>
     <use xlink:href="#mffd1fa4fb0" x="89.853005" y="254.966598" style="fill: #ff7763; stroke: #ff7763"/>
     <use xlink:href="#mffd1fa4fb0" x="95.01171" y="253.007528" style="fill: #ff7763; stroke: #ff7763"/>
     <use xlink:href="#mffd1fa4fb0" x="100.170416" y="252.979688" style="fill: #ff7763; stroke: #ff7763"/>
     <use xlink:href="#mffd1fa4fb0" x="105.329122" y="253.895833" style="fill: #ff7763; stroke: #ff7763"/>
     <use xlink:href="#mffd1fa4fb0" x="110.487827" y="252.901822" style="fill: #ff7763; stroke: #ff7763"/>
     <use xlink:href="#mffd1fa4fb0" x="115.646533" y="257.058573" style="fill: #ff7763; stroke: #ff7763"/>
     <use xlink:href="#mffd1fa4fb0" x="120.805239" y="257.699061" style="fill: #ff7763; stroke: #ff7763"/>
     <use xlink:href="#mffd1fa4fb0" x="125.963945" y="254.462729" style="fill: #ff7763; stroke: #ff7763"/>
     <use xlink:href="#mffd1fa4fb0" x="131.12265" y="254.189695" style="fill: #ff7763; stroke: #ff7763"/>
     <use xlink:href="#mffd1fa4fb0" x="136.281356" y="259.288993" style="fill: #ff7763; stroke: #ff7763"/>
     <use xlink:href="#mffd1fa4fb0" x="141.440062" y="254.747713" style="fill: #ff7763; stroke: #ff7763"/>
     <use xlink:href="#mffd1fa4fb0" x="146.598767" y="261.064094" style="fill: #ff7763; stroke: #ff7763"/>
     <use xlink:href="#mffd1fa4fb0" x="151.757473" y="253.102735" style="fill: #ff7763; stroke: #ff7763"/>
     <use xlink:href="#mffd1fa4fb0" x="156.916179" y="253.018553" style="fill: #ff7763; stroke: #ff7763"/>
     <use xlink:href="#mffd1fa4fb0" x="162.074884" y="254.692691" style="fill: #ff7763; stroke: #ff7763"/>
     <use xlink:href="#mffd1fa4fb0" x="167.23359" y="275.389259" style="fill: #ff7763; stroke: #ff7763"/>
     <use xlink:href="#mffd1fa4fb0" x="172.392296" y="265.371313" style="fill: #ff7763; stroke: #ff7763"/>
     <use xlink:href="#mffd1fa4fb0" x="177.551002" y="275.047632" style="fill: #ff7763; stroke: #ff7763"/>
     <use xlink:href="#mffd1fa4fb0" x="182.709707" y="256.707827" style="fill: #ff7763; stroke: #ff7763"/>
     <use xlink:href="#mffd1fa4fb0" x="187.868413" y="256.625644" style="fill: #ff7763; stroke: #ff7763"/>
     <use xlink:href="#mffd1fa4fb0" x="193.027119" y="255.265932" style="fill: #ff7763; stroke: #ff7763"/>
     <use xlink:href="#mffd1fa4fb0" x="198.185824" y="253.015166" style="fill: #ff7763; stroke: #ff7763"/>
     <use xlink:href="#mffd1fa4fb0" x="203.34453" y="252.264237" style="fill: #ff7763; stroke: #ff7763"/>
     <use xlink:href="#mffd1fa4fb0" x="208.503236" y="253.258367" style="fill: #ff7763; stroke: #ff7763"/>
     <use xlink:href="#mffd1fa4fb0" x="213.661941" y="244.114402" style="fill: #ff7763; stroke: #ff7763"/>
     <use xlink:href="#mffd1fa4fb0" x="218.820647" y="255.063069" style="fill: #ff7763; stroke: #ff7763"/>
     <use xlink:href="#mffd1fa4fb0" x="223.979353" y="254.832011" style="fill: #ff7763; stroke: #ff7763"/>
     <use xlink:href="#mffd1fa4fb0" x="229.138059" y="254.58002" style="fill: #ff7763; stroke: #ff7763"/>
     <use xlink:href="#mffd1fa4fb0" x="234.296764" y="252.232799" style="fill: #ff7763; stroke: #ff7763"/>
     <use xlink:href="#mffd1fa4fb0" x="239.45547" y="253.241331" style="fill: #ff7763; stroke: #ff7763"/>
     <use xlink:href="#mffd1fa4fb0" x="244.614176" y="256.085002" style="fill: #ff7763; stroke: #ff7763"/>
     <use xlink:href="#mffd1fa4fb0" x="249.772881" y="246.045879" style="fill: #ff7763; stroke: #ff7763"/>
     <use xlink:href="#mffd1fa4fb0" x="254.931587" y="254.372153" style="fill: #ff7763; stroke: #ff7763"/>
     <use xlink:href="#mffd1fa4fb0" x="260.090293" y="253.288445" style="fill: #ff7763; stroke: #ff7763"/>
     <use xlink:href="#mffd1fa4fb0" x="265.248998" y="253.168336" style="fill: #ff7763; stroke: #ff7763"/>
     <use xlink:href="#mffd1fa4fb0" x="270.407704" y="279.537478" style="fill: #ff7763; stroke: #ff7763"/>
     <use xlink:href="#mffd1fa4fb0" x="275.56641" y="261.452166" style="fill: #ff7763; stroke: #ff7763"/>
     <use xlink:href="#mffd1fa4fb0" x="280.725116" y="199.87031" style="fill: #ff7763; stroke: #ff7763"/>
     <use xlink:href="#mffd1fa4fb0" x="285.883821" y="201.198023" style="fill: #ff7763; stroke: #ff7763"/>
     <use xlink:href="#mffd1fa4fb0" x="291.042527" y="262.085225" style="fill: #ff7763; stroke: #ff7763"/>
     <use xlink:href="#mffd1fa4fb0" x="296.201233" y="238.156757" style="fill: #ff7763; stroke: #ff7763"/>
     <use xlink:href="#mffd1fa4fb0" x="301.359938" y="258.848622" style="fill: #ff7763; stroke: #ff7763"/>
     <use xlink:href="#mffd1fa4fb0" x="306.518644" y="108.26316" style="fill: #ff7763; stroke: #ff7763"/>
     <use xlink:href="#mffd1fa4fb0" x="311.67735" y="264.176384" style="fill: #ff7763; stroke: #ff7763"/>
     <use xlink:href="#mffd1fa4fb0" x="316.836055" y="259.649983" style="fill: #ff7763; stroke: #ff7763"/>
     <use xlink:href="#mffd1fa4fb0" x="321.994761" y="259.746885" style="fill: #ff7763; stroke: #ff7763"/>
     <use xlink:href="#mffd1fa4fb0" x="327.153467" y="263.247508" style="fill: #ff7763; stroke: #ff7763"/>
     <use xlink:href="#mffd1fa4fb0" x="332.312173" y="264.119752" style="fill: #ff7763; stroke: #ff7763"/>
     <use xlink:href="#mffd1fa4fb0" x="337.470878" y="262.50679" style="fill: #ff7763; stroke: #ff7763"/>
     <use xlink:href="#mffd1fa4fb0" x="342.629584" y="252.655761" style="fill: #ff7763; stroke: #ff7763"/>
     <use xlink:href="#mffd1fa4fb0" x="347.78829" y="264.065004" style="fill: #ff7763; stroke: #ff7763"/>
     <use xlink:href="#mffd1fa4fb0" x="352.946995" y="264.337373" style="fill: #ff7763; stroke: #ff7763"/>
     <use xlink:href="#mffd1fa4fb0" x="358.105701" y="244.930632" style="fill: #ff7763; stroke: #ff7763"/>
     <use xlink:href="#mffd1fa4fb0" x="363.264407" y="256.373272" style="fill: #ff7763; stroke: #ff7763"/>
     <use xlink:href="#mffd1fa4fb0" x="368.423112" y="259.262169" style="fill: #ff7763; stroke: #ff7763"/>
     <use xlink:href="#mffd1fa4fb0" x="373.581818" y="259.484617" style="fill: #ff7763; stroke: #ff7763"/>
    </g>
   </g>
   <g id="line2d_32">
    <path d="M 69.218182 253.861992 
L 74.376888 250.292137 
L 79.535593 255.035969 
L 84.694299 253.345366 
L 89.853005 254.292391 
L 95.01171 267.030018 
L 100.170416 253.648935 
L 105.329122 253.171291 
L 110.487827 274.007077 
L 115.646533 262.364273 
L 120.805239 253.572325 
L 125.963945 250.339001 
L 131.12265 253.244703 
L 136.281356 258.916775 
L 141.440062 252.203837 
L 146.598767 252.745832 
L 151.757473 254.182556 
L 156.916179 260.842976 
L 162.074884 253.618008 
L 167.23359 254.401413 
L 172.392296 260.643661 
L 177.551002 257.828554 
L 182.709707 276.635074 
L 187.868413 257.220778 
L 193.027119 271.405803 
L 198.185824 262.163543 
L 203.34453 257.746757 
L 208.503236 249.462903 
L 213.661941 254.800468 
L 218.820647 256.639649 
L 223.979353 255.508403 
L 229.138059 252.466327 
L 234.296764 260.657644 
L 239.45547 257.150141 
L 244.614176 232.807535 
L 249.772881 253.360301 
L 254.931587 254.825494 
L 260.090293 253.38944 
L 265.248998 254.084216 
L 270.407704 253.571671 
L 275.56641 254.524247 
L 280.725116 253.294548 
L 285.883821 250.899311 
L 291.042527 252.686691 
L 296.201233 256.426454 
L 301.359938 247.766673 
L 306.518644 259.942101 
L 311.67735 260.314855 
L 316.836055 252.913579 
L 321.994761 254.007855 
L 327.153467 254.645777 
L 332.312173 254.947259 
L 337.470878 236.334458 
L 342.629584 254.703763 
L 347.78829 235.586543 
L 352.946995 193.997638 
L 358.105701 241.950333 
L 363.264407 237.427605 
L 368.423112 154.844973 
L 373.581818 241.092826 
" clip-path="url(#pa9380d97be)" style="fill: none; stroke: #ffac1e; stroke-width: 1.5; stroke-linecap: square"/>
    <defs>
     <path id="m2bba0b44c0" d="M 0 -2 
L -0.449028 -0.618034 
L -1.902113 -0.618034 
L -0.726543 0.236068 
L -1.175571 1.618034 
L -0 0.763932 
L 1.175571 1.618034 
L 0.726543 0.236068 
L 1.902113 -0.618034 
L 0.449028 -0.618034 
z
" style="stroke: #ffac1e; stroke-linejoin: bevel"/>
    </defs>
    <g clip-path="url(#pa9380d97be)">
     <use xlink:href="#m2bba0b44c0" x="69.218182" y="253.861992" style="fill: #ffac1e; stroke: #ffac1e; stroke-linejoin: bevel"/>
     <use xlink:href="#m2bba0b44c0" x="74.376888" y="250.292137" style="fill: #ffac1e; stroke: #ffac1e; stroke-linejoin: bevel"/>
     <use xlink:href="#m2bba0b44c0" x="79.535593" y="255.035969" style="fill: #ffac1e; stroke: #ffac1e; stroke-linejoin: bevel"/>
     <use xlink:href="#m2bba0b44c0" x="84.694299" y="253.345366" style="fill: #ffac1e; stroke: #ffac1e; stroke-linejoin: bevel"/>
     <use xlink:href="#m2bba0b44c0" x="89.853005" y="254.292391" style="fill: #ffac1e; stroke: #ffac1e; stroke-linejoin: bevel"/>
     <use xlink:href="#m2bba0b44c0" x="95.01171" y="267.030018" style="fill: #ffac1e; stroke: #ffac1e; stroke-linejoin: bevel"/>
     <use xlink:href="#m2bba0b44c0" x="100.170416" y="253.648935" style="fill: #ffac1e; stroke: #ffac1e; stroke-linejoin: bevel"/>
     <use xlink:href="#m2bba0b44c0" x="105.329122" y="253.171291" style="fill: #ffac1e; stroke: #ffac1e; stroke-linejoin: bevel"/>
     <use xlink:href="#m2bba0b44c0" x="110.487827" y="274.007077" style="fill: #ffac1e; stroke: #ffac1e; stroke-linejoin: bevel"/>
     <use xlink:href="#m2bba0b44c0" x="115.646533" y="262.364273" style="fill: #ffac1e; stroke: #ffac1e; stroke-linejoin: bevel"/>
     <use xlink:href="#m2bba0b44c0" x="120.805239" y="253.572325" style="fill: #ffac1e; stroke: #ffac1e; stroke-linejoin: bevel"/>
     <use xlink:href="#m2bba0b44c0" x="125.963945" y="250.339001" style="fill: #ffac1e; stroke: #ffac1e; stroke-linejoin: bevel"/>
     <use xlink:href="#m2bba0b44c0" x="131.12265" y="253.244703" style="fill: #ffac1e; stroke: #ffac1e; stroke-linejoin: bevel"/>
     <use xlink:href="#m2bba0b44c0" x="136.281356" y="258.916775" style="fill: #ffac1e; stroke: #ffac1e; stroke-linejoin: bevel"/>
     <use xlink:href="#m2bba0b44c0" x="141.440062" y="252.203837" style="fill: #ffac1e; stroke: #ffac1e; stroke-linejoin: bevel"/>
     <use xlink:href="#m2bba0b44c0" x="146.598767" y="252.745832" style="fill: #ffac1e; stroke: #ffac1e; stroke-linejoin: bevel"/>
     <use xlink:href="#m2bba0b44c0" x="151.757473" y="254.182556" style="fill: #ffac1e; stroke: #ffac1e; stroke-linejoin: bevel"/>
     <use xlink:href="#m2bba0b44c0" x="156.916179" y="260.842976" style="fill: #ffac1e; stroke: #ffac1e; stroke-linejoin: bevel"/>
     <use xlink:href="#m2bba0b44c0" x="162.074884" y="253.618008" style="fill: #ffac1e; stroke: #ffac1e; stroke-linejoin: bevel"/>
     <use xlink:href="#m2bba0b44c0" x="167.23359" y="254.401413" style="fill: #ffac1e; stroke: #ffac1e; stroke-linejoin: bevel"/>
     <use xlink:href="#m2bba0b44c0" x="172.392296" y="260.643661" style="fill: #ffac1e; stroke: #ffac1e; stroke-linejoin: bevel"/>
     <use xlink:href="#m2bba0b44c0" x="177.551002" y="257.828554" style="fill: #ffac1e; stroke: #ffac1e; stroke-linejoin: bevel"/>
     <use xlink:href="#m2bba0b44c0" x="182.709707" y="276.635074" style="fill: #ffac1e; stroke: #ffac1e; stroke-linejoin: bevel"/>
     <use xlink:href="#m2bba0b44c0" x="187.868413" y="257.220778" style="fill: #ffac1e; stroke: #ffac1e; stroke-linejoin: bevel"/>
     <use xlink:href="#m2bba0b44c0" x="193.027119" y="271.405803" style="fill: #ffac1e; stroke: #ffac1e; stroke-linejoin: bevel"/>
     <use xlink:href="#m2bba0b44c0" x="198.185824" y="262.163543" style="fill: #ffac1e; stroke: #ffac1e; stroke-linejoin: bevel"/>
     <use xlink:href="#m2bba0b44c0" x="203.34453" y="257.746757" style="fill: #ffac1e; stroke: #ffac1e; stroke-linejoin: bevel"/>
     <use xlink:href="#m2bba0b44c0" x="208.503236" y="249.462903" style="fill: #ffac1e; stroke: #ffac1e; stroke-linejoin: bevel"/>
     <use xlink:href="#m2bba0b44c0" x="213.661941" y="254.800468" style="fill: #ffac1e; stroke: #ffac1e; stroke-linejoin: bevel"/>
     <use xlink:href="#m2bba0b44c0" x="218.820647" y="256.639649" style="fill: #ffac1e; stroke: #ffac1e; stroke-linejoin: bevel"/>
     <use xlink:href="#m2bba0b44c0" x="223.979353" y="255.508403" style="fill: #ffac1e; stroke: #ffac1e; stroke-linejoin: bevel"/>
     <use xlink:href="#m2bba0b44c0" x="229.138059" y="252.466327" style="fill: #ffac1e; stroke: #ffac1e; stroke-linejoin: bevel"/>
     <use xlink:href="#m2bba0b44c0" x="234.296764" y="260.657644" style="fill: #ffac1e; stroke: #ffac1e; stroke-linejoin: bevel"/>
     <use xlink:href="#m2bba0b44c0" x="239.45547" y="257.150141" style="fill: #ffac1e; stroke: #ffac1e; stroke-linejoin: bevel"/>
     <use xlink:href="#m2bba0b44c0" x="244.614176" y="232.807535" style="fill: #ffac1e; stroke: #ffac1e; stroke-linejoin: bevel"/>
     <use xlink:href="#m2bba0b44c0" x="249.772881" y="253.360301" style="fill: #ffac1e; stroke: #ffac1e; stroke-linejoin: bevel"/>
     <use xlink:href="#m2bba0b44c0" x="254.931587" y="254.825494" style="fill: #ffac1e; stroke: #ffac1e; stroke-linejoin: bevel"/>
     <use xlink:href="#m2bba0b44c0" x="260.090293" y="253.38944" style="fill: #ffac1e; stroke: #ffac1e; stroke-linejoin: bevel"/>
     <use xlink:href="#m2bba0b44c0" x="265.248998" y="254.084216" style="fill: #ffac1e; stroke: #ffac1e; stroke-linejoin: bevel"/>
     <use xlink:href="#m2bba0b44c0" x="270.407704" y="253.571671" style="fill: #ffac1e; stroke: #ffac1e; stroke-linejoin: bevel"/>
     <use xlink:href="#m2bba0b44c0" x="275.56641" y="254.524247" style="fill: #ffac1e; stroke: #ffac1e; stroke-linejoin: bevel"/>
     <use xlink:href="#m2bba0b44c0" x="280.725116" y="253.294548" style="fill: #ffac1e; stroke: #ffac1e; stroke-linejoin: bevel"/>
     <use xlink:href="#m2bba0b44c0" x="285.883821" y="250.899311" style="fill: #ffac1e; stroke: #ffac1e; stroke-linejoin: bevel"/>
     <use xlink:href="#m2bba0b44c0" x="291.042527" y="252.686691" style="fill: #ffac1e; stroke: #ffac1e; stroke-linejoin: bevel"/>
     <use xlink:href="#m2bba0b44c0" x="296.201233" y="256.426454" style="fill: #ffac1e; stroke: #ffac1e; stroke-linejoin: bevel"/>
     <use xlink:href="#m2bba0b44c0" x="301.359938" y="247.766673" style="fill: #ffac1e; stroke: #ffac1e; stroke-linejoin: bevel"/>
     <use xlink:href="#m2bba0b44c0" x="306.518644" y="259.942101" style="fill: #ffac1e; stroke: #ffac1e; stroke-linejoin: bevel"/>
     <use xlink:href="#m2bba0b44c0" x="311.67735" y="260.314855" style="fill: #ffac1e; stroke: #ffac1e; stroke-linejoin: bevel"/>
     <use xlink:href="#m2bba0b44c0" x="316.836055" y="252.913579" style="fill: #ffac1e; stroke: #ffac1e; stroke-linejoin: bevel"/>
     <use xlink:href="#m2bba0b44c0" x="321.994761" y="254.007855" style="fill: #ffac1e; stroke: #ffac1e; stroke-linejoin: bevel"/>
     <use xlink:href="#m2bba0b44c0" x="327.153467" y="254.645777" style="fill: #ffac1e; stroke: #ffac1e; stroke-linejoin: bevel"/>
     <use xlink:href="#m2bba0b44c0" x="332.312173" y="254.947259" style="fill: #ffac1e; stroke: #ffac1e; stroke-linejoin: bevel"/>
     <use xlink:href="#m2bba0b44c0" x="337.470878" y="236.334458" style="fill: #ffac1e; stroke: #ffac1e; stroke-linejoin: bevel"/>
     <use xlink:href="#m2bba0b44c0" x="342.629584" y="254.703763" style="fill: #ffac1e; stroke: #ffac1e; stroke-linejoin: bevel"/>
     <use xlink:href="#m2bba0b44c0" x="347.78829" y="235.586543" style="fill: #ffac1e; stroke: #ffac1e; stroke-linejoin: bevel"/>
     <use xlink:href="#m2bba0b44c0" x="352.946995" y="193.997638" style="fill: #ffac1e; stroke: #ffac1e; stroke-linejoin: bevel"/>
     <use xlink:href="#m2bba0b44c0" x="358.105701" y="241.950333" style="fill: #ffac1e; stroke: #ffac1e; stroke-linejoin: bevel"/>
     <use xlink:href="#m2bba0b44c0" x="363.264407" y="237.427605" style="fill: #ffac1e; stroke: #ffac1e; stroke-linejoin: bevel"/>
     <use xlink:href="#m2bba0b44c0" x="368.423112" y="154.844973" style="fill: #ffac1e; stroke: #ffac1e; stroke-linejoin: bevel"/>
     <use xlink:href="#m2bba0b44c0" x="373.581818" y="241.092826" style="fill: #ffac1e; stroke: #ffac1e; stroke-linejoin: bevel"/>
    </g>
   </g>
   <g id="patch_3">
    <path d="M 54 252 
L 54 34.56 
" style="fill: none; stroke: #000000; stroke-width: 0.8; stroke-linejoin: miter; stroke-linecap: square"/>
   </g>
   <g id="patch_4">
    <path d="M 388.8 252 
L 388.8 34.56 
" style="fill: none; stroke: #000000; stroke-width: 0.8; stroke-linejoin: miter; stroke-linecap: square"/>
   </g>
   <g id="patch_5">
    <path d="M 54 252 
L 388.8 252 
" style="fill: none; stroke: #000000; stroke-width: 0.8; stroke-linejoin: miter; stroke-linecap: square"/>
   </g>
   <g id="patch_6">
    <path d="M 54 34.56 
L 388.8 34.56 
" style="fill: none; stroke: #000000; stroke-width: 0.8; stroke-linejoin: miter; stroke-linecap: square"/>
   </g>
   <g id="text_17">
    <!-- ζ-R-max agent policy with m = 2.5 -->
    <g transform="translate(117.225 28.56)scale(0.12 -0.12)">
     <defs>
      <path id="DejaVuSans-3b6" d="M 2231 397 
Q 2644 394 2891 159 
Q 3153 -88 3153 -463 
Q 3153 -822 2922 -1072 
Q 2672 -1344 2163 -1344 
Q 2163 -1109 2163 -872 
Q 2378 -888 2509 -750 
Q 2609 -641 2609 -525 
Q 2609 -359 2509 -222 
Q 2413 -91 2231 -91 
Q 338 -91 334 1669 
Q 334 3206 2119 4284 
L 456 4284 
L 456 4863 
L 3175 4863 
L 3175 4284 
Q 913 3147 913 1669 
Q 913 397 2231 397 
z
" transform="scale(0.015625)"/>
      <path id="DejaVuSans-2d" d="M 313 2009 
L 1997 2009 
L 1997 1497 
L 313 1497 
L 313 2009 
z
" transform="scale(0.015625)"/>
      <path id="DejaVuSans-52" d="M 2841 2188 
Q 3044 2119 3236 1894 
Q 3428 1669 3622 1275 
L 4263 0 
L 3584 0 
L 2988 1197 
Q 2756 1666 2539 1819 
Q 2322 1972 1947 1972 
L 1259 1972 
L 1259 0 
L 628 0 
L 628 4666 
L 2053 4666 
Q 2853 4666 3247 4331 
Q 3641 3997 3641 3322 
Q 3641 2881 3436 2590 
Q 3231 2300 2841 2188 
z
M 1259 4147 
L 1259 2491 
L 2053 2491 
Q 2509 2491 2742 2702 
Q 2975 2913 2975 3322 
Q 2975 3731 2742 3939 
Q 2509 4147 2053 4147 
L 1259 4147 
z
" transform="scale(0.015625)"/>
      <path id="DejaVuSans-6d" d="M 3328 2828 
Q 3544 3216 3844 3400 
Q 4144 3584 4550 3584 
Q 5097 3584 5394 3201 
Q 5691 2819 5691 2113 
L 5691 0 
L 5113 0 
L 5113 2094 
Q 5113 2597 4934 2840 
Q 4756 3084 4391 3084 
Q 3944 3084 3684 2787 
Q 3425 2491 3425 1978 
L 3425 0 
L 2847 0 
L 2847 2094 
Q 2847 2600 2669 2842 
Q 2491 3084 2119 3084 
Q 1678 3084 1418 2786 
Q 1159 2488 1159 1978 
L 1159 0 
L 581 0 
L 581 3500 
L 1159 3500 
L 1159 2956 
Q 1356 3278 1631 3431 
Q 1906 3584 2284 3584 
Q 2666 3584 2933 3390 
Q 3200 3197 3328 2828 
z
" transform="scale(0.015625)"/>
      <path id="DejaVuSans-78" d="M 3513 3500 
L 2247 1797 
L 3578 0 
L 2900 0 
L 1881 1375 
L 863 0 
L 184 0 
L 1544 1831 
L 300 3500 
L 978 3500 
L 1906 2253 
L 2834 3500 
L 3513 3500 
z
" transform="scale(0.015625)"/>
      <path id="DejaVuSans-67" d="M 2906 1791 
Q 2906 2416 2648 2759 
Q 2391 3103 1925 3103 
Q 1463 3103 1205 2759 
Q 947 2416 947 1791 
Q 947 1169 1205 825 
Q 1463 481 1925 481 
Q 2391 481 2648 825 
Q 2906 1169 2906 1791 
z
M 3481 434 
Q 3481 -459 3084 -895 
Q 2688 -1331 1869 -1331 
Q 1566 -1331 1297 -1286 
Q 1028 -1241 775 -1147 
L 775 -588 
Q 1028 -725 1275 -790 
Q 1522 -856 1778 -856 
Q 2344 -856 2625 -561 
Q 2906 -266 2906 331 
L 2906 616 
Q 2728 306 2450 153 
Q 2172 0 1784 0 
Q 1141 0 747 490 
Q 353 981 353 1791 
Q 353 2603 747 3093 
Q 1141 3584 1784 3584 
Q 2172 3584 2450 3431 
Q 2728 3278 2906 2969 
L 2906 3500 
L 3481 3500 
L 3481 434 
z
" transform="scale(0.015625)"/>
      <path id="DejaVuSans-6e" d="M 3513 2113 
L 3513 0 
L 2938 0 
L 2938 2094 
Q 2938 2591 2744 2837 
Q 2550 3084 2163 3084 
Q 1697 3084 1428 2787 
Q 1159 2491 1159 1978 
L 1159 0 
L 581 0 
L 581 3500 
L 1159 3500 
L 1159 2956 
Q 1366 3272 1645 3428 
Q 1925 3584 2291 3584 
Q 2894 3584 3203 3211 
Q 3513 2838 3513 2113 
z
" transform="scale(0.015625)"/>
      <path id="DejaVuSans-77" d="M 269 3500 
L 844 3500 
L 1563 769 
L 2278 3500 
L 2956 3500 
L 3675 769 
L 4391 3500 
L 4966 3500 
L 4050 0 
L 3372 0 
L 2619 2869 
L 1863 0 
L 1184 0 
L 269 3500 
z
" transform="scale(0.015625)"/>
      <path id="DejaVuSans-68" d="M 3513 2113 
L 3513 0 
L 2938 0 
L 2938 2094 
Q 2938 2591 2744 2837 
Q 2550 3084 2163 3084 
Q 1697 3084 1428 2787 
Q 1159 2491 1159 1978 
L 1159 0 
L 581 0 
L 581 4863 
L 1159 4863 
L 1159 2956 
Q 1366 3272 1645 3428 
Q 1925 3584 2291 3584 
Q 2894 3584 3203 3211 
Q 3513 2838 3513 2113 
z
" transform="scale(0.015625)"/>
      <path id="DejaVuSans-3d" d="M 678 2906 
L 4684 2906 
L 4684 2381 
L 678 2381 
L 678 2906 
z
M 678 1631 
L 4684 1631 
L 4684 1100 
L 678 1100 
L 678 1631 
z
" transform="scale(0.015625)"/>
      <path id="DejaVuSans-2e" d="M 684 794 
L 1344 794 
L 1344 0 
L 684 0 
L 684 794 
z
" transform="scale(0.015625)"/>
     </defs>
     <use xlink:href="#DejaVuSans-3b6"/>
     <use xlink:href="#DejaVuSans-2d" x="54.394531"/>
     <use xlink:href="#DejaVuSans-52" x="90.478516"/>
     <use xlink:href="#DejaVuSans-2d" x="155.960938"/>
     <use xlink:href="#DejaVuSans-6d" x="192.044922"/>
     <use xlink:href="#DejaVuSans-61" x="289.457031"/>
     <use xlink:href="#DejaVuSans-78" x="350.736328"/>
     <use xlink:href="#DejaVuSans-20" x="409.916016"/>
     <use xlink:href="#DejaVuSans-61" x="441.703125"/>
     <use xlink:href="#DejaVuSans-67" x="502.982422"/>
     <use xlink:href="#DejaVuSans-65" x="566.458984"/>
     <use xlink:href="#DejaVuSans-6e" x="627.982422"/>
     <use xlink:href="#DejaVuSans-74" x="691.361328"/>
     <use xlink:href="#DejaVuSans-20" x="730.570312"/>
     <use xlink:href="#DejaVuSans-70" x="762.357422"/>
     <use xlink:href="#DejaVuSans-6f" x="825.833984"/>
     <use xlink:href="#DejaVuSans-6c" x="887.015625"/>
     <use xlink:href="#DejaVuSans-69" x="914.798828"/>
     <use xlink:href="#DejaVuSans-63" x="942.582031"/>
     <use xlink:href="#DejaVuSans-79" x="997.5625"/>
     <use xlink:href="#DejaVuSans-20" x="1056.742188"/>
     <use xlink:href="#DejaVuSans-77" x="1088.529297"/>
     <use xlink:href="#DejaVuSans-69" x="1170.316406"/>
     <use xlink:href="#DejaVuSans-74" x="1198.099609"/>
     <use xlink:href="#DejaVuSans-68" x="1237.308594"/>
     <use xlink:href="#DejaVuSans-20" x="1300.6875"/>
     <use xlink:href="#DejaVuSans-6d" x="1332.474609"/>
     <use xlink:href="#DejaVuSans-20" x="1429.886719"/>
     <use xlink:href="#DejaVuSans-3d" x="1461.673828"/>
     <use xlink:href="#DejaVuSans-20" x="1545.462891"/>
     <use xlink:href="#DejaVuSans-32" x="1577.25"/>
     <use xlink:href="#DejaVuSans-2e" x="1640.873047"/>
     <use xlink:href="#DejaVuSans-35" x="1672.660156"/>
    </g>
   </g>
   <g id="legend_1">
    <g id="patch_7">
     <path d="M 61 101.2725 
L 145.003125 101.2725 
Q 147.003125 101.2725 147.003125 99.2725 
L 147.003125 41.56 
Q 147.003125 39.56 145.003125 39.56 
L 61 39.56 
Q 59 39.56 59 41.56 
L 59 99.2725 
Q 59 101.2725 61 101.2725 
z
" style="fill: #ffffff; opacity: 0.8; stroke: #cccccc; stroke-linejoin: miter"/>
    </g>
    <g id="line2d_33">
     <path d="M 63 47.658437 
L 73 47.658437 
L 83 47.658437 
" style="fill: none; stroke: #9d02d7; stroke-width: 1.5; stroke-linecap: square"/>
     <g>
      <use xlink:href="#mcc23731f4b" x="73" y="47.658437" style="fill: #9d02d7; stroke: #9d02d7; stroke-linejoin: miter"/>
     </g>
    </g>
    <g id="text_18">
     <!-- alpha=2.5 -->
     <g transform="translate(91 51.158437)scale(0.1 -0.1)">
      <use xlink:href="#DejaVuSans-61"/>
      <use xlink:href="#DejaVuSans-6c" x="61.279297"/>
      <use xlink:href="#DejaVuSans-70" x="89.0625"/>
      <use xlink:href="#DejaVuSans-68" x="152.539062"/>
      <use xlink:href="#DejaVuSans-61" x="215.917969"/>
      <use xlink:href="#DejaVuSans-3d" x="277.197266"/>
      <use xlink:href="#DejaVuSans-32" x="360.986328"/>
      <use xlink:href="#DejaVuSans-2e" x="424.609375"/>
      <use xlink:href="#DejaVuSans-35" x="456.396484"/>
     </g>
    </g>
    <g id="line2d_34">
     <path d="M 63 62.336562 
L 73 62.336562 
L 83 62.336562 
" style="fill: none; stroke: #0000ff; stroke-width: 1.5; stroke-linecap: square"/>
     <g>
      <use xlink:href="#m1f04ed942f" x="73" y="62.336562" style="fill: #0000ff; stroke: #0000ff"/>
     </g>
    </g>
    <g id="text_19">
     <!-- alpha=3.0 -->
     <g transform="translate(91 65.836562)scale(0.1 -0.1)">
      <use xlink:href="#DejaVuSans-61"/>
      <use xlink:href="#DejaVuSans-6c" x="61.279297"/>
      <use xlink:href="#DejaVuSans-70" x="89.0625"/>
      <use xlink:href="#DejaVuSans-68" x="152.539062"/>
      <use xlink:href="#DejaVuSans-61" x="215.917969"/>
      <use xlink:href="#DejaVuSans-3d" x="277.197266"/>
      <use xlink:href="#DejaVuSans-33" x="360.986328"/>
      <use xlink:href="#DejaVuSans-2e" x="424.609375"/>
      <use xlink:href="#DejaVuSans-30" x="456.396484"/>
     </g>
    </g>
    <g id="line2d_35">
     <path d="M 63 77.014687 
L 73 77.014687 
L 83 77.014687 
" style="fill: none; stroke: #ff7763; stroke-width: 1.5; stroke-linecap: square"/>
     <g>
      <use xlink:href="#mffd1fa4fb0" x="73" y="77.014687" style="fill: #ff7763; stroke: #ff7763"/>
     </g>
    </g>
    <g id="text_20">
     <!-- alpha=3.5 -->
     <g transform="translate(91 80.514687)scale(0.1 -0.1)">
      <use xlink:href="#DejaVuSans-61"/>
      <use xlink:href="#DejaVuSans-6c" x="61.279297"/>
      <use xlink:href="#DejaVuSans-70" x="89.0625"/>
      <use xlink:href="#DejaVuSans-68" x="152.539062"/>
      <use xlink:href="#DejaVuSans-61" x="215.917969"/>
      <use xlink:href="#DejaVuSans-3d" x="277.197266"/>
      <use xlink:href="#DejaVuSans-33" x="360.986328"/>
      <use xlink:href="#DejaVuSans-2e" x="424.609375"/>
      <use xlink:href="#DejaVuSans-35" x="456.396484"/>
     </g>
    </g>
    <g id="line2d_36">
     <path d="M 63 91.692813 
L 73 91.692813 
L 83 91.692813 
" style="fill: none; stroke: #ffac1e; stroke-width: 1.5; stroke-linecap: square"/>
     <g>
      <use xlink:href="#m2bba0b44c0" x="73" y="91.692813" style="fill: #ffac1e; stroke: #ffac1e; stroke-linejoin: bevel"/>
     </g>
    </g>
    <g id="text_21">
     <!-- alpha=4.0 -->
     <g transform="translate(91 95.192813)scale(0.1 -0.1)">
      <use xlink:href="#DejaVuSans-61"/>
      <use xlink:href="#DejaVuSans-6c" x="61.279297"/>
      <use xlink:href="#DejaVuSans-70" x="89.0625"/>
      <use xlink:href="#DejaVuSans-68" x="152.539062"/>
      <use xlink:href="#DejaVuSans-61" x="215.917969"/>
      <use xlink:href="#DejaVuSans-3d" x="277.197266"/>
      <use xlink:href="#DejaVuSans-34" x="360.986328"/>
      <use xlink:href="#DejaVuSans-2e" x="424.609375"/>
      <use xlink:href="#DejaVuSans-30" x="456.396484"/>
     </g>
    </g>
   </g>
  </g>
 </g>
 <defs>
  <clipPath id="pa9380d97be">
   <rect x="54" y="34.56" width="334.8" height="217.44"/>
  </clipPath>
 </defs>
</svg>
