<?xml version="1.0" encoding="utf-8" standalone="no"?>
<!DOCTYPE svg PUBLIC "-//W3C//DTD SVG 1.1//EN"
  "http://www.w3.org/Graphics/SVG/1.1/DTD/svg11.dtd">
<svg xmlns:xlink="http://www.w3.org/1999/xlink" width="432pt" height="288pt" viewBox="0 0 432 288" xmlns="http://www.w3.org/2000/svg" version="1.1">
 <metadata>
  <rdf:RDF xmlns:dc="http://purl.org/dc/elements/1.1/" xmlns:cc="http://creativecommons.org/ns#" xmlns:rdf="http://www.w3.org/1999/02/22-rdf-syntax-ns#">
   <cc:Work>
    <dc:type rdf:resource="http://purl.org/dc/dcmitype/StillImage"/>
    <dc:date>2023-01-11T15:36:08.533092</dc:date>
    <dc:format>image/svg+xml</dc:format>
    <dc:creator>
     <cc:Agent>
      <dc:title>Matplotlib v3.5.2, https://matplotlib.org/</dc:title>
     </cc:Agent>
    </dc:creator>
   </cc:Work>
  </rdf:RDF>
 </metadata>
 <defs>
  <style type="text/css">*{stroke-linejoin: round; stroke-linecap: butt}</style>
 </defs>
 <g id="figure_1">
  <g id="patch_1">
   <path d="M 0 288 
L 432 288 
L 432 0 
L 0 0 
z
" style="fill: #ffffff"/>
  </g>
  <g id="axes_1">
   <g id="patch_2">
    <path d="M 54 252 
L 388.8 252 
L 388.8 34.56 
L 54 34.56 
z
" style="fill: #ffffff"/>
   </g>
   <g id="PolyCollection_1">
    <defs>
     <path id="m1f9f99ac4a" d="M 69.218182 -35.025204 
L 69.218182 -35.025204 
L 74.376888 -32.588109 
L 79.535593 -32.786437 
L 84.694299 -88.069853 
L 89.853005 -167.758916 
L 95.01171 -200.538455 
L 100.170416 -174.641758 
L 105.329122 -204.143707 
L 110.487827 -201.867391 
L 115.646533 -218.162461 
L 120.805239 -210.502878 
L 125.963945 -211.2426 
L 131.12265 -211.2426 
L 136.281356 -234.252466 
L 141.440062 -228.931246 
L 146.598767 -213.325754 
L 151.757473 -219.289916 
L 156.916179 -209.515475 
L 162.074884 -205.554545 
L 167.23359 -209.515475 
L 172.392296 -209.515475 
L 177.551002 -209.689921 
L 182.709707 -210.06559 
L 187.868413 -210.171573 
L 193.027119 -210.171573 
L 198.185824 -210.171573 
L 203.34453 -210.171573 
L 208.503236 -224.401389 
L 213.661941 -224.401389 
L 218.820647 -224.401389 
L 223.979353 -224.401389 
L 229.138059 -244.674237 
L 234.296764 -224.401389 
L 239.45547 -224.401389 
L 244.614176 -224.401389 
L 249.772881 -225.028385 
L 254.931587 -224.401389 
L 260.090293 -224.278986 
L 265.248998 -209.420985 
L 270.407704 -209.420985 
L 275.56641 -224.401389 
L 280.725116 -224.401389 
L 285.883821 -244.674237 
L 291.042527 -244.674237 
L 296.201233 -244.674237 
L 301.359938 -243.545297 
L 306.518644 -244.506164 
L 311.67735 -244.506164 
L 316.836055 -244.506164 
L 321.994761 -244.506164 
L 327.153467 -244.506164 
L 332.312173 -244.506164 
L 337.470878 -244.506164 
L 342.629584 -244.506164 
L 347.78829 -244.506164 
L 352.946995 -244.506164 
L 358.105701 -244.674237 
L 363.264407 -244.506164 
L 368.423112 -244.506164 
L 373.581818 -244.506164 
L 373.581818 -244.506164 
L 373.581818 -244.506164 
L 368.423112 -244.506164 
L 363.264407 -244.506164 
L 358.105701 -244.674237 
L 352.946995 -244.506164 
L 347.78829 -244.506164 
L 342.629584 -244.506164 
L 337.470878 -244.506164 
L 332.312173 -244.506164 
L 327.153467 -244.506164 
L 321.994761 -244.506164 
L 316.836055 -244.506164 
L 311.67735 -244.506164 
L 306.518644 -244.506164 
L 301.359938 -243.545297 
L 296.201233 -244.674237 
L 291.042527 -244.674237 
L 285.883821 -244.674237 
L 280.725116 -224.401389 
L 275.56641 -224.401389 
L 270.407704 -209.420985 
L 265.248998 -209.420985 
L 260.090293 -224.278986 
L 254.931587 -224.401389 
L 249.772881 -225.028385 
L 244.614176 -224.401389 
L 239.45547 -224.401389 
L 234.296764 -224.401389 
L 229.138059 -244.674237 
L 223.979353 -224.401389 
L 218.820647 -224.401389 
L 213.661941 -224.401389 
L 208.503236 -224.401389 
L 203.34453 -210.171573 
L 198.185824 -210.171573 
L 193.027119 -210.171573 
L 187.868413 -210.171573 
L 182.709707 -210.06559 
L 177.551002 -209.689921 
L 172.392296 -209.515475 
L 167.23359 -209.515475 
L 162.074884 -205.554545 
L 156.916179 -209.515475 
L 151.757473 -219.289916 
L 146.598767 -213.325754 
L 141.440062 -228.931246 
L 136.281356 -234.252466 
L 131.12265 -211.2426 
L 125.963945 -211.2426 
L 120.805239 -210.502878 
L 115.646533 -218.162461 
L 110.487827 -201.867391 
L 105.329122 -204.143707 
L 100.170416 -174.641758 
L 95.01171 -200.538455 
L 89.853005 -167.758916 
L 84.694299 -88.069853 
L 79.535593 -32.786437 
L 74.376888 -32.588109 
L 69.218182 -35.025204 
z
" style="stroke: #9d02d7; stroke-opacity: 0.2"/>
    </defs>
    <g clip-path="url(#p885ccc0aa0)">
     <use xlink:href="#m1f9f99ac4a" x="0" y="288" style="fill: #9d02d7; fill-opacity: 0.2; stroke: #9d02d7; stroke-opacity: 0.2"/>
    </g>
   </g>
   <g id="PolyCollection_2">
    <defs>
     <path id="m5802cd41c2" d="M 69.218182 -35.091182 
L 69.218182 -35.091182 
L 74.376888 -33.769913 
L 79.535593 -34.566238 
L 84.694299 -35.062289 
L 89.853005 -35.081011 
L 95.01171 -34.388854 
L 100.170416 -34.872434 
L 105.329122 -34.596055 
L 110.487827 -34.847174 
L 115.646533 -34.981667 
L 120.805239 -33.535537 
L 125.963945 -32.120934 
L 131.12265 -35.309246 
L 136.281356 -42.14781 
L 141.440062 -34.752336 
L 146.598767 -33.164849 
L 151.757473 -54.231889 
L 156.916179 -34.257759 
L 162.074884 -44.188316 
L 167.23359 -34.792526 
L 172.392296 -23.609901 
L 177.551002 -25.617659 
L 182.709707 -34.702184 
L 187.868413 -32.031027 
L 193.027119 -35.232844 
L 198.185824 -35.207968 
L 203.34453 -51.194379 
L 208.503236 -55.992835 
L 213.661941 -54.055261 
L 218.820647 -57.965261 
L 223.979353 -54.114062 
L 229.138059 -64.29943 
L 234.296764 -64.29943 
L 239.45547 -56.370377 
L 244.614176 -56.960338 
L 249.772881 -115.533356 
L 254.931587 -116.257502 
L 260.090293 -128.801708 
L 265.248998 -240.247989 
L 270.407704 -240.247989 
L 275.56641 -242.161767 
L 280.725116 -242.161767 
L 285.883821 -242.491554 
L 291.042527 -242.161767 
L 296.201233 -242.161767 
L 301.359938 -242.161767 
L 306.518644 -242.161767 
L 311.67735 -242.161767 
L 316.836055 -242.211421 
L 321.994761 -242.211421 
L 327.153467 -242.211421 
L 332.312173 -242.211421 
L 337.470878 -242.585749 
L 342.629584 -242.585749 
L 347.78829 -243.182434 
L 352.946995 -243.182434 
L 358.105701 -243.182434 
L 363.264407 -243.128751 
L 368.423112 -242.519281 
L 373.581818 -243.128751 
L 373.581818 -243.128751 
L 373.581818 -243.128751 
L 368.423112 -242.519281 
L 363.264407 -243.128751 
L 358.105701 -243.182434 
L 352.946995 -243.182434 
L 347.78829 -243.182434 
L 342.629584 -242.585749 
L 337.470878 -242.585749 
L 332.312173 -242.211421 
L 327.153467 -242.211421 
L 321.994761 -242.211421 
L 316.836055 -242.211421 
L 311.67735 -242.161767 
L 306.518644 -242.161767 
L 301.359938 -242.161767 
L 296.201233 -242.161767 
L 291.042527 -242.161767 
L 285.883821 -242.491554 
L 280.725116 -242.161767 
L 275.56641 -242.161767 
L 270.407704 -240.247989 
L 265.248998 -240.247989 
L 260.090293 -128.801708 
L 254.931587 -116.257502 
L 249.772881 -115.533356 
L 244.614176 -56.960338 
L 239.45547 -56.370377 
L 234.296764 -64.29943 
L 229.138059 -64.29943 
L 223.979353 -54.114062 
L 218.820647 -57.965261 
L 213.661941 -54.055261 
L 208.503236 -55.992835 
L 203.34453 -51.194379 
L 198.185824 -35.207968 
L 193.027119 -35.232844 
L 187.868413 -32.031027 
L 182.709707 -34.702184 
L 177.551002 -25.617659 
L 172.392296 -23.609901 
L 167.23359 -34.792526 
L 162.074884 -44.188316 
L 156.916179 -34.257759 
L 151.757473 -54.231889 
L 146.598767 -33.164849 
L 141.440062 -34.752336 
L 136.281356 -42.14781 
L 131.12265 -35.309246 
L 125.963945 -32.120934 
L 120.805239 -33.535537 
L 115.646533 -34.981667 
L 110.487827 -34.847174 
L 105.329122 -34.596055 
L 100.170416 -34.872434 
L 95.01171 -34.388854 
L 89.853005 -35.081011 
L 84.694299 -35.062289 
L 79.535593 -34.566238 
L 74.376888 -33.769913 
L 69.218182 -35.091182 
z
" style="stroke: #0000ff; stroke-opacity: 0.2"/>
    </defs>
    <g clip-path="url(#p885ccc0aa0)">
     <use xlink:href="#m5802cd41c2" x="0" y="288" style="fill: #0000ff; fill-opacity: 0.2; stroke: #0000ff; stroke-opacity: 0.2"/>
    </g>
   </g>
   <g id="PolyCollection_3">
    <defs>
     <path id="m2663c6baee" d="M 69.218182 -34.272751 
L 69.218182 -34.272751 
L 74.376888 -47.731225 
L 79.535593 -35.091182 
L 84.694299 -76.778307 
L 89.853005 -47.180243 
L 95.01171 -83.240353 
L 100.170416 -155.82246 
L 105.329122 -75.27888 
L 110.487827 -41.322096 
L 115.646533 -40.494839 
L 120.805239 -48.43715 
L 125.963945 -36.667988 
L 131.12265 -35.607483 
L 136.281356 -37.62644 
L 141.440062 -72.000758 
L 146.598767 -84.228822 
L 151.757473 -58.567957 
L 156.916179 -59.348848 
L 162.074884 -58.868534 
L 167.23359 -43.576962 
L 172.392296 -43.576962 
L 177.551002 -80.152402 
L 182.709707 -43.450656 
L 187.868413 -57.556427 
L 193.027119 -44.081077 
L 198.185824 -42.645587 
L 203.34453 -54.949115 
L 208.503236 -52.35859 
L 213.661941 -71.355931 
L 218.820647 -55.441807 
L 223.979353 -208.02789 
L 229.138059 -67.012808 
L 234.296764 -55.449338 
L 239.45547 -49.840896 
L 244.614176 -54.069769 
L 249.772881 -58.79478 
L 254.931587 -58.796597 
L 260.090293 -58.796597 
L 265.248998 -58.79623 
L 270.407704 -58.791631 
L 275.56641 -58.789826 
L 280.725116 -137.701045 
L 285.883821 -244.691854 
L 291.042527 -244.667346 
L 296.201233 -244.691854 
L 301.359938 -244.691854 
L 306.518644 -244.667346 
L 311.67735 -244.691854 
L 316.836055 -244.691854 
L 321.994761 -244.691854 
L 327.153467 -244.803556 
L 332.312173 -244.691854 
L 337.470878 -244.803556 
L 342.629584 -244.803556 
L 347.78829 -244.803556 
L 352.946995 -244.803556 
L 358.105701 -244.803556 
L 363.264407 -244.803556 
L 368.423112 -244.803556 
L 373.581818 -244.803556 
L 373.581818 -244.803556 
L 373.581818 -244.803556 
L 368.423112 -244.803556 
L 363.264407 -244.803556 
L 358.105701 -244.803556 
L 352.946995 -244.803556 
L 347.78829 -244.803556 
L 342.629584 -244.803556 
L 337.470878 -244.803556 
L 332.312173 -244.691854 
L 327.153467 -244.803556 
L 321.994761 -244.691854 
L 316.836055 -244.691854 
L 311.67735 -244.691854 
L 306.518644 -244.667346 
L 301.359938 -244.691854 
L 296.201233 -244.691854 
L 291.042527 -244.667346 
L 285.883821 -244.691854 
L 280.725116 -137.701045 
L 275.56641 -58.789826 
L 270.407704 -58.791631 
L 265.248998 -58.79623 
L 260.090293 -58.796597 
L 254.931587 -58.796597 
L 249.772881 -58.79478 
L 244.614176 -54.069769 
L 239.45547 -49.840896 
L 234.296764 -55.449338 
L 229.138059 -67.012808 
L 223.979353 -208.02789 
L 218.820647 -55.441807 
L 213.661941 -71.355931 
L 208.503236 -52.35859 
L 203.34453 -54.949115 
L 198.185824 -42.645587 
L 193.027119 -44.081077 
L 187.868413 -57.556427 
L 182.709707 -43.450656 
L 177.551002 -80.152402 
L 172.392296 -43.576962 
L 167.23359 -43.576962 
L 162.074884 -58.868534 
L 156.916179 -59.348848 
L 151.757473 -58.567957 
L 146.598767 -84.228822 
L 141.440062 -72.000758 
L 136.281356 -37.62644 
L 131.12265 -35.607483 
L 125.963945 -36.667988 
L 120.805239 -48.43715 
L 115.646533 -40.494839 
L 110.487827 -41.322096 
L 105.329122 -75.27888 
L 100.170416 -155.82246 
L 95.01171 -83.240353 
L 89.853005 -47.180243 
L 84.694299 -76.778307 
L 79.535593 -35.091182 
L 74.376888 -47.731225 
L 69.218182 -34.272751 
z
" style="stroke: #ff7763; stroke-opacity: 0.2"/>
    </defs>
    <g clip-path="url(#p885ccc0aa0)">
     <use xlink:href="#m2663c6baee" x="0" y="288" style="fill: #ff7763; fill-opacity: 0.2; stroke: #ff7763; stroke-opacity: 0.2"/>
    </g>
   </g>
   <g id="PolyCollection_4">
    <defs>
     <path id="m955631e441" d="M 69.218182 -34.913044 
L 69.218182 -34.913044 
L 74.376888 -32.252199 
L 79.535593 -35.091182 
L 84.694299 -34.94842 
L 89.853005 -35.091182 
L 95.01171 -35.016892 
L 100.170416 -34.930876 
L 105.329122 -35.450693 
L 110.487827 -35.091182 
L 115.646533 -45.514923 
L 120.805239 -34.5624 
L 125.963945 -35.329158 
L 131.12265 -35.088568 
L 136.281356 -34.99782 
L 141.440062 -35.089283 
L 146.598767 -37.442904 
L 151.757473 -35.091182 
L 156.916179 -35.091182 
L 162.074884 -35.091182 
L 167.23359 -35.085618 
L 172.392296 -35.041718 
L 177.551002 -35.091182 
L 182.709707 -35.075984 
L 187.868413 -35.606241 
L 193.027119 -34.425254 
L 198.185824 -36.506697 
L 203.34453 -35.090282 
L 208.503236 -34.980683 
L 213.661941 -35.091182 
L 218.820647 -136.398198 
L 223.979353 -205.943459 
L 229.138059 -128.072413 
L 234.296764 -104.278627 
L 239.45547 -114.815019 
L 244.614176 -107.785245 
L 249.772881 -107.785245 
L 254.931587 -80.309159 
L 260.090293 -80.916364 
L 265.248998 -81.829078 
L 270.407704 -117.986712 
L 275.56641 -136.268717 
L 280.725116 -136.268717 
L 285.883821 -136.268717 
L 291.042527 -137.786492 
L 296.201233 -240.209765 
L 301.359938 -240.209765 
L 306.518644 -240.209765 
L 311.67735 -240.397789 
L 316.836055 -231.118183 
L 321.994761 -240.397789 
L 327.153467 -240.397789 
L 332.312173 -240.209765 
L 337.470878 -240.397789 
L 342.629584 -240.397789 
L 347.78829 -244.666095 
L 352.946995 -240.397789 
L 358.105701 -244.666095 
L 363.264407 -244.666095 
L 368.423112 -244.666095 
L 373.581818 -245.061068 
L 373.581818 -245.061068 
L 373.581818 -245.061068 
L 368.423112 -244.666095 
L 363.264407 -244.666095 
L 358.105701 -244.666095 
L 352.946995 -240.397789 
L 347.78829 -244.666095 
L 342.629584 -240.397789 
L 337.470878 -240.397789 
L 332.312173 -240.209765 
L 327.153467 -240.397789 
L 321.994761 -240.397789 
L 316.836055 -231.118183 
L 311.67735 -240.397789 
L 306.518644 -240.209765 
L 301.359938 -240.209765 
L 296.201233 -240.209765 
L 291.042527 -137.786492 
L 285.883821 -136.268717 
L 280.725116 -136.268717 
L 275.56641 -136.268717 
L 270.407704 -117.986712 
L 265.248998 -81.829078 
L 260.090293 -80.916364 
L 254.931587 -80.309159 
L 249.772881 -107.785245 
L 244.614176 -107.785245 
L 239.45547 -114.815019 
L 234.296764 -104.278627 
L 229.138059 -128.072413 
L 223.979353 -205.943459 
L 218.820647 -136.398198 
L 213.661941 -35.091182 
L 208.503236 -34.980683 
L 203.34453 -35.090282 
L 198.185824 -36.506697 
L 193.027119 -34.425254 
L 187.868413 -35.606241 
L 182.709707 -35.075984 
L 177.551002 -35.091182 
L 172.392296 -35.041718 
L 167.23359 -35.085618 
L 162.074884 -35.091182 
L 156.916179 -35.091182 
L 151.757473 -35.091182 
L 146.598767 -37.442904 
L 141.440062 -35.089283 
L 136.281356 -34.99782 
L 131.12265 -35.088568 
L 125.963945 -35.329158 
L 120.805239 -34.5624 
L 115.646533 -45.514923 
L 110.487827 -35.091182 
L 105.329122 -35.450693 
L 100.170416 -34.930876 
L 95.01171 -35.016892 
L 89.853005 -35.091182 
L 84.694299 -34.94842 
L 79.535593 -35.091182 
L 74.376888 -32.252199 
L 69.218182 -34.913044 
z
" style="stroke: #ffac1e; stroke-opacity: 0.2"/>
    </defs>
    <g clip-path="url(#p885ccc0aa0)">
     <use xlink:href="#m955631e441" x="0" y="288" style="fill: #ffac1e; fill-opacity: 0.2; stroke: #ffac1e; stroke-opacity: 0.2"/>
    </g>
   </g>
   <g id="PolyCollection_5">
    <defs>
     <path id="m1e86ffacf1" d="M 69.218182 -23.324333 
L 69.218182 -23.324333 
L 74.376888 -35.091182 
L 79.535593 -34.743435 
L 84.694299 -34.715159 
L 89.853005 -56.376841 
L 95.01171 -36.087354 
L 100.170416 -34.694357 
L 105.329122 -42.623547 
L 110.487827 -49.919587 
L 115.646533 -34.717356 
L 120.805239 -35.391068 
L 125.963945 -65.271554 
L 131.12265 -34.727932 
L 136.281356 -34.716394 
L 141.440062 -34.716047 
L 146.598767 -35.135646 
L 151.757473 -47.231933 
L 156.916179 -35.007874 
L 162.074884 -34.695196 
L 167.23359 -54.628268 
L 172.392296 -34.715409 
L 177.551002 -34.006375 
L 182.709707 -34.719834 
L 187.868413 -34.69749 
L 193.027119 -60.335853 
L 198.185824 -55.818385 
L 203.34453 -119.039108 
L 208.503236 -130.016895 
L 213.661941 -135.720922 
L 218.820647 -157.105057 
L 223.979353 -167.178104 
L 229.138059 -156.193255 
L 234.296764 -205.038582 
L 239.45547 -214.388888 
L 244.614176 -218.074889 
L 249.772881 -218.070626 
L 254.931587 -218.070626 
L 260.090293 -217.842791 
L 265.248998 -212.739032 
L 270.407704 -233.294704 
L 275.56641 -233.294704 
L 280.725116 -233.294704 
L 285.883821 -233.294704 
L 291.042527 -232.675199 
L 296.201233 -232.675199 
L 301.359938 -232.886752 
L 306.518644 -232.886752 
L 311.67735 -240.861094 
L 316.836055 -241.405106 
L 321.994761 -240.995664 
L 327.153467 -240.995664 
L 332.312173 -245.072755 
L 337.470878 -244.930751 
L 342.629584 -245.072755 
L 347.78829 -245.072574 
L 352.946995 -245.072574 
L 358.105701 -245.072574 
L 363.264407 -245.07571 
L 368.423112 -245.07571 
L 373.581818 -245.07571 
L 373.581818 -245.07571 
L 373.581818 -245.07571 
L 368.423112 -245.07571 
L 363.264407 -245.07571 
L 358.105701 -245.072574 
L 352.946995 -245.072574 
L 347.78829 -245.072574 
L 342.629584 -245.072755 
L 337.470878 -244.930751 
L 332.312173 -245.072755 
L 327.153467 -240.995664 
L 321.994761 -240.995664 
L 316.836055 -241.405106 
L 311.67735 -240.861094 
L 306.518644 -232.886752 
L 301.359938 -232.886752 
L 296.201233 -232.675199 
L 291.042527 -232.675199 
L 285.883821 -233.294704 
L 280.725116 -233.294704 
L 275.56641 -233.294704 
L 270.407704 -233.294704 
L 265.248998 -212.739032 
L 260.090293 -217.842791 
L 254.931587 -218.070626 
L 249.772881 -218.070626 
L 244.614176 -218.074889 
L 239.45547 -214.388888 
L 234.296764 -205.038582 
L 229.138059 -156.193255 
L 223.979353 -167.178104 
L 218.820647 -157.105057 
L 213.661941 -135.720922 
L 208.503236 -130.016895 
L 203.34453 -119.039108 
L 198.185824 -55.818385 
L 193.027119 -60.335853 
L 187.868413 -34.69749 
L 182.709707 -34.719834 
L 177.551002 -34.006375 
L 172.392296 -34.715409 
L 167.23359 -54.628268 
L 162.074884 -34.695196 
L 156.916179 -35.007874 
L 151.757473 -47.231933 
L 146.598767 -35.135646 
L 141.440062 -34.716047 
L 136.281356 -34.716394 
L 131.12265 -34.727932 
L 125.963945 -65.271554 
L 120.805239 -35.391068 
L 115.646533 -34.717356 
L 110.487827 -49.919587 
L 105.329122 -42.623547 
L 100.170416 -34.694357 
L 95.01171 -36.087354 
L 89.853005 -56.376841 
L 84.694299 -34.715159 
L 79.535593 -34.743435 
L 74.376888 -35.091182 
L 69.218182 -23.324333 
z
" style="stroke: #009435; stroke-opacity: 0.2"/>
    </defs>
    <g clip-path="url(#p885ccc0aa0)">
     <use xlink:href="#m1e86ffacf1" x="0" y="288" style="fill: #009435; fill-opacity: 0.2; stroke: #009435; stroke-opacity: 0.2"/>
    </g>
   </g>
   <g id="matplotlib.axis_1">
    <g id="xtick_1">
     <g id="line2d_1">
      <path d="M 69.218182 252 
L 69.218182 34.56 
" clip-path="url(#p885ccc0aa0)" style="fill: none; stroke-dasharray: 2.96,1.28; stroke-dashoffset: 0; stroke: #b0b0b0; stroke-width: 0.8"/>
     </g>
     <g id="line2d_2">
      <defs>
       <path id="m16d73c31b5" d="M 0 0 
L 0 3.5 
" style="stroke: #000000; stroke-width: 0.8"/>
      </defs>
      <g>
       <use xlink:href="#m16d73c31b5" x="69.218182" y="252" style="stroke: #000000; stroke-width: 0.8"/>
      </g>
     </g>
     <g id="text_1">
      <!-- 0 -->
      <g transform="translate(66.036932 266.598437)scale(0.1 -0.1)">
       <defs>
        <path id="DejaVuSans-30" d="M 2034 4250 
Q 1547 4250 1301 3770 
Q 1056 3291 1056 2328 
Q 1056 1369 1301 889 
Q 1547 409 2034 409 
Q 2525 409 2770 889 
Q 3016 1369 3016 2328 
Q 3016 3291 2770 3770 
Q 2525 4250 2034 4250 
z
M 2034 4750 
Q 2819 4750 3233 4129 
Q 3647 3509 3647 2328 
Q 3647 1150 3233 529 
Q 2819 -91 2034 -91 
Q 1250 -91 836 529 
Q 422 1150 422 2328 
Q 422 3509 836 4129 
Q 1250 4750 2034 4750 
z
" transform="scale(0.015625)"/>
       </defs>
       <use xlink:href="#DejaVuSans-30"/>
      </g>
     </g>
    </g>
    <g id="xtick_2">
     <g id="line2d_3">
      <path d="M 120.805239 252 
L 120.805239 34.56 
" clip-path="url(#p885ccc0aa0)" style="fill: none; stroke-dasharray: 2.96,1.28; stroke-dashoffset: 0; stroke: #b0b0b0; stroke-width: 0.8"/>
     </g>
     <g id="line2d_4">
      <g>
       <use xlink:href="#m16d73c31b5" x="120.805239" y="252" style="stroke: #000000; stroke-width: 0.8"/>
      </g>
     </g>
     <g id="text_2">
      <!-- 500 -->
      <g transform="translate(111.261489 266.598437)scale(0.1 -0.1)">
       <defs>
        <path id="DejaVuSans-35" d="M 691 4666 
L 3169 4666 
L 3169 4134 
L 1269 4134 
L 1269 2991 
Q 1406 3038 1543 3061 
Q 1681 3084 1819 3084 
Q 2600 3084 3056 2656 
Q 3513 2228 3513 1497 
Q 3513 744 3044 326 
Q 2575 -91 1722 -91 
Q 1428 -91 1123 -41 
Q 819 9 494 109 
L 494 744 
Q 775 591 1075 516 
Q 1375 441 1709 441 
Q 2250 441 2565 725 
Q 2881 1009 2881 1497 
Q 2881 1984 2565 2268 
Q 2250 2553 1709 2553 
Q 1456 2553 1204 2497 
Q 953 2441 691 2322 
L 691 4666 
z
" transform="scale(0.015625)"/>
       </defs>
       <use xlink:href="#DejaVuSans-35"/>
       <use xlink:href="#DejaVuSans-30" x="63.623047"/>
       <use xlink:href="#DejaVuSans-30" x="127.246094"/>
      </g>
     </g>
    </g>
    <g id="xtick_3">
     <g id="line2d_5">
      <path d="M 172.392296 252 
L 172.392296 34.56 
" clip-path="url(#p885ccc0aa0)" style="fill: none; stroke-dasharray: 2.96,1.28; stroke-dashoffset: 0; stroke: #b0b0b0; stroke-width: 0.8"/>
     </g>
     <g id="line2d_6">
      <g>
       <use xlink:href="#m16d73c31b5" x="172.392296" y="252" style="stroke: #000000; stroke-width: 0.8"/>
      </g>
     </g>
     <g id="text_3">
      <!-- 1000 -->
      <g transform="translate(159.667296 266.598437)scale(0.1 -0.1)">
       <defs>
        <path id="DejaVuSans-31" d="M 794 531 
L 1825 531 
L 1825 4091 
L 703 3866 
L 703 4441 
L 1819 4666 
L 2450 4666 
L 2450 531 
L 3481 531 
L 3481 0 
L 794 0 
L 794 531 
z
" transform="scale(0.015625)"/>
       </defs>
       <use xlink:href="#DejaVuSans-31"/>
       <use xlink:href="#DejaVuSans-30" x="63.623047"/>
       <use xlink:href="#DejaVuSans-30" x="127.246094"/>
       <use xlink:href="#DejaVuSans-30" x="190.869141"/>
      </g>
     </g>
    </g>
    <g id="xtick_4">
     <g id="line2d_7">
      <path d="M 223.979353 252 
L 223.979353 34.56 
" clip-path="url(#p885ccc0aa0)" style="fill: none; stroke-dasharray: 2.96,1.28; stroke-dashoffset: 0; stroke: #b0b0b0; stroke-width: 0.8"/>
     </g>
     <g id="line2d_8">
      <g>
       <use xlink:href="#m16d73c31b5" x="223.979353" y="252" style="stroke: #000000; stroke-width: 0.8"/>
      </g>
     </g>
     <g id="text_4">
      <!-- 1500 -->
      <g transform="translate(211.254353 266.598437)scale(0.1 -0.1)">
       <use xlink:href="#DejaVuSans-31"/>
       <use xlink:href="#DejaVuSans-35" x="63.623047"/>
       <use xlink:href="#DejaVuSans-30" x="127.246094"/>
       <use xlink:href="#DejaVuSans-30" x="190.869141"/>
      </g>
     </g>
    </g>
    <g id="xtick_5">
     <g id="line2d_9">
      <path d="M 275.56641 252 
L 275.56641 34.56 
" clip-path="url(#p885ccc0aa0)" style="fill: none; stroke-dasharray: 2.96,1.28; stroke-dashoffset: 0; stroke: #b0b0b0; stroke-width: 0.8"/>
     </g>
     <g id="line2d_10">
      <g>
       <use xlink:href="#m16d73c31b5" x="275.56641" y="252" style="stroke: #000000; stroke-width: 0.8"/>
      </g>
     </g>
     <g id="text_5">
      <!-- 2000 -->
      <g transform="translate(262.84141 266.598437)scale(0.1 -0.1)">
       <defs>
        <path id="DejaVuSans-32" d="M 1228 531 
L 3431 531 
L 3431 0 
L 469 0 
L 469 531 
Q 828 903 1448 1529 
Q 2069 2156 2228 2338 
Q 2531 2678 2651 2914 
Q 2772 3150 2772 3378 
Q 2772 3750 2511 3984 
Q 2250 4219 1831 4219 
Q 1534 4219 1204 4116 
Q 875 4013 500 3803 
L 500 4441 
Q 881 4594 1212 4672 
Q 1544 4750 1819 4750 
Q 2544 4750 2975 4387 
Q 3406 4025 3406 3419 
Q 3406 3131 3298 2873 
Q 3191 2616 2906 2266 
Q 2828 2175 2409 1742 
Q 1991 1309 1228 531 
z
" transform="scale(0.015625)"/>
       </defs>
       <use xlink:href="#DejaVuSans-32"/>
       <use xlink:href="#DejaVuSans-30" x="63.623047"/>
       <use xlink:href="#DejaVuSans-30" x="127.246094"/>
       <use xlink:href="#DejaVuSans-30" x="190.869141"/>
      </g>
     </g>
    </g>
    <g id="xtick_6">
     <g id="line2d_11">
      <path d="M 327.153467 252 
L 327.153467 34.56 
" clip-path="url(#p885ccc0aa0)" style="fill: none; stroke-dasharray: 2.96,1.28; stroke-dashoffset: 0; stroke: #b0b0b0; stroke-width: 0.8"/>
     </g>
     <g id="line2d_12">
      <g>
       <use xlink:href="#m16d73c31b5" x="327.153467" y="252" style="stroke: #000000; stroke-width: 0.8"/>
      </g>
     </g>
     <g id="text_6">
      <!-- 2500 -->
      <g transform="translate(314.428467 266.598437)scale(0.1 -0.1)">
       <use xlink:href="#DejaVuSans-32"/>
       <use xlink:href="#DejaVuSans-35" x="63.623047"/>
       <use xlink:href="#DejaVuSans-30" x="127.246094"/>
       <use xlink:href="#DejaVuSans-30" x="190.869141"/>
      </g>
     </g>
    </g>
    <g id="xtick_7">
     <g id="line2d_13">
      <path d="M 378.740524 252 
L 378.740524 34.56 
" clip-path="url(#p885ccc0aa0)" style="fill: none; stroke-dasharray: 2.96,1.28; stroke-dashoffset: 0; stroke: #b0b0b0; stroke-width: 0.8"/>
     </g>
     <g id="line2d_14">
      <g>
       <use xlink:href="#m16d73c31b5" x="378.740524" y="252" style="stroke: #000000; stroke-width: 0.8"/>
      </g>
     </g>
     <g id="text_7">
      <!-- 3000 -->
      <g transform="translate(366.015524 266.598437)scale(0.1 -0.1)">
       <defs>
        <path id="DejaVuSans-33" d="M 2597 2516 
Q 3050 2419 3304 2112 
Q 3559 1806 3559 1356 
Q 3559 666 3084 287 
Q 2609 -91 1734 -91 
Q 1441 -91 1130 -33 
Q 819 25 488 141 
L 488 750 
Q 750 597 1062 519 
Q 1375 441 1716 441 
Q 2309 441 2620 675 
Q 2931 909 2931 1356 
Q 2931 1769 2642 2001 
Q 2353 2234 1838 2234 
L 1294 2234 
L 1294 2753 
L 1863 2753 
Q 2328 2753 2575 2939 
Q 2822 3125 2822 3475 
Q 2822 3834 2567 4026 
Q 2313 4219 1838 4219 
Q 1578 4219 1281 4162 
Q 984 4106 628 3988 
L 628 4550 
Q 988 4650 1302 4700 
Q 1616 4750 1894 4750 
Q 2613 4750 3031 4423 
Q 3450 4097 3450 3541 
Q 3450 3153 3228 2886 
Q 3006 2619 2597 2516 
z
" transform="scale(0.015625)"/>
       </defs>
       <use xlink:href="#DejaVuSans-33"/>
       <use xlink:href="#DejaVuSans-30" x="63.623047"/>
       <use xlink:href="#DejaVuSans-30" x="127.246094"/>
       <use xlink:href="#DejaVuSans-30" x="190.869141"/>
      </g>
     </g>
    </g>
    <g id="text_8">
     <!-- Steps -->
     <g transform="translate(207.410156 280.276563)scale(0.1 -0.1)">
      <defs>
       <path id="DejaVuSans-53" d="M 3425 4513 
L 3425 3897 
Q 3066 4069 2747 4153 
Q 2428 4238 2131 4238 
Q 1616 4238 1336 4038 
Q 1056 3838 1056 3469 
Q 1056 3159 1242 3001 
Q 1428 2844 1947 2747 
L 2328 2669 
Q 3034 2534 3370 2195 
Q 3706 1856 3706 1288 
Q 3706 609 3251 259 
Q 2797 -91 1919 -91 
Q 1588 -91 1214 -16 
Q 841 59 441 206 
L 441 856 
Q 825 641 1194 531 
Q 1563 422 1919 422 
Q 2459 422 2753 634 
Q 3047 847 3047 1241 
Q 3047 1584 2836 1778 
Q 2625 1972 2144 2069 
L 1759 2144 
Q 1053 2284 737 2584 
Q 422 2884 422 3419 
Q 422 4038 858 4394 
Q 1294 4750 2059 4750 
Q 2388 4750 2728 4690 
Q 3069 4631 3425 4513 
z
" transform="scale(0.015625)"/>
       <path id="DejaVuSans-74" d="M 1172 4494 
L 1172 3500 
L 2356 3500 
L 2356 3053 
L 1172 3053 
L 1172 1153 
Q 1172 725 1289 603 
Q 1406 481 1766 481 
L 2356 481 
L 2356 0 
L 1766 0 
Q 1100 0 847 248 
Q 594 497 594 1153 
L 594 3053 
L 172 3053 
L 172 3500 
L 594 3500 
L 594 4494 
L 1172 4494 
z
" transform="scale(0.015625)"/>
       <path id="DejaVuSans-65" d="M 3597 1894 
L 3597 1613 
L 953 1613 
Q 991 1019 1311 708 
Q 1631 397 2203 397 
Q 2534 397 2845 478 
Q 3156 559 3463 722 
L 3463 178 
Q 3153 47 2828 -22 
Q 2503 -91 2169 -91 
Q 1331 -91 842 396 
Q 353 884 353 1716 
Q 353 2575 817 3079 
Q 1281 3584 2069 3584 
Q 2775 3584 3186 3129 
Q 3597 2675 3597 1894 
z
M 3022 2063 
Q 3016 2534 2758 2815 
Q 2500 3097 2075 3097 
Q 1594 3097 1305 2825 
Q 1016 2553 972 2059 
L 3022 2063 
z
" transform="scale(0.015625)"/>
       <path id="DejaVuSans-70" d="M 1159 525 
L 1159 -1331 
L 581 -1331 
L 581 3500 
L 1159 3500 
L 1159 2969 
Q 1341 3281 1617 3432 
Q 1894 3584 2278 3584 
Q 2916 3584 3314 3078 
Q 3713 2572 3713 1747 
Q 3713 922 3314 415 
Q 2916 -91 2278 -91 
Q 1894 -91 1617 61 
Q 1341 213 1159 525 
z
M 3116 1747 
Q 3116 2381 2855 2742 
Q 2594 3103 2138 3103 
Q 1681 3103 1420 2742 
Q 1159 2381 1159 1747 
Q 1159 1113 1420 752 
Q 1681 391 2138 391 
Q 2594 391 2855 752 
Q 3116 1113 3116 1747 
z
" transform="scale(0.015625)"/>
       <path id="DejaVuSans-73" d="M 2834 3397 
L 2834 2853 
Q 2591 2978 2328 3040 
Q 2066 3103 1784 3103 
Q 1356 3103 1142 2972 
Q 928 2841 928 2578 
Q 928 2378 1081 2264 
Q 1234 2150 1697 2047 
L 1894 2003 
Q 2506 1872 2764 1633 
Q 3022 1394 3022 966 
Q 3022 478 2636 193 
Q 2250 -91 1575 -91 
Q 1294 -91 989 -36 
Q 684 19 347 128 
L 347 722 
Q 666 556 975 473 
Q 1284 391 1588 391 
Q 1994 391 2212 530 
Q 2431 669 2431 922 
Q 2431 1156 2273 1281 
Q 2116 1406 1581 1522 
L 1381 1569 
Q 847 1681 609 1914 
Q 372 2147 372 2553 
Q 372 3047 722 3315 
Q 1072 3584 1716 3584 
Q 2034 3584 2315 3537 
Q 2597 3491 2834 3397 
z
" transform="scale(0.015625)"/>
      </defs>
      <use xlink:href="#DejaVuSans-53"/>
      <use xlink:href="#DejaVuSans-74" x="63.476562"/>
      <use xlink:href="#DejaVuSans-65" x="102.685547"/>
      <use xlink:href="#DejaVuSans-70" x="164.208984"/>
      <use xlink:href="#DejaVuSans-73" x="227.685547"/>
     </g>
    </g>
   </g>
   <g id="matplotlib.axis_2">
    <g id="ytick_1">
     <g id="line2d_15">
      <path d="M 54 243.636923 
L 388.8 243.636923 
" clip-path="url(#p885ccc0aa0)" style="fill: none; stroke-dasharray: 2.96,1.28; stroke-dashoffset: 0; stroke: #b0b0b0; stroke-width: 0.8"/>
     </g>
     <g id="line2d_16">
      <defs>
       <path id="mba4ff78c35" d="M 0 0 
L -3.5 0 
" style="stroke: #000000; stroke-width: 0.8"/>
      </defs>
      <g>
       <use xlink:href="#mba4ff78c35" x="54" y="243.636923" style="stroke: #000000; stroke-width: 0.8"/>
      </g>
     </g>
     <g id="text_9">
      <!-- −12 -->
      <g transform="translate(25.895312 247.436142)scale(0.1 -0.1)">
       <defs>
        <path id="DejaVuSans-2212" d="M 678 2272 
L 4684 2272 
L 4684 1741 
L 678 1741 
L 678 2272 
z
" transform="scale(0.015625)"/>
       </defs>
       <use xlink:href="#DejaVuSans-2212"/>
       <use xlink:href="#DejaVuSans-31" x="83.789062"/>
       <use xlink:href="#DejaVuSans-32" x="147.412109"/>
      </g>
     </g>
    </g>
    <g id="ytick_2">
     <g id="line2d_17">
      <path d="M 54 210.184615 
L 388.8 210.184615 
" clip-path="url(#p885ccc0aa0)" style="fill: none; stroke-dasharray: 2.96,1.28; stroke-dashoffset: 0; stroke: #b0b0b0; stroke-width: 0.8"/>
     </g>
     <g id="line2d_18">
      <g>
       <use xlink:href="#mba4ff78c35" x="54" y="210.184615" style="stroke: #000000; stroke-width: 0.8"/>
      </g>
     </g>
     <g id="text_10">
      <!-- −10 -->
      <g transform="translate(25.895312 213.983834)scale(0.1 -0.1)">
       <use xlink:href="#DejaVuSans-2212"/>
       <use xlink:href="#DejaVuSans-31" x="83.789062"/>
       <use xlink:href="#DejaVuSans-30" x="147.412109"/>
      </g>
     </g>
    </g>
    <g id="ytick_3">
     <g id="line2d_19">
      <path d="M 54 176.732308 
L 388.8 176.732308 
" clip-path="url(#p885ccc0aa0)" style="fill: none; stroke-dasharray: 2.96,1.28; stroke-dashoffset: 0; stroke: #b0b0b0; stroke-width: 0.8"/>
     </g>
     <g id="line2d_20">
      <g>
       <use xlink:href="#mba4ff78c35" x="54" y="176.732308" style="stroke: #000000; stroke-width: 0.8"/>
      </g>
     </g>
     <g id="text_11">
      <!-- −8 -->
      <g transform="translate(32.257812 180.531526)scale(0.1 -0.1)">
       <defs>
        <path id="DejaVuSans-38" d="M 2034 2216 
Q 1584 2216 1326 1975 
Q 1069 1734 1069 1313 
Q 1069 891 1326 650 
Q 1584 409 2034 409 
Q 2484 409 2743 651 
Q 3003 894 3003 1313 
Q 3003 1734 2745 1975 
Q 2488 2216 2034 2216 
z
M 1403 2484 
Q 997 2584 770 2862 
Q 544 3141 544 3541 
Q 544 4100 942 4425 
Q 1341 4750 2034 4750 
Q 2731 4750 3128 4425 
Q 3525 4100 3525 3541 
Q 3525 3141 3298 2862 
Q 3072 2584 2669 2484 
Q 3125 2378 3379 2068 
Q 3634 1759 3634 1313 
Q 3634 634 3220 271 
Q 2806 -91 2034 -91 
Q 1263 -91 848 271 
Q 434 634 434 1313 
Q 434 1759 690 2068 
Q 947 2378 1403 2484 
z
M 1172 3481 
Q 1172 3119 1398 2916 
Q 1625 2713 2034 2713 
Q 2441 2713 2670 2916 
Q 2900 3119 2900 3481 
Q 2900 3844 2670 4047 
Q 2441 4250 2034 4250 
Q 1625 4250 1398 4047 
Q 1172 3844 1172 3481 
z
" transform="scale(0.015625)"/>
       </defs>
       <use xlink:href="#DejaVuSans-2212"/>
       <use xlink:href="#DejaVuSans-38" x="83.789062"/>
      </g>
     </g>
    </g>
    <g id="ytick_4">
     <g id="line2d_21">
      <path d="M 54 143.28 
L 388.8 143.28 
" clip-path="url(#p885ccc0aa0)" style="fill: none; stroke-dasharray: 2.96,1.28; stroke-dashoffset: 0; stroke: #b0b0b0; stroke-width: 0.8"/>
     </g>
     <g id="line2d_22">
      <g>
       <use xlink:href="#mba4ff78c35" x="54" y="143.28" style="stroke: #000000; stroke-width: 0.8"/>
      </g>
     </g>
     <g id="text_12">
      <!-- −6 -->
      <g transform="translate(32.257812 147.079219)scale(0.1 -0.1)">
       <defs>
        <path id="DejaVuSans-36" d="M 2113 2584 
Q 1688 2584 1439 2293 
Q 1191 2003 1191 1497 
Q 1191 994 1439 701 
Q 1688 409 2113 409 
Q 2538 409 2786 701 
Q 3034 994 3034 1497 
Q 3034 2003 2786 2293 
Q 2538 2584 2113 2584 
z
M 3366 4563 
L 3366 3988 
Q 3128 4100 2886 4159 
Q 2644 4219 2406 4219 
Q 1781 4219 1451 3797 
Q 1122 3375 1075 2522 
Q 1259 2794 1537 2939 
Q 1816 3084 2150 3084 
Q 2853 3084 3261 2657 
Q 3669 2231 3669 1497 
Q 3669 778 3244 343 
Q 2819 -91 2113 -91 
Q 1303 -91 875 529 
Q 447 1150 447 2328 
Q 447 3434 972 4092 
Q 1497 4750 2381 4750 
Q 2619 4750 2861 4703 
Q 3103 4656 3366 4563 
z
" transform="scale(0.015625)"/>
       </defs>
       <use xlink:href="#DejaVuSans-2212"/>
       <use xlink:href="#DejaVuSans-36" x="83.789062"/>
      </g>
     </g>
    </g>
    <g id="ytick_5">
     <g id="line2d_23">
      <path d="M 54 109.827692 
L 388.8 109.827692 
" clip-path="url(#p885ccc0aa0)" style="fill: none; stroke-dasharray: 2.96,1.28; stroke-dashoffset: 0; stroke: #b0b0b0; stroke-width: 0.8"/>
     </g>
     <g id="line2d_24">
      <g>
       <use xlink:href="#mba4ff78c35" x="54" y="109.827692" style="stroke: #000000; stroke-width: 0.8"/>
      </g>
     </g>
     <g id="text_13">
      <!-- −4 -->
      <g transform="translate(32.257812 113.626911)scale(0.1 -0.1)">
       <defs>
        <path id="DejaVuSans-34" d="M 2419 4116 
L 825 1625 
L 2419 1625 
L 2419 4116 
z
M 2253 4666 
L 3047 4666 
L 3047 1625 
L 3713 1625 
L 3713 1100 
L 3047 1100 
L 3047 0 
L 2419 0 
L 2419 1100 
L 313 1100 
L 313 1709 
L 2253 4666 
z
" transform="scale(0.015625)"/>
       </defs>
       <use xlink:href="#DejaVuSans-2212"/>
       <use xlink:href="#DejaVuSans-34" x="83.789062"/>
      </g>
     </g>
    </g>
    <g id="ytick_6">
     <g id="line2d_25">
      <path d="M 54 76.375385 
L 388.8 76.375385 
" clip-path="url(#p885ccc0aa0)" style="fill: none; stroke-dasharray: 2.96,1.28; stroke-dashoffset: 0; stroke: #b0b0b0; stroke-width: 0.8"/>
     </g>
     <g id="line2d_26">
      <g>
       <use xlink:href="#mba4ff78c35" x="54" y="76.375385" style="stroke: #000000; stroke-width: 0.8"/>
      </g>
     </g>
     <g id="text_14">
      <!-- −2 -->
      <g transform="translate(32.257812 80.174603)scale(0.1 -0.1)">
       <use xlink:href="#DejaVuSans-2212"/>
       <use xlink:href="#DejaVuSans-32" x="83.789062"/>
      </g>
     </g>
    </g>
    <g id="ytick_7">
     <g id="line2d_27">
      <path d="M 54 42.923077 
L 388.8 42.923077 
" clip-path="url(#p885ccc0aa0)" style="fill: none; stroke-dasharray: 2.96,1.28; stroke-dashoffset: 0; stroke: #b0b0b0; stroke-width: 0.8"/>
     </g>
     <g id="line2d_28">
      <g>
       <use xlink:href="#mba4ff78c35" x="54" y="42.923077" style="stroke: #000000; stroke-width: 0.8"/>
      </g>
     </g>
     <g id="text_15">
      <!-- 0 -->
      <g transform="translate(40.6375 46.722296)scale(0.1 -0.1)">
       <use xlink:href="#DejaVuSans-30"/>
      </g>
     </g>
    </g>
    <g id="text_16">
     <!-- Policy value error -->
     <g transform="translate(19.815625 186.597969)rotate(-90)scale(0.1 -0.1)">
      <defs>
       <path id="DejaVuSans-50" d="M 1259 4147 
L 1259 2394 
L 2053 2394 
Q 2494 2394 2734 2622 
Q 2975 2850 2975 3272 
Q 2975 3691 2734 3919 
Q 2494 4147 2053 4147 
L 1259 4147 
z
M 628 4666 
L 2053 4666 
Q 2838 4666 3239 4311 
Q 3641 3956 3641 3272 
Q 3641 2581 3239 2228 
Q 2838 1875 2053 1875 
L 1259 1875 
L 1259 0 
L 628 0 
L 628 4666 
z
" transform="scale(0.015625)"/>
       <path id="DejaVuSans-6f" d="M 1959 3097 
Q 1497 3097 1228 2736 
Q 959 2375 959 1747 
Q 959 1119 1226 758 
Q 1494 397 1959 397 
Q 2419 397 2687 759 
Q 2956 1122 2956 1747 
Q 2956 2369 2687 2733 
Q 2419 3097 1959 3097 
z
M 1959 3584 
Q 2709 3584 3137 3096 
Q 3566 2609 3566 1747 
Q 3566 888 3137 398 
Q 2709 -91 1959 -91 
Q 1206 -91 779 398 
Q 353 888 353 1747 
Q 353 2609 779 3096 
Q 1206 3584 1959 3584 
z
" transform="scale(0.015625)"/>
       <path id="DejaVuSans-6c" d="M 603 4863 
L 1178 4863 
L 1178 0 
L 603 0 
L 603 4863 
z
" transform="scale(0.015625)"/>
       <path id="DejaVuSans-69" d="M 603 3500 
L 1178 3500 
L 1178 0 
L 603 0 
L 603 3500 
z
M 603 4863 
L 1178 4863 
L 1178 4134 
L 603 4134 
L 603 4863 
z
" transform="scale(0.015625)"/>
       <path id="DejaVuSans-63" d="M 3122 3366 
L 3122 2828 
Q 2878 2963 2633 3030 
Q 2388 3097 2138 3097 
Q 1578 3097 1268 2742 
Q 959 2388 959 1747 
Q 959 1106 1268 751 
Q 1578 397 2138 397 
Q 2388 397 2633 464 
Q 2878 531 3122 666 
L 3122 134 
Q 2881 22 2623 -34 
Q 2366 -91 2075 -91 
Q 1284 -91 818 406 
Q 353 903 353 1747 
Q 353 2603 823 3093 
Q 1294 3584 2113 3584 
Q 2378 3584 2631 3529 
Q 2884 3475 3122 3366 
z
" transform="scale(0.015625)"/>
       <path id="DejaVuSans-79" d="M 2059 -325 
Q 1816 -950 1584 -1140 
Q 1353 -1331 966 -1331 
L 506 -1331 
L 506 -850 
L 844 -850 
Q 1081 -850 1212 -737 
Q 1344 -625 1503 -206 
L 1606 56 
L 191 3500 
L 800 3500 
L 1894 763 
L 2988 3500 
L 3597 3500 
L 2059 -325 
z
" transform="scale(0.015625)"/>
       <path id="DejaVuSans-20" transform="scale(0.015625)"/>
       <path id="DejaVuSans-76" d="M 191 3500 
L 800 3500 
L 1894 563 
L 2988 3500 
L 3597 3500 
L 2284 0 
L 1503 0 
L 191 3500 
z
" transform="scale(0.015625)"/>
       <path id="DejaVuSans-61" d="M 2194 1759 
Q 1497 1759 1228 1600 
Q 959 1441 959 1056 
Q 959 750 1161 570 
Q 1363 391 1709 391 
Q 2188 391 2477 730 
Q 2766 1069 2766 1631 
L 2766 1759 
L 2194 1759 
z
M 3341 1997 
L 3341 0 
L 2766 0 
L 2766 531 
Q 2569 213 2275 61 
Q 1981 -91 1556 -91 
Q 1019 -91 701 211 
Q 384 513 384 1019 
Q 384 1609 779 1909 
Q 1175 2209 1959 2209 
L 2766 2209 
L 2766 2266 
Q 2766 2663 2505 2880 
Q 2244 3097 1772 3097 
Q 1472 3097 1187 3025 
Q 903 2953 641 2809 
L 641 3341 
Q 956 3463 1253 3523 
Q 1550 3584 1831 3584 
Q 2591 3584 2966 3190 
Q 3341 2797 3341 1997 
z
" transform="scale(0.015625)"/>
       <path id="DejaVuSans-75" d="M 544 1381 
L 544 3500 
L 1119 3500 
L 1119 1403 
Q 1119 906 1312 657 
Q 1506 409 1894 409 
Q 2359 409 2629 706 
Q 2900 1003 2900 1516 
L 2900 3500 
L 3475 3500 
L 3475 0 
L 2900 0 
L 2900 538 
Q 2691 219 2414 64 
Q 2138 -91 1772 -91 
Q 1169 -91 856 284 
Q 544 659 544 1381 
z
M 1991 3584 
L 1991 3584 
z
" transform="scale(0.015625)"/>
       <path id="DejaVuSans-72" d="M 2631 2963 
Q 2534 3019 2420 3045 
Q 2306 3072 2169 3072 
Q 1681 3072 1420 2755 
Q 1159 2438 1159 1844 
L 1159 0 
L 581 0 
L 581 3500 
L 1159 3500 
L 1159 2956 
Q 1341 3275 1631 3429 
Q 1922 3584 2338 3584 
Q 2397 3584 2469 3576 
Q 2541 3569 2628 3553 
L 2631 2963 
z
" transform="scale(0.015625)"/>
      </defs>
      <use xlink:href="#DejaVuSans-50"/>
      <use xlink:href="#DejaVuSans-6f" x="56.677734"/>
      <use xlink:href="#DejaVuSans-6c" x="117.859375"/>
      <use xlink:href="#DejaVuSans-69" x="145.642578"/>
      <use xlink:href="#DejaVuSans-63" x="173.425781"/>
      <use xlink:href="#DejaVuSans-79" x="228.40625"/>
      <use xlink:href="#DejaVuSans-20" x="287.585938"/>
      <use xlink:href="#DejaVuSans-76" x="319.373047"/>
      <use xlink:href="#DejaVuSans-61" x="378.552734"/>
      <use xlink:href="#DejaVuSans-6c" x="439.832031"/>
      <use xlink:href="#DejaVuSans-75" x="467.615234"/>
      <use xlink:href="#DejaVuSans-65" x="530.994141"/>
      <use xlink:href="#DejaVuSans-20" x="592.517578"/>
      <use xlink:href="#DejaVuSans-65" x="624.304688"/>
      <use xlink:href="#DejaVuSans-72" x="685.828125"/>
      <use xlink:href="#DejaVuSans-72" x="725.191406"/>
      <use xlink:href="#DejaVuSans-6f" x="764.054688"/>
      <use xlink:href="#DejaVuSans-72" x="825.236328"/>
     </g>
    </g>
   </g>
   <g id="line2d_29">
    <path d="M 69.218182 252.974796 
L 74.376888 255.411891 
L 79.535593 255.213563 
L 84.694299 199.930147 
L 89.853005 120.241084 
L 95.01171 87.461545 
L 100.170416 113.358242 
L 105.329122 83.856293 
L 110.487827 86.132609 
L 115.646533 69.837539 
L 120.805239 77.497122 
L 125.963945 76.7574 
L 131.12265 76.7574 
L 136.281356 53.747534 
L 141.440062 59.068754 
L 146.598767 74.674246 
L 151.757473 68.710084 
L 156.916179 78.484525 
L 162.074884 82.445455 
L 167.23359 78.484525 
L 172.392296 78.484525 
L 177.551002 78.310079 
L 182.709707 77.93441 
L 187.868413 77.828427 
L 193.027119 77.828427 
L 198.185824 77.828427 
L 203.34453 77.828427 
L 208.503236 63.598611 
L 213.661941 63.598611 
L 218.820647 63.598611 
L 223.979353 63.598611 
L 229.138059 43.325763 
L 234.296764 63.598611 
L 239.45547 63.598611 
L 244.614176 63.598611 
L 249.772881 62.971615 
L 254.931587 63.598611 
L 260.090293 63.721014 
L 265.248998 78.579015 
L 270.407704 78.579015 
L 275.56641 63.598611 
L 280.725116 63.598611 
L 285.883821 43.325763 
L 291.042527 43.325763 
L 296.201233 43.325763 
L 301.359938 44.454703 
L 306.518644 43.493836 
L 311.67735 43.493836 
L 316.836055 43.493836 
L 321.994761 43.493836 
L 327.153467 43.493836 
L 332.312173 43.493836 
L 337.470878 43.493836 
L 342.629584 43.493836 
L 347.78829 43.493836 
L 352.946995 43.493836 
L 358.105701 43.325763 
L 363.264407 43.493836 
L 368.423112 43.493836 
L 373.581818 43.493836 
" clip-path="url(#p885ccc0aa0)" style="fill: none; stroke: #9d02d7; stroke-width: 1.5; stroke-linecap: square"/>
    <defs>
     <path id="mbfccd60341" d="M 0 -2 
L -2 2 
L 2 2 
z
" style="stroke: #9d02d7; stroke-linejoin: miter"/>
    </defs>
    <g clip-path="url(#p885ccc0aa0)">
     <use xlink:href="#mbfccd60341" x="69.218182" y="252.974796" style="fill: #9d02d7; stroke: #9d02d7; stroke-linejoin: miter"/>
     <use xlink:href="#mbfccd60341" x="74.376888" y="255.411891" style="fill: #9d02d7; stroke: #9d02d7; stroke-linejoin: miter"/>
     <use xlink:href="#mbfccd60341" x="79.535593" y="255.213563" style="fill: #9d02d7; stroke: #9d02d7; stroke-linejoin: miter"/>
     <use xlink:href="#mbfccd60341" x="84.694299" y="199.930147" style="fill: #9d02d7; stroke: #9d02d7; stroke-linejoin: miter"/>
     <use xlink:href="#mbfccd60341" x="89.853005" y="120.241084" style="fill: #9d02d7; stroke: #9d02d7; stroke-linejoin: miter"/>
     <use xlink:href="#mbfccd60341" x="95.01171" y="87.461545" style="fill: #9d02d7; stroke: #9d02d7; stroke-linejoin: miter"/>
     <use xlink:href="#mbfccd60341" x="100.170416" y="113.358242" style="fill: #9d02d7; stroke: #9d02d7; stroke-linejoin: miter"/>
     <use xlink:href="#mbfccd60341" x="105.329122" y="83.856293" style="fill: #9d02d7; stroke: #9d02d7; stroke-linejoin: miter"/>
     <use xlink:href="#mbfccd60341" x="110.487827" y="86.132609" style="fill: #9d02d7; stroke: #9d02d7; stroke-linejoin: miter"/>
     <use xlink:href="#mbfccd60341" x="115.646533" y="69.837539" style="fill: #9d02d7; stroke: #9d02d7; stroke-linejoin: miter"/>
     <use xlink:href="#mbfccd60341" x="120.805239" y="77.497122" style="fill: #9d02d7; stroke: #9d02d7; stroke-linejoin: miter"/>
     <use xlink:href="#mbfccd60341" x="125.963945" y="76.7574" style="fill: #9d02d7; stroke: #9d02d7; stroke-linejoin: miter"/>
     <use xlink:href="#mbfccd60341" x="131.12265" y="76.7574" style="fill: #9d02d7; stroke: #9d02d7; stroke-linejoin: miter"/>
     <use xlink:href="#mbfccd60341" x="136.281356" y="53.747534" style="fill: #9d02d7; stroke: #9d02d7; stroke-linejoin: miter"/>
     <use xlink:href="#mbfccd60341" x="141.440062" y="59.068754" style="fill: #9d02d7; stroke: #9d02d7; stroke-linejoin: miter"/>
     <use xlink:href="#mbfccd60341" x="146.598767" y="74.674246" style="fill: #9d02d7; stroke: #9d02d7; stroke-linejoin: miter"/>
     <use xlink:href="#mbfccd60341" x="151.757473" y="68.710084" style="fill: #9d02d7; stroke: #9d02d7; stroke-linejoin: miter"/>
     <use xlink:href="#mbfccd60341" x="156.916179" y="78.484525" style="fill: #9d02d7; stroke: #9d02d7; stroke-linejoin: miter"/>
     <use xlink:href="#mbfccd60341" x="162.074884" y="82.445455" style="fill: #9d02d7; stroke: #9d02d7; stroke-linejoin: miter"/>
     <use xlink:href="#mbfccd60341" x="167.23359" y="78.484525" style="fill: #9d02d7; stroke: #9d02d7; stroke-linejoin: miter"/>
     <use xlink:href="#mbfccd60341" x="172.392296" y="78.484525" style="fill: #9d02d7; stroke: #9d02d7; stroke-linejoin: miter"/>
     <use xlink:href="#mbfccd60341" x="177.551002" y="78.310079" style="fill: #9d02d7; stroke: #9d02d7; stroke-linejoin: miter"/>
     <use xlink:href="#mbfccd60341" x="182.709707" y="77.93441" style="fill: #9d02d7; stroke: #9d02d7; stroke-linejoin: miter"/>
     <use xlink:href="#mbfccd60341" x="187.868413" y="77.828427" style="fill: #9d02d7; stroke: #9d02d7; stroke-linejoin: miter"/>
     <use xlink:href="#mbfccd60341" x="193.027119" y="77.828427" style="fill: #9d02d7; stroke: #9d02d7; stroke-linejoin: miter"/>
     <use xlink:href="#mbfccd60341" x="198.185824" y="77.828427" style="fill: #9d02d7; stroke: #9d02d7; stroke-linejoin: miter"/>
     <use xlink:href="#mbfccd60341" x="203.34453" y="77.828427" style="fill: #9d02d7; stroke: #9d02d7; stroke-linejoin: miter"/>
     <use xlink:href="#mbfccd60341" x="208.503236" y="63.598611" style="fill: #9d02d7; stroke: #9d02d7; stroke-linejoin: miter"/>
     <use xlink:href="#mbfccd60341" x="213.661941" y="63.598611" style="fill: #9d02d7; stroke: #9d02d7; stroke-linejoin: miter"/>
     <use xlink:href="#mbfccd60341" x="218.820647" y="63.598611" style="fill: #9d02d7; stroke: #9d02d7; stroke-linejoin: miter"/>
     <use xlink:href="#mbfccd60341" x="223.979353" y="63.598611" style="fill: #9d02d7; stroke: #9d02d7; stroke-linejoin: miter"/>
     <use xlink:href="#mbfccd60341" x="229.138059" y="43.325763" style="fill: #9d02d7; stroke: #9d02d7; stroke-linejoin: miter"/>
     <use xlink:href="#mbfccd60341" x="234.296764" y="63.598611" style="fill: #9d02d7; stroke: #9d02d7; stroke-linejoin: miter"/>
     <use xlink:href="#mbfccd60341" x="239.45547" y="63.598611" style="fill: #9d02d7; stroke: #9d02d7; stroke-linejoin: miter"/>
     <use xlink:href="#mbfccd60341" x="244.614176" y="63.598611" style="fill: #9d02d7; stroke: #9d02d7; stroke-linejoin: miter"/>
     <use xlink:href="#mbfccd60341" x="249.772881" y="62.971615" style="fill: #9d02d7; stroke: #9d02d7; stroke-linejoin: miter"/>
     <use xlink:href="#mbfccd60341" x="254.931587" y="63.598611" style="fill: #9d02d7; stroke: #9d02d7; stroke-linejoin: miter"/>
     <use xlink:href="#mbfccd60341" x="260.090293" y="63.721014" style="fill: #9d02d7; stroke: #9d02d7; stroke-linejoin: miter"/>
     <use xlink:href="#mbfccd60341" x="265.248998" y="78.579015" style="fill: #9d02d7; stroke: #9d02d7; stroke-linejoin: miter"/>
     <use xlink:href="#mbfccd60341" x="270.407704" y="78.579015" style="fill: #9d02d7; stroke: #9d02d7; stroke-linejoin: miter"/>
     <use xlink:href="#mbfccd60341" x="275.56641" y="63.598611" style="fill: #9d02d7; stroke: #9d02d7; stroke-linejoin: miter"/>
     <use xlink:href="#mbfccd60341" x="280.725116" y="63.598611" style="fill: #9d02d7; stroke: #9d02d7; stroke-linejoin: miter"/>
     <use xlink:href="#mbfccd60341" x="285.883821" y="43.325763" style="fill: #9d02d7; stroke: #9d02d7; stroke-linejoin: miter"/>
     <use xlink:href="#mbfccd60341" x="291.042527" y="43.325763" style="fill: #9d02d7; stroke: #9d02d7; stroke-linejoin: miter"/>
     <use xlink:href="#mbfccd60341" x="296.201233" y="43.325763" style="fill: #9d02d7; stroke: #9d02d7; stroke-linejoin: miter"/>
     <use xlink:href="#mbfccd60341" x="301.359938" y="44.454703" style="fill: #9d02d7; stroke: #9d02d7; stroke-linejoin: miter"/>
     <use xlink:href="#mbfccd60341" x="306.518644" y="43.493836" style="fill: #9d02d7; stroke: #9d02d7; stroke-linejoin: miter"/>
     <use xlink:href="#mbfccd60341" x="311.67735" y="43.493836" style="fill: #9d02d7; stroke: #9d02d7; stroke-linejoin: miter"/>
     <use xlink:href="#mbfccd60341" x="316.836055" y="43.493836" style="fill: #9d02d7; stroke: #9d02d7; stroke-linejoin: miter"/>
     <use xlink:href="#mbfccd60341" x="321.994761" y="43.493836" style="fill: #9d02d7; stroke: #9d02d7; stroke-linejoin: miter"/>
     <use xlink:href="#mbfccd60341" x="327.153467" y="43.493836" style="fill: #9d02d7; stroke: #9d02d7; stroke-linejoin: miter"/>
     <use xlink:href="#mbfccd60341" x="332.312173" y="43.493836" style="fill: #9d02d7; stroke: #9d02d7; stroke-linejoin: miter"/>
     <use xlink:href="#mbfccd60341" x="337.470878" y="43.493836" style="fill: #9d02d7; stroke: #9d02d7; stroke-linejoin: miter"/>
     <use xlink:href="#mbfccd60341" x="342.629584" y="43.493836" style="fill: #9d02d7; stroke: #9d02d7; stroke-linejoin: miter"/>
     <use xlink:href="#mbfccd60341" x="347.78829" y="43.493836" style="fill: #9d02d7; stroke: #9d02d7; stroke-linejoin: miter"/>
     <use xlink:href="#mbfccd60341" x="352.946995" y="43.493836" style="fill: #9d02d7; stroke: #9d02d7; stroke-linejoin: miter"/>
     <use xlink:href="#mbfccd60341" x="358.105701" y="43.325763" style="fill: #9d02d7; stroke: #9d02d7; stroke-linejoin: miter"/>
     <use xlink:href="#mbfccd60341" x="363.264407" y="43.493836" style="fill: #9d02d7; stroke: #9d02d7; stroke-linejoin: miter"/>
     <use xlink:href="#mbfccd60341" x="368.423112" y="43.493836" style="fill: #9d02d7; stroke: #9d02d7; stroke-linejoin: miter"/>
     <use xlink:href="#mbfccd60341" x="373.581818" y="43.493836" style="fill: #9d02d7; stroke: #9d02d7; stroke-linejoin: miter"/>
    </g>
   </g>
   <g id="line2d_30">
    <path d="M 69.218182 252.908818 
L 74.376888 254.230087 
L 79.535593 253.433762 
L 84.694299 252.937711 
L 89.853005 252.918989 
L 95.01171 253.611146 
L 100.170416 253.127566 
L 105.329122 253.403945 
L 110.487827 253.152826 
L 115.646533 253.018333 
L 120.805239 254.464463 
L 125.963945 255.879066 
L 131.12265 252.690754 
L 136.281356 245.85219 
L 141.440062 253.247664 
L 146.598767 254.835151 
L 151.757473 233.768111 
L 156.916179 253.742241 
L 162.074884 243.811684 
L 167.23359 253.207474 
L 172.392296 264.390099 
L 177.551002 262.382341 
L 182.709707 253.297816 
L 187.868413 255.968973 
L 193.027119 252.767156 
L 198.185824 252.792032 
L 203.34453 236.805621 
L 208.503236 232.007165 
L 213.661941 233.944739 
L 218.820647 230.034739 
L 223.979353 233.885938 
L 229.138059 223.70057 
L 234.296764 223.70057 
L 239.45547 231.629623 
L 244.614176 231.039662 
L 249.772881 172.466644 
L 254.931587 171.742498 
L 260.090293 159.198292 
L 265.248998 47.752011 
L 270.407704 47.752011 
L 275.56641 45.838233 
L 280.725116 45.838233 
L 285.883821 45.508446 
L 291.042527 45.838233 
L 296.201233 45.838233 
L 301.359938 45.838233 
L 306.518644 45.838233 
L 311.67735 45.838233 
L 316.836055 45.788579 
L 321.994761 45.788579 
L 327.153467 45.788579 
L 332.312173 45.788579 
L 337.470878 45.414251 
L 342.629584 45.414251 
L 347.78829 44.817566 
L 352.946995 44.817566 
L 358.105701 44.817566 
L 363.264407 44.871249 
L 368.423112 45.480719 
L 373.581818 44.871249 
" clip-path="url(#p885ccc0aa0)" style="fill: none; stroke: #0000ff; stroke-width: 1.5; stroke-linecap: square"/>
    <defs>
     <path id="mef1c9c867a" d="M 0 2 
C 0.530406 2 1.03916 1.789267 1.414214 1.414214 
C 1.789267 1.03916 2 0.530406 2 0 
C 2 -0.530406 1.789267 -1.03916 1.414214 -1.414214 
C 1.03916 -1.789267 0.530406 -2 0 -2 
C -0.530406 -2 -1.03916 -1.789267 -1.414214 -1.414214 
C -1.789267 -1.03916 -2 -0.530406 -2 0 
C -2 0.530406 -1.789267 1.03916 -1.414214 1.414214 
C -1.03916 1.789267 -0.530406 2 0 2 
z
" style="stroke: #0000ff"/>
    </defs>
    <g clip-path="url(#p885ccc0aa0)">
     <use xlink:href="#mef1c9c867a" x="69.218182" y="252.908818" style="fill: #0000ff; stroke: #0000ff"/>
     <use xlink:href="#mef1c9c867a" x="74.376888" y="254.230087" style="fill: #0000ff; stroke: #0000ff"/>
     <use xlink:href="#mef1c9c867a" x="79.535593" y="253.433762" style="fill: #0000ff; stroke: #0000ff"/>
     <use xlink:href="#mef1c9c867a" x="84.694299" y="252.937711" style="fill: #0000ff; stroke: #0000ff"/>
     <use xlink:href="#mef1c9c867a" x="89.853005" y="252.918989" style="fill: #0000ff; stroke: #0000ff"/>
     <use xlink:href="#mef1c9c867a" x="95.01171" y="253.611146" style="fill: #0000ff; stroke: #0000ff"/>
     <use xlink:href="#mef1c9c867a" x="100.170416" y="253.127566" style="fill: #0000ff; stroke: #0000ff"/>
     <use xlink:href="#mef1c9c867a" x="105.329122" y="253.403945" style="fill: #0000ff; stroke: #0000ff"/>
     <use xlink:href="#mef1c9c867a" x="110.487827" y="253.152826" style="fill: #0000ff; stroke: #0000ff"/>
     <use xlink:href="#mef1c9c867a" x="115.646533" y="253.018333" style="fill: #0000ff; stroke: #0000ff"/>
     <use xlink:href="#mef1c9c867a" x="120.805239" y="254.464463" style="fill: #0000ff; stroke: #0000ff"/>
     <use xlink:href="#mef1c9c867a" x="125.963945" y="255.879066" style="fill: #0000ff; stroke: #0000ff"/>
     <use xlink:href="#mef1c9c867a" x="131.12265" y="252.690754" style="fill: #0000ff; stroke: #0000ff"/>
     <use xlink:href="#mef1c9c867a" x="136.281356" y="245.85219" style="fill: #0000ff; stroke: #0000ff"/>
     <use xlink:href="#mef1c9c867a" x="141.440062" y="253.247664" style="fill: #0000ff; stroke: #0000ff"/>
     <use xlink:href="#mef1c9c867a" x="146.598767" y="254.835151" style="fill: #0000ff; stroke: #0000ff"/>
     <use xlink:href="#mef1c9c867a" x="151.757473" y="233.768111" style="fill: #0000ff; stroke: #0000ff"/>
     <use xlink:href="#mef1c9c867a" x="156.916179" y="253.742241" style="fill: #0000ff; stroke: #0000ff"/>
     <use xlink:href="#mef1c9c867a" x="162.074884" y="243.811684" style="fill: #0000ff; stroke: #0000ff"/>
     <use xlink:href="#mef1c9c867a" x="167.23359" y="253.207474" style="fill: #0000ff; stroke: #0000ff"/>
     <use xlink:href="#mef1c9c867a" x="172.392296" y="264.390099" style="fill: #0000ff; stroke: #0000ff"/>
     <use xlink:href="#mef1c9c867a" x="177.551002" y="262.382341" style="fill: #0000ff; stroke: #0000ff"/>
     <use xlink:href="#mef1c9c867a" x="182.709707" y="253.297816" style="fill: #0000ff; stroke: #0000ff"/>
     <use xlink:href="#mef1c9c867a" x="187.868413" y="255.968973" style="fill: #0000ff; stroke: #0000ff"/>
     <use xlink:href="#mef1c9c867a" x="193.027119" y="252.767156" style="fill: #0000ff; stroke: #0000ff"/>
     <use xlink:href="#mef1c9c867a" x="198.185824" y="252.792032" style="fill: #0000ff; stroke: #0000ff"/>
     <use xlink:href="#mef1c9c867a" x="203.34453" y="236.805621" style="fill: #0000ff; stroke: #0000ff"/>
     <use xlink:href="#mef1c9c867a" x="208.503236" y="232.007165" style="fill: #0000ff; stroke: #0000ff"/>
     <use xlink:href="#mef1c9c867a" x="213.661941" y="233.944739" style="fill: #0000ff; stroke: #0000ff"/>
     <use xlink:href="#mef1c9c867a" x="218.820647" y="230.034739" style="fill: #0000ff; stroke: #0000ff"/>
     <use xlink:href="#mef1c9c867a" x="223.979353" y="233.885938" style="fill: #0000ff; stroke: #0000ff"/>
     <use xlink:href="#mef1c9c867a" x="229.138059" y="223.70057" style="fill: #0000ff; stroke: #0000ff"/>
     <use xlink:href="#mef1c9c867a" x="234.296764" y="223.70057" style="fill: #0000ff; stroke: #0000ff"/>
     <use xlink:href="#mef1c9c867a" x="239.45547" y="231.629623" style="fill: #0000ff; stroke: #0000ff"/>
     <use xlink:href="#mef1c9c867a" x="244.614176" y="231.039662" style="fill: #0000ff; stroke: #0000ff"/>
     <use xlink:href="#mef1c9c867a" x="249.772881" y="172.466644" style="fill: #0000ff; stroke: #0000ff"/>
     <use xlink:href="#mef1c9c867a" x="254.931587" y="171.742498" style="fill: #0000ff; stroke: #0000ff"/>
     <use xlink:href="#mef1c9c867a" x="260.090293" y="159.198292" style="fill: #0000ff; stroke: #0000ff"/>
     <use xlink:href="#mef1c9c867a" x="265.248998" y="47.752011" style="fill: #0000ff; stroke: #0000ff"/>
     <use xlink:href="#mef1c9c867a" x="270.407704" y="47.752011" style="fill: #0000ff; stroke: #0000ff"/>
     <use xlink:href="#mef1c9c867a" x="275.56641" y="45.838233" style="fill: #0000ff; stroke: #0000ff"/>
     <use xlink:href="#mef1c9c867a" x="280.725116" y="45.838233" style="fill: #0000ff; stroke: #0000ff"/>
     <use xlink:href="#mef1c9c867a" x="285.883821" y="45.508446" style="fill: #0000ff; stroke: #0000ff"/>
     <use xlink:href="#mef1c9c867a" x="291.042527" y="45.838233" style="fill: #0000ff; stroke: #0000ff"/>
     <use xlink:href="#mef1c9c867a" x="296.201233" y="45.838233" style="fill: #0000ff; stroke: #0000ff"/>
     <use xlink:href="#mef1c9c867a" x="301.359938" y="45.838233" style="fill: #0000ff; stroke: #0000ff"/>
     <use xlink:href="#mef1c9c867a" x="306.518644" y="45.838233" style="fill: #0000ff; stroke: #0000ff"/>
     <use xlink:href="#mef1c9c867a" x="311.67735" y="45.838233" style="fill: #0000ff; stroke: #0000ff"/>
     <use xlink:href="#mef1c9c867a" x="316.836055" y="45.788579" style="fill: #0000ff; stroke: #0000ff"/>
     <use xlink:href="#mef1c9c867a" x="321.994761" y="45.788579" style="fill: #0000ff; stroke: #0000ff"/>
     <use xlink:href="#mef1c9c867a" x="327.153467" y="45.788579" style="fill: #0000ff; stroke: #0000ff"/>
     <use xlink:href="#mef1c9c867a" x="332.312173" y="45.788579" style="fill: #0000ff; stroke: #0000ff"/>
     <use xlink:href="#mef1c9c867a" x="337.470878" y="45.414251" style="fill: #0000ff; stroke: #0000ff"/>
     <use xlink:href="#mef1c9c867a" x="342.629584" y="45.414251" style="fill: #0000ff; stroke: #0000ff"/>
     <use xlink:href="#mef1c9c867a" x="347.78829" y="44.817566" style="fill: #0000ff; stroke: #0000ff"/>
     <use xlink:href="#mef1c9c867a" x="352.946995" y="44.817566" style="fill: #0000ff; stroke: #0000ff"/>
     <use xlink:href="#mef1c9c867a" x="358.105701" y="44.817566" style="fill: #0000ff; stroke: #0000ff"/>
     <use xlink:href="#mef1c9c867a" x="363.264407" y="44.871249" style="fill: #0000ff; stroke: #0000ff"/>
     <use xlink:href="#mef1c9c867a" x="368.423112" y="45.480719" style="fill: #0000ff; stroke: #0000ff"/>
     <use xlink:href="#mef1c9c867a" x="373.581818" y="44.871249" style="fill: #0000ff; stroke: #0000ff"/>
    </g>
   </g>
   <g id="line2d_31">
    <path d="M 69.218182 253.727249 
L 74.376888 240.268775 
L 79.535593 252.908818 
L 84.694299 211.221693 
L 89.853005 240.819757 
L 95.01171 204.759647 
L 100.170416 132.17754 
L 105.329122 212.72112 
L 110.487827 246.677904 
L 115.646533 247.505161 
L 120.805239 239.56285 
L 125.963945 251.332012 
L 131.12265 252.392517 
L 136.281356 250.37356 
L 141.440062 215.999242 
L 146.598767 203.771178 
L 151.757473 229.432043 
L 156.916179 228.651152 
L 162.074884 229.131466 
L 167.23359 244.423038 
L 172.392296 244.423038 
L 177.551002 207.847598 
L 182.709707 244.549344 
L 187.868413 230.443573 
L 193.027119 243.918923 
L 198.185824 245.354413 
L 203.34453 233.050885 
L 208.503236 235.64141 
L 213.661941 216.644069 
L 218.820647 232.558193 
L 223.979353 79.97211 
L 229.138059 220.987192 
L 234.296764 232.550662 
L 239.45547 238.159104 
L 244.614176 233.930231 
L 249.772881 229.20522 
L 254.931587 229.203403 
L 260.090293 229.203403 
L 265.248998 229.20377 
L 270.407704 229.208369 
L 275.56641 229.210174 
L 280.725116 150.298955 
L 285.883821 43.308146 
L 291.042527 43.332654 
L 296.201233 43.308146 
L 301.359938 43.308146 
L 306.518644 43.332654 
L 311.67735 43.308146 
L 316.836055 43.308146 
L 321.994761 43.308146 
L 327.153467 43.196444 
L 332.312173 43.308146 
L 337.470878 43.196444 
L 342.629584 43.196444 
L 347.78829 43.196444 
L 352.946995 43.196444 
L 358.105701 43.196444 
L 363.264407 43.196444 
L 368.423112 43.196444 
L 373.581818 43.196444 
" clip-path="url(#p885ccc0aa0)" style="fill: none; stroke: #ff7763; stroke-width: 1.5; stroke-linecap: square"/>
    <defs>
     <path id="ma9b5b7a72f" d="M -2 2 
L 2 -2 
M -2 -2 
L 2 2 
" style="stroke: #ff7763"/>
    </defs>
    <g clip-path="url(#p885ccc0aa0)">
     <use xlink:href="#ma9b5b7a72f" x="69.218182" y="253.727249" style="fill: #ff7763; stroke: #ff7763"/>
     <use xlink:href="#ma9b5b7a72f" x="74.376888" y="240.268775" style="fill: #ff7763; stroke: #ff7763"/>
     <use xlink:href="#ma9b5b7a72f" x="79.535593" y="252.908818" style="fill: #ff7763; stroke: #ff7763"/>
     <use xlink:href="#ma9b5b7a72f" x="84.694299" y="211.221693" style="fill: #ff7763; stroke: #ff7763"/>
     <use xlink:href="#ma9b5b7a72f" x="89.853005" y="240.819757" style="fill: #ff7763; stroke: #ff7763"/>
     <use xlink:href="#ma9b5b7a72f" x="95.01171" y="204.759647" style="fill: #ff7763; stroke: #ff7763"/>
     <use xlink:href="#ma9b5b7a72f" x="100.170416" y="132.17754" style="fill: #ff7763; stroke: #ff7763"/>
     <use xlink:href="#ma9b5b7a72f" x="105.329122" y="212.72112" style="fill: #ff7763; stroke: #ff7763"/>
     <use xlink:href="#ma9b5b7a72f" x="110.487827" y="246.677904" style="fill: #ff7763; stroke: #ff7763"/>
     <use xlink:href="#ma9b5b7a72f" x="115.646533" y="247.505161" style="fill: #ff7763; stroke: #ff7763"/>
     <use xlink:href="#ma9b5b7a72f" x="120.805239" y="239.56285" style="fill: #ff7763; stroke: #ff7763"/>
     <use xlink:href="#ma9b5b7a72f" x="125.963945" y="251.332012" style="fill: #ff7763; stroke: #ff7763"/>
     <use xlink:href="#ma9b5b7a72f" x="131.12265" y="252.392517" style="fill: #ff7763; stroke: #ff7763"/>
     <use xlink:href="#ma9b5b7a72f" x="136.281356" y="250.37356" style="fill: #ff7763; stroke: #ff7763"/>
     <use xlink:href="#ma9b5b7a72f" x="141.440062" y="215.999242" style="fill: #ff7763; stroke: #ff7763"/>
     <use xlink:href="#ma9b5b7a72f" x="146.598767" y="203.771178" style="fill: #ff7763; stroke: #ff7763"/>
     <use xlink:href="#ma9b5b7a72f" x="151.757473" y="229.432043" style="fill: #ff7763; stroke: #ff7763"/>
     <use xlink:href="#ma9b5b7a72f" x="156.916179" y="228.651152" style="fill: #ff7763; stroke: #ff7763"/>
     <use xlink:href="#ma9b5b7a72f" x="162.074884" y="229.131466" style="fill: #ff7763; stroke: #ff7763"/>
     <use xlink:href="#ma9b5b7a72f" x="167.23359" y="244.423038" style="fill: #ff7763; stroke: #ff7763"/>
     <use xlink:href="#ma9b5b7a72f" x="172.392296" y="244.423038" style="fill: #ff7763; stroke: #ff7763"/>
     <use xlink:href="#ma9b5b7a72f" x="177.551002" y="207.847598" style="fill: #ff7763; stroke: #ff7763"/>
     <use xlink:href="#ma9b5b7a72f" x="182.709707" y="244.549344" style="fill: #ff7763; stroke: #ff7763"/>
     <use xlink:href="#ma9b5b7a72f" x="187.868413" y="230.443573" style="fill: #ff7763; stroke: #ff7763"/>
     <use xlink:href="#ma9b5b7a72f" x="193.027119" y="243.918923" style="fill: #ff7763; stroke: #ff7763"/>
     <use xlink:href="#ma9b5b7a72f" x="198.185824" y="245.354413" style="fill: #ff7763; stroke: #ff7763"/>
     <use xlink:href="#ma9b5b7a72f" x="203.34453" y="233.050885" style="fill: #ff7763; stroke: #ff7763"/>
     <use xlink:href="#ma9b5b7a72f" x="208.503236" y="235.64141" style="fill: #ff7763; stroke: #ff7763"/>
     <use xlink:href="#ma9b5b7a72f" x="213.661941" y="216.644069" style="fill: #ff7763; stroke: #ff7763"/>
     <use xlink:href="#ma9b5b7a72f" x="218.820647" y="232.558193" style="fill: #ff7763; stroke: #ff7763"/>
     <use xlink:href="#ma9b5b7a72f" x="223.979353" y="79.97211" style="fill: #ff7763; stroke: #ff7763"/>
     <use xlink:href="#ma9b5b7a72f" x="229.138059" y="220.987192" style="fill: #ff7763; stroke: #ff7763"/>
     <use xlink:href="#ma9b5b7a72f" x="234.296764" y="232.550662" style="fill: #ff7763; stroke: #ff7763"/>
     <use xlink:href="#ma9b5b7a72f" x="239.45547" y="238.159104" style="fill: #ff7763; stroke: #ff7763"/>
     <use xlink:href="#ma9b5b7a72f" x="244.614176" y="233.930231" style="fill: #ff7763; stroke: #ff7763"/>
     <use xlink:href="#ma9b5b7a72f" x="249.772881" y="229.20522" style="fill: #ff7763; stroke: #ff7763"/>
     <use xlink:href="#ma9b5b7a72f" x="254.931587" y="229.203403" style="fill: #ff7763; stroke: #ff7763"/>
     <use xlink:href="#ma9b5b7a72f" x="260.090293" y="229.203403" style="fill: #ff7763; stroke: #ff7763"/>
     <use xlink:href="#ma9b5b7a72f" x="265.248998" y="229.20377" style="fill: #ff7763; stroke: #ff7763"/>
     <use xlink:href="#ma9b5b7a72f" x="270.407704" y="229.208369" style="fill: #ff7763; stroke: #ff7763"/>
     <use xlink:href="#ma9b5b7a72f" x="275.56641" y="229.210174" style="fill: #ff7763; stroke: #ff7763"/>
     <use xlink:href="#ma9b5b7a72f" x="280.725116" y="150.298955" style="fill: #ff7763; stroke: #ff7763"/>
     <use xlink:href="#ma9b5b7a72f" x="285.883821" y="43.308146" style="fill: #ff7763; stroke: #ff7763"/>
     <use xlink:href="#ma9b5b7a72f" x="291.042527" y="43.332654" style="fill: #ff7763; stroke: #ff7763"/>
     <use xlink:href="#ma9b5b7a72f" x="296.201233" y="43.308146" style="fill: #ff7763; stroke: #ff7763"/>
     <use xlink:href="#ma9b5b7a72f" x="301.359938" y="43.308146" style="fill: #ff7763; stroke: #ff7763"/>
     <use xlink:href="#ma9b5b7a72f" x="306.518644" y="43.332654" style="fill: #ff7763; stroke: #ff7763"/>
     <use xlink:href="#ma9b5b7a72f" x="311.67735" y="43.308146" style="fill: #ff7763; stroke: #ff7763"/>
     <use xlink:href="#ma9b5b7a72f" x="316.836055" y="43.308146" style="fill: #ff7763; stroke: #ff7763"/>
     <use xlink:href="#ma9b5b7a72f" x="321.994761" y="43.308146" style="fill: #ff7763; stroke: #ff7763"/>
     <use xlink:href="#ma9b5b7a72f" x="327.153467" y="43.196444" style="fill: #ff7763; stroke: #ff7763"/>
     <use xlink:href="#ma9b5b7a72f" x="332.312173" y="43.308146" style="fill: #ff7763; stroke: #ff7763"/>
     <use xlink:href="#ma9b5b7a72f" x="337.470878" y="43.196444" style="fill: #ff7763; stroke: #ff7763"/>
     <use xlink:href="#ma9b5b7a72f" x="342.629584" y="43.196444" style="fill: #ff7763; stroke: #ff7763"/>
     <use xlink:href="#ma9b5b7a72f" x="347.78829" y="43.196444" style="fill: #ff7763; stroke: #ff7763"/>
     <use xlink:href="#ma9b5b7a72f" x="352.946995" y="43.196444" style="fill: #ff7763; stroke: #ff7763"/>
     <use xlink:href="#ma9b5b7a72f" x="358.105701" y="43.196444" style="fill: #ff7763; stroke: #ff7763"/>
     <use xlink:href="#ma9b5b7a72f" x="363.264407" y="43.196444" style="fill: #ff7763; stroke: #ff7763"/>
     <use xlink:href="#ma9b5b7a72f" x="368.423112" y="43.196444" style="fill: #ff7763; stroke: #ff7763"/>
     <use xlink:href="#ma9b5b7a72f" x="373.581818" y="43.196444" style="fill: #ff7763; stroke: #ff7763"/>
    </g>
   </g>
   <g id="line2d_32">
    <path d="M 69.218182 253.086956 
L 74.376888 255.747801 
L 79.535593 252.908818 
L 84.694299 253.05158 
L 89.853005 252.908818 
L 95.01171 252.983108 
L 100.170416 253.069124 
L 105.329122 252.549307 
L 110.487827 252.908818 
L 115.646533 242.485077 
L 120.805239 253.4376 
L 125.963945 252.670842 
L 131.12265 252.911432 
L 136.281356 253.00218 
L 141.440062 252.910717 
L 146.598767 250.557096 
L 151.757473 252.908818 
L 156.916179 252.908818 
L 162.074884 252.908818 
L 167.23359 252.914382 
L 172.392296 252.958282 
L 177.551002 252.908818 
L 182.709707 252.924016 
L 187.868413 252.393759 
L 193.027119 253.574746 
L 198.185824 251.493303 
L 203.34453 252.909718 
L 208.503236 253.019317 
L 213.661941 252.908818 
L 218.820647 151.601802 
L 223.979353 82.056541 
L 229.138059 159.927587 
L 234.296764 183.721373 
L 239.45547 173.184981 
L 244.614176 180.214755 
L 249.772881 180.214755 
L 254.931587 207.690841 
L 260.090293 207.083636 
L 265.248998 206.170922 
L 270.407704 170.013288 
L 275.56641 151.731283 
L 280.725116 151.731283 
L 285.883821 151.731283 
L 291.042527 150.213508 
L 296.201233 47.790235 
L 301.359938 47.790235 
L 306.518644 47.790235 
L 311.67735 47.602211 
L 316.836055 56.881817 
L 321.994761 47.602211 
L 327.153467 47.602211 
L 332.312173 47.790235 
L 337.470878 47.602211 
L 342.629584 47.602211 
L 347.78829 43.333905 
L 352.946995 47.602211 
L 358.105701 43.333905 
L 363.264407 43.333905 
L 368.423112 43.333905 
L 373.581818 42.938932 
" clip-path="url(#p885ccc0aa0)" style="fill: none; stroke: #ffac1e; stroke-width: 1.5; stroke-linecap: square"/>
    <defs>
     <path id="m3221e85396" d="M 0 -2 
L -0.449028 -0.618034 
L -1.902113 -0.618034 
L -0.726543 0.236068 
L -1.175571 1.618034 
L -0 0.763932 
L 1.175571 1.618034 
L 0.726543 0.236068 
L 1.902113 -0.618034 
L 0.449028 -0.618034 
z
" style="stroke: #ffac1e; stroke-linejoin: bevel"/>
    </defs>
    <g clip-path="url(#p885ccc0aa0)">
     <use xlink:href="#m3221e85396" x="69.218182" y="253.086956" style="fill: #ffac1e; stroke: #ffac1e; stroke-linejoin: bevel"/>
     <use xlink:href="#m3221e85396" x="74.376888" y="255.747801" style="fill: #ffac1e; stroke: #ffac1e; stroke-linejoin: bevel"/>
     <use xlink:href="#m3221e85396" x="79.535593" y="252.908818" style="fill: #ffac1e; stroke: #ffac1e; stroke-linejoin: bevel"/>
     <use xlink:href="#m3221e85396" x="84.694299" y="253.05158" style="fill: #ffac1e; stroke: #ffac1e; stroke-linejoin: bevel"/>
     <use xlink:href="#m3221e85396" x="89.853005" y="252.908818" style="fill: #ffac1e; stroke: #ffac1e; stroke-linejoin: bevel"/>
     <use xlink:href="#m3221e85396" x="95.01171" y="252.983108" style="fill: #ffac1e; stroke: #ffac1e; stroke-linejoin: bevel"/>
     <use xlink:href="#m3221e85396" x="100.170416" y="253.069124" style="fill: #ffac1e; stroke: #ffac1e; stroke-linejoin: bevel"/>
     <use xlink:href="#m3221e85396" x="105.329122" y="252.549307" style="fill: #ffac1e; stroke: #ffac1e; stroke-linejoin: bevel"/>
     <use xlink:href="#m3221e85396" x="110.487827" y="252.908818" style="fill: #ffac1e; stroke: #ffac1e; stroke-linejoin: bevel"/>
     <use xlink:href="#m3221e85396" x="115.646533" y="242.485077" style="fill: #ffac1e; stroke: #ffac1e; stroke-linejoin: bevel"/>
     <use xlink:href="#m3221e85396" x="120.805239" y="253.4376" style="fill: #ffac1e; stroke: #ffac1e; stroke-linejoin: bevel"/>
     <use xlink:href="#m3221e85396" x="125.963945" y="252.670842" style="fill: #ffac1e; stroke: #ffac1e; stroke-linejoin: bevel"/>
     <use xlink:href="#m3221e85396" x="131.12265" y="252.911432" style="fill: #ffac1e; stroke: #ffac1e; stroke-linejoin: bevel"/>
     <use xlink:href="#m3221e85396" x="136.281356" y="253.00218" style="fill: #ffac1e; stroke: #ffac1e; stroke-linejoin: bevel"/>
     <use xlink:href="#m3221e85396" x="141.440062" y="252.910717" style="fill: #ffac1e; stroke: #ffac1e; stroke-linejoin: bevel"/>
     <use xlink:href="#m3221e85396" x="146.598767" y="250.557096" style="fill: #ffac1e; stroke: #ffac1e; stroke-linejoin: bevel"/>
     <use xlink:href="#m3221e85396" x="151.757473" y="252.908818" style="fill: #ffac1e; stroke: #ffac1e; stroke-linejoin: bevel"/>
     <use xlink:href="#m3221e85396" x="156.916179" y="252.908818" style="fill: #ffac1e; stroke: #ffac1e; stroke-linejoin: bevel"/>
     <use xlink:href="#m3221e85396" x="162.074884" y="252.908818" style="fill: #ffac1e; stroke: #ffac1e; stroke-linejoin: bevel"/>
     <use xlink:href="#m3221e85396" x="167.23359" y="252.914382" style="fill: #ffac1e; stroke: #ffac1e; stroke-linejoin: bevel"/>
     <use xlink:href="#m3221e85396" x="172.392296" y="252.958282" style="fill: #ffac1e; stroke: #ffac1e; stroke-linejoin: bevel"/>
     <use xlink:href="#m3221e85396" x="177.551002" y="252.908818" style="fill: #ffac1e; stroke: #ffac1e; stroke-linejoin: bevel"/>
     <use xlink:href="#m3221e85396" x="182.709707" y="252.924016" style="fill: #ffac1e; stroke: #ffac1e; stroke-linejoin: bevel"/>
     <use xlink:href="#m3221e85396" x="187.868413" y="252.393759" style="fill: #ffac1e; stroke: #ffac1e; stroke-linejoin: bevel"/>
     <use xlink:href="#m3221e85396" x="193.027119" y="253.574746" style="fill: #ffac1e; stroke: #ffac1e; stroke-linejoin: bevel"/>
     <use xlink:href="#m3221e85396" x="198.185824" y="251.493303" style="fill: #ffac1e; stroke: #ffac1e; stroke-linejoin: bevel"/>
     <use xlink:href="#m3221e85396" x="203.34453" y="252.909718" style="fill: #ffac1e; stroke: #ffac1e; stroke-linejoin: bevel"/>
     <use xlink:href="#m3221e85396" x="208.503236" y="253.019317" style="fill: #ffac1e; stroke: #ffac1e; stroke-linejoin: bevel"/>
     <use xlink:href="#m3221e85396" x="213.661941" y="252.908818" style="fill: #ffac1e; stroke: #ffac1e; stroke-linejoin: bevel"/>
     <use xlink:href="#m3221e85396" x="218.820647" y="151.601802" style="fill: #ffac1e; stroke: #ffac1e; stroke-linejoin: bevel"/>
     <use xlink:href="#m3221e85396" x="223.979353" y="82.056541" style="fill: #ffac1e; stroke: #ffac1e; stroke-linejoin: bevel"/>
     <use xlink:href="#m3221e85396" x="229.138059" y="159.927587" style="fill: #ffac1e; stroke: #ffac1e; stroke-linejoin: bevel"/>
     <use xlink:href="#m3221e85396" x="234.296764" y="183.721373" style="fill: #ffac1e; stroke: #ffac1e; stroke-linejoin: bevel"/>
     <use xlink:href="#m3221e85396" x="239.45547" y="173.184981" style="fill: #ffac1e; stroke: #ffac1e; stroke-linejoin: bevel"/>
     <use xlink:href="#m3221e85396" x="244.614176" y="180.214755" style="fill: #ffac1e; stroke: #ffac1e; stroke-linejoin: bevel"/>
     <use xlink:href="#m3221e85396" x="249.772881" y="180.214755" style="fill: #ffac1e; stroke: #ffac1e; stroke-linejoin: bevel"/>
     <use xlink:href="#m3221e85396" x="254.931587" y="207.690841" style="fill: #ffac1e; stroke: #ffac1e; stroke-linejoin: bevel"/>
     <use xlink:href="#m3221e85396" x="260.090293" y="207.083636" style="fill: #ffac1e; stroke: #ffac1e; stroke-linejoin: bevel"/>
     <use xlink:href="#m3221e85396" x="265.248998" y="206.170922" style="fill: #ffac1e; stroke: #ffac1e; stroke-linejoin: bevel"/>
     <use xlink:href="#m3221e85396" x="270.407704" y="170.013288" style="fill: #ffac1e; stroke: #ffac1e; stroke-linejoin: bevel"/>
     <use xlink:href="#m3221e85396" x="275.56641" y="151.731283" style="fill: #ffac1e; stroke: #ffac1e; stroke-linejoin: bevel"/>
     <use xlink:href="#m3221e85396" x="280.725116" y="151.731283" style="fill: #ffac1e; stroke: #ffac1e; stroke-linejoin: bevel"/>
     <use xlink:href="#m3221e85396" x="285.883821" y="151.731283" style="fill: #ffac1e; stroke: #ffac1e; stroke-linejoin: bevel"/>
     <use xlink:href="#m3221e85396" x="291.042527" y="150.213508" style="fill: #ffac1e; stroke: #ffac1e; stroke-linejoin: bevel"/>
     <use xlink:href="#m3221e85396" x="296.201233" y="47.790235" style="fill: #ffac1e; stroke: #ffac1e; stroke-linejoin: bevel"/>
     <use xlink:href="#m3221e85396" x="301.359938" y="47.790235" style="fill: #ffac1e; stroke: #ffac1e; stroke-linejoin: bevel"/>
     <use xlink:href="#m3221e85396" x="306.518644" y="47.790235" style="fill: #ffac1e; stroke: #ffac1e; stroke-linejoin: bevel"/>
     <use xlink:href="#m3221e85396" x="311.67735" y="47.602211" style="fill: #ffac1e; stroke: #ffac1e; stroke-linejoin: bevel"/>
     <use xlink:href="#m3221e85396" x="316.836055" y="56.881817" style="fill: #ffac1e; stroke: #ffac1e; stroke-linejoin: bevel"/>
     <use xlink:href="#m3221e85396" x="321.994761" y="47.602211" style="fill: #ffac1e; stroke: #ffac1e; stroke-linejoin: bevel"/>
     <use xlink:href="#m3221e85396" x="327.153467" y="47.602211" style="fill: #ffac1e; stroke: #ffac1e; stroke-linejoin: bevel"/>
     <use xlink:href="#m3221e85396" x="332.312173" y="47.790235" style="fill: #ffac1e; stroke: #ffac1e; stroke-linejoin: bevel"/>
     <use xlink:href="#m3221e85396" x="337.470878" y="47.602211" style="fill: #ffac1e; stroke: #ffac1e; stroke-linejoin: bevel"/>
     <use xlink:href="#m3221e85396" x="342.629584" y="47.602211" style="fill: #ffac1e; stroke: #ffac1e; stroke-linejoin: bevel"/>
     <use xlink:href="#m3221e85396" x="347.78829" y="43.333905" style="fill: #ffac1e; stroke: #ffac1e; stroke-linejoin: bevel"/>
     <use xlink:href="#m3221e85396" x="352.946995" y="47.602211" style="fill: #ffac1e; stroke: #ffac1e; stroke-linejoin: bevel"/>
     <use xlink:href="#m3221e85396" x="358.105701" y="43.333905" style="fill: #ffac1e; stroke: #ffac1e; stroke-linejoin: bevel"/>
     <use xlink:href="#m3221e85396" x="363.264407" y="43.333905" style="fill: #ffac1e; stroke: #ffac1e; stroke-linejoin: bevel"/>
     <use xlink:href="#m3221e85396" x="368.423112" y="43.333905" style="fill: #ffac1e; stroke: #ffac1e; stroke-linejoin: bevel"/>
     <use xlink:href="#m3221e85396" x="373.581818" y="42.938932" style="fill: #ffac1e; stroke: #ffac1e; stroke-linejoin: bevel"/>
    </g>
   </g>
   <g id="line2d_33">
    <path d="M 69.218182 264.675667 
L 74.376888 252.908818 
L 79.535593 253.256565 
L 84.694299 253.284841 
L 89.853005 231.623159 
L 95.01171 251.912646 
L 100.170416 253.305643 
L 105.329122 245.376453 
L 110.487827 238.080413 
L 115.646533 253.282644 
L 120.805239 252.608932 
L 125.963945 222.728446 
L 131.12265 253.272068 
L 136.281356 253.283606 
L 141.440062 253.283953 
L 146.598767 252.864354 
L 151.757473 240.768067 
L 156.916179 252.992126 
L 162.074884 253.304804 
L 167.23359 233.371732 
L 172.392296 253.284591 
L 177.551002 253.993625 
L 182.709707 253.280166 
L 187.868413 253.30251 
L 193.027119 227.664147 
L 198.185824 232.181615 
L 203.34453 168.960892 
L 208.503236 157.983105 
L 213.661941 152.279078 
L 218.820647 130.894943 
L 223.979353 120.821896 
L 229.138059 131.806745 
L 234.296764 82.961418 
L 239.45547 73.611112 
L 244.614176 69.925111 
L 249.772881 69.929374 
L 254.931587 69.929374 
L 260.090293 70.157209 
L 265.248998 75.260968 
L 270.407704 54.705296 
L 275.56641 54.705296 
L 280.725116 54.705296 
L 285.883821 54.705296 
L 291.042527 55.324801 
L 296.201233 55.324801 
L 301.359938 55.113248 
L 306.518644 55.113248 
L 311.67735 47.138906 
L 316.836055 46.594894 
L 321.994761 47.004336 
L 327.153467 47.004336 
L 332.312173 42.927245 
L 337.470878 43.069249 
L 342.629584 42.927245 
L 347.78829 42.927426 
L 352.946995 42.927426 
L 358.105701 42.927426 
L 363.264407 42.92429 
L 368.423112 42.92429 
L 373.581818 42.92429 
" clip-path="url(#p885ccc0aa0)" style="fill: none; stroke: #009435; stroke-width: 1.5; stroke-linecap: square"/>
    <defs>
     <path id="m7c0c47e906" d="M -2 2 
L 2 2 
L 2 -2 
L -2 -2 
z
" style="stroke: #009435; stroke-linejoin: miter"/>
    </defs>
    <g clip-path="url(#p885ccc0aa0)">
     <use xlink:href="#m7c0c47e906" x="69.218182" y="264.675667" style="fill: #009435; stroke: #009435; stroke-linejoin: miter"/>
     <use xlink:href="#m7c0c47e906" x="74.376888" y="252.908818" style="fill: #009435; stroke: #009435; stroke-linejoin: miter"/>
     <use xlink:href="#m7c0c47e906" x="79.535593" y="253.256565" style="fill: #009435; stroke: #009435; stroke-linejoin: miter"/>
     <use xlink:href="#m7c0c47e906" x="84.694299" y="253.284841" style="fill: #009435; stroke: #009435; stroke-linejoin: miter"/>
     <use xlink:href="#m7c0c47e906" x="89.853005" y="231.623159" style="fill: #009435; stroke: #009435; stroke-linejoin: miter"/>
     <use xlink:href="#m7c0c47e906" x="95.01171" y="251.912646" style="fill: #009435; stroke: #009435; stroke-linejoin: miter"/>
     <use xlink:href="#m7c0c47e906" x="100.170416" y="253.305643" style="fill: #009435; stroke: #009435; stroke-linejoin: miter"/>
     <use xlink:href="#m7c0c47e906" x="105.329122" y="245.376453" style="fill: #009435; stroke: #009435; stroke-linejoin: miter"/>
     <use xlink:href="#m7c0c47e906" x="110.487827" y="238.080413" style="fill: #009435; stroke: #009435; stroke-linejoin: miter"/>
     <use xlink:href="#m7c0c47e906" x="115.646533" y="253.282644" style="fill: #009435; stroke: #009435; stroke-linejoin: miter"/>
     <use xlink:href="#m7c0c47e906" x="120.805239" y="252.608932" style="fill: #009435; stroke: #009435; stroke-linejoin: miter"/>
     <use xlink:href="#m7c0c47e906" x="125.963945" y="222.728446" style="fill: #009435; stroke: #009435; stroke-linejoin: miter"/>
     <use xlink:href="#m7c0c47e906" x="131.12265" y="253.272068" style="fill: #009435; stroke: #009435; stroke-linejoin: miter"/>
     <use xlink:href="#m7c0c47e906" x="136.281356" y="253.283606" style="fill: #009435; stroke: #009435; stroke-linejoin: miter"/>
     <use xlink:href="#m7c0c47e906" x="141.440062" y="253.283953" style="fill: #009435; stroke: #009435; stroke-linejoin: miter"/>
     <use xlink:href="#m7c0c47e906" x="146.598767" y="252.864354" style="fill: #009435; stroke: #009435; stroke-linejoin: miter"/>
     <use xlink:href="#m7c0c47e906" x="151.757473" y="240.768067" style="fill: #009435; stroke: #009435; stroke-linejoin: miter"/>
     <use xlink:href="#m7c0c47e906" x="156.916179" y="252.992126" style="fill: #009435; stroke: #009435; stroke-linejoin: miter"/>
     <use xlink:href="#m7c0c47e906" x="162.074884" y="253.304804" style="fill: #009435; stroke: #009435; stroke-linejoin: miter"/>
     <use xlink:href="#m7c0c47e906" x="167.23359" y="233.371732" style="fill: #009435; stroke: #009435; stroke-linejoin: miter"/>
     <use xlink:href="#m7c0c47e906" x="172.392296" y="253.284591" style="fill: #009435; stroke: #009435; stroke-linejoin: miter"/>
     <use xlink:href="#m7c0c47e906" x="177.551002" y="253.993625" style="fill: #009435; stroke: #009435; stroke-linejoin: miter"/>
     <use xlink:href="#m7c0c47e906" x="182.709707" y="253.280166" style="fill: #009435; stroke: #009435; stroke-linejoin: miter"/>
     <use xlink:href="#m7c0c47e906" x="187.868413" y="253.30251" style="fill: #009435; stroke: #009435; stroke-linejoin: miter"/>
     <use xlink:href="#m7c0c47e906" x="193.027119" y="227.664147" style="fill: #009435; stroke: #009435; stroke-linejoin: miter"/>
     <use xlink:href="#m7c0c47e906" x="198.185824" y="232.181615" style="fill: #009435; stroke: #009435; stroke-linejoin: miter"/>
     <use xlink:href="#m7c0c47e906" x="203.34453" y="168.960892" style="fill: #009435; stroke: #009435; stroke-linejoin: miter"/>
     <use xlink:href="#m7c0c47e906" x="208.503236" y="157.983105" style="fill: #009435; stroke: #009435; stroke-linejoin: miter"/>
     <use xlink:href="#m7c0c47e906" x="213.661941" y="152.279078" style="fill: #009435; stroke: #009435; stroke-linejoin: miter"/>
     <use xlink:href="#m7c0c47e906" x="218.820647" y="130.894943" style="fill: #009435; stroke: #009435; stroke-linejoin: miter"/>
     <use xlink:href="#m7c0c47e906" x="223.979353" y="120.821896" style="fill: #009435; stroke: #009435; stroke-linejoin: miter"/>
     <use xlink:href="#m7c0c47e906" x="229.138059" y="131.806745" style="fill: #009435; stroke: #009435; stroke-linejoin: miter"/>
     <use xlink:href="#m7c0c47e906" x="234.296764" y="82.961418" style="fill: #009435; stroke: #009435; stroke-linejoin: miter"/>
     <use xlink:href="#m7c0c47e906" x="239.45547" y="73.611112" style="fill: #009435; stroke: #009435; stroke-linejoin: miter"/>
     <use xlink:href="#m7c0c47e906" x="244.614176" y="69.925111" style="fill: #009435; stroke: #009435; stroke-linejoin: miter"/>
     <use xlink:href="#m7c0c47e906" x="249.772881" y="69.929374" style="fill: #009435; stroke: #009435; stroke-linejoin: miter"/>
     <use xlink:href="#m7c0c47e906" x="254.931587" y="69.929374" style="fill: #009435; stroke: #009435; stroke-linejoin: miter"/>
     <use xlink:href="#m7c0c47e906" x="260.090293" y="70.157209" style="fill: #009435; stroke: #009435; stroke-linejoin: miter"/>
     <use xlink:href="#m7c0c47e906" x="265.248998" y="75.260968" style="fill: #009435; stroke: #009435; stroke-linejoin: miter"/>
     <use xlink:href="#m7c0c47e906" x="270.407704" y="54.705296" style="fill: #009435; stroke: #009435; stroke-linejoin: miter"/>
     <use xlink:href="#m7c0c47e906" x="275.56641" y="54.705296" style="fill: #009435; stroke: #009435; stroke-linejoin: miter"/>
     <use xlink:href="#m7c0c47e906" x="280.725116" y="54.705296" style="fill: #009435; stroke: #009435; stroke-linejoin: miter"/>
     <use xlink:href="#m7c0c47e906" x="285.883821" y="54.705296" style="fill: #009435; stroke: #009435; stroke-linejoin: miter"/>
     <use xlink:href="#m7c0c47e906" x="291.042527" y="55.324801" style="fill: #009435; stroke: #009435; stroke-linejoin: miter"/>
     <use xlink:href="#m7c0c47e906" x="296.201233" y="55.324801" style="fill: #009435; stroke: #009435; stroke-linejoin: miter"/>
     <use xlink:href="#m7c0c47e906" x="301.359938" y="55.113248" style="fill: #009435; stroke: #009435; stroke-linejoin: miter"/>
     <use xlink:href="#m7c0c47e906" x="306.518644" y="55.113248" style="fill: #009435; stroke: #009435; stroke-linejoin: miter"/>
     <use xlink:href="#m7c0c47e906" x="311.67735" y="47.138906" style="fill: #009435; stroke: #009435; stroke-linejoin: miter"/>
     <use xlink:href="#m7c0c47e906" x="316.836055" y="46.594894" style="fill: #009435; stroke: #009435; stroke-linejoin: miter"/>
     <use xlink:href="#m7c0c47e906" x="321.994761" y="47.004336" style="fill: #009435; stroke: #009435; stroke-linejoin: miter"/>
     <use xlink:href="#m7c0c47e906" x="327.153467" y="47.004336" style="fill: #009435; stroke: #009435; stroke-linejoin: miter"/>
     <use xlink:href="#m7c0c47e906" x="332.312173" y="42.927245" style="fill: #009435; stroke: #009435; stroke-linejoin: miter"/>
     <use xlink:href="#m7c0c47e906" x="337.470878" y="43.069249" style="fill: #009435; stroke: #009435; stroke-linejoin: miter"/>
     <use xlink:href="#m7c0c47e906" x="342.629584" y="42.927245" style="fill: #009435; stroke: #009435; stroke-linejoin: miter"/>
     <use xlink:href="#m7c0c47e906" x="347.78829" y="42.927426" style="fill: #009435; stroke: #009435; stroke-linejoin: miter"/>
     <use xlink:href="#m7c0c47e906" x="352.946995" y="42.927426" style="fill: #009435; stroke: #009435; stroke-linejoin: miter"/>
     <use xlink:href="#m7c0c47e906" x="358.105701" y="42.927426" style="fill: #009435; stroke: #009435; stroke-linejoin: miter"/>
     <use xlink:href="#m7c0c47e906" x="363.264407" y="42.92429" style="fill: #009435; stroke: #009435; stroke-linejoin: miter"/>
     <use xlink:href="#m7c0c47e906" x="368.423112" y="42.92429" style="fill: #009435; stroke: #009435; stroke-linejoin: miter"/>
     <use xlink:href="#m7c0c47e906" x="373.581818" y="42.92429" style="fill: #009435; stroke: #009435; stroke-linejoin: miter"/>
    </g>
   </g>
   <g id="patch_3">
    <path d="M 54 252 
L 54 34.56 
" style="fill: none; stroke: #000000; stroke-width: 0.8; stroke-linejoin: miter; stroke-linecap: square"/>
   </g>
   <g id="patch_4">
    <path d="M 388.8 252 
L 388.8 34.56 
" style="fill: none; stroke: #000000; stroke-width: 0.8; stroke-linejoin: miter; stroke-linecap: square"/>
   </g>
   <g id="patch_5">
    <path d="M 54 252 
L 388.8 252 
" style="fill: none; stroke: #000000; stroke-width: 0.8; stroke-linejoin: miter; stroke-linecap: square"/>
   </g>
   <g id="patch_6">
    <path d="M 54 34.56 
L 388.8 34.56 
" style="fill: none; stroke: #000000; stroke-width: 0.8; stroke-linejoin: miter; stroke-linecap: square"/>
   </g>
   <g id="text_17">
    <!-- R-max optimal policy with m = 25 -->
    <g transform="translate(119.205 28.56)scale(0.12 -0.12)">
     <defs>
      <path id="DejaVuSans-52" d="M 2841 2188 
Q 3044 2119 3236 1894 
Q 3428 1669 3622 1275 
L 4263 0 
L 3584 0 
L 2988 1197 
Q 2756 1666 2539 1819 
Q 2322 1972 1947 1972 
L 1259 1972 
L 1259 0 
L 628 0 
L 628 4666 
L 2053 4666 
Q 2853 4666 3247 4331 
Q 3641 3997 3641 3322 
Q 3641 2881 3436 2590 
Q 3231 2300 2841 2188 
z
M 1259 4147 
L 1259 2491 
L 2053 2491 
Q 2509 2491 2742 2702 
Q 2975 2913 2975 3322 
Q 2975 3731 2742 3939 
Q 2509 4147 2053 4147 
L 1259 4147 
z
" transform="scale(0.015625)"/>
      <path id="DejaVuSans-2d" d="M 313 2009 
L 1997 2009 
L 1997 1497 
L 313 1497 
L 313 2009 
z
" transform="scale(0.015625)"/>
      <path id="DejaVuSans-6d" d="M 3328 2828 
Q 3544 3216 3844 3400 
Q 4144 3584 4550 3584 
Q 5097 3584 5394 3201 
Q 5691 2819 5691 2113 
L 5691 0 
L 5113 0 
L 5113 2094 
Q 5113 2597 4934 2840 
Q 4756 3084 4391 3084 
Q 3944 3084 3684 2787 
Q 3425 2491 3425 1978 
L 3425 0 
L 2847 0 
L 2847 2094 
Q 2847 2600 2669 2842 
Q 2491 3084 2119 3084 
Q 1678 3084 1418 2786 
Q 1159 2488 1159 1978 
L 1159 0 
L 581 0 
L 581 3500 
L 1159 3500 
L 1159 2956 
Q 1356 3278 1631 3431 
Q 1906 3584 2284 3584 
Q 2666 3584 2933 3390 
Q 3200 3197 3328 2828 
z
" transform="scale(0.015625)"/>
      <path id="DejaVuSans-78" d="M 3513 3500 
L 2247 1797 
L 3578 0 
L 2900 0 
L 1881 1375 
L 863 0 
L 184 0 
L 1544 1831 
L 300 3500 
L 978 3500 
L 1906 2253 
L 2834 3500 
L 3513 3500 
z
" transform="scale(0.015625)"/>
      <path id="DejaVuSans-77" d="M 269 3500 
L 844 3500 
L 1563 769 
L 2278 3500 
L 2956 3500 
L 3675 769 
L 4391 3500 
L 4966 3500 
L 4050 0 
L 3372 0 
L 2619 2869 
L 1863 0 
L 1184 0 
L 269 3500 
z
" transform="scale(0.015625)"/>
      <path id="DejaVuSans-68" d="M 3513 2113 
L 3513 0 
L 2938 0 
L 2938 2094 
Q 2938 2591 2744 2837 
Q 2550 3084 2163 3084 
Q 1697 3084 1428 2787 
Q 1159 2491 1159 1978 
L 1159 0 
L 581 0 
L 581 4863 
L 1159 4863 
L 1159 2956 
Q 1366 3272 1645 3428 
Q 1925 3584 2291 3584 
Q 2894 3584 3203 3211 
Q 3513 2838 3513 2113 
z
" transform="scale(0.015625)"/>
      <path id="DejaVuSans-3d" d="M 678 2906 
L 4684 2906 
L 4684 2381 
L 678 2381 
L 678 2906 
z
M 678 1631 
L 4684 1631 
L 4684 1100 
L 678 1100 
L 678 1631 
z
" transform="scale(0.015625)"/>
     </defs>
     <use xlink:href="#DejaVuSans-52"/>
     <use xlink:href="#DejaVuSans-2d" x="65.482422"/>
     <use xlink:href="#DejaVuSans-6d" x="101.566406"/>
     <use xlink:href="#DejaVuSans-61" x="198.978516"/>
     <use xlink:href="#DejaVuSans-78" x="260.257812"/>
     <use xlink:href="#DejaVuSans-20" x="319.4375"/>
     <use xlink:href="#DejaVuSans-6f" x="351.224609"/>
     <use xlink:href="#DejaVuSans-70" x="412.40625"/>
     <use xlink:href="#DejaVuSans-74" x="475.882812"/>
     <use xlink:href="#DejaVuSans-69" x="515.091797"/>
     <use xlink:href="#DejaVuSans-6d" x="542.875"/>
     <use xlink:href="#DejaVuSans-61" x="640.287109"/>
     <use xlink:href="#DejaVuSans-6c" x="701.566406"/>
     <use xlink:href="#DejaVuSans-20" x="729.349609"/>
     <use xlink:href="#DejaVuSans-70" x="761.136719"/>
     <use xlink:href="#DejaVuSans-6f" x="824.613281"/>
     <use xlink:href="#DejaVuSans-6c" x="885.794922"/>
     <use xlink:href="#DejaVuSans-69" x="913.578125"/>
     <use xlink:href="#DejaVuSans-63" x="941.361328"/>
     <use xlink:href="#DejaVuSans-79" x="996.341797"/>
     <use xlink:href="#DejaVuSans-20" x="1055.521484"/>
     <use xlink:href="#DejaVuSans-77" x="1087.308594"/>
     <use xlink:href="#DejaVuSans-69" x="1169.095703"/>
     <use xlink:href="#DejaVuSans-74" x="1196.878906"/>
     <use xlink:href="#DejaVuSans-68" x="1236.087891"/>
     <use xlink:href="#DejaVuSans-20" x="1299.466797"/>
     <use xlink:href="#DejaVuSans-6d" x="1331.253906"/>
     <use xlink:href="#DejaVuSans-20" x="1428.666016"/>
     <use xlink:href="#DejaVuSans-3d" x="1460.453125"/>
     <use xlink:href="#DejaVuSans-20" x="1544.242188"/>
     <use xlink:href="#DejaVuSans-32" x="1576.029297"/>
     <use xlink:href="#DejaVuSans-35" x="1639.652344"/>
    </g>
   </g>
   <g id="legend_1">
    <g id="patch_7">
     <path d="M 61 182.170625 
L 211.9875 182.170625 
Q 213.9875 182.170625 213.9875 180.170625 
L 213.9875 106.389375 
Q 213.9875 104.389375 211.9875 104.389375 
L 61 104.389375 
Q 59 104.389375 59 106.389375 
L 59 180.170625 
Q 59 182.170625 61 182.170625 
z
" style="fill: #ffffff; opacity: 0.8; stroke: #cccccc; stroke-linejoin: miter"/>
    </g>
    <g id="line2d_34">
     <path d="M 63 112.487813 
L 73 112.487813 
L 83 112.487813 
" style="fill: none; stroke: #9d02d7; stroke-width: 1.5; stroke-linecap: square"/>
     <g>
      <use xlink:href="#mbfccd60341" x="73" y="112.487813" style="fill: #9d02d7; stroke: #9d02d7; stroke-linejoin: miter"/>
     </g>
    </g>
    <g id="text_18">
     <!-- m_uncertain_states=5 -->
     <g transform="translate(91 115.987813)scale(0.1 -0.1)">
      <defs>
       <path id="DejaVuSans-5f" d="M 3263 -1063 
L 3263 -1509 
L -63 -1509 
L -63 -1063 
L 3263 -1063 
z
" transform="scale(0.015625)"/>
       <path id="DejaVuSans-6e" d="M 3513 2113 
L 3513 0 
L 2938 0 
L 2938 2094 
Q 2938 2591 2744 2837 
Q 2550 3084 2163 3084 
Q 1697 3084 1428 2787 
Q 1159 2491 1159 1978 
L 1159 0 
L 581 0 
L 581 3500 
L 1159 3500 
L 1159 2956 
Q 1366 3272 1645 3428 
Q 1925 3584 2291 3584 
Q 2894 3584 3203 3211 
Q 3513 2838 3513 2113 
z
" transform="scale(0.015625)"/>
      </defs>
      <use xlink:href="#DejaVuSans-6d"/>
      <use xlink:href="#DejaVuSans-5f" x="97.412109"/>
      <use xlink:href="#DejaVuSans-75" x="147.412109"/>
      <use xlink:href="#DejaVuSans-6e" x="210.791016"/>
      <use xlink:href="#DejaVuSans-63" x="274.169922"/>
      <use xlink:href="#DejaVuSans-65" x="329.150391"/>
      <use xlink:href="#DejaVuSans-72" x="390.673828"/>
      <use xlink:href="#DejaVuSans-74" x="431.787109"/>
      <use xlink:href="#DejaVuSans-61" x="470.996094"/>
      <use xlink:href="#DejaVuSans-69" x="532.275391"/>
      <use xlink:href="#DejaVuSans-6e" x="560.058594"/>
      <use xlink:href="#DejaVuSans-5f" x="623.4375"/>
      <use xlink:href="#DejaVuSans-73" x="673.4375"/>
      <use xlink:href="#DejaVuSans-74" x="725.537109"/>
      <use xlink:href="#DejaVuSans-61" x="764.746094"/>
      <use xlink:href="#DejaVuSans-74" x="826.025391"/>
      <use xlink:href="#DejaVuSans-65" x="865.234375"/>
      <use xlink:href="#DejaVuSans-73" x="926.757812"/>
      <use xlink:href="#DejaVuSans-3d" x="978.857422"/>
      <use xlink:href="#DejaVuSans-35" x="1062.646484"/>
     </g>
    </g>
    <g id="line2d_35">
     <path d="M 63 127.444063 
L 73 127.444063 
L 83 127.444063 
" style="fill: none; stroke: #0000ff; stroke-width: 1.5; stroke-linecap: square"/>
     <g>
      <use xlink:href="#mef1c9c867a" x="73" y="127.444063" style="fill: #0000ff; stroke: #0000ff"/>
     </g>
    </g>
    <g id="text_19">
     <!-- m_uncertain_states=10 -->
     <g transform="translate(91 130.944063)scale(0.1 -0.1)">
      <use xlink:href="#DejaVuSans-6d"/>
      <use xlink:href="#DejaVuSans-5f" x="97.412109"/>
      <use xlink:href="#DejaVuSans-75" x="147.412109"/>
      <use xlink:href="#DejaVuSans-6e" x="210.791016"/>
      <use xlink:href="#DejaVuSans-63" x="274.169922"/>
      <use xlink:href="#DejaVuSans-65" x="329.150391"/>
      <use xlink:href="#DejaVuSans-72" x="390.673828"/>
      <use xlink:href="#DejaVuSans-74" x="431.787109"/>
      <use xlink:href="#DejaVuSans-61" x="470.996094"/>
      <use xlink:href="#DejaVuSans-69" x="532.275391"/>
      <use xlink:href="#DejaVuSans-6e" x="560.058594"/>
      <use xlink:href="#DejaVuSans-5f" x="623.4375"/>
      <use xlink:href="#DejaVuSans-73" x="673.4375"/>
      <use xlink:href="#DejaVuSans-74" x="725.537109"/>
      <use xlink:href="#DejaVuSans-61" x="764.746094"/>
      <use xlink:href="#DejaVuSans-74" x="826.025391"/>
      <use xlink:href="#DejaVuSans-65" x="865.234375"/>
      <use xlink:href="#DejaVuSans-73" x="926.757812"/>
      <use xlink:href="#DejaVuSans-3d" x="978.857422"/>
      <use xlink:href="#DejaVuSans-31" x="1062.646484"/>
      <use xlink:href="#DejaVuSans-30" x="1126.269531"/>
     </g>
    </g>
    <g id="line2d_36">
     <path d="M 63 142.400313 
L 73 142.400313 
L 83 142.400313 
" style="fill: none; stroke: #ff7763; stroke-width: 1.5; stroke-linecap: square"/>
     <g>
      <use xlink:href="#ma9b5b7a72f" x="73" y="142.400313" style="fill: #ff7763; stroke: #ff7763"/>
     </g>
    </g>
    <g id="text_20">
     <!-- m_uncertain_states=15 -->
     <g transform="translate(91 145.900313)scale(0.1 -0.1)">
      <use xlink:href="#DejaVuSans-6d"/>
      <use xlink:href="#DejaVuSans-5f" x="97.412109"/>
      <use xlink:href="#DejaVuSans-75" x="147.412109"/>
      <use xlink:href="#DejaVuSans-6e" x="210.791016"/>
      <use xlink:href="#DejaVuSans-63" x="274.169922"/>
      <use xlink:href="#DejaVuSans-65" x="329.150391"/>
      <use xlink:href="#DejaVuSans-72" x="390.673828"/>
      <use xlink:href="#DejaVuSans-74" x="431.787109"/>
      <use xlink:href="#DejaVuSans-61" x="470.996094"/>
      <use xlink:href="#DejaVuSans-69" x="532.275391"/>
      <use xlink:href="#DejaVuSans-6e" x="560.058594"/>
      <use xlink:href="#DejaVuSans-5f" x="623.4375"/>
      <use xlink:href="#DejaVuSans-73" x="673.4375"/>
      <use xlink:href="#DejaVuSans-74" x="725.537109"/>
      <use xlink:href="#DejaVuSans-61" x="764.746094"/>
      <use xlink:href="#DejaVuSans-74" x="826.025391"/>
      <use xlink:href="#DejaVuSans-65" x="865.234375"/>
      <use xlink:href="#DejaVuSans-73" x="926.757812"/>
      <use xlink:href="#DejaVuSans-3d" x="978.857422"/>
      <use xlink:href="#DejaVuSans-31" x="1062.646484"/>
      <use xlink:href="#DejaVuSans-35" x="1126.269531"/>
     </g>
    </g>
    <g id="line2d_37">
     <path d="M 63 157.356563 
L 73 157.356563 
L 83 157.356563 
" style="fill: none; stroke: #ffac1e; stroke-width: 1.5; stroke-linecap: square"/>
     <g>
      <use xlink:href="#m3221e85396" x="73" y="157.356563" style="fill: #ffac1e; stroke: #ffac1e; stroke-linejoin: bevel"/>
     </g>
    </g>
    <g id="text_21">
     <!-- m_uncertain_states=20 -->
     <g transform="translate(91 160.856563)scale(0.1 -0.1)">
      <use xlink:href="#DejaVuSans-6d"/>
      <use xlink:href="#DejaVuSans-5f" x="97.412109"/>
      <use xlink:href="#DejaVuSans-75" x="147.412109"/>
      <use xlink:href="#DejaVuSans-6e" x="210.791016"/>
      <use xlink:href="#DejaVuSans-63" x="274.169922"/>
      <use xlink:href="#DejaVuSans-65" x="329.150391"/>
      <use xlink:href="#DejaVuSans-72" x="390.673828"/>
      <use xlink:href="#DejaVuSans-74" x="431.787109"/>
      <use xlink:href="#DejaVuSans-61" x="470.996094"/>
      <use xlink:href="#DejaVuSans-69" x="532.275391"/>
      <use xlink:href="#DejaVuSans-6e" x="560.058594"/>
      <use xlink:href="#DejaVuSans-5f" x="623.4375"/>
      <use xlink:href="#DejaVuSans-73" x="673.4375"/>
      <use xlink:href="#DejaVuSans-74" x="725.537109"/>
      <use xlink:href="#DejaVuSans-61" x="764.746094"/>
      <use xlink:href="#DejaVuSans-74" x="826.025391"/>
      <use xlink:href="#DejaVuSans-65" x="865.234375"/>
      <use xlink:href="#DejaVuSans-73" x="926.757812"/>
      <use xlink:href="#DejaVuSans-3d" x="978.857422"/>
      <use xlink:href="#DejaVuSans-32" x="1062.646484"/>
      <use xlink:href="#DejaVuSans-30" x="1126.269531"/>
     </g>
    </g>
    <g id="line2d_38">
     <path d="M 63 172.312813 
L 73 172.312813 
L 83 172.312813 
" style="fill: none; stroke: #009435; stroke-width: 1.5; stroke-linecap: square"/>
     <g>
      <use xlink:href="#m7c0c47e906" x="73" y="172.312813" style="fill: #009435; stroke: #009435; stroke-linejoin: miter"/>
     </g>
    </g>
    <g id="text_22">
     <!-- m_uncertain_states=25 -->
     <g transform="translate(91 175.812813)scale(0.1 -0.1)">
      <use xlink:href="#DejaVuSans-6d"/>
      <use xlink:href="#DejaVuSans-5f" x="97.412109"/>
      <use xlink:href="#DejaVuSans-75" x="147.412109"/>
      <use xlink:href="#DejaVuSans-6e" x="210.791016"/>
      <use xlink:href="#DejaVuSans-63" x="274.169922"/>
      <use xlink:href="#DejaVuSans-65" x="329.150391"/>
      <use xlink:href="#DejaVuSans-72" x="390.673828"/>
      <use xlink:href="#DejaVuSans-74" x="431.787109"/>
      <use xlink:href="#DejaVuSans-61" x="470.996094"/>
      <use xlink:href="#DejaVuSans-69" x="532.275391"/>
      <use xlink:href="#DejaVuSans-6e" x="560.058594"/>
      <use xlink:href="#DejaVuSans-5f" x="623.4375"/>
      <use xlink:href="#DejaVuSans-73" x="673.4375"/>
      <use xlink:href="#DejaVuSans-74" x="725.537109"/>
      <use xlink:href="#DejaVuSans-61" x="764.746094"/>
      <use xlink:href="#DejaVuSans-74" x="826.025391"/>
      <use xlink:href="#DejaVuSans-65" x="865.234375"/>
      <use xlink:href="#DejaVuSans-73" x="926.757812"/>
      <use xlink:href="#DejaVuSans-3d" x="978.857422"/>
      <use xlink:href="#DejaVuSans-32" x="1062.646484"/>
      <use xlink:href="#DejaVuSans-35" x="1126.269531"/>
     </g>
    </g>
   </g>
  </g>
 </g>
 <defs>
  <clipPath id="p885ccc0aa0">
   <rect x="54" y="34.56" width="334.8" height="217.44"/>
  </clipPath>
 </defs>
</svg>
