<?xml version="1.0" encoding="utf-8" standalone="no"?>
<!DOCTYPE svg PUBLIC "-//W3C//DTD SVG 1.1//EN"
  "http://www.w3.org/Graphics/SVG/1.1/DTD/svg11.dtd">
<svg xmlns:xlink="http://www.w3.org/1999/xlink" width="432pt" height="288pt" viewBox="0 0 432 288" xmlns="http://www.w3.org/2000/svg" version="1.1">
 <metadata>
  <rdf:RDF xmlns:dc="http://purl.org/dc/elements/1.1/" xmlns:cc="http://creativecommons.org/ns#" xmlns:rdf="http://www.w3.org/1999/02/22-rdf-syntax-ns#">
   <cc:Work>
    <dc:type rdf:resource="http://purl.org/dc/dcmitype/StillImage"/>
    <dc:date>2023-01-11T15:36:51.494629</dc:date>
    <dc:format>image/svg+xml</dc:format>
    <dc:creator>
     <cc:Agent>
      <dc:title>Matplotlib v3.5.2, https://matplotlib.org/</dc:title>
     </cc:Agent>
    </dc:creator>
   </cc:Work>
  </rdf:RDF>
 </metadata>
 <defs>
  <style type="text/css">*{stroke-linejoin: round; stroke-linecap: butt}</style>
 </defs>
 <g id="figure_1">
  <g id="patch_1">
   <path d="M 0 288 
L 432 288 
L 432 0 
L 0 0 
z
" style="fill: #ffffff"/>
  </g>
  <g id="axes_1">
   <g id="patch_2">
    <path d="M 54 252 
L 388.8 252 
L 388.8 34.56 
L 54 34.56 
z
" style="fill: #ffffff"/>
   </g>
   <g id="PolyCollection_1">
    <defs>
     <path id="m270a275a14" d="M 69.218182 -27.512824 
L 69.218182 -27.512824 
L 74.376888 -34.567655 
L 79.535593 -64.319167 
L 84.694299 -49.675935 
L 89.853005 -48.571322 
L 95.01171 -33.045115 
L 100.170416 -33.012242 
L 105.329122 -33.012257 
L 110.487827 -32.368986 
L 115.646533 -33.635581 
L 120.805239 -24.612456 
L 125.963945 -29.361257 
L 131.12265 -29.357631 
L 136.281356 -24.262246 
L 141.440062 -29.193608 
L 146.598767 -31.367114 
L 151.757473 -31.164882 
L 156.916179 -31.165046 
L 162.074884 -31.115137 
L 167.23359 -32.765322 
L 172.392296 -32.454027 
L 177.551002 -35.060506 
L 182.709707 -27.78307 
L 187.868413 -29.195481 
L 193.027119 -29.435417 
L 198.185824 -32.561056 
L 203.34453 -32.701256 
L 208.503236 -25.899924 
L 213.661941 -31.952269 
L 218.820647 -33.21362 
L 223.979353 -31.952269 
L 229.138059 -34.655459 
L 234.296764 -34.652256 
L 239.45547 -37.280584 
L 244.614176 -36.981799 
L 249.772881 -34.594137 
L 254.931587 -226.79958 
L 260.090293 -222.417716 
L 265.248998 -33.529287 
L 270.407704 -226.420103 
L 275.56641 -215.87929 
L 280.725116 -226.42053 
L 285.883821 -226.42053 
L 291.042527 -34.675688 
L 296.201233 -225.772859 
L 301.359938 -225.772859 
L 306.518644 -226.420301 
L 311.67735 -226.799351 
L 316.836055 -226.799351 
L 321.994761 -226.799351 
L 327.153467 -226.799351 
L 332.312173 -226.799351 
L 337.470878 -226.799351 
L 342.629584 -226.799351 
L 347.78829 -226.799351 
L 352.946995 -226.799351 
L 358.105701 -221.64068 
L 363.264407 -211.417326 
L 368.423112 -214.340872 
L 373.581818 -141.513888 
L 373.581818 -141.513888 
L 373.581818 -141.513888 
L 368.423112 -214.340872 
L 363.264407 -211.417326 
L 358.105701 -221.64068 
L 352.946995 -226.799351 
L 347.78829 -226.799351 
L 342.629584 -226.799351 
L 337.470878 -226.799351 
L 332.312173 -226.799351 
L 327.153467 -226.799351 
L 321.994761 -226.799351 
L 316.836055 -226.799351 
L 311.67735 -226.799351 
L 306.518644 -226.420301 
L 301.359938 -225.772859 
L 296.201233 -225.772859 
L 291.042527 -34.675688 
L 285.883821 -226.42053 
L 280.725116 -226.42053 
L 275.56641 -215.87929 
L 270.407704 -226.420103 
L 265.248998 -33.529287 
L 260.090293 -222.417716 
L 254.931587 -226.79958 
L 249.772881 -34.594137 
L 244.614176 -36.981799 
L 239.45547 -37.280584 
L 234.296764 -34.652256 
L 229.138059 -34.655459 
L 223.979353 -31.952269 
L 218.820647 -33.21362 
L 213.661941 -31.952269 
L 208.503236 -25.899924 
L 203.34453 -32.701256 
L 198.185824 -32.561056 
L 193.027119 -29.435417 
L 187.868413 -29.195481 
L 182.709707 -27.78307 
L 177.551002 -35.060506 
L 172.392296 -32.454027 
L 167.23359 -32.765322 
L 162.074884 -31.115137 
L 156.916179 -31.165046 
L 151.757473 -31.164882 
L 146.598767 -31.367114 
L 141.440062 -29.193608 
L 136.281356 -24.262246 
L 131.12265 -29.357631 
L 125.963945 -29.361257 
L 120.805239 -24.612456 
L 115.646533 -33.635581 
L 110.487827 -32.368986 
L 105.329122 -33.012257 
L 100.170416 -33.012242 
L 95.01171 -33.045115 
L 89.853005 -48.571322 
L 84.694299 -49.675935 
L 79.535593 -64.319167 
L 74.376888 -34.567655 
L 69.218182 -27.512824 
z
" style="stroke: #9d02d7; stroke-opacity: 0.2"/>
    </defs>
    <g clip-path="url(#pd5b6f5c1ee)">
     <use xlink:href="#m270a275a14" x="0" y="288" style="fill: #9d02d7; fill-opacity: 0.2; stroke: #9d02d7; stroke-opacity: 0.2"/>
    </g>
   </g>
   <g id="PolyCollection_2">
    <defs>
     <path id="m3e3c96b144" d="M 69.218182 -33.815627 
L 69.218182 -33.815627 
L 74.376888 -30.555709 
L 79.535593 -31.798169 
L 84.694299 -29.661934 
L 89.853005 -29.764528 
L 95.01171 -29.657856 
L 100.170416 -29.96617 
L 105.329122 -28.701572 
L 110.487827 -28.813675 
L 115.646533 -28.771422 
L 120.805239 -28.671951 
L 125.963945 -28.489917 
L 131.12265 -28.669924 
L 136.281356 -28.771167 
L 141.440062 -28.774471 
L 146.598767 -31.328069 
L 151.757473 -31.42588 
L 156.916179 -31.473018 
L 162.074884 -31.554519 
L 167.23359 -31.433016 
L 172.392296 -31.436454 
L 177.551002 -31.521142 
L 182.709707 -31.386487 
L 187.868413 -31.425103 
L 193.027119 -31.421524 
L 198.185824 -31.501976 
L 203.34453 -31.414215 
L 208.503236 -31.312698 
L 213.661941 -32.499328 
L 218.820647 -30.910105 
L 223.979353 -31.109707 
L 229.138059 -24.780582 
L 234.296764 -31.189626 
L 239.45547 -31.435257 
L 244.614176 -31.331647 
L 249.772881 -32.167779 
L 254.931587 -28.400846 
L 260.090293 -31.909605 
L 265.248998 -28.400389 
L 270.407704 -28.40046 
L 275.56641 -28.400319 
L 280.725116 -23.635845 
L 285.883821 -29.734416 
L 291.042527 -32.513594 
L 296.201233 -30.796029 
L 301.359938 -31.719669 
L 306.518644 -28.042941 
L 311.67735 -30.148823 
L 316.836055 -34.685813 
L 321.994761 -30.926117 
L 327.153467 -21.918575 
L 332.312173 -35.528851 
L 337.470878 -31.831362 
L 342.629584 -30.734664 
L 347.78829 -20.870126 
L 352.946995 -34.036224 
L 358.105701 -34.223582 
L 363.264407 -34.224469 
L 368.423112 -34.230322 
L 373.581818 -34.172086 
L 373.581818 -34.172086 
L 373.581818 -34.172086 
L 368.423112 -34.230322 
L 363.264407 -34.224469 
L 358.105701 -34.223582 
L 352.946995 -34.036224 
L 347.78829 -20.870126 
L 342.629584 -30.734664 
L 337.470878 -31.831362 
L 332.312173 -35.528851 
L 327.153467 -21.918575 
L 321.994761 -30.926117 
L 316.836055 -34.685813 
L 311.67735 -30.148823 
L 306.518644 -28.042941 
L 301.359938 -31.719669 
L 296.201233 -30.796029 
L 291.042527 -32.513594 
L 285.883821 -29.734416 
L 280.725116 -23.635845 
L 275.56641 -28.400319 
L 270.407704 -28.40046 
L 265.248998 -28.400389 
L 260.090293 -31.909605 
L 254.931587 -28.400846 
L 249.772881 -32.167779 
L 244.614176 -31.331647 
L 239.45547 -31.435257 
L 234.296764 -31.189626 
L 229.138059 -24.780582 
L 223.979353 -31.109707 
L 218.820647 -30.910105 
L 213.661941 -32.499328 
L 208.503236 -31.312698 
L 203.34453 -31.414215 
L 198.185824 -31.501976 
L 193.027119 -31.421524 
L 187.868413 -31.425103 
L 182.709707 -31.386487 
L 177.551002 -31.521142 
L 172.392296 -31.436454 
L 167.23359 -31.433016 
L 162.074884 -31.554519 
L 156.916179 -31.473018 
L 151.757473 -31.42588 
L 146.598767 -31.328069 
L 141.440062 -28.774471 
L 136.281356 -28.771167 
L 131.12265 -28.669924 
L 125.963945 -28.489917 
L 120.805239 -28.671951 
L 115.646533 -28.771422 
L 110.487827 -28.813675 
L 105.329122 -28.701572 
L 100.170416 -29.96617 
L 95.01171 -29.657856 
L 89.853005 -29.764528 
L 84.694299 -29.661934 
L 79.535593 -31.798169 
L 74.376888 -30.555709 
L 69.218182 -33.815627 
z
" style="stroke: #0000ff; stroke-opacity: 0.2"/>
    </defs>
    <g clip-path="url(#pd5b6f5c1ee)">
     <use xlink:href="#m3e3c96b144" x="0" y="288" style="fill: #0000ff; fill-opacity: 0.2; stroke: #0000ff; stroke-opacity: 0.2"/>
    </g>
   </g>
   <g id="PolyCollection_3">
    <defs>
     <path id="mb87278a0b5" d="M 69.218182 -35.011672 
L 69.218182 -35.011672 
L 74.376888 -35.091182 
L 79.535593 -35.091182 
L 84.694299 -34.687333 
L 89.853005 -51.717526 
L 95.01171 -34.873636 
L 100.170416 -34.45365 
L 105.329122 -34.878996 
L 110.487827 -35.273223 
L 115.646533 -34.399813 
L 120.805239 -34.788576 
L 125.963945 -34.784749 
L 131.12265 -34.790543 
L 136.281356 -34.79221 
L 141.440062 -34.786478 
L 146.598767 -34.822925 
L 151.757473 -34.777269 
L 156.916179 -34.784231 
L 162.074884 -34.792932 
L 167.23359 -34.800381 
L 172.392296 -34.779796 
L 177.551002 -34.789146 
L 182.709707 -34.788721 
L 187.868413 -34.949646 
L 193.027119 -34.784456 
L 198.185824 -37.241516 
L 203.34453 -37.651006 
L 208.503236 -36.970896 
L 213.661941 -37.808622 
L 218.820647 -37.82838 
L 223.979353 -37.31731 
L 229.138059 -37.402194 
L 234.296764 -37.688292 
L 239.45547 -37.492823 
L 244.614176 -37.620094 
L 249.772881 -37.438958 
L 254.931587 -37.31194 
L 260.090293 -37.441923 
L 265.248998 -37.322281 
L 270.407704 -37.31634 
L 275.56641 -37.312814 
L 280.725116 -37.442675 
L 285.883821 -37.456793 
L 291.042527 -37.53122 
L 296.201233 -37.453787 
L 301.359938 -37.442472 
L 306.518644 -37.320529 
L 311.67735 -37.452172 
L 316.836055 -37.319262 
L 321.994761 -37.456541 
L 327.153467 -37.568145 
L 332.312173 -37.418442 
L 337.470878 -37.318673 
L 342.629584 -37.317636 
L 347.78829 -37.406635 
L 352.946995 -37.316981 
L 358.105701 -37.316568 
L 363.264407 -37.437879 
L 368.423112 -37.318254 
L 373.581818 -37.326615 
L 373.581818 -37.326615 
L 373.581818 -37.326615 
L 368.423112 -37.318254 
L 363.264407 -37.437879 
L 358.105701 -37.316568 
L 352.946995 -37.316981 
L 347.78829 -37.406635 
L 342.629584 -37.317636 
L 337.470878 -37.318673 
L 332.312173 -37.418442 
L 327.153467 -37.568145 
L 321.994761 -37.456541 
L 316.836055 -37.319262 
L 311.67735 -37.452172 
L 306.518644 -37.320529 
L 301.359938 -37.442472 
L 296.201233 -37.453787 
L 291.042527 -37.53122 
L 285.883821 -37.456793 
L 280.725116 -37.442675 
L 275.56641 -37.312814 
L 270.407704 -37.31634 
L 265.248998 -37.322281 
L 260.090293 -37.441923 
L 254.931587 -37.31194 
L 249.772881 -37.438958 
L 244.614176 -37.620094 
L 239.45547 -37.492823 
L 234.296764 -37.688292 
L 229.138059 -37.402194 
L 223.979353 -37.31731 
L 218.820647 -37.82838 
L 213.661941 -37.808622 
L 208.503236 -36.970896 
L 203.34453 -37.651006 
L 198.185824 -37.241516 
L 193.027119 -34.784456 
L 187.868413 -34.949646 
L 182.709707 -34.788721 
L 177.551002 -34.789146 
L 172.392296 -34.779796 
L 167.23359 -34.800381 
L 162.074884 -34.792932 
L 156.916179 -34.784231 
L 151.757473 -34.777269 
L 146.598767 -34.822925 
L 141.440062 -34.786478 
L 136.281356 -34.79221 
L 131.12265 -34.790543 
L 125.963945 -34.784749 
L 120.805239 -34.788576 
L 115.646533 -34.399813 
L 110.487827 -35.273223 
L 105.329122 -34.878996 
L 100.170416 -34.45365 
L 95.01171 -34.873636 
L 89.853005 -51.717526 
L 84.694299 -34.687333 
L 79.535593 -35.091182 
L 74.376888 -35.091182 
L 69.218182 -35.011672 
z
" style="stroke: #ff7763; stroke-opacity: 0.2"/>
    </defs>
    <g clip-path="url(#pd5b6f5c1ee)">
     <use xlink:href="#mb87278a0b5" x="0" y="288" style="fill: #ff7763; fill-opacity: 0.2; stroke: #ff7763; stroke-opacity: 0.2"/>
    </g>
   </g>
   <g id="PolyCollection_4">
    <defs>
     <path id="m644c83c735" d="M 69.218182 -35.080693 
L 69.218182 -35.080693 
L 74.376888 -32.614328 
L 79.535593 -34.121636 
L 84.694299 -33.154324 
L 89.853005 -34.123411 
L 95.01171 -32.587527 
L 100.170416 -34.340868 
L 105.329122 -32.510875 
L 110.487827 -34.124647 
L 115.646533 -32.819715 
L 120.805239 -34.124402 
L 125.963945 -33.536693 
L 131.12265 -34.124115 
L 136.281356 -32.528858 
L 141.440062 -32.549714 
L 146.598767 -33.975175 
L 151.757473 -34.124115 
L 156.916179 -34.124293 
L 162.074884 -34.124294 
L 167.23359 -33.747804 
L 172.392296 -34.124293 
L 177.551002 -34.124294 
L 182.709707 -32.531872 
L 187.868413 -34.124294 
L 193.027119 -32.510529 
L 198.185824 -32.511352 
L 203.34453 -34.124294 
L 208.503236 -34.124294 
L 213.661941 -34.124293 
L 218.820647 -34.124294 
L 223.979353 -34.124293 
L 229.138059 -32.618793 
L 234.296764 -32.51213 
L 239.45547 -32.556181 
L 244.614176 -32.574227 
L 249.772881 -34.124293 
L 254.931587 -32.530715 
L 260.090293 -34.124294 
L 265.248998 -32.510078 
L 270.407704 -32.903037 
L 275.56641 -34.124293 
L 280.725116 -34.124293 
L 285.883821 -32.507045 
L 291.042527 -33.650162 
L 296.201233 -34.124294 
L 301.359938 -33.066112 
L 306.518644 -34.124294 
L 311.67735 -34.124294 
L 316.836055 -33.975707 
L 321.994761 -34.124293 
L 327.153467 -34.124293 
L 332.312173 -32.510741 
L 337.470878 -33.307891 
L 342.629584 -33.869671 
L 347.78829 -32.531346 
L 352.946995 -34.124293 
L 358.105701 -34.124294 
L 363.264407 -33.869671 
L 368.423112 -32.572487 
L 373.581818 -34.124293 
L 373.581818 -34.124293 
L 373.581818 -34.124293 
L 368.423112 -32.572487 
L 363.264407 -33.869671 
L 358.105701 -34.124294 
L 352.946995 -34.124293 
L 347.78829 -32.531346 
L 342.629584 -33.869671 
L 337.470878 -33.307891 
L 332.312173 -32.510741 
L 327.153467 -34.124293 
L 321.994761 -34.124293 
L 316.836055 -33.975707 
L 311.67735 -34.124294 
L 306.518644 -34.124294 
L 301.359938 -33.066112 
L 296.201233 -34.124294 
L 291.042527 -33.650162 
L 285.883821 -32.507045 
L 280.725116 -34.124293 
L 275.56641 -34.124293 
L 270.407704 -32.903037 
L 265.248998 -32.510078 
L 260.090293 -34.124294 
L 254.931587 -32.530715 
L 249.772881 -34.124293 
L 244.614176 -32.574227 
L 239.45547 -32.556181 
L 234.296764 -32.51213 
L 229.138059 -32.618793 
L 223.979353 -34.124293 
L 218.820647 -34.124294 
L 213.661941 -34.124293 
L 208.503236 -34.124294 
L 203.34453 -34.124294 
L 198.185824 -32.511352 
L 193.027119 -32.510529 
L 187.868413 -34.124294 
L 182.709707 -32.531872 
L 177.551002 -34.124294 
L 172.392296 -34.124293 
L 167.23359 -33.747804 
L 162.074884 -34.124294 
L 156.916179 -34.124293 
L 151.757473 -34.124115 
L 146.598767 -33.975175 
L 141.440062 -32.549714 
L 136.281356 -32.528858 
L 131.12265 -34.124115 
L 125.963945 -33.536693 
L 120.805239 -34.124402 
L 115.646533 -32.819715 
L 110.487827 -34.124647 
L 105.329122 -32.510875 
L 100.170416 -34.340868 
L 95.01171 -32.587527 
L 89.853005 -34.123411 
L 84.694299 -33.154324 
L 79.535593 -34.121636 
L 74.376888 -32.614328 
L 69.218182 -35.080693 
z
" style="stroke: #ffac1e; stroke-opacity: 0.2"/>
    </defs>
    <g clip-path="url(#pd5b6f5c1ee)">
     <use xlink:href="#m644c83c735" x="0" y="288" style="fill: #ffac1e; fill-opacity: 0.2; stroke: #ffac1e; stroke-opacity: 0.2"/>
    </g>
   </g>
   <g id="PolyCollection_5">
    <defs>
     <path id="mb2dce08402" d="M 69.218182 -33.137177 
L 69.218182 -33.137177 
L 74.376888 -35.07805 
L 79.535593 -35.061308 
L 84.694299 -34.816019 
L 89.853005 -35.068189 
L 95.01171 -34.990483 
L 100.170416 -35.058205 
L 105.329122 -35.051378 
L 110.487827 -35.067961 
L 115.646533 -35.075365 
L 120.805239 -34.933744 
L 125.963945 -35.119234 
L 131.12265 -34.925907 
L 136.281356 -35.063708 
L 141.440062 -35.068865 
L 146.598767 -35.057766 
L 151.757473 -35.069568 
L 156.916179 -35.012362 
L 162.074884 -35.046875 
L 167.23359 -35.057508 
L 172.392296 -35.02838 
L 177.551002 -35.080723 
L 182.709707 -35.032403 
L 187.868413 -35.06516 
L 193.027119 -35.087231 
L 198.185824 -35.044234 
L 203.34453 -35.079311 
L 208.503236 -35.084163 
L 213.661941 -34.854724 
L 218.820647 -35.083599 
L 223.979353 -34.20625 
L 229.138059 -33.460423 
L 234.296764 -33.423839 
L 239.45547 -33.431129 
L 244.614176 -33.355134 
L 249.772881 -33.324154 
L 254.931587 -33.434921 
L 260.090293 -33.389101 
L 265.248998 -33.463446 
L 270.407704 -33.320572 
L 275.56641 -33.384181 
L 280.725116 -33.395714 
L 285.883821 -33.43162 
L 291.042527 -33.430175 
L 296.201233 -33.314851 
L 301.359938 -33.427296 
L 306.518644 -33.430302 
L 311.67735 -33.44539 
L 316.836055 -33.312723 
L 321.994761 -33.419703 
L 327.153467 -33.419781 
L 332.312173 -33.420001 
L 337.470878 -33.424808 
L 342.629584 -33.372975 
L 347.78829 -33.441501 
L 352.946995 -33.354156 
L 358.105701 -33.431101 
L 363.264407 -33.43555 
L 368.423112 -33.43925 
L 373.581818 -33.414032 
L 373.581818 -33.414032 
L 373.581818 -33.414032 
L 368.423112 -33.43925 
L 363.264407 -33.43555 
L 358.105701 -33.431101 
L 352.946995 -33.354156 
L 347.78829 -33.441501 
L 342.629584 -33.372975 
L 337.470878 -33.424808 
L 332.312173 -33.420001 
L 327.153467 -33.419781 
L 321.994761 -33.419703 
L 316.836055 -33.312723 
L 311.67735 -33.44539 
L 306.518644 -33.430302 
L 301.359938 -33.427296 
L 296.201233 -33.314851 
L 291.042527 -33.430175 
L 285.883821 -33.43162 
L 280.725116 -33.395714 
L 275.56641 -33.384181 
L 270.407704 -33.320572 
L 265.248998 -33.463446 
L 260.090293 -33.389101 
L 254.931587 -33.434921 
L 249.772881 -33.324154 
L 244.614176 -33.355134 
L 239.45547 -33.431129 
L 234.296764 -33.423839 
L 229.138059 -33.460423 
L 223.979353 -34.20625 
L 218.820647 -35.083599 
L 213.661941 -34.854724 
L 208.503236 -35.084163 
L 203.34453 -35.079311 
L 198.185824 -35.044234 
L 193.027119 -35.087231 
L 187.868413 -35.06516 
L 182.709707 -35.032403 
L 177.551002 -35.080723 
L 172.392296 -35.02838 
L 167.23359 -35.057508 
L 162.074884 -35.046875 
L 156.916179 -35.012362 
L 151.757473 -35.069568 
L 146.598767 -35.057766 
L 141.440062 -35.068865 
L 136.281356 -35.063708 
L 131.12265 -34.925907 
L 125.963945 -35.119234 
L 120.805239 -34.933744 
L 115.646533 -35.075365 
L 110.487827 -35.067961 
L 105.329122 -35.051378 
L 100.170416 -35.058205 
L 95.01171 -34.990483 
L 89.853005 -35.068189 
L 84.694299 -34.816019 
L 79.535593 -35.061308 
L 74.376888 -35.07805 
L 69.218182 -33.137177 
z
" style="stroke: #009435; stroke-opacity: 0.2"/>
    </defs>
    <g clip-path="url(#pd5b6f5c1ee)">
     <use xlink:href="#mb2dce08402" x="0" y="288" style="fill: #009435; fill-opacity: 0.2; stroke: #009435; stroke-opacity: 0.2"/>
    </g>
   </g>
   <g id="matplotlib.axis_1">
    <g id="xtick_1">
     <g id="line2d_1">
      <path d="M 69.218182 252 
L 69.218182 34.56 
" clip-path="url(#pd5b6f5c1ee)" style="fill: none; stroke-dasharray: 2.96,1.28; stroke-dashoffset: 0; stroke: #b0b0b0; stroke-width: 0.8"/>
     </g>
     <g id="line2d_2">
      <defs>
       <path id="m0e3654c0b0" d="M 0 0 
L 0 3.5 
" style="stroke: #000000; stroke-width: 0.8"/>
      </defs>
      <g>
       <use xlink:href="#m0e3654c0b0" x="69.218182" y="252" style="stroke: #000000; stroke-width: 0.8"/>
      </g>
     </g>
     <g id="text_1">
      <!-- 0 -->
      <g transform="translate(66.036932 266.598437)scale(0.1 -0.1)">
       <defs>
        <path id="DejaVuSans-30" d="M 2034 4250 
Q 1547 4250 1301 3770 
Q 1056 3291 1056 2328 
Q 1056 1369 1301 889 
Q 1547 409 2034 409 
Q 2525 409 2770 889 
Q 3016 1369 3016 2328 
Q 3016 3291 2770 3770 
Q 2525 4250 2034 4250 
z
M 2034 4750 
Q 2819 4750 3233 4129 
Q 3647 3509 3647 2328 
Q 3647 1150 3233 529 
Q 2819 -91 2034 -91 
Q 1250 -91 836 529 
Q 422 1150 422 2328 
Q 422 3509 836 4129 
Q 1250 4750 2034 4750 
z
" transform="scale(0.015625)"/>
       </defs>
       <use xlink:href="#DejaVuSans-30"/>
      </g>
     </g>
    </g>
    <g id="xtick_2">
     <g id="line2d_3">
      <path d="M 120.805239 252 
L 120.805239 34.56 
" clip-path="url(#pd5b6f5c1ee)" style="fill: none; stroke-dasharray: 2.96,1.28; stroke-dashoffset: 0; stroke: #b0b0b0; stroke-width: 0.8"/>
     </g>
     <g id="line2d_4">
      <g>
       <use xlink:href="#m0e3654c0b0" x="120.805239" y="252" style="stroke: #000000; stroke-width: 0.8"/>
      </g>
     </g>
     <g id="text_2">
      <!-- 500 -->
      <g transform="translate(111.261489 266.598437)scale(0.1 -0.1)">
       <defs>
        <path id="DejaVuSans-35" d="M 691 4666 
L 3169 4666 
L 3169 4134 
L 1269 4134 
L 1269 2991 
Q 1406 3038 1543 3061 
Q 1681 3084 1819 3084 
Q 2600 3084 3056 2656 
Q 3513 2228 3513 1497 
Q 3513 744 3044 326 
Q 2575 -91 1722 -91 
Q 1428 -91 1123 -41 
Q 819 9 494 109 
L 494 744 
Q 775 591 1075 516 
Q 1375 441 1709 441 
Q 2250 441 2565 725 
Q 2881 1009 2881 1497 
Q 2881 1984 2565 2268 
Q 2250 2553 1709 2553 
Q 1456 2553 1204 2497 
Q 953 2441 691 2322 
L 691 4666 
z
" transform="scale(0.015625)"/>
       </defs>
       <use xlink:href="#DejaVuSans-35"/>
       <use xlink:href="#DejaVuSans-30" x="63.623047"/>
       <use xlink:href="#DejaVuSans-30" x="127.246094"/>
      </g>
     </g>
    </g>
    <g id="xtick_3">
     <g id="line2d_5">
      <path d="M 172.392296 252 
L 172.392296 34.56 
" clip-path="url(#pd5b6f5c1ee)" style="fill: none; stroke-dasharray: 2.96,1.28; stroke-dashoffset: 0; stroke: #b0b0b0; stroke-width: 0.8"/>
     </g>
     <g id="line2d_6">
      <g>
       <use xlink:href="#m0e3654c0b0" x="172.392296" y="252" style="stroke: #000000; stroke-width: 0.8"/>
      </g>
     </g>
     <g id="text_3">
      <!-- 1000 -->
      <g transform="translate(159.667296 266.598437)scale(0.1 -0.1)">
       <defs>
        <path id="DejaVuSans-31" d="M 794 531 
L 1825 531 
L 1825 4091 
L 703 3866 
L 703 4441 
L 1819 4666 
L 2450 4666 
L 2450 531 
L 3481 531 
L 3481 0 
L 794 0 
L 794 531 
z
" transform="scale(0.015625)"/>
       </defs>
       <use xlink:href="#DejaVuSans-31"/>
       <use xlink:href="#DejaVuSans-30" x="63.623047"/>
       <use xlink:href="#DejaVuSans-30" x="127.246094"/>
       <use xlink:href="#DejaVuSans-30" x="190.869141"/>
      </g>
     </g>
    </g>
    <g id="xtick_4">
     <g id="line2d_7">
      <path d="M 223.979353 252 
L 223.979353 34.56 
" clip-path="url(#pd5b6f5c1ee)" style="fill: none; stroke-dasharray: 2.96,1.28; stroke-dashoffset: 0; stroke: #b0b0b0; stroke-width: 0.8"/>
     </g>
     <g id="line2d_8">
      <g>
       <use xlink:href="#m0e3654c0b0" x="223.979353" y="252" style="stroke: #000000; stroke-width: 0.8"/>
      </g>
     </g>
     <g id="text_4">
      <!-- 1500 -->
      <g transform="translate(211.254353 266.598437)scale(0.1 -0.1)">
       <use xlink:href="#DejaVuSans-31"/>
       <use xlink:href="#DejaVuSans-35" x="63.623047"/>
       <use xlink:href="#DejaVuSans-30" x="127.246094"/>
       <use xlink:href="#DejaVuSans-30" x="190.869141"/>
      </g>
     </g>
    </g>
    <g id="xtick_5">
     <g id="line2d_9">
      <path d="M 275.56641 252 
L 275.56641 34.56 
" clip-path="url(#pd5b6f5c1ee)" style="fill: none; stroke-dasharray: 2.96,1.28; stroke-dashoffset: 0; stroke: #b0b0b0; stroke-width: 0.8"/>
     </g>
     <g id="line2d_10">
      <g>
       <use xlink:href="#m0e3654c0b0" x="275.56641" y="252" style="stroke: #000000; stroke-width: 0.8"/>
      </g>
     </g>
     <g id="text_5">
      <!-- 2000 -->
      <g transform="translate(262.84141 266.598437)scale(0.1 -0.1)">
       <defs>
        <path id="DejaVuSans-32" d="M 1228 531 
L 3431 531 
L 3431 0 
L 469 0 
L 469 531 
Q 828 903 1448 1529 
Q 2069 2156 2228 2338 
Q 2531 2678 2651 2914 
Q 2772 3150 2772 3378 
Q 2772 3750 2511 3984 
Q 2250 4219 1831 4219 
Q 1534 4219 1204 4116 
Q 875 4013 500 3803 
L 500 4441 
Q 881 4594 1212 4672 
Q 1544 4750 1819 4750 
Q 2544 4750 2975 4387 
Q 3406 4025 3406 3419 
Q 3406 3131 3298 2873 
Q 3191 2616 2906 2266 
Q 2828 2175 2409 1742 
Q 1991 1309 1228 531 
z
" transform="scale(0.015625)"/>
       </defs>
       <use xlink:href="#DejaVuSans-32"/>
       <use xlink:href="#DejaVuSans-30" x="63.623047"/>
       <use xlink:href="#DejaVuSans-30" x="127.246094"/>
       <use xlink:href="#DejaVuSans-30" x="190.869141"/>
      </g>
     </g>
    </g>
    <g id="xtick_6">
     <g id="line2d_11">
      <path d="M 327.153467 252 
L 327.153467 34.56 
" clip-path="url(#pd5b6f5c1ee)" style="fill: none; stroke-dasharray: 2.96,1.28; stroke-dashoffset: 0; stroke: #b0b0b0; stroke-width: 0.8"/>
     </g>
     <g id="line2d_12">
      <g>
       <use xlink:href="#m0e3654c0b0" x="327.153467" y="252" style="stroke: #000000; stroke-width: 0.8"/>
      </g>
     </g>
     <g id="text_6">
      <!-- 2500 -->
      <g transform="translate(314.428467 266.598437)scale(0.1 -0.1)">
       <use xlink:href="#DejaVuSans-32"/>
       <use xlink:href="#DejaVuSans-35" x="63.623047"/>
       <use xlink:href="#DejaVuSans-30" x="127.246094"/>
       <use xlink:href="#DejaVuSans-30" x="190.869141"/>
      </g>
     </g>
    </g>
    <g id="xtick_7">
     <g id="line2d_13">
      <path d="M 378.740524 252 
L 378.740524 34.56 
" clip-path="url(#pd5b6f5c1ee)" style="fill: none; stroke-dasharray: 2.96,1.28; stroke-dashoffset: 0; stroke: #b0b0b0; stroke-width: 0.8"/>
     </g>
     <g id="line2d_14">
      <g>
       <use xlink:href="#m0e3654c0b0" x="378.740524" y="252" style="stroke: #000000; stroke-width: 0.8"/>
      </g>
     </g>
     <g id="text_7">
      <!-- 3000 -->
      <g transform="translate(366.015524 266.598437)scale(0.1 -0.1)">
       <defs>
        <path id="DejaVuSans-33" d="M 2597 2516 
Q 3050 2419 3304 2112 
Q 3559 1806 3559 1356 
Q 3559 666 3084 287 
Q 2609 -91 1734 -91 
Q 1441 -91 1130 -33 
Q 819 25 488 141 
L 488 750 
Q 750 597 1062 519 
Q 1375 441 1716 441 
Q 2309 441 2620 675 
Q 2931 909 2931 1356 
Q 2931 1769 2642 2001 
Q 2353 2234 1838 2234 
L 1294 2234 
L 1294 2753 
L 1863 2753 
Q 2328 2753 2575 2939 
Q 2822 3125 2822 3475 
Q 2822 3834 2567 4026 
Q 2313 4219 1838 4219 
Q 1578 4219 1281 4162 
Q 984 4106 628 3988 
L 628 4550 
Q 988 4650 1302 4700 
Q 1616 4750 1894 4750 
Q 2613 4750 3031 4423 
Q 3450 4097 3450 3541 
Q 3450 3153 3228 2886 
Q 3006 2619 2597 2516 
z
" transform="scale(0.015625)"/>
       </defs>
       <use xlink:href="#DejaVuSans-33"/>
       <use xlink:href="#DejaVuSans-30" x="63.623047"/>
       <use xlink:href="#DejaVuSans-30" x="127.246094"/>
       <use xlink:href="#DejaVuSans-30" x="190.869141"/>
      </g>
     </g>
    </g>
    <g id="text_8">
     <!-- Steps -->
     <g transform="translate(207.410156 280.276563)scale(0.1 -0.1)">
      <defs>
       <path id="DejaVuSans-53" d="M 3425 4513 
L 3425 3897 
Q 3066 4069 2747 4153 
Q 2428 4238 2131 4238 
Q 1616 4238 1336 4038 
Q 1056 3838 1056 3469 
Q 1056 3159 1242 3001 
Q 1428 2844 1947 2747 
L 2328 2669 
Q 3034 2534 3370 2195 
Q 3706 1856 3706 1288 
Q 3706 609 3251 259 
Q 2797 -91 1919 -91 
Q 1588 -91 1214 -16 
Q 841 59 441 206 
L 441 856 
Q 825 641 1194 531 
Q 1563 422 1919 422 
Q 2459 422 2753 634 
Q 3047 847 3047 1241 
Q 3047 1584 2836 1778 
Q 2625 1972 2144 2069 
L 1759 2144 
Q 1053 2284 737 2584 
Q 422 2884 422 3419 
Q 422 4038 858 4394 
Q 1294 4750 2059 4750 
Q 2388 4750 2728 4690 
Q 3069 4631 3425 4513 
z
" transform="scale(0.015625)"/>
       <path id="DejaVuSans-74" d="M 1172 4494 
L 1172 3500 
L 2356 3500 
L 2356 3053 
L 1172 3053 
L 1172 1153 
Q 1172 725 1289 603 
Q 1406 481 1766 481 
L 2356 481 
L 2356 0 
L 1766 0 
Q 1100 0 847 248 
Q 594 497 594 1153 
L 594 3053 
L 172 3053 
L 172 3500 
L 594 3500 
L 594 4494 
L 1172 4494 
z
" transform="scale(0.015625)"/>
       <path id="DejaVuSans-65" d="M 3597 1894 
L 3597 1613 
L 953 1613 
Q 991 1019 1311 708 
Q 1631 397 2203 397 
Q 2534 397 2845 478 
Q 3156 559 3463 722 
L 3463 178 
Q 3153 47 2828 -22 
Q 2503 -91 2169 -91 
Q 1331 -91 842 396 
Q 353 884 353 1716 
Q 353 2575 817 3079 
Q 1281 3584 2069 3584 
Q 2775 3584 3186 3129 
Q 3597 2675 3597 1894 
z
M 3022 2063 
Q 3016 2534 2758 2815 
Q 2500 3097 2075 3097 
Q 1594 3097 1305 2825 
Q 1016 2553 972 2059 
L 3022 2063 
z
" transform="scale(0.015625)"/>
       <path id="DejaVuSans-70" d="M 1159 525 
L 1159 -1331 
L 581 -1331 
L 581 3500 
L 1159 3500 
L 1159 2969 
Q 1341 3281 1617 3432 
Q 1894 3584 2278 3584 
Q 2916 3584 3314 3078 
Q 3713 2572 3713 1747 
Q 3713 922 3314 415 
Q 2916 -91 2278 -91 
Q 1894 -91 1617 61 
Q 1341 213 1159 525 
z
M 3116 1747 
Q 3116 2381 2855 2742 
Q 2594 3103 2138 3103 
Q 1681 3103 1420 2742 
Q 1159 2381 1159 1747 
Q 1159 1113 1420 752 
Q 1681 391 2138 391 
Q 2594 391 2855 752 
Q 3116 1113 3116 1747 
z
" transform="scale(0.015625)"/>
       <path id="DejaVuSans-73" d="M 2834 3397 
L 2834 2853 
Q 2591 2978 2328 3040 
Q 2066 3103 1784 3103 
Q 1356 3103 1142 2972 
Q 928 2841 928 2578 
Q 928 2378 1081 2264 
Q 1234 2150 1697 2047 
L 1894 2003 
Q 2506 1872 2764 1633 
Q 3022 1394 3022 966 
Q 3022 478 2636 193 
Q 2250 -91 1575 -91 
Q 1294 -91 989 -36 
Q 684 19 347 128 
L 347 722 
Q 666 556 975 473 
Q 1284 391 1588 391 
Q 1994 391 2212 530 
Q 2431 669 2431 922 
Q 2431 1156 2273 1281 
Q 2116 1406 1581 1522 
L 1381 1569 
Q 847 1681 609 1914 
Q 372 2147 372 2553 
Q 372 3047 722 3315 
Q 1072 3584 1716 3584 
Q 2034 3584 2315 3537 
Q 2597 3491 2834 3397 
z
" transform="scale(0.015625)"/>
      </defs>
      <use xlink:href="#DejaVuSans-53"/>
      <use xlink:href="#DejaVuSans-74" x="63.476562"/>
      <use xlink:href="#DejaVuSans-65" x="102.685547"/>
      <use xlink:href="#DejaVuSans-70" x="164.208984"/>
      <use xlink:href="#DejaVuSans-73" x="227.685547"/>
     </g>
    </g>
   </g>
   <g id="matplotlib.axis_2">
    <g id="ytick_1">
     <g id="line2d_15">
      <path d="M 54 243.636923 
L 388.8 243.636923 
" clip-path="url(#pd5b6f5c1ee)" style="fill: none; stroke-dasharray: 2.96,1.28; stroke-dashoffset: 0; stroke: #b0b0b0; stroke-width: 0.8"/>
     </g>
     <g id="line2d_16">
      <defs>
       <path id="mc7ae9b8ceb" d="M 0 0 
L -3.5 0 
" style="stroke: #000000; stroke-width: 0.8"/>
      </defs>
      <g>
       <use xlink:href="#mc7ae9b8ceb" x="54" y="243.636923" style="stroke: #000000; stroke-width: 0.8"/>
      </g>
     </g>
     <g id="text_9">
      <!-- −12 -->
      <g transform="translate(25.895312 247.436142)scale(0.1 -0.1)">
       <defs>
        <path id="DejaVuSans-2212" d="M 678 2272 
L 4684 2272 
L 4684 1741 
L 678 1741 
L 678 2272 
z
" transform="scale(0.015625)"/>
       </defs>
       <use xlink:href="#DejaVuSans-2212"/>
       <use xlink:href="#DejaVuSans-31" x="83.789062"/>
       <use xlink:href="#DejaVuSans-32" x="147.412109"/>
      </g>
     </g>
    </g>
    <g id="ytick_2">
     <g id="line2d_17">
      <path d="M 54 210.184615 
L 388.8 210.184615 
" clip-path="url(#pd5b6f5c1ee)" style="fill: none; stroke-dasharray: 2.96,1.28; stroke-dashoffset: 0; stroke: #b0b0b0; stroke-width: 0.8"/>
     </g>
     <g id="line2d_18">
      <g>
       <use xlink:href="#mc7ae9b8ceb" x="54" y="210.184615" style="stroke: #000000; stroke-width: 0.8"/>
      </g>
     </g>
     <g id="text_10">
      <!-- −10 -->
      <g transform="translate(25.895312 213.983834)scale(0.1 -0.1)">
       <use xlink:href="#DejaVuSans-2212"/>
       <use xlink:href="#DejaVuSans-31" x="83.789062"/>
       <use xlink:href="#DejaVuSans-30" x="147.412109"/>
      </g>
     </g>
    </g>
    <g id="ytick_3">
     <g id="line2d_19">
      <path d="M 54 176.732308 
L 388.8 176.732308 
" clip-path="url(#pd5b6f5c1ee)" style="fill: none; stroke-dasharray: 2.96,1.28; stroke-dashoffset: 0; stroke: #b0b0b0; stroke-width: 0.8"/>
     </g>
     <g id="line2d_20">
      <g>
       <use xlink:href="#mc7ae9b8ceb" x="54" y="176.732308" style="stroke: #000000; stroke-width: 0.8"/>
      </g>
     </g>
     <g id="text_11">
      <!-- −8 -->
      <g transform="translate(32.257812 180.531526)scale(0.1 -0.1)">
       <defs>
        <path id="DejaVuSans-38" d="M 2034 2216 
Q 1584 2216 1326 1975 
Q 1069 1734 1069 1313 
Q 1069 891 1326 650 
Q 1584 409 2034 409 
Q 2484 409 2743 651 
Q 3003 894 3003 1313 
Q 3003 1734 2745 1975 
Q 2488 2216 2034 2216 
z
M 1403 2484 
Q 997 2584 770 2862 
Q 544 3141 544 3541 
Q 544 4100 942 4425 
Q 1341 4750 2034 4750 
Q 2731 4750 3128 4425 
Q 3525 4100 3525 3541 
Q 3525 3141 3298 2862 
Q 3072 2584 2669 2484 
Q 3125 2378 3379 2068 
Q 3634 1759 3634 1313 
Q 3634 634 3220 271 
Q 2806 -91 2034 -91 
Q 1263 -91 848 271 
Q 434 634 434 1313 
Q 434 1759 690 2068 
Q 947 2378 1403 2484 
z
M 1172 3481 
Q 1172 3119 1398 2916 
Q 1625 2713 2034 2713 
Q 2441 2713 2670 2916 
Q 2900 3119 2900 3481 
Q 2900 3844 2670 4047 
Q 2441 4250 2034 4250 
Q 1625 4250 1398 4047 
Q 1172 3844 1172 3481 
z
" transform="scale(0.015625)"/>
       </defs>
       <use xlink:href="#DejaVuSans-2212"/>
       <use xlink:href="#DejaVuSans-38" x="83.789062"/>
      </g>
     </g>
    </g>
    <g id="ytick_4">
     <g id="line2d_21">
      <path d="M 54 143.28 
L 388.8 143.28 
" clip-path="url(#pd5b6f5c1ee)" style="fill: none; stroke-dasharray: 2.96,1.28; stroke-dashoffset: 0; stroke: #b0b0b0; stroke-width: 0.8"/>
     </g>
     <g id="line2d_22">
      <g>
       <use xlink:href="#mc7ae9b8ceb" x="54" y="143.28" style="stroke: #000000; stroke-width: 0.8"/>
      </g>
     </g>
     <g id="text_12">
      <!-- −6 -->
      <g transform="translate(32.257812 147.079219)scale(0.1 -0.1)">
       <defs>
        <path id="DejaVuSans-36" d="M 2113 2584 
Q 1688 2584 1439 2293 
Q 1191 2003 1191 1497 
Q 1191 994 1439 701 
Q 1688 409 2113 409 
Q 2538 409 2786 701 
Q 3034 994 3034 1497 
Q 3034 2003 2786 2293 
Q 2538 2584 2113 2584 
z
M 3366 4563 
L 3366 3988 
Q 3128 4100 2886 4159 
Q 2644 4219 2406 4219 
Q 1781 4219 1451 3797 
Q 1122 3375 1075 2522 
Q 1259 2794 1537 2939 
Q 1816 3084 2150 3084 
Q 2853 3084 3261 2657 
Q 3669 2231 3669 1497 
Q 3669 778 3244 343 
Q 2819 -91 2113 -91 
Q 1303 -91 875 529 
Q 447 1150 447 2328 
Q 447 3434 972 4092 
Q 1497 4750 2381 4750 
Q 2619 4750 2861 4703 
Q 3103 4656 3366 4563 
z
" transform="scale(0.015625)"/>
       </defs>
       <use xlink:href="#DejaVuSans-2212"/>
       <use xlink:href="#DejaVuSans-36" x="83.789062"/>
      </g>
     </g>
    </g>
    <g id="ytick_5">
     <g id="line2d_23">
      <path d="M 54 109.827692 
L 388.8 109.827692 
" clip-path="url(#pd5b6f5c1ee)" style="fill: none; stroke-dasharray: 2.96,1.28; stroke-dashoffset: 0; stroke: #b0b0b0; stroke-width: 0.8"/>
     </g>
     <g id="line2d_24">
      <g>
       <use xlink:href="#mc7ae9b8ceb" x="54" y="109.827692" style="stroke: #000000; stroke-width: 0.8"/>
      </g>
     </g>
     <g id="text_13">
      <!-- −4 -->
      <g transform="translate(32.257812 113.626911)scale(0.1 -0.1)">
       <defs>
        <path id="DejaVuSans-34" d="M 2419 4116 
L 825 1625 
L 2419 1625 
L 2419 4116 
z
M 2253 4666 
L 3047 4666 
L 3047 1625 
L 3713 1625 
L 3713 1100 
L 3047 1100 
L 3047 0 
L 2419 0 
L 2419 1100 
L 313 1100 
L 313 1709 
L 2253 4666 
z
" transform="scale(0.015625)"/>
       </defs>
       <use xlink:href="#DejaVuSans-2212"/>
       <use xlink:href="#DejaVuSans-34" x="83.789062"/>
      </g>
     </g>
    </g>
    <g id="ytick_6">
     <g id="line2d_25">
      <path d="M 54 76.375385 
L 388.8 76.375385 
" clip-path="url(#pd5b6f5c1ee)" style="fill: none; stroke-dasharray: 2.96,1.28; stroke-dashoffset: 0; stroke: #b0b0b0; stroke-width: 0.8"/>
     </g>
     <g id="line2d_26">
      <g>
       <use xlink:href="#mc7ae9b8ceb" x="54" y="76.375385" style="stroke: #000000; stroke-width: 0.8"/>
      </g>
     </g>
     <g id="text_14">
      <!-- −2 -->
      <g transform="translate(32.257812 80.174603)scale(0.1 -0.1)">
       <use xlink:href="#DejaVuSans-2212"/>
       <use xlink:href="#DejaVuSans-32" x="83.789062"/>
      </g>
     </g>
    </g>
    <g id="ytick_7">
     <g id="line2d_27">
      <path d="M 54 42.923077 
L 388.8 42.923077 
" clip-path="url(#pd5b6f5c1ee)" style="fill: none; stroke-dasharray: 2.96,1.28; stroke-dashoffset: 0; stroke: #b0b0b0; stroke-width: 0.8"/>
     </g>
     <g id="line2d_28">
      <g>
       <use xlink:href="#mc7ae9b8ceb" x="54" y="42.923077" style="stroke: #000000; stroke-width: 0.8"/>
      </g>
     </g>
     <g id="text_15">
      <!-- 0 -->
      <g transform="translate(40.6375 46.722296)scale(0.1 -0.1)">
       <use xlink:href="#DejaVuSans-30"/>
      </g>
     </g>
    </g>
    <g id="text_16">
     <!-- Policy value error -->
     <g transform="translate(19.815625 186.597969)rotate(-90)scale(0.1 -0.1)">
      <defs>
       <path id="DejaVuSans-50" d="M 1259 4147 
L 1259 2394 
L 2053 2394 
Q 2494 2394 2734 2622 
Q 2975 2850 2975 3272 
Q 2975 3691 2734 3919 
Q 2494 4147 2053 4147 
L 1259 4147 
z
M 628 4666 
L 2053 4666 
Q 2838 4666 3239 4311 
Q 3641 3956 3641 3272 
Q 3641 2581 3239 2228 
Q 2838 1875 2053 1875 
L 1259 1875 
L 1259 0 
L 628 0 
L 628 4666 
z
" transform="scale(0.015625)"/>
       <path id="DejaVuSans-6f" d="M 1959 3097 
Q 1497 3097 1228 2736 
Q 959 2375 959 1747 
Q 959 1119 1226 758 
Q 1494 397 1959 397 
Q 2419 397 2687 759 
Q 2956 1122 2956 1747 
Q 2956 2369 2687 2733 
Q 2419 3097 1959 3097 
z
M 1959 3584 
Q 2709 3584 3137 3096 
Q 3566 2609 3566 1747 
Q 3566 888 3137 398 
Q 2709 -91 1959 -91 
Q 1206 -91 779 398 
Q 353 888 353 1747 
Q 353 2609 779 3096 
Q 1206 3584 1959 3584 
z
" transform="scale(0.015625)"/>
       <path id="DejaVuSans-6c" d="M 603 4863 
L 1178 4863 
L 1178 0 
L 603 0 
L 603 4863 
z
" transform="scale(0.015625)"/>
       <path id="DejaVuSans-69" d="M 603 3500 
L 1178 3500 
L 1178 0 
L 603 0 
L 603 3500 
z
M 603 4863 
L 1178 4863 
L 1178 4134 
L 603 4134 
L 603 4863 
z
" transform="scale(0.015625)"/>
       <path id="DejaVuSans-63" d="M 3122 3366 
L 3122 2828 
Q 2878 2963 2633 3030 
Q 2388 3097 2138 3097 
Q 1578 3097 1268 2742 
Q 959 2388 959 1747 
Q 959 1106 1268 751 
Q 1578 397 2138 397 
Q 2388 397 2633 464 
Q 2878 531 3122 666 
L 3122 134 
Q 2881 22 2623 -34 
Q 2366 -91 2075 -91 
Q 1284 -91 818 406 
Q 353 903 353 1747 
Q 353 2603 823 3093 
Q 1294 3584 2113 3584 
Q 2378 3584 2631 3529 
Q 2884 3475 3122 3366 
z
" transform="scale(0.015625)"/>
       <path id="DejaVuSans-79" d="M 2059 -325 
Q 1816 -950 1584 -1140 
Q 1353 -1331 966 -1331 
L 506 -1331 
L 506 -850 
L 844 -850 
Q 1081 -850 1212 -737 
Q 1344 -625 1503 -206 
L 1606 56 
L 191 3500 
L 800 3500 
L 1894 763 
L 2988 3500 
L 3597 3500 
L 2059 -325 
z
" transform="scale(0.015625)"/>
       <path id="DejaVuSans-20" transform="scale(0.015625)"/>
       <path id="DejaVuSans-76" d="M 191 3500 
L 800 3500 
L 1894 563 
L 2988 3500 
L 3597 3500 
L 2284 0 
L 1503 0 
L 191 3500 
z
" transform="scale(0.015625)"/>
       <path id="DejaVuSans-61" d="M 2194 1759 
Q 1497 1759 1228 1600 
Q 959 1441 959 1056 
Q 959 750 1161 570 
Q 1363 391 1709 391 
Q 2188 391 2477 730 
Q 2766 1069 2766 1631 
L 2766 1759 
L 2194 1759 
z
M 3341 1997 
L 3341 0 
L 2766 0 
L 2766 531 
Q 2569 213 2275 61 
Q 1981 -91 1556 -91 
Q 1019 -91 701 211 
Q 384 513 384 1019 
Q 384 1609 779 1909 
Q 1175 2209 1959 2209 
L 2766 2209 
L 2766 2266 
Q 2766 2663 2505 2880 
Q 2244 3097 1772 3097 
Q 1472 3097 1187 3025 
Q 903 2953 641 2809 
L 641 3341 
Q 956 3463 1253 3523 
Q 1550 3584 1831 3584 
Q 2591 3584 2966 3190 
Q 3341 2797 3341 1997 
z
" transform="scale(0.015625)"/>
       <path id="DejaVuSans-75" d="M 544 1381 
L 544 3500 
L 1119 3500 
L 1119 1403 
Q 1119 906 1312 657 
Q 1506 409 1894 409 
Q 2359 409 2629 706 
Q 2900 1003 2900 1516 
L 2900 3500 
L 3475 3500 
L 3475 0 
L 2900 0 
L 2900 538 
Q 2691 219 2414 64 
Q 2138 -91 1772 -91 
Q 1169 -91 856 284 
Q 544 659 544 1381 
z
M 1991 3584 
L 1991 3584 
z
" transform="scale(0.015625)"/>
       <path id="DejaVuSans-72" d="M 2631 2963 
Q 2534 3019 2420 3045 
Q 2306 3072 2169 3072 
Q 1681 3072 1420 2755 
Q 1159 2438 1159 1844 
L 1159 0 
L 581 0 
L 581 3500 
L 1159 3500 
L 1159 2956 
Q 1341 3275 1631 3429 
Q 1922 3584 2338 3584 
Q 2397 3584 2469 3576 
Q 2541 3569 2628 3553 
L 2631 2963 
z
" transform="scale(0.015625)"/>
      </defs>
      <use xlink:href="#DejaVuSans-50"/>
      <use xlink:href="#DejaVuSans-6f" x="56.677734"/>
      <use xlink:href="#DejaVuSans-6c" x="117.859375"/>
      <use xlink:href="#DejaVuSans-69" x="145.642578"/>
      <use xlink:href="#DejaVuSans-63" x="173.425781"/>
      <use xlink:href="#DejaVuSans-79" x="228.40625"/>
      <use xlink:href="#DejaVuSans-20" x="287.585938"/>
      <use xlink:href="#DejaVuSans-76" x="319.373047"/>
      <use xlink:href="#DejaVuSans-61" x="378.552734"/>
      <use xlink:href="#DejaVuSans-6c" x="439.832031"/>
      <use xlink:href="#DejaVuSans-75" x="467.615234"/>
      <use xlink:href="#DejaVuSans-65" x="530.994141"/>
      <use xlink:href="#DejaVuSans-20" x="592.517578"/>
      <use xlink:href="#DejaVuSans-65" x="624.304688"/>
      <use xlink:href="#DejaVuSans-72" x="685.828125"/>
      <use xlink:href="#DejaVuSans-72" x="725.191406"/>
      <use xlink:href="#DejaVuSans-6f" x="764.054688"/>
      <use xlink:href="#DejaVuSans-72" x="825.236328"/>
     </g>
    </g>
   </g>
   <g id="line2d_29">
    <path d="M 69.218182 260.487176 
L 74.376888 253.432345 
L 79.535593 223.680833 
L 84.694299 238.324065 
L 89.853005 239.428678 
L 95.01171 254.954885 
L 100.170416 254.987758 
L 105.329122 254.987743 
L 110.487827 255.631014 
L 115.646533 254.364419 
L 120.805239 263.387544 
L 125.963945 258.638743 
L 131.12265 258.642369 
L 136.281356 263.737754 
L 141.440062 258.806392 
L 146.598767 256.632886 
L 151.757473 256.835118 
L 156.916179 256.834954 
L 162.074884 256.884863 
L 167.23359 255.234678 
L 172.392296 255.545973 
L 177.551002 252.939494 
L 182.709707 260.21693 
L 187.868413 258.804519 
L 193.027119 258.564583 
L 198.185824 255.438944 
L 203.34453 255.298744 
L 208.503236 262.100076 
L 213.661941 256.047731 
L 218.820647 254.78638 
L 223.979353 256.047731 
L 229.138059 253.344541 
L 234.296764 253.347744 
L 239.45547 250.719416 
L 244.614176 251.018201 
L 249.772881 253.405863 
L 254.931587 61.20042 
L 260.090293 65.582284 
L 265.248998 254.470713 
L 270.407704 61.579897 
L 275.56641 72.12071 
L 280.725116 61.57947 
L 285.883821 61.57947 
L 291.042527 253.324312 
L 296.201233 62.227141 
L 301.359938 62.227141 
L 306.518644 61.579699 
L 311.67735 61.200649 
L 316.836055 61.200649 
L 321.994761 61.200649 
L 327.153467 61.200649 
L 332.312173 61.200649 
L 337.470878 61.200649 
L 342.629584 61.200649 
L 347.78829 61.200649 
L 352.946995 61.200649 
L 358.105701 66.35932 
L 363.264407 76.582674 
L 368.423112 73.659128 
L 373.581818 146.486112 
" clip-path="url(#pd5b6f5c1ee)" style="fill: none; stroke: #9d02d7; stroke-width: 1.5; stroke-linecap: square"/>
    <defs>
     <path id="m3bfcaf4f8c" d="M 0 -2 
L -2 2 
L 2 2 
z
" style="stroke: #9d02d7; stroke-linejoin: miter"/>
    </defs>
    <g clip-path="url(#pd5b6f5c1ee)">
     <use xlink:href="#m3bfcaf4f8c" x="69.218182" y="260.487176" style="fill: #9d02d7; stroke: #9d02d7; stroke-linejoin: miter"/>
     <use xlink:href="#m3bfcaf4f8c" x="74.376888" y="253.432345" style="fill: #9d02d7; stroke: #9d02d7; stroke-linejoin: miter"/>
     <use xlink:href="#m3bfcaf4f8c" x="79.535593" y="223.680833" style="fill: #9d02d7; stroke: #9d02d7; stroke-linejoin: miter"/>
     <use xlink:href="#m3bfcaf4f8c" x="84.694299" y="238.324065" style="fill: #9d02d7; stroke: #9d02d7; stroke-linejoin: miter"/>
     <use xlink:href="#m3bfcaf4f8c" x="89.853005" y="239.428678" style="fill: #9d02d7; stroke: #9d02d7; stroke-linejoin: miter"/>
     <use xlink:href="#m3bfcaf4f8c" x="95.01171" y="254.954885" style="fill: #9d02d7; stroke: #9d02d7; stroke-linejoin: miter"/>
     <use xlink:href="#m3bfcaf4f8c" x="100.170416" y="254.987758" style="fill: #9d02d7; stroke: #9d02d7; stroke-linejoin: miter"/>
     <use xlink:href="#m3bfcaf4f8c" x="105.329122" y="254.987743" style="fill: #9d02d7; stroke: #9d02d7; stroke-linejoin: miter"/>
     <use xlink:href="#m3bfcaf4f8c" x="110.487827" y="255.631014" style="fill: #9d02d7; stroke: #9d02d7; stroke-linejoin: miter"/>
     <use xlink:href="#m3bfcaf4f8c" x="115.646533" y="254.364419" style="fill: #9d02d7; stroke: #9d02d7; stroke-linejoin: miter"/>
     <use xlink:href="#m3bfcaf4f8c" x="120.805239" y="263.387544" style="fill: #9d02d7; stroke: #9d02d7; stroke-linejoin: miter"/>
     <use xlink:href="#m3bfcaf4f8c" x="125.963945" y="258.638743" style="fill: #9d02d7; stroke: #9d02d7; stroke-linejoin: miter"/>
     <use xlink:href="#m3bfcaf4f8c" x="131.12265" y="258.642369" style="fill: #9d02d7; stroke: #9d02d7; stroke-linejoin: miter"/>
     <use xlink:href="#m3bfcaf4f8c" x="136.281356" y="263.737754" style="fill: #9d02d7; stroke: #9d02d7; stroke-linejoin: miter"/>
     <use xlink:href="#m3bfcaf4f8c" x="141.440062" y="258.806392" style="fill: #9d02d7; stroke: #9d02d7; stroke-linejoin: miter"/>
     <use xlink:href="#m3bfcaf4f8c" x="146.598767" y="256.632886" style="fill: #9d02d7; stroke: #9d02d7; stroke-linejoin: miter"/>
     <use xlink:href="#m3bfcaf4f8c" x="151.757473" y="256.835118" style="fill: #9d02d7; stroke: #9d02d7; stroke-linejoin: miter"/>
     <use xlink:href="#m3bfcaf4f8c" x="156.916179" y="256.834954" style="fill: #9d02d7; stroke: #9d02d7; stroke-linejoin: miter"/>
     <use xlink:href="#m3bfcaf4f8c" x="162.074884" y="256.884863" style="fill: #9d02d7; stroke: #9d02d7; stroke-linejoin: miter"/>
     <use xlink:href="#m3bfcaf4f8c" x="167.23359" y="255.234678" style="fill: #9d02d7; stroke: #9d02d7; stroke-linejoin: miter"/>
     <use xlink:href="#m3bfcaf4f8c" x="172.392296" y="255.545973" style="fill: #9d02d7; stroke: #9d02d7; stroke-linejoin: miter"/>
     <use xlink:href="#m3bfcaf4f8c" x="177.551002" y="252.939494" style="fill: #9d02d7; stroke: #9d02d7; stroke-linejoin: miter"/>
     <use xlink:href="#m3bfcaf4f8c" x="182.709707" y="260.21693" style="fill: #9d02d7; stroke: #9d02d7; stroke-linejoin: miter"/>
     <use xlink:href="#m3bfcaf4f8c" x="187.868413" y="258.804519" style="fill: #9d02d7; stroke: #9d02d7; stroke-linejoin: miter"/>
     <use xlink:href="#m3bfcaf4f8c" x="193.027119" y="258.564583" style="fill: #9d02d7; stroke: #9d02d7; stroke-linejoin: miter"/>
     <use xlink:href="#m3bfcaf4f8c" x="198.185824" y="255.438944" style="fill: #9d02d7; stroke: #9d02d7; stroke-linejoin: miter"/>
     <use xlink:href="#m3bfcaf4f8c" x="203.34453" y="255.298744" style="fill: #9d02d7; stroke: #9d02d7; stroke-linejoin: miter"/>
     <use xlink:href="#m3bfcaf4f8c" x="208.503236" y="262.100076" style="fill: #9d02d7; stroke: #9d02d7; stroke-linejoin: miter"/>
     <use xlink:href="#m3bfcaf4f8c" x="213.661941" y="256.047731" style="fill: #9d02d7; stroke: #9d02d7; stroke-linejoin: miter"/>
     <use xlink:href="#m3bfcaf4f8c" x="218.820647" y="254.78638" style="fill: #9d02d7; stroke: #9d02d7; stroke-linejoin: miter"/>
     <use xlink:href="#m3bfcaf4f8c" x="223.979353" y="256.047731" style="fill: #9d02d7; stroke: #9d02d7; stroke-linejoin: miter"/>
     <use xlink:href="#m3bfcaf4f8c" x="229.138059" y="253.344541" style="fill: #9d02d7; stroke: #9d02d7; stroke-linejoin: miter"/>
     <use xlink:href="#m3bfcaf4f8c" x="234.296764" y="253.347744" style="fill: #9d02d7; stroke: #9d02d7; stroke-linejoin: miter"/>
     <use xlink:href="#m3bfcaf4f8c" x="239.45547" y="250.719416" style="fill: #9d02d7; stroke: #9d02d7; stroke-linejoin: miter"/>
     <use xlink:href="#m3bfcaf4f8c" x="244.614176" y="251.018201" style="fill: #9d02d7; stroke: #9d02d7; stroke-linejoin: miter"/>
     <use xlink:href="#m3bfcaf4f8c" x="249.772881" y="253.405863" style="fill: #9d02d7; stroke: #9d02d7; stroke-linejoin: miter"/>
     <use xlink:href="#m3bfcaf4f8c" x="254.931587" y="61.20042" style="fill: #9d02d7; stroke: #9d02d7; stroke-linejoin: miter"/>
     <use xlink:href="#m3bfcaf4f8c" x="260.090293" y="65.582284" style="fill: #9d02d7; stroke: #9d02d7; stroke-linejoin: miter"/>
     <use xlink:href="#m3bfcaf4f8c" x="265.248998" y="254.470713" style="fill: #9d02d7; stroke: #9d02d7; stroke-linejoin: miter"/>
     <use xlink:href="#m3bfcaf4f8c" x="270.407704" y="61.579897" style="fill: #9d02d7; stroke: #9d02d7; stroke-linejoin: miter"/>
     <use xlink:href="#m3bfcaf4f8c" x="275.56641" y="72.12071" style="fill: #9d02d7; stroke: #9d02d7; stroke-linejoin: miter"/>
     <use xlink:href="#m3bfcaf4f8c" x="280.725116" y="61.57947" style="fill: #9d02d7; stroke: #9d02d7; stroke-linejoin: miter"/>
     <use xlink:href="#m3bfcaf4f8c" x="285.883821" y="61.57947" style="fill: #9d02d7; stroke: #9d02d7; stroke-linejoin: miter"/>
     <use xlink:href="#m3bfcaf4f8c" x="291.042527" y="253.324312" style="fill: #9d02d7; stroke: #9d02d7; stroke-linejoin: miter"/>
     <use xlink:href="#m3bfcaf4f8c" x="296.201233" y="62.227141" style="fill: #9d02d7; stroke: #9d02d7; stroke-linejoin: miter"/>
     <use xlink:href="#m3bfcaf4f8c" x="301.359938" y="62.227141" style="fill: #9d02d7; stroke: #9d02d7; stroke-linejoin: miter"/>
     <use xlink:href="#m3bfcaf4f8c" x="306.518644" y="61.579699" style="fill: #9d02d7; stroke: #9d02d7; stroke-linejoin: miter"/>
     <use xlink:href="#m3bfcaf4f8c" x="311.67735" y="61.200649" style="fill: #9d02d7; stroke: #9d02d7; stroke-linejoin: miter"/>
     <use xlink:href="#m3bfcaf4f8c" x="316.836055" y="61.200649" style="fill: #9d02d7; stroke: #9d02d7; stroke-linejoin: miter"/>
     <use xlink:href="#m3bfcaf4f8c" x="321.994761" y="61.200649" style="fill: #9d02d7; stroke: #9d02d7; stroke-linejoin: miter"/>
     <use xlink:href="#m3bfcaf4f8c" x="327.153467" y="61.200649" style="fill: #9d02d7; stroke: #9d02d7; stroke-linejoin: miter"/>
     <use xlink:href="#m3bfcaf4f8c" x="332.312173" y="61.200649" style="fill: #9d02d7; stroke: #9d02d7; stroke-linejoin: miter"/>
     <use xlink:href="#m3bfcaf4f8c" x="337.470878" y="61.200649" style="fill: #9d02d7; stroke: #9d02d7; stroke-linejoin: miter"/>
     <use xlink:href="#m3bfcaf4f8c" x="342.629584" y="61.200649" style="fill: #9d02d7; stroke: #9d02d7; stroke-linejoin: miter"/>
     <use xlink:href="#m3bfcaf4f8c" x="347.78829" y="61.200649" style="fill: #9d02d7; stroke: #9d02d7; stroke-linejoin: miter"/>
     <use xlink:href="#m3bfcaf4f8c" x="352.946995" y="61.200649" style="fill: #9d02d7; stroke: #9d02d7; stroke-linejoin: miter"/>
     <use xlink:href="#m3bfcaf4f8c" x="358.105701" y="66.35932" style="fill: #9d02d7; stroke: #9d02d7; stroke-linejoin: miter"/>
     <use xlink:href="#m3bfcaf4f8c" x="363.264407" y="76.582674" style="fill: #9d02d7; stroke: #9d02d7; stroke-linejoin: miter"/>
     <use xlink:href="#m3bfcaf4f8c" x="368.423112" y="73.659128" style="fill: #9d02d7; stroke: #9d02d7; stroke-linejoin: miter"/>
     <use xlink:href="#m3bfcaf4f8c" x="373.581818" y="146.486112" style="fill: #9d02d7; stroke: #9d02d7; stroke-linejoin: miter"/>
    </g>
   </g>
   <g id="line2d_30">
    <path d="M 69.218182 254.184373 
L 74.376888 257.444291 
L 79.535593 256.201831 
L 84.694299 258.338066 
L 89.853005 258.235472 
L 95.01171 258.342144 
L 100.170416 258.03383 
L 105.329122 259.298428 
L 110.487827 259.186325 
L 115.646533 259.228578 
L 120.805239 259.328049 
L 125.963945 259.510083 
L 131.12265 259.330076 
L 136.281356 259.228833 
L 141.440062 259.225529 
L 146.598767 256.671931 
L 151.757473 256.57412 
L 156.916179 256.526982 
L 162.074884 256.445481 
L 167.23359 256.566984 
L 172.392296 256.563546 
L 177.551002 256.478858 
L 182.709707 256.613513 
L 187.868413 256.574897 
L 193.027119 256.578476 
L 198.185824 256.498024 
L 203.34453 256.585785 
L 208.503236 256.687302 
L 213.661941 255.500672 
L 218.820647 257.089895 
L 223.979353 256.890293 
L 229.138059 263.219418 
L 234.296764 256.810374 
L 239.45547 256.564743 
L 244.614176 256.668353 
L 249.772881 255.832221 
L 254.931587 259.599154 
L 260.090293 256.090395 
L 265.248998 259.599611 
L 270.407704 259.59954 
L 275.56641 259.599681 
L 280.725116 264.364155 
L 285.883821 258.265584 
L 291.042527 255.486406 
L 296.201233 257.203971 
L 301.359938 256.280331 
L 306.518644 259.957059 
L 311.67735 257.851177 
L 316.836055 253.314187 
L 321.994761 257.073883 
L 327.153467 266.081425 
L 332.312173 252.471149 
L 337.470878 256.168638 
L 342.629584 257.265336 
L 347.78829 267.129874 
L 352.946995 253.963776 
L 358.105701 253.776418 
L 363.264407 253.775531 
L 368.423112 253.769678 
L 373.581818 253.827914 
" clip-path="url(#pd5b6f5c1ee)" style="fill: none; stroke: #0000ff; stroke-width: 1.5; stroke-linecap: square"/>
    <defs>
     <path id="ma5260ffe8d" d="M 0 2 
C 0.530406 2 1.03916 1.789267 1.414214 1.414214 
C 1.789267 1.03916 2 0.530406 2 0 
C 2 -0.530406 1.789267 -1.03916 1.414214 -1.414214 
C 1.03916 -1.789267 0.530406 -2 0 -2 
C -0.530406 -2 -1.03916 -1.789267 -1.414214 -1.414214 
C -1.789267 -1.03916 -2 -0.530406 -2 0 
C -2 0.530406 -1.789267 1.03916 -1.414214 1.414214 
C -1.03916 1.789267 -0.530406 2 0 2 
z
" style="stroke: #0000ff"/>
    </defs>
    <g clip-path="url(#pd5b6f5c1ee)">
     <use xlink:href="#ma5260ffe8d" x="69.218182" y="254.184373" style="fill: #0000ff; stroke: #0000ff"/>
     <use xlink:href="#ma5260ffe8d" x="74.376888" y="257.444291" style="fill: #0000ff; stroke: #0000ff"/>
     <use xlink:href="#ma5260ffe8d" x="79.535593" y="256.201831" style="fill: #0000ff; stroke: #0000ff"/>
     <use xlink:href="#ma5260ffe8d" x="84.694299" y="258.338066" style="fill: #0000ff; stroke: #0000ff"/>
     <use xlink:href="#ma5260ffe8d" x="89.853005" y="258.235472" style="fill: #0000ff; stroke: #0000ff"/>
     <use xlink:href="#ma5260ffe8d" x="95.01171" y="258.342144" style="fill: #0000ff; stroke: #0000ff"/>
     <use xlink:href="#ma5260ffe8d" x="100.170416" y="258.03383" style="fill: #0000ff; stroke: #0000ff"/>
     <use xlink:href="#ma5260ffe8d" x="105.329122" y="259.298428" style="fill: #0000ff; stroke: #0000ff"/>
     <use xlink:href="#ma5260ffe8d" x="110.487827" y="259.186325" style="fill: #0000ff; stroke: #0000ff"/>
     <use xlink:href="#ma5260ffe8d" x="115.646533" y="259.228578" style="fill: #0000ff; stroke: #0000ff"/>
     <use xlink:href="#ma5260ffe8d" x="120.805239" y="259.328049" style="fill: #0000ff; stroke: #0000ff"/>
     <use xlink:href="#ma5260ffe8d" x="125.963945" y="259.510083" style="fill: #0000ff; stroke: #0000ff"/>
     <use xlink:href="#ma5260ffe8d" x="131.12265" y="259.330076" style="fill: #0000ff; stroke: #0000ff"/>
     <use xlink:href="#ma5260ffe8d" x="136.281356" y="259.228833" style="fill: #0000ff; stroke: #0000ff"/>
     <use xlink:href="#ma5260ffe8d" x="141.440062" y="259.225529" style="fill: #0000ff; stroke: #0000ff"/>
     <use xlink:href="#ma5260ffe8d" x="146.598767" y="256.671931" style="fill: #0000ff; stroke: #0000ff"/>
     <use xlink:href="#ma5260ffe8d" x="151.757473" y="256.57412" style="fill: #0000ff; stroke: #0000ff"/>
     <use xlink:href="#ma5260ffe8d" x="156.916179" y="256.526982" style="fill: #0000ff; stroke: #0000ff"/>
     <use xlink:href="#ma5260ffe8d" x="162.074884" y="256.445481" style="fill: #0000ff; stroke: #0000ff"/>
     <use xlink:href="#ma5260ffe8d" x="167.23359" y="256.566984" style="fill: #0000ff; stroke: #0000ff"/>
     <use xlink:href="#ma5260ffe8d" x="172.392296" y="256.563546" style="fill: #0000ff; stroke: #0000ff"/>
     <use xlink:href="#ma5260ffe8d" x="177.551002" y="256.478858" style="fill: #0000ff; stroke: #0000ff"/>
     <use xlink:href="#ma5260ffe8d" x="182.709707" y="256.613513" style="fill: #0000ff; stroke: #0000ff"/>
     <use xlink:href="#ma5260ffe8d" x="187.868413" y="256.574897" style="fill: #0000ff; stroke: #0000ff"/>
     <use xlink:href="#ma5260ffe8d" x="193.027119" y="256.578476" style="fill: #0000ff; stroke: #0000ff"/>
     <use xlink:href="#ma5260ffe8d" x="198.185824" y="256.498024" style="fill: #0000ff; stroke: #0000ff"/>
     <use xlink:href="#ma5260ffe8d" x="203.34453" y="256.585785" style="fill: #0000ff; stroke: #0000ff"/>
     <use xlink:href="#ma5260ffe8d" x="208.503236" y="256.687302" style="fill: #0000ff; stroke: #0000ff"/>
     <use xlink:href="#ma5260ffe8d" x="213.661941" y="255.500672" style="fill: #0000ff; stroke: #0000ff"/>
     <use xlink:href="#ma5260ffe8d" x="218.820647" y="257.089895" style="fill: #0000ff; stroke: #0000ff"/>
     <use xlink:href="#ma5260ffe8d" x="223.979353" y="256.890293" style="fill: #0000ff; stroke: #0000ff"/>
     <use xlink:href="#ma5260ffe8d" x="229.138059" y="263.219418" style="fill: #0000ff; stroke: #0000ff"/>
     <use xlink:href="#ma5260ffe8d" x="234.296764" y="256.810374" style="fill: #0000ff; stroke: #0000ff"/>
     <use xlink:href="#ma5260ffe8d" x="239.45547" y="256.564743" style="fill: #0000ff; stroke: #0000ff"/>
     <use xlink:href="#ma5260ffe8d" x="244.614176" y="256.668353" style="fill: #0000ff; stroke: #0000ff"/>
     <use xlink:href="#ma5260ffe8d" x="249.772881" y="255.832221" style="fill: #0000ff; stroke: #0000ff"/>
     <use xlink:href="#ma5260ffe8d" x="254.931587" y="259.599154" style="fill: #0000ff; stroke: #0000ff"/>
     <use xlink:href="#ma5260ffe8d" x="260.090293" y="256.090395" style="fill: #0000ff; stroke: #0000ff"/>
     <use xlink:href="#ma5260ffe8d" x="265.248998" y="259.599611" style="fill: #0000ff; stroke: #0000ff"/>
     <use xlink:href="#ma5260ffe8d" x="270.407704" y="259.59954" style="fill: #0000ff; stroke: #0000ff"/>
     <use xlink:href="#ma5260ffe8d" x="275.56641" y="259.599681" style="fill: #0000ff; stroke: #0000ff"/>
     <use xlink:href="#ma5260ffe8d" x="280.725116" y="264.364155" style="fill: #0000ff; stroke: #0000ff"/>
     <use xlink:href="#ma5260ffe8d" x="285.883821" y="258.265584" style="fill: #0000ff; stroke: #0000ff"/>
     <use xlink:href="#ma5260ffe8d" x="291.042527" y="255.486406" style="fill: #0000ff; stroke: #0000ff"/>
     <use xlink:href="#ma5260ffe8d" x="296.201233" y="257.203971" style="fill: #0000ff; stroke: #0000ff"/>
     <use xlink:href="#ma5260ffe8d" x="301.359938" y="256.280331" style="fill: #0000ff; stroke: #0000ff"/>
     <use xlink:href="#ma5260ffe8d" x="306.518644" y="259.957059" style="fill: #0000ff; stroke: #0000ff"/>
     <use xlink:href="#ma5260ffe8d" x="311.67735" y="257.851177" style="fill: #0000ff; stroke: #0000ff"/>
     <use xlink:href="#ma5260ffe8d" x="316.836055" y="253.314187" style="fill: #0000ff; stroke: #0000ff"/>
     <use xlink:href="#ma5260ffe8d" x="321.994761" y="257.073883" style="fill: #0000ff; stroke: #0000ff"/>
     <use xlink:href="#ma5260ffe8d" x="327.153467" y="266.081425" style="fill: #0000ff; stroke: #0000ff"/>
     <use xlink:href="#ma5260ffe8d" x="332.312173" y="252.471149" style="fill: #0000ff; stroke: #0000ff"/>
     <use xlink:href="#ma5260ffe8d" x="337.470878" y="256.168638" style="fill: #0000ff; stroke: #0000ff"/>
     <use xlink:href="#ma5260ffe8d" x="342.629584" y="257.265336" style="fill: #0000ff; stroke: #0000ff"/>
     <use xlink:href="#ma5260ffe8d" x="347.78829" y="267.129874" style="fill: #0000ff; stroke: #0000ff"/>
     <use xlink:href="#ma5260ffe8d" x="352.946995" y="253.963776" style="fill: #0000ff; stroke: #0000ff"/>
     <use xlink:href="#ma5260ffe8d" x="358.105701" y="253.776418" style="fill: #0000ff; stroke: #0000ff"/>
     <use xlink:href="#ma5260ffe8d" x="363.264407" y="253.775531" style="fill: #0000ff; stroke: #0000ff"/>
     <use xlink:href="#ma5260ffe8d" x="368.423112" y="253.769678" style="fill: #0000ff; stroke: #0000ff"/>
     <use xlink:href="#ma5260ffe8d" x="373.581818" y="253.827914" style="fill: #0000ff; stroke: #0000ff"/>
    </g>
   </g>
   <g id="line2d_31">
    <path d="M 69.218182 252.988328 
L 74.376888 252.908818 
L 79.535593 252.908818 
L 84.694299 253.312667 
L 89.853005 236.282474 
L 95.01171 253.126364 
L 100.170416 253.54635 
L 105.329122 253.121004 
L 110.487827 252.726777 
L 115.646533 253.600187 
L 120.805239 253.211424 
L 125.963945 253.215251 
L 131.12265 253.209457 
L 136.281356 253.20779 
L 141.440062 253.213522 
L 146.598767 253.177075 
L 151.757473 253.222731 
L 156.916179 253.215769 
L 162.074884 253.207068 
L 167.23359 253.199619 
L 172.392296 253.220204 
L 177.551002 253.210854 
L 182.709707 253.211279 
L 187.868413 253.050354 
L 193.027119 253.215544 
L 198.185824 250.758484 
L 203.34453 250.348994 
L 208.503236 251.029104 
L 213.661941 250.191378 
L 218.820647 250.17162 
L 223.979353 250.68269 
L 229.138059 250.597806 
L 234.296764 250.311708 
L 239.45547 250.507177 
L 244.614176 250.379906 
L 249.772881 250.561042 
L 254.931587 250.68806 
L 260.090293 250.558077 
L 265.248998 250.677719 
L 270.407704 250.68366 
L 275.56641 250.687186 
L 280.725116 250.557325 
L 285.883821 250.543207 
L 291.042527 250.46878 
L 296.201233 250.546213 
L 301.359938 250.557528 
L 306.518644 250.679471 
L 311.67735 250.547828 
L 316.836055 250.680738 
L 321.994761 250.543459 
L 327.153467 250.431855 
L 332.312173 250.581558 
L 337.470878 250.681327 
L 342.629584 250.682364 
L 347.78829 250.593365 
L 352.946995 250.683019 
L 358.105701 250.683432 
L 363.264407 250.562121 
L 368.423112 250.681746 
L 373.581818 250.673385 
" clip-path="url(#pd5b6f5c1ee)" style="fill: none; stroke: #ff7763; stroke-width: 1.5; stroke-linecap: square"/>
    <defs>
     <path id="m9b2512fce9" d="M -2 2 
L 2 -2 
M -2 -2 
L 2 2 
" style="stroke: #ff7763"/>
    </defs>
    <g clip-path="url(#pd5b6f5c1ee)">
     <use xlink:href="#m9b2512fce9" x="69.218182" y="252.988328" style="fill: #ff7763; stroke: #ff7763"/>
     <use xlink:href="#m9b2512fce9" x="74.376888" y="252.908818" style="fill: #ff7763; stroke: #ff7763"/>
     <use xlink:href="#m9b2512fce9" x="79.535593" y="252.908818" style="fill: #ff7763; stroke: #ff7763"/>
     <use xlink:href="#m9b2512fce9" x="84.694299" y="253.312667" style="fill: #ff7763; stroke: #ff7763"/>
     <use xlink:href="#m9b2512fce9" x="89.853005" y="236.282474" style="fill: #ff7763; stroke: #ff7763"/>
     <use xlink:href="#m9b2512fce9" x="95.01171" y="253.126364" style="fill: #ff7763; stroke: #ff7763"/>
     <use xlink:href="#m9b2512fce9" x="100.170416" y="253.54635" style="fill: #ff7763; stroke: #ff7763"/>
     <use xlink:href="#m9b2512fce9" x="105.329122" y="253.121004" style="fill: #ff7763; stroke: #ff7763"/>
     <use xlink:href="#m9b2512fce9" x="110.487827" y="252.726777" style="fill: #ff7763; stroke: #ff7763"/>
     <use xlink:href="#m9b2512fce9" x="115.646533" y="253.600187" style="fill: #ff7763; stroke: #ff7763"/>
     <use xlink:href="#m9b2512fce9" x="120.805239" y="253.211424" style="fill: #ff7763; stroke: #ff7763"/>
     <use xlink:href="#m9b2512fce9" x="125.963945" y="253.215251" style="fill: #ff7763; stroke: #ff7763"/>
     <use xlink:href="#m9b2512fce9" x="131.12265" y="253.209457" style="fill: #ff7763; stroke: #ff7763"/>
     <use xlink:href="#m9b2512fce9" x="136.281356" y="253.20779" style="fill: #ff7763; stroke: #ff7763"/>
     <use xlink:href="#m9b2512fce9" x="141.440062" y="253.213522" style="fill: #ff7763; stroke: #ff7763"/>
     <use xlink:href="#m9b2512fce9" x="146.598767" y="253.177075" style="fill: #ff7763; stroke: #ff7763"/>
     <use xlink:href="#m9b2512fce9" x="151.757473" y="253.222731" style="fill: #ff7763; stroke: #ff7763"/>
     <use xlink:href="#m9b2512fce9" x="156.916179" y="253.215769" style="fill: #ff7763; stroke: #ff7763"/>
     <use xlink:href="#m9b2512fce9" x="162.074884" y="253.207068" style="fill: #ff7763; stroke: #ff7763"/>
     <use xlink:href="#m9b2512fce9" x="167.23359" y="253.199619" style="fill: #ff7763; stroke: #ff7763"/>
     <use xlink:href="#m9b2512fce9" x="172.392296" y="253.220204" style="fill: #ff7763; stroke: #ff7763"/>
     <use xlink:href="#m9b2512fce9" x="177.551002" y="253.210854" style="fill: #ff7763; stroke: #ff7763"/>
     <use xlink:href="#m9b2512fce9" x="182.709707" y="253.211279" style="fill: #ff7763; stroke: #ff7763"/>
     <use xlink:href="#m9b2512fce9" x="187.868413" y="253.050354" style="fill: #ff7763; stroke: #ff7763"/>
     <use xlink:href="#m9b2512fce9" x="193.027119" y="253.215544" style="fill: #ff7763; stroke: #ff7763"/>
     <use xlink:href="#m9b2512fce9" x="198.185824" y="250.758484" style="fill: #ff7763; stroke: #ff7763"/>
     <use xlink:href="#m9b2512fce9" x="203.34453" y="250.348994" style="fill: #ff7763; stroke: #ff7763"/>
     <use xlink:href="#m9b2512fce9" x="208.503236" y="251.029104" style="fill: #ff7763; stroke: #ff7763"/>
     <use xlink:href="#m9b2512fce9" x="213.661941" y="250.191378" style="fill: #ff7763; stroke: #ff7763"/>
     <use xlink:href="#m9b2512fce9" x="218.820647" y="250.17162" style="fill: #ff7763; stroke: #ff7763"/>
     <use xlink:href="#m9b2512fce9" x="223.979353" y="250.68269" style="fill: #ff7763; stroke: #ff7763"/>
     <use xlink:href="#m9b2512fce9" x="229.138059" y="250.597806" style="fill: #ff7763; stroke: #ff7763"/>
     <use xlink:href="#m9b2512fce9" x="234.296764" y="250.311708" style="fill: #ff7763; stroke: #ff7763"/>
     <use xlink:href="#m9b2512fce9" x="239.45547" y="250.507177" style="fill: #ff7763; stroke: #ff7763"/>
     <use xlink:href="#m9b2512fce9" x="244.614176" y="250.379906" style="fill: #ff7763; stroke: #ff7763"/>
     <use xlink:href="#m9b2512fce9" x="249.772881" y="250.561042" style="fill: #ff7763; stroke: #ff7763"/>
     <use xlink:href="#m9b2512fce9" x="254.931587" y="250.68806" style="fill: #ff7763; stroke: #ff7763"/>
     <use xlink:href="#m9b2512fce9" x="260.090293" y="250.558077" style="fill: #ff7763; stroke: #ff7763"/>
     <use xlink:href="#m9b2512fce9" x="265.248998" y="250.677719" style="fill: #ff7763; stroke: #ff7763"/>
     <use xlink:href="#m9b2512fce9" x="270.407704" y="250.68366" style="fill: #ff7763; stroke: #ff7763"/>
     <use xlink:href="#m9b2512fce9" x="275.56641" y="250.687186" style="fill: #ff7763; stroke: #ff7763"/>
     <use xlink:href="#m9b2512fce9" x="280.725116" y="250.557325" style="fill: #ff7763; stroke: #ff7763"/>
     <use xlink:href="#m9b2512fce9" x="285.883821" y="250.543207" style="fill: #ff7763; stroke: #ff7763"/>
     <use xlink:href="#m9b2512fce9" x="291.042527" y="250.46878" style="fill: #ff7763; stroke: #ff7763"/>
     <use xlink:href="#m9b2512fce9" x="296.201233" y="250.546213" style="fill: #ff7763; stroke: #ff7763"/>
     <use xlink:href="#m9b2512fce9" x="301.359938" y="250.557528" style="fill: #ff7763; stroke: #ff7763"/>
     <use xlink:href="#m9b2512fce9" x="306.518644" y="250.679471" style="fill: #ff7763; stroke: #ff7763"/>
     <use xlink:href="#m9b2512fce9" x="311.67735" y="250.547828" style="fill: #ff7763; stroke: #ff7763"/>
     <use xlink:href="#m9b2512fce9" x="316.836055" y="250.680738" style="fill: #ff7763; stroke: #ff7763"/>
     <use xlink:href="#m9b2512fce9" x="321.994761" y="250.543459" style="fill: #ff7763; stroke: #ff7763"/>
     <use xlink:href="#m9b2512fce9" x="327.153467" y="250.431855" style="fill: #ff7763; stroke: #ff7763"/>
     <use xlink:href="#m9b2512fce9" x="332.312173" y="250.581558" style="fill: #ff7763; stroke: #ff7763"/>
     <use xlink:href="#m9b2512fce9" x="337.470878" y="250.681327" style="fill: #ff7763; stroke: #ff7763"/>
     <use xlink:href="#m9b2512fce9" x="342.629584" y="250.682364" style="fill: #ff7763; stroke: #ff7763"/>
     <use xlink:href="#m9b2512fce9" x="347.78829" y="250.593365" style="fill: #ff7763; stroke: #ff7763"/>
     <use xlink:href="#m9b2512fce9" x="352.946995" y="250.683019" style="fill: #ff7763; stroke: #ff7763"/>
     <use xlink:href="#m9b2512fce9" x="358.105701" y="250.683432" style="fill: #ff7763; stroke: #ff7763"/>
     <use xlink:href="#m9b2512fce9" x="363.264407" y="250.562121" style="fill: #ff7763; stroke: #ff7763"/>
     <use xlink:href="#m9b2512fce9" x="368.423112" y="250.681746" style="fill: #ff7763; stroke: #ff7763"/>
     <use xlink:href="#m9b2512fce9" x="373.581818" y="250.673385" style="fill: #ff7763; stroke: #ff7763"/>
    </g>
   </g>
   <g id="line2d_32">
    <path d="M 69.218182 252.919307 
L 74.376888 255.385672 
L 79.535593 253.878364 
L 84.694299 254.845676 
L 89.853005 253.876589 
L 95.01171 255.412473 
L 100.170416 253.659132 
L 105.329122 255.489125 
L 110.487827 253.875353 
L 115.646533 255.180285 
L 120.805239 253.875598 
L 125.963945 254.463307 
L 131.12265 253.875885 
L 136.281356 255.471142 
L 141.440062 255.450286 
L 146.598767 254.024825 
L 151.757473 253.875885 
L 156.916179 253.875707 
L 162.074884 253.875706 
L 167.23359 254.252196 
L 172.392296 253.875707 
L 177.551002 253.875706 
L 182.709707 255.468128 
L 187.868413 253.875706 
L 193.027119 255.489471 
L 198.185824 255.488648 
L 203.34453 253.875706 
L 208.503236 253.875706 
L 213.661941 253.875707 
L 218.820647 253.875706 
L 223.979353 253.875707 
L 229.138059 255.381207 
L 234.296764 255.48787 
L 239.45547 255.443819 
L 244.614176 255.425773 
L 249.772881 253.875707 
L 254.931587 255.469285 
L 260.090293 253.875706 
L 265.248998 255.489922 
L 270.407704 255.096963 
L 275.56641 253.875707 
L 280.725116 253.875707 
L 285.883821 255.492955 
L 291.042527 254.349838 
L 296.201233 253.875706 
L 301.359938 254.933888 
L 306.518644 253.875706 
L 311.67735 253.875706 
L 316.836055 254.024293 
L 321.994761 253.875707 
L 327.153467 253.875707 
L 332.312173 255.489259 
L 337.470878 254.692109 
L 342.629584 254.130329 
L 347.78829 255.468654 
L 352.946995 253.875707 
L 358.105701 253.875706 
L 363.264407 254.130329 
L 368.423112 255.427513 
L 373.581818 253.875707 
" clip-path="url(#pd5b6f5c1ee)" style="fill: none; stroke: #ffac1e; stroke-width: 1.5; stroke-linecap: square"/>
    <defs>
     <path id="m1907aeb923" d="M 0 -2 
L -0.449028 -0.618034 
L -1.902113 -0.618034 
L -0.726543 0.236068 
L -1.175571 1.618034 
L -0 0.763932 
L 1.175571 1.618034 
L 0.726543 0.236068 
L 1.902113 -0.618034 
L 0.449028 -0.618034 
z
" style="stroke: #ffac1e; stroke-linejoin: bevel"/>
    </defs>
    <g clip-path="url(#pd5b6f5c1ee)">
     <use xlink:href="#m1907aeb923" x="69.218182" y="252.919307" style="fill: #ffac1e; stroke: #ffac1e; stroke-linejoin: bevel"/>
     <use xlink:href="#m1907aeb923" x="74.376888" y="255.385672" style="fill: #ffac1e; stroke: #ffac1e; stroke-linejoin: bevel"/>
     <use xlink:href="#m1907aeb923" x="79.535593" y="253.878364" style="fill: #ffac1e; stroke: #ffac1e; stroke-linejoin: bevel"/>
     <use xlink:href="#m1907aeb923" x="84.694299" y="254.845676" style="fill: #ffac1e; stroke: #ffac1e; stroke-linejoin: bevel"/>
     <use xlink:href="#m1907aeb923" x="89.853005" y="253.876589" style="fill: #ffac1e; stroke: #ffac1e; stroke-linejoin: bevel"/>
     <use xlink:href="#m1907aeb923" x="95.01171" y="255.412473" style="fill: #ffac1e; stroke: #ffac1e; stroke-linejoin: bevel"/>
     <use xlink:href="#m1907aeb923" x="100.170416" y="253.659132" style="fill: #ffac1e; stroke: #ffac1e; stroke-linejoin: bevel"/>
     <use xlink:href="#m1907aeb923" x="105.329122" y="255.489125" style="fill: #ffac1e; stroke: #ffac1e; stroke-linejoin: bevel"/>
     <use xlink:href="#m1907aeb923" x="110.487827" y="253.875353" style="fill: #ffac1e; stroke: #ffac1e; stroke-linejoin: bevel"/>
     <use xlink:href="#m1907aeb923" x="115.646533" y="255.180285" style="fill: #ffac1e; stroke: #ffac1e; stroke-linejoin: bevel"/>
     <use xlink:href="#m1907aeb923" x="120.805239" y="253.875598" style="fill: #ffac1e; stroke: #ffac1e; stroke-linejoin: bevel"/>
     <use xlink:href="#m1907aeb923" x="125.963945" y="254.463307" style="fill: #ffac1e; stroke: #ffac1e; stroke-linejoin: bevel"/>
     <use xlink:href="#m1907aeb923" x="131.12265" y="253.875885" style="fill: #ffac1e; stroke: #ffac1e; stroke-linejoin: bevel"/>
     <use xlink:href="#m1907aeb923" x="136.281356" y="255.471142" style="fill: #ffac1e; stroke: #ffac1e; stroke-linejoin: bevel"/>
     <use xlink:href="#m1907aeb923" x="141.440062" y="255.450286" style="fill: #ffac1e; stroke: #ffac1e; stroke-linejoin: bevel"/>
     <use xlink:href="#m1907aeb923" x="146.598767" y="254.024825" style="fill: #ffac1e; stroke: #ffac1e; stroke-linejoin: bevel"/>
     <use xlink:href="#m1907aeb923" x="151.757473" y="253.875885" style="fill: #ffac1e; stroke: #ffac1e; stroke-linejoin: bevel"/>
     <use xlink:href="#m1907aeb923" x="156.916179" y="253.875707" style="fill: #ffac1e; stroke: #ffac1e; stroke-linejoin: bevel"/>
     <use xlink:href="#m1907aeb923" x="162.074884" y="253.875706" style="fill: #ffac1e; stroke: #ffac1e; stroke-linejoin: bevel"/>
     <use xlink:href="#m1907aeb923" x="167.23359" y="254.252196" style="fill: #ffac1e; stroke: #ffac1e; stroke-linejoin: bevel"/>
     <use xlink:href="#m1907aeb923" x="172.392296" y="253.875707" style="fill: #ffac1e; stroke: #ffac1e; stroke-linejoin: bevel"/>
     <use xlink:href="#m1907aeb923" x="177.551002" y="253.875706" style="fill: #ffac1e; stroke: #ffac1e; stroke-linejoin: bevel"/>
     <use xlink:href="#m1907aeb923" x="182.709707" y="255.468128" style="fill: #ffac1e; stroke: #ffac1e; stroke-linejoin: bevel"/>
     <use xlink:href="#m1907aeb923" x="187.868413" y="253.875706" style="fill: #ffac1e; stroke: #ffac1e; stroke-linejoin: bevel"/>
     <use xlink:href="#m1907aeb923" x="193.027119" y="255.489471" style="fill: #ffac1e; stroke: #ffac1e; stroke-linejoin: bevel"/>
     <use xlink:href="#m1907aeb923" x="198.185824" y="255.488648" style="fill: #ffac1e; stroke: #ffac1e; stroke-linejoin: bevel"/>
     <use xlink:href="#m1907aeb923" x="203.34453" y="253.875706" style="fill: #ffac1e; stroke: #ffac1e; stroke-linejoin: bevel"/>
     <use xlink:href="#m1907aeb923" x="208.503236" y="253.875706" style="fill: #ffac1e; stroke: #ffac1e; stroke-linejoin: bevel"/>
     <use xlink:href="#m1907aeb923" x="213.661941" y="253.875707" style="fill: #ffac1e; stroke: #ffac1e; stroke-linejoin: bevel"/>
     <use xlink:href="#m1907aeb923" x="218.820647" y="253.875706" style="fill: #ffac1e; stroke: #ffac1e; stroke-linejoin: bevel"/>
     <use xlink:href="#m1907aeb923" x="223.979353" y="253.875707" style="fill: #ffac1e; stroke: #ffac1e; stroke-linejoin: bevel"/>
     <use xlink:href="#m1907aeb923" x="229.138059" y="255.381207" style="fill: #ffac1e; stroke: #ffac1e; stroke-linejoin: bevel"/>
     <use xlink:href="#m1907aeb923" x="234.296764" y="255.48787" style="fill: #ffac1e; stroke: #ffac1e; stroke-linejoin: bevel"/>
     <use xlink:href="#m1907aeb923" x="239.45547" y="255.443819" style="fill: #ffac1e; stroke: #ffac1e; stroke-linejoin: bevel"/>
     <use xlink:href="#m1907aeb923" x="244.614176" y="255.425773" style="fill: #ffac1e; stroke: #ffac1e; stroke-linejoin: bevel"/>
     <use xlink:href="#m1907aeb923" x="249.772881" y="253.875707" style="fill: #ffac1e; stroke: #ffac1e; stroke-linejoin: bevel"/>
     <use xlink:href="#m1907aeb923" x="254.931587" y="255.469285" style="fill: #ffac1e; stroke: #ffac1e; stroke-linejoin: bevel"/>
     <use xlink:href="#m1907aeb923" x="260.090293" y="253.875706" style="fill: #ffac1e; stroke: #ffac1e; stroke-linejoin: bevel"/>
     <use xlink:href="#m1907aeb923" x="265.248998" y="255.489922" style="fill: #ffac1e; stroke: #ffac1e; stroke-linejoin: bevel"/>
     <use xlink:href="#m1907aeb923" x="270.407704" y="255.096963" style="fill: #ffac1e; stroke: #ffac1e; stroke-linejoin: bevel"/>
     <use xlink:href="#m1907aeb923" x="275.56641" y="253.875707" style="fill: #ffac1e; stroke: #ffac1e; stroke-linejoin: bevel"/>
     <use xlink:href="#m1907aeb923" x="280.725116" y="253.875707" style="fill: #ffac1e; stroke: #ffac1e; stroke-linejoin: bevel"/>
     <use xlink:href="#m1907aeb923" x="285.883821" y="255.492955" style="fill: #ffac1e; stroke: #ffac1e; stroke-linejoin: bevel"/>
     <use xlink:href="#m1907aeb923" x="291.042527" y="254.349838" style="fill: #ffac1e; stroke: #ffac1e; stroke-linejoin: bevel"/>
     <use xlink:href="#m1907aeb923" x="296.201233" y="253.875706" style="fill: #ffac1e; stroke: #ffac1e; stroke-linejoin: bevel"/>
     <use xlink:href="#m1907aeb923" x="301.359938" y="254.933888" style="fill: #ffac1e; stroke: #ffac1e; stroke-linejoin: bevel"/>
     <use xlink:href="#m1907aeb923" x="306.518644" y="253.875706" style="fill: #ffac1e; stroke: #ffac1e; stroke-linejoin: bevel"/>
     <use xlink:href="#m1907aeb923" x="311.67735" y="253.875706" style="fill: #ffac1e; stroke: #ffac1e; stroke-linejoin: bevel"/>
     <use xlink:href="#m1907aeb923" x="316.836055" y="254.024293" style="fill: #ffac1e; stroke: #ffac1e; stroke-linejoin: bevel"/>
     <use xlink:href="#m1907aeb923" x="321.994761" y="253.875707" style="fill: #ffac1e; stroke: #ffac1e; stroke-linejoin: bevel"/>
     <use xlink:href="#m1907aeb923" x="327.153467" y="253.875707" style="fill: #ffac1e; stroke: #ffac1e; stroke-linejoin: bevel"/>
     <use xlink:href="#m1907aeb923" x="332.312173" y="255.489259" style="fill: #ffac1e; stroke: #ffac1e; stroke-linejoin: bevel"/>
     <use xlink:href="#m1907aeb923" x="337.470878" y="254.692109" style="fill: #ffac1e; stroke: #ffac1e; stroke-linejoin: bevel"/>
     <use xlink:href="#m1907aeb923" x="342.629584" y="254.130329" style="fill: #ffac1e; stroke: #ffac1e; stroke-linejoin: bevel"/>
     <use xlink:href="#m1907aeb923" x="347.78829" y="255.468654" style="fill: #ffac1e; stroke: #ffac1e; stroke-linejoin: bevel"/>
     <use xlink:href="#m1907aeb923" x="352.946995" y="253.875707" style="fill: #ffac1e; stroke: #ffac1e; stroke-linejoin: bevel"/>
     <use xlink:href="#m1907aeb923" x="358.105701" y="253.875706" style="fill: #ffac1e; stroke: #ffac1e; stroke-linejoin: bevel"/>
     <use xlink:href="#m1907aeb923" x="363.264407" y="254.130329" style="fill: #ffac1e; stroke: #ffac1e; stroke-linejoin: bevel"/>
     <use xlink:href="#m1907aeb923" x="368.423112" y="255.427513" style="fill: #ffac1e; stroke: #ffac1e; stroke-linejoin: bevel"/>
     <use xlink:href="#m1907aeb923" x="373.581818" y="253.875707" style="fill: #ffac1e; stroke: #ffac1e; stroke-linejoin: bevel"/>
    </g>
   </g>
   <g id="line2d_33">
    <path d="M 69.218182 254.862823 
L 74.376888 252.92195 
L 79.535593 252.938692 
L 84.694299 253.183981 
L 89.853005 252.931811 
L 95.01171 253.009517 
L 100.170416 252.941795 
L 105.329122 252.948622 
L 110.487827 252.932039 
L 115.646533 252.924635 
L 120.805239 253.066256 
L 125.963945 252.880766 
L 131.12265 253.074093 
L 136.281356 252.936292 
L 141.440062 252.931135 
L 146.598767 252.942234 
L 151.757473 252.930432 
L 156.916179 252.987638 
L 162.074884 252.953125 
L 167.23359 252.942492 
L 172.392296 252.97162 
L 177.551002 252.919277 
L 182.709707 252.967597 
L 187.868413 252.93484 
L 193.027119 252.912769 
L 198.185824 252.955766 
L 203.34453 252.920689 
L 208.503236 252.915837 
L 213.661941 253.145276 
L 218.820647 252.916401 
L 223.979353 253.79375 
L 229.138059 254.539577 
L 234.296764 254.576161 
L 239.45547 254.568871 
L 244.614176 254.644866 
L 249.772881 254.675846 
L 254.931587 254.565079 
L 260.090293 254.610899 
L 265.248998 254.536554 
L 270.407704 254.679428 
L 275.56641 254.615819 
L 280.725116 254.604286 
L 285.883821 254.56838 
L 291.042527 254.569825 
L 296.201233 254.685149 
L 301.359938 254.572704 
L 306.518644 254.569698 
L 311.67735 254.55461 
L 316.836055 254.687277 
L 321.994761 254.580297 
L 327.153467 254.580219 
L 332.312173 254.579999 
L 337.470878 254.575192 
L 342.629584 254.627025 
L 347.78829 254.558499 
L 352.946995 254.645844 
L 358.105701 254.568899 
L 363.264407 254.56445 
L 368.423112 254.56075 
L 373.581818 254.585968 
" clip-path="url(#pd5b6f5c1ee)" style="fill: none; stroke: #009435; stroke-width: 1.5; stroke-linecap: square"/>
    <defs>
     <path id="ma1578df217" d="M -2 2 
L 2 2 
L 2 -2 
L -2 -2 
z
" style="stroke: #009435; stroke-linejoin: miter"/>
    </defs>
    <g clip-path="url(#pd5b6f5c1ee)">
     <use xlink:href="#ma1578df217" x="69.218182" y="254.862823" style="fill: #009435; stroke: #009435; stroke-linejoin: miter"/>
     <use xlink:href="#ma1578df217" x="74.376888" y="252.92195" style="fill: #009435; stroke: #009435; stroke-linejoin: miter"/>
     <use xlink:href="#ma1578df217" x="79.535593" y="252.938692" style="fill: #009435; stroke: #009435; stroke-linejoin: miter"/>
     <use xlink:href="#ma1578df217" x="84.694299" y="253.183981" style="fill: #009435; stroke: #009435; stroke-linejoin: miter"/>
     <use xlink:href="#ma1578df217" x="89.853005" y="252.931811" style="fill: #009435; stroke: #009435; stroke-linejoin: miter"/>
     <use xlink:href="#ma1578df217" x="95.01171" y="253.009517" style="fill: #009435; stroke: #009435; stroke-linejoin: miter"/>
     <use xlink:href="#ma1578df217" x="100.170416" y="252.941795" style="fill: #009435; stroke: #009435; stroke-linejoin: miter"/>
     <use xlink:href="#ma1578df217" x="105.329122" y="252.948622" style="fill: #009435; stroke: #009435; stroke-linejoin: miter"/>
     <use xlink:href="#ma1578df217" x="110.487827" y="252.932039" style="fill: #009435; stroke: #009435; stroke-linejoin: miter"/>
     <use xlink:href="#ma1578df217" x="115.646533" y="252.924635" style="fill: #009435; stroke: #009435; stroke-linejoin: miter"/>
     <use xlink:href="#ma1578df217" x="120.805239" y="253.066256" style="fill: #009435; stroke: #009435; stroke-linejoin: miter"/>
     <use xlink:href="#ma1578df217" x="125.963945" y="252.880766" style="fill: #009435; stroke: #009435; stroke-linejoin: miter"/>
     <use xlink:href="#ma1578df217" x="131.12265" y="253.074093" style="fill: #009435; stroke: #009435; stroke-linejoin: miter"/>
     <use xlink:href="#ma1578df217" x="136.281356" y="252.936292" style="fill: #009435; stroke: #009435; stroke-linejoin: miter"/>
     <use xlink:href="#ma1578df217" x="141.440062" y="252.931135" style="fill: #009435; stroke: #009435; stroke-linejoin: miter"/>
     <use xlink:href="#ma1578df217" x="146.598767" y="252.942234" style="fill: #009435; stroke: #009435; stroke-linejoin: miter"/>
     <use xlink:href="#ma1578df217" x="151.757473" y="252.930432" style="fill: #009435; stroke: #009435; stroke-linejoin: miter"/>
     <use xlink:href="#ma1578df217" x="156.916179" y="252.987638" style="fill: #009435; stroke: #009435; stroke-linejoin: miter"/>
     <use xlink:href="#ma1578df217" x="162.074884" y="252.953125" style="fill: #009435; stroke: #009435; stroke-linejoin: miter"/>
     <use xlink:href="#ma1578df217" x="167.23359" y="252.942492" style="fill: #009435; stroke: #009435; stroke-linejoin: miter"/>
     <use xlink:href="#ma1578df217" x="172.392296" y="252.97162" style="fill: #009435; stroke: #009435; stroke-linejoin: miter"/>
     <use xlink:href="#ma1578df217" x="177.551002" y="252.919277" style="fill: #009435; stroke: #009435; stroke-linejoin: miter"/>
     <use xlink:href="#ma1578df217" x="182.709707" y="252.967597" style="fill: #009435; stroke: #009435; stroke-linejoin: miter"/>
     <use xlink:href="#ma1578df217" x="187.868413" y="252.93484" style="fill: #009435; stroke: #009435; stroke-linejoin: miter"/>
     <use xlink:href="#ma1578df217" x="193.027119" y="252.912769" style="fill: #009435; stroke: #009435; stroke-linejoin: miter"/>
     <use xlink:href="#ma1578df217" x="198.185824" y="252.955766" style="fill: #009435; stroke: #009435; stroke-linejoin: miter"/>
     <use xlink:href="#ma1578df217" x="203.34453" y="252.920689" style="fill: #009435; stroke: #009435; stroke-linejoin: miter"/>
     <use xlink:href="#ma1578df217" x="208.503236" y="252.915837" style="fill: #009435; stroke: #009435; stroke-linejoin: miter"/>
     <use xlink:href="#ma1578df217" x="213.661941" y="253.145276" style="fill: #009435; stroke: #009435; stroke-linejoin: miter"/>
     <use xlink:href="#ma1578df217" x="218.820647" y="252.916401" style="fill: #009435; stroke: #009435; stroke-linejoin: miter"/>
     <use xlink:href="#ma1578df217" x="223.979353" y="253.79375" style="fill: #009435; stroke: #009435; stroke-linejoin: miter"/>
     <use xlink:href="#ma1578df217" x="229.138059" y="254.539577" style="fill: #009435; stroke: #009435; stroke-linejoin: miter"/>
     <use xlink:href="#ma1578df217" x="234.296764" y="254.576161" style="fill: #009435; stroke: #009435; stroke-linejoin: miter"/>
     <use xlink:href="#ma1578df217" x="239.45547" y="254.568871" style="fill: #009435; stroke: #009435; stroke-linejoin: miter"/>
     <use xlink:href="#ma1578df217" x="244.614176" y="254.644866" style="fill: #009435; stroke: #009435; stroke-linejoin: miter"/>
     <use xlink:href="#ma1578df217" x="249.772881" y="254.675846" style="fill: #009435; stroke: #009435; stroke-linejoin: miter"/>
     <use xlink:href="#ma1578df217" x="254.931587" y="254.565079" style="fill: #009435; stroke: #009435; stroke-linejoin: miter"/>
     <use xlink:href="#ma1578df217" x="260.090293" y="254.610899" style="fill: #009435; stroke: #009435; stroke-linejoin: miter"/>
     <use xlink:href="#ma1578df217" x="265.248998" y="254.536554" style="fill: #009435; stroke: #009435; stroke-linejoin: miter"/>
     <use xlink:href="#ma1578df217" x="270.407704" y="254.679428" style="fill: #009435; stroke: #009435; stroke-linejoin: miter"/>
     <use xlink:href="#ma1578df217" x="275.56641" y="254.615819" style="fill: #009435; stroke: #009435; stroke-linejoin: miter"/>
     <use xlink:href="#ma1578df217" x="280.725116" y="254.604286" style="fill: #009435; stroke: #009435; stroke-linejoin: miter"/>
     <use xlink:href="#ma1578df217" x="285.883821" y="254.56838" style="fill: #009435; stroke: #009435; stroke-linejoin: miter"/>
     <use xlink:href="#ma1578df217" x="291.042527" y="254.569825" style="fill: #009435; stroke: #009435; stroke-linejoin: miter"/>
     <use xlink:href="#ma1578df217" x="296.201233" y="254.685149" style="fill: #009435; stroke: #009435; stroke-linejoin: miter"/>
     <use xlink:href="#ma1578df217" x="301.359938" y="254.572704" style="fill: #009435; stroke: #009435; stroke-linejoin: miter"/>
     <use xlink:href="#ma1578df217" x="306.518644" y="254.569698" style="fill: #009435; stroke: #009435; stroke-linejoin: miter"/>
     <use xlink:href="#ma1578df217" x="311.67735" y="254.55461" style="fill: #009435; stroke: #009435; stroke-linejoin: miter"/>
     <use xlink:href="#ma1578df217" x="316.836055" y="254.687277" style="fill: #009435; stroke: #009435; stroke-linejoin: miter"/>
     <use xlink:href="#ma1578df217" x="321.994761" y="254.580297" style="fill: #009435; stroke: #009435; stroke-linejoin: miter"/>
     <use xlink:href="#ma1578df217" x="327.153467" y="254.580219" style="fill: #009435; stroke: #009435; stroke-linejoin: miter"/>
     <use xlink:href="#ma1578df217" x="332.312173" y="254.579999" style="fill: #009435; stroke: #009435; stroke-linejoin: miter"/>
     <use xlink:href="#ma1578df217" x="337.470878" y="254.575192" style="fill: #009435; stroke: #009435; stroke-linejoin: miter"/>
     <use xlink:href="#ma1578df217" x="342.629584" y="254.627025" style="fill: #009435; stroke: #009435; stroke-linejoin: miter"/>
     <use xlink:href="#ma1578df217" x="347.78829" y="254.558499" style="fill: #009435; stroke: #009435; stroke-linejoin: miter"/>
     <use xlink:href="#ma1578df217" x="352.946995" y="254.645844" style="fill: #009435; stroke: #009435; stroke-linejoin: miter"/>
     <use xlink:href="#ma1578df217" x="358.105701" y="254.568899" style="fill: #009435; stroke: #009435; stroke-linejoin: miter"/>
     <use xlink:href="#ma1578df217" x="363.264407" y="254.56445" style="fill: #009435; stroke: #009435; stroke-linejoin: miter"/>
     <use xlink:href="#ma1578df217" x="368.423112" y="254.56075" style="fill: #009435; stroke: #009435; stroke-linejoin: miter"/>
     <use xlink:href="#ma1578df217" x="373.581818" y="254.585968" style="fill: #009435; stroke: #009435; stroke-linejoin: miter"/>
    </g>
   </g>
   <g id="patch_3">
    <path d="M 54 252 
L 54 34.56 
" style="fill: none; stroke: #000000; stroke-width: 0.8; stroke-linejoin: miter; stroke-linecap: square"/>
   </g>
   <g id="patch_4">
    <path d="M 388.8 252 
L 388.8 34.56 
" style="fill: none; stroke: #000000; stroke-width: 0.8; stroke-linejoin: miter; stroke-linecap: square"/>
   </g>
   <g id="patch_5">
    <path d="M 54 252 
L 388.8 252 
" style="fill: none; stroke: #000000; stroke-width: 0.8; stroke-linejoin: miter; stroke-linecap: square"/>
   </g>
   <g id="patch_6">
    <path d="M 54 34.56 
L 388.8 34.56 
" style="fill: none; stroke: #000000; stroke-width: 0.8; stroke-linejoin: miter; stroke-linecap: square"/>
   </g>
   <g id="text_17">
    <!-- ζ-EB agent policy with beta = 2.5 -->
    <g transform="translate(120.797813 28.56)scale(0.12 -0.12)">
     <defs>
      <path id="DejaVuSans-3b6" d="M 2231 397 
Q 2644 394 2891 159 
Q 3153 -88 3153 -463 
Q 3153 -822 2922 -1072 
Q 2672 -1344 2163 -1344 
Q 2163 -1109 2163 -872 
Q 2378 -888 2509 -750 
Q 2609 -641 2609 -525 
Q 2609 -359 2509 -222 
Q 2413 -91 2231 -91 
Q 338 -91 334 1669 
Q 334 3206 2119 4284 
L 456 4284 
L 456 4863 
L 3175 4863 
L 3175 4284 
Q 913 3147 913 1669 
Q 913 397 2231 397 
z
" transform="scale(0.015625)"/>
      <path id="DejaVuSans-2d" d="M 313 2009 
L 1997 2009 
L 1997 1497 
L 313 1497 
L 313 2009 
z
" transform="scale(0.015625)"/>
      <path id="DejaVuSans-45" d="M 628 4666 
L 3578 4666 
L 3578 4134 
L 1259 4134 
L 1259 2753 
L 3481 2753 
L 3481 2222 
L 1259 2222 
L 1259 531 
L 3634 531 
L 3634 0 
L 628 0 
L 628 4666 
z
" transform="scale(0.015625)"/>
      <path id="DejaVuSans-42" d="M 1259 2228 
L 1259 519 
L 2272 519 
Q 2781 519 3026 730 
Q 3272 941 3272 1375 
Q 3272 1813 3026 2020 
Q 2781 2228 2272 2228 
L 1259 2228 
z
M 1259 4147 
L 1259 2741 
L 2194 2741 
Q 2656 2741 2882 2914 
Q 3109 3088 3109 3444 
Q 3109 3797 2882 3972 
Q 2656 4147 2194 4147 
L 1259 4147 
z
M 628 4666 
L 2241 4666 
Q 2963 4666 3353 4366 
Q 3744 4066 3744 3513 
Q 3744 3084 3544 2831 
Q 3344 2578 2956 2516 
Q 3422 2416 3680 2098 
Q 3938 1781 3938 1306 
Q 3938 681 3513 340 
Q 3088 0 2303 0 
L 628 0 
L 628 4666 
z
" transform="scale(0.015625)"/>
      <path id="DejaVuSans-67" d="M 2906 1791 
Q 2906 2416 2648 2759 
Q 2391 3103 1925 3103 
Q 1463 3103 1205 2759 
Q 947 2416 947 1791 
Q 947 1169 1205 825 
Q 1463 481 1925 481 
Q 2391 481 2648 825 
Q 2906 1169 2906 1791 
z
M 3481 434 
Q 3481 -459 3084 -895 
Q 2688 -1331 1869 -1331 
Q 1566 -1331 1297 -1286 
Q 1028 -1241 775 -1147 
L 775 -588 
Q 1028 -725 1275 -790 
Q 1522 -856 1778 -856 
Q 2344 -856 2625 -561 
Q 2906 -266 2906 331 
L 2906 616 
Q 2728 306 2450 153 
Q 2172 0 1784 0 
Q 1141 0 747 490 
Q 353 981 353 1791 
Q 353 2603 747 3093 
Q 1141 3584 1784 3584 
Q 2172 3584 2450 3431 
Q 2728 3278 2906 2969 
L 2906 3500 
L 3481 3500 
L 3481 434 
z
" transform="scale(0.015625)"/>
      <path id="DejaVuSans-6e" d="M 3513 2113 
L 3513 0 
L 2938 0 
L 2938 2094 
Q 2938 2591 2744 2837 
Q 2550 3084 2163 3084 
Q 1697 3084 1428 2787 
Q 1159 2491 1159 1978 
L 1159 0 
L 581 0 
L 581 3500 
L 1159 3500 
L 1159 2956 
Q 1366 3272 1645 3428 
Q 1925 3584 2291 3584 
Q 2894 3584 3203 3211 
Q 3513 2838 3513 2113 
z
" transform="scale(0.015625)"/>
      <path id="DejaVuSans-77" d="M 269 3500 
L 844 3500 
L 1563 769 
L 2278 3500 
L 2956 3500 
L 3675 769 
L 4391 3500 
L 4966 3500 
L 4050 0 
L 3372 0 
L 2619 2869 
L 1863 0 
L 1184 0 
L 269 3500 
z
" transform="scale(0.015625)"/>
      <path id="DejaVuSans-68" d="M 3513 2113 
L 3513 0 
L 2938 0 
L 2938 2094 
Q 2938 2591 2744 2837 
Q 2550 3084 2163 3084 
Q 1697 3084 1428 2787 
Q 1159 2491 1159 1978 
L 1159 0 
L 581 0 
L 581 4863 
L 1159 4863 
L 1159 2956 
Q 1366 3272 1645 3428 
Q 1925 3584 2291 3584 
Q 2894 3584 3203 3211 
Q 3513 2838 3513 2113 
z
" transform="scale(0.015625)"/>
      <path id="DejaVuSans-62" d="M 3116 1747 
Q 3116 2381 2855 2742 
Q 2594 3103 2138 3103 
Q 1681 3103 1420 2742 
Q 1159 2381 1159 1747 
Q 1159 1113 1420 752 
Q 1681 391 2138 391 
Q 2594 391 2855 752 
Q 3116 1113 3116 1747 
z
M 1159 2969 
Q 1341 3281 1617 3432 
Q 1894 3584 2278 3584 
Q 2916 3584 3314 3078 
Q 3713 2572 3713 1747 
Q 3713 922 3314 415 
Q 2916 -91 2278 -91 
Q 1894 -91 1617 61 
Q 1341 213 1159 525 
L 1159 0 
L 581 0 
L 581 4863 
L 1159 4863 
L 1159 2969 
z
" transform="scale(0.015625)"/>
      <path id="DejaVuSans-3d" d="M 678 2906 
L 4684 2906 
L 4684 2381 
L 678 2381 
L 678 2906 
z
M 678 1631 
L 4684 1631 
L 4684 1100 
L 678 1100 
L 678 1631 
z
" transform="scale(0.015625)"/>
      <path id="DejaVuSans-2e" d="M 684 794 
L 1344 794 
L 1344 0 
L 684 0 
L 684 794 
z
" transform="scale(0.015625)"/>
     </defs>
     <use xlink:href="#DejaVuSans-3b6"/>
     <use xlink:href="#DejaVuSans-2d" x="54.394531"/>
     <use xlink:href="#DejaVuSans-45" x="90.478516"/>
     <use xlink:href="#DejaVuSans-42" x="153.662109"/>
     <use xlink:href="#DejaVuSans-20" x="222.265625"/>
     <use xlink:href="#DejaVuSans-61" x="254.052734"/>
     <use xlink:href="#DejaVuSans-67" x="315.332031"/>
     <use xlink:href="#DejaVuSans-65" x="378.808594"/>
     <use xlink:href="#DejaVuSans-6e" x="440.332031"/>
     <use xlink:href="#DejaVuSans-74" x="503.710938"/>
     <use xlink:href="#DejaVuSans-20" x="542.919922"/>
     <use xlink:href="#DejaVuSans-70" x="574.707031"/>
     <use xlink:href="#DejaVuSans-6f" x="638.183594"/>
     <use xlink:href="#DejaVuSans-6c" x="699.365234"/>
     <use xlink:href="#DejaVuSans-69" x="727.148438"/>
     <use xlink:href="#DejaVuSans-63" x="754.931641"/>
     <use xlink:href="#DejaVuSans-79" x="809.912109"/>
     <use xlink:href="#DejaVuSans-20" x="869.091797"/>
     <use xlink:href="#DejaVuSans-77" x="900.878906"/>
     <use xlink:href="#DejaVuSans-69" x="982.666016"/>
     <use xlink:href="#DejaVuSans-74" x="1010.449219"/>
     <use xlink:href="#DejaVuSans-68" x="1049.658203"/>
     <use xlink:href="#DejaVuSans-20" x="1113.037109"/>
     <use xlink:href="#DejaVuSans-62" x="1144.824219"/>
     <use xlink:href="#DejaVuSans-65" x="1208.300781"/>
     <use xlink:href="#DejaVuSans-74" x="1269.824219"/>
     <use xlink:href="#DejaVuSans-61" x="1309.033203"/>
     <use xlink:href="#DejaVuSans-20" x="1370.3125"/>
     <use xlink:href="#DejaVuSans-3d" x="1402.099609"/>
     <use xlink:href="#DejaVuSans-20" x="1485.888672"/>
     <use xlink:href="#DejaVuSans-32" x="1517.675781"/>
     <use xlink:href="#DejaVuSans-2e" x="1581.298828"/>
     <use xlink:href="#DejaVuSans-35" x="1613.085938"/>
    </g>
   </g>
   <g id="legend_1">
    <g id="patch_7">
     <path d="M 61 115.950625 
L 145.003125 115.950625 
Q 147.003125 115.950625 147.003125 113.950625 
L 147.003125 41.56 
Q 147.003125 39.56 145.003125 39.56 
L 61 39.56 
Q 59 39.56 59 41.56 
L 59 113.950625 
Q 59 115.950625 61 115.950625 
z
" style="fill: #ffffff; opacity: 0.8; stroke: #cccccc; stroke-linejoin: miter"/>
    </g>
    <g id="line2d_34">
     <path d="M 63 47.658437 
L 73 47.658437 
L 83 47.658437 
" style="fill: none; stroke: #9d02d7; stroke-width: 1.5; stroke-linecap: square"/>
     <g>
      <use xlink:href="#m3bfcaf4f8c" x="73" y="47.658437" style="fill: #9d02d7; stroke: #9d02d7; stroke-linejoin: miter"/>
     </g>
    </g>
    <g id="text_18">
     <!-- alpha=0.1 -->
     <g transform="translate(91 51.158437)scale(0.1 -0.1)">
      <use xlink:href="#DejaVuSans-61"/>
      <use xlink:href="#DejaVuSans-6c" x="61.279297"/>
      <use xlink:href="#DejaVuSans-70" x="89.0625"/>
      <use xlink:href="#DejaVuSans-68" x="152.539062"/>
      <use xlink:href="#DejaVuSans-61" x="215.917969"/>
      <use xlink:href="#DejaVuSans-3d" x="277.197266"/>
      <use xlink:href="#DejaVuSans-30" x="360.986328"/>
      <use xlink:href="#DejaVuSans-2e" x="424.609375"/>
      <use xlink:href="#DejaVuSans-31" x="456.396484"/>
     </g>
    </g>
    <g id="line2d_35">
     <path d="M 63 62.336562 
L 73 62.336562 
L 83 62.336562 
" style="fill: none; stroke: #0000ff; stroke-width: 1.5; stroke-linecap: square"/>
     <g>
      <use xlink:href="#ma5260ffe8d" x="73" y="62.336562" style="fill: #0000ff; stroke: #0000ff"/>
     </g>
    </g>
    <g id="text_19">
     <!-- alpha=0.5 -->
     <g transform="translate(91 65.836562)scale(0.1 -0.1)">
      <use xlink:href="#DejaVuSans-61"/>
      <use xlink:href="#DejaVuSans-6c" x="61.279297"/>
      <use xlink:href="#DejaVuSans-70" x="89.0625"/>
      <use xlink:href="#DejaVuSans-68" x="152.539062"/>
      <use xlink:href="#DejaVuSans-61" x="215.917969"/>
      <use xlink:href="#DejaVuSans-3d" x="277.197266"/>
      <use xlink:href="#DejaVuSans-30" x="360.986328"/>
      <use xlink:href="#DejaVuSans-2e" x="424.609375"/>
      <use xlink:href="#DejaVuSans-35" x="456.396484"/>
     </g>
    </g>
    <g id="line2d_36">
     <path d="M 63 77.014687 
L 73 77.014687 
L 83 77.014687 
" style="fill: none; stroke: #ff7763; stroke-width: 1.5; stroke-linecap: square"/>
     <g>
      <use xlink:href="#m9b2512fce9" x="73" y="77.014687" style="fill: #ff7763; stroke: #ff7763"/>
     </g>
    </g>
    <g id="text_20">
     <!-- alpha=1.0 -->
     <g transform="translate(91 80.514687)scale(0.1 -0.1)">
      <use xlink:href="#DejaVuSans-61"/>
      <use xlink:href="#DejaVuSans-6c" x="61.279297"/>
      <use xlink:href="#DejaVuSans-70" x="89.0625"/>
      <use xlink:href="#DejaVuSans-68" x="152.539062"/>
      <use xlink:href="#DejaVuSans-61" x="215.917969"/>
      <use xlink:href="#DejaVuSans-3d" x="277.197266"/>
      <use xlink:href="#DejaVuSans-31" x="360.986328"/>
      <use xlink:href="#DejaVuSans-2e" x="424.609375"/>
      <use xlink:href="#DejaVuSans-30" x="456.396484"/>
     </g>
    </g>
    <g id="line2d_37">
     <path d="M 63 91.692813 
L 73 91.692813 
L 83 91.692813 
" style="fill: none; stroke: #ffac1e; stroke-width: 1.5; stroke-linecap: square"/>
     <g>
      <use xlink:href="#m1907aeb923" x="73" y="91.692813" style="fill: #ffac1e; stroke: #ffac1e; stroke-linejoin: bevel"/>
     </g>
    </g>
    <g id="text_21">
     <!-- alpha=1.5 -->
     <g transform="translate(91 95.192813)scale(0.1 -0.1)">
      <use xlink:href="#DejaVuSans-61"/>
      <use xlink:href="#DejaVuSans-6c" x="61.279297"/>
      <use xlink:href="#DejaVuSans-70" x="89.0625"/>
      <use xlink:href="#DejaVuSans-68" x="152.539062"/>
      <use xlink:href="#DejaVuSans-61" x="215.917969"/>
      <use xlink:href="#DejaVuSans-3d" x="277.197266"/>
      <use xlink:href="#DejaVuSans-31" x="360.986328"/>
      <use xlink:href="#DejaVuSans-2e" x="424.609375"/>
      <use xlink:href="#DejaVuSans-35" x="456.396484"/>
     </g>
    </g>
    <g id="line2d_38">
     <path d="M 63 106.370937 
L 73 106.370937 
L 83 106.370937 
" style="fill: none; stroke: #009435; stroke-width: 1.5; stroke-linecap: square"/>
     <g>
      <use xlink:href="#ma1578df217" x="73" y="106.370937" style="fill: #009435; stroke: #009435; stroke-linejoin: miter"/>
     </g>
    </g>
    <g id="text_22">
     <!-- alpha=2.0 -->
     <g transform="translate(91 109.870937)scale(0.1 -0.1)">
      <use xlink:href="#DejaVuSans-61"/>
      <use xlink:href="#DejaVuSans-6c" x="61.279297"/>
      <use xlink:href="#DejaVuSans-70" x="89.0625"/>
      <use xlink:href="#DejaVuSans-68" x="152.539062"/>
      <use xlink:href="#DejaVuSans-61" x="215.917969"/>
      <use xlink:href="#DejaVuSans-3d" x="277.197266"/>
      <use xlink:href="#DejaVuSans-32" x="360.986328"/>
      <use xlink:href="#DejaVuSans-2e" x="424.609375"/>
      <use xlink:href="#DejaVuSans-30" x="456.396484"/>
     </g>
    </g>
   </g>
  </g>
 </g>
 <defs>
  <clipPath id="pd5b6f5c1ee">
   <rect x="54" y="34.56" width="334.8" height="217.44"/>
  </clipPath>
 </defs>
</svg>
