<?xml version="1.0" encoding="utf-8" standalone="no"?>
<!DOCTYPE svg PUBLIC "-//W3C//DTD SVG 1.1//EN"
  "http://www.w3.org/Graphics/SVG/1.1/DTD/svg11.dtd">
<svg xmlns:xlink="http://www.w3.org/1999/xlink" width="432pt" height="288pt" viewBox="0 0 432 288" xmlns="http://www.w3.org/2000/svg" version="1.1">
 <metadata>
  <rdf:RDF xmlns:dc="http://purl.org/dc/elements/1.1/" xmlns:cc="http://creativecommons.org/ns#" xmlns:rdf="http://www.w3.org/1999/02/22-rdf-syntax-ns#">
   <cc:Work>
    <dc:type rdf:resource="http://purl.org/dc/dcmitype/StillImage"/>
    <dc:date>2023-01-11T15:37:00.423720</dc:date>
    <dc:format>image/svg+xml</dc:format>
    <dc:creator>
     <cc:Agent>
      <dc:title>Matplotlib v3.5.2, https://matplotlib.org/</dc:title>
     </cc:Agent>
    </dc:creator>
   </cc:Work>
  </rdf:RDF>
 </metadata>
 <defs>
  <style type="text/css">*{stroke-linejoin: round; stroke-linecap: butt}</style>
 </defs>
 <g id="figure_1">
  <g id="patch_1">
   <path d="M 0 288 
L 432 288 
L 432 0 
L 0 0 
z
" style="fill: #ffffff"/>
  </g>
  <g id="axes_1">
   <g id="patch_2">
    <path d="M 54 252 
L 388.8 252 
L 388.8 34.56 
L 54 34.56 
z
" style="fill: #ffffff"/>
   </g>
   <g id="PolyCollection_1">
    <defs>
     <path id="m7ab3dec5a7" d="M 69.218182 -34.012833 
L 69.218182 -34.012833 
L 74.376888 -30.187164 
L 79.535593 -35.363464 
L 84.694299 -74.415789 
L 89.853005 -32.57179 
L 95.01171 -33.490118 
L 100.170416 -34.937627 
L 105.329122 -26.285378 
L 110.487827 -32.783574 
L 115.646533 -50.262014 
L 120.805239 -42.296988 
L 125.963945 -33.564427 
L 131.12265 -35.091182 
L 136.281356 -32.356053 
L 141.440062 -55.719404 
L 146.598767 -52.664944 
L 151.757473 -53.528457 
L 156.916179 -142.935412 
L 162.074884 -99.560008 
L 167.23359 -175.208054 
L 172.392296 -106.358246 
L 177.551002 -196.69342 
L 182.709707 -184.303231 
L 187.868413 -151.922954 
L 193.027119 -225.033326 
L 198.185824 -178.20239 
L 203.34453 -30.424228 
L 208.503236 -229.50134 
L 213.661941 -185.59016 
L 218.820647 -212.271459 
L 223.979353 -231.485783 
L 229.138059 -36.730868 
L 234.296764 -92.892878 
L 239.45547 -170.120539 
L 244.614176 -235.286078 
L 249.772881 -236.560538 
L 254.931587 -231.236825 
L 260.090293 -236.560538 
L 265.248998 -231.236825 
L 270.407704 -228.780911 
L 275.56641 -231.236825 
L 280.725116 -221.382445 
L 285.883821 -213.3376 
L 291.042527 -236.156367 
L 296.201233 -236.532874 
L 301.359938 -236.14606 
L 306.518644 -231.236825 
L 311.67735 -225.922185 
L 316.836055 -235.931455 
L 321.994761 -233.077034 
L 327.153467 -236.128176 
L 332.312173 -233.303439 
L 337.470878 -233.303439 
L 342.629584 -235.931455 
L 347.78829 -233.303439 
L 352.946995 -236.139035 
L 358.105701 -230.509596 
L 363.264407 -231.236825 
L 368.423112 -231.236825 
L 373.581818 -236.486067 
L 373.581818 -236.486067 
L 373.581818 -236.486067 
L 368.423112 -231.236825 
L 363.264407 -231.236825 
L 358.105701 -230.509596 
L 352.946995 -236.139035 
L 347.78829 -233.303439 
L 342.629584 -235.931455 
L 337.470878 -233.303439 
L 332.312173 -233.303439 
L 327.153467 -236.128176 
L 321.994761 -233.077034 
L 316.836055 -235.931455 
L 311.67735 -225.922185 
L 306.518644 -231.236825 
L 301.359938 -236.14606 
L 296.201233 -236.532874 
L 291.042527 -236.156367 
L 285.883821 -213.3376 
L 280.725116 -221.382445 
L 275.56641 -231.236825 
L 270.407704 -228.780911 
L 265.248998 -231.236825 
L 260.090293 -236.560538 
L 254.931587 -231.236825 
L 249.772881 -236.560538 
L 244.614176 -235.286078 
L 239.45547 -170.120539 
L 234.296764 -92.892878 
L 229.138059 -36.730868 
L 223.979353 -231.485783 
L 218.820647 -212.271459 
L 213.661941 -185.59016 
L 208.503236 -229.50134 
L 203.34453 -30.424228 
L 198.185824 -178.20239 
L 193.027119 -225.033326 
L 187.868413 -151.922954 
L 182.709707 -184.303231 
L 177.551002 -196.69342 
L 172.392296 -106.358246 
L 167.23359 -175.208054 
L 162.074884 -99.560008 
L 156.916179 -142.935412 
L 151.757473 -53.528457 
L 146.598767 -52.664944 
L 141.440062 -55.719404 
L 136.281356 -32.356053 
L 131.12265 -35.091182 
L 125.963945 -33.564427 
L 120.805239 -42.296988 
L 115.646533 -50.262014 
L 110.487827 -32.783574 
L 105.329122 -26.285378 
L 100.170416 -34.937627 
L 95.01171 -33.490118 
L 89.853005 -32.57179 
L 84.694299 -74.415789 
L 79.535593 -35.363464 
L 74.376888 -30.187164 
L 69.218182 -34.012833 
z
" style="stroke: #9d02d7; stroke-opacity: 0.2"/>
    </defs>
    <g clip-path="url(#pc2457ceb17)">
     <use xlink:href="#m7ab3dec5a7" x="0" y="288" style="fill: #9d02d7; fill-opacity: 0.2; stroke: #9d02d7; stroke-opacity: 0.2"/>
    </g>
   </g>
   <g id="PolyCollection_2">
    <defs>
     <path id="m999b995dd3" d="M 69.218182 -17.136569 
L 69.218182 -17.136569 
L 74.376888 -32.290155 
L 79.535593 -19.919025 
L 84.694299 -37.352375 
L 89.853005 -32.662787 
L 95.01171 -34.346705 
L 100.170416 -32.529021 
L 105.329122 -34.659058 
L 110.487827 -30.682274 
L 115.646533 -31.22692 
L 120.805239 -61.990391 
L 125.963945 -29.687946 
L 131.12265 -34.321005 
L 136.281356 -93.528987 
L 141.440062 -34.680935 
L 146.598767 -66.773481 
L 151.757473 -45.414559 
L 156.916179 -29.488891 
L 162.074884 -34.30105 
L 167.23359 -35.091182 
L 172.392296 -182.845947 
L 177.551002 -38.338128 
L 182.709707 -210.250961 
L 187.868413 -212.656281 
L 193.027119 -200.513483 
L 198.185824 -220.388351 
L 203.34453 -203.060423 
L 208.503236 -219.001525 
L 213.661941 -243.248277 
L 218.820647 -243.248114 
L 223.979353 -93.412883 
L 229.138059 -235.242466 
L 234.296764 -156.474321 
L 239.45547 -35.091182 
L 244.614176 -75.913745 
L 249.772881 -217.92811 
L 254.931587 -239.288933 
L 260.090293 -241.986681 
L 265.248998 -232.578324 
L 270.407704 -242.393643 
L 275.56641 -200.073933 
L 280.725116 -169.928743 
L 285.883821 -227.600189 
L 291.042527 -214.047937 
L 296.201233 -236.131464 
L 301.359938 -226.055177 
L 306.518644 -139.275815 
L 311.67735 -238.459875 
L 316.836055 -233.883448 
L 321.994761 -228.706681 
L 327.153467 -233.121628 
L 332.312173 -232.359393 
L 337.470878 -195.39032 
L 342.629584 -240.917991 
L 347.78829 -240.917991 
L 352.946995 -244.503139 
L 358.105701 -241.592505 
L 363.264407 -64.276189 
L 368.423112 -229.972344 
L 373.581818 -241.612916 
L 373.581818 -241.612916 
L 373.581818 -241.612916 
L 368.423112 -229.972344 
L 363.264407 -64.276189 
L 358.105701 -241.592505 
L 352.946995 -244.503139 
L 347.78829 -240.917991 
L 342.629584 -240.917991 
L 337.470878 -195.39032 
L 332.312173 -232.359393 
L 327.153467 -233.121628 
L 321.994761 -228.706681 
L 316.836055 -233.883448 
L 311.67735 -238.459875 
L 306.518644 -139.275815 
L 301.359938 -226.055177 
L 296.201233 -236.131464 
L 291.042527 -214.047937 
L 285.883821 -227.600189 
L 280.725116 -169.928743 
L 275.56641 -200.073933 
L 270.407704 -242.393643 
L 265.248998 -232.578324 
L 260.090293 -241.986681 
L 254.931587 -239.288933 
L 249.772881 -217.92811 
L 244.614176 -75.913745 
L 239.45547 -35.091182 
L 234.296764 -156.474321 
L 229.138059 -235.242466 
L 223.979353 -93.412883 
L 218.820647 -243.248114 
L 213.661941 -243.248277 
L 208.503236 -219.001525 
L 203.34453 -203.060423 
L 198.185824 -220.388351 
L 193.027119 -200.513483 
L 187.868413 -212.656281 
L 182.709707 -210.250961 
L 177.551002 -38.338128 
L 172.392296 -182.845947 
L 167.23359 -35.091182 
L 162.074884 -34.30105 
L 156.916179 -29.488891 
L 151.757473 -45.414559 
L 146.598767 -66.773481 
L 141.440062 -34.680935 
L 136.281356 -93.528987 
L 131.12265 -34.321005 
L 125.963945 -29.687946 
L 120.805239 -61.990391 
L 115.646533 -31.22692 
L 110.487827 -30.682274 
L 105.329122 -34.659058 
L 100.170416 -32.529021 
L 95.01171 -34.346705 
L 89.853005 -32.662787 
L 84.694299 -37.352375 
L 79.535593 -19.919025 
L 74.376888 -32.290155 
L 69.218182 -17.136569 
z
" style="stroke: #0000ff; stroke-opacity: 0.2"/>
    </defs>
    <g clip-path="url(#pc2457ceb17)">
     <use xlink:href="#m999b995dd3" x="0" y="288" style="fill: #0000ff; fill-opacity: 0.2; stroke: #0000ff; stroke-opacity: 0.2"/>
    </g>
   </g>
   <g id="PolyCollection_3">
    <defs>
     <path id="m6aeeb760e6" d="M 69.218182 -33.383914 
L 69.218182 -33.383914 
L 74.376888 -32.493371 
L 79.535593 -34.265973 
L 84.694299 -51.477169 
L 89.853005 -33.418947 
L 95.01171 -35.553447 
L 100.170416 -28.713545 
L 105.329122 -23.435878 
L 110.487827 -223.365894 
L 115.646533 -34.846608 
L 120.805239 -34.779967 
L 125.963945 -37.333455 
L 131.12265 -34.72969 
L 136.281356 -28.876037 
L 141.440062 -185.567647 
L 146.598767 -32.987277 
L 151.757473 -34.972774 
L 156.916179 -35.452611 
L 162.074884 -34.643103 
L 167.23359 -73.908459 
L 172.392296 -15.507114 
L 177.551002 -39.928572 
L 182.709707 -35.179899 
L 187.868413 -214.070844 
L 193.027119 -227.359485 
L 198.185824 -151.419295 
L 203.34453 -124.690102 
L 208.503236 -114.528607 
L 213.661941 -22.098144 
L 218.820647 -107.356074 
L 223.979353 -107.997129 
L 229.138059 -188.699701 
L 234.296764 -191.410953 
L 239.45547 -225.094547 
L 244.614176 -227.415253 
L 249.772881 -225.111471 
L 254.931587 -237.660867 
L 260.090293 -229.17241 
L 265.248998 -222.406437 
L 270.407704 -229.17241 
L 275.56641 -236.606225 
L 280.725116 -233.275027 
L 285.883821 -244.525773 
L 291.042527 -240.768398 
L 296.201233 -240.805885 
L 301.359938 -183.582351 
L 306.518644 -228.949402 
L 311.67735 -219.356072 
L 316.836055 -219.356072 
L 321.994761 -232.774989 
L 327.153467 -244.891539 
L 332.312173 -219.921444 
L 337.470878 -226.067044 
L 342.629584 -241.071106 
L 347.78829 -244.631417 
L 352.946995 -242.39255 
L 358.105701 -242.39255 
L 363.264407 -242.392258 
L 368.423112 -230.04869 
L 373.581818 -107.989471 
L 373.581818 -107.989471 
L 373.581818 -107.989471 
L 368.423112 -230.04869 
L 363.264407 -242.392258 
L 358.105701 -242.39255 
L 352.946995 -242.39255 
L 347.78829 -244.631417 
L 342.629584 -241.071106 
L 337.470878 -226.067044 
L 332.312173 -219.921444 
L 327.153467 -244.891539 
L 321.994761 -232.774989 
L 316.836055 -219.356072 
L 311.67735 -219.356072 
L 306.518644 -228.949402 
L 301.359938 -183.582351 
L 296.201233 -240.805885 
L 291.042527 -240.768398 
L 285.883821 -244.525773 
L 280.725116 -233.275027 
L 275.56641 -236.606225 
L 270.407704 -229.17241 
L 265.248998 -222.406437 
L 260.090293 -229.17241 
L 254.931587 -237.660867 
L 249.772881 -225.111471 
L 244.614176 -227.415253 
L 239.45547 -225.094547 
L 234.296764 -191.410953 
L 229.138059 -188.699701 
L 223.979353 -107.997129 
L 218.820647 -107.356074 
L 213.661941 -22.098144 
L 208.503236 -114.528607 
L 203.34453 -124.690102 
L 198.185824 -151.419295 
L 193.027119 -227.359485 
L 187.868413 -214.070844 
L 182.709707 -35.179899 
L 177.551002 -39.928572 
L 172.392296 -15.507114 
L 167.23359 -73.908459 
L 162.074884 -34.643103 
L 156.916179 -35.452611 
L 151.757473 -34.972774 
L 146.598767 -32.987277 
L 141.440062 -185.567647 
L 136.281356 -28.876037 
L 131.12265 -34.72969 
L 125.963945 -37.333455 
L 120.805239 -34.779967 
L 115.646533 -34.846608 
L 110.487827 -223.365894 
L 105.329122 -23.435878 
L 100.170416 -28.713545 
L 95.01171 -35.553447 
L 89.853005 -33.418947 
L 84.694299 -51.477169 
L 79.535593 -34.265973 
L 74.376888 -32.493371 
L 69.218182 -33.383914 
z
" style="stroke: #ff7763; stroke-opacity: 0.2"/>
    </defs>
    <g clip-path="url(#pc2457ceb17)">
     <use xlink:href="#m6aeeb760e6" x="0" y="288" style="fill: #ff7763; fill-opacity: 0.2; stroke: #ff7763; stroke-opacity: 0.2"/>
    </g>
   </g>
   <g id="PolyCollection_4">
    <defs>
     <path id="m256dcfd3cc" d="M 69.218182 -35.091182 
L 69.218182 -35.091182 
L 74.376888 -33.65925 
L 79.535593 -32.764418 
L 84.694299 -25.537558 
L 89.853005 -34.431322 
L 95.01171 -25.549187 
L 100.170416 -19.427773 
L 105.329122 -25.414081 
L 110.487827 -30.368377 
L 115.646533 -132.42994 
L 120.805239 -34.559236 
L 125.963945 -35.091182 
L 131.12265 -34.208646 
L 136.281356 -24.221824 
L 141.440062 -39.896397 
L 146.598767 -40.639478 
L 151.757473 -35.084685 
L 156.916179 -85.116279 
L 162.074884 -35.511583 
L 167.23359 -10.756187 
L 172.392296 -33.485063 
L 177.551002 -119.480442 
L 182.709707 -44.953391 
L 187.868413 -174.718551 
L 193.027119 -35.449935 
L 198.185824 -36.853459 
L 203.34453 -147.557406 
L 208.503236 -212.652773 
L 213.661941 -56.908653 
L 218.820647 -72.697224 
L 223.979353 -242.127397 
L 229.138059 -214.542306 
L 234.296764 -212.17841 
L 239.45547 -232.466549 
L 244.614176 -232.43405 
L 249.772881 -178.846402 
L 254.931587 -205.222622 
L 260.090293 -244.531155 
L 265.248998 -89.465969 
L 270.407704 -86.323131 
L 275.56641 -162.894502 
L 280.725116 -229.746422 
L 285.883821 -236.373475 
L 291.042527 -234.616343 
L 296.201233 -223.759085 
L 301.359938 -150.595334 
L 306.518644 -230.979596 
L 311.67735 -226.775397 
L 316.836055 -231.592376 
L 321.994761 -207.851229 
L 327.153467 -188.852386 
L 332.312173 -234.16669 
L 337.470878 -238.056751 
L 342.629584 -242.178774 
L 347.78829 -242.179286 
L 352.946995 -242.096607 
L 358.105701 -242.17862 
L 363.264407 -242.951342 
L 368.423112 -242.590635 
L 373.581818 -230.661483 
L 373.581818 -230.661483 
L 373.581818 -230.661483 
L 368.423112 -242.590635 
L 363.264407 -242.951342 
L 358.105701 -242.17862 
L 352.946995 -242.096607 
L 347.78829 -242.179286 
L 342.629584 -242.178774 
L 337.470878 -238.056751 
L 332.312173 -234.16669 
L 327.153467 -188.852386 
L 321.994761 -207.851229 
L 316.836055 -231.592376 
L 311.67735 -226.775397 
L 306.518644 -230.979596 
L 301.359938 -150.595334 
L 296.201233 -223.759085 
L 291.042527 -234.616343 
L 285.883821 -236.373475 
L 280.725116 -229.746422 
L 275.56641 -162.894502 
L 270.407704 -86.323131 
L 265.248998 -89.465969 
L 260.090293 -244.531155 
L 254.931587 -205.222622 
L 249.772881 -178.846402 
L 244.614176 -232.43405 
L 239.45547 -232.466549 
L 234.296764 -212.17841 
L 229.138059 -214.542306 
L 223.979353 -242.127397 
L 218.820647 -72.697224 
L 213.661941 -56.908653 
L 208.503236 -212.652773 
L 203.34453 -147.557406 
L 198.185824 -36.853459 
L 193.027119 -35.449935 
L 187.868413 -174.718551 
L 182.709707 -44.953391 
L 177.551002 -119.480442 
L 172.392296 -33.485063 
L 167.23359 -10.756187 
L 162.074884 -35.511583 
L 156.916179 -85.116279 
L 151.757473 -35.084685 
L 146.598767 -40.639478 
L 141.440062 -39.896397 
L 136.281356 -24.221824 
L 131.12265 -34.208646 
L 125.963945 -35.091182 
L 120.805239 -34.559236 
L 115.646533 -132.42994 
L 110.487827 -30.368377 
L 105.329122 -25.414081 
L 100.170416 -19.427773 
L 95.01171 -25.549187 
L 89.853005 -34.431322 
L 84.694299 -25.537558 
L 79.535593 -32.764418 
L 74.376888 -33.65925 
L 69.218182 -35.091182 
z
" style="stroke: #ffac1e; stroke-opacity: 0.2"/>
    </defs>
    <g clip-path="url(#pc2457ceb17)">
     <use xlink:href="#m256dcfd3cc" x="0" y="288" style="fill: #ffac1e; fill-opacity: 0.2; stroke: #ffac1e; stroke-opacity: 0.2"/>
    </g>
   </g>
   <g id="PolyCollection_5">
    <defs>
     <path id="m32f996ed28" d="M 69.218182 -19.212778 
L 69.218182 -19.212778 
L 74.376888 -34.163475 
L 79.535593 -31.562682 
L 84.694299 -60.608871 
L 89.853005 -36.67869 
L 95.01171 -32.300726 
L 100.170416 -34.215356 
L 105.329122 -34.553559 
L 110.487827 -130.24869 
L 115.646533 -31.358362 
L 120.805239 -29.553389 
L 125.963945 -30.768411 
L 131.12265 -37.476796 
L 136.281356 -36.711258 
L 141.440062 -31.27118 
L 146.598767 -227.634922 
L 151.757473 -40.234424 
L 156.916179 -22.677284 
L 162.074884 -34.981497 
L 167.23359 -28.473524 
L 172.392296 -54.322047 
L 177.551002 -227.281839 
L 182.709707 -36.734416 
L 187.868413 -34.292434 
L 193.027119 -62.646723 
L 198.185824 -215.080132 
L 203.34453 -93.929154 
L 208.503236 -50.961171 
L 213.661941 -145.681295 
L 218.820647 -35.091182 
L 223.979353 -34.77019 
L 229.138059 -179.287742 
L 234.296764 -77.157472 
L 239.45547 -131.479126 
L 244.614176 -153.994136 
L 249.772881 -237.167903 
L 254.931587 -209.186975 
L 260.090293 -69.337563 
L 265.248998 -132.879294 
L 270.407704 -187.644347 
L 275.56641 -206.33847 
L 280.725116 -37.340843 
L 285.883821 -196.072636 
L 291.042527 -67.758761 
L 296.201233 -35.091182 
L 301.359938 -215.561235 
L 306.518644 -98.983993 
L 311.67735 -94.896222 
L 316.836055 -239.541002 
L 321.994761 -235.672881 
L 327.153467 -207.381931 
L 332.312173 -114.988146 
L 337.470878 -220.518854 
L 342.629584 -243.859553 
L 347.78829 -240.528723 
L 352.946995 -232.179336 
L 358.105701 -225.200195 
L 363.264407 -240.716983 
L 368.423112 -244.677013 
L 373.581818 -244.677013 
L 373.581818 -244.677013 
L 373.581818 -244.677013 
L 368.423112 -244.677013 
L 363.264407 -240.716983 
L 358.105701 -225.200195 
L 352.946995 -232.179336 
L 347.78829 -240.528723 
L 342.629584 -243.859553 
L 337.470878 -220.518854 
L 332.312173 -114.988146 
L 327.153467 -207.381931 
L 321.994761 -235.672881 
L 316.836055 -239.541002 
L 311.67735 -94.896222 
L 306.518644 -98.983993 
L 301.359938 -215.561235 
L 296.201233 -35.091182 
L 291.042527 -67.758761 
L 285.883821 -196.072636 
L 280.725116 -37.340843 
L 275.56641 -206.33847 
L 270.407704 -187.644347 
L 265.248998 -132.879294 
L 260.090293 -69.337563 
L 254.931587 -209.186975 
L 249.772881 -237.167903 
L 244.614176 -153.994136 
L 239.45547 -131.479126 
L 234.296764 -77.157472 
L 229.138059 -179.287742 
L 223.979353 -34.77019 
L 218.820647 -35.091182 
L 213.661941 -145.681295 
L 208.503236 -50.961171 
L 203.34453 -93.929154 
L 198.185824 -215.080132 
L 193.027119 -62.646723 
L 187.868413 -34.292434 
L 182.709707 -36.734416 
L 177.551002 -227.281839 
L 172.392296 -54.322047 
L 167.23359 -28.473524 
L 162.074884 -34.981497 
L 156.916179 -22.677284 
L 151.757473 -40.234424 
L 146.598767 -227.634922 
L 141.440062 -31.27118 
L 136.281356 -36.711258 
L 131.12265 -37.476796 
L 125.963945 -30.768411 
L 120.805239 -29.553389 
L 115.646533 -31.358362 
L 110.487827 -130.24869 
L 105.329122 -34.553559 
L 100.170416 -34.215356 
L 95.01171 -32.300726 
L 89.853005 -36.67869 
L 84.694299 -60.608871 
L 79.535593 -31.562682 
L 74.376888 -34.163475 
L 69.218182 -19.212778 
z
" style="stroke: #009435; stroke-opacity: 0.2"/>
    </defs>
    <g clip-path="url(#pc2457ceb17)">
     <use xlink:href="#m32f996ed28" x="0" y="288" style="fill: #009435; fill-opacity: 0.2; stroke: #009435; stroke-opacity: 0.2"/>
    </g>
   </g>
   <g id="matplotlib.axis_1">
    <g id="xtick_1">
     <g id="line2d_1">
      <path d="M 69.218182 252 
L 69.218182 34.56 
" clip-path="url(#pc2457ceb17)" style="fill: none; stroke-dasharray: 2.96,1.28; stroke-dashoffset: 0; stroke: #b0b0b0; stroke-width: 0.8"/>
     </g>
     <g id="line2d_2">
      <defs>
       <path id="mef10fcacf8" d="M 0 0 
L 0 3.5 
" style="stroke: #000000; stroke-width: 0.8"/>
      </defs>
      <g>
       <use xlink:href="#mef10fcacf8" x="69.218182" y="252" style="stroke: #000000; stroke-width: 0.8"/>
      </g>
     </g>
     <g id="text_1">
      <!-- 0 -->
      <g transform="translate(66.036932 266.598437)scale(0.1 -0.1)">
       <defs>
        <path id="DejaVuSans-30" d="M 2034 4250 
Q 1547 4250 1301 3770 
Q 1056 3291 1056 2328 
Q 1056 1369 1301 889 
Q 1547 409 2034 409 
Q 2525 409 2770 889 
Q 3016 1369 3016 2328 
Q 3016 3291 2770 3770 
Q 2525 4250 2034 4250 
z
M 2034 4750 
Q 2819 4750 3233 4129 
Q 3647 3509 3647 2328 
Q 3647 1150 3233 529 
Q 2819 -91 2034 -91 
Q 1250 -91 836 529 
Q 422 1150 422 2328 
Q 422 3509 836 4129 
Q 1250 4750 2034 4750 
z
" transform="scale(0.015625)"/>
       </defs>
       <use xlink:href="#DejaVuSans-30"/>
      </g>
     </g>
    </g>
    <g id="xtick_2">
     <g id="line2d_3">
      <path d="M 120.805239 252 
L 120.805239 34.56 
" clip-path="url(#pc2457ceb17)" style="fill: none; stroke-dasharray: 2.96,1.28; stroke-dashoffset: 0; stroke: #b0b0b0; stroke-width: 0.8"/>
     </g>
     <g id="line2d_4">
      <g>
       <use xlink:href="#mef10fcacf8" x="120.805239" y="252" style="stroke: #000000; stroke-width: 0.8"/>
      </g>
     </g>
     <g id="text_2">
      <!-- 500 -->
      <g transform="translate(111.261489 266.598437)scale(0.1 -0.1)">
       <defs>
        <path id="DejaVuSans-35" d="M 691 4666 
L 3169 4666 
L 3169 4134 
L 1269 4134 
L 1269 2991 
Q 1406 3038 1543 3061 
Q 1681 3084 1819 3084 
Q 2600 3084 3056 2656 
Q 3513 2228 3513 1497 
Q 3513 744 3044 326 
Q 2575 -91 1722 -91 
Q 1428 -91 1123 -41 
Q 819 9 494 109 
L 494 744 
Q 775 591 1075 516 
Q 1375 441 1709 441 
Q 2250 441 2565 725 
Q 2881 1009 2881 1497 
Q 2881 1984 2565 2268 
Q 2250 2553 1709 2553 
Q 1456 2553 1204 2497 
Q 953 2441 691 2322 
L 691 4666 
z
" transform="scale(0.015625)"/>
       </defs>
       <use xlink:href="#DejaVuSans-35"/>
       <use xlink:href="#DejaVuSans-30" x="63.623047"/>
       <use xlink:href="#DejaVuSans-30" x="127.246094"/>
      </g>
     </g>
    </g>
    <g id="xtick_3">
     <g id="line2d_5">
      <path d="M 172.392296 252 
L 172.392296 34.56 
" clip-path="url(#pc2457ceb17)" style="fill: none; stroke-dasharray: 2.96,1.28; stroke-dashoffset: 0; stroke: #b0b0b0; stroke-width: 0.8"/>
     </g>
     <g id="line2d_6">
      <g>
       <use xlink:href="#mef10fcacf8" x="172.392296" y="252" style="stroke: #000000; stroke-width: 0.8"/>
      </g>
     </g>
     <g id="text_3">
      <!-- 1000 -->
      <g transform="translate(159.667296 266.598437)scale(0.1 -0.1)">
       <defs>
        <path id="DejaVuSans-31" d="M 794 531 
L 1825 531 
L 1825 4091 
L 703 3866 
L 703 4441 
L 1819 4666 
L 2450 4666 
L 2450 531 
L 3481 531 
L 3481 0 
L 794 0 
L 794 531 
z
" transform="scale(0.015625)"/>
       </defs>
       <use xlink:href="#DejaVuSans-31"/>
       <use xlink:href="#DejaVuSans-30" x="63.623047"/>
       <use xlink:href="#DejaVuSans-30" x="127.246094"/>
       <use xlink:href="#DejaVuSans-30" x="190.869141"/>
      </g>
     </g>
    </g>
    <g id="xtick_4">
     <g id="line2d_7">
      <path d="M 223.979353 252 
L 223.979353 34.56 
" clip-path="url(#pc2457ceb17)" style="fill: none; stroke-dasharray: 2.96,1.28; stroke-dashoffset: 0; stroke: #b0b0b0; stroke-width: 0.8"/>
     </g>
     <g id="line2d_8">
      <g>
       <use xlink:href="#mef10fcacf8" x="223.979353" y="252" style="stroke: #000000; stroke-width: 0.8"/>
      </g>
     </g>
     <g id="text_4">
      <!-- 1500 -->
      <g transform="translate(211.254353 266.598437)scale(0.1 -0.1)">
       <use xlink:href="#DejaVuSans-31"/>
       <use xlink:href="#DejaVuSans-35" x="63.623047"/>
       <use xlink:href="#DejaVuSans-30" x="127.246094"/>
       <use xlink:href="#DejaVuSans-30" x="190.869141"/>
      </g>
     </g>
    </g>
    <g id="xtick_5">
     <g id="line2d_9">
      <path d="M 275.56641 252 
L 275.56641 34.56 
" clip-path="url(#pc2457ceb17)" style="fill: none; stroke-dasharray: 2.96,1.28; stroke-dashoffset: 0; stroke: #b0b0b0; stroke-width: 0.8"/>
     </g>
     <g id="line2d_10">
      <g>
       <use xlink:href="#mef10fcacf8" x="275.56641" y="252" style="stroke: #000000; stroke-width: 0.8"/>
      </g>
     </g>
     <g id="text_5">
      <!-- 2000 -->
      <g transform="translate(262.84141 266.598437)scale(0.1 -0.1)">
       <defs>
        <path id="DejaVuSans-32" d="M 1228 531 
L 3431 531 
L 3431 0 
L 469 0 
L 469 531 
Q 828 903 1448 1529 
Q 2069 2156 2228 2338 
Q 2531 2678 2651 2914 
Q 2772 3150 2772 3378 
Q 2772 3750 2511 3984 
Q 2250 4219 1831 4219 
Q 1534 4219 1204 4116 
Q 875 4013 500 3803 
L 500 4441 
Q 881 4594 1212 4672 
Q 1544 4750 1819 4750 
Q 2544 4750 2975 4387 
Q 3406 4025 3406 3419 
Q 3406 3131 3298 2873 
Q 3191 2616 2906 2266 
Q 2828 2175 2409 1742 
Q 1991 1309 1228 531 
z
" transform="scale(0.015625)"/>
       </defs>
       <use xlink:href="#DejaVuSans-32"/>
       <use xlink:href="#DejaVuSans-30" x="63.623047"/>
       <use xlink:href="#DejaVuSans-30" x="127.246094"/>
       <use xlink:href="#DejaVuSans-30" x="190.869141"/>
      </g>
     </g>
    </g>
    <g id="xtick_6">
     <g id="line2d_11">
      <path d="M 327.153467 252 
L 327.153467 34.56 
" clip-path="url(#pc2457ceb17)" style="fill: none; stroke-dasharray: 2.96,1.28; stroke-dashoffset: 0; stroke: #b0b0b0; stroke-width: 0.8"/>
     </g>
     <g id="line2d_12">
      <g>
       <use xlink:href="#mef10fcacf8" x="327.153467" y="252" style="stroke: #000000; stroke-width: 0.8"/>
      </g>
     </g>
     <g id="text_6">
      <!-- 2500 -->
      <g transform="translate(314.428467 266.598437)scale(0.1 -0.1)">
       <use xlink:href="#DejaVuSans-32"/>
       <use xlink:href="#DejaVuSans-35" x="63.623047"/>
       <use xlink:href="#DejaVuSans-30" x="127.246094"/>
       <use xlink:href="#DejaVuSans-30" x="190.869141"/>
      </g>
     </g>
    </g>
    <g id="xtick_7">
     <g id="line2d_13">
      <path d="M 378.740524 252 
L 378.740524 34.56 
" clip-path="url(#pc2457ceb17)" style="fill: none; stroke-dasharray: 2.96,1.28; stroke-dashoffset: 0; stroke: #b0b0b0; stroke-width: 0.8"/>
     </g>
     <g id="line2d_14">
      <g>
       <use xlink:href="#mef10fcacf8" x="378.740524" y="252" style="stroke: #000000; stroke-width: 0.8"/>
      </g>
     </g>
     <g id="text_7">
      <!-- 3000 -->
      <g transform="translate(366.015524 266.598437)scale(0.1 -0.1)">
       <defs>
        <path id="DejaVuSans-33" d="M 2597 2516 
Q 3050 2419 3304 2112 
Q 3559 1806 3559 1356 
Q 3559 666 3084 287 
Q 2609 -91 1734 -91 
Q 1441 -91 1130 -33 
Q 819 25 488 141 
L 488 750 
Q 750 597 1062 519 
Q 1375 441 1716 441 
Q 2309 441 2620 675 
Q 2931 909 2931 1356 
Q 2931 1769 2642 2001 
Q 2353 2234 1838 2234 
L 1294 2234 
L 1294 2753 
L 1863 2753 
Q 2328 2753 2575 2939 
Q 2822 3125 2822 3475 
Q 2822 3834 2567 4026 
Q 2313 4219 1838 4219 
Q 1578 4219 1281 4162 
Q 984 4106 628 3988 
L 628 4550 
Q 988 4650 1302 4700 
Q 1616 4750 1894 4750 
Q 2613 4750 3031 4423 
Q 3450 4097 3450 3541 
Q 3450 3153 3228 2886 
Q 3006 2619 2597 2516 
z
" transform="scale(0.015625)"/>
       </defs>
       <use xlink:href="#DejaVuSans-33"/>
       <use xlink:href="#DejaVuSans-30" x="63.623047"/>
       <use xlink:href="#DejaVuSans-30" x="127.246094"/>
       <use xlink:href="#DejaVuSans-30" x="190.869141"/>
      </g>
     </g>
    </g>
    <g id="text_8">
     <!-- Steps -->
     <g transform="translate(207.410156 280.276563)scale(0.1 -0.1)">
      <defs>
       <path id="DejaVuSans-53" d="M 3425 4513 
L 3425 3897 
Q 3066 4069 2747 4153 
Q 2428 4238 2131 4238 
Q 1616 4238 1336 4038 
Q 1056 3838 1056 3469 
Q 1056 3159 1242 3001 
Q 1428 2844 1947 2747 
L 2328 2669 
Q 3034 2534 3370 2195 
Q 3706 1856 3706 1288 
Q 3706 609 3251 259 
Q 2797 -91 1919 -91 
Q 1588 -91 1214 -16 
Q 841 59 441 206 
L 441 856 
Q 825 641 1194 531 
Q 1563 422 1919 422 
Q 2459 422 2753 634 
Q 3047 847 3047 1241 
Q 3047 1584 2836 1778 
Q 2625 1972 2144 2069 
L 1759 2144 
Q 1053 2284 737 2584 
Q 422 2884 422 3419 
Q 422 4038 858 4394 
Q 1294 4750 2059 4750 
Q 2388 4750 2728 4690 
Q 3069 4631 3425 4513 
z
" transform="scale(0.015625)"/>
       <path id="DejaVuSans-74" d="M 1172 4494 
L 1172 3500 
L 2356 3500 
L 2356 3053 
L 1172 3053 
L 1172 1153 
Q 1172 725 1289 603 
Q 1406 481 1766 481 
L 2356 481 
L 2356 0 
L 1766 0 
Q 1100 0 847 248 
Q 594 497 594 1153 
L 594 3053 
L 172 3053 
L 172 3500 
L 594 3500 
L 594 4494 
L 1172 4494 
z
" transform="scale(0.015625)"/>
       <path id="DejaVuSans-65" d="M 3597 1894 
L 3597 1613 
L 953 1613 
Q 991 1019 1311 708 
Q 1631 397 2203 397 
Q 2534 397 2845 478 
Q 3156 559 3463 722 
L 3463 178 
Q 3153 47 2828 -22 
Q 2503 -91 2169 -91 
Q 1331 -91 842 396 
Q 353 884 353 1716 
Q 353 2575 817 3079 
Q 1281 3584 2069 3584 
Q 2775 3584 3186 3129 
Q 3597 2675 3597 1894 
z
M 3022 2063 
Q 3016 2534 2758 2815 
Q 2500 3097 2075 3097 
Q 1594 3097 1305 2825 
Q 1016 2553 972 2059 
L 3022 2063 
z
" transform="scale(0.015625)"/>
       <path id="DejaVuSans-70" d="M 1159 525 
L 1159 -1331 
L 581 -1331 
L 581 3500 
L 1159 3500 
L 1159 2969 
Q 1341 3281 1617 3432 
Q 1894 3584 2278 3584 
Q 2916 3584 3314 3078 
Q 3713 2572 3713 1747 
Q 3713 922 3314 415 
Q 2916 -91 2278 -91 
Q 1894 -91 1617 61 
Q 1341 213 1159 525 
z
M 3116 1747 
Q 3116 2381 2855 2742 
Q 2594 3103 2138 3103 
Q 1681 3103 1420 2742 
Q 1159 2381 1159 1747 
Q 1159 1113 1420 752 
Q 1681 391 2138 391 
Q 2594 391 2855 752 
Q 3116 1113 3116 1747 
z
" transform="scale(0.015625)"/>
       <path id="DejaVuSans-73" d="M 2834 3397 
L 2834 2853 
Q 2591 2978 2328 3040 
Q 2066 3103 1784 3103 
Q 1356 3103 1142 2972 
Q 928 2841 928 2578 
Q 928 2378 1081 2264 
Q 1234 2150 1697 2047 
L 1894 2003 
Q 2506 1872 2764 1633 
Q 3022 1394 3022 966 
Q 3022 478 2636 193 
Q 2250 -91 1575 -91 
Q 1294 -91 989 -36 
Q 684 19 347 128 
L 347 722 
Q 666 556 975 473 
Q 1284 391 1588 391 
Q 1994 391 2212 530 
Q 2431 669 2431 922 
Q 2431 1156 2273 1281 
Q 2116 1406 1581 1522 
L 1381 1569 
Q 847 1681 609 1914 
Q 372 2147 372 2553 
Q 372 3047 722 3315 
Q 1072 3584 1716 3584 
Q 2034 3584 2315 3537 
Q 2597 3491 2834 3397 
z
" transform="scale(0.015625)"/>
      </defs>
      <use xlink:href="#DejaVuSans-53"/>
      <use xlink:href="#DejaVuSans-74" x="63.476562"/>
      <use xlink:href="#DejaVuSans-65" x="102.685547"/>
      <use xlink:href="#DejaVuSans-70" x="164.208984"/>
      <use xlink:href="#DejaVuSans-73" x="227.685547"/>
     </g>
    </g>
   </g>
   <g id="matplotlib.axis_2">
    <g id="ytick_1">
     <g id="line2d_15">
      <path d="M 54 243.636923 
L 388.8 243.636923 
" clip-path="url(#pc2457ceb17)" style="fill: none; stroke-dasharray: 2.96,1.28; stroke-dashoffset: 0; stroke: #b0b0b0; stroke-width: 0.8"/>
     </g>
     <g id="line2d_16">
      <defs>
       <path id="mbba5db4e15" d="M 0 0 
L -3.5 0 
" style="stroke: #000000; stroke-width: 0.8"/>
      </defs>
      <g>
       <use xlink:href="#mbba5db4e15" x="54" y="243.636923" style="stroke: #000000; stroke-width: 0.8"/>
      </g>
     </g>
     <g id="text_9">
      <!-- −12 -->
      <g transform="translate(25.895312 247.436142)scale(0.1 -0.1)">
       <defs>
        <path id="DejaVuSans-2212" d="M 678 2272 
L 4684 2272 
L 4684 1741 
L 678 1741 
L 678 2272 
z
" transform="scale(0.015625)"/>
       </defs>
       <use xlink:href="#DejaVuSans-2212"/>
       <use xlink:href="#DejaVuSans-31" x="83.789062"/>
       <use xlink:href="#DejaVuSans-32" x="147.412109"/>
      </g>
     </g>
    </g>
    <g id="ytick_2">
     <g id="line2d_17">
      <path d="M 54 210.184615 
L 388.8 210.184615 
" clip-path="url(#pc2457ceb17)" style="fill: none; stroke-dasharray: 2.96,1.28; stroke-dashoffset: 0; stroke: #b0b0b0; stroke-width: 0.8"/>
     </g>
     <g id="line2d_18">
      <g>
       <use xlink:href="#mbba5db4e15" x="54" y="210.184615" style="stroke: #000000; stroke-width: 0.8"/>
      </g>
     </g>
     <g id="text_10">
      <!-- −10 -->
      <g transform="translate(25.895312 213.983834)scale(0.1 -0.1)">
       <use xlink:href="#DejaVuSans-2212"/>
       <use xlink:href="#DejaVuSans-31" x="83.789062"/>
       <use xlink:href="#DejaVuSans-30" x="147.412109"/>
      </g>
     </g>
    </g>
    <g id="ytick_3">
     <g id="line2d_19">
      <path d="M 54 176.732308 
L 388.8 176.732308 
" clip-path="url(#pc2457ceb17)" style="fill: none; stroke-dasharray: 2.96,1.28; stroke-dashoffset: 0; stroke: #b0b0b0; stroke-width: 0.8"/>
     </g>
     <g id="line2d_20">
      <g>
       <use xlink:href="#mbba5db4e15" x="54" y="176.732308" style="stroke: #000000; stroke-width: 0.8"/>
      </g>
     </g>
     <g id="text_11">
      <!-- −8 -->
      <g transform="translate(32.257812 180.531526)scale(0.1 -0.1)">
       <defs>
        <path id="DejaVuSans-38" d="M 2034 2216 
Q 1584 2216 1326 1975 
Q 1069 1734 1069 1313 
Q 1069 891 1326 650 
Q 1584 409 2034 409 
Q 2484 409 2743 651 
Q 3003 894 3003 1313 
Q 3003 1734 2745 1975 
Q 2488 2216 2034 2216 
z
M 1403 2484 
Q 997 2584 770 2862 
Q 544 3141 544 3541 
Q 544 4100 942 4425 
Q 1341 4750 2034 4750 
Q 2731 4750 3128 4425 
Q 3525 4100 3525 3541 
Q 3525 3141 3298 2862 
Q 3072 2584 2669 2484 
Q 3125 2378 3379 2068 
Q 3634 1759 3634 1313 
Q 3634 634 3220 271 
Q 2806 -91 2034 -91 
Q 1263 -91 848 271 
Q 434 634 434 1313 
Q 434 1759 690 2068 
Q 947 2378 1403 2484 
z
M 1172 3481 
Q 1172 3119 1398 2916 
Q 1625 2713 2034 2713 
Q 2441 2713 2670 2916 
Q 2900 3119 2900 3481 
Q 2900 3844 2670 4047 
Q 2441 4250 2034 4250 
Q 1625 4250 1398 4047 
Q 1172 3844 1172 3481 
z
" transform="scale(0.015625)"/>
       </defs>
       <use xlink:href="#DejaVuSans-2212"/>
       <use xlink:href="#DejaVuSans-38" x="83.789062"/>
      </g>
     </g>
    </g>
    <g id="ytick_4">
     <g id="line2d_21">
      <path d="M 54 143.28 
L 388.8 143.28 
" clip-path="url(#pc2457ceb17)" style="fill: none; stroke-dasharray: 2.96,1.28; stroke-dashoffset: 0; stroke: #b0b0b0; stroke-width: 0.8"/>
     </g>
     <g id="line2d_22">
      <g>
       <use xlink:href="#mbba5db4e15" x="54" y="143.28" style="stroke: #000000; stroke-width: 0.8"/>
      </g>
     </g>
     <g id="text_12">
      <!-- −6 -->
      <g transform="translate(32.257812 147.079219)scale(0.1 -0.1)">
       <defs>
        <path id="DejaVuSans-36" d="M 2113 2584 
Q 1688 2584 1439 2293 
Q 1191 2003 1191 1497 
Q 1191 994 1439 701 
Q 1688 409 2113 409 
Q 2538 409 2786 701 
Q 3034 994 3034 1497 
Q 3034 2003 2786 2293 
Q 2538 2584 2113 2584 
z
M 3366 4563 
L 3366 3988 
Q 3128 4100 2886 4159 
Q 2644 4219 2406 4219 
Q 1781 4219 1451 3797 
Q 1122 3375 1075 2522 
Q 1259 2794 1537 2939 
Q 1816 3084 2150 3084 
Q 2853 3084 3261 2657 
Q 3669 2231 3669 1497 
Q 3669 778 3244 343 
Q 2819 -91 2113 -91 
Q 1303 -91 875 529 
Q 447 1150 447 2328 
Q 447 3434 972 4092 
Q 1497 4750 2381 4750 
Q 2619 4750 2861 4703 
Q 3103 4656 3366 4563 
z
" transform="scale(0.015625)"/>
       </defs>
       <use xlink:href="#DejaVuSans-2212"/>
       <use xlink:href="#DejaVuSans-36" x="83.789062"/>
      </g>
     </g>
    </g>
    <g id="ytick_5">
     <g id="line2d_23">
      <path d="M 54 109.827692 
L 388.8 109.827692 
" clip-path="url(#pc2457ceb17)" style="fill: none; stroke-dasharray: 2.96,1.28; stroke-dashoffset: 0; stroke: #b0b0b0; stroke-width: 0.8"/>
     </g>
     <g id="line2d_24">
      <g>
       <use xlink:href="#mbba5db4e15" x="54" y="109.827692" style="stroke: #000000; stroke-width: 0.8"/>
      </g>
     </g>
     <g id="text_13">
      <!-- −4 -->
      <g transform="translate(32.257812 113.626911)scale(0.1 -0.1)">
       <defs>
        <path id="DejaVuSans-34" d="M 2419 4116 
L 825 1625 
L 2419 1625 
L 2419 4116 
z
M 2253 4666 
L 3047 4666 
L 3047 1625 
L 3713 1625 
L 3713 1100 
L 3047 1100 
L 3047 0 
L 2419 0 
L 2419 1100 
L 313 1100 
L 313 1709 
L 2253 4666 
z
" transform="scale(0.015625)"/>
       </defs>
       <use xlink:href="#DejaVuSans-2212"/>
       <use xlink:href="#DejaVuSans-34" x="83.789062"/>
      </g>
     </g>
    </g>
    <g id="ytick_6">
     <g id="line2d_25">
      <path d="M 54 76.375385 
L 388.8 76.375385 
" clip-path="url(#pc2457ceb17)" style="fill: none; stroke-dasharray: 2.96,1.28; stroke-dashoffset: 0; stroke: #b0b0b0; stroke-width: 0.8"/>
     </g>
     <g id="line2d_26">
      <g>
       <use xlink:href="#mbba5db4e15" x="54" y="76.375385" style="stroke: #000000; stroke-width: 0.8"/>
      </g>
     </g>
     <g id="text_14">
      <!-- −2 -->
      <g transform="translate(32.257812 80.174603)scale(0.1 -0.1)">
       <use xlink:href="#DejaVuSans-2212"/>
       <use xlink:href="#DejaVuSans-32" x="83.789062"/>
      </g>
     </g>
    </g>
    <g id="ytick_7">
     <g id="line2d_27">
      <path d="M 54 42.923077 
L 388.8 42.923077 
" clip-path="url(#pc2457ceb17)" style="fill: none; stroke-dasharray: 2.96,1.28; stroke-dashoffset: 0; stroke: #b0b0b0; stroke-width: 0.8"/>
     </g>
     <g id="line2d_28">
      <g>
       <use xlink:href="#mbba5db4e15" x="54" y="42.923077" style="stroke: #000000; stroke-width: 0.8"/>
      </g>
     </g>
     <g id="text_15">
      <!-- 0 -->
      <g transform="translate(40.6375 46.722296)scale(0.1 -0.1)">
       <use xlink:href="#DejaVuSans-30"/>
      </g>
     </g>
    </g>
    <g id="text_16">
     <!-- Policy value error -->
     <g transform="translate(19.815625 186.597969)rotate(-90)scale(0.1 -0.1)">
      <defs>
       <path id="DejaVuSans-50" d="M 1259 4147 
L 1259 2394 
L 2053 2394 
Q 2494 2394 2734 2622 
Q 2975 2850 2975 3272 
Q 2975 3691 2734 3919 
Q 2494 4147 2053 4147 
L 1259 4147 
z
M 628 4666 
L 2053 4666 
Q 2838 4666 3239 4311 
Q 3641 3956 3641 3272 
Q 3641 2581 3239 2228 
Q 2838 1875 2053 1875 
L 1259 1875 
L 1259 0 
L 628 0 
L 628 4666 
z
" transform="scale(0.015625)"/>
       <path id="DejaVuSans-6f" d="M 1959 3097 
Q 1497 3097 1228 2736 
Q 959 2375 959 1747 
Q 959 1119 1226 758 
Q 1494 397 1959 397 
Q 2419 397 2687 759 
Q 2956 1122 2956 1747 
Q 2956 2369 2687 2733 
Q 2419 3097 1959 3097 
z
M 1959 3584 
Q 2709 3584 3137 3096 
Q 3566 2609 3566 1747 
Q 3566 888 3137 398 
Q 2709 -91 1959 -91 
Q 1206 -91 779 398 
Q 353 888 353 1747 
Q 353 2609 779 3096 
Q 1206 3584 1959 3584 
z
" transform="scale(0.015625)"/>
       <path id="DejaVuSans-6c" d="M 603 4863 
L 1178 4863 
L 1178 0 
L 603 0 
L 603 4863 
z
" transform="scale(0.015625)"/>
       <path id="DejaVuSans-69" d="M 603 3500 
L 1178 3500 
L 1178 0 
L 603 0 
L 603 3500 
z
M 603 4863 
L 1178 4863 
L 1178 4134 
L 603 4134 
L 603 4863 
z
" transform="scale(0.015625)"/>
       <path id="DejaVuSans-63" d="M 3122 3366 
L 3122 2828 
Q 2878 2963 2633 3030 
Q 2388 3097 2138 3097 
Q 1578 3097 1268 2742 
Q 959 2388 959 1747 
Q 959 1106 1268 751 
Q 1578 397 2138 397 
Q 2388 397 2633 464 
Q 2878 531 3122 666 
L 3122 134 
Q 2881 22 2623 -34 
Q 2366 -91 2075 -91 
Q 1284 -91 818 406 
Q 353 903 353 1747 
Q 353 2603 823 3093 
Q 1294 3584 2113 3584 
Q 2378 3584 2631 3529 
Q 2884 3475 3122 3366 
z
" transform="scale(0.015625)"/>
       <path id="DejaVuSans-79" d="M 2059 -325 
Q 1816 -950 1584 -1140 
Q 1353 -1331 966 -1331 
L 506 -1331 
L 506 -850 
L 844 -850 
Q 1081 -850 1212 -737 
Q 1344 -625 1503 -206 
L 1606 56 
L 191 3500 
L 800 3500 
L 1894 763 
L 2988 3500 
L 3597 3500 
L 2059 -325 
z
" transform="scale(0.015625)"/>
       <path id="DejaVuSans-20" transform="scale(0.015625)"/>
       <path id="DejaVuSans-76" d="M 191 3500 
L 800 3500 
L 1894 563 
L 2988 3500 
L 3597 3500 
L 2284 0 
L 1503 0 
L 191 3500 
z
" transform="scale(0.015625)"/>
       <path id="DejaVuSans-61" d="M 2194 1759 
Q 1497 1759 1228 1600 
Q 959 1441 959 1056 
Q 959 750 1161 570 
Q 1363 391 1709 391 
Q 2188 391 2477 730 
Q 2766 1069 2766 1631 
L 2766 1759 
L 2194 1759 
z
M 3341 1997 
L 3341 0 
L 2766 0 
L 2766 531 
Q 2569 213 2275 61 
Q 1981 -91 1556 -91 
Q 1019 -91 701 211 
Q 384 513 384 1019 
Q 384 1609 779 1909 
Q 1175 2209 1959 2209 
L 2766 2209 
L 2766 2266 
Q 2766 2663 2505 2880 
Q 2244 3097 1772 3097 
Q 1472 3097 1187 3025 
Q 903 2953 641 2809 
L 641 3341 
Q 956 3463 1253 3523 
Q 1550 3584 1831 3584 
Q 2591 3584 2966 3190 
Q 3341 2797 3341 1997 
z
" transform="scale(0.015625)"/>
       <path id="DejaVuSans-75" d="M 544 1381 
L 544 3500 
L 1119 3500 
L 1119 1403 
Q 1119 906 1312 657 
Q 1506 409 1894 409 
Q 2359 409 2629 706 
Q 2900 1003 2900 1516 
L 2900 3500 
L 3475 3500 
L 3475 0 
L 2900 0 
L 2900 538 
Q 2691 219 2414 64 
Q 2138 -91 1772 -91 
Q 1169 -91 856 284 
Q 544 659 544 1381 
z
M 1991 3584 
L 1991 3584 
z
" transform="scale(0.015625)"/>
       <path id="DejaVuSans-72" d="M 2631 2963 
Q 2534 3019 2420 3045 
Q 2306 3072 2169 3072 
Q 1681 3072 1420 2755 
Q 1159 2438 1159 1844 
L 1159 0 
L 581 0 
L 581 3500 
L 1159 3500 
L 1159 2956 
Q 1341 3275 1631 3429 
Q 1922 3584 2338 3584 
Q 2397 3584 2469 3576 
Q 2541 3569 2628 3553 
L 2631 2963 
z
" transform="scale(0.015625)"/>
      </defs>
      <use xlink:href="#DejaVuSans-50"/>
      <use xlink:href="#DejaVuSans-6f" x="56.677734"/>
      <use xlink:href="#DejaVuSans-6c" x="117.859375"/>
      <use xlink:href="#DejaVuSans-69" x="145.642578"/>
      <use xlink:href="#DejaVuSans-63" x="173.425781"/>
      <use xlink:href="#DejaVuSans-79" x="228.40625"/>
      <use xlink:href="#DejaVuSans-20" x="287.585938"/>
      <use xlink:href="#DejaVuSans-76" x="319.373047"/>
      <use xlink:href="#DejaVuSans-61" x="378.552734"/>
      <use xlink:href="#DejaVuSans-6c" x="439.832031"/>
      <use xlink:href="#DejaVuSans-75" x="467.615234"/>
      <use xlink:href="#DejaVuSans-65" x="530.994141"/>
      <use xlink:href="#DejaVuSans-20" x="592.517578"/>
      <use xlink:href="#DejaVuSans-65" x="624.304688"/>
      <use xlink:href="#DejaVuSans-72" x="685.828125"/>
      <use xlink:href="#DejaVuSans-72" x="725.191406"/>
      <use xlink:href="#DejaVuSans-6f" x="764.054688"/>
      <use xlink:href="#DejaVuSans-72" x="825.236328"/>
     </g>
    </g>
   </g>
   <g id="line2d_29">
    <path d="M 69.218182 253.987167 
L 74.376888 257.812836 
L 79.535593 252.636536 
L 84.694299 213.584211 
L 89.853005 255.42821 
L 95.01171 254.509882 
L 100.170416 253.062373 
L 105.329122 261.714622 
L 110.487827 255.216426 
L 115.646533 237.737986 
L 120.805239 245.703012 
L 125.963945 254.435573 
L 131.12265 252.908818 
L 136.281356 255.643947 
L 141.440062 232.280596 
L 146.598767 235.335056 
L 151.757473 234.471543 
L 156.916179 145.064588 
L 162.074884 188.439992 
L 167.23359 112.791946 
L 172.392296 181.641754 
L 177.551002 91.30658 
L 182.709707 103.696769 
L 187.868413 136.077046 
L 193.027119 62.966674 
L 198.185824 109.79761 
L 203.34453 257.575772 
L 208.503236 58.49866 
L 213.661941 102.40984 
L 218.820647 75.728541 
L 223.979353 56.514217 
L 229.138059 251.269132 
L 234.296764 195.107122 
L 239.45547 117.879461 
L 244.614176 52.713922 
L 249.772881 51.439462 
L 254.931587 56.763175 
L 260.090293 51.439462 
L 265.248998 56.763175 
L 270.407704 59.219089 
L 275.56641 56.763175 
L 280.725116 66.617555 
L 285.883821 74.6624 
L 291.042527 51.843633 
L 296.201233 51.467126 
L 301.359938 51.85394 
L 306.518644 56.763175 
L 311.67735 62.077815 
L 316.836055 52.068545 
L 321.994761 54.922966 
L 327.153467 51.871824 
L 332.312173 54.696561 
L 337.470878 54.696561 
L 342.629584 52.068545 
L 347.78829 54.696561 
L 352.946995 51.860965 
L 358.105701 57.490404 
L 363.264407 56.763175 
L 368.423112 56.763175 
L 373.581818 51.513933 
" clip-path="url(#pc2457ceb17)" style="fill: none; stroke: #9d02d7; stroke-width: 1.5; stroke-linecap: square"/>
    <defs>
     <path id="mf7161fe675" d="M 0 -2 
L -2 2 
L 2 2 
z
" style="stroke: #9d02d7; stroke-linejoin: miter"/>
    </defs>
    <g clip-path="url(#pc2457ceb17)">
     <use xlink:href="#mf7161fe675" x="69.218182" y="253.987167" style="fill: #9d02d7; stroke: #9d02d7; stroke-linejoin: miter"/>
     <use xlink:href="#mf7161fe675" x="74.376888" y="257.812836" style="fill: #9d02d7; stroke: #9d02d7; stroke-linejoin: miter"/>
     <use xlink:href="#mf7161fe675" x="79.535593" y="252.636536" style="fill: #9d02d7; stroke: #9d02d7; stroke-linejoin: miter"/>
     <use xlink:href="#mf7161fe675" x="84.694299" y="213.584211" style="fill: #9d02d7; stroke: #9d02d7; stroke-linejoin: miter"/>
     <use xlink:href="#mf7161fe675" x="89.853005" y="255.42821" style="fill: #9d02d7; stroke: #9d02d7; stroke-linejoin: miter"/>
     <use xlink:href="#mf7161fe675" x="95.01171" y="254.509882" style="fill: #9d02d7; stroke: #9d02d7; stroke-linejoin: miter"/>
     <use xlink:href="#mf7161fe675" x="100.170416" y="253.062373" style="fill: #9d02d7; stroke: #9d02d7; stroke-linejoin: miter"/>
     <use xlink:href="#mf7161fe675" x="105.329122" y="261.714622" style="fill: #9d02d7; stroke: #9d02d7; stroke-linejoin: miter"/>
     <use xlink:href="#mf7161fe675" x="110.487827" y="255.216426" style="fill: #9d02d7; stroke: #9d02d7; stroke-linejoin: miter"/>
     <use xlink:href="#mf7161fe675" x="115.646533" y="237.737986" style="fill: #9d02d7; stroke: #9d02d7; stroke-linejoin: miter"/>
     <use xlink:href="#mf7161fe675" x="120.805239" y="245.703012" style="fill: #9d02d7; stroke: #9d02d7; stroke-linejoin: miter"/>
     <use xlink:href="#mf7161fe675" x="125.963945" y="254.435573" style="fill: #9d02d7; stroke: #9d02d7; stroke-linejoin: miter"/>
     <use xlink:href="#mf7161fe675" x="131.12265" y="252.908818" style="fill: #9d02d7; stroke: #9d02d7; stroke-linejoin: miter"/>
     <use xlink:href="#mf7161fe675" x="136.281356" y="255.643947" style="fill: #9d02d7; stroke: #9d02d7; stroke-linejoin: miter"/>
     <use xlink:href="#mf7161fe675" x="141.440062" y="232.280596" style="fill: #9d02d7; stroke: #9d02d7; stroke-linejoin: miter"/>
     <use xlink:href="#mf7161fe675" x="146.598767" y="235.335056" style="fill: #9d02d7; stroke: #9d02d7; stroke-linejoin: miter"/>
     <use xlink:href="#mf7161fe675" x="151.757473" y="234.471543" style="fill: #9d02d7; stroke: #9d02d7; stroke-linejoin: miter"/>
     <use xlink:href="#mf7161fe675" x="156.916179" y="145.064588" style="fill: #9d02d7; stroke: #9d02d7; stroke-linejoin: miter"/>
     <use xlink:href="#mf7161fe675" x="162.074884" y="188.439992" style="fill: #9d02d7; stroke: #9d02d7; stroke-linejoin: miter"/>
     <use xlink:href="#mf7161fe675" x="167.23359" y="112.791946" style="fill: #9d02d7; stroke: #9d02d7; stroke-linejoin: miter"/>
     <use xlink:href="#mf7161fe675" x="172.392296" y="181.641754" style="fill: #9d02d7; stroke: #9d02d7; stroke-linejoin: miter"/>
     <use xlink:href="#mf7161fe675" x="177.551002" y="91.30658" style="fill: #9d02d7; stroke: #9d02d7; stroke-linejoin: miter"/>
     <use xlink:href="#mf7161fe675" x="182.709707" y="103.696769" style="fill: #9d02d7; stroke: #9d02d7; stroke-linejoin: miter"/>
     <use xlink:href="#mf7161fe675" x="187.868413" y="136.077046" style="fill: #9d02d7; stroke: #9d02d7; stroke-linejoin: miter"/>
     <use xlink:href="#mf7161fe675" x="193.027119" y="62.966674" style="fill: #9d02d7; stroke: #9d02d7; stroke-linejoin: miter"/>
     <use xlink:href="#mf7161fe675" x="198.185824" y="109.79761" style="fill: #9d02d7; stroke: #9d02d7; stroke-linejoin: miter"/>
     <use xlink:href="#mf7161fe675" x="203.34453" y="257.575772" style="fill: #9d02d7; stroke: #9d02d7; stroke-linejoin: miter"/>
     <use xlink:href="#mf7161fe675" x="208.503236" y="58.49866" style="fill: #9d02d7; stroke: #9d02d7; stroke-linejoin: miter"/>
     <use xlink:href="#mf7161fe675" x="213.661941" y="102.40984" style="fill: #9d02d7; stroke: #9d02d7; stroke-linejoin: miter"/>
     <use xlink:href="#mf7161fe675" x="218.820647" y="75.728541" style="fill: #9d02d7; stroke: #9d02d7; stroke-linejoin: miter"/>
     <use xlink:href="#mf7161fe675" x="223.979353" y="56.514217" style="fill: #9d02d7; stroke: #9d02d7; stroke-linejoin: miter"/>
     <use xlink:href="#mf7161fe675" x="229.138059" y="251.269132" style="fill: #9d02d7; stroke: #9d02d7; stroke-linejoin: miter"/>
     <use xlink:href="#mf7161fe675" x="234.296764" y="195.107122" style="fill: #9d02d7; stroke: #9d02d7; stroke-linejoin: miter"/>
     <use xlink:href="#mf7161fe675" x="239.45547" y="117.879461" style="fill: #9d02d7; stroke: #9d02d7; stroke-linejoin: miter"/>
     <use xlink:href="#mf7161fe675" x="244.614176" y="52.713922" style="fill: #9d02d7; stroke: #9d02d7; stroke-linejoin: miter"/>
     <use xlink:href="#mf7161fe675" x="249.772881" y="51.439462" style="fill: #9d02d7; stroke: #9d02d7; stroke-linejoin: miter"/>
     <use xlink:href="#mf7161fe675" x="254.931587" y="56.763175" style="fill: #9d02d7; stroke: #9d02d7; stroke-linejoin: miter"/>
     <use xlink:href="#mf7161fe675" x="260.090293" y="51.439462" style="fill: #9d02d7; stroke: #9d02d7; stroke-linejoin: miter"/>
     <use xlink:href="#mf7161fe675" x="265.248998" y="56.763175" style="fill: #9d02d7; stroke: #9d02d7; stroke-linejoin: miter"/>
     <use xlink:href="#mf7161fe675" x="270.407704" y="59.219089" style="fill: #9d02d7; stroke: #9d02d7; stroke-linejoin: miter"/>
     <use xlink:href="#mf7161fe675" x="275.56641" y="56.763175" style="fill: #9d02d7; stroke: #9d02d7; stroke-linejoin: miter"/>
     <use xlink:href="#mf7161fe675" x="280.725116" y="66.617555" style="fill: #9d02d7; stroke: #9d02d7; stroke-linejoin: miter"/>
     <use xlink:href="#mf7161fe675" x="285.883821" y="74.6624" style="fill: #9d02d7; stroke: #9d02d7; stroke-linejoin: miter"/>
     <use xlink:href="#mf7161fe675" x="291.042527" y="51.843633" style="fill: #9d02d7; stroke: #9d02d7; stroke-linejoin: miter"/>
     <use xlink:href="#mf7161fe675" x="296.201233" y="51.467126" style="fill: #9d02d7; stroke: #9d02d7; stroke-linejoin: miter"/>
     <use xlink:href="#mf7161fe675" x="301.359938" y="51.85394" style="fill: #9d02d7; stroke: #9d02d7; stroke-linejoin: miter"/>
     <use xlink:href="#mf7161fe675" x="306.518644" y="56.763175" style="fill: #9d02d7; stroke: #9d02d7; stroke-linejoin: miter"/>
     <use xlink:href="#mf7161fe675" x="311.67735" y="62.077815" style="fill: #9d02d7; stroke: #9d02d7; stroke-linejoin: miter"/>
     <use xlink:href="#mf7161fe675" x="316.836055" y="52.068545" style="fill: #9d02d7; stroke: #9d02d7; stroke-linejoin: miter"/>
     <use xlink:href="#mf7161fe675" x="321.994761" y="54.922966" style="fill: #9d02d7; stroke: #9d02d7; stroke-linejoin: miter"/>
     <use xlink:href="#mf7161fe675" x="327.153467" y="51.871824" style="fill: #9d02d7; stroke: #9d02d7; stroke-linejoin: miter"/>
     <use xlink:href="#mf7161fe675" x="332.312173" y="54.696561" style="fill: #9d02d7; stroke: #9d02d7; stroke-linejoin: miter"/>
     <use xlink:href="#mf7161fe675" x="337.470878" y="54.696561" style="fill: #9d02d7; stroke: #9d02d7; stroke-linejoin: miter"/>
     <use xlink:href="#mf7161fe675" x="342.629584" y="52.068545" style="fill: #9d02d7; stroke: #9d02d7; stroke-linejoin: miter"/>
     <use xlink:href="#mf7161fe675" x="347.78829" y="54.696561" style="fill: #9d02d7; stroke: #9d02d7; stroke-linejoin: miter"/>
     <use xlink:href="#mf7161fe675" x="352.946995" y="51.860965" style="fill: #9d02d7; stroke: #9d02d7; stroke-linejoin: miter"/>
     <use xlink:href="#mf7161fe675" x="358.105701" y="57.490404" style="fill: #9d02d7; stroke: #9d02d7; stroke-linejoin: miter"/>
     <use xlink:href="#mf7161fe675" x="363.264407" y="56.763175" style="fill: #9d02d7; stroke: #9d02d7; stroke-linejoin: miter"/>
     <use xlink:href="#mf7161fe675" x="368.423112" y="56.763175" style="fill: #9d02d7; stroke: #9d02d7; stroke-linejoin: miter"/>
     <use xlink:href="#mf7161fe675" x="373.581818" y="51.513933" style="fill: #9d02d7; stroke: #9d02d7; stroke-linejoin: miter"/>
    </g>
   </g>
   <g id="line2d_30">
    <path d="M 69.218182 270.863431 
L 74.376888 255.709845 
L 79.535593 268.080975 
L 84.694299 250.647625 
L 89.853005 255.337213 
L 95.01171 253.653295 
L 100.170416 255.470979 
L 105.329122 253.340942 
L 110.487827 257.317726 
L 115.646533 256.77308 
L 120.805239 226.009609 
L 125.963945 258.312054 
L 131.12265 253.678995 
L 136.281356 194.471013 
L 141.440062 253.319065 
L 146.598767 221.226519 
L 151.757473 242.585441 
L 156.916179 258.511109 
L 162.074884 253.69895 
L 167.23359 252.908818 
L 172.392296 105.154053 
L 177.551002 249.661872 
L 182.709707 77.749039 
L 187.868413 75.343719 
L 193.027119 87.486517 
L 198.185824 67.611649 
L 203.34453 84.939577 
L 208.503236 68.998475 
L 213.661941 44.751723 
L 218.820647 44.751886 
L 223.979353 194.587117 
L 229.138059 52.757534 
L 234.296764 131.525679 
L 239.45547 252.908818 
L 244.614176 212.086255 
L 249.772881 70.07189 
L 254.931587 48.711067 
L 260.090293 46.013319 
L 265.248998 55.421676 
L 270.407704 45.606357 
L 275.56641 87.926067 
L 280.725116 118.071257 
L 285.883821 60.399811 
L 291.042527 73.952063 
L 296.201233 51.868536 
L 301.359938 61.944823 
L 306.518644 148.724185 
L 311.67735 49.540125 
L 316.836055 54.116552 
L 321.994761 59.293319 
L 327.153467 54.878372 
L 332.312173 55.640607 
L 337.470878 92.60968 
L 342.629584 47.082009 
L 347.78829 47.082009 
L 352.946995 43.496861 
L 358.105701 46.407495 
L 363.264407 223.723811 
L 368.423112 58.027656 
L 373.581818 46.387084 
" clip-path="url(#pc2457ceb17)" style="fill: none; stroke: #0000ff; stroke-width: 1.5; stroke-linecap: square"/>
    <defs>
     <path id="m0918d46844" d="M 0 2 
C 0.530406 2 1.03916 1.789267 1.414214 1.414214 
C 1.789267 1.03916 2 0.530406 2 0 
C 2 -0.530406 1.789267 -1.03916 1.414214 -1.414214 
C 1.03916 -1.789267 0.530406 -2 0 -2 
C -0.530406 -2 -1.03916 -1.789267 -1.414214 -1.414214 
C -1.789267 -1.03916 -2 -0.530406 -2 0 
C -2 0.530406 -1.789267 1.03916 -1.414214 1.414214 
C -1.03916 1.789267 -0.530406 2 0 2 
z
" style="stroke: #0000ff"/>
    </defs>
    <g clip-path="url(#pc2457ceb17)">
     <use xlink:href="#m0918d46844" x="69.218182" y="270.863431" style="fill: #0000ff; stroke: #0000ff"/>
     <use xlink:href="#m0918d46844" x="74.376888" y="255.709845" style="fill: #0000ff; stroke: #0000ff"/>
     <use xlink:href="#m0918d46844" x="79.535593" y="268.080975" style="fill: #0000ff; stroke: #0000ff"/>
     <use xlink:href="#m0918d46844" x="84.694299" y="250.647625" style="fill: #0000ff; stroke: #0000ff"/>
     <use xlink:href="#m0918d46844" x="89.853005" y="255.337213" style="fill: #0000ff; stroke: #0000ff"/>
     <use xlink:href="#m0918d46844" x="95.01171" y="253.653295" style="fill: #0000ff; stroke: #0000ff"/>
     <use xlink:href="#m0918d46844" x="100.170416" y="255.470979" style="fill: #0000ff; stroke: #0000ff"/>
     <use xlink:href="#m0918d46844" x="105.329122" y="253.340942" style="fill: #0000ff; stroke: #0000ff"/>
     <use xlink:href="#m0918d46844" x="110.487827" y="257.317726" style="fill: #0000ff; stroke: #0000ff"/>
     <use xlink:href="#m0918d46844" x="115.646533" y="256.77308" style="fill: #0000ff; stroke: #0000ff"/>
     <use xlink:href="#m0918d46844" x="120.805239" y="226.009609" style="fill: #0000ff; stroke: #0000ff"/>
     <use xlink:href="#m0918d46844" x="125.963945" y="258.312054" style="fill: #0000ff; stroke: #0000ff"/>
     <use xlink:href="#m0918d46844" x="131.12265" y="253.678995" style="fill: #0000ff; stroke: #0000ff"/>
     <use xlink:href="#m0918d46844" x="136.281356" y="194.471013" style="fill: #0000ff; stroke: #0000ff"/>
     <use xlink:href="#m0918d46844" x="141.440062" y="253.319065" style="fill: #0000ff; stroke: #0000ff"/>
     <use xlink:href="#m0918d46844" x="146.598767" y="221.226519" style="fill: #0000ff; stroke: #0000ff"/>
     <use xlink:href="#m0918d46844" x="151.757473" y="242.585441" style="fill: #0000ff; stroke: #0000ff"/>
     <use xlink:href="#m0918d46844" x="156.916179" y="258.511109" style="fill: #0000ff; stroke: #0000ff"/>
     <use xlink:href="#m0918d46844" x="162.074884" y="253.69895" style="fill: #0000ff; stroke: #0000ff"/>
     <use xlink:href="#m0918d46844" x="167.23359" y="252.908818" style="fill: #0000ff; stroke: #0000ff"/>
     <use xlink:href="#m0918d46844" x="172.392296" y="105.154053" style="fill: #0000ff; stroke: #0000ff"/>
     <use xlink:href="#m0918d46844" x="177.551002" y="249.661872" style="fill: #0000ff; stroke: #0000ff"/>
     <use xlink:href="#m0918d46844" x="182.709707" y="77.749039" style="fill: #0000ff; stroke: #0000ff"/>
     <use xlink:href="#m0918d46844" x="187.868413" y="75.343719" style="fill: #0000ff; stroke: #0000ff"/>
     <use xlink:href="#m0918d46844" x="193.027119" y="87.486517" style="fill: #0000ff; stroke: #0000ff"/>
     <use xlink:href="#m0918d46844" x="198.185824" y="67.611649" style="fill: #0000ff; stroke: #0000ff"/>
     <use xlink:href="#m0918d46844" x="203.34453" y="84.939577" style="fill: #0000ff; stroke: #0000ff"/>
     <use xlink:href="#m0918d46844" x="208.503236" y="68.998475" style="fill: #0000ff; stroke: #0000ff"/>
     <use xlink:href="#m0918d46844" x="213.661941" y="44.751723" style="fill: #0000ff; stroke: #0000ff"/>
     <use xlink:href="#m0918d46844" x="218.820647" y="44.751886" style="fill: #0000ff; stroke: #0000ff"/>
     <use xlink:href="#m0918d46844" x="223.979353" y="194.587117" style="fill: #0000ff; stroke: #0000ff"/>
     <use xlink:href="#m0918d46844" x="229.138059" y="52.757534" style="fill: #0000ff; stroke: #0000ff"/>
     <use xlink:href="#m0918d46844" x="234.296764" y="131.525679" style="fill: #0000ff; stroke: #0000ff"/>
     <use xlink:href="#m0918d46844" x="239.45547" y="252.908818" style="fill: #0000ff; stroke: #0000ff"/>
     <use xlink:href="#m0918d46844" x="244.614176" y="212.086255" style="fill: #0000ff; stroke: #0000ff"/>
     <use xlink:href="#m0918d46844" x="249.772881" y="70.07189" style="fill: #0000ff; stroke: #0000ff"/>
     <use xlink:href="#m0918d46844" x="254.931587" y="48.711067" style="fill: #0000ff; stroke: #0000ff"/>
     <use xlink:href="#m0918d46844" x="260.090293" y="46.013319" style="fill: #0000ff; stroke: #0000ff"/>
     <use xlink:href="#m0918d46844" x="265.248998" y="55.421676" style="fill: #0000ff; stroke: #0000ff"/>
     <use xlink:href="#m0918d46844" x="270.407704" y="45.606357" style="fill: #0000ff; stroke: #0000ff"/>
     <use xlink:href="#m0918d46844" x="275.56641" y="87.926067" style="fill: #0000ff; stroke: #0000ff"/>
     <use xlink:href="#m0918d46844" x="280.725116" y="118.071257" style="fill: #0000ff; stroke: #0000ff"/>
     <use xlink:href="#m0918d46844" x="285.883821" y="60.399811" style="fill: #0000ff; stroke: #0000ff"/>
     <use xlink:href="#m0918d46844" x="291.042527" y="73.952063" style="fill: #0000ff; stroke: #0000ff"/>
     <use xlink:href="#m0918d46844" x="296.201233" y="51.868536" style="fill: #0000ff; stroke: #0000ff"/>
     <use xlink:href="#m0918d46844" x="301.359938" y="61.944823" style="fill: #0000ff; stroke: #0000ff"/>
     <use xlink:href="#m0918d46844" x="306.518644" y="148.724185" style="fill: #0000ff; stroke: #0000ff"/>
     <use xlink:href="#m0918d46844" x="311.67735" y="49.540125" style="fill: #0000ff; stroke: #0000ff"/>
     <use xlink:href="#m0918d46844" x="316.836055" y="54.116552" style="fill: #0000ff; stroke: #0000ff"/>
     <use xlink:href="#m0918d46844" x="321.994761" y="59.293319" style="fill: #0000ff; stroke: #0000ff"/>
     <use xlink:href="#m0918d46844" x="327.153467" y="54.878372" style="fill: #0000ff; stroke: #0000ff"/>
     <use xlink:href="#m0918d46844" x="332.312173" y="55.640607" style="fill: #0000ff; stroke: #0000ff"/>
     <use xlink:href="#m0918d46844" x="337.470878" y="92.60968" style="fill: #0000ff; stroke: #0000ff"/>
     <use xlink:href="#m0918d46844" x="342.629584" y="47.082009" style="fill: #0000ff; stroke: #0000ff"/>
     <use xlink:href="#m0918d46844" x="347.78829" y="47.082009" style="fill: #0000ff; stroke: #0000ff"/>
     <use xlink:href="#m0918d46844" x="352.946995" y="43.496861" style="fill: #0000ff; stroke: #0000ff"/>
     <use xlink:href="#m0918d46844" x="358.105701" y="46.407495" style="fill: #0000ff; stroke: #0000ff"/>
     <use xlink:href="#m0918d46844" x="363.264407" y="223.723811" style="fill: #0000ff; stroke: #0000ff"/>
     <use xlink:href="#m0918d46844" x="368.423112" y="58.027656" style="fill: #0000ff; stroke: #0000ff"/>
     <use xlink:href="#m0918d46844" x="373.581818" y="46.387084" style="fill: #0000ff; stroke: #0000ff"/>
    </g>
   </g>
   <g id="line2d_31">
    <path d="M 69.218182 254.616086 
L 74.376888 255.506629 
L 79.535593 253.734027 
L 84.694299 236.522831 
L 89.853005 254.581053 
L 95.01171 252.446553 
L 100.170416 259.286455 
L 105.329122 264.564122 
L 110.487827 64.634106 
L 115.646533 253.153392 
L 120.805239 253.220033 
L 125.963945 250.666545 
L 131.12265 253.27031 
L 136.281356 259.123963 
L 141.440062 102.432353 
L 146.598767 255.012723 
L 151.757473 253.027226 
L 156.916179 252.547389 
L 162.074884 253.356897 
L 167.23359 214.091541 
L 172.392296 272.492886 
L 177.551002 248.071428 
L 182.709707 252.820101 
L 187.868413 73.929156 
L 193.027119 60.640515 
L 198.185824 136.580705 
L 203.34453 163.309898 
L 208.503236 173.471393 
L 213.661941 265.901856 
L 218.820647 180.643926 
L 223.979353 180.002871 
L 229.138059 99.300299 
L 234.296764 96.589047 
L 239.45547 62.905453 
L 244.614176 60.584747 
L 249.772881 62.888529 
L 254.931587 50.339133 
L 260.090293 58.82759 
L 265.248998 65.593563 
L 270.407704 58.82759 
L 275.56641 51.393775 
L 280.725116 54.724973 
L 285.883821 43.474227 
L 291.042527 47.231602 
L 296.201233 47.194115 
L 301.359938 104.417649 
L 306.518644 59.050598 
L 311.67735 68.643928 
L 316.836055 68.643928 
L 321.994761 55.225011 
L 327.153467 43.108461 
L 332.312173 68.078556 
L 337.470878 61.932956 
L 342.629584 46.928894 
L 347.78829 43.368583 
L 352.946995 45.60745 
L 358.105701 45.60745 
L 363.264407 45.607742 
L 368.423112 57.95131 
L 373.581818 180.010529 
" clip-path="url(#pc2457ceb17)" style="fill: none; stroke: #ff7763; stroke-width: 1.5; stroke-linecap: square"/>
    <defs>
     <path id="m2e575d26f5" d="M -2 2 
L 2 -2 
M -2 -2 
L 2 2 
" style="stroke: #ff7763"/>
    </defs>
    <g clip-path="url(#pc2457ceb17)">
     <use xlink:href="#m2e575d26f5" x="69.218182" y="254.616086" style="fill: #ff7763; stroke: #ff7763"/>
     <use xlink:href="#m2e575d26f5" x="74.376888" y="255.506629" style="fill: #ff7763; stroke: #ff7763"/>
     <use xlink:href="#m2e575d26f5" x="79.535593" y="253.734027" style="fill: #ff7763; stroke: #ff7763"/>
     <use xlink:href="#m2e575d26f5" x="84.694299" y="236.522831" style="fill: #ff7763; stroke: #ff7763"/>
     <use xlink:href="#m2e575d26f5" x="89.853005" y="254.581053" style="fill: #ff7763; stroke: #ff7763"/>
     <use xlink:href="#m2e575d26f5" x="95.01171" y="252.446553" style="fill: #ff7763; stroke: #ff7763"/>
     <use xlink:href="#m2e575d26f5" x="100.170416" y="259.286455" style="fill: #ff7763; stroke: #ff7763"/>
     <use xlink:href="#m2e575d26f5" x="105.329122" y="264.564122" style="fill: #ff7763; stroke: #ff7763"/>
     <use xlink:href="#m2e575d26f5" x="110.487827" y="64.634106" style="fill: #ff7763; stroke: #ff7763"/>
     <use xlink:href="#m2e575d26f5" x="115.646533" y="253.153392" style="fill: #ff7763; stroke: #ff7763"/>
     <use xlink:href="#m2e575d26f5" x="120.805239" y="253.220033" style="fill: #ff7763; stroke: #ff7763"/>
     <use xlink:href="#m2e575d26f5" x="125.963945" y="250.666545" style="fill: #ff7763; stroke: #ff7763"/>
     <use xlink:href="#m2e575d26f5" x="131.12265" y="253.27031" style="fill: #ff7763; stroke: #ff7763"/>
     <use xlink:href="#m2e575d26f5" x="136.281356" y="259.123963" style="fill: #ff7763; stroke: #ff7763"/>
     <use xlink:href="#m2e575d26f5" x="141.440062" y="102.432353" style="fill: #ff7763; stroke: #ff7763"/>
     <use xlink:href="#m2e575d26f5" x="146.598767" y="255.012723" style="fill: #ff7763; stroke: #ff7763"/>
     <use xlink:href="#m2e575d26f5" x="151.757473" y="253.027226" style="fill: #ff7763; stroke: #ff7763"/>
     <use xlink:href="#m2e575d26f5" x="156.916179" y="252.547389" style="fill: #ff7763; stroke: #ff7763"/>
     <use xlink:href="#m2e575d26f5" x="162.074884" y="253.356897" style="fill: #ff7763; stroke: #ff7763"/>
     <use xlink:href="#m2e575d26f5" x="167.23359" y="214.091541" style="fill: #ff7763; stroke: #ff7763"/>
     <use xlink:href="#m2e575d26f5" x="172.392296" y="272.492886" style="fill: #ff7763; stroke: #ff7763"/>
     <use xlink:href="#m2e575d26f5" x="177.551002" y="248.071428" style="fill: #ff7763; stroke: #ff7763"/>
     <use xlink:href="#m2e575d26f5" x="182.709707" y="252.820101" style="fill: #ff7763; stroke: #ff7763"/>
     <use xlink:href="#m2e575d26f5" x="187.868413" y="73.929156" style="fill: #ff7763; stroke: #ff7763"/>
     <use xlink:href="#m2e575d26f5" x="193.027119" y="60.640515" style="fill: #ff7763; stroke: #ff7763"/>
     <use xlink:href="#m2e575d26f5" x="198.185824" y="136.580705" style="fill: #ff7763; stroke: #ff7763"/>
     <use xlink:href="#m2e575d26f5" x="203.34453" y="163.309898" style="fill: #ff7763; stroke: #ff7763"/>
     <use xlink:href="#m2e575d26f5" x="208.503236" y="173.471393" style="fill: #ff7763; stroke: #ff7763"/>
     <use xlink:href="#m2e575d26f5" x="213.661941" y="265.901856" style="fill: #ff7763; stroke: #ff7763"/>
     <use xlink:href="#m2e575d26f5" x="218.820647" y="180.643926" style="fill: #ff7763; stroke: #ff7763"/>
     <use xlink:href="#m2e575d26f5" x="223.979353" y="180.002871" style="fill: #ff7763; stroke: #ff7763"/>
     <use xlink:href="#m2e575d26f5" x="229.138059" y="99.300299" style="fill: #ff7763; stroke: #ff7763"/>
     <use xlink:href="#m2e575d26f5" x="234.296764" y="96.589047" style="fill: #ff7763; stroke: #ff7763"/>
     <use xlink:href="#m2e575d26f5" x="239.45547" y="62.905453" style="fill: #ff7763; stroke: #ff7763"/>
     <use xlink:href="#m2e575d26f5" x="244.614176" y="60.584747" style="fill: #ff7763; stroke: #ff7763"/>
     <use xlink:href="#m2e575d26f5" x="249.772881" y="62.888529" style="fill: #ff7763; stroke: #ff7763"/>
     <use xlink:href="#m2e575d26f5" x="254.931587" y="50.339133" style="fill: #ff7763; stroke: #ff7763"/>
     <use xlink:href="#m2e575d26f5" x="260.090293" y="58.82759" style="fill: #ff7763; stroke: #ff7763"/>
     <use xlink:href="#m2e575d26f5" x="265.248998" y="65.593563" style="fill: #ff7763; stroke: #ff7763"/>
     <use xlink:href="#m2e575d26f5" x="270.407704" y="58.82759" style="fill: #ff7763; stroke: #ff7763"/>
     <use xlink:href="#m2e575d26f5" x="275.56641" y="51.393775" style="fill: #ff7763; stroke: #ff7763"/>
     <use xlink:href="#m2e575d26f5" x="280.725116" y="54.724973" style="fill: #ff7763; stroke: #ff7763"/>
     <use xlink:href="#m2e575d26f5" x="285.883821" y="43.474227" style="fill: #ff7763; stroke: #ff7763"/>
     <use xlink:href="#m2e575d26f5" x="291.042527" y="47.231602" style="fill: #ff7763; stroke: #ff7763"/>
     <use xlink:href="#m2e575d26f5" x="296.201233" y="47.194115" style="fill: #ff7763; stroke: #ff7763"/>
     <use xlink:href="#m2e575d26f5" x="301.359938" y="104.417649" style="fill: #ff7763; stroke: #ff7763"/>
     <use xlink:href="#m2e575d26f5" x="306.518644" y="59.050598" style="fill: #ff7763; stroke: #ff7763"/>
     <use xlink:href="#m2e575d26f5" x="311.67735" y="68.643928" style="fill: #ff7763; stroke: #ff7763"/>
     <use xlink:href="#m2e575d26f5" x="316.836055" y="68.643928" style="fill: #ff7763; stroke: #ff7763"/>
     <use xlink:href="#m2e575d26f5" x="321.994761" y="55.225011" style="fill: #ff7763; stroke: #ff7763"/>
     <use xlink:href="#m2e575d26f5" x="327.153467" y="43.108461" style="fill: #ff7763; stroke: #ff7763"/>
     <use xlink:href="#m2e575d26f5" x="332.312173" y="68.078556" style="fill: #ff7763; stroke: #ff7763"/>
     <use xlink:href="#m2e575d26f5" x="337.470878" y="61.932956" style="fill: #ff7763; stroke: #ff7763"/>
     <use xlink:href="#m2e575d26f5" x="342.629584" y="46.928894" style="fill: #ff7763; stroke: #ff7763"/>
     <use xlink:href="#m2e575d26f5" x="347.78829" y="43.368583" style="fill: #ff7763; stroke: #ff7763"/>
     <use xlink:href="#m2e575d26f5" x="352.946995" y="45.60745" style="fill: #ff7763; stroke: #ff7763"/>
     <use xlink:href="#m2e575d26f5" x="358.105701" y="45.60745" style="fill: #ff7763; stroke: #ff7763"/>
     <use xlink:href="#m2e575d26f5" x="363.264407" y="45.607742" style="fill: #ff7763; stroke: #ff7763"/>
     <use xlink:href="#m2e575d26f5" x="368.423112" y="57.95131" style="fill: #ff7763; stroke: #ff7763"/>
     <use xlink:href="#m2e575d26f5" x="373.581818" y="180.010529" style="fill: #ff7763; stroke: #ff7763"/>
    </g>
   </g>
   <g id="line2d_32">
    <path d="M 69.218182 252.908818 
L 74.376888 254.34075 
L 79.535593 255.235582 
L 84.694299 262.462442 
L 89.853005 253.568678 
L 95.01171 262.450813 
L 100.170416 268.572227 
L 105.329122 262.585919 
L 110.487827 257.631623 
L 115.646533 155.57006 
L 120.805239 253.440764 
L 125.963945 252.908818 
L 131.12265 253.791354 
L 136.281356 263.778176 
L 141.440062 248.103603 
L 146.598767 247.360522 
L 151.757473 252.915315 
L 156.916179 202.883721 
L 162.074884 252.488417 
L 167.23359 277.243813 
L 172.392296 254.514937 
L 177.551002 168.519558 
L 182.709707 243.046609 
L 187.868413 113.281449 
L 193.027119 252.550065 
L 198.185824 251.146541 
L 203.34453 140.442594 
L 208.503236 75.347227 
L 213.661941 231.091347 
L 218.820647 215.302776 
L 223.979353 45.872603 
L 229.138059 73.457694 
L 234.296764 75.82159 
L 239.45547 55.533451 
L 244.614176 55.56595 
L 249.772881 109.153598 
L 254.931587 82.777378 
L 260.090293 43.468845 
L 265.248998 198.534031 
L 270.407704 201.676869 
L 275.56641 125.105498 
L 280.725116 58.253578 
L 285.883821 51.626525 
L 291.042527 53.383657 
L 296.201233 64.240915 
L 301.359938 137.404666 
L 306.518644 57.020404 
L 311.67735 61.224603 
L 316.836055 56.407624 
L 321.994761 80.148771 
L 327.153467 99.147614 
L 332.312173 53.83331 
L 337.470878 49.943249 
L 342.629584 45.821226 
L 347.78829 45.820714 
L 352.946995 45.903393 
L 358.105701 45.82138 
L 363.264407 45.048658 
L 368.423112 45.409365 
L 373.581818 57.338517 
" clip-path="url(#pc2457ceb17)" style="fill: none; stroke: #ffac1e; stroke-width: 1.5; stroke-linecap: square"/>
    <defs>
     <path id="m802b262636" d="M 0 -2 
L -0.449028 -0.618034 
L -1.902113 -0.618034 
L -0.726543 0.236068 
L -1.175571 1.618034 
L -0 0.763932 
L 1.175571 1.618034 
L 0.726543 0.236068 
L 1.902113 -0.618034 
L 0.449028 -0.618034 
z
" style="stroke: #ffac1e; stroke-linejoin: bevel"/>
    </defs>
    <g clip-path="url(#pc2457ceb17)">
     <use xlink:href="#m802b262636" x="69.218182" y="252.908818" style="fill: #ffac1e; stroke: #ffac1e; stroke-linejoin: bevel"/>
     <use xlink:href="#m802b262636" x="74.376888" y="254.34075" style="fill: #ffac1e; stroke: #ffac1e; stroke-linejoin: bevel"/>
     <use xlink:href="#m802b262636" x="79.535593" y="255.235582" style="fill: #ffac1e; stroke: #ffac1e; stroke-linejoin: bevel"/>
     <use xlink:href="#m802b262636" x="84.694299" y="262.462442" style="fill: #ffac1e; stroke: #ffac1e; stroke-linejoin: bevel"/>
     <use xlink:href="#m802b262636" x="89.853005" y="253.568678" style="fill: #ffac1e; stroke: #ffac1e; stroke-linejoin: bevel"/>
     <use xlink:href="#m802b262636" x="95.01171" y="262.450813" style="fill: #ffac1e; stroke: #ffac1e; stroke-linejoin: bevel"/>
     <use xlink:href="#m802b262636" x="100.170416" y="268.572227" style="fill: #ffac1e; stroke: #ffac1e; stroke-linejoin: bevel"/>
     <use xlink:href="#m802b262636" x="105.329122" y="262.585919" style="fill: #ffac1e; stroke: #ffac1e; stroke-linejoin: bevel"/>
     <use xlink:href="#m802b262636" x="110.487827" y="257.631623" style="fill: #ffac1e; stroke: #ffac1e; stroke-linejoin: bevel"/>
     <use xlink:href="#m802b262636" x="115.646533" y="155.57006" style="fill: #ffac1e; stroke: #ffac1e; stroke-linejoin: bevel"/>
     <use xlink:href="#m802b262636" x="120.805239" y="253.440764" style="fill: #ffac1e; stroke: #ffac1e; stroke-linejoin: bevel"/>
     <use xlink:href="#m802b262636" x="125.963945" y="252.908818" style="fill: #ffac1e; stroke: #ffac1e; stroke-linejoin: bevel"/>
     <use xlink:href="#m802b262636" x="131.12265" y="253.791354" style="fill: #ffac1e; stroke: #ffac1e; stroke-linejoin: bevel"/>
     <use xlink:href="#m802b262636" x="136.281356" y="263.778176" style="fill: #ffac1e; stroke: #ffac1e; stroke-linejoin: bevel"/>
     <use xlink:href="#m802b262636" x="141.440062" y="248.103603" style="fill: #ffac1e; stroke: #ffac1e; stroke-linejoin: bevel"/>
     <use xlink:href="#m802b262636" x="146.598767" y="247.360522" style="fill: #ffac1e; stroke: #ffac1e; stroke-linejoin: bevel"/>
     <use xlink:href="#m802b262636" x="151.757473" y="252.915315" style="fill: #ffac1e; stroke: #ffac1e; stroke-linejoin: bevel"/>
     <use xlink:href="#m802b262636" x="156.916179" y="202.883721" style="fill: #ffac1e; stroke: #ffac1e; stroke-linejoin: bevel"/>
     <use xlink:href="#m802b262636" x="162.074884" y="252.488417" style="fill: #ffac1e; stroke: #ffac1e; stroke-linejoin: bevel"/>
     <use xlink:href="#m802b262636" x="167.23359" y="277.243813" style="fill: #ffac1e; stroke: #ffac1e; stroke-linejoin: bevel"/>
     <use xlink:href="#m802b262636" x="172.392296" y="254.514937" style="fill: #ffac1e; stroke: #ffac1e; stroke-linejoin: bevel"/>
     <use xlink:href="#m802b262636" x="177.551002" y="168.519558" style="fill: #ffac1e; stroke: #ffac1e; stroke-linejoin: bevel"/>
     <use xlink:href="#m802b262636" x="182.709707" y="243.046609" style="fill: #ffac1e; stroke: #ffac1e; stroke-linejoin: bevel"/>
     <use xlink:href="#m802b262636" x="187.868413" y="113.281449" style="fill: #ffac1e; stroke: #ffac1e; stroke-linejoin: bevel"/>
     <use xlink:href="#m802b262636" x="193.027119" y="252.550065" style="fill: #ffac1e; stroke: #ffac1e; stroke-linejoin: bevel"/>
     <use xlink:href="#m802b262636" x="198.185824" y="251.146541" style="fill: #ffac1e; stroke: #ffac1e; stroke-linejoin: bevel"/>
     <use xlink:href="#m802b262636" x="203.34453" y="140.442594" style="fill: #ffac1e; stroke: #ffac1e; stroke-linejoin: bevel"/>
     <use xlink:href="#m802b262636" x="208.503236" y="75.347227" style="fill: #ffac1e; stroke: #ffac1e; stroke-linejoin: bevel"/>
     <use xlink:href="#m802b262636" x="213.661941" y="231.091347" style="fill: #ffac1e; stroke: #ffac1e; stroke-linejoin: bevel"/>
     <use xlink:href="#m802b262636" x="218.820647" y="215.302776" style="fill: #ffac1e; stroke: #ffac1e; stroke-linejoin: bevel"/>
     <use xlink:href="#m802b262636" x="223.979353" y="45.872603" style="fill: #ffac1e; stroke: #ffac1e; stroke-linejoin: bevel"/>
     <use xlink:href="#m802b262636" x="229.138059" y="73.457694" style="fill: #ffac1e; stroke: #ffac1e; stroke-linejoin: bevel"/>
     <use xlink:href="#m802b262636" x="234.296764" y="75.82159" style="fill: #ffac1e; stroke: #ffac1e; stroke-linejoin: bevel"/>
     <use xlink:href="#m802b262636" x="239.45547" y="55.533451" style="fill: #ffac1e; stroke: #ffac1e; stroke-linejoin: bevel"/>
     <use xlink:href="#m802b262636" x="244.614176" y="55.56595" style="fill: #ffac1e; stroke: #ffac1e; stroke-linejoin: bevel"/>
     <use xlink:href="#m802b262636" x="249.772881" y="109.153598" style="fill: #ffac1e; stroke: #ffac1e; stroke-linejoin: bevel"/>
     <use xlink:href="#m802b262636" x="254.931587" y="82.777378" style="fill: #ffac1e; stroke: #ffac1e; stroke-linejoin: bevel"/>
     <use xlink:href="#m802b262636" x="260.090293" y="43.468845" style="fill: #ffac1e; stroke: #ffac1e; stroke-linejoin: bevel"/>
     <use xlink:href="#m802b262636" x="265.248998" y="198.534031" style="fill: #ffac1e; stroke: #ffac1e; stroke-linejoin: bevel"/>
     <use xlink:href="#m802b262636" x="270.407704" y="201.676869" style="fill: #ffac1e; stroke: #ffac1e; stroke-linejoin: bevel"/>
     <use xlink:href="#m802b262636" x="275.56641" y="125.105498" style="fill: #ffac1e; stroke: #ffac1e; stroke-linejoin: bevel"/>
     <use xlink:href="#m802b262636" x="280.725116" y="58.253578" style="fill: #ffac1e; stroke: #ffac1e; stroke-linejoin: bevel"/>
     <use xlink:href="#m802b262636" x="285.883821" y="51.626525" style="fill: #ffac1e; stroke: #ffac1e; stroke-linejoin: bevel"/>
     <use xlink:href="#m802b262636" x="291.042527" y="53.383657" style="fill: #ffac1e; stroke: #ffac1e; stroke-linejoin: bevel"/>
     <use xlink:href="#m802b262636" x="296.201233" y="64.240915" style="fill: #ffac1e; stroke: #ffac1e; stroke-linejoin: bevel"/>
     <use xlink:href="#m802b262636" x="301.359938" y="137.404666" style="fill: #ffac1e; stroke: #ffac1e; stroke-linejoin: bevel"/>
     <use xlink:href="#m802b262636" x="306.518644" y="57.020404" style="fill: #ffac1e; stroke: #ffac1e; stroke-linejoin: bevel"/>
     <use xlink:href="#m802b262636" x="311.67735" y="61.224603" style="fill: #ffac1e; stroke: #ffac1e; stroke-linejoin: bevel"/>
     <use xlink:href="#m802b262636" x="316.836055" y="56.407624" style="fill: #ffac1e; stroke: #ffac1e; stroke-linejoin: bevel"/>
     <use xlink:href="#m802b262636" x="321.994761" y="80.148771" style="fill: #ffac1e; stroke: #ffac1e; stroke-linejoin: bevel"/>
     <use xlink:href="#m802b262636" x="327.153467" y="99.147614" style="fill: #ffac1e; stroke: #ffac1e; stroke-linejoin: bevel"/>
     <use xlink:href="#m802b262636" x="332.312173" y="53.83331" style="fill: #ffac1e; stroke: #ffac1e; stroke-linejoin: bevel"/>
     <use xlink:href="#m802b262636" x="337.470878" y="49.943249" style="fill: #ffac1e; stroke: #ffac1e; stroke-linejoin: bevel"/>
     <use xlink:href="#m802b262636" x="342.629584" y="45.821226" style="fill: #ffac1e; stroke: #ffac1e; stroke-linejoin: bevel"/>
     <use xlink:href="#m802b262636" x="347.78829" y="45.820714" style="fill: #ffac1e; stroke: #ffac1e; stroke-linejoin: bevel"/>
     <use xlink:href="#m802b262636" x="352.946995" y="45.903393" style="fill: #ffac1e; stroke: #ffac1e; stroke-linejoin: bevel"/>
     <use xlink:href="#m802b262636" x="358.105701" y="45.82138" style="fill: #ffac1e; stroke: #ffac1e; stroke-linejoin: bevel"/>
     <use xlink:href="#m802b262636" x="363.264407" y="45.048658" style="fill: #ffac1e; stroke: #ffac1e; stroke-linejoin: bevel"/>
     <use xlink:href="#m802b262636" x="368.423112" y="45.409365" style="fill: #ffac1e; stroke: #ffac1e; stroke-linejoin: bevel"/>
     <use xlink:href="#m802b262636" x="373.581818" y="57.338517" style="fill: #ffac1e; stroke: #ffac1e; stroke-linejoin: bevel"/>
    </g>
   </g>
   <g id="line2d_33">
    <path d="M 69.218182 268.787222 
L 74.376888 253.836525 
L 79.535593 256.437318 
L 84.694299 227.391129 
L 89.853005 251.32131 
L 95.01171 255.699274 
L 100.170416 253.784644 
L 105.329122 253.446441 
L 110.487827 157.75131 
L 115.646533 256.641638 
L 120.805239 258.446611 
L 125.963945 257.231589 
L 131.12265 250.523204 
L 136.281356 251.288742 
L 141.440062 256.72882 
L 146.598767 60.365078 
L 151.757473 247.765576 
L 156.916179 265.322716 
L 162.074884 253.018503 
L 167.23359 259.526476 
L 172.392296 233.677953 
L 177.551002 60.718161 
L 182.709707 251.265584 
L 187.868413 253.707566 
L 193.027119 225.353277 
L 198.185824 72.919868 
L 203.34453 194.070846 
L 208.503236 237.038829 
L 213.661941 142.318705 
L 218.820647 252.908818 
L 223.979353 253.22981 
L 229.138059 108.712258 
L 234.296764 210.842528 
L 239.45547 156.520874 
L 244.614176 134.005864 
L 249.772881 50.832097 
L 254.931587 78.813025 
L 260.090293 218.662437 
L 265.248998 155.120706 
L 270.407704 100.355653 
L 275.56641 81.66153 
L 280.725116 250.659157 
L 285.883821 91.927364 
L 291.042527 220.241239 
L 296.201233 252.908818 
L 301.359938 72.438765 
L 306.518644 189.016007 
L 311.67735 193.103778 
L 316.836055 48.458998 
L 321.994761 52.327119 
L 327.153467 80.618069 
L 332.312173 173.011854 
L 337.470878 67.481146 
L 342.629584 44.140447 
L 347.78829 47.471277 
L 352.946995 55.820664 
L 358.105701 62.799805 
L 363.264407 47.283017 
L 368.423112 43.322987 
L 373.581818 43.322987 
" clip-path="url(#pc2457ceb17)" style="fill: none; stroke: #009435; stroke-width: 1.5; stroke-linecap: square"/>
    <defs>
     <path id="mb17e0efde5" d="M -2 2 
L 2 2 
L 2 -2 
L -2 -2 
z
" style="stroke: #009435; stroke-linejoin: miter"/>
    </defs>
    <g clip-path="url(#pc2457ceb17)">
     <use xlink:href="#mb17e0efde5" x="69.218182" y="268.787222" style="fill: #009435; stroke: #009435; stroke-linejoin: miter"/>
     <use xlink:href="#mb17e0efde5" x="74.376888" y="253.836525" style="fill: #009435; stroke: #009435; stroke-linejoin: miter"/>
     <use xlink:href="#mb17e0efde5" x="79.535593" y="256.437318" style="fill: #009435; stroke: #009435; stroke-linejoin: miter"/>
     <use xlink:href="#mb17e0efde5" x="84.694299" y="227.391129" style="fill: #009435; stroke: #009435; stroke-linejoin: miter"/>
     <use xlink:href="#mb17e0efde5" x="89.853005" y="251.32131" style="fill: #009435; stroke: #009435; stroke-linejoin: miter"/>
     <use xlink:href="#mb17e0efde5" x="95.01171" y="255.699274" style="fill: #009435; stroke: #009435; stroke-linejoin: miter"/>
     <use xlink:href="#mb17e0efde5" x="100.170416" y="253.784644" style="fill: #009435; stroke: #009435; stroke-linejoin: miter"/>
     <use xlink:href="#mb17e0efde5" x="105.329122" y="253.446441" style="fill: #009435; stroke: #009435; stroke-linejoin: miter"/>
     <use xlink:href="#mb17e0efde5" x="110.487827" y="157.75131" style="fill: #009435; stroke: #009435; stroke-linejoin: miter"/>
     <use xlink:href="#mb17e0efde5" x="115.646533" y="256.641638" style="fill: #009435; stroke: #009435; stroke-linejoin: miter"/>
     <use xlink:href="#mb17e0efde5" x="120.805239" y="258.446611" style="fill: #009435; stroke: #009435; stroke-linejoin: miter"/>
     <use xlink:href="#mb17e0efde5" x="125.963945" y="257.231589" style="fill: #009435; stroke: #009435; stroke-linejoin: miter"/>
     <use xlink:href="#mb17e0efde5" x="131.12265" y="250.523204" style="fill: #009435; stroke: #009435; stroke-linejoin: miter"/>
     <use xlink:href="#mb17e0efde5" x="136.281356" y="251.288742" style="fill: #009435; stroke: #009435; stroke-linejoin: miter"/>
     <use xlink:href="#mb17e0efde5" x="141.440062" y="256.72882" style="fill: #009435; stroke: #009435; stroke-linejoin: miter"/>
     <use xlink:href="#mb17e0efde5" x="146.598767" y="60.365078" style="fill: #009435; stroke: #009435; stroke-linejoin: miter"/>
     <use xlink:href="#mb17e0efde5" x="151.757473" y="247.765576" style="fill: #009435; stroke: #009435; stroke-linejoin: miter"/>
     <use xlink:href="#mb17e0efde5" x="156.916179" y="265.322716" style="fill: #009435; stroke: #009435; stroke-linejoin: miter"/>
     <use xlink:href="#mb17e0efde5" x="162.074884" y="253.018503" style="fill: #009435; stroke: #009435; stroke-linejoin: miter"/>
     <use xlink:href="#mb17e0efde5" x="167.23359" y="259.526476" style="fill: #009435; stroke: #009435; stroke-linejoin: miter"/>
     <use xlink:href="#mb17e0efde5" x="172.392296" y="233.677953" style="fill: #009435; stroke: #009435; stroke-linejoin: miter"/>
     <use xlink:href="#mb17e0efde5" x="177.551002" y="60.718161" style="fill: #009435; stroke: #009435; stroke-linejoin: miter"/>
     <use xlink:href="#mb17e0efde5" x="182.709707" y="251.265584" style="fill: #009435; stroke: #009435; stroke-linejoin: miter"/>
     <use xlink:href="#mb17e0efde5" x="187.868413" y="253.707566" style="fill: #009435; stroke: #009435; stroke-linejoin: miter"/>
     <use xlink:href="#mb17e0efde5" x="193.027119" y="225.353277" style="fill: #009435; stroke: #009435; stroke-linejoin: miter"/>
     <use xlink:href="#mb17e0efde5" x="198.185824" y="72.919868" style="fill: #009435; stroke: #009435; stroke-linejoin: miter"/>
     <use xlink:href="#mb17e0efde5" x="203.34453" y="194.070846" style="fill: #009435; stroke: #009435; stroke-linejoin: miter"/>
     <use xlink:href="#mb17e0efde5" x="208.503236" y="237.038829" style="fill: #009435; stroke: #009435; stroke-linejoin: miter"/>
     <use xlink:href="#mb17e0efde5" x="213.661941" y="142.318705" style="fill: #009435; stroke: #009435; stroke-linejoin: miter"/>
     <use xlink:href="#mb17e0efde5" x="218.820647" y="252.908818" style="fill: #009435; stroke: #009435; stroke-linejoin: miter"/>
     <use xlink:href="#mb17e0efde5" x="223.979353" y="253.22981" style="fill: #009435; stroke: #009435; stroke-linejoin: miter"/>
     <use xlink:href="#mb17e0efde5" x="229.138059" y="108.712258" style="fill: #009435; stroke: #009435; stroke-linejoin: miter"/>
     <use xlink:href="#mb17e0efde5" x="234.296764" y="210.842528" style="fill: #009435; stroke: #009435; stroke-linejoin: miter"/>
     <use xlink:href="#mb17e0efde5" x="239.45547" y="156.520874" style="fill: #009435; stroke: #009435; stroke-linejoin: miter"/>
     <use xlink:href="#mb17e0efde5" x="244.614176" y="134.005864" style="fill: #009435; stroke: #009435; stroke-linejoin: miter"/>
     <use xlink:href="#mb17e0efde5" x="249.772881" y="50.832097" style="fill: #009435; stroke: #009435; stroke-linejoin: miter"/>
     <use xlink:href="#mb17e0efde5" x="254.931587" y="78.813025" style="fill: #009435; stroke: #009435; stroke-linejoin: miter"/>
     <use xlink:href="#mb17e0efde5" x="260.090293" y="218.662437" style="fill: #009435; stroke: #009435; stroke-linejoin: miter"/>
     <use xlink:href="#mb17e0efde5" x="265.248998" y="155.120706" style="fill: #009435; stroke: #009435; stroke-linejoin: miter"/>
     <use xlink:href="#mb17e0efde5" x="270.407704" y="100.355653" style="fill: #009435; stroke: #009435; stroke-linejoin: miter"/>
     <use xlink:href="#mb17e0efde5" x="275.56641" y="81.66153" style="fill: #009435; stroke: #009435; stroke-linejoin: miter"/>
     <use xlink:href="#mb17e0efde5" x="280.725116" y="250.659157" style="fill: #009435; stroke: #009435; stroke-linejoin: miter"/>
     <use xlink:href="#mb17e0efde5" x="285.883821" y="91.927364" style="fill: #009435; stroke: #009435; stroke-linejoin: miter"/>
     <use xlink:href="#mb17e0efde5" x="291.042527" y="220.241239" style="fill: #009435; stroke: #009435; stroke-linejoin: miter"/>
     <use xlink:href="#mb17e0efde5" x="296.201233" y="252.908818" style="fill: #009435; stroke: #009435; stroke-linejoin: miter"/>
     <use xlink:href="#mb17e0efde5" x="301.359938" y="72.438765" style="fill: #009435; stroke: #009435; stroke-linejoin: miter"/>
     <use xlink:href="#mb17e0efde5" x="306.518644" y="189.016007" style="fill: #009435; stroke: #009435; stroke-linejoin: miter"/>
     <use xlink:href="#mb17e0efde5" x="311.67735" y="193.103778" style="fill: #009435; stroke: #009435; stroke-linejoin: miter"/>
     <use xlink:href="#mb17e0efde5" x="316.836055" y="48.458998" style="fill: #009435; stroke: #009435; stroke-linejoin: miter"/>
     <use xlink:href="#mb17e0efde5" x="321.994761" y="52.327119" style="fill: #009435; stroke: #009435; stroke-linejoin: miter"/>
     <use xlink:href="#mb17e0efde5" x="327.153467" y="80.618069" style="fill: #009435; stroke: #009435; stroke-linejoin: miter"/>
     <use xlink:href="#mb17e0efde5" x="332.312173" y="173.011854" style="fill: #009435; stroke: #009435; stroke-linejoin: miter"/>
     <use xlink:href="#mb17e0efde5" x="337.470878" y="67.481146" style="fill: #009435; stroke: #009435; stroke-linejoin: miter"/>
     <use xlink:href="#mb17e0efde5" x="342.629584" y="44.140447" style="fill: #009435; stroke: #009435; stroke-linejoin: miter"/>
     <use xlink:href="#mb17e0efde5" x="347.78829" y="47.471277" style="fill: #009435; stroke: #009435; stroke-linejoin: miter"/>
     <use xlink:href="#mb17e0efde5" x="352.946995" y="55.820664" style="fill: #009435; stroke: #009435; stroke-linejoin: miter"/>
     <use xlink:href="#mb17e0efde5" x="358.105701" y="62.799805" style="fill: #009435; stroke: #009435; stroke-linejoin: miter"/>
     <use xlink:href="#mb17e0efde5" x="363.264407" y="47.283017" style="fill: #009435; stroke: #009435; stroke-linejoin: miter"/>
     <use xlink:href="#mb17e0efde5" x="368.423112" y="43.322987" style="fill: #009435; stroke: #009435; stroke-linejoin: miter"/>
     <use xlink:href="#mb17e0efde5" x="373.581818" y="43.322987" style="fill: #009435; stroke: #009435; stroke-linejoin: miter"/>
    </g>
   </g>
   <g id="patch_3">
    <path d="M 54 252 
L 54 34.56 
" style="fill: none; stroke: #000000; stroke-width: 0.8; stroke-linejoin: miter; stroke-linecap: square"/>
   </g>
   <g id="patch_4">
    <path d="M 388.8 252 
L 388.8 34.56 
" style="fill: none; stroke: #000000; stroke-width: 0.8; stroke-linejoin: miter; stroke-linecap: square"/>
   </g>
   <g id="patch_5">
    <path d="M 54 252 
L 388.8 252 
" style="fill: none; stroke: #000000; stroke-width: 0.8; stroke-linejoin: miter; stroke-linecap: square"/>
   </g>
   <g id="patch_6">
    <path d="M 54 34.56 
L 388.8 34.56 
" style="fill: none; stroke: #000000; stroke-width: 0.8; stroke-linejoin: miter; stroke-linecap: square"/>
   </g>
   <g id="text_17">
    <!-- BEB agent policy with coeff_prior = 0.001 -->
    <g transform="translate(96.0375 28.56)scale(0.12 -0.12)">
     <defs>
      <path id="DejaVuSans-42" d="M 1259 2228 
L 1259 519 
L 2272 519 
Q 2781 519 3026 730 
Q 3272 941 3272 1375 
Q 3272 1813 3026 2020 
Q 2781 2228 2272 2228 
L 1259 2228 
z
M 1259 4147 
L 1259 2741 
L 2194 2741 
Q 2656 2741 2882 2914 
Q 3109 3088 3109 3444 
Q 3109 3797 2882 3972 
Q 2656 4147 2194 4147 
L 1259 4147 
z
M 628 4666 
L 2241 4666 
Q 2963 4666 3353 4366 
Q 3744 4066 3744 3513 
Q 3744 3084 3544 2831 
Q 3344 2578 2956 2516 
Q 3422 2416 3680 2098 
Q 3938 1781 3938 1306 
Q 3938 681 3513 340 
Q 3088 0 2303 0 
L 628 0 
L 628 4666 
z
" transform="scale(0.015625)"/>
      <path id="DejaVuSans-45" d="M 628 4666 
L 3578 4666 
L 3578 4134 
L 1259 4134 
L 1259 2753 
L 3481 2753 
L 3481 2222 
L 1259 2222 
L 1259 531 
L 3634 531 
L 3634 0 
L 628 0 
L 628 4666 
z
" transform="scale(0.015625)"/>
      <path id="DejaVuSans-67" d="M 2906 1791 
Q 2906 2416 2648 2759 
Q 2391 3103 1925 3103 
Q 1463 3103 1205 2759 
Q 947 2416 947 1791 
Q 947 1169 1205 825 
Q 1463 481 1925 481 
Q 2391 481 2648 825 
Q 2906 1169 2906 1791 
z
M 3481 434 
Q 3481 -459 3084 -895 
Q 2688 -1331 1869 -1331 
Q 1566 -1331 1297 -1286 
Q 1028 -1241 775 -1147 
L 775 -588 
Q 1028 -725 1275 -790 
Q 1522 -856 1778 -856 
Q 2344 -856 2625 -561 
Q 2906 -266 2906 331 
L 2906 616 
Q 2728 306 2450 153 
Q 2172 0 1784 0 
Q 1141 0 747 490 
Q 353 981 353 1791 
Q 353 2603 747 3093 
Q 1141 3584 1784 3584 
Q 2172 3584 2450 3431 
Q 2728 3278 2906 2969 
L 2906 3500 
L 3481 3500 
L 3481 434 
z
" transform="scale(0.015625)"/>
      <path id="DejaVuSans-6e" d="M 3513 2113 
L 3513 0 
L 2938 0 
L 2938 2094 
Q 2938 2591 2744 2837 
Q 2550 3084 2163 3084 
Q 1697 3084 1428 2787 
Q 1159 2491 1159 1978 
L 1159 0 
L 581 0 
L 581 3500 
L 1159 3500 
L 1159 2956 
Q 1366 3272 1645 3428 
Q 1925 3584 2291 3584 
Q 2894 3584 3203 3211 
Q 3513 2838 3513 2113 
z
" transform="scale(0.015625)"/>
      <path id="DejaVuSans-77" d="M 269 3500 
L 844 3500 
L 1563 769 
L 2278 3500 
L 2956 3500 
L 3675 769 
L 4391 3500 
L 4966 3500 
L 4050 0 
L 3372 0 
L 2619 2869 
L 1863 0 
L 1184 0 
L 269 3500 
z
" transform="scale(0.015625)"/>
      <path id="DejaVuSans-68" d="M 3513 2113 
L 3513 0 
L 2938 0 
L 2938 2094 
Q 2938 2591 2744 2837 
Q 2550 3084 2163 3084 
Q 1697 3084 1428 2787 
Q 1159 2491 1159 1978 
L 1159 0 
L 581 0 
L 581 4863 
L 1159 4863 
L 1159 2956 
Q 1366 3272 1645 3428 
Q 1925 3584 2291 3584 
Q 2894 3584 3203 3211 
Q 3513 2838 3513 2113 
z
" transform="scale(0.015625)"/>
      <path id="DejaVuSans-66" d="M 2375 4863 
L 2375 4384 
L 1825 4384 
Q 1516 4384 1395 4259 
Q 1275 4134 1275 3809 
L 1275 3500 
L 2222 3500 
L 2222 3053 
L 1275 3053 
L 1275 0 
L 697 0 
L 697 3053 
L 147 3053 
L 147 3500 
L 697 3500 
L 697 3744 
Q 697 4328 969 4595 
Q 1241 4863 1831 4863 
L 2375 4863 
z
" transform="scale(0.015625)"/>
      <path id="DejaVuSans-5f" d="M 3263 -1063 
L 3263 -1509 
L -63 -1509 
L -63 -1063 
L 3263 -1063 
z
" transform="scale(0.015625)"/>
      <path id="DejaVuSans-3d" d="M 678 2906 
L 4684 2906 
L 4684 2381 
L 678 2381 
L 678 2906 
z
M 678 1631 
L 4684 1631 
L 4684 1100 
L 678 1100 
L 678 1631 
z
" transform="scale(0.015625)"/>
      <path id="DejaVuSans-2e" d="M 684 794 
L 1344 794 
L 1344 0 
L 684 0 
L 684 794 
z
" transform="scale(0.015625)"/>
     </defs>
     <use xlink:href="#DejaVuSans-42"/>
     <use xlink:href="#DejaVuSans-45" x="68.603516"/>
     <use xlink:href="#DejaVuSans-42" x="131.787109"/>
     <use xlink:href="#DejaVuSans-20" x="200.390625"/>
     <use xlink:href="#DejaVuSans-61" x="232.177734"/>
     <use xlink:href="#DejaVuSans-67" x="293.457031"/>
     <use xlink:href="#DejaVuSans-65" x="356.933594"/>
     <use xlink:href="#DejaVuSans-6e" x="418.457031"/>
     <use xlink:href="#DejaVuSans-74" x="481.835938"/>
     <use xlink:href="#DejaVuSans-20" x="521.044922"/>
     <use xlink:href="#DejaVuSans-70" x="552.832031"/>
     <use xlink:href="#DejaVuSans-6f" x="616.308594"/>
     <use xlink:href="#DejaVuSans-6c" x="677.490234"/>
     <use xlink:href="#DejaVuSans-69" x="705.273438"/>
     <use xlink:href="#DejaVuSans-63" x="733.056641"/>
     <use xlink:href="#DejaVuSans-79" x="788.037109"/>
     <use xlink:href="#DejaVuSans-20" x="847.216797"/>
     <use xlink:href="#DejaVuSans-77" x="879.003906"/>
     <use xlink:href="#DejaVuSans-69" x="960.791016"/>
     <use xlink:href="#DejaVuSans-74" x="988.574219"/>
     <use xlink:href="#DejaVuSans-68" x="1027.783203"/>
     <use xlink:href="#DejaVuSans-20" x="1091.162109"/>
     <use xlink:href="#DejaVuSans-63" x="1122.949219"/>
     <use xlink:href="#DejaVuSans-6f" x="1177.929688"/>
     <use xlink:href="#DejaVuSans-65" x="1239.111328"/>
     <use xlink:href="#DejaVuSans-66" x="1300.634766"/>
     <use xlink:href="#DejaVuSans-66" x="1335.839844"/>
     <use xlink:href="#DejaVuSans-5f" x="1371.044922"/>
     <use xlink:href="#DejaVuSans-70" x="1421.044922"/>
     <use xlink:href="#DejaVuSans-72" x="1484.521484"/>
     <use xlink:href="#DejaVuSans-69" x="1525.634766"/>
     <use xlink:href="#DejaVuSans-6f" x="1553.417969"/>
     <use xlink:href="#DejaVuSans-72" x="1614.599609"/>
     <use xlink:href="#DejaVuSans-20" x="1655.712891"/>
     <use xlink:href="#DejaVuSans-3d" x="1687.5"/>
     <use xlink:href="#DejaVuSans-20" x="1771.289062"/>
     <use xlink:href="#DejaVuSans-30" x="1803.076172"/>
     <use xlink:href="#DejaVuSans-2e" x="1866.699219"/>
     <use xlink:href="#DejaVuSans-30" x="1898.486328"/>
     <use xlink:href="#DejaVuSans-30" x="1962.109375"/>
     <use xlink:href="#DejaVuSans-31" x="2025.732422"/>
    </g>
   </g>
   <g id="legend_1">
    <g id="patch_7">
     <path d="M 61 115.950625 
L 130.292188 115.950625 
Q 132.292188 115.950625 132.292188 113.950625 
L 132.292188 41.56 
Q 132.292188 39.56 130.292188 39.56 
L 61 39.56 
Q 59 39.56 59 41.56 
L 59 113.950625 
Q 59 115.950625 61 115.950625 
z
" style="fill: #ffffff; opacity: 0.8; stroke: #cccccc; stroke-linejoin: miter"/>
    </g>
    <g id="line2d_34">
     <path d="M 63 47.658437 
L 73 47.658437 
L 83 47.658437 
" style="fill: none; stroke: #9d02d7; stroke-width: 1.5; stroke-linecap: square"/>
     <g>
      <use xlink:href="#mf7161fe675" x="73" y="47.658437" style="fill: #9d02d7; stroke: #9d02d7; stroke-linejoin: miter"/>
     </g>
    </g>
    <g id="text_18">
     <!-- beta=5 -->
     <g transform="translate(91 51.158437)scale(0.1 -0.1)">
      <defs>
       <path id="DejaVuSans-62" d="M 3116 1747 
Q 3116 2381 2855 2742 
Q 2594 3103 2138 3103 
Q 1681 3103 1420 2742 
Q 1159 2381 1159 1747 
Q 1159 1113 1420 752 
Q 1681 391 2138 391 
Q 2594 391 2855 752 
Q 3116 1113 3116 1747 
z
M 1159 2969 
Q 1341 3281 1617 3432 
Q 1894 3584 2278 3584 
Q 2916 3584 3314 3078 
Q 3713 2572 3713 1747 
Q 3713 922 3314 415 
Q 2916 -91 2278 -91 
Q 1894 -91 1617 61 
Q 1341 213 1159 525 
L 1159 0 
L 581 0 
L 581 4863 
L 1159 4863 
L 1159 2969 
z
" transform="scale(0.015625)"/>
      </defs>
      <use xlink:href="#DejaVuSans-62"/>
      <use xlink:href="#DejaVuSans-65" x="63.476562"/>
      <use xlink:href="#DejaVuSans-74" x="125"/>
      <use xlink:href="#DejaVuSans-61" x="164.208984"/>
      <use xlink:href="#DejaVuSans-3d" x="225.488281"/>
      <use xlink:href="#DejaVuSans-35" x="309.277344"/>
     </g>
    </g>
    <g id="line2d_35">
     <path d="M 63 62.336562 
L 73 62.336562 
L 83 62.336562 
" style="fill: none; stroke: #0000ff; stroke-width: 1.5; stroke-linecap: square"/>
     <g>
      <use xlink:href="#m0918d46844" x="73" y="62.336562" style="fill: #0000ff; stroke: #0000ff"/>
     </g>
    </g>
    <g id="text_19">
     <!-- beta=6 -->
     <g transform="translate(91 65.836562)scale(0.1 -0.1)">
      <use xlink:href="#DejaVuSans-62"/>
      <use xlink:href="#DejaVuSans-65" x="63.476562"/>
      <use xlink:href="#DejaVuSans-74" x="125"/>
      <use xlink:href="#DejaVuSans-61" x="164.208984"/>
      <use xlink:href="#DejaVuSans-3d" x="225.488281"/>
      <use xlink:href="#DejaVuSans-36" x="309.277344"/>
     </g>
    </g>
    <g id="line2d_36">
     <path d="M 63 77.014687 
L 73 77.014687 
L 83 77.014687 
" style="fill: none; stroke: #ff7763; stroke-width: 1.5; stroke-linecap: square"/>
     <g>
      <use xlink:href="#m2e575d26f5" x="73" y="77.014687" style="fill: #ff7763; stroke: #ff7763"/>
     </g>
    </g>
    <g id="text_20">
     <!-- beta=7 -->
     <g transform="translate(91 80.514687)scale(0.1 -0.1)">
      <defs>
       <path id="DejaVuSans-37" d="M 525 4666 
L 3525 4666 
L 3525 4397 
L 1831 0 
L 1172 0 
L 2766 4134 
L 525 4134 
L 525 4666 
z
" transform="scale(0.015625)"/>
      </defs>
      <use xlink:href="#DejaVuSans-62"/>
      <use xlink:href="#DejaVuSans-65" x="63.476562"/>
      <use xlink:href="#DejaVuSans-74" x="125"/>
      <use xlink:href="#DejaVuSans-61" x="164.208984"/>
      <use xlink:href="#DejaVuSans-3d" x="225.488281"/>
      <use xlink:href="#DejaVuSans-37" x="309.277344"/>
     </g>
    </g>
    <g id="line2d_37">
     <path d="M 63 91.692813 
L 73 91.692813 
L 83 91.692813 
" style="fill: none; stroke: #ffac1e; stroke-width: 1.5; stroke-linecap: square"/>
     <g>
      <use xlink:href="#m802b262636" x="73" y="91.692813" style="fill: #ffac1e; stroke: #ffac1e; stroke-linejoin: bevel"/>
     </g>
    </g>
    <g id="text_21">
     <!-- beta=8 -->
     <g transform="translate(91 95.192813)scale(0.1 -0.1)">
      <use xlink:href="#DejaVuSans-62"/>
      <use xlink:href="#DejaVuSans-65" x="63.476562"/>
      <use xlink:href="#DejaVuSans-74" x="125"/>
      <use xlink:href="#DejaVuSans-61" x="164.208984"/>
      <use xlink:href="#DejaVuSans-3d" x="225.488281"/>
      <use xlink:href="#DejaVuSans-38" x="309.277344"/>
     </g>
    </g>
    <g id="line2d_38">
     <path d="M 63 106.370937 
L 73 106.370937 
L 83 106.370937 
" style="fill: none; stroke: #009435; stroke-width: 1.5; stroke-linecap: square"/>
     <g>
      <use xlink:href="#mb17e0efde5" x="73" y="106.370937" style="fill: #009435; stroke: #009435; stroke-linejoin: miter"/>
     </g>
    </g>
    <g id="text_22">
     <!-- beta=9 -->
     <g transform="translate(91 109.870937)scale(0.1 -0.1)">
      <defs>
       <path id="DejaVuSans-39" d="M 703 97 
L 703 672 
Q 941 559 1184 500 
Q 1428 441 1663 441 
Q 2288 441 2617 861 
Q 2947 1281 2994 2138 
Q 2813 1869 2534 1725 
Q 2256 1581 1919 1581 
Q 1219 1581 811 2004 
Q 403 2428 403 3163 
Q 403 3881 828 4315 
Q 1253 4750 1959 4750 
Q 2769 4750 3195 4129 
Q 3622 3509 3622 2328 
Q 3622 1225 3098 567 
Q 2575 -91 1691 -91 
Q 1453 -91 1209 -44 
Q 966 3 703 97 
z
M 1959 2075 
Q 2384 2075 2632 2365 
Q 2881 2656 2881 3163 
Q 2881 3666 2632 3958 
Q 2384 4250 1959 4250 
Q 1534 4250 1286 3958 
Q 1038 3666 1038 3163 
Q 1038 2656 1286 2365 
Q 1534 2075 1959 2075 
z
" transform="scale(0.015625)"/>
      </defs>
      <use xlink:href="#DejaVuSans-62"/>
      <use xlink:href="#DejaVuSans-65" x="63.476562"/>
      <use xlink:href="#DejaVuSans-74" x="125"/>
      <use xlink:href="#DejaVuSans-61" x="164.208984"/>
      <use xlink:href="#DejaVuSans-3d" x="225.488281"/>
      <use xlink:href="#DejaVuSans-39" x="309.277344"/>
     </g>
    </g>
   </g>
  </g>
 </g>
 <defs>
  <clipPath id="pc2457ceb17">
   <rect x="54" y="34.56" width="334.8" height="217.44"/>
  </clipPath>
 </defs>
</svg>
