<?xml version="1.0" encoding="utf-8" standalone="no"?>
<!DOCTYPE svg PUBLIC "-//W3C//DTD SVG 1.1//EN"
  "http://www.w3.org/Graphics/SVG/1.1/DTD/svg11.dtd">
<svg xmlns:xlink="http://www.w3.org/1999/xlink" width="432pt" height="288pt" viewBox="0 0 432 288" xmlns="http://www.w3.org/2000/svg" version="1.1">
 <metadata>
  <rdf:RDF xmlns:dc="http://purl.org/dc/elements/1.1/" xmlns:cc="http://creativecommons.org/ns#" xmlns:rdf="http://www.w3.org/1999/02/22-rdf-syntax-ns#">
   <cc:Work>
    <dc:type rdf:resource="http://purl.org/dc/dcmitype/StillImage"/>
    <dc:date>2023-01-11T15:36:54.769621</dc:date>
    <dc:format>image/svg+xml</dc:format>
    <dc:creator>
     <cc:Agent>
      <dc:title>Matplotlib v3.5.2, https://matplotlib.org/</dc:title>
     </cc:Agent>
    </dc:creator>
   </cc:Work>
  </rdf:RDF>
 </metadata>
 <defs>
  <style type="text/css">*{stroke-linejoin: round; stroke-linecap: butt}</style>
 </defs>
 <g id="figure_1">
  <g id="patch_1">
   <path d="M 0 288 
L 432 288 
L 432 0 
L 0 0 
z
" style="fill: #ffffff"/>
  </g>
  <g id="axes_1">
   <g id="patch_2">
    <path d="M 54 252 
L 388.8 252 
L 388.8 34.56 
L 54 34.56 
z
" style="fill: #ffffff"/>
   </g>
   <g id="PolyCollection_1">
    <defs>
     <path id="m5ee972c915" d="M 69.218182 -33.478796 
L 69.218182 -33.478796 
L 74.376888 -34.795105 
L 79.535593 -34.784147 
L 84.694299 -34.726463 
L 89.853005 -180.008327 
L 95.01171 -231.846208 
L 100.170416 -232.105749 
L 105.329122 -231.602442 
L 110.487827 -231.846208 
L 115.646533 -224.135803 
L 120.805239 -234.508252 
L 125.963945 -241.338664 
L 131.12265 -241.338664 
L 136.281356 -243.151256 
L 141.440062 -242.43568 
L 146.598767 -232.314079 
L 151.757473 -237.9746 
L 156.916179 -233.81614 
L 162.074884 -237.697832 
L 167.23359 -243.823784 
L 172.392296 -244.651705 
L 177.551002 -244.819439 
L 182.709707 -244.819439 
L 187.868413 -244.819439 
L 193.027119 -244.819439 
L 198.185824 -243.725815 
L 203.34453 -244.176279 
L 208.503236 -245.061068 
L 213.661941 -240.662939 
L 218.820647 -245.072755 
L 223.979353 -245.072755 
L 229.138059 -245.072755 
L 234.296764 -241.080253 
L 239.45547 -241.080253 
L 244.614176 -241.080253 
L 249.772881 -241.080253 
L 254.931587 -240.966061 
L 260.090293 -240.966765 
L 265.248998 -240.966765 
L 270.407704 -240.8845 
L 275.56641 -240.8845 
L 280.725116 -241.128745 
L 285.883821 -240.8845 
L 291.042527 -240.8845 
L 296.201233 -240.884415 
L 301.359938 -240.884415 
L 306.518644 -240.884415 
L 311.67735 -240.884415 
L 316.836055 -240.995567 
L 321.994761 -240.995567 
L 327.153467 -240.995567 
L 332.312173 -240.995567 
L 337.470878 -240.805115 
L 342.629584 -240.805115 
L 347.78829 -240.805115 
L 352.946995 -240.805115 
L 358.105701 -240.805115 
L 363.264407 -240.805115 
L 368.423112 -240.805115 
L 373.581818 -240.805115 
L 373.581818 -240.805115 
L 373.581818 -240.805115 
L 368.423112 -240.805115 
L 363.264407 -240.805115 
L 358.105701 -240.805115 
L 352.946995 -240.805115 
L 347.78829 -240.805115 
L 342.629584 -240.805115 
L 337.470878 -240.805115 
L 332.312173 -240.995567 
L 327.153467 -240.995567 
L 321.994761 -240.995567 
L 316.836055 -240.995567 
L 311.67735 -240.884415 
L 306.518644 -240.884415 
L 301.359938 -240.884415 
L 296.201233 -240.884415 
L 291.042527 -240.8845 
L 285.883821 -240.8845 
L 280.725116 -241.128745 
L 275.56641 -240.8845 
L 270.407704 -240.8845 
L 265.248998 -240.966765 
L 260.090293 -240.966765 
L 254.931587 -240.966061 
L 249.772881 -241.080253 
L 244.614176 -241.080253 
L 239.45547 -241.080253 
L 234.296764 -241.080253 
L 229.138059 -245.072755 
L 223.979353 -245.072755 
L 218.820647 -245.072755 
L 213.661941 -240.662939 
L 208.503236 -245.061068 
L 203.34453 -244.176279 
L 198.185824 -243.725815 
L 193.027119 -244.819439 
L 187.868413 -244.819439 
L 182.709707 -244.819439 
L 177.551002 -244.819439 
L 172.392296 -244.651705 
L 167.23359 -243.823784 
L 162.074884 -237.697832 
L 156.916179 -233.81614 
L 151.757473 -237.9746 
L 146.598767 -232.314079 
L 141.440062 -242.43568 
L 136.281356 -243.151256 
L 131.12265 -241.338664 
L 125.963945 -241.338664 
L 120.805239 -234.508252 
L 115.646533 -224.135803 
L 110.487827 -231.846208 
L 105.329122 -231.602442 
L 100.170416 -232.105749 
L 95.01171 -231.846208 
L 89.853005 -180.008327 
L 84.694299 -34.726463 
L 79.535593 -34.784147 
L 74.376888 -34.795105 
L 69.218182 -33.478796 
z
" style="stroke: #9d02d7; stroke-opacity: 0.2"/>
    </defs>
    <g clip-path="url(#p28b36df9c2)">
     <use xlink:href="#m5ee972c915" x="0" y="288" style="fill: #9d02d7; fill-opacity: 0.2; stroke: #9d02d7; stroke-opacity: 0.2"/>
    </g>
   </g>
   <g id="PolyCollection_2">
    <defs>
     <path id="ma60b100130" d="M 69.218182 -36.02827 
L 69.218182 -36.02827 
L 74.376888 -39.887514 
L 79.535593 -34.888089 
L 84.694299 -104.767697 
L 89.853005 -63.405537 
L 95.01171 -117.128179 
L 100.170416 -225.379199 
L 105.329122 -222.292391 
L 110.487827 -215.634652 
L 115.646533 -214.60841 
L 120.805239 -207.932612 
L 125.963945 -215.580786 
L 131.12265 -221.178451 
L 136.281356 -215.406511 
L 141.440062 -224.96488 
L 146.598767 -241.432067 
L 151.757473 -245.075903 
L 156.916179 -241.080354 
L 162.074884 -241.080454 
L 167.23359 -241.080454 
L 172.392296 -241.080454 
L 177.551002 -241.080476 
L 182.709707 -241.080454 
L 187.868413 -241.080354 
L 193.027119 -241.080454 
L 198.185824 -241.080354 
L 203.34453 -245.076915 
L 208.503236 -245.076915 
L 213.661941 -242.044073 
L 218.820647 -245.076734 
L 223.979353 -245.075903 
L 229.138059 -245.072574 
L 234.296764 -245.072574 
L 239.45547 -242.039925 
L 244.614176 -226.529041 
L 249.772881 -242.039925 
L 254.931587 -242.039925 
L 260.090293 -242.039925 
L 265.248998 -242.039925 
L 270.407704 -242.039925 
L 275.56641 -242.039925 
L 280.725116 -242.039925 
L 285.883821 -242.039925 
L 291.042527 -242.042876 
L 296.201233 -237.850475 
L 301.359938 -245.07571 
L 306.518644 -240.376677 
L 311.67735 -245.072755 
L 316.836055 -245.072755 
L 321.994761 -239.917868 
L 327.153467 -244.71733 
L 332.312173 -244.71733 
L 337.470878 -244.71733 
L 342.629584 -245.072755 
L 347.78829 -245.072755 
L 352.946995 -245.072755 
L 358.105701 -245.072755 
L 363.264407 -245.072755 
L 368.423112 -245.072755 
L 373.581818 -245.072755 
L 373.581818 -245.072755 
L 373.581818 -245.072755 
L 368.423112 -245.072755 
L 363.264407 -245.072755 
L 358.105701 -245.072755 
L 352.946995 -245.072755 
L 347.78829 -245.072755 
L 342.629584 -245.072755 
L 337.470878 -244.71733 
L 332.312173 -244.71733 
L 327.153467 -244.71733 
L 321.994761 -239.917868 
L 316.836055 -245.072755 
L 311.67735 -245.072755 
L 306.518644 -240.376677 
L 301.359938 -245.07571 
L 296.201233 -237.850475 
L 291.042527 -242.042876 
L 285.883821 -242.039925 
L 280.725116 -242.039925 
L 275.56641 -242.039925 
L 270.407704 -242.039925 
L 265.248998 -242.039925 
L 260.090293 -242.039925 
L 254.931587 -242.039925 
L 249.772881 -242.039925 
L 244.614176 -226.529041 
L 239.45547 -242.039925 
L 234.296764 -245.072574 
L 229.138059 -245.072574 
L 223.979353 -245.075903 
L 218.820647 -245.076734 
L 213.661941 -242.044073 
L 208.503236 -245.076915 
L 203.34453 -245.076915 
L 198.185824 -241.080354 
L 193.027119 -241.080454 
L 187.868413 -241.080354 
L 182.709707 -241.080454 
L 177.551002 -241.080476 
L 172.392296 -241.080454 
L 167.23359 -241.080454 
L 162.074884 -241.080454 
L 156.916179 -241.080354 
L 151.757473 -245.075903 
L 146.598767 -241.432067 
L 141.440062 -224.96488 
L 136.281356 -215.406511 
L 131.12265 -221.178451 
L 125.963945 -215.580786 
L 120.805239 -207.932612 
L 115.646533 -214.60841 
L 110.487827 -215.634652 
L 105.329122 -222.292391 
L 100.170416 -225.379199 
L 95.01171 -117.128179 
L 89.853005 -63.405537 
L 84.694299 -104.767697 
L 79.535593 -34.888089 
L 74.376888 -39.887514 
L 69.218182 -36.02827 
z
" style="stroke: #0000ff; stroke-opacity: 0.2"/>
    </defs>
    <g clip-path="url(#p28b36df9c2)">
     <use xlink:href="#ma60b100130" x="0" y="288" style="fill: #0000ff; fill-opacity: 0.2; stroke: #0000ff; stroke-opacity: 0.2"/>
    </g>
   </g>
   <g id="PolyCollection_3">
    <defs>
     <path id="m78f341fd4e" d="M 69.218182 -31.566615 
L 69.218182 -31.566615 
L 74.376888 -34.935917 
L 79.535593 -47.234742 
L 84.694299 -34.411103 
L 89.853005 -35.677408 
L 95.01171 -45.191348 
L 100.170416 -71.411608 
L 105.329122 -72.6549 
L 110.487827 -99.573692 
L 115.646533 -138.683119 
L 120.805239 -50.155954 
L 125.963945 -142.295473 
L 131.12265 -241.063986 
L 136.281356 -233.312076 
L 141.440062 -233.311891 
L 146.598767 -239.48459 
L 151.757473 -239.520352 
L 156.916179 -238.556072 
L 162.074884 -240.23837 
L 167.23359 -242.46078 
L 172.392296 -243.442147 
L 177.551002 -243.608377 
L 182.709707 -243.001814 
L 187.868413 -240.183574 
L 193.027119 -242.762901 
L 198.185824 -217.52654 
L 203.34453 -243.6128 
L 208.503236 -242.588823 
L 213.661941 -243.742815 
L 218.820647 -242.588823 
L 223.979353 -243.742815 
L 229.138059 -242.833987 
L 234.296764 -242.833987 
L 239.45547 -218.334106 
L 244.614176 -219.018789 
L 249.772881 -237.112135 
L 254.931587 -242.546305 
L 260.090293 -242.546305 
L 265.248998 -242.588823 
L 270.407704 -242.546305 
L 275.56641 -242.588823 
L 280.725116 -242.546305 
L 285.883821 -242.546305 
L 291.042527 -242.546305 
L 296.201233 -242.68464 
L 301.359938 -242.68464 
L 306.518644 -242.546305 
L 311.67735 -242.546305 
L 316.836055 -242.396596 
L 321.994761 -242.397819 
L 327.153467 -242.397819 
L 332.312173 -242.546305 
L 337.470878 -242.590004 
L 342.629584 -242.590004 
L 347.78829 -242.590004 
L 352.946995 -242.590004 
L 358.105701 -242.590004 
L 363.264407 -242.547486 
L 368.423112 -242.547486 
L 373.581818 -242.547486 
L 373.581818 -242.547486 
L 373.581818 -242.547486 
L 368.423112 -242.547486 
L 363.264407 -242.547486 
L 358.105701 -242.590004 
L 352.946995 -242.590004 
L 347.78829 -242.590004 
L 342.629584 -242.590004 
L 337.470878 -242.590004 
L 332.312173 -242.546305 
L 327.153467 -242.397819 
L 321.994761 -242.397819 
L 316.836055 -242.396596 
L 311.67735 -242.546305 
L 306.518644 -242.546305 
L 301.359938 -242.68464 
L 296.201233 -242.68464 
L 291.042527 -242.546305 
L 285.883821 -242.546305 
L 280.725116 -242.546305 
L 275.56641 -242.588823 
L 270.407704 -242.546305 
L 265.248998 -242.588823 
L 260.090293 -242.546305 
L 254.931587 -242.546305 
L 249.772881 -237.112135 
L 244.614176 -219.018789 
L 239.45547 -218.334106 
L 234.296764 -242.833987 
L 229.138059 -242.833987 
L 223.979353 -243.742815 
L 218.820647 -242.588823 
L 213.661941 -243.742815 
L 208.503236 -242.588823 
L 203.34453 -243.6128 
L 198.185824 -217.52654 
L 193.027119 -242.762901 
L 187.868413 -240.183574 
L 182.709707 -243.001814 
L 177.551002 -243.608377 
L 172.392296 -243.442147 
L 167.23359 -242.46078 
L 162.074884 -240.23837 
L 156.916179 -238.556072 
L 151.757473 -239.520352 
L 146.598767 -239.48459 
L 141.440062 -233.311891 
L 136.281356 -233.312076 
L 131.12265 -241.063986 
L 125.963945 -142.295473 
L 120.805239 -50.155954 
L 115.646533 -138.683119 
L 110.487827 -99.573692 
L 105.329122 -72.6549 
L 100.170416 -71.411608 
L 95.01171 -45.191348 
L 89.853005 -35.677408 
L 84.694299 -34.411103 
L 79.535593 -47.234742 
L 74.376888 -34.935917 
L 69.218182 -31.566615 
z
" style="stroke: #ff7763; stroke-opacity: 0.2"/>
    </defs>
    <g clip-path="url(#p28b36df9c2)">
     <use xlink:href="#m78f341fd4e" x="0" y="288" style="fill: #ff7763; fill-opacity: 0.2; stroke: #ff7763; stroke-opacity: 0.2"/>
    </g>
   </g>
   <g id="PolyCollection_4">
    <defs>
     <path id="ma93e56fb65" d="M 69.218182 -21.561545 
L 69.218182 -21.561545 
L 74.376888 -50.447251 
L 79.535593 -30.967587 
L 84.694299 -34.961723 
L 89.853005 -82.400516 
L 95.01171 -43.050544 
L 100.170416 -166.888282 
L 105.329122 -131.567319 
L 110.487827 -184.143066 
L 115.646533 -179.632873 
L 120.805239 -177.497256 
L 125.963945 -127.680099 
L 131.12265 -47.266367 
L 136.281356 -47.04825 
L 141.440062 -123.451 
L 146.598767 -124.227064 
L 151.757473 -124.228522 
L 156.916179 -123.607327 
L 162.074884 -123.564532 
L 167.23359 -122.982741 
L 172.392296 -136.742853 
L 177.551002 -123.952385 
L 182.709707 -123.952385 
L 187.868413 -136.576199 
L 193.027119 -124.082283 
L 198.185824 -124.083738 
L 203.34453 -136.576087 
L 208.503236 -233.537673 
L 213.661941 -233.53789 
L 218.820647 -233.515515 
L 223.979353 -233.511198 
L 229.138059 -233.511422 
L 234.296764 -233.511198 
L 239.45547 -242.364661 
L 244.614176 -242.364437 
L 249.772881 -242.368705 
L 254.931587 -242.390264 
L 260.090293 -242.390264 
L 265.248998 -242.390043 
L 270.407704 -242.368705 
L 275.56641 -242.368928 
L 280.725116 -242.368928 
L 285.883821 -242.368705 
L 291.042527 -242.368928 
L 296.201233 -242.368928 
L 301.359938 -242.368705 
L 306.518644 -242.368705 
L 311.67735 -242.390264 
L 316.836055 -242.390264 
L 321.994761 -242.390264 
L 327.153467 -242.390043 
L 332.312173 -242.406146 
L 337.470878 -242.405925 
L 342.629584 -242.406146 
L 347.78829 -242.405925 
L 352.946995 -242.445416 
L 358.105701 -242.445228 
L 363.264407 -242.445228 
L 368.423112 -244.934599 
L 373.581818 -244.934599 
L 373.581818 -244.934599 
L 373.581818 -244.934599 
L 368.423112 -244.934599 
L 363.264407 -242.445228 
L 358.105701 -242.445228 
L 352.946995 -242.445416 
L 347.78829 -242.405925 
L 342.629584 -242.406146 
L 337.470878 -242.405925 
L 332.312173 -242.406146 
L 327.153467 -242.390043 
L 321.994761 -242.390264 
L 316.836055 -242.390264 
L 311.67735 -242.390264 
L 306.518644 -242.368705 
L 301.359938 -242.368705 
L 296.201233 -242.368928 
L 291.042527 -242.368928 
L 285.883821 -242.368705 
L 280.725116 -242.368928 
L 275.56641 -242.368928 
L 270.407704 -242.368705 
L 265.248998 -242.390043 
L 260.090293 -242.390264 
L 254.931587 -242.390264 
L 249.772881 -242.368705 
L 244.614176 -242.364437 
L 239.45547 -242.364661 
L 234.296764 -233.511198 
L 229.138059 -233.511422 
L 223.979353 -233.511198 
L 218.820647 -233.515515 
L 213.661941 -233.53789 
L 208.503236 -233.537673 
L 203.34453 -136.576087 
L 198.185824 -124.083738 
L 193.027119 -124.082283 
L 187.868413 -136.576199 
L 182.709707 -123.952385 
L 177.551002 -123.952385 
L 172.392296 -136.742853 
L 167.23359 -122.982741 
L 162.074884 -123.564532 
L 156.916179 -123.607327 
L 151.757473 -124.228522 
L 146.598767 -124.227064 
L 141.440062 -123.451 
L 136.281356 -47.04825 
L 131.12265 -47.266367 
L 125.963945 -127.680099 
L 120.805239 -177.497256 
L 115.646533 -179.632873 
L 110.487827 -184.143066 
L 105.329122 -131.567319 
L 100.170416 -166.888282 
L 95.01171 -43.050544 
L 89.853005 -82.400516 
L 84.694299 -34.961723 
L 79.535593 -30.967587 
L 74.376888 -50.447251 
L 69.218182 -21.561545 
z
" style="stroke: #ffac1e; stroke-opacity: 0.2"/>
    </defs>
    <g clip-path="url(#p28b36df9c2)">
     <use xlink:href="#ma93e56fb65" x="0" y="288" style="fill: #ffac1e; fill-opacity: 0.2; stroke: #ffac1e; stroke-opacity: 0.2"/>
    </g>
   </g>
   <g id="matplotlib.axis_1">
    <g id="xtick_1">
     <g id="line2d_1">
      <path d="M 69.218182 252 
L 69.218182 34.56 
" clip-path="url(#p28b36df9c2)" style="fill: none; stroke-dasharray: 2.96,1.28; stroke-dashoffset: 0; stroke: #b0b0b0; stroke-width: 0.8"/>
     </g>
     <g id="line2d_2">
      <defs>
       <path id="mf4d153a3b7" d="M 0 0 
L 0 3.5 
" style="stroke: #000000; stroke-width: 0.8"/>
      </defs>
      <g>
       <use xlink:href="#mf4d153a3b7" x="69.218182" y="252" style="stroke: #000000; stroke-width: 0.8"/>
      </g>
     </g>
     <g id="text_1">
      <!-- 0 -->
      <g transform="translate(66.036932 266.598437)scale(0.1 -0.1)">
       <defs>
        <path id="DejaVuSans-30" d="M 2034 4250 
Q 1547 4250 1301 3770 
Q 1056 3291 1056 2328 
Q 1056 1369 1301 889 
Q 1547 409 2034 409 
Q 2525 409 2770 889 
Q 3016 1369 3016 2328 
Q 3016 3291 2770 3770 
Q 2525 4250 2034 4250 
z
M 2034 4750 
Q 2819 4750 3233 4129 
Q 3647 3509 3647 2328 
Q 3647 1150 3233 529 
Q 2819 -91 2034 -91 
Q 1250 -91 836 529 
Q 422 1150 422 2328 
Q 422 3509 836 4129 
Q 1250 4750 2034 4750 
z
" transform="scale(0.015625)"/>
       </defs>
       <use xlink:href="#DejaVuSans-30"/>
      </g>
     </g>
    </g>
    <g id="xtick_2">
     <g id="line2d_3">
      <path d="M 120.805239 252 
L 120.805239 34.56 
" clip-path="url(#p28b36df9c2)" style="fill: none; stroke-dasharray: 2.96,1.28; stroke-dashoffset: 0; stroke: #b0b0b0; stroke-width: 0.8"/>
     </g>
     <g id="line2d_4">
      <g>
       <use xlink:href="#mf4d153a3b7" x="120.805239" y="252" style="stroke: #000000; stroke-width: 0.8"/>
      </g>
     </g>
     <g id="text_2">
      <!-- 500 -->
      <g transform="translate(111.261489 266.598437)scale(0.1 -0.1)">
       <defs>
        <path id="DejaVuSans-35" d="M 691 4666 
L 3169 4666 
L 3169 4134 
L 1269 4134 
L 1269 2991 
Q 1406 3038 1543 3061 
Q 1681 3084 1819 3084 
Q 2600 3084 3056 2656 
Q 3513 2228 3513 1497 
Q 3513 744 3044 326 
Q 2575 -91 1722 -91 
Q 1428 -91 1123 -41 
Q 819 9 494 109 
L 494 744 
Q 775 591 1075 516 
Q 1375 441 1709 441 
Q 2250 441 2565 725 
Q 2881 1009 2881 1497 
Q 2881 1984 2565 2268 
Q 2250 2553 1709 2553 
Q 1456 2553 1204 2497 
Q 953 2441 691 2322 
L 691 4666 
z
" transform="scale(0.015625)"/>
       </defs>
       <use xlink:href="#DejaVuSans-35"/>
       <use xlink:href="#DejaVuSans-30" x="63.623047"/>
       <use xlink:href="#DejaVuSans-30" x="127.246094"/>
      </g>
     </g>
    </g>
    <g id="xtick_3">
     <g id="line2d_5">
      <path d="M 172.392296 252 
L 172.392296 34.56 
" clip-path="url(#p28b36df9c2)" style="fill: none; stroke-dasharray: 2.96,1.28; stroke-dashoffset: 0; stroke: #b0b0b0; stroke-width: 0.8"/>
     </g>
     <g id="line2d_6">
      <g>
       <use xlink:href="#mf4d153a3b7" x="172.392296" y="252" style="stroke: #000000; stroke-width: 0.8"/>
      </g>
     </g>
     <g id="text_3">
      <!-- 1000 -->
      <g transform="translate(159.667296 266.598437)scale(0.1 -0.1)">
       <defs>
        <path id="DejaVuSans-31" d="M 794 531 
L 1825 531 
L 1825 4091 
L 703 3866 
L 703 4441 
L 1819 4666 
L 2450 4666 
L 2450 531 
L 3481 531 
L 3481 0 
L 794 0 
L 794 531 
z
" transform="scale(0.015625)"/>
       </defs>
       <use xlink:href="#DejaVuSans-31"/>
       <use xlink:href="#DejaVuSans-30" x="63.623047"/>
       <use xlink:href="#DejaVuSans-30" x="127.246094"/>
       <use xlink:href="#DejaVuSans-30" x="190.869141"/>
      </g>
     </g>
    </g>
    <g id="xtick_4">
     <g id="line2d_7">
      <path d="M 223.979353 252 
L 223.979353 34.56 
" clip-path="url(#p28b36df9c2)" style="fill: none; stroke-dasharray: 2.96,1.28; stroke-dashoffset: 0; stroke: #b0b0b0; stroke-width: 0.8"/>
     </g>
     <g id="line2d_8">
      <g>
       <use xlink:href="#mf4d153a3b7" x="223.979353" y="252" style="stroke: #000000; stroke-width: 0.8"/>
      </g>
     </g>
     <g id="text_4">
      <!-- 1500 -->
      <g transform="translate(211.254353 266.598437)scale(0.1 -0.1)">
       <use xlink:href="#DejaVuSans-31"/>
       <use xlink:href="#DejaVuSans-35" x="63.623047"/>
       <use xlink:href="#DejaVuSans-30" x="127.246094"/>
       <use xlink:href="#DejaVuSans-30" x="190.869141"/>
      </g>
     </g>
    </g>
    <g id="xtick_5">
     <g id="line2d_9">
      <path d="M 275.56641 252 
L 275.56641 34.56 
" clip-path="url(#p28b36df9c2)" style="fill: none; stroke-dasharray: 2.96,1.28; stroke-dashoffset: 0; stroke: #b0b0b0; stroke-width: 0.8"/>
     </g>
     <g id="line2d_10">
      <g>
       <use xlink:href="#mf4d153a3b7" x="275.56641" y="252" style="stroke: #000000; stroke-width: 0.8"/>
      </g>
     </g>
     <g id="text_5">
      <!-- 2000 -->
      <g transform="translate(262.84141 266.598437)scale(0.1 -0.1)">
       <defs>
        <path id="DejaVuSans-32" d="M 1228 531 
L 3431 531 
L 3431 0 
L 469 0 
L 469 531 
Q 828 903 1448 1529 
Q 2069 2156 2228 2338 
Q 2531 2678 2651 2914 
Q 2772 3150 2772 3378 
Q 2772 3750 2511 3984 
Q 2250 4219 1831 4219 
Q 1534 4219 1204 4116 
Q 875 4013 500 3803 
L 500 4441 
Q 881 4594 1212 4672 
Q 1544 4750 1819 4750 
Q 2544 4750 2975 4387 
Q 3406 4025 3406 3419 
Q 3406 3131 3298 2873 
Q 3191 2616 2906 2266 
Q 2828 2175 2409 1742 
Q 1991 1309 1228 531 
z
" transform="scale(0.015625)"/>
       </defs>
       <use xlink:href="#DejaVuSans-32"/>
       <use xlink:href="#DejaVuSans-30" x="63.623047"/>
       <use xlink:href="#DejaVuSans-30" x="127.246094"/>
       <use xlink:href="#DejaVuSans-30" x="190.869141"/>
      </g>
     </g>
    </g>
    <g id="xtick_6">
     <g id="line2d_11">
      <path d="M 327.153467 252 
L 327.153467 34.56 
" clip-path="url(#p28b36df9c2)" style="fill: none; stroke-dasharray: 2.96,1.28; stroke-dashoffset: 0; stroke: #b0b0b0; stroke-width: 0.8"/>
     </g>
     <g id="line2d_12">
      <g>
       <use xlink:href="#mf4d153a3b7" x="327.153467" y="252" style="stroke: #000000; stroke-width: 0.8"/>
      </g>
     </g>
     <g id="text_6">
      <!-- 2500 -->
      <g transform="translate(314.428467 266.598437)scale(0.1 -0.1)">
       <use xlink:href="#DejaVuSans-32"/>
       <use xlink:href="#DejaVuSans-35" x="63.623047"/>
       <use xlink:href="#DejaVuSans-30" x="127.246094"/>
       <use xlink:href="#DejaVuSans-30" x="190.869141"/>
      </g>
     </g>
    </g>
    <g id="xtick_7">
     <g id="line2d_13">
      <path d="M 378.740524 252 
L 378.740524 34.56 
" clip-path="url(#p28b36df9c2)" style="fill: none; stroke-dasharray: 2.96,1.28; stroke-dashoffset: 0; stroke: #b0b0b0; stroke-width: 0.8"/>
     </g>
     <g id="line2d_14">
      <g>
       <use xlink:href="#mf4d153a3b7" x="378.740524" y="252" style="stroke: #000000; stroke-width: 0.8"/>
      </g>
     </g>
     <g id="text_7">
      <!-- 3000 -->
      <g transform="translate(366.015524 266.598437)scale(0.1 -0.1)">
       <defs>
        <path id="DejaVuSans-33" d="M 2597 2516 
Q 3050 2419 3304 2112 
Q 3559 1806 3559 1356 
Q 3559 666 3084 287 
Q 2609 -91 1734 -91 
Q 1441 -91 1130 -33 
Q 819 25 488 141 
L 488 750 
Q 750 597 1062 519 
Q 1375 441 1716 441 
Q 2309 441 2620 675 
Q 2931 909 2931 1356 
Q 2931 1769 2642 2001 
Q 2353 2234 1838 2234 
L 1294 2234 
L 1294 2753 
L 1863 2753 
Q 2328 2753 2575 2939 
Q 2822 3125 2822 3475 
Q 2822 3834 2567 4026 
Q 2313 4219 1838 4219 
Q 1578 4219 1281 4162 
Q 984 4106 628 3988 
L 628 4550 
Q 988 4650 1302 4700 
Q 1616 4750 1894 4750 
Q 2613 4750 3031 4423 
Q 3450 4097 3450 3541 
Q 3450 3153 3228 2886 
Q 3006 2619 2597 2516 
z
" transform="scale(0.015625)"/>
       </defs>
       <use xlink:href="#DejaVuSans-33"/>
       <use xlink:href="#DejaVuSans-30" x="63.623047"/>
       <use xlink:href="#DejaVuSans-30" x="127.246094"/>
       <use xlink:href="#DejaVuSans-30" x="190.869141"/>
      </g>
     </g>
    </g>
    <g id="text_8">
     <!-- Steps -->
     <g transform="translate(207.410156 280.276563)scale(0.1 -0.1)">
      <defs>
       <path id="DejaVuSans-53" d="M 3425 4513 
L 3425 3897 
Q 3066 4069 2747 4153 
Q 2428 4238 2131 4238 
Q 1616 4238 1336 4038 
Q 1056 3838 1056 3469 
Q 1056 3159 1242 3001 
Q 1428 2844 1947 2747 
L 2328 2669 
Q 3034 2534 3370 2195 
Q 3706 1856 3706 1288 
Q 3706 609 3251 259 
Q 2797 -91 1919 -91 
Q 1588 -91 1214 -16 
Q 841 59 441 206 
L 441 856 
Q 825 641 1194 531 
Q 1563 422 1919 422 
Q 2459 422 2753 634 
Q 3047 847 3047 1241 
Q 3047 1584 2836 1778 
Q 2625 1972 2144 2069 
L 1759 2144 
Q 1053 2284 737 2584 
Q 422 2884 422 3419 
Q 422 4038 858 4394 
Q 1294 4750 2059 4750 
Q 2388 4750 2728 4690 
Q 3069 4631 3425 4513 
z
" transform="scale(0.015625)"/>
       <path id="DejaVuSans-74" d="M 1172 4494 
L 1172 3500 
L 2356 3500 
L 2356 3053 
L 1172 3053 
L 1172 1153 
Q 1172 725 1289 603 
Q 1406 481 1766 481 
L 2356 481 
L 2356 0 
L 1766 0 
Q 1100 0 847 248 
Q 594 497 594 1153 
L 594 3053 
L 172 3053 
L 172 3500 
L 594 3500 
L 594 4494 
L 1172 4494 
z
" transform="scale(0.015625)"/>
       <path id="DejaVuSans-65" d="M 3597 1894 
L 3597 1613 
L 953 1613 
Q 991 1019 1311 708 
Q 1631 397 2203 397 
Q 2534 397 2845 478 
Q 3156 559 3463 722 
L 3463 178 
Q 3153 47 2828 -22 
Q 2503 -91 2169 -91 
Q 1331 -91 842 396 
Q 353 884 353 1716 
Q 353 2575 817 3079 
Q 1281 3584 2069 3584 
Q 2775 3584 3186 3129 
Q 3597 2675 3597 1894 
z
M 3022 2063 
Q 3016 2534 2758 2815 
Q 2500 3097 2075 3097 
Q 1594 3097 1305 2825 
Q 1016 2553 972 2059 
L 3022 2063 
z
" transform="scale(0.015625)"/>
       <path id="DejaVuSans-70" d="M 1159 525 
L 1159 -1331 
L 581 -1331 
L 581 3500 
L 1159 3500 
L 1159 2969 
Q 1341 3281 1617 3432 
Q 1894 3584 2278 3584 
Q 2916 3584 3314 3078 
Q 3713 2572 3713 1747 
Q 3713 922 3314 415 
Q 2916 -91 2278 -91 
Q 1894 -91 1617 61 
Q 1341 213 1159 525 
z
M 3116 1747 
Q 3116 2381 2855 2742 
Q 2594 3103 2138 3103 
Q 1681 3103 1420 2742 
Q 1159 2381 1159 1747 
Q 1159 1113 1420 752 
Q 1681 391 2138 391 
Q 2594 391 2855 752 
Q 3116 1113 3116 1747 
z
" transform="scale(0.015625)"/>
       <path id="DejaVuSans-73" d="M 2834 3397 
L 2834 2853 
Q 2591 2978 2328 3040 
Q 2066 3103 1784 3103 
Q 1356 3103 1142 2972 
Q 928 2841 928 2578 
Q 928 2378 1081 2264 
Q 1234 2150 1697 2047 
L 1894 2003 
Q 2506 1872 2764 1633 
Q 3022 1394 3022 966 
Q 3022 478 2636 193 
Q 2250 -91 1575 -91 
Q 1294 -91 989 -36 
Q 684 19 347 128 
L 347 722 
Q 666 556 975 473 
Q 1284 391 1588 391 
Q 1994 391 2212 530 
Q 2431 669 2431 922 
Q 2431 1156 2273 1281 
Q 2116 1406 1581 1522 
L 1381 1569 
Q 847 1681 609 1914 
Q 372 2147 372 2553 
Q 372 3047 722 3315 
Q 1072 3584 1716 3584 
Q 2034 3584 2315 3537 
Q 2597 3491 2834 3397 
z
" transform="scale(0.015625)"/>
      </defs>
      <use xlink:href="#DejaVuSans-53"/>
      <use xlink:href="#DejaVuSans-74" x="63.476562"/>
      <use xlink:href="#DejaVuSans-65" x="102.685547"/>
      <use xlink:href="#DejaVuSans-70" x="164.208984"/>
      <use xlink:href="#DejaVuSans-73" x="227.685547"/>
     </g>
    </g>
   </g>
   <g id="matplotlib.axis_2">
    <g id="ytick_1">
     <g id="line2d_15">
      <path d="M 54 243.636923 
L 388.8 243.636923 
" clip-path="url(#p28b36df9c2)" style="fill: none; stroke-dasharray: 2.96,1.28; stroke-dashoffset: 0; stroke: #b0b0b0; stroke-width: 0.8"/>
     </g>
     <g id="line2d_16">
      <defs>
       <path id="m6379e547f9" d="M 0 0 
L -3.5 0 
" style="stroke: #000000; stroke-width: 0.8"/>
      </defs>
      <g>
       <use xlink:href="#m6379e547f9" x="54" y="243.636923" style="stroke: #000000; stroke-width: 0.8"/>
      </g>
     </g>
     <g id="text_9">
      <!-- −12 -->
      <g transform="translate(25.895312 247.436142)scale(0.1 -0.1)">
       <defs>
        <path id="DejaVuSans-2212" d="M 678 2272 
L 4684 2272 
L 4684 1741 
L 678 1741 
L 678 2272 
z
" transform="scale(0.015625)"/>
       </defs>
       <use xlink:href="#DejaVuSans-2212"/>
       <use xlink:href="#DejaVuSans-31" x="83.789062"/>
       <use xlink:href="#DejaVuSans-32" x="147.412109"/>
      </g>
     </g>
    </g>
    <g id="ytick_2">
     <g id="line2d_17">
      <path d="M 54 210.184615 
L 388.8 210.184615 
" clip-path="url(#p28b36df9c2)" style="fill: none; stroke-dasharray: 2.96,1.28; stroke-dashoffset: 0; stroke: #b0b0b0; stroke-width: 0.8"/>
     </g>
     <g id="line2d_18">
      <g>
       <use xlink:href="#m6379e547f9" x="54" y="210.184615" style="stroke: #000000; stroke-width: 0.8"/>
      </g>
     </g>
     <g id="text_10">
      <!-- −10 -->
      <g transform="translate(25.895312 213.983834)scale(0.1 -0.1)">
       <use xlink:href="#DejaVuSans-2212"/>
       <use xlink:href="#DejaVuSans-31" x="83.789062"/>
       <use xlink:href="#DejaVuSans-30" x="147.412109"/>
      </g>
     </g>
    </g>
    <g id="ytick_3">
     <g id="line2d_19">
      <path d="M 54 176.732308 
L 388.8 176.732308 
" clip-path="url(#p28b36df9c2)" style="fill: none; stroke-dasharray: 2.96,1.28; stroke-dashoffset: 0; stroke: #b0b0b0; stroke-width: 0.8"/>
     </g>
     <g id="line2d_20">
      <g>
       <use xlink:href="#m6379e547f9" x="54" y="176.732308" style="stroke: #000000; stroke-width: 0.8"/>
      </g>
     </g>
     <g id="text_11">
      <!-- −8 -->
      <g transform="translate(32.257812 180.531526)scale(0.1 -0.1)">
       <defs>
        <path id="DejaVuSans-38" d="M 2034 2216 
Q 1584 2216 1326 1975 
Q 1069 1734 1069 1313 
Q 1069 891 1326 650 
Q 1584 409 2034 409 
Q 2484 409 2743 651 
Q 3003 894 3003 1313 
Q 3003 1734 2745 1975 
Q 2488 2216 2034 2216 
z
M 1403 2484 
Q 997 2584 770 2862 
Q 544 3141 544 3541 
Q 544 4100 942 4425 
Q 1341 4750 2034 4750 
Q 2731 4750 3128 4425 
Q 3525 4100 3525 3541 
Q 3525 3141 3298 2862 
Q 3072 2584 2669 2484 
Q 3125 2378 3379 2068 
Q 3634 1759 3634 1313 
Q 3634 634 3220 271 
Q 2806 -91 2034 -91 
Q 1263 -91 848 271 
Q 434 634 434 1313 
Q 434 1759 690 2068 
Q 947 2378 1403 2484 
z
M 1172 3481 
Q 1172 3119 1398 2916 
Q 1625 2713 2034 2713 
Q 2441 2713 2670 2916 
Q 2900 3119 2900 3481 
Q 2900 3844 2670 4047 
Q 2441 4250 2034 4250 
Q 1625 4250 1398 4047 
Q 1172 3844 1172 3481 
z
" transform="scale(0.015625)"/>
       </defs>
       <use xlink:href="#DejaVuSans-2212"/>
       <use xlink:href="#DejaVuSans-38" x="83.789062"/>
      </g>
     </g>
    </g>
    <g id="ytick_4">
     <g id="line2d_21">
      <path d="M 54 143.28 
L 388.8 143.28 
" clip-path="url(#p28b36df9c2)" style="fill: none; stroke-dasharray: 2.96,1.28; stroke-dashoffset: 0; stroke: #b0b0b0; stroke-width: 0.8"/>
     </g>
     <g id="line2d_22">
      <g>
       <use xlink:href="#m6379e547f9" x="54" y="143.28" style="stroke: #000000; stroke-width: 0.8"/>
      </g>
     </g>
     <g id="text_12">
      <!-- −6 -->
      <g transform="translate(32.257812 147.079219)scale(0.1 -0.1)">
       <defs>
        <path id="DejaVuSans-36" d="M 2113 2584 
Q 1688 2584 1439 2293 
Q 1191 2003 1191 1497 
Q 1191 994 1439 701 
Q 1688 409 2113 409 
Q 2538 409 2786 701 
Q 3034 994 3034 1497 
Q 3034 2003 2786 2293 
Q 2538 2584 2113 2584 
z
M 3366 4563 
L 3366 3988 
Q 3128 4100 2886 4159 
Q 2644 4219 2406 4219 
Q 1781 4219 1451 3797 
Q 1122 3375 1075 2522 
Q 1259 2794 1537 2939 
Q 1816 3084 2150 3084 
Q 2853 3084 3261 2657 
Q 3669 2231 3669 1497 
Q 3669 778 3244 343 
Q 2819 -91 2113 -91 
Q 1303 -91 875 529 
Q 447 1150 447 2328 
Q 447 3434 972 4092 
Q 1497 4750 2381 4750 
Q 2619 4750 2861 4703 
Q 3103 4656 3366 4563 
z
" transform="scale(0.015625)"/>
       </defs>
       <use xlink:href="#DejaVuSans-2212"/>
       <use xlink:href="#DejaVuSans-36" x="83.789062"/>
      </g>
     </g>
    </g>
    <g id="ytick_5">
     <g id="line2d_23">
      <path d="M 54 109.827692 
L 388.8 109.827692 
" clip-path="url(#p28b36df9c2)" style="fill: none; stroke-dasharray: 2.96,1.28; stroke-dashoffset: 0; stroke: #b0b0b0; stroke-width: 0.8"/>
     </g>
     <g id="line2d_24">
      <g>
       <use xlink:href="#m6379e547f9" x="54" y="109.827692" style="stroke: #000000; stroke-width: 0.8"/>
      </g>
     </g>
     <g id="text_13">
      <!-- −4 -->
      <g transform="translate(32.257812 113.626911)scale(0.1 -0.1)">
       <defs>
        <path id="DejaVuSans-34" d="M 2419 4116 
L 825 1625 
L 2419 1625 
L 2419 4116 
z
M 2253 4666 
L 3047 4666 
L 3047 1625 
L 3713 1625 
L 3713 1100 
L 3047 1100 
L 3047 0 
L 2419 0 
L 2419 1100 
L 313 1100 
L 313 1709 
L 2253 4666 
z
" transform="scale(0.015625)"/>
       </defs>
       <use xlink:href="#DejaVuSans-2212"/>
       <use xlink:href="#DejaVuSans-34" x="83.789062"/>
      </g>
     </g>
    </g>
    <g id="ytick_6">
     <g id="line2d_25">
      <path d="M 54 76.375385 
L 388.8 76.375385 
" clip-path="url(#p28b36df9c2)" style="fill: none; stroke-dasharray: 2.96,1.28; stroke-dashoffset: 0; stroke: #b0b0b0; stroke-width: 0.8"/>
     </g>
     <g id="line2d_26">
      <g>
       <use xlink:href="#m6379e547f9" x="54" y="76.375385" style="stroke: #000000; stroke-width: 0.8"/>
      </g>
     </g>
     <g id="text_14">
      <!-- −2 -->
      <g transform="translate(32.257812 80.174603)scale(0.1 -0.1)">
       <use xlink:href="#DejaVuSans-2212"/>
       <use xlink:href="#DejaVuSans-32" x="83.789062"/>
      </g>
     </g>
    </g>
    <g id="ytick_7">
     <g id="line2d_27">
      <path d="M 54 42.923077 
L 388.8 42.923077 
" clip-path="url(#p28b36df9c2)" style="fill: none; stroke-dasharray: 2.96,1.28; stroke-dashoffset: 0; stroke: #b0b0b0; stroke-width: 0.8"/>
     </g>
     <g id="line2d_28">
      <g>
       <use xlink:href="#m6379e547f9" x="54" y="42.923077" style="stroke: #000000; stroke-width: 0.8"/>
      </g>
     </g>
     <g id="text_15">
      <!-- 0 -->
      <g transform="translate(40.6375 46.722296)scale(0.1 -0.1)">
       <use xlink:href="#DejaVuSans-30"/>
      </g>
     </g>
    </g>
    <g id="text_16">
     <!-- Policy value error -->
     <g transform="translate(19.815625 186.597969)rotate(-90)scale(0.1 -0.1)">
      <defs>
       <path id="DejaVuSans-50" d="M 1259 4147 
L 1259 2394 
L 2053 2394 
Q 2494 2394 2734 2622 
Q 2975 2850 2975 3272 
Q 2975 3691 2734 3919 
Q 2494 4147 2053 4147 
L 1259 4147 
z
M 628 4666 
L 2053 4666 
Q 2838 4666 3239 4311 
Q 3641 3956 3641 3272 
Q 3641 2581 3239 2228 
Q 2838 1875 2053 1875 
L 1259 1875 
L 1259 0 
L 628 0 
L 628 4666 
z
" transform="scale(0.015625)"/>
       <path id="DejaVuSans-6f" d="M 1959 3097 
Q 1497 3097 1228 2736 
Q 959 2375 959 1747 
Q 959 1119 1226 758 
Q 1494 397 1959 397 
Q 2419 397 2687 759 
Q 2956 1122 2956 1747 
Q 2956 2369 2687 2733 
Q 2419 3097 1959 3097 
z
M 1959 3584 
Q 2709 3584 3137 3096 
Q 3566 2609 3566 1747 
Q 3566 888 3137 398 
Q 2709 -91 1959 -91 
Q 1206 -91 779 398 
Q 353 888 353 1747 
Q 353 2609 779 3096 
Q 1206 3584 1959 3584 
z
" transform="scale(0.015625)"/>
       <path id="DejaVuSans-6c" d="M 603 4863 
L 1178 4863 
L 1178 0 
L 603 0 
L 603 4863 
z
" transform="scale(0.015625)"/>
       <path id="DejaVuSans-69" d="M 603 3500 
L 1178 3500 
L 1178 0 
L 603 0 
L 603 3500 
z
M 603 4863 
L 1178 4863 
L 1178 4134 
L 603 4134 
L 603 4863 
z
" transform="scale(0.015625)"/>
       <path id="DejaVuSans-63" d="M 3122 3366 
L 3122 2828 
Q 2878 2963 2633 3030 
Q 2388 3097 2138 3097 
Q 1578 3097 1268 2742 
Q 959 2388 959 1747 
Q 959 1106 1268 751 
Q 1578 397 2138 397 
Q 2388 397 2633 464 
Q 2878 531 3122 666 
L 3122 134 
Q 2881 22 2623 -34 
Q 2366 -91 2075 -91 
Q 1284 -91 818 406 
Q 353 903 353 1747 
Q 353 2603 823 3093 
Q 1294 3584 2113 3584 
Q 2378 3584 2631 3529 
Q 2884 3475 3122 3366 
z
" transform="scale(0.015625)"/>
       <path id="DejaVuSans-79" d="M 2059 -325 
Q 1816 -950 1584 -1140 
Q 1353 -1331 966 -1331 
L 506 -1331 
L 506 -850 
L 844 -850 
Q 1081 -850 1212 -737 
Q 1344 -625 1503 -206 
L 1606 56 
L 191 3500 
L 800 3500 
L 1894 763 
L 2988 3500 
L 3597 3500 
L 2059 -325 
z
" transform="scale(0.015625)"/>
       <path id="DejaVuSans-20" transform="scale(0.015625)"/>
       <path id="DejaVuSans-76" d="M 191 3500 
L 800 3500 
L 1894 563 
L 2988 3500 
L 3597 3500 
L 2284 0 
L 1503 0 
L 191 3500 
z
" transform="scale(0.015625)"/>
       <path id="DejaVuSans-61" d="M 2194 1759 
Q 1497 1759 1228 1600 
Q 959 1441 959 1056 
Q 959 750 1161 570 
Q 1363 391 1709 391 
Q 2188 391 2477 730 
Q 2766 1069 2766 1631 
L 2766 1759 
L 2194 1759 
z
M 3341 1997 
L 3341 0 
L 2766 0 
L 2766 531 
Q 2569 213 2275 61 
Q 1981 -91 1556 -91 
Q 1019 -91 701 211 
Q 384 513 384 1019 
Q 384 1609 779 1909 
Q 1175 2209 1959 2209 
L 2766 2209 
L 2766 2266 
Q 2766 2663 2505 2880 
Q 2244 3097 1772 3097 
Q 1472 3097 1187 3025 
Q 903 2953 641 2809 
L 641 3341 
Q 956 3463 1253 3523 
Q 1550 3584 1831 3584 
Q 2591 3584 2966 3190 
Q 3341 2797 3341 1997 
z
" transform="scale(0.015625)"/>
       <path id="DejaVuSans-75" d="M 544 1381 
L 544 3500 
L 1119 3500 
L 1119 1403 
Q 1119 906 1312 657 
Q 1506 409 1894 409 
Q 2359 409 2629 706 
Q 2900 1003 2900 1516 
L 2900 3500 
L 3475 3500 
L 3475 0 
L 2900 0 
L 2900 538 
Q 2691 219 2414 64 
Q 2138 -91 1772 -91 
Q 1169 -91 856 284 
Q 544 659 544 1381 
z
M 1991 3584 
L 1991 3584 
z
" transform="scale(0.015625)"/>
       <path id="DejaVuSans-72" d="M 2631 2963 
Q 2534 3019 2420 3045 
Q 2306 3072 2169 3072 
Q 1681 3072 1420 2755 
Q 1159 2438 1159 1844 
L 1159 0 
L 581 0 
L 581 3500 
L 1159 3500 
L 1159 2956 
Q 1341 3275 1631 3429 
Q 1922 3584 2338 3584 
Q 2397 3584 2469 3576 
Q 2541 3569 2628 3553 
L 2631 2963 
z
" transform="scale(0.015625)"/>
      </defs>
      <use xlink:href="#DejaVuSans-50"/>
      <use xlink:href="#DejaVuSans-6f" x="56.677734"/>
      <use xlink:href="#DejaVuSans-6c" x="117.859375"/>
      <use xlink:href="#DejaVuSans-69" x="145.642578"/>
      <use xlink:href="#DejaVuSans-63" x="173.425781"/>
      <use xlink:href="#DejaVuSans-79" x="228.40625"/>
      <use xlink:href="#DejaVuSans-20" x="287.585938"/>
      <use xlink:href="#DejaVuSans-76" x="319.373047"/>
      <use xlink:href="#DejaVuSans-61" x="378.552734"/>
      <use xlink:href="#DejaVuSans-6c" x="439.832031"/>
      <use xlink:href="#DejaVuSans-75" x="467.615234"/>
      <use xlink:href="#DejaVuSans-65" x="530.994141"/>
      <use xlink:href="#DejaVuSans-20" x="592.517578"/>
      <use xlink:href="#DejaVuSans-65" x="624.304688"/>
      <use xlink:href="#DejaVuSans-72" x="685.828125"/>
      <use xlink:href="#DejaVuSans-72" x="725.191406"/>
      <use xlink:href="#DejaVuSans-6f" x="764.054688"/>
      <use xlink:href="#DejaVuSans-72" x="825.236328"/>
     </g>
    </g>
   </g>
   <g id="line2d_29">
    <path d="M 69.218182 254.521204 
L 74.376888 253.204895 
L 79.535593 253.215853 
L 84.694299 253.273537 
L 89.853005 107.991673 
L 95.01171 56.153792 
L 100.170416 55.894251 
L 105.329122 56.397558 
L 110.487827 56.153792 
L 115.646533 63.864197 
L 120.805239 53.491748 
L 125.963945 46.661336 
L 131.12265 46.661336 
L 136.281356 44.848744 
L 141.440062 45.56432 
L 146.598767 55.685921 
L 151.757473 50.0254 
L 156.916179 54.18386 
L 162.074884 50.302168 
L 167.23359 44.176216 
L 172.392296 43.348295 
L 177.551002 43.180561 
L 182.709707 43.180561 
L 187.868413 43.180561 
L 193.027119 43.180561 
L 198.185824 44.274185 
L 203.34453 43.823721 
L 208.503236 42.938932 
L 213.661941 47.337061 
L 218.820647 42.927245 
L 223.979353 42.927245 
L 229.138059 42.927245 
L 234.296764 46.919747 
L 239.45547 46.919747 
L 244.614176 46.919747 
L 249.772881 46.919747 
L 254.931587 47.033939 
L 260.090293 47.033235 
L 265.248998 47.033235 
L 270.407704 47.1155 
L 275.56641 47.1155 
L 280.725116 46.871255 
L 285.883821 47.1155 
L 291.042527 47.1155 
L 296.201233 47.115585 
L 301.359938 47.115585 
L 306.518644 47.115585 
L 311.67735 47.115585 
L 316.836055 47.004433 
L 321.994761 47.004433 
L 327.153467 47.004433 
L 332.312173 47.004433 
L 337.470878 47.194885 
L 342.629584 47.194885 
L 347.78829 47.194885 
L 352.946995 47.194885 
L 358.105701 47.194885 
L 363.264407 47.194885 
L 368.423112 47.194885 
L 373.581818 47.194885 
" clip-path="url(#p28b36df9c2)" style="fill: none; stroke: #9d02d7; stroke-width: 1.5; stroke-linecap: square"/>
    <defs>
     <path id="m8824fadf69" d="M 0 -2 
L -2 2 
L 2 2 
z
" style="stroke: #9d02d7; stroke-linejoin: miter"/>
    </defs>
    <g clip-path="url(#p28b36df9c2)">
     <use xlink:href="#m8824fadf69" x="69.218182" y="254.521204" style="fill: #9d02d7; stroke: #9d02d7; stroke-linejoin: miter"/>
     <use xlink:href="#m8824fadf69" x="74.376888" y="253.204895" style="fill: #9d02d7; stroke: #9d02d7; stroke-linejoin: miter"/>
     <use xlink:href="#m8824fadf69" x="79.535593" y="253.215853" style="fill: #9d02d7; stroke: #9d02d7; stroke-linejoin: miter"/>
     <use xlink:href="#m8824fadf69" x="84.694299" y="253.273537" style="fill: #9d02d7; stroke: #9d02d7; stroke-linejoin: miter"/>
     <use xlink:href="#m8824fadf69" x="89.853005" y="107.991673" style="fill: #9d02d7; stroke: #9d02d7; stroke-linejoin: miter"/>
     <use xlink:href="#m8824fadf69" x="95.01171" y="56.153792" style="fill: #9d02d7; stroke: #9d02d7; stroke-linejoin: miter"/>
     <use xlink:href="#m8824fadf69" x="100.170416" y="55.894251" style="fill: #9d02d7; stroke: #9d02d7; stroke-linejoin: miter"/>
     <use xlink:href="#m8824fadf69" x="105.329122" y="56.397558" style="fill: #9d02d7; stroke: #9d02d7; stroke-linejoin: miter"/>
     <use xlink:href="#m8824fadf69" x="110.487827" y="56.153792" style="fill: #9d02d7; stroke: #9d02d7; stroke-linejoin: miter"/>
     <use xlink:href="#m8824fadf69" x="115.646533" y="63.864197" style="fill: #9d02d7; stroke: #9d02d7; stroke-linejoin: miter"/>
     <use xlink:href="#m8824fadf69" x="120.805239" y="53.491748" style="fill: #9d02d7; stroke: #9d02d7; stroke-linejoin: miter"/>
     <use xlink:href="#m8824fadf69" x="125.963945" y="46.661336" style="fill: #9d02d7; stroke: #9d02d7; stroke-linejoin: miter"/>
     <use xlink:href="#m8824fadf69" x="131.12265" y="46.661336" style="fill: #9d02d7; stroke: #9d02d7; stroke-linejoin: miter"/>
     <use xlink:href="#m8824fadf69" x="136.281356" y="44.848744" style="fill: #9d02d7; stroke: #9d02d7; stroke-linejoin: miter"/>
     <use xlink:href="#m8824fadf69" x="141.440062" y="45.56432" style="fill: #9d02d7; stroke: #9d02d7; stroke-linejoin: miter"/>
     <use xlink:href="#m8824fadf69" x="146.598767" y="55.685921" style="fill: #9d02d7; stroke: #9d02d7; stroke-linejoin: miter"/>
     <use xlink:href="#m8824fadf69" x="151.757473" y="50.0254" style="fill: #9d02d7; stroke: #9d02d7; stroke-linejoin: miter"/>
     <use xlink:href="#m8824fadf69" x="156.916179" y="54.18386" style="fill: #9d02d7; stroke: #9d02d7; stroke-linejoin: miter"/>
     <use xlink:href="#m8824fadf69" x="162.074884" y="50.302168" style="fill: #9d02d7; stroke: #9d02d7; stroke-linejoin: miter"/>
     <use xlink:href="#m8824fadf69" x="167.23359" y="44.176216" style="fill: #9d02d7; stroke: #9d02d7; stroke-linejoin: miter"/>
     <use xlink:href="#m8824fadf69" x="172.392296" y="43.348295" style="fill: #9d02d7; stroke: #9d02d7; stroke-linejoin: miter"/>
     <use xlink:href="#m8824fadf69" x="177.551002" y="43.180561" style="fill: #9d02d7; stroke: #9d02d7; stroke-linejoin: miter"/>
     <use xlink:href="#m8824fadf69" x="182.709707" y="43.180561" style="fill: #9d02d7; stroke: #9d02d7; stroke-linejoin: miter"/>
     <use xlink:href="#m8824fadf69" x="187.868413" y="43.180561" style="fill: #9d02d7; stroke: #9d02d7; stroke-linejoin: miter"/>
     <use xlink:href="#m8824fadf69" x="193.027119" y="43.180561" style="fill: #9d02d7; stroke: #9d02d7; stroke-linejoin: miter"/>
     <use xlink:href="#m8824fadf69" x="198.185824" y="44.274185" style="fill: #9d02d7; stroke: #9d02d7; stroke-linejoin: miter"/>
     <use xlink:href="#m8824fadf69" x="203.34453" y="43.823721" style="fill: #9d02d7; stroke: #9d02d7; stroke-linejoin: miter"/>
     <use xlink:href="#m8824fadf69" x="208.503236" y="42.938932" style="fill: #9d02d7; stroke: #9d02d7; stroke-linejoin: miter"/>
     <use xlink:href="#m8824fadf69" x="213.661941" y="47.337061" style="fill: #9d02d7; stroke: #9d02d7; stroke-linejoin: miter"/>
     <use xlink:href="#m8824fadf69" x="218.820647" y="42.927245" style="fill: #9d02d7; stroke: #9d02d7; stroke-linejoin: miter"/>
     <use xlink:href="#m8824fadf69" x="223.979353" y="42.927245" style="fill: #9d02d7; stroke: #9d02d7; stroke-linejoin: miter"/>
     <use xlink:href="#m8824fadf69" x="229.138059" y="42.927245" style="fill: #9d02d7; stroke: #9d02d7; stroke-linejoin: miter"/>
     <use xlink:href="#m8824fadf69" x="234.296764" y="46.919747" style="fill: #9d02d7; stroke: #9d02d7; stroke-linejoin: miter"/>
     <use xlink:href="#m8824fadf69" x="239.45547" y="46.919747" style="fill: #9d02d7; stroke: #9d02d7; stroke-linejoin: miter"/>
     <use xlink:href="#m8824fadf69" x="244.614176" y="46.919747" style="fill: #9d02d7; stroke: #9d02d7; stroke-linejoin: miter"/>
     <use xlink:href="#m8824fadf69" x="249.772881" y="46.919747" style="fill: #9d02d7; stroke: #9d02d7; stroke-linejoin: miter"/>
     <use xlink:href="#m8824fadf69" x="254.931587" y="47.033939" style="fill: #9d02d7; stroke: #9d02d7; stroke-linejoin: miter"/>
     <use xlink:href="#m8824fadf69" x="260.090293" y="47.033235" style="fill: #9d02d7; stroke: #9d02d7; stroke-linejoin: miter"/>
     <use xlink:href="#m8824fadf69" x="265.248998" y="47.033235" style="fill: #9d02d7; stroke: #9d02d7; stroke-linejoin: miter"/>
     <use xlink:href="#m8824fadf69" x="270.407704" y="47.1155" style="fill: #9d02d7; stroke: #9d02d7; stroke-linejoin: miter"/>
     <use xlink:href="#m8824fadf69" x="275.56641" y="47.1155" style="fill: #9d02d7; stroke: #9d02d7; stroke-linejoin: miter"/>
     <use xlink:href="#m8824fadf69" x="280.725116" y="46.871255" style="fill: #9d02d7; stroke: #9d02d7; stroke-linejoin: miter"/>
     <use xlink:href="#m8824fadf69" x="285.883821" y="47.1155" style="fill: #9d02d7; stroke: #9d02d7; stroke-linejoin: miter"/>
     <use xlink:href="#m8824fadf69" x="291.042527" y="47.1155" style="fill: #9d02d7; stroke: #9d02d7; stroke-linejoin: miter"/>
     <use xlink:href="#m8824fadf69" x="296.201233" y="47.115585" style="fill: #9d02d7; stroke: #9d02d7; stroke-linejoin: miter"/>
     <use xlink:href="#m8824fadf69" x="301.359938" y="47.115585" style="fill: #9d02d7; stroke: #9d02d7; stroke-linejoin: miter"/>
     <use xlink:href="#m8824fadf69" x="306.518644" y="47.115585" style="fill: #9d02d7; stroke: #9d02d7; stroke-linejoin: miter"/>
     <use xlink:href="#m8824fadf69" x="311.67735" y="47.115585" style="fill: #9d02d7; stroke: #9d02d7; stroke-linejoin: miter"/>
     <use xlink:href="#m8824fadf69" x="316.836055" y="47.004433" style="fill: #9d02d7; stroke: #9d02d7; stroke-linejoin: miter"/>
     <use xlink:href="#m8824fadf69" x="321.994761" y="47.004433" style="fill: #9d02d7; stroke: #9d02d7; stroke-linejoin: miter"/>
     <use xlink:href="#m8824fadf69" x="327.153467" y="47.004433" style="fill: #9d02d7; stroke: #9d02d7; stroke-linejoin: miter"/>
     <use xlink:href="#m8824fadf69" x="332.312173" y="47.004433" style="fill: #9d02d7; stroke: #9d02d7; stroke-linejoin: miter"/>
     <use xlink:href="#m8824fadf69" x="337.470878" y="47.194885" style="fill: #9d02d7; stroke: #9d02d7; stroke-linejoin: miter"/>
     <use xlink:href="#m8824fadf69" x="342.629584" y="47.194885" style="fill: #9d02d7; stroke: #9d02d7; stroke-linejoin: miter"/>
     <use xlink:href="#m8824fadf69" x="347.78829" y="47.194885" style="fill: #9d02d7; stroke: #9d02d7; stroke-linejoin: miter"/>
     <use xlink:href="#m8824fadf69" x="352.946995" y="47.194885" style="fill: #9d02d7; stroke: #9d02d7; stroke-linejoin: miter"/>
     <use xlink:href="#m8824fadf69" x="358.105701" y="47.194885" style="fill: #9d02d7; stroke: #9d02d7; stroke-linejoin: miter"/>
     <use xlink:href="#m8824fadf69" x="363.264407" y="47.194885" style="fill: #9d02d7; stroke: #9d02d7; stroke-linejoin: miter"/>
     <use xlink:href="#m8824fadf69" x="368.423112" y="47.194885" style="fill: #9d02d7; stroke: #9d02d7; stroke-linejoin: miter"/>
     <use xlink:href="#m8824fadf69" x="373.581818" y="47.194885" style="fill: #9d02d7; stroke: #9d02d7; stroke-linejoin: miter"/>
    </g>
   </g>
   <g id="line2d_30">
    <path d="M 69.218182 251.97173 
L 74.376888 248.112486 
L 79.535593 253.111911 
L 84.694299 183.232303 
L 89.853005 224.594463 
L 95.01171 170.871821 
L 100.170416 62.620801 
L 105.329122 65.707609 
L 110.487827 72.365348 
L 115.646533 73.39159 
L 120.805239 80.067388 
L 125.963945 72.419214 
L 131.12265 66.821549 
L 136.281356 72.593489 
L 141.440062 63.03512 
L 146.598767 46.567933 
L 151.757473 42.924097 
L 156.916179 46.919646 
L 162.074884 46.919546 
L 167.23359 46.919546 
L 172.392296 46.919546 
L 177.551002 46.919524 
L 182.709707 46.919546 
L 187.868413 46.919646 
L 193.027119 46.919546 
L 198.185824 46.919646 
L 203.34453 42.923085 
L 208.503236 42.923085 
L 213.661941 45.955927 
L 218.820647 42.923266 
L 223.979353 42.924097 
L 229.138059 42.927426 
L 234.296764 42.927426 
L 239.45547 45.960075 
L 244.614176 61.470959 
L 249.772881 45.960075 
L 254.931587 45.960075 
L 260.090293 45.960075 
L 265.248998 45.960075 
L 270.407704 45.960075 
L 275.56641 45.960075 
L 280.725116 45.960075 
L 285.883821 45.960075 
L 291.042527 45.957124 
L 296.201233 50.149525 
L 301.359938 42.92429 
L 306.518644 47.623323 
L 311.67735 42.927245 
L 316.836055 42.927245 
L 321.994761 48.082132 
L 327.153467 43.28267 
L 332.312173 43.28267 
L 337.470878 43.28267 
L 342.629584 42.927245 
L 347.78829 42.927245 
L 352.946995 42.927245 
L 358.105701 42.927245 
L 363.264407 42.927245 
L 368.423112 42.927245 
L 373.581818 42.927245 
" clip-path="url(#p28b36df9c2)" style="fill: none; stroke: #0000ff; stroke-width: 1.5; stroke-linecap: square"/>
    <defs>
     <path id="m61f2b714e8" d="M 0 2 
C 0.530406 2 1.03916 1.789267 1.414214 1.414214 
C 1.789267 1.03916 2 0.530406 2 0 
C 2 -0.530406 1.789267 -1.03916 1.414214 -1.414214 
C 1.03916 -1.789267 0.530406 -2 0 -2 
C -0.530406 -2 -1.03916 -1.789267 -1.414214 -1.414214 
C -1.789267 -1.03916 -2 -0.530406 -2 0 
C -2 0.530406 -1.789267 1.03916 -1.414214 1.414214 
C -1.03916 1.789267 -0.530406 2 0 2 
z
" style="stroke: #0000ff"/>
    </defs>
    <g clip-path="url(#p28b36df9c2)">
     <use xlink:href="#m61f2b714e8" x="69.218182" y="251.97173" style="fill: #0000ff; stroke: #0000ff"/>
     <use xlink:href="#m61f2b714e8" x="74.376888" y="248.112486" style="fill: #0000ff; stroke: #0000ff"/>
     <use xlink:href="#m61f2b714e8" x="79.535593" y="253.111911" style="fill: #0000ff; stroke: #0000ff"/>
     <use xlink:href="#m61f2b714e8" x="84.694299" y="183.232303" style="fill: #0000ff; stroke: #0000ff"/>
     <use xlink:href="#m61f2b714e8" x="89.853005" y="224.594463" style="fill: #0000ff; stroke: #0000ff"/>
     <use xlink:href="#m61f2b714e8" x="95.01171" y="170.871821" style="fill: #0000ff; stroke: #0000ff"/>
     <use xlink:href="#m61f2b714e8" x="100.170416" y="62.620801" style="fill: #0000ff; stroke: #0000ff"/>
     <use xlink:href="#m61f2b714e8" x="105.329122" y="65.707609" style="fill: #0000ff; stroke: #0000ff"/>
     <use xlink:href="#m61f2b714e8" x="110.487827" y="72.365348" style="fill: #0000ff; stroke: #0000ff"/>
     <use xlink:href="#m61f2b714e8" x="115.646533" y="73.39159" style="fill: #0000ff; stroke: #0000ff"/>
     <use xlink:href="#m61f2b714e8" x="120.805239" y="80.067388" style="fill: #0000ff; stroke: #0000ff"/>
     <use xlink:href="#m61f2b714e8" x="125.963945" y="72.419214" style="fill: #0000ff; stroke: #0000ff"/>
     <use xlink:href="#m61f2b714e8" x="131.12265" y="66.821549" style="fill: #0000ff; stroke: #0000ff"/>
     <use xlink:href="#m61f2b714e8" x="136.281356" y="72.593489" style="fill: #0000ff; stroke: #0000ff"/>
     <use xlink:href="#m61f2b714e8" x="141.440062" y="63.03512" style="fill: #0000ff; stroke: #0000ff"/>
     <use xlink:href="#m61f2b714e8" x="146.598767" y="46.567933" style="fill: #0000ff; stroke: #0000ff"/>
     <use xlink:href="#m61f2b714e8" x="151.757473" y="42.924097" style="fill: #0000ff; stroke: #0000ff"/>
     <use xlink:href="#m61f2b714e8" x="156.916179" y="46.919646" style="fill: #0000ff; stroke: #0000ff"/>
     <use xlink:href="#m61f2b714e8" x="162.074884" y="46.919546" style="fill: #0000ff; stroke: #0000ff"/>
     <use xlink:href="#m61f2b714e8" x="167.23359" y="46.919546" style="fill: #0000ff; stroke: #0000ff"/>
     <use xlink:href="#m61f2b714e8" x="172.392296" y="46.919546" style="fill: #0000ff; stroke: #0000ff"/>
     <use xlink:href="#m61f2b714e8" x="177.551002" y="46.919524" style="fill: #0000ff; stroke: #0000ff"/>
     <use xlink:href="#m61f2b714e8" x="182.709707" y="46.919546" style="fill: #0000ff; stroke: #0000ff"/>
     <use xlink:href="#m61f2b714e8" x="187.868413" y="46.919646" style="fill: #0000ff; stroke: #0000ff"/>
     <use xlink:href="#m61f2b714e8" x="193.027119" y="46.919546" style="fill: #0000ff; stroke: #0000ff"/>
     <use xlink:href="#m61f2b714e8" x="198.185824" y="46.919646" style="fill: #0000ff; stroke: #0000ff"/>
     <use xlink:href="#m61f2b714e8" x="203.34453" y="42.923085" style="fill: #0000ff; stroke: #0000ff"/>
     <use xlink:href="#m61f2b714e8" x="208.503236" y="42.923085" style="fill: #0000ff; stroke: #0000ff"/>
     <use xlink:href="#m61f2b714e8" x="213.661941" y="45.955927" style="fill: #0000ff; stroke: #0000ff"/>
     <use xlink:href="#m61f2b714e8" x="218.820647" y="42.923266" style="fill: #0000ff; stroke: #0000ff"/>
     <use xlink:href="#m61f2b714e8" x="223.979353" y="42.924097" style="fill: #0000ff; stroke: #0000ff"/>
     <use xlink:href="#m61f2b714e8" x="229.138059" y="42.927426" style="fill: #0000ff; stroke: #0000ff"/>
     <use xlink:href="#m61f2b714e8" x="234.296764" y="42.927426" style="fill: #0000ff; stroke: #0000ff"/>
     <use xlink:href="#m61f2b714e8" x="239.45547" y="45.960075" style="fill: #0000ff; stroke: #0000ff"/>
     <use xlink:href="#m61f2b714e8" x="244.614176" y="61.470959" style="fill: #0000ff; stroke: #0000ff"/>
     <use xlink:href="#m61f2b714e8" x="249.772881" y="45.960075" style="fill: #0000ff; stroke: #0000ff"/>
     <use xlink:href="#m61f2b714e8" x="254.931587" y="45.960075" style="fill: #0000ff; stroke: #0000ff"/>
     <use xlink:href="#m61f2b714e8" x="260.090293" y="45.960075" style="fill: #0000ff; stroke: #0000ff"/>
     <use xlink:href="#m61f2b714e8" x="265.248998" y="45.960075" style="fill: #0000ff; stroke: #0000ff"/>
     <use xlink:href="#m61f2b714e8" x="270.407704" y="45.960075" style="fill: #0000ff; stroke: #0000ff"/>
     <use xlink:href="#m61f2b714e8" x="275.56641" y="45.960075" style="fill: #0000ff; stroke: #0000ff"/>
     <use xlink:href="#m61f2b714e8" x="280.725116" y="45.960075" style="fill: #0000ff; stroke: #0000ff"/>
     <use xlink:href="#m61f2b714e8" x="285.883821" y="45.960075" style="fill: #0000ff; stroke: #0000ff"/>
     <use xlink:href="#m61f2b714e8" x="291.042527" y="45.957124" style="fill: #0000ff; stroke: #0000ff"/>
     <use xlink:href="#m61f2b714e8" x="296.201233" y="50.149525" style="fill: #0000ff; stroke: #0000ff"/>
     <use xlink:href="#m61f2b714e8" x="301.359938" y="42.92429" style="fill: #0000ff; stroke: #0000ff"/>
     <use xlink:href="#m61f2b714e8" x="306.518644" y="47.623323" style="fill: #0000ff; stroke: #0000ff"/>
     <use xlink:href="#m61f2b714e8" x="311.67735" y="42.927245" style="fill: #0000ff; stroke: #0000ff"/>
     <use xlink:href="#m61f2b714e8" x="316.836055" y="42.927245" style="fill: #0000ff; stroke: #0000ff"/>
     <use xlink:href="#m61f2b714e8" x="321.994761" y="48.082132" style="fill: #0000ff; stroke: #0000ff"/>
     <use xlink:href="#m61f2b714e8" x="327.153467" y="43.28267" style="fill: #0000ff; stroke: #0000ff"/>
     <use xlink:href="#m61f2b714e8" x="332.312173" y="43.28267" style="fill: #0000ff; stroke: #0000ff"/>
     <use xlink:href="#m61f2b714e8" x="337.470878" y="43.28267" style="fill: #0000ff; stroke: #0000ff"/>
     <use xlink:href="#m61f2b714e8" x="342.629584" y="42.927245" style="fill: #0000ff; stroke: #0000ff"/>
     <use xlink:href="#m61f2b714e8" x="347.78829" y="42.927245" style="fill: #0000ff; stroke: #0000ff"/>
     <use xlink:href="#m61f2b714e8" x="352.946995" y="42.927245" style="fill: #0000ff; stroke: #0000ff"/>
     <use xlink:href="#m61f2b714e8" x="358.105701" y="42.927245" style="fill: #0000ff; stroke: #0000ff"/>
     <use xlink:href="#m61f2b714e8" x="363.264407" y="42.927245" style="fill: #0000ff; stroke: #0000ff"/>
     <use xlink:href="#m61f2b714e8" x="368.423112" y="42.927245" style="fill: #0000ff; stroke: #0000ff"/>
     <use xlink:href="#m61f2b714e8" x="373.581818" y="42.927245" style="fill: #0000ff; stroke: #0000ff"/>
    </g>
   </g>
   <g id="line2d_31">
    <path d="M 69.218182 256.433385 
L 74.376888 253.064083 
L 79.535593 240.765258 
L 84.694299 253.588897 
L 89.853005 252.322592 
L 95.01171 242.808652 
L 100.170416 216.588392 
L 105.329122 215.3451 
L 110.487827 188.426308 
L 115.646533 149.316881 
L 120.805239 237.844046 
L 125.963945 145.704527 
L 131.12265 46.936014 
L 136.281356 54.687924 
L 141.440062 54.688109 
L 146.598767 48.51541 
L 151.757473 48.479648 
L 156.916179 49.443928 
L 162.074884 47.76163 
L 167.23359 45.53922 
L 172.392296 44.557853 
L 177.551002 44.391623 
L 182.709707 44.998186 
L 187.868413 47.816426 
L 193.027119 45.237099 
L 198.185824 70.47346 
L 203.34453 44.3872 
L 208.503236 45.411177 
L 213.661941 44.257185 
L 218.820647 45.411177 
L 223.979353 44.257185 
L 229.138059 45.166013 
L 234.296764 45.166013 
L 239.45547 69.665894 
L 244.614176 68.981211 
L 249.772881 50.887865 
L 254.931587 45.453695 
L 260.090293 45.453695 
L 265.248998 45.411177 
L 270.407704 45.453695 
L 275.56641 45.411177 
L 280.725116 45.453695 
L 285.883821 45.453695 
L 291.042527 45.453695 
L 296.201233 45.31536 
L 301.359938 45.31536 
L 306.518644 45.453695 
L 311.67735 45.453695 
L 316.836055 45.603404 
L 321.994761 45.602181 
L 327.153467 45.602181 
L 332.312173 45.453695 
L 337.470878 45.409996 
L 342.629584 45.409996 
L 347.78829 45.409996 
L 352.946995 45.409996 
L 358.105701 45.409996 
L 363.264407 45.452514 
L 368.423112 45.452514 
L 373.581818 45.452514 
" clip-path="url(#p28b36df9c2)" style="fill: none; stroke: #ff7763; stroke-width: 1.5; stroke-linecap: square"/>
    <defs>
     <path id="m02285000fb" d="M -2 2 
L 2 -2 
M -2 -2 
L 2 2 
" style="stroke: #ff7763"/>
    </defs>
    <g clip-path="url(#p28b36df9c2)">
     <use xlink:href="#m02285000fb" x="69.218182" y="256.433385" style="fill: #ff7763; stroke: #ff7763"/>
     <use xlink:href="#m02285000fb" x="74.376888" y="253.064083" style="fill: #ff7763; stroke: #ff7763"/>
     <use xlink:href="#m02285000fb" x="79.535593" y="240.765258" style="fill: #ff7763; stroke: #ff7763"/>
     <use xlink:href="#m02285000fb" x="84.694299" y="253.588897" style="fill: #ff7763; stroke: #ff7763"/>
     <use xlink:href="#m02285000fb" x="89.853005" y="252.322592" style="fill: #ff7763; stroke: #ff7763"/>
     <use xlink:href="#m02285000fb" x="95.01171" y="242.808652" style="fill: #ff7763; stroke: #ff7763"/>
     <use xlink:href="#m02285000fb" x="100.170416" y="216.588392" style="fill: #ff7763; stroke: #ff7763"/>
     <use xlink:href="#m02285000fb" x="105.329122" y="215.3451" style="fill: #ff7763; stroke: #ff7763"/>
     <use xlink:href="#m02285000fb" x="110.487827" y="188.426308" style="fill: #ff7763; stroke: #ff7763"/>
     <use xlink:href="#m02285000fb" x="115.646533" y="149.316881" style="fill: #ff7763; stroke: #ff7763"/>
     <use xlink:href="#m02285000fb" x="120.805239" y="237.844046" style="fill: #ff7763; stroke: #ff7763"/>
     <use xlink:href="#m02285000fb" x="125.963945" y="145.704527" style="fill: #ff7763; stroke: #ff7763"/>
     <use xlink:href="#m02285000fb" x="131.12265" y="46.936014" style="fill: #ff7763; stroke: #ff7763"/>
     <use xlink:href="#m02285000fb" x="136.281356" y="54.687924" style="fill: #ff7763; stroke: #ff7763"/>
     <use xlink:href="#m02285000fb" x="141.440062" y="54.688109" style="fill: #ff7763; stroke: #ff7763"/>
     <use xlink:href="#m02285000fb" x="146.598767" y="48.51541" style="fill: #ff7763; stroke: #ff7763"/>
     <use xlink:href="#m02285000fb" x="151.757473" y="48.479648" style="fill: #ff7763; stroke: #ff7763"/>
     <use xlink:href="#m02285000fb" x="156.916179" y="49.443928" style="fill: #ff7763; stroke: #ff7763"/>
     <use xlink:href="#m02285000fb" x="162.074884" y="47.76163" style="fill: #ff7763; stroke: #ff7763"/>
     <use xlink:href="#m02285000fb" x="167.23359" y="45.53922" style="fill: #ff7763; stroke: #ff7763"/>
     <use xlink:href="#m02285000fb" x="172.392296" y="44.557853" style="fill: #ff7763; stroke: #ff7763"/>
     <use xlink:href="#m02285000fb" x="177.551002" y="44.391623" style="fill: #ff7763; stroke: #ff7763"/>
     <use xlink:href="#m02285000fb" x="182.709707" y="44.998186" style="fill: #ff7763; stroke: #ff7763"/>
     <use xlink:href="#m02285000fb" x="187.868413" y="47.816426" style="fill: #ff7763; stroke: #ff7763"/>
     <use xlink:href="#m02285000fb" x="193.027119" y="45.237099" style="fill: #ff7763; stroke: #ff7763"/>
     <use xlink:href="#m02285000fb" x="198.185824" y="70.47346" style="fill: #ff7763; stroke: #ff7763"/>
     <use xlink:href="#m02285000fb" x="203.34453" y="44.3872" style="fill: #ff7763; stroke: #ff7763"/>
     <use xlink:href="#m02285000fb" x="208.503236" y="45.411177" style="fill: #ff7763; stroke: #ff7763"/>
     <use xlink:href="#m02285000fb" x="213.661941" y="44.257185" style="fill: #ff7763; stroke: #ff7763"/>
     <use xlink:href="#m02285000fb" x="218.820647" y="45.411177" style="fill: #ff7763; stroke: #ff7763"/>
     <use xlink:href="#m02285000fb" x="223.979353" y="44.257185" style="fill: #ff7763; stroke: #ff7763"/>
     <use xlink:href="#m02285000fb" x="229.138059" y="45.166013" style="fill: #ff7763; stroke: #ff7763"/>
     <use xlink:href="#m02285000fb" x="234.296764" y="45.166013" style="fill: #ff7763; stroke: #ff7763"/>
     <use xlink:href="#m02285000fb" x="239.45547" y="69.665894" style="fill: #ff7763; stroke: #ff7763"/>
     <use xlink:href="#m02285000fb" x="244.614176" y="68.981211" style="fill: #ff7763; stroke: #ff7763"/>
     <use xlink:href="#m02285000fb" x="249.772881" y="50.887865" style="fill: #ff7763; stroke: #ff7763"/>
     <use xlink:href="#m02285000fb" x="254.931587" y="45.453695" style="fill: #ff7763; stroke: #ff7763"/>
     <use xlink:href="#m02285000fb" x="260.090293" y="45.453695" style="fill: #ff7763; stroke: #ff7763"/>
     <use xlink:href="#m02285000fb" x="265.248998" y="45.411177" style="fill: #ff7763; stroke: #ff7763"/>
     <use xlink:href="#m02285000fb" x="270.407704" y="45.453695" style="fill: #ff7763; stroke: #ff7763"/>
     <use xlink:href="#m02285000fb" x="275.56641" y="45.411177" style="fill: #ff7763; stroke: #ff7763"/>
     <use xlink:href="#m02285000fb" x="280.725116" y="45.453695" style="fill: #ff7763; stroke: #ff7763"/>
     <use xlink:href="#m02285000fb" x="285.883821" y="45.453695" style="fill: #ff7763; stroke: #ff7763"/>
     <use xlink:href="#m02285000fb" x="291.042527" y="45.453695" style="fill: #ff7763; stroke: #ff7763"/>
     <use xlink:href="#m02285000fb" x="296.201233" y="45.31536" style="fill: #ff7763; stroke: #ff7763"/>
     <use xlink:href="#m02285000fb" x="301.359938" y="45.31536" style="fill: #ff7763; stroke: #ff7763"/>
     <use xlink:href="#m02285000fb" x="306.518644" y="45.453695" style="fill: #ff7763; stroke: #ff7763"/>
     <use xlink:href="#m02285000fb" x="311.67735" y="45.453695" style="fill: #ff7763; stroke: #ff7763"/>
     <use xlink:href="#m02285000fb" x="316.836055" y="45.603404" style="fill: #ff7763; stroke: #ff7763"/>
     <use xlink:href="#m02285000fb" x="321.994761" y="45.602181" style="fill: #ff7763; stroke: #ff7763"/>
     <use xlink:href="#m02285000fb" x="327.153467" y="45.602181" style="fill: #ff7763; stroke: #ff7763"/>
     <use xlink:href="#m02285000fb" x="332.312173" y="45.453695" style="fill: #ff7763; stroke: #ff7763"/>
     <use xlink:href="#m02285000fb" x="337.470878" y="45.409996" style="fill: #ff7763; stroke: #ff7763"/>
     <use xlink:href="#m02285000fb" x="342.629584" y="45.409996" style="fill: #ff7763; stroke: #ff7763"/>
     <use xlink:href="#m02285000fb" x="347.78829" y="45.409996" style="fill: #ff7763; stroke: #ff7763"/>
     <use xlink:href="#m02285000fb" x="352.946995" y="45.409996" style="fill: #ff7763; stroke: #ff7763"/>
     <use xlink:href="#m02285000fb" x="358.105701" y="45.409996" style="fill: #ff7763; stroke: #ff7763"/>
     <use xlink:href="#m02285000fb" x="363.264407" y="45.452514" style="fill: #ff7763; stroke: #ff7763"/>
     <use xlink:href="#m02285000fb" x="368.423112" y="45.452514" style="fill: #ff7763; stroke: #ff7763"/>
     <use xlink:href="#m02285000fb" x="373.581818" y="45.452514" style="fill: #ff7763; stroke: #ff7763"/>
    </g>
   </g>
   <g id="line2d_32">
    <path d="M 69.218182 266.438455 
L 74.376888 237.552749 
L 79.535593 257.032413 
L 84.694299 253.038277 
L 89.853005 205.599484 
L 95.01171 244.949456 
L 100.170416 121.111718 
L 105.329122 156.432681 
L 110.487827 103.856934 
L 115.646533 108.367127 
L 120.805239 110.502744 
L 125.963945 160.319901 
L 131.12265 240.733633 
L 136.281356 240.95175 
L 141.440062 164.549 
L 146.598767 163.772936 
L 151.757473 163.771478 
L 156.916179 164.392673 
L 162.074884 164.435468 
L 167.23359 165.017259 
L 172.392296 151.257147 
L 177.551002 164.047615 
L 182.709707 164.047615 
L 187.868413 151.423801 
L 193.027119 163.917717 
L 198.185824 163.916262 
L 203.34453 151.423913 
L 208.503236 54.462327 
L 213.661941 54.46211 
L 218.820647 54.484485 
L 223.979353 54.488802 
L 229.138059 54.488578 
L 234.296764 54.488802 
L 239.45547 45.635339 
L 244.614176 45.635563 
L 249.772881 45.631295 
L 254.931587 45.609736 
L 260.090293 45.609736 
L 265.248998 45.609957 
L 270.407704 45.631295 
L 275.56641 45.631072 
L 280.725116 45.631072 
L 285.883821 45.631295 
L 291.042527 45.631072 
L 296.201233 45.631072 
L 301.359938 45.631295 
L 306.518644 45.631295 
L 311.67735 45.609736 
L 316.836055 45.609736 
L 321.994761 45.609736 
L 327.153467 45.609957 
L 332.312173 45.593854 
L 337.470878 45.594075 
L 342.629584 45.593854 
L 347.78829 45.594075 
L 352.946995 45.554584 
L 358.105701 45.554772 
L 363.264407 45.554772 
L 368.423112 43.065401 
L 373.581818 43.065401 
" clip-path="url(#p28b36df9c2)" style="fill: none; stroke: #ffac1e; stroke-width: 1.5; stroke-linecap: square"/>
    <defs>
     <path id="mac4ce41a84" d="M 0 -2 
L -0.449028 -0.618034 
L -1.902113 -0.618034 
L -0.726543 0.236068 
L -1.175571 1.618034 
L -0 0.763932 
L 1.175571 1.618034 
L 0.726543 0.236068 
L 1.902113 -0.618034 
L 0.449028 -0.618034 
z
" style="stroke: #ffac1e; stroke-linejoin: bevel"/>
    </defs>
    <g clip-path="url(#p28b36df9c2)">
     <use xlink:href="#mac4ce41a84" x="69.218182" y="266.438455" style="fill: #ffac1e; stroke: #ffac1e; stroke-linejoin: bevel"/>
     <use xlink:href="#mac4ce41a84" x="74.376888" y="237.552749" style="fill: #ffac1e; stroke: #ffac1e; stroke-linejoin: bevel"/>
     <use xlink:href="#mac4ce41a84" x="79.535593" y="257.032413" style="fill: #ffac1e; stroke: #ffac1e; stroke-linejoin: bevel"/>
     <use xlink:href="#mac4ce41a84" x="84.694299" y="253.038277" style="fill: #ffac1e; stroke: #ffac1e; stroke-linejoin: bevel"/>
     <use xlink:href="#mac4ce41a84" x="89.853005" y="205.599484" style="fill: #ffac1e; stroke: #ffac1e; stroke-linejoin: bevel"/>
     <use xlink:href="#mac4ce41a84" x="95.01171" y="244.949456" style="fill: #ffac1e; stroke: #ffac1e; stroke-linejoin: bevel"/>
     <use xlink:href="#mac4ce41a84" x="100.170416" y="121.111718" style="fill: #ffac1e; stroke: #ffac1e; stroke-linejoin: bevel"/>
     <use xlink:href="#mac4ce41a84" x="105.329122" y="156.432681" style="fill: #ffac1e; stroke: #ffac1e; stroke-linejoin: bevel"/>
     <use xlink:href="#mac4ce41a84" x="110.487827" y="103.856934" style="fill: #ffac1e; stroke: #ffac1e; stroke-linejoin: bevel"/>
     <use xlink:href="#mac4ce41a84" x="115.646533" y="108.367127" style="fill: #ffac1e; stroke: #ffac1e; stroke-linejoin: bevel"/>
     <use xlink:href="#mac4ce41a84" x="120.805239" y="110.502744" style="fill: #ffac1e; stroke: #ffac1e; stroke-linejoin: bevel"/>
     <use xlink:href="#mac4ce41a84" x="125.963945" y="160.319901" style="fill: #ffac1e; stroke: #ffac1e; stroke-linejoin: bevel"/>
     <use xlink:href="#mac4ce41a84" x="131.12265" y="240.733633" style="fill: #ffac1e; stroke: #ffac1e; stroke-linejoin: bevel"/>
     <use xlink:href="#mac4ce41a84" x="136.281356" y="240.95175" style="fill: #ffac1e; stroke: #ffac1e; stroke-linejoin: bevel"/>
     <use xlink:href="#mac4ce41a84" x="141.440062" y="164.549" style="fill: #ffac1e; stroke: #ffac1e; stroke-linejoin: bevel"/>
     <use xlink:href="#mac4ce41a84" x="146.598767" y="163.772936" style="fill: #ffac1e; stroke: #ffac1e; stroke-linejoin: bevel"/>
     <use xlink:href="#mac4ce41a84" x="151.757473" y="163.771478" style="fill: #ffac1e; stroke: #ffac1e; stroke-linejoin: bevel"/>
     <use xlink:href="#mac4ce41a84" x="156.916179" y="164.392673" style="fill: #ffac1e; stroke: #ffac1e; stroke-linejoin: bevel"/>
     <use xlink:href="#mac4ce41a84" x="162.074884" y="164.435468" style="fill: #ffac1e; stroke: #ffac1e; stroke-linejoin: bevel"/>
     <use xlink:href="#mac4ce41a84" x="167.23359" y="165.017259" style="fill: #ffac1e; stroke: #ffac1e; stroke-linejoin: bevel"/>
     <use xlink:href="#mac4ce41a84" x="172.392296" y="151.257147" style="fill: #ffac1e; stroke: #ffac1e; stroke-linejoin: bevel"/>
     <use xlink:href="#mac4ce41a84" x="177.551002" y="164.047615" style="fill: #ffac1e; stroke: #ffac1e; stroke-linejoin: bevel"/>
     <use xlink:href="#mac4ce41a84" x="182.709707" y="164.047615" style="fill: #ffac1e; stroke: #ffac1e; stroke-linejoin: bevel"/>
     <use xlink:href="#mac4ce41a84" x="187.868413" y="151.423801" style="fill: #ffac1e; stroke: #ffac1e; stroke-linejoin: bevel"/>
     <use xlink:href="#mac4ce41a84" x="193.027119" y="163.917717" style="fill: #ffac1e; stroke: #ffac1e; stroke-linejoin: bevel"/>
     <use xlink:href="#mac4ce41a84" x="198.185824" y="163.916262" style="fill: #ffac1e; stroke: #ffac1e; stroke-linejoin: bevel"/>
     <use xlink:href="#mac4ce41a84" x="203.34453" y="151.423913" style="fill: #ffac1e; stroke: #ffac1e; stroke-linejoin: bevel"/>
     <use xlink:href="#mac4ce41a84" x="208.503236" y="54.462327" style="fill: #ffac1e; stroke: #ffac1e; stroke-linejoin: bevel"/>
     <use xlink:href="#mac4ce41a84" x="213.661941" y="54.46211" style="fill: #ffac1e; stroke: #ffac1e; stroke-linejoin: bevel"/>
     <use xlink:href="#mac4ce41a84" x="218.820647" y="54.484485" style="fill: #ffac1e; stroke: #ffac1e; stroke-linejoin: bevel"/>
     <use xlink:href="#mac4ce41a84" x="223.979353" y="54.488802" style="fill: #ffac1e; stroke: #ffac1e; stroke-linejoin: bevel"/>
     <use xlink:href="#mac4ce41a84" x="229.138059" y="54.488578" style="fill: #ffac1e; stroke: #ffac1e; stroke-linejoin: bevel"/>
     <use xlink:href="#mac4ce41a84" x="234.296764" y="54.488802" style="fill: #ffac1e; stroke: #ffac1e; stroke-linejoin: bevel"/>
     <use xlink:href="#mac4ce41a84" x="239.45547" y="45.635339" style="fill: #ffac1e; stroke: #ffac1e; stroke-linejoin: bevel"/>
     <use xlink:href="#mac4ce41a84" x="244.614176" y="45.635563" style="fill: #ffac1e; stroke: #ffac1e; stroke-linejoin: bevel"/>
     <use xlink:href="#mac4ce41a84" x="249.772881" y="45.631295" style="fill: #ffac1e; stroke: #ffac1e; stroke-linejoin: bevel"/>
     <use xlink:href="#mac4ce41a84" x="254.931587" y="45.609736" style="fill: #ffac1e; stroke: #ffac1e; stroke-linejoin: bevel"/>
     <use xlink:href="#mac4ce41a84" x="260.090293" y="45.609736" style="fill: #ffac1e; stroke: #ffac1e; stroke-linejoin: bevel"/>
     <use xlink:href="#mac4ce41a84" x="265.248998" y="45.609957" style="fill: #ffac1e; stroke: #ffac1e; stroke-linejoin: bevel"/>
     <use xlink:href="#mac4ce41a84" x="270.407704" y="45.631295" style="fill: #ffac1e; stroke: #ffac1e; stroke-linejoin: bevel"/>
     <use xlink:href="#mac4ce41a84" x="275.56641" y="45.631072" style="fill: #ffac1e; stroke: #ffac1e; stroke-linejoin: bevel"/>
     <use xlink:href="#mac4ce41a84" x="280.725116" y="45.631072" style="fill: #ffac1e; stroke: #ffac1e; stroke-linejoin: bevel"/>
     <use xlink:href="#mac4ce41a84" x="285.883821" y="45.631295" style="fill: #ffac1e; stroke: #ffac1e; stroke-linejoin: bevel"/>
     <use xlink:href="#mac4ce41a84" x="291.042527" y="45.631072" style="fill: #ffac1e; stroke: #ffac1e; stroke-linejoin: bevel"/>
     <use xlink:href="#mac4ce41a84" x="296.201233" y="45.631072" style="fill: #ffac1e; stroke: #ffac1e; stroke-linejoin: bevel"/>
     <use xlink:href="#mac4ce41a84" x="301.359938" y="45.631295" style="fill: #ffac1e; stroke: #ffac1e; stroke-linejoin: bevel"/>
     <use xlink:href="#mac4ce41a84" x="306.518644" y="45.631295" style="fill: #ffac1e; stroke: #ffac1e; stroke-linejoin: bevel"/>
     <use xlink:href="#mac4ce41a84" x="311.67735" y="45.609736" style="fill: #ffac1e; stroke: #ffac1e; stroke-linejoin: bevel"/>
     <use xlink:href="#mac4ce41a84" x="316.836055" y="45.609736" style="fill: #ffac1e; stroke: #ffac1e; stroke-linejoin: bevel"/>
     <use xlink:href="#mac4ce41a84" x="321.994761" y="45.609736" style="fill: #ffac1e; stroke: #ffac1e; stroke-linejoin: bevel"/>
     <use xlink:href="#mac4ce41a84" x="327.153467" y="45.609957" style="fill: #ffac1e; stroke: #ffac1e; stroke-linejoin: bevel"/>
     <use xlink:href="#mac4ce41a84" x="332.312173" y="45.593854" style="fill: #ffac1e; stroke: #ffac1e; stroke-linejoin: bevel"/>
     <use xlink:href="#mac4ce41a84" x="337.470878" y="45.594075" style="fill: #ffac1e; stroke: #ffac1e; stroke-linejoin: bevel"/>
     <use xlink:href="#mac4ce41a84" x="342.629584" y="45.593854" style="fill: #ffac1e; stroke: #ffac1e; stroke-linejoin: bevel"/>
     <use xlink:href="#mac4ce41a84" x="347.78829" y="45.594075" style="fill: #ffac1e; stroke: #ffac1e; stroke-linejoin: bevel"/>
     <use xlink:href="#mac4ce41a84" x="352.946995" y="45.554584" style="fill: #ffac1e; stroke: #ffac1e; stroke-linejoin: bevel"/>
     <use xlink:href="#mac4ce41a84" x="358.105701" y="45.554772" style="fill: #ffac1e; stroke: #ffac1e; stroke-linejoin: bevel"/>
     <use xlink:href="#mac4ce41a84" x="363.264407" y="45.554772" style="fill: #ffac1e; stroke: #ffac1e; stroke-linejoin: bevel"/>
     <use xlink:href="#mac4ce41a84" x="368.423112" y="43.065401" style="fill: #ffac1e; stroke: #ffac1e; stroke-linejoin: bevel"/>
     <use xlink:href="#mac4ce41a84" x="373.581818" y="43.065401" style="fill: #ffac1e; stroke: #ffac1e; stroke-linejoin: bevel"/>
    </g>
   </g>
   <g id="patch_3">
    <path d="M 54 252 
L 54 34.56 
" style="fill: none; stroke: #000000; stroke-width: 0.8; stroke-linejoin: miter; stroke-linecap: square"/>
   </g>
   <g id="patch_4">
    <path d="M 388.8 252 
L 388.8 34.56 
" style="fill: none; stroke: #000000; stroke-width: 0.8; stroke-linejoin: miter; stroke-linecap: square"/>
   </g>
   <g id="patch_5">
    <path d="M 54 252 
L 388.8 252 
" style="fill: none; stroke: #000000; stroke-width: 0.8; stroke-linejoin: miter; stroke-linecap: square"/>
   </g>
   <g id="patch_6">
    <path d="M 54 34.56 
L 388.8 34.56 
" style="fill: none; stroke: #000000; stroke-width: 0.8; stroke-linejoin: miter; stroke-linecap: square"/>
   </g>
   <g id="text_17">
    <!-- ε-greedy optimal policy with gamma = 0.95 -->
    <g transform="translate(89.3475 28.56)scale(0.12 -0.12)">
     <defs>
      <path id="DejaVuSans-3b5" d="M 1234 1888 
Q 884 1963 697 2166 
Q 509 2366 509 2656 
Q 509 3097 866 3344 
Q 1219 3588 1831 3588 
Q 2069 3588 2334 3550 
Q 2600 3513 2906 3438 
L 2906 2916 
Q 2603 3006 2353 3047 
Q 2100 3088 1878 3088 
Q 1506 3088 1291 2944 
Q 1072 2800 1072 2600 
Q 1072 2381 1284 2241 
Q 1494 2103 1856 2103 
L 2341 2103 
L 2341 1628 
L 1878 1628 
Q 1450 1628 1225 1469 
Q 981 1294 981 1019 
Q 981 738 1244 563 
Q 1509 388 1981 388 
Q 2272 388 2538 444 
Q 2803 503 3025 619 
L 3025 84 
Q 2744 -3 2481 -47 
Q 2216 -91 1966 -91 
Q 1222 -91 819 194 
Q 416 478 416 1019 
Q 416 1356 631 1584 
Q 847 1813 1234 1888 
z
" transform="scale(0.015625)"/>
      <path id="DejaVuSans-2d" d="M 313 2009 
L 1997 2009 
L 1997 1497 
L 313 1497 
L 313 2009 
z
" transform="scale(0.015625)"/>
      <path id="DejaVuSans-67" d="M 2906 1791 
Q 2906 2416 2648 2759 
Q 2391 3103 1925 3103 
Q 1463 3103 1205 2759 
Q 947 2416 947 1791 
Q 947 1169 1205 825 
Q 1463 481 1925 481 
Q 2391 481 2648 825 
Q 2906 1169 2906 1791 
z
M 3481 434 
Q 3481 -459 3084 -895 
Q 2688 -1331 1869 -1331 
Q 1566 -1331 1297 -1286 
Q 1028 -1241 775 -1147 
L 775 -588 
Q 1028 -725 1275 -790 
Q 1522 -856 1778 -856 
Q 2344 -856 2625 -561 
Q 2906 -266 2906 331 
L 2906 616 
Q 2728 306 2450 153 
Q 2172 0 1784 0 
Q 1141 0 747 490 
Q 353 981 353 1791 
Q 353 2603 747 3093 
Q 1141 3584 1784 3584 
Q 2172 3584 2450 3431 
Q 2728 3278 2906 2969 
L 2906 3500 
L 3481 3500 
L 3481 434 
z
" transform="scale(0.015625)"/>
      <path id="DejaVuSans-64" d="M 2906 2969 
L 2906 4863 
L 3481 4863 
L 3481 0 
L 2906 0 
L 2906 525 
Q 2725 213 2448 61 
Q 2172 -91 1784 -91 
Q 1150 -91 751 415 
Q 353 922 353 1747 
Q 353 2572 751 3078 
Q 1150 3584 1784 3584 
Q 2172 3584 2448 3432 
Q 2725 3281 2906 2969 
z
M 947 1747 
Q 947 1113 1208 752 
Q 1469 391 1925 391 
Q 2381 391 2643 752 
Q 2906 1113 2906 1747 
Q 2906 2381 2643 2742 
Q 2381 3103 1925 3103 
Q 1469 3103 1208 2742 
Q 947 2381 947 1747 
z
" transform="scale(0.015625)"/>
      <path id="DejaVuSans-6d" d="M 3328 2828 
Q 3544 3216 3844 3400 
Q 4144 3584 4550 3584 
Q 5097 3584 5394 3201 
Q 5691 2819 5691 2113 
L 5691 0 
L 5113 0 
L 5113 2094 
Q 5113 2597 4934 2840 
Q 4756 3084 4391 3084 
Q 3944 3084 3684 2787 
Q 3425 2491 3425 1978 
L 3425 0 
L 2847 0 
L 2847 2094 
Q 2847 2600 2669 2842 
Q 2491 3084 2119 3084 
Q 1678 3084 1418 2786 
Q 1159 2488 1159 1978 
L 1159 0 
L 581 0 
L 581 3500 
L 1159 3500 
L 1159 2956 
Q 1356 3278 1631 3431 
Q 1906 3584 2284 3584 
Q 2666 3584 2933 3390 
Q 3200 3197 3328 2828 
z
" transform="scale(0.015625)"/>
      <path id="DejaVuSans-77" d="M 269 3500 
L 844 3500 
L 1563 769 
L 2278 3500 
L 2956 3500 
L 3675 769 
L 4391 3500 
L 4966 3500 
L 4050 0 
L 3372 0 
L 2619 2869 
L 1863 0 
L 1184 0 
L 269 3500 
z
" transform="scale(0.015625)"/>
      <path id="DejaVuSans-68" d="M 3513 2113 
L 3513 0 
L 2938 0 
L 2938 2094 
Q 2938 2591 2744 2837 
Q 2550 3084 2163 3084 
Q 1697 3084 1428 2787 
Q 1159 2491 1159 1978 
L 1159 0 
L 581 0 
L 581 4863 
L 1159 4863 
L 1159 2956 
Q 1366 3272 1645 3428 
Q 1925 3584 2291 3584 
Q 2894 3584 3203 3211 
Q 3513 2838 3513 2113 
z
" transform="scale(0.015625)"/>
      <path id="DejaVuSans-3d" d="M 678 2906 
L 4684 2906 
L 4684 2381 
L 678 2381 
L 678 2906 
z
M 678 1631 
L 4684 1631 
L 4684 1100 
L 678 1100 
L 678 1631 
z
" transform="scale(0.015625)"/>
      <path id="DejaVuSans-2e" d="M 684 794 
L 1344 794 
L 1344 0 
L 684 0 
L 684 794 
z
" transform="scale(0.015625)"/>
      <path id="DejaVuSans-39" d="M 703 97 
L 703 672 
Q 941 559 1184 500 
Q 1428 441 1663 441 
Q 2288 441 2617 861 
Q 2947 1281 2994 2138 
Q 2813 1869 2534 1725 
Q 2256 1581 1919 1581 
Q 1219 1581 811 2004 
Q 403 2428 403 3163 
Q 403 3881 828 4315 
Q 1253 4750 1959 4750 
Q 2769 4750 3195 4129 
Q 3622 3509 3622 2328 
Q 3622 1225 3098 567 
Q 2575 -91 1691 -91 
Q 1453 -91 1209 -44 
Q 966 3 703 97 
z
M 1959 2075 
Q 2384 2075 2632 2365 
Q 2881 2656 2881 3163 
Q 2881 3666 2632 3958 
Q 2384 4250 1959 4250 
Q 1534 4250 1286 3958 
Q 1038 3666 1038 3163 
Q 1038 2656 1286 2365 
Q 1534 2075 1959 2075 
z
" transform="scale(0.015625)"/>
     </defs>
     <use xlink:href="#DejaVuSans-3b5"/>
     <use xlink:href="#DejaVuSans-2d" x="54.052734"/>
     <use xlink:href="#DejaVuSans-67" x="90.136719"/>
     <use xlink:href="#DejaVuSans-72" x="153.613281"/>
     <use xlink:href="#DejaVuSans-65" x="192.476562"/>
     <use xlink:href="#DejaVuSans-65" x="254"/>
     <use xlink:href="#DejaVuSans-64" x="315.523438"/>
     <use xlink:href="#DejaVuSans-79" x="379"/>
     <use xlink:href="#DejaVuSans-20" x="438.179688"/>
     <use xlink:href="#DejaVuSans-6f" x="469.966797"/>
     <use xlink:href="#DejaVuSans-70" x="531.148438"/>
     <use xlink:href="#DejaVuSans-74" x="594.625"/>
     <use xlink:href="#DejaVuSans-69" x="633.833984"/>
     <use xlink:href="#DejaVuSans-6d" x="661.617188"/>
     <use xlink:href="#DejaVuSans-61" x="759.029297"/>
     <use xlink:href="#DejaVuSans-6c" x="820.308594"/>
     <use xlink:href="#DejaVuSans-20" x="848.091797"/>
     <use xlink:href="#DejaVuSans-70" x="879.878906"/>
     <use xlink:href="#DejaVuSans-6f" x="943.355469"/>
     <use xlink:href="#DejaVuSans-6c" x="1004.537109"/>
     <use xlink:href="#DejaVuSans-69" x="1032.320312"/>
     <use xlink:href="#DejaVuSans-63" x="1060.103516"/>
     <use xlink:href="#DejaVuSans-79" x="1115.083984"/>
     <use xlink:href="#DejaVuSans-20" x="1174.263672"/>
     <use xlink:href="#DejaVuSans-77" x="1206.050781"/>
     <use xlink:href="#DejaVuSans-69" x="1287.837891"/>
     <use xlink:href="#DejaVuSans-74" x="1315.621094"/>
     <use xlink:href="#DejaVuSans-68" x="1354.830078"/>
     <use xlink:href="#DejaVuSans-20" x="1418.208984"/>
     <use xlink:href="#DejaVuSans-67" x="1449.996094"/>
     <use xlink:href="#DejaVuSans-61" x="1513.472656"/>
     <use xlink:href="#DejaVuSans-6d" x="1574.751953"/>
     <use xlink:href="#DejaVuSans-6d" x="1672.164062"/>
     <use xlink:href="#DejaVuSans-61" x="1769.576172"/>
     <use xlink:href="#DejaVuSans-20" x="1830.855469"/>
     <use xlink:href="#DejaVuSans-3d" x="1862.642578"/>
     <use xlink:href="#DejaVuSans-20" x="1946.431641"/>
     <use xlink:href="#DejaVuSans-30" x="1978.21875"/>
     <use xlink:href="#DejaVuSans-2e" x="2041.841797"/>
     <use xlink:href="#DejaVuSans-39" x="2073.628906"/>
     <use xlink:href="#DejaVuSans-35" x="2137.251953"/>
    </g>
   </g>
   <g id="legend_1">
    <g id="patch_7">
     <path d="M 289.79375 247 
L 381.8 247 
Q 383.8 247 383.8 245 
L 383.8 187.2875 
Q 383.8 185.2875 381.8 185.2875 
L 289.79375 185.2875 
Q 287.79375 185.2875 287.79375 187.2875 
L 287.79375 245 
Q 287.79375 247 289.79375 247 
z
" style="fill: #ffffff; opacity: 0.8; stroke: #cccccc; stroke-linejoin: miter"/>
    </g>
    <g id="line2d_33">
     <path d="M 291.79375 193.385938 
L 301.79375 193.385938 
L 311.79375 193.385938 
" style="fill: none; stroke: #9d02d7; stroke-width: 1.5; stroke-linecap: square"/>
     <g>
      <use xlink:href="#m8824fadf69" x="301.79375" y="193.385938" style="fill: #9d02d7; stroke: #9d02d7; stroke-linejoin: miter"/>
     </g>
    </g>
    <g id="text_18">
     <!-- epsilon=0.4 -->
     <g transform="translate(319.79375 196.885938)scale(0.1 -0.1)">
      <defs>
       <path id="DejaVuSans-6e" d="M 3513 2113 
L 3513 0 
L 2938 0 
L 2938 2094 
Q 2938 2591 2744 2837 
Q 2550 3084 2163 3084 
Q 1697 3084 1428 2787 
Q 1159 2491 1159 1978 
L 1159 0 
L 581 0 
L 581 3500 
L 1159 3500 
L 1159 2956 
Q 1366 3272 1645 3428 
Q 1925 3584 2291 3584 
Q 2894 3584 3203 3211 
Q 3513 2838 3513 2113 
z
" transform="scale(0.015625)"/>
      </defs>
      <use xlink:href="#DejaVuSans-65"/>
      <use xlink:href="#DejaVuSans-70" x="61.523438"/>
      <use xlink:href="#DejaVuSans-73" x="125"/>
      <use xlink:href="#DejaVuSans-69" x="177.099609"/>
      <use xlink:href="#DejaVuSans-6c" x="204.882812"/>
      <use xlink:href="#DejaVuSans-6f" x="232.666016"/>
      <use xlink:href="#DejaVuSans-6e" x="293.847656"/>
      <use xlink:href="#DejaVuSans-3d" x="357.226562"/>
      <use xlink:href="#DejaVuSans-30" x="441.015625"/>
      <use xlink:href="#DejaVuSans-2e" x="504.638672"/>
      <use xlink:href="#DejaVuSans-34" x="536.425781"/>
     </g>
    </g>
    <g id="line2d_34">
     <path d="M 291.79375 208.064063 
L 301.79375 208.064063 
L 311.79375 208.064063 
" style="fill: none; stroke: #0000ff; stroke-width: 1.5; stroke-linecap: square"/>
     <g>
      <use xlink:href="#m61f2b714e8" x="301.79375" y="208.064063" style="fill: #0000ff; stroke: #0000ff"/>
     </g>
    </g>
    <g id="text_19">
     <!-- epsilon=0.6 -->
     <g transform="translate(319.79375 211.564063)scale(0.1 -0.1)">
      <use xlink:href="#DejaVuSans-65"/>
      <use xlink:href="#DejaVuSans-70" x="61.523438"/>
      <use xlink:href="#DejaVuSans-73" x="125"/>
      <use xlink:href="#DejaVuSans-69" x="177.099609"/>
      <use xlink:href="#DejaVuSans-6c" x="204.882812"/>
      <use xlink:href="#DejaVuSans-6f" x="232.666016"/>
      <use xlink:href="#DejaVuSans-6e" x="293.847656"/>
      <use xlink:href="#DejaVuSans-3d" x="357.226562"/>
      <use xlink:href="#DejaVuSans-30" x="441.015625"/>
      <use xlink:href="#DejaVuSans-2e" x="504.638672"/>
      <use xlink:href="#DejaVuSans-36" x="536.425781"/>
     </g>
    </g>
    <g id="line2d_35">
     <path d="M 291.79375 222.742188 
L 301.79375 222.742188 
L 311.79375 222.742188 
" style="fill: none; stroke: #ff7763; stroke-width: 1.5; stroke-linecap: square"/>
     <g>
      <use xlink:href="#m02285000fb" x="301.79375" y="222.742188" style="fill: #ff7763; stroke: #ff7763"/>
     </g>
    </g>
    <g id="text_20">
     <!-- epsilon=0.8 -->
     <g transform="translate(319.79375 226.242188)scale(0.1 -0.1)">
      <use xlink:href="#DejaVuSans-65"/>
      <use xlink:href="#DejaVuSans-70" x="61.523438"/>
      <use xlink:href="#DejaVuSans-73" x="125"/>
      <use xlink:href="#DejaVuSans-69" x="177.099609"/>
      <use xlink:href="#DejaVuSans-6c" x="204.882812"/>
      <use xlink:href="#DejaVuSans-6f" x="232.666016"/>
      <use xlink:href="#DejaVuSans-6e" x="293.847656"/>
      <use xlink:href="#DejaVuSans-3d" x="357.226562"/>
      <use xlink:href="#DejaVuSans-30" x="441.015625"/>
      <use xlink:href="#DejaVuSans-2e" x="504.638672"/>
      <use xlink:href="#DejaVuSans-38" x="536.425781"/>
     </g>
    </g>
    <g id="line2d_36">
     <path d="M 291.79375 237.420312 
L 301.79375 237.420312 
L 311.79375 237.420312 
" style="fill: none; stroke: #ffac1e; stroke-width: 1.5; stroke-linecap: square"/>
     <g>
      <use xlink:href="#mac4ce41a84" x="301.79375" y="237.420312" style="fill: #ffac1e; stroke: #ffac1e; stroke-linejoin: bevel"/>
     </g>
    </g>
    <g id="text_21">
     <!-- epsilon=1.0 -->
     <g transform="translate(319.79375 240.920312)scale(0.1 -0.1)">
      <use xlink:href="#DejaVuSans-65"/>
      <use xlink:href="#DejaVuSans-70" x="61.523438"/>
      <use xlink:href="#DejaVuSans-73" x="125"/>
      <use xlink:href="#DejaVuSans-69" x="177.099609"/>
      <use xlink:href="#DejaVuSans-6c" x="204.882812"/>
      <use xlink:href="#DejaVuSans-6f" x="232.666016"/>
      <use xlink:href="#DejaVuSans-6e" x="293.847656"/>
      <use xlink:href="#DejaVuSans-3d" x="357.226562"/>
      <use xlink:href="#DejaVuSans-31" x="441.015625"/>
      <use xlink:href="#DejaVuSans-2e" x="504.638672"/>
      <use xlink:href="#DejaVuSans-30" x="536.425781"/>
     </g>
    </g>
   </g>
  </g>
 </g>
 <defs>
  <clipPath id="p28b36df9c2">
   <rect x="54" y="34.56" width="334.8" height="217.44"/>
  </clipPath>
 </defs>
</svg>
