<?xml version="1.0" encoding="utf-8" standalone="no"?>
<!DOCTYPE svg PUBLIC "-//W3C//DTD SVG 1.1//EN"
  "http://www.w3.org/Graphics/SVG/1.1/DTD/svg11.dtd">
<svg xmlns:xlink="http://www.w3.org/1999/xlink" width="432pt" height="288pt" viewBox="0 0 432 288" xmlns="http://www.w3.org/2000/svg" version="1.1">
 <metadata>
  <rdf:RDF xmlns:dc="http://purl.org/dc/elements/1.1/" xmlns:cc="http://creativecommons.org/ns#" xmlns:rdf="http://www.w3.org/1999/02/22-rdf-syntax-ns#">
   <cc:Work>
    <dc:type rdf:resource="http://purl.org/dc/dcmitype/StillImage"/>
    <dc:date>2023-01-11T15:36:08.241915</dc:date>
    <dc:format>image/svg+xml</dc:format>
    <dc:creator>
     <cc:Agent>
      <dc:title>Matplotlib v3.5.2, https://matplotlib.org/</dc:title>
     </cc:Agent>
    </dc:creator>
   </cc:Work>
  </rdf:RDF>
 </metadata>
 <defs>
  <style type="text/css">*{stroke-linejoin: round; stroke-linecap: butt}</style>
 </defs>
 <g id="figure_1">
  <g id="patch_1">
   <path d="M 0 288 
L 432 288 
L 432 0 
L 0 0 
z
" style="fill: #ffffff"/>
  </g>
  <g id="axes_1">
   <g id="patch_2">
    <path d="M 54 252 
L 388.8 252 
L 388.8 34.56 
L 54 34.56 
z
" style="fill: #ffffff"/>
   </g>
   <g id="PolyCollection_1">
    <defs>
     <path id="m9f9eccfe57" d="M 69.218182 -35.045029 
L 69.218182 -35.045029 
L 74.376888 -32.549862 
L 79.535593 -35.091182 
L 84.694299 -35.091182 
L 89.853005 -35.091182 
L 95.01171 -34.889136 
L 100.170416 -35.091182 
L 105.329122 -35.091182 
L 110.487827 -34.941096 
L 115.646533 -35.091182 
L 120.805239 -35.091182 
L 125.963945 -34.842279 
L 131.12265 -43.779978 
L 136.281356 -52.495298 
L 141.440062 -26.974595 
L 146.598767 -28.903421 
L 151.757473 -28.096481 
L 156.916179 -30.158634 
L 162.074884 -41.749257 
L 167.23359 -32.069955 
L 172.392296 -62.263241 
L 177.551002 -75.93066 
L 182.709707 -75.08458 
L 187.868413 -75.08458 
L 193.027119 -74.938416 
L 198.185824 -74.938416 
L 203.34453 -198.290063 
L 208.503236 -202.063934 
L 213.661941 -203.783613 
L 218.820647 -202.064376 
L 223.979353 -203.78506 
L 229.138059 -203.783613 
L 234.296764 -212.650555 
L 239.45547 -226.218048 
L 244.614176 -212.650555 
L 249.772881 -216.905096 
L 254.931587 -217.349214 
L 260.090293 -217.375941 
L 265.248998 -217.375941 
L 270.407704 -244.6383 
L 275.56641 -241.656496 
L 280.725116 -244.237819 
L 285.883821 -244.230677 
L 291.042527 -244.230677 
L 296.201233 -239.035007 
L 301.359938 -239.035007 
L 306.518644 -236.320532 
L 311.67735 -237.193202 
L 316.836055 -235.09176 
L 321.994761 -239.657744 
L 327.153467 -239.657418 
L 332.312173 -239.657418 
L 337.470878 -240.210949 
L 342.629584 -239.657418 
L 347.78829 -240.210949 
L 352.946995 -244.67778 
L 358.105701 -244.67778 
L 363.264407 -244.67778 
L 368.423112 -244.67778 
L 373.581818 -240.210949 
L 373.581818 -240.210949 
L 373.581818 -240.210949 
L 368.423112 -244.67778 
L 363.264407 -244.67778 
L 358.105701 -244.67778 
L 352.946995 -244.67778 
L 347.78829 -240.210949 
L 342.629584 -239.657418 
L 337.470878 -240.210949 
L 332.312173 -239.657418 
L 327.153467 -239.657418 
L 321.994761 -239.657744 
L 316.836055 -235.09176 
L 311.67735 -237.193202 
L 306.518644 -236.320532 
L 301.359938 -239.035007 
L 296.201233 -239.035007 
L 291.042527 -244.230677 
L 285.883821 -244.230677 
L 280.725116 -244.237819 
L 275.56641 -241.656496 
L 270.407704 -244.6383 
L 265.248998 -217.375941 
L 260.090293 -217.375941 
L 254.931587 -217.349214 
L 249.772881 -216.905096 
L 244.614176 -212.650555 
L 239.45547 -226.218048 
L 234.296764 -212.650555 
L 229.138059 -203.783613 
L 223.979353 -203.78506 
L 218.820647 -202.064376 
L 213.661941 -203.783613 
L 208.503236 -202.063934 
L 203.34453 -198.290063 
L 198.185824 -74.938416 
L 193.027119 -74.938416 
L 187.868413 -75.08458 
L 182.709707 -75.08458 
L 177.551002 -75.93066 
L 172.392296 -62.263241 
L 167.23359 -32.069955 
L 162.074884 -41.749257 
L 156.916179 -30.158634 
L 151.757473 -28.096481 
L 146.598767 -28.903421 
L 141.440062 -26.974595 
L 136.281356 -52.495298 
L 131.12265 -43.779978 
L 125.963945 -34.842279 
L 120.805239 -35.091182 
L 115.646533 -35.091182 
L 110.487827 -34.941096 
L 105.329122 -35.091182 
L 100.170416 -35.091182 
L 95.01171 -34.889136 
L 89.853005 -35.091182 
L 84.694299 -35.091182 
L 79.535593 -35.091182 
L 74.376888 -32.549862 
L 69.218182 -35.045029 
z
" style="stroke: #9d02d7; stroke-opacity: 0.2"/>
    </defs>
    <g clip-path="url(#pb72927fc3c)">
     <use xlink:href="#m9f9eccfe57" x="0" y="288" style="fill: #9d02d7; fill-opacity: 0.2; stroke: #9d02d7; stroke-opacity: 0.2"/>
    </g>
   </g>
   <g id="PolyCollection_2">
    <defs>
     <path id="m270ed02801" d="M 69.218182 -31.557997 
L 69.218182 -31.557997 
L 74.376888 -34.831807 
L 79.535593 -52.83285 
L 84.694299 -131.405743 
L 89.853005 -211.213418 
L 95.01171 -223.908968 
L 100.170416 -179.027778 
L 105.329122 -159.014191 
L 110.487827 -199.069253 
L 115.646533 -196.644222 
L 120.805239 -157.402777 
L 125.963945 -157.240995 
L 131.12265 -196.647878 
L 136.281356 -227.473268 
L 141.440062 -214.659147 
L 146.598767 -223.339917 
L 151.757473 -223.243878 
L 156.916179 -238.510748 
L 162.074884 -180.705805 
L 167.23359 -180.623071 
L 172.392296 -220.424167 
L 177.551002 -207.11981 
L 182.709707 -220.786785 
L 187.868413 -220.786785 
L 193.027119 -243.554301 
L 198.185824 -234.54216 
L 203.34453 -244.277339 
L 208.503236 -234.689499 
L 213.661941 -241.312604 
L 218.820647 -244.280966 
L 223.979353 -244.280966 
L 229.138059 -218.918132 
L 234.296764 -230.849119 
L 239.45547 -230.104778 
L 244.614176 -230.104778 
L 249.772881 -230.104778 
L 254.931587 -229.94461 
L 260.090293 -233.089325 
L 265.248998 -237.628846 
L 270.407704 -237.60506 
L 275.56641 -239.000695 
L 280.725116 -237.95186 
L 285.883821 -237.95186 
L 291.042527 -239.000695 
L 296.201233 -239.000695 
L 301.359938 -239.000695 
L 306.518644 -239.233361 
L 311.67735 -239.691123 
L 316.836055 -239.691255 
L 321.994761 -239.691255 
L 327.153467 -239.691255 
L 332.312173 -239.691255 
L 337.470878 -239.691255 
L 342.629584 -239.691255 
L 347.78829 -239.691255 
L 352.946995 -239.525819 
L 358.105701 -239.525819 
L 363.264407 -239.525819 
L 368.423112 -239.691255 
L 373.581818 -239.233497 
L 373.581818 -239.233497 
L 373.581818 -239.233497 
L 368.423112 -239.691255 
L 363.264407 -239.525819 
L 358.105701 -239.525819 
L 352.946995 -239.525819 
L 347.78829 -239.691255 
L 342.629584 -239.691255 
L 337.470878 -239.691255 
L 332.312173 -239.691255 
L 327.153467 -239.691255 
L 321.994761 -239.691255 
L 316.836055 -239.691255 
L 311.67735 -239.691123 
L 306.518644 -239.233361 
L 301.359938 -239.000695 
L 296.201233 -239.000695 
L 291.042527 -239.000695 
L 285.883821 -237.95186 
L 280.725116 -237.95186 
L 275.56641 -239.000695 
L 270.407704 -237.60506 
L 265.248998 -237.628846 
L 260.090293 -233.089325 
L 254.931587 -229.94461 
L 249.772881 -230.104778 
L 244.614176 -230.104778 
L 239.45547 -230.104778 
L 234.296764 -230.849119 
L 229.138059 -218.918132 
L 223.979353 -244.280966 
L 218.820647 -244.280966 
L 213.661941 -241.312604 
L 208.503236 -234.689499 
L 203.34453 -244.277339 
L 198.185824 -234.54216 
L 193.027119 -243.554301 
L 187.868413 -220.786785 
L 182.709707 -220.786785 
L 177.551002 -207.11981 
L 172.392296 -220.424167 
L 167.23359 -180.623071 
L 162.074884 -180.705805 
L 156.916179 -238.510748 
L 151.757473 -223.243878 
L 146.598767 -223.339917 
L 141.440062 -214.659147 
L 136.281356 -227.473268 
L 131.12265 -196.647878 
L 125.963945 -157.240995 
L 120.805239 -157.402777 
L 115.646533 -196.644222 
L 110.487827 -199.069253 
L 105.329122 -159.014191 
L 100.170416 -179.027778 
L 95.01171 -223.908968 
L 89.853005 -211.213418 
L 84.694299 -131.405743 
L 79.535593 -52.83285 
L 74.376888 -34.831807 
L 69.218182 -31.557997 
z
" style="stroke: #0000ff; stroke-opacity: 0.2"/>
    </defs>
    <g clip-path="url(#pb72927fc3c)">
     <use xlink:href="#m270ed02801" x="0" y="288" style="fill: #0000ff; fill-opacity: 0.2; stroke: #0000ff; stroke-opacity: 0.2"/>
    </g>
   </g>
   <g id="PolyCollection_3">
    <defs>
     <path id="m2a21c545fa" d="M 69.218182 -34.171026 
L 69.218182 -34.171026 
L 74.376888 -35.091182 
L 79.535593 -35.091182 
L 84.694299 -35.091182 
L 89.853005 -35.091182 
L 95.01171 -39.25563 
L 100.170416 -93.707964 
L 105.329122 -50.172738 
L 110.487827 -164.281964 
L 115.646533 -155.943904 
L 120.805239 -46.878346 
L 125.963945 -42.160789 
L 131.12265 -51.485138 
L 136.281356 -44.135998 
L 141.440062 -44.845327 
L 146.598767 -49.355178 
L 151.757473 -41.06889 
L 156.916179 -44.376419 
L 162.074884 -56.853713 
L 167.23359 -38.663629 
L 172.392296 -96.689961 
L 177.551002 -56.59686 
L 182.709707 -56.596553 
L 187.868413 -56.596743 
L 193.027119 -56.596553 
L 198.185824 -130.042185 
L 203.34453 -129.46109 
L 208.503236 -129.32566 
L 213.661941 -129.46109 
L 218.820647 -129.46109 
L 223.979353 -129.46109 
L 229.138059 -241.923102 
L 234.296764 -241.923102 
L 239.45547 -241.923102 
L 244.614176 -241.923102 
L 249.772881 -242.418223 
L 254.931587 -242.418223 
L 260.090293 -242.418223 
L 265.248998 -242.418223 
L 270.407704 -243.105895 
L 275.56641 -242.418223 
L 280.725116 -243.914933 
L 285.883821 -244.720271 
L 291.042527 -245.07571 
L 296.201233 -245.07571 
L 301.359938 -244.6383 
L 306.518644 -244.6383 
L 311.67735 -244.6383 
L 316.836055 -244.6383 
L 321.994761 -245.07571 
L 327.153467 -245.07571 
L 332.312173 -245.07571 
L 337.470878 -245.07571 
L 342.629584 -245.07571 
L 347.78829 -245.07571 
L 352.946995 -245.07571 
L 358.105701 -245.07571 
L 363.264407 -245.07571 
L 368.423112 -245.07571 
L 373.581818 -245.07571 
L 373.581818 -245.07571 
L 373.581818 -245.07571 
L 368.423112 -245.07571 
L 363.264407 -245.07571 
L 358.105701 -245.07571 
L 352.946995 -245.07571 
L 347.78829 -245.07571 
L 342.629584 -245.07571 
L 337.470878 -245.07571 
L 332.312173 -245.07571 
L 327.153467 -245.07571 
L 321.994761 -245.07571 
L 316.836055 -244.6383 
L 311.67735 -244.6383 
L 306.518644 -244.6383 
L 301.359938 -244.6383 
L 296.201233 -245.07571 
L 291.042527 -245.07571 
L 285.883821 -244.720271 
L 280.725116 -243.914933 
L 275.56641 -242.418223 
L 270.407704 -243.105895 
L 265.248998 -242.418223 
L 260.090293 -242.418223 
L 254.931587 -242.418223 
L 249.772881 -242.418223 
L 244.614176 -241.923102 
L 239.45547 -241.923102 
L 234.296764 -241.923102 
L 229.138059 -241.923102 
L 223.979353 -129.46109 
L 218.820647 -129.46109 
L 213.661941 -129.46109 
L 208.503236 -129.32566 
L 203.34453 -129.46109 
L 198.185824 -130.042185 
L 193.027119 -56.596553 
L 187.868413 -56.596743 
L 182.709707 -56.596553 
L 177.551002 -56.59686 
L 172.392296 -96.689961 
L 167.23359 -38.663629 
L 162.074884 -56.853713 
L 156.916179 -44.376419 
L 151.757473 -41.06889 
L 146.598767 -49.355178 
L 141.440062 -44.845327 
L 136.281356 -44.135998 
L 131.12265 -51.485138 
L 125.963945 -42.160789 
L 120.805239 -46.878346 
L 115.646533 -155.943904 
L 110.487827 -164.281964 
L 105.329122 -50.172738 
L 100.170416 -93.707964 
L 95.01171 -39.25563 
L 89.853005 -35.091182 
L 84.694299 -35.091182 
L 79.535593 -35.091182 
L 74.376888 -35.091182 
L 69.218182 -34.171026 
z
" style="stroke: #ff7763; stroke-opacity: 0.2"/>
    </defs>
    <g clip-path="url(#pb72927fc3c)">
     <use xlink:href="#m2a21c545fa" x="0" y="288" style="fill: #ff7763; fill-opacity: 0.2; stroke: #ff7763; stroke-opacity: 0.2"/>
    </g>
   </g>
   <g id="matplotlib.axis_1">
    <g id="xtick_1">
     <g id="line2d_1">
      <path d="M 69.218182 252 
L 69.218182 34.56 
" clip-path="url(#pb72927fc3c)" style="fill: none; stroke-dasharray: 2.96,1.28; stroke-dashoffset: 0; stroke: #b0b0b0; stroke-width: 0.8"/>
     </g>
     <g id="line2d_2">
      <defs>
       <path id="mf27f703b8a" d="M 0 0 
L 0 3.5 
" style="stroke: #000000; stroke-width: 0.8"/>
      </defs>
      <g>
       <use xlink:href="#mf27f703b8a" x="69.218182" y="252" style="stroke: #000000; stroke-width: 0.8"/>
      </g>
     </g>
     <g id="text_1">
      <!-- 0 -->
      <g transform="translate(66.036932 266.598437)scale(0.1 -0.1)">
       <defs>
        <path id="DejaVuSans-30" d="M 2034 4250 
Q 1547 4250 1301 3770 
Q 1056 3291 1056 2328 
Q 1056 1369 1301 889 
Q 1547 409 2034 409 
Q 2525 409 2770 889 
Q 3016 1369 3016 2328 
Q 3016 3291 2770 3770 
Q 2525 4250 2034 4250 
z
M 2034 4750 
Q 2819 4750 3233 4129 
Q 3647 3509 3647 2328 
Q 3647 1150 3233 529 
Q 2819 -91 2034 -91 
Q 1250 -91 836 529 
Q 422 1150 422 2328 
Q 422 3509 836 4129 
Q 1250 4750 2034 4750 
z
" transform="scale(0.015625)"/>
       </defs>
       <use xlink:href="#DejaVuSans-30"/>
      </g>
     </g>
    </g>
    <g id="xtick_2">
     <g id="line2d_3">
      <path d="M 120.805239 252 
L 120.805239 34.56 
" clip-path="url(#pb72927fc3c)" style="fill: none; stroke-dasharray: 2.96,1.28; stroke-dashoffset: 0; stroke: #b0b0b0; stroke-width: 0.8"/>
     </g>
     <g id="line2d_4">
      <g>
       <use xlink:href="#mf27f703b8a" x="120.805239" y="252" style="stroke: #000000; stroke-width: 0.8"/>
      </g>
     </g>
     <g id="text_2">
      <!-- 500 -->
      <g transform="translate(111.261489 266.598437)scale(0.1 -0.1)">
       <defs>
        <path id="DejaVuSans-35" d="M 691 4666 
L 3169 4666 
L 3169 4134 
L 1269 4134 
L 1269 2991 
Q 1406 3038 1543 3061 
Q 1681 3084 1819 3084 
Q 2600 3084 3056 2656 
Q 3513 2228 3513 1497 
Q 3513 744 3044 326 
Q 2575 -91 1722 -91 
Q 1428 -91 1123 -41 
Q 819 9 494 109 
L 494 744 
Q 775 591 1075 516 
Q 1375 441 1709 441 
Q 2250 441 2565 725 
Q 2881 1009 2881 1497 
Q 2881 1984 2565 2268 
Q 2250 2553 1709 2553 
Q 1456 2553 1204 2497 
Q 953 2441 691 2322 
L 691 4666 
z
" transform="scale(0.015625)"/>
       </defs>
       <use xlink:href="#DejaVuSans-35"/>
       <use xlink:href="#DejaVuSans-30" x="63.623047"/>
       <use xlink:href="#DejaVuSans-30" x="127.246094"/>
      </g>
     </g>
    </g>
    <g id="xtick_3">
     <g id="line2d_5">
      <path d="M 172.392296 252 
L 172.392296 34.56 
" clip-path="url(#pb72927fc3c)" style="fill: none; stroke-dasharray: 2.96,1.28; stroke-dashoffset: 0; stroke: #b0b0b0; stroke-width: 0.8"/>
     </g>
     <g id="line2d_6">
      <g>
       <use xlink:href="#mf27f703b8a" x="172.392296" y="252" style="stroke: #000000; stroke-width: 0.8"/>
      </g>
     </g>
     <g id="text_3">
      <!-- 1000 -->
      <g transform="translate(159.667296 266.598437)scale(0.1 -0.1)">
       <defs>
        <path id="DejaVuSans-31" d="M 794 531 
L 1825 531 
L 1825 4091 
L 703 3866 
L 703 4441 
L 1819 4666 
L 2450 4666 
L 2450 531 
L 3481 531 
L 3481 0 
L 794 0 
L 794 531 
z
" transform="scale(0.015625)"/>
       </defs>
       <use xlink:href="#DejaVuSans-31"/>
       <use xlink:href="#DejaVuSans-30" x="63.623047"/>
       <use xlink:href="#DejaVuSans-30" x="127.246094"/>
       <use xlink:href="#DejaVuSans-30" x="190.869141"/>
      </g>
     </g>
    </g>
    <g id="xtick_4">
     <g id="line2d_7">
      <path d="M 223.979353 252 
L 223.979353 34.56 
" clip-path="url(#pb72927fc3c)" style="fill: none; stroke-dasharray: 2.96,1.28; stroke-dashoffset: 0; stroke: #b0b0b0; stroke-width: 0.8"/>
     </g>
     <g id="line2d_8">
      <g>
       <use xlink:href="#mf27f703b8a" x="223.979353" y="252" style="stroke: #000000; stroke-width: 0.8"/>
      </g>
     </g>
     <g id="text_4">
      <!-- 1500 -->
      <g transform="translate(211.254353 266.598437)scale(0.1 -0.1)">
       <use xlink:href="#DejaVuSans-31"/>
       <use xlink:href="#DejaVuSans-35" x="63.623047"/>
       <use xlink:href="#DejaVuSans-30" x="127.246094"/>
       <use xlink:href="#DejaVuSans-30" x="190.869141"/>
      </g>
     </g>
    </g>
    <g id="xtick_5">
     <g id="line2d_9">
      <path d="M 275.56641 252 
L 275.56641 34.56 
" clip-path="url(#pb72927fc3c)" style="fill: none; stroke-dasharray: 2.96,1.28; stroke-dashoffset: 0; stroke: #b0b0b0; stroke-width: 0.8"/>
     </g>
     <g id="line2d_10">
      <g>
       <use xlink:href="#mf27f703b8a" x="275.56641" y="252" style="stroke: #000000; stroke-width: 0.8"/>
      </g>
     </g>
     <g id="text_5">
      <!-- 2000 -->
      <g transform="translate(262.84141 266.598437)scale(0.1 -0.1)">
       <defs>
        <path id="DejaVuSans-32" d="M 1228 531 
L 3431 531 
L 3431 0 
L 469 0 
L 469 531 
Q 828 903 1448 1529 
Q 2069 2156 2228 2338 
Q 2531 2678 2651 2914 
Q 2772 3150 2772 3378 
Q 2772 3750 2511 3984 
Q 2250 4219 1831 4219 
Q 1534 4219 1204 4116 
Q 875 4013 500 3803 
L 500 4441 
Q 881 4594 1212 4672 
Q 1544 4750 1819 4750 
Q 2544 4750 2975 4387 
Q 3406 4025 3406 3419 
Q 3406 3131 3298 2873 
Q 3191 2616 2906 2266 
Q 2828 2175 2409 1742 
Q 1991 1309 1228 531 
z
" transform="scale(0.015625)"/>
       </defs>
       <use xlink:href="#DejaVuSans-32"/>
       <use xlink:href="#DejaVuSans-30" x="63.623047"/>
       <use xlink:href="#DejaVuSans-30" x="127.246094"/>
       <use xlink:href="#DejaVuSans-30" x="190.869141"/>
      </g>
     </g>
    </g>
    <g id="xtick_6">
     <g id="line2d_11">
      <path d="M 327.153467 252 
L 327.153467 34.56 
" clip-path="url(#pb72927fc3c)" style="fill: none; stroke-dasharray: 2.96,1.28; stroke-dashoffset: 0; stroke: #b0b0b0; stroke-width: 0.8"/>
     </g>
     <g id="line2d_12">
      <g>
       <use xlink:href="#mf27f703b8a" x="327.153467" y="252" style="stroke: #000000; stroke-width: 0.8"/>
      </g>
     </g>
     <g id="text_6">
      <!-- 2500 -->
      <g transform="translate(314.428467 266.598437)scale(0.1 -0.1)">
       <use xlink:href="#DejaVuSans-32"/>
       <use xlink:href="#DejaVuSans-35" x="63.623047"/>
       <use xlink:href="#DejaVuSans-30" x="127.246094"/>
       <use xlink:href="#DejaVuSans-30" x="190.869141"/>
      </g>
     </g>
    </g>
    <g id="xtick_7">
     <g id="line2d_13">
      <path d="M 378.740524 252 
L 378.740524 34.56 
" clip-path="url(#pb72927fc3c)" style="fill: none; stroke-dasharray: 2.96,1.28; stroke-dashoffset: 0; stroke: #b0b0b0; stroke-width: 0.8"/>
     </g>
     <g id="line2d_14">
      <g>
       <use xlink:href="#mf27f703b8a" x="378.740524" y="252" style="stroke: #000000; stroke-width: 0.8"/>
      </g>
     </g>
     <g id="text_7">
      <!-- 3000 -->
      <g transform="translate(366.015524 266.598437)scale(0.1 -0.1)">
       <defs>
        <path id="DejaVuSans-33" d="M 2597 2516 
Q 3050 2419 3304 2112 
Q 3559 1806 3559 1356 
Q 3559 666 3084 287 
Q 2609 -91 1734 -91 
Q 1441 -91 1130 -33 
Q 819 25 488 141 
L 488 750 
Q 750 597 1062 519 
Q 1375 441 1716 441 
Q 2309 441 2620 675 
Q 2931 909 2931 1356 
Q 2931 1769 2642 2001 
Q 2353 2234 1838 2234 
L 1294 2234 
L 1294 2753 
L 1863 2753 
Q 2328 2753 2575 2939 
Q 2822 3125 2822 3475 
Q 2822 3834 2567 4026 
Q 2313 4219 1838 4219 
Q 1578 4219 1281 4162 
Q 984 4106 628 3988 
L 628 4550 
Q 988 4650 1302 4700 
Q 1616 4750 1894 4750 
Q 2613 4750 3031 4423 
Q 3450 4097 3450 3541 
Q 3450 3153 3228 2886 
Q 3006 2619 2597 2516 
z
" transform="scale(0.015625)"/>
       </defs>
       <use xlink:href="#DejaVuSans-33"/>
       <use xlink:href="#DejaVuSans-30" x="63.623047"/>
       <use xlink:href="#DejaVuSans-30" x="127.246094"/>
       <use xlink:href="#DejaVuSans-30" x="190.869141"/>
      </g>
     </g>
    </g>
    <g id="text_8">
     <!-- Steps -->
     <g transform="translate(207.410156 280.276563)scale(0.1 -0.1)">
      <defs>
       <path id="DejaVuSans-53" d="M 3425 4513 
L 3425 3897 
Q 3066 4069 2747 4153 
Q 2428 4238 2131 4238 
Q 1616 4238 1336 4038 
Q 1056 3838 1056 3469 
Q 1056 3159 1242 3001 
Q 1428 2844 1947 2747 
L 2328 2669 
Q 3034 2534 3370 2195 
Q 3706 1856 3706 1288 
Q 3706 609 3251 259 
Q 2797 -91 1919 -91 
Q 1588 -91 1214 -16 
Q 841 59 441 206 
L 441 856 
Q 825 641 1194 531 
Q 1563 422 1919 422 
Q 2459 422 2753 634 
Q 3047 847 3047 1241 
Q 3047 1584 2836 1778 
Q 2625 1972 2144 2069 
L 1759 2144 
Q 1053 2284 737 2584 
Q 422 2884 422 3419 
Q 422 4038 858 4394 
Q 1294 4750 2059 4750 
Q 2388 4750 2728 4690 
Q 3069 4631 3425 4513 
z
" transform="scale(0.015625)"/>
       <path id="DejaVuSans-74" d="M 1172 4494 
L 1172 3500 
L 2356 3500 
L 2356 3053 
L 1172 3053 
L 1172 1153 
Q 1172 725 1289 603 
Q 1406 481 1766 481 
L 2356 481 
L 2356 0 
L 1766 0 
Q 1100 0 847 248 
Q 594 497 594 1153 
L 594 3053 
L 172 3053 
L 172 3500 
L 594 3500 
L 594 4494 
L 1172 4494 
z
" transform="scale(0.015625)"/>
       <path id="DejaVuSans-65" d="M 3597 1894 
L 3597 1613 
L 953 1613 
Q 991 1019 1311 708 
Q 1631 397 2203 397 
Q 2534 397 2845 478 
Q 3156 559 3463 722 
L 3463 178 
Q 3153 47 2828 -22 
Q 2503 -91 2169 -91 
Q 1331 -91 842 396 
Q 353 884 353 1716 
Q 353 2575 817 3079 
Q 1281 3584 2069 3584 
Q 2775 3584 3186 3129 
Q 3597 2675 3597 1894 
z
M 3022 2063 
Q 3016 2534 2758 2815 
Q 2500 3097 2075 3097 
Q 1594 3097 1305 2825 
Q 1016 2553 972 2059 
L 3022 2063 
z
" transform="scale(0.015625)"/>
       <path id="DejaVuSans-70" d="M 1159 525 
L 1159 -1331 
L 581 -1331 
L 581 3500 
L 1159 3500 
L 1159 2969 
Q 1341 3281 1617 3432 
Q 1894 3584 2278 3584 
Q 2916 3584 3314 3078 
Q 3713 2572 3713 1747 
Q 3713 922 3314 415 
Q 2916 -91 2278 -91 
Q 1894 -91 1617 61 
Q 1341 213 1159 525 
z
M 3116 1747 
Q 3116 2381 2855 2742 
Q 2594 3103 2138 3103 
Q 1681 3103 1420 2742 
Q 1159 2381 1159 1747 
Q 1159 1113 1420 752 
Q 1681 391 2138 391 
Q 2594 391 2855 752 
Q 3116 1113 3116 1747 
z
" transform="scale(0.015625)"/>
       <path id="DejaVuSans-73" d="M 2834 3397 
L 2834 2853 
Q 2591 2978 2328 3040 
Q 2066 3103 1784 3103 
Q 1356 3103 1142 2972 
Q 928 2841 928 2578 
Q 928 2378 1081 2264 
Q 1234 2150 1697 2047 
L 1894 2003 
Q 2506 1872 2764 1633 
Q 3022 1394 3022 966 
Q 3022 478 2636 193 
Q 2250 -91 1575 -91 
Q 1294 -91 989 -36 
Q 684 19 347 128 
L 347 722 
Q 666 556 975 473 
Q 1284 391 1588 391 
Q 1994 391 2212 530 
Q 2431 669 2431 922 
Q 2431 1156 2273 1281 
Q 2116 1406 1581 1522 
L 1381 1569 
Q 847 1681 609 1914 
Q 372 2147 372 2553 
Q 372 3047 722 3315 
Q 1072 3584 1716 3584 
Q 2034 3584 2315 3537 
Q 2597 3491 2834 3397 
z
" transform="scale(0.015625)"/>
      </defs>
      <use xlink:href="#DejaVuSans-53"/>
      <use xlink:href="#DejaVuSans-74" x="63.476562"/>
      <use xlink:href="#DejaVuSans-65" x="102.685547"/>
      <use xlink:href="#DejaVuSans-70" x="164.208984"/>
      <use xlink:href="#DejaVuSans-73" x="227.685547"/>
     </g>
    </g>
   </g>
   <g id="matplotlib.axis_2">
    <g id="ytick_1">
     <g id="line2d_15">
      <path d="M 54 243.636923 
L 388.8 243.636923 
" clip-path="url(#pb72927fc3c)" style="fill: none; stroke-dasharray: 2.96,1.28; stroke-dashoffset: 0; stroke: #b0b0b0; stroke-width: 0.8"/>
     </g>
     <g id="line2d_16">
      <defs>
       <path id="mc7115df872" d="M 0 0 
L -3.5 0 
" style="stroke: #000000; stroke-width: 0.8"/>
      </defs>
      <g>
       <use xlink:href="#mc7115df872" x="54" y="243.636923" style="stroke: #000000; stroke-width: 0.8"/>
      </g>
     </g>
     <g id="text_9">
      <!-- −12 -->
      <g transform="translate(25.895312 247.436142)scale(0.1 -0.1)">
       <defs>
        <path id="DejaVuSans-2212" d="M 678 2272 
L 4684 2272 
L 4684 1741 
L 678 1741 
L 678 2272 
z
" transform="scale(0.015625)"/>
       </defs>
       <use xlink:href="#DejaVuSans-2212"/>
       <use xlink:href="#DejaVuSans-31" x="83.789062"/>
       <use xlink:href="#DejaVuSans-32" x="147.412109"/>
      </g>
     </g>
    </g>
    <g id="ytick_2">
     <g id="line2d_17">
      <path d="M 54 210.184615 
L 388.8 210.184615 
" clip-path="url(#pb72927fc3c)" style="fill: none; stroke-dasharray: 2.96,1.28; stroke-dashoffset: 0; stroke: #b0b0b0; stroke-width: 0.8"/>
     </g>
     <g id="line2d_18">
      <g>
       <use xlink:href="#mc7115df872" x="54" y="210.184615" style="stroke: #000000; stroke-width: 0.8"/>
      </g>
     </g>
     <g id="text_10">
      <!-- −10 -->
      <g transform="translate(25.895312 213.983834)scale(0.1 -0.1)">
       <use xlink:href="#DejaVuSans-2212"/>
       <use xlink:href="#DejaVuSans-31" x="83.789062"/>
       <use xlink:href="#DejaVuSans-30" x="147.412109"/>
      </g>
     </g>
    </g>
    <g id="ytick_3">
     <g id="line2d_19">
      <path d="M 54 176.732308 
L 388.8 176.732308 
" clip-path="url(#pb72927fc3c)" style="fill: none; stroke-dasharray: 2.96,1.28; stroke-dashoffset: 0; stroke: #b0b0b0; stroke-width: 0.8"/>
     </g>
     <g id="line2d_20">
      <g>
       <use xlink:href="#mc7115df872" x="54" y="176.732308" style="stroke: #000000; stroke-width: 0.8"/>
      </g>
     </g>
     <g id="text_11">
      <!-- −8 -->
      <g transform="translate(32.257812 180.531526)scale(0.1 -0.1)">
       <defs>
        <path id="DejaVuSans-38" d="M 2034 2216 
Q 1584 2216 1326 1975 
Q 1069 1734 1069 1313 
Q 1069 891 1326 650 
Q 1584 409 2034 409 
Q 2484 409 2743 651 
Q 3003 894 3003 1313 
Q 3003 1734 2745 1975 
Q 2488 2216 2034 2216 
z
M 1403 2484 
Q 997 2584 770 2862 
Q 544 3141 544 3541 
Q 544 4100 942 4425 
Q 1341 4750 2034 4750 
Q 2731 4750 3128 4425 
Q 3525 4100 3525 3541 
Q 3525 3141 3298 2862 
Q 3072 2584 2669 2484 
Q 3125 2378 3379 2068 
Q 3634 1759 3634 1313 
Q 3634 634 3220 271 
Q 2806 -91 2034 -91 
Q 1263 -91 848 271 
Q 434 634 434 1313 
Q 434 1759 690 2068 
Q 947 2378 1403 2484 
z
M 1172 3481 
Q 1172 3119 1398 2916 
Q 1625 2713 2034 2713 
Q 2441 2713 2670 2916 
Q 2900 3119 2900 3481 
Q 2900 3844 2670 4047 
Q 2441 4250 2034 4250 
Q 1625 4250 1398 4047 
Q 1172 3844 1172 3481 
z
" transform="scale(0.015625)"/>
       </defs>
       <use xlink:href="#DejaVuSans-2212"/>
       <use xlink:href="#DejaVuSans-38" x="83.789062"/>
      </g>
     </g>
    </g>
    <g id="ytick_4">
     <g id="line2d_21">
      <path d="M 54 143.28 
L 388.8 143.28 
" clip-path="url(#pb72927fc3c)" style="fill: none; stroke-dasharray: 2.96,1.28; stroke-dashoffset: 0; stroke: #b0b0b0; stroke-width: 0.8"/>
     </g>
     <g id="line2d_22">
      <g>
       <use xlink:href="#mc7115df872" x="54" y="143.28" style="stroke: #000000; stroke-width: 0.8"/>
      </g>
     </g>
     <g id="text_12">
      <!-- −6 -->
      <g transform="translate(32.257812 147.079219)scale(0.1 -0.1)">
       <defs>
        <path id="DejaVuSans-36" d="M 2113 2584 
Q 1688 2584 1439 2293 
Q 1191 2003 1191 1497 
Q 1191 994 1439 701 
Q 1688 409 2113 409 
Q 2538 409 2786 701 
Q 3034 994 3034 1497 
Q 3034 2003 2786 2293 
Q 2538 2584 2113 2584 
z
M 3366 4563 
L 3366 3988 
Q 3128 4100 2886 4159 
Q 2644 4219 2406 4219 
Q 1781 4219 1451 3797 
Q 1122 3375 1075 2522 
Q 1259 2794 1537 2939 
Q 1816 3084 2150 3084 
Q 2853 3084 3261 2657 
Q 3669 2231 3669 1497 
Q 3669 778 3244 343 
Q 2819 -91 2113 -91 
Q 1303 -91 875 529 
Q 447 1150 447 2328 
Q 447 3434 972 4092 
Q 1497 4750 2381 4750 
Q 2619 4750 2861 4703 
Q 3103 4656 3366 4563 
z
" transform="scale(0.015625)"/>
       </defs>
       <use xlink:href="#DejaVuSans-2212"/>
       <use xlink:href="#DejaVuSans-36" x="83.789062"/>
      </g>
     </g>
    </g>
    <g id="ytick_5">
     <g id="line2d_23">
      <path d="M 54 109.827692 
L 388.8 109.827692 
" clip-path="url(#pb72927fc3c)" style="fill: none; stroke-dasharray: 2.96,1.28; stroke-dashoffset: 0; stroke: #b0b0b0; stroke-width: 0.8"/>
     </g>
     <g id="line2d_24">
      <g>
       <use xlink:href="#mc7115df872" x="54" y="109.827692" style="stroke: #000000; stroke-width: 0.8"/>
      </g>
     </g>
     <g id="text_13">
      <!-- −4 -->
      <g transform="translate(32.257812 113.626911)scale(0.1 -0.1)">
       <defs>
        <path id="DejaVuSans-34" d="M 2419 4116 
L 825 1625 
L 2419 1625 
L 2419 4116 
z
M 2253 4666 
L 3047 4666 
L 3047 1625 
L 3713 1625 
L 3713 1100 
L 3047 1100 
L 3047 0 
L 2419 0 
L 2419 1100 
L 313 1100 
L 313 1709 
L 2253 4666 
z
" transform="scale(0.015625)"/>
       </defs>
       <use xlink:href="#DejaVuSans-2212"/>
       <use xlink:href="#DejaVuSans-34" x="83.789062"/>
      </g>
     </g>
    </g>
    <g id="ytick_6">
     <g id="line2d_25">
      <path d="M 54 76.375385 
L 388.8 76.375385 
" clip-path="url(#pb72927fc3c)" style="fill: none; stroke-dasharray: 2.96,1.28; stroke-dashoffset: 0; stroke: #b0b0b0; stroke-width: 0.8"/>
     </g>
     <g id="line2d_26">
      <g>
       <use xlink:href="#mc7115df872" x="54" y="76.375385" style="stroke: #000000; stroke-width: 0.8"/>
      </g>
     </g>
     <g id="text_14">
      <!-- −2 -->
      <g transform="translate(32.257812 80.174603)scale(0.1 -0.1)">
       <use xlink:href="#DejaVuSans-2212"/>
       <use xlink:href="#DejaVuSans-32" x="83.789062"/>
      </g>
     </g>
    </g>
    <g id="ytick_7">
     <g id="line2d_27">
      <path d="M 54 42.923077 
L 388.8 42.923077 
" clip-path="url(#pb72927fc3c)" style="fill: none; stroke-dasharray: 2.96,1.28; stroke-dashoffset: 0; stroke: #b0b0b0; stroke-width: 0.8"/>
     </g>
     <g id="line2d_28">
      <g>
       <use xlink:href="#mc7115df872" x="54" y="42.923077" style="stroke: #000000; stroke-width: 0.8"/>
      </g>
     </g>
     <g id="text_15">
      <!-- 0 -->
      <g transform="translate(40.6375 46.722296)scale(0.1 -0.1)">
       <use xlink:href="#DejaVuSans-30"/>
      </g>
     </g>
    </g>
    <g id="text_16">
     <!-- Policy value error -->
     <g transform="translate(19.815625 186.597969)rotate(-90)scale(0.1 -0.1)">
      <defs>
       <path id="DejaVuSans-50" d="M 1259 4147 
L 1259 2394 
L 2053 2394 
Q 2494 2394 2734 2622 
Q 2975 2850 2975 3272 
Q 2975 3691 2734 3919 
Q 2494 4147 2053 4147 
L 1259 4147 
z
M 628 4666 
L 2053 4666 
Q 2838 4666 3239 4311 
Q 3641 3956 3641 3272 
Q 3641 2581 3239 2228 
Q 2838 1875 2053 1875 
L 1259 1875 
L 1259 0 
L 628 0 
L 628 4666 
z
" transform="scale(0.015625)"/>
       <path id="DejaVuSans-6f" d="M 1959 3097 
Q 1497 3097 1228 2736 
Q 959 2375 959 1747 
Q 959 1119 1226 758 
Q 1494 397 1959 397 
Q 2419 397 2687 759 
Q 2956 1122 2956 1747 
Q 2956 2369 2687 2733 
Q 2419 3097 1959 3097 
z
M 1959 3584 
Q 2709 3584 3137 3096 
Q 3566 2609 3566 1747 
Q 3566 888 3137 398 
Q 2709 -91 1959 -91 
Q 1206 -91 779 398 
Q 353 888 353 1747 
Q 353 2609 779 3096 
Q 1206 3584 1959 3584 
z
" transform="scale(0.015625)"/>
       <path id="DejaVuSans-6c" d="M 603 4863 
L 1178 4863 
L 1178 0 
L 603 0 
L 603 4863 
z
" transform="scale(0.015625)"/>
       <path id="DejaVuSans-69" d="M 603 3500 
L 1178 3500 
L 1178 0 
L 603 0 
L 603 3500 
z
M 603 4863 
L 1178 4863 
L 1178 4134 
L 603 4134 
L 603 4863 
z
" transform="scale(0.015625)"/>
       <path id="DejaVuSans-63" d="M 3122 3366 
L 3122 2828 
Q 2878 2963 2633 3030 
Q 2388 3097 2138 3097 
Q 1578 3097 1268 2742 
Q 959 2388 959 1747 
Q 959 1106 1268 751 
Q 1578 397 2138 397 
Q 2388 397 2633 464 
Q 2878 531 3122 666 
L 3122 134 
Q 2881 22 2623 -34 
Q 2366 -91 2075 -91 
Q 1284 -91 818 406 
Q 353 903 353 1747 
Q 353 2603 823 3093 
Q 1294 3584 2113 3584 
Q 2378 3584 2631 3529 
Q 2884 3475 3122 3366 
z
" transform="scale(0.015625)"/>
       <path id="DejaVuSans-79" d="M 2059 -325 
Q 1816 -950 1584 -1140 
Q 1353 -1331 966 -1331 
L 506 -1331 
L 506 -850 
L 844 -850 
Q 1081 -850 1212 -737 
Q 1344 -625 1503 -206 
L 1606 56 
L 191 3500 
L 800 3500 
L 1894 763 
L 2988 3500 
L 3597 3500 
L 2059 -325 
z
" transform="scale(0.015625)"/>
       <path id="DejaVuSans-20" transform="scale(0.015625)"/>
       <path id="DejaVuSans-76" d="M 191 3500 
L 800 3500 
L 1894 563 
L 2988 3500 
L 3597 3500 
L 2284 0 
L 1503 0 
L 191 3500 
z
" transform="scale(0.015625)"/>
       <path id="DejaVuSans-61" d="M 2194 1759 
Q 1497 1759 1228 1600 
Q 959 1441 959 1056 
Q 959 750 1161 570 
Q 1363 391 1709 391 
Q 2188 391 2477 730 
Q 2766 1069 2766 1631 
L 2766 1759 
L 2194 1759 
z
M 3341 1997 
L 3341 0 
L 2766 0 
L 2766 531 
Q 2569 213 2275 61 
Q 1981 -91 1556 -91 
Q 1019 -91 701 211 
Q 384 513 384 1019 
Q 384 1609 779 1909 
Q 1175 2209 1959 2209 
L 2766 2209 
L 2766 2266 
Q 2766 2663 2505 2880 
Q 2244 3097 1772 3097 
Q 1472 3097 1187 3025 
Q 903 2953 641 2809 
L 641 3341 
Q 956 3463 1253 3523 
Q 1550 3584 1831 3584 
Q 2591 3584 2966 3190 
Q 3341 2797 3341 1997 
z
" transform="scale(0.015625)"/>
       <path id="DejaVuSans-75" d="M 544 1381 
L 544 3500 
L 1119 3500 
L 1119 1403 
Q 1119 906 1312 657 
Q 1506 409 1894 409 
Q 2359 409 2629 706 
Q 2900 1003 2900 1516 
L 2900 3500 
L 3475 3500 
L 3475 0 
L 2900 0 
L 2900 538 
Q 2691 219 2414 64 
Q 2138 -91 1772 -91 
Q 1169 -91 856 284 
Q 544 659 544 1381 
z
M 1991 3584 
L 1991 3584 
z
" transform="scale(0.015625)"/>
       <path id="DejaVuSans-72" d="M 2631 2963 
Q 2534 3019 2420 3045 
Q 2306 3072 2169 3072 
Q 1681 3072 1420 2755 
Q 1159 2438 1159 1844 
L 1159 0 
L 581 0 
L 581 3500 
L 1159 3500 
L 1159 2956 
Q 1341 3275 1631 3429 
Q 1922 3584 2338 3584 
Q 2397 3584 2469 3576 
Q 2541 3569 2628 3553 
L 2631 2963 
z
" transform="scale(0.015625)"/>
      </defs>
      <use xlink:href="#DejaVuSans-50"/>
      <use xlink:href="#DejaVuSans-6f" x="56.677734"/>
      <use xlink:href="#DejaVuSans-6c" x="117.859375"/>
      <use xlink:href="#DejaVuSans-69" x="145.642578"/>
      <use xlink:href="#DejaVuSans-63" x="173.425781"/>
      <use xlink:href="#DejaVuSans-79" x="228.40625"/>
      <use xlink:href="#DejaVuSans-20" x="287.585938"/>
      <use xlink:href="#DejaVuSans-76" x="319.373047"/>
      <use xlink:href="#DejaVuSans-61" x="378.552734"/>
      <use xlink:href="#DejaVuSans-6c" x="439.832031"/>
      <use xlink:href="#DejaVuSans-75" x="467.615234"/>
      <use xlink:href="#DejaVuSans-65" x="530.994141"/>
      <use xlink:href="#DejaVuSans-20" x="592.517578"/>
      <use xlink:href="#DejaVuSans-65" x="624.304688"/>
      <use xlink:href="#DejaVuSans-72" x="685.828125"/>
      <use xlink:href="#DejaVuSans-72" x="725.191406"/>
      <use xlink:href="#DejaVuSans-6f" x="764.054688"/>
      <use xlink:href="#DejaVuSans-72" x="825.236328"/>
     </g>
    </g>
   </g>
   <g id="line2d_29">
    <path d="M 69.218182 252.954971 
L 74.376888 255.450138 
L 79.535593 252.908818 
L 84.694299 252.908818 
L 89.853005 252.908818 
L 95.01171 253.110864 
L 100.170416 252.908818 
L 105.329122 252.908818 
L 110.487827 253.058904 
L 115.646533 252.908818 
L 120.805239 252.908818 
L 125.963945 253.157721 
L 131.12265 244.220022 
L 136.281356 235.504702 
L 141.440062 261.025405 
L 146.598767 259.096579 
L 151.757473 259.903519 
L 156.916179 257.841366 
L 162.074884 246.250743 
L 167.23359 255.930045 
L 172.392296 225.736759 
L 177.551002 212.06934 
L 182.709707 212.91542 
L 187.868413 212.91542 
L 193.027119 213.061584 
L 198.185824 213.061584 
L 203.34453 89.709937 
L 208.503236 85.936066 
L 213.661941 84.216387 
L 218.820647 85.935624 
L 223.979353 84.21494 
L 229.138059 84.216387 
L 234.296764 75.349445 
L 239.45547 61.781952 
L 244.614176 75.349445 
L 249.772881 71.094904 
L 254.931587 70.650786 
L 260.090293 70.624059 
L 265.248998 70.624059 
L 270.407704 43.3617 
L 275.56641 46.343504 
L 280.725116 43.762181 
L 285.883821 43.769323 
L 291.042527 43.769323 
L 296.201233 48.964993 
L 301.359938 48.964993 
L 306.518644 51.679468 
L 311.67735 50.806798 
L 316.836055 52.90824 
L 321.994761 48.342256 
L 327.153467 48.342582 
L 332.312173 48.342582 
L 337.470878 47.789051 
L 342.629584 48.342582 
L 347.78829 47.789051 
L 352.946995 43.32222 
L 358.105701 43.32222 
L 363.264407 43.32222 
L 368.423112 43.32222 
L 373.581818 47.789051 
" clip-path="url(#pb72927fc3c)" style="fill: none; stroke: #9d02d7; stroke-width: 1.5; stroke-linecap: square"/>
    <defs>
     <path id="m0d3e91e6e8" d="M 0 -2 
L -2 2 
L 2 2 
z
" style="stroke: #9d02d7; stroke-linejoin: miter"/>
    </defs>
    <g clip-path="url(#pb72927fc3c)">
     <use xlink:href="#m0d3e91e6e8" x="69.218182" y="252.954971" style="fill: #9d02d7; stroke: #9d02d7; stroke-linejoin: miter"/>
     <use xlink:href="#m0d3e91e6e8" x="74.376888" y="255.450138" style="fill: #9d02d7; stroke: #9d02d7; stroke-linejoin: miter"/>
     <use xlink:href="#m0d3e91e6e8" x="79.535593" y="252.908818" style="fill: #9d02d7; stroke: #9d02d7; stroke-linejoin: miter"/>
     <use xlink:href="#m0d3e91e6e8" x="84.694299" y="252.908818" style="fill: #9d02d7; stroke: #9d02d7; stroke-linejoin: miter"/>
     <use xlink:href="#m0d3e91e6e8" x="89.853005" y="252.908818" style="fill: #9d02d7; stroke: #9d02d7; stroke-linejoin: miter"/>
     <use xlink:href="#m0d3e91e6e8" x="95.01171" y="253.110864" style="fill: #9d02d7; stroke: #9d02d7; stroke-linejoin: miter"/>
     <use xlink:href="#m0d3e91e6e8" x="100.170416" y="252.908818" style="fill: #9d02d7; stroke: #9d02d7; stroke-linejoin: miter"/>
     <use xlink:href="#m0d3e91e6e8" x="105.329122" y="252.908818" style="fill: #9d02d7; stroke: #9d02d7; stroke-linejoin: miter"/>
     <use xlink:href="#m0d3e91e6e8" x="110.487827" y="253.058904" style="fill: #9d02d7; stroke: #9d02d7; stroke-linejoin: miter"/>
     <use xlink:href="#m0d3e91e6e8" x="115.646533" y="252.908818" style="fill: #9d02d7; stroke: #9d02d7; stroke-linejoin: miter"/>
     <use xlink:href="#m0d3e91e6e8" x="120.805239" y="252.908818" style="fill: #9d02d7; stroke: #9d02d7; stroke-linejoin: miter"/>
     <use xlink:href="#m0d3e91e6e8" x="125.963945" y="253.157721" style="fill: #9d02d7; stroke: #9d02d7; stroke-linejoin: miter"/>
     <use xlink:href="#m0d3e91e6e8" x="131.12265" y="244.220022" style="fill: #9d02d7; stroke: #9d02d7; stroke-linejoin: miter"/>
     <use xlink:href="#m0d3e91e6e8" x="136.281356" y="235.504702" style="fill: #9d02d7; stroke: #9d02d7; stroke-linejoin: miter"/>
     <use xlink:href="#m0d3e91e6e8" x="141.440062" y="261.025405" style="fill: #9d02d7; stroke: #9d02d7; stroke-linejoin: miter"/>
     <use xlink:href="#m0d3e91e6e8" x="146.598767" y="259.096579" style="fill: #9d02d7; stroke: #9d02d7; stroke-linejoin: miter"/>
     <use xlink:href="#m0d3e91e6e8" x="151.757473" y="259.903519" style="fill: #9d02d7; stroke: #9d02d7; stroke-linejoin: miter"/>
     <use xlink:href="#m0d3e91e6e8" x="156.916179" y="257.841366" style="fill: #9d02d7; stroke: #9d02d7; stroke-linejoin: miter"/>
     <use xlink:href="#m0d3e91e6e8" x="162.074884" y="246.250743" style="fill: #9d02d7; stroke: #9d02d7; stroke-linejoin: miter"/>
     <use xlink:href="#m0d3e91e6e8" x="167.23359" y="255.930045" style="fill: #9d02d7; stroke: #9d02d7; stroke-linejoin: miter"/>
     <use xlink:href="#m0d3e91e6e8" x="172.392296" y="225.736759" style="fill: #9d02d7; stroke: #9d02d7; stroke-linejoin: miter"/>
     <use xlink:href="#m0d3e91e6e8" x="177.551002" y="212.06934" style="fill: #9d02d7; stroke: #9d02d7; stroke-linejoin: miter"/>
     <use xlink:href="#m0d3e91e6e8" x="182.709707" y="212.91542" style="fill: #9d02d7; stroke: #9d02d7; stroke-linejoin: miter"/>
     <use xlink:href="#m0d3e91e6e8" x="187.868413" y="212.91542" style="fill: #9d02d7; stroke: #9d02d7; stroke-linejoin: miter"/>
     <use xlink:href="#m0d3e91e6e8" x="193.027119" y="213.061584" style="fill: #9d02d7; stroke: #9d02d7; stroke-linejoin: miter"/>
     <use xlink:href="#m0d3e91e6e8" x="198.185824" y="213.061584" style="fill: #9d02d7; stroke: #9d02d7; stroke-linejoin: miter"/>
     <use xlink:href="#m0d3e91e6e8" x="203.34453" y="89.709937" style="fill: #9d02d7; stroke: #9d02d7; stroke-linejoin: miter"/>
     <use xlink:href="#m0d3e91e6e8" x="208.503236" y="85.936066" style="fill: #9d02d7; stroke: #9d02d7; stroke-linejoin: miter"/>
     <use xlink:href="#m0d3e91e6e8" x="213.661941" y="84.216387" style="fill: #9d02d7; stroke: #9d02d7; stroke-linejoin: miter"/>
     <use xlink:href="#m0d3e91e6e8" x="218.820647" y="85.935624" style="fill: #9d02d7; stroke: #9d02d7; stroke-linejoin: miter"/>
     <use xlink:href="#m0d3e91e6e8" x="223.979353" y="84.21494" style="fill: #9d02d7; stroke: #9d02d7; stroke-linejoin: miter"/>
     <use xlink:href="#m0d3e91e6e8" x="229.138059" y="84.216387" style="fill: #9d02d7; stroke: #9d02d7; stroke-linejoin: miter"/>
     <use xlink:href="#m0d3e91e6e8" x="234.296764" y="75.349445" style="fill: #9d02d7; stroke: #9d02d7; stroke-linejoin: miter"/>
     <use xlink:href="#m0d3e91e6e8" x="239.45547" y="61.781952" style="fill: #9d02d7; stroke: #9d02d7; stroke-linejoin: miter"/>
     <use xlink:href="#m0d3e91e6e8" x="244.614176" y="75.349445" style="fill: #9d02d7; stroke: #9d02d7; stroke-linejoin: miter"/>
     <use xlink:href="#m0d3e91e6e8" x="249.772881" y="71.094904" style="fill: #9d02d7; stroke: #9d02d7; stroke-linejoin: miter"/>
     <use xlink:href="#m0d3e91e6e8" x="254.931587" y="70.650786" style="fill: #9d02d7; stroke: #9d02d7; stroke-linejoin: miter"/>
     <use xlink:href="#m0d3e91e6e8" x="260.090293" y="70.624059" style="fill: #9d02d7; stroke: #9d02d7; stroke-linejoin: miter"/>
     <use xlink:href="#m0d3e91e6e8" x="265.248998" y="70.624059" style="fill: #9d02d7; stroke: #9d02d7; stroke-linejoin: miter"/>
     <use xlink:href="#m0d3e91e6e8" x="270.407704" y="43.3617" style="fill: #9d02d7; stroke: #9d02d7; stroke-linejoin: miter"/>
     <use xlink:href="#m0d3e91e6e8" x="275.56641" y="46.343504" style="fill: #9d02d7; stroke: #9d02d7; stroke-linejoin: miter"/>
     <use xlink:href="#m0d3e91e6e8" x="280.725116" y="43.762181" style="fill: #9d02d7; stroke: #9d02d7; stroke-linejoin: miter"/>
     <use xlink:href="#m0d3e91e6e8" x="285.883821" y="43.769323" style="fill: #9d02d7; stroke: #9d02d7; stroke-linejoin: miter"/>
     <use xlink:href="#m0d3e91e6e8" x="291.042527" y="43.769323" style="fill: #9d02d7; stroke: #9d02d7; stroke-linejoin: miter"/>
     <use xlink:href="#m0d3e91e6e8" x="296.201233" y="48.964993" style="fill: #9d02d7; stroke: #9d02d7; stroke-linejoin: miter"/>
     <use xlink:href="#m0d3e91e6e8" x="301.359938" y="48.964993" style="fill: #9d02d7; stroke: #9d02d7; stroke-linejoin: miter"/>
     <use xlink:href="#m0d3e91e6e8" x="306.518644" y="51.679468" style="fill: #9d02d7; stroke: #9d02d7; stroke-linejoin: miter"/>
     <use xlink:href="#m0d3e91e6e8" x="311.67735" y="50.806798" style="fill: #9d02d7; stroke: #9d02d7; stroke-linejoin: miter"/>
     <use xlink:href="#m0d3e91e6e8" x="316.836055" y="52.90824" style="fill: #9d02d7; stroke: #9d02d7; stroke-linejoin: miter"/>
     <use xlink:href="#m0d3e91e6e8" x="321.994761" y="48.342256" style="fill: #9d02d7; stroke: #9d02d7; stroke-linejoin: miter"/>
     <use xlink:href="#m0d3e91e6e8" x="327.153467" y="48.342582" style="fill: #9d02d7; stroke: #9d02d7; stroke-linejoin: miter"/>
     <use xlink:href="#m0d3e91e6e8" x="332.312173" y="48.342582" style="fill: #9d02d7; stroke: #9d02d7; stroke-linejoin: miter"/>
     <use xlink:href="#m0d3e91e6e8" x="337.470878" y="47.789051" style="fill: #9d02d7; stroke: #9d02d7; stroke-linejoin: miter"/>
     <use xlink:href="#m0d3e91e6e8" x="342.629584" y="48.342582" style="fill: #9d02d7; stroke: #9d02d7; stroke-linejoin: miter"/>
     <use xlink:href="#m0d3e91e6e8" x="347.78829" y="47.789051" style="fill: #9d02d7; stroke: #9d02d7; stroke-linejoin: miter"/>
     <use xlink:href="#m0d3e91e6e8" x="352.946995" y="43.32222" style="fill: #9d02d7; stroke: #9d02d7; stroke-linejoin: miter"/>
     <use xlink:href="#m0d3e91e6e8" x="358.105701" y="43.32222" style="fill: #9d02d7; stroke: #9d02d7; stroke-linejoin: miter"/>
     <use xlink:href="#m0d3e91e6e8" x="363.264407" y="43.32222" style="fill: #9d02d7; stroke: #9d02d7; stroke-linejoin: miter"/>
     <use xlink:href="#m0d3e91e6e8" x="368.423112" y="43.32222" style="fill: #9d02d7; stroke: #9d02d7; stroke-linejoin: miter"/>
     <use xlink:href="#m0d3e91e6e8" x="373.581818" y="47.789051" style="fill: #9d02d7; stroke: #9d02d7; stroke-linejoin: miter"/>
    </g>
   </g>
   <g id="line2d_30">
    <path d="M 69.218182 256.442003 
L 74.376888 253.168193 
L 79.535593 235.16715 
L 84.694299 156.594257 
L 89.853005 76.786582 
L 95.01171 64.091032 
L 100.170416 108.972222 
L 105.329122 128.985809 
L 110.487827 88.930747 
L 115.646533 91.355778 
L 120.805239 130.597223 
L 125.963945 130.759005 
L 131.12265 91.352122 
L 136.281356 60.526732 
L 141.440062 73.340853 
L 146.598767 64.660083 
L 151.757473 64.756122 
L 156.916179 49.489252 
L 162.074884 107.294195 
L 167.23359 107.376929 
L 172.392296 67.575833 
L 177.551002 80.88019 
L 182.709707 67.213215 
L 187.868413 67.213215 
L 193.027119 44.445699 
L 198.185824 53.45784 
L 203.34453 43.722661 
L 208.503236 53.310501 
L 213.661941 46.687396 
L 218.820647 43.719034 
L 223.979353 43.719034 
L 229.138059 69.081868 
L 234.296764 57.150881 
L 239.45547 57.895222 
L 244.614176 57.895222 
L 249.772881 57.895222 
L 254.931587 58.05539 
L 260.090293 54.910675 
L 265.248998 50.371154 
L 270.407704 50.39494 
L 275.56641 48.999305 
L 280.725116 50.04814 
L 285.883821 50.04814 
L 291.042527 48.999305 
L 296.201233 48.999305 
L 301.359938 48.999305 
L 306.518644 48.766639 
L 311.67735 48.308877 
L 316.836055 48.308745 
L 321.994761 48.308745 
L 327.153467 48.308745 
L 332.312173 48.308745 
L 337.470878 48.308745 
L 342.629584 48.308745 
L 347.78829 48.308745 
L 352.946995 48.474181 
L 358.105701 48.474181 
L 363.264407 48.474181 
L 368.423112 48.308745 
L 373.581818 48.766503 
" clip-path="url(#pb72927fc3c)" style="fill: none; stroke: #0000ff; stroke-width: 1.5; stroke-linecap: square"/>
    <defs>
     <path id="mefeb0c65da" d="M 0 2 
C 0.530406 2 1.03916 1.789267 1.414214 1.414214 
C 1.789267 1.03916 2 0.530406 2 0 
C 2 -0.530406 1.789267 -1.03916 1.414214 -1.414214 
C 1.03916 -1.789267 0.530406 -2 0 -2 
C -0.530406 -2 -1.03916 -1.789267 -1.414214 -1.414214 
C -1.789267 -1.03916 -2 -0.530406 -2 0 
C -2 0.530406 -1.789267 1.03916 -1.414214 1.414214 
C -1.03916 1.789267 -0.530406 2 0 2 
z
" style="stroke: #0000ff"/>
    </defs>
    <g clip-path="url(#pb72927fc3c)">
     <use xlink:href="#mefeb0c65da" x="69.218182" y="256.442003" style="fill: #0000ff; stroke: #0000ff"/>
     <use xlink:href="#mefeb0c65da" x="74.376888" y="253.168193" style="fill: #0000ff; stroke: #0000ff"/>
     <use xlink:href="#mefeb0c65da" x="79.535593" y="235.16715" style="fill: #0000ff; stroke: #0000ff"/>
     <use xlink:href="#mefeb0c65da" x="84.694299" y="156.594257" style="fill: #0000ff; stroke: #0000ff"/>
     <use xlink:href="#mefeb0c65da" x="89.853005" y="76.786582" style="fill: #0000ff; stroke: #0000ff"/>
     <use xlink:href="#mefeb0c65da" x="95.01171" y="64.091032" style="fill: #0000ff; stroke: #0000ff"/>
     <use xlink:href="#mefeb0c65da" x="100.170416" y="108.972222" style="fill: #0000ff; stroke: #0000ff"/>
     <use xlink:href="#mefeb0c65da" x="105.329122" y="128.985809" style="fill: #0000ff; stroke: #0000ff"/>
     <use xlink:href="#mefeb0c65da" x="110.487827" y="88.930747" style="fill: #0000ff; stroke: #0000ff"/>
     <use xlink:href="#mefeb0c65da" x="115.646533" y="91.355778" style="fill: #0000ff; stroke: #0000ff"/>
     <use xlink:href="#mefeb0c65da" x="120.805239" y="130.597223" style="fill: #0000ff; stroke: #0000ff"/>
     <use xlink:href="#mefeb0c65da" x="125.963945" y="130.759005" style="fill: #0000ff; stroke: #0000ff"/>
     <use xlink:href="#mefeb0c65da" x="131.12265" y="91.352122" style="fill: #0000ff; stroke: #0000ff"/>
     <use xlink:href="#mefeb0c65da" x="136.281356" y="60.526732" style="fill: #0000ff; stroke: #0000ff"/>
     <use xlink:href="#mefeb0c65da" x="141.440062" y="73.340853" style="fill: #0000ff; stroke: #0000ff"/>
     <use xlink:href="#mefeb0c65da" x="146.598767" y="64.660083" style="fill: #0000ff; stroke: #0000ff"/>
     <use xlink:href="#mefeb0c65da" x="151.757473" y="64.756122" style="fill: #0000ff; stroke: #0000ff"/>
     <use xlink:href="#mefeb0c65da" x="156.916179" y="49.489252" style="fill: #0000ff; stroke: #0000ff"/>
     <use xlink:href="#mefeb0c65da" x="162.074884" y="107.294195" style="fill: #0000ff; stroke: #0000ff"/>
     <use xlink:href="#mefeb0c65da" x="167.23359" y="107.376929" style="fill: #0000ff; stroke: #0000ff"/>
     <use xlink:href="#mefeb0c65da" x="172.392296" y="67.575833" style="fill: #0000ff; stroke: #0000ff"/>
     <use xlink:href="#mefeb0c65da" x="177.551002" y="80.88019" style="fill: #0000ff; stroke: #0000ff"/>
     <use xlink:href="#mefeb0c65da" x="182.709707" y="67.213215" style="fill: #0000ff; stroke: #0000ff"/>
     <use xlink:href="#mefeb0c65da" x="187.868413" y="67.213215" style="fill: #0000ff; stroke: #0000ff"/>
     <use xlink:href="#mefeb0c65da" x="193.027119" y="44.445699" style="fill: #0000ff; stroke: #0000ff"/>
     <use xlink:href="#mefeb0c65da" x="198.185824" y="53.45784" style="fill: #0000ff; stroke: #0000ff"/>
     <use xlink:href="#mefeb0c65da" x="203.34453" y="43.722661" style="fill: #0000ff; stroke: #0000ff"/>
     <use xlink:href="#mefeb0c65da" x="208.503236" y="53.310501" style="fill: #0000ff; stroke: #0000ff"/>
     <use xlink:href="#mefeb0c65da" x="213.661941" y="46.687396" style="fill: #0000ff; stroke: #0000ff"/>
     <use xlink:href="#mefeb0c65da" x="218.820647" y="43.719034" style="fill: #0000ff; stroke: #0000ff"/>
     <use xlink:href="#mefeb0c65da" x="223.979353" y="43.719034" style="fill: #0000ff; stroke: #0000ff"/>
     <use xlink:href="#mefeb0c65da" x="229.138059" y="69.081868" style="fill: #0000ff; stroke: #0000ff"/>
     <use xlink:href="#mefeb0c65da" x="234.296764" y="57.150881" style="fill: #0000ff; stroke: #0000ff"/>
     <use xlink:href="#mefeb0c65da" x="239.45547" y="57.895222" style="fill: #0000ff; stroke: #0000ff"/>
     <use xlink:href="#mefeb0c65da" x="244.614176" y="57.895222" style="fill: #0000ff; stroke: #0000ff"/>
     <use xlink:href="#mefeb0c65da" x="249.772881" y="57.895222" style="fill: #0000ff; stroke: #0000ff"/>
     <use xlink:href="#mefeb0c65da" x="254.931587" y="58.05539" style="fill: #0000ff; stroke: #0000ff"/>
     <use xlink:href="#mefeb0c65da" x="260.090293" y="54.910675" style="fill: #0000ff; stroke: #0000ff"/>
     <use xlink:href="#mefeb0c65da" x="265.248998" y="50.371154" style="fill: #0000ff; stroke: #0000ff"/>
     <use xlink:href="#mefeb0c65da" x="270.407704" y="50.39494" style="fill: #0000ff; stroke: #0000ff"/>
     <use xlink:href="#mefeb0c65da" x="275.56641" y="48.999305" style="fill: #0000ff; stroke: #0000ff"/>
     <use xlink:href="#mefeb0c65da" x="280.725116" y="50.04814" style="fill: #0000ff; stroke: #0000ff"/>
     <use xlink:href="#mefeb0c65da" x="285.883821" y="50.04814" style="fill: #0000ff; stroke: #0000ff"/>
     <use xlink:href="#mefeb0c65da" x="291.042527" y="48.999305" style="fill: #0000ff; stroke: #0000ff"/>
     <use xlink:href="#mefeb0c65da" x="296.201233" y="48.999305" style="fill: #0000ff; stroke: #0000ff"/>
     <use xlink:href="#mefeb0c65da" x="301.359938" y="48.999305" style="fill: #0000ff; stroke: #0000ff"/>
     <use xlink:href="#mefeb0c65da" x="306.518644" y="48.766639" style="fill: #0000ff; stroke: #0000ff"/>
     <use xlink:href="#mefeb0c65da" x="311.67735" y="48.308877" style="fill: #0000ff; stroke: #0000ff"/>
     <use xlink:href="#mefeb0c65da" x="316.836055" y="48.308745" style="fill: #0000ff; stroke: #0000ff"/>
     <use xlink:href="#mefeb0c65da" x="321.994761" y="48.308745" style="fill: #0000ff; stroke: #0000ff"/>
     <use xlink:href="#mefeb0c65da" x="327.153467" y="48.308745" style="fill: #0000ff; stroke: #0000ff"/>
     <use xlink:href="#mefeb0c65da" x="332.312173" y="48.308745" style="fill: #0000ff; stroke: #0000ff"/>
     <use xlink:href="#mefeb0c65da" x="337.470878" y="48.308745" style="fill: #0000ff; stroke: #0000ff"/>
     <use xlink:href="#mefeb0c65da" x="342.629584" y="48.308745" style="fill: #0000ff; stroke: #0000ff"/>
     <use xlink:href="#mefeb0c65da" x="347.78829" y="48.308745" style="fill: #0000ff; stroke: #0000ff"/>
     <use xlink:href="#mefeb0c65da" x="352.946995" y="48.474181" style="fill: #0000ff; stroke: #0000ff"/>
     <use xlink:href="#mefeb0c65da" x="358.105701" y="48.474181" style="fill: #0000ff; stroke: #0000ff"/>
     <use xlink:href="#mefeb0c65da" x="363.264407" y="48.474181" style="fill: #0000ff; stroke: #0000ff"/>
     <use xlink:href="#mefeb0c65da" x="368.423112" y="48.308745" style="fill: #0000ff; stroke: #0000ff"/>
     <use xlink:href="#mefeb0c65da" x="373.581818" y="48.766503" style="fill: #0000ff; stroke: #0000ff"/>
    </g>
   </g>
   <g id="line2d_31">
    <path d="M 69.218182 253.828974 
L 74.376888 252.908818 
L 79.535593 252.908818 
L 84.694299 252.908818 
L 89.853005 252.908818 
L 95.01171 248.74437 
L 100.170416 194.292036 
L 105.329122 237.827262 
L 110.487827 123.718036 
L 115.646533 132.056096 
L 120.805239 241.121654 
L 125.963945 245.839211 
L 131.12265 236.514862 
L 136.281356 243.864002 
L 141.440062 243.154673 
L 146.598767 238.644822 
L 151.757473 246.93111 
L 156.916179 243.623581 
L 162.074884 231.146287 
L 167.23359 249.336371 
L 172.392296 191.310039 
L 177.551002 231.40314 
L 182.709707 231.403447 
L 187.868413 231.403257 
L 193.027119 231.403447 
L 198.185824 157.957815 
L 203.34453 158.53891 
L 208.503236 158.67434 
L 213.661941 158.53891 
L 218.820647 158.53891 
L 223.979353 158.53891 
L 229.138059 46.076898 
L 234.296764 46.076898 
L 239.45547 46.076898 
L 244.614176 46.076898 
L 249.772881 45.581777 
L 254.931587 45.581777 
L 260.090293 45.581777 
L 265.248998 45.581777 
L 270.407704 44.894105 
L 275.56641 45.581777 
L 280.725116 44.085067 
L 285.883821 43.279729 
L 291.042527 42.92429 
L 296.201233 42.92429 
L 301.359938 43.3617 
L 306.518644 43.3617 
L 311.67735 43.3617 
L 316.836055 43.3617 
L 321.994761 42.92429 
L 327.153467 42.92429 
L 332.312173 42.92429 
L 337.470878 42.92429 
L 342.629584 42.92429 
L 347.78829 42.92429 
L 352.946995 42.92429 
L 358.105701 42.92429 
L 363.264407 42.92429 
L 368.423112 42.92429 
L 373.581818 42.92429 
" clip-path="url(#pb72927fc3c)" style="fill: none; stroke: #ff7763; stroke-width: 1.5; stroke-linecap: square"/>
    <defs>
     <path id="m8c5297d12c" d="M -2 2 
L 2 -2 
M -2 -2 
L 2 2 
" style="stroke: #ff7763"/>
    </defs>
    <g clip-path="url(#pb72927fc3c)">
     <use xlink:href="#m8c5297d12c" x="69.218182" y="253.828974" style="fill: #ff7763; stroke: #ff7763"/>
     <use xlink:href="#m8c5297d12c" x="74.376888" y="252.908818" style="fill: #ff7763; stroke: #ff7763"/>
     <use xlink:href="#m8c5297d12c" x="79.535593" y="252.908818" style="fill: #ff7763; stroke: #ff7763"/>
     <use xlink:href="#m8c5297d12c" x="84.694299" y="252.908818" style="fill: #ff7763; stroke: #ff7763"/>
     <use xlink:href="#m8c5297d12c" x="89.853005" y="252.908818" style="fill: #ff7763; stroke: #ff7763"/>
     <use xlink:href="#m8c5297d12c" x="95.01171" y="248.74437" style="fill: #ff7763; stroke: #ff7763"/>
     <use xlink:href="#m8c5297d12c" x="100.170416" y="194.292036" style="fill: #ff7763; stroke: #ff7763"/>
     <use xlink:href="#m8c5297d12c" x="105.329122" y="237.827262" style="fill: #ff7763; stroke: #ff7763"/>
     <use xlink:href="#m8c5297d12c" x="110.487827" y="123.718036" style="fill: #ff7763; stroke: #ff7763"/>
     <use xlink:href="#m8c5297d12c" x="115.646533" y="132.056096" style="fill: #ff7763; stroke: #ff7763"/>
     <use xlink:href="#m8c5297d12c" x="120.805239" y="241.121654" style="fill: #ff7763; stroke: #ff7763"/>
     <use xlink:href="#m8c5297d12c" x="125.963945" y="245.839211" style="fill: #ff7763; stroke: #ff7763"/>
     <use xlink:href="#m8c5297d12c" x="131.12265" y="236.514862" style="fill: #ff7763; stroke: #ff7763"/>
     <use xlink:href="#m8c5297d12c" x="136.281356" y="243.864002" style="fill: #ff7763; stroke: #ff7763"/>
     <use xlink:href="#m8c5297d12c" x="141.440062" y="243.154673" style="fill: #ff7763; stroke: #ff7763"/>
     <use xlink:href="#m8c5297d12c" x="146.598767" y="238.644822" style="fill: #ff7763; stroke: #ff7763"/>
     <use xlink:href="#m8c5297d12c" x="151.757473" y="246.93111" style="fill: #ff7763; stroke: #ff7763"/>
     <use xlink:href="#m8c5297d12c" x="156.916179" y="243.623581" style="fill: #ff7763; stroke: #ff7763"/>
     <use xlink:href="#m8c5297d12c" x="162.074884" y="231.146287" style="fill: #ff7763; stroke: #ff7763"/>
     <use xlink:href="#m8c5297d12c" x="167.23359" y="249.336371" style="fill: #ff7763; stroke: #ff7763"/>
     <use xlink:href="#m8c5297d12c" x="172.392296" y="191.310039" style="fill: #ff7763; stroke: #ff7763"/>
     <use xlink:href="#m8c5297d12c" x="177.551002" y="231.40314" style="fill: #ff7763; stroke: #ff7763"/>
     <use xlink:href="#m8c5297d12c" x="182.709707" y="231.403447" style="fill: #ff7763; stroke: #ff7763"/>
     <use xlink:href="#m8c5297d12c" x="187.868413" y="231.403257" style="fill: #ff7763; stroke: #ff7763"/>
     <use xlink:href="#m8c5297d12c" x="193.027119" y="231.403447" style="fill: #ff7763; stroke: #ff7763"/>
     <use xlink:href="#m8c5297d12c" x="198.185824" y="157.957815" style="fill: #ff7763; stroke: #ff7763"/>
     <use xlink:href="#m8c5297d12c" x="203.34453" y="158.53891" style="fill: #ff7763; stroke: #ff7763"/>
     <use xlink:href="#m8c5297d12c" x="208.503236" y="158.67434" style="fill: #ff7763; stroke: #ff7763"/>
     <use xlink:href="#m8c5297d12c" x="213.661941" y="158.53891" style="fill: #ff7763; stroke: #ff7763"/>
     <use xlink:href="#m8c5297d12c" x="218.820647" y="158.53891" style="fill: #ff7763; stroke: #ff7763"/>
     <use xlink:href="#m8c5297d12c" x="223.979353" y="158.53891" style="fill: #ff7763; stroke: #ff7763"/>
     <use xlink:href="#m8c5297d12c" x="229.138059" y="46.076898" style="fill: #ff7763; stroke: #ff7763"/>
     <use xlink:href="#m8c5297d12c" x="234.296764" y="46.076898" style="fill: #ff7763; stroke: #ff7763"/>
     <use xlink:href="#m8c5297d12c" x="239.45547" y="46.076898" style="fill: #ff7763; stroke: #ff7763"/>
     <use xlink:href="#m8c5297d12c" x="244.614176" y="46.076898" style="fill: #ff7763; stroke: #ff7763"/>
     <use xlink:href="#m8c5297d12c" x="249.772881" y="45.581777" style="fill: #ff7763; stroke: #ff7763"/>
     <use xlink:href="#m8c5297d12c" x="254.931587" y="45.581777" style="fill: #ff7763; stroke: #ff7763"/>
     <use xlink:href="#m8c5297d12c" x="260.090293" y="45.581777" style="fill: #ff7763; stroke: #ff7763"/>
     <use xlink:href="#m8c5297d12c" x="265.248998" y="45.581777" style="fill: #ff7763; stroke: #ff7763"/>
     <use xlink:href="#m8c5297d12c" x="270.407704" y="44.894105" style="fill: #ff7763; stroke: #ff7763"/>
     <use xlink:href="#m8c5297d12c" x="275.56641" y="45.581777" style="fill: #ff7763; stroke: #ff7763"/>
     <use xlink:href="#m8c5297d12c" x="280.725116" y="44.085067" style="fill: #ff7763; stroke: #ff7763"/>
     <use xlink:href="#m8c5297d12c" x="285.883821" y="43.279729" style="fill: #ff7763; stroke: #ff7763"/>
     <use xlink:href="#m8c5297d12c" x="291.042527" y="42.92429" style="fill: #ff7763; stroke: #ff7763"/>
     <use xlink:href="#m8c5297d12c" x="296.201233" y="42.92429" style="fill: #ff7763; stroke: #ff7763"/>
     <use xlink:href="#m8c5297d12c" x="301.359938" y="43.3617" style="fill: #ff7763; stroke: #ff7763"/>
     <use xlink:href="#m8c5297d12c" x="306.518644" y="43.3617" style="fill: #ff7763; stroke: #ff7763"/>
     <use xlink:href="#m8c5297d12c" x="311.67735" y="43.3617" style="fill: #ff7763; stroke: #ff7763"/>
     <use xlink:href="#m8c5297d12c" x="316.836055" y="43.3617" style="fill: #ff7763; stroke: #ff7763"/>
     <use xlink:href="#m8c5297d12c" x="321.994761" y="42.92429" style="fill: #ff7763; stroke: #ff7763"/>
     <use xlink:href="#m8c5297d12c" x="327.153467" y="42.92429" style="fill: #ff7763; stroke: #ff7763"/>
     <use xlink:href="#m8c5297d12c" x="332.312173" y="42.92429" style="fill: #ff7763; stroke: #ff7763"/>
     <use xlink:href="#m8c5297d12c" x="337.470878" y="42.92429" style="fill: #ff7763; stroke: #ff7763"/>
     <use xlink:href="#m8c5297d12c" x="342.629584" y="42.92429" style="fill: #ff7763; stroke: #ff7763"/>
     <use xlink:href="#m8c5297d12c" x="347.78829" y="42.92429" style="fill: #ff7763; stroke: #ff7763"/>
     <use xlink:href="#m8c5297d12c" x="352.946995" y="42.92429" style="fill: #ff7763; stroke: #ff7763"/>
     <use xlink:href="#m8c5297d12c" x="358.105701" y="42.92429" style="fill: #ff7763; stroke: #ff7763"/>
     <use xlink:href="#m8c5297d12c" x="363.264407" y="42.92429" style="fill: #ff7763; stroke: #ff7763"/>
     <use xlink:href="#m8c5297d12c" x="368.423112" y="42.92429" style="fill: #ff7763; stroke: #ff7763"/>
     <use xlink:href="#m8c5297d12c" x="373.581818" y="42.92429" style="fill: #ff7763; stroke: #ff7763"/>
    </g>
   </g>
   <g id="patch_3">
    <path d="M 54 252 
L 54 34.56 
" style="fill: none; stroke: #000000; stroke-width: 0.8; stroke-linejoin: miter; stroke-linecap: square"/>
   </g>
   <g id="patch_4">
    <path d="M 388.8 252 
L 388.8 34.56 
" style="fill: none; stroke: #000000; stroke-width: 0.8; stroke-linejoin: miter; stroke-linecap: square"/>
   </g>
   <g id="patch_5">
    <path d="M 54 252 
L 388.8 252 
" style="fill: none; stroke: #000000; stroke-width: 0.8; stroke-linejoin: miter; stroke-linecap: square"/>
   </g>
   <g id="patch_6">
    <path d="M 54 34.56 
L 388.8 34.56 
" style="fill: none; stroke: #000000; stroke-width: 0.8; stroke-linejoin: miter; stroke-linecap: square"/>
   </g>
   <g id="text_17">
    <!-- R-max optimal policy with m = 15 -->
    <g transform="translate(119.205 28.56)scale(0.12 -0.12)">
     <defs>
      <path id="DejaVuSans-52" d="M 2841 2188 
Q 3044 2119 3236 1894 
Q 3428 1669 3622 1275 
L 4263 0 
L 3584 0 
L 2988 1197 
Q 2756 1666 2539 1819 
Q 2322 1972 1947 1972 
L 1259 1972 
L 1259 0 
L 628 0 
L 628 4666 
L 2053 4666 
Q 2853 4666 3247 4331 
Q 3641 3997 3641 3322 
Q 3641 2881 3436 2590 
Q 3231 2300 2841 2188 
z
M 1259 4147 
L 1259 2491 
L 2053 2491 
Q 2509 2491 2742 2702 
Q 2975 2913 2975 3322 
Q 2975 3731 2742 3939 
Q 2509 4147 2053 4147 
L 1259 4147 
z
" transform="scale(0.015625)"/>
      <path id="DejaVuSans-2d" d="M 313 2009 
L 1997 2009 
L 1997 1497 
L 313 1497 
L 313 2009 
z
" transform="scale(0.015625)"/>
      <path id="DejaVuSans-6d" d="M 3328 2828 
Q 3544 3216 3844 3400 
Q 4144 3584 4550 3584 
Q 5097 3584 5394 3201 
Q 5691 2819 5691 2113 
L 5691 0 
L 5113 0 
L 5113 2094 
Q 5113 2597 4934 2840 
Q 4756 3084 4391 3084 
Q 3944 3084 3684 2787 
Q 3425 2491 3425 1978 
L 3425 0 
L 2847 0 
L 2847 2094 
Q 2847 2600 2669 2842 
Q 2491 3084 2119 3084 
Q 1678 3084 1418 2786 
Q 1159 2488 1159 1978 
L 1159 0 
L 581 0 
L 581 3500 
L 1159 3500 
L 1159 2956 
Q 1356 3278 1631 3431 
Q 1906 3584 2284 3584 
Q 2666 3584 2933 3390 
Q 3200 3197 3328 2828 
z
" transform="scale(0.015625)"/>
      <path id="DejaVuSans-78" d="M 3513 3500 
L 2247 1797 
L 3578 0 
L 2900 0 
L 1881 1375 
L 863 0 
L 184 0 
L 1544 1831 
L 300 3500 
L 978 3500 
L 1906 2253 
L 2834 3500 
L 3513 3500 
z
" transform="scale(0.015625)"/>
      <path id="DejaVuSans-77" d="M 269 3500 
L 844 3500 
L 1563 769 
L 2278 3500 
L 2956 3500 
L 3675 769 
L 4391 3500 
L 4966 3500 
L 4050 0 
L 3372 0 
L 2619 2869 
L 1863 0 
L 1184 0 
L 269 3500 
z
" transform="scale(0.015625)"/>
      <path id="DejaVuSans-68" d="M 3513 2113 
L 3513 0 
L 2938 0 
L 2938 2094 
Q 2938 2591 2744 2837 
Q 2550 3084 2163 3084 
Q 1697 3084 1428 2787 
Q 1159 2491 1159 1978 
L 1159 0 
L 581 0 
L 581 4863 
L 1159 4863 
L 1159 2956 
Q 1366 3272 1645 3428 
Q 1925 3584 2291 3584 
Q 2894 3584 3203 3211 
Q 3513 2838 3513 2113 
z
" transform="scale(0.015625)"/>
      <path id="DejaVuSans-3d" d="M 678 2906 
L 4684 2906 
L 4684 2381 
L 678 2381 
L 678 2906 
z
M 678 1631 
L 4684 1631 
L 4684 1100 
L 678 1100 
L 678 1631 
z
" transform="scale(0.015625)"/>
     </defs>
     <use xlink:href="#DejaVuSans-52"/>
     <use xlink:href="#DejaVuSans-2d" x="65.482422"/>
     <use xlink:href="#DejaVuSans-6d" x="101.566406"/>
     <use xlink:href="#DejaVuSans-61" x="198.978516"/>
     <use xlink:href="#DejaVuSans-78" x="260.257812"/>
     <use xlink:href="#DejaVuSans-20" x="319.4375"/>
     <use xlink:href="#DejaVuSans-6f" x="351.224609"/>
     <use xlink:href="#DejaVuSans-70" x="412.40625"/>
     <use xlink:href="#DejaVuSans-74" x="475.882812"/>
     <use xlink:href="#DejaVuSans-69" x="515.091797"/>
     <use xlink:href="#DejaVuSans-6d" x="542.875"/>
     <use xlink:href="#DejaVuSans-61" x="640.287109"/>
     <use xlink:href="#DejaVuSans-6c" x="701.566406"/>
     <use xlink:href="#DejaVuSans-20" x="729.349609"/>
     <use xlink:href="#DejaVuSans-70" x="761.136719"/>
     <use xlink:href="#DejaVuSans-6f" x="824.613281"/>
     <use xlink:href="#DejaVuSans-6c" x="885.794922"/>
     <use xlink:href="#DejaVuSans-69" x="913.578125"/>
     <use xlink:href="#DejaVuSans-63" x="941.361328"/>
     <use xlink:href="#DejaVuSans-79" x="996.341797"/>
     <use xlink:href="#DejaVuSans-20" x="1055.521484"/>
     <use xlink:href="#DejaVuSans-77" x="1087.308594"/>
     <use xlink:href="#DejaVuSans-69" x="1169.095703"/>
     <use xlink:href="#DejaVuSans-74" x="1196.878906"/>
     <use xlink:href="#DejaVuSans-68" x="1236.087891"/>
     <use xlink:href="#DejaVuSans-20" x="1299.466797"/>
     <use xlink:href="#DejaVuSans-6d" x="1331.253906"/>
     <use xlink:href="#DejaVuSans-20" x="1428.666016"/>
     <use xlink:href="#DejaVuSans-3d" x="1460.453125"/>
     <use xlink:href="#DejaVuSans-20" x="1544.242188"/>
     <use xlink:href="#DejaVuSans-31" x="1576.029297"/>
     <use xlink:href="#DejaVuSans-35" x="1639.652344"/>
    </g>
   </g>
   <g id="legend_1">
    <g id="patch_7">
     <path d="M 230.8125 247 
L 381.8 247 
Q 383.8 247 383.8 245 
L 383.8 201.13125 
Q 383.8 199.13125 381.8 199.13125 
L 230.8125 199.13125 
Q 228.8125 199.13125 228.8125 201.13125 
L 228.8125 245 
Q 228.8125 247 230.8125 247 
z
" style="fill: #ffffff; opacity: 0.8; stroke: #cccccc; stroke-linejoin: miter"/>
    </g>
    <g id="line2d_32">
     <path d="M 232.8125 207.229688 
L 242.8125 207.229688 
L 252.8125 207.229688 
" style="fill: none; stroke: #9d02d7; stroke-width: 1.5; stroke-linecap: square"/>
     <g>
      <use xlink:href="#m0d3e91e6e8" x="242.8125" y="207.229688" style="fill: #9d02d7; stroke: #9d02d7; stroke-linejoin: miter"/>
     </g>
    </g>
    <g id="text_18">
     <!-- m_uncertain_states=30 -->
     <g transform="translate(260.8125 210.729688)scale(0.1 -0.1)">
      <defs>
       <path id="DejaVuSans-5f" d="M 3263 -1063 
L 3263 -1509 
L -63 -1509 
L -63 -1063 
L 3263 -1063 
z
" transform="scale(0.015625)"/>
       <path id="DejaVuSans-6e" d="M 3513 2113 
L 3513 0 
L 2938 0 
L 2938 2094 
Q 2938 2591 2744 2837 
Q 2550 3084 2163 3084 
Q 1697 3084 1428 2787 
Q 1159 2491 1159 1978 
L 1159 0 
L 581 0 
L 581 3500 
L 1159 3500 
L 1159 2956 
Q 1366 3272 1645 3428 
Q 1925 3584 2291 3584 
Q 2894 3584 3203 3211 
Q 3513 2838 3513 2113 
z
" transform="scale(0.015625)"/>
      </defs>
      <use xlink:href="#DejaVuSans-6d"/>
      <use xlink:href="#DejaVuSans-5f" x="97.412109"/>
      <use xlink:href="#DejaVuSans-75" x="147.412109"/>
      <use xlink:href="#DejaVuSans-6e" x="210.791016"/>
      <use xlink:href="#DejaVuSans-63" x="274.169922"/>
      <use xlink:href="#DejaVuSans-65" x="329.150391"/>
      <use xlink:href="#DejaVuSans-72" x="390.673828"/>
      <use xlink:href="#DejaVuSans-74" x="431.787109"/>
      <use xlink:href="#DejaVuSans-61" x="470.996094"/>
      <use xlink:href="#DejaVuSans-69" x="532.275391"/>
      <use xlink:href="#DejaVuSans-6e" x="560.058594"/>
      <use xlink:href="#DejaVuSans-5f" x="623.4375"/>
      <use xlink:href="#DejaVuSans-73" x="673.4375"/>
      <use xlink:href="#DejaVuSans-74" x="725.537109"/>
      <use xlink:href="#DejaVuSans-61" x="764.746094"/>
      <use xlink:href="#DejaVuSans-74" x="826.025391"/>
      <use xlink:href="#DejaVuSans-65" x="865.234375"/>
      <use xlink:href="#DejaVuSans-73" x="926.757812"/>
      <use xlink:href="#DejaVuSans-3d" x="978.857422"/>
      <use xlink:href="#DejaVuSans-33" x="1062.646484"/>
      <use xlink:href="#DejaVuSans-30" x="1126.269531"/>
     </g>
    </g>
    <g id="line2d_33">
     <path d="M 232.8125 222.185937 
L 242.8125 222.185937 
L 252.8125 222.185937 
" style="fill: none; stroke: #0000ff; stroke-width: 1.5; stroke-linecap: square"/>
     <g>
      <use xlink:href="#mefeb0c65da" x="242.8125" y="222.185937" style="fill: #0000ff; stroke: #0000ff"/>
     </g>
    </g>
    <g id="text_19">
     <!-- m_uncertain_states=35 -->
     <g transform="translate(260.8125 225.685937)scale(0.1 -0.1)">
      <use xlink:href="#DejaVuSans-6d"/>
      <use xlink:href="#DejaVuSans-5f" x="97.412109"/>
      <use xlink:href="#DejaVuSans-75" x="147.412109"/>
      <use xlink:href="#DejaVuSans-6e" x="210.791016"/>
      <use xlink:href="#DejaVuSans-63" x="274.169922"/>
      <use xlink:href="#DejaVuSans-65" x="329.150391"/>
      <use xlink:href="#DejaVuSans-72" x="390.673828"/>
      <use xlink:href="#DejaVuSans-74" x="431.787109"/>
      <use xlink:href="#DejaVuSans-61" x="470.996094"/>
      <use xlink:href="#DejaVuSans-69" x="532.275391"/>
      <use xlink:href="#DejaVuSans-6e" x="560.058594"/>
      <use xlink:href="#DejaVuSans-5f" x="623.4375"/>
      <use xlink:href="#DejaVuSans-73" x="673.4375"/>
      <use xlink:href="#DejaVuSans-74" x="725.537109"/>
      <use xlink:href="#DejaVuSans-61" x="764.746094"/>
      <use xlink:href="#DejaVuSans-74" x="826.025391"/>
      <use xlink:href="#DejaVuSans-65" x="865.234375"/>
      <use xlink:href="#DejaVuSans-73" x="926.757812"/>
      <use xlink:href="#DejaVuSans-3d" x="978.857422"/>
      <use xlink:href="#DejaVuSans-33" x="1062.646484"/>
      <use xlink:href="#DejaVuSans-35" x="1126.269531"/>
     </g>
    </g>
    <g id="line2d_34">
     <path d="M 232.8125 237.142188 
L 242.8125 237.142188 
L 252.8125 237.142188 
" style="fill: none; stroke: #ff7763; stroke-width: 1.5; stroke-linecap: square"/>
     <g>
      <use xlink:href="#m8c5297d12c" x="242.8125" y="237.142188" style="fill: #ff7763; stroke: #ff7763"/>
     </g>
    </g>
    <g id="text_20">
     <!-- m_uncertain_states=40 -->
     <g transform="translate(260.8125 240.642188)scale(0.1 -0.1)">
      <use xlink:href="#DejaVuSans-6d"/>
      <use xlink:href="#DejaVuSans-5f" x="97.412109"/>
      <use xlink:href="#DejaVuSans-75" x="147.412109"/>
      <use xlink:href="#DejaVuSans-6e" x="210.791016"/>
      <use xlink:href="#DejaVuSans-63" x="274.169922"/>
      <use xlink:href="#DejaVuSans-65" x="329.150391"/>
      <use xlink:href="#DejaVuSans-72" x="390.673828"/>
      <use xlink:href="#DejaVuSans-74" x="431.787109"/>
      <use xlink:href="#DejaVuSans-61" x="470.996094"/>
      <use xlink:href="#DejaVuSans-69" x="532.275391"/>
      <use xlink:href="#DejaVuSans-6e" x="560.058594"/>
      <use xlink:href="#DejaVuSans-5f" x="623.4375"/>
      <use xlink:href="#DejaVuSans-73" x="673.4375"/>
      <use xlink:href="#DejaVuSans-74" x="725.537109"/>
      <use xlink:href="#DejaVuSans-61" x="764.746094"/>
      <use xlink:href="#DejaVuSans-74" x="826.025391"/>
      <use xlink:href="#DejaVuSans-65" x="865.234375"/>
      <use xlink:href="#DejaVuSans-73" x="926.757812"/>
      <use xlink:href="#DejaVuSans-3d" x="978.857422"/>
      <use xlink:href="#DejaVuSans-34" x="1062.646484"/>
      <use xlink:href="#DejaVuSans-30" x="1126.269531"/>
     </g>
    </g>
   </g>
  </g>
 </g>
 <defs>
  <clipPath id="pb72927fc3c">
   <rect x="54" y="34.56" width="334.8" height="217.44"/>
  </clipPath>
 </defs>
</svg>
