<?xml version="1.0" encoding="utf-8" standalone="no"?>
<!DOCTYPE svg PUBLIC "-//W3C//DTD SVG 1.1//EN"
  "http://www.w3.org/Graphics/SVG/1.1/DTD/svg11.dtd">
<svg xmlns:xlink="http://www.w3.org/1999/xlink" width="432pt" height="288pt" viewBox="0 0 432 288" xmlns="http://www.w3.org/2000/svg" version="1.1">
 <metadata>
  <rdf:RDF xmlns:dc="http://purl.org/dc/elements/1.1/" xmlns:cc="http://creativecommons.org/ns#" xmlns:rdf="http://www.w3.org/1999/02/22-rdf-syntax-ns#">
   <cc:Work>
    <dc:type rdf:resource="http://purl.org/dc/dcmitype/StillImage"/>
    <dc:date>2023-01-11T15:36:09.338066</dc:date>
    <dc:format>image/svg+xml</dc:format>
    <dc:creator>
     <cc:Agent>
      <dc:title>Matplotlib v3.5.2, https://matplotlib.org/</dc:title>
     </cc:Agent>
    </dc:creator>
   </cc:Work>
  </rdf:RDF>
 </metadata>
 <defs>
  <style type="text/css">*{stroke-linejoin: round; stroke-linecap: butt}</style>
 </defs>
 <g id="figure_1">
  <g id="patch_1">
   <path d="M 0 288 
L 432 288 
L 432 0 
L 0 0 
z
" style="fill: #ffffff"/>
  </g>
  <g id="axes_1">
   <g id="patch_2">
    <path d="M 54 252 
L 388.8 252 
L 388.8 34.56 
L 54 34.56 
z
" style="fill: #ffffff"/>
   </g>
   <g id="PolyCollection_1">
    <defs>
     <path id="mafb744975d" d="M 69.218182 -31.772445 
L 69.218182 -31.772445 
L 74.376888 -31.836306 
L 79.535593 -34.854502 
L 84.694299 -34.793279 
L 89.853005 -35.078545 
L 95.01171 -34.748362 
L 100.170416 -34.907756 
L 105.329122 -35.091182 
L 110.487827 -34.829395 
L 115.646533 -35.091182 
L 120.805239 -35.082536 
L 125.963945 -34.590136 
L 131.12265 -30.698314 
L 136.281356 -34.861189 
L 141.440062 -35.091182 
L 146.598767 -35.091182 
L 151.757473 -34.867075 
L 156.916179 -35.091182 
L 162.074884 -34.792229 
L 167.23359 -33.133901 
L 172.392296 -33.748371 
L 177.551002 -35.063146 
L 182.709707 -35.091182 
L 187.868413 -35.091182 
L 193.027119 -34.035756 
L 198.185824 -35.091182 
L 203.34453 -33.132321 
L 208.503236 -34.835454 
L 213.661941 -35.022535 
L 218.820647 -37.439511 
L 223.979353 -33.947443 
L 229.138059 -35.091182 
L 234.296764 -34.805833 
L 239.45547 -33.440722 
L 244.614176 -35.001387 
L 249.772881 -34.951504 
L 254.931587 -34.841133 
L 260.090293 -34.778873 
L 265.248998 -34.778873 
L 270.407704 -34.778873 
L 275.56641 -34.753665 
L 280.725116 -35.797838 
L 285.883821 -34.941023 
L 291.042527 -34.780782 
L 296.201233 -79.242181 
L 301.359938 -34.805836 
L 306.518644 -35.724231 
L 311.67735 -89.727567 
L 316.836055 -35.836505 
L 321.994761 -35.836536 
L 327.153467 -34.823925 
L 332.312173 -76.748091 
L 337.470878 -34.823911 
L 342.629584 -34.823911 
L 347.78829 -34.807253 
L 352.946995 -34.824164 
L 358.105701 -45.236468 
L 363.264407 -45.380759 
L 368.423112 -45.380759 
L 373.581818 -45.380759 
L 373.581818 -45.380759 
L 373.581818 -45.380759 
L 368.423112 -45.380759 
L 363.264407 -45.380759 
L 358.105701 -45.236468 
L 352.946995 -34.824164 
L 347.78829 -34.807253 
L 342.629584 -34.823911 
L 337.470878 -34.823911 
L 332.312173 -76.748091 
L 327.153467 -34.823925 
L 321.994761 -35.836536 
L 316.836055 -35.836505 
L 311.67735 -89.727567 
L 306.518644 -35.724231 
L 301.359938 -34.805836 
L 296.201233 -79.242181 
L 291.042527 -34.780782 
L 285.883821 -34.941023 
L 280.725116 -35.797838 
L 275.56641 -34.753665 
L 270.407704 -34.778873 
L 265.248998 -34.778873 
L 260.090293 -34.778873 
L 254.931587 -34.841133 
L 249.772881 -34.951504 
L 244.614176 -35.001387 
L 239.45547 -33.440722 
L 234.296764 -34.805833 
L 229.138059 -35.091182 
L 223.979353 -33.947443 
L 218.820647 -37.439511 
L 213.661941 -35.022535 
L 208.503236 -34.835454 
L 203.34453 -33.132321 
L 198.185824 -35.091182 
L 193.027119 -34.035756 
L 187.868413 -35.091182 
L 182.709707 -35.091182 
L 177.551002 -35.063146 
L 172.392296 -33.748371 
L 167.23359 -33.133901 
L 162.074884 -34.792229 
L 156.916179 -35.091182 
L 151.757473 -34.867075 
L 146.598767 -35.091182 
L 141.440062 -35.091182 
L 136.281356 -34.861189 
L 131.12265 -30.698314 
L 125.963945 -34.590136 
L 120.805239 -35.082536 
L 115.646533 -35.091182 
L 110.487827 -34.829395 
L 105.329122 -35.091182 
L 100.170416 -34.907756 
L 95.01171 -34.748362 
L 89.853005 -35.078545 
L 84.694299 -34.793279 
L 79.535593 -34.854502 
L 74.376888 -31.836306 
L 69.218182 -31.772445 
z
" style="stroke: #9d02d7; stroke-opacity: 0.2"/>
    </defs>
    <g clip-path="url(#p3532897f24)">
     <use xlink:href="#mafb744975d" x="0" y="288" style="fill: #9d02d7; fill-opacity: 0.2; stroke: #9d02d7; stroke-opacity: 0.2"/>
    </g>
   </g>
   <g id="PolyCollection_2">
    <defs>
     <path id="m3f00e94e93" d="M 69.218182 -34.509331 
L 69.218182 -34.509331 
L 74.376888 -35.091182 
L 79.535593 -33.467255 
L 84.694299 -40.834708 
L 89.853005 -34.887188 
L 95.01171 -35.086 
L 100.170416 -35.088182 
L 105.329122 -35.08815 
L 110.487827 -35.089637 
L 115.646533 -35.088993 
L 120.805239 -35.091182 
L 125.963945 -35.091182 
L 131.12265 -35.091182 
L 136.281356 -35.091182 
L 141.440062 -35.088963 
L 146.598767 -35.089319 
L 151.757473 -35.091182 
L 156.916179 -35.091182 
L 162.074884 -35.087708 
L 167.23359 -35.091182 
L 172.392296 -35.08352 
L 177.551002 -35.091182 
L 182.709707 -35.086341 
L 187.868413 -35.091182 
L 193.027119 -35.091182 
L 198.185824 -35.091182 
L 203.34453 -35.091182 
L 208.503236 -35.091182 
L 213.661941 -35.091182 
L 218.820647 -35.091182 
L 223.979353 -35.091182 
L 229.138059 -35.091182 
L 234.296764 -35.085875 
L 239.45547 -35.091182 
L 244.614176 -35.091182 
L 249.772881 -35.091182 
L 254.931587 -35.091182 
L 260.090293 -31.926523 
L 265.248998 -44.546087 
L 270.407704 -45.17822 
L 275.56641 -46.00792 
L 280.725116 -45.137983 
L 285.883821 -46.376632 
L 291.042527 -47.141474 
L 296.201233 -45.886796 
L 301.359938 -44.54523 
L 306.518644 -47.169927 
L 311.67735 -48.358092 
L 316.836055 -47.973121 
L 321.994761 -46.945121 
L 327.153467 -120.565145 
L 332.312173 -116.31649 
L 337.470878 -119.644714 
L 342.629584 -116.76327 
L 347.78829 -165.184107 
L 352.946995 -164.816261 
L 358.105701 -164.816261 
L 363.264407 -135.660462 
L 368.423112 -151.950294 
L 373.581818 -168.75175 
L 373.581818 -168.75175 
L 373.581818 -168.75175 
L 368.423112 -151.950294 
L 363.264407 -135.660462 
L 358.105701 -164.816261 
L 352.946995 -164.816261 
L 347.78829 -165.184107 
L 342.629584 -116.76327 
L 337.470878 -119.644714 
L 332.312173 -116.31649 
L 327.153467 -120.565145 
L 321.994761 -46.945121 
L 316.836055 -47.973121 
L 311.67735 -48.358092 
L 306.518644 -47.169927 
L 301.359938 -44.54523 
L 296.201233 -45.886796 
L 291.042527 -47.141474 
L 285.883821 -46.376632 
L 280.725116 -45.137983 
L 275.56641 -46.00792 
L 270.407704 -45.17822 
L 265.248998 -44.546087 
L 260.090293 -31.926523 
L 254.931587 -35.091182 
L 249.772881 -35.091182 
L 244.614176 -35.091182 
L 239.45547 -35.091182 
L 234.296764 -35.085875 
L 229.138059 -35.091182 
L 223.979353 -35.091182 
L 218.820647 -35.091182 
L 213.661941 -35.091182 
L 208.503236 -35.091182 
L 203.34453 -35.091182 
L 198.185824 -35.091182 
L 193.027119 -35.091182 
L 187.868413 -35.091182 
L 182.709707 -35.086341 
L 177.551002 -35.091182 
L 172.392296 -35.08352 
L 167.23359 -35.091182 
L 162.074884 -35.087708 
L 156.916179 -35.091182 
L 151.757473 -35.091182 
L 146.598767 -35.089319 
L 141.440062 -35.088963 
L 136.281356 -35.091182 
L 131.12265 -35.091182 
L 125.963945 -35.091182 
L 120.805239 -35.091182 
L 115.646533 -35.088993 
L 110.487827 -35.089637 
L 105.329122 -35.08815 
L 100.170416 -35.088182 
L 95.01171 -35.086 
L 89.853005 -34.887188 
L 84.694299 -40.834708 
L 79.535593 -33.467255 
L 74.376888 -35.091182 
L 69.218182 -34.509331 
z
" style="stroke: #0000ff; stroke-opacity: 0.2"/>
    </defs>
    <g clip-path="url(#p3532897f24)">
     <use xlink:href="#m3f00e94e93" x="0" y="288" style="fill: #0000ff; fill-opacity: 0.2; stroke: #0000ff; stroke-opacity: 0.2"/>
    </g>
   </g>
   <g id="PolyCollection_3">
    <defs>
     <path id="m5fc1f18dbf" d="M 69.218182 -19.870652 
L 69.218182 -19.870652 
L 74.376888 -33.288984 
L 79.535593 -34.092771 
L 84.694299 -28.402128 
L 89.853005 -35.091182 
L 95.01171 -34.979969 
L 100.170416 -35.091182 
L 105.329122 -32.4903 
L 110.487827 -34.964073 
L 115.646533 -35.091182 
L 120.805239 -35.091182 
L 125.963945 -35.085993 
L 131.12265 -35.080674 
L 136.281356 -35.080671 
L 141.440062 -35.046783 
L 146.598767 -35.235361 
L 151.757473 -35.089986 
L 156.916179 -35.091182 
L 162.074884 -35.091182 
L 167.23359 -35.091182 
L 172.392296 -35.084227 
L 177.551002 -35.091182 
L 182.709707 -35.091182 
L 187.868413 -35.091182 
L 193.027119 -35.091182 
L 198.185824 -35.091182 
L 203.34453 -35.091182 
L 208.503236 -35.091182 
L 213.661941 -35.091182 
L 218.820647 -35.089665 
L 223.979353 -35.091182 
L 229.138059 -35.083388 
L 234.296764 -35.087388 
L 239.45547 -35.090314 
L 244.614176 -35.091182 
L 249.772881 -35.091182 
L 254.931587 -35.089065 
L 260.090293 -41.157823 
L 265.248998 -32.023065 
L 270.407704 -30.338239 
L 275.56641 -25.160191 
L 280.725116 -40.736595 
L 285.883821 -34.963632 
L 291.042527 -39.785493 
L 296.201233 -38.529994 
L 301.359938 -41.16721 
L 306.518644 -74.481235 
L 311.67735 -81.759446 
L 316.836055 -78.402921 
L 321.994761 -80.427823 
L 327.153467 -81.865354 
L 332.312173 -77.592526 
L 337.470878 -77.530999 
L 342.629584 -77.529591 
L 347.78829 -77.525374 
L 352.946995 -77.525374 
L 358.105701 -77.530999 
L 363.264407 -74.953524 
L 368.423112 -71.562103 
L 373.581818 -242.83323 
L 373.581818 -242.83323 
L 373.581818 -242.83323 
L 368.423112 -71.562103 
L 363.264407 -74.953524 
L 358.105701 -77.530999 
L 352.946995 -77.525374 
L 347.78829 -77.525374 
L 342.629584 -77.529591 
L 337.470878 -77.530999 
L 332.312173 -77.592526 
L 327.153467 -81.865354 
L 321.994761 -80.427823 
L 316.836055 -78.402921 
L 311.67735 -81.759446 
L 306.518644 -74.481235 
L 301.359938 -41.16721 
L 296.201233 -38.529994 
L 291.042527 -39.785493 
L 285.883821 -34.963632 
L 280.725116 -40.736595 
L 275.56641 -25.160191 
L 270.407704 -30.338239 
L 265.248998 -32.023065 
L 260.090293 -41.157823 
L 254.931587 -35.089065 
L 249.772881 -35.091182 
L 244.614176 -35.091182 
L 239.45547 -35.090314 
L 234.296764 -35.087388 
L 229.138059 -35.083388 
L 223.979353 -35.091182 
L 218.820647 -35.089665 
L 213.661941 -35.091182 
L 208.503236 -35.091182 
L 203.34453 -35.091182 
L 198.185824 -35.091182 
L 193.027119 -35.091182 
L 187.868413 -35.091182 
L 182.709707 -35.091182 
L 177.551002 -35.091182 
L 172.392296 -35.084227 
L 167.23359 -35.091182 
L 162.074884 -35.091182 
L 156.916179 -35.091182 
L 151.757473 -35.089986 
L 146.598767 -35.235361 
L 141.440062 -35.046783 
L 136.281356 -35.080671 
L 131.12265 -35.080674 
L 125.963945 -35.085993 
L 120.805239 -35.091182 
L 115.646533 -35.091182 
L 110.487827 -34.964073 
L 105.329122 -32.4903 
L 100.170416 -35.091182 
L 95.01171 -34.979969 
L 89.853005 -35.091182 
L 84.694299 -28.402128 
L 79.535593 -34.092771 
L 74.376888 -33.288984 
L 69.218182 -19.870652 
z
" style="stroke: #ff7763; stroke-opacity: 0.2"/>
    </defs>
    <g clip-path="url(#p3532897f24)">
     <use xlink:href="#m5fc1f18dbf" x="0" y="288" style="fill: #ff7763; fill-opacity: 0.2; stroke: #ff7763; stroke-opacity: 0.2"/>
    </g>
   </g>
   <g id="matplotlib.axis_1">
    <g id="xtick_1">
     <g id="line2d_1">
      <path d="M 69.218182 252 
L 69.218182 34.56 
" clip-path="url(#p3532897f24)" style="fill: none; stroke-dasharray: 2.96,1.28; stroke-dashoffset: 0; stroke: #b0b0b0; stroke-width: 0.8"/>
     </g>
     <g id="line2d_2">
      <defs>
       <path id="md9a5327168" d="M 0 0 
L 0 3.5 
" style="stroke: #000000; stroke-width: 0.8"/>
      </defs>
      <g>
       <use xlink:href="#md9a5327168" x="69.218182" y="252" style="stroke: #000000; stroke-width: 0.8"/>
      </g>
     </g>
     <g id="text_1">
      <!-- 0 -->
      <g transform="translate(66.036932 266.598437)scale(0.1 -0.1)">
       <defs>
        <path id="DejaVuSans-30" d="M 2034 4250 
Q 1547 4250 1301 3770 
Q 1056 3291 1056 2328 
Q 1056 1369 1301 889 
Q 1547 409 2034 409 
Q 2525 409 2770 889 
Q 3016 1369 3016 2328 
Q 3016 3291 2770 3770 
Q 2525 4250 2034 4250 
z
M 2034 4750 
Q 2819 4750 3233 4129 
Q 3647 3509 3647 2328 
Q 3647 1150 3233 529 
Q 2819 -91 2034 -91 
Q 1250 -91 836 529 
Q 422 1150 422 2328 
Q 422 3509 836 4129 
Q 1250 4750 2034 4750 
z
" transform="scale(0.015625)"/>
       </defs>
       <use xlink:href="#DejaVuSans-30"/>
      </g>
     </g>
    </g>
    <g id="xtick_2">
     <g id="line2d_3">
      <path d="M 120.805239 252 
L 120.805239 34.56 
" clip-path="url(#p3532897f24)" style="fill: none; stroke-dasharray: 2.96,1.28; stroke-dashoffset: 0; stroke: #b0b0b0; stroke-width: 0.8"/>
     </g>
     <g id="line2d_4">
      <g>
       <use xlink:href="#md9a5327168" x="120.805239" y="252" style="stroke: #000000; stroke-width: 0.8"/>
      </g>
     </g>
     <g id="text_2">
      <!-- 500 -->
      <g transform="translate(111.261489 266.598437)scale(0.1 -0.1)">
       <defs>
        <path id="DejaVuSans-35" d="M 691 4666 
L 3169 4666 
L 3169 4134 
L 1269 4134 
L 1269 2991 
Q 1406 3038 1543 3061 
Q 1681 3084 1819 3084 
Q 2600 3084 3056 2656 
Q 3513 2228 3513 1497 
Q 3513 744 3044 326 
Q 2575 -91 1722 -91 
Q 1428 -91 1123 -41 
Q 819 9 494 109 
L 494 744 
Q 775 591 1075 516 
Q 1375 441 1709 441 
Q 2250 441 2565 725 
Q 2881 1009 2881 1497 
Q 2881 1984 2565 2268 
Q 2250 2553 1709 2553 
Q 1456 2553 1204 2497 
Q 953 2441 691 2322 
L 691 4666 
z
" transform="scale(0.015625)"/>
       </defs>
       <use xlink:href="#DejaVuSans-35"/>
       <use xlink:href="#DejaVuSans-30" x="63.623047"/>
       <use xlink:href="#DejaVuSans-30" x="127.246094"/>
      </g>
     </g>
    </g>
    <g id="xtick_3">
     <g id="line2d_5">
      <path d="M 172.392296 252 
L 172.392296 34.56 
" clip-path="url(#p3532897f24)" style="fill: none; stroke-dasharray: 2.96,1.28; stroke-dashoffset: 0; stroke: #b0b0b0; stroke-width: 0.8"/>
     </g>
     <g id="line2d_6">
      <g>
       <use xlink:href="#md9a5327168" x="172.392296" y="252" style="stroke: #000000; stroke-width: 0.8"/>
      </g>
     </g>
     <g id="text_3">
      <!-- 1000 -->
      <g transform="translate(159.667296 266.598437)scale(0.1 -0.1)">
       <defs>
        <path id="DejaVuSans-31" d="M 794 531 
L 1825 531 
L 1825 4091 
L 703 3866 
L 703 4441 
L 1819 4666 
L 2450 4666 
L 2450 531 
L 3481 531 
L 3481 0 
L 794 0 
L 794 531 
z
" transform="scale(0.015625)"/>
       </defs>
       <use xlink:href="#DejaVuSans-31"/>
       <use xlink:href="#DejaVuSans-30" x="63.623047"/>
       <use xlink:href="#DejaVuSans-30" x="127.246094"/>
       <use xlink:href="#DejaVuSans-30" x="190.869141"/>
      </g>
     </g>
    </g>
    <g id="xtick_4">
     <g id="line2d_7">
      <path d="M 223.979353 252 
L 223.979353 34.56 
" clip-path="url(#p3532897f24)" style="fill: none; stroke-dasharray: 2.96,1.28; stroke-dashoffset: 0; stroke: #b0b0b0; stroke-width: 0.8"/>
     </g>
     <g id="line2d_8">
      <g>
       <use xlink:href="#md9a5327168" x="223.979353" y="252" style="stroke: #000000; stroke-width: 0.8"/>
      </g>
     </g>
     <g id="text_4">
      <!-- 1500 -->
      <g transform="translate(211.254353 266.598437)scale(0.1 -0.1)">
       <use xlink:href="#DejaVuSans-31"/>
       <use xlink:href="#DejaVuSans-35" x="63.623047"/>
       <use xlink:href="#DejaVuSans-30" x="127.246094"/>
       <use xlink:href="#DejaVuSans-30" x="190.869141"/>
      </g>
     </g>
    </g>
    <g id="xtick_5">
     <g id="line2d_9">
      <path d="M 275.56641 252 
L 275.56641 34.56 
" clip-path="url(#p3532897f24)" style="fill: none; stroke-dasharray: 2.96,1.28; stroke-dashoffset: 0; stroke: #b0b0b0; stroke-width: 0.8"/>
     </g>
     <g id="line2d_10">
      <g>
       <use xlink:href="#md9a5327168" x="275.56641" y="252" style="stroke: #000000; stroke-width: 0.8"/>
      </g>
     </g>
     <g id="text_5">
      <!-- 2000 -->
      <g transform="translate(262.84141 266.598437)scale(0.1 -0.1)">
       <defs>
        <path id="DejaVuSans-32" d="M 1228 531 
L 3431 531 
L 3431 0 
L 469 0 
L 469 531 
Q 828 903 1448 1529 
Q 2069 2156 2228 2338 
Q 2531 2678 2651 2914 
Q 2772 3150 2772 3378 
Q 2772 3750 2511 3984 
Q 2250 4219 1831 4219 
Q 1534 4219 1204 4116 
Q 875 4013 500 3803 
L 500 4441 
Q 881 4594 1212 4672 
Q 1544 4750 1819 4750 
Q 2544 4750 2975 4387 
Q 3406 4025 3406 3419 
Q 3406 3131 3298 2873 
Q 3191 2616 2906 2266 
Q 2828 2175 2409 1742 
Q 1991 1309 1228 531 
z
" transform="scale(0.015625)"/>
       </defs>
       <use xlink:href="#DejaVuSans-32"/>
       <use xlink:href="#DejaVuSans-30" x="63.623047"/>
       <use xlink:href="#DejaVuSans-30" x="127.246094"/>
       <use xlink:href="#DejaVuSans-30" x="190.869141"/>
      </g>
     </g>
    </g>
    <g id="xtick_6">
     <g id="line2d_11">
      <path d="M 327.153467 252 
L 327.153467 34.56 
" clip-path="url(#p3532897f24)" style="fill: none; stroke-dasharray: 2.96,1.28; stroke-dashoffset: 0; stroke: #b0b0b0; stroke-width: 0.8"/>
     </g>
     <g id="line2d_12">
      <g>
       <use xlink:href="#md9a5327168" x="327.153467" y="252" style="stroke: #000000; stroke-width: 0.8"/>
      </g>
     </g>
     <g id="text_6">
      <!-- 2500 -->
      <g transform="translate(314.428467 266.598437)scale(0.1 -0.1)">
       <use xlink:href="#DejaVuSans-32"/>
       <use xlink:href="#DejaVuSans-35" x="63.623047"/>
       <use xlink:href="#DejaVuSans-30" x="127.246094"/>
       <use xlink:href="#DejaVuSans-30" x="190.869141"/>
      </g>
     </g>
    </g>
    <g id="xtick_7">
     <g id="line2d_13">
      <path d="M 378.740524 252 
L 378.740524 34.56 
" clip-path="url(#p3532897f24)" style="fill: none; stroke-dasharray: 2.96,1.28; stroke-dashoffset: 0; stroke: #b0b0b0; stroke-width: 0.8"/>
     </g>
     <g id="line2d_14">
      <g>
       <use xlink:href="#md9a5327168" x="378.740524" y="252" style="stroke: #000000; stroke-width: 0.8"/>
      </g>
     </g>
     <g id="text_7">
      <!-- 3000 -->
      <g transform="translate(366.015524 266.598437)scale(0.1 -0.1)">
       <defs>
        <path id="DejaVuSans-33" d="M 2597 2516 
Q 3050 2419 3304 2112 
Q 3559 1806 3559 1356 
Q 3559 666 3084 287 
Q 2609 -91 1734 -91 
Q 1441 -91 1130 -33 
Q 819 25 488 141 
L 488 750 
Q 750 597 1062 519 
Q 1375 441 1716 441 
Q 2309 441 2620 675 
Q 2931 909 2931 1356 
Q 2931 1769 2642 2001 
Q 2353 2234 1838 2234 
L 1294 2234 
L 1294 2753 
L 1863 2753 
Q 2328 2753 2575 2939 
Q 2822 3125 2822 3475 
Q 2822 3834 2567 4026 
Q 2313 4219 1838 4219 
Q 1578 4219 1281 4162 
Q 984 4106 628 3988 
L 628 4550 
Q 988 4650 1302 4700 
Q 1616 4750 1894 4750 
Q 2613 4750 3031 4423 
Q 3450 4097 3450 3541 
Q 3450 3153 3228 2886 
Q 3006 2619 2597 2516 
z
" transform="scale(0.015625)"/>
       </defs>
       <use xlink:href="#DejaVuSans-33"/>
       <use xlink:href="#DejaVuSans-30" x="63.623047"/>
       <use xlink:href="#DejaVuSans-30" x="127.246094"/>
       <use xlink:href="#DejaVuSans-30" x="190.869141"/>
      </g>
     </g>
    </g>
    <g id="text_8">
     <!-- Steps -->
     <g transform="translate(207.410156 280.276563)scale(0.1 -0.1)">
      <defs>
       <path id="DejaVuSans-53" d="M 3425 4513 
L 3425 3897 
Q 3066 4069 2747 4153 
Q 2428 4238 2131 4238 
Q 1616 4238 1336 4038 
Q 1056 3838 1056 3469 
Q 1056 3159 1242 3001 
Q 1428 2844 1947 2747 
L 2328 2669 
Q 3034 2534 3370 2195 
Q 3706 1856 3706 1288 
Q 3706 609 3251 259 
Q 2797 -91 1919 -91 
Q 1588 -91 1214 -16 
Q 841 59 441 206 
L 441 856 
Q 825 641 1194 531 
Q 1563 422 1919 422 
Q 2459 422 2753 634 
Q 3047 847 3047 1241 
Q 3047 1584 2836 1778 
Q 2625 1972 2144 2069 
L 1759 2144 
Q 1053 2284 737 2584 
Q 422 2884 422 3419 
Q 422 4038 858 4394 
Q 1294 4750 2059 4750 
Q 2388 4750 2728 4690 
Q 3069 4631 3425 4513 
z
" transform="scale(0.015625)"/>
       <path id="DejaVuSans-74" d="M 1172 4494 
L 1172 3500 
L 2356 3500 
L 2356 3053 
L 1172 3053 
L 1172 1153 
Q 1172 725 1289 603 
Q 1406 481 1766 481 
L 2356 481 
L 2356 0 
L 1766 0 
Q 1100 0 847 248 
Q 594 497 594 1153 
L 594 3053 
L 172 3053 
L 172 3500 
L 594 3500 
L 594 4494 
L 1172 4494 
z
" transform="scale(0.015625)"/>
       <path id="DejaVuSans-65" d="M 3597 1894 
L 3597 1613 
L 953 1613 
Q 991 1019 1311 708 
Q 1631 397 2203 397 
Q 2534 397 2845 478 
Q 3156 559 3463 722 
L 3463 178 
Q 3153 47 2828 -22 
Q 2503 -91 2169 -91 
Q 1331 -91 842 396 
Q 353 884 353 1716 
Q 353 2575 817 3079 
Q 1281 3584 2069 3584 
Q 2775 3584 3186 3129 
Q 3597 2675 3597 1894 
z
M 3022 2063 
Q 3016 2534 2758 2815 
Q 2500 3097 2075 3097 
Q 1594 3097 1305 2825 
Q 1016 2553 972 2059 
L 3022 2063 
z
" transform="scale(0.015625)"/>
       <path id="DejaVuSans-70" d="M 1159 525 
L 1159 -1331 
L 581 -1331 
L 581 3500 
L 1159 3500 
L 1159 2969 
Q 1341 3281 1617 3432 
Q 1894 3584 2278 3584 
Q 2916 3584 3314 3078 
Q 3713 2572 3713 1747 
Q 3713 922 3314 415 
Q 2916 -91 2278 -91 
Q 1894 -91 1617 61 
Q 1341 213 1159 525 
z
M 3116 1747 
Q 3116 2381 2855 2742 
Q 2594 3103 2138 3103 
Q 1681 3103 1420 2742 
Q 1159 2381 1159 1747 
Q 1159 1113 1420 752 
Q 1681 391 2138 391 
Q 2594 391 2855 752 
Q 3116 1113 3116 1747 
z
" transform="scale(0.015625)"/>
       <path id="DejaVuSans-73" d="M 2834 3397 
L 2834 2853 
Q 2591 2978 2328 3040 
Q 2066 3103 1784 3103 
Q 1356 3103 1142 2972 
Q 928 2841 928 2578 
Q 928 2378 1081 2264 
Q 1234 2150 1697 2047 
L 1894 2003 
Q 2506 1872 2764 1633 
Q 3022 1394 3022 966 
Q 3022 478 2636 193 
Q 2250 -91 1575 -91 
Q 1294 -91 989 -36 
Q 684 19 347 128 
L 347 722 
Q 666 556 975 473 
Q 1284 391 1588 391 
Q 1994 391 2212 530 
Q 2431 669 2431 922 
Q 2431 1156 2273 1281 
Q 2116 1406 1581 1522 
L 1381 1569 
Q 847 1681 609 1914 
Q 372 2147 372 2553 
Q 372 3047 722 3315 
Q 1072 3584 1716 3584 
Q 2034 3584 2315 3537 
Q 2597 3491 2834 3397 
z
" transform="scale(0.015625)"/>
      </defs>
      <use xlink:href="#DejaVuSans-53"/>
      <use xlink:href="#DejaVuSans-74" x="63.476562"/>
      <use xlink:href="#DejaVuSans-65" x="102.685547"/>
      <use xlink:href="#DejaVuSans-70" x="164.208984"/>
      <use xlink:href="#DejaVuSans-73" x="227.685547"/>
     </g>
    </g>
   </g>
   <g id="matplotlib.axis_2">
    <g id="ytick_1">
     <g id="line2d_15">
      <path d="M 54 243.636923 
L 388.8 243.636923 
" clip-path="url(#p3532897f24)" style="fill: none; stroke-dasharray: 2.96,1.28; stroke-dashoffset: 0; stroke: #b0b0b0; stroke-width: 0.8"/>
     </g>
     <g id="line2d_16">
      <defs>
       <path id="m79c9bff4d8" d="M 0 0 
L -3.5 0 
" style="stroke: #000000; stroke-width: 0.8"/>
      </defs>
      <g>
       <use xlink:href="#m79c9bff4d8" x="54" y="243.636923" style="stroke: #000000; stroke-width: 0.8"/>
      </g>
     </g>
     <g id="text_9">
      <!-- −12 -->
      <g transform="translate(25.895312 247.436142)scale(0.1 -0.1)">
       <defs>
        <path id="DejaVuSans-2212" d="M 678 2272 
L 4684 2272 
L 4684 1741 
L 678 1741 
L 678 2272 
z
" transform="scale(0.015625)"/>
       </defs>
       <use xlink:href="#DejaVuSans-2212"/>
       <use xlink:href="#DejaVuSans-31" x="83.789062"/>
       <use xlink:href="#DejaVuSans-32" x="147.412109"/>
      </g>
     </g>
    </g>
    <g id="ytick_2">
     <g id="line2d_17">
      <path d="M 54 210.184615 
L 388.8 210.184615 
" clip-path="url(#p3532897f24)" style="fill: none; stroke-dasharray: 2.96,1.28; stroke-dashoffset: 0; stroke: #b0b0b0; stroke-width: 0.8"/>
     </g>
     <g id="line2d_18">
      <g>
       <use xlink:href="#m79c9bff4d8" x="54" y="210.184615" style="stroke: #000000; stroke-width: 0.8"/>
      </g>
     </g>
     <g id="text_10">
      <!-- −10 -->
      <g transform="translate(25.895312 213.983834)scale(0.1 -0.1)">
       <use xlink:href="#DejaVuSans-2212"/>
       <use xlink:href="#DejaVuSans-31" x="83.789062"/>
       <use xlink:href="#DejaVuSans-30" x="147.412109"/>
      </g>
     </g>
    </g>
    <g id="ytick_3">
     <g id="line2d_19">
      <path d="M 54 176.732308 
L 388.8 176.732308 
" clip-path="url(#p3532897f24)" style="fill: none; stroke-dasharray: 2.96,1.28; stroke-dashoffset: 0; stroke: #b0b0b0; stroke-width: 0.8"/>
     </g>
     <g id="line2d_20">
      <g>
       <use xlink:href="#m79c9bff4d8" x="54" y="176.732308" style="stroke: #000000; stroke-width: 0.8"/>
      </g>
     </g>
     <g id="text_11">
      <!-- −8 -->
      <g transform="translate(32.257812 180.531526)scale(0.1 -0.1)">
       <defs>
        <path id="DejaVuSans-38" d="M 2034 2216 
Q 1584 2216 1326 1975 
Q 1069 1734 1069 1313 
Q 1069 891 1326 650 
Q 1584 409 2034 409 
Q 2484 409 2743 651 
Q 3003 894 3003 1313 
Q 3003 1734 2745 1975 
Q 2488 2216 2034 2216 
z
M 1403 2484 
Q 997 2584 770 2862 
Q 544 3141 544 3541 
Q 544 4100 942 4425 
Q 1341 4750 2034 4750 
Q 2731 4750 3128 4425 
Q 3525 4100 3525 3541 
Q 3525 3141 3298 2862 
Q 3072 2584 2669 2484 
Q 3125 2378 3379 2068 
Q 3634 1759 3634 1313 
Q 3634 634 3220 271 
Q 2806 -91 2034 -91 
Q 1263 -91 848 271 
Q 434 634 434 1313 
Q 434 1759 690 2068 
Q 947 2378 1403 2484 
z
M 1172 3481 
Q 1172 3119 1398 2916 
Q 1625 2713 2034 2713 
Q 2441 2713 2670 2916 
Q 2900 3119 2900 3481 
Q 2900 3844 2670 4047 
Q 2441 4250 2034 4250 
Q 1625 4250 1398 4047 
Q 1172 3844 1172 3481 
z
" transform="scale(0.015625)"/>
       </defs>
       <use xlink:href="#DejaVuSans-2212"/>
       <use xlink:href="#DejaVuSans-38" x="83.789062"/>
      </g>
     </g>
    </g>
    <g id="ytick_4">
     <g id="line2d_21">
      <path d="M 54 143.28 
L 388.8 143.28 
" clip-path="url(#p3532897f24)" style="fill: none; stroke-dasharray: 2.96,1.28; stroke-dashoffset: 0; stroke: #b0b0b0; stroke-width: 0.8"/>
     </g>
     <g id="line2d_22">
      <g>
       <use xlink:href="#m79c9bff4d8" x="54" y="143.28" style="stroke: #000000; stroke-width: 0.8"/>
      </g>
     </g>
     <g id="text_12">
      <!-- −6 -->
      <g transform="translate(32.257812 147.079219)scale(0.1 -0.1)">
       <defs>
        <path id="DejaVuSans-36" d="M 2113 2584 
Q 1688 2584 1439 2293 
Q 1191 2003 1191 1497 
Q 1191 994 1439 701 
Q 1688 409 2113 409 
Q 2538 409 2786 701 
Q 3034 994 3034 1497 
Q 3034 2003 2786 2293 
Q 2538 2584 2113 2584 
z
M 3366 4563 
L 3366 3988 
Q 3128 4100 2886 4159 
Q 2644 4219 2406 4219 
Q 1781 4219 1451 3797 
Q 1122 3375 1075 2522 
Q 1259 2794 1537 2939 
Q 1816 3084 2150 3084 
Q 2853 3084 3261 2657 
Q 3669 2231 3669 1497 
Q 3669 778 3244 343 
Q 2819 -91 2113 -91 
Q 1303 -91 875 529 
Q 447 1150 447 2328 
Q 447 3434 972 4092 
Q 1497 4750 2381 4750 
Q 2619 4750 2861 4703 
Q 3103 4656 3366 4563 
z
" transform="scale(0.015625)"/>
       </defs>
       <use xlink:href="#DejaVuSans-2212"/>
       <use xlink:href="#DejaVuSans-36" x="83.789062"/>
      </g>
     </g>
    </g>
    <g id="ytick_5">
     <g id="line2d_23">
      <path d="M 54 109.827692 
L 388.8 109.827692 
" clip-path="url(#p3532897f24)" style="fill: none; stroke-dasharray: 2.96,1.28; stroke-dashoffset: 0; stroke: #b0b0b0; stroke-width: 0.8"/>
     </g>
     <g id="line2d_24">
      <g>
       <use xlink:href="#m79c9bff4d8" x="54" y="109.827692" style="stroke: #000000; stroke-width: 0.8"/>
      </g>
     </g>
     <g id="text_13">
      <!-- −4 -->
      <g transform="translate(32.257812 113.626911)scale(0.1 -0.1)">
       <defs>
        <path id="DejaVuSans-34" d="M 2419 4116 
L 825 1625 
L 2419 1625 
L 2419 4116 
z
M 2253 4666 
L 3047 4666 
L 3047 1625 
L 3713 1625 
L 3713 1100 
L 3047 1100 
L 3047 0 
L 2419 0 
L 2419 1100 
L 313 1100 
L 313 1709 
L 2253 4666 
z
" transform="scale(0.015625)"/>
       </defs>
       <use xlink:href="#DejaVuSans-2212"/>
       <use xlink:href="#DejaVuSans-34" x="83.789062"/>
      </g>
     </g>
    </g>
    <g id="ytick_6">
     <g id="line2d_25">
      <path d="M 54 76.375385 
L 388.8 76.375385 
" clip-path="url(#p3532897f24)" style="fill: none; stroke-dasharray: 2.96,1.28; stroke-dashoffset: 0; stroke: #b0b0b0; stroke-width: 0.8"/>
     </g>
     <g id="line2d_26">
      <g>
       <use xlink:href="#m79c9bff4d8" x="54" y="76.375385" style="stroke: #000000; stroke-width: 0.8"/>
      </g>
     </g>
     <g id="text_14">
      <!-- −2 -->
      <g transform="translate(32.257812 80.174603)scale(0.1 -0.1)">
       <use xlink:href="#DejaVuSans-2212"/>
       <use xlink:href="#DejaVuSans-32" x="83.789062"/>
      </g>
     </g>
    </g>
    <g id="ytick_7">
     <g id="line2d_27">
      <path d="M 54 42.923077 
L 388.8 42.923077 
" clip-path="url(#p3532897f24)" style="fill: none; stroke-dasharray: 2.96,1.28; stroke-dashoffset: 0; stroke: #b0b0b0; stroke-width: 0.8"/>
     </g>
     <g id="line2d_28">
      <g>
       <use xlink:href="#m79c9bff4d8" x="54" y="42.923077" style="stroke: #000000; stroke-width: 0.8"/>
      </g>
     </g>
     <g id="text_15">
      <!-- 0 -->
      <g transform="translate(40.6375 46.722296)scale(0.1 -0.1)">
       <use xlink:href="#DejaVuSans-30"/>
      </g>
     </g>
    </g>
    <g id="text_16">
     <!-- Policy value error -->
     <g transform="translate(19.815625 186.597969)rotate(-90)scale(0.1 -0.1)">
      <defs>
       <path id="DejaVuSans-50" d="M 1259 4147 
L 1259 2394 
L 2053 2394 
Q 2494 2394 2734 2622 
Q 2975 2850 2975 3272 
Q 2975 3691 2734 3919 
Q 2494 4147 2053 4147 
L 1259 4147 
z
M 628 4666 
L 2053 4666 
Q 2838 4666 3239 4311 
Q 3641 3956 3641 3272 
Q 3641 2581 3239 2228 
Q 2838 1875 2053 1875 
L 1259 1875 
L 1259 0 
L 628 0 
L 628 4666 
z
" transform="scale(0.015625)"/>
       <path id="DejaVuSans-6f" d="M 1959 3097 
Q 1497 3097 1228 2736 
Q 959 2375 959 1747 
Q 959 1119 1226 758 
Q 1494 397 1959 397 
Q 2419 397 2687 759 
Q 2956 1122 2956 1747 
Q 2956 2369 2687 2733 
Q 2419 3097 1959 3097 
z
M 1959 3584 
Q 2709 3584 3137 3096 
Q 3566 2609 3566 1747 
Q 3566 888 3137 398 
Q 2709 -91 1959 -91 
Q 1206 -91 779 398 
Q 353 888 353 1747 
Q 353 2609 779 3096 
Q 1206 3584 1959 3584 
z
" transform="scale(0.015625)"/>
       <path id="DejaVuSans-6c" d="M 603 4863 
L 1178 4863 
L 1178 0 
L 603 0 
L 603 4863 
z
" transform="scale(0.015625)"/>
       <path id="DejaVuSans-69" d="M 603 3500 
L 1178 3500 
L 1178 0 
L 603 0 
L 603 3500 
z
M 603 4863 
L 1178 4863 
L 1178 4134 
L 603 4134 
L 603 4863 
z
" transform="scale(0.015625)"/>
       <path id="DejaVuSans-63" d="M 3122 3366 
L 3122 2828 
Q 2878 2963 2633 3030 
Q 2388 3097 2138 3097 
Q 1578 3097 1268 2742 
Q 959 2388 959 1747 
Q 959 1106 1268 751 
Q 1578 397 2138 397 
Q 2388 397 2633 464 
Q 2878 531 3122 666 
L 3122 134 
Q 2881 22 2623 -34 
Q 2366 -91 2075 -91 
Q 1284 -91 818 406 
Q 353 903 353 1747 
Q 353 2603 823 3093 
Q 1294 3584 2113 3584 
Q 2378 3584 2631 3529 
Q 2884 3475 3122 3366 
z
" transform="scale(0.015625)"/>
       <path id="DejaVuSans-79" d="M 2059 -325 
Q 1816 -950 1584 -1140 
Q 1353 -1331 966 -1331 
L 506 -1331 
L 506 -850 
L 844 -850 
Q 1081 -850 1212 -737 
Q 1344 -625 1503 -206 
L 1606 56 
L 191 3500 
L 800 3500 
L 1894 763 
L 2988 3500 
L 3597 3500 
L 2059 -325 
z
" transform="scale(0.015625)"/>
       <path id="DejaVuSans-20" transform="scale(0.015625)"/>
       <path id="DejaVuSans-76" d="M 191 3500 
L 800 3500 
L 1894 563 
L 2988 3500 
L 3597 3500 
L 2284 0 
L 1503 0 
L 191 3500 
z
" transform="scale(0.015625)"/>
       <path id="DejaVuSans-61" d="M 2194 1759 
Q 1497 1759 1228 1600 
Q 959 1441 959 1056 
Q 959 750 1161 570 
Q 1363 391 1709 391 
Q 2188 391 2477 730 
Q 2766 1069 2766 1631 
L 2766 1759 
L 2194 1759 
z
M 3341 1997 
L 3341 0 
L 2766 0 
L 2766 531 
Q 2569 213 2275 61 
Q 1981 -91 1556 -91 
Q 1019 -91 701 211 
Q 384 513 384 1019 
Q 384 1609 779 1909 
Q 1175 2209 1959 2209 
L 2766 2209 
L 2766 2266 
Q 2766 2663 2505 2880 
Q 2244 3097 1772 3097 
Q 1472 3097 1187 3025 
Q 903 2953 641 2809 
L 641 3341 
Q 956 3463 1253 3523 
Q 1550 3584 1831 3584 
Q 2591 3584 2966 3190 
Q 3341 2797 3341 1997 
z
" transform="scale(0.015625)"/>
       <path id="DejaVuSans-75" d="M 544 1381 
L 544 3500 
L 1119 3500 
L 1119 1403 
Q 1119 906 1312 657 
Q 1506 409 1894 409 
Q 2359 409 2629 706 
Q 2900 1003 2900 1516 
L 2900 3500 
L 3475 3500 
L 3475 0 
L 2900 0 
L 2900 538 
Q 2691 219 2414 64 
Q 2138 -91 1772 -91 
Q 1169 -91 856 284 
Q 544 659 544 1381 
z
M 1991 3584 
L 1991 3584 
z
" transform="scale(0.015625)"/>
       <path id="DejaVuSans-72" d="M 2631 2963 
Q 2534 3019 2420 3045 
Q 2306 3072 2169 3072 
Q 1681 3072 1420 2755 
Q 1159 2438 1159 1844 
L 1159 0 
L 581 0 
L 581 3500 
L 1159 3500 
L 1159 2956 
Q 1341 3275 1631 3429 
Q 1922 3584 2338 3584 
Q 2397 3584 2469 3576 
Q 2541 3569 2628 3553 
L 2631 2963 
z
" transform="scale(0.015625)"/>
      </defs>
      <use xlink:href="#DejaVuSans-50"/>
      <use xlink:href="#DejaVuSans-6f" x="56.677734"/>
      <use xlink:href="#DejaVuSans-6c" x="117.859375"/>
      <use xlink:href="#DejaVuSans-69" x="145.642578"/>
      <use xlink:href="#DejaVuSans-63" x="173.425781"/>
      <use xlink:href="#DejaVuSans-79" x="228.40625"/>
      <use xlink:href="#DejaVuSans-20" x="287.585938"/>
      <use xlink:href="#DejaVuSans-76" x="319.373047"/>
      <use xlink:href="#DejaVuSans-61" x="378.552734"/>
      <use xlink:href="#DejaVuSans-6c" x="439.832031"/>
      <use xlink:href="#DejaVuSans-75" x="467.615234"/>
      <use xlink:href="#DejaVuSans-65" x="530.994141"/>
      <use xlink:href="#DejaVuSans-20" x="592.517578"/>
      <use xlink:href="#DejaVuSans-65" x="624.304688"/>
      <use xlink:href="#DejaVuSans-72" x="685.828125"/>
      <use xlink:href="#DejaVuSans-72" x="725.191406"/>
      <use xlink:href="#DejaVuSans-6f" x="764.054688"/>
      <use xlink:href="#DejaVuSans-72" x="825.236328"/>
     </g>
    </g>
   </g>
   <g id="line2d_29">
    <path d="M 69.218182 256.227555 
L 74.376888 256.163694 
L 79.535593 253.145498 
L 84.694299 253.206721 
L 89.853005 252.921455 
L 95.01171 253.251638 
L 100.170416 253.092244 
L 105.329122 252.908818 
L 110.487827 253.170605 
L 115.646533 252.908818 
L 120.805239 252.917464 
L 125.963945 253.409864 
L 131.12265 257.301686 
L 136.281356 253.138811 
L 141.440062 252.908818 
L 146.598767 252.908818 
L 151.757473 253.132925 
L 156.916179 252.908818 
L 162.074884 253.207771 
L 167.23359 254.866099 
L 172.392296 254.251629 
L 177.551002 252.936854 
L 182.709707 252.908818 
L 187.868413 252.908818 
L 193.027119 253.964244 
L 198.185824 252.908818 
L 203.34453 254.867679 
L 208.503236 253.164546 
L 213.661941 252.977465 
L 218.820647 250.560489 
L 223.979353 254.052557 
L 229.138059 252.908818 
L 234.296764 253.194167 
L 239.45547 254.559278 
L 244.614176 252.998613 
L 249.772881 253.048496 
L 254.931587 253.158867 
L 260.090293 253.221127 
L 265.248998 253.221127 
L 270.407704 253.221127 
L 275.56641 253.246335 
L 280.725116 252.202162 
L 285.883821 253.058977 
L 291.042527 253.219218 
L 296.201233 208.757819 
L 301.359938 253.194164 
L 306.518644 252.275769 
L 311.67735 198.272433 
L 316.836055 252.163495 
L 321.994761 252.163464 
L 327.153467 253.176075 
L 332.312173 211.251909 
L 337.470878 253.176089 
L 342.629584 253.176089 
L 347.78829 253.192747 
L 352.946995 253.175836 
L 358.105701 242.763532 
L 363.264407 242.619241 
L 368.423112 242.619241 
L 373.581818 242.619241 
" clip-path="url(#p3532897f24)" style="fill: none; stroke: #9d02d7; stroke-width: 1.5; stroke-linecap: square"/>
    <defs>
     <path id="maf9efed348" d="M 0 -2 
L -2 2 
L 2 2 
z
" style="stroke: #9d02d7; stroke-linejoin: miter"/>
    </defs>
    <g clip-path="url(#p3532897f24)">
     <use xlink:href="#maf9efed348" x="69.218182" y="256.227555" style="fill: #9d02d7; stroke: #9d02d7; stroke-linejoin: miter"/>
     <use xlink:href="#maf9efed348" x="74.376888" y="256.163694" style="fill: #9d02d7; stroke: #9d02d7; stroke-linejoin: miter"/>
     <use xlink:href="#maf9efed348" x="79.535593" y="253.145498" style="fill: #9d02d7; stroke: #9d02d7; stroke-linejoin: miter"/>
     <use xlink:href="#maf9efed348" x="84.694299" y="253.206721" style="fill: #9d02d7; stroke: #9d02d7; stroke-linejoin: miter"/>
     <use xlink:href="#maf9efed348" x="89.853005" y="252.921455" style="fill: #9d02d7; stroke: #9d02d7; stroke-linejoin: miter"/>
     <use xlink:href="#maf9efed348" x="95.01171" y="253.251638" style="fill: #9d02d7; stroke: #9d02d7; stroke-linejoin: miter"/>
     <use xlink:href="#maf9efed348" x="100.170416" y="253.092244" style="fill: #9d02d7; stroke: #9d02d7; stroke-linejoin: miter"/>
     <use xlink:href="#maf9efed348" x="105.329122" y="252.908818" style="fill: #9d02d7; stroke: #9d02d7; stroke-linejoin: miter"/>
     <use xlink:href="#maf9efed348" x="110.487827" y="253.170605" style="fill: #9d02d7; stroke: #9d02d7; stroke-linejoin: miter"/>
     <use xlink:href="#maf9efed348" x="115.646533" y="252.908818" style="fill: #9d02d7; stroke: #9d02d7; stroke-linejoin: miter"/>
     <use xlink:href="#maf9efed348" x="120.805239" y="252.917464" style="fill: #9d02d7; stroke: #9d02d7; stroke-linejoin: miter"/>
     <use xlink:href="#maf9efed348" x="125.963945" y="253.409864" style="fill: #9d02d7; stroke: #9d02d7; stroke-linejoin: miter"/>
     <use xlink:href="#maf9efed348" x="131.12265" y="257.301686" style="fill: #9d02d7; stroke: #9d02d7; stroke-linejoin: miter"/>
     <use xlink:href="#maf9efed348" x="136.281356" y="253.138811" style="fill: #9d02d7; stroke: #9d02d7; stroke-linejoin: miter"/>
     <use xlink:href="#maf9efed348" x="141.440062" y="252.908818" style="fill: #9d02d7; stroke: #9d02d7; stroke-linejoin: miter"/>
     <use xlink:href="#maf9efed348" x="146.598767" y="252.908818" style="fill: #9d02d7; stroke: #9d02d7; stroke-linejoin: miter"/>
     <use xlink:href="#maf9efed348" x="151.757473" y="253.132925" style="fill: #9d02d7; stroke: #9d02d7; stroke-linejoin: miter"/>
     <use xlink:href="#maf9efed348" x="156.916179" y="252.908818" style="fill: #9d02d7; stroke: #9d02d7; stroke-linejoin: miter"/>
     <use xlink:href="#maf9efed348" x="162.074884" y="253.207771" style="fill: #9d02d7; stroke: #9d02d7; stroke-linejoin: miter"/>
     <use xlink:href="#maf9efed348" x="167.23359" y="254.866099" style="fill: #9d02d7; stroke: #9d02d7; stroke-linejoin: miter"/>
     <use xlink:href="#maf9efed348" x="172.392296" y="254.251629" style="fill: #9d02d7; stroke: #9d02d7; stroke-linejoin: miter"/>
     <use xlink:href="#maf9efed348" x="177.551002" y="252.936854" style="fill: #9d02d7; stroke: #9d02d7; stroke-linejoin: miter"/>
     <use xlink:href="#maf9efed348" x="182.709707" y="252.908818" style="fill: #9d02d7; stroke: #9d02d7; stroke-linejoin: miter"/>
     <use xlink:href="#maf9efed348" x="187.868413" y="252.908818" style="fill: #9d02d7; stroke: #9d02d7; stroke-linejoin: miter"/>
     <use xlink:href="#maf9efed348" x="193.027119" y="253.964244" style="fill: #9d02d7; stroke: #9d02d7; stroke-linejoin: miter"/>
     <use xlink:href="#maf9efed348" x="198.185824" y="252.908818" style="fill: #9d02d7; stroke: #9d02d7; stroke-linejoin: miter"/>
     <use xlink:href="#maf9efed348" x="203.34453" y="254.867679" style="fill: #9d02d7; stroke: #9d02d7; stroke-linejoin: miter"/>
     <use xlink:href="#maf9efed348" x="208.503236" y="253.164546" style="fill: #9d02d7; stroke: #9d02d7; stroke-linejoin: miter"/>
     <use xlink:href="#maf9efed348" x="213.661941" y="252.977465" style="fill: #9d02d7; stroke: #9d02d7; stroke-linejoin: miter"/>
     <use xlink:href="#maf9efed348" x="218.820647" y="250.560489" style="fill: #9d02d7; stroke: #9d02d7; stroke-linejoin: miter"/>
     <use xlink:href="#maf9efed348" x="223.979353" y="254.052557" style="fill: #9d02d7; stroke: #9d02d7; stroke-linejoin: miter"/>
     <use xlink:href="#maf9efed348" x="229.138059" y="252.908818" style="fill: #9d02d7; stroke: #9d02d7; stroke-linejoin: miter"/>
     <use xlink:href="#maf9efed348" x="234.296764" y="253.194167" style="fill: #9d02d7; stroke: #9d02d7; stroke-linejoin: miter"/>
     <use xlink:href="#maf9efed348" x="239.45547" y="254.559278" style="fill: #9d02d7; stroke: #9d02d7; stroke-linejoin: miter"/>
     <use xlink:href="#maf9efed348" x="244.614176" y="252.998613" style="fill: #9d02d7; stroke: #9d02d7; stroke-linejoin: miter"/>
     <use xlink:href="#maf9efed348" x="249.772881" y="253.048496" style="fill: #9d02d7; stroke: #9d02d7; stroke-linejoin: miter"/>
     <use xlink:href="#maf9efed348" x="254.931587" y="253.158867" style="fill: #9d02d7; stroke: #9d02d7; stroke-linejoin: miter"/>
     <use xlink:href="#maf9efed348" x="260.090293" y="253.221127" style="fill: #9d02d7; stroke: #9d02d7; stroke-linejoin: miter"/>
     <use xlink:href="#maf9efed348" x="265.248998" y="253.221127" style="fill: #9d02d7; stroke: #9d02d7; stroke-linejoin: miter"/>
     <use xlink:href="#maf9efed348" x="270.407704" y="253.221127" style="fill: #9d02d7; stroke: #9d02d7; stroke-linejoin: miter"/>
     <use xlink:href="#maf9efed348" x="275.56641" y="253.246335" style="fill: #9d02d7; stroke: #9d02d7; stroke-linejoin: miter"/>
     <use xlink:href="#maf9efed348" x="280.725116" y="252.202162" style="fill: #9d02d7; stroke: #9d02d7; stroke-linejoin: miter"/>
     <use xlink:href="#maf9efed348" x="285.883821" y="253.058977" style="fill: #9d02d7; stroke: #9d02d7; stroke-linejoin: miter"/>
     <use xlink:href="#maf9efed348" x="291.042527" y="253.219218" style="fill: #9d02d7; stroke: #9d02d7; stroke-linejoin: miter"/>
     <use xlink:href="#maf9efed348" x="296.201233" y="208.757819" style="fill: #9d02d7; stroke: #9d02d7; stroke-linejoin: miter"/>
     <use xlink:href="#maf9efed348" x="301.359938" y="253.194164" style="fill: #9d02d7; stroke: #9d02d7; stroke-linejoin: miter"/>
     <use xlink:href="#maf9efed348" x="306.518644" y="252.275769" style="fill: #9d02d7; stroke: #9d02d7; stroke-linejoin: miter"/>
     <use xlink:href="#maf9efed348" x="311.67735" y="198.272433" style="fill: #9d02d7; stroke: #9d02d7; stroke-linejoin: miter"/>
     <use xlink:href="#maf9efed348" x="316.836055" y="252.163495" style="fill: #9d02d7; stroke: #9d02d7; stroke-linejoin: miter"/>
     <use xlink:href="#maf9efed348" x="321.994761" y="252.163464" style="fill: #9d02d7; stroke: #9d02d7; stroke-linejoin: miter"/>
     <use xlink:href="#maf9efed348" x="327.153467" y="253.176075" style="fill: #9d02d7; stroke: #9d02d7; stroke-linejoin: miter"/>
     <use xlink:href="#maf9efed348" x="332.312173" y="211.251909" style="fill: #9d02d7; stroke: #9d02d7; stroke-linejoin: miter"/>
     <use xlink:href="#maf9efed348" x="337.470878" y="253.176089" style="fill: #9d02d7; stroke: #9d02d7; stroke-linejoin: miter"/>
     <use xlink:href="#maf9efed348" x="342.629584" y="253.176089" style="fill: #9d02d7; stroke: #9d02d7; stroke-linejoin: miter"/>
     <use xlink:href="#maf9efed348" x="347.78829" y="253.192747" style="fill: #9d02d7; stroke: #9d02d7; stroke-linejoin: miter"/>
     <use xlink:href="#maf9efed348" x="352.946995" y="253.175836" style="fill: #9d02d7; stroke: #9d02d7; stroke-linejoin: miter"/>
     <use xlink:href="#maf9efed348" x="358.105701" y="242.763532" style="fill: #9d02d7; stroke: #9d02d7; stroke-linejoin: miter"/>
     <use xlink:href="#maf9efed348" x="363.264407" y="242.619241" style="fill: #9d02d7; stroke: #9d02d7; stroke-linejoin: miter"/>
     <use xlink:href="#maf9efed348" x="368.423112" y="242.619241" style="fill: #9d02d7; stroke: #9d02d7; stroke-linejoin: miter"/>
     <use xlink:href="#maf9efed348" x="373.581818" y="242.619241" style="fill: #9d02d7; stroke: #9d02d7; stroke-linejoin: miter"/>
    </g>
   </g>
   <g id="line2d_30">
    <path d="M 69.218182 253.490669 
L 74.376888 252.908818 
L 79.535593 254.532745 
L 84.694299 247.165292 
L 89.853005 253.112812 
L 95.01171 252.914 
L 100.170416 252.911818 
L 105.329122 252.91185 
L 110.487827 252.910363 
L 115.646533 252.911007 
L 120.805239 252.908818 
L 125.963945 252.908818 
L 131.12265 252.908818 
L 136.281356 252.908818 
L 141.440062 252.911037 
L 146.598767 252.910681 
L 151.757473 252.908818 
L 156.916179 252.908818 
L 162.074884 252.912292 
L 167.23359 252.908818 
L 172.392296 252.91648 
L 177.551002 252.908818 
L 182.709707 252.913659 
L 187.868413 252.908818 
L 193.027119 252.908818 
L 198.185824 252.908818 
L 203.34453 252.908818 
L 208.503236 252.908818 
L 213.661941 252.908818 
L 218.820647 252.908818 
L 223.979353 252.908818 
L 229.138059 252.908818 
L 234.296764 252.914125 
L 239.45547 252.908818 
L 244.614176 252.908818 
L 249.772881 252.908818 
L 254.931587 252.908818 
L 260.090293 256.073477 
L 265.248998 243.453913 
L 270.407704 242.82178 
L 275.56641 241.99208 
L 280.725116 242.862017 
L 285.883821 241.623368 
L 291.042527 240.858526 
L 296.201233 242.113204 
L 301.359938 243.45477 
L 306.518644 240.830073 
L 311.67735 239.641908 
L 316.836055 240.026879 
L 321.994761 241.054879 
L 327.153467 167.434855 
L 332.312173 171.68351 
L 337.470878 168.355286 
L 342.629584 171.23673 
L 347.78829 122.815893 
L 352.946995 123.183739 
L 358.105701 123.183739 
L 363.264407 152.339538 
L 368.423112 136.049706 
L 373.581818 119.24825 
" clip-path="url(#p3532897f24)" style="fill: none; stroke: #0000ff; stroke-width: 1.5; stroke-linecap: square"/>
    <defs>
     <path id="me28774d338" d="M 0 2 
C 0.530406 2 1.03916 1.789267 1.414214 1.414214 
C 1.789267 1.03916 2 0.530406 2 0 
C 2 -0.530406 1.789267 -1.03916 1.414214 -1.414214 
C 1.03916 -1.789267 0.530406 -2 0 -2 
C -0.530406 -2 -1.03916 -1.789267 -1.414214 -1.414214 
C -1.789267 -1.03916 -2 -0.530406 -2 0 
C -2 0.530406 -1.789267 1.03916 -1.414214 1.414214 
C -1.03916 1.789267 -0.530406 2 0 2 
z
" style="stroke: #0000ff"/>
    </defs>
    <g clip-path="url(#p3532897f24)">
     <use xlink:href="#me28774d338" x="69.218182" y="253.490669" style="fill: #0000ff; stroke: #0000ff"/>
     <use xlink:href="#me28774d338" x="74.376888" y="252.908818" style="fill: #0000ff; stroke: #0000ff"/>
     <use xlink:href="#me28774d338" x="79.535593" y="254.532745" style="fill: #0000ff; stroke: #0000ff"/>
     <use xlink:href="#me28774d338" x="84.694299" y="247.165292" style="fill: #0000ff; stroke: #0000ff"/>
     <use xlink:href="#me28774d338" x="89.853005" y="253.112812" style="fill: #0000ff; stroke: #0000ff"/>
     <use xlink:href="#me28774d338" x="95.01171" y="252.914" style="fill: #0000ff; stroke: #0000ff"/>
     <use xlink:href="#me28774d338" x="100.170416" y="252.911818" style="fill: #0000ff; stroke: #0000ff"/>
     <use xlink:href="#me28774d338" x="105.329122" y="252.91185" style="fill: #0000ff; stroke: #0000ff"/>
     <use xlink:href="#me28774d338" x="110.487827" y="252.910363" style="fill: #0000ff; stroke: #0000ff"/>
     <use xlink:href="#me28774d338" x="115.646533" y="252.911007" style="fill: #0000ff; stroke: #0000ff"/>
     <use xlink:href="#me28774d338" x="120.805239" y="252.908818" style="fill: #0000ff; stroke: #0000ff"/>
     <use xlink:href="#me28774d338" x="125.963945" y="252.908818" style="fill: #0000ff; stroke: #0000ff"/>
     <use xlink:href="#me28774d338" x="131.12265" y="252.908818" style="fill: #0000ff; stroke: #0000ff"/>
     <use xlink:href="#me28774d338" x="136.281356" y="252.908818" style="fill: #0000ff; stroke: #0000ff"/>
     <use xlink:href="#me28774d338" x="141.440062" y="252.911037" style="fill: #0000ff; stroke: #0000ff"/>
     <use xlink:href="#me28774d338" x="146.598767" y="252.910681" style="fill: #0000ff; stroke: #0000ff"/>
     <use xlink:href="#me28774d338" x="151.757473" y="252.908818" style="fill: #0000ff; stroke: #0000ff"/>
     <use xlink:href="#me28774d338" x="156.916179" y="252.908818" style="fill: #0000ff; stroke: #0000ff"/>
     <use xlink:href="#me28774d338" x="162.074884" y="252.912292" style="fill: #0000ff; stroke: #0000ff"/>
     <use xlink:href="#me28774d338" x="167.23359" y="252.908818" style="fill: #0000ff; stroke: #0000ff"/>
     <use xlink:href="#me28774d338" x="172.392296" y="252.91648" style="fill: #0000ff; stroke: #0000ff"/>
     <use xlink:href="#me28774d338" x="177.551002" y="252.908818" style="fill: #0000ff; stroke: #0000ff"/>
     <use xlink:href="#me28774d338" x="182.709707" y="252.913659" style="fill: #0000ff; stroke: #0000ff"/>
     <use xlink:href="#me28774d338" x="187.868413" y="252.908818" style="fill: #0000ff; stroke: #0000ff"/>
     <use xlink:href="#me28774d338" x="193.027119" y="252.908818" style="fill: #0000ff; stroke: #0000ff"/>
     <use xlink:href="#me28774d338" x="198.185824" y="252.908818" style="fill: #0000ff; stroke: #0000ff"/>
     <use xlink:href="#me28774d338" x="203.34453" y="252.908818" style="fill: #0000ff; stroke: #0000ff"/>
     <use xlink:href="#me28774d338" x="208.503236" y="252.908818" style="fill: #0000ff; stroke: #0000ff"/>
     <use xlink:href="#me28774d338" x="213.661941" y="252.908818" style="fill: #0000ff; stroke: #0000ff"/>
     <use xlink:href="#me28774d338" x="218.820647" y="252.908818" style="fill: #0000ff; stroke: #0000ff"/>
     <use xlink:href="#me28774d338" x="223.979353" y="252.908818" style="fill: #0000ff; stroke: #0000ff"/>
     <use xlink:href="#me28774d338" x="229.138059" y="252.908818" style="fill: #0000ff; stroke: #0000ff"/>
     <use xlink:href="#me28774d338" x="234.296764" y="252.914125" style="fill: #0000ff; stroke: #0000ff"/>
     <use xlink:href="#me28774d338" x="239.45547" y="252.908818" style="fill: #0000ff; stroke: #0000ff"/>
     <use xlink:href="#me28774d338" x="244.614176" y="252.908818" style="fill: #0000ff; stroke: #0000ff"/>
     <use xlink:href="#me28774d338" x="249.772881" y="252.908818" style="fill: #0000ff; stroke: #0000ff"/>
     <use xlink:href="#me28774d338" x="254.931587" y="252.908818" style="fill: #0000ff; stroke: #0000ff"/>
     <use xlink:href="#me28774d338" x="260.090293" y="256.073477" style="fill: #0000ff; stroke: #0000ff"/>
     <use xlink:href="#me28774d338" x="265.248998" y="243.453913" style="fill: #0000ff; stroke: #0000ff"/>
     <use xlink:href="#me28774d338" x="270.407704" y="242.82178" style="fill: #0000ff; stroke: #0000ff"/>
     <use xlink:href="#me28774d338" x="275.56641" y="241.99208" style="fill: #0000ff; stroke: #0000ff"/>
     <use xlink:href="#me28774d338" x="280.725116" y="242.862017" style="fill: #0000ff; stroke: #0000ff"/>
     <use xlink:href="#me28774d338" x="285.883821" y="241.623368" style="fill: #0000ff; stroke: #0000ff"/>
     <use xlink:href="#me28774d338" x="291.042527" y="240.858526" style="fill: #0000ff; stroke: #0000ff"/>
     <use xlink:href="#me28774d338" x="296.201233" y="242.113204" style="fill: #0000ff; stroke: #0000ff"/>
     <use xlink:href="#me28774d338" x="301.359938" y="243.45477" style="fill: #0000ff; stroke: #0000ff"/>
     <use xlink:href="#me28774d338" x="306.518644" y="240.830073" style="fill: #0000ff; stroke: #0000ff"/>
     <use xlink:href="#me28774d338" x="311.67735" y="239.641908" style="fill: #0000ff; stroke: #0000ff"/>
     <use xlink:href="#me28774d338" x="316.836055" y="240.026879" style="fill: #0000ff; stroke: #0000ff"/>
     <use xlink:href="#me28774d338" x="321.994761" y="241.054879" style="fill: #0000ff; stroke: #0000ff"/>
     <use xlink:href="#me28774d338" x="327.153467" y="167.434855" style="fill: #0000ff; stroke: #0000ff"/>
     <use xlink:href="#me28774d338" x="332.312173" y="171.68351" style="fill: #0000ff; stroke: #0000ff"/>
     <use xlink:href="#me28774d338" x="337.470878" y="168.355286" style="fill: #0000ff; stroke: #0000ff"/>
     <use xlink:href="#me28774d338" x="342.629584" y="171.23673" style="fill: #0000ff; stroke: #0000ff"/>
     <use xlink:href="#me28774d338" x="347.78829" y="122.815893" style="fill: #0000ff; stroke: #0000ff"/>
     <use xlink:href="#me28774d338" x="352.946995" y="123.183739" style="fill: #0000ff; stroke: #0000ff"/>
     <use xlink:href="#me28774d338" x="358.105701" y="123.183739" style="fill: #0000ff; stroke: #0000ff"/>
     <use xlink:href="#me28774d338" x="363.264407" y="152.339538" style="fill: #0000ff; stroke: #0000ff"/>
     <use xlink:href="#me28774d338" x="368.423112" y="136.049706" style="fill: #0000ff; stroke: #0000ff"/>
     <use xlink:href="#me28774d338" x="373.581818" y="119.24825" style="fill: #0000ff; stroke: #0000ff"/>
    </g>
   </g>
   <g id="line2d_31">
    <path d="M 69.218182 268.129348 
L 74.376888 254.711016 
L 79.535593 253.907229 
L 84.694299 259.597872 
L 89.853005 252.908818 
L 95.01171 253.020031 
L 100.170416 252.908818 
L 105.329122 255.5097 
L 110.487827 253.035927 
L 115.646533 252.908818 
L 120.805239 252.908818 
L 125.963945 252.914007 
L 131.12265 252.919326 
L 136.281356 252.919329 
L 141.440062 252.953217 
L 146.598767 252.764639 
L 151.757473 252.910014 
L 156.916179 252.908818 
L 162.074884 252.908818 
L 167.23359 252.908818 
L 172.392296 252.915773 
L 177.551002 252.908818 
L 182.709707 252.908818 
L 187.868413 252.908818 
L 193.027119 252.908818 
L 198.185824 252.908818 
L 203.34453 252.908818 
L 208.503236 252.908818 
L 213.661941 252.908818 
L 218.820647 252.910335 
L 223.979353 252.908818 
L 229.138059 252.916612 
L 234.296764 252.912612 
L 239.45547 252.909686 
L 244.614176 252.908818 
L 249.772881 252.908818 
L 254.931587 252.910935 
L 260.090293 246.842177 
L 265.248998 255.976935 
L 270.407704 257.661761 
L 275.56641 262.839809 
L 280.725116 247.263405 
L 285.883821 253.036368 
L 291.042527 248.214507 
L 296.201233 249.470006 
L 301.359938 246.83279 
L 306.518644 213.518765 
L 311.67735 206.240554 
L 316.836055 209.597079 
L 321.994761 207.572177 
L 327.153467 206.134646 
L 332.312173 210.407474 
L 337.470878 210.469001 
L 342.629584 210.470409 
L 347.78829 210.474626 
L 352.946995 210.474626 
L 358.105701 210.469001 
L 363.264407 213.046476 
L 368.423112 216.437897 
L 373.581818 45.16677 
" clip-path="url(#p3532897f24)" style="fill: none; stroke: #ff7763; stroke-width: 1.5; stroke-linecap: square"/>
    <defs>
     <path id="m54db1ffbb8" d="M -2 2 
L 2 -2 
M -2 -2 
L 2 2 
" style="stroke: #ff7763"/>
    </defs>
    <g clip-path="url(#p3532897f24)">
     <use xlink:href="#m54db1ffbb8" x="69.218182" y="268.129348" style="fill: #ff7763; stroke: #ff7763"/>
     <use xlink:href="#m54db1ffbb8" x="74.376888" y="254.711016" style="fill: #ff7763; stroke: #ff7763"/>
     <use xlink:href="#m54db1ffbb8" x="79.535593" y="253.907229" style="fill: #ff7763; stroke: #ff7763"/>
     <use xlink:href="#m54db1ffbb8" x="84.694299" y="259.597872" style="fill: #ff7763; stroke: #ff7763"/>
     <use xlink:href="#m54db1ffbb8" x="89.853005" y="252.908818" style="fill: #ff7763; stroke: #ff7763"/>
     <use xlink:href="#m54db1ffbb8" x="95.01171" y="253.020031" style="fill: #ff7763; stroke: #ff7763"/>
     <use xlink:href="#m54db1ffbb8" x="100.170416" y="252.908818" style="fill: #ff7763; stroke: #ff7763"/>
     <use xlink:href="#m54db1ffbb8" x="105.329122" y="255.5097" style="fill: #ff7763; stroke: #ff7763"/>
     <use xlink:href="#m54db1ffbb8" x="110.487827" y="253.035927" style="fill: #ff7763; stroke: #ff7763"/>
     <use xlink:href="#m54db1ffbb8" x="115.646533" y="252.908818" style="fill: #ff7763; stroke: #ff7763"/>
     <use xlink:href="#m54db1ffbb8" x="120.805239" y="252.908818" style="fill: #ff7763; stroke: #ff7763"/>
     <use xlink:href="#m54db1ffbb8" x="125.963945" y="252.914007" style="fill: #ff7763; stroke: #ff7763"/>
     <use xlink:href="#m54db1ffbb8" x="131.12265" y="252.919326" style="fill: #ff7763; stroke: #ff7763"/>
     <use xlink:href="#m54db1ffbb8" x="136.281356" y="252.919329" style="fill: #ff7763; stroke: #ff7763"/>
     <use xlink:href="#m54db1ffbb8" x="141.440062" y="252.953217" style="fill: #ff7763; stroke: #ff7763"/>
     <use xlink:href="#m54db1ffbb8" x="146.598767" y="252.764639" style="fill: #ff7763; stroke: #ff7763"/>
     <use xlink:href="#m54db1ffbb8" x="151.757473" y="252.910014" style="fill: #ff7763; stroke: #ff7763"/>
     <use xlink:href="#m54db1ffbb8" x="156.916179" y="252.908818" style="fill: #ff7763; stroke: #ff7763"/>
     <use xlink:href="#m54db1ffbb8" x="162.074884" y="252.908818" style="fill: #ff7763; stroke: #ff7763"/>
     <use xlink:href="#m54db1ffbb8" x="167.23359" y="252.908818" style="fill: #ff7763; stroke: #ff7763"/>
     <use xlink:href="#m54db1ffbb8" x="172.392296" y="252.915773" style="fill: #ff7763; stroke: #ff7763"/>
     <use xlink:href="#m54db1ffbb8" x="177.551002" y="252.908818" style="fill: #ff7763; stroke: #ff7763"/>
     <use xlink:href="#m54db1ffbb8" x="182.709707" y="252.908818" style="fill: #ff7763; stroke: #ff7763"/>
     <use xlink:href="#m54db1ffbb8" x="187.868413" y="252.908818" style="fill: #ff7763; stroke: #ff7763"/>
     <use xlink:href="#m54db1ffbb8" x="193.027119" y="252.908818" style="fill: #ff7763; stroke: #ff7763"/>
     <use xlink:href="#m54db1ffbb8" x="198.185824" y="252.908818" style="fill: #ff7763; stroke: #ff7763"/>
     <use xlink:href="#m54db1ffbb8" x="203.34453" y="252.908818" style="fill: #ff7763; stroke: #ff7763"/>
     <use xlink:href="#m54db1ffbb8" x="208.503236" y="252.908818" style="fill: #ff7763; stroke: #ff7763"/>
     <use xlink:href="#m54db1ffbb8" x="213.661941" y="252.908818" style="fill: #ff7763; stroke: #ff7763"/>
     <use xlink:href="#m54db1ffbb8" x="218.820647" y="252.910335" style="fill: #ff7763; stroke: #ff7763"/>
     <use xlink:href="#m54db1ffbb8" x="223.979353" y="252.908818" style="fill: #ff7763; stroke: #ff7763"/>
     <use xlink:href="#m54db1ffbb8" x="229.138059" y="252.916612" style="fill: #ff7763; stroke: #ff7763"/>
     <use xlink:href="#m54db1ffbb8" x="234.296764" y="252.912612" style="fill: #ff7763; stroke: #ff7763"/>
     <use xlink:href="#m54db1ffbb8" x="239.45547" y="252.909686" style="fill: #ff7763; stroke: #ff7763"/>
     <use xlink:href="#m54db1ffbb8" x="244.614176" y="252.908818" style="fill: #ff7763; stroke: #ff7763"/>
     <use xlink:href="#m54db1ffbb8" x="249.772881" y="252.908818" style="fill: #ff7763; stroke: #ff7763"/>
     <use xlink:href="#m54db1ffbb8" x="254.931587" y="252.910935" style="fill: #ff7763; stroke: #ff7763"/>
     <use xlink:href="#m54db1ffbb8" x="260.090293" y="246.842177" style="fill: #ff7763; stroke: #ff7763"/>
     <use xlink:href="#m54db1ffbb8" x="265.248998" y="255.976935" style="fill: #ff7763; stroke: #ff7763"/>
     <use xlink:href="#m54db1ffbb8" x="270.407704" y="257.661761" style="fill: #ff7763; stroke: #ff7763"/>
     <use xlink:href="#m54db1ffbb8" x="275.56641" y="262.839809" style="fill: #ff7763; stroke: #ff7763"/>
     <use xlink:href="#m54db1ffbb8" x="280.725116" y="247.263405" style="fill: #ff7763; stroke: #ff7763"/>
     <use xlink:href="#m54db1ffbb8" x="285.883821" y="253.036368" style="fill: #ff7763; stroke: #ff7763"/>
     <use xlink:href="#m54db1ffbb8" x="291.042527" y="248.214507" style="fill: #ff7763; stroke: #ff7763"/>
     <use xlink:href="#m54db1ffbb8" x="296.201233" y="249.470006" style="fill: #ff7763; stroke: #ff7763"/>
     <use xlink:href="#m54db1ffbb8" x="301.359938" y="246.83279" style="fill: #ff7763; stroke: #ff7763"/>
     <use xlink:href="#m54db1ffbb8" x="306.518644" y="213.518765" style="fill: #ff7763; stroke: #ff7763"/>
     <use xlink:href="#m54db1ffbb8" x="311.67735" y="206.240554" style="fill: #ff7763; stroke: #ff7763"/>
     <use xlink:href="#m54db1ffbb8" x="316.836055" y="209.597079" style="fill: #ff7763; stroke: #ff7763"/>
     <use xlink:href="#m54db1ffbb8" x="321.994761" y="207.572177" style="fill: #ff7763; stroke: #ff7763"/>
     <use xlink:href="#m54db1ffbb8" x="327.153467" y="206.134646" style="fill: #ff7763; stroke: #ff7763"/>
     <use xlink:href="#m54db1ffbb8" x="332.312173" y="210.407474" style="fill: #ff7763; stroke: #ff7763"/>
     <use xlink:href="#m54db1ffbb8" x="337.470878" y="210.469001" style="fill: #ff7763; stroke: #ff7763"/>
     <use xlink:href="#m54db1ffbb8" x="342.629584" y="210.470409" style="fill: #ff7763; stroke: #ff7763"/>
     <use xlink:href="#m54db1ffbb8" x="347.78829" y="210.474626" style="fill: #ff7763; stroke: #ff7763"/>
     <use xlink:href="#m54db1ffbb8" x="352.946995" y="210.474626" style="fill: #ff7763; stroke: #ff7763"/>
     <use xlink:href="#m54db1ffbb8" x="358.105701" y="210.469001" style="fill: #ff7763; stroke: #ff7763"/>
     <use xlink:href="#m54db1ffbb8" x="363.264407" y="213.046476" style="fill: #ff7763; stroke: #ff7763"/>
     <use xlink:href="#m54db1ffbb8" x="368.423112" y="216.437897" style="fill: #ff7763; stroke: #ff7763"/>
     <use xlink:href="#m54db1ffbb8" x="373.581818" y="45.16677" style="fill: #ff7763; stroke: #ff7763"/>
    </g>
   </g>
   <g id="patch_3">
    <path d="M 54 252 
L 54 34.56 
" style="fill: none; stroke: #000000; stroke-width: 0.8; stroke-linejoin: miter; stroke-linecap: square"/>
   </g>
   <g id="patch_4">
    <path d="M 388.8 252 
L 388.8 34.56 
" style="fill: none; stroke: #000000; stroke-width: 0.8; stroke-linejoin: miter; stroke-linecap: square"/>
   </g>
   <g id="patch_5">
    <path d="M 54 252 
L 388.8 252 
" style="fill: none; stroke: #000000; stroke-width: 0.8; stroke-linejoin: miter; stroke-linecap: square"/>
   </g>
   <g id="patch_6">
    <path d="M 54 34.56 
L 388.8 34.56 
" style="fill: none; stroke: #000000; stroke-width: 0.8; stroke-linejoin: miter; stroke-linecap: square"/>
   </g>
   <g id="text_17">
    <!-- R-max optimal policy with m = 40 -->
    <g transform="translate(119.205 28.56)scale(0.12 -0.12)">
     <defs>
      <path id="DejaVuSans-52" d="M 2841 2188 
Q 3044 2119 3236 1894 
Q 3428 1669 3622 1275 
L 4263 0 
L 3584 0 
L 2988 1197 
Q 2756 1666 2539 1819 
Q 2322 1972 1947 1972 
L 1259 1972 
L 1259 0 
L 628 0 
L 628 4666 
L 2053 4666 
Q 2853 4666 3247 4331 
Q 3641 3997 3641 3322 
Q 3641 2881 3436 2590 
Q 3231 2300 2841 2188 
z
M 1259 4147 
L 1259 2491 
L 2053 2491 
Q 2509 2491 2742 2702 
Q 2975 2913 2975 3322 
Q 2975 3731 2742 3939 
Q 2509 4147 2053 4147 
L 1259 4147 
z
" transform="scale(0.015625)"/>
      <path id="DejaVuSans-2d" d="M 313 2009 
L 1997 2009 
L 1997 1497 
L 313 1497 
L 313 2009 
z
" transform="scale(0.015625)"/>
      <path id="DejaVuSans-6d" d="M 3328 2828 
Q 3544 3216 3844 3400 
Q 4144 3584 4550 3584 
Q 5097 3584 5394 3201 
Q 5691 2819 5691 2113 
L 5691 0 
L 5113 0 
L 5113 2094 
Q 5113 2597 4934 2840 
Q 4756 3084 4391 3084 
Q 3944 3084 3684 2787 
Q 3425 2491 3425 1978 
L 3425 0 
L 2847 0 
L 2847 2094 
Q 2847 2600 2669 2842 
Q 2491 3084 2119 3084 
Q 1678 3084 1418 2786 
Q 1159 2488 1159 1978 
L 1159 0 
L 581 0 
L 581 3500 
L 1159 3500 
L 1159 2956 
Q 1356 3278 1631 3431 
Q 1906 3584 2284 3584 
Q 2666 3584 2933 3390 
Q 3200 3197 3328 2828 
z
" transform="scale(0.015625)"/>
      <path id="DejaVuSans-78" d="M 3513 3500 
L 2247 1797 
L 3578 0 
L 2900 0 
L 1881 1375 
L 863 0 
L 184 0 
L 1544 1831 
L 300 3500 
L 978 3500 
L 1906 2253 
L 2834 3500 
L 3513 3500 
z
" transform="scale(0.015625)"/>
      <path id="DejaVuSans-77" d="M 269 3500 
L 844 3500 
L 1563 769 
L 2278 3500 
L 2956 3500 
L 3675 769 
L 4391 3500 
L 4966 3500 
L 4050 0 
L 3372 0 
L 2619 2869 
L 1863 0 
L 1184 0 
L 269 3500 
z
" transform="scale(0.015625)"/>
      <path id="DejaVuSans-68" d="M 3513 2113 
L 3513 0 
L 2938 0 
L 2938 2094 
Q 2938 2591 2744 2837 
Q 2550 3084 2163 3084 
Q 1697 3084 1428 2787 
Q 1159 2491 1159 1978 
L 1159 0 
L 581 0 
L 581 4863 
L 1159 4863 
L 1159 2956 
Q 1366 3272 1645 3428 
Q 1925 3584 2291 3584 
Q 2894 3584 3203 3211 
Q 3513 2838 3513 2113 
z
" transform="scale(0.015625)"/>
      <path id="DejaVuSans-3d" d="M 678 2906 
L 4684 2906 
L 4684 2381 
L 678 2381 
L 678 2906 
z
M 678 1631 
L 4684 1631 
L 4684 1100 
L 678 1100 
L 678 1631 
z
" transform="scale(0.015625)"/>
     </defs>
     <use xlink:href="#DejaVuSans-52"/>
     <use xlink:href="#DejaVuSans-2d" x="65.482422"/>
     <use xlink:href="#DejaVuSans-6d" x="101.566406"/>
     <use xlink:href="#DejaVuSans-61" x="198.978516"/>
     <use xlink:href="#DejaVuSans-78" x="260.257812"/>
     <use xlink:href="#DejaVuSans-20" x="319.4375"/>
     <use xlink:href="#DejaVuSans-6f" x="351.224609"/>
     <use xlink:href="#DejaVuSans-70" x="412.40625"/>
     <use xlink:href="#DejaVuSans-74" x="475.882812"/>
     <use xlink:href="#DejaVuSans-69" x="515.091797"/>
     <use xlink:href="#DejaVuSans-6d" x="542.875"/>
     <use xlink:href="#DejaVuSans-61" x="640.287109"/>
     <use xlink:href="#DejaVuSans-6c" x="701.566406"/>
     <use xlink:href="#DejaVuSans-20" x="729.349609"/>
     <use xlink:href="#DejaVuSans-70" x="761.136719"/>
     <use xlink:href="#DejaVuSans-6f" x="824.613281"/>
     <use xlink:href="#DejaVuSans-6c" x="885.794922"/>
     <use xlink:href="#DejaVuSans-69" x="913.578125"/>
     <use xlink:href="#DejaVuSans-63" x="941.361328"/>
     <use xlink:href="#DejaVuSans-79" x="996.341797"/>
     <use xlink:href="#DejaVuSans-20" x="1055.521484"/>
     <use xlink:href="#DejaVuSans-77" x="1087.308594"/>
     <use xlink:href="#DejaVuSans-69" x="1169.095703"/>
     <use xlink:href="#DejaVuSans-74" x="1196.878906"/>
     <use xlink:href="#DejaVuSans-68" x="1236.087891"/>
     <use xlink:href="#DejaVuSans-20" x="1299.466797"/>
     <use xlink:href="#DejaVuSans-6d" x="1331.253906"/>
     <use xlink:href="#DejaVuSans-20" x="1428.666016"/>
     <use xlink:href="#DejaVuSans-3d" x="1460.453125"/>
     <use xlink:href="#DejaVuSans-20" x="1544.242188"/>
     <use xlink:href="#DejaVuSans-34" x="1576.029297"/>
     <use xlink:href="#DejaVuSans-30" x="1639.652344"/>
    </g>
   </g>
   <g id="legend_1">
    <g id="patch_7">
     <path d="M 61 87.42875 
L 211.9875 87.42875 
Q 213.9875 87.42875 213.9875 85.42875 
L 213.9875 41.56 
Q 213.9875 39.56 211.9875 39.56 
L 61 39.56 
Q 59 39.56 59 41.56 
L 59 85.42875 
Q 59 87.42875 61 87.42875 
z
" style="fill: #ffffff; opacity: 0.8; stroke: #cccccc; stroke-linejoin: miter"/>
    </g>
    <g id="line2d_32">
     <path d="M 63 47.658437 
L 73 47.658437 
L 83 47.658437 
" style="fill: none; stroke: #9d02d7; stroke-width: 1.5; stroke-linecap: square"/>
     <g>
      <use xlink:href="#maf9efed348" x="73" y="47.658437" style="fill: #9d02d7; stroke: #9d02d7; stroke-linejoin: miter"/>
     </g>
    </g>
    <g id="text_18">
     <!-- m_uncertain_states=30 -->
     <g transform="translate(91 51.158437)scale(0.1 -0.1)">
      <defs>
       <path id="DejaVuSans-5f" d="M 3263 -1063 
L 3263 -1509 
L -63 -1509 
L -63 -1063 
L 3263 -1063 
z
" transform="scale(0.015625)"/>
       <path id="DejaVuSans-6e" d="M 3513 2113 
L 3513 0 
L 2938 0 
L 2938 2094 
Q 2938 2591 2744 2837 
Q 2550 3084 2163 3084 
Q 1697 3084 1428 2787 
Q 1159 2491 1159 1978 
L 1159 0 
L 581 0 
L 581 3500 
L 1159 3500 
L 1159 2956 
Q 1366 3272 1645 3428 
Q 1925 3584 2291 3584 
Q 2894 3584 3203 3211 
Q 3513 2838 3513 2113 
z
" transform="scale(0.015625)"/>
      </defs>
      <use xlink:href="#DejaVuSans-6d"/>
      <use xlink:href="#DejaVuSans-5f" x="97.412109"/>
      <use xlink:href="#DejaVuSans-75" x="147.412109"/>
      <use xlink:href="#DejaVuSans-6e" x="210.791016"/>
      <use xlink:href="#DejaVuSans-63" x="274.169922"/>
      <use xlink:href="#DejaVuSans-65" x="329.150391"/>
      <use xlink:href="#DejaVuSans-72" x="390.673828"/>
      <use xlink:href="#DejaVuSans-74" x="431.787109"/>
      <use xlink:href="#DejaVuSans-61" x="470.996094"/>
      <use xlink:href="#DejaVuSans-69" x="532.275391"/>
      <use xlink:href="#DejaVuSans-6e" x="560.058594"/>
      <use xlink:href="#DejaVuSans-5f" x="623.4375"/>
      <use xlink:href="#DejaVuSans-73" x="673.4375"/>
      <use xlink:href="#DejaVuSans-74" x="725.537109"/>
      <use xlink:href="#DejaVuSans-61" x="764.746094"/>
      <use xlink:href="#DejaVuSans-74" x="826.025391"/>
      <use xlink:href="#DejaVuSans-65" x="865.234375"/>
      <use xlink:href="#DejaVuSans-73" x="926.757812"/>
      <use xlink:href="#DejaVuSans-3d" x="978.857422"/>
      <use xlink:href="#DejaVuSans-33" x="1062.646484"/>
      <use xlink:href="#DejaVuSans-30" x="1126.269531"/>
     </g>
    </g>
    <g id="line2d_33">
     <path d="M 63 62.614688 
L 73 62.614688 
L 83 62.614688 
" style="fill: none; stroke: #0000ff; stroke-width: 1.5; stroke-linecap: square"/>
     <g>
      <use xlink:href="#me28774d338" x="73" y="62.614688" style="fill: #0000ff; stroke: #0000ff"/>
     </g>
    </g>
    <g id="text_19">
     <!-- m_uncertain_states=35 -->
     <g transform="translate(91 66.114688)scale(0.1 -0.1)">
      <use xlink:href="#DejaVuSans-6d"/>
      <use xlink:href="#DejaVuSans-5f" x="97.412109"/>
      <use xlink:href="#DejaVuSans-75" x="147.412109"/>
      <use xlink:href="#DejaVuSans-6e" x="210.791016"/>
      <use xlink:href="#DejaVuSans-63" x="274.169922"/>
      <use xlink:href="#DejaVuSans-65" x="329.150391"/>
      <use xlink:href="#DejaVuSans-72" x="390.673828"/>
      <use xlink:href="#DejaVuSans-74" x="431.787109"/>
      <use xlink:href="#DejaVuSans-61" x="470.996094"/>
      <use xlink:href="#DejaVuSans-69" x="532.275391"/>
      <use xlink:href="#DejaVuSans-6e" x="560.058594"/>
      <use xlink:href="#DejaVuSans-5f" x="623.4375"/>
      <use xlink:href="#DejaVuSans-73" x="673.4375"/>
      <use xlink:href="#DejaVuSans-74" x="725.537109"/>
      <use xlink:href="#DejaVuSans-61" x="764.746094"/>
      <use xlink:href="#DejaVuSans-74" x="826.025391"/>
      <use xlink:href="#DejaVuSans-65" x="865.234375"/>
      <use xlink:href="#DejaVuSans-73" x="926.757812"/>
      <use xlink:href="#DejaVuSans-3d" x="978.857422"/>
      <use xlink:href="#DejaVuSans-33" x="1062.646484"/>
      <use xlink:href="#DejaVuSans-35" x="1126.269531"/>
     </g>
    </g>
    <g id="line2d_34">
     <path d="M 63 77.570937 
L 73 77.570937 
L 83 77.570937 
" style="fill: none; stroke: #ff7763; stroke-width: 1.5; stroke-linecap: square"/>
     <g>
      <use xlink:href="#m54db1ffbb8" x="73" y="77.570937" style="fill: #ff7763; stroke: #ff7763"/>
     </g>
    </g>
    <g id="text_20">
     <!-- m_uncertain_states=40 -->
     <g transform="translate(91 81.070937)scale(0.1 -0.1)">
      <use xlink:href="#DejaVuSans-6d"/>
      <use xlink:href="#DejaVuSans-5f" x="97.412109"/>
      <use xlink:href="#DejaVuSans-75" x="147.412109"/>
      <use xlink:href="#DejaVuSans-6e" x="210.791016"/>
      <use xlink:href="#DejaVuSans-63" x="274.169922"/>
      <use xlink:href="#DejaVuSans-65" x="329.150391"/>
      <use xlink:href="#DejaVuSans-72" x="390.673828"/>
      <use xlink:href="#DejaVuSans-74" x="431.787109"/>
      <use xlink:href="#DejaVuSans-61" x="470.996094"/>
      <use xlink:href="#DejaVuSans-69" x="532.275391"/>
      <use xlink:href="#DejaVuSans-6e" x="560.058594"/>
      <use xlink:href="#DejaVuSans-5f" x="623.4375"/>
      <use xlink:href="#DejaVuSans-73" x="673.4375"/>
      <use xlink:href="#DejaVuSans-74" x="725.537109"/>
      <use xlink:href="#DejaVuSans-61" x="764.746094"/>
      <use xlink:href="#DejaVuSans-74" x="826.025391"/>
      <use xlink:href="#DejaVuSans-65" x="865.234375"/>
      <use xlink:href="#DejaVuSans-73" x="926.757812"/>
      <use xlink:href="#DejaVuSans-3d" x="978.857422"/>
      <use xlink:href="#DejaVuSans-34" x="1062.646484"/>
      <use xlink:href="#DejaVuSans-30" x="1126.269531"/>
     </g>
    </g>
   </g>
  </g>
 </g>
 <defs>
  <clipPath id="p3532897f24">
   <rect x="54" y="34.56" width="334.8" height="217.44"/>
  </clipPath>
 </defs>
</svg>
