<?xml version="1.0" encoding="utf-8" standalone="no"?>
<!DOCTYPE svg PUBLIC "-//W3C//DTD SVG 1.1//EN"
  "http://www.w3.org/Graphics/SVG/1.1/DTD/svg11.dtd">
<svg xmlns:xlink="http://www.w3.org/1999/xlink" width="432pt" height="288pt" viewBox="0 0 432 288" xmlns="http://www.w3.org/2000/svg" version="1.1">
 <metadata>
  <rdf:RDF xmlns:dc="http://purl.org/dc/elements/1.1/" xmlns:cc="http://creativecommons.org/ns#" xmlns:rdf="http://www.w3.org/1999/02/22-rdf-syntax-ns#">
   <cc:Work>
    <dc:type rdf:resource="http://purl.org/dc/dcmitype/StillImage"/>
    <dc:date>2023-01-11T15:36:52.424911</dc:date>
    <dc:format>image/svg+xml</dc:format>
    <dc:creator>
     <cc:Agent>
      <dc:title>Matplotlib v3.5.2, https://matplotlib.org/</dc:title>
     </cc:Agent>
    </dc:creator>
   </cc:Work>
  </rdf:RDF>
 </metadata>
 <defs>
  <style type="text/css">*{stroke-linejoin: round; stroke-linecap: butt}</style>
 </defs>
 <g id="figure_1">
  <g id="patch_1">
   <path d="M 0 288 
L 432 288 
L 432 0 
L 0 0 
z
" style="fill: #ffffff"/>
  </g>
  <g id="axes_1">
   <g id="patch_2">
    <path d="M 54 252 
L 388.8 252 
L 388.8 34.56 
L 54 34.56 
z
" style="fill: #ffffff"/>
   </g>
   <g id="PolyCollection_1">
    <defs>
     <path id="m28dec1f5da" d="M 69.218182 -35.274635 
L 69.218182 -35.274635 
L 74.376888 -35.091182 
L 79.535593 -34.76272 
L 84.694299 -30.020126 
L 89.853005 -35.091182 
L 95.01171 -35.062121 
L 100.170416 -17.761616 
L 105.329122 -32.520173 
L 110.487827 -34.162785 
L 115.646533 -35.07081 
L 120.805239 -35.075954 
L 125.963945 -35.072712 
L 131.12265 -35.091182 
L 136.281356 -35.091182 
L 141.440062 -35.091182 
L 146.598767 -35.091182 
L 151.757473 -63.055494 
L 156.916179 -29.501175 
L 162.074884 -33.520695 
L 167.23359 -69.199812 
L 172.392296 -73.368807 
L 177.551002 -79.986046 
L 182.709707 -78.214089 
L 187.868413 -39.760239 
L 193.027119 -78.12634 
L 198.185824 -72.654448 
L 203.34453 -79.65463 
L 208.503236 -78.911968 
L 213.661941 -78.930717 
L 218.820647 -79.989556 
L 223.979353 -79.988627 
L 229.138059 -79.989556 
L 234.296764 -79.998669 
L 239.45547 -61.854467 
L 244.614176 -50.349576 
L 249.772881 -60.155159 
L 254.931587 -61.635226 
L 260.090293 -79.99774 
L 265.248998 -68.856542 
L 270.407704 -69.678028 
L 275.56641 -69.204474 
L 280.725116 -171.587036 
L 285.883821 -230.483673 
L 291.042527 -241.406778 
L 296.201233 -230.483673 
L 301.359938 -241.406778 
L 306.518644 -230.64875 
L 311.67735 -230.483673 
L 316.836055 -241.406778 
L 321.994761 -230.64875 
L 327.153467 -240.401584 
L 332.312173 -229.943086 
L 337.470878 -230.483673 
L 342.629584 -240.955542 
L 347.78829 -241.406778 
L 352.946995 -230.483673 
L 358.105701 -241.406778 
L 363.264407 -240.955542 
L 368.423112 -240.955542 
L 373.581818 -230.483673 
L 373.581818 -230.483673 
L 373.581818 -230.483673 
L 368.423112 -240.955542 
L 363.264407 -240.955542 
L 358.105701 -241.406778 
L 352.946995 -230.483673 
L 347.78829 -241.406778 
L 342.629584 -240.955542 
L 337.470878 -230.483673 
L 332.312173 -229.943086 
L 327.153467 -240.401584 
L 321.994761 -230.64875 
L 316.836055 -241.406778 
L 311.67735 -230.483673 
L 306.518644 -230.64875 
L 301.359938 -241.406778 
L 296.201233 -230.483673 
L 291.042527 -241.406778 
L 285.883821 -230.483673 
L 280.725116 -171.587036 
L 275.56641 -69.204474 
L 270.407704 -69.678028 
L 265.248998 -68.856542 
L 260.090293 -79.99774 
L 254.931587 -61.635226 
L 249.772881 -60.155159 
L 244.614176 -50.349576 
L 239.45547 -61.854467 
L 234.296764 -79.998669 
L 229.138059 -79.989556 
L 223.979353 -79.988627 
L 218.820647 -79.989556 
L 213.661941 -78.930717 
L 208.503236 -78.911968 
L 203.34453 -79.65463 
L 198.185824 -72.654448 
L 193.027119 -78.12634 
L 187.868413 -39.760239 
L 182.709707 -78.214089 
L 177.551002 -79.986046 
L 172.392296 -73.368807 
L 167.23359 -69.199812 
L 162.074884 -33.520695 
L 156.916179 -29.501175 
L 151.757473 -63.055494 
L 146.598767 -35.091182 
L 141.440062 -35.091182 
L 136.281356 -35.091182 
L 131.12265 -35.091182 
L 125.963945 -35.072712 
L 120.805239 -35.075954 
L 115.646533 -35.07081 
L 110.487827 -34.162785 
L 105.329122 -32.520173 
L 100.170416 -17.761616 
L 95.01171 -35.062121 
L 89.853005 -35.091182 
L 84.694299 -30.020126 
L 79.535593 -34.76272 
L 74.376888 -35.091182 
L 69.218182 -35.274635 
z
" style="stroke: #9d02d7; stroke-opacity: 0.2"/>
    </defs>
    <g clip-path="url(#pd56dbc53ba)">
     <use xlink:href="#m28dec1f5da" x="0" y="288" style="fill: #9d02d7; fill-opacity: 0.2; stroke: #9d02d7; stroke-opacity: 0.2"/>
    </g>
   </g>
   <g id="PolyCollection_2">
    <defs>
     <path id="m156f3380eb" d="M 69.218182 -33.870596 
L 69.218182 -33.870596 
L 74.376888 -35.068264 
L 79.535593 -34.195751 
L 84.694299 -35.091182 
L 89.853005 -35.091182 
L 95.01171 -31.417524 
L 100.170416 -30.466581 
L 105.329122 -34.977891 
L 110.487827 -34.646229 
L 115.646533 -32.191882 
L 120.805239 -33.470161 
L 125.963945 -35.085186 
L 131.12265 -34.889645 
L 136.281356 -33.906504 
L 141.440062 -35.092748 
L 146.598767 -34.564998 
L 151.757473 -35.091182 
L 156.916179 -46.888129 
L 162.074884 -57.462178 
L 167.23359 -46.943992 
L 172.392296 -34.818771 
L 177.551002 -98.716346 
L 182.709707 -47.93703 
L 187.868413 -34.64676 
L 193.027119 -132.51123 
L 198.185824 -32.594228 
L 203.34453 -83.31224 
L 208.503236 -112.413344 
L 213.661941 -164.153775 
L 218.820647 -29.468806 
L 223.979353 -65.897927 
L 229.138059 -69.106905 
L 234.296764 -72.036254 
L 239.45547 -35.069874 
L 244.614176 -119.039067 
L 249.772881 -112.084895 
L 254.931587 -40.453263 
L 260.090293 -120.03959 
L 265.248998 -172.189498 
L 270.407704 -137.332462 
L 275.56641 -108.194115 
L 280.725116 -72.057197 
L 285.883821 -73.112699 
L 291.042527 -159.753487 
L 296.201233 -108.726514 
L 301.359938 -116.380253 
L 306.518644 -32.000494 
L 311.67735 -120.658409 
L 316.836055 -63.281588 
L 321.994761 -134.137464 
L 327.153467 -98.682401 
L 332.312173 -115.179239 
L 337.470878 -29.377243 
L 342.629584 -159.993778 
L 347.78829 -32.917814 
L 352.946995 -172.169215 
L 358.105701 -175.599877 
L 363.264407 -177.442415 
L 368.423112 -176.876746 
L 373.581818 -180.002296 
L 373.581818 -180.002296 
L 373.581818 -180.002296 
L 368.423112 -176.876746 
L 363.264407 -177.442415 
L 358.105701 -175.599877 
L 352.946995 -172.169215 
L 347.78829 -32.917814 
L 342.629584 -159.993778 
L 337.470878 -29.377243 
L 332.312173 -115.179239 
L 327.153467 -98.682401 
L 321.994761 -134.137464 
L 316.836055 -63.281588 
L 311.67735 -120.658409 
L 306.518644 -32.000494 
L 301.359938 -116.380253 
L 296.201233 -108.726514 
L 291.042527 -159.753487 
L 285.883821 -73.112699 
L 280.725116 -72.057197 
L 275.56641 -108.194115 
L 270.407704 -137.332462 
L 265.248998 -172.189498 
L 260.090293 -120.03959 
L 254.931587 -40.453263 
L 249.772881 -112.084895 
L 244.614176 -119.039067 
L 239.45547 -35.069874 
L 234.296764 -72.036254 
L 229.138059 -69.106905 
L 223.979353 -65.897927 
L 218.820647 -29.468806 
L 213.661941 -164.153775 
L 208.503236 -112.413344 
L 203.34453 -83.31224 
L 198.185824 -32.594228 
L 193.027119 -132.51123 
L 187.868413 -34.64676 
L 182.709707 -47.93703 
L 177.551002 -98.716346 
L 172.392296 -34.818771 
L 167.23359 -46.943992 
L 162.074884 -57.462178 
L 156.916179 -46.888129 
L 151.757473 -35.091182 
L 146.598767 -34.564998 
L 141.440062 -35.092748 
L 136.281356 -33.906504 
L 131.12265 -34.889645 
L 125.963945 -35.085186 
L 120.805239 -33.470161 
L 115.646533 -32.191882 
L 110.487827 -34.646229 
L 105.329122 -34.977891 
L 100.170416 -30.466581 
L 95.01171 -31.417524 
L 89.853005 -35.091182 
L 84.694299 -35.091182 
L 79.535593 -34.195751 
L 74.376888 -35.068264 
L 69.218182 -33.870596 
z
" style="stroke: #0000ff; stroke-opacity: 0.2"/>
    </defs>
    <g clip-path="url(#pd56dbc53ba)">
     <use xlink:href="#m156f3380eb" x="0" y="288" style="fill: #0000ff; fill-opacity: 0.2; stroke: #0000ff; stroke-opacity: 0.2"/>
    </g>
   </g>
   <g id="PolyCollection_3">
    <defs>
     <path id="me071520e60" d="M 69.218182 -33.527232 
L 69.218182 -33.527232 
L 74.376888 -52.05303 
L 79.535593 -35.066655 
L 84.694299 -34.901789 
L 89.853005 -35.018744 
L 95.01171 -35.091182 
L 100.170416 -32.298662 
L 105.329122 -37.443024 
L 110.487827 -23.700547 
L 115.646533 -27.429981 
L 120.805239 -33.772423 
L 125.963945 -33.884675 
L 131.12265 -35.091182 
L 136.281356 -33.483251 
L 141.440062 -34.649967 
L 146.598767 -32.285873 
L 151.757473 -35.056445 
L 156.916179 -35.091182 
L 162.074884 -31.222429 
L 167.23359 -33.268147 
L 172.392296 -35.091182 
L 177.551002 -34.200572 
L 182.709707 -34.868942 
L 187.868413 -26.280478 
L 193.027119 -35.074882 
L 198.185824 -35.084202 
L 203.34453 -35.073318 
L 208.503236 -35.010616 
L 213.661941 -34.906248 
L 218.820647 -33.790534 
L 223.979353 -34.991531 
L 229.138059 -31.344031 
L 234.296764 -35.091182 
L 239.45547 -35.08316 
L 244.614176 -35.091182 
L 249.772881 -34.811428 
L 254.931587 -35.091182 
L 260.090293 -33.348552 
L 265.248998 -31.960675 
L 270.407704 -37.743674 
L 275.56641 -35.878901 
L 280.725116 -35.332586 
L 285.883821 -38.81654 
L 291.042527 -31.598278 
L 296.201233 -72.72315 
L 301.359938 -37.272532 
L 306.518644 -33.714132 
L 311.67735 -60.830909 
L 316.836055 -31.519822 
L 321.994761 -34.658996 
L 327.153467 -47.126933 
L 332.312173 -39.203176 
L 337.470878 -61.185197 
L 342.629584 -31.713622 
L 347.78829 -35.15716 
L 352.946995 -35.336311 
L 358.105701 -32.763764 
L 363.264407 -36.846882 
L 368.423112 -79.046304 
L 373.581818 -31.637358 
L 373.581818 -31.637358 
L 373.581818 -31.637358 
L 368.423112 -79.046304 
L 363.264407 -36.846882 
L 358.105701 -32.763764 
L 352.946995 -35.336311 
L 347.78829 -35.15716 
L 342.629584 -31.713622 
L 337.470878 -61.185197 
L 332.312173 -39.203176 
L 327.153467 -47.126933 
L 321.994761 -34.658996 
L 316.836055 -31.519822 
L 311.67735 -60.830909 
L 306.518644 -33.714132 
L 301.359938 -37.272532 
L 296.201233 -72.72315 
L 291.042527 -31.598278 
L 285.883821 -38.81654 
L 280.725116 -35.332586 
L 275.56641 -35.878901 
L 270.407704 -37.743674 
L 265.248998 -31.960675 
L 260.090293 -33.348552 
L 254.931587 -35.091182 
L 249.772881 -34.811428 
L 244.614176 -35.091182 
L 239.45547 -35.08316 
L 234.296764 -35.091182 
L 229.138059 -31.344031 
L 223.979353 -34.991531 
L 218.820647 -33.790534 
L 213.661941 -34.906248 
L 208.503236 -35.010616 
L 203.34453 -35.073318 
L 198.185824 -35.084202 
L 193.027119 -35.074882 
L 187.868413 -26.280478 
L 182.709707 -34.868942 
L 177.551002 -34.200572 
L 172.392296 -35.091182 
L 167.23359 -33.268147 
L 162.074884 -31.222429 
L 156.916179 -35.091182 
L 151.757473 -35.056445 
L 146.598767 -32.285873 
L 141.440062 -34.649967 
L 136.281356 -33.483251 
L 131.12265 -35.091182 
L 125.963945 -33.884675 
L 120.805239 -33.772423 
L 115.646533 -27.429981 
L 110.487827 -23.700547 
L 105.329122 -37.443024 
L 100.170416 -32.298662 
L 95.01171 -35.091182 
L 89.853005 -35.018744 
L 84.694299 -34.901789 
L 79.535593 -35.066655 
L 74.376888 -52.05303 
L 69.218182 -33.527232 
z
" style="stroke: #ff7763; stroke-opacity: 0.2"/>
    </defs>
    <g clip-path="url(#pd56dbc53ba)">
     <use xlink:href="#me071520e60" x="0" y="288" style="fill: #ff7763; fill-opacity: 0.2; stroke: #ff7763; stroke-opacity: 0.2"/>
    </g>
   </g>
   <g id="PolyCollection_4">
    <defs>
     <path id="m3f6c503c3f" d="M 69.218182 -34.055096 
L 69.218182 -34.055096 
L 74.376888 -34.640535 
L 79.535593 -32.567763 
L 84.694299 -33.323216 
L 89.853005 -34.984083 
L 95.01171 -34.61896 
L 100.170416 -34.920771 
L 105.329122 -35.083107 
L 110.487827 -35.091607 
L 115.646533 -44.424423 
L 120.805239 -34.617145 
L 125.963945 -32.461382 
L 131.12265 -35.091182 
L 136.281356 -35.091182 
L 141.440062 -35.091182 
L 146.598767 -35.081103 
L 151.757473 -34.437665 
L 156.916179 -35.091182 
L 162.074884 -35.091182 
L 167.23359 -34.538698 
L 172.392296 -34.517957 
L 177.551002 -30.409607 
L 182.709707 -34.698856 
L 187.868413 -33.087776 
L 193.027119 -31.860551 
L 198.185824 -26.842854 
L 203.34453 -27.52956 
L 208.503236 -35.042171 
L 213.661941 -30.039065 
L 218.820647 -23.653293 
L 223.979353 -31.731695 
L 229.138059 -25.592542 
L 234.296764 -24.765327 
L 239.45547 -32.328772 
L 244.614176 -22.013398 
L 249.772881 -32.824578 
L 254.931587 -35.081895 
L 260.090293 -34.882349 
L 265.248998 -34.552685 
L 270.407704 -33.651349 
L 275.56641 -34.858851 
L 280.725116 -35.091182 
L 285.883821 -35.091182 
L 291.042527 -31.511318 
L 296.201233 -35.0867 
L 301.359938 -34.915054 
L 306.518644 -35.081546 
L 311.67735 -22.686199 
L 316.836055 -38.940196 
L 321.994761 -34.722855 
L 327.153467 -32.298932 
L 332.312173 -34.365851 
L 337.470878 -30.983523 
L 342.629584 -34.698484 
L 347.78829 -28.985808 
L 352.946995 -34.309243 
L 358.105701 -40.868528 
L 363.264407 -35.091182 
L 368.423112 -33.001704 
L 373.581818 -35.091182 
L 373.581818 -35.091182 
L 373.581818 -35.091182 
L 368.423112 -33.001704 
L 363.264407 -35.091182 
L 358.105701 -40.868528 
L 352.946995 -34.309243 
L 347.78829 -28.985808 
L 342.629584 -34.698484 
L 337.470878 -30.983523 
L 332.312173 -34.365851 
L 327.153467 -32.298932 
L 321.994761 -34.722855 
L 316.836055 -38.940196 
L 311.67735 -22.686199 
L 306.518644 -35.081546 
L 301.359938 -34.915054 
L 296.201233 -35.0867 
L 291.042527 -31.511318 
L 285.883821 -35.091182 
L 280.725116 -35.091182 
L 275.56641 -34.858851 
L 270.407704 -33.651349 
L 265.248998 -34.552685 
L 260.090293 -34.882349 
L 254.931587 -35.081895 
L 249.772881 -32.824578 
L 244.614176 -22.013398 
L 239.45547 -32.328772 
L 234.296764 -24.765327 
L 229.138059 -25.592542 
L 223.979353 -31.731695 
L 218.820647 -23.653293 
L 213.661941 -30.039065 
L 208.503236 -35.042171 
L 203.34453 -27.52956 
L 198.185824 -26.842854 
L 193.027119 -31.860551 
L 187.868413 -33.087776 
L 182.709707 -34.698856 
L 177.551002 -30.409607 
L 172.392296 -34.517957 
L 167.23359 -34.538698 
L 162.074884 -35.091182 
L 156.916179 -35.091182 
L 151.757473 -34.437665 
L 146.598767 -35.081103 
L 141.440062 -35.091182 
L 136.281356 -35.091182 
L 131.12265 -35.091182 
L 125.963945 -32.461382 
L 120.805239 -34.617145 
L 115.646533 -44.424423 
L 110.487827 -35.091607 
L 105.329122 -35.083107 
L 100.170416 -34.920771 
L 95.01171 -34.61896 
L 89.853005 -34.984083 
L 84.694299 -33.323216 
L 79.535593 -32.567763 
L 74.376888 -34.640535 
L 69.218182 -34.055096 
z
" style="stroke: #ffac1e; stroke-opacity: 0.2"/>
    </defs>
    <g clip-path="url(#pd56dbc53ba)">
     <use xlink:href="#m3f6c503c3f" x="0" y="288" style="fill: #ffac1e; fill-opacity: 0.2; stroke: #ffac1e; stroke-opacity: 0.2"/>
    </g>
   </g>
   <g id="PolyCollection_5">
    <defs>
     <path id="mb2ce5e4930" d="M 69.218182 -31.131747 
L 69.218182 -31.131747 
L 74.376888 -34.315468 
L 79.535593 -35.057783 
L 84.694299 -34.70045 
L 89.853005 -30.376904 
L 95.01171 -35.091182 
L 100.170416 -31.935522 
L 105.329122 -35.036831 
L 110.487827 -34.860585 
L 115.646533 -23.328869 
L 120.805239 -35.091182 
L 125.963945 -35.091182 
L 131.12265 -35.060356 
L 136.281356 -31.68411 
L 141.440062 -33.712257 
L 146.598767 -35.091182 
L 151.757473 -32.002022 
L 156.916179 -23.393282 
L 162.074884 -35.071339 
L 167.23359 -35.065713 
L 172.392296 -35.091182 
L 177.551002 -35.091182 
L 182.709707 -35.091182 
L 187.868413 -34.915774 
L 193.027119 -29.809437 
L 198.185824 -34.870087 
L 203.34453 -35.139479 
L 208.503236 -34.940449 
L 213.661941 -34.231679 
L 218.820647 -35.091182 
L 223.979353 -35.091182 
L 229.138059 -35.091182 
L 234.296764 -35.091182 
L 239.45547 -35.091182 
L 244.614176 -33.223557 
L 249.772881 -35.091182 
L 254.931587 -28.550635 
L 260.090293 -33.533605 
L 265.248998 -34.705754 
L 270.407704 -31.806315 
L 275.56641 -35.091182 
L 280.725116 -25.52418 
L 285.883821 -35.091182 
L 291.042527 -34.596163 
L 296.201233 -25.391736 
L 301.359938 -34.624264 
L 306.518644 -35.091182 
L 311.67735 -33.338976 
L 316.836055 -35.091182 
L 321.994761 -36.131314 
L 327.153467 -34.913155 
L 332.312173 -35.073368 
L 337.470878 -35.074053 
L 342.629584 -33.937418 
L 347.78829 -34.966276 
L 352.946995 -35.044874 
L 358.105701 -35.070825 
L 363.264407 -34.230498 
L 368.423112 -35.091182 
L 373.581818 -32.884803 
L 373.581818 -32.884803 
L 373.581818 -32.884803 
L 368.423112 -35.091182 
L 363.264407 -34.230498 
L 358.105701 -35.070825 
L 352.946995 -35.044874 
L 347.78829 -34.966276 
L 342.629584 -33.937418 
L 337.470878 -35.074053 
L 332.312173 -35.073368 
L 327.153467 -34.913155 
L 321.994761 -36.131314 
L 316.836055 -35.091182 
L 311.67735 -33.338976 
L 306.518644 -35.091182 
L 301.359938 -34.624264 
L 296.201233 -25.391736 
L 291.042527 -34.596163 
L 285.883821 -35.091182 
L 280.725116 -25.52418 
L 275.56641 -35.091182 
L 270.407704 -31.806315 
L 265.248998 -34.705754 
L 260.090293 -33.533605 
L 254.931587 -28.550635 
L 249.772881 -35.091182 
L 244.614176 -33.223557 
L 239.45547 -35.091182 
L 234.296764 -35.091182 
L 229.138059 -35.091182 
L 223.979353 -35.091182 
L 218.820647 -35.091182 
L 213.661941 -34.231679 
L 208.503236 -34.940449 
L 203.34453 -35.139479 
L 198.185824 -34.870087 
L 193.027119 -29.809437 
L 187.868413 -34.915774 
L 182.709707 -35.091182 
L 177.551002 -35.091182 
L 172.392296 -35.091182 
L 167.23359 -35.065713 
L 162.074884 -35.071339 
L 156.916179 -23.393282 
L 151.757473 -32.002022 
L 146.598767 -35.091182 
L 141.440062 -33.712257 
L 136.281356 -31.68411 
L 131.12265 -35.060356 
L 125.963945 -35.091182 
L 120.805239 -35.091182 
L 115.646533 -23.328869 
L 110.487827 -34.860585 
L 105.329122 -35.036831 
L 100.170416 -31.935522 
L 95.01171 -35.091182 
L 89.853005 -30.376904 
L 84.694299 -34.70045 
L 79.535593 -35.057783 
L 74.376888 -34.315468 
L 69.218182 -31.131747 
z
" style="stroke: #009435; stroke-opacity: 0.2"/>
    </defs>
    <g clip-path="url(#pd56dbc53ba)">
     <use xlink:href="#mb2ce5e4930" x="0" y="288" style="fill: #009435; fill-opacity: 0.2; stroke: #009435; stroke-opacity: 0.2"/>
    </g>
   </g>
   <g id="matplotlib.axis_1">
    <g id="xtick_1">
     <g id="line2d_1">
      <path d="M 69.218182 252 
L 69.218182 34.56 
" clip-path="url(#pd56dbc53ba)" style="fill: none; stroke-dasharray: 2.96,1.28; stroke-dashoffset: 0; stroke: #b0b0b0; stroke-width: 0.8"/>
     </g>
     <g id="line2d_2">
      <defs>
       <path id="mfd21bd79a9" d="M 0 0 
L 0 3.5 
" style="stroke: #000000; stroke-width: 0.8"/>
      </defs>
      <g>
       <use xlink:href="#mfd21bd79a9" x="69.218182" y="252" style="stroke: #000000; stroke-width: 0.8"/>
      </g>
     </g>
     <g id="text_1">
      <!-- 0 -->
      <g transform="translate(66.036932 266.598437)scale(0.1 -0.1)">
       <defs>
        <path id="DejaVuSans-30" d="M 2034 4250 
Q 1547 4250 1301 3770 
Q 1056 3291 1056 2328 
Q 1056 1369 1301 889 
Q 1547 409 2034 409 
Q 2525 409 2770 889 
Q 3016 1369 3016 2328 
Q 3016 3291 2770 3770 
Q 2525 4250 2034 4250 
z
M 2034 4750 
Q 2819 4750 3233 4129 
Q 3647 3509 3647 2328 
Q 3647 1150 3233 529 
Q 2819 -91 2034 -91 
Q 1250 -91 836 529 
Q 422 1150 422 2328 
Q 422 3509 836 4129 
Q 1250 4750 2034 4750 
z
" transform="scale(0.015625)"/>
       </defs>
       <use xlink:href="#DejaVuSans-30"/>
      </g>
     </g>
    </g>
    <g id="xtick_2">
     <g id="line2d_3">
      <path d="M 120.805239 252 
L 120.805239 34.56 
" clip-path="url(#pd56dbc53ba)" style="fill: none; stroke-dasharray: 2.96,1.28; stroke-dashoffset: 0; stroke: #b0b0b0; stroke-width: 0.8"/>
     </g>
     <g id="line2d_4">
      <g>
       <use xlink:href="#mfd21bd79a9" x="120.805239" y="252" style="stroke: #000000; stroke-width: 0.8"/>
      </g>
     </g>
     <g id="text_2">
      <!-- 500 -->
      <g transform="translate(111.261489 266.598437)scale(0.1 -0.1)">
       <defs>
        <path id="DejaVuSans-35" d="M 691 4666 
L 3169 4666 
L 3169 4134 
L 1269 4134 
L 1269 2991 
Q 1406 3038 1543 3061 
Q 1681 3084 1819 3084 
Q 2600 3084 3056 2656 
Q 3513 2228 3513 1497 
Q 3513 744 3044 326 
Q 2575 -91 1722 -91 
Q 1428 -91 1123 -41 
Q 819 9 494 109 
L 494 744 
Q 775 591 1075 516 
Q 1375 441 1709 441 
Q 2250 441 2565 725 
Q 2881 1009 2881 1497 
Q 2881 1984 2565 2268 
Q 2250 2553 1709 2553 
Q 1456 2553 1204 2497 
Q 953 2441 691 2322 
L 691 4666 
z
" transform="scale(0.015625)"/>
       </defs>
       <use xlink:href="#DejaVuSans-35"/>
       <use xlink:href="#DejaVuSans-30" x="63.623047"/>
       <use xlink:href="#DejaVuSans-30" x="127.246094"/>
      </g>
     </g>
    </g>
    <g id="xtick_3">
     <g id="line2d_5">
      <path d="M 172.392296 252 
L 172.392296 34.56 
" clip-path="url(#pd56dbc53ba)" style="fill: none; stroke-dasharray: 2.96,1.28; stroke-dashoffset: 0; stroke: #b0b0b0; stroke-width: 0.8"/>
     </g>
     <g id="line2d_6">
      <g>
       <use xlink:href="#mfd21bd79a9" x="172.392296" y="252" style="stroke: #000000; stroke-width: 0.8"/>
      </g>
     </g>
     <g id="text_3">
      <!-- 1000 -->
      <g transform="translate(159.667296 266.598437)scale(0.1 -0.1)">
       <defs>
        <path id="DejaVuSans-31" d="M 794 531 
L 1825 531 
L 1825 4091 
L 703 3866 
L 703 4441 
L 1819 4666 
L 2450 4666 
L 2450 531 
L 3481 531 
L 3481 0 
L 794 0 
L 794 531 
z
" transform="scale(0.015625)"/>
       </defs>
       <use xlink:href="#DejaVuSans-31"/>
       <use xlink:href="#DejaVuSans-30" x="63.623047"/>
       <use xlink:href="#DejaVuSans-30" x="127.246094"/>
       <use xlink:href="#DejaVuSans-30" x="190.869141"/>
      </g>
     </g>
    </g>
    <g id="xtick_4">
     <g id="line2d_7">
      <path d="M 223.979353 252 
L 223.979353 34.56 
" clip-path="url(#pd56dbc53ba)" style="fill: none; stroke-dasharray: 2.96,1.28; stroke-dashoffset: 0; stroke: #b0b0b0; stroke-width: 0.8"/>
     </g>
     <g id="line2d_8">
      <g>
       <use xlink:href="#mfd21bd79a9" x="223.979353" y="252" style="stroke: #000000; stroke-width: 0.8"/>
      </g>
     </g>
     <g id="text_4">
      <!-- 1500 -->
      <g transform="translate(211.254353 266.598437)scale(0.1 -0.1)">
       <use xlink:href="#DejaVuSans-31"/>
       <use xlink:href="#DejaVuSans-35" x="63.623047"/>
       <use xlink:href="#DejaVuSans-30" x="127.246094"/>
       <use xlink:href="#DejaVuSans-30" x="190.869141"/>
      </g>
     </g>
    </g>
    <g id="xtick_5">
     <g id="line2d_9">
      <path d="M 275.56641 252 
L 275.56641 34.56 
" clip-path="url(#pd56dbc53ba)" style="fill: none; stroke-dasharray: 2.96,1.28; stroke-dashoffset: 0; stroke: #b0b0b0; stroke-width: 0.8"/>
     </g>
     <g id="line2d_10">
      <g>
       <use xlink:href="#mfd21bd79a9" x="275.56641" y="252" style="stroke: #000000; stroke-width: 0.8"/>
      </g>
     </g>
     <g id="text_5">
      <!-- 2000 -->
      <g transform="translate(262.84141 266.598437)scale(0.1 -0.1)">
       <defs>
        <path id="DejaVuSans-32" d="M 1228 531 
L 3431 531 
L 3431 0 
L 469 0 
L 469 531 
Q 828 903 1448 1529 
Q 2069 2156 2228 2338 
Q 2531 2678 2651 2914 
Q 2772 3150 2772 3378 
Q 2772 3750 2511 3984 
Q 2250 4219 1831 4219 
Q 1534 4219 1204 4116 
Q 875 4013 500 3803 
L 500 4441 
Q 881 4594 1212 4672 
Q 1544 4750 1819 4750 
Q 2544 4750 2975 4387 
Q 3406 4025 3406 3419 
Q 3406 3131 3298 2873 
Q 3191 2616 2906 2266 
Q 2828 2175 2409 1742 
Q 1991 1309 1228 531 
z
" transform="scale(0.015625)"/>
       </defs>
       <use xlink:href="#DejaVuSans-32"/>
       <use xlink:href="#DejaVuSans-30" x="63.623047"/>
       <use xlink:href="#DejaVuSans-30" x="127.246094"/>
       <use xlink:href="#DejaVuSans-30" x="190.869141"/>
      </g>
     </g>
    </g>
    <g id="xtick_6">
     <g id="line2d_11">
      <path d="M 327.153467 252 
L 327.153467 34.56 
" clip-path="url(#pd56dbc53ba)" style="fill: none; stroke-dasharray: 2.96,1.28; stroke-dashoffset: 0; stroke: #b0b0b0; stroke-width: 0.8"/>
     </g>
     <g id="line2d_12">
      <g>
       <use xlink:href="#mfd21bd79a9" x="327.153467" y="252" style="stroke: #000000; stroke-width: 0.8"/>
      </g>
     </g>
     <g id="text_6">
      <!-- 2500 -->
      <g transform="translate(314.428467 266.598437)scale(0.1 -0.1)">
       <use xlink:href="#DejaVuSans-32"/>
       <use xlink:href="#DejaVuSans-35" x="63.623047"/>
       <use xlink:href="#DejaVuSans-30" x="127.246094"/>
       <use xlink:href="#DejaVuSans-30" x="190.869141"/>
      </g>
     </g>
    </g>
    <g id="xtick_7">
     <g id="line2d_13">
      <path d="M 378.740524 252 
L 378.740524 34.56 
" clip-path="url(#pd56dbc53ba)" style="fill: none; stroke-dasharray: 2.96,1.28; stroke-dashoffset: 0; stroke: #b0b0b0; stroke-width: 0.8"/>
     </g>
     <g id="line2d_14">
      <g>
       <use xlink:href="#mfd21bd79a9" x="378.740524" y="252" style="stroke: #000000; stroke-width: 0.8"/>
      </g>
     </g>
     <g id="text_7">
      <!-- 3000 -->
      <g transform="translate(366.015524 266.598437)scale(0.1 -0.1)">
       <defs>
        <path id="DejaVuSans-33" d="M 2597 2516 
Q 3050 2419 3304 2112 
Q 3559 1806 3559 1356 
Q 3559 666 3084 287 
Q 2609 -91 1734 -91 
Q 1441 -91 1130 -33 
Q 819 25 488 141 
L 488 750 
Q 750 597 1062 519 
Q 1375 441 1716 441 
Q 2309 441 2620 675 
Q 2931 909 2931 1356 
Q 2931 1769 2642 2001 
Q 2353 2234 1838 2234 
L 1294 2234 
L 1294 2753 
L 1863 2753 
Q 2328 2753 2575 2939 
Q 2822 3125 2822 3475 
Q 2822 3834 2567 4026 
Q 2313 4219 1838 4219 
Q 1578 4219 1281 4162 
Q 984 4106 628 3988 
L 628 4550 
Q 988 4650 1302 4700 
Q 1616 4750 1894 4750 
Q 2613 4750 3031 4423 
Q 3450 4097 3450 3541 
Q 3450 3153 3228 2886 
Q 3006 2619 2597 2516 
z
" transform="scale(0.015625)"/>
       </defs>
       <use xlink:href="#DejaVuSans-33"/>
       <use xlink:href="#DejaVuSans-30" x="63.623047"/>
       <use xlink:href="#DejaVuSans-30" x="127.246094"/>
       <use xlink:href="#DejaVuSans-30" x="190.869141"/>
      </g>
     </g>
    </g>
    <g id="text_8">
     <!-- Steps -->
     <g transform="translate(207.410156 280.276563)scale(0.1 -0.1)">
      <defs>
       <path id="DejaVuSans-53" d="M 3425 4513 
L 3425 3897 
Q 3066 4069 2747 4153 
Q 2428 4238 2131 4238 
Q 1616 4238 1336 4038 
Q 1056 3838 1056 3469 
Q 1056 3159 1242 3001 
Q 1428 2844 1947 2747 
L 2328 2669 
Q 3034 2534 3370 2195 
Q 3706 1856 3706 1288 
Q 3706 609 3251 259 
Q 2797 -91 1919 -91 
Q 1588 -91 1214 -16 
Q 841 59 441 206 
L 441 856 
Q 825 641 1194 531 
Q 1563 422 1919 422 
Q 2459 422 2753 634 
Q 3047 847 3047 1241 
Q 3047 1584 2836 1778 
Q 2625 1972 2144 2069 
L 1759 2144 
Q 1053 2284 737 2584 
Q 422 2884 422 3419 
Q 422 4038 858 4394 
Q 1294 4750 2059 4750 
Q 2388 4750 2728 4690 
Q 3069 4631 3425 4513 
z
" transform="scale(0.015625)"/>
       <path id="DejaVuSans-74" d="M 1172 4494 
L 1172 3500 
L 2356 3500 
L 2356 3053 
L 1172 3053 
L 1172 1153 
Q 1172 725 1289 603 
Q 1406 481 1766 481 
L 2356 481 
L 2356 0 
L 1766 0 
Q 1100 0 847 248 
Q 594 497 594 1153 
L 594 3053 
L 172 3053 
L 172 3500 
L 594 3500 
L 594 4494 
L 1172 4494 
z
" transform="scale(0.015625)"/>
       <path id="DejaVuSans-65" d="M 3597 1894 
L 3597 1613 
L 953 1613 
Q 991 1019 1311 708 
Q 1631 397 2203 397 
Q 2534 397 2845 478 
Q 3156 559 3463 722 
L 3463 178 
Q 3153 47 2828 -22 
Q 2503 -91 2169 -91 
Q 1331 -91 842 396 
Q 353 884 353 1716 
Q 353 2575 817 3079 
Q 1281 3584 2069 3584 
Q 2775 3584 3186 3129 
Q 3597 2675 3597 1894 
z
M 3022 2063 
Q 3016 2534 2758 2815 
Q 2500 3097 2075 3097 
Q 1594 3097 1305 2825 
Q 1016 2553 972 2059 
L 3022 2063 
z
" transform="scale(0.015625)"/>
       <path id="DejaVuSans-70" d="M 1159 525 
L 1159 -1331 
L 581 -1331 
L 581 3500 
L 1159 3500 
L 1159 2969 
Q 1341 3281 1617 3432 
Q 1894 3584 2278 3584 
Q 2916 3584 3314 3078 
Q 3713 2572 3713 1747 
Q 3713 922 3314 415 
Q 2916 -91 2278 -91 
Q 1894 -91 1617 61 
Q 1341 213 1159 525 
z
M 3116 1747 
Q 3116 2381 2855 2742 
Q 2594 3103 2138 3103 
Q 1681 3103 1420 2742 
Q 1159 2381 1159 1747 
Q 1159 1113 1420 752 
Q 1681 391 2138 391 
Q 2594 391 2855 752 
Q 3116 1113 3116 1747 
z
" transform="scale(0.015625)"/>
       <path id="DejaVuSans-73" d="M 2834 3397 
L 2834 2853 
Q 2591 2978 2328 3040 
Q 2066 3103 1784 3103 
Q 1356 3103 1142 2972 
Q 928 2841 928 2578 
Q 928 2378 1081 2264 
Q 1234 2150 1697 2047 
L 1894 2003 
Q 2506 1872 2764 1633 
Q 3022 1394 3022 966 
Q 3022 478 2636 193 
Q 2250 -91 1575 -91 
Q 1294 -91 989 -36 
Q 684 19 347 128 
L 347 722 
Q 666 556 975 473 
Q 1284 391 1588 391 
Q 1994 391 2212 530 
Q 2431 669 2431 922 
Q 2431 1156 2273 1281 
Q 2116 1406 1581 1522 
L 1381 1569 
Q 847 1681 609 1914 
Q 372 2147 372 2553 
Q 372 3047 722 3315 
Q 1072 3584 1716 3584 
Q 2034 3584 2315 3537 
Q 2597 3491 2834 3397 
z
" transform="scale(0.015625)"/>
      </defs>
      <use xlink:href="#DejaVuSans-53"/>
      <use xlink:href="#DejaVuSans-74" x="63.476562"/>
      <use xlink:href="#DejaVuSans-65" x="102.685547"/>
      <use xlink:href="#DejaVuSans-70" x="164.208984"/>
      <use xlink:href="#DejaVuSans-73" x="227.685547"/>
     </g>
    </g>
   </g>
   <g id="matplotlib.axis_2">
    <g id="ytick_1">
     <g id="line2d_15">
      <path d="M 54 243.636923 
L 388.8 243.636923 
" clip-path="url(#pd56dbc53ba)" style="fill: none; stroke-dasharray: 2.96,1.28; stroke-dashoffset: 0; stroke: #b0b0b0; stroke-width: 0.8"/>
     </g>
     <g id="line2d_16">
      <defs>
       <path id="me047fee6d7" d="M 0 0 
L -3.5 0 
" style="stroke: #000000; stroke-width: 0.8"/>
      </defs>
      <g>
       <use xlink:href="#me047fee6d7" x="54" y="243.636923" style="stroke: #000000; stroke-width: 0.8"/>
      </g>
     </g>
     <g id="text_9">
      <!-- −12 -->
      <g transform="translate(25.895312 247.436142)scale(0.1 -0.1)">
       <defs>
        <path id="DejaVuSans-2212" d="M 678 2272 
L 4684 2272 
L 4684 1741 
L 678 1741 
L 678 2272 
z
" transform="scale(0.015625)"/>
       </defs>
       <use xlink:href="#DejaVuSans-2212"/>
       <use xlink:href="#DejaVuSans-31" x="83.789062"/>
       <use xlink:href="#DejaVuSans-32" x="147.412109"/>
      </g>
     </g>
    </g>
    <g id="ytick_2">
     <g id="line2d_17">
      <path d="M 54 210.184615 
L 388.8 210.184615 
" clip-path="url(#pd56dbc53ba)" style="fill: none; stroke-dasharray: 2.96,1.28; stroke-dashoffset: 0; stroke: #b0b0b0; stroke-width: 0.8"/>
     </g>
     <g id="line2d_18">
      <g>
       <use xlink:href="#me047fee6d7" x="54" y="210.184615" style="stroke: #000000; stroke-width: 0.8"/>
      </g>
     </g>
     <g id="text_10">
      <!-- −10 -->
      <g transform="translate(25.895312 213.983834)scale(0.1 -0.1)">
       <use xlink:href="#DejaVuSans-2212"/>
       <use xlink:href="#DejaVuSans-31" x="83.789062"/>
       <use xlink:href="#DejaVuSans-30" x="147.412109"/>
      </g>
     </g>
    </g>
    <g id="ytick_3">
     <g id="line2d_19">
      <path d="M 54 176.732308 
L 388.8 176.732308 
" clip-path="url(#pd56dbc53ba)" style="fill: none; stroke-dasharray: 2.96,1.28; stroke-dashoffset: 0; stroke: #b0b0b0; stroke-width: 0.8"/>
     </g>
     <g id="line2d_20">
      <g>
       <use xlink:href="#me047fee6d7" x="54" y="176.732308" style="stroke: #000000; stroke-width: 0.8"/>
      </g>
     </g>
     <g id="text_11">
      <!-- −8 -->
      <g transform="translate(32.257812 180.531526)scale(0.1 -0.1)">
       <defs>
        <path id="DejaVuSans-38" d="M 2034 2216 
Q 1584 2216 1326 1975 
Q 1069 1734 1069 1313 
Q 1069 891 1326 650 
Q 1584 409 2034 409 
Q 2484 409 2743 651 
Q 3003 894 3003 1313 
Q 3003 1734 2745 1975 
Q 2488 2216 2034 2216 
z
M 1403 2484 
Q 997 2584 770 2862 
Q 544 3141 544 3541 
Q 544 4100 942 4425 
Q 1341 4750 2034 4750 
Q 2731 4750 3128 4425 
Q 3525 4100 3525 3541 
Q 3525 3141 3298 2862 
Q 3072 2584 2669 2484 
Q 3125 2378 3379 2068 
Q 3634 1759 3634 1313 
Q 3634 634 3220 271 
Q 2806 -91 2034 -91 
Q 1263 -91 848 271 
Q 434 634 434 1313 
Q 434 1759 690 2068 
Q 947 2378 1403 2484 
z
M 1172 3481 
Q 1172 3119 1398 2916 
Q 1625 2713 2034 2713 
Q 2441 2713 2670 2916 
Q 2900 3119 2900 3481 
Q 2900 3844 2670 4047 
Q 2441 4250 2034 4250 
Q 1625 4250 1398 4047 
Q 1172 3844 1172 3481 
z
" transform="scale(0.015625)"/>
       </defs>
       <use xlink:href="#DejaVuSans-2212"/>
       <use xlink:href="#DejaVuSans-38" x="83.789062"/>
      </g>
     </g>
    </g>
    <g id="ytick_4">
     <g id="line2d_21">
      <path d="M 54 143.28 
L 388.8 143.28 
" clip-path="url(#pd56dbc53ba)" style="fill: none; stroke-dasharray: 2.96,1.28; stroke-dashoffset: 0; stroke: #b0b0b0; stroke-width: 0.8"/>
     </g>
     <g id="line2d_22">
      <g>
       <use xlink:href="#me047fee6d7" x="54" y="143.28" style="stroke: #000000; stroke-width: 0.8"/>
      </g>
     </g>
     <g id="text_12">
      <!-- −6 -->
      <g transform="translate(32.257812 147.079219)scale(0.1 -0.1)">
       <defs>
        <path id="DejaVuSans-36" d="M 2113 2584 
Q 1688 2584 1439 2293 
Q 1191 2003 1191 1497 
Q 1191 994 1439 701 
Q 1688 409 2113 409 
Q 2538 409 2786 701 
Q 3034 994 3034 1497 
Q 3034 2003 2786 2293 
Q 2538 2584 2113 2584 
z
M 3366 4563 
L 3366 3988 
Q 3128 4100 2886 4159 
Q 2644 4219 2406 4219 
Q 1781 4219 1451 3797 
Q 1122 3375 1075 2522 
Q 1259 2794 1537 2939 
Q 1816 3084 2150 3084 
Q 2853 3084 3261 2657 
Q 3669 2231 3669 1497 
Q 3669 778 3244 343 
Q 2819 -91 2113 -91 
Q 1303 -91 875 529 
Q 447 1150 447 2328 
Q 447 3434 972 4092 
Q 1497 4750 2381 4750 
Q 2619 4750 2861 4703 
Q 3103 4656 3366 4563 
z
" transform="scale(0.015625)"/>
       </defs>
       <use xlink:href="#DejaVuSans-2212"/>
       <use xlink:href="#DejaVuSans-36" x="83.789062"/>
      </g>
     </g>
    </g>
    <g id="ytick_5">
     <g id="line2d_23">
      <path d="M 54 109.827692 
L 388.8 109.827692 
" clip-path="url(#pd56dbc53ba)" style="fill: none; stroke-dasharray: 2.96,1.28; stroke-dashoffset: 0; stroke: #b0b0b0; stroke-width: 0.8"/>
     </g>
     <g id="line2d_24">
      <g>
       <use xlink:href="#me047fee6d7" x="54" y="109.827692" style="stroke: #000000; stroke-width: 0.8"/>
      </g>
     </g>
     <g id="text_13">
      <!-- −4 -->
      <g transform="translate(32.257812 113.626911)scale(0.1 -0.1)">
       <defs>
        <path id="DejaVuSans-34" d="M 2419 4116 
L 825 1625 
L 2419 1625 
L 2419 4116 
z
M 2253 4666 
L 3047 4666 
L 3047 1625 
L 3713 1625 
L 3713 1100 
L 3047 1100 
L 3047 0 
L 2419 0 
L 2419 1100 
L 313 1100 
L 313 1709 
L 2253 4666 
z
" transform="scale(0.015625)"/>
       </defs>
       <use xlink:href="#DejaVuSans-2212"/>
       <use xlink:href="#DejaVuSans-34" x="83.789062"/>
      </g>
     </g>
    </g>
    <g id="ytick_6">
     <g id="line2d_25">
      <path d="M 54 76.375385 
L 388.8 76.375385 
" clip-path="url(#pd56dbc53ba)" style="fill: none; stroke-dasharray: 2.96,1.28; stroke-dashoffset: 0; stroke: #b0b0b0; stroke-width: 0.8"/>
     </g>
     <g id="line2d_26">
      <g>
       <use xlink:href="#me047fee6d7" x="54" y="76.375385" style="stroke: #000000; stroke-width: 0.8"/>
      </g>
     </g>
     <g id="text_14">
      <!-- −2 -->
      <g transform="translate(32.257812 80.174603)scale(0.1 -0.1)">
       <use xlink:href="#DejaVuSans-2212"/>
       <use xlink:href="#DejaVuSans-32" x="83.789062"/>
      </g>
     </g>
    </g>
    <g id="ytick_7">
     <g id="line2d_27">
      <path d="M 54 42.923077 
L 388.8 42.923077 
" clip-path="url(#pd56dbc53ba)" style="fill: none; stroke-dasharray: 2.96,1.28; stroke-dashoffset: 0; stroke: #b0b0b0; stroke-width: 0.8"/>
     </g>
     <g id="line2d_28">
      <g>
       <use xlink:href="#me047fee6d7" x="54" y="42.923077" style="stroke: #000000; stroke-width: 0.8"/>
      </g>
     </g>
     <g id="text_15">
      <!-- 0 -->
      <g transform="translate(40.6375 46.722296)scale(0.1 -0.1)">
       <use xlink:href="#DejaVuSans-30"/>
      </g>
     </g>
    </g>
    <g id="text_16">
     <!-- Policy value error -->
     <g transform="translate(19.815625 186.597969)rotate(-90)scale(0.1 -0.1)">
      <defs>
       <path id="DejaVuSans-50" d="M 1259 4147 
L 1259 2394 
L 2053 2394 
Q 2494 2394 2734 2622 
Q 2975 2850 2975 3272 
Q 2975 3691 2734 3919 
Q 2494 4147 2053 4147 
L 1259 4147 
z
M 628 4666 
L 2053 4666 
Q 2838 4666 3239 4311 
Q 3641 3956 3641 3272 
Q 3641 2581 3239 2228 
Q 2838 1875 2053 1875 
L 1259 1875 
L 1259 0 
L 628 0 
L 628 4666 
z
" transform="scale(0.015625)"/>
       <path id="DejaVuSans-6f" d="M 1959 3097 
Q 1497 3097 1228 2736 
Q 959 2375 959 1747 
Q 959 1119 1226 758 
Q 1494 397 1959 397 
Q 2419 397 2687 759 
Q 2956 1122 2956 1747 
Q 2956 2369 2687 2733 
Q 2419 3097 1959 3097 
z
M 1959 3584 
Q 2709 3584 3137 3096 
Q 3566 2609 3566 1747 
Q 3566 888 3137 398 
Q 2709 -91 1959 -91 
Q 1206 -91 779 398 
Q 353 888 353 1747 
Q 353 2609 779 3096 
Q 1206 3584 1959 3584 
z
" transform="scale(0.015625)"/>
       <path id="DejaVuSans-6c" d="M 603 4863 
L 1178 4863 
L 1178 0 
L 603 0 
L 603 4863 
z
" transform="scale(0.015625)"/>
       <path id="DejaVuSans-69" d="M 603 3500 
L 1178 3500 
L 1178 0 
L 603 0 
L 603 3500 
z
M 603 4863 
L 1178 4863 
L 1178 4134 
L 603 4134 
L 603 4863 
z
" transform="scale(0.015625)"/>
       <path id="DejaVuSans-63" d="M 3122 3366 
L 3122 2828 
Q 2878 2963 2633 3030 
Q 2388 3097 2138 3097 
Q 1578 3097 1268 2742 
Q 959 2388 959 1747 
Q 959 1106 1268 751 
Q 1578 397 2138 397 
Q 2388 397 2633 464 
Q 2878 531 3122 666 
L 3122 134 
Q 2881 22 2623 -34 
Q 2366 -91 2075 -91 
Q 1284 -91 818 406 
Q 353 903 353 1747 
Q 353 2603 823 3093 
Q 1294 3584 2113 3584 
Q 2378 3584 2631 3529 
Q 2884 3475 3122 3366 
z
" transform="scale(0.015625)"/>
       <path id="DejaVuSans-79" d="M 2059 -325 
Q 1816 -950 1584 -1140 
Q 1353 -1331 966 -1331 
L 506 -1331 
L 506 -850 
L 844 -850 
Q 1081 -850 1212 -737 
Q 1344 -625 1503 -206 
L 1606 56 
L 191 3500 
L 800 3500 
L 1894 763 
L 2988 3500 
L 3597 3500 
L 2059 -325 
z
" transform="scale(0.015625)"/>
       <path id="DejaVuSans-20" transform="scale(0.015625)"/>
       <path id="DejaVuSans-76" d="M 191 3500 
L 800 3500 
L 1894 563 
L 2988 3500 
L 3597 3500 
L 2284 0 
L 1503 0 
L 191 3500 
z
" transform="scale(0.015625)"/>
       <path id="DejaVuSans-61" d="M 2194 1759 
Q 1497 1759 1228 1600 
Q 959 1441 959 1056 
Q 959 750 1161 570 
Q 1363 391 1709 391 
Q 2188 391 2477 730 
Q 2766 1069 2766 1631 
L 2766 1759 
L 2194 1759 
z
M 3341 1997 
L 3341 0 
L 2766 0 
L 2766 531 
Q 2569 213 2275 61 
Q 1981 -91 1556 -91 
Q 1019 -91 701 211 
Q 384 513 384 1019 
Q 384 1609 779 1909 
Q 1175 2209 1959 2209 
L 2766 2209 
L 2766 2266 
Q 2766 2663 2505 2880 
Q 2244 3097 1772 3097 
Q 1472 3097 1187 3025 
Q 903 2953 641 2809 
L 641 3341 
Q 956 3463 1253 3523 
Q 1550 3584 1831 3584 
Q 2591 3584 2966 3190 
Q 3341 2797 3341 1997 
z
" transform="scale(0.015625)"/>
       <path id="DejaVuSans-75" d="M 544 1381 
L 544 3500 
L 1119 3500 
L 1119 1403 
Q 1119 906 1312 657 
Q 1506 409 1894 409 
Q 2359 409 2629 706 
Q 2900 1003 2900 1516 
L 2900 3500 
L 3475 3500 
L 3475 0 
L 2900 0 
L 2900 538 
Q 2691 219 2414 64 
Q 2138 -91 1772 -91 
Q 1169 -91 856 284 
Q 544 659 544 1381 
z
M 1991 3584 
L 1991 3584 
z
" transform="scale(0.015625)"/>
       <path id="DejaVuSans-72" d="M 2631 2963 
Q 2534 3019 2420 3045 
Q 2306 3072 2169 3072 
Q 1681 3072 1420 2755 
Q 1159 2438 1159 1844 
L 1159 0 
L 581 0 
L 581 3500 
L 1159 3500 
L 1159 2956 
Q 1341 3275 1631 3429 
Q 1922 3584 2338 3584 
Q 2397 3584 2469 3576 
Q 2541 3569 2628 3553 
L 2631 2963 
z
" transform="scale(0.015625)"/>
      </defs>
      <use xlink:href="#DejaVuSans-50"/>
      <use xlink:href="#DejaVuSans-6f" x="56.677734"/>
      <use xlink:href="#DejaVuSans-6c" x="117.859375"/>
      <use xlink:href="#DejaVuSans-69" x="145.642578"/>
      <use xlink:href="#DejaVuSans-63" x="173.425781"/>
      <use xlink:href="#DejaVuSans-79" x="228.40625"/>
      <use xlink:href="#DejaVuSans-20" x="287.585938"/>
      <use xlink:href="#DejaVuSans-76" x="319.373047"/>
      <use xlink:href="#DejaVuSans-61" x="378.552734"/>
      <use xlink:href="#DejaVuSans-6c" x="439.832031"/>
      <use xlink:href="#DejaVuSans-75" x="467.615234"/>
      <use xlink:href="#DejaVuSans-65" x="530.994141"/>
      <use xlink:href="#DejaVuSans-20" x="592.517578"/>
      <use xlink:href="#DejaVuSans-65" x="624.304688"/>
      <use xlink:href="#DejaVuSans-72" x="685.828125"/>
      <use xlink:href="#DejaVuSans-72" x="725.191406"/>
      <use xlink:href="#DejaVuSans-6f" x="764.054688"/>
      <use xlink:href="#DejaVuSans-72" x="825.236328"/>
     </g>
    </g>
   </g>
   <g id="line2d_29">
    <path d="M 69.218182 252.725365 
L 74.376888 252.908818 
L 79.535593 253.23728 
L 84.694299 257.979874 
L 89.853005 252.908818 
L 95.01171 252.937879 
L 100.170416 270.238384 
L 105.329122 255.479827 
L 110.487827 253.837215 
L 115.646533 252.92919 
L 120.805239 252.924046 
L 125.963945 252.927288 
L 131.12265 252.908818 
L 136.281356 252.908818 
L 141.440062 252.908818 
L 146.598767 252.908818 
L 151.757473 224.944506 
L 156.916179 258.498825 
L 162.074884 254.479305 
L 167.23359 218.800188 
L 172.392296 214.631193 
L 177.551002 208.013954 
L 182.709707 209.785911 
L 187.868413 248.239761 
L 193.027119 209.87366 
L 198.185824 215.345552 
L 203.34453 208.34537 
L 208.503236 209.088032 
L 213.661941 209.069283 
L 218.820647 208.010444 
L 223.979353 208.011373 
L 229.138059 208.010444 
L 234.296764 208.001331 
L 239.45547 226.145533 
L 244.614176 237.650424 
L 249.772881 227.844841 
L 254.931587 226.364774 
L 260.090293 208.00226 
L 265.248998 219.143458 
L 270.407704 218.321972 
L 275.56641 218.795526 
L 280.725116 116.412964 
L 285.883821 57.516327 
L 291.042527 46.593222 
L 296.201233 57.516327 
L 301.359938 46.593222 
L 306.518644 57.35125 
L 311.67735 57.516327 
L 316.836055 46.593222 
L 321.994761 57.35125 
L 327.153467 47.598416 
L 332.312173 58.056914 
L 337.470878 57.516327 
L 342.629584 47.044458 
L 347.78829 46.593222 
L 352.946995 57.516327 
L 358.105701 46.593222 
L 363.264407 47.044458 
L 368.423112 47.044458 
L 373.581818 57.516327 
" clip-path="url(#pd56dbc53ba)" style="fill: none; stroke: #9d02d7; stroke-width: 1.5; stroke-linecap: square"/>
    <defs>
     <path id="me74df744f0" d="M 0 -2 
L -2 2 
L 2 2 
z
" style="stroke: #9d02d7; stroke-linejoin: miter"/>
    </defs>
    <g clip-path="url(#pd56dbc53ba)">
     <use xlink:href="#me74df744f0" x="69.218182" y="252.725365" style="fill: #9d02d7; stroke: #9d02d7; stroke-linejoin: miter"/>
     <use xlink:href="#me74df744f0" x="74.376888" y="252.908818" style="fill: #9d02d7; stroke: #9d02d7; stroke-linejoin: miter"/>
     <use xlink:href="#me74df744f0" x="79.535593" y="253.23728" style="fill: #9d02d7; stroke: #9d02d7; stroke-linejoin: miter"/>
     <use xlink:href="#me74df744f0" x="84.694299" y="257.979874" style="fill: #9d02d7; stroke: #9d02d7; stroke-linejoin: miter"/>
     <use xlink:href="#me74df744f0" x="89.853005" y="252.908818" style="fill: #9d02d7; stroke: #9d02d7; stroke-linejoin: miter"/>
     <use xlink:href="#me74df744f0" x="95.01171" y="252.937879" style="fill: #9d02d7; stroke: #9d02d7; stroke-linejoin: miter"/>
     <use xlink:href="#me74df744f0" x="100.170416" y="270.238384" style="fill: #9d02d7; stroke: #9d02d7; stroke-linejoin: miter"/>
     <use xlink:href="#me74df744f0" x="105.329122" y="255.479827" style="fill: #9d02d7; stroke: #9d02d7; stroke-linejoin: miter"/>
     <use xlink:href="#me74df744f0" x="110.487827" y="253.837215" style="fill: #9d02d7; stroke: #9d02d7; stroke-linejoin: miter"/>
     <use xlink:href="#me74df744f0" x="115.646533" y="252.92919" style="fill: #9d02d7; stroke: #9d02d7; stroke-linejoin: miter"/>
     <use xlink:href="#me74df744f0" x="120.805239" y="252.924046" style="fill: #9d02d7; stroke: #9d02d7; stroke-linejoin: miter"/>
     <use xlink:href="#me74df744f0" x="125.963945" y="252.927288" style="fill: #9d02d7; stroke: #9d02d7; stroke-linejoin: miter"/>
     <use xlink:href="#me74df744f0" x="131.12265" y="252.908818" style="fill: #9d02d7; stroke: #9d02d7; stroke-linejoin: miter"/>
     <use xlink:href="#me74df744f0" x="136.281356" y="252.908818" style="fill: #9d02d7; stroke: #9d02d7; stroke-linejoin: miter"/>
     <use xlink:href="#me74df744f0" x="141.440062" y="252.908818" style="fill: #9d02d7; stroke: #9d02d7; stroke-linejoin: miter"/>
     <use xlink:href="#me74df744f0" x="146.598767" y="252.908818" style="fill: #9d02d7; stroke: #9d02d7; stroke-linejoin: miter"/>
     <use xlink:href="#me74df744f0" x="151.757473" y="224.944506" style="fill: #9d02d7; stroke: #9d02d7; stroke-linejoin: miter"/>
     <use xlink:href="#me74df744f0" x="156.916179" y="258.498825" style="fill: #9d02d7; stroke: #9d02d7; stroke-linejoin: miter"/>
     <use xlink:href="#me74df744f0" x="162.074884" y="254.479305" style="fill: #9d02d7; stroke: #9d02d7; stroke-linejoin: miter"/>
     <use xlink:href="#me74df744f0" x="167.23359" y="218.800188" style="fill: #9d02d7; stroke: #9d02d7; stroke-linejoin: miter"/>
     <use xlink:href="#me74df744f0" x="172.392296" y="214.631193" style="fill: #9d02d7; stroke: #9d02d7; stroke-linejoin: miter"/>
     <use xlink:href="#me74df744f0" x="177.551002" y="208.013954" style="fill: #9d02d7; stroke: #9d02d7; stroke-linejoin: miter"/>
     <use xlink:href="#me74df744f0" x="182.709707" y="209.785911" style="fill: #9d02d7; stroke: #9d02d7; stroke-linejoin: miter"/>
     <use xlink:href="#me74df744f0" x="187.868413" y="248.239761" style="fill: #9d02d7; stroke: #9d02d7; stroke-linejoin: miter"/>
     <use xlink:href="#me74df744f0" x="193.027119" y="209.87366" style="fill: #9d02d7; stroke: #9d02d7; stroke-linejoin: miter"/>
     <use xlink:href="#me74df744f0" x="198.185824" y="215.345552" style="fill: #9d02d7; stroke: #9d02d7; stroke-linejoin: miter"/>
     <use xlink:href="#me74df744f0" x="203.34453" y="208.34537" style="fill: #9d02d7; stroke: #9d02d7; stroke-linejoin: miter"/>
     <use xlink:href="#me74df744f0" x="208.503236" y="209.088032" style="fill: #9d02d7; stroke: #9d02d7; stroke-linejoin: miter"/>
     <use xlink:href="#me74df744f0" x="213.661941" y="209.069283" style="fill: #9d02d7; stroke: #9d02d7; stroke-linejoin: miter"/>
     <use xlink:href="#me74df744f0" x="218.820647" y="208.010444" style="fill: #9d02d7; stroke: #9d02d7; stroke-linejoin: miter"/>
     <use xlink:href="#me74df744f0" x="223.979353" y="208.011373" style="fill: #9d02d7; stroke: #9d02d7; stroke-linejoin: miter"/>
     <use xlink:href="#me74df744f0" x="229.138059" y="208.010444" style="fill: #9d02d7; stroke: #9d02d7; stroke-linejoin: miter"/>
     <use xlink:href="#me74df744f0" x="234.296764" y="208.001331" style="fill: #9d02d7; stroke: #9d02d7; stroke-linejoin: miter"/>
     <use xlink:href="#me74df744f0" x="239.45547" y="226.145533" style="fill: #9d02d7; stroke: #9d02d7; stroke-linejoin: miter"/>
     <use xlink:href="#me74df744f0" x="244.614176" y="237.650424" style="fill: #9d02d7; stroke: #9d02d7; stroke-linejoin: miter"/>
     <use xlink:href="#me74df744f0" x="249.772881" y="227.844841" style="fill: #9d02d7; stroke: #9d02d7; stroke-linejoin: miter"/>
     <use xlink:href="#me74df744f0" x="254.931587" y="226.364774" style="fill: #9d02d7; stroke: #9d02d7; stroke-linejoin: miter"/>
     <use xlink:href="#me74df744f0" x="260.090293" y="208.00226" style="fill: #9d02d7; stroke: #9d02d7; stroke-linejoin: miter"/>
     <use xlink:href="#me74df744f0" x="265.248998" y="219.143458" style="fill: #9d02d7; stroke: #9d02d7; stroke-linejoin: miter"/>
     <use xlink:href="#me74df744f0" x="270.407704" y="218.321972" style="fill: #9d02d7; stroke: #9d02d7; stroke-linejoin: miter"/>
     <use xlink:href="#me74df744f0" x="275.56641" y="218.795526" style="fill: #9d02d7; stroke: #9d02d7; stroke-linejoin: miter"/>
     <use xlink:href="#me74df744f0" x="280.725116" y="116.412964" style="fill: #9d02d7; stroke: #9d02d7; stroke-linejoin: miter"/>
     <use xlink:href="#me74df744f0" x="285.883821" y="57.516327" style="fill: #9d02d7; stroke: #9d02d7; stroke-linejoin: miter"/>
     <use xlink:href="#me74df744f0" x="291.042527" y="46.593222" style="fill: #9d02d7; stroke: #9d02d7; stroke-linejoin: miter"/>
     <use xlink:href="#me74df744f0" x="296.201233" y="57.516327" style="fill: #9d02d7; stroke: #9d02d7; stroke-linejoin: miter"/>
     <use xlink:href="#me74df744f0" x="301.359938" y="46.593222" style="fill: #9d02d7; stroke: #9d02d7; stroke-linejoin: miter"/>
     <use xlink:href="#me74df744f0" x="306.518644" y="57.35125" style="fill: #9d02d7; stroke: #9d02d7; stroke-linejoin: miter"/>
     <use xlink:href="#me74df744f0" x="311.67735" y="57.516327" style="fill: #9d02d7; stroke: #9d02d7; stroke-linejoin: miter"/>
     <use xlink:href="#me74df744f0" x="316.836055" y="46.593222" style="fill: #9d02d7; stroke: #9d02d7; stroke-linejoin: miter"/>
     <use xlink:href="#me74df744f0" x="321.994761" y="57.35125" style="fill: #9d02d7; stroke: #9d02d7; stroke-linejoin: miter"/>
     <use xlink:href="#me74df744f0" x="327.153467" y="47.598416" style="fill: #9d02d7; stroke: #9d02d7; stroke-linejoin: miter"/>
     <use xlink:href="#me74df744f0" x="332.312173" y="58.056914" style="fill: #9d02d7; stroke: #9d02d7; stroke-linejoin: miter"/>
     <use xlink:href="#me74df744f0" x="337.470878" y="57.516327" style="fill: #9d02d7; stroke: #9d02d7; stroke-linejoin: miter"/>
     <use xlink:href="#me74df744f0" x="342.629584" y="47.044458" style="fill: #9d02d7; stroke: #9d02d7; stroke-linejoin: miter"/>
     <use xlink:href="#me74df744f0" x="347.78829" y="46.593222" style="fill: #9d02d7; stroke: #9d02d7; stroke-linejoin: miter"/>
     <use xlink:href="#me74df744f0" x="352.946995" y="57.516327" style="fill: #9d02d7; stroke: #9d02d7; stroke-linejoin: miter"/>
     <use xlink:href="#me74df744f0" x="358.105701" y="46.593222" style="fill: #9d02d7; stroke: #9d02d7; stroke-linejoin: miter"/>
     <use xlink:href="#me74df744f0" x="363.264407" y="47.044458" style="fill: #9d02d7; stroke: #9d02d7; stroke-linejoin: miter"/>
     <use xlink:href="#me74df744f0" x="368.423112" y="47.044458" style="fill: #9d02d7; stroke: #9d02d7; stroke-linejoin: miter"/>
     <use xlink:href="#me74df744f0" x="373.581818" y="57.516327" style="fill: #9d02d7; stroke: #9d02d7; stroke-linejoin: miter"/>
    </g>
   </g>
   <g id="line2d_30">
    <path d="M 69.218182 254.129404 
L 74.376888 252.931736 
L 79.535593 253.804249 
L 84.694299 252.908818 
L 89.853005 252.908818 
L 95.01171 256.582476 
L 100.170416 257.533419 
L 105.329122 253.022109 
L 110.487827 253.353771 
L 115.646533 255.808118 
L 120.805239 254.529839 
L 125.963945 252.914814 
L 131.12265 253.110355 
L 136.281356 254.093496 
L 141.440062 252.907252 
L 146.598767 253.435002 
L 151.757473 252.908818 
L 156.916179 241.111871 
L 162.074884 230.537822 
L 167.23359 241.056008 
L 172.392296 253.181229 
L 177.551002 189.283654 
L 182.709707 240.06297 
L 187.868413 253.35324 
L 193.027119 155.48877 
L 198.185824 255.405772 
L 203.34453 204.68776 
L 208.503236 175.586656 
L 213.661941 123.846225 
L 218.820647 258.531194 
L 223.979353 222.102073 
L 229.138059 218.893095 
L 234.296764 215.963746 
L 239.45547 252.930126 
L 244.614176 168.960933 
L 249.772881 175.915105 
L 254.931587 247.546737 
L 260.090293 167.96041 
L 265.248998 115.810502 
L 270.407704 150.667538 
L 275.56641 179.805885 
L 280.725116 215.942803 
L 285.883821 214.887301 
L 291.042527 128.246513 
L 296.201233 179.273486 
L 301.359938 171.619747 
L 306.518644 255.999506 
L 311.67735 167.341591 
L 316.836055 224.718412 
L 321.994761 153.862536 
L 327.153467 189.317599 
L 332.312173 172.820761 
L 337.470878 258.622757 
L 342.629584 128.006222 
L 347.78829 255.082186 
L 352.946995 115.830785 
L 358.105701 112.400123 
L 363.264407 110.557585 
L 368.423112 111.123254 
L 373.581818 107.997704 
" clip-path="url(#pd56dbc53ba)" style="fill: none; stroke: #0000ff; stroke-width: 1.5; stroke-linecap: square"/>
    <defs>
     <path id="md47900ac92" d="M 0 2 
C 0.530406 2 1.03916 1.789267 1.414214 1.414214 
C 1.789267 1.03916 2 0.530406 2 0 
C 2 -0.530406 1.789267 -1.03916 1.414214 -1.414214 
C 1.03916 -1.789267 0.530406 -2 0 -2 
C -0.530406 -2 -1.03916 -1.789267 -1.414214 -1.414214 
C -1.789267 -1.03916 -2 -0.530406 -2 0 
C -2 0.530406 -1.789267 1.03916 -1.414214 1.414214 
C -1.03916 1.789267 -0.530406 2 0 2 
z
" style="stroke: #0000ff"/>
    </defs>
    <g clip-path="url(#pd56dbc53ba)">
     <use xlink:href="#md47900ac92" x="69.218182" y="254.129404" style="fill: #0000ff; stroke: #0000ff"/>
     <use xlink:href="#md47900ac92" x="74.376888" y="252.931736" style="fill: #0000ff; stroke: #0000ff"/>
     <use xlink:href="#md47900ac92" x="79.535593" y="253.804249" style="fill: #0000ff; stroke: #0000ff"/>
     <use xlink:href="#md47900ac92" x="84.694299" y="252.908818" style="fill: #0000ff; stroke: #0000ff"/>
     <use xlink:href="#md47900ac92" x="89.853005" y="252.908818" style="fill: #0000ff; stroke: #0000ff"/>
     <use xlink:href="#md47900ac92" x="95.01171" y="256.582476" style="fill: #0000ff; stroke: #0000ff"/>
     <use xlink:href="#md47900ac92" x="100.170416" y="257.533419" style="fill: #0000ff; stroke: #0000ff"/>
     <use xlink:href="#md47900ac92" x="105.329122" y="253.022109" style="fill: #0000ff; stroke: #0000ff"/>
     <use xlink:href="#md47900ac92" x="110.487827" y="253.353771" style="fill: #0000ff; stroke: #0000ff"/>
     <use xlink:href="#md47900ac92" x="115.646533" y="255.808118" style="fill: #0000ff; stroke: #0000ff"/>
     <use xlink:href="#md47900ac92" x="120.805239" y="254.529839" style="fill: #0000ff; stroke: #0000ff"/>
     <use xlink:href="#md47900ac92" x="125.963945" y="252.914814" style="fill: #0000ff; stroke: #0000ff"/>
     <use xlink:href="#md47900ac92" x="131.12265" y="253.110355" style="fill: #0000ff; stroke: #0000ff"/>
     <use xlink:href="#md47900ac92" x="136.281356" y="254.093496" style="fill: #0000ff; stroke: #0000ff"/>
     <use xlink:href="#md47900ac92" x="141.440062" y="252.907252" style="fill: #0000ff; stroke: #0000ff"/>
     <use xlink:href="#md47900ac92" x="146.598767" y="253.435002" style="fill: #0000ff; stroke: #0000ff"/>
     <use xlink:href="#md47900ac92" x="151.757473" y="252.908818" style="fill: #0000ff; stroke: #0000ff"/>
     <use xlink:href="#md47900ac92" x="156.916179" y="241.111871" style="fill: #0000ff; stroke: #0000ff"/>
     <use xlink:href="#md47900ac92" x="162.074884" y="230.537822" style="fill: #0000ff; stroke: #0000ff"/>
     <use xlink:href="#md47900ac92" x="167.23359" y="241.056008" style="fill: #0000ff; stroke: #0000ff"/>
     <use xlink:href="#md47900ac92" x="172.392296" y="253.181229" style="fill: #0000ff; stroke: #0000ff"/>
     <use xlink:href="#md47900ac92" x="177.551002" y="189.283654" style="fill: #0000ff; stroke: #0000ff"/>
     <use xlink:href="#md47900ac92" x="182.709707" y="240.06297" style="fill: #0000ff; stroke: #0000ff"/>
     <use xlink:href="#md47900ac92" x="187.868413" y="253.35324" style="fill: #0000ff; stroke: #0000ff"/>
     <use xlink:href="#md47900ac92" x="193.027119" y="155.48877" style="fill: #0000ff; stroke: #0000ff"/>
     <use xlink:href="#md47900ac92" x="198.185824" y="255.405772" style="fill: #0000ff; stroke: #0000ff"/>
     <use xlink:href="#md47900ac92" x="203.34453" y="204.68776" style="fill: #0000ff; stroke: #0000ff"/>
     <use xlink:href="#md47900ac92" x="208.503236" y="175.586656" style="fill: #0000ff; stroke: #0000ff"/>
     <use xlink:href="#md47900ac92" x="213.661941" y="123.846225" style="fill: #0000ff; stroke: #0000ff"/>
     <use xlink:href="#md47900ac92" x="218.820647" y="258.531194" style="fill: #0000ff; stroke: #0000ff"/>
     <use xlink:href="#md47900ac92" x="223.979353" y="222.102073" style="fill: #0000ff; stroke: #0000ff"/>
     <use xlink:href="#md47900ac92" x="229.138059" y="218.893095" style="fill: #0000ff; stroke: #0000ff"/>
     <use xlink:href="#md47900ac92" x="234.296764" y="215.963746" style="fill: #0000ff; stroke: #0000ff"/>
     <use xlink:href="#md47900ac92" x="239.45547" y="252.930126" style="fill: #0000ff; stroke: #0000ff"/>
     <use xlink:href="#md47900ac92" x="244.614176" y="168.960933" style="fill: #0000ff; stroke: #0000ff"/>
     <use xlink:href="#md47900ac92" x="249.772881" y="175.915105" style="fill: #0000ff; stroke: #0000ff"/>
     <use xlink:href="#md47900ac92" x="254.931587" y="247.546737" style="fill: #0000ff; stroke: #0000ff"/>
     <use xlink:href="#md47900ac92" x="260.090293" y="167.96041" style="fill: #0000ff; stroke: #0000ff"/>
     <use xlink:href="#md47900ac92" x="265.248998" y="115.810502" style="fill: #0000ff; stroke: #0000ff"/>
     <use xlink:href="#md47900ac92" x="270.407704" y="150.667538" style="fill: #0000ff; stroke: #0000ff"/>
     <use xlink:href="#md47900ac92" x="275.56641" y="179.805885" style="fill: #0000ff; stroke: #0000ff"/>
     <use xlink:href="#md47900ac92" x="280.725116" y="215.942803" style="fill: #0000ff; stroke: #0000ff"/>
     <use xlink:href="#md47900ac92" x="285.883821" y="214.887301" style="fill: #0000ff; stroke: #0000ff"/>
     <use xlink:href="#md47900ac92" x="291.042527" y="128.246513" style="fill: #0000ff; stroke: #0000ff"/>
     <use xlink:href="#md47900ac92" x="296.201233" y="179.273486" style="fill: #0000ff; stroke: #0000ff"/>
     <use xlink:href="#md47900ac92" x="301.359938" y="171.619747" style="fill: #0000ff; stroke: #0000ff"/>
     <use xlink:href="#md47900ac92" x="306.518644" y="255.999506" style="fill: #0000ff; stroke: #0000ff"/>
     <use xlink:href="#md47900ac92" x="311.67735" y="167.341591" style="fill: #0000ff; stroke: #0000ff"/>
     <use xlink:href="#md47900ac92" x="316.836055" y="224.718412" style="fill: #0000ff; stroke: #0000ff"/>
     <use xlink:href="#md47900ac92" x="321.994761" y="153.862536" style="fill: #0000ff; stroke: #0000ff"/>
     <use xlink:href="#md47900ac92" x="327.153467" y="189.317599" style="fill: #0000ff; stroke: #0000ff"/>
     <use xlink:href="#md47900ac92" x="332.312173" y="172.820761" style="fill: #0000ff; stroke: #0000ff"/>
     <use xlink:href="#md47900ac92" x="337.470878" y="258.622757" style="fill: #0000ff; stroke: #0000ff"/>
     <use xlink:href="#md47900ac92" x="342.629584" y="128.006222" style="fill: #0000ff; stroke: #0000ff"/>
     <use xlink:href="#md47900ac92" x="347.78829" y="255.082186" style="fill: #0000ff; stroke: #0000ff"/>
     <use xlink:href="#md47900ac92" x="352.946995" y="115.830785" style="fill: #0000ff; stroke: #0000ff"/>
     <use xlink:href="#md47900ac92" x="358.105701" y="112.400123" style="fill: #0000ff; stroke: #0000ff"/>
     <use xlink:href="#md47900ac92" x="363.264407" y="110.557585" style="fill: #0000ff; stroke: #0000ff"/>
     <use xlink:href="#md47900ac92" x="368.423112" y="111.123254" style="fill: #0000ff; stroke: #0000ff"/>
     <use xlink:href="#md47900ac92" x="373.581818" y="107.997704" style="fill: #0000ff; stroke: #0000ff"/>
    </g>
   </g>
   <g id="line2d_31">
    <path d="M 69.218182 254.472768 
L 74.376888 235.94697 
L 79.535593 252.933345 
L 84.694299 253.098211 
L 89.853005 252.981256 
L 95.01171 252.908818 
L 100.170416 255.701338 
L 105.329122 250.556976 
L 110.487827 264.299453 
L 115.646533 260.570019 
L 120.805239 254.227577 
L 125.963945 254.115325 
L 131.12265 252.908818 
L 136.281356 254.516749 
L 141.440062 253.350033 
L 146.598767 255.714127 
L 151.757473 252.943555 
L 156.916179 252.908818 
L 162.074884 256.777571 
L 167.23359 254.731853 
L 172.392296 252.908818 
L 177.551002 253.799428 
L 182.709707 253.131058 
L 187.868413 261.719522 
L 193.027119 252.925118 
L 198.185824 252.915798 
L 203.34453 252.926682 
L 208.503236 252.989384 
L 213.661941 253.093752 
L 218.820647 254.209466 
L 223.979353 253.008469 
L 229.138059 256.655969 
L 234.296764 252.908818 
L 239.45547 252.91684 
L 244.614176 252.908818 
L 249.772881 253.188572 
L 254.931587 252.908818 
L 260.090293 254.651448 
L 265.248998 256.039325 
L 270.407704 250.256326 
L 275.56641 252.121099 
L 280.725116 252.667414 
L 285.883821 249.18346 
L 291.042527 256.401722 
L 296.201233 215.27685 
L 301.359938 250.727468 
L 306.518644 254.285868 
L 311.67735 227.169091 
L 316.836055 256.480178 
L 321.994761 253.341004 
L 327.153467 240.873067 
L 332.312173 248.796824 
L 337.470878 226.814803 
L 342.629584 256.286378 
L 347.78829 252.84284 
L 352.946995 252.663689 
L 358.105701 255.236236 
L 363.264407 251.153118 
L 368.423112 208.953696 
L 373.581818 256.362642 
" clip-path="url(#pd56dbc53ba)" style="fill: none; stroke: #ff7763; stroke-width: 1.5; stroke-linecap: square"/>
    <defs>
     <path id="ma5febe0d02" d="M -2 2 
L 2 -2 
M -2 -2 
L 2 2 
" style="stroke: #ff7763"/>
    </defs>
    <g clip-path="url(#pd56dbc53ba)">
     <use xlink:href="#ma5febe0d02" x="69.218182" y="254.472768" style="fill: #ff7763; stroke: #ff7763"/>
     <use xlink:href="#ma5febe0d02" x="74.376888" y="235.94697" style="fill: #ff7763; stroke: #ff7763"/>
     <use xlink:href="#ma5febe0d02" x="79.535593" y="252.933345" style="fill: #ff7763; stroke: #ff7763"/>
     <use xlink:href="#ma5febe0d02" x="84.694299" y="253.098211" style="fill: #ff7763; stroke: #ff7763"/>
     <use xlink:href="#ma5febe0d02" x="89.853005" y="252.981256" style="fill: #ff7763; stroke: #ff7763"/>
     <use xlink:href="#ma5febe0d02" x="95.01171" y="252.908818" style="fill: #ff7763; stroke: #ff7763"/>
     <use xlink:href="#ma5febe0d02" x="100.170416" y="255.701338" style="fill: #ff7763; stroke: #ff7763"/>
     <use xlink:href="#ma5febe0d02" x="105.329122" y="250.556976" style="fill: #ff7763; stroke: #ff7763"/>
     <use xlink:href="#ma5febe0d02" x="110.487827" y="264.299453" style="fill: #ff7763; stroke: #ff7763"/>
     <use xlink:href="#ma5febe0d02" x="115.646533" y="260.570019" style="fill: #ff7763; stroke: #ff7763"/>
     <use xlink:href="#ma5febe0d02" x="120.805239" y="254.227577" style="fill: #ff7763; stroke: #ff7763"/>
     <use xlink:href="#ma5febe0d02" x="125.963945" y="254.115325" style="fill: #ff7763; stroke: #ff7763"/>
     <use xlink:href="#ma5febe0d02" x="131.12265" y="252.908818" style="fill: #ff7763; stroke: #ff7763"/>
     <use xlink:href="#ma5febe0d02" x="136.281356" y="254.516749" style="fill: #ff7763; stroke: #ff7763"/>
     <use xlink:href="#ma5febe0d02" x="141.440062" y="253.350033" style="fill: #ff7763; stroke: #ff7763"/>
     <use xlink:href="#ma5febe0d02" x="146.598767" y="255.714127" style="fill: #ff7763; stroke: #ff7763"/>
     <use xlink:href="#ma5febe0d02" x="151.757473" y="252.943555" style="fill: #ff7763; stroke: #ff7763"/>
     <use xlink:href="#ma5febe0d02" x="156.916179" y="252.908818" style="fill: #ff7763; stroke: #ff7763"/>
     <use xlink:href="#ma5febe0d02" x="162.074884" y="256.777571" style="fill: #ff7763; stroke: #ff7763"/>
     <use xlink:href="#ma5febe0d02" x="167.23359" y="254.731853" style="fill: #ff7763; stroke: #ff7763"/>
     <use xlink:href="#ma5febe0d02" x="172.392296" y="252.908818" style="fill: #ff7763; stroke: #ff7763"/>
     <use xlink:href="#ma5febe0d02" x="177.551002" y="253.799428" style="fill: #ff7763; stroke: #ff7763"/>
     <use xlink:href="#ma5febe0d02" x="182.709707" y="253.131058" style="fill: #ff7763; stroke: #ff7763"/>
     <use xlink:href="#ma5febe0d02" x="187.868413" y="261.719522" style="fill: #ff7763; stroke: #ff7763"/>
     <use xlink:href="#ma5febe0d02" x="193.027119" y="252.925118" style="fill: #ff7763; stroke: #ff7763"/>
     <use xlink:href="#ma5febe0d02" x="198.185824" y="252.915798" style="fill: #ff7763; stroke: #ff7763"/>
     <use xlink:href="#ma5febe0d02" x="203.34453" y="252.926682" style="fill: #ff7763; stroke: #ff7763"/>
     <use xlink:href="#ma5febe0d02" x="208.503236" y="252.989384" style="fill: #ff7763; stroke: #ff7763"/>
     <use xlink:href="#ma5febe0d02" x="213.661941" y="253.093752" style="fill: #ff7763; stroke: #ff7763"/>
     <use xlink:href="#ma5febe0d02" x="218.820647" y="254.209466" style="fill: #ff7763; stroke: #ff7763"/>
     <use xlink:href="#ma5febe0d02" x="223.979353" y="253.008469" style="fill: #ff7763; stroke: #ff7763"/>
     <use xlink:href="#ma5febe0d02" x="229.138059" y="256.655969" style="fill: #ff7763; stroke: #ff7763"/>
     <use xlink:href="#ma5febe0d02" x="234.296764" y="252.908818" style="fill: #ff7763; stroke: #ff7763"/>
     <use xlink:href="#ma5febe0d02" x="239.45547" y="252.91684" style="fill: #ff7763; stroke: #ff7763"/>
     <use xlink:href="#ma5febe0d02" x="244.614176" y="252.908818" style="fill: #ff7763; stroke: #ff7763"/>
     <use xlink:href="#ma5febe0d02" x="249.772881" y="253.188572" style="fill: #ff7763; stroke: #ff7763"/>
     <use xlink:href="#ma5febe0d02" x="254.931587" y="252.908818" style="fill: #ff7763; stroke: #ff7763"/>
     <use xlink:href="#ma5febe0d02" x="260.090293" y="254.651448" style="fill: #ff7763; stroke: #ff7763"/>
     <use xlink:href="#ma5febe0d02" x="265.248998" y="256.039325" style="fill: #ff7763; stroke: #ff7763"/>
     <use xlink:href="#ma5febe0d02" x="270.407704" y="250.256326" style="fill: #ff7763; stroke: #ff7763"/>
     <use xlink:href="#ma5febe0d02" x="275.56641" y="252.121099" style="fill: #ff7763; stroke: #ff7763"/>
     <use xlink:href="#ma5febe0d02" x="280.725116" y="252.667414" style="fill: #ff7763; stroke: #ff7763"/>
     <use xlink:href="#ma5febe0d02" x="285.883821" y="249.18346" style="fill: #ff7763; stroke: #ff7763"/>
     <use xlink:href="#ma5febe0d02" x="291.042527" y="256.401722" style="fill: #ff7763; stroke: #ff7763"/>
     <use xlink:href="#ma5febe0d02" x="296.201233" y="215.27685" style="fill: #ff7763; stroke: #ff7763"/>
     <use xlink:href="#ma5febe0d02" x="301.359938" y="250.727468" style="fill: #ff7763; stroke: #ff7763"/>
     <use xlink:href="#ma5febe0d02" x="306.518644" y="254.285868" style="fill: #ff7763; stroke: #ff7763"/>
     <use xlink:href="#ma5febe0d02" x="311.67735" y="227.169091" style="fill: #ff7763; stroke: #ff7763"/>
     <use xlink:href="#ma5febe0d02" x="316.836055" y="256.480178" style="fill: #ff7763; stroke: #ff7763"/>
     <use xlink:href="#ma5febe0d02" x="321.994761" y="253.341004" style="fill: #ff7763; stroke: #ff7763"/>
     <use xlink:href="#ma5febe0d02" x="327.153467" y="240.873067" style="fill: #ff7763; stroke: #ff7763"/>
     <use xlink:href="#ma5febe0d02" x="332.312173" y="248.796824" style="fill: #ff7763; stroke: #ff7763"/>
     <use xlink:href="#ma5febe0d02" x="337.470878" y="226.814803" style="fill: #ff7763; stroke: #ff7763"/>
     <use xlink:href="#ma5febe0d02" x="342.629584" y="256.286378" style="fill: #ff7763; stroke: #ff7763"/>
     <use xlink:href="#ma5febe0d02" x="347.78829" y="252.84284" style="fill: #ff7763; stroke: #ff7763"/>
     <use xlink:href="#ma5febe0d02" x="352.946995" y="252.663689" style="fill: #ff7763; stroke: #ff7763"/>
     <use xlink:href="#ma5febe0d02" x="358.105701" y="255.236236" style="fill: #ff7763; stroke: #ff7763"/>
     <use xlink:href="#ma5febe0d02" x="363.264407" y="251.153118" style="fill: #ff7763; stroke: #ff7763"/>
     <use xlink:href="#ma5febe0d02" x="368.423112" y="208.953696" style="fill: #ff7763; stroke: #ff7763"/>
     <use xlink:href="#ma5febe0d02" x="373.581818" y="256.362642" style="fill: #ff7763; stroke: #ff7763"/>
    </g>
   </g>
   <g id="line2d_32">
    <path d="M 69.218182 253.944904 
L 74.376888 253.359465 
L 79.535593 255.432237 
L 84.694299 254.676784 
L 89.853005 253.015917 
L 95.01171 253.38104 
L 100.170416 253.079229 
L 105.329122 252.916893 
L 110.487827 252.908393 
L 115.646533 243.575577 
L 120.805239 253.382855 
L 125.963945 255.538618 
L 131.12265 252.908818 
L 136.281356 252.908818 
L 141.440062 252.908818 
L 146.598767 252.918897 
L 151.757473 253.562335 
L 156.916179 252.908818 
L 162.074884 252.908818 
L 167.23359 253.461302 
L 172.392296 253.482043 
L 177.551002 257.590393 
L 182.709707 253.301144 
L 187.868413 254.912224 
L 193.027119 256.139449 
L 198.185824 261.157146 
L 203.34453 260.47044 
L 208.503236 252.957829 
L 213.661941 257.960935 
L 218.820647 264.346707 
L 223.979353 256.268305 
L 229.138059 262.407458 
L 234.296764 263.234673 
L 239.45547 255.671228 
L 244.614176 265.986602 
L 249.772881 255.175422 
L 254.931587 252.918105 
L 260.090293 253.117651 
L 265.248998 253.447315 
L 270.407704 254.348651 
L 275.56641 253.141149 
L 280.725116 252.908818 
L 285.883821 252.908818 
L 291.042527 256.488682 
L 296.201233 252.9133 
L 301.359938 253.084946 
L 306.518644 252.918454 
L 311.67735 265.313801 
L 316.836055 249.059804 
L 321.994761 253.277145 
L 327.153467 255.701068 
L 332.312173 253.634149 
L 337.470878 257.016477 
L 342.629584 253.301516 
L 347.78829 259.014192 
L 352.946995 253.690757 
L 358.105701 247.131472 
L 363.264407 252.908818 
L 368.423112 254.998296 
L 373.581818 252.908818 
" clip-path="url(#pd56dbc53ba)" style="fill: none; stroke: #ffac1e; stroke-width: 1.5; stroke-linecap: square"/>
    <defs>
     <path id="m2090cb9966" d="M 0 -2 
L -0.449028 -0.618034 
L -1.902113 -0.618034 
L -0.726543 0.236068 
L -1.175571 1.618034 
L -0 0.763932 
L 1.175571 1.618034 
L 0.726543 0.236068 
L 1.902113 -0.618034 
L 0.449028 -0.618034 
z
" style="stroke: #ffac1e; stroke-linejoin: bevel"/>
    </defs>
    <g clip-path="url(#pd56dbc53ba)">
     <use xlink:href="#m2090cb9966" x="69.218182" y="253.944904" style="fill: #ffac1e; stroke: #ffac1e; stroke-linejoin: bevel"/>
     <use xlink:href="#m2090cb9966" x="74.376888" y="253.359465" style="fill: #ffac1e; stroke: #ffac1e; stroke-linejoin: bevel"/>
     <use xlink:href="#m2090cb9966" x="79.535593" y="255.432237" style="fill: #ffac1e; stroke: #ffac1e; stroke-linejoin: bevel"/>
     <use xlink:href="#m2090cb9966" x="84.694299" y="254.676784" style="fill: #ffac1e; stroke: #ffac1e; stroke-linejoin: bevel"/>
     <use xlink:href="#m2090cb9966" x="89.853005" y="253.015917" style="fill: #ffac1e; stroke: #ffac1e; stroke-linejoin: bevel"/>
     <use xlink:href="#m2090cb9966" x="95.01171" y="253.38104" style="fill: #ffac1e; stroke: #ffac1e; stroke-linejoin: bevel"/>
     <use xlink:href="#m2090cb9966" x="100.170416" y="253.079229" style="fill: #ffac1e; stroke: #ffac1e; stroke-linejoin: bevel"/>
     <use xlink:href="#m2090cb9966" x="105.329122" y="252.916893" style="fill: #ffac1e; stroke: #ffac1e; stroke-linejoin: bevel"/>
     <use xlink:href="#m2090cb9966" x="110.487827" y="252.908393" style="fill: #ffac1e; stroke: #ffac1e; stroke-linejoin: bevel"/>
     <use xlink:href="#m2090cb9966" x="115.646533" y="243.575577" style="fill: #ffac1e; stroke: #ffac1e; stroke-linejoin: bevel"/>
     <use xlink:href="#m2090cb9966" x="120.805239" y="253.382855" style="fill: #ffac1e; stroke: #ffac1e; stroke-linejoin: bevel"/>
     <use xlink:href="#m2090cb9966" x="125.963945" y="255.538618" style="fill: #ffac1e; stroke: #ffac1e; stroke-linejoin: bevel"/>
     <use xlink:href="#m2090cb9966" x="131.12265" y="252.908818" style="fill: #ffac1e; stroke: #ffac1e; stroke-linejoin: bevel"/>
     <use xlink:href="#m2090cb9966" x="136.281356" y="252.908818" style="fill: #ffac1e; stroke: #ffac1e; stroke-linejoin: bevel"/>
     <use xlink:href="#m2090cb9966" x="141.440062" y="252.908818" style="fill: #ffac1e; stroke: #ffac1e; stroke-linejoin: bevel"/>
     <use xlink:href="#m2090cb9966" x="146.598767" y="252.918897" style="fill: #ffac1e; stroke: #ffac1e; stroke-linejoin: bevel"/>
     <use xlink:href="#m2090cb9966" x="151.757473" y="253.562335" style="fill: #ffac1e; stroke: #ffac1e; stroke-linejoin: bevel"/>
     <use xlink:href="#m2090cb9966" x="156.916179" y="252.908818" style="fill: #ffac1e; stroke: #ffac1e; stroke-linejoin: bevel"/>
     <use xlink:href="#m2090cb9966" x="162.074884" y="252.908818" style="fill: #ffac1e; stroke: #ffac1e; stroke-linejoin: bevel"/>
     <use xlink:href="#m2090cb9966" x="167.23359" y="253.461302" style="fill: #ffac1e; stroke: #ffac1e; stroke-linejoin: bevel"/>
     <use xlink:href="#m2090cb9966" x="172.392296" y="253.482043" style="fill: #ffac1e; stroke: #ffac1e; stroke-linejoin: bevel"/>
     <use xlink:href="#m2090cb9966" x="177.551002" y="257.590393" style="fill: #ffac1e; stroke: #ffac1e; stroke-linejoin: bevel"/>
     <use xlink:href="#m2090cb9966" x="182.709707" y="253.301144" style="fill: #ffac1e; stroke: #ffac1e; stroke-linejoin: bevel"/>
     <use xlink:href="#m2090cb9966" x="187.868413" y="254.912224" style="fill: #ffac1e; stroke: #ffac1e; stroke-linejoin: bevel"/>
     <use xlink:href="#m2090cb9966" x="193.027119" y="256.139449" style="fill: #ffac1e; stroke: #ffac1e; stroke-linejoin: bevel"/>
     <use xlink:href="#m2090cb9966" x="198.185824" y="261.157146" style="fill: #ffac1e; stroke: #ffac1e; stroke-linejoin: bevel"/>
     <use xlink:href="#m2090cb9966" x="203.34453" y="260.47044" style="fill: #ffac1e; stroke: #ffac1e; stroke-linejoin: bevel"/>
     <use xlink:href="#m2090cb9966" x="208.503236" y="252.957829" style="fill: #ffac1e; stroke: #ffac1e; stroke-linejoin: bevel"/>
     <use xlink:href="#m2090cb9966" x="213.661941" y="257.960935" style="fill: #ffac1e; stroke: #ffac1e; stroke-linejoin: bevel"/>
     <use xlink:href="#m2090cb9966" x="218.820647" y="264.346707" style="fill: #ffac1e; stroke: #ffac1e; stroke-linejoin: bevel"/>
     <use xlink:href="#m2090cb9966" x="223.979353" y="256.268305" style="fill: #ffac1e; stroke: #ffac1e; stroke-linejoin: bevel"/>
     <use xlink:href="#m2090cb9966" x="229.138059" y="262.407458" style="fill: #ffac1e; stroke: #ffac1e; stroke-linejoin: bevel"/>
     <use xlink:href="#m2090cb9966" x="234.296764" y="263.234673" style="fill: #ffac1e; stroke: #ffac1e; stroke-linejoin: bevel"/>
     <use xlink:href="#m2090cb9966" x="239.45547" y="255.671228" style="fill: #ffac1e; stroke: #ffac1e; stroke-linejoin: bevel"/>
     <use xlink:href="#m2090cb9966" x="244.614176" y="265.986602" style="fill: #ffac1e; stroke: #ffac1e; stroke-linejoin: bevel"/>
     <use xlink:href="#m2090cb9966" x="249.772881" y="255.175422" style="fill: #ffac1e; stroke: #ffac1e; stroke-linejoin: bevel"/>
     <use xlink:href="#m2090cb9966" x="254.931587" y="252.918105" style="fill: #ffac1e; stroke: #ffac1e; stroke-linejoin: bevel"/>
     <use xlink:href="#m2090cb9966" x="260.090293" y="253.117651" style="fill: #ffac1e; stroke: #ffac1e; stroke-linejoin: bevel"/>
     <use xlink:href="#m2090cb9966" x="265.248998" y="253.447315" style="fill: #ffac1e; stroke: #ffac1e; stroke-linejoin: bevel"/>
     <use xlink:href="#m2090cb9966" x="270.407704" y="254.348651" style="fill: #ffac1e; stroke: #ffac1e; stroke-linejoin: bevel"/>
     <use xlink:href="#m2090cb9966" x="275.56641" y="253.141149" style="fill: #ffac1e; stroke: #ffac1e; stroke-linejoin: bevel"/>
     <use xlink:href="#m2090cb9966" x="280.725116" y="252.908818" style="fill: #ffac1e; stroke: #ffac1e; stroke-linejoin: bevel"/>
     <use xlink:href="#m2090cb9966" x="285.883821" y="252.908818" style="fill: #ffac1e; stroke: #ffac1e; stroke-linejoin: bevel"/>
     <use xlink:href="#m2090cb9966" x="291.042527" y="256.488682" style="fill: #ffac1e; stroke: #ffac1e; stroke-linejoin: bevel"/>
     <use xlink:href="#m2090cb9966" x="296.201233" y="252.9133" style="fill: #ffac1e; stroke: #ffac1e; stroke-linejoin: bevel"/>
     <use xlink:href="#m2090cb9966" x="301.359938" y="253.084946" style="fill: #ffac1e; stroke: #ffac1e; stroke-linejoin: bevel"/>
     <use xlink:href="#m2090cb9966" x="306.518644" y="252.918454" style="fill: #ffac1e; stroke: #ffac1e; stroke-linejoin: bevel"/>
     <use xlink:href="#m2090cb9966" x="311.67735" y="265.313801" style="fill: #ffac1e; stroke: #ffac1e; stroke-linejoin: bevel"/>
     <use xlink:href="#m2090cb9966" x="316.836055" y="249.059804" style="fill: #ffac1e; stroke: #ffac1e; stroke-linejoin: bevel"/>
     <use xlink:href="#m2090cb9966" x="321.994761" y="253.277145" style="fill: #ffac1e; stroke: #ffac1e; stroke-linejoin: bevel"/>
     <use xlink:href="#m2090cb9966" x="327.153467" y="255.701068" style="fill: #ffac1e; stroke: #ffac1e; stroke-linejoin: bevel"/>
     <use xlink:href="#m2090cb9966" x="332.312173" y="253.634149" style="fill: #ffac1e; stroke: #ffac1e; stroke-linejoin: bevel"/>
     <use xlink:href="#m2090cb9966" x="337.470878" y="257.016477" style="fill: #ffac1e; stroke: #ffac1e; stroke-linejoin: bevel"/>
     <use xlink:href="#m2090cb9966" x="342.629584" y="253.301516" style="fill: #ffac1e; stroke: #ffac1e; stroke-linejoin: bevel"/>
     <use xlink:href="#m2090cb9966" x="347.78829" y="259.014192" style="fill: #ffac1e; stroke: #ffac1e; stroke-linejoin: bevel"/>
     <use xlink:href="#m2090cb9966" x="352.946995" y="253.690757" style="fill: #ffac1e; stroke: #ffac1e; stroke-linejoin: bevel"/>
     <use xlink:href="#m2090cb9966" x="358.105701" y="247.131472" style="fill: #ffac1e; stroke: #ffac1e; stroke-linejoin: bevel"/>
     <use xlink:href="#m2090cb9966" x="363.264407" y="252.908818" style="fill: #ffac1e; stroke: #ffac1e; stroke-linejoin: bevel"/>
     <use xlink:href="#m2090cb9966" x="368.423112" y="254.998296" style="fill: #ffac1e; stroke: #ffac1e; stroke-linejoin: bevel"/>
     <use xlink:href="#m2090cb9966" x="373.581818" y="252.908818" style="fill: #ffac1e; stroke: #ffac1e; stroke-linejoin: bevel"/>
    </g>
   </g>
   <g id="line2d_33">
    <path d="M 69.218182 256.868253 
L 74.376888 253.684532 
L 79.535593 252.942217 
L 84.694299 253.29955 
L 89.853005 257.623096 
L 95.01171 252.908818 
L 100.170416 256.064478 
L 105.329122 252.963169 
L 110.487827 253.139415 
L 115.646533 264.671131 
L 120.805239 252.908818 
L 125.963945 252.908818 
L 131.12265 252.939644 
L 136.281356 256.31589 
L 141.440062 254.287743 
L 146.598767 252.908818 
L 151.757473 255.997978 
L 156.916179 264.606718 
L 162.074884 252.928661 
L 167.23359 252.934287 
L 172.392296 252.908818 
L 177.551002 252.908818 
L 182.709707 252.908818 
L 187.868413 253.084226 
L 193.027119 258.190563 
L 198.185824 253.129913 
L 203.34453 252.860521 
L 208.503236 253.059551 
L 213.661941 253.768321 
L 218.820647 252.908818 
L 223.979353 252.908818 
L 229.138059 252.908818 
L 234.296764 252.908818 
L 239.45547 252.908818 
L 244.614176 254.776443 
L 249.772881 252.908818 
L 254.931587 259.449365 
L 260.090293 254.466395 
L 265.248998 253.294246 
L 270.407704 256.193685 
L 275.56641 252.908818 
L 280.725116 262.47582 
L 285.883821 252.908818 
L 291.042527 253.403837 
L 296.201233 262.608264 
L 301.359938 253.375736 
L 306.518644 252.908818 
L 311.67735 254.661024 
L 316.836055 252.908818 
L 321.994761 251.868686 
L 327.153467 253.086845 
L 332.312173 252.926632 
L 337.470878 252.925947 
L 342.629584 254.062582 
L 347.78829 253.033724 
L 352.946995 252.955126 
L 358.105701 252.929175 
L 363.264407 253.769502 
L 368.423112 252.908818 
L 373.581818 255.115197 
" clip-path="url(#pd56dbc53ba)" style="fill: none; stroke: #009435; stroke-width: 1.5; stroke-linecap: square"/>
    <defs>
     <path id="m74aa55086c" d="M -2 2 
L 2 2 
L 2 -2 
L -2 -2 
z
" style="stroke: #009435; stroke-linejoin: miter"/>
    </defs>
    <g clip-path="url(#pd56dbc53ba)">
     <use xlink:href="#m74aa55086c" x="69.218182" y="256.868253" style="fill: #009435; stroke: #009435; stroke-linejoin: miter"/>
     <use xlink:href="#m74aa55086c" x="74.376888" y="253.684532" style="fill: #009435; stroke: #009435; stroke-linejoin: miter"/>
     <use xlink:href="#m74aa55086c" x="79.535593" y="252.942217" style="fill: #009435; stroke: #009435; stroke-linejoin: miter"/>
     <use xlink:href="#m74aa55086c" x="84.694299" y="253.29955" style="fill: #009435; stroke: #009435; stroke-linejoin: miter"/>
     <use xlink:href="#m74aa55086c" x="89.853005" y="257.623096" style="fill: #009435; stroke: #009435; stroke-linejoin: miter"/>
     <use xlink:href="#m74aa55086c" x="95.01171" y="252.908818" style="fill: #009435; stroke: #009435; stroke-linejoin: miter"/>
     <use xlink:href="#m74aa55086c" x="100.170416" y="256.064478" style="fill: #009435; stroke: #009435; stroke-linejoin: miter"/>
     <use xlink:href="#m74aa55086c" x="105.329122" y="252.963169" style="fill: #009435; stroke: #009435; stroke-linejoin: miter"/>
     <use xlink:href="#m74aa55086c" x="110.487827" y="253.139415" style="fill: #009435; stroke: #009435; stroke-linejoin: miter"/>
     <use xlink:href="#m74aa55086c" x="115.646533" y="264.671131" style="fill: #009435; stroke: #009435; stroke-linejoin: miter"/>
     <use xlink:href="#m74aa55086c" x="120.805239" y="252.908818" style="fill: #009435; stroke: #009435; stroke-linejoin: miter"/>
     <use xlink:href="#m74aa55086c" x="125.963945" y="252.908818" style="fill: #009435; stroke: #009435; stroke-linejoin: miter"/>
     <use xlink:href="#m74aa55086c" x="131.12265" y="252.939644" style="fill: #009435; stroke: #009435; stroke-linejoin: miter"/>
     <use xlink:href="#m74aa55086c" x="136.281356" y="256.31589" style="fill: #009435; stroke: #009435; stroke-linejoin: miter"/>
     <use xlink:href="#m74aa55086c" x="141.440062" y="254.287743" style="fill: #009435; stroke: #009435; stroke-linejoin: miter"/>
     <use xlink:href="#m74aa55086c" x="146.598767" y="252.908818" style="fill: #009435; stroke: #009435; stroke-linejoin: miter"/>
     <use xlink:href="#m74aa55086c" x="151.757473" y="255.997978" style="fill: #009435; stroke: #009435; stroke-linejoin: miter"/>
     <use xlink:href="#m74aa55086c" x="156.916179" y="264.606718" style="fill: #009435; stroke: #009435; stroke-linejoin: miter"/>
     <use xlink:href="#m74aa55086c" x="162.074884" y="252.928661" style="fill: #009435; stroke: #009435; stroke-linejoin: miter"/>
     <use xlink:href="#m74aa55086c" x="167.23359" y="252.934287" style="fill: #009435; stroke: #009435; stroke-linejoin: miter"/>
     <use xlink:href="#m74aa55086c" x="172.392296" y="252.908818" style="fill: #009435; stroke: #009435; stroke-linejoin: miter"/>
     <use xlink:href="#m74aa55086c" x="177.551002" y="252.908818" style="fill: #009435; stroke: #009435; stroke-linejoin: miter"/>
     <use xlink:href="#m74aa55086c" x="182.709707" y="252.908818" style="fill: #009435; stroke: #009435; stroke-linejoin: miter"/>
     <use xlink:href="#m74aa55086c" x="187.868413" y="253.084226" style="fill: #009435; stroke: #009435; stroke-linejoin: miter"/>
     <use xlink:href="#m74aa55086c" x="193.027119" y="258.190563" style="fill: #009435; stroke: #009435; stroke-linejoin: miter"/>
     <use xlink:href="#m74aa55086c" x="198.185824" y="253.129913" style="fill: #009435; stroke: #009435; stroke-linejoin: miter"/>
     <use xlink:href="#m74aa55086c" x="203.34453" y="252.860521" style="fill: #009435; stroke: #009435; stroke-linejoin: miter"/>
     <use xlink:href="#m74aa55086c" x="208.503236" y="253.059551" style="fill: #009435; stroke: #009435; stroke-linejoin: miter"/>
     <use xlink:href="#m74aa55086c" x="213.661941" y="253.768321" style="fill: #009435; stroke: #009435; stroke-linejoin: miter"/>
     <use xlink:href="#m74aa55086c" x="218.820647" y="252.908818" style="fill: #009435; stroke: #009435; stroke-linejoin: miter"/>
     <use xlink:href="#m74aa55086c" x="223.979353" y="252.908818" style="fill: #009435; stroke: #009435; stroke-linejoin: miter"/>
     <use xlink:href="#m74aa55086c" x="229.138059" y="252.908818" style="fill: #009435; stroke: #009435; stroke-linejoin: miter"/>
     <use xlink:href="#m74aa55086c" x="234.296764" y="252.908818" style="fill: #009435; stroke: #009435; stroke-linejoin: miter"/>
     <use xlink:href="#m74aa55086c" x="239.45547" y="252.908818" style="fill: #009435; stroke: #009435; stroke-linejoin: miter"/>
     <use xlink:href="#m74aa55086c" x="244.614176" y="254.776443" style="fill: #009435; stroke: #009435; stroke-linejoin: miter"/>
     <use xlink:href="#m74aa55086c" x="249.772881" y="252.908818" style="fill: #009435; stroke: #009435; stroke-linejoin: miter"/>
     <use xlink:href="#m74aa55086c" x="254.931587" y="259.449365" style="fill: #009435; stroke: #009435; stroke-linejoin: miter"/>
     <use xlink:href="#m74aa55086c" x="260.090293" y="254.466395" style="fill: #009435; stroke: #009435; stroke-linejoin: miter"/>
     <use xlink:href="#m74aa55086c" x="265.248998" y="253.294246" style="fill: #009435; stroke: #009435; stroke-linejoin: miter"/>
     <use xlink:href="#m74aa55086c" x="270.407704" y="256.193685" style="fill: #009435; stroke: #009435; stroke-linejoin: miter"/>
     <use xlink:href="#m74aa55086c" x="275.56641" y="252.908818" style="fill: #009435; stroke: #009435; stroke-linejoin: miter"/>
     <use xlink:href="#m74aa55086c" x="280.725116" y="262.47582" style="fill: #009435; stroke: #009435; stroke-linejoin: miter"/>
     <use xlink:href="#m74aa55086c" x="285.883821" y="252.908818" style="fill: #009435; stroke: #009435; stroke-linejoin: miter"/>
     <use xlink:href="#m74aa55086c" x="291.042527" y="253.403837" style="fill: #009435; stroke: #009435; stroke-linejoin: miter"/>
     <use xlink:href="#m74aa55086c" x="296.201233" y="262.608264" style="fill: #009435; stroke: #009435; stroke-linejoin: miter"/>
     <use xlink:href="#m74aa55086c" x="301.359938" y="253.375736" style="fill: #009435; stroke: #009435; stroke-linejoin: miter"/>
     <use xlink:href="#m74aa55086c" x="306.518644" y="252.908818" style="fill: #009435; stroke: #009435; stroke-linejoin: miter"/>
     <use xlink:href="#m74aa55086c" x="311.67735" y="254.661024" style="fill: #009435; stroke: #009435; stroke-linejoin: miter"/>
     <use xlink:href="#m74aa55086c" x="316.836055" y="252.908818" style="fill: #009435; stroke: #009435; stroke-linejoin: miter"/>
     <use xlink:href="#m74aa55086c" x="321.994761" y="251.868686" style="fill: #009435; stroke: #009435; stroke-linejoin: miter"/>
     <use xlink:href="#m74aa55086c" x="327.153467" y="253.086845" style="fill: #009435; stroke: #009435; stroke-linejoin: miter"/>
     <use xlink:href="#m74aa55086c" x="332.312173" y="252.926632" style="fill: #009435; stroke: #009435; stroke-linejoin: miter"/>
     <use xlink:href="#m74aa55086c" x="337.470878" y="252.925947" style="fill: #009435; stroke: #009435; stroke-linejoin: miter"/>
     <use xlink:href="#m74aa55086c" x="342.629584" y="254.062582" style="fill: #009435; stroke: #009435; stroke-linejoin: miter"/>
     <use xlink:href="#m74aa55086c" x="347.78829" y="253.033724" style="fill: #009435; stroke: #009435; stroke-linejoin: miter"/>
     <use xlink:href="#m74aa55086c" x="352.946995" y="252.955126" style="fill: #009435; stroke: #009435; stroke-linejoin: miter"/>
     <use xlink:href="#m74aa55086c" x="358.105701" y="252.929175" style="fill: #009435; stroke: #009435; stroke-linejoin: miter"/>
     <use xlink:href="#m74aa55086c" x="363.264407" y="253.769502" style="fill: #009435; stroke: #009435; stroke-linejoin: miter"/>
     <use xlink:href="#m74aa55086c" x="368.423112" y="252.908818" style="fill: #009435; stroke: #009435; stroke-linejoin: miter"/>
     <use xlink:href="#m74aa55086c" x="373.581818" y="255.115197" style="fill: #009435; stroke: #009435; stroke-linejoin: miter"/>
    </g>
   </g>
   <g id="patch_3">
    <path d="M 54 252 
L 54 34.56 
" style="fill: none; stroke: #000000; stroke-width: 0.8; stroke-linejoin: miter; stroke-linecap: square"/>
   </g>
   <g id="patch_4">
    <path d="M 388.8 252 
L 388.8 34.56 
" style="fill: none; stroke: #000000; stroke-width: 0.8; stroke-linejoin: miter; stroke-linecap: square"/>
   </g>
   <g id="patch_5">
    <path d="M 54 252 
L 388.8 252 
" style="fill: none; stroke: #000000; stroke-width: 0.8; stroke-linejoin: miter; stroke-linecap: square"/>
   </g>
   <g id="patch_6">
    <path d="M 54 34.56 
L 388.8 34.56 
" style="fill: none; stroke: #000000; stroke-width: 0.8; stroke-linejoin: miter; stroke-linecap: square"/>
   </g>
   <g id="text_17">
    <!-- ζ-EB optimal policy with beta = 2.0 -->
    <g transform="translate(115.442813 28.56)scale(0.12 -0.12)">
     <defs>
      <path id="DejaVuSans-3b6" d="M 2231 397 
Q 2644 394 2891 159 
Q 3153 -88 3153 -463 
Q 3153 -822 2922 -1072 
Q 2672 -1344 2163 -1344 
Q 2163 -1109 2163 -872 
Q 2378 -888 2509 -750 
Q 2609 -641 2609 -525 
Q 2609 -359 2509 -222 
Q 2413 -91 2231 -91 
Q 338 -91 334 1669 
Q 334 3206 2119 4284 
L 456 4284 
L 456 4863 
L 3175 4863 
L 3175 4284 
Q 913 3147 913 1669 
Q 913 397 2231 397 
z
" transform="scale(0.015625)"/>
      <path id="DejaVuSans-2d" d="M 313 2009 
L 1997 2009 
L 1997 1497 
L 313 1497 
L 313 2009 
z
" transform="scale(0.015625)"/>
      <path id="DejaVuSans-45" d="M 628 4666 
L 3578 4666 
L 3578 4134 
L 1259 4134 
L 1259 2753 
L 3481 2753 
L 3481 2222 
L 1259 2222 
L 1259 531 
L 3634 531 
L 3634 0 
L 628 0 
L 628 4666 
z
" transform="scale(0.015625)"/>
      <path id="DejaVuSans-42" d="M 1259 2228 
L 1259 519 
L 2272 519 
Q 2781 519 3026 730 
Q 3272 941 3272 1375 
Q 3272 1813 3026 2020 
Q 2781 2228 2272 2228 
L 1259 2228 
z
M 1259 4147 
L 1259 2741 
L 2194 2741 
Q 2656 2741 2882 2914 
Q 3109 3088 3109 3444 
Q 3109 3797 2882 3972 
Q 2656 4147 2194 4147 
L 1259 4147 
z
M 628 4666 
L 2241 4666 
Q 2963 4666 3353 4366 
Q 3744 4066 3744 3513 
Q 3744 3084 3544 2831 
Q 3344 2578 2956 2516 
Q 3422 2416 3680 2098 
Q 3938 1781 3938 1306 
Q 3938 681 3513 340 
Q 3088 0 2303 0 
L 628 0 
L 628 4666 
z
" transform="scale(0.015625)"/>
      <path id="DejaVuSans-6d" d="M 3328 2828 
Q 3544 3216 3844 3400 
Q 4144 3584 4550 3584 
Q 5097 3584 5394 3201 
Q 5691 2819 5691 2113 
L 5691 0 
L 5113 0 
L 5113 2094 
Q 5113 2597 4934 2840 
Q 4756 3084 4391 3084 
Q 3944 3084 3684 2787 
Q 3425 2491 3425 1978 
L 3425 0 
L 2847 0 
L 2847 2094 
Q 2847 2600 2669 2842 
Q 2491 3084 2119 3084 
Q 1678 3084 1418 2786 
Q 1159 2488 1159 1978 
L 1159 0 
L 581 0 
L 581 3500 
L 1159 3500 
L 1159 2956 
Q 1356 3278 1631 3431 
Q 1906 3584 2284 3584 
Q 2666 3584 2933 3390 
Q 3200 3197 3328 2828 
z
" transform="scale(0.015625)"/>
      <path id="DejaVuSans-77" d="M 269 3500 
L 844 3500 
L 1563 769 
L 2278 3500 
L 2956 3500 
L 3675 769 
L 4391 3500 
L 4966 3500 
L 4050 0 
L 3372 0 
L 2619 2869 
L 1863 0 
L 1184 0 
L 269 3500 
z
" transform="scale(0.015625)"/>
      <path id="DejaVuSans-68" d="M 3513 2113 
L 3513 0 
L 2938 0 
L 2938 2094 
Q 2938 2591 2744 2837 
Q 2550 3084 2163 3084 
Q 1697 3084 1428 2787 
Q 1159 2491 1159 1978 
L 1159 0 
L 581 0 
L 581 4863 
L 1159 4863 
L 1159 2956 
Q 1366 3272 1645 3428 
Q 1925 3584 2291 3584 
Q 2894 3584 3203 3211 
Q 3513 2838 3513 2113 
z
" transform="scale(0.015625)"/>
      <path id="DejaVuSans-62" d="M 3116 1747 
Q 3116 2381 2855 2742 
Q 2594 3103 2138 3103 
Q 1681 3103 1420 2742 
Q 1159 2381 1159 1747 
Q 1159 1113 1420 752 
Q 1681 391 2138 391 
Q 2594 391 2855 752 
Q 3116 1113 3116 1747 
z
M 1159 2969 
Q 1341 3281 1617 3432 
Q 1894 3584 2278 3584 
Q 2916 3584 3314 3078 
Q 3713 2572 3713 1747 
Q 3713 922 3314 415 
Q 2916 -91 2278 -91 
Q 1894 -91 1617 61 
Q 1341 213 1159 525 
L 1159 0 
L 581 0 
L 581 4863 
L 1159 4863 
L 1159 2969 
z
" transform="scale(0.015625)"/>
      <path id="DejaVuSans-3d" d="M 678 2906 
L 4684 2906 
L 4684 2381 
L 678 2381 
L 678 2906 
z
M 678 1631 
L 4684 1631 
L 4684 1100 
L 678 1100 
L 678 1631 
z
" transform="scale(0.015625)"/>
      <path id="DejaVuSans-2e" d="M 684 794 
L 1344 794 
L 1344 0 
L 684 0 
L 684 794 
z
" transform="scale(0.015625)"/>
     </defs>
     <use xlink:href="#DejaVuSans-3b6"/>
     <use xlink:href="#DejaVuSans-2d" x="54.394531"/>
     <use xlink:href="#DejaVuSans-45" x="90.478516"/>
     <use xlink:href="#DejaVuSans-42" x="153.662109"/>
     <use xlink:href="#DejaVuSans-20" x="222.265625"/>
     <use xlink:href="#DejaVuSans-6f" x="254.052734"/>
     <use xlink:href="#DejaVuSans-70" x="315.234375"/>
     <use xlink:href="#DejaVuSans-74" x="378.710938"/>
     <use xlink:href="#DejaVuSans-69" x="417.919922"/>
     <use xlink:href="#DejaVuSans-6d" x="445.703125"/>
     <use xlink:href="#DejaVuSans-61" x="543.115234"/>
     <use xlink:href="#DejaVuSans-6c" x="604.394531"/>
     <use xlink:href="#DejaVuSans-20" x="632.177734"/>
     <use xlink:href="#DejaVuSans-70" x="663.964844"/>
     <use xlink:href="#DejaVuSans-6f" x="727.441406"/>
     <use xlink:href="#DejaVuSans-6c" x="788.623047"/>
     <use xlink:href="#DejaVuSans-69" x="816.40625"/>
     <use xlink:href="#DejaVuSans-63" x="844.189453"/>
     <use xlink:href="#DejaVuSans-79" x="899.169922"/>
     <use xlink:href="#DejaVuSans-20" x="958.349609"/>
     <use xlink:href="#DejaVuSans-77" x="990.136719"/>
     <use xlink:href="#DejaVuSans-69" x="1071.923828"/>
     <use xlink:href="#DejaVuSans-74" x="1099.707031"/>
     <use xlink:href="#DejaVuSans-68" x="1138.916016"/>
     <use xlink:href="#DejaVuSans-20" x="1202.294922"/>
     <use xlink:href="#DejaVuSans-62" x="1234.082031"/>
     <use xlink:href="#DejaVuSans-65" x="1297.558594"/>
     <use xlink:href="#DejaVuSans-74" x="1359.082031"/>
     <use xlink:href="#DejaVuSans-61" x="1398.291016"/>
     <use xlink:href="#DejaVuSans-20" x="1459.570312"/>
     <use xlink:href="#DejaVuSans-3d" x="1491.357422"/>
     <use xlink:href="#DejaVuSans-20" x="1575.146484"/>
     <use xlink:href="#DejaVuSans-32" x="1606.933594"/>
     <use xlink:href="#DejaVuSans-2e" x="1670.556641"/>
     <use xlink:href="#DejaVuSans-30" x="1702.34375"/>
    </g>
   </g>
   <g id="legend_1">
    <g id="patch_7">
     <path d="M 61 115.950625 
L 145.003125 115.950625 
Q 147.003125 115.950625 147.003125 113.950625 
L 147.003125 41.56 
Q 147.003125 39.56 145.003125 39.56 
L 61 39.56 
Q 59 39.56 59 41.56 
L 59 113.950625 
Q 59 115.950625 61 115.950625 
z
" style="fill: #ffffff; opacity: 0.8; stroke: #cccccc; stroke-linejoin: miter"/>
    </g>
    <g id="line2d_34">
     <path d="M 63 47.658437 
L 73 47.658437 
L 83 47.658437 
" style="fill: none; stroke: #9d02d7; stroke-width: 1.5; stroke-linecap: square"/>
     <g>
      <use xlink:href="#me74df744f0" x="73" y="47.658437" style="fill: #9d02d7; stroke: #9d02d7; stroke-linejoin: miter"/>
     </g>
    </g>
    <g id="text_18">
     <!-- alpha=0.1 -->
     <g transform="translate(91 51.158437)scale(0.1 -0.1)">
      <use xlink:href="#DejaVuSans-61"/>
      <use xlink:href="#DejaVuSans-6c" x="61.279297"/>
      <use xlink:href="#DejaVuSans-70" x="89.0625"/>
      <use xlink:href="#DejaVuSans-68" x="152.539062"/>
      <use xlink:href="#DejaVuSans-61" x="215.917969"/>
      <use xlink:href="#DejaVuSans-3d" x="277.197266"/>
      <use xlink:href="#DejaVuSans-30" x="360.986328"/>
      <use xlink:href="#DejaVuSans-2e" x="424.609375"/>
      <use xlink:href="#DejaVuSans-31" x="456.396484"/>
     </g>
    </g>
    <g id="line2d_35">
     <path d="M 63 62.336562 
L 73 62.336562 
L 83 62.336562 
" style="fill: none; stroke: #0000ff; stroke-width: 1.5; stroke-linecap: square"/>
     <g>
      <use xlink:href="#md47900ac92" x="73" y="62.336562" style="fill: #0000ff; stroke: #0000ff"/>
     </g>
    </g>
    <g id="text_19">
     <!-- alpha=0.5 -->
     <g transform="translate(91 65.836562)scale(0.1 -0.1)">
      <use xlink:href="#DejaVuSans-61"/>
      <use xlink:href="#DejaVuSans-6c" x="61.279297"/>
      <use xlink:href="#DejaVuSans-70" x="89.0625"/>
      <use xlink:href="#DejaVuSans-68" x="152.539062"/>
      <use xlink:href="#DejaVuSans-61" x="215.917969"/>
      <use xlink:href="#DejaVuSans-3d" x="277.197266"/>
      <use xlink:href="#DejaVuSans-30" x="360.986328"/>
      <use xlink:href="#DejaVuSans-2e" x="424.609375"/>
      <use xlink:href="#DejaVuSans-35" x="456.396484"/>
     </g>
    </g>
    <g id="line2d_36">
     <path d="M 63 77.014687 
L 73 77.014687 
L 83 77.014687 
" style="fill: none; stroke: #ff7763; stroke-width: 1.5; stroke-linecap: square"/>
     <g>
      <use xlink:href="#ma5febe0d02" x="73" y="77.014687" style="fill: #ff7763; stroke: #ff7763"/>
     </g>
    </g>
    <g id="text_20">
     <!-- alpha=1.0 -->
     <g transform="translate(91 80.514687)scale(0.1 -0.1)">
      <use xlink:href="#DejaVuSans-61"/>
      <use xlink:href="#DejaVuSans-6c" x="61.279297"/>
      <use xlink:href="#DejaVuSans-70" x="89.0625"/>
      <use xlink:href="#DejaVuSans-68" x="152.539062"/>
      <use xlink:href="#DejaVuSans-61" x="215.917969"/>
      <use xlink:href="#DejaVuSans-3d" x="277.197266"/>
      <use xlink:href="#DejaVuSans-31" x="360.986328"/>
      <use xlink:href="#DejaVuSans-2e" x="424.609375"/>
      <use xlink:href="#DejaVuSans-30" x="456.396484"/>
     </g>
    </g>
    <g id="line2d_37">
     <path d="M 63 91.692813 
L 73 91.692813 
L 83 91.692813 
" style="fill: none; stroke: #ffac1e; stroke-width: 1.5; stroke-linecap: square"/>
     <g>
      <use xlink:href="#m2090cb9966" x="73" y="91.692813" style="fill: #ffac1e; stroke: #ffac1e; stroke-linejoin: bevel"/>
     </g>
    </g>
    <g id="text_21">
     <!-- alpha=1.5 -->
     <g transform="translate(91 95.192813)scale(0.1 -0.1)">
      <use xlink:href="#DejaVuSans-61"/>
      <use xlink:href="#DejaVuSans-6c" x="61.279297"/>
      <use xlink:href="#DejaVuSans-70" x="89.0625"/>
      <use xlink:href="#DejaVuSans-68" x="152.539062"/>
      <use xlink:href="#DejaVuSans-61" x="215.917969"/>
      <use xlink:href="#DejaVuSans-3d" x="277.197266"/>
      <use xlink:href="#DejaVuSans-31" x="360.986328"/>
      <use xlink:href="#DejaVuSans-2e" x="424.609375"/>
      <use xlink:href="#DejaVuSans-35" x="456.396484"/>
     </g>
    </g>
    <g id="line2d_38">
     <path d="M 63 106.370937 
L 73 106.370937 
L 83 106.370937 
" style="fill: none; stroke: #009435; stroke-width: 1.5; stroke-linecap: square"/>
     <g>
      <use xlink:href="#m74aa55086c" x="73" y="106.370937" style="fill: #009435; stroke: #009435; stroke-linejoin: miter"/>
     </g>
    </g>
    <g id="text_22">
     <!-- alpha=2.0 -->
     <g transform="translate(91 109.870937)scale(0.1 -0.1)">
      <use xlink:href="#DejaVuSans-61"/>
      <use xlink:href="#DejaVuSans-6c" x="61.279297"/>
      <use xlink:href="#DejaVuSans-70" x="89.0625"/>
      <use xlink:href="#DejaVuSans-68" x="152.539062"/>
      <use xlink:href="#DejaVuSans-61" x="215.917969"/>
      <use xlink:href="#DejaVuSans-3d" x="277.197266"/>
      <use xlink:href="#DejaVuSans-32" x="360.986328"/>
      <use xlink:href="#DejaVuSans-2e" x="424.609375"/>
      <use xlink:href="#DejaVuSans-30" x="456.396484"/>
     </g>
    </g>
   </g>
  </g>
 </g>
 <defs>
  <clipPath id="pd56dbc53ba">
   <rect x="54" y="34.56" width="334.8" height="217.44"/>
  </clipPath>
 </defs>
</svg>
