<?xml version="1.0" encoding="utf-8" standalone="no"?>
<!DOCTYPE svg PUBLIC "-//W3C//DTD SVG 1.1//EN"
  "http://www.w3.org/Graphics/SVG/1.1/DTD/svg11.dtd">
<svg xmlns:xlink="http://www.w3.org/1999/xlink" width="432pt" height="288pt" viewBox="0 0 432 288" xmlns="http://www.w3.org/2000/svg" version="1.1">
 <metadata>
  <rdf:RDF xmlns:dc="http://purl.org/dc/elements/1.1/" xmlns:cc="http://creativecommons.org/ns#" xmlns:rdf="http://www.w3.org/1999/02/22-rdf-syntax-ns#">
   <cc:Work>
    <dc:type rdf:resource="http://purl.org/dc/dcmitype/StillImage"/>
    <dc:date>2023-01-11T15:36:35.890627</dc:date>
    <dc:format>image/svg+xml</dc:format>
    <dc:creator>
     <cc:Agent>
      <dc:title>Matplotlib v3.5.2, https://matplotlib.org/</dc:title>
     </cc:Agent>
    </dc:creator>
   </cc:Work>
  </rdf:RDF>
 </metadata>
 <defs>
  <style type="text/css">*{stroke-linejoin: round; stroke-linecap: butt}</style>
 </defs>
 <g id="figure_1">
  <g id="patch_1">
   <path d="M 0 288 
L 432 288 
L 432 0 
L 0 0 
z
" style="fill: #ffffff"/>
  </g>
  <g id="axes_1">
   <g id="patch_2">
    <path d="M 54 252 
L 388.8 252 
L 388.8 34.56 
L 54 34.56 
z
" style="fill: #ffffff"/>
   </g>
   <g id="PolyCollection_1">
    <defs>
     <path id="m1d9904890c" d="M 69.218182 -35.008179 
L 69.218182 -35.008179 
L 74.376888 -31.175573 
L 79.535593 -32.895958 
L 84.694299 -35.025389 
L 89.853005 -35.063491 
L 95.01171 -35.08032 
L 100.170416 -35.091182 
L 105.329122 -35.091182 
L 110.487827 -34.487951 
L 115.646533 -34.724189 
L 120.805239 -28.953386 
L 125.963945 -35.064718 
L 131.12265 -33.913552 
L 136.281356 -35.091182 
L 141.440062 -33.892274 
L 146.598767 -33.321431 
L 151.757473 -33.736991 
L 156.916179 -33.415307 
L 162.074884 -33.91216 
L 167.23359 -33.12312 
L 172.392296 -34.990884 
L 177.551002 -81.777778 
L 182.709707 -35.730804 
L 187.868413 -33.297597 
L 193.027119 -34.899018 
L 198.185824 -35.056402 
L 203.34453 -35.091182 
L 208.503236 -35.030978 
L 213.661941 -35.091182 
L 218.820647 -33.935468 
L 223.979353 -34.940924 
L 229.138059 -56.898587 
L 234.296764 -34.547641 
L 239.45547 -37.792996 
L 244.614176 -35.070365 
L 249.772881 -35.091182 
L 254.931587 -27.886582 
L 260.090293 -35.086895 
L 265.248998 -35.086742 
L 270.407704 -35.091182 
L 275.56641 -33.039515 
L 280.725116 -34.952258 
L 285.883821 -35.091182 
L 291.042527 -35.091182 
L 296.201233 -34.807073 
L 301.359938 -34.284996 
L 306.518644 -34.552903 
L 311.67735 -33.187434 
L 316.836055 -35.124649 
L 321.994761 -41.798828 
L 327.153467 -34.758649 
L 332.312173 -35.091182 
L 337.470878 -35.088714 
L 342.629584 -35.08636 
L 347.78829 -35.324496 
L 352.946995 -35.091182 
L 358.105701 -35.088861 
L 363.264407 -35.088425 
L 368.423112 -35.091182 
L 373.581818 -35.091182 
L 373.581818 -35.091182 
L 373.581818 -35.091182 
L 368.423112 -35.091182 
L 363.264407 -35.088425 
L 358.105701 -35.088861 
L 352.946995 -35.091182 
L 347.78829 -35.324496 
L 342.629584 -35.08636 
L 337.470878 -35.088714 
L 332.312173 -35.091182 
L 327.153467 -34.758649 
L 321.994761 -41.798828 
L 316.836055 -35.124649 
L 311.67735 -33.187434 
L 306.518644 -34.552903 
L 301.359938 -34.284996 
L 296.201233 -34.807073 
L 291.042527 -35.091182 
L 285.883821 -35.091182 
L 280.725116 -34.952258 
L 275.56641 -33.039515 
L 270.407704 -35.091182 
L 265.248998 -35.086742 
L 260.090293 -35.086895 
L 254.931587 -27.886582 
L 249.772881 -35.091182 
L 244.614176 -35.070365 
L 239.45547 -37.792996 
L 234.296764 -34.547641 
L 229.138059 -56.898587 
L 223.979353 -34.940924 
L 218.820647 -33.935468 
L 213.661941 -35.091182 
L 208.503236 -35.030978 
L 203.34453 -35.091182 
L 198.185824 -35.056402 
L 193.027119 -34.899018 
L 187.868413 -33.297597 
L 182.709707 -35.730804 
L 177.551002 -81.777778 
L 172.392296 -34.990884 
L 167.23359 -33.12312 
L 162.074884 -33.91216 
L 156.916179 -33.415307 
L 151.757473 -33.736991 
L 146.598767 -33.321431 
L 141.440062 -33.892274 
L 136.281356 -35.091182 
L 131.12265 -33.913552 
L 125.963945 -35.064718 
L 120.805239 -28.953386 
L 115.646533 -34.724189 
L 110.487827 -34.487951 
L 105.329122 -35.091182 
L 100.170416 -35.091182 
L 95.01171 -35.08032 
L 89.853005 -35.063491 
L 84.694299 -35.025389 
L 79.535593 -32.895958 
L 74.376888 -31.175573 
L 69.218182 -35.008179 
z
" style="stroke: #9d02d7; stroke-opacity: 0.2"/>
    </defs>
    <g clip-path="url(#pb167680216)">
     <use xlink:href="#m1d9904890c" x="0" y="288" style="fill: #9d02d7; fill-opacity: 0.2; stroke: #9d02d7; stroke-opacity: 0.2"/>
    </g>
   </g>
   <g id="PolyCollection_2">
    <defs>
     <path id="ma7a9b7992a" d="M 69.218182 -35.091182 
L 69.218182 -35.091182 
L 74.376888 -35.091182 
L 79.535593 -35.14154 
L 84.694299 -33.322751 
L 89.853005 -33.153582 
L 95.01171 -35.091182 
L 100.170416 -35.076832 
L 105.329122 -35.091182 
L 110.487827 -34.666089 
L 115.646533 -35.083685 
L 120.805239 -35.091182 
L 125.963945 -35.089307 
L 131.12265 -35.087687 
L 136.281356 -35.091182 
L 141.440062 -35.091182 
L 146.598767 -35.091182 
L 151.757473 -35.085536 
L 156.916179 -35.091182 
L 162.074884 -47.566791 
L 167.23359 -35.618709 
L 172.392296 -33.259681 
L 177.551002 -37.397177 
L 182.709707 -35.511299 
L 187.868413 -41.078152 
L 193.027119 -42.71858 
L 198.185824 -36.069941 
L 203.34453 -33.56716 
L 208.503236 -34.18269 
L 213.661941 -33.125938 
L 218.820647 -33.309079 
L 223.979353 -33.12207 
L 229.138059 -39.907901 
L 234.296764 -36.179193 
L 239.45547 -34.186044 
L 244.614176 -35.369115 
L 249.772881 -32.910839 
L 254.931587 -34.326044 
L 260.090293 -33.537126 
L 265.248998 -34.12079 
L 270.407704 -33.722988 
L 275.56641 -32.983053 
L 280.725116 -35.184642 
L 285.883821 -40.019158 
L 291.042527 -32.109638 
L 296.201233 -32.518913 
L 301.359938 -45.146482 
L 306.518644 -46.672872 
L 311.67735 -49.489288 
L 316.836055 -49.255322 
L 321.994761 -33.727299 
L 327.153467 -33.543942 
L 332.312173 -34.281331 
L 337.470878 -50.880552 
L 342.629584 -35.966247 
L 347.78829 -43.70742 
L 352.946995 -36.747086 
L 358.105701 -43.109893 
L 363.264407 -62.437448 
L 368.423112 -63.883791 
L 373.581818 -64.964286 
L 373.581818 -64.964286 
L 373.581818 -64.964286 
L 368.423112 -63.883791 
L 363.264407 -62.437448 
L 358.105701 -43.109893 
L 352.946995 -36.747086 
L 347.78829 -43.70742 
L 342.629584 -35.966247 
L 337.470878 -50.880552 
L 332.312173 -34.281331 
L 327.153467 -33.543942 
L 321.994761 -33.727299 
L 316.836055 -49.255322 
L 311.67735 -49.489288 
L 306.518644 -46.672872 
L 301.359938 -45.146482 
L 296.201233 -32.518913 
L 291.042527 -32.109638 
L 285.883821 -40.019158 
L 280.725116 -35.184642 
L 275.56641 -32.983053 
L 270.407704 -33.722988 
L 265.248998 -34.12079 
L 260.090293 -33.537126 
L 254.931587 -34.326044 
L 249.772881 -32.910839 
L 244.614176 -35.369115 
L 239.45547 -34.186044 
L 234.296764 -36.179193 
L 229.138059 -39.907901 
L 223.979353 -33.12207 
L 218.820647 -33.309079 
L 213.661941 -33.125938 
L 208.503236 -34.18269 
L 203.34453 -33.56716 
L 198.185824 -36.069941 
L 193.027119 -42.71858 
L 187.868413 -41.078152 
L 182.709707 -35.511299 
L 177.551002 -37.397177 
L 172.392296 -33.259681 
L 167.23359 -35.618709 
L 162.074884 -47.566791 
L 156.916179 -35.091182 
L 151.757473 -35.085536 
L 146.598767 -35.091182 
L 141.440062 -35.091182 
L 136.281356 -35.091182 
L 131.12265 -35.087687 
L 125.963945 -35.089307 
L 120.805239 -35.091182 
L 115.646533 -35.083685 
L 110.487827 -34.666089 
L 105.329122 -35.091182 
L 100.170416 -35.076832 
L 95.01171 -35.091182 
L 89.853005 -33.153582 
L 84.694299 -33.322751 
L 79.535593 -35.14154 
L 74.376888 -35.091182 
L 69.218182 -35.091182 
z
" style="stroke: #0000ff; stroke-opacity: 0.2"/>
    </defs>
    <g clip-path="url(#pb167680216)">
     <use xlink:href="#ma7a9b7992a" x="0" y="288" style="fill: #0000ff; fill-opacity: 0.2; stroke: #0000ff; stroke-opacity: 0.2"/>
    </g>
   </g>
   <g id="PolyCollection_3">
    <defs>
     <path id="m003b6e0444" d="M 69.218182 -34.968895 
L 69.218182 -34.968895 
L 74.376888 -78.610682 
L 79.535593 -48.120333 
L 84.694299 -75.61175 
L 89.853005 -88.230191 
L 95.01171 -77.994214 
L 100.170416 -81.048416 
L 105.329122 -72.852983 
L 110.487827 -99.956099 
L 115.646533 -81.264577 
L 120.805239 -79.743221 
L 125.963945 -91.498844 
L 131.12265 -66.802426 
L 136.281356 -90.631442 
L 141.440062 -73.090389 
L 146.598767 -65.695602 
L 151.757473 -78.41746 
L 156.916179 -73.005657 
L 162.074884 -115.516189 
L 167.23359 -99.937911 
L 172.392296 -97.934941 
L 177.551002 -96.735196 
L 182.709707 -99.932953 
L 187.868413 -101.195571 
L 193.027119 -99.541099 
L 198.185824 -97.858885 
L 203.34453 -99.539228 
L 208.503236 -97.939443 
L 213.661941 -101.189758 
L 218.820647 -99.934996 
L 223.979353 -99.536496 
L 229.138059 -96.61942 
L 234.296764 -92.784103 
L 239.45547 -90.870277 
L 244.614176 -93.117959 
L 249.772881 -101.194938 
L 254.931587 -94.390562 
L 260.090293 -100.139471 
L 265.248998 -99.940421 
L 270.407704 -96.786155 
L 275.56641 -99.938033 
L 280.725116 -99.388659 
L 285.883821 -95.62062 
L 291.042527 -99.94375 
L 296.201233 -94.131485 
L 301.359938 -75.496136 
L 306.518644 -32.688648 
L 311.67735 -32.691369 
L 316.836055 -32.694498 
L 321.994761 -32.677895 
L 327.153467 -32.690084 
L 332.312173 -72.909702 
L 337.470878 -63.147456 
L 342.629584 -32.555451 
L 347.78829 -68.152605 
L 352.946995 -32.687654 
L 358.105701 -32.694644 
L 363.264407 -32.688737 
L 368.423112 -32.676914 
L 373.581818 -32.679153 
L 373.581818 -32.679153 
L 373.581818 -32.679153 
L 368.423112 -32.676914 
L 363.264407 -32.688737 
L 358.105701 -32.694644 
L 352.946995 -32.687654 
L 347.78829 -68.152605 
L 342.629584 -32.555451 
L 337.470878 -63.147456 
L 332.312173 -72.909702 
L 327.153467 -32.690084 
L 321.994761 -32.677895 
L 316.836055 -32.694498 
L 311.67735 -32.691369 
L 306.518644 -32.688648 
L 301.359938 -75.496136 
L 296.201233 -94.131485 
L 291.042527 -99.94375 
L 285.883821 -95.62062 
L 280.725116 -99.388659 
L 275.56641 -99.938033 
L 270.407704 -96.786155 
L 265.248998 -99.940421 
L 260.090293 -100.139471 
L 254.931587 -94.390562 
L 249.772881 -101.194938 
L 244.614176 -93.117959 
L 239.45547 -90.870277 
L 234.296764 -92.784103 
L 229.138059 -96.61942 
L 223.979353 -99.536496 
L 218.820647 -99.934996 
L 213.661941 -101.189758 
L 208.503236 -97.939443 
L 203.34453 -99.539228 
L 198.185824 -97.858885 
L 193.027119 -99.541099 
L 187.868413 -101.195571 
L 182.709707 -99.932953 
L 177.551002 -96.735196 
L 172.392296 -97.934941 
L 167.23359 -99.937911 
L 162.074884 -115.516189 
L 156.916179 -73.005657 
L 151.757473 -78.41746 
L 146.598767 -65.695602 
L 141.440062 -73.090389 
L 136.281356 -90.631442 
L 131.12265 -66.802426 
L 125.963945 -91.498844 
L 120.805239 -79.743221 
L 115.646533 -81.264577 
L 110.487827 -99.956099 
L 105.329122 -72.852983 
L 100.170416 -81.048416 
L 95.01171 -77.994214 
L 89.853005 -88.230191 
L 84.694299 -75.61175 
L 79.535593 -48.120333 
L 74.376888 -78.610682 
L 69.218182 -34.968895 
z
" style="stroke: #ff7763; stroke-opacity: 0.2"/>
    </defs>
    <g clip-path="url(#pb167680216)">
     <use xlink:href="#m003b6e0444" x="0" y="288" style="fill: #ff7763; fill-opacity: 0.2; stroke: #ff7763; stroke-opacity: 0.2"/>
    </g>
   </g>
   <g id="PolyCollection_4">
    <defs>
     <path id="meb251297a8" d="M 69.218182 -35.072179 
L 69.218182 -35.072179 
L 74.376888 -35.091182 
L 79.535593 -34.712108 
L 84.694299 -42.881456 
L 89.853005 -61.555266 
L 95.01171 -64.888411 
L 100.170416 -65.366308 
L 105.329122 -59.640284 
L 110.487827 -58.732088 
L 115.646533 -58.921983 
L 120.805239 -58.733317 
L 125.963945 -60.804593 
L 131.12265 -60.866685 
L 136.281356 -65.204999 
L 141.440062 -58.09573 
L 146.598767 -50.290894 
L 151.757473 -65.213359 
L 156.916179 -65.134966 
L 162.074884 -58.160358 
L 167.23359 -65.213825 
L 172.392296 -65.204429 
L 177.551002 -49.707545 
L 182.709707 -61.828849 
L 187.868413 -59.950324 
L 193.027119 -47.4984 
L 198.185824 -64.440802 
L 203.34453 -57.445434 
L 208.503236 -62.490915 
L 213.661941 -62.490915 
L 218.820647 -57.231797 
L 223.979353 -64.737412 
L 229.138059 -64.737873 
L 234.296764 -49.717134 
L 239.45547 -57.133337 
L 244.614176 -49.743187 
L 249.772881 -64.899619 
L 254.931587 -62.440036 
L 260.090293 -64.944792 
L 265.248998 -64.879509 
L 270.407704 -62.440036 
L 275.56641 -58.048357 
L 280.725116 -51.520316 
L 285.883821 -49.736304 
L 291.042527 -51.355798 
L 296.201233 -62.095659 
L 301.359938 -64.811069 
L 306.518644 -62.405254 
L 311.67735 -58.002676 
L 316.836055 -62.095659 
L 321.994761 -58.069028 
L 327.153467 -64.833364 
L 332.312173 -49.73248 
L 337.470878 -49.73248 
L 342.629584 -62.461128 
L 347.78829 -62.519401 
L 352.946995 -62.095659 
L 358.105701 -64.811069 
L 363.264407 -57.233759 
L 368.423112 -51.520316 
L 373.581818 -64.485395 
L 373.581818 -64.485395 
L 373.581818 -64.485395 
L 368.423112 -51.520316 
L 363.264407 -57.233759 
L 358.105701 -64.811069 
L 352.946995 -62.095659 
L 347.78829 -62.519401 
L 342.629584 -62.461128 
L 337.470878 -49.73248 
L 332.312173 -49.73248 
L 327.153467 -64.833364 
L 321.994761 -58.069028 
L 316.836055 -62.095659 
L 311.67735 -58.002676 
L 306.518644 -62.405254 
L 301.359938 -64.811069 
L 296.201233 -62.095659 
L 291.042527 -51.355798 
L 285.883821 -49.736304 
L 280.725116 -51.520316 
L 275.56641 -58.048357 
L 270.407704 -62.440036 
L 265.248998 -64.879509 
L 260.090293 -64.944792 
L 254.931587 -62.440036 
L 249.772881 -64.899619 
L 244.614176 -49.743187 
L 239.45547 -57.133337 
L 234.296764 -49.717134 
L 229.138059 -64.737873 
L 223.979353 -64.737412 
L 218.820647 -57.231797 
L 213.661941 -62.490915 
L 208.503236 -62.490915 
L 203.34453 -57.445434 
L 198.185824 -64.440802 
L 193.027119 -47.4984 
L 187.868413 -59.950324 
L 182.709707 -61.828849 
L 177.551002 -49.707545 
L 172.392296 -65.204429 
L 167.23359 -65.213825 
L 162.074884 -58.160358 
L 156.916179 -65.134966 
L 151.757473 -65.213359 
L 146.598767 -50.290894 
L 141.440062 -58.09573 
L 136.281356 -65.204999 
L 131.12265 -60.866685 
L 125.963945 -60.804593 
L 120.805239 -58.733317 
L 115.646533 -58.921983 
L 110.487827 -58.732088 
L 105.329122 -59.640284 
L 100.170416 -65.366308 
L 95.01171 -64.888411 
L 89.853005 -61.555266 
L 84.694299 -42.881456 
L 79.535593 -34.712108 
L 74.376888 -35.091182 
L 69.218182 -35.072179 
z
" style="stroke: #ffac1e; stroke-opacity: 0.2"/>
    </defs>
    <g clip-path="url(#pb167680216)">
     <use xlink:href="#meb251297a8" x="0" y="288" style="fill: #ffac1e; fill-opacity: 0.2; stroke: #ffac1e; stroke-opacity: 0.2"/>
    </g>
   </g>
   <g id="matplotlib.axis_1">
    <g id="xtick_1">
     <g id="line2d_1">
      <path d="M 69.218182 252 
L 69.218182 34.56 
" clip-path="url(#pb167680216)" style="fill: none; stroke-dasharray: 2.96,1.28; stroke-dashoffset: 0; stroke: #b0b0b0; stroke-width: 0.8"/>
     </g>
     <g id="line2d_2">
      <defs>
       <path id="meff6cb414d" d="M 0 0 
L 0 3.5 
" style="stroke: #000000; stroke-width: 0.8"/>
      </defs>
      <g>
       <use xlink:href="#meff6cb414d" x="69.218182" y="252" style="stroke: #000000; stroke-width: 0.8"/>
      </g>
     </g>
     <g id="text_1">
      <!-- 0 -->
      <g transform="translate(66.036932 266.598437)scale(0.1 -0.1)">
       <defs>
        <path id="DejaVuSans-30" d="M 2034 4250 
Q 1547 4250 1301 3770 
Q 1056 3291 1056 2328 
Q 1056 1369 1301 889 
Q 1547 409 2034 409 
Q 2525 409 2770 889 
Q 3016 1369 3016 2328 
Q 3016 3291 2770 3770 
Q 2525 4250 2034 4250 
z
M 2034 4750 
Q 2819 4750 3233 4129 
Q 3647 3509 3647 2328 
Q 3647 1150 3233 529 
Q 2819 -91 2034 -91 
Q 1250 -91 836 529 
Q 422 1150 422 2328 
Q 422 3509 836 4129 
Q 1250 4750 2034 4750 
z
" transform="scale(0.015625)"/>
       </defs>
       <use xlink:href="#DejaVuSans-30"/>
      </g>
     </g>
    </g>
    <g id="xtick_2">
     <g id="line2d_3">
      <path d="M 120.805239 252 
L 120.805239 34.56 
" clip-path="url(#pb167680216)" style="fill: none; stroke-dasharray: 2.96,1.28; stroke-dashoffset: 0; stroke: #b0b0b0; stroke-width: 0.8"/>
     </g>
     <g id="line2d_4">
      <g>
       <use xlink:href="#meff6cb414d" x="120.805239" y="252" style="stroke: #000000; stroke-width: 0.8"/>
      </g>
     </g>
     <g id="text_2">
      <!-- 500 -->
      <g transform="translate(111.261489 266.598437)scale(0.1 -0.1)">
       <defs>
        <path id="DejaVuSans-35" d="M 691 4666 
L 3169 4666 
L 3169 4134 
L 1269 4134 
L 1269 2991 
Q 1406 3038 1543 3061 
Q 1681 3084 1819 3084 
Q 2600 3084 3056 2656 
Q 3513 2228 3513 1497 
Q 3513 744 3044 326 
Q 2575 -91 1722 -91 
Q 1428 -91 1123 -41 
Q 819 9 494 109 
L 494 744 
Q 775 591 1075 516 
Q 1375 441 1709 441 
Q 2250 441 2565 725 
Q 2881 1009 2881 1497 
Q 2881 1984 2565 2268 
Q 2250 2553 1709 2553 
Q 1456 2553 1204 2497 
Q 953 2441 691 2322 
L 691 4666 
z
" transform="scale(0.015625)"/>
       </defs>
       <use xlink:href="#DejaVuSans-35"/>
       <use xlink:href="#DejaVuSans-30" x="63.623047"/>
       <use xlink:href="#DejaVuSans-30" x="127.246094"/>
      </g>
     </g>
    </g>
    <g id="xtick_3">
     <g id="line2d_5">
      <path d="M 172.392296 252 
L 172.392296 34.56 
" clip-path="url(#pb167680216)" style="fill: none; stroke-dasharray: 2.96,1.28; stroke-dashoffset: 0; stroke: #b0b0b0; stroke-width: 0.8"/>
     </g>
     <g id="line2d_6">
      <g>
       <use xlink:href="#meff6cb414d" x="172.392296" y="252" style="stroke: #000000; stroke-width: 0.8"/>
      </g>
     </g>
     <g id="text_3">
      <!-- 1000 -->
      <g transform="translate(159.667296 266.598437)scale(0.1 -0.1)">
       <defs>
        <path id="DejaVuSans-31" d="M 794 531 
L 1825 531 
L 1825 4091 
L 703 3866 
L 703 4441 
L 1819 4666 
L 2450 4666 
L 2450 531 
L 3481 531 
L 3481 0 
L 794 0 
L 794 531 
z
" transform="scale(0.015625)"/>
       </defs>
       <use xlink:href="#DejaVuSans-31"/>
       <use xlink:href="#DejaVuSans-30" x="63.623047"/>
       <use xlink:href="#DejaVuSans-30" x="127.246094"/>
       <use xlink:href="#DejaVuSans-30" x="190.869141"/>
      </g>
     </g>
    </g>
    <g id="xtick_4">
     <g id="line2d_7">
      <path d="M 223.979353 252 
L 223.979353 34.56 
" clip-path="url(#pb167680216)" style="fill: none; stroke-dasharray: 2.96,1.28; stroke-dashoffset: 0; stroke: #b0b0b0; stroke-width: 0.8"/>
     </g>
     <g id="line2d_8">
      <g>
       <use xlink:href="#meff6cb414d" x="223.979353" y="252" style="stroke: #000000; stroke-width: 0.8"/>
      </g>
     </g>
     <g id="text_4">
      <!-- 1500 -->
      <g transform="translate(211.254353 266.598437)scale(0.1 -0.1)">
       <use xlink:href="#DejaVuSans-31"/>
       <use xlink:href="#DejaVuSans-35" x="63.623047"/>
       <use xlink:href="#DejaVuSans-30" x="127.246094"/>
       <use xlink:href="#DejaVuSans-30" x="190.869141"/>
      </g>
     </g>
    </g>
    <g id="xtick_5">
     <g id="line2d_9">
      <path d="M 275.56641 252 
L 275.56641 34.56 
" clip-path="url(#pb167680216)" style="fill: none; stroke-dasharray: 2.96,1.28; stroke-dashoffset: 0; stroke: #b0b0b0; stroke-width: 0.8"/>
     </g>
     <g id="line2d_10">
      <g>
       <use xlink:href="#meff6cb414d" x="275.56641" y="252" style="stroke: #000000; stroke-width: 0.8"/>
      </g>
     </g>
     <g id="text_5">
      <!-- 2000 -->
      <g transform="translate(262.84141 266.598437)scale(0.1 -0.1)">
       <defs>
        <path id="DejaVuSans-32" d="M 1228 531 
L 3431 531 
L 3431 0 
L 469 0 
L 469 531 
Q 828 903 1448 1529 
Q 2069 2156 2228 2338 
Q 2531 2678 2651 2914 
Q 2772 3150 2772 3378 
Q 2772 3750 2511 3984 
Q 2250 4219 1831 4219 
Q 1534 4219 1204 4116 
Q 875 4013 500 3803 
L 500 4441 
Q 881 4594 1212 4672 
Q 1544 4750 1819 4750 
Q 2544 4750 2975 4387 
Q 3406 4025 3406 3419 
Q 3406 3131 3298 2873 
Q 3191 2616 2906 2266 
Q 2828 2175 2409 1742 
Q 1991 1309 1228 531 
z
" transform="scale(0.015625)"/>
       </defs>
       <use xlink:href="#DejaVuSans-32"/>
       <use xlink:href="#DejaVuSans-30" x="63.623047"/>
       <use xlink:href="#DejaVuSans-30" x="127.246094"/>
       <use xlink:href="#DejaVuSans-30" x="190.869141"/>
      </g>
     </g>
    </g>
    <g id="xtick_6">
     <g id="line2d_11">
      <path d="M 327.153467 252 
L 327.153467 34.56 
" clip-path="url(#pb167680216)" style="fill: none; stroke-dasharray: 2.96,1.28; stroke-dashoffset: 0; stroke: #b0b0b0; stroke-width: 0.8"/>
     </g>
     <g id="line2d_12">
      <g>
       <use xlink:href="#meff6cb414d" x="327.153467" y="252" style="stroke: #000000; stroke-width: 0.8"/>
      </g>
     </g>
     <g id="text_6">
      <!-- 2500 -->
      <g transform="translate(314.428467 266.598437)scale(0.1 -0.1)">
       <use xlink:href="#DejaVuSans-32"/>
       <use xlink:href="#DejaVuSans-35" x="63.623047"/>
       <use xlink:href="#DejaVuSans-30" x="127.246094"/>
       <use xlink:href="#DejaVuSans-30" x="190.869141"/>
      </g>
     </g>
    </g>
    <g id="xtick_7">
     <g id="line2d_13">
      <path d="M 378.740524 252 
L 378.740524 34.56 
" clip-path="url(#pb167680216)" style="fill: none; stroke-dasharray: 2.96,1.28; stroke-dashoffset: 0; stroke: #b0b0b0; stroke-width: 0.8"/>
     </g>
     <g id="line2d_14">
      <g>
       <use xlink:href="#meff6cb414d" x="378.740524" y="252" style="stroke: #000000; stroke-width: 0.8"/>
      </g>
     </g>
     <g id="text_7">
      <!-- 3000 -->
      <g transform="translate(366.015524 266.598437)scale(0.1 -0.1)">
       <defs>
        <path id="DejaVuSans-33" d="M 2597 2516 
Q 3050 2419 3304 2112 
Q 3559 1806 3559 1356 
Q 3559 666 3084 287 
Q 2609 -91 1734 -91 
Q 1441 -91 1130 -33 
Q 819 25 488 141 
L 488 750 
Q 750 597 1062 519 
Q 1375 441 1716 441 
Q 2309 441 2620 675 
Q 2931 909 2931 1356 
Q 2931 1769 2642 2001 
Q 2353 2234 1838 2234 
L 1294 2234 
L 1294 2753 
L 1863 2753 
Q 2328 2753 2575 2939 
Q 2822 3125 2822 3475 
Q 2822 3834 2567 4026 
Q 2313 4219 1838 4219 
Q 1578 4219 1281 4162 
Q 984 4106 628 3988 
L 628 4550 
Q 988 4650 1302 4700 
Q 1616 4750 1894 4750 
Q 2613 4750 3031 4423 
Q 3450 4097 3450 3541 
Q 3450 3153 3228 2886 
Q 3006 2619 2597 2516 
z
" transform="scale(0.015625)"/>
       </defs>
       <use xlink:href="#DejaVuSans-33"/>
       <use xlink:href="#DejaVuSans-30" x="63.623047"/>
       <use xlink:href="#DejaVuSans-30" x="127.246094"/>
       <use xlink:href="#DejaVuSans-30" x="190.869141"/>
      </g>
     </g>
    </g>
    <g id="text_8">
     <!-- Steps -->
     <g transform="translate(207.410156 280.276563)scale(0.1 -0.1)">
      <defs>
       <path id="DejaVuSans-53" d="M 3425 4513 
L 3425 3897 
Q 3066 4069 2747 4153 
Q 2428 4238 2131 4238 
Q 1616 4238 1336 4038 
Q 1056 3838 1056 3469 
Q 1056 3159 1242 3001 
Q 1428 2844 1947 2747 
L 2328 2669 
Q 3034 2534 3370 2195 
Q 3706 1856 3706 1288 
Q 3706 609 3251 259 
Q 2797 -91 1919 -91 
Q 1588 -91 1214 -16 
Q 841 59 441 206 
L 441 856 
Q 825 641 1194 531 
Q 1563 422 1919 422 
Q 2459 422 2753 634 
Q 3047 847 3047 1241 
Q 3047 1584 2836 1778 
Q 2625 1972 2144 2069 
L 1759 2144 
Q 1053 2284 737 2584 
Q 422 2884 422 3419 
Q 422 4038 858 4394 
Q 1294 4750 2059 4750 
Q 2388 4750 2728 4690 
Q 3069 4631 3425 4513 
z
" transform="scale(0.015625)"/>
       <path id="DejaVuSans-74" d="M 1172 4494 
L 1172 3500 
L 2356 3500 
L 2356 3053 
L 1172 3053 
L 1172 1153 
Q 1172 725 1289 603 
Q 1406 481 1766 481 
L 2356 481 
L 2356 0 
L 1766 0 
Q 1100 0 847 248 
Q 594 497 594 1153 
L 594 3053 
L 172 3053 
L 172 3500 
L 594 3500 
L 594 4494 
L 1172 4494 
z
" transform="scale(0.015625)"/>
       <path id="DejaVuSans-65" d="M 3597 1894 
L 3597 1613 
L 953 1613 
Q 991 1019 1311 708 
Q 1631 397 2203 397 
Q 2534 397 2845 478 
Q 3156 559 3463 722 
L 3463 178 
Q 3153 47 2828 -22 
Q 2503 -91 2169 -91 
Q 1331 -91 842 396 
Q 353 884 353 1716 
Q 353 2575 817 3079 
Q 1281 3584 2069 3584 
Q 2775 3584 3186 3129 
Q 3597 2675 3597 1894 
z
M 3022 2063 
Q 3016 2534 2758 2815 
Q 2500 3097 2075 3097 
Q 1594 3097 1305 2825 
Q 1016 2553 972 2059 
L 3022 2063 
z
" transform="scale(0.015625)"/>
       <path id="DejaVuSans-70" d="M 1159 525 
L 1159 -1331 
L 581 -1331 
L 581 3500 
L 1159 3500 
L 1159 2969 
Q 1341 3281 1617 3432 
Q 1894 3584 2278 3584 
Q 2916 3584 3314 3078 
Q 3713 2572 3713 1747 
Q 3713 922 3314 415 
Q 2916 -91 2278 -91 
Q 1894 -91 1617 61 
Q 1341 213 1159 525 
z
M 3116 1747 
Q 3116 2381 2855 2742 
Q 2594 3103 2138 3103 
Q 1681 3103 1420 2742 
Q 1159 2381 1159 1747 
Q 1159 1113 1420 752 
Q 1681 391 2138 391 
Q 2594 391 2855 752 
Q 3116 1113 3116 1747 
z
" transform="scale(0.015625)"/>
       <path id="DejaVuSans-73" d="M 2834 3397 
L 2834 2853 
Q 2591 2978 2328 3040 
Q 2066 3103 1784 3103 
Q 1356 3103 1142 2972 
Q 928 2841 928 2578 
Q 928 2378 1081 2264 
Q 1234 2150 1697 2047 
L 1894 2003 
Q 2506 1872 2764 1633 
Q 3022 1394 3022 966 
Q 3022 478 2636 193 
Q 2250 -91 1575 -91 
Q 1294 -91 989 -36 
Q 684 19 347 128 
L 347 722 
Q 666 556 975 473 
Q 1284 391 1588 391 
Q 1994 391 2212 530 
Q 2431 669 2431 922 
Q 2431 1156 2273 1281 
Q 2116 1406 1581 1522 
L 1381 1569 
Q 847 1681 609 1914 
Q 372 2147 372 2553 
Q 372 3047 722 3315 
Q 1072 3584 1716 3584 
Q 2034 3584 2315 3537 
Q 2597 3491 2834 3397 
z
" transform="scale(0.015625)"/>
      </defs>
      <use xlink:href="#DejaVuSans-53"/>
      <use xlink:href="#DejaVuSans-74" x="63.476562"/>
      <use xlink:href="#DejaVuSans-65" x="102.685547"/>
      <use xlink:href="#DejaVuSans-70" x="164.208984"/>
      <use xlink:href="#DejaVuSans-73" x="227.685547"/>
     </g>
    </g>
   </g>
   <g id="matplotlib.axis_2">
    <g id="ytick_1">
     <g id="line2d_15">
      <path d="M 54 243.636923 
L 388.8 243.636923 
" clip-path="url(#pb167680216)" style="fill: none; stroke-dasharray: 2.96,1.28; stroke-dashoffset: 0; stroke: #b0b0b0; stroke-width: 0.8"/>
     </g>
     <g id="line2d_16">
      <defs>
       <path id="m83507dd7b0" d="M 0 0 
L -3.5 0 
" style="stroke: #000000; stroke-width: 0.8"/>
      </defs>
      <g>
       <use xlink:href="#m83507dd7b0" x="54" y="243.636923" style="stroke: #000000; stroke-width: 0.8"/>
      </g>
     </g>
     <g id="text_9">
      <!-- −12 -->
      <g transform="translate(25.895312 247.436142)scale(0.1 -0.1)">
       <defs>
        <path id="DejaVuSans-2212" d="M 678 2272 
L 4684 2272 
L 4684 1741 
L 678 1741 
L 678 2272 
z
" transform="scale(0.015625)"/>
       </defs>
       <use xlink:href="#DejaVuSans-2212"/>
       <use xlink:href="#DejaVuSans-31" x="83.789062"/>
       <use xlink:href="#DejaVuSans-32" x="147.412109"/>
      </g>
     </g>
    </g>
    <g id="ytick_2">
     <g id="line2d_17">
      <path d="M 54 210.184615 
L 388.8 210.184615 
" clip-path="url(#pb167680216)" style="fill: none; stroke-dasharray: 2.96,1.28; stroke-dashoffset: 0; stroke: #b0b0b0; stroke-width: 0.8"/>
     </g>
     <g id="line2d_18">
      <g>
       <use xlink:href="#m83507dd7b0" x="54" y="210.184615" style="stroke: #000000; stroke-width: 0.8"/>
      </g>
     </g>
     <g id="text_10">
      <!-- −10 -->
      <g transform="translate(25.895312 213.983834)scale(0.1 -0.1)">
       <use xlink:href="#DejaVuSans-2212"/>
       <use xlink:href="#DejaVuSans-31" x="83.789062"/>
       <use xlink:href="#DejaVuSans-30" x="147.412109"/>
      </g>
     </g>
    </g>
    <g id="ytick_3">
     <g id="line2d_19">
      <path d="M 54 176.732308 
L 388.8 176.732308 
" clip-path="url(#pb167680216)" style="fill: none; stroke-dasharray: 2.96,1.28; stroke-dashoffset: 0; stroke: #b0b0b0; stroke-width: 0.8"/>
     </g>
     <g id="line2d_20">
      <g>
       <use xlink:href="#m83507dd7b0" x="54" y="176.732308" style="stroke: #000000; stroke-width: 0.8"/>
      </g>
     </g>
     <g id="text_11">
      <!-- −8 -->
      <g transform="translate(32.257812 180.531526)scale(0.1 -0.1)">
       <defs>
        <path id="DejaVuSans-38" d="M 2034 2216 
Q 1584 2216 1326 1975 
Q 1069 1734 1069 1313 
Q 1069 891 1326 650 
Q 1584 409 2034 409 
Q 2484 409 2743 651 
Q 3003 894 3003 1313 
Q 3003 1734 2745 1975 
Q 2488 2216 2034 2216 
z
M 1403 2484 
Q 997 2584 770 2862 
Q 544 3141 544 3541 
Q 544 4100 942 4425 
Q 1341 4750 2034 4750 
Q 2731 4750 3128 4425 
Q 3525 4100 3525 3541 
Q 3525 3141 3298 2862 
Q 3072 2584 2669 2484 
Q 3125 2378 3379 2068 
Q 3634 1759 3634 1313 
Q 3634 634 3220 271 
Q 2806 -91 2034 -91 
Q 1263 -91 848 271 
Q 434 634 434 1313 
Q 434 1759 690 2068 
Q 947 2378 1403 2484 
z
M 1172 3481 
Q 1172 3119 1398 2916 
Q 1625 2713 2034 2713 
Q 2441 2713 2670 2916 
Q 2900 3119 2900 3481 
Q 2900 3844 2670 4047 
Q 2441 4250 2034 4250 
Q 1625 4250 1398 4047 
Q 1172 3844 1172 3481 
z
" transform="scale(0.015625)"/>
       </defs>
       <use xlink:href="#DejaVuSans-2212"/>
       <use xlink:href="#DejaVuSans-38" x="83.789062"/>
      </g>
     </g>
    </g>
    <g id="ytick_4">
     <g id="line2d_21">
      <path d="M 54 143.28 
L 388.8 143.28 
" clip-path="url(#pb167680216)" style="fill: none; stroke-dasharray: 2.96,1.28; stroke-dashoffset: 0; stroke: #b0b0b0; stroke-width: 0.8"/>
     </g>
     <g id="line2d_22">
      <g>
       <use xlink:href="#m83507dd7b0" x="54" y="143.28" style="stroke: #000000; stroke-width: 0.8"/>
      </g>
     </g>
     <g id="text_12">
      <!-- −6 -->
      <g transform="translate(32.257812 147.079219)scale(0.1 -0.1)">
       <defs>
        <path id="DejaVuSans-36" d="M 2113 2584 
Q 1688 2584 1439 2293 
Q 1191 2003 1191 1497 
Q 1191 994 1439 701 
Q 1688 409 2113 409 
Q 2538 409 2786 701 
Q 3034 994 3034 1497 
Q 3034 2003 2786 2293 
Q 2538 2584 2113 2584 
z
M 3366 4563 
L 3366 3988 
Q 3128 4100 2886 4159 
Q 2644 4219 2406 4219 
Q 1781 4219 1451 3797 
Q 1122 3375 1075 2522 
Q 1259 2794 1537 2939 
Q 1816 3084 2150 3084 
Q 2853 3084 3261 2657 
Q 3669 2231 3669 1497 
Q 3669 778 3244 343 
Q 2819 -91 2113 -91 
Q 1303 -91 875 529 
Q 447 1150 447 2328 
Q 447 3434 972 4092 
Q 1497 4750 2381 4750 
Q 2619 4750 2861 4703 
Q 3103 4656 3366 4563 
z
" transform="scale(0.015625)"/>
       </defs>
       <use xlink:href="#DejaVuSans-2212"/>
       <use xlink:href="#DejaVuSans-36" x="83.789062"/>
      </g>
     </g>
    </g>
    <g id="ytick_5">
     <g id="line2d_23">
      <path d="M 54 109.827692 
L 388.8 109.827692 
" clip-path="url(#pb167680216)" style="fill: none; stroke-dasharray: 2.96,1.28; stroke-dashoffset: 0; stroke: #b0b0b0; stroke-width: 0.8"/>
     </g>
     <g id="line2d_24">
      <g>
       <use xlink:href="#m83507dd7b0" x="54" y="109.827692" style="stroke: #000000; stroke-width: 0.8"/>
      </g>
     </g>
     <g id="text_13">
      <!-- −4 -->
      <g transform="translate(32.257812 113.626911)scale(0.1 -0.1)">
       <defs>
        <path id="DejaVuSans-34" d="M 2419 4116 
L 825 1625 
L 2419 1625 
L 2419 4116 
z
M 2253 4666 
L 3047 4666 
L 3047 1625 
L 3713 1625 
L 3713 1100 
L 3047 1100 
L 3047 0 
L 2419 0 
L 2419 1100 
L 313 1100 
L 313 1709 
L 2253 4666 
z
" transform="scale(0.015625)"/>
       </defs>
       <use xlink:href="#DejaVuSans-2212"/>
       <use xlink:href="#DejaVuSans-34" x="83.789062"/>
      </g>
     </g>
    </g>
    <g id="ytick_6">
     <g id="line2d_25">
      <path d="M 54 76.375385 
L 388.8 76.375385 
" clip-path="url(#pb167680216)" style="fill: none; stroke-dasharray: 2.96,1.28; stroke-dashoffset: 0; stroke: #b0b0b0; stroke-width: 0.8"/>
     </g>
     <g id="line2d_26">
      <g>
       <use xlink:href="#m83507dd7b0" x="54" y="76.375385" style="stroke: #000000; stroke-width: 0.8"/>
      </g>
     </g>
     <g id="text_14">
      <!-- −2 -->
      <g transform="translate(32.257812 80.174603)scale(0.1 -0.1)">
       <use xlink:href="#DejaVuSans-2212"/>
       <use xlink:href="#DejaVuSans-32" x="83.789062"/>
      </g>
     </g>
    </g>
    <g id="ytick_7">
     <g id="line2d_27">
      <path d="M 54 42.923077 
L 388.8 42.923077 
" clip-path="url(#pb167680216)" style="fill: none; stroke-dasharray: 2.96,1.28; stroke-dashoffset: 0; stroke: #b0b0b0; stroke-width: 0.8"/>
     </g>
     <g id="line2d_28">
      <g>
       <use xlink:href="#m83507dd7b0" x="54" y="42.923077" style="stroke: #000000; stroke-width: 0.8"/>
      </g>
     </g>
     <g id="text_15">
      <!-- 0 -->
      <g transform="translate(40.6375 46.722296)scale(0.1 -0.1)">
       <use xlink:href="#DejaVuSans-30"/>
      </g>
     </g>
    </g>
    <g id="text_16">
     <!-- Policy value error -->
     <g transform="translate(19.815625 186.597969)rotate(-90)scale(0.1 -0.1)">
      <defs>
       <path id="DejaVuSans-50" d="M 1259 4147 
L 1259 2394 
L 2053 2394 
Q 2494 2394 2734 2622 
Q 2975 2850 2975 3272 
Q 2975 3691 2734 3919 
Q 2494 4147 2053 4147 
L 1259 4147 
z
M 628 4666 
L 2053 4666 
Q 2838 4666 3239 4311 
Q 3641 3956 3641 3272 
Q 3641 2581 3239 2228 
Q 2838 1875 2053 1875 
L 1259 1875 
L 1259 0 
L 628 0 
L 628 4666 
z
" transform="scale(0.015625)"/>
       <path id="DejaVuSans-6f" d="M 1959 3097 
Q 1497 3097 1228 2736 
Q 959 2375 959 1747 
Q 959 1119 1226 758 
Q 1494 397 1959 397 
Q 2419 397 2687 759 
Q 2956 1122 2956 1747 
Q 2956 2369 2687 2733 
Q 2419 3097 1959 3097 
z
M 1959 3584 
Q 2709 3584 3137 3096 
Q 3566 2609 3566 1747 
Q 3566 888 3137 398 
Q 2709 -91 1959 -91 
Q 1206 -91 779 398 
Q 353 888 353 1747 
Q 353 2609 779 3096 
Q 1206 3584 1959 3584 
z
" transform="scale(0.015625)"/>
       <path id="DejaVuSans-6c" d="M 603 4863 
L 1178 4863 
L 1178 0 
L 603 0 
L 603 4863 
z
" transform="scale(0.015625)"/>
       <path id="DejaVuSans-69" d="M 603 3500 
L 1178 3500 
L 1178 0 
L 603 0 
L 603 3500 
z
M 603 4863 
L 1178 4863 
L 1178 4134 
L 603 4134 
L 603 4863 
z
" transform="scale(0.015625)"/>
       <path id="DejaVuSans-63" d="M 3122 3366 
L 3122 2828 
Q 2878 2963 2633 3030 
Q 2388 3097 2138 3097 
Q 1578 3097 1268 2742 
Q 959 2388 959 1747 
Q 959 1106 1268 751 
Q 1578 397 2138 397 
Q 2388 397 2633 464 
Q 2878 531 3122 666 
L 3122 134 
Q 2881 22 2623 -34 
Q 2366 -91 2075 -91 
Q 1284 -91 818 406 
Q 353 903 353 1747 
Q 353 2603 823 3093 
Q 1294 3584 2113 3584 
Q 2378 3584 2631 3529 
Q 2884 3475 3122 3366 
z
" transform="scale(0.015625)"/>
       <path id="DejaVuSans-79" d="M 2059 -325 
Q 1816 -950 1584 -1140 
Q 1353 -1331 966 -1331 
L 506 -1331 
L 506 -850 
L 844 -850 
Q 1081 -850 1212 -737 
Q 1344 -625 1503 -206 
L 1606 56 
L 191 3500 
L 800 3500 
L 1894 763 
L 2988 3500 
L 3597 3500 
L 2059 -325 
z
" transform="scale(0.015625)"/>
       <path id="DejaVuSans-20" transform="scale(0.015625)"/>
       <path id="DejaVuSans-76" d="M 191 3500 
L 800 3500 
L 1894 563 
L 2988 3500 
L 3597 3500 
L 2284 0 
L 1503 0 
L 191 3500 
z
" transform="scale(0.015625)"/>
       <path id="DejaVuSans-61" d="M 2194 1759 
Q 1497 1759 1228 1600 
Q 959 1441 959 1056 
Q 959 750 1161 570 
Q 1363 391 1709 391 
Q 2188 391 2477 730 
Q 2766 1069 2766 1631 
L 2766 1759 
L 2194 1759 
z
M 3341 1997 
L 3341 0 
L 2766 0 
L 2766 531 
Q 2569 213 2275 61 
Q 1981 -91 1556 -91 
Q 1019 -91 701 211 
Q 384 513 384 1019 
Q 384 1609 779 1909 
Q 1175 2209 1959 2209 
L 2766 2209 
L 2766 2266 
Q 2766 2663 2505 2880 
Q 2244 3097 1772 3097 
Q 1472 3097 1187 3025 
Q 903 2953 641 2809 
L 641 3341 
Q 956 3463 1253 3523 
Q 1550 3584 1831 3584 
Q 2591 3584 2966 3190 
Q 3341 2797 3341 1997 
z
" transform="scale(0.015625)"/>
       <path id="DejaVuSans-75" d="M 544 1381 
L 544 3500 
L 1119 3500 
L 1119 1403 
Q 1119 906 1312 657 
Q 1506 409 1894 409 
Q 2359 409 2629 706 
Q 2900 1003 2900 1516 
L 2900 3500 
L 3475 3500 
L 3475 0 
L 2900 0 
L 2900 538 
Q 2691 219 2414 64 
Q 2138 -91 1772 -91 
Q 1169 -91 856 284 
Q 544 659 544 1381 
z
M 1991 3584 
L 1991 3584 
z
" transform="scale(0.015625)"/>
       <path id="DejaVuSans-72" d="M 2631 2963 
Q 2534 3019 2420 3045 
Q 2306 3072 2169 3072 
Q 1681 3072 1420 2755 
Q 1159 2438 1159 1844 
L 1159 0 
L 581 0 
L 581 3500 
L 1159 3500 
L 1159 2956 
Q 1341 3275 1631 3429 
Q 1922 3584 2338 3584 
Q 2397 3584 2469 3576 
Q 2541 3569 2628 3553 
L 2631 2963 
z
" transform="scale(0.015625)"/>
      </defs>
      <use xlink:href="#DejaVuSans-50"/>
      <use xlink:href="#DejaVuSans-6f" x="56.677734"/>
      <use xlink:href="#DejaVuSans-6c" x="117.859375"/>
      <use xlink:href="#DejaVuSans-69" x="145.642578"/>
      <use xlink:href="#DejaVuSans-63" x="173.425781"/>
      <use xlink:href="#DejaVuSans-79" x="228.40625"/>
      <use xlink:href="#DejaVuSans-20" x="287.585938"/>
      <use xlink:href="#DejaVuSans-76" x="319.373047"/>
      <use xlink:href="#DejaVuSans-61" x="378.552734"/>
      <use xlink:href="#DejaVuSans-6c" x="439.832031"/>
      <use xlink:href="#DejaVuSans-75" x="467.615234"/>
      <use xlink:href="#DejaVuSans-65" x="530.994141"/>
      <use xlink:href="#DejaVuSans-20" x="592.517578"/>
      <use xlink:href="#DejaVuSans-65" x="624.304688"/>
      <use xlink:href="#DejaVuSans-72" x="685.828125"/>
      <use xlink:href="#DejaVuSans-72" x="725.191406"/>
      <use xlink:href="#DejaVuSans-6f" x="764.054688"/>
      <use xlink:href="#DejaVuSans-72" x="825.236328"/>
     </g>
    </g>
   </g>
   <g id="line2d_29">
    <path d="M 69.218182 252.991821 
L 74.376888 256.824427 
L 79.535593 255.104042 
L 84.694299 252.974611 
L 89.853005 252.936509 
L 95.01171 252.91968 
L 100.170416 252.908818 
L 105.329122 252.908818 
L 110.487827 253.512049 
L 115.646533 253.275811 
L 120.805239 259.046614 
L 125.963945 252.935282 
L 131.12265 254.086448 
L 136.281356 252.908818 
L 141.440062 254.107726 
L 146.598767 254.678569 
L 151.757473 254.263009 
L 156.916179 254.584693 
L 162.074884 254.08784 
L 167.23359 254.87688 
L 172.392296 253.009116 
L 177.551002 206.222222 
L 182.709707 252.269196 
L 187.868413 254.702403 
L 193.027119 253.100982 
L 198.185824 252.943598 
L 203.34453 252.908818 
L 208.503236 252.969022 
L 213.661941 252.908818 
L 218.820647 254.064532 
L 223.979353 253.059076 
L 229.138059 231.101413 
L 234.296764 253.452359 
L 239.45547 250.207004 
L 244.614176 252.929635 
L 249.772881 252.908818 
L 254.931587 260.113418 
L 260.090293 252.913105 
L 265.248998 252.913258 
L 270.407704 252.908818 
L 275.56641 254.960485 
L 280.725116 253.047742 
L 285.883821 252.908818 
L 291.042527 252.908818 
L 296.201233 253.192927 
L 301.359938 253.715004 
L 306.518644 253.447097 
L 311.67735 254.812566 
L 316.836055 252.875351 
L 321.994761 246.201172 
L 327.153467 253.241351 
L 332.312173 252.908818 
L 337.470878 252.911286 
L 342.629584 252.91364 
L 347.78829 252.675504 
L 352.946995 252.908818 
L 358.105701 252.911139 
L 363.264407 252.911575 
L 368.423112 252.908818 
L 373.581818 252.908818 
" clip-path="url(#pb167680216)" style="fill: none; stroke: #9d02d7; stroke-width: 1.5; stroke-linecap: square"/>
    <defs>
     <path id="mfaaab97b69" d="M 0 -2 
L -2 2 
L 2 2 
z
" style="stroke: #9d02d7; stroke-linejoin: miter"/>
    </defs>
    <g clip-path="url(#pb167680216)">
     <use xlink:href="#mfaaab97b69" x="69.218182" y="252.991821" style="fill: #9d02d7; stroke: #9d02d7; stroke-linejoin: miter"/>
     <use xlink:href="#mfaaab97b69" x="74.376888" y="256.824427" style="fill: #9d02d7; stroke: #9d02d7; stroke-linejoin: miter"/>
     <use xlink:href="#mfaaab97b69" x="79.535593" y="255.104042" style="fill: #9d02d7; stroke: #9d02d7; stroke-linejoin: miter"/>
     <use xlink:href="#mfaaab97b69" x="84.694299" y="252.974611" style="fill: #9d02d7; stroke: #9d02d7; stroke-linejoin: miter"/>
     <use xlink:href="#mfaaab97b69" x="89.853005" y="252.936509" style="fill: #9d02d7; stroke: #9d02d7; stroke-linejoin: miter"/>
     <use xlink:href="#mfaaab97b69" x="95.01171" y="252.91968" style="fill: #9d02d7; stroke: #9d02d7; stroke-linejoin: miter"/>
     <use xlink:href="#mfaaab97b69" x="100.170416" y="252.908818" style="fill: #9d02d7; stroke: #9d02d7; stroke-linejoin: miter"/>
     <use xlink:href="#mfaaab97b69" x="105.329122" y="252.908818" style="fill: #9d02d7; stroke: #9d02d7; stroke-linejoin: miter"/>
     <use xlink:href="#mfaaab97b69" x="110.487827" y="253.512049" style="fill: #9d02d7; stroke: #9d02d7; stroke-linejoin: miter"/>
     <use xlink:href="#mfaaab97b69" x="115.646533" y="253.275811" style="fill: #9d02d7; stroke: #9d02d7; stroke-linejoin: miter"/>
     <use xlink:href="#mfaaab97b69" x="120.805239" y="259.046614" style="fill: #9d02d7; stroke: #9d02d7; stroke-linejoin: miter"/>
     <use xlink:href="#mfaaab97b69" x="125.963945" y="252.935282" style="fill: #9d02d7; stroke: #9d02d7; stroke-linejoin: miter"/>
     <use xlink:href="#mfaaab97b69" x="131.12265" y="254.086448" style="fill: #9d02d7; stroke: #9d02d7; stroke-linejoin: miter"/>
     <use xlink:href="#mfaaab97b69" x="136.281356" y="252.908818" style="fill: #9d02d7; stroke: #9d02d7; stroke-linejoin: miter"/>
     <use xlink:href="#mfaaab97b69" x="141.440062" y="254.107726" style="fill: #9d02d7; stroke: #9d02d7; stroke-linejoin: miter"/>
     <use xlink:href="#mfaaab97b69" x="146.598767" y="254.678569" style="fill: #9d02d7; stroke: #9d02d7; stroke-linejoin: miter"/>
     <use xlink:href="#mfaaab97b69" x="151.757473" y="254.263009" style="fill: #9d02d7; stroke: #9d02d7; stroke-linejoin: miter"/>
     <use xlink:href="#mfaaab97b69" x="156.916179" y="254.584693" style="fill: #9d02d7; stroke: #9d02d7; stroke-linejoin: miter"/>
     <use xlink:href="#mfaaab97b69" x="162.074884" y="254.08784" style="fill: #9d02d7; stroke: #9d02d7; stroke-linejoin: miter"/>
     <use xlink:href="#mfaaab97b69" x="167.23359" y="254.87688" style="fill: #9d02d7; stroke: #9d02d7; stroke-linejoin: miter"/>
     <use xlink:href="#mfaaab97b69" x="172.392296" y="253.009116" style="fill: #9d02d7; stroke: #9d02d7; stroke-linejoin: miter"/>
     <use xlink:href="#mfaaab97b69" x="177.551002" y="206.222222" style="fill: #9d02d7; stroke: #9d02d7; stroke-linejoin: miter"/>
     <use xlink:href="#mfaaab97b69" x="182.709707" y="252.269196" style="fill: #9d02d7; stroke: #9d02d7; stroke-linejoin: miter"/>
     <use xlink:href="#mfaaab97b69" x="187.868413" y="254.702403" style="fill: #9d02d7; stroke: #9d02d7; stroke-linejoin: miter"/>
     <use xlink:href="#mfaaab97b69" x="193.027119" y="253.100982" style="fill: #9d02d7; stroke: #9d02d7; stroke-linejoin: miter"/>
     <use xlink:href="#mfaaab97b69" x="198.185824" y="252.943598" style="fill: #9d02d7; stroke: #9d02d7; stroke-linejoin: miter"/>
     <use xlink:href="#mfaaab97b69" x="203.34453" y="252.908818" style="fill: #9d02d7; stroke: #9d02d7; stroke-linejoin: miter"/>
     <use xlink:href="#mfaaab97b69" x="208.503236" y="252.969022" style="fill: #9d02d7; stroke: #9d02d7; stroke-linejoin: miter"/>
     <use xlink:href="#mfaaab97b69" x="213.661941" y="252.908818" style="fill: #9d02d7; stroke: #9d02d7; stroke-linejoin: miter"/>
     <use xlink:href="#mfaaab97b69" x="218.820647" y="254.064532" style="fill: #9d02d7; stroke: #9d02d7; stroke-linejoin: miter"/>
     <use xlink:href="#mfaaab97b69" x="223.979353" y="253.059076" style="fill: #9d02d7; stroke: #9d02d7; stroke-linejoin: miter"/>
     <use xlink:href="#mfaaab97b69" x="229.138059" y="231.101413" style="fill: #9d02d7; stroke: #9d02d7; stroke-linejoin: miter"/>
     <use xlink:href="#mfaaab97b69" x="234.296764" y="253.452359" style="fill: #9d02d7; stroke: #9d02d7; stroke-linejoin: miter"/>
     <use xlink:href="#mfaaab97b69" x="239.45547" y="250.207004" style="fill: #9d02d7; stroke: #9d02d7; stroke-linejoin: miter"/>
     <use xlink:href="#mfaaab97b69" x="244.614176" y="252.929635" style="fill: #9d02d7; stroke: #9d02d7; stroke-linejoin: miter"/>
     <use xlink:href="#mfaaab97b69" x="249.772881" y="252.908818" style="fill: #9d02d7; stroke: #9d02d7; stroke-linejoin: miter"/>
     <use xlink:href="#mfaaab97b69" x="254.931587" y="260.113418" style="fill: #9d02d7; stroke: #9d02d7; stroke-linejoin: miter"/>
     <use xlink:href="#mfaaab97b69" x="260.090293" y="252.913105" style="fill: #9d02d7; stroke: #9d02d7; stroke-linejoin: miter"/>
     <use xlink:href="#mfaaab97b69" x="265.248998" y="252.913258" style="fill: #9d02d7; stroke: #9d02d7; stroke-linejoin: miter"/>
     <use xlink:href="#mfaaab97b69" x="270.407704" y="252.908818" style="fill: #9d02d7; stroke: #9d02d7; stroke-linejoin: miter"/>
     <use xlink:href="#mfaaab97b69" x="275.56641" y="254.960485" style="fill: #9d02d7; stroke: #9d02d7; stroke-linejoin: miter"/>
     <use xlink:href="#mfaaab97b69" x="280.725116" y="253.047742" style="fill: #9d02d7; stroke: #9d02d7; stroke-linejoin: miter"/>
     <use xlink:href="#mfaaab97b69" x="285.883821" y="252.908818" style="fill: #9d02d7; stroke: #9d02d7; stroke-linejoin: miter"/>
     <use xlink:href="#mfaaab97b69" x="291.042527" y="252.908818" style="fill: #9d02d7; stroke: #9d02d7; stroke-linejoin: miter"/>
     <use xlink:href="#mfaaab97b69" x="296.201233" y="253.192927" style="fill: #9d02d7; stroke: #9d02d7; stroke-linejoin: miter"/>
     <use xlink:href="#mfaaab97b69" x="301.359938" y="253.715004" style="fill: #9d02d7; stroke: #9d02d7; stroke-linejoin: miter"/>
     <use xlink:href="#mfaaab97b69" x="306.518644" y="253.447097" style="fill: #9d02d7; stroke: #9d02d7; stroke-linejoin: miter"/>
     <use xlink:href="#mfaaab97b69" x="311.67735" y="254.812566" style="fill: #9d02d7; stroke: #9d02d7; stroke-linejoin: miter"/>
     <use xlink:href="#mfaaab97b69" x="316.836055" y="252.875351" style="fill: #9d02d7; stroke: #9d02d7; stroke-linejoin: miter"/>
     <use xlink:href="#mfaaab97b69" x="321.994761" y="246.201172" style="fill: #9d02d7; stroke: #9d02d7; stroke-linejoin: miter"/>
     <use xlink:href="#mfaaab97b69" x="327.153467" y="253.241351" style="fill: #9d02d7; stroke: #9d02d7; stroke-linejoin: miter"/>
     <use xlink:href="#mfaaab97b69" x="332.312173" y="252.908818" style="fill: #9d02d7; stroke: #9d02d7; stroke-linejoin: miter"/>
     <use xlink:href="#mfaaab97b69" x="337.470878" y="252.911286" style="fill: #9d02d7; stroke: #9d02d7; stroke-linejoin: miter"/>
     <use xlink:href="#mfaaab97b69" x="342.629584" y="252.91364" style="fill: #9d02d7; stroke: #9d02d7; stroke-linejoin: miter"/>
     <use xlink:href="#mfaaab97b69" x="347.78829" y="252.675504" style="fill: #9d02d7; stroke: #9d02d7; stroke-linejoin: miter"/>
     <use xlink:href="#mfaaab97b69" x="352.946995" y="252.908818" style="fill: #9d02d7; stroke: #9d02d7; stroke-linejoin: miter"/>
     <use xlink:href="#mfaaab97b69" x="358.105701" y="252.911139" style="fill: #9d02d7; stroke: #9d02d7; stroke-linejoin: miter"/>
     <use xlink:href="#mfaaab97b69" x="363.264407" y="252.911575" style="fill: #9d02d7; stroke: #9d02d7; stroke-linejoin: miter"/>
     <use xlink:href="#mfaaab97b69" x="368.423112" y="252.908818" style="fill: #9d02d7; stroke: #9d02d7; stroke-linejoin: miter"/>
     <use xlink:href="#mfaaab97b69" x="373.581818" y="252.908818" style="fill: #9d02d7; stroke: #9d02d7; stroke-linejoin: miter"/>
    </g>
   </g>
   <g id="line2d_30">
    <path d="M 69.218182 252.908818 
L 74.376888 252.908818 
L 79.535593 252.85846 
L 84.694299 254.677249 
L 89.853005 254.846418 
L 95.01171 252.908818 
L 100.170416 252.923168 
L 105.329122 252.908818 
L 110.487827 253.333911 
L 115.646533 252.916315 
L 120.805239 252.908818 
L 125.963945 252.910693 
L 131.12265 252.912313 
L 136.281356 252.908818 
L 141.440062 252.908818 
L 146.598767 252.908818 
L 151.757473 252.914464 
L 156.916179 252.908818 
L 162.074884 240.433209 
L 167.23359 252.381291 
L 172.392296 254.740319 
L 177.551002 250.602823 
L 182.709707 252.488701 
L 187.868413 246.921848 
L 193.027119 245.28142 
L 198.185824 251.930059 
L 203.34453 254.43284 
L 208.503236 253.81731 
L 213.661941 254.874062 
L 218.820647 254.690921 
L 223.979353 254.87793 
L 229.138059 248.092099 
L 234.296764 251.820807 
L 239.45547 253.813956 
L 244.614176 252.630885 
L 249.772881 255.089161 
L 254.931587 253.673956 
L 260.090293 254.462874 
L 265.248998 253.87921 
L 270.407704 254.277012 
L 275.56641 255.016947 
L 280.725116 252.815358 
L 285.883821 247.980842 
L 291.042527 255.890362 
L 296.201233 255.481087 
L 301.359938 242.853518 
L 306.518644 241.327128 
L 311.67735 238.510712 
L 316.836055 238.744678 
L 321.994761 254.272701 
L 327.153467 254.456058 
L 332.312173 253.718669 
L 337.470878 237.119448 
L 342.629584 252.033753 
L 347.78829 244.29258 
L 352.946995 251.252914 
L 358.105701 244.890107 
L 363.264407 225.562552 
L 368.423112 224.116209 
L 373.581818 223.035714 
" clip-path="url(#pb167680216)" style="fill: none; stroke: #0000ff; stroke-width: 1.5; stroke-linecap: square"/>
    <defs>
     <path id="md44234d638" d="M 0 2 
C 0.530406 2 1.03916 1.789267 1.414214 1.414214 
C 1.789267 1.03916 2 0.530406 2 0 
C 2 -0.530406 1.789267 -1.03916 1.414214 -1.414214 
C 1.03916 -1.789267 0.530406 -2 0 -2 
C -0.530406 -2 -1.03916 -1.789267 -1.414214 -1.414214 
C -1.789267 -1.03916 -2 -0.530406 -2 0 
C -2 0.530406 -1.789267 1.03916 -1.414214 1.414214 
C -1.03916 1.789267 -0.530406 2 0 2 
z
" style="stroke: #0000ff"/>
    </defs>
    <g clip-path="url(#pb167680216)">
     <use xlink:href="#md44234d638" x="69.218182" y="252.908818" style="fill: #0000ff; stroke: #0000ff"/>
     <use xlink:href="#md44234d638" x="74.376888" y="252.908818" style="fill: #0000ff; stroke: #0000ff"/>
     <use xlink:href="#md44234d638" x="79.535593" y="252.85846" style="fill: #0000ff; stroke: #0000ff"/>
     <use xlink:href="#md44234d638" x="84.694299" y="254.677249" style="fill: #0000ff; stroke: #0000ff"/>
     <use xlink:href="#md44234d638" x="89.853005" y="254.846418" style="fill: #0000ff; stroke: #0000ff"/>
     <use xlink:href="#md44234d638" x="95.01171" y="252.908818" style="fill: #0000ff; stroke: #0000ff"/>
     <use xlink:href="#md44234d638" x="100.170416" y="252.923168" style="fill: #0000ff; stroke: #0000ff"/>
     <use xlink:href="#md44234d638" x="105.329122" y="252.908818" style="fill: #0000ff; stroke: #0000ff"/>
     <use xlink:href="#md44234d638" x="110.487827" y="253.333911" style="fill: #0000ff; stroke: #0000ff"/>
     <use xlink:href="#md44234d638" x="115.646533" y="252.916315" style="fill: #0000ff; stroke: #0000ff"/>
     <use xlink:href="#md44234d638" x="120.805239" y="252.908818" style="fill: #0000ff; stroke: #0000ff"/>
     <use xlink:href="#md44234d638" x="125.963945" y="252.910693" style="fill: #0000ff; stroke: #0000ff"/>
     <use xlink:href="#md44234d638" x="131.12265" y="252.912313" style="fill: #0000ff; stroke: #0000ff"/>
     <use xlink:href="#md44234d638" x="136.281356" y="252.908818" style="fill: #0000ff; stroke: #0000ff"/>
     <use xlink:href="#md44234d638" x="141.440062" y="252.908818" style="fill: #0000ff; stroke: #0000ff"/>
     <use xlink:href="#md44234d638" x="146.598767" y="252.908818" style="fill: #0000ff; stroke: #0000ff"/>
     <use xlink:href="#md44234d638" x="151.757473" y="252.914464" style="fill: #0000ff; stroke: #0000ff"/>
     <use xlink:href="#md44234d638" x="156.916179" y="252.908818" style="fill: #0000ff; stroke: #0000ff"/>
     <use xlink:href="#md44234d638" x="162.074884" y="240.433209" style="fill: #0000ff; stroke: #0000ff"/>
     <use xlink:href="#md44234d638" x="167.23359" y="252.381291" style="fill: #0000ff; stroke: #0000ff"/>
     <use xlink:href="#md44234d638" x="172.392296" y="254.740319" style="fill: #0000ff; stroke: #0000ff"/>
     <use xlink:href="#md44234d638" x="177.551002" y="250.602823" style="fill: #0000ff; stroke: #0000ff"/>
     <use xlink:href="#md44234d638" x="182.709707" y="252.488701" style="fill: #0000ff; stroke: #0000ff"/>
     <use xlink:href="#md44234d638" x="187.868413" y="246.921848" style="fill: #0000ff; stroke: #0000ff"/>
     <use xlink:href="#md44234d638" x="193.027119" y="245.28142" style="fill: #0000ff; stroke: #0000ff"/>
     <use xlink:href="#md44234d638" x="198.185824" y="251.930059" style="fill: #0000ff; stroke: #0000ff"/>
     <use xlink:href="#md44234d638" x="203.34453" y="254.43284" style="fill: #0000ff; stroke: #0000ff"/>
     <use xlink:href="#md44234d638" x="208.503236" y="253.81731" style="fill: #0000ff; stroke: #0000ff"/>
     <use xlink:href="#md44234d638" x="213.661941" y="254.874062" style="fill: #0000ff; stroke: #0000ff"/>
     <use xlink:href="#md44234d638" x="218.820647" y="254.690921" style="fill: #0000ff; stroke: #0000ff"/>
     <use xlink:href="#md44234d638" x="223.979353" y="254.87793" style="fill: #0000ff; stroke: #0000ff"/>
     <use xlink:href="#md44234d638" x="229.138059" y="248.092099" style="fill: #0000ff; stroke: #0000ff"/>
     <use xlink:href="#md44234d638" x="234.296764" y="251.820807" style="fill: #0000ff; stroke: #0000ff"/>
     <use xlink:href="#md44234d638" x="239.45547" y="253.813956" style="fill: #0000ff; stroke: #0000ff"/>
     <use xlink:href="#md44234d638" x="244.614176" y="252.630885" style="fill: #0000ff; stroke: #0000ff"/>
     <use xlink:href="#md44234d638" x="249.772881" y="255.089161" style="fill: #0000ff; stroke: #0000ff"/>
     <use xlink:href="#md44234d638" x="254.931587" y="253.673956" style="fill: #0000ff; stroke: #0000ff"/>
     <use xlink:href="#md44234d638" x="260.090293" y="254.462874" style="fill: #0000ff; stroke: #0000ff"/>
     <use xlink:href="#md44234d638" x="265.248998" y="253.87921" style="fill: #0000ff; stroke: #0000ff"/>
     <use xlink:href="#md44234d638" x="270.407704" y="254.277012" style="fill: #0000ff; stroke: #0000ff"/>
     <use xlink:href="#md44234d638" x="275.56641" y="255.016947" style="fill: #0000ff; stroke: #0000ff"/>
     <use xlink:href="#md44234d638" x="280.725116" y="252.815358" style="fill: #0000ff; stroke: #0000ff"/>
     <use xlink:href="#md44234d638" x="285.883821" y="247.980842" style="fill: #0000ff; stroke: #0000ff"/>
     <use xlink:href="#md44234d638" x="291.042527" y="255.890362" style="fill: #0000ff; stroke: #0000ff"/>
     <use xlink:href="#md44234d638" x="296.201233" y="255.481087" style="fill: #0000ff; stroke: #0000ff"/>
     <use xlink:href="#md44234d638" x="301.359938" y="242.853518" style="fill: #0000ff; stroke: #0000ff"/>
     <use xlink:href="#md44234d638" x="306.518644" y="241.327128" style="fill: #0000ff; stroke: #0000ff"/>
     <use xlink:href="#md44234d638" x="311.67735" y="238.510712" style="fill: #0000ff; stroke: #0000ff"/>
     <use xlink:href="#md44234d638" x="316.836055" y="238.744678" style="fill: #0000ff; stroke: #0000ff"/>
     <use xlink:href="#md44234d638" x="321.994761" y="254.272701" style="fill: #0000ff; stroke: #0000ff"/>
     <use xlink:href="#md44234d638" x="327.153467" y="254.456058" style="fill: #0000ff; stroke: #0000ff"/>
     <use xlink:href="#md44234d638" x="332.312173" y="253.718669" style="fill: #0000ff; stroke: #0000ff"/>
     <use xlink:href="#md44234d638" x="337.470878" y="237.119448" style="fill: #0000ff; stroke: #0000ff"/>
     <use xlink:href="#md44234d638" x="342.629584" y="252.033753" style="fill: #0000ff; stroke: #0000ff"/>
     <use xlink:href="#md44234d638" x="347.78829" y="244.29258" style="fill: #0000ff; stroke: #0000ff"/>
     <use xlink:href="#md44234d638" x="352.946995" y="251.252914" style="fill: #0000ff; stroke: #0000ff"/>
     <use xlink:href="#md44234d638" x="358.105701" y="244.890107" style="fill: #0000ff; stroke: #0000ff"/>
     <use xlink:href="#md44234d638" x="363.264407" y="225.562552" style="fill: #0000ff; stroke: #0000ff"/>
     <use xlink:href="#md44234d638" x="368.423112" y="224.116209" style="fill: #0000ff; stroke: #0000ff"/>
     <use xlink:href="#md44234d638" x="373.581818" y="223.035714" style="fill: #0000ff; stroke: #0000ff"/>
    </g>
   </g>
   <g id="line2d_31">
    <path d="M 69.218182 253.031105 
L 74.376888 209.389318 
L 79.535593 239.879667 
L 84.694299 212.38825 
L 89.853005 199.769809 
L 95.01171 210.005786 
L 100.170416 206.951584 
L 105.329122 215.147017 
L 110.487827 188.043901 
L 115.646533 206.735423 
L 120.805239 208.256779 
L 125.963945 196.501156 
L 131.12265 221.197574 
L 136.281356 197.368558 
L 141.440062 214.909611 
L 146.598767 222.304398 
L 151.757473 209.58254 
L 156.916179 214.994343 
L 162.074884 172.483811 
L 167.23359 188.062089 
L 172.392296 190.065059 
L 177.551002 191.264804 
L 182.709707 188.067047 
L 187.868413 186.804429 
L 193.027119 188.458901 
L 198.185824 190.141115 
L 203.34453 188.460772 
L 208.503236 190.060557 
L 213.661941 186.810242 
L 218.820647 188.065004 
L 223.979353 188.463504 
L 229.138059 191.38058 
L 234.296764 195.215897 
L 239.45547 197.129723 
L 244.614176 194.882041 
L 249.772881 186.805062 
L 254.931587 193.609438 
L 260.090293 187.860529 
L 265.248998 188.059579 
L 270.407704 191.213845 
L 275.56641 188.061967 
L 280.725116 188.611341 
L 285.883821 192.37938 
L 291.042527 188.05625 
L 296.201233 193.868515 
L 301.359938 212.503864 
L 306.518644 255.311352 
L 311.67735 255.308631 
L 316.836055 255.305502 
L 321.994761 255.322105 
L 327.153467 255.309916 
L 332.312173 215.090298 
L 337.470878 224.852544 
L 342.629584 255.444549 
L 347.78829 219.847395 
L 352.946995 255.312346 
L 358.105701 255.305356 
L 363.264407 255.311263 
L 368.423112 255.323086 
L 373.581818 255.320847 
" clip-path="url(#pb167680216)" style="fill: none; stroke: #ff7763; stroke-width: 1.5; stroke-linecap: square"/>
    <defs>
     <path id="m3aad9efef6" d="M -2 2 
L 2 -2 
M -2 -2 
L 2 2 
" style="stroke: #ff7763"/>
    </defs>
    <g clip-path="url(#pb167680216)">
     <use xlink:href="#m3aad9efef6" x="69.218182" y="253.031105" style="fill: #ff7763; stroke: #ff7763"/>
     <use xlink:href="#m3aad9efef6" x="74.376888" y="209.389318" style="fill: #ff7763; stroke: #ff7763"/>
     <use xlink:href="#m3aad9efef6" x="79.535593" y="239.879667" style="fill: #ff7763; stroke: #ff7763"/>
     <use xlink:href="#m3aad9efef6" x="84.694299" y="212.38825" style="fill: #ff7763; stroke: #ff7763"/>
     <use xlink:href="#m3aad9efef6" x="89.853005" y="199.769809" style="fill: #ff7763; stroke: #ff7763"/>
     <use xlink:href="#m3aad9efef6" x="95.01171" y="210.005786" style="fill: #ff7763; stroke: #ff7763"/>
     <use xlink:href="#m3aad9efef6" x="100.170416" y="206.951584" style="fill: #ff7763; stroke: #ff7763"/>
     <use xlink:href="#m3aad9efef6" x="105.329122" y="215.147017" style="fill: #ff7763; stroke: #ff7763"/>
     <use xlink:href="#m3aad9efef6" x="110.487827" y="188.043901" style="fill: #ff7763; stroke: #ff7763"/>
     <use xlink:href="#m3aad9efef6" x="115.646533" y="206.735423" style="fill: #ff7763; stroke: #ff7763"/>
     <use xlink:href="#m3aad9efef6" x="120.805239" y="208.256779" style="fill: #ff7763; stroke: #ff7763"/>
     <use xlink:href="#m3aad9efef6" x="125.963945" y="196.501156" style="fill: #ff7763; stroke: #ff7763"/>
     <use xlink:href="#m3aad9efef6" x="131.12265" y="221.197574" style="fill: #ff7763; stroke: #ff7763"/>
     <use xlink:href="#m3aad9efef6" x="136.281356" y="197.368558" style="fill: #ff7763; stroke: #ff7763"/>
     <use xlink:href="#m3aad9efef6" x="141.440062" y="214.909611" style="fill: #ff7763; stroke: #ff7763"/>
     <use xlink:href="#m3aad9efef6" x="146.598767" y="222.304398" style="fill: #ff7763; stroke: #ff7763"/>
     <use xlink:href="#m3aad9efef6" x="151.757473" y="209.58254" style="fill: #ff7763; stroke: #ff7763"/>
     <use xlink:href="#m3aad9efef6" x="156.916179" y="214.994343" style="fill: #ff7763; stroke: #ff7763"/>
     <use xlink:href="#m3aad9efef6" x="162.074884" y="172.483811" style="fill: #ff7763; stroke: #ff7763"/>
     <use xlink:href="#m3aad9efef6" x="167.23359" y="188.062089" style="fill: #ff7763; stroke: #ff7763"/>
     <use xlink:href="#m3aad9efef6" x="172.392296" y="190.065059" style="fill: #ff7763; stroke: #ff7763"/>
     <use xlink:href="#m3aad9efef6" x="177.551002" y="191.264804" style="fill: #ff7763; stroke: #ff7763"/>
     <use xlink:href="#m3aad9efef6" x="182.709707" y="188.067047" style="fill: #ff7763; stroke: #ff7763"/>
     <use xlink:href="#m3aad9efef6" x="187.868413" y="186.804429" style="fill: #ff7763; stroke: #ff7763"/>
     <use xlink:href="#m3aad9efef6" x="193.027119" y="188.458901" style="fill: #ff7763; stroke: #ff7763"/>
     <use xlink:href="#m3aad9efef6" x="198.185824" y="190.141115" style="fill: #ff7763; stroke: #ff7763"/>
     <use xlink:href="#m3aad9efef6" x="203.34453" y="188.460772" style="fill: #ff7763; stroke: #ff7763"/>
     <use xlink:href="#m3aad9efef6" x="208.503236" y="190.060557" style="fill: #ff7763; stroke: #ff7763"/>
     <use xlink:href="#m3aad9efef6" x="213.661941" y="186.810242" style="fill: #ff7763; stroke: #ff7763"/>
     <use xlink:href="#m3aad9efef6" x="218.820647" y="188.065004" style="fill: #ff7763; stroke: #ff7763"/>
     <use xlink:href="#m3aad9efef6" x="223.979353" y="188.463504" style="fill: #ff7763; stroke: #ff7763"/>
     <use xlink:href="#m3aad9efef6" x="229.138059" y="191.38058" style="fill: #ff7763; stroke: #ff7763"/>
     <use xlink:href="#m3aad9efef6" x="234.296764" y="195.215897" style="fill: #ff7763; stroke: #ff7763"/>
     <use xlink:href="#m3aad9efef6" x="239.45547" y="197.129723" style="fill: #ff7763; stroke: #ff7763"/>
     <use xlink:href="#m3aad9efef6" x="244.614176" y="194.882041" style="fill: #ff7763; stroke: #ff7763"/>
     <use xlink:href="#m3aad9efef6" x="249.772881" y="186.805062" style="fill: #ff7763; stroke: #ff7763"/>
     <use xlink:href="#m3aad9efef6" x="254.931587" y="193.609438" style="fill: #ff7763; stroke: #ff7763"/>
     <use xlink:href="#m3aad9efef6" x="260.090293" y="187.860529" style="fill: #ff7763; stroke: #ff7763"/>
     <use xlink:href="#m3aad9efef6" x="265.248998" y="188.059579" style="fill: #ff7763; stroke: #ff7763"/>
     <use xlink:href="#m3aad9efef6" x="270.407704" y="191.213845" style="fill: #ff7763; stroke: #ff7763"/>
     <use xlink:href="#m3aad9efef6" x="275.56641" y="188.061967" style="fill: #ff7763; stroke: #ff7763"/>
     <use xlink:href="#m3aad9efef6" x="280.725116" y="188.611341" style="fill: #ff7763; stroke: #ff7763"/>
     <use xlink:href="#m3aad9efef6" x="285.883821" y="192.37938" style="fill: #ff7763; stroke: #ff7763"/>
     <use xlink:href="#m3aad9efef6" x="291.042527" y="188.05625" style="fill: #ff7763; stroke: #ff7763"/>
     <use xlink:href="#m3aad9efef6" x="296.201233" y="193.868515" style="fill: #ff7763; stroke: #ff7763"/>
     <use xlink:href="#m3aad9efef6" x="301.359938" y="212.503864" style="fill: #ff7763; stroke: #ff7763"/>
     <use xlink:href="#m3aad9efef6" x="306.518644" y="255.311352" style="fill: #ff7763; stroke: #ff7763"/>
     <use xlink:href="#m3aad9efef6" x="311.67735" y="255.308631" style="fill: #ff7763; stroke: #ff7763"/>
     <use xlink:href="#m3aad9efef6" x="316.836055" y="255.305502" style="fill: #ff7763; stroke: #ff7763"/>
     <use xlink:href="#m3aad9efef6" x="321.994761" y="255.322105" style="fill: #ff7763; stroke: #ff7763"/>
     <use xlink:href="#m3aad9efef6" x="327.153467" y="255.309916" style="fill: #ff7763; stroke: #ff7763"/>
     <use xlink:href="#m3aad9efef6" x="332.312173" y="215.090298" style="fill: #ff7763; stroke: #ff7763"/>
     <use xlink:href="#m3aad9efef6" x="337.470878" y="224.852544" style="fill: #ff7763; stroke: #ff7763"/>
     <use xlink:href="#m3aad9efef6" x="342.629584" y="255.444549" style="fill: #ff7763; stroke: #ff7763"/>
     <use xlink:href="#m3aad9efef6" x="347.78829" y="219.847395" style="fill: #ff7763; stroke: #ff7763"/>
     <use xlink:href="#m3aad9efef6" x="352.946995" y="255.312346" style="fill: #ff7763; stroke: #ff7763"/>
     <use xlink:href="#m3aad9efef6" x="358.105701" y="255.305356" style="fill: #ff7763; stroke: #ff7763"/>
     <use xlink:href="#m3aad9efef6" x="363.264407" y="255.311263" style="fill: #ff7763; stroke: #ff7763"/>
     <use xlink:href="#m3aad9efef6" x="368.423112" y="255.323086" style="fill: #ff7763; stroke: #ff7763"/>
     <use xlink:href="#m3aad9efef6" x="373.581818" y="255.320847" style="fill: #ff7763; stroke: #ff7763"/>
    </g>
   </g>
   <g id="line2d_32">
    <path d="M 69.218182 252.927821 
L 74.376888 252.908818 
L 79.535593 253.287892 
L 84.694299 245.118544 
L 89.853005 226.444734 
L 95.01171 223.111589 
L 100.170416 222.633692 
L 105.329122 228.359716 
L 110.487827 229.267912 
L 115.646533 229.078017 
L 120.805239 229.266683 
L 125.963945 227.195407 
L 131.12265 227.133315 
L 136.281356 222.795001 
L 141.440062 229.90427 
L 146.598767 237.709106 
L 151.757473 222.786641 
L 156.916179 222.865034 
L 162.074884 229.839642 
L 167.23359 222.786175 
L 172.392296 222.795571 
L 177.551002 238.292455 
L 182.709707 226.171151 
L 187.868413 228.049676 
L 193.027119 240.5016 
L 198.185824 223.559198 
L 203.34453 230.554566 
L 208.503236 225.509085 
L 213.661941 225.509085 
L 218.820647 230.768203 
L 223.979353 223.262588 
L 229.138059 223.262127 
L 234.296764 238.282866 
L 239.45547 230.866663 
L 244.614176 238.256813 
L 249.772881 223.100381 
L 254.931587 225.559964 
L 260.090293 223.055208 
L 265.248998 223.120491 
L 270.407704 225.559964 
L 275.56641 229.951643 
L 280.725116 236.479684 
L 285.883821 238.263696 
L 291.042527 236.644202 
L 296.201233 225.904341 
L 301.359938 223.188931 
L 306.518644 225.594746 
L 311.67735 229.997324 
L 316.836055 225.904341 
L 321.994761 229.930972 
L 327.153467 223.166636 
L 332.312173 238.26752 
L 337.470878 238.26752 
L 342.629584 225.538872 
L 347.78829 225.480599 
L 352.946995 225.904341 
L 358.105701 223.188931 
L 363.264407 230.766241 
L 368.423112 236.479684 
L 373.581818 223.514605 
" clip-path="url(#pb167680216)" style="fill: none; stroke: #ffac1e; stroke-width: 1.5; stroke-linecap: square"/>
    <defs>
     <path id="m4b03c770e4" d="M 0 -2 
L -0.449028 -0.618034 
L -1.902113 -0.618034 
L -0.726543 0.236068 
L -1.175571 1.618034 
L -0 0.763932 
L 1.175571 1.618034 
L 0.726543 0.236068 
L 1.902113 -0.618034 
L 0.449028 -0.618034 
z
" style="stroke: #ffac1e; stroke-linejoin: bevel"/>
    </defs>
    <g clip-path="url(#pb167680216)">
     <use xlink:href="#m4b03c770e4" x="69.218182" y="252.927821" style="fill: #ffac1e; stroke: #ffac1e; stroke-linejoin: bevel"/>
     <use xlink:href="#m4b03c770e4" x="74.376888" y="252.908818" style="fill: #ffac1e; stroke: #ffac1e; stroke-linejoin: bevel"/>
     <use xlink:href="#m4b03c770e4" x="79.535593" y="253.287892" style="fill: #ffac1e; stroke: #ffac1e; stroke-linejoin: bevel"/>
     <use xlink:href="#m4b03c770e4" x="84.694299" y="245.118544" style="fill: #ffac1e; stroke: #ffac1e; stroke-linejoin: bevel"/>
     <use xlink:href="#m4b03c770e4" x="89.853005" y="226.444734" style="fill: #ffac1e; stroke: #ffac1e; stroke-linejoin: bevel"/>
     <use xlink:href="#m4b03c770e4" x="95.01171" y="223.111589" style="fill: #ffac1e; stroke: #ffac1e; stroke-linejoin: bevel"/>
     <use xlink:href="#m4b03c770e4" x="100.170416" y="222.633692" style="fill: #ffac1e; stroke: #ffac1e; stroke-linejoin: bevel"/>
     <use xlink:href="#m4b03c770e4" x="105.329122" y="228.359716" style="fill: #ffac1e; stroke: #ffac1e; stroke-linejoin: bevel"/>
     <use xlink:href="#m4b03c770e4" x="110.487827" y="229.267912" style="fill: #ffac1e; stroke: #ffac1e; stroke-linejoin: bevel"/>
     <use xlink:href="#m4b03c770e4" x="115.646533" y="229.078017" style="fill: #ffac1e; stroke: #ffac1e; stroke-linejoin: bevel"/>
     <use xlink:href="#m4b03c770e4" x="120.805239" y="229.266683" style="fill: #ffac1e; stroke: #ffac1e; stroke-linejoin: bevel"/>
     <use xlink:href="#m4b03c770e4" x="125.963945" y="227.195407" style="fill: #ffac1e; stroke: #ffac1e; stroke-linejoin: bevel"/>
     <use xlink:href="#m4b03c770e4" x="131.12265" y="227.133315" style="fill: #ffac1e; stroke: #ffac1e; stroke-linejoin: bevel"/>
     <use xlink:href="#m4b03c770e4" x="136.281356" y="222.795001" style="fill: #ffac1e; stroke: #ffac1e; stroke-linejoin: bevel"/>
     <use xlink:href="#m4b03c770e4" x="141.440062" y="229.90427" style="fill: #ffac1e; stroke: #ffac1e; stroke-linejoin: bevel"/>
     <use xlink:href="#m4b03c770e4" x="146.598767" y="237.709106" style="fill: #ffac1e; stroke: #ffac1e; stroke-linejoin: bevel"/>
     <use xlink:href="#m4b03c770e4" x="151.757473" y="222.786641" style="fill: #ffac1e; stroke: #ffac1e; stroke-linejoin: bevel"/>
     <use xlink:href="#m4b03c770e4" x="156.916179" y="222.865034" style="fill: #ffac1e; stroke: #ffac1e; stroke-linejoin: bevel"/>
     <use xlink:href="#m4b03c770e4" x="162.074884" y="229.839642" style="fill: #ffac1e; stroke: #ffac1e; stroke-linejoin: bevel"/>
     <use xlink:href="#m4b03c770e4" x="167.23359" y="222.786175" style="fill: #ffac1e; stroke: #ffac1e; stroke-linejoin: bevel"/>
     <use xlink:href="#m4b03c770e4" x="172.392296" y="222.795571" style="fill: #ffac1e; stroke: #ffac1e; stroke-linejoin: bevel"/>
     <use xlink:href="#m4b03c770e4" x="177.551002" y="238.292455" style="fill: #ffac1e; stroke: #ffac1e; stroke-linejoin: bevel"/>
     <use xlink:href="#m4b03c770e4" x="182.709707" y="226.171151" style="fill: #ffac1e; stroke: #ffac1e; stroke-linejoin: bevel"/>
     <use xlink:href="#m4b03c770e4" x="187.868413" y="228.049676" style="fill: #ffac1e; stroke: #ffac1e; stroke-linejoin: bevel"/>
     <use xlink:href="#m4b03c770e4" x="193.027119" y="240.5016" style="fill: #ffac1e; stroke: #ffac1e; stroke-linejoin: bevel"/>
     <use xlink:href="#m4b03c770e4" x="198.185824" y="223.559198" style="fill: #ffac1e; stroke: #ffac1e; stroke-linejoin: bevel"/>
     <use xlink:href="#m4b03c770e4" x="203.34453" y="230.554566" style="fill: #ffac1e; stroke: #ffac1e; stroke-linejoin: bevel"/>
     <use xlink:href="#m4b03c770e4" x="208.503236" y="225.509085" style="fill: #ffac1e; stroke: #ffac1e; stroke-linejoin: bevel"/>
     <use xlink:href="#m4b03c770e4" x="213.661941" y="225.509085" style="fill: #ffac1e; stroke: #ffac1e; stroke-linejoin: bevel"/>
     <use xlink:href="#m4b03c770e4" x="218.820647" y="230.768203" style="fill: #ffac1e; stroke: #ffac1e; stroke-linejoin: bevel"/>
     <use xlink:href="#m4b03c770e4" x="223.979353" y="223.262588" style="fill: #ffac1e; stroke: #ffac1e; stroke-linejoin: bevel"/>
     <use xlink:href="#m4b03c770e4" x="229.138059" y="223.262127" style="fill: #ffac1e; stroke: #ffac1e; stroke-linejoin: bevel"/>
     <use xlink:href="#m4b03c770e4" x="234.296764" y="238.282866" style="fill: #ffac1e; stroke: #ffac1e; stroke-linejoin: bevel"/>
     <use xlink:href="#m4b03c770e4" x="239.45547" y="230.866663" style="fill: #ffac1e; stroke: #ffac1e; stroke-linejoin: bevel"/>
     <use xlink:href="#m4b03c770e4" x="244.614176" y="238.256813" style="fill: #ffac1e; stroke: #ffac1e; stroke-linejoin: bevel"/>
     <use xlink:href="#m4b03c770e4" x="249.772881" y="223.100381" style="fill: #ffac1e; stroke: #ffac1e; stroke-linejoin: bevel"/>
     <use xlink:href="#m4b03c770e4" x="254.931587" y="225.559964" style="fill: #ffac1e; stroke: #ffac1e; stroke-linejoin: bevel"/>
     <use xlink:href="#m4b03c770e4" x="260.090293" y="223.055208" style="fill: #ffac1e; stroke: #ffac1e; stroke-linejoin: bevel"/>
     <use xlink:href="#m4b03c770e4" x="265.248998" y="223.120491" style="fill: #ffac1e; stroke: #ffac1e; stroke-linejoin: bevel"/>
     <use xlink:href="#m4b03c770e4" x="270.407704" y="225.559964" style="fill: #ffac1e; stroke: #ffac1e; stroke-linejoin: bevel"/>
     <use xlink:href="#m4b03c770e4" x="275.56641" y="229.951643" style="fill: #ffac1e; stroke: #ffac1e; stroke-linejoin: bevel"/>
     <use xlink:href="#m4b03c770e4" x="280.725116" y="236.479684" style="fill: #ffac1e; stroke: #ffac1e; stroke-linejoin: bevel"/>
     <use xlink:href="#m4b03c770e4" x="285.883821" y="238.263696" style="fill: #ffac1e; stroke: #ffac1e; stroke-linejoin: bevel"/>
     <use xlink:href="#m4b03c770e4" x="291.042527" y="236.644202" style="fill: #ffac1e; stroke: #ffac1e; stroke-linejoin: bevel"/>
     <use xlink:href="#m4b03c770e4" x="296.201233" y="225.904341" style="fill: #ffac1e; stroke: #ffac1e; stroke-linejoin: bevel"/>
     <use xlink:href="#m4b03c770e4" x="301.359938" y="223.188931" style="fill: #ffac1e; stroke: #ffac1e; stroke-linejoin: bevel"/>
     <use xlink:href="#m4b03c770e4" x="306.518644" y="225.594746" style="fill: #ffac1e; stroke: #ffac1e; stroke-linejoin: bevel"/>
     <use xlink:href="#m4b03c770e4" x="311.67735" y="229.997324" style="fill: #ffac1e; stroke: #ffac1e; stroke-linejoin: bevel"/>
     <use xlink:href="#m4b03c770e4" x="316.836055" y="225.904341" style="fill: #ffac1e; stroke: #ffac1e; stroke-linejoin: bevel"/>
     <use xlink:href="#m4b03c770e4" x="321.994761" y="229.930972" style="fill: #ffac1e; stroke: #ffac1e; stroke-linejoin: bevel"/>
     <use xlink:href="#m4b03c770e4" x="327.153467" y="223.166636" style="fill: #ffac1e; stroke: #ffac1e; stroke-linejoin: bevel"/>
     <use xlink:href="#m4b03c770e4" x="332.312173" y="238.26752" style="fill: #ffac1e; stroke: #ffac1e; stroke-linejoin: bevel"/>
     <use xlink:href="#m4b03c770e4" x="337.470878" y="238.26752" style="fill: #ffac1e; stroke: #ffac1e; stroke-linejoin: bevel"/>
     <use xlink:href="#m4b03c770e4" x="342.629584" y="225.538872" style="fill: #ffac1e; stroke: #ffac1e; stroke-linejoin: bevel"/>
     <use xlink:href="#m4b03c770e4" x="347.78829" y="225.480599" style="fill: #ffac1e; stroke: #ffac1e; stroke-linejoin: bevel"/>
     <use xlink:href="#m4b03c770e4" x="352.946995" y="225.904341" style="fill: #ffac1e; stroke: #ffac1e; stroke-linejoin: bevel"/>
     <use xlink:href="#m4b03c770e4" x="358.105701" y="223.188931" style="fill: #ffac1e; stroke: #ffac1e; stroke-linejoin: bevel"/>
     <use xlink:href="#m4b03c770e4" x="363.264407" y="230.766241" style="fill: #ffac1e; stroke: #ffac1e; stroke-linejoin: bevel"/>
     <use xlink:href="#m4b03c770e4" x="368.423112" y="236.479684" style="fill: #ffac1e; stroke: #ffac1e; stroke-linejoin: bevel"/>
     <use xlink:href="#m4b03c770e4" x="373.581818" y="223.514605" style="fill: #ffac1e; stroke: #ffac1e; stroke-linejoin: bevel"/>
    </g>
   </g>
   <g id="patch_3">
    <path d="M 54 252 
L 54 34.56 
" style="fill: none; stroke: #000000; stroke-width: 0.8; stroke-linejoin: miter; stroke-linecap: square"/>
   </g>
   <g id="patch_4">
    <path d="M 388.8 252 
L 388.8 34.56 
" style="fill: none; stroke: #000000; stroke-width: 0.8; stroke-linejoin: miter; stroke-linecap: square"/>
   </g>
   <g id="patch_5">
    <path d="M 54 252 
L 388.8 252 
" style="fill: none; stroke: #000000; stroke-width: 0.8; stroke-linejoin: miter; stroke-linecap: square"/>
   </g>
   <g id="patch_6">
    <path d="M 54 34.56 
L 388.8 34.56 
" style="fill: none; stroke: #000000; stroke-width: 0.8; stroke-linejoin: miter; stroke-linecap: square"/>
   </g>
   <g id="text_17">
    <!-- ζ-R-max optimal policy with m = 1.5 -->
    <g transform="translate(111.87 28.56)scale(0.12 -0.12)">
     <defs>
      <path id="DejaVuSans-3b6" d="M 2231 397 
Q 2644 394 2891 159 
Q 3153 -88 3153 -463 
Q 3153 -822 2922 -1072 
Q 2672 -1344 2163 -1344 
Q 2163 -1109 2163 -872 
Q 2378 -888 2509 -750 
Q 2609 -641 2609 -525 
Q 2609 -359 2509 -222 
Q 2413 -91 2231 -91 
Q 338 -91 334 1669 
Q 334 3206 2119 4284 
L 456 4284 
L 456 4863 
L 3175 4863 
L 3175 4284 
Q 913 3147 913 1669 
Q 913 397 2231 397 
z
" transform="scale(0.015625)"/>
      <path id="DejaVuSans-2d" d="M 313 2009 
L 1997 2009 
L 1997 1497 
L 313 1497 
L 313 2009 
z
" transform="scale(0.015625)"/>
      <path id="DejaVuSans-52" d="M 2841 2188 
Q 3044 2119 3236 1894 
Q 3428 1669 3622 1275 
L 4263 0 
L 3584 0 
L 2988 1197 
Q 2756 1666 2539 1819 
Q 2322 1972 1947 1972 
L 1259 1972 
L 1259 0 
L 628 0 
L 628 4666 
L 2053 4666 
Q 2853 4666 3247 4331 
Q 3641 3997 3641 3322 
Q 3641 2881 3436 2590 
Q 3231 2300 2841 2188 
z
M 1259 4147 
L 1259 2491 
L 2053 2491 
Q 2509 2491 2742 2702 
Q 2975 2913 2975 3322 
Q 2975 3731 2742 3939 
Q 2509 4147 2053 4147 
L 1259 4147 
z
" transform="scale(0.015625)"/>
      <path id="DejaVuSans-6d" d="M 3328 2828 
Q 3544 3216 3844 3400 
Q 4144 3584 4550 3584 
Q 5097 3584 5394 3201 
Q 5691 2819 5691 2113 
L 5691 0 
L 5113 0 
L 5113 2094 
Q 5113 2597 4934 2840 
Q 4756 3084 4391 3084 
Q 3944 3084 3684 2787 
Q 3425 2491 3425 1978 
L 3425 0 
L 2847 0 
L 2847 2094 
Q 2847 2600 2669 2842 
Q 2491 3084 2119 3084 
Q 1678 3084 1418 2786 
Q 1159 2488 1159 1978 
L 1159 0 
L 581 0 
L 581 3500 
L 1159 3500 
L 1159 2956 
Q 1356 3278 1631 3431 
Q 1906 3584 2284 3584 
Q 2666 3584 2933 3390 
Q 3200 3197 3328 2828 
z
" transform="scale(0.015625)"/>
      <path id="DejaVuSans-78" d="M 3513 3500 
L 2247 1797 
L 3578 0 
L 2900 0 
L 1881 1375 
L 863 0 
L 184 0 
L 1544 1831 
L 300 3500 
L 978 3500 
L 1906 2253 
L 2834 3500 
L 3513 3500 
z
" transform="scale(0.015625)"/>
      <path id="DejaVuSans-77" d="M 269 3500 
L 844 3500 
L 1563 769 
L 2278 3500 
L 2956 3500 
L 3675 769 
L 4391 3500 
L 4966 3500 
L 4050 0 
L 3372 0 
L 2619 2869 
L 1863 0 
L 1184 0 
L 269 3500 
z
" transform="scale(0.015625)"/>
      <path id="DejaVuSans-68" d="M 3513 2113 
L 3513 0 
L 2938 0 
L 2938 2094 
Q 2938 2591 2744 2837 
Q 2550 3084 2163 3084 
Q 1697 3084 1428 2787 
Q 1159 2491 1159 1978 
L 1159 0 
L 581 0 
L 581 4863 
L 1159 4863 
L 1159 2956 
Q 1366 3272 1645 3428 
Q 1925 3584 2291 3584 
Q 2894 3584 3203 3211 
Q 3513 2838 3513 2113 
z
" transform="scale(0.015625)"/>
      <path id="DejaVuSans-3d" d="M 678 2906 
L 4684 2906 
L 4684 2381 
L 678 2381 
L 678 2906 
z
M 678 1631 
L 4684 1631 
L 4684 1100 
L 678 1100 
L 678 1631 
z
" transform="scale(0.015625)"/>
      <path id="DejaVuSans-2e" d="M 684 794 
L 1344 794 
L 1344 0 
L 684 0 
L 684 794 
z
" transform="scale(0.015625)"/>
     </defs>
     <use xlink:href="#DejaVuSans-3b6"/>
     <use xlink:href="#DejaVuSans-2d" x="54.394531"/>
     <use xlink:href="#DejaVuSans-52" x="90.478516"/>
     <use xlink:href="#DejaVuSans-2d" x="155.960938"/>
     <use xlink:href="#DejaVuSans-6d" x="192.044922"/>
     <use xlink:href="#DejaVuSans-61" x="289.457031"/>
     <use xlink:href="#DejaVuSans-78" x="350.736328"/>
     <use xlink:href="#DejaVuSans-20" x="409.916016"/>
     <use xlink:href="#DejaVuSans-6f" x="441.703125"/>
     <use xlink:href="#DejaVuSans-70" x="502.884766"/>
     <use xlink:href="#DejaVuSans-74" x="566.361328"/>
     <use xlink:href="#DejaVuSans-69" x="605.570312"/>
     <use xlink:href="#DejaVuSans-6d" x="633.353516"/>
     <use xlink:href="#DejaVuSans-61" x="730.765625"/>
     <use xlink:href="#DejaVuSans-6c" x="792.044922"/>
     <use xlink:href="#DejaVuSans-20" x="819.828125"/>
     <use xlink:href="#DejaVuSans-70" x="851.615234"/>
     <use xlink:href="#DejaVuSans-6f" x="915.091797"/>
     <use xlink:href="#DejaVuSans-6c" x="976.273438"/>
     <use xlink:href="#DejaVuSans-69" x="1004.056641"/>
     <use xlink:href="#DejaVuSans-63" x="1031.839844"/>
     <use xlink:href="#DejaVuSans-79" x="1086.820312"/>
     <use xlink:href="#DejaVuSans-20" x="1146"/>
     <use xlink:href="#DejaVuSans-77" x="1177.787109"/>
     <use xlink:href="#DejaVuSans-69" x="1259.574219"/>
     <use xlink:href="#DejaVuSans-74" x="1287.357422"/>
     <use xlink:href="#DejaVuSans-68" x="1326.566406"/>
     <use xlink:href="#DejaVuSans-20" x="1389.945312"/>
     <use xlink:href="#DejaVuSans-6d" x="1421.732422"/>
     <use xlink:href="#DejaVuSans-20" x="1519.144531"/>
     <use xlink:href="#DejaVuSans-3d" x="1550.931641"/>
     <use xlink:href="#DejaVuSans-20" x="1634.720703"/>
     <use xlink:href="#DejaVuSans-31" x="1666.507812"/>
     <use xlink:href="#DejaVuSans-2e" x="1730.130859"/>
     <use xlink:href="#DejaVuSans-35" x="1761.917969"/>
    </g>
   </g>
   <g id="legend_1">
    <g id="patch_7">
     <path d="M 297.796875 101.2725 
L 381.8 101.2725 
Q 383.8 101.2725 383.8 99.2725 
L 383.8 41.56 
Q 383.8 39.56 381.8 39.56 
L 297.796875 39.56 
Q 295.796875 39.56 295.796875 41.56 
L 295.796875 99.2725 
Q 295.796875 101.2725 297.796875 101.2725 
z
" style="fill: #ffffff; opacity: 0.8; stroke: #cccccc; stroke-linejoin: miter"/>
    </g>
    <g id="line2d_33">
     <path d="M 299.796875 47.658437 
L 309.796875 47.658437 
L 319.796875 47.658437 
" style="fill: none; stroke: #9d02d7; stroke-width: 1.5; stroke-linecap: square"/>
     <g>
      <use xlink:href="#mfaaab97b69" x="309.796875" y="47.658437" style="fill: #9d02d7; stroke: #9d02d7; stroke-linejoin: miter"/>
     </g>
    </g>
    <g id="text_18">
     <!-- alpha=2.5 -->
     <g transform="translate(327.796875 51.158437)scale(0.1 -0.1)">
      <use xlink:href="#DejaVuSans-61"/>
      <use xlink:href="#DejaVuSans-6c" x="61.279297"/>
      <use xlink:href="#DejaVuSans-70" x="89.0625"/>
      <use xlink:href="#DejaVuSans-68" x="152.539062"/>
      <use xlink:href="#DejaVuSans-61" x="215.917969"/>
      <use xlink:href="#DejaVuSans-3d" x="277.197266"/>
      <use xlink:href="#DejaVuSans-32" x="360.986328"/>
      <use xlink:href="#DejaVuSans-2e" x="424.609375"/>
      <use xlink:href="#DejaVuSans-35" x="456.396484"/>
     </g>
    </g>
    <g id="line2d_34">
     <path d="M 299.796875 62.336562 
L 309.796875 62.336562 
L 319.796875 62.336562 
" style="fill: none; stroke: #0000ff; stroke-width: 1.5; stroke-linecap: square"/>
     <g>
      <use xlink:href="#md44234d638" x="309.796875" y="62.336562" style="fill: #0000ff; stroke: #0000ff"/>
     </g>
    </g>
    <g id="text_19">
     <!-- alpha=3.0 -->
     <g transform="translate(327.796875 65.836562)scale(0.1 -0.1)">
      <use xlink:href="#DejaVuSans-61"/>
      <use xlink:href="#DejaVuSans-6c" x="61.279297"/>
      <use xlink:href="#DejaVuSans-70" x="89.0625"/>
      <use xlink:href="#DejaVuSans-68" x="152.539062"/>
      <use xlink:href="#DejaVuSans-61" x="215.917969"/>
      <use xlink:href="#DejaVuSans-3d" x="277.197266"/>
      <use xlink:href="#DejaVuSans-33" x="360.986328"/>
      <use xlink:href="#DejaVuSans-2e" x="424.609375"/>
      <use xlink:href="#DejaVuSans-30" x="456.396484"/>
     </g>
    </g>
    <g id="line2d_35">
     <path d="M 299.796875 77.014687 
L 309.796875 77.014687 
L 319.796875 77.014687 
" style="fill: none; stroke: #ff7763; stroke-width: 1.5; stroke-linecap: square"/>
     <g>
      <use xlink:href="#m3aad9efef6" x="309.796875" y="77.014687" style="fill: #ff7763; stroke: #ff7763"/>
     </g>
    </g>
    <g id="text_20">
     <!-- alpha=3.5 -->
     <g transform="translate(327.796875 80.514687)scale(0.1 -0.1)">
      <use xlink:href="#DejaVuSans-61"/>
      <use xlink:href="#DejaVuSans-6c" x="61.279297"/>
      <use xlink:href="#DejaVuSans-70" x="89.0625"/>
      <use xlink:href="#DejaVuSans-68" x="152.539062"/>
      <use xlink:href="#DejaVuSans-61" x="215.917969"/>
      <use xlink:href="#DejaVuSans-3d" x="277.197266"/>
      <use xlink:href="#DejaVuSans-33" x="360.986328"/>
      <use xlink:href="#DejaVuSans-2e" x="424.609375"/>
      <use xlink:href="#DejaVuSans-35" x="456.396484"/>
     </g>
    </g>
    <g id="line2d_36">
     <path d="M 299.796875 91.692813 
L 309.796875 91.692813 
L 319.796875 91.692813 
" style="fill: none; stroke: #ffac1e; stroke-width: 1.5; stroke-linecap: square"/>
     <g>
      <use xlink:href="#m4b03c770e4" x="309.796875" y="91.692813" style="fill: #ffac1e; stroke: #ffac1e; stroke-linejoin: bevel"/>
     </g>
    </g>
    <g id="text_21">
     <!-- alpha=4.0 -->
     <g transform="translate(327.796875 95.192813)scale(0.1 -0.1)">
      <use xlink:href="#DejaVuSans-61"/>
      <use xlink:href="#DejaVuSans-6c" x="61.279297"/>
      <use xlink:href="#DejaVuSans-70" x="89.0625"/>
      <use xlink:href="#DejaVuSans-68" x="152.539062"/>
      <use xlink:href="#DejaVuSans-61" x="215.917969"/>
      <use xlink:href="#DejaVuSans-3d" x="277.197266"/>
      <use xlink:href="#DejaVuSans-34" x="360.986328"/>
      <use xlink:href="#DejaVuSans-2e" x="424.609375"/>
      <use xlink:href="#DejaVuSans-30" x="456.396484"/>
     </g>
    </g>
   </g>
  </g>
 </g>
 <defs>
  <clipPath id="pb167680216">
   <rect x="54" y="34.56" width="334.8" height="217.44"/>
  </clipPath>
 </defs>
</svg>
