<?xml version="1.0" encoding="utf-8" standalone="no"?>
<!DOCTYPE svg PUBLIC "-//W3C//DTD SVG 1.1//EN"
  "http://www.w3.org/Graphics/SVG/1.1/DTD/svg11.dtd">
<svg xmlns:xlink="http://www.w3.org/1999/xlink" width="432pt" height="288pt" viewBox="0 0 432 288" xmlns="http://www.w3.org/2000/svg" version="1.1">
 <metadata>
  <rdf:RDF xmlns:dc="http://purl.org/dc/elements/1.1/" xmlns:cc="http://creativecommons.org/ns#" xmlns:rdf="http://www.w3.org/1999/02/22-rdf-syntax-ns#">
   <cc:Work>
    <dc:type rdf:resource="http://purl.org/dc/dcmitype/StillImage"/>
    <dc:date>2023-01-11T15:36:08.333139</dc:date>
    <dc:format>image/svg+xml</dc:format>
    <dc:creator>
     <cc:Agent>
      <dc:title>Matplotlib v3.5.2, https://matplotlib.org/</dc:title>
     </cc:Agent>
    </dc:creator>
   </cc:Work>
  </rdf:RDF>
 </metadata>
 <defs>
  <style type="text/css">*{stroke-linejoin: round; stroke-linecap: butt}</style>
 </defs>
 <g id="figure_1">
  <g id="patch_1">
   <path d="M 0 288 
L 432 288 
L 432 0 
L 0 0 
z
" style="fill: #ffffff"/>
  </g>
  <g id="axes_1">
   <g id="patch_2">
    <path d="M 54 252 
L 388.8 252 
L 388.8 34.56 
L 54 34.56 
z
" style="fill: #ffffff"/>
   </g>
   <g id="PolyCollection_1">
    <defs>
     <path id="m0b75adb4dd" d="M 69.218182 -35.070072 
L 69.218182 -35.070072 
L 74.376888 -31.143905 
L 79.535593 -35.13976 
L 84.694299 -28.366893 
L 89.853005 -34.328945 
L 95.01171 -114.316789 
L 100.170416 -103.725309 
L 105.329122 -120.047905 
L 110.487827 -100.031735 
L 115.646533 -116.819177 
L 120.805239 -141.670828 
L 125.963945 -120.924075 
L 131.12265 -121.540297 
L 136.281356 -144.44711 
L 141.440062 -108.319268 
L 146.598767 -137.357846 
L 151.757473 -114.700264 
L 156.916179 -119.806221 
L 162.074884 -110.281976 
L 167.23359 -114.139088 
L 172.392296 -114.139089 
L 177.551002 -136.846337 
L 182.709707 -114.787903 
L 187.868413 -114.621969 
L 193.027119 -147.234158 
L 198.185824 -149.880165 
L 203.34453 -144.752448 
L 208.503236 -147.898285 
L 213.661941 -160.993914 
L 218.820647 -160.478428 
L 223.979353 -162.744179 
L 229.138059 -162.102482 
L 234.296764 -162.007291 
L 239.45547 -162.025593 
L 244.614176 -162.025593 
L 249.772881 -162.025593 
L 254.931587 -227.233783 
L 260.090293 -227.233783 
L 265.248998 -227.233783 
L 270.407704 -221.742404 
L 275.56641 -221.742404 
L 280.725116 -215.540433 
L 285.883821 -215.192524 
L 291.042527 -215.192524 
L 296.201233 -215.192524 
L 301.359938 -215.192524 
L 306.518644 -215.192524 
L 311.67735 -215.192524 
L 316.836055 -221.571504 
L 321.994761 -215.192524 
L 327.153467 -215.192524 
L 332.312173 -221.571504 
L 337.470878 -221.571504 
L 342.629584 -221.571504 
L 347.78829 -221.571504 
L 352.946995 -221.571504 
L 358.105701 -221.571504 
L 363.264407 -221.571504 
L 368.423112 -219.461069 
L 373.581818 -219.461069 
L 373.581818 -219.461069 
L 373.581818 -219.461069 
L 368.423112 -219.461069 
L 363.264407 -221.571504 
L 358.105701 -221.571504 
L 352.946995 -221.571504 
L 347.78829 -221.571504 
L 342.629584 -221.571504 
L 337.470878 -221.571504 
L 332.312173 -221.571504 
L 327.153467 -215.192524 
L 321.994761 -215.192524 
L 316.836055 -221.571504 
L 311.67735 -215.192524 
L 306.518644 -215.192524 
L 301.359938 -215.192524 
L 296.201233 -215.192524 
L 291.042527 -215.192524 
L 285.883821 -215.192524 
L 280.725116 -215.540433 
L 275.56641 -221.742404 
L 270.407704 -221.742404 
L 265.248998 -227.233783 
L 260.090293 -227.233783 
L 254.931587 -227.233783 
L 249.772881 -162.025593 
L 244.614176 -162.025593 
L 239.45547 -162.025593 
L 234.296764 -162.007291 
L 229.138059 -162.102482 
L 223.979353 -162.744179 
L 218.820647 -160.478428 
L 213.661941 -160.993914 
L 208.503236 -147.898285 
L 203.34453 -144.752448 
L 198.185824 -149.880165 
L 193.027119 -147.234158 
L 187.868413 -114.621969 
L 182.709707 -114.787903 
L 177.551002 -136.846337 
L 172.392296 -114.139089 
L 167.23359 -114.139088 
L 162.074884 -110.281976 
L 156.916179 -119.806221 
L 151.757473 -114.700264 
L 146.598767 -137.357846 
L 141.440062 -108.319268 
L 136.281356 -144.44711 
L 131.12265 -121.540297 
L 125.963945 -120.924075 
L 120.805239 -141.670828 
L 115.646533 -116.819177 
L 110.487827 -100.031735 
L 105.329122 -120.047905 
L 100.170416 -103.725309 
L 95.01171 -114.316789 
L 89.853005 -34.328945 
L 84.694299 -28.366893 
L 79.535593 -35.13976 
L 74.376888 -31.143905 
L 69.218182 -35.070072 
z
" style="stroke: #9d02d7; stroke-opacity: 0.2"/>
    </defs>
    <g clip-path="url(#p88f4436aa2)">
     <use xlink:href="#m0b75adb4dd" x="0" y="288" style="fill: #9d02d7; fill-opacity: 0.2; stroke: #9d02d7; stroke-opacity: 0.2"/>
    </g>
   </g>
   <g id="PolyCollection_2">
    <defs>
     <path id="m53eb477c9b" d="M 69.218182 -26.892174 
L 69.218182 -26.892174 
L 74.376888 -32.868882 
L 79.535593 -35.088292 
L 84.694299 -35.021799 
L 89.853005 -30.125799 
L 95.01171 -33.706841 
L 100.170416 -35.091182 
L 105.329122 -35.091182 
L 110.487827 -35.085225 
L 115.646533 -31.548172 
L 120.805239 -35.085648 
L 125.963945 -35.091182 
L 131.12265 -34.13193 
L 136.281356 -47.261509 
L 141.440062 -34.87214 
L 146.598767 -33.61616 
L 151.757473 -32.762544 
L 156.916179 -34.914201 
L 162.074884 -35.091182 
L 167.23359 -35.091182 
L 172.392296 -50.087021 
L 177.551002 -48.369549 
L 182.709707 -62.724092 
L 187.868413 -135.116973 
L 193.027119 -52.979722 
L 198.185824 -50.991677 
L 203.34453 -164.539961 
L 208.503236 -164.547461 
L 213.661941 -173.562297 
L 218.820647 -244.675033 
L 223.979353 -244.675381 
L 229.138059 -244.675381 
L 234.296764 -244.675381 
L 239.45547 -244.675381 
L 244.614176 -241.128905 
L 249.772881 -241.128905 
L 254.931587 -241.128905 
L 260.090293 -244.675381 
L 265.248998 -244.675381 
L 270.407704 -241.128905 
L 275.56641 -244.675381 
L 280.725116 -244.675381 
L 285.883821 -244.675381 
L 291.042527 -244.675381 
L 296.201233 -244.675381 
L 301.359938 -244.675381 
L 306.518644 -241.128905 
L 311.67735 -244.675381 
L 316.836055 -241.128905 
L 321.994761 -241.128905 
L 327.153467 -241.128905 
L 332.312173 -241.128905 
L 337.470878 -241.128905 
L 342.629584 -241.128905 
L 347.78829 -241.128905 
L 352.946995 -241.128905 
L 358.105701 -241.128905 
L 363.264407 -241.128905 
L 368.423112 -241.128905 
L 373.581818 -241.128905 
L 373.581818 -241.128905 
L 373.581818 -241.128905 
L 368.423112 -241.128905 
L 363.264407 -241.128905 
L 358.105701 -241.128905 
L 352.946995 -241.128905 
L 347.78829 -241.128905 
L 342.629584 -241.128905 
L 337.470878 -241.128905 
L 332.312173 -241.128905 
L 327.153467 -241.128905 
L 321.994761 -241.128905 
L 316.836055 -241.128905 
L 311.67735 -244.675381 
L 306.518644 -241.128905 
L 301.359938 -244.675381 
L 296.201233 -244.675381 
L 291.042527 -244.675381 
L 285.883821 -244.675381 
L 280.725116 -244.675381 
L 275.56641 -244.675381 
L 270.407704 -241.128905 
L 265.248998 -244.675381 
L 260.090293 -244.675381 
L 254.931587 -241.128905 
L 249.772881 -241.128905 
L 244.614176 -241.128905 
L 239.45547 -244.675381 
L 234.296764 -244.675381 
L 229.138059 -244.675381 
L 223.979353 -244.675381 
L 218.820647 -244.675033 
L 213.661941 -173.562297 
L 208.503236 -164.547461 
L 203.34453 -164.539961 
L 198.185824 -50.991677 
L 193.027119 -52.979722 
L 187.868413 -135.116973 
L 182.709707 -62.724092 
L 177.551002 -48.369549 
L 172.392296 -50.087021 
L 167.23359 -35.091182 
L 162.074884 -35.091182 
L 156.916179 -34.914201 
L 151.757473 -32.762544 
L 146.598767 -33.61616 
L 141.440062 -34.87214 
L 136.281356 -47.261509 
L 131.12265 -34.13193 
L 125.963945 -35.091182 
L 120.805239 -35.085648 
L 115.646533 -31.548172 
L 110.487827 -35.085225 
L 105.329122 -35.091182 
L 100.170416 -35.091182 
L 95.01171 -33.706841 
L 89.853005 -30.125799 
L 84.694299 -35.021799 
L 79.535593 -35.088292 
L 74.376888 -32.868882 
L 69.218182 -26.892174 
z
" style="stroke: #0000ff; stroke-opacity: 0.2"/>
    </defs>
    <g clip-path="url(#p88f4436aa2)">
     <use xlink:href="#m53eb477c9b" x="0" y="288" style="fill: #0000ff; fill-opacity: 0.2; stroke: #0000ff; stroke-opacity: 0.2"/>
    </g>
   </g>
   <g id="PolyCollection_3">
    <defs>
     <path id="m935799b92e" d="M 69.218182 -34.675106 
L 69.218182 -34.675106 
L 74.376888 -35.091182 
L 79.535593 -33.444877 
L 84.694299 -34.24591 
L 89.853005 -35.091182 
L 95.01171 -35.091182 
L 100.170416 -35.091182 
L 105.329122 -35.083852 
L 110.487827 -35.091182 
L 115.646533 -35.011693 
L 120.805239 -35.091182 
L 125.963945 -35.091182 
L 131.12265 -35.091182 
L 136.281356 -35.081297 
L 141.440062 -35.091182 
L 146.598767 -35.086017 
L 151.757473 -35.007605 
L 156.916179 -35.08368 
L 162.074884 -35.083192 
L 167.23359 -35.085619 
L 172.392296 -35.088034 
L 177.551002 -35.091182 
L 182.709707 -35.083677 
L 187.868413 -35.087196 
L 193.027119 -32.757781 
L 198.185824 -42.469172 
L 203.34453 -65.921621 
L 208.503236 -69.074465 
L 213.661941 -69.074465 
L 218.820647 -66.976449 
L 223.979353 -163.522988 
L 229.138059 -144.533415 
L 234.296764 -154.223312 
L 239.45547 -171.306983 
L 244.614176 -171.437501 
L 249.772881 -171.437501 
L 254.931587 -171.437501 
L 260.090293 -171.437501 
L 265.248998 -171.437501 
L 270.407704 -171.437501 
L 275.56641 -241.190776 
L 280.725116 -241.332731 
L 285.883821 -241.332731 
L 291.042527 -241.367841 
L 296.201233 -239.485985 
L 301.359938 -240.5447 
L 306.518644 -240.681509 
L 311.67735 -240.681509 
L 316.836055 -240.681509 
L 321.994761 -240.681509 
L 327.153467 -240.681509 
L 332.312173 -240.681509 
L 337.470878 -240.681509 
L 342.629584 -240.681509 
L 347.78829 -240.681509 
L 352.946995 -240.868041 
L 358.105701 -240.868041 
L 363.264407 -240.868041 
L 368.423112 -240.868041 
L 373.581818 -240.868041 
L 373.581818 -240.868041 
L 373.581818 -240.868041 
L 368.423112 -240.868041 
L 363.264407 -240.868041 
L 358.105701 -240.868041 
L 352.946995 -240.868041 
L 347.78829 -240.681509 
L 342.629584 -240.681509 
L 337.470878 -240.681509 
L 332.312173 -240.681509 
L 327.153467 -240.681509 
L 321.994761 -240.681509 
L 316.836055 -240.681509 
L 311.67735 -240.681509 
L 306.518644 -240.681509 
L 301.359938 -240.5447 
L 296.201233 -239.485985 
L 291.042527 -241.367841 
L 285.883821 -241.332731 
L 280.725116 -241.332731 
L 275.56641 -241.190776 
L 270.407704 -171.437501 
L 265.248998 -171.437501 
L 260.090293 -171.437501 
L 254.931587 -171.437501 
L 249.772881 -171.437501 
L 244.614176 -171.437501 
L 239.45547 -171.306983 
L 234.296764 -154.223312 
L 229.138059 -144.533415 
L 223.979353 -163.522988 
L 218.820647 -66.976449 
L 213.661941 -69.074465 
L 208.503236 -69.074465 
L 203.34453 -65.921621 
L 198.185824 -42.469172 
L 193.027119 -32.757781 
L 187.868413 -35.087196 
L 182.709707 -35.083677 
L 177.551002 -35.091182 
L 172.392296 -35.088034 
L 167.23359 -35.085619 
L 162.074884 -35.083192 
L 156.916179 -35.08368 
L 151.757473 -35.007605 
L 146.598767 -35.086017 
L 141.440062 -35.091182 
L 136.281356 -35.081297 
L 131.12265 -35.091182 
L 125.963945 -35.091182 
L 120.805239 -35.091182 
L 115.646533 -35.011693 
L 110.487827 -35.091182 
L 105.329122 -35.083852 
L 100.170416 -35.091182 
L 95.01171 -35.091182 
L 89.853005 -35.091182 
L 84.694299 -34.24591 
L 79.535593 -33.444877 
L 74.376888 -35.091182 
L 69.218182 -34.675106 
z
" style="stroke: #ff7763; stroke-opacity: 0.2"/>
    </defs>
    <g clip-path="url(#p88f4436aa2)">
     <use xlink:href="#m935799b92e" x="0" y="288" style="fill: #ff7763; fill-opacity: 0.2; stroke: #ff7763; stroke-opacity: 0.2"/>
    </g>
   </g>
   <g id="PolyCollection_4">
    <defs>
     <path id="m63d2167dab" d="M 69.218182 -34.90717 
L 69.218182 -34.90717 
L 74.376888 -34.252626 
L 79.535593 -40.199773 
L 84.694299 -34.183803 
L 89.853005 -35.091182 
L 95.01171 -35.087282 
L 100.170416 -35.079025 
L 105.329122 -35.076459 
L 110.487827 -34.680533 
L 115.646533 -35.089969 
L 120.805239 -35.087591 
L 125.963945 -35.091182 
L 131.12265 -34.784809 
L 136.281356 -34.60507 
L 141.440062 -35.088987 
L 146.598767 -35.035889 
L 151.757473 -34.698849 
L 156.916179 -35.091182 
L 162.074884 -34.824203 
L 167.23359 -35.085699 
L 172.392296 -32.717465 
L 177.551002 -39.837271 
L 182.709707 -47.695445 
L 187.868413 -34.539175 
L 193.027119 -41.624059 
L 198.185824 -51.73501 
L 203.34453 -52.131511 
L 208.503236 -70.863734 
L 213.661941 -70.885975 
L 218.820647 -70.877101 
L 223.979353 -70.885975 
L 229.138059 -70.392192 
L 234.296764 -35.091938 
L 239.45547 -171.993137 
L 244.614176 -171.729759 
L 249.772881 -172.466237 
L 254.931587 -172.466237 
L 260.090293 -242.443858 
L 265.248998 -242.441274 
L 270.407704 -242.347784 
L 275.56641 -242.44423 
L 280.725116 -242.44423 
L 285.883821 -241.658337 
L 291.042527 -242.468413 
L 296.201233 -243.129958 
L 301.359938 -242.468413 
L 306.518644 -243.074644 
L 311.67735 -243.074644 
L 316.836055 -243.074644 
L 321.994761 -244.680811 
L 327.153467 -244.680811 
L 332.312173 -244.680811 
L 337.470878 -244.680811 
L 342.629584 -244.680811 
L 347.78829 -244.680811 
L 352.946995 -244.680811 
L 358.105701 -244.680811 
L 363.264407 -244.680811 
L 368.423112 -244.680811 
L 373.581818 -244.680811 
L 373.581818 -244.680811 
L 373.581818 -244.680811 
L 368.423112 -244.680811 
L 363.264407 -244.680811 
L 358.105701 -244.680811 
L 352.946995 -244.680811 
L 347.78829 -244.680811 
L 342.629584 -244.680811 
L 337.470878 -244.680811 
L 332.312173 -244.680811 
L 327.153467 -244.680811 
L 321.994761 -244.680811 
L 316.836055 -243.074644 
L 311.67735 -243.074644 
L 306.518644 -243.074644 
L 301.359938 -242.468413 
L 296.201233 -243.129958 
L 291.042527 -242.468413 
L 285.883821 -241.658337 
L 280.725116 -242.44423 
L 275.56641 -242.44423 
L 270.407704 -242.347784 
L 265.248998 -242.441274 
L 260.090293 -242.443858 
L 254.931587 -172.466237 
L 249.772881 -172.466237 
L 244.614176 -171.729759 
L 239.45547 -171.993137 
L 234.296764 -35.091938 
L 229.138059 -70.392192 
L 223.979353 -70.885975 
L 218.820647 -70.877101 
L 213.661941 -70.885975 
L 208.503236 -70.863734 
L 203.34453 -52.131511 
L 198.185824 -51.73501 
L 193.027119 -41.624059 
L 187.868413 -34.539175 
L 182.709707 -47.695445 
L 177.551002 -39.837271 
L 172.392296 -32.717465 
L 167.23359 -35.085699 
L 162.074884 -34.824203 
L 156.916179 -35.091182 
L 151.757473 -34.698849 
L 146.598767 -35.035889 
L 141.440062 -35.088987 
L 136.281356 -34.60507 
L 131.12265 -34.784809 
L 125.963945 -35.091182 
L 120.805239 -35.087591 
L 115.646533 -35.089969 
L 110.487827 -34.680533 
L 105.329122 -35.076459 
L 100.170416 -35.079025 
L 95.01171 -35.087282 
L 89.853005 -35.091182 
L 84.694299 -34.183803 
L 79.535593 -40.199773 
L 74.376888 -34.252626 
L 69.218182 -34.90717 
z
" style="stroke: #ffac1e; stroke-opacity: 0.2"/>
    </defs>
    <g clip-path="url(#p88f4436aa2)">
     <use xlink:href="#m63d2167dab" x="0" y="288" style="fill: #ffac1e; fill-opacity: 0.2; stroke: #ffac1e; stroke-opacity: 0.2"/>
    </g>
   </g>
   <g id="PolyCollection_5">
    <defs>
     <path id="m93fb1a57bb" d="M 69.218182 -34.519215 
L 69.218182 -34.519215 
L 74.376888 -29.936608 
L 79.535593 -30.680091 
L 84.694299 -31.149192 
L 89.853005 -35.083314 
L 95.01171 -34.995131 
L 100.170416 -31.892434 
L 105.329122 -66.43262 
L 110.487827 -33.142659 
L 115.646533 -66.04346 
L 120.805239 -33.143786 
L 125.963945 -33.146672 
L 131.12265 -33.522837 
L 136.281356 -34.946789 
L 141.440062 -36.074398 
L 146.598767 -33.410005 
L 151.757473 -33.53052 
L 156.916179 -50.121938 
L 162.074884 -38.903031 
L 167.23359 -52.203543 
L 172.392296 -102.325195 
L 177.551002 -106.355005 
L 182.709707 -104.133326 
L 187.868413 -109.376574 
L 193.027119 -110.946152 
L 198.185824 -108.690328 
L 203.34453 -134.710204 
L 208.503236 -135.294971 
L 213.661941 -164.529453 
L 218.820647 -173.343866 
L 223.979353 -173.659823 
L 229.138059 -173.6608 
L 234.296764 -173.463591 
L 239.45547 -173.469561 
L 244.614176 -244.220609 
L 249.772881 -244.060881 
L 254.931587 -244.060881 
L 260.090293 -244.060881 
L 265.248998 -244.220849 
L 270.407704 -244.061886 
L 275.56641 -244.061886 
L 280.725116 -244.061886 
L 285.883821 -244.061886 
L 291.042527 -244.061886 
L 296.201233 -244.061886 
L 301.359938 -244.061886 
L 306.518644 -241.507945 
L 311.67735 -244.061886 
L 316.836055 -244.347263 
L 321.994761 -244.347263 
L 327.153467 -244.347263 
L 332.312173 -244.347263 
L 337.470878 -244.061886 
L 342.629584 -244.061886 
L 347.78829 -244.061886 
L 352.946995 -239.691398 
L 358.105701 -239.691398 
L 363.264407 -239.691398 
L 368.423112 -239.463885 
L 373.581818 -239.463885 
L 373.581818 -239.463885 
L 373.581818 -239.463885 
L 368.423112 -239.463885 
L 363.264407 -239.691398 
L 358.105701 -239.691398 
L 352.946995 -239.691398 
L 347.78829 -244.061886 
L 342.629584 -244.061886 
L 337.470878 -244.061886 
L 332.312173 -244.347263 
L 327.153467 -244.347263 
L 321.994761 -244.347263 
L 316.836055 -244.347263 
L 311.67735 -244.061886 
L 306.518644 -241.507945 
L 301.359938 -244.061886 
L 296.201233 -244.061886 
L 291.042527 -244.061886 
L 285.883821 -244.061886 
L 280.725116 -244.061886 
L 275.56641 -244.061886 
L 270.407704 -244.061886 
L 265.248998 -244.220849 
L 260.090293 -244.060881 
L 254.931587 -244.060881 
L 249.772881 -244.060881 
L 244.614176 -244.220609 
L 239.45547 -173.469561 
L 234.296764 -173.463591 
L 229.138059 -173.6608 
L 223.979353 -173.659823 
L 218.820647 -173.343866 
L 213.661941 -164.529453 
L 208.503236 -135.294971 
L 203.34453 -134.710204 
L 198.185824 -108.690328 
L 193.027119 -110.946152 
L 187.868413 -109.376574 
L 182.709707 -104.133326 
L 177.551002 -106.355005 
L 172.392296 -102.325195 
L 167.23359 -52.203543 
L 162.074884 -38.903031 
L 156.916179 -50.121938 
L 151.757473 -33.53052 
L 146.598767 -33.410005 
L 141.440062 -36.074398 
L 136.281356 -34.946789 
L 131.12265 -33.522837 
L 125.963945 -33.146672 
L 120.805239 -33.143786 
L 115.646533 -66.04346 
L 110.487827 -33.142659 
L 105.329122 -66.43262 
L 100.170416 -31.892434 
L 95.01171 -34.995131 
L 89.853005 -35.083314 
L 84.694299 -31.149192 
L 79.535593 -30.680091 
L 74.376888 -29.936608 
L 69.218182 -34.519215 
z
" style="stroke: #009435; stroke-opacity: 0.2"/>
    </defs>
    <g clip-path="url(#p88f4436aa2)">
     <use xlink:href="#m93fb1a57bb" x="0" y="288" style="fill: #009435; fill-opacity: 0.2; stroke: #009435; stroke-opacity: 0.2"/>
    </g>
   </g>
   <g id="matplotlib.axis_1">
    <g id="xtick_1">
     <g id="line2d_1">
      <path d="M 69.218182 252 
L 69.218182 34.56 
" clip-path="url(#p88f4436aa2)" style="fill: none; stroke-dasharray: 2.96,1.28; stroke-dashoffset: 0; stroke: #b0b0b0; stroke-width: 0.8"/>
     </g>
     <g id="line2d_2">
      <defs>
       <path id="m7dcd57d385" d="M 0 0 
L 0 3.5 
" style="stroke: #000000; stroke-width: 0.8"/>
      </defs>
      <g>
       <use xlink:href="#m7dcd57d385" x="69.218182" y="252" style="stroke: #000000; stroke-width: 0.8"/>
      </g>
     </g>
     <g id="text_1">
      <!-- 0 -->
      <g transform="translate(66.036932 266.598437)scale(0.1 -0.1)">
       <defs>
        <path id="DejaVuSans-30" d="M 2034 4250 
Q 1547 4250 1301 3770 
Q 1056 3291 1056 2328 
Q 1056 1369 1301 889 
Q 1547 409 2034 409 
Q 2525 409 2770 889 
Q 3016 1369 3016 2328 
Q 3016 3291 2770 3770 
Q 2525 4250 2034 4250 
z
M 2034 4750 
Q 2819 4750 3233 4129 
Q 3647 3509 3647 2328 
Q 3647 1150 3233 529 
Q 2819 -91 2034 -91 
Q 1250 -91 836 529 
Q 422 1150 422 2328 
Q 422 3509 836 4129 
Q 1250 4750 2034 4750 
z
" transform="scale(0.015625)"/>
       </defs>
       <use xlink:href="#DejaVuSans-30"/>
      </g>
     </g>
    </g>
    <g id="xtick_2">
     <g id="line2d_3">
      <path d="M 120.805239 252 
L 120.805239 34.56 
" clip-path="url(#p88f4436aa2)" style="fill: none; stroke-dasharray: 2.96,1.28; stroke-dashoffset: 0; stroke: #b0b0b0; stroke-width: 0.8"/>
     </g>
     <g id="line2d_4">
      <g>
       <use xlink:href="#m7dcd57d385" x="120.805239" y="252" style="stroke: #000000; stroke-width: 0.8"/>
      </g>
     </g>
     <g id="text_2">
      <!-- 500 -->
      <g transform="translate(111.261489 266.598437)scale(0.1 -0.1)">
       <defs>
        <path id="DejaVuSans-35" d="M 691 4666 
L 3169 4666 
L 3169 4134 
L 1269 4134 
L 1269 2991 
Q 1406 3038 1543 3061 
Q 1681 3084 1819 3084 
Q 2600 3084 3056 2656 
Q 3513 2228 3513 1497 
Q 3513 744 3044 326 
Q 2575 -91 1722 -91 
Q 1428 -91 1123 -41 
Q 819 9 494 109 
L 494 744 
Q 775 591 1075 516 
Q 1375 441 1709 441 
Q 2250 441 2565 725 
Q 2881 1009 2881 1497 
Q 2881 1984 2565 2268 
Q 2250 2553 1709 2553 
Q 1456 2553 1204 2497 
Q 953 2441 691 2322 
L 691 4666 
z
" transform="scale(0.015625)"/>
       </defs>
       <use xlink:href="#DejaVuSans-35"/>
       <use xlink:href="#DejaVuSans-30" x="63.623047"/>
       <use xlink:href="#DejaVuSans-30" x="127.246094"/>
      </g>
     </g>
    </g>
    <g id="xtick_3">
     <g id="line2d_5">
      <path d="M 172.392296 252 
L 172.392296 34.56 
" clip-path="url(#p88f4436aa2)" style="fill: none; stroke-dasharray: 2.96,1.28; stroke-dashoffset: 0; stroke: #b0b0b0; stroke-width: 0.8"/>
     </g>
     <g id="line2d_6">
      <g>
       <use xlink:href="#m7dcd57d385" x="172.392296" y="252" style="stroke: #000000; stroke-width: 0.8"/>
      </g>
     </g>
     <g id="text_3">
      <!-- 1000 -->
      <g transform="translate(159.667296 266.598437)scale(0.1 -0.1)">
       <defs>
        <path id="DejaVuSans-31" d="M 794 531 
L 1825 531 
L 1825 4091 
L 703 3866 
L 703 4441 
L 1819 4666 
L 2450 4666 
L 2450 531 
L 3481 531 
L 3481 0 
L 794 0 
L 794 531 
z
" transform="scale(0.015625)"/>
       </defs>
       <use xlink:href="#DejaVuSans-31"/>
       <use xlink:href="#DejaVuSans-30" x="63.623047"/>
       <use xlink:href="#DejaVuSans-30" x="127.246094"/>
       <use xlink:href="#DejaVuSans-30" x="190.869141"/>
      </g>
     </g>
    </g>
    <g id="xtick_4">
     <g id="line2d_7">
      <path d="M 223.979353 252 
L 223.979353 34.56 
" clip-path="url(#p88f4436aa2)" style="fill: none; stroke-dasharray: 2.96,1.28; stroke-dashoffset: 0; stroke: #b0b0b0; stroke-width: 0.8"/>
     </g>
     <g id="line2d_8">
      <g>
       <use xlink:href="#m7dcd57d385" x="223.979353" y="252" style="stroke: #000000; stroke-width: 0.8"/>
      </g>
     </g>
     <g id="text_4">
      <!-- 1500 -->
      <g transform="translate(211.254353 266.598437)scale(0.1 -0.1)">
       <use xlink:href="#DejaVuSans-31"/>
       <use xlink:href="#DejaVuSans-35" x="63.623047"/>
       <use xlink:href="#DejaVuSans-30" x="127.246094"/>
       <use xlink:href="#DejaVuSans-30" x="190.869141"/>
      </g>
     </g>
    </g>
    <g id="xtick_5">
     <g id="line2d_9">
      <path d="M 275.56641 252 
L 275.56641 34.56 
" clip-path="url(#p88f4436aa2)" style="fill: none; stroke-dasharray: 2.96,1.28; stroke-dashoffset: 0; stroke: #b0b0b0; stroke-width: 0.8"/>
     </g>
     <g id="line2d_10">
      <g>
       <use xlink:href="#m7dcd57d385" x="275.56641" y="252" style="stroke: #000000; stroke-width: 0.8"/>
      </g>
     </g>
     <g id="text_5">
      <!-- 2000 -->
      <g transform="translate(262.84141 266.598437)scale(0.1 -0.1)">
       <defs>
        <path id="DejaVuSans-32" d="M 1228 531 
L 3431 531 
L 3431 0 
L 469 0 
L 469 531 
Q 828 903 1448 1529 
Q 2069 2156 2228 2338 
Q 2531 2678 2651 2914 
Q 2772 3150 2772 3378 
Q 2772 3750 2511 3984 
Q 2250 4219 1831 4219 
Q 1534 4219 1204 4116 
Q 875 4013 500 3803 
L 500 4441 
Q 881 4594 1212 4672 
Q 1544 4750 1819 4750 
Q 2544 4750 2975 4387 
Q 3406 4025 3406 3419 
Q 3406 3131 3298 2873 
Q 3191 2616 2906 2266 
Q 2828 2175 2409 1742 
Q 1991 1309 1228 531 
z
" transform="scale(0.015625)"/>
       </defs>
       <use xlink:href="#DejaVuSans-32"/>
       <use xlink:href="#DejaVuSans-30" x="63.623047"/>
       <use xlink:href="#DejaVuSans-30" x="127.246094"/>
       <use xlink:href="#DejaVuSans-30" x="190.869141"/>
      </g>
     </g>
    </g>
    <g id="xtick_6">
     <g id="line2d_11">
      <path d="M 327.153467 252 
L 327.153467 34.56 
" clip-path="url(#p88f4436aa2)" style="fill: none; stroke-dasharray: 2.96,1.28; stroke-dashoffset: 0; stroke: #b0b0b0; stroke-width: 0.8"/>
     </g>
     <g id="line2d_12">
      <g>
       <use xlink:href="#m7dcd57d385" x="327.153467" y="252" style="stroke: #000000; stroke-width: 0.8"/>
      </g>
     </g>
     <g id="text_6">
      <!-- 2500 -->
      <g transform="translate(314.428467 266.598437)scale(0.1 -0.1)">
       <use xlink:href="#DejaVuSans-32"/>
       <use xlink:href="#DejaVuSans-35" x="63.623047"/>
       <use xlink:href="#DejaVuSans-30" x="127.246094"/>
       <use xlink:href="#DejaVuSans-30" x="190.869141"/>
      </g>
     </g>
    </g>
    <g id="xtick_7">
     <g id="line2d_13">
      <path d="M 378.740524 252 
L 378.740524 34.56 
" clip-path="url(#p88f4436aa2)" style="fill: none; stroke-dasharray: 2.96,1.28; stroke-dashoffset: 0; stroke: #b0b0b0; stroke-width: 0.8"/>
     </g>
     <g id="line2d_14">
      <g>
       <use xlink:href="#m7dcd57d385" x="378.740524" y="252" style="stroke: #000000; stroke-width: 0.8"/>
      </g>
     </g>
     <g id="text_7">
      <!-- 3000 -->
      <g transform="translate(366.015524 266.598437)scale(0.1 -0.1)">
       <defs>
        <path id="DejaVuSans-33" d="M 2597 2516 
Q 3050 2419 3304 2112 
Q 3559 1806 3559 1356 
Q 3559 666 3084 287 
Q 2609 -91 1734 -91 
Q 1441 -91 1130 -33 
Q 819 25 488 141 
L 488 750 
Q 750 597 1062 519 
Q 1375 441 1716 441 
Q 2309 441 2620 675 
Q 2931 909 2931 1356 
Q 2931 1769 2642 2001 
Q 2353 2234 1838 2234 
L 1294 2234 
L 1294 2753 
L 1863 2753 
Q 2328 2753 2575 2939 
Q 2822 3125 2822 3475 
Q 2822 3834 2567 4026 
Q 2313 4219 1838 4219 
Q 1578 4219 1281 4162 
Q 984 4106 628 3988 
L 628 4550 
Q 988 4650 1302 4700 
Q 1616 4750 1894 4750 
Q 2613 4750 3031 4423 
Q 3450 4097 3450 3541 
Q 3450 3153 3228 2886 
Q 3006 2619 2597 2516 
z
" transform="scale(0.015625)"/>
       </defs>
       <use xlink:href="#DejaVuSans-33"/>
       <use xlink:href="#DejaVuSans-30" x="63.623047"/>
       <use xlink:href="#DejaVuSans-30" x="127.246094"/>
       <use xlink:href="#DejaVuSans-30" x="190.869141"/>
      </g>
     </g>
    </g>
    <g id="text_8">
     <!-- Steps -->
     <g transform="translate(207.410156 280.276563)scale(0.1 -0.1)">
      <defs>
       <path id="DejaVuSans-53" d="M 3425 4513 
L 3425 3897 
Q 3066 4069 2747 4153 
Q 2428 4238 2131 4238 
Q 1616 4238 1336 4038 
Q 1056 3838 1056 3469 
Q 1056 3159 1242 3001 
Q 1428 2844 1947 2747 
L 2328 2669 
Q 3034 2534 3370 2195 
Q 3706 1856 3706 1288 
Q 3706 609 3251 259 
Q 2797 -91 1919 -91 
Q 1588 -91 1214 -16 
Q 841 59 441 206 
L 441 856 
Q 825 641 1194 531 
Q 1563 422 1919 422 
Q 2459 422 2753 634 
Q 3047 847 3047 1241 
Q 3047 1584 2836 1778 
Q 2625 1972 2144 2069 
L 1759 2144 
Q 1053 2284 737 2584 
Q 422 2884 422 3419 
Q 422 4038 858 4394 
Q 1294 4750 2059 4750 
Q 2388 4750 2728 4690 
Q 3069 4631 3425 4513 
z
" transform="scale(0.015625)"/>
       <path id="DejaVuSans-74" d="M 1172 4494 
L 1172 3500 
L 2356 3500 
L 2356 3053 
L 1172 3053 
L 1172 1153 
Q 1172 725 1289 603 
Q 1406 481 1766 481 
L 2356 481 
L 2356 0 
L 1766 0 
Q 1100 0 847 248 
Q 594 497 594 1153 
L 594 3053 
L 172 3053 
L 172 3500 
L 594 3500 
L 594 4494 
L 1172 4494 
z
" transform="scale(0.015625)"/>
       <path id="DejaVuSans-65" d="M 3597 1894 
L 3597 1613 
L 953 1613 
Q 991 1019 1311 708 
Q 1631 397 2203 397 
Q 2534 397 2845 478 
Q 3156 559 3463 722 
L 3463 178 
Q 3153 47 2828 -22 
Q 2503 -91 2169 -91 
Q 1331 -91 842 396 
Q 353 884 353 1716 
Q 353 2575 817 3079 
Q 1281 3584 2069 3584 
Q 2775 3584 3186 3129 
Q 3597 2675 3597 1894 
z
M 3022 2063 
Q 3016 2534 2758 2815 
Q 2500 3097 2075 3097 
Q 1594 3097 1305 2825 
Q 1016 2553 972 2059 
L 3022 2063 
z
" transform="scale(0.015625)"/>
       <path id="DejaVuSans-70" d="M 1159 525 
L 1159 -1331 
L 581 -1331 
L 581 3500 
L 1159 3500 
L 1159 2969 
Q 1341 3281 1617 3432 
Q 1894 3584 2278 3584 
Q 2916 3584 3314 3078 
Q 3713 2572 3713 1747 
Q 3713 922 3314 415 
Q 2916 -91 2278 -91 
Q 1894 -91 1617 61 
Q 1341 213 1159 525 
z
M 3116 1747 
Q 3116 2381 2855 2742 
Q 2594 3103 2138 3103 
Q 1681 3103 1420 2742 
Q 1159 2381 1159 1747 
Q 1159 1113 1420 752 
Q 1681 391 2138 391 
Q 2594 391 2855 752 
Q 3116 1113 3116 1747 
z
" transform="scale(0.015625)"/>
       <path id="DejaVuSans-73" d="M 2834 3397 
L 2834 2853 
Q 2591 2978 2328 3040 
Q 2066 3103 1784 3103 
Q 1356 3103 1142 2972 
Q 928 2841 928 2578 
Q 928 2378 1081 2264 
Q 1234 2150 1697 2047 
L 1894 2003 
Q 2506 1872 2764 1633 
Q 3022 1394 3022 966 
Q 3022 478 2636 193 
Q 2250 -91 1575 -91 
Q 1294 -91 989 -36 
Q 684 19 347 128 
L 347 722 
Q 666 556 975 473 
Q 1284 391 1588 391 
Q 1994 391 2212 530 
Q 2431 669 2431 922 
Q 2431 1156 2273 1281 
Q 2116 1406 1581 1522 
L 1381 1569 
Q 847 1681 609 1914 
Q 372 2147 372 2553 
Q 372 3047 722 3315 
Q 1072 3584 1716 3584 
Q 2034 3584 2315 3537 
Q 2597 3491 2834 3397 
z
" transform="scale(0.015625)"/>
      </defs>
      <use xlink:href="#DejaVuSans-53"/>
      <use xlink:href="#DejaVuSans-74" x="63.476562"/>
      <use xlink:href="#DejaVuSans-65" x="102.685547"/>
      <use xlink:href="#DejaVuSans-70" x="164.208984"/>
      <use xlink:href="#DejaVuSans-73" x="227.685547"/>
     </g>
    </g>
   </g>
   <g id="matplotlib.axis_2">
    <g id="ytick_1">
     <g id="line2d_15">
      <path d="M 54 243.636923 
L 388.8 243.636923 
" clip-path="url(#p88f4436aa2)" style="fill: none; stroke-dasharray: 2.96,1.28; stroke-dashoffset: 0; stroke: #b0b0b0; stroke-width: 0.8"/>
     </g>
     <g id="line2d_16">
      <defs>
       <path id="md2190e1299" d="M 0 0 
L -3.5 0 
" style="stroke: #000000; stroke-width: 0.8"/>
      </defs>
      <g>
       <use xlink:href="#md2190e1299" x="54" y="243.636923" style="stroke: #000000; stroke-width: 0.8"/>
      </g>
     </g>
     <g id="text_9">
      <!-- −12 -->
      <g transform="translate(25.895312 247.436142)scale(0.1 -0.1)">
       <defs>
        <path id="DejaVuSans-2212" d="M 678 2272 
L 4684 2272 
L 4684 1741 
L 678 1741 
L 678 2272 
z
" transform="scale(0.015625)"/>
       </defs>
       <use xlink:href="#DejaVuSans-2212"/>
       <use xlink:href="#DejaVuSans-31" x="83.789062"/>
       <use xlink:href="#DejaVuSans-32" x="147.412109"/>
      </g>
     </g>
    </g>
    <g id="ytick_2">
     <g id="line2d_17">
      <path d="M 54 210.184615 
L 388.8 210.184615 
" clip-path="url(#p88f4436aa2)" style="fill: none; stroke-dasharray: 2.96,1.28; stroke-dashoffset: 0; stroke: #b0b0b0; stroke-width: 0.8"/>
     </g>
     <g id="line2d_18">
      <g>
       <use xlink:href="#md2190e1299" x="54" y="210.184615" style="stroke: #000000; stroke-width: 0.8"/>
      </g>
     </g>
     <g id="text_10">
      <!-- −10 -->
      <g transform="translate(25.895312 213.983834)scale(0.1 -0.1)">
       <use xlink:href="#DejaVuSans-2212"/>
       <use xlink:href="#DejaVuSans-31" x="83.789062"/>
       <use xlink:href="#DejaVuSans-30" x="147.412109"/>
      </g>
     </g>
    </g>
    <g id="ytick_3">
     <g id="line2d_19">
      <path d="M 54 176.732308 
L 388.8 176.732308 
" clip-path="url(#p88f4436aa2)" style="fill: none; stroke-dasharray: 2.96,1.28; stroke-dashoffset: 0; stroke: #b0b0b0; stroke-width: 0.8"/>
     </g>
     <g id="line2d_20">
      <g>
       <use xlink:href="#md2190e1299" x="54" y="176.732308" style="stroke: #000000; stroke-width: 0.8"/>
      </g>
     </g>
     <g id="text_11">
      <!-- −8 -->
      <g transform="translate(32.257812 180.531526)scale(0.1 -0.1)">
       <defs>
        <path id="DejaVuSans-38" d="M 2034 2216 
Q 1584 2216 1326 1975 
Q 1069 1734 1069 1313 
Q 1069 891 1326 650 
Q 1584 409 2034 409 
Q 2484 409 2743 651 
Q 3003 894 3003 1313 
Q 3003 1734 2745 1975 
Q 2488 2216 2034 2216 
z
M 1403 2484 
Q 997 2584 770 2862 
Q 544 3141 544 3541 
Q 544 4100 942 4425 
Q 1341 4750 2034 4750 
Q 2731 4750 3128 4425 
Q 3525 4100 3525 3541 
Q 3525 3141 3298 2862 
Q 3072 2584 2669 2484 
Q 3125 2378 3379 2068 
Q 3634 1759 3634 1313 
Q 3634 634 3220 271 
Q 2806 -91 2034 -91 
Q 1263 -91 848 271 
Q 434 634 434 1313 
Q 434 1759 690 2068 
Q 947 2378 1403 2484 
z
M 1172 3481 
Q 1172 3119 1398 2916 
Q 1625 2713 2034 2713 
Q 2441 2713 2670 2916 
Q 2900 3119 2900 3481 
Q 2900 3844 2670 4047 
Q 2441 4250 2034 4250 
Q 1625 4250 1398 4047 
Q 1172 3844 1172 3481 
z
" transform="scale(0.015625)"/>
       </defs>
       <use xlink:href="#DejaVuSans-2212"/>
       <use xlink:href="#DejaVuSans-38" x="83.789062"/>
      </g>
     </g>
    </g>
    <g id="ytick_4">
     <g id="line2d_21">
      <path d="M 54 143.28 
L 388.8 143.28 
" clip-path="url(#p88f4436aa2)" style="fill: none; stroke-dasharray: 2.96,1.28; stroke-dashoffset: 0; stroke: #b0b0b0; stroke-width: 0.8"/>
     </g>
     <g id="line2d_22">
      <g>
       <use xlink:href="#md2190e1299" x="54" y="143.28" style="stroke: #000000; stroke-width: 0.8"/>
      </g>
     </g>
     <g id="text_12">
      <!-- −6 -->
      <g transform="translate(32.257812 147.079219)scale(0.1 -0.1)">
       <defs>
        <path id="DejaVuSans-36" d="M 2113 2584 
Q 1688 2584 1439 2293 
Q 1191 2003 1191 1497 
Q 1191 994 1439 701 
Q 1688 409 2113 409 
Q 2538 409 2786 701 
Q 3034 994 3034 1497 
Q 3034 2003 2786 2293 
Q 2538 2584 2113 2584 
z
M 3366 4563 
L 3366 3988 
Q 3128 4100 2886 4159 
Q 2644 4219 2406 4219 
Q 1781 4219 1451 3797 
Q 1122 3375 1075 2522 
Q 1259 2794 1537 2939 
Q 1816 3084 2150 3084 
Q 2853 3084 3261 2657 
Q 3669 2231 3669 1497 
Q 3669 778 3244 343 
Q 2819 -91 2113 -91 
Q 1303 -91 875 529 
Q 447 1150 447 2328 
Q 447 3434 972 4092 
Q 1497 4750 2381 4750 
Q 2619 4750 2861 4703 
Q 3103 4656 3366 4563 
z
" transform="scale(0.015625)"/>
       </defs>
       <use xlink:href="#DejaVuSans-2212"/>
       <use xlink:href="#DejaVuSans-36" x="83.789062"/>
      </g>
     </g>
    </g>
    <g id="ytick_5">
     <g id="line2d_23">
      <path d="M 54 109.827692 
L 388.8 109.827692 
" clip-path="url(#p88f4436aa2)" style="fill: none; stroke-dasharray: 2.96,1.28; stroke-dashoffset: 0; stroke: #b0b0b0; stroke-width: 0.8"/>
     </g>
     <g id="line2d_24">
      <g>
       <use xlink:href="#md2190e1299" x="54" y="109.827692" style="stroke: #000000; stroke-width: 0.8"/>
      </g>
     </g>
     <g id="text_13">
      <!-- −4 -->
      <g transform="translate(32.257812 113.626911)scale(0.1 -0.1)">
       <defs>
        <path id="DejaVuSans-34" d="M 2419 4116 
L 825 1625 
L 2419 1625 
L 2419 4116 
z
M 2253 4666 
L 3047 4666 
L 3047 1625 
L 3713 1625 
L 3713 1100 
L 3047 1100 
L 3047 0 
L 2419 0 
L 2419 1100 
L 313 1100 
L 313 1709 
L 2253 4666 
z
" transform="scale(0.015625)"/>
       </defs>
       <use xlink:href="#DejaVuSans-2212"/>
       <use xlink:href="#DejaVuSans-34" x="83.789062"/>
      </g>
     </g>
    </g>
    <g id="ytick_6">
     <g id="line2d_25">
      <path d="M 54 76.375385 
L 388.8 76.375385 
" clip-path="url(#p88f4436aa2)" style="fill: none; stroke-dasharray: 2.96,1.28; stroke-dashoffset: 0; stroke: #b0b0b0; stroke-width: 0.8"/>
     </g>
     <g id="line2d_26">
      <g>
       <use xlink:href="#md2190e1299" x="54" y="76.375385" style="stroke: #000000; stroke-width: 0.8"/>
      </g>
     </g>
     <g id="text_14">
      <!-- −2 -->
      <g transform="translate(32.257812 80.174603)scale(0.1 -0.1)">
       <use xlink:href="#DejaVuSans-2212"/>
       <use xlink:href="#DejaVuSans-32" x="83.789062"/>
      </g>
     </g>
    </g>
    <g id="ytick_7">
     <g id="line2d_27">
      <path d="M 54 42.923077 
L 388.8 42.923077 
" clip-path="url(#p88f4436aa2)" style="fill: none; stroke-dasharray: 2.96,1.28; stroke-dashoffset: 0; stroke: #b0b0b0; stroke-width: 0.8"/>
     </g>
     <g id="line2d_28">
      <g>
       <use xlink:href="#md2190e1299" x="54" y="42.923077" style="stroke: #000000; stroke-width: 0.8"/>
      </g>
     </g>
     <g id="text_15">
      <!-- 0 -->
      <g transform="translate(40.6375 46.722296)scale(0.1 -0.1)">
       <use xlink:href="#DejaVuSans-30"/>
      </g>
     </g>
    </g>
    <g id="text_16">
     <!-- Policy value error -->
     <g transform="translate(19.815625 186.597969)rotate(-90)scale(0.1 -0.1)">
      <defs>
       <path id="DejaVuSans-50" d="M 1259 4147 
L 1259 2394 
L 2053 2394 
Q 2494 2394 2734 2622 
Q 2975 2850 2975 3272 
Q 2975 3691 2734 3919 
Q 2494 4147 2053 4147 
L 1259 4147 
z
M 628 4666 
L 2053 4666 
Q 2838 4666 3239 4311 
Q 3641 3956 3641 3272 
Q 3641 2581 3239 2228 
Q 2838 1875 2053 1875 
L 1259 1875 
L 1259 0 
L 628 0 
L 628 4666 
z
" transform="scale(0.015625)"/>
       <path id="DejaVuSans-6f" d="M 1959 3097 
Q 1497 3097 1228 2736 
Q 959 2375 959 1747 
Q 959 1119 1226 758 
Q 1494 397 1959 397 
Q 2419 397 2687 759 
Q 2956 1122 2956 1747 
Q 2956 2369 2687 2733 
Q 2419 3097 1959 3097 
z
M 1959 3584 
Q 2709 3584 3137 3096 
Q 3566 2609 3566 1747 
Q 3566 888 3137 398 
Q 2709 -91 1959 -91 
Q 1206 -91 779 398 
Q 353 888 353 1747 
Q 353 2609 779 3096 
Q 1206 3584 1959 3584 
z
" transform="scale(0.015625)"/>
       <path id="DejaVuSans-6c" d="M 603 4863 
L 1178 4863 
L 1178 0 
L 603 0 
L 603 4863 
z
" transform="scale(0.015625)"/>
       <path id="DejaVuSans-69" d="M 603 3500 
L 1178 3500 
L 1178 0 
L 603 0 
L 603 3500 
z
M 603 4863 
L 1178 4863 
L 1178 4134 
L 603 4134 
L 603 4863 
z
" transform="scale(0.015625)"/>
       <path id="DejaVuSans-63" d="M 3122 3366 
L 3122 2828 
Q 2878 2963 2633 3030 
Q 2388 3097 2138 3097 
Q 1578 3097 1268 2742 
Q 959 2388 959 1747 
Q 959 1106 1268 751 
Q 1578 397 2138 397 
Q 2388 397 2633 464 
Q 2878 531 3122 666 
L 3122 134 
Q 2881 22 2623 -34 
Q 2366 -91 2075 -91 
Q 1284 -91 818 406 
Q 353 903 353 1747 
Q 353 2603 823 3093 
Q 1294 3584 2113 3584 
Q 2378 3584 2631 3529 
Q 2884 3475 3122 3366 
z
" transform="scale(0.015625)"/>
       <path id="DejaVuSans-79" d="M 2059 -325 
Q 1816 -950 1584 -1140 
Q 1353 -1331 966 -1331 
L 506 -1331 
L 506 -850 
L 844 -850 
Q 1081 -850 1212 -737 
Q 1344 -625 1503 -206 
L 1606 56 
L 191 3500 
L 800 3500 
L 1894 763 
L 2988 3500 
L 3597 3500 
L 2059 -325 
z
" transform="scale(0.015625)"/>
       <path id="DejaVuSans-20" transform="scale(0.015625)"/>
       <path id="DejaVuSans-76" d="M 191 3500 
L 800 3500 
L 1894 563 
L 2988 3500 
L 3597 3500 
L 2284 0 
L 1503 0 
L 191 3500 
z
" transform="scale(0.015625)"/>
       <path id="DejaVuSans-61" d="M 2194 1759 
Q 1497 1759 1228 1600 
Q 959 1441 959 1056 
Q 959 750 1161 570 
Q 1363 391 1709 391 
Q 2188 391 2477 730 
Q 2766 1069 2766 1631 
L 2766 1759 
L 2194 1759 
z
M 3341 1997 
L 3341 0 
L 2766 0 
L 2766 531 
Q 2569 213 2275 61 
Q 1981 -91 1556 -91 
Q 1019 -91 701 211 
Q 384 513 384 1019 
Q 384 1609 779 1909 
Q 1175 2209 1959 2209 
L 2766 2209 
L 2766 2266 
Q 2766 2663 2505 2880 
Q 2244 3097 1772 3097 
Q 1472 3097 1187 3025 
Q 903 2953 641 2809 
L 641 3341 
Q 956 3463 1253 3523 
Q 1550 3584 1831 3584 
Q 2591 3584 2966 3190 
Q 3341 2797 3341 1997 
z
" transform="scale(0.015625)"/>
       <path id="DejaVuSans-75" d="M 544 1381 
L 544 3500 
L 1119 3500 
L 1119 1403 
Q 1119 906 1312 657 
Q 1506 409 1894 409 
Q 2359 409 2629 706 
Q 2900 1003 2900 1516 
L 2900 3500 
L 3475 3500 
L 3475 0 
L 2900 0 
L 2900 538 
Q 2691 219 2414 64 
Q 2138 -91 1772 -91 
Q 1169 -91 856 284 
Q 544 659 544 1381 
z
M 1991 3584 
L 1991 3584 
z
" transform="scale(0.015625)"/>
       <path id="DejaVuSans-72" d="M 2631 2963 
Q 2534 3019 2420 3045 
Q 2306 3072 2169 3072 
Q 1681 3072 1420 2755 
Q 1159 2438 1159 1844 
L 1159 0 
L 581 0 
L 581 3500 
L 1159 3500 
L 1159 2956 
Q 1341 3275 1631 3429 
Q 1922 3584 2338 3584 
Q 2397 3584 2469 3576 
Q 2541 3569 2628 3553 
L 2631 2963 
z
" transform="scale(0.015625)"/>
      </defs>
      <use xlink:href="#DejaVuSans-50"/>
      <use xlink:href="#DejaVuSans-6f" x="56.677734"/>
      <use xlink:href="#DejaVuSans-6c" x="117.859375"/>
      <use xlink:href="#DejaVuSans-69" x="145.642578"/>
      <use xlink:href="#DejaVuSans-63" x="173.425781"/>
      <use xlink:href="#DejaVuSans-79" x="228.40625"/>
      <use xlink:href="#DejaVuSans-20" x="287.585938"/>
      <use xlink:href="#DejaVuSans-76" x="319.373047"/>
      <use xlink:href="#DejaVuSans-61" x="378.552734"/>
      <use xlink:href="#DejaVuSans-6c" x="439.832031"/>
      <use xlink:href="#DejaVuSans-75" x="467.615234"/>
      <use xlink:href="#DejaVuSans-65" x="530.994141"/>
      <use xlink:href="#DejaVuSans-20" x="592.517578"/>
      <use xlink:href="#DejaVuSans-65" x="624.304688"/>
      <use xlink:href="#DejaVuSans-72" x="685.828125"/>
      <use xlink:href="#DejaVuSans-72" x="725.191406"/>
      <use xlink:href="#DejaVuSans-6f" x="764.054688"/>
      <use xlink:href="#DejaVuSans-72" x="825.236328"/>
     </g>
    </g>
   </g>
   <g id="line2d_29">
    <path d="M 69.218182 252.929928 
L 74.376888 256.856095 
L 79.535593 252.86024 
L 84.694299 259.633107 
L 89.853005 253.671055 
L 95.01171 173.683211 
L 100.170416 184.274691 
L 105.329122 167.952095 
L 110.487827 187.968265 
L 115.646533 171.180823 
L 120.805239 146.329172 
L 125.963945 167.075925 
L 131.12265 166.459703 
L 136.281356 143.55289 
L 141.440062 179.680732 
L 146.598767 150.642154 
L 151.757473 173.299736 
L 156.916179 168.193779 
L 162.074884 177.718024 
L 167.23359 173.860912 
L 172.392296 173.860911 
L 177.551002 151.153663 
L 182.709707 173.212097 
L 187.868413 173.378031 
L 193.027119 140.765842 
L 198.185824 138.119835 
L 203.34453 143.247552 
L 208.503236 140.101715 
L 213.661941 127.006086 
L 218.820647 127.521572 
L 223.979353 125.255821 
L 229.138059 125.897518 
L 234.296764 125.992709 
L 239.45547 125.974407 
L 244.614176 125.974407 
L 249.772881 125.974407 
L 254.931587 60.766217 
L 260.090293 60.766217 
L 265.248998 60.766217 
L 270.407704 66.257596 
L 275.56641 66.257596 
L 280.725116 72.459567 
L 285.883821 72.807476 
L 291.042527 72.807476 
L 296.201233 72.807476 
L 301.359938 72.807476 
L 306.518644 72.807476 
L 311.67735 72.807476 
L 316.836055 66.428496 
L 321.994761 72.807476 
L 327.153467 72.807476 
L 332.312173 66.428496 
L 337.470878 66.428496 
L 342.629584 66.428496 
L 347.78829 66.428496 
L 352.946995 66.428496 
L 358.105701 66.428496 
L 363.264407 66.428496 
L 368.423112 68.538931 
L 373.581818 68.538931 
" clip-path="url(#p88f4436aa2)" style="fill: none; stroke: #9d02d7; stroke-width: 1.5; stroke-linecap: square"/>
    <defs>
     <path id="mfb4537825f" d="M 0 -2 
L -2 2 
L 2 2 
z
" style="stroke: #9d02d7; stroke-linejoin: miter"/>
    </defs>
    <g clip-path="url(#p88f4436aa2)">
     <use xlink:href="#mfb4537825f" x="69.218182" y="252.929928" style="fill: #9d02d7; stroke: #9d02d7; stroke-linejoin: miter"/>
     <use xlink:href="#mfb4537825f" x="74.376888" y="256.856095" style="fill: #9d02d7; stroke: #9d02d7; stroke-linejoin: miter"/>
     <use xlink:href="#mfb4537825f" x="79.535593" y="252.86024" style="fill: #9d02d7; stroke: #9d02d7; stroke-linejoin: miter"/>
     <use xlink:href="#mfb4537825f" x="84.694299" y="259.633107" style="fill: #9d02d7; stroke: #9d02d7; stroke-linejoin: miter"/>
     <use xlink:href="#mfb4537825f" x="89.853005" y="253.671055" style="fill: #9d02d7; stroke: #9d02d7; stroke-linejoin: miter"/>
     <use xlink:href="#mfb4537825f" x="95.01171" y="173.683211" style="fill: #9d02d7; stroke: #9d02d7; stroke-linejoin: miter"/>
     <use xlink:href="#mfb4537825f" x="100.170416" y="184.274691" style="fill: #9d02d7; stroke: #9d02d7; stroke-linejoin: miter"/>
     <use xlink:href="#mfb4537825f" x="105.329122" y="167.952095" style="fill: #9d02d7; stroke: #9d02d7; stroke-linejoin: miter"/>
     <use xlink:href="#mfb4537825f" x="110.487827" y="187.968265" style="fill: #9d02d7; stroke: #9d02d7; stroke-linejoin: miter"/>
     <use xlink:href="#mfb4537825f" x="115.646533" y="171.180823" style="fill: #9d02d7; stroke: #9d02d7; stroke-linejoin: miter"/>
     <use xlink:href="#mfb4537825f" x="120.805239" y="146.329172" style="fill: #9d02d7; stroke: #9d02d7; stroke-linejoin: miter"/>
     <use xlink:href="#mfb4537825f" x="125.963945" y="167.075925" style="fill: #9d02d7; stroke: #9d02d7; stroke-linejoin: miter"/>
     <use xlink:href="#mfb4537825f" x="131.12265" y="166.459703" style="fill: #9d02d7; stroke: #9d02d7; stroke-linejoin: miter"/>
     <use xlink:href="#mfb4537825f" x="136.281356" y="143.55289" style="fill: #9d02d7; stroke: #9d02d7; stroke-linejoin: miter"/>
     <use xlink:href="#mfb4537825f" x="141.440062" y="179.680732" style="fill: #9d02d7; stroke: #9d02d7; stroke-linejoin: miter"/>
     <use xlink:href="#mfb4537825f" x="146.598767" y="150.642154" style="fill: #9d02d7; stroke: #9d02d7; stroke-linejoin: miter"/>
     <use xlink:href="#mfb4537825f" x="151.757473" y="173.299736" style="fill: #9d02d7; stroke: #9d02d7; stroke-linejoin: miter"/>
     <use xlink:href="#mfb4537825f" x="156.916179" y="168.193779" style="fill: #9d02d7; stroke: #9d02d7; stroke-linejoin: miter"/>
     <use xlink:href="#mfb4537825f" x="162.074884" y="177.718024" style="fill: #9d02d7; stroke: #9d02d7; stroke-linejoin: miter"/>
     <use xlink:href="#mfb4537825f" x="167.23359" y="173.860912" style="fill: #9d02d7; stroke: #9d02d7; stroke-linejoin: miter"/>
     <use xlink:href="#mfb4537825f" x="172.392296" y="173.860911" style="fill: #9d02d7; stroke: #9d02d7; stroke-linejoin: miter"/>
     <use xlink:href="#mfb4537825f" x="177.551002" y="151.153663" style="fill: #9d02d7; stroke: #9d02d7; stroke-linejoin: miter"/>
     <use xlink:href="#mfb4537825f" x="182.709707" y="173.212097" style="fill: #9d02d7; stroke: #9d02d7; stroke-linejoin: miter"/>
     <use xlink:href="#mfb4537825f" x="187.868413" y="173.378031" style="fill: #9d02d7; stroke: #9d02d7; stroke-linejoin: miter"/>
     <use xlink:href="#mfb4537825f" x="193.027119" y="140.765842" style="fill: #9d02d7; stroke: #9d02d7; stroke-linejoin: miter"/>
     <use xlink:href="#mfb4537825f" x="198.185824" y="138.119835" style="fill: #9d02d7; stroke: #9d02d7; stroke-linejoin: miter"/>
     <use xlink:href="#mfb4537825f" x="203.34453" y="143.247552" style="fill: #9d02d7; stroke: #9d02d7; stroke-linejoin: miter"/>
     <use xlink:href="#mfb4537825f" x="208.503236" y="140.101715" style="fill: #9d02d7; stroke: #9d02d7; stroke-linejoin: miter"/>
     <use xlink:href="#mfb4537825f" x="213.661941" y="127.006086" style="fill: #9d02d7; stroke: #9d02d7; stroke-linejoin: miter"/>
     <use xlink:href="#mfb4537825f" x="218.820647" y="127.521572" style="fill: #9d02d7; stroke: #9d02d7; stroke-linejoin: miter"/>
     <use xlink:href="#mfb4537825f" x="223.979353" y="125.255821" style="fill: #9d02d7; stroke: #9d02d7; stroke-linejoin: miter"/>
     <use xlink:href="#mfb4537825f" x="229.138059" y="125.897518" style="fill: #9d02d7; stroke: #9d02d7; stroke-linejoin: miter"/>
     <use xlink:href="#mfb4537825f" x="234.296764" y="125.992709" style="fill: #9d02d7; stroke: #9d02d7; stroke-linejoin: miter"/>
     <use xlink:href="#mfb4537825f" x="239.45547" y="125.974407" style="fill: #9d02d7; stroke: #9d02d7; stroke-linejoin: miter"/>
     <use xlink:href="#mfb4537825f" x="244.614176" y="125.974407" style="fill: #9d02d7; stroke: #9d02d7; stroke-linejoin: miter"/>
     <use xlink:href="#mfb4537825f" x="249.772881" y="125.974407" style="fill: #9d02d7; stroke: #9d02d7; stroke-linejoin: miter"/>
     <use xlink:href="#mfb4537825f" x="254.931587" y="60.766217" style="fill: #9d02d7; stroke: #9d02d7; stroke-linejoin: miter"/>
     <use xlink:href="#mfb4537825f" x="260.090293" y="60.766217" style="fill: #9d02d7; stroke: #9d02d7; stroke-linejoin: miter"/>
     <use xlink:href="#mfb4537825f" x="265.248998" y="60.766217" style="fill: #9d02d7; stroke: #9d02d7; stroke-linejoin: miter"/>
     <use xlink:href="#mfb4537825f" x="270.407704" y="66.257596" style="fill: #9d02d7; stroke: #9d02d7; stroke-linejoin: miter"/>
     <use xlink:href="#mfb4537825f" x="275.56641" y="66.257596" style="fill: #9d02d7; stroke: #9d02d7; stroke-linejoin: miter"/>
     <use xlink:href="#mfb4537825f" x="280.725116" y="72.459567" style="fill: #9d02d7; stroke: #9d02d7; stroke-linejoin: miter"/>
     <use xlink:href="#mfb4537825f" x="285.883821" y="72.807476" style="fill: #9d02d7; stroke: #9d02d7; stroke-linejoin: miter"/>
     <use xlink:href="#mfb4537825f" x="291.042527" y="72.807476" style="fill: #9d02d7; stroke: #9d02d7; stroke-linejoin: miter"/>
     <use xlink:href="#mfb4537825f" x="296.201233" y="72.807476" style="fill: #9d02d7; stroke: #9d02d7; stroke-linejoin: miter"/>
     <use xlink:href="#mfb4537825f" x="301.359938" y="72.807476" style="fill: #9d02d7; stroke: #9d02d7; stroke-linejoin: miter"/>
     <use xlink:href="#mfb4537825f" x="306.518644" y="72.807476" style="fill: #9d02d7; stroke: #9d02d7; stroke-linejoin: miter"/>
     <use xlink:href="#mfb4537825f" x="311.67735" y="72.807476" style="fill: #9d02d7; stroke: #9d02d7; stroke-linejoin: miter"/>
     <use xlink:href="#mfb4537825f" x="316.836055" y="66.428496" style="fill: #9d02d7; stroke: #9d02d7; stroke-linejoin: miter"/>
     <use xlink:href="#mfb4537825f" x="321.994761" y="72.807476" style="fill: #9d02d7; stroke: #9d02d7; stroke-linejoin: miter"/>
     <use xlink:href="#mfb4537825f" x="327.153467" y="72.807476" style="fill: #9d02d7; stroke: #9d02d7; stroke-linejoin: miter"/>
     <use xlink:href="#mfb4537825f" x="332.312173" y="66.428496" style="fill: #9d02d7; stroke: #9d02d7; stroke-linejoin: miter"/>
     <use xlink:href="#mfb4537825f" x="337.470878" y="66.428496" style="fill: #9d02d7; stroke: #9d02d7; stroke-linejoin: miter"/>
     <use xlink:href="#mfb4537825f" x="342.629584" y="66.428496" style="fill: #9d02d7; stroke: #9d02d7; stroke-linejoin: miter"/>
     <use xlink:href="#mfb4537825f" x="347.78829" y="66.428496" style="fill: #9d02d7; stroke: #9d02d7; stroke-linejoin: miter"/>
     <use xlink:href="#mfb4537825f" x="352.946995" y="66.428496" style="fill: #9d02d7; stroke: #9d02d7; stroke-linejoin: miter"/>
     <use xlink:href="#mfb4537825f" x="358.105701" y="66.428496" style="fill: #9d02d7; stroke: #9d02d7; stroke-linejoin: miter"/>
     <use xlink:href="#mfb4537825f" x="363.264407" y="66.428496" style="fill: #9d02d7; stroke: #9d02d7; stroke-linejoin: miter"/>
     <use xlink:href="#mfb4537825f" x="368.423112" y="68.538931" style="fill: #9d02d7; stroke: #9d02d7; stroke-linejoin: miter"/>
     <use xlink:href="#mfb4537825f" x="373.581818" y="68.538931" style="fill: #9d02d7; stroke: #9d02d7; stroke-linejoin: miter"/>
    </g>
   </g>
   <g id="line2d_30">
    <path d="M 69.218182 261.107826 
L 74.376888 255.131118 
L 79.535593 252.911708 
L 84.694299 252.978201 
L 89.853005 257.874201 
L 95.01171 254.293159 
L 100.170416 252.908818 
L 105.329122 252.908818 
L 110.487827 252.914775 
L 115.646533 256.451828 
L 120.805239 252.914352 
L 125.963945 252.908818 
L 131.12265 253.86807 
L 136.281356 240.738491 
L 141.440062 253.12786 
L 146.598767 254.38384 
L 151.757473 255.237456 
L 156.916179 253.085799 
L 162.074884 252.908818 
L 167.23359 252.908818 
L 172.392296 237.912979 
L 177.551002 239.630451 
L 182.709707 225.275908 
L 187.868413 152.883027 
L 193.027119 235.020278 
L 198.185824 237.008323 
L 203.34453 123.460039 
L 208.503236 123.452539 
L 213.661941 114.437703 
L 218.820647 43.324967 
L 223.979353 43.324619 
L 229.138059 43.324619 
L 234.296764 43.324619 
L 239.45547 43.324619 
L 244.614176 46.871095 
L 249.772881 46.871095 
L 254.931587 46.871095 
L 260.090293 43.324619 
L 265.248998 43.324619 
L 270.407704 46.871095 
L 275.56641 43.324619 
L 280.725116 43.324619 
L 285.883821 43.324619 
L 291.042527 43.324619 
L 296.201233 43.324619 
L 301.359938 43.324619 
L 306.518644 46.871095 
L 311.67735 43.324619 
L 316.836055 46.871095 
L 321.994761 46.871095 
L 327.153467 46.871095 
L 332.312173 46.871095 
L 337.470878 46.871095 
L 342.629584 46.871095 
L 347.78829 46.871095 
L 352.946995 46.871095 
L 358.105701 46.871095 
L 363.264407 46.871095 
L 368.423112 46.871095 
L 373.581818 46.871095 
" clip-path="url(#p88f4436aa2)" style="fill: none; stroke: #0000ff; stroke-width: 1.5; stroke-linecap: square"/>
    <defs>
     <path id="m34a2eaaad3" d="M 0 2 
C 0.530406 2 1.03916 1.789267 1.414214 1.414214 
C 1.789267 1.03916 2 0.530406 2 0 
C 2 -0.530406 1.789267 -1.03916 1.414214 -1.414214 
C 1.03916 -1.789267 0.530406 -2 0 -2 
C -0.530406 -2 -1.03916 -1.789267 -1.414214 -1.414214 
C -1.789267 -1.03916 -2 -0.530406 -2 0 
C -2 0.530406 -1.789267 1.03916 -1.414214 1.414214 
C -1.03916 1.789267 -0.530406 2 0 2 
z
" style="stroke: #0000ff"/>
    </defs>
    <g clip-path="url(#p88f4436aa2)">
     <use xlink:href="#m34a2eaaad3" x="69.218182" y="261.107826" style="fill: #0000ff; stroke: #0000ff"/>
     <use xlink:href="#m34a2eaaad3" x="74.376888" y="255.131118" style="fill: #0000ff; stroke: #0000ff"/>
     <use xlink:href="#m34a2eaaad3" x="79.535593" y="252.911708" style="fill: #0000ff; stroke: #0000ff"/>
     <use xlink:href="#m34a2eaaad3" x="84.694299" y="252.978201" style="fill: #0000ff; stroke: #0000ff"/>
     <use xlink:href="#m34a2eaaad3" x="89.853005" y="257.874201" style="fill: #0000ff; stroke: #0000ff"/>
     <use xlink:href="#m34a2eaaad3" x="95.01171" y="254.293159" style="fill: #0000ff; stroke: #0000ff"/>
     <use xlink:href="#m34a2eaaad3" x="100.170416" y="252.908818" style="fill: #0000ff; stroke: #0000ff"/>
     <use xlink:href="#m34a2eaaad3" x="105.329122" y="252.908818" style="fill: #0000ff; stroke: #0000ff"/>
     <use xlink:href="#m34a2eaaad3" x="110.487827" y="252.914775" style="fill: #0000ff; stroke: #0000ff"/>
     <use xlink:href="#m34a2eaaad3" x="115.646533" y="256.451828" style="fill: #0000ff; stroke: #0000ff"/>
     <use xlink:href="#m34a2eaaad3" x="120.805239" y="252.914352" style="fill: #0000ff; stroke: #0000ff"/>
     <use xlink:href="#m34a2eaaad3" x="125.963945" y="252.908818" style="fill: #0000ff; stroke: #0000ff"/>
     <use xlink:href="#m34a2eaaad3" x="131.12265" y="253.86807" style="fill: #0000ff; stroke: #0000ff"/>
     <use xlink:href="#m34a2eaaad3" x="136.281356" y="240.738491" style="fill: #0000ff; stroke: #0000ff"/>
     <use xlink:href="#m34a2eaaad3" x="141.440062" y="253.12786" style="fill: #0000ff; stroke: #0000ff"/>
     <use xlink:href="#m34a2eaaad3" x="146.598767" y="254.38384" style="fill: #0000ff; stroke: #0000ff"/>
     <use xlink:href="#m34a2eaaad3" x="151.757473" y="255.237456" style="fill: #0000ff; stroke: #0000ff"/>
     <use xlink:href="#m34a2eaaad3" x="156.916179" y="253.085799" style="fill: #0000ff; stroke: #0000ff"/>
     <use xlink:href="#m34a2eaaad3" x="162.074884" y="252.908818" style="fill: #0000ff; stroke: #0000ff"/>
     <use xlink:href="#m34a2eaaad3" x="167.23359" y="252.908818" style="fill: #0000ff; stroke: #0000ff"/>
     <use xlink:href="#m34a2eaaad3" x="172.392296" y="237.912979" style="fill: #0000ff; stroke: #0000ff"/>
     <use xlink:href="#m34a2eaaad3" x="177.551002" y="239.630451" style="fill: #0000ff; stroke: #0000ff"/>
     <use xlink:href="#m34a2eaaad3" x="182.709707" y="225.275908" style="fill: #0000ff; stroke: #0000ff"/>
     <use xlink:href="#m34a2eaaad3" x="187.868413" y="152.883027" style="fill: #0000ff; stroke: #0000ff"/>
     <use xlink:href="#m34a2eaaad3" x="193.027119" y="235.020278" style="fill: #0000ff; stroke: #0000ff"/>
     <use xlink:href="#m34a2eaaad3" x="198.185824" y="237.008323" style="fill: #0000ff; stroke: #0000ff"/>
     <use xlink:href="#m34a2eaaad3" x="203.34453" y="123.460039" style="fill: #0000ff; stroke: #0000ff"/>
     <use xlink:href="#m34a2eaaad3" x="208.503236" y="123.452539" style="fill: #0000ff; stroke: #0000ff"/>
     <use xlink:href="#m34a2eaaad3" x="213.661941" y="114.437703" style="fill: #0000ff; stroke: #0000ff"/>
     <use xlink:href="#m34a2eaaad3" x="218.820647" y="43.324967" style="fill: #0000ff; stroke: #0000ff"/>
     <use xlink:href="#m34a2eaaad3" x="223.979353" y="43.324619" style="fill: #0000ff; stroke: #0000ff"/>
     <use xlink:href="#m34a2eaaad3" x="229.138059" y="43.324619" style="fill: #0000ff; stroke: #0000ff"/>
     <use xlink:href="#m34a2eaaad3" x="234.296764" y="43.324619" style="fill: #0000ff; stroke: #0000ff"/>
     <use xlink:href="#m34a2eaaad3" x="239.45547" y="43.324619" style="fill: #0000ff; stroke: #0000ff"/>
     <use xlink:href="#m34a2eaaad3" x="244.614176" y="46.871095" style="fill: #0000ff; stroke: #0000ff"/>
     <use xlink:href="#m34a2eaaad3" x="249.772881" y="46.871095" style="fill: #0000ff; stroke: #0000ff"/>
     <use xlink:href="#m34a2eaaad3" x="254.931587" y="46.871095" style="fill: #0000ff; stroke: #0000ff"/>
     <use xlink:href="#m34a2eaaad3" x="260.090293" y="43.324619" style="fill: #0000ff; stroke: #0000ff"/>
     <use xlink:href="#m34a2eaaad3" x="265.248998" y="43.324619" style="fill: #0000ff; stroke: #0000ff"/>
     <use xlink:href="#m34a2eaaad3" x="270.407704" y="46.871095" style="fill: #0000ff; stroke: #0000ff"/>
     <use xlink:href="#m34a2eaaad3" x="275.56641" y="43.324619" style="fill: #0000ff; stroke: #0000ff"/>
     <use xlink:href="#m34a2eaaad3" x="280.725116" y="43.324619" style="fill: #0000ff; stroke: #0000ff"/>
     <use xlink:href="#m34a2eaaad3" x="285.883821" y="43.324619" style="fill: #0000ff; stroke: #0000ff"/>
     <use xlink:href="#m34a2eaaad3" x="291.042527" y="43.324619" style="fill: #0000ff; stroke: #0000ff"/>
     <use xlink:href="#m34a2eaaad3" x="296.201233" y="43.324619" style="fill: #0000ff; stroke: #0000ff"/>
     <use xlink:href="#m34a2eaaad3" x="301.359938" y="43.324619" style="fill: #0000ff; stroke: #0000ff"/>
     <use xlink:href="#m34a2eaaad3" x="306.518644" y="46.871095" style="fill: #0000ff; stroke: #0000ff"/>
     <use xlink:href="#m34a2eaaad3" x="311.67735" y="43.324619" style="fill: #0000ff; stroke: #0000ff"/>
     <use xlink:href="#m34a2eaaad3" x="316.836055" y="46.871095" style="fill: #0000ff; stroke: #0000ff"/>
     <use xlink:href="#m34a2eaaad3" x="321.994761" y="46.871095" style="fill: #0000ff; stroke: #0000ff"/>
     <use xlink:href="#m34a2eaaad3" x="327.153467" y="46.871095" style="fill: #0000ff; stroke: #0000ff"/>
     <use xlink:href="#m34a2eaaad3" x="332.312173" y="46.871095" style="fill: #0000ff; stroke: #0000ff"/>
     <use xlink:href="#m34a2eaaad3" x="337.470878" y="46.871095" style="fill: #0000ff; stroke: #0000ff"/>
     <use xlink:href="#m34a2eaaad3" x="342.629584" y="46.871095" style="fill: #0000ff; stroke: #0000ff"/>
     <use xlink:href="#m34a2eaaad3" x="347.78829" y="46.871095" style="fill: #0000ff; stroke: #0000ff"/>
     <use xlink:href="#m34a2eaaad3" x="352.946995" y="46.871095" style="fill: #0000ff; stroke: #0000ff"/>
     <use xlink:href="#m34a2eaaad3" x="358.105701" y="46.871095" style="fill: #0000ff; stroke: #0000ff"/>
     <use xlink:href="#m34a2eaaad3" x="363.264407" y="46.871095" style="fill: #0000ff; stroke: #0000ff"/>
     <use xlink:href="#m34a2eaaad3" x="368.423112" y="46.871095" style="fill: #0000ff; stroke: #0000ff"/>
     <use xlink:href="#m34a2eaaad3" x="373.581818" y="46.871095" style="fill: #0000ff; stroke: #0000ff"/>
    </g>
   </g>
   <g id="line2d_31">
    <path d="M 69.218182 253.324894 
L 74.376888 252.908818 
L 79.535593 254.555123 
L 84.694299 253.75409 
L 89.853005 252.908818 
L 95.01171 252.908818 
L 100.170416 252.908818 
L 105.329122 252.916148 
L 110.487827 252.908818 
L 115.646533 252.988307 
L 120.805239 252.908818 
L 125.963945 252.908818 
L 131.12265 252.908818 
L 136.281356 252.918703 
L 141.440062 252.908818 
L 146.598767 252.913983 
L 151.757473 252.992395 
L 156.916179 252.91632 
L 162.074884 252.916808 
L 167.23359 252.914381 
L 172.392296 252.911966 
L 177.551002 252.908818 
L 182.709707 252.916323 
L 187.868413 252.912804 
L 193.027119 255.242219 
L 198.185824 245.530828 
L 203.34453 222.078379 
L 208.503236 218.925535 
L 213.661941 218.925535 
L 218.820647 221.023551 
L 223.979353 124.477012 
L 229.138059 143.466585 
L 234.296764 133.776688 
L 239.45547 116.693017 
L 244.614176 116.562499 
L 249.772881 116.562499 
L 254.931587 116.562499 
L 260.090293 116.562499 
L 265.248998 116.562499 
L 270.407704 116.562499 
L 275.56641 46.809224 
L 280.725116 46.667269 
L 285.883821 46.667269 
L 291.042527 46.632159 
L 296.201233 48.514015 
L 301.359938 47.4553 
L 306.518644 47.318491 
L 311.67735 47.318491 
L 316.836055 47.318491 
L 321.994761 47.318491 
L 327.153467 47.318491 
L 332.312173 47.318491 
L 337.470878 47.318491 
L 342.629584 47.318491 
L 347.78829 47.318491 
L 352.946995 47.131959 
L 358.105701 47.131959 
L 363.264407 47.131959 
L 368.423112 47.131959 
L 373.581818 47.131959 
" clip-path="url(#p88f4436aa2)" style="fill: none; stroke: #ff7763; stroke-width: 1.5; stroke-linecap: square"/>
    <defs>
     <path id="m5151e40291" d="M -2 2 
L 2 -2 
M -2 -2 
L 2 2 
" style="stroke: #ff7763"/>
    </defs>
    <g clip-path="url(#p88f4436aa2)">
     <use xlink:href="#m5151e40291" x="69.218182" y="253.324894" style="fill: #ff7763; stroke: #ff7763"/>
     <use xlink:href="#m5151e40291" x="74.376888" y="252.908818" style="fill: #ff7763; stroke: #ff7763"/>
     <use xlink:href="#m5151e40291" x="79.535593" y="254.555123" style="fill: #ff7763; stroke: #ff7763"/>
     <use xlink:href="#m5151e40291" x="84.694299" y="253.75409" style="fill: #ff7763; stroke: #ff7763"/>
     <use xlink:href="#m5151e40291" x="89.853005" y="252.908818" style="fill: #ff7763; stroke: #ff7763"/>
     <use xlink:href="#m5151e40291" x="95.01171" y="252.908818" style="fill: #ff7763; stroke: #ff7763"/>
     <use xlink:href="#m5151e40291" x="100.170416" y="252.908818" style="fill: #ff7763; stroke: #ff7763"/>
     <use xlink:href="#m5151e40291" x="105.329122" y="252.916148" style="fill: #ff7763; stroke: #ff7763"/>
     <use xlink:href="#m5151e40291" x="110.487827" y="252.908818" style="fill: #ff7763; stroke: #ff7763"/>
     <use xlink:href="#m5151e40291" x="115.646533" y="252.988307" style="fill: #ff7763; stroke: #ff7763"/>
     <use xlink:href="#m5151e40291" x="120.805239" y="252.908818" style="fill: #ff7763; stroke: #ff7763"/>
     <use xlink:href="#m5151e40291" x="125.963945" y="252.908818" style="fill: #ff7763; stroke: #ff7763"/>
     <use xlink:href="#m5151e40291" x="131.12265" y="252.908818" style="fill: #ff7763; stroke: #ff7763"/>
     <use xlink:href="#m5151e40291" x="136.281356" y="252.918703" style="fill: #ff7763; stroke: #ff7763"/>
     <use xlink:href="#m5151e40291" x="141.440062" y="252.908818" style="fill: #ff7763; stroke: #ff7763"/>
     <use xlink:href="#m5151e40291" x="146.598767" y="252.913983" style="fill: #ff7763; stroke: #ff7763"/>
     <use xlink:href="#m5151e40291" x="151.757473" y="252.992395" style="fill: #ff7763; stroke: #ff7763"/>
     <use xlink:href="#m5151e40291" x="156.916179" y="252.91632" style="fill: #ff7763; stroke: #ff7763"/>
     <use xlink:href="#m5151e40291" x="162.074884" y="252.916808" style="fill: #ff7763; stroke: #ff7763"/>
     <use xlink:href="#m5151e40291" x="167.23359" y="252.914381" style="fill: #ff7763; stroke: #ff7763"/>
     <use xlink:href="#m5151e40291" x="172.392296" y="252.911966" style="fill: #ff7763; stroke: #ff7763"/>
     <use xlink:href="#m5151e40291" x="177.551002" y="252.908818" style="fill: #ff7763; stroke: #ff7763"/>
     <use xlink:href="#m5151e40291" x="182.709707" y="252.916323" style="fill: #ff7763; stroke: #ff7763"/>
     <use xlink:href="#m5151e40291" x="187.868413" y="252.912804" style="fill: #ff7763; stroke: #ff7763"/>
     <use xlink:href="#m5151e40291" x="193.027119" y="255.242219" style="fill: #ff7763; stroke: #ff7763"/>
     <use xlink:href="#m5151e40291" x="198.185824" y="245.530828" style="fill: #ff7763; stroke: #ff7763"/>
     <use xlink:href="#m5151e40291" x="203.34453" y="222.078379" style="fill: #ff7763; stroke: #ff7763"/>
     <use xlink:href="#m5151e40291" x="208.503236" y="218.925535" style="fill: #ff7763; stroke: #ff7763"/>
     <use xlink:href="#m5151e40291" x="213.661941" y="218.925535" style="fill: #ff7763; stroke: #ff7763"/>
     <use xlink:href="#m5151e40291" x="218.820647" y="221.023551" style="fill: #ff7763; stroke: #ff7763"/>
     <use xlink:href="#m5151e40291" x="223.979353" y="124.477012" style="fill: #ff7763; stroke: #ff7763"/>
     <use xlink:href="#m5151e40291" x="229.138059" y="143.466585" style="fill: #ff7763; stroke: #ff7763"/>
     <use xlink:href="#m5151e40291" x="234.296764" y="133.776688" style="fill: #ff7763; stroke: #ff7763"/>
     <use xlink:href="#m5151e40291" x="239.45547" y="116.693017" style="fill: #ff7763; stroke: #ff7763"/>
     <use xlink:href="#m5151e40291" x="244.614176" y="116.562499" style="fill: #ff7763; stroke: #ff7763"/>
     <use xlink:href="#m5151e40291" x="249.772881" y="116.562499" style="fill: #ff7763; stroke: #ff7763"/>
     <use xlink:href="#m5151e40291" x="254.931587" y="116.562499" style="fill: #ff7763; stroke: #ff7763"/>
     <use xlink:href="#m5151e40291" x="260.090293" y="116.562499" style="fill: #ff7763; stroke: #ff7763"/>
     <use xlink:href="#m5151e40291" x="265.248998" y="116.562499" style="fill: #ff7763; stroke: #ff7763"/>
     <use xlink:href="#m5151e40291" x="270.407704" y="116.562499" style="fill: #ff7763; stroke: #ff7763"/>
     <use xlink:href="#m5151e40291" x="275.56641" y="46.809224" style="fill: #ff7763; stroke: #ff7763"/>
     <use xlink:href="#m5151e40291" x="280.725116" y="46.667269" style="fill: #ff7763; stroke: #ff7763"/>
     <use xlink:href="#m5151e40291" x="285.883821" y="46.667269" style="fill: #ff7763; stroke: #ff7763"/>
     <use xlink:href="#m5151e40291" x="291.042527" y="46.632159" style="fill: #ff7763; stroke: #ff7763"/>
     <use xlink:href="#m5151e40291" x="296.201233" y="48.514015" style="fill: #ff7763; stroke: #ff7763"/>
     <use xlink:href="#m5151e40291" x="301.359938" y="47.4553" style="fill: #ff7763; stroke: #ff7763"/>
     <use xlink:href="#m5151e40291" x="306.518644" y="47.318491" style="fill: #ff7763; stroke: #ff7763"/>
     <use xlink:href="#m5151e40291" x="311.67735" y="47.318491" style="fill: #ff7763; stroke: #ff7763"/>
     <use xlink:href="#m5151e40291" x="316.836055" y="47.318491" style="fill: #ff7763; stroke: #ff7763"/>
     <use xlink:href="#m5151e40291" x="321.994761" y="47.318491" style="fill: #ff7763; stroke: #ff7763"/>
     <use xlink:href="#m5151e40291" x="327.153467" y="47.318491" style="fill: #ff7763; stroke: #ff7763"/>
     <use xlink:href="#m5151e40291" x="332.312173" y="47.318491" style="fill: #ff7763; stroke: #ff7763"/>
     <use xlink:href="#m5151e40291" x="337.470878" y="47.318491" style="fill: #ff7763; stroke: #ff7763"/>
     <use xlink:href="#m5151e40291" x="342.629584" y="47.318491" style="fill: #ff7763; stroke: #ff7763"/>
     <use xlink:href="#m5151e40291" x="347.78829" y="47.318491" style="fill: #ff7763; stroke: #ff7763"/>
     <use xlink:href="#m5151e40291" x="352.946995" y="47.131959" style="fill: #ff7763; stroke: #ff7763"/>
     <use xlink:href="#m5151e40291" x="358.105701" y="47.131959" style="fill: #ff7763; stroke: #ff7763"/>
     <use xlink:href="#m5151e40291" x="363.264407" y="47.131959" style="fill: #ff7763; stroke: #ff7763"/>
     <use xlink:href="#m5151e40291" x="368.423112" y="47.131959" style="fill: #ff7763; stroke: #ff7763"/>
     <use xlink:href="#m5151e40291" x="373.581818" y="47.131959" style="fill: #ff7763; stroke: #ff7763"/>
    </g>
   </g>
   <g id="line2d_32">
    <path d="M 69.218182 253.09283 
L 74.376888 253.747374 
L 79.535593 247.800227 
L 84.694299 253.816197 
L 89.853005 252.908818 
L 95.01171 252.912718 
L 100.170416 252.920975 
L 105.329122 252.923541 
L 110.487827 253.319467 
L 115.646533 252.910031 
L 120.805239 252.912409 
L 125.963945 252.908818 
L 131.12265 253.215191 
L 136.281356 253.39493 
L 141.440062 252.911013 
L 146.598767 252.964111 
L 151.757473 253.301151 
L 156.916179 252.908818 
L 162.074884 253.175797 
L 167.23359 252.914301 
L 172.392296 255.282535 
L 177.551002 248.162729 
L 182.709707 240.304555 
L 187.868413 253.460825 
L 193.027119 246.375941 
L 198.185824 236.26499 
L 203.34453 235.868489 
L 208.503236 217.136266 
L 213.661941 217.114025 
L 218.820647 217.122899 
L 223.979353 217.114025 
L 229.138059 217.607808 
L 234.296764 252.908062 
L 239.45547 116.006863 
L 244.614176 116.270241 
L 249.772881 115.533763 
L 254.931587 115.533763 
L 260.090293 45.556142 
L 265.248998 45.558726 
L 270.407704 45.652216 
L 275.56641 45.55577 
L 280.725116 45.55577 
L 285.883821 46.341663 
L 291.042527 45.531587 
L 296.201233 44.870042 
L 301.359938 45.531587 
L 306.518644 44.925356 
L 311.67735 44.925356 
L 316.836055 44.925356 
L 321.994761 43.319189 
L 327.153467 43.319189 
L 332.312173 43.319189 
L 337.470878 43.319189 
L 342.629584 43.319189 
L 347.78829 43.319189 
L 352.946995 43.319189 
L 358.105701 43.319189 
L 363.264407 43.319189 
L 368.423112 43.319189 
L 373.581818 43.319189 
" clip-path="url(#p88f4436aa2)" style="fill: none; stroke: #ffac1e; stroke-width: 1.5; stroke-linecap: square"/>
    <defs>
     <path id="m29ab681c4d" d="M 0 -2 
L -0.449028 -0.618034 
L -1.902113 -0.618034 
L -0.726543 0.236068 
L -1.175571 1.618034 
L -0 0.763932 
L 1.175571 1.618034 
L 0.726543 0.236068 
L 1.902113 -0.618034 
L 0.449028 -0.618034 
z
" style="stroke: #ffac1e; stroke-linejoin: bevel"/>
    </defs>
    <g clip-path="url(#p88f4436aa2)">
     <use xlink:href="#m29ab681c4d" x="69.218182" y="253.09283" style="fill: #ffac1e; stroke: #ffac1e; stroke-linejoin: bevel"/>
     <use xlink:href="#m29ab681c4d" x="74.376888" y="253.747374" style="fill: #ffac1e; stroke: #ffac1e; stroke-linejoin: bevel"/>
     <use xlink:href="#m29ab681c4d" x="79.535593" y="247.800227" style="fill: #ffac1e; stroke: #ffac1e; stroke-linejoin: bevel"/>
     <use xlink:href="#m29ab681c4d" x="84.694299" y="253.816197" style="fill: #ffac1e; stroke: #ffac1e; stroke-linejoin: bevel"/>
     <use xlink:href="#m29ab681c4d" x="89.853005" y="252.908818" style="fill: #ffac1e; stroke: #ffac1e; stroke-linejoin: bevel"/>
     <use xlink:href="#m29ab681c4d" x="95.01171" y="252.912718" style="fill: #ffac1e; stroke: #ffac1e; stroke-linejoin: bevel"/>
     <use xlink:href="#m29ab681c4d" x="100.170416" y="252.920975" style="fill: #ffac1e; stroke: #ffac1e; stroke-linejoin: bevel"/>
     <use xlink:href="#m29ab681c4d" x="105.329122" y="252.923541" style="fill: #ffac1e; stroke: #ffac1e; stroke-linejoin: bevel"/>
     <use xlink:href="#m29ab681c4d" x="110.487827" y="253.319467" style="fill: #ffac1e; stroke: #ffac1e; stroke-linejoin: bevel"/>
     <use xlink:href="#m29ab681c4d" x="115.646533" y="252.910031" style="fill: #ffac1e; stroke: #ffac1e; stroke-linejoin: bevel"/>
     <use xlink:href="#m29ab681c4d" x="120.805239" y="252.912409" style="fill: #ffac1e; stroke: #ffac1e; stroke-linejoin: bevel"/>
     <use xlink:href="#m29ab681c4d" x="125.963945" y="252.908818" style="fill: #ffac1e; stroke: #ffac1e; stroke-linejoin: bevel"/>
     <use xlink:href="#m29ab681c4d" x="131.12265" y="253.215191" style="fill: #ffac1e; stroke: #ffac1e; stroke-linejoin: bevel"/>
     <use xlink:href="#m29ab681c4d" x="136.281356" y="253.39493" style="fill: #ffac1e; stroke: #ffac1e; stroke-linejoin: bevel"/>
     <use xlink:href="#m29ab681c4d" x="141.440062" y="252.911013" style="fill: #ffac1e; stroke: #ffac1e; stroke-linejoin: bevel"/>
     <use xlink:href="#m29ab681c4d" x="146.598767" y="252.964111" style="fill: #ffac1e; stroke: #ffac1e; stroke-linejoin: bevel"/>
     <use xlink:href="#m29ab681c4d" x="151.757473" y="253.301151" style="fill: #ffac1e; stroke: #ffac1e; stroke-linejoin: bevel"/>
     <use xlink:href="#m29ab681c4d" x="156.916179" y="252.908818" style="fill: #ffac1e; stroke: #ffac1e; stroke-linejoin: bevel"/>
     <use xlink:href="#m29ab681c4d" x="162.074884" y="253.175797" style="fill: #ffac1e; stroke: #ffac1e; stroke-linejoin: bevel"/>
     <use xlink:href="#m29ab681c4d" x="167.23359" y="252.914301" style="fill: #ffac1e; stroke: #ffac1e; stroke-linejoin: bevel"/>
     <use xlink:href="#m29ab681c4d" x="172.392296" y="255.282535" style="fill: #ffac1e; stroke: #ffac1e; stroke-linejoin: bevel"/>
     <use xlink:href="#m29ab681c4d" x="177.551002" y="248.162729" style="fill: #ffac1e; stroke: #ffac1e; stroke-linejoin: bevel"/>
     <use xlink:href="#m29ab681c4d" x="182.709707" y="240.304555" style="fill: #ffac1e; stroke: #ffac1e; stroke-linejoin: bevel"/>
     <use xlink:href="#m29ab681c4d" x="187.868413" y="253.460825" style="fill: #ffac1e; stroke: #ffac1e; stroke-linejoin: bevel"/>
     <use xlink:href="#m29ab681c4d" x="193.027119" y="246.375941" style="fill: #ffac1e; stroke: #ffac1e; stroke-linejoin: bevel"/>
     <use xlink:href="#m29ab681c4d" x="198.185824" y="236.26499" style="fill: #ffac1e; stroke: #ffac1e; stroke-linejoin: bevel"/>
     <use xlink:href="#m29ab681c4d" x="203.34453" y="235.868489" style="fill: #ffac1e; stroke: #ffac1e; stroke-linejoin: bevel"/>
     <use xlink:href="#m29ab681c4d" x="208.503236" y="217.136266" style="fill: #ffac1e; stroke: #ffac1e; stroke-linejoin: bevel"/>
     <use xlink:href="#m29ab681c4d" x="213.661941" y="217.114025" style="fill: #ffac1e; stroke: #ffac1e; stroke-linejoin: bevel"/>
     <use xlink:href="#m29ab681c4d" x="218.820647" y="217.122899" style="fill: #ffac1e; stroke: #ffac1e; stroke-linejoin: bevel"/>
     <use xlink:href="#m29ab681c4d" x="223.979353" y="217.114025" style="fill: #ffac1e; stroke: #ffac1e; stroke-linejoin: bevel"/>
     <use xlink:href="#m29ab681c4d" x="229.138059" y="217.607808" style="fill: #ffac1e; stroke: #ffac1e; stroke-linejoin: bevel"/>
     <use xlink:href="#m29ab681c4d" x="234.296764" y="252.908062" style="fill: #ffac1e; stroke: #ffac1e; stroke-linejoin: bevel"/>
     <use xlink:href="#m29ab681c4d" x="239.45547" y="116.006863" style="fill: #ffac1e; stroke: #ffac1e; stroke-linejoin: bevel"/>
     <use xlink:href="#m29ab681c4d" x="244.614176" y="116.270241" style="fill: #ffac1e; stroke: #ffac1e; stroke-linejoin: bevel"/>
     <use xlink:href="#m29ab681c4d" x="249.772881" y="115.533763" style="fill: #ffac1e; stroke: #ffac1e; stroke-linejoin: bevel"/>
     <use xlink:href="#m29ab681c4d" x="254.931587" y="115.533763" style="fill: #ffac1e; stroke: #ffac1e; stroke-linejoin: bevel"/>
     <use xlink:href="#m29ab681c4d" x="260.090293" y="45.556142" style="fill: #ffac1e; stroke: #ffac1e; stroke-linejoin: bevel"/>
     <use xlink:href="#m29ab681c4d" x="265.248998" y="45.558726" style="fill: #ffac1e; stroke: #ffac1e; stroke-linejoin: bevel"/>
     <use xlink:href="#m29ab681c4d" x="270.407704" y="45.652216" style="fill: #ffac1e; stroke: #ffac1e; stroke-linejoin: bevel"/>
     <use xlink:href="#m29ab681c4d" x="275.56641" y="45.55577" style="fill: #ffac1e; stroke: #ffac1e; stroke-linejoin: bevel"/>
     <use xlink:href="#m29ab681c4d" x="280.725116" y="45.55577" style="fill: #ffac1e; stroke: #ffac1e; stroke-linejoin: bevel"/>
     <use xlink:href="#m29ab681c4d" x="285.883821" y="46.341663" style="fill: #ffac1e; stroke: #ffac1e; stroke-linejoin: bevel"/>
     <use xlink:href="#m29ab681c4d" x="291.042527" y="45.531587" style="fill: #ffac1e; stroke: #ffac1e; stroke-linejoin: bevel"/>
     <use xlink:href="#m29ab681c4d" x="296.201233" y="44.870042" style="fill: #ffac1e; stroke: #ffac1e; stroke-linejoin: bevel"/>
     <use xlink:href="#m29ab681c4d" x="301.359938" y="45.531587" style="fill: #ffac1e; stroke: #ffac1e; stroke-linejoin: bevel"/>
     <use xlink:href="#m29ab681c4d" x="306.518644" y="44.925356" style="fill: #ffac1e; stroke: #ffac1e; stroke-linejoin: bevel"/>
     <use xlink:href="#m29ab681c4d" x="311.67735" y="44.925356" style="fill: #ffac1e; stroke: #ffac1e; stroke-linejoin: bevel"/>
     <use xlink:href="#m29ab681c4d" x="316.836055" y="44.925356" style="fill: #ffac1e; stroke: #ffac1e; stroke-linejoin: bevel"/>
     <use xlink:href="#m29ab681c4d" x="321.994761" y="43.319189" style="fill: #ffac1e; stroke: #ffac1e; stroke-linejoin: bevel"/>
     <use xlink:href="#m29ab681c4d" x="327.153467" y="43.319189" style="fill: #ffac1e; stroke: #ffac1e; stroke-linejoin: bevel"/>
     <use xlink:href="#m29ab681c4d" x="332.312173" y="43.319189" style="fill: #ffac1e; stroke: #ffac1e; stroke-linejoin: bevel"/>
     <use xlink:href="#m29ab681c4d" x="337.470878" y="43.319189" style="fill: #ffac1e; stroke: #ffac1e; stroke-linejoin: bevel"/>
     <use xlink:href="#m29ab681c4d" x="342.629584" y="43.319189" style="fill: #ffac1e; stroke: #ffac1e; stroke-linejoin: bevel"/>
     <use xlink:href="#m29ab681c4d" x="347.78829" y="43.319189" style="fill: #ffac1e; stroke: #ffac1e; stroke-linejoin: bevel"/>
     <use xlink:href="#m29ab681c4d" x="352.946995" y="43.319189" style="fill: #ffac1e; stroke: #ffac1e; stroke-linejoin: bevel"/>
     <use xlink:href="#m29ab681c4d" x="358.105701" y="43.319189" style="fill: #ffac1e; stroke: #ffac1e; stroke-linejoin: bevel"/>
     <use xlink:href="#m29ab681c4d" x="363.264407" y="43.319189" style="fill: #ffac1e; stroke: #ffac1e; stroke-linejoin: bevel"/>
     <use xlink:href="#m29ab681c4d" x="368.423112" y="43.319189" style="fill: #ffac1e; stroke: #ffac1e; stroke-linejoin: bevel"/>
     <use xlink:href="#m29ab681c4d" x="373.581818" y="43.319189" style="fill: #ffac1e; stroke: #ffac1e; stroke-linejoin: bevel"/>
    </g>
   </g>
   <g id="line2d_33">
    <path d="M 69.218182 253.480785 
L 74.376888 258.063392 
L 79.535593 257.319909 
L 84.694299 256.850808 
L 89.853005 252.916686 
L 95.01171 253.004869 
L 100.170416 256.107566 
L 105.329122 221.56738 
L 110.487827 254.857341 
L 115.646533 221.95654 
L 120.805239 254.856214 
L 125.963945 254.853328 
L 131.12265 254.477163 
L 136.281356 253.053211 
L 141.440062 251.925602 
L 146.598767 254.589995 
L 151.757473 254.46948 
L 156.916179 237.878062 
L 162.074884 249.096969 
L 167.23359 235.796457 
L 172.392296 185.674805 
L 177.551002 181.644995 
L 182.709707 183.866674 
L 187.868413 178.623426 
L 193.027119 177.053848 
L 198.185824 179.309672 
L 203.34453 153.289796 
L 208.503236 152.705029 
L 213.661941 123.470547 
L 218.820647 114.656134 
L 223.979353 114.340177 
L 229.138059 114.3392 
L 234.296764 114.536409 
L 239.45547 114.530439 
L 244.614176 43.779391 
L 249.772881 43.939119 
L 254.931587 43.939119 
L 260.090293 43.939119 
L 265.248998 43.779151 
L 270.407704 43.938114 
L 275.56641 43.938114 
L 280.725116 43.938114 
L 285.883821 43.938114 
L 291.042527 43.938114 
L 296.201233 43.938114 
L 301.359938 43.938114 
L 306.518644 46.492055 
L 311.67735 43.938114 
L 316.836055 43.652737 
L 321.994761 43.652737 
L 327.153467 43.652737 
L 332.312173 43.652737 
L 337.470878 43.938114 
L 342.629584 43.938114 
L 347.78829 43.938114 
L 352.946995 48.308602 
L 358.105701 48.308602 
L 363.264407 48.308602 
L 368.423112 48.536115 
L 373.581818 48.536115 
" clip-path="url(#p88f4436aa2)" style="fill: none; stroke: #009435; stroke-width: 1.5; stroke-linecap: square"/>
    <defs>
     <path id="m40bc32f4c7" d="M -2 2 
L 2 2 
L 2 -2 
L -2 -2 
z
" style="stroke: #009435; stroke-linejoin: miter"/>
    </defs>
    <g clip-path="url(#p88f4436aa2)">
     <use xlink:href="#m40bc32f4c7" x="69.218182" y="253.480785" style="fill: #009435; stroke: #009435; stroke-linejoin: miter"/>
     <use xlink:href="#m40bc32f4c7" x="74.376888" y="258.063392" style="fill: #009435; stroke: #009435; stroke-linejoin: miter"/>
     <use xlink:href="#m40bc32f4c7" x="79.535593" y="257.319909" style="fill: #009435; stroke: #009435; stroke-linejoin: miter"/>
     <use xlink:href="#m40bc32f4c7" x="84.694299" y="256.850808" style="fill: #009435; stroke: #009435; stroke-linejoin: miter"/>
     <use xlink:href="#m40bc32f4c7" x="89.853005" y="252.916686" style="fill: #009435; stroke: #009435; stroke-linejoin: miter"/>
     <use xlink:href="#m40bc32f4c7" x="95.01171" y="253.004869" style="fill: #009435; stroke: #009435; stroke-linejoin: miter"/>
     <use xlink:href="#m40bc32f4c7" x="100.170416" y="256.107566" style="fill: #009435; stroke: #009435; stroke-linejoin: miter"/>
     <use xlink:href="#m40bc32f4c7" x="105.329122" y="221.56738" style="fill: #009435; stroke: #009435; stroke-linejoin: miter"/>
     <use xlink:href="#m40bc32f4c7" x="110.487827" y="254.857341" style="fill: #009435; stroke: #009435; stroke-linejoin: miter"/>
     <use xlink:href="#m40bc32f4c7" x="115.646533" y="221.95654" style="fill: #009435; stroke: #009435; stroke-linejoin: miter"/>
     <use xlink:href="#m40bc32f4c7" x="120.805239" y="254.856214" style="fill: #009435; stroke: #009435; stroke-linejoin: miter"/>
     <use xlink:href="#m40bc32f4c7" x="125.963945" y="254.853328" style="fill: #009435; stroke: #009435; stroke-linejoin: miter"/>
     <use xlink:href="#m40bc32f4c7" x="131.12265" y="254.477163" style="fill: #009435; stroke: #009435; stroke-linejoin: miter"/>
     <use xlink:href="#m40bc32f4c7" x="136.281356" y="253.053211" style="fill: #009435; stroke: #009435; stroke-linejoin: miter"/>
     <use xlink:href="#m40bc32f4c7" x="141.440062" y="251.925602" style="fill: #009435; stroke: #009435; stroke-linejoin: miter"/>
     <use xlink:href="#m40bc32f4c7" x="146.598767" y="254.589995" style="fill: #009435; stroke: #009435; stroke-linejoin: miter"/>
     <use xlink:href="#m40bc32f4c7" x="151.757473" y="254.46948" style="fill: #009435; stroke: #009435; stroke-linejoin: miter"/>
     <use xlink:href="#m40bc32f4c7" x="156.916179" y="237.878062" style="fill: #009435; stroke: #009435; stroke-linejoin: miter"/>
     <use xlink:href="#m40bc32f4c7" x="162.074884" y="249.096969" style="fill: #009435; stroke: #009435; stroke-linejoin: miter"/>
     <use xlink:href="#m40bc32f4c7" x="167.23359" y="235.796457" style="fill: #009435; stroke: #009435; stroke-linejoin: miter"/>
     <use xlink:href="#m40bc32f4c7" x="172.392296" y="185.674805" style="fill: #009435; stroke: #009435; stroke-linejoin: miter"/>
     <use xlink:href="#m40bc32f4c7" x="177.551002" y="181.644995" style="fill: #009435; stroke: #009435; stroke-linejoin: miter"/>
     <use xlink:href="#m40bc32f4c7" x="182.709707" y="183.866674" style="fill: #009435; stroke: #009435; stroke-linejoin: miter"/>
     <use xlink:href="#m40bc32f4c7" x="187.868413" y="178.623426" style="fill: #009435; stroke: #009435; stroke-linejoin: miter"/>
     <use xlink:href="#m40bc32f4c7" x="193.027119" y="177.053848" style="fill: #009435; stroke: #009435; stroke-linejoin: miter"/>
     <use xlink:href="#m40bc32f4c7" x="198.185824" y="179.309672" style="fill: #009435; stroke: #009435; stroke-linejoin: miter"/>
     <use xlink:href="#m40bc32f4c7" x="203.34453" y="153.289796" style="fill: #009435; stroke: #009435; stroke-linejoin: miter"/>
     <use xlink:href="#m40bc32f4c7" x="208.503236" y="152.705029" style="fill: #009435; stroke: #009435; stroke-linejoin: miter"/>
     <use xlink:href="#m40bc32f4c7" x="213.661941" y="123.470547" style="fill: #009435; stroke: #009435; stroke-linejoin: miter"/>
     <use xlink:href="#m40bc32f4c7" x="218.820647" y="114.656134" style="fill: #009435; stroke: #009435; stroke-linejoin: miter"/>
     <use xlink:href="#m40bc32f4c7" x="223.979353" y="114.340177" style="fill: #009435; stroke: #009435; stroke-linejoin: miter"/>
     <use xlink:href="#m40bc32f4c7" x="229.138059" y="114.3392" style="fill: #009435; stroke: #009435; stroke-linejoin: miter"/>
     <use xlink:href="#m40bc32f4c7" x="234.296764" y="114.536409" style="fill: #009435; stroke: #009435; stroke-linejoin: miter"/>
     <use xlink:href="#m40bc32f4c7" x="239.45547" y="114.530439" style="fill: #009435; stroke: #009435; stroke-linejoin: miter"/>
     <use xlink:href="#m40bc32f4c7" x="244.614176" y="43.779391" style="fill: #009435; stroke: #009435; stroke-linejoin: miter"/>
     <use xlink:href="#m40bc32f4c7" x="249.772881" y="43.939119" style="fill: #009435; stroke: #009435; stroke-linejoin: miter"/>
     <use xlink:href="#m40bc32f4c7" x="254.931587" y="43.939119" style="fill: #009435; stroke: #009435; stroke-linejoin: miter"/>
     <use xlink:href="#m40bc32f4c7" x="260.090293" y="43.939119" style="fill: #009435; stroke: #009435; stroke-linejoin: miter"/>
     <use xlink:href="#m40bc32f4c7" x="265.248998" y="43.779151" style="fill: #009435; stroke: #009435; stroke-linejoin: miter"/>
     <use xlink:href="#m40bc32f4c7" x="270.407704" y="43.938114" style="fill: #009435; stroke: #009435; stroke-linejoin: miter"/>
     <use xlink:href="#m40bc32f4c7" x="275.56641" y="43.938114" style="fill: #009435; stroke: #009435; stroke-linejoin: miter"/>
     <use xlink:href="#m40bc32f4c7" x="280.725116" y="43.938114" style="fill: #009435; stroke: #009435; stroke-linejoin: miter"/>
     <use xlink:href="#m40bc32f4c7" x="285.883821" y="43.938114" style="fill: #009435; stroke: #009435; stroke-linejoin: miter"/>
     <use xlink:href="#m40bc32f4c7" x="291.042527" y="43.938114" style="fill: #009435; stroke: #009435; stroke-linejoin: miter"/>
     <use xlink:href="#m40bc32f4c7" x="296.201233" y="43.938114" style="fill: #009435; stroke: #009435; stroke-linejoin: miter"/>
     <use xlink:href="#m40bc32f4c7" x="301.359938" y="43.938114" style="fill: #009435; stroke: #009435; stroke-linejoin: miter"/>
     <use xlink:href="#m40bc32f4c7" x="306.518644" y="46.492055" style="fill: #009435; stroke: #009435; stroke-linejoin: miter"/>
     <use xlink:href="#m40bc32f4c7" x="311.67735" y="43.938114" style="fill: #009435; stroke: #009435; stroke-linejoin: miter"/>
     <use xlink:href="#m40bc32f4c7" x="316.836055" y="43.652737" style="fill: #009435; stroke: #009435; stroke-linejoin: miter"/>
     <use xlink:href="#m40bc32f4c7" x="321.994761" y="43.652737" style="fill: #009435; stroke: #009435; stroke-linejoin: miter"/>
     <use xlink:href="#m40bc32f4c7" x="327.153467" y="43.652737" style="fill: #009435; stroke: #009435; stroke-linejoin: miter"/>
     <use xlink:href="#m40bc32f4c7" x="332.312173" y="43.652737" style="fill: #009435; stroke: #009435; stroke-linejoin: miter"/>
     <use xlink:href="#m40bc32f4c7" x="337.470878" y="43.938114" style="fill: #009435; stroke: #009435; stroke-linejoin: miter"/>
     <use xlink:href="#m40bc32f4c7" x="342.629584" y="43.938114" style="fill: #009435; stroke: #009435; stroke-linejoin: miter"/>
     <use xlink:href="#m40bc32f4c7" x="347.78829" y="43.938114" style="fill: #009435; stroke: #009435; stroke-linejoin: miter"/>
     <use xlink:href="#m40bc32f4c7" x="352.946995" y="48.308602" style="fill: #009435; stroke: #009435; stroke-linejoin: miter"/>
     <use xlink:href="#m40bc32f4c7" x="358.105701" y="48.308602" style="fill: #009435; stroke: #009435; stroke-linejoin: miter"/>
     <use xlink:href="#m40bc32f4c7" x="363.264407" y="48.308602" style="fill: #009435; stroke: #009435; stroke-linejoin: miter"/>
     <use xlink:href="#m40bc32f4c7" x="368.423112" y="48.536115" style="fill: #009435; stroke: #009435; stroke-linejoin: miter"/>
     <use xlink:href="#m40bc32f4c7" x="373.581818" y="48.536115" style="fill: #009435; stroke: #009435; stroke-linejoin: miter"/>
    </g>
   </g>
   <g id="patch_3">
    <path d="M 54 252 
L 54 34.56 
" style="fill: none; stroke: #000000; stroke-width: 0.8; stroke-linejoin: miter; stroke-linecap: square"/>
   </g>
   <g id="patch_4">
    <path d="M 388.8 252 
L 388.8 34.56 
" style="fill: none; stroke: #000000; stroke-width: 0.8; stroke-linejoin: miter; stroke-linecap: square"/>
   </g>
   <g id="patch_5">
    <path d="M 54 252 
L 388.8 252 
" style="fill: none; stroke: #000000; stroke-width: 0.8; stroke-linejoin: miter; stroke-linecap: square"/>
   </g>
   <g id="patch_6">
    <path d="M 54 34.56 
L 388.8 34.56 
" style="fill: none; stroke: #000000; stroke-width: 0.8; stroke-linejoin: miter; stroke-linecap: square"/>
   </g>
   <g id="text_17">
    <!-- R-max optimal policy with m = 20 -->
    <g transform="translate(119.205 28.56)scale(0.12 -0.12)">
     <defs>
      <path id="DejaVuSans-52" d="M 2841 2188 
Q 3044 2119 3236 1894 
Q 3428 1669 3622 1275 
L 4263 0 
L 3584 0 
L 2988 1197 
Q 2756 1666 2539 1819 
Q 2322 1972 1947 1972 
L 1259 1972 
L 1259 0 
L 628 0 
L 628 4666 
L 2053 4666 
Q 2853 4666 3247 4331 
Q 3641 3997 3641 3322 
Q 3641 2881 3436 2590 
Q 3231 2300 2841 2188 
z
M 1259 4147 
L 1259 2491 
L 2053 2491 
Q 2509 2491 2742 2702 
Q 2975 2913 2975 3322 
Q 2975 3731 2742 3939 
Q 2509 4147 2053 4147 
L 1259 4147 
z
" transform="scale(0.015625)"/>
      <path id="DejaVuSans-2d" d="M 313 2009 
L 1997 2009 
L 1997 1497 
L 313 1497 
L 313 2009 
z
" transform="scale(0.015625)"/>
      <path id="DejaVuSans-6d" d="M 3328 2828 
Q 3544 3216 3844 3400 
Q 4144 3584 4550 3584 
Q 5097 3584 5394 3201 
Q 5691 2819 5691 2113 
L 5691 0 
L 5113 0 
L 5113 2094 
Q 5113 2597 4934 2840 
Q 4756 3084 4391 3084 
Q 3944 3084 3684 2787 
Q 3425 2491 3425 1978 
L 3425 0 
L 2847 0 
L 2847 2094 
Q 2847 2600 2669 2842 
Q 2491 3084 2119 3084 
Q 1678 3084 1418 2786 
Q 1159 2488 1159 1978 
L 1159 0 
L 581 0 
L 581 3500 
L 1159 3500 
L 1159 2956 
Q 1356 3278 1631 3431 
Q 1906 3584 2284 3584 
Q 2666 3584 2933 3390 
Q 3200 3197 3328 2828 
z
" transform="scale(0.015625)"/>
      <path id="DejaVuSans-78" d="M 3513 3500 
L 2247 1797 
L 3578 0 
L 2900 0 
L 1881 1375 
L 863 0 
L 184 0 
L 1544 1831 
L 300 3500 
L 978 3500 
L 1906 2253 
L 2834 3500 
L 3513 3500 
z
" transform="scale(0.015625)"/>
      <path id="DejaVuSans-77" d="M 269 3500 
L 844 3500 
L 1563 769 
L 2278 3500 
L 2956 3500 
L 3675 769 
L 4391 3500 
L 4966 3500 
L 4050 0 
L 3372 0 
L 2619 2869 
L 1863 0 
L 1184 0 
L 269 3500 
z
" transform="scale(0.015625)"/>
      <path id="DejaVuSans-68" d="M 3513 2113 
L 3513 0 
L 2938 0 
L 2938 2094 
Q 2938 2591 2744 2837 
Q 2550 3084 2163 3084 
Q 1697 3084 1428 2787 
Q 1159 2491 1159 1978 
L 1159 0 
L 581 0 
L 581 4863 
L 1159 4863 
L 1159 2956 
Q 1366 3272 1645 3428 
Q 1925 3584 2291 3584 
Q 2894 3584 3203 3211 
Q 3513 2838 3513 2113 
z
" transform="scale(0.015625)"/>
      <path id="DejaVuSans-3d" d="M 678 2906 
L 4684 2906 
L 4684 2381 
L 678 2381 
L 678 2906 
z
M 678 1631 
L 4684 1631 
L 4684 1100 
L 678 1100 
L 678 1631 
z
" transform="scale(0.015625)"/>
     </defs>
     <use xlink:href="#DejaVuSans-52"/>
     <use xlink:href="#DejaVuSans-2d" x="65.482422"/>
     <use xlink:href="#DejaVuSans-6d" x="101.566406"/>
     <use xlink:href="#DejaVuSans-61" x="198.978516"/>
     <use xlink:href="#DejaVuSans-78" x="260.257812"/>
     <use xlink:href="#DejaVuSans-20" x="319.4375"/>
     <use xlink:href="#DejaVuSans-6f" x="351.224609"/>
     <use xlink:href="#DejaVuSans-70" x="412.40625"/>
     <use xlink:href="#DejaVuSans-74" x="475.882812"/>
     <use xlink:href="#DejaVuSans-69" x="515.091797"/>
     <use xlink:href="#DejaVuSans-6d" x="542.875"/>
     <use xlink:href="#DejaVuSans-61" x="640.287109"/>
     <use xlink:href="#DejaVuSans-6c" x="701.566406"/>
     <use xlink:href="#DejaVuSans-20" x="729.349609"/>
     <use xlink:href="#DejaVuSans-70" x="761.136719"/>
     <use xlink:href="#DejaVuSans-6f" x="824.613281"/>
     <use xlink:href="#DejaVuSans-6c" x="885.794922"/>
     <use xlink:href="#DejaVuSans-69" x="913.578125"/>
     <use xlink:href="#DejaVuSans-63" x="941.361328"/>
     <use xlink:href="#DejaVuSans-79" x="996.341797"/>
     <use xlink:href="#DejaVuSans-20" x="1055.521484"/>
     <use xlink:href="#DejaVuSans-77" x="1087.308594"/>
     <use xlink:href="#DejaVuSans-69" x="1169.095703"/>
     <use xlink:href="#DejaVuSans-74" x="1196.878906"/>
     <use xlink:href="#DejaVuSans-68" x="1236.087891"/>
     <use xlink:href="#DejaVuSans-20" x="1299.466797"/>
     <use xlink:href="#DejaVuSans-6d" x="1331.253906"/>
     <use xlink:href="#DejaVuSans-20" x="1428.666016"/>
     <use xlink:href="#DejaVuSans-3d" x="1460.453125"/>
     <use xlink:href="#DejaVuSans-20" x="1544.242188"/>
     <use xlink:href="#DejaVuSans-32" x="1576.029297"/>
     <use xlink:href="#DejaVuSans-30" x="1639.652344"/>
    </g>
   </g>
   <g id="legend_1">
    <g id="patch_7">
     <path d="M 61 117.34125 
L 211.9875 117.34125 
Q 213.9875 117.34125 213.9875 115.34125 
L 213.9875 41.56 
Q 213.9875 39.56 211.9875 39.56 
L 61 39.56 
Q 59 39.56 59 41.56 
L 59 115.34125 
Q 59 117.34125 61 117.34125 
z
" style="fill: #ffffff; opacity: 0.8; stroke: #cccccc; stroke-linejoin: miter"/>
    </g>
    <g id="line2d_34">
     <path d="M 63 47.658437 
L 73 47.658437 
L 83 47.658437 
" style="fill: none; stroke: #9d02d7; stroke-width: 1.5; stroke-linecap: square"/>
     <g>
      <use xlink:href="#mfb4537825f" x="73" y="47.658437" style="fill: #9d02d7; stroke: #9d02d7; stroke-linejoin: miter"/>
     </g>
    </g>
    <g id="text_18">
     <!-- m_uncertain_states=5 -->
     <g transform="translate(91 51.158437)scale(0.1 -0.1)">
      <defs>
       <path id="DejaVuSans-5f" d="M 3263 -1063 
L 3263 -1509 
L -63 -1509 
L -63 -1063 
L 3263 -1063 
z
" transform="scale(0.015625)"/>
       <path id="DejaVuSans-6e" d="M 3513 2113 
L 3513 0 
L 2938 0 
L 2938 2094 
Q 2938 2591 2744 2837 
Q 2550 3084 2163 3084 
Q 1697 3084 1428 2787 
Q 1159 2491 1159 1978 
L 1159 0 
L 581 0 
L 581 3500 
L 1159 3500 
L 1159 2956 
Q 1366 3272 1645 3428 
Q 1925 3584 2291 3584 
Q 2894 3584 3203 3211 
Q 3513 2838 3513 2113 
z
" transform="scale(0.015625)"/>
      </defs>
      <use xlink:href="#DejaVuSans-6d"/>
      <use xlink:href="#DejaVuSans-5f" x="97.412109"/>
      <use xlink:href="#DejaVuSans-75" x="147.412109"/>
      <use xlink:href="#DejaVuSans-6e" x="210.791016"/>
      <use xlink:href="#DejaVuSans-63" x="274.169922"/>
      <use xlink:href="#DejaVuSans-65" x="329.150391"/>
      <use xlink:href="#DejaVuSans-72" x="390.673828"/>
      <use xlink:href="#DejaVuSans-74" x="431.787109"/>
      <use xlink:href="#DejaVuSans-61" x="470.996094"/>
      <use xlink:href="#DejaVuSans-69" x="532.275391"/>
      <use xlink:href="#DejaVuSans-6e" x="560.058594"/>
      <use xlink:href="#DejaVuSans-5f" x="623.4375"/>
      <use xlink:href="#DejaVuSans-73" x="673.4375"/>
      <use xlink:href="#DejaVuSans-74" x="725.537109"/>
      <use xlink:href="#DejaVuSans-61" x="764.746094"/>
      <use xlink:href="#DejaVuSans-74" x="826.025391"/>
      <use xlink:href="#DejaVuSans-65" x="865.234375"/>
      <use xlink:href="#DejaVuSans-73" x="926.757812"/>
      <use xlink:href="#DejaVuSans-3d" x="978.857422"/>
      <use xlink:href="#DejaVuSans-35" x="1062.646484"/>
     </g>
    </g>
    <g id="line2d_35">
     <path d="M 63 62.614688 
L 73 62.614688 
L 83 62.614688 
" style="fill: none; stroke: #0000ff; stroke-width: 1.5; stroke-linecap: square"/>
     <g>
      <use xlink:href="#m34a2eaaad3" x="73" y="62.614688" style="fill: #0000ff; stroke: #0000ff"/>
     </g>
    </g>
    <g id="text_19">
     <!-- m_uncertain_states=10 -->
     <g transform="translate(91 66.114688)scale(0.1 -0.1)">
      <use xlink:href="#DejaVuSans-6d"/>
      <use xlink:href="#DejaVuSans-5f" x="97.412109"/>
      <use xlink:href="#DejaVuSans-75" x="147.412109"/>
      <use xlink:href="#DejaVuSans-6e" x="210.791016"/>
      <use xlink:href="#DejaVuSans-63" x="274.169922"/>
      <use xlink:href="#DejaVuSans-65" x="329.150391"/>
      <use xlink:href="#DejaVuSans-72" x="390.673828"/>
      <use xlink:href="#DejaVuSans-74" x="431.787109"/>
      <use xlink:href="#DejaVuSans-61" x="470.996094"/>
      <use xlink:href="#DejaVuSans-69" x="532.275391"/>
      <use xlink:href="#DejaVuSans-6e" x="560.058594"/>
      <use xlink:href="#DejaVuSans-5f" x="623.4375"/>
      <use xlink:href="#DejaVuSans-73" x="673.4375"/>
      <use xlink:href="#DejaVuSans-74" x="725.537109"/>
      <use xlink:href="#DejaVuSans-61" x="764.746094"/>
      <use xlink:href="#DejaVuSans-74" x="826.025391"/>
      <use xlink:href="#DejaVuSans-65" x="865.234375"/>
      <use xlink:href="#DejaVuSans-73" x="926.757812"/>
      <use xlink:href="#DejaVuSans-3d" x="978.857422"/>
      <use xlink:href="#DejaVuSans-31" x="1062.646484"/>
      <use xlink:href="#DejaVuSans-30" x="1126.269531"/>
     </g>
    </g>
    <g id="line2d_36">
     <path d="M 63 77.570937 
L 73 77.570937 
L 83 77.570937 
" style="fill: none; stroke: #ff7763; stroke-width: 1.5; stroke-linecap: square"/>
     <g>
      <use xlink:href="#m5151e40291" x="73" y="77.570937" style="fill: #ff7763; stroke: #ff7763"/>
     </g>
    </g>
    <g id="text_20">
     <!-- m_uncertain_states=15 -->
     <g transform="translate(91 81.070937)scale(0.1 -0.1)">
      <use xlink:href="#DejaVuSans-6d"/>
      <use xlink:href="#DejaVuSans-5f" x="97.412109"/>
      <use xlink:href="#DejaVuSans-75" x="147.412109"/>
      <use xlink:href="#DejaVuSans-6e" x="210.791016"/>
      <use xlink:href="#DejaVuSans-63" x="274.169922"/>
      <use xlink:href="#DejaVuSans-65" x="329.150391"/>
      <use xlink:href="#DejaVuSans-72" x="390.673828"/>
      <use xlink:href="#DejaVuSans-74" x="431.787109"/>
      <use xlink:href="#DejaVuSans-61" x="470.996094"/>
      <use xlink:href="#DejaVuSans-69" x="532.275391"/>
      <use xlink:href="#DejaVuSans-6e" x="560.058594"/>
      <use xlink:href="#DejaVuSans-5f" x="623.4375"/>
      <use xlink:href="#DejaVuSans-73" x="673.4375"/>
      <use xlink:href="#DejaVuSans-74" x="725.537109"/>
      <use xlink:href="#DejaVuSans-61" x="764.746094"/>
      <use xlink:href="#DejaVuSans-74" x="826.025391"/>
      <use xlink:href="#DejaVuSans-65" x="865.234375"/>
      <use xlink:href="#DejaVuSans-73" x="926.757812"/>
      <use xlink:href="#DejaVuSans-3d" x="978.857422"/>
      <use xlink:href="#DejaVuSans-31" x="1062.646484"/>
      <use xlink:href="#DejaVuSans-35" x="1126.269531"/>
     </g>
    </g>
    <g id="line2d_37">
     <path d="M 63 92.527187 
L 73 92.527187 
L 83 92.527187 
" style="fill: none; stroke: #ffac1e; stroke-width: 1.5; stroke-linecap: square"/>
     <g>
      <use xlink:href="#m29ab681c4d" x="73" y="92.527187" style="fill: #ffac1e; stroke: #ffac1e; stroke-linejoin: bevel"/>
     </g>
    </g>
    <g id="text_21">
     <!-- m_uncertain_states=20 -->
     <g transform="translate(91 96.027187)scale(0.1 -0.1)">
      <use xlink:href="#DejaVuSans-6d"/>
      <use xlink:href="#DejaVuSans-5f" x="97.412109"/>
      <use xlink:href="#DejaVuSans-75" x="147.412109"/>
      <use xlink:href="#DejaVuSans-6e" x="210.791016"/>
      <use xlink:href="#DejaVuSans-63" x="274.169922"/>
      <use xlink:href="#DejaVuSans-65" x="329.150391"/>
      <use xlink:href="#DejaVuSans-72" x="390.673828"/>
      <use xlink:href="#DejaVuSans-74" x="431.787109"/>
      <use xlink:href="#DejaVuSans-61" x="470.996094"/>
      <use xlink:href="#DejaVuSans-69" x="532.275391"/>
      <use xlink:href="#DejaVuSans-6e" x="560.058594"/>
      <use xlink:href="#DejaVuSans-5f" x="623.4375"/>
      <use xlink:href="#DejaVuSans-73" x="673.4375"/>
      <use xlink:href="#DejaVuSans-74" x="725.537109"/>
      <use xlink:href="#DejaVuSans-61" x="764.746094"/>
      <use xlink:href="#DejaVuSans-74" x="826.025391"/>
      <use xlink:href="#DejaVuSans-65" x="865.234375"/>
      <use xlink:href="#DejaVuSans-73" x="926.757812"/>
      <use xlink:href="#DejaVuSans-3d" x="978.857422"/>
      <use xlink:href="#DejaVuSans-32" x="1062.646484"/>
      <use xlink:href="#DejaVuSans-30" x="1126.269531"/>
     </g>
    </g>
    <g id="line2d_38">
     <path d="M 63 107.483437 
L 73 107.483437 
L 83 107.483437 
" style="fill: none; stroke: #009435; stroke-width: 1.5; stroke-linecap: square"/>
     <g>
      <use xlink:href="#m40bc32f4c7" x="73" y="107.483437" style="fill: #009435; stroke: #009435; stroke-linejoin: miter"/>
     </g>
    </g>
    <g id="text_22">
     <!-- m_uncertain_states=25 -->
     <g transform="translate(91 110.983437)scale(0.1 -0.1)">
      <use xlink:href="#DejaVuSans-6d"/>
      <use xlink:href="#DejaVuSans-5f" x="97.412109"/>
      <use xlink:href="#DejaVuSans-75" x="147.412109"/>
      <use xlink:href="#DejaVuSans-6e" x="210.791016"/>
      <use xlink:href="#DejaVuSans-63" x="274.169922"/>
      <use xlink:href="#DejaVuSans-65" x="329.150391"/>
      <use xlink:href="#DejaVuSans-72" x="390.673828"/>
      <use xlink:href="#DejaVuSans-74" x="431.787109"/>
      <use xlink:href="#DejaVuSans-61" x="470.996094"/>
      <use xlink:href="#DejaVuSans-69" x="532.275391"/>
      <use xlink:href="#DejaVuSans-6e" x="560.058594"/>
      <use xlink:href="#DejaVuSans-5f" x="623.4375"/>
      <use xlink:href="#DejaVuSans-73" x="673.4375"/>
      <use xlink:href="#DejaVuSans-74" x="725.537109"/>
      <use xlink:href="#DejaVuSans-61" x="764.746094"/>
      <use xlink:href="#DejaVuSans-74" x="826.025391"/>
      <use xlink:href="#DejaVuSans-65" x="865.234375"/>
      <use xlink:href="#DejaVuSans-73" x="926.757812"/>
      <use xlink:href="#DejaVuSans-3d" x="978.857422"/>
      <use xlink:href="#DejaVuSans-32" x="1062.646484"/>
      <use xlink:href="#DejaVuSans-35" x="1126.269531"/>
     </g>
    </g>
   </g>
  </g>
 </g>
 <defs>
  <clipPath id="p88f4436aa2">
   <rect x="54" y="34.56" width="334.8" height="217.44"/>
  </clipPath>
 </defs>
</svg>
