<?xml version="1.0" encoding="utf-8" standalone="no"?>
<!DOCTYPE svg PUBLIC "-//W3C//DTD SVG 1.1//EN"
  "http://www.w3.org/Graphics/SVG/1.1/DTD/svg11.dtd">
<svg xmlns:xlink="http://www.w3.org/1999/xlink" width="432pt" height="288pt" viewBox="0 0 432 288" xmlns="http://www.w3.org/2000/svg" version="1.1">
 <metadata>
  <rdf:RDF xmlns:dc="http://purl.org/dc/elements/1.1/" xmlns:cc="http://creativecommons.org/ns#" xmlns:rdf="http://www.w3.org/1999/02/22-rdf-syntax-ns#">
   <cc:Work>
    <dc:type rdf:resource="http://purl.org/dc/dcmitype/StillImage"/>
    <dc:date>2023-01-11T15:36:39.602708</dc:date>
    <dc:format>image/svg+xml</dc:format>
    <dc:creator>
     <cc:Agent>
      <dc:title>Matplotlib v3.5.2, https://matplotlib.org/</dc:title>
     </cc:Agent>
    </dc:creator>
   </cc:Work>
  </rdf:RDF>
 </metadata>
 <defs>
  <style type="text/css">*{stroke-linejoin: round; stroke-linecap: butt}</style>
 </defs>
 <g id="figure_1">
  <g id="patch_1">
   <path d="M 0 288 
L 432 288 
L 432 0 
L 0 0 
z
" style="fill: #ffffff"/>
  </g>
  <g id="axes_1">
   <g id="patch_2">
    <path d="M 54 252 
L 388.8 252 
L 388.8 34.56 
L 54 34.56 
z
" style="fill: #ffffff"/>
   </g>
   <g id="PolyCollection_1">
    <defs>
     <path id="me14583cc0e" d="M 69.218182 -35.429781 
L 69.218182 -35.429781 
L 74.376888 -87.274075 
L 79.535593 -37.32394 
L 84.694299 -144.019 
L 89.853005 -56.445437 
L 95.01171 -32.921283 
L 100.170416 -242.536947 
L 105.329122 -235.432927 
L 110.487827 -238.707613 
L 115.646533 -238.707613 
L 120.805239 -242.514503 
L 125.963945 -234.72531 
L 131.12265 -234.725309 
L 136.281356 -242.515462 
L 141.440062 -242.515462 
L 146.598767 -242.515462 
L 151.757473 -242.499779 
L 156.916179 -242.515462 
L 162.074884 -242.468538 
L 167.23359 -242.467573 
L 172.392296 -242.467573 
L 177.551002 -242.467573 
L 182.709707 -242.174245 
L 187.868413 -242.504389 
L 193.027119 -242.352901 
L 198.185824 -242.352901 
L 203.34453 -242.352901 
L 208.503236 -242.352901 
L 213.661941 -242.352901 
L 218.820647 -241.831358 
L 223.979353 -241.520072 
L 229.138059 -241.520072 
L 234.296764 -241.520072 
L 239.45547 -241.520072 
L 244.614176 -241.33392 
L 249.772881 -242.368465 
L 254.931587 -242.368465 
L 260.090293 -242.368465 
L 265.248998 -242.503423 
L 270.407704 -242.3205 
L 275.56641 -242.409544 
L 280.725116 -242.503423 
L 285.883821 -242.503423 
L 291.042527 -242.503423 
L 296.201233 -242.504388 
L 301.359938 -242.504389 
L 306.518644 -242.504388 
L 311.67735 -242.515462 
L 316.836055 -242.504388 
L 321.994761 -242.504388 
L 327.153467 -242.504388 
L 332.312173 -242.504388 
L 337.470878 -242.504388 
L 342.629584 -242.504388 
L 347.78829 -242.504388 
L 352.946995 -242.504388 
L 358.105701 -242.504388 
L 363.264407 -242.504388 
L 368.423112 -242.504388 
L 373.581818 -242.504388 
L 373.581818 -242.504388 
L 373.581818 -242.504388 
L 368.423112 -242.504388 
L 363.264407 -242.504388 
L 358.105701 -242.504388 
L 352.946995 -242.504388 
L 347.78829 -242.504388 
L 342.629584 -242.504388 
L 337.470878 -242.504388 
L 332.312173 -242.504388 
L 327.153467 -242.504388 
L 321.994761 -242.504388 
L 316.836055 -242.504388 
L 311.67735 -242.515462 
L 306.518644 -242.504388 
L 301.359938 -242.504389 
L 296.201233 -242.504388 
L 291.042527 -242.503423 
L 285.883821 -242.503423 
L 280.725116 -242.503423 
L 275.56641 -242.409544 
L 270.407704 -242.3205 
L 265.248998 -242.503423 
L 260.090293 -242.368465 
L 254.931587 -242.368465 
L 249.772881 -242.368465 
L 244.614176 -241.33392 
L 239.45547 -241.520072 
L 234.296764 -241.520072 
L 229.138059 -241.520072 
L 223.979353 -241.520072 
L 218.820647 -241.831358 
L 213.661941 -242.352901 
L 208.503236 -242.352901 
L 203.34453 -242.352901 
L 198.185824 -242.352901 
L 193.027119 -242.352901 
L 187.868413 -242.504389 
L 182.709707 -242.174245 
L 177.551002 -242.467573 
L 172.392296 -242.467573 
L 167.23359 -242.467573 
L 162.074884 -242.468538 
L 156.916179 -242.515462 
L 151.757473 -242.499779 
L 146.598767 -242.515462 
L 141.440062 -242.515462 
L 136.281356 -242.515462 
L 131.12265 -234.725309 
L 125.963945 -234.72531 
L 120.805239 -242.514503 
L 115.646533 -238.707613 
L 110.487827 -238.707613 
L 105.329122 -235.432927 
L 100.170416 -242.536947 
L 95.01171 -32.921283 
L 89.853005 -56.445437 
L 84.694299 -144.019 
L 79.535593 -37.32394 
L 74.376888 -87.274075 
L 69.218182 -35.429781 
z
" style="stroke: #9d02d7; stroke-opacity: 0.2"/>
    </defs>
    <g clip-path="url(#p82b36d9dcc)">
     <use xlink:href="#me14583cc0e" x="0" y="288" style="fill: #9d02d7; fill-opacity: 0.2; stroke: #9d02d7; stroke-opacity: 0.2"/>
    </g>
   </g>
   <g id="PolyCollection_2">
    <defs>
     <path id="m7ea28f3a7b" d="M 69.218182 -30.580344 
L 69.218182 -30.580344 
L 74.376888 -33.522991 
L 79.535593 -32.969814 
L 84.694299 -25.21925 
L 89.853005 -33.689946 
L 95.01171 -242.435902 
L 100.170416 -230.76818 
L 105.329122 -242.435902 
L 110.487827 -242.297611 
L 115.646533 -232.619006 
L 120.805239 -242.585888 
L 125.963945 -232.760644 
L 131.12265 -242.435902 
L 136.281356 -242.435902 
L 141.440062 -242.435902 
L 146.598767 -242.435902 
L 151.757473 -242.435902 
L 156.916179 -242.435902 
L 162.074884 -242.435902 
L 167.23359 -242.435902 
L 172.392296 -242.435902 
L 177.551002 -242.435902 
L 182.709707 -242.453159 
L 187.868413 -242.585888 
L 193.027119 -242.585888 
L 198.185824 -242.297611 
L 203.34453 -242.435902 
L 208.503236 -242.297611 
L 213.661941 -242.297611 
L 218.820647 -242.297611 
L 223.979353 -242.435902 
L 229.138059 -242.297611 
L 234.296764 -242.297611 
L 239.45547 -242.297611 
L 244.614176 -242.435902 
L 249.772881 -242.297611 
L 254.931587 -242.297611 
L 260.090293 -242.297611 
L 265.248998 -242.297611 
L 270.407704 -242.297611 
L 275.56641 -242.435902 
L 280.725116 -242.435902 
L 285.883821 -242.297611 
L 291.042527 -242.297611 
L 296.201233 -242.297611 
L 301.359938 -242.435902 
L 306.518644 -242.435902 
L 311.67735 -242.435902 
L 316.836055 -242.435902 
L 321.994761 -242.435902 
L 327.153467 -242.435902 
L 332.312173 -242.435902 
L 337.470878 -242.435902 
L 342.629584 -242.435902 
L 347.78829 -242.435902 
L 352.946995 -242.435902 
L 358.105701 -242.435902 
L 363.264407 -242.435902 
L 368.423112 -242.435902 
L 373.581818 -242.435902 
L 373.581818 -242.435902 
L 373.581818 -242.435902 
L 368.423112 -242.435902 
L 363.264407 -242.435902 
L 358.105701 -242.435902 
L 352.946995 -242.435902 
L 347.78829 -242.435902 
L 342.629584 -242.435902 
L 337.470878 -242.435902 
L 332.312173 -242.435902 
L 327.153467 -242.435902 
L 321.994761 -242.435902 
L 316.836055 -242.435902 
L 311.67735 -242.435902 
L 306.518644 -242.435902 
L 301.359938 -242.435902 
L 296.201233 -242.297611 
L 291.042527 -242.297611 
L 285.883821 -242.297611 
L 280.725116 -242.435902 
L 275.56641 -242.435902 
L 270.407704 -242.297611 
L 265.248998 -242.297611 
L 260.090293 -242.297611 
L 254.931587 -242.297611 
L 249.772881 -242.297611 
L 244.614176 -242.435902 
L 239.45547 -242.297611 
L 234.296764 -242.297611 
L 229.138059 -242.297611 
L 223.979353 -242.435902 
L 218.820647 -242.297611 
L 213.661941 -242.297611 
L 208.503236 -242.297611 
L 203.34453 -242.435902 
L 198.185824 -242.297611 
L 193.027119 -242.585888 
L 187.868413 -242.585888 
L 182.709707 -242.453159 
L 177.551002 -242.435902 
L 172.392296 -242.435902 
L 167.23359 -242.435902 
L 162.074884 -242.435902 
L 156.916179 -242.435902 
L 151.757473 -242.435902 
L 146.598767 -242.435902 
L 141.440062 -242.435902 
L 136.281356 -242.435902 
L 131.12265 -242.435902 
L 125.963945 -232.760644 
L 120.805239 -242.585888 
L 115.646533 -232.619006 
L 110.487827 -242.297611 
L 105.329122 -242.435902 
L 100.170416 -230.76818 
L 95.01171 -242.435902 
L 89.853005 -33.689946 
L 84.694299 -25.21925 
L 79.535593 -32.969814 
L 74.376888 -33.522991 
L 69.218182 -30.580344 
z
" style="stroke: #0000ff; stroke-opacity: 0.2"/>
    </defs>
    <g clip-path="url(#p82b36d9dcc)">
     <use xlink:href="#m7ea28f3a7b" x="0" y="288" style="fill: #0000ff; fill-opacity: 0.2; stroke: #0000ff; stroke-opacity: 0.2"/>
    </g>
   </g>
   <g id="PolyCollection_3">
    <defs>
     <path id="mb030754a7b" d="M 69.218182 -33.734216 
L 69.218182 -33.734216 
L 74.376888 -19.937333 
L 79.535593 -30.944811 
L 84.694299 -31.649282 
L 89.853005 -179.021085 
L 95.01171 -178.014657 
L 100.170416 -223.876677 
L 105.329122 -223.876677 
L 110.487827 -223.693044 
L 115.646533 -230.732783 
L 120.805239 -242.531793 
L 125.963945 -221.614532 
L 131.12265 -229.694125 
L 136.281356 -234.744208 
L 141.440062 -242.349968 
L 146.598767 -238.888279 
L 151.757473 -238.401663 
L 156.916179 -241.143293 
L 162.074884 -241.159338 
L 167.23359 -242.175787 
L 172.392296 -242.175787 
L 177.551002 -242.175787 
L 182.709707 -242.510462 
L 187.868413 -242.33429 
L 193.027119 -242.33429 
L 198.185824 -242.175787 
L 203.34453 -242.33429 
L 208.503236 -242.33429 
L 213.661941 -242.349968 
L 218.820647 -242.531793 
L 223.979353 -241.159338 
L 229.138059 -241.363281 
L 234.296764 -242.69576 
L 239.45547 -242.835185 
L 244.614176 -242.819267 
L 249.772881 -242.613032 
L 254.931587 -242.819267 
L 260.090293 -242.819267 
L 265.248998 -242.819267 
L 270.407704 -242.819267 
L 275.56641 -242.33429 
L 280.725116 -241.780895 
L 285.883821 -241.796823 
L 291.042527 -241.780895 
L 296.201233 -241.780895 
L 301.359938 -241.780895 
L 306.518644 -241.780895 
L 311.67735 -241.780895 
L 316.836055 -241.796823 
L 321.994761 -242.464374 
L 327.153467 -241.540254 
L 332.312173 -241.796823 
L 337.470878 -241.651508 
L 342.629584 -241.66725 
L 347.78829 -241.651508 
L 352.946995 -241.556181 
L 358.105701 -242.333086 
L 363.264407 -242.329835 
L 368.423112 -242.329835 
L 373.581818 -242.313556 
L 373.581818 -242.313556 
L 373.581818 -242.313556 
L 368.423112 -242.329835 
L 363.264407 -242.329835 
L 358.105701 -242.333086 
L 352.946995 -241.556181 
L 347.78829 -241.651508 
L 342.629584 -241.66725 
L 337.470878 -241.651508 
L 332.312173 -241.796823 
L 327.153467 -241.540254 
L 321.994761 -242.464374 
L 316.836055 -241.796823 
L 311.67735 -241.780895 
L 306.518644 -241.780895 
L 301.359938 -241.780895 
L 296.201233 -241.780895 
L 291.042527 -241.780895 
L 285.883821 -241.796823 
L 280.725116 -241.780895 
L 275.56641 -242.33429 
L 270.407704 -242.819267 
L 265.248998 -242.819267 
L 260.090293 -242.819267 
L 254.931587 -242.819267 
L 249.772881 -242.613032 
L 244.614176 -242.819267 
L 239.45547 -242.835185 
L 234.296764 -242.69576 
L 229.138059 -241.363281 
L 223.979353 -241.159338 
L 218.820647 -242.531793 
L 213.661941 -242.349968 
L 208.503236 -242.33429 
L 203.34453 -242.33429 
L 198.185824 -242.175787 
L 193.027119 -242.33429 
L 187.868413 -242.33429 
L 182.709707 -242.510462 
L 177.551002 -242.175787 
L 172.392296 -242.175787 
L 167.23359 -242.175787 
L 162.074884 -241.159338 
L 156.916179 -241.143293 
L 151.757473 -238.401663 
L 146.598767 -238.888279 
L 141.440062 -242.349968 
L 136.281356 -234.744208 
L 131.12265 -229.694125 
L 125.963945 -221.614532 
L 120.805239 -242.531793 
L 115.646533 -230.732783 
L 110.487827 -223.693044 
L 105.329122 -223.876677 
L 100.170416 -223.876677 
L 95.01171 -178.014657 
L 89.853005 -179.021085 
L 84.694299 -31.649282 
L 79.535593 -30.944811 
L 74.376888 -19.937333 
L 69.218182 -33.734216 
z
" style="stroke: #ff7763; stroke-opacity: 0.2"/>
    </defs>
    <g clip-path="url(#p82b36d9dcc)">
     <use xlink:href="#mb030754a7b" x="0" y="288" style="fill: #ff7763; fill-opacity: 0.2; stroke: #ff7763; stroke-opacity: 0.2"/>
    </g>
   </g>
   <g id="PolyCollection_4">
    <defs>
     <path id="ma4ac5671ad" d="M 69.218182 -30.188593 
L 69.218182 -30.188593 
L 74.376888 -33.051062 
L 79.535593 -29.116758 
L 84.694299 -34.577444 
L 89.853005 -240.16198 
L 95.01171 -209.607691 
L 100.170416 -171.613854 
L 105.329122 -233.209744 
L 110.487827 -207.015087 
L 115.646533 -202.564582 
L 120.805239 -225.714875 
L 125.963945 -230.925287 
L 131.12265 -241.209821 
L 136.281356 -242.386399 
L 141.440062 -232.341065 
L 146.598767 -211.267425 
L 151.757473 -207.982049 
L 156.916179 -231.911412 
L 162.074884 -231.911412 
L 167.23359 -230.781462 
L 172.392296 -230.861159 
L 177.551002 -223.328511 
L 182.709707 -210.439721 
L 187.868413 -220.344161 
L 193.027119 -234.908972 
L 198.185824 -235.389614 
L 203.34453 -236.055422 
L 208.503236 -235.753551 
L 213.661941 -227.353413 
L 218.820647 -240.789379 
L 223.979353 -240.586721 
L 229.138059 -240.789379 
L 234.296764 -240.789379 
L 239.45547 -240.995225 
L 244.614176 -239.178312 
L 249.772881 -239.178312 
L 254.931587 -239.178312 
L 260.090293 -240.995225 
L 265.248998 -240.789379 
L 270.407704 -241.079742 
L 275.56641 -241.079742 
L 280.725116 -241.372131 
L 285.883821 -241.372131 
L 291.042527 -240.713911 
L 296.201233 -237.543505 
L 301.359938 -245.064407 
L 306.518644 -245.064407 
L 311.67735 -245.07571 
L 316.836055 -245.07571 
L 321.994761 -245.064407 
L 327.153467 -241.372131 
L 332.312173 -240.904315 
L 337.470878 -240.134604 
L 342.629584 -241.373418 
L 347.78829 -240.304292 
L 352.946995 -239.254164 
L 358.105701 -238.955172 
L 363.264407 -240.995225 
L 368.423112 -241.405106 
L 373.581818 -241.403678 
L 373.581818 -241.403678 
L 373.581818 -241.403678 
L 368.423112 -241.405106 
L 363.264407 -240.995225 
L 358.105701 -238.955172 
L 352.946995 -239.254164 
L 347.78829 -240.304292 
L 342.629584 -241.373418 
L 337.470878 -240.134604 
L 332.312173 -240.904315 
L 327.153467 -241.372131 
L 321.994761 -245.064407 
L 316.836055 -245.07571 
L 311.67735 -245.07571 
L 306.518644 -245.064407 
L 301.359938 -245.064407 
L 296.201233 -237.543505 
L 291.042527 -240.713911 
L 285.883821 -241.372131 
L 280.725116 -241.372131 
L 275.56641 -241.079742 
L 270.407704 -241.079742 
L 265.248998 -240.789379 
L 260.090293 -240.995225 
L 254.931587 -239.178312 
L 249.772881 -239.178312 
L 244.614176 -239.178312 
L 239.45547 -240.995225 
L 234.296764 -240.789379 
L 229.138059 -240.789379 
L 223.979353 -240.586721 
L 218.820647 -240.789379 
L 213.661941 -227.353413 
L 208.503236 -235.753551 
L 203.34453 -236.055422 
L 198.185824 -235.389614 
L 193.027119 -234.908972 
L 187.868413 -220.344161 
L 182.709707 -210.439721 
L 177.551002 -223.328511 
L 172.392296 -230.861159 
L 167.23359 -230.781462 
L 162.074884 -231.911412 
L 156.916179 -231.911412 
L 151.757473 -207.982049 
L 146.598767 -211.267425 
L 141.440062 -232.341065 
L 136.281356 -242.386399 
L 131.12265 -241.209821 
L 125.963945 -230.925287 
L 120.805239 -225.714875 
L 115.646533 -202.564582 
L 110.487827 -207.015087 
L 105.329122 -233.209744 
L 100.170416 -171.613854 
L 95.01171 -209.607691 
L 89.853005 -240.16198 
L 84.694299 -34.577444 
L 79.535593 -29.116758 
L 74.376888 -33.051062 
L 69.218182 -30.188593 
z
" style="stroke: #ffac1e; stroke-opacity: 0.2"/>
    </defs>
    <g clip-path="url(#p82b36d9dcc)">
     <use xlink:href="#ma4ac5671ad" x="0" y="288" style="fill: #ffac1e; fill-opacity: 0.2; stroke: #ffac1e; stroke-opacity: 0.2"/>
    </g>
   </g>
   <g id="PolyCollection_5">
    <defs>
     <path id="mc66c3d3664" d="M 69.218182 -35.076469 
L 69.218182 -35.076469 
L 74.376888 -33.97253 
L 79.535593 -27.395193 
L 84.694299 -34.48152 
L 89.853005 -186.485664 
L 95.01171 -233.377142 
L 100.170416 -174.10293 
L 105.329122 -230.554283 
L 110.487827 -228.28357 
L 115.646533 -153.709187 
L 120.805239 -128.51358 
L 125.963945 -114.425099 
L 131.12265 -115.872255 
L 136.281356 -237.570716 
L 141.440062 -208.218729 
L 146.598767 -196.69634 
L 151.757473 -212.381836 
L 156.916179 -208.932597 
L 162.074884 -90.516332 
L 167.23359 -97.91971 
L 172.392296 -230.334343 
L 177.551002 -64.861991 
L 182.709707 -202.04656 
L 187.868413 -208.105654 
L 193.027119 -205.153882 
L 198.185824 -223.558789 
L 203.34453 -221.941358 
L 208.503236 -225.336287 
L 213.661941 -179.159782 
L 218.820647 -199.691487 
L 223.979353 -217.935815 
L 229.138059 -225.156597 
L 234.296764 -210.872289 
L 239.45547 -216.987428 
L 244.614176 -201.063963 
L 249.772881 -225.453098 
L 254.931587 -225.453098 
L 260.090293 -225.418577 
L 265.248998 -150.536494 
L 270.407704 -216.987428 
L 275.56641 -225.613385 
L 280.725116 -216.987428 
L 285.883821 -190.404683 
L 291.042527 -227.559256 
L 296.201233 -224.221904 
L 301.359938 -223.593324 
L 306.518644 -223.593324 
L 311.67735 -226.013239 
L 316.836055 -228.831746 
L 321.994761 -227.225033 
L 327.153467 -228.607268 
L 332.312173 -225.450753 
L 337.470878 -228.876523 
L 342.629584 -226.967065 
L 347.78829 -219.455194 
L 352.946995 -226.967065 
L 358.105701 -226.967065 
L 363.264407 -216.414337 
L 368.423112 -228.607268 
L 373.581818 -228.643714 
L 373.581818 -228.643714 
L 373.581818 -228.643714 
L 368.423112 -228.607268 
L 363.264407 -216.414337 
L 358.105701 -226.967065 
L 352.946995 -226.967065 
L 347.78829 -219.455194 
L 342.629584 -226.967065 
L 337.470878 -228.876523 
L 332.312173 -225.450753 
L 327.153467 -228.607268 
L 321.994761 -227.225033 
L 316.836055 -228.831746 
L 311.67735 -226.013239 
L 306.518644 -223.593324 
L 301.359938 -223.593324 
L 296.201233 -224.221904 
L 291.042527 -227.559256 
L 285.883821 -190.404683 
L 280.725116 -216.987428 
L 275.56641 -225.613385 
L 270.407704 -216.987428 
L 265.248998 -150.536494 
L 260.090293 -225.418577 
L 254.931587 -225.453098 
L 249.772881 -225.453098 
L 244.614176 -201.063963 
L 239.45547 -216.987428 
L 234.296764 -210.872289 
L 229.138059 -225.156597 
L 223.979353 -217.935815 
L 218.820647 -199.691487 
L 213.661941 -179.159782 
L 208.503236 -225.336287 
L 203.34453 -221.941358 
L 198.185824 -223.558789 
L 193.027119 -205.153882 
L 187.868413 -208.105654 
L 182.709707 -202.04656 
L 177.551002 -64.861991 
L 172.392296 -230.334343 
L 167.23359 -97.91971 
L 162.074884 -90.516332 
L 156.916179 -208.932597 
L 151.757473 -212.381836 
L 146.598767 -196.69634 
L 141.440062 -208.218729 
L 136.281356 -237.570716 
L 131.12265 -115.872255 
L 125.963945 -114.425099 
L 120.805239 -128.51358 
L 115.646533 -153.709187 
L 110.487827 -228.28357 
L 105.329122 -230.554283 
L 100.170416 -174.10293 
L 95.01171 -233.377142 
L 89.853005 -186.485664 
L 84.694299 -34.48152 
L 79.535593 -27.395193 
L 74.376888 -33.97253 
L 69.218182 -35.076469 
z
" style="stroke: #009435; stroke-opacity: 0.2"/>
    </defs>
    <g clip-path="url(#p82b36d9dcc)">
     <use xlink:href="#mc66c3d3664" x="0" y="288" style="fill: #009435; fill-opacity: 0.2; stroke: #009435; stroke-opacity: 0.2"/>
    </g>
   </g>
   <g id="matplotlib.axis_1">
    <g id="xtick_1">
     <g id="line2d_1">
      <path d="M 69.218182 252 
L 69.218182 34.56 
" clip-path="url(#p82b36d9dcc)" style="fill: none; stroke-dasharray: 2.96,1.28; stroke-dashoffset: 0; stroke: #b0b0b0; stroke-width: 0.8"/>
     </g>
     <g id="line2d_2">
      <defs>
       <path id="m9e460ec20d" d="M 0 0 
L 0 3.5 
" style="stroke: #000000; stroke-width: 0.8"/>
      </defs>
      <g>
       <use xlink:href="#m9e460ec20d" x="69.218182" y="252" style="stroke: #000000; stroke-width: 0.8"/>
      </g>
     </g>
     <g id="text_1">
      <!-- 0 -->
      <g transform="translate(66.036932 266.598437)scale(0.1 -0.1)">
       <defs>
        <path id="DejaVuSans-30" d="M 2034 4250 
Q 1547 4250 1301 3770 
Q 1056 3291 1056 2328 
Q 1056 1369 1301 889 
Q 1547 409 2034 409 
Q 2525 409 2770 889 
Q 3016 1369 3016 2328 
Q 3016 3291 2770 3770 
Q 2525 4250 2034 4250 
z
M 2034 4750 
Q 2819 4750 3233 4129 
Q 3647 3509 3647 2328 
Q 3647 1150 3233 529 
Q 2819 -91 2034 -91 
Q 1250 -91 836 529 
Q 422 1150 422 2328 
Q 422 3509 836 4129 
Q 1250 4750 2034 4750 
z
" transform="scale(0.015625)"/>
       </defs>
       <use xlink:href="#DejaVuSans-30"/>
      </g>
     </g>
    </g>
    <g id="xtick_2">
     <g id="line2d_3">
      <path d="M 120.805239 252 
L 120.805239 34.56 
" clip-path="url(#p82b36d9dcc)" style="fill: none; stroke-dasharray: 2.96,1.28; stroke-dashoffset: 0; stroke: #b0b0b0; stroke-width: 0.8"/>
     </g>
     <g id="line2d_4">
      <g>
       <use xlink:href="#m9e460ec20d" x="120.805239" y="252" style="stroke: #000000; stroke-width: 0.8"/>
      </g>
     </g>
     <g id="text_2">
      <!-- 500 -->
      <g transform="translate(111.261489 266.598437)scale(0.1 -0.1)">
       <defs>
        <path id="DejaVuSans-35" d="M 691 4666 
L 3169 4666 
L 3169 4134 
L 1269 4134 
L 1269 2991 
Q 1406 3038 1543 3061 
Q 1681 3084 1819 3084 
Q 2600 3084 3056 2656 
Q 3513 2228 3513 1497 
Q 3513 744 3044 326 
Q 2575 -91 1722 -91 
Q 1428 -91 1123 -41 
Q 819 9 494 109 
L 494 744 
Q 775 591 1075 516 
Q 1375 441 1709 441 
Q 2250 441 2565 725 
Q 2881 1009 2881 1497 
Q 2881 1984 2565 2268 
Q 2250 2553 1709 2553 
Q 1456 2553 1204 2497 
Q 953 2441 691 2322 
L 691 4666 
z
" transform="scale(0.015625)"/>
       </defs>
       <use xlink:href="#DejaVuSans-35"/>
       <use xlink:href="#DejaVuSans-30" x="63.623047"/>
       <use xlink:href="#DejaVuSans-30" x="127.246094"/>
      </g>
     </g>
    </g>
    <g id="xtick_3">
     <g id="line2d_5">
      <path d="M 172.392296 252 
L 172.392296 34.56 
" clip-path="url(#p82b36d9dcc)" style="fill: none; stroke-dasharray: 2.96,1.28; stroke-dashoffset: 0; stroke: #b0b0b0; stroke-width: 0.8"/>
     </g>
     <g id="line2d_6">
      <g>
       <use xlink:href="#m9e460ec20d" x="172.392296" y="252" style="stroke: #000000; stroke-width: 0.8"/>
      </g>
     </g>
     <g id="text_3">
      <!-- 1000 -->
      <g transform="translate(159.667296 266.598437)scale(0.1 -0.1)">
       <defs>
        <path id="DejaVuSans-31" d="M 794 531 
L 1825 531 
L 1825 4091 
L 703 3866 
L 703 4441 
L 1819 4666 
L 2450 4666 
L 2450 531 
L 3481 531 
L 3481 0 
L 794 0 
L 794 531 
z
" transform="scale(0.015625)"/>
       </defs>
       <use xlink:href="#DejaVuSans-31"/>
       <use xlink:href="#DejaVuSans-30" x="63.623047"/>
       <use xlink:href="#DejaVuSans-30" x="127.246094"/>
       <use xlink:href="#DejaVuSans-30" x="190.869141"/>
      </g>
     </g>
    </g>
    <g id="xtick_4">
     <g id="line2d_7">
      <path d="M 223.979353 252 
L 223.979353 34.56 
" clip-path="url(#p82b36d9dcc)" style="fill: none; stroke-dasharray: 2.96,1.28; stroke-dashoffset: 0; stroke: #b0b0b0; stroke-width: 0.8"/>
     </g>
     <g id="line2d_8">
      <g>
       <use xlink:href="#m9e460ec20d" x="223.979353" y="252" style="stroke: #000000; stroke-width: 0.8"/>
      </g>
     </g>
     <g id="text_4">
      <!-- 1500 -->
      <g transform="translate(211.254353 266.598437)scale(0.1 -0.1)">
       <use xlink:href="#DejaVuSans-31"/>
       <use xlink:href="#DejaVuSans-35" x="63.623047"/>
       <use xlink:href="#DejaVuSans-30" x="127.246094"/>
       <use xlink:href="#DejaVuSans-30" x="190.869141"/>
      </g>
     </g>
    </g>
    <g id="xtick_5">
     <g id="line2d_9">
      <path d="M 275.56641 252 
L 275.56641 34.56 
" clip-path="url(#p82b36d9dcc)" style="fill: none; stroke-dasharray: 2.96,1.28; stroke-dashoffset: 0; stroke: #b0b0b0; stroke-width: 0.8"/>
     </g>
     <g id="line2d_10">
      <g>
       <use xlink:href="#m9e460ec20d" x="275.56641" y="252" style="stroke: #000000; stroke-width: 0.8"/>
      </g>
     </g>
     <g id="text_5">
      <!-- 2000 -->
      <g transform="translate(262.84141 266.598437)scale(0.1 -0.1)">
       <defs>
        <path id="DejaVuSans-32" d="M 1228 531 
L 3431 531 
L 3431 0 
L 469 0 
L 469 531 
Q 828 903 1448 1529 
Q 2069 2156 2228 2338 
Q 2531 2678 2651 2914 
Q 2772 3150 2772 3378 
Q 2772 3750 2511 3984 
Q 2250 4219 1831 4219 
Q 1534 4219 1204 4116 
Q 875 4013 500 3803 
L 500 4441 
Q 881 4594 1212 4672 
Q 1544 4750 1819 4750 
Q 2544 4750 2975 4387 
Q 3406 4025 3406 3419 
Q 3406 3131 3298 2873 
Q 3191 2616 2906 2266 
Q 2828 2175 2409 1742 
Q 1991 1309 1228 531 
z
" transform="scale(0.015625)"/>
       </defs>
       <use xlink:href="#DejaVuSans-32"/>
       <use xlink:href="#DejaVuSans-30" x="63.623047"/>
       <use xlink:href="#DejaVuSans-30" x="127.246094"/>
       <use xlink:href="#DejaVuSans-30" x="190.869141"/>
      </g>
     </g>
    </g>
    <g id="xtick_6">
     <g id="line2d_11">
      <path d="M 327.153467 252 
L 327.153467 34.56 
" clip-path="url(#p82b36d9dcc)" style="fill: none; stroke-dasharray: 2.96,1.28; stroke-dashoffset: 0; stroke: #b0b0b0; stroke-width: 0.8"/>
     </g>
     <g id="line2d_12">
      <g>
       <use xlink:href="#m9e460ec20d" x="327.153467" y="252" style="stroke: #000000; stroke-width: 0.8"/>
      </g>
     </g>
     <g id="text_6">
      <!-- 2500 -->
      <g transform="translate(314.428467 266.598437)scale(0.1 -0.1)">
       <use xlink:href="#DejaVuSans-32"/>
       <use xlink:href="#DejaVuSans-35" x="63.623047"/>
       <use xlink:href="#DejaVuSans-30" x="127.246094"/>
       <use xlink:href="#DejaVuSans-30" x="190.869141"/>
      </g>
     </g>
    </g>
    <g id="xtick_7">
     <g id="line2d_13">
      <path d="M 378.740524 252 
L 378.740524 34.56 
" clip-path="url(#p82b36d9dcc)" style="fill: none; stroke-dasharray: 2.96,1.28; stroke-dashoffset: 0; stroke: #b0b0b0; stroke-width: 0.8"/>
     </g>
     <g id="line2d_14">
      <g>
       <use xlink:href="#m9e460ec20d" x="378.740524" y="252" style="stroke: #000000; stroke-width: 0.8"/>
      </g>
     </g>
     <g id="text_7">
      <!-- 3000 -->
      <g transform="translate(366.015524 266.598437)scale(0.1 -0.1)">
       <defs>
        <path id="DejaVuSans-33" d="M 2597 2516 
Q 3050 2419 3304 2112 
Q 3559 1806 3559 1356 
Q 3559 666 3084 287 
Q 2609 -91 1734 -91 
Q 1441 -91 1130 -33 
Q 819 25 488 141 
L 488 750 
Q 750 597 1062 519 
Q 1375 441 1716 441 
Q 2309 441 2620 675 
Q 2931 909 2931 1356 
Q 2931 1769 2642 2001 
Q 2353 2234 1838 2234 
L 1294 2234 
L 1294 2753 
L 1863 2753 
Q 2328 2753 2575 2939 
Q 2822 3125 2822 3475 
Q 2822 3834 2567 4026 
Q 2313 4219 1838 4219 
Q 1578 4219 1281 4162 
Q 984 4106 628 3988 
L 628 4550 
Q 988 4650 1302 4700 
Q 1616 4750 1894 4750 
Q 2613 4750 3031 4423 
Q 3450 4097 3450 3541 
Q 3450 3153 3228 2886 
Q 3006 2619 2597 2516 
z
" transform="scale(0.015625)"/>
       </defs>
       <use xlink:href="#DejaVuSans-33"/>
       <use xlink:href="#DejaVuSans-30" x="63.623047"/>
       <use xlink:href="#DejaVuSans-30" x="127.246094"/>
       <use xlink:href="#DejaVuSans-30" x="190.869141"/>
      </g>
     </g>
    </g>
    <g id="text_8">
     <!-- Steps -->
     <g transform="translate(207.410156 280.276563)scale(0.1 -0.1)">
      <defs>
       <path id="DejaVuSans-53" d="M 3425 4513 
L 3425 3897 
Q 3066 4069 2747 4153 
Q 2428 4238 2131 4238 
Q 1616 4238 1336 4038 
Q 1056 3838 1056 3469 
Q 1056 3159 1242 3001 
Q 1428 2844 1947 2747 
L 2328 2669 
Q 3034 2534 3370 2195 
Q 3706 1856 3706 1288 
Q 3706 609 3251 259 
Q 2797 -91 1919 -91 
Q 1588 -91 1214 -16 
Q 841 59 441 206 
L 441 856 
Q 825 641 1194 531 
Q 1563 422 1919 422 
Q 2459 422 2753 634 
Q 3047 847 3047 1241 
Q 3047 1584 2836 1778 
Q 2625 1972 2144 2069 
L 1759 2144 
Q 1053 2284 737 2584 
Q 422 2884 422 3419 
Q 422 4038 858 4394 
Q 1294 4750 2059 4750 
Q 2388 4750 2728 4690 
Q 3069 4631 3425 4513 
z
" transform="scale(0.015625)"/>
       <path id="DejaVuSans-74" d="M 1172 4494 
L 1172 3500 
L 2356 3500 
L 2356 3053 
L 1172 3053 
L 1172 1153 
Q 1172 725 1289 603 
Q 1406 481 1766 481 
L 2356 481 
L 2356 0 
L 1766 0 
Q 1100 0 847 248 
Q 594 497 594 1153 
L 594 3053 
L 172 3053 
L 172 3500 
L 594 3500 
L 594 4494 
L 1172 4494 
z
" transform="scale(0.015625)"/>
       <path id="DejaVuSans-65" d="M 3597 1894 
L 3597 1613 
L 953 1613 
Q 991 1019 1311 708 
Q 1631 397 2203 397 
Q 2534 397 2845 478 
Q 3156 559 3463 722 
L 3463 178 
Q 3153 47 2828 -22 
Q 2503 -91 2169 -91 
Q 1331 -91 842 396 
Q 353 884 353 1716 
Q 353 2575 817 3079 
Q 1281 3584 2069 3584 
Q 2775 3584 3186 3129 
Q 3597 2675 3597 1894 
z
M 3022 2063 
Q 3016 2534 2758 2815 
Q 2500 3097 2075 3097 
Q 1594 3097 1305 2825 
Q 1016 2553 972 2059 
L 3022 2063 
z
" transform="scale(0.015625)"/>
       <path id="DejaVuSans-70" d="M 1159 525 
L 1159 -1331 
L 581 -1331 
L 581 3500 
L 1159 3500 
L 1159 2969 
Q 1341 3281 1617 3432 
Q 1894 3584 2278 3584 
Q 2916 3584 3314 3078 
Q 3713 2572 3713 1747 
Q 3713 922 3314 415 
Q 2916 -91 2278 -91 
Q 1894 -91 1617 61 
Q 1341 213 1159 525 
z
M 3116 1747 
Q 3116 2381 2855 2742 
Q 2594 3103 2138 3103 
Q 1681 3103 1420 2742 
Q 1159 2381 1159 1747 
Q 1159 1113 1420 752 
Q 1681 391 2138 391 
Q 2594 391 2855 752 
Q 3116 1113 3116 1747 
z
" transform="scale(0.015625)"/>
       <path id="DejaVuSans-73" d="M 2834 3397 
L 2834 2853 
Q 2591 2978 2328 3040 
Q 2066 3103 1784 3103 
Q 1356 3103 1142 2972 
Q 928 2841 928 2578 
Q 928 2378 1081 2264 
Q 1234 2150 1697 2047 
L 1894 2003 
Q 2506 1872 2764 1633 
Q 3022 1394 3022 966 
Q 3022 478 2636 193 
Q 2250 -91 1575 -91 
Q 1294 -91 989 -36 
Q 684 19 347 128 
L 347 722 
Q 666 556 975 473 
Q 1284 391 1588 391 
Q 1994 391 2212 530 
Q 2431 669 2431 922 
Q 2431 1156 2273 1281 
Q 2116 1406 1581 1522 
L 1381 1569 
Q 847 1681 609 1914 
Q 372 2147 372 2553 
Q 372 3047 722 3315 
Q 1072 3584 1716 3584 
Q 2034 3584 2315 3537 
Q 2597 3491 2834 3397 
z
" transform="scale(0.015625)"/>
      </defs>
      <use xlink:href="#DejaVuSans-53"/>
      <use xlink:href="#DejaVuSans-74" x="63.476562"/>
      <use xlink:href="#DejaVuSans-65" x="102.685547"/>
      <use xlink:href="#DejaVuSans-70" x="164.208984"/>
      <use xlink:href="#DejaVuSans-73" x="227.685547"/>
     </g>
    </g>
   </g>
   <g id="matplotlib.axis_2">
    <g id="ytick_1">
     <g id="line2d_15">
      <path d="M 54 243.636923 
L 388.8 243.636923 
" clip-path="url(#p82b36d9dcc)" style="fill: none; stroke-dasharray: 2.96,1.28; stroke-dashoffset: 0; stroke: #b0b0b0; stroke-width: 0.8"/>
     </g>
     <g id="line2d_16">
      <defs>
       <path id="m37297a96f3" d="M 0 0 
L -3.5 0 
" style="stroke: #000000; stroke-width: 0.8"/>
      </defs>
      <g>
       <use xlink:href="#m37297a96f3" x="54" y="243.636923" style="stroke: #000000; stroke-width: 0.8"/>
      </g>
     </g>
     <g id="text_9">
      <!-- −12 -->
      <g transform="translate(25.895312 247.436142)scale(0.1 -0.1)">
       <defs>
        <path id="DejaVuSans-2212" d="M 678 2272 
L 4684 2272 
L 4684 1741 
L 678 1741 
L 678 2272 
z
" transform="scale(0.015625)"/>
       </defs>
       <use xlink:href="#DejaVuSans-2212"/>
       <use xlink:href="#DejaVuSans-31" x="83.789062"/>
       <use xlink:href="#DejaVuSans-32" x="147.412109"/>
      </g>
     </g>
    </g>
    <g id="ytick_2">
     <g id="line2d_17">
      <path d="M 54 210.184615 
L 388.8 210.184615 
" clip-path="url(#p82b36d9dcc)" style="fill: none; stroke-dasharray: 2.96,1.28; stroke-dashoffset: 0; stroke: #b0b0b0; stroke-width: 0.8"/>
     </g>
     <g id="line2d_18">
      <g>
       <use xlink:href="#m37297a96f3" x="54" y="210.184615" style="stroke: #000000; stroke-width: 0.8"/>
      </g>
     </g>
     <g id="text_10">
      <!-- −10 -->
      <g transform="translate(25.895312 213.983834)scale(0.1 -0.1)">
       <use xlink:href="#DejaVuSans-2212"/>
       <use xlink:href="#DejaVuSans-31" x="83.789062"/>
       <use xlink:href="#DejaVuSans-30" x="147.412109"/>
      </g>
     </g>
    </g>
    <g id="ytick_3">
     <g id="line2d_19">
      <path d="M 54 176.732308 
L 388.8 176.732308 
" clip-path="url(#p82b36d9dcc)" style="fill: none; stroke-dasharray: 2.96,1.28; stroke-dashoffset: 0; stroke: #b0b0b0; stroke-width: 0.8"/>
     </g>
     <g id="line2d_20">
      <g>
       <use xlink:href="#m37297a96f3" x="54" y="176.732308" style="stroke: #000000; stroke-width: 0.8"/>
      </g>
     </g>
     <g id="text_11">
      <!-- −8 -->
      <g transform="translate(32.257812 180.531526)scale(0.1 -0.1)">
       <defs>
        <path id="DejaVuSans-38" d="M 2034 2216 
Q 1584 2216 1326 1975 
Q 1069 1734 1069 1313 
Q 1069 891 1326 650 
Q 1584 409 2034 409 
Q 2484 409 2743 651 
Q 3003 894 3003 1313 
Q 3003 1734 2745 1975 
Q 2488 2216 2034 2216 
z
M 1403 2484 
Q 997 2584 770 2862 
Q 544 3141 544 3541 
Q 544 4100 942 4425 
Q 1341 4750 2034 4750 
Q 2731 4750 3128 4425 
Q 3525 4100 3525 3541 
Q 3525 3141 3298 2862 
Q 3072 2584 2669 2484 
Q 3125 2378 3379 2068 
Q 3634 1759 3634 1313 
Q 3634 634 3220 271 
Q 2806 -91 2034 -91 
Q 1263 -91 848 271 
Q 434 634 434 1313 
Q 434 1759 690 2068 
Q 947 2378 1403 2484 
z
M 1172 3481 
Q 1172 3119 1398 2916 
Q 1625 2713 2034 2713 
Q 2441 2713 2670 2916 
Q 2900 3119 2900 3481 
Q 2900 3844 2670 4047 
Q 2441 4250 2034 4250 
Q 1625 4250 1398 4047 
Q 1172 3844 1172 3481 
z
" transform="scale(0.015625)"/>
       </defs>
       <use xlink:href="#DejaVuSans-2212"/>
       <use xlink:href="#DejaVuSans-38" x="83.789062"/>
      </g>
     </g>
    </g>
    <g id="ytick_4">
     <g id="line2d_21">
      <path d="M 54 143.28 
L 388.8 143.28 
" clip-path="url(#p82b36d9dcc)" style="fill: none; stroke-dasharray: 2.96,1.28; stroke-dashoffset: 0; stroke: #b0b0b0; stroke-width: 0.8"/>
     </g>
     <g id="line2d_22">
      <g>
       <use xlink:href="#m37297a96f3" x="54" y="143.28" style="stroke: #000000; stroke-width: 0.8"/>
      </g>
     </g>
     <g id="text_12">
      <!-- −6 -->
      <g transform="translate(32.257812 147.079219)scale(0.1 -0.1)">
       <defs>
        <path id="DejaVuSans-36" d="M 2113 2584 
Q 1688 2584 1439 2293 
Q 1191 2003 1191 1497 
Q 1191 994 1439 701 
Q 1688 409 2113 409 
Q 2538 409 2786 701 
Q 3034 994 3034 1497 
Q 3034 2003 2786 2293 
Q 2538 2584 2113 2584 
z
M 3366 4563 
L 3366 3988 
Q 3128 4100 2886 4159 
Q 2644 4219 2406 4219 
Q 1781 4219 1451 3797 
Q 1122 3375 1075 2522 
Q 1259 2794 1537 2939 
Q 1816 3084 2150 3084 
Q 2853 3084 3261 2657 
Q 3669 2231 3669 1497 
Q 3669 778 3244 343 
Q 2819 -91 2113 -91 
Q 1303 -91 875 529 
Q 447 1150 447 2328 
Q 447 3434 972 4092 
Q 1497 4750 2381 4750 
Q 2619 4750 2861 4703 
Q 3103 4656 3366 4563 
z
" transform="scale(0.015625)"/>
       </defs>
       <use xlink:href="#DejaVuSans-2212"/>
       <use xlink:href="#DejaVuSans-36" x="83.789062"/>
      </g>
     </g>
    </g>
    <g id="ytick_5">
     <g id="line2d_23">
      <path d="M 54 109.827692 
L 388.8 109.827692 
" clip-path="url(#p82b36d9dcc)" style="fill: none; stroke-dasharray: 2.96,1.28; stroke-dashoffset: 0; stroke: #b0b0b0; stroke-width: 0.8"/>
     </g>
     <g id="line2d_24">
      <g>
       <use xlink:href="#m37297a96f3" x="54" y="109.827692" style="stroke: #000000; stroke-width: 0.8"/>
      </g>
     </g>
     <g id="text_13">
      <!-- −4 -->
      <g transform="translate(32.257812 113.626911)scale(0.1 -0.1)">
       <defs>
        <path id="DejaVuSans-34" d="M 2419 4116 
L 825 1625 
L 2419 1625 
L 2419 4116 
z
M 2253 4666 
L 3047 4666 
L 3047 1625 
L 3713 1625 
L 3713 1100 
L 3047 1100 
L 3047 0 
L 2419 0 
L 2419 1100 
L 313 1100 
L 313 1709 
L 2253 4666 
z
" transform="scale(0.015625)"/>
       </defs>
       <use xlink:href="#DejaVuSans-2212"/>
       <use xlink:href="#DejaVuSans-34" x="83.789062"/>
      </g>
     </g>
    </g>
    <g id="ytick_6">
     <g id="line2d_25">
      <path d="M 54 76.375385 
L 388.8 76.375385 
" clip-path="url(#p82b36d9dcc)" style="fill: none; stroke-dasharray: 2.96,1.28; stroke-dashoffset: 0; stroke: #b0b0b0; stroke-width: 0.8"/>
     </g>
     <g id="line2d_26">
      <g>
       <use xlink:href="#m37297a96f3" x="54" y="76.375385" style="stroke: #000000; stroke-width: 0.8"/>
      </g>
     </g>
     <g id="text_14">
      <!-- −2 -->
      <g transform="translate(32.257812 80.174603)scale(0.1 -0.1)">
       <use xlink:href="#DejaVuSans-2212"/>
       <use xlink:href="#DejaVuSans-32" x="83.789062"/>
      </g>
     </g>
    </g>
    <g id="ytick_7">
     <g id="line2d_27">
      <path d="M 54 42.923077 
L 388.8 42.923077 
" clip-path="url(#p82b36d9dcc)" style="fill: none; stroke-dasharray: 2.96,1.28; stroke-dashoffset: 0; stroke: #b0b0b0; stroke-width: 0.8"/>
     </g>
     <g id="line2d_28">
      <g>
       <use xlink:href="#m37297a96f3" x="54" y="42.923077" style="stroke: #000000; stroke-width: 0.8"/>
      </g>
     </g>
     <g id="text_15">
      <!-- 0 -->
      <g transform="translate(40.6375 46.722296)scale(0.1 -0.1)">
       <use xlink:href="#DejaVuSans-30"/>
      </g>
     </g>
    </g>
    <g id="text_16">
     <!-- Policy value error -->
     <g transform="translate(19.815625 186.597969)rotate(-90)scale(0.1 -0.1)">
      <defs>
       <path id="DejaVuSans-50" d="M 1259 4147 
L 1259 2394 
L 2053 2394 
Q 2494 2394 2734 2622 
Q 2975 2850 2975 3272 
Q 2975 3691 2734 3919 
Q 2494 4147 2053 4147 
L 1259 4147 
z
M 628 4666 
L 2053 4666 
Q 2838 4666 3239 4311 
Q 3641 3956 3641 3272 
Q 3641 2581 3239 2228 
Q 2838 1875 2053 1875 
L 1259 1875 
L 1259 0 
L 628 0 
L 628 4666 
z
" transform="scale(0.015625)"/>
       <path id="DejaVuSans-6f" d="M 1959 3097 
Q 1497 3097 1228 2736 
Q 959 2375 959 1747 
Q 959 1119 1226 758 
Q 1494 397 1959 397 
Q 2419 397 2687 759 
Q 2956 1122 2956 1747 
Q 2956 2369 2687 2733 
Q 2419 3097 1959 3097 
z
M 1959 3584 
Q 2709 3584 3137 3096 
Q 3566 2609 3566 1747 
Q 3566 888 3137 398 
Q 2709 -91 1959 -91 
Q 1206 -91 779 398 
Q 353 888 353 1747 
Q 353 2609 779 3096 
Q 1206 3584 1959 3584 
z
" transform="scale(0.015625)"/>
       <path id="DejaVuSans-6c" d="M 603 4863 
L 1178 4863 
L 1178 0 
L 603 0 
L 603 4863 
z
" transform="scale(0.015625)"/>
       <path id="DejaVuSans-69" d="M 603 3500 
L 1178 3500 
L 1178 0 
L 603 0 
L 603 3500 
z
M 603 4863 
L 1178 4863 
L 1178 4134 
L 603 4134 
L 603 4863 
z
" transform="scale(0.015625)"/>
       <path id="DejaVuSans-63" d="M 3122 3366 
L 3122 2828 
Q 2878 2963 2633 3030 
Q 2388 3097 2138 3097 
Q 1578 3097 1268 2742 
Q 959 2388 959 1747 
Q 959 1106 1268 751 
Q 1578 397 2138 397 
Q 2388 397 2633 464 
Q 2878 531 3122 666 
L 3122 134 
Q 2881 22 2623 -34 
Q 2366 -91 2075 -91 
Q 1284 -91 818 406 
Q 353 903 353 1747 
Q 353 2603 823 3093 
Q 1294 3584 2113 3584 
Q 2378 3584 2631 3529 
Q 2884 3475 3122 3366 
z
" transform="scale(0.015625)"/>
       <path id="DejaVuSans-79" d="M 2059 -325 
Q 1816 -950 1584 -1140 
Q 1353 -1331 966 -1331 
L 506 -1331 
L 506 -850 
L 844 -850 
Q 1081 -850 1212 -737 
Q 1344 -625 1503 -206 
L 1606 56 
L 191 3500 
L 800 3500 
L 1894 763 
L 2988 3500 
L 3597 3500 
L 2059 -325 
z
" transform="scale(0.015625)"/>
       <path id="DejaVuSans-20" transform="scale(0.015625)"/>
       <path id="DejaVuSans-76" d="M 191 3500 
L 800 3500 
L 1894 563 
L 2988 3500 
L 3597 3500 
L 2284 0 
L 1503 0 
L 191 3500 
z
" transform="scale(0.015625)"/>
       <path id="DejaVuSans-61" d="M 2194 1759 
Q 1497 1759 1228 1600 
Q 959 1441 959 1056 
Q 959 750 1161 570 
Q 1363 391 1709 391 
Q 2188 391 2477 730 
Q 2766 1069 2766 1631 
L 2766 1759 
L 2194 1759 
z
M 3341 1997 
L 3341 0 
L 2766 0 
L 2766 531 
Q 2569 213 2275 61 
Q 1981 -91 1556 -91 
Q 1019 -91 701 211 
Q 384 513 384 1019 
Q 384 1609 779 1909 
Q 1175 2209 1959 2209 
L 2766 2209 
L 2766 2266 
Q 2766 2663 2505 2880 
Q 2244 3097 1772 3097 
Q 1472 3097 1187 3025 
Q 903 2953 641 2809 
L 641 3341 
Q 956 3463 1253 3523 
Q 1550 3584 1831 3584 
Q 2591 3584 2966 3190 
Q 3341 2797 3341 1997 
z
" transform="scale(0.015625)"/>
       <path id="DejaVuSans-75" d="M 544 1381 
L 544 3500 
L 1119 3500 
L 1119 1403 
Q 1119 906 1312 657 
Q 1506 409 1894 409 
Q 2359 409 2629 706 
Q 2900 1003 2900 1516 
L 2900 3500 
L 3475 3500 
L 3475 0 
L 2900 0 
L 2900 538 
Q 2691 219 2414 64 
Q 2138 -91 1772 -91 
Q 1169 -91 856 284 
Q 544 659 544 1381 
z
M 1991 3584 
L 1991 3584 
z
" transform="scale(0.015625)"/>
       <path id="DejaVuSans-72" d="M 2631 2963 
Q 2534 3019 2420 3045 
Q 2306 3072 2169 3072 
Q 1681 3072 1420 2755 
Q 1159 2438 1159 1844 
L 1159 0 
L 581 0 
L 581 3500 
L 1159 3500 
L 1159 2956 
Q 1341 3275 1631 3429 
Q 1922 3584 2338 3584 
Q 2397 3584 2469 3576 
Q 2541 3569 2628 3553 
L 2631 2963 
z
" transform="scale(0.015625)"/>
      </defs>
      <use xlink:href="#DejaVuSans-50"/>
      <use xlink:href="#DejaVuSans-6f" x="56.677734"/>
      <use xlink:href="#DejaVuSans-6c" x="117.859375"/>
      <use xlink:href="#DejaVuSans-69" x="145.642578"/>
      <use xlink:href="#DejaVuSans-63" x="173.425781"/>
      <use xlink:href="#DejaVuSans-79" x="228.40625"/>
      <use xlink:href="#DejaVuSans-20" x="287.585938"/>
      <use xlink:href="#DejaVuSans-76" x="319.373047"/>
      <use xlink:href="#DejaVuSans-61" x="378.552734"/>
      <use xlink:href="#DejaVuSans-6c" x="439.832031"/>
      <use xlink:href="#DejaVuSans-75" x="467.615234"/>
      <use xlink:href="#DejaVuSans-65" x="530.994141"/>
      <use xlink:href="#DejaVuSans-20" x="592.517578"/>
      <use xlink:href="#DejaVuSans-65" x="624.304688"/>
      <use xlink:href="#DejaVuSans-72" x="685.828125"/>
      <use xlink:href="#DejaVuSans-72" x="725.191406"/>
      <use xlink:href="#DejaVuSans-6f" x="764.054688"/>
      <use xlink:href="#DejaVuSans-72" x="825.236328"/>
     </g>
    </g>
   </g>
   <g id="line2d_29">
    <path d="M 69.218182 252.570219 
L 74.376888 200.725925 
L 79.535593 250.67606 
L 84.694299 143.981 
L 89.853005 231.554563 
L 95.01171 255.078717 
L 100.170416 45.463053 
L 105.329122 52.567073 
L 110.487827 49.292387 
L 115.646533 49.292387 
L 120.805239 45.485497 
L 125.963945 53.27469 
L 131.12265 53.274691 
L 136.281356 45.484538 
L 141.440062 45.484538 
L 146.598767 45.484538 
L 151.757473 45.500221 
L 156.916179 45.484538 
L 162.074884 45.531462 
L 167.23359 45.532427 
L 172.392296 45.532427 
L 177.551002 45.532427 
L 182.709707 45.825755 
L 187.868413 45.495611 
L 193.027119 45.647099 
L 198.185824 45.647099 
L 203.34453 45.647099 
L 208.503236 45.647099 
L 213.661941 45.647099 
L 218.820647 46.168642 
L 223.979353 46.479928 
L 229.138059 46.479928 
L 234.296764 46.479928 
L 239.45547 46.479928 
L 244.614176 46.66608 
L 249.772881 45.631535 
L 254.931587 45.631535 
L 260.090293 45.631535 
L 265.248998 45.496577 
L 270.407704 45.6795 
L 275.56641 45.590456 
L 280.725116 45.496577 
L 285.883821 45.496577 
L 291.042527 45.496577 
L 296.201233 45.495612 
L 301.359938 45.495611 
L 306.518644 45.495612 
L 311.67735 45.484538 
L 316.836055 45.495612 
L 321.994761 45.495612 
L 327.153467 45.495612 
L 332.312173 45.495612 
L 337.470878 45.495612 
L 342.629584 45.495612 
L 347.78829 45.495612 
L 352.946995 45.495612 
L 358.105701 45.495612 
L 363.264407 45.495612 
L 368.423112 45.495612 
L 373.581818 45.495612 
" clip-path="url(#p82b36d9dcc)" style="fill: none; stroke: #9d02d7; stroke-width: 1.5; stroke-linecap: square"/>
    <defs>
     <path id="ma5d1052593" d="M 0 -2 
L -2 2 
L 2 2 
z
" style="stroke: #9d02d7; stroke-linejoin: miter"/>
    </defs>
    <g clip-path="url(#p82b36d9dcc)">
     <use xlink:href="#ma5d1052593" x="69.218182" y="252.570219" style="fill: #9d02d7; stroke: #9d02d7; stroke-linejoin: miter"/>
     <use xlink:href="#ma5d1052593" x="74.376888" y="200.725925" style="fill: #9d02d7; stroke: #9d02d7; stroke-linejoin: miter"/>
     <use xlink:href="#ma5d1052593" x="79.535593" y="250.67606" style="fill: #9d02d7; stroke: #9d02d7; stroke-linejoin: miter"/>
     <use xlink:href="#ma5d1052593" x="84.694299" y="143.981" style="fill: #9d02d7; stroke: #9d02d7; stroke-linejoin: miter"/>
     <use xlink:href="#ma5d1052593" x="89.853005" y="231.554563" style="fill: #9d02d7; stroke: #9d02d7; stroke-linejoin: miter"/>
     <use xlink:href="#ma5d1052593" x="95.01171" y="255.078717" style="fill: #9d02d7; stroke: #9d02d7; stroke-linejoin: miter"/>
     <use xlink:href="#ma5d1052593" x="100.170416" y="45.463053" style="fill: #9d02d7; stroke: #9d02d7; stroke-linejoin: miter"/>
     <use xlink:href="#ma5d1052593" x="105.329122" y="52.567073" style="fill: #9d02d7; stroke: #9d02d7; stroke-linejoin: miter"/>
     <use xlink:href="#ma5d1052593" x="110.487827" y="49.292387" style="fill: #9d02d7; stroke: #9d02d7; stroke-linejoin: miter"/>
     <use xlink:href="#ma5d1052593" x="115.646533" y="49.292387" style="fill: #9d02d7; stroke: #9d02d7; stroke-linejoin: miter"/>
     <use xlink:href="#ma5d1052593" x="120.805239" y="45.485497" style="fill: #9d02d7; stroke: #9d02d7; stroke-linejoin: miter"/>
     <use xlink:href="#ma5d1052593" x="125.963945" y="53.27469" style="fill: #9d02d7; stroke: #9d02d7; stroke-linejoin: miter"/>
     <use xlink:href="#ma5d1052593" x="131.12265" y="53.274691" style="fill: #9d02d7; stroke: #9d02d7; stroke-linejoin: miter"/>
     <use xlink:href="#ma5d1052593" x="136.281356" y="45.484538" style="fill: #9d02d7; stroke: #9d02d7; stroke-linejoin: miter"/>
     <use xlink:href="#ma5d1052593" x="141.440062" y="45.484538" style="fill: #9d02d7; stroke: #9d02d7; stroke-linejoin: miter"/>
     <use xlink:href="#ma5d1052593" x="146.598767" y="45.484538" style="fill: #9d02d7; stroke: #9d02d7; stroke-linejoin: miter"/>
     <use xlink:href="#ma5d1052593" x="151.757473" y="45.500221" style="fill: #9d02d7; stroke: #9d02d7; stroke-linejoin: miter"/>
     <use xlink:href="#ma5d1052593" x="156.916179" y="45.484538" style="fill: #9d02d7; stroke: #9d02d7; stroke-linejoin: miter"/>
     <use xlink:href="#ma5d1052593" x="162.074884" y="45.531462" style="fill: #9d02d7; stroke: #9d02d7; stroke-linejoin: miter"/>
     <use xlink:href="#ma5d1052593" x="167.23359" y="45.532427" style="fill: #9d02d7; stroke: #9d02d7; stroke-linejoin: miter"/>
     <use xlink:href="#ma5d1052593" x="172.392296" y="45.532427" style="fill: #9d02d7; stroke: #9d02d7; stroke-linejoin: miter"/>
     <use xlink:href="#ma5d1052593" x="177.551002" y="45.532427" style="fill: #9d02d7; stroke: #9d02d7; stroke-linejoin: miter"/>
     <use xlink:href="#ma5d1052593" x="182.709707" y="45.825755" style="fill: #9d02d7; stroke: #9d02d7; stroke-linejoin: miter"/>
     <use xlink:href="#ma5d1052593" x="187.868413" y="45.495611" style="fill: #9d02d7; stroke: #9d02d7; stroke-linejoin: miter"/>
     <use xlink:href="#ma5d1052593" x="193.027119" y="45.647099" style="fill: #9d02d7; stroke: #9d02d7; stroke-linejoin: miter"/>
     <use xlink:href="#ma5d1052593" x="198.185824" y="45.647099" style="fill: #9d02d7; stroke: #9d02d7; stroke-linejoin: miter"/>
     <use xlink:href="#ma5d1052593" x="203.34453" y="45.647099" style="fill: #9d02d7; stroke: #9d02d7; stroke-linejoin: miter"/>
     <use xlink:href="#ma5d1052593" x="208.503236" y="45.647099" style="fill: #9d02d7; stroke: #9d02d7; stroke-linejoin: miter"/>
     <use xlink:href="#ma5d1052593" x="213.661941" y="45.647099" style="fill: #9d02d7; stroke: #9d02d7; stroke-linejoin: miter"/>
     <use xlink:href="#ma5d1052593" x="218.820647" y="46.168642" style="fill: #9d02d7; stroke: #9d02d7; stroke-linejoin: miter"/>
     <use xlink:href="#ma5d1052593" x="223.979353" y="46.479928" style="fill: #9d02d7; stroke: #9d02d7; stroke-linejoin: miter"/>
     <use xlink:href="#ma5d1052593" x="229.138059" y="46.479928" style="fill: #9d02d7; stroke: #9d02d7; stroke-linejoin: miter"/>
     <use xlink:href="#ma5d1052593" x="234.296764" y="46.479928" style="fill: #9d02d7; stroke: #9d02d7; stroke-linejoin: miter"/>
     <use xlink:href="#ma5d1052593" x="239.45547" y="46.479928" style="fill: #9d02d7; stroke: #9d02d7; stroke-linejoin: miter"/>
     <use xlink:href="#ma5d1052593" x="244.614176" y="46.66608" style="fill: #9d02d7; stroke: #9d02d7; stroke-linejoin: miter"/>
     <use xlink:href="#ma5d1052593" x="249.772881" y="45.631535" style="fill: #9d02d7; stroke: #9d02d7; stroke-linejoin: miter"/>
     <use xlink:href="#ma5d1052593" x="254.931587" y="45.631535" style="fill: #9d02d7; stroke: #9d02d7; stroke-linejoin: miter"/>
     <use xlink:href="#ma5d1052593" x="260.090293" y="45.631535" style="fill: #9d02d7; stroke: #9d02d7; stroke-linejoin: miter"/>
     <use xlink:href="#ma5d1052593" x="265.248998" y="45.496577" style="fill: #9d02d7; stroke: #9d02d7; stroke-linejoin: miter"/>
     <use xlink:href="#ma5d1052593" x="270.407704" y="45.6795" style="fill: #9d02d7; stroke: #9d02d7; stroke-linejoin: miter"/>
     <use xlink:href="#ma5d1052593" x="275.56641" y="45.590456" style="fill: #9d02d7; stroke: #9d02d7; stroke-linejoin: miter"/>
     <use xlink:href="#ma5d1052593" x="280.725116" y="45.496577" style="fill: #9d02d7; stroke: #9d02d7; stroke-linejoin: miter"/>
     <use xlink:href="#ma5d1052593" x="285.883821" y="45.496577" style="fill: #9d02d7; stroke: #9d02d7; stroke-linejoin: miter"/>
     <use xlink:href="#ma5d1052593" x="291.042527" y="45.496577" style="fill: #9d02d7; stroke: #9d02d7; stroke-linejoin: miter"/>
     <use xlink:href="#ma5d1052593" x="296.201233" y="45.495612" style="fill: #9d02d7; stroke: #9d02d7; stroke-linejoin: miter"/>
     <use xlink:href="#ma5d1052593" x="301.359938" y="45.495611" style="fill: #9d02d7; stroke: #9d02d7; stroke-linejoin: miter"/>
     <use xlink:href="#ma5d1052593" x="306.518644" y="45.495612" style="fill: #9d02d7; stroke: #9d02d7; stroke-linejoin: miter"/>
     <use xlink:href="#ma5d1052593" x="311.67735" y="45.484538" style="fill: #9d02d7; stroke: #9d02d7; stroke-linejoin: miter"/>
     <use xlink:href="#ma5d1052593" x="316.836055" y="45.495612" style="fill: #9d02d7; stroke: #9d02d7; stroke-linejoin: miter"/>
     <use xlink:href="#ma5d1052593" x="321.994761" y="45.495612" style="fill: #9d02d7; stroke: #9d02d7; stroke-linejoin: miter"/>
     <use xlink:href="#ma5d1052593" x="327.153467" y="45.495612" style="fill: #9d02d7; stroke: #9d02d7; stroke-linejoin: miter"/>
     <use xlink:href="#ma5d1052593" x="332.312173" y="45.495612" style="fill: #9d02d7; stroke: #9d02d7; stroke-linejoin: miter"/>
     <use xlink:href="#ma5d1052593" x="337.470878" y="45.495612" style="fill: #9d02d7; stroke: #9d02d7; stroke-linejoin: miter"/>
     <use xlink:href="#ma5d1052593" x="342.629584" y="45.495612" style="fill: #9d02d7; stroke: #9d02d7; stroke-linejoin: miter"/>
     <use xlink:href="#ma5d1052593" x="347.78829" y="45.495612" style="fill: #9d02d7; stroke: #9d02d7; stroke-linejoin: miter"/>
     <use xlink:href="#ma5d1052593" x="352.946995" y="45.495612" style="fill: #9d02d7; stroke: #9d02d7; stroke-linejoin: miter"/>
     <use xlink:href="#ma5d1052593" x="358.105701" y="45.495612" style="fill: #9d02d7; stroke: #9d02d7; stroke-linejoin: miter"/>
     <use xlink:href="#ma5d1052593" x="363.264407" y="45.495612" style="fill: #9d02d7; stroke: #9d02d7; stroke-linejoin: miter"/>
     <use xlink:href="#ma5d1052593" x="368.423112" y="45.495612" style="fill: #9d02d7; stroke: #9d02d7; stroke-linejoin: miter"/>
     <use xlink:href="#ma5d1052593" x="373.581818" y="45.495612" style="fill: #9d02d7; stroke: #9d02d7; stroke-linejoin: miter"/>
    </g>
   </g>
   <g id="line2d_30">
    <path d="M 69.218182 257.419656 
L 74.376888 254.477009 
L 79.535593 255.030186 
L 84.694299 262.78075 
L 89.853005 254.310054 
L 95.01171 45.564098 
L 100.170416 57.23182 
L 105.329122 45.564098 
L 110.487827 45.702389 
L 115.646533 55.380994 
L 120.805239 45.414112 
L 125.963945 55.239356 
L 131.12265 45.564098 
L 136.281356 45.564098 
L 141.440062 45.564098 
L 146.598767 45.564098 
L 151.757473 45.564098 
L 156.916179 45.564098 
L 162.074884 45.564098 
L 167.23359 45.564098 
L 172.392296 45.564098 
L 177.551002 45.564098 
L 182.709707 45.546841 
L 187.868413 45.414112 
L 193.027119 45.414112 
L 198.185824 45.702389 
L 203.34453 45.564098 
L 208.503236 45.702389 
L 213.661941 45.702389 
L 218.820647 45.702389 
L 223.979353 45.564098 
L 229.138059 45.702389 
L 234.296764 45.702389 
L 239.45547 45.702389 
L 244.614176 45.564098 
L 249.772881 45.702389 
L 254.931587 45.702389 
L 260.090293 45.702389 
L 265.248998 45.702389 
L 270.407704 45.702389 
L 275.56641 45.564098 
L 280.725116 45.564098 
L 285.883821 45.702389 
L 291.042527 45.702389 
L 296.201233 45.702389 
L 301.359938 45.564098 
L 306.518644 45.564098 
L 311.67735 45.564098 
L 316.836055 45.564098 
L 321.994761 45.564098 
L 327.153467 45.564098 
L 332.312173 45.564098 
L 337.470878 45.564098 
L 342.629584 45.564098 
L 347.78829 45.564098 
L 352.946995 45.564098 
L 358.105701 45.564098 
L 363.264407 45.564098 
L 368.423112 45.564098 
L 373.581818 45.564098 
" clip-path="url(#p82b36d9dcc)" style="fill: none; stroke: #0000ff; stroke-width: 1.5; stroke-linecap: square"/>
    <defs>
     <path id="m6c0b435e23" d="M 0 2 
C 0.530406 2 1.03916 1.789267 1.414214 1.414214 
C 1.789267 1.03916 2 0.530406 2 0 
C 2 -0.530406 1.789267 -1.03916 1.414214 -1.414214 
C 1.03916 -1.789267 0.530406 -2 0 -2 
C -0.530406 -2 -1.03916 -1.789267 -1.414214 -1.414214 
C -1.789267 -1.03916 -2 -0.530406 -2 0 
C -2 0.530406 -1.789267 1.03916 -1.414214 1.414214 
C -1.03916 1.789267 -0.530406 2 0 2 
z
" style="stroke: #0000ff"/>
    </defs>
    <g clip-path="url(#p82b36d9dcc)">
     <use xlink:href="#m6c0b435e23" x="69.218182" y="257.419656" style="fill: #0000ff; stroke: #0000ff"/>
     <use xlink:href="#m6c0b435e23" x="74.376888" y="254.477009" style="fill: #0000ff; stroke: #0000ff"/>
     <use xlink:href="#m6c0b435e23" x="79.535593" y="255.030186" style="fill: #0000ff; stroke: #0000ff"/>
     <use xlink:href="#m6c0b435e23" x="84.694299" y="262.78075" style="fill: #0000ff; stroke: #0000ff"/>
     <use xlink:href="#m6c0b435e23" x="89.853005" y="254.310054" style="fill: #0000ff; stroke: #0000ff"/>
     <use xlink:href="#m6c0b435e23" x="95.01171" y="45.564098" style="fill: #0000ff; stroke: #0000ff"/>
     <use xlink:href="#m6c0b435e23" x="100.170416" y="57.23182" style="fill: #0000ff; stroke: #0000ff"/>
     <use xlink:href="#m6c0b435e23" x="105.329122" y="45.564098" style="fill: #0000ff; stroke: #0000ff"/>
     <use xlink:href="#m6c0b435e23" x="110.487827" y="45.702389" style="fill: #0000ff; stroke: #0000ff"/>
     <use xlink:href="#m6c0b435e23" x="115.646533" y="55.380994" style="fill: #0000ff; stroke: #0000ff"/>
     <use xlink:href="#m6c0b435e23" x="120.805239" y="45.414112" style="fill: #0000ff; stroke: #0000ff"/>
     <use xlink:href="#m6c0b435e23" x="125.963945" y="55.239356" style="fill: #0000ff; stroke: #0000ff"/>
     <use xlink:href="#m6c0b435e23" x="131.12265" y="45.564098" style="fill: #0000ff; stroke: #0000ff"/>
     <use xlink:href="#m6c0b435e23" x="136.281356" y="45.564098" style="fill: #0000ff; stroke: #0000ff"/>
     <use xlink:href="#m6c0b435e23" x="141.440062" y="45.564098" style="fill: #0000ff; stroke: #0000ff"/>
     <use xlink:href="#m6c0b435e23" x="146.598767" y="45.564098" style="fill: #0000ff; stroke: #0000ff"/>
     <use xlink:href="#m6c0b435e23" x="151.757473" y="45.564098" style="fill: #0000ff; stroke: #0000ff"/>
     <use xlink:href="#m6c0b435e23" x="156.916179" y="45.564098" style="fill: #0000ff; stroke: #0000ff"/>
     <use xlink:href="#m6c0b435e23" x="162.074884" y="45.564098" style="fill: #0000ff; stroke: #0000ff"/>
     <use xlink:href="#m6c0b435e23" x="167.23359" y="45.564098" style="fill: #0000ff; stroke: #0000ff"/>
     <use xlink:href="#m6c0b435e23" x="172.392296" y="45.564098" style="fill: #0000ff; stroke: #0000ff"/>
     <use xlink:href="#m6c0b435e23" x="177.551002" y="45.564098" style="fill: #0000ff; stroke: #0000ff"/>
     <use xlink:href="#m6c0b435e23" x="182.709707" y="45.546841" style="fill: #0000ff; stroke: #0000ff"/>
     <use xlink:href="#m6c0b435e23" x="187.868413" y="45.414112" style="fill: #0000ff; stroke: #0000ff"/>
     <use xlink:href="#m6c0b435e23" x="193.027119" y="45.414112" style="fill: #0000ff; stroke: #0000ff"/>
     <use xlink:href="#m6c0b435e23" x="198.185824" y="45.702389" style="fill: #0000ff; stroke: #0000ff"/>
     <use xlink:href="#m6c0b435e23" x="203.34453" y="45.564098" style="fill: #0000ff; stroke: #0000ff"/>
     <use xlink:href="#m6c0b435e23" x="208.503236" y="45.702389" style="fill: #0000ff; stroke: #0000ff"/>
     <use xlink:href="#m6c0b435e23" x="213.661941" y="45.702389" style="fill: #0000ff; stroke: #0000ff"/>
     <use xlink:href="#m6c0b435e23" x="218.820647" y="45.702389" style="fill: #0000ff; stroke: #0000ff"/>
     <use xlink:href="#m6c0b435e23" x="223.979353" y="45.564098" style="fill: #0000ff; stroke: #0000ff"/>
     <use xlink:href="#m6c0b435e23" x="229.138059" y="45.702389" style="fill: #0000ff; stroke: #0000ff"/>
     <use xlink:href="#m6c0b435e23" x="234.296764" y="45.702389" style="fill: #0000ff; stroke: #0000ff"/>
     <use xlink:href="#m6c0b435e23" x="239.45547" y="45.702389" style="fill: #0000ff; stroke: #0000ff"/>
     <use xlink:href="#m6c0b435e23" x="244.614176" y="45.564098" style="fill: #0000ff; stroke: #0000ff"/>
     <use xlink:href="#m6c0b435e23" x="249.772881" y="45.702389" style="fill: #0000ff; stroke: #0000ff"/>
     <use xlink:href="#m6c0b435e23" x="254.931587" y="45.702389" style="fill: #0000ff; stroke: #0000ff"/>
     <use xlink:href="#m6c0b435e23" x="260.090293" y="45.702389" style="fill: #0000ff; stroke: #0000ff"/>
     <use xlink:href="#m6c0b435e23" x="265.248998" y="45.702389" style="fill: #0000ff; stroke: #0000ff"/>
     <use xlink:href="#m6c0b435e23" x="270.407704" y="45.702389" style="fill: #0000ff; stroke: #0000ff"/>
     <use xlink:href="#m6c0b435e23" x="275.56641" y="45.564098" style="fill: #0000ff; stroke: #0000ff"/>
     <use xlink:href="#m6c0b435e23" x="280.725116" y="45.564098" style="fill: #0000ff; stroke: #0000ff"/>
     <use xlink:href="#m6c0b435e23" x="285.883821" y="45.702389" style="fill: #0000ff; stroke: #0000ff"/>
     <use xlink:href="#m6c0b435e23" x="291.042527" y="45.702389" style="fill: #0000ff; stroke: #0000ff"/>
     <use xlink:href="#m6c0b435e23" x="296.201233" y="45.702389" style="fill: #0000ff; stroke: #0000ff"/>
     <use xlink:href="#m6c0b435e23" x="301.359938" y="45.564098" style="fill: #0000ff; stroke: #0000ff"/>
     <use xlink:href="#m6c0b435e23" x="306.518644" y="45.564098" style="fill: #0000ff; stroke: #0000ff"/>
     <use xlink:href="#m6c0b435e23" x="311.67735" y="45.564098" style="fill: #0000ff; stroke: #0000ff"/>
     <use xlink:href="#m6c0b435e23" x="316.836055" y="45.564098" style="fill: #0000ff; stroke: #0000ff"/>
     <use xlink:href="#m6c0b435e23" x="321.994761" y="45.564098" style="fill: #0000ff; stroke: #0000ff"/>
     <use xlink:href="#m6c0b435e23" x="327.153467" y="45.564098" style="fill: #0000ff; stroke: #0000ff"/>
     <use xlink:href="#m6c0b435e23" x="332.312173" y="45.564098" style="fill: #0000ff; stroke: #0000ff"/>
     <use xlink:href="#m6c0b435e23" x="337.470878" y="45.564098" style="fill: #0000ff; stroke: #0000ff"/>
     <use xlink:href="#m6c0b435e23" x="342.629584" y="45.564098" style="fill: #0000ff; stroke: #0000ff"/>
     <use xlink:href="#m6c0b435e23" x="347.78829" y="45.564098" style="fill: #0000ff; stroke: #0000ff"/>
     <use xlink:href="#m6c0b435e23" x="352.946995" y="45.564098" style="fill: #0000ff; stroke: #0000ff"/>
     <use xlink:href="#m6c0b435e23" x="358.105701" y="45.564098" style="fill: #0000ff; stroke: #0000ff"/>
     <use xlink:href="#m6c0b435e23" x="363.264407" y="45.564098" style="fill: #0000ff; stroke: #0000ff"/>
     <use xlink:href="#m6c0b435e23" x="368.423112" y="45.564098" style="fill: #0000ff; stroke: #0000ff"/>
     <use xlink:href="#m6c0b435e23" x="373.581818" y="45.564098" style="fill: #0000ff; stroke: #0000ff"/>
    </g>
   </g>
   <g id="line2d_31">
    <path d="M 69.218182 254.265784 
L 74.376888 268.062667 
L 79.535593 257.055189 
L 84.694299 256.350718 
L 89.853005 108.978915 
L 95.01171 109.985343 
L 100.170416 64.123323 
L 105.329122 64.123323 
L 110.487827 64.306956 
L 115.646533 57.267217 
L 120.805239 45.468207 
L 125.963945 66.385468 
L 131.12265 58.305875 
L 136.281356 53.255792 
L 141.440062 45.650032 
L 146.598767 49.111721 
L 151.757473 49.598337 
L 156.916179 46.856707 
L 162.074884 46.840662 
L 167.23359 45.824213 
L 172.392296 45.824213 
L 177.551002 45.824213 
L 182.709707 45.489538 
L 187.868413 45.66571 
L 193.027119 45.66571 
L 198.185824 45.824213 
L 203.34453 45.66571 
L 208.503236 45.66571 
L 213.661941 45.650032 
L 218.820647 45.468207 
L 223.979353 46.840662 
L 229.138059 46.636719 
L 234.296764 45.30424 
L 239.45547 45.164815 
L 244.614176 45.180733 
L 249.772881 45.386968 
L 254.931587 45.180733 
L 260.090293 45.180733 
L 265.248998 45.180733 
L 270.407704 45.180733 
L 275.56641 45.66571 
L 280.725116 46.219105 
L 285.883821 46.203177 
L 291.042527 46.219105 
L 296.201233 46.219105 
L 301.359938 46.219105 
L 306.518644 46.219105 
L 311.67735 46.219105 
L 316.836055 46.203177 
L 321.994761 45.535626 
L 327.153467 46.459746 
L 332.312173 46.203177 
L 337.470878 46.348492 
L 342.629584 46.33275 
L 347.78829 46.348492 
L 352.946995 46.443819 
L 358.105701 45.666914 
L 363.264407 45.670165 
L 368.423112 45.670165 
L 373.581818 45.686444 
" clip-path="url(#p82b36d9dcc)" style="fill: none; stroke: #ff7763; stroke-width: 1.5; stroke-linecap: square"/>
    <defs>
     <path id="mb98026a610" d="M -2 2 
L 2 -2 
M -2 -2 
L 2 2 
" style="stroke: #ff7763"/>
    </defs>
    <g clip-path="url(#p82b36d9dcc)">
     <use xlink:href="#mb98026a610" x="69.218182" y="254.265784" style="fill: #ff7763; stroke: #ff7763"/>
     <use xlink:href="#mb98026a610" x="74.376888" y="268.062667" style="fill: #ff7763; stroke: #ff7763"/>
     <use xlink:href="#mb98026a610" x="79.535593" y="257.055189" style="fill: #ff7763; stroke: #ff7763"/>
     <use xlink:href="#mb98026a610" x="84.694299" y="256.350718" style="fill: #ff7763; stroke: #ff7763"/>
     <use xlink:href="#mb98026a610" x="89.853005" y="108.978915" style="fill: #ff7763; stroke: #ff7763"/>
     <use xlink:href="#mb98026a610" x="95.01171" y="109.985343" style="fill: #ff7763; stroke: #ff7763"/>
     <use xlink:href="#mb98026a610" x="100.170416" y="64.123323" style="fill: #ff7763; stroke: #ff7763"/>
     <use xlink:href="#mb98026a610" x="105.329122" y="64.123323" style="fill: #ff7763; stroke: #ff7763"/>
     <use xlink:href="#mb98026a610" x="110.487827" y="64.306956" style="fill: #ff7763; stroke: #ff7763"/>
     <use xlink:href="#mb98026a610" x="115.646533" y="57.267217" style="fill: #ff7763; stroke: #ff7763"/>
     <use xlink:href="#mb98026a610" x="120.805239" y="45.468207" style="fill: #ff7763; stroke: #ff7763"/>
     <use xlink:href="#mb98026a610" x="125.963945" y="66.385468" style="fill: #ff7763; stroke: #ff7763"/>
     <use xlink:href="#mb98026a610" x="131.12265" y="58.305875" style="fill: #ff7763; stroke: #ff7763"/>
     <use xlink:href="#mb98026a610" x="136.281356" y="53.255792" style="fill: #ff7763; stroke: #ff7763"/>
     <use xlink:href="#mb98026a610" x="141.440062" y="45.650032" style="fill: #ff7763; stroke: #ff7763"/>
     <use xlink:href="#mb98026a610" x="146.598767" y="49.111721" style="fill: #ff7763; stroke: #ff7763"/>
     <use xlink:href="#mb98026a610" x="151.757473" y="49.598337" style="fill: #ff7763; stroke: #ff7763"/>
     <use xlink:href="#mb98026a610" x="156.916179" y="46.856707" style="fill: #ff7763; stroke: #ff7763"/>
     <use xlink:href="#mb98026a610" x="162.074884" y="46.840662" style="fill: #ff7763; stroke: #ff7763"/>
     <use xlink:href="#mb98026a610" x="167.23359" y="45.824213" style="fill: #ff7763; stroke: #ff7763"/>
     <use xlink:href="#mb98026a610" x="172.392296" y="45.824213" style="fill: #ff7763; stroke: #ff7763"/>
     <use xlink:href="#mb98026a610" x="177.551002" y="45.824213" style="fill: #ff7763; stroke: #ff7763"/>
     <use xlink:href="#mb98026a610" x="182.709707" y="45.489538" style="fill: #ff7763; stroke: #ff7763"/>
     <use xlink:href="#mb98026a610" x="187.868413" y="45.66571" style="fill: #ff7763; stroke: #ff7763"/>
     <use xlink:href="#mb98026a610" x="193.027119" y="45.66571" style="fill: #ff7763; stroke: #ff7763"/>
     <use xlink:href="#mb98026a610" x="198.185824" y="45.824213" style="fill: #ff7763; stroke: #ff7763"/>
     <use xlink:href="#mb98026a610" x="203.34453" y="45.66571" style="fill: #ff7763; stroke: #ff7763"/>
     <use xlink:href="#mb98026a610" x="208.503236" y="45.66571" style="fill: #ff7763; stroke: #ff7763"/>
     <use xlink:href="#mb98026a610" x="213.661941" y="45.650032" style="fill: #ff7763; stroke: #ff7763"/>
     <use xlink:href="#mb98026a610" x="218.820647" y="45.468207" style="fill: #ff7763; stroke: #ff7763"/>
     <use xlink:href="#mb98026a610" x="223.979353" y="46.840662" style="fill: #ff7763; stroke: #ff7763"/>
     <use xlink:href="#mb98026a610" x="229.138059" y="46.636719" style="fill: #ff7763; stroke: #ff7763"/>
     <use xlink:href="#mb98026a610" x="234.296764" y="45.30424" style="fill: #ff7763; stroke: #ff7763"/>
     <use xlink:href="#mb98026a610" x="239.45547" y="45.164815" style="fill: #ff7763; stroke: #ff7763"/>
     <use xlink:href="#mb98026a610" x="244.614176" y="45.180733" style="fill: #ff7763; stroke: #ff7763"/>
     <use xlink:href="#mb98026a610" x="249.772881" y="45.386968" style="fill: #ff7763; stroke: #ff7763"/>
     <use xlink:href="#mb98026a610" x="254.931587" y="45.180733" style="fill: #ff7763; stroke: #ff7763"/>
     <use xlink:href="#mb98026a610" x="260.090293" y="45.180733" style="fill: #ff7763; stroke: #ff7763"/>
     <use xlink:href="#mb98026a610" x="265.248998" y="45.180733" style="fill: #ff7763; stroke: #ff7763"/>
     <use xlink:href="#mb98026a610" x="270.407704" y="45.180733" style="fill: #ff7763; stroke: #ff7763"/>
     <use xlink:href="#mb98026a610" x="275.56641" y="45.66571" style="fill: #ff7763; stroke: #ff7763"/>
     <use xlink:href="#mb98026a610" x="280.725116" y="46.219105" style="fill: #ff7763; stroke: #ff7763"/>
     <use xlink:href="#mb98026a610" x="285.883821" y="46.203177" style="fill: #ff7763; stroke: #ff7763"/>
     <use xlink:href="#mb98026a610" x="291.042527" y="46.219105" style="fill: #ff7763; stroke: #ff7763"/>
     <use xlink:href="#mb98026a610" x="296.201233" y="46.219105" style="fill: #ff7763; stroke: #ff7763"/>
     <use xlink:href="#mb98026a610" x="301.359938" y="46.219105" style="fill: #ff7763; stroke: #ff7763"/>
     <use xlink:href="#mb98026a610" x="306.518644" y="46.219105" style="fill: #ff7763; stroke: #ff7763"/>
     <use xlink:href="#mb98026a610" x="311.67735" y="46.219105" style="fill: #ff7763; stroke: #ff7763"/>
     <use xlink:href="#mb98026a610" x="316.836055" y="46.203177" style="fill: #ff7763; stroke: #ff7763"/>
     <use xlink:href="#mb98026a610" x="321.994761" y="45.535626" style="fill: #ff7763; stroke: #ff7763"/>
     <use xlink:href="#mb98026a610" x="327.153467" y="46.459746" style="fill: #ff7763; stroke: #ff7763"/>
     <use xlink:href="#mb98026a610" x="332.312173" y="46.203177" style="fill: #ff7763; stroke: #ff7763"/>
     <use xlink:href="#mb98026a610" x="337.470878" y="46.348492" style="fill: #ff7763; stroke: #ff7763"/>
     <use xlink:href="#mb98026a610" x="342.629584" y="46.33275" style="fill: #ff7763; stroke: #ff7763"/>
     <use xlink:href="#mb98026a610" x="347.78829" y="46.348492" style="fill: #ff7763; stroke: #ff7763"/>
     <use xlink:href="#mb98026a610" x="352.946995" y="46.443819" style="fill: #ff7763; stroke: #ff7763"/>
     <use xlink:href="#mb98026a610" x="358.105701" y="45.666914" style="fill: #ff7763; stroke: #ff7763"/>
     <use xlink:href="#mb98026a610" x="363.264407" y="45.670165" style="fill: #ff7763; stroke: #ff7763"/>
     <use xlink:href="#mb98026a610" x="368.423112" y="45.670165" style="fill: #ff7763; stroke: #ff7763"/>
     <use xlink:href="#mb98026a610" x="373.581818" y="45.686444" style="fill: #ff7763; stroke: #ff7763"/>
    </g>
   </g>
   <g id="line2d_32">
    <path d="M 69.218182 257.811407 
L 74.376888 254.948938 
L 79.535593 258.883242 
L 84.694299 253.422556 
L 89.853005 47.83802 
L 95.01171 78.392309 
L 100.170416 116.386146 
L 105.329122 54.790256 
L 110.487827 80.984913 
L 115.646533 85.435418 
L 120.805239 62.285125 
L 125.963945 57.074713 
L 131.12265 46.790179 
L 136.281356 45.613601 
L 141.440062 55.658935 
L 146.598767 76.732575 
L 151.757473 80.017951 
L 156.916179 56.088588 
L 162.074884 56.088588 
L 167.23359 57.218538 
L 172.392296 57.138841 
L 177.551002 64.671489 
L 182.709707 77.560279 
L 187.868413 67.655839 
L 193.027119 53.091028 
L 198.185824 52.610386 
L 203.34453 51.944578 
L 208.503236 52.246449 
L 213.661941 60.646587 
L 218.820647 47.210621 
L 223.979353 47.413279 
L 229.138059 47.210621 
L 234.296764 47.210621 
L 239.45547 47.004775 
L 244.614176 48.821688 
L 249.772881 48.821688 
L 254.931587 48.821688 
L 260.090293 47.004775 
L 265.248998 47.210621 
L 270.407704 46.920258 
L 275.56641 46.920258 
L 280.725116 46.627869 
L 285.883821 46.627869 
L 291.042527 47.286089 
L 296.201233 50.456495 
L 301.359938 42.935593 
L 306.518644 42.935593 
L 311.67735 42.92429 
L 316.836055 42.92429 
L 321.994761 42.935593 
L 327.153467 46.627869 
L 332.312173 47.095685 
L 337.470878 47.865396 
L 342.629584 46.626582 
L 347.78829 47.695708 
L 352.946995 48.745836 
L 358.105701 49.044828 
L 363.264407 47.004775 
L 368.423112 46.594894 
L 373.581818 46.596322 
" clip-path="url(#p82b36d9dcc)" style="fill: none; stroke: #ffac1e; stroke-width: 1.5; stroke-linecap: square"/>
    <defs>
     <path id="m80d40bf05f" d="M 0 -2 
L -0.449028 -0.618034 
L -1.902113 -0.618034 
L -0.726543 0.236068 
L -1.175571 1.618034 
L -0 0.763932 
L 1.175571 1.618034 
L 0.726543 0.236068 
L 1.902113 -0.618034 
L 0.449028 -0.618034 
z
" style="stroke: #ffac1e; stroke-linejoin: bevel"/>
    </defs>
    <g clip-path="url(#p82b36d9dcc)">
     <use xlink:href="#m80d40bf05f" x="69.218182" y="257.811407" style="fill: #ffac1e; stroke: #ffac1e; stroke-linejoin: bevel"/>
     <use xlink:href="#m80d40bf05f" x="74.376888" y="254.948938" style="fill: #ffac1e; stroke: #ffac1e; stroke-linejoin: bevel"/>
     <use xlink:href="#m80d40bf05f" x="79.535593" y="258.883242" style="fill: #ffac1e; stroke: #ffac1e; stroke-linejoin: bevel"/>
     <use xlink:href="#m80d40bf05f" x="84.694299" y="253.422556" style="fill: #ffac1e; stroke: #ffac1e; stroke-linejoin: bevel"/>
     <use xlink:href="#m80d40bf05f" x="89.853005" y="47.83802" style="fill: #ffac1e; stroke: #ffac1e; stroke-linejoin: bevel"/>
     <use xlink:href="#m80d40bf05f" x="95.01171" y="78.392309" style="fill: #ffac1e; stroke: #ffac1e; stroke-linejoin: bevel"/>
     <use xlink:href="#m80d40bf05f" x="100.170416" y="116.386146" style="fill: #ffac1e; stroke: #ffac1e; stroke-linejoin: bevel"/>
     <use xlink:href="#m80d40bf05f" x="105.329122" y="54.790256" style="fill: #ffac1e; stroke: #ffac1e; stroke-linejoin: bevel"/>
     <use xlink:href="#m80d40bf05f" x="110.487827" y="80.984913" style="fill: #ffac1e; stroke: #ffac1e; stroke-linejoin: bevel"/>
     <use xlink:href="#m80d40bf05f" x="115.646533" y="85.435418" style="fill: #ffac1e; stroke: #ffac1e; stroke-linejoin: bevel"/>
     <use xlink:href="#m80d40bf05f" x="120.805239" y="62.285125" style="fill: #ffac1e; stroke: #ffac1e; stroke-linejoin: bevel"/>
     <use xlink:href="#m80d40bf05f" x="125.963945" y="57.074713" style="fill: #ffac1e; stroke: #ffac1e; stroke-linejoin: bevel"/>
     <use xlink:href="#m80d40bf05f" x="131.12265" y="46.790179" style="fill: #ffac1e; stroke: #ffac1e; stroke-linejoin: bevel"/>
     <use xlink:href="#m80d40bf05f" x="136.281356" y="45.613601" style="fill: #ffac1e; stroke: #ffac1e; stroke-linejoin: bevel"/>
     <use xlink:href="#m80d40bf05f" x="141.440062" y="55.658935" style="fill: #ffac1e; stroke: #ffac1e; stroke-linejoin: bevel"/>
     <use xlink:href="#m80d40bf05f" x="146.598767" y="76.732575" style="fill: #ffac1e; stroke: #ffac1e; stroke-linejoin: bevel"/>
     <use xlink:href="#m80d40bf05f" x="151.757473" y="80.017951" style="fill: #ffac1e; stroke: #ffac1e; stroke-linejoin: bevel"/>
     <use xlink:href="#m80d40bf05f" x="156.916179" y="56.088588" style="fill: #ffac1e; stroke: #ffac1e; stroke-linejoin: bevel"/>
     <use xlink:href="#m80d40bf05f" x="162.074884" y="56.088588" style="fill: #ffac1e; stroke: #ffac1e; stroke-linejoin: bevel"/>
     <use xlink:href="#m80d40bf05f" x="167.23359" y="57.218538" style="fill: #ffac1e; stroke: #ffac1e; stroke-linejoin: bevel"/>
     <use xlink:href="#m80d40bf05f" x="172.392296" y="57.138841" style="fill: #ffac1e; stroke: #ffac1e; stroke-linejoin: bevel"/>
     <use xlink:href="#m80d40bf05f" x="177.551002" y="64.671489" style="fill: #ffac1e; stroke: #ffac1e; stroke-linejoin: bevel"/>
     <use xlink:href="#m80d40bf05f" x="182.709707" y="77.560279" style="fill: #ffac1e; stroke: #ffac1e; stroke-linejoin: bevel"/>
     <use xlink:href="#m80d40bf05f" x="187.868413" y="67.655839" style="fill: #ffac1e; stroke: #ffac1e; stroke-linejoin: bevel"/>
     <use xlink:href="#m80d40bf05f" x="193.027119" y="53.091028" style="fill: #ffac1e; stroke: #ffac1e; stroke-linejoin: bevel"/>
     <use xlink:href="#m80d40bf05f" x="198.185824" y="52.610386" style="fill: #ffac1e; stroke: #ffac1e; stroke-linejoin: bevel"/>
     <use xlink:href="#m80d40bf05f" x="203.34453" y="51.944578" style="fill: #ffac1e; stroke: #ffac1e; stroke-linejoin: bevel"/>
     <use xlink:href="#m80d40bf05f" x="208.503236" y="52.246449" style="fill: #ffac1e; stroke: #ffac1e; stroke-linejoin: bevel"/>
     <use xlink:href="#m80d40bf05f" x="213.661941" y="60.646587" style="fill: #ffac1e; stroke: #ffac1e; stroke-linejoin: bevel"/>
     <use xlink:href="#m80d40bf05f" x="218.820647" y="47.210621" style="fill: #ffac1e; stroke: #ffac1e; stroke-linejoin: bevel"/>
     <use xlink:href="#m80d40bf05f" x="223.979353" y="47.413279" style="fill: #ffac1e; stroke: #ffac1e; stroke-linejoin: bevel"/>
     <use xlink:href="#m80d40bf05f" x="229.138059" y="47.210621" style="fill: #ffac1e; stroke: #ffac1e; stroke-linejoin: bevel"/>
     <use xlink:href="#m80d40bf05f" x="234.296764" y="47.210621" style="fill: #ffac1e; stroke: #ffac1e; stroke-linejoin: bevel"/>
     <use xlink:href="#m80d40bf05f" x="239.45547" y="47.004775" style="fill: #ffac1e; stroke: #ffac1e; stroke-linejoin: bevel"/>
     <use xlink:href="#m80d40bf05f" x="244.614176" y="48.821688" style="fill: #ffac1e; stroke: #ffac1e; stroke-linejoin: bevel"/>
     <use xlink:href="#m80d40bf05f" x="249.772881" y="48.821688" style="fill: #ffac1e; stroke: #ffac1e; stroke-linejoin: bevel"/>
     <use xlink:href="#m80d40bf05f" x="254.931587" y="48.821688" style="fill: #ffac1e; stroke: #ffac1e; stroke-linejoin: bevel"/>
     <use xlink:href="#m80d40bf05f" x="260.090293" y="47.004775" style="fill: #ffac1e; stroke: #ffac1e; stroke-linejoin: bevel"/>
     <use xlink:href="#m80d40bf05f" x="265.248998" y="47.210621" style="fill: #ffac1e; stroke: #ffac1e; stroke-linejoin: bevel"/>
     <use xlink:href="#m80d40bf05f" x="270.407704" y="46.920258" style="fill: #ffac1e; stroke: #ffac1e; stroke-linejoin: bevel"/>
     <use xlink:href="#m80d40bf05f" x="275.56641" y="46.920258" style="fill: #ffac1e; stroke: #ffac1e; stroke-linejoin: bevel"/>
     <use xlink:href="#m80d40bf05f" x="280.725116" y="46.627869" style="fill: #ffac1e; stroke: #ffac1e; stroke-linejoin: bevel"/>
     <use xlink:href="#m80d40bf05f" x="285.883821" y="46.627869" style="fill: #ffac1e; stroke: #ffac1e; stroke-linejoin: bevel"/>
     <use xlink:href="#m80d40bf05f" x="291.042527" y="47.286089" style="fill: #ffac1e; stroke: #ffac1e; stroke-linejoin: bevel"/>
     <use xlink:href="#m80d40bf05f" x="296.201233" y="50.456495" style="fill: #ffac1e; stroke: #ffac1e; stroke-linejoin: bevel"/>
     <use xlink:href="#m80d40bf05f" x="301.359938" y="42.935593" style="fill: #ffac1e; stroke: #ffac1e; stroke-linejoin: bevel"/>
     <use xlink:href="#m80d40bf05f" x="306.518644" y="42.935593" style="fill: #ffac1e; stroke: #ffac1e; stroke-linejoin: bevel"/>
     <use xlink:href="#m80d40bf05f" x="311.67735" y="42.92429" style="fill: #ffac1e; stroke: #ffac1e; stroke-linejoin: bevel"/>
     <use xlink:href="#m80d40bf05f" x="316.836055" y="42.92429" style="fill: #ffac1e; stroke: #ffac1e; stroke-linejoin: bevel"/>
     <use xlink:href="#m80d40bf05f" x="321.994761" y="42.935593" style="fill: #ffac1e; stroke: #ffac1e; stroke-linejoin: bevel"/>
     <use xlink:href="#m80d40bf05f" x="327.153467" y="46.627869" style="fill: #ffac1e; stroke: #ffac1e; stroke-linejoin: bevel"/>
     <use xlink:href="#m80d40bf05f" x="332.312173" y="47.095685" style="fill: #ffac1e; stroke: #ffac1e; stroke-linejoin: bevel"/>
     <use xlink:href="#m80d40bf05f" x="337.470878" y="47.865396" style="fill: #ffac1e; stroke: #ffac1e; stroke-linejoin: bevel"/>
     <use xlink:href="#m80d40bf05f" x="342.629584" y="46.626582" style="fill: #ffac1e; stroke: #ffac1e; stroke-linejoin: bevel"/>
     <use xlink:href="#m80d40bf05f" x="347.78829" y="47.695708" style="fill: #ffac1e; stroke: #ffac1e; stroke-linejoin: bevel"/>
     <use xlink:href="#m80d40bf05f" x="352.946995" y="48.745836" style="fill: #ffac1e; stroke: #ffac1e; stroke-linejoin: bevel"/>
     <use xlink:href="#m80d40bf05f" x="358.105701" y="49.044828" style="fill: #ffac1e; stroke: #ffac1e; stroke-linejoin: bevel"/>
     <use xlink:href="#m80d40bf05f" x="363.264407" y="47.004775" style="fill: #ffac1e; stroke: #ffac1e; stroke-linejoin: bevel"/>
     <use xlink:href="#m80d40bf05f" x="368.423112" y="46.594894" style="fill: #ffac1e; stroke: #ffac1e; stroke-linejoin: bevel"/>
     <use xlink:href="#m80d40bf05f" x="373.581818" y="46.596322" style="fill: #ffac1e; stroke: #ffac1e; stroke-linejoin: bevel"/>
    </g>
   </g>
   <g id="line2d_33">
    <path d="M 69.218182 252.923531 
L 74.376888 254.02747 
L 79.535593 260.604807 
L 84.694299 253.51848 
L 89.853005 101.514336 
L 95.01171 54.622858 
L 100.170416 113.89707 
L 105.329122 57.445717 
L 110.487827 59.71643 
L 115.646533 134.290813 
L 120.805239 159.48642 
L 125.963945 173.574901 
L 131.12265 172.127745 
L 136.281356 50.429284 
L 141.440062 79.781271 
L 146.598767 91.30366 
L 151.757473 75.618164 
L 156.916179 79.067403 
L 162.074884 197.483668 
L 167.23359 190.08029 
L 172.392296 57.665657 
L 177.551002 223.138009 
L 182.709707 85.95344 
L 187.868413 79.894346 
L 193.027119 82.846118 
L 198.185824 64.441211 
L 203.34453 66.058642 
L 208.503236 62.663713 
L 213.661941 108.840218 
L 218.820647 88.308513 
L 223.979353 70.064185 
L 229.138059 62.843403 
L 234.296764 77.127711 
L 239.45547 71.012572 
L 244.614176 86.936037 
L 249.772881 62.546902 
L 254.931587 62.546902 
L 260.090293 62.581423 
L 265.248998 137.463506 
L 270.407704 71.012572 
L 275.56641 62.386615 
L 280.725116 71.012572 
L 285.883821 97.595317 
L 291.042527 60.440744 
L 296.201233 63.778096 
L 301.359938 64.406676 
L 306.518644 64.406676 
L 311.67735 61.986761 
L 316.836055 59.168254 
L 321.994761 60.774967 
L 327.153467 59.392732 
L 332.312173 62.549247 
L 337.470878 59.123477 
L 342.629584 61.032935 
L 347.78829 68.544806 
L 352.946995 61.032935 
L 358.105701 61.032935 
L 363.264407 71.585663 
L 368.423112 59.392732 
L 373.581818 59.356286 
" clip-path="url(#p82b36d9dcc)" style="fill: none; stroke: #009435; stroke-width: 1.5; stroke-linecap: square"/>
    <defs>
     <path id="mcc456f07e9" d="M -2 2 
L 2 2 
L 2 -2 
L -2 -2 
z
" style="stroke: #009435; stroke-linejoin: miter"/>
    </defs>
    <g clip-path="url(#p82b36d9dcc)">
     <use xlink:href="#mcc456f07e9" x="69.218182" y="252.923531" style="fill: #009435; stroke: #009435; stroke-linejoin: miter"/>
     <use xlink:href="#mcc456f07e9" x="74.376888" y="254.02747" style="fill: #009435; stroke: #009435; stroke-linejoin: miter"/>
     <use xlink:href="#mcc456f07e9" x="79.535593" y="260.604807" style="fill: #009435; stroke: #009435; stroke-linejoin: miter"/>
     <use xlink:href="#mcc456f07e9" x="84.694299" y="253.51848" style="fill: #009435; stroke: #009435; stroke-linejoin: miter"/>
     <use xlink:href="#mcc456f07e9" x="89.853005" y="101.514336" style="fill: #009435; stroke: #009435; stroke-linejoin: miter"/>
     <use xlink:href="#mcc456f07e9" x="95.01171" y="54.622858" style="fill: #009435; stroke: #009435; stroke-linejoin: miter"/>
     <use xlink:href="#mcc456f07e9" x="100.170416" y="113.89707" style="fill: #009435; stroke: #009435; stroke-linejoin: miter"/>
     <use xlink:href="#mcc456f07e9" x="105.329122" y="57.445717" style="fill: #009435; stroke: #009435; stroke-linejoin: miter"/>
     <use xlink:href="#mcc456f07e9" x="110.487827" y="59.71643" style="fill: #009435; stroke: #009435; stroke-linejoin: miter"/>
     <use xlink:href="#mcc456f07e9" x="115.646533" y="134.290813" style="fill: #009435; stroke: #009435; stroke-linejoin: miter"/>
     <use xlink:href="#mcc456f07e9" x="120.805239" y="159.48642" style="fill: #009435; stroke: #009435; stroke-linejoin: miter"/>
     <use xlink:href="#mcc456f07e9" x="125.963945" y="173.574901" style="fill: #009435; stroke: #009435; stroke-linejoin: miter"/>
     <use xlink:href="#mcc456f07e9" x="131.12265" y="172.127745" style="fill: #009435; stroke: #009435; stroke-linejoin: miter"/>
     <use xlink:href="#mcc456f07e9" x="136.281356" y="50.429284" style="fill: #009435; stroke: #009435; stroke-linejoin: miter"/>
     <use xlink:href="#mcc456f07e9" x="141.440062" y="79.781271" style="fill: #009435; stroke: #009435; stroke-linejoin: miter"/>
     <use xlink:href="#mcc456f07e9" x="146.598767" y="91.30366" style="fill: #009435; stroke: #009435; stroke-linejoin: miter"/>
     <use xlink:href="#mcc456f07e9" x="151.757473" y="75.618164" style="fill: #009435; stroke: #009435; stroke-linejoin: miter"/>
     <use xlink:href="#mcc456f07e9" x="156.916179" y="79.067403" style="fill: #009435; stroke: #009435; stroke-linejoin: miter"/>
     <use xlink:href="#mcc456f07e9" x="162.074884" y="197.483668" style="fill: #009435; stroke: #009435; stroke-linejoin: miter"/>
     <use xlink:href="#mcc456f07e9" x="167.23359" y="190.08029" style="fill: #009435; stroke: #009435; stroke-linejoin: miter"/>
     <use xlink:href="#mcc456f07e9" x="172.392296" y="57.665657" style="fill: #009435; stroke: #009435; stroke-linejoin: miter"/>
     <use xlink:href="#mcc456f07e9" x="177.551002" y="223.138009" style="fill: #009435; stroke: #009435; stroke-linejoin: miter"/>
     <use xlink:href="#mcc456f07e9" x="182.709707" y="85.95344" style="fill: #009435; stroke: #009435; stroke-linejoin: miter"/>
     <use xlink:href="#mcc456f07e9" x="187.868413" y="79.894346" style="fill: #009435; stroke: #009435; stroke-linejoin: miter"/>
     <use xlink:href="#mcc456f07e9" x="193.027119" y="82.846118" style="fill: #009435; stroke: #009435; stroke-linejoin: miter"/>
     <use xlink:href="#mcc456f07e9" x="198.185824" y="64.441211" style="fill: #009435; stroke: #009435; stroke-linejoin: miter"/>
     <use xlink:href="#mcc456f07e9" x="203.34453" y="66.058642" style="fill: #009435; stroke: #009435; stroke-linejoin: miter"/>
     <use xlink:href="#mcc456f07e9" x="208.503236" y="62.663713" style="fill: #009435; stroke: #009435; stroke-linejoin: miter"/>
     <use xlink:href="#mcc456f07e9" x="213.661941" y="108.840218" style="fill: #009435; stroke: #009435; stroke-linejoin: miter"/>
     <use xlink:href="#mcc456f07e9" x="218.820647" y="88.308513" style="fill: #009435; stroke: #009435; stroke-linejoin: miter"/>
     <use xlink:href="#mcc456f07e9" x="223.979353" y="70.064185" style="fill: #009435; stroke: #009435; stroke-linejoin: miter"/>
     <use xlink:href="#mcc456f07e9" x="229.138059" y="62.843403" style="fill: #009435; stroke: #009435; stroke-linejoin: miter"/>
     <use xlink:href="#mcc456f07e9" x="234.296764" y="77.127711" style="fill: #009435; stroke: #009435; stroke-linejoin: miter"/>
     <use xlink:href="#mcc456f07e9" x="239.45547" y="71.012572" style="fill: #009435; stroke: #009435; stroke-linejoin: miter"/>
     <use xlink:href="#mcc456f07e9" x="244.614176" y="86.936037" style="fill: #009435; stroke: #009435; stroke-linejoin: miter"/>
     <use xlink:href="#mcc456f07e9" x="249.772881" y="62.546902" style="fill: #009435; stroke: #009435; stroke-linejoin: miter"/>
     <use xlink:href="#mcc456f07e9" x="254.931587" y="62.546902" style="fill: #009435; stroke: #009435; stroke-linejoin: miter"/>
     <use xlink:href="#mcc456f07e9" x="260.090293" y="62.581423" style="fill: #009435; stroke: #009435; stroke-linejoin: miter"/>
     <use xlink:href="#mcc456f07e9" x="265.248998" y="137.463506" style="fill: #009435; stroke: #009435; stroke-linejoin: miter"/>
     <use xlink:href="#mcc456f07e9" x="270.407704" y="71.012572" style="fill: #009435; stroke: #009435; stroke-linejoin: miter"/>
     <use xlink:href="#mcc456f07e9" x="275.56641" y="62.386615" style="fill: #009435; stroke: #009435; stroke-linejoin: miter"/>
     <use xlink:href="#mcc456f07e9" x="280.725116" y="71.012572" style="fill: #009435; stroke: #009435; stroke-linejoin: miter"/>
     <use xlink:href="#mcc456f07e9" x="285.883821" y="97.595317" style="fill: #009435; stroke: #009435; stroke-linejoin: miter"/>
     <use xlink:href="#mcc456f07e9" x="291.042527" y="60.440744" style="fill: #009435; stroke: #009435; stroke-linejoin: miter"/>
     <use xlink:href="#mcc456f07e9" x="296.201233" y="63.778096" style="fill: #009435; stroke: #009435; stroke-linejoin: miter"/>
     <use xlink:href="#mcc456f07e9" x="301.359938" y="64.406676" style="fill: #009435; stroke: #009435; stroke-linejoin: miter"/>
     <use xlink:href="#mcc456f07e9" x="306.518644" y="64.406676" style="fill: #009435; stroke: #009435; stroke-linejoin: miter"/>
     <use xlink:href="#mcc456f07e9" x="311.67735" y="61.986761" style="fill: #009435; stroke: #009435; stroke-linejoin: miter"/>
     <use xlink:href="#mcc456f07e9" x="316.836055" y="59.168254" style="fill: #009435; stroke: #009435; stroke-linejoin: miter"/>
     <use xlink:href="#mcc456f07e9" x="321.994761" y="60.774967" style="fill: #009435; stroke: #009435; stroke-linejoin: miter"/>
     <use xlink:href="#mcc456f07e9" x="327.153467" y="59.392732" style="fill: #009435; stroke: #009435; stroke-linejoin: miter"/>
     <use xlink:href="#mcc456f07e9" x="332.312173" y="62.549247" style="fill: #009435; stroke: #009435; stroke-linejoin: miter"/>
     <use xlink:href="#mcc456f07e9" x="337.470878" y="59.123477" style="fill: #009435; stroke: #009435; stroke-linejoin: miter"/>
     <use xlink:href="#mcc456f07e9" x="342.629584" y="61.032935" style="fill: #009435; stroke: #009435; stroke-linejoin: miter"/>
     <use xlink:href="#mcc456f07e9" x="347.78829" y="68.544806" style="fill: #009435; stroke: #009435; stroke-linejoin: miter"/>
     <use xlink:href="#mcc456f07e9" x="352.946995" y="61.032935" style="fill: #009435; stroke: #009435; stroke-linejoin: miter"/>
     <use xlink:href="#mcc456f07e9" x="358.105701" y="61.032935" style="fill: #009435; stroke: #009435; stroke-linejoin: miter"/>
     <use xlink:href="#mcc456f07e9" x="363.264407" y="71.585663" style="fill: #009435; stroke: #009435; stroke-linejoin: miter"/>
     <use xlink:href="#mcc456f07e9" x="368.423112" y="59.392732" style="fill: #009435; stroke: #009435; stroke-linejoin: miter"/>
     <use xlink:href="#mcc456f07e9" x="373.581818" y="59.356286" style="fill: #009435; stroke: #009435; stroke-linejoin: miter"/>
    </g>
   </g>
   <g id="patch_3">
    <path d="M 54 252 
L 54 34.56 
" style="fill: none; stroke: #000000; stroke-width: 0.8; stroke-linejoin: miter; stroke-linecap: square"/>
   </g>
   <g id="patch_4">
    <path d="M 388.8 252 
L 388.8 34.56 
" style="fill: none; stroke: #000000; stroke-width: 0.8; stroke-linejoin: miter; stroke-linecap: square"/>
   </g>
   <g id="patch_5">
    <path d="M 54 252 
L 388.8 252 
" style="fill: none; stroke: #000000; stroke-width: 0.8; stroke-linejoin: miter; stroke-linecap: square"/>
   </g>
   <g id="patch_6">
    <path d="M 54 34.56 
L 388.8 34.56 
" style="fill: none; stroke: #000000; stroke-width: 0.8; stroke-linejoin: miter; stroke-linecap: square"/>
   </g>
   <g id="text_17">
    <!-- BEB agent policy with coeff_prior = 3 -->
    <g transform="translate(109.396875 28.56)scale(0.12 -0.12)">
     <defs>
      <path id="DejaVuSans-42" d="M 1259 2228 
L 1259 519 
L 2272 519 
Q 2781 519 3026 730 
Q 3272 941 3272 1375 
Q 3272 1813 3026 2020 
Q 2781 2228 2272 2228 
L 1259 2228 
z
M 1259 4147 
L 1259 2741 
L 2194 2741 
Q 2656 2741 2882 2914 
Q 3109 3088 3109 3444 
Q 3109 3797 2882 3972 
Q 2656 4147 2194 4147 
L 1259 4147 
z
M 628 4666 
L 2241 4666 
Q 2963 4666 3353 4366 
Q 3744 4066 3744 3513 
Q 3744 3084 3544 2831 
Q 3344 2578 2956 2516 
Q 3422 2416 3680 2098 
Q 3938 1781 3938 1306 
Q 3938 681 3513 340 
Q 3088 0 2303 0 
L 628 0 
L 628 4666 
z
" transform="scale(0.015625)"/>
      <path id="DejaVuSans-45" d="M 628 4666 
L 3578 4666 
L 3578 4134 
L 1259 4134 
L 1259 2753 
L 3481 2753 
L 3481 2222 
L 1259 2222 
L 1259 531 
L 3634 531 
L 3634 0 
L 628 0 
L 628 4666 
z
" transform="scale(0.015625)"/>
      <path id="DejaVuSans-67" d="M 2906 1791 
Q 2906 2416 2648 2759 
Q 2391 3103 1925 3103 
Q 1463 3103 1205 2759 
Q 947 2416 947 1791 
Q 947 1169 1205 825 
Q 1463 481 1925 481 
Q 2391 481 2648 825 
Q 2906 1169 2906 1791 
z
M 3481 434 
Q 3481 -459 3084 -895 
Q 2688 -1331 1869 -1331 
Q 1566 -1331 1297 -1286 
Q 1028 -1241 775 -1147 
L 775 -588 
Q 1028 -725 1275 -790 
Q 1522 -856 1778 -856 
Q 2344 -856 2625 -561 
Q 2906 -266 2906 331 
L 2906 616 
Q 2728 306 2450 153 
Q 2172 0 1784 0 
Q 1141 0 747 490 
Q 353 981 353 1791 
Q 353 2603 747 3093 
Q 1141 3584 1784 3584 
Q 2172 3584 2450 3431 
Q 2728 3278 2906 2969 
L 2906 3500 
L 3481 3500 
L 3481 434 
z
" transform="scale(0.015625)"/>
      <path id="DejaVuSans-6e" d="M 3513 2113 
L 3513 0 
L 2938 0 
L 2938 2094 
Q 2938 2591 2744 2837 
Q 2550 3084 2163 3084 
Q 1697 3084 1428 2787 
Q 1159 2491 1159 1978 
L 1159 0 
L 581 0 
L 581 3500 
L 1159 3500 
L 1159 2956 
Q 1366 3272 1645 3428 
Q 1925 3584 2291 3584 
Q 2894 3584 3203 3211 
Q 3513 2838 3513 2113 
z
" transform="scale(0.015625)"/>
      <path id="DejaVuSans-77" d="M 269 3500 
L 844 3500 
L 1563 769 
L 2278 3500 
L 2956 3500 
L 3675 769 
L 4391 3500 
L 4966 3500 
L 4050 0 
L 3372 0 
L 2619 2869 
L 1863 0 
L 1184 0 
L 269 3500 
z
" transform="scale(0.015625)"/>
      <path id="DejaVuSans-68" d="M 3513 2113 
L 3513 0 
L 2938 0 
L 2938 2094 
Q 2938 2591 2744 2837 
Q 2550 3084 2163 3084 
Q 1697 3084 1428 2787 
Q 1159 2491 1159 1978 
L 1159 0 
L 581 0 
L 581 4863 
L 1159 4863 
L 1159 2956 
Q 1366 3272 1645 3428 
Q 1925 3584 2291 3584 
Q 2894 3584 3203 3211 
Q 3513 2838 3513 2113 
z
" transform="scale(0.015625)"/>
      <path id="DejaVuSans-66" d="M 2375 4863 
L 2375 4384 
L 1825 4384 
Q 1516 4384 1395 4259 
Q 1275 4134 1275 3809 
L 1275 3500 
L 2222 3500 
L 2222 3053 
L 1275 3053 
L 1275 0 
L 697 0 
L 697 3053 
L 147 3053 
L 147 3500 
L 697 3500 
L 697 3744 
Q 697 4328 969 4595 
Q 1241 4863 1831 4863 
L 2375 4863 
z
" transform="scale(0.015625)"/>
      <path id="DejaVuSans-5f" d="M 3263 -1063 
L 3263 -1509 
L -63 -1509 
L -63 -1063 
L 3263 -1063 
z
" transform="scale(0.015625)"/>
      <path id="DejaVuSans-3d" d="M 678 2906 
L 4684 2906 
L 4684 2381 
L 678 2381 
L 678 2906 
z
M 678 1631 
L 4684 1631 
L 4684 1100 
L 678 1100 
L 678 1631 
z
" transform="scale(0.015625)"/>
     </defs>
     <use xlink:href="#DejaVuSans-42"/>
     <use xlink:href="#DejaVuSans-45" x="68.603516"/>
     <use xlink:href="#DejaVuSans-42" x="131.787109"/>
     <use xlink:href="#DejaVuSans-20" x="200.390625"/>
     <use xlink:href="#DejaVuSans-61" x="232.177734"/>
     <use xlink:href="#DejaVuSans-67" x="293.457031"/>
     <use xlink:href="#DejaVuSans-65" x="356.933594"/>
     <use xlink:href="#DejaVuSans-6e" x="418.457031"/>
     <use xlink:href="#DejaVuSans-74" x="481.835938"/>
     <use xlink:href="#DejaVuSans-20" x="521.044922"/>
     <use xlink:href="#DejaVuSans-70" x="552.832031"/>
     <use xlink:href="#DejaVuSans-6f" x="616.308594"/>
     <use xlink:href="#DejaVuSans-6c" x="677.490234"/>
     <use xlink:href="#DejaVuSans-69" x="705.273438"/>
     <use xlink:href="#DejaVuSans-63" x="733.056641"/>
     <use xlink:href="#DejaVuSans-79" x="788.037109"/>
     <use xlink:href="#DejaVuSans-20" x="847.216797"/>
     <use xlink:href="#DejaVuSans-77" x="879.003906"/>
     <use xlink:href="#DejaVuSans-69" x="960.791016"/>
     <use xlink:href="#DejaVuSans-74" x="988.574219"/>
     <use xlink:href="#DejaVuSans-68" x="1027.783203"/>
     <use xlink:href="#DejaVuSans-20" x="1091.162109"/>
     <use xlink:href="#DejaVuSans-63" x="1122.949219"/>
     <use xlink:href="#DejaVuSans-6f" x="1177.929688"/>
     <use xlink:href="#DejaVuSans-65" x="1239.111328"/>
     <use xlink:href="#DejaVuSans-66" x="1300.634766"/>
     <use xlink:href="#DejaVuSans-66" x="1335.839844"/>
     <use xlink:href="#DejaVuSans-5f" x="1371.044922"/>
     <use xlink:href="#DejaVuSans-70" x="1421.044922"/>
     <use xlink:href="#DejaVuSans-72" x="1484.521484"/>
     <use xlink:href="#DejaVuSans-69" x="1525.634766"/>
     <use xlink:href="#DejaVuSans-6f" x="1553.417969"/>
     <use xlink:href="#DejaVuSans-72" x="1614.599609"/>
     <use xlink:href="#DejaVuSans-20" x="1655.712891"/>
     <use xlink:href="#DejaVuSans-3d" x="1687.5"/>
     <use xlink:href="#DejaVuSans-20" x="1771.289062"/>
     <use xlink:href="#DejaVuSans-33" x="1803.076172"/>
    </g>
   </g>
   <g id="legend_1">
    <g id="patch_7">
     <path d="M 302.967188 247 
L 381.8 247 
Q 383.8 247 383.8 245 
L 383.8 172.609375 
Q 383.8 170.609375 381.8 170.609375 
L 302.967188 170.609375 
Q 300.967188 170.609375 300.967188 172.609375 
L 300.967188 245 
Q 300.967188 247 302.967188 247 
z
" style="fill: #ffffff; opacity: 0.8; stroke: #cccccc; stroke-linejoin: miter"/>
    </g>
    <g id="line2d_34">
     <path d="M 304.967188 178.707812 
L 314.967188 178.707812 
L 324.967188 178.707812 
" style="fill: none; stroke: #9d02d7; stroke-width: 1.5; stroke-linecap: square"/>
     <g>
      <use xlink:href="#ma5d1052593" x="314.967188" y="178.707812" style="fill: #9d02d7; stroke: #9d02d7; stroke-linejoin: miter"/>
     </g>
    </g>
    <g id="text_18">
     <!-- beta=0.1 -->
     <g transform="translate(332.967188 182.207812)scale(0.1 -0.1)">
      <defs>
       <path id="DejaVuSans-62" d="M 3116 1747 
Q 3116 2381 2855 2742 
Q 2594 3103 2138 3103 
Q 1681 3103 1420 2742 
Q 1159 2381 1159 1747 
Q 1159 1113 1420 752 
Q 1681 391 2138 391 
Q 2594 391 2855 752 
Q 3116 1113 3116 1747 
z
M 1159 2969 
Q 1341 3281 1617 3432 
Q 1894 3584 2278 3584 
Q 2916 3584 3314 3078 
Q 3713 2572 3713 1747 
Q 3713 922 3314 415 
Q 2916 -91 2278 -91 
Q 1894 -91 1617 61 
Q 1341 213 1159 525 
L 1159 0 
L 581 0 
L 581 4863 
L 1159 4863 
L 1159 2969 
z
" transform="scale(0.015625)"/>
       <path id="DejaVuSans-2e" d="M 684 794 
L 1344 794 
L 1344 0 
L 684 0 
L 684 794 
z
" transform="scale(0.015625)"/>
      </defs>
      <use xlink:href="#DejaVuSans-62"/>
      <use xlink:href="#DejaVuSans-65" x="63.476562"/>
      <use xlink:href="#DejaVuSans-74" x="125"/>
      <use xlink:href="#DejaVuSans-61" x="164.208984"/>
      <use xlink:href="#DejaVuSans-3d" x="225.488281"/>
      <use xlink:href="#DejaVuSans-30" x="309.277344"/>
      <use xlink:href="#DejaVuSans-2e" x="372.900391"/>
      <use xlink:href="#DejaVuSans-31" x="404.6875"/>
     </g>
    </g>
    <g id="line2d_35">
     <path d="M 304.967188 193.385938 
L 314.967188 193.385938 
L 324.967188 193.385938 
" style="fill: none; stroke: #0000ff; stroke-width: 1.5; stroke-linecap: square"/>
     <g>
      <use xlink:href="#m6c0b435e23" x="314.967188" y="193.385938" style="fill: #0000ff; stroke: #0000ff"/>
     </g>
    </g>
    <g id="text_19">
     <!-- beta=1 -->
     <g transform="translate(332.967188 196.885938)scale(0.1 -0.1)">
      <use xlink:href="#DejaVuSans-62"/>
      <use xlink:href="#DejaVuSans-65" x="63.476562"/>
      <use xlink:href="#DejaVuSans-74" x="125"/>
      <use xlink:href="#DejaVuSans-61" x="164.208984"/>
      <use xlink:href="#DejaVuSans-3d" x="225.488281"/>
      <use xlink:href="#DejaVuSans-31" x="309.277344"/>
     </g>
    </g>
    <g id="line2d_36">
     <path d="M 304.967188 208.064063 
L 314.967188 208.064063 
L 324.967188 208.064063 
" style="fill: none; stroke: #ff7763; stroke-width: 1.5; stroke-linecap: square"/>
     <g>
      <use xlink:href="#mb98026a610" x="314.967188" y="208.064063" style="fill: #ff7763; stroke: #ff7763"/>
     </g>
    </g>
    <g id="text_20">
     <!-- beta=2 -->
     <g transform="translate(332.967188 211.564063)scale(0.1 -0.1)">
      <use xlink:href="#DejaVuSans-62"/>
      <use xlink:href="#DejaVuSans-65" x="63.476562"/>
      <use xlink:href="#DejaVuSans-74" x="125"/>
      <use xlink:href="#DejaVuSans-61" x="164.208984"/>
      <use xlink:href="#DejaVuSans-3d" x="225.488281"/>
      <use xlink:href="#DejaVuSans-32" x="309.277344"/>
     </g>
    </g>
    <g id="line2d_37">
     <path d="M 304.967188 222.742188 
L 314.967188 222.742188 
L 324.967188 222.742188 
" style="fill: none; stroke: #ffac1e; stroke-width: 1.5; stroke-linecap: square"/>
     <g>
      <use xlink:href="#m80d40bf05f" x="314.967188" y="222.742188" style="fill: #ffac1e; stroke: #ffac1e; stroke-linejoin: bevel"/>
     </g>
    </g>
    <g id="text_21">
     <!-- beta=3 -->
     <g transform="translate(332.967188 226.242188)scale(0.1 -0.1)">
      <use xlink:href="#DejaVuSans-62"/>
      <use xlink:href="#DejaVuSans-65" x="63.476562"/>
      <use xlink:href="#DejaVuSans-74" x="125"/>
      <use xlink:href="#DejaVuSans-61" x="164.208984"/>
      <use xlink:href="#DejaVuSans-3d" x="225.488281"/>
      <use xlink:href="#DejaVuSans-33" x="309.277344"/>
     </g>
    </g>
    <g id="line2d_38">
     <path d="M 304.967188 237.420313 
L 314.967188 237.420313 
L 324.967188 237.420313 
" style="fill: none; stroke: #009435; stroke-width: 1.5; stroke-linecap: square"/>
     <g>
      <use xlink:href="#mcc456f07e9" x="314.967188" y="237.420313" style="fill: #009435; stroke: #009435; stroke-linejoin: miter"/>
     </g>
    </g>
    <g id="text_22">
     <!-- beta=4 -->
     <g transform="translate(332.967188 240.920313)scale(0.1 -0.1)">
      <use xlink:href="#DejaVuSans-62"/>
      <use xlink:href="#DejaVuSans-65" x="63.476562"/>
      <use xlink:href="#DejaVuSans-74" x="125"/>
      <use xlink:href="#DejaVuSans-61" x="164.208984"/>
      <use xlink:href="#DejaVuSans-3d" x="225.488281"/>
      <use xlink:href="#DejaVuSans-34" x="309.277344"/>
     </g>
    </g>
   </g>
  </g>
 </g>
 <defs>
  <clipPath id="p82b36d9dcc">
   <rect x="54" y="34.56" width="334.8" height="217.44"/>
  </clipPath>
 </defs>
</svg>
