<?xml version="1.0" encoding="utf-8" standalone="no"?>
<!DOCTYPE svg PUBLIC "-//W3C//DTD SVG 1.1//EN"
  "http://www.w3.org/Graphics/SVG/1.1/DTD/svg11.dtd">
<svg xmlns:xlink="http://www.w3.org/1999/xlink" width="432pt" height="288pt" viewBox="0 0 432 288" xmlns="http://www.w3.org/2000/svg" version="1.1">
 <metadata>
  <rdf:RDF xmlns:dc="http://purl.org/dc/elements/1.1/" xmlns:cc="http://creativecommons.org/ns#" xmlns:rdf="http://www.w3.org/1999/02/22-rdf-syntax-ns#">
   <cc:Work>
    <dc:type rdf:resource="http://purl.org/dc/dcmitype/StillImage"/>
    <dc:date>2023-01-11T15:37:00.310009</dc:date>
    <dc:format>image/svg+xml</dc:format>
    <dc:creator>
     <cc:Agent>
      <dc:title>Matplotlib v3.5.2, https://matplotlib.org/</dc:title>
     </cc:Agent>
    </dc:creator>
   </cc:Work>
  </rdf:RDF>
 </metadata>
 <defs>
  <style type="text/css">*{stroke-linejoin: round; stroke-linecap: butt}</style>
 </defs>
 <g id="figure_1">
  <g id="patch_1">
   <path d="M 0 288 
L 432 288 
L 432 0 
L 0 0 
z
" style="fill: #ffffff"/>
  </g>
  <g id="axes_1">
   <g id="patch_2">
    <path d="M 54 252 
L 388.8 252 
L 388.8 34.56 
L 54 34.56 
z
" style="fill: #ffffff"/>
   </g>
   <g id="PolyCollection_1">
    <defs>
     <path id="m86db098ba7" d="M 69.218182 -35.091182 
L 69.218182 -35.091182 
L 74.376888 -34.679671 
L 79.535593 -34.020889 
L 84.694299 -24.012237 
L 89.853005 -34.690795 
L 95.01171 -34.054989 
L 100.170416 -32.742652 
L 105.329122 -154.334007 
L 110.487827 -154.334007 
L 115.646533 -150.181491 
L 120.805239 -159.925289 
L 125.963945 -160.887583 
L 131.12265 -154.390641 
L 136.281356 -154.390641 
L 141.440062 -116.732066 
L 146.598767 -121.768803 
L 151.757473 -136.545128 
L 156.916179 -135.02672 
L 162.074884 -149.917244 
L 167.23359 -160.255701 
L 172.392296 -160.255701 
L 177.551002 -160.255701 
L 182.709707 -160.389044 
L 187.868413 -160.389044 
L 193.027119 -160.389044 
L 198.185824 -160.389044 
L 203.34453 -160.389044 
L 208.503236 -160.389044 
L 213.661941 -160.389044 
L 218.820647 -160.389044 
L 223.979353 -160.389044 
L 229.138059 -162.495757 
L 234.296764 -163.288357 
L 239.45547 -163.346232 
L 244.614176 -163.288357 
L 249.772881 -162.551565 
L 254.931587 -162.551565 
L 260.090293 -162.551565 
L 265.248998 -163.288357 
L 270.407704 -163.346232 
L 275.56641 -163.288357 
L 280.725116 -163.346232 
L 285.883821 -163.346232 
L 291.042527 -163.346232 
L 296.201233 -163.346232 
L 301.359938 -162.551565 
L 306.518644 -162.551565 
L 311.67735 -162.551565 
L 316.836055 -163.346232 
L 321.994761 -163.346232 
L 327.153467 -163.346232 
L 332.312173 -163.346232 
L 337.470878 -163.346232 
L 342.629584 -163.346232 
L 347.78829 -163.346232 
L 352.946995 -163.346232 
L 358.105701 -163.346232 
L 363.264407 -163.346232 
L 368.423112 -162.551565 
L 373.581818 -162.551565 
L 373.581818 -162.551565 
L 373.581818 -162.551565 
L 368.423112 -162.551565 
L 363.264407 -163.346232 
L 358.105701 -163.346232 
L 352.946995 -163.346232 
L 347.78829 -163.346232 
L 342.629584 -163.346232 
L 337.470878 -163.346232 
L 332.312173 -163.346232 
L 327.153467 -163.346232 
L 321.994761 -163.346232 
L 316.836055 -163.346232 
L 311.67735 -162.551565 
L 306.518644 -162.551565 
L 301.359938 -162.551565 
L 296.201233 -163.346232 
L 291.042527 -163.346232 
L 285.883821 -163.346232 
L 280.725116 -163.346232 
L 275.56641 -163.288357 
L 270.407704 -163.346232 
L 265.248998 -163.288357 
L 260.090293 -162.551565 
L 254.931587 -162.551565 
L 249.772881 -162.551565 
L 244.614176 -163.288357 
L 239.45547 -163.346232 
L 234.296764 -163.288357 
L 229.138059 -162.495757 
L 223.979353 -160.389044 
L 218.820647 -160.389044 
L 213.661941 -160.389044 
L 208.503236 -160.389044 
L 203.34453 -160.389044 
L 198.185824 -160.389044 
L 193.027119 -160.389044 
L 187.868413 -160.389044 
L 182.709707 -160.389044 
L 177.551002 -160.255701 
L 172.392296 -160.255701 
L 167.23359 -160.255701 
L 162.074884 -149.917244 
L 156.916179 -135.02672 
L 151.757473 -136.545128 
L 146.598767 -121.768803 
L 141.440062 -116.732066 
L 136.281356 -154.390641 
L 131.12265 -154.390641 
L 125.963945 -160.887583 
L 120.805239 -159.925289 
L 115.646533 -150.181491 
L 110.487827 -154.334007 
L 105.329122 -154.334007 
L 100.170416 -32.742652 
L 95.01171 -34.054989 
L 89.853005 -34.690795 
L 84.694299 -24.012237 
L 79.535593 -34.020889 
L 74.376888 -34.679671 
L 69.218182 -35.091182 
z
" style="stroke: #9d02d7; stroke-opacity: 0.2"/>
    </defs>
    <g clip-path="url(#p51d06444c2)">
     <use xlink:href="#m86db098ba7" x="0" y="288" style="fill: #9d02d7; fill-opacity: 0.2; stroke: #9d02d7; stroke-opacity: 0.2"/>
    </g>
   </g>
   <g id="PolyCollection_2">
    <defs>
     <path id="m6abfc8fca0" d="M 69.218182 -35.116501 
L 69.218182 -35.116501 
L 74.376888 -32.208938 
L 79.535593 -31.686901 
L 84.694299 -46.132957 
L 89.853005 -119.605848 
L 95.01171 -233.978895 
L 100.170416 -181.60359 
L 105.329122 -232.673271 
L 110.487827 -202.433534 
L 115.646533 -222.29876 
L 120.805239 -191.70499 
L 125.963945 -223.031899 
L 131.12265 -224.166107 
L 136.281356 -223.031899 
L 141.440062 -223.031899 
L 146.598767 -222.846254 
L 151.757473 -210.646786 
L 156.916179 -222.736276 
L 162.074884 -222.736276 
L 167.23359 -219.902037 
L 172.392296 -222.736276 
L 177.551002 -222.736276 
L 182.709707 -220.349295 
L 187.868413 -222.736276 
L 193.027119 -222.736276 
L 198.185824 -228.555885 
L 203.34453 -224.157738 
L 208.503236 -229.440239 
L 213.661941 -237.975463 
L 218.820647 -237.975463 
L 223.979353 -237.170648 
L 229.138059 -231.610765 
L 234.296764 -228.503681 
L 239.45547 -231.149663 
L 244.614176 -232.020547 
L 249.772881 -236.919433 
L 254.931587 -237.930976 
L 260.090293 -237.923611 
L 265.248998 -237.923611 
L 270.407704 -237.923611 
L 275.56641 -237.930976 
L 280.725116 -228.849675 
L 285.883821 -237.521229 
L 291.042527 -237.521229 
L 296.201233 -237.521229 
L 301.359938 -237.930976 
L 306.518644 -236.919433 
L 311.67735 -237.930976 
L 316.836055 -237.930976 
L 321.994761 -237.930976 
L 327.153467 -237.930976 
L 332.312173 -237.930976 
L 337.470878 -237.975463 
L 342.629584 -237.930976 
L 347.78829 -237.930976 
L 352.946995 -232.020547 
L 358.105701 -231.850925 
L 363.264407 -231.850925 
L 368.423112 -229.440239 
L 373.581818 -228.904064 
L 373.581818 -228.904064 
L 373.581818 -228.904064 
L 368.423112 -229.440239 
L 363.264407 -231.850925 
L 358.105701 -231.850925 
L 352.946995 -232.020547 
L 347.78829 -237.930976 
L 342.629584 -237.930976 
L 337.470878 -237.975463 
L 332.312173 -237.930976 
L 327.153467 -237.930976 
L 321.994761 -237.930976 
L 316.836055 -237.930976 
L 311.67735 -237.930976 
L 306.518644 -236.919433 
L 301.359938 -237.930976 
L 296.201233 -237.521229 
L 291.042527 -237.521229 
L 285.883821 -237.521229 
L 280.725116 -228.849675 
L 275.56641 -237.930976 
L 270.407704 -237.923611 
L 265.248998 -237.923611 
L 260.090293 -237.923611 
L 254.931587 -237.930976 
L 249.772881 -236.919433 
L 244.614176 -232.020547 
L 239.45547 -231.149663 
L 234.296764 -228.503681 
L 229.138059 -231.610765 
L 223.979353 -237.170648 
L 218.820647 -237.975463 
L 213.661941 -237.975463 
L 208.503236 -229.440239 
L 203.34453 -224.157738 
L 198.185824 -228.555885 
L 193.027119 -222.736276 
L 187.868413 -222.736276 
L 182.709707 -220.349295 
L 177.551002 -222.736276 
L 172.392296 -222.736276 
L 167.23359 -219.902037 
L 162.074884 -222.736276 
L 156.916179 -222.736276 
L 151.757473 -210.646786 
L 146.598767 -222.846254 
L 141.440062 -223.031899 
L 136.281356 -223.031899 
L 131.12265 -224.166107 
L 125.963945 -223.031899 
L 120.805239 -191.70499 
L 115.646533 -222.29876 
L 110.487827 -202.433534 
L 105.329122 -232.673271 
L 100.170416 -181.60359 
L 95.01171 -233.978895 
L 89.853005 -119.605848 
L 84.694299 -46.132957 
L 79.535593 -31.686901 
L 74.376888 -32.208938 
L 69.218182 -35.116501 
z
" style="stroke: #0000ff; stroke-opacity: 0.2"/>
    </defs>
    <g clip-path="url(#p51d06444c2)">
     <use xlink:href="#m6abfc8fca0" x="0" y="288" style="fill: #0000ff; fill-opacity: 0.2; stroke: #0000ff; stroke-opacity: 0.2"/>
    </g>
   </g>
   <g id="PolyCollection_3">
    <defs>
     <path id="m309e3c2ace" d="M 69.218182 -35.091182 
L 69.218182 -35.091182 
L 74.376888 -23.364357 
L 79.535593 -28.435921 
L 84.694299 -32.742222 
L 89.853005 -40.477551 
L 95.01171 -189.593652 
L 100.170416 -138.316202 
L 105.329122 -141.860769 
L 110.487827 -83.178366 
L 115.646533 -61.745696 
L 120.805239 -205.997874 
L 125.963945 -199.566823 
L 131.12265 -185.017283 
L 136.281356 -141.922386 
L 141.440062 -202.278212 
L 146.598767 -175.972752 
L 151.757473 -212.691609 
L 156.916179 -226.307847 
L 162.074884 -214.322085 
L 167.23359 -227.676267 
L 172.392296 -228.691872 
L 177.551002 -227.225856 
L 182.709707 -231.653935 
L 187.868413 -232.344033 
L 193.027119 -227.943245 
L 198.185824 -232.086851 
L 203.34453 -234.71306 
L 208.503236 -233.909128 
L 213.661941 -236.320207 
L 218.820647 -219.742844 
L 223.979353 -231.403702 
L 229.138059 -231.403702 
L 234.296764 -235.820673 
L 239.45547 -235.175759 
L 244.614176 -235.971917 
L 249.772881 -226.319255 
L 254.931587 -211.085931 
L 260.090293 -222.170138 
L 265.248998 -235.175759 
L 270.407704 -236.320207 
L 275.56641 -236.365385 
L 280.725116 -236.320207 
L 285.883821 -236.320207 
L 291.042527 -236.320207 
L 296.201233 -236.365385 
L 301.359938 -236.365385 
L 306.518644 -236.320207 
L 311.67735 -234.431596 
L 316.836055 -234.431596 
L 321.994761 -231.403702 
L 327.153467 -231.403702 
L 332.312173 -231.403702 
L 337.470878 -231.403702 
L 342.629584 -236.038916 
L 347.78829 -236.038916 
L 352.946995 -235.24982 
L 358.105701 -236.365385 
L 363.264407 -236.365385 
L 368.423112 -236.365385 
L 373.581818 -236.038916 
L 373.581818 -236.038916 
L 373.581818 -236.038916 
L 368.423112 -236.365385 
L 363.264407 -236.365385 
L 358.105701 -236.365385 
L 352.946995 -235.24982 
L 347.78829 -236.038916 
L 342.629584 -236.038916 
L 337.470878 -231.403702 
L 332.312173 -231.403702 
L 327.153467 -231.403702 
L 321.994761 -231.403702 
L 316.836055 -234.431596 
L 311.67735 -234.431596 
L 306.518644 -236.320207 
L 301.359938 -236.365385 
L 296.201233 -236.365385 
L 291.042527 -236.320207 
L 285.883821 -236.320207 
L 280.725116 -236.320207 
L 275.56641 -236.365385 
L 270.407704 -236.320207 
L 265.248998 -235.175759 
L 260.090293 -222.170138 
L 254.931587 -211.085931 
L 249.772881 -226.319255 
L 244.614176 -235.971917 
L 239.45547 -235.175759 
L 234.296764 -235.820673 
L 229.138059 -231.403702 
L 223.979353 -231.403702 
L 218.820647 -219.742844 
L 213.661941 -236.320207 
L 208.503236 -233.909128 
L 203.34453 -234.71306 
L 198.185824 -232.086851 
L 193.027119 -227.943245 
L 187.868413 -232.344033 
L 182.709707 -231.653935 
L 177.551002 -227.225856 
L 172.392296 -228.691872 
L 167.23359 -227.676267 
L 162.074884 -214.322085 
L 156.916179 -226.307847 
L 151.757473 -212.691609 
L 146.598767 -175.972752 
L 141.440062 -202.278212 
L 136.281356 -141.922386 
L 131.12265 -185.017283 
L 125.963945 -199.566823 
L 120.805239 -205.997874 
L 115.646533 -61.745696 
L 110.487827 -83.178366 
L 105.329122 -141.860769 
L 100.170416 -138.316202 
L 95.01171 -189.593652 
L 89.853005 -40.477551 
L 84.694299 -32.742222 
L 79.535593 -28.435921 
L 74.376888 -23.364357 
L 69.218182 -35.091182 
z
" style="stroke: #ff7763; stroke-opacity: 0.2"/>
    </defs>
    <g clip-path="url(#p51d06444c2)">
     <use xlink:href="#m309e3c2ace" x="0" y="288" style="fill: #ff7763; fill-opacity: 0.2; stroke: #ff7763; stroke-opacity: 0.2"/>
    </g>
   </g>
   <g id="PolyCollection_4">
    <defs>
     <path id="ma32b384754" d="M 69.218182 -34.368666 
L 69.218182 -34.368666 
L 74.376888 -30.14883 
L 79.535593 -33.222615 
L 84.694299 -58.487463 
L 89.853005 -32.286452 
L 95.01171 -32.399441 
L 100.170416 -25.685353 
L 105.329122 -88.06118 
L 110.487827 -105.546918 
L 115.646533 -33.865448 
L 120.805239 -34.909379 
L 125.963945 -48.243979 
L 131.12265 -100.924711 
L 136.281356 -164.015002 
L 141.440062 -157.543818 
L 146.598767 -125.699585 
L 151.757473 -226.107458 
L 156.916179 -175.519596 
L 162.074884 -202.757302 
L 167.23359 -202.855324 
L 172.392296 -197.306003 
L 177.551002 -202.778044 
L 182.709707 -230.736629 
L 187.868413 -230.736629 
L 193.027119 -230.736629 
L 198.185824 -75.553109 
L 203.34453 -192.930026 
L 208.503236 -235.156506 
L 213.661941 -221.449946 
L 218.820647 -221.449946 
L 223.979353 -231.03061 
L 229.138059 -215.887021 
L 234.296764 -193.914385 
L 239.45547 -77.597835 
L 244.614176 -239.126457 
L 249.772881 -239.785558 
L 254.931587 -239.650335 
L 260.090293 -242.956481 
L 265.248998 -238.184192 
L 270.407704 -238.67882 
L 275.56641 -239.253809 
L 280.725116 -239.253809 
L 285.883821 -242.184078 
L 291.042527 -242.788461 
L 296.201233 -239.78686 
L 301.359938 -239.78669 
L 306.518644 -243.719121 
L 311.67735 -242.353964 
L 316.836055 -231.507286 
L 321.994761 -242.354306 
L 327.153467 -234.762598 
L 332.312173 -234.762598 
L 337.470878 -242.354306 
L 342.629584 -242.354306 
L 347.78829 -242.354306 
L 352.946995 -242.354306 
L 358.105701 -242.354306 
L 363.264407 -242.354306 
L 368.423112 -164.910985 
L 373.581818 -234.762598 
L 373.581818 -234.762598 
L 373.581818 -234.762598 
L 368.423112 -164.910985 
L 363.264407 -242.354306 
L 358.105701 -242.354306 
L 352.946995 -242.354306 
L 347.78829 -242.354306 
L 342.629584 -242.354306 
L 337.470878 -242.354306 
L 332.312173 -234.762598 
L 327.153467 -234.762598 
L 321.994761 -242.354306 
L 316.836055 -231.507286 
L 311.67735 -242.353964 
L 306.518644 -243.719121 
L 301.359938 -239.78669 
L 296.201233 -239.78686 
L 291.042527 -242.788461 
L 285.883821 -242.184078 
L 280.725116 -239.253809 
L 275.56641 -239.253809 
L 270.407704 -238.67882 
L 265.248998 -238.184192 
L 260.090293 -242.956481 
L 254.931587 -239.650335 
L 249.772881 -239.785558 
L 244.614176 -239.126457 
L 239.45547 -77.597835 
L 234.296764 -193.914385 
L 229.138059 -215.887021 
L 223.979353 -231.03061 
L 218.820647 -221.449946 
L 213.661941 -221.449946 
L 208.503236 -235.156506 
L 203.34453 -192.930026 
L 198.185824 -75.553109 
L 193.027119 -230.736629 
L 187.868413 -230.736629 
L 182.709707 -230.736629 
L 177.551002 -202.778044 
L 172.392296 -197.306003 
L 167.23359 -202.855324 
L 162.074884 -202.757302 
L 156.916179 -175.519596 
L 151.757473 -226.107458 
L 146.598767 -125.699585 
L 141.440062 -157.543818 
L 136.281356 -164.015002 
L 131.12265 -100.924711 
L 125.963945 -48.243979 
L 120.805239 -34.909379 
L 115.646533 -33.865448 
L 110.487827 -105.546918 
L 105.329122 -88.06118 
L 100.170416 -25.685353 
L 95.01171 -32.399441 
L 89.853005 -32.286452 
L 84.694299 -58.487463 
L 79.535593 -33.222615 
L 74.376888 -30.14883 
L 69.218182 -34.368666 
z
" style="stroke: #ffac1e; stroke-opacity: 0.2"/>
    </defs>
    <g clip-path="url(#p51d06444c2)">
     <use xlink:href="#ma32b384754" x="0" y="288" style="fill: #ffac1e; fill-opacity: 0.2; stroke: #ffac1e; stroke-opacity: 0.2"/>
    </g>
   </g>
   <g id="PolyCollection_5">
    <defs>
     <path id="m3d7a16513f" d="M 69.218182 -26.758443 
L 69.218182 -26.758443 
L 74.376888 -42.13331 
L 79.535593 -35.19613 
L 84.694299 -36.115536 
L 89.853005 -34.578531 
L 95.01171 -181.34213 
L 100.170416 -30.071631 
L 105.329122 -12.605521 
L 110.487827 -112.193857 
L 115.646533 -36.907422 
L 120.805239 -34.276335 
L 125.963945 -167.896922 
L 131.12265 -35.489833 
L 136.281356 -222.350505 
L 141.440062 -85.18905 
L 146.598767 -209.328426 
L 151.757473 -230.78128 
L 156.916179 -106.277661 
L 162.074884 -203.468009 
L 167.23359 -83.453074 
L 172.392296 -242.438129 
L 177.551002 -34.572703 
L 182.709707 -224.833507 
L 187.868413 -240.763299 
L 193.027119 -216.187195 
L 198.185824 -190.732992 
L 203.34453 -154.179582 
L 208.503236 -45.795329 
L 213.661941 -241.586823 
L 218.820647 -92.999954 
L 223.979353 -60.8221 
L 229.138059 -243.025878 
L 234.296764 -243.136775 
L 239.45547 -242.134577 
L 244.614176 -231.516718 
L 249.772881 -239.695113 
L 254.931587 -212.207955 
L 260.090293 -211.447269 
L 265.248998 -217.279891 
L 270.407704 -237.968724 
L 275.56641 -240.591011 
L 280.725116 -238.095103 
L 285.883821 -220.14633 
L 291.042527 -232.076341 
L 296.201233 -238.720595 
L 301.359938 -241.12344 
L 306.518644 -242.13369 
L 311.67735 -237.866105 
L 316.836055 -242.260313 
L 321.994761 -243.136775 
L 327.153467 -242.386114 
L 332.312173 -242.675271 
L 337.470878 -242.260622 
L 342.629584 -239.593665 
L 347.78829 -238.724276 
L 352.946995 -242.260622 
L 358.105701 -242.13369 
L 363.264407 -243.136775 
L 368.423112 -242.678247 
L 373.581818 -240.33363 
L 373.581818 -240.33363 
L 373.581818 -240.33363 
L 368.423112 -242.678247 
L 363.264407 -243.136775 
L 358.105701 -242.13369 
L 352.946995 -242.260622 
L 347.78829 -238.724276 
L 342.629584 -239.593665 
L 337.470878 -242.260622 
L 332.312173 -242.675271 
L 327.153467 -242.386114 
L 321.994761 -243.136775 
L 316.836055 -242.260313 
L 311.67735 -237.866105 
L 306.518644 -242.13369 
L 301.359938 -241.12344 
L 296.201233 -238.720595 
L 291.042527 -232.076341 
L 285.883821 -220.14633 
L 280.725116 -238.095103 
L 275.56641 -240.591011 
L 270.407704 -237.968724 
L 265.248998 -217.279891 
L 260.090293 -211.447269 
L 254.931587 -212.207955 
L 249.772881 -239.695113 
L 244.614176 -231.516718 
L 239.45547 -242.134577 
L 234.296764 -243.136775 
L 229.138059 -243.025878 
L 223.979353 -60.8221 
L 218.820647 -92.999954 
L 213.661941 -241.586823 
L 208.503236 -45.795329 
L 203.34453 -154.179582 
L 198.185824 -190.732992 
L 193.027119 -216.187195 
L 187.868413 -240.763299 
L 182.709707 -224.833507 
L 177.551002 -34.572703 
L 172.392296 -242.438129 
L 167.23359 -83.453074 
L 162.074884 -203.468009 
L 156.916179 -106.277661 
L 151.757473 -230.78128 
L 146.598767 -209.328426 
L 141.440062 -85.18905 
L 136.281356 -222.350505 
L 131.12265 -35.489833 
L 125.963945 -167.896922 
L 120.805239 -34.276335 
L 115.646533 -36.907422 
L 110.487827 -112.193857 
L 105.329122 -12.605521 
L 100.170416 -30.071631 
L 95.01171 -181.34213 
L 89.853005 -34.578531 
L 84.694299 -36.115536 
L 79.535593 -35.19613 
L 74.376888 -42.13331 
L 69.218182 -26.758443 
z
" style="stroke: #009435; stroke-opacity: 0.2"/>
    </defs>
    <g clip-path="url(#p51d06444c2)">
     <use xlink:href="#m3d7a16513f" x="0" y="288" style="fill: #009435; fill-opacity: 0.2; stroke: #009435; stroke-opacity: 0.2"/>
    </g>
   </g>
   <g id="matplotlib.axis_1">
    <g id="xtick_1">
     <g id="line2d_1">
      <path d="M 69.218182 252 
L 69.218182 34.56 
" clip-path="url(#p51d06444c2)" style="fill: none; stroke-dasharray: 2.96,1.28; stroke-dashoffset: 0; stroke: #b0b0b0; stroke-width: 0.8"/>
     </g>
     <g id="line2d_2">
      <defs>
       <path id="m81703ebdf7" d="M 0 0 
L 0 3.5 
" style="stroke: #000000; stroke-width: 0.8"/>
      </defs>
      <g>
       <use xlink:href="#m81703ebdf7" x="69.218182" y="252" style="stroke: #000000; stroke-width: 0.8"/>
      </g>
     </g>
     <g id="text_1">
      <!-- 0 -->
      <g transform="translate(66.036932 266.598437)scale(0.1 -0.1)">
       <defs>
        <path id="DejaVuSans-30" d="M 2034 4250 
Q 1547 4250 1301 3770 
Q 1056 3291 1056 2328 
Q 1056 1369 1301 889 
Q 1547 409 2034 409 
Q 2525 409 2770 889 
Q 3016 1369 3016 2328 
Q 3016 3291 2770 3770 
Q 2525 4250 2034 4250 
z
M 2034 4750 
Q 2819 4750 3233 4129 
Q 3647 3509 3647 2328 
Q 3647 1150 3233 529 
Q 2819 -91 2034 -91 
Q 1250 -91 836 529 
Q 422 1150 422 2328 
Q 422 3509 836 4129 
Q 1250 4750 2034 4750 
z
" transform="scale(0.015625)"/>
       </defs>
       <use xlink:href="#DejaVuSans-30"/>
      </g>
     </g>
    </g>
    <g id="xtick_2">
     <g id="line2d_3">
      <path d="M 120.805239 252 
L 120.805239 34.56 
" clip-path="url(#p51d06444c2)" style="fill: none; stroke-dasharray: 2.96,1.28; stroke-dashoffset: 0; stroke: #b0b0b0; stroke-width: 0.8"/>
     </g>
     <g id="line2d_4">
      <g>
       <use xlink:href="#m81703ebdf7" x="120.805239" y="252" style="stroke: #000000; stroke-width: 0.8"/>
      </g>
     </g>
     <g id="text_2">
      <!-- 500 -->
      <g transform="translate(111.261489 266.598437)scale(0.1 -0.1)">
       <defs>
        <path id="DejaVuSans-35" d="M 691 4666 
L 3169 4666 
L 3169 4134 
L 1269 4134 
L 1269 2991 
Q 1406 3038 1543 3061 
Q 1681 3084 1819 3084 
Q 2600 3084 3056 2656 
Q 3513 2228 3513 1497 
Q 3513 744 3044 326 
Q 2575 -91 1722 -91 
Q 1428 -91 1123 -41 
Q 819 9 494 109 
L 494 744 
Q 775 591 1075 516 
Q 1375 441 1709 441 
Q 2250 441 2565 725 
Q 2881 1009 2881 1497 
Q 2881 1984 2565 2268 
Q 2250 2553 1709 2553 
Q 1456 2553 1204 2497 
Q 953 2441 691 2322 
L 691 4666 
z
" transform="scale(0.015625)"/>
       </defs>
       <use xlink:href="#DejaVuSans-35"/>
       <use xlink:href="#DejaVuSans-30" x="63.623047"/>
       <use xlink:href="#DejaVuSans-30" x="127.246094"/>
      </g>
     </g>
    </g>
    <g id="xtick_3">
     <g id="line2d_5">
      <path d="M 172.392296 252 
L 172.392296 34.56 
" clip-path="url(#p51d06444c2)" style="fill: none; stroke-dasharray: 2.96,1.28; stroke-dashoffset: 0; stroke: #b0b0b0; stroke-width: 0.8"/>
     </g>
     <g id="line2d_6">
      <g>
       <use xlink:href="#m81703ebdf7" x="172.392296" y="252" style="stroke: #000000; stroke-width: 0.8"/>
      </g>
     </g>
     <g id="text_3">
      <!-- 1000 -->
      <g transform="translate(159.667296 266.598437)scale(0.1 -0.1)">
       <defs>
        <path id="DejaVuSans-31" d="M 794 531 
L 1825 531 
L 1825 4091 
L 703 3866 
L 703 4441 
L 1819 4666 
L 2450 4666 
L 2450 531 
L 3481 531 
L 3481 0 
L 794 0 
L 794 531 
z
" transform="scale(0.015625)"/>
       </defs>
       <use xlink:href="#DejaVuSans-31"/>
       <use xlink:href="#DejaVuSans-30" x="63.623047"/>
       <use xlink:href="#DejaVuSans-30" x="127.246094"/>
       <use xlink:href="#DejaVuSans-30" x="190.869141"/>
      </g>
     </g>
    </g>
    <g id="xtick_4">
     <g id="line2d_7">
      <path d="M 223.979353 252 
L 223.979353 34.56 
" clip-path="url(#p51d06444c2)" style="fill: none; stroke-dasharray: 2.96,1.28; stroke-dashoffset: 0; stroke: #b0b0b0; stroke-width: 0.8"/>
     </g>
     <g id="line2d_8">
      <g>
       <use xlink:href="#m81703ebdf7" x="223.979353" y="252" style="stroke: #000000; stroke-width: 0.8"/>
      </g>
     </g>
     <g id="text_4">
      <!-- 1500 -->
      <g transform="translate(211.254353 266.598437)scale(0.1 -0.1)">
       <use xlink:href="#DejaVuSans-31"/>
       <use xlink:href="#DejaVuSans-35" x="63.623047"/>
       <use xlink:href="#DejaVuSans-30" x="127.246094"/>
       <use xlink:href="#DejaVuSans-30" x="190.869141"/>
      </g>
     </g>
    </g>
    <g id="xtick_5">
     <g id="line2d_9">
      <path d="M 275.56641 252 
L 275.56641 34.56 
" clip-path="url(#p51d06444c2)" style="fill: none; stroke-dasharray: 2.96,1.28; stroke-dashoffset: 0; stroke: #b0b0b0; stroke-width: 0.8"/>
     </g>
     <g id="line2d_10">
      <g>
       <use xlink:href="#m81703ebdf7" x="275.56641" y="252" style="stroke: #000000; stroke-width: 0.8"/>
      </g>
     </g>
     <g id="text_5">
      <!-- 2000 -->
      <g transform="translate(262.84141 266.598437)scale(0.1 -0.1)">
       <defs>
        <path id="DejaVuSans-32" d="M 1228 531 
L 3431 531 
L 3431 0 
L 469 0 
L 469 531 
Q 828 903 1448 1529 
Q 2069 2156 2228 2338 
Q 2531 2678 2651 2914 
Q 2772 3150 2772 3378 
Q 2772 3750 2511 3984 
Q 2250 4219 1831 4219 
Q 1534 4219 1204 4116 
Q 875 4013 500 3803 
L 500 4441 
Q 881 4594 1212 4672 
Q 1544 4750 1819 4750 
Q 2544 4750 2975 4387 
Q 3406 4025 3406 3419 
Q 3406 3131 3298 2873 
Q 3191 2616 2906 2266 
Q 2828 2175 2409 1742 
Q 1991 1309 1228 531 
z
" transform="scale(0.015625)"/>
       </defs>
       <use xlink:href="#DejaVuSans-32"/>
       <use xlink:href="#DejaVuSans-30" x="63.623047"/>
       <use xlink:href="#DejaVuSans-30" x="127.246094"/>
       <use xlink:href="#DejaVuSans-30" x="190.869141"/>
      </g>
     </g>
    </g>
    <g id="xtick_6">
     <g id="line2d_11">
      <path d="M 327.153467 252 
L 327.153467 34.56 
" clip-path="url(#p51d06444c2)" style="fill: none; stroke-dasharray: 2.96,1.28; stroke-dashoffset: 0; stroke: #b0b0b0; stroke-width: 0.8"/>
     </g>
     <g id="line2d_12">
      <g>
       <use xlink:href="#m81703ebdf7" x="327.153467" y="252" style="stroke: #000000; stroke-width: 0.8"/>
      </g>
     </g>
     <g id="text_6">
      <!-- 2500 -->
      <g transform="translate(314.428467 266.598437)scale(0.1 -0.1)">
       <use xlink:href="#DejaVuSans-32"/>
       <use xlink:href="#DejaVuSans-35" x="63.623047"/>
       <use xlink:href="#DejaVuSans-30" x="127.246094"/>
       <use xlink:href="#DejaVuSans-30" x="190.869141"/>
      </g>
     </g>
    </g>
    <g id="xtick_7">
     <g id="line2d_13">
      <path d="M 378.740524 252 
L 378.740524 34.56 
" clip-path="url(#p51d06444c2)" style="fill: none; stroke-dasharray: 2.96,1.28; stroke-dashoffset: 0; stroke: #b0b0b0; stroke-width: 0.8"/>
     </g>
     <g id="line2d_14">
      <g>
       <use xlink:href="#m81703ebdf7" x="378.740524" y="252" style="stroke: #000000; stroke-width: 0.8"/>
      </g>
     </g>
     <g id="text_7">
      <!-- 3000 -->
      <g transform="translate(366.015524 266.598437)scale(0.1 -0.1)">
       <defs>
        <path id="DejaVuSans-33" d="M 2597 2516 
Q 3050 2419 3304 2112 
Q 3559 1806 3559 1356 
Q 3559 666 3084 287 
Q 2609 -91 1734 -91 
Q 1441 -91 1130 -33 
Q 819 25 488 141 
L 488 750 
Q 750 597 1062 519 
Q 1375 441 1716 441 
Q 2309 441 2620 675 
Q 2931 909 2931 1356 
Q 2931 1769 2642 2001 
Q 2353 2234 1838 2234 
L 1294 2234 
L 1294 2753 
L 1863 2753 
Q 2328 2753 2575 2939 
Q 2822 3125 2822 3475 
Q 2822 3834 2567 4026 
Q 2313 4219 1838 4219 
Q 1578 4219 1281 4162 
Q 984 4106 628 3988 
L 628 4550 
Q 988 4650 1302 4700 
Q 1616 4750 1894 4750 
Q 2613 4750 3031 4423 
Q 3450 4097 3450 3541 
Q 3450 3153 3228 2886 
Q 3006 2619 2597 2516 
z
" transform="scale(0.015625)"/>
       </defs>
       <use xlink:href="#DejaVuSans-33"/>
       <use xlink:href="#DejaVuSans-30" x="63.623047"/>
       <use xlink:href="#DejaVuSans-30" x="127.246094"/>
       <use xlink:href="#DejaVuSans-30" x="190.869141"/>
      </g>
     </g>
    </g>
    <g id="text_8">
     <!-- Steps -->
     <g transform="translate(207.410156 280.276563)scale(0.1 -0.1)">
      <defs>
       <path id="DejaVuSans-53" d="M 3425 4513 
L 3425 3897 
Q 3066 4069 2747 4153 
Q 2428 4238 2131 4238 
Q 1616 4238 1336 4038 
Q 1056 3838 1056 3469 
Q 1056 3159 1242 3001 
Q 1428 2844 1947 2747 
L 2328 2669 
Q 3034 2534 3370 2195 
Q 3706 1856 3706 1288 
Q 3706 609 3251 259 
Q 2797 -91 1919 -91 
Q 1588 -91 1214 -16 
Q 841 59 441 206 
L 441 856 
Q 825 641 1194 531 
Q 1563 422 1919 422 
Q 2459 422 2753 634 
Q 3047 847 3047 1241 
Q 3047 1584 2836 1778 
Q 2625 1972 2144 2069 
L 1759 2144 
Q 1053 2284 737 2584 
Q 422 2884 422 3419 
Q 422 4038 858 4394 
Q 1294 4750 2059 4750 
Q 2388 4750 2728 4690 
Q 3069 4631 3425 4513 
z
" transform="scale(0.015625)"/>
       <path id="DejaVuSans-74" d="M 1172 4494 
L 1172 3500 
L 2356 3500 
L 2356 3053 
L 1172 3053 
L 1172 1153 
Q 1172 725 1289 603 
Q 1406 481 1766 481 
L 2356 481 
L 2356 0 
L 1766 0 
Q 1100 0 847 248 
Q 594 497 594 1153 
L 594 3053 
L 172 3053 
L 172 3500 
L 594 3500 
L 594 4494 
L 1172 4494 
z
" transform="scale(0.015625)"/>
       <path id="DejaVuSans-65" d="M 3597 1894 
L 3597 1613 
L 953 1613 
Q 991 1019 1311 708 
Q 1631 397 2203 397 
Q 2534 397 2845 478 
Q 3156 559 3463 722 
L 3463 178 
Q 3153 47 2828 -22 
Q 2503 -91 2169 -91 
Q 1331 -91 842 396 
Q 353 884 353 1716 
Q 353 2575 817 3079 
Q 1281 3584 2069 3584 
Q 2775 3584 3186 3129 
Q 3597 2675 3597 1894 
z
M 3022 2063 
Q 3016 2534 2758 2815 
Q 2500 3097 2075 3097 
Q 1594 3097 1305 2825 
Q 1016 2553 972 2059 
L 3022 2063 
z
" transform="scale(0.015625)"/>
       <path id="DejaVuSans-70" d="M 1159 525 
L 1159 -1331 
L 581 -1331 
L 581 3500 
L 1159 3500 
L 1159 2969 
Q 1341 3281 1617 3432 
Q 1894 3584 2278 3584 
Q 2916 3584 3314 3078 
Q 3713 2572 3713 1747 
Q 3713 922 3314 415 
Q 2916 -91 2278 -91 
Q 1894 -91 1617 61 
Q 1341 213 1159 525 
z
M 3116 1747 
Q 3116 2381 2855 2742 
Q 2594 3103 2138 3103 
Q 1681 3103 1420 2742 
Q 1159 2381 1159 1747 
Q 1159 1113 1420 752 
Q 1681 391 2138 391 
Q 2594 391 2855 752 
Q 3116 1113 3116 1747 
z
" transform="scale(0.015625)"/>
       <path id="DejaVuSans-73" d="M 2834 3397 
L 2834 2853 
Q 2591 2978 2328 3040 
Q 2066 3103 1784 3103 
Q 1356 3103 1142 2972 
Q 928 2841 928 2578 
Q 928 2378 1081 2264 
Q 1234 2150 1697 2047 
L 1894 2003 
Q 2506 1872 2764 1633 
Q 3022 1394 3022 966 
Q 3022 478 2636 193 
Q 2250 -91 1575 -91 
Q 1294 -91 989 -36 
Q 684 19 347 128 
L 347 722 
Q 666 556 975 473 
Q 1284 391 1588 391 
Q 1994 391 2212 530 
Q 2431 669 2431 922 
Q 2431 1156 2273 1281 
Q 2116 1406 1581 1522 
L 1381 1569 
Q 847 1681 609 1914 
Q 372 2147 372 2553 
Q 372 3047 722 3315 
Q 1072 3584 1716 3584 
Q 2034 3584 2315 3537 
Q 2597 3491 2834 3397 
z
" transform="scale(0.015625)"/>
      </defs>
      <use xlink:href="#DejaVuSans-53"/>
      <use xlink:href="#DejaVuSans-74" x="63.476562"/>
      <use xlink:href="#DejaVuSans-65" x="102.685547"/>
      <use xlink:href="#DejaVuSans-70" x="164.208984"/>
      <use xlink:href="#DejaVuSans-73" x="227.685547"/>
     </g>
    </g>
   </g>
   <g id="matplotlib.axis_2">
    <g id="ytick_1">
     <g id="line2d_15">
      <path d="M 54 243.636923 
L 388.8 243.636923 
" clip-path="url(#p51d06444c2)" style="fill: none; stroke-dasharray: 2.96,1.28; stroke-dashoffset: 0; stroke: #b0b0b0; stroke-width: 0.8"/>
     </g>
     <g id="line2d_16">
      <defs>
       <path id="meb2ec98728" d="M 0 0 
L -3.5 0 
" style="stroke: #000000; stroke-width: 0.8"/>
      </defs>
      <g>
       <use xlink:href="#meb2ec98728" x="54" y="243.636923" style="stroke: #000000; stroke-width: 0.8"/>
      </g>
     </g>
     <g id="text_9">
      <!-- −12 -->
      <g transform="translate(25.895312 247.436142)scale(0.1 -0.1)">
       <defs>
        <path id="DejaVuSans-2212" d="M 678 2272 
L 4684 2272 
L 4684 1741 
L 678 1741 
L 678 2272 
z
" transform="scale(0.015625)"/>
       </defs>
       <use xlink:href="#DejaVuSans-2212"/>
       <use xlink:href="#DejaVuSans-31" x="83.789062"/>
       <use xlink:href="#DejaVuSans-32" x="147.412109"/>
      </g>
     </g>
    </g>
    <g id="ytick_2">
     <g id="line2d_17">
      <path d="M 54 210.184615 
L 388.8 210.184615 
" clip-path="url(#p51d06444c2)" style="fill: none; stroke-dasharray: 2.96,1.28; stroke-dashoffset: 0; stroke: #b0b0b0; stroke-width: 0.8"/>
     </g>
     <g id="line2d_18">
      <g>
       <use xlink:href="#meb2ec98728" x="54" y="210.184615" style="stroke: #000000; stroke-width: 0.8"/>
      </g>
     </g>
     <g id="text_10">
      <!-- −10 -->
      <g transform="translate(25.895312 213.983834)scale(0.1 -0.1)">
       <use xlink:href="#DejaVuSans-2212"/>
       <use xlink:href="#DejaVuSans-31" x="83.789062"/>
       <use xlink:href="#DejaVuSans-30" x="147.412109"/>
      </g>
     </g>
    </g>
    <g id="ytick_3">
     <g id="line2d_19">
      <path d="M 54 176.732308 
L 388.8 176.732308 
" clip-path="url(#p51d06444c2)" style="fill: none; stroke-dasharray: 2.96,1.28; stroke-dashoffset: 0; stroke: #b0b0b0; stroke-width: 0.8"/>
     </g>
     <g id="line2d_20">
      <g>
       <use xlink:href="#meb2ec98728" x="54" y="176.732308" style="stroke: #000000; stroke-width: 0.8"/>
      </g>
     </g>
     <g id="text_11">
      <!-- −8 -->
      <g transform="translate(32.257812 180.531526)scale(0.1 -0.1)">
       <defs>
        <path id="DejaVuSans-38" d="M 2034 2216 
Q 1584 2216 1326 1975 
Q 1069 1734 1069 1313 
Q 1069 891 1326 650 
Q 1584 409 2034 409 
Q 2484 409 2743 651 
Q 3003 894 3003 1313 
Q 3003 1734 2745 1975 
Q 2488 2216 2034 2216 
z
M 1403 2484 
Q 997 2584 770 2862 
Q 544 3141 544 3541 
Q 544 4100 942 4425 
Q 1341 4750 2034 4750 
Q 2731 4750 3128 4425 
Q 3525 4100 3525 3541 
Q 3525 3141 3298 2862 
Q 3072 2584 2669 2484 
Q 3125 2378 3379 2068 
Q 3634 1759 3634 1313 
Q 3634 634 3220 271 
Q 2806 -91 2034 -91 
Q 1263 -91 848 271 
Q 434 634 434 1313 
Q 434 1759 690 2068 
Q 947 2378 1403 2484 
z
M 1172 3481 
Q 1172 3119 1398 2916 
Q 1625 2713 2034 2713 
Q 2441 2713 2670 2916 
Q 2900 3119 2900 3481 
Q 2900 3844 2670 4047 
Q 2441 4250 2034 4250 
Q 1625 4250 1398 4047 
Q 1172 3844 1172 3481 
z
" transform="scale(0.015625)"/>
       </defs>
       <use xlink:href="#DejaVuSans-2212"/>
       <use xlink:href="#DejaVuSans-38" x="83.789062"/>
      </g>
     </g>
    </g>
    <g id="ytick_4">
     <g id="line2d_21">
      <path d="M 54 143.28 
L 388.8 143.28 
" clip-path="url(#p51d06444c2)" style="fill: none; stroke-dasharray: 2.96,1.28; stroke-dashoffset: 0; stroke: #b0b0b0; stroke-width: 0.8"/>
     </g>
     <g id="line2d_22">
      <g>
       <use xlink:href="#meb2ec98728" x="54" y="143.28" style="stroke: #000000; stroke-width: 0.8"/>
      </g>
     </g>
     <g id="text_12">
      <!-- −6 -->
      <g transform="translate(32.257812 147.079219)scale(0.1 -0.1)">
       <defs>
        <path id="DejaVuSans-36" d="M 2113 2584 
Q 1688 2584 1439 2293 
Q 1191 2003 1191 1497 
Q 1191 994 1439 701 
Q 1688 409 2113 409 
Q 2538 409 2786 701 
Q 3034 994 3034 1497 
Q 3034 2003 2786 2293 
Q 2538 2584 2113 2584 
z
M 3366 4563 
L 3366 3988 
Q 3128 4100 2886 4159 
Q 2644 4219 2406 4219 
Q 1781 4219 1451 3797 
Q 1122 3375 1075 2522 
Q 1259 2794 1537 2939 
Q 1816 3084 2150 3084 
Q 2853 3084 3261 2657 
Q 3669 2231 3669 1497 
Q 3669 778 3244 343 
Q 2819 -91 2113 -91 
Q 1303 -91 875 529 
Q 447 1150 447 2328 
Q 447 3434 972 4092 
Q 1497 4750 2381 4750 
Q 2619 4750 2861 4703 
Q 3103 4656 3366 4563 
z
" transform="scale(0.015625)"/>
       </defs>
       <use xlink:href="#DejaVuSans-2212"/>
       <use xlink:href="#DejaVuSans-36" x="83.789062"/>
      </g>
     </g>
    </g>
    <g id="ytick_5">
     <g id="line2d_23">
      <path d="M 54 109.827692 
L 388.8 109.827692 
" clip-path="url(#p51d06444c2)" style="fill: none; stroke-dasharray: 2.96,1.28; stroke-dashoffset: 0; stroke: #b0b0b0; stroke-width: 0.8"/>
     </g>
     <g id="line2d_24">
      <g>
       <use xlink:href="#meb2ec98728" x="54" y="109.827692" style="stroke: #000000; stroke-width: 0.8"/>
      </g>
     </g>
     <g id="text_13">
      <!-- −4 -->
      <g transform="translate(32.257812 113.626911)scale(0.1 -0.1)">
       <defs>
        <path id="DejaVuSans-34" d="M 2419 4116 
L 825 1625 
L 2419 1625 
L 2419 4116 
z
M 2253 4666 
L 3047 4666 
L 3047 1625 
L 3713 1625 
L 3713 1100 
L 3047 1100 
L 3047 0 
L 2419 0 
L 2419 1100 
L 313 1100 
L 313 1709 
L 2253 4666 
z
" transform="scale(0.015625)"/>
       </defs>
       <use xlink:href="#DejaVuSans-2212"/>
       <use xlink:href="#DejaVuSans-34" x="83.789062"/>
      </g>
     </g>
    </g>
    <g id="ytick_6">
     <g id="line2d_25">
      <path d="M 54 76.375385 
L 388.8 76.375385 
" clip-path="url(#p51d06444c2)" style="fill: none; stroke-dasharray: 2.96,1.28; stroke-dashoffset: 0; stroke: #b0b0b0; stroke-width: 0.8"/>
     </g>
     <g id="line2d_26">
      <g>
       <use xlink:href="#meb2ec98728" x="54" y="76.375385" style="stroke: #000000; stroke-width: 0.8"/>
      </g>
     </g>
     <g id="text_14">
      <!-- −2 -->
      <g transform="translate(32.257812 80.174603)scale(0.1 -0.1)">
       <use xlink:href="#DejaVuSans-2212"/>
       <use xlink:href="#DejaVuSans-32" x="83.789062"/>
      </g>
     </g>
    </g>
    <g id="ytick_7">
     <g id="line2d_27">
      <path d="M 54 42.923077 
L 388.8 42.923077 
" clip-path="url(#p51d06444c2)" style="fill: none; stroke-dasharray: 2.96,1.28; stroke-dashoffset: 0; stroke: #b0b0b0; stroke-width: 0.8"/>
     </g>
     <g id="line2d_28">
      <g>
       <use xlink:href="#meb2ec98728" x="54" y="42.923077" style="stroke: #000000; stroke-width: 0.8"/>
      </g>
     </g>
     <g id="text_15">
      <!-- 0 -->
      <g transform="translate(40.6375 46.722296)scale(0.1 -0.1)">
       <use xlink:href="#DejaVuSans-30"/>
      </g>
     </g>
    </g>
    <g id="text_16">
     <!-- Policy value error -->
     <g transform="translate(19.815625 186.597969)rotate(-90)scale(0.1 -0.1)">
      <defs>
       <path id="DejaVuSans-50" d="M 1259 4147 
L 1259 2394 
L 2053 2394 
Q 2494 2394 2734 2622 
Q 2975 2850 2975 3272 
Q 2975 3691 2734 3919 
Q 2494 4147 2053 4147 
L 1259 4147 
z
M 628 4666 
L 2053 4666 
Q 2838 4666 3239 4311 
Q 3641 3956 3641 3272 
Q 3641 2581 3239 2228 
Q 2838 1875 2053 1875 
L 1259 1875 
L 1259 0 
L 628 0 
L 628 4666 
z
" transform="scale(0.015625)"/>
       <path id="DejaVuSans-6f" d="M 1959 3097 
Q 1497 3097 1228 2736 
Q 959 2375 959 1747 
Q 959 1119 1226 758 
Q 1494 397 1959 397 
Q 2419 397 2687 759 
Q 2956 1122 2956 1747 
Q 2956 2369 2687 2733 
Q 2419 3097 1959 3097 
z
M 1959 3584 
Q 2709 3584 3137 3096 
Q 3566 2609 3566 1747 
Q 3566 888 3137 398 
Q 2709 -91 1959 -91 
Q 1206 -91 779 398 
Q 353 888 353 1747 
Q 353 2609 779 3096 
Q 1206 3584 1959 3584 
z
" transform="scale(0.015625)"/>
       <path id="DejaVuSans-6c" d="M 603 4863 
L 1178 4863 
L 1178 0 
L 603 0 
L 603 4863 
z
" transform="scale(0.015625)"/>
       <path id="DejaVuSans-69" d="M 603 3500 
L 1178 3500 
L 1178 0 
L 603 0 
L 603 3500 
z
M 603 4863 
L 1178 4863 
L 1178 4134 
L 603 4134 
L 603 4863 
z
" transform="scale(0.015625)"/>
       <path id="DejaVuSans-63" d="M 3122 3366 
L 3122 2828 
Q 2878 2963 2633 3030 
Q 2388 3097 2138 3097 
Q 1578 3097 1268 2742 
Q 959 2388 959 1747 
Q 959 1106 1268 751 
Q 1578 397 2138 397 
Q 2388 397 2633 464 
Q 2878 531 3122 666 
L 3122 134 
Q 2881 22 2623 -34 
Q 2366 -91 2075 -91 
Q 1284 -91 818 406 
Q 353 903 353 1747 
Q 353 2603 823 3093 
Q 1294 3584 2113 3584 
Q 2378 3584 2631 3529 
Q 2884 3475 3122 3366 
z
" transform="scale(0.015625)"/>
       <path id="DejaVuSans-79" d="M 2059 -325 
Q 1816 -950 1584 -1140 
Q 1353 -1331 966 -1331 
L 506 -1331 
L 506 -850 
L 844 -850 
Q 1081 -850 1212 -737 
Q 1344 -625 1503 -206 
L 1606 56 
L 191 3500 
L 800 3500 
L 1894 763 
L 2988 3500 
L 3597 3500 
L 2059 -325 
z
" transform="scale(0.015625)"/>
       <path id="DejaVuSans-20" transform="scale(0.015625)"/>
       <path id="DejaVuSans-76" d="M 191 3500 
L 800 3500 
L 1894 563 
L 2988 3500 
L 3597 3500 
L 2284 0 
L 1503 0 
L 191 3500 
z
" transform="scale(0.015625)"/>
       <path id="DejaVuSans-61" d="M 2194 1759 
Q 1497 1759 1228 1600 
Q 959 1441 959 1056 
Q 959 750 1161 570 
Q 1363 391 1709 391 
Q 2188 391 2477 730 
Q 2766 1069 2766 1631 
L 2766 1759 
L 2194 1759 
z
M 3341 1997 
L 3341 0 
L 2766 0 
L 2766 531 
Q 2569 213 2275 61 
Q 1981 -91 1556 -91 
Q 1019 -91 701 211 
Q 384 513 384 1019 
Q 384 1609 779 1909 
Q 1175 2209 1959 2209 
L 2766 2209 
L 2766 2266 
Q 2766 2663 2505 2880 
Q 2244 3097 1772 3097 
Q 1472 3097 1187 3025 
Q 903 2953 641 2809 
L 641 3341 
Q 956 3463 1253 3523 
Q 1550 3584 1831 3584 
Q 2591 3584 2966 3190 
Q 3341 2797 3341 1997 
z
" transform="scale(0.015625)"/>
       <path id="DejaVuSans-75" d="M 544 1381 
L 544 3500 
L 1119 3500 
L 1119 1403 
Q 1119 906 1312 657 
Q 1506 409 1894 409 
Q 2359 409 2629 706 
Q 2900 1003 2900 1516 
L 2900 3500 
L 3475 3500 
L 3475 0 
L 2900 0 
L 2900 538 
Q 2691 219 2414 64 
Q 2138 -91 1772 -91 
Q 1169 -91 856 284 
Q 544 659 544 1381 
z
M 1991 3584 
L 1991 3584 
z
" transform="scale(0.015625)"/>
       <path id="DejaVuSans-72" d="M 2631 2963 
Q 2534 3019 2420 3045 
Q 2306 3072 2169 3072 
Q 1681 3072 1420 2755 
Q 1159 2438 1159 1844 
L 1159 0 
L 581 0 
L 581 3500 
L 1159 3500 
L 1159 2956 
Q 1341 3275 1631 3429 
Q 1922 3584 2338 3584 
Q 2397 3584 2469 3576 
Q 2541 3569 2628 3553 
L 2631 2963 
z
" transform="scale(0.015625)"/>
      </defs>
      <use xlink:href="#DejaVuSans-50"/>
      <use xlink:href="#DejaVuSans-6f" x="56.677734"/>
      <use xlink:href="#DejaVuSans-6c" x="117.859375"/>
      <use xlink:href="#DejaVuSans-69" x="145.642578"/>
      <use xlink:href="#DejaVuSans-63" x="173.425781"/>
      <use xlink:href="#DejaVuSans-79" x="228.40625"/>
      <use xlink:href="#DejaVuSans-20" x="287.585938"/>
      <use xlink:href="#DejaVuSans-76" x="319.373047"/>
      <use xlink:href="#DejaVuSans-61" x="378.552734"/>
      <use xlink:href="#DejaVuSans-6c" x="439.832031"/>
      <use xlink:href="#DejaVuSans-75" x="467.615234"/>
      <use xlink:href="#DejaVuSans-65" x="530.994141"/>
      <use xlink:href="#DejaVuSans-20" x="592.517578"/>
      <use xlink:href="#DejaVuSans-65" x="624.304688"/>
      <use xlink:href="#DejaVuSans-72" x="685.828125"/>
      <use xlink:href="#DejaVuSans-72" x="725.191406"/>
      <use xlink:href="#DejaVuSans-6f" x="764.054688"/>
      <use xlink:href="#DejaVuSans-72" x="825.236328"/>
     </g>
    </g>
   </g>
   <g id="line2d_29">
    <path d="M 69.218182 252.908818 
L 74.376888 253.320329 
L 79.535593 253.979111 
L 84.694299 263.987763 
L 89.853005 253.309205 
L 95.01171 253.945011 
L 100.170416 255.257348 
L 105.329122 133.665993 
L 110.487827 133.665993 
L 115.646533 137.818509 
L 120.805239 128.074711 
L 125.963945 127.112417 
L 131.12265 133.609359 
L 136.281356 133.609359 
L 141.440062 171.267934 
L 146.598767 166.231197 
L 151.757473 151.454872 
L 156.916179 152.97328 
L 162.074884 138.082756 
L 167.23359 127.744299 
L 172.392296 127.744299 
L 177.551002 127.744299 
L 182.709707 127.610956 
L 187.868413 127.610956 
L 193.027119 127.610956 
L 198.185824 127.610956 
L 203.34453 127.610956 
L 208.503236 127.610956 
L 213.661941 127.610956 
L 218.820647 127.610956 
L 223.979353 127.610956 
L 229.138059 125.504243 
L 234.296764 124.711643 
L 239.45547 124.653768 
L 244.614176 124.711643 
L 249.772881 125.448435 
L 254.931587 125.448435 
L 260.090293 125.448435 
L 265.248998 124.711643 
L 270.407704 124.653768 
L 275.56641 124.711643 
L 280.725116 124.653768 
L 285.883821 124.653768 
L 291.042527 124.653768 
L 296.201233 124.653768 
L 301.359938 125.448435 
L 306.518644 125.448435 
L 311.67735 125.448435 
L 316.836055 124.653768 
L 321.994761 124.653768 
L 327.153467 124.653768 
L 332.312173 124.653768 
L 337.470878 124.653768 
L 342.629584 124.653768 
L 347.78829 124.653768 
L 352.946995 124.653768 
L 358.105701 124.653768 
L 363.264407 124.653768 
L 368.423112 125.448435 
L 373.581818 125.448435 
" clip-path="url(#p51d06444c2)" style="fill: none; stroke: #9d02d7; stroke-width: 1.5; stroke-linecap: square"/>
    <defs>
     <path id="me72d4e3f5a" d="M 0 -2 
L -2 2 
L 2 2 
z
" style="stroke: #9d02d7; stroke-linejoin: miter"/>
    </defs>
    <g clip-path="url(#p51d06444c2)">
     <use xlink:href="#me72d4e3f5a" x="69.218182" y="252.908818" style="fill: #9d02d7; stroke: #9d02d7; stroke-linejoin: miter"/>
     <use xlink:href="#me72d4e3f5a" x="74.376888" y="253.320329" style="fill: #9d02d7; stroke: #9d02d7; stroke-linejoin: miter"/>
     <use xlink:href="#me72d4e3f5a" x="79.535593" y="253.979111" style="fill: #9d02d7; stroke: #9d02d7; stroke-linejoin: miter"/>
     <use xlink:href="#me72d4e3f5a" x="84.694299" y="263.987763" style="fill: #9d02d7; stroke: #9d02d7; stroke-linejoin: miter"/>
     <use xlink:href="#me72d4e3f5a" x="89.853005" y="253.309205" style="fill: #9d02d7; stroke: #9d02d7; stroke-linejoin: miter"/>
     <use xlink:href="#me72d4e3f5a" x="95.01171" y="253.945011" style="fill: #9d02d7; stroke: #9d02d7; stroke-linejoin: miter"/>
     <use xlink:href="#me72d4e3f5a" x="100.170416" y="255.257348" style="fill: #9d02d7; stroke: #9d02d7; stroke-linejoin: miter"/>
     <use xlink:href="#me72d4e3f5a" x="105.329122" y="133.665993" style="fill: #9d02d7; stroke: #9d02d7; stroke-linejoin: miter"/>
     <use xlink:href="#me72d4e3f5a" x="110.487827" y="133.665993" style="fill: #9d02d7; stroke: #9d02d7; stroke-linejoin: miter"/>
     <use xlink:href="#me72d4e3f5a" x="115.646533" y="137.818509" style="fill: #9d02d7; stroke: #9d02d7; stroke-linejoin: miter"/>
     <use xlink:href="#me72d4e3f5a" x="120.805239" y="128.074711" style="fill: #9d02d7; stroke: #9d02d7; stroke-linejoin: miter"/>
     <use xlink:href="#me72d4e3f5a" x="125.963945" y="127.112417" style="fill: #9d02d7; stroke: #9d02d7; stroke-linejoin: miter"/>
     <use xlink:href="#me72d4e3f5a" x="131.12265" y="133.609359" style="fill: #9d02d7; stroke: #9d02d7; stroke-linejoin: miter"/>
     <use xlink:href="#me72d4e3f5a" x="136.281356" y="133.609359" style="fill: #9d02d7; stroke: #9d02d7; stroke-linejoin: miter"/>
     <use xlink:href="#me72d4e3f5a" x="141.440062" y="171.267934" style="fill: #9d02d7; stroke: #9d02d7; stroke-linejoin: miter"/>
     <use xlink:href="#me72d4e3f5a" x="146.598767" y="166.231197" style="fill: #9d02d7; stroke: #9d02d7; stroke-linejoin: miter"/>
     <use xlink:href="#me72d4e3f5a" x="151.757473" y="151.454872" style="fill: #9d02d7; stroke: #9d02d7; stroke-linejoin: miter"/>
     <use xlink:href="#me72d4e3f5a" x="156.916179" y="152.97328" style="fill: #9d02d7; stroke: #9d02d7; stroke-linejoin: miter"/>
     <use xlink:href="#me72d4e3f5a" x="162.074884" y="138.082756" style="fill: #9d02d7; stroke: #9d02d7; stroke-linejoin: miter"/>
     <use xlink:href="#me72d4e3f5a" x="167.23359" y="127.744299" style="fill: #9d02d7; stroke: #9d02d7; stroke-linejoin: miter"/>
     <use xlink:href="#me72d4e3f5a" x="172.392296" y="127.744299" style="fill: #9d02d7; stroke: #9d02d7; stroke-linejoin: miter"/>
     <use xlink:href="#me72d4e3f5a" x="177.551002" y="127.744299" style="fill: #9d02d7; stroke: #9d02d7; stroke-linejoin: miter"/>
     <use xlink:href="#me72d4e3f5a" x="182.709707" y="127.610956" style="fill: #9d02d7; stroke: #9d02d7; stroke-linejoin: miter"/>
     <use xlink:href="#me72d4e3f5a" x="187.868413" y="127.610956" style="fill: #9d02d7; stroke: #9d02d7; stroke-linejoin: miter"/>
     <use xlink:href="#me72d4e3f5a" x="193.027119" y="127.610956" style="fill: #9d02d7; stroke: #9d02d7; stroke-linejoin: miter"/>
     <use xlink:href="#me72d4e3f5a" x="198.185824" y="127.610956" style="fill: #9d02d7; stroke: #9d02d7; stroke-linejoin: miter"/>
     <use xlink:href="#me72d4e3f5a" x="203.34453" y="127.610956" style="fill: #9d02d7; stroke: #9d02d7; stroke-linejoin: miter"/>
     <use xlink:href="#me72d4e3f5a" x="208.503236" y="127.610956" style="fill: #9d02d7; stroke: #9d02d7; stroke-linejoin: miter"/>
     <use xlink:href="#me72d4e3f5a" x="213.661941" y="127.610956" style="fill: #9d02d7; stroke: #9d02d7; stroke-linejoin: miter"/>
     <use xlink:href="#me72d4e3f5a" x="218.820647" y="127.610956" style="fill: #9d02d7; stroke: #9d02d7; stroke-linejoin: miter"/>
     <use xlink:href="#me72d4e3f5a" x="223.979353" y="127.610956" style="fill: #9d02d7; stroke: #9d02d7; stroke-linejoin: miter"/>
     <use xlink:href="#me72d4e3f5a" x="229.138059" y="125.504243" style="fill: #9d02d7; stroke: #9d02d7; stroke-linejoin: miter"/>
     <use xlink:href="#me72d4e3f5a" x="234.296764" y="124.711643" style="fill: #9d02d7; stroke: #9d02d7; stroke-linejoin: miter"/>
     <use xlink:href="#me72d4e3f5a" x="239.45547" y="124.653768" style="fill: #9d02d7; stroke: #9d02d7; stroke-linejoin: miter"/>
     <use xlink:href="#me72d4e3f5a" x="244.614176" y="124.711643" style="fill: #9d02d7; stroke: #9d02d7; stroke-linejoin: miter"/>
     <use xlink:href="#me72d4e3f5a" x="249.772881" y="125.448435" style="fill: #9d02d7; stroke: #9d02d7; stroke-linejoin: miter"/>
     <use xlink:href="#me72d4e3f5a" x="254.931587" y="125.448435" style="fill: #9d02d7; stroke: #9d02d7; stroke-linejoin: miter"/>
     <use xlink:href="#me72d4e3f5a" x="260.090293" y="125.448435" style="fill: #9d02d7; stroke: #9d02d7; stroke-linejoin: miter"/>
     <use xlink:href="#me72d4e3f5a" x="265.248998" y="124.711643" style="fill: #9d02d7; stroke: #9d02d7; stroke-linejoin: miter"/>
     <use xlink:href="#me72d4e3f5a" x="270.407704" y="124.653768" style="fill: #9d02d7; stroke: #9d02d7; stroke-linejoin: miter"/>
     <use xlink:href="#me72d4e3f5a" x="275.56641" y="124.711643" style="fill: #9d02d7; stroke: #9d02d7; stroke-linejoin: miter"/>
     <use xlink:href="#me72d4e3f5a" x="280.725116" y="124.653768" style="fill: #9d02d7; stroke: #9d02d7; stroke-linejoin: miter"/>
     <use xlink:href="#me72d4e3f5a" x="285.883821" y="124.653768" style="fill: #9d02d7; stroke: #9d02d7; stroke-linejoin: miter"/>
     <use xlink:href="#me72d4e3f5a" x="291.042527" y="124.653768" style="fill: #9d02d7; stroke: #9d02d7; stroke-linejoin: miter"/>
     <use xlink:href="#me72d4e3f5a" x="296.201233" y="124.653768" style="fill: #9d02d7; stroke: #9d02d7; stroke-linejoin: miter"/>
     <use xlink:href="#me72d4e3f5a" x="301.359938" y="125.448435" style="fill: #9d02d7; stroke: #9d02d7; stroke-linejoin: miter"/>
     <use xlink:href="#me72d4e3f5a" x="306.518644" y="125.448435" style="fill: #9d02d7; stroke: #9d02d7; stroke-linejoin: miter"/>
     <use xlink:href="#me72d4e3f5a" x="311.67735" y="125.448435" style="fill: #9d02d7; stroke: #9d02d7; stroke-linejoin: miter"/>
     <use xlink:href="#me72d4e3f5a" x="316.836055" y="124.653768" style="fill: #9d02d7; stroke: #9d02d7; stroke-linejoin: miter"/>
     <use xlink:href="#me72d4e3f5a" x="321.994761" y="124.653768" style="fill: #9d02d7; stroke: #9d02d7; stroke-linejoin: miter"/>
     <use xlink:href="#me72d4e3f5a" x="327.153467" y="124.653768" style="fill: #9d02d7; stroke: #9d02d7; stroke-linejoin: miter"/>
     <use xlink:href="#me72d4e3f5a" x="332.312173" y="124.653768" style="fill: #9d02d7; stroke: #9d02d7; stroke-linejoin: miter"/>
     <use xlink:href="#me72d4e3f5a" x="337.470878" y="124.653768" style="fill: #9d02d7; stroke: #9d02d7; stroke-linejoin: miter"/>
     <use xlink:href="#me72d4e3f5a" x="342.629584" y="124.653768" style="fill: #9d02d7; stroke: #9d02d7; stroke-linejoin: miter"/>
     <use xlink:href="#me72d4e3f5a" x="347.78829" y="124.653768" style="fill: #9d02d7; stroke: #9d02d7; stroke-linejoin: miter"/>
     <use xlink:href="#me72d4e3f5a" x="352.946995" y="124.653768" style="fill: #9d02d7; stroke: #9d02d7; stroke-linejoin: miter"/>
     <use xlink:href="#me72d4e3f5a" x="358.105701" y="124.653768" style="fill: #9d02d7; stroke: #9d02d7; stroke-linejoin: miter"/>
     <use xlink:href="#me72d4e3f5a" x="363.264407" y="124.653768" style="fill: #9d02d7; stroke: #9d02d7; stroke-linejoin: miter"/>
     <use xlink:href="#me72d4e3f5a" x="368.423112" y="125.448435" style="fill: #9d02d7; stroke: #9d02d7; stroke-linejoin: miter"/>
     <use xlink:href="#me72d4e3f5a" x="373.581818" y="125.448435" style="fill: #9d02d7; stroke: #9d02d7; stroke-linejoin: miter"/>
    </g>
   </g>
   <g id="line2d_30">
    <path d="M 69.218182 252.883499 
L 74.376888 255.791062 
L 79.535593 256.313099 
L 84.694299 241.867043 
L 89.853005 168.394152 
L 95.01171 54.021105 
L 100.170416 106.39641 
L 105.329122 55.326729 
L 110.487827 85.566466 
L 115.646533 65.70124 
L 120.805239 96.29501 
L 125.963945 64.968101 
L 131.12265 63.833893 
L 136.281356 64.968101 
L 141.440062 64.968101 
L 146.598767 65.153746 
L 151.757473 77.353214 
L 156.916179 65.263724 
L 162.074884 65.263724 
L 167.23359 68.097963 
L 172.392296 65.263724 
L 177.551002 65.263724 
L 182.709707 67.650705 
L 187.868413 65.263724 
L 193.027119 65.263724 
L 198.185824 59.444115 
L 203.34453 63.842262 
L 208.503236 58.559761 
L 213.661941 50.024537 
L 218.820647 50.024537 
L 223.979353 50.829352 
L 229.138059 56.389235 
L 234.296764 59.496319 
L 239.45547 56.850337 
L 244.614176 55.979453 
L 249.772881 51.080567 
L 254.931587 50.069024 
L 260.090293 50.076389 
L 265.248998 50.076389 
L 270.407704 50.076389 
L 275.56641 50.069024 
L 280.725116 59.150325 
L 285.883821 50.478771 
L 291.042527 50.478771 
L 296.201233 50.478771 
L 301.359938 50.069024 
L 306.518644 51.080567 
L 311.67735 50.069024 
L 316.836055 50.069024 
L 321.994761 50.069024 
L 327.153467 50.069024 
L 332.312173 50.069024 
L 337.470878 50.024537 
L 342.629584 50.069024 
L 347.78829 50.069024 
L 352.946995 55.979453 
L 358.105701 56.149075 
L 363.264407 56.149075 
L 368.423112 58.559761 
L 373.581818 59.095936 
" clip-path="url(#p51d06444c2)" style="fill: none; stroke: #0000ff; stroke-width: 1.5; stroke-linecap: square"/>
    <defs>
     <path id="m12f795da71" d="M 0 2 
C 0.530406 2 1.03916 1.789267 1.414214 1.414214 
C 1.789267 1.03916 2 0.530406 2 0 
C 2 -0.530406 1.789267 -1.03916 1.414214 -1.414214 
C 1.03916 -1.789267 0.530406 -2 0 -2 
C -0.530406 -2 -1.03916 -1.789267 -1.414214 -1.414214 
C -1.789267 -1.03916 -2 -0.530406 -2 0 
C -2 0.530406 -1.789267 1.03916 -1.414214 1.414214 
C -1.03916 1.789267 -0.530406 2 0 2 
z
" style="stroke: #0000ff"/>
    </defs>
    <g clip-path="url(#p51d06444c2)">
     <use xlink:href="#m12f795da71" x="69.218182" y="252.883499" style="fill: #0000ff; stroke: #0000ff"/>
     <use xlink:href="#m12f795da71" x="74.376888" y="255.791062" style="fill: #0000ff; stroke: #0000ff"/>
     <use xlink:href="#m12f795da71" x="79.535593" y="256.313099" style="fill: #0000ff; stroke: #0000ff"/>
     <use xlink:href="#m12f795da71" x="84.694299" y="241.867043" style="fill: #0000ff; stroke: #0000ff"/>
     <use xlink:href="#m12f795da71" x="89.853005" y="168.394152" style="fill: #0000ff; stroke: #0000ff"/>
     <use xlink:href="#m12f795da71" x="95.01171" y="54.021105" style="fill: #0000ff; stroke: #0000ff"/>
     <use xlink:href="#m12f795da71" x="100.170416" y="106.39641" style="fill: #0000ff; stroke: #0000ff"/>
     <use xlink:href="#m12f795da71" x="105.329122" y="55.326729" style="fill: #0000ff; stroke: #0000ff"/>
     <use xlink:href="#m12f795da71" x="110.487827" y="85.566466" style="fill: #0000ff; stroke: #0000ff"/>
     <use xlink:href="#m12f795da71" x="115.646533" y="65.70124" style="fill: #0000ff; stroke: #0000ff"/>
     <use xlink:href="#m12f795da71" x="120.805239" y="96.29501" style="fill: #0000ff; stroke: #0000ff"/>
     <use xlink:href="#m12f795da71" x="125.963945" y="64.968101" style="fill: #0000ff; stroke: #0000ff"/>
     <use xlink:href="#m12f795da71" x="131.12265" y="63.833893" style="fill: #0000ff; stroke: #0000ff"/>
     <use xlink:href="#m12f795da71" x="136.281356" y="64.968101" style="fill: #0000ff; stroke: #0000ff"/>
     <use xlink:href="#m12f795da71" x="141.440062" y="64.968101" style="fill: #0000ff; stroke: #0000ff"/>
     <use xlink:href="#m12f795da71" x="146.598767" y="65.153746" style="fill: #0000ff; stroke: #0000ff"/>
     <use xlink:href="#m12f795da71" x="151.757473" y="77.353214" style="fill: #0000ff; stroke: #0000ff"/>
     <use xlink:href="#m12f795da71" x="156.916179" y="65.263724" style="fill: #0000ff; stroke: #0000ff"/>
     <use xlink:href="#m12f795da71" x="162.074884" y="65.263724" style="fill: #0000ff; stroke: #0000ff"/>
     <use xlink:href="#m12f795da71" x="167.23359" y="68.097963" style="fill: #0000ff; stroke: #0000ff"/>
     <use xlink:href="#m12f795da71" x="172.392296" y="65.263724" style="fill: #0000ff; stroke: #0000ff"/>
     <use xlink:href="#m12f795da71" x="177.551002" y="65.263724" style="fill: #0000ff; stroke: #0000ff"/>
     <use xlink:href="#m12f795da71" x="182.709707" y="67.650705" style="fill: #0000ff; stroke: #0000ff"/>
     <use xlink:href="#m12f795da71" x="187.868413" y="65.263724" style="fill: #0000ff; stroke: #0000ff"/>
     <use xlink:href="#m12f795da71" x="193.027119" y="65.263724" style="fill: #0000ff; stroke: #0000ff"/>
     <use xlink:href="#m12f795da71" x="198.185824" y="59.444115" style="fill: #0000ff; stroke: #0000ff"/>
     <use xlink:href="#m12f795da71" x="203.34453" y="63.842262" style="fill: #0000ff; stroke: #0000ff"/>
     <use xlink:href="#m12f795da71" x="208.503236" y="58.559761" style="fill: #0000ff; stroke: #0000ff"/>
     <use xlink:href="#m12f795da71" x="213.661941" y="50.024537" style="fill: #0000ff; stroke: #0000ff"/>
     <use xlink:href="#m12f795da71" x="218.820647" y="50.024537" style="fill: #0000ff; stroke: #0000ff"/>
     <use xlink:href="#m12f795da71" x="223.979353" y="50.829352" style="fill: #0000ff; stroke: #0000ff"/>
     <use xlink:href="#m12f795da71" x="229.138059" y="56.389235" style="fill: #0000ff; stroke: #0000ff"/>
     <use xlink:href="#m12f795da71" x="234.296764" y="59.496319" style="fill: #0000ff; stroke: #0000ff"/>
     <use xlink:href="#m12f795da71" x="239.45547" y="56.850337" style="fill: #0000ff; stroke: #0000ff"/>
     <use xlink:href="#m12f795da71" x="244.614176" y="55.979453" style="fill: #0000ff; stroke: #0000ff"/>
     <use xlink:href="#m12f795da71" x="249.772881" y="51.080567" style="fill: #0000ff; stroke: #0000ff"/>
     <use xlink:href="#m12f795da71" x="254.931587" y="50.069024" style="fill: #0000ff; stroke: #0000ff"/>
     <use xlink:href="#m12f795da71" x="260.090293" y="50.076389" style="fill: #0000ff; stroke: #0000ff"/>
     <use xlink:href="#m12f795da71" x="265.248998" y="50.076389" style="fill: #0000ff; stroke: #0000ff"/>
     <use xlink:href="#m12f795da71" x="270.407704" y="50.076389" style="fill: #0000ff; stroke: #0000ff"/>
     <use xlink:href="#m12f795da71" x="275.56641" y="50.069024" style="fill: #0000ff; stroke: #0000ff"/>
     <use xlink:href="#m12f795da71" x="280.725116" y="59.150325" style="fill: #0000ff; stroke: #0000ff"/>
     <use xlink:href="#m12f795da71" x="285.883821" y="50.478771" style="fill: #0000ff; stroke: #0000ff"/>
     <use xlink:href="#m12f795da71" x="291.042527" y="50.478771" style="fill: #0000ff; stroke: #0000ff"/>
     <use xlink:href="#m12f795da71" x="296.201233" y="50.478771" style="fill: #0000ff; stroke: #0000ff"/>
     <use xlink:href="#m12f795da71" x="301.359938" y="50.069024" style="fill: #0000ff; stroke: #0000ff"/>
     <use xlink:href="#m12f795da71" x="306.518644" y="51.080567" style="fill: #0000ff; stroke: #0000ff"/>
     <use xlink:href="#m12f795da71" x="311.67735" y="50.069024" style="fill: #0000ff; stroke: #0000ff"/>
     <use xlink:href="#m12f795da71" x="316.836055" y="50.069024" style="fill: #0000ff; stroke: #0000ff"/>
     <use xlink:href="#m12f795da71" x="321.994761" y="50.069024" style="fill: #0000ff; stroke: #0000ff"/>
     <use xlink:href="#m12f795da71" x="327.153467" y="50.069024" style="fill: #0000ff; stroke: #0000ff"/>
     <use xlink:href="#m12f795da71" x="332.312173" y="50.069024" style="fill: #0000ff; stroke: #0000ff"/>
     <use xlink:href="#m12f795da71" x="337.470878" y="50.024537" style="fill: #0000ff; stroke: #0000ff"/>
     <use xlink:href="#m12f795da71" x="342.629584" y="50.069024" style="fill: #0000ff; stroke: #0000ff"/>
     <use xlink:href="#m12f795da71" x="347.78829" y="50.069024" style="fill: #0000ff; stroke: #0000ff"/>
     <use xlink:href="#m12f795da71" x="352.946995" y="55.979453" style="fill: #0000ff; stroke: #0000ff"/>
     <use xlink:href="#m12f795da71" x="358.105701" y="56.149075" style="fill: #0000ff; stroke: #0000ff"/>
     <use xlink:href="#m12f795da71" x="363.264407" y="56.149075" style="fill: #0000ff; stroke: #0000ff"/>
     <use xlink:href="#m12f795da71" x="368.423112" y="58.559761" style="fill: #0000ff; stroke: #0000ff"/>
     <use xlink:href="#m12f795da71" x="373.581818" y="59.095936" style="fill: #0000ff; stroke: #0000ff"/>
    </g>
   </g>
   <g id="line2d_31">
    <path d="M 69.218182 252.908818 
L 74.376888 264.635643 
L 79.535593 259.564079 
L 84.694299 255.257778 
L 89.853005 247.522449 
L 95.01171 98.406348 
L 100.170416 149.683798 
L 105.329122 146.139231 
L 110.487827 204.821634 
L 115.646533 226.254304 
L 120.805239 82.002126 
L 125.963945 88.433177 
L 131.12265 102.982717 
L 136.281356 146.077614 
L 141.440062 85.721788 
L 146.598767 112.027248 
L 151.757473 75.308391 
L 156.916179 61.692153 
L 162.074884 73.677915 
L 167.23359 60.323733 
L 172.392296 59.308128 
L 177.551002 60.774144 
L 182.709707 56.346065 
L 187.868413 55.655967 
L 193.027119 60.056755 
L 198.185824 55.913149 
L 203.34453 53.28694 
L 208.503236 54.090872 
L 213.661941 51.679793 
L 218.820647 68.257156 
L 223.979353 56.596298 
L 229.138059 56.596298 
L 234.296764 52.179327 
L 239.45547 52.824241 
L 244.614176 52.028083 
L 249.772881 61.680745 
L 254.931587 76.914069 
L 260.090293 65.829862 
L 265.248998 52.824241 
L 270.407704 51.679793 
L 275.56641 51.634615 
L 280.725116 51.679793 
L 285.883821 51.679793 
L 291.042527 51.679793 
L 296.201233 51.634615 
L 301.359938 51.634615 
L 306.518644 51.679793 
L 311.67735 53.568404 
L 316.836055 53.568404 
L 321.994761 56.596298 
L 327.153467 56.596298 
L 332.312173 56.596298 
L 337.470878 56.596298 
L 342.629584 51.961084 
L 347.78829 51.961084 
L 352.946995 52.75018 
L 358.105701 51.634615 
L 363.264407 51.634615 
L 368.423112 51.634615 
L 373.581818 51.961084 
" clip-path="url(#p51d06444c2)" style="fill: none; stroke: #ff7763; stroke-width: 1.5; stroke-linecap: square"/>
    <defs>
     <path id="mbf3e91ab27" d="M -2 2 
L 2 -2 
M -2 -2 
L 2 2 
" style="stroke: #ff7763"/>
    </defs>
    <g clip-path="url(#p51d06444c2)">
     <use xlink:href="#mbf3e91ab27" x="69.218182" y="252.908818" style="fill: #ff7763; stroke: #ff7763"/>
     <use xlink:href="#mbf3e91ab27" x="74.376888" y="264.635643" style="fill: #ff7763; stroke: #ff7763"/>
     <use xlink:href="#mbf3e91ab27" x="79.535593" y="259.564079" style="fill: #ff7763; stroke: #ff7763"/>
     <use xlink:href="#mbf3e91ab27" x="84.694299" y="255.257778" style="fill: #ff7763; stroke: #ff7763"/>
     <use xlink:href="#mbf3e91ab27" x="89.853005" y="247.522449" style="fill: #ff7763; stroke: #ff7763"/>
     <use xlink:href="#mbf3e91ab27" x="95.01171" y="98.406348" style="fill: #ff7763; stroke: #ff7763"/>
     <use xlink:href="#mbf3e91ab27" x="100.170416" y="149.683798" style="fill: #ff7763; stroke: #ff7763"/>
     <use xlink:href="#mbf3e91ab27" x="105.329122" y="146.139231" style="fill: #ff7763; stroke: #ff7763"/>
     <use xlink:href="#mbf3e91ab27" x="110.487827" y="204.821634" style="fill: #ff7763; stroke: #ff7763"/>
     <use xlink:href="#mbf3e91ab27" x="115.646533" y="226.254304" style="fill: #ff7763; stroke: #ff7763"/>
     <use xlink:href="#mbf3e91ab27" x="120.805239" y="82.002126" style="fill: #ff7763; stroke: #ff7763"/>
     <use xlink:href="#mbf3e91ab27" x="125.963945" y="88.433177" style="fill: #ff7763; stroke: #ff7763"/>
     <use xlink:href="#mbf3e91ab27" x="131.12265" y="102.982717" style="fill: #ff7763; stroke: #ff7763"/>
     <use xlink:href="#mbf3e91ab27" x="136.281356" y="146.077614" style="fill: #ff7763; stroke: #ff7763"/>
     <use xlink:href="#mbf3e91ab27" x="141.440062" y="85.721788" style="fill: #ff7763; stroke: #ff7763"/>
     <use xlink:href="#mbf3e91ab27" x="146.598767" y="112.027248" style="fill: #ff7763; stroke: #ff7763"/>
     <use xlink:href="#mbf3e91ab27" x="151.757473" y="75.308391" style="fill: #ff7763; stroke: #ff7763"/>
     <use xlink:href="#mbf3e91ab27" x="156.916179" y="61.692153" style="fill: #ff7763; stroke: #ff7763"/>
     <use xlink:href="#mbf3e91ab27" x="162.074884" y="73.677915" style="fill: #ff7763; stroke: #ff7763"/>
     <use xlink:href="#mbf3e91ab27" x="167.23359" y="60.323733" style="fill: #ff7763; stroke: #ff7763"/>
     <use xlink:href="#mbf3e91ab27" x="172.392296" y="59.308128" style="fill: #ff7763; stroke: #ff7763"/>
     <use xlink:href="#mbf3e91ab27" x="177.551002" y="60.774144" style="fill: #ff7763; stroke: #ff7763"/>
     <use xlink:href="#mbf3e91ab27" x="182.709707" y="56.346065" style="fill: #ff7763; stroke: #ff7763"/>
     <use xlink:href="#mbf3e91ab27" x="187.868413" y="55.655967" style="fill: #ff7763; stroke: #ff7763"/>
     <use xlink:href="#mbf3e91ab27" x="193.027119" y="60.056755" style="fill: #ff7763; stroke: #ff7763"/>
     <use xlink:href="#mbf3e91ab27" x="198.185824" y="55.913149" style="fill: #ff7763; stroke: #ff7763"/>
     <use xlink:href="#mbf3e91ab27" x="203.34453" y="53.28694" style="fill: #ff7763; stroke: #ff7763"/>
     <use xlink:href="#mbf3e91ab27" x="208.503236" y="54.090872" style="fill: #ff7763; stroke: #ff7763"/>
     <use xlink:href="#mbf3e91ab27" x="213.661941" y="51.679793" style="fill: #ff7763; stroke: #ff7763"/>
     <use xlink:href="#mbf3e91ab27" x="218.820647" y="68.257156" style="fill: #ff7763; stroke: #ff7763"/>
     <use xlink:href="#mbf3e91ab27" x="223.979353" y="56.596298" style="fill: #ff7763; stroke: #ff7763"/>
     <use xlink:href="#mbf3e91ab27" x="229.138059" y="56.596298" style="fill: #ff7763; stroke: #ff7763"/>
     <use xlink:href="#mbf3e91ab27" x="234.296764" y="52.179327" style="fill: #ff7763; stroke: #ff7763"/>
     <use xlink:href="#mbf3e91ab27" x="239.45547" y="52.824241" style="fill: #ff7763; stroke: #ff7763"/>
     <use xlink:href="#mbf3e91ab27" x="244.614176" y="52.028083" style="fill: #ff7763; stroke: #ff7763"/>
     <use xlink:href="#mbf3e91ab27" x="249.772881" y="61.680745" style="fill: #ff7763; stroke: #ff7763"/>
     <use xlink:href="#mbf3e91ab27" x="254.931587" y="76.914069" style="fill: #ff7763; stroke: #ff7763"/>
     <use xlink:href="#mbf3e91ab27" x="260.090293" y="65.829862" style="fill: #ff7763; stroke: #ff7763"/>
     <use xlink:href="#mbf3e91ab27" x="265.248998" y="52.824241" style="fill: #ff7763; stroke: #ff7763"/>
     <use xlink:href="#mbf3e91ab27" x="270.407704" y="51.679793" style="fill: #ff7763; stroke: #ff7763"/>
     <use xlink:href="#mbf3e91ab27" x="275.56641" y="51.634615" style="fill: #ff7763; stroke: #ff7763"/>
     <use xlink:href="#mbf3e91ab27" x="280.725116" y="51.679793" style="fill: #ff7763; stroke: #ff7763"/>
     <use xlink:href="#mbf3e91ab27" x="285.883821" y="51.679793" style="fill: #ff7763; stroke: #ff7763"/>
     <use xlink:href="#mbf3e91ab27" x="291.042527" y="51.679793" style="fill: #ff7763; stroke: #ff7763"/>
     <use xlink:href="#mbf3e91ab27" x="296.201233" y="51.634615" style="fill: #ff7763; stroke: #ff7763"/>
     <use xlink:href="#mbf3e91ab27" x="301.359938" y="51.634615" style="fill: #ff7763; stroke: #ff7763"/>
     <use xlink:href="#mbf3e91ab27" x="306.518644" y="51.679793" style="fill: #ff7763; stroke: #ff7763"/>
     <use xlink:href="#mbf3e91ab27" x="311.67735" y="53.568404" style="fill: #ff7763; stroke: #ff7763"/>
     <use xlink:href="#mbf3e91ab27" x="316.836055" y="53.568404" style="fill: #ff7763; stroke: #ff7763"/>
     <use xlink:href="#mbf3e91ab27" x="321.994761" y="56.596298" style="fill: #ff7763; stroke: #ff7763"/>
     <use xlink:href="#mbf3e91ab27" x="327.153467" y="56.596298" style="fill: #ff7763; stroke: #ff7763"/>
     <use xlink:href="#mbf3e91ab27" x="332.312173" y="56.596298" style="fill: #ff7763; stroke: #ff7763"/>
     <use xlink:href="#mbf3e91ab27" x="337.470878" y="56.596298" style="fill: #ff7763; stroke: #ff7763"/>
     <use xlink:href="#mbf3e91ab27" x="342.629584" y="51.961084" style="fill: #ff7763; stroke: #ff7763"/>
     <use xlink:href="#mbf3e91ab27" x="347.78829" y="51.961084" style="fill: #ff7763; stroke: #ff7763"/>
     <use xlink:href="#mbf3e91ab27" x="352.946995" y="52.75018" style="fill: #ff7763; stroke: #ff7763"/>
     <use xlink:href="#mbf3e91ab27" x="358.105701" y="51.634615" style="fill: #ff7763; stroke: #ff7763"/>
     <use xlink:href="#mbf3e91ab27" x="363.264407" y="51.634615" style="fill: #ff7763; stroke: #ff7763"/>
     <use xlink:href="#mbf3e91ab27" x="368.423112" y="51.634615" style="fill: #ff7763; stroke: #ff7763"/>
     <use xlink:href="#mbf3e91ab27" x="373.581818" y="51.961084" style="fill: #ff7763; stroke: #ff7763"/>
    </g>
   </g>
   <g id="line2d_32">
    <path d="M 69.218182 253.631334 
L 74.376888 257.85117 
L 79.535593 254.777385 
L 84.694299 229.512537 
L 89.853005 255.713548 
L 95.01171 255.600559 
L 100.170416 262.314647 
L 105.329122 199.93882 
L 110.487827 182.453082 
L 115.646533 254.134552 
L 120.805239 253.090621 
L 125.963945 239.756021 
L 131.12265 187.075289 
L 136.281356 123.984998 
L 141.440062 130.456182 
L 146.598767 162.300415 
L 151.757473 61.892542 
L 156.916179 112.480404 
L 162.074884 85.242698 
L 167.23359 85.144676 
L 172.392296 90.693997 
L 177.551002 85.221956 
L 182.709707 57.263371 
L 187.868413 57.263371 
L 193.027119 57.263371 
L 198.185824 212.446891 
L 203.34453 95.069974 
L 208.503236 52.843494 
L 213.661941 66.550054 
L 218.820647 66.550054 
L 223.979353 56.96939 
L 229.138059 72.112979 
L 234.296764 94.085615 
L 239.45547 210.402165 
L 244.614176 48.873543 
L 249.772881 48.214442 
L 254.931587 48.349665 
L 260.090293 45.043519 
L 265.248998 49.815808 
L 270.407704 49.32118 
L 275.56641 48.746191 
L 280.725116 48.746191 
L 285.883821 45.815922 
L 291.042527 45.211539 
L 296.201233 48.21314 
L 301.359938 48.21331 
L 306.518644 44.280879 
L 311.67735 45.646036 
L 316.836055 56.492714 
L 321.994761 45.645694 
L 327.153467 53.237402 
L 332.312173 53.237402 
L 337.470878 45.645694 
L 342.629584 45.645694 
L 347.78829 45.645694 
L 352.946995 45.645694 
L 358.105701 45.645694 
L 363.264407 45.645694 
L 368.423112 123.089015 
L 373.581818 53.237402 
" clip-path="url(#p51d06444c2)" style="fill: none; stroke: #ffac1e; stroke-width: 1.5; stroke-linecap: square"/>
    <defs>
     <path id="m1d5e54930d" d="M 0 -2 
L -0.449028 -0.618034 
L -1.902113 -0.618034 
L -0.726543 0.236068 
L -1.175571 1.618034 
L -0 0.763932 
L 1.175571 1.618034 
L 0.726543 0.236068 
L 1.902113 -0.618034 
L 0.449028 -0.618034 
z
" style="stroke: #ffac1e; stroke-linejoin: bevel"/>
    </defs>
    <g clip-path="url(#p51d06444c2)">
     <use xlink:href="#m1d5e54930d" x="69.218182" y="253.631334" style="fill: #ffac1e; stroke: #ffac1e; stroke-linejoin: bevel"/>
     <use xlink:href="#m1d5e54930d" x="74.376888" y="257.85117" style="fill: #ffac1e; stroke: #ffac1e; stroke-linejoin: bevel"/>
     <use xlink:href="#m1d5e54930d" x="79.535593" y="254.777385" style="fill: #ffac1e; stroke: #ffac1e; stroke-linejoin: bevel"/>
     <use xlink:href="#m1d5e54930d" x="84.694299" y="229.512537" style="fill: #ffac1e; stroke: #ffac1e; stroke-linejoin: bevel"/>
     <use xlink:href="#m1d5e54930d" x="89.853005" y="255.713548" style="fill: #ffac1e; stroke: #ffac1e; stroke-linejoin: bevel"/>
     <use xlink:href="#m1d5e54930d" x="95.01171" y="255.600559" style="fill: #ffac1e; stroke: #ffac1e; stroke-linejoin: bevel"/>
     <use xlink:href="#m1d5e54930d" x="100.170416" y="262.314647" style="fill: #ffac1e; stroke: #ffac1e; stroke-linejoin: bevel"/>
     <use xlink:href="#m1d5e54930d" x="105.329122" y="199.93882" style="fill: #ffac1e; stroke: #ffac1e; stroke-linejoin: bevel"/>
     <use xlink:href="#m1d5e54930d" x="110.487827" y="182.453082" style="fill: #ffac1e; stroke: #ffac1e; stroke-linejoin: bevel"/>
     <use xlink:href="#m1d5e54930d" x="115.646533" y="254.134552" style="fill: #ffac1e; stroke: #ffac1e; stroke-linejoin: bevel"/>
     <use xlink:href="#m1d5e54930d" x="120.805239" y="253.090621" style="fill: #ffac1e; stroke: #ffac1e; stroke-linejoin: bevel"/>
     <use xlink:href="#m1d5e54930d" x="125.963945" y="239.756021" style="fill: #ffac1e; stroke: #ffac1e; stroke-linejoin: bevel"/>
     <use xlink:href="#m1d5e54930d" x="131.12265" y="187.075289" style="fill: #ffac1e; stroke: #ffac1e; stroke-linejoin: bevel"/>
     <use xlink:href="#m1d5e54930d" x="136.281356" y="123.984998" style="fill: #ffac1e; stroke: #ffac1e; stroke-linejoin: bevel"/>
     <use xlink:href="#m1d5e54930d" x="141.440062" y="130.456182" style="fill: #ffac1e; stroke: #ffac1e; stroke-linejoin: bevel"/>
     <use xlink:href="#m1d5e54930d" x="146.598767" y="162.300415" style="fill: #ffac1e; stroke: #ffac1e; stroke-linejoin: bevel"/>
     <use xlink:href="#m1d5e54930d" x="151.757473" y="61.892542" style="fill: #ffac1e; stroke: #ffac1e; stroke-linejoin: bevel"/>
     <use xlink:href="#m1d5e54930d" x="156.916179" y="112.480404" style="fill: #ffac1e; stroke: #ffac1e; stroke-linejoin: bevel"/>
     <use xlink:href="#m1d5e54930d" x="162.074884" y="85.242698" style="fill: #ffac1e; stroke: #ffac1e; stroke-linejoin: bevel"/>
     <use xlink:href="#m1d5e54930d" x="167.23359" y="85.144676" style="fill: #ffac1e; stroke: #ffac1e; stroke-linejoin: bevel"/>
     <use xlink:href="#m1d5e54930d" x="172.392296" y="90.693997" style="fill: #ffac1e; stroke: #ffac1e; stroke-linejoin: bevel"/>
     <use xlink:href="#m1d5e54930d" x="177.551002" y="85.221956" style="fill: #ffac1e; stroke: #ffac1e; stroke-linejoin: bevel"/>
     <use xlink:href="#m1d5e54930d" x="182.709707" y="57.263371" style="fill: #ffac1e; stroke: #ffac1e; stroke-linejoin: bevel"/>
     <use xlink:href="#m1d5e54930d" x="187.868413" y="57.263371" style="fill: #ffac1e; stroke: #ffac1e; stroke-linejoin: bevel"/>
     <use xlink:href="#m1d5e54930d" x="193.027119" y="57.263371" style="fill: #ffac1e; stroke: #ffac1e; stroke-linejoin: bevel"/>
     <use xlink:href="#m1d5e54930d" x="198.185824" y="212.446891" style="fill: #ffac1e; stroke: #ffac1e; stroke-linejoin: bevel"/>
     <use xlink:href="#m1d5e54930d" x="203.34453" y="95.069974" style="fill: #ffac1e; stroke: #ffac1e; stroke-linejoin: bevel"/>
     <use xlink:href="#m1d5e54930d" x="208.503236" y="52.843494" style="fill: #ffac1e; stroke: #ffac1e; stroke-linejoin: bevel"/>
     <use xlink:href="#m1d5e54930d" x="213.661941" y="66.550054" style="fill: #ffac1e; stroke: #ffac1e; stroke-linejoin: bevel"/>
     <use xlink:href="#m1d5e54930d" x="218.820647" y="66.550054" style="fill: #ffac1e; stroke: #ffac1e; stroke-linejoin: bevel"/>
     <use xlink:href="#m1d5e54930d" x="223.979353" y="56.96939" style="fill: #ffac1e; stroke: #ffac1e; stroke-linejoin: bevel"/>
     <use xlink:href="#m1d5e54930d" x="229.138059" y="72.112979" style="fill: #ffac1e; stroke: #ffac1e; stroke-linejoin: bevel"/>
     <use xlink:href="#m1d5e54930d" x="234.296764" y="94.085615" style="fill: #ffac1e; stroke: #ffac1e; stroke-linejoin: bevel"/>
     <use xlink:href="#m1d5e54930d" x="239.45547" y="210.402165" style="fill: #ffac1e; stroke: #ffac1e; stroke-linejoin: bevel"/>
     <use xlink:href="#m1d5e54930d" x="244.614176" y="48.873543" style="fill: #ffac1e; stroke: #ffac1e; stroke-linejoin: bevel"/>
     <use xlink:href="#m1d5e54930d" x="249.772881" y="48.214442" style="fill: #ffac1e; stroke: #ffac1e; stroke-linejoin: bevel"/>
     <use xlink:href="#m1d5e54930d" x="254.931587" y="48.349665" style="fill: #ffac1e; stroke: #ffac1e; stroke-linejoin: bevel"/>
     <use xlink:href="#m1d5e54930d" x="260.090293" y="45.043519" style="fill: #ffac1e; stroke: #ffac1e; stroke-linejoin: bevel"/>
     <use xlink:href="#m1d5e54930d" x="265.248998" y="49.815808" style="fill: #ffac1e; stroke: #ffac1e; stroke-linejoin: bevel"/>
     <use xlink:href="#m1d5e54930d" x="270.407704" y="49.32118" style="fill: #ffac1e; stroke: #ffac1e; stroke-linejoin: bevel"/>
     <use xlink:href="#m1d5e54930d" x="275.56641" y="48.746191" style="fill: #ffac1e; stroke: #ffac1e; stroke-linejoin: bevel"/>
     <use xlink:href="#m1d5e54930d" x="280.725116" y="48.746191" style="fill: #ffac1e; stroke: #ffac1e; stroke-linejoin: bevel"/>
     <use xlink:href="#m1d5e54930d" x="285.883821" y="45.815922" style="fill: #ffac1e; stroke: #ffac1e; stroke-linejoin: bevel"/>
     <use xlink:href="#m1d5e54930d" x="291.042527" y="45.211539" style="fill: #ffac1e; stroke: #ffac1e; stroke-linejoin: bevel"/>
     <use xlink:href="#m1d5e54930d" x="296.201233" y="48.21314" style="fill: #ffac1e; stroke: #ffac1e; stroke-linejoin: bevel"/>
     <use xlink:href="#m1d5e54930d" x="301.359938" y="48.21331" style="fill: #ffac1e; stroke: #ffac1e; stroke-linejoin: bevel"/>
     <use xlink:href="#m1d5e54930d" x="306.518644" y="44.280879" style="fill: #ffac1e; stroke: #ffac1e; stroke-linejoin: bevel"/>
     <use xlink:href="#m1d5e54930d" x="311.67735" y="45.646036" style="fill: #ffac1e; stroke: #ffac1e; stroke-linejoin: bevel"/>
     <use xlink:href="#m1d5e54930d" x="316.836055" y="56.492714" style="fill: #ffac1e; stroke: #ffac1e; stroke-linejoin: bevel"/>
     <use xlink:href="#m1d5e54930d" x="321.994761" y="45.645694" style="fill: #ffac1e; stroke: #ffac1e; stroke-linejoin: bevel"/>
     <use xlink:href="#m1d5e54930d" x="327.153467" y="53.237402" style="fill: #ffac1e; stroke: #ffac1e; stroke-linejoin: bevel"/>
     <use xlink:href="#m1d5e54930d" x="332.312173" y="53.237402" style="fill: #ffac1e; stroke: #ffac1e; stroke-linejoin: bevel"/>
     <use xlink:href="#m1d5e54930d" x="337.470878" y="45.645694" style="fill: #ffac1e; stroke: #ffac1e; stroke-linejoin: bevel"/>
     <use xlink:href="#m1d5e54930d" x="342.629584" y="45.645694" style="fill: #ffac1e; stroke: #ffac1e; stroke-linejoin: bevel"/>
     <use xlink:href="#m1d5e54930d" x="347.78829" y="45.645694" style="fill: #ffac1e; stroke: #ffac1e; stroke-linejoin: bevel"/>
     <use xlink:href="#m1d5e54930d" x="352.946995" y="45.645694" style="fill: #ffac1e; stroke: #ffac1e; stroke-linejoin: bevel"/>
     <use xlink:href="#m1d5e54930d" x="358.105701" y="45.645694" style="fill: #ffac1e; stroke: #ffac1e; stroke-linejoin: bevel"/>
     <use xlink:href="#m1d5e54930d" x="363.264407" y="45.645694" style="fill: #ffac1e; stroke: #ffac1e; stroke-linejoin: bevel"/>
     <use xlink:href="#m1d5e54930d" x="368.423112" y="123.089015" style="fill: #ffac1e; stroke: #ffac1e; stroke-linejoin: bevel"/>
     <use xlink:href="#m1d5e54930d" x="373.581818" y="53.237402" style="fill: #ffac1e; stroke: #ffac1e; stroke-linejoin: bevel"/>
    </g>
   </g>
   <g id="line2d_33">
    <path d="M 69.218182 261.241557 
L 74.376888 245.86669 
L 79.535593 252.80387 
L 84.694299 251.884464 
L 89.853005 253.421469 
L 95.01171 106.65787 
L 100.170416 257.928369 
L 105.329122 275.394479 
L 110.487827 175.806143 
L 115.646533 251.092578 
L 120.805239 253.723665 
L 125.963945 120.103078 
L 131.12265 252.510167 
L 136.281356 65.649495 
L 141.440062 202.81095 
L 146.598767 78.671574 
L 151.757473 57.21872 
L 156.916179 181.722339 
L 162.074884 84.531991 
L 167.23359 204.546926 
L 172.392296 45.561871 
L 177.551002 253.427297 
L 182.709707 63.166493 
L 187.868413 47.236701 
L 193.027119 71.812805 
L 198.185824 97.267008 
L 203.34453 133.820418 
L 208.503236 242.204671 
L 213.661941 46.413177 
L 218.820647 195.000046 
L 223.979353 227.1779 
L 229.138059 44.974122 
L 234.296764 44.863225 
L 239.45547 45.865423 
L 244.614176 56.483282 
L 249.772881 48.304887 
L 254.931587 75.792045 
L 260.090293 76.552731 
L 265.248998 70.720109 
L 270.407704 50.031276 
L 275.56641 47.408989 
L 280.725116 49.904897 
L 285.883821 67.85367 
L 291.042527 55.923659 
L 296.201233 49.279405 
L 301.359938 46.87656 
L 306.518644 45.86631 
L 311.67735 50.133895 
L 316.836055 45.739687 
L 321.994761 44.863225 
L 327.153467 45.613886 
L 332.312173 45.324729 
L 337.470878 45.739378 
L 342.629584 48.406335 
L 347.78829 49.275724 
L 352.946995 45.739378 
L 358.105701 45.86631 
L 363.264407 44.863225 
L 368.423112 45.321753 
L 373.581818 47.66637 
" clip-path="url(#p51d06444c2)" style="fill: none; stroke: #009435; stroke-width: 1.5; stroke-linecap: square"/>
    <defs>
     <path id="m11d36eff2f" d="M -2 2 
L 2 2 
L 2 -2 
L -2 -2 
z
" style="stroke: #009435; stroke-linejoin: miter"/>
    </defs>
    <g clip-path="url(#p51d06444c2)">
     <use xlink:href="#m11d36eff2f" x="69.218182" y="261.241557" style="fill: #009435; stroke: #009435; stroke-linejoin: miter"/>
     <use xlink:href="#m11d36eff2f" x="74.376888" y="245.86669" style="fill: #009435; stroke: #009435; stroke-linejoin: miter"/>
     <use xlink:href="#m11d36eff2f" x="79.535593" y="252.80387" style="fill: #009435; stroke: #009435; stroke-linejoin: miter"/>
     <use xlink:href="#m11d36eff2f" x="84.694299" y="251.884464" style="fill: #009435; stroke: #009435; stroke-linejoin: miter"/>
     <use xlink:href="#m11d36eff2f" x="89.853005" y="253.421469" style="fill: #009435; stroke: #009435; stroke-linejoin: miter"/>
     <use xlink:href="#m11d36eff2f" x="95.01171" y="106.65787" style="fill: #009435; stroke: #009435; stroke-linejoin: miter"/>
     <use xlink:href="#m11d36eff2f" x="100.170416" y="257.928369" style="fill: #009435; stroke: #009435; stroke-linejoin: miter"/>
     <use xlink:href="#m11d36eff2f" x="105.329122" y="275.394479" style="fill: #009435; stroke: #009435; stroke-linejoin: miter"/>
     <use xlink:href="#m11d36eff2f" x="110.487827" y="175.806143" style="fill: #009435; stroke: #009435; stroke-linejoin: miter"/>
     <use xlink:href="#m11d36eff2f" x="115.646533" y="251.092578" style="fill: #009435; stroke: #009435; stroke-linejoin: miter"/>
     <use xlink:href="#m11d36eff2f" x="120.805239" y="253.723665" style="fill: #009435; stroke: #009435; stroke-linejoin: miter"/>
     <use xlink:href="#m11d36eff2f" x="125.963945" y="120.103078" style="fill: #009435; stroke: #009435; stroke-linejoin: miter"/>
     <use xlink:href="#m11d36eff2f" x="131.12265" y="252.510167" style="fill: #009435; stroke: #009435; stroke-linejoin: miter"/>
     <use xlink:href="#m11d36eff2f" x="136.281356" y="65.649495" style="fill: #009435; stroke: #009435; stroke-linejoin: miter"/>
     <use xlink:href="#m11d36eff2f" x="141.440062" y="202.81095" style="fill: #009435; stroke: #009435; stroke-linejoin: miter"/>
     <use xlink:href="#m11d36eff2f" x="146.598767" y="78.671574" style="fill: #009435; stroke: #009435; stroke-linejoin: miter"/>
     <use xlink:href="#m11d36eff2f" x="151.757473" y="57.21872" style="fill: #009435; stroke: #009435; stroke-linejoin: miter"/>
     <use xlink:href="#m11d36eff2f" x="156.916179" y="181.722339" style="fill: #009435; stroke: #009435; stroke-linejoin: miter"/>
     <use xlink:href="#m11d36eff2f" x="162.074884" y="84.531991" style="fill: #009435; stroke: #009435; stroke-linejoin: miter"/>
     <use xlink:href="#m11d36eff2f" x="167.23359" y="204.546926" style="fill: #009435; stroke: #009435; stroke-linejoin: miter"/>
     <use xlink:href="#m11d36eff2f" x="172.392296" y="45.561871" style="fill: #009435; stroke: #009435; stroke-linejoin: miter"/>
     <use xlink:href="#m11d36eff2f" x="177.551002" y="253.427297" style="fill: #009435; stroke: #009435; stroke-linejoin: miter"/>
     <use xlink:href="#m11d36eff2f" x="182.709707" y="63.166493" style="fill: #009435; stroke: #009435; stroke-linejoin: miter"/>
     <use xlink:href="#m11d36eff2f" x="187.868413" y="47.236701" style="fill: #009435; stroke: #009435; stroke-linejoin: miter"/>
     <use xlink:href="#m11d36eff2f" x="193.027119" y="71.812805" style="fill: #009435; stroke: #009435; stroke-linejoin: miter"/>
     <use xlink:href="#m11d36eff2f" x="198.185824" y="97.267008" style="fill: #009435; stroke: #009435; stroke-linejoin: miter"/>
     <use xlink:href="#m11d36eff2f" x="203.34453" y="133.820418" style="fill: #009435; stroke: #009435; stroke-linejoin: miter"/>
     <use xlink:href="#m11d36eff2f" x="208.503236" y="242.204671" style="fill: #009435; stroke: #009435; stroke-linejoin: miter"/>
     <use xlink:href="#m11d36eff2f" x="213.661941" y="46.413177" style="fill: #009435; stroke: #009435; stroke-linejoin: miter"/>
     <use xlink:href="#m11d36eff2f" x="218.820647" y="195.000046" style="fill: #009435; stroke: #009435; stroke-linejoin: miter"/>
     <use xlink:href="#m11d36eff2f" x="223.979353" y="227.1779" style="fill: #009435; stroke: #009435; stroke-linejoin: miter"/>
     <use xlink:href="#m11d36eff2f" x="229.138059" y="44.974122" style="fill: #009435; stroke: #009435; stroke-linejoin: miter"/>
     <use xlink:href="#m11d36eff2f" x="234.296764" y="44.863225" style="fill: #009435; stroke: #009435; stroke-linejoin: miter"/>
     <use xlink:href="#m11d36eff2f" x="239.45547" y="45.865423" style="fill: #009435; stroke: #009435; stroke-linejoin: miter"/>
     <use xlink:href="#m11d36eff2f" x="244.614176" y="56.483282" style="fill: #009435; stroke: #009435; stroke-linejoin: miter"/>
     <use xlink:href="#m11d36eff2f" x="249.772881" y="48.304887" style="fill: #009435; stroke: #009435; stroke-linejoin: miter"/>
     <use xlink:href="#m11d36eff2f" x="254.931587" y="75.792045" style="fill: #009435; stroke: #009435; stroke-linejoin: miter"/>
     <use xlink:href="#m11d36eff2f" x="260.090293" y="76.552731" style="fill: #009435; stroke: #009435; stroke-linejoin: miter"/>
     <use xlink:href="#m11d36eff2f" x="265.248998" y="70.720109" style="fill: #009435; stroke: #009435; stroke-linejoin: miter"/>
     <use xlink:href="#m11d36eff2f" x="270.407704" y="50.031276" style="fill: #009435; stroke: #009435; stroke-linejoin: miter"/>
     <use xlink:href="#m11d36eff2f" x="275.56641" y="47.408989" style="fill: #009435; stroke: #009435; stroke-linejoin: miter"/>
     <use xlink:href="#m11d36eff2f" x="280.725116" y="49.904897" style="fill: #009435; stroke: #009435; stroke-linejoin: miter"/>
     <use xlink:href="#m11d36eff2f" x="285.883821" y="67.85367" style="fill: #009435; stroke: #009435; stroke-linejoin: miter"/>
     <use xlink:href="#m11d36eff2f" x="291.042527" y="55.923659" style="fill: #009435; stroke: #009435; stroke-linejoin: miter"/>
     <use xlink:href="#m11d36eff2f" x="296.201233" y="49.279405" style="fill: #009435; stroke: #009435; stroke-linejoin: miter"/>
     <use xlink:href="#m11d36eff2f" x="301.359938" y="46.87656" style="fill: #009435; stroke: #009435; stroke-linejoin: miter"/>
     <use xlink:href="#m11d36eff2f" x="306.518644" y="45.86631" style="fill: #009435; stroke: #009435; stroke-linejoin: miter"/>
     <use xlink:href="#m11d36eff2f" x="311.67735" y="50.133895" style="fill: #009435; stroke: #009435; stroke-linejoin: miter"/>
     <use xlink:href="#m11d36eff2f" x="316.836055" y="45.739687" style="fill: #009435; stroke: #009435; stroke-linejoin: miter"/>
     <use xlink:href="#m11d36eff2f" x="321.994761" y="44.863225" style="fill: #009435; stroke: #009435; stroke-linejoin: miter"/>
     <use xlink:href="#m11d36eff2f" x="327.153467" y="45.613886" style="fill: #009435; stroke: #009435; stroke-linejoin: miter"/>
     <use xlink:href="#m11d36eff2f" x="332.312173" y="45.324729" style="fill: #009435; stroke: #009435; stroke-linejoin: miter"/>
     <use xlink:href="#m11d36eff2f" x="337.470878" y="45.739378" style="fill: #009435; stroke: #009435; stroke-linejoin: miter"/>
     <use xlink:href="#m11d36eff2f" x="342.629584" y="48.406335" style="fill: #009435; stroke: #009435; stroke-linejoin: miter"/>
     <use xlink:href="#m11d36eff2f" x="347.78829" y="49.275724" style="fill: #009435; stroke: #009435; stroke-linejoin: miter"/>
     <use xlink:href="#m11d36eff2f" x="352.946995" y="45.739378" style="fill: #009435; stroke: #009435; stroke-linejoin: miter"/>
     <use xlink:href="#m11d36eff2f" x="358.105701" y="45.86631" style="fill: #009435; stroke: #009435; stroke-linejoin: miter"/>
     <use xlink:href="#m11d36eff2f" x="363.264407" y="44.863225" style="fill: #009435; stroke: #009435; stroke-linejoin: miter"/>
     <use xlink:href="#m11d36eff2f" x="368.423112" y="45.321753" style="fill: #009435; stroke: #009435; stroke-linejoin: miter"/>
     <use xlink:href="#m11d36eff2f" x="373.581818" y="47.66637" style="fill: #009435; stroke: #009435; stroke-linejoin: miter"/>
    </g>
   </g>
   <g id="patch_3">
    <path d="M 54 252 
L 54 34.56 
" style="fill: none; stroke: #000000; stroke-width: 0.8; stroke-linejoin: miter; stroke-linecap: square"/>
   </g>
   <g id="patch_4">
    <path d="M 388.8 252 
L 388.8 34.56 
" style="fill: none; stroke: #000000; stroke-width: 0.8; stroke-linejoin: miter; stroke-linecap: square"/>
   </g>
   <g id="patch_5">
    <path d="M 54 252 
L 388.8 252 
" style="fill: none; stroke: #000000; stroke-width: 0.8; stroke-linejoin: miter; stroke-linecap: square"/>
   </g>
   <g id="patch_6">
    <path d="M 54 34.56 
L 388.8 34.56 
" style="fill: none; stroke: #000000; stroke-width: 0.8; stroke-linejoin: miter; stroke-linecap: square"/>
   </g>
   <g id="text_17">
    <!-- BEB agent policy with coeff_prior = 0.001 -->
    <g transform="translate(96.0375 28.56)scale(0.12 -0.12)">
     <defs>
      <path id="DejaVuSans-42" d="M 1259 2228 
L 1259 519 
L 2272 519 
Q 2781 519 3026 730 
Q 3272 941 3272 1375 
Q 3272 1813 3026 2020 
Q 2781 2228 2272 2228 
L 1259 2228 
z
M 1259 4147 
L 1259 2741 
L 2194 2741 
Q 2656 2741 2882 2914 
Q 3109 3088 3109 3444 
Q 3109 3797 2882 3972 
Q 2656 4147 2194 4147 
L 1259 4147 
z
M 628 4666 
L 2241 4666 
Q 2963 4666 3353 4366 
Q 3744 4066 3744 3513 
Q 3744 3084 3544 2831 
Q 3344 2578 2956 2516 
Q 3422 2416 3680 2098 
Q 3938 1781 3938 1306 
Q 3938 681 3513 340 
Q 3088 0 2303 0 
L 628 0 
L 628 4666 
z
" transform="scale(0.015625)"/>
      <path id="DejaVuSans-45" d="M 628 4666 
L 3578 4666 
L 3578 4134 
L 1259 4134 
L 1259 2753 
L 3481 2753 
L 3481 2222 
L 1259 2222 
L 1259 531 
L 3634 531 
L 3634 0 
L 628 0 
L 628 4666 
z
" transform="scale(0.015625)"/>
      <path id="DejaVuSans-67" d="M 2906 1791 
Q 2906 2416 2648 2759 
Q 2391 3103 1925 3103 
Q 1463 3103 1205 2759 
Q 947 2416 947 1791 
Q 947 1169 1205 825 
Q 1463 481 1925 481 
Q 2391 481 2648 825 
Q 2906 1169 2906 1791 
z
M 3481 434 
Q 3481 -459 3084 -895 
Q 2688 -1331 1869 -1331 
Q 1566 -1331 1297 -1286 
Q 1028 -1241 775 -1147 
L 775 -588 
Q 1028 -725 1275 -790 
Q 1522 -856 1778 -856 
Q 2344 -856 2625 -561 
Q 2906 -266 2906 331 
L 2906 616 
Q 2728 306 2450 153 
Q 2172 0 1784 0 
Q 1141 0 747 490 
Q 353 981 353 1791 
Q 353 2603 747 3093 
Q 1141 3584 1784 3584 
Q 2172 3584 2450 3431 
Q 2728 3278 2906 2969 
L 2906 3500 
L 3481 3500 
L 3481 434 
z
" transform="scale(0.015625)"/>
      <path id="DejaVuSans-6e" d="M 3513 2113 
L 3513 0 
L 2938 0 
L 2938 2094 
Q 2938 2591 2744 2837 
Q 2550 3084 2163 3084 
Q 1697 3084 1428 2787 
Q 1159 2491 1159 1978 
L 1159 0 
L 581 0 
L 581 3500 
L 1159 3500 
L 1159 2956 
Q 1366 3272 1645 3428 
Q 1925 3584 2291 3584 
Q 2894 3584 3203 3211 
Q 3513 2838 3513 2113 
z
" transform="scale(0.015625)"/>
      <path id="DejaVuSans-77" d="M 269 3500 
L 844 3500 
L 1563 769 
L 2278 3500 
L 2956 3500 
L 3675 769 
L 4391 3500 
L 4966 3500 
L 4050 0 
L 3372 0 
L 2619 2869 
L 1863 0 
L 1184 0 
L 269 3500 
z
" transform="scale(0.015625)"/>
      <path id="DejaVuSans-68" d="M 3513 2113 
L 3513 0 
L 2938 0 
L 2938 2094 
Q 2938 2591 2744 2837 
Q 2550 3084 2163 3084 
Q 1697 3084 1428 2787 
Q 1159 2491 1159 1978 
L 1159 0 
L 581 0 
L 581 4863 
L 1159 4863 
L 1159 2956 
Q 1366 3272 1645 3428 
Q 1925 3584 2291 3584 
Q 2894 3584 3203 3211 
Q 3513 2838 3513 2113 
z
" transform="scale(0.015625)"/>
      <path id="DejaVuSans-66" d="M 2375 4863 
L 2375 4384 
L 1825 4384 
Q 1516 4384 1395 4259 
Q 1275 4134 1275 3809 
L 1275 3500 
L 2222 3500 
L 2222 3053 
L 1275 3053 
L 1275 0 
L 697 0 
L 697 3053 
L 147 3053 
L 147 3500 
L 697 3500 
L 697 3744 
Q 697 4328 969 4595 
Q 1241 4863 1831 4863 
L 2375 4863 
z
" transform="scale(0.015625)"/>
      <path id="DejaVuSans-5f" d="M 3263 -1063 
L 3263 -1509 
L -63 -1509 
L -63 -1063 
L 3263 -1063 
z
" transform="scale(0.015625)"/>
      <path id="DejaVuSans-3d" d="M 678 2906 
L 4684 2906 
L 4684 2381 
L 678 2381 
L 678 2906 
z
M 678 1631 
L 4684 1631 
L 4684 1100 
L 678 1100 
L 678 1631 
z
" transform="scale(0.015625)"/>
      <path id="DejaVuSans-2e" d="M 684 794 
L 1344 794 
L 1344 0 
L 684 0 
L 684 794 
z
" transform="scale(0.015625)"/>
     </defs>
     <use xlink:href="#DejaVuSans-42"/>
     <use xlink:href="#DejaVuSans-45" x="68.603516"/>
     <use xlink:href="#DejaVuSans-42" x="131.787109"/>
     <use xlink:href="#DejaVuSans-20" x="200.390625"/>
     <use xlink:href="#DejaVuSans-61" x="232.177734"/>
     <use xlink:href="#DejaVuSans-67" x="293.457031"/>
     <use xlink:href="#DejaVuSans-65" x="356.933594"/>
     <use xlink:href="#DejaVuSans-6e" x="418.457031"/>
     <use xlink:href="#DejaVuSans-74" x="481.835938"/>
     <use xlink:href="#DejaVuSans-20" x="521.044922"/>
     <use xlink:href="#DejaVuSans-70" x="552.832031"/>
     <use xlink:href="#DejaVuSans-6f" x="616.308594"/>
     <use xlink:href="#DejaVuSans-6c" x="677.490234"/>
     <use xlink:href="#DejaVuSans-69" x="705.273438"/>
     <use xlink:href="#DejaVuSans-63" x="733.056641"/>
     <use xlink:href="#DejaVuSans-79" x="788.037109"/>
     <use xlink:href="#DejaVuSans-20" x="847.216797"/>
     <use xlink:href="#DejaVuSans-77" x="879.003906"/>
     <use xlink:href="#DejaVuSans-69" x="960.791016"/>
     <use xlink:href="#DejaVuSans-74" x="988.574219"/>
     <use xlink:href="#DejaVuSans-68" x="1027.783203"/>
     <use xlink:href="#DejaVuSans-20" x="1091.162109"/>
     <use xlink:href="#DejaVuSans-63" x="1122.949219"/>
     <use xlink:href="#DejaVuSans-6f" x="1177.929688"/>
     <use xlink:href="#DejaVuSans-65" x="1239.111328"/>
     <use xlink:href="#DejaVuSans-66" x="1300.634766"/>
     <use xlink:href="#DejaVuSans-66" x="1335.839844"/>
     <use xlink:href="#DejaVuSans-5f" x="1371.044922"/>
     <use xlink:href="#DejaVuSans-70" x="1421.044922"/>
     <use xlink:href="#DejaVuSans-72" x="1484.521484"/>
     <use xlink:href="#DejaVuSans-69" x="1525.634766"/>
     <use xlink:href="#DejaVuSans-6f" x="1553.417969"/>
     <use xlink:href="#DejaVuSans-72" x="1614.599609"/>
     <use xlink:href="#DejaVuSans-20" x="1655.712891"/>
     <use xlink:href="#DejaVuSans-3d" x="1687.5"/>
     <use xlink:href="#DejaVuSans-20" x="1771.289062"/>
     <use xlink:href="#DejaVuSans-30" x="1803.076172"/>
     <use xlink:href="#DejaVuSans-2e" x="1866.699219"/>
     <use xlink:href="#DejaVuSans-30" x="1898.486328"/>
     <use xlink:href="#DejaVuSans-30" x="1962.109375"/>
     <use xlink:href="#DejaVuSans-31" x="2025.732422"/>
    </g>
   </g>
   <g id="legend_1">
    <g id="patch_7">
     <path d="M 302.967188 247 
L 381.8 247 
Q 383.8 247 383.8 245 
L 383.8 172.609375 
Q 383.8 170.609375 381.8 170.609375 
L 302.967188 170.609375 
Q 300.967188 170.609375 300.967188 172.609375 
L 300.967188 245 
Q 300.967188 247 302.967188 247 
z
" style="fill: #ffffff; opacity: 0.8; stroke: #cccccc; stroke-linejoin: miter"/>
    </g>
    <g id="line2d_34">
     <path d="M 304.967188 178.707812 
L 314.967188 178.707812 
L 324.967188 178.707812 
" style="fill: none; stroke: #9d02d7; stroke-width: 1.5; stroke-linecap: square"/>
     <g>
      <use xlink:href="#me72d4e3f5a" x="314.967188" y="178.707812" style="fill: #9d02d7; stroke: #9d02d7; stroke-linejoin: miter"/>
     </g>
    </g>
    <g id="text_18">
     <!-- beta=0.1 -->
     <g transform="translate(332.967188 182.207812)scale(0.1 -0.1)">
      <defs>
       <path id="DejaVuSans-62" d="M 3116 1747 
Q 3116 2381 2855 2742 
Q 2594 3103 2138 3103 
Q 1681 3103 1420 2742 
Q 1159 2381 1159 1747 
Q 1159 1113 1420 752 
Q 1681 391 2138 391 
Q 2594 391 2855 752 
Q 3116 1113 3116 1747 
z
M 1159 2969 
Q 1341 3281 1617 3432 
Q 1894 3584 2278 3584 
Q 2916 3584 3314 3078 
Q 3713 2572 3713 1747 
Q 3713 922 3314 415 
Q 2916 -91 2278 -91 
Q 1894 -91 1617 61 
Q 1341 213 1159 525 
L 1159 0 
L 581 0 
L 581 4863 
L 1159 4863 
L 1159 2969 
z
" transform="scale(0.015625)"/>
      </defs>
      <use xlink:href="#DejaVuSans-62"/>
      <use xlink:href="#DejaVuSans-65" x="63.476562"/>
      <use xlink:href="#DejaVuSans-74" x="125"/>
      <use xlink:href="#DejaVuSans-61" x="164.208984"/>
      <use xlink:href="#DejaVuSans-3d" x="225.488281"/>
      <use xlink:href="#DejaVuSans-30" x="309.277344"/>
      <use xlink:href="#DejaVuSans-2e" x="372.900391"/>
      <use xlink:href="#DejaVuSans-31" x="404.6875"/>
     </g>
    </g>
    <g id="line2d_35">
     <path d="M 304.967188 193.385938 
L 314.967188 193.385938 
L 324.967188 193.385938 
" style="fill: none; stroke: #0000ff; stroke-width: 1.5; stroke-linecap: square"/>
     <g>
      <use xlink:href="#m12f795da71" x="314.967188" y="193.385938" style="fill: #0000ff; stroke: #0000ff"/>
     </g>
    </g>
    <g id="text_19">
     <!-- beta=1 -->
     <g transform="translate(332.967188 196.885938)scale(0.1 -0.1)">
      <use xlink:href="#DejaVuSans-62"/>
      <use xlink:href="#DejaVuSans-65" x="63.476562"/>
      <use xlink:href="#DejaVuSans-74" x="125"/>
      <use xlink:href="#DejaVuSans-61" x="164.208984"/>
      <use xlink:href="#DejaVuSans-3d" x="225.488281"/>
      <use xlink:href="#DejaVuSans-31" x="309.277344"/>
     </g>
    </g>
    <g id="line2d_36">
     <path d="M 304.967188 208.064063 
L 314.967188 208.064063 
L 324.967188 208.064063 
" style="fill: none; stroke: #ff7763; stroke-width: 1.5; stroke-linecap: square"/>
     <g>
      <use xlink:href="#mbf3e91ab27" x="314.967188" y="208.064063" style="fill: #ff7763; stroke: #ff7763"/>
     </g>
    </g>
    <g id="text_20">
     <!-- beta=2 -->
     <g transform="translate(332.967188 211.564063)scale(0.1 -0.1)">
      <use xlink:href="#DejaVuSans-62"/>
      <use xlink:href="#DejaVuSans-65" x="63.476562"/>
      <use xlink:href="#DejaVuSans-74" x="125"/>
      <use xlink:href="#DejaVuSans-61" x="164.208984"/>
      <use xlink:href="#DejaVuSans-3d" x="225.488281"/>
      <use xlink:href="#DejaVuSans-32" x="309.277344"/>
     </g>
    </g>
    <g id="line2d_37">
     <path d="M 304.967188 222.742188 
L 314.967188 222.742188 
L 324.967188 222.742188 
" style="fill: none; stroke: #ffac1e; stroke-width: 1.5; stroke-linecap: square"/>
     <g>
      <use xlink:href="#m1d5e54930d" x="314.967188" y="222.742188" style="fill: #ffac1e; stroke: #ffac1e; stroke-linejoin: bevel"/>
     </g>
    </g>
    <g id="text_21">
     <!-- beta=3 -->
     <g transform="translate(332.967188 226.242188)scale(0.1 -0.1)">
      <use xlink:href="#DejaVuSans-62"/>
      <use xlink:href="#DejaVuSans-65" x="63.476562"/>
      <use xlink:href="#DejaVuSans-74" x="125"/>
      <use xlink:href="#DejaVuSans-61" x="164.208984"/>
      <use xlink:href="#DejaVuSans-3d" x="225.488281"/>
      <use xlink:href="#DejaVuSans-33" x="309.277344"/>
     </g>
    </g>
    <g id="line2d_38">
     <path d="M 304.967188 237.420313 
L 314.967188 237.420313 
L 324.967188 237.420313 
" style="fill: none; stroke: #009435; stroke-width: 1.5; stroke-linecap: square"/>
     <g>
      <use xlink:href="#m11d36eff2f" x="314.967188" y="237.420313" style="fill: #009435; stroke: #009435; stroke-linejoin: miter"/>
     </g>
    </g>
    <g id="text_22">
     <!-- beta=4 -->
     <g transform="translate(332.967188 240.920313)scale(0.1 -0.1)">
      <use xlink:href="#DejaVuSans-62"/>
      <use xlink:href="#DejaVuSans-65" x="63.476562"/>
      <use xlink:href="#DejaVuSans-74" x="125"/>
      <use xlink:href="#DejaVuSans-61" x="164.208984"/>
      <use xlink:href="#DejaVuSans-3d" x="225.488281"/>
      <use xlink:href="#DejaVuSans-34" x="309.277344"/>
     </g>
    </g>
   </g>
  </g>
 </g>
 <defs>
  <clipPath id="p51d06444c2">
   <rect x="54" y="34.56" width="334.8" height="217.44"/>
  </clipPath>
 </defs>
</svg>
