<?xml version="1.0" encoding="utf-8" standalone="no"?>
<!DOCTYPE svg PUBLIC "-//W3C//DTD SVG 1.1//EN"
  "http://www.w3.org/Graphics/SVG/1.1/DTD/svg11.dtd">
<svg xmlns:xlink="http://www.w3.org/1999/xlink" width="432pt" height="288pt" viewBox="0 0 432 288" xmlns="http://www.w3.org/2000/svg" version="1.1">
 <metadata>
  <rdf:RDF xmlns:dc="http://purl.org/dc/elements/1.1/" xmlns:cc="http://creativecommons.org/ns#" xmlns:rdf="http://www.w3.org/1999/02/22-rdf-syntax-ns#">
   <cc:Work>
    <dc:type rdf:resource="http://purl.org/dc/dcmitype/StillImage"/>
    <dc:date>2023-01-11T15:36:08.930547</dc:date>
    <dc:format>image/svg+xml</dc:format>
    <dc:creator>
     <cc:Agent>
      <dc:title>Matplotlib v3.5.2, https://matplotlib.org/</dc:title>
     </cc:Agent>
    </dc:creator>
   </cc:Work>
  </rdf:RDF>
 </metadata>
 <defs>
  <style type="text/css">*{stroke-linejoin: round; stroke-linecap: butt}</style>
 </defs>
 <g id="figure_1">
  <g id="patch_1">
   <path d="M 0 288 
L 432 288 
L 432 0 
L 0 0 
z
" style="fill: #ffffff"/>
  </g>
  <g id="axes_1">
   <g id="patch_2">
    <path d="M 54 252 
L 388.8 252 
L 388.8 34.56 
L 54 34.56 
z
" style="fill: #ffffff"/>
   </g>
   <g id="PolyCollection_1">
    <defs>
     <path id="meab6401665" d="M 69.218182 -29.880859 
L 69.218182 -29.880859 
L 74.376888 -34.923719 
L 79.535593 -33.255294 
L 84.694299 -35.144635 
L 89.853005 -35.091182 
L 95.01171 -34.203595 
L 100.170416 -37.533306 
L 105.329122 -33.689607 
L 110.487827 -38.881398 
L 115.646533 -82.901132 
L 120.805239 -92.602194 
L 125.963945 -82.692164 
L 131.12265 -31.142845 
L 136.281356 -64.854599 
L 141.440062 -71.815855 
L 146.598767 -31.05666 
L 151.757473 -56.829923 
L 156.916179 -98.277888 
L 162.074884 -109.20623 
L 167.23359 -105.456195 
L 172.392296 -102.656858 
L 177.551002 -94.619329 
L 182.709707 -102.657864 
L 187.868413 -100.439361 
L 193.027119 -102.224085 
L 198.185824 -98.484415 
L 203.34453 -108.387488 
L 208.503236 -108.98944 
L 213.661941 -108.872073 
L 218.820647 -99.865908 
L 223.979353 -99.951068 
L 229.138059 -99.955206 
L 234.296764 -99.954583 
L 239.45547 -99.955206 
L 244.614176 -99.864599 
L 249.772881 -100.772482 
L 254.931587 -110.502003 
L 260.090293 -110.501263 
L 265.248998 -110.498647 
L 270.407704 -110.502121 
L 275.56641 -125.249914 
L 280.725116 -125.250645 
L 285.883821 -125.25748 
L 291.042527 -125.25748 
L 296.201233 -125.25748 
L 301.359938 -125.25748 
L 306.518644 -125.25748 
L 311.67735 -125.25748 
L 316.836055 -158.266105 
L 321.994761 -168.861251 
L 327.153467 -238.941752 
L 332.312173 -238.941752 
L 337.470878 -238.941752 
L 342.629584 -238.995947 
L 347.78829 -238.941752 
L 352.946995 -240.995664 
L 358.105701 -240.995664 
L 363.264407 -240.995664 
L 368.423112 -240.995664 
L 373.581818 -241.080411 
L 373.581818 -241.080411 
L 373.581818 -241.080411 
L 368.423112 -240.995664 
L 363.264407 -240.995664 
L 358.105701 -240.995664 
L 352.946995 -240.995664 
L 347.78829 -238.941752 
L 342.629584 -238.995947 
L 337.470878 -238.941752 
L 332.312173 -238.941752 
L 327.153467 -238.941752 
L 321.994761 -168.861251 
L 316.836055 -158.266105 
L 311.67735 -125.25748 
L 306.518644 -125.25748 
L 301.359938 -125.25748 
L 296.201233 -125.25748 
L 291.042527 -125.25748 
L 285.883821 -125.25748 
L 280.725116 -125.250645 
L 275.56641 -125.249914 
L 270.407704 -110.502121 
L 265.248998 -110.498647 
L 260.090293 -110.501263 
L 254.931587 -110.502003 
L 249.772881 -100.772482 
L 244.614176 -99.864599 
L 239.45547 -99.955206 
L 234.296764 -99.954583 
L 229.138059 -99.955206 
L 223.979353 -99.951068 
L 218.820647 -99.865908 
L 213.661941 -108.872073 
L 208.503236 -108.98944 
L 203.34453 -108.387488 
L 198.185824 -98.484415 
L 193.027119 -102.224085 
L 187.868413 -100.439361 
L 182.709707 -102.657864 
L 177.551002 -94.619329 
L 172.392296 -102.656858 
L 167.23359 -105.456195 
L 162.074884 -109.20623 
L 156.916179 -98.277888 
L 151.757473 -56.829923 
L 146.598767 -31.05666 
L 141.440062 -71.815855 
L 136.281356 -64.854599 
L 131.12265 -31.142845 
L 125.963945 -82.692164 
L 120.805239 -92.602194 
L 115.646533 -82.901132 
L 110.487827 -38.881398 
L 105.329122 -33.689607 
L 100.170416 -37.533306 
L 95.01171 -34.203595 
L 89.853005 -35.091182 
L 84.694299 -35.144635 
L 79.535593 -33.255294 
L 74.376888 -34.923719 
L 69.218182 -29.880859 
z
" style="stroke: #9d02d7; stroke-opacity: 0.2"/>
    </defs>
    <g clip-path="url(#peeeaa98d90)">
     <use xlink:href="#meab6401665" x="0" y="288" style="fill: #9d02d7; fill-opacity: 0.2; stroke: #9d02d7; stroke-opacity: 0.2"/>
    </g>
   </g>
   <g id="PolyCollection_2">
    <defs>
     <path id="ma78aa23a6a" d="M 69.218182 -19.897175 
L 69.218182 -19.897175 
L 74.376888 -35.088432 
L 79.535593 -39.50616 
L 84.694299 -35.063133 
L 89.853005 -31.564559 
L 95.01171 -15.327114 
L 100.170416 -25.266957 
L 105.329122 -31.389521 
L 110.487827 -38.832388 
L 115.646533 -44.33268 
L 120.805239 -41.579463 
L 125.963945 -145.703167 
L 131.12265 -121.481983 
L 136.281356 -126.390931 
L 141.440062 -42.47551 
L 146.598767 -41.111014 
L 151.757473 -42.475643 
L 156.916179 -53.796855 
L 162.074884 -127.127512 
L 167.23359 -72.521603 
L 172.392296 -80.323112 
L 177.551002 -78.239085 
L 182.709707 -41.201463 
L 187.868413 -48.151182 
L 193.027119 -85.330217 
L 198.185824 -56.259004 
L 203.34453 -80.410131 
L 208.503236 -79.142994 
L 213.661941 -91.166136 
L 218.820647 -91.171603 
L 223.979353 -90.639915 
L 229.138059 -117.545652 
L 234.296764 -108.906763 
L 239.45547 -117.418609 
L 244.614176 -109.116805 
L 249.772881 -109.116804 
L 254.931587 -117.418608 
L 260.090293 -109.116804 
L 265.248998 -117.40852 
L 270.407704 -117.418608 
L 275.56641 -108.907642 
L 280.725116 -108.907642 
L 285.883821 -109.116808 
L 291.042527 -110.807865 
L 296.201233 -117.755215 
L 301.359938 -117.755215 
L 306.518644 -117.755215 
L 311.67735 -117.755215 
L 316.836055 -112.17779 
L 321.994761 -118.208774 
L 327.153467 -122.343727 
L 332.312173 -122.080133 
L 337.470878 -122.080133 
L 342.629584 -122.354788 
L 347.78829 -244.18877 
L 352.946995 -244.18877 
L 358.105701 -244.188591 
L 363.264407 -244.18877 
L 368.423112 -244.18877 
L 373.581818 -244.18877 
L 373.581818 -244.18877 
L 373.581818 -244.18877 
L 368.423112 -244.18877 
L 363.264407 -244.18877 
L 358.105701 -244.188591 
L 352.946995 -244.18877 
L 347.78829 -244.18877 
L 342.629584 -122.354788 
L 337.470878 -122.080133 
L 332.312173 -122.080133 
L 327.153467 -122.343727 
L 321.994761 -118.208774 
L 316.836055 -112.17779 
L 311.67735 -117.755215 
L 306.518644 -117.755215 
L 301.359938 -117.755215 
L 296.201233 -117.755215 
L 291.042527 -110.807865 
L 285.883821 -109.116808 
L 280.725116 -108.907642 
L 275.56641 -108.907642 
L 270.407704 -117.418608 
L 265.248998 -117.40852 
L 260.090293 -109.116804 
L 254.931587 -117.418608 
L 249.772881 -109.116804 
L 244.614176 -109.116805 
L 239.45547 -117.418609 
L 234.296764 -108.906763 
L 229.138059 -117.545652 
L 223.979353 -90.639915 
L 218.820647 -91.171603 
L 213.661941 -91.166136 
L 208.503236 -79.142994 
L 203.34453 -80.410131 
L 198.185824 -56.259004 
L 193.027119 -85.330217 
L 187.868413 -48.151182 
L 182.709707 -41.201463 
L 177.551002 -78.239085 
L 172.392296 -80.323112 
L 167.23359 -72.521603 
L 162.074884 -127.127512 
L 156.916179 -53.796855 
L 151.757473 -42.475643 
L 146.598767 -41.111014 
L 141.440062 -42.47551 
L 136.281356 -126.390931 
L 131.12265 -121.481983 
L 125.963945 -145.703167 
L 120.805239 -41.579463 
L 115.646533 -44.33268 
L 110.487827 -38.832388 
L 105.329122 -31.389521 
L 100.170416 -25.266957 
L 95.01171 -15.327114 
L 89.853005 -31.564559 
L 84.694299 -35.063133 
L 79.535593 -39.50616 
L 74.376888 -35.088432 
L 69.218182 -19.897175 
z
" style="stroke: #0000ff; stroke-opacity: 0.2"/>
    </defs>
    <g clip-path="url(#peeeaa98d90)">
     <use xlink:href="#ma78aa23a6a" x="0" y="288" style="fill: #0000ff; fill-opacity: 0.2; stroke: #0000ff; stroke-opacity: 0.2"/>
    </g>
   </g>
   <g id="PolyCollection_3">
    <defs>
     <path id="ma96bb77669" d="M 69.218182 -35.091182 
L 69.218182 -35.091182 
L 74.376888 -33.528984 
L 79.535593 -32.720637 
L 84.694299 -39.293027 
L 89.853005 -35.071319 
L 95.01171 -35.091182 
L 100.170416 -34.683316 
L 105.329122 -35.091182 
L 110.487827 -30.495661 
L 115.646533 -34.236449 
L 120.805239 -34.993965 
L 125.963945 -35.070659 
L 131.12265 -34.838015 
L 136.281356 -32.933445 
L 141.440062 -35.091182 
L 146.598767 -33.622126 
L 151.757473 -33.018272 
L 156.916179 -34.775247 
L 162.074884 -34.872773 
L 167.23359 -34.369883 
L 172.392296 -32.394399 
L 177.551002 -29.056672 
L 182.709707 -34.917825 
L 187.868413 -24.926439 
L 193.027119 -34.70055 
L 198.185824 -35.029972 
L 203.34453 -34.709284 
L 208.503236 -35.083073 
L 213.661941 -35.091182 
L 218.820647 -32.455463 
L 223.979353 -35.671049 
L 229.138059 -34.998419 
L 234.296764 -35.087591 
L 239.45547 -35.033451 
L 244.614176 -35.091182 
L 249.772881 -34.49722 
L 254.931587 -34.794331 
L 260.090293 -35.088184 
L 265.248998 -35.091182 
L 270.407704 -35.005921 
L 275.56641 -35.125694 
L 280.725116 -35.564295 
L 285.883821 -31.116135 
L 291.042527 -29.190873 
L 296.201233 -28.834817 
L 301.359938 -29.08309 
L 306.518644 -54.688841 
L 311.67735 -60.301053 
L 316.836055 -30.195171 
L 321.994761 -31.865098 
L 327.153467 -78.698722 
L 332.312173 -164.138758 
L 337.470878 -163.248953 
L 342.629584 -215.127636 
L 347.78829 -215.127636 
L 352.946995 -217.987391 
L 358.105701 -218.641752 
L 363.264407 -219.116521 
L 368.423112 -218.641752 
L 373.581818 -219.116521 
L 373.581818 -219.116521 
L 373.581818 -219.116521 
L 368.423112 -218.641752 
L 363.264407 -219.116521 
L 358.105701 -218.641752 
L 352.946995 -217.987391 
L 347.78829 -215.127636 
L 342.629584 -215.127636 
L 337.470878 -163.248953 
L 332.312173 -164.138758 
L 327.153467 -78.698722 
L 321.994761 -31.865098 
L 316.836055 -30.195171 
L 311.67735 -60.301053 
L 306.518644 -54.688841 
L 301.359938 -29.08309 
L 296.201233 -28.834817 
L 291.042527 -29.190873 
L 285.883821 -31.116135 
L 280.725116 -35.564295 
L 275.56641 -35.125694 
L 270.407704 -35.005921 
L 265.248998 -35.091182 
L 260.090293 -35.088184 
L 254.931587 -34.794331 
L 249.772881 -34.49722 
L 244.614176 -35.091182 
L 239.45547 -35.033451 
L 234.296764 -35.087591 
L 229.138059 -34.998419 
L 223.979353 -35.671049 
L 218.820647 -32.455463 
L 213.661941 -35.091182 
L 208.503236 -35.083073 
L 203.34453 -34.709284 
L 198.185824 -35.029972 
L 193.027119 -34.70055 
L 187.868413 -24.926439 
L 182.709707 -34.917825 
L 177.551002 -29.056672 
L 172.392296 -32.394399 
L 167.23359 -34.369883 
L 162.074884 -34.872773 
L 156.916179 -34.775247 
L 151.757473 -33.018272 
L 146.598767 -33.622126 
L 141.440062 -35.091182 
L 136.281356 -32.933445 
L 131.12265 -34.838015 
L 125.963945 -35.070659 
L 120.805239 -34.993965 
L 115.646533 -34.236449 
L 110.487827 -30.495661 
L 105.329122 -35.091182 
L 100.170416 -34.683316 
L 95.01171 -35.091182 
L 89.853005 -35.071319 
L 84.694299 -39.293027 
L 79.535593 -32.720637 
L 74.376888 -33.528984 
L 69.218182 -35.091182 
z
" style="stroke: #ff7763; stroke-opacity: 0.2"/>
    </defs>
    <g clip-path="url(#peeeaa98d90)">
     <use xlink:href="#ma96bb77669" x="0" y="288" style="fill: #ff7763; fill-opacity: 0.2; stroke: #ff7763; stroke-opacity: 0.2"/>
    </g>
   </g>
   <g id="PolyCollection_4">
    <defs>
     <path id="m8fc5fb39d0" d="M 69.218182 -35.091182 
L 69.218182 -35.091182 
L 74.376888 -28.039453 
L 79.535593 -32.639879 
L 84.694299 -35.153345 
L 89.853005 -34.658634 
L 95.01171 -34.53493 
L 100.170416 -35.066818 
L 105.329122 -35.671546 
L 110.487827 -34.438075 
L 115.646533 -35.091182 
L 120.805239 -32.508781 
L 125.963945 -34.107278 
L 131.12265 -45.087934 
L 136.281356 -58.50306 
L 141.440062 -52.578617 
L 146.598767 -59.863455 
L 151.757473 -75.023936 
L 156.916179 -50.268295 
L 162.074884 -44.276127 
L 167.23359 -47.643874 
L 172.392296 -26.988165 
L 177.551002 -33.127969 
L 182.709707 -29.688878 
L 187.868413 -62.634759 
L 193.027119 -46.247755 
L 198.185824 -53.361181 
L 203.34453 -49.325516 
L 208.503236 -57.550325 
L 213.661941 -61.721821 
L 218.820647 -54.010586 
L 223.979353 -53.57671 
L 229.138059 -53.759687 
L 234.296764 -53.298428 
L 239.45547 -57.602692 
L 244.614176 -53.39919 
L 249.772881 -69.850439 
L 254.931587 -79.487013 
L 260.090293 -56.614921 
L 265.248998 -160.265537 
L 270.407704 -68.116218 
L 275.56641 -57.976785 
L 280.725116 -86.306632 
L 285.883821 -54.465727 
L 291.042527 -80.316254 
L 296.201233 -59.355342 
L 301.359938 -54.746677 
L 306.518644 -55.259688 
L 311.67735 -69.861817 
L 316.836055 -79.490447 
L 321.994761 -80.504091 
L 327.153467 -80.503939 
L 332.312173 -80.503939 
L 337.470878 -79.610992 
L 342.629584 -79.610992 
L 347.78829 -79.610992 
L 352.946995 -236.393131 
L 358.105701 -236.736146 
L 363.264407 -225.900759 
L 368.423112 -237.09867 
L 373.581818 -236.40767 
L 373.581818 -236.40767 
L 373.581818 -236.40767 
L 368.423112 -237.09867 
L 363.264407 -225.900759 
L 358.105701 -236.736146 
L 352.946995 -236.393131 
L 347.78829 -79.610992 
L 342.629584 -79.610992 
L 337.470878 -79.610992 
L 332.312173 -80.503939 
L 327.153467 -80.503939 
L 321.994761 -80.504091 
L 316.836055 -79.490447 
L 311.67735 -69.861817 
L 306.518644 -55.259688 
L 301.359938 -54.746677 
L 296.201233 -59.355342 
L 291.042527 -80.316254 
L 285.883821 -54.465727 
L 280.725116 -86.306632 
L 275.56641 -57.976785 
L 270.407704 -68.116218 
L 265.248998 -160.265537 
L 260.090293 -56.614921 
L 254.931587 -79.487013 
L 249.772881 -69.850439 
L 244.614176 -53.39919 
L 239.45547 -57.602692 
L 234.296764 -53.298428 
L 229.138059 -53.759687 
L 223.979353 -53.57671 
L 218.820647 -54.010586 
L 213.661941 -61.721821 
L 208.503236 -57.550325 
L 203.34453 -49.325516 
L 198.185824 -53.361181 
L 193.027119 -46.247755 
L 187.868413 -62.634759 
L 182.709707 -29.688878 
L 177.551002 -33.127969 
L 172.392296 -26.988165 
L 167.23359 -47.643874 
L 162.074884 -44.276127 
L 156.916179 -50.268295 
L 151.757473 -75.023936 
L 146.598767 -59.863455 
L 141.440062 -52.578617 
L 136.281356 -58.50306 
L 131.12265 -45.087934 
L 125.963945 -34.107278 
L 120.805239 -32.508781 
L 115.646533 -35.091182 
L 110.487827 -34.438075 
L 105.329122 -35.671546 
L 100.170416 -35.066818 
L 95.01171 -34.53493 
L 89.853005 -34.658634 
L 84.694299 -35.153345 
L 79.535593 -32.639879 
L 74.376888 -28.039453 
L 69.218182 -35.091182 
z
" style="stroke: #ffac1e; stroke-opacity: 0.2"/>
    </defs>
    <g clip-path="url(#peeeaa98d90)">
     <use xlink:href="#m8fc5fb39d0" x="0" y="288" style="fill: #ffac1e; fill-opacity: 0.2; stroke: #ffac1e; stroke-opacity: 0.2"/>
    </g>
   </g>
   <g id="PolyCollection_5">
    <defs>
     <path id="m9d186ac12a" d="M 69.218182 -32.381406 
L 69.218182 -32.381406 
L 74.376888 -35.091182 
L 79.535593 -30.814452 
L 84.694299 -35.091182 
L 89.853005 -35.091182 
L 95.01171 -35.039203 
L 100.170416 -34.955793 
L 105.329122 -35.091182 
L 110.487827 -35.091182 
L 115.646533 -35.091182 
L 120.805239 -35.091182 
L 125.963945 -35.086173 
L 131.12265 -35.091182 
L 136.281356 -35.091182 
L 141.440062 -35.091182 
L 146.598767 -35.091182 
L 151.757473 -35.091182 
L 156.916179 -35.091182 
L 162.074884 -35.0998 
L 167.23359 -35.091182 
L 172.392296 -34.334322 
L 177.551002 -34.881914 
L 182.709707 -64.318915 
L 187.868413 -73.29934 
L 193.027119 -33.560369 
L 198.185824 -142.185054 
L 203.34453 -102.161399 
L 208.503236 -35.9762 
L 213.661941 -102.146586 
L 218.820647 -93.319306 
L 223.979353 -100.158636 
L 229.138059 -44.799066 
L 234.296764 -111.916387 
L 239.45547 -43.45169 
L 244.614176 -46.989194 
L 249.772881 -44.223449 
L 254.931587 -54.256221 
L 260.090293 -38.428997 
L 265.248998 -81.190805 
L 270.407704 -51.423976 
L 275.56641 -109.72955 
L 280.725116 -43.860073 
L 285.883821 -95.552897 
L 291.042527 -93.345334 
L 296.201233 -63.431413 
L 301.359938 -108.125521 
L 306.518644 -102.904723 
L 311.67735 -107.862453 
L 316.836055 -121.623424 
L 321.994761 -96.977868 
L 327.153467 -45.412082 
L 332.312173 -107.661656 
L 337.470878 -107.661656 
L 342.629584 -52.770653 
L 347.78829 -107.211483 
L 352.946995 -112.427458 
L 358.105701 -47.468208 
L 363.264407 -65.132008 
L 368.423112 -65.161306 
L 373.581818 -65.132008 
L 373.581818 -65.132008 
L 373.581818 -65.132008 
L 368.423112 -65.161306 
L 363.264407 -65.132008 
L 358.105701 -47.468208 
L 352.946995 -112.427458 
L 347.78829 -107.211483 
L 342.629584 -52.770653 
L 337.470878 -107.661656 
L 332.312173 -107.661656 
L 327.153467 -45.412082 
L 321.994761 -96.977868 
L 316.836055 -121.623424 
L 311.67735 -107.862453 
L 306.518644 -102.904723 
L 301.359938 -108.125521 
L 296.201233 -63.431413 
L 291.042527 -93.345334 
L 285.883821 -95.552897 
L 280.725116 -43.860073 
L 275.56641 -109.72955 
L 270.407704 -51.423976 
L 265.248998 -81.190805 
L 260.090293 -38.428997 
L 254.931587 -54.256221 
L 249.772881 -44.223449 
L 244.614176 -46.989194 
L 239.45547 -43.45169 
L 234.296764 -111.916387 
L 229.138059 -44.799066 
L 223.979353 -100.158636 
L 218.820647 -93.319306 
L 213.661941 -102.146586 
L 208.503236 -35.9762 
L 203.34453 -102.161399 
L 198.185824 -142.185054 
L 193.027119 -33.560369 
L 187.868413 -73.29934 
L 182.709707 -64.318915 
L 177.551002 -34.881914 
L 172.392296 -34.334322 
L 167.23359 -35.091182 
L 162.074884 -35.0998 
L 156.916179 -35.091182 
L 151.757473 -35.091182 
L 146.598767 -35.091182 
L 141.440062 -35.091182 
L 136.281356 -35.091182 
L 131.12265 -35.091182 
L 125.963945 -35.086173 
L 120.805239 -35.091182 
L 115.646533 -35.091182 
L 110.487827 -35.091182 
L 105.329122 -35.091182 
L 100.170416 -34.955793 
L 95.01171 -35.039203 
L 89.853005 -35.091182 
L 84.694299 -35.091182 
L 79.535593 -30.814452 
L 74.376888 -35.091182 
L 69.218182 -32.381406 
z
" style="stroke: #009435; stroke-opacity: 0.2"/>
    </defs>
    <g clip-path="url(#peeeaa98d90)">
     <use xlink:href="#m9d186ac12a" x="0" y="288" style="fill: #009435; fill-opacity: 0.2; stroke: #009435; stroke-opacity: 0.2"/>
    </g>
   </g>
   <g id="matplotlib.axis_1">
    <g id="xtick_1">
     <g id="line2d_1">
      <path d="M 69.218182 252 
L 69.218182 34.56 
" clip-path="url(#peeeaa98d90)" style="fill: none; stroke-dasharray: 2.96,1.28; stroke-dashoffset: 0; stroke: #b0b0b0; stroke-width: 0.8"/>
     </g>
     <g id="line2d_2">
      <defs>
       <path id="m242b0a6f9e" d="M 0 0 
L 0 3.5 
" style="stroke: #000000; stroke-width: 0.8"/>
      </defs>
      <g>
       <use xlink:href="#m242b0a6f9e" x="69.218182" y="252" style="stroke: #000000; stroke-width: 0.8"/>
      </g>
     </g>
     <g id="text_1">
      <!-- 0 -->
      <g transform="translate(66.036932 266.598437)scale(0.1 -0.1)">
       <defs>
        <path id="DejaVuSans-30" d="M 2034 4250 
Q 1547 4250 1301 3770 
Q 1056 3291 1056 2328 
Q 1056 1369 1301 889 
Q 1547 409 2034 409 
Q 2525 409 2770 889 
Q 3016 1369 3016 2328 
Q 3016 3291 2770 3770 
Q 2525 4250 2034 4250 
z
M 2034 4750 
Q 2819 4750 3233 4129 
Q 3647 3509 3647 2328 
Q 3647 1150 3233 529 
Q 2819 -91 2034 -91 
Q 1250 -91 836 529 
Q 422 1150 422 2328 
Q 422 3509 836 4129 
Q 1250 4750 2034 4750 
z
" transform="scale(0.015625)"/>
       </defs>
       <use xlink:href="#DejaVuSans-30"/>
      </g>
     </g>
    </g>
    <g id="xtick_2">
     <g id="line2d_3">
      <path d="M 120.805239 252 
L 120.805239 34.56 
" clip-path="url(#peeeaa98d90)" style="fill: none; stroke-dasharray: 2.96,1.28; stroke-dashoffset: 0; stroke: #b0b0b0; stroke-width: 0.8"/>
     </g>
     <g id="line2d_4">
      <g>
       <use xlink:href="#m242b0a6f9e" x="120.805239" y="252" style="stroke: #000000; stroke-width: 0.8"/>
      </g>
     </g>
     <g id="text_2">
      <!-- 500 -->
      <g transform="translate(111.261489 266.598437)scale(0.1 -0.1)">
       <defs>
        <path id="DejaVuSans-35" d="M 691 4666 
L 3169 4666 
L 3169 4134 
L 1269 4134 
L 1269 2991 
Q 1406 3038 1543 3061 
Q 1681 3084 1819 3084 
Q 2600 3084 3056 2656 
Q 3513 2228 3513 1497 
Q 3513 744 3044 326 
Q 2575 -91 1722 -91 
Q 1428 -91 1123 -41 
Q 819 9 494 109 
L 494 744 
Q 775 591 1075 516 
Q 1375 441 1709 441 
Q 2250 441 2565 725 
Q 2881 1009 2881 1497 
Q 2881 1984 2565 2268 
Q 2250 2553 1709 2553 
Q 1456 2553 1204 2497 
Q 953 2441 691 2322 
L 691 4666 
z
" transform="scale(0.015625)"/>
       </defs>
       <use xlink:href="#DejaVuSans-35"/>
       <use xlink:href="#DejaVuSans-30" x="63.623047"/>
       <use xlink:href="#DejaVuSans-30" x="127.246094"/>
      </g>
     </g>
    </g>
    <g id="xtick_3">
     <g id="line2d_5">
      <path d="M 172.392296 252 
L 172.392296 34.56 
" clip-path="url(#peeeaa98d90)" style="fill: none; stroke-dasharray: 2.96,1.28; stroke-dashoffset: 0; stroke: #b0b0b0; stroke-width: 0.8"/>
     </g>
     <g id="line2d_6">
      <g>
       <use xlink:href="#m242b0a6f9e" x="172.392296" y="252" style="stroke: #000000; stroke-width: 0.8"/>
      </g>
     </g>
     <g id="text_3">
      <!-- 1000 -->
      <g transform="translate(159.667296 266.598437)scale(0.1 -0.1)">
       <defs>
        <path id="DejaVuSans-31" d="M 794 531 
L 1825 531 
L 1825 4091 
L 703 3866 
L 703 4441 
L 1819 4666 
L 2450 4666 
L 2450 531 
L 3481 531 
L 3481 0 
L 794 0 
L 794 531 
z
" transform="scale(0.015625)"/>
       </defs>
       <use xlink:href="#DejaVuSans-31"/>
       <use xlink:href="#DejaVuSans-30" x="63.623047"/>
       <use xlink:href="#DejaVuSans-30" x="127.246094"/>
       <use xlink:href="#DejaVuSans-30" x="190.869141"/>
      </g>
     </g>
    </g>
    <g id="xtick_4">
     <g id="line2d_7">
      <path d="M 223.979353 252 
L 223.979353 34.56 
" clip-path="url(#peeeaa98d90)" style="fill: none; stroke-dasharray: 2.96,1.28; stroke-dashoffset: 0; stroke: #b0b0b0; stroke-width: 0.8"/>
     </g>
     <g id="line2d_8">
      <g>
       <use xlink:href="#m242b0a6f9e" x="223.979353" y="252" style="stroke: #000000; stroke-width: 0.8"/>
      </g>
     </g>
     <g id="text_4">
      <!-- 1500 -->
      <g transform="translate(211.254353 266.598437)scale(0.1 -0.1)">
       <use xlink:href="#DejaVuSans-31"/>
       <use xlink:href="#DejaVuSans-35" x="63.623047"/>
       <use xlink:href="#DejaVuSans-30" x="127.246094"/>
       <use xlink:href="#DejaVuSans-30" x="190.869141"/>
      </g>
     </g>
    </g>
    <g id="xtick_5">
     <g id="line2d_9">
      <path d="M 275.56641 252 
L 275.56641 34.56 
" clip-path="url(#peeeaa98d90)" style="fill: none; stroke-dasharray: 2.96,1.28; stroke-dashoffset: 0; stroke: #b0b0b0; stroke-width: 0.8"/>
     </g>
     <g id="line2d_10">
      <g>
       <use xlink:href="#m242b0a6f9e" x="275.56641" y="252" style="stroke: #000000; stroke-width: 0.8"/>
      </g>
     </g>
     <g id="text_5">
      <!-- 2000 -->
      <g transform="translate(262.84141 266.598437)scale(0.1 -0.1)">
       <defs>
        <path id="DejaVuSans-32" d="M 1228 531 
L 3431 531 
L 3431 0 
L 469 0 
L 469 531 
Q 828 903 1448 1529 
Q 2069 2156 2228 2338 
Q 2531 2678 2651 2914 
Q 2772 3150 2772 3378 
Q 2772 3750 2511 3984 
Q 2250 4219 1831 4219 
Q 1534 4219 1204 4116 
Q 875 4013 500 3803 
L 500 4441 
Q 881 4594 1212 4672 
Q 1544 4750 1819 4750 
Q 2544 4750 2975 4387 
Q 3406 4025 3406 3419 
Q 3406 3131 3298 2873 
Q 3191 2616 2906 2266 
Q 2828 2175 2409 1742 
Q 1991 1309 1228 531 
z
" transform="scale(0.015625)"/>
       </defs>
       <use xlink:href="#DejaVuSans-32"/>
       <use xlink:href="#DejaVuSans-30" x="63.623047"/>
       <use xlink:href="#DejaVuSans-30" x="127.246094"/>
       <use xlink:href="#DejaVuSans-30" x="190.869141"/>
      </g>
     </g>
    </g>
    <g id="xtick_6">
     <g id="line2d_11">
      <path d="M 327.153467 252 
L 327.153467 34.56 
" clip-path="url(#peeeaa98d90)" style="fill: none; stroke-dasharray: 2.96,1.28; stroke-dashoffset: 0; stroke: #b0b0b0; stroke-width: 0.8"/>
     </g>
     <g id="line2d_12">
      <g>
       <use xlink:href="#m242b0a6f9e" x="327.153467" y="252" style="stroke: #000000; stroke-width: 0.8"/>
      </g>
     </g>
     <g id="text_6">
      <!-- 2500 -->
      <g transform="translate(314.428467 266.598437)scale(0.1 -0.1)">
       <use xlink:href="#DejaVuSans-32"/>
       <use xlink:href="#DejaVuSans-35" x="63.623047"/>
       <use xlink:href="#DejaVuSans-30" x="127.246094"/>
       <use xlink:href="#DejaVuSans-30" x="190.869141"/>
      </g>
     </g>
    </g>
    <g id="xtick_7">
     <g id="line2d_13">
      <path d="M 378.740524 252 
L 378.740524 34.56 
" clip-path="url(#peeeaa98d90)" style="fill: none; stroke-dasharray: 2.96,1.28; stroke-dashoffset: 0; stroke: #b0b0b0; stroke-width: 0.8"/>
     </g>
     <g id="line2d_14">
      <g>
       <use xlink:href="#m242b0a6f9e" x="378.740524" y="252" style="stroke: #000000; stroke-width: 0.8"/>
      </g>
     </g>
     <g id="text_7">
      <!-- 3000 -->
      <g transform="translate(366.015524 266.598437)scale(0.1 -0.1)">
       <defs>
        <path id="DejaVuSans-33" d="M 2597 2516 
Q 3050 2419 3304 2112 
Q 3559 1806 3559 1356 
Q 3559 666 3084 287 
Q 2609 -91 1734 -91 
Q 1441 -91 1130 -33 
Q 819 25 488 141 
L 488 750 
Q 750 597 1062 519 
Q 1375 441 1716 441 
Q 2309 441 2620 675 
Q 2931 909 2931 1356 
Q 2931 1769 2642 2001 
Q 2353 2234 1838 2234 
L 1294 2234 
L 1294 2753 
L 1863 2753 
Q 2328 2753 2575 2939 
Q 2822 3125 2822 3475 
Q 2822 3834 2567 4026 
Q 2313 4219 1838 4219 
Q 1578 4219 1281 4162 
Q 984 4106 628 3988 
L 628 4550 
Q 988 4650 1302 4700 
Q 1616 4750 1894 4750 
Q 2613 4750 3031 4423 
Q 3450 4097 3450 3541 
Q 3450 3153 3228 2886 
Q 3006 2619 2597 2516 
z
" transform="scale(0.015625)"/>
       </defs>
       <use xlink:href="#DejaVuSans-33"/>
       <use xlink:href="#DejaVuSans-30" x="63.623047"/>
       <use xlink:href="#DejaVuSans-30" x="127.246094"/>
       <use xlink:href="#DejaVuSans-30" x="190.869141"/>
      </g>
     </g>
    </g>
    <g id="text_8">
     <!-- Steps -->
     <g transform="translate(207.410156 280.276563)scale(0.1 -0.1)">
      <defs>
       <path id="DejaVuSans-53" d="M 3425 4513 
L 3425 3897 
Q 3066 4069 2747 4153 
Q 2428 4238 2131 4238 
Q 1616 4238 1336 4038 
Q 1056 3838 1056 3469 
Q 1056 3159 1242 3001 
Q 1428 2844 1947 2747 
L 2328 2669 
Q 3034 2534 3370 2195 
Q 3706 1856 3706 1288 
Q 3706 609 3251 259 
Q 2797 -91 1919 -91 
Q 1588 -91 1214 -16 
Q 841 59 441 206 
L 441 856 
Q 825 641 1194 531 
Q 1563 422 1919 422 
Q 2459 422 2753 634 
Q 3047 847 3047 1241 
Q 3047 1584 2836 1778 
Q 2625 1972 2144 2069 
L 1759 2144 
Q 1053 2284 737 2584 
Q 422 2884 422 3419 
Q 422 4038 858 4394 
Q 1294 4750 2059 4750 
Q 2388 4750 2728 4690 
Q 3069 4631 3425 4513 
z
" transform="scale(0.015625)"/>
       <path id="DejaVuSans-74" d="M 1172 4494 
L 1172 3500 
L 2356 3500 
L 2356 3053 
L 1172 3053 
L 1172 1153 
Q 1172 725 1289 603 
Q 1406 481 1766 481 
L 2356 481 
L 2356 0 
L 1766 0 
Q 1100 0 847 248 
Q 594 497 594 1153 
L 594 3053 
L 172 3053 
L 172 3500 
L 594 3500 
L 594 4494 
L 1172 4494 
z
" transform="scale(0.015625)"/>
       <path id="DejaVuSans-65" d="M 3597 1894 
L 3597 1613 
L 953 1613 
Q 991 1019 1311 708 
Q 1631 397 2203 397 
Q 2534 397 2845 478 
Q 3156 559 3463 722 
L 3463 178 
Q 3153 47 2828 -22 
Q 2503 -91 2169 -91 
Q 1331 -91 842 396 
Q 353 884 353 1716 
Q 353 2575 817 3079 
Q 1281 3584 2069 3584 
Q 2775 3584 3186 3129 
Q 3597 2675 3597 1894 
z
M 3022 2063 
Q 3016 2534 2758 2815 
Q 2500 3097 2075 3097 
Q 1594 3097 1305 2825 
Q 1016 2553 972 2059 
L 3022 2063 
z
" transform="scale(0.015625)"/>
       <path id="DejaVuSans-70" d="M 1159 525 
L 1159 -1331 
L 581 -1331 
L 581 3500 
L 1159 3500 
L 1159 2969 
Q 1341 3281 1617 3432 
Q 1894 3584 2278 3584 
Q 2916 3584 3314 3078 
Q 3713 2572 3713 1747 
Q 3713 922 3314 415 
Q 2916 -91 2278 -91 
Q 1894 -91 1617 61 
Q 1341 213 1159 525 
z
M 3116 1747 
Q 3116 2381 2855 2742 
Q 2594 3103 2138 3103 
Q 1681 3103 1420 2742 
Q 1159 2381 1159 1747 
Q 1159 1113 1420 752 
Q 1681 391 2138 391 
Q 2594 391 2855 752 
Q 3116 1113 3116 1747 
z
" transform="scale(0.015625)"/>
       <path id="DejaVuSans-73" d="M 2834 3397 
L 2834 2853 
Q 2591 2978 2328 3040 
Q 2066 3103 1784 3103 
Q 1356 3103 1142 2972 
Q 928 2841 928 2578 
Q 928 2378 1081 2264 
Q 1234 2150 1697 2047 
L 1894 2003 
Q 2506 1872 2764 1633 
Q 3022 1394 3022 966 
Q 3022 478 2636 193 
Q 2250 -91 1575 -91 
Q 1294 -91 989 -36 
Q 684 19 347 128 
L 347 722 
Q 666 556 975 473 
Q 1284 391 1588 391 
Q 1994 391 2212 530 
Q 2431 669 2431 922 
Q 2431 1156 2273 1281 
Q 2116 1406 1581 1522 
L 1381 1569 
Q 847 1681 609 1914 
Q 372 2147 372 2553 
Q 372 3047 722 3315 
Q 1072 3584 1716 3584 
Q 2034 3584 2315 3537 
Q 2597 3491 2834 3397 
z
" transform="scale(0.015625)"/>
      </defs>
      <use xlink:href="#DejaVuSans-53"/>
      <use xlink:href="#DejaVuSans-74" x="63.476562"/>
      <use xlink:href="#DejaVuSans-65" x="102.685547"/>
      <use xlink:href="#DejaVuSans-70" x="164.208984"/>
      <use xlink:href="#DejaVuSans-73" x="227.685547"/>
     </g>
    </g>
   </g>
   <g id="matplotlib.axis_2">
    <g id="ytick_1">
     <g id="line2d_15">
      <path d="M 54 243.636923 
L 388.8 243.636923 
" clip-path="url(#peeeaa98d90)" style="fill: none; stroke-dasharray: 2.96,1.28; stroke-dashoffset: 0; stroke: #b0b0b0; stroke-width: 0.8"/>
     </g>
     <g id="line2d_16">
      <defs>
       <path id="mcbbf5c9a90" d="M 0 0 
L -3.5 0 
" style="stroke: #000000; stroke-width: 0.8"/>
      </defs>
      <g>
       <use xlink:href="#mcbbf5c9a90" x="54" y="243.636923" style="stroke: #000000; stroke-width: 0.8"/>
      </g>
     </g>
     <g id="text_9">
      <!-- −12 -->
      <g transform="translate(25.895312 247.436142)scale(0.1 -0.1)">
       <defs>
        <path id="DejaVuSans-2212" d="M 678 2272 
L 4684 2272 
L 4684 1741 
L 678 1741 
L 678 2272 
z
" transform="scale(0.015625)"/>
       </defs>
       <use xlink:href="#DejaVuSans-2212"/>
       <use xlink:href="#DejaVuSans-31" x="83.789062"/>
       <use xlink:href="#DejaVuSans-32" x="147.412109"/>
      </g>
     </g>
    </g>
    <g id="ytick_2">
     <g id="line2d_17">
      <path d="M 54 210.184615 
L 388.8 210.184615 
" clip-path="url(#peeeaa98d90)" style="fill: none; stroke-dasharray: 2.96,1.28; stroke-dashoffset: 0; stroke: #b0b0b0; stroke-width: 0.8"/>
     </g>
     <g id="line2d_18">
      <g>
       <use xlink:href="#mcbbf5c9a90" x="54" y="210.184615" style="stroke: #000000; stroke-width: 0.8"/>
      </g>
     </g>
     <g id="text_10">
      <!-- −10 -->
      <g transform="translate(25.895312 213.983834)scale(0.1 -0.1)">
       <use xlink:href="#DejaVuSans-2212"/>
       <use xlink:href="#DejaVuSans-31" x="83.789062"/>
       <use xlink:href="#DejaVuSans-30" x="147.412109"/>
      </g>
     </g>
    </g>
    <g id="ytick_3">
     <g id="line2d_19">
      <path d="M 54 176.732308 
L 388.8 176.732308 
" clip-path="url(#peeeaa98d90)" style="fill: none; stroke-dasharray: 2.96,1.28; stroke-dashoffset: 0; stroke: #b0b0b0; stroke-width: 0.8"/>
     </g>
     <g id="line2d_20">
      <g>
       <use xlink:href="#mcbbf5c9a90" x="54" y="176.732308" style="stroke: #000000; stroke-width: 0.8"/>
      </g>
     </g>
     <g id="text_11">
      <!-- −8 -->
      <g transform="translate(32.257812 180.531526)scale(0.1 -0.1)">
       <defs>
        <path id="DejaVuSans-38" d="M 2034 2216 
Q 1584 2216 1326 1975 
Q 1069 1734 1069 1313 
Q 1069 891 1326 650 
Q 1584 409 2034 409 
Q 2484 409 2743 651 
Q 3003 894 3003 1313 
Q 3003 1734 2745 1975 
Q 2488 2216 2034 2216 
z
M 1403 2484 
Q 997 2584 770 2862 
Q 544 3141 544 3541 
Q 544 4100 942 4425 
Q 1341 4750 2034 4750 
Q 2731 4750 3128 4425 
Q 3525 4100 3525 3541 
Q 3525 3141 3298 2862 
Q 3072 2584 2669 2484 
Q 3125 2378 3379 2068 
Q 3634 1759 3634 1313 
Q 3634 634 3220 271 
Q 2806 -91 2034 -91 
Q 1263 -91 848 271 
Q 434 634 434 1313 
Q 434 1759 690 2068 
Q 947 2378 1403 2484 
z
M 1172 3481 
Q 1172 3119 1398 2916 
Q 1625 2713 2034 2713 
Q 2441 2713 2670 2916 
Q 2900 3119 2900 3481 
Q 2900 3844 2670 4047 
Q 2441 4250 2034 4250 
Q 1625 4250 1398 4047 
Q 1172 3844 1172 3481 
z
" transform="scale(0.015625)"/>
       </defs>
       <use xlink:href="#DejaVuSans-2212"/>
       <use xlink:href="#DejaVuSans-38" x="83.789062"/>
      </g>
     </g>
    </g>
    <g id="ytick_4">
     <g id="line2d_21">
      <path d="M 54 143.28 
L 388.8 143.28 
" clip-path="url(#peeeaa98d90)" style="fill: none; stroke-dasharray: 2.96,1.28; stroke-dashoffset: 0; stroke: #b0b0b0; stroke-width: 0.8"/>
     </g>
     <g id="line2d_22">
      <g>
       <use xlink:href="#mcbbf5c9a90" x="54" y="143.28" style="stroke: #000000; stroke-width: 0.8"/>
      </g>
     </g>
     <g id="text_12">
      <!-- −6 -->
      <g transform="translate(32.257812 147.079219)scale(0.1 -0.1)">
       <defs>
        <path id="DejaVuSans-36" d="M 2113 2584 
Q 1688 2584 1439 2293 
Q 1191 2003 1191 1497 
Q 1191 994 1439 701 
Q 1688 409 2113 409 
Q 2538 409 2786 701 
Q 3034 994 3034 1497 
Q 3034 2003 2786 2293 
Q 2538 2584 2113 2584 
z
M 3366 4563 
L 3366 3988 
Q 3128 4100 2886 4159 
Q 2644 4219 2406 4219 
Q 1781 4219 1451 3797 
Q 1122 3375 1075 2522 
Q 1259 2794 1537 2939 
Q 1816 3084 2150 3084 
Q 2853 3084 3261 2657 
Q 3669 2231 3669 1497 
Q 3669 778 3244 343 
Q 2819 -91 2113 -91 
Q 1303 -91 875 529 
Q 447 1150 447 2328 
Q 447 3434 972 4092 
Q 1497 4750 2381 4750 
Q 2619 4750 2861 4703 
Q 3103 4656 3366 4563 
z
" transform="scale(0.015625)"/>
       </defs>
       <use xlink:href="#DejaVuSans-2212"/>
       <use xlink:href="#DejaVuSans-36" x="83.789062"/>
      </g>
     </g>
    </g>
    <g id="ytick_5">
     <g id="line2d_23">
      <path d="M 54 109.827692 
L 388.8 109.827692 
" clip-path="url(#peeeaa98d90)" style="fill: none; stroke-dasharray: 2.96,1.28; stroke-dashoffset: 0; stroke: #b0b0b0; stroke-width: 0.8"/>
     </g>
     <g id="line2d_24">
      <g>
       <use xlink:href="#mcbbf5c9a90" x="54" y="109.827692" style="stroke: #000000; stroke-width: 0.8"/>
      </g>
     </g>
     <g id="text_13">
      <!-- −4 -->
      <g transform="translate(32.257812 113.626911)scale(0.1 -0.1)">
       <defs>
        <path id="DejaVuSans-34" d="M 2419 4116 
L 825 1625 
L 2419 1625 
L 2419 4116 
z
M 2253 4666 
L 3047 4666 
L 3047 1625 
L 3713 1625 
L 3713 1100 
L 3047 1100 
L 3047 0 
L 2419 0 
L 2419 1100 
L 313 1100 
L 313 1709 
L 2253 4666 
z
" transform="scale(0.015625)"/>
       </defs>
       <use xlink:href="#DejaVuSans-2212"/>
       <use xlink:href="#DejaVuSans-34" x="83.789062"/>
      </g>
     </g>
    </g>
    <g id="ytick_6">
     <g id="line2d_25">
      <path d="M 54 76.375385 
L 388.8 76.375385 
" clip-path="url(#peeeaa98d90)" style="fill: none; stroke-dasharray: 2.96,1.28; stroke-dashoffset: 0; stroke: #b0b0b0; stroke-width: 0.8"/>
     </g>
     <g id="line2d_26">
      <g>
       <use xlink:href="#mcbbf5c9a90" x="54" y="76.375385" style="stroke: #000000; stroke-width: 0.8"/>
      </g>
     </g>
     <g id="text_14">
      <!-- −2 -->
      <g transform="translate(32.257812 80.174603)scale(0.1 -0.1)">
       <use xlink:href="#DejaVuSans-2212"/>
       <use xlink:href="#DejaVuSans-32" x="83.789062"/>
      </g>
     </g>
    </g>
    <g id="ytick_7">
     <g id="line2d_27">
      <path d="M 54 42.923077 
L 388.8 42.923077 
" clip-path="url(#peeeaa98d90)" style="fill: none; stroke-dasharray: 2.96,1.28; stroke-dashoffset: 0; stroke: #b0b0b0; stroke-width: 0.8"/>
     </g>
     <g id="line2d_28">
      <g>
       <use xlink:href="#mcbbf5c9a90" x="54" y="42.923077" style="stroke: #000000; stroke-width: 0.8"/>
      </g>
     </g>
     <g id="text_15">
      <!-- 0 -->
      <g transform="translate(40.6375 46.722296)scale(0.1 -0.1)">
       <use xlink:href="#DejaVuSans-30"/>
      </g>
     </g>
    </g>
    <g id="text_16">
     <!-- Policy value error -->
     <g transform="translate(19.815625 186.597969)rotate(-90)scale(0.1 -0.1)">
      <defs>
       <path id="DejaVuSans-50" d="M 1259 4147 
L 1259 2394 
L 2053 2394 
Q 2494 2394 2734 2622 
Q 2975 2850 2975 3272 
Q 2975 3691 2734 3919 
Q 2494 4147 2053 4147 
L 1259 4147 
z
M 628 4666 
L 2053 4666 
Q 2838 4666 3239 4311 
Q 3641 3956 3641 3272 
Q 3641 2581 3239 2228 
Q 2838 1875 2053 1875 
L 1259 1875 
L 1259 0 
L 628 0 
L 628 4666 
z
" transform="scale(0.015625)"/>
       <path id="DejaVuSans-6f" d="M 1959 3097 
Q 1497 3097 1228 2736 
Q 959 2375 959 1747 
Q 959 1119 1226 758 
Q 1494 397 1959 397 
Q 2419 397 2687 759 
Q 2956 1122 2956 1747 
Q 2956 2369 2687 2733 
Q 2419 3097 1959 3097 
z
M 1959 3584 
Q 2709 3584 3137 3096 
Q 3566 2609 3566 1747 
Q 3566 888 3137 398 
Q 2709 -91 1959 -91 
Q 1206 -91 779 398 
Q 353 888 353 1747 
Q 353 2609 779 3096 
Q 1206 3584 1959 3584 
z
" transform="scale(0.015625)"/>
       <path id="DejaVuSans-6c" d="M 603 4863 
L 1178 4863 
L 1178 0 
L 603 0 
L 603 4863 
z
" transform="scale(0.015625)"/>
       <path id="DejaVuSans-69" d="M 603 3500 
L 1178 3500 
L 1178 0 
L 603 0 
L 603 3500 
z
M 603 4863 
L 1178 4863 
L 1178 4134 
L 603 4134 
L 603 4863 
z
" transform="scale(0.015625)"/>
       <path id="DejaVuSans-63" d="M 3122 3366 
L 3122 2828 
Q 2878 2963 2633 3030 
Q 2388 3097 2138 3097 
Q 1578 3097 1268 2742 
Q 959 2388 959 1747 
Q 959 1106 1268 751 
Q 1578 397 2138 397 
Q 2388 397 2633 464 
Q 2878 531 3122 666 
L 3122 134 
Q 2881 22 2623 -34 
Q 2366 -91 2075 -91 
Q 1284 -91 818 406 
Q 353 903 353 1747 
Q 353 2603 823 3093 
Q 1294 3584 2113 3584 
Q 2378 3584 2631 3529 
Q 2884 3475 3122 3366 
z
" transform="scale(0.015625)"/>
       <path id="DejaVuSans-79" d="M 2059 -325 
Q 1816 -950 1584 -1140 
Q 1353 -1331 966 -1331 
L 506 -1331 
L 506 -850 
L 844 -850 
Q 1081 -850 1212 -737 
Q 1344 -625 1503 -206 
L 1606 56 
L 191 3500 
L 800 3500 
L 1894 763 
L 2988 3500 
L 3597 3500 
L 2059 -325 
z
" transform="scale(0.015625)"/>
       <path id="DejaVuSans-20" transform="scale(0.015625)"/>
       <path id="DejaVuSans-76" d="M 191 3500 
L 800 3500 
L 1894 563 
L 2988 3500 
L 3597 3500 
L 2284 0 
L 1503 0 
L 191 3500 
z
" transform="scale(0.015625)"/>
       <path id="DejaVuSans-61" d="M 2194 1759 
Q 1497 1759 1228 1600 
Q 959 1441 959 1056 
Q 959 750 1161 570 
Q 1363 391 1709 391 
Q 2188 391 2477 730 
Q 2766 1069 2766 1631 
L 2766 1759 
L 2194 1759 
z
M 3341 1997 
L 3341 0 
L 2766 0 
L 2766 531 
Q 2569 213 2275 61 
Q 1981 -91 1556 -91 
Q 1019 -91 701 211 
Q 384 513 384 1019 
Q 384 1609 779 1909 
Q 1175 2209 1959 2209 
L 2766 2209 
L 2766 2266 
Q 2766 2663 2505 2880 
Q 2244 3097 1772 3097 
Q 1472 3097 1187 3025 
Q 903 2953 641 2809 
L 641 3341 
Q 956 3463 1253 3523 
Q 1550 3584 1831 3584 
Q 2591 3584 2966 3190 
Q 3341 2797 3341 1997 
z
" transform="scale(0.015625)"/>
       <path id="DejaVuSans-75" d="M 544 1381 
L 544 3500 
L 1119 3500 
L 1119 1403 
Q 1119 906 1312 657 
Q 1506 409 1894 409 
Q 2359 409 2629 706 
Q 2900 1003 2900 1516 
L 2900 3500 
L 3475 3500 
L 3475 0 
L 2900 0 
L 2900 538 
Q 2691 219 2414 64 
Q 2138 -91 1772 -91 
Q 1169 -91 856 284 
Q 544 659 544 1381 
z
M 1991 3584 
L 1991 3584 
z
" transform="scale(0.015625)"/>
       <path id="DejaVuSans-72" d="M 2631 2963 
Q 2534 3019 2420 3045 
Q 2306 3072 2169 3072 
Q 1681 3072 1420 2755 
Q 1159 2438 1159 1844 
L 1159 0 
L 581 0 
L 581 3500 
L 1159 3500 
L 1159 2956 
Q 1341 3275 1631 3429 
Q 1922 3584 2338 3584 
Q 2397 3584 2469 3576 
Q 2541 3569 2628 3553 
L 2631 2963 
z
" transform="scale(0.015625)"/>
      </defs>
      <use xlink:href="#DejaVuSans-50"/>
      <use xlink:href="#DejaVuSans-6f" x="56.677734"/>
      <use xlink:href="#DejaVuSans-6c" x="117.859375"/>
      <use xlink:href="#DejaVuSans-69" x="145.642578"/>
      <use xlink:href="#DejaVuSans-63" x="173.425781"/>
      <use xlink:href="#DejaVuSans-79" x="228.40625"/>
      <use xlink:href="#DejaVuSans-20" x="287.585938"/>
      <use xlink:href="#DejaVuSans-76" x="319.373047"/>
      <use xlink:href="#DejaVuSans-61" x="378.552734"/>
      <use xlink:href="#DejaVuSans-6c" x="439.832031"/>
      <use xlink:href="#DejaVuSans-75" x="467.615234"/>
      <use xlink:href="#DejaVuSans-65" x="530.994141"/>
      <use xlink:href="#DejaVuSans-20" x="592.517578"/>
      <use xlink:href="#DejaVuSans-65" x="624.304688"/>
      <use xlink:href="#DejaVuSans-72" x="685.828125"/>
      <use xlink:href="#DejaVuSans-72" x="725.191406"/>
      <use xlink:href="#DejaVuSans-6f" x="764.054688"/>
      <use xlink:href="#DejaVuSans-72" x="825.236328"/>
     </g>
    </g>
   </g>
   <g id="line2d_29">
    <path d="M 69.218182 258.119141 
L 74.376888 253.076281 
L 79.535593 254.744706 
L 84.694299 252.855365 
L 89.853005 252.908818 
L 95.01171 253.796405 
L 100.170416 250.466694 
L 105.329122 254.310393 
L 110.487827 249.118602 
L 115.646533 205.098868 
L 120.805239 195.397806 
L 125.963945 205.307836 
L 131.12265 256.857155 
L 136.281356 223.145401 
L 141.440062 216.184145 
L 146.598767 256.94334 
L 151.757473 231.170077 
L 156.916179 189.722112 
L 162.074884 178.79377 
L 167.23359 182.543805 
L 172.392296 185.343142 
L 177.551002 193.380671 
L 182.709707 185.342136 
L 187.868413 187.560639 
L 193.027119 185.775915 
L 198.185824 189.515585 
L 203.34453 179.612512 
L 208.503236 179.01056 
L 213.661941 179.127927 
L 218.820647 188.134092 
L 223.979353 188.048932 
L 229.138059 188.044794 
L 234.296764 188.045417 
L 239.45547 188.044794 
L 244.614176 188.135401 
L 249.772881 187.227518 
L 254.931587 177.497997 
L 260.090293 177.498737 
L 265.248998 177.501353 
L 270.407704 177.497879 
L 275.56641 162.750086 
L 280.725116 162.749355 
L 285.883821 162.74252 
L 291.042527 162.74252 
L 296.201233 162.74252 
L 301.359938 162.74252 
L 306.518644 162.74252 
L 311.67735 162.74252 
L 316.836055 129.733895 
L 321.994761 119.138749 
L 327.153467 49.058248 
L 332.312173 49.058248 
L 337.470878 49.058248 
L 342.629584 49.004053 
L 347.78829 49.058248 
L 352.946995 47.004336 
L 358.105701 47.004336 
L 363.264407 47.004336 
L 368.423112 47.004336 
L 373.581818 46.919589 
" clip-path="url(#peeeaa98d90)" style="fill: none; stroke: #9d02d7; stroke-width: 1.5; stroke-linecap: square"/>
    <defs>
     <path id="m02b4629fbb" d="M 0 -2 
L -2 2 
L 2 2 
z
" style="stroke: #9d02d7; stroke-linejoin: miter"/>
    </defs>
    <g clip-path="url(#peeeaa98d90)">
     <use xlink:href="#m02b4629fbb" x="69.218182" y="258.119141" style="fill: #9d02d7; stroke: #9d02d7; stroke-linejoin: miter"/>
     <use xlink:href="#m02b4629fbb" x="74.376888" y="253.076281" style="fill: #9d02d7; stroke: #9d02d7; stroke-linejoin: miter"/>
     <use xlink:href="#m02b4629fbb" x="79.535593" y="254.744706" style="fill: #9d02d7; stroke: #9d02d7; stroke-linejoin: miter"/>
     <use xlink:href="#m02b4629fbb" x="84.694299" y="252.855365" style="fill: #9d02d7; stroke: #9d02d7; stroke-linejoin: miter"/>
     <use xlink:href="#m02b4629fbb" x="89.853005" y="252.908818" style="fill: #9d02d7; stroke: #9d02d7; stroke-linejoin: miter"/>
     <use xlink:href="#m02b4629fbb" x="95.01171" y="253.796405" style="fill: #9d02d7; stroke: #9d02d7; stroke-linejoin: miter"/>
     <use xlink:href="#m02b4629fbb" x="100.170416" y="250.466694" style="fill: #9d02d7; stroke: #9d02d7; stroke-linejoin: miter"/>
     <use xlink:href="#m02b4629fbb" x="105.329122" y="254.310393" style="fill: #9d02d7; stroke: #9d02d7; stroke-linejoin: miter"/>
     <use xlink:href="#m02b4629fbb" x="110.487827" y="249.118602" style="fill: #9d02d7; stroke: #9d02d7; stroke-linejoin: miter"/>
     <use xlink:href="#m02b4629fbb" x="115.646533" y="205.098868" style="fill: #9d02d7; stroke: #9d02d7; stroke-linejoin: miter"/>
     <use xlink:href="#m02b4629fbb" x="120.805239" y="195.397806" style="fill: #9d02d7; stroke: #9d02d7; stroke-linejoin: miter"/>
     <use xlink:href="#m02b4629fbb" x="125.963945" y="205.307836" style="fill: #9d02d7; stroke: #9d02d7; stroke-linejoin: miter"/>
     <use xlink:href="#m02b4629fbb" x="131.12265" y="256.857155" style="fill: #9d02d7; stroke: #9d02d7; stroke-linejoin: miter"/>
     <use xlink:href="#m02b4629fbb" x="136.281356" y="223.145401" style="fill: #9d02d7; stroke: #9d02d7; stroke-linejoin: miter"/>
     <use xlink:href="#m02b4629fbb" x="141.440062" y="216.184145" style="fill: #9d02d7; stroke: #9d02d7; stroke-linejoin: miter"/>
     <use xlink:href="#m02b4629fbb" x="146.598767" y="256.94334" style="fill: #9d02d7; stroke: #9d02d7; stroke-linejoin: miter"/>
     <use xlink:href="#m02b4629fbb" x="151.757473" y="231.170077" style="fill: #9d02d7; stroke: #9d02d7; stroke-linejoin: miter"/>
     <use xlink:href="#m02b4629fbb" x="156.916179" y="189.722112" style="fill: #9d02d7; stroke: #9d02d7; stroke-linejoin: miter"/>
     <use xlink:href="#m02b4629fbb" x="162.074884" y="178.79377" style="fill: #9d02d7; stroke: #9d02d7; stroke-linejoin: miter"/>
     <use xlink:href="#m02b4629fbb" x="167.23359" y="182.543805" style="fill: #9d02d7; stroke: #9d02d7; stroke-linejoin: miter"/>
     <use xlink:href="#m02b4629fbb" x="172.392296" y="185.343142" style="fill: #9d02d7; stroke: #9d02d7; stroke-linejoin: miter"/>
     <use xlink:href="#m02b4629fbb" x="177.551002" y="193.380671" style="fill: #9d02d7; stroke: #9d02d7; stroke-linejoin: miter"/>
     <use xlink:href="#m02b4629fbb" x="182.709707" y="185.342136" style="fill: #9d02d7; stroke: #9d02d7; stroke-linejoin: miter"/>
     <use xlink:href="#m02b4629fbb" x="187.868413" y="187.560639" style="fill: #9d02d7; stroke: #9d02d7; stroke-linejoin: miter"/>
     <use xlink:href="#m02b4629fbb" x="193.027119" y="185.775915" style="fill: #9d02d7; stroke: #9d02d7; stroke-linejoin: miter"/>
     <use xlink:href="#m02b4629fbb" x="198.185824" y="189.515585" style="fill: #9d02d7; stroke: #9d02d7; stroke-linejoin: miter"/>
     <use xlink:href="#m02b4629fbb" x="203.34453" y="179.612512" style="fill: #9d02d7; stroke: #9d02d7; stroke-linejoin: miter"/>
     <use xlink:href="#m02b4629fbb" x="208.503236" y="179.01056" style="fill: #9d02d7; stroke: #9d02d7; stroke-linejoin: miter"/>
     <use xlink:href="#m02b4629fbb" x="213.661941" y="179.127927" style="fill: #9d02d7; stroke: #9d02d7; stroke-linejoin: miter"/>
     <use xlink:href="#m02b4629fbb" x="218.820647" y="188.134092" style="fill: #9d02d7; stroke: #9d02d7; stroke-linejoin: miter"/>
     <use xlink:href="#m02b4629fbb" x="223.979353" y="188.048932" style="fill: #9d02d7; stroke: #9d02d7; stroke-linejoin: miter"/>
     <use xlink:href="#m02b4629fbb" x="229.138059" y="188.044794" style="fill: #9d02d7; stroke: #9d02d7; stroke-linejoin: miter"/>
     <use xlink:href="#m02b4629fbb" x="234.296764" y="188.045417" style="fill: #9d02d7; stroke: #9d02d7; stroke-linejoin: miter"/>
     <use xlink:href="#m02b4629fbb" x="239.45547" y="188.044794" style="fill: #9d02d7; stroke: #9d02d7; stroke-linejoin: miter"/>
     <use xlink:href="#m02b4629fbb" x="244.614176" y="188.135401" style="fill: #9d02d7; stroke: #9d02d7; stroke-linejoin: miter"/>
     <use xlink:href="#m02b4629fbb" x="249.772881" y="187.227518" style="fill: #9d02d7; stroke: #9d02d7; stroke-linejoin: miter"/>
     <use xlink:href="#m02b4629fbb" x="254.931587" y="177.497997" style="fill: #9d02d7; stroke: #9d02d7; stroke-linejoin: miter"/>
     <use xlink:href="#m02b4629fbb" x="260.090293" y="177.498737" style="fill: #9d02d7; stroke: #9d02d7; stroke-linejoin: miter"/>
     <use xlink:href="#m02b4629fbb" x="265.248998" y="177.501353" style="fill: #9d02d7; stroke: #9d02d7; stroke-linejoin: miter"/>
     <use xlink:href="#m02b4629fbb" x="270.407704" y="177.497879" style="fill: #9d02d7; stroke: #9d02d7; stroke-linejoin: miter"/>
     <use xlink:href="#m02b4629fbb" x="275.56641" y="162.750086" style="fill: #9d02d7; stroke: #9d02d7; stroke-linejoin: miter"/>
     <use xlink:href="#m02b4629fbb" x="280.725116" y="162.749355" style="fill: #9d02d7; stroke: #9d02d7; stroke-linejoin: miter"/>
     <use xlink:href="#m02b4629fbb" x="285.883821" y="162.74252" style="fill: #9d02d7; stroke: #9d02d7; stroke-linejoin: miter"/>
     <use xlink:href="#m02b4629fbb" x="291.042527" y="162.74252" style="fill: #9d02d7; stroke: #9d02d7; stroke-linejoin: miter"/>
     <use xlink:href="#m02b4629fbb" x="296.201233" y="162.74252" style="fill: #9d02d7; stroke: #9d02d7; stroke-linejoin: miter"/>
     <use xlink:href="#m02b4629fbb" x="301.359938" y="162.74252" style="fill: #9d02d7; stroke: #9d02d7; stroke-linejoin: miter"/>
     <use xlink:href="#m02b4629fbb" x="306.518644" y="162.74252" style="fill: #9d02d7; stroke: #9d02d7; stroke-linejoin: miter"/>
     <use xlink:href="#m02b4629fbb" x="311.67735" y="162.74252" style="fill: #9d02d7; stroke: #9d02d7; stroke-linejoin: miter"/>
     <use xlink:href="#m02b4629fbb" x="316.836055" y="129.733895" style="fill: #9d02d7; stroke: #9d02d7; stroke-linejoin: miter"/>
     <use xlink:href="#m02b4629fbb" x="321.994761" y="119.138749" style="fill: #9d02d7; stroke: #9d02d7; stroke-linejoin: miter"/>
     <use xlink:href="#m02b4629fbb" x="327.153467" y="49.058248" style="fill: #9d02d7; stroke: #9d02d7; stroke-linejoin: miter"/>
     <use xlink:href="#m02b4629fbb" x="332.312173" y="49.058248" style="fill: #9d02d7; stroke: #9d02d7; stroke-linejoin: miter"/>
     <use xlink:href="#m02b4629fbb" x="337.470878" y="49.058248" style="fill: #9d02d7; stroke: #9d02d7; stroke-linejoin: miter"/>
     <use xlink:href="#m02b4629fbb" x="342.629584" y="49.004053" style="fill: #9d02d7; stroke: #9d02d7; stroke-linejoin: miter"/>
     <use xlink:href="#m02b4629fbb" x="347.78829" y="49.058248" style="fill: #9d02d7; stroke: #9d02d7; stroke-linejoin: miter"/>
     <use xlink:href="#m02b4629fbb" x="352.946995" y="47.004336" style="fill: #9d02d7; stroke: #9d02d7; stroke-linejoin: miter"/>
     <use xlink:href="#m02b4629fbb" x="358.105701" y="47.004336" style="fill: #9d02d7; stroke: #9d02d7; stroke-linejoin: miter"/>
     <use xlink:href="#m02b4629fbb" x="363.264407" y="47.004336" style="fill: #9d02d7; stroke: #9d02d7; stroke-linejoin: miter"/>
     <use xlink:href="#m02b4629fbb" x="368.423112" y="47.004336" style="fill: #9d02d7; stroke: #9d02d7; stroke-linejoin: miter"/>
     <use xlink:href="#m02b4629fbb" x="373.581818" y="46.919589" style="fill: #9d02d7; stroke: #9d02d7; stroke-linejoin: miter"/>
    </g>
   </g>
   <g id="line2d_30">
    <path d="M 69.218182 268.102825 
L 74.376888 252.911568 
L 79.535593 248.49384 
L 84.694299 252.936867 
L 89.853005 256.435441 
L 95.01171 272.672886 
L 100.170416 262.733043 
L 105.329122 256.610479 
L 110.487827 249.167612 
L 115.646533 243.66732 
L 120.805239 246.420537 
L 125.963945 142.296833 
L 131.12265 166.518017 
L 136.281356 161.609069 
L 141.440062 245.52449 
L 146.598767 246.888986 
L 151.757473 245.524357 
L 156.916179 234.203145 
L 162.074884 160.872488 
L 167.23359 215.478397 
L 172.392296 207.676888 
L 177.551002 209.760915 
L 182.709707 246.798537 
L 187.868413 239.848818 
L 193.027119 202.669783 
L 198.185824 231.740996 
L 203.34453 207.589869 
L 208.503236 208.857006 
L 213.661941 196.833864 
L 218.820647 196.828397 
L 223.979353 197.360085 
L 229.138059 170.454348 
L 234.296764 179.093237 
L 239.45547 170.581391 
L 244.614176 178.883195 
L 249.772881 178.883196 
L 254.931587 170.581392 
L 260.090293 178.883196 
L 265.248998 170.59148 
L 270.407704 170.581392 
L 275.56641 179.092358 
L 280.725116 179.092358 
L 285.883821 178.883192 
L 291.042527 177.192135 
L 296.201233 170.244785 
L 301.359938 170.244785 
L 306.518644 170.244785 
L 311.67735 170.244785 
L 316.836055 175.82221 
L 321.994761 169.791226 
L 327.153467 165.656273 
L 332.312173 165.919867 
L 337.470878 165.919867 
L 342.629584 165.645212 
L 347.78829 43.81123 
L 352.946995 43.81123 
L 358.105701 43.811409 
L 363.264407 43.81123 
L 368.423112 43.81123 
L 373.581818 43.81123 
" clip-path="url(#peeeaa98d90)" style="fill: none; stroke: #0000ff; stroke-width: 1.5; stroke-linecap: square"/>
    <defs>
     <path id="m5f0a4a6b38" d="M 0 2 
C 0.530406 2 1.03916 1.789267 1.414214 1.414214 
C 1.789267 1.03916 2 0.530406 2 0 
C 2 -0.530406 1.789267 -1.03916 1.414214 -1.414214 
C 1.03916 -1.789267 0.530406 -2 0 -2 
C -0.530406 -2 -1.03916 -1.789267 -1.414214 -1.414214 
C -1.789267 -1.03916 -2 -0.530406 -2 0 
C -2 0.530406 -1.789267 1.03916 -1.414214 1.414214 
C -1.03916 1.789267 -0.530406 2 0 2 
z
" style="stroke: #0000ff"/>
    </defs>
    <g clip-path="url(#peeeaa98d90)">
     <use xlink:href="#m5f0a4a6b38" x="69.218182" y="268.102825" style="fill: #0000ff; stroke: #0000ff"/>
     <use xlink:href="#m5f0a4a6b38" x="74.376888" y="252.911568" style="fill: #0000ff; stroke: #0000ff"/>
     <use xlink:href="#m5f0a4a6b38" x="79.535593" y="248.49384" style="fill: #0000ff; stroke: #0000ff"/>
     <use xlink:href="#m5f0a4a6b38" x="84.694299" y="252.936867" style="fill: #0000ff; stroke: #0000ff"/>
     <use xlink:href="#m5f0a4a6b38" x="89.853005" y="256.435441" style="fill: #0000ff; stroke: #0000ff"/>
     <use xlink:href="#m5f0a4a6b38" x="95.01171" y="272.672886" style="fill: #0000ff; stroke: #0000ff"/>
     <use xlink:href="#m5f0a4a6b38" x="100.170416" y="262.733043" style="fill: #0000ff; stroke: #0000ff"/>
     <use xlink:href="#m5f0a4a6b38" x="105.329122" y="256.610479" style="fill: #0000ff; stroke: #0000ff"/>
     <use xlink:href="#m5f0a4a6b38" x="110.487827" y="249.167612" style="fill: #0000ff; stroke: #0000ff"/>
     <use xlink:href="#m5f0a4a6b38" x="115.646533" y="243.66732" style="fill: #0000ff; stroke: #0000ff"/>
     <use xlink:href="#m5f0a4a6b38" x="120.805239" y="246.420537" style="fill: #0000ff; stroke: #0000ff"/>
     <use xlink:href="#m5f0a4a6b38" x="125.963945" y="142.296833" style="fill: #0000ff; stroke: #0000ff"/>
     <use xlink:href="#m5f0a4a6b38" x="131.12265" y="166.518017" style="fill: #0000ff; stroke: #0000ff"/>
     <use xlink:href="#m5f0a4a6b38" x="136.281356" y="161.609069" style="fill: #0000ff; stroke: #0000ff"/>
     <use xlink:href="#m5f0a4a6b38" x="141.440062" y="245.52449" style="fill: #0000ff; stroke: #0000ff"/>
     <use xlink:href="#m5f0a4a6b38" x="146.598767" y="246.888986" style="fill: #0000ff; stroke: #0000ff"/>
     <use xlink:href="#m5f0a4a6b38" x="151.757473" y="245.524357" style="fill: #0000ff; stroke: #0000ff"/>
     <use xlink:href="#m5f0a4a6b38" x="156.916179" y="234.203145" style="fill: #0000ff; stroke: #0000ff"/>
     <use xlink:href="#m5f0a4a6b38" x="162.074884" y="160.872488" style="fill: #0000ff; stroke: #0000ff"/>
     <use xlink:href="#m5f0a4a6b38" x="167.23359" y="215.478397" style="fill: #0000ff; stroke: #0000ff"/>
     <use xlink:href="#m5f0a4a6b38" x="172.392296" y="207.676888" style="fill: #0000ff; stroke: #0000ff"/>
     <use xlink:href="#m5f0a4a6b38" x="177.551002" y="209.760915" style="fill: #0000ff; stroke: #0000ff"/>
     <use xlink:href="#m5f0a4a6b38" x="182.709707" y="246.798537" style="fill: #0000ff; stroke: #0000ff"/>
     <use xlink:href="#m5f0a4a6b38" x="187.868413" y="239.848818" style="fill: #0000ff; stroke: #0000ff"/>
     <use xlink:href="#m5f0a4a6b38" x="193.027119" y="202.669783" style="fill: #0000ff; stroke: #0000ff"/>
     <use xlink:href="#m5f0a4a6b38" x="198.185824" y="231.740996" style="fill: #0000ff; stroke: #0000ff"/>
     <use xlink:href="#m5f0a4a6b38" x="203.34453" y="207.589869" style="fill: #0000ff; stroke: #0000ff"/>
     <use xlink:href="#m5f0a4a6b38" x="208.503236" y="208.857006" style="fill: #0000ff; stroke: #0000ff"/>
     <use xlink:href="#m5f0a4a6b38" x="213.661941" y="196.833864" style="fill: #0000ff; stroke: #0000ff"/>
     <use xlink:href="#m5f0a4a6b38" x="218.820647" y="196.828397" style="fill: #0000ff; stroke: #0000ff"/>
     <use xlink:href="#m5f0a4a6b38" x="223.979353" y="197.360085" style="fill: #0000ff; stroke: #0000ff"/>
     <use xlink:href="#m5f0a4a6b38" x="229.138059" y="170.454348" style="fill: #0000ff; stroke: #0000ff"/>
     <use xlink:href="#m5f0a4a6b38" x="234.296764" y="179.093237" style="fill: #0000ff; stroke: #0000ff"/>
     <use xlink:href="#m5f0a4a6b38" x="239.45547" y="170.581391" style="fill: #0000ff; stroke: #0000ff"/>
     <use xlink:href="#m5f0a4a6b38" x="244.614176" y="178.883195" style="fill: #0000ff; stroke: #0000ff"/>
     <use xlink:href="#m5f0a4a6b38" x="249.772881" y="178.883196" style="fill: #0000ff; stroke: #0000ff"/>
     <use xlink:href="#m5f0a4a6b38" x="254.931587" y="170.581392" style="fill: #0000ff; stroke: #0000ff"/>
     <use xlink:href="#m5f0a4a6b38" x="260.090293" y="178.883196" style="fill: #0000ff; stroke: #0000ff"/>
     <use xlink:href="#m5f0a4a6b38" x="265.248998" y="170.59148" style="fill: #0000ff; stroke: #0000ff"/>
     <use xlink:href="#m5f0a4a6b38" x="270.407704" y="170.581392" style="fill: #0000ff; stroke: #0000ff"/>
     <use xlink:href="#m5f0a4a6b38" x="275.56641" y="179.092358" style="fill: #0000ff; stroke: #0000ff"/>
     <use xlink:href="#m5f0a4a6b38" x="280.725116" y="179.092358" style="fill: #0000ff; stroke: #0000ff"/>
     <use xlink:href="#m5f0a4a6b38" x="285.883821" y="178.883192" style="fill: #0000ff; stroke: #0000ff"/>
     <use xlink:href="#m5f0a4a6b38" x="291.042527" y="177.192135" style="fill: #0000ff; stroke: #0000ff"/>
     <use xlink:href="#m5f0a4a6b38" x="296.201233" y="170.244785" style="fill: #0000ff; stroke: #0000ff"/>
     <use xlink:href="#m5f0a4a6b38" x="301.359938" y="170.244785" style="fill: #0000ff; stroke: #0000ff"/>
     <use xlink:href="#m5f0a4a6b38" x="306.518644" y="170.244785" style="fill: #0000ff; stroke: #0000ff"/>
     <use xlink:href="#m5f0a4a6b38" x="311.67735" y="170.244785" style="fill: #0000ff; stroke: #0000ff"/>
     <use xlink:href="#m5f0a4a6b38" x="316.836055" y="175.82221" style="fill: #0000ff; stroke: #0000ff"/>
     <use xlink:href="#m5f0a4a6b38" x="321.994761" y="169.791226" style="fill: #0000ff; stroke: #0000ff"/>
     <use xlink:href="#m5f0a4a6b38" x="327.153467" y="165.656273" style="fill: #0000ff; stroke: #0000ff"/>
     <use xlink:href="#m5f0a4a6b38" x="332.312173" y="165.919867" style="fill: #0000ff; stroke: #0000ff"/>
     <use xlink:href="#m5f0a4a6b38" x="337.470878" y="165.919867" style="fill: #0000ff; stroke: #0000ff"/>
     <use xlink:href="#m5f0a4a6b38" x="342.629584" y="165.645212" style="fill: #0000ff; stroke: #0000ff"/>
     <use xlink:href="#m5f0a4a6b38" x="347.78829" y="43.81123" style="fill: #0000ff; stroke: #0000ff"/>
     <use xlink:href="#m5f0a4a6b38" x="352.946995" y="43.81123" style="fill: #0000ff; stroke: #0000ff"/>
     <use xlink:href="#m5f0a4a6b38" x="358.105701" y="43.811409" style="fill: #0000ff; stroke: #0000ff"/>
     <use xlink:href="#m5f0a4a6b38" x="363.264407" y="43.81123" style="fill: #0000ff; stroke: #0000ff"/>
     <use xlink:href="#m5f0a4a6b38" x="368.423112" y="43.81123" style="fill: #0000ff; stroke: #0000ff"/>
     <use xlink:href="#m5f0a4a6b38" x="373.581818" y="43.81123" style="fill: #0000ff; stroke: #0000ff"/>
    </g>
   </g>
   <g id="line2d_31">
    <path d="M 69.218182 252.908818 
L 74.376888 254.471016 
L 79.535593 255.279363 
L 84.694299 248.706973 
L 89.853005 252.928681 
L 95.01171 252.908818 
L 100.170416 253.316684 
L 105.329122 252.908818 
L 110.487827 257.504339 
L 115.646533 253.763551 
L 120.805239 253.006035 
L 125.963945 252.929341 
L 131.12265 253.161985 
L 136.281356 255.066555 
L 141.440062 252.908818 
L 146.598767 254.377874 
L 151.757473 254.981728 
L 156.916179 253.224753 
L 162.074884 253.127227 
L 167.23359 253.630117 
L 172.392296 255.605601 
L 177.551002 258.943328 
L 182.709707 253.082175 
L 187.868413 263.073561 
L 193.027119 253.29945 
L 198.185824 252.970028 
L 203.34453 253.290716 
L 208.503236 252.916927 
L 213.661941 252.908818 
L 218.820647 255.544537 
L 223.979353 252.328951 
L 229.138059 253.001581 
L 234.296764 252.912409 
L 239.45547 252.966549 
L 244.614176 252.908818 
L 249.772881 253.50278 
L 254.931587 253.205669 
L 260.090293 252.911816 
L 265.248998 252.908818 
L 270.407704 252.994079 
L 275.56641 252.874306 
L 280.725116 252.435705 
L 285.883821 256.883865 
L 291.042527 258.809127 
L 296.201233 259.165183 
L 301.359938 258.91691 
L 306.518644 233.311159 
L 311.67735 227.698947 
L 316.836055 257.804829 
L 321.994761 256.134902 
L 327.153467 209.301278 
L 332.312173 123.861242 
L 337.470878 124.751047 
L 342.629584 72.872364 
L 347.78829 72.872364 
L 352.946995 70.012609 
L 358.105701 69.358248 
L 363.264407 68.883479 
L 368.423112 69.358248 
L 373.581818 68.883479 
" clip-path="url(#peeeaa98d90)" style="fill: none; stroke: #ff7763; stroke-width: 1.5; stroke-linecap: square"/>
    <defs>
     <path id="m3b28a5a3e3" d="M -2 2 
L 2 -2 
M -2 -2 
L 2 2 
" style="stroke: #ff7763"/>
    </defs>
    <g clip-path="url(#peeeaa98d90)">
     <use xlink:href="#m3b28a5a3e3" x="69.218182" y="252.908818" style="fill: #ff7763; stroke: #ff7763"/>
     <use xlink:href="#m3b28a5a3e3" x="74.376888" y="254.471016" style="fill: #ff7763; stroke: #ff7763"/>
     <use xlink:href="#m3b28a5a3e3" x="79.535593" y="255.279363" style="fill: #ff7763; stroke: #ff7763"/>
     <use xlink:href="#m3b28a5a3e3" x="84.694299" y="248.706973" style="fill: #ff7763; stroke: #ff7763"/>
     <use xlink:href="#m3b28a5a3e3" x="89.853005" y="252.928681" style="fill: #ff7763; stroke: #ff7763"/>
     <use xlink:href="#m3b28a5a3e3" x="95.01171" y="252.908818" style="fill: #ff7763; stroke: #ff7763"/>
     <use xlink:href="#m3b28a5a3e3" x="100.170416" y="253.316684" style="fill: #ff7763; stroke: #ff7763"/>
     <use xlink:href="#m3b28a5a3e3" x="105.329122" y="252.908818" style="fill: #ff7763; stroke: #ff7763"/>
     <use xlink:href="#m3b28a5a3e3" x="110.487827" y="257.504339" style="fill: #ff7763; stroke: #ff7763"/>
     <use xlink:href="#m3b28a5a3e3" x="115.646533" y="253.763551" style="fill: #ff7763; stroke: #ff7763"/>
     <use xlink:href="#m3b28a5a3e3" x="120.805239" y="253.006035" style="fill: #ff7763; stroke: #ff7763"/>
     <use xlink:href="#m3b28a5a3e3" x="125.963945" y="252.929341" style="fill: #ff7763; stroke: #ff7763"/>
     <use xlink:href="#m3b28a5a3e3" x="131.12265" y="253.161985" style="fill: #ff7763; stroke: #ff7763"/>
     <use xlink:href="#m3b28a5a3e3" x="136.281356" y="255.066555" style="fill: #ff7763; stroke: #ff7763"/>
     <use xlink:href="#m3b28a5a3e3" x="141.440062" y="252.908818" style="fill: #ff7763; stroke: #ff7763"/>
     <use xlink:href="#m3b28a5a3e3" x="146.598767" y="254.377874" style="fill: #ff7763; stroke: #ff7763"/>
     <use xlink:href="#m3b28a5a3e3" x="151.757473" y="254.981728" style="fill: #ff7763; stroke: #ff7763"/>
     <use xlink:href="#m3b28a5a3e3" x="156.916179" y="253.224753" style="fill: #ff7763; stroke: #ff7763"/>
     <use xlink:href="#m3b28a5a3e3" x="162.074884" y="253.127227" style="fill: #ff7763; stroke: #ff7763"/>
     <use xlink:href="#m3b28a5a3e3" x="167.23359" y="253.630117" style="fill: #ff7763; stroke: #ff7763"/>
     <use xlink:href="#m3b28a5a3e3" x="172.392296" y="255.605601" style="fill: #ff7763; stroke: #ff7763"/>
     <use xlink:href="#m3b28a5a3e3" x="177.551002" y="258.943328" style="fill: #ff7763; stroke: #ff7763"/>
     <use xlink:href="#m3b28a5a3e3" x="182.709707" y="253.082175" style="fill: #ff7763; stroke: #ff7763"/>
     <use xlink:href="#m3b28a5a3e3" x="187.868413" y="263.073561" style="fill: #ff7763; stroke: #ff7763"/>
     <use xlink:href="#m3b28a5a3e3" x="193.027119" y="253.29945" style="fill: #ff7763; stroke: #ff7763"/>
     <use xlink:href="#m3b28a5a3e3" x="198.185824" y="252.970028" style="fill: #ff7763; stroke: #ff7763"/>
     <use xlink:href="#m3b28a5a3e3" x="203.34453" y="253.290716" style="fill: #ff7763; stroke: #ff7763"/>
     <use xlink:href="#m3b28a5a3e3" x="208.503236" y="252.916927" style="fill: #ff7763; stroke: #ff7763"/>
     <use xlink:href="#m3b28a5a3e3" x="213.661941" y="252.908818" style="fill: #ff7763; stroke: #ff7763"/>
     <use xlink:href="#m3b28a5a3e3" x="218.820647" y="255.544537" style="fill: #ff7763; stroke: #ff7763"/>
     <use xlink:href="#m3b28a5a3e3" x="223.979353" y="252.328951" style="fill: #ff7763; stroke: #ff7763"/>
     <use xlink:href="#m3b28a5a3e3" x="229.138059" y="253.001581" style="fill: #ff7763; stroke: #ff7763"/>
     <use xlink:href="#m3b28a5a3e3" x="234.296764" y="252.912409" style="fill: #ff7763; stroke: #ff7763"/>
     <use xlink:href="#m3b28a5a3e3" x="239.45547" y="252.966549" style="fill: #ff7763; stroke: #ff7763"/>
     <use xlink:href="#m3b28a5a3e3" x="244.614176" y="252.908818" style="fill: #ff7763; stroke: #ff7763"/>
     <use xlink:href="#m3b28a5a3e3" x="249.772881" y="253.50278" style="fill: #ff7763; stroke: #ff7763"/>
     <use xlink:href="#m3b28a5a3e3" x="254.931587" y="253.205669" style="fill: #ff7763; stroke: #ff7763"/>
     <use xlink:href="#m3b28a5a3e3" x="260.090293" y="252.911816" style="fill: #ff7763; stroke: #ff7763"/>
     <use xlink:href="#m3b28a5a3e3" x="265.248998" y="252.908818" style="fill: #ff7763; stroke: #ff7763"/>
     <use xlink:href="#m3b28a5a3e3" x="270.407704" y="252.994079" style="fill: #ff7763; stroke: #ff7763"/>
     <use xlink:href="#m3b28a5a3e3" x="275.56641" y="252.874306" style="fill: #ff7763; stroke: #ff7763"/>
     <use xlink:href="#m3b28a5a3e3" x="280.725116" y="252.435705" style="fill: #ff7763; stroke: #ff7763"/>
     <use xlink:href="#m3b28a5a3e3" x="285.883821" y="256.883865" style="fill: #ff7763; stroke: #ff7763"/>
     <use xlink:href="#m3b28a5a3e3" x="291.042527" y="258.809127" style="fill: #ff7763; stroke: #ff7763"/>
     <use xlink:href="#m3b28a5a3e3" x="296.201233" y="259.165183" style="fill: #ff7763; stroke: #ff7763"/>
     <use xlink:href="#m3b28a5a3e3" x="301.359938" y="258.91691" style="fill: #ff7763; stroke: #ff7763"/>
     <use xlink:href="#m3b28a5a3e3" x="306.518644" y="233.311159" style="fill: #ff7763; stroke: #ff7763"/>
     <use xlink:href="#m3b28a5a3e3" x="311.67735" y="227.698947" style="fill: #ff7763; stroke: #ff7763"/>
     <use xlink:href="#m3b28a5a3e3" x="316.836055" y="257.804829" style="fill: #ff7763; stroke: #ff7763"/>
     <use xlink:href="#m3b28a5a3e3" x="321.994761" y="256.134902" style="fill: #ff7763; stroke: #ff7763"/>
     <use xlink:href="#m3b28a5a3e3" x="327.153467" y="209.301278" style="fill: #ff7763; stroke: #ff7763"/>
     <use xlink:href="#m3b28a5a3e3" x="332.312173" y="123.861242" style="fill: #ff7763; stroke: #ff7763"/>
     <use xlink:href="#m3b28a5a3e3" x="337.470878" y="124.751047" style="fill: #ff7763; stroke: #ff7763"/>
     <use xlink:href="#m3b28a5a3e3" x="342.629584" y="72.872364" style="fill: #ff7763; stroke: #ff7763"/>
     <use xlink:href="#m3b28a5a3e3" x="347.78829" y="72.872364" style="fill: #ff7763; stroke: #ff7763"/>
     <use xlink:href="#m3b28a5a3e3" x="352.946995" y="70.012609" style="fill: #ff7763; stroke: #ff7763"/>
     <use xlink:href="#m3b28a5a3e3" x="358.105701" y="69.358248" style="fill: #ff7763; stroke: #ff7763"/>
     <use xlink:href="#m3b28a5a3e3" x="363.264407" y="68.883479" style="fill: #ff7763; stroke: #ff7763"/>
     <use xlink:href="#m3b28a5a3e3" x="368.423112" y="69.358248" style="fill: #ff7763; stroke: #ff7763"/>
     <use xlink:href="#m3b28a5a3e3" x="373.581818" y="68.883479" style="fill: #ff7763; stroke: #ff7763"/>
    </g>
   </g>
   <g id="line2d_32">
    <path d="M 69.218182 252.908818 
L 74.376888 259.960547 
L 79.535593 255.360121 
L 84.694299 252.846655 
L 89.853005 253.341366 
L 95.01171 253.46507 
L 100.170416 252.933182 
L 105.329122 252.328454 
L 110.487827 253.561925 
L 115.646533 252.908818 
L 120.805239 255.491219 
L 125.963945 253.892722 
L 131.12265 242.912066 
L 136.281356 229.49694 
L 141.440062 235.421383 
L 146.598767 228.136545 
L 151.757473 212.976064 
L 156.916179 237.731705 
L 162.074884 243.723873 
L 167.23359 240.356126 
L 172.392296 261.011835 
L 177.551002 254.872031 
L 182.709707 258.311122 
L 187.868413 225.365241 
L 193.027119 241.752245 
L 198.185824 234.638819 
L 203.34453 238.674484 
L 208.503236 230.449675 
L 213.661941 226.278179 
L 218.820647 233.989414 
L 223.979353 234.42329 
L 229.138059 234.240313 
L 234.296764 234.701572 
L 239.45547 230.397308 
L 244.614176 234.60081 
L 249.772881 218.149561 
L 254.931587 208.512987 
L 260.090293 231.385079 
L 265.248998 127.734463 
L 270.407704 219.883782 
L 275.56641 230.023215 
L 280.725116 201.693368 
L 285.883821 233.534273 
L 291.042527 207.683746 
L 296.201233 228.644658 
L 301.359938 233.253323 
L 306.518644 232.740312 
L 311.67735 218.138183 
L 316.836055 208.509553 
L 321.994761 207.495909 
L 327.153467 207.496061 
L 332.312173 207.496061 
L 337.470878 208.389008 
L 342.629584 208.389008 
L 347.78829 208.389008 
L 352.946995 51.606869 
L 358.105701 51.263854 
L 363.264407 62.099241 
L 368.423112 50.90133 
L 373.581818 51.59233 
" clip-path="url(#peeeaa98d90)" style="fill: none; stroke: #ffac1e; stroke-width: 1.5; stroke-linecap: square"/>
    <defs>
     <path id="m92f19e649d" d="M 0 -2 
L -0.449028 -0.618034 
L -1.902113 -0.618034 
L -0.726543 0.236068 
L -1.175571 1.618034 
L -0 0.763932 
L 1.175571 1.618034 
L 0.726543 0.236068 
L 1.902113 -0.618034 
L 0.449028 -0.618034 
z
" style="stroke: #ffac1e; stroke-linejoin: bevel"/>
    </defs>
    <g clip-path="url(#peeeaa98d90)">
     <use xlink:href="#m92f19e649d" x="69.218182" y="252.908818" style="fill: #ffac1e; stroke: #ffac1e; stroke-linejoin: bevel"/>
     <use xlink:href="#m92f19e649d" x="74.376888" y="259.960547" style="fill: #ffac1e; stroke: #ffac1e; stroke-linejoin: bevel"/>
     <use xlink:href="#m92f19e649d" x="79.535593" y="255.360121" style="fill: #ffac1e; stroke: #ffac1e; stroke-linejoin: bevel"/>
     <use xlink:href="#m92f19e649d" x="84.694299" y="252.846655" style="fill: #ffac1e; stroke: #ffac1e; stroke-linejoin: bevel"/>
     <use xlink:href="#m92f19e649d" x="89.853005" y="253.341366" style="fill: #ffac1e; stroke: #ffac1e; stroke-linejoin: bevel"/>
     <use xlink:href="#m92f19e649d" x="95.01171" y="253.46507" style="fill: #ffac1e; stroke: #ffac1e; stroke-linejoin: bevel"/>
     <use xlink:href="#m92f19e649d" x="100.170416" y="252.933182" style="fill: #ffac1e; stroke: #ffac1e; stroke-linejoin: bevel"/>
     <use xlink:href="#m92f19e649d" x="105.329122" y="252.328454" style="fill: #ffac1e; stroke: #ffac1e; stroke-linejoin: bevel"/>
     <use xlink:href="#m92f19e649d" x="110.487827" y="253.561925" style="fill: #ffac1e; stroke: #ffac1e; stroke-linejoin: bevel"/>
     <use xlink:href="#m92f19e649d" x="115.646533" y="252.908818" style="fill: #ffac1e; stroke: #ffac1e; stroke-linejoin: bevel"/>
     <use xlink:href="#m92f19e649d" x="120.805239" y="255.491219" style="fill: #ffac1e; stroke: #ffac1e; stroke-linejoin: bevel"/>
     <use xlink:href="#m92f19e649d" x="125.963945" y="253.892722" style="fill: #ffac1e; stroke: #ffac1e; stroke-linejoin: bevel"/>
     <use xlink:href="#m92f19e649d" x="131.12265" y="242.912066" style="fill: #ffac1e; stroke: #ffac1e; stroke-linejoin: bevel"/>
     <use xlink:href="#m92f19e649d" x="136.281356" y="229.49694" style="fill: #ffac1e; stroke: #ffac1e; stroke-linejoin: bevel"/>
     <use xlink:href="#m92f19e649d" x="141.440062" y="235.421383" style="fill: #ffac1e; stroke: #ffac1e; stroke-linejoin: bevel"/>
     <use xlink:href="#m92f19e649d" x="146.598767" y="228.136545" style="fill: #ffac1e; stroke: #ffac1e; stroke-linejoin: bevel"/>
     <use xlink:href="#m92f19e649d" x="151.757473" y="212.976064" style="fill: #ffac1e; stroke: #ffac1e; stroke-linejoin: bevel"/>
     <use xlink:href="#m92f19e649d" x="156.916179" y="237.731705" style="fill: #ffac1e; stroke: #ffac1e; stroke-linejoin: bevel"/>
     <use xlink:href="#m92f19e649d" x="162.074884" y="243.723873" style="fill: #ffac1e; stroke: #ffac1e; stroke-linejoin: bevel"/>
     <use xlink:href="#m92f19e649d" x="167.23359" y="240.356126" style="fill: #ffac1e; stroke: #ffac1e; stroke-linejoin: bevel"/>
     <use xlink:href="#m92f19e649d" x="172.392296" y="261.011835" style="fill: #ffac1e; stroke: #ffac1e; stroke-linejoin: bevel"/>
     <use xlink:href="#m92f19e649d" x="177.551002" y="254.872031" style="fill: #ffac1e; stroke: #ffac1e; stroke-linejoin: bevel"/>
     <use xlink:href="#m92f19e649d" x="182.709707" y="258.311122" style="fill: #ffac1e; stroke: #ffac1e; stroke-linejoin: bevel"/>
     <use xlink:href="#m92f19e649d" x="187.868413" y="225.365241" style="fill: #ffac1e; stroke: #ffac1e; stroke-linejoin: bevel"/>
     <use xlink:href="#m92f19e649d" x="193.027119" y="241.752245" style="fill: #ffac1e; stroke: #ffac1e; stroke-linejoin: bevel"/>
     <use xlink:href="#m92f19e649d" x="198.185824" y="234.638819" style="fill: #ffac1e; stroke: #ffac1e; stroke-linejoin: bevel"/>
     <use xlink:href="#m92f19e649d" x="203.34453" y="238.674484" style="fill: #ffac1e; stroke: #ffac1e; stroke-linejoin: bevel"/>
     <use xlink:href="#m92f19e649d" x="208.503236" y="230.449675" style="fill: #ffac1e; stroke: #ffac1e; stroke-linejoin: bevel"/>
     <use xlink:href="#m92f19e649d" x="213.661941" y="226.278179" style="fill: #ffac1e; stroke: #ffac1e; stroke-linejoin: bevel"/>
     <use xlink:href="#m92f19e649d" x="218.820647" y="233.989414" style="fill: #ffac1e; stroke: #ffac1e; stroke-linejoin: bevel"/>
     <use xlink:href="#m92f19e649d" x="223.979353" y="234.42329" style="fill: #ffac1e; stroke: #ffac1e; stroke-linejoin: bevel"/>
     <use xlink:href="#m92f19e649d" x="229.138059" y="234.240313" style="fill: #ffac1e; stroke: #ffac1e; stroke-linejoin: bevel"/>
     <use xlink:href="#m92f19e649d" x="234.296764" y="234.701572" style="fill: #ffac1e; stroke: #ffac1e; stroke-linejoin: bevel"/>
     <use xlink:href="#m92f19e649d" x="239.45547" y="230.397308" style="fill: #ffac1e; stroke: #ffac1e; stroke-linejoin: bevel"/>
     <use xlink:href="#m92f19e649d" x="244.614176" y="234.60081" style="fill: #ffac1e; stroke: #ffac1e; stroke-linejoin: bevel"/>
     <use xlink:href="#m92f19e649d" x="249.772881" y="218.149561" style="fill: #ffac1e; stroke: #ffac1e; stroke-linejoin: bevel"/>
     <use xlink:href="#m92f19e649d" x="254.931587" y="208.512987" style="fill: #ffac1e; stroke: #ffac1e; stroke-linejoin: bevel"/>
     <use xlink:href="#m92f19e649d" x="260.090293" y="231.385079" style="fill: #ffac1e; stroke: #ffac1e; stroke-linejoin: bevel"/>
     <use xlink:href="#m92f19e649d" x="265.248998" y="127.734463" style="fill: #ffac1e; stroke: #ffac1e; stroke-linejoin: bevel"/>
     <use xlink:href="#m92f19e649d" x="270.407704" y="219.883782" style="fill: #ffac1e; stroke: #ffac1e; stroke-linejoin: bevel"/>
     <use xlink:href="#m92f19e649d" x="275.56641" y="230.023215" style="fill: #ffac1e; stroke: #ffac1e; stroke-linejoin: bevel"/>
     <use xlink:href="#m92f19e649d" x="280.725116" y="201.693368" style="fill: #ffac1e; stroke: #ffac1e; stroke-linejoin: bevel"/>
     <use xlink:href="#m92f19e649d" x="285.883821" y="233.534273" style="fill: #ffac1e; stroke: #ffac1e; stroke-linejoin: bevel"/>
     <use xlink:href="#m92f19e649d" x="291.042527" y="207.683746" style="fill: #ffac1e; stroke: #ffac1e; stroke-linejoin: bevel"/>
     <use xlink:href="#m92f19e649d" x="296.201233" y="228.644658" style="fill: #ffac1e; stroke: #ffac1e; stroke-linejoin: bevel"/>
     <use xlink:href="#m92f19e649d" x="301.359938" y="233.253323" style="fill: #ffac1e; stroke: #ffac1e; stroke-linejoin: bevel"/>
     <use xlink:href="#m92f19e649d" x="306.518644" y="232.740312" style="fill: #ffac1e; stroke: #ffac1e; stroke-linejoin: bevel"/>
     <use xlink:href="#m92f19e649d" x="311.67735" y="218.138183" style="fill: #ffac1e; stroke: #ffac1e; stroke-linejoin: bevel"/>
     <use xlink:href="#m92f19e649d" x="316.836055" y="208.509553" style="fill: #ffac1e; stroke: #ffac1e; stroke-linejoin: bevel"/>
     <use xlink:href="#m92f19e649d" x="321.994761" y="207.495909" style="fill: #ffac1e; stroke: #ffac1e; stroke-linejoin: bevel"/>
     <use xlink:href="#m92f19e649d" x="327.153467" y="207.496061" style="fill: #ffac1e; stroke: #ffac1e; stroke-linejoin: bevel"/>
     <use xlink:href="#m92f19e649d" x="332.312173" y="207.496061" style="fill: #ffac1e; stroke: #ffac1e; stroke-linejoin: bevel"/>
     <use xlink:href="#m92f19e649d" x="337.470878" y="208.389008" style="fill: #ffac1e; stroke: #ffac1e; stroke-linejoin: bevel"/>
     <use xlink:href="#m92f19e649d" x="342.629584" y="208.389008" style="fill: #ffac1e; stroke: #ffac1e; stroke-linejoin: bevel"/>
     <use xlink:href="#m92f19e649d" x="347.78829" y="208.389008" style="fill: #ffac1e; stroke: #ffac1e; stroke-linejoin: bevel"/>
     <use xlink:href="#m92f19e649d" x="352.946995" y="51.606869" style="fill: #ffac1e; stroke: #ffac1e; stroke-linejoin: bevel"/>
     <use xlink:href="#m92f19e649d" x="358.105701" y="51.263854" style="fill: #ffac1e; stroke: #ffac1e; stroke-linejoin: bevel"/>
     <use xlink:href="#m92f19e649d" x="363.264407" y="62.099241" style="fill: #ffac1e; stroke: #ffac1e; stroke-linejoin: bevel"/>
     <use xlink:href="#m92f19e649d" x="368.423112" y="50.90133" style="fill: #ffac1e; stroke: #ffac1e; stroke-linejoin: bevel"/>
     <use xlink:href="#m92f19e649d" x="373.581818" y="51.59233" style="fill: #ffac1e; stroke: #ffac1e; stroke-linejoin: bevel"/>
    </g>
   </g>
   <g id="line2d_33">
    <path d="M 69.218182 255.618594 
L 74.376888 252.908818 
L 79.535593 257.185548 
L 84.694299 252.908818 
L 89.853005 252.908818 
L 95.01171 252.960797 
L 100.170416 253.044207 
L 105.329122 252.908818 
L 110.487827 252.908818 
L 115.646533 252.908818 
L 120.805239 252.908818 
L 125.963945 252.913827 
L 131.12265 252.908818 
L 136.281356 252.908818 
L 141.440062 252.908818 
L 146.598767 252.908818 
L 151.757473 252.908818 
L 156.916179 252.908818 
L 162.074884 252.9002 
L 167.23359 252.908818 
L 172.392296 253.665678 
L 177.551002 253.118086 
L 182.709707 223.681085 
L 187.868413 214.70066 
L 193.027119 254.439631 
L 198.185824 145.814946 
L 203.34453 185.838601 
L 208.503236 252.0238 
L 213.661941 185.853414 
L 218.820647 194.680694 
L 223.979353 187.841364 
L 229.138059 243.200934 
L 234.296764 176.083613 
L 239.45547 244.54831 
L 244.614176 241.010806 
L 249.772881 243.776551 
L 254.931587 233.743779 
L 260.090293 249.571003 
L 265.248998 206.809195 
L 270.407704 236.576024 
L 275.56641 178.27045 
L 280.725116 244.139927 
L 285.883821 192.447103 
L 291.042527 194.654666 
L 296.201233 224.568587 
L 301.359938 179.874479 
L 306.518644 185.095277 
L 311.67735 180.137547 
L 316.836055 166.376576 
L 321.994761 191.022132 
L 327.153467 242.587918 
L 332.312173 180.338344 
L 337.470878 180.338344 
L 342.629584 235.229347 
L 347.78829 180.788517 
L 352.946995 175.572542 
L 358.105701 240.531792 
L 363.264407 222.867992 
L 368.423112 222.838694 
L 373.581818 222.867992 
" clip-path="url(#peeeaa98d90)" style="fill: none; stroke: #009435; stroke-width: 1.5; stroke-linecap: square"/>
    <defs>
     <path id="m13aeadf8b1" d="M -2 2 
L 2 2 
L 2 -2 
L -2 -2 
z
" style="stroke: #009435; stroke-linejoin: miter"/>
    </defs>
    <g clip-path="url(#peeeaa98d90)">
     <use xlink:href="#m13aeadf8b1" x="69.218182" y="255.618594" style="fill: #009435; stroke: #009435; stroke-linejoin: miter"/>
     <use xlink:href="#m13aeadf8b1" x="74.376888" y="252.908818" style="fill: #009435; stroke: #009435; stroke-linejoin: miter"/>
     <use xlink:href="#m13aeadf8b1" x="79.535593" y="257.185548" style="fill: #009435; stroke: #009435; stroke-linejoin: miter"/>
     <use xlink:href="#m13aeadf8b1" x="84.694299" y="252.908818" style="fill: #009435; stroke: #009435; stroke-linejoin: miter"/>
     <use xlink:href="#m13aeadf8b1" x="89.853005" y="252.908818" style="fill: #009435; stroke: #009435; stroke-linejoin: miter"/>
     <use xlink:href="#m13aeadf8b1" x="95.01171" y="252.960797" style="fill: #009435; stroke: #009435; stroke-linejoin: miter"/>
     <use xlink:href="#m13aeadf8b1" x="100.170416" y="253.044207" style="fill: #009435; stroke: #009435; stroke-linejoin: miter"/>
     <use xlink:href="#m13aeadf8b1" x="105.329122" y="252.908818" style="fill: #009435; stroke: #009435; stroke-linejoin: miter"/>
     <use xlink:href="#m13aeadf8b1" x="110.487827" y="252.908818" style="fill: #009435; stroke: #009435; stroke-linejoin: miter"/>
     <use xlink:href="#m13aeadf8b1" x="115.646533" y="252.908818" style="fill: #009435; stroke: #009435; stroke-linejoin: miter"/>
     <use xlink:href="#m13aeadf8b1" x="120.805239" y="252.908818" style="fill: #009435; stroke: #009435; stroke-linejoin: miter"/>
     <use xlink:href="#m13aeadf8b1" x="125.963945" y="252.913827" style="fill: #009435; stroke: #009435; stroke-linejoin: miter"/>
     <use xlink:href="#m13aeadf8b1" x="131.12265" y="252.908818" style="fill: #009435; stroke: #009435; stroke-linejoin: miter"/>
     <use xlink:href="#m13aeadf8b1" x="136.281356" y="252.908818" style="fill: #009435; stroke: #009435; stroke-linejoin: miter"/>
     <use xlink:href="#m13aeadf8b1" x="141.440062" y="252.908818" style="fill: #009435; stroke: #009435; stroke-linejoin: miter"/>
     <use xlink:href="#m13aeadf8b1" x="146.598767" y="252.908818" style="fill: #009435; stroke: #009435; stroke-linejoin: miter"/>
     <use xlink:href="#m13aeadf8b1" x="151.757473" y="252.908818" style="fill: #009435; stroke: #009435; stroke-linejoin: miter"/>
     <use xlink:href="#m13aeadf8b1" x="156.916179" y="252.908818" style="fill: #009435; stroke: #009435; stroke-linejoin: miter"/>
     <use xlink:href="#m13aeadf8b1" x="162.074884" y="252.9002" style="fill: #009435; stroke: #009435; stroke-linejoin: miter"/>
     <use xlink:href="#m13aeadf8b1" x="167.23359" y="252.908818" style="fill: #009435; stroke: #009435; stroke-linejoin: miter"/>
     <use xlink:href="#m13aeadf8b1" x="172.392296" y="253.665678" style="fill: #009435; stroke: #009435; stroke-linejoin: miter"/>
     <use xlink:href="#m13aeadf8b1" x="177.551002" y="253.118086" style="fill: #009435; stroke: #009435; stroke-linejoin: miter"/>
     <use xlink:href="#m13aeadf8b1" x="182.709707" y="223.681085" style="fill: #009435; stroke: #009435; stroke-linejoin: miter"/>
     <use xlink:href="#m13aeadf8b1" x="187.868413" y="214.70066" style="fill: #009435; stroke: #009435; stroke-linejoin: miter"/>
     <use xlink:href="#m13aeadf8b1" x="193.027119" y="254.439631" style="fill: #009435; stroke: #009435; stroke-linejoin: miter"/>
     <use xlink:href="#m13aeadf8b1" x="198.185824" y="145.814946" style="fill: #009435; stroke: #009435; stroke-linejoin: miter"/>
     <use xlink:href="#m13aeadf8b1" x="203.34453" y="185.838601" style="fill: #009435; stroke: #009435; stroke-linejoin: miter"/>
     <use xlink:href="#m13aeadf8b1" x="208.503236" y="252.0238" style="fill: #009435; stroke: #009435; stroke-linejoin: miter"/>
     <use xlink:href="#m13aeadf8b1" x="213.661941" y="185.853414" style="fill: #009435; stroke: #009435; stroke-linejoin: miter"/>
     <use xlink:href="#m13aeadf8b1" x="218.820647" y="194.680694" style="fill: #009435; stroke: #009435; stroke-linejoin: miter"/>
     <use xlink:href="#m13aeadf8b1" x="223.979353" y="187.841364" style="fill: #009435; stroke: #009435; stroke-linejoin: miter"/>
     <use xlink:href="#m13aeadf8b1" x="229.138059" y="243.200934" style="fill: #009435; stroke: #009435; stroke-linejoin: miter"/>
     <use xlink:href="#m13aeadf8b1" x="234.296764" y="176.083613" style="fill: #009435; stroke: #009435; stroke-linejoin: miter"/>
     <use xlink:href="#m13aeadf8b1" x="239.45547" y="244.54831" style="fill: #009435; stroke: #009435; stroke-linejoin: miter"/>
     <use xlink:href="#m13aeadf8b1" x="244.614176" y="241.010806" style="fill: #009435; stroke: #009435; stroke-linejoin: miter"/>
     <use xlink:href="#m13aeadf8b1" x="249.772881" y="243.776551" style="fill: #009435; stroke: #009435; stroke-linejoin: miter"/>
     <use xlink:href="#m13aeadf8b1" x="254.931587" y="233.743779" style="fill: #009435; stroke: #009435; stroke-linejoin: miter"/>
     <use xlink:href="#m13aeadf8b1" x="260.090293" y="249.571003" style="fill: #009435; stroke: #009435; stroke-linejoin: miter"/>
     <use xlink:href="#m13aeadf8b1" x="265.248998" y="206.809195" style="fill: #009435; stroke: #009435; stroke-linejoin: miter"/>
     <use xlink:href="#m13aeadf8b1" x="270.407704" y="236.576024" style="fill: #009435; stroke: #009435; stroke-linejoin: miter"/>
     <use xlink:href="#m13aeadf8b1" x="275.56641" y="178.27045" style="fill: #009435; stroke: #009435; stroke-linejoin: miter"/>
     <use xlink:href="#m13aeadf8b1" x="280.725116" y="244.139927" style="fill: #009435; stroke: #009435; stroke-linejoin: miter"/>
     <use xlink:href="#m13aeadf8b1" x="285.883821" y="192.447103" style="fill: #009435; stroke: #009435; stroke-linejoin: miter"/>
     <use xlink:href="#m13aeadf8b1" x="291.042527" y="194.654666" style="fill: #009435; stroke: #009435; stroke-linejoin: miter"/>
     <use xlink:href="#m13aeadf8b1" x="296.201233" y="224.568587" style="fill: #009435; stroke: #009435; stroke-linejoin: miter"/>
     <use xlink:href="#m13aeadf8b1" x="301.359938" y="179.874479" style="fill: #009435; stroke: #009435; stroke-linejoin: miter"/>
     <use xlink:href="#m13aeadf8b1" x="306.518644" y="185.095277" style="fill: #009435; stroke: #009435; stroke-linejoin: miter"/>
     <use xlink:href="#m13aeadf8b1" x="311.67735" y="180.137547" style="fill: #009435; stroke: #009435; stroke-linejoin: miter"/>
     <use xlink:href="#m13aeadf8b1" x="316.836055" y="166.376576" style="fill: #009435; stroke: #009435; stroke-linejoin: miter"/>
     <use xlink:href="#m13aeadf8b1" x="321.994761" y="191.022132" style="fill: #009435; stroke: #009435; stroke-linejoin: miter"/>
     <use xlink:href="#m13aeadf8b1" x="327.153467" y="242.587918" style="fill: #009435; stroke: #009435; stroke-linejoin: miter"/>
     <use xlink:href="#m13aeadf8b1" x="332.312173" y="180.338344" style="fill: #009435; stroke: #009435; stroke-linejoin: miter"/>
     <use xlink:href="#m13aeadf8b1" x="337.470878" y="180.338344" style="fill: #009435; stroke: #009435; stroke-linejoin: miter"/>
     <use xlink:href="#m13aeadf8b1" x="342.629584" y="235.229347" style="fill: #009435; stroke: #009435; stroke-linejoin: miter"/>
     <use xlink:href="#m13aeadf8b1" x="347.78829" y="180.788517" style="fill: #009435; stroke: #009435; stroke-linejoin: miter"/>
     <use xlink:href="#m13aeadf8b1" x="352.946995" y="175.572542" style="fill: #009435; stroke: #009435; stroke-linejoin: miter"/>
     <use xlink:href="#m13aeadf8b1" x="358.105701" y="240.531792" style="fill: #009435; stroke: #009435; stroke-linejoin: miter"/>
     <use xlink:href="#m13aeadf8b1" x="363.264407" y="222.867992" style="fill: #009435; stroke: #009435; stroke-linejoin: miter"/>
     <use xlink:href="#m13aeadf8b1" x="368.423112" y="222.838694" style="fill: #009435; stroke: #009435; stroke-linejoin: miter"/>
     <use xlink:href="#m13aeadf8b1" x="373.581818" y="222.867992" style="fill: #009435; stroke: #009435; stroke-linejoin: miter"/>
    </g>
   </g>
   <g id="patch_3">
    <path d="M 54 252 
L 54 34.56 
" style="fill: none; stroke: #000000; stroke-width: 0.8; stroke-linejoin: miter; stroke-linecap: square"/>
   </g>
   <g id="patch_4">
    <path d="M 388.8 252 
L 388.8 34.56 
" style="fill: none; stroke: #000000; stroke-width: 0.8; stroke-linejoin: miter; stroke-linecap: square"/>
   </g>
   <g id="patch_5">
    <path d="M 54 252 
L 388.8 252 
" style="fill: none; stroke: #000000; stroke-width: 0.8; stroke-linejoin: miter; stroke-linecap: square"/>
   </g>
   <g id="patch_6">
    <path d="M 54 34.56 
L 388.8 34.56 
" style="fill: none; stroke: #000000; stroke-width: 0.8; stroke-linejoin: miter; stroke-linecap: square"/>
   </g>
   <g id="text_17">
    <!-- R-max optimal policy with m = 35 -->
    <g transform="translate(119.205 28.56)scale(0.12 -0.12)">
     <defs>
      <path id="DejaVuSans-52" d="M 2841 2188 
Q 3044 2119 3236 1894 
Q 3428 1669 3622 1275 
L 4263 0 
L 3584 0 
L 2988 1197 
Q 2756 1666 2539 1819 
Q 2322 1972 1947 1972 
L 1259 1972 
L 1259 0 
L 628 0 
L 628 4666 
L 2053 4666 
Q 2853 4666 3247 4331 
Q 3641 3997 3641 3322 
Q 3641 2881 3436 2590 
Q 3231 2300 2841 2188 
z
M 1259 4147 
L 1259 2491 
L 2053 2491 
Q 2509 2491 2742 2702 
Q 2975 2913 2975 3322 
Q 2975 3731 2742 3939 
Q 2509 4147 2053 4147 
L 1259 4147 
z
" transform="scale(0.015625)"/>
      <path id="DejaVuSans-2d" d="M 313 2009 
L 1997 2009 
L 1997 1497 
L 313 1497 
L 313 2009 
z
" transform="scale(0.015625)"/>
      <path id="DejaVuSans-6d" d="M 3328 2828 
Q 3544 3216 3844 3400 
Q 4144 3584 4550 3584 
Q 5097 3584 5394 3201 
Q 5691 2819 5691 2113 
L 5691 0 
L 5113 0 
L 5113 2094 
Q 5113 2597 4934 2840 
Q 4756 3084 4391 3084 
Q 3944 3084 3684 2787 
Q 3425 2491 3425 1978 
L 3425 0 
L 2847 0 
L 2847 2094 
Q 2847 2600 2669 2842 
Q 2491 3084 2119 3084 
Q 1678 3084 1418 2786 
Q 1159 2488 1159 1978 
L 1159 0 
L 581 0 
L 581 3500 
L 1159 3500 
L 1159 2956 
Q 1356 3278 1631 3431 
Q 1906 3584 2284 3584 
Q 2666 3584 2933 3390 
Q 3200 3197 3328 2828 
z
" transform="scale(0.015625)"/>
      <path id="DejaVuSans-78" d="M 3513 3500 
L 2247 1797 
L 3578 0 
L 2900 0 
L 1881 1375 
L 863 0 
L 184 0 
L 1544 1831 
L 300 3500 
L 978 3500 
L 1906 2253 
L 2834 3500 
L 3513 3500 
z
" transform="scale(0.015625)"/>
      <path id="DejaVuSans-77" d="M 269 3500 
L 844 3500 
L 1563 769 
L 2278 3500 
L 2956 3500 
L 3675 769 
L 4391 3500 
L 4966 3500 
L 4050 0 
L 3372 0 
L 2619 2869 
L 1863 0 
L 1184 0 
L 269 3500 
z
" transform="scale(0.015625)"/>
      <path id="DejaVuSans-68" d="M 3513 2113 
L 3513 0 
L 2938 0 
L 2938 2094 
Q 2938 2591 2744 2837 
Q 2550 3084 2163 3084 
Q 1697 3084 1428 2787 
Q 1159 2491 1159 1978 
L 1159 0 
L 581 0 
L 581 4863 
L 1159 4863 
L 1159 2956 
Q 1366 3272 1645 3428 
Q 1925 3584 2291 3584 
Q 2894 3584 3203 3211 
Q 3513 2838 3513 2113 
z
" transform="scale(0.015625)"/>
      <path id="DejaVuSans-3d" d="M 678 2906 
L 4684 2906 
L 4684 2381 
L 678 2381 
L 678 2906 
z
M 678 1631 
L 4684 1631 
L 4684 1100 
L 678 1100 
L 678 1631 
z
" transform="scale(0.015625)"/>
     </defs>
     <use xlink:href="#DejaVuSans-52"/>
     <use xlink:href="#DejaVuSans-2d" x="65.482422"/>
     <use xlink:href="#DejaVuSans-6d" x="101.566406"/>
     <use xlink:href="#DejaVuSans-61" x="198.978516"/>
     <use xlink:href="#DejaVuSans-78" x="260.257812"/>
     <use xlink:href="#DejaVuSans-20" x="319.4375"/>
     <use xlink:href="#DejaVuSans-6f" x="351.224609"/>
     <use xlink:href="#DejaVuSans-70" x="412.40625"/>
     <use xlink:href="#DejaVuSans-74" x="475.882812"/>
     <use xlink:href="#DejaVuSans-69" x="515.091797"/>
     <use xlink:href="#DejaVuSans-6d" x="542.875"/>
     <use xlink:href="#DejaVuSans-61" x="640.287109"/>
     <use xlink:href="#DejaVuSans-6c" x="701.566406"/>
     <use xlink:href="#DejaVuSans-20" x="729.349609"/>
     <use xlink:href="#DejaVuSans-70" x="761.136719"/>
     <use xlink:href="#DejaVuSans-6f" x="824.613281"/>
     <use xlink:href="#DejaVuSans-6c" x="885.794922"/>
     <use xlink:href="#DejaVuSans-69" x="913.578125"/>
     <use xlink:href="#DejaVuSans-63" x="941.361328"/>
     <use xlink:href="#DejaVuSans-79" x="996.341797"/>
     <use xlink:href="#DejaVuSans-20" x="1055.521484"/>
     <use xlink:href="#DejaVuSans-77" x="1087.308594"/>
     <use xlink:href="#DejaVuSans-69" x="1169.095703"/>
     <use xlink:href="#DejaVuSans-74" x="1196.878906"/>
     <use xlink:href="#DejaVuSans-68" x="1236.087891"/>
     <use xlink:href="#DejaVuSans-20" x="1299.466797"/>
     <use xlink:href="#DejaVuSans-6d" x="1331.253906"/>
     <use xlink:href="#DejaVuSans-20" x="1428.666016"/>
     <use xlink:href="#DejaVuSans-3d" x="1460.453125"/>
     <use xlink:href="#DejaVuSans-20" x="1544.242188"/>
     <use xlink:href="#DejaVuSans-33" x="1576.029297"/>
     <use xlink:href="#DejaVuSans-35" x="1639.652344"/>
    </g>
   </g>
   <g id="legend_1">
    <g id="patch_7">
     <path d="M 61 117.34125 
L 211.9875 117.34125 
Q 213.9875 117.34125 213.9875 115.34125 
L 213.9875 41.56 
Q 213.9875 39.56 211.9875 39.56 
L 61 39.56 
Q 59 39.56 59 41.56 
L 59 115.34125 
Q 59 117.34125 61 117.34125 
z
" style="fill: #ffffff; opacity: 0.8; stroke: #cccccc; stroke-linejoin: miter"/>
    </g>
    <g id="line2d_34">
     <path d="M 63 47.658437 
L 73 47.658437 
L 83 47.658437 
" style="fill: none; stroke: #9d02d7; stroke-width: 1.5; stroke-linecap: square"/>
     <g>
      <use xlink:href="#m02b4629fbb" x="73" y="47.658437" style="fill: #9d02d7; stroke: #9d02d7; stroke-linejoin: miter"/>
     </g>
    </g>
    <g id="text_18">
     <!-- m_uncertain_states=5 -->
     <g transform="translate(91 51.158437)scale(0.1 -0.1)">
      <defs>
       <path id="DejaVuSans-5f" d="M 3263 -1063 
L 3263 -1509 
L -63 -1509 
L -63 -1063 
L 3263 -1063 
z
" transform="scale(0.015625)"/>
       <path id="DejaVuSans-6e" d="M 3513 2113 
L 3513 0 
L 2938 0 
L 2938 2094 
Q 2938 2591 2744 2837 
Q 2550 3084 2163 3084 
Q 1697 3084 1428 2787 
Q 1159 2491 1159 1978 
L 1159 0 
L 581 0 
L 581 3500 
L 1159 3500 
L 1159 2956 
Q 1366 3272 1645 3428 
Q 1925 3584 2291 3584 
Q 2894 3584 3203 3211 
Q 3513 2838 3513 2113 
z
" transform="scale(0.015625)"/>
      </defs>
      <use xlink:href="#DejaVuSans-6d"/>
      <use xlink:href="#DejaVuSans-5f" x="97.412109"/>
      <use xlink:href="#DejaVuSans-75" x="147.412109"/>
      <use xlink:href="#DejaVuSans-6e" x="210.791016"/>
      <use xlink:href="#DejaVuSans-63" x="274.169922"/>
      <use xlink:href="#DejaVuSans-65" x="329.150391"/>
      <use xlink:href="#DejaVuSans-72" x="390.673828"/>
      <use xlink:href="#DejaVuSans-74" x="431.787109"/>
      <use xlink:href="#DejaVuSans-61" x="470.996094"/>
      <use xlink:href="#DejaVuSans-69" x="532.275391"/>
      <use xlink:href="#DejaVuSans-6e" x="560.058594"/>
      <use xlink:href="#DejaVuSans-5f" x="623.4375"/>
      <use xlink:href="#DejaVuSans-73" x="673.4375"/>
      <use xlink:href="#DejaVuSans-74" x="725.537109"/>
      <use xlink:href="#DejaVuSans-61" x="764.746094"/>
      <use xlink:href="#DejaVuSans-74" x="826.025391"/>
      <use xlink:href="#DejaVuSans-65" x="865.234375"/>
      <use xlink:href="#DejaVuSans-73" x="926.757812"/>
      <use xlink:href="#DejaVuSans-3d" x="978.857422"/>
      <use xlink:href="#DejaVuSans-35" x="1062.646484"/>
     </g>
    </g>
    <g id="line2d_35">
     <path d="M 63 62.614688 
L 73 62.614688 
L 83 62.614688 
" style="fill: none; stroke: #0000ff; stroke-width: 1.5; stroke-linecap: square"/>
     <g>
      <use xlink:href="#m5f0a4a6b38" x="73" y="62.614688" style="fill: #0000ff; stroke: #0000ff"/>
     </g>
    </g>
    <g id="text_19">
     <!-- m_uncertain_states=10 -->
     <g transform="translate(91 66.114688)scale(0.1 -0.1)">
      <use xlink:href="#DejaVuSans-6d"/>
      <use xlink:href="#DejaVuSans-5f" x="97.412109"/>
      <use xlink:href="#DejaVuSans-75" x="147.412109"/>
      <use xlink:href="#DejaVuSans-6e" x="210.791016"/>
      <use xlink:href="#DejaVuSans-63" x="274.169922"/>
      <use xlink:href="#DejaVuSans-65" x="329.150391"/>
      <use xlink:href="#DejaVuSans-72" x="390.673828"/>
      <use xlink:href="#DejaVuSans-74" x="431.787109"/>
      <use xlink:href="#DejaVuSans-61" x="470.996094"/>
      <use xlink:href="#DejaVuSans-69" x="532.275391"/>
      <use xlink:href="#DejaVuSans-6e" x="560.058594"/>
      <use xlink:href="#DejaVuSans-5f" x="623.4375"/>
      <use xlink:href="#DejaVuSans-73" x="673.4375"/>
      <use xlink:href="#DejaVuSans-74" x="725.537109"/>
      <use xlink:href="#DejaVuSans-61" x="764.746094"/>
      <use xlink:href="#DejaVuSans-74" x="826.025391"/>
      <use xlink:href="#DejaVuSans-65" x="865.234375"/>
      <use xlink:href="#DejaVuSans-73" x="926.757812"/>
      <use xlink:href="#DejaVuSans-3d" x="978.857422"/>
      <use xlink:href="#DejaVuSans-31" x="1062.646484"/>
      <use xlink:href="#DejaVuSans-30" x="1126.269531"/>
     </g>
    </g>
    <g id="line2d_36">
     <path d="M 63 77.570937 
L 73 77.570937 
L 83 77.570937 
" style="fill: none; stroke: #ff7763; stroke-width: 1.5; stroke-linecap: square"/>
     <g>
      <use xlink:href="#m3b28a5a3e3" x="73" y="77.570937" style="fill: #ff7763; stroke: #ff7763"/>
     </g>
    </g>
    <g id="text_20">
     <!-- m_uncertain_states=15 -->
     <g transform="translate(91 81.070937)scale(0.1 -0.1)">
      <use xlink:href="#DejaVuSans-6d"/>
      <use xlink:href="#DejaVuSans-5f" x="97.412109"/>
      <use xlink:href="#DejaVuSans-75" x="147.412109"/>
      <use xlink:href="#DejaVuSans-6e" x="210.791016"/>
      <use xlink:href="#DejaVuSans-63" x="274.169922"/>
      <use xlink:href="#DejaVuSans-65" x="329.150391"/>
      <use xlink:href="#DejaVuSans-72" x="390.673828"/>
      <use xlink:href="#DejaVuSans-74" x="431.787109"/>
      <use xlink:href="#DejaVuSans-61" x="470.996094"/>
      <use xlink:href="#DejaVuSans-69" x="532.275391"/>
      <use xlink:href="#DejaVuSans-6e" x="560.058594"/>
      <use xlink:href="#DejaVuSans-5f" x="623.4375"/>
      <use xlink:href="#DejaVuSans-73" x="673.4375"/>
      <use xlink:href="#DejaVuSans-74" x="725.537109"/>
      <use xlink:href="#DejaVuSans-61" x="764.746094"/>
      <use xlink:href="#DejaVuSans-74" x="826.025391"/>
      <use xlink:href="#DejaVuSans-65" x="865.234375"/>
      <use xlink:href="#DejaVuSans-73" x="926.757812"/>
      <use xlink:href="#DejaVuSans-3d" x="978.857422"/>
      <use xlink:href="#DejaVuSans-31" x="1062.646484"/>
      <use xlink:href="#DejaVuSans-35" x="1126.269531"/>
     </g>
    </g>
    <g id="line2d_37">
     <path d="M 63 92.527187 
L 73 92.527187 
L 83 92.527187 
" style="fill: none; stroke: #ffac1e; stroke-width: 1.5; stroke-linecap: square"/>
     <g>
      <use xlink:href="#m92f19e649d" x="73" y="92.527187" style="fill: #ffac1e; stroke: #ffac1e; stroke-linejoin: bevel"/>
     </g>
    </g>
    <g id="text_21">
     <!-- m_uncertain_states=20 -->
     <g transform="translate(91 96.027187)scale(0.1 -0.1)">
      <use xlink:href="#DejaVuSans-6d"/>
      <use xlink:href="#DejaVuSans-5f" x="97.412109"/>
      <use xlink:href="#DejaVuSans-75" x="147.412109"/>
      <use xlink:href="#DejaVuSans-6e" x="210.791016"/>
      <use xlink:href="#DejaVuSans-63" x="274.169922"/>
      <use xlink:href="#DejaVuSans-65" x="329.150391"/>
      <use xlink:href="#DejaVuSans-72" x="390.673828"/>
      <use xlink:href="#DejaVuSans-74" x="431.787109"/>
      <use xlink:href="#DejaVuSans-61" x="470.996094"/>
      <use xlink:href="#DejaVuSans-69" x="532.275391"/>
      <use xlink:href="#DejaVuSans-6e" x="560.058594"/>
      <use xlink:href="#DejaVuSans-5f" x="623.4375"/>
      <use xlink:href="#DejaVuSans-73" x="673.4375"/>
      <use xlink:href="#DejaVuSans-74" x="725.537109"/>
      <use xlink:href="#DejaVuSans-61" x="764.746094"/>
      <use xlink:href="#DejaVuSans-74" x="826.025391"/>
      <use xlink:href="#DejaVuSans-65" x="865.234375"/>
      <use xlink:href="#DejaVuSans-73" x="926.757812"/>
      <use xlink:href="#DejaVuSans-3d" x="978.857422"/>
      <use xlink:href="#DejaVuSans-32" x="1062.646484"/>
      <use xlink:href="#DejaVuSans-30" x="1126.269531"/>
     </g>
    </g>
    <g id="line2d_38">
     <path d="M 63 107.483437 
L 73 107.483437 
L 83 107.483437 
" style="fill: none; stroke: #009435; stroke-width: 1.5; stroke-linecap: square"/>
     <g>
      <use xlink:href="#m13aeadf8b1" x="73" y="107.483437" style="fill: #009435; stroke: #009435; stroke-linejoin: miter"/>
     </g>
    </g>
    <g id="text_22">
     <!-- m_uncertain_states=25 -->
     <g transform="translate(91 110.983437)scale(0.1 -0.1)">
      <use xlink:href="#DejaVuSans-6d"/>
      <use xlink:href="#DejaVuSans-5f" x="97.412109"/>
      <use xlink:href="#DejaVuSans-75" x="147.412109"/>
      <use xlink:href="#DejaVuSans-6e" x="210.791016"/>
      <use xlink:href="#DejaVuSans-63" x="274.169922"/>
      <use xlink:href="#DejaVuSans-65" x="329.150391"/>
      <use xlink:href="#DejaVuSans-72" x="390.673828"/>
      <use xlink:href="#DejaVuSans-74" x="431.787109"/>
      <use xlink:href="#DejaVuSans-61" x="470.996094"/>
      <use xlink:href="#DejaVuSans-69" x="532.275391"/>
      <use xlink:href="#DejaVuSans-6e" x="560.058594"/>
      <use xlink:href="#DejaVuSans-5f" x="623.4375"/>
      <use xlink:href="#DejaVuSans-73" x="673.4375"/>
      <use xlink:href="#DejaVuSans-74" x="725.537109"/>
      <use xlink:href="#DejaVuSans-61" x="764.746094"/>
      <use xlink:href="#DejaVuSans-74" x="826.025391"/>
      <use xlink:href="#DejaVuSans-65" x="865.234375"/>
      <use xlink:href="#DejaVuSans-73" x="926.757812"/>
      <use xlink:href="#DejaVuSans-3d" x="978.857422"/>
      <use xlink:href="#DejaVuSans-32" x="1062.646484"/>
      <use xlink:href="#DejaVuSans-35" x="1126.269531"/>
     </g>
    </g>
   </g>
  </g>
 </g>
 <defs>
  <clipPath id="peeeaa98d90">
   <rect x="54" y="34.56" width="334.8" height="217.44"/>
  </clipPath>
 </defs>
</svg>
