<?xml version="1.0" encoding="utf-8" standalone="no"?>
<!DOCTYPE svg PUBLIC "-//W3C//DTD SVG 1.1//EN"
  "http://www.w3.org/Graphics/SVG/1.1/DTD/svg11.dtd">
<svg xmlns:xlink="http://www.w3.org/1999/xlink" width="432pt" height="288pt" viewBox="0 0 432 288" xmlns="http://www.w3.org/2000/svg" version="1.1">
 <metadata>
  <rdf:RDF xmlns:dc="http://purl.org/dc/elements/1.1/" xmlns:cc="http://creativecommons.org/ns#" xmlns:rdf="http://www.w3.org/1999/02/22-rdf-syntax-ns#">
   <cc:Work>
    <dc:type rdf:resource="http://purl.org/dc/dcmitype/StillImage"/>
    <dc:date>2023-01-11T15:36:21.325773</dc:date>
    <dc:format>image/svg+xml</dc:format>
    <dc:creator>
     <cc:Agent>
      <dc:title>Matplotlib v3.5.2, https://matplotlib.org/</dc:title>
     </cc:Agent>
    </dc:creator>
   </cc:Work>
  </rdf:RDF>
 </metadata>
 <defs>
  <style type="text/css">*{stroke-linejoin: round; stroke-linecap: butt}</style>
 </defs>
 <g id="figure_1">
  <g id="patch_1">
   <path d="M 0 288 
L 432 288 
L 432 0 
L 0 0 
z
" style="fill: #ffffff"/>
  </g>
  <g id="axes_1">
   <g id="patch_2">
    <path d="M 54 252 
L 388.8 252 
L 388.8 34.56 
L 54 34.56 
z
" style="fill: #ffffff"/>
   </g>
   <g id="PolyCollection_1">
    <defs>
     <path id="m54a3b6d7fc" d="M 69.218182 -34.913044 
L 69.218182 -34.913044 
L 74.376888 -32.252199 
L 79.535593 -35.091182 
L 84.694299 -34.088084 
L 89.853005 -36.281862 
L 95.01171 -39.19403 
L 100.170416 -35.330767 
L 105.329122 -130.922145 
L 110.487827 -38.169283 
L 115.646533 -93.948841 
L 120.805239 -134.021042 
L 125.963945 -191.660565 
L 131.12265 -230.770453 
L 136.281356 -220.4393 
L 141.440062 -230.772428 
L 146.598767 -216.479531 
L 151.757473 -216.647716 
L 156.916179 -244.654742 
L 162.074884 -244.654742 
L 167.23359 -242.320293 
L 172.392296 -244.654742 
L 177.551002 -244.655732 
L 182.709707 -244.655732 
L 187.868413 -240.444639 
L 193.027119 -244.655732 
L 198.185824 -244.655732 
L 203.34453 -240.444639 
L 208.503236 -240.16198 
L 213.661941 -240.444639 
L 218.820647 -244.655732 
L 223.979353 -244.655732 
L 229.138059 -244.655732 
L 234.296764 -244.934779 
L 239.45547 -244.934779 
L 244.614176 -244.934779 
L 249.772881 -241.405241 
L 254.931587 -241.209199 
L 260.090293 -244.655732 
L 265.248998 -244.655732 
L 270.407704 -244.655732 
L 275.56641 -244.655732 
L 280.725116 -242.321323 
L 285.883821 -242.321323 
L 291.042527 -242.321323 
L 296.201233 -242.321323 
L 301.359938 -242.321323 
L 306.518644 -244.655732 
L 311.67735 -244.655732 
L 316.836055 -244.655732 
L 321.994761 -244.655732 
L 327.153467 -244.655732 
L 332.312173 -244.655732 
L 337.470878 -244.655732 
L 342.629584 -244.655732 
L 347.78829 -244.655732 
L 352.946995 -244.655732 
L 358.105701 -244.655732 
L 363.264407 -244.655732 
L 368.423112 -244.655732 
L 373.581818 -244.655732 
L 373.581818 -244.655732 
L 373.581818 -244.655732 
L 368.423112 -244.655732 
L 363.264407 -244.655732 
L 358.105701 -244.655732 
L 352.946995 -244.655732 
L 347.78829 -244.655732 
L 342.629584 -244.655732 
L 337.470878 -244.655732 
L 332.312173 -244.655732 
L 327.153467 -244.655732 
L 321.994761 -244.655732 
L 316.836055 -244.655732 
L 311.67735 -244.655732 
L 306.518644 -244.655732 
L 301.359938 -242.321323 
L 296.201233 -242.321323 
L 291.042527 -242.321323 
L 285.883821 -242.321323 
L 280.725116 -242.321323 
L 275.56641 -244.655732 
L 270.407704 -244.655732 
L 265.248998 -244.655732 
L 260.090293 -244.655732 
L 254.931587 -241.209199 
L 249.772881 -241.405241 
L 244.614176 -244.934779 
L 239.45547 -244.934779 
L 234.296764 -244.934779 
L 229.138059 -244.655732 
L 223.979353 -244.655732 
L 218.820647 -244.655732 
L 213.661941 -240.444639 
L 208.503236 -240.16198 
L 203.34453 -240.444639 
L 198.185824 -244.655732 
L 193.027119 -244.655732 
L 187.868413 -240.444639 
L 182.709707 -244.655732 
L 177.551002 -244.655732 
L 172.392296 -244.654742 
L 167.23359 -242.320293 
L 162.074884 -244.654742 
L 156.916179 -244.654742 
L 151.757473 -216.647716 
L 146.598767 -216.479531 
L 141.440062 -230.772428 
L 136.281356 -220.4393 
L 131.12265 -230.770453 
L 125.963945 -191.660565 
L 120.805239 -134.021042 
L 115.646533 -93.948841 
L 110.487827 -38.169283 
L 105.329122 -130.922145 
L 100.170416 -35.330767 
L 95.01171 -39.19403 
L 89.853005 -36.281862 
L 84.694299 -34.088084 
L 79.535593 -35.091182 
L 74.376888 -32.252199 
L 69.218182 -34.913044 
z
" style="stroke: #9d02d7; stroke-opacity: 0.2"/>
    </defs>
    <g clip-path="url(#pf86741de9a)">
     <use xlink:href="#m54a3b6d7fc" x="0" y="288" style="fill: #9d02d7; fill-opacity: 0.2; stroke: #9d02d7; stroke-opacity: 0.2"/>
    </g>
   </g>
   <g id="PolyCollection_2">
    <defs>
     <path id="mc4dcd90f43" d="M 69.218182 -23.324333 
L 69.218182 -23.324333 
L 74.376888 -35.091182 
L 79.535593 -34.743435 
L 84.694299 -34.965718 
L 89.853005 -35.088938 
L 95.01171 -36.440082 
L 100.170416 -36.939443 
L 105.329122 -36.108861 
L 110.487827 -40.593331 
L 115.646533 -164.932982 
L 120.805239 -163.579759 
L 125.963945 -139.301069 
L 131.12265 -224.300082 
L 136.281356 -207.583362 
L 141.440062 -230.031166 
L 146.598767 -239.176577 
L 151.757473 -236.034015 
L 156.916179 -235.937779 
L 162.074884 -239.177032 
L 167.23359 -239.177032 
L 172.392296 -239.177032 
L 177.551002 -239.177032 
L 182.709707 -238.844721 
L 187.868413 -238.844721 
L 193.027119 -238.844721 
L 198.185824 -234.872617 
L 203.34453 -238.844721 
L 208.503236 -238.844721 
L 213.661941 -238.844721 
L 218.820647 -238.844721 
L 223.979353 -238.844721 
L 229.138059 -238.844721 
L 234.296764 -239.177032 
L 239.45547 -239.177032 
L 244.614176 -239.177032 
L 249.772881 -239.177032 
L 254.931587 -239.177032 
L 260.090293 -244.022402 
L 265.248998 -244.022402 
L 270.407704 -244.022402 
L 275.56641 -244.023547 
L 280.725116 -244.023547 
L 285.883821 -244.023547 
L 291.042527 -244.023547 
L 296.201233 -244.023547 
L 301.359938 -244.023547 
L 306.518644 -244.023547 
L 311.67735 -244.023547 
L 316.836055 -244.023547 
L 321.994761 -244.023547 
L 327.153467 -244.023547 
L 332.312173 -244.023547 
L 337.470878 -244.023547 
L 342.629584 -244.023547 
L 347.78829 -244.023547 
L 352.946995 -244.023547 
L 358.105701 -244.023547 
L 363.264407 -244.023547 
L 368.423112 -244.023547 
L 373.581818 -244.023547 
L 373.581818 -244.023547 
L 373.581818 -244.023547 
L 368.423112 -244.023547 
L 363.264407 -244.023547 
L 358.105701 -244.023547 
L 352.946995 -244.023547 
L 347.78829 -244.023547 
L 342.629584 -244.023547 
L 337.470878 -244.023547 
L 332.312173 -244.023547 
L 327.153467 -244.023547 
L 321.994761 -244.023547 
L 316.836055 -244.023547 
L 311.67735 -244.023547 
L 306.518644 -244.023547 
L 301.359938 -244.023547 
L 296.201233 -244.023547 
L 291.042527 -244.023547 
L 285.883821 -244.023547 
L 280.725116 -244.023547 
L 275.56641 -244.023547 
L 270.407704 -244.022402 
L 265.248998 -244.022402 
L 260.090293 -244.022402 
L 254.931587 -239.177032 
L 249.772881 -239.177032 
L 244.614176 -239.177032 
L 239.45547 -239.177032 
L 234.296764 -239.177032 
L 229.138059 -238.844721 
L 223.979353 -238.844721 
L 218.820647 -238.844721 
L 213.661941 -238.844721 
L 208.503236 -238.844721 
L 203.34453 -238.844721 
L 198.185824 -234.872617 
L 193.027119 -238.844721 
L 187.868413 -238.844721 
L 182.709707 -238.844721 
L 177.551002 -239.177032 
L 172.392296 -239.177032 
L 167.23359 -239.177032 
L 162.074884 -239.177032 
L 156.916179 -235.937779 
L 151.757473 -236.034015 
L 146.598767 -239.176577 
L 141.440062 -230.031166 
L 136.281356 -207.583362 
L 131.12265 -224.300082 
L 125.963945 -139.301069 
L 120.805239 -163.579759 
L 115.646533 -164.932982 
L 110.487827 -40.593331 
L 105.329122 -36.108861 
L 100.170416 -36.939443 
L 95.01171 -36.440082 
L 89.853005 -35.088938 
L 84.694299 -34.965718 
L 79.535593 -34.743435 
L 74.376888 -35.091182 
L 69.218182 -23.324333 
z
" style="stroke: #0000ff; stroke-opacity: 0.2"/>
    </defs>
    <g clip-path="url(#pf86741de9a)">
     <use xlink:href="#mc4dcd90f43" x="0" y="288" style="fill: #0000ff; fill-opacity: 0.2; stroke: #0000ff; stroke-opacity: 0.2"/>
    </g>
   </g>
   <g id="PolyCollection_3">
    <defs>
     <path id="m9b4399abcc" d="M 69.218182 -35.648724 
L 69.218182 -35.648724 
L 74.376888 -35.091182 
L 79.535593 -35.084085 
L 84.694299 -35.075446 
L 89.853005 -35.091182 
L 95.01171 -85.715318 
L 100.170416 -41.855447 
L 105.329122 -38.15476 
L 110.487827 -40.986759 
L 115.646533 -50.896518 
L 120.805239 -51.623183 
L 125.963945 -49.881247 
L 131.12265 -91.798593 
L 136.281356 -120.302823 
L 141.440062 -115.817017 
L 146.598767 -111.556862 
L 151.757473 -96.440055 
L 156.916179 -96.440055 
L 162.074884 -127.492762 
L 167.23359 -216.203067 
L 172.392296 -216.233115 
L 177.551002 -238.45558 
L 182.709707 -244.220709 
L 187.868413 -239.626269 
L 193.027119 -239.626269 
L 198.185824 -239.917591 
L 203.34453 -239.917591 
L 208.503236 -239.917591 
L 213.661941 -244.220709 
L 218.820647 -244.220709 
L 223.979353 -239.917591 
L 229.138059 -244.506164 
L 234.296764 -244.933613 
L 239.45547 -244.933613 
L 244.614176 -244.933613 
L 249.772881 -244.933613 
L 254.931587 -244.933613 
L 260.090293 -244.933613 
L 265.248998 -244.933613 
L 270.407704 -244.933613 
L 275.56641 -244.933613 
L 280.725116 -244.933613 
L 285.883821 -244.933613 
L 291.042527 -244.933613 
L 296.201233 -244.933613 
L 301.359938 -244.933613 
L 306.518644 -244.654567 
L 311.67735 -244.654567 
L 316.836055 -244.654567 
L 321.994761 -244.654567 
L 327.153467 -244.654567 
L 332.312173 -244.654567 
L 337.470878 -244.654567 
L 342.629584 -244.654567 
L 347.78829 -244.654567 
L 352.946995 -244.654567 
L 358.105701 -244.654567 
L 363.264407 -244.654567 
L 368.423112 -244.654567 
L 373.581818 -244.654567 
L 373.581818 -244.654567 
L 373.581818 -244.654567 
L 368.423112 -244.654567 
L 363.264407 -244.654567 
L 358.105701 -244.654567 
L 352.946995 -244.654567 
L 347.78829 -244.654567 
L 342.629584 -244.654567 
L 337.470878 -244.654567 
L 332.312173 -244.654567 
L 327.153467 -244.654567 
L 321.994761 -244.654567 
L 316.836055 -244.654567 
L 311.67735 -244.654567 
L 306.518644 -244.654567 
L 301.359938 -244.933613 
L 296.201233 -244.933613 
L 291.042527 -244.933613 
L 285.883821 -244.933613 
L 280.725116 -244.933613 
L 275.56641 -244.933613 
L 270.407704 -244.933613 
L 265.248998 -244.933613 
L 260.090293 -244.933613 
L 254.931587 -244.933613 
L 249.772881 -244.933613 
L 244.614176 -244.933613 
L 239.45547 -244.933613 
L 234.296764 -244.933613 
L 229.138059 -244.506164 
L 223.979353 -239.917591 
L 218.820647 -244.220709 
L 213.661941 -244.220709 
L 208.503236 -239.917591 
L 203.34453 -239.917591 
L 198.185824 -239.917591 
L 193.027119 -239.626269 
L 187.868413 -239.626269 
L 182.709707 -244.220709 
L 177.551002 -238.45558 
L 172.392296 -216.233115 
L 167.23359 -216.203067 
L 162.074884 -127.492762 
L 156.916179 -96.440055 
L 151.757473 -96.440055 
L 146.598767 -111.556862 
L 141.440062 -115.817017 
L 136.281356 -120.302823 
L 131.12265 -91.798593 
L 125.963945 -49.881247 
L 120.805239 -51.623183 
L 115.646533 -50.896518 
L 110.487827 -40.986759 
L 105.329122 -38.15476 
L 100.170416 -41.855447 
L 95.01171 -85.715318 
L 89.853005 -35.091182 
L 84.694299 -35.075446 
L 79.535593 -35.084085 
L 74.376888 -35.091182 
L 69.218182 -35.648724 
z
" style="stroke: #ff7763; stroke-opacity: 0.2"/>
    </defs>
    <g clip-path="url(#pf86741de9a)">
     <use xlink:href="#m9b4399abcc" x="0" y="288" style="fill: #ff7763; fill-opacity: 0.2; stroke: #ff7763; stroke-opacity: 0.2"/>
    </g>
   </g>
   <g id="PolyCollection_4">
    <defs>
     <path id="mcfd7ac239d" d="M 69.218182 -34.958293 
L 69.218182 -34.958293 
L 74.376888 -32.043186 
L 79.535593 -33.387887 
L 84.694299 -35.0558 
L 89.853005 -31.593812 
L 95.01171 -51.214261 
L 100.170416 -57.526864 
L 105.329122 -53.454913 
L 110.487827 -59.634339 
L 115.646533 -95.047953 
L 120.805239 -238.469246 
L 125.963945 -98.259273 
L 131.12265 -223.1865 
L 136.281356 -240.960775 
L 141.440062 -240.966743 
L 146.598767 -240.966548 
L 151.757473 -244.845281 
L 156.916179 -244.856842 
L 162.074884 -243.946319 
L 167.23359 -236.621113 
L 172.392296 -239.084802 
L 177.551002 -240.8845 
L 182.709707 -240.8845 
L 187.868413 -240.8845 
L 193.027119 -240.8845 
L 198.185824 -240.8845 
L 203.34453 -240.8845 
L 208.503236 -240.8845 
L 213.661941 -240.8845 
L 218.820647 -241.100279 
L 223.979353 -241.100279 
L 229.138059 -241.100279 
L 234.296764 -241.100279 
L 239.45547 -241.09162 
L 244.614176 -241.09162 
L 249.772881 -240.133975 
L 254.931587 -244.431623 
L 260.090293 -244.431623 
L 265.248998 -244.495247 
L 270.407704 -244.431623 
L 275.56641 -244.431623 
L 280.725116 -244.674237 
L 285.883821 -244.674237 
L 291.042527 -244.674237 
L 296.201233 -244.674237 
L 301.359938 -244.674237 
L 306.518644 -244.674237 
L 311.67735 -244.674237 
L 316.836055 -244.674237 
L 321.994761 -244.506164 
L 327.153467 -244.506164 
L 332.312173 -244.506164 
L 337.470878 -244.506164 
L 342.629584 -244.506164 
L 347.78829 -244.506164 
L 352.946995 -244.506164 
L 358.105701 -244.506164 
L 363.264407 -244.506164 
L 368.423112 -244.506164 
L 373.581818 -244.506164 
L 373.581818 -244.506164 
L 373.581818 -244.506164 
L 368.423112 -244.506164 
L 363.264407 -244.506164 
L 358.105701 -244.506164 
L 352.946995 -244.506164 
L 347.78829 -244.506164 
L 342.629584 -244.506164 
L 337.470878 -244.506164 
L 332.312173 -244.506164 
L 327.153467 -244.506164 
L 321.994761 -244.506164 
L 316.836055 -244.674237 
L 311.67735 -244.674237 
L 306.518644 -244.674237 
L 301.359938 -244.674237 
L 296.201233 -244.674237 
L 291.042527 -244.674237 
L 285.883821 -244.674237 
L 280.725116 -244.674237 
L 275.56641 -244.431623 
L 270.407704 -244.431623 
L 265.248998 -244.495247 
L 260.090293 -244.431623 
L 254.931587 -244.431623 
L 249.772881 -240.133975 
L 244.614176 -241.09162 
L 239.45547 -241.09162 
L 234.296764 -241.100279 
L 229.138059 -241.100279 
L 223.979353 -241.100279 
L 218.820647 -241.100279 
L 213.661941 -240.8845 
L 208.503236 -240.8845 
L 203.34453 -240.8845 
L 198.185824 -240.8845 
L 193.027119 -240.8845 
L 187.868413 -240.8845 
L 182.709707 -240.8845 
L 177.551002 -240.8845 
L 172.392296 -239.084802 
L 167.23359 -236.621113 
L 162.074884 -243.946319 
L 156.916179 -244.856842 
L 151.757473 -244.845281 
L 146.598767 -240.966548 
L 141.440062 -240.966743 
L 136.281356 -240.960775 
L 131.12265 -223.1865 
L 125.963945 -98.259273 
L 120.805239 -238.469246 
L 115.646533 -95.047953 
L 110.487827 -59.634339 
L 105.329122 -53.454913 
L 100.170416 -57.526864 
L 95.01171 -51.214261 
L 89.853005 -31.593812 
L 84.694299 -35.0558 
L 79.535593 -33.387887 
L 74.376888 -32.043186 
L 69.218182 -34.958293 
z
" style="stroke: #ffac1e; stroke-opacity: 0.2"/>
    </defs>
    <g clip-path="url(#pf86741de9a)">
     <use xlink:href="#mcfd7ac239d" x="0" y="288" style="fill: #ffac1e; fill-opacity: 0.2; stroke: #ffac1e; stroke-opacity: 0.2"/>
    </g>
   </g>
   <g id="PolyCollection_5">
    <defs>
     <path id="m41b70bf27f" d="M 69.218182 -35.091182 
L 69.218182 -35.091182 
L 74.376888 -34.236267 
L 79.535593 -34.338282 
L 84.694299 -36.420485 
L 89.853005 -23.084731 
L 95.01171 -35.082262 
L 100.170416 -35.066651 
L 105.329122 -21.505612 
L 110.487827 -34.656568 
L 115.646533 -35.64545 
L 120.805239 -36.093414 
L 125.963945 -38.731373 
L 131.12265 -98.807964 
L 136.281356 -101.080785 
L 141.440062 -99.101537 
L 146.598767 -107.407685 
L 151.757473 -105.179136 
L 156.916179 -134.279944 
L 162.074884 -136.801638 
L 167.23359 -136.801638 
L 172.392296 -171.47054 
L 177.551002 -241.530068 
L 182.709707 -241.530068 
L 187.868413 -241.490824 
L 193.027119 -241.490824 
L 198.185824 -241.206288 
L 203.34453 -241.207509 
L 208.503236 -241.207509 
L 213.661941 -241.206288 
L 218.820647 -241.206288 
L 223.979353 -241.206288 
L 229.138059 -241.206288 
L 234.296764 -241.206288 
L 239.45547 -241.207509 
L 244.614176 -241.206288 
L 249.772881 -241.207509 
L 254.931587 -241.302659 
L 260.090293 -241.206288 
L 265.248998 -241.383851 
L 270.407704 -241.383851 
L 275.56641 -241.385072 
L 280.725116 -241.383851 
L 285.883821 -241.383851 
L 291.042527 -241.385072 
L 296.201233 -241.383851 
L 301.359938 -241.383851 
L 306.518644 -241.385072 
L 311.67735 -241.383851 
L 316.836055 -241.385072 
L 321.994761 -241.385072 
L 327.153467 -241.385072 
L 332.312173 -241.385072 
L 337.470878 -244.018559 
L 342.629584 -244.019549 
L 347.78829 -244.018559 
L 352.946995 -244.018559 
L 358.105701 -244.018559 
L 363.264407 -244.019549 
L 368.423112 -244.018559 
L 373.581818 -244.018559 
L 373.581818 -244.018559 
L 373.581818 -244.018559 
L 368.423112 -244.018559 
L 363.264407 -244.019549 
L 358.105701 -244.018559 
L 352.946995 -244.018559 
L 347.78829 -244.018559 
L 342.629584 -244.019549 
L 337.470878 -244.018559 
L 332.312173 -241.385072 
L 327.153467 -241.385072 
L 321.994761 -241.385072 
L 316.836055 -241.385072 
L 311.67735 -241.383851 
L 306.518644 -241.385072 
L 301.359938 -241.383851 
L 296.201233 -241.383851 
L 291.042527 -241.385072 
L 285.883821 -241.383851 
L 280.725116 -241.383851 
L 275.56641 -241.385072 
L 270.407704 -241.383851 
L 265.248998 -241.383851 
L 260.090293 -241.206288 
L 254.931587 -241.302659 
L 249.772881 -241.207509 
L 244.614176 -241.206288 
L 239.45547 -241.207509 
L 234.296764 -241.206288 
L 229.138059 -241.206288 
L 223.979353 -241.206288 
L 218.820647 -241.206288 
L 213.661941 -241.206288 
L 208.503236 -241.207509 
L 203.34453 -241.207509 
L 198.185824 -241.206288 
L 193.027119 -241.490824 
L 187.868413 -241.490824 
L 182.709707 -241.530068 
L 177.551002 -241.530068 
L 172.392296 -171.47054 
L 167.23359 -136.801638 
L 162.074884 -136.801638 
L 156.916179 -134.279944 
L 151.757473 -105.179136 
L 146.598767 -107.407685 
L 141.440062 -99.101537 
L 136.281356 -101.080785 
L 131.12265 -98.807964 
L 125.963945 -38.731373 
L 120.805239 -36.093414 
L 115.646533 -35.64545 
L 110.487827 -34.656568 
L 105.329122 -21.505612 
L 100.170416 -35.066651 
L 95.01171 -35.082262 
L 89.853005 -23.084731 
L 84.694299 -36.420485 
L 79.535593 -34.338282 
L 74.376888 -34.236267 
L 69.218182 -35.091182 
z
" style="stroke: #009435; stroke-opacity: 0.2"/>
    </defs>
    <g clip-path="url(#pf86741de9a)">
     <use xlink:href="#m41b70bf27f" x="0" y="288" style="fill: #009435; fill-opacity: 0.2; stroke: #009435; stroke-opacity: 0.2"/>
    </g>
   </g>
   <g id="matplotlib.axis_1">
    <g id="xtick_1">
     <g id="line2d_1">
      <path d="M 69.218182 252 
L 69.218182 34.56 
" clip-path="url(#pf86741de9a)" style="fill: none; stroke-dasharray: 2.96,1.28; stroke-dashoffset: 0; stroke: #b0b0b0; stroke-width: 0.8"/>
     </g>
     <g id="line2d_2">
      <defs>
       <path id="me67a70a2fe" d="M 0 0 
L 0 3.5 
" style="stroke: #000000; stroke-width: 0.8"/>
      </defs>
      <g>
       <use xlink:href="#me67a70a2fe" x="69.218182" y="252" style="stroke: #000000; stroke-width: 0.8"/>
      </g>
     </g>
     <g id="text_1">
      <!-- 0 -->
      <g transform="translate(66.036932 266.598437)scale(0.1 -0.1)">
       <defs>
        <path id="DejaVuSans-30" d="M 2034 4250 
Q 1547 4250 1301 3770 
Q 1056 3291 1056 2328 
Q 1056 1369 1301 889 
Q 1547 409 2034 409 
Q 2525 409 2770 889 
Q 3016 1369 3016 2328 
Q 3016 3291 2770 3770 
Q 2525 4250 2034 4250 
z
M 2034 4750 
Q 2819 4750 3233 4129 
Q 3647 3509 3647 2328 
Q 3647 1150 3233 529 
Q 2819 -91 2034 -91 
Q 1250 -91 836 529 
Q 422 1150 422 2328 
Q 422 3509 836 4129 
Q 1250 4750 2034 4750 
z
" transform="scale(0.015625)"/>
       </defs>
       <use xlink:href="#DejaVuSans-30"/>
      </g>
     </g>
    </g>
    <g id="xtick_2">
     <g id="line2d_3">
      <path d="M 120.805239 252 
L 120.805239 34.56 
" clip-path="url(#pf86741de9a)" style="fill: none; stroke-dasharray: 2.96,1.28; stroke-dashoffset: 0; stroke: #b0b0b0; stroke-width: 0.8"/>
     </g>
     <g id="line2d_4">
      <g>
       <use xlink:href="#me67a70a2fe" x="120.805239" y="252" style="stroke: #000000; stroke-width: 0.8"/>
      </g>
     </g>
     <g id="text_2">
      <!-- 500 -->
      <g transform="translate(111.261489 266.598437)scale(0.1 -0.1)">
       <defs>
        <path id="DejaVuSans-35" d="M 691 4666 
L 3169 4666 
L 3169 4134 
L 1269 4134 
L 1269 2991 
Q 1406 3038 1543 3061 
Q 1681 3084 1819 3084 
Q 2600 3084 3056 2656 
Q 3513 2228 3513 1497 
Q 3513 744 3044 326 
Q 2575 -91 1722 -91 
Q 1428 -91 1123 -41 
Q 819 9 494 109 
L 494 744 
Q 775 591 1075 516 
Q 1375 441 1709 441 
Q 2250 441 2565 725 
Q 2881 1009 2881 1497 
Q 2881 1984 2565 2268 
Q 2250 2553 1709 2553 
Q 1456 2553 1204 2497 
Q 953 2441 691 2322 
L 691 4666 
z
" transform="scale(0.015625)"/>
       </defs>
       <use xlink:href="#DejaVuSans-35"/>
       <use xlink:href="#DejaVuSans-30" x="63.623047"/>
       <use xlink:href="#DejaVuSans-30" x="127.246094"/>
      </g>
     </g>
    </g>
    <g id="xtick_3">
     <g id="line2d_5">
      <path d="M 172.392296 252 
L 172.392296 34.56 
" clip-path="url(#pf86741de9a)" style="fill: none; stroke-dasharray: 2.96,1.28; stroke-dashoffset: 0; stroke: #b0b0b0; stroke-width: 0.8"/>
     </g>
     <g id="line2d_6">
      <g>
       <use xlink:href="#me67a70a2fe" x="172.392296" y="252" style="stroke: #000000; stroke-width: 0.8"/>
      </g>
     </g>
     <g id="text_3">
      <!-- 1000 -->
      <g transform="translate(159.667296 266.598437)scale(0.1 -0.1)">
       <defs>
        <path id="DejaVuSans-31" d="M 794 531 
L 1825 531 
L 1825 4091 
L 703 3866 
L 703 4441 
L 1819 4666 
L 2450 4666 
L 2450 531 
L 3481 531 
L 3481 0 
L 794 0 
L 794 531 
z
" transform="scale(0.015625)"/>
       </defs>
       <use xlink:href="#DejaVuSans-31"/>
       <use xlink:href="#DejaVuSans-30" x="63.623047"/>
       <use xlink:href="#DejaVuSans-30" x="127.246094"/>
       <use xlink:href="#DejaVuSans-30" x="190.869141"/>
      </g>
     </g>
    </g>
    <g id="xtick_4">
     <g id="line2d_7">
      <path d="M 223.979353 252 
L 223.979353 34.56 
" clip-path="url(#pf86741de9a)" style="fill: none; stroke-dasharray: 2.96,1.28; stroke-dashoffset: 0; stroke: #b0b0b0; stroke-width: 0.8"/>
     </g>
     <g id="line2d_8">
      <g>
       <use xlink:href="#me67a70a2fe" x="223.979353" y="252" style="stroke: #000000; stroke-width: 0.8"/>
      </g>
     </g>
     <g id="text_4">
      <!-- 1500 -->
      <g transform="translate(211.254353 266.598437)scale(0.1 -0.1)">
       <use xlink:href="#DejaVuSans-31"/>
       <use xlink:href="#DejaVuSans-35" x="63.623047"/>
       <use xlink:href="#DejaVuSans-30" x="127.246094"/>
       <use xlink:href="#DejaVuSans-30" x="190.869141"/>
      </g>
     </g>
    </g>
    <g id="xtick_5">
     <g id="line2d_9">
      <path d="M 275.56641 252 
L 275.56641 34.56 
" clip-path="url(#pf86741de9a)" style="fill: none; stroke-dasharray: 2.96,1.28; stroke-dashoffset: 0; stroke: #b0b0b0; stroke-width: 0.8"/>
     </g>
     <g id="line2d_10">
      <g>
       <use xlink:href="#me67a70a2fe" x="275.56641" y="252" style="stroke: #000000; stroke-width: 0.8"/>
      </g>
     </g>
     <g id="text_5">
      <!-- 2000 -->
      <g transform="translate(262.84141 266.598437)scale(0.1 -0.1)">
       <defs>
        <path id="DejaVuSans-32" d="M 1228 531 
L 3431 531 
L 3431 0 
L 469 0 
L 469 531 
Q 828 903 1448 1529 
Q 2069 2156 2228 2338 
Q 2531 2678 2651 2914 
Q 2772 3150 2772 3378 
Q 2772 3750 2511 3984 
Q 2250 4219 1831 4219 
Q 1534 4219 1204 4116 
Q 875 4013 500 3803 
L 500 4441 
Q 881 4594 1212 4672 
Q 1544 4750 1819 4750 
Q 2544 4750 2975 4387 
Q 3406 4025 3406 3419 
Q 3406 3131 3298 2873 
Q 3191 2616 2906 2266 
Q 2828 2175 2409 1742 
Q 1991 1309 1228 531 
z
" transform="scale(0.015625)"/>
       </defs>
       <use xlink:href="#DejaVuSans-32"/>
       <use xlink:href="#DejaVuSans-30" x="63.623047"/>
       <use xlink:href="#DejaVuSans-30" x="127.246094"/>
       <use xlink:href="#DejaVuSans-30" x="190.869141"/>
      </g>
     </g>
    </g>
    <g id="xtick_6">
     <g id="line2d_11">
      <path d="M 327.153467 252 
L 327.153467 34.56 
" clip-path="url(#pf86741de9a)" style="fill: none; stroke-dasharray: 2.96,1.28; stroke-dashoffset: 0; stroke: #b0b0b0; stroke-width: 0.8"/>
     </g>
     <g id="line2d_12">
      <g>
       <use xlink:href="#me67a70a2fe" x="327.153467" y="252" style="stroke: #000000; stroke-width: 0.8"/>
      </g>
     </g>
     <g id="text_6">
      <!-- 2500 -->
      <g transform="translate(314.428467 266.598437)scale(0.1 -0.1)">
       <use xlink:href="#DejaVuSans-32"/>
       <use xlink:href="#DejaVuSans-35" x="63.623047"/>
       <use xlink:href="#DejaVuSans-30" x="127.246094"/>
       <use xlink:href="#DejaVuSans-30" x="190.869141"/>
      </g>
     </g>
    </g>
    <g id="xtick_7">
     <g id="line2d_13">
      <path d="M 378.740524 252 
L 378.740524 34.56 
" clip-path="url(#pf86741de9a)" style="fill: none; stroke-dasharray: 2.96,1.28; stroke-dashoffset: 0; stroke: #b0b0b0; stroke-width: 0.8"/>
     </g>
     <g id="line2d_14">
      <g>
       <use xlink:href="#me67a70a2fe" x="378.740524" y="252" style="stroke: #000000; stroke-width: 0.8"/>
      </g>
     </g>
     <g id="text_7">
      <!-- 3000 -->
      <g transform="translate(366.015524 266.598437)scale(0.1 -0.1)">
       <defs>
        <path id="DejaVuSans-33" d="M 2597 2516 
Q 3050 2419 3304 2112 
Q 3559 1806 3559 1356 
Q 3559 666 3084 287 
Q 2609 -91 1734 -91 
Q 1441 -91 1130 -33 
Q 819 25 488 141 
L 488 750 
Q 750 597 1062 519 
Q 1375 441 1716 441 
Q 2309 441 2620 675 
Q 2931 909 2931 1356 
Q 2931 1769 2642 2001 
Q 2353 2234 1838 2234 
L 1294 2234 
L 1294 2753 
L 1863 2753 
Q 2328 2753 2575 2939 
Q 2822 3125 2822 3475 
Q 2822 3834 2567 4026 
Q 2313 4219 1838 4219 
Q 1578 4219 1281 4162 
Q 984 4106 628 3988 
L 628 4550 
Q 988 4650 1302 4700 
Q 1616 4750 1894 4750 
Q 2613 4750 3031 4423 
Q 3450 4097 3450 3541 
Q 3450 3153 3228 2886 
Q 3006 2619 2597 2516 
z
" transform="scale(0.015625)"/>
       </defs>
       <use xlink:href="#DejaVuSans-33"/>
       <use xlink:href="#DejaVuSans-30" x="63.623047"/>
       <use xlink:href="#DejaVuSans-30" x="127.246094"/>
       <use xlink:href="#DejaVuSans-30" x="190.869141"/>
      </g>
     </g>
    </g>
    <g id="text_8">
     <!-- Steps -->
     <g transform="translate(207.410156 280.276563)scale(0.1 -0.1)">
      <defs>
       <path id="DejaVuSans-53" d="M 3425 4513 
L 3425 3897 
Q 3066 4069 2747 4153 
Q 2428 4238 2131 4238 
Q 1616 4238 1336 4038 
Q 1056 3838 1056 3469 
Q 1056 3159 1242 3001 
Q 1428 2844 1947 2747 
L 2328 2669 
Q 3034 2534 3370 2195 
Q 3706 1856 3706 1288 
Q 3706 609 3251 259 
Q 2797 -91 1919 -91 
Q 1588 -91 1214 -16 
Q 841 59 441 206 
L 441 856 
Q 825 641 1194 531 
Q 1563 422 1919 422 
Q 2459 422 2753 634 
Q 3047 847 3047 1241 
Q 3047 1584 2836 1778 
Q 2625 1972 2144 2069 
L 1759 2144 
Q 1053 2284 737 2584 
Q 422 2884 422 3419 
Q 422 4038 858 4394 
Q 1294 4750 2059 4750 
Q 2388 4750 2728 4690 
Q 3069 4631 3425 4513 
z
" transform="scale(0.015625)"/>
       <path id="DejaVuSans-74" d="M 1172 4494 
L 1172 3500 
L 2356 3500 
L 2356 3053 
L 1172 3053 
L 1172 1153 
Q 1172 725 1289 603 
Q 1406 481 1766 481 
L 2356 481 
L 2356 0 
L 1766 0 
Q 1100 0 847 248 
Q 594 497 594 1153 
L 594 3053 
L 172 3053 
L 172 3500 
L 594 3500 
L 594 4494 
L 1172 4494 
z
" transform="scale(0.015625)"/>
       <path id="DejaVuSans-65" d="M 3597 1894 
L 3597 1613 
L 953 1613 
Q 991 1019 1311 708 
Q 1631 397 2203 397 
Q 2534 397 2845 478 
Q 3156 559 3463 722 
L 3463 178 
Q 3153 47 2828 -22 
Q 2503 -91 2169 -91 
Q 1331 -91 842 396 
Q 353 884 353 1716 
Q 353 2575 817 3079 
Q 1281 3584 2069 3584 
Q 2775 3584 3186 3129 
Q 3597 2675 3597 1894 
z
M 3022 2063 
Q 3016 2534 2758 2815 
Q 2500 3097 2075 3097 
Q 1594 3097 1305 2825 
Q 1016 2553 972 2059 
L 3022 2063 
z
" transform="scale(0.015625)"/>
       <path id="DejaVuSans-70" d="M 1159 525 
L 1159 -1331 
L 581 -1331 
L 581 3500 
L 1159 3500 
L 1159 2969 
Q 1341 3281 1617 3432 
Q 1894 3584 2278 3584 
Q 2916 3584 3314 3078 
Q 3713 2572 3713 1747 
Q 3713 922 3314 415 
Q 2916 -91 2278 -91 
Q 1894 -91 1617 61 
Q 1341 213 1159 525 
z
M 3116 1747 
Q 3116 2381 2855 2742 
Q 2594 3103 2138 3103 
Q 1681 3103 1420 2742 
Q 1159 2381 1159 1747 
Q 1159 1113 1420 752 
Q 1681 391 2138 391 
Q 2594 391 2855 752 
Q 3116 1113 3116 1747 
z
" transform="scale(0.015625)"/>
       <path id="DejaVuSans-73" d="M 2834 3397 
L 2834 2853 
Q 2591 2978 2328 3040 
Q 2066 3103 1784 3103 
Q 1356 3103 1142 2972 
Q 928 2841 928 2578 
Q 928 2378 1081 2264 
Q 1234 2150 1697 2047 
L 1894 2003 
Q 2506 1872 2764 1633 
Q 3022 1394 3022 966 
Q 3022 478 2636 193 
Q 2250 -91 1575 -91 
Q 1294 -91 989 -36 
Q 684 19 347 128 
L 347 722 
Q 666 556 975 473 
Q 1284 391 1588 391 
Q 1994 391 2212 530 
Q 2431 669 2431 922 
Q 2431 1156 2273 1281 
Q 2116 1406 1581 1522 
L 1381 1569 
Q 847 1681 609 1914 
Q 372 2147 372 2553 
Q 372 3047 722 3315 
Q 1072 3584 1716 3584 
Q 2034 3584 2315 3537 
Q 2597 3491 2834 3397 
z
" transform="scale(0.015625)"/>
      </defs>
      <use xlink:href="#DejaVuSans-53"/>
      <use xlink:href="#DejaVuSans-74" x="63.476562"/>
      <use xlink:href="#DejaVuSans-65" x="102.685547"/>
      <use xlink:href="#DejaVuSans-70" x="164.208984"/>
      <use xlink:href="#DejaVuSans-73" x="227.685547"/>
     </g>
    </g>
   </g>
   <g id="matplotlib.axis_2">
    <g id="ytick_1">
     <g id="line2d_15">
      <path d="M 54 243.636923 
L 388.8 243.636923 
" clip-path="url(#pf86741de9a)" style="fill: none; stroke-dasharray: 2.96,1.28; stroke-dashoffset: 0; stroke: #b0b0b0; stroke-width: 0.8"/>
     </g>
     <g id="line2d_16">
      <defs>
       <path id="mbc2dd91465" d="M 0 0 
L -3.5 0 
" style="stroke: #000000; stroke-width: 0.8"/>
      </defs>
      <g>
       <use xlink:href="#mbc2dd91465" x="54" y="243.636923" style="stroke: #000000; stroke-width: 0.8"/>
      </g>
     </g>
     <g id="text_9">
      <!-- −12 -->
      <g transform="translate(25.895312 247.436142)scale(0.1 -0.1)">
       <defs>
        <path id="DejaVuSans-2212" d="M 678 2272 
L 4684 2272 
L 4684 1741 
L 678 1741 
L 678 2272 
z
" transform="scale(0.015625)"/>
       </defs>
       <use xlink:href="#DejaVuSans-2212"/>
       <use xlink:href="#DejaVuSans-31" x="83.789062"/>
       <use xlink:href="#DejaVuSans-32" x="147.412109"/>
      </g>
     </g>
    </g>
    <g id="ytick_2">
     <g id="line2d_17">
      <path d="M 54 210.184615 
L 388.8 210.184615 
" clip-path="url(#pf86741de9a)" style="fill: none; stroke-dasharray: 2.96,1.28; stroke-dashoffset: 0; stroke: #b0b0b0; stroke-width: 0.8"/>
     </g>
     <g id="line2d_18">
      <g>
       <use xlink:href="#mbc2dd91465" x="54" y="210.184615" style="stroke: #000000; stroke-width: 0.8"/>
      </g>
     </g>
     <g id="text_10">
      <!-- −10 -->
      <g transform="translate(25.895312 213.983834)scale(0.1 -0.1)">
       <use xlink:href="#DejaVuSans-2212"/>
       <use xlink:href="#DejaVuSans-31" x="83.789062"/>
       <use xlink:href="#DejaVuSans-30" x="147.412109"/>
      </g>
     </g>
    </g>
    <g id="ytick_3">
     <g id="line2d_19">
      <path d="M 54 176.732308 
L 388.8 176.732308 
" clip-path="url(#pf86741de9a)" style="fill: none; stroke-dasharray: 2.96,1.28; stroke-dashoffset: 0; stroke: #b0b0b0; stroke-width: 0.8"/>
     </g>
     <g id="line2d_20">
      <g>
       <use xlink:href="#mbc2dd91465" x="54" y="176.732308" style="stroke: #000000; stroke-width: 0.8"/>
      </g>
     </g>
     <g id="text_11">
      <!-- −8 -->
      <g transform="translate(32.257812 180.531526)scale(0.1 -0.1)">
       <defs>
        <path id="DejaVuSans-38" d="M 2034 2216 
Q 1584 2216 1326 1975 
Q 1069 1734 1069 1313 
Q 1069 891 1326 650 
Q 1584 409 2034 409 
Q 2484 409 2743 651 
Q 3003 894 3003 1313 
Q 3003 1734 2745 1975 
Q 2488 2216 2034 2216 
z
M 1403 2484 
Q 997 2584 770 2862 
Q 544 3141 544 3541 
Q 544 4100 942 4425 
Q 1341 4750 2034 4750 
Q 2731 4750 3128 4425 
Q 3525 4100 3525 3541 
Q 3525 3141 3298 2862 
Q 3072 2584 2669 2484 
Q 3125 2378 3379 2068 
Q 3634 1759 3634 1313 
Q 3634 634 3220 271 
Q 2806 -91 2034 -91 
Q 1263 -91 848 271 
Q 434 634 434 1313 
Q 434 1759 690 2068 
Q 947 2378 1403 2484 
z
M 1172 3481 
Q 1172 3119 1398 2916 
Q 1625 2713 2034 2713 
Q 2441 2713 2670 2916 
Q 2900 3119 2900 3481 
Q 2900 3844 2670 4047 
Q 2441 4250 2034 4250 
Q 1625 4250 1398 4047 
Q 1172 3844 1172 3481 
z
" transform="scale(0.015625)"/>
       </defs>
       <use xlink:href="#DejaVuSans-2212"/>
       <use xlink:href="#DejaVuSans-38" x="83.789062"/>
      </g>
     </g>
    </g>
    <g id="ytick_4">
     <g id="line2d_21">
      <path d="M 54 143.28 
L 388.8 143.28 
" clip-path="url(#pf86741de9a)" style="fill: none; stroke-dasharray: 2.96,1.28; stroke-dashoffset: 0; stroke: #b0b0b0; stroke-width: 0.8"/>
     </g>
     <g id="line2d_22">
      <g>
       <use xlink:href="#mbc2dd91465" x="54" y="143.28" style="stroke: #000000; stroke-width: 0.8"/>
      </g>
     </g>
     <g id="text_12">
      <!-- −6 -->
      <g transform="translate(32.257812 147.079219)scale(0.1 -0.1)">
       <defs>
        <path id="DejaVuSans-36" d="M 2113 2584 
Q 1688 2584 1439 2293 
Q 1191 2003 1191 1497 
Q 1191 994 1439 701 
Q 1688 409 2113 409 
Q 2538 409 2786 701 
Q 3034 994 3034 1497 
Q 3034 2003 2786 2293 
Q 2538 2584 2113 2584 
z
M 3366 4563 
L 3366 3988 
Q 3128 4100 2886 4159 
Q 2644 4219 2406 4219 
Q 1781 4219 1451 3797 
Q 1122 3375 1075 2522 
Q 1259 2794 1537 2939 
Q 1816 3084 2150 3084 
Q 2853 3084 3261 2657 
Q 3669 2231 3669 1497 
Q 3669 778 3244 343 
Q 2819 -91 2113 -91 
Q 1303 -91 875 529 
Q 447 1150 447 2328 
Q 447 3434 972 4092 
Q 1497 4750 2381 4750 
Q 2619 4750 2861 4703 
Q 3103 4656 3366 4563 
z
" transform="scale(0.015625)"/>
       </defs>
       <use xlink:href="#DejaVuSans-2212"/>
       <use xlink:href="#DejaVuSans-36" x="83.789062"/>
      </g>
     </g>
    </g>
    <g id="ytick_5">
     <g id="line2d_23">
      <path d="M 54 109.827692 
L 388.8 109.827692 
" clip-path="url(#pf86741de9a)" style="fill: none; stroke-dasharray: 2.96,1.28; stroke-dashoffset: 0; stroke: #b0b0b0; stroke-width: 0.8"/>
     </g>
     <g id="line2d_24">
      <g>
       <use xlink:href="#mbc2dd91465" x="54" y="109.827692" style="stroke: #000000; stroke-width: 0.8"/>
      </g>
     </g>
     <g id="text_13">
      <!-- −4 -->
      <g transform="translate(32.257812 113.626911)scale(0.1 -0.1)">
       <defs>
        <path id="DejaVuSans-34" d="M 2419 4116 
L 825 1625 
L 2419 1625 
L 2419 4116 
z
M 2253 4666 
L 3047 4666 
L 3047 1625 
L 3713 1625 
L 3713 1100 
L 3047 1100 
L 3047 0 
L 2419 0 
L 2419 1100 
L 313 1100 
L 313 1709 
L 2253 4666 
z
" transform="scale(0.015625)"/>
       </defs>
       <use xlink:href="#DejaVuSans-2212"/>
       <use xlink:href="#DejaVuSans-34" x="83.789062"/>
      </g>
     </g>
    </g>
    <g id="ytick_6">
     <g id="line2d_25">
      <path d="M 54 76.375385 
L 388.8 76.375385 
" clip-path="url(#pf86741de9a)" style="fill: none; stroke-dasharray: 2.96,1.28; stroke-dashoffset: 0; stroke: #b0b0b0; stroke-width: 0.8"/>
     </g>
     <g id="line2d_26">
      <g>
       <use xlink:href="#mbc2dd91465" x="54" y="76.375385" style="stroke: #000000; stroke-width: 0.8"/>
      </g>
     </g>
     <g id="text_14">
      <!-- −2 -->
      <g transform="translate(32.257812 80.174603)scale(0.1 -0.1)">
       <use xlink:href="#DejaVuSans-2212"/>
       <use xlink:href="#DejaVuSans-32" x="83.789062"/>
      </g>
     </g>
    </g>
    <g id="ytick_7">
     <g id="line2d_27">
      <path d="M 54 42.923077 
L 388.8 42.923077 
" clip-path="url(#pf86741de9a)" style="fill: none; stroke-dasharray: 2.96,1.28; stroke-dashoffset: 0; stroke: #b0b0b0; stroke-width: 0.8"/>
     </g>
     <g id="line2d_28">
      <g>
       <use xlink:href="#mbc2dd91465" x="54" y="42.923077" style="stroke: #000000; stroke-width: 0.8"/>
      </g>
     </g>
     <g id="text_15">
      <!-- 0 -->
      <g transform="translate(40.6375 46.722296)scale(0.1 -0.1)">
       <use xlink:href="#DejaVuSans-30"/>
      </g>
     </g>
    </g>
    <g id="text_16">
     <!-- Policy value error -->
     <g transform="translate(19.815625 186.597969)rotate(-90)scale(0.1 -0.1)">
      <defs>
       <path id="DejaVuSans-50" d="M 1259 4147 
L 1259 2394 
L 2053 2394 
Q 2494 2394 2734 2622 
Q 2975 2850 2975 3272 
Q 2975 3691 2734 3919 
Q 2494 4147 2053 4147 
L 1259 4147 
z
M 628 4666 
L 2053 4666 
Q 2838 4666 3239 4311 
Q 3641 3956 3641 3272 
Q 3641 2581 3239 2228 
Q 2838 1875 2053 1875 
L 1259 1875 
L 1259 0 
L 628 0 
L 628 4666 
z
" transform="scale(0.015625)"/>
       <path id="DejaVuSans-6f" d="M 1959 3097 
Q 1497 3097 1228 2736 
Q 959 2375 959 1747 
Q 959 1119 1226 758 
Q 1494 397 1959 397 
Q 2419 397 2687 759 
Q 2956 1122 2956 1747 
Q 2956 2369 2687 2733 
Q 2419 3097 1959 3097 
z
M 1959 3584 
Q 2709 3584 3137 3096 
Q 3566 2609 3566 1747 
Q 3566 888 3137 398 
Q 2709 -91 1959 -91 
Q 1206 -91 779 398 
Q 353 888 353 1747 
Q 353 2609 779 3096 
Q 1206 3584 1959 3584 
z
" transform="scale(0.015625)"/>
       <path id="DejaVuSans-6c" d="M 603 4863 
L 1178 4863 
L 1178 0 
L 603 0 
L 603 4863 
z
" transform="scale(0.015625)"/>
       <path id="DejaVuSans-69" d="M 603 3500 
L 1178 3500 
L 1178 0 
L 603 0 
L 603 3500 
z
M 603 4863 
L 1178 4863 
L 1178 4134 
L 603 4134 
L 603 4863 
z
" transform="scale(0.015625)"/>
       <path id="DejaVuSans-63" d="M 3122 3366 
L 3122 2828 
Q 2878 2963 2633 3030 
Q 2388 3097 2138 3097 
Q 1578 3097 1268 2742 
Q 959 2388 959 1747 
Q 959 1106 1268 751 
Q 1578 397 2138 397 
Q 2388 397 2633 464 
Q 2878 531 3122 666 
L 3122 134 
Q 2881 22 2623 -34 
Q 2366 -91 2075 -91 
Q 1284 -91 818 406 
Q 353 903 353 1747 
Q 353 2603 823 3093 
Q 1294 3584 2113 3584 
Q 2378 3584 2631 3529 
Q 2884 3475 3122 3366 
z
" transform="scale(0.015625)"/>
       <path id="DejaVuSans-79" d="M 2059 -325 
Q 1816 -950 1584 -1140 
Q 1353 -1331 966 -1331 
L 506 -1331 
L 506 -850 
L 844 -850 
Q 1081 -850 1212 -737 
Q 1344 -625 1503 -206 
L 1606 56 
L 191 3500 
L 800 3500 
L 1894 763 
L 2988 3500 
L 3597 3500 
L 2059 -325 
z
" transform="scale(0.015625)"/>
       <path id="DejaVuSans-20" transform="scale(0.015625)"/>
       <path id="DejaVuSans-76" d="M 191 3500 
L 800 3500 
L 1894 563 
L 2988 3500 
L 3597 3500 
L 2284 0 
L 1503 0 
L 191 3500 
z
" transform="scale(0.015625)"/>
       <path id="DejaVuSans-61" d="M 2194 1759 
Q 1497 1759 1228 1600 
Q 959 1441 959 1056 
Q 959 750 1161 570 
Q 1363 391 1709 391 
Q 2188 391 2477 730 
Q 2766 1069 2766 1631 
L 2766 1759 
L 2194 1759 
z
M 3341 1997 
L 3341 0 
L 2766 0 
L 2766 531 
Q 2569 213 2275 61 
Q 1981 -91 1556 -91 
Q 1019 -91 701 211 
Q 384 513 384 1019 
Q 384 1609 779 1909 
Q 1175 2209 1959 2209 
L 2766 2209 
L 2766 2266 
Q 2766 2663 2505 2880 
Q 2244 3097 1772 3097 
Q 1472 3097 1187 3025 
Q 903 2953 641 2809 
L 641 3341 
Q 956 3463 1253 3523 
Q 1550 3584 1831 3584 
Q 2591 3584 2966 3190 
Q 3341 2797 3341 1997 
z
" transform="scale(0.015625)"/>
       <path id="DejaVuSans-75" d="M 544 1381 
L 544 3500 
L 1119 3500 
L 1119 1403 
Q 1119 906 1312 657 
Q 1506 409 1894 409 
Q 2359 409 2629 706 
Q 2900 1003 2900 1516 
L 2900 3500 
L 3475 3500 
L 3475 0 
L 2900 0 
L 2900 538 
Q 2691 219 2414 64 
Q 2138 -91 1772 -91 
Q 1169 -91 856 284 
Q 544 659 544 1381 
z
M 1991 3584 
L 1991 3584 
z
" transform="scale(0.015625)"/>
       <path id="DejaVuSans-72" d="M 2631 2963 
Q 2534 3019 2420 3045 
Q 2306 3072 2169 3072 
Q 1681 3072 1420 2755 
Q 1159 2438 1159 1844 
L 1159 0 
L 581 0 
L 581 3500 
L 1159 3500 
L 1159 2956 
Q 1341 3275 1631 3429 
Q 1922 3584 2338 3584 
Q 2397 3584 2469 3576 
Q 2541 3569 2628 3553 
L 2631 2963 
z
" transform="scale(0.015625)"/>
      </defs>
      <use xlink:href="#DejaVuSans-50"/>
      <use xlink:href="#DejaVuSans-6f" x="56.677734"/>
      <use xlink:href="#DejaVuSans-6c" x="117.859375"/>
      <use xlink:href="#DejaVuSans-69" x="145.642578"/>
      <use xlink:href="#DejaVuSans-63" x="173.425781"/>
      <use xlink:href="#DejaVuSans-79" x="228.40625"/>
      <use xlink:href="#DejaVuSans-20" x="287.585938"/>
      <use xlink:href="#DejaVuSans-76" x="319.373047"/>
      <use xlink:href="#DejaVuSans-61" x="378.552734"/>
      <use xlink:href="#DejaVuSans-6c" x="439.832031"/>
      <use xlink:href="#DejaVuSans-75" x="467.615234"/>
      <use xlink:href="#DejaVuSans-65" x="530.994141"/>
      <use xlink:href="#DejaVuSans-20" x="592.517578"/>
      <use xlink:href="#DejaVuSans-65" x="624.304688"/>
      <use xlink:href="#DejaVuSans-72" x="685.828125"/>
      <use xlink:href="#DejaVuSans-72" x="725.191406"/>
      <use xlink:href="#DejaVuSans-6f" x="764.054688"/>
      <use xlink:href="#DejaVuSans-72" x="825.236328"/>
     </g>
    </g>
   </g>
   <g id="line2d_29">
    <path d="M 69.218182 253.086956 
L 74.376888 255.747801 
L 79.535593 252.908818 
L 84.694299 253.911916 
L 89.853005 251.718138 
L 95.01171 248.80597 
L 100.170416 252.669233 
L 105.329122 157.077855 
L 110.487827 249.830717 
L 115.646533 194.051159 
L 120.805239 153.978958 
L 125.963945 96.339435 
L 131.12265 57.229547 
L 136.281356 67.5607 
L 141.440062 57.227572 
L 146.598767 71.520469 
L 151.757473 71.352284 
L 156.916179 43.345258 
L 162.074884 43.345258 
L 167.23359 45.679707 
L 172.392296 43.345258 
L 177.551002 43.344268 
L 182.709707 43.344268 
L 187.868413 47.555361 
L 193.027119 43.344268 
L 198.185824 43.344268 
L 203.34453 47.555361 
L 208.503236 47.83802 
L 213.661941 47.555361 
L 218.820647 43.344268 
L 223.979353 43.344268 
L 229.138059 43.344268 
L 234.296764 43.065221 
L 239.45547 43.065221 
L 244.614176 43.065221 
L 249.772881 46.594759 
L 254.931587 46.790801 
L 260.090293 43.344268 
L 265.248998 43.344268 
L 270.407704 43.344268 
L 275.56641 43.344268 
L 280.725116 45.678677 
L 285.883821 45.678677 
L 291.042527 45.678677 
L 296.201233 45.678677 
L 301.359938 45.678677 
L 306.518644 43.344268 
L 311.67735 43.344268 
L 316.836055 43.344268 
L 321.994761 43.344268 
L 327.153467 43.344268 
L 332.312173 43.344268 
L 337.470878 43.344268 
L 342.629584 43.344268 
L 347.78829 43.344268 
L 352.946995 43.344268 
L 358.105701 43.344268 
L 363.264407 43.344268 
L 368.423112 43.344268 
L 373.581818 43.344268 
" clip-path="url(#pf86741de9a)" style="fill: none; stroke: #9d02d7; stroke-width: 1.5; stroke-linecap: square"/>
    <defs>
     <path id="m1a491e8cc9" d="M 0 -2 
L -2 2 
L 2 2 
z
" style="stroke: #9d02d7; stroke-linejoin: miter"/>
    </defs>
    <g clip-path="url(#pf86741de9a)">
     <use xlink:href="#m1a491e8cc9" x="69.218182" y="253.086956" style="fill: #9d02d7; stroke: #9d02d7; stroke-linejoin: miter"/>
     <use xlink:href="#m1a491e8cc9" x="74.376888" y="255.747801" style="fill: #9d02d7; stroke: #9d02d7; stroke-linejoin: miter"/>
     <use xlink:href="#m1a491e8cc9" x="79.535593" y="252.908818" style="fill: #9d02d7; stroke: #9d02d7; stroke-linejoin: miter"/>
     <use xlink:href="#m1a491e8cc9" x="84.694299" y="253.911916" style="fill: #9d02d7; stroke: #9d02d7; stroke-linejoin: miter"/>
     <use xlink:href="#m1a491e8cc9" x="89.853005" y="251.718138" style="fill: #9d02d7; stroke: #9d02d7; stroke-linejoin: miter"/>
     <use xlink:href="#m1a491e8cc9" x="95.01171" y="248.80597" style="fill: #9d02d7; stroke: #9d02d7; stroke-linejoin: miter"/>
     <use xlink:href="#m1a491e8cc9" x="100.170416" y="252.669233" style="fill: #9d02d7; stroke: #9d02d7; stroke-linejoin: miter"/>
     <use xlink:href="#m1a491e8cc9" x="105.329122" y="157.077855" style="fill: #9d02d7; stroke: #9d02d7; stroke-linejoin: miter"/>
     <use xlink:href="#m1a491e8cc9" x="110.487827" y="249.830717" style="fill: #9d02d7; stroke: #9d02d7; stroke-linejoin: miter"/>
     <use xlink:href="#m1a491e8cc9" x="115.646533" y="194.051159" style="fill: #9d02d7; stroke: #9d02d7; stroke-linejoin: miter"/>
     <use xlink:href="#m1a491e8cc9" x="120.805239" y="153.978958" style="fill: #9d02d7; stroke: #9d02d7; stroke-linejoin: miter"/>
     <use xlink:href="#m1a491e8cc9" x="125.963945" y="96.339435" style="fill: #9d02d7; stroke: #9d02d7; stroke-linejoin: miter"/>
     <use xlink:href="#m1a491e8cc9" x="131.12265" y="57.229547" style="fill: #9d02d7; stroke: #9d02d7; stroke-linejoin: miter"/>
     <use xlink:href="#m1a491e8cc9" x="136.281356" y="67.5607" style="fill: #9d02d7; stroke: #9d02d7; stroke-linejoin: miter"/>
     <use xlink:href="#m1a491e8cc9" x="141.440062" y="57.227572" style="fill: #9d02d7; stroke: #9d02d7; stroke-linejoin: miter"/>
     <use xlink:href="#m1a491e8cc9" x="146.598767" y="71.520469" style="fill: #9d02d7; stroke: #9d02d7; stroke-linejoin: miter"/>
     <use xlink:href="#m1a491e8cc9" x="151.757473" y="71.352284" style="fill: #9d02d7; stroke: #9d02d7; stroke-linejoin: miter"/>
     <use xlink:href="#m1a491e8cc9" x="156.916179" y="43.345258" style="fill: #9d02d7; stroke: #9d02d7; stroke-linejoin: miter"/>
     <use xlink:href="#m1a491e8cc9" x="162.074884" y="43.345258" style="fill: #9d02d7; stroke: #9d02d7; stroke-linejoin: miter"/>
     <use xlink:href="#m1a491e8cc9" x="167.23359" y="45.679707" style="fill: #9d02d7; stroke: #9d02d7; stroke-linejoin: miter"/>
     <use xlink:href="#m1a491e8cc9" x="172.392296" y="43.345258" style="fill: #9d02d7; stroke: #9d02d7; stroke-linejoin: miter"/>
     <use xlink:href="#m1a491e8cc9" x="177.551002" y="43.344268" style="fill: #9d02d7; stroke: #9d02d7; stroke-linejoin: miter"/>
     <use xlink:href="#m1a491e8cc9" x="182.709707" y="43.344268" style="fill: #9d02d7; stroke: #9d02d7; stroke-linejoin: miter"/>
     <use xlink:href="#m1a491e8cc9" x="187.868413" y="47.555361" style="fill: #9d02d7; stroke: #9d02d7; stroke-linejoin: miter"/>
     <use xlink:href="#m1a491e8cc9" x="193.027119" y="43.344268" style="fill: #9d02d7; stroke: #9d02d7; stroke-linejoin: miter"/>
     <use xlink:href="#m1a491e8cc9" x="198.185824" y="43.344268" style="fill: #9d02d7; stroke: #9d02d7; stroke-linejoin: miter"/>
     <use xlink:href="#m1a491e8cc9" x="203.34453" y="47.555361" style="fill: #9d02d7; stroke: #9d02d7; stroke-linejoin: miter"/>
     <use xlink:href="#m1a491e8cc9" x="208.503236" y="47.83802" style="fill: #9d02d7; stroke: #9d02d7; stroke-linejoin: miter"/>
     <use xlink:href="#m1a491e8cc9" x="213.661941" y="47.555361" style="fill: #9d02d7; stroke: #9d02d7; stroke-linejoin: miter"/>
     <use xlink:href="#m1a491e8cc9" x="218.820647" y="43.344268" style="fill: #9d02d7; stroke: #9d02d7; stroke-linejoin: miter"/>
     <use xlink:href="#m1a491e8cc9" x="223.979353" y="43.344268" style="fill: #9d02d7; stroke: #9d02d7; stroke-linejoin: miter"/>
     <use xlink:href="#m1a491e8cc9" x="229.138059" y="43.344268" style="fill: #9d02d7; stroke: #9d02d7; stroke-linejoin: miter"/>
     <use xlink:href="#m1a491e8cc9" x="234.296764" y="43.065221" style="fill: #9d02d7; stroke: #9d02d7; stroke-linejoin: miter"/>
     <use xlink:href="#m1a491e8cc9" x="239.45547" y="43.065221" style="fill: #9d02d7; stroke: #9d02d7; stroke-linejoin: miter"/>
     <use xlink:href="#m1a491e8cc9" x="244.614176" y="43.065221" style="fill: #9d02d7; stroke: #9d02d7; stroke-linejoin: miter"/>
     <use xlink:href="#m1a491e8cc9" x="249.772881" y="46.594759" style="fill: #9d02d7; stroke: #9d02d7; stroke-linejoin: miter"/>
     <use xlink:href="#m1a491e8cc9" x="254.931587" y="46.790801" style="fill: #9d02d7; stroke: #9d02d7; stroke-linejoin: miter"/>
     <use xlink:href="#m1a491e8cc9" x="260.090293" y="43.344268" style="fill: #9d02d7; stroke: #9d02d7; stroke-linejoin: miter"/>
     <use xlink:href="#m1a491e8cc9" x="265.248998" y="43.344268" style="fill: #9d02d7; stroke: #9d02d7; stroke-linejoin: miter"/>
     <use xlink:href="#m1a491e8cc9" x="270.407704" y="43.344268" style="fill: #9d02d7; stroke: #9d02d7; stroke-linejoin: miter"/>
     <use xlink:href="#m1a491e8cc9" x="275.56641" y="43.344268" style="fill: #9d02d7; stroke: #9d02d7; stroke-linejoin: miter"/>
     <use xlink:href="#m1a491e8cc9" x="280.725116" y="45.678677" style="fill: #9d02d7; stroke: #9d02d7; stroke-linejoin: miter"/>
     <use xlink:href="#m1a491e8cc9" x="285.883821" y="45.678677" style="fill: #9d02d7; stroke: #9d02d7; stroke-linejoin: miter"/>
     <use xlink:href="#m1a491e8cc9" x="291.042527" y="45.678677" style="fill: #9d02d7; stroke: #9d02d7; stroke-linejoin: miter"/>
     <use xlink:href="#m1a491e8cc9" x="296.201233" y="45.678677" style="fill: #9d02d7; stroke: #9d02d7; stroke-linejoin: miter"/>
     <use xlink:href="#m1a491e8cc9" x="301.359938" y="45.678677" style="fill: #9d02d7; stroke: #9d02d7; stroke-linejoin: miter"/>
     <use xlink:href="#m1a491e8cc9" x="306.518644" y="43.344268" style="fill: #9d02d7; stroke: #9d02d7; stroke-linejoin: miter"/>
     <use xlink:href="#m1a491e8cc9" x="311.67735" y="43.344268" style="fill: #9d02d7; stroke: #9d02d7; stroke-linejoin: miter"/>
     <use xlink:href="#m1a491e8cc9" x="316.836055" y="43.344268" style="fill: #9d02d7; stroke: #9d02d7; stroke-linejoin: miter"/>
     <use xlink:href="#m1a491e8cc9" x="321.994761" y="43.344268" style="fill: #9d02d7; stroke: #9d02d7; stroke-linejoin: miter"/>
     <use xlink:href="#m1a491e8cc9" x="327.153467" y="43.344268" style="fill: #9d02d7; stroke: #9d02d7; stroke-linejoin: miter"/>
     <use xlink:href="#m1a491e8cc9" x="332.312173" y="43.344268" style="fill: #9d02d7; stroke: #9d02d7; stroke-linejoin: miter"/>
     <use xlink:href="#m1a491e8cc9" x="337.470878" y="43.344268" style="fill: #9d02d7; stroke: #9d02d7; stroke-linejoin: miter"/>
     <use xlink:href="#m1a491e8cc9" x="342.629584" y="43.344268" style="fill: #9d02d7; stroke: #9d02d7; stroke-linejoin: miter"/>
     <use xlink:href="#m1a491e8cc9" x="347.78829" y="43.344268" style="fill: #9d02d7; stroke: #9d02d7; stroke-linejoin: miter"/>
     <use xlink:href="#m1a491e8cc9" x="352.946995" y="43.344268" style="fill: #9d02d7; stroke: #9d02d7; stroke-linejoin: miter"/>
     <use xlink:href="#m1a491e8cc9" x="358.105701" y="43.344268" style="fill: #9d02d7; stroke: #9d02d7; stroke-linejoin: miter"/>
     <use xlink:href="#m1a491e8cc9" x="363.264407" y="43.344268" style="fill: #9d02d7; stroke: #9d02d7; stroke-linejoin: miter"/>
     <use xlink:href="#m1a491e8cc9" x="368.423112" y="43.344268" style="fill: #9d02d7; stroke: #9d02d7; stroke-linejoin: miter"/>
     <use xlink:href="#m1a491e8cc9" x="373.581818" y="43.344268" style="fill: #9d02d7; stroke: #9d02d7; stroke-linejoin: miter"/>
    </g>
   </g>
   <g id="line2d_30">
    <path d="M 69.218182 264.675667 
L 74.376888 252.908818 
L 79.535593 253.256565 
L 84.694299 253.034282 
L 89.853005 252.911062 
L 95.01171 251.559918 
L 100.170416 251.060557 
L 105.329122 251.891139 
L 110.487827 247.406669 
L 115.646533 123.067018 
L 120.805239 124.420241 
L 125.963945 148.698931 
L 131.12265 63.699918 
L 136.281356 80.416638 
L 141.440062 57.968834 
L 146.598767 48.823423 
L 151.757473 51.965985 
L 156.916179 52.062221 
L 162.074884 48.822968 
L 167.23359 48.822968 
L 172.392296 48.822968 
L 177.551002 48.822968 
L 182.709707 49.155279 
L 187.868413 49.155279 
L 193.027119 49.155279 
L 198.185824 53.127383 
L 203.34453 49.155279 
L 208.503236 49.155279 
L 213.661941 49.155279 
L 218.820647 49.155279 
L 223.979353 49.155279 
L 229.138059 49.155279 
L 234.296764 48.822968 
L 239.45547 48.822968 
L 244.614176 48.822968 
L 249.772881 48.822968 
L 254.931587 48.822968 
L 260.090293 43.977598 
L 265.248998 43.977598 
L 270.407704 43.977598 
L 275.56641 43.976453 
L 280.725116 43.976453 
L 285.883821 43.976453 
L 291.042527 43.976453 
L 296.201233 43.976453 
L 301.359938 43.976453 
L 306.518644 43.976453 
L 311.67735 43.976453 
L 316.836055 43.976453 
L 321.994761 43.976453 
L 327.153467 43.976453 
L 332.312173 43.976453 
L 337.470878 43.976453 
L 342.629584 43.976453 
L 347.78829 43.976453 
L 352.946995 43.976453 
L 358.105701 43.976453 
L 363.264407 43.976453 
L 368.423112 43.976453 
L 373.581818 43.976453 
" clip-path="url(#pf86741de9a)" style="fill: none; stroke: #0000ff; stroke-width: 1.5; stroke-linecap: square"/>
    <defs>
     <path id="m07e4ceb7f9" d="M 0 2 
C 0.530406 2 1.03916 1.789267 1.414214 1.414214 
C 1.789267 1.03916 2 0.530406 2 0 
C 2 -0.530406 1.789267 -1.03916 1.414214 -1.414214 
C 1.03916 -1.789267 0.530406 -2 0 -2 
C -0.530406 -2 -1.03916 -1.789267 -1.414214 -1.414214 
C -1.789267 -1.03916 -2 -0.530406 -2 0 
C -2 0.530406 -1.789267 1.03916 -1.414214 1.414214 
C -1.03916 1.789267 -0.530406 2 0 2 
z
" style="stroke: #0000ff"/>
    </defs>
    <g clip-path="url(#pf86741de9a)">
     <use xlink:href="#m07e4ceb7f9" x="69.218182" y="264.675667" style="fill: #0000ff; stroke: #0000ff"/>
     <use xlink:href="#m07e4ceb7f9" x="74.376888" y="252.908818" style="fill: #0000ff; stroke: #0000ff"/>
     <use xlink:href="#m07e4ceb7f9" x="79.535593" y="253.256565" style="fill: #0000ff; stroke: #0000ff"/>
     <use xlink:href="#m07e4ceb7f9" x="84.694299" y="253.034282" style="fill: #0000ff; stroke: #0000ff"/>
     <use xlink:href="#m07e4ceb7f9" x="89.853005" y="252.911062" style="fill: #0000ff; stroke: #0000ff"/>
     <use xlink:href="#m07e4ceb7f9" x="95.01171" y="251.559918" style="fill: #0000ff; stroke: #0000ff"/>
     <use xlink:href="#m07e4ceb7f9" x="100.170416" y="251.060557" style="fill: #0000ff; stroke: #0000ff"/>
     <use xlink:href="#m07e4ceb7f9" x="105.329122" y="251.891139" style="fill: #0000ff; stroke: #0000ff"/>
     <use xlink:href="#m07e4ceb7f9" x="110.487827" y="247.406669" style="fill: #0000ff; stroke: #0000ff"/>
     <use xlink:href="#m07e4ceb7f9" x="115.646533" y="123.067018" style="fill: #0000ff; stroke: #0000ff"/>
     <use xlink:href="#m07e4ceb7f9" x="120.805239" y="124.420241" style="fill: #0000ff; stroke: #0000ff"/>
     <use xlink:href="#m07e4ceb7f9" x="125.963945" y="148.698931" style="fill: #0000ff; stroke: #0000ff"/>
     <use xlink:href="#m07e4ceb7f9" x="131.12265" y="63.699918" style="fill: #0000ff; stroke: #0000ff"/>
     <use xlink:href="#m07e4ceb7f9" x="136.281356" y="80.416638" style="fill: #0000ff; stroke: #0000ff"/>
     <use xlink:href="#m07e4ceb7f9" x="141.440062" y="57.968834" style="fill: #0000ff; stroke: #0000ff"/>
     <use xlink:href="#m07e4ceb7f9" x="146.598767" y="48.823423" style="fill: #0000ff; stroke: #0000ff"/>
     <use xlink:href="#m07e4ceb7f9" x="151.757473" y="51.965985" style="fill: #0000ff; stroke: #0000ff"/>
     <use xlink:href="#m07e4ceb7f9" x="156.916179" y="52.062221" style="fill: #0000ff; stroke: #0000ff"/>
     <use xlink:href="#m07e4ceb7f9" x="162.074884" y="48.822968" style="fill: #0000ff; stroke: #0000ff"/>
     <use xlink:href="#m07e4ceb7f9" x="167.23359" y="48.822968" style="fill: #0000ff; stroke: #0000ff"/>
     <use xlink:href="#m07e4ceb7f9" x="172.392296" y="48.822968" style="fill: #0000ff; stroke: #0000ff"/>
     <use xlink:href="#m07e4ceb7f9" x="177.551002" y="48.822968" style="fill: #0000ff; stroke: #0000ff"/>
     <use xlink:href="#m07e4ceb7f9" x="182.709707" y="49.155279" style="fill: #0000ff; stroke: #0000ff"/>
     <use xlink:href="#m07e4ceb7f9" x="187.868413" y="49.155279" style="fill: #0000ff; stroke: #0000ff"/>
     <use xlink:href="#m07e4ceb7f9" x="193.027119" y="49.155279" style="fill: #0000ff; stroke: #0000ff"/>
     <use xlink:href="#m07e4ceb7f9" x="198.185824" y="53.127383" style="fill: #0000ff; stroke: #0000ff"/>
     <use xlink:href="#m07e4ceb7f9" x="203.34453" y="49.155279" style="fill: #0000ff; stroke: #0000ff"/>
     <use xlink:href="#m07e4ceb7f9" x="208.503236" y="49.155279" style="fill: #0000ff; stroke: #0000ff"/>
     <use xlink:href="#m07e4ceb7f9" x="213.661941" y="49.155279" style="fill: #0000ff; stroke: #0000ff"/>
     <use xlink:href="#m07e4ceb7f9" x="218.820647" y="49.155279" style="fill: #0000ff; stroke: #0000ff"/>
     <use xlink:href="#m07e4ceb7f9" x="223.979353" y="49.155279" style="fill: #0000ff; stroke: #0000ff"/>
     <use xlink:href="#m07e4ceb7f9" x="229.138059" y="49.155279" style="fill: #0000ff; stroke: #0000ff"/>
     <use xlink:href="#m07e4ceb7f9" x="234.296764" y="48.822968" style="fill: #0000ff; stroke: #0000ff"/>
     <use xlink:href="#m07e4ceb7f9" x="239.45547" y="48.822968" style="fill: #0000ff; stroke: #0000ff"/>
     <use xlink:href="#m07e4ceb7f9" x="244.614176" y="48.822968" style="fill: #0000ff; stroke: #0000ff"/>
     <use xlink:href="#m07e4ceb7f9" x="249.772881" y="48.822968" style="fill: #0000ff; stroke: #0000ff"/>
     <use xlink:href="#m07e4ceb7f9" x="254.931587" y="48.822968" style="fill: #0000ff; stroke: #0000ff"/>
     <use xlink:href="#m07e4ceb7f9" x="260.090293" y="43.977598" style="fill: #0000ff; stroke: #0000ff"/>
     <use xlink:href="#m07e4ceb7f9" x="265.248998" y="43.977598" style="fill: #0000ff; stroke: #0000ff"/>
     <use xlink:href="#m07e4ceb7f9" x="270.407704" y="43.977598" style="fill: #0000ff; stroke: #0000ff"/>
     <use xlink:href="#m07e4ceb7f9" x="275.56641" y="43.976453" style="fill: #0000ff; stroke: #0000ff"/>
     <use xlink:href="#m07e4ceb7f9" x="280.725116" y="43.976453" style="fill: #0000ff; stroke: #0000ff"/>
     <use xlink:href="#m07e4ceb7f9" x="285.883821" y="43.976453" style="fill: #0000ff; stroke: #0000ff"/>
     <use xlink:href="#m07e4ceb7f9" x="291.042527" y="43.976453" style="fill: #0000ff; stroke: #0000ff"/>
     <use xlink:href="#m07e4ceb7f9" x="296.201233" y="43.976453" style="fill: #0000ff; stroke: #0000ff"/>
     <use xlink:href="#m07e4ceb7f9" x="301.359938" y="43.976453" style="fill: #0000ff; stroke: #0000ff"/>
     <use xlink:href="#m07e4ceb7f9" x="306.518644" y="43.976453" style="fill: #0000ff; stroke: #0000ff"/>
     <use xlink:href="#m07e4ceb7f9" x="311.67735" y="43.976453" style="fill: #0000ff; stroke: #0000ff"/>
     <use xlink:href="#m07e4ceb7f9" x="316.836055" y="43.976453" style="fill: #0000ff; stroke: #0000ff"/>
     <use xlink:href="#m07e4ceb7f9" x="321.994761" y="43.976453" style="fill: #0000ff; stroke: #0000ff"/>
     <use xlink:href="#m07e4ceb7f9" x="327.153467" y="43.976453" style="fill: #0000ff; stroke: #0000ff"/>
     <use xlink:href="#m07e4ceb7f9" x="332.312173" y="43.976453" style="fill: #0000ff; stroke: #0000ff"/>
     <use xlink:href="#m07e4ceb7f9" x="337.470878" y="43.976453" style="fill: #0000ff; stroke: #0000ff"/>
     <use xlink:href="#m07e4ceb7f9" x="342.629584" y="43.976453" style="fill: #0000ff; stroke: #0000ff"/>
     <use xlink:href="#m07e4ceb7f9" x="347.78829" y="43.976453" style="fill: #0000ff; stroke: #0000ff"/>
     <use xlink:href="#m07e4ceb7f9" x="352.946995" y="43.976453" style="fill: #0000ff; stroke: #0000ff"/>
     <use xlink:href="#m07e4ceb7f9" x="358.105701" y="43.976453" style="fill: #0000ff; stroke: #0000ff"/>
     <use xlink:href="#m07e4ceb7f9" x="363.264407" y="43.976453" style="fill: #0000ff; stroke: #0000ff"/>
     <use xlink:href="#m07e4ceb7f9" x="368.423112" y="43.976453" style="fill: #0000ff; stroke: #0000ff"/>
     <use xlink:href="#m07e4ceb7f9" x="373.581818" y="43.976453" style="fill: #0000ff; stroke: #0000ff"/>
    </g>
   </g>
   <g id="line2d_31">
    <path d="M 69.218182 252.351276 
L 74.376888 252.908818 
L 79.535593 252.915915 
L 84.694299 252.924554 
L 89.853005 252.908818 
L 95.01171 202.284682 
L 100.170416 246.144553 
L 105.329122 249.84524 
L 110.487827 247.013241 
L 115.646533 237.103482 
L 120.805239 236.376817 
L 125.963945 238.118753 
L 131.12265 196.201407 
L 136.281356 167.697177 
L 141.440062 172.182983 
L 146.598767 176.443138 
L 151.757473 191.559945 
L 156.916179 191.559945 
L 162.074884 160.507238 
L 167.23359 71.796933 
L 172.392296 71.766885 
L 177.551002 49.54442 
L 182.709707 43.779291 
L 187.868413 48.373731 
L 193.027119 48.373731 
L 198.185824 48.082409 
L 203.34453 48.082409 
L 208.503236 48.082409 
L 213.661941 43.779291 
L 218.820647 43.779291 
L 223.979353 48.082409 
L 229.138059 43.493836 
L 234.296764 43.066387 
L 239.45547 43.066387 
L 244.614176 43.066387 
L 249.772881 43.066387 
L 254.931587 43.066387 
L 260.090293 43.066387 
L 265.248998 43.066387 
L 270.407704 43.066387 
L 275.56641 43.066387 
L 280.725116 43.066387 
L 285.883821 43.066387 
L 291.042527 43.066387 
L 296.201233 43.066387 
L 301.359938 43.066387 
L 306.518644 43.345433 
L 311.67735 43.345433 
L 316.836055 43.345433 
L 321.994761 43.345433 
L 327.153467 43.345433 
L 332.312173 43.345433 
L 337.470878 43.345433 
L 342.629584 43.345433 
L 347.78829 43.345433 
L 352.946995 43.345433 
L 358.105701 43.345433 
L 363.264407 43.345433 
L 368.423112 43.345433 
L 373.581818 43.345433 
" clip-path="url(#pf86741de9a)" style="fill: none; stroke: #ff7763; stroke-width: 1.5; stroke-linecap: square"/>
    <defs>
     <path id="mb92173a45e" d="M -2 2 
L 2 -2 
M -2 -2 
L 2 2 
" style="stroke: #ff7763"/>
    </defs>
    <g clip-path="url(#pf86741de9a)">
     <use xlink:href="#mb92173a45e" x="69.218182" y="252.351276" style="fill: #ff7763; stroke: #ff7763"/>
     <use xlink:href="#mb92173a45e" x="74.376888" y="252.908818" style="fill: #ff7763; stroke: #ff7763"/>
     <use xlink:href="#mb92173a45e" x="79.535593" y="252.915915" style="fill: #ff7763; stroke: #ff7763"/>
     <use xlink:href="#mb92173a45e" x="84.694299" y="252.924554" style="fill: #ff7763; stroke: #ff7763"/>
     <use xlink:href="#mb92173a45e" x="89.853005" y="252.908818" style="fill: #ff7763; stroke: #ff7763"/>
     <use xlink:href="#mb92173a45e" x="95.01171" y="202.284682" style="fill: #ff7763; stroke: #ff7763"/>
     <use xlink:href="#mb92173a45e" x="100.170416" y="246.144553" style="fill: #ff7763; stroke: #ff7763"/>
     <use xlink:href="#mb92173a45e" x="105.329122" y="249.84524" style="fill: #ff7763; stroke: #ff7763"/>
     <use xlink:href="#mb92173a45e" x="110.487827" y="247.013241" style="fill: #ff7763; stroke: #ff7763"/>
     <use xlink:href="#mb92173a45e" x="115.646533" y="237.103482" style="fill: #ff7763; stroke: #ff7763"/>
     <use xlink:href="#mb92173a45e" x="120.805239" y="236.376817" style="fill: #ff7763; stroke: #ff7763"/>
     <use xlink:href="#mb92173a45e" x="125.963945" y="238.118753" style="fill: #ff7763; stroke: #ff7763"/>
     <use xlink:href="#mb92173a45e" x="131.12265" y="196.201407" style="fill: #ff7763; stroke: #ff7763"/>
     <use xlink:href="#mb92173a45e" x="136.281356" y="167.697177" style="fill: #ff7763; stroke: #ff7763"/>
     <use xlink:href="#mb92173a45e" x="141.440062" y="172.182983" style="fill: #ff7763; stroke: #ff7763"/>
     <use xlink:href="#mb92173a45e" x="146.598767" y="176.443138" style="fill: #ff7763; stroke: #ff7763"/>
     <use xlink:href="#mb92173a45e" x="151.757473" y="191.559945" style="fill: #ff7763; stroke: #ff7763"/>
     <use xlink:href="#mb92173a45e" x="156.916179" y="191.559945" style="fill: #ff7763; stroke: #ff7763"/>
     <use xlink:href="#mb92173a45e" x="162.074884" y="160.507238" style="fill: #ff7763; stroke: #ff7763"/>
     <use xlink:href="#mb92173a45e" x="167.23359" y="71.796933" style="fill: #ff7763; stroke: #ff7763"/>
     <use xlink:href="#mb92173a45e" x="172.392296" y="71.766885" style="fill: #ff7763; stroke: #ff7763"/>
     <use xlink:href="#mb92173a45e" x="177.551002" y="49.54442" style="fill: #ff7763; stroke: #ff7763"/>
     <use xlink:href="#mb92173a45e" x="182.709707" y="43.779291" style="fill: #ff7763; stroke: #ff7763"/>
     <use xlink:href="#mb92173a45e" x="187.868413" y="48.373731" style="fill: #ff7763; stroke: #ff7763"/>
     <use xlink:href="#mb92173a45e" x="193.027119" y="48.373731" style="fill: #ff7763; stroke: #ff7763"/>
     <use xlink:href="#mb92173a45e" x="198.185824" y="48.082409" style="fill: #ff7763; stroke: #ff7763"/>
     <use xlink:href="#mb92173a45e" x="203.34453" y="48.082409" style="fill: #ff7763; stroke: #ff7763"/>
     <use xlink:href="#mb92173a45e" x="208.503236" y="48.082409" style="fill: #ff7763; stroke: #ff7763"/>
     <use xlink:href="#mb92173a45e" x="213.661941" y="43.779291" style="fill: #ff7763; stroke: #ff7763"/>
     <use xlink:href="#mb92173a45e" x="218.820647" y="43.779291" style="fill: #ff7763; stroke: #ff7763"/>
     <use xlink:href="#mb92173a45e" x="223.979353" y="48.082409" style="fill: #ff7763; stroke: #ff7763"/>
     <use xlink:href="#mb92173a45e" x="229.138059" y="43.493836" style="fill: #ff7763; stroke: #ff7763"/>
     <use xlink:href="#mb92173a45e" x="234.296764" y="43.066387" style="fill: #ff7763; stroke: #ff7763"/>
     <use xlink:href="#mb92173a45e" x="239.45547" y="43.066387" style="fill: #ff7763; stroke: #ff7763"/>
     <use xlink:href="#mb92173a45e" x="244.614176" y="43.066387" style="fill: #ff7763; stroke: #ff7763"/>
     <use xlink:href="#mb92173a45e" x="249.772881" y="43.066387" style="fill: #ff7763; stroke: #ff7763"/>
     <use xlink:href="#mb92173a45e" x="254.931587" y="43.066387" style="fill: #ff7763; stroke: #ff7763"/>
     <use xlink:href="#mb92173a45e" x="260.090293" y="43.066387" style="fill: #ff7763; stroke: #ff7763"/>
     <use xlink:href="#mb92173a45e" x="265.248998" y="43.066387" style="fill: #ff7763; stroke: #ff7763"/>
     <use xlink:href="#mb92173a45e" x="270.407704" y="43.066387" style="fill: #ff7763; stroke: #ff7763"/>
     <use xlink:href="#mb92173a45e" x="275.56641" y="43.066387" style="fill: #ff7763; stroke: #ff7763"/>
     <use xlink:href="#mb92173a45e" x="280.725116" y="43.066387" style="fill: #ff7763; stroke: #ff7763"/>
     <use xlink:href="#mb92173a45e" x="285.883821" y="43.066387" style="fill: #ff7763; stroke: #ff7763"/>
     <use xlink:href="#mb92173a45e" x="291.042527" y="43.066387" style="fill: #ff7763; stroke: #ff7763"/>
     <use xlink:href="#mb92173a45e" x="296.201233" y="43.066387" style="fill: #ff7763; stroke: #ff7763"/>
     <use xlink:href="#mb92173a45e" x="301.359938" y="43.066387" style="fill: #ff7763; stroke: #ff7763"/>
     <use xlink:href="#mb92173a45e" x="306.518644" y="43.345433" style="fill: #ff7763; stroke: #ff7763"/>
     <use xlink:href="#mb92173a45e" x="311.67735" y="43.345433" style="fill: #ff7763; stroke: #ff7763"/>
     <use xlink:href="#mb92173a45e" x="316.836055" y="43.345433" style="fill: #ff7763; stroke: #ff7763"/>
     <use xlink:href="#mb92173a45e" x="321.994761" y="43.345433" style="fill: #ff7763; stroke: #ff7763"/>
     <use xlink:href="#mb92173a45e" x="327.153467" y="43.345433" style="fill: #ff7763; stroke: #ff7763"/>
     <use xlink:href="#mb92173a45e" x="332.312173" y="43.345433" style="fill: #ff7763; stroke: #ff7763"/>
     <use xlink:href="#mb92173a45e" x="337.470878" y="43.345433" style="fill: #ff7763; stroke: #ff7763"/>
     <use xlink:href="#mb92173a45e" x="342.629584" y="43.345433" style="fill: #ff7763; stroke: #ff7763"/>
     <use xlink:href="#mb92173a45e" x="347.78829" y="43.345433" style="fill: #ff7763; stroke: #ff7763"/>
     <use xlink:href="#mb92173a45e" x="352.946995" y="43.345433" style="fill: #ff7763; stroke: #ff7763"/>
     <use xlink:href="#mb92173a45e" x="358.105701" y="43.345433" style="fill: #ff7763; stroke: #ff7763"/>
     <use xlink:href="#mb92173a45e" x="363.264407" y="43.345433" style="fill: #ff7763; stroke: #ff7763"/>
     <use xlink:href="#mb92173a45e" x="368.423112" y="43.345433" style="fill: #ff7763; stroke: #ff7763"/>
     <use xlink:href="#mb92173a45e" x="373.581818" y="43.345433" style="fill: #ff7763; stroke: #ff7763"/>
    </g>
   </g>
   <g id="line2d_32">
    <path d="M 69.218182 253.041707 
L 74.376888 255.956814 
L 79.535593 254.612113 
L 84.694299 252.9442 
L 89.853005 256.406188 
L 95.01171 236.785739 
L 100.170416 230.473136 
L 105.329122 234.545087 
L 110.487827 228.365661 
L 115.646533 192.952047 
L 120.805239 49.530754 
L 125.963945 189.740727 
L 131.12265 64.8135 
L 136.281356 47.039225 
L 141.440062 47.033257 
L 146.598767 47.033452 
L 151.757473 43.154719 
L 156.916179 43.143158 
L 162.074884 44.053681 
L 167.23359 51.378887 
L 172.392296 48.915198 
L 177.551002 47.1155 
L 182.709707 47.1155 
L 187.868413 47.1155 
L 193.027119 47.1155 
L 198.185824 47.1155 
L 203.34453 47.1155 
L 208.503236 47.1155 
L 213.661941 47.1155 
L 218.820647 46.899721 
L 223.979353 46.899721 
L 229.138059 46.899721 
L 234.296764 46.899721 
L 239.45547 46.90838 
L 244.614176 46.90838 
L 249.772881 47.866025 
L 254.931587 43.568377 
L 260.090293 43.568377 
L 265.248998 43.504753 
L 270.407704 43.568377 
L 275.56641 43.568377 
L 280.725116 43.325763 
L 285.883821 43.325763 
L 291.042527 43.325763 
L 296.201233 43.325763 
L 301.359938 43.325763 
L 306.518644 43.325763 
L 311.67735 43.325763 
L 316.836055 43.325763 
L 321.994761 43.493836 
L 327.153467 43.493836 
L 332.312173 43.493836 
L 337.470878 43.493836 
L 342.629584 43.493836 
L 347.78829 43.493836 
L 352.946995 43.493836 
L 358.105701 43.493836 
L 363.264407 43.493836 
L 368.423112 43.493836 
L 373.581818 43.493836 
" clip-path="url(#pf86741de9a)" style="fill: none; stroke: #ffac1e; stroke-width: 1.5; stroke-linecap: square"/>
    <defs>
     <path id="ma863c27d12" d="M 0 -2 
L -0.449028 -0.618034 
L -1.902113 -0.618034 
L -0.726543 0.236068 
L -1.175571 1.618034 
L -0 0.763932 
L 1.175571 1.618034 
L 0.726543 0.236068 
L 1.902113 -0.618034 
L 0.449028 -0.618034 
z
" style="stroke: #ffac1e; stroke-linejoin: bevel"/>
    </defs>
    <g clip-path="url(#pf86741de9a)">
     <use xlink:href="#ma863c27d12" x="69.218182" y="253.041707" style="fill: #ffac1e; stroke: #ffac1e; stroke-linejoin: bevel"/>
     <use xlink:href="#ma863c27d12" x="74.376888" y="255.956814" style="fill: #ffac1e; stroke: #ffac1e; stroke-linejoin: bevel"/>
     <use xlink:href="#ma863c27d12" x="79.535593" y="254.612113" style="fill: #ffac1e; stroke: #ffac1e; stroke-linejoin: bevel"/>
     <use xlink:href="#ma863c27d12" x="84.694299" y="252.9442" style="fill: #ffac1e; stroke: #ffac1e; stroke-linejoin: bevel"/>
     <use xlink:href="#ma863c27d12" x="89.853005" y="256.406188" style="fill: #ffac1e; stroke: #ffac1e; stroke-linejoin: bevel"/>
     <use xlink:href="#ma863c27d12" x="95.01171" y="236.785739" style="fill: #ffac1e; stroke: #ffac1e; stroke-linejoin: bevel"/>
     <use xlink:href="#ma863c27d12" x="100.170416" y="230.473136" style="fill: #ffac1e; stroke: #ffac1e; stroke-linejoin: bevel"/>
     <use xlink:href="#ma863c27d12" x="105.329122" y="234.545087" style="fill: #ffac1e; stroke: #ffac1e; stroke-linejoin: bevel"/>
     <use xlink:href="#ma863c27d12" x="110.487827" y="228.365661" style="fill: #ffac1e; stroke: #ffac1e; stroke-linejoin: bevel"/>
     <use xlink:href="#ma863c27d12" x="115.646533" y="192.952047" style="fill: #ffac1e; stroke: #ffac1e; stroke-linejoin: bevel"/>
     <use xlink:href="#ma863c27d12" x="120.805239" y="49.530754" style="fill: #ffac1e; stroke: #ffac1e; stroke-linejoin: bevel"/>
     <use xlink:href="#ma863c27d12" x="125.963945" y="189.740727" style="fill: #ffac1e; stroke: #ffac1e; stroke-linejoin: bevel"/>
     <use xlink:href="#ma863c27d12" x="131.12265" y="64.8135" style="fill: #ffac1e; stroke: #ffac1e; stroke-linejoin: bevel"/>
     <use xlink:href="#ma863c27d12" x="136.281356" y="47.039225" style="fill: #ffac1e; stroke: #ffac1e; stroke-linejoin: bevel"/>
     <use xlink:href="#ma863c27d12" x="141.440062" y="47.033257" style="fill: #ffac1e; stroke: #ffac1e; stroke-linejoin: bevel"/>
     <use xlink:href="#ma863c27d12" x="146.598767" y="47.033452" style="fill: #ffac1e; stroke: #ffac1e; stroke-linejoin: bevel"/>
     <use xlink:href="#ma863c27d12" x="151.757473" y="43.154719" style="fill: #ffac1e; stroke: #ffac1e; stroke-linejoin: bevel"/>
     <use xlink:href="#ma863c27d12" x="156.916179" y="43.143158" style="fill: #ffac1e; stroke: #ffac1e; stroke-linejoin: bevel"/>
     <use xlink:href="#ma863c27d12" x="162.074884" y="44.053681" style="fill: #ffac1e; stroke: #ffac1e; stroke-linejoin: bevel"/>
     <use xlink:href="#ma863c27d12" x="167.23359" y="51.378887" style="fill: #ffac1e; stroke: #ffac1e; stroke-linejoin: bevel"/>
     <use xlink:href="#ma863c27d12" x="172.392296" y="48.915198" style="fill: #ffac1e; stroke: #ffac1e; stroke-linejoin: bevel"/>
     <use xlink:href="#ma863c27d12" x="177.551002" y="47.1155" style="fill: #ffac1e; stroke: #ffac1e; stroke-linejoin: bevel"/>
     <use xlink:href="#ma863c27d12" x="182.709707" y="47.1155" style="fill: #ffac1e; stroke: #ffac1e; stroke-linejoin: bevel"/>
     <use xlink:href="#ma863c27d12" x="187.868413" y="47.1155" style="fill: #ffac1e; stroke: #ffac1e; stroke-linejoin: bevel"/>
     <use xlink:href="#ma863c27d12" x="193.027119" y="47.1155" style="fill: #ffac1e; stroke: #ffac1e; stroke-linejoin: bevel"/>
     <use xlink:href="#ma863c27d12" x="198.185824" y="47.1155" style="fill: #ffac1e; stroke: #ffac1e; stroke-linejoin: bevel"/>
     <use xlink:href="#ma863c27d12" x="203.34453" y="47.1155" style="fill: #ffac1e; stroke: #ffac1e; stroke-linejoin: bevel"/>
     <use xlink:href="#ma863c27d12" x="208.503236" y="47.1155" style="fill: #ffac1e; stroke: #ffac1e; stroke-linejoin: bevel"/>
     <use xlink:href="#ma863c27d12" x="213.661941" y="47.1155" style="fill: #ffac1e; stroke: #ffac1e; stroke-linejoin: bevel"/>
     <use xlink:href="#ma863c27d12" x="218.820647" y="46.899721" style="fill: #ffac1e; stroke: #ffac1e; stroke-linejoin: bevel"/>
     <use xlink:href="#ma863c27d12" x="223.979353" y="46.899721" style="fill: #ffac1e; stroke: #ffac1e; stroke-linejoin: bevel"/>
     <use xlink:href="#ma863c27d12" x="229.138059" y="46.899721" style="fill: #ffac1e; stroke: #ffac1e; stroke-linejoin: bevel"/>
     <use xlink:href="#ma863c27d12" x="234.296764" y="46.899721" style="fill: #ffac1e; stroke: #ffac1e; stroke-linejoin: bevel"/>
     <use xlink:href="#ma863c27d12" x="239.45547" y="46.90838" style="fill: #ffac1e; stroke: #ffac1e; stroke-linejoin: bevel"/>
     <use xlink:href="#ma863c27d12" x="244.614176" y="46.90838" style="fill: #ffac1e; stroke: #ffac1e; stroke-linejoin: bevel"/>
     <use xlink:href="#ma863c27d12" x="249.772881" y="47.866025" style="fill: #ffac1e; stroke: #ffac1e; stroke-linejoin: bevel"/>
     <use xlink:href="#ma863c27d12" x="254.931587" y="43.568377" style="fill: #ffac1e; stroke: #ffac1e; stroke-linejoin: bevel"/>
     <use xlink:href="#ma863c27d12" x="260.090293" y="43.568377" style="fill: #ffac1e; stroke: #ffac1e; stroke-linejoin: bevel"/>
     <use xlink:href="#ma863c27d12" x="265.248998" y="43.504753" style="fill: #ffac1e; stroke: #ffac1e; stroke-linejoin: bevel"/>
     <use xlink:href="#ma863c27d12" x="270.407704" y="43.568377" style="fill: #ffac1e; stroke: #ffac1e; stroke-linejoin: bevel"/>
     <use xlink:href="#ma863c27d12" x="275.56641" y="43.568377" style="fill: #ffac1e; stroke: #ffac1e; stroke-linejoin: bevel"/>
     <use xlink:href="#ma863c27d12" x="280.725116" y="43.325763" style="fill: #ffac1e; stroke: #ffac1e; stroke-linejoin: bevel"/>
     <use xlink:href="#ma863c27d12" x="285.883821" y="43.325763" style="fill: #ffac1e; stroke: #ffac1e; stroke-linejoin: bevel"/>
     <use xlink:href="#ma863c27d12" x="291.042527" y="43.325763" style="fill: #ffac1e; stroke: #ffac1e; stroke-linejoin: bevel"/>
     <use xlink:href="#ma863c27d12" x="296.201233" y="43.325763" style="fill: #ffac1e; stroke: #ffac1e; stroke-linejoin: bevel"/>
     <use xlink:href="#ma863c27d12" x="301.359938" y="43.325763" style="fill: #ffac1e; stroke: #ffac1e; stroke-linejoin: bevel"/>
     <use xlink:href="#ma863c27d12" x="306.518644" y="43.325763" style="fill: #ffac1e; stroke: #ffac1e; stroke-linejoin: bevel"/>
     <use xlink:href="#ma863c27d12" x="311.67735" y="43.325763" style="fill: #ffac1e; stroke: #ffac1e; stroke-linejoin: bevel"/>
     <use xlink:href="#ma863c27d12" x="316.836055" y="43.325763" style="fill: #ffac1e; stroke: #ffac1e; stroke-linejoin: bevel"/>
     <use xlink:href="#ma863c27d12" x="321.994761" y="43.493836" style="fill: #ffac1e; stroke: #ffac1e; stroke-linejoin: bevel"/>
     <use xlink:href="#ma863c27d12" x="327.153467" y="43.493836" style="fill: #ffac1e; stroke: #ffac1e; stroke-linejoin: bevel"/>
     <use xlink:href="#ma863c27d12" x="332.312173" y="43.493836" style="fill: #ffac1e; stroke: #ffac1e; stroke-linejoin: bevel"/>
     <use xlink:href="#ma863c27d12" x="337.470878" y="43.493836" style="fill: #ffac1e; stroke: #ffac1e; stroke-linejoin: bevel"/>
     <use xlink:href="#ma863c27d12" x="342.629584" y="43.493836" style="fill: #ffac1e; stroke: #ffac1e; stroke-linejoin: bevel"/>
     <use xlink:href="#ma863c27d12" x="347.78829" y="43.493836" style="fill: #ffac1e; stroke: #ffac1e; stroke-linejoin: bevel"/>
     <use xlink:href="#ma863c27d12" x="352.946995" y="43.493836" style="fill: #ffac1e; stroke: #ffac1e; stroke-linejoin: bevel"/>
     <use xlink:href="#ma863c27d12" x="358.105701" y="43.493836" style="fill: #ffac1e; stroke: #ffac1e; stroke-linejoin: bevel"/>
     <use xlink:href="#ma863c27d12" x="363.264407" y="43.493836" style="fill: #ffac1e; stroke: #ffac1e; stroke-linejoin: bevel"/>
     <use xlink:href="#ma863c27d12" x="368.423112" y="43.493836" style="fill: #ffac1e; stroke: #ffac1e; stroke-linejoin: bevel"/>
     <use xlink:href="#ma863c27d12" x="373.581818" y="43.493836" style="fill: #ffac1e; stroke: #ffac1e; stroke-linejoin: bevel"/>
    </g>
   </g>
   <g id="line2d_33">
    <path d="M 69.218182 252.908818 
L 74.376888 253.763733 
L 79.535593 253.661718 
L 84.694299 251.579515 
L 89.853005 264.915269 
L 95.01171 252.917738 
L 100.170416 252.933349 
L 105.329122 266.494388 
L 110.487827 253.343432 
L 115.646533 252.35455 
L 120.805239 251.906586 
L 125.963945 249.268627 
L 131.12265 189.192036 
L 136.281356 186.919215 
L 141.440062 188.898463 
L 146.598767 180.592315 
L 151.757473 182.820864 
L 156.916179 153.720056 
L 162.074884 151.198362 
L 167.23359 151.198362 
L 172.392296 116.52946 
L 177.551002 46.469932 
L 182.709707 46.469932 
L 187.868413 46.509176 
L 193.027119 46.509176 
L 198.185824 46.793712 
L 203.34453 46.792491 
L 208.503236 46.792491 
L 213.661941 46.793712 
L 218.820647 46.793712 
L 223.979353 46.793712 
L 229.138059 46.793712 
L 234.296764 46.793712 
L 239.45547 46.792491 
L 244.614176 46.793712 
L 249.772881 46.792491 
L 254.931587 46.697341 
L 260.090293 46.793712 
L 265.248998 46.616149 
L 270.407704 46.616149 
L 275.56641 46.614928 
L 280.725116 46.616149 
L 285.883821 46.616149 
L 291.042527 46.614928 
L 296.201233 46.616149 
L 301.359938 46.616149 
L 306.518644 46.614928 
L 311.67735 46.616149 
L 316.836055 46.614928 
L 321.994761 46.614928 
L 327.153467 46.614928 
L 332.312173 46.614928 
L 337.470878 43.981441 
L 342.629584 43.980451 
L 347.78829 43.981441 
L 352.946995 43.981441 
L 358.105701 43.981441 
L 363.264407 43.980451 
L 368.423112 43.981441 
L 373.581818 43.981441 
" clip-path="url(#pf86741de9a)" style="fill: none; stroke: #009435; stroke-width: 1.5; stroke-linecap: square"/>
    <defs>
     <path id="m86288c7941" d="M -2 2 
L 2 2 
L 2 -2 
L -2 -2 
z
" style="stroke: #009435; stroke-linejoin: miter"/>
    </defs>
    <g clip-path="url(#pf86741de9a)">
     <use xlink:href="#m86288c7941" x="69.218182" y="252.908818" style="fill: #009435; stroke: #009435; stroke-linejoin: miter"/>
     <use xlink:href="#m86288c7941" x="74.376888" y="253.763733" style="fill: #009435; stroke: #009435; stroke-linejoin: miter"/>
     <use xlink:href="#m86288c7941" x="79.535593" y="253.661718" style="fill: #009435; stroke: #009435; stroke-linejoin: miter"/>
     <use xlink:href="#m86288c7941" x="84.694299" y="251.579515" style="fill: #009435; stroke: #009435; stroke-linejoin: miter"/>
     <use xlink:href="#m86288c7941" x="89.853005" y="264.915269" style="fill: #009435; stroke: #009435; stroke-linejoin: miter"/>
     <use xlink:href="#m86288c7941" x="95.01171" y="252.917738" style="fill: #009435; stroke: #009435; stroke-linejoin: miter"/>
     <use xlink:href="#m86288c7941" x="100.170416" y="252.933349" style="fill: #009435; stroke: #009435; stroke-linejoin: miter"/>
     <use xlink:href="#m86288c7941" x="105.329122" y="266.494388" style="fill: #009435; stroke: #009435; stroke-linejoin: miter"/>
     <use xlink:href="#m86288c7941" x="110.487827" y="253.343432" style="fill: #009435; stroke: #009435; stroke-linejoin: miter"/>
     <use xlink:href="#m86288c7941" x="115.646533" y="252.35455" style="fill: #009435; stroke: #009435; stroke-linejoin: miter"/>
     <use xlink:href="#m86288c7941" x="120.805239" y="251.906586" style="fill: #009435; stroke: #009435; stroke-linejoin: miter"/>
     <use xlink:href="#m86288c7941" x="125.963945" y="249.268627" style="fill: #009435; stroke: #009435; stroke-linejoin: miter"/>
     <use xlink:href="#m86288c7941" x="131.12265" y="189.192036" style="fill: #009435; stroke: #009435; stroke-linejoin: miter"/>
     <use xlink:href="#m86288c7941" x="136.281356" y="186.919215" style="fill: #009435; stroke: #009435; stroke-linejoin: miter"/>
     <use xlink:href="#m86288c7941" x="141.440062" y="188.898463" style="fill: #009435; stroke: #009435; stroke-linejoin: miter"/>
     <use xlink:href="#m86288c7941" x="146.598767" y="180.592315" style="fill: #009435; stroke: #009435; stroke-linejoin: miter"/>
     <use xlink:href="#m86288c7941" x="151.757473" y="182.820864" style="fill: #009435; stroke: #009435; stroke-linejoin: miter"/>
     <use xlink:href="#m86288c7941" x="156.916179" y="153.720056" style="fill: #009435; stroke: #009435; stroke-linejoin: miter"/>
     <use xlink:href="#m86288c7941" x="162.074884" y="151.198362" style="fill: #009435; stroke: #009435; stroke-linejoin: miter"/>
     <use xlink:href="#m86288c7941" x="167.23359" y="151.198362" style="fill: #009435; stroke: #009435; stroke-linejoin: miter"/>
     <use xlink:href="#m86288c7941" x="172.392296" y="116.52946" style="fill: #009435; stroke: #009435; stroke-linejoin: miter"/>
     <use xlink:href="#m86288c7941" x="177.551002" y="46.469932" style="fill: #009435; stroke: #009435; stroke-linejoin: miter"/>
     <use xlink:href="#m86288c7941" x="182.709707" y="46.469932" style="fill: #009435; stroke: #009435; stroke-linejoin: miter"/>
     <use xlink:href="#m86288c7941" x="187.868413" y="46.509176" style="fill: #009435; stroke: #009435; stroke-linejoin: miter"/>
     <use xlink:href="#m86288c7941" x="193.027119" y="46.509176" style="fill: #009435; stroke: #009435; stroke-linejoin: miter"/>
     <use xlink:href="#m86288c7941" x="198.185824" y="46.793712" style="fill: #009435; stroke: #009435; stroke-linejoin: miter"/>
     <use xlink:href="#m86288c7941" x="203.34453" y="46.792491" style="fill: #009435; stroke: #009435; stroke-linejoin: miter"/>
     <use xlink:href="#m86288c7941" x="208.503236" y="46.792491" style="fill: #009435; stroke: #009435; stroke-linejoin: miter"/>
     <use xlink:href="#m86288c7941" x="213.661941" y="46.793712" style="fill: #009435; stroke: #009435; stroke-linejoin: miter"/>
     <use xlink:href="#m86288c7941" x="218.820647" y="46.793712" style="fill: #009435; stroke: #009435; stroke-linejoin: miter"/>
     <use xlink:href="#m86288c7941" x="223.979353" y="46.793712" style="fill: #009435; stroke: #009435; stroke-linejoin: miter"/>
     <use xlink:href="#m86288c7941" x="229.138059" y="46.793712" style="fill: #009435; stroke: #009435; stroke-linejoin: miter"/>
     <use xlink:href="#m86288c7941" x="234.296764" y="46.793712" style="fill: #009435; stroke: #009435; stroke-linejoin: miter"/>
     <use xlink:href="#m86288c7941" x="239.45547" y="46.792491" style="fill: #009435; stroke: #009435; stroke-linejoin: miter"/>
     <use xlink:href="#m86288c7941" x="244.614176" y="46.793712" style="fill: #009435; stroke: #009435; stroke-linejoin: miter"/>
     <use xlink:href="#m86288c7941" x="249.772881" y="46.792491" style="fill: #009435; stroke: #009435; stroke-linejoin: miter"/>
     <use xlink:href="#m86288c7941" x="254.931587" y="46.697341" style="fill: #009435; stroke: #009435; stroke-linejoin: miter"/>
     <use xlink:href="#m86288c7941" x="260.090293" y="46.793712" style="fill: #009435; stroke: #009435; stroke-linejoin: miter"/>
     <use xlink:href="#m86288c7941" x="265.248998" y="46.616149" style="fill: #009435; stroke: #009435; stroke-linejoin: miter"/>
     <use xlink:href="#m86288c7941" x="270.407704" y="46.616149" style="fill: #009435; stroke: #009435; stroke-linejoin: miter"/>
     <use xlink:href="#m86288c7941" x="275.56641" y="46.614928" style="fill: #009435; stroke: #009435; stroke-linejoin: miter"/>
     <use xlink:href="#m86288c7941" x="280.725116" y="46.616149" style="fill: #009435; stroke: #009435; stroke-linejoin: miter"/>
     <use xlink:href="#m86288c7941" x="285.883821" y="46.616149" style="fill: #009435; stroke: #009435; stroke-linejoin: miter"/>
     <use xlink:href="#m86288c7941" x="291.042527" y="46.614928" style="fill: #009435; stroke: #009435; stroke-linejoin: miter"/>
     <use xlink:href="#m86288c7941" x="296.201233" y="46.616149" style="fill: #009435; stroke: #009435; stroke-linejoin: miter"/>
     <use xlink:href="#m86288c7941" x="301.359938" y="46.616149" style="fill: #009435; stroke: #009435; stroke-linejoin: miter"/>
     <use xlink:href="#m86288c7941" x="306.518644" y="46.614928" style="fill: #009435; stroke: #009435; stroke-linejoin: miter"/>
     <use xlink:href="#m86288c7941" x="311.67735" y="46.616149" style="fill: #009435; stroke: #009435; stroke-linejoin: miter"/>
     <use xlink:href="#m86288c7941" x="316.836055" y="46.614928" style="fill: #009435; stroke: #009435; stroke-linejoin: miter"/>
     <use xlink:href="#m86288c7941" x="321.994761" y="46.614928" style="fill: #009435; stroke: #009435; stroke-linejoin: miter"/>
     <use xlink:href="#m86288c7941" x="327.153467" y="46.614928" style="fill: #009435; stroke: #009435; stroke-linejoin: miter"/>
     <use xlink:href="#m86288c7941" x="332.312173" y="46.614928" style="fill: #009435; stroke: #009435; stroke-linejoin: miter"/>
     <use xlink:href="#m86288c7941" x="337.470878" y="43.981441" style="fill: #009435; stroke: #009435; stroke-linejoin: miter"/>
     <use xlink:href="#m86288c7941" x="342.629584" y="43.980451" style="fill: #009435; stroke: #009435; stroke-linejoin: miter"/>
     <use xlink:href="#m86288c7941" x="347.78829" y="43.981441" style="fill: #009435; stroke: #009435; stroke-linejoin: miter"/>
     <use xlink:href="#m86288c7941" x="352.946995" y="43.981441" style="fill: #009435; stroke: #009435; stroke-linejoin: miter"/>
     <use xlink:href="#m86288c7941" x="358.105701" y="43.981441" style="fill: #009435; stroke: #009435; stroke-linejoin: miter"/>
     <use xlink:href="#m86288c7941" x="363.264407" y="43.980451" style="fill: #009435; stroke: #009435; stroke-linejoin: miter"/>
     <use xlink:href="#m86288c7941" x="368.423112" y="43.981441" style="fill: #009435; stroke: #009435; stroke-linejoin: miter"/>
     <use xlink:href="#m86288c7941" x="373.581818" y="43.981441" style="fill: #009435; stroke: #009435; stroke-linejoin: miter"/>
    </g>
   </g>
   <g id="patch_3">
    <path d="M 54 252 
L 54 34.56 
" style="fill: none; stroke: #000000; stroke-width: 0.8; stroke-linejoin: miter; stroke-linecap: square"/>
   </g>
   <g id="patch_4">
    <path d="M 388.8 252 
L 388.8 34.56 
" style="fill: none; stroke: #000000; stroke-width: 0.8; stroke-linejoin: miter; stroke-linecap: square"/>
   </g>
   <g id="patch_5">
    <path d="M 54 252 
L 388.8 252 
" style="fill: none; stroke: #000000; stroke-width: 0.8; stroke-linejoin: miter; stroke-linecap: square"/>
   </g>
   <g id="patch_6">
    <path d="M 54 34.56 
L 388.8 34.56 
" style="fill: none; stroke: #000000; stroke-width: 0.8; stroke-linejoin: miter; stroke-linecap: square"/>
   </g>
   <g id="text_17">
    <!-- R-max optimal policy with m = 8 -->
    <g transform="translate(123.0225 28.56)scale(0.12 -0.12)">
     <defs>
      <path id="DejaVuSans-52" d="M 2841 2188 
Q 3044 2119 3236 1894 
Q 3428 1669 3622 1275 
L 4263 0 
L 3584 0 
L 2988 1197 
Q 2756 1666 2539 1819 
Q 2322 1972 1947 1972 
L 1259 1972 
L 1259 0 
L 628 0 
L 628 4666 
L 2053 4666 
Q 2853 4666 3247 4331 
Q 3641 3997 3641 3322 
Q 3641 2881 3436 2590 
Q 3231 2300 2841 2188 
z
M 1259 4147 
L 1259 2491 
L 2053 2491 
Q 2509 2491 2742 2702 
Q 2975 2913 2975 3322 
Q 2975 3731 2742 3939 
Q 2509 4147 2053 4147 
L 1259 4147 
z
" transform="scale(0.015625)"/>
      <path id="DejaVuSans-2d" d="M 313 2009 
L 1997 2009 
L 1997 1497 
L 313 1497 
L 313 2009 
z
" transform="scale(0.015625)"/>
      <path id="DejaVuSans-6d" d="M 3328 2828 
Q 3544 3216 3844 3400 
Q 4144 3584 4550 3584 
Q 5097 3584 5394 3201 
Q 5691 2819 5691 2113 
L 5691 0 
L 5113 0 
L 5113 2094 
Q 5113 2597 4934 2840 
Q 4756 3084 4391 3084 
Q 3944 3084 3684 2787 
Q 3425 2491 3425 1978 
L 3425 0 
L 2847 0 
L 2847 2094 
Q 2847 2600 2669 2842 
Q 2491 3084 2119 3084 
Q 1678 3084 1418 2786 
Q 1159 2488 1159 1978 
L 1159 0 
L 581 0 
L 581 3500 
L 1159 3500 
L 1159 2956 
Q 1356 3278 1631 3431 
Q 1906 3584 2284 3584 
Q 2666 3584 2933 3390 
Q 3200 3197 3328 2828 
z
" transform="scale(0.015625)"/>
      <path id="DejaVuSans-78" d="M 3513 3500 
L 2247 1797 
L 3578 0 
L 2900 0 
L 1881 1375 
L 863 0 
L 184 0 
L 1544 1831 
L 300 3500 
L 978 3500 
L 1906 2253 
L 2834 3500 
L 3513 3500 
z
" transform="scale(0.015625)"/>
      <path id="DejaVuSans-77" d="M 269 3500 
L 844 3500 
L 1563 769 
L 2278 3500 
L 2956 3500 
L 3675 769 
L 4391 3500 
L 4966 3500 
L 4050 0 
L 3372 0 
L 2619 2869 
L 1863 0 
L 1184 0 
L 269 3500 
z
" transform="scale(0.015625)"/>
      <path id="DejaVuSans-68" d="M 3513 2113 
L 3513 0 
L 2938 0 
L 2938 2094 
Q 2938 2591 2744 2837 
Q 2550 3084 2163 3084 
Q 1697 3084 1428 2787 
Q 1159 2491 1159 1978 
L 1159 0 
L 581 0 
L 581 4863 
L 1159 4863 
L 1159 2956 
Q 1366 3272 1645 3428 
Q 1925 3584 2291 3584 
Q 2894 3584 3203 3211 
Q 3513 2838 3513 2113 
z
" transform="scale(0.015625)"/>
      <path id="DejaVuSans-3d" d="M 678 2906 
L 4684 2906 
L 4684 2381 
L 678 2381 
L 678 2906 
z
M 678 1631 
L 4684 1631 
L 4684 1100 
L 678 1100 
L 678 1631 
z
" transform="scale(0.015625)"/>
     </defs>
     <use xlink:href="#DejaVuSans-52"/>
     <use xlink:href="#DejaVuSans-2d" x="65.482422"/>
     <use xlink:href="#DejaVuSans-6d" x="101.566406"/>
     <use xlink:href="#DejaVuSans-61" x="198.978516"/>
     <use xlink:href="#DejaVuSans-78" x="260.257812"/>
     <use xlink:href="#DejaVuSans-20" x="319.4375"/>
     <use xlink:href="#DejaVuSans-6f" x="351.224609"/>
     <use xlink:href="#DejaVuSans-70" x="412.40625"/>
     <use xlink:href="#DejaVuSans-74" x="475.882812"/>
     <use xlink:href="#DejaVuSans-69" x="515.091797"/>
     <use xlink:href="#DejaVuSans-6d" x="542.875"/>
     <use xlink:href="#DejaVuSans-61" x="640.287109"/>
     <use xlink:href="#DejaVuSans-6c" x="701.566406"/>
     <use xlink:href="#DejaVuSans-20" x="729.349609"/>
     <use xlink:href="#DejaVuSans-70" x="761.136719"/>
     <use xlink:href="#DejaVuSans-6f" x="824.613281"/>
     <use xlink:href="#DejaVuSans-6c" x="885.794922"/>
     <use xlink:href="#DejaVuSans-69" x="913.578125"/>
     <use xlink:href="#DejaVuSans-63" x="941.361328"/>
     <use xlink:href="#DejaVuSans-79" x="996.341797"/>
     <use xlink:href="#DejaVuSans-20" x="1055.521484"/>
     <use xlink:href="#DejaVuSans-77" x="1087.308594"/>
     <use xlink:href="#DejaVuSans-69" x="1169.095703"/>
     <use xlink:href="#DejaVuSans-74" x="1196.878906"/>
     <use xlink:href="#DejaVuSans-68" x="1236.087891"/>
     <use xlink:href="#DejaVuSans-20" x="1299.466797"/>
     <use xlink:href="#DejaVuSans-6d" x="1331.253906"/>
     <use xlink:href="#DejaVuSans-20" x="1428.666016"/>
     <use xlink:href="#DejaVuSans-3d" x="1460.453125"/>
     <use xlink:href="#DejaVuSans-20" x="1544.242188"/>
     <use xlink:href="#DejaVuSans-38" x="1576.029297"/>
    </g>
   </g>
   <g id="legend_1">
    <g id="patch_7">
     <path d="M 230.8125 247 
L 381.8 247 
Q 383.8 247 383.8 245 
L 383.8 171.21875 
Q 383.8 169.21875 381.8 169.21875 
L 230.8125 169.21875 
Q 228.8125 169.21875 228.8125 171.21875 
L 228.8125 245 
Q 228.8125 247 230.8125 247 
z
" style="fill: #ffffff; opacity: 0.8; stroke: #cccccc; stroke-linejoin: miter"/>
    </g>
    <g id="line2d_34">
     <path d="M 232.8125 177.317187 
L 242.8125 177.317187 
L 252.8125 177.317187 
" style="fill: none; stroke: #9d02d7; stroke-width: 1.5; stroke-linecap: square"/>
     <g>
      <use xlink:href="#m1a491e8cc9" x="242.8125" y="177.317187" style="fill: #9d02d7; stroke: #9d02d7; stroke-linejoin: miter"/>
     </g>
    </g>
    <g id="text_18">
     <!-- m_uncertain_states=12 -->
     <g transform="translate(260.8125 180.817187)scale(0.1 -0.1)">
      <defs>
       <path id="DejaVuSans-5f" d="M 3263 -1063 
L 3263 -1509 
L -63 -1509 
L -63 -1063 
L 3263 -1063 
z
" transform="scale(0.015625)"/>
       <path id="DejaVuSans-6e" d="M 3513 2113 
L 3513 0 
L 2938 0 
L 2938 2094 
Q 2938 2591 2744 2837 
Q 2550 3084 2163 3084 
Q 1697 3084 1428 2787 
Q 1159 2491 1159 1978 
L 1159 0 
L 581 0 
L 581 3500 
L 1159 3500 
L 1159 2956 
Q 1366 3272 1645 3428 
Q 1925 3584 2291 3584 
Q 2894 3584 3203 3211 
Q 3513 2838 3513 2113 
z
" transform="scale(0.015625)"/>
      </defs>
      <use xlink:href="#DejaVuSans-6d"/>
      <use xlink:href="#DejaVuSans-5f" x="97.412109"/>
      <use xlink:href="#DejaVuSans-75" x="147.412109"/>
      <use xlink:href="#DejaVuSans-6e" x="210.791016"/>
      <use xlink:href="#DejaVuSans-63" x="274.169922"/>
      <use xlink:href="#DejaVuSans-65" x="329.150391"/>
      <use xlink:href="#DejaVuSans-72" x="390.673828"/>
      <use xlink:href="#DejaVuSans-74" x="431.787109"/>
      <use xlink:href="#DejaVuSans-61" x="470.996094"/>
      <use xlink:href="#DejaVuSans-69" x="532.275391"/>
      <use xlink:href="#DejaVuSans-6e" x="560.058594"/>
      <use xlink:href="#DejaVuSans-5f" x="623.4375"/>
      <use xlink:href="#DejaVuSans-73" x="673.4375"/>
      <use xlink:href="#DejaVuSans-74" x="725.537109"/>
      <use xlink:href="#DejaVuSans-61" x="764.746094"/>
      <use xlink:href="#DejaVuSans-74" x="826.025391"/>
      <use xlink:href="#DejaVuSans-65" x="865.234375"/>
      <use xlink:href="#DejaVuSans-73" x="926.757812"/>
      <use xlink:href="#DejaVuSans-3d" x="978.857422"/>
      <use xlink:href="#DejaVuSans-31" x="1062.646484"/>
      <use xlink:href="#DejaVuSans-32" x="1126.269531"/>
     </g>
    </g>
    <g id="line2d_35">
     <path d="M 232.8125 192.273438 
L 242.8125 192.273438 
L 252.8125 192.273438 
" style="fill: none; stroke: #0000ff; stroke-width: 1.5; stroke-linecap: square"/>
     <g>
      <use xlink:href="#m07e4ceb7f9" x="242.8125" y="192.273438" style="fill: #0000ff; stroke: #0000ff"/>
     </g>
    </g>
    <g id="text_19">
     <!-- m_uncertain_states=14 -->
     <g transform="translate(260.8125 195.773438)scale(0.1 -0.1)">
      <use xlink:href="#DejaVuSans-6d"/>
      <use xlink:href="#DejaVuSans-5f" x="97.412109"/>
      <use xlink:href="#DejaVuSans-75" x="147.412109"/>
      <use xlink:href="#DejaVuSans-6e" x="210.791016"/>
      <use xlink:href="#DejaVuSans-63" x="274.169922"/>
      <use xlink:href="#DejaVuSans-65" x="329.150391"/>
      <use xlink:href="#DejaVuSans-72" x="390.673828"/>
      <use xlink:href="#DejaVuSans-74" x="431.787109"/>
      <use xlink:href="#DejaVuSans-61" x="470.996094"/>
      <use xlink:href="#DejaVuSans-69" x="532.275391"/>
      <use xlink:href="#DejaVuSans-6e" x="560.058594"/>
      <use xlink:href="#DejaVuSans-5f" x="623.4375"/>
      <use xlink:href="#DejaVuSans-73" x="673.4375"/>
      <use xlink:href="#DejaVuSans-74" x="725.537109"/>
      <use xlink:href="#DejaVuSans-61" x="764.746094"/>
      <use xlink:href="#DejaVuSans-74" x="826.025391"/>
      <use xlink:href="#DejaVuSans-65" x="865.234375"/>
      <use xlink:href="#DejaVuSans-73" x="926.757812"/>
      <use xlink:href="#DejaVuSans-3d" x="978.857422"/>
      <use xlink:href="#DejaVuSans-31" x="1062.646484"/>
      <use xlink:href="#DejaVuSans-34" x="1126.269531"/>
     </g>
    </g>
    <g id="line2d_36">
     <path d="M 232.8125 207.229688 
L 242.8125 207.229688 
L 252.8125 207.229688 
" style="fill: none; stroke: #ff7763; stroke-width: 1.5; stroke-linecap: square"/>
     <g>
      <use xlink:href="#mb92173a45e" x="242.8125" y="207.229688" style="fill: #ff7763; stroke: #ff7763"/>
     </g>
    </g>
    <g id="text_20">
     <!-- m_uncertain_states=16 -->
     <g transform="translate(260.8125 210.729688)scale(0.1 -0.1)">
      <use xlink:href="#DejaVuSans-6d"/>
      <use xlink:href="#DejaVuSans-5f" x="97.412109"/>
      <use xlink:href="#DejaVuSans-75" x="147.412109"/>
      <use xlink:href="#DejaVuSans-6e" x="210.791016"/>
      <use xlink:href="#DejaVuSans-63" x="274.169922"/>
      <use xlink:href="#DejaVuSans-65" x="329.150391"/>
      <use xlink:href="#DejaVuSans-72" x="390.673828"/>
      <use xlink:href="#DejaVuSans-74" x="431.787109"/>
      <use xlink:href="#DejaVuSans-61" x="470.996094"/>
      <use xlink:href="#DejaVuSans-69" x="532.275391"/>
      <use xlink:href="#DejaVuSans-6e" x="560.058594"/>
      <use xlink:href="#DejaVuSans-5f" x="623.4375"/>
      <use xlink:href="#DejaVuSans-73" x="673.4375"/>
      <use xlink:href="#DejaVuSans-74" x="725.537109"/>
      <use xlink:href="#DejaVuSans-61" x="764.746094"/>
      <use xlink:href="#DejaVuSans-74" x="826.025391"/>
      <use xlink:href="#DejaVuSans-65" x="865.234375"/>
      <use xlink:href="#DejaVuSans-73" x="926.757812"/>
      <use xlink:href="#DejaVuSans-3d" x="978.857422"/>
      <use xlink:href="#DejaVuSans-31" x="1062.646484"/>
      <use xlink:href="#DejaVuSans-36" x="1126.269531"/>
     </g>
    </g>
    <g id="line2d_37">
     <path d="M 232.8125 222.185938 
L 242.8125 222.185938 
L 252.8125 222.185938 
" style="fill: none; stroke: #ffac1e; stroke-width: 1.5; stroke-linecap: square"/>
     <g>
      <use xlink:href="#ma863c27d12" x="242.8125" y="222.185938" style="fill: #ffac1e; stroke: #ffac1e; stroke-linejoin: bevel"/>
     </g>
    </g>
    <g id="text_21">
     <!-- m_uncertain_states=18 -->
     <g transform="translate(260.8125 225.685938)scale(0.1 -0.1)">
      <use xlink:href="#DejaVuSans-6d"/>
      <use xlink:href="#DejaVuSans-5f" x="97.412109"/>
      <use xlink:href="#DejaVuSans-75" x="147.412109"/>
      <use xlink:href="#DejaVuSans-6e" x="210.791016"/>
      <use xlink:href="#DejaVuSans-63" x="274.169922"/>
      <use xlink:href="#DejaVuSans-65" x="329.150391"/>
      <use xlink:href="#DejaVuSans-72" x="390.673828"/>
      <use xlink:href="#DejaVuSans-74" x="431.787109"/>
      <use xlink:href="#DejaVuSans-61" x="470.996094"/>
      <use xlink:href="#DejaVuSans-69" x="532.275391"/>
      <use xlink:href="#DejaVuSans-6e" x="560.058594"/>
      <use xlink:href="#DejaVuSans-5f" x="623.4375"/>
      <use xlink:href="#DejaVuSans-73" x="673.4375"/>
      <use xlink:href="#DejaVuSans-74" x="725.537109"/>
      <use xlink:href="#DejaVuSans-61" x="764.746094"/>
      <use xlink:href="#DejaVuSans-74" x="826.025391"/>
      <use xlink:href="#DejaVuSans-65" x="865.234375"/>
      <use xlink:href="#DejaVuSans-73" x="926.757812"/>
      <use xlink:href="#DejaVuSans-3d" x="978.857422"/>
      <use xlink:href="#DejaVuSans-31" x="1062.646484"/>
      <use xlink:href="#DejaVuSans-38" x="1126.269531"/>
     </g>
    </g>
    <g id="line2d_38">
     <path d="M 232.8125 237.142188 
L 242.8125 237.142188 
L 252.8125 237.142188 
" style="fill: none; stroke: #009435; stroke-width: 1.5; stroke-linecap: square"/>
     <g>
      <use xlink:href="#m86288c7941" x="242.8125" y="237.142188" style="fill: #009435; stroke: #009435; stroke-linejoin: miter"/>
     </g>
    </g>
    <g id="text_22">
     <!-- m_uncertain_states=20 -->
     <g transform="translate(260.8125 240.642188)scale(0.1 -0.1)">
      <use xlink:href="#DejaVuSans-6d"/>
      <use xlink:href="#DejaVuSans-5f" x="97.412109"/>
      <use xlink:href="#DejaVuSans-75" x="147.412109"/>
      <use xlink:href="#DejaVuSans-6e" x="210.791016"/>
      <use xlink:href="#DejaVuSans-63" x="274.169922"/>
      <use xlink:href="#DejaVuSans-65" x="329.150391"/>
      <use xlink:href="#DejaVuSans-72" x="390.673828"/>
      <use xlink:href="#DejaVuSans-74" x="431.787109"/>
      <use xlink:href="#DejaVuSans-61" x="470.996094"/>
      <use xlink:href="#DejaVuSans-69" x="532.275391"/>
      <use xlink:href="#DejaVuSans-6e" x="560.058594"/>
      <use xlink:href="#DejaVuSans-5f" x="623.4375"/>
      <use xlink:href="#DejaVuSans-73" x="673.4375"/>
      <use xlink:href="#DejaVuSans-74" x="725.537109"/>
      <use xlink:href="#DejaVuSans-61" x="764.746094"/>
      <use xlink:href="#DejaVuSans-74" x="826.025391"/>
      <use xlink:href="#DejaVuSans-65" x="865.234375"/>
      <use xlink:href="#DejaVuSans-73" x="926.757812"/>
      <use xlink:href="#DejaVuSans-3d" x="978.857422"/>
      <use xlink:href="#DejaVuSans-32" x="1062.646484"/>
      <use xlink:href="#DejaVuSans-30" x="1126.269531"/>
     </g>
    </g>
   </g>
  </g>
 </g>
 <defs>
  <clipPath id="pf86741de9a">
   <rect x="54" y="34.56" width="334.8" height="217.44"/>
  </clipPath>
 </defs>
</svg>
