<?xml version="1.0" encoding="utf-8" standalone="no"?>
<!DOCTYPE svg PUBLIC "-//W3C//DTD SVG 1.1//EN"
  "http://www.w3.org/Graphics/SVG/1.1/DTD/svg11.dtd">
<svg xmlns:xlink="http://www.w3.org/1999/xlink" width="432pt" height="288pt" viewBox="0 0 432 288" xmlns="http://www.w3.org/2000/svg" version="1.1">
 <metadata>
  <rdf:RDF xmlns:dc="http://purl.org/dc/elements/1.1/" xmlns:cc="http://creativecommons.org/ns#" xmlns:rdf="http://www.w3.org/1999/02/22-rdf-syntax-ns#">
   <cc:Work>
    <dc:type rdf:resource="http://purl.org/dc/dcmitype/StillImage"/>
    <dc:date>2023-01-11T15:36:07.857521</dc:date>
    <dc:format>image/svg+xml</dc:format>
    <dc:creator>
     <cc:Agent>
      <dc:title>Matplotlib v3.5.2, https://matplotlib.org/</dc:title>
     </cc:Agent>
    </dc:creator>
   </cc:Work>
  </rdf:RDF>
 </metadata>
 <defs>
  <style type="text/css">*{stroke-linejoin: round; stroke-linecap: butt}</style>
 </defs>
 <g id="figure_1">
  <g id="patch_1">
   <path d="M 0 288 
L 432 288 
L 432 0 
L 0 0 
z
" style="fill: #ffffff"/>
  </g>
  <g id="axes_1">
   <g id="patch_2">
    <path d="M 54 252 
L 388.8 252 
L 388.8 34.56 
L 54 34.56 
z
" style="fill: #ffffff"/>
   </g>
   <g id="PolyCollection_1">
    <defs>
     <path id="mf6f1016048" d="M 69.218182 -25.360885 
L 69.218182 -25.360885 
L 74.376888 -35.076566 
L 79.535593 -22.062768 
L 84.694299 -35.060389 
L 89.853005 -34.672319 
L 95.01171 -32.6997 
L 100.170416 -35.070357 
L 105.329122 -70.015218 
L 110.487827 -78.901473 
L 115.646533 -178.149286 
L 120.805239 -122.415672 
L 125.963945 -155.679729 
L 131.12265 -218.274229 
L 136.281356 -225.654496 
L 141.440062 -221.518176 
L 146.598767 -221.518176 
L 151.757473 -221.518176 
L 156.916179 -228.955748 
L 162.074884 -195.074274 
L 167.23359 -228.59282 
L 172.392296 -229.009828 
L 177.551002 -228.916191 
L 182.709707 -229.009828 
L 187.868413 -229.009828 
L 193.027119 -229.009828 
L 198.185824 -229.009828 
L 203.34453 -223.94862 
L 208.503236 -228.280482 
L 213.661941 -228.916191 
L 218.820647 -228.916191 
L 223.979353 -228.916191 
L 229.138059 -224.474858 
L 234.296764 -228.916191 
L 239.45547 -228.916191 
L 244.614176 -228.916191 
L 249.772881 -228.916191 
L 254.931587 -228.916191 
L 260.090293 -228.916191 
L 265.248998 -228.916191 
L 270.407704 -228.916191 
L 275.56641 -228.916191 
L 280.725116 -224.474858 
L 285.883821 -228.916191 
L 291.042527 -224.474858 
L 296.201233 -228.916191 
L 301.359938 -228.916191 
L 306.518644 -228.916191 
L 311.67735 -228.916191 
L 316.836055 -228.916191 
L 321.994761 -228.916191 
L 327.153467 -228.916191 
L 332.312173 -228.916191 
L 337.470878 -229.115624 
L 342.629584 -229.115624 
L 347.78829 -229.115624 
L 352.946995 -228.873447 
L 358.105701 -228.955748 
L 363.264407 -228.955748 
L 368.423112 -228.955748 
L 373.581818 -229.165438 
L 373.581818 -229.165438 
L 373.581818 -229.165438 
L 368.423112 -228.955748 
L 363.264407 -228.955748 
L 358.105701 -228.955748 
L 352.946995 -228.873447 
L 347.78829 -229.115624 
L 342.629584 -229.115624 
L 337.470878 -229.115624 
L 332.312173 -228.916191 
L 327.153467 -228.916191 
L 321.994761 -228.916191 
L 316.836055 -228.916191 
L 311.67735 -228.916191 
L 306.518644 -228.916191 
L 301.359938 -228.916191 
L 296.201233 -228.916191 
L 291.042527 -224.474858 
L 285.883821 -228.916191 
L 280.725116 -224.474858 
L 275.56641 -228.916191 
L 270.407704 -228.916191 
L 265.248998 -228.916191 
L 260.090293 -228.916191 
L 254.931587 -228.916191 
L 249.772881 -228.916191 
L 244.614176 -228.916191 
L 239.45547 -228.916191 
L 234.296764 -228.916191 
L 229.138059 -224.474858 
L 223.979353 -228.916191 
L 218.820647 -228.916191 
L 213.661941 -228.916191 
L 208.503236 -228.280482 
L 203.34453 -223.94862 
L 198.185824 -229.009828 
L 193.027119 -229.009828 
L 187.868413 -229.009828 
L 182.709707 -229.009828 
L 177.551002 -228.916191 
L 172.392296 -229.009828 
L 167.23359 -228.59282 
L 162.074884 -195.074274 
L 156.916179 -228.955748 
L 151.757473 -221.518176 
L 146.598767 -221.518176 
L 141.440062 -221.518176 
L 136.281356 -225.654496 
L 131.12265 -218.274229 
L 125.963945 -155.679729 
L 120.805239 -122.415672 
L 115.646533 -178.149286 
L 110.487827 -78.901473 
L 105.329122 -70.015218 
L 100.170416 -35.070357 
L 95.01171 -32.6997 
L 89.853005 -34.672319 
L 84.694299 -35.060389 
L 79.535593 -22.062768 
L 74.376888 -35.076566 
L 69.218182 -25.360885 
z
" style="stroke: #9d02d7; stroke-opacity: 0.2"/>
    </defs>
    <g clip-path="url(#pedb111404a)">
     <use xlink:href="#mf6f1016048" x="0" y="288" style="fill: #9d02d7; fill-opacity: 0.2; stroke: #9d02d7; stroke-opacity: 0.2"/>
    </g>
   </g>
   <g id="PolyCollection_2">
    <defs>
     <path id="mc1458cdf94" d="M 69.218182 -32.558421 
L 69.218182 -32.558421 
L 74.376888 -43.305875 
L 79.535593 -34.807215 
L 84.694299 -27.664082 
L 89.853005 -35.091182 
L 95.01171 -29.466228 
L 100.170416 -79.557204 
L 105.329122 -87.990564 
L 110.487827 -87.990564 
L 115.646533 -89.174295 
L 120.805239 -88.270072 
L 125.963945 -157.973175 
L 131.12265 -239.156745 
L 136.281356 -239.156745 
L 141.440062 -238.530587 
L 146.598767 -234.940687 
L 151.757473 -237.836964 
L 156.916179 -237.836964 
L 162.074884 -237.836964 
L 167.23359 -237.836964 
L 172.392296 -238.235429 
L 177.551002 -238.234598 
L 182.709707 -237.836964 
L 187.868413 -239.288089 
L 193.027119 -239.288089 
L 198.185824 -237.836964 
L 203.34453 -237.836964 
L 208.503236 -239.288089 
L 213.661941 -239.288089 
L 218.820647 -239.288089 
L 223.979353 -239.288089 
L 229.138059 -239.288089 
L 234.296764 -239.288089 
L 239.45547 -239.288089 
L 244.614176 -239.288089 
L 249.772881 -239.288089 
L 254.931587 -239.288089 
L 260.090293 -239.288089 
L 265.248998 -239.288089 
L 270.407704 -239.288089 
L 275.56641 -239.288089 
L 280.725116 -239.288089 
L 285.883821 -239.288089 
L 291.042527 -239.288089 
L 296.201233 -239.288089 
L 301.359938 -239.288089 
L 306.518644 -239.288089 
L 311.67735 -239.288089 
L 316.836055 -239.288089 
L 321.994761 -239.288089 
L 327.153467 -239.288089 
L 332.312173 -239.288089 
L 337.470878 -239.288089 
L 342.629584 -239.288089 
L 347.78829 -239.288089 
L 352.946995 -239.288089 
L 358.105701 -239.288089 
L 363.264407 -239.288089 
L 368.423112 -239.288089 
L 373.581818 -239.288089 
L 373.581818 -239.288089 
L 373.581818 -239.288089 
L 368.423112 -239.288089 
L 363.264407 -239.288089 
L 358.105701 -239.288089 
L 352.946995 -239.288089 
L 347.78829 -239.288089 
L 342.629584 -239.288089 
L 337.470878 -239.288089 
L 332.312173 -239.288089 
L 327.153467 -239.288089 
L 321.994761 -239.288089 
L 316.836055 -239.288089 
L 311.67735 -239.288089 
L 306.518644 -239.288089 
L 301.359938 -239.288089 
L 296.201233 -239.288089 
L 291.042527 -239.288089 
L 285.883821 -239.288089 
L 280.725116 -239.288089 
L 275.56641 -239.288089 
L 270.407704 -239.288089 
L 265.248998 -239.288089 
L 260.090293 -239.288089 
L 254.931587 -239.288089 
L 249.772881 -239.288089 
L 244.614176 -239.288089 
L 239.45547 -239.288089 
L 234.296764 -239.288089 
L 229.138059 -239.288089 
L 223.979353 -239.288089 
L 218.820647 -239.288089 
L 213.661941 -239.288089 
L 208.503236 -239.288089 
L 203.34453 -237.836964 
L 198.185824 -237.836964 
L 193.027119 -239.288089 
L 187.868413 -239.288089 
L 182.709707 -237.836964 
L 177.551002 -238.234598 
L 172.392296 -238.235429 
L 167.23359 -237.836964 
L 162.074884 -237.836964 
L 156.916179 -237.836964 
L 151.757473 -237.836964 
L 146.598767 -234.940687 
L 141.440062 -238.530587 
L 136.281356 -239.156745 
L 131.12265 -239.156745 
L 125.963945 -157.973175 
L 120.805239 -88.270072 
L 115.646533 -89.174295 
L 110.487827 -87.990564 
L 105.329122 -87.990564 
L 100.170416 -79.557204 
L 95.01171 -29.466228 
L 89.853005 -35.091182 
L 84.694299 -27.664082 
L 79.535593 -34.807215 
L 74.376888 -43.305875 
L 69.218182 -32.558421 
z
" style="stroke: #0000ff; stroke-opacity: 0.2"/>
    </defs>
    <g clip-path="url(#pedb111404a)">
     <use xlink:href="#mc1458cdf94" x="0" y="288" style="fill: #0000ff; fill-opacity: 0.2; stroke: #0000ff; stroke-opacity: 0.2"/>
    </g>
   </g>
   <g id="PolyCollection_3">
    <defs>
     <path id="m2ae39f3253" d="M 69.218182 -24.732693 
L 69.218182 -24.732693 
L 74.376888 -197.820436 
L 79.535593 -201.214075 
L 84.694299 -200.032509 
L 89.853005 -56.950123 
L 95.01171 -73.878434 
L 100.170416 -56.741554 
L 105.329122 -206.172261 
L 110.487827 -77.542311 
L 115.646533 -221.929392 
L 120.805239 -214.432612 
L 125.963945 -240.898055 
L 131.12265 -240.778155 
L 136.281356 -241.686564 
L 141.440062 -241.131529 
L 146.598767 -241.798529 
L 151.757473 -241.801894 
L 156.916179 -241.972614 
L 162.074884 -241.305671 
L 167.23359 -241.972614 
L 172.392296 -241.975564 
L 177.551002 -241.87513 
L 182.709707 -241.831293 
L 187.868413 -241.831293 
L 193.027119 -241.87513 
L 198.185824 -241.972614 
L 203.34453 -241.975564 
L 208.503236 -242.078183 
L 213.661941 -242.056183 
L 218.820647 -242.056918 
L 223.979353 -242.866627 
L 229.138059 -242.035217 
L 234.296764 -242.035217 
L 239.45547 -242.035217 
L 244.614176 -242.035217 
L 249.772881 -242.035217 
L 254.931587 -242.035217 
L 260.090293 -242.035217 
L 265.248998 -242.035217 
L 270.407704 -242.035217 
L 275.56641 -242.035217 
L 280.725116 -242.035217 
L 285.883821 -241.897242 
L 291.042527 -241.897242 
L 296.201233 -241.897242 
L 301.359938 -241.897242 
L 306.518644 -241.897242 
L 311.67735 -241.897242 
L 316.836055 -241.897242 
L 321.994761 -241.897242 
L 327.153467 -241.897242 
L 332.312173 -241.897242 
L 337.470878 -241.897242 
L 342.629584 -241.897242 
L 347.78829 -241.897242 
L 352.946995 -241.897242 
L 358.105701 -241.897242 
L 363.264407 -241.897242 
L 368.423112 -241.897242 
L 373.581818 -241.897242 
L 373.581818 -241.897242 
L 373.581818 -241.897242 
L 368.423112 -241.897242 
L 363.264407 -241.897242 
L 358.105701 -241.897242 
L 352.946995 -241.897242 
L 347.78829 -241.897242 
L 342.629584 -241.897242 
L 337.470878 -241.897242 
L 332.312173 -241.897242 
L 327.153467 -241.897242 
L 321.994761 -241.897242 
L 316.836055 -241.897242 
L 311.67735 -241.897242 
L 306.518644 -241.897242 
L 301.359938 -241.897242 
L 296.201233 -241.897242 
L 291.042527 -241.897242 
L 285.883821 -241.897242 
L 280.725116 -242.035217 
L 275.56641 -242.035217 
L 270.407704 -242.035217 
L 265.248998 -242.035217 
L 260.090293 -242.035217 
L 254.931587 -242.035217 
L 249.772881 -242.035217 
L 244.614176 -242.035217 
L 239.45547 -242.035217 
L 234.296764 -242.035217 
L 229.138059 -242.035217 
L 223.979353 -242.866627 
L 218.820647 -242.056918 
L 213.661941 -242.056183 
L 208.503236 -242.078183 
L 203.34453 -241.975564 
L 198.185824 -241.972614 
L 193.027119 -241.87513 
L 187.868413 -241.831293 
L 182.709707 -241.831293 
L 177.551002 -241.87513 
L 172.392296 -241.975564 
L 167.23359 -241.972614 
L 162.074884 -241.305671 
L 156.916179 -241.972614 
L 151.757473 -241.801894 
L 146.598767 -241.798529 
L 141.440062 -241.131529 
L 136.281356 -241.686564 
L 131.12265 -240.778155 
L 125.963945 -240.898055 
L 120.805239 -214.432612 
L 115.646533 -221.929392 
L 110.487827 -77.542311 
L 105.329122 -206.172261 
L 100.170416 -56.741554 
L 95.01171 -73.878434 
L 89.853005 -56.950123 
L 84.694299 -200.032509 
L 79.535593 -201.214075 
L 74.376888 -197.820436 
L 69.218182 -24.732693 
z
" style="stroke: #ff7763; stroke-opacity: 0.2"/>
    </defs>
    <g clip-path="url(#pedb111404a)">
     <use xlink:href="#m2ae39f3253" x="0" y="288" style="fill: #ff7763; fill-opacity: 0.2; stroke: #ff7763; stroke-opacity: 0.2"/>
    </g>
   </g>
   <g id="matplotlib.axis_1">
    <g id="xtick_1">
     <g id="line2d_1">
      <path d="M 69.218182 252 
L 69.218182 34.56 
" clip-path="url(#pedb111404a)" style="fill: none; stroke-dasharray: 2.96,1.28; stroke-dashoffset: 0; stroke: #b0b0b0; stroke-width: 0.8"/>
     </g>
     <g id="line2d_2">
      <defs>
       <path id="md9d9f370c9" d="M 0 0 
L 0 3.5 
" style="stroke: #000000; stroke-width: 0.8"/>
      </defs>
      <g>
       <use xlink:href="#md9d9f370c9" x="69.218182" y="252" style="stroke: #000000; stroke-width: 0.8"/>
      </g>
     </g>
     <g id="text_1">
      <!-- 0 -->
      <g transform="translate(66.036932 266.598437)scale(0.1 -0.1)">
       <defs>
        <path id="DejaVuSans-30" d="M 2034 4250 
Q 1547 4250 1301 3770 
Q 1056 3291 1056 2328 
Q 1056 1369 1301 889 
Q 1547 409 2034 409 
Q 2525 409 2770 889 
Q 3016 1369 3016 2328 
Q 3016 3291 2770 3770 
Q 2525 4250 2034 4250 
z
M 2034 4750 
Q 2819 4750 3233 4129 
Q 3647 3509 3647 2328 
Q 3647 1150 3233 529 
Q 2819 -91 2034 -91 
Q 1250 -91 836 529 
Q 422 1150 422 2328 
Q 422 3509 836 4129 
Q 1250 4750 2034 4750 
z
" transform="scale(0.015625)"/>
       </defs>
       <use xlink:href="#DejaVuSans-30"/>
      </g>
     </g>
    </g>
    <g id="xtick_2">
     <g id="line2d_3">
      <path d="M 120.805239 252 
L 120.805239 34.56 
" clip-path="url(#pedb111404a)" style="fill: none; stroke-dasharray: 2.96,1.28; stroke-dashoffset: 0; stroke: #b0b0b0; stroke-width: 0.8"/>
     </g>
     <g id="line2d_4">
      <g>
       <use xlink:href="#md9d9f370c9" x="120.805239" y="252" style="stroke: #000000; stroke-width: 0.8"/>
      </g>
     </g>
     <g id="text_2">
      <!-- 500 -->
      <g transform="translate(111.261489 266.598437)scale(0.1 -0.1)">
       <defs>
        <path id="DejaVuSans-35" d="M 691 4666 
L 3169 4666 
L 3169 4134 
L 1269 4134 
L 1269 2991 
Q 1406 3038 1543 3061 
Q 1681 3084 1819 3084 
Q 2600 3084 3056 2656 
Q 3513 2228 3513 1497 
Q 3513 744 3044 326 
Q 2575 -91 1722 -91 
Q 1428 -91 1123 -41 
Q 819 9 494 109 
L 494 744 
Q 775 591 1075 516 
Q 1375 441 1709 441 
Q 2250 441 2565 725 
Q 2881 1009 2881 1497 
Q 2881 1984 2565 2268 
Q 2250 2553 1709 2553 
Q 1456 2553 1204 2497 
Q 953 2441 691 2322 
L 691 4666 
z
" transform="scale(0.015625)"/>
       </defs>
       <use xlink:href="#DejaVuSans-35"/>
       <use xlink:href="#DejaVuSans-30" x="63.623047"/>
       <use xlink:href="#DejaVuSans-30" x="127.246094"/>
      </g>
     </g>
    </g>
    <g id="xtick_3">
     <g id="line2d_5">
      <path d="M 172.392296 252 
L 172.392296 34.56 
" clip-path="url(#pedb111404a)" style="fill: none; stroke-dasharray: 2.96,1.28; stroke-dashoffset: 0; stroke: #b0b0b0; stroke-width: 0.8"/>
     </g>
     <g id="line2d_6">
      <g>
       <use xlink:href="#md9d9f370c9" x="172.392296" y="252" style="stroke: #000000; stroke-width: 0.8"/>
      </g>
     </g>
     <g id="text_3">
      <!-- 1000 -->
      <g transform="translate(159.667296 266.598437)scale(0.1 -0.1)">
       <defs>
        <path id="DejaVuSans-31" d="M 794 531 
L 1825 531 
L 1825 4091 
L 703 3866 
L 703 4441 
L 1819 4666 
L 2450 4666 
L 2450 531 
L 3481 531 
L 3481 0 
L 794 0 
L 794 531 
z
" transform="scale(0.015625)"/>
       </defs>
       <use xlink:href="#DejaVuSans-31"/>
       <use xlink:href="#DejaVuSans-30" x="63.623047"/>
       <use xlink:href="#DejaVuSans-30" x="127.246094"/>
       <use xlink:href="#DejaVuSans-30" x="190.869141"/>
      </g>
     </g>
    </g>
    <g id="xtick_4">
     <g id="line2d_7">
      <path d="M 223.979353 252 
L 223.979353 34.56 
" clip-path="url(#pedb111404a)" style="fill: none; stroke-dasharray: 2.96,1.28; stroke-dashoffset: 0; stroke: #b0b0b0; stroke-width: 0.8"/>
     </g>
     <g id="line2d_8">
      <g>
       <use xlink:href="#md9d9f370c9" x="223.979353" y="252" style="stroke: #000000; stroke-width: 0.8"/>
      </g>
     </g>
     <g id="text_4">
      <!-- 1500 -->
      <g transform="translate(211.254353 266.598437)scale(0.1 -0.1)">
       <use xlink:href="#DejaVuSans-31"/>
       <use xlink:href="#DejaVuSans-35" x="63.623047"/>
       <use xlink:href="#DejaVuSans-30" x="127.246094"/>
       <use xlink:href="#DejaVuSans-30" x="190.869141"/>
      </g>
     </g>
    </g>
    <g id="xtick_5">
     <g id="line2d_9">
      <path d="M 275.56641 252 
L 275.56641 34.56 
" clip-path="url(#pedb111404a)" style="fill: none; stroke-dasharray: 2.96,1.28; stroke-dashoffset: 0; stroke: #b0b0b0; stroke-width: 0.8"/>
     </g>
     <g id="line2d_10">
      <g>
       <use xlink:href="#md9d9f370c9" x="275.56641" y="252" style="stroke: #000000; stroke-width: 0.8"/>
      </g>
     </g>
     <g id="text_5">
      <!-- 2000 -->
      <g transform="translate(262.84141 266.598437)scale(0.1 -0.1)">
       <defs>
        <path id="DejaVuSans-32" d="M 1228 531 
L 3431 531 
L 3431 0 
L 469 0 
L 469 531 
Q 828 903 1448 1529 
Q 2069 2156 2228 2338 
Q 2531 2678 2651 2914 
Q 2772 3150 2772 3378 
Q 2772 3750 2511 3984 
Q 2250 4219 1831 4219 
Q 1534 4219 1204 4116 
Q 875 4013 500 3803 
L 500 4441 
Q 881 4594 1212 4672 
Q 1544 4750 1819 4750 
Q 2544 4750 2975 4387 
Q 3406 4025 3406 3419 
Q 3406 3131 3298 2873 
Q 3191 2616 2906 2266 
Q 2828 2175 2409 1742 
Q 1991 1309 1228 531 
z
" transform="scale(0.015625)"/>
       </defs>
       <use xlink:href="#DejaVuSans-32"/>
       <use xlink:href="#DejaVuSans-30" x="63.623047"/>
       <use xlink:href="#DejaVuSans-30" x="127.246094"/>
       <use xlink:href="#DejaVuSans-30" x="190.869141"/>
      </g>
     </g>
    </g>
    <g id="xtick_6">
     <g id="line2d_11">
      <path d="M 327.153467 252 
L 327.153467 34.56 
" clip-path="url(#pedb111404a)" style="fill: none; stroke-dasharray: 2.96,1.28; stroke-dashoffset: 0; stroke: #b0b0b0; stroke-width: 0.8"/>
     </g>
     <g id="line2d_12">
      <g>
       <use xlink:href="#md9d9f370c9" x="327.153467" y="252" style="stroke: #000000; stroke-width: 0.8"/>
      </g>
     </g>
     <g id="text_6">
      <!-- 2500 -->
      <g transform="translate(314.428467 266.598437)scale(0.1 -0.1)">
       <use xlink:href="#DejaVuSans-32"/>
       <use xlink:href="#DejaVuSans-35" x="63.623047"/>
       <use xlink:href="#DejaVuSans-30" x="127.246094"/>
       <use xlink:href="#DejaVuSans-30" x="190.869141"/>
      </g>
     </g>
    </g>
    <g id="xtick_7">
     <g id="line2d_13">
      <path d="M 378.740524 252 
L 378.740524 34.56 
" clip-path="url(#pedb111404a)" style="fill: none; stroke-dasharray: 2.96,1.28; stroke-dashoffset: 0; stroke: #b0b0b0; stroke-width: 0.8"/>
     </g>
     <g id="line2d_14">
      <g>
       <use xlink:href="#md9d9f370c9" x="378.740524" y="252" style="stroke: #000000; stroke-width: 0.8"/>
      </g>
     </g>
     <g id="text_7">
      <!-- 3000 -->
      <g transform="translate(366.015524 266.598437)scale(0.1 -0.1)">
       <defs>
        <path id="DejaVuSans-33" d="M 2597 2516 
Q 3050 2419 3304 2112 
Q 3559 1806 3559 1356 
Q 3559 666 3084 287 
Q 2609 -91 1734 -91 
Q 1441 -91 1130 -33 
Q 819 25 488 141 
L 488 750 
Q 750 597 1062 519 
Q 1375 441 1716 441 
Q 2309 441 2620 675 
Q 2931 909 2931 1356 
Q 2931 1769 2642 2001 
Q 2353 2234 1838 2234 
L 1294 2234 
L 1294 2753 
L 1863 2753 
Q 2328 2753 2575 2939 
Q 2822 3125 2822 3475 
Q 2822 3834 2567 4026 
Q 2313 4219 1838 4219 
Q 1578 4219 1281 4162 
Q 984 4106 628 3988 
L 628 4550 
Q 988 4650 1302 4700 
Q 1616 4750 1894 4750 
Q 2613 4750 3031 4423 
Q 3450 4097 3450 3541 
Q 3450 3153 3228 2886 
Q 3006 2619 2597 2516 
z
" transform="scale(0.015625)"/>
       </defs>
       <use xlink:href="#DejaVuSans-33"/>
       <use xlink:href="#DejaVuSans-30" x="63.623047"/>
       <use xlink:href="#DejaVuSans-30" x="127.246094"/>
       <use xlink:href="#DejaVuSans-30" x="190.869141"/>
      </g>
     </g>
    </g>
    <g id="text_8">
     <!-- Steps -->
     <g transform="translate(207.410156 280.276563)scale(0.1 -0.1)">
      <defs>
       <path id="DejaVuSans-53" d="M 3425 4513 
L 3425 3897 
Q 3066 4069 2747 4153 
Q 2428 4238 2131 4238 
Q 1616 4238 1336 4038 
Q 1056 3838 1056 3469 
Q 1056 3159 1242 3001 
Q 1428 2844 1947 2747 
L 2328 2669 
Q 3034 2534 3370 2195 
Q 3706 1856 3706 1288 
Q 3706 609 3251 259 
Q 2797 -91 1919 -91 
Q 1588 -91 1214 -16 
Q 841 59 441 206 
L 441 856 
Q 825 641 1194 531 
Q 1563 422 1919 422 
Q 2459 422 2753 634 
Q 3047 847 3047 1241 
Q 3047 1584 2836 1778 
Q 2625 1972 2144 2069 
L 1759 2144 
Q 1053 2284 737 2584 
Q 422 2884 422 3419 
Q 422 4038 858 4394 
Q 1294 4750 2059 4750 
Q 2388 4750 2728 4690 
Q 3069 4631 3425 4513 
z
" transform="scale(0.015625)"/>
       <path id="DejaVuSans-74" d="M 1172 4494 
L 1172 3500 
L 2356 3500 
L 2356 3053 
L 1172 3053 
L 1172 1153 
Q 1172 725 1289 603 
Q 1406 481 1766 481 
L 2356 481 
L 2356 0 
L 1766 0 
Q 1100 0 847 248 
Q 594 497 594 1153 
L 594 3053 
L 172 3053 
L 172 3500 
L 594 3500 
L 594 4494 
L 1172 4494 
z
" transform="scale(0.015625)"/>
       <path id="DejaVuSans-65" d="M 3597 1894 
L 3597 1613 
L 953 1613 
Q 991 1019 1311 708 
Q 1631 397 2203 397 
Q 2534 397 2845 478 
Q 3156 559 3463 722 
L 3463 178 
Q 3153 47 2828 -22 
Q 2503 -91 2169 -91 
Q 1331 -91 842 396 
Q 353 884 353 1716 
Q 353 2575 817 3079 
Q 1281 3584 2069 3584 
Q 2775 3584 3186 3129 
Q 3597 2675 3597 1894 
z
M 3022 2063 
Q 3016 2534 2758 2815 
Q 2500 3097 2075 3097 
Q 1594 3097 1305 2825 
Q 1016 2553 972 2059 
L 3022 2063 
z
" transform="scale(0.015625)"/>
       <path id="DejaVuSans-70" d="M 1159 525 
L 1159 -1331 
L 581 -1331 
L 581 3500 
L 1159 3500 
L 1159 2969 
Q 1341 3281 1617 3432 
Q 1894 3584 2278 3584 
Q 2916 3584 3314 3078 
Q 3713 2572 3713 1747 
Q 3713 922 3314 415 
Q 2916 -91 2278 -91 
Q 1894 -91 1617 61 
Q 1341 213 1159 525 
z
M 3116 1747 
Q 3116 2381 2855 2742 
Q 2594 3103 2138 3103 
Q 1681 3103 1420 2742 
Q 1159 2381 1159 1747 
Q 1159 1113 1420 752 
Q 1681 391 2138 391 
Q 2594 391 2855 752 
Q 3116 1113 3116 1747 
z
" transform="scale(0.015625)"/>
       <path id="DejaVuSans-73" d="M 2834 3397 
L 2834 2853 
Q 2591 2978 2328 3040 
Q 2066 3103 1784 3103 
Q 1356 3103 1142 2972 
Q 928 2841 928 2578 
Q 928 2378 1081 2264 
Q 1234 2150 1697 2047 
L 1894 2003 
Q 2506 1872 2764 1633 
Q 3022 1394 3022 966 
Q 3022 478 2636 193 
Q 2250 -91 1575 -91 
Q 1294 -91 989 -36 
Q 684 19 347 128 
L 347 722 
Q 666 556 975 473 
Q 1284 391 1588 391 
Q 1994 391 2212 530 
Q 2431 669 2431 922 
Q 2431 1156 2273 1281 
Q 2116 1406 1581 1522 
L 1381 1569 
Q 847 1681 609 1914 
Q 372 2147 372 2553 
Q 372 3047 722 3315 
Q 1072 3584 1716 3584 
Q 2034 3584 2315 3537 
Q 2597 3491 2834 3397 
z
" transform="scale(0.015625)"/>
      </defs>
      <use xlink:href="#DejaVuSans-53"/>
      <use xlink:href="#DejaVuSans-74" x="63.476562"/>
      <use xlink:href="#DejaVuSans-65" x="102.685547"/>
      <use xlink:href="#DejaVuSans-70" x="164.208984"/>
      <use xlink:href="#DejaVuSans-73" x="227.685547"/>
     </g>
    </g>
   </g>
   <g id="matplotlib.axis_2">
    <g id="ytick_1">
     <g id="line2d_15">
      <path d="M 54 243.636923 
L 388.8 243.636923 
" clip-path="url(#pedb111404a)" style="fill: none; stroke-dasharray: 2.96,1.28; stroke-dashoffset: 0; stroke: #b0b0b0; stroke-width: 0.8"/>
     </g>
     <g id="line2d_16">
      <defs>
       <path id="m6516c8765e" d="M 0 0 
L -3.5 0 
" style="stroke: #000000; stroke-width: 0.8"/>
      </defs>
      <g>
       <use xlink:href="#m6516c8765e" x="54" y="243.636923" style="stroke: #000000; stroke-width: 0.8"/>
      </g>
     </g>
     <g id="text_9">
      <!-- −12 -->
      <g transform="translate(25.895312 247.436142)scale(0.1 -0.1)">
       <defs>
        <path id="DejaVuSans-2212" d="M 678 2272 
L 4684 2272 
L 4684 1741 
L 678 1741 
L 678 2272 
z
" transform="scale(0.015625)"/>
       </defs>
       <use xlink:href="#DejaVuSans-2212"/>
       <use xlink:href="#DejaVuSans-31" x="83.789062"/>
       <use xlink:href="#DejaVuSans-32" x="147.412109"/>
      </g>
     </g>
    </g>
    <g id="ytick_2">
     <g id="line2d_17">
      <path d="M 54 210.184615 
L 388.8 210.184615 
" clip-path="url(#pedb111404a)" style="fill: none; stroke-dasharray: 2.96,1.28; stroke-dashoffset: 0; stroke: #b0b0b0; stroke-width: 0.8"/>
     </g>
     <g id="line2d_18">
      <g>
       <use xlink:href="#m6516c8765e" x="54" y="210.184615" style="stroke: #000000; stroke-width: 0.8"/>
      </g>
     </g>
     <g id="text_10">
      <!-- −10 -->
      <g transform="translate(25.895312 213.983834)scale(0.1 -0.1)">
       <use xlink:href="#DejaVuSans-2212"/>
       <use xlink:href="#DejaVuSans-31" x="83.789062"/>
       <use xlink:href="#DejaVuSans-30" x="147.412109"/>
      </g>
     </g>
    </g>
    <g id="ytick_3">
     <g id="line2d_19">
      <path d="M 54 176.732308 
L 388.8 176.732308 
" clip-path="url(#pedb111404a)" style="fill: none; stroke-dasharray: 2.96,1.28; stroke-dashoffset: 0; stroke: #b0b0b0; stroke-width: 0.8"/>
     </g>
     <g id="line2d_20">
      <g>
       <use xlink:href="#m6516c8765e" x="54" y="176.732308" style="stroke: #000000; stroke-width: 0.8"/>
      </g>
     </g>
     <g id="text_11">
      <!-- −8 -->
      <g transform="translate(32.257812 180.531526)scale(0.1 -0.1)">
       <defs>
        <path id="DejaVuSans-38" d="M 2034 2216 
Q 1584 2216 1326 1975 
Q 1069 1734 1069 1313 
Q 1069 891 1326 650 
Q 1584 409 2034 409 
Q 2484 409 2743 651 
Q 3003 894 3003 1313 
Q 3003 1734 2745 1975 
Q 2488 2216 2034 2216 
z
M 1403 2484 
Q 997 2584 770 2862 
Q 544 3141 544 3541 
Q 544 4100 942 4425 
Q 1341 4750 2034 4750 
Q 2731 4750 3128 4425 
Q 3525 4100 3525 3541 
Q 3525 3141 3298 2862 
Q 3072 2584 2669 2484 
Q 3125 2378 3379 2068 
Q 3634 1759 3634 1313 
Q 3634 634 3220 271 
Q 2806 -91 2034 -91 
Q 1263 -91 848 271 
Q 434 634 434 1313 
Q 434 1759 690 2068 
Q 947 2378 1403 2484 
z
M 1172 3481 
Q 1172 3119 1398 2916 
Q 1625 2713 2034 2713 
Q 2441 2713 2670 2916 
Q 2900 3119 2900 3481 
Q 2900 3844 2670 4047 
Q 2441 4250 2034 4250 
Q 1625 4250 1398 4047 
Q 1172 3844 1172 3481 
z
" transform="scale(0.015625)"/>
       </defs>
       <use xlink:href="#DejaVuSans-2212"/>
       <use xlink:href="#DejaVuSans-38" x="83.789062"/>
      </g>
     </g>
    </g>
    <g id="ytick_4">
     <g id="line2d_21">
      <path d="M 54 143.28 
L 388.8 143.28 
" clip-path="url(#pedb111404a)" style="fill: none; stroke-dasharray: 2.96,1.28; stroke-dashoffset: 0; stroke: #b0b0b0; stroke-width: 0.8"/>
     </g>
     <g id="line2d_22">
      <g>
       <use xlink:href="#m6516c8765e" x="54" y="143.28" style="stroke: #000000; stroke-width: 0.8"/>
      </g>
     </g>
     <g id="text_12">
      <!-- −6 -->
      <g transform="translate(32.257812 147.079219)scale(0.1 -0.1)">
       <defs>
        <path id="DejaVuSans-36" d="M 2113 2584 
Q 1688 2584 1439 2293 
Q 1191 2003 1191 1497 
Q 1191 994 1439 701 
Q 1688 409 2113 409 
Q 2538 409 2786 701 
Q 3034 994 3034 1497 
Q 3034 2003 2786 2293 
Q 2538 2584 2113 2584 
z
M 3366 4563 
L 3366 3988 
Q 3128 4100 2886 4159 
Q 2644 4219 2406 4219 
Q 1781 4219 1451 3797 
Q 1122 3375 1075 2522 
Q 1259 2794 1537 2939 
Q 1816 3084 2150 3084 
Q 2853 3084 3261 2657 
Q 3669 2231 3669 1497 
Q 3669 778 3244 343 
Q 2819 -91 2113 -91 
Q 1303 -91 875 529 
Q 447 1150 447 2328 
Q 447 3434 972 4092 
Q 1497 4750 2381 4750 
Q 2619 4750 2861 4703 
Q 3103 4656 3366 4563 
z
" transform="scale(0.015625)"/>
       </defs>
       <use xlink:href="#DejaVuSans-2212"/>
       <use xlink:href="#DejaVuSans-36" x="83.789062"/>
      </g>
     </g>
    </g>
    <g id="ytick_5">
     <g id="line2d_23">
      <path d="M 54 109.827692 
L 388.8 109.827692 
" clip-path="url(#pedb111404a)" style="fill: none; stroke-dasharray: 2.96,1.28; stroke-dashoffset: 0; stroke: #b0b0b0; stroke-width: 0.8"/>
     </g>
     <g id="line2d_24">
      <g>
       <use xlink:href="#m6516c8765e" x="54" y="109.827692" style="stroke: #000000; stroke-width: 0.8"/>
      </g>
     </g>
     <g id="text_13">
      <!-- −4 -->
      <g transform="translate(32.257812 113.626911)scale(0.1 -0.1)">
       <defs>
        <path id="DejaVuSans-34" d="M 2419 4116 
L 825 1625 
L 2419 1625 
L 2419 4116 
z
M 2253 4666 
L 3047 4666 
L 3047 1625 
L 3713 1625 
L 3713 1100 
L 3047 1100 
L 3047 0 
L 2419 0 
L 2419 1100 
L 313 1100 
L 313 1709 
L 2253 4666 
z
" transform="scale(0.015625)"/>
       </defs>
       <use xlink:href="#DejaVuSans-2212"/>
       <use xlink:href="#DejaVuSans-34" x="83.789062"/>
      </g>
     </g>
    </g>
    <g id="ytick_6">
     <g id="line2d_25">
      <path d="M 54 76.375385 
L 388.8 76.375385 
" clip-path="url(#pedb111404a)" style="fill: none; stroke-dasharray: 2.96,1.28; stroke-dashoffset: 0; stroke: #b0b0b0; stroke-width: 0.8"/>
     </g>
     <g id="line2d_26">
      <g>
       <use xlink:href="#m6516c8765e" x="54" y="76.375385" style="stroke: #000000; stroke-width: 0.8"/>
      </g>
     </g>
     <g id="text_14">
      <!-- −2 -->
      <g transform="translate(32.257812 80.174603)scale(0.1 -0.1)">
       <use xlink:href="#DejaVuSans-2212"/>
       <use xlink:href="#DejaVuSans-32" x="83.789062"/>
      </g>
     </g>
    </g>
    <g id="ytick_7">
     <g id="line2d_27">
      <path d="M 54 42.923077 
L 388.8 42.923077 
" clip-path="url(#pedb111404a)" style="fill: none; stroke-dasharray: 2.96,1.28; stroke-dashoffset: 0; stroke: #b0b0b0; stroke-width: 0.8"/>
     </g>
     <g id="line2d_28">
      <g>
       <use xlink:href="#m6516c8765e" x="54" y="42.923077" style="stroke: #000000; stroke-width: 0.8"/>
      </g>
     </g>
     <g id="text_15">
      <!-- 0 -->
      <g transform="translate(40.6375 46.722296)scale(0.1 -0.1)">
       <use xlink:href="#DejaVuSans-30"/>
      </g>
     </g>
    </g>
    <g id="text_16">
     <!-- Policy value error -->
     <g transform="translate(19.815625 186.597969)rotate(-90)scale(0.1 -0.1)">
      <defs>
       <path id="DejaVuSans-50" d="M 1259 4147 
L 1259 2394 
L 2053 2394 
Q 2494 2394 2734 2622 
Q 2975 2850 2975 3272 
Q 2975 3691 2734 3919 
Q 2494 4147 2053 4147 
L 1259 4147 
z
M 628 4666 
L 2053 4666 
Q 2838 4666 3239 4311 
Q 3641 3956 3641 3272 
Q 3641 2581 3239 2228 
Q 2838 1875 2053 1875 
L 1259 1875 
L 1259 0 
L 628 0 
L 628 4666 
z
" transform="scale(0.015625)"/>
       <path id="DejaVuSans-6f" d="M 1959 3097 
Q 1497 3097 1228 2736 
Q 959 2375 959 1747 
Q 959 1119 1226 758 
Q 1494 397 1959 397 
Q 2419 397 2687 759 
Q 2956 1122 2956 1747 
Q 2956 2369 2687 2733 
Q 2419 3097 1959 3097 
z
M 1959 3584 
Q 2709 3584 3137 3096 
Q 3566 2609 3566 1747 
Q 3566 888 3137 398 
Q 2709 -91 1959 -91 
Q 1206 -91 779 398 
Q 353 888 353 1747 
Q 353 2609 779 3096 
Q 1206 3584 1959 3584 
z
" transform="scale(0.015625)"/>
       <path id="DejaVuSans-6c" d="M 603 4863 
L 1178 4863 
L 1178 0 
L 603 0 
L 603 4863 
z
" transform="scale(0.015625)"/>
       <path id="DejaVuSans-69" d="M 603 3500 
L 1178 3500 
L 1178 0 
L 603 0 
L 603 3500 
z
M 603 4863 
L 1178 4863 
L 1178 4134 
L 603 4134 
L 603 4863 
z
" transform="scale(0.015625)"/>
       <path id="DejaVuSans-63" d="M 3122 3366 
L 3122 2828 
Q 2878 2963 2633 3030 
Q 2388 3097 2138 3097 
Q 1578 3097 1268 2742 
Q 959 2388 959 1747 
Q 959 1106 1268 751 
Q 1578 397 2138 397 
Q 2388 397 2633 464 
Q 2878 531 3122 666 
L 3122 134 
Q 2881 22 2623 -34 
Q 2366 -91 2075 -91 
Q 1284 -91 818 406 
Q 353 903 353 1747 
Q 353 2603 823 3093 
Q 1294 3584 2113 3584 
Q 2378 3584 2631 3529 
Q 2884 3475 3122 3366 
z
" transform="scale(0.015625)"/>
       <path id="DejaVuSans-79" d="M 2059 -325 
Q 1816 -950 1584 -1140 
Q 1353 -1331 966 -1331 
L 506 -1331 
L 506 -850 
L 844 -850 
Q 1081 -850 1212 -737 
Q 1344 -625 1503 -206 
L 1606 56 
L 191 3500 
L 800 3500 
L 1894 763 
L 2988 3500 
L 3597 3500 
L 2059 -325 
z
" transform="scale(0.015625)"/>
       <path id="DejaVuSans-20" transform="scale(0.015625)"/>
       <path id="DejaVuSans-76" d="M 191 3500 
L 800 3500 
L 1894 563 
L 2988 3500 
L 3597 3500 
L 2284 0 
L 1503 0 
L 191 3500 
z
" transform="scale(0.015625)"/>
       <path id="DejaVuSans-61" d="M 2194 1759 
Q 1497 1759 1228 1600 
Q 959 1441 959 1056 
Q 959 750 1161 570 
Q 1363 391 1709 391 
Q 2188 391 2477 730 
Q 2766 1069 2766 1631 
L 2766 1759 
L 2194 1759 
z
M 3341 1997 
L 3341 0 
L 2766 0 
L 2766 531 
Q 2569 213 2275 61 
Q 1981 -91 1556 -91 
Q 1019 -91 701 211 
Q 384 513 384 1019 
Q 384 1609 779 1909 
Q 1175 2209 1959 2209 
L 2766 2209 
L 2766 2266 
Q 2766 2663 2505 2880 
Q 2244 3097 1772 3097 
Q 1472 3097 1187 3025 
Q 903 2953 641 2809 
L 641 3341 
Q 956 3463 1253 3523 
Q 1550 3584 1831 3584 
Q 2591 3584 2966 3190 
Q 3341 2797 3341 1997 
z
" transform="scale(0.015625)"/>
       <path id="DejaVuSans-75" d="M 544 1381 
L 544 3500 
L 1119 3500 
L 1119 1403 
Q 1119 906 1312 657 
Q 1506 409 1894 409 
Q 2359 409 2629 706 
Q 2900 1003 2900 1516 
L 2900 3500 
L 3475 3500 
L 3475 0 
L 2900 0 
L 2900 538 
Q 2691 219 2414 64 
Q 2138 -91 1772 -91 
Q 1169 -91 856 284 
Q 544 659 544 1381 
z
M 1991 3584 
L 1991 3584 
z
" transform="scale(0.015625)"/>
       <path id="DejaVuSans-72" d="M 2631 2963 
Q 2534 3019 2420 3045 
Q 2306 3072 2169 3072 
Q 1681 3072 1420 2755 
Q 1159 2438 1159 1844 
L 1159 0 
L 581 0 
L 581 3500 
L 1159 3500 
L 1159 2956 
Q 1341 3275 1631 3429 
Q 1922 3584 2338 3584 
Q 2397 3584 2469 3576 
Q 2541 3569 2628 3553 
L 2631 2963 
z
" transform="scale(0.015625)"/>
      </defs>
      <use xlink:href="#DejaVuSans-50"/>
      <use xlink:href="#DejaVuSans-6f" x="56.677734"/>
      <use xlink:href="#DejaVuSans-6c" x="117.859375"/>
      <use xlink:href="#DejaVuSans-69" x="145.642578"/>
      <use xlink:href="#DejaVuSans-63" x="173.425781"/>
      <use xlink:href="#DejaVuSans-79" x="228.40625"/>
      <use xlink:href="#DejaVuSans-20" x="287.585938"/>
      <use xlink:href="#DejaVuSans-76" x="319.373047"/>
      <use xlink:href="#DejaVuSans-61" x="378.552734"/>
      <use xlink:href="#DejaVuSans-6c" x="439.832031"/>
      <use xlink:href="#DejaVuSans-75" x="467.615234"/>
      <use xlink:href="#DejaVuSans-65" x="530.994141"/>
      <use xlink:href="#DejaVuSans-20" x="592.517578"/>
      <use xlink:href="#DejaVuSans-65" x="624.304688"/>
      <use xlink:href="#DejaVuSans-72" x="685.828125"/>
      <use xlink:href="#DejaVuSans-72" x="725.191406"/>
      <use xlink:href="#DejaVuSans-6f" x="764.054688"/>
      <use xlink:href="#DejaVuSans-72" x="825.236328"/>
     </g>
    </g>
   </g>
   <g id="line2d_29">
    <path d="M 69.218182 262.639115 
L 74.376888 252.923434 
L 79.535593 265.937232 
L 84.694299 252.939611 
L 89.853005 253.327681 
L 95.01171 255.3003 
L 100.170416 252.929643 
L 105.329122 217.984782 
L 110.487827 209.098527 
L 115.646533 109.850714 
L 120.805239 165.584328 
L 125.963945 132.320271 
L 131.12265 69.725771 
L 136.281356 62.345504 
L 141.440062 66.481824 
L 146.598767 66.481824 
L 151.757473 66.481824 
L 156.916179 59.044252 
L 162.074884 92.925726 
L 167.23359 59.40718 
L 172.392296 58.990172 
L 177.551002 59.083809 
L 182.709707 58.990172 
L 187.868413 58.990172 
L 193.027119 58.990172 
L 198.185824 58.990172 
L 203.34453 64.05138 
L 208.503236 59.719518 
L 213.661941 59.083809 
L 218.820647 59.083809 
L 223.979353 59.083809 
L 229.138059 63.525142 
L 234.296764 59.083809 
L 239.45547 59.083809 
L 244.614176 59.083809 
L 249.772881 59.083809 
L 254.931587 59.083809 
L 260.090293 59.083809 
L 265.248998 59.083809 
L 270.407704 59.083809 
L 275.56641 59.083809 
L 280.725116 63.525142 
L 285.883821 59.083809 
L 291.042527 63.525142 
L 296.201233 59.083809 
L 301.359938 59.083809 
L 306.518644 59.083809 
L 311.67735 59.083809 
L 316.836055 59.083809 
L 321.994761 59.083809 
L 327.153467 59.083809 
L 332.312173 59.083809 
L 337.470878 58.884376 
L 342.629584 58.884376 
L 347.78829 58.884376 
L 352.946995 59.126553 
L 358.105701 59.044252 
L 363.264407 59.044252 
L 368.423112 59.044252 
L 373.581818 58.834562 
" clip-path="url(#pedb111404a)" style="fill: none; stroke: #9d02d7; stroke-width: 1.5; stroke-linecap: square"/>
    <defs>
     <path id="mb769b91a67" d="M 0 -2 
L -2 2 
L 2 2 
z
" style="stroke: #9d02d7; stroke-linejoin: miter"/>
    </defs>
    <g clip-path="url(#pedb111404a)">
     <use xlink:href="#mb769b91a67" x="69.218182" y="262.639115" style="fill: #9d02d7; stroke: #9d02d7; stroke-linejoin: miter"/>
     <use xlink:href="#mb769b91a67" x="74.376888" y="252.923434" style="fill: #9d02d7; stroke: #9d02d7; stroke-linejoin: miter"/>
     <use xlink:href="#mb769b91a67" x="79.535593" y="265.937232" style="fill: #9d02d7; stroke: #9d02d7; stroke-linejoin: miter"/>
     <use xlink:href="#mb769b91a67" x="84.694299" y="252.939611" style="fill: #9d02d7; stroke: #9d02d7; stroke-linejoin: miter"/>
     <use xlink:href="#mb769b91a67" x="89.853005" y="253.327681" style="fill: #9d02d7; stroke: #9d02d7; stroke-linejoin: miter"/>
     <use xlink:href="#mb769b91a67" x="95.01171" y="255.3003" style="fill: #9d02d7; stroke: #9d02d7; stroke-linejoin: miter"/>
     <use xlink:href="#mb769b91a67" x="100.170416" y="252.929643" style="fill: #9d02d7; stroke: #9d02d7; stroke-linejoin: miter"/>
     <use xlink:href="#mb769b91a67" x="105.329122" y="217.984782" style="fill: #9d02d7; stroke: #9d02d7; stroke-linejoin: miter"/>
     <use xlink:href="#mb769b91a67" x="110.487827" y="209.098527" style="fill: #9d02d7; stroke: #9d02d7; stroke-linejoin: miter"/>
     <use xlink:href="#mb769b91a67" x="115.646533" y="109.850714" style="fill: #9d02d7; stroke: #9d02d7; stroke-linejoin: miter"/>
     <use xlink:href="#mb769b91a67" x="120.805239" y="165.584328" style="fill: #9d02d7; stroke: #9d02d7; stroke-linejoin: miter"/>
     <use xlink:href="#mb769b91a67" x="125.963945" y="132.320271" style="fill: #9d02d7; stroke: #9d02d7; stroke-linejoin: miter"/>
     <use xlink:href="#mb769b91a67" x="131.12265" y="69.725771" style="fill: #9d02d7; stroke: #9d02d7; stroke-linejoin: miter"/>
     <use xlink:href="#mb769b91a67" x="136.281356" y="62.345504" style="fill: #9d02d7; stroke: #9d02d7; stroke-linejoin: miter"/>
     <use xlink:href="#mb769b91a67" x="141.440062" y="66.481824" style="fill: #9d02d7; stroke: #9d02d7; stroke-linejoin: miter"/>
     <use xlink:href="#mb769b91a67" x="146.598767" y="66.481824" style="fill: #9d02d7; stroke: #9d02d7; stroke-linejoin: miter"/>
     <use xlink:href="#mb769b91a67" x="151.757473" y="66.481824" style="fill: #9d02d7; stroke: #9d02d7; stroke-linejoin: miter"/>
     <use xlink:href="#mb769b91a67" x="156.916179" y="59.044252" style="fill: #9d02d7; stroke: #9d02d7; stroke-linejoin: miter"/>
     <use xlink:href="#mb769b91a67" x="162.074884" y="92.925726" style="fill: #9d02d7; stroke: #9d02d7; stroke-linejoin: miter"/>
     <use xlink:href="#mb769b91a67" x="167.23359" y="59.40718" style="fill: #9d02d7; stroke: #9d02d7; stroke-linejoin: miter"/>
     <use xlink:href="#mb769b91a67" x="172.392296" y="58.990172" style="fill: #9d02d7; stroke: #9d02d7; stroke-linejoin: miter"/>
     <use xlink:href="#mb769b91a67" x="177.551002" y="59.083809" style="fill: #9d02d7; stroke: #9d02d7; stroke-linejoin: miter"/>
     <use xlink:href="#mb769b91a67" x="182.709707" y="58.990172" style="fill: #9d02d7; stroke: #9d02d7; stroke-linejoin: miter"/>
     <use xlink:href="#mb769b91a67" x="187.868413" y="58.990172" style="fill: #9d02d7; stroke: #9d02d7; stroke-linejoin: miter"/>
     <use xlink:href="#mb769b91a67" x="193.027119" y="58.990172" style="fill: #9d02d7; stroke: #9d02d7; stroke-linejoin: miter"/>
     <use xlink:href="#mb769b91a67" x="198.185824" y="58.990172" style="fill: #9d02d7; stroke: #9d02d7; stroke-linejoin: miter"/>
     <use xlink:href="#mb769b91a67" x="203.34453" y="64.05138" style="fill: #9d02d7; stroke: #9d02d7; stroke-linejoin: miter"/>
     <use xlink:href="#mb769b91a67" x="208.503236" y="59.719518" style="fill: #9d02d7; stroke: #9d02d7; stroke-linejoin: miter"/>
     <use xlink:href="#mb769b91a67" x="213.661941" y="59.083809" style="fill: #9d02d7; stroke: #9d02d7; stroke-linejoin: miter"/>
     <use xlink:href="#mb769b91a67" x="218.820647" y="59.083809" style="fill: #9d02d7; stroke: #9d02d7; stroke-linejoin: miter"/>
     <use xlink:href="#mb769b91a67" x="223.979353" y="59.083809" style="fill: #9d02d7; stroke: #9d02d7; stroke-linejoin: miter"/>
     <use xlink:href="#mb769b91a67" x="229.138059" y="63.525142" style="fill: #9d02d7; stroke: #9d02d7; stroke-linejoin: miter"/>
     <use xlink:href="#mb769b91a67" x="234.296764" y="59.083809" style="fill: #9d02d7; stroke: #9d02d7; stroke-linejoin: miter"/>
     <use xlink:href="#mb769b91a67" x="239.45547" y="59.083809" style="fill: #9d02d7; stroke: #9d02d7; stroke-linejoin: miter"/>
     <use xlink:href="#mb769b91a67" x="244.614176" y="59.083809" style="fill: #9d02d7; stroke: #9d02d7; stroke-linejoin: miter"/>
     <use xlink:href="#mb769b91a67" x="249.772881" y="59.083809" style="fill: #9d02d7; stroke: #9d02d7; stroke-linejoin: miter"/>
     <use xlink:href="#mb769b91a67" x="254.931587" y="59.083809" style="fill: #9d02d7; stroke: #9d02d7; stroke-linejoin: miter"/>
     <use xlink:href="#mb769b91a67" x="260.090293" y="59.083809" style="fill: #9d02d7; stroke: #9d02d7; stroke-linejoin: miter"/>
     <use xlink:href="#mb769b91a67" x="265.248998" y="59.083809" style="fill: #9d02d7; stroke: #9d02d7; stroke-linejoin: miter"/>
     <use xlink:href="#mb769b91a67" x="270.407704" y="59.083809" style="fill: #9d02d7; stroke: #9d02d7; stroke-linejoin: miter"/>
     <use xlink:href="#mb769b91a67" x="275.56641" y="59.083809" style="fill: #9d02d7; stroke: #9d02d7; stroke-linejoin: miter"/>
     <use xlink:href="#mb769b91a67" x="280.725116" y="63.525142" style="fill: #9d02d7; stroke: #9d02d7; stroke-linejoin: miter"/>
     <use xlink:href="#mb769b91a67" x="285.883821" y="59.083809" style="fill: #9d02d7; stroke: #9d02d7; stroke-linejoin: miter"/>
     <use xlink:href="#mb769b91a67" x="291.042527" y="63.525142" style="fill: #9d02d7; stroke: #9d02d7; stroke-linejoin: miter"/>
     <use xlink:href="#mb769b91a67" x="296.201233" y="59.083809" style="fill: #9d02d7; stroke: #9d02d7; stroke-linejoin: miter"/>
     <use xlink:href="#mb769b91a67" x="301.359938" y="59.083809" style="fill: #9d02d7; stroke: #9d02d7; stroke-linejoin: miter"/>
     <use xlink:href="#mb769b91a67" x="306.518644" y="59.083809" style="fill: #9d02d7; stroke: #9d02d7; stroke-linejoin: miter"/>
     <use xlink:href="#mb769b91a67" x="311.67735" y="59.083809" style="fill: #9d02d7; stroke: #9d02d7; stroke-linejoin: miter"/>
     <use xlink:href="#mb769b91a67" x="316.836055" y="59.083809" style="fill: #9d02d7; stroke: #9d02d7; stroke-linejoin: miter"/>
     <use xlink:href="#mb769b91a67" x="321.994761" y="59.083809" style="fill: #9d02d7; stroke: #9d02d7; stroke-linejoin: miter"/>
     <use xlink:href="#mb769b91a67" x="327.153467" y="59.083809" style="fill: #9d02d7; stroke: #9d02d7; stroke-linejoin: miter"/>
     <use xlink:href="#mb769b91a67" x="332.312173" y="59.083809" style="fill: #9d02d7; stroke: #9d02d7; stroke-linejoin: miter"/>
     <use xlink:href="#mb769b91a67" x="337.470878" y="58.884376" style="fill: #9d02d7; stroke: #9d02d7; stroke-linejoin: miter"/>
     <use xlink:href="#mb769b91a67" x="342.629584" y="58.884376" style="fill: #9d02d7; stroke: #9d02d7; stroke-linejoin: miter"/>
     <use xlink:href="#mb769b91a67" x="347.78829" y="58.884376" style="fill: #9d02d7; stroke: #9d02d7; stroke-linejoin: miter"/>
     <use xlink:href="#mb769b91a67" x="352.946995" y="59.126553" style="fill: #9d02d7; stroke: #9d02d7; stroke-linejoin: miter"/>
     <use xlink:href="#mb769b91a67" x="358.105701" y="59.044252" style="fill: #9d02d7; stroke: #9d02d7; stroke-linejoin: miter"/>
     <use xlink:href="#mb769b91a67" x="363.264407" y="59.044252" style="fill: #9d02d7; stroke: #9d02d7; stroke-linejoin: miter"/>
     <use xlink:href="#mb769b91a67" x="368.423112" y="59.044252" style="fill: #9d02d7; stroke: #9d02d7; stroke-linejoin: miter"/>
     <use xlink:href="#mb769b91a67" x="373.581818" y="58.834562" style="fill: #9d02d7; stroke: #9d02d7; stroke-linejoin: miter"/>
    </g>
   </g>
   <g id="line2d_30">
    <path d="M 69.218182 255.441579 
L 74.376888 244.694125 
L 79.535593 253.192785 
L 84.694299 260.335918 
L 89.853005 252.908818 
L 95.01171 258.533772 
L 100.170416 208.442796 
L 105.329122 200.009436 
L 110.487827 200.009436 
L 115.646533 198.825705 
L 120.805239 199.729928 
L 125.963945 130.026825 
L 131.12265 48.843255 
L 136.281356 48.843255 
L 141.440062 49.469413 
L 146.598767 53.059313 
L 151.757473 50.163036 
L 156.916179 50.163036 
L 162.074884 50.163036 
L 167.23359 50.163036 
L 172.392296 49.764571 
L 177.551002 49.765402 
L 182.709707 50.163036 
L 187.868413 48.711911 
L 193.027119 48.711911 
L 198.185824 50.163036 
L 203.34453 50.163036 
L 208.503236 48.711911 
L 213.661941 48.711911 
L 218.820647 48.711911 
L 223.979353 48.711911 
L 229.138059 48.711911 
L 234.296764 48.711911 
L 239.45547 48.711911 
L 244.614176 48.711911 
L 249.772881 48.711911 
L 254.931587 48.711911 
L 260.090293 48.711911 
L 265.248998 48.711911 
L 270.407704 48.711911 
L 275.56641 48.711911 
L 280.725116 48.711911 
L 285.883821 48.711911 
L 291.042527 48.711911 
L 296.201233 48.711911 
L 301.359938 48.711911 
L 306.518644 48.711911 
L 311.67735 48.711911 
L 316.836055 48.711911 
L 321.994761 48.711911 
L 327.153467 48.711911 
L 332.312173 48.711911 
L 337.470878 48.711911 
L 342.629584 48.711911 
L 347.78829 48.711911 
L 352.946995 48.711911 
L 358.105701 48.711911 
L 363.264407 48.711911 
L 368.423112 48.711911 
L 373.581818 48.711911 
" clip-path="url(#pedb111404a)" style="fill: none; stroke: #0000ff; stroke-width: 1.5; stroke-linecap: square"/>
    <defs>
     <path id="m9d6ffcca26" d="M 0 2 
C 0.530406 2 1.03916 1.789267 1.414214 1.414214 
C 1.789267 1.03916 2 0.530406 2 0 
C 2 -0.530406 1.789267 -1.03916 1.414214 -1.414214 
C 1.03916 -1.789267 0.530406 -2 0 -2 
C -0.530406 -2 -1.03916 -1.789267 -1.414214 -1.414214 
C -1.789267 -1.03916 -2 -0.530406 -2 0 
C -2 0.530406 -1.789267 1.03916 -1.414214 1.414214 
C -1.03916 1.789267 -0.530406 2 0 2 
z
" style="stroke: #0000ff"/>
    </defs>
    <g clip-path="url(#pedb111404a)">
     <use xlink:href="#m9d6ffcca26" x="69.218182" y="255.441579" style="fill: #0000ff; stroke: #0000ff"/>
     <use xlink:href="#m9d6ffcca26" x="74.376888" y="244.694125" style="fill: #0000ff; stroke: #0000ff"/>
     <use xlink:href="#m9d6ffcca26" x="79.535593" y="253.192785" style="fill: #0000ff; stroke: #0000ff"/>
     <use xlink:href="#m9d6ffcca26" x="84.694299" y="260.335918" style="fill: #0000ff; stroke: #0000ff"/>
     <use xlink:href="#m9d6ffcca26" x="89.853005" y="252.908818" style="fill: #0000ff; stroke: #0000ff"/>
     <use xlink:href="#m9d6ffcca26" x="95.01171" y="258.533772" style="fill: #0000ff; stroke: #0000ff"/>
     <use xlink:href="#m9d6ffcca26" x="100.170416" y="208.442796" style="fill: #0000ff; stroke: #0000ff"/>
     <use xlink:href="#m9d6ffcca26" x="105.329122" y="200.009436" style="fill: #0000ff; stroke: #0000ff"/>
     <use xlink:href="#m9d6ffcca26" x="110.487827" y="200.009436" style="fill: #0000ff; stroke: #0000ff"/>
     <use xlink:href="#m9d6ffcca26" x="115.646533" y="198.825705" style="fill: #0000ff; stroke: #0000ff"/>
     <use xlink:href="#m9d6ffcca26" x="120.805239" y="199.729928" style="fill: #0000ff; stroke: #0000ff"/>
     <use xlink:href="#m9d6ffcca26" x="125.963945" y="130.026825" style="fill: #0000ff; stroke: #0000ff"/>
     <use xlink:href="#m9d6ffcca26" x="131.12265" y="48.843255" style="fill: #0000ff; stroke: #0000ff"/>
     <use xlink:href="#m9d6ffcca26" x="136.281356" y="48.843255" style="fill: #0000ff; stroke: #0000ff"/>
     <use xlink:href="#m9d6ffcca26" x="141.440062" y="49.469413" style="fill: #0000ff; stroke: #0000ff"/>
     <use xlink:href="#m9d6ffcca26" x="146.598767" y="53.059313" style="fill: #0000ff; stroke: #0000ff"/>
     <use xlink:href="#m9d6ffcca26" x="151.757473" y="50.163036" style="fill: #0000ff; stroke: #0000ff"/>
     <use xlink:href="#m9d6ffcca26" x="156.916179" y="50.163036" style="fill: #0000ff; stroke: #0000ff"/>
     <use xlink:href="#m9d6ffcca26" x="162.074884" y="50.163036" style="fill: #0000ff; stroke: #0000ff"/>
     <use xlink:href="#m9d6ffcca26" x="167.23359" y="50.163036" style="fill: #0000ff; stroke: #0000ff"/>
     <use xlink:href="#m9d6ffcca26" x="172.392296" y="49.764571" style="fill: #0000ff; stroke: #0000ff"/>
     <use xlink:href="#m9d6ffcca26" x="177.551002" y="49.765402" style="fill: #0000ff; stroke: #0000ff"/>
     <use xlink:href="#m9d6ffcca26" x="182.709707" y="50.163036" style="fill: #0000ff; stroke: #0000ff"/>
     <use xlink:href="#m9d6ffcca26" x="187.868413" y="48.711911" style="fill: #0000ff; stroke: #0000ff"/>
     <use xlink:href="#m9d6ffcca26" x="193.027119" y="48.711911" style="fill: #0000ff; stroke: #0000ff"/>
     <use xlink:href="#m9d6ffcca26" x="198.185824" y="50.163036" style="fill: #0000ff; stroke: #0000ff"/>
     <use xlink:href="#m9d6ffcca26" x="203.34453" y="50.163036" style="fill: #0000ff; stroke: #0000ff"/>
     <use xlink:href="#m9d6ffcca26" x="208.503236" y="48.711911" style="fill: #0000ff; stroke: #0000ff"/>
     <use xlink:href="#m9d6ffcca26" x="213.661941" y="48.711911" style="fill: #0000ff; stroke: #0000ff"/>
     <use xlink:href="#m9d6ffcca26" x="218.820647" y="48.711911" style="fill: #0000ff; stroke: #0000ff"/>
     <use xlink:href="#m9d6ffcca26" x="223.979353" y="48.711911" style="fill: #0000ff; stroke: #0000ff"/>
     <use xlink:href="#m9d6ffcca26" x="229.138059" y="48.711911" style="fill: #0000ff; stroke: #0000ff"/>
     <use xlink:href="#m9d6ffcca26" x="234.296764" y="48.711911" style="fill: #0000ff; stroke: #0000ff"/>
     <use xlink:href="#m9d6ffcca26" x="239.45547" y="48.711911" style="fill: #0000ff; stroke: #0000ff"/>
     <use xlink:href="#m9d6ffcca26" x="244.614176" y="48.711911" style="fill: #0000ff; stroke: #0000ff"/>
     <use xlink:href="#m9d6ffcca26" x="249.772881" y="48.711911" style="fill: #0000ff; stroke: #0000ff"/>
     <use xlink:href="#m9d6ffcca26" x="254.931587" y="48.711911" style="fill: #0000ff; stroke: #0000ff"/>
     <use xlink:href="#m9d6ffcca26" x="260.090293" y="48.711911" style="fill: #0000ff; stroke: #0000ff"/>
     <use xlink:href="#m9d6ffcca26" x="265.248998" y="48.711911" style="fill: #0000ff; stroke: #0000ff"/>
     <use xlink:href="#m9d6ffcca26" x="270.407704" y="48.711911" style="fill: #0000ff; stroke: #0000ff"/>
     <use xlink:href="#m9d6ffcca26" x="275.56641" y="48.711911" style="fill: #0000ff; stroke: #0000ff"/>
     <use xlink:href="#m9d6ffcca26" x="280.725116" y="48.711911" style="fill: #0000ff; stroke: #0000ff"/>
     <use xlink:href="#m9d6ffcca26" x="285.883821" y="48.711911" style="fill: #0000ff; stroke: #0000ff"/>
     <use xlink:href="#m9d6ffcca26" x="291.042527" y="48.711911" style="fill: #0000ff; stroke: #0000ff"/>
     <use xlink:href="#m9d6ffcca26" x="296.201233" y="48.711911" style="fill: #0000ff; stroke: #0000ff"/>
     <use xlink:href="#m9d6ffcca26" x="301.359938" y="48.711911" style="fill: #0000ff; stroke: #0000ff"/>
     <use xlink:href="#m9d6ffcca26" x="306.518644" y="48.711911" style="fill: #0000ff; stroke: #0000ff"/>
     <use xlink:href="#m9d6ffcca26" x="311.67735" y="48.711911" style="fill: #0000ff; stroke: #0000ff"/>
     <use xlink:href="#m9d6ffcca26" x="316.836055" y="48.711911" style="fill: #0000ff; stroke: #0000ff"/>
     <use xlink:href="#m9d6ffcca26" x="321.994761" y="48.711911" style="fill: #0000ff; stroke: #0000ff"/>
     <use xlink:href="#m9d6ffcca26" x="327.153467" y="48.711911" style="fill: #0000ff; stroke: #0000ff"/>
     <use xlink:href="#m9d6ffcca26" x="332.312173" y="48.711911" style="fill: #0000ff; stroke: #0000ff"/>
     <use xlink:href="#m9d6ffcca26" x="337.470878" y="48.711911" style="fill: #0000ff; stroke: #0000ff"/>
     <use xlink:href="#m9d6ffcca26" x="342.629584" y="48.711911" style="fill: #0000ff; stroke: #0000ff"/>
     <use xlink:href="#m9d6ffcca26" x="347.78829" y="48.711911" style="fill: #0000ff; stroke: #0000ff"/>
     <use xlink:href="#m9d6ffcca26" x="352.946995" y="48.711911" style="fill: #0000ff; stroke: #0000ff"/>
     <use xlink:href="#m9d6ffcca26" x="358.105701" y="48.711911" style="fill: #0000ff; stroke: #0000ff"/>
     <use xlink:href="#m9d6ffcca26" x="363.264407" y="48.711911" style="fill: #0000ff; stroke: #0000ff"/>
     <use xlink:href="#m9d6ffcca26" x="368.423112" y="48.711911" style="fill: #0000ff; stroke: #0000ff"/>
     <use xlink:href="#m9d6ffcca26" x="373.581818" y="48.711911" style="fill: #0000ff; stroke: #0000ff"/>
    </g>
   </g>
   <g id="line2d_31">
    <path d="M 69.218182 263.267307 
L 74.376888 90.179564 
L 79.535593 86.785925 
L 84.694299 87.967491 
L 89.853005 231.049877 
L 95.01171 214.121566 
L 100.170416 231.258446 
L 105.329122 81.827739 
L 110.487827 210.457689 
L 115.646533 66.070608 
L 120.805239 73.567388 
L 125.963945 47.101945 
L 131.12265 47.221845 
L 136.281356 46.313436 
L 141.440062 46.868471 
L 146.598767 46.201471 
L 151.757473 46.198106 
L 156.916179 46.027386 
L 162.074884 46.694329 
L 167.23359 46.027386 
L 172.392296 46.024436 
L 177.551002 46.12487 
L 182.709707 46.168707 
L 187.868413 46.168707 
L 193.027119 46.12487 
L 198.185824 46.027386 
L 203.34453 46.024436 
L 208.503236 45.921817 
L 213.661941 45.943817 
L 218.820647 45.943082 
L 223.979353 45.133373 
L 229.138059 45.964783 
L 234.296764 45.964783 
L 239.45547 45.964783 
L 244.614176 45.964783 
L 249.772881 45.964783 
L 254.931587 45.964783 
L 260.090293 45.964783 
L 265.248998 45.964783 
L 270.407704 45.964783 
L 275.56641 45.964783 
L 280.725116 45.964783 
L 285.883821 46.102758 
L 291.042527 46.102758 
L 296.201233 46.102758 
L 301.359938 46.102758 
L 306.518644 46.102758 
L 311.67735 46.102758 
L 316.836055 46.102758 
L 321.994761 46.102758 
L 327.153467 46.102758 
L 332.312173 46.102758 
L 337.470878 46.102758 
L 342.629584 46.102758 
L 347.78829 46.102758 
L 352.946995 46.102758 
L 358.105701 46.102758 
L 363.264407 46.102758 
L 368.423112 46.102758 
L 373.581818 46.102758 
" clip-path="url(#pedb111404a)" style="fill: none; stroke: #ff7763; stroke-width: 1.5; stroke-linecap: square"/>
    <defs>
     <path id="mb17dff7e8e" d="M -2 2 
L 2 -2 
M -2 -2 
L 2 2 
" style="stroke: #ff7763"/>
    </defs>
    <g clip-path="url(#pedb111404a)">
     <use xlink:href="#mb17dff7e8e" x="69.218182" y="263.267307" style="fill: #ff7763; stroke: #ff7763"/>
     <use xlink:href="#mb17dff7e8e" x="74.376888" y="90.179564" style="fill: #ff7763; stroke: #ff7763"/>
     <use xlink:href="#mb17dff7e8e" x="79.535593" y="86.785925" style="fill: #ff7763; stroke: #ff7763"/>
     <use xlink:href="#mb17dff7e8e" x="84.694299" y="87.967491" style="fill: #ff7763; stroke: #ff7763"/>
     <use xlink:href="#mb17dff7e8e" x="89.853005" y="231.049877" style="fill: #ff7763; stroke: #ff7763"/>
     <use xlink:href="#mb17dff7e8e" x="95.01171" y="214.121566" style="fill: #ff7763; stroke: #ff7763"/>
     <use xlink:href="#mb17dff7e8e" x="100.170416" y="231.258446" style="fill: #ff7763; stroke: #ff7763"/>
     <use xlink:href="#mb17dff7e8e" x="105.329122" y="81.827739" style="fill: #ff7763; stroke: #ff7763"/>
     <use xlink:href="#mb17dff7e8e" x="110.487827" y="210.457689" style="fill: #ff7763; stroke: #ff7763"/>
     <use xlink:href="#mb17dff7e8e" x="115.646533" y="66.070608" style="fill: #ff7763; stroke: #ff7763"/>
     <use xlink:href="#mb17dff7e8e" x="120.805239" y="73.567388" style="fill: #ff7763; stroke: #ff7763"/>
     <use xlink:href="#mb17dff7e8e" x="125.963945" y="47.101945" style="fill: #ff7763; stroke: #ff7763"/>
     <use xlink:href="#mb17dff7e8e" x="131.12265" y="47.221845" style="fill: #ff7763; stroke: #ff7763"/>
     <use xlink:href="#mb17dff7e8e" x="136.281356" y="46.313436" style="fill: #ff7763; stroke: #ff7763"/>
     <use xlink:href="#mb17dff7e8e" x="141.440062" y="46.868471" style="fill: #ff7763; stroke: #ff7763"/>
     <use xlink:href="#mb17dff7e8e" x="146.598767" y="46.201471" style="fill: #ff7763; stroke: #ff7763"/>
     <use xlink:href="#mb17dff7e8e" x="151.757473" y="46.198106" style="fill: #ff7763; stroke: #ff7763"/>
     <use xlink:href="#mb17dff7e8e" x="156.916179" y="46.027386" style="fill: #ff7763; stroke: #ff7763"/>
     <use xlink:href="#mb17dff7e8e" x="162.074884" y="46.694329" style="fill: #ff7763; stroke: #ff7763"/>
     <use xlink:href="#mb17dff7e8e" x="167.23359" y="46.027386" style="fill: #ff7763; stroke: #ff7763"/>
     <use xlink:href="#mb17dff7e8e" x="172.392296" y="46.024436" style="fill: #ff7763; stroke: #ff7763"/>
     <use xlink:href="#mb17dff7e8e" x="177.551002" y="46.12487" style="fill: #ff7763; stroke: #ff7763"/>
     <use xlink:href="#mb17dff7e8e" x="182.709707" y="46.168707" style="fill: #ff7763; stroke: #ff7763"/>
     <use xlink:href="#mb17dff7e8e" x="187.868413" y="46.168707" style="fill: #ff7763; stroke: #ff7763"/>
     <use xlink:href="#mb17dff7e8e" x="193.027119" y="46.12487" style="fill: #ff7763; stroke: #ff7763"/>
     <use xlink:href="#mb17dff7e8e" x="198.185824" y="46.027386" style="fill: #ff7763; stroke: #ff7763"/>
     <use xlink:href="#mb17dff7e8e" x="203.34453" y="46.024436" style="fill: #ff7763; stroke: #ff7763"/>
     <use xlink:href="#mb17dff7e8e" x="208.503236" y="45.921817" style="fill: #ff7763; stroke: #ff7763"/>
     <use xlink:href="#mb17dff7e8e" x="213.661941" y="45.943817" style="fill: #ff7763; stroke: #ff7763"/>
     <use xlink:href="#mb17dff7e8e" x="218.820647" y="45.943082" style="fill: #ff7763; stroke: #ff7763"/>
     <use xlink:href="#mb17dff7e8e" x="223.979353" y="45.133373" style="fill: #ff7763; stroke: #ff7763"/>
     <use xlink:href="#mb17dff7e8e" x="229.138059" y="45.964783" style="fill: #ff7763; stroke: #ff7763"/>
     <use xlink:href="#mb17dff7e8e" x="234.296764" y="45.964783" style="fill: #ff7763; stroke: #ff7763"/>
     <use xlink:href="#mb17dff7e8e" x="239.45547" y="45.964783" style="fill: #ff7763; stroke: #ff7763"/>
     <use xlink:href="#mb17dff7e8e" x="244.614176" y="45.964783" style="fill: #ff7763; stroke: #ff7763"/>
     <use xlink:href="#mb17dff7e8e" x="249.772881" y="45.964783" style="fill: #ff7763; stroke: #ff7763"/>
     <use xlink:href="#mb17dff7e8e" x="254.931587" y="45.964783" style="fill: #ff7763; stroke: #ff7763"/>
     <use xlink:href="#mb17dff7e8e" x="260.090293" y="45.964783" style="fill: #ff7763; stroke: #ff7763"/>
     <use xlink:href="#mb17dff7e8e" x="265.248998" y="45.964783" style="fill: #ff7763; stroke: #ff7763"/>
     <use xlink:href="#mb17dff7e8e" x="270.407704" y="45.964783" style="fill: #ff7763; stroke: #ff7763"/>
     <use xlink:href="#mb17dff7e8e" x="275.56641" y="45.964783" style="fill: #ff7763; stroke: #ff7763"/>
     <use xlink:href="#mb17dff7e8e" x="280.725116" y="45.964783" style="fill: #ff7763; stroke: #ff7763"/>
     <use xlink:href="#mb17dff7e8e" x="285.883821" y="46.102758" style="fill: #ff7763; stroke: #ff7763"/>
     <use xlink:href="#mb17dff7e8e" x="291.042527" y="46.102758" style="fill: #ff7763; stroke: #ff7763"/>
     <use xlink:href="#mb17dff7e8e" x="296.201233" y="46.102758" style="fill: #ff7763; stroke: #ff7763"/>
     <use xlink:href="#mb17dff7e8e" x="301.359938" y="46.102758" style="fill: #ff7763; stroke: #ff7763"/>
     <use xlink:href="#mb17dff7e8e" x="306.518644" y="46.102758" style="fill: #ff7763; stroke: #ff7763"/>
     <use xlink:href="#mb17dff7e8e" x="311.67735" y="46.102758" style="fill: #ff7763; stroke: #ff7763"/>
     <use xlink:href="#mb17dff7e8e" x="316.836055" y="46.102758" style="fill: #ff7763; stroke: #ff7763"/>
     <use xlink:href="#mb17dff7e8e" x="321.994761" y="46.102758" style="fill: #ff7763; stroke: #ff7763"/>
     <use xlink:href="#mb17dff7e8e" x="327.153467" y="46.102758" style="fill: #ff7763; stroke: #ff7763"/>
     <use xlink:href="#mb17dff7e8e" x="332.312173" y="46.102758" style="fill: #ff7763; stroke: #ff7763"/>
     <use xlink:href="#mb17dff7e8e" x="337.470878" y="46.102758" style="fill: #ff7763; stroke: #ff7763"/>
     <use xlink:href="#mb17dff7e8e" x="342.629584" y="46.102758" style="fill: #ff7763; stroke: #ff7763"/>
     <use xlink:href="#mb17dff7e8e" x="347.78829" y="46.102758" style="fill: #ff7763; stroke: #ff7763"/>
     <use xlink:href="#mb17dff7e8e" x="352.946995" y="46.102758" style="fill: #ff7763; stroke: #ff7763"/>
     <use xlink:href="#mb17dff7e8e" x="358.105701" y="46.102758" style="fill: #ff7763; stroke: #ff7763"/>
     <use xlink:href="#mb17dff7e8e" x="363.264407" y="46.102758" style="fill: #ff7763; stroke: #ff7763"/>
     <use xlink:href="#mb17dff7e8e" x="368.423112" y="46.102758" style="fill: #ff7763; stroke: #ff7763"/>
     <use xlink:href="#mb17dff7e8e" x="373.581818" y="46.102758" style="fill: #ff7763; stroke: #ff7763"/>
    </g>
   </g>
   <g id="patch_3">
    <path d="M 54 252 
L 54 34.56 
" style="fill: none; stroke: #000000; stroke-width: 0.8; stroke-linejoin: miter; stroke-linecap: square"/>
   </g>
   <g id="patch_4">
    <path d="M 388.8 252 
L 388.8 34.56 
" style="fill: none; stroke: #000000; stroke-width: 0.8; stroke-linejoin: miter; stroke-linecap: square"/>
   </g>
   <g id="patch_5">
    <path d="M 54 252 
L 388.8 252 
" style="fill: none; stroke: #000000; stroke-width: 0.8; stroke-linejoin: miter; stroke-linecap: square"/>
   </g>
   <g id="patch_6">
    <path d="M 54 34.56 
L 388.8 34.56 
" style="fill: none; stroke: #000000; stroke-width: 0.8; stroke-linejoin: miter; stroke-linecap: square"/>
   </g>
   <g id="text_17">
    <!-- R-max optimal policy with m = 5 -->
    <g transform="translate(123.0225 28.56)scale(0.12 -0.12)">
     <defs>
      <path id="DejaVuSans-52" d="M 2841 2188 
Q 3044 2119 3236 1894 
Q 3428 1669 3622 1275 
L 4263 0 
L 3584 0 
L 2988 1197 
Q 2756 1666 2539 1819 
Q 2322 1972 1947 1972 
L 1259 1972 
L 1259 0 
L 628 0 
L 628 4666 
L 2053 4666 
Q 2853 4666 3247 4331 
Q 3641 3997 3641 3322 
Q 3641 2881 3436 2590 
Q 3231 2300 2841 2188 
z
M 1259 4147 
L 1259 2491 
L 2053 2491 
Q 2509 2491 2742 2702 
Q 2975 2913 2975 3322 
Q 2975 3731 2742 3939 
Q 2509 4147 2053 4147 
L 1259 4147 
z
" transform="scale(0.015625)"/>
      <path id="DejaVuSans-2d" d="M 313 2009 
L 1997 2009 
L 1997 1497 
L 313 1497 
L 313 2009 
z
" transform="scale(0.015625)"/>
      <path id="DejaVuSans-6d" d="M 3328 2828 
Q 3544 3216 3844 3400 
Q 4144 3584 4550 3584 
Q 5097 3584 5394 3201 
Q 5691 2819 5691 2113 
L 5691 0 
L 5113 0 
L 5113 2094 
Q 5113 2597 4934 2840 
Q 4756 3084 4391 3084 
Q 3944 3084 3684 2787 
Q 3425 2491 3425 1978 
L 3425 0 
L 2847 0 
L 2847 2094 
Q 2847 2600 2669 2842 
Q 2491 3084 2119 3084 
Q 1678 3084 1418 2786 
Q 1159 2488 1159 1978 
L 1159 0 
L 581 0 
L 581 3500 
L 1159 3500 
L 1159 2956 
Q 1356 3278 1631 3431 
Q 1906 3584 2284 3584 
Q 2666 3584 2933 3390 
Q 3200 3197 3328 2828 
z
" transform="scale(0.015625)"/>
      <path id="DejaVuSans-78" d="M 3513 3500 
L 2247 1797 
L 3578 0 
L 2900 0 
L 1881 1375 
L 863 0 
L 184 0 
L 1544 1831 
L 300 3500 
L 978 3500 
L 1906 2253 
L 2834 3500 
L 3513 3500 
z
" transform="scale(0.015625)"/>
      <path id="DejaVuSans-77" d="M 269 3500 
L 844 3500 
L 1563 769 
L 2278 3500 
L 2956 3500 
L 3675 769 
L 4391 3500 
L 4966 3500 
L 4050 0 
L 3372 0 
L 2619 2869 
L 1863 0 
L 1184 0 
L 269 3500 
z
" transform="scale(0.015625)"/>
      <path id="DejaVuSans-68" d="M 3513 2113 
L 3513 0 
L 2938 0 
L 2938 2094 
Q 2938 2591 2744 2837 
Q 2550 3084 2163 3084 
Q 1697 3084 1428 2787 
Q 1159 2491 1159 1978 
L 1159 0 
L 581 0 
L 581 4863 
L 1159 4863 
L 1159 2956 
Q 1366 3272 1645 3428 
Q 1925 3584 2291 3584 
Q 2894 3584 3203 3211 
Q 3513 2838 3513 2113 
z
" transform="scale(0.015625)"/>
      <path id="DejaVuSans-3d" d="M 678 2906 
L 4684 2906 
L 4684 2381 
L 678 2381 
L 678 2906 
z
M 678 1631 
L 4684 1631 
L 4684 1100 
L 678 1100 
L 678 1631 
z
" transform="scale(0.015625)"/>
     </defs>
     <use xlink:href="#DejaVuSans-52"/>
     <use xlink:href="#DejaVuSans-2d" x="65.482422"/>
     <use xlink:href="#DejaVuSans-6d" x="101.566406"/>
     <use xlink:href="#DejaVuSans-61" x="198.978516"/>
     <use xlink:href="#DejaVuSans-78" x="260.257812"/>
     <use xlink:href="#DejaVuSans-20" x="319.4375"/>
     <use xlink:href="#DejaVuSans-6f" x="351.224609"/>
     <use xlink:href="#DejaVuSans-70" x="412.40625"/>
     <use xlink:href="#DejaVuSans-74" x="475.882812"/>
     <use xlink:href="#DejaVuSans-69" x="515.091797"/>
     <use xlink:href="#DejaVuSans-6d" x="542.875"/>
     <use xlink:href="#DejaVuSans-61" x="640.287109"/>
     <use xlink:href="#DejaVuSans-6c" x="701.566406"/>
     <use xlink:href="#DejaVuSans-20" x="729.349609"/>
     <use xlink:href="#DejaVuSans-70" x="761.136719"/>
     <use xlink:href="#DejaVuSans-6f" x="824.613281"/>
     <use xlink:href="#DejaVuSans-6c" x="885.794922"/>
     <use xlink:href="#DejaVuSans-69" x="913.578125"/>
     <use xlink:href="#DejaVuSans-63" x="941.361328"/>
     <use xlink:href="#DejaVuSans-79" x="996.341797"/>
     <use xlink:href="#DejaVuSans-20" x="1055.521484"/>
     <use xlink:href="#DejaVuSans-77" x="1087.308594"/>
     <use xlink:href="#DejaVuSans-69" x="1169.095703"/>
     <use xlink:href="#DejaVuSans-74" x="1196.878906"/>
     <use xlink:href="#DejaVuSans-68" x="1236.087891"/>
     <use xlink:href="#DejaVuSans-20" x="1299.466797"/>
     <use xlink:href="#DejaVuSans-6d" x="1331.253906"/>
     <use xlink:href="#DejaVuSans-20" x="1428.666016"/>
     <use xlink:href="#DejaVuSans-3d" x="1460.453125"/>
     <use xlink:href="#DejaVuSans-20" x="1544.242188"/>
     <use xlink:href="#DejaVuSans-35" x="1576.029297"/>
    </g>
   </g>
   <g id="legend_1">
    <g id="patch_7">
     <path d="M 230.8125 247 
L 381.8 247 
Q 383.8 247 383.8 245 
L 383.8 201.13125 
Q 383.8 199.13125 381.8 199.13125 
L 230.8125 199.13125 
Q 228.8125 199.13125 228.8125 201.13125 
L 228.8125 245 
Q 228.8125 247 230.8125 247 
z
" style="fill: #ffffff; opacity: 0.8; stroke: #cccccc; stroke-linejoin: miter"/>
    </g>
    <g id="line2d_32">
     <path d="M 232.8125 207.229688 
L 242.8125 207.229688 
L 252.8125 207.229688 
" style="fill: none; stroke: #9d02d7; stroke-width: 1.5; stroke-linecap: square"/>
     <g>
      <use xlink:href="#mb769b91a67" x="242.8125" y="207.229688" style="fill: #9d02d7; stroke: #9d02d7; stroke-linejoin: miter"/>
     </g>
    </g>
    <g id="text_18">
     <!-- m_uncertain_states=30 -->
     <g transform="translate(260.8125 210.729688)scale(0.1 -0.1)">
      <defs>
       <path id="DejaVuSans-5f" d="M 3263 -1063 
L 3263 -1509 
L -63 -1509 
L -63 -1063 
L 3263 -1063 
z
" transform="scale(0.015625)"/>
       <path id="DejaVuSans-6e" d="M 3513 2113 
L 3513 0 
L 2938 0 
L 2938 2094 
Q 2938 2591 2744 2837 
Q 2550 3084 2163 3084 
Q 1697 3084 1428 2787 
Q 1159 2491 1159 1978 
L 1159 0 
L 581 0 
L 581 3500 
L 1159 3500 
L 1159 2956 
Q 1366 3272 1645 3428 
Q 1925 3584 2291 3584 
Q 2894 3584 3203 3211 
Q 3513 2838 3513 2113 
z
" transform="scale(0.015625)"/>
      </defs>
      <use xlink:href="#DejaVuSans-6d"/>
      <use xlink:href="#DejaVuSans-5f" x="97.412109"/>
      <use xlink:href="#DejaVuSans-75" x="147.412109"/>
      <use xlink:href="#DejaVuSans-6e" x="210.791016"/>
      <use xlink:href="#DejaVuSans-63" x="274.169922"/>
      <use xlink:href="#DejaVuSans-65" x="329.150391"/>
      <use xlink:href="#DejaVuSans-72" x="390.673828"/>
      <use xlink:href="#DejaVuSans-74" x="431.787109"/>
      <use xlink:href="#DejaVuSans-61" x="470.996094"/>
      <use xlink:href="#DejaVuSans-69" x="532.275391"/>
      <use xlink:href="#DejaVuSans-6e" x="560.058594"/>
      <use xlink:href="#DejaVuSans-5f" x="623.4375"/>
      <use xlink:href="#DejaVuSans-73" x="673.4375"/>
      <use xlink:href="#DejaVuSans-74" x="725.537109"/>
      <use xlink:href="#DejaVuSans-61" x="764.746094"/>
      <use xlink:href="#DejaVuSans-74" x="826.025391"/>
      <use xlink:href="#DejaVuSans-65" x="865.234375"/>
      <use xlink:href="#DejaVuSans-73" x="926.757812"/>
      <use xlink:href="#DejaVuSans-3d" x="978.857422"/>
      <use xlink:href="#DejaVuSans-33" x="1062.646484"/>
      <use xlink:href="#DejaVuSans-30" x="1126.269531"/>
     </g>
    </g>
    <g id="line2d_33">
     <path d="M 232.8125 222.185937 
L 242.8125 222.185937 
L 252.8125 222.185937 
" style="fill: none; stroke: #0000ff; stroke-width: 1.5; stroke-linecap: square"/>
     <g>
      <use xlink:href="#m9d6ffcca26" x="242.8125" y="222.185937" style="fill: #0000ff; stroke: #0000ff"/>
     </g>
    </g>
    <g id="text_19">
     <!-- m_uncertain_states=35 -->
     <g transform="translate(260.8125 225.685937)scale(0.1 -0.1)">
      <use xlink:href="#DejaVuSans-6d"/>
      <use xlink:href="#DejaVuSans-5f" x="97.412109"/>
      <use xlink:href="#DejaVuSans-75" x="147.412109"/>
      <use xlink:href="#DejaVuSans-6e" x="210.791016"/>
      <use xlink:href="#DejaVuSans-63" x="274.169922"/>
      <use xlink:href="#DejaVuSans-65" x="329.150391"/>
      <use xlink:href="#DejaVuSans-72" x="390.673828"/>
      <use xlink:href="#DejaVuSans-74" x="431.787109"/>
      <use xlink:href="#DejaVuSans-61" x="470.996094"/>
      <use xlink:href="#DejaVuSans-69" x="532.275391"/>
      <use xlink:href="#DejaVuSans-6e" x="560.058594"/>
      <use xlink:href="#DejaVuSans-5f" x="623.4375"/>
      <use xlink:href="#DejaVuSans-73" x="673.4375"/>
      <use xlink:href="#DejaVuSans-74" x="725.537109"/>
      <use xlink:href="#DejaVuSans-61" x="764.746094"/>
      <use xlink:href="#DejaVuSans-74" x="826.025391"/>
      <use xlink:href="#DejaVuSans-65" x="865.234375"/>
      <use xlink:href="#DejaVuSans-73" x="926.757812"/>
      <use xlink:href="#DejaVuSans-3d" x="978.857422"/>
      <use xlink:href="#DejaVuSans-33" x="1062.646484"/>
      <use xlink:href="#DejaVuSans-35" x="1126.269531"/>
     </g>
    </g>
    <g id="line2d_34">
     <path d="M 232.8125 237.142188 
L 242.8125 237.142188 
L 252.8125 237.142188 
" style="fill: none; stroke: #ff7763; stroke-width: 1.5; stroke-linecap: square"/>
     <g>
      <use xlink:href="#mb17dff7e8e" x="242.8125" y="237.142188" style="fill: #ff7763; stroke: #ff7763"/>
     </g>
    </g>
    <g id="text_20">
     <!-- m_uncertain_states=40 -->
     <g transform="translate(260.8125 240.642188)scale(0.1 -0.1)">
      <use xlink:href="#DejaVuSans-6d"/>
      <use xlink:href="#DejaVuSans-5f" x="97.412109"/>
      <use xlink:href="#DejaVuSans-75" x="147.412109"/>
      <use xlink:href="#DejaVuSans-6e" x="210.791016"/>
      <use xlink:href="#DejaVuSans-63" x="274.169922"/>
      <use xlink:href="#DejaVuSans-65" x="329.150391"/>
      <use xlink:href="#DejaVuSans-72" x="390.673828"/>
      <use xlink:href="#DejaVuSans-74" x="431.787109"/>
      <use xlink:href="#DejaVuSans-61" x="470.996094"/>
      <use xlink:href="#DejaVuSans-69" x="532.275391"/>
      <use xlink:href="#DejaVuSans-6e" x="560.058594"/>
      <use xlink:href="#DejaVuSans-5f" x="623.4375"/>
      <use xlink:href="#DejaVuSans-73" x="673.4375"/>
      <use xlink:href="#DejaVuSans-74" x="725.537109"/>
      <use xlink:href="#DejaVuSans-61" x="764.746094"/>
      <use xlink:href="#DejaVuSans-74" x="826.025391"/>
      <use xlink:href="#DejaVuSans-65" x="865.234375"/>
      <use xlink:href="#DejaVuSans-73" x="926.757812"/>
      <use xlink:href="#DejaVuSans-3d" x="978.857422"/>
      <use xlink:href="#DejaVuSans-34" x="1062.646484"/>
      <use xlink:href="#DejaVuSans-30" x="1126.269531"/>
     </g>
    </g>
   </g>
  </g>
 </g>
 <defs>
  <clipPath id="pedb111404a">
   <rect x="54" y="34.56" width="334.8" height="217.44"/>
  </clipPath>
 </defs>
</svg>
