<?xml version="1.0" encoding="utf-8" standalone="no"?>
<!DOCTYPE svg PUBLIC "-//W3C//DTD SVG 1.1//EN"
  "http://www.w3.org/Graphics/SVG/1.1/DTD/svg11.dtd">
<svg xmlns:xlink="http://www.w3.org/1999/xlink" width="432pt" height="288pt" viewBox="0 0 432 288" xmlns="http://www.w3.org/2000/svg" version="1.1">
 <metadata>
  <rdf:RDF xmlns:dc="http://purl.org/dc/elements/1.1/" xmlns:cc="http://creativecommons.org/ns#" xmlns:rdf="http://www.w3.org/1999/02/22-rdf-syntax-ns#">
   <cc:Work>
    <dc:type rdf:resource="http://purl.org/dc/dcmitype/StillImage"/>
    <dc:date>2023-01-11T15:36:51.273689</dc:date>
    <dc:format>image/svg+xml</dc:format>
    <dc:creator>
     <cc:Agent>
      <dc:title>Matplotlib v3.5.2, https://matplotlib.org/</dc:title>
     </cc:Agent>
    </dc:creator>
   </cc:Work>
  </rdf:RDF>
 </metadata>
 <defs>
  <style type="text/css">*{stroke-linejoin: round; stroke-linecap: butt}</style>
 </defs>
 <g id="figure_1">
  <g id="patch_1">
   <path d="M 0 288 
L 432 288 
L 432 0 
L 0 0 
z
" style="fill: #ffffff"/>
  </g>
  <g id="axes_1">
   <g id="patch_2">
    <path d="M 54 252 
L 388.8 252 
L 388.8 34.56 
L 54 34.56 
z
" style="fill: #ffffff"/>
   </g>
   <g id="PolyCollection_1">
    <defs>
     <path id="m2667701b88" d="M 69.218182 -33.632774 
L 69.218182 -33.632774 
L 74.376888 -33.871827 
L 79.535593 -78.782982 
L 84.694299 -84.37077 
L 89.853005 -96.868549 
L 95.01171 -88.46226 
L 100.170416 -30.156021 
L 105.329122 -34.453968 
L 110.487827 -33.366435 
L 115.646533 -220.232495 
L 120.805239 -217.545628 
L 125.963945 -200.581474 
L 131.12265 -197.033869 
L 136.281356 -197.342347 
L 141.440062 -197.033869 
L 146.598767 -39.443149 
L 151.757473 -125.909462 
L 156.916179 -59.996955 
L 162.074884 -42.12239 
L 167.23359 -180.941203 
L 172.392296 -232.828771 
L 177.551002 -228.238477 
L 182.709707 -231.188199 
L 187.868413 -185.214634 
L 193.027119 -148.509791 
L 198.185824 -213.989695 
L 203.34453 -175.397113 
L 208.503236 -216.797318 
L 213.661941 -208.31999 
L 218.820647 -198.394124 
L 223.979353 -198.394124 
L 229.138059 -234.467492 
L 234.296764 -234.467492 
L 239.45547 -234.467492 
L 244.614176 -234.467492 
L 249.772881 -234.467492 
L 254.931587 -234.467492 
L 260.090293 -234.467492 
L 265.248998 -234.467492 
L 270.407704 -234.467492 
L 275.56641 -232.561601 
L 280.725116 -232.561601 
L 285.883821 -227.522334 
L 291.042527 -227.522334 
L 296.201233 -233.981492 
L 301.359938 -234.256174 
L 306.518644 -233.981492 
L 311.67735 -234.256174 
L 316.836055 -234.467492 
L 321.994761 -224.287898 
L 327.153467 -229.112751 
L 332.312173 -229.112751 
L 337.470878 -228.729712 
L 342.629584 -228.729712 
L 347.78829 -240.838031 
L 352.946995 -240.838031 
L 358.105701 -235.86688 
L 363.264407 -235.86688 
L 368.423112 -235.832981 
L 373.581818 -175.066674 
L 373.581818 -175.066674 
L 373.581818 -175.066674 
L 368.423112 -235.832981 
L 363.264407 -235.86688 
L 358.105701 -235.86688 
L 352.946995 -240.838031 
L 347.78829 -240.838031 
L 342.629584 -228.729712 
L 337.470878 -228.729712 
L 332.312173 -229.112751 
L 327.153467 -229.112751 
L 321.994761 -224.287898 
L 316.836055 -234.467492 
L 311.67735 -234.256174 
L 306.518644 -233.981492 
L 301.359938 -234.256174 
L 296.201233 -233.981492 
L 291.042527 -227.522334 
L 285.883821 -227.522334 
L 280.725116 -232.561601 
L 275.56641 -232.561601 
L 270.407704 -234.467492 
L 265.248998 -234.467492 
L 260.090293 -234.467492 
L 254.931587 -234.467492 
L 249.772881 -234.467492 
L 244.614176 -234.467492 
L 239.45547 -234.467492 
L 234.296764 -234.467492 
L 229.138059 -234.467492 
L 223.979353 -198.394124 
L 218.820647 -198.394124 
L 213.661941 -208.31999 
L 208.503236 -216.797318 
L 203.34453 -175.397113 
L 198.185824 -213.989695 
L 193.027119 -148.509791 
L 187.868413 -185.214634 
L 182.709707 -231.188199 
L 177.551002 -228.238477 
L 172.392296 -232.828771 
L 167.23359 -180.941203 
L 162.074884 -42.12239 
L 156.916179 -59.996955 
L 151.757473 -125.909462 
L 146.598767 -39.443149 
L 141.440062 -197.033869 
L 136.281356 -197.342347 
L 131.12265 -197.033869 
L 125.963945 -200.581474 
L 120.805239 -217.545628 
L 115.646533 -220.232495 
L 110.487827 -33.366435 
L 105.329122 -34.453968 
L 100.170416 -30.156021 
L 95.01171 -88.46226 
L 89.853005 -96.868549 
L 84.694299 -84.37077 
L 79.535593 -78.782982 
L 74.376888 -33.871827 
L 69.218182 -33.632774 
z
" style="stroke: #9d02d7; stroke-opacity: 0.2"/>
    </defs>
    <g clip-path="url(#p5bfdd855bc)">
     <use xlink:href="#m2667701b88" x="0" y="288" style="fill: #9d02d7; fill-opacity: 0.2; stroke: #9d02d7; stroke-opacity: 0.2"/>
    </g>
   </g>
   <g id="PolyCollection_2">
    <defs>
     <path id="m278b62e766" d="M 69.218182 -40.252913 
L 69.218182 -40.252913 
L 74.376888 -33.806295 
L 79.535593 -36.690458 
L 84.694299 -49.564702 
L 89.853005 -36.959735 
L 95.01171 -54.087739 
L 100.170416 -130.51384 
L 105.329122 -119.971799 
L 110.487827 -200.183739 
L 115.646533 -234.492471 
L 120.805239 -234.492471 
L 125.963945 -198.235404 
L 131.12265 -231.718581 
L 136.281356 -235.400266 
L 141.440062 -236.13448 
L 146.598767 -236.060962 
L 151.757473 -235.626292 
L 156.916179 -221.951881 
L 162.074884 -224.138045 
L 167.23359 -223.169732 
L 172.392296 -202.822557 
L 177.551002 -223.169732 
L 182.709707 -230.422451 
L 187.868413 -192.559452 
L 193.027119 -205.658874 
L 198.185824 -202.822557 
L 203.34453 -197.145807 
L 208.503236 -200.159412 
L 213.661941 -212.082883 
L 218.820647 -185.021087 
L 223.979353 -185.021087 
L 229.138059 -220.993647 
L 234.296764 -234.870628 
L 239.45547 -234.870628 
L 244.614176 -225.379272 
L 249.772881 -225.379272 
L 254.931587 -223.745845 
L 260.090293 -223.745845 
L 265.248998 -223.745845 
L 270.407704 -226.083605 
L 275.56641 -227.094775 
L 280.725116 -227.094775 
L 285.883821 -227.094775 
L 291.042527 -227.094775 
L 296.201233 -232.456926 
L 301.359938 -232.456926 
L 306.518644 -232.456926 
L 311.67735 -227.094775 
L 316.836055 -232.640459 
L 321.994761 -232.640459 
L 327.153467 -232.640459 
L 332.312173 -232.640459 
L 337.470878 -232.456926 
L 342.629584 -232.456926 
L 347.78829 -232.456926 
L 352.946995 -232.640459 
L 358.105701 -213.623977 
L 363.264407 -213.623977 
L 368.423112 -232.640459 
L 373.581818 -232.640459 
L 373.581818 -232.640459 
L 373.581818 -232.640459 
L 368.423112 -232.640459 
L 363.264407 -213.623977 
L 358.105701 -213.623977 
L 352.946995 -232.640459 
L 347.78829 -232.456926 
L 342.629584 -232.456926 
L 337.470878 -232.456926 
L 332.312173 -232.640459 
L 327.153467 -232.640459 
L 321.994761 -232.640459 
L 316.836055 -232.640459 
L 311.67735 -227.094775 
L 306.518644 -232.456926 
L 301.359938 -232.456926 
L 296.201233 -232.456926 
L 291.042527 -227.094775 
L 285.883821 -227.094775 
L 280.725116 -227.094775 
L 275.56641 -227.094775 
L 270.407704 -226.083605 
L 265.248998 -223.745845 
L 260.090293 -223.745845 
L 254.931587 -223.745845 
L 249.772881 -225.379272 
L 244.614176 -225.379272 
L 239.45547 -234.870628 
L 234.296764 -234.870628 
L 229.138059 -220.993647 
L 223.979353 -185.021087 
L 218.820647 -185.021087 
L 213.661941 -212.082883 
L 208.503236 -200.159412 
L 203.34453 -197.145807 
L 198.185824 -202.822557 
L 193.027119 -205.658874 
L 187.868413 -192.559452 
L 182.709707 -230.422451 
L 177.551002 -223.169732 
L 172.392296 -202.822557 
L 167.23359 -223.169732 
L 162.074884 -224.138045 
L 156.916179 -221.951881 
L 151.757473 -235.626292 
L 146.598767 -236.060962 
L 141.440062 -236.13448 
L 136.281356 -235.400266 
L 131.12265 -231.718581 
L 125.963945 -198.235404 
L 120.805239 -234.492471 
L 115.646533 -234.492471 
L 110.487827 -200.183739 
L 105.329122 -119.971799 
L 100.170416 -130.51384 
L 95.01171 -54.087739 
L 89.853005 -36.959735 
L 84.694299 -49.564702 
L 79.535593 -36.690458 
L 74.376888 -33.806295 
L 69.218182 -40.252913 
z
" style="stroke: #0000ff; stroke-opacity: 0.2"/>
    </defs>
    <g clip-path="url(#p5bfdd855bc)">
     <use xlink:href="#m278b62e766" x="0" y="288" style="fill: #0000ff; fill-opacity: 0.2; stroke: #0000ff; stroke-opacity: 0.2"/>
    </g>
   </g>
   <g id="PolyCollection_3">
    <defs>
     <path id="m58e2b64290" d="M 69.218182 -35.091182 
L 69.218182 -35.091182 
L 74.376888 -211.79266 
L 79.535593 -211.762877 
L 84.694299 -178.689405 
L 89.853005 -214.804768 
L 95.01171 -214.718593 
L 100.170416 -214.837399 
L 105.329122 -214.661203 
L 110.487827 -214.881002 
L 115.646533 -214.727315 
L 120.805239 -214.789726 
L 125.963945 -214.789968 
L 131.12265 -214.671672 
L 136.281356 -214.890703 
L 141.440062 -214.659935 
L 146.598767 -214.875989 
L 151.757473 -214.650745 
L 156.916179 -214.831865 
L 162.074884 -214.866708 
L 167.23359 -214.489742 
L 172.392296 -214.880978 
L 177.551002 -214.580088 
L 182.709707 -214.583877 
L 187.868413 -214.725334 
L 193.027119 -214.73116 
L 198.185824 -214.759963 
L 203.34453 -214.669536 
L 208.503236 -214.878388 
L 213.661941 -214.796215 
L 218.820647 -214.857034 
L 223.979353 -214.824175 
L 229.138059 -214.731134 
L 234.296764 -214.735852 
L 239.45547 -214.866463 
L 244.614176 -214.832841 
L 249.772881 -214.856989 
L 254.931587 -214.486498 
L 260.090293 -214.831872 
L 265.248998 -214.799872 
L 270.407704 -214.536486 
L 275.56641 -214.636891 
L 280.725116 -214.817169 
L 285.883821 -214.735617 
L 291.042527 -214.797157 
L 296.201233 -214.895333 
L 301.359938 -214.726057 
L 306.518644 -214.755846 
L 311.67735 -214.816634 
L 316.836055 -214.726814 
L 321.994761 -214.749584 
L 327.153467 -214.718489 
L 332.312173 -214.776373 
L 337.470878 -178.668408 
L 342.629584 -151.746489 
L 347.78829 -214.872651 
L 352.946995 -214.790683 
L 358.105701 -214.613607 
L 363.264407 -214.827808 
L 368.423112 -214.760682 
L 373.581818 -214.509012 
L 373.581818 -214.509012 
L 373.581818 -214.509012 
L 368.423112 -214.760682 
L 363.264407 -214.827808 
L 358.105701 -214.613607 
L 352.946995 -214.790683 
L 347.78829 -214.872651 
L 342.629584 -151.746489 
L 337.470878 -178.668408 
L 332.312173 -214.776373 
L 327.153467 -214.718489 
L 321.994761 -214.749584 
L 316.836055 -214.726814 
L 311.67735 -214.816634 
L 306.518644 -214.755846 
L 301.359938 -214.726057 
L 296.201233 -214.895333 
L 291.042527 -214.797157 
L 285.883821 -214.735617 
L 280.725116 -214.817169 
L 275.56641 -214.636891 
L 270.407704 -214.536486 
L 265.248998 -214.799872 
L 260.090293 -214.831872 
L 254.931587 -214.486498 
L 249.772881 -214.856989 
L 244.614176 -214.832841 
L 239.45547 -214.866463 
L 234.296764 -214.735852 
L 229.138059 -214.731134 
L 223.979353 -214.824175 
L 218.820647 -214.857034 
L 213.661941 -214.796215 
L 208.503236 -214.878388 
L 203.34453 -214.669536 
L 198.185824 -214.759963 
L 193.027119 -214.73116 
L 187.868413 -214.725334 
L 182.709707 -214.583877 
L 177.551002 -214.580088 
L 172.392296 -214.880978 
L 167.23359 -214.489742 
L 162.074884 -214.866708 
L 156.916179 -214.831865 
L 151.757473 -214.650745 
L 146.598767 -214.875989 
L 141.440062 -214.659935 
L 136.281356 -214.890703 
L 131.12265 -214.671672 
L 125.963945 -214.789968 
L 120.805239 -214.789726 
L 115.646533 -214.727315 
L 110.487827 -214.881002 
L 105.329122 -214.661203 
L 100.170416 -214.837399 
L 95.01171 -214.718593 
L 89.853005 -214.804768 
L 84.694299 -178.689405 
L 79.535593 -211.762877 
L 74.376888 -211.79266 
L 69.218182 -35.091182 
z
" style="stroke: #ff7763; stroke-opacity: 0.2"/>
    </defs>
    <g clip-path="url(#p5bfdd855bc)">
     <use xlink:href="#m58e2b64290" x="0" y="288" style="fill: #ff7763; fill-opacity: 0.2; stroke: #ff7763; stroke-opacity: 0.2"/>
    </g>
   </g>
   <g id="PolyCollection_4">
    <defs>
     <path id="m896f8957d5" d="M 69.218182 -35.077868 
L 69.218182 -35.077868 
L 74.376888 -32.672242 
L 79.535593 -30.079595 
L 84.694299 -128.226301 
L 89.853005 -154.079174 
L 95.01171 -154.079174 
L 100.170416 -154.079174 
L 105.329122 -139.548474 
L 110.487827 -158.970062 
L 115.646533 -158.970062 
L 120.805239 -137.136587 
L 125.963945 -137.136587 
L 131.12265 -158.970062 
L 136.281356 -171.66397 
L 141.440062 -150.351238 
L 146.598767 -149.567961 
L 151.757473 -167.426236 
L 156.916179 -160.377565 
L 162.074884 -163.473496 
L 167.23359 -169.238902 
L 172.392296 -170.447574 
L 177.551002 -167.426236 
L 182.709707 -169.116729 
L 187.868413 -167.678249 
L 193.027119 -167.678249 
L 198.185824 -171.103756 
L 203.34453 -171.103756 
L 208.503236 -169.116729 
L 213.661941 -169.116729 
L 218.820647 -171.103756 
L 223.979353 -171.103756 
L 229.138059 -171.66397 
L 234.296764 -171.66397 
L 239.45547 -166.17157 
L 244.614176 -171.66397 
L 249.772881 -171.66397 
L 254.931587 -171.66397 
L 260.090293 -171.66397 
L 265.248998 -171.66397 
L 270.407704 -171.66397 
L 275.56641 -169.238902 
L 280.725116 -171.66397 
L 285.883821 -171.66397 
L 291.042527 -171.66397 
L 296.201233 -171.66397 
L 301.359938 -171.66397 
L 306.518644 -171.66397 
L 311.67735 -170.191877 
L 316.836055 -170.191877 
L 321.994761 -170.191877 
L 327.153467 -170.191877 
L 332.312173 -169.116729 
L 337.470878 -170.191877 
L 342.629584 -170.191877 
L 347.78829 -170.191877 
L 352.946995 -170.191877 
L 358.105701 -140.698139 
L 363.264407 -171.66397 
L 368.423112 -171.66397 
L 373.581818 -148.626306 
L 373.581818 -148.626306 
L 373.581818 -148.626306 
L 368.423112 -171.66397 
L 363.264407 -171.66397 
L 358.105701 -140.698139 
L 352.946995 -170.191877 
L 347.78829 -170.191877 
L 342.629584 -170.191877 
L 337.470878 -170.191877 
L 332.312173 -169.116729 
L 327.153467 -170.191877 
L 321.994761 -170.191877 
L 316.836055 -170.191877 
L 311.67735 -170.191877 
L 306.518644 -171.66397 
L 301.359938 -171.66397 
L 296.201233 -171.66397 
L 291.042527 -171.66397 
L 285.883821 -171.66397 
L 280.725116 -171.66397 
L 275.56641 -169.238902 
L 270.407704 -171.66397 
L 265.248998 -171.66397 
L 260.090293 -171.66397 
L 254.931587 -171.66397 
L 249.772881 -171.66397 
L 244.614176 -171.66397 
L 239.45547 -166.17157 
L 234.296764 -171.66397 
L 229.138059 -171.66397 
L 223.979353 -171.103756 
L 218.820647 -171.103756 
L 213.661941 -169.116729 
L 208.503236 -169.116729 
L 203.34453 -171.103756 
L 198.185824 -171.103756 
L 193.027119 -167.678249 
L 187.868413 -167.678249 
L 182.709707 -169.116729 
L 177.551002 -167.426236 
L 172.392296 -170.447574 
L 167.23359 -169.238902 
L 162.074884 -163.473496 
L 156.916179 -160.377565 
L 151.757473 -167.426236 
L 146.598767 -149.567961 
L 141.440062 -150.351238 
L 136.281356 -171.66397 
L 131.12265 -158.970062 
L 125.963945 -137.136587 
L 120.805239 -137.136587 
L 115.646533 -158.970062 
L 110.487827 -158.970062 
L 105.329122 -139.548474 
L 100.170416 -154.079174 
L 95.01171 -154.079174 
L 89.853005 -154.079174 
L 84.694299 -128.226301 
L 79.535593 -30.079595 
L 74.376888 -32.672242 
L 69.218182 -35.077868 
z
" style="stroke: #ffac1e; stroke-opacity: 0.2"/>
    </defs>
    <g clip-path="url(#p5bfdd855bc)">
     <use xlink:href="#m896f8957d5" x="0" y="288" style="fill: #ffac1e; fill-opacity: 0.2; stroke: #ffac1e; stroke-opacity: 0.2"/>
    </g>
   </g>
   <g id="PolyCollection_5">
    <defs>
     <path id="m853870a977" d="M 69.218182 -31.996415 
L 69.218182 -31.996415 
L 74.376888 -60.442407 
L 79.535593 -73.710767 
L 84.694299 -115.348978 
L 89.853005 -103.982734 
L 95.01171 -99.08016 
L 100.170416 -100.338477 
L 105.329122 -99.08016 
L 110.487827 -100.334994 
L 115.646533 -99.08016 
L 120.805239 -100.334994 
L 125.963945 -100.691431 
L 131.12265 -100.334994 
L 136.281356 -100.334994 
L 141.440062 -103.156698 
L 146.598767 -103.156698 
L 151.757473 -103.156698 
L 156.916179 -103.156698 
L 162.074884 -103.156698 
L 167.23359 -103.156698 
L 172.392296 -103.156698 
L 177.551002 -103.156698 
L 182.709707 -103.156698 
L 187.868413 -103.156698 
L 193.027119 -103.156698 
L 198.185824 -103.156698 
L 203.34453 -42.961362 
L 208.503236 -40.876911 
L 213.661941 -57.891346 
L 218.820647 -43.058578 
L 223.979353 -94.378448 
L 229.138059 -92.379261 
L 234.296764 -92.379261 
L 239.45547 -92.206705 
L 244.614176 -122.798231 
L 249.772881 -125.766984 
L 254.931587 -125.766984 
L 260.090293 -125.766984 
L 265.248998 -121.941188 
L 270.407704 -118.972598 
L 275.56641 -124.096026 
L 280.725116 -124.096026 
L 285.883821 -122.579632 
L 291.042527 -128.230298 
L 296.201233 -128.230298 
L 301.359938 -128.230298 
L 306.518644 -126.918645 
L 311.67735 -127.659727 
L 316.836055 -126.35456 
L 321.994761 -126.35456 
L 327.153467 -127.659727 
L 332.312173 -127.659727 
L 337.470878 -126.35456 
L 342.629584 -126.35456 
L 347.78829 -126.35456 
L 352.946995 -126.35456 
L 358.105701 -120.209335 
L 363.264407 -126.35456 
L 368.423112 -127.659727 
L 373.581818 -127.659727 
L 373.581818 -127.659727 
L 373.581818 -127.659727 
L 368.423112 -127.659727 
L 363.264407 -126.35456 
L 358.105701 -120.209335 
L 352.946995 -126.35456 
L 347.78829 -126.35456 
L 342.629584 -126.35456 
L 337.470878 -126.35456 
L 332.312173 -127.659727 
L 327.153467 -127.659727 
L 321.994761 -126.35456 
L 316.836055 -126.35456 
L 311.67735 -127.659727 
L 306.518644 -126.918645 
L 301.359938 -128.230298 
L 296.201233 -128.230298 
L 291.042527 -128.230298 
L 285.883821 -122.579632 
L 280.725116 -124.096026 
L 275.56641 -124.096026 
L 270.407704 -118.972598 
L 265.248998 -121.941188 
L 260.090293 -125.766984 
L 254.931587 -125.766984 
L 249.772881 -125.766984 
L 244.614176 -122.798231 
L 239.45547 -92.206705 
L 234.296764 -92.379261 
L 229.138059 -92.379261 
L 223.979353 -94.378448 
L 218.820647 -43.058578 
L 213.661941 -57.891346 
L 208.503236 -40.876911 
L 203.34453 -42.961362 
L 198.185824 -103.156698 
L 193.027119 -103.156698 
L 187.868413 -103.156698 
L 182.709707 -103.156698 
L 177.551002 -103.156698 
L 172.392296 -103.156698 
L 167.23359 -103.156698 
L 162.074884 -103.156698 
L 156.916179 -103.156698 
L 151.757473 -103.156698 
L 146.598767 -103.156698 
L 141.440062 -103.156698 
L 136.281356 -100.334994 
L 131.12265 -100.334994 
L 125.963945 -100.691431 
L 120.805239 -100.334994 
L 115.646533 -99.08016 
L 110.487827 -100.334994 
L 105.329122 -99.08016 
L 100.170416 -100.338477 
L 95.01171 -99.08016 
L 89.853005 -103.982734 
L 84.694299 -115.348978 
L 79.535593 -73.710767 
L 74.376888 -60.442407 
L 69.218182 -31.996415 
z
" style="stroke: #009435; stroke-opacity: 0.2"/>
    </defs>
    <g clip-path="url(#p5bfdd855bc)">
     <use xlink:href="#m853870a977" x="0" y="288" style="fill: #009435; fill-opacity: 0.2; stroke: #009435; stroke-opacity: 0.2"/>
    </g>
   </g>
   <g id="matplotlib.axis_1">
    <g id="xtick_1">
     <g id="line2d_1">
      <path d="M 69.218182 252 
L 69.218182 34.56 
" clip-path="url(#p5bfdd855bc)" style="fill: none; stroke-dasharray: 2.96,1.28; stroke-dashoffset: 0; stroke: #b0b0b0; stroke-width: 0.8"/>
     </g>
     <g id="line2d_2">
      <defs>
       <path id="m4865049e40" d="M 0 0 
L 0 3.5 
" style="stroke: #000000; stroke-width: 0.8"/>
      </defs>
      <g>
       <use xlink:href="#m4865049e40" x="69.218182" y="252" style="stroke: #000000; stroke-width: 0.8"/>
      </g>
     </g>
     <g id="text_1">
      <!-- 0 -->
      <g transform="translate(66.036932 266.598437)scale(0.1 -0.1)">
       <defs>
        <path id="DejaVuSans-30" d="M 2034 4250 
Q 1547 4250 1301 3770 
Q 1056 3291 1056 2328 
Q 1056 1369 1301 889 
Q 1547 409 2034 409 
Q 2525 409 2770 889 
Q 3016 1369 3016 2328 
Q 3016 3291 2770 3770 
Q 2525 4250 2034 4250 
z
M 2034 4750 
Q 2819 4750 3233 4129 
Q 3647 3509 3647 2328 
Q 3647 1150 3233 529 
Q 2819 -91 2034 -91 
Q 1250 -91 836 529 
Q 422 1150 422 2328 
Q 422 3509 836 4129 
Q 1250 4750 2034 4750 
z
" transform="scale(0.015625)"/>
       </defs>
       <use xlink:href="#DejaVuSans-30"/>
      </g>
     </g>
    </g>
    <g id="xtick_2">
     <g id="line2d_3">
      <path d="M 120.805239 252 
L 120.805239 34.56 
" clip-path="url(#p5bfdd855bc)" style="fill: none; stroke-dasharray: 2.96,1.28; stroke-dashoffset: 0; stroke: #b0b0b0; stroke-width: 0.8"/>
     </g>
     <g id="line2d_4">
      <g>
       <use xlink:href="#m4865049e40" x="120.805239" y="252" style="stroke: #000000; stroke-width: 0.8"/>
      </g>
     </g>
     <g id="text_2">
      <!-- 500 -->
      <g transform="translate(111.261489 266.598437)scale(0.1 -0.1)">
       <defs>
        <path id="DejaVuSans-35" d="M 691 4666 
L 3169 4666 
L 3169 4134 
L 1269 4134 
L 1269 2991 
Q 1406 3038 1543 3061 
Q 1681 3084 1819 3084 
Q 2600 3084 3056 2656 
Q 3513 2228 3513 1497 
Q 3513 744 3044 326 
Q 2575 -91 1722 -91 
Q 1428 -91 1123 -41 
Q 819 9 494 109 
L 494 744 
Q 775 591 1075 516 
Q 1375 441 1709 441 
Q 2250 441 2565 725 
Q 2881 1009 2881 1497 
Q 2881 1984 2565 2268 
Q 2250 2553 1709 2553 
Q 1456 2553 1204 2497 
Q 953 2441 691 2322 
L 691 4666 
z
" transform="scale(0.015625)"/>
       </defs>
       <use xlink:href="#DejaVuSans-35"/>
       <use xlink:href="#DejaVuSans-30" x="63.623047"/>
       <use xlink:href="#DejaVuSans-30" x="127.246094"/>
      </g>
     </g>
    </g>
    <g id="xtick_3">
     <g id="line2d_5">
      <path d="M 172.392296 252 
L 172.392296 34.56 
" clip-path="url(#p5bfdd855bc)" style="fill: none; stroke-dasharray: 2.96,1.28; stroke-dashoffset: 0; stroke: #b0b0b0; stroke-width: 0.8"/>
     </g>
     <g id="line2d_6">
      <g>
       <use xlink:href="#m4865049e40" x="172.392296" y="252" style="stroke: #000000; stroke-width: 0.8"/>
      </g>
     </g>
     <g id="text_3">
      <!-- 1000 -->
      <g transform="translate(159.667296 266.598437)scale(0.1 -0.1)">
       <defs>
        <path id="DejaVuSans-31" d="M 794 531 
L 1825 531 
L 1825 4091 
L 703 3866 
L 703 4441 
L 1819 4666 
L 2450 4666 
L 2450 531 
L 3481 531 
L 3481 0 
L 794 0 
L 794 531 
z
" transform="scale(0.015625)"/>
       </defs>
       <use xlink:href="#DejaVuSans-31"/>
       <use xlink:href="#DejaVuSans-30" x="63.623047"/>
       <use xlink:href="#DejaVuSans-30" x="127.246094"/>
       <use xlink:href="#DejaVuSans-30" x="190.869141"/>
      </g>
     </g>
    </g>
    <g id="xtick_4">
     <g id="line2d_7">
      <path d="M 223.979353 252 
L 223.979353 34.56 
" clip-path="url(#p5bfdd855bc)" style="fill: none; stroke-dasharray: 2.96,1.28; stroke-dashoffset: 0; stroke: #b0b0b0; stroke-width: 0.8"/>
     </g>
     <g id="line2d_8">
      <g>
       <use xlink:href="#m4865049e40" x="223.979353" y="252" style="stroke: #000000; stroke-width: 0.8"/>
      </g>
     </g>
     <g id="text_4">
      <!-- 1500 -->
      <g transform="translate(211.254353 266.598437)scale(0.1 -0.1)">
       <use xlink:href="#DejaVuSans-31"/>
       <use xlink:href="#DejaVuSans-35" x="63.623047"/>
       <use xlink:href="#DejaVuSans-30" x="127.246094"/>
       <use xlink:href="#DejaVuSans-30" x="190.869141"/>
      </g>
     </g>
    </g>
    <g id="xtick_5">
     <g id="line2d_9">
      <path d="M 275.56641 252 
L 275.56641 34.56 
" clip-path="url(#p5bfdd855bc)" style="fill: none; stroke-dasharray: 2.96,1.28; stroke-dashoffset: 0; stroke: #b0b0b0; stroke-width: 0.8"/>
     </g>
     <g id="line2d_10">
      <g>
       <use xlink:href="#m4865049e40" x="275.56641" y="252" style="stroke: #000000; stroke-width: 0.8"/>
      </g>
     </g>
     <g id="text_5">
      <!-- 2000 -->
      <g transform="translate(262.84141 266.598437)scale(0.1 -0.1)">
       <defs>
        <path id="DejaVuSans-32" d="M 1228 531 
L 3431 531 
L 3431 0 
L 469 0 
L 469 531 
Q 828 903 1448 1529 
Q 2069 2156 2228 2338 
Q 2531 2678 2651 2914 
Q 2772 3150 2772 3378 
Q 2772 3750 2511 3984 
Q 2250 4219 1831 4219 
Q 1534 4219 1204 4116 
Q 875 4013 500 3803 
L 500 4441 
Q 881 4594 1212 4672 
Q 1544 4750 1819 4750 
Q 2544 4750 2975 4387 
Q 3406 4025 3406 3419 
Q 3406 3131 3298 2873 
Q 3191 2616 2906 2266 
Q 2828 2175 2409 1742 
Q 1991 1309 1228 531 
z
" transform="scale(0.015625)"/>
       </defs>
       <use xlink:href="#DejaVuSans-32"/>
       <use xlink:href="#DejaVuSans-30" x="63.623047"/>
       <use xlink:href="#DejaVuSans-30" x="127.246094"/>
       <use xlink:href="#DejaVuSans-30" x="190.869141"/>
      </g>
     </g>
    </g>
    <g id="xtick_6">
     <g id="line2d_11">
      <path d="M 327.153467 252 
L 327.153467 34.56 
" clip-path="url(#p5bfdd855bc)" style="fill: none; stroke-dasharray: 2.96,1.28; stroke-dashoffset: 0; stroke: #b0b0b0; stroke-width: 0.8"/>
     </g>
     <g id="line2d_12">
      <g>
       <use xlink:href="#m4865049e40" x="327.153467" y="252" style="stroke: #000000; stroke-width: 0.8"/>
      </g>
     </g>
     <g id="text_6">
      <!-- 2500 -->
      <g transform="translate(314.428467 266.598437)scale(0.1 -0.1)">
       <use xlink:href="#DejaVuSans-32"/>
       <use xlink:href="#DejaVuSans-35" x="63.623047"/>
       <use xlink:href="#DejaVuSans-30" x="127.246094"/>
       <use xlink:href="#DejaVuSans-30" x="190.869141"/>
      </g>
     </g>
    </g>
    <g id="xtick_7">
     <g id="line2d_13">
      <path d="M 378.740524 252 
L 378.740524 34.56 
" clip-path="url(#p5bfdd855bc)" style="fill: none; stroke-dasharray: 2.96,1.28; stroke-dashoffset: 0; stroke: #b0b0b0; stroke-width: 0.8"/>
     </g>
     <g id="line2d_14">
      <g>
       <use xlink:href="#m4865049e40" x="378.740524" y="252" style="stroke: #000000; stroke-width: 0.8"/>
      </g>
     </g>
     <g id="text_7">
      <!-- 3000 -->
      <g transform="translate(366.015524 266.598437)scale(0.1 -0.1)">
       <defs>
        <path id="DejaVuSans-33" d="M 2597 2516 
Q 3050 2419 3304 2112 
Q 3559 1806 3559 1356 
Q 3559 666 3084 287 
Q 2609 -91 1734 -91 
Q 1441 -91 1130 -33 
Q 819 25 488 141 
L 488 750 
Q 750 597 1062 519 
Q 1375 441 1716 441 
Q 2309 441 2620 675 
Q 2931 909 2931 1356 
Q 2931 1769 2642 2001 
Q 2353 2234 1838 2234 
L 1294 2234 
L 1294 2753 
L 1863 2753 
Q 2328 2753 2575 2939 
Q 2822 3125 2822 3475 
Q 2822 3834 2567 4026 
Q 2313 4219 1838 4219 
Q 1578 4219 1281 4162 
Q 984 4106 628 3988 
L 628 4550 
Q 988 4650 1302 4700 
Q 1616 4750 1894 4750 
Q 2613 4750 3031 4423 
Q 3450 4097 3450 3541 
Q 3450 3153 3228 2886 
Q 3006 2619 2597 2516 
z
" transform="scale(0.015625)"/>
       </defs>
       <use xlink:href="#DejaVuSans-33"/>
       <use xlink:href="#DejaVuSans-30" x="63.623047"/>
       <use xlink:href="#DejaVuSans-30" x="127.246094"/>
       <use xlink:href="#DejaVuSans-30" x="190.869141"/>
      </g>
     </g>
    </g>
    <g id="text_8">
     <!-- Steps -->
     <g transform="translate(207.410156 280.276563)scale(0.1 -0.1)">
      <defs>
       <path id="DejaVuSans-53" d="M 3425 4513 
L 3425 3897 
Q 3066 4069 2747 4153 
Q 2428 4238 2131 4238 
Q 1616 4238 1336 4038 
Q 1056 3838 1056 3469 
Q 1056 3159 1242 3001 
Q 1428 2844 1947 2747 
L 2328 2669 
Q 3034 2534 3370 2195 
Q 3706 1856 3706 1288 
Q 3706 609 3251 259 
Q 2797 -91 1919 -91 
Q 1588 -91 1214 -16 
Q 841 59 441 206 
L 441 856 
Q 825 641 1194 531 
Q 1563 422 1919 422 
Q 2459 422 2753 634 
Q 3047 847 3047 1241 
Q 3047 1584 2836 1778 
Q 2625 1972 2144 2069 
L 1759 2144 
Q 1053 2284 737 2584 
Q 422 2884 422 3419 
Q 422 4038 858 4394 
Q 1294 4750 2059 4750 
Q 2388 4750 2728 4690 
Q 3069 4631 3425 4513 
z
" transform="scale(0.015625)"/>
       <path id="DejaVuSans-74" d="M 1172 4494 
L 1172 3500 
L 2356 3500 
L 2356 3053 
L 1172 3053 
L 1172 1153 
Q 1172 725 1289 603 
Q 1406 481 1766 481 
L 2356 481 
L 2356 0 
L 1766 0 
Q 1100 0 847 248 
Q 594 497 594 1153 
L 594 3053 
L 172 3053 
L 172 3500 
L 594 3500 
L 594 4494 
L 1172 4494 
z
" transform="scale(0.015625)"/>
       <path id="DejaVuSans-65" d="M 3597 1894 
L 3597 1613 
L 953 1613 
Q 991 1019 1311 708 
Q 1631 397 2203 397 
Q 2534 397 2845 478 
Q 3156 559 3463 722 
L 3463 178 
Q 3153 47 2828 -22 
Q 2503 -91 2169 -91 
Q 1331 -91 842 396 
Q 353 884 353 1716 
Q 353 2575 817 3079 
Q 1281 3584 2069 3584 
Q 2775 3584 3186 3129 
Q 3597 2675 3597 1894 
z
M 3022 2063 
Q 3016 2534 2758 2815 
Q 2500 3097 2075 3097 
Q 1594 3097 1305 2825 
Q 1016 2553 972 2059 
L 3022 2063 
z
" transform="scale(0.015625)"/>
       <path id="DejaVuSans-70" d="M 1159 525 
L 1159 -1331 
L 581 -1331 
L 581 3500 
L 1159 3500 
L 1159 2969 
Q 1341 3281 1617 3432 
Q 1894 3584 2278 3584 
Q 2916 3584 3314 3078 
Q 3713 2572 3713 1747 
Q 3713 922 3314 415 
Q 2916 -91 2278 -91 
Q 1894 -91 1617 61 
Q 1341 213 1159 525 
z
M 3116 1747 
Q 3116 2381 2855 2742 
Q 2594 3103 2138 3103 
Q 1681 3103 1420 2742 
Q 1159 2381 1159 1747 
Q 1159 1113 1420 752 
Q 1681 391 2138 391 
Q 2594 391 2855 752 
Q 3116 1113 3116 1747 
z
" transform="scale(0.015625)"/>
       <path id="DejaVuSans-73" d="M 2834 3397 
L 2834 2853 
Q 2591 2978 2328 3040 
Q 2066 3103 1784 3103 
Q 1356 3103 1142 2972 
Q 928 2841 928 2578 
Q 928 2378 1081 2264 
Q 1234 2150 1697 2047 
L 1894 2003 
Q 2506 1872 2764 1633 
Q 3022 1394 3022 966 
Q 3022 478 2636 193 
Q 2250 -91 1575 -91 
Q 1294 -91 989 -36 
Q 684 19 347 128 
L 347 722 
Q 666 556 975 473 
Q 1284 391 1588 391 
Q 1994 391 2212 530 
Q 2431 669 2431 922 
Q 2431 1156 2273 1281 
Q 2116 1406 1581 1522 
L 1381 1569 
Q 847 1681 609 1914 
Q 372 2147 372 2553 
Q 372 3047 722 3315 
Q 1072 3584 1716 3584 
Q 2034 3584 2315 3537 
Q 2597 3491 2834 3397 
z
" transform="scale(0.015625)"/>
      </defs>
      <use xlink:href="#DejaVuSans-53"/>
      <use xlink:href="#DejaVuSans-74" x="63.476562"/>
      <use xlink:href="#DejaVuSans-65" x="102.685547"/>
      <use xlink:href="#DejaVuSans-70" x="164.208984"/>
      <use xlink:href="#DejaVuSans-73" x="227.685547"/>
     </g>
    </g>
   </g>
   <g id="matplotlib.axis_2">
    <g id="ytick_1">
     <g id="line2d_15">
      <path d="M 54 243.636923 
L 388.8 243.636923 
" clip-path="url(#p5bfdd855bc)" style="fill: none; stroke-dasharray: 2.96,1.28; stroke-dashoffset: 0; stroke: #b0b0b0; stroke-width: 0.8"/>
     </g>
     <g id="line2d_16">
      <defs>
       <path id="m3faf187186" d="M 0 0 
L -3.5 0 
" style="stroke: #000000; stroke-width: 0.8"/>
      </defs>
      <g>
       <use xlink:href="#m3faf187186" x="54" y="243.636923" style="stroke: #000000; stroke-width: 0.8"/>
      </g>
     </g>
     <g id="text_9">
      <!-- −12 -->
      <g transform="translate(25.895312 247.436142)scale(0.1 -0.1)">
       <defs>
        <path id="DejaVuSans-2212" d="M 678 2272 
L 4684 2272 
L 4684 1741 
L 678 1741 
L 678 2272 
z
" transform="scale(0.015625)"/>
       </defs>
       <use xlink:href="#DejaVuSans-2212"/>
       <use xlink:href="#DejaVuSans-31" x="83.789062"/>
       <use xlink:href="#DejaVuSans-32" x="147.412109"/>
      </g>
     </g>
    </g>
    <g id="ytick_2">
     <g id="line2d_17">
      <path d="M 54 210.184615 
L 388.8 210.184615 
" clip-path="url(#p5bfdd855bc)" style="fill: none; stroke-dasharray: 2.96,1.28; stroke-dashoffset: 0; stroke: #b0b0b0; stroke-width: 0.8"/>
     </g>
     <g id="line2d_18">
      <g>
       <use xlink:href="#m3faf187186" x="54" y="210.184615" style="stroke: #000000; stroke-width: 0.8"/>
      </g>
     </g>
     <g id="text_10">
      <!-- −10 -->
      <g transform="translate(25.895312 213.983834)scale(0.1 -0.1)">
       <use xlink:href="#DejaVuSans-2212"/>
       <use xlink:href="#DejaVuSans-31" x="83.789062"/>
       <use xlink:href="#DejaVuSans-30" x="147.412109"/>
      </g>
     </g>
    </g>
    <g id="ytick_3">
     <g id="line2d_19">
      <path d="M 54 176.732308 
L 388.8 176.732308 
" clip-path="url(#p5bfdd855bc)" style="fill: none; stroke-dasharray: 2.96,1.28; stroke-dashoffset: 0; stroke: #b0b0b0; stroke-width: 0.8"/>
     </g>
     <g id="line2d_20">
      <g>
       <use xlink:href="#m3faf187186" x="54" y="176.732308" style="stroke: #000000; stroke-width: 0.8"/>
      </g>
     </g>
     <g id="text_11">
      <!-- −8 -->
      <g transform="translate(32.257812 180.531526)scale(0.1 -0.1)">
       <defs>
        <path id="DejaVuSans-38" d="M 2034 2216 
Q 1584 2216 1326 1975 
Q 1069 1734 1069 1313 
Q 1069 891 1326 650 
Q 1584 409 2034 409 
Q 2484 409 2743 651 
Q 3003 894 3003 1313 
Q 3003 1734 2745 1975 
Q 2488 2216 2034 2216 
z
M 1403 2484 
Q 997 2584 770 2862 
Q 544 3141 544 3541 
Q 544 4100 942 4425 
Q 1341 4750 2034 4750 
Q 2731 4750 3128 4425 
Q 3525 4100 3525 3541 
Q 3525 3141 3298 2862 
Q 3072 2584 2669 2484 
Q 3125 2378 3379 2068 
Q 3634 1759 3634 1313 
Q 3634 634 3220 271 
Q 2806 -91 2034 -91 
Q 1263 -91 848 271 
Q 434 634 434 1313 
Q 434 1759 690 2068 
Q 947 2378 1403 2484 
z
M 1172 3481 
Q 1172 3119 1398 2916 
Q 1625 2713 2034 2713 
Q 2441 2713 2670 2916 
Q 2900 3119 2900 3481 
Q 2900 3844 2670 4047 
Q 2441 4250 2034 4250 
Q 1625 4250 1398 4047 
Q 1172 3844 1172 3481 
z
" transform="scale(0.015625)"/>
       </defs>
       <use xlink:href="#DejaVuSans-2212"/>
       <use xlink:href="#DejaVuSans-38" x="83.789062"/>
      </g>
     </g>
    </g>
    <g id="ytick_4">
     <g id="line2d_21">
      <path d="M 54 143.28 
L 388.8 143.28 
" clip-path="url(#p5bfdd855bc)" style="fill: none; stroke-dasharray: 2.96,1.28; stroke-dashoffset: 0; stroke: #b0b0b0; stroke-width: 0.8"/>
     </g>
     <g id="line2d_22">
      <g>
       <use xlink:href="#m3faf187186" x="54" y="143.28" style="stroke: #000000; stroke-width: 0.8"/>
      </g>
     </g>
     <g id="text_12">
      <!-- −6 -->
      <g transform="translate(32.257812 147.079219)scale(0.1 -0.1)">
       <defs>
        <path id="DejaVuSans-36" d="M 2113 2584 
Q 1688 2584 1439 2293 
Q 1191 2003 1191 1497 
Q 1191 994 1439 701 
Q 1688 409 2113 409 
Q 2538 409 2786 701 
Q 3034 994 3034 1497 
Q 3034 2003 2786 2293 
Q 2538 2584 2113 2584 
z
M 3366 4563 
L 3366 3988 
Q 3128 4100 2886 4159 
Q 2644 4219 2406 4219 
Q 1781 4219 1451 3797 
Q 1122 3375 1075 2522 
Q 1259 2794 1537 2939 
Q 1816 3084 2150 3084 
Q 2853 3084 3261 2657 
Q 3669 2231 3669 1497 
Q 3669 778 3244 343 
Q 2819 -91 2113 -91 
Q 1303 -91 875 529 
Q 447 1150 447 2328 
Q 447 3434 972 4092 
Q 1497 4750 2381 4750 
Q 2619 4750 2861 4703 
Q 3103 4656 3366 4563 
z
" transform="scale(0.015625)"/>
       </defs>
       <use xlink:href="#DejaVuSans-2212"/>
       <use xlink:href="#DejaVuSans-36" x="83.789062"/>
      </g>
     </g>
    </g>
    <g id="ytick_5">
     <g id="line2d_23">
      <path d="M 54 109.827692 
L 388.8 109.827692 
" clip-path="url(#p5bfdd855bc)" style="fill: none; stroke-dasharray: 2.96,1.28; stroke-dashoffset: 0; stroke: #b0b0b0; stroke-width: 0.8"/>
     </g>
     <g id="line2d_24">
      <g>
       <use xlink:href="#m3faf187186" x="54" y="109.827692" style="stroke: #000000; stroke-width: 0.8"/>
      </g>
     </g>
     <g id="text_13">
      <!-- −4 -->
      <g transform="translate(32.257812 113.626911)scale(0.1 -0.1)">
       <defs>
        <path id="DejaVuSans-34" d="M 2419 4116 
L 825 1625 
L 2419 1625 
L 2419 4116 
z
M 2253 4666 
L 3047 4666 
L 3047 1625 
L 3713 1625 
L 3713 1100 
L 3047 1100 
L 3047 0 
L 2419 0 
L 2419 1100 
L 313 1100 
L 313 1709 
L 2253 4666 
z
" transform="scale(0.015625)"/>
       </defs>
       <use xlink:href="#DejaVuSans-2212"/>
       <use xlink:href="#DejaVuSans-34" x="83.789062"/>
      </g>
     </g>
    </g>
    <g id="ytick_6">
     <g id="line2d_25">
      <path d="M 54 76.375385 
L 388.8 76.375385 
" clip-path="url(#p5bfdd855bc)" style="fill: none; stroke-dasharray: 2.96,1.28; stroke-dashoffset: 0; stroke: #b0b0b0; stroke-width: 0.8"/>
     </g>
     <g id="line2d_26">
      <g>
       <use xlink:href="#m3faf187186" x="54" y="76.375385" style="stroke: #000000; stroke-width: 0.8"/>
      </g>
     </g>
     <g id="text_14">
      <!-- −2 -->
      <g transform="translate(32.257812 80.174603)scale(0.1 -0.1)">
       <use xlink:href="#DejaVuSans-2212"/>
       <use xlink:href="#DejaVuSans-32" x="83.789062"/>
      </g>
     </g>
    </g>
    <g id="ytick_7">
     <g id="line2d_27">
      <path d="M 54 42.923077 
L 388.8 42.923077 
" clip-path="url(#p5bfdd855bc)" style="fill: none; stroke-dasharray: 2.96,1.28; stroke-dashoffset: 0; stroke: #b0b0b0; stroke-width: 0.8"/>
     </g>
     <g id="line2d_28">
      <g>
       <use xlink:href="#m3faf187186" x="54" y="42.923077" style="stroke: #000000; stroke-width: 0.8"/>
      </g>
     </g>
     <g id="text_15">
      <!-- 0 -->
      <g transform="translate(40.6375 46.722296)scale(0.1 -0.1)">
       <use xlink:href="#DejaVuSans-30"/>
      </g>
     </g>
    </g>
    <g id="text_16">
     <!-- Policy value error -->
     <g transform="translate(19.815625 186.597969)rotate(-90)scale(0.1 -0.1)">
      <defs>
       <path id="DejaVuSans-50" d="M 1259 4147 
L 1259 2394 
L 2053 2394 
Q 2494 2394 2734 2622 
Q 2975 2850 2975 3272 
Q 2975 3691 2734 3919 
Q 2494 4147 2053 4147 
L 1259 4147 
z
M 628 4666 
L 2053 4666 
Q 2838 4666 3239 4311 
Q 3641 3956 3641 3272 
Q 3641 2581 3239 2228 
Q 2838 1875 2053 1875 
L 1259 1875 
L 1259 0 
L 628 0 
L 628 4666 
z
" transform="scale(0.015625)"/>
       <path id="DejaVuSans-6f" d="M 1959 3097 
Q 1497 3097 1228 2736 
Q 959 2375 959 1747 
Q 959 1119 1226 758 
Q 1494 397 1959 397 
Q 2419 397 2687 759 
Q 2956 1122 2956 1747 
Q 2956 2369 2687 2733 
Q 2419 3097 1959 3097 
z
M 1959 3584 
Q 2709 3584 3137 3096 
Q 3566 2609 3566 1747 
Q 3566 888 3137 398 
Q 2709 -91 1959 -91 
Q 1206 -91 779 398 
Q 353 888 353 1747 
Q 353 2609 779 3096 
Q 1206 3584 1959 3584 
z
" transform="scale(0.015625)"/>
       <path id="DejaVuSans-6c" d="M 603 4863 
L 1178 4863 
L 1178 0 
L 603 0 
L 603 4863 
z
" transform="scale(0.015625)"/>
       <path id="DejaVuSans-69" d="M 603 3500 
L 1178 3500 
L 1178 0 
L 603 0 
L 603 3500 
z
M 603 4863 
L 1178 4863 
L 1178 4134 
L 603 4134 
L 603 4863 
z
" transform="scale(0.015625)"/>
       <path id="DejaVuSans-63" d="M 3122 3366 
L 3122 2828 
Q 2878 2963 2633 3030 
Q 2388 3097 2138 3097 
Q 1578 3097 1268 2742 
Q 959 2388 959 1747 
Q 959 1106 1268 751 
Q 1578 397 2138 397 
Q 2388 397 2633 464 
Q 2878 531 3122 666 
L 3122 134 
Q 2881 22 2623 -34 
Q 2366 -91 2075 -91 
Q 1284 -91 818 406 
Q 353 903 353 1747 
Q 353 2603 823 3093 
Q 1294 3584 2113 3584 
Q 2378 3584 2631 3529 
Q 2884 3475 3122 3366 
z
" transform="scale(0.015625)"/>
       <path id="DejaVuSans-79" d="M 2059 -325 
Q 1816 -950 1584 -1140 
Q 1353 -1331 966 -1331 
L 506 -1331 
L 506 -850 
L 844 -850 
Q 1081 -850 1212 -737 
Q 1344 -625 1503 -206 
L 1606 56 
L 191 3500 
L 800 3500 
L 1894 763 
L 2988 3500 
L 3597 3500 
L 2059 -325 
z
" transform="scale(0.015625)"/>
       <path id="DejaVuSans-20" transform="scale(0.015625)"/>
       <path id="DejaVuSans-76" d="M 191 3500 
L 800 3500 
L 1894 563 
L 2988 3500 
L 3597 3500 
L 2284 0 
L 1503 0 
L 191 3500 
z
" transform="scale(0.015625)"/>
       <path id="DejaVuSans-61" d="M 2194 1759 
Q 1497 1759 1228 1600 
Q 959 1441 959 1056 
Q 959 750 1161 570 
Q 1363 391 1709 391 
Q 2188 391 2477 730 
Q 2766 1069 2766 1631 
L 2766 1759 
L 2194 1759 
z
M 3341 1997 
L 3341 0 
L 2766 0 
L 2766 531 
Q 2569 213 2275 61 
Q 1981 -91 1556 -91 
Q 1019 -91 701 211 
Q 384 513 384 1019 
Q 384 1609 779 1909 
Q 1175 2209 1959 2209 
L 2766 2209 
L 2766 2266 
Q 2766 2663 2505 2880 
Q 2244 3097 1772 3097 
Q 1472 3097 1187 3025 
Q 903 2953 641 2809 
L 641 3341 
Q 956 3463 1253 3523 
Q 1550 3584 1831 3584 
Q 2591 3584 2966 3190 
Q 3341 2797 3341 1997 
z
" transform="scale(0.015625)"/>
       <path id="DejaVuSans-75" d="M 544 1381 
L 544 3500 
L 1119 3500 
L 1119 1403 
Q 1119 906 1312 657 
Q 1506 409 1894 409 
Q 2359 409 2629 706 
Q 2900 1003 2900 1516 
L 2900 3500 
L 3475 3500 
L 3475 0 
L 2900 0 
L 2900 538 
Q 2691 219 2414 64 
Q 2138 -91 1772 -91 
Q 1169 -91 856 284 
Q 544 659 544 1381 
z
M 1991 3584 
L 1991 3584 
z
" transform="scale(0.015625)"/>
       <path id="DejaVuSans-72" d="M 2631 2963 
Q 2534 3019 2420 3045 
Q 2306 3072 2169 3072 
Q 1681 3072 1420 2755 
Q 1159 2438 1159 1844 
L 1159 0 
L 581 0 
L 581 3500 
L 1159 3500 
L 1159 2956 
Q 1341 3275 1631 3429 
Q 1922 3584 2338 3584 
Q 2397 3584 2469 3576 
Q 2541 3569 2628 3553 
L 2631 2963 
z
" transform="scale(0.015625)"/>
      </defs>
      <use xlink:href="#DejaVuSans-50"/>
      <use xlink:href="#DejaVuSans-6f" x="56.677734"/>
      <use xlink:href="#DejaVuSans-6c" x="117.859375"/>
      <use xlink:href="#DejaVuSans-69" x="145.642578"/>
      <use xlink:href="#DejaVuSans-63" x="173.425781"/>
      <use xlink:href="#DejaVuSans-79" x="228.40625"/>
      <use xlink:href="#DejaVuSans-20" x="287.585938"/>
      <use xlink:href="#DejaVuSans-76" x="319.373047"/>
      <use xlink:href="#DejaVuSans-61" x="378.552734"/>
      <use xlink:href="#DejaVuSans-6c" x="439.832031"/>
      <use xlink:href="#DejaVuSans-75" x="467.615234"/>
      <use xlink:href="#DejaVuSans-65" x="530.994141"/>
      <use xlink:href="#DejaVuSans-20" x="592.517578"/>
      <use xlink:href="#DejaVuSans-65" x="624.304688"/>
      <use xlink:href="#DejaVuSans-72" x="685.828125"/>
      <use xlink:href="#DejaVuSans-72" x="725.191406"/>
      <use xlink:href="#DejaVuSans-6f" x="764.054688"/>
      <use xlink:href="#DejaVuSans-72" x="825.236328"/>
     </g>
    </g>
   </g>
   <g id="line2d_29">
    <path d="M 69.218182 254.367226 
L 74.376888 254.128173 
L 79.535593 209.217018 
L 84.694299 203.62923 
L 89.853005 191.131451 
L 95.01171 199.53774 
L 100.170416 257.843979 
L 105.329122 253.546032 
L 110.487827 254.633565 
L 115.646533 67.767505 
L 120.805239 70.454372 
L 125.963945 87.418526 
L 131.12265 90.966131 
L 136.281356 90.657653 
L 141.440062 90.966131 
L 146.598767 248.556851 
L 151.757473 162.090538 
L 156.916179 228.003045 
L 162.074884 245.87761 
L 167.23359 107.058797 
L 172.392296 55.171229 
L 177.551002 59.761523 
L 182.709707 56.811801 
L 187.868413 102.785366 
L 193.027119 139.490209 
L 198.185824 74.010305 
L 203.34453 112.602887 
L 208.503236 71.202682 
L 213.661941 79.68001 
L 218.820647 89.605876 
L 223.979353 89.605876 
L 229.138059 53.532508 
L 234.296764 53.532508 
L 239.45547 53.532508 
L 244.614176 53.532508 
L 249.772881 53.532508 
L 254.931587 53.532508 
L 260.090293 53.532508 
L 265.248998 53.532508 
L 270.407704 53.532508 
L 275.56641 55.438399 
L 280.725116 55.438399 
L 285.883821 60.477666 
L 291.042527 60.477666 
L 296.201233 54.018508 
L 301.359938 53.743826 
L 306.518644 54.018508 
L 311.67735 53.743826 
L 316.836055 53.532508 
L 321.994761 63.712102 
L 327.153467 58.887249 
L 332.312173 58.887249 
L 337.470878 59.270288 
L 342.629584 59.270288 
L 347.78829 47.161969 
L 352.946995 47.161969 
L 358.105701 52.13312 
L 363.264407 52.13312 
L 368.423112 52.167019 
L 373.581818 112.933326 
" clip-path="url(#p5bfdd855bc)" style="fill: none; stroke: #9d02d7; stroke-width: 1.5; stroke-linecap: square"/>
    <defs>
     <path id="m94084f4201" d="M 0 -2 
L -2 2 
L 2 2 
z
" style="stroke: #9d02d7; stroke-linejoin: miter"/>
    </defs>
    <g clip-path="url(#p5bfdd855bc)">
     <use xlink:href="#m94084f4201" x="69.218182" y="254.367226" style="fill: #9d02d7; stroke: #9d02d7; stroke-linejoin: miter"/>
     <use xlink:href="#m94084f4201" x="74.376888" y="254.128173" style="fill: #9d02d7; stroke: #9d02d7; stroke-linejoin: miter"/>
     <use xlink:href="#m94084f4201" x="79.535593" y="209.217018" style="fill: #9d02d7; stroke: #9d02d7; stroke-linejoin: miter"/>
     <use xlink:href="#m94084f4201" x="84.694299" y="203.62923" style="fill: #9d02d7; stroke: #9d02d7; stroke-linejoin: miter"/>
     <use xlink:href="#m94084f4201" x="89.853005" y="191.131451" style="fill: #9d02d7; stroke: #9d02d7; stroke-linejoin: miter"/>
     <use xlink:href="#m94084f4201" x="95.01171" y="199.53774" style="fill: #9d02d7; stroke: #9d02d7; stroke-linejoin: miter"/>
     <use xlink:href="#m94084f4201" x="100.170416" y="257.843979" style="fill: #9d02d7; stroke: #9d02d7; stroke-linejoin: miter"/>
     <use xlink:href="#m94084f4201" x="105.329122" y="253.546032" style="fill: #9d02d7; stroke: #9d02d7; stroke-linejoin: miter"/>
     <use xlink:href="#m94084f4201" x="110.487827" y="254.633565" style="fill: #9d02d7; stroke: #9d02d7; stroke-linejoin: miter"/>
     <use xlink:href="#m94084f4201" x="115.646533" y="67.767505" style="fill: #9d02d7; stroke: #9d02d7; stroke-linejoin: miter"/>
     <use xlink:href="#m94084f4201" x="120.805239" y="70.454372" style="fill: #9d02d7; stroke: #9d02d7; stroke-linejoin: miter"/>
     <use xlink:href="#m94084f4201" x="125.963945" y="87.418526" style="fill: #9d02d7; stroke: #9d02d7; stroke-linejoin: miter"/>
     <use xlink:href="#m94084f4201" x="131.12265" y="90.966131" style="fill: #9d02d7; stroke: #9d02d7; stroke-linejoin: miter"/>
     <use xlink:href="#m94084f4201" x="136.281356" y="90.657653" style="fill: #9d02d7; stroke: #9d02d7; stroke-linejoin: miter"/>
     <use xlink:href="#m94084f4201" x="141.440062" y="90.966131" style="fill: #9d02d7; stroke: #9d02d7; stroke-linejoin: miter"/>
     <use xlink:href="#m94084f4201" x="146.598767" y="248.556851" style="fill: #9d02d7; stroke: #9d02d7; stroke-linejoin: miter"/>
     <use xlink:href="#m94084f4201" x="151.757473" y="162.090538" style="fill: #9d02d7; stroke: #9d02d7; stroke-linejoin: miter"/>
     <use xlink:href="#m94084f4201" x="156.916179" y="228.003045" style="fill: #9d02d7; stroke: #9d02d7; stroke-linejoin: miter"/>
     <use xlink:href="#m94084f4201" x="162.074884" y="245.87761" style="fill: #9d02d7; stroke: #9d02d7; stroke-linejoin: miter"/>
     <use xlink:href="#m94084f4201" x="167.23359" y="107.058797" style="fill: #9d02d7; stroke: #9d02d7; stroke-linejoin: miter"/>
     <use xlink:href="#m94084f4201" x="172.392296" y="55.171229" style="fill: #9d02d7; stroke: #9d02d7; stroke-linejoin: miter"/>
     <use xlink:href="#m94084f4201" x="177.551002" y="59.761523" style="fill: #9d02d7; stroke: #9d02d7; stroke-linejoin: miter"/>
     <use xlink:href="#m94084f4201" x="182.709707" y="56.811801" style="fill: #9d02d7; stroke: #9d02d7; stroke-linejoin: miter"/>
     <use xlink:href="#m94084f4201" x="187.868413" y="102.785366" style="fill: #9d02d7; stroke: #9d02d7; stroke-linejoin: miter"/>
     <use xlink:href="#m94084f4201" x="193.027119" y="139.490209" style="fill: #9d02d7; stroke: #9d02d7; stroke-linejoin: miter"/>
     <use xlink:href="#m94084f4201" x="198.185824" y="74.010305" style="fill: #9d02d7; stroke: #9d02d7; stroke-linejoin: miter"/>
     <use xlink:href="#m94084f4201" x="203.34453" y="112.602887" style="fill: #9d02d7; stroke: #9d02d7; stroke-linejoin: miter"/>
     <use xlink:href="#m94084f4201" x="208.503236" y="71.202682" style="fill: #9d02d7; stroke: #9d02d7; stroke-linejoin: miter"/>
     <use xlink:href="#m94084f4201" x="213.661941" y="79.68001" style="fill: #9d02d7; stroke: #9d02d7; stroke-linejoin: miter"/>
     <use xlink:href="#m94084f4201" x="218.820647" y="89.605876" style="fill: #9d02d7; stroke: #9d02d7; stroke-linejoin: miter"/>
     <use xlink:href="#m94084f4201" x="223.979353" y="89.605876" style="fill: #9d02d7; stroke: #9d02d7; stroke-linejoin: miter"/>
     <use xlink:href="#m94084f4201" x="229.138059" y="53.532508" style="fill: #9d02d7; stroke: #9d02d7; stroke-linejoin: miter"/>
     <use xlink:href="#m94084f4201" x="234.296764" y="53.532508" style="fill: #9d02d7; stroke: #9d02d7; stroke-linejoin: miter"/>
     <use xlink:href="#m94084f4201" x="239.45547" y="53.532508" style="fill: #9d02d7; stroke: #9d02d7; stroke-linejoin: miter"/>
     <use xlink:href="#m94084f4201" x="244.614176" y="53.532508" style="fill: #9d02d7; stroke: #9d02d7; stroke-linejoin: miter"/>
     <use xlink:href="#m94084f4201" x="249.772881" y="53.532508" style="fill: #9d02d7; stroke: #9d02d7; stroke-linejoin: miter"/>
     <use xlink:href="#m94084f4201" x="254.931587" y="53.532508" style="fill: #9d02d7; stroke: #9d02d7; stroke-linejoin: miter"/>
     <use xlink:href="#m94084f4201" x="260.090293" y="53.532508" style="fill: #9d02d7; stroke: #9d02d7; stroke-linejoin: miter"/>
     <use xlink:href="#m94084f4201" x="265.248998" y="53.532508" style="fill: #9d02d7; stroke: #9d02d7; stroke-linejoin: miter"/>
     <use xlink:href="#m94084f4201" x="270.407704" y="53.532508" style="fill: #9d02d7; stroke: #9d02d7; stroke-linejoin: miter"/>
     <use xlink:href="#m94084f4201" x="275.56641" y="55.438399" style="fill: #9d02d7; stroke: #9d02d7; stroke-linejoin: miter"/>
     <use xlink:href="#m94084f4201" x="280.725116" y="55.438399" style="fill: #9d02d7; stroke: #9d02d7; stroke-linejoin: miter"/>
     <use xlink:href="#m94084f4201" x="285.883821" y="60.477666" style="fill: #9d02d7; stroke: #9d02d7; stroke-linejoin: miter"/>
     <use xlink:href="#m94084f4201" x="291.042527" y="60.477666" style="fill: #9d02d7; stroke: #9d02d7; stroke-linejoin: miter"/>
     <use xlink:href="#m94084f4201" x="296.201233" y="54.018508" style="fill: #9d02d7; stroke: #9d02d7; stroke-linejoin: miter"/>
     <use xlink:href="#m94084f4201" x="301.359938" y="53.743826" style="fill: #9d02d7; stroke: #9d02d7; stroke-linejoin: miter"/>
     <use xlink:href="#m94084f4201" x="306.518644" y="54.018508" style="fill: #9d02d7; stroke: #9d02d7; stroke-linejoin: miter"/>
     <use xlink:href="#m94084f4201" x="311.67735" y="53.743826" style="fill: #9d02d7; stroke: #9d02d7; stroke-linejoin: miter"/>
     <use xlink:href="#m94084f4201" x="316.836055" y="53.532508" style="fill: #9d02d7; stroke: #9d02d7; stroke-linejoin: miter"/>
     <use xlink:href="#m94084f4201" x="321.994761" y="63.712102" style="fill: #9d02d7; stroke: #9d02d7; stroke-linejoin: miter"/>
     <use xlink:href="#m94084f4201" x="327.153467" y="58.887249" style="fill: #9d02d7; stroke: #9d02d7; stroke-linejoin: miter"/>
     <use xlink:href="#m94084f4201" x="332.312173" y="58.887249" style="fill: #9d02d7; stroke: #9d02d7; stroke-linejoin: miter"/>
     <use xlink:href="#m94084f4201" x="337.470878" y="59.270288" style="fill: #9d02d7; stroke: #9d02d7; stroke-linejoin: miter"/>
     <use xlink:href="#m94084f4201" x="342.629584" y="59.270288" style="fill: #9d02d7; stroke: #9d02d7; stroke-linejoin: miter"/>
     <use xlink:href="#m94084f4201" x="347.78829" y="47.161969" style="fill: #9d02d7; stroke: #9d02d7; stroke-linejoin: miter"/>
     <use xlink:href="#m94084f4201" x="352.946995" y="47.161969" style="fill: #9d02d7; stroke: #9d02d7; stroke-linejoin: miter"/>
     <use xlink:href="#m94084f4201" x="358.105701" y="52.13312" style="fill: #9d02d7; stroke: #9d02d7; stroke-linejoin: miter"/>
     <use xlink:href="#m94084f4201" x="363.264407" y="52.13312" style="fill: #9d02d7; stroke: #9d02d7; stroke-linejoin: miter"/>
     <use xlink:href="#m94084f4201" x="368.423112" y="52.167019" style="fill: #9d02d7; stroke: #9d02d7; stroke-linejoin: miter"/>
     <use xlink:href="#m94084f4201" x="373.581818" y="112.933326" style="fill: #9d02d7; stroke: #9d02d7; stroke-linejoin: miter"/>
    </g>
   </g>
   <g id="line2d_30">
    <path d="M 69.218182 247.747087 
L 74.376888 254.193705 
L 79.535593 251.309542 
L 84.694299 238.435298 
L 89.853005 251.040265 
L 95.01171 233.912261 
L 100.170416 157.48616 
L 105.329122 168.028201 
L 110.487827 87.816261 
L 115.646533 53.507529 
L 120.805239 53.507529 
L 125.963945 89.764596 
L 131.12265 56.281419 
L 136.281356 52.599734 
L 141.440062 51.86552 
L 146.598767 51.939038 
L 151.757473 52.373708 
L 156.916179 66.048119 
L 162.074884 63.861955 
L 167.23359 64.830268 
L 172.392296 85.177443 
L 177.551002 64.830268 
L 182.709707 57.577549 
L 187.868413 95.440548 
L 193.027119 82.341126 
L 198.185824 85.177443 
L 203.34453 90.854193 
L 208.503236 87.840588 
L 213.661941 75.917117 
L 218.820647 102.978913 
L 223.979353 102.978913 
L 229.138059 67.006353 
L 234.296764 53.129372 
L 239.45547 53.129372 
L 244.614176 62.620728 
L 249.772881 62.620728 
L 254.931587 64.254155 
L 260.090293 64.254155 
L 265.248998 64.254155 
L 270.407704 61.916395 
L 275.56641 60.905225 
L 280.725116 60.905225 
L 285.883821 60.905225 
L 291.042527 60.905225 
L 296.201233 55.543074 
L 301.359938 55.543074 
L 306.518644 55.543074 
L 311.67735 60.905225 
L 316.836055 55.359541 
L 321.994761 55.359541 
L 327.153467 55.359541 
L 332.312173 55.359541 
L 337.470878 55.543074 
L 342.629584 55.543074 
L 347.78829 55.543074 
L 352.946995 55.359541 
L 358.105701 74.376023 
L 363.264407 74.376023 
L 368.423112 55.359541 
L 373.581818 55.359541 
" clip-path="url(#p5bfdd855bc)" style="fill: none; stroke: #0000ff; stroke-width: 1.5; stroke-linecap: square"/>
    <defs>
     <path id="m153cfe84b1" d="M 0 2 
C 0.530406 2 1.03916 1.789267 1.414214 1.414214 
C 1.789267 1.03916 2 0.530406 2 0 
C 2 -0.530406 1.789267 -1.03916 1.414214 -1.414214 
C 1.03916 -1.789267 0.530406 -2 0 -2 
C -0.530406 -2 -1.03916 -1.789267 -1.414214 -1.414214 
C -1.789267 -1.03916 -2 -0.530406 -2 0 
C -2 0.530406 -1.789267 1.03916 -1.414214 1.414214 
C -1.03916 1.789267 -0.530406 2 0 2 
z
" style="stroke: #0000ff"/>
    </defs>
    <g clip-path="url(#p5bfdd855bc)">
     <use xlink:href="#m153cfe84b1" x="69.218182" y="247.747087" style="fill: #0000ff; stroke: #0000ff"/>
     <use xlink:href="#m153cfe84b1" x="74.376888" y="254.193705" style="fill: #0000ff; stroke: #0000ff"/>
     <use xlink:href="#m153cfe84b1" x="79.535593" y="251.309542" style="fill: #0000ff; stroke: #0000ff"/>
     <use xlink:href="#m153cfe84b1" x="84.694299" y="238.435298" style="fill: #0000ff; stroke: #0000ff"/>
     <use xlink:href="#m153cfe84b1" x="89.853005" y="251.040265" style="fill: #0000ff; stroke: #0000ff"/>
     <use xlink:href="#m153cfe84b1" x="95.01171" y="233.912261" style="fill: #0000ff; stroke: #0000ff"/>
     <use xlink:href="#m153cfe84b1" x="100.170416" y="157.48616" style="fill: #0000ff; stroke: #0000ff"/>
     <use xlink:href="#m153cfe84b1" x="105.329122" y="168.028201" style="fill: #0000ff; stroke: #0000ff"/>
     <use xlink:href="#m153cfe84b1" x="110.487827" y="87.816261" style="fill: #0000ff; stroke: #0000ff"/>
     <use xlink:href="#m153cfe84b1" x="115.646533" y="53.507529" style="fill: #0000ff; stroke: #0000ff"/>
     <use xlink:href="#m153cfe84b1" x="120.805239" y="53.507529" style="fill: #0000ff; stroke: #0000ff"/>
     <use xlink:href="#m153cfe84b1" x="125.963945" y="89.764596" style="fill: #0000ff; stroke: #0000ff"/>
     <use xlink:href="#m153cfe84b1" x="131.12265" y="56.281419" style="fill: #0000ff; stroke: #0000ff"/>
     <use xlink:href="#m153cfe84b1" x="136.281356" y="52.599734" style="fill: #0000ff; stroke: #0000ff"/>
     <use xlink:href="#m153cfe84b1" x="141.440062" y="51.86552" style="fill: #0000ff; stroke: #0000ff"/>
     <use xlink:href="#m153cfe84b1" x="146.598767" y="51.939038" style="fill: #0000ff; stroke: #0000ff"/>
     <use xlink:href="#m153cfe84b1" x="151.757473" y="52.373708" style="fill: #0000ff; stroke: #0000ff"/>
     <use xlink:href="#m153cfe84b1" x="156.916179" y="66.048119" style="fill: #0000ff; stroke: #0000ff"/>
     <use xlink:href="#m153cfe84b1" x="162.074884" y="63.861955" style="fill: #0000ff; stroke: #0000ff"/>
     <use xlink:href="#m153cfe84b1" x="167.23359" y="64.830268" style="fill: #0000ff; stroke: #0000ff"/>
     <use xlink:href="#m153cfe84b1" x="172.392296" y="85.177443" style="fill: #0000ff; stroke: #0000ff"/>
     <use xlink:href="#m153cfe84b1" x="177.551002" y="64.830268" style="fill: #0000ff; stroke: #0000ff"/>
     <use xlink:href="#m153cfe84b1" x="182.709707" y="57.577549" style="fill: #0000ff; stroke: #0000ff"/>
     <use xlink:href="#m153cfe84b1" x="187.868413" y="95.440548" style="fill: #0000ff; stroke: #0000ff"/>
     <use xlink:href="#m153cfe84b1" x="193.027119" y="82.341126" style="fill: #0000ff; stroke: #0000ff"/>
     <use xlink:href="#m153cfe84b1" x="198.185824" y="85.177443" style="fill: #0000ff; stroke: #0000ff"/>
     <use xlink:href="#m153cfe84b1" x="203.34453" y="90.854193" style="fill: #0000ff; stroke: #0000ff"/>
     <use xlink:href="#m153cfe84b1" x="208.503236" y="87.840588" style="fill: #0000ff; stroke: #0000ff"/>
     <use xlink:href="#m153cfe84b1" x="213.661941" y="75.917117" style="fill: #0000ff; stroke: #0000ff"/>
     <use xlink:href="#m153cfe84b1" x="218.820647" y="102.978913" style="fill: #0000ff; stroke: #0000ff"/>
     <use xlink:href="#m153cfe84b1" x="223.979353" y="102.978913" style="fill: #0000ff; stroke: #0000ff"/>
     <use xlink:href="#m153cfe84b1" x="229.138059" y="67.006353" style="fill: #0000ff; stroke: #0000ff"/>
     <use xlink:href="#m153cfe84b1" x="234.296764" y="53.129372" style="fill: #0000ff; stroke: #0000ff"/>
     <use xlink:href="#m153cfe84b1" x="239.45547" y="53.129372" style="fill: #0000ff; stroke: #0000ff"/>
     <use xlink:href="#m153cfe84b1" x="244.614176" y="62.620728" style="fill: #0000ff; stroke: #0000ff"/>
     <use xlink:href="#m153cfe84b1" x="249.772881" y="62.620728" style="fill: #0000ff; stroke: #0000ff"/>
     <use xlink:href="#m153cfe84b1" x="254.931587" y="64.254155" style="fill: #0000ff; stroke: #0000ff"/>
     <use xlink:href="#m153cfe84b1" x="260.090293" y="64.254155" style="fill: #0000ff; stroke: #0000ff"/>
     <use xlink:href="#m153cfe84b1" x="265.248998" y="64.254155" style="fill: #0000ff; stroke: #0000ff"/>
     <use xlink:href="#m153cfe84b1" x="270.407704" y="61.916395" style="fill: #0000ff; stroke: #0000ff"/>
     <use xlink:href="#m153cfe84b1" x="275.56641" y="60.905225" style="fill: #0000ff; stroke: #0000ff"/>
     <use xlink:href="#m153cfe84b1" x="280.725116" y="60.905225" style="fill: #0000ff; stroke: #0000ff"/>
     <use xlink:href="#m153cfe84b1" x="285.883821" y="60.905225" style="fill: #0000ff; stroke: #0000ff"/>
     <use xlink:href="#m153cfe84b1" x="291.042527" y="60.905225" style="fill: #0000ff; stroke: #0000ff"/>
     <use xlink:href="#m153cfe84b1" x="296.201233" y="55.543074" style="fill: #0000ff; stroke: #0000ff"/>
     <use xlink:href="#m153cfe84b1" x="301.359938" y="55.543074" style="fill: #0000ff; stroke: #0000ff"/>
     <use xlink:href="#m153cfe84b1" x="306.518644" y="55.543074" style="fill: #0000ff; stroke: #0000ff"/>
     <use xlink:href="#m153cfe84b1" x="311.67735" y="60.905225" style="fill: #0000ff; stroke: #0000ff"/>
     <use xlink:href="#m153cfe84b1" x="316.836055" y="55.359541" style="fill: #0000ff; stroke: #0000ff"/>
     <use xlink:href="#m153cfe84b1" x="321.994761" y="55.359541" style="fill: #0000ff; stroke: #0000ff"/>
     <use xlink:href="#m153cfe84b1" x="327.153467" y="55.359541" style="fill: #0000ff; stroke: #0000ff"/>
     <use xlink:href="#m153cfe84b1" x="332.312173" y="55.359541" style="fill: #0000ff; stroke: #0000ff"/>
     <use xlink:href="#m153cfe84b1" x="337.470878" y="55.543074" style="fill: #0000ff; stroke: #0000ff"/>
     <use xlink:href="#m153cfe84b1" x="342.629584" y="55.543074" style="fill: #0000ff; stroke: #0000ff"/>
     <use xlink:href="#m153cfe84b1" x="347.78829" y="55.543074" style="fill: #0000ff; stroke: #0000ff"/>
     <use xlink:href="#m153cfe84b1" x="352.946995" y="55.359541" style="fill: #0000ff; stroke: #0000ff"/>
     <use xlink:href="#m153cfe84b1" x="358.105701" y="74.376023" style="fill: #0000ff; stroke: #0000ff"/>
     <use xlink:href="#m153cfe84b1" x="363.264407" y="74.376023" style="fill: #0000ff; stroke: #0000ff"/>
     <use xlink:href="#m153cfe84b1" x="368.423112" y="55.359541" style="fill: #0000ff; stroke: #0000ff"/>
     <use xlink:href="#m153cfe84b1" x="373.581818" y="55.359541" style="fill: #0000ff; stroke: #0000ff"/>
    </g>
   </g>
   <g id="line2d_31">
    <path d="M 69.218182 252.908818 
L 74.376888 76.20734 
L 79.535593 76.237123 
L 84.694299 109.310595 
L 89.853005 73.195232 
L 95.01171 73.281407 
L 100.170416 73.162601 
L 105.329122 73.338797 
L 110.487827 73.118998 
L 115.646533 73.272685 
L 120.805239 73.210274 
L 125.963945 73.210032 
L 131.12265 73.328328 
L 136.281356 73.109297 
L 141.440062 73.340065 
L 146.598767 73.124011 
L 151.757473 73.349255 
L 156.916179 73.168135 
L 162.074884 73.133292 
L 167.23359 73.510258 
L 172.392296 73.119022 
L 177.551002 73.419912 
L 182.709707 73.416123 
L 187.868413 73.274666 
L 193.027119 73.26884 
L 198.185824 73.240037 
L 203.34453 73.330464 
L 208.503236 73.121612 
L 213.661941 73.203785 
L 218.820647 73.142966 
L 223.979353 73.175825 
L 229.138059 73.268866 
L 234.296764 73.264148 
L 239.45547 73.133537 
L 244.614176 73.167159 
L 249.772881 73.143011 
L 254.931587 73.513502 
L 260.090293 73.168128 
L 265.248998 73.200128 
L 270.407704 73.463514 
L 275.56641 73.363109 
L 280.725116 73.182831 
L 285.883821 73.264383 
L 291.042527 73.202843 
L 296.201233 73.104667 
L 301.359938 73.273943 
L 306.518644 73.244154 
L 311.67735 73.183366 
L 316.836055 73.273186 
L 321.994761 73.250416 
L 327.153467 73.281511 
L 332.312173 73.223627 
L 337.470878 109.331592 
L 342.629584 136.253511 
L 347.78829 73.127349 
L 352.946995 73.209317 
L 358.105701 73.386393 
L 363.264407 73.172192 
L 368.423112 73.239318 
L 373.581818 73.490988 
" clip-path="url(#p5bfdd855bc)" style="fill: none; stroke: #ff7763; stroke-width: 1.5; stroke-linecap: square"/>
    <defs>
     <path id="ma81ca28026" d="M -2 2 
L 2 -2 
M -2 -2 
L 2 2 
" style="stroke: #ff7763"/>
    </defs>
    <g clip-path="url(#p5bfdd855bc)">
     <use xlink:href="#ma81ca28026" x="69.218182" y="252.908818" style="fill: #ff7763; stroke: #ff7763"/>
     <use xlink:href="#ma81ca28026" x="74.376888" y="76.20734" style="fill: #ff7763; stroke: #ff7763"/>
     <use xlink:href="#ma81ca28026" x="79.535593" y="76.237123" style="fill: #ff7763; stroke: #ff7763"/>
     <use xlink:href="#ma81ca28026" x="84.694299" y="109.310595" style="fill: #ff7763; stroke: #ff7763"/>
     <use xlink:href="#ma81ca28026" x="89.853005" y="73.195232" style="fill: #ff7763; stroke: #ff7763"/>
     <use xlink:href="#ma81ca28026" x="95.01171" y="73.281407" style="fill: #ff7763; stroke: #ff7763"/>
     <use xlink:href="#ma81ca28026" x="100.170416" y="73.162601" style="fill: #ff7763; stroke: #ff7763"/>
     <use xlink:href="#ma81ca28026" x="105.329122" y="73.338797" style="fill: #ff7763; stroke: #ff7763"/>
     <use xlink:href="#ma81ca28026" x="110.487827" y="73.118998" style="fill: #ff7763; stroke: #ff7763"/>
     <use xlink:href="#ma81ca28026" x="115.646533" y="73.272685" style="fill: #ff7763; stroke: #ff7763"/>
     <use xlink:href="#ma81ca28026" x="120.805239" y="73.210274" style="fill: #ff7763; stroke: #ff7763"/>
     <use xlink:href="#ma81ca28026" x="125.963945" y="73.210032" style="fill: #ff7763; stroke: #ff7763"/>
     <use xlink:href="#ma81ca28026" x="131.12265" y="73.328328" style="fill: #ff7763; stroke: #ff7763"/>
     <use xlink:href="#ma81ca28026" x="136.281356" y="73.109297" style="fill: #ff7763; stroke: #ff7763"/>
     <use xlink:href="#ma81ca28026" x="141.440062" y="73.340065" style="fill: #ff7763; stroke: #ff7763"/>
     <use xlink:href="#ma81ca28026" x="146.598767" y="73.124011" style="fill: #ff7763; stroke: #ff7763"/>
     <use xlink:href="#ma81ca28026" x="151.757473" y="73.349255" style="fill: #ff7763; stroke: #ff7763"/>
     <use xlink:href="#ma81ca28026" x="156.916179" y="73.168135" style="fill: #ff7763; stroke: #ff7763"/>
     <use xlink:href="#ma81ca28026" x="162.074884" y="73.133292" style="fill: #ff7763; stroke: #ff7763"/>
     <use xlink:href="#ma81ca28026" x="167.23359" y="73.510258" style="fill: #ff7763; stroke: #ff7763"/>
     <use xlink:href="#ma81ca28026" x="172.392296" y="73.119022" style="fill: #ff7763; stroke: #ff7763"/>
     <use xlink:href="#ma81ca28026" x="177.551002" y="73.419912" style="fill: #ff7763; stroke: #ff7763"/>
     <use xlink:href="#ma81ca28026" x="182.709707" y="73.416123" style="fill: #ff7763; stroke: #ff7763"/>
     <use xlink:href="#ma81ca28026" x="187.868413" y="73.274666" style="fill: #ff7763; stroke: #ff7763"/>
     <use xlink:href="#ma81ca28026" x="193.027119" y="73.26884" style="fill: #ff7763; stroke: #ff7763"/>
     <use xlink:href="#ma81ca28026" x="198.185824" y="73.240037" style="fill: #ff7763; stroke: #ff7763"/>
     <use xlink:href="#ma81ca28026" x="203.34453" y="73.330464" style="fill: #ff7763; stroke: #ff7763"/>
     <use xlink:href="#ma81ca28026" x="208.503236" y="73.121612" style="fill: #ff7763; stroke: #ff7763"/>
     <use xlink:href="#ma81ca28026" x="213.661941" y="73.203785" style="fill: #ff7763; stroke: #ff7763"/>
     <use xlink:href="#ma81ca28026" x="218.820647" y="73.142966" style="fill: #ff7763; stroke: #ff7763"/>
     <use xlink:href="#ma81ca28026" x="223.979353" y="73.175825" style="fill: #ff7763; stroke: #ff7763"/>
     <use xlink:href="#ma81ca28026" x="229.138059" y="73.268866" style="fill: #ff7763; stroke: #ff7763"/>
     <use xlink:href="#ma81ca28026" x="234.296764" y="73.264148" style="fill: #ff7763; stroke: #ff7763"/>
     <use xlink:href="#ma81ca28026" x="239.45547" y="73.133537" style="fill: #ff7763; stroke: #ff7763"/>
     <use xlink:href="#ma81ca28026" x="244.614176" y="73.167159" style="fill: #ff7763; stroke: #ff7763"/>
     <use xlink:href="#ma81ca28026" x="249.772881" y="73.143011" style="fill: #ff7763; stroke: #ff7763"/>
     <use xlink:href="#ma81ca28026" x="254.931587" y="73.513502" style="fill: #ff7763; stroke: #ff7763"/>
     <use xlink:href="#ma81ca28026" x="260.090293" y="73.168128" style="fill: #ff7763; stroke: #ff7763"/>
     <use xlink:href="#ma81ca28026" x="265.248998" y="73.200128" style="fill: #ff7763; stroke: #ff7763"/>
     <use xlink:href="#ma81ca28026" x="270.407704" y="73.463514" style="fill: #ff7763; stroke: #ff7763"/>
     <use xlink:href="#ma81ca28026" x="275.56641" y="73.363109" style="fill: #ff7763; stroke: #ff7763"/>
     <use xlink:href="#ma81ca28026" x="280.725116" y="73.182831" style="fill: #ff7763; stroke: #ff7763"/>
     <use xlink:href="#ma81ca28026" x="285.883821" y="73.264383" style="fill: #ff7763; stroke: #ff7763"/>
     <use xlink:href="#ma81ca28026" x="291.042527" y="73.202843" style="fill: #ff7763; stroke: #ff7763"/>
     <use xlink:href="#ma81ca28026" x="296.201233" y="73.104667" style="fill: #ff7763; stroke: #ff7763"/>
     <use xlink:href="#ma81ca28026" x="301.359938" y="73.273943" style="fill: #ff7763; stroke: #ff7763"/>
     <use xlink:href="#ma81ca28026" x="306.518644" y="73.244154" style="fill: #ff7763; stroke: #ff7763"/>
     <use xlink:href="#ma81ca28026" x="311.67735" y="73.183366" style="fill: #ff7763; stroke: #ff7763"/>
     <use xlink:href="#ma81ca28026" x="316.836055" y="73.273186" style="fill: #ff7763; stroke: #ff7763"/>
     <use xlink:href="#ma81ca28026" x="321.994761" y="73.250416" style="fill: #ff7763; stroke: #ff7763"/>
     <use xlink:href="#ma81ca28026" x="327.153467" y="73.281511" style="fill: #ff7763; stroke: #ff7763"/>
     <use xlink:href="#ma81ca28026" x="332.312173" y="73.223627" style="fill: #ff7763; stroke: #ff7763"/>
     <use xlink:href="#ma81ca28026" x="337.470878" y="109.331592" style="fill: #ff7763; stroke: #ff7763"/>
     <use xlink:href="#ma81ca28026" x="342.629584" y="136.253511" style="fill: #ff7763; stroke: #ff7763"/>
     <use xlink:href="#ma81ca28026" x="347.78829" y="73.127349" style="fill: #ff7763; stroke: #ff7763"/>
     <use xlink:href="#ma81ca28026" x="352.946995" y="73.209317" style="fill: #ff7763; stroke: #ff7763"/>
     <use xlink:href="#ma81ca28026" x="358.105701" y="73.386393" style="fill: #ff7763; stroke: #ff7763"/>
     <use xlink:href="#ma81ca28026" x="363.264407" y="73.172192" style="fill: #ff7763; stroke: #ff7763"/>
     <use xlink:href="#ma81ca28026" x="368.423112" y="73.239318" style="fill: #ff7763; stroke: #ff7763"/>
     <use xlink:href="#ma81ca28026" x="373.581818" y="73.490988" style="fill: #ff7763; stroke: #ff7763"/>
    </g>
   </g>
   <g id="line2d_32">
    <path d="M 69.218182 252.922132 
L 74.376888 255.327758 
L 79.535593 257.920405 
L 84.694299 159.773699 
L 89.853005 133.920826 
L 95.01171 133.920826 
L 100.170416 133.920826 
L 105.329122 148.451526 
L 110.487827 129.029938 
L 115.646533 129.029938 
L 120.805239 150.863413 
L 125.963945 150.863413 
L 131.12265 129.029938 
L 136.281356 116.33603 
L 141.440062 137.648762 
L 146.598767 138.432039 
L 151.757473 120.573764 
L 156.916179 127.622435 
L 162.074884 124.526504 
L 167.23359 118.761098 
L 172.392296 117.552426 
L 177.551002 120.573764 
L 182.709707 118.883271 
L 187.868413 120.321751 
L 193.027119 120.321751 
L 198.185824 116.896244 
L 203.34453 116.896244 
L 208.503236 118.883271 
L 213.661941 118.883271 
L 218.820647 116.896244 
L 223.979353 116.896244 
L 229.138059 116.33603 
L 234.296764 116.33603 
L 239.45547 121.82843 
L 244.614176 116.33603 
L 249.772881 116.33603 
L 254.931587 116.33603 
L 260.090293 116.33603 
L 265.248998 116.33603 
L 270.407704 116.33603 
L 275.56641 118.761098 
L 280.725116 116.33603 
L 285.883821 116.33603 
L 291.042527 116.33603 
L 296.201233 116.33603 
L 301.359938 116.33603 
L 306.518644 116.33603 
L 311.67735 117.808123 
L 316.836055 117.808123 
L 321.994761 117.808123 
L 327.153467 117.808123 
L 332.312173 118.883271 
L 337.470878 117.808123 
L 342.629584 117.808123 
L 347.78829 117.808123 
L 352.946995 117.808123 
L 358.105701 147.301861 
L 363.264407 116.33603 
L 368.423112 116.33603 
L 373.581818 139.373694 
" clip-path="url(#p5bfdd855bc)" style="fill: none; stroke: #ffac1e; stroke-width: 1.5; stroke-linecap: square"/>
    <defs>
     <path id="mdd7ea0a364" d="M 0 -2 
L -0.449028 -0.618034 
L -1.902113 -0.618034 
L -0.726543 0.236068 
L -1.175571 1.618034 
L -0 0.763932 
L 1.175571 1.618034 
L 0.726543 0.236068 
L 1.902113 -0.618034 
L 0.449028 -0.618034 
z
" style="stroke: #ffac1e; stroke-linejoin: bevel"/>
    </defs>
    <g clip-path="url(#p5bfdd855bc)">
     <use xlink:href="#mdd7ea0a364" x="69.218182" y="252.922132" style="fill: #ffac1e; stroke: #ffac1e; stroke-linejoin: bevel"/>
     <use xlink:href="#mdd7ea0a364" x="74.376888" y="255.327758" style="fill: #ffac1e; stroke: #ffac1e; stroke-linejoin: bevel"/>
     <use xlink:href="#mdd7ea0a364" x="79.535593" y="257.920405" style="fill: #ffac1e; stroke: #ffac1e; stroke-linejoin: bevel"/>
     <use xlink:href="#mdd7ea0a364" x="84.694299" y="159.773699" style="fill: #ffac1e; stroke: #ffac1e; stroke-linejoin: bevel"/>
     <use xlink:href="#mdd7ea0a364" x="89.853005" y="133.920826" style="fill: #ffac1e; stroke: #ffac1e; stroke-linejoin: bevel"/>
     <use xlink:href="#mdd7ea0a364" x="95.01171" y="133.920826" style="fill: #ffac1e; stroke: #ffac1e; stroke-linejoin: bevel"/>
     <use xlink:href="#mdd7ea0a364" x="100.170416" y="133.920826" style="fill: #ffac1e; stroke: #ffac1e; stroke-linejoin: bevel"/>
     <use xlink:href="#mdd7ea0a364" x="105.329122" y="148.451526" style="fill: #ffac1e; stroke: #ffac1e; stroke-linejoin: bevel"/>
     <use xlink:href="#mdd7ea0a364" x="110.487827" y="129.029938" style="fill: #ffac1e; stroke: #ffac1e; stroke-linejoin: bevel"/>
     <use xlink:href="#mdd7ea0a364" x="115.646533" y="129.029938" style="fill: #ffac1e; stroke: #ffac1e; stroke-linejoin: bevel"/>
     <use xlink:href="#mdd7ea0a364" x="120.805239" y="150.863413" style="fill: #ffac1e; stroke: #ffac1e; stroke-linejoin: bevel"/>
     <use xlink:href="#mdd7ea0a364" x="125.963945" y="150.863413" style="fill: #ffac1e; stroke: #ffac1e; stroke-linejoin: bevel"/>
     <use xlink:href="#mdd7ea0a364" x="131.12265" y="129.029938" style="fill: #ffac1e; stroke: #ffac1e; stroke-linejoin: bevel"/>
     <use xlink:href="#mdd7ea0a364" x="136.281356" y="116.33603" style="fill: #ffac1e; stroke: #ffac1e; stroke-linejoin: bevel"/>
     <use xlink:href="#mdd7ea0a364" x="141.440062" y="137.648762" style="fill: #ffac1e; stroke: #ffac1e; stroke-linejoin: bevel"/>
     <use xlink:href="#mdd7ea0a364" x="146.598767" y="138.432039" style="fill: #ffac1e; stroke: #ffac1e; stroke-linejoin: bevel"/>
     <use xlink:href="#mdd7ea0a364" x="151.757473" y="120.573764" style="fill: #ffac1e; stroke: #ffac1e; stroke-linejoin: bevel"/>
     <use xlink:href="#mdd7ea0a364" x="156.916179" y="127.622435" style="fill: #ffac1e; stroke: #ffac1e; stroke-linejoin: bevel"/>
     <use xlink:href="#mdd7ea0a364" x="162.074884" y="124.526504" style="fill: #ffac1e; stroke: #ffac1e; stroke-linejoin: bevel"/>
     <use xlink:href="#mdd7ea0a364" x="167.23359" y="118.761098" style="fill: #ffac1e; stroke: #ffac1e; stroke-linejoin: bevel"/>
     <use xlink:href="#mdd7ea0a364" x="172.392296" y="117.552426" style="fill: #ffac1e; stroke: #ffac1e; stroke-linejoin: bevel"/>
     <use xlink:href="#mdd7ea0a364" x="177.551002" y="120.573764" style="fill: #ffac1e; stroke: #ffac1e; stroke-linejoin: bevel"/>
     <use xlink:href="#mdd7ea0a364" x="182.709707" y="118.883271" style="fill: #ffac1e; stroke: #ffac1e; stroke-linejoin: bevel"/>
     <use xlink:href="#mdd7ea0a364" x="187.868413" y="120.321751" style="fill: #ffac1e; stroke: #ffac1e; stroke-linejoin: bevel"/>
     <use xlink:href="#mdd7ea0a364" x="193.027119" y="120.321751" style="fill: #ffac1e; stroke: #ffac1e; stroke-linejoin: bevel"/>
     <use xlink:href="#mdd7ea0a364" x="198.185824" y="116.896244" style="fill: #ffac1e; stroke: #ffac1e; stroke-linejoin: bevel"/>
     <use xlink:href="#mdd7ea0a364" x="203.34453" y="116.896244" style="fill: #ffac1e; stroke: #ffac1e; stroke-linejoin: bevel"/>
     <use xlink:href="#mdd7ea0a364" x="208.503236" y="118.883271" style="fill: #ffac1e; stroke: #ffac1e; stroke-linejoin: bevel"/>
     <use xlink:href="#mdd7ea0a364" x="213.661941" y="118.883271" style="fill: #ffac1e; stroke: #ffac1e; stroke-linejoin: bevel"/>
     <use xlink:href="#mdd7ea0a364" x="218.820647" y="116.896244" style="fill: #ffac1e; stroke: #ffac1e; stroke-linejoin: bevel"/>
     <use xlink:href="#mdd7ea0a364" x="223.979353" y="116.896244" style="fill: #ffac1e; stroke: #ffac1e; stroke-linejoin: bevel"/>
     <use xlink:href="#mdd7ea0a364" x="229.138059" y="116.33603" style="fill: #ffac1e; stroke: #ffac1e; stroke-linejoin: bevel"/>
     <use xlink:href="#mdd7ea0a364" x="234.296764" y="116.33603" style="fill: #ffac1e; stroke: #ffac1e; stroke-linejoin: bevel"/>
     <use xlink:href="#mdd7ea0a364" x="239.45547" y="121.82843" style="fill: #ffac1e; stroke: #ffac1e; stroke-linejoin: bevel"/>
     <use xlink:href="#mdd7ea0a364" x="244.614176" y="116.33603" style="fill: #ffac1e; stroke: #ffac1e; stroke-linejoin: bevel"/>
     <use xlink:href="#mdd7ea0a364" x="249.772881" y="116.33603" style="fill: #ffac1e; stroke: #ffac1e; stroke-linejoin: bevel"/>
     <use xlink:href="#mdd7ea0a364" x="254.931587" y="116.33603" style="fill: #ffac1e; stroke: #ffac1e; stroke-linejoin: bevel"/>
     <use xlink:href="#mdd7ea0a364" x="260.090293" y="116.33603" style="fill: #ffac1e; stroke: #ffac1e; stroke-linejoin: bevel"/>
     <use xlink:href="#mdd7ea0a364" x="265.248998" y="116.33603" style="fill: #ffac1e; stroke: #ffac1e; stroke-linejoin: bevel"/>
     <use xlink:href="#mdd7ea0a364" x="270.407704" y="116.33603" style="fill: #ffac1e; stroke: #ffac1e; stroke-linejoin: bevel"/>
     <use xlink:href="#mdd7ea0a364" x="275.56641" y="118.761098" style="fill: #ffac1e; stroke: #ffac1e; stroke-linejoin: bevel"/>
     <use xlink:href="#mdd7ea0a364" x="280.725116" y="116.33603" style="fill: #ffac1e; stroke: #ffac1e; stroke-linejoin: bevel"/>
     <use xlink:href="#mdd7ea0a364" x="285.883821" y="116.33603" style="fill: #ffac1e; stroke: #ffac1e; stroke-linejoin: bevel"/>
     <use xlink:href="#mdd7ea0a364" x="291.042527" y="116.33603" style="fill: #ffac1e; stroke: #ffac1e; stroke-linejoin: bevel"/>
     <use xlink:href="#mdd7ea0a364" x="296.201233" y="116.33603" style="fill: #ffac1e; stroke: #ffac1e; stroke-linejoin: bevel"/>
     <use xlink:href="#mdd7ea0a364" x="301.359938" y="116.33603" style="fill: #ffac1e; stroke: #ffac1e; stroke-linejoin: bevel"/>
     <use xlink:href="#mdd7ea0a364" x="306.518644" y="116.33603" style="fill: #ffac1e; stroke: #ffac1e; stroke-linejoin: bevel"/>
     <use xlink:href="#mdd7ea0a364" x="311.67735" y="117.808123" style="fill: #ffac1e; stroke: #ffac1e; stroke-linejoin: bevel"/>
     <use xlink:href="#mdd7ea0a364" x="316.836055" y="117.808123" style="fill: #ffac1e; stroke: #ffac1e; stroke-linejoin: bevel"/>
     <use xlink:href="#mdd7ea0a364" x="321.994761" y="117.808123" style="fill: #ffac1e; stroke: #ffac1e; stroke-linejoin: bevel"/>
     <use xlink:href="#mdd7ea0a364" x="327.153467" y="117.808123" style="fill: #ffac1e; stroke: #ffac1e; stroke-linejoin: bevel"/>
     <use xlink:href="#mdd7ea0a364" x="332.312173" y="118.883271" style="fill: #ffac1e; stroke: #ffac1e; stroke-linejoin: bevel"/>
     <use xlink:href="#mdd7ea0a364" x="337.470878" y="117.808123" style="fill: #ffac1e; stroke: #ffac1e; stroke-linejoin: bevel"/>
     <use xlink:href="#mdd7ea0a364" x="342.629584" y="117.808123" style="fill: #ffac1e; stroke: #ffac1e; stroke-linejoin: bevel"/>
     <use xlink:href="#mdd7ea0a364" x="347.78829" y="117.808123" style="fill: #ffac1e; stroke: #ffac1e; stroke-linejoin: bevel"/>
     <use xlink:href="#mdd7ea0a364" x="352.946995" y="117.808123" style="fill: #ffac1e; stroke: #ffac1e; stroke-linejoin: bevel"/>
     <use xlink:href="#mdd7ea0a364" x="358.105701" y="147.301861" style="fill: #ffac1e; stroke: #ffac1e; stroke-linejoin: bevel"/>
     <use xlink:href="#mdd7ea0a364" x="363.264407" y="116.33603" style="fill: #ffac1e; stroke: #ffac1e; stroke-linejoin: bevel"/>
     <use xlink:href="#mdd7ea0a364" x="368.423112" y="116.33603" style="fill: #ffac1e; stroke: #ffac1e; stroke-linejoin: bevel"/>
     <use xlink:href="#mdd7ea0a364" x="373.581818" y="139.373694" style="fill: #ffac1e; stroke: #ffac1e; stroke-linejoin: bevel"/>
    </g>
   </g>
   <g id="line2d_33">
    <path d="M 69.218182 256.003585 
L 74.376888 227.557593 
L 79.535593 214.289233 
L 84.694299 172.651022 
L 89.853005 184.017266 
L 95.01171 188.91984 
L 100.170416 187.661523 
L 105.329122 188.91984 
L 110.487827 187.665006 
L 115.646533 188.91984 
L 120.805239 187.665006 
L 125.963945 187.308569 
L 131.12265 187.665006 
L 136.281356 187.665006 
L 141.440062 184.843302 
L 146.598767 184.843302 
L 151.757473 184.843302 
L 156.916179 184.843302 
L 162.074884 184.843302 
L 167.23359 184.843302 
L 172.392296 184.843302 
L 177.551002 184.843302 
L 182.709707 184.843302 
L 187.868413 184.843302 
L 193.027119 184.843302 
L 198.185824 184.843302 
L 203.34453 245.038638 
L 208.503236 247.123089 
L 213.661941 230.108654 
L 218.820647 244.941422 
L 223.979353 193.621552 
L 229.138059 195.620739 
L 234.296764 195.620739 
L 239.45547 195.793295 
L 244.614176 165.201769 
L 249.772881 162.233016 
L 254.931587 162.233016 
L 260.090293 162.233016 
L 265.248998 166.058812 
L 270.407704 169.027402 
L 275.56641 163.903974 
L 280.725116 163.903974 
L 285.883821 165.420368 
L 291.042527 159.769702 
L 296.201233 159.769702 
L 301.359938 159.769702 
L 306.518644 161.081355 
L 311.67735 160.340273 
L 316.836055 161.64544 
L 321.994761 161.64544 
L 327.153467 160.340273 
L 332.312173 160.340273 
L 337.470878 161.64544 
L 342.629584 161.64544 
L 347.78829 161.64544 
L 352.946995 161.64544 
L 358.105701 167.790665 
L 363.264407 161.64544 
L 368.423112 160.340273 
L 373.581818 160.340273 
" clip-path="url(#p5bfdd855bc)" style="fill: none; stroke: #009435; stroke-width: 1.5; stroke-linecap: square"/>
    <defs>
     <path id="me68af78d25" d="M -2 2 
L 2 2 
L 2 -2 
L -2 -2 
z
" style="stroke: #009435; stroke-linejoin: miter"/>
    </defs>
    <g clip-path="url(#p5bfdd855bc)">
     <use xlink:href="#me68af78d25" x="69.218182" y="256.003585" style="fill: #009435; stroke: #009435; stroke-linejoin: miter"/>
     <use xlink:href="#me68af78d25" x="74.376888" y="227.557593" style="fill: #009435; stroke: #009435; stroke-linejoin: miter"/>
     <use xlink:href="#me68af78d25" x="79.535593" y="214.289233" style="fill: #009435; stroke: #009435; stroke-linejoin: miter"/>
     <use xlink:href="#me68af78d25" x="84.694299" y="172.651022" style="fill: #009435; stroke: #009435; stroke-linejoin: miter"/>
     <use xlink:href="#me68af78d25" x="89.853005" y="184.017266" style="fill: #009435; stroke: #009435; stroke-linejoin: miter"/>
     <use xlink:href="#me68af78d25" x="95.01171" y="188.91984" style="fill: #009435; stroke: #009435; stroke-linejoin: miter"/>
     <use xlink:href="#me68af78d25" x="100.170416" y="187.661523" style="fill: #009435; stroke: #009435; stroke-linejoin: miter"/>
     <use xlink:href="#me68af78d25" x="105.329122" y="188.91984" style="fill: #009435; stroke: #009435; stroke-linejoin: miter"/>
     <use xlink:href="#me68af78d25" x="110.487827" y="187.665006" style="fill: #009435; stroke: #009435; stroke-linejoin: miter"/>
     <use xlink:href="#me68af78d25" x="115.646533" y="188.91984" style="fill: #009435; stroke: #009435; stroke-linejoin: miter"/>
     <use xlink:href="#me68af78d25" x="120.805239" y="187.665006" style="fill: #009435; stroke: #009435; stroke-linejoin: miter"/>
     <use xlink:href="#me68af78d25" x="125.963945" y="187.308569" style="fill: #009435; stroke: #009435; stroke-linejoin: miter"/>
     <use xlink:href="#me68af78d25" x="131.12265" y="187.665006" style="fill: #009435; stroke: #009435; stroke-linejoin: miter"/>
     <use xlink:href="#me68af78d25" x="136.281356" y="187.665006" style="fill: #009435; stroke: #009435; stroke-linejoin: miter"/>
     <use xlink:href="#me68af78d25" x="141.440062" y="184.843302" style="fill: #009435; stroke: #009435; stroke-linejoin: miter"/>
     <use xlink:href="#me68af78d25" x="146.598767" y="184.843302" style="fill: #009435; stroke: #009435; stroke-linejoin: miter"/>
     <use xlink:href="#me68af78d25" x="151.757473" y="184.843302" style="fill: #009435; stroke: #009435; stroke-linejoin: miter"/>
     <use xlink:href="#me68af78d25" x="156.916179" y="184.843302" style="fill: #009435; stroke: #009435; stroke-linejoin: miter"/>
     <use xlink:href="#me68af78d25" x="162.074884" y="184.843302" style="fill: #009435; stroke: #009435; stroke-linejoin: miter"/>
     <use xlink:href="#me68af78d25" x="167.23359" y="184.843302" style="fill: #009435; stroke: #009435; stroke-linejoin: miter"/>
     <use xlink:href="#me68af78d25" x="172.392296" y="184.843302" style="fill: #009435; stroke: #009435; stroke-linejoin: miter"/>
     <use xlink:href="#me68af78d25" x="177.551002" y="184.843302" style="fill: #009435; stroke: #009435; stroke-linejoin: miter"/>
     <use xlink:href="#me68af78d25" x="182.709707" y="184.843302" style="fill: #009435; stroke: #009435; stroke-linejoin: miter"/>
     <use xlink:href="#me68af78d25" x="187.868413" y="184.843302" style="fill: #009435; stroke: #009435; stroke-linejoin: miter"/>
     <use xlink:href="#me68af78d25" x="193.027119" y="184.843302" style="fill: #009435; stroke: #009435; stroke-linejoin: miter"/>
     <use xlink:href="#me68af78d25" x="198.185824" y="184.843302" style="fill: #009435; stroke: #009435; stroke-linejoin: miter"/>
     <use xlink:href="#me68af78d25" x="203.34453" y="245.038638" style="fill: #009435; stroke: #009435; stroke-linejoin: miter"/>
     <use xlink:href="#me68af78d25" x="208.503236" y="247.123089" style="fill: #009435; stroke: #009435; stroke-linejoin: miter"/>
     <use xlink:href="#me68af78d25" x="213.661941" y="230.108654" style="fill: #009435; stroke: #009435; stroke-linejoin: miter"/>
     <use xlink:href="#me68af78d25" x="218.820647" y="244.941422" style="fill: #009435; stroke: #009435; stroke-linejoin: miter"/>
     <use xlink:href="#me68af78d25" x="223.979353" y="193.621552" style="fill: #009435; stroke: #009435; stroke-linejoin: miter"/>
     <use xlink:href="#me68af78d25" x="229.138059" y="195.620739" style="fill: #009435; stroke: #009435; stroke-linejoin: miter"/>
     <use xlink:href="#me68af78d25" x="234.296764" y="195.620739" style="fill: #009435; stroke: #009435; stroke-linejoin: miter"/>
     <use xlink:href="#me68af78d25" x="239.45547" y="195.793295" style="fill: #009435; stroke: #009435; stroke-linejoin: miter"/>
     <use xlink:href="#me68af78d25" x="244.614176" y="165.201769" style="fill: #009435; stroke: #009435; stroke-linejoin: miter"/>
     <use xlink:href="#me68af78d25" x="249.772881" y="162.233016" style="fill: #009435; stroke: #009435; stroke-linejoin: miter"/>
     <use xlink:href="#me68af78d25" x="254.931587" y="162.233016" style="fill: #009435; stroke: #009435; stroke-linejoin: miter"/>
     <use xlink:href="#me68af78d25" x="260.090293" y="162.233016" style="fill: #009435; stroke: #009435; stroke-linejoin: miter"/>
     <use xlink:href="#me68af78d25" x="265.248998" y="166.058812" style="fill: #009435; stroke: #009435; stroke-linejoin: miter"/>
     <use xlink:href="#me68af78d25" x="270.407704" y="169.027402" style="fill: #009435; stroke: #009435; stroke-linejoin: miter"/>
     <use xlink:href="#me68af78d25" x="275.56641" y="163.903974" style="fill: #009435; stroke: #009435; stroke-linejoin: miter"/>
     <use xlink:href="#me68af78d25" x="280.725116" y="163.903974" style="fill: #009435; stroke: #009435; stroke-linejoin: miter"/>
     <use xlink:href="#me68af78d25" x="285.883821" y="165.420368" style="fill: #009435; stroke: #009435; stroke-linejoin: miter"/>
     <use xlink:href="#me68af78d25" x="291.042527" y="159.769702" style="fill: #009435; stroke: #009435; stroke-linejoin: miter"/>
     <use xlink:href="#me68af78d25" x="296.201233" y="159.769702" style="fill: #009435; stroke: #009435; stroke-linejoin: miter"/>
     <use xlink:href="#me68af78d25" x="301.359938" y="159.769702" style="fill: #009435; stroke: #009435; stroke-linejoin: miter"/>
     <use xlink:href="#me68af78d25" x="306.518644" y="161.081355" style="fill: #009435; stroke: #009435; stroke-linejoin: miter"/>
     <use xlink:href="#me68af78d25" x="311.67735" y="160.340273" style="fill: #009435; stroke: #009435; stroke-linejoin: miter"/>
     <use xlink:href="#me68af78d25" x="316.836055" y="161.64544" style="fill: #009435; stroke: #009435; stroke-linejoin: miter"/>
     <use xlink:href="#me68af78d25" x="321.994761" y="161.64544" style="fill: #009435; stroke: #009435; stroke-linejoin: miter"/>
     <use xlink:href="#me68af78d25" x="327.153467" y="160.340273" style="fill: #009435; stroke: #009435; stroke-linejoin: miter"/>
     <use xlink:href="#me68af78d25" x="332.312173" y="160.340273" style="fill: #009435; stroke: #009435; stroke-linejoin: miter"/>
     <use xlink:href="#me68af78d25" x="337.470878" y="161.64544" style="fill: #009435; stroke: #009435; stroke-linejoin: miter"/>
     <use xlink:href="#me68af78d25" x="342.629584" y="161.64544" style="fill: #009435; stroke: #009435; stroke-linejoin: miter"/>
     <use xlink:href="#me68af78d25" x="347.78829" y="161.64544" style="fill: #009435; stroke: #009435; stroke-linejoin: miter"/>
     <use xlink:href="#me68af78d25" x="352.946995" y="161.64544" style="fill: #009435; stroke: #009435; stroke-linejoin: miter"/>
     <use xlink:href="#me68af78d25" x="358.105701" y="167.790665" style="fill: #009435; stroke: #009435; stroke-linejoin: miter"/>
     <use xlink:href="#me68af78d25" x="363.264407" y="161.64544" style="fill: #009435; stroke: #009435; stroke-linejoin: miter"/>
     <use xlink:href="#me68af78d25" x="368.423112" y="160.340273" style="fill: #009435; stroke: #009435; stroke-linejoin: miter"/>
     <use xlink:href="#me68af78d25" x="373.581818" y="160.340273" style="fill: #009435; stroke: #009435; stroke-linejoin: miter"/>
    </g>
   </g>
   <g id="patch_3">
    <path d="M 54 252 
L 54 34.56 
" style="fill: none; stroke: #000000; stroke-width: 0.8; stroke-linejoin: miter; stroke-linecap: square"/>
   </g>
   <g id="patch_4">
    <path d="M 388.8 252 
L 388.8 34.56 
" style="fill: none; stroke: #000000; stroke-width: 0.8; stroke-linejoin: miter; stroke-linecap: square"/>
   </g>
   <g id="patch_5">
    <path d="M 54 252 
L 388.8 252 
" style="fill: none; stroke: #000000; stroke-width: 0.8; stroke-linejoin: miter; stroke-linecap: square"/>
   </g>
   <g id="patch_6">
    <path d="M 54 34.56 
L 388.8 34.56 
" style="fill: none; stroke: #000000; stroke-width: 0.8; stroke-linejoin: miter; stroke-linecap: square"/>
   </g>
   <g id="text_17">
    <!-- ζ-EB agent policy with beta = 1.5 -->
    <g transform="translate(120.797813 28.56)scale(0.12 -0.12)">
     <defs>
      <path id="DejaVuSans-3b6" d="M 2231 397 
Q 2644 394 2891 159 
Q 3153 -88 3153 -463 
Q 3153 -822 2922 -1072 
Q 2672 -1344 2163 -1344 
Q 2163 -1109 2163 -872 
Q 2378 -888 2509 -750 
Q 2609 -641 2609 -525 
Q 2609 -359 2509 -222 
Q 2413 -91 2231 -91 
Q 338 -91 334 1669 
Q 334 3206 2119 4284 
L 456 4284 
L 456 4863 
L 3175 4863 
L 3175 4284 
Q 913 3147 913 1669 
Q 913 397 2231 397 
z
" transform="scale(0.015625)"/>
      <path id="DejaVuSans-2d" d="M 313 2009 
L 1997 2009 
L 1997 1497 
L 313 1497 
L 313 2009 
z
" transform="scale(0.015625)"/>
      <path id="DejaVuSans-45" d="M 628 4666 
L 3578 4666 
L 3578 4134 
L 1259 4134 
L 1259 2753 
L 3481 2753 
L 3481 2222 
L 1259 2222 
L 1259 531 
L 3634 531 
L 3634 0 
L 628 0 
L 628 4666 
z
" transform="scale(0.015625)"/>
      <path id="DejaVuSans-42" d="M 1259 2228 
L 1259 519 
L 2272 519 
Q 2781 519 3026 730 
Q 3272 941 3272 1375 
Q 3272 1813 3026 2020 
Q 2781 2228 2272 2228 
L 1259 2228 
z
M 1259 4147 
L 1259 2741 
L 2194 2741 
Q 2656 2741 2882 2914 
Q 3109 3088 3109 3444 
Q 3109 3797 2882 3972 
Q 2656 4147 2194 4147 
L 1259 4147 
z
M 628 4666 
L 2241 4666 
Q 2963 4666 3353 4366 
Q 3744 4066 3744 3513 
Q 3744 3084 3544 2831 
Q 3344 2578 2956 2516 
Q 3422 2416 3680 2098 
Q 3938 1781 3938 1306 
Q 3938 681 3513 340 
Q 3088 0 2303 0 
L 628 0 
L 628 4666 
z
" transform="scale(0.015625)"/>
      <path id="DejaVuSans-67" d="M 2906 1791 
Q 2906 2416 2648 2759 
Q 2391 3103 1925 3103 
Q 1463 3103 1205 2759 
Q 947 2416 947 1791 
Q 947 1169 1205 825 
Q 1463 481 1925 481 
Q 2391 481 2648 825 
Q 2906 1169 2906 1791 
z
M 3481 434 
Q 3481 -459 3084 -895 
Q 2688 -1331 1869 -1331 
Q 1566 -1331 1297 -1286 
Q 1028 -1241 775 -1147 
L 775 -588 
Q 1028 -725 1275 -790 
Q 1522 -856 1778 -856 
Q 2344 -856 2625 -561 
Q 2906 -266 2906 331 
L 2906 616 
Q 2728 306 2450 153 
Q 2172 0 1784 0 
Q 1141 0 747 490 
Q 353 981 353 1791 
Q 353 2603 747 3093 
Q 1141 3584 1784 3584 
Q 2172 3584 2450 3431 
Q 2728 3278 2906 2969 
L 2906 3500 
L 3481 3500 
L 3481 434 
z
" transform="scale(0.015625)"/>
      <path id="DejaVuSans-6e" d="M 3513 2113 
L 3513 0 
L 2938 0 
L 2938 2094 
Q 2938 2591 2744 2837 
Q 2550 3084 2163 3084 
Q 1697 3084 1428 2787 
Q 1159 2491 1159 1978 
L 1159 0 
L 581 0 
L 581 3500 
L 1159 3500 
L 1159 2956 
Q 1366 3272 1645 3428 
Q 1925 3584 2291 3584 
Q 2894 3584 3203 3211 
Q 3513 2838 3513 2113 
z
" transform="scale(0.015625)"/>
      <path id="DejaVuSans-77" d="M 269 3500 
L 844 3500 
L 1563 769 
L 2278 3500 
L 2956 3500 
L 3675 769 
L 4391 3500 
L 4966 3500 
L 4050 0 
L 3372 0 
L 2619 2869 
L 1863 0 
L 1184 0 
L 269 3500 
z
" transform="scale(0.015625)"/>
      <path id="DejaVuSans-68" d="M 3513 2113 
L 3513 0 
L 2938 0 
L 2938 2094 
Q 2938 2591 2744 2837 
Q 2550 3084 2163 3084 
Q 1697 3084 1428 2787 
Q 1159 2491 1159 1978 
L 1159 0 
L 581 0 
L 581 4863 
L 1159 4863 
L 1159 2956 
Q 1366 3272 1645 3428 
Q 1925 3584 2291 3584 
Q 2894 3584 3203 3211 
Q 3513 2838 3513 2113 
z
" transform="scale(0.015625)"/>
      <path id="DejaVuSans-62" d="M 3116 1747 
Q 3116 2381 2855 2742 
Q 2594 3103 2138 3103 
Q 1681 3103 1420 2742 
Q 1159 2381 1159 1747 
Q 1159 1113 1420 752 
Q 1681 391 2138 391 
Q 2594 391 2855 752 
Q 3116 1113 3116 1747 
z
M 1159 2969 
Q 1341 3281 1617 3432 
Q 1894 3584 2278 3584 
Q 2916 3584 3314 3078 
Q 3713 2572 3713 1747 
Q 3713 922 3314 415 
Q 2916 -91 2278 -91 
Q 1894 -91 1617 61 
Q 1341 213 1159 525 
L 1159 0 
L 581 0 
L 581 4863 
L 1159 4863 
L 1159 2969 
z
" transform="scale(0.015625)"/>
      <path id="DejaVuSans-3d" d="M 678 2906 
L 4684 2906 
L 4684 2381 
L 678 2381 
L 678 2906 
z
M 678 1631 
L 4684 1631 
L 4684 1100 
L 678 1100 
L 678 1631 
z
" transform="scale(0.015625)"/>
      <path id="DejaVuSans-2e" d="M 684 794 
L 1344 794 
L 1344 0 
L 684 0 
L 684 794 
z
" transform="scale(0.015625)"/>
     </defs>
     <use xlink:href="#DejaVuSans-3b6"/>
     <use xlink:href="#DejaVuSans-2d" x="54.394531"/>
     <use xlink:href="#DejaVuSans-45" x="90.478516"/>
     <use xlink:href="#DejaVuSans-42" x="153.662109"/>
     <use xlink:href="#DejaVuSans-20" x="222.265625"/>
     <use xlink:href="#DejaVuSans-61" x="254.052734"/>
     <use xlink:href="#DejaVuSans-67" x="315.332031"/>
     <use xlink:href="#DejaVuSans-65" x="378.808594"/>
     <use xlink:href="#DejaVuSans-6e" x="440.332031"/>
     <use xlink:href="#DejaVuSans-74" x="503.710938"/>
     <use xlink:href="#DejaVuSans-20" x="542.919922"/>
     <use xlink:href="#DejaVuSans-70" x="574.707031"/>
     <use xlink:href="#DejaVuSans-6f" x="638.183594"/>
     <use xlink:href="#DejaVuSans-6c" x="699.365234"/>
     <use xlink:href="#DejaVuSans-69" x="727.148438"/>
     <use xlink:href="#DejaVuSans-63" x="754.931641"/>
     <use xlink:href="#DejaVuSans-79" x="809.912109"/>
     <use xlink:href="#DejaVuSans-20" x="869.091797"/>
     <use xlink:href="#DejaVuSans-77" x="900.878906"/>
     <use xlink:href="#DejaVuSans-69" x="982.666016"/>
     <use xlink:href="#DejaVuSans-74" x="1010.449219"/>
     <use xlink:href="#DejaVuSans-68" x="1049.658203"/>
     <use xlink:href="#DejaVuSans-20" x="1113.037109"/>
     <use xlink:href="#DejaVuSans-62" x="1144.824219"/>
     <use xlink:href="#DejaVuSans-65" x="1208.300781"/>
     <use xlink:href="#DejaVuSans-74" x="1269.824219"/>
     <use xlink:href="#DejaVuSans-61" x="1309.033203"/>
     <use xlink:href="#DejaVuSans-20" x="1370.3125"/>
     <use xlink:href="#DejaVuSans-3d" x="1402.099609"/>
     <use xlink:href="#DejaVuSans-20" x="1485.888672"/>
     <use xlink:href="#DejaVuSans-31" x="1517.675781"/>
     <use xlink:href="#DejaVuSans-2e" x="1581.298828"/>
     <use xlink:href="#DejaVuSans-35" x="1613.085938"/>
    </g>
   </g>
   <g id="legend_1">
    <g id="patch_7">
     <path d="M 297.796875 247 
L 381.8 247 
Q 383.8 247 383.8 245 
L 383.8 172.609375 
Q 383.8 170.609375 381.8 170.609375 
L 297.796875 170.609375 
Q 295.796875 170.609375 295.796875 172.609375 
L 295.796875 245 
Q 295.796875 247 297.796875 247 
z
" style="fill: #ffffff; opacity: 0.8; stroke: #cccccc; stroke-linejoin: miter"/>
    </g>
    <g id="line2d_34">
     <path d="M 299.796875 178.707812 
L 309.796875 178.707812 
L 319.796875 178.707812 
" style="fill: none; stroke: #9d02d7; stroke-width: 1.5; stroke-linecap: square"/>
     <g>
      <use xlink:href="#m94084f4201" x="309.796875" y="178.707812" style="fill: #9d02d7; stroke: #9d02d7; stroke-linejoin: miter"/>
     </g>
    </g>
    <g id="text_18">
     <!-- alpha=0.1 -->
     <g transform="translate(327.796875 182.207812)scale(0.1 -0.1)">
      <use xlink:href="#DejaVuSans-61"/>
      <use xlink:href="#DejaVuSans-6c" x="61.279297"/>
      <use xlink:href="#DejaVuSans-70" x="89.0625"/>
      <use xlink:href="#DejaVuSans-68" x="152.539062"/>
      <use xlink:href="#DejaVuSans-61" x="215.917969"/>
      <use xlink:href="#DejaVuSans-3d" x="277.197266"/>
      <use xlink:href="#DejaVuSans-30" x="360.986328"/>
      <use xlink:href="#DejaVuSans-2e" x="424.609375"/>
      <use xlink:href="#DejaVuSans-31" x="456.396484"/>
     </g>
    </g>
    <g id="line2d_35">
     <path d="M 299.796875 193.385938 
L 309.796875 193.385938 
L 319.796875 193.385938 
" style="fill: none; stroke: #0000ff; stroke-width: 1.5; stroke-linecap: square"/>
     <g>
      <use xlink:href="#m153cfe84b1" x="309.796875" y="193.385938" style="fill: #0000ff; stroke: #0000ff"/>
     </g>
    </g>
    <g id="text_19">
     <!-- alpha=0.5 -->
     <g transform="translate(327.796875 196.885938)scale(0.1 -0.1)">
      <use xlink:href="#DejaVuSans-61"/>
      <use xlink:href="#DejaVuSans-6c" x="61.279297"/>
      <use xlink:href="#DejaVuSans-70" x="89.0625"/>
      <use xlink:href="#DejaVuSans-68" x="152.539062"/>
      <use xlink:href="#DejaVuSans-61" x="215.917969"/>
      <use xlink:href="#DejaVuSans-3d" x="277.197266"/>
      <use xlink:href="#DejaVuSans-30" x="360.986328"/>
      <use xlink:href="#DejaVuSans-2e" x="424.609375"/>
      <use xlink:href="#DejaVuSans-35" x="456.396484"/>
     </g>
    </g>
    <g id="line2d_36">
     <path d="M 299.796875 208.064063 
L 309.796875 208.064063 
L 319.796875 208.064063 
" style="fill: none; stroke: #ff7763; stroke-width: 1.5; stroke-linecap: square"/>
     <g>
      <use xlink:href="#ma81ca28026" x="309.796875" y="208.064063" style="fill: #ff7763; stroke: #ff7763"/>
     </g>
    </g>
    <g id="text_20">
     <!-- alpha=1.0 -->
     <g transform="translate(327.796875 211.564063)scale(0.1 -0.1)">
      <use xlink:href="#DejaVuSans-61"/>
      <use xlink:href="#DejaVuSans-6c" x="61.279297"/>
      <use xlink:href="#DejaVuSans-70" x="89.0625"/>
      <use xlink:href="#DejaVuSans-68" x="152.539062"/>
      <use xlink:href="#DejaVuSans-61" x="215.917969"/>
      <use xlink:href="#DejaVuSans-3d" x="277.197266"/>
      <use xlink:href="#DejaVuSans-31" x="360.986328"/>
      <use xlink:href="#DejaVuSans-2e" x="424.609375"/>
      <use xlink:href="#DejaVuSans-30" x="456.396484"/>
     </g>
    </g>
    <g id="line2d_37">
     <path d="M 299.796875 222.742188 
L 309.796875 222.742188 
L 319.796875 222.742188 
" style="fill: none; stroke: #ffac1e; stroke-width: 1.5; stroke-linecap: square"/>
     <g>
      <use xlink:href="#mdd7ea0a364" x="309.796875" y="222.742188" style="fill: #ffac1e; stroke: #ffac1e; stroke-linejoin: bevel"/>
     </g>
    </g>
    <g id="text_21">
     <!-- alpha=1.5 -->
     <g transform="translate(327.796875 226.242188)scale(0.1 -0.1)">
      <use xlink:href="#DejaVuSans-61"/>
      <use xlink:href="#DejaVuSans-6c" x="61.279297"/>
      <use xlink:href="#DejaVuSans-70" x="89.0625"/>
      <use xlink:href="#DejaVuSans-68" x="152.539062"/>
      <use xlink:href="#DejaVuSans-61" x="215.917969"/>
      <use xlink:href="#DejaVuSans-3d" x="277.197266"/>
      <use xlink:href="#DejaVuSans-31" x="360.986328"/>
      <use xlink:href="#DejaVuSans-2e" x="424.609375"/>
      <use xlink:href="#DejaVuSans-35" x="456.396484"/>
     </g>
    </g>
    <g id="line2d_38">
     <path d="M 299.796875 237.420313 
L 309.796875 237.420313 
L 319.796875 237.420313 
" style="fill: none; stroke: #009435; stroke-width: 1.5; stroke-linecap: square"/>
     <g>
      <use xlink:href="#me68af78d25" x="309.796875" y="237.420313" style="fill: #009435; stroke: #009435; stroke-linejoin: miter"/>
     </g>
    </g>
    <g id="text_22">
     <!-- alpha=2.0 -->
     <g transform="translate(327.796875 240.920313)scale(0.1 -0.1)">
      <use xlink:href="#DejaVuSans-61"/>
      <use xlink:href="#DejaVuSans-6c" x="61.279297"/>
      <use xlink:href="#DejaVuSans-70" x="89.0625"/>
      <use xlink:href="#DejaVuSans-68" x="152.539062"/>
      <use xlink:href="#DejaVuSans-61" x="215.917969"/>
      <use xlink:href="#DejaVuSans-3d" x="277.197266"/>
      <use xlink:href="#DejaVuSans-32" x="360.986328"/>
      <use xlink:href="#DejaVuSans-2e" x="424.609375"/>
      <use xlink:href="#DejaVuSans-30" x="456.396484"/>
     </g>
    </g>
   </g>
  </g>
 </g>
 <defs>
  <clipPath id="p5bfdd855bc">
   <rect x="54" y="34.56" width="334.8" height="217.44"/>
  </clipPath>
 </defs>
</svg>
