<?xml version="1.0" encoding="utf-8" standalone="no"?>
<!DOCTYPE svg PUBLIC "-//W3C//DTD SVG 1.1//EN"
  "http://www.w3.org/Graphics/SVG/1.1/DTD/svg11.dtd">
<svg xmlns:xlink="http://www.w3.org/1999/xlink" width="432pt" height="288pt" viewBox="0 0 432 288" xmlns="http://www.w3.org/2000/svg" version="1.1">
 <metadata>
  <rdf:RDF xmlns:dc="http://purl.org/dc/elements/1.1/" xmlns:cc="http://creativecommons.org/ns#" xmlns:rdf="http://www.w3.org/1999/02/22-rdf-syntax-ns#">
   <cc:Work>
    <dc:type rdf:resource="http://purl.org/dc/dcmitype/StillImage"/>
    <dc:date>2023-01-11T15:36:35.561227</dc:date>
    <dc:format>image/svg+xml</dc:format>
    <dc:creator>
     <cc:Agent>
      <dc:title>Matplotlib v3.5.2, https://matplotlib.org/</dc:title>
     </cc:Agent>
    </dc:creator>
   </cc:Work>
  </rdf:RDF>
 </metadata>
 <defs>
  <style type="text/css">*{stroke-linejoin: round; stroke-linecap: butt}</style>
 </defs>
 <g id="figure_1">
  <g id="patch_1">
   <path d="M 0 288 
L 432 288 
L 432 0 
L 0 0 
z
" style="fill: #ffffff"/>
  </g>
  <g id="axes_1">
   <g id="patch_2">
    <path d="M 54 252 
L 388.8 252 
L 388.8 34.56 
L 54 34.56 
z
" style="fill: #ffffff"/>
   </g>
   <g id="PolyCollection_1">
    <defs>
     <path id="ma5310dcf9d" d="M 69.218182 -31.837087 
L 69.218182 -31.837087 
L 74.376888 -31.765906 
L 79.535593 -35.091182 
L 84.694299 -91.056512 
L 89.853005 -163.468618 
L 95.01171 -75.706513 
L 100.170416 -129.742256 
L 105.329122 -155.662784 
L 110.487827 -130.231407 
L 115.646533 -152.298501 
L 120.805239 -128.675053 
L 125.963945 -192.152353 
L 131.12265 -210.328481 
L 136.281356 -174.725008 
L 141.440062 -205.696245 
L 146.598767 -211.120456 
L 151.757473 -230.890316 
L 156.916179 -237.249534 
L 162.074884 -201.689872 
L 167.23359 -206.837046 
L 172.392296 -208.095561 
L 177.551002 -212.790333 
L 182.709707 -212.393599 
L 187.868413 -233.698871 
L 193.027119 -212.885885 
L 198.185824 -212.60077 
L 203.34453 -165.236246 
L 208.503236 -186.032966 
L 213.661941 -186.033071 
L 218.820647 -228.864699 
L 223.979353 -244.54921 
L 229.138059 -244.67959 
L 234.296764 -238.683646 
L 239.45547 -240.995664 
L 244.614176 -240.995664 
L 249.772881 -241.373418 
L 254.931587 -241.405106 
L 260.090293 -240.995664 
L 265.248998 -235.029535 
L 270.407704 -241.373418 
L 275.56641 -241.373418 
L 280.725116 -238.667886 
L 285.883821 -238.667886 
L 291.042527 -238.667886 
L 296.201233 -238.667886 
L 301.359938 -238.794412 
L 306.518644 -238.667886 
L 311.67735 -244.470076 
L 316.836055 -244.470076 
L 321.994761 -244.470076 
L 327.153467 -244.470076 
L 332.312173 -238.667886 
L 337.470878 -244.470076 
L 342.629584 -244.470076 
L 347.78829 -244.470076 
L 352.946995 -244.470076 
L 358.105701 -244.470076 
L 363.264407 -244.470076 
L 368.423112 -244.470076 
L 373.581818 -244.470076 
L 373.581818 -244.470076 
L 373.581818 -244.470076 
L 368.423112 -244.470076 
L 363.264407 -244.470076 
L 358.105701 -244.470076 
L 352.946995 -244.470076 
L 347.78829 -244.470076 
L 342.629584 -244.470076 
L 337.470878 -244.470076 
L 332.312173 -238.667886 
L 327.153467 -244.470076 
L 321.994761 -244.470076 
L 316.836055 -244.470076 
L 311.67735 -244.470076 
L 306.518644 -238.667886 
L 301.359938 -238.794412 
L 296.201233 -238.667886 
L 291.042527 -238.667886 
L 285.883821 -238.667886 
L 280.725116 -238.667886 
L 275.56641 -241.373418 
L 270.407704 -241.373418 
L 265.248998 -235.029535 
L 260.090293 -240.995664 
L 254.931587 -241.405106 
L 249.772881 -241.373418 
L 244.614176 -240.995664 
L 239.45547 -240.995664 
L 234.296764 -238.683646 
L 229.138059 -244.67959 
L 223.979353 -244.54921 
L 218.820647 -228.864699 
L 213.661941 -186.033071 
L 208.503236 -186.032966 
L 203.34453 -165.236246 
L 198.185824 -212.60077 
L 193.027119 -212.885885 
L 187.868413 -233.698871 
L 182.709707 -212.393599 
L 177.551002 -212.790333 
L 172.392296 -208.095561 
L 167.23359 -206.837046 
L 162.074884 -201.689872 
L 156.916179 -237.249534 
L 151.757473 -230.890316 
L 146.598767 -211.120456 
L 141.440062 -205.696245 
L 136.281356 -174.725008 
L 131.12265 -210.328481 
L 125.963945 -192.152353 
L 120.805239 -128.675053 
L 115.646533 -152.298501 
L 110.487827 -130.231407 
L 105.329122 -155.662784 
L 100.170416 -129.742256 
L 95.01171 -75.706513 
L 89.853005 -163.468618 
L 84.694299 -91.056512 
L 79.535593 -35.091182 
L 74.376888 -31.765906 
L 69.218182 -31.837087 
z
" style="stroke: #9d02d7; stroke-opacity: 0.2"/>
    </defs>
    <g clip-path="url(#pf05eee4707)">
     <use xlink:href="#ma5310dcf9d" x="0" y="288" style="fill: #9d02d7; fill-opacity: 0.2; stroke: #9d02d7; stroke-opacity: 0.2"/>
    </g>
   </g>
   <g id="PolyCollection_2">
    <defs>
     <path id="m4b68a03f96" d="M 69.218182 -35.091182 
L 69.218182 -35.091182 
L 74.376888 -35.396531 
L 79.535593 -33.535302 
L 84.694299 -125.049314 
L 89.853005 -49.208366 
L 95.01171 -48.536032 
L 100.170416 -47.538513 
L 105.329122 -41.483284 
L 110.487827 -49.695573 
L 115.646533 -34.795719 
L 120.805239 -34.766912 
L 125.963945 -194.387538 
L 131.12265 -126.810029 
L 136.281356 -191.723575 
L 141.440062 -178.288209 
L 146.598767 -203.926921 
L 151.757473 -197.021848 
L 156.916179 -194.522305 
L 162.074884 -204.764605 
L 167.23359 -241.437156 
L 172.392296 -204.745293 
L 177.551002 -209.039972 
L 182.709707 -232.1813 
L 187.868413 -232.178293 
L 193.027119 -232.013775 
L 198.185824 -232.013775 
L 203.34453 -233.511422 
L 208.503236 -233.511422 
L 213.661941 -242.364661 
L 218.820647 -225.392392 
L 223.979353 -242.349599 
L 229.138059 -243.044498 
L 234.296764 -242.276302 
L 239.45547 -244.173255 
L 244.614176 -244.173255 
L 249.772881 -244.173255 
L 254.931587 -244.173255 
L 260.090293 -244.173255 
L 265.248998 -244.173255 
L 270.407704 -244.173255 
L 275.56641 -244.173255 
L 280.725116 -244.173255 
L 285.883821 -244.173255 
L 291.042527 -244.173255 
L 296.201233 -244.173255 
L 301.359938 -244.173255 
L 306.518644 -244.173255 
L 311.67735 -244.173255 
L 316.836055 -244.173255 
L 321.994761 -244.173255 
L 327.153467 -244.173255 
L 332.312173 -244.173255 
L 337.470878 -244.173255 
L 342.629584 -244.173255 
L 347.78829 -244.173255 
L 352.946995 -244.173255 
L 358.105701 -244.173255 
L 363.264407 -244.173255 
L 368.423112 -244.173255 
L 373.581818 -244.173255 
L 373.581818 -244.173255 
L 373.581818 -244.173255 
L 368.423112 -244.173255 
L 363.264407 -244.173255 
L 358.105701 -244.173255 
L 352.946995 -244.173255 
L 347.78829 -244.173255 
L 342.629584 -244.173255 
L 337.470878 -244.173255 
L 332.312173 -244.173255 
L 327.153467 -244.173255 
L 321.994761 -244.173255 
L 316.836055 -244.173255 
L 311.67735 -244.173255 
L 306.518644 -244.173255 
L 301.359938 -244.173255 
L 296.201233 -244.173255 
L 291.042527 -244.173255 
L 285.883821 -244.173255 
L 280.725116 -244.173255 
L 275.56641 -244.173255 
L 270.407704 -244.173255 
L 265.248998 -244.173255 
L 260.090293 -244.173255 
L 254.931587 -244.173255 
L 249.772881 -244.173255 
L 244.614176 -244.173255 
L 239.45547 -244.173255 
L 234.296764 -242.276302 
L 229.138059 -243.044498 
L 223.979353 -242.349599 
L 218.820647 -225.392392 
L 213.661941 -242.364661 
L 208.503236 -233.511422 
L 203.34453 -233.511422 
L 198.185824 -232.013775 
L 193.027119 -232.013775 
L 187.868413 -232.178293 
L 182.709707 -232.1813 
L 177.551002 -209.039972 
L 172.392296 -204.745293 
L 167.23359 -241.437156 
L 162.074884 -204.764605 
L 156.916179 -194.522305 
L 151.757473 -197.021848 
L 146.598767 -203.926921 
L 141.440062 -178.288209 
L 136.281356 -191.723575 
L 131.12265 -126.810029 
L 125.963945 -194.387538 
L 120.805239 -34.766912 
L 115.646533 -34.795719 
L 110.487827 -49.695573 
L 105.329122 -41.483284 
L 100.170416 -47.538513 
L 95.01171 -48.536032 
L 89.853005 -49.208366 
L 84.694299 -125.049314 
L 79.535593 -33.535302 
L 74.376888 -35.396531 
L 69.218182 -35.091182 
z
" style="stroke: #0000ff; stroke-opacity: 0.2"/>
    </defs>
    <g clip-path="url(#pf05eee4707)">
     <use xlink:href="#m4b68a03f96" x="0" y="288" style="fill: #0000ff; fill-opacity: 0.2; stroke: #0000ff; stroke-opacity: 0.2"/>
    </g>
   </g>
   <g id="PolyCollection_3">
    <defs>
     <path id="mc67d68dbdc" d="M 69.218182 -35.091182 
L 69.218182 -35.091182 
L 74.376888 -33.706998 
L 79.535593 -34.152027 
L 84.694299 -129.006901 
L 89.853005 -27.351863 
L 95.01171 -31.58145 
L 100.170416 -33.171414 
L 105.329122 -34.719044 
L 110.487827 -60.661297 
L 115.646533 -35.940012 
L 120.805239 -39.124004 
L 125.963945 -34.211351 
L 131.12265 -35.431745 
L 136.281356 -40.072428 
L 141.440062 -35.696982 
L 146.598767 -33.549367 
L 151.757473 -34.187095 
L 156.916179 -34.105843 
L 162.074884 -34.90268 
L 167.23359 -34.140708 
L 172.392296 -100.251128 
L 177.551002 -163.871335 
L 182.709707 -171.334789 
L 187.868413 -205.204797 
L 193.027119 -205.514088 
L 198.185824 -226.527264 
L 203.34453 -206.072514 
L 208.503236 -226.454766 
L 213.661941 -223.38444 
L 218.820647 -231.41346 
L 223.979353 -240.704643 
L 229.138059 -240.31401 
L 234.296764 -239.69117 
L 239.45547 -239.69117 
L 244.614176 -239.69117 
L 249.772881 -239.69117 
L 254.931587 -239.691255 
L 260.090293 -240.868164 
L 265.248998 -240.868164 
L 270.407704 -240.868164 
L 275.56641 -240.868164 
L 280.725116 -240.73101 
L 285.883821 -240.868164 
L 291.042527 -240.868164 
L 296.201233 -240.868164 
L 301.359938 -244.372987 
L 306.518644 -240.73101 
L 311.67735 -240.73101 
L 316.836055 -240.73101 
L 321.994761 -244.372987 
L 327.153467 -240.73101 
L 332.312173 -240.73101 
L 337.470878 -240.73101 
L 342.629584 -240.73101 
L 347.78829 -240.73101 
L 352.946995 -240.73101 
L 358.105701 -244.372987 
L 363.264407 -244.372987 
L 368.423112 -244.372987 
L 373.581818 -244.372987 
L 373.581818 -244.372987 
L 373.581818 -244.372987 
L 368.423112 -244.372987 
L 363.264407 -244.372987 
L 358.105701 -244.372987 
L 352.946995 -240.73101 
L 347.78829 -240.73101 
L 342.629584 -240.73101 
L 337.470878 -240.73101 
L 332.312173 -240.73101 
L 327.153467 -240.73101 
L 321.994761 -244.372987 
L 316.836055 -240.73101 
L 311.67735 -240.73101 
L 306.518644 -240.73101 
L 301.359938 -244.372987 
L 296.201233 -240.868164 
L 291.042527 -240.868164 
L 285.883821 -240.868164 
L 280.725116 -240.73101 
L 275.56641 -240.868164 
L 270.407704 -240.868164 
L 265.248998 -240.868164 
L 260.090293 -240.868164 
L 254.931587 -239.691255 
L 249.772881 -239.69117 
L 244.614176 -239.69117 
L 239.45547 -239.69117 
L 234.296764 -239.69117 
L 229.138059 -240.31401 
L 223.979353 -240.704643 
L 218.820647 -231.41346 
L 213.661941 -223.38444 
L 208.503236 -226.454766 
L 203.34453 -206.072514 
L 198.185824 -226.527264 
L 193.027119 -205.514088 
L 187.868413 -205.204797 
L 182.709707 -171.334789 
L 177.551002 -163.871335 
L 172.392296 -100.251128 
L 167.23359 -34.140708 
L 162.074884 -34.90268 
L 156.916179 -34.105843 
L 151.757473 -34.187095 
L 146.598767 -33.549367 
L 141.440062 -35.696982 
L 136.281356 -40.072428 
L 131.12265 -35.431745 
L 125.963945 -34.211351 
L 120.805239 -39.124004 
L 115.646533 -35.940012 
L 110.487827 -60.661297 
L 105.329122 -34.719044 
L 100.170416 -33.171414 
L 95.01171 -31.58145 
L 89.853005 -27.351863 
L 84.694299 -129.006901 
L 79.535593 -34.152027 
L 74.376888 -33.706998 
L 69.218182 -35.091182 
z
" style="stroke: #ff7763; stroke-opacity: 0.2"/>
    </defs>
    <g clip-path="url(#pf05eee4707)">
     <use xlink:href="#mc67d68dbdc" x="0" y="288" style="fill: #ff7763; fill-opacity: 0.2; stroke: #ff7763; stroke-opacity: 0.2"/>
    </g>
   </g>
   <g id="PolyCollection_4">
    <defs>
     <path id="m2e4f6c3114" d="M 69.218182 -19.602667 
L 69.218182 -19.602667 
L 74.376888 -28.841787 
L 79.535593 -35.091182 
L 84.694299 -36.003607 
L 89.853005 -34.963309 
L 95.01171 -32.426006 
L 100.170416 -35.038202 
L 105.329122 -34.740534 
L 110.487827 -34.750264 
L 115.646533 -34.818075 
L 120.805239 -36.825412 
L 125.963945 -34.812254 
L 131.12265 -35.424899 
L 136.281356 -34.888466 
L 141.440062 -34.879692 
L 146.598767 -34.828346 
L 151.757473 -35.070752 
L 156.916179 -34.90284 
L 162.074884 -35.091182 
L 167.23359 -35.091182 
L 172.392296 -35.091182 
L 177.551002 -35.079424 
L 182.709707 -34.853015 
L 187.868413 -34.63253 
L 193.027119 -35.082686 
L 198.185824 -35.091182 
L 203.34453 -34.974785 
L 208.503236 -35.091182 
L 213.661941 -34.90601 
L 218.820647 -35.079269 
L 223.979353 -35.080448 
L 229.138059 -35.060853 
L 234.296764 -35.065932 
L 239.45547 -35.085191 
L 244.614176 -34.828459 
L 249.772881 -34.939122 
L 254.931587 -38.642249 
L 260.090293 -73.526228 
L 265.248998 -33.729218 
L 270.407704 -110.778741 
L 275.56641 -32.999465 
L 280.725116 -62.422681 
L 285.883821 -42.61496 
L 291.042527 -46.469771 
L 296.201233 -35.30597 
L 301.359938 -32.13201 
L 306.518644 -30.243148 
L 311.67735 -35.657946 
L 316.836055 -40.256857 
L 321.994761 -28.342024 
L 327.153467 -66.242595 
L 332.312173 -21.676503 
L 337.470878 -194.038881 
L 342.629584 -195.934572 
L 347.78829 -195.943205 
L 352.946995 -197.489206 
L 358.105701 -190.184003 
L 363.264407 -194.279177 
L 368.423112 -197.361801 
L 373.581818 -196.705115 
L 373.581818 -196.705115 
L 373.581818 -196.705115 
L 368.423112 -197.361801 
L 363.264407 -194.279177 
L 358.105701 -190.184003 
L 352.946995 -197.489206 
L 347.78829 -195.943205 
L 342.629584 -195.934572 
L 337.470878 -194.038881 
L 332.312173 -21.676503 
L 327.153467 -66.242595 
L 321.994761 -28.342024 
L 316.836055 -40.256857 
L 311.67735 -35.657946 
L 306.518644 -30.243148 
L 301.359938 -32.13201 
L 296.201233 -35.30597 
L 291.042527 -46.469771 
L 285.883821 -42.61496 
L 280.725116 -62.422681 
L 275.56641 -32.999465 
L 270.407704 -110.778741 
L 265.248998 -33.729218 
L 260.090293 -73.526228 
L 254.931587 -38.642249 
L 249.772881 -34.939122 
L 244.614176 -34.828459 
L 239.45547 -35.085191 
L 234.296764 -35.065932 
L 229.138059 -35.060853 
L 223.979353 -35.080448 
L 218.820647 -35.079269 
L 213.661941 -34.90601 
L 208.503236 -35.091182 
L 203.34453 -34.974785 
L 198.185824 -35.091182 
L 193.027119 -35.082686 
L 187.868413 -34.63253 
L 182.709707 -34.853015 
L 177.551002 -35.079424 
L 172.392296 -35.091182 
L 167.23359 -35.091182 
L 162.074884 -35.091182 
L 156.916179 -34.90284 
L 151.757473 -35.070752 
L 146.598767 -34.828346 
L 141.440062 -34.879692 
L 136.281356 -34.888466 
L 131.12265 -35.424899 
L 125.963945 -34.812254 
L 120.805239 -36.825412 
L 115.646533 -34.818075 
L 110.487827 -34.750264 
L 105.329122 -34.740534 
L 100.170416 -35.038202 
L 95.01171 -32.426006 
L 89.853005 -34.963309 
L 84.694299 -36.003607 
L 79.535593 -35.091182 
L 74.376888 -28.841787 
L 69.218182 -19.602667 
z
" style="stroke: #ffac1e; stroke-opacity: 0.2"/>
    </defs>
    <g clip-path="url(#pf05eee4707)">
     <use xlink:href="#m2e4f6c3114" x="0" y="288" style="fill: #ffac1e; fill-opacity: 0.2; stroke: #ffac1e; stroke-opacity: 0.2"/>
    </g>
   </g>
   <g id="PolyCollection_5">
    <defs>
     <path id="m34f723e22d" d="M 69.218182 -35.929972 
L 69.218182 -35.929972 
L 74.376888 -31.553121 
L 79.535593 -26.572666 
L 84.694299 -35.091182 
L 89.853005 -147.653711 
L 95.01171 -189.079395 
L 100.170416 -120.393647 
L 105.329122 -139.904842 
L 110.487827 -145.092712 
L 115.646533 -145.621379 
L 120.805239 -145.19598 
L 125.963945 -140.278358 
L 131.12265 -140.207777 
L 136.281356 -220.530988 
L 141.440062 -205.246571 
L 146.598767 -226.435415 
L 151.757473 -225.391431 
L 156.916179 -221.666832 
L 162.074884 -216.347591 
L 167.23359 -222.859771 
L 172.392296 -207.37418 
L 177.551002 -218.261143 
L 182.709707 -222.964344 
L 187.868413 -216.701289 
L 193.027119 -235.22797 
L 198.185824 -156.31903 
L 203.34453 -162.272526 
L 208.503236 -155.651096 
L 213.661941 -227.403589 
L 218.820647 -222.315308 
L 223.979353 -215.691733 
L 229.138059 -219.589964 
L 234.296764 -190.498507 
L 239.45547 -214.434157 
L 244.614176 -197.869913 
L 249.772881 -216.220732 
L 254.931587 -197.034248 
L 260.090293 -197.816766 
L 265.248998 -228.233563 
L 270.407704 -213.095691 
L 275.56641 -203.433005 
L 280.725116 -232.034249 
L 285.883821 -200.097886 
L 291.042527 -204.878994 
L 296.201233 -220.767463 
L 301.359938 -204.634678 
L 306.518644 -188.980809 
L 311.67735 -191.042006 
L 316.836055 -205.061491 
L 321.994761 -226.422802 
L 327.153467 -190.857899 
L 332.312173 -190.94466 
L 337.470878 -229.629129 
L 342.629584 -201.218168 
L 347.78829 -196.46655 
L 352.946995 -200.606618 
L 358.105701 -231.061119 
L 363.264407 -193.828107 
L 368.423112 -210.455351 
L 373.581818 -200.394889 
L 373.581818 -200.394889 
L 373.581818 -200.394889 
L 368.423112 -210.455351 
L 363.264407 -193.828107 
L 358.105701 -231.061119 
L 352.946995 -200.606618 
L 347.78829 -196.46655 
L 342.629584 -201.218168 
L 337.470878 -229.629129 
L 332.312173 -190.94466 
L 327.153467 -190.857899 
L 321.994761 -226.422802 
L 316.836055 -205.061491 
L 311.67735 -191.042006 
L 306.518644 -188.980809 
L 301.359938 -204.634678 
L 296.201233 -220.767463 
L 291.042527 -204.878994 
L 285.883821 -200.097886 
L 280.725116 -232.034249 
L 275.56641 -203.433005 
L 270.407704 -213.095691 
L 265.248998 -228.233563 
L 260.090293 -197.816766 
L 254.931587 -197.034248 
L 249.772881 -216.220732 
L 244.614176 -197.869913 
L 239.45547 -214.434157 
L 234.296764 -190.498507 
L 229.138059 -219.589964 
L 223.979353 -215.691733 
L 218.820647 -222.315308 
L 213.661941 -227.403589 
L 208.503236 -155.651096 
L 203.34453 -162.272526 
L 198.185824 -156.31903 
L 193.027119 -235.22797 
L 187.868413 -216.701289 
L 182.709707 -222.964344 
L 177.551002 -218.261143 
L 172.392296 -207.37418 
L 167.23359 -222.859771 
L 162.074884 -216.347591 
L 156.916179 -221.666832 
L 151.757473 -225.391431 
L 146.598767 -226.435415 
L 141.440062 -205.246571 
L 136.281356 -220.530988 
L 131.12265 -140.207777 
L 125.963945 -140.278358 
L 120.805239 -145.19598 
L 115.646533 -145.621379 
L 110.487827 -145.092712 
L 105.329122 -139.904842 
L 100.170416 -120.393647 
L 95.01171 -189.079395 
L 89.853005 -147.653711 
L 84.694299 -35.091182 
L 79.535593 -26.572666 
L 74.376888 -31.553121 
L 69.218182 -35.929972 
z
" style="stroke: #009435; stroke-opacity: 0.2"/>
    </defs>
    <g clip-path="url(#pf05eee4707)">
     <use xlink:href="#m34f723e22d" x="0" y="288" style="fill: #009435; fill-opacity: 0.2; stroke: #009435; stroke-opacity: 0.2"/>
    </g>
   </g>
   <g id="matplotlib.axis_1">
    <g id="xtick_1">
     <g id="line2d_1">
      <path d="M 69.218182 252 
L 69.218182 34.56 
" clip-path="url(#pf05eee4707)" style="fill: none; stroke-dasharray: 2.96,1.28; stroke-dashoffset: 0; stroke: #b0b0b0; stroke-width: 0.8"/>
     </g>
     <g id="line2d_2">
      <defs>
       <path id="md98ff6c9bd" d="M 0 0 
L 0 3.5 
" style="stroke: #000000; stroke-width: 0.8"/>
      </defs>
      <g>
       <use xlink:href="#md98ff6c9bd" x="69.218182" y="252" style="stroke: #000000; stroke-width: 0.8"/>
      </g>
     </g>
     <g id="text_1">
      <!-- 0 -->
      <g transform="translate(66.036932 266.598437)scale(0.1 -0.1)">
       <defs>
        <path id="DejaVuSans-30" d="M 2034 4250 
Q 1547 4250 1301 3770 
Q 1056 3291 1056 2328 
Q 1056 1369 1301 889 
Q 1547 409 2034 409 
Q 2525 409 2770 889 
Q 3016 1369 3016 2328 
Q 3016 3291 2770 3770 
Q 2525 4250 2034 4250 
z
M 2034 4750 
Q 2819 4750 3233 4129 
Q 3647 3509 3647 2328 
Q 3647 1150 3233 529 
Q 2819 -91 2034 -91 
Q 1250 -91 836 529 
Q 422 1150 422 2328 
Q 422 3509 836 4129 
Q 1250 4750 2034 4750 
z
" transform="scale(0.015625)"/>
       </defs>
       <use xlink:href="#DejaVuSans-30"/>
      </g>
     </g>
    </g>
    <g id="xtick_2">
     <g id="line2d_3">
      <path d="M 120.805239 252 
L 120.805239 34.56 
" clip-path="url(#pf05eee4707)" style="fill: none; stroke-dasharray: 2.96,1.28; stroke-dashoffset: 0; stroke: #b0b0b0; stroke-width: 0.8"/>
     </g>
     <g id="line2d_4">
      <g>
       <use xlink:href="#md98ff6c9bd" x="120.805239" y="252" style="stroke: #000000; stroke-width: 0.8"/>
      </g>
     </g>
     <g id="text_2">
      <!-- 500 -->
      <g transform="translate(111.261489 266.598437)scale(0.1 -0.1)">
       <defs>
        <path id="DejaVuSans-35" d="M 691 4666 
L 3169 4666 
L 3169 4134 
L 1269 4134 
L 1269 2991 
Q 1406 3038 1543 3061 
Q 1681 3084 1819 3084 
Q 2600 3084 3056 2656 
Q 3513 2228 3513 1497 
Q 3513 744 3044 326 
Q 2575 -91 1722 -91 
Q 1428 -91 1123 -41 
Q 819 9 494 109 
L 494 744 
Q 775 591 1075 516 
Q 1375 441 1709 441 
Q 2250 441 2565 725 
Q 2881 1009 2881 1497 
Q 2881 1984 2565 2268 
Q 2250 2553 1709 2553 
Q 1456 2553 1204 2497 
Q 953 2441 691 2322 
L 691 4666 
z
" transform="scale(0.015625)"/>
       </defs>
       <use xlink:href="#DejaVuSans-35"/>
       <use xlink:href="#DejaVuSans-30" x="63.623047"/>
       <use xlink:href="#DejaVuSans-30" x="127.246094"/>
      </g>
     </g>
    </g>
    <g id="xtick_3">
     <g id="line2d_5">
      <path d="M 172.392296 252 
L 172.392296 34.56 
" clip-path="url(#pf05eee4707)" style="fill: none; stroke-dasharray: 2.96,1.28; stroke-dashoffset: 0; stroke: #b0b0b0; stroke-width: 0.8"/>
     </g>
     <g id="line2d_6">
      <g>
       <use xlink:href="#md98ff6c9bd" x="172.392296" y="252" style="stroke: #000000; stroke-width: 0.8"/>
      </g>
     </g>
     <g id="text_3">
      <!-- 1000 -->
      <g transform="translate(159.667296 266.598437)scale(0.1 -0.1)">
       <defs>
        <path id="DejaVuSans-31" d="M 794 531 
L 1825 531 
L 1825 4091 
L 703 3866 
L 703 4441 
L 1819 4666 
L 2450 4666 
L 2450 531 
L 3481 531 
L 3481 0 
L 794 0 
L 794 531 
z
" transform="scale(0.015625)"/>
       </defs>
       <use xlink:href="#DejaVuSans-31"/>
       <use xlink:href="#DejaVuSans-30" x="63.623047"/>
       <use xlink:href="#DejaVuSans-30" x="127.246094"/>
       <use xlink:href="#DejaVuSans-30" x="190.869141"/>
      </g>
     </g>
    </g>
    <g id="xtick_4">
     <g id="line2d_7">
      <path d="M 223.979353 252 
L 223.979353 34.56 
" clip-path="url(#pf05eee4707)" style="fill: none; stroke-dasharray: 2.96,1.28; stroke-dashoffset: 0; stroke: #b0b0b0; stroke-width: 0.8"/>
     </g>
     <g id="line2d_8">
      <g>
       <use xlink:href="#md98ff6c9bd" x="223.979353" y="252" style="stroke: #000000; stroke-width: 0.8"/>
      </g>
     </g>
     <g id="text_4">
      <!-- 1500 -->
      <g transform="translate(211.254353 266.598437)scale(0.1 -0.1)">
       <use xlink:href="#DejaVuSans-31"/>
       <use xlink:href="#DejaVuSans-35" x="63.623047"/>
       <use xlink:href="#DejaVuSans-30" x="127.246094"/>
       <use xlink:href="#DejaVuSans-30" x="190.869141"/>
      </g>
     </g>
    </g>
    <g id="xtick_5">
     <g id="line2d_9">
      <path d="M 275.56641 252 
L 275.56641 34.56 
" clip-path="url(#pf05eee4707)" style="fill: none; stroke-dasharray: 2.96,1.28; stroke-dashoffset: 0; stroke: #b0b0b0; stroke-width: 0.8"/>
     </g>
     <g id="line2d_10">
      <g>
       <use xlink:href="#md98ff6c9bd" x="275.56641" y="252" style="stroke: #000000; stroke-width: 0.8"/>
      </g>
     </g>
     <g id="text_5">
      <!-- 2000 -->
      <g transform="translate(262.84141 266.598437)scale(0.1 -0.1)">
       <defs>
        <path id="DejaVuSans-32" d="M 1228 531 
L 3431 531 
L 3431 0 
L 469 0 
L 469 531 
Q 828 903 1448 1529 
Q 2069 2156 2228 2338 
Q 2531 2678 2651 2914 
Q 2772 3150 2772 3378 
Q 2772 3750 2511 3984 
Q 2250 4219 1831 4219 
Q 1534 4219 1204 4116 
Q 875 4013 500 3803 
L 500 4441 
Q 881 4594 1212 4672 
Q 1544 4750 1819 4750 
Q 2544 4750 2975 4387 
Q 3406 4025 3406 3419 
Q 3406 3131 3298 2873 
Q 3191 2616 2906 2266 
Q 2828 2175 2409 1742 
Q 1991 1309 1228 531 
z
" transform="scale(0.015625)"/>
       </defs>
       <use xlink:href="#DejaVuSans-32"/>
       <use xlink:href="#DejaVuSans-30" x="63.623047"/>
       <use xlink:href="#DejaVuSans-30" x="127.246094"/>
       <use xlink:href="#DejaVuSans-30" x="190.869141"/>
      </g>
     </g>
    </g>
    <g id="xtick_6">
     <g id="line2d_11">
      <path d="M 327.153467 252 
L 327.153467 34.56 
" clip-path="url(#pf05eee4707)" style="fill: none; stroke-dasharray: 2.96,1.28; stroke-dashoffset: 0; stroke: #b0b0b0; stroke-width: 0.8"/>
     </g>
     <g id="line2d_12">
      <g>
       <use xlink:href="#md98ff6c9bd" x="327.153467" y="252" style="stroke: #000000; stroke-width: 0.8"/>
      </g>
     </g>
     <g id="text_6">
      <!-- 2500 -->
      <g transform="translate(314.428467 266.598437)scale(0.1 -0.1)">
       <use xlink:href="#DejaVuSans-32"/>
       <use xlink:href="#DejaVuSans-35" x="63.623047"/>
       <use xlink:href="#DejaVuSans-30" x="127.246094"/>
       <use xlink:href="#DejaVuSans-30" x="190.869141"/>
      </g>
     </g>
    </g>
    <g id="xtick_7">
     <g id="line2d_13">
      <path d="M 378.740524 252 
L 378.740524 34.56 
" clip-path="url(#pf05eee4707)" style="fill: none; stroke-dasharray: 2.96,1.28; stroke-dashoffset: 0; stroke: #b0b0b0; stroke-width: 0.8"/>
     </g>
     <g id="line2d_14">
      <g>
       <use xlink:href="#md98ff6c9bd" x="378.740524" y="252" style="stroke: #000000; stroke-width: 0.8"/>
      </g>
     </g>
     <g id="text_7">
      <!-- 3000 -->
      <g transform="translate(366.015524 266.598437)scale(0.1 -0.1)">
       <defs>
        <path id="DejaVuSans-33" d="M 2597 2516 
Q 3050 2419 3304 2112 
Q 3559 1806 3559 1356 
Q 3559 666 3084 287 
Q 2609 -91 1734 -91 
Q 1441 -91 1130 -33 
Q 819 25 488 141 
L 488 750 
Q 750 597 1062 519 
Q 1375 441 1716 441 
Q 2309 441 2620 675 
Q 2931 909 2931 1356 
Q 2931 1769 2642 2001 
Q 2353 2234 1838 2234 
L 1294 2234 
L 1294 2753 
L 1863 2753 
Q 2328 2753 2575 2939 
Q 2822 3125 2822 3475 
Q 2822 3834 2567 4026 
Q 2313 4219 1838 4219 
Q 1578 4219 1281 4162 
Q 984 4106 628 3988 
L 628 4550 
Q 988 4650 1302 4700 
Q 1616 4750 1894 4750 
Q 2613 4750 3031 4423 
Q 3450 4097 3450 3541 
Q 3450 3153 3228 2886 
Q 3006 2619 2597 2516 
z
" transform="scale(0.015625)"/>
       </defs>
       <use xlink:href="#DejaVuSans-33"/>
       <use xlink:href="#DejaVuSans-30" x="63.623047"/>
       <use xlink:href="#DejaVuSans-30" x="127.246094"/>
       <use xlink:href="#DejaVuSans-30" x="190.869141"/>
      </g>
     </g>
    </g>
    <g id="text_8">
     <!-- Steps -->
     <g transform="translate(207.410156 280.276563)scale(0.1 -0.1)">
      <defs>
       <path id="DejaVuSans-53" d="M 3425 4513 
L 3425 3897 
Q 3066 4069 2747 4153 
Q 2428 4238 2131 4238 
Q 1616 4238 1336 4038 
Q 1056 3838 1056 3469 
Q 1056 3159 1242 3001 
Q 1428 2844 1947 2747 
L 2328 2669 
Q 3034 2534 3370 2195 
Q 3706 1856 3706 1288 
Q 3706 609 3251 259 
Q 2797 -91 1919 -91 
Q 1588 -91 1214 -16 
Q 841 59 441 206 
L 441 856 
Q 825 641 1194 531 
Q 1563 422 1919 422 
Q 2459 422 2753 634 
Q 3047 847 3047 1241 
Q 3047 1584 2836 1778 
Q 2625 1972 2144 2069 
L 1759 2144 
Q 1053 2284 737 2584 
Q 422 2884 422 3419 
Q 422 4038 858 4394 
Q 1294 4750 2059 4750 
Q 2388 4750 2728 4690 
Q 3069 4631 3425 4513 
z
" transform="scale(0.015625)"/>
       <path id="DejaVuSans-74" d="M 1172 4494 
L 1172 3500 
L 2356 3500 
L 2356 3053 
L 1172 3053 
L 1172 1153 
Q 1172 725 1289 603 
Q 1406 481 1766 481 
L 2356 481 
L 2356 0 
L 1766 0 
Q 1100 0 847 248 
Q 594 497 594 1153 
L 594 3053 
L 172 3053 
L 172 3500 
L 594 3500 
L 594 4494 
L 1172 4494 
z
" transform="scale(0.015625)"/>
       <path id="DejaVuSans-65" d="M 3597 1894 
L 3597 1613 
L 953 1613 
Q 991 1019 1311 708 
Q 1631 397 2203 397 
Q 2534 397 2845 478 
Q 3156 559 3463 722 
L 3463 178 
Q 3153 47 2828 -22 
Q 2503 -91 2169 -91 
Q 1331 -91 842 396 
Q 353 884 353 1716 
Q 353 2575 817 3079 
Q 1281 3584 2069 3584 
Q 2775 3584 3186 3129 
Q 3597 2675 3597 1894 
z
M 3022 2063 
Q 3016 2534 2758 2815 
Q 2500 3097 2075 3097 
Q 1594 3097 1305 2825 
Q 1016 2553 972 2059 
L 3022 2063 
z
" transform="scale(0.015625)"/>
       <path id="DejaVuSans-70" d="M 1159 525 
L 1159 -1331 
L 581 -1331 
L 581 3500 
L 1159 3500 
L 1159 2969 
Q 1341 3281 1617 3432 
Q 1894 3584 2278 3584 
Q 2916 3584 3314 3078 
Q 3713 2572 3713 1747 
Q 3713 922 3314 415 
Q 2916 -91 2278 -91 
Q 1894 -91 1617 61 
Q 1341 213 1159 525 
z
M 3116 1747 
Q 3116 2381 2855 2742 
Q 2594 3103 2138 3103 
Q 1681 3103 1420 2742 
Q 1159 2381 1159 1747 
Q 1159 1113 1420 752 
Q 1681 391 2138 391 
Q 2594 391 2855 752 
Q 3116 1113 3116 1747 
z
" transform="scale(0.015625)"/>
       <path id="DejaVuSans-73" d="M 2834 3397 
L 2834 2853 
Q 2591 2978 2328 3040 
Q 2066 3103 1784 3103 
Q 1356 3103 1142 2972 
Q 928 2841 928 2578 
Q 928 2378 1081 2264 
Q 1234 2150 1697 2047 
L 1894 2003 
Q 2506 1872 2764 1633 
Q 3022 1394 3022 966 
Q 3022 478 2636 193 
Q 2250 -91 1575 -91 
Q 1294 -91 989 -36 
Q 684 19 347 128 
L 347 722 
Q 666 556 975 473 
Q 1284 391 1588 391 
Q 1994 391 2212 530 
Q 2431 669 2431 922 
Q 2431 1156 2273 1281 
Q 2116 1406 1581 1522 
L 1381 1569 
Q 847 1681 609 1914 
Q 372 2147 372 2553 
Q 372 3047 722 3315 
Q 1072 3584 1716 3584 
Q 2034 3584 2315 3537 
Q 2597 3491 2834 3397 
z
" transform="scale(0.015625)"/>
      </defs>
      <use xlink:href="#DejaVuSans-53"/>
      <use xlink:href="#DejaVuSans-74" x="63.476562"/>
      <use xlink:href="#DejaVuSans-65" x="102.685547"/>
      <use xlink:href="#DejaVuSans-70" x="164.208984"/>
      <use xlink:href="#DejaVuSans-73" x="227.685547"/>
     </g>
    </g>
   </g>
   <g id="matplotlib.axis_2">
    <g id="ytick_1">
     <g id="line2d_15">
      <path d="M 54 243.636923 
L 388.8 243.636923 
" clip-path="url(#pf05eee4707)" style="fill: none; stroke-dasharray: 2.96,1.28; stroke-dashoffset: 0; stroke: #b0b0b0; stroke-width: 0.8"/>
     </g>
     <g id="line2d_16">
      <defs>
       <path id="mc6e4e4767d" d="M 0 0 
L -3.5 0 
" style="stroke: #000000; stroke-width: 0.8"/>
      </defs>
      <g>
       <use xlink:href="#mc6e4e4767d" x="54" y="243.636923" style="stroke: #000000; stroke-width: 0.8"/>
      </g>
     </g>
     <g id="text_9">
      <!-- −12 -->
      <g transform="translate(25.895312 247.436142)scale(0.1 -0.1)">
       <defs>
        <path id="DejaVuSans-2212" d="M 678 2272 
L 4684 2272 
L 4684 1741 
L 678 1741 
L 678 2272 
z
" transform="scale(0.015625)"/>
       </defs>
       <use xlink:href="#DejaVuSans-2212"/>
       <use xlink:href="#DejaVuSans-31" x="83.789062"/>
       <use xlink:href="#DejaVuSans-32" x="147.412109"/>
      </g>
     </g>
    </g>
    <g id="ytick_2">
     <g id="line2d_17">
      <path d="M 54 210.184615 
L 388.8 210.184615 
" clip-path="url(#pf05eee4707)" style="fill: none; stroke-dasharray: 2.96,1.28; stroke-dashoffset: 0; stroke: #b0b0b0; stroke-width: 0.8"/>
     </g>
     <g id="line2d_18">
      <g>
       <use xlink:href="#mc6e4e4767d" x="54" y="210.184615" style="stroke: #000000; stroke-width: 0.8"/>
      </g>
     </g>
     <g id="text_10">
      <!-- −10 -->
      <g transform="translate(25.895312 213.983834)scale(0.1 -0.1)">
       <use xlink:href="#DejaVuSans-2212"/>
       <use xlink:href="#DejaVuSans-31" x="83.789062"/>
       <use xlink:href="#DejaVuSans-30" x="147.412109"/>
      </g>
     </g>
    </g>
    <g id="ytick_3">
     <g id="line2d_19">
      <path d="M 54 176.732308 
L 388.8 176.732308 
" clip-path="url(#pf05eee4707)" style="fill: none; stroke-dasharray: 2.96,1.28; stroke-dashoffset: 0; stroke: #b0b0b0; stroke-width: 0.8"/>
     </g>
     <g id="line2d_20">
      <g>
       <use xlink:href="#mc6e4e4767d" x="54" y="176.732308" style="stroke: #000000; stroke-width: 0.8"/>
      </g>
     </g>
     <g id="text_11">
      <!-- −8 -->
      <g transform="translate(32.257812 180.531526)scale(0.1 -0.1)">
       <defs>
        <path id="DejaVuSans-38" d="M 2034 2216 
Q 1584 2216 1326 1975 
Q 1069 1734 1069 1313 
Q 1069 891 1326 650 
Q 1584 409 2034 409 
Q 2484 409 2743 651 
Q 3003 894 3003 1313 
Q 3003 1734 2745 1975 
Q 2488 2216 2034 2216 
z
M 1403 2484 
Q 997 2584 770 2862 
Q 544 3141 544 3541 
Q 544 4100 942 4425 
Q 1341 4750 2034 4750 
Q 2731 4750 3128 4425 
Q 3525 4100 3525 3541 
Q 3525 3141 3298 2862 
Q 3072 2584 2669 2484 
Q 3125 2378 3379 2068 
Q 3634 1759 3634 1313 
Q 3634 634 3220 271 
Q 2806 -91 2034 -91 
Q 1263 -91 848 271 
Q 434 634 434 1313 
Q 434 1759 690 2068 
Q 947 2378 1403 2484 
z
M 1172 3481 
Q 1172 3119 1398 2916 
Q 1625 2713 2034 2713 
Q 2441 2713 2670 2916 
Q 2900 3119 2900 3481 
Q 2900 3844 2670 4047 
Q 2441 4250 2034 4250 
Q 1625 4250 1398 4047 
Q 1172 3844 1172 3481 
z
" transform="scale(0.015625)"/>
       </defs>
       <use xlink:href="#DejaVuSans-2212"/>
       <use xlink:href="#DejaVuSans-38" x="83.789062"/>
      </g>
     </g>
    </g>
    <g id="ytick_4">
     <g id="line2d_21">
      <path d="M 54 143.28 
L 388.8 143.28 
" clip-path="url(#pf05eee4707)" style="fill: none; stroke-dasharray: 2.96,1.28; stroke-dashoffset: 0; stroke: #b0b0b0; stroke-width: 0.8"/>
     </g>
     <g id="line2d_22">
      <g>
       <use xlink:href="#mc6e4e4767d" x="54" y="143.28" style="stroke: #000000; stroke-width: 0.8"/>
      </g>
     </g>
     <g id="text_12">
      <!-- −6 -->
      <g transform="translate(32.257812 147.079219)scale(0.1 -0.1)">
       <defs>
        <path id="DejaVuSans-36" d="M 2113 2584 
Q 1688 2584 1439 2293 
Q 1191 2003 1191 1497 
Q 1191 994 1439 701 
Q 1688 409 2113 409 
Q 2538 409 2786 701 
Q 3034 994 3034 1497 
Q 3034 2003 2786 2293 
Q 2538 2584 2113 2584 
z
M 3366 4563 
L 3366 3988 
Q 3128 4100 2886 4159 
Q 2644 4219 2406 4219 
Q 1781 4219 1451 3797 
Q 1122 3375 1075 2522 
Q 1259 2794 1537 2939 
Q 1816 3084 2150 3084 
Q 2853 3084 3261 2657 
Q 3669 2231 3669 1497 
Q 3669 778 3244 343 
Q 2819 -91 2113 -91 
Q 1303 -91 875 529 
Q 447 1150 447 2328 
Q 447 3434 972 4092 
Q 1497 4750 2381 4750 
Q 2619 4750 2861 4703 
Q 3103 4656 3366 4563 
z
" transform="scale(0.015625)"/>
       </defs>
       <use xlink:href="#DejaVuSans-2212"/>
       <use xlink:href="#DejaVuSans-36" x="83.789062"/>
      </g>
     </g>
    </g>
    <g id="ytick_5">
     <g id="line2d_23">
      <path d="M 54 109.827692 
L 388.8 109.827692 
" clip-path="url(#pf05eee4707)" style="fill: none; stroke-dasharray: 2.96,1.28; stroke-dashoffset: 0; stroke: #b0b0b0; stroke-width: 0.8"/>
     </g>
     <g id="line2d_24">
      <g>
       <use xlink:href="#mc6e4e4767d" x="54" y="109.827692" style="stroke: #000000; stroke-width: 0.8"/>
      </g>
     </g>
     <g id="text_13">
      <!-- −4 -->
      <g transform="translate(32.257812 113.626911)scale(0.1 -0.1)">
       <defs>
        <path id="DejaVuSans-34" d="M 2419 4116 
L 825 1625 
L 2419 1625 
L 2419 4116 
z
M 2253 4666 
L 3047 4666 
L 3047 1625 
L 3713 1625 
L 3713 1100 
L 3047 1100 
L 3047 0 
L 2419 0 
L 2419 1100 
L 313 1100 
L 313 1709 
L 2253 4666 
z
" transform="scale(0.015625)"/>
       </defs>
       <use xlink:href="#DejaVuSans-2212"/>
       <use xlink:href="#DejaVuSans-34" x="83.789062"/>
      </g>
     </g>
    </g>
    <g id="ytick_6">
     <g id="line2d_25">
      <path d="M 54 76.375385 
L 388.8 76.375385 
" clip-path="url(#pf05eee4707)" style="fill: none; stroke-dasharray: 2.96,1.28; stroke-dashoffset: 0; stroke: #b0b0b0; stroke-width: 0.8"/>
     </g>
     <g id="line2d_26">
      <g>
       <use xlink:href="#mc6e4e4767d" x="54" y="76.375385" style="stroke: #000000; stroke-width: 0.8"/>
      </g>
     </g>
     <g id="text_14">
      <!-- −2 -->
      <g transform="translate(32.257812 80.174603)scale(0.1 -0.1)">
       <use xlink:href="#DejaVuSans-2212"/>
       <use xlink:href="#DejaVuSans-32" x="83.789062"/>
      </g>
     </g>
    </g>
    <g id="ytick_7">
     <g id="line2d_27">
      <path d="M 54 42.923077 
L 388.8 42.923077 
" clip-path="url(#pf05eee4707)" style="fill: none; stroke-dasharray: 2.96,1.28; stroke-dashoffset: 0; stroke: #b0b0b0; stroke-width: 0.8"/>
     </g>
     <g id="line2d_28">
      <g>
       <use xlink:href="#mc6e4e4767d" x="54" y="42.923077" style="stroke: #000000; stroke-width: 0.8"/>
      </g>
     </g>
     <g id="text_15">
      <!-- 0 -->
      <g transform="translate(40.6375 46.722296)scale(0.1 -0.1)">
       <use xlink:href="#DejaVuSans-30"/>
      </g>
     </g>
    </g>
    <g id="text_16">
     <!-- Policy value error -->
     <g transform="translate(19.815625 186.597969)rotate(-90)scale(0.1 -0.1)">
      <defs>
       <path id="DejaVuSans-50" d="M 1259 4147 
L 1259 2394 
L 2053 2394 
Q 2494 2394 2734 2622 
Q 2975 2850 2975 3272 
Q 2975 3691 2734 3919 
Q 2494 4147 2053 4147 
L 1259 4147 
z
M 628 4666 
L 2053 4666 
Q 2838 4666 3239 4311 
Q 3641 3956 3641 3272 
Q 3641 2581 3239 2228 
Q 2838 1875 2053 1875 
L 1259 1875 
L 1259 0 
L 628 0 
L 628 4666 
z
" transform="scale(0.015625)"/>
       <path id="DejaVuSans-6f" d="M 1959 3097 
Q 1497 3097 1228 2736 
Q 959 2375 959 1747 
Q 959 1119 1226 758 
Q 1494 397 1959 397 
Q 2419 397 2687 759 
Q 2956 1122 2956 1747 
Q 2956 2369 2687 2733 
Q 2419 3097 1959 3097 
z
M 1959 3584 
Q 2709 3584 3137 3096 
Q 3566 2609 3566 1747 
Q 3566 888 3137 398 
Q 2709 -91 1959 -91 
Q 1206 -91 779 398 
Q 353 888 353 1747 
Q 353 2609 779 3096 
Q 1206 3584 1959 3584 
z
" transform="scale(0.015625)"/>
       <path id="DejaVuSans-6c" d="M 603 4863 
L 1178 4863 
L 1178 0 
L 603 0 
L 603 4863 
z
" transform="scale(0.015625)"/>
       <path id="DejaVuSans-69" d="M 603 3500 
L 1178 3500 
L 1178 0 
L 603 0 
L 603 3500 
z
M 603 4863 
L 1178 4863 
L 1178 4134 
L 603 4134 
L 603 4863 
z
" transform="scale(0.015625)"/>
       <path id="DejaVuSans-63" d="M 3122 3366 
L 3122 2828 
Q 2878 2963 2633 3030 
Q 2388 3097 2138 3097 
Q 1578 3097 1268 2742 
Q 959 2388 959 1747 
Q 959 1106 1268 751 
Q 1578 397 2138 397 
Q 2388 397 2633 464 
Q 2878 531 3122 666 
L 3122 134 
Q 2881 22 2623 -34 
Q 2366 -91 2075 -91 
Q 1284 -91 818 406 
Q 353 903 353 1747 
Q 353 2603 823 3093 
Q 1294 3584 2113 3584 
Q 2378 3584 2631 3529 
Q 2884 3475 3122 3366 
z
" transform="scale(0.015625)"/>
       <path id="DejaVuSans-79" d="M 2059 -325 
Q 1816 -950 1584 -1140 
Q 1353 -1331 966 -1331 
L 506 -1331 
L 506 -850 
L 844 -850 
Q 1081 -850 1212 -737 
Q 1344 -625 1503 -206 
L 1606 56 
L 191 3500 
L 800 3500 
L 1894 763 
L 2988 3500 
L 3597 3500 
L 2059 -325 
z
" transform="scale(0.015625)"/>
       <path id="DejaVuSans-20" transform="scale(0.015625)"/>
       <path id="DejaVuSans-76" d="M 191 3500 
L 800 3500 
L 1894 563 
L 2988 3500 
L 3597 3500 
L 2284 0 
L 1503 0 
L 191 3500 
z
" transform="scale(0.015625)"/>
       <path id="DejaVuSans-61" d="M 2194 1759 
Q 1497 1759 1228 1600 
Q 959 1441 959 1056 
Q 959 750 1161 570 
Q 1363 391 1709 391 
Q 2188 391 2477 730 
Q 2766 1069 2766 1631 
L 2766 1759 
L 2194 1759 
z
M 3341 1997 
L 3341 0 
L 2766 0 
L 2766 531 
Q 2569 213 2275 61 
Q 1981 -91 1556 -91 
Q 1019 -91 701 211 
Q 384 513 384 1019 
Q 384 1609 779 1909 
Q 1175 2209 1959 2209 
L 2766 2209 
L 2766 2266 
Q 2766 2663 2505 2880 
Q 2244 3097 1772 3097 
Q 1472 3097 1187 3025 
Q 903 2953 641 2809 
L 641 3341 
Q 956 3463 1253 3523 
Q 1550 3584 1831 3584 
Q 2591 3584 2966 3190 
Q 3341 2797 3341 1997 
z
" transform="scale(0.015625)"/>
       <path id="DejaVuSans-75" d="M 544 1381 
L 544 3500 
L 1119 3500 
L 1119 1403 
Q 1119 906 1312 657 
Q 1506 409 1894 409 
Q 2359 409 2629 706 
Q 2900 1003 2900 1516 
L 2900 3500 
L 3475 3500 
L 3475 0 
L 2900 0 
L 2900 538 
Q 2691 219 2414 64 
Q 2138 -91 1772 -91 
Q 1169 -91 856 284 
Q 544 659 544 1381 
z
M 1991 3584 
L 1991 3584 
z
" transform="scale(0.015625)"/>
       <path id="DejaVuSans-72" d="M 2631 2963 
Q 2534 3019 2420 3045 
Q 2306 3072 2169 3072 
Q 1681 3072 1420 2755 
Q 1159 2438 1159 1844 
L 1159 0 
L 581 0 
L 581 3500 
L 1159 3500 
L 1159 2956 
Q 1341 3275 1631 3429 
Q 1922 3584 2338 3584 
Q 2397 3584 2469 3576 
Q 2541 3569 2628 3553 
L 2631 2963 
z
" transform="scale(0.015625)"/>
      </defs>
      <use xlink:href="#DejaVuSans-50"/>
      <use xlink:href="#DejaVuSans-6f" x="56.677734"/>
      <use xlink:href="#DejaVuSans-6c" x="117.859375"/>
      <use xlink:href="#DejaVuSans-69" x="145.642578"/>
      <use xlink:href="#DejaVuSans-63" x="173.425781"/>
      <use xlink:href="#DejaVuSans-79" x="228.40625"/>
      <use xlink:href="#DejaVuSans-20" x="287.585938"/>
      <use xlink:href="#DejaVuSans-76" x="319.373047"/>
      <use xlink:href="#DejaVuSans-61" x="378.552734"/>
      <use xlink:href="#DejaVuSans-6c" x="439.832031"/>
      <use xlink:href="#DejaVuSans-75" x="467.615234"/>
      <use xlink:href="#DejaVuSans-65" x="530.994141"/>
      <use xlink:href="#DejaVuSans-20" x="592.517578"/>
      <use xlink:href="#DejaVuSans-65" x="624.304688"/>
      <use xlink:href="#DejaVuSans-72" x="685.828125"/>
      <use xlink:href="#DejaVuSans-72" x="725.191406"/>
      <use xlink:href="#DejaVuSans-6f" x="764.054688"/>
      <use xlink:href="#DejaVuSans-72" x="825.236328"/>
     </g>
    </g>
   </g>
   <g id="line2d_29">
    <path d="M 69.218182 256.162913 
L 74.376888 256.234094 
L 79.535593 252.908818 
L 84.694299 196.943488 
L 89.853005 124.531382 
L 95.01171 212.293487 
L 100.170416 158.257744 
L 105.329122 132.337216 
L 110.487827 157.768593 
L 115.646533 135.701499 
L 120.805239 159.324947 
L 125.963945 95.847647 
L 131.12265 77.671519 
L 136.281356 113.274992 
L 141.440062 82.303755 
L 146.598767 76.879544 
L 151.757473 57.109684 
L 156.916179 50.750466 
L 162.074884 86.310128 
L 167.23359 81.162954 
L 172.392296 79.904439 
L 177.551002 75.209667 
L 182.709707 75.606401 
L 187.868413 54.301129 
L 193.027119 75.114115 
L 198.185824 75.39923 
L 203.34453 122.763754 
L 208.503236 101.967034 
L 213.661941 101.966929 
L 218.820647 59.135301 
L 223.979353 43.45079 
L 229.138059 43.32041 
L 234.296764 49.316354 
L 239.45547 47.004336 
L 244.614176 47.004336 
L 249.772881 46.626582 
L 254.931587 46.594894 
L 260.090293 47.004336 
L 265.248998 52.970465 
L 270.407704 46.626582 
L 275.56641 46.626582 
L 280.725116 49.332114 
L 285.883821 49.332114 
L 291.042527 49.332114 
L 296.201233 49.332114 
L 301.359938 49.205588 
L 306.518644 49.332114 
L 311.67735 43.529924 
L 316.836055 43.529924 
L 321.994761 43.529924 
L 327.153467 43.529924 
L 332.312173 49.332114 
L 337.470878 43.529924 
L 342.629584 43.529924 
L 347.78829 43.529924 
L 352.946995 43.529924 
L 358.105701 43.529924 
L 363.264407 43.529924 
L 368.423112 43.529924 
L 373.581818 43.529924 
" clip-path="url(#pf05eee4707)" style="fill: none; stroke: #9d02d7; stroke-width: 1.5; stroke-linecap: square"/>
    <defs>
     <path id="me3aa63e730" d="M 0 -2 
L -2 2 
L 2 2 
z
" style="stroke: #9d02d7; stroke-linejoin: miter"/>
    </defs>
    <g clip-path="url(#pf05eee4707)">
     <use xlink:href="#me3aa63e730" x="69.218182" y="256.162913" style="fill: #9d02d7; stroke: #9d02d7; stroke-linejoin: miter"/>
     <use xlink:href="#me3aa63e730" x="74.376888" y="256.234094" style="fill: #9d02d7; stroke: #9d02d7; stroke-linejoin: miter"/>
     <use xlink:href="#me3aa63e730" x="79.535593" y="252.908818" style="fill: #9d02d7; stroke: #9d02d7; stroke-linejoin: miter"/>
     <use xlink:href="#me3aa63e730" x="84.694299" y="196.943488" style="fill: #9d02d7; stroke: #9d02d7; stroke-linejoin: miter"/>
     <use xlink:href="#me3aa63e730" x="89.853005" y="124.531382" style="fill: #9d02d7; stroke: #9d02d7; stroke-linejoin: miter"/>
     <use xlink:href="#me3aa63e730" x="95.01171" y="212.293487" style="fill: #9d02d7; stroke: #9d02d7; stroke-linejoin: miter"/>
     <use xlink:href="#me3aa63e730" x="100.170416" y="158.257744" style="fill: #9d02d7; stroke: #9d02d7; stroke-linejoin: miter"/>
     <use xlink:href="#me3aa63e730" x="105.329122" y="132.337216" style="fill: #9d02d7; stroke: #9d02d7; stroke-linejoin: miter"/>
     <use xlink:href="#me3aa63e730" x="110.487827" y="157.768593" style="fill: #9d02d7; stroke: #9d02d7; stroke-linejoin: miter"/>
     <use xlink:href="#me3aa63e730" x="115.646533" y="135.701499" style="fill: #9d02d7; stroke: #9d02d7; stroke-linejoin: miter"/>
     <use xlink:href="#me3aa63e730" x="120.805239" y="159.324947" style="fill: #9d02d7; stroke: #9d02d7; stroke-linejoin: miter"/>
     <use xlink:href="#me3aa63e730" x="125.963945" y="95.847647" style="fill: #9d02d7; stroke: #9d02d7; stroke-linejoin: miter"/>
     <use xlink:href="#me3aa63e730" x="131.12265" y="77.671519" style="fill: #9d02d7; stroke: #9d02d7; stroke-linejoin: miter"/>
     <use xlink:href="#me3aa63e730" x="136.281356" y="113.274992" style="fill: #9d02d7; stroke: #9d02d7; stroke-linejoin: miter"/>
     <use xlink:href="#me3aa63e730" x="141.440062" y="82.303755" style="fill: #9d02d7; stroke: #9d02d7; stroke-linejoin: miter"/>
     <use xlink:href="#me3aa63e730" x="146.598767" y="76.879544" style="fill: #9d02d7; stroke: #9d02d7; stroke-linejoin: miter"/>
     <use xlink:href="#me3aa63e730" x="151.757473" y="57.109684" style="fill: #9d02d7; stroke: #9d02d7; stroke-linejoin: miter"/>
     <use xlink:href="#me3aa63e730" x="156.916179" y="50.750466" style="fill: #9d02d7; stroke: #9d02d7; stroke-linejoin: miter"/>
     <use xlink:href="#me3aa63e730" x="162.074884" y="86.310128" style="fill: #9d02d7; stroke: #9d02d7; stroke-linejoin: miter"/>
     <use xlink:href="#me3aa63e730" x="167.23359" y="81.162954" style="fill: #9d02d7; stroke: #9d02d7; stroke-linejoin: miter"/>
     <use xlink:href="#me3aa63e730" x="172.392296" y="79.904439" style="fill: #9d02d7; stroke: #9d02d7; stroke-linejoin: miter"/>
     <use xlink:href="#me3aa63e730" x="177.551002" y="75.209667" style="fill: #9d02d7; stroke: #9d02d7; stroke-linejoin: miter"/>
     <use xlink:href="#me3aa63e730" x="182.709707" y="75.606401" style="fill: #9d02d7; stroke: #9d02d7; stroke-linejoin: miter"/>
     <use xlink:href="#me3aa63e730" x="187.868413" y="54.301129" style="fill: #9d02d7; stroke: #9d02d7; stroke-linejoin: miter"/>
     <use xlink:href="#me3aa63e730" x="193.027119" y="75.114115" style="fill: #9d02d7; stroke: #9d02d7; stroke-linejoin: miter"/>
     <use xlink:href="#me3aa63e730" x="198.185824" y="75.39923" style="fill: #9d02d7; stroke: #9d02d7; stroke-linejoin: miter"/>
     <use xlink:href="#me3aa63e730" x="203.34453" y="122.763754" style="fill: #9d02d7; stroke: #9d02d7; stroke-linejoin: miter"/>
     <use xlink:href="#me3aa63e730" x="208.503236" y="101.967034" style="fill: #9d02d7; stroke: #9d02d7; stroke-linejoin: miter"/>
     <use xlink:href="#me3aa63e730" x="213.661941" y="101.966929" style="fill: #9d02d7; stroke: #9d02d7; stroke-linejoin: miter"/>
     <use xlink:href="#me3aa63e730" x="218.820647" y="59.135301" style="fill: #9d02d7; stroke: #9d02d7; stroke-linejoin: miter"/>
     <use xlink:href="#me3aa63e730" x="223.979353" y="43.45079" style="fill: #9d02d7; stroke: #9d02d7; stroke-linejoin: miter"/>
     <use xlink:href="#me3aa63e730" x="229.138059" y="43.32041" style="fill: #9d02d7; stroke: #9d02d7; stroke-linejoin: miter"/>
     <use xlink:href="#me3aa63e730" x="234.296764" y="49.316354" style="fill: #9d02d7; stroke: #9d02d7; stroke-linejoin: miter"/>
     <use xlink:href="#me3aa63e730" x="239.45547" y="47.004336" style="fill: #9d02d7; stroke: #9d02d7; stroke-linejoin: miter"/>
     <use xlink:href="#me3aa63e730" x="244.614176" y="47.004336" style="fill: #9d02d7; stroke: #9d02d7; stroke-linejoin: miter"/>
     <use xlink:href="#me3aa63e730" x="249.772881" y="46.626582" style="fill: #9d02d7; stroke: #9d02d7; stroke-linejoin: miter"/>
     <use xlink:href="#me3aa63e730" x="254.931587" y="46.594894" style="fill: #9d02d7; stroke: #9d02d7; stroke-linejoin: miter"/>
     <use xlink:href="#me3aa63e730" x="260.090293" y="47.004336" style="fill: #9d02d7; stroke: #9d02d7; stroke-linejoin: miter"/>
     <use xlink:href="#me3aa63e730" x="265.248998" y="52.970465" style="fill: #9d02d7; stroke: #9d02d7; stroke-linejoin: miter"/>
     <use xlink:href="#me3aa63e730" x="270.407704" y="46.626582" style="fill: #9d02d7; stroke: #9d02d7; stroke-linejoin: miter"/>
     <use xlink:href="#me3aa63e730" x="275.56641" y="46.626582" style="fill: #9d02d7; stroke: #9d02d7; stroke-linejoin: miter"/>
     <use xlink:href="#me3aa63e730" x="280.725116" y="49.332114" style="fill: #9d02d7; stroke: #9d02d7; stroke-linejoin: miter"/>
     <use xlink:href="#me3aa63e730" x="285.883821" y="49.332114" style="fill: #9d02d7; stroke: #9d02d7; stroke-linejoin: miter"/>
     <use xlink:href="#me3aa63e730" x="291.042527" y="49.332114" style="fill: #9d02d7; stroke: #9d02d7; stroke-linejoin: miter"/>
     <use xlink:href="#me3aa63e730" x="296.201233" y="49.332114" style="fill: #9d02d7; stroke: #9d02d7; stroke-linejoin: miter"/>
     <use xlink:href="#me3aa63e730" x="301.359938" y="49.205588" style="fill: #9d02d7; stroke: #9d02d7; stroke-linejoin: miter"/>
     <use xlink:href="#me3aa63e730" x="306.518644" y="49.332114" style="fill: #9d02d7; stroke: #9d02d7; stroke-linejoin: miter"/>
     <use xlink:href="#me3aa63e730" x="311.67735" y="43.529924" style="fill: #9d02d7; stroke: #9d02d7; stroke-linejoin: miter"/>
     <use xlink:href="#me3aa63e730" x="316.836055" y="43.529924" style="fill: #9d02d7; stroke: #9d02d7; stroke-linejoin: miter"/>
     <use xlink:href="#me3aa63e730" x="321.994761" y="43.529924" style="fill: #9d02d7; stroke: #9d02d7; stroke-linejoin: miter"/>
     <use xlink:href="#me3aa63e730" x="327.153467" y="43.529924" style="fill: #9d02d7; stroke: #9d02d7; stroke-linejoin: miter"/>
     <use xlink:href="#me3aa63e730" x="332.312173" y="49.332114" style="fill: #9d02d7; stroke: #9d02d7; stroke-linejoin: miter"/>
     <use xlink:href="#me3aa63e730" x="337.470878" y="43.529924" style="fill: #9d02d7; stroke: #9d02d7; stroke-linejoin: miter"/>
     <use xlink:href="#me3aa63e730" x="342.629584" y="43.529924" style="fill: #9d02d7; stroke: #9d02d7; stroke-linejoin: miter"/>
     <use xlink:href="#me3aa63e730" x="347.78829" y="43.529924" style="fill: #9d02d7; stroke: #9d02d7; stroke-linejoin: miter"/>
     <use xlink:href="#me3aa63e730" x="352.946995" y="43.529924" style="fill: #9d02d7; stroke: #9d02d7; stroke-linejoin: miter"/>
     <use xlink:href="#me3aa63e730" x="358.105701" y="43.529924" style="fill: #9d02d7; stroke: #9d02d7; stroke-linejoin: miter"/>
     <use xlink:href="#me3aa63e730" x="363.264407" y="43.529924" style="fill: #9d02d7; stroke: #9d02d7; stroke-linejoin: miter"/>
     <use xlink:href="#me3aa63e730" x="368.423112" y="43.529924" style="fill: #9d02d7; stroke: #9d02d7; stroke-linejoin: miter"/>
     <use xlink:href="#me3aa63e730" x="373.581818" y="43.529924" style="fill: #9d02d7; stroke: #9d02d7; stroke-linejoin: miter"/>
    </g>
   </g>
   <g id="line2d_30">
    <path d="M 69.218182 252.908818 
L 74.376888 252.603469 
L 79.535593 254.464698 
L 84.694299 162.950686 
L 89.853005 238.791634 
L 95.01171 239.463968 
L 100.170416 240.461487 
L 105.329122 246.516716 
L 110.487827 238.304427 
L 115.646533 253.204281 
L 120.805239 253.233088 
L 125.963945 93.612462 
L 131.12265 161.189971 
L 136.281356 96.276425 
L 141.440062 109.711791 
L 146.598767 84.073079 
L 151.757473 90.978152 
L 156.916179 93.477695 
L 162.074884 83.235395 
L 167.23359 46.562844 
L 172.392296 83.254707 
L 177.551002 78.960028 
L 182.709707 55.8187 
L 187.868413 55.821707 
L 193.027119 55.986225 
L 198.185824 55.986225 
L 203.34453 54.488578 
L 208.503236 54.488578 
L 213.661941 45.635339 
L 218.820647 62.607608 
L 223.979353 45.650401 
L 229.138059 44.955502 
L 234.296764 45.723698 
L 239.45547 43.826745 
L 244.614176 43.826745 
L 249.772881 43.826745 
L 254.931587 43.826745 
L 260.090293 43.826745 
L 265.248998 43.826745 
L 270.407704 43.826745 
L 275.56641 43.826745 
L 280.725116 43.826745 
L 285.883821 43.826745 
L 291.042527 43.826745 
L 296.201233 43.826745 
L 301.359938 43.826745 
L 306.518644 43.826745 
L 311.67735 43.826745 
L 316.836055 43.826745 
L 321.994761 43.826745 
L 327.153467 43.826745 
L 332.312173 43.826745 
L 337.470878 43.826745 
L 342.629584 43.826745 
L 347.78829 43.826745 
L 352.946995 43.826745 
L 358.105701 43.826745 
L 363.264407 43.826745 
L 368.423112 43.826745 
L 373.581818 43.826745 
" clip-path="url(#pf05eee4707)" style="fill: none; stroke: #0000ff; stroke-width: 1.5; stroke-linecap: square"/>
    <defs>
     <path id="m24823cae83" d="M 0 2 
C 0.530406 2 1.03916 1.789267 1.414214 1.414214 
C 1.789267 1.03916 2 0.530406 2 0 
C 2 -0.530406 1.789267 -1.03916 1.414214 -1.414214 
C 1.03916 -1.789267 0.530406 -2 0 -2 
C -0.530406 -2 -1.03916 -1.789267 -1.414214 -1.414214 
C -1.789267 -1.03916 -2 -0.530406 -2 0 
C -2 0.530406 -1.789267 1.03916 -1.414214 1.414214 
C -1.03916 1.789267 -0.530406 2 0 2 
z
" style="stroke: #0000ff"/>
    </defs>
    <g clip-path="url(#pf05eee4707)">
     <use xlink:href="#m24823cae83" x="69.218182" y="252.908818" style="fill: #0000ff; stroke: #0000ff"/>
     <use xlink:href="#m24823cae83" x="74.376888" y="252.603469" style="fill: #0000ff; stroke: #0000ff"/>
     <use xlink:href="#m24823cae83" x="79.535593" y="254.464698" style="fill: #0000ff; stroke: #0000ff"/>
     <use xlink:href="#m24823cae83" x="84.694299" y="162.950686" style="fill: #0000ff; stroke: #0000ff"/>
     <use xlink:href="#m24823cae83" x="89.853005" y="238.791634" style="fill: #0000ff; stroke: #0000ff"/>
     <use xlink:href="#m24823cae83" x="95.01171" y="239.463968" style="fill: #0000ff; stroke: #0000ff"/>
     <use xlink:href="#m24823cae83" x="100.170416" y="240.461487" style="fill: #0000ff; stroke: #0000ff"/>
     <use xlink:href="#m24823cae83" x="105.329122" y="246.516716" style="fill: #0000ff; stroke: #0000ff"/>
     <use xlink:href="#m24823cae83" x="110.487827" y="238.304427" style="fill: #0000ff; stroke: #0000ff"/>
     <use xlink:href="#m24823cae83" x="115.646533" y="253.204281" style="fill: #0000ff; stroke: #0000ff"/>
     <use xlink:href="#m24823cae83" x="120.805239" y="253.233088" style="fill: #0000ff; stroke: #0000ff"/>
     <use xlink:href="#m24823cae83" x="125.963945" y="93.612462" style="fill: #0000ff; stroke: #0000ff"/>
     <use xlink:href="#m24823cae83" x="131.12265" y="161.189971" style="fill: #0000ff; stroke: #0000ff"/>
     <use xlink:href="#m24823cae83" x="136.281356" y="96.276425" style="fill: #0000ff; stroke: #0000ff"/>
     <use xlink:href="#m24823cae83" x="141.440062" y="109.711791" style="fill: #0000ff; stroke: #0000ff"/>
     <use xlink:href="#m24823cae83" x="146.598767" y="84.073079" style="fill: #0000ff; stroke: #0000ff"/>
     <use xlink:href="#m24823cae83" x="151.757473" y="90.978152" style="fill: #0000ff; stroke: #0000ff"/>
     <use xlink:href="#m24823cae83" x="156.916179" y="93.477695" style="fill: #0000ff; stroke: #0000ff"/>
     <use xlink:href="#m24823cae83" x="162.074884" y="83.235395" style="fill: #0000ff; stroke: #0000ff"/>
     <use xlink:href="#m24823cae83" x="167.23359" y="46.562844" style="fill: #0000ff; stroke: #0000ff"/>
     <use xlink:href="#m24823cae83" x="172.392296" y="83.254707" style="fill: #0000ff; stroke: #0000ff"/>
     <use xlink:href="#m24823cae83" x="177.551002" y="78.960028" style="fill: #0000ff; stroke: #0000ff"/>
     <use xlink:href="#m24823cae83" x="182.709707" y="55.8187" style="fill: #0000ff; stroke: #0000ff"/>
     <use xlink:href="#m24823cae83" x="187.868413" y="55.821707" style="fill: #0000ff; stroke: #0000ff"/>
     <use xlink:href="#m24823cae83" x="193.027119" y="55.986225" style="fill: #0000ff; stroke: #0000ff"/>
     <use xlink:href="#m24823cae83" x="198.185824" y="55.986225" style="fill: #0000ff; stroke: #0000ff"/>
     <use xlink:href="#m24823cae83" x="203.34453" y="54.488578" style="fill: #0000ff; stroke: #0000ff"/>
     <use xlink:href="#m24823cae83" x="208.503236" y="54.488578" style="fill: #0000ff; stroke: #0000ff"/>
     <use xlink:href="#m24823cae83" x="213.661941" y="45.635339" style="fill: #0000ff; stroke: #0000ff"/>
     <use xlink:href="#m24823cae83" x="218.820647" y="62.607608" style="fill: #0000ff; stroke: #0000ff"/>
     <use xlink:href="#m24823cae83" x="223.979353" y="45.650401" style="fill: #0000ff; stroke: #0000ff"/>
     <use xlink:href="#m24823cae83" x="229.138059" y="44.955502" style="fill: #0000ff; stroke: #0000ff"/>
     <use xlink:href="#m24823cae83" x="234.296764" y="45.723698" style="fill: #0000ff; stroke: #0000ff"/>
     <use xlink:href="#m24823cae83" x="239.45547" y="43.826745" style="fill: #0000ff; stroke: #0000ff"/>
     <use xlink:href="#m24823cae83" x="244.614176" y="43.826745" style="fill: #0000ff; stroke: #0000ff"/>
     <use xlink:href="#m24823cae83" x="249.772881" y="43.826745" style="fill: #0000ff; stroke: #0000ff"/>
     <use xlink:href="#m24823cae83" x="254.931587" y="43.826745" style="fill: #0000ff; stroke: #0000ff"/>
     <use xlink:href="#m24823cae83" x="260.090293" y="43.826745" style="fill: #0000ff; stroke: #0000ff"/>
     <use xlink:href="#m24823cae83" x="265.248998" y="43.826745" style="fill: #0000ff; stroke: #0000ff"/>
     <use xlink:href="#m24823cae83" x="270.407704" y="43.826745" style="fill: #0000ff; stroke: #0000ff"/>
     <use xlink:href="#m24823cae83" x="275.56641" y="43.826745" style="fill: #0000ff; stroke: #0000ff"/>
     <use xlink:href="#m24823cae83" x="280.725116" y="43.826745" style="fill: #0000ff; stroke: #0000ff"/>
     <use xlink:href="#m24823cae83" x="285.883821" y="43.826745" style="fill: #0000ff; stroke: #0000ff"/>
     <use xlink:href="#m24823cae83" x="291.042527" y="43.826745" style="fill: #0000ff; stroke: #0000ff"/>
     <use xlink:href="#m24823cae83" x="296.201233" y="43.826745" style="fill: #0000ff; stroke: #0000ff"/>
     <use xlink:href="#m24823cae83" x="301.359938" y="43.826745" style="fill: #0000ff; stroke: #0000ff"/>
     <use xlink:href="#m24823cae83" x="306.518644" y="43.826745" style="fill: #0000ff; stroke: #0000ff"/>
     <use xlink:href="#m24823cae83" x="311.67735" y="43.826745" style="fill: #0000ff; stroke: #0000ff"/>
     <use xlink:href="#m24823cae83" x="316.836055" y="43.826745" style="fill: #0000ff; stroke: #0000ff"/>
     <use xlink:href="#m24823cae83" x="321.994761" y="43.826745" style="fill: #0000ff; stroke: #0000ff"/>
     <use xlink:href="#m24823cae83" x="327.153467" y="43.826745" style="fill: #0000ff; stroke: #0000ff"/>
     <use xlink:href="#m24823cae83" x="332.312173" y="43.826745" style="fill: #0000ff; stroke: #0000ff"/>
     <use xlink:href="#m24823cae83" x="337.470878" y="43.826745" style="fill: #0000ff; stroke: #0000ff"/>
     <use xlink:href="#m24823cae83" x="342.629584" y="43.826745" style="fill: #0000ff; stroke: #0000ff"/>
     <use xlink:href="#m24823cae83" x="347.78829" y="43.826745" style="fill: #0000ff; stroke: #0000ff"/>
     <use xlink:href="#m24823cae83" x="352.946995" y="43.826745" style="fill: #0000ff; stroke: #0000ff"/>
     <use xlink:href="#m24823cae83" x="358.105701" y="43.826745" style="fill: #0000ff; stroke: #0000ff"/>
     <use xlink:href="#m24823cae83" x="363.264407" y="43.826745" style="fill: #0000ff; stroke: #0000ff"/>
     <use xlink:href="#m24823cae83" x="368.423112" y="43.826745" style="fill: #0000ff; stroke: #0000ff"/>
     <use xlink:href="#m24823cae83" x="373.581818" y="43.826745" style="fill: #0000ff; stroke: #0000ff"/>
    </g>
   </g>
   <g id="line2d_31">
    <path d="M 69.218182 252.908818 
L 74.376888 254.293002 
L 79.535593 253.847973 
L 84.694299 158.993099 
L 89.853005 260.648137 
L 95.01171 256.41855 
L 100.170416 254.828586 
L 105.329122 253.280956 
L 110.487827 227.338703 
L 115.646533 252.059988 
L 120.805239 248.875996 
L 125.963945 253.788649 
L 131.12265 252.568255 
L 136.281356 247.927572 
L 141.440062 252.303018 
L 146.598767 254.450633 
L 151.757473 253.812905 
L 156.916179 253.894157 
L 162.074884 253.09732 
L 167.23359 253.859292 
L 172.392296 187.748872 
L 177.551002 124.128665 
L 182.709707 116.665211 
L 187.868413 82.795203 
L 193.027119 82.485912 
L 198.185824 61.472736 
L 203.34453 81.927486 
L 208.503236 61.545234 
L 213.661941 64.61556 
L 218.820647 56.58654 
L 223.979353 47.295357 
L 229.138059 47.68599 
L 234.296764 48.30883 
L 239.45547 48.30883 
L 244.614176 48.30883 
L 249.772881 48.30883 
L 254.931587 48.308745 
L 260.090293 47.131836 
L 265.248998 47.131836 
L 270.407704 47.131836 
L 275.56641 47.131836 
L 280.725116 47.26899 
L 285.883821 47.131836 
L 291.042527 47.131836 
L 296.201233 47.131836 
L 301.359938 43.627013 
L 306.518644 47.26899 
L 311.67735 47.26899 
L 316.836055 47.26899 
L 321.994761 43.627013 
L 327.153467 47.26899 
L 332.312173 47.26899 
L 337.470878 47.26899 
L 342.629584 47.26899 
L 347.78829 47.26899 
L 352.946995 47.26899 
L 358.105701 43.627013 
L 363.264407 43.627013 
L 368.423112 43.627013 
L 373.581818 43.627013 
" clip-path="url(#pf05eee4707)" style="fill: none; stroke: #ff7763; stroke-width: 1.5; stroke-linecap: square"/>
    <defs>
     <path id="m14e34a4639" d="M -2 2 
L 2 -2 
M -2 -2 
L 2 2 
" style="stroke: #ff7763"/>
    </defs>
    <g clip-path="url(#pf05eee4707)">
     <use xlink:href="#m14e34a4639" x="69.218182" y="252.908818" style="fill: #ff7763; stroke: #ff7763"/>
     <use xlink:href="#m14e34a4639" x="74.376888" y="254.293002" style="fill: #ff7763; stroke: #ff7763"/>
     <use xlink:href="#m14e34a4639" x="79.535593" y="253.847973" style="fill: #ff7763; stroke: #ff7763"/>
     <use xlink:href="#m14e34a4639" x="84.694299" y="158.993099" style="fill: #ff7763; stroke: #ff7763"/>
     <use xlink:href="#m14e34a4639" x="89.853005" y="260.648137" style="fill: #ff7763; stroke: #ff7763"/>
     <use xlink:href="#m14e34a4639" x="95.01171" y="256.41855" style="fill: #ff7763; stroke: #ff7763"/>
     <use xlink:href="#m14e34a4639" x="100.170416" y="254.828586" style="fill: #ff7763; stroke: #ff7763"/>
     <use xlink:href="#m14e34a4639" x="105.329122" y="253.280956" style="fill: #ff7763; stroke: #ff7763"/>
     <use xlink:href="#m14e34a4639" x="110.487827" y="227.338703" style="fill: #ff7763; stroke: #ff7763"/>
     <use xlink:href="#m14e34a4639" x="115.646533" y="252.059988" style="fill: #ff7763; stroke: #ff7763"/>
     <use xlink:href="#m14e34a4639" x="120.805239" y="248.875996" style="fill: #ff7763; stroke: #ff7763"/>
     <use xlink:href="#m14e34a4639" x="125.963945" y="253.788649" style="fill: #ff7763; stroke: #ff7763"/>
     <use xlink:href="#m14e34a4639" x="131.12265" y="252.568255" style="fill: #ff7763; stroke: #ff7763"/>
     <use xlink:href="#m14e34a4639" x="136.281356" y="247.927572" style="fill: #ff7763; stroke: #ff7763"/>
     <use xlink:href="#m14e34a4639" x="141.440062" y="252.303018" style="fill: #ff7763; stroke: #ff7763"/>
     <use xlink:href="#m14e34a4639" x="146.598767" y="254.450633" style="fill: #ff7763; stroke: #ff7763"/>
     <use xlink:href="#m14e34a4639" x="151.757473" y="253.812905" style="fill: #ff7763; stroke: #ff7763"/>
     <use xlink:href="#m14e34a4639" x="156.916179" y="253.894157" style="fill: #ff7763; stroke: #ff7763"/>
     <use xlink:href="#m14e34a4639" x="162.074884" y="253.09732" style="fill: #ff7763; stroke: #ff7763"/>
     <use xlink:href="#m14e34a4639" x="167.23359" y="253.859292" style="fill: #ff7763; stroke: #ff7763"/>
     <use xlink:href="#m14e34a4639" x="172.392296" y="187.748872" style="fill: #ff7763; stroke: #ff7763"/>
     <use xlink:href="#m14e34a4639" x="177.551002" y="124.128665" style="fill: #ff7763; stroke: #ff7763"/>
     <use xlink:href="#m14e34a4639" x="182.709707" y="116.665211" style="fill: #ff7763; stroke: #ff7763"/>
     <use xlink:href="#m14e34a4639" x="187.868413" y="82.795203" style="fill: #ff7763; stroke: #ff7763"/>
     <use xlink:href="#m14e34a4639" x="193.027119" y="82.485912" style="fill: #ff7763; stroke: #ff7763"/>
     <use xlink:href="#m14e34a4639" x="198.185824" y="61.472736" style="fill: #ff7763; stroke: #ff7763"/>
     <use xlink:href="#m14e34a4639" x="203.34453" y="81.927486" style="fill: #ff7763; stroke: #ff7763"/>
     <use xlink:href="#m14e34a4639" x="208.503236" y="61.545234" style="fill: #ff7763; stroke: #ff7763"/>
     <use xlink:href="#m14e34a4639" x="213.661941" y="64.61556" style="fill: #ff7763; stroke: #ff7763"/>
     <use xlink:href="#m14e34a4639" x="218.820647" y="56.58654" style="fill: #ff7763; stroke: #ff7763"/>
     <use xlink:href="#m14e34a4639" x="223.979353" y="47.295357" style="fill: #ff7763; stroke: #ff7763"/>
     <use xlink:href="#m14e34a4639" x="229.138059" y="47.68599" style="fill: #ff7763; stroke: #ff7763"/>
     <use xlink:href="#m14e34a4639" x="234.296764" y="48.30883" style="fill: #ff7763; stroke: #ff7763"/>
     <use xlink:href="#m14e34a4639" x="239.45547" y="48.30883" style="fill: #ff7763; stroke: #ff7763"/>
     <use xlink:href="#m14e34a4639" x="244.614176" y="48.30883" style="fill: #ff7763; stroke: #ff7763"/>
     <use xlink:href="#m14e34a4639" x="249.772881" y="48.30883" style="fill: #ff7763; stroke: #ff7763"/>
     <use xlink:href="#m14e34a4639" x="254.931587" y="48.308745" style="fill: #ff7763; stroke: #ff7763"/>
     <use xlink:href="#m14e34a4639" x="260.090293" y="47.131836" style="fill: #ff7763; stroke: #ff7763"/>
     <use xlink:href="#m14e34a4639" x="265.248998" y="47.131836" style="fill: #ff7763; stroke: #ff7763"/>
     <use xlink:href="#m14e34a4639" x="270.407704" y="47.131836" style="fill: #ff7763; stroke: #ff7763"/>
     <use xlink:href="#m14e34a4639" x="275.56641" y="47.131836" style="fill: #ff7763; stroke: #ff7763"/>
     <use xlink:href="#m14e34a4639" x="280.725116" y="47.26899" style="fill: #ff7763; stroke: #ff7763"/>
     <use xlink:href="#m14e34a4639" x="285.883821" y="47.131836" style="fill: #ff7763; stroke: #ff7763"/>
     <use xlink:href="#m14e34a4639" x="291.042527" y="47.131836" style="fill: #ff7763; stroke: #ff7763"/>
     <use xlink:href="#m14e34a4639" x="296.201233" y="47.131836" style="fill: #ff7763; stroke: #ff7763"/>
     <use xlink:href="#m14e34a4639" x="301.359938" y="43.627013" style="fill: #ff7763; stroke: #ff7763"/>
     <use xlink:href="#m14e34a4639" x="306.518644" y="47.26899" style="fill: #ff7763; stroke: #ff7763"/>
     <use xlink:href="#m14e34a4639" x="311.67735" y="47.26899" style="fill: #ff7763; stroke: #ff7763"/>
     <use xlink:href="#m14e34a4639" x="316.836055" y="47.26899" style="fill: #ff7763; stroke: #ff7763"/>
     <use xlink:href="#m14e34a4639" x="321.994761" y="43.627013" style="fill: #ff7763; stroke: #ff7763"/>
     <use xlink:href="#m14e34a4639" x="327.153467" y="47.26899" style="fill: #ff7763; stroke: #ff7763"/>
     <use xlink:href="#m14e34a4639" x="332.312173" y="47.26899" style="fill: #ff7763; stroke: #ff7763"/>
     <use xlink:href="#m14e34a4639" x="337.470878" y="47.26899" style="fill: #ff7763; stroke: #ff7763"/>
     <use xlink:href="#m14e34a4639" x="342.629584" y="47.26899" style="fill: #ff7763; stroke: #ff7763"/>
     <use xlink:href="#m14e34a4639" x="347.78829" y="47.26899" style="fill: #ff7763; stroke: #ff7763"/>
     <use xlink:href="#m14e34a4639" x="352.946995" y="47.26899" style="fill: #ff7763; stroke: #ff7763"/>
     <use xlink:href="#m14e34a4639" x="358.105701" y="43.627013" style="fill: #ff7763; stroke: #ff7763"/>
     <use xlink:href="#m14e34a4639" x="363.264407" y="43.627013" style="fill: #ff7763; stroke: #ff7763"/>
     <use xlink:href="#m14e34a4639" x="368.423112" y="43.627013" style="fill: #ff7763; stroke: #ff7763"/>
     <use xlink:href="#m14e34a4639" x="373.581818" y="43.627013" style="fill: #ff7763; stroke: #ff7763"/>
    </g>
   </g>
   <g id="line2d_32">
    <path d="M 69.218182 268.397333 
L 74.376888 259.158213 
L 79.535593 252.908818 
L 84.694299 251.996393 
L 89.853005 253.036691 
L 95.01171 255.573994 
L 100.170416 252.961798 
L 105.329122 253.259466 
L 110.487827 253.249736 
L 115.646533 253.181925 
L 120.805239 251.174588 
L 125.963945 253.187746 
L 131.12265 252.575101 
L 136.281356 253.111534 
L 141.440062 253.120308 
L 146.598767 253.171654 
L 151.757473 252.929248 
L 156.916179 253.09716 
L 162.074884 252.908818 
L 167.23359 252.908818 
L 172.392296 252.908818 
L 177.551002 252.920576 
L 182.709707 253.146985 
L 187.868413 253.36747 
L 193.027119 252.917314 
L 198.185824 252.908818 
L 203.34453 253.025215 
L 208.503236 252.908818 
L 213.661941 253.09399 
L 218.820647 252.920731 
L 223.979353 252.919552 
L 229.138059 252.939147 
L 234.296764 252.934068 
L 239.45547 252.914809 
L 244.614176 253.171541 
L 249.772881 253.060878 
L 254.931587 249.357751 
L 260.090293 214.473772 
L 265.248998 254.270782 
L 270.407704 177.221259 
L 275.56641 255.000535 
L 280.725116 225.577319 
L 285.883821 245.38504 
L 291.042527 241.530229 
L 296.201233 252.69403 
L 301.359938 255.86799 
L 306.518644 257.756852 
L 311.67735 252.342054 
L 316.836055 247.743143 
L 321.994761 259.657976 
L 327.153467 221.757405 
L 332.312173 266.323497 
L 337.470878 93.961119 
L 342.629584 92.065428 
L 347.78829 92.056795 
L 352.946995 90.510794 
L 358.105701 97.815997 
L 363.264407 93.720823 
L 368.423112 90.638199 
L 373.581818 91.294885 
" clip-path="url(#pf05eee4707)" style="fill: none; stroke: #ffac1e; stroke-width: 1.5; stroke-linecap: square"/>
    <defs>
     <path id="m0a6b0f7ee2" d="M 0 -2 
L -0.449028 -0.618034 
L -1.902113 -0.618034 
L -0.726543 0.236068 
L -1.175571 1.618034 
L -0 0.763932 
L 1.175571 1.618034 
L 0.726543 0.236068 
L 1.902113 -0.618034 
L 0.449028 -0.618034 
z
" style="stroke: #ffac1e; stroke-linejoin: bevel"/>
    </defs>
    <g clip-path="url(#pf05eee4707)">
     <use xlink:href="#m0a6b0f7ee2" x="69.218182" y="268.397333" style="fill: #ffac1e; stroke: #ffac1e; stroke-linejoin: bevel"/>
     <use xlink:href="#m0a6b0f7ee2" x="74.376888" y="259.158213" style="fill: #ffac1e; stroke: #ffac1e; stroke-linejoin: bevel"/>
     <use xlink:href="#m0a6b0f7ee2" x="79.535593" y="252.908818" style="fill: #ffac1e; stroke: #ffac1e; stroke-linejoin: bevel"/>
     <use xlink:href="#m0a6b0f7ee2" x="84.694299" y="251.996393" style="fill: #ffac1e; stroke: #ffac1e; stroke-linejoin: bevel"/>
     <use xlink:href="#m0a6b0f7ee2" x="89.853005" y="253.036691" style="fill: #ffac1e; stroke: #ffac1e; stroke-linejoin: bevel"/>
     <use xlink:href="#m0a6b0f7ee2" x="95.01171" y="255.573994" style="fill: #ffac1e; stroke: #ffac1e; stroke-linejoin: bevel"/>
     <use xlink:href="#m0a6b0f7ee2" x="100.170416" y="252.961798" style="fill: #ffac1e; stroke: #ffac1e; stroke-linejoin: bevel"/>
     <use xlink:href="#m0a6b0f7ee2" x="105.329122" y="253.259466" style="fill: #ffac1e; stroke: #ffac1e; stroke-linejoin: bevel"/>
     <use xlink:href="#m0a6b0f7ee2" x="110.487827" y="253.249736" style="fill: #ffac1e; stroke: #ffac1e; stroke-linejoin: bevel"/>
     <use xlink:href="#m0a6b0f7ee2" x="115.646533" y="253.181925" style="fill: #ffac1e; stroke: #ffac1e; stroke-linejoin: bevel"/>
     <use xlink:href="#m0a6b0f7ee2" x="120.805239" y="251.174588" style="fill: #ffac1e; stroke: #ffac1e; stroke-linejoin: bevel"/>
     <use xlink:href="#m0a6b0f7ee2" x="125.963945" y="253.187746" style="fill: #ffac1e; stroke: #ffac1e; stroke-linejoin: bevel"/>
     <use xlink:href="#m0a6b0f7ee2" x="131.12265" y="252.575101" style="fill: #ffac1e; stroke: #ffac1e; stroke-linejoin: bevel"/>
     <use xlink:href="#m0a6b0f7ee2" x="136.281356" y="253.111534" style="fill: #ffac1e; stroke: #ffac1e; stroke-linejoin: bevel"/>
     <use xlink:href="#m0a6b0f7ee2" x="141.440062" y="253.120308" style="fill: #ffac1e; stroke: #ffac1e; stroke-linejoin: bevel"/>
     <use xlink:href="#m0a6b0f7ee2" x="146.598767" y="253.171654" style="fill: #ffac1e; stroke: #ffac1e; stroke-linejoin: bevel"/>
     <use xlink:href="#m0a6b0f7ee2" x="151.757473" y="252.929248" style="fill: #ffac1e; stroke: #ffac1e; stroke-linejoin: bevel"/>
     <use xlink:href="#m0a6b0f7ee2" x="156.916179" y="253.09716" style="fill: #ffac1e; stroke: #ffac1e; stroke-linejoin: bevel"/>
     <use xlink:href="#m0a6b0f7ee2" x="162.074884" y="252.908818" style="fill: #ffac1e; stroke: #ffac1e; stroke-linejoin: bevel"/>
     <use xlink:href="#m0a6b0f7ee2" x="167.23359" y="252.908818" style="fill: #ffac1e; stroke: #ffac1e; stroke-linejoin: bevel"/>
     <use xlink:href="#m0a6b0f7ee2" x="172.392296" y="252.908818" style="fill: #ffac1e; stroke: #ffac1e; stroke-linejoin: bevel"/>
     <use xlink:href="#m0a6b0f7ee2" x="177.551002" y="252.920576" style="fill: #ffac1e; stroke: #ffac1e; stroke-linejoin: bevel"/>
     <use xlink:href="#m0a6b0f7ee2" x="182.709707" y="253.146985" style="fill: #ffac1e; stroke: #ffac1e; stroke-linejoin: bevel"/>
     <use xlink:href="#m0a6b0f7ee2" x="187.868413" y="253.36747" style="fill: #ffac1e; stroke: #ffac1e; stroke-linejoin: bevel"/>
     <use xlink:href="#m0a6b0f7ee2" x="193.027119" y="252.917314" style="fill: #ffac1e; stroke: #ffac1e; stroke-linejoin: bevel"/>
     <use xlink:href="#m0a6b0f7ee2" x="198.185824" y="252.908818" style="fill: #ffac1e; stroke: #ffac1e; stroke-linejoin: bevel"/>
     <use xlink:href="#m0a6b0f7ee2" x="203.34453" y="253.025215" style="fill: #ffac1e; stroke: #ffac1e; stroke-linejoin: bevel"/>
     <use xlink:href="#m0a6b0f7ee2" x="208.503236" y="252.908818" style="fill: #ffac1e; stroke: #ffac1e; stroke-linejoin: bevel"/>
     <use xlink:href="#m0a6b0f7ee2" x="213.661941" y="253.09399" style="fill: #ffac1e; stroke: #ffac1e; stroke-linejoin: bevel"/>
     <use xlink:href="#m0a6b0f7ee2" x="218.820647" y="252.920731" style="fill: #ffac1e; stroke: #ffac1e; stroke-linejoin: bevel"/>
     <use xlink:href="#m0a6b0f7ee2" x="223.979353" y="252.919552" style="fill: #ffac1e; stroke: #ffac1e; stroke-linejoin: bevel"/>
     <use xlink:href="#m0a6b0f7ee2" x="229.138059" y="252.939147" style="fill: #ffac1e; stroke: #ffac1e; stroke-linejoin: bevel"/>
     <use xlink:href="#m0a6b0f7ee2" x="234.296764" y="252.934068" style="fill: #ffac1e; stroke: #ffac1e; stroke-linejoin: bevel"/>
     <use xlink:href="#m0a6b0f7ee2" x="239.45547" y="252.914809" style="fill: #ffac1e; stroke: #ffac1e; stroke-linejoin: bevel"/>
     <use xlink:href="#m0a6b0f7ee2" x="244.614176" y="253.171541" style="fill: #ffac1e; stroke: #ffac1e; stroke-linejoin: bevel"/>
     <use xlink:href="#m0a6b0f7ee2" x="249.772881" y="253.060878" style="fill: #ffac1e; stroke: #ffac1e; stroke-linejoin: bevel"/>
     <use xlink:href="#m0a6b0f7ee2" x="254.931587" y="249.357751" style="fill: #ffac1e; stroke: #ffac1e; stroke-linejoin: bevel"/>
     <use xlink:href="#m0a6b0f7ee2" x="260.090293" y="214.473772" style="fill: #ffac1e; stroke: #ffac1e; stroke-linejoin: bevel"/>
     <use xlink:href="#m0a6b0f7ee2" x="265.248998" y="254.270782" style="fill: #ffac1e; stroke: #ffac1e; stroke-linejoin: bevel"/>
     <use xlink:href="#m0a6b0f7ee2" x="270.407704" y="177.221259" style="fill: #ffac1e; stroke: #ffac1e; stroke-linejoin: bevel"/>
     <use xlink:href="#m0a6b0f7ee2" x="275.56641" y="255.000535" style="fill: #ffac1e; stroke: #ffac1e; stroke-linejoin: bevel"/>
     <use xlink:href="#m0a6b0f7ee2" x="280.725116" y="225.577319" style="fill: #ffac1e; stroke: #ffac1e; stroke-linejoin: bevel"/>
     <use xlink:href="#m0a6b0f7ee2" x="285.883821" y="245.38504" style="fill: #ffac1e; stroke: #ffac1e; stroke-linejoin: bevel"/>
     <use xlink:href="#m0a6b0f7ee2" x="291.042527" y="241.530229" style="fill: #ffac1e; stroke: #ffac1e; stroke-linejoin: bevel"/>
     <use xlink:href="#m0a6b0f7ee2" x="296.201233" y="252.69403" style="fill: #ffac1e; stroke: #ffac1e; stroke-linejoin: bevel"/>
     <use xlink:href="#m0a6b0f7ee2" x="301.359938" y="255.86799" style="fill: #ffac1e; stroke: #ffac1e; stroke-linejoin: bevel"/>
     <use xlink:href="#m0a6b0f7ee2" x="306.518644" y="257.756852" style="fill: #ffac1e; stroke: #ffac1e; stroke-linejoin: bevel"/>
     <use xlink:href="#m0a6b0f7ee2" x="311.67735" y="252.342054" style="fill: #ffac1e; stroke: #ffac1e; stroke-linejoin: bevel"/>
     <use xlink:href="#m0a6b0f7ee2" x="316.836055" y="247.743143" style="fill: #ffac1e; stroke: #ffac1e; stroke-linejoin: bevel"/>
     <use xlink:href="#m0a6b0f7ee2" x="321.994761" y="259.657976" style="fill: #ffac1e; stroke: #ffac1e; stroke-linejoin: bevel"/>
     <use xlink:href="#m0a6b0f7ee2" x="327.153467" y="221.757405" style="fill: #ffac1e; stroke: #ffac1e; stroke-linejoin: bevel"/>
     <use xlink:href="#m0a6b0f7ee2" x="332.312173" y="266.323497" style="fill: #ffac1e; stroke: #ffac1e; stroke-linejoin: bevel"/>
     <use xlink:href="#m0a6b0f7ee2" x="337.470878" y="93.961119" style="fill: #ffac1e; stroke: #ffac1e; stroke-linejoin: bevel"/>
     <use xlink:href="#m0a6b0f7ee2" x="342.629584" y="92.065428" style="fill: #ffac1e; stroke: #ffac1e; stroke-linejoin: bevel"/>
     <use xlink:href="#m0a6b0f7ee2" x="347.78829" y="92.056795" style="fill: #ffac1e; stroke: #ffac1e; stroke-linejoin: bevel"/>
     <use xlink:href="#m0a6b0f7ee2" x="352.946995" y="90.510794" style="fill: #ffac1e; stroke: #ffac1e; stroke-linejoin: bevel"/>
     <use xlink:href="#m0a6b0f7ee2" x="358.105701" y="97.815997" style="fill: #ffac1e; stroke: #ffac1e; stroke-linejoin: bevel"/>
     <use xlink:href="#m0a6b0f7ee2" x="363.264407" y="93.720823" style="fill: #ffac1e; stroke: #ffac1e; stroke-linejoin: bevel"/>
     <use xlink:href="#m0a6b0f7ee2" x="368.423112" y="90.638199" style="fill: #ffac1e; stroke: #ffac1e; stroke-linejoin: bevel"/>
     <use xlink:href="#m0a6b0f7ee2" x="373.581818" y="91.294885" style="fill: #ffac1e; stroke: #ffac1e; stroke-linejoin: bevel"/>
    </g>
   </g>
   <g id="line2d_33">
    <path d="M 69.218182 252.070028 
L 74.376888 256.446879 
L 79.535593 261.427334 
L 84.694299 252.908818 
L 89.853005 140.346289 
L 95.01171 98.920605 
L 100.170416 167.606353 
L 105.329122 148.095158 
L 110.487827 142.907288 
L 115.646533 142.378621 
L 120.805239 142.80402 
L 125.963945 147.721642 
L 131.12265 147.792223 
L 136.281356 67.469012 
L 141.440062 82.753429 
L 146.598767 61.564585 
L 151.757473 62.608569 
L 156.916179 66.333168 
L 162.074884 71.652409 
L 167.23359 65.140229 
L 172.392296 80.62582 
L 177.551002 69.738857 
L 182.709707 65.035656 
L 187.868413 71.298711 
L 193.027119 52.77203 
L 198.185824 131.68097 
L 203.34453 125.727474 
L 208.503236 132.348904 
L 213.661941 60.596411 
L 218.820647 65.684692 
L 223.979353 72.308267 
L 229.138059 68.410036 
L 234.296764 97.501493 
L 239.45547 73.565843 
L 244.614176 90.130087 
L 249.772881 71.779268 
L 254.931587 90.965752 
L 260.090293 90.183234 
L 265.248998 59.766437 
L 270.407704 74.904309 
L 275.56641 84.566995 
L 280.725116 55.965751 
L 285.883821 87.902114 
L 291.042527 83.121006 
L 296.201233 67.232537 
L 301.359938 83.365322 
L 306.518644 99.019191 
L 311.67735 96.957994 
L 316.836055 82.938509 
L 321.994761 61.577198 
L 327.153467 97.142101 
L 332.312173 97.05534 
L 337.470878 58.370871 
L 342.629584 86.781832 
L 347.78829 91.53345 
L 352.946995 87.393382 
L 358.105701 56.938881 
L 363.264407 94.171893 
L 368.423112 77.544649 
L 373.581818 87.605111 
" clip-path="url(#pf05eee4707)" style="fill: none; stroke: #009435; stroke-width: 1.5; stroke-linecap: square"/>
    <defs>
     <path id="m84117e3c03" d="M -2 2 
L 2 2 
L 2 -2 
L -2 -2 
z
" style="stroke: #009435; stroke-linejoin: miter"/>
    </defs>
    <g clip-path="url(#pf05eee4707)">
     <use xlink:href="#m84117e3c03" x="69.218182" y="252.070028" style="fill: #009435; stroke: #009435; stroke-linejoin: miter"/>
     <use xlink:href="#m84117e3c03" x="74.376888" y="256.446879" style="fill: #009435; stroke: #009435; stroke-linejoin: miter"/>
     <use xlink:href="#m84117e3c03" x="79.535593" y="261.427334" style="fill: #009435; stroke: #009435; stroke-linejoin: miter"/>
     <use xlink:href="#m84117e3c03" x="84.694299" y="252.908818" style="fill: #009435; stroke: #009435; stroke-linejoin: miter"/>
     <use xlink:href="#m84117e3c03" x="89.853005" y="140.346289" style="fill: #009435; stroke: #009435; stroke-linejoin: miter"/>
     <use xlink:href="#m84117e3c03" x="95.01171" y="98.920605" style="fill: #009435; stroke: #009435; stroke-linejoin: miter"/>
     <use xlink:href="#m84117e3c03" x="100.170416" y="167.606353" style="fill: #009435; stroke: #009435; stroke-linejoin: miter"/>
     <use xlink:href="#m84117e3c03" x="105.329122" y="148.095158" style="fill: #009435; stroke: #009435; stroke-linejoin: miter"/>
     <use xlink:href="#m84117e3c03" x="110.487827" y="142.907288" style="fill: #009435; stroke: #009435; stroke-linejoin: miter"/>
     <use xlink:href="#m84117e3c03" x="115.646533" y="142.378621" style="fill: #009435; stroke: #009435; stroke-linejoin: miter"/>
     <use xlink:href="#m84117e3c03" x="120.805239" y="142.80402" style="fill: #009435; stroke: #009435; stroke-linejoin: miter"/>
     <use xlink:href="#m84117e3c03" x="125.963945" y="147.721642" style="fill: #009435; stroke: #009435; stroke-linejoin: miter"/>
     <use xlink:href="#m84117e3c03" x="131.12265" y="147.792223" style="fill: #009435; stroke: #009435; stroke-linejoin: miter"/>
     <use xlink:href="#m84117e3c03" x="136.281356" y="67.469012" style="fill: #009435; stroke: #009435; stroke-linejoin: miter"/>
     <use xlink:href="#m84117e3c03" x="141.440062" y="82.753429" style="fill: #009435; stroke: #009435; stroke-linejoin: miter"/>
     <use xlink:href="#m84117e3c03" x="146.598767" y="61.564585" style="fill: #009435; stroke: #009435; stroke-linejoin: miter"/>
     <use xlink:href="#m84117e3c03" x="151.757473" y="62.608569" style="fill: #009435; stroke: #009435; stroke-linejoin: miter"/>
     <use xlink:href="#m84117e3c03" x="156.916179" y="66.333168" style="fill: #009435; stroke: #009435; stroke-linejoin: miter"/>
     <use xlink:href="#m84117e3c03" x="162.074884" y="71.652409" style="fill: #009435; stroke: #009435; stroke-linejoin: miter"/>
     <use xlink:href="#m84117e3c03" x="167.23359" y="65.140229" style="fill: #009435; stroke: #009435; stroke-linejoin: miter"/>
     <use xlink:href="#m84117e3c03" x="172.392296" y="80.62582" style="fill: #009435; stroke: #009435; stroke-linejoin: miter"/>
     <use xlink:href="#m84117e3c03" x="177.551002" y="69.738857" style="fill: #009435; stroke: #009435; stroke-linejoin: miter"/>
     <use xlink:href="#m84117e3c03" x="182.709707" y="65.035656" style="fill: #009435; stroke: #009435; stroke-linejoin: miter"/>
     <use xlink:href="#m84117e3c03" x="187.868413" y="71.298711" style="fill: #009435; stroke: #009435; stroke-linejoin: miter"/>
     <use xlink:href="#m84117e3c03" x="193.027119" y="52.77203" style="fill: #009435; stroke: #009435; stroke-linejoin: miter"/>
     <use xlink:href="#m84117e3c03" x="198.185824" y="131.68097" style="fill: #009435; stroke: #009435; stroke-linejoin: miter"/>
     <use xlink:href="#m84117e3c03" x="203.34453" y="125.727474" style="fill: #009435; stroke: #009435; stroke-linejoin: miter"/>
     <use xlink:href="#m84117e3c03" x="208.503236" y="132.348904" style="fill: #009435; stroke: #009435; stroke-linejoin: miter"/>
     <use xlink:href="#m84117e3c03" x="213.661941" y="60.596411" style="fill: #009435; stroke: #009435; stroke-linejoin: miter"/>
     <use xlink:href="#m84117e3c03" x="218.820647" y="65.684692" style="fill: #009435; stroke: #009435; stroke-linejoin: miter"/>
     <use xlink:href="#m84117e3c03" x="223.979353" y="72.308267" style="fill: #009435; stroke: #009435; stroke-linejoin: miter"/>
     <use xlink:href="#m84117e3c03" x="229.138059" y="68.410036" style="fill: #009435; stroke: #009435; stroke-linejoin: miter"/>
     <use xlink:href="#m84117e3c03" x="234.296764" y="97.501493" style="fill: #009435; stroke: #009435; stroke-linejoin: miter"/>
     <use xlink:href="#m84117e3c03" x="239.45547" y="73.565843" style="fill: #009435; stroke: #009435; stroke-linejoin: miter"/>
     <use xlink:href="#m84117e3c03" x="244.614176" y="90.130087" style="fill: #009435; stroke: #009435; stroke-linejoin: miter"/>
     <use xlink:href="#m84117e3c03" x="249.772881" y="71.779268" style="fill: #009435; stroke: #009435; stroke-linejoin: miter"/>
     <use xlink:href="#m84117e3c03" x="254.931587" y="90.965752" style="fill: #009435; stroke: #009435; stroke-linejoin: miter"/>
     <use xlink:href="#m84117e3c03" x="260.090293" y="90.183234" style="fill: #009435; stroke: #009435; stroke-linejoin: miter"/>
     <use xlink:href="#m84117e3c03" x="265.248998" y="59.766437" style="fill: #009435; stroke: #009435; stroke-linejoin: miter"/>
     <use xlink:href="#m84117e3c03" x="270.407704" y="74.904309" style="fill: #009435; stroke: #009435; stroke-linejoin: miter"/>
     <use xlink:href="#m84117e3c03" x="275.56641" y="84.566995" style="fill: #009435; stroke: #009435; stroke-linejoin: miter"/>
     <use xlink:href="#m84117e3c03" x="280.725116" y="55.965751" style="fill: #009435; stroke: #009435; stroke-linejoin: miter"/>
     <use xlink:href="#m84117e3c03" x="285.883821" y="87.902114" style="fill: #009435; stroke: #009435; stroke-linejoin: miter"/>
     <use xlink:href="#m84117e3c03" x="291.042527" y="83.121006" style="fill: #009435; stroke: #009435; stroke-linejoin: miter"/>
     <use xlink:href="#m84117e3c03" x="296.201233" y="67.232537" style="fill: #009435; stroke: #009435; stroke-linejoin: miter"/>
     <use xlink:href="#m84117e3c03" x="301.359938" y="83.365322" style="fill: #009435; stroke: #009435; stroke-linejoin: miter"/>
     <use xlink:href="#m84117e3c03" x="306.518644" y="99.019191" style="fill: #009435; stroke: #009435; stroke-linejoin: miter"/>
     <use xlink:href="#m84117e3c03" x="311.67735" y="96.957994" style="fill: #009435; stroke: #009435; stroke-linejoin: miter"/>
     <use xlink:href="#m84117e3c03" x="316.836055" y="82.938509" style="fill: #009435; stroke: #009435; stroke-linejoin: miter"/>
     <use xlink:href="#m84117e3c03" x="321.994761" y="61.577198" style="fill: #009435; stroke: #009435; stroke-linejoin: miter"/>
     <use xlink:href="#m84117e3c03" x="327.153467" y="97.142101" style="fill: #009435; stroke: #009435; stroke-linejoin: miter"/>
     <use xlink:href="#m84117e3c03" x="332.312173" y="97.05534" style="fill: #009435; stroke: #009435; stroke-linejoin: miter"/>
     <use xlink:href="#m84117e3c03" x="337.470878" y="58.370871" style="fill: #009435; stroke: #009435; stroke-linejoin: miter"/>
     <use xlink:href="#m84117e3c03" x="342.629584" y="86.781832" style="fill: #009435; stroke: #009435; stroke-linejoin: miter"/>
     <use xlink:href="#m84117e3c03" x="347.78829" y="91.53345" style="fill: #009435; stroke: #009435; stroke-linejoin: miter"/>
     <use xlink:href="#m84117e3c03" x="352.946995" y="87.393382" style="fill: #009435; stroke: #009435; stroke-linejoin: miter"/>
     <use xlink:href="#m84117e3c03" x="358.105701" y="56.938881" style="fill: #009435; stroke: #009435; stroke-linejoin: miter"/>
     <use xlink:href="#m84117e3c03" x="363.264407" y="94.171893" style="fill: #009435; stroke: #009435; stroke-linejoin: miter"/>
     <use xlink:href="#m84117e3c03" x="368.423112" y="77.544649" style="fill: #009435; stroke: #009435; stroke-linejoin: miter"/>
     <use xlink:href="#m84117e3c03" x="373.581818" y="87.605111" style="fill: #009435; stroke: #009435; stroke-linejoin: miter"/>
    </g>
   </g>
   <g id="patch_3">
    <path d="M 54 252 
L 54 34.56 
" style="fill: none; stroke: #000000; stroke-width: 0.8; stroke-linejoin: miter; stroke-linecap: square"/>
   </g>
   <g id="patch_4">
    <path d="M 388.8 252 
L 388.8 34.56 
" style="fill: none; stroke: #000000; stroke-width: 0.8; stroke-linejoin: miter; stroke-linecap: square"/>
   </g>
   <g id="patch_5">
    <path d="M 54 252 
L 388.8 252 
" style="fill: none; stroke: #000000; stroke-width: 0.8; stroke-linejoin: miter; stroke-linecap: square"/>
   </g>
   <g id="patch_6">
    <path d="M 54 34.56 
L 388.8 34.56 
" style="fill: none; stroke: #000000; stroke-width: 0.8; stroke-linejoin: miter; stroke-linecap: square"/>
   </g>
   <g id="text_17">
    <!-- ζ-R-max optimal policy with m = 1.0 -->
    <g transform="translate(111.87 28.56)scale(0.12 -0.12)">
     <defs>
      <path id="DejaVuSans-3b6" d="M 2231 397 
Q 2644 394 2891 159 
Q 3153 -88 3153 -463 
Q 3153 -822 2922 -1072 
Q 2672 -1344 2163 -1344 
Q 2163 -1109 2163 -872 
Q 2378 -888 2509 -750 
Q 2609 -641 2609 -525 
Q 2609 -359 2509 -222 
Q 2413 -91 2231 -91 
Q 338 -91 334 1669 
Q 334 3206 2119 4284 
L 456 4284 
L 456 4863 
L 3175 4863 
L 3175 4284 
Q 913 3147 913 1669 
Q 913 397 2231 397 
z
" transform="scale(0.015625)"/>
      <path id="DejaVuSans-2d" d="M 313 2009 
L 1997 2009 
L 1997 1497 
L 313 1497 
L 313 2009 
z
" transform="scale(0.015625)"/>
      <path id="DejaVuSans-52" d="M 2841 2188 
Q 3044 2119 3236 1894 
Q 3428 1669 3622 1275 
L 4263 0 
L 3584 0 
L 2988 1197 
Q 2756 1666 2539 1819 
Q 2322 1972 1947 1972 
L 1259 1972 
L 1259 0 
L 628 0 
L 628 4666 
L 2053 4666 
Q 2853 4666 3247 4331 
Q 3641 3997 3641 3322 
Q 3641 2881 3436 2590 
Q 3231 2300 2841 2188 
z
M 1259 4147 
L 1259 2491 
L 2053 2491 
Q 2509 2491 2742 2702 
Q 2975 2913 2975 3322 
Q 2975 3731 2742 3939 
Q 2509 4147 2053 4147 
L 1259 4147 
z
" transform="scale(0.015625)"/>
      <path id="DejaVuSans-6d" d="M 3328 2828 
Q 3544 3216 3844 3400 
Q 4144 3584 4550 3584 
Q 5097 3584 5394 3201 
Q 5691 2819 5691 2113 
L 5691 0 
L 5113 0 
L 5113 2094 
Q 5113 2597 4934 2840 
Q 4756 3084 4391 3084 
Q 3944 3084 3684 2787 
Q 3425 2491 3425 1978 
L 3425 0 
L 2847 0 
L 2847 2094 
Q 2847 2600 2669 2842 
Q 2491 3084 2119 3084 
Q 1678 3084 1418 2786 
Q 1159 2488 1159 1978 
L 1159 0 
L 581 0 
L 581 3500 
L 1159 3500 
L 1159 2956 
Q 1356 3278 1631 3431 
Q 1906 3584 2284 3584 
Q 2666 3584 2933 3390 
Q 3200 3197 3328 2828 
z
" transform="scale(0.015625)"/>
      <path id="DejaVuSans-78" d="M 3513 3500 
L 2247 1797 
L 3578 0 
L 2900 0 
L 1881 1375 
L 863 0 
L 184 0 
L 1544 1831 
L 300 3500 
L 978 3500 
L 1906 2253 
L 2834 3500 
L 3513 3500 
z
" transform="scale(0.015625)"/>
      <path id="DejaVuSans-77" d="M 269 3500 
L 844 3500 
L 1563 769 
L 2278 3500 
L 2956 3500 
L 3675 769 
L 4391 3500 
L 4966 3500 
L 4050 0 
L 3372 0 
L 2619 2869 
L 1863 0 
L 1184 0 
L 269 3500 
z
" transform="scale(0.015625)"/>
      <path id="DejaVuSans-68" d="M 3513 2113 
L 3513 0 
L 2938 0 
L 2938 2094 
Q 2938 2591 2744 2837 
Q 2550 3084 2163 3084 
Q 1697 3084 1428 2787 
Q 1159 2491 1159 1978 
L 1159 0 
L 581 0 
L 581 4863 
L 1159 4863 
L 1159 2956 
Q 1366 3272 1645 3428 
Q 1925 3584 2291 3584 
Q 2894 3584 3203 3211 
Q 3513 2838 3513 2113 
z
" transform="scale(0.015625)"/>
      <path id="DejaVuSans-3d" d="M 678 2906 
L 4684 2906 
L 4684 2381 
L 678 2381 
L 678 2906 
z
M 678 1631 
L 4684 1631 
L 4684 1100 
L 678 1100 
L 678 1631 
z
" transform="scale(0.015625)"/>
      <path id="DejaVuSans-2e" d="M 684 794 
L 1344 794 
L 1344 0 
L 684 0 
L 684 794 
z
" transform="scale(0.015625)"/>
     </defs>
     <use xlink:href="#DejaVuSans-3b6"/>
     <use xlink:href="#DejaVuSans-2d" x="54.394531"/>
     <use xlink:href="#DejaVuSans-52" x="90.478516"/>
     <use xlink:href="#DejaVuSans-2d" x="155.960938"/>
     <use xlink:href="#DejaVuSans-6d" x="192.044922"/>
     <use xlink:href="#DejaVuSans-61" x="289.457031"/>
     <use xlink:href="#DejaVuSans-78" x="350.736328"/>
     <use xlink:href="#DejaVuSans-20" x="409.916016"/>
     <use xlink:href="#DejaVuSans-6f" x="441.703125"/>
     <use xlink:href="#DejaVuSans-70" x="502.884766"/>
     <use xlink:href="#DejaVuSans-74" x="566.361328"/>
     <use xlink:href="#DejaVuSans-69" x="605.570312"/>
     <use xlink:href="#DejaVuSans-6d" x="633.353516"/>
     <use xlink:href="#DejaVuSans-61" x="730.765625"/>
     <use xlink:href="#DejaVuSans-6c" x="792.044922"/>
     <use xlink:href="#DejaVuSans-20" x="819.828125"/>
     <use xlink:href="#DejaVuSans-70" x="851.615234"/>
     <use xlink:href="#DejaVuSans-6f" x="915.091797"/>
     <use xlink:href="#DejaVuSans-6c" x="976.273438"/>
     <use xlink:href="#DejaVuSans-69" x="1004.056641"/>
     <use xlink:href="#DejaVuSans-63" x="1031.839844"/>
     <use xlink:href="#DejaVuSans-79" x="1086.820312"/>
     <use xlink:href="#DejaVuSans-20" x="1146"/>
     <use xlink:href="#DejaVuSans-77" x="1177.787109"/>
     <use xlink:href="#DejaVuSans-69" x="1259.574219"/>
     <use xlink:href="#DejaVuSans-74" x="1287.357422"/>
     <use xlink:href="#DejaVuSans-68" x="1326.566406"/>
     <use xlink:href="#DejaVuSans-20" x="1389.945312"/>
     <use xlink:href="#DejaVuSans-6d" x="1421.732422"/>
     <use xlink:href="#DejaVuSans-20" x="1519.144531"/>
     <use xlink:href="#DejaVuSans-3d" x="1550.931641"/>
     <use xlink:href="#DejaVuSans-20" x="1634.720703"/>
     <use xlink:href="#DejaVuSans-31" x="1666.507812"/>
     <use xlink:href="#DejaVuSans-2e" x="1730.130859"/>
     <use xlink:href="#DejaVuSans-30" x="1761.917969"/>
    </g>
   </g>
   <g id="legend_1">
    <g id="patch_7">
     <path d="M 297.796875 181.475313 
L 381.8 181.475313 
Q 383.8 181.475313 383.8 179.475313 
L 383.8 107.084688 
Q 383.8 105.084688 381.8 105.084688 
L 297.796875 105.084688 
Q 295.796875 105.084688 295.796875 107.084688 
L 295.796875 179.475313 
Q 295.796875 181.475313 297.796875 181.475313 
z
" style="fill: #ffffff; opacity: 0.8; stroke: #cccccc; stroke-linejoin: miter"/>
    </g>
    <g id="line2d_34">
     <path d="M 299.796875 113.183125 
L 309.796875 113.183125 
L 319.796875 113.183125 
" style="fill: none; stroke: #9d02d7; stroke-width: 1.5; stroke-linecap: square"/>
     <g>
      <use xlink:href="#me3aa63e730" x="309.796875" y="113.183125" style="fill: #9d02d7; stroke: #9d02d7; stroke-linejoin: miter"/>
     </g>
    </g>
    <g id="text_18">
     <!-- alpha=0.1 -->
     <g transform="translate(327.796875 116.683125)scale(0.1 -0.1)">
      <use xlink:href="#DejaVuSans-61"/>
      <use xlink:href="#DejaVuSans-6c" x="61.279297"/>
      <use xlink:href="#DejaVuSans-70" x="89.0625"/>
      <use xlink:href="#DejaVuSans-68" x="152.539062"/>
      <use xlink:href="#DejaVuSans-61" x="215.917969"/>
      <use xlink:href="#DejaVuSans-3d" x="277.197266"/>
      <use xlink:href="#DejaVuSans-30" x="360.986328"/>
      <use xlink:href="#DejaVuSans-2e" x="424.609375"/>
      <use xlink:href="#DejaVuSans-31" x="456.396484"/>
     </g>
    </g>
    <g id="line2d_35">
     <path d="M 299.796875 127.86125 
L 309.796875 127.86125 
L 319.796875 127.86125 
" style="fill: none; stroke: #0000ff; stroke-width: 1.5; stroke-linecap: square"/>
     <g>
      <use xlink:href="#m24823cae83" x="309.796875" y="127.86125" style="fill: #0000ff; stroke: #0000ff"/>
     </g>
    </g>
    <g id="text_19">
     <!-- alpha=0.5 -->
     <g transform="translate(327.796875 131.36125)scale(0.1 -0.1)">
      <use xlink:href="#DejaVuSans-61"/>
      <use xlink:href="#DejaVuSans-6c" x="61.279297"/>
      <use xlink:href="#DejaVuSans-70" x="89.0625"/>
      <use xlink:href="#DejaVuSans-68" x="152.539062"/>
      <use xlink:href="#DejaVuSans-61" x="215.917969"/>
      <use xlink:href="#DejaVuSans-3d" x="277.197266"/>
      <use xlink:href="#DejaVuSans-30" x="360.986328"/>
      <use xlink:href="#DejaVuSans-2e" x="424.609375"/>
      <use xlink:href="#DejaVuSans-35" x="456.396484"/>
     </g>
    </g>
    <g id="line2d_36">
     <path d="M 299.796875 142.539375 
L 309.796875 142.539375 
L 319.796875 142.539375 
" style="fill: none; stroke: #ff7763; stroke-width: 1.5; stroke-linecap: square"/>
     <g>
      <use xlink:href="#m14e34a4639" x="309.796875" y="142.539375" style="fill: #ff7763; stroke: #ff7763"/>
     </g>
    </g>
    <g id="text_20">
     <!-- alpha=1.0 -->
     <g transform="translate(327.796875 146.039375)scale(0.1 -0.1)">
      <use xlink:href="#DejaVuSans-61"/>
      <use xlink:href="#DejaVuSans-6c" x="61.279297"/>
      <use xlink:href="#DejaVuSans-70" x="89.0625"/>
      <use xlink:href="#DejaVuSans-68" x="152.539062"/>
      <use xlink:href="#DejaVuSans-61" x="215.917969"/>
      <use xlink:href="#DejaVuSans-3d" x="277.197266"/>
      <use xlink:href="#DejaVuSans-31" x="360.986328"/>
      <use xlink:href="#DejaVuSans-2e" x="424.609375"/>
      <use xlink:href="#DejaVuSans-30" x="456.396484"/>
     </g>
    </g>
    <g id="line2d_37">
     <path d="M 299.796875 157.2175 
L 309.796875 157.2175 
L 319.796875 157.2175 
" style="fill: none; stroke: #ffac1e; stroke-width: 1.5; stroke-linecap: square"/>
     <g>
      <use xlink:href="#m0a6b0f7ee2" x="309.796875" y="157.2175" style="fill: #ffac1e; stroke: #ffac1e; stroke-linejoin: bevel"/>
     </g>
    </g>
    <g id="text_21">
     <!-- alpha=1.5 -->
     <g transform="translate(327.796875 160.7175)scale(0.1 -0.1)">
      <use xlink:href="#DejaVuSans-61"/>
      <use xlink:href="#DejaVuSans-6c" x="61.279297"/>
      <use xlink:href="#DejaVuSans-70" x="89.0625"/>
      <use xlink:href="#DejaVuSans-68" x="152.539062"/>
      <use xlink:href="#DejaVuSans-61" x="215.917969"/>
      <use xlink:href="#DejaVuSans-3d" x="277.197266"/>
      <use xlink:href="#DejaVuSans-31" x="360.986328"/>
      <use xlink:href="#DejaVuSans-2e" x="424.609375"/>
      <use xlink:href="#DejaVuSans-35" x="456.396484"/>
     </g>
    </g>
    <g id="line2d_38">
     <path d="M 299.796875 171.895625 
L 309.796875 171.895625 
L 319.796875 171.895625 
" style="fill: none; stroke: #009435; stroke-width: 1.5; stroke-linecap: square"/>
     <g>
      <use xlink:href="#m84117e3c03" x="309.796875" y="171.895625" style="fill: #009435; stroke: #009435; stroke-linejoin: miter"/>
     </g>
    </g>
    <g id="text_22">
     <!-- alpha=2.0 -->
     <g transform="translate(327.796875 175.395625)scale(0.1 -0.1)">
      <use xlink:href="#DejaVuSans-61"/>
      <use xlink:href="#DejaVuSans-6c" x="61.279297"/>
      <use xlink:href="#DejaVuSans-70" x="89.0625"/>
      <use xlink:href="#DejaVuSans-68" x="152.539062"/>
      <use xlink:href="#DejaVuSans-61" x="215.917969"/>
      <use xlink:href="#DejaVuSans-3d" x="277.197266"/>
      <use xlink:href="#DejaVuSans-32" x="360.986328"/>
      <use xlink:href="#DejaVuSans-2e" x="424.609375"/>
      <use xlink:href="#DejaVuSans-30" x="456.396484"/>
     </g>
    </g>
   </g>
  </g>
 </g>
 <defs>
  <clipPath id="pf05eee4707">
   <rect x="54" y="34.56" width="334.8" height="217.44"/>
  </clipPath>
 </defs>
</svg>
