<?xml version="1.0" encoding="utf-8" standalone="no"?>
<!DOCTYPE svg PUBLIC "-//W3C//DTD SVG 1.1//EN"
  "http://www.w3.org/Graphics/SVG/1.1/DTD/svg11.dtd">
<svg xmlns:xlink="http://www.w3.org/1999/xlink" width="432pt" height="288pt" viewBox="0 0 432 288" xmlns="http://www.w3.org/2000/svg" version="1.1">
 <metadata>
  <rdf:RDF xmlns:dc="http://purl.org/dc/elements/1.1/" xmlns:cc="http://creativecommons.org/ns#" xmlns:rdf="http://www.w3.org/1999/02/22-rdf-syntax-ns#">
   <cc:Work>
    <dc:type rdf:resource="http://purl.org/dc/dcmitype/StillImage"/>
    <dc:date>2023-01-11T15:36:51.163207</dc:date>
    <dc:format>image/svg+xml</dc:format>
    <dc:creator>
     <cc:Agent>
      <dc:title>Matplotlib v3.5.2, https://matplotlib.org/</dc:title>
     </cc:Agent>
    </dc:creator>
   </cc:Work>
  </rdf:RDF>
 </metadata>
 <defs>
  <style type="text/css">*{stroke-linejoin: round; stroke-linecap: butt}</style>
 </defs>
 <g id="figure_1">
  <g id="patch_1">
   <path d="M 0 288 
L 432 288 
L 432 0 
L 0 0 
z
" style="fill: #ffffff"/>
  </g>
  <g id="axes_1">
   <g id="patch_2">
    <path d="M 54 252 
L 388.8 252 
L 388.8 34.56 
L 54 34.56 
z
" style="fill: #ffffff"/>
   </g>
   <g id="PolyCollection_1">
    <defs>
     <path id="m2a92353b00" d="M 69.218182 -35.061368 
L 69.218182 -35.061368 
L 74.376888 -36.840451 
L 79.535593 -56.27946 
L 84.694299 -205.255683 
L 89.853005 -175.039281 
L 95.01171 -208.632535 
L 100.170416 -197.068814 
L 105.329122 -168.307034 
L 110.487827 -179.42673 
L 115.646533 -200.472404 
L 120.805239 -150.428921 
L 125.963945 -184.102661 
L 131.12265 -115.686812 
L 136.281356 -174.397822 
L 141.440062 -168.566076 
L 146.598767 -157.916717 
L 151.757473 -157.403305 
L 156.916179 -194.767909 
L 162.074884 -182.966534 
L 167.23359 -195.214924 
L 172.392296 -200.82154 
L 177.551002 -198.160619 
L 182.709707 -188.282862 
L 187.868413 -195.882371 
L 193.027119 -168.760654 
L 198.185824 -185.559967 
L 203.34453 -195.779324 
L 208.503236 -201.665755 
L 213.661941 -200.470759 
L 218.820647 -200.470759 
L 223.979353 -200.470759 
L 229.138059 -208.73115 
L 234.296764 -208.261774 
L 239.45547 -198.187326 
L 244.614176 -198.187326 
L 249.772881 -205.832813 
L 254.931587 -208.67048 
L 260.090293 -220.244829 
L 265.248998 -220.244829 
L 270.407704 -220.244829 
L 275.56641 -211.565694 
L 280.725116 -220.244829 
L 285.883821 -213.60001 
L 291.042527 -213.60001 
L 296.201233 -222.344388 
L 301.359938 -222.344388 
L 306.518644 -222.344388 
L 311.67735 -222.344388 
L 316.836055 -213.60001 
L 321.994761 -211.565694 
L 327.153467 -213.60001 
L 332.312173 -213.60001 
L 337.470878 -213.385462 
L 342.629584 -213.385462 
L 347.78829 -222.123272 
L 352.946995 -213.385462 
L 358.105701 -222.123272 
L 363.264407 -213.385462 
L 368.423112 -213.385462 
L 373.581818 -213.385462 
L 373.581818 -213.385462 
L 373.581818 -213.385462 
L 368.423112 -213.385462 
L 363.264407 -213.385462 
L 358.105701 -222.123272 
L 352.946995 -213.385462 
L 347.78829 -222.123272 
L 342.629584 -213.385462 
L 337.470878 -213.385462 
L 332.312173 -213.60001 
L 327.153467 -213.60001 
L 321.994761 -211.565694 
L 316.836055 -213.60001 
L 311.67735 -222.344388 
L 306.518644 -222.344388 
L 301.359938 -222.344388 
L 296.201233 -222.344388 
L 291.042527 -213.60001 
L 285.883821 -213.60001 
L 280.725116 -220.244829 
L 275.56641 -211.565694 
L 270.407704 -220.244829 
L 265.248998 -220.244829 
L 260.090293 -220.244829 
L 254.931587 -208.67048 
L 249.772881 -205.832813 
L 244.614176 -198.187326 
L 239.45547 -198.187326 
L 234.296764 -208.261774 
L 229.138059 -208.73115 
L 223.979353 -200.470759 
L 218.820647 -200.470759 
L 213.661941 -200.470759 
L 208.503236 -201.665755 
L 203.34453 -195.779324 
L 198.185824 -185.559967 
L 193.027119 -168.760654 
L 187.868413 -195.882371 
L 182.709707 -188.282862 
L 177.551002 -198.160619 
L 172.392296 -200.82154 
L 167.23359 -195.214924 
L 162.074884 -182.966534 
L 156.916179 -194.767909 
L 151.757473 -157.403305 
L 146.598767 -157.916717 
L 141.440062 -168.566076 
L 136.281356 -174.397822 
L 131.12265 -115.686812 
L 125.963945 -184.102661 
L 120.805239 -150.428921 
L 115.646533 -200.472404 
L 110.487827 -179.42673 
L 105.329122 -168.307034 
L 100.170416 -197.068814 
L 95.01171 -208.632535 
L 89.853005 -175.039281 
L 84.694299 -205.255683 
L 79.535593 -56.27946 
L 74.376888 -36.840451 
L 69.218182 -35.061368 
z
" style="stroke: #9d02d7; stroke-opacity: 0.2"/>
    </defs>
    <g clip-path="url(#pb6a0321847)">
     <use xlink:href="#m2a92353b00" x="0" y="288" style="fill: #9d02d7; fill-opacity: 0.2; stroke: #9d02d7; stroke-opacity: 0.2"/>
    </g>
   </g>
   <g id="PolyCollection_2">
    <defs>
     <path id="mb323fd5942" d="M 69.218182 -35.072854 
L 69.218182 -35.072854 
L 74.376888 -103.821026 
L 79.535593 -52.19907 
L 84.694299 -222.962411 
L 89.853005 -220.902199 
L 95.01171 -223.403149 
L 100.170416 -232.942348 
L 105.329122 -227.007819 
L 110.487827 -224.967382 
L 115.646533 -236.266591 
L 120.805239 -216.902411 
L 125.963945 -216.710076 
L 131.12265 -228.934262 
L 136.281356 -220.244368 
L 141.440062 -228.816249 
L 146.598767 -228.816249 
L 151.757473 -215.115296 
L 156.916179 -210.00347 
L 162.074884 -210.128998 
L 167.23359 -210.128998 
L 172.392296 -236.752539 
L 177.551002 -236.914601 
L 182.709707 -232.864798 
L 187.868413 -226.49103 
L 193.027119 -215.772033 
L 198.185824 -218.057548 
L 203.34453 -215.772033 
L 208.503236 -226.49103 
L 213.661941 -239.288375 
L 218.820647 -238.032352 
L 223.979353 -241.560343 
L 229.138059 -241.560343 
L 234.296764 -241.560343 
L 239.45547 -241.460724 
L 244.614176 -229.294432 
L 249.772881 -241.460724 
L 254.931587 -241.460724 
L 260.090293 -241.460724 
L 265.248998 -241.560343 
L 270.407704 -241.560343 
L 275.56641 -241.560343 
L 280.725116 -241.560343 
L 285.883821 -241.560343 
L 291.042527 -241.560343 
L 296.201233 -240.792893 
L 301.359938 -240.792893 
L 306.518644 -240.792893 
L 311.67735 -241.560343 
L 316.836055 -241.560343 
L 321.994761 -241.560343 
L 327.153467 -241.560343 
L 332.312173 -241.560343 
L 337.470878 -241.560343 
L 342.629584 -241.460724 
L 347.78829 -240.792893 
L 352.946995 -240.792893 
L 358.105701 -240.792893 
L 363.264407 -240.792893 
L 368.423112 -240.792893 
L 373.581818 -240.792893 
L 373.581818 -240.792893 
L 373.581818 -240.792893 
L 368.423112 -240.792893 
L 363.264407 -240.792893 
L 358.105701 -240.792893 
L 352.946995 -240.792893 
L 347.78829 -240.792893 
L 342.629584 -241.460724 
L 337.470878 -241.560343 
L 332.312173 -241.560343 
L 327.153467 -241.560343 
L 321.994761 -241.560343 
L 316.836055 -241.560343 
L 311.67735 -241.560343 
L 306.518644 -240.792893 
L 301.359938 -240.792893 
L 296.201233 -240.792893 
L 291.042527 -241.560343 
L 285.883821 -241.560343 
L 280.725116 -241.560343 
L 275.56641 -241.560343 
L 270.407704 -241.560343 
L 265.248998 -241.560343 
L 260.090293 -241.460724 
L 254.931587 -241.460724 
L 249.772881 -241.460724 
L 244.614176 -229.294432 
L 239.45547 -241.460724 
L 234.296764 -241.560343 
L 229.138059 -241.560343 
L 223.979353 -241.560343 
L 218.820647 -238.032352 
L 213.661941 -239.288375 
L 208.503236 -226.49103 
L 203.34453 -215.772033 
L 198.185824 -218.057548 
L 193.027119 -215.772033 
L 187.868413 -226.49103 
L 182.709707 -232.864798 
L 177.551002 -236.914601 
L 172.392296 -236.752539 
L 167.23359 -210.128998 
L 162.074884 -210.128998 
L 156.916179 -210.00347 
L 151.757473 -215.115296 
L 146.598767 -228.816249 
L 141.440062 -228.816249 
L 136.281356 -220.244368 
L 131.12265 -228.934262 
L 125.963945 -216.710076 
L 120.805239 -216.902411 
L 115.646533 -236.266591 
L 110.487827 -224.967382 
L 105.329122 -227.007819 
L 100.170416 -232.942348 
L 95.01171 -223.403149 
L 89.853005 -220.902199 
L 84.694299 -222.962411 
L 79.535593 -52.19907 
L 74.376888 -103.821026 
L 69.218182 -35.072854 
z
" style="stroke: #0000ff; stroke-opacity: 0.2"/>
    </defs>
    <g clip-path="url(#pb6a0321847)">
     <use xlink:href="#mb323fd5942" x="0" y="288" style="fill: #0000ff; fill-opacity: 0.2; stroke: #0000ff; stroke-opacity: 0.2"/>
    </g>
   </g>
   <g id="PolyCollection_3">
    <defs>
     <path id="m2931cd4571" d="M 69.218182 -33.871257 
L 69.218182 -33.871257 
L 74.376888 -32.555949 
L 79.535593 -28.422228 
L 84.694299 -51.593334 
L 89.853005 -150.296099 
L 95.01171 -115.554873 
L 100.170416 -130.517407 
L 105.329122 -117.56197 
L 110.487827 -120.364561 
L 115.646533 -138.716715 
L 120.805239 -138.715498 
L 125.963945 -138.716715 
L 131.12265 -138.718289 
L 136.281356 -121.527416 
L 141.440062 -144.800423 
L 146.598767 -144.800423 
L 151.757473 -140.856834 
L 156.916179 -150.878851 
L 162.074884 -145.334663 
L 167.23359 -89.685788 
L 172.392296 -159.700115 
L 177.551002 -159.700115 
L 182.709707 -159.700115 
L 187.868413 -159.700115 
L 193.027119 -159.700115 
L 198.185824 -159.700115 
L 203.34453 -159.700115 
L 208.503236 -159.703172 
L 213.661941 -159.700552 
L 218.820647 -159.702026 
L 223.979353 -154.761448 
L 229.138059 -147.742394 
L 234.296764 -155.379435 
L 239.45547 -155.379435 
L 244.614176 -155.379435 
L 249.772881 -140.680043 
L 254.931587 -155.379435 
L 260.090293 -153.199088 
L 265.248998 -161.601814 
L 270.407704 -161.601814 
L 275.56641 -161.079156 
L 280.725116 -159.703566 
L 285.883821 -159.703566 
L 291.042527 -161.079156 
L 296.201233 -161.079156 
L 301.359938 -113.350367 
L 306.518644 -110.815486 
L 311.67735 -113.350367 
L 316.836055 -227.748512 
L 321.994761 -227.748512 
L 327.153467 -227.748512 
L 332.312173 -227.748512 
L 337.470878 -227.748512 
L 342.629584 -227.748512 
L 347.78829 -227.748512 
L 352.946995 -227.748512 
L 358.105701 -227.748512 
L 363.264407 -227.748512 
L 368.423112 -227.748512 
L 373.581818 -227.748512 
L 373.581818 -227.748512 
L 373.581818 -227.748512 
L 368.423112 -227.748512 
L 363.264407 -227.748512 
L 358.105701 -227.748512 
L 352.946995 -227.748512 
L 347.78829 -227.748512 
L 342.629584 -227.748512 
L 337.470878 -227.748512 
L 332.312173 -227.748512 
L 327.153467 -227.748512 
L 321.994761 -227.748512 
L 316.836055 -227.748512 
L 311.67735 -113.350367 
L 306.518644 -110.815486 
L 301.359938 -113.350367 
L 296.201233 -161.079156 
L 291.042527 -161.079156 
L 285.883821 -159.703566 
L 280.725116 -159.703566 
L 275.56641 -161.079156 
L 270.407704 -161.601814 
L 265.248998 -161.601814 
L 260.090293 -153.199088 
L 254.931587 -155.379435 
L 249.772881 -140.680043 
L 244.614176 -155.379435 
L 239.45547 -155.379435 
L 234.296764 -155.379435 
L 229.138059 -147.742394 
L 223.979353 -154.761448 
L 218.820647 -159.702026 
L 213.661941 -159.700552 
L 208.503236 -159.703172 
L 203.34453 -159.700115 
L 198.185824 -159.700115 
L 193.027119 -159.700115 
L 187.868413 -159.700115 
L 182.709707 -159.700115 
L 177.551002 -159.700115 
L 172.392296 -159.700115 
L 167.23359 -89.685788 
L 162.074884 -145.334663 
L 156.916179 -150.878851 
L 151.757473 -140.856834 
L 146.598767 -144.800423 
L 141.440062 -144.800423 
L 136.281356 -121.527416 
L 131.12265 -138.718289 
L 125.963945 -138.716715 
L 120.805239 -138.715498 
L 115.646533 -138.716715 
L 110.487827 -120.364561 
L 105.329122 -117.56197 
L 100.170416 -130.517407 
L 95.01171 -115.554873 
L 89.853005 -150.296099 
L 84.694299 -51.593334 
L 79.535593 -28.422228 
L 74.376888 -32.555949 
L 69.218182 -33.871257 
z
" style="stroke: #ff7763; stroke-opacity: 0.2"/>
    </defs>
    <g clip-path="url(#pb6a0321847)">
     <use xlink:href="#m2931cd4571" x="0" y="288" style="fill: #ff7763; fill-opacity: 0.2; stroke: #ff7763; stroke-opacity: 0.2"/>
    </g>
   </g>
   <g id="PolyCollection_4">
    <defs>
     <path id="m569017dabe" d="M 69.218182 -35.091182 
L 69.218182 -35.091182 
L 74.376888 -33.444717 
L 79.535593 -28.408067 
L 84.694299 -181.882889 
L 89.853005 -100.823897 
L 95.01171 -152.608805 
L 100.170416 -175.902909 
L 105.329122 -176.077142 
L 110.487827 -176.7731 
L 115.646533 -206.192959 
L 120.805239 -207.005082 
L 125.963945 -208.144525 
L 131.12265 -207.005082 
L 136.281356 -197.572019 
L 141.440062 -198.81964 
L 146.598767 -196.828352 
L 151.757473 -207.279267 
L 156.916179 -196.850244 
L 162.074884 -207.279267 
L 167.23359 -207.005082 
L 172.392296 -207.279267 
L 177.551002 -207.005082 
L 182.709707 -207.68805 
L 187.868413 -206.609207 
L 193.027119 -207.68805 
L 198.185824 -207.005082 
L 203.34453 -207.005082 
L 208.503236 -206.609207 
L 213.661941 -207.68805 
L 218.820647 -207.68805 
L 223.979353 -207.479066 
L 229.138059 -208.784705 
L 234.296764 -206.609207 
L 239.45547 -207.080922 
L 244.614176 -208.166221 
L 249.772881 -208.784705 
L 254.931587 -207.279267 
L 260.090293 -207.479066 
L 265.248998 -207.926801 
L 270.407704 -206.842674 
L 275.56641 -208.544797 
L 280.725116 -207.015236 
L 285.883821 -207.688892 
L 291.042527 -207.926801 
L 296.201233 -207.515414 
L 301.359938 -207.688892 
L 306.518644 -208.000082 
L 311.67735 -207.79943 
L 316.836055 -207.387829 
L 321.994761 -207.588627 
L 327.153467 -208.416948 
L 332.312173 -207.736881 
L 337.470878 -203.915776 
L 342.629584 -204.112652 
L 347.78829 -208.159304 
L 352.946995 -208.344457 
L 358.105701 -208.839589 
L 363.264407 -201.724513 
L 368.423112 -208.621809 
L 373.581818 -207.736881 
L 373.581818 -207.736881 
L 373.581818 -207.736881 
L 368.423112 -208.621809 
L 363.264407 -201.724513 
L 358.105701 -208.839589 
L 352.946995 -208.344457 
L 347.78829 -208.159304 
L 342.629584 -204.112652 
L 337.470878 -203.915776 
L 332.312173 -207.736881 
L 327.153467 -208.416948 
L 321.994761 -207.588627 
L 316.836055 -207.387829 
L 311.67735 -207.79943 
L 306.518644 -208.000082 
L 301.359938 -207.688892 
L 296.201233 -207.515414 
L 291.042527 -207.926801 
L 285.883821 -207.688892 
L 280.725116 -207.015236 
L 275.56641 -208.544797 
L 270.407704 -206.842674 
L 265.248998 -207.926801 
L 260.090293 -207.479066 
L 254.931587 -207.279267 
L 249.772881 -208.784705 
L 244.614176 -208.166221 
L 239.45547 -207.080922 
L 234.296764 -206.609207 
L 229.138059 -208.784705 
L 223.979353 -207.479066 
L 218.820647 -207.68805 
L 213.661941 -207.68805 
L 208.503236 -206.609207 
L 203.34453 -207.005082 
L 198.185824 -207.005082 
L 193.027119 -207.68805 
L 187.868413 -206.609207 
L 182.709707 -207.68805 
L 177.551002 -207.005082 
L 172.392296 -207.279267 
L 167.23359 -207.005082 
L 162.074884 -207.279267 
L 156.916179 -196.850244 
L 151.757473 -207.279267 
L 146.598767 -196.828352 
L 141.440062 -198.81964 
L 136.281356 -197.572019 
L 131.12265 -207.005082 
L 125.963945 -208.144525 
L 120.805239 -207.005082 
L 115.646533 -206.192959 
L 110.487827 -176.7731 
L 105.329122 -176.077142 
L 100.170416 -175.902909 
L 95.01171 -152.608805 
L 89.853005 -100.823897 
L 84.694299 -181.882889 
L 79.535593 -28.408067 
L 74.376888 -33.444717 
L 69.218182 -35.091182 
z
" style="stroke: #ffac1e; stroke-opacity: 0.2"/>
    </defs>
    <g clip-path="url(#pb6a0321847)">
     <use xlink:href="#m569017dabe" x="0" y="288" style="fill: #ffac1e; fill-opacity: 0.2; stroke: #ffac1e; stroke-opacity: 0.2"/>
    </g>
   </g>
   <g id="PolyCollection_5">
    <defs>
     <path id="m5f637e231a" d="M 69.218182 -34.421021 
L 69.218182 -34.421021 
L 74.376888 -35.079181 
L 79.535593 -28.773656 
L 84.694299 -187.770625 
L 89.853005 -192.481186 
L 95.01171 -184.459354 
L 100.170416 -191.871452 
L 105.329122 -191.118777 
L 110.487827 -191.118777 
L 115.646533 -191.871452 
L 120.805239 -191.118777 
L 125.963945 -191.871452 
L 131.12265 -193.837966 
L 136.281356 -196.554862 
L 141.440062 -194.797268 
L 146.598767 -194.797268 
L 151.757473 -194.630031 
L 156.916179 -194.797268 
L 162.074884 -196.470468 
L 167.23359 -194.797268 
L 172.392296 -196.470468 
L 177.551002 -196.470468 
L 182.709707 -196.470468 
L 187.868413 -196.470468 
L 193.027119 -196.470468 
L 198.185824 -196.470468 
L 203.34453 -198.638434 
L 208.503236 -198.638434 
L 213.661941 -198.638434 
L 218.820647 -198.638434 
L 223.979353 -198.889044 
L 229.138059 -198.889044 
L 234.296764 -200.548107 
L 239.45547 -200.548107 
L 244.614176 -198.889044 
L 249.772881 -198.889044 
L 254.931587 -199.82169 
L 260.090293 -199.82169 
L 265.248998 -198.172165 
L 270.407704 -199.82169 
L 275.56641 -198.172165 
L 280.725116 -200.31624 
L 285.883821 -200.31624 
L 291.042527 -200.31624 
L 296.201233 -200.91195 
L 301.359938 -200.91195 
L 306.518644 -200.91195 
L 311.67735 -200.91195 
L 316.836055 -200.91195 
L 321.994761 -200.91195 
L 327.153467 -200.91195 
L 332.312173 -200.91195 
L 337.470878 -200.91195 
L 342.629584 -200.91195 
L 347.78829 -200.91195 
L 352.946995 -200.91195 
L 358.105701 -200.91195 
L 363.264407 -200.91195 
L 368.423112 -200.91195 
L 373.581818 -200.91195 
L 373.581818 -200.91195 
L 373.581818 -200.91195 
L 368.423112 -200.91195 
L 363.264407 -200.91195 
L 358.105701 -200.91195 
L 352.946995 -200.91195 
L 347.78829 -200.91195 
L 342.629584 -200.91195 
L 337.470878 -200.91195 
L 332.312173 -200.91195 
L 327.153467 -200.91195 
L 321.994761 -200.91195 
L 316.836055 -200.91195 
L 311.67735 -200.91195 
L 306.518644 -200.91195 
L 301.359938 -200.91195 
L 296.201233 -200.91195 
L 291.042527 -200.31624 
L 285.883821 -200.31624 
L 280.725116 -200.31624 
L 275.56641 -198.172165 
L 270.407704 -199.82169 
L 265.248998 -198.172165 
L 260.090293 -199.82169 
L 254.931587 -199.82169 
L 249.772881 -198.889044 
L 244.614176 -198.889044 
L 239.45547 -200.548107 
L 234.296764 -200.548107 
L 229.138059 -198.889044 
L 223.979353 -198.889044 
L 218.820647 -198.638434 
L 213.661941 -198.638434 
L 208.503236 -198.638434 
L 203.34453 -198.638434 
L 198.185824 -196.470468 
L 193.027119 -196.470468 
L 187.868413 -196.470468 
L 182.709707 -196.470468 
L 177.551002 -196.470468 
L 172.392296 -196.470468 
L 167.23359 -194.797268 
L 162.074884 -196.470468 
L 156.916179 -194.797268 
L 151.757473 -194.630031 
L 146.598767 -194.797268 
L 141.440062 -194.797268 
L 136.281356 -196.554862 
L 131.12265 -193.837966 
L 125.963945 -191.871452 
L 120.805239 -191.118777 
L 115.646533 -191.871452 
L 110.487827 -191.118777 
L 105.329122 -191.118777 
L 100.170416 -191.871452 
L 95.01171 -184.459354 
L 89.853005 -192.481186 
L 84.694299 -187.770625 
L 79.535593 -28.773656 
L 74.376888 -35.079181 
L 69.218182 -34.421021 
z
" style="stroke: #009435; stroke-opacity: 0.2"/>
    </defs>
    <g clip-path="url(#pb6a0321847)">
     <use xlink:href="#m5f637e231a" x="0" y="288" style="fill: #009435; fill-opacity: 0.2; stroke: #009435; stroke-opacity: 0.2"/>
    </g>
   </g>
   <g id="matplotlib.axis_1">
    <g id="xtick_1">
     <g id="line2d_1">
      <path d="M 69.218182 252 
L 69.218182 34.56 
" clip-path="url(#pb6a0321847)" style="fill: none; stroke-dasharray: 2.96,1.28; stroke-dashoffset: 0; stroke: #b0b0b0; stroke-width: 0.8"/>
     </g>
     <g id="line2d_2">
      <defs>
       <path id="m48d3a06911" d="M 0 0 
L 0 3.5 
" style="stroke: #000000; stroke-width: 0.8"/>
      </defs>
      <g>
       <use xlink:href="#m48d3a06911" x="69.218182" y="252" style="stroke: #000000; stroke-width: 0.8"/>
      </g>
     </g>
     <g id="text_1">
      <!-- 0 -->
      <g transform="translate(66.036932 266.598437)scale(0.1 -0.1)">
       <defs>
        <path id="DejaVuSans-30" d="M 2034 4250 
Q 1547 4250 1301 3770 
Q 1056 3291 1056 2328 
Q 1056 1369 1301 889 
Q 1547 409 2034 409 
Q 2525 409 2770 889 
Q 3016 1369 3016 2328 
Q 3016 3291 2770 3770 
Q 2525 4250 2034 4250 
z
M 2034 4750 
Q 2819 4750 3233 4129 
Q 3647 3509 3647 2328 
Q 3647 1150 3233 529 
Q 2819 -91 2034 -91 
Q 1250 -91 836 529 
Q 422 1150 422 2328 
Q 422 3509 836 4129 
Q 1250 4750 2034 4750 
z
" transform="scale(0.015625)"/>
       </defs>
       <use xlink:href="#DejaVuSans-30"/>
      </g>
     </g>
    </g>
    <g id="xtick_2">
     <g id="line2d_3">
      <path d="M 120.805239 252 
L 120.805239 34.56 
" clip-path="url(#pb6a0321847)" style="fill: none; stroke-dasharray: 2.96,1.28; stroke-dashoffset: 0; stroke: #b0b0b0; stroke-width: 0.8"/>
     </g>
     <g id="line2d_4">
      <g>
       <use xlink:href="#m48d3a06911" x="120.805239" y="252" style="stroke: #000000; stroke-width: 0.8"/>
      </g>
     </g>
     <g id="text_2">
      <!-- 500 -->
      <g transform="translate(111.261489 266.598437)scale(0.1 -0.1)">
       <defs>
        <path id="DejaVuSans-35" d="M 691 4666 
L 3169 4666 
L 3169 4134 
L 1269 4134 
L 1269 2991 
Q 1406 3038 1543 3061 
Q 1681 3084 1819 3084 
Q 2600 3084 3056 2656 
Q 3513 2228 3513 1497 
Q 3513 744 3044 326 
Q 2575 -91 1722 -91 
Q 1428 -91 1123 -41 
Q 819 9 494 109 
L 494 744 
Q 775 591 1075 516 
Q 1375 441 1709 441 
Q 2250 441 2565 725 
Q 2881 1009 2881 1497 
Q 2881 1984 2565 2268 
Q 2250 2553 1709 2553 
Q 1456 2553 1204 2497 
Q 953 2441 691 2322 
L 691 4666 
z
" transform="scale(0.015625)"/>
       </defs>
       <use xlink:href="#DejaVuSans-35"/>
       <use xlink:href="#DejaVuSans-30" x="63.623047"/>
       <use xlink:href="#DejaVuSans-30" x="127.246094"/>
      </g>
     </g>
    </g>
    <g id="xtick_3">
     <g id="line2d_5">
      <path d="M 172.392296 252 
L 172.392296 34.56 
" clip-path="url(#pb6a0321847)" style="fill: none; stroke-dasharray: 2.96,1.28; stroke-dashoffset: 0; stroke: #b0b0b0; stroke-width: 0.8"/>
     </g>
     <g id="line2d_6">
      <g>
       <use xlink:href="#m48d3a06911" x="172.392296" y="252" style="stroke: #000000; stroke-width: 0.8"/>
      </g>
     </g>
     <g id="text_3">
      <!-- 1000 -->
      <g transform="translate(159.667296 266.598437)scale(0.1 -0.1)">
       <defs>
        <path id="DejaVuSans-31" d="M 794 531 
L 1825 531 
L 1825 4091 
L 703 3866 
L 703 4441 
L 1819 4666 
L 2450 4666 
L 2450 531 
L 3481 531 
L 3481 0 
L 794 0 
L 794 531 
z
" transform="scale(0.015625)"/>
       </defs>
       <use xlink:href="#DejaVuSans-31"/>
       <use xlink:href="#DejaVuSans-30" x="63.623047"/>
       <use xlink:href="#DejaVuSans-30" x="127.246094"/>
       <use xlink:href="#DejaVuSans-30" x="190.869141"/>
      </g>
     </g>
    </g>
    <g id="xtick_4">
     <g id="line2d_7">
      <path d="M 223.979353 252 
L 223.979353 34.56 
" clip-path="url(#pb6a0321847)" style="fill: none; stroke-dasharray: 2.96,1.28; stroke-dashoffset: 0; stroke: #b0b0b0; stroke-width: 0.8"/>
     </g>
     <g id="line2d_8">
      <g>
       <use xlink:href="#m48d3a06911" x="223.979353" y="252" style="stroke: #000000; stroke-width: 0.8"/>
      </g>
     </g>
     <g id="text_4">
      <!-- 1500 -->
      <g transform="translate(211.254353 266.598437)scale(0.1 -0.1)">
       <use xlink:href="#DejaVuSans-31"/>
       <use xlink:href="#DejaVuSans-35" x="63.623047"/>
       <use xlink:href="#DejaVuSans-30" x="127.246094"/>
       <use xlink:href="#DejaVuSans-30" x="190.869141"/>
      </g>
     </g>
    </g>
    <g id="xtick_5">
     <g id="line2d_9">
      <path d="M 275.56641 252 
L 275.56641 34.56 
" clip-path="url(#pb6a0321847)" style="fill: none; stroke-dasharray: 2.96,1.28; stroke-dashoffset: 0; stroke: #b0b0b0; stroke-width: 0.8"/>
     </g>
     <g id="line2d_10">
      <g>
       <use xlink:href="#m48d3a06911" x="275.56641" y="252" style="stroke: #000000; stroke-width: 0.8"/>
      </g>
     </g>
     <g id="text_5">
      <!-- 2000 -->
      <g transform="translate(262.84141 266.598437)scale(0.1 -0.1)">
       <defs>
        <path id="DejaVuSans-32" d="M 1228 531 
L 3431 531 
L 3431 0 
L 469 0 
L 469 531 
Q 828 903 1448 1529 
Q 2069 2156 2228 2338 
Q 2531 2678 2651 2914 
Q 2772 3150 2772 3378 
Q 2772 3750 2511 3984 
Q 2250 4219 1831 4219 
Q 1534 4219 1204 4116 
Q 875 4013 500 3803 
L 500 4441 
Q 881 4594 1212 4672 
Q 1544 4750 1819 4750 
Q 2544 4750 2975 4387 
Q 3406 4025 3406 3419 
Q 3406 3131 3298 2873 
Q 3191 2616 2906 2266 
Q 2828 2175 2409 1742 
Q 1991 1309 1228 531 
z
" transform="scale(0.015625)"/>
       </defs>
       <use xlink:href="#DejaVuSans-32"/>
       <use xlink:href="#DejaVuSans-30" x="63.623047"/>
       <use xlink:href="#DejaVuSans-30" x="127.246094"/>
       <use xlink:href="#DejaVuSans-30" x="190.869141"/>
      </g>
     </g>
    </g>
    <g id="xtick_6">
     <g id="line2d_11">
      <path d="M 327.153467 252 
L 327.153467 34.56 
" clip-path="url(#pb6a0321847)" style="fill: none; stroke-dasharray: 2.96,1.28; stroke-dashoffset: 0; stroke: #b0b0b0; stroke-width: 0.8"/>
     </g>
     <g id="line2d_12">
      <g>
       <use xlink:href="#m48d3a06911" x="327.153467" y="252" style="stroke: #000000; stroke-width: 0.8"/>
      </g>
     </g>
     <g id="text_6">
      <!-- 2500 -->
      <g transform="translate(314.428467 266.598437)scale(0.1 -0.1)">
       <use xlink:href="#DejaVuSans-32"/>
       <use xlink:href="#DejaVuSans-35" x="63.623047"/>
       <use xlink:href="#DejaVuSans-30" x="127.246094"/>
       <use xlink:href="#DejaVuSans-30" x="190.869141"/>
      </g>
     </g>
    </g>
    <g id="xtick_7">
     <g id="line2d_13">
      <path d="M 378.740524 252 
L 378.740524 34.56 
" clip-path="url(#pb6a0321847)" style="fill: none; stroke-dasharray: 2.96,1.28; stroke-dashoffset: 0; stroke: #b0b0b0; stroke-width: 0.8"/>
     </g>
     <g id="line2d_14">
      <g>
       <use xlink:href="#m48d3a06911" x="378.740524" y="252" style="stroke: #000000; stroke-width: 0.8"/>
      </g>
     </g>
     <g id="text_7">
      <!-- 3000 -->
      <g transform="translate(366.015524 266.598437)scale(0.1 -0.1)">
       <defs>
        <path id="DejaVuSans-33" d="M 2597 2516 
Q 3050 2419 3304 2112 
Q 3559 1806 3559 1356 
Q 3559 666 3084 287 
Q 2609 -91 1734 -91 
Q 1441 -91 1130 -33 
Q 819 25 488 141 
L 488 750 
Q 750 597 1062 519 
Q 1375 441 1716 441 
Q 2309 441 2620 675 
Q 2931 909 2931 1356 
Q 2931 1769 2642 2001 
Q 2353 2234 1838 2234 
L 1294 2234 
L 1294 2753 
L 1863 2753 
Q 2328 2753 2575 2939 
Q 2822 3125 2822 3475 
Q 2822 3834 2567 4026 
Q 2313 4219 1838 4219 
Q 1578 4219 1281 4162 
Q 984 4106 628 3988 
L 628 4550 
Q 988 4650 1302 4700 
Q 1616 4750 1894 4750 
Q 2613 4750 3031 4423 
Q 3450 4097 3450 3541 
Q 3450 3153 3228 2886 
Q 3006 2619 2597 2516 
z
" transform="scale(0.015625)"/>
       </defs>
       <use xlink:href="#DejaVuSans-33"/>
       <use xlink:href="#DejaVuSans-30" x="63.623047"/>
       <use xlink:href="#DejaVuSans-30" x="127.246094"/>
       <use xlink:href="#DejaVuSans-30" x="190.869141"/>
      </g>
     </g>
    </g>
    <g id="text_8">
     <!-- Steps -->
     <g transform="translate(207.410156 280.276563)scale(0.1 -0.1)">
      <defs>
       <path id="DejaVuSans-53" d="M 3425 4513 
L 3425 3897 
Q 3066 4069 2747 4153 
Q 2428 4238 2131 4238 
Q 1616 4238 1336 4038 
Q 1056 3838 1056 3469 
Q 1056 3159 1242 3001 
Q 1428 2844 1947 2747 
L 2328 2669 
Q 3034 2534 3370 2195 
Q 3706 1856 3706 1288 
Q 3706 609 3251 259 
Q 2797 -91 1919 -91 
Q 1588 -91 1214 -16 
Q 841 59 441 206 
L 441 856 
Q 825 641 1194 531 
Q 1563 422 1919 422 
Q 2459 422 2753 634 
Q 3047 847 3047 1241 
Q 3047 1584 2836 1778 
Q 2625 1972 2144 2069 
L 1759 2144 
Q 1053 2284 737 2584 
Q 422 2884 422 3419 
Q 422 4038 858 4394 
Q 1294 4750 2059 4750 
Q 2388 4750 2728 4690 
Q 3069 4631 3425 4513 
z
" transform="scale(0.015625)"/>
       <path id="DejaVuSans-74" d="M 1172 4494 
L 1172 3500 
L 2356 3500 
L 2356 3053 
L 1172 3053 
L 1172 1153 
Q 1172 725 1289 603 
Q 1406 481 1766 481 
L 2356 481 
L 2356 0 
L 1766 0 
Q 1100 0 847 248 
Q 594 497 594 1153 
L 594 3053 
L 172 3053 
L 172 3500 
L 594 3500 
L 594 4494 
L 1172 4494 
z
" transform="scale(0.015625)"/>
       <path id="DejaVuSans-65" d="M 3597 1894 
L 3597 1613 
L 953 1613 
Q 991 1019 1311 708 
Q 1631 397 2203 397 
Q 2534 397 2845 478 
Q 3156 559 3463 722 
L 3463 178 
Q 3153 47 2828 -22 
Q 2503 -91 2169 -91 
Q 1331 -91 842 396 
Q 353 884 353 1716 
Q 353 2575 817 3079 
Q 1281 3584 2069 3584 
Q 2775 3584 3186 3129 
Q 3597 2675 3597 1894 
z
M 3022 2063 
Q 3016 2534 2758 2815 
Q 2500 3097 2075 3097 
Q 1594 3097 1305 2825 
Q 1016 2553 972 2059 
L 3022 2063 
z
" transform="scale(0.015625)"/>
       <path id="DejaVuSans-70" d="M 1159 525 
L 1159 -1331 
L 581 -1331 
L 581 3500 
L 1159 3500 
L 1159 2969 
Q 1341 3281 1617 3432 
Q 1894 3584 2278 3584 
Q 2916 3584 3314 3078 
Q 3713 2572 3713 1747 
Q 3713 922 3314 415 
Q 2916 -91 2278 -91 
Q 1894 -91 1617 61 
Q 1341 213 1159 525 
z
M 3116 1747 
Q 3116 2381 2855 2742 
Q 2594 3103 2138 3103 
Q 1681 3103 1420 2742 
Q 1159 2381 1159 1747 
Q 1159 1113 1420 752 
Q 1681 391 2138 391 
Q 2594 391 2855 752 
Q 3116 1113 3116 1747 
z
" transform="scale(0.015625)"/>
       <path id="DejaVuSans-73" d="M 2834 3397 
L 2834 2853 
Q 2591 2978 2328 3040 
Q 2066 3103 1784 3103 
Q 1356 3103 1142 2972 
Q 928 2841 928 2578 
Q 928 2378 1081 2264 
Q 1234 2150 1697 2047 
L 1894 2003 
Q 2506 1872 2764 1633 
Q 3022 1394 3022 966 
Q 3022 478 2636 193 
Q 2250 -91 1575 -91 
Q 1294 -91 989 -36 
Q 684 19 347 128 
L 347 722 
Q 666 556 975 473 
Q 1284 391 1588 391 
Q 1994 391 2212 530 
Q 2431 669 2431 922 
Q 2431 1156 2273 1281 
Q 2116 1406 1581 1522 
L 1381 1569 
Q 847 1681 609 1914 
Q 372 2147 372 2553 
Q 372 3047 722 3315 
Q 1072 3584 1716 3584 
Q 2034 3584 2315 3537 
Q 2597 3491 2834 3397 
z
" transform="scale(0.015625)"/>
      </defs>
      <use xlink:href="#DejaVuSans-53"/>
      <use xlink:href="#DejaVuSans-74" x="63.476562"/>
      <use xlink:href="#DejaVuSans-65" x="102.685547"/>
      <use xlink:href="#DejaVuSans-70" x="164.208984"/>
      <use xlink:href="#DejaVuSans-73" x="227.685547"/>
     </g>
    </g>
   </g>
   <g id="matplotlib.axis_2">
    <g id="ytick_1">
     <g id="line2d_15">
      <path d="M 54 243.636923 
L 388.8 243.636923 
" clip-path="url(#pb6a0321847)" style="fill: none; stroke-dasharray: 2.96,1.28; stroke-dashoffset: 0; stroke: #b0b0b0; stroke-width: 0.8"/>
     </g>
     <g id="line2d_16">
      <defs>
       <path id="m34cbb8c582" d="M 0 0 
L -3.5 0 
" style="stroke: #000000; stroke-width: 0.8"/>
      </defs>
      <g>
       <use xlink:href="#m34cbb8c582" x="54" y="243.636923" style="stroke: #000000; stroke-width: 0.8"/>
      </g>
     </g>
     <g id="text_9">
      <!-- −12 -->
      <g transform="translate(25.895312 247.436142)scale(0.1 -0.1)">
       <defs>
        <path id="DejaVuSans-2212" d="M 678 2272 
L 4684 2272 
L 4684 1741 
L 678 1741 
L 678 2272 
z
" transform="scale(0.015625)"/>
       </defs>
       <use xlink:href="#DejaVuSans-2212"/>
       <use xlink:href="#DejaVuSans-31" x="83.789062"/>
       <use xlink:href="#DejaVuSans-32" x="147.412109"/>
      </g>
     </g>
    </g>
    <g id="ytick_2">
     <g id="line2d_17">
      <path d="M 54 210.184615 
L 388.8 210.184615 
" clip-path="url(#pb6a0321847)" style="fill: none; stroke-dasharray: 2.96,1.28; stroke-dashoffset: 0; stroke: #b0b0b0; stroke-width: 0.8"/>
     </g>
     <g id="line2d_18">
      <g>
       <use xlink:href="#m34cbb8c582" x="54" y="210.184615" style="stroke: #000000; stroke-width: 0.8"/>
      </g>
     </g>
     <g id="text_10">
      <!-- −10 -->
      <g transform="translate(25.895312 213.983834)scale(0.1 -0.1)">
       <use xlink:href="#DejaVuSans-2212"/>
       <use xlink:href="#DejaVuSans-31" x="83.789062"/>
       <use xlink:href="#DejaVuSans-30" x="147.412109"/>
      </g>
     </g>
    </g>
    <g id="ytick_3">
     <g id="line2d_19">
      <path d="M 54 176.732308 
L 388.8 176.732308 
" clip-path="url(#pb6a0321847)" style="fill: none; stroke-dasharray: 2.96,1.28; stroke-dashoffset: 0; stroke: #b0b0b0; stroke-width: 0.8"/>
     </g>
     <g id="line2d_20">
      <g>
       <use xlink:href="#m34cbb8c582" x="54" y="176.732308" style="stroke: #000000; stroke-width: 0.8"/>
      </g>
     </g>
     <g id="text_11">
      <!-- −8 -->
      <g transform="translate(32.257812 180.531526)scale(0.1 -0.1)">
       <defs>
        <path id="DejaVuSans-38" d="M 2034 2216 
Q 1584 2216 1326 1975 
Q 1069 1734 1069 1313 
Q 1069 891 1326 650 
Q 1584 409 2034 409 
Q 2484 409 2743 651 
Q 3003 894 3003 1313 
Q 3003 1734 2745 1975 
Q 2488 2216 2034 2216 
z
M 1403 2484 
Q 997 2584 770 2862 
Q 544 3141 544 3541 
Q 544 4100 942 4425 
Q 1341 4750 2034 4750 
Q 2731 4750 3128 4425 
Q 3525 4100 3525 3541 
Q 3525 3141 3298 2862 
Q 3072 2584 2669 2484 
Q 3125 2378 3379 2068 
Q 3634 1759 3634 1313 
Q 3634 634 3220 271 
Q 2806 -91 2034 -91 
Q 1263 -91 848 271 
Q 434 634 434 1313 
Q 434 1759 690 2068 
Q 947 2378 1403 2484 
z
M 1172 3481 
Q 1172 3119 1398 2916 
Q 1625 2713 2034 2713 
Q 2441 2713 2670 2916 
Q 2900 3119 2900 3481 
Q 2900 3844 2670 4047 
Q 2441 4250 2034 4250 
Q 1625 4250 1398 4047 
Q 1172 3844 1172 3481 
z
" transform="scale(0.015625)"/>
       </defs>
       <use xlink:href="#DejaVuSans-2212"/>
       <use xlink:href="#DejaVuSans-38" x="83.789062"/>
      </g>
     </g>
    </g>
    <g id="ytick_4">
     <g id="line2d_21">
      <path d="M 54 143.28 
L 388.8 143.28 
" clip-path="url(#pb6a0321847)" style="fill: none; stroke-dasharray: 2.96,1.28; stroke-dashoffset: 0; stroke: #b0b0b0; stroke-width: 0.8"/>
     </g>
     <g id="line2d_22">
      <g>
       <use xlink:href="#m34cbb8c582" x="54" y="143.28" style="stroke: #000000; stroke-width: 0.8"/>
      </g>
     </g>
     <g id="text_12">
      <!-- −6 -->
      <g transform="translate(32.257812 147.079219)scale(0.1 -0.1)">
       <defs>
        <path id="DejaVuSans-36" d="M 2113 2584 
Q 1688 2584 1439 2293 
Q 1191 2003 1191 1497 
Q 1191 994 1439 701 
Q 1688 409 2113 409 
Q 2538 409 2786 701 
Q 3034 994 3034 1497 
Q 3034 2003 2786 2293 
Q 2538 2584 2113 2584 
z
M 3366 4563 
L 3366 3988 
Q 3128 4100 2886 4159 
Q 2644 4219 2406 4219 
Q 1781 4219 1451 3797 
Q 1122 3375 1075 2522 
Q 1259 2794 1537 2939 
Q 1816 3084 2150 3084 
Q 2853 3084 3261 2657 
Q 3669 2231 3669 1497 
Q 3669 778 3244 343 
Q 2819 -91 2113 -91 
Q 1303 -91 875 529 
Q 447 1150 447 2328 
Q 447 3434 972 4092 
Q 1497 4750 2381 4750 
Q 2619 4750 2861 4703 
Q 3103 4656 3366 4563 
z
" transform="scale(0.015625)"/>
       </defs>
       <use xlink:href="#DejaVuSans-2212"/>
       <use xlink:href="#DejaVuSans-36" x="83.789062"/>
      </g>
     </g>
    </g>
    <g id="ytick_5">
     <g id="line2d_23">
      <path d="M 54 109.827692 
L 388.8 109.827692 
" clip-path="url(#pb6a0321847)" style="fill: none; stroke-dasharray: 2.96,1.28; stroke-dashoffset: 0; stroke: #b0b0b0; stroke-width: 0.8"/>
     </g>
     <g id="line2d_24">
      <g>
       <use xlink:href="#m34cbb8c582" x="54" y="109.827692" style="stroke: #000000; stroke-width: 0.8"/>
      </g>
     </g>
     <g id="text_13">
      <!-- −4 -->
      <g transform="translate(32.257812 113.626911)scale(0.1 -0.1)">
       <defs>
        <path id="DejaVuSans-34" d="M 2419 4116 
L 825 1625 
L 2419 1625 
L 2419 4116 
z
M 2253 4666 
L 3047 4666 
L 3047 1625 
L 3713 1625 
L 3713 1100 
L 3047 1100 
L 3047 0 
L 2419 0 
L 2419 1100 
L 313 1100 
L 313 1709 
L 2253 4666 
z
" transform="scale(0.015625)"/>
       </defs>
       <use xlink:href="#DejaVuSans-2212"/>
       <use xlink:href="#DejaVuSans-34" x="83.789062"/>
      </g>
     </g>
    </g>
    <g id="ytick_6">
     <g id="line2d_25">
      <path d="M 54 76.375385 
L 388.8 76.375385 
" clip-path="url(#pb6a0321847)" style="fill: none; stroke-dasharray: 2.96,1.28; stroke-dashoffset: 0; stroke: #b0b0b0; stroke-width: 0.8"/>
     </g>
     <g id="line2d_26">
      <g>
       <use xlink:href="#m34cbb8c582" x="54" y="76.375385" style="stroke: #000000; stroke-width: 0.8"/>
      </g>
     </g>
     <g id="text_14">
      <!-- −2 -->
      <g transform="translate(32.257812 80.174603)scale(0.1 -0.1)">
       <use xlink:href="#DejaVuSans-2212"/>
       <use xlink:href="#DejaVuSans-32" x="83.789062"/>
      </g>
     </g>
    </g>
    <g id="ytick_7">
     <g id="line2d_27">
      <path d="M 54 42.923077 
L 388.8 42.923077 
" clip-path="url(#pb6a0321847)" style="fill: none; stroke-dasharray: 2.96,1.28; stroke-dashoffset: 0; stroke: #b0b0b0; stroke-width: 0.8"/>
     </g>
     <g id="line2d_28">
      <g>
       <use xlink:href="#m34cbb8c582" x="54" y="42.923077" style="stroke: #000000; stroke-width: 0.8"/>
      </g>
     </g>
     <g id="text_15">
      <!-- 0 -->
      <g transform="translate(40.6375 46.722296)scale(0.1 -0.1)">
       <use xlink:href="#DejaVuSans-30"/>
      </g>
     </g>
    </g>
    <g id="text_16">
     <!-- Policy value error -->
     <g transform="translate(19.815625 186.597969)rotate(-90)scale(0.1 -0.1)">
      <defs>
       <path id="DejaVuSans-50" d="M 1259 4147 
L 1259 2394 
L 2053 2394 
Q 2494 2394 2734 2622 
Q 2975 2850 2975 3272 
Q 2975 3691 2734 3919 
Q 2494 4147 2053 4147 
L 1259 4147 
z
M 628 4666 
L 2053 4666 
Q 2838 4666 3239 4311 
Q 3641 3956 3641 3272 
Q 3641 2581 3239 2228 
Q 2838 1875 2053 1875 
L 1259 1875 
L 1259 0 
L 628 0 
L 628 4666 
z
" transform="scale(0.015625)"/>
       <path id="DejaVuSans-6f" d="M 1959 3097 
Q 1497 3097 1228 2736 
Q 959 2375 959 1747 
Q 959 1119 1226 758 
Q 1494 397 1959 397 
Q 2419 397 2687 759 
Q 2956 1122 2956 1747 
Q 2956 2369 2687 2733 
Q 2419 3097 1959 3097 
z
M 1959 3584 
Q 2709 3584 3137 3096 
Q 3566 2609 3566 1747 
Q 3566 888 3137 398 
Q 2709 -91 1959 -91 
Q 1206 -91 779 398 
Q 353 888 353 1747 
Q 353 2609 779 3096 
Q 1206 3584 1959 3584 
z
" transform="scale(0.015625)"/>
       <path id="DejaVuSans-6c" d="M 603 4863 
L 1178 4863 
L 1178 0 
L 603 0 
L 603 4863 
z
" transform="scale(0.015625)"/>
       <path id="DejaVuSans-69" d="M 603 3500 
L 1178 3500 
L 1178 0 
L 603 0 
L 603 3500 
z
M 603 4863 
L 1178 4863 
L 1178 4134 
L 603 4134 
L 603 4863 
z
" transform="scale(0.015625)"/>
       <path id="DejaVuSans-63" d="M 3122 3366 
L 3122 2828 
Q 2878 2963 2633 3030 
Q 2388 3097 2138 3097 
Q 1578 3097 1268 2742 
Q 959 2388 959 1747 
Q 959 1106 1268 751 
Q 1578 397 2138 397 
Q 2388 397 2633 464 
Q 2878 531 3122 666 
L 3122 134 
Q 2881 22 2623 -34 
Q 2366 -91 2075 -91 
Q 1284 -91 818 406 
Q 353 903 353 1747 
Q 353 2603 823 3093 
Q 1294 3584 2113 3584 
Q 2378 3584 2631 3529 
Q 2884 3475 3122 3366 
z
" transform="scale(0.015625)"/>
       <path id="DejaVuSans-79" d="M 2059 -325 
Q 1816 -950 1584 -1140 
Q 1353 -1331 966 -1331 
L 506 -1331 
L 506 -850 
L 844 -850 
Q 1081 -850 1212 -737 
Q 1344 -625 1503 -206 
L 1606 56 
L 191 3500 
L 800 3500 
L 1894 763 
L 2988 3500 
L 3597 3500 
L 2059 -325 
z
" transform="scale(0.015625)"/>
       <path id="DejaVuSans-20" transform="scale(0.015625)"/>
       <path id="DejaVuSans-76" d="M 191 3500 
L 800 3500 
L 1894 563 
L 2988 3500 
L 3597 3500 
L 2284 0 
L 1503 0 
L 191 3500 
z
" transform="scale(0.015625)"/>
       <path id="DejaVuSans-61" d="M 2194 1759 
Q 1497 1759 1228 1600 
Q 959 1441 959 1056 
Q 959 750 1161 570 
Q 1363 391 1709 391 
Q 2188 391 2477 730 
Q 2766 1069 2766 1631 
L 2766 1759 
L 2194 1759 
z
M 3341 1997 
L 3341 0 
L 2766 0 
L 2766 531 
Q 2569 213 2275 61 
Q 1981 -91 1556 -91 
Q 1019 -91 701 211 
Q 384 513 384 1019 
Q 384 1609 779 1909 
Q 1175 2209 1959 2209 
L 2766 2209 
L 2766 2266 
Q 2766 2663 2505 2880 
Q 2244 3097 1772 3097 
Q 1472 3097 1187 3025 
Q 903 2953 641 2809 
L 641 3341 
Q 956 3463 1253 3523 
Q 1550 3584 1831 3584 
Q 2591 3584 2966 3190 
Q 3341 2797 3341 1997 
z
" transform="scale(0.015625)"/>
       <path id="DejaVuSans-75" d="M 544 1381 
L 544 3500 
L 1119 3500 
L 1119 1403 
Q 1119 906 1312 657 
Q 1506 409 1894 409 
Q 2359 409 2629 706 
Q 2900 1003 2900 1516 
L 2900 3500 
L 3475 3500 
L 3475 0 
L 2900 0 
L 2900 538 
Q 2691 219 2414 64 
Q 2138 -91 1772 -91 
Q 1169 -91 856 284 
Q 544 659 544 1381 
z
M 1991 3584 
L 1991 3584 
z
" transform="scale(0.015625)"/>
       <path id="DejaVuSans-72" d="M 2631 2963 
Q 2534 3019 2420 3045 
Q 2306 3072 2169 3072 
Q 1681 3072 1420 2755 
Q 1159 2438 1159 1844 
L 1159 0 
L 581 0 
L 581 3500 
L 1159 3500 
L 1159 2956 
Q 1341 3275 1631 3429 
Q 1922 3584 2338 3584 
Q 2397 3584 2469 3576 
Q 2541 3569 2628 3553 
L 2631 2963 
z
" transform="scale(0.015625)"/>
      </defs>
      <use xlink:href="#DejaVuSans-50"/>
      <use xlink:href="#DejaVuSans-6f" x="56.677734"/>
      <use xlink:href="#DejaVuSans-6c" x="117.859375"/>
      <use xlink:href="#DejaVuSans-69" x="145.642578"/>
      <use xlink:href="#DejaVuSans-63" x="173.425781"/>
      <use xlink:href="#DejaVuSans-79" x="228.40625"/>
      <use xlink:href="#DejaVuSans-20" x="287.585938"/>
      <use xlink:href="#DejaVuSans-76" x="319.373047"/>
      <use xlink:href="#DejaVuSans-61" x="378.552734"/>
      <use xlink:href="#DejaVuSans-6c" x="439.832031"/>
      <use xlink:href="#DejaVuSans-75" x="467.615234"/>
      <use xlink:href="#DejaVuSans-65" x="530.994141"/>
      <use xlink:href="#DejaVuSans-20" x="592.517578"/>
      <use xlink:href="#DejaVuSans-65" x="624.304688"/>
      <use xlink:href="#DejaVuSans-72" x="685.828125"/>
      <use xlink:href="#DejaVuSans-72" x="725.191406"/>
      <use xlink:href="#DejaVuSans-6f" x="764.054688"/>
      <use xlink:href="#DejaVuSans-72" x="825.236328"/>
     </g>
    </g>
   </g>
   <g id="line2d_29">
    <path d="M 69.218182 252.938632 
L 74.376888 251.159549 
L 79.535593 231.72054 
L 84.694299 82.744317 
L 89.853005 112.960719 
L 95.01171 79.367465 
L 100.170416 90.931186 
L 105.329122 119.692966 
L 110.487827 108.57327 
L 115.646533 87.527596 
L 120.805239 137.571079 
L 125.963945 103.897339 
L 131.12265 172.313188 
L 136.281356 113.602178 
L 141.440062 119.433924 
L 146.598767 130.083283 
L 151.757473 130.596695 
L 156.916179 93.232091 
L 162.074884 105.033466 
L 167.23359 92.785076 
L 172.392296 87.17846 
L 177.551002 89.839381 
L 182.709707 99.717138 
L 187.868413 92.117629 
L 193.027119 119.239346 
L 198.185824 102.440033 
L 203.34453 92.220676 
L 208.503236 86.334245 
L 213.661941 87.529241 
L 218.820647 87.529241 
L 223.979353 87.529241 
L 229.138059 79.26885 
L 234.296764 79.738226 
L 239.45547 89.812674 
L 244.614176 89.812674 
L 249.772881 82.167187 
L 254.931587 79.32952 
L 260.090293 67.755171 
L 265.248998 67.755171 
L 270.407704 67.755171 
L 275.56641 76.434306 
L 280.725116 67.755171 
L 285.883821 74.39999 
L 291.042527 74.39999 
L 296.201233 65.655612 
L 301.359938 65.655612 
L 306.518644 65.655612 
L 311.67735 65.655612 
L 316.836055 74.39999 
L 321.994761 76.434306 
L 327.153467 74.39999 
L 332.312173 74.39999 
L 337.470878 74.614538 
L 342.629584 74.614538 
L 347.78829 65.876728 
L 352.946995 74.614538 
L 358.105701 65.876728 
L 363.264407 74.614538 
L 368.423112 74.614538 
L 373.581818 74.614538 
" clip-path="url(#pb6a0321847)" style="fill: none; stroke: #9d02d7; stroke-width: 1.5; stroke-linecap: square"/>
    <defs>
     <path id="m4cdb64fa74" d="M 0 -2 
L -2 2 
L 2 2 
z
" style="stroke: #9d02d7; stroke-linejoin: miter"/>
    </defs>
    <g clip-path="url(#pb6a0321847)">
     <use xlink:href="#m4cdb64fa74" x="69.218182" y="252.938632" style="fill: #9d02d7; stroke: #9d02d7; stroke-linejoin: miter"/>
     <use xlink:href="#m4cdb64fa74" x="74.376888" y="251.159549" style="fill: #9d02d7; stroke: #9d02d7; stroke-linejoin: miter"/>
     <use xlink:href="#m4cdb64fa74" x="79.535593" y="231.72054" style="fill: #9d02d7; stroke: #9d02d7; stroke-linejoin: miter"/>
     <use xlink:href="#m4cdb64fa74" x="84.694299" y="82.744317" style="fill: #9d02d7; stroke: #9d02d7; stroke-linejoin: miter"/>
     <use xlink:href="#m4cdb64fa74" x="89.853005" y="112.960719" style="fill: #9d02d7; stroke: #9d02d7; stroke-linejoin: miter"/>
     <use xlink:href="#m4cdb64fa74" x="95.01171" y="79.367465" style="fill: #9d02d7; stroke: #9d02d7; stroke-linejoin: miter"/>
     <use xlink:href="#m4cdb64fa74" x="100.170416" y="90.931186" style="fill: #9d02d7; stroke: #9d02d7; stroke-linejoin: miter"/>
     <use xlink:href="#m4cdb64fa74" x="105.329122" y="119.692966" style="fill: #9d02d7; stroke: #9d02d7; stroke-linejoin: miter"/>
     <use xlink:href="#m4cdb64fa74" x="110.487827" y="108.57327" style="fill: #9d02d7; stroke: #9d02d7; stroke-linejoin: miter"/>
     <use xlink:href="#m4cdb64fa74" x="115.646533" y="87.527596" style="fill: #9d02d7; stroke: #9d02d7; stroke-linejoin: miter"/>
     <use xlink:href="#m4cdb64fa74" x="120.805239" y="137.571079" style="fill: #9d02d7; stroke: #9d02d7; stroke-linejoin: miter"/>
     <use xlink:href="#m4cdb64fa74" x="125.963945" y="103.897339" style="fill: #9d02d7; stroke: #9d02d7; stroke-linejoin: miter"/>
     <use xlink:href="#m4cdb64fa74" x="131.12265" y="172.313188" style="fill: #9d02d7; stroke: #9d02d7; stroke-linejoin: miter"/>
     <use xlink:href="#m4cdb64fa74" x="136.281356" y="113.602178" style="fill: #9d02d7; stroke: #9d02d7; stroke-linejoin: miter"/>
     <use xlink:href="#m4cdb64fa74" x="141.440062" y="119.433924" style="fill: #9d02d7; stroke: #9d02d7; stroke-linejoin: miter"/>
     <use xlink:href="#m4cdb64fa74" x="146.598767" y="130.083283" style="fill: #9d02d7; stroke: #9d02d7; stroke-linejoin: miter"/>
     <use xlink:href="#m4cdb64fa74" x="151.757473" y="130.596695" style="fill: #9d02d7; stroke: #9d02d7; stroke-linejoin: miter"/>
     <use xlink:href="#m4cdb64fa74" x="156.916179" y="93.232091" style="fill: #9d02d7; stroke: #9d02d7; stroke-linejoin: miter"/>
     <use xlink:href="#m4cdb64fa74" x="162.074884" y="105.033466" style="fill: #9d02d7; stroke: #9d02d7; stroke-linejoin: miter"/>
     <use xlink:href="#m4cdb64fa74" x="167.23359" y="92.785076" style="fill: #9d02d7; stroke: #9d02d7; stroke-linejoin: miter"/>
     <use xlink:href="#m4cdb64fa74" x="172.392296" y="87.17846" style="fill: #9d02d7; stroke: #9d02d7; stroke-linejoin: miter"/>
     <use xlink:href="#m4cdb64fa74" x="177.551002" y="89.839381" style="fill: #9d02d7; stroke: #9d02d7; stroke-linejoin: miter"/>
     <use xlink:href="#m4cdb64fa74" x="182.709707" y="99.717138" style="fill: #9d02d7; stroke: #9d02d7; stroke-linejoin: miter"/>
     <use xlink:href="#m4cdb64fa74" x="187.868413" y="92.117629" style="fill: #9d02d7; stroke: #9d02d7; stroke-linejoin: miter"/>
     <use xlink:href="#m4cdb64fa74" x="193.027119" y="119.239346" style="fill: #9d02d7; stroke: #9d02d7; stroke-linejoin: miter"/>
     <use xlink:href="#m4cdb64fa74" x="198.185824" y="102.440033" style="fill: #9d02d7; stroke: #9d02d7; stroke-linejoin: miter"/>
     <use xlink:href="#m4cdb64fa74" x="203.34453" y="92.220676" style="fill: #9d02d7; stroke: #9d02d7; stroke-linejoin: miter"/>
     <use xlink:href="#m4cdb64fa74" x="208.503236" y="86.334245" style="fill: #9d02d7; stroke: #9d02d7; stroke-linejoin: miter"/>
     <use xlink:href="#m4cdb64fa74" x="213.661941" y="87.529241" style="fill: #9d02d7; stroke: #9d02d7; stroke-linejoin: miter"/>
     <use xlink:href="#m4cdb64fa74" x="218.820647" y="87.529241" style="fill: #9d02d7; stroke: #9d02d7; stroke-linejoin: miter"/>
     <use xlink:href="#m4cdb64fa74" x="223.979353" y="87.529241" style="fill: #9d02d7; stroke: #9d02d7; stroke-linejoin: miter"/>
     <use xlink:href="#m4cdb64fa74" x="229.138059" y="79.26885" style="fill: #9d02d7; stroke: #9d02d7; stroke-linejoin: miter"/>
     <use xlink:href="#m4cdb64fa74" x="234.296764" y="79.738226" style="fill: #9d02d7; stroke: #9d02d7; stroke-linejoin: miter"/>
     <use xlink:href="#m4cdb64fa74" x="239.45547" y="89.812674" style="fill: #9d02d7; stroke: #9d02d7; stroke-linejoin: miter"/>
     <use xlink:href="#m4cdb64fa74" x="244.614176" y="89.812674" style="fill: #9d02d7; stroke: #9d02d7; stroke-linejoin: miter"/>
     <use xlink:href="#m4cdb64fa74" x="249.772881" y="82.167187" style="fill: #9d02d7; stroke: #9d02d7; stroke-linejoin: miter"/>
     <use xlink:href="#m4cdb64fa74" x="254.931587" y="79.32952" style="fill: #9d02d7; stroke: #9d02d7; stroke-linejoin: miter"/>
     <use xlink:href="#m4cdb64fa74" x="260.090293" y="67.755171" style="fill: #9d02d7; stroke: #9d02d7; stroke-linejoin: miter"/>
     <use xlink:href="#m4cdb64fa74" x="265.248998" y="67.755171" style="fill: #9d02d7; stroke: #9d02d7; stroke-linejoin: miter"/>
     <use xlink:href="#m4cdb64fa74" x="270.407704" y="67.755171" style="fill: #9d02d7; stroke: #9d02d7; stroke-linejoin: miter"/>
     <use xlink:href="#m4cdb64fa74" x="275.56641" y="76.434306" style="fill: #9d02d7; stroke: #9d02d7; stroke-linejoin: miter"/>
     <use xlink:href="#m4cdb64fa74" x="280.725116" y="67.755171" style="fill: #9d02d7; stroke: #9d02d7; stroke-linejoin: miter"/>
     <use xlink:href="#m4cdb64fa74" x="285.883821" y="74.39999" style="fill: #9d02d7; stroke: #9d02d7; stroke-linejoin: miter"/>
     <use xlink:href="#m4cdb64fa74" x="291.042527" y="74.39999" style="fill: #9d02d7; stroke: #9d02d7; stroke-linejoin: miter"/>
     <use xlink:href="#m4cdb64fa74" x="296.201233" y="65.655612" style="fill: #9d02d7; stroke: #9d02d7; stroke-linejoin: miter"/>
     <use xlink:href="#m4cdb64fa74" x="301.359938" y="65.655612" style="fill: #9d02d7; stroke: #9d02d7; stroke-linejoin: miter"/>
     <use xlink:href="#m4cdb64fa74" x="306.518644" y="65.655612" style="fill: #9d02d7; stroke: #9d02d7; stroke-linejoin: miter"/>
     <use xlink:href="#m4cdb64fa74" x="311.67735" y="65.655612" style="fill: #9d02d7; stroke: #9d02d7; stroke-linejoin: miter"/>
     <use xlink:href="#m4cdb64fa74" x="316.836055" y="74.39999" style="fill: #9d02d7; stroke: #9d02d7; stroke-linejoin: miter"/>
     <use xlink:href="#m4cdb64fa74" x="321.994761" y="76.434306" style="fill: #9d02d7; stroke: #9d02d7; stroke-linejoin: miter"/>
     <use xlink:href="#m4cdb64fa74" x="327.153467" y="74.39999" style="fill: #9d02d7; stroke: #9d02d7; stroke-linejoin: miter"/>
     <use xlink:href="#m4cdb64fa74" x="332.312173" y="74.39999" style="fill: #9d02d7; stroke: #9d02d7; stroke-linejoin: miter"/>
     <use xlink:href="#m4cdb64fa74" x="337.470878" y="74.614538" style="fill: #9d02d7; stroke: #9d02d7; stroke-linejoin: miter"/>
     <use xlink:href="#m4cdb64fa74" x="342.629584" y="74.614538" style="fill: #9d02d7; stroke: #9d02d7; stroke-linejoin: miter"/>
     <use xlink:href="#m4cdb64fa74" x="347.78829" y="65.876728" style="fill: #9d02d7; stroke: #9d02d7; stroke-linejoin: miter"/>
     <use xlink:href="#m4cdb64fa74" x="352.946995" y="74.614538" style="fill: #9d02d7; stroke: #9d02d7; stroke-linejoin: miter"/>
     <use xlink:href="#m4cdb64fa74" x="358.105701" y="65.876728" style="fill: #9d02d7; stroke: #9d02d7; stroke-linejoin: miter"/>
     <use xlink:href="#m4cdb64fa74" x="363.264407" y="74.614538" style="fill: #9d02d7; stroke: #9d02d7; stroke-linejoin: miter"/>
     <use xlink:href="#m4cdb64fa74" x="368.423112" y="74.614538" style="fill: #9d02d7; stroke: #9d02d7; stroke-linejoin: miter"/>
     <use xlink:href="#m4cdb64fa74" x="373.581818" y="74.614538" style="fill: #9d02d7; stroke: #9d02d7; stroke-linejoin: miter"/>
    </g>
   </g>
   <g id="line2d_30">
    <path d="M 69.218182 252.927146 
L 74.376888 184.178974 
L 79.535593 235.80093 
L 84.694299 65.037589 
L 89.853005 67.097801 
L 95.01171 64.596851 
L 100.170416 55.057652 
L 105.329122 60.992181 
L 110.487827 63.032618 
L 115.646533 51.733409 
L 120.805239 71.097589 
L 125.963945 71.289924 
L 131.12265 59.065738 
L 136.281356 67.755632 
L 141.440062 59.183751 
L 146.598767 59.183751 
L 151.757473 72.884704 
L 156.916179 77.99653 
L 162.074884 77.871002 
L 167.23359 77.871002 
L 172.392296 51.247461 
L 177.551002 51.085399 
L 182.709707 55.135202 
L 187.868413 61.50897 
L 193.027119 72.227967 
L 198.185824 69.942452 
L 203.34453 72.227967 
L 208.503236 61.50897 
L 213.661941 48.711625 
L 218.820647 49.967648 
L 223.979353 46.439657 
L 229.138059 46.439657 
L 234.296764 46.439657 
L 239.45547 46.539276 
L 244.614176 58.705568 
L 249.772881 46.539276 
L 254.931587 46.539276 
L 260.090293 46.539276 
L 265.248998 46.439657 
L 270.407704 46.439657 
L 275.56641 46.439657 
L 280.725116 46.439657 
L 285.883821 46.439657 
L 291.042527 46.439657 
L 296.201233 47.207107 
L 301.359938 47.207107 
L 306.518644 47.207107 
L 311.67735 46.439657 
L 316.836055 46.439657 
L 321.994761 46.439657 
L 327.153467 46.439657 
L 332.312173 46.439657 
L 337.470878 46.439657 
L 342.629584 46.539276 
L 347.78829 47.207107 
L 352.946995 47.207107 
L 358.105701 47.207107 
L 363.264407 47.207107 
L 368.423112 47.207107 
L 373.581818 47.207107 
" clip-path="url(#pb6a0321847)" style="fill: none; stroke: #0000ff; stroke-width: 1.5; stroke-linecap: square"/>
    <defs>
     <path id="mc1f5905df9" d="M 0 2 
C 0.530406 2 1.03916 1.789267 1.414214 1.414214 
C 1.789267 1.03916 2 0.530406 2 0 
C 2 -0.530406 1.789267 -1.03916 1.414214 -1.414214 
C 1.03916 -1.789267 0.530406 -2 0 -2 
C -0.530406 -2 -1.03916 -1.789267 -1.414214 -1.414214 
C -1.789267 -1.03916 -2 -0.530406 -2 0 
C -2 0.530406 -1.789267 1.03916 -1.414214 1.414214 
C -1.03916 1.789267 -0.530406 2 0 2 
z
" style="stroke: #0000ff"/>
    </defs>
    <g clip-path="url(#pb6a0321847)">
     <use xlink:href="#mc1f5905df9" x="69.218182" y="252.927146" style="fill: #0000ff; stroke: #0000ff"/>
     <use xlink:href="#mc1f5905df9" x="74.376888" y="184.178974" style="fill: #0000ff; stroke: #0000ff"/>
     <use xlink:href="#mc1f5905df9" x="79.535593" y="235.80093" style="fill: #0000ff; stroke: #0000ff"/>
     <use xlink:href="#mc1f5905df9" x="84.694299" y="65.037589" style="fill: #0000ff; stroke: #0000ff"/>
     <use xlink:href="#mc1f5905df9" x="89.853005" y="67.097801" style="fill: #0000ff; stroke: #0000ff"/>
     <use xlink:href="#mc1f5905df9" x="95.01171" y="64.596851" style="fill: #0000ff; stroke: #0000ff"/>
     <use xlink:href="#mc1f5905df9" x="100.170416" y="55.057652" style="fill: #0000ff; stroke: #0000ff"/>
     <use xlink:href="#mc1f5905df9" x="105.329122" y="60.992181" style="fill: #0000ff; stroke: #0000ff"/>
     <use xlink:href="#mc1f5905df9" x="110.487827" y="63.032618" style="fill: #0000ff; stroke: #0000ff"/>
     <use xlink:href="#mc1f5905df9" x="115.646533" y="51.733409" style="fill: #0000ff; stroke: #0000ff"/>
     <use xlink:href="#mc1f5905df9" x="120.805239" y="71.097589" style="fill: #0000ff; stroke: #0000ff"/>
     <use xlink:href="#mc1f5905df9" x="125.963945" y="71.289924" style="fill: #0000ff; stroke: #0000ff"/>
     <use xlink:href="#mc1f5905df9" x="131.12265" y="59.065738" style="fill: #0000ff; stroke: #0000ff"/>
     <use xlink:href="#mc1f5905df9" x="136.281356" y="67.755632" style="fill: #0000ff; stroke: #0000ff"/>
     <use xlink:href="#mc1f5905df9" x="141.440062" y="59.183751" style="fill: #0000ff; stroke: #0000ff"/>
     <use xlink:href="#mc1f5905df9" x="146.598767" y="59.183751" style="fill: #0000ff; stroke: #0000ff"/>
     <use xlink:href="#mc1f5905df9" x="151.757473" y="72.884704" style="fill: #0000ff; stroke: #0000ff"/>
     <use xlink:href="#mc1f5905df9" x="156.916179" y="77.99653" style="fill: #0000ff; stroke: #0000ff"/>
     <use xlink:href="#mc1f5905df9" x="162.074884" y="77.871002" style="fill: #0000ff; stroke: #0000ff"/>
     <use xlink:href="#mc1f5905df9" x="167.23359" y="77.871002" style="fill: #0000ff; stroke: #0000ff"/>
     <use xlink:href="#mc1f5905df9" x="172.392296" y="51.247461" style="fill: #0000ff; stroke: #0000ff"/>
     <use xlink:href="#mc1f5905df9" x="177.551002" y="51.085399" style="fill: #0000ff; stroke: #0000ff"/>
     <use xlink:href="#mc1f5905df9" x="182.709707" y="55.135202" style="fill: #0000ff; stroke: #0000ff"/>
     <use xlink:href="#mc1f5905df9" x="187.868413" y="61.50897" style="fill: #0000ff; stroke: #0000ff"/>
     <use xlink:href="#mc1f5905df9" x="193.027119" y="72.227967" style="fill: #0000ff; stroke: #0000ff"/>
     <use xlink:href="#mc1f5905df9" x="198.185824" y="69.942452" style="fill: #0000ff; stroke: #0000ff"/>
     <use xlink:href="#mc1f5905df9" x="203.34453" y="72.227967" style="fill: #0000ff; stroke: #0000ff"/>
     <use xlink:href="#mc1f5905df9" x="208.503236" y="61.50897" style="fill: #0000ff; stroke: #0000ff"/>
     <use xlink:href="#mc1f5905df9" x="213.661941" y="48.711625" style="fill: #0000ff; stroke: #0000ff"/>
     <use xlink:href="#mc1f5905df9" x="218.820647" y="49.967648" style="fill: #0000ff; stroke: #0000ff"/>
     <use xlink:href="#mc1f5905df9" x="223.979353" y="46.439657" style="fill: #0000ff; stroke: #0000ff"/>
     <use xlink:href="#mc1f5905df9" x="229.138059" y="46.439657" style="fill: #0000ff; stroke: #0000ff"/>
     <use xlink:href="#mc1f5905df9" x="234.296764" y="46.439657" style="fill: #0000ff; stroke: #0000ff"/>
     <use xlink:href="#mc1f5905df9" x="239.45547" y="46.539276" style="fill: #0000ff; stroke: #0000ff"/>
     <use xlink:href="#mc1f5905df9" x="244.614176" y="58.705568" style="fill: #0000ff; stroke: #0000ff"/>
     <use xlink:href="#mc1f5905df9" x="249.772881" y="46.539276" style="fill: #0000ff; stroke: #0000ff"/>
     <use xlink:href="#mc1f5905df9" x="254.931587" y="46.539276" style="fill: #0000ff; stroke: #0000ff"/>
     <use xlink:href="#mc1f5905df9" x="260.090293" y="46.539276" style="fill: #0000ff; stroke: #0000ff"/>
     <use xlink:href="#mc1f5905df9" x="265.248998" y="46.439657" style="fill: #0000ff; stroke: #0000ff"/>
     <use xlink:href="#mc1f5905df9" x="270.407704" y="46.439657" style="fill: #0000ff; stroke: #0000ff"/>
     <use xlink:href="#mc1f5905df9" x="275.56641" y="46.439657" style="fill: #0000ff; stroke: #0000ff"/>
     <use xlink:href="#mc1f5905df9" x="280.725116" y="46.439657" style="fill: #0000ff; stroke: #0000ff"/>
     <use xlink:href="#mc1f5905df9" x="285.883821" y="46.439657" style="fill: #0000ff; stroke: #0000ff"/>
     <use xlink:href="#mc1f5905df9" x="291.042527" y="46.439657" style="fill: #0000ff; stroke: #0000ff"/>
     <use xlink:href="#mc1f5905df9" x="296.201233" y="47.207107" style="fill: #0000ff; stroke: #0000ff"/>
     <use xlink:href="#mc1f5905df9" x="301.359938" y="47.207107" style="fill: #0000ff; stroke: #0000ff"/>
     <use xlink:href="#mc1f5905df9" x="306.518644" y="47.207107" style="fill: #0000ff; stroke: #0000ff"/>
     <use xlink:href="#mc1f5905df9" x="311.67735" y="46.439657" style="fill: #0000ff; stroke: #0000ff"/>
     <use xlink:href="#mc1f5905df9" x="316.836055" y="46.439657" style="fill: #0000ff; stroke: #0000ff"/>
     <use xlink:href="#mc1f5905df9" x="321.994761" y="46.439657" style="fill: #0000ff; stroke: #0000ff"/>
     <use xlink:href="#mc1f5905df9" x="327.153467" y="46.439657" style="fill: #0000ff; stroke: #0000ff"/>
     <use xlink:href="#mc1f5905df9" x="332.312173" y="46.439657" style="fill: #0000ff; stroke: #0000ff"/>
     <use xlink:href="#mc1f5905df9" x="337.470878" y="46.439657" style="fill: #0000ff; stroke: #0000ff"/>
     <use xlink:href="#mc1f5905df9" x="342.629584" y="46.539276" style="fill: #0000ff; stroke: #0000ff"/>
     <use xlink:href="#mc1f5905df9" x="347.78829" y="47.207107" style="fill: #0000ff; stroke: #0000ff"/>
     <use xlink:href="#mc1f5905df9" x="352.946995" y="47.207107" style="fill: #0000ff; stroke: #0000ff"/>
     <use xlink:href="#mc1f5905df9" x="358.105701" y="47.207107" style="fill: #0000ff; stroke: #0000ff"/>
     <use xlink:href="#mc1f5905df9" x="363.264407" y="47.207107" style="fill: #0000ff; stroke: #0000ff"/>
     <use xlink:href="#mc1f5905df9" x="368.423112" y="47.207107" style="fill: #0000ff; stroke: #0000ff"/>
     <use xlink:href="#mc1f5905df9" x="373.581818" y="47.207107" style="fill: #0000ff; stroke: #0000ff"/>
    </g>
   </g>
   <g id="line2d_31">
    <path d="M 69.218182 254.128743 
L 74.376888 255.444051 
L 79.535593 259.577772 
L 84.694299 236.406666 
L 89.853005 137.703901 
L 95.01171 172.445127 
L 100.170416 157.482593 
L 105.329122 170.43803 
L 110.487827 167.635439 
L 115.646533 149.283285 
L 120.805239 149.284502 
L 125.963945 149.283285 
L 131.12265 149.281711 
L 136.281356 166.472584 
L 141.440062 143.199577 
L 146.598767 143.199577 
L 151.757473 147.143166 
L 156.916179 137.121149 
L 162.074884 142.665337 
L 167.23359 198.314212 
L 172.392296 128.299885 
L 177.551002 128.299885 
L 182.709707 128.299885 
L 187.868413 128.299885 
L 193.027119 128.299885 
L 198.185824 128.299885 
L 203.34453 128.299885 
L 208.503236 128.296828 
L 213.661941 128.299448 
L 218.820647 128.297974 
L 223.979353 133.238552 
L 229.138059 140.257606 
L 234.296764 132.620565 
L 239.45547 132.620565 
L 244.614176 132.620565 
L 249.772881 147.319957 
L 254.931587 132.620565 
L 260.090293 134.800912 
L 265.248998 126.398186 
L 270.407704 126.398186 
L 275.56641 126.920844 
L 280.725116 128.296434 
L 285.883821 128.296434 
L 291.042527 126.920844 
L 296.201233 126.920844 
L 301.359938 174.649633 
L 306.518644 177.184514 
L 311.67735 174.649633 
L 316.836055 60.251488 
L 321.994761 60.251488 
L 327.153467 60.251488 
L 332.312173 60.251488 
L 337.470878 60.251488 
L 342.629584 60.251488 
L 347.78829 60.251488 
L 352.946995 60.251488 
L 358.105701 60.251488 
L 363.264407 60.251488 
L 368.423112 60.251488 
L 373.581818 60.251488 
" clip-path="url(#pb6a0321847)" style="fill: none; stroke: #ff7763; stroke-width: 1.5; stroke-linecap: square"/>
    <defs>
     <path id="m7af4dd91f2" d="M -2 2 
L 2 -2 
M -2 -2 
L 2 2 
" style="stroke: #ff7763"/>
    </defs>
    <g clip-path="url(#pb6a0321847)">
     <use xlink:href="#m7af4dd91f2" x="69.218182" y="254.128743" style="fill: #ff7763; stroke: #ff7763"/>
     <use xlink:href="#m7af4dd91f2" x="74.376888" y="255.444051" style="fill: #ff7763; stroke: #ff7763"/>
     <use xlink:href="#m7af4dd91f2" x="79.535593" y="259.577772" style="fill: #ff7763; stroke: #ff7763"/>
     <use xlink:href="#m7af4dd91f2" x="84.694299" y="236.406666" style="fill: #ff7763; stroke: #ff7763"/>
     <use xlink:href="#m7af4dd91f2" x="89.853005" y="137.703901" style="fill: #ff7763; stroke: #ff7763"/>
     <use xlink:href="#m7af4dd91f2" x="95.01171" y="172.445127" style="fill: #ff7763; stroke: #ff7763"/>
     <use xlink:href="#m7af4dd91f2" x="100.170416" y="157.482593" style="fill: #ff7763; stroke: #ff7763"/>
     <use xlink:href="#m7af4dd91f2" x="105.329122" y="170.43803" style="fill: #ff7763; stroke: #ff7763"/>
     <use xlink:href="#m7af4dd91f2" x="110.487827" y="167.635439" style="fill: #ff7763; stroke: #ff7763"/>
     <use xlink:href="#m7af4dd91f2" x="115.646533" y="149.283285" style="fill: #ff7763; stroke: #ff7763"/>
     <use xlink:href="#m7af4dd91f2" x="120.805239" y="149.284502" style="fill: #ff7763; stroke: #ff7763"/>
     <use xlink:href="#m7af4dd91f2" x="125.963945" y="149.283285" style="fill: #ff7763; stroke: #ff7763"/>
     <use xlink:href="#m7af4dd91f2" x="131.12265" y="149.281711" style="fill: #ff7763; stroke: #ff7763"/>
     <use xlink:href="#m7af4dd91f2" x="136.281356" y="166.472584" style="fill: #ff7763; stroke: #ff7763"/>
     <use xlink:href="#m7af4dd91f2" x="141.440062" y="143.199577" style="fill: #ff7763; stroke: #ff7763"/>
     <use xlink:href="#m7af4dd91f2" x="146.598767" y="143.199577" style="fill: #ff7763; stroke: #ff7763"/>
     <use xlink:href="#m7af4dd91f2" x="151.757473" y="147.143166" style="fill: #ff7763; stroke: #ff7763"/>
     <use xlink:href="#m7af4dd91f2" x="156.916179" y="137.121149" style="fill: #ff7763; stroke: #ff7763"/>
     <use xlink:href="#m7af4dd91f2" x="162.074884" y="142.665337" style="fill: #ff7763; stroke: #ff7763"/>
     <use xlink:href="#m7af4dd91f2" x="167.23359" y="198.314212" style="fill: #ff7763; stroke: #ff7763"/>
     <use xlink:href="#m7af4dd91f2" x="172.392296" y="128.299885" style="fill: #ff7763; stroke: #ff7763"/>
     <use xlink:href="#m7af4dd91f2" x="177.551002" y="128.299885" style="fill: #ff7763; stroke: #ff7763"/>
     <use xlink:href="#m7af4dd91f2" x="182.709707" y="128.299885" style="fill: #ff7763; stroke: #ff7763"/>
     <use xlink:href="#m7af4dd91f2" x="187.868413" y="128.299885" style="fill: #ff7763; stroke: #ff7763"/>
     <use xlink:href="#m7af4dd91f2" x="193.027119" y="128.299885" style="fill: #ff7763; stroke: #ff7763"/>
     <use xlink:href="#m7af4dd91f2" x="198.185824" y="128.299885" style="fill: #ff7763; stroke: #ff7763"/>
     <use xlink:href="#m7af4dd91f2" x="203.34453" y="128.299885" style="fill: #ff7763; stroke: #ff7763"/>
     <use xlink:href="#m7af4dd91f2" x="208.503236" y="128.296828" style="fill: #ff7763; stroke: #ff7763"/>
     <use xlink:href="#m7af4dd91f2" x="213.661941" y="128.299448" style="fill: #ff7763; stroke: #ff7763"/>
     <use xlink:href="#m7af4dd91f2" x="218.820647" y="128.297974" style="fill: #ff7763; stroke: #ff7763"/>
     <use xlink:href="#m7af4dd91f2" x="223.979353" y="133.238552" style="fill: #ff7763; stroke: #ff7763"/>
     <use xlink:href="#m7af4dd91f2" x="229.138059" y="140.257606" style="fill: #ff7763; stroke: #ff7763"/>
     <use xlink:href="#m7af4dd91f2" x="234.296764" y="132.620565" style="fill: #ff7763; stroke: #ff7763"/>
     <use xlink:href="#m7af4dd91f2" x="239.45547" y="132.620565" style="fill: #ff7763; stroke: #ff7763"/>
     <use xlink:href="#m7af4dd91f2" x="244.614176" y="132.620565" style="fill: #ff7763; stroke: #ff7763"/>
     <use xlink:href="#m7af4dd91f2" x="249.772881" y="147.319957" style="fill: #ff7763; stroke: #ff7763"/>
     <use xlink:href="#m7af4dd91f2" x="254.931587" y="132.620565" style="fill: #ff7763; stroke: #ff7763"/>
     <use xlink:href="#m7af4dd91f2" x="260.090293" y="134.800912" style="fill: #ff7763; stroke: #ff7763"/>
     <use xlink:href="#m7af4dd91f2" x="265.248998" y="126.398186" style="fill: #ff7763; stroke: #ff7763"/>
     <use xlink:href="#m7af4dd91f2" x="270.407704" y="126.398186" style="fill: #ff7763; stroke: #ff7763"/>
     <use xlink:href="#m7af4dd91f2" x="275.56641" y="126.920844" style="fill: #ff7763; stroke: #ff7763"/>
     <use xlink:href="#m7af4dd91f2" x="280.725116" y="128.296434" style="fill: #ff7763; stroke: #ff7763"/>
     <use xlink:href="#m7af4dd91f2" x="285.883821" y="128.296434" style="fill: #ff7763; stroke: #ff7763"/>
     <use xlink:href="#m7af4dd91f2" x="291.042527" y="126.920844" style="fill: #ff7763; stroke: #ff7763"/>
     <use xlink:href="#m7af4dd91f2" x="296.201233" y="126.920844" style="fill: #ff7763; stroke: #ff7763"/>
     <use xlink:href="#m7af4dd91f2" x="301.359938" y="174.649633" style="fill: #ff7763; stroke: #ff7763"/>
     <use xlink:href="#m7af4dd91f2" x="306.518644" y="177.184514" style="fill: #ff7763; stroke: #ff7763"/>
     <use xlink:href="#m7af4dd91f2" x="311.67735" y="174.649633" style="fill: #ff7763; stroke: #ff7763"/>
     <use xlink:href="#m7af4dd91f2" x="316.836055" y="60.251488" style="fill: #ff7763; stroke: #ff7763"/>
     <use xlink:href="#m7af4dd91f2" x="321.994761" y="60.251488" style="fill: #ff7763; stroke: #ff7763"/>
     <use xlink:href="#m7af4dd91f2" x="327.153467" y="60.251488" style="fill: #ff7763; stroke: #ff7763"/>
     <use xlink:href="#m7af4dd91f2" x="332.312173" y="60.251488" style="fill: #ff7763; stroke: #ff7763"/>
     <use xlink:href="#m7af4dd91f2" x="337.470878" y="60.251488" style="fill: #ff7763; stroke: #ff7763"/>
     <use xlink:href="#m7af4dd91f2" x="342.629584" y="60.251488" style="fill: #ff7763; stroke: #ff7763"/>
     <use xlink:href="#m7af4dd91f2" x="347.78829" y="60.251488" style="fill: #ff7763; stroke: #ff7763"/>
     <use xlink:href="#m7af4dd91f2" x="352.946995" y="60.251488" style="fill: #ff7763; stroke: #ff7763"/>
     <use xlink:href="#m7af4dd91f2" x="358.105701" y="60.251488" style="fill: #ff7763; stroke: #ff7763"/>
     <use xlink:href="#m7af4dd91f2" x="363.264407" y="60.251488" style="fill: #ff7763; stroke: #ff7763"/>
     <use xlink:href="#m7af4dd91f2" x="368.423112" y="60.251488" style="fill: #ff7763; stroke: #ff7763"/>
     <use xlink:href="#m7af4dd91f2" x="373.581818" y="60.251488" style="fill: #ff7763; stroke: #ff7763"/>
    </g>
   </g>
   <g id="line2d_32">
    <path d="M 69.218182 252.908818 
L 74.376888 254.555283 
L 79.535593 259.591933 
L 84.694299 106.117111 
L 89.853005 187.176103 
L 95.01171 135.391195 
L 100.170416 112.097091 
L 105.329122 111.922858 
L 110.487827 111.2269 
L 115.646533 81.807041 
L 120.805239 80.994918 
L 125.963945 79.855475 
L 131.12265 80.994918 
L 136.281356 90.427981 
L 141.440062 89.18036 
L 146.598767 91.171648 
L 151.757473 80.720733 
L 156.916179 91.149756 
L 162.074884 80.720733 
L 167.23359 80.994918 
L 172.392296 80.720733 
L 177.551002 80.994918 
L 182.709707 80.31195 
L 187.868413 81.390793 
L 193.027119 80.31195 
L 198.185824 80.994918 
L 203.34453 80.994918 
L 208.503236 81.390793 
L 213.661941 80.31195 
L 218.820647 80.31195 
L 223.979353 80.520934 
L 229.138059 79.215295 
L 234.296764 81.390793 
L 239.45547 80.919078 
L 244.614176 79.833779 
L 249.772881 79.215295 
L 254.931587 80.720733 
L 260.090293 80.520934 
L 265.248998 80.073199 
L 270.407704 81.157326 
L 275.56641 79.455203 
L 280.725116 80.984764 
L 285.883821 80.311108 
L 291.042527 80.073199 
L 296.201233 80.484586 
L 301.359938 80.311108 
L 306.518644 79.999918 
L 311.67735 80.20057 
L 316.836055 80.612171 
L 321.994761 80.411373 
L 327.153467 79.583052 
L 332.312173 80.263119 
L 337.470878 84.084224 
L 342.629584 83.887348 
L 347.78829 79.840696 
L 352.946995 79.655543 
L 358.105701 79.160411 
L 363.264407 86.275487 
L 368.423112 79.378191 
L 373.581818 80.263119 
" clip-path="url(#pb6a0321847)" style="fill: none; stroke: #ffac1e; stroke-width: 1.5; stroke-linecap: square"/>
    <defs>
     <path id="m8734f86168" d="M 0 -2 
L -0.449028 -0.618034 
L -1.902113 -0.618034 
L -0.726543 0.236068 
L -1.175571 1.618034 
L -0 0.763932 
L 1.175571 1.618034 
L 0.726543 0.236068 
L 1.902113 -0.618034 
L 0.449028 -0.618034 
z
" style="stroke: #ffac1e; stroke-linejoin: bevel"/>
    </defs>
    <g clip-path="url(#pb6a0321847)">
     <use xlink:href="#m8734f86168" x="69.218182" y="252.908818" style="fill: #ffac1e; stroke: #ffac1e; stroke-linejoin: bevel"/>
     <use xlink:href="#m8734f86168" x="74.376888" y="254.555283" style="fill: #ffac1e; stroke: #ffac1e; stroke-linejoin: bevel"/>
     <use xlink:href="#m8734f86168" x="79.535593" y="259.591933" style="fill: #ffac1e; stroke: #ffac1e; stroke-linejoin: bevel"/>
     <use xlink:href="#m8734f86168" x="84.694299" y="106.117111" style="fill: #ffac1e; stroke: #ffac1e; stroke-linejoin: bevel"/>
     <use xlink:href="#m8734f86168" x="89.853005" y="187.176103" style="fill: #ffac1e; stroke: #ffac1e; stroke-linejoin: bevel"/>
     <use xlink:href="#m8734f86168" x="95.01171" y="135.391195" style="fill: #ffac1e; stroke: #ffac1e; stroke-linejoin: bevel"/>
     <use xlink:href="#m8734f86168" x="100.170416" y="112.097091" style="fill: #ffac1e; stroke: #ffac1e; stroke-linejoin: bevel"/>
     <use xlink:href="#m8734f86168" x="105.329122" y="111.922858" style="fill: #ffac1e; stroke: #ffac1e; stroke-linejoin: bevel"/>
     <use xlink:href="#m8734f86168" x="110.487827" y="111.2269" style="fill: #ffac1e; stroke: #ffac1e; stroke-linejoin: bevel"/>
     <use xlink:href="#m8734f86168" x="115.646533" y="81.807041" style="fill: #ffac1e; stroke: #ffac1e; stroke-linejoin: bevel"/>
     <use xlink:href="#m8734f86168" x="120.805239" y="80.994918" style="fill: #ffac1e; stroke: #ffac1e; stroke-linejoin: bevel"/>
     <use xlink:href="#m8734f86168" x="125.963945" y="79.855475" style="fill: #ffac1e; stroke: #ffac1e; stroke-linejoin: bevel"/>
     <use xlink:href="#m8734f86168" x="131.12265" y="80.994918" style="fill: #ffac1e; stroke: #ffac1e; stroke-linejoin: bevel"/>
     <use xlink:href="#m8734f86168" x="136.281356" y="90.427981" style="fill: #ffac1e; stroke: #ffac1e; stroke-linejoin: bevel"/>
     <use xlink:href="#m8734f86168" x="141.440062" y="89.18036" style="fill: #ffac1e; stroke: #ffac1e; stroke-linejoin: bevel"/>
     <use xlink:href="#m8734f86168" x="146.598767" y="91.171648" style="fill: #ffac1e; stroke: #ffac1e; stroke-linejoin: bevel"/>
     <use xlink:href="#m8734f86168" x="151.757473" y="80.720733" style="fill: #ffac1e; stroke: #ffac1e; stroke-linejoin: bevel"/>
     <use xlink:href="#m8734f86168" x="156.916179" y="91.149756" style="fill: #ffac1e; stroke: #ffac1e; stroke-linejoin: bevel"/>
     <use xlink:href="#m8734f86168" x="162.074884" y="80.720733" style="fill: #ffac1e; stroke: #ffac1e; stroke-linejoin: bevel"/>
     <use xlink:href="#m8734f86168" x="167.23359" y="80.994918" style="fill: #ffac1e; stroke: #ffac1e; stroke-linejoin: bevel"/>
     <use xlink:href="#m8734f86168" x="172.392296" y="80.720733" style="fill: #ffac1e; stroke: #ffac1e; stroke-linejoin: bevel"/>
     <use xlink:href="#m8734f86168" x="177.551002" y="80.994918" style="fill: #ffac1e; stroke: #ffac1e; stroke-linejoin: bevel"/>
     <use xlink:href="#m8734f86168" x="182.709707" y="80.31195" style="fill: #ffac1e; stroke: #ffac1e; stroke-linejoin: bevel"/>
     <use xlink:href="#m8734f86168" x="187.868413" y="81.390793" style="fill: #ffac1e; stroke: #ffac1e; stroke-linejoin: bevel"/>
     <use xlink:href="#m8734f86168" x="193.027119" y="80.31195" style="fill: #ffac1e; stroke: #ffac1e; stroke-linejoin: bevel"/>
     <use xlink:href="#m8734f86168" x="198.185824" y="80.994918" style="fill: #ffac1e; stroke: #ffac1e; stroke-linejoin: bevel"/>
     <use xlink:href="#m8734f86168" x="203.34453" y="80.994918" style="fill: #ffac1e; stroke: #ffac1e; stroke-linejoin: bevel"/>
     <use xlink:href="#m8734f86168" x="208.503236" y="81.390793" style="fill: #ffac1e; stroke: #ffac1e; stroke-linejoin: bevel"/>
     <use xlink:href="#m8734f86168" x="213.661941" y="80.31195" style="fill: #ffac1e; stroke: #ffac1e; stroke-linejoin: bevel"/>
     <use xlink:href="#m8734f86168" x="218.820647" y="80.31195" style="fill: #ffac1e; stroke: #ffac1e; stroke-linejoin: bevel"/>
     <use xlink:href="#m8734f86168" x="223.979353" y="80.520934" style="fill: #ffac1e; stroke: #ffac1e; stroke-linejoin: bevel"/>
     <use xlink:href="#m8734f86168" x="229.138059" y="79.215295" style="fill: #ffac1e; stroke: #ffac1e; stroke-linejoin: bevel"/>
     <use xlink:href="#m8734f86168" x="234.296764" y="81.390793" style="fill: #ffac1e; stroke: #ffac1e; stroke-linejoin: bevel"/>
     <use xlink:href="#m8734f86168" x="239.45547" y="80.919078" style="fill: #ffac1e; stroke: #ffac1e; stroke-linejoin: bevel"/>
     <use xlink:href="#m8734f86168" x="244.614176" y="79.833779" style="fill: #ffac1e; stroke: #ffac1e; stroke-linejoin: bevel"/>
     <use xlink:href="#m8734f86168" x="249.772881" y="79.215295" style="fill: #ffac1e; stroke: #ffac1e; stroke-linejoin: bevel"/>
     <use xlink:href="#m8734f86168" x="254.931587" y="80.720733" style="fill: #ffac1e; stroke: #ffac1e; stroke-linejoin: bevel"/>
     <use xlink:href="#m8734f86168" x="260.090293" y="80.520934" style="fill: #ffac1e; stroke: #ffac1e; stroke-linejoin: bevel"/>
     <use xlink:href="#m8734f86168" x="265.248998" y="80.073199" style="fill: #ffac1e; stroke: #ffac1e; stroke-linejoin: bevel"/>
     <use xlink:href="#m8734f86168" x="270.407704" y="81.157326" style="fill: #ffac1e; stroke: #ffac1e; stroke-linejoin: bevel"/>
     <use xlink:href="#m8734f86168" x="275.56641" y="79.455203" style="fill: #ffac1e; stroke: #ffac1e; stroke-linejoin: bevel"/>
     <use xlink:href="#m8734f86168" x="280.725116" y="80.984764" style="fill: #ffac1e; stroke: #ffac1e; stroke-linejoin: bevel"/>
     <use xlink:href="#m8734f86168" x="285.883821" y="80.311108" style="fill: #ffac1e; stroke: #ffac1e; stroke-linejoin: bevel"/>
     <use xlink:href="#m8734f86168" x="291.042527" y="80.073199" style="fill: #ffac1e; stroke: #ffac1e; stroke-linejoin: bevel"/>
     <use xlink:href="#m8734f86168" x="296.201233" y="80.484586" style="fill: #ffac1e; stroke: #ffac1e; stroke-linejoin: bevel"/>
     <use xlink:href="#m8734f86168" x="301.359938" y="80.311108" style="fill: #ffac1e; stroke: #ffac1e; stroke-linejoin: bevel"/>
     <use xlink:href="#m8734f86168" x="306.518644" y="79.999918" style="fill: #ffac1e; stroke: #ffac1e; stroke-linejoin: bevel"/>
     <use xlink:href="#m8734f86168" x="311.67735" y="80.20057" style="fill: #ffac1e; stroke: #ffac1e; stroke-linejoin: bevel"/>
     <use xlink:href="#m8734f86168" x="316.836055" y="80.612171" style="fill: #ffac1e; stroke: #ffac1e; stroke-linejoin: bevel"/>
     <use xlink:href="#m8734f86168" x="321.994761" y="80.411373" style="fill: #ffac1e; stroke: #ffac1e; stroke-linejoin: bevel"/>
     <use xlink:href="#m8734f86168" x="327.153467" y="79.583052" style="fill: #ffac1e; stroke: #ffac1e; stroke-linejoin: bevel"/>
     <use xlink:href="#m8734f86168" x="332.312173" y="80.263119" style="fill: #ffac1e; stroke: #ffac1e; stroke-linejoin: bevel"/>
     <use xlink:href="#m8734f86168" x="337.470878" y="84.084224" style="fill: #ffac1e; stroke: #ffac1e; stroke-linejoin: bevel"/>
     <use xlink:href="#m8734f86168" x="342.629584" y="83.887348" style="fill: #ffac1e; stroke: #ffac1e; stroke-linejoin: bevel"/>
     <use xlink:href="#m8734f86168" x="347.78829" y="79.840696" style="fill: #ffac1e; stroke: #ffac1e; stroke-linejoin: bevel"/>
     <use xlink:href="#m8734f86168" x="352.946995" y="79.655543" style="fill: #ffac1e; stroke: #ffac1e; stroke-linejoin: bevel"/>
     <use xlink:href="#m8734f86168" x="358.105701" y="79.160411" style="fill: #ffac1e; stroke: #ffac1e; stroke-linejoin: bevel"/>
     <use xlink:href="#m8734f86168" x="363.264407" y="86.275487" style="fill: #ffac1e; stroke: #ffac1e; stroke-linejoin: bevel"/>
     <use xlink:href="#m8734f86168" x="368.423112" y="79.378191" style="fill: #ffac1e; stroke: #ffac1e; stroke-linejoin: bevel"/>
     <use xlink:href="#m8734f86168" x="373.581818" y="80.263119" style="fill: #ffac1e; stroke: #ffac1e; stroke-linejoin: bevel"/>
    </g>
   </g>
   <g id="line2d_33">
    <path d="M 69.218182 253.578979 
L 74.376888 252.920819 
L 79.535593 259.226344 
L 84.694299 100.229375 
L 89.853005 95.518814 
L 95.01171 103.540646 
L 100.170416 96.128548 
L 105.329122 96.881223 
L 110.487827 96.881223 
L 115.646533 96.128548 
L 120.805239 96.881223 
L 125.963945 96.128548 
L 131.12265 94.162034 
L 136.281356 91.445138 
L 141.440062 93.202732 
L 146.598767 93.202732 
L 151.757473 93.369969 
L 156.916179 93.202732 
L 162.074884 91.529532 
L 167.23359 93.202732 
L 172.392296 91.529532 
L 177.551002 91.529532 
L 182.709707 91.529532 
L 187.868413 91.529532 
L 193.027119 91.529532 
L 198.185824 91.529532 
L 203.34453 89.361566 
L 208.503236 89.361566 
L 213.661941 89.361566 
L 218.820647 89.361566 
L 223.979353 89.110956 
L 229.138059 89.110956 
L 234.296764 87.451893 
L 239.45547 87.451893 
L 244.614176 89.110956 
L 249.772881 89.110956 
L 254.931587 88.17831 
L 260.090293 88.17831 
L 265.248998 89.827835 
L 270.407704 88.17831 
L 275.56641 89.827835 
L 280.725116 87.68376 
L 285.883821 87.68376 
L 291.042527 87.68376 
L 296.201233 87.08805 
L 301.359938 87.08805 
L 306.518644 87.08805 
L 311.67735 87.08805 
L 316.836055 87.08805 
L 321.994761 87.08805 
L 327.153467 87.08805 
L 332.312173 87.08805 
L 337.470878 87.08805 
L 342.629584 87.08805 
L 347.78829 87.08805 
L 352.946995 87.08805 
L 358.105701 87.08805 
L 363.264407 87.08805 
L 368.423112 87.08805 
L 373.581818 87.08805 
" clip-path="url(#pb6a0321847)" style="fill: none; stroke: #009435; stroke-width: 1.5; stroke-linecap: square"/>
    <defs>
     <path id="m4112a528bf" d="M -2 2 
L 2 2 
L 2 -2 
L -2 -2 
z
" style="stroke: #009435; stroke-linejoin: miter"/>
    </defs>
    <g clip-path="url(#pb6a0321847)">
     <use xlink:href="#m4112a528bf" x="69.218182" y="253.578979" style="fill: #009435; stroke: #009435; stroke-linejoin: miter"/>
     <use xlink:href="#m4112a528bf" x="74.376888" y="252.920819" style="fill: #009435; stroke: #009435; stroke-linejoin: miter"/>
     <use xlink:href="#m4112a528bf" x="79.535593" y="259.226344" style="fill: #009435; stroke: #009435; stroke-linejoin: miter"/>
     <use xlink:href="#m4112a528bf" x="84.694299" y="100.229375" style="fill: #009435; stroke: #009435; stroke-linejoin: miter"/>
     <use xlink:href="#m4112a528bf" x="89.853005" y="95.518814" style="fill: #009435; stroke: #009435; stroke-linejoin: miter"/>
     <use xlink:href="#m4112a528bf" x="95.01171" y="103.540646" style="fill: #009435; stroke: #009435; stroke-linejoin: miter"/>
     <use xlink:href="#m4112a528bf" x="100.170416" y="96.128548" style="fill: #009435; stroke: #009435; stroke-linejoin: miter"/>
     <use xlink:href="#m4112a528bf" x="105.329122" y="96.881223" style="fill: #009435; stroke: #009435; stroke-linejoin: miter"/>
     <use xlink:href="#m4112a528bf" x="110.487827" y="96.881223" style="fill: #009435; stroke: #009435; stroke-linejoin: miter"/>
     <use xlink:href="#m4112a528bf" x="115.646533" y="96.128548" style="fill: #009435; stroke: #009435; stroke-linejoin: miter"/>
     <use xlink:href="#m4112a528bf" x="120.805239" y="96.881223" style="fill: #009435; stroke: #009435; stroke-linejoin: miter"/>
     <use xlink:href="#m4112a528bf" x="125.963945" y="96.128548" style="fill: #009435; stroke: #009435; stroke-linejoin: miter"/>
     <use xlink:href="#m4112a528bf" x="131.12265" y="94.162034" style="fill: #009435; stroke: #009435; stroke-linejoin: miter"/>
     <use xlink:href="#m4112a528bf" x="136.281356" y="91.445138" style="fill: #009435; stroke: #009435; stroke-linejoin: miter"/>
     <use xlink:href="#m4112a528bf" x="141.440062" y="93.202732" style="fill: #009435; stroke: #009435; stroke-linejoin: miter"/>
     <use xlink:href="#m4112a528bf" x="146.598767" y="93.202732" style="fill: #009435; stroke: #009435; stroke-linejoin: miter"/>
     <use xlink:href="#m4112a528bf" x="151.757473" y="93.369969" style="fill: #009435; stroke: #009435; stroke-linejoin: miter"/>
     <use xlink:href="#m4112a528bf" x="156.916179" y="93.202732" style="fill: #009435; stroke: #009435; stroke-linejoin: miter"/>
     <use xlink:href="#m4112a528bf" x="162.074884" y="91.529532" style="fill: #009435; stroke: #009435; stroke-linejoin: miter"/>
     <use xlink:href="#m4112a528bf" x="167.23359" y="93.202732" style="fill: #009435; stroke: #009435; stroke-linejoin: miter"/>
     <use xlink:href="#m4112a528bf" x="172.392296" y="91.529532" style="fill: #009435; stroke: #009435; stroke-linejoin: miter"/>
     <use xlink:href="#m4112a528bf" x="177.551002" y="91.529532" style="fill: #009435; stroke: #009435; stroke-linejoin: miter"/>
     <use xlink:href="#m4112a528bf" x="182.709707" y="91.529532" style="fill: #009435; stroke: #009435; stroke-linejoin: miter"/>
     <use xlink:href="#m4112a528bf" x="187.868413" y="91.529532" style="fill: #009435; stroke: #009435; stroke-linejoin: miter"/>
     <use xlink:href="#m4112a528bf" x="193.027119" y="91.529532" style="fill: #009435; stroke: #009435; stroke-linejoin: miter"/>
     <use xlink:href="#m4112a528bf" x="198.185824" y="91.529532" style="fill: #009435; stroke: #009435; stroke-linejoin: miter"/>
     <use xlink:href="#m4112a528bf" x="203.34453" y="89.361566" style="fill: #009435; stroke: #009435; stroke-linejoin: miter"/>
     <use xlink:href="#m4112a528bf" x="208.503236" y="89.361566" style="fill: #009435; stroke: #009435; stroke-linejoin: miter"/>
     <use xlink:href="#m4112a528bf" x="213.661941" y="89.361566" style="fill: #009435; stroke: #009435; stroke-linejoin: miter"/>
     <use xlink:href="#m4112a528bf" x="218.820647" y="89.361566" style="fill: #009435; stroke: #009435; stroke-linejoin: miter"/>
     <use xlink:href="#m4112a528bf" x="223.979353" y="89.110956" style="fill: #009435; stroke: #009435; stroke-linejoin: miter"/>
     <use xlink:href="#m4112a528bf" x="229.138059" y="89.110956" style="fill: #009435; stroke: #009435; stroke-linejoin: miter"/>
     <use xlink:href="#m4112a528bf" x="234.296764" y="87.451893" style="fill: #009435; stroke: #009435; stroke-linejoin: miter"/>
     <use xlink:href="#m4112a528bf" x="239.45547" y="87.451893" style="fill: #009435; stroke: #009435; stroke-linejoin: miter"/>
     <use xlink:href="#m4112a528bf" x="244.614176" y="89.110956" style="fill: #009435; stroke: #009435; stroke-linejoin: miter"/>
     <use xlink:href="#m4112a528bf" x="249.772881" y="89.110956" style="fill: #009435; stroke: #009435; stroke-linejoin: miter"/>
     <use xlink:href="#m4112a528bf" x="254.931587" y="88.17831" style="fill: #009435; stroke: #009435; stroke-linejoin: miter"/>
     <use xlink:href="#m4112a528bf" x="260.090293" y="88.17831" style="fill: #009435; stroke: #009435; stroke-linejoin: miter"/>
     <use xlink:href="#m4112a528bf" x="265.248998" y="89.827835" style="fill: #009435; stroke: #009435; stroke-linejoin: miter"/>
     <use xlink:href="#m4112a528bf" x="270.407704" y="88.17831" style="fill: #009435; stroke: #009435; stroke-linejoin: miter"/>
     <use xlink:href="#m4112a528bf" x="275.56641" y="89.827835" style="fill: #009435; stroke: #009435; stroke-linejoin: miter"/>
     <use xlink:href="#m4112a528bf" x="280.725116" y="87.68376" style="fill: #009435; stroke: #009435; stroke-linejoin: miter"/>
     <use xlink:href="#m4112a528bf" x="285.883821" y="87.68376" style="fill: #009435; stroke: #009435; stroke-linejoin: miter"/>
     <use xlink:href="#m4112a528bf" x="291.042527" y="87.68376" style="fill: #009435; stroke: #009435; stroke-linejoin: miter"/>
     <use xlink:href="#m4112a528bf" x="296.201233" y="87.08805" style="fill: #009435; stroke: #009435; stroke-linejoin: miter"/>
     <use xlink:href="#m4112a528bf" x="301.359938" y="87.08805" style="fill: #009435; stroke: #009435; stroke-linejoin: miter"/>
     <use xlink:href="#m4112a528bf" x="306.518644" y="87.08805" style="fill: #009435; stroke: #009435; stroke-linejoin: miter"/>
     <use xlink:href="#m4112a528bf" x="311.67735" y="87.08805" style="fill: #009435; stroke: #009435; stroke-linejoin: miter"/>
     <use xlink:href="#m4112a528bf" x="316.836055" y="87.08805" style="fill: #009435; stroke: #009435; stroke-linejoin: miter"/>
     <use xlink:href="#m4112a528bf" x="321.994761" y="87.08805" style="fill: #009435; stroke: #009435; stroke-linejoin: miter"/>
     <use xlink:href="#m4112a528bf" x="327.153467" y="87.08805" style="fill: #009435; stroke: #009435; stroke-linejoin: miter"/>
     <use xlink:href="#m4112a528bf" x="332.312173" y="87.08805" style="fill: #009435; stroke: #009435; stroke-linejoin: miter"/>
     <use xlink:href="#m4112a528bf" x="337.470878" y="87.08805" style="fill: #009435; stroke: #009435; stroke-linejoin: miter"/>
     <use xlink:href="#m4112a528bf" x="342.629584" y="87.08805" style="fill: #009435; stroke: #009435; stroke-linejoin: miter"/>
     <use xlink:href="#m4112a528bf" x="347.78829" y="87.08805" style="fill: #009435; stroke: #009435; stroke-linejoin: miter"/>
     <use xlink:href="#m4112a528bf" x="352.946995" y="87.08805" style="fill: #009435; stroke: #009435; stroke-linejoin: miter"/>
     <use xlink:href="#m4112a528bf" x="358.105701" y="87.08805" style="fill: #009435; stroke: #009435; stroke-linejoin: miter"/>
     <use xlink:href="#m4112a528bf" x="363.264407" y="87.08805" style="fill: #009435; stroke: #009435; stroke-linejoin: miter"/>
     <use xlink:href="#m4112a528bf" x="368.423112" y="87.08805" style="fill: #009435; stroke: #009435; stroke-linejoin: miter"/>
     <use xlink:href="#m4112a528bf" x="373.581818" y="87.08805" style="fill: #009435; stroke: #009435; stroke-linejoin: miter"/>
    </g>
   </g>
   <g id="patch_3">
    <path d="M 54 252 
L 54 34.56 
" style="fill: none; stroke: #000000; stroke-width: 0.8; stroke-linejoin: miter; stroke-linecap: square"/>
   </g>
   <g id="patch_4">
    <path d="M 388.8 252 
L 388.8 34.56 
" style="fill: none; stroke: #000000; stroke-width: 0.8; stroke-linejoin: miter; stroke-linecap: square"/>
   </g>
   <g id="patch_5">
    <path d="M 54 252 
L 388.8 252 
" style="fill: none; stroke: #000000; stroke-width: 0.8; stroke-linejoin: miter; stroke-linecap: square"/>
   </g>
   <g id="patch_6">
    <path d="M 54 34.56 
L 388.8 34.56 
" style="fill: none; stroke: #000000; stroke-width: 0.8; stroke-linejoin: miter; stroke-linecap: square"/>
   </g>
   <g id="text_17">
    <!-- ζ-EB agent policy with beta = 1.0 -->
    <g transform="translate(120.797813 28.56)scale(0.12 -0.12)">
     <defs>
      <path id="DejaVuSans-3b6" d="M 2231 397 
Q 2644 394 2891 159 
Q 3153 -88 3153 -463 
Q 3153 -822 2922 -1072 
Q 2672 -1344 2163 -1344 
Q 2163 -1109 2163 -872 
Q 2378 -888 2509 -750 
Q 2609 -641 2609 -525 
Q 2609 -359 2509 -222 
Q 2413 -91 2231 -91 
Q 338 -91 334 1669 
Q 334 3206 2119 4284 
L 456 4284 
L 456 4863 
L 3175 4863 
L 3175 4284 
Q 913 3147 913 1669 
Q 913 397 2231 397 
z
" transform="scale(0.015625)"/>
      <path id="DejaVuSans-2d" d="M 313 2009 
L 1997 2009 
L 1997 1497 
L 313 1497 
L 313 2009 
z
" transform="scale(0.015625)"/>
      <path id="DejaVuSans-45" d="M 628 4666 
L 3578 4666 
L 3578 4134 
L 1259 4134 
L 1259 2753 
L 3481 2753 
L 3481 2222 
L 1259 2222 
L 1259 531 
L 3634 531 
L 3634 0 
L 628 0 
L 628 4666 
z
" transform="scale(0.015625)"/>
      <path id="DejaVuSans-42" d="M 1259 2228 
L 1259 519 
L 2272 519 
Q 2781 519 3026 730 
Q 3272 941 3272 1375 
Q 3272 1813 3026 2020 
Q 2781 2228 2272 2228 
L 1259 2228 
z
M 1259 4147 
L 1259 2741 
L 2194 2741 
Q 2656 2741 2882 2914 
Q 3109 3088 3109 3444 
Q 3109 3797 2882 3972 
Q 2656 4147 2194 4147 
L 1259 4147 
z
M 628 4666 
L 2241 4666 
Q 2963 4666 3353 4366 
Q 3744 4066 3744 3513 
Q 3744 3084 3544 2831 
Q 3344 2578 2956 2516 
Q 3422 2416 3680 2098 
Q 3938 1781 3938 1306 
Q 3938 681 3513 340 
Q 3088 0 2303 0 
L 628 0 
L 628 4666 
z
" transform="scale(0.015625)"/>
      <path id="DejaVuSans-67" d="M 2906 1791 
Q 2906 2416 2648 2759 
Q 2391 3103 1925 3103 
Q 1463 3103 1205 2759 
Q 947 2416 947 1791 
Q 947 1169 1205 825 
Q 1463 481 1925 481 
Q 2391 481 2648 825 
Q 2906 1169 2906 1791 
z
M 3481 434 
Q 3481 -459 3084 -895 
Q 2688 -1331 1869 -1331 
Q 1566 -1331 1297 -1286 
Q 1028 -1241 775 -1147 
L 775 -588 
Q 1028 -725 1275 -790 
Q 1522 -856 1778 -856 
Q 2344 -856 2625 -561 
Q 2906 -266 2906 331 
L 2906 616 
Q 2728 306 2450 153 
Q 2172 0 1784 0 
Q 1141 0 747 490 
Q 353 981 353 1791 
Q 353 2603 747 3093 
Q 1141 3584 1784 3584 
Q 2172 3584 2450 3431 
Q 2728 3278 2906 2969 
L 2906 3500 
L 3481 3500 
L 3481 434 
z
" transform="scale(0.015625)"/>
      <path id="DejaVuSans-6e" d="M 3513 2113 
L 3513 0 
L 2938 0 
L 2938 2094 
Q 2938 2591 2744 2837 
Q 2550 3084 2163 3084 
Q 1697 3084 1428 2787 
Q 1159 2491 1159 1978 
L 1159 0 
L 581 0 
L 581 3500 
L 1159 3500 
L 1159 2956 
Q 1366 3272 1645 3428 
Q 1925 3584 2291 3584 
Q 2894 3584 3203 3211 
Q 3513 2838 3513 2113 
z
" transform="scale(0.015625)"/>
      <path id="DejaVuSans-77" d="M 269 3500 
L 844 3500 
L 1563 769 
L 2278 3500 
L 2956 3500 
L 3675 769 
L 4391 3500 
L 4966 3500 
L 4050 0 
L 3372 0 
L 2619 2869 
L 1863 0 
L 1184 0 
L 269 3500 
z
" transform="scale(0.015625)"/>
      <path id="DejaVuSans-68" d="M 3513 2113 
L 3513 0 
L 2938 0 
L 2938 2094 
Q 2938 2591 2744 2837 
Q 2550 3084 2163 3084 
Q 1697 3084 1428 2787 
Q 1159 2491 1159 1978 
L 1159 0 
L 581 0 
L 581 4863 
L 1159 4863 
L 1159 2956 
Q 1366 3272 1645 3428 
Q 1925 3584 2291 3584 
Q 2894 3584 3203 3211 
Q 3513 2838 3513 2113 
z
" transform="scale(0.015625)"/>
      <path id="DejaVuSans-62" d="M 3116 1747 
Q 3116 2381 2855 2742 
Q 2594 3103 2138 3103 
Q 1681 3103 1420 2742 
Q 1159 2381 1159 1747 
Q 1159 1113 1420 752 
Q 1681 391 2138 391 
Q 2594 391 2855 752 
Q 3116 1113 3116 1747 
z
M 1159 2969 
Q 1341 3281 1617 3432 
Q 1894 3584 2278 3584 
Q 2916 3584 3314 3078 
Q 3713 2572 3713 1747 
Q 3713 922 3314 415 
Q 2916 -91 2278 -91 
Q 1894 -91 1617 61 
Q 1341 213 1159 525 
L 1159 0 
L 581 0 
L 581 4863 
L 1159 4863 
L 1159 2969 
z
" transform="scale(0.015625)"/>
      <path id="DejaVuSans-3d" d="M 678 2906 
L 4684 2906 
L 4684 2381 
L 678 2381 
L 678 2906 
z
M 678 1631 
L 4684 1631 
L 4684 1100 
L 678 1100 
L 678 1631 
z
" transform="scale(0.015625)"/>
      <path id="DejaVuSans-2e" d="M 684 794 
L 1344 794 
L 1344 0 
L 684 0 
L 684 794 
z
" transform="scale(0.015625)"/>
     </defs>
     <use xlink:href="#DejaVuSans-3b6"/>
     <use xlink:href="#DejaVuSans-2d" x="54.394531"/>
     <use xlink:href="#DejaVuSans-45" x="90.478516"/>
     <use xlink:href="#DejaVuSans-42" x="153.662109"/>
     <use xlink:href="#DejaVuSans-20" x="222.265625"/>
     <use xlink:href="#DejaVuSans-61" x="254.052734"/>
     <use xlink:href="#DejaVuSans-67" x="315.332031"/>
     <use xlink:href="#DejaVuSans-65" x="378.808594"/>
     <use xlink:href="#DejaVuSans-6e" x="440.332031"/>
     <use xlink:href="#DejaVuSans-74" x="503.710938"/>
     <use xlink:href="#DejaVuSans-20" x="542.919922"/>
     <use xlink:href="#DejaVuSans-70" x="574.707031"/>
     <use xlink:href="#DejaVuSans-6f" x="638.183594"/>
     <use xlink:href="#DejaVuSans-6c" x="699.365234"/>
     <use xlink:href="#DejaVuSans-69" x="727.148438"/>
     <use xlink:href="#DejaVuSans-63" x="754.931641"/>
     <use xlink:href="#DejaVuSans-79" x="809.912109"/>
     <use xlink:href="#DejaVuSans-20" x="869.091797"/>
     <use xlink:href="#DejaVuSans-77" x="900.878906"/>
     <use xlink:href="#DejaVuSans-69" x="982.666016"/>
     <use xlink:href="#DejaVuSans-74" x="1010.449219"/>
     <use xlink:href="#DejaVuSans-68" x="1049.658203"/>
     <use xlink:href="#DejaVuSans-20" x="1113.037109"/>
     <use xlink:href="#DejaVuSans-62" x="1144.824219"/>
     <use xlink:href="#DejaVuSans-65" x="1208.300781"/>
     <use xlink:href="#DejaVuSans-74" x="1269.824219"/>
     <use xlink:href="#DejaVuSans-61" x="1309.033203"/>
     <use xlink:href="#DejaVuSans-20" x="1370.3125"/>
     <use xlink:href="#DejaVuSans-3d" x="1402.099609"/>
     <use xlink:href="#DejaVuSans-20" x="1485.888672"/>
     <use xlink:href="#DejaVuSans-31" x="1517.675781"/>
     <use xlink:href="#DejaVuSans-2e" x="1581.298828"/>
     <use xlink:href="#DejaVuSans-30" x="1613.085938"/>
    </g>
   </g>
   <g id="legend_1">
    <g id="patch_7">
     <path d="M 179.398438 247 
L 263.401563 247 
Q 265.401563 247 265.401563 245 
L 265.401563 172.609375 
Q 265.401563 170.609375 263.401563 170.609375 
L 179.398438 170.609375 
Q 177.398438 170.609375 177.398438 172.609375 
L 177.398438 245 
Q 177.398438 247 179.398438 247 
z
" style="fill: #ffffff; opacity: 0.8; stroke: #cccccc; stroke-linejoin: miter"/>
    </g>
    <g id="line2d_34">
     <path d="M 181.398438 178.707812 
L 191.398438 178.707812 
L 201.398438 178.707812 
" style="fill: none; stroke: #9d02d7; stroke-width: 1.5; stroke-linecap: square"/>
     <g>
      <use xlink:href="#m4cdb64fa74" x="191.398438" y="178.707812" style="fill: #9d02d7; stroke: #9d02d7; stroke-linejoin: miter"/>
     </g>
    </g>
    <g id="text_18">
     <!-- alpha=0.1 -->
     <g transform="translate(209.398438 182.207812)scale(0.1 -0.1)">
      <use xlink:href="#DejaVuSans-61"/>
      <use xlink:href="#DejaVuSans-6c" x="61.279297"/>
      <use xlink:href="#DejaVuSans-70" x="89.0625"/>
      <use xlink:href="#DejaVuSans-68" x="152.539062"/>
      <use xlink:href="#DejaVuSans-61" x="215.917969"/>
      <use xlink:href="#DejaVuSans-3d" x="277.197266"/>
      <use xlink:href="#DejaVuSans-30" x="360.986328"/>
      <use xlink:href="#DejaVuSans-2e" x="424.609375"/>
      <use xlink:href="#DejaVuSans-31" x="456.396484"/>
     </g>
    </g>
    <g id="line2d_35">
     <path d="M 181.398438 193.385938 
L 191.398438 193.385938 
L 201.398438 193.385938 
" style="fill: none; stroke: #0000ff; stroke-width: 1.5; stroke-linecap: square"/>
     <g>
      <use xlink:href="#mc1f5905df9" x="191.398438" y="193.385938" style="fill: #0000ff; stroke: #0000ff"/>
     </g>
    </g>
    <g id="text_19">
     <!-- alpha=0.5 -->
     <g transform="translate(209.398438 196.885938)scale(0.1 -0.1)">
      <use xlink:href="#DejaVuSans-61"/>
      <use xlink:href="#DejaVuSans-6c" x="61.279297"/>
      <use xlink:href="#DejaVuSans-70" x="89.0625"/>
      <use xlink:href="#DejaVuSans-68" x="152.539062"/>
      <use xlink:href="#DejaVuSans-61" x="215.917969"/>
      <use xlink:href="#DejaVuSans-3d" x="277.197266"/>
      <use xlink:href="#DejaVuSans-30" x="360.986328"/>
      <use xlink:href="#DejaVuSans-2e" x="424.609375"/>
      <use xlink:href="#DejaVuSans-35" x="456.396484"/>
     </g>
    </g>
    <g id="line2d_36">
     <path d="M 181.398438 208.064063 
L 191.398438 208.064063 
L 201.398438 208.064063 
" style="fill: none; stroke: #ff7763; stroke-width: 1.5; stroke-linecap: square"/>
     <g>
      <use xlink:href="#m7af4dd91f2" x="191.398438" y="208.064063" style="fill: #ff7763; stroke: #ff7763"/>
     </g>
    </g>
    <g id="text_20">
     <!-- alpha=1.0 -->
     <g transform="translate(209.398438 211.564063)scale(0.1 -0.1)">
      <use xlink:href="#DejaVuSans-61"/>
      <use xlink:href="#DejaVuSans-6c" x="61.279297"/>
      <use xlink:href="#DejaVuSans-70" x="89.0625"/>
      <use xlink:href="#DejaVuSans-68" x="152.539062"/>
      <use xlink:href="#DejaVuSans-61" x="215.917969"/>
      <use xlink:href="#DejaVuSans-3d" x="277.197266"/>
      <use xlink:href="#DejaVuSans-31" x="360.986328"/>
      <use xlink:href="#DejaVuSans-2e" x="424.609375"/>
      <use xlink:href="#DejaVuSans-30" x="456.396484"/>
     </g>
    </g>
    <g id="line2d_37">
     <path d="M 181.398438 222.742188 
L 191.398438 222.742188 
L 201.398438 222.742188 
" style="fill: none; stroke: #ffac1e; stroke-width: 1.5; stroke-linecap: square"/>
     <g>
      <use xlink:href="#m8734f86168" x="191.398438" y="222.742188" style="fill: #ffac1e; stroke: #ffac1e; stroke-linejoin: bevel"/>
     </g>
    </g>
    <g id="text_21">
     <!-- alpha=1.5 -->
     <g transform="translate(209.398438 226.242188)scale(0.1 -0.1)">
      <use xlink:href="#DejaVuSans-61"/>
      <use xlink:href="#DejaVuSans-6c" x="61.279297"/>
      <use xlink:href="#DejaVuSans-70" x="89.0625"/>
      <use xlink:href="#DejaVuSans-68" x="152.539062"/>
      <use xlink:href="#DejaVuSans-61" x="215.917969"/>
      <use xlink:href="#DejaVuSans-3d" x="277.197266"/>
      <use xlink:href="#DejaVuSans-31" x="360.986328"/>
      <use xlink:href="#DejaVuSans-2e" x="424.609375"/>
      <use xlink:href="#DejaVuSans-35" x="456.396484"/>
     </g>
    </g>
    <g id="line2d_38">
     <path d="M 181.398438 237.420313 
L 191.398438 237.420313 
L 201.398438 237.420313 
" style="fill: none; stroke: #009435; stroke-width: 1.5; stroke-linecap: square"/>
     <g>
      <use xlink:href="#m4112a528bf" x="191.398438" y="237.420313" style="fill: #009435; stroke: #009435; stroke-linejoin: miter"/>
     </g>
    </g>
    <g id="text_22">
     <!-- alpha=2.0 -->
     <g transform="translate(209.398438 240.920313)scale(0.1 -0.1)">
      <use xlink:href="#DejaVuSans-61"/>
      <use xlink:href="#DejaVuSans-6c" x="61.279297"/>
      <use xlink:href="#DejaVuSans-70" x="89.0625"/>
      <use xlink:href="#DejaVuSans-68" x="152.539062"/>
      <use xlink:href="#DejaVuSans-61" x="215.917969"/>
      <use xlink:href="#DejaVuSans-3d" x="277.197266"/>
      <use xlink:href="#DejaVuSans-32" x="360.986328"/>
      <use xlink:href="#DejaVuSans-2e" x="424.609375"/>
      <use xlink:href="#DejaVuSans-30" x="456.396484"/>
     </g>
    </g>
   </g>
  </g>
 </g>
 <defs>
  <clipPath id="pb6a0321847">
   <rect x="54" y="34.56" width="334.8" height="217.44"/>
  </clipPath>
 </defs>
</svg>
