<?xml version="1.0" encoding="utf-8" standalone="no"?>
<!DOCTYPE svg PUBLIC "-//W3C//DTD SVG 1.1//EN"
  "http://www.w3.org/Graphics/SVG/1.1/DTD/svg11.dtd">
<svg xmlns:xlink="http://www.w3.org/1999/xlink" width="432pt" height="288pt" viewBox="0 0 432 288" xmlns="http://www.w3.org/2000/svg" version="1.1">
 <metadata>
  <rdf:RDF xmlns:dc="http://purl.org/dc/elements/1.1/" xmlns:cc="http://creativecommons.org/ns#" xmlns:rdf="http://www.w3.org/1999/02/22-rdf-syntax-ns#">
   <cc:Work>
    <dc:type rdf:resource="http://purl.org/dc/dcmitype/StillImage"/>
    <dc:date>2023-01-11T15:36:36.096153</dc:date>
    <dc:format>image/svg+xml</dc:format>
    <dc:creator>
     <cc:Agent>
      <dc:title>Matplotlib v3.5.2, https://matplotlib.org/</dc:title>
     </cc:Agent>
    </dc:creator>
   </cc:Work>
  </rdf:RDF>
 </metadata>
 <defs>
  <style type="text/css">*{stroke-linejoin: round; stroke-linecap: butt}</style>
 </defs>
 <g id="figure_1">
  <g id="patch_1">
   <path d="M 0 288 
L 432 288 
L 432 0 
L 0 0 
z
" style="fill: #ffffff"/>
  </g>
  <g id="axes_1">
   <g id="patch_2">
    <path d="M 54 252 
L 388.8 252 
L 388.8 34.56 
L 54 34.56 
z
" style="fill: #ffffff"/>
   </g>
   <g id="PolyCollection_1">
    <defs>
     <path id="m77cd3c17cd" d="M 69.218182 -34.544871 
L 69.218182 -34.544871 
L 74.376888 -35.091182 
L 79.535593 -35.091182 
L 84.694299 -35.091182 
L 89.853005 -34.920708 
L 95.01171 -33.926235 
L 100.170416 -25.419711 
L 105.329122 -37.235472 
L 110.487827 -35.648017 
L 115.646533 -33.891637 
L 120.805239 -34.424117 
L 125.963945 -34.350756 
L 131.12265 -35.085118 
L 136.281356 -35.091182 
L 141.440062 -34.382354 
L 146.598767 -35.091182 
L 151.757473 -35.031697 
L 156.916179 -35.091182 
L 162.074884 -34.739175 
L 167.23359 -35.091182 
L 172.392296 -35.074791 
L 177.551002 -35.091182 
L 182.709707 -34.37249 
L 187.868413 -34.835156 
L 193.027119 -33.465222 
L 198.185824 -29.906987 
L 203.34453 -64.795706 
L 208.503236 -70.31873 
L 213.661941 -69.628702 
L 218.820647 -69.628702 
L 223.979353 -70.050794 
L 229.138059 -82.021795 
L 234.296764 -82.021795 
L 239.45547 -82.021795 
L 244.614176 -242.586859 
L 249.772881 -238.414794 
L 254.931587 -238.560632 
L 260.090293 -240.45403 
L 265.248998 -240.754728 
L 270.407704 -239.404842 
L 275.56641 -240.754728 
L 280.725116 -240.754728 
L 285.883821 -240.754728 
L 291.042527 -240.754728 
L 296.201233 -240.754728 
L 301.359938 -240.754728 
L 306.518644 -240.754728 
L 311.67735 -240.45403 
L 316.836055 -240.901157 
L 321.994761 -240.901157 
L 327.153467 -240.45403 
L 332.312173 -240.708048 
L 337.470878 -240.708048 
L 342.629584 -240.708048 
L 347.78829 -238.667886 
L 352.946995 -238.667886 
L 358.105701 -238.667886 
L 363.264407 -238.667886 
L 368.423112 -238.667886 
L 373.581818 -238.667886 
L 373.581818 -238.667886 
L 373.581818 -238.667886 
L 368.423112 -238.667886 
L 363.264407 -238.667886 
L 358.105701 -238.667886 
L 352.946995 -238.667886 
L 347.78829 -238.667886 
L 342.629584 -240.708048 
L 337.470878 -240.708048 
L 332.312173 -240.708048 
L 327.153467 -240.45403 
L 321.994761 -240.901157 
L 316.836055 -240.901157 
L 311.67735 -240.45403 
L 306.518644 -240.754728 
L 301.359938 -240.754728 
L 296.201233 -240.754728 
L 291.042527 -240.754728 
L 285.883821 -240.754728 
L 280.725116 -240.754728 
L 275.56641 -240.754728 
L 270.407704 -239.404842 
L 265.248998 -240.754728 
L 260.090293 -240.45403 
L 254.931587 -238.560632 
L 249.772881 -238.414794 
L 244.614176 -242.586859 
L 239.45547 -82.021795 
L 234.296764 -82.021795 
L 229.138059 -82.021795 
L 223.979353 -70.050794 
L 218.820647 -69.628702 
L 213.661941 -69.628702 
L 208.503236 -70.31873 
L 203.34453 -64.795706 
L 198.185824 -29.906987 
L 193.027119 -33.465222 
L 187.868413 -34.835156 
L 182.709707 -34.37249 
L 177.551002 -35.091182 
L 172.392296 -35.074791 
L 167.23359 -35.091182 
L 162.074884 -34.739175 
L 156.916179 -35.091182 
L 151.757473 -35.031697 
L 146.598767 -35.091182 
L 141.440062 -34.382354 
L 136.281356 -35.091182 
L 131.12265 -35.085118 
L 125.963945 -34.350756 
L 120.805239 -34.424117 
L 115.646533 -33.891637 
L 110.487827 -35.648017 
L 105.329122 -37.235472 
L 100.170416 -25.419711 
L 95.01171 -33.926235 
L 89.853005 -34.920708 
L 84.694299 -35.091182 
L 79.535593 -35.091182 
L 74.376888 -35.091182 
L 69.218182 -34.544871 
z
" style="stroke: #9d02d7; stroke-opacity: 0.2"/>
    </defs>
    <g clip-path="url(#pce5ab76c5e)">
     <use xlink:href="#m77cd3c17cd" x="0" y="288" style="fill: #9d02d7; fill-opacity: 0.2; stroke: #9d02d7; stroke-opacity: 0.2"/>
    </g>
   </g>
   <g id="PolyCollection_2">
    <defs>
     <path id="m782b384736" d="M 69.218182 -33.870522 
L 69.218182 -33.870522 
L 74.376888 -34.690679 
L 79.535593 -34.98248 
L 84.694299 -34.007344 
L 89.853005 -25.948193 
L 95.01171 -35.091182 
L 100.170416 -35.091182 
L 105.329122 -33.732372 
L 110.487827 -28.654926 
L 115.646533 -29.662292 
L 120.805239 -27.491107 
L 125.963945 -18.094919 
L 131.12265 -19.626673 
L 136.281356 -29.842358 
L 141.440062 -28.489648 
L 146.598767 -19.607996 
L 151.757473 -26.525984 
L 156.916179 -25.792336 
L 162.074884 -24.453036 
L 167.23359 -29.132414 
L 172.392296 -18.653354 
L 177.551002 -34.858328 
L 182.709707 -32.710711 
L 187.868413 -33.906773 
L 193.027119 -35.0604 
L 198.185824 -35.017558 
L 203.34453 -33.771138 
L 208.503236 -30.735982 
L 213.661941 -38.122327 
L 218.820647 -35.091182 
L 223.979353 -59.413691 
L 229.138059 -31.03896 
L 234.296764 -35.004739 
L 239.45547 -35.071996 
L 244.614176 -22.777442 
L 249.772881 -35.020247 
L 254.931587 -35.025239 
L 260.090293 -35.016842 
L 265.248998 -34.390692 
L 270.407704 -34.844236 
L 275.56641 -35.091182 
L 280.725116 -52.216433 
L 285.883821 -52.226633 
L 291.042527 -51.616072 
L 296.201233 -197.894367 
L 301.359938 -50.419258 
L 306.518644 -49.877248 
L 311.67735 -171.137376 
L 316.836055 -47.288239 
L 321.994761 -200.998526 
L 327.153467 -195.317773 
L 332.312173 -76.922487 
L 337.470878 -195.419432 
L 342.629584 -47.28755 
L 347.78829 -76.952284 
L 352.946995 -202.954316 
L 358.105701 -76.952464 
L 363.264407 -202.543235 
L 368.423112 -51.089546 
L 373.581818 -200.999258 
L 373.581818 -200.999258 
L 373.581818 -200.999258 
L 368.423112 -51.089546 
L 363.264407 -202.543235 
L 358.105701 -76.952464 
L 352.946995 -202.954316 
L 347.78829 -76.952284 
L 342.629584 -47.28755 
L 337.470878 -195.419432 
L 332.312173 -76.922487 
L 327.153467 -195.317773 
L 321.994761 -200.998526 
L 316.836055 -47.288239 
L 311.67735 -171.137376 
L 306.518644 -49.877248 
L 301.359938 -50.419258 
L 296.201233 -197.894367 
L 291.042527 -51.616072 
L 285.883821 -52.226633 
L 280.725116 -52.216433 
L 275.56641 -35.091182 
L 270.407704 -34.844236 
L 265.248998 -34.390692 
L 260.090293 -35.016842 
L 254.931587 -35.025239 
L 249.772881 -35.020247 
L 244.614176 -22.777442 
L 239.45547 -35.071996 
L 234.296764 -35.004739 
L 229.138059 -31.03896 
L 223.979353 -59.413691 
L 218.820647 -35.091182 
L 213.661941 -38.122327 
L 208.503236 -30.735982 
L 203.34453 -33.771138 
L 198.185824 -35.017558 
L 193.027119 -35.0604 
L 187.868413 -33.906773 
L 182.709707 -32.710711 
L 177.551002 -34.858328 
L 172.392296 -18.653354 
L 167.23359 -29.132414 
L 162.074884 -24.453036 
L 156.916179 -25.792336 
L 151.757473 -26.525984 
L 146.598767 -19.607996 
L 141.440062 -28.489648 
L 136.281356 -29.842358 
L 131.12265 -19.626673 
L 125.963945 -18.094919 
L 120.805239 -27.491107 
L 115.646533 -29.662292 
L 110.487827 -28.654926 
L 105.329122 -33.732372 
L 100.170416 -35.091182 
L 95.01171 -35.091182 
L 89.853005 -25.948193 
L 84.694299 -34.007344 
L 79.535593 -34.98248 
L 74.376888 -34.690679 
L 69.218182 -33.870522 
z
" style="stroke: #0000ff; stroke-opacity: 0.2"/>
    </defs>
    <g clip-path="url(#pce5ab76c5e)">
     <use xlink:href="#m782b384736" x="0" y="288" style="fill: #0000ff; fill-opacity: 0.2; stroke: #0000ff; stroke-opacity: 0.2"/>
    </g>
   </g>
   <g id="PolyCollection_3">
    <defs>
     <path id="m8b39644e38" d="M 69.218182 -23.24419 
L 69.218182 -23.24419 
L 74.376888 -27.456852 
L 79.535593 -34.704405 
L 84.694299 -35.091182 
L 89.853005 -35.091182 
L 95.01171 -34.458244 
L 100.170416 -35.091182 
L 105.329122 -35.091182 
L 110.487827 -35.091182 
L 115.646533 -32.390471 
L 120.805239 -35.283632 
L 125.963945 -35.038717 
L 131.12265 -30.78677 
L 136.281356 -33.262752 
L 141.440062 -35.091182 
L 146.598767 -34.596726 
L 151.757473 -31.397444 
L 156.916179 -32.963734 
L 162.074884 -34.856155 
L 167.23359 -37.991545 
L 172.392296 -34.958836 
L 177.551002 -35.091182 
L 182.709707 -35.091182 
L 187.868413 -35.091182 
L 193.027119 -24.73128 
L 198.185824 -35.138203 
L 203.34453 -71.794232 
L 208.503236 -31.732425 
L 213.661941 -21.684288 
L 218.820647 -35.091182 
L 223.979353 -35.091182 
L 229.138059 -31.825569 
L 234.296764 -33.982631 
L 239.45547 -35.019298 
L 244.614176 -35.091182 
L 249.772881 -103.432852 
L 254.931587 -35.893746 
L 260.090293 -92.668962 
L 265.248998 -134.37106 
L 270.407704 -135.473409 
L 275.56641 -110.832057 
L 280.725116 -116.159766 
L 285.883821 -116.295667 
L 291.042527 -116.269088 
L 296.201233 -110.396036 
L 301.359938 -116.389581 
L 306.518644 -110.358149 
L 311.67735 -116.234255 
L 316.836055 -116.379139 
L 321.994761 -116.523125 
L 327.153467 -116.282288 
L 332.312173 -107.91665 
L 337.470878 -133.297587 
L 342.629584 -125.265962 
L 347.78829 -134.238209 
L 352.946995 -125.315459 
L 358.105701 -134.037533 
L 363.264407 -135.77013 
L 368.423112 -134.303308 
L 373.581818 -135.99326 
L 373.581818 -135.99326 
L 373.581818 -135.99326 
L 368.423112 -134.303308 
L 363.264407 -135.77013 
L 358.105701 -134.037533 
L 352.946995 -125.315459 
L 347.78829 -134.238209 
L 342.629584 -125.265962 
L 337.470878 -133.297587 
L 332.312173 -107.91665 
L 327.153467 -116.282288 
L 321.994761 -116.523125 
L 316.836055 -116.379139 
L 311.67735 -116.234255 
L 306.518644 -110.358149 
L 301.359938 -116.389581 
L 296.201233 -110.396036 
L 291.042527 -116.269088 
L 285.883821 -116.295667 
L 280.725116 -116.159766 
L 275.56641 -110.832057 
L 270.407704 -135.473409 
L 265.248998 -134.37106 
L 260.090293 -92.668962 
L 254.931587 -35.893746 
L 249.772881 -103.432852 
L 244.614176 -35.091182 
L 239.45547 -35.019298 
L 234.296764 -33.982631 
L 229.138059 -31.825569 
L 223.979353 -35.091182 
L 218.820647 -35.091182 
L 213.661941 -21.684288 
L 208.503236 -31.732425 
L 203.34453 -71.794232 
L 198.185824 -35.138203 
L 193.027119 -24.73128 
L 187.868413 -35.091182 
L 182.709707 -35.091182 
L 177.551002 -35.091182 
L 172.392296 -34.958836 
L 167.23359 -37.991545 
L 162.074884 -34.856155 
L 156.916179 -32.963734 
L 151.757473 -31.397444 
L 146.598767 -34.596726 
L 141.440062 -35.091182 
L 136.281356 -33.262752 
L 131.12265 -30.78677 
L 125.963945 -35.038717 
L 120.805239 -35.283632 
L 115.646533 -32.390471 
L 110.487827 -35.091182 
L 105.329122 -35.091182 
L 100.170416 -35.091182 
L 95.01171 -34.458244 
L 89.853005 -35.091182 
L 84.694299 -35.091182 
L 79.535593 -34.704405 
L 74.376888 -27.456852 
L 69.218182 -23.24419 
z
" style="stroke: #ff7763; stroke-opacity: 0.2"/>
    </defs>
    <g clip-path="url(#pce5ab76c5e)">
     <use xlink:href="#m8b39644e38" x="0" y="288" style="fill: #ff7763; fill-opacity: 0.2; stroke: #ff7763; stroke-opacity: 0.2"/>
    </g>
   </g>
   <g id="PolyCollection_4">
    <defs>
     <path id="mfa92b8c66d" d="M 69.218182 -33.543922 
L 69.218182 -33.543922 
L 74.376888 -35.091182 
L 79.535593 -34.549412 
L 84.694299 -34.754344 
L 89.853005 -34.948393 
L 95.01171 -34.140258 
L 100.170416 -35.016793 
L 105.329122 -35.017285 
L 110.487827 -35.091182 
L 115.646533 -34.821866 
L 120.805239 -35.091182 
L 125.963945 -34.860457 
L 131.12265 -144.354733 
L 136.281356 -142.811605 
L 141.440062 -152.470418 
L 146.598767 -163.435132 
L 151.757473 -80.849359 
L 156.916179 -49.637855 
L 162.074884 -156.695453 
L 167.23359 -153.782961 
L 172.392296 -184.57523 
L 177.551002 -53.098577 
L 182.709707 -66.029085 
L 187.868413 -52.204 
L 193.027119 -54.846958 
L 198.185824 -52.131902 
L 203.34453 -65.157957 
L 208.503236 -70.924239 
L 213.661941 -52.143405 
L 218.820647 -63.132824 
L 223.979353 -60.869973 
L 229.138059 -61.281577 
L 234.296764 -60.1806 
L 239.45547 -68.622419 
L 244.614176 -185.425745 
L 249.772881 -78.7938 
L 254.931587 -71.061343 
L 260.090293 -67.081311 
L 265.248998 -165.887462 
L 270.407704 -172.127438 
L 275.56641 -83.250361 
L 280.725116 -168.618378 
L 285.883821 -70.578594 
L 291.042527 -71.34643 
L 296.201233 -58.349071 
L 301.359938 -77.619229 
L 306.518644 -70.666282 
L 311.67735 -81.176264 
L 316.836055 -62.326952 
L 321.994761 -68.613189 
L 327.153467 -74.49498 
L 332.312173 -74.78558 
L 337.470878 -80.392128 
L 342.629584 -54.844765 
L 347.78829 -72.863009 
L 352.946995 -77.2656 
L 358.105701 -70.536691 
L 363.264407 -66.332769 
L 368.423112 -55.038313 
L 373.581818 -64.856058 
L 373.581818 -64.856058 
L 373.581818 -64.856058 
L 368.423112 -55.038313 
L 363.264407 -66.332769 
L 358.105701 -70.536691 
L 352.946995 -77.2656 
L 347.78829 -72.863009 
L 342.629584 -54.844765 
L 337.470878 -80.392128 
L 332.312173 -74.78558 
L 327.153467 -74.49498 
L 321.994761 -68.613189 
L 316.836055 -62.326952 
L 311.67735 -81.176264 
L 306.518644 -70.666282 
L 301.359938 -77.619229 
L 296.201233 -58.349071 
L 291.042527 -71.34643 
L 285.883821 -70.578594 
L 280.725116 -168.618378 
L 275.56641 -83.250361 
L 270.407704 -172.127438 
L 265.248998 -165.887462 
L 260.090293 -67.081311 
L 254.931587 -71.061343 
L 249.772881 -78.7938 
L 244.614176 -185.425745 
L 239.45547 -68.622419 
L 234.296764 -60.1806 
L 229.138059 -61.281577 
L 223.979353 -60.869973 
L 218.820647 -63.132824 
L 213.661941 -52.143405 
L 208.503236 -70.924239 
L 203.34453 -65.157957 
L 198.185824 -52.131902 
L 193.027119 -54.846958 
L 187.868413 -52.204 
L 182.709707 -66.029085 
L 177.551002 -53.098577 
L 172.392296 -184.57523 
L 167.23359 -153.782961 
L 162.074884 -156.695453 
L 156.916179 -49.637855 
L 151.757473 -80.849359 
L 146.598767 -163.435132 
L 141.440062 -152.470418 
L 136.281356 -142.811605 
L 131.12265 -144.354733 
L 125.963945 -34.860457 
L 120.805239 -35.091182 
L 115.646533 -34.821866 
L 110.487827 -35.091182 
L 105.329122 -35.017285 
L 100.170416 -35.016793 
L 95.01171 -34.140258 
L 89.853005 -34.948393 
L 84.694299 -34.754344 
L 79.535593 -34.549412 
L 74.376888 -35.091182 
L 69.218182 -33.543922 
z
" style="stroke: #ffac1e; stroke-opacity: 0.2"/>
    </defs>
    <g clip-path="url(#pce5ab76c5e)">
     <use xlink:href="#mfa92b8c66d" x="0" y="288" style="fill: #ffac1e; fill-opacity: 0.2; stroke: #ffac1e; stroke-opacity: 0.2"/>
    </g>
   </g>
   <g id="matplotlib.axis_1">
    <g id="xtick_1">
     <g id="line2d_1">
      <path d="M 69.218182 252 
L 69.218182 34.56 
" clip-path="url(#pce5ab76c5e)" style="fill: none; stroke-dasharray: 2.96,1.28; stroke-dashoffset: 0; stroke: #b0b0b0; stroke-width: 0.8"/>
     </g>
     <g id="line2d_2">
      <defs>
       <path id="mef05b57d9b" d="M 0 0 
L 0 3.5 
" style="stroke: #000000; stroke-width: 0.8"/>
      </defs>
      <g>
       <use xlink:href="#mef05b57d9b" x="69.218182" y="252" style="stroke: #000000; stroke-width: 0.8"/>
      </g>
     </g>
     <g id="text_1">
      <!-- 0 -->
      <g transform="translate(66.036932 266.598437)scale(0.1 -0.1)">
       <defs>
        <path id="DejaVuSans-30" d="M 2034 4250 
Q 1547 4250 1301 3770 
Q 1056 3291 1056 2328 
Q 1056 1369 1301 889 
Q 1547 409 2034 409 
Q 2525 409 2770 889 
Q 3016 1369 3016 2328 
Q 3016 3291 2770 3770 
Q 2525 4250 2034 4250 
z
M 2034 4750 
Q 2819 4750 3233 4129 
Q 3647 3509 3647 2328 
Q 3647 1150 3233 529 
Q 2819 -91 2034 -91 
Q 1250 -91 836 529 
Q 422 1150 422 2328 
Q 422 3509 836 4129 
Q 1250 4750 2034 4750 
z
" transform="scale(0.015625)"/>
       </defs>
       <use xlink:href="#DejaVuSans-30"/>
      </g>
     </g>
    </g>
    <g id="xtick_2">
     <g id="line2d_3">
      <path d="M 120.805239 252 
L 120.805239 34.56 
" clip-path="url(#pce5ab76c5e)" style="fill: none; stroke-dasharray: 2.96,1.28; stroke-dashoffset: 0; stroke: #b0b0b0; stroke-width: 0.8"/>
     </g>
     <g id="line2d_4">
      <g>
       <use xlink:href="#mef05b57d9b" x="120.805239" y="252" style="stroke: #000000; stroke-width: 0.8"/>
      </g>
     </g>
     <g id="text_2">
      <!-- 500 -->
      <g transform="translate(111.261489 266.598437)scale(0.1 -0.1)">
       <defs>
        <path id="DejaVuSans-35" d="M 691 4666 
L 3169 4666 
L 3169 4134 
L 1269 4134 
L 1269 2991 
Q 1406 3038 1543 3061 
Q 1681 3084 1819 3084 
Q 2600 3084 3056 2656 
Q 3513 2228 3513 1497 
Q 3513 744 3044 326 
Q 2575 -91 1722 -91 
Q 1428 -91 1123 -41 
Q 819 9 494 109 
L 494 744 
Q 775 591 1075 516 
Q 1375 441 1709 441 
Q 2250 441 2565 725 
Q 2881 1009 2881 1497 
Q 2881 1984 2565 2268 
Q 2250 2553 1709 2553 
Q 1456 2553 1204 2497 
Q 953 2441 691 2322 
L 691 4666 
z
" transform="scale(0.015625)"/>
       </defs>
       <use xlink:href="#DejaVuSans-35"/>
       <use xlink:href="#DejaVuSans-30" x="63.623047"/>
       <use xlink:href="#DejaVuSans-30" x="127.246094"/>
      </g>
     </g>
    </g>
    <g id="xtick_3">
     <g id="line2d_5">
      <path d="M 172.392296 252 
L 172.392296 34.56 
" clip-path="url(#pce5ab76c5e)" style="fill: none; stroke-dasharray: 2.96,1.28; stroke-dashoffset: 0; stroke: #b0b0b0; stroke-width: 0.8"/>
     </g>
     <g id="line2d_6">
      <g>
       <use xlink:href="#mef05b57d9b" x="172.392296" y="252" style="stroke: #000000; stroke-width: 0.8"/>
      </g>
     </g>
     <g id="text_3">
      <!-- 1000 -->
      <g transform="translate(159.667296 266.598437)scale(0.1 -0.1)">
       <defs>
        <path id="DejaVuSans-31" d="M 794 531 
L 1825 531 
L 1825 4091 
L 703 3866 
L 703 4441 
L 1819 4666 
L 2450 4666 
L 2450 531 
L 3481 531 
L 3481 0 
L 794 0 
L 794 531 
z
" transform="scale(0.015625)"/>
       </defs>
       <use xlink:href="#DejaVuSans-31"/>
       <use xlink:href="#DejaVuSans-30" x="63.623047"/>
       <use xlink:href="#DejaVuSans-30" x="127.246094"/>
       <use xlink:href="#DejaVuSans-30" x="190.869141"/>
      </g>
     </g>
    </g>
    <g id="xtick_4">
     <g id="line2d_7">
      <path d="M 223.979353 252 
L 223.979353 34.56 
" clip-path="url(#pce5ab76c5e)" style="fill: none; stroke-dasharray: 2.96,1.28; stroke-dashoffset: 0; stroke: #b0b0b0; stroke-width: 0.8"/>
     </g>
     <g id="line2d_8">
      <g>
       <use xlink:href="#mef05b57d9b" x="223.979353" y="252" style="stroke: #000000; stroke-width: 0.8"/>
      </g>
     </g>
     <g id="text_4">
      <!-- 1500 -->
      <g transform="translate(211.254353 266.598437)scale(0.1 -0.1)">
       <use xlink:href="#DejaVuSans-31"/>
       <use xlink:href="#DejaVuSans-35" x="63.623047"/>
       <use xlink:href="#DejaVuSans-30" x="127.246094"/>
       <use xlink:href="#DejaVuSans-30" x="190.869141"/>
      </g>
     </g>
    </g>
    <g id="xtick_5">
     <g id="line2d_9">
      <path d="M 275.56641 252 
L 275.56641 34.56 
" clip-path="url(#pce5ab76c5e)" style="fill: none; stroke-dasharray: 2.96,1.28; stroke-dashoffset: 0; stroke: #b0b0b0; stroke-width: 0.8"/>
     </g>
     <g id="line2d_10">
      <g>
       <use xlink:href="#mef05b57d9b" x="275.56641" y="252" style="stroke: #000000; stroke-width: 0.8"/>
      </g>
     </g>
     <g id="text_5">
      <!-- 2000 -->
      <g transform="translate(262.84141 266.598437)scale(0.1 -0.1)">
       <defs>
        <path id="DejaVuSans-32" d="M 1228 531 
L 3431 531 
L 3431 0 
L 469 0 
L 469 531 
Q 828 903 1448 1529 
Q 2069 2156 2228 2338 
Q 2531 2678 2651 2914 
Q 2772 3150 2772 3378 
Q 2772 3750 2511 3984 
Q 2250 4219 1831 4219 
Q 1534 4219 1204 4116 
Q 875 4013 500 3803 
L 500 4441 
Q 881 4594 1212 4672 
Q 1544 4750 1819 4750 
Q 2544 4750 2975 4387 
Q 3406 4025 3406 3419 
Q 3406 3131 3298 2873 
Q 3191 2616 2906 2266 
Q 2828 2175 2409 1742 
Q 1991 1309 1228 531 
z
" transform="scale(0.015625)"/>
       </defs>
       <use xlink:href="#DejaVuSans-32"/>
       <use xlink:href="#DejaVuSans-30" x="63.623047"/>
       <use xlink:href="#DejaVuSans-30" x="127.246094"/>
       <use xlink:href="#DejaVuSans-30" x="190.869141"/>
      </g>
     </g>
    </g>
    <g id="xtick_6">
     <g id="line2d_11">
      <path d="M 327.153467 252 
L 327.153467 34.56 
" clip-path="url(#pce5ab76c5e)" style="fill: none; stroke-dasharray: 2.96,1.28; stroke-dashoffset: 0; stroke: #b0b0b0; stroke-width: 0.8"/>
     </g>
     <g id="line2d_12">
      <g>
       <use xlink:href="#mef05b57d9b" x="327.153467" y="252" style="stroke: #000000; stroke-width: 0.8"/>
      </g>
     </g>
     <g id="text_6">
      <!-- 2500 -->
      <g transform="translate(314.428467 266.598437)scale(0.1 -0.1)">
       <use xlink:href="#DejaVuSans-32"/>
       <use xlink:href="#DejaVuSans-35" x="63.623047"/>
       <use xlink:href="#DejaVuSans-30" x="127.246094"/>
       <use xlink:href="#DejaVuSans-30" x="190.869141"/>
      </g>
     </g>
    </g>
    <g id="xtick_7">
     <g id="line2d_13">
      <path d="M 378.740524 252 
L 378.740524 34.56 
" clip-path="url(#pce5ab76c5e)" style="fill: none; stroke-dasharray: 2.96,1.28; stroke-dashoffset: 0; stroke: #b0b0b0; stroke-width: 0.8"/>
     </g>
     <g id="line2d_14">
      <g>
       <use xlink:href="#mef05b57d9b" x="378.740524" y="252" style="stroke: #000000; stroke-width: 0.8"/>
      </g>
     </g>
     <g id="text_7">
      <!-- 3000 -->
      <g transform="translate(366.015524 266.598437)scale(0.1 -0.1)">
       <defs>
        <path id="DejaVuSans-33" d="M 2597 2516 
Q 3050 2419 3304 2112 
Q 3559 1806 3559 1356 
Q 3559 666 3084 287 
Q 2609 -91 1734 -91 
Q 1441 -91 1130 -33 
Q 819 25 488 141 
L 488 750 
Q 750 597 1062 519 
Q 1375 441 1716 441 
Q 2309 441 2620 675 
Q 2931 909 2931 1356 
Q 2931 1769 2642 2001 
Q 2353 2234 1838 2234 
L 1294 2234 
L 1294 2753 
L 1863 2753 
Q 2328 2753 2575 2939 
Q 2822 3125 2822 3475 
Q 2822 3834 2567 4026 
Q 2313 4219 1838 4219 
Q 1578 4219 1281 4162 
Q 984 4106 628 3988 
L 628 4550 
Q 988 4650 1302 4700 
Q 1616 4750 1894 4750 
Q 2613 4750 3031 4423 
Q 3450 4097 3450 3541 
Q 3450 3153 3228 2886 
Q 3006 2619 2597 2516 
z
" transform="scale(0.015625)"/>
       </defs>
       <use xlink:href="#DejaVuSans-33"/>
       <use xlink:href="#DejaVuSans-30" x="63.623047"/>
       <use xlink:href="#DejaVuSans-30" x="127.246094"/>
       <use xlink:href="#DejaVuSans-30" x="190.869141"/>
      </g>
     </g>
    </g>
    <g id="text_8">
     <!-- Steps -->
     <g transform="translate(207.410156 280.276563)scale(0.1 -0.1)">
      <defs>
       <path id="DejaVuSans-53" d="M 3425 4513 
L 3425 3897 
Q 3066 4069 2747 4153 
Q 2428 4238 2131 4238 
Q 1616 4238 1336 4038 
Q 1056 3838 1056 3469 
Q 1056 3159 1242 3001 
Q 1428 2844 1947 2747 
L 2328 2669 
Q 3034 2534 3370 2195 
Q 3706 1856 3706 1288 
Q 3706 609 3251 259 
Q 2797 -91 1919 -91 
Q 1588 -91 1214 -16 
Q 841 59 441 206 
L 441 856 
Q 825 641 1194 531 
Q 1563 422 1919 422 
Q 2459 422 2753 634 
Q 3047 847 3047 1241 
Q 3047 1584 2836 1778 
Q 2625 1972 2144 2069 
L 1759 2144 
Q 1053 2284 737 2584 
Q 422 2884 422 3419 
Q 422 4038 858 4394 
Q 1294 4750 2059 4750 
Q 2388 4750 2728 4690 
Q 3069 4631 3425 4513 
z
" transform="scale(0.015625)"/>
       <path id="DejaVuSans-74" d="M 1172 4494 
L 1172 3500 
L 2356 3500 
L 2356 3053 
L 1172 3053 
L 1172 1153 
Q 1172 725 1289 603 
Q 1406 481 1766 481 
L 2356 481 
L 2356 0 
L 1766 0 
Q 1100 0 847 248 
Q 594 497 594 1153 
L 594 3053 
L 172 3053 
L 172 3500 
L 594 3500 
L 594 4494 
L 1172 4494 
z
" transform="scale(0.015625)"/>
       <path id="DejaVuSans-65" d="M 3597 1894 
L 3597 1613 
L 953 1613 
Q 991 1019 1311 708 
Q 1631 397 2203 397 
Q 2534 397 2845 478 
Q 3156 559 3463 722 
L 3463 178 
Q 3153 47 2828 -22 
Q 2503 -91 2169 -91 
Q 1331 -91 842 396 
Q 353 884 353 1716 
Q 353 2575 817 3079 
Q 1281 3584 2069 3584 
Q 2775 3584 3186 3129 
Q 3597 2675 3597 1894 
z
M 3022 2063 
Q 3016 2534 2758 2815 
Q 2500 3097 2075 3097 
Q 1594 3097 1305 2825 
Q 1016 2553 972 2059 
L 3022 2063 
z
" transform="scale(0.015625)"/>
       <path id="DejaVuSans-70" d="M 1159 525 
L 1159 -1331 
L 581 -1331 
L 581 3500 
L 1159 3500 
L 1159 2969 
Q 1341 3281 1617 3432 
Q 1894 3584 2278 3584 
Q 2916 3584 3314 3078 
Q 3713 2572 3713 1747 
Q 3713 922 3314 415 
Q 2916 -91 2278 -91 
Q 1894 -91 1617 61 
Q 1341 213 1159 525 
z
M 3116 1747 
Q 3116 2381 2855 2742 
Q 2594 3103 2138 3103 
Q 1681 3103 1420 2742 
Q 1159 2381 1159 1747 
Q 1159 1113 1420 752 
Q 1681 391 2138 391 
Q 2594 391 2855 752 
Q 3116 1113 3116 1747 
z
" transform="scale(0.015625)"/>
       <path id="DejaVuSans-73" d="M 2834 3397 
L 2834 2853 
Q 2591 2978 2328 3040 
Q 2066 3103 1784 3103 
Q 1356 3103 1142 2972 
Q 928 2841 928 2578 
Q 928 2378 1081 2264 
Q 1234 2150 1697 2047 
L 1894 2003 
Q 2506 1872 2764 1633 
Q 3022 1394 3022 966 
Q 3022 478 2636 193 
Q 2250 -91 1575 -91 
Q 1294 -91 989 -36 
Q 684 19 347 128 
L 347 722 
Q 666 556 975 473 
Q 1284 391 1588 391 
Q 1994 391 2212 530 
Q 2431 669 2431 922 
Q 2431 1156 2273 1281 
Q 2116 1406 1581 1522 
L 1381 1569 
Q 847 1681 609 1914 
Q 372 2147 372 2553 
Q 372 3047 722 3315 
Q 1072 3584 1716 3584 
Q 2034 3584 2315 3537 
Q 2597 3491 2834 3397 
z
" transform="scale(0.015625)"/>
      </defs>
      <use xlink:href="#DejaVuSans-53"/>
      <use xlink:href="#DejaVuSans-74" x="63.476562"/>
      <use xlink:href="#DejaVuSans-65" x="102.685547"/>
      <use xlink:href="#DejaVuSans-70" x="164.208984"/>
      <use xlink:href="#DejaVuSans-73" x="227.685547"/>
     </g>
    </g>
   </g>
   <g id="matplotlib.axis_2">
    <g id="ytick_1">
     <g id="line2d_15">
      <path d="M 54 243.636923 
L 388.8 243.636923 
" clip-path="url(#pce5ab76c5e)" style="fill: none; stroke-dasharray: 2.96,1.28; stroke-dashoffset: 0; stroke: #b0b0b0; stroke-width: 0.8"/>
     </g>
     <g id="line2d_16">
      <defs>
       <path id="m6d89c38cc4" d="M 0 0 
L -3.5 0 
" style="stroke: #000000; stroke-width: 0.8"/>
      </defs>
      <g>
       <use xlink:href="#m6d89c38cc4" x="54" y="243.636923" style="stroke: #000000; stroke-width: 0.8"/>
      </g>
     </g>
     <g id="text_9">
      <!-- −12 -->
      <g transform="translate(25.895312 247.436142)scale(0.1 -0.1)">
       <defs>
        <path id="DejaVuSans-2212" d="M 678 2272 
L 4684 2272 
L 4684 1741 
L 678 1741 
L 678 2272 
z
" transform="scale(0.015625)"/>
       </defs>
       <use xlink:href="#DejaVuSans-2212"/>
       <use xlink:href="#DejaVuSans-31" x="83.789062"/>
       <use xlink:href="#DejaVuSans-32" x="147.412109"/>
      </g>
     </g>
    </g>
    <g id="ytick_2">
     <g id="line2d_17">
      <path d="M 54 210.184615 
L 388.8 210.184615 
" clip-path="url(#pce5ab76c5e)" style="fill: none; stroke-dasharray: 2.96,1.28; stroke-dashoffset: 0; stroke: #b0b0b0; stroke-width: 0.8"/>
     </g>
     <g id="line2d_18">
      <g>
       <use xlink:href="#m6d89c38cc4" x="54" y="210.184615" style="stroke: #000000; stroke-width: 0.8"/>
      </g>
     </g>
     <g id="text_10">
      <!-- −10 -->
      <g transform="translate(25.895312 213.983834)scale(0.1 -0.1)">
       <use xlink:href="#DejaVuSans-2212"/>
       <use xlink:href="#DejaVuSans-31" x="83.789062"/>
       <use xlink:href="#DejaVuSans-30" x="147.412109"/>
      </g>
     </g>
    </g>
    <g id="ytick_3">
     <g id="line2d_19">
      <path d="M 54 176.732308 
L 388.8 176.732308 
" clip-path="url(#pce5ab76c5e)" style="fill: none; stroke-dasharray: 2.96,1.28; stroke-dashoffset: 0; stroke: #b0b0b0; stroke-width: 0.8"/>
     </g>
     <g id="line2d_20">
      <g>
       <use xlink:href="#m6d89c38cc4" x="54" y="176.732308" style="stroke: #000000; stroke-width: 0.8"/>
      </g>
     </g>
     <g id="text_11">
      <!-- −8 -->
      <g transform="translate(32.257812 180.531526)scale(0.1 -0.1)">
       <defs>
        <path id="DejaVuSans-38" d="M 2034 2216 
Q 1584 2216 1326 1975 
Q 1069 1734 1069 1313 
Q 1069 891 1326 650 
Q 1584 409 2034 409 
Q 2484 409 2743 651 
Q 3003 894 3003 1313 
Q 3003 1734 2745 1975 
Q 2488 2216 2034 2216 
z
M 1403 2484 
Q 997 2584 770 2862 
Q 544 3141 544 3541 
Q 544 4100 942 4425 
Q 1341 4750 2034 4750 
Q 2731 4750 3128 4425 
Q 3525 4100 3525 3541 
Q 3525 3141 3298 2862 
Q 3072 2584 2669 2484 
Q 3125 2378 3379 2068 
Q 3634 1759 3634 1313 
Q 3634 634 3220 271 
Q 2806 -91 2034 -91 
Q 1263 -91 848 271 
Q 434 634 434 1313 
Q 434 1759 690 2068 
Q 947 2378 1403 2484 
z
M 1172 3481 
Q 1172 3119 1398 2916 
Q 1625 2713 2034 2713 
Q 2441 2713 2670 2916 
Q 2900 3119 2900 3481 
Q 2900 3844 2670 4047 
Q 2441 4250 2034 4250 
Q 1625 4250 1398 4047 
Q 1172 3844 1172 3481 
z
" transform="scale(0.015625)"/>
       </defs>
       <use xlink:href="#DejaVuSans-2212"/>
       <use xlink:href="#DejaVuSans-38" x="83.789062"/>
      </g>
     </g>
    </g>
    <g id="ytick_4">
     <g id="line2d_21">
      <path d="M 54 143.28 
L 388.8 143.28 
" clip-path="url(#pce5ab76c5e)" style="fill: none; stroke-dasharray: 2.96,1.28; stroke-dashoffset: 0; stroke: #b0b0b0; stroke-width: 0.8"/>
     </g>
     <g id="line2d_22">
      <g>
       <use xlink:href="#m6d89c38cc4" x="54" y="143.28" style="stroke: #000000; stroke-width: 0.8"/>
      </g>
     </g>
     <g id="text_12">
      <!-- −6 -->
      <g transform="translate(32.257812 147.079219)scale(0.1 -0.1)">
       <defs>
        <path id="DejaVuSans-36" d="M 2113 2584 
Q 1688 2584 1439 2293 
Q 1191 2003 1191 1497 
Q 1191 994 1439 701 
Q 1688 409 2113 409 
Q 2538 409 2786 701 
Q 3034 994 3034 1497 
Q 3034 2003 2786 2293 
Q 2538 2584 2113 2584 
z
M 3366 4563 
L 3366 3988 
Q 3128 4100 2886 4159 
Q 2644 4219 2406 4219 
Q 1781 4219 1451 3797 
Q 1122 3375 1075 2522 
Q 1259 2794 1537 2939 
Q 1816 3084 2150 3084 
Q 2853 3084 3261 2657 
Q 3669 2231 3669 1497 
Q 3669 778 3244 343 
Q 2819 -91 2113 -91 
Q 1303 -91 875 529 
Q 447 1150 447 2328 
Q 447 3434 972 4092 
Q 1497 4750 2381 4750 
Q 2619 4750 2861 4703 
Q 3103 4656 3366 4563 
z
" transform="scale(0.015625)"/>
       </defs>
       <use xlink:href="#DejaVuSans-2212"/>
       <use xlink:href="#DejaVuSans-36" x="83.789062"/>
      </g>
     </g>
    </g>
    <g id="ytick_5">
     <g id="line2d_23">
      <path d="M 54 109.827692 
L 388.8 109.827692 
" clip-path="url(#pce5ab76c5e)" style="fill: none; stroke-dasharray: 2.96,1.28; stroke-dashoffset: 0; stroke: #b0b0b0; stroke-width: 0.8"/>
     </g>
     <g id="line2d_24">
      <g>
       <use xlink:href="#m6d89c38cc4" x="54" y="109.827692" style="stroke: #000000; stroke-width: 0.8"/>
      </g>
     </g>
     <g id="text_13">
      <!-- −4 -->
      <g transform="translate(32.257812 113.626911)scale(0.1 -0.1)">
       <defs>
        <path id="DejaVuSans-34" d="M 2419 4116 
L 825 1625 
L 2419 1625 
L 2419 4116 
z
M 2253 4666 
L 3047 4666 
L 3047 1625 
L 3713 1625 
L 3713 1100 
L 3047 1100 
L 3047 0 
L 2419 0 
L 2419 1100 
L 313 1100 
L 313 1709 
L 2253 4666 
z
" transform="scale(0.015625)"/>
       </defs>
       <use xlink:href="#DejaVuSans-2212"/>
       <use xlink:href="#DejaVuSans-34" x="83.789062"/>
      </g>
     </g>
    </g>
    <g id="ytick_6">
     <g id="line2d_25">
      <path d="M 54 76.375385 
L 388.8 76.375385 
" clip-path="url(#pce5ab76c5e)" style="fill: none; stroke-dasharray: 2.96,1.28; stroke-dashoffset: 0; stroke: #b0b0b0; stroke-width: 0.8"/>
     </g>
     <g id="line2d_26">
      <g>
       <use xlink:href="#m6d89c38cc4" x="54" y="76.375385" style="stroke: #000000; stroke-width: 0.8"/>
      </g>
     </g>
     <g id="text_14">
      <!-- −2 -->
      <g transform="translate(32.257812 80.174603)scale(0.1 -0.1)">
       <use xlink:href="#DejaVuSans-2212"/>
       <use xlink:href="#DejaVuSans-32" x="83.789062"/>
      </g>
     </g>
    </g>
    <g id="ytick_7">
     <g id="line2d_27">
      <path d="M 54 42.923077 
L 388.8 42.923077 
" clip-path="url(#pce5ab76c5e)" style="fill: none; stroke-dasharray: 2.96,1.28; stroke-dashoffset: 0; stroke: #b0b0b0; stroke-width: 0.8"/>
     </g>
     <g id="line2d_28">
      <g>
       <use xlink:href="#m6d89c38cc4" x="54" y="42.923077" style="stroke: #000000; stroke-width: 0.8"/>
      </g>
     </g>
     <g id="text_15">
      <!-- 0 -->
      <g transform="translate(40.6375 46.722296)scale(0.1 -0.1)">
       <use xlink:href="#DejaVuSans-30"/>
      </g>
     </g>
    </g>
    <g id="text_16">
     <!-- Policy value error -->
     <g transform="translate(19.815625 186.597969)rotate(-90)scale(0.1 -0.1)">
      <defs>
       <path id="DejaVuSans-50" d="M 1259 4147 
L 1259 2394 
L 2053 2394 
Q 2494 2394 2734 2622 
Q 2975 2850 2975 3272 
Q 2975 3691 2734 3919 
Q 2494 4147 2053 4147 
L 1259 4147 
z
M 628 4666 
L 2053 4666 
Q 2838 4666 3239 4311 
Q 3641 3956 3641 3272 
Q 3641 2581 3239 2228 
Q 2838 1875 2053 1875 
L 1259 1875 
L 1259 0 
L 628 0 
L 628 4666 
z
" transform="scale(0.015625)"/>
       <path id="DejaVuSans-6f" d="M 1959 3097 
Q 1497 3097 1228 2736 
Q 959 2375 959 1747 
Q 959 1119 1226 758 
Q 1494 397 1959 397 
Q 2419 397 2687 759 
Q 2956 1122 2956 1747 
Q 2956 2369 2687 2733 
Q 2419 3097 1959 3097 
z
M 1959 3584 
Q 2709 3584 3137 3096 
Q 3566 2609 3566 1747 
Q 3566 888 3137 398 
Q 2709 -91 1959 -91 
Q 1206 -91 779 398 
Q 353 888 353 1747 
Q 353 2609 779 3096 
Q 1206 3584 1959 3584 
z
" transform="scale(0.015625)"/>
       <path id="DejaVuSans-6c" d="M 603 4863 
L 1178 4863 
L 1178 0 
L 603 0 
L 603 4863 
z
" transform="scale(0.015625)"/>
       <path id="DejaVuSans-69" d="M 603 3500 
L 1178 3500 
L 1178 0 
L 603 0 
L 603 3500 
z
M 603 4863 
L 1178 4863 
L 1178 4134 
L 603 4134 
L 603 4863 
z
" transform="scale(0.015625)"/>
       <path id="DejaVuSans-63" d="M 3122 3366 
L 3122 2828 
Q 2878 2963 2633 3030 
Q 2388 3097 2138 3097 
Q 1578 3097 1268 2742 
Q 959 2388 959 1747 
Q 959 1106 1268 751 
Q 1578 397 2138 397 
Q 2388 397 2633 464 
Q 2878 531 3122 666 
L 3122 134 
Q 2881 22 2623 -34 
Q 2366 -91 2075 -91 
Q 1284 -91 818 406 
Q 353 903 353 1747 
Q 353 2603 823 3093 
Q 1294 3584 2113 3584 
Q 2378 3584 2631 3529 
Q 2884 3475 3122 3366 
z
" transform="scale(0.015625)"/>
       <path id="DejaVuSans-79" d="M 2059 -325 
Q 1816 -950 1584 -1140 
Q 1353 -1331 966 -1331 
L 506 -1331 
L 506 -850 
L 844 -850 
Q 1081 -850 1212 -737 
Q 1344 -625 1503 -206 
L 1606 56 
L 191 3500 
L 800 3500 
L 1894 763 
L 2988 3500 
L 3597 3500 
L 2059 -325 
z
" transform="scale(0.015625)"/>
       <path id="DejaVuSans-20" transform="scale(0.015625)"/>
       <path id="DejaVuSans-76" d="M 191 3500 
L 800 3500 
L 1894 563 
L 2988 3500 
L 3597 3500 
L 2284 0 
L 1503 0 
L 191 3500 
z
" transform="scale(0.015625)"/>
       <path id="DejaVuSans-61" d="M 2194 1759 
Q 1497 1759 1228 1600 
Q 959 1441 959 1056 
Q 959 750 1161 570 
Q 1363 391 1709 391 
Q 2188 391 2477 730 
Q 2766 1069 2766 1631 
L 2766 1759 
L 2194 1759 
z
M 3341 1997 
L 3341 0 
L 2766 0 
L 2766 531 
Q 2569 213 2275 61 
Q 1981 -91 1556 -91 
Q 1019 -91 701 211 
Q 384 513 384 1019 
Q 384 1609 779 1909 
Q 1175 2209 1959 2209 
L 2766 2209 
L 2766 2266 
Q 2766 2663 2505 2880 
Q 2244 3097 1772 3097 
Q 1472 3097 1187 3025 
Q 903 2953 641 2809 
L 641 3341 
Q 956 3463 1253 3523 
Q 1550 3584 1831 3584 
Q 2591 3584 2966 3190 
Q 3341 2797 3341 1997 
z
" transform="scale(0.015625)"/>
       <path id="DejaVuSans-75" d="M 544 1381 
L 544 3500 
L 1119 3500 
L 1119 1403 
Q 1119 906 1312 657 
Q 1506 409 1894 409 
Q 2359 409 2629 706 
Q 2900 1003 2900 1516 
L 2900 3500 
L 3475 3500 
L 3475 0 
L 2900 0 
L 2900 538 
Q 2691 219 2414 64 
Q 2138 -91 1772 -91 
Q 1169 -91 856 284 
Q 544 659 544 1381 
z
M 1991 3584 
L 1991 3584 
z
" transform="scale(0.015625)"/>
       <path id="DejaVuSans-72" d="M 2631 2963 
Q 2534 3019 2420 3045 
Q 2306 3072 2169 3072 
Q 1681 3072 1420 2755 
Q 1159 2438 1159 1844 
L 1159 0 
L 581 0 
L 581 3500 
L 1159 3500 
L 1159 2956 
Q 1341 3275 1631 3429 
Q 1922 3584 2338 3584 
Q 2397 3584 2469 3576 
Q 2541 3569 2628 3553 
L 2631 2963 
z
" transform="scale(0.015625)"/>
      </defs>
      <use xlink:href="#DejaVuSans-50"/>
      <use xlink:href="#DejaVuSans-6f" x="56.677734"/>
      <use xlink:href="#DejaVuSans-6c" x="117.859375"/>
      <use xlink:href="#DejaVuSans-69" x="145.642578"/>
      <use xlink:href="#DejaVuSans-63" x="173.425781"/>
      <use xlink:href="#DejaVuSans-79" x="228.40625"/>
      <use xlink:href="#DejaVuSans-20" x="287.585938"/>
      <use xlink:href="#DejaVuSans-76" x="319.373047"/>
      <use xlink:href="#DejaVuSans-61" x="378.552734"/>
      <use xlink:href="#DejaVuSans-6c" x="439.832031"/>
      <use xlink:href="#DejaVuSans-75" x="467.615234"/>
      <use xlink:href="#DejaVuSans-65" x="530.994141"/>
      <use xlink:href="#DejaVuSans-20" x="592.517578"/>
      <use xlink:href="#DejaVuSans-65" x="624.304688"/>
      <use xlink:href="#DejaVuSans-72" x="685.828125"/>
      <use xlink:href="#DejaVuSans-72" x="725.191406"/>
      <use xlink:href="#DejaVuSans-6f" x="764.054688"/>
      <use xlink:href="#DejaVuSans-72" x="825.236328"/>
     </g>
    </g>
   </g>
   <g id="line2d_29">
    <path d="M 69.218182 253.455129 
L 74.376888 252.908818 
L 79.535593 252.908818 
L 84.694299 252.908818 
L 89.853005 253.079292 
L 95.01171 254.073765 
L 100.170416 262.580289 
L 105.329122 250.764528 
L 110.487827 252.351983 
L 115.646533 254.108363 
L 120.805239 253.575883 
L 125.963945 253.649244 
L 131.12265 252.914882 
L 136.281356 252.908818 
L 141.440062 253.617646 
L 146.598767 252.908818 
L 151.757473 252.968303 
L 156.916179 252.908818 
L 162.074884 253.260825 
L 167.23359 252.908818 
L 172.392296 252.925209 
L 177.551002 252.908818 
L 182.709707 253.62751 
L 187.868413 253.164844 
L 193.027119 254.534778 
L 198.185824 258.093013 
L 203.34453 223.204294 
L 208.503236 217.68127 
L 213.661941 218.371298 
L 218.820647 218.371298 
L 223.979353 217.949206 
L 229.138059 205.978205 
L 234.296764 205.978205 
L 239.45547 205.978205 
L 244.614176 45.413141 
L 249.772881 49.585206 
L 254.931587 49.439368 
L 260.090293 47.54597 
L 265.248998 47.245272 
L 270.407704 48.595158 
L 275.56641 47.245272 
L 280.725116 47.245272 
L 285.883821 47.245272 
L 291.042527 47.245272 
L 296.201233 47.245272 
L 301.359938 47.245272 
L 306.518644 47.245272 
L 311.67735 47.54597 
L 316.836055 47.098843 
L 321.994761 47.098843 
L 327.153467 47.54597 
L 332.312173 47.291952 
L 337.470878 47.291952 
L 342.629584 47.291952 
L 347.78829 49.332114 
L 352.946995 49.332114 
L 358.105701 49.332114 
L 363.264407 49.332114 
L 368.423112 49.332114 
L 373.581818 49.332114 
" clip-path="url(#pce5ab76c5e)" style="fill: none; stroke: #9d02d7; stroke-width: 1.5; stroke-linecap: square"/>
    <defs>
     <path id="m83821fb17b" d="M 0 -2 
L -2 2 
L 2 2 
z
" style="stroke: #9d02d7; stroke-linejoin: miter"/>
    </defs>
    <g clip-path="url(#pce5ab76c5e)">
     <use xlink:href="#m83821fb17b" x="69.218182" y="253.455129" style="fill: #9d02d7; stroke: #9d02d7; stroke-linejoin: miter"/>
     <use xlink:href="#m83821fb17b" x="74.376888" y="252.908818" style="fill: #9d02d7; stroke: #9d02d7; stroke-linejoin: miter"/>
     <use xlink:href="#m83821fb17b" x="79.535593" y="252.908818" style="fill: #9d02d7; stroke: #9d02d7; stroke-linejoin: miter"/>
     <use xlink:href="#m83821fb17b" x="84.694299" y="252.908818" style="fill: #9d02d7; stroke: #9d02d7; stroke-linejoin: miter"/>
     <use xlink:href="#m83821fb17b" x="89.853005" y="253.079292" style="fill: #9d02d7; stroke: #9d02d7; stroke-linejoin: miter"/>
     <use xlink:href="#m83821fb17b" x="95.01171" y="254.073765" style="fill: #9d02d7; stroke: #9d02d7; stroke-linejoin: miter"/>
     <use xlink:href="#m83821fb17b" x="100.170416" y="262.580289" style="fill: #9d02d7; stroke: #9d02d7; stroke-linejoin: miter"/>
     <use xlink:href="#m83821fb17b" x="105.329122" y="250.764528" style="fill: #9d02d7; stroke: #9d02d7; stroke-linejoin: miter"/>
     <use xlink:href="#m83821fb17b" x="110.487827" y="252.351983" style="fill: #9d02d7; stroke: #9d02d7; stroke-linejoin: miter"/>
     <use xlink:href="#m83821fb17b" x="115.646533" y="254.108363" style="fill: #9d02d7; stroke: #9d02d7; stroke-linejoin: miter"/>
     <use xlink:href="#m83821fb17b" x="120.805239" y="253.575883" style="fill: #9d02d7; stroke: #9d02d7; stroke-linejoin: miter"/>
     <use xlink:href="#m83821fb17b" x="125.963945" y="253.649244" style="fill: #9d02d7; stroke: #9d02d7; stroke-linejoin: miter"/>
     <use xlink:href="#m83821fb17b" x="131.12265" y="252.914882" style="fill: #9d02d7; stroke: #9d02d7; stroke-linejoin: miter"/>
     <use xlink:href="#m83821fb17b" x="136.281356" y="252.908818" style="fill: #9d02d7; stroke: #9d02d7; stroke-linejoin: miter"/>
     <use xlink:href="#m83821fb17b" x="141.440062" y="253.617646" style="fill: #9d02d7; stroke: #9d02d7; stroke-linejoin: miter"/>
     <use xlink:href="#m83821fb17b" x="146.598767" y="252.908818" style="fill: #9d02d7; stroke: #9d02d7; stroke-linejoin: miter"/>
     <use xlink:href="#m83821fb17b" x="151.757473" y="252.968303" style="fill: #9d02d7; stroke: #9d02d7; stroke-linejoin: miter"/>
     <use xlink:href="#m83821fb17b" x="156.916179" y="252.908818" style="fill: #9d02d7; stroke: #9d02d7; stroke-linejoin: miter"/>
     <use xlink:href="#m83821fb17b" x="162.074884" y="253.260825" style="fill: #9d02d7; stroke: #9d02d7; stroke-linejoin: miter"/>
     <use xlink:href="#m83821fb17b" x="167.23359" y="252.908818" style="fill: #9d02d7; stroke: #9d02d7; stroke-linejoin: miter"/>
     <use xlink:href="#m83821fb17b" x="172.392296" y="252.925209" style="fill: #9d02d7; stroke: #9d02d7; stroke-linejoin: miter"/>
     <use xlink:href="#m83821fb17b" x="177.551002" y="252.908818" style="fill: #9d02d7; stroke: #9d02d7; stroke-linejoin: miter"/>
     <use xlink:href="#m83821fb17b" x="182.709707" y="253.62751" style="fill: #9d02d7; stroke: #9d02d7; stroke-linejoin: miter"/>
     <use xlink:href="#m83821fb17b" x="187.868413" y="253.164844" style="fill: #9d02d7; stroke: #9d02d7; stroke-linejoin: miter"/>
     <use xlink:href="#m83821fb17b" x="193.027119" y="254.534778" style="fill: #9d02d7; stroke: #9d02d7; stroke-linejoin: miter"/>
     <use xlink:href="#m83821fb17b" x="198.185824" y="258.093013" style="fill: #9d02d7; stroke: #9d02d7; stroke-linejoin: miter"/>
     <use xlink:href="#m83821fb17b" x="203.34453" y="223.204294" style="fill: #9d02d7; stroke: #9d02d7; stroke-linejoin: miter"/>
     <use xlink:href="#m83821fb17b" x="208.503236" y="217.68127" style="fill: #9d02d7; stroke: #9d02d7; stroke-linejoin: miter"/>
     <use xlink:href="#m83821fb17b" x="213.661941" y="218.371298" style="fill: #9d02d7; stroke: #9d02d7; stroke-linejoin: miter"/>
     <use xlink:href="#m83821fb17b" x="218.820647" y="218.371298" style="fill: #9d02d7; stroke: #9d02d7; stroke-linejoin: miter"/>
     <use xlink:href="#m83821fb17b" x="223.979353" y="217.949206" style="fill: #9d02d7; stroke: #9d02d7; stroke-linejoin: miter"/>
     <use xlink:href="#m83821fb17b" x="229.138059" y="205.978205" style="fill: #9d02d7; stroke: #9d02d7; stroke-linejoin: miter"/>
     <use xlink:href="#m83821fb17b" x="234.296764" y="205.978205" style="fill: #9d02d7; stroke: #9d02d7; stroke-linejoin: miter"/>
     <use xlink:href="#m83821fb17b" x="239.45547" y="205.978205" style="fill: #9d02d7; stroke: #9d02d7; stroke-linejoin: miter"/>
     <use xlink:href="#m83821fb17b" x="244.614176" y="45.413141" style="fill: #9d02d7; stroke: #9d02d7; stroke-linejoin: miter"/>
     <use xlink:href="#m83821fb17b" x="249.772881" y="49.585206" style="fill: #9d02d7; stroke: #9d02d7; stroke-linejoin: miter"/>
     <use xlink:href="#m83821fb17b" x="254.931587" y="49.439368" style="fill: #9d02d7; stroke: #9d02d7; stroke-linejoin: miter"/>
     <use xlink:href="#m83821fb17b" x="260.090293" y="47.54597" style="fill: #9d02d7; stroke: #9d02d7; stroke-linejoin: miter"/>
     <use xlink:href="#m83821fb17b" x="265.248998" y="47.245272" style="fill: #9d02d7; stroke: #9d02d7; stroke-linejoin: miter"/>
     <use xlink:href="#m83821fb17b" x="270.407704" y="48.595158" style="fill: #9d02d7; stroke: #9d02d7; stroke-linejoin: miter"/>
     <use xlink:href="#m83821fb17b" x="275.56641" y="47.245272" style="fill: #9d02d7; stroke: #9d02d7; stroke-linejoin: miter"/>
     <use xlink:href="#m83821fb17b" x="280.725116" y="47.245272" style="fill: #9d02d7; stroke: #9d02d7; stroke-linejoin: miter"/>
     <use xlink:href="#m83821fb17b" x="285.883821" y="47.245272" style="fill: #9d02d7; stroke: #9d02d7; stroke-linejoin: miter"/>
     <use xlink:href="#m83821fb17b" x="291.042527" y="47.245272" style="fill: #9d02d7; stroke: #9d02d7; stroke-linejoin: miter"/>
     <use xlink:href="#m83821fb17b" x="296.201233" y="47.245272" style="fill: #9d02d7; stroke: #9d02d7; stroke-linejoin: miter"/>
     <use xlink:href="#m83821fb17b" x="301.359938" y="47.245272" style="fill: #9d02d7; stroke: #9d02d7; stroke-linejoin: miter"/>
     <use xlink:href="#m83821fb17b" x="306.518644" y="47.245272" style="fill: #9d02d7; stroke: #9d02d7; stroke-linejoin: miter"/>
     <use xlink:href="#m83821fb17b" x="311.67735" y="47.54597" style="fill: #9d02d7; stroke: #9d02d7; stroke-linejoin: miter"/>
     <use xlink:href="#m83821fb17b" x="316.836055" y="47.098843" style="fill: #9d02d7; stroke: #9d02d7; stroke-linejoin: miter"/>
     <use xlink:href="#m83821fb17b" x="321.994761" y="47.098843" style="fill: #9d02d7; stroke: #9d02d7; stroke-linejoin: miter"/>
     <use xlink:href="#m83821fb17b" x="327.153467" y="47.54597" style="fill: #9d02d7; stroke: #9d02d7; stroke-linejoin: miter"/>
     <use xlink:href="#m83821fb17b" x="332.312173" y="47.291952" style="fill: #9d02d7; stroke: #9d02d7; stroke-linejoin: miter"/>
     <use xlink:href="#m83821fb17b" x="337.470878" y="47.291952" style="fill: #9d02d7; stroke: #9d02d7; stroke-linejoin: miter"/>
     <use xlink:href="#m83821fb17b" x="342.629584" y="47.291952" style="fill: #9d02d7; stroke: #9d02d7; stroke-linejoin: miter"/>
     <use xlink:href="#m83821fb17b" x="347.78829" y="49.332114" style="fill: #9d02d7; stroke: #9d02d7; stroke-linejoin: miter"/>
     <use xlink:href="#m83821fb17b" x="352.946995" y="49.332114" style="fill: #9d02d7; stroke: #9d02d7; stroke-linejoin: miter"/>
     <use xlink:href="#m83821fb17b" x="358.105701" y="49.332114" style="fill: #9d02d7; stroke: #9d02d7; stroke-linejoin: miter"/>
     <use xlink:href="#m83821fb17b" x="363.264407" y="49.332114" style="fill: #9d02d7; stroke: #9d02d7; stroke-linejoin: miter"/>
     <use xlink:href="#m83821fb17b" x="368.423112" y="49.332114" style="fill: #9d02d7; stroke: #9d02d7; stroke-linejoin: miter"/>
     <use xlink:href="#m83821fb17b" x="373.581818" y="49.332114" style="fill: #9d02d7; stroke: #9d02d7; stroke-linejoin: miter"/>
    </g>
   </g>
   <g id="line2d_30">
    <path d="M 69.218182 254.129478 
L 74.376888 253.309321 
L 79.535593 253.01752 
L 84.694299 253.992656 
L 89.853005 262.051807 
L 95.01171 252.908818 
L 100.170416 252.908818 
L 105.329122 254.267628 
L 110.487827 259.345074 
L 115.646533 258.337708 
L 120.805239 260.508893 
L 125.963945 269.905081 
L 131.12265 268.373327 
L 136.281356 258.157642 
L 141.440062 259.510352 
L 146.598767 268.392004 
L 151.757473 261.474016 
L 156.916179 262.207664 
L 162.074884 263.546964 
L 167.23359 258.867586 
L 172.392296 269.346646 
L 177.551002 253.141672 
L 182.709707 255.289289 
L 187.868413 254.093227 
L 193.027119 252.9396 
L 198.185824 252.982442 
L 203.34453 254.228862 
L 208.503236 257.264018 
L 213.661941 249.877673 
L 218.820647 252.908818 
L 223.979353 228.586309 
L 229.138059 256.96104 
L 234.296764 252.995261 
L 239.45547 252.928004 
L 244.614176 265.222558 
L 249.772881 252.979753 
L 254.931587 252.974761 
L 260.090293 252.983158 
L 265.248998 253.609308 
L 270.407704 253.155764 
L 275.56641 252.908818 
L 280.725116 235.783567 
L 285.883821 235.773367 
L 291.042527 236.383928 
L 296.201233 90.105633 
L 301.359938 237.580742 
L 306.518644 238.122752 
L 311.67735 116.862624 
L 316.836055 240.711761 
L 321.994761 87.001474 
L 327.153467 92.682227 
L 332.312173 211.077513 
L 337.470878 92.580568 
L 342.629584 240.71245 
L 347.78829 211.047716 
L 352.946995 85.045684 
L 358.105701 211.047536 
L 363.264407 85.456765 
L 368.423112 236.910454 
L 373.581818 87.000742 
" clip-path="url(#pce5ab76c5e)" style="fill: none; stroke: #0000ff; stroke-width: 1.5; stroke-linecap: square"/>
    <defs>
     <path id="me6fc370e91" d="M 0 2 
C 0.530406 2 1.03916 1.789267 1.414214 1.414214 
C 1.789267 1.03916 2 0.530406 2 0 
C 2 -0.530406 1.789267 -1.03916 1.414214 -1.414214 
C 1.03916 -1.789267 0.530406 -2 0 -2 
C -0.530406 -2 -1.03916 -1.789267 -1.414214 -1.414214 
C -1.789267 -1.03916 -2 -0.530406 -2 0 
C -2 0.530406 -1.789267 1.03916 -1.414214 1.414214 
C -1.03916 1.789267 -0.530406 2 0 2 
z
" style="stroke: #0000ff"/>
    </defs>
    <g clip-path="url(#pce5ab76c5e)">
     <use xlink:href="#me6fc370e91" x="69.218182" y="254.129478" style="fill: #0000ff; stroke: #0000ff"/>
     <use xlink:href="#me6fc370e91" x="74.376888" y="253.309321" style="fill: #0000ff; stroke: #0000ff"/>
     <use xlink:href="#me6fc370e91" x="79.535593" y="253.01752" style="fill: #0000ff; stroke: #0000ff"/>
     <use xlink:href="#me6fc370e91" x="84.694299" y="253.992656" style="fill: #0000ff; stroke: #0000ff"/>
     <use xlink:href="#me6fc370e91" x="89.853005" y="262.051807" style="fill: #0000ff; stroke: #0000ff"/>
     <use xlink:href="#me6fc370e91" x="95.01171" y="252.908818" style="fill: #0000ff; stroke: #0000ff"/>
     <use xlink:href="#me6fc370e91" x="100.170416" y="252.908818" style="fill: #0000ff; stroke: #0000ff"/>
     <use xlink:href="#me6fc370e91" x="105.329122" y="254.267628" style="fill: #0000ff; stroke: #0000ff"/>
     <use xlink:href="#me6fc370e91" x="110.487827" y="259.345074" style="fill: #0000ff; stroke: #0000ff"/>
     <use xlink:href="#me6fc370e91" x="115.646533" y="258.337708" style="fill: #0000ff; stroke: #0000ff"/>
     <use xlink:href="#me6fc370e91" x="120.805239" y="260.508893" style="fill: #0000ff; stroke: #0000ff"/>
     <use xlink:href="#me6fc370e91" x="125.963945" y="269.905081" style="fill: #0000ff; stroke: #0000ff"/>
     <use xlink:href="#me6fc370e91" x="131.12265" y="268.373327" style="fill: #0000ff; stroke: #0000ff"/>
     <use xlink:href="#me6fc370e91" x="136.281356" y="258.157642" style="fill: #0000ff; stroke: #0000ff"/>
     <use xlink:href="#me6fc370e91" x="141.440062" y="259.510352" style="fill: #0000ff; stroke: #0000ff"/>
     <use xlink:href="#me6fc370e91" x="146.598767" y="268.392004" style="fill: #0000ff; stroke: #0000ff"/>
     <use xlink:href="#me6fc370e91" x="151.757473" y="261.474016" style="fill: #0000ff; stroke: #0000ff"/>
     <use xlink:href="#me6fc370e91" x="156.916179" y="262.207664" style="fill: #0000ff; stroke: #0000ff"/>
     <use xlink:href="#me6fc370e91" x="162.074884" y="263.546964" style="fill: #0000ff; stroke: #0000ff"/>
     <use xlink:href="#me6fc370e91" x="167.23359" y="258.867586" style="fill: #0000ff; stroke: #0000ff"/>
     <use xlink:href="#me6fc370e91" x="172.392296" y="269.346646" style="fill: #0000ff; stroke: #0000ff"/>
     <use xlink:href="#me6fc370e91" x="177.551002" y="253.141672" style="fill: #0000ff; stroke: #0000ff"/>
     <use xlink:href="#me6fc370e91" x="182.709707" y="255.289289" style="fill: #0000ff; stroke: #0000ff"/>
     <use xlink:href="#me6fc370e91" x="187.868413" y="254.093227" style="fill: #0000ff; stroke: #0000ff"/>
     <use xlink:href="#me6fc370e91" x="193.027119" y="252.9396" style="fill: #0000ff; stroke: #0000ff"/>
     <use xlink:href="#me6fc370e91" x="198.185824" y="252.982442" style="fill: #0000ff; stroke: #0000ff"/>
     <use xlink:href="#me6fc370e91" x="203.34453" y="254.228862" style="fill: #0000ff; stroke: #0000ff"/>
     <use xlink:href="#me6fc370e91" x="208.503236" y="257.264018" style="fill: #0000ff; stroke: #0000ff"/>
     <use xlink:href="#me6fc370e91" x="213.661941" y="249.877673" style="fill: #0000ff; stroke: #0000ff"/>
     <use xlink:href="#me6fc370e91" x="218.820647" y="252.908818" style="fill: #0000ff; stroke: #0000ff"/>
     <use xlink:href="#me6fc370e91" x="223.979353" y="228.586309" style="fill: #0000ff; stroke: #0000ff"/>
     <use xlink:href="#me6fc370e91" x="229.138059" y="256.96104" style="fill: #0000ff; stroke: #0000ff"/>
     <use xlink:href="#me6fc370e91" x="234.296764" y="252.995261" style="fill: #0000ff; stroke: #0000ff"/>
     <use xlink:href="#me6fc370e91" x="239.45547" y="252.928004" style="fill: #0000ff; stroke: #0000ff"/>
     <use xlink:href="#me6fc370e91" x="244.614176" y="265.222558" style="fill: #0000ff; stroke: #0000ff"/>
     <use xlink:href="#me6fc370e91" x="249.772881" y="252.979753" style="fill: #0000ff; stroke: #0000ff"/>
     <use xlink:href="#me6fc370e91" x="254.931587" y="252.974761" style="fill: #0000ff; stroke: #0000ff"/>
     <use xlink:href="#me6fc370e91" x="260.090293" y="252.983158" style="fill: #0000ff; stroke: #0000ff"/>
     <use xlink:href="#me6fc370e91" x="265.248998" y="253.609308" style="fill: #0000ff; stroke: #0000ff"/>
     <use xlink:href="#me6fc370e91" x="270.407704" y="253.155764" style="fill: #0000ff; stroke: #0000ff"/>
     <use xlink:href="#me6fc370e91" x="275.56641" y="252.908818" style="fill: #0000ff; stroke: #0000ff"/>
     <use xlink:href="#me6fc370e91" x="280.725116" y="235.783567" style="fill: #0000ff; stroke: #0000ff"/>
     <use xlink:href="#me6fc370e91" x="285.883821" y="235.773367" style="fill: #0000ff; stroke: #0000ff"/>
     <use xlink:href="#me6fc370e91" x="291.042527" y="236.383928" style="fill: #0000ff; stroke: #0000ff"/>
     <use xlink:href="#me6fc370e91" x="296.201233" y="90.105633" style="fill: #0000ff; stroke: #0000ff"/>
     <use xlink:href="#me6fc370e91" x="301.359938" y="237.580742" style="fill: #0000ff; stroke: #0000ff"/>
     <use xlink:href="#me6fc370e91" x="306.518644" y="238.122752" style="fill: #0000ff; stroke: #0000ff"/>
     <use xlink:href="#me6fc370e91" x="311.67735" y="116.862624" style="fill: #0000ff; stroke: #0000ff"/>
     <use xlink:href="#me6fc370e91" x="316.836055" y="240.711761" style="fill: #0000ff; stroke: #0000ff"/>
     <use xlink:href="#me6fc370e91" x="321.994761" y="87.001474" style="fill: #0000ff; stroke: #0000ff"/>
     <use xlink:href="#me6fc370e91" x="327.153467" y="92.682227" style="fill: #0000ff; stroke: #0000ff"/>
     <use xlink:href="#me6fc370e91" x="332.312173" y="211.077513" style="fill: #0000ff; stroke: #0000ff"/>
     <use xlink:href="#me6fc370e91" x="337.470878" y="92.580568" style="fill: #0000ff; stroke: #0000ff"/>
     <use xlink:href="#me6fc370e91" x="342.629584" y="240.71245" style="fill: #0000ff; stroke: #0000ff"/>
     <use xlink:href="#me6fc370e91" x="347.78829" y="211.047716" style="fill: #0000ff; stroke: #0000ff"/>
     <use xlink:href="#me6fc370e91" x="352.946995" y="85.045684" style="fill: #0000ff; stroke: #0000ff"/>
     <use xlink:href="#me6fc370e91" x="358.105701" y="211.047536" style="fill: #0000ff; stroke: #0000ff"/>
     <use xlink:href="#me6fc370e91" x="363.264407" y="85.456765" style="fill: #0000ff; stroke: #0000ff"/>
     <use xlink:href="#me6fc370e91" x="368.423112" y="236.910454" style="fill: #0000ff; stroke: #0000ff"/>
     <use xlink:href="#me6fc370e91" x="373.581818" y="87.000742" style="fill: #0000ff; stroke: #0000ff"/>
    </g>
   </g>
   <g id="line2d_31">
    <path d="M 69.218182 264.75581 
L 74.376888 260.543148 
L 79.535593 253.295595 
L 84.694299 252.908818 
L 89.853005 252.908818 
L 95.01171 253.541756 
L 100.170416 252.908818 
L 105.329122 252.908818 
L 110.487827 252.908818 
L 115.646533 255.609529 
L 120.805239 252.716368 
L 125.963945 252.961283 
L 131.12265 257.21323 
L 136.281356 254.737248 
L 141.440062 252.908818 
L 146.598767 253.403274 
L 151.757473 256.602556 
L 156.916179 255.036266 
L 162.074884 253.143845 
L 167.23359 250.008455 
L 172.392296 253.041164 
L 177.551002 252.908818 
L 182.709707 252.908818 
L 187.868413 252.908818 
L 193.027119 263.26872 
L 198.185824 252.861797 
L 203.34453 216.205768 
L 208.503236 256.267575 
L 213.661941 266.315712 
L 218.820647 252.908818 
L 223.979353 252.908818 
L 229.138059 256.174431 
L 234.296764 254.017369 
L 239.45547 252.980702 
L 244.614176 252.908818 
L 249.772881 184.567148 
L 254.931587 252.106254 
L 260.090293 195.331038 
L 265.248998 153.62894 
L 270.407704 152.526591 
L 275.56641 177.167943 
L 280.725116 171.840234 
L 285.883821 171.704333 
L 291.042527 171.730912 
L 296.201233 177.603964 
L 301.359938 171.610419 
L 306.518644 177.641851 
L 311.67735 171.765745 
L 316.836055 171.620861 
L 321.994761 171.476875 
L 327.153467 171.717712 
L 332.312173 180.08335 
L 337.470878 154.702413 
L 342.629584 162.734038 
L 347.78829 153.761791 
L 352.946995 162.684541 
L 358.105701 153.962467 
L 363.264407 152.22987 
L 368.423112 153.696692 
L 373.581818 152.00674 
" clip-path="url(#pce5ab76c5e)" style="fill: none; stroke: #ff7763; stroke-width: 1.5; stroke-linecap: square"/>
    <defs>
     <path id="m5041dceb76" d="M -2 2 
L 2 -2 
M -2 -2 
L 2 2 
" style="stroke: #ff7763"/>
    </defs>
    <g clip-path="url(#pce5ab76c5e)">
     <use xlink:href="#m5041dceb76" x="69.218182" y="264.75581" style="fill: #ff7763; stroke: #ff7763"/>
     <use xlink:href="#m5041dceb76" x="74.376888" y="260.543148" style="fill: #ff7763; stroke: #ff7763"/>
     <use xlink:href="#m5041dceb76" x="79.535593" y="253.295595" style="fill: #ff7763; stroke: #ff7763"/>
     <use xlink:href="#m5041dceb76" x="84.694299" y="252.908818" style="fill: #ff7763; stroke: #ff7763"/>
     <use xlink:href="#m5041dceb76" x="89.853005" y="252.908818" style="fill: #ff7763; stroke: #ff7763"/>
     <use xlink:href="#m5041dceb76" x="95.01171" y="253.541756" style="fill: #ff7763; stroke: #ff7763"/>
     <use xlink:href="#m5041dceb76" x="100.170416" y="252.908818" style="fill: #ff7763; stroke: #ff7763"/>
     <use xlink:href="#m5041dceb76" x="105.329122" y="252.908818" style="fill: #ff7763; stroke: #ff7763"/>
     <use xlink:href="#m5041dceb76" x="110.487827" y="252.908818" style="fill: #ff7763; stroke: #ff7763"/>
     <use xlink:href="#m5041dceb76" x="115.646533" y="255.609529" style="fill: #ff7763; stroke: #ff7763"/>
     <use xlink:href="#m5041dceb76" x="120.805239" y="252.716368" style="fill: #ff7763; stroke: #ff7763"/>
     <use xlink:href="#m5041dceb76" x="125.963945" y="252.961283" style="fill: #ff7763; stroke: #ff7763"/>
     <use xlink:href="#m5041dceb76" x="131.12265" y="257.21323" style="fill: #ff7763; stroke: #ff7763"/>
     <use xlink:href="#m5041dceb76" x="136.281356" y="254.737248" style="fill: #ff7763; stroke: #ff7763"/>
     <use xlink:href="#m5041dceb76" x="141.440062" y="252.908818" style="fill: #ff7763; stroke: #ff7763"/>
     <use xlink:href="#m5041dceb76" x="146.598767" y="253.403274" style="fill: #ff7763; stroke: #ff7763"/>
     <use xlink:href="#m5041dceb76" x="151.757473" y="256.602556" style="fill: #ff7763; stroke: #ff7763"/>
     <use xlink:href="#m5041dceb76" x="156.916179" y="255.036266" style="fill: #ff7763; stroke: #ff7763"/>
     <use xlink:href="#m5041dceb76" x="162.074884" y="253.143845" style="fill: #ff7763; stroke: #ff7763"/>
     <use xlink:href="#m5041dceb76" x="167.23359" y="250.008455" style="fill: #ff7763; stroke: #ff7763"/>
     <use xlink:href="#m5041dceb76" x="172.392296" y="253.041164" style="fill: #ff7763; stroke: #ff7763"/>
     <use xlink:href="#m5041dceb76" x="177.551002" y="252.908818" style="fill: #ff7763; stroke: #ff7763"/>
     <use xlink:href="#m5041dceb76" x="182.709707" y="252.908818" style="fill: #ff7763; stroke: #ff7763"/>
     <use xlink:href="#m5041dceb76" x="187.868413" y="252.908818" style="fill: #ff7763; stroke: #ff7763"/>
     <use xlink:href="#m5041dceb76" x="193.027119" y="263.26872" style="fill: #ff7763; stroke: #ff7763"/>
     <use xlink:href="#m5041dceb76" x="198.185824" y="252.861797" style="fill: #ff7763; stroke: #ff7763"/>
     <use xlink:href="#m5041dceb76" x="203.34453" y="216.205768" style="fill: #ff7763; stroke: #ff7763"/>
     <use xlink:href="#m5041dceb76" x="208.503236" y="256.267575" style="fill: #ff7763; stroke: #ff7763"/>
     <use xlink:href="#m5041dceb76" x="213.661941" y="266.315712" style="fill: #ff7763; stroke: #ff7763"/>
     <use xlink:href="#m5041dceb76" x="218.820647" y="252.908818" style="fill: #ff7763; stroke: #ff7763"/>
     <use xlink:href="#m5041dceb76" x="223.979353" y="252.908818" style="fill: #ff7763; stroke: #ff7763"/>
     <use xlink:href="#m5041dceb76" x="229.138059" y="256.174431" style="fill: #ff7763; stroke: #ff7763"/>
     <use xlink:href="#m5041dceb76" x="234.296764" y="254.017369" style="fill: #ff7763; stroke: #ff7763"/>
     <use xlink:href="#m5041dceb76" x="239.45547" y="252.980702" style="fill: #ff7763; stroke: #ff7763"/>
     <use xlink:href="#m5041dceb76" x="244.614176" y="252.908818" style="fill: #ff7763; stroke: #ff7763"/>
     <use xlink:href="#m5041dceb76" x="249.772881" y="184.567148" style="fill: #ff7763; stroke: #ff7763"/>
     <use xlink:href="#m5041dceb76" x="254.931587" y="252.106254" style="fill: #ff7763; stroke: #ff7763"/>
     <use xlink:href="#m5041dceb76" x="260.090293" y="195.331038" style="fill: #ff7763; stroke: #ff7763"/>
     <use xlink:href="#m5041dceb76" x="265.248998" y="153.62894" style="fill: #ff7763; stroke: #ff7763"/>
     <use xlink:href="#m5041dceb76" x="270.407704" y="152.526591" style="fill: #ff7763; stroke: #ff7763"/>
     <use xlink:href="#m5041dceb76" x="275.56641" y="177.167943" style="fill: #ff7763; stroke: #ff7763"/>
     <use xlink:href="#m5041dceb76" x="280.725116" y="171.840234" style="fill: #ff7763; stroke: #ff7763"/>
     <use xlink:href="#m5041dceb76" x="285.883821" y="171.704333" style="fill: #ff7763; stroke: #ff7763"/>
     <use xlink:href="#m5041dceb76" x="291.042527" y="171.730912" style="fill: #ff7763; stroke: #ff7763"/>
     <use xlink:href="#m5041dceb76" x="296.201233" y="177.603964" style="fill: #ff7763; stroke: #ff7763"/>
     <use xlink:href="#m5041dceb76" x="301.359938" y="171.610419" style="fill: #ff7763; stroke: #ff7763"/>
     <use xlink:href="#m5041dceb76" x="306.518644" y="177.641851" style="fill: #ff7763; stroke: #ff7763"/>
     <use xlink:href="#m5041dceb76" x="311.67735" y="171.765745" style="fill: #ff7763; stroke: #ff7763"/>
     <use xlink:href="#m5041dceb76" x="316.836055" y="171.620861" style="fill: #ff7763; stroke: #ff7763"/>
     <use xlink:href="#m5041dceb76" x="321.994761" y="171.476875" style="fill: #ff7763; stroke: #ff7763"/>
     <use xlink:href="#m5041dceb76" x="327.153467" y="171.717712" style="fill: #ff7763; stroke: #ff7763"/>
     <use xlink:href="#m5041dceb76" x="332.312173" y="180.08335" style="fill: #ff7763; stroke: #ff7763"/>
     <use xlink:href="#m5041dceb76" x="337.470878" y="154.702413" style="fill: #ff7763; stroke: #ff7763"/>
     <use xlink:href="#m5041dceb76" x="342.629584" y="162.734038" style="fill: #ff7763; stroke: #ff7763"/>
     <use xlink:href="#m5041dceb76" x="347.78829" y="153.761791" style="fill: #ff7763; stroke: #ff7763"/>
     <use xlink:href="#m5041dceb76" x="352.946995" y="162.684541" style="fill: #ff7763; stroke: #ff7763"/>
     <use xlink:href="#m5041dceb76" x="358.105701" y="153.962467" style="fill: #ff7763; stroke: #ff7763"/>
     <use xlink:href="#m5041dceb76" x="363.264407" y="152.22987" style="fill: #ff7763; stroke: #ff7763"/>
     <use xlink:href="#m5041dceb76" x="368.423112" y="153.696692" style="fill: #ff7763; stroke: #ff7763"/>
     <use xlink:href="#m5041dceb76" x="373.581818" y="152.00674" style="fill: #ff7763; stroke: #ff7763"/>
    </g>
   </g>
   <g id="line2d_32">
    <path d="M 69.218182 254.456078 
L 74.376888 252.908818 
L 79.535593 253.450588 
L 84.694299 253.245656 
L 89.853005 253.051607 
L 95.01171 253.859742 
L 100.170416 252.983207 
L 105.329122 252.982715 
L 110.487827 252.908818 
L 115.646533 253.178134 
L 120.805239 252.908818 
L 125.963945 253.139543 
L 131.12265 143.645267 
L 136.281356 145.188395 
L 141.440062 135.529582 
L 146.598767 124.564868 
L 151.757473 207.150641 
L 156.916179 238.362145 
L 162.074884 131.304547 
L 167.23359 134.217039 
L 172.392296 103.42477 
L 177.551002 234.901423 
L 182.709707 221.970915 
L 187.868413 235.796 
L 193.027119 233.153042 
L 198.185824 235.868098 
L 203.34453 222.842043 
L 208.503236 217.075761 
L 213.661941 235.856595 
L 218.820647 224.867176 
L 223.979353 227.130027 
L 229.138059 226.718423 
L 234.296764 227.8194 
L 239.45547 219.377581 
L 244.614176 102.574255 
L 249.772881 209.2062 
L 254.931587 216.938657 
L 260.090293 220.918689 
L 265.248998 122.112538 
L 270.407704 115.872562 
L 275.56641 204.749639 
L 280.725116 119.381622 
L 285.883821 217.421406 
L 291.042527 216.65357 
L 296.201233 229.650929 
L 301.359938 210.380771 
L 306.518644 217.333718 
L 311.67735 206.823736 
L 316.836055 225.673048 
L 321.994761 219.386811 
L 327.153467 213.50502 
L 332.312173 213.21442 
L 337.470878 207.607872 
L 342.629584 233.155235 
L 347.78829 215.136991 
L 352.946995 210.7344 
L 358.105701 217.463309 
L 363.264407 221.667231 
L 368.423112 232.961687 
L 373.581818 223.143942 
" clip-path="url(#pce5ab76c5e)" style="fill: none; stroke: #ffac1e; stroke-width: 1.5; stroke-linecap: square"/>
    <defs>
     <path id="mb1333fba43" d="M 0 -2 
L -0.449028 -0.618034 
L -1.902113 -0.618034 
L -0.726543 0.236068 
L -1.175571 1.618034 
L -0 0.763932 
L 1.175571 1.618034 
L 0.726543 0.236068 
L 1.902113 -0.618034 
L 0.449028 -0.618034 
z
" style="stroke: #ffac1e; stroke-linejoin: bevel"/>
    </defs>
    <g clip-path="url(#pce5ab76c5e)">
     <use xlink:href="#mb1333fba43" x="69.218182" y="254.456078" style="fill: #ffac1e; stroke: #ffac1e; stroke-linejoin: bevel"/>
     <use xlink:href="#mb1333fba43" x="74.376888" y="252.908818" style="fill: #ffac1e; stroke: #ffac1e; stroke-linejoin: bevel"/>
     <use xlink:href="#mb1333fba43" x="79.535593" y="253.450588" style="fill: #ffac1e; stroke: #ffac1e; stroke-linejoin: bevel"/>
     <use xlink:href="#mb1333fba43" x="84.694299" y="253.245656" style="fill: #ffac1e; stroke: #ffac1e; stroke-linejoin: bevel"/>
     <use xlink:href="#mb1333fba43" x="89.853005" y="253.051607" style="fill: #ffac1e; stroke: #ffac1e; stroke-linejoin: bevel"/>
     <use xlink:href="#mb1333fba43" x="95.01171" y="253.859742" style="fill: #ffac1e; stroke: #ffac1e; stroke-linejoin: bevel"/>
     <use xlink:href="#mb1333fba43" x="100.170416" y="252.983207" style="fill: #ffac1e; stroke: #ffac1e; stroke-linejoin: bevel"/>
     <use xlink:href="#mb1333fba43" x="105.329122" y="252.982715" style="fill: #ffac1e; stroke: #ffac1e; stroke-linejoin: bevel"/>
     <use xlink:href="#mb1333fba43" x="110.487827" y="252.908818" style="fill: #ffac1e; stroke: #ffac1e; stroke-linejoin: bevel"/>
     <use xlink:href="#mb1333fba43" x="115.646533" y="253.178134" style="fill: #ffac1e; stroke: #ffac1e; stroke-linejoin: bevel"/>
     <use xlink:href="#mb1333fba43" x="120.805239" y="252.908818" style="fill: #ffac1e; stroke: #ffac1e; stroke-linejoin: bevel"/>
     <use xlink:href="#mb1333fba43" x="125.963945" y="253.139543" style="fill: #ffac1e; stroke: #ffac1e; stroke-linejoin: bevel"/>
     <use xlink:href="#mb1333fba43" x="131.12265" y="143.645267" style="fill: #ffac1e; stroke: #ffac1e; stroke-linejoin: bevel"/>
     <use xlink:href="#mb1333fba43" x="136.281356" y="145.188395" style="fill: #ffac1e; stroke: #ffac1e; stroke-linejoin: bevel"/>
     <use xlink:href="#mb1333fba43" x="141.440062" y="135.529582" style="fill: #ffac1e; stroke: #ffac1e; stroke-linejoin: bevel"/>
     <use xlink:href="#mb1333fba43" x="146.598767" y="124.564868" style="fill: #ffac1e; stroke: #ffac1e; stroke-linejoin: bevel"/>
     <use xlink:href="#mb1333fba43" x="151.757473" y="207.150641" style="fill: #ffac1e; stroke: #ffac1e; stroke-linejoin: bevel"/>
     <use xlink:href="#mb1333fba43" x="156.916179" y="238.362145" style="fill: #ffac1e; stroke: #ffac1e; stroke-linejoin: bevel"/>
     <use xlink:href="#mb1333fba43" x="162.074884" y="131.304547" style="fill: #ffac1e; stroke: #ffac1e; stroke-linejoin: bevel"/>
     <use xlink:href="#mb1333fba43" x="167.23359" y="134.217039" style="fill: #ffac1e; stroke: #ffac1e; stroke-linejoin: bevel"/>
     <use xlink:href="#mb1333fba43" x="172.392296" y="103.42477" style="fill: #ffac1e; stroke: #ffac1e; stroke-linejoin: bevel"/>
     <use xlink:href="#mb1333fba43" x="177.551002" y="234.901423" style="fill: #ffac1e; stroke: #ffac1e; stroke-linejoin: bevel"/>
     <use xlink:href="#mb1333fba43" x="182.709707" y="221.970915" style="fill: #ffac1e; stroke: #ffac1e; stroke-linejoin: bevel"/>
     <use xlink:href="#mb1333fba43" x="187.868413" y="235.796" style="fill: #ffac1e; stroke: #ffac1e; stroke-linejoin: bevel"/>
     <use xlink:href="#mb1333fba43" x="193.027119" y="233.153042" style="fill: #ffac1e; stroke: #ffac1e; stroke-linejoin: bevel"/>
     <use xlink:href="#mb1333fba43" x="198.185824" y="235.868098" style="fill: #ffac1e; stroke: #ffac1e; stroke-linejoin: bevel"/>
     <use xlink:href="#mb1333fba43" x="203.34453" y="222.842043" style="fill: #ffac1e; stroke: #ffac1e; stroke-linejoin: bevel"/>
     <use xlink:href="#mb1333fba43" x="208.503236" y="217.075761" style="fill: #ffac1e; stroke: #ffac1e; stroke-linejoin: bevel"/>
     <use xlink:href="#mb1333fba43" x="213.661941" y="235.856595" style="fill: #ffac1e; stroke: #ffac1e; stroke-linejoin: bevel"/>
     <use xlink:href="#mb1333fba43" x="218.820647" y="224.867176" style="fill: #ffac1e; stroke: #ffac1e; stroke-linejoin: bevel"/>
     <use xlink:href="#mb1333fba43" x="223.979353" y="227.130027" style="fill: #ffac1e; stroke: #ffac1e; stroke-linejoin: bevel"/>
     <use xlink:href="#mb1333fba43" x="229.138059" y="226.718423" style="fill: #ffac1e; stroke: #ffac1e; stroke-linejoin: bevel"/>
     <use xlink:href="#mb1333fba43" x="234.296764" y="227.8194" style="fill: #ffac1e; stroke: #ffac1e; stroke-linejoin: bevel"/>
     <use xlink:href="#mb1333fba43" x="239.45547" y="219.377581" style="fill: #ffac1e; stroke: #ffac1e; stroke-linejoin: bevel"/>
     <use xlink:href="#mb1333fba43" x="244.614176" y="102.574255" style="fill: #ffac1e; stroke: #ffac1e; stroke-linejoin: bevel"/>
     <use xlink:href="#mb1333fba43" x="249.772881" y="209.2062" style="fill: #ffac1e; stroke: #ffac1e; stroke-linejoin: bevel"/>
     <use xlink:href="#mb1333fba43" x="254.931587" y="216.938657" style="fill: #ffac1e; stroke: #ffac1e; stroke-linejoin: bevel"/>
     <use xlink:href="#mb1333fba43" x="260.090293" y="220.918689" style="fill: #ffac1e; stroke: #ffac1e; stroke-linejoin: bevel"/>
     <use xlink:href="#mb1333fba43" x="265.248998" y="122.112538" style="fill: #ffac1e; stroke: #ffac1e; stroke-linejoin: bevel"/>
     <use xlink:href="#mb1333fba43" x="270.407704" y="115.872562" style="fill: #ffac1e; stroke: #ffac1e; stroke-linejoin: bevel"/>
     <use xlink:href="#mb1333fba43" x="275.56641" y="204.749639" style="fill: #ffac1e; stroke: #ffac1e; stroke-linejoin: bevel"/>
     <use xlink:href="#mb1333fba43" x="280.725116" y="119.381622" style="fill: #ffac1e; stroke: #ffac1e; stroke-linejoin: bevel"/>
     <use xlink:href="#mb1333fba43" x="285.883821" y="217.421406" style="fill: #ffac1e; stroke: #ffac1e; stroke-linejoin: bevel"/>
     <use xlink:href="#mb1333fba43" x="291.042527" y="216.65357" style="fill: #ffac1e; stroke: #ffac1e; stroke-linejoin: bevel"/>
     <use xlink:href="#mb1333fba43" x="296.201233" y="229.650929" style="fill: #ffac1e; stroke: #ffac1e; stroke-linejoin: bevel"/>
     <use xlink:href="#mb1333fba43" x="301.359938" y="210.380771" style="fill: #ffac1e; stroke: #ffac1e; stroke-linejoin: bevel"/>
     <use xlink:href="#mb1333fba43" x="306.518644" y="217.333718" style="fill: #ffac1e; stroke: #ffac1e; stroke-linejoin: bevel"/>
     <use xlink:href="#mb1333fba43" x="311.67735" y="206.823736" style="fill: #ffac1e; stroke: #ffac1e; stroke-linejoin: bevel"/>
     <use xlink:href="#mb1333fba43" x="316.836055" y="225.673048" style="fill: #ffac1e; stroke: #ffac1e; stroke-linejoin: bevel"/>
     <use xlink:href="#mb1333fba43" x="321.994761" y="219.386811" style="fill: #ffac1e; stroke: #ffac1e; stroke-linejoin: bevel"/>
     <use xlink:href="#mb1333fba43" x="327.153467" y="213.50502" style="fill: #ffac1e; stroke: #ffac1e; stroke-linejoin: bevel"/>
     <use xlink:href="#mb1333fba43" x="332.312173" y="213.21442" style="fill: #ffac1e; stroke: #ffac1e; stroke-linejoin: bevel"/>
     <use xlink:href="#mb1333fba43" x="337.470878" y="207.607872" style="fill: #ffac1e; stroke: #ffac1e; stroke-linejoin: bevel"/>
     <use xlink:href="#mb1333fba43" x="342.629584" y="233.155235" style="fill: #ffac1e; stroke: #ffac1e; stroke-linejoin: bevel"/>
     <use xlink:href="#mb1333fba43" x="347.78829" y="215.136991" style="fill: #ffac1e; stroke: #ffac1e; stroke-linejoin: bevel"/>
     <use xlink:href="#mb1333fba43" x="352.946995" y="210.7344" style="fill: #ffac1e; stroke: #ffac1e; stroke-linejoin: bevel"/>
     <use xlink:href="#mb1333fba43" x="358.105701" y="217.463309" style="fill: #ffac1e; stroke: #ffac1e; stroke-linejoin: bevel"/>
     <use xlink:href="#mb1333fba43" x="363.264407" y="221.667231" style="fill: #ffac1e; stroke: #ffac1e; stroke-linejoin: bevel"/>
     <use xlink:href="#mb1333fba43" x="368.423112" y="232.961687" style="fill: #ffac1e; stroke: #ffac1e; stroke-linejoin: bevel"/>
     <use xlink:href="#mb1333fba43" x="373.581818" y="223.143942" style="fill: #ffac1e; stroke: #ffac1e; stroke-linejoin: bevel"/>
    </g>
   </g>
   <g id="patch_3">
    <path d="M 54 252 
L 54 34.56 
" style="fill: none; stroke: #000000; stroke-width: 0.8; stroke-linejoin: miter; stroke-linecap: square"/>
   </g>
   <g id="patch_4">
    <path d="M 388.8 252 
L 388.8 34.56 
" style="fill: none; stroke: #000000; stroke-width: 0.8; stroke-linejoin: miter; stroke-linecap: square"/>
   </g>
   <g id="patch_5">
    <path d="M 54 252 
L 388.8 252 
" style="fill: none; stroke: #000000; stroke-width: 0.8; stroke-linejoin: miter; stroke-linecap: square"/>
   </g>
   <g id="patch_6">
    <path d="M 54 34.56 
L 388.8 34.56 
" style="fill: none; stroke: #000000; stroke-width: 0.8; stroke-linejoin: miter; stroke-linecap: square"/>
   </g>
   <g id="text_17">
    <!-- ζ-R-max optimal policy with m = 2.0 -->
    <g transform="translate(111.87 28.56)scale(0.12 -0.12)">
     <defs>
      <path id="DejaVuSans-3b6" d="M 2231 397 
Q 2644 394 2891 159 
Q 3153 -88 3153 -463 
Q 3153 -822 2922 -1072 
Q 2672 -1344 2163 -1344 
Q 2163 -1109 2163 -872 
Q 2378 -888 2509 -750 
Q 2609 -641 2609 -525 
Q 2609 -359 2509 -222 
Q 2413 -91 2231 -91 
Q 338 -91 334 1669 
Q 334 3206 2119 4284 
L 456 4284 
L 456 4863 
L 3175 4863 
L 3175 4284 
Q 913 3147 913 1669 
Q 913 397 2231 397 
z
" transform="scale(0.015625)"/>
      <path id="DejaVuSans-2d" d="M 313 2009 
L 1997 2009 
L 1997 1497 
L 313 1497 
L 313 2009 
z
" transform="scale(0.015625)"/>
      <path id="DejaVuSans-52" d="M 2841 2188 
Q 3044 2119 3236 1894 
Q 3428 1669 3622 1275 
L 4263 0 
L 3584 0 
L 2988 1197 
Q 2756 1666 2539 1819 
Q 2322 1972 1947 1972 
L 1259 1972 
L 1259 0 
L 628 0 
L 628 4666 
L 2053 4666 
Q 2853 4666 3247 4331 
Q 3641 3997 3641 3322 
Q 3641 2881 3436 2590 
Q 3231 2300 2841 2188 
z
M 1259 4147 
L 1259 2491 
L 2053 2491 
Q 2509 2491 2742 2702 
Q 2975 2913 2975 3322 
Q 2975 3731 2742 3939 
Q 2509 4147 2053 4147 
L 1259 4147 
z
" transform="scale(0.015625)"/>
      <path id="DejaVuSans-6d" d="M 3328 2828 
Q 3544 3216 3844 3400 
Q 4144 3584 4550 3584 
Q 5097 3584 5394 3201 
Q 5691 2819 5691 2113 
L 5691 0 
L 5113 0 
L 5113 2094 
Q 5113 2597 4934 2840 
Q 4756 3084 4391 3084 
Q 3944 3084 3684 2787 
Q 3425 2491 3425 1978 
L 3425 0 
L 2847 0 
L 2847 2094 
Q 2847 2600 2669 2842 
Q 2491 3084 2119 3084 
Q 1678 3084 1418 2786 
Q 1159 2488 1159 1978 
L 1159 0 
L 581 0 
L 581 3500 
L 1159 3500 
L 1159 2956 
Q 1356 3278 1631 3431 
Q 1906 3584 2284 3584 
Q 2666 3584 2933 3390 
Q 3200 3197 3328 2828 
z
" transform="scale(0.015625)"/>
      <path id="DejaVuSans-78" d="M 3513 3500 
L 2247 1797 
L 3578 0 
L 2900 0 
L 1881 1375 
L 863 0 
L 184 0 
L 1544 1831 
L 300 3500 
L 978 3500 
L 1906 2253 
L 2834 3500 
L 3513 3500 
z
" transform="scale(0.015625)"/>
      <path id="DejaVuSans-77" d="M 269 3500 
L 844 3500 
L 1563 769 
L 2278 3500 
L 2956 3500 
L 3675 769 
L 4391 3500 
L 4966 3500 
L 4050 0 
L 3372 0 
L 2619 2869 
L 1863 0 
L 1184 0 
L 269 3500 
z
" transform="scale(0.015625)"/>
      <path id="DejaVuSans-68" d="M 3513 2113 
L 3513 0 
L 2938 0 
L 2938 2094 
Q 2938 2591 2744 2837 
Q 2550 3084 2163 3084 
Q 1697 3084 1428 2787 
Q 1159 2491 1159 1978 
L 1159 0 
L 581 0 
L 581 4863 
L 1159 4863 
L 1159 2956 
Q 1366 3272 1645 3428 
Q 1925 3584 2291 3584 
Q 2894 3584 3203 3211 
Q 3513 2838 3513 2113 
z
" transform="scale(0.015625)"/>
      <path id="DejaVuSans-3d" d="M 678 2906 
L 4684 2906 
L 4684 2381 
L 678 2381 
L 678 2906 
z
M 678 1631 
L 4684 1631 
L 4684 1100 
L 678 1100 
L 678 1631 
z
" transform="scale(0.015625)"/>
      <path id="DejaVuSans-2e" d="M 684 794 
L 1344 794 
L 1344 0 
L 684 0 
L 684 794 
z
" transform="scale(0.015625)"/>
     </defs>
     <use xlink:href="#DejaVuSans-3b6"/>
     <use xlink:href="#DejaVuSans-2d" x="54.394531"/>
     <use xlink:href="#DejaVuSans-52" x="90.478516"/>
     <use xlink:href="#DejaVuSans-2d" x="155.960938"/>
     <use xlink:href="#DejaVuSans-6d" x="192.044922"/>
     <use xlink:href="#DejaVuSans-61" x="289.457031"/>
     <use xlink:href="#DejaVuSans-78" x="350.736328"/>
     <use xlink:href="#DejaVuSans-20" x="409.916016"/>
     <use xlink:href="#DejaVuSans-6f" x="441.703125"/>
     <use xlink:href="#DejaVuSans-70" x="502.884766"/>
     <use xlink:href="#DejaVuSans-74" x="566.361328"/>
     <use xlink:href="#DejaVuSans-69" x="605.570312"/>
     <use xlink:href="#DejaVuSans-6d" x="633.353516"/>
     <use xlink:href="#DejaVuSans-61" x="730.765625"/>
     <use xlink:href="#DejaVuSans-6c" x="792.044922"/>
     <use xlink:href="#DejaVuSans-20" x="819.828125"/>
     <use xlink:href="#DejaVuSans-70" x="851.615234"/>
     <use xlink:href="#DejaVuSans-6f" x="915.091797"/>
     <use xlink:href="#DejaVuSans-6c" x="976.273438"/>
     <use xlink:href="#DejaVuSans-69" x="1004.056641"/>
     <use xlink:href="#DejaVuSans-63" x="1031.839844"/>
     <use xlink:href="#DejaVuSans-79" x="1086.820312"/>
     <use xlink:href="#DejaVuSans-20" x="1146"/>
     <use xlink:href="#DejaVuSans-77" x="1177.787109"/>
     <use xlink:href="#DejaVuSans-69" x="1259.574219"/>
     <use xlink:href="#DejaVuSans-74" x="1287.357422"/>
     <use xlink:href="#DejaVuSans-68" x="1326.566406"/>
     <use xlink:href="#DejaVuSans-20" x="1389.945312"/>
     <use xlink:href="#DejaVuSans-6d" x="1421.732422"/>
     <use xlink:href="#DejaVuSans-20" x="1519.144531"/>
     <use xlink:href="#DejaVuSans-3d" x="1550.931641"/>
     <use xlink:href="#DejaVuSans-20" x="1634.720703"/>
     <use xlink:href="#DejaVuSans-32" x="1666.507812"/>
     <use xlink:href="#DejaVuSans-2e" x="1730.130859"/>
     <use xlink:href="#DejaVuSans-30" x="1761.917969"/>
    </g>
   </g>
   <g id="legend_1">
    <g id="patch_7">
     <path d="M 61 101.2725 
L 145.003125 101.2725 
Q 147.003125 101.2725 147.003125 99.2725 
L 147.003125 41.56 
Q 147.003125 39.56 145.003125 39.56 
L 61 39.56 
Q 59 39.56 59 41.56 
L 59 99.2725 
Q 59 101.2725 61 101.2725 
z
" style="fill: #ffffff; opacity: 0.8; stroke: #cccccc; stroke-linejoin: miter"/>
    </g>
    <g id="line2d_33">
     <path d="M 63 47.658437 
L 73 47.658437 
L 83 47.658437 
" style="fill: none; stroke: #9d02d7; stroke-width: 1.5; stroke-linecap: square"/>
     <g>
      <use xlink:href="#m83821fb17b" x="73" y="47.658437" style="fill: #9d02d7; stroke: #9d02d7; stroke-linejoin: miter"/>
     </g>
    </g>
    <g id="text_18">
     <!-- alpha=2.5 -->
     <g transform="translate(91 51.158437)scale(0.1 -0.1)">
      <use xlink:href="#DejaVuSans-61"/>
      <use xlink:href="#DejaVuSans-6c" x="61.279297"/>
      <use xlink:href="#DejaVuSans-70" x="89.0625"/>
      <use xlink:href="#DejaVuSans-68" x="152.539062"/>
      <use xlink:href="#DejaVuSans-61" x="215.917969"/>
      <use xlink:href="#DejaVuSans-3d" x="277.197266"/>
      <use xlink:href="#DejaVuSans-32" x="360.986328"/>
      <use xlink:href="#DejaVuSans-2e" x="424.609375"/>
      <use xlink:href="#DejaVuSans-35" x="456.396484"/>
     </g>
    </g>
    <g id="line2d_34">
     <path d="M 63 62.336562 
L 73 62.336562 
L 83 62.336562 
" style="fill: none; stroke: #0000ff; stroke-width: 1.5; stroke-linecap: square"/>
     <g>
      <use xlink:href="#me6fc370e91" x="73" y="62.336562" style="fill: #0000ff; stroke: #0000ff"/>
     </g>
    </g>
    <g id="text_19">
     <!-- alpha=3.0 -->
     <g transform="translate(91 65.836562)scale(0.1 -0.1)">
      <use xlink:href="#DejaVuSans-61"/>
      <use xlink:href="#DejaVuSans-6c" x="61.279297"/>
      <use xlink:href="#DejaVuSans-70" x="89.0625"/>
      <use xlink:href="#DejaVuSans-68" x="152.539062"/>
      <use xlink:href="#DejaVuSans-61" x="215.917969"/>
      <use xlink:href="#DejaVuSans-3d" x="277.197266"/>
      <use xlink:href="#DejaVuSans-33" x="360.986328"/>
      <use xlink:href="#DejaVuSans-2e" x="424.609375"/>
      <use xlink:href="#DejaVuSans-30" x="456.396484"/>
     </g>
    </g>
    <g id="line2d_35">
     <path d="M 63 77.014687 
L 73 77.014687 
L 83 77.014687 
" style="fill: none; stroke: #ff7763; stroke-width: 1.5; stroke-linecap: square"/>
     <g>
      <use xlink:href="#m5041dceb76" x="73" y="77.014687" style="fill: #ff7763; stroke: #ff7763"/>
     </g>
    </g>
    <g id="text_20">
     <!-- alpha=3.5 -->
     <g transform="translate(91 80.514687)scale(0.1 -0.1)">
      <use xlink:href="#DejaVuSans-61"/>
      <use xlink:href="#DejaVuSans-6c" x="61.279297"/>
      <use xlink:href="#DejaVuSans-70" x="89.0625"/>
      <use xlink:href="#DejaVuSans-68" x="152.539062"/>
      <use xlink:href="#DejaVuSans-61" x="215.917969"/>
      <use xlink:href="#DejaVuSans-3d" x="277.197266"/>
      <use xlink:href="#DejaVuSans-33" x="360.986328"/>
      <use xlink:href="#DejaVuSans-2e" x="424.609375"/>
      <use xlink:href="#DejaVuSans-35" x="456.396484"/>
     </g>
    </g>
    <g id="line2d_36">
     <path d="M 63 91.692813 
L 73 91.692813 
L 83 91.692813 
" style="fill: none; stroke: #ffac1e; stroke-width: 1.5; stroke-linecap: square"/>
     <g>
      <use xlink:href="#mb1333fba43" x="73" y="91.692813" style="fill: #ffac1e; stroke: #ffac1e; stroke-linejoin: bevel"/>
     </g>
    </g>
    <g id="text_21">
     <!-- alpha=4.0 -->
     <g transform="translate(91 95.192813)scale(0.1 -0.1)">
      <use xlink:href="#DejaVuSans-61"/>
      <use xlink:href="#DejaVuSans-6c" x="61.279297"/>
      <use xlink:href="#DejaVuSans-70" x="89.0625"/>
      <use xlink:href="#DejaVuSans-68" x="152.539062"/>
      <use xlink:href="#DejaVuSans-61" x="215.917969"/>
      <use xlink:href="#DejaVuSans-3d" x="277.197266"/>
      <use xlink:href="#DejaVuSans-34" x="360.986328"/>
      <use xlink:href="#DejaVuSans-2e" x="424.609375"/>
      <use xlink:href="#DejaVuSans-30" x="456.396484"/>
     </g>
    </g>
   </g>
  </g>
 </g>
 <defs>
  <clipPath id="pce5ab76c5e">
   <rect x="54" y="34.56" width="334.8" height="217.44"/>
  </clipPath>
 </defs>
</svg>
