<?xml version="1.0" encoding="utf-8" standalone="no"?>
<!DOCTYPE svg PUBLIC "-//W3C//DTD SVG 1.1//EN"
  "http://www.w3.org/Graphics/SVG/1.1/DTD/svg11.dtd">
<svg xmlns:xlink="http://www.w3.org/1999/xlink" width="432pt" height="288pt" viewBox="0 0 432 288" xmlns="http://www.w3.org/2000/svg" version="1.1">
 <metadata>
  <rdf:RDF xmlns:dc="http://purl.org/dc/elements/1.1/" xmlns:cc="http://creativecommons.org/ns#" xmlns:rdf="http://www.w3.org/1999/02/22-rdf-syntax-ns#">
   <cc:Work>
    <dc:type rdf:resource="http://purl.org/dc/dcmitype/StillImage"/>
    <dc:date>2023-01-11T15:36:08.138107</dc:date>
    <dc:format>image/svg+xml</dc:format>
    <dc:creator>
     <cc:Agent>
      <dc:title>Matplotlib v3.5.2, https://matplotlib.org/</dc:title>
     </cc:Agent>
    </dc:creator>
   </cc:Work>
  </rdf:RDF>
 </metadata>
 <defs>
  <style type="text/css">*{stroke-linejoin: round; stroke-linecap: butt}</style>
 </defs>
 <g id="figure_1">
  <g id="patch_1">
   <path d="M 0 288 
L 432 288 
L 432 0 
L 0 0 
z
" style="fill: #ffffff"/>
  </g>
  <g id="axes_1">
   <g id="patch_2">
    <path d="M 54 252 
L 388.8 252 
L 388.8 34.56 
L 54 34.56 
z
" style="fill: #ffffff"/>
   </g>
   <g id="PolyCollection_1">
    <defs>
     <path id="mcd75a258af" d="M 69.218182 -33.729119 
L 69.218182 -33.729119 
L 74.376888 -35.091182 
L 79.535593 -34.927752 
L 84.694299 -35.089283 
L 89.853005 -73.619013 
L 95.01171 -67.459147 
L 100.170416 -79.196497 
L 105.329122 -92.001714 
L 110.487827 -121.914189 
L 115.646533 -64.352797 
L 120.805239 -87.31854 
L 125.963945 -127.287916 
L 131.12265 -81.574422 
L 136.281356 -80.482961 
L 141.440062 -47.037338 
L 146.598767 -99.176692 
L 151.757473 -117.873998 
L 156.916179 -137.031948 
L 162.074884 -137.034136 
L 167.23359 -124.120174 
L 172.392296 -111.394871 
L 177.551002 -128.996415 
L 182.709707 -128.489251 
L 187.868413 -242.542798 
L 193.027119 -243.010063 
L 198.185824 -172.817895 
L 203.34453 -172.671916 
L 208.503236 -172.226225 
L 213.661941 -243.450735 
L 218.820647 -242.415065 
L 223.979353 -242.415065 
L 229.138059 -242.265858 
L 234.296764 -242.265858 
L 239.45547 -242.388814 
L 244.614176 -242.388814 
L 249.772881 -242.388814 
L 254.931587 -243.425357 
L 260.090293 -243.425539 
L 265.248998 -243.425539 
L 270.407704 -243.425539 
L 275.56641 -243.425539 
L 280.725116 -243.425539 
L 285.883821 -243.425539 
L 291.042527 -243.425539 
L 296.201233 -243.450917 
L 301.359938 -243.450917 
L 306.518644 -243.450917 
L 311.67735 -243.425539 
L 316.836055 -243.425539 
L 321.994761 -243.425539 
L 327.153467 -243.425539 
L 332.312173 -234.866139 
L 337.470878 -234.866139 
L 342.629584 -234.866139 
L 347.78829 -234.866139 
L 352.946995 -234.866139 
L 358.105701 -244.163667 
L 363.264407 -244.163667 
L 368.423112 -243.425539 
L 373.581818 -243.66075 
L 373.581818 -243.66075 
L 373.581818 -243.66075 
L 368.423112 -243.425539 
L 363.264407 -244.163667 
L 358.105701 -244.163667 
L 352.946995 -234.866139 
L 347.78829 -234.866139 
L 342.629584 -234.866139 
L 337.470878 -234.866139 
L 332.312173 -234.866139 
L 327.153467 -243.425539 
L 321.994761 -243.425539 
L 316.836055 -243.425539 
L 311.67735 -243.425539 
L 306.518644 -243.450917 
L 301.359938 -243.450917 
L 296.201233 -243.450917 
L 291.042527 -243.425539 
L 285.883821 -243.425539 
L 280.725116 -243.425539 
L 275.56641 -243.425539 
L 270.407704 -243.425539 
L 265.248998 -243.425539 
L 260.090293 -243.425539 
L 254.931587 -243.425357 
L 249.772881 -242.388814 
L 244.614176 -242.388814 
L 239.45547 -242.388814 
L 234.296764 -242.265858 
L 229.138059 -242.265858 
L 223.979353 -242.415065 
L 218.820647 -242.415065 
L 213.661941 -243.450735 
L 208.503236 -172.226225 
L 203.34453 -172.671916 
L 198.185824 -172.817895 
L 193.027119 -243.010063 
L 187.868413 -242.542798 
L 182.709707 -128.489251 
L 177.551002 -128.996415 
L 172.392296 -111.394871 
L 167.23359 -124.120174 
L 162.074884 -137.034136 
L 156.916179 -137.031948 
L 151.757473 -117.873998 
L 146.598767 -99.176692 
L 141.440062 -47.037338 
L 136.281356 -80.482961 
L 131.12265 -81.574422 
L 125.963945 -127.287916 
L 120.805239 -87.31854 
L 115.646533 -64.352797 
L 110.487827 -121.914189 
L 105.329122 -92.001714 
L 100.170416 -79.196497 
L 95.01171 -67.459147 
L 89.853005 -73.619013 
L 84.694299 -35.089283 
L 79.535593 -34.927752 
L 74.376888 -35.091182 
L 69.218182 -33.729119 
z
" style="stroke: #9d02d7; stroke-opacity: 0.2"/>
    </defs>
    <g clip-path="url(#p5e388fb8d5)">
     <use xlink:href="#mcd75a258af" x="0" y="288" style="fill: #9d02d7; fill-opacity: 0.2; stroke: #9d02d7; stroke-opacity: 0.2"/>
    </g>
   </g>
   <g id="PolyCollection_2">
    <defs>
     <path id="m3e36d71eb1" d="M 69.218182 -33.726359 
L 69.218182 -33.726359 
L 74.376888 -33.395658 
L 79.535593 -37.112569 
L 84.694299 -35.138385 
L 89.853005 -35.091182 
L 95.01171 -34.913458 
L 100.170416 -35.091182 
L 105.329122 -35.079164 
L 110.487827 -35.091182 
L 115.646533 -35.091182 
L 120.805239 -35.042556 
L 125.963945 -35.091182 
L 131.12265 -35.086465 
L 136.281356 -35.089415 
L 141.440062 -35.091182 
L 146.598767 -44.751054 
L 151.757473 -118.651711 
L 156.916179 -115.493817 
L 162.074884 -124.866282 
L 167.23359 -51.378133 
L 172.392296 -129.090137 
L 177.551002 -122.420191 
L 182.709707 -106.919441 
L 187.868413 -171.830909 
L 193.027119 -171.830909 
L 198.185824 -171.830909 
L 203.34453 -173.362657 
L 208.503236 -173.362657 
L 213.661941 -173.362657 
L 218.820647 -173.644852 
L 223.979353 -94.22601 
L 229.138059 -244.721455 
L 234.296764 -244.721455 
L 239.45547 -244.507309 
L 244.614176 -244.721455 
L 249.772881 -244.507309 
L 254.931587 -244.313984 
L 260.090293 -244.507309 
L 265.248998 -244.507309 
L 270.407704 -244.507309 
L 275.56641 -244.507309 
L 280.725116 -244.507309 
L 285.883821 -244.507309 
L 291.042527 -244.388511 
L 296.201233 -244.388511 
L 301.359938 -244.388511 
L 306.518644 -244.388511 
L 311.67735 -244.507309 
L 316.836055 -240.868164 
L 321.994761 -240.868164 
L 327.153467 -240.868164 
L 332.312173 -244.507309 
L 337.470878 -244.507309 
L 342.629584 -244.507309 
L 347.78829 -244.507309 
L 352.946995 -244.507309 
L 358.105701 -244.507309 
L 363.264407 -244.507309 
L 368.423112 -244.507309 
L 373.581818 -244.507309 
L 373.581818 -244.507309 
L 373.581818 -244.507309 
L 368.423112 -244.507309 
L 363.264407 -244.507309 
L 358.105701 -244.507309 
L 352.946995 -244.507309 
L 347.78829 -244.507309 
L 342.629584 -244.507309 
L 337.470878 -244.507309 
L 332.312173 -244.507309 
L 327.153467 -240.868164 
L 321.994761 -240.868164 
L 316.836055 -240.868164 
L 311.67735 -244.507309 
L 306.518644 -244.388511 
L 301.359938 -244.388511 
L 296.201233 -244.388511 
L 291.042527 -244.388511 
L 285.883821 -244.507309 
L 280.725116 -244.507309 
L 275.56641 -244.507309 
L 270.407704 -244.507309 
L 265.248998 -244.507309 
L 260.090293 -244.507309 
L 254.931587 -244.313984 
L 249.772881 -244.507309 
L 244.614176 -244.721455 
L 239.45547 -244.507309 
L 234.296764 -244.721455 
L 229.138059 -244.721455 
L 223.979353 -94.22601 
L 218.820647 -173.644852 
L 213.661941 -173.362657 
L 208.503236 -173.362657 
L 203.34453 -173.362657 
L 198.185824 -171.830909 
L 193.027119 -171.830909 
L 187.868413 -171.830909 
L 182.709707 -106.919441 
L 177.551002 -122.420191 
L 172.392296 -129.090137 
L 167.23359 -51.378133 
L 162.074884 -124.866282 
L 156.916179 -115.493817 
L 151.757473 -118.651711 
L 146.598767 -44.751054 
L 141.440062 -35.091182 
L 136.281356 -35.089415 
L 131.12265 -35.086465 
L 125.963945 -35.091182 
L 120.805239 -35.042556 
L 115.646533 -35.091182 
L 110.487827 -35.091182 
L 105.329122 -35.079164 
L 100.170416 -35.091182 
L 95.01171 -34.913458 
L 89.853005 -35.091182 
L 84.694299 -35.138385 
L 79.535593 -37.112569 
L 74.376888 -33.395658 
L 69.218182 -33.726359 
z
" style="stroke: #0000ff; stroke-opacity: 0.2"/>
    </defs>
    <g clip-path="url(#p5e388fb8d5)">
     <use xlink:href="#m3e36d71eb1" x="0" y="288" style="fill: #0000ff; fill-opacity: 0.2; stroke: #0000ff; stroke-opacity: 0.2"/>
    </g>
   </g>
   <g id="PolyCollection_3">
    <defs>
     <path id="mb78718a24c" d="M 69.218182 -35.064363 
L 69.218182 -35.064363 
L 74.376888 -35.091182 
L 79.535593 -35.081215 
L 84.694299 -34.320502 
L 89.853005 -35.091182 
L 95.01171 -23.141204 
L 100.170416 -16.818263 
L 105.329122 -19.309329 
L 110.487827 -16.101624 
L 115.646533 -16.619401 
L 120.805239 -35.950755 
L 125.963945 -26.45874 
L 131.12265 -24.205773 
L 136.281356 -43.445946 
L 141.440062 -51.87484 
L 146.598767 -44.367887 
L 151.757473 -44.456912 
L 156.916179 -51.381052 
L 162.074884 -61.432856 
L 167.23359 -61.426419 
L 172.392296 -61.461392 
L 177.551002 -61.032611 
L 182.709707 -72.972867 
L 187.868413 -72.972867 
L 193.027119 -72.97753 
L 198.185824 -73.245096 
L 203.34453 -128.605344 
L 208.503236 -128.357907 
L 213.661941 -136.295924 
L 218.820647 -136.295924 
L 223.979353 -133.561494 
L 229.138059 -133.561494 
L 234.296764 -244.680736 
L 239.45547 -240.211249 
L 244.614176 -240.211249 
L 249.772881 -240.211249 
L 254.931587 -240.211249 
L 260.090293 -240.211249 
L 265.248998 -240.211249 
L 270.407704 -240.211249 
L 275.56641 -240.211249 
L 280.725116 -240.211249 
L 285.883821 -240.211249 
L 291.042527 -240.211249 
L 296.201233 -240.211249 
L 301.359938 -240.211249 
L 306.518644 -240.211249 
L 311.67735 -240.211249 
L 316.836055 -240.211249 
L 321.994761 -240.211249 
L 327.153467 -240.211249 
L 332.312173 -240.211249 
L 337.470878 -240.211249 
L 342.629584 -239.736144 
L 347.78829 -239.736144 
L 352.946995 -239.736144 
L 358.105701 -239.736144 
L 363.264407 -239.736144 
L 368.423112 -244.31994 
L 373.581818 -244.31994 
L 373.581818 -244.31994 
L 373.581818 -244.31994 
L 368.423112 -244.31994 
L 363.264407 -239.736144 
L 358.105701 -239.736144 
L 352.946995 -239.736144 
L 347.78829 -239.736144 
L 342.629584 -239.736144 
L 337.470878 -240.211249 
L 332.312173 -240.211249 
L 327.153467 -240.211249 
L 321.994761 -240.211249 
L 316.836055 -240.211249 
L 311.67735 -240.211249 
L 306.518644 -240.211249 
L 301.359938 -240.211249 
L 296.201233 -240.211249 
L 291.042527 -240.211249 
L 285.883821 -240.211249 
L 280.725116 -240.211249 
L 275.56641 -240.211249 
L 270.407704 -240.211249 
L 265.248998 -240.211249 
L 260.090293 -240.211249 
L 254.931587 -240.211249 
L 249.772881 -240.211249 
L 244.614176 -240.211249 
L 239.45547 -240.211249 
L 234.296764 -244.680736 
L 229.138059 -133.561494 
L 223.979353 -133.561494 
L 218.820647 -136.295924 
L 213.661941 -136.295924 
L 208.503236 -128.357907 
L 203.34453 -128.605344 
L 198.185824 -73.245096 
L 193.027119 -72.97753 
L 187.868413 -72.972867 
L 182.709707 -72.972867 
L 177.551002 -61.032611 
L 172.392296 -61.461392 
L 167.23359 -61.426419 
L 162.074884 -61.432856 
L 156.916179 -51.381052 
L 151.757473 -44.456912 
L 146.598767 -44.367887 
L 141.440062 -51.87484 
L 136.281356 -43.445946 
L 131.12265 -24.205773 
L 125.963945 -26.45874 
L 120.805239 -35.950755 
L 115.646533 -16.619401 
L 110.487827 -16.101624 
L 105.329122 -19.309329 
L 100.170416 -16.818263 
L 95.01171 -23.141204 
L 89.853005 -35.091182 
L 84.694299 -34.320502 
L 79.535593 -35.081215 
L 74.376888 -35.091182 
L 69.218182 -35.064363 
z
" style="stroke: #ff7763; stroke-opacity: 0.2"/>
    </defs>
    <g clip-path="url(#p5e388fb8d5)">
     <use xlink:href="#mb78718a24c" x="0" y="288" style="fill: #ff7763; fill-opacity: 0.2; stroke: #ff7763; stroke-opacity: 0.2"/>
    </g>
   </g>
   <g id="PolyCollection_4">
    <defs>
     <path id="m2987871a1d" d="M 69.218182 -34.510942 
L 69.218182 -34.510942 
L 74.376888 -34.64688 
L 79.535593 -35.091182 
L 84.694299 -34.490894 
L 89.853005 -56.416884 
L 95.01171 -33.715634 
L 100.170416 -34.518517 
L 105.329122 -34.537445 
L 110.487827 -35.091182 
L 115.646533 -47.025902 
L 120.805239 -48.331199 
L 125.963945 -139.031034 
L 131.12265 -40.032511 
L 136.281356 -47.037104 
L 141.440062 -48.30934 
L 146.598767 -134.530308 
L 151.757473 -45.63206 
L 156.916179 -79.496844 
L 162.074884 -206.257426 
L 167.23359 -206.315736 
L 172.392296 -218.000445 
L 177.551002 -207.751382 
L 182.709707 -207.739522 
L 187.868413 -222.665508 
L 193.027119 -222.659785 
L 198.185824 -223.223396 
L 203.34453 -223.314794 
L 208.503236 -236.995846 
L 213.661941 -240.161839 
L 218.820647 -239.545148 
L 223.979353 -239.650438 
L 229.138059 -240.16198 
L 234.296764 -240.399566 
L 239.45547 -240.399566 
L 244.614176 -240.399566 
L 249.772881 -240.399566 
L 254.931587 -240.399566 
L 260.090293 -240.399566 
L 265.248998 -240.399566 
L 270.407704 -240.16198 
L 275.56641 -240.399566 
L 280.725116 -240.16198 
L 285.883821 -240.16198 
L 291.042527 -240.16198 
L 296.201233 -240.444639 
L 301.359938 -240.16198 
L 306.518644 -244.655732 
L 311.67735 -244.655732 
L 316.836055 -244.655732 
L 321.994761 -244.655732 
L 327.153467 -244.655732 
L 332.312173 -244.655732 
L 337.470878 -244.655732 
L 342.629584 -244.655732 
L 347.78829 -244.655732 
L 352.946995 -244.655732 
L 358.105701 -244.655732 
L 363.264407 -244.655732 
L 368.423112 -244.655732 
L 373.581818 -244.655732 
L 373.581818 -244.655732 
L 373.581818 -244.655732 
L 368.423112 -244.655732 
L 363.264407 -244.655732 
L 358.105701 -244.655732 
L 352.946995 -244.655732 
L 347.78829 -244.655732 
L 342.629584 -244.655732 
L 337.470878 -244.655732 
L 332.312173 -244.655732 
L 327.153467 -244.655732 
L 321.994761 -244.655732 
L 316.836055 -244.655732 
L 311.67735 -244.655732 
L 306.518644 -244.655732 
L 301.359938 -240.16198 
L 296.201233 -240.444639 
L 291.042527 -240.16198 
L 285.883821 -240.16198 
L 280.725116 -240.16198 
L 275.56641 -240.399566 
L 270.407704 -240.16198 
L 265.248998 -240.399566 
L 260.090293 -240.399566 
L 254.931587 -240.399566 
L 249.772881 -240.399566 
L 244.614176 -240.399566 
L 239.45547 -240.399566 
L 234.296764 -240.399566 
L 229.138059 -240.16198 
L 223.979353 -239.650438 
L 218.820647 -239.545148 
L 213.661941 -240.161839 
L 208.503236 -236.995846 
L 203.34453 -223.314794 
L 198.185824 -223.223396 
L 193.027119 -222.659785 
L 187.868413 -222.665508 
L 182.709707 -207.739522 
L 177.551002 -207.751382 
L 172.392296 -218.000445 
L 167.23359 -206.315736 
L 162.074884 -206.257426 
L 156.916179 -79.496844 
L 151.757473 -45.63206 
L 146.598767 -134.530308 
L 141.440062 -48.30934 
L 136.281356 -47.037104 
L 131.12265 -40.032511 
L 125.963945 -139.031034 
L 120.805239 -48.331199 
L 115.646533 -47.025902 
L 110.487827 -35.091182 
L 105.329122 -34.537445 
L 100.170416 -34.518517 
L 95.01171 -33.715634 
L 89.853005 -56.416884 
L 84.694299 -34.490894 
L 79.535593 -35.091182 
L 74.376888 -34.64688 
L 69.218182 -34.510942 
z
" style="stroke: #ffac1e; stroke-opacity: 0.2"/>
    </defs>
    <g clip-path="url(#p5e388fb8d5)">
     <use xlink:href="#m2987871a1d" x="0" y="288" style="fill: #ffac1e; fill-opacity: 0.2; stroke: #ffac1e; stroke-opacity: 0.2"/>
    </g>
   </g>
   <g id="PolyCollection_5">
    <defs>
     <path id="ma858c1fef4" d="M 69.218182 -35.091182 
L 69.218182 -35.091182 
L 74.376888 -35.091182 
L 79.535593 -32.388075 
L 84.694299 -32.178393 
L 89.853005 -29.103667 
L 95.01171 -33.874202 
L 100.170416 -32.665999 
L 105.329122 -36.226773 
L 110.487827 -33.052233 
L 115.646533 -46.823684 
L 120.805239 -34.639625 
L 125.963945 -34.009476 
L 131.12265 -32.647967 
L 136.281356 -33.690818 
L 141.440062 -35.168161 
L 146.598767 -34.45736 
L 151.757473 -35.775069 
L 156.916179 -32.814174 
L 162.074884 -34.291609 
L 167.23359 -35.04451 
L 172.392296 -36.544108 
L 177.551002 -43.315156 
L 182.709707 -69.666307 
L 187.868413 -59.878496 
L 193.027119 -59.381096 
L 198.185824 -108.235207 
L 203.34453 -108.235207 
L 208.503236 -125.998894 
L 213.661941 -125.438228 
L 218.820647 -125.998894 
L 223.979353 -125.998894 
L 229.138059 -126.13884 
L 234.296764 -126.13884 
L 239.45547 -123.163818 
L 244.614176 -126.139155 
L 249.772881 -126.562608 
L 254.931587 -126.562608 
L 260.090293 -241.209199 
L 265.248998 -240.16198 
L 270.407704 -240.16198 
L 275.56641 -240.16198 
L 280.725116 -241.209199 
L 285.883821 -241.209199 
L 291.042527 -241.209199 
L 296.201233 -241.209199 
L 301.359938 -241.209199 
L 306.518644 -241.209199 
L 311.67735 -241.209199 
L 316.836055 -241.405241 
L 321.994761 -241.209199 
L 327.153467 -241.209199 
L 332.312173 -241.209199 
L 337.470878 -241.209199 
L 342.629584 -241.209199 
L 347.78829 -241.209199 
L 352.946995 -241.209199 
L 358.105701 -241.405241 
L 363.264407 -241.405241 
L 368.423112 -241.209199 
L 373.581818 -241.405241 
L 373.581818 -241.405241 
L 373.581818 -241.405241 
L 368.423112 -241.209199 
L 363.264407 -241.405241 
L 358.105701 -241.405241 
L 352.946995 -241.209199 
L 347.78829 -241.209199 
L 342.629584 -241.209199 
L 337.470878 -241.209199 
L 332.312173 -241.209199 
L 327.153467 -241.209199 
L 321.994761 -241.209199 
L 316.836055 -241.405241 
L 311.67735 -241.209199 
L 306.518644 -241.209199 
L 301.359938 -241.209199 
L 296.201233 -241.209199 
L 291.042527 -241.209199 
L 285.883821 -241.209199 
L 280.725116 -241.209199 
L 275.56641 -240.16198 
L 270.407704 -240.16198 
L 265.248998 -240.16198 
L 260.090293 -241.209199 
L 254.931587 -126.562608 
L 249.772881 -126.562608 
L 244.614176 -126.139155 
L 239.45547 -123.163818 
L 234.296764 -126.13884 
L 229.138059 -126.13884 
L 223.979353 -125.998894 
L 218.820647 -125.998894 
L 213.661941 -125.438228 
L 208.503236 -125.998894 
L 203.34453 -108.235207 
L 198.185824 -108.235207 
L 193.027119 -59.381096 
L 187.868413 -59.878496 
L 182.709707 -69.666307 
L 177.551002 -43.315156 
L 172.392296 -36.544108 
L 167.23359 -35.04451 
L 162.074884 -34.291609 
L 156.916179 -32.814174 
L 151.757473 -35.775069 
L 146.598767 -34.45736 
L 141.440062 -35.168161 
L 136.281356 -33.690818 
L 131.12265 -32.647967 
L 125.963945 -34.009476 
L 120.805239 -34.639625 
L 115.646533 -46.823684 
L 110.487827 -33.052233 
L 105.329122 -36.226773 
L 100.170416 -32.665999 
L 95.01171 -33.874202 
L 89.853005 -29.103667 
L 84.694299 -32.178393 
L 79.535593 -32.388075 
L 74.376888 -35.091182 
L 69.218182 -35.091182 
z
" style="stroke: #009435; stroke-opacity: 0.2"/>
    </defs>
    <g clip-path="url(#p5e388fb8d5)">
     <use xlink:href="#ma858c1fef4" x="0" y="288" style="fill: #009435; fill-opacity: 0.2; stroke: #009435; stroke-opacity: 0.2"/>
    </g>
   </g>
   <g id="matplotlib.axis_1">
    <g id="xtick_1">
     <g id="line2d_1">
      <path d="M 69.218182 252 
L 69.218182 34.56 
" clip-path="url(#p5e388fb8d5)" style="fill: none; stroke-dasharray: 2.96,1.28; stroke-dashoffset: 0; stroke: #b0b0b0; stroke-width: 0.8"/>
     </g>
     <g id="line2d_2">
      <defs>
       <path id="m7afa61f9fd" d="M 0 0 
L 0 3.5 
" style="stroke: #000000; stroke-width: 0.8"/>
      </defs>
      <g>
       <use xlink:href="#m7afa61f9fd" x="69.218182" y="252" style="stroke: #000000; stroke-width: 0.8"/>
      </g>
     </g>
     <g id="text_1">
      <!-- 0 -->
      <g transform="translate(66.036932 266.598437)scale(0.1 -0.1)">
       <defs>
        <path id="DejaVuSans-30" d="M 2034 4250 
Q 1547 4250 1301 3770 
Q 1056 3291 1056 2328 
Q 1056 1369 1301 889 
Q 1547 409 2034 409 
Q 2525 409 2770 889 
Q 3016 1369 3016 2328 
Q 3016 3291 2770 3770 
Q 2525 4250 2034 4250 
z
M 2034 4750 
Q 2819 4750 3233 4129 
Q 3647 3509 3647 2328 
Q 3647 1150 3233 529 
Q 2819 -91 2034 -91 
Q 1250 -91 836 529 
Q 422 1150 422 2328 
Q 422 3509 836 4129 
Q 1250 4750 2034 4750 
z
" transform="scale(0.015625)"/>
       </defs>
       <use xlink:href="#DejaVuSans-30"/>
      </g>
     </g>
    </g>
    <g id="xtick_2">
     <g id="line2d_3">
      <path d="M 120.805239 252 
L 120.805239 34.56 
" clip-path="url(#p5e388fb8d5)" style="fill: none; stroke-dasharray: 2.96,1.28; stroke-dashoffset: 0; stroke: #b0b0b0; stroke-width: 0.8"/>
     </g>
     <g id="line2d_4">
      <g>
       <use xlink:href="#m7afa61f9fd" x="120.805239" y="252" style="stroke: #000000; stroke-width: 0.8"/>
      </g>
     </g>
     <g id="text_2">
      <!-- 500 -->
      <g transform="translate(111.261489 266.598437)scale(0.1 -0.1)">
       <defs>
        <path id="DejaVuSans-35" d="M 691 4666 
L 3169 4666 
L 3169 4134 
L 1269 4134 
L 1269 2991 
Q 1406 3038 1543 3061 
Q 1681 3084 1819 3084 
Q 2600 3084 3056 2656 
Q 3513 2228 3513 1497 
Q 3513 744 3044 326 
Q 2575 -91 1722 -91 
Q 1428 -91 1123 -41 
Q 819 9 494 109 
L 494 744 
Q 775 591 1075 516 
Q 1375 441 1709 441 
Q 2250 441 2565 725 
Q 2881 1009 2881 1497 
Q 2881 1984 2565 2268 
Q 2250 2553 1709 2553 
Q 1456 2553 1204 2497 
Q 953 2441 691 2322 
L 691 4666 
z
" transform="scale(0.015625)"/>
       </defs>
       <use xlink:href="#DejaVuSans-35"/>
       <use xlink:href="#DejaVuSans-30" x="63.623047"/>
       <use xlink:href="#DejaVuSans-30" x="127.246094"/>
      </g>
     </g>
    </g>
    <g id="xtick_3">
     <g id="line2d_5">
      <path d="M 172.392296 252 
L 172.392296 34.56 
" clip-path="url(#p5e388fb8d5)" style="fill: none; stroke-dasharray: 2.96,1.28; stroke-dashoffset: 0; stroke: #b0b0b0; stroke-width: 0.8"/>
     </g>
     <g id="line2d_6">
      <g>
       <use xlink:href="#m7afa61f9fd" x="172.392296" y="252" style="stroke: #000000; stroke-width: 0.8"/>
      </g>
     </g>
     <g id="text_3">
      <!-- 1000 -->
      <g transform="translate(159.667296 266.598437)scale(0.1 -0.1)">
       <defs>
        <path id="DejaVuSans-31" d="M 794 531 
L 1825 531 
L 1825 4091 
L 703 3866 
L 703 4441 
L 1819 4666 
L 2450 4666 
L 2450 531 
L 3481 531 
L 3481 0 
L 794 0 
L 794 531 
z
" transform="scale(0.015625)"/>
       </defs>
       <use xlink:href="#DejaVuSans-31"/>
       <use xlink:href="#DejaVuSans-30" x="63.623047"/>
       <use xlink:href="#DejaVuSans-30" x="127.246094"/>
       <use xlink:href="#DejaVuSans-30" x="190.869141"/>
      </g>
     </g>
    </g>
    <g id="xtick_4">
     <g id="line2d_7">
      <path d="M 223.979353 252 
L 223.979353 34.56 
" clip-path="url(#p5e388fb8d5)" style="fill: none; stroke-dasharray: 2.96,1.28; stroke-dashoffset: 0; stroke: #b0b0b0; stroke-width: 0.8"/>
     </g>
     <g id="line2d_8">
      <g>
       <use xlink:href="#m7afa61f9fd" x="223.979353" y="252" style="stroke: #000000; stroke-width: 0.8"/>
      </g>
     </g>
     <g id="text_4">
      <!-- 1500 -->
      <g transform="translate(211.254353 266.598437)scale(0.1 -0.1)">
       <use xlink:href="#DejaVuSans-31"/>
       <use xlink:href="#DejaVuSans-35" x="63.623047"/>
       <use xlink:href="#DejaVuSans-30" x="127.246094"/>
       <use xlink:href="#DejaVuSans-30" x="190.869141"/>
      </g>
     </g>
    </g>
    <g id="xtick_5">
     <g id="line2d_9">
      <path d="M 275.56641 252 
L 275.56641 34.56 
" clip-path="url(#p5e388fb8d5)" style="fill: none; stroke-dasharray: 2.96,1.28; stroke-dashoffset: 0; stroke: #b0b0b0; stroke-width: 0.8"/>
     </g>
     <g id="line2d_10">
      <g>
       <use xlink:href="#m7afa61f9fd" x="275.56641" y="252" style="stroke: #000000; stroke-width: 0.8"/>
      </g>
     </g>
     <g id="text_5">
      <!-- 2000 -->
      <g transform="translate(262.84141 266.598437)scale(0.1 -0.1)">
       <defs>
        <path id="DejaVuSans-32" d="M 1228 531 
L 3431 531 
L 3431 0 
L 469 0 
L 469 531 
Q 828 903 1448 1529 
Q 2069 2156 2228 2338 
Q 2531 2678 2651 2914 
Q 2772 3150 2772 3378 
Q 2772 3750 2511 3984 
Q 2250 4219 1831 4219 
Q 1534 4219 1204 4116 
Q 875 4013 500 3803 
L 500 4441 
Q 881 4594 1212 4672 
Q 1544 4750 1819 4750 
Q 2544 4750 2975 4387 
Q 3406 4025 3406 3419 
Q 3406 3131 3298 2873 
Q 3191 2616 2906 2266 
Q 2828 2175 2409 1742 
Q 1991 1309 1228 531 
z
" transform="scale(0.015625)"/>
       </defs>
       <use xlink:href="#DejaVuSans-32"/>
       <use xlink:href="#DejaVuSans-30" x="63.623047"/>
       <use xlink:href="#DejaVuSans-30" x="127.246094"/>
       <use xlink:href="#DejaVuSans-30" x="190.869141"/>
      </g>
     </g>
    </g>
    <g id="xtick_6">
     <g id="line2d_11">
      <path d="M 327.153467 252 
L 327.153467 34.56 
" clip-path="url(#p5e388fb8d5)" style="fill: none; stroke-dasharray: 2.96,1.28; stroke-dashoffset: 0; stroke: #b0b0b0; stroke-width: 0.8"/>
     </g>
     <g id="line2d_12">
      <g>
       <use xlink:href="#m7afa61f9fd" x="327.153467" y="252" style="stroke: #000000; stroke-width: 0.8"/>
      </g>
     </g>
     <g id="text_6">
      <!-- 2500 -->
      <g transform="translate(314.428467 266.598437)scale(0.1 -0.1)">
       <use xlink:href="#DejaVuSans-32"/>
       <use xlink:href="#DejaVuSans-35" x="63.623047"/>
       <use xlink:href="#DejaVuSans-30" x="127.246094"/>
       <use xlink:href="#DejaVuSans-30" x="190.869141"/>
      </g>
     </g>
    </g>
    <g id="xtick_7">
     <g id="line2d_13">
      <path d="M 378.740524 252 
L 378.740524 34.56 
" clip-path="url(#p5e388fb8d5)" style="fill: none; stroke-dasharray: 2.96,1.28; stroke-dashoffset: 0; stroke: #b0b0b0; stroke-width: 0.8"/>
     </g>
     <g id="line2d_14">
      <g>
       <use xlink:href="#m7afa61f9fd" x="378.740524" y="252" style="stroke: #000000; stroke-width: 0.8"/>
      </g>
     </g>
     <g id="text_7">
      <!-- 3000 -->
      <g transform="translate(366.015524 266.598437)scale(0.1 -0.1)">
       <defs>
        <path id="DejaVuSans-33" d="M 2597 2516 
Q 3050 2419 3304 2112 
Q 3559 1806 3559 1356 
Q 3559 666 3084 287 
Q 2609 -91 1734 -91 
Q 1441 -91 1130 -33 
Q 819 25 488 141 
L 488 750 
Q 750 597 1062 519 
Q 1375 441 1716 441 
Q 2309 441 2620 675 
Q 2931 909 2931 1356 
Q 2931 1769 2642 2001 
Q 2353 2234 1838 2234 
L 1294 2234 
L 1294 2753 
L 1863 2753 
Q 2328 2753 2575 2939 
Q 2822 3125 2822 3475 
Q 2822 3834 2567 4026 
Q 2313 4219 1838 4219 
Q 1578 4219 1281 4162 
Q 984 4106 628 3988 
L 628 4550 
Q 988 4650 1302 4700 
Q 1616 4750 1894 4750 
Q 2613 4750 3031 4423 
Q 3450 4097 3450 3541 
Q 3450 3153 3228 2886 
Q 3006 2619 2597 2516 
z
" transform="scale(0.015625)"/>
       </defs>
       <use xlink:href="#DejaVuSans-33"/>
       <use xlink:href="#DejaVuSans-30" x="63.623047"/>
       <use xlink:href="#DejaVuSans-30" x="127.246094"/>
       <use xlink:href="#DejaVuSans-30" x="190.869141"/>
      </g>
     </g>
    </g>
    <g id="text_8">
     <!-- Steps -->
     <g transform="translate(207.410156 280.276563)scale(0.1 -0.1)">
      <defs>
       <path id="DejaVuSans-53" d="M 3425 4513 
L 3425 3897 
Q 3066 4069 2747 4153 
Q 2428 4238 2131 4238 
Q 1616 4238 1336 4038 
Q 1056 3838 1056 3469 
Q 1056 3159 1242 3001 
Q 1428 2844 1947 2747 
L 2328 2669 
Q 3034 2534 3370 2195 
Q 3706 1856 3706 1288 
Q 3706 609 3251 259 
Q 2797 -91 1919 -91 
Q 1588 -91 1214 -16 
Q 841 59 441 206 
L 441 856 
Q 825 641 1194 531 
Q 1563 422 1919 422 
Q 2459 422 2753 634 
Q 3047 847 3047 1241 
Q 3047 1584 2836 1778 
Q 2625 1972 2144 2069 
L 1759 2144 
Q 1053 2284 737 2584 
Q 422 2884 422 3419 
Q 422 4038 858 4394 
Q 1294 4750 2059 4750 
Q 2388 4750 2728 4690 
Q 3069 4631 3425 4513 
z
" transform="scale(0.015625)"/>
       <path id="DejaVuSans-74" d="M 1172 4494 
L 1172 3500 
L 2356 3500 
L 2356 3053 
L 1172 3053 
L 1172 1153 
Q 1172 725 1289 603 
Q 1406 481 1766 481 
L 2356 481 
L 2356 0 
L 1766 0 
Q 1100 0 847 248 
Q 594 497 594 1153 
L 594 3053 
L 172 3053 
L 172 3500 
L 594 3500 
L 594 4494 
L 1172 4494 
z
" transform="scale(0.015625)"/>
       <path id="DejaVuSans-65" d="M 3597 1894 
L 3597 1613 
L 953 1613 
Q 991 1019 1311 708 
Q 1631 397 2203 397 
Q 2534 397 2845 478 
Q 3156 559 3463 722 
L 3463 178 
Q 3153 47 2828 -22 
Q 2503 -91 2169 -91 
Q 1331 -91 842 396 
Q 353 884 353 1716 
Q 353 2575 817 3079 
Q 1281 3584 2069 3584 
Q 2775 3584 3186 3129 
Q 3597 2675 3597 1894 
z
M 3022 2063 
Q 3016 2534 2758 2815 
Q 2500 3097 2075 3097 
Q 1594 3097 1305 2825 
Q 1016 2553 972 2059 
L 3022 2063 
z
" transform="scale(0.015625)"/>
       <path id="DejaVuSans-70" d="M 1159 525 
L 1159 -1331 
L 581 -1331 
L 581 3500 
L 1159 3500 
L 1159 2969 
Q 1341 3281 1617 3432 
Q 1894 3584 2278 3584 
Q 2916 3584 3314 3078 
Q 3713 2572 3713 1747 
Q 3713 922 3314 415 
Q 2916 -91 2278 -91 
Q 1894 -91 1617 61 
Q 1341 213 1159 525 
z
M 3116 1747 
Q 3116 2381 2855 2742 
Q 2594 3103 2138 3103 
Q 1681 3103 1420 2742 
Q 1159 2381 1159 1747 
Q 1159 1113 1420 752 
Q 1681 391 2138 391 
Q 2594 391 2855 752 
Q 3116 1113 3116 1747 
z
" transform="scale(0.015625)"/>
       <path id="DejaVuSans-73" d="M 2834 3397 
L 2834 2853 
Q 2591 2978 2328 3040 
Q 2066 3103 1784 3103 
Q 1356 3103 1142 2972 
Q 928 2841 928 2578 
Q 928 2378 1081 2264 
Q 1234 2150 1697 2047 
L 1894 2003 
Q 2506 1872 2764 1633 
Q 3022 1394 3022 966 
Q 3022 478 2636 193 
Q 2250 -91 1575 -91 
Q 1294 -91 989 -36 
Q 684 19 347 128 
L 347 722 
Q 666 556 975 473 
Q 1284 391 1588 391 
Q 1994 391 2212 530 
Q 2431 669 2431 922 
Q 2431 1156 2273 1281 
Q 2116 1406 1581 1522 
L 1381 1569 
Q 847 1681 609 1914 
Q 372 2147 372 2553 
Q 372 3047 722 3315 
Q 1072 3584 1716 3584 
Q 2034 3584 2315 3537 
Q 2597 3491 2834 3397 
z
" transform="scale(0.015625)"/>
      </defs>
      <use xlink:href="#DejaVuSans-53"/>
      <use xlink:href="#DejaVuSans-74" x="63.476562"/>
      <use xlink:href="#DejaVuSans-65" x="102.685547"/>
      <use xlink:href="#DejaVuSans-70" x="164.208984"/>
      <use xlink:href="#DejaVuSans-73" x="227.685547"/>
     </g>
    </g>
   </g>
   <g id="matplotlib.axis_2">
    <g id="ytick_1">
     <g id="line2d_15">
      <path d="M 54 243.636923 
L 388.8 243.636923 
" clip-path="url(#p5e388fb8d5)" style="fill: none; stroke-dasharray: 2.96,1.28; stroke-dashoffset: 0; stroke: #b0b0b0; stroke-width: 0.8"/>
     </g>
     <g id="line2d_16">
      <defs>
       <path id="m3087bd62e3" d="M 0 0 
L -3.5 0 
" style="stroke: #000000; stroke-width: 0.8"/>
      </defs>
      <g>
       <use xlink:href="#m3087bd62e3" x="54" y="243.636923" style="stroke: #000000; stroke-width: 0.8"/>
      </g>
     </g>
     <g id="text_9">
      <!-- −12 -->
      <g transform="translate(25.895312 247.436142)scale(0.1 -0.1)">
       <defs>
        <path id="DejaVuSans-2212" d="M 678 2272 
L 4684 2272 
L 4684 1741 
L 678 1741 
L 678 2272 
z
" transform="scale(0.015625)"/>
       </defs>
       <use xlink:href="#DejaVuSans-2212"/>
       <use xlink:href="#DejaVuSans-31" x="83.789062"/>
       <use xlink:href="#DejaVuSans-32" x="147.412109"/>
      </g>
     </g>
    </g>
    <g id="ytick_2">
     <g id="line2d_17">
      <path d="M 54 210.184615 
L 388.8 210.184615 
" clip-path="url(#p5e388fb8d5)" style="fill: none; stroke-dasharray: 2.96,1.28; stroke-dashoffset: 0; stroke: #b0b0b0; stroke-width: 0.8"/>
     </g>
     <g id="line2d_18">
      <g>
       <use xlink:href="#m3087bd62e3" x="54" y="210.184615" style="stroke: #000000; stroke-width: 0.8"/>
      </g>
     </g>
     <g id="text_10">
      <!-- −10 -->
      <g transform="translate(25.895312 213.983834)scale(0.1 -0.1)">
       <use xlink:href="#DejaVuSans-2212"/>
       <use xlink:href="#DejaVuSans-31" x="83.789062"/>
       <use xlink:href="#DejaVuSans-30" x="147.412109"/>
      </g>
     </g>
    </g>
    <g id="ytick_3">
     <g id="line2d_19">
      <path d="M 54 176.732308 
L 388.8 176.732308 
" clip-path="url(#p5e388fb8d5)" style="fill: none; stroke-dasharray: 2.96,1.28; stroke-dashoffset: 0; stroke: #b0b0b0; stroke-width: 0.8"/>
     </g>
     <g id="line2d_20">
      <g>
       <use xlink:href="#m3087bd62e3" x="54" y="176.732308" style="stroke: #000000; stroke-width: 0.8"/>
      </g>
     </g>
     <g id="text_11">
      <!-- −8 -->
      <g transform="translate(32.257812 180.531526)scale(0.1 -0.1)">
       <defs>
        <path id="DejaVuSans-38" d="M 2034 2216 
Q 1584 2216 1326 1975 
Q 1069 1734 1069 1313 
Q 1069 891 1326 650 
Q 1584 409 2034 409 
Q 2484 409 2743 651 
Q 3003 894 3003 1313 
Q 3003 1734 2745 1975 
Q 2488 2216 2034 2216 
z
M 1403 2484 
Q 997 2584 770 2862 
Q 544 3141 544 3541 
Q 544 4100 942 4425 
Q 1341 4750 2034 4750 
Q 2731 4750 3128 4425 
Q 3525 4100 3525 3541 
Q 3525 3141 3298 2862 
Q 3072 2584 2669 2484 
Q 3125 2378 3379 2068 
Q 3634 1759 3634 1313 
Q 3634 634 3220 271 
Q 2806 -91 2034 -91 
Q 1263 -91 848 271 
Q 434 634 434 1313 
Q 434 1759 690 2068 
Q 947 2378 1403 2484 
z
M 1172 3481 
Q 1172 3119 1398 2916 
Q 1625 2713 2034 2713 
Q 2441 2713 2670 2916 
Q 2900 3119 2900 3481 
Q 2900 3844 2670 4047 
Q 2441 4250 2034 4250 
Q 1625 4250 1398 4047 
Q 1172 3844 1172 3481 
z
" transform="scale(0.015625)"/>
       </defs>
       <use xlink:href="#DejaVuSans-2212"/>
       <use xlink:href="#DejaVuSans-38" x="83.789062"/>
      </g>
     </g>
    </g>
    <g id="ytick_4">
     <g id="line2d_21">
      <path d="M 54 143.28 
L 388.8 143.28 
" clip-path="url(#p5e388fb8d5)" style="fill: none; stroke-dasharray: 2.96,1.28; stroke-dashoffset: 0; stroke: #b0b0b0; stroke-width: 0.8"/>
     </g>
     <g id="line2d_22">
      <g>
       <use xlink:href="#m3087bd62e3" x="54" y="143.28" style="stroke: #000000; stroke-width: 0.8"/>
      </g>
     </g>
     <g id="text_12">
      <!-- −6 -->
      <g transform="translate(32.257812 147.079219)scale(0.1 -0.1)">
       <defs>
        <path id="DejaVuSans-36" d="M 2113 2584 
Q 1688 2584 1439 2293 
Q 1191 2003 1191 1497 
Q 1191 994 1439 701 
Q 1688 409 2113 409 
Q 2538 409 2786 701 
Q 3034 994 3034 1497 
Q 3034 2003 2786 2293 
Q 2538 2584 2113 2584 
z
M 3366 4563 
L 3366 3988 
Q 3128 4100 2886 4159 
Q 2644 4219 2406 4219 
Q 1781 4219 1451 3797 
Q 1122 3375 1075 2522 
Q 1259 2794 1537 2939 
Q 1816 3084 2150 3084 
Q 2853 3084 3261 2657 
Q 3669 2231 3669 1497 
Q 3669 778 3244 343 
Q 2819 -91 2113 -91 
Q 1303 -91 875 529 
Q 447 1150 447 2328 
Q 447 3434 972 4092 
Q 1497 4750 2381 4750 
Q 2619 4750 2861 4703 
Q 3103 4656 3366 4563 
z
" transform="scale(0.015625)"/>
       </defs>
       <use xlink:href="#DejaVuSans-2212"/>
       <use xlink:href="#DejaVuSans-36" x="83.789062"/>
      </g>
     </g>
    </g>
    <g id="ytick_5">
     <g id="line2d_23">
      <path d="M 54 109.827692 
L 388.8 109.827692 
" clip-path="url(#p5e388fb8d5)" style="fill: none; stroke-dasharray: 2.96,1.28; stroke-dashoffset: 0; stroke: #b0b0b0; stroke-width: 0.8"/>
     </g>
     <g id="line2d_24">
      <g>
       <use xlink:href="#m3087bd62e3" x="54" y="109.827692" style="stroke: #000000; stroke-width: 0.8"/>
      </g>
     </g>
     <g id="text_13">
      <!-- −4 -->
      <g transform="translate(32.257812 113.626911)scale(0.1 -0.1)">
       <defs>
        <path id="DejaVuSans-34" d="M 2419 4116 
L 825 1625 
L 2419 1625 
L 2419 4116 
z
M 2253 4666 
L 3047 4666 
L 3047 1625 
L 3713 1625 
L 3713 1100 
L 3047 1100 
L 3047 0 
L 2419 0 
L 2419 1100 
L 313 1100 
L 313 1709 
L 2253 4666 
z
" transform="scale(0.015625)"/>
       </defs>
       <use xlink:href="#DejaVuSans-2212"/>
       <use xlink:href="#DejaVuSans-34" x="83.789062"/>
      </g>
     </g>
    </g>
    <g id="ytick_6">
     <g id="line2d_25">
      <path d="M 54 76.375385 
L 388.8 76.375385 
" clip-path="url(#p5e388fb8d5)" style="fill: none; stroke-dasharray: 2.96,1.28; stroke-dashoffset: 0; stroke: #b0b0b0; stroke-width: 0.8"/>
     </g>
     <g id="line2d_26">
      <g>
       <use xlink:href="#m3087bd62e3" x="54" y="76.375385" style="stroke: #000000; stroke-width: 0.8"/>
      </g>
     </g>
     <g id="text_14">
      <!-- −2 -->
      <g transform="translate(32.257812 80.174603)scale(0.1 -0.1)">
       <use xlink:href="#DejaVuSans-2212"/>
       <use xlink:href="#DejaVuSans-32" x="83.789062"/>
      </g>
     </g>
    </g>
    <g id="ytick_7">
     <g id="line2d_27">
      <path d="M 54 42.923077 
L 388.8 42.923077 
" clip-path="url(#p5e388fb8d5)" style="fill: none; stroke-dasharray: 2.96,1.28; stroke-dashoffset: 0; stroke: #b0b0b0; stroke-width: 0.8"/>
     </g>
     <g id="line2d_28">
      <g>
       <use xlink:href="#m3087bd62e3" x="54" y="42.923077" style="stroke: #000000; stroke-width: 0.8"/>
      </g>
     </g>
     <g id="text_15">
      <!-- 0 -->
      <g transform="translate(40.6375 46.722296)scale(0.1 -0.1)">
       <use xlink:href="#DejaVuSans-30"/>
      </g>
     </g>
    </g>
    <g id="text_16">
     <!-- Policy value error -->
     <g transform="translate(19.815625 186.597969)rotate(-90)scale(0.1 -0.1)">
      <defs>
       <path id="DejaVuSans-50" d="M 1259 4147 
L 1259 2394 
L 2053 2394 
Q 2494 2394 2734 2622 
Q 2975 2850 2975 3272 
Q 2975 3691 2734 3919 
Q 2494 4147 2053 4147 
L 1259 4147 
z
M 628 4666 
L 2053 4666 
Q 2838 4666 3239 4311 
Q 3641 3956 3641 3272 
Q 3641 2581 3239 2228 
Q 2838 1875 2053 1875 
L 1259 1875 
L 1259 0 
L 628 0 
L 628 4666 
z
" transform="scale(0.015625)"/>
       <path id="DejaVuSans-6f" d="M 1959 3097 
Q 1497 3097 1228 2736 
Q 959 2375 959 1747 
Q 959 1119 1226 758 
Q 1494 397 1959 397 
Q 2419 397 2687 759 
Q 2956 1122 2956 1747 
Q 2956 2369 2687 2733 
Q 2419 3097 1959 3097 
z
M 1959 3584 
Q 2709 3584 3137 3096 
Q 3566 2609 3566 1747 
Q 3566 888 3137 398 
Q 2709 -91 1959 -91 
Q 1206 -91 779 398 
Q 353 888 353 1747 
Q 353 2609 779 3096 
Q 1206 3584 1959 3584 
z
" transform="scale(0.015625)"/>
       <path id="DejaVuSans-6c" d="M 603 4863 
L 1178 4863 
L 1178 0 
L 603 0 
L 603 4863 
z
" transform="scale(0.015625)"/>
       <path id="DejaVuSans-69" d="M 603 3500 
L 1178 3500 
L 1178 0 
L 603 0 
L 603 3500 
z
M 603 4863 
L 1178 4863 
L 1178 4134 
L 603 4134 
L 603 4863 
z
" transform="scale(0.015625)"/>
       <path id="DejaVuSans-63" d="M 3122 3366 
L 3122 2828 
Q 2878 2963 2633 3030 
Q 2388 3097 2138 3097 
Q 1578 3097 1268 2742 
Q 959 2388 959 1747 
Q 959 1106 1268 751 
Q 1578 397 2138 397 
Q 2388 397 2633 464 
Q 2878 531 3122 666 
L 3122 134 
Q 2881 22 2623 -34 
Q 2366 -91 2075 -91 
Q 1284 -91 818 406 
Q 353 903 353 1747 
Q 353 2603 823 3093 
Q 1294 3584 2113 3584 
Q 2378 3584 2631 3529 
Q 2884 3475 3122 3366 
z
" transform="scale(0.015625)"/>
       <path id="DejaVuSans-79" d="M 2059 -325 
Q 1816 -950 1584 -1140 
Q 1353 -1331 966 -1331 
L 506 -1331 
L 506 -850 
L 844 -850 
Q 1081 -850 1212 -737 
Q 1344 -625 1503 -206 
L 1606 56 
L 191 3500 
L 800 3500 
L 1894 763 
L 2988 3500 
L 3597 3500 
L 2059 -325 
z
" transform="scale(0.015625)"/>
       <path id="DejaVuSans-20" transform="scale(0.015625)"/>
       <path id="DejaVuSans-76" d="M 191 3500 
L 800 3500 
L 1894 563 
L 2988 3500 
L 3597 3500 
L 2284 0 
L 1503 0 
L 191 3500 
z
" transform="scale(0.015625)"/>
       <path id="DejaVuSans-61" d="M 2194 1759 
Q 1497 1759 1228 1600 
Q 959 1441 959 1056 
Q 959 750 1161 570 
Q 1363 391 1709 391 
Q 2188 391 2477 730 
Q 2766 1069 2766 1631 
L 2766 1759 
L 2194 1759 
z
M 3341 1997 
L 3341 0 
L 2766 0 
L 2766 531 
Q 2569 213 2275 61 
Q 1981 -91 1556 -91 
Q 1019 -91 701 211 
Q 384 513 384 1019 
Q 384 1609 779 1909 
Q 1175 2209 1959 2209 
L 2766 2209 
L 2766 2266 
Q 2766 2663 2505 2880 
Q 2244 3097 1772 3097 
Q 1472 3097 1187 3025 
Q 903 2953 641 2809 
L 641 3341 
Q 956 3463 1253 3523 
Q 1550 3584 1831 3584 
Q 2591 3584 2966 3190 
Q 3341 2797 3341 1997 
z
" transform="scale(0.015625)"/>
       <path id="DejaVuSans-75" d="M 544 1381 
L 544 3500 
L 1119 3500 
L 1119 1403 
Q 1119 906 1312 657 
Q 1506 409 1894 409 
Q 2359 409 2629 706 
Q 2900 1003 2900 1516 
L 2900 3500 
L 3475 3500 
L 3475 0 
L 2900 0 
L 2900 538 
Q 2691 219 2414 64 
Q 2138 -91 1772 -91 
Q 1169 -91 856 284 
Q 544 659 544 1381 
z
M 1991 3584 
L 1991 3584 
z
" transform="scale(0.015625)"/>
       <path id="DejaVuSans-72" d="M 2631 2963 
Q 2534 3019 2420 3045 
Q 2306 3072 2169 3072 
Q 1681 3072 1420 2755 
Q 1159 2438 1159 1844 
L 1159 0 
L 581 0 
L 581 3500 
L 1159 3500 
L 1159 2956 
Q 1341 3275 1631 3429 
Q 1922 3584 2338 3584 
Q 2397 3584 2469 3576 
Q 2541 3569 2628 3553 
L 2631 2963 
z
" transform="scale(0.015625)"/>
      </defs>
      <use xlink:href="#DejaVuSans-50"/>
      <use xlink:href="#DejaVuSans-6f" x="56.677734"/>
      <use xlink:href="#DejaVuSans-6c" x="117.859375"/>
      <use xlink:href="#DejaVuSans-69" x="145.642578"/>
      <use xlink:href="#DejaVuSans-63" x="173.425781"/>
      <use xlink:href="#DejaVuSans-79" x="228.40625"/>
      <use xlink:href="#DejaVuSans-20" x="287.585938"/>
      <use xlink:href="#DejaVuSans-76" x="319.373047"/>
      <use xlink:href="#DejaVuSans-61" x="378.552734"/>
      <use xlink:href="#DejaVuSans-6c" x="439.832031"/>
      <use xlink:href="#DejaVuSans-75" x="467.615234"/>
      <use xlink:href="#DejaVuSans-65" x="530.994141"/>
      <use xlink:href="#DejaVuSans-20" x="592.517578"/>
      <use xlink:href="#DejaVuSans-65" x="624.304688"/>
      <use xlink:href="#DejaVuSans-72" x="685.828125"/>
      <use xlink:href="#DejaVuSans-72" x="725.191406"/>
      <use xlink:href="#DejaVuSans-6f" x="764.054688"/>
      <use xlink:href="#DejaVuSans-72" x="825.236328"/>
     </g>
    </g>
   </g>
   <g id="line2d_29">
    <path d="M 69.218182 254.270881 
L 74.376888 252.908818 
L 79.535593 253.072248 
L 84.694299 252.910717 
L 89.853005 214.380987 
L 95.01171 220.540853 
L 100.170416 208.803503 
L 105.329122 195.998286 
L 110.487827 166.085811 
L 115.646533 223.647203 
L 120.805239 200.68146 
L 125.963945 160.712084 
L 131.12265 206.425578 
L 136.281356 207.517039 
L 141.440062 240.962662 
L 146.598767 188.823308 
L 151.757473 170.126002 
L 156.916179 150.968052 
L 162.074884 150.965864 
L 167.23359 163.879826 
L 172.392296 176.605129 
L 177.551002 159.003585 
L 182.709707 159.510749 
L 187.868413 45.457202 
L 193.027119 44.989937 
L 198.185824 115.182105 
L 203.34453 115.328084 
L 208.503236 115.773775 
L 213.661941 44.549265 
L 218.820647 45.584935 
L 223.979353 45.584935 
L 229.138059 45.734142 
L 234.296764 45.734142 
L 239.45547 45.611186 
L 244.614176 45.611186 
L 249.772881 45.611186 
L 254.931587 44.574643 
L 260.090293 44.574461 
L 265.248998 44.574461 
L 270.407704 44.574461 
L 275.56641 44.574461 
L 280.725116 44.574461 
L 285.883821 44.574461 
L 291.042527 44.574461 
L 296.201233 44.549083 
L 301.359938 44.549083 
L 306.518644 44.549083 
L 311.67735 44.574461 
L 316.836055 44.574461 
L 321.994761 44.574461 
L 327.153467 44.574461 
L 332.312173 53.133861 
L 337.470878 53.133861 
L 342.629584 53.133861 
L 347.78829 53.133861 
L 352.946995 53.133861 
L 358.105701 43.836333 
L 363.264407 43.836333 
L 368.423112 44.574461 
L 373.581818 44.33925 
" clip-path="url(#p5e388fb8d5)" style="fill: none; stroke: #9d02d7; stroke-width: 1.5; stroke-linecap: square"/>
    <defs>
     <path id="m8a35582102" d="M 0 -2 
L -2 2 
L 2 2 
z
" style="stroke: #9d02d7; stroke-linejoin: miter"/>
    </defs>
    <g clip-path="url(#p5e388fb8d5)">
     <use xlink:href="#m8a35582102" x="69.218182" y="254.270881" style="fill: #9d02d7; stroke: #9d02d7; stroke-linejoin: miter"/>
     <use xlink:href="#m8a35582102" x="74.376888" y="252.908818" style="fill: #9d02d7; stroke: #9d02d7; stroke-linejoin: miter"/>
     <use xlink:href="#m8a35582102" x="79.535593" y="253.072248" style="fill: #9d02d7; stroke: #9d02d7; stroke-linejoin: miter"/>
     <use xlink:href="#m8a35582102" x="84.694299" y="252.910717" style="fill: #9d02d7; stroke: #9d02d7; stroke-linejoin: miter"/>
     <use xlink:href="#m8a35582102" x="89.853005" y="214.380987" style="fill: #9d02d7; stroke: #9d02d7; stroke-linejoin: miter"/>
     <use xlink:href="#m8a35582102" x="95.01171" y="220.540853" style="fill: #9d02d7; stroke: #9d02d7; stroke-linejoin: miter"/>
     <use xlink:href="#m8a35582102" x="100.170416" y="208.803503" style="fill: #9d02d7; stroke: #9d02d7; stroke-linejoin: miter"/>
     <use xlink:href="#m8a35582102" x="105.329122" y="195.998286" style="fill: #9d02d7; stroke: #9d02d7; stroke-linejoin: miter"/>
     <use xlink:href="#m8a35582102" x="110.487827" y="166.085811" style="fill: #9d02d7; stroke: #9d02d7; stroke-linejoin: miter"/>
     <use xlink:href="#m8a35582102" x="115.646533" y="223.647203" style="fill: #9d02d7; stroke: #9d02d7; stroke-linejoin: miter"/>
     <use xlink:href="#m8a35582102" x="120.805239" y="200.68146" style="fill: #9d02d7; stroke: #9d02d7; stroke-linejoin: miter"/>
     <use xlink:href="#m8a35582102" x="125.963945" y="160.712084" style="fill: #9d02d7; stroke: #9d02d7; stroke-linejoin: miter"/>
     <use xlink:href="#m8a35582102" x="131.12265" y="206.425578" style="fill: #9d02d7; stroke: #9d02d7; stroke-linejoin: miter"/>
     <use xlink:href="#m8a35582102" x="136.281356" y="207.517039" style="fill: #9d02d7; stroke: #9d02d7; stroke-linejoin: miter"/>
     <use xlink:href="#m8a35582102" x="141.440062" y="240.962662" style="fill: #9d02d7; stroke: #9d02d7; stroke-linejoin: miter"/>
     <use xlink:href="#m8a35582102" x="146.598767" y="188.823308" style="fill: #9d02d7; stroke: #9d02d7; stroke-linejoin: miter"/>
     <use xlink:href="#m8a35582102" x="151.757473" y="170.126002" style="fill: #9d02d7; stroke: #9d02d7; stroke-linejoin: miter"/>
     <use xlink:href="#m8a35582102" x="156.916179" y="150.968052" style="fill: #9d02d7; stroke: #9d02d7; stroke-linejoin: miter"/>
     <use xlink:href="#m8a35582102" x="162.074884" y="150.965864" style="fill: #9d02d7; stroke: #9d02d7; stroke-linejoin: miter"/>
     <use xlink:href="#m8a35582102" x="167.23359" y="163.879826" style="fill: #9d02d7; stroke: #9d02d7; stroke-linejoin: miter"/>
     <use xlink:href="#m8a35582102" x="172.392296" y="176.605129" style="fill: #9d02d7; stroke: #9d02d7; stroke-linejoin: miter"/>
     <use xlink:href="#m8a35582102" x="177.551002" y="159.003585" style="fill: #9d02d7; stroke: #9d02d7; stroke-linejoin: miter"/>
     <use xlink:href="#m8a35582102" x="182.709707" y="159.510749" style="fill: #9d02d7; stroke: #9d02d7; stroke-linejoin: miter"/>
     <use xlink:href="#m8a35582102" x="187.868413" y="45.457202" style="fill: #9d02d7; stroke: #9d02d7; stroke-linejoin: miter"/>
     <use xlink:href="#m8a35582102" x="193.027119" y="44.989937" style="fill: #9d02d7; stroke: #9d02d7; stroke-linejoin: miter"/>
     <use xlink:href="#m8a35582102" x="198.185824" y="115.182105" style="fill: #9d02d7; stroke: #9d02d7; stroke-linejoin: miter"/>
     <use xlink:href="#m8a35582102" x="203.34453" y="115.328084" style="fill: #9d02d7; stroke: #9d02d7; stroke-linejoin: miter"/>
     <use xlink:href="#m8a35582102" x="208.503236" y="115.773775" style="fill: #9d02d7; stroke: #9d02d7; stroke-linejoin: miter"/>
     <use xlink:href="#m8a35582102" x="213.661941" y="44.549265" style="fill: #9d02d7; stroke: #9d02d7; stroke-linejoin: miter"/>
     <use xlink:href="#m8a35582102" x="218.820647" y="45.584935" style="fill: #9d02d7; stroke: #9d02d7; stroke-linejoin: miter"/>
     <use xlink:href="#m8a35582102" x="223.979353" y="45.584935" style="fill: #9d02d7; stroke: #9d02d7; stroke-linejoin: miter"/>
     <use xlink:href="#m8a35582102" x="229.138059" y="45.734142" style="fill: #9d02d7; stroke: #9d02d7; stroke-linejoin: miter"/>
     <use xlink:href="#m8a35582102" x="234.296764" y="45.734142" style="fill: #9d02d7; stroke: #9d02d7; stroke-linejoin: miter"/>
     <use xlink:href="#m8a35582102" x="239.45547" y="45.611186" style="fill: #9d02d7; stroke: #9d02d7; stroke-linejoin: miter"/>
     <use xlink:href="#m8a35582102" x="244.614176" y="45.611186" style="fill: #9d02d7; stroke: #9d02d7; stroke-linejoin: miter"/>
     <use xlink:href="#m8a35582102" x="249.772881" y="45.611186" style="fill: #9d02d7; stroke: #9d02d7; stroke-linejoin: miter"/>
     <use xlink:href="#m8a35582102" x="254.931587" y="44.574643" style="fill: #9d02d7; stroke: #9d02d7; stroke-linejoin: miter"/>
     <use xlink:href="#m8a35582102" x="260.090293" y="44.574461" style="fill: #9d02d7; stroke: #9d02d7; stroke-linejoin: miter"/>
     <use xlink:href="#m8a35582102" x="265.248998" y="44.574461" style="fill: #9d02d7; stroke: #9d02d7; stroke-linejoin: miter"/>
     <use xlink:href="#m8a35582102" x="270.407704" y="44.574461" style="fill: #9d02d7; stroke: #9d02d7; stroke-linejoin: miter"/>
     <use xlink:href="#m8a35582102" x="275.56641" y="44.574461" style="fill: #9d02d7; stroke: #9d02d7; stroke-linejoin: miter"/>
     <use xlink:href="#m8a35582102" x="280.725116" y="44.574461" style="fill: #9d02d7; stroke: #9d02d7; stroke-linejoin: miter"/>
     <use xlink:href="#m8a35582102" x="285.883821" y="44.574461" style="fill: #9d02d7; stroke: #9d02d7; stroke-linejoin: miter"/>
     <use xlink:href="#m8a35582102" x="291.042527" y="44.574461" style="fill: #9d02d7; stroke: #9d02d7; stroke-linejoin: miter"/>
     <use xlink:href="#m8a35582102" x="296.201233" y="44.549083" style="fill: #9d02d7; stroke: #9d02d7; stroke-linejoin: miter"/>
     <use xlink:href="#m8a35582102" x="301.359938" y="44.549083" style="fill: #9d02d7; stroke: #9d02d7; stroke-linejoin: miter"/>
     <use xlink:href="#m8a35582102" x="306.518644" y="44.549083" style="fill: #9d02d7; stroke: #9d02d7; stroke-linejoin: miter"/>
     <use xlink:href="#m8a35582102" x="311.67735" y="44.574461" style="fill: #9d02d7; stroke: #9d02d7; stroke-linejoin: miter"/>
     <use xlink:href="#m8a35582102" x="316.836055" y="44.574461" style="fill: #9d02d7; stroke: #9d02d7; stroke-linejoin: miter"/>
     <use xlink:href="#m8a35582102" x="321.994761" y="44.574461" style="fill: #9d02d7; stroke: #9d02d7; stroke-linejoin: miter"/>
     <use xlink:href="#m8a35582102" x="327.153467" y="44.574461" style="fill: #9d02d7; stroke: #9d02d7; stroke-linejoin: miter"/>
     <use xlink:href="#m8a35582102" x="332.312173" y="53.133861" style="fill: #9d02d7; stroke: #9d02d7; stroke-linejoin: miter"/>
     <use xlink:href="#m8a35582102" x="337.470878" y="53.133861" style="fill: #9d02d7; stroke: #9d02d7; stroke-linejoin: miter"/>
     <use xlink:href="#m8a35582102" x="342.629584" y="53.133861" style="fill: #9d02d7; stroke: #9d02d7; stroke-linejoin: miter"/>
     <use xlink:href="#m8a35582102" x="347.78829" y="53.133861" style="fill: #9d02d7; stroke: #9d02d7; stroke-linejoin: miter"/>
     <use xlink:href="#m8a35582102" x="352.946995" y="53.133861" style="fill: #9d02d7; stroke: #9d02d7; stroke-linejoin: miter"/>
     <use xlink:href="#m8a35582102" x="358.105701" y="43.836333" style="fill: #9d02d7; stroke: #9d02d7; stroke-linejoin: miter"/>
     <use xlink:href="#m8a35582102" x="363.264407" y="43.836333" style="fill: #9d02d7; stroke: #9d02d7; stroke-linejoin: miter"/>
     <use xlink:href="#m8a35582102" x="368.423112" y="44.574461" style="fill: #9d02d7; stroke: #9d02d7; stroke-linejoin: miter"/>
     <use xlink:href="#m8a35582102" x="373.581818" y="44.33925" style="fill: #9d02d7; stroke: #9d02d7; stroke-linejoin: miter"/>
    </g>
   </g>
   <g id="line2d_30">
    <path d="M 69.218182 254.273641 
L 74.376888 254.604342 
L 79.535593 250.887431 
L 84.694299 252.861615 
L 89.853005 252.908818 
L 95.01171 253.086542 
L 100.170416 252.908818 
L 105.329122 252.920836 
L 110.487827 252.908818 
L 115.646533 252.908818 
L 120.805239 252.957444 
L 125.963945 252.908818 
L 131.12265 252.913535 
L 136.281356 252.910585 
L 141.440062 252.908818 
L 146.598767 243.248946 
L 151.757473 169.348289 
L 156.916179 172.506183 
L 162.074884 163.133718 
L 167.23359 236.621867 
L 172.392296 158.909863 
L 177.551002 165.579809 
L 182.709707 181.080559 
L 187.868413 116.169091 
L 193.027119 116.169091 
L 198.185824 116.169091 
L 203.34453 114.637343 
L 208.503236 114.637343 
L 213.661941 114.637343 
L 218.820647 114.355148 
L 223.979353 193.77399 
L 229.138059 43.278545 
L 234.296764 43.278545 
L 239.45547 43.492691 
L 244.614176 43.278545 
L 249.772881 43.492691 
L 254.931587 43.686016 
L 260.090293 43.492691 
L 265.248998 43.492691 
L 270.407704 43.492691 
L 275.56641 43.492691 
L 280.725116 43.492691 
L 285.883821 43.492691 
L 291.042527 43.611489 
L 296.201233 43.611489 
L 301.359938 43.611489 
L 306.518644 43.611489 
L 311.67735 43.492691 
L 316.836055 47.131836 
L 321.994761 47.131836 
L 327.153467 47.131836 
L 332.312173 43.492691 
L 337.470878 43.492691 
L 342.629584 43.492691 
L 347.78829 43.492691 
L 352.946995 43.492691 
L 358.105701 43.492691 
L 363.264407 43.492691 
L 368.423112 43.492691 
L 373.581818 43.492691 
" clip-path="url(#p5e388fb8d5)" style="fill: none; stroke: #0000ff; stroke-width: 1.5; stroke-linecap: square"/>
    <defs>
     <path id="ma13c8a2520" d="M 0 2 
C 0.530406 2 1.03916 1.789267 1.414214 1.414214 
C 1.789267 1.03916 2 0.530406 2 0 
C 2 -0.530406 1.789267 -1.03916 1.414214 -1.414214 
C 1.03916 -1.789267 0.530406 -2 0 -2 
C -0.530406 -2 -1.03916 -1.789267 -1.414214 -1.414214 
C -1.789267 -1.03916 -2 -0.530406 -2 0 
C -2 0.530406 -1.789267 1.03916 -1.414214 1.414214 
C -1.03916 1.789267 -0.530406 2 0 2 
z
" style="stroke: #0000ff"/>
    </defs>
    <g clip-path="url(#p5e388fb8d5)">
     <use xlink:href="#ma13c8a2520" x="69.218182" y="254.273641" style="fill: #0000ff; stroke: #0000ff"/>
     <use xlink:href="#ma13c8a2520" x="74.376888" y="254.604342" style="fill: #0000ff; stroke: #0000ff"/>
     <use xlink:href="#ma13c8a2520" x="79.535593" y="250.887431" style="fill: #0000ff; stroke: #0000ff"/>
     <use xlink:href="#ma13c8a2520" x="84.694299" y="252.861615" style="fill: #0000ff; stroke: #0000ff"/>
     <use xlink:href="#ma13c8a2520" x="89.853005" y="252.908818" style="fill: #0000ff; stroke: #0000ff"/>
     <use xlink:href="#ma13c8a2520" x="95.01171" y="253.086542" style="fill: #0000ff; stroke: #0000ff"/>
     <use xlink:href="#ma13c8a2520" x="100.170416" y="252.908818" style="fill: #0000ff; stroke: #0000ff"/>
     <use xlink:href="#ma13c8a2520" x="105.329122" y="252.920836" style="fill: #0000ff; stroke: #0000ff"/>
     <use xlink:href="#ma13c8a2520" x="110.487827" y="252.908818" style="fill: #0000ff; stroke: #0000ff"/>
     <use xlink:href="#ma13c8a2520" x="115.646533" y="252.908818" style="fill: #0000ff; stroke: #0000ff"/>
     <use xlink:href="#ma13c8a2520" x="120.805239" y="252.957444" style="fill: #0000ff; stroke: #0000ff"/>
     <use xlink:href="#ma13c8a2520" x="125.963945" y="252.908818" style="fill: #0000ff; stroke: #0000ff"/>
     <use xlink:href="#ma13c8a2520" x="131.12265" y="252.913535" style="fill: #0000ff; stroke: #0000ff"/>
     <use xlink:href="#ma13c8a2520" x="136.281356" y="252.910585" style="fill: #0000ff; stroke: #0000ff"/>
     <use xlink:href="#ma13c8a2520" x="141.440062" y="252.908818" style="fill: #0000ff; stroke: #0000ff"/>
     <use xlink:href="#ma13c8a2520" x="146.598767" y="243.248946" style="fill: #0000ff; stroke: #0000ff"/>
     <use xlink:href="#ma13c8a2520" x="151.757473" y="169.348289" style="fill: #0000ff; stroke: #0000ff"/>
     <use xlink:href="#ma13c8a2520" x="156.916179" y="172.506183" style="fill: #0000ff; stroke: #0000ff"/>
     <use xlink:href="#ma13c8a2520" x="162.074884" y="163.133718" style="fill: #0000ff; stroke: #0000ff"/>
     <use xlink:href="#ma13c8a2520" x="167.23359" y="236.621867" style="fill: #0000ff; stroke: #0000ff"/>
     <use xlink:href="#ma13c8a2520" x="172.392296" y="158.909863" style="fill: #0000ff; stroke: #0000ff"/>
     <use xlink:href="#ma13c8a2520" x="177.551002" y="165.579809" style="fill: #0000ff; stroke: #0000ff"/>
     <use xlink:href="#ma13c8a2520" x="182.709707" y="181.080559" style="fill: #0000ff; stroke: #0000ff"/>
     <use xlink:href="#ma13c8a2520" x="187.868413" y="116.169091" style="fill: #0000ff; stroke: #0000ff"/>
     <use xlink:href="#ma13c8a2520" x="193.027119" y="116.169091" style="fill: #0000ff; stroke: #0000ff"/>
     <use xlink:href="#ma13c8a2520" x="198.185824" y="116.169091" style="fill: #0000ff; stroke: #0000ff"/>
     <use xlink:href="#ma13c8a2520" x="203.34453" y="114.637343" style="fill: #0000ff; stroke: #0000ff"/>
     <use xlink:href="#ma13c8a2520" x="208.503236" y="114.637343" style="fill: #0000ff; stroke: #0000ff"/>
     <use xlink:href="#ma13c8a2520" x="213.661941" y="114.637343" style="fill: #0000ff; stroke: #0000ff"/>
     <use xlink:href="#ma13c8a2520" x="218.820647" y="114.355148" style="fill: #0000ff; stroke: #0000ff"/>
     <use xlink:href="#ma13c8a2520" x="223.979353" y="193.77399" style="fill: #0000ff; stroke: #0000ff"/>
     <use xlink:href="#ma13c8a2520" x="229.138059" y="43.278545" style="fill: #0000ff; stroke: #0000ff"/>
     <use xlink:href="#ma13c8a2520" x="234.296764" y="43.278545" style="fill: #0000ff; stroke: #0000ff"/>
     <use xlink:href="#ma13c8a2520" x="239.45547" y="43.492691" style="fill: #0000ff; stroke: #0000ff"/>
     <use xlink:href="#ma13c8a2520" x="244.614176" y="43.278545" style="fill: #0000ff; stroke: #0000ff"/>
     <use xlink:href="#ma13c8a2520" x="249.772881" y="43.492691" style="fill: #0000ff; stroke: #0000ff"/>
     <use xlink:href="#ma13c8a2520" x="254.931587" y="43.686016" style="fill: #0000ff; stroke: #0000ff"/>
     <use xlink:href="#ma13c8a2520" x="260.090293" y="43.492691" style="fill: #0000ff; stroke: #0000ff"/>
     <use xlink:href="#ma13c8a2520" x="265.248998" y="43.492691" style="fill: #0000ff; stroke: #0000ff"/>
     <use xlink:href="#ma13c8a2520" x="270.407704" y="43.492691" style="fill: #0000ff; stroke: #0000ff"/>
     <use xlink:href="#ma13c8a2520" x="275.56641" y="43.492691" style="fill: #0000ff; stroke: #0000ff"/>
     <use xlink:href="#ma13c8a2520" x="280.725116" y="43.492691" style="fill: #0000ff; stroke: #0000ff"/>
     <use xlink:href="#ma13c8a2520" x="285.883821" y="43.492691" style="fill: #0000ff; stroke: #0000ff"/>
     <use xlink:href="#ma13c8a2520" x="291.042527" y="43.611489" style="fill: #0000ff; stroke: #0000ff"/>
     <use xlink:href="#ma13c8a2520" x="296.201233" y="43.611489" style="fill: #0000ff; stroke: #0000ff"/>
     <use xlink:href="#ma13c8a2520" x="301.359938" y="43.611489" style="fill: #0000ff; stroke: #0000ff"/>
     <use xlink:href="#ma13c8a2520" x="306.518644" y="43.611489" style="fill: #0000ff; stroke: #0000ff"/>
     <use xlink:href="#ma13c8a2520" x="311.67735" y="43.492691" style="fill: #0000ff; stroke: #0000ff"/>
     <use xlink:href="#ma13c8a2520" x="316.836055" y="47.131836" style="fill: #0000ff; stroke: #0000ff"/>
     <use xlink:href="#ma13c8a2520" x="321.994761" y="47.131836" style="fill: #0000ff; stroke: #0000ff"/>
     <use xlink:href="#ma13c8a2520" x="327.153467" y="47.131836" style="fill: #0000ff; stroke: #0000ff"/>
     <use xlink:href="#ma13c8a2520" x="332.312173" y="43.492691" style="fill: #0000ff; stroke: #0000ff"/>
     <use xlink:href="#ma13c8a2520" x="337.470878" y="43.492691" style="fill: #0000ff; stroke: #0000ff"/>
     <use xlink:href="#ma13c8a2520" x="342.629584" y="43.492691" style="fill: #0000ff; stroke: #0000ff"/>
     <use xlink:href="#ma13c8a2520" x="347.78829" y="43.492691" style="fill: #0000ff; stroke: #0000ff"/>
     <use xlink:href="#ma13c8a2520" x="352.946995" y="43.492691" style="fill: #0000ff; stroke: #0000ff"/>
     <use xlink:href="#ma13c8a2520" x="358.105701" y="43.492691" style="fill: #0000ff; stroke: #0000ff"/>
     <use xlink:href="#ma13c8a2520" x="363.264407" y="43.492691" style="fill: #0000ff; stroke: #0000ff"/>
     <use xlink:href="#ma13c8a2520" x="368.423112" y="43.492691" style="fill: #0000ff; stroke: #0000ff"/>
     <use xlink:href="#ma13c8a2520" x="373.581818" y="43.492691" style="fill: #0000ff; stroke: #0000ff"/>
    </g>
   </g>
   <g id="line2d_31">
    <path d="M 69.218182 252.935637 
L 74.376888 252.908818 
L 79.535593 252.918785 
L 84.694299 253.679498 
L 89.853005 252.908818 
L 95.01171 264.858796 
L 100.170416 271.181737 
L 105.329122 268.690671 
L 110.487827 271.898376 
L 115.646533 271.380599 
L 120.805239 252.049245 
L 125.963945 261.54126 
L 131.12265 263.794227 
L 136.281356 244.554054 
L 141.440062 236.12516 
L 146.598767 243.632113 
L 151.757473 243.543088 
L 156.916179 236.618948 
L 162.074884 226.567144 
L 167.23359 226.573581 
L 172.392296 226.538608 
L 177.551002 226.967389 
L 182.709707 215.027133 
L 187.868413 215.027133 
L 193.027119 215.02247 
L 198.185824 214.754904 
L 203.34453 159.394656 
L 208.503236 159.642093 
L 213.661941 151.704076 
L 218.820647 151.704076 
L 223.979353 154.438506 
L 229.138059 154.438506 
L 234.296764 43.319264 
L 239.45547 47.788751 
L 244.614176 47.788751 
L 249.772881 47.788751 
L 254.931587 47.788751 
L 260.090293 47.788751 
L 265.248998 47.788751 
L 270.407704 47.788751 
L 275.56641 47.788751 
L 280.725116 47.788751 
L 285.883821 47.788751 
L 291.042527 47.788751 
L 296.201233 47.788751 
L 301.359938 47.788751 
L 306.518644 47.788751 
L 311.67735 47.788751 
L 316.836055 47.788751 
L 321.994761 47.788751 
L 327.153467 47.788751 
L 332.312173 47.788751 
L 337.470878 47.788751 
L 342.629584 48.263856 
L 347.78829 48.263856 
L 352.946995 48.263856 
L 358.105701 48.263856 
L 363.264407 48.263856 
L 368.423112 43.68006 
L 373.581818 43.68006 
" clip-path="url(#p5e388fb8d5)" style="fill: none; stroke: #ff7763; stroke-width: 1.5; stroke-linecap: square"/>
    <defs>
     <path id="m0b2d7d54e1" d="M -2 2 
L 2 -2 
M -2 -2 
L 2 2 
" style="stroke: #ff7763"/>
    </defs>
    <g clip-path="url(#p5e388fb8d5)">
     <use xlink:href="#m0b2d7d54e1" x="69.218182" y="252.935637" style="fill: #ff7763; stroke: #ff7763"/>
     <use xlink:href="#m0b2d7d54e1" x="74.376888" y="252.908818" style="fill: #ff7763; stroke: #ff7763"/>
     <use xlink:href="#m0b2d7d54e1" x="79.535593" y="252.918785" style="fill: #ff7763; stroke: #ff7763"/>
     <use xlink:href="#m0b2d7d54e1" x="84.694299" y="253.679498" style="fill: #ff7763; stroke: #ff7763"/>
     <use xlink:href="#m0b2d7d54e1" x="89.853005" y="252.908818" style="fill: #ff7763; stroke: #ff7763"/>
     <use xlink:href="#m0b2d7d54e1" x="95.01171" y="264.858796" style="fill: #ff7763; stroke: #ff7763"/>
     <use xlink:href="#m0b2d7d54e1" x="100.170416" y="271.181737" style="fill: #ff7763; stroke: #ff7763"/>
     <use xlink:href="#m0b2d7d54e1" x="105.329122" y="268.690671" style="fill: #ff7763; stroke: #ff7763"/>
     <use xlink:href="#m0b2d7d54e1" x="110.487827" y="271.898376" style="fill: #ff7763; stroke: #ff7763"/>
     <use xlink:href="#m0b2d7d54e1" x="115.646533" y="271.380599" style="fill: #ff7763; stroke: #ff7763"/>
     <use xlink:href="#m0b2d7d54e1" x="120.805239" y="252.049245" style="fill: #ff7763; stroke: #ff7763"/>
     <use xlink:href="#m0b2d7d54e1" x="125.963945" y="261.54126" style="fill: #ff7763; stroke: #ff7763"/>
     <use xlink:href="#m0b2d7d54e1" x="131.12265" y="263.794227" style="fill: #ff7763; stroke: #ff7763"/>
     <use xlink:href="#m0b2d7d54e1" x="136.281356" y="244.554054" style="fill: #ff7763; stroke: #ff7763"/>
     <use xlink:href="#m0b2d7d54e1" x="141.440062" y="236.12516" style="fill: #ff7763; stroke: #ff7763"/>
     <use xlink:href="#m0b2d7d54e1" x="146.598767" y="243.632113" style="fill: #ff7763; stroke: #ff7763"/>
     <use xlink:href="#m0b2d7d54e1" x="151.757473" y="243.543088" style="fill: #ff7763; stroke: #ff7763"/>
     <use xlink:href="#m0b2d7d54e1" x="156.916179" y="236.618948" style="fill: #ff7763; stroke: #ff7763"/>
     <use xlink:href="#m0b2d7d54e1" x="162.074884" y="226.567144" style="fill: #ff7763; stroke: #ff7763"/>
     <use xlink:href="#m0b2d7d54e1" x="167.23359" y="226.573581" style="fill: #ff7763; stroke: #ff7763"/>
     <use xlink:href="#m0b2d7d54e1" x="172.392296" y="226.538608" style="fill: #ff7763; stroke: #ff7763"/>
     <use xlink:href="#m0b2d7d54e1" x="177.551002" y="226.967389" style="fill: #ff7763; stroke: #ff7763"/>
     <use xlink:href="#m0b2d7d54e1" x="182.709707" y="215.027133" style="fill: #ff7763; stroke: #ff7763"/>
     <use xlink:href="#m0b2d7d54e1" x="187.868413" y="215.027133" style="fill: #ff7763; stroke: #ff7763"/>
     <use xlink:href="#m0b2d7d54e1" x="193.027119" y="215.02247" style="fill: #ff7763; stroke: #ff7763"/>
     <use xlink:href="#m0b2d7d54e1" x="198.185824" y="214.754904" style="fill: #ff7763; stroke: #ff7763"/>
     <use xlink:href="#m0b2d7d54e1" x="203.34453" y="159.394656" style="fill: #ff7763; stroke: #ff7763"/>
     <use xlink:href="#m0b2d7d54e1" x="208.503236" y="159.642093" style="fill: #ff7763; stroke: #ff7763"/>
     <use xlink:href="#m0b2d7d54e1" x="213.661941" y="151.704076" style="fill: #ff7763; stroke: #ff7763"/>
     <use xlink:href="#m0b2d7d54e1" x="218.820647" y="151.704076" style="fill: #ff7763; stroke: #ff7763"/>
     <use xlink:href="#m0b2d7d54e1" x="223.979353" y="154.438506" style="fill: #ff7763; stroke: #ff7763"/>
     <use xlink:href="#m0b2d7d54e1" x="229.138059" y="154.438506" style="fill: #ff7763; stroke: #ff7763"/>
     <use xlink:href="#m0b2d7d54e1" x="234.296764" y="43.319264" style="fill: #ff7763; stroke: #ff7763"/>
     <use xlink:href="#m0b2d7d54e1" x="239.45547" y="47.788751" style="fill: #ff7763; stroke: #ff7763"/>
     <use xlink:href="#m0b2d7d54e1" x="244.614176" y="47.788751" style="fill: #ff7763; stroke: #ff7763"/>
     <use xlink:href="#m0b2d7d54e1" x="249.772881" y="47.788751" style="fill: #ff7763; stroke: #ff7763"/>
     <use xlink:href="#m0b2d7d54e1" x="254.931587" y="47.788751" style="fill: #ff7763; stroke: #ff7763"/>
     <use xlink:href="#m0b2d7d54e1" x="260.090293" y="47.788751" style="fill: #ff7763; stroke: #ff7763"/>
     <use xlink:href="#m0b2d7d54e1" x="265.248998" y="47.788751" style="fill: #ff7763; stroke: #ff7763"/>
     <use xlink:href="#m0b2d7d54e1" x="270.407704" y="47.788751" style="fill: #ff7763; stroke: #ff7763"/>
     <use xlink:href="#m0b2d7d54e1" x="275.56641" y="47.788751" style="fill: #ff7763; stroke: #ff7763"/>
     <use xlink:href="#m0b2d7d54e1" x="280.725116" y="47.788751" style="fill: #ff7763; stroke: #ff7763"/>
     <use xlink:href="#m0b2d7d54e1" x="285.883821" y="47.788751" style="fill: #ff7763; stroke: #ff7763"/>
     <use xlink:href="#m0b2d7d54e1" x="291.042527" y="47.788751" style="fill: #ff7763; stroke: #ff7763"/>
     <use xlink:href="#m0b2d7d54e1" x="296.201233" y="47.788751" style="fill: #ff7763; stroke: #ff7763"/>
     <use xlink:href="#m0b2d7d54e1" x="301.359938" y="47.788751" style="fill: #ff7763; stroke: #ff7763"/>
     <use xlink:href="#m0b2d7d54e1" x="306.518644" y="47.788751" style="fill: #ff7763; stroke: #ff7763"/>
     <use xlink:href="#m0b2d7d54e1" x="311.67735" y="47.788751" style="fill: #ff7763; stroke: #ff7763"/>
     <use xlink:href="#m0b2d7d54e1" x="316.836055" y="47.788751" style="fill: #ff7763; stroke: #ff7763"/>
     <use xlink:href="#m0b2d7d54e1" x="321.994761" y="47.788751" style="fill: #ff7763; stroke: #ff7763"/>
     <use xlink:href="#m0b2d7d54e1" x="327.153467" y="47.788751" style="fill: #ff7763; stroke: #ff7763"/>
     <use xlink:href="#m0b2d7d54e1" x="332.312173" y="47.788751" style="fill: #ff7763; stroke: #ff7763"/>
     <use xlink:href="#m0b2d7d54e1" x="337.470878" y="47.788751" style="fill: #ff7763; stroke: #ff7763"/>
     <use xlink:href="#m0b2d7d54e1" x="342.629584" y="48.263856" style="fill: #ff7763; stroke: #ff7763"/>
     <use xlink:href="#m0b2d7d54e1" x="347.78829" y="48.263856" style="fill: #ff7763; stroke: #ff7763"/>
     <use xlink:href="#m0b2d7d54e1" x="352.946995" y="48.263856" style="fill: #ff7763; stroke: #ff7763"/>
     <use xlink:href="#m0b2d7d54e1" x="358.105701" y="48.263856" style="fill: #ff7763; stroke: #ff7763"/>
     <use xlink:href="#m0b2d7d54e1" x="363.264407" y="48.263856" style="fill: #ff7763; stroke: #ff7763"/>
     <use xlink:href="#m0b2d7d54e1" x="368.423112" y="43.68006" style="fill: #ff7763; stroke: #ff7763"/>
     <use xlink:href="#m0b2d7d54e1" x="373.581818" y="43.68006" style="fill: #ff7763; stroke: #ff7763"/>
    </g>
   </g>
   <g id="line2d_32">
    <path d="M 69.218182 253.489058 
L 74.376888 253.35312 
L 79.535593 252.908818 
L 84.694299 253.509106 
L 89.853005 231.583116 
L 95.01171 254.284366 
L 100.170416 253.481483 
L 105.329122 253.462555 
L 110.487827 252.908818 
L 115.646533 240.974098 
L 120.805239 239.668801 
L 125.963945 148.968966 
L 131.12265 247.967489 
L 136.281356 240.962896 
L 141.440062 239.69066 
L 146.598767 153.469692 
L 151.757473 242.36794 
L 156.916179 208.503156 
L 162.074884 81.742574 
L 167.23359 81.684264 
L 172.392296 69.999555 
L 177.551002 80.248618 
L 182.709707 80.260478 
L 187.868413 65.334492 
L 193.027119 65.340215 
L 198.185824 64.776604 
L 203.34453 64.685206 
L 208.503236 51.004154 
L 213.661941 47.838161 
L 218.820647 48.454852 
L 223.979353 48.349562 
L 229.138059 47.83802 
L 234.296764 47.600434 
L 239.45547 47.600434 
L 244.614176 47.600434 
L 249.772881 47.600434 
L 254.931587 47.600434 
L 260.090293 47.600434 
L 265.248998 47.600434 
L 270.407704 47.83802 
L 275.56641 47.600434 
L 280.725116 47.83802 
L 285.883821 47.83802 
L 291.042527 47.83802 
L 296.201233 47.555361 
L 301.359938 47.83802 
L 306.518644 43.344268 
L 311.67735 43.344268 
L 316.836055 43.344268 
L 321.994761 43.344268 
L 327.153467 43.344268 
L 332.312173 43.344268 
L 337.470878 43.344268 
L 342.629584 43.344268 
L 347.78829 43.344268 
L 352.946995 43.344268 
L 358.105701 43.344268 
L 363.264407 43.344268 
L 368.423112 43.344268 
L 373.581818 43.344268 
" clip-path="url(#p5e388fb8d5)" style="fill: none; stroke: #ffac1e; stroke-width: 1.5; stroke-linecap: square"/>
    <defs>
     <path id="m2f5858dda4" d="M 0 -2 
L -0.449028 -0.618034 
L -1.902113 -0.618034 
L -0.726543 0.236068 
L -1.175571 1.618034 
L -0 0.763932 
L 1.175571 1.618034 
L 0.726543 0.236068 
L 1.902113 -0.618034 
L 0.449028 -0.618034 
z
" style="stroke: #ffac1e; stroke-linejoin: bevel"/>
    </defs>
    <g clip-path="url(#p5e388fb8d5)">
     <use xlink:href="#m2f5858dda4" x="69.218182" y="253.489058" style="fill: #ffac1e; stroke: #ffac1e; stroke-linejoin: bevel"/>
     <use xlink:href="#m2f5858dda4" x="74.376888" y="253.35312" style="fill: #ffac1e; stroke: #ffac1e; stroke-linejoin: bevel"/>
     <use xlink:href="#m2f5858dda4" x="79.535593" y="252.908818" style="fill: #ffac1e; stroke: #ffac1e; stroke-linejoin: bevel"/>
     <use xlink:href="#m2f5858dda4" x="84.694299" y="253.509106" style="fill: #ffac1e; stroke: #ffac1e; stroke-linejoin: bevel"/>
     <use xlink:href="#m2f5858dda4" x="89.853005" y="231.583116" style="fill: #ffac1e; stroke: #ffac1e; stroke-linejoin: bevel"/>
     <use xlink:href="#m2f5858dda4" x="95.01171" y="254.284366" style="fill: #ffac1e; stroke: #ffac1e; stroke-linejoin: bevel"/>
     <use xlink:href="#m2f5858dda4" x="100.170416" y="253.481483" style="fill: #ffac1e; stroke: #ffac1e; stroke-linejoin: bevel"/>
     <use xlink:href="#m2f5858dda4" x="105.329122" y="253.462555" style="fill: #ffac1e; stroke: #ffac1e; stroke-linejoin: bevel"/>
     <use xlink:href="#m2f5858dda4" x="110.487827" y="252.908818" style="fill: #ffac1e; stroke: #ffac1e; stroke-linejoin: bevel"/>
     <use xlink:href="#m2f5858dda4" x="115.646533" y="240.974098" style="fill: #ffac1e; stroke: #ffac1e; stroke-linejoin: bevel"/>
     <use xlink:href="#m2f5858dda4" x="120.805239" y="239.668801" style="fill: #ffac1e; stroke: #ffac1e; stroke-linejoin: bevel"/>
     <use xlink:href="#m2f5858dda4" x="125.963945" y="148.968966" style="fill: #ffac1e; stroke: #ffac1e; stroke-linejoin: bevel"/>
     <use xlink:href="#m2f5858dda4" x="131.12265" y="247.967489" style="fill: #ffac1e; stroke: #ffac1e; stroke-linejoin: bevel"/>
     <use xlink:href="#m2f5858dda4" x="136.281356" y="240.962896" style="fill: #ffac1e; stroke: #ffac1e; stroke-linejoin: bevel"/>
     <use xlink:href="#m2f5858dda4" x="141.440062" y="239.69066" style="fill: #ffac1e; stroke: #ffac1e; stroke-linejoin: bevel"/>
     <use xlink:href="#m2f5858dda4" x="146.598767" y="153.469692" style="fill: #ffac1e; stroke: #ffac1e; stroke-linejoin: bevel"/>
     <use xlink:href="#m2f5858dda4" x="151.757473" y="242.36794" style="fill: #ffac1e; stroke: #ffac1e; stroke-linejoin: bevel"/>
     <use xlink:href="#m2f5858dda4" x="156.916179" y="208.503156" style="fill: #ffac1e; stroke: #ffac1e; stroke-linejoin: bevel"/>
     <use xlink:href="#m2f5858dda4" x="162.074884" y="81.742574" style="fill: #ffac1e; stroke: #ffac1e; stroke-linejoin: bevel"/>
     <use xlink:href="#m2f5858dda4" x="167.23359" y="81.684264" style="fill: #ffac1e; stroke: #ffac1e; stroke-linejoin: bevel"/>
     <use xlink:href="#m2f5858dda4" x="172.392296" y="69.999555" style="fill: #ffac1e; stroke: #ffac1e; stroke-linejoin: bevel"/>
     <use xlink:href="#m2f5858dda4" x="177.551002" y="80.248618" style="fill: #ffac1e; stroke: #ffac1e; stroke-linejoin: bevel"/>
     <use xlink:href="#m2f5858dda4" x="182.709707" y="80.260478" style="fill: #ffac1e; stroke: #ffac1e; stroke-linejoin: bevel"/>
     <use xlink:href="#m2f5858dda4" x="187.868413" y="65.334492" style="fill: #ffac1e; stroke: #ffac1e; stroke-linejoin: bevel"/>
     <use xlink:href="#m2f5858dda4" x="193.027119" y="65.340215" style="fill: #ffac1e; stroke: #ffac1e; stroke-linejoin: bevel"/>
     <use xlink:href="#m2f5858dda4" x="198.185824" y="64.776604" style="fill: #ffac1e; stroke: #ffac1e; stroke-linejoin: bevel"/>
     <use xlink:href="#m2f5858dda4" x="203.34453" y="64.685206" style="fill: #ffac1e; stroke: #ffac1e; stroke-linejoin: bevel"/>
     <use xlink:href="#m2f5858dda4" x="208.503236" y="51.004154" style="fill: #ffac1e; stroke: #ffac1e; stroke-linejoin: bevel"/>
     <use xlink:href="#m2f5858dda4" x="213.661941" y="47.838161" style="fill: #ffac1e; stroke: #ffac1e; stroke-linejoin: bevel"/>
     <use xlink:href="#m2f5858dda4" x="218.820647" y="48.454852" style="fill: #ffac1e; stroke: #ffac1e; stroke-linejoin: bevel"/>
     <use xlink:href="#m2f5858dda4" x="223.979353" y="48.349562" style="fill: #ffac1e; stroke: #ffac1e; stroke-linejoin: bevel"/>
     <use xlink:href="#m2f5858dda4" x="229.138059" y="47.83802" style="fill: #ffac1e; stroke: #ffac1e; stroke-linejoin: bevel"/>
     <use xlink:href="#m2f5858dda4" x="234.296764" y="47.600434" style="fill: #ffac1e; stroke: #ffac1e; stroke-linejoin: bevel"/>
     <use xlink:href="#m2f5858dda4" x="239.45547" y="47.600434" style="fill: #ffac1e; stroke: #ffac1e; stroke-linejoin: bevel"/>
     <use xlink:href="#m2f5858dda4" x="244.614176" y="47.600434" style="fill: #ffac1e; stroke: #ffac1e; stroke-linejoin: bevel"/>
     <use xlink:href="#m2f5858dda4" x="249.772881" y="47.600434" style="fill: #ffac1e; stroke: #ffac1e; stroke-linejoin: bevel"/>
     <use xlink:href="#m2f5858dda4" x="254.931587" y="47.600434" style="fill: #ffac1e; stroke: #ffac1e; stroke-linejoin: bevel"/>
     <use xlink:href="#m2f5858dda4" x="260.090293" y="47.600434" style="fill: #ffac1e; stroke: #ffac1e; stroke-linejoin: bevel"/>
     <use xlink:href="#m2f5858dda4" x="265.248998" y="47.600434" style="fill: #ffac1e; stroke: #ffac1e; stroke-linejoin: bevel"/>
     <use xlink:href="#m2f5858dda4" x="270.407704" y="47.83802" style="fill: #ffac1e; stroke: #ffac1e; stroke-linejoin: bevel"/>
     <use xlink:href="#m2f5858dda4" x="275.56641" y="47.600434" style="fill: #ffac1e; stroke: #ffac1e; stroke-linejoin: bevel"/>
     <use xlink:href="#m2f5858dda4" x="280.725116" y="47.83802" style="fill: #ffac1e; stroke: #ffac1e; stroke-linejoin: bevel"/>
     <use xlink:href="#m2f5858dda4" x="285.883821" y="47.83802" style="fill: #ffac1e; stroke: #ffac1e; stroke-linejoin: bevel"/>
     <use xlink:href="#m2f5858dda4" x="291.042527" y="47.83802" style="fill: #ffac1e; stroke: #ffac1e; stroke-linejoin: bevel"/>
     <use xlink:href="#m2f5858dda4" x="296.201233" y="47.555361" style="fill: #ffac1e; stroke: #ffac1e; stroke-linejoin: bevel"/>
     <use xlink:href="#m2f5858dda4" x="301.359938" y="47.83802" style="fill: #ffac1e; stroke: #ffac1e; stroke-linejoin: bevel"/>
     <use xlink:href="#m2f5858dda4" x="306.518644" y="43.344268" style="fill: #ffac1e; stroke: #ffac1e; stroke-linejoin: bevel"/>
     <use xlink:href="#m2f5858dda4" x="311.67735" y="43.344268" style="fill: #ffac1e; stroke: #ffac1e; stroke-linejoin: bevel"/>
     <use xlink:href="#m2f5858dda4" x="316.836055" y="43.344268" style="fill: #ffac1e; stroke: #ffac1e; stroke-linejoin: bevel"/>
     <use xlink:href="#m2f5858dda4" x="321.994761" y="43.344268" style="fill: #ffac1e; stroke: #ffac1e; stroke-linejoin: bevel"/>
     <use xlink:href="#m2f5858dda4" x="327.153467" y="43.344268" style="fill: #ffac1e; stroke: #ffac1e; stroke-linejoin: bevel"/>
     <use xlink:href="#m2f5858dda4" x="332.312173" y="43.344268" style="fill: #ffac1e; stroke: #ffac1e; stroke-linejoin: bevel"/>
     <use xlink:href="#m2f5858dda4" x="337.470878" y="43.344268" style="fill: #ffac1e; stroke: #ffac1e; stroke-linejoin: bevel"/>
     <use xlink:href="#m2f5858dda4" x="342.629584" y="43.344268" style="fill: #ffac1e; stroke: #ffac1e; stroke-linejoin: bevel"/>
     <use xlink:href="#m2f5858dda4" x="347.78829" y="43.344268" style="fill: #ffac1e; stroke: #ffac1e; stroke-linejoin: bevel"/>
     <use xlink:href="#m2f5858dda4" x="352.946995" y="43.344268" style="fill: #ffac1e; stroke: #ffac1e; stroke-linejoin: bevel"/>
     <use xlink:href="#m2f5858dda4" x="358.105701" y="43.344268" style="fill: #ffac1e; stroke: #ffac1e; stroke-linejoin: bevel"/>
     <use xlink:href="#m2f5858dda4" x="363.264407" y="43.344268" style="fill: #ffac1e; stroke: #ffac1e; stroke-linejoin: bevel"/>
     <use xlink:href="#m2f5858dda4" x="368.423112" y="43.344268" style="fill: #ffac1e; stroke: #ffac1e; stroke-linejoin: bevel"/>
     <use xlink:href="#m2f5858dda4" x="373.581818" y="43.344268" style="fill: #ffac1e; stroke: #ffac1e; stroke-linejoin: bevel"/>
    </g>
   </g>
   <g id="line2d_33">
    <path d="M 69.218182 252.908818 
L 74.376888 252.908818 
L 79.535593 255.611925 
L 84.694299 255.821607 
L 89.853005 258.896333 
L 95.01171 254.125798 
L 100.170416 255.334001 
L 105.329122 251.773227 
L 110.487827 254.947767 
L 115.646533 241.176316 
L 120.805239 253.360375 
L 125.963945 253.990524 
L 131.12265 255.352033 
L 136.281356 254.309182 
L 141.440062 252.831839 
L 146.598767 253.54264 
L 151.757473 252.224931 
L 156.916179 255.185826 
L 162.074884 253.708391 
L 167.23359 252.95549 
L 172.392296 251.455892 
L 177.551002 244.684844 
L 182.709707 218.333693 
L 187.868413 228.121504 
L 193.027119 228.618904 
L 198.185824 179.764793 
L 203.34453 179.764793 
L 208.503236 162.001106 
L 213.661941 162.561772 
L 218.820647 162.001106 
L 223.979353 162.001106 
L 229.138059 161.86116 
L 234.296764 161.86116 
L 239.45547 164.836182 
L 244.614176 161.860845 
L 249.772881 161.437392 
L 254.931587 161.437392 
L 260.090293 46.790801 
L 265.248998 47.83802 
L 270.407704 47.83802 
L 275.56641 47.83802 
L 280.725116 46.790801 
L 285.883821 46.790801 
L 291.042527 46.790801 
L 296.201233 46.790801 
L 301.359938 46.790801 
L 306.518644 46.790801 
L 311.67735 46.790801 
L 316.836055 46.594759 
L 321.994761 46.790801 
L 327.153467 46.790801 
L 332.312173 46.790801 
L 337.470878 46.790801 
L 342.629584 46.790801 
L 347.78829 46.790801 
L 352.946995 46.790801 
L 358.105701 46.594759 
L 363.264407 46.594759 
L 368.423112 46.790801 
L 373.581818 46.594759 
" clip-path="url(#p5e388fb8d5)" style="fill: none; stroke: #009435; stroke-width: 1.5; stroke-linecap: square"/>
    <defs>
     <path id="mf54484955d" d="M -2 2 
L 2 2 
L 2 -2 
L -2 -2 
z
" style="stroke: #009435; stroke-linejoin: miter"/>
    </defs>
    <g clip-path="url(#p5e388fb8d5)">
     <use xlink:href="#mf54484955d" x="69.218182" y="252.908818" style="fill: #009435; stroke: #009435; stroke-linejoin: miter"/>
     <use xlink:href="#mf54484955d" x="74.376888" y="252.908818" style="fill: #009435; stroke: #009435; stroke-linejoin: miter"/>
     <use xlink:href="#mf54484955d" x="79.535593" y="255.611925" style="fill: #009435; stroke: #009435; stroke-linejoin: miter"/>
     <use xlink:href="#mf54484955d" x="84.694299" y="255.821607" style="fill: #009435; stroke: #009435; stroke-linejoin: miter"/>
     <use xlink:href="#mf54484955d" x="89.853005" y="258.896333" style="fill: #009435; stroke: #009435; stroke-linejoin: miter"/>
     <use xlink:href="#mf54484955d" x="95.01171" y="254.125798" style="fill: #009435; stroke: #009435; stroke-linejoin: miter"/>
     <use xlink:href="#mf54484955d" x="100.170416" y="255.334001" style="fill: #009435; stroke: #009435; stroke-linejoin: miter"/>
     <use xlink:href="#mf54484955d" x="105.329122" y="251.773227" style="fill: #009435; stroke: #009435; stroke-linejoin: miter"/>
     <use xlink:href="#mf54484955d" x="110.487827" y="254.947767" style="fill: #009435; stroke: #009435; stroke-linejoin: miter"/>
     <use xlink:href="#mf54484955d" x="115.646533" y="241.176316" style="fill: #009435; stroke: #009435; stroke-linejoin: miter"/>
     <use xlink:href="#mf54484955d" x="120.805239" y="253.360375" style="fill: #009435; stroke: #009435; stroke-linejoin: miter"/>
     <use xlink:href="#mf54484955d" x="125.963945" y="253.990524" style="fill: #009435; stroke: #009435; stroke-linejoin: miter"/>
     <use xlink:href="#mf54484955d" x="131.12265" y="255.352033" style="fill: #009435; stroke: #009435; stroke-linejoin: miter"/>
     <use xlink:href="#mf54484955d" x="136.281356" y="254.309182" style="fill: #009435; stroke: #009435; stroke-linejoin: miter"/>
     <use xlink:href="#mf54484955d" x="141.440062" y="252.831839" style="fill: #009435; stroke: #009435; stroke-linejoin: miter"/>
     <use xlink:href="#mf54484955d" x="146.598767" y="253.54264" style="fill: #009435; stroke: #009435; stroke-linejoin: miter"/>
     <use xlink:href="#mf54484955d" x="151.757473" y="252.224931" style="fill: #009435; stroke: #009435; stroke-linejoin: miter"/>
     <use xlink:href="#mf54484955d" x="156.916179" y="255.185826" style="fill: #009435; stroke: #009435; stroke-linejoin: miter"/>
     <use xlink:href="#mf54484955d" x="162.074884" y="253.708391" style="fill: #009435; stroke: #009435; stroke-linejoin: miter"/>
     <use xlink:href="#mf54484955d" x="167.23359" y="252.95549" style="fill: #009435; stroke: #009435; stroke-linejoin: miter"/>
     <use xlink:href="#mf54484955d" x="172.392296" y="251.455892" style="fill: #009435; stroke: #009435; stroke-linejoin: miter"/>
     <use xlink:href="#mf54484955d" x="177.551002" y="244.684844" style="fill: #009435; stroke: #009435; stroke-linejoin: miter"/>
     <use xlink:href="#mf54484955d" x="182.709707" y="218.333693" style="fill: #009435; stroke: #009435; stroke-linejoin: miter"/>
     <use xlink:href="#mf54484955d" x="187.868413" y="228.121504" style="fill: #009435; stroke: #009435; stroke-linejoin: miter"/>
     <use xlink:href="#mf54484955d" x="193.027119" y="228.618904" style="fill: #009435; stroke: #009435; stroke-linejoin: miter"/>
     <use xlink:href="#mf54484955d" x="198.185824" y="179.764793" style="fill: #009435; stroke: #009435; stroke-linejoin: miter"/>
     <use xlink:href="#mf54484955d" x="203.34453" y="179.764793" style="fill: #009435; stroke: #009435; stroke-linejoin: miter"/>
     <use xlink:href="#mf54484955d" x="208.503236" y="162.001106" style="fill: #009435; stroke: #009435; stroke-linejoin: miter"/>
     <use xlink:href="#mf54484955d" x="213.661941" y="162.561772" style="fill: #009435; stroke: #009435; stroke-linejoin: miter"/>
     <use xlink:href="#mf54484955d" x="218.820647" y="162.001106" style="fill: #009435; stroke: #009435; stroke-linejoin: miter"/>
     <use xlink:href="#mf54484955d" x="223.979353" y="162.001106" style="fill: #009435; stroke: #009435; stroke-linejoin: miter"/>
     <use xlink:href="#mf54484955d" x="229.138059" y="161.86116" style="fill: #009435; stroke: #009435; stroke-linejoin: miter"/>
     <use xlink:href="#mf54484955d" x="234.296764" y="161.86116" style="fill: #009435; stroke: #009435; stroke-linejoin: miter"/>
     <use xlink:href="#mf54484955d" x="239.45547" y="164.836182" style="fill: #009435; stroke: #009435; stroke-linejoin: miter"/>
     <use xlink:href="#mf54484955d" x="244.614176" y="161.860845" style="fill: #009435; stroke: #009435; stroke-linejoin: miter"/>
     <use xlink:href="#mf54484955d" x="249.772881" y="161.437392" style="fill: #009435; stroke: #009435; stroke-linejoin: miter"/>
     <use xlink:href="#mf54484955d" x="254.931587" y="161.437392" style="fill: #009435; stroke: #009435; stroke-linejoin: miter"/>
     <use xlink:href="#mf54484955d" x="260.090293" y="46.790801" style="fill: #009435; stroke: #009435; stroke-linejoin: miter"/>
     <use xlink:href="#mf54484955d" x="265.248998" y="47.83802" style="fill: #009435; stroke: #009435; stroke-linejoin: miter"/>
     <use xlink:href="#mf54484955d" x="270.407704" y="47.83802" style="fill: #009435; stroke: #009435; stroke-linejoin: miter"/>
     <use xlink:href="#mf54484955d" x="275.56641" y="47.83802" style="fill: #009435; stroke: #009435; stroke-linejoin: miter"/>
     <use xlink:href="#mf54484955d" x="280.725116" y="46.790801" style="fill: #009435; stroke: #009435; stroke-linejoin: miter"/>
     <use xlink:href="#mf54484955d" x="285.883821" y="46.790801" style="fill: #009435; stroke: #009435; stroke-linejoin: miter"/>
     <use xlink:href="#mf54484955d" x="291.042527" y="46.790801" style="fill: #009435; stroke: #009435; stroke-linejoin: miter"/>
     <use xlink:href="#mf54484955d" x="296.201233" y="46.790801" style="fill: #009435; stroke: #009435; stroke-linejoin: miter"/>
     <use xlink:href="#mf54484955d" x="301.359938" y="46.790801" style="fill: #009435; stroke: #009435; stroke-linejoin: miter"/>
     <use xlink:href="#mf54484955d" x="306.518644" y="46.790801" style="fill: #009435; stroke: #009435; stroke-linejoin: miter"/>
     <use xlink:href="#mf54484955d" x="311.67735" y="46.790801" style="fill: #009435; stroke: #009435; stroke-linejoin: miter"/>
     <use xlink:href="#mf54484955d" x="316.836055" y="46.594759" style="fill: #009435; stroke: #009435; stroke-linejoin: miter"/>
     <use xlink:href="#mf54484955d" x="321.994761" y="46.790801" style="fill: #009435; stroke: #009435; stroke-linejoin: miter"/>
     <use xlink:href="#mf54484955d" x="327.153467" y="46.790801" style="fill: #009435; stroke: #009435; stroke-linejoin: miter"/>
     <use xlink:href="#mf54484955d" x="332.312173" y="46.790801" style="fill: #009435; stroke: #009435; stroke-linejoin: miter"/>
     <use xlink:href="#mf54484955d" x="337.470878" y="46.790801" style="fill: #009435; stroke: #009435; stroke-linejoin: miter"/>
     <use xlink:href="#mf54484955d" x="342.629584" y="46.790801" style="fill: #009435; stroke: #009435; stroke-linejoin: miter"/>
     <use xlink:href="#mf54484955d" x="347.78829" y="46.790801" style="fill: #009435; stroke: #009435; stroke-linejoin: miter"/>
     <use xlink:href="#mf54484955d" x="352.946995" y="46.790801" style="fill: #009435; stroke: #009435; stroke-linejoin: miter"/>
     <use xlink:href="#mf54484955d" x="358.105701" y="46.594759" style="fill: #009435; stroke: #009435; stroke-linejoin: miter"/>
     <use xlink:href="#mf54484955d" x="363.264407" y="46.594759" style="fill: #009435; stroke: #009435; stroke-linejoin: miter"/>
     <use xlink:href="#mf54484955d" x="368.423112" y="46.790801" style="fill: #009435; stroke: #009435; stroke-linejoin: miter"/>
     <use xlink:href="#mf54484955d" x="373.581818" y="46.594759" style="fill: #009435; stroke: #009435; stroke-linejoin: miter"/>
    </g>
   </g>
   <g id="patch_3">
    <path d="M 54 252 
L 54 34.56 
" style="fill: none; stroke: #000000; stroke-width: 0.8; stroke-linejoin: miter; stroke-linecap: square"/>
   </g>
   <g id="patch_4">
    <path d="M 388.8 252 
L 388.8 34.56 
" style="fill: none; stroke: #000000; stroke-width: 0.8; stroke-linejoin: miter; stroke-linecap: square"/>
   </g>
   <g id="patch_5">
    <path d="M 54 252 
L 388.8 252 
" style="fill: none; stroke: #000000; stroke-width: 0.8; stroke-linejoin: miter; stroke-linecap: square"/>
   </g>
   <g id="patch_6">
    <path d="M 54 34.56 
L 388.8 34.56 
" style="fill: none; stroke: #000000; stroke-width: 0.8; stroke-linejoin: miter; stroke-linecap: square"/>
   </g>
   <g id="text_17">
    <!-- R-max optimal policy with m = 15 -->
    <g transform="translate(119.205 28.56)scale(0.12 -0.12)">
     <defs>
      <path id="DejaVuSans-52" d="M 2841 2188 
Q 3044 2119 3236 1894 
Q 3428 1669 3622 1275 
L 4263 0 
L 3584 0 
L 2988 1197 
Q 2756 1666 2539 1819 
Q 2322 1972 1947 1972 
L 1259 1972 
L 1259 0 
L 628 0 
L 628 4666 
L 2053 4666 
Q 2853 4666 3247 4331 
Q 3641 3997 3641 3322 
Q 3641 2881 3436 2590 
Q 3231 2300 2841 2188 
z
M 1259 4147 
L 1259 2491 
L 2053 2491 
Q 2509 2491 2742 2702 
Q 2975 2913 2975 3322 
Q 2975 3731 2742 3939 
Q 2509 4147 2053 4147 
L 1259 4147 
z
" transform="scale(0.015625)"/>
      <path id="DejaVuSans-2d" d="M 313 2009 
L 1997 2009 
L 1997 1497 
L 313 1497 
L 313 2009 
z
" transform="scale(0.015625)"/>
      <path id="DejaVuSans-6d" d="M 3328 2828 
Q 3544 3216 3844 3400 
Q 4144 3584 4550 3584 
Q 5097 3584 5394 3201 
Q 5691 2819 5691 2113 
L 5691 0 
L 5113 0 
L 5113 2094 
Q 5113 2597 4934 2840 
Q 4756 3084 4391 3084 
Q 3944 3084 3684 2787 
Q 3425 2491 3425 1978 
L 3425 0 
L 2847 0 
L 2847 2094 
Q 2847 2600 2669 2842 
Q 2491 3084 2119 3084 
Q 1678 3084 1418 2786 
Q 1159 2488 1159 1978 
L 1159 0 
L 581 0 
L 581 3500 
L 1159 3500 
L 1159 2956 
Q 1356 3278 1631 3431 
Q 1906 3584 2284 3584 
Q 2666 3584 2933 3390 
Q 3200 3197 3328 2828 
z
" transform="scale(0.015625)"/>
      <path id="DejaVuSans-78" d="M 3513 3500 
L 2247 1797 
L 3578 0 
L 2900 0 
L 1881 1375 
L 863 0 
L 184 0 
L 1544 1831 
L 300 3500 
L 978 3500 
L 1906 2253 
L 2834 3500 
L 3513 3500 
z
" transform="scale(0.015625)"/>
      <path id="DejaVuSans-77" d="M 269 3500 
L 844 3500 
L 1563 769 
L 2278 3500 
L 2956 3500 
L 3675 769 
L 4391 3500 
L 4966 3500 
L 4050 0 
L 3372 0 
L 2619 2869 
L 1863 0 
L 1184 0 
L 269 3500 
z
" transform="scale(0.015625)"/>
      <path id="DejaVuSans-68" d="M 3513 2113 
L 3513 0 
L 2938 0 
L 2938 2094 
Q 2938 2591 2744 2837 
Q 2550 3084 2163 3084 
Q 1697 3084 1428 2787 
Q 1159 2491 1159 1978 
L 1159 0 
L 581 0 
L 581 4863 
L 1159 4863 
L 1159 2956 
Q 1366 3272 1645 3428 
Q 1925 3584 2291 3584 
Q 2894 3584 3203 3211 
Q 3513 2838 3513 2113 
z
" transform="scale(0.015625)"/>
      <path id="DejaVuSans-3d" d="M 678 2906 
L 4684 2906 
L 4684 2381 
L 678 2381 
L 678 2906 
z
M 678 1631 
L 4684 1631 
L 4684 1100 
L 678 1100 
L 678 1631 
z
" transform="scale(0.015625)"/>
     </defs>
     <use xlink:href="#DejaVuSans-52"/>
     <use xlink:href="#DejaVuSans-2d" x="65.482422"/>
     <use xlink:href="#DejaVuSans-6d" x="101.566406"/>
     <use xlink:href="#DejaVuSans-61" x="198.978516"/>
     <use xlink:href="#DejaVuSans-78" x="260.257812"/>
     <use xlink:href="#DejaVuSans-20" x="319.4375"/>
     <use xlink:href="#DejaVuSans-6f" x="351.224609"/>
     <use xlink:href="#DejaVuSans-70" x="412.40625"/>
     <use xlink:href="#DejaVuSans-74" x="475.882812"/>
     <use xlink:href="#DejaVuSans-69" x="515.091797"/>
     <use xlink:href="#DejaVuSans-6d" x="542.875"/>
     <use xlink:href="#DejaVuSans-61" x="640.287109"/>
     <use xlink:href="#DejaVuSans-6c" x="701.566406"/>
     <use xlink:href="#DejaVuSans-20" x="729.349609"/>
     <use xlink:href="#DejaVuSans-70" x="761.136719"/>
     <use xlink:href="#DejaVuSans-6f" x="824.613281"/>
     <use xlink:href="#DejaVuSans-6c" x="885.794922"/>
     <use xlink:href="#DejaVuSans-69" x="913.578125"/>
     <use xlink:href="#DejaVuSans-63" x="941.361328"/>
     <use xlink:href="#DejaVuSans-79" x="996.341797"/>
     <use xlink:href="#DejaVuSans-20" x="1055.521484"/>
     <use xlink:href="#DejaVuSans-77" x="1087.308594"/>
     <use xlink:href="#DejaVuSans-69" x="1169.095703"/>
     <use xlink:href="#DejaVuSans-74" x="1196.878906"/>
     <use xlink:href="#DejaVuSans-68" x="1236.087891"/>
     <use xlink:href="#DejaVuSans-20" x="1299.466797"/>
     <use xlink:href="#DejaVuSans-6d" x="1331.253906"/>
     <use xlink:href="#DejaVuSans-20" x="1428.666016"/>
     <use xlink:href="#DejaVuSans-3d" x="1460.453125"/>
     <use xlink:href="#DejaVuSans-20" x="1544.242188"/>
     <use xlink:href="#DejaVuSans-31" x="1576.029297"/>
     <use xlink:href="#DejaVuSans-35" x="1639.652344"/>
    </g>
   </g>
   <g id="legend_1">
    <g id="patch_7">
     <path d="M 230.8125 247 
L 381.8 247 
Q 383.8 247 383.8 245 
L 383.8 171.21875 
Q 383.8 169.21875 381.8 169.21875 
L 230.8125 169.21875 
Q 228.8125 169.21875 228.8125 171.21875 
L 228.8125 245 
Q 228.8125 247 230.8125 247 
z
" style="fill: #ffffff; opacity: 0.8; stroke: #cccccc; stroke-linejoin: miter"/>
    </g>
    <g id="line2d_34">
     <path d="M 232.8125 177.317187 
L 242.8125 177.317187 
L 252.8125 177.317187 
" style="fill: none; stroke: #9d02d7; stroke-width: 1.5; stroke-linecap: square"/>
     <g>
      <use xlink:href="#m8a35582102" x="242.8125" y="177.317187" style="fill: #9d02d7; stroke: #9d02d7; stroke-linejoin: miter"/>
     </g>
    </g>
    <g id="text_18">
     <!-- m_uncertain_states=5 -->
     <g transform="translate(260.8125 180.817187)scale(0.1 -0.1)">
      <defs>
       <path id="DejaVuSans-5f" d="M 3263 -1063 
L 3263 -1509 
L -63 -1509 
L -63 -1063 
L 3263 -1063 
z
" transform="scale(0.015625)"/>
       <path id="DejaVuSans-6e" d="M 3513 2113 
L 3513 0 
L 2938 0 
L 2938 2094 
Q 2938 2591 2744 2837 
Q 2550 3084 2163 3084 
Q 1697 3084 1428 2787 
Q 1159 2491 1159 1978 
L 1159 0 
L 581 0 
L 581 3500 
L 1159 3500 
L 1159 2956 
Q 1366 3272 1645 3428 
Q 1925 3584 2291 3584 
Q 2894 3584 3203 3211 
Q 3513 2838 3513 2113 
z
" transform="scale(0.015625)"/>
      </defs>
      <use xlink:href="#DejaVuSans-6d"/>
      <use xlink:href="#DejaVuSans-5f" x="97.412109"/>
      <use xlink:href="#DejaVuSans-75" x="147.412109"/>
      <use xlink:href="#DejaVuSans-6e" x="210.791016"/>
      <use xlink:href="#DejaVuSans-63" x="274.169922"/>
      <use xlink:href="#DejaVuSans-65" x="329.150391"/>
      <use xlink:href="#DejaVuSans-72" x="390.673828"/>
      <use xlink:href="#DejaVuSans-74" x="431.787109"/>
      <use xlink:href="#DejaVuSans-61" x="470.996094"/>
      <use xlink:href="#DejaVuSans-69" x="532.275391"/>
      <use xlink:href="#DejaVuSans-6e" x="560.058594"/>
      <use xlink:href="#DejaVuSans-5f" x="623.4375"/>
      <use xlink:href="#DejaVuSans-73" x="673.4375"/>
      <use xlink:href="#DejaVuSans-74" x="725.537109"/>
      <use xlink:href="#DejaVuSans-61" x="764.746094"/>
      <use xlink:href="#DejaVuSans-74" x="826.025391"/>
      <use xlink:href="#DejaVuSans-65" x="865.234375"/>
      <use xlink:href="#DejaVuSans-73" x="926.757812"/>
      <use xlink:href="#DejaVuSans-3d" x="978.857422"/>
      <use xlink:href="#DejaVuSans-35" x="1062.646484"/>
     </g>
    </g>
    <g id="line2d_35">
     <path d="M 232.8125 192.273438 
L 242.8125 192.273438 
L 252.8125 192.273438 
" style="fill: none; stroke: #0000ff; stroke-width: 1.5; stroke-linecap: square"/>
     <g>
      <use xlink:href="#ma13c8a2520" x="242.8125" y="192.273438" style="fill: #0000ff; stroke: #0000ff"/>
     </g>
    </g>
    <g id="text_19">
     <!-- m_uncertain_states=10 -->
     <g transform="translate(260.8125 195.773438)scale(0.1 -0.1)">
      <use xlink:href="#DejaVuSans-6d"/>
      <use xlink:href="#DejaVuSans-5f" x="97.412109"/>
      <use xlink:href="#DejaVuSans-75" x="147.412109"/>
      <use xlink:href="#DejaVuSans-6e" x="210.791016"/>
      <use xlink:href="#DejaVuSans-63" x="274.169922"/>
      <use xlink:href="#DejaVuSans-65" x="329.150391"/>
      <use xlink:href="#DejaVuSans-72" x="390.673828"/>
      <use xlink:href="#DejaVuSans-74" x="431.787109"/>
      <use xlink:href="#DejaVuSans-61" x="470.996094"/>
      <use xlink:href="#DejaVuSans-69" x="532.275391"/>
      <use xlink:href="#DejaVuSans-6e" x="560.058594"/>
      <use xlink:href="#DejaVuSans-5f" x="623.4375"/>
      <use xlink:href="#DejaVuSans-73" x="673.4375"/>
      <use xlink:href="#DejaVuSans-74" x="725.537109"/>
      <use xlink:href="#DejaVuSans-61" x="764.746094"/>
      <use xlink:href="#DejaVuSans-74" x="826.025391"/>
      <use xlink:href="#DejaVuSans-65" x="865.234375"/>
      <use xlink:href="#DejaVuSans-73" x="926.757812"/>
      <use xlink:href="#DejaVuSans-3d" x="978.857422"/>
      <use xlink:href="#DejaVuSans-31" x="1062.646484"/>
      <use xlink:href="#DejaVuSans-30" x="1126.269531"/>
     </g>
    </g>
    <g id="line2d_36">
     <path d="M 232.8125 207.229688 
L 242.8125 207.229688 
L 252.8125 207.229688 
" style="fill: none; stroke: #ff7763; stroke-width: 1.5; stroke-linecap: square"/>
     <g>
      <use xlink:href="#m0b2d7d54e1" x="242.8125" y="207.229688" style="fill: #ff7763; stroke: #ff7763"/>
     </g>
    </g>
    <g id="text_20">
     <!-- m_uncertain_states=15 -->
     <g transform="translate(260.8125 210.729688)scale(0.1 -0.1)">
      <use xlink:href="#DejaVuSans-6d"/>
      <use xlink:href="#DejaVuSans-5f" x="97.412109"/>
      <use xlink:href="#DejaVuSans-75" x="147.412109"/>
      <use xlink:href="#DejaVuSans-6e" x="210.791016"/>
      <use xlink:href="#DejaVuSans-63" x="274.169922"/>
      <use xlink:href="#DejaVuSans-65" x="329.150391"/>
      <use xlink:href="#DejaVuSans-72" x="390.673828"/>
      <use xlink:href="#DejaVuSans-74" x="431.787109"/>
      <use xlink:href="#DejaVuSans-61" x="470.996094"/>
      <use xlink:href="#DejaVuSans-69" x="532.275391"/>
      <use xlink:href="#DejaVuSans-6e" x="560.058594"/>
      <use xlink:href="#DejaVuSans-5f" x="623.4375"/>
      <use xlink:href="#DejaVuSans-73" x="673.4375"/>
      <use xlink:href="#DejaVuSans-74" x="725.537109"/>
      <use xlink:href="#DejaVuSans-61" x="764.746094"/>
      <use xlink:href="#DejaVuSans-74" x="826.025391"/>
      <use xlink:href="#DejaVuSans-65" x="865.234375"/>
      <use xlink:href="#DejaVuSans-73" x="926.757812"/>
      <use xlink:href="#DejaVuSans-3d" x="978.857422"/>
      <use xlink:href="#DejaVuSans-31" x="1062.646484"/>
      <use xlink:href="#DejaVuSans-35" x="1126.269531"/>
     </g>
    </g>
    <g id="line2d_37">
     <path d="M 232.8125 222.185938 
L 242.8125 222.185938 
L 252.8125 222.185938 
" style="fill: none; stroke: #ffac1e; stroke-width: 1.5; stroke-linecap: square"/>
     <g>
      <use xlink:href="#m2f5858dda4" x="242.8125" y="222.185938" style="fill: #ffac1e; stroke: #ffac1e; stroke-linejoin: bevel"/>
     </g>
    </g>
    <g id="text_21">
     <!-- m_uncertain_states=20 -->
     <g transform="translate(260.8125 225.685938)scale(0.1 -0.1)">
      <use xlink:href="#DejaVuSans-6d"/>
      <use xlink:href="#DejaVuSans-5f" x="97.412109"/>
      <use xlink:href="#DejaVuSans-75" x="147.412109"/>
      <use xlink:href="#DejaVuSans-6e" x="210.791016"/>
      <use xlink:href="#DejaVuSans-63" x="274.169922"/>
      <use xlink:href="#DejaVuSans-65" x="329.150391"/>
      <use xlink:href="#DejaVuSans-72" x="390.673828"/>
      <use xlink:href="#DejaVuSans-74" x="431.787109"/>
      <use xlink:href="#DejaVuSans-61" x="470.996094"/>
      <use xlink:href="#DejaVuSans-69" x="532.275391"/>
      <use xlink:href="#DejaVuSans-6e" x="560.058594"/>
      <use xlink:href="#DejaVuSans-5f" x="623.4375"/>
      <use xlink:href="#DejaVuSans-73" x="673.4375"/>
      <use xlink:href="#DejaVuSans-74" x="725.537109"/>
      <use xlink:href="#DejaVuSans-61" x="764.746094"/>
      <use xlink:href="#DejaVuSans-74" x="826.025391"/>
      <use xlink:href="#DejaVuSans-65" x="865.234375"/>
      <use xlink:href="#DejaVuSans-73" x="926.757812"/>
      <use xlink:href="#DejaVuSans-3d" x="978.857422"/>
      <use xlink:href="#DejaVuSans-32" x="1062.646484"/>
      <use xlink:href="#DejaVuSans-30" x="1126.269531"/>
     </g>
    </g>
    <g id="line2d_38">
     <path d="M 232.8125 237.142188 
L 242.8125 237.142188 
L 252.8125 237.142188 
" style="fill: none; stroke: #009435; stroke-width: 1.5; stroke-linecap: square"/>
     <g>
      <use xlink:href="#mf54484955d" x="242.8125" y="237.142188" style="fill: #009435; stroke: #009435; stroke-linejoin: miter"/>
     </g>
    </g>
    <g id="text_22">
     <!-- m_uncertain_states=25 -->
     <g transform="translate(260.8125 240.642188)scale(0.1 -0.1)">
      <use xlink:href="#DejaVuSans-6d"/>
      <use xlink:href="#DejaVuSans-5f" x="97.412109"/>
      <use xlink:href="#DejaVuSans-75" x="147.412109"/>
      <use xlink:href="#DejaVuSans-6e" x="210.791016"/>
      <use xlink:href="#DejaVuSans-63" x="274.169922"/>
      <use xlink:href="#DejaVuSans-65" x="329.150391"/>
      <use xlink:href="#DejaVuSans-72" x="390.673828"/>
      <use xlink:href="#DejaVuSans-74" x="431.787109"/>
      <use xlink:href="#DejaVuSans-61" x="470.996094"/>
      <use xlink:href="#DejaVuSans-69" x="532.275391"/>
      <use xlink:href="#DejaVuSans-6e" x="560.058594"/>
      <use xlink:href="#DejaVuSans-5f" x="623.4375"/>
      <use xlink:href="#DejaVuSans-73" x="673.4375"/>
      <use xlink:href="#DejaVuSans-74" x="725.537109"/>
      <use xlink:href="#DejaVuSans-61" x="764.746094"/>
      <use xlink:href="#DejaVuSans-74" x="826.025391"/>
      <use xlink:href="#DejaVuSans-65" x="865.234375"/>
      <use xlink:href="#DejaVuSans-73" x="926.757812"/>
      <use xlink:href="#DejaVuSans-3d" x="978.857422"/>
      <use xlink:href="#DejaVuSans-32" x="1062.646484"/>
      <use xlink:href="#DejaVuSans-35" x="1126.269531"/>
     </g>
    </g>
   </g>
  </g>
 </g>
 <defs>
  <clipPath id="p5e388fb8d5">
   <rect x="54" y="34.56" width="334.8" height="217.44"/>
  </clipPath>
 </defs>
</svg>
