<?xml version="1.0" encoding="utf-8" standalone="no"?>
<!DOCTYPE svg PUBLIC "-//W3C//DTD SVG 1.1//EN"
  "http://www.w3.org/Graphics/SVG/1.1/DTD/svg11.dtd">
<svg xmlns:xlink="http://www.w3.org/1999/xlink" width="432pt" height="288pt" viewBox="0 0 432 288" xmlns="http://www.w3.org/2000/svg" version="1.1">
 <metadata>
  <rdf:RDF xmlns:dc="http://purl.org/dc/elements/1.1/" xmlns:cc="http://creativecommons.org/ns#" xmlns:rdf="http://www.w3.org/1999/02/22-rdf-syntax-ns#">
   <cc:Work>
    <dc:type rdf:resource="http://purl.org/dc/dcmitype/StillImage"/>
    <dc:date>2023-01-11T15:36:34.314040</dc:date>
    <dc:format>image/svg+xml</dc:format>
    <dc:creator>
     <cc:Agent>
      <dc:title>Matplotlib v3.5.2, https://matplotlib.org/</dc:title>
     </cc:Agent>
    </dc:creator>
   </cc:Work>
  </rdf:RDF>
 </metadata>
 <defs>
  <style type="text/css">*{stroke-linejoin: round; stroke-linecap: butt}</style>
 </defs>
 <g id="figure_1">
  <g id="patch_1">
   <path d="M 0 288 
L 432 288 
L 432 0 
L 0 0 
z
" style="fill: #ffffff"/>
  </g>
  <g id="axes_1">
   <g id="patch_2">
    <path d="M 54 252 
L 388.8 252 
L 388.8 34.56 
L 54 34.56 
z
" style="fill: #ffffff"/>
   </g>
   <g id="PolyCollection_1">
    <defs>
     <path id="m4c43d2ad82" d="M 69.218182 -37.892625 
L 69.218182 -37.892625 
L 74.376888 -34.891114 
L 79.535593 -32.300225 
L 84.694299 -34.657371 
L 89.853005 -35.091182 
L 95.01171 -31.763542 
L 100.170416 -33.449988 
L 105.329122 -34.980114 
L 110.487827 -34.711494 
L 115.646533 -31.80622 
L 120.805239 -33.121602 
L 125.963945 -31.045838 
L 131.12265 -9.58907 
L 136.281356 -32.891627 
L 141.440062 -32.622172 
L 146.598767 -16.059002 
L 151.757473 -28.699265 
L 156.916179 -29.88189 
L 162.074884 -36.536764 
L 167.23359 -33.931059 
L 172.392296 -34.093664 
L 177.551002 -33.326303 
L 182.709707 -36.970352 
L 187.868413 -57.198823 
L 193.027119 -209.148906 
L 198.185824 -51.120613 
L 203.34453 -45.936113 
L 208.503236 -37.176985 
L 213.661941 -33.736206 
L 218.820647 -197.725207 
L 223.979353 -180.239213 
L 229.138059 -169.89091 
L 234.296764 -206.875091 
L 239.45547 -208.526097 
L 244.614176 -199.960056 
L 249.772881 -239.734778 
L 254.931587 -236.368589 
L 260.090293 -236.152629 
L 265.248998 -222.464807 
L 270.407704 -237.594922 
L 275.56641 -237.594922 
L 280.725116 -238.021692 
L 285.883821 -226.223243 
L 291.042527 -226.223243 
L 296.201233 -226.223243 
L 301.359938 -241.371933 
L 306.518644 -241.403463 
L 311.67735 -240.866533 
L 316.836055 -240.866533 
L 321.994761 -240.866533 
L 327.153467 -244.492087 
L 332.312173 -240.866533 
L 337.470878 -244.492087 
L 342.629584 -244.492087 
L 347.78829 -240.866533 
L 352.946995 -244.492087 
L 358.105701 -244.492087 
L 363.264407 -244.492087 
L 368.423112 -240.866533 
L 373.581818 -240.866533 
L 373.581818 -240.866533 
L 373.581818 -240.866533 
L 368.423112 -240.866533 
L 363.264407 -244.492087 
L 358.105701 -244.492087 
L 352.946995 -244.492087 
L 347.78829 -240.866533 
L 342.629584 -244.492087 
L 337.470878 -244.492087 
L 332.312173 -240.866533 
L 327.153467 -244.492087 
L 321.994761 -240.866533 
L 316.836055 -240.866533 
L 311.67735 -240.866533 
L 306.518644 -241.403463 
L 301.359938 -241.371933 
L 296.201233 -226.223243 
L 291.042527 -226.223243 
L 285.883821 -226.223243 
L 280.725116 -238.021692 
L 275.56641 -237.594922 
L 270.407704 -237.594922 
L 265.248998 -222.464807 
L 260.090293 -236.152629 
L 254.931587 -236.368589 
L 249.772881 -239.734778 
L 244.614176 -199.960056 
L 239.45547 -208.526097 
L 234.296764 -206.875091 
L 229.138059 -169.89091 
L 223.979353 -180.239213 
L 218.820647 -197.725207 
L 213.661941 -33.736206 
L 208.503236 -37.176985 
L 203.34453 -45.936113 
L 198.185824 -51.120613 
L 193.027119 -209.148906 
L 187.868413 -57.198823 
L 182.709707 -36.970352 
L 177.551002 -33.326303 
L 172.392296 -34.093664 
L 167.23359 -33.931059 
L 162.074884 -36.536764 
L 156.916179 -29.88189 
L 151.757473 -28.699265 
L 146.598767 -16.059002 
L 141.440062 -32.622172 
L 136.281356 -32.891627 
L 131.12265 -9.58907 
L 125.963945 -31.045838 
L 120.805239 -33.121602 
L 115.646533 -31.80622 
L 110.487827 -34.711494 
L 105.329122 -34.980114 
L 100.170416 -33.449988 
L 95.01171 -31.763542 
L 89.853005 -35.091182 
L 84.694299 -34.657371 
L 79.535593 -32.300225 
L 74.376888 -34.891114 
L 69.218182 -37.892625 
z
" style="stroke: #9d02d7; stroke-opacity: 0.2"/>
    </defs>
    <g clip-path="url(#pf35fa0ab7b)">
     <use xlink:href="#m4c43d2ad82" x="0" y="288" style="fill: #9d02d7; fill-opacity: 0.2; stroke: #9d02d7; stroke-opacity: 0.2"/>
    </g>
   </g>
   <g id="PolyCollection_2">
    <defs>
     <path id="ma084722d92" d="M 69.218182 -34.354205 
L 69.218182 -34.354205 
L 74.376888 -33.129203 
L 79.535593 -121.66709 
L 84.694299 -32.640994 
L 89.853005 -35.091182 
L 95.01171 -29.492494 
L 100.170416 -35.091182 
L 105.329122 -35.030087 
L 110.487827 -33.670701 
L 115.646533 -31.976364 
L 120.805239 -32.527808 
L 125.963945 -29.892163 
L 131.12265 -28.803496 
L 136.281356 -44.487004 
L 141.440062 -33.289281 
L 146.598767 -35.221186 
L 151.757473 -67.028118 
L 156.916179 -31.106207 
L 162.074884 -31.556229 
L 167.23359 -26.765192 
L 172.392296 -24.145892 
L 177.551002 -21.288202 
L 182.709707 -35.232078 
L 187.868413 -46.175999 
L 193.027119 -38.141231 
L 198.185824 -34.336343 
L 203.34453 -52.103354 
L 208.503236 -34.656124 
L 213.661941 -39.229022 
L 218.820647 -204.611023 
L 223.979353 -34.571845 
L 229.138059 -35.471526 
L 234.296764 -105.999129 
L 239.45547 -235.183445 
L 244.614176 -198.944889 
L 249.772881 -238.575636 
L 254.931587 -224.067335 
L 260.090293 -236.536397 
L 265.248998 -236.536397 
L 270.407704 -237.188616 
L 275.56641 -236.263213 
L 280.725116 -236.263213 
L 285.883821 -236.263213 
L 291.042527 -236.057106 
L 296.201233 -234.517453 
L 301.359938 -236.461653 
L 306.518644 -233.349012 
L 311.67735 -236.461653 
L 316.836055 -233.349012 
L 321.994761 -233.349012 
L 327.153467 -234.403591 
L 332.312173 -236.461653 
L 337.470878 -236.461653 
L 342.629584 -236.461653 
L 347.78829 -234.403591 
L 352.946995 -236.461653 
L 358.105701 -236.177877 
L 363.264407 -239.37947 
L 368.423112 -239.37947 
L 373.581818 -237.907766 
L 373.581818 -237.907766 
L 373.581818 -237.907766 
L 368.423112 -239.37947 
L 363.264407 -239.37947 
L 358.105701 -236.177877 
L 352.946995 -236.461653 
L 347.78829 -234.403591 
L 342.629584 -236.461653 
L 337.470878 -236.461653 
L 332.312173 -236.461653 
L 327.153467 -234.403591 
L 321.994761 -233.349012 
L 316.836055 -233.349012 
L 311.67735 -236.461653 
L 306.518644 -233.349012 
L 301.359938 -236.461653 
L 296.201233 -234.517453 
L 291.042527 -236.057106 
L 285.883821 -236.263213 
L 280.725116 -236.263213 
L 275.56641 -236.263213 
L 270.407704 -237.188616 
L 265.248998 -236.536397 
L 260.090293 -236.536397 
L 254.931587 -224.067335 
L 249.772881 -238.575636 
L 244.614176 -198.944889 
L 239.45547 -235.183445 
L 234.296764 -105.999129 
L 229.138059 -35.471526 
L 223.979353 -34.571845 
L 218.820647 -204.611023 
L 213.661941 -39.229022 
L 208.503236 -34.656124 
L 203.34453 -52.103354 
L 198.185824 -34.336343 
L 193.027119 -38.141231 
L 187.868413 -46.175999 
L 182.709707 -35.232078 
L 177.551002 -21.288202 
L 172.392296 -24.145892 
L 167.23359 -26.765192 
L 162.074884 -31.556229 
L 156.916179 -31.106207 
L 151.757473 -67.028118 
L 146.598767 -35.221186 
L 141.440062 -33.289281 
L 136.281356 -44.487004 
L 131.12265 -28.803496 
L 125.963945 -29.892163 
L 120.805239 -32.527808 
L 115.646533 -31.976364 
L 110.487827 -33.670701 
L 105.329122 -35.030087 
L 100.170416 -35.091182 
L 95.01171 -29.492494 
L 89.853005 -35.091182 
L 84.694299 -32.640994 
L 79.535593 -121.66709 
L 74.376888 -33.129203 
L 69.218182 -34.354205 
z
" style="stroke: #0000ff; stroke-opacity: 0.2"/>
    </defs>
    <g clip-path="url(#pf35fa0ab7b)">
     <use xlink:href="#ma084722d92" x="0" y="288" style="fill: #0000ff; fill-opacity: 0.2; stroke: #0000ff; stroke-opacity: 0.2"/>
    </g>
   </g>
   <g id="PolyCollection_3">
    <defs>
     <path id="m872025c501" d="M 69.218182 -30.723876 
L 69.218182 -30.723876 
L 74.376888 -34.799514 
L 79.535593 -35.091182 
L 84.694299 -34.607556 
L 89.853005 -24.808696 
L 95.01171 -35.091182 
L 100.170416 -25.649868 
L 105.329122 -33.564231 
L 110.487827 -33.678133 
L 115.646533 -31.999931 
L 120.805239 -31.547705 
L 125.963945 -33.669173 
L 131.12265 -29.777599 
L 136.281356 -31.979237 
L 141.440062 -31.654152 
L 146.598767 -27.744223 
L 151.757473 -29.752443 
L 156.916179 -13.706066 
L 162.074884 -34.681436 
L 167.23359 -104.482361 
L 172.392296 -33.600153 
L 177.551002 -34.574066 
L 182.709707 -31.331006 
L 187.868413 -31.423966 
L 193.027119 -33.650134 
L 198.185824 -50.07194 
L 203.34453 -27.51994 
L 208.503236 -64.553426 
L 213.661941 -60.141462 
L 218.820647 -30.130048 
L 223.979353 -182.796516 
L 229.138059 -31.339709 
L 234.296764 -27.499945 
L 239.45547 -189.886421 
L 244.614176 -189.886421 
L 249.772881 -89.602334 
L 254.931587 -185.53718 
L 260.090293 -179.640671 
L 265.248998 -225.606115 
L 270.407704 -228.844523 
L 275.56641 -228.844523 
L 280.725116 -188.319243 
L 285.883821 -214.665479 
L 291.042527 -233.290227 
L 296.201233 -221.989361 
L 301.359938 -221.989361 
L 306.518644 -221.989361 
L 311.67735 -221.989361 
L 316.836055 -220.733079 
L 321.994761 -235.914396 
L 327.153467 -235.914396 
L 332.312173 -235.914396 
L 337.470878 -233.429566 
L 342.629584 -239.390816 
L 347.78829 -237.254781 
L 352.946995 -233.382254 
L 358.105701 -134.74299 
L 363.264407 -146.354238 
L 368.423112 -147.961915 
L 373.581818 -243.501359 
L 373.581818 -243.501359 
L 373.581818 -243.501359 
L 368.423112 -147.961915 
L 363.264407 -146.354238 
L 358.105701 -134.74299 
L 352.946995 -233.382254 
L 347.78829 -237.254781 
L 342.629584 -239.390816 
L 337.470878 -233.429566 
L 332.312173 -235.914396 
L 327.153467 -235.914396 
L 321.994761 -235.914396 
L 316.836055 -220.733079 
L 311.67735 -221.989361 
L 306.518644 -221.989361 
L 301.359938 -221.989361 
L 296.201233 -221.989361 
L 291.042527 -233.290227 
L 285.883821 -214.665479 
L 280.725116 -188.319243 
L 275.56641 -228.844523 
L 270.407704 -228.844523 
L 265.248998 -225.606115 
L 260.090293 -179.640671 
L 254.931587 -185.53718 
L 249.772881 -89.602334 
L 244.614176 -189.886421 
L 239.45547 -189.886421 
L 234.296764 -27.499945 
L 229.138059 -31.339709 
L 223.979353 -182.796516 
L 218.820647 -30.130048 
L 213.661941 -60.141462 
L 208.503236 -64.553426 
L 203.34453 -27.51994 
L 198.185824 -50.07194 
L 193.027119 -33.650134 
L 187.868413 -31.423966 
L 182.709707 -31.331006 
L 177.551002 -34.574066 
L 172.392296 -33.600153 
L 167.23359 -104.482361 
L 162.074884 -34.681436 
L 156.916179 -13.706066 
L 151.757473 -29.752443 
L 146.598767 -27.744223 
L 141.440062 -31.654152 
L 136.281356 -31.979237 
L 131.12265 -29.777599 
L 125.963945 -33.669173 
L 120.805239 -31.547705 
L 115.646533 -31.999931 
L 110.487827 -33.678133 
L 105.329122 -33.564231 
L 100.170416 -25.649868 
L 95.01171 -35.091182 
L 89.853005 -24.808696 
L 84.694299 -34.607556 
L 79.535593 -35.091182 
L 74.376888 -34.799514 
L 69.218182 -30.723876 
z
" style="stroke: #ff7763; stroke-opacity: 0.2"/>
    </defs>
    <g clip-path="url(#pf35fa0ab7b)">
     <use xlink:href="#m872025c501" x="0" y="288" style="fill: #ff7763; fill-opacity: 0.2; stroke: #ff7763; stroke-opacity: 0.2"/>
    </g>
   </g>
   <g id="PolyCollection_4">
    <defs>
     <path id="m6e2446a142" d="M 69.218182 -33.245136 
L 69.218182 -33.245136 
L 74.376888 -34.951355 
L 79.535593 -34.61902 
L 84.694299 -31.687805 
L 89.853005 -35.076614 
L 95.01171 -31.210349 
L 100.170416 -35.097932 
L 105.329122 -74.748976 
L 110.487827 -34.098076 
L 115.646533 -32.210695 
L 120.805239 -34.317058 
L 125.963945 -32.751159 
L 131.12265 -35.482438 
L 136.281356 -26.128189 
L 141.440062 -31.430838 
L 146.598767 -31.779992 
L 151.757473 -30.227926 
L 156.916179 -31.597272 
L 162.074884 -31.95168 
L 167.23359 -55.27609 
L 172.392296 -34.755161 
L 177.551002 -33.533037 
L 182.709707 -33.247631 
L 187.868413 -31.542194 
L 193.027119 -33.034188 
L 198.185824 -30.658168 
L 203.34453 -59.847473 
L 208.503236 -29.441773 
L 213.661941 -137.651547 
L 218.820647 -31.002427 
L 223.979353 -91.944066 
L 229.138059 -190.108287 
L 234.296764 -198.955823 
L 239.45547 -39.170115 
L 244.614176 -142.348814 
L 249.772881 -154.083653 
L 254.931587 -38.19937 
L 260.090293 -41.010621 
L 265.248998 -41.001874 
L 270.407704 -208.632684 
L 275.56641 -180.669877 
L 280.725116 -201.195479 
L 285.883821 -235.570226 
L 291.042527 -212.015977 
L 296.201233 -236.798138 
L 301.359938 -236.798138 
L 306.518644 -236.798138 
L 311.67735 -236.798138 
L 316.836055 -235.461847 
L 321.994761 -236.798138 
L 327.153467 -236.798138 
L 332.312173 -236.798138 
L 337.470878 -236.798138 
L 342.629584 -239.251268 
L 347.78829 -236.798138 
L 352.946995 -225.93089 
L 358.105701 -238.525199 
L 363.264407 -238.525199 
L 368.423112 -238.525199 
L 373.581818 -238.525199 
L 373.581818 -238.525199 
L 373.581818 -238.525199 
L 368.423112 -238.525199 
L 363.264407 -238.525199 
L 358.105701 -238.525199 
L 352.946995 -225.93089 
L 347.78829 -236.798138 
L 342.629584 -239.251268 
L 337.470878 -236.798138 
L 332.312173 -236.798138 
L 327.153467 -236.798138 
L 321.994761 -236.798138 
L 316.836055 -235.461847 
L 311.67735 -236.798138 
L 306.518644 -236.798138 
L 301.359938 -236.798138 
L 296.201233 -236.798138 
L 291.042527 -212.015977 
L 285.883821 -235.570226 
L 280.725116 -201.195479 
L 275.56641 -180.669877 
L 270.407704 -208.632684 
L 265.248998 -41.001874 
L 260.090293 -41.010621 
L 254.931587 -38.19937 
L 249.772881 -154.083653 
L 244.614176 -142.348814 
L 239.45547 -39.170115 
L 234.296764 -198.955823 
L 229.138059 -190.108287 
L 223.979353 -91.944066 
L 218.820647 -31.002427 
L 213.661941 -137.651547 
L 208.503236 -29.441773 
L 203.34453 -59.847473 
L 198.185824 -30.658168 
L 193.027119 -33.034188 
L 187.868413 -31.542194 
L 182.709707 -33.247631 
L 177.551002 -33.533037 
L 172.392296 -34.755161 
L 167.23359 -55.27609 
L 162.074884 -31.95168 
L 156.916179 -31.597272 
L 151.757473 -30.227926 
L 146.598767 -31.779992 
L 141.440062 -31.430838 
L 136.281356 -26.128189 
L 131.12265 -35.482438 
L 125.963945 -32.751159 
L 120.805239 -34.317058 
L 115.646533 -32.210695 
L 110.487827 -34.098076 
L 105.329122 -74.748976 
L 100.170416 -35.097932 
L 95.01171 -31.210349 
L 89.853005 -35.076614 
L 84.694299 -31.687805 
L 79.535593 -34.61902 
L 74.376888 -34.951355 
L 69.218182 -33.245136 
z
" style="stroke: #ffac1e; stroke-opacity: 0.2"/>
    </defs>
    <g clip-path="url(#pf35fa0ab7b)">
     <use xlink:href="#m6e2446a142" x="0" y="288" style="fill: #ffac1e; fill-opacity: 0.2; stroke: #ffac1e; stroke-opacity: 0.2"/>
    </g>
   </g>
   <g id="PolyCollection_5">
    <defs>
     <path id="m100cddefa5" d="M 69.218182 -35.091182 
L 69.218182 -35.091182 
L 74.376888 -32.458858 
L 79.535593 -24.332119 
L 84.694299 -33.690831 
L 89.853005 -35.011263 
L 95.01171 -35.072355 
L 100.170416 -32.900326 
L 105.329122 -36.050597 
L 110.487827 -32.087292 
L 115.646533 -34.035452 
L 120.805239 -22.248813 
L 125.963945 -34.658546 
L 131.12265 -11.030159 
L 136.281356 -27.187094 
L 141.440062 -26.137243 
L 146.598767 -26.312694 
L 151.757473 -32.538502 
L 156.916179 -31.524233 
L 162.074884 -31.233326 
L 167.23359 -34.153952 
L 172.392296 -33.60283 
L 177.551002 -34.733519 
L 182.709707 -35.535065 
L 187.868413 -35.141819 
L 193.027119 -34.350676 
L 198.185824 -78.431814 
L 203.34453 -34.490141 
L 208.503236 -33.698171 
L 213.661941 -33.88164 
L 218.820647 -37.005752 
L 223.979353 -33.798161 
L 229.138059 -33.798161 
L 234.296764 -35.215438 
L 239.45547 -35.215462 
L 244.614176 -152.798892 
L 249.772881 -49.052906 
L 254.931587 -164.582502 
L 260.090293 -55.736711 
L 265.248998 -32.277802 
L 270.407704 -73.608587 
L 275.56641 -141.364597 
L 280.725116 -145.607517 
L 285.883821 -207.849506 
L 291.042527 -220.335902 
L 296.201233 -220.346325 
L 301.359938 -220.346325 
L 306.518644 -223.461888 
L 311.67735 -223.107827 
L 316.836055 -223.107827 
L 321.994761 -223.107827 
L 327.153467 -223.107827 
L 332.312173 -223.107827 
L 337.470878 -222.893121 
L 342.629584 -232.574566 
L 347.78829 -224.845234 
L 352.946995 -224.845565 
L 358.105701 -237.195842 
L 363.264407 -237.195842 
L 368.423112 -236.923419 
L 373.581818 -199.793383 
L 373.581818 -199.793383 
L 373.581818 -199.793383 
L 368.423112 -236.923419 
L 363.264407 -237.195842 
L 358.105701 -237.195842 
L 352.946995 -224.845565 
L 347.78829 -224.845234 
L 342.629584 -232.574566 
L 337.470878 -222.893121 
L 332.312173 -223.107827 
L 327.153467 -223.107827 
L 321.994761 -223.107827 
L 316.836055 -223.107827 
L 311.67735 -223.107827 
L 306.518644 -223.461888 
L 301.359938 -220.346325 
L 296.201233 -220.346325 
L 291.042527 -220.335902 
L 285.883821 -207.849506 
L 280.725116 -145.607517 
L 275.56641 -141.364597 
L 270.407704 -73.608587 
L 265.248998 -32.277802 
L 260.090293 -55.736711 
L 254.931587 -164.582502 
L 249.772881 -49.052906 
L 244.614176 -152.798892 
L 239.45547 -35.215462 
L 234.296764 -35.215438 
L 229.138059 -33.798161 
L 223.979353 -33.798161 
L 218.820647 -37.005752 
L 213.661941 -33.88164 
L 208.503236 -33.698171 
L 203.34453 -34.490141 
L 198.185824 -78.431814 
L 193.027119 -34.350676 
L 187.868413 -35.141819 
L 182.709707 -35.535065 
L 177.551002 -34.733519 
L 172.392296 -33.60283 
L 167.23359 -34.153952 
L 162.074884 -31.233326 
L 156.916179 -31.524233 
L 151.757473 -32.538502 
L 146.598767 -26.312694 
L 141.440062 -26.137243 
L 136.281356 -27.187094 
L 131.12265 -11.030159 
L 125.963945 -34.658546 
L 120.805239 -22.248813 
L 115.646533 -34.035452 
L 110.487827 -32.087292 
L 105.329122 -36.050597 
L 100.170416 -32.900326 
L 95.01171 -35.072355 
L 89.853005 -35.011263 
L 84.694299 -33.690831 
L 79.535593 -24.332119 
L 74.376888 -32.458858 
L 69.218182 -35.091182 
z
" style="stroke: #009435; stroke-opacity: 0.2"/>
    </defs>
    <g clip-path="url(#pf35fa0ab7b)">
     <use xlink:href="#m100cddefa5" x="0" y="288" style="fill: #009435; fill-opacity: 0.2; stroke: #009435; stroke-opacity: 0.2"/>
    </g>
   </g>
   <g id="matplotlib.axis_1">
    <g id="xtick_1">
     <g id="line2d_1">
      <path d="M 69.218182 252 
L 69.218182 34.56 
" clip-path="url(#pf35fa0ab7b)" style="fill: none; stroke-dasharray: 2.96,1.28; stroke-dashoffset: 0; stroke: #b0b0b0; stroke-width: 0.8"/>
     </g>
     <g id="line2d_2">
      <defs>
       <path id="m4debaf9fea" d="M 0 0 
L 0 3.5 
" style="stroke: #000000; stroke-width: 0.8"/>
      </defs>
      <g>
       <use xlink:href="#m4debaf9fea" x="69.218182" y="252" style="stroke: #000000; stroke-width: 0.8"/>
      </g>
     </g>
     <g id="text_1">
      <!-- 0 -->
      <g transform="translate(66.036932 266.598437)scale(0.1 -0.1)">
       <defs>
        <path id="DejaVuSans-30" d="M 2034 4250 
Q 1547 4250 1301 3770 
Q 1056 3291 1056 2328 
Q 1056 1369 1301 889 
Q 1547 409 2034 409 
Q 2525 409 2770 889 
Q 3016 1369 3016 2328 
Q 3016 3291 2770 3770 
Q 2525 4250 2034 4250 
z
M 2034 4750 
Q 2819 4750 3233 4129 
Q 3647 3509 3647 2328 
Q 3647 1150 3233 529 
Q 2819 -91 2034 -91 
Q 1250 -91 836 529 
Q 422 1150 422 2328 
Q 422 3509 836 4129 
Q 1250 4750 2034 4750 
z
" transform="scale(0.015625)"/>
       </defs>
       <use xlink:href="#DejaVuSans-30"/>
      </g>
     </g>
    </g>
    <g id="xtick_2">
     <g id="line2d_3">
      <path d="M 120.805239 252 
L 120.805239 34.56 
" clip-path="url(#pf35fa0ab7b)" style="fill: none; stroke-dasharray: 2.96,1.28; stroke-dashoffset: 0; stroke: #b0b0b0; stroke-width: 0.8"/>
     </g>
     <g id="line2d_4">
      <g>
       <use xlink:href="#m4debaf9fea" x="120.805239" y="252" style="stroke: #000000; stroke-width: 0.8"/>
      </g>
     </g>
     <g id="text_2">
      <!-- 500 -->
      <g transform="translate(111.261489 266.598437)scale(0.1 -0.1)">
       <defs>
        <path id="DejaVuSans-35" d="M 691 4666 
L 3169 4666 
L 3169 4134 
L 1269 4134 
L 1269 2991 
Q 1406 3038 1543 3061 
Q 1681 3084 1819 3084 
Q 2600 3084 3056 2656 
Q 3513 2228 3513 1497 
Q 3513 744 3044 326 
Q 2575 -91 1722 -91 
Q 1428 -91 1123 -41 
Q 819 9 494 109 
L 494 744 
Q 775 591 1075 516 
Q 1375 441 1709 441 
Q 2250 441 2565 725 
Q 2881 1009 2881 1497 
Q 2881 1984 2565 2268 
Q 2250 2553 1709 2553 
Q 1456 2553 1204 2497 
Q 953 2441 691 2322 
L 691 4666 
z
" transform="scale(0.015625)"/>
       </defs>
       <use xlink:href="#DejaVuSans-35"/>
       <use xlink:href="#DejaVuSans-30" x="63.623047"/>
       <use xlink:href="#DejaVuSans-30" x="127.246094"/>
      </g>
     </g>
    </g>
    <g id="xtick_3">
     <g id="line2d_5">
      <path d="M 172.392296 252 
L 172.392296 34.56 
" clip-path="url(#pf35fa0ab7b)" style="fill: none; stroke-dasharray: 2.96,1.28; stroke-dashoffset: 0; stroke: #b0b0b0; stroke-width: 0.8"/>
     </g>
     <g id="line2d_6">
      <g>
       <use xlink:href="#m4debaf9fea" x="172.392296" y="252" style="stroke: #000000; stroke-width: 0.8"/>
      </g>
     </g>
     <g id="text_3">
      <!-- 1000 -->
      <g transform="translate(159.667296 266.598437)scale(0.1 -0.1)">
       <defs>
        <path id="DejaVuSans-31" d="M 794 531 
L 1825 531 
L 1825 4091 
L 703 3866 
L 703 4441 
L 1819 4666 
L 2450 4666 
L 2450 531 
L 3481 531 
L 3481 0 
L 794 0 
L 794 531 
z
" transform="scale(0.015625)"/>
       </defs>
       <use xlink:href="#DejaVuSans-31"/>
       <use xlink:href="#DejaVuSans-30" x="63.623047"/>
       <use xlink:href="#DejaVuSans-30" x="127.246094"/>
       <use xlink:href="#DejaVuSans-30" x="190.869141"/>
      </g>
     </g>
    </g>
    <g id="xtick_4">
     <g id="line2d_7">
      <path d="M 223.979353 252 
L 223.979353 34.56 
" clip-path="url(#pf35fa0ab7b)" style="fill: none; stroke-dasharray: 2.96,1.28; stroke-dashoffset: 0; stroke: #b0b0b0; stroke-width: 0.8"/>
     </g>
     <g id="line2d_8">
      <g>
       <use xlink:href="#m4debaf9fea" x="223.979353" y="252" style="stroke: #000000; stroke-width: 0.8"/>
      </g>
     </g>
     <g id="text_4">
      <!-- 1500 -->
      <g transform="translate(211.254353 266.598437)scale(0.1 -0.1)">
       <use xlink:href="#DejaVuSans-31"/>
       <use xlink:href="#DejaVuSans-35" x="63.623047"/>
       <use xlink:href="#DejaVuSans-30" x="127.246094"/>
       <use xlink:href="#DejaVuSans-30" x="190.869141"/>
      </g>
     </g>
    </g>
    <g id="xtick_5">
     <g id="line2d_9">
      <path d="M 275.56641 252 
L 275.56641 34.56 
" clip-path="url(#pf35fa0ab7b)" style="fill: none; stroke-dasharray: 2.96,1.28; stroke-dashoffset: 0; stroke: #b0b0b0; stroke-width: 0.8"/>
     </g>
     <g id="line2d_10">
      <g>
       <use xlink:href="#m4debaf9fea" x="275.56641" y="252" style="stroke: #000000; stroke-width: 0.8"/>
      </g>
     </g>
     <g id="text_5">
      <!-- 2000 -->
      <g transform="translate(262.84141 266.598437)scale(0.1 -0.1)">
       <defs>
        <path id="DejaVuSans-32" d="M 1228 531 
L 3431 531 
L 3431 0 
L 469 0 
L 469 531 
Q 828 903 1448 1529 
Q 2069 2156 2228 2338 
Q 2531 2678 2651 2914 
Q 2772 3150 2772 3378 
Q 2772 3750 2511 3984 
Q 2250 4219 1831 4219 
Q 1534 4219 1204 4116 
Q 875 4013 500 3803 
L 500 4441 
Q 881 4594 1212 4672 
Q 1544 4750 1819 4750 
Q 2544 4750 2975 4387 
Q 3406 4025 3406 3419 
Q 3406 3131 3298 2873 
Q 3191 2616 2906 2266 
Q 2828 2175 2409 1742 
Q 1991 1309 1228 531 
z
" transform="scale(0.015625)"/>
       </defs>
       <use xlink:href="#DejaVuSans-32"/>
       <use xlink:href="#DejaVuSans-30" x="63.623047"/>
       <use xlink:href="#DejaVuSans-30" x="127.246094"/>
       <use xlink:href="#DejaVuSans-30" x="190.869141"/>
      </g>
     </g>
    </g>
    <g id="xtick_6">
     <g id="line2d_11">
      <path d="M 327.153467 252 
L 327.153467 34.56 
" clip-path="url(#pf35fa0ab7b)" style="fill: none; stroke-dasharray: 2.96,1.28; stroke-dashoffset: 0; stroke: #b0b0b0; stroke-width: 0.8"/>
     </g>
     <g id="line2d_12">
      <g>
       <use xlink:href="#m4debaf9fea" x="327.153467" y="252" style="stroke: #000000; stroke-width: 0.8"/>
      </g>
     </g>
     <g id="text_6">
      <!-- 2500 -->
      <g transform="translate(314.428467 266.598437)scale(0.1 -0.1)">
       <use xlink:href="#DejaVuSans-32"/>
       <use xlink:href="#DejaVuSans-35" x="63.623047"/>
       <use xlink:href="#DejaVuSans-30" x="127.246094"/>
       <use xlink:href="#DejaVuSans-30" x="190.869141"/>
      </g>
     </g>
    </g>
    <g id="xtick_7">
     <g id="line2d_13">
      <path d="M 378.740524 252 
L 378.740524 34.56 
" clip-path="url(#pf35fa0ab7b)" style="fill: none; stroke-dasharray: 2.96,1.28; stroke-dashoffset: 0; stroke: #b0b0b0; stroke-width: 0.8"/>
     </g>
     <g id="line2d_14">
      <g>
       <use xlink:href="#m4debaf9fea" x="378.740524" y="252" style="stroke: #000000; stroke-width: 0.8"/>
      </g>
     </g>
     <g id="text_7">
      <!-- 3000 -->
      <g transform="translate(366.015524 266.598437)scale(0.1 -0.1)">
       <defs>
        <path id="DejaVuSans-33" d="M 2597 2516 
Q 3050 2419 3304 2112 
Q 3559 1806 3559 1356 
Q 3559 666 3084 287 
Q 2609 -91 1734 -91 
Q 1441 -91 1130 -33 
Q 819 25 488 141 
L 488 750 
Q 750 597 1062 519 
Q 1375 441 1716 441 
Q 2309 441 2620 675 
Q 2931 909 2931 1356 
Q 2931 1769 2642 2001 
Q 2353 2234 1838 2234 
L 1294 2234 
L 1294 2753 
L 1863 2753 
Q 2328 2753 2575 2939 
Q 2822 3125 2822 3475 
Q 2822 3834 2567 4026 
Q 2313 4219 1838 4219 
Q 1578 4219 1281 4162 
Q 984 4106 628 3988 
L 628 4550 
Q 988 4650 1302 4700 
Q 1616 4750 1894 4750 
Q 2613 4750 3031 4423 
Q 3450 4097 3450 3541 
Q 3450 3153 3228 2886 
Q 3006 2619 2597 2516 
z
" transform="scale(0.015625)"/>
       </defs>
       <use xlink:href="#DejaVuSans-33"/>
       <use xlink:href="#DejaVuSans-30" x="63.623047"/>
       <use xlink:href="#DejaVuSans-30" x="127.246094"/>
       <use xlink:href="#DejaVuSans-30" x="190.869141"/>
      </g>
     </g>
    </g>
    <g id="text_8">
     <!-- Steps -->
     <g transform="translate(207.410156 280.276563)scale(0.1 -0.1)">
      <defs>
       <path id="DejaVuSans-53" d="M 3425 4513 
L 3425 3897 
Q 3066 4069 2747 4153 
Q 2428 4238 2131 4238 
Q 1616 4238 1336 4038 
Q 1056 3838 1056 3469 
Q 1056 3159 1242 3001 
Q 1428 2844 1947 2747 
L 2328 2669 
Q 3034 2534 3370 2195 
Q 3706 1856 3706 1288 
Q 3706 609 3251 259 
Q 2797 -91 1919 -91 
Q 1588 -91 1214 -16 
Q 841 59 441 206 
L 441 856 
Q 825 641 1194 531 
Q 1563 422 1919 422 
Q 2459 422 2753 634 
Q 3047 847 3047 1241 
Q 3047 1584 2836 1778 
Q 2625 1972 2144 2069 
L 1759 2144 
Q 1053 2284 737 2584 
Q 422 2884 422 3419 
Q 422 4038 858 4394 
Q 1294 4750 2059 4750 
Q 2388 4750 2728 4690 
Q 3069 4631 3425 4513 
z
" transform="scale(0.015625)"/>
       <path id="DejaVuSans-74" d="M 1172 4494 
L 1172 3500 
L 2356 3500 
L 2356 3053 
L 1172 3053 
L 1172 1153 
Q 1172 725 1289 603 
Q 1406 481 1766 481 
L 2356 481 
L 2356 0 
L 1766 0 
Q 1100 0 847 248 
Q 594 497 594 1153 
L 594 3053 
L 172 3053 
L 172 3500 
L 594 3500 
L 594 4494 
L 1172 4494 
z
" transform="scale(0.015625)"/>
       <path id="DejaVuSans-65" d="M 3597 1894 
L 3597 1613 
L 953 1613 
Q 991 1019 1311 708 
Q 1631 397 2203 397 
Q 2534 397 2845 478 
Q 3156 559 3463 722 
L 3463 178 
Q 3153 47 2828 -22 
Q 2503 -91 2169 -91 
Q 1331 -91 842 396 
Q 353 884 353 1716 
Q 353 2575 817 3079 
Q 1281 3584 2069 3584 
Q 2775 3584 3186 3129 
Q 3597 2675 3597 1894 
z
M 3022 2063 
Q 3016 2534 2758 2815 
Q 2500 3097 2075 3097 
Q 1594 3097 1305 2825 
Q 1016 2553 972 2059 
L 3022 2063 
z
" transform="scale(0.015625)"/>
       <path id="DejaVuSans-70" d="M 1159 525 
L 1159 -1331 
L 581 -1331 
L 581 3500 
L 1159 3500 
L 1159 2969 
Q 1341 3281 1617 3432 
Q 1894 3584 2278 3584 
Q 2916 3584 3314 3078 
Q 3713 2572 3713 1747 
Q 3713 922 3314 415 
Q 2916 -91 2278 -91 
Q 1894 -91 1617 61 
Q 1341 213 1159 525 
z
M 3116 1747 
Q 3116 2381 2855 2742 
Q 2594 3103 2138 3103 
Q 1681 3103 1420 2742 
Q 1159 2381 1159 1747 
Q 1159 1113 1420 752 
Q 1681 391 2138 391 
Q 2594 391 2855 752 
Q 3116 1113 3116 1747 
z
" transform="scale(0.015625)"/>
       <path id="DejaVuSans-73" d="M 2834 3397 
L 2834 2853 
Q 2591 2978 2328 3040 
Q 2066 3103 1784 3103 
Q 1356 3103 1142 2972 
Q 928 2841 928 2578 
Q 928 2378 1081 2264 
Q 1234 2150 1697 2047 
L 1894 2003 
Q 2506 1872 2764 1633 
Q 3022 1394 3022 966 
Q 3022 478 2636 193 
Q 2250 -91 1575 -91 
Q 1294 -91 989 -36 
Q 684 19 347 128 
L 347 722 
Q 666 556 975 473 
Q 1284 391 1588 391 
Q 1994 391 2212 530 
Q 2431 669 2431 922 
Q 2431 1156 2273 1281 
Q 2116 1406 1581 1522 
L 1381 1569 
Q 847 1681 609 1914 
Q 372 2147 372 2553 
Q 372 3047 722 3315 
Q 1072 3584 1716 3584 
Q 2034 3584 2315 3537 
Q 2597 3491 2834 3397 
z
" transform="scale(0.015625)"/>
      </defs>
      <use xlink:href="#DejaVuSans-53"/>
      <use xlink:href="#DejaVuSans-74" x="63.476562"/>
      <use xlink:href="#DejaVuSans-65" x="102.685547"/>
      <use xlink:href="#DejaVuSans-70" x="164.208984"/>
      <use xlink:href="#DejaVuSans-73" x="227.685547"/>
     </g>
    </g>
   </g>
   <g id="matplotlib.axis_2">
    <g id="ytick_1">
     <g id="line2d_15">
      <path d="M 54 243.636923 
L 388.8 243.636923 
" clip-path="url(#pf35fa0ab7b)" style="fill: none; stroke-dasharray: 2.96,1.28; stroke-dashoffset: 0; stroke: #b0b0b0; stroke-width: 0.8"/>
     </g>
     <g id="line2d_16">
      <defs>
       <path id="m37f5a9bc3b" d="M 0 0 
L -3.5 0 
" style="stroke: #000000; stroke-width: 0.8"/>
      </defs>
      <g>
       <use xlink:href="#m37f5a9bc3b" x="54" y="243.636923" style="stroke: #000000; stroke-width: 0.8"/>
      </g>
     </g>
     <g id="text_9">
      <!-- −12 -->
      <g transform="translate(25.895312 247.436142)scale(0.1 -0.1)">
       <defs>
        <path id="DejaVuSans-2212" d="M 678 2272 
L 4684 2272 
L 4684 1741 
L 678 1741 
L 678 2272 
z
" transform="scale(0.015625)"/>
       </defs>
       <use xlink:href="#DejaVuSans-2212"/>
       <use xlink:href="#DejaVuSans-31" x="83.789062"/>
       <use xlink:href="#DejaVuSans-32" x="147.412109"/>
      </g>
     </g>
    </g>
    <g id="ytick_2">
     <g id="line2d_17">
      <path d="M 54 210.184615 
L 388.8 210.184615 
" clip-path="url(#pf35fa0ab7b)" style="fill: none; stroke-dasharray: 2.96,1.28; stroke-dashoffset: 0; stroke: #b0b0b0; stroke-width: 0.8"/>
     </g>
     <g id="line2d_18">
      <g>
       <use xlink:href="#m37f5a9bc3b" x="54" y="210.184615" style="stroke: #000000; stroke-width: 0.8"/>
      </g>
     </g>
     <g id="text_10">
      <!-- −10 -->
      <g transform="translate(25.895312 213.983834)scale(0.1 -0.1)">
       <use xlink:href="#DejaVuSans-2212"/>
       <use xlink:href="#DejaVuSans-31" x="83.789062"/>
       <use xlink:href="#DejaVuSans-30" x="147.412109"/>
      </g>
     </g>
    </g>
    <g id="ytick_3">
     <g id="line2d_19">
      <path d="M 54 176.732308 
L 388.8 176.732308 
" clip-path="url(#pf35fa0ab7b)" style="fill: none; stroke-dasharray: 2.96,1.28; stroke-dashoffset: 0; stroke: #b0b0b0; stroke-width: 0.8"/>
     </g>
     <g id="line2d_20">
      <g>
       <use xlink:href="#m37f5a9bc3b" x="54" y="176.732308" style="stroke: #000000; stroke-width: 0.8"/>
      </g>
     </g>
     <g id="text_11">
      <!-- −8 -->
      <g transform="translate(32.257812 180.531526)scale(0.1 -0.1)">
       <defs>
        <path id="DejaVuSans-38" d="M 2034 2216 
Q 1584 2216 1326 1975 
Q 1069 1734 1069 1313 
Q 1069 891 1326 650 
Q 1584 409 2034 409 
Q 2484 409 2743 651 
Q 3003 894 3003 1313 
Q 3003 1734 2745 1975 
Q 2488 2216 2034 2216 
z
M 1403 2484 
Q 997 2584 770 2862 
Q 544 3141 544 3541 
Q 544 4100 942 4425 
Q 1341 4750 2034 4750 
Q 2731 4750 3128 4425 
Q 3525 4100 3525 3541 
Q 3525 3141 3298 2862 
Q 3072 2584 2669 2484 
Q 3125 2378 3379 2068 
Q 3634 1759 3634 1313 
Q 3634 634 3220 271 
Q 2806 -91 2034 -91 
Q 1263 -91 848 271 
Q 434 634 434 1313 
Q 434 1759 690 2068 
Q 947 2378 1403 2484 
z
M 1172 3481 
Q 1172 3119 1398 2916 
Q 1625 2713 2034 2713 
Q 2441 2713 2670 2916 
Q 2900 3119 2900 3481 
Q 2900 3844 2670 4047 
Q 2441 4250 2034 4250 
Q 1625 4250 1398 4047 
Q 1172 3844 1172 3481 
z
" transform="scale(0.015625)"/>
       </defs>
       <use xlink:href="#DejaVuSans-2212"/>
       <use xlink:href="#DejaVuSans-38" x="83.789062"/>
      </g>
     </g>
    </g>
    <g id="ytick_4">
     <g id="line2d_21">
      <path d="M 54 143.28 
L 388.8 143.28 
" clip-path="url(#pf35fa0ab7b)" style="fill: none; stroke-dasharray: 2.96,1.28; stroke-dashoffset: 0; stroke: #b0b0b0; stroke-width: 0.8"/>
     </g>
     <g id="line2d_22">
      <g>
       <use xlink:href="#m37f5a9bc3b" x="54" y="143.28" style="stroke: #000000; stroke-width: 0.8"/>
      </g>
     </g>
     <g id="text_12">
      <!-- −6 -->
      <g transform="translate(32.257812 147.079219)scale(0.1 -0.1)">
       <defs>
        <path id="DejaVuSans-36" d="M 2113 2584 
Q 1688 2584 1439 2293 
Q 1191 2003 1191 1497 
Q 1191 994 1439 701 
Q 1688 409 2113 409 
Q 2538 409 2786 701 
Q 3034 994 3034 1497 
Q 3034 2003 2786 2293 
Q 2538 2584 2113 2584 
z
M 3366 4563 
L 3366 3988 
Q 3128 4100 2886 4159 
Q 2644 4219 2406 4219 
Q 1781 4219 1451 3797 
Q 1122 3375 1075 2522 
Q 1259 2794 1537 2939 
Q 1816 3084 2150 3084 
Q 2853 3084 3261 2657 
Q 3669 2231 3669 1497 
Q 3669 778 3244 343 
Q 2819 -91 2113 -91 
Q 1303 -91 875 529 
Q 447 1150 447 2328 
Q 447 3434 972 4092 
Q 1497 4750 2381 4750 
Q 2619 4750 2861 4703 
Q 3103 4656 3366 4563 
z
" transform="scale(0.015625)"/>
       </defs>
       <use xlink:href="#DejaVuSans-2212"/>
       <use xlink:href="#DejaVuSans-36" x="83.789062"/>
      </g>
     </g>
    </g>
    <g id="ytick_5">
     <g id="line2d_23">
      <path d="M 54 109.827692 
L 388.8 109.827692 
" clip-path="url(#pf35fa0ab7b)" style="fill: none; stroke-dasharray: 2.96,1.28; stroke-dashoffset: 0; stroke: #b0b0b0; stroke-width: 0.8"/>
     </g>
     <g id="line2d_24">
      <g>
       <use xlink:href="#m37f5a9bc3b" x="54" y="109.827692" style="stroke: #000000; stroke-width: 0.8"/>
      </g>
     </g>
     <g id="text_13">
      <!-- −4 -->
      <g transform="translate(32.257812 113.626911)scale(0.1 -0.1)">
       <defs>
        <path id="DejaVuSans-34" d="M 2419 4116 
L 825 1625 
L 2419 1625 
L 2419 4116 
z
M 2253 4666 
L 3047 4666 
L 3047 1625 
L 3713 1625 
L 3713 1100 
L 3047 1100 
L 3047 0 
L 2419 0 
L 2419 1100 
L 313 1100 
L 313 1709 
L 2253 4666 
z
" transform="scale(0.015625)"/>
       </defs>
       <use xlink:href="#DejaVuSans-2212"/>
       <use xlink:href="#DejaVuSans-34" x="83.789062"/>
      </g>
     </g>
    </g>
    <g id="ytick_6">
     <g id="line2d_25">
      <path d="M 54 76.375385 
L 388.8 76.375385 
" clip-path="url(#pf35fa0ab7b)" style="fill: none; stroke-dasharray: 2.96,1.28; stroke-dashoffset: 0; stroke: #b0b0b0; stroke-width: 0.8"/>
     </g>
     <g id="line2d_26">
      <g>
       <use xlink:href="#m37f5a9bc3b" x="54" y="76.375385" style="stroke: #000000; stroke-width: 0.8"/>
      </g>
     </g>
     <g id="text_14">
      <!-- −2 -->
      <g transform="translate(32.257812 80.174603)scale(0.1 -0.1)">
       <use xlink:href="#DejaVuSans-2212"/>
       <use xlink:href="#DejaVuSans-32" x="83.789062"/>
      </g>
     </g>
    </g>
    <g id="ytick_7">
     <g id="line2d_27">
      <path d="M 54 42.923077 
L 388.8 42.923077 
" clip-path="url(#pf35fa0ab7b)" style="fill: none; stroke-dasharray: 2.96,1.28; stroke-dashoffset: 0; stroke: #b0b0b0; stroke-width: 0.8"/>
     </g>
     <g id="line2d_28">
      <g>
       <use xlink:href="#m37f5a9bc3b" x="54" y="42.923077" style="stroke: #000000; stroke-width: 0.8"/>
      </g>
     </g>
     <g id="text_15">
      <!-- 0 -->
      <g transform="translate(40.6375 46.722296)scale(0.1 -0.1)">
       <use xlink:href="#DejaVuSans-30"/>
      </g>
     </g>
    </g>
    <g id="text_16">
     <!-- Policy value error -->
     <g transform="translate(19.815625 186.597969)rotate(-90)scale(0.1 -0.1)">
      <defs>
       <path id="DejaVuSans-50" d="M 1259 4147 
L 1259 2394 
L 2053 2394 
Q 2494 2394 2734 2622 
Q 2975 2850 2975 3272 
Q 2975 3691 2734 3919 
Q 2494 4147 2053 4147 
L 1259 4147 
z
M 628 4666 
L 2053 4666 
Q 2838 4666 3239 4311 
Q 3641 3956 3641 3272 
Q 3641 2581 3239 2228 
Q 2838 1875 2053 1875 
L 1259 1875 
L 1259 0 
L 628 0 
L 628 4666 
z
" transform="scale(0.015625)"/>
       <path id="DejaVuSans-6f" d="M 1959 3097 
Q 1497 3097 1228 2736 
Q 959 2375 959 1747 
Q 959 1119 1226 758 
Q 1494 397 1959 397 
Q 2419 397 2687 759 
Q 2956 1122 2956 1747 
Q 2956 2369 2687 2733 
Q 2419 3097 1959 3097 
z
M 1959 3584 
Q 2709 3584 3137 3096 
Q 3566 2609 3566 1747 
Q 3566 888 3137 398 
Q 2709 -91 1959 -91 
Q 1206 -91 779 398 
Q 353 888 353 1747 
Q 353 2609 779 3096 
Q 1206 3584 1959 3584 
z
" transform="scale(0.015625)"/>
       <path id="DejaVuSans-6c" d="M 603 4863 
L 1178 4863 
L 1178 0 
L 603 0 
L 603 4863 
z
" transform="scale(0.015625)"/>
       <path id="DejaVuSans-69" d="M 603 3500 
L 1178 3500 
L 1178 0 
L 603 0 
L 603 3500 
z
M 603 4863 
L 1178 4863 
L 1178 4134 
L 603 4134 
L 603 4863 
z
" transform="scale(0.015625)"/>
       <path id="DejaVuSans-63" d="M 3122 3366 
L 3122 2828 
Q 2878 2963 2633 3030 
Q 2388 3097 2138 3097 
Q 1578 3097 1268 2742 
Q 959 2388 959 1747 
Q 959 1106 1268 751 
Q 1578 397 2138 397 
Q 2388 397 2633 464 
Q 2878 531 3122 666 
L 3122 134 
Q 2881 22 2623 -34 
Q 2366 -91 2075 -91 
Q 1284 -91 818 406 
Q 353 903 353 1747 
Q 353 2603 823 3093 
Q 1294 3584 2113 3584 
Q 2378 3584 2631 3529 
Q 2884 3475 3122 3366 
z
" transform="scale(0.015625)"/>
       <path id="DejaVuSans-79" d="M 2059 -325 
Q 1816 -950 1584 -1140 
Q 1353 -1331 966 -1331 
L 506 -1331 
L 506 -850 
L 844 -850 
Q 1081 -850 1212 -737 
Q 1344 -625 1503 -206 
L 1606 56 
L 191 3500 
L 800 3500 
L 1894 763 
L 2988 3500 
L 3597 3500 
L 2059 -325 
z
" transform="scale(0.015625)"/>
       <path id="DejaVuSans-20" transform="scale(0.015625)"/>
       <path id="DejaVuSans-76" d="M 191 3500 
L 800 3500 
L 1894 563 
L 2988 3500 
L 3597 3500 
L 2284 0 
L 1503 0 
L 191 3500 
z
" transform="scale(0.015625)"/>
       <path id="DejaVuSans-61" d="M 2194 1759 
Q 1497 1759 1228 1600 
Q 959 1441 959 1056 
Q 959 750 1161 570 
Q 1363 391 1709 391 
Q 2188 391 2477 730 
Q 2766 1069 2766 1631 
L 2766 1759 
L 2194 1759 
z
M 3341 1997 
L 3341 0 
L 2766 0 
L 2766 531 
Q 2569 213 2275 61 
Q 1981 -91 1556 -91 
Q 1019 -91 701 211 
Q 384 513 384 1019 
Q 384 1609 779 1909 
Q 1175 2209 1959 2209 
L 2766 2209 
L 2766 2266 
Q 2766 2663 2505 2880 
Q 2244 3097 1772 3097 
Q 1472 3097 1187 3025 
Q 903 2953 641 2809 
L 641 3341 
Q 956 3463 1253 3523 
Q 1550 3584 1831 3584 
Q 2591 3584 2966 3190 
Q 3341 2797 3341 1997 
z
" transform="scale(0.015625)"/>
       <path id="DejaVuSans-75" d="M 544 1381 
L 544 3500 
L 1119 3500 
L 1119 1403 
Q 1119 906 1312 657 
Q 1506 409 1894 409 
Q 2359 409 2629 706 
Q 2900 1003 2900 1516 
L 2900 3500 
L 3475 3500 
L 3475 0 
L 2900 0 
L 2900 538 
Q 2691 219 2414 64 
Q 2138 -91 1772 -91 
Q 1169 -91 856 284 
Q 544 659 544 1381 
z
M 1991 3584 
L 1991 3584 
z
" transform="scale(0.015625)"/>
       <path id="DejaVuSans-72" d="M 2631 2963 
Q 2534 3019 2420 3045 
Q 2306 3072 2169 3072 
Q 1681 3072 1420 2755 
Q 1159 2438 1159 1844 
L 1159 0 
L 581 0 
L 581 3500 
L 1159 3500 
L 1159 2956 
Q 1341 3275 1631 3429 
Q 1922 3584 2338 3584 
Q 2397 3584 2469 3576 
Q 2541 3569 2628 3553 
L 2631 2963 
z
" transform="scale(0.015625)"/>
      </defs>
      <use xlink:href="#DejaVuSans-50"/>
      <use xlink:href="#DejaVuSans-6f" x="56.677734"/>
      <use xlink:href="#DejaVuSans-6c" x="117.859375"/>
      <use xlink:href="#DejaVuSans-69" x="145.642578"/>
      <use xlink:href="#DejaVuSans-63" x="173.425781"/>
      <use xlink:href="#DejaVuSans-79" x="228.40625"/>
      <use xlink:href="#DejaVuSans-20" x="287.585938"/>
      <use xlink:href="#DejaVuSans-76" x="319.373047"/>
      <use xlink:href="#DejaVuSans-61" x="378.552734"/>
      <use xlink:href="#DejaVuSans-6c" x="439.832031"/>
      <use xlink:href="#DejaVuSans-75" x="467.615234"/>
      <use xlink:href="#DejaVuSans-65" x="530.994141"/>
      <use xlink:href="#DejaVuSans-20" x="592.517578"/>
      <use xlink:href="#DejaVuSans-65" x="624.304688"/>
      <use xlink:href="#DejaVuSans-72" x="685.828125"/>
      <use xlink:href="#DejaVuSans-72" x="725.191406"/>
      <use xlink:href="#DejaVuSans-6f" x="764.054688"/>
      <use xlink:href="#DejaVuSans-72" x="825.236328"/>
     </g>
    </g>
   </g>
   <g id="line2d_29">
    <path d="M 69.218182 250.107375 
L 74.376888 253.108886 
L 79.535593 255.699775 
L 84.694299 253.342629 
L 89.853005 252.908818 
L 95.01171 256.236458 
L 100.170416 254.550012 
L 105.329122 253.019886 
L 110.487827 253.288506 
L 115.646533 256.19378 
L 120.805239 254.878398 
L 125.963945 256.954162 
L 131.12265 278.41093 
L 136.281356 255.108373 
L 141.440062 255.377828 
L 146.598767 271.940998 
L 151.757473 259.300735 
L 156.916179 258.11811 
L 162.074884 251.463236 
L 167.23359 254.068941 
L 172.392296 253.906336 
L 177.551002 254.673697 
L 182.709707 251.029648 
L 187.868413 230.801177 
L 193.027119 78.851094 
L 198.185824 236.879387 
L 203.34453 242.063887 
L 208.503236 250.823015 
L 213.661941 254.263794 
L 218.820647 90.274793 
L 223.979353 107.760787 
L 229.138059 118.10909 
L 234.296764 81.124909 
L 239.45547 79.473903 
L 244.614176 88.039944 
L 249.772881 48.265222 
L 254.931587 51.631411 
L 260.090293 51.847371 
L 265.248998 65.535193 
L 270.407704 50.405078 
L 275.56641 50.405078 
L 280.725116 49.978308 
L 285.883821 61.776757 
L 291.042527 61.776757 
L 296.201233 61.776757 
L 301.359938 46.628067 
L 306.518644 46.596537 
L 311.67735 47.133467 
L 316.836055 47.133467 
L 321.994761 47.133467 
L 327.153467 43.507913 
L 332.312173 47.133467 
L 337.470878 43.507913 
L 342.629584 43.507913 
L 347.78829 47.133467 
L 352.946995 43.507913 
L 358.105701 43.507913 
L 363.264407 43.507913 
L 368.423112 47.133467 
L 373.581818 47.133467 
" clip-path="url(#pf35fa0ab7b)" style="fill: none; stroke: #9d02d7; stroke-width: 1.5; stroke-linecap: square"/>
    <defs>
     <path id="m29efb39bfa" d="M 0 -2 
L -2 2 
L 2 2 
z
" style="stroke: #9d02d7; stroke-linejoin: miter"/>
    </defs>
    <g clip-path="url(#pf35fa0ab7b)">
     <use xlink:href="#m29efb39bfa" x="69.218182" y="250.107375" style="fill: #9d02d7; stroke: #9d02d7; stroke-linejoin: miter"/>
     <use xlink:href="#m29efb39bfa" x="74.376888" y="253.108886" style="fill: #9d02d7; stroke: #9d02d7; stroke-linejoin: miter"/>
     <use xlink:href="#m29efb39bfa" x="79.535593" y="255.699775" style="fill: #9d02d7; stroke: #9d02d7; stroke-linejoin: miter"/>
     <use xlink:href="#m29efb39bfa" x="84.694299" y="253.342629" style="fill: #9d02d7; stroke: #9d02d7; stroke-linejoin: miter"/>
     <use xlink:href="#m29efb39bfa" x="89.853005" y="252.908818" style="fill: #9d02d7; stroke: #9d02d7; stroke-linejoin: miter"/>
     <use xlink:href="#m29efb39bfa" x="95.01171" y="256.236458" style="fill: #9d02d7; stroke: #9d02d7; stroke-linejoin: miter"/>
     <use xlink:href="#m29efb39bfa" x="100.170416" y="254.550012" style="fill: #9d02d7; stroke: #9d02d7; stroke-linejoin: miter"/>
     <use xlink:href="#m29efb39bfa" x="105.329122" y="253.019886" style="fill: #9d02d7; stroke: #9d02d7; stroke-linejoin: miter"/>
     <use xlink:href="#m29efb39bfa" x="110.487827" y="253.288506" style="fill: #9d02d7; stroke: #9d02d7; stroke-linejoin: miter"/>
     <use xlink:href="#m29efb39bfa" x="115.646533" y="256.19378" style="fill: #9d02d7; stroke: #9d02d7; stroke-linejoin: miter"/>
     <use xlink:href="#m29efb39bfa" x="120.805239" y="254.878398" style="fill: #9d02d7; stroke: #9d02d7; stroke-linejoin: miter"/>
     <use xlink:href="#m29efb39bfa" x="125.963945" y="256.954162" style="fill: #9d02d7; stroke: #9d02d7; stroke-linejoin: miter"/>
     <use xlink:href="#m29efb39bfa" x="131.12265" y="278.41093" style="fill: #9d02d7; stroke: #9d02d7; stroke-linejoin: miter"/>
     <use xlink:href="#m29efb39bfa" x="136.281356" y="255.108373" style="fill: #9d02d7; stroke: #9d02d7; stroke-linejoin: miter"/>
     <use xlink:href="#m29efb39bfa" x="141.440062" y="255.377828" style="fill: #9d02d7; stroke: #9d02d7; stroke-linejoin: miter"/>
     <use xlink:href="#m29efb39bfa" x="146.598767" y="271.940998" style="fill: #9d02d7; stroke: #9d02d7; stroke-linejoin: miter"/>
     <use xlink:href="#m29efb39bfa" x="151.757473" y="259.300735" style="fill: #9d02d7; stroke: #9d02d7; stroke-linejoin: miter"/>
     <use xlink:href="#m29efb39bfa" x="156.916179" y="258.11811" style="fill: #9d02d7; stroke: #9d02d7; stroke-linejoin: miter"/>
     <use xlink:href="#m29efb39bfa" x="162.074884" y="251.463236" style="fill: #9d02d7; stroke: #9d02d7; stroke-linejoin: miter"/>
     <use xlink:href="#m29efb39bfa" x="167.23359" y="254.068941" style="fill: #9d02d7; stroke: #9d02d7; stroke-linejoin: miter"/>
     <use xlink:href="#m29efb39bfa" x="172.392296" y="253.906336" style="fill: #9d02d7; stroke: #9d02d7; stroke-linejoin: miter"/>
     <use xlink:href="#m29efb39bfa" x="177.551002" y="254.673697" style="fill: #9d02d7; stroke: #9d02d7; stroke-linejoin: miter"/>
     <use xlink:href="#m29efb39bfa" x="182.709707" y="251.029648" style="fill: #9d02d7; stroke: #9d02d7; stroke-linejoin: miter"/>
     <use xlink:href="#m29efb39bfa" x="187.868413" y="230.801177" style="fill: #9d02d7; stroke: #9d02d7; stroke-linejoin: miter"/>
     <use xlink:href="#m29efb39bfa" x="193.027119" y="78.851094" style="fill: #9d02d7; stroke: #9d02d7; stroke-linejoin: miter"/>
     <use xlink:href="#m29efb39bfa" x="198.185824" y="236.879387" style="fill: #9d02d7; stroke: #9d02d7; stroke-linejoin: miter"/>
     <use xlink:href="#m29efb39bfa" x="203.34453" y="242.063887" style="fill: #9d02d7; stroke: #9d02d7; stroke-linejoin: miter"/>
     <use xlink:href="#m29efb39bfa" x="208.503236" y="250.823015" style="fill: #9d02d7; stroke: #9d02d7; stroke-linejoin: miter"/>
     <use xlink:href="#m29efb39bfa" x="213.661941" y="254.263794" style="fill: #9d02d7; stroke: #9d02d7; stroke-linejoin: miter"/>
     <use xlink:href="#m29efb39bfa" x="218.820647" y="90.274793" style="fill: #9d02d7; stroke: #9d02d7; stroke-linejoin: miter"/>
     <use xlink:href="#m29efb39bfa" x="223.979353" y="107.760787" style="fill: #9d02d7; stroke: #9d02d7; stroke-linejoin: miter"/>
     <use xlink:href="#m29efb39bfa" x="229.138059" y="118.10909" style="fill: #9d02d7; stroke: #9d02d7; stroke-linejoin: miter"/>
     <use xlink:href="#m29efb39bfa" x="234.296764" y="81.124909" style="fill: #9d02d7; stroke: #9d02d7; stroke-linejoin: miter"/>
     <use xlink:href="#m29efb39bfa" x="239.45547" y="79.473903" style="fill: #9d02d7; stroke: #9d02d7; stroke-linejoin: miter"/>
     <use xlink:href="#m29efb39bfa" x="244.614176" y="88.039944" style="fill: #9d02d7; stroke: #9d02d7; stroke-linejoin: miter"/>
     <use xlink:href="#m29efb39bfa" x="249.772881" y="48.265222" style="fill: #9d02d7; stroke: #9d02d7; stroke-linejoin: miter"/>
     <use xlink:href="#m29efb39bfa" x="254.931587" y="51.631411" style="fill: #9d02d7; stroke: #9d02d7; stroke-linejoin: miter"/>
     <use xlink:href="#m29efb39bfa" x="260.090293" y="51.847371" style="fill: #9d02d7; stroke: #9d02d7; stroke-linejoin: miter"/>
     <use xlink:href="#m29efb39bfa" x="265.248998" y="65.535193" style="fill: #9d02d7; stroke: #9d02d7; stroke-linejoin: miter"/>
     <use xlink:href="#m29efb39bfa" x="270.407704" y="50.405078" style="fill: #9d02d7; stroke: #9d02d7; stroke-linejoin: miter"/>
     <use xlink:href="#m29efb39bfa" x="275.56641" y="50.405078" style="fill: #9d02d7; stroke: #9d02d7; stroke-linejoin: miter"/>
     <use xlink:href="#m29efb39bfa" x="280.725116" y="49.978308" style="fill: #9d02d7; stroke: #9d02d7; stroke-linejoin: miter"/>
     <use xlink:href="#m29efb39bfa" x="285.883821" y="61.776757" style="fill: #9d02d7; stroke: #9d02d7; stroke-linejoin: miter"/>
     <use xlink:href="#m29efb39bfa" x="291.042527" y="61.776757" style="fill: #9d02d7; stroke: #9d02d7; stroke-linejoin: miter"/>
     <use xlink:href="#m29efb39bfa" x="296.201233" y="61.776757" style="fill: #9d02d7; stroke: #9d02d7; stroke-linejoin: miter"/>
     <use xlink:href="#m29efb39bfa" x="301.359938" y="46.628067" style="fill: #9d02d7; stroke: #9d02d7; stroke-linejoin: miter"/>
     <use xlink:href="#m29efb39bfa" x="306.518644" y="46.596537" style="fill: #9d02d7; stroke: #9d02d7; stroke-linejoin: miter"/>
     <use xlink:href="#m29efb39bfa" x="311.67735" y="47.133467" style="fill: #9d02d7; stroke: #9d02d7; stroke-linejoin: miter"/>
     <use xlink:href="#m29efb39bfa" x="316.836055" y="47.133467" style="fill: #9d02d7; stroke: #9d02d7; stroke-linejoin: miter"/>
     <use xlink:href="#m29efb39bfa" x="321.994761" y="47.133467" style="fill: #9d02d7; stroke: #9d02d7; stroke-linejoin: miter"/>
     <use xlink:href="#m29efb39bfa" x="327.153467" y="43.507913" style="fill: #9d02d7; stroke: #9d02d7; stroke-linejoin: miter"/>
     <use xlink:href="#m29efb39bfa" x="332.312173" y="47.133467" style="fill: #9d02d7; stroke: #9d02d7; stroke-linejoin: miter"/>
     <use xlink:href="#m29efb39bfa" x="337.470878" y="43.507913" style="fill: #9d02d7; stroke: #9d02d7; stroke-linejoin: miter"/>
     <use xlink:href="#m29efb39bfa" x="342.629584" y="43.507913" style="fill: #9d02d7; stroke: #9d02d7; stroke-linejoin: miter"/>
     <use xlink:href="#m29efb39bfa" x="347.78829" y="47.133467" style="fill: #9d02d7; stroke: #9d02d7; stroke-linejoin: miter"/>
     <use xlink:href="#m29efb39bfa" x="352.946995" y="43.507913" style="fill: #9d02d7; stroke: #9d02d7; stroke-linejoin: miter"/>
     <use xlink:href="#m29efb39bfa" x="358.105701" y="43.507913" style="fill: #9d02d7; stroke: #9d02d7; stroke-linejoin: miter"/>
     <use xlink:href="#m29efb39bfa" x="363.264407" y="43.507913" style="fill: #9d02d7; stroke: #9d02d7; stroke-linejoin: miter"/>
     <use xlink:href="#m29efb39bfa" x="368.423112" y="47.133467" style="fill: #9d02d7; stroke: #9d02d7; stroke-linejoin: miter"/>
     <use xlink:href="#m29efb39bfa" x="373.581818" y="47.133467" style="fill: #9d02d7; stroke: #9d02d7; stroke-linejoin: miter"/>
    </g>
   </g>
   <g id="line2d_30">
    <path d="M 69.218182 253.645795 
L 74.376888 254.870797 
L 79.535593 166.33291 
L 84.694299 255.359006 
L 89.853005 252.908818 
L 95.01171 258.507506 
L 100.170416 252.908818 
L 105.329122 252.969913 
L 110.487827 254.329299 
L 115.646533 256.023636 
L 120.805239 255.472192 
L 125.963945 258.107837 
L 131.12265 259.196504 
L 136.281356 243.512996 
L 141.440062 254.710719 
L 146.598767 252.778814 
L 151.757473 220.971882 
L 156.916179 256.893793 
L 162.074884 256.443771 
L 167.23359 261.234808 
L 172.392296 263.854108 
L 177.551002 266.711798 
L 182.709707 252.767922 
L 187.868413 241.824001 
L 193.027119 249.858769 
L 198.185824 253.663657 
L 203.34453 235.896646 
L 208.503236 253.343876 
L 213.661941 248.770978 
L 218.820647 83.388977 
L 223.979353 253.428155 
L 229.138059 252.528474 
L 234.296764 182.000871 
L 239.45547 52.816555 
L 244.614176 89.055111 
L 249.772881 49.424364 
L 254.931587 63.932665 
L 260.090293 51.463603 
L 265.248998 51.463603 
L 270.407704 50.811384 
L 275.56641 51.736787 
L 280.725116 51.736787 
L 285.883821 51.736787 
L 291.042527 51.942894 
L 296.201233 53.482547 
L 301.359938 51.538347 
L 306.518644 54.650988 
L 311.67735 51.538347 
L 316.836055 54.650988 
L 321.994761 54.650988 
L 327.153467 53.596409 
L 332.312173 51.538347 
L 337.470878 51.538347 
L 342.629584 51.538347 
L 347.78829 53.596409 
L 352.946995 51.538347 
L 358.105701 51.822123 
L 363.264407 48.62053 
L 368.423112 48.62053 
L 373.581818 50.092234 
" clip-path="url(#pf35fa0ab7b)" style="fill: none; stroke: #0000ff; stroke-width: 1.5; stroke-linecap: square"/>
    <defs>
     <path id="mbf3911d460" d="M 0 2 
C 0.530406 2 1.03916 1.789267 1.414214 1.414214 
C 1.789267 1.03916 2 0.530406 2 0 
C 2 -0.530406 1.789267 -1.03916 1.414214 -1.414214 
C 1.03916 -1.789267 0.530406 -2 0 -2 
C -0.530406 -2 -1.03916 -1.789267 -1.414214 -1.414214 
C -1.789267 -1.03916 -2 -0.530406 -2 0 
C -2 0.530406 -1.789267 1.03916 -1.414214 1.414214 
C -1.03916 1.789267 -0.530406 2 0 2 
z
" style="stroke: #0000ff"/>
    </defs>
    <g clip-path="url(#pf35fa0ab7b)">
     <use xlink:href="#mbf3911d460" x="69.218182" y="253.645795" style="fill: #0000ff; stroke: #0000ff"/>
     <use xlink:href="#mbf3911d460" x="74.376888" y="254.870797" style="fill: #0000ff; stroke: #0000ff"/>
     <use xlink:href="#mbf3911d460" x="79.535593" y="166.33291" style="fill: #0000ff; stroke: #0000ff"/>
     <use xlink:href="#mbf3911d460" x="84.694299" y="255.359006" style="fill: #0000ff; stroke: #0000ff"/>
     <use xlink:href="#mbf3911d460" x="89.853005" y="252.908818" style="fill: #0000ff; stroke: #0000ff"/>
     <use xlink:href="#mbf3911d460" x="95.01171" y="258.507506" style="fill: #0000ff; stroke: #0000ff"/>
     <use xlink:href="#mbf3911d460" x="100.170416" y="252.908818" style="fill: #0000ff; stroke: #0000ff"/>
     <use xlink:href="#mbf3911d460" x="105.329122" y="252.969913" style="fill: #0000ff; stroke: #0000ff"/>
     <use xlink:href="#mbf3911d460" x="110.487827" y="254.329299" style="fill: #0000ff; stroke: #0000ff"/>
     <use xlink:href="#mbf3911d460" x="115.646533" y="256.023636" style="fill: #0000ff; stroke: #0000ff"/>
     <use xlink:href="#mbf3911d460" x="120.805239" y="255.472192" style="fill: #0000ff; stroke: #0000ff"/>
     <use xlink:href="#mbf3911d460" x="125.963945" y="258.107837" style="fill: #0000ff; stroke: #0000ff"/>
     <use xlink:href="#mbf3911d460" x="131.12265" y="259.196504" style="fill: #0000ff; stroke: #0000ff"/>
     <use xlink:href="#mbf3911d460" x="136.281356" y="243.512996" style="fill: #0000ff; stroke: #0000ff"/>
     <use xlink:href="#mbf3911d460" x="141.440062" y="254.710719" style="fill: #0000ff; stroke: #0000ff"/>
     <use xlink:href="#mbf3911d460" x="146.598767" y="252.778814" style="fill: #0000ff; stroke: #0000ff"/>
     <use xlink:href="#mbf3911d460" x="151.757473" y="220.971882" style="fill: #0000ff; stroke: #0000ff"/>
     <use xlink:href="#mbf3911d460" x="156.916179" y="256.893793" style="fill: #0000ff; stroke: #0000ff"/>
     <use xlink:href="#mbf3911d460" x="162.074884" y="256.443771" style="fill: #0000ff; stroke: #0000ff"/>
     <use xlink:href="#mbf3911d460" x="167.23359" y="261.234808" style="fill: #0000ff; stroke: #0000ff"/>
     <use xlink:href="#mbf3911d460" x="172.392296" y="263.854108" style="fill: #0000ff; stroke: #0000ff"/>
     <use xlink:href="#mbf3911d460" x="177.551002" y="266.711798" style="fill: #0000ff; stroke: #0000ff"/>
     <use xlink:href="#mbf3911d460" x="182.709707" y="252.767922" style="fill: #0000ff; stroke: #0000ff"/>
     <use xlink:href="#mbf3911d460" x="187.868413" y="241.824001" style="fill: #0000ff; stroke: #0000ff"/>
     <use xlink:href="#mbf3911d460" x="193.027119" y="249.858769" style="fill: #0000ff; stroke: #0000ff"/>
     <use xlink:href="#mbf3911d460" x="198.185824" y="253.663657" style="fill: #0000ff; stroke: #0000ff"/>
     <use xlink:href="#mbf3911d460" x="203.34453" y="235.896646" style="fill: #0000ff; stroke: #0000ff"/>
     <use xlink:href="#mbf3911d460" x="208.503236" y="253.343876" style="fill: #0000ff; stroke: #0000ff"/>
     <use xlink:href="#mbf3911d460" x="213.661941" y="248.770978" style="fill: #0000ff; stroke: #0000ff"/>
     <use xlink:href="#mbf3911d460" x="218.820647" y="83.388977" style="fill: #0000ff; stroke: #0000ff"/>
     <use xlink:href="#mbf3911d460" x="223.979353" y="253.428155" style="fill: #0000ff; stroke: #0000ff"/>
     <use xlink:href="#mbf3911d460" x="229.138059" y="252.528474" style="fill: #0000ff; stroke: #0000ff"/>
     <use xlink:href="#mbf3911d460" x="234.296764" y="182.000871" style="fill: #0000ff; stroke: #0000ff"/>
     <use xlink:href="#mbf3911d460" x="239.45547" y="52.816555" style="fill: #0000ff; stroke: #0000ff"/>
     <use xlink:href="#mbf3911d460" x="244.614176" y="89.055111" style="fill: #0000ff; stroke: #0000ff"/>
     <use xlink:href="#mbf3911d460" x="249.772881" y="49.424364" style="fill: #0000ff; stroke: #0000ff"/>
     <use xlink:href="#mbf3911d460" x="254.931587" y="63.932665" style="fill: #0000ff; stroke: #0000ff"/>
     <use xlink:href="#mbf3911d460" x="260.090293" y="51.463603" style="fill: #0000ff; stroke: #0000ff"/>
     <use xlink:href="#mbf3911d460" x="265.248998" y="51.463603" style="fill: #0000ff; stroke: #0000ff"/>
     <use xlink:href="#mbf3911d460" x="270.407704" y="50.811384" style="fill: #0000ff; stroke: #0000ff"/>
     <use xlink:href="#mbf3911d460" x="275.56641" y="51.736787" style="fill: #0000ff; stroke: #0000ff"/>
     <use xlink:href="#mbf3911d460" x="280.725116" y="51.736787" style="fill: #0000ff; stroke: #0000ff"/>
     <use xlink:href="#mbf3911d460" x="285.883821" y="51.736787" style="fill: #0000ff; stroke: #0000ff"/>
     <use xlink:href="#mbf3911d460" x="291.042527" y="51.942894" style="fill: #0000ff; stroke: #0000ff"/>
     <use xlink:href="#mbf3911d460" x="296.201233" y="53.482547" style="fill: #0000ff; stroke: #0000ff"/>
     <use xlink:href="#mbf3911d460" x="301.359938" y="51.538347" style="fill: #0000ff; stroke: #0000ff"/>
     <use xlink:href="#mbf3911d460" x="306.518644" y="54.650988" style="fill: #0000ff; stroke: #0000ff"/>
     <use xlink:href="#mbf3911d460" x="311.67735" y="51.538347" style="fill: #0000ff; stroke: #0000ff"/>
     <use xlink:href="#mbf3911d460" x="316.836055" y="54.650988" style="fill: #0000ff; stroke: #0000ff"/>
     <use xlink:href="#mbf3911d460" x="321.994761" y="54.650988" style="fill: #0000ff; stroke: #0000ff"/>
     <use xlink:href="#mbf3911d460" x="327.153467" y="53.596409" style="fill: #0000ff; stroke: #0000ff"/>
     <use xlink:href="#mbf3911d460" x="332.312173" y="51.538347" style="fill: #0000ff; stroke: #0000ff"/>
     <use xlink:href="#mbf3911d460" x="337.470878" y="51.538347" style="fill: #0000ff; stroke: #0000ff"/>
     <use xlink:href="#mbf3911d460" x="342.629584" y="51.538347" style="fill: #0000ff; stroke: #0000ff"/>
     <use xlink:href="#mbf3911d460" x="347.78829" y="53.596409" style="fill: #0000ff; stroke: #0000ff"/>
     <use xlink:href="#mbf3911d460" x="352.946995" y="51.538347" style="fill: #0000ff; stroke: #0000ff"/>
     <use xlink:href="#mbf3911d460" x="358.105701" y="51.822123" style="fill: #0000ff; stroke: #0000ff"/>
     <use xlink:href="#mbf3911d460" x="363.264407" y="48.62053" style="fill: #0000ff; stroke: #0000ff"/>
     <use xlink:href="#mbf3911d460" x="368.423112" y="48.62053" style="fill: #0000ff; stroke: #0000ff"/>
     <use xlink:href="#mbf3911d460" x="373.581818" y="50.092234" style="fill: #0000ff; stroke: #0000ff"/>
    </g>
   </g>
   <g id="line2d_31">
    <path d="M 69.218182 257.276124 
L 74.376888 253.200486 
L 79.535593 252.908818 
L 84.694299 253.392444 
L 89.853005 263.191304 
L 95.01171 252.908818 
L 100.170416 262.350132 
L 105.329122 254.435769 
L 110.487827 254.321867 
L 115.646533 256.000069 
L 120.805239 256.452295 
L 125.963945 254.330827 
L 131.12265 258.222401 
L 136.281356 256.020763 
L 141.440062 256.345848 
L 146.598767 260.255777 
L 151.757473 258.247557 
L 156.916179 274.293934 
L 162.074884 253.318564 
L 167.23359 183.517639 
L 172.392296 254.399847 
L 177.551002 253.425934 
L 182.709707 256.668994 
L 187.868413 256.576034 
L 193.027119 254.349866 
L 198.185824 237.92806 
L 203.34453 260.48006 
L 208.503236 223.446574 
L 213.661941 227.858538 
L 218.820647 257.869952 
L 223.979353 105.203484 
L 229.138059 256.660291 
L 234.296764 260.500055 
L 239.45547 98.113579 
L 244.614176 98.113579 
L 249.772881 198.397666 
L 254.931587 102.46282 
L 260.090293 108.359329 
L 265.248998 62.393885 
L 270.407704 59.155477 
L 275.56641 59.155477 
L 280.725116 99.680757 
L 285.883821 73.334521 
L 291.042527 54.709773 
L 296.201233 66.010639 
L 301.359938 66.010639 
L 306.518644 66.010639 
L 311.67735 66.010639 
L 316.836055 67.266921 
L 321.994761 52.085604 
L 327.153467 52.085604 
L 332.312173 52.085604 
L 337.470878 54.570434 
L 342.629584 48.609184 
L 347.78829 50.745219 
L 352.946995 54.617746 
L 358.105701 153.25701 
L 363.264407 141.645762 
L 368.423112 140.038085 
L 373.581818 44.498641 
" clip-path="url(#pf35fa0ab7b)" style="fill: none; stroke: #ff7763; stroke-width: 1.5; stroke-linecap: square"/>
    <defs>
     <path id="m79610399d8" d="M -2 2 
L 2 -2 
M -2 -2 
L 2 2 
" style="stroke: #ff7763"/>
    </defs>
    <g clip-path="url(#pf35fa0ab7b)">
     <use xlink:href="#m79610399d8" x="69.218182" y="257.276124" style="fill: #ff7763; stroke: #ff7763"/>
     <use xlink:href="#m79610399d8" x="74.376888" y="253.200486" style="fill: #ff7763; stroke: #ff7763"/>
     <use xlink:href="#m79610399d8" x="79.535593" y="252.908818" style="fill: #ff7763; stroke: #ff7763"/>
     <use xlink:href="#m79610399d8" x="84.694299" y="253.392444" style="fill: #ff7763; stroke: #ff7763"/>
     <use xlink:href="#m79610399d8" x="89.853005" y="263.191304" style="fill: #ff7763; stroke: #ff7763"/>
     <use xlink:href="#m79610399d8" x="95.01171" y="252.908818" style="fill: #ff7763; stroke: #ff7763"/>
     <use xlink:href="#m79610399d8" x="100.170416" y="262.350132" style="fill: #ff7763; stroke: #ff7763"/>
     <use xlink:href="#m79610399d8" x="105.329122" y="254.435769" style="fill: #ff7763; stroke: #ff7763"/>
     <use xlink:href="#m79610399d8" x="110.487827" y="254.321867" style="fill: #ff7763; stroke: #ff7763"/>
     <use xlink:href="#m79610399d8" x="115.646533" y="256.000069" style="fill: #ff7763; stroke: #ff7763"/>
     <use xlink:href="#m79610399d8" x="120.805239" y="256.452295" style="fill: #ff7763; stroke: #ff7763"/>
     <use xlink:href="#m79610399d8" x="125.963945" y="254.330827" style="fill: #ff7763; stroke: #ff7763"/>
     <use xlink:href="#m79610399d8" x="131.12265" y="258.222401" style="fill: #ff7763; stroke: #ff7763"/>
     <use xlink:href="#m79610399d8" x="136.281356" y="256.020763" style="fill: #ff7763; stroke: #ff7763"/>
     <use xlink:href="#m79610399d8" x="141.440062" y="256.345848" style="fill: #ff7763; stroke: #ff7763"/>
     <use xlink:href="#m79610399d8" x="146.598767" y="260.255777" style="fill: #ff7763; stroke: #ff7763"/>
     <use xlink:href="#m79610399d8" x="151.757473" y="258.247557" style="fill: #ff7763; stroke: #ff7763"/>
     <use xlink:href="#m79610399d8" x="156.916179" y="274.293934" style="fill: #ff7763; stroke: #ff7763"/>
     <use xlink:href="#m79610399d8" x="162.074884" y="253.318564" style="fill: #ff7763; stroke: #ff7763"/>
     <use xlink:href="#m79610399d8" x="167.23359" y="183.517639" style="fill: #ff7763; stroke: #ff7763"/>
     <use xlink:href="#m79610399d8" x="172.392296" y="254.399847" style="fill: #ff7763; stroke: #ff7763"/>
     <use xlink:href="#m79610399d8" x="177.551002" y="253.425934" style="fill: #ff7763; stroke: #ff7763"/>
     <use xlink:href="#m79610399d8" x="182.709707" y="256.668994" style="fill: #ff7763; stroke: #ff7763"/>
     <use xlink:href="#m79610399d8" x="187.868413" y="256.576034" style="fill: #ff7763; stroke: #ff7763"/>
     <use xlink:href="#m79610399d8" x="193.027119" y="254.349866" style="fill: #ff7763; stroke: #ff7763"/>
     <use xlink:href="#m79610399d8" x="198.185824" y="237.92806" style="fill: #ff7763; stroke: #ff7763"/>
     <use xlink:href="#m79610399d8" x="203.34453" y="260.48006" style="fill: #ff7763; stroke: #ff7763"/>
     <use xlink:href="#m79610399d8" x="208.503236" y="223.446574" style="fill: #ff7763; stroke: #ff7763"/>
     <use xlink:href="#m79610399d8" x="213.661941" y="227.858538" style="fill: #ff7763; stroke: #ff7763"/>
     <use xlink:href="#m79610399d8" x="218.820647" y="257.869952" style="fill: #ff7763; stroke: #ff7763"/>
     <use xlink:href="#m79610399d8" x="223.979353" y="105.203484" style="fill: #ff7763; stroke: #ff7763"/>
     <use xlink:href="#m79610399d8" x="229.138059" y="256.660291" style="fill: #ff7763; stroke: #ff7763"/>
     <use xlink:href="#m79610399d8" x="234.296764" y="260.500055" style="fill: #ff7763; stroke: #ff7763"/>
     <use xlink:href="#m79610399d8" x="239.45547" y="98.113579" style="fill: #ff7763; stroke: #ff7763"/>
     <use xlink:href="#m79610399d8" x="244.614176" y="98.113579" style="fill: #ff7763; stroke: #ff7763"/>
     <use xlink:href="#m79610399d8" x="249.772881" y="198.397666" style="fill: #ff7763; stroke: #ff7763"/>
     <use xlink:href="#m79610399d8" x="254.931587" y="102.46282" style="fill: #ff7763; stroke: #ff7763"/>
     <use xlink:href="#m79610399d8" x="260.090293" y="108.359329" style="fill: #ff7763; stroke: #ff7763"/>
     <use xlink:href="#m79610399d8" x="265.248998" y="62.393885" style="fill: #ff7763; stroke: #ff7763"/>
     <use xlink:href="#m79610399d8" x="270.407704" y="59.155477" style="fill: #ff7763; stroke: #ff7763"/>
     <use xlink:href="#m79610399d8" x="275.56641" y="59.155477" style="fill: #ff7763; stroke: #ff7763"/>
     <use xlink:href="#m79610399d8" x="280.725116" y="99.680757" style="fill: #ff7763; stroke: #ff7763"/>
     <use xlink:href="#m79610399d8" x="285.883821" y="73.334521" style="fill: #ff7763; stroke: #ff7763"/>
     <use xlink:href="#m79610399d8" x="291.042527" y="54.709773" style="fill: #ff7763; stroke: #ff7763"/>
     <use xlink:href="#m79610399d8" x="296.201233" y="66.010639" style="fill: #ff7763; stroke: #ff7763"/>
     <use xlink:href="#m79610399d8" x="301.359938" y="66.010639" style="fill: #ff7763; stroke: #ff7763"/>
     <use xlink:href="#m79610399d8" x="306.518644" y="66.010639" style="fill: #ff7763; stroke: #ff7763"/>
     <use xlink:href="#m79610399d8" x="311.67735" y="66.010639" style="fill: #ff7763; stroke: #ff7763"/>
     <use xlink:href="#m79610399d8" x="316.836055" y="67.266921" style="fill: #ff7763; stroke: #ff7763"/>
     <use xlink:href="#m79610399d8" x="321.994761" y="52.085604" style="fill: #ff7763; stroke: #ff7763"/>
     <use xlink:href="#m79610399d8" x="327.153467" y="52.085604" style="fill: #ff7763; stroke: #ff7763"/>
     <use xlink:href="#m79610399d8" x="332.312173" y="52.085604" style="fill: #ff7763; stroke: #ff7763"/>
     <use xlink:href="#m79610399d8" x="337.470878" y="54.570434" style="fill: #ff7763; stroke: #ff7763"/>
     <use xlink:href="#m79610399d8" x="342.629584" y="48.609184" style="fill: #ff7763; stroke: #ff7763"/>
     <use xlink:href="#m79610399d8" x="347.78829" y="50.745219" style="fill: #ff7763; stroke: #ff7763"/>
     <use xlink:href="#m79610399d8" x="352.946995" y="54.617746" style="fill: #ff7763; stroke: #ff7763"/>
     <use xlink:href="#m79610399d8" x="358.105701" y="153.25701" style="fill: #ff7763; stroke: #ff7763"/>
     <use xlink:href="#m79610399d8" x="363.264407" y="141.645762" style="fill: #ff7763; stroke: #ff7763"/>
     <use xlink:href="#m79610399d8" x="368.423112" y="140.038085" style="fill: #ff7763; stroke: #ff7763"/>
     <use xlink:href="#m79610399d8" x="373.581818" y="44.498641" style="fill: #ff7763; stroke: #ff7763"/>
    </g>
   </g>
   <g id="line2d_32">
    <path d="M 69.218182 254.754864 
L 74.376888 253.048645 
L 79.535593 253.38098 
L 84.694299 256.312195 
L 89.853005 252.923386 
L 95.01171 256.789651 
L 100.170416 252.902068 
L 105.329122 213.251024 
L 110.487827 253.901924 
L 115.646533 255.789305 
L 120.805239 253.682942 
L 125.963945 255.248841 
L 131.12265 252.517562 
L 136.281356 261.871811 
L 141.440062 256.569162 
L 146.598767 256.220008 
L 151.757473 257.772074 
L 156.916179 256.402728 
L 162.074884 256.04832 
L 167.23359 232.72391 
L 172.392296 253.244839 
L 177.551002 254.466963 
L 182.709707 254.752369 
L 187.868413 256.457806 
L 193.027119 254.965812 
L 198.185824 257.341832 
L 203.34453 228.152527 
L 208.503236 258.558227 
L 213.661941 150.348453 
L 218.820647 256.997573 
L 223.979353 196.055934 
L 229.138059 97.891713 
L 234.296764 89.044177 
L 239.45547 248.829885 
L 244.614176 145.651186 
L 249.772881 133.916347 
L 254.931587 249.80063 
L 260.090293 246.989379 
L 265.248998 246.998126 
L 270.407704 79.367316 
L 275.56641 107.330123 
L 280.725116 86.804521 
L 285.883821 52.429774 
L 291.042527 75.984023 
L 296.201233 51.201862 
L 301.359938 51.201862 
L 306.518644 51.201862 
L 311.67735 51.201862 
L 316.836055 52.538153 
L 321.994761 51.201862 
L 327.153467 51.201862 
L 332.312173 51.201862 
L 337.470878 51.201862 
L 342.629584 48.748732 
L 347.78829 51.201862 
L 352.946995 62.06911 
L 358.105701 49.474801 
L 363.264407 49.474801 
L 368.423112 49.474801 
L 373.581818 49.474801 
" clip-path="url(#pf35fa0ab7b)" style="fill: none; stroke: #ffac1e; stroke-width: 1.5; stroke-linecap: square"/>
    <defs>
     <path id="m81dc1a1143" d="M 0 -2 
L -0.449028 -0.618034 
L -1.902113 -0.618034 
L -0.726543 0.236068 
L -1.175571 1.618034 
L -0 0.763932 
L 1.175571 1.618034 
L 0.726543 0.236068 
L 1.902113 -0.618034 
L 0.449028 -0.618034 
z
" style="stroke: #ffac1e; stroke-linejoin: bevel"/>
    </defs>
    <g clip-path="url(#pf35fa0ab7b)">
     <use xlink:href="#m81dc1a1143" x="69.218182" y="254.754864" style="fill: #ffac1e; stroke: #ffac1e; stroke-linejoin: bevel"/>
     <use xlink:href="#m81dc1a1143" x="74.376888" y="253.048645" style="fill: #ffac1e; stroke: #ffac1e; stroke-linejoin: bevel"/>
     <use xlink:href="#m81dc1a1143" x="79.535593" y="253.38098" style="fill: #ffac1e; stroke: #ffac1e; stroke-linejoin: bevel"/>
     <use xlink:href="#m81dc1a1143" x="84.694299" y="256.312195" style="fill: #ffac1e; stroke: #ffac1e; stroke-linejoin: bevel"/>
     <use xlink:href="#m81dc1a1143" x="89.853005" y="252.923386" style="fill: #ffac1e; stroke: #ffac1e; stroke-linejoin: bevel"/>
     <use xlink:href="#m81dc1a1143" x="95.01171" y="256.789651" style="fill: #ffac1e; stroke: #ffac1e; stroke-linejoin: bevel"/>
     <use xlink:href="#m81dc1a1143" x="100.170416" y="252.902068" style="fill: #ffac1e; stroke: #ffac1e; stroke-linejoin: bevel"/>
     <use xlink:href="#m81dc1a1143" x="105.329122" y="213.251024" style="fill: #ffac1e; stroke: #ffac1e; stroke-linejoin: bevel"/>
     <use xlink:href="#m81dc1a1143" x="110.487827" y="253.901924" style="fill: #ffac1e; stroke: #ffac1e; stroke-linejoin: bevel"/>
     <use xlink:href="#m81dc1a1143" x="115.646533" y="255.789305" style="fill: #ffac1e; stroke: #ffac1e; stroke-linejoin: bevel"/>
     <use xlink:href="#m81dc1a1143" x="120.805239" y="253.682942" style="fill: #ffac1e; stroke: #ffac1e; stroke-linejoin: bevel"/>
     <use xlink:href="#m81dc1a1143" x="125.963945" y="255.248841" style="fill: #ffac1e; stroke: #ffac1e; stroke-linejoin: bevel"/>
     <use xlink:href="#m81dc1a1143" x="131.12265" y="252.517562" style="fill: #ffac1e; stroke: #ffac1e; stroke-linejoin: bevel"/>
     <use xlink:href="#m81dc1a1143" x="136.281356" y="261.871811" style="fill: #ffac1e; stroke: #ffac1e; stroke-linejoin: bevel"/>
     <use xlink:href="#m81dc1a1143" x="141.440062" y="256.569162" style="fill: #ffac1e; stroke: #ffac1e; stroke-linejoin: bevel"/>
     <use xlink:href="#m81dc1a1143" x="146.598767" y="256.220008" style="fill: #ffac1e; stroke: #ffac1e; stroke-linejoin: bevel"/>
     <use xlink:href="#m81dc1a1143" x="151.757473" y="257.772074" style="fill: #ffac1e; stroke: #ffac1e; stroke-linejoin: bevel"/>
     <use xlink:href="#m81dc1a1143" x="156.916179" y="256.402728" style="fill: #ffac1e; stroke: #ffac1e; stroke-linejoin: bevel"/>
     <use xlink:href="#m81dc1a1143" x="162.074884" y="256.04832" style="fill: #ffac1e; stroke: #ffac1e; stroke-linejoin: bevel"/>
     <use xlink:href="#m81dc1a1143" x="167.23359" y="232.72391" style="fill: #ffac1e; stroke: #ffac1e; stroke-linejoin: bevel"/>
     <use xlink:href="#m81dc1a1143" x="172.392296" y="253.244839" style="fill: #ffac1e; stroke: #ffac1e; stroke-linejoin: bevel"/>
     <use xlink:href="#m81dc1a1143" x="177.551002" y="254.466963" style="fill: #ffac1e; stroke: #ffac1e; stroke-linejoin: bevel"/>
     <use xlink:href="#m81dc1a1143" x="182.709707" y="254.752369" style="fill: #ffac1e; stroke: #ffac1e; stroke-linejoin: bevel"/>
     <use xlink:href="#m81dc1a1143" x="187.868413" y="256.457806" style="fill: #ffac1e; stroke: #ffac1e; stroke-linejoin: bevel"/>
     <use xlink:href="#m81dc1a1143" x="193.027119" y="254.965812" style="fill: #ffac1e; stroke: #ffac1e; stroke-linejoin: bevel"/>
     <use xlink:href="#m81dc1a1143" x="198.185824" y="257.341832" style="fill: #ffac1e; stroke: #ffac1e; stroke-linejoin: bevel"/>
     <use xlink:href="#m81dc1a1143" x="203.34453" y="228.152527" style="fill: #ffac1e; stroke: #ffac1e; stroke-linejoin: bevel"/>
     <use xlink:href="#m81dc1a1143" x="208.503236" y="258.558227" style="fill: #ffac1e; stroke: #ffac1e; stroke-linejoin: bevel"/>
     <use xlink:href="#m81dc1a1143" x="213.661941" y="150.348453" style="fill: #ffac1e; stroke: #ffac1e; stroke-linejoin: bevel"/>
     <use xlink:href="#m81dc1a1143" x="218.820647" y="256.997573" style="fill: #ffac1e; stroke: #ffac1e; stroke-linejoin: bevel"/>
     <use xlink:href="#m81dc1a1143" x="223.979353" y="196.055934" style="fill: #ffac1e; stroke: #ffac1e; stroke-linejoin: bevel"/>
     <use xlink:href="#m81dc1a1143" x="229.138059" y="97.891713" style="fill: #ffac1e; stroke: #ffac1e; stroke-linejoin: bevel"/>
     <use xlink:href="#m81dc1a1143" x="234.296764" y="89.044177" style="fill: #ffac1e; stroke: #ffac1e; stroke-linejoin: bevel"/>
     <use xlink:href="#m81dc1a1143" x="239.45547" y="248.829885" style="fill: #ffac1e; stroke: #ffac1e; stroke-linejoin: bevel"/>
     <use xlink:href="#m81dc1a1143" x="244.614176" y="145.651186" style="fill: #ffac1e; stroke: #ffac1e; stroke-linejoin: bevel"/>
     <use xlink:href="#m81dc1a1143" x="249.772881" y="133.916347" style="fill: #ffac1e; stroke: #ffac1e; stroke-linejoin: bevel"/>
     <use xlink:href="#m81dc1a1143" x="254.931587" y="249.80063" style="fill: #ffac1e; stroke: #ffac1e; stroke-linejoin: bevel"/>
     <use xlink:href="#m81dc1a1143" x="260.090293" y="246.989379" style="fill: #ffac1e; stroke: #ffac1e; stroke-linejoin: bevel"/>
     <use xlink:href="#m81dc1a1143" x="265.248998" y="246.998126" style="fill: #ffac1e; stroke: #ffac1e; stroke-linejoin: bevel"/>
     <use xlink:href="#m81dc1a1143" x="270.407704" y="79.367316" style="fill: #ffac1e; stroke: #ffac1e; stroke-linejoin: bevel"/>
     <use xlink:href="#m81dc1a1143" x="275.56641" y="107.330123" style="fill: #ffac1e; stroke: #ffac1e; stroke-linejoin: bevel"/>
     <use xlink:href="#m81dc1a1143" x="280.725116" y="86.804521" style="fill: #ffac1e; stroke: #ffac1e; stroke-linejoin: bevel"/>
     <use xlink:href="#m81dc1a1143" x="285.883821" y="52.429774" style="fill: #ffac1e; stroke: #ffac1e; stroke-linejoin: bevel"/>
     <use xlink:href="#m81dc1a1143" x="291.042527" y="75.984023" style="fill: #ffac1e; stroke: #ffac1e; stroke-linejoin: bevel"/>
     <use xlink:href="#m81dc1a1143" x="296.201233" y="51.201862" style="fill: #ffac1e; stroke: #ffac1e; stroke-linejoin: bevel"/>
     <use xlink:href="#m81dc1a1143" x="301.359938" y="51.201862" style="fill: #ffac1e; stroke: #ffac1e; stroke-linejoin: bevel"/>
     <use xlink:href="#m81dc1a1143" x="306.518644" y="51.201862" style="fill: #ffac1e; stroke: #ffac1e; stroke-linejoin: bevel"/>
     <use xlink:href="#m81dc1a1143" x="311.67735" y="51.201862" style="fill: #ffac1e; stroke: #ffac1e; stroke-linejoin: bevel"/>
     <use xlink:href="#m81dc1a1143" x="316.836055" y="52.538153" style="fill: #ffac1e; stroke: #ffac1e; stroke-linejoin: bevel"/>
     <use xlink:href="#m81dc1a1143" x="321.994761" y="51.201862" style="fill: #ffac1e; stroke: #ffac1e; stroke-linejoin: bevel"/>
     <use xlink:href="#m81dc1a1143" x="327.153467" y="51.201862" style="fill: #ffac1e; stroke: #ffac1e; stroke-linejoin: bevel"/>
     <use xlink:href="#m81dc1a1143" x="332.312173" y="51.201862" style="fill: #ffac1e; stroke: #ffac1e; stroke-linejoin: bevel"/>
     <use xlink:href="#m81dc1a1143" x="337.470878" y="51.201862" style="fill: #ffac1e; stroke: #ffac1e; stroke-linejoin: bevel"/>
     <use xlink:href="#m81dc1a1143" x="342.629584" y="48.748732" style="fill: #ffac1e; stroke: #ffac1e; stroke-linejoin: bevel"/>
     <use xlink:href="#m81dc1a1143" x="347.78829" y="51.201862" style="fill: #ffac1e; stroke: #ffac1e; stroke-linejoin: bevel"/>
     <use xlink:href="#m81dc1a1143" x="352.946995" y="62.06911" style="fill: #ffac1e; stroke: #ffac1e; stroke-linejoin: bevel"/>
     <use xlink:href="#m81dc1a1143" x="358.105701" y="49.474801" style="fill: #ffac1e; stroke: #ffac1e; stroke-linejoin: bevel"/>
     <use xlink:href="#m81dc1a1143" x="363.264407" y="49.474801" style="fill: #ffac1e; stroke: #ffac1e; stroke-linejoin: bevel"/>
     <use xlink:href="#m81dc1a1143" x="368.423112" y="49.474801" style="fill: #ffac1e; stroke: #ffac1e; stroke-linejoin: bevel"/>
     <use xlink:href="#m81dc1a1143" x="373.581818" y="49.474801" style="fill: #ffac1e; stroke: #ffac1e; stroke-linejoin: bevel"/>
    </g>
   </g>
   <g id="line2d_33">
    <path d="M 69.218182 252.908818 
L 74.376888 255.541142 
L 79.535593 263.667881 
L 84.694299 254.309169 
L 89.853005 252.988737 
L 95.01171 252.927645 
L 100.170416 255.099674 
L 105.329122 251.949403 
L 110.487827 255.912708 
L 115.646533 253.964548 
L 120.805239 265.751187 
L 125.963945 253.341454 
L 131.12265 276.969841 
L 136.281356 260.812906 
L 141.440062 261.862757 
L 146.598767 261.687306 
L 151.757473 255.461498 
L 156.916179 256.475767 
L 162.074884 256.766674 
L 167.23359 253.846048 
L 172.392296 254.39717 
L 177.551002 253.266481 
L 182.709707 252.464935 
L 187.868413 252.858181 
L 193.027119 253.649324 
L 198.185824 209.568186 
L 203.34453 253.509859 
L 208.503236 254.301829 
L 213.661941 254.11836 
L 218.820647 250.994248 
L 223.979353 254.201839 
L 229.138059 254.201839 
L 234.296764 252.784562 
L 239.45547 252.784538 
L 244.614176 135.201108 
L 249.772881 238.947094 
L 254.931587 123.417498 
L 260.090293 232.263289 
L 265.248998 255.722198 
L 270.407704 214.391413 
L 275.56641 146.635403 
L 280.725116 142.392483 
L 285.883821 80.150494 
L 291.042527 67.664098 
L 296.201233 67.653675 
L 301.359938 67.653675 
L 306.518644 64.538112 
L 311.67735 64.892173 
L 316.836055 64.892173 
L 321.994761 64.892173 
L 327.153467 64.892173 
L 332.312173 64.892173 
L 337.470878 65.106879 
L 342.629584 55.425434 
L 347.78829 63.154766 
L 352.946995 63.154435 
L 358.105701 50.804158 
L 363.264407 50.804158 
L 368.423112 51.076581 
L 373.581818 88.206617 
" clip-path="url(#pf35fa0ab7b)" style="fill: none; stroke: #009435; stroke-width: 1.5; stroke-linecap: square"/>
    <defs>
     <path id="m401f735227" d="M -2 2 
L 2 2 
L 2 -2 
L -2 -2 
z
" style="stroke: #009435; stroke-linejoin: miter"/>
    </defs>
    <g clip-path="url(#pf35fa0ab7b)">
     <use xlink:href="#m401f735227" x="69.218182" y="252.908818" style="fill: #009435; stroke: #009435; stroke-linejoin: miter"/>
     <use xlink:href="#m401f735227" x="74.376888" y="255.541142" style="fill: #009435; stroke: #009435; stroke-linejoin: miter"/>
     <use xlink:href="#m401f735227" x="79.535593" y="263.667881" style="fill: #009435; stroke: #009435; stroke-linejoin: miter"/>
     <use xlink:href="#m401f735227" x="84.694299" y="254.309169" style="fill: #009435; stroke: #009435; stroke-linejoin: miter"/>
     <use xlink:href="#m401f735227" x="89.853005" y="252.988737" style="fill: #009435; stroke: #009435; stroke-linejoin: miter"/>
     <use xlink:href="#m401f735227" x="95.01171" y="252.927645" style="fill: #009435; stroke: #009435; stroke-linejoin: miter"/>
     <use xlink:href="#m401f735227" x="100.170416" y="255.099674" style="fill: #009435; stroke: #009435; stroke-linejoin: miter"/>
     <use xlink:href="#m401f735227" x="105.329122" y="251.949403" style="fill: #009435; stroke: #009435; stroke-linejoin: miter"/>
     <use xlink:href="#m401f735227" x="110.487827" y="255.912708" style="fill: #009435; stroke: #009435; stroke-linejoin: miter"/>
     <use xlink:href="#m401f735227" x="115.646533" y="253.964548" style="fill: #009435; stroke: #009435; stroke-linejoin: miter"/>
     <use xlink:href="#m401f735227" x="120.805239" y="265.751187" style="fill: #009435; stroke: #009435; stroke-linejoin: miter"/>
     <use xlink:href="#m401f735227" x="125.963945" y="253.341454" style="fill: #009435; stroke: #009435; stroke-linejoin: miter"/>
     <use xlink:href="#m401f735227" x="131.12265" y="276.969841" style="fill: #009435; stroke: #009435; stroke-linejoin: miter"/>
     <use xlink:href="#m401f735227" x="136.281356" y="260.812906" style="fill: #009435; stroke: #009435; stroke-linejoin: miter"/>
     <use xlink:href="#m401f735227" x="141.440062" y="261.862757" style="fill: #009435; stroke: #009435; stroke-linejoin: miter"/>
     <use xlink:href="#m401f735227" x="146.598767" y="261.687306" style="fill: #009435; stroke: #009435; stroke-linejoin: miter"/>
     <use xlink:href="#m401f735227" x="151.757473" y="255.461498" style="fill: #009435; stroke: #009435; stroke-linejoin: miter"/>
     <use xlink:href="#m401f735227" x="156.916179" y="256.475767" style="fill: #009435; stroke: #009435; stroke-linejoin: miter"/>
     <use xlink:href="#m401f735227" x="162.074884" y="256.766674" style="fill: #009435; stroke: #009435; stroke-linejoin: miter"/>
     <use xlink:href="#m401f735227" x="167.23359" y="253.846048" style="fill: #009435; stroke: #009435; stroke-linejoin: miter"/>
     <use xlink:href="#m401f735227" x="172.392296" y="254.39717" style="fill: #009435; stroke: #009435; stroke-linejoin: miter"/>
     <use xlink:href="#m401f735227" x="177.551002" y="253.266481" style="fill: #009435; stroke: #009435; stroke-linejoin: miter"/>
     <use xlink:href="#m401f735227" x="182.709707" y="252.464935" style="fill: #009435; stroke: #009435; stroke-linejoin: miter"/>
     <use xlink:href="#m401f735227" x="187.868413" y="252.858181" style="fill: #009435; stroke: #009435; stroke-linejoin: miter"/>
     <use xlink:href="#m401f735227" x="193.027119" y="253.649324" style="fill: #009435; stroke: #009435; stroke-linejoin: miter"/>
     <use xlink:href="#m401f735227" x="198.185824" y="209.568186" style="fill: #009435; stroke: #009435; stroke-linejoin: miter"/>
     <use xlink:href="#m401f735227" x="203.34453" y="253.509859" style="fill: #009435; stroke: #009435; stroke-linejoin: miter"/>
     <use xlink:href="#m401f735227" x="208.503236" y="254.301829" style="fill: #009435; stroke: #009435; stroke-linejoin: miter"/>
     <use xlink:href="#m401f735227" x="213.661941" y="254.11836" style="fill: #009435; stroke: #009435; stroke-linejoin: miter"/>
     <use xlink:href="#m401f735227" x="218.820647" y="250.994248" style="fill: #009435; stroke: #009435; stroke-linejoin: miter"/>
     <use xlink:href="#m401f735227" x="223.979353" y="254.201839" style="fill: #009435; stroke: #009435; stroke-linejoin: miter"/>
     <use xlink:href="#m401f735227" x="229.138059" y="254.201839" style="fill: #009435; stroke: #009435; stroke-linejoin: miter"/>
     <use xlink:href="#m401f735227" x="234.296764" y="252.784562" style="fill: #009435; stroke: #009435; stroke-linejoin: miter"/>
     <use xlink:href="#m401f735227" x="239.45547" y="252.784538" style="fill: #009435; stroke: #009435; stroke-linejoin: miter"/>
     <use xlink:href="#m401f735227" x="244.614176" y="135.201108" style="fill: #009435; stroke: #009435; stroke-linejoin: miter"/>
     <use xlink:href="#m401f735227" x="249.772881" y="238.947094" style="fill: #009435; stroke: #009435; stroke-linejoin: miter"/>
     <use xlink:href="#m401f735227" x="254.931587" y="123.417498" style="fill: #009435; stroke: #009435; stroke-linejoin: miter"/>
     <use xlink:href="#m401f735227" x="260.090293" y="232.263289" style="fill: #009435; stroke: #009435; stroke-linejoin: miter"/>
     <use xlink:href="#m401f735227" x="265.248998" y="255.722198" style="fill: #009435; stroke: #009435; stroke-linejoin: miter"/>
     <use xlink:href="#m401f735227" x="270.407704" y="214.391413" style="fill: #009435; stroke: #009435; stroke-linejoin: miter"/>
     <use xlink:href="#m401f735227" x="275.56641" y="146.635403" style="fill: #009435; stroke: #009435; stroke-linejoin: miter"/>
     <use xlink:href="#m401f735227" x="280.725116" y="142.392483" style="fill: #009435; stroke: #009435; stroke-linejoin: miter"/>
     <use xlink:href="#m401f735227" x="285.883821" y="80.150494" style="fill: #009435; stroke: #009435; stroke-linejoin: miter"/>
     <use xlink:href="#m401f735227" x="291.042527" y="67.664098" style="fill: #009435; stroke: #009435; stroke-linejoin: miter"/>
     <use xlink:href="#m401f735227" x="296.201233" y="67.653675" style="fill: #009435; stroke: #009435; stroke-linejoin: miter"/>
     <use xlink:href="#m401f735227" x="301.359938" y="67.653675" style="fill: #009435; stroke: #009435; stroke-linejoin: miter"/>
     <use xlink:href="#m401f735227" x="306.518644" y="64.538112" style="fill: #009435; stroke: #009435; stroke-linejoin: miter"/>
     <use xlink:href="#m401f735227" x="311.67735" y="64.892173" style="fill: #009435; stroke: #009435; stroke-linejoin: miter"/>
     <use xlink:href="#m401f735227" x="316.836055" y="64.892173" style="fill: #009435; stroke: #009435; stroke-linejoin: miter"/>
     <use xlink:href="#m401f735227" x="321.994761" y="64.892173" style="fill: #009435; stroke: #009435; stroke-linejoin: miter"/>
     <use xlink:href="#m401f735227" x="327.153467" y="64.892173" style="fill: #009435; stroke: #009435; stroke-linejoin: miter"/>
     <use xlink:href="#m401f735227" x="332.312173" y="64.892173" style="fill: #009435; stroke: #009435; stroke-linejoin: miter"/>
     <use xlink:href="#m401f735227" x="337.470878" y="65.106879" style="fill: #009435; stroke: #009435; stroke-linejoin: miter"/>
     <use xlink:href="#m401f735227" x="342.629584" y="55.425434" style="fill: #009435; stroke: #009435; stroke-linejoin: miter"/>
     <use xlink:href="#m401f735227" x="347.78829" y="63.154766" style="fill: #009435; stroke: #009435; stroke-linejoin: miter"/>
     <use xlink:href="#m401f735227" x="352.946995" y="63.154435" style="fill: #009435; stroke: #009435; stroke-linejoin: miter"/>
     <use xlink:href="#m401f735227" x="358.105701" y="50.804158" style="fill: #009435; stroke: #009435; stroke-linejoin: miter"/>
     <use xlink:href="#m401f735227" x="363.264407" y="50.804158" style="fill: #009435; stroke: #009435; stroke-linejoin: miter"/>
     <use xlink:href="#m401f735227" x="368.423112" y="51.076581" style="fill: #009435; stroke: #009435; stroke-linejoin: miter"/>
     <use xlink:href="#m401f735227" x="373.581818" y="88.206617" style="fill: #009435; stroke: #009435; stroke-linejoin: miter"/>
    </g>
   </g>
   <g id="patch_3">
    <path d="M 54 252 
L 54 34.56 
" style="fill: none; stroke: #000000; stroke-width: 0.8; stroke-linejoin: miter; stroke-linecap: square"/>
   </g>
   <g id="patch_4">
    <path d="M 388.8 252 
L 388.8 34.56 
" style="fill: none; stroke: #000000; stroke-width: 0.8; stroke-linejoin: miter; stroke-linecap: square"/>
   </g>
   <g id="patch_5">
    <path d="M 54 252 
L 388.8 252 
" style="fill: none; stroke: #000000; stroke-width: 0.8; stroke-linejoin: miter; stroke-linecap: square"/>
   </g>
   <g id="patch_6">
    <path d="M 54 34.56 
L 388.8 34.56 
" style="fill: none; stroke: #000000; stroke-width: 0.8; stroke-linejoin: miter; stroke-linecap: square"/>
   </g>
   <g id="text_17">
    <!-- ζ-R-max agent policy with m = 2.5 -->
    <g transform="translate(117.225 28.56)scale(0.12 -0.12)">
     <defs>
      <path id="DejaVuSans-3b6" d="M 2231 397 
Q 2644 394 2891 159 
Q 3153 -88 3153 -463 
Q 3153 -822 2922 -1072 
Q 2672 -1344 2163 -1344 
Q 2163 -1109 2163 -872 
Q 2378 -888 2509 -750 
Q 2609 -641 2609 -525 
Q 2609 -359 2509 -222 
Q 2413 -91 2231 -91 
Q 338 -91 334 1669 
Q 334 3206 2119 4284 
L 456 4284 
L 456 4863 
L 3175 4863 
L 3175 4284 
Q 913 3147 913 1669 
Q 913 397 2231 397 
z
" transform="scale(0.015625)"/>
      <path id="DejaVuSans-2d" d="M 313 2009 
L 1997 2009 
L 1997 1497 
L 313 1497 
L 313 2009 
z
" transform="scale(0.015625)"/>
      <path id="DejaVuSans-52" d="M 2841 2188 
Q 3044 2119 3236 1894 
Q 3428 1669 3622 1275 
L 4263 0 
L 3584 0 
L 2988 1197 
Q 2756 1666 2539 1819 
Q 2322 1972 1947 1972 
L 1259 1972 
L 1259 0 
L 628 0 
L 628 4666 
L 2053 4666 
Q 2853 4666 3247 4331 
Q 3641 3997 3641 3322 
Q 3641 2881 3436 2590 
Q 3231 2300 2841 2188 
z
M 1259 4147 
L 1259 2491 
L 2053 2491 
Q 2509 2491 2742 2702 
Q 2975 2913 2975 3322 
Q 2975 3731 2742 3939 
Q 2509 4147 2053 4147 
L 1259 4147 
z
" transform="scale(0.015625)"/>
      <path id="DejaVuSans-6d" d="M 3328 2828 
Q 3544 3216 3844 3400 
Q 4144 3584 4550 3584 
Q 5097 3584 5394 3201 
Q 5691 2819 5691 2113 
L 5691 0 
L 5113 0 
L 5113 2094 
Q 5113 2597 4934 2840 
Q 4756 3084 4391 3084 
Q 3944 3084 3684 2787 
Q 3425 2491 3425 1978 
L 3425 0 
L 2847 0 
L 2847 2094 
Q 2847 2600 2669 2842 
Q 2491 3084 2119 3084 
Q 1678 3084 1418 2786 
Q 1159 2488 1159 1978 
L 1159 0 
L 581 0 
L 581 3500 
L 1159 3500 
L 1159 2956 
Q 1356 3278 1631 3431 
Q 1906 3584 2284 3584 
Q 2666 3584 2933 3390 
Q 3200 3197 3328 2828 
z
" transform="scale(0.015625)"/>
      <path id="DejaVuSans-78" d="M 3513 3500 
L 2247 1797 
L 3578 0 
L 2900 0 
L 1881 1375 
L 863 0 
L 184 0 
L 1544 1831 
L 300 3500 
L 978 3500 
L 1906 2253 
L 2834 3500 
L 3513 3500 
z
" transform="scale(0.015625)"/>
      <path id="DejaVuSans-67" d="M 2906 1791 
Q 2906 2416 2648 2759 
Q 2391 3103 1925 3103 
Q 1463 3103 1205 2759 
Q 947 2416 947 1791 
Q 947 1169 1205 825 
Q 1463 481 1925 481 
Q 2391 481 2648 825 
Q 2906 1169 2906 1791 
z
M 3481 434 
Q 3481 -459 3084 -895 
Q 2688 -1331 1869 -1331 
Q 1566 -1331 1297 -1286 
Q 1028 -1241 775 -1147 
L 775 -588 
Q 1028 -725 1275 -790 
Q 1522 -856 1778 -856 
Q 2344 -856 2625 -561 
Q 2906 -266 2906 331 
L 2906 616 
Q 2728 306 2450 153 
Q 2172 0 1784 0 
Q 1141 0 747 490 
Q 353 981 353 1791 
Q 353 2603 747 3093 
Q 1141 3584 1784 3584 
Q 2172 3584 2450 3431 
Q 2728 3278 2906 2969 
L 2906 3500 
L 3481 3500 
L 3481 434 
z
" transform="scale(0.015625)"/>
      <path id="DejaVuSans-6e" d="M 3513 2113 
L 3513 0 
L 2938 0 
L 2938 2094 
Q 2938 2591 2744 2837 
Q 2550 3084 2163 3084 
Q 1697 3084 1428 2787 
Q 1159 2491 1159 1978 
L 1159 0 
L 581 0 
L 581 3500 
L 1159 3500 
L 1159 2956 
Q 1366 3272 1645 3428 
Q 1925 3584 2291 3584 
Q 2894 3584 3203 3211 
Q 3513 2838 3513 2113 
z
" transform="scale(0.015625)"/>
      <path id="DejaVuSans-77" d="M 269 3500 
L 844 3500 
L 1563 769 
L 2278 3500 
L 2956 3500 
L 3675 769 
L 4391 3500 
L 4966 3500 
L 4050 0 
L 3372 0 
L 2619 2869 
L 1863 0 
L 1184 0 
L 269 3500 
z
" transform="scale(0.015625)"/>
      <path id="DejaVuSans-68" d="M 3513 2113 
L 3513 0 
L 2938 0 
L 2938 2094 
Q 2938 2591 2744 2837 
Q 2550 3084 2163 3084 
Q 1697 3084 1428 2787 
Q 1159 2491 1159 1978 
L 1159 0 
L 581 0 
L 581 4863 
L 1159 4863 
L 1159 2956 
Q 1366 3272 1645 3428 
Q 1925 3584 2291 3584 
Q 2894 3584 3203 3211 
Q 3513 2838 3513 2113 
z
" transform="scale(0.015625)"/>
      <path id="DejaVuSans-3d" d="M 678 2906 
L 4684 2906 
L 4684 2381 
L 678 2381 
L 678 2906 
z
M 678 1631 
L 4684 1631 
L 4684 1100 
L 678 1100 
L 678 1631 
z
" transform="scale(0.015625)"/>
      <path id="DejaVuSans-2e" d="M 684 794 
L 1344 794 
L 1344 0 
L 684 0 
L 684 794 
z
" transform="scale(0.015625)"/>
     </defs>
     <use xlink:href="#DejaVuSans-3b6"/>
     <use xlink:href="#DejaVuSans-2d" x="54.394531"/>
     <use xlink:href="#DejaVuSans-52" x="90.478516"/>
     <use xlink:href="#DejaVuSans-2d" x="155.960938"/>
     <use xlink:href="#DejaVuSans-6d" x="192.044922"/>
     <use xlink:href="#DejaVuSans-61" x="289.457031"/>
     <use xlink:href="#DejaVuSans-78" x="350.736328"/>
     <use xlink:href="#DejaVuSans-20" x="409.916016"/>
     <use xlink:href="#DejaVuSans-61" x="441.703125"/>
     <use xlink:href="#DejaVuSans-67" x="502.982422"/>
     <use xlink:href="#DejaVuSans-65" x="566.458984"/>
     <use xlink:href="#DejaVuSans-6e" x="627.982422"/>
     <use xlink:href="#DejaVuSans-74" x="691.361328"/>
     <use xlink:href="#DejaVuSans-20" x="730.570312"/>
     <use xlink:href="#DejaVuSans-70" x="762.357422"/>
     <use xlink:href="#DejaVuSans-6f" x="825.833984"/>
     <use xlink:href="#DejaVuSans-6c" x="887.015625"/>
     <use xlink:href="#DejaVuSans-69" x="914.798828"/>
     <use xlink:href="#DejaVuSans-63" x="942.582031"/>
     <use xlink:href="#DejaVuSans-79" x="997.5625"/>
     <use xlink:href="#DejaVuSans-20" x="1056.742188"/>
     <use xlink:href="#DejaVuSans-77" x="1088.529297"/>
     <use xlink:href="#DejaVuSans-69" x="1170.316406"/>
     <use xlink:href="#DejaVuSans-74" x="1198.099609"/>
     <use xlink:href="#DejaVuSans-68" x="1237.308594"/>
     <use xlink:href="#DejaVuSans-20" x="1300.6875"/>
     <use xlink:href="#DejaVuSans-6d" x="1332.474609"/>
     <use xlink:href="#DejaVuSans-20" x="1429.886719"/>
     <use xlink:href="#DejaVuSans-3d" x="1461.673828"/>
     <use xlink:href="#DejaVuSans-20" x="1545.462891"/>
     <use xlink:href="#DejaVuSans-32" x="1577.25"/>
     <use xlink:href="#DejaVuSans-2e" x="1640.873047"/>
     <use xlink:href="#DejaVuSans-35" x="1672.660156"/>
    </g>
   </g>
   <g id="legend_1">
    <g id="patch_7">
     <path d="M 61 115.950625 
L 145.003125 115.950625 
Q 147.003125 115.950625 147.003125 113.950625 
L 147.003125 41.56 
Q 147.003125 39.56 145.003125 39.56 
L 61 39.56 
Q 59 39.56 59 41.56 
L 59 113.950625 
Q 59 115.950625 61 115.950625 
z
" style="fill: #ffffff; opacity: 0.8; stroke: #cccccc; stroke-linejoin: miter"/>
    </g>
    <g id="line2d_34">
     <path d="M 63 47.658437 
L 73 47.658437 
L 83 47.658437 
" style="fill: none; stroke: #9d02d7; stroke-width: 1.5; stroke-linecap: square"/>
     <g>
      <use xlink:href="#m29efb39bfa" x="73" y="47.658437" style="fill: #9d02d7; stroke: #9d02d7; stroke-linejoin: miter"/>
     </g>
    </g>
    <g id="text_18">
     <!-- alpha=0.1 -->
     <g transform="translate(91 51.158437)scale(0.1 -0.1)">
      <use xlink:href="#DejaVuSans-61"/>
      <use xlink:href="#DejaVuSans-6c" x="61.279297"/>
      <use xlink:href="#DejaVuSans-70" x="89.0625"/>
      <use xlink:href="#DejaVuSans-68" x="152.539062"/>
      <use xlink:href="#DejaVuSans-61" x="215.917969"/>
      <use xlink:href="#DejaVuSans-3d" x="277.197266"/>
      <use xlink:href="#DejaVuSans-30" x="360.986328"/>
      <use xlink:href="#DejaVuSans-2e" x="424.609375"/>
      <use xlink:href="#DejaVuSans-31" x="456.396484"/>
     </g>
    </g>
    <g id="line2d_35">
     <path d="M 63 62.336562 
L 73 62.336562 
L 83 62.336562 
" style="fill: none; stroke: #0000ff; stroke-width: 1.5; stroke-linecap: square"/>
     <g>
      <use xlink:href="#mbf3911d460" x="73" y="62.336562" style="fill: #0000ff; stroke: #0000ff"/>
     </g>
    </g>
    <g id="text_19">
     <!-- alpha=0.5 -->
     <g transform="translate(91 65.836562)scale(0.1 -0.1)">
      <use xlink:href="#DejaVuSans-61"/>
      <use xlink:href="#DejaVuSans-6c" x="61.279297"/>
      <use xlink:href="#DejaVuSans-70" x="89.0625"/>
      <use xlink:href="#DejaVuSans-68" x="152.539062"/>
      <use xlink:href="#DejaVuSans-61" x="215.917969"/>
      <use xlink:href="#DejaVuSans-3d" x="277.197266"/>
      <use xlink:href="#DejaVuSans-30" x="360.986328"/>
      <use xlink:href="#DejaVuSans-2e" x="424.609375"/>
      <use xlink:href="#DejaVuSans-35" x="456.396484"/>
     </g>
    </g>
    <g id="line2d_36">
     <path d="M 63 77.014687 
L 73 77.014687 
L 83 77.014687 
" style="fill: none; stroke: #ff7763; stroke-width: 1.5; stroke-linecap: square"/>
     <g>
      <use xlink:href="#m79610399d8" x="73" y="77.014687" style="fill: #ff7763; stroke: #ff7763"/>
     </g>
    </g>
    <g id="text_20">
     <!-- alpha=1.0 -->
     <g transform="translate(91 80.514687)scale(0.1 -0.1)">
      <use xlink:href="#DejaVuSans-61"/>
      <use xlink:href="#DejaVuSans-6c" x="61.279297"/>
      <use xlink:href="#DejaVuSans-70" x="89.0625"/>
      <use xlink:href="#DejaVuSans-68" x="152.539062"/>
      <use xlink:href="#DejaVuSans-61" x="215.917969"/>
      <use xlink:href="#DejaVuSans-3d" x="277.197266"/>
      <use xlink:href="#DejaVuSans-31" x="360.986328"/>
      <use xlink:href="#DejaVuSans-2e" x="424.609375"/>
      <use xlink:href="#DejaVuSans-30" x="456.396484"/>
     </g>
    </g>
    <g id="line2d_37">
     <path d="M 63 91.692813 
L 73 91.692813 
L 83 91.692813 
" style="fill: none; stroke: #ffac1e; stroke-width: 1.5; stroke-linecap: square"/>
     <g>
      <use xlink:href="#m81dc1a1143" x="73" y="91.692813" style="fill: #ffac1e; stroke: #ffac1e; stroke-linejoin: bevel"/>
     </g>
    </g>
    <g id="text_21">
     <!-- alpha=1.5 -->
     <g transform="translate(91 95.192813)scale(0.1 -0.1)">
      <use xlink:href="#DejaVuSans-61"/>
      <use xlink:href="#DejaVuSans-6c" x="61.279297"/>
      <use xlink:href="#DejaVuSans-70" x="89.0625"/>
      <use xlink:href="#DejaVuSans-68" x="152.539062"/>
      <use xlink:href="#DejaVuSans-61" x="215.917969"/>
      <use xlink:href="#DejaVuSans-3d" x="277.197266"/>
      <use xlink:href="#DejaVuSans-31" x="360.986328"/>
      <use xlink:href="#DejaVuSans-2e" x="424.609375"/>
      <use xlink:href="#DejaVuSans-35" x="456.396484"/>
     </g>
    </g>
    <g id="line2d_38">
     <path d="M 63 106.370937 
L 73 106.370937 
L 83 106.370937 
" style="fill: none; stroke: #009435; stroke-width: 1.5; stroke-linecap: square"/>
     <g>
      <use xlink:href="#m401f735227" x="73" y="106.370937" style="fill: #009435; stroke: #009435; stroke-linejoin: miter"/>
     </g>
    </g>
    <g id="text_22">
     <!-- alpha=2.0 -->
     <g transform="translate(91 109.870937)scale(0.1 -0.1)">
      <use xlink:href="#DejaVuSans-61"/>
      <use xlink:href="#DejaVuSans-6c" x="61.279297"/>
      <use xlink:href="#DejaVuSans-70" x="89.0625"/>
      <use xlink:href="#DejaVuSans-68" x="152.539062"/>
      <use xlink:href="#DejaVuSans-61" x="215.917969"/>
      <use xlink:href="#DejaVuSans-3d" x="277.197266"/>
      <use xlink:href="#DejaVuSans-32" x="360.986328"/>
      <use xlink:href="#DejaVuSans-2e" x="424.609375"/>
      <use xlink:href="#DejaVuSans-30" x="456.396484"/>
     </g>
    </g>
   </g>
  </g>
 </g>
 <defs>
  <clipPath id="pf35fa0ab7b">
   <rect x="54" y="34.56" width="334.8" height="217.44"/>
  </clipPath>
 </defs>
</svg>
