<?xml version="1.0" encoding="utf-8" standalone="no"?>
<!DOCTYPE svg PUBLIC "-//W3C//DTD SVG 1.1//EN"
  "http://www.w3.org/Graphics/SVG/1.1/DTD/svg11.dtd">
<svg xmlns:xlink="http://www.w3.org/1999/xlink" width="432pt" height="288pt" viewBox="0 0 432 288" xmlns="http://www.w3.org/2000/svg" version="1.1">
 <metadata>
  <rdf:RDF xmlns:dc="http://purl.org/dc/elements/1.1/" xmlns:cc="http://creativecommons.org/ns#" xmlns:rdf="http://www.w3.org/1999/02/22-rdf-syntax-ns#">
   <cc:Work>
    <dc:type rdf:resource="http://purl.org/dc/dcmitype/StillImage"/>
    <dc:date>2023-01-11T15:36:52.187932</dc:date>
    <dc:format>image/svg+xml</dc:format>
    <dc:creator>
     <cc:Agent>
      <dc:title>Matplotlib v3.5.2, https://matplotlib.org/</dc:title>
     </cc:Agent>
    </dc:creator>
   </cc:Work>
  </rdf:RDF>
 </metadata>
 <defs>
  <style type="text/css">*{stroke-linejoin: round; stroke-linecap: butt}</style>
 </defs>
 <g id="figure_1">
  <g id="patch_1">
   <path d="M 0 288 
L 432 288 
L 432 0 
L 0 0 
z
" style="fill: #ffffff"/>
  </g>
  <g id="axes_1">
   <g id="patch_2">
    <path d="M 54 252 
L 388.8 252 
L 388.8 34.56 
L 54 34.56 
z
" style="fill: #ffffff"/>
   </g>
   <g id="PolyCollection_1">
    <defs>
     <path id="m6a2e6adc04" d="M 69.218182 -37.553605 
L 69.218182 -37.553605 
L 74.376888 -55.930555 
L 79.535593 -148.052215 
L 84.694299 -194.977899 
L 89.853005 -200.471103 
L 95.01171 -215.30232 
L 100.170416 -201.072342 
L 105.329122 -196.317737 
L 110.487827 -187.656147 
L 115.646533 -203.553239 
L 120.805239 -198.072565 
L 125.963945 -203.029788 
L 131.12265 -213.40402 
L 136.281356 -186.473672 
L 141.440062 -196.019177 
L 146.598767 -217.952978 
L 151.757473 -218.326477 
L 156.916179 -218.32647 
L 162.074884 -218.326477 
L 167.23359 -218.326477 
L 172.392296 -218.326477 
L 177.551002 -218.326477 
L 182.709707 -218.326477 
L 187.868413 -217.760245 
L 193.027119 -217.760226 
L 198.185824 -195.05661 
L 203.34453 -195.05661 
L 208.503236 -217.760226 
L 213.661941 -217.760245 
L 218.820647 -217.760226 
L 223.979353 -217.760245 
L 229.138059 -217.760245 
L 234.296764 -217.760226 
L 239.45547 -217.760226 
L 244.614176 -217.760226 
L 249.772881 -217.760226 
L 254.931587 -217.760226 
L 260.090293 -217.760245 
L 265.248998 -218.326477 
L 270.407704 -218.326477 
L 275.56641 -218.32647 
L 280.725116 -218.32647 
L 285.883821 -220.416278 
L 291.042527 -220.416278 
L 296.201233 -220.416278 
L 301.359938 -220.416275 
L 306.518644 -220.416278 
L 311.67735 -220.416275 
L 316.836055 -220.416275 
L 321.994761 -220.416278 
L 327.153467 -220.416275 
L 332.312173 -220.416278 
L 337.470878 -220.416278 
L 342.629584 -220.416275 
L 347.78829 -220.416278 
L 352.946995 -220.416275 
L 358.105701 -220.416278 
L 363.264407 -220.416275 
L 368.423112 -220.416278 
L 373.581818 -220.416275 
L 373.581818 -220.416275 
L 373.581818 -220.416275 
L 368.423112 -220.416278 
L 363.264407 -220.416275 
L 358.105701 -220.416278 
L 352.946995 -220.416275 
L 347.78829 -220.416278 
L 342.629584 -220.416275 
L 337.470878 -220.416278 
L 332.312173 -220.416278 
L 327.153467 -220.416275 
L 321.994761 -220.416278 
L 316.836055 -220.416275 
L 311.67735 -220.416275 
L 306.518644 -220.416278 
L 301.359938 -220.416275 
L 296.201233 -220.416278 
L 291.042527 -220.416278 
L 285.883821 -220.416278 
L 280.725116 -218.32647 
L 275.56641 -218.32647 
L 270.407704 -218.326477 
L 265.248998 -218.326477 
L 260.090293 -217.760245 
L 254.931587 -217.760226 
L 249.772881 -217.760226 
L 244.614176 -217.760226 
L 239.45547 -217.760226 
L 234.296764 -217.760226 
L 229.138059 -217.760245 
L 223.979353 -217.760245 
L 218.820647 -217.760226 
L 213.661941 -217.760245 
L 208.503236 -217.760226 
L 203.34453 -195.05661 
L 198.185824 -195.05661 
L 193.027119 -217.760226 
L 187.868413 -217.760245 
L 182.709707 -218.326477 
L 177.551002 -218.326477 
L 172.392296 -218.326477 
L 167.23359 -218.326477 
L 162.074884 -218.326477 
L 156.916179 -218.32647 
L 151.757473 -218.326477 
L 146.598767 -217.952978 
L 141.440062 -196.019177 
L 136.281356 -186.473672 
L 131.12265 -213.40402 
L 125.963945 -203.029788 
L 120.805239 -198.072565 
L 115.646533 -203.553239 
L 110.487827 -187.656147 
L 105.329122 -196.317737 
L 100.170416 -201.072342 
L 95.01171 -215.30232 
L 89.853005 -200.471103 
L 84.694299 -194.977899 
L 79.535593 -148.052215 
L 74.376888 -55.930555 
L 69.218182 -37.553605 
z
" style="stroke: #9d02d7; stroke-opacity: 0.2"/>
    </defs>
    <g clip-path="url(#p25a65bf5f3)">
     <use xlink:href="#m6a2e6adc04" x="0" y="288" style="fill: #9d02d7; fill-opacity: 0.2; stroke: #9d02d7; stroke-opacity: 0.2"/>
    </g>
   </g>
   <g id="PolyCollection_2">
    <defs>
     <path id="m2924ea7557" d="M 69.218182 -35.091182 
L 69.218182 -35.091182 
L 74.376888 -35.091182 
L 79.535593 -69.464162 
L 84.694299 -234.35985 
L 89.853005 -228.753481 
L 95.01171 -224.397383 
L 100.170416 -207.384157 
L 105.329122 -226.093296 
L 110.487827 -232.05084 
L 115.646533 -223.80566 
L 120.805239 -222.90212 
L 125.963945 -234.566629 
L 131.12265 -225.890934 
L 136.281356 -225.882065 
L 141.440062 -225.406479 
L 146.598767 -212.576194 
L 151.757473 -224.728278 
L 156.916179 -200.347725 
L 162.074884 -172.411147 
L 167.23359 -183.971396 
L 172.392296 -227.169974 
L 177.551002 -236.023664 
L 182.709707 -140.957261 
L 187.868413 -34.001362 
L 193.027119 -172.692262 
L 198.185824 -62.863539 
L 203.34453 -45.34559 
L 208.503236 -39.20105 
L 213.661941 -180.227583 
L 218.820647 -205.982523 
L 223.979353 -81.676995 
L 229.138059 -59.955223 
L 234.296764 -45.573111 
L 239.45547 -180.914361 
L 244.614176 -62.863645 
L 249.772881 -37.809998 
L 254.931587 -37.774731 
L 260.090293 -180.970864 
L 265.248998 -240.192847 
L 270.407704 -232.50149 
L 275.56641 -235.457535 
L 280.725116 -235.744389 
L 285.883821 -235.89661 
L 291.042527 -235.94676 
L 296.201233 -216.267706 
L 301.359938 -234.622268 
L 306.518644 -238.847666 
L 311.67735 -241.950787 
L 316.836055 -234.811518 
L 321.994761 -241.959866 
L 327.153467 -242.177591 
L 332.312173 -238.955948 
L 337.470878 -234.710131 
L 342.629584 -241.951515 
L 347.78829 -232.502055 
L 352.946995 -234.513051 
L 358.105701 -216.403295 
L 363.264407 -215.63165 
L 368.423112 -235.765234 
L 373.581818 -215.60825 
L 373.581818 -215.60825 
L 373.581818 -215.60825 
L 368.423112 -235.765234 
L 363.264407 -215.63165 
L 358.105701 -216.403295 
L 352.946995 -234.513051 
L 347.78829 -232.502055 
L 342.629584 -241.951515 
L 337.470878 -234.710131 
L 332.312173 -238.955948 
L 327.153467 -242.177591 
L 321.994761 -241.959866 
L 316.836055 -234.811518 
L 311.67735 -241.950787 
L 306.518644 -238.847666 
L 301.359938 -234.622268 
L 296.201233 -216.267706 
L 291.042527 -235.94676 
L 285.883821 -235.89661 
L 280.725116 -235.744389 
L 275.56641 -235.457535 
L 270.407704 -232.50149 
L 265.248998 -240.192847 
L 260.090293 -180.970864 
L 254.931587 -37.774731 
L 249.772881 -37.809998 
L 244.614176 -62.863645 
L 239.45547 -180.914361 
L 234.296764 -45.573111 
L 229.138059 -59.955223 
L 223.979353 -81.676995 
L 218.820647 -205.982523 
L 213.661941 -180.227583 
L 208.503236 -39.20105 
L 203.34453 -45.34559 
L 198.185824 -62.863539 
L 193.027119 -172.692262 
L 187.868413 -34.001362 
L 182.709707 -140.957261 
L 177.551002 -236.023664 
L 172.392296 -227.169974 
L 167.23359 -183.971396 
L 162.074884 -172.411147 
L 156.916179 -200.347725 
L 151.757473 -224.728278 
L 146.598767 -212.576194 
L 141.440062 -225.406479 
L 136.281356 -225.882065 
L 131.12265 -225.890934 
L 125.963945 -234.566629 
L 120.805239 -222.90212 
L 115.646533 -223.80566 
L 110.487827 -232.05084 
L 105.329122 -226.093296 
L 100.170416 -207.384157 
L 95.01171 -224.397383 
L 89.853005 -228.753481 
L 84.694299 -234.35985 
L 79.535593 -69.464162 
L 74.376888 -35.091182 
L 69.218182 -35.091182 
z
" style="stroke: #0000ff; stroke-opacity: 0.2"/>
    </defs>
    <g clip-path="url(#p25a65bf5f3)">
     <use xlink:href="#m2924ea7557" x="0" y="288" style="fill: #0000ff; fill-opacity: 0.2; stroke: #0000ff; stroke-opacity: 0.2"/>
    </g>
   </g>
   <g id="PolyCollection_3">
    <defs>
     <path id="mdac9c371a6" d="M 69.218182 -35.091182 
L 69.218182 -35.091182 
L 74.376888 -35.010084 
L 79.535593 -26.858171 
L 84.694299 -93.931282 
L 89.853005 -150.652796 
L 95.01171 -127.292215 
L 100.170416 -119.74596 
L 105.329122 -120.719119 
L 110.487827 -120.364561 
L 115.646533 -138.715498 
L 120.805239 -138.715498 
L 125.963945 -138.715498 
L 131.12265 -138.715498 
L 136.281356 -138.715498 
L 141.440062 -148.505778 
L 146.598767 -148.505778 
L 151.757473 -138.718289 
L 156.916179 -152.883512 
L 162.074884 -152.883512 
L 167.23359 -89.685437 
L 172.392296 -159.70007 
L 177.551002 -159.70007 
L 182.709707 -159.70007 
L 187.868413 -159.70007 
L 193.027119 -159.70007 
L 198.185824 -159.70007 
L 203.34453 -159.70007 
L 208.503236 -159.70007 
L 213.661941 -159.700732 
L 218.820647 -159.70007 
L 223.979353 -159.700732 
L 229.138059 -155.021033 
L 234.296764 -155.021964 
L 239.45547 -155.021964 
L 244.614176 -155.021964 
L 249.772881 -155.021964 
L 254.931587 -155.021964 
L 260.090293 -161.601814 
L 265.248998 -161.601814 
L 270.407704 -161.601814 
L 275.56641 -161.601814 
L 280.725116 -161.601814 
L 285.883821 -161.601814 
L 291.042527 -161.601814 
L 296.201233 -161.601814 
L 301.359938 -161.601814 
L 306.518644 -161.601814 
L 311.67735 -161.601814 
L 316.836055 -227.748512 
L 321.994761 -227.748512 
L 327.153467 -227.748512 
L 332.312173 -227.748512 
L 337.470878 -227.748512 
L 342.629584 -227.748512 
L 347.78829 -227.748512 
L 352.946995 -227.748512 
L 358.105701 -227.748512 
L 363.264407 -227.748512 
L 368.423112 -227.748512 
L 373.581818 -227.748512 
L 373.581818 -227.748512 
L 373.581818 -227.748512 
L 368.423112 -227.748512 
L 363.264407 -227.748512 
L 358.105701 -227.748512 
L 352.946995 -227.748512 
L 347.78829 -227.748512 
L 342.629584 -227.748512 
L 337.470878 -227.748512 
L 332.312173 -227.748512 
L 327.153467 -227.748512 
L 321.994761 -227.748512 
L 316.836055 -227.748512 
L 311.67735 -161.601814 
L 306.518644 -161.601814 
L 301.359938 -161.601814 
L 296.201233 -161.601814 
L 291.042527 -161.601814 
L 285.883821 -161.601814 
L 280.725116 -161.601814 
L 275.56641 -161.601814 
L 270.407704 -161.601814 
L 265.248998 -161.601814 
L 260.090293 -161.601814 
L 254.931587 -155.021964 
L 249.772881 -155.021964 
L 244.614176 -155.021964 
L 239.45547 -155.021964 
L 234.296764 -155.021964 
L 229.138059 -155.021033 
L 223.979353 -159.700732 
L 218.820647 -159.70007 
L 213.661941 -159.700732 
L 208.503236 -159.70007 
L 203.34453 -159.70007 
L 198.185824 -159.70007 
L 193.027119 -159.70007 
L 187.868413 -159.70007 
L 182.709707 -159.70007 
L 177.551002 -159.70007 
L 172.392296 -159.70007 
L 167.23359 -89.685437 
L 162.074884 -152.883512 
L 156.916179 -152.883512 
L 151.757473 -138.718289 
L 146.598767 -148.505778 
L 141.440062 -148.505778 
L 136.281356 -138.715498 
L 131.12265 -138.715498 
L 125.963945 -138.715498 
L 120.805239 -138.715498 
L 115.646533 -138.715498 
L 110.487827 -120.364561 
L 105.329122 -120.719119 
L 100.170416 -119.74596 
L 95.01171 -127.292215 
L 89.853005 -150.652796 
L 84.694299 -93.931282 
L 79.535593 -26.858171 
L 74.376888 -35.010084 
L 69.218182 -35.091182 
z
" style="stroke: #ff7763; stroke-opacity: 0.2"/>
    </defs>
    <g clip-path="url(#p25a65bf5f3)">
     <use xlink:href="#mdac9c371a6" x="0" y="288" style="fill: #ff7763; fill-opacity: 0.2; stroke: #ff7763; stroke-opacity: 0.2"/>
    </g>
   </g>
   <g id="PolyCollection_4">
    <defs>
     <path id="md66037894f" d="M 69.218182 -35.091182 
L 69.218182 -35.091182 
L 74.376888 -35.091182 
L 79.535593 -40.078402 
L 84.694299 -41.840183 
L 89.853005 -63.007855 
L 95.01171 -152.141305 
L 100.170416 -172.900529 
L 105.329122 -173.073107 
L 110.487827 -207.149016 
L 115.646533 -205.34935 
L 120.805239 -160.540523 
L 125.963945 -189.666731 
L 131.12265 -191.876886 
L 136.281356 -191.943107 
L 141.440062 -188.869899 
L 146.598767 -163.57549 
L 151.757473 -188.869899 
L 156.916179 -163.872684 
L 162.074884 -189.206306 
L 167.23359 -188.764775 
L 172.392296 -160.408538 
L 177.551002 -160.408538 
L 182.709707 -189.084493 
L 187.868413 -192.592116 
L 193.027119 -191.943107 
L 198.185824 -163.179562 
L 203.34453 -160.868834 
L 208.503236 -191.943107 
L 213.661941 -163.233939 
L 218.820647 -189.084493 
L 223.979353 -189.206306 
L 229.138059 -188.764775 
L 234.296764 -192.875701 
L 239.45547 -163.57549 
L 244.614176 -163.790244 
L 249.772881 -189.100927 
L 254.931587 -189.100927 
L 260.090293 -164.317985 
L 265.248998 -193.1366 
L 270.407704 -163.832295 
L 275.56641 -163.832295 
L 280.725116 -193.441256 
L 285.883821 -163.950476 
L 291.042527 -192.783282 
L 296.201233 -164.53543 
L 301.359938 -163.950476 
L 306.518644 -192.783282 
L 311.67735 -164.317985 
L 316.836055 -192.783282 
L 321.994761 -192.783282 
L 327.153467 -193.729053 
L 332.312173 -163.972465 
L 337.470878 -193.008991 
L 342.629584 -193.729053 
L 347.78829 -193.353099 
L 352.946995 -193.807607 
L 358.105701 -163.971117 
L 363.264407 -171.378514 
L 368.423112 -170.870575 
L 373.581818 -171.426922 
L 373.581818 -171.426922 
L 373.581818 -171.426922 
L 368.423112 -170.870575 
L 363.264407 -171.378514 
L 358.105701 -163.971117 
L 352.946995 -193.807607 
L 347.78829 -193.353099 
L 342.629584 -193.729053 
L 337.470878 -193.008991 
L 332.312173 -163.972465 
L 327.153467 -193.729053 
L 321.994761 -192.783282 
L 316.836055 -192.783282 
L 311.67735 -164.317985 
L 306.518644 -192.783282 
L 301.359938 -163.950476 
L 296.201233 -164.53543 
L 291.042527 -192.783282 
L 285.883821 -163.950476 
L 280.725116 -193.441256 
L 275.56641 -163.832295 
L 270.407704 -163.832295 
L 265.248998 -193.1366 
L 260.090293 -164.317985 
L 254.931587 -189.100927 
L 249.772881 -189.100927 
L 244.614176 -163.790244 
L 239.45547 -163.57549 
L 234.296764 -192.875701 
L 229.138059 -188.764775 
L 223.979353 -189.206306 
L 218.820647 -189.084493 
L 213.661941 -163.233939 
L 208.503236 -191.943107 
L 203.34453 -160.868834 
L 198.185824 -163.179562 
L 193.027119 -191.943107 
L 187.868413 -192.592116 
L 182.709707 -189.084493 
L 177.551002 -160.408538 
L 172.392296 -160.408538 
L 167.23359 -188.764775 
L 162.074884 -189.206306 
L 156.916179 -163.872684 
L 151.757473 -188.869899 
L 146.598767 -163.57549 
L 141.440062 -188.869899 
L 136.281356 -191.943107 
L 131.12265 -191.876886 
L 125.963945 -189.666731 
L 120.805239 -160.540523 
L 115.646533 -205.34935 
L 110.487827 -207.149016 
L 105.329122 -173.073107 
L 100.170416 -172.900529 
L 95.01171 -152.141305 
L 89.853005 -63.007855 
L 84.694299 -41.840183 
L 79.535593 -40.078402 
L 74.376888 -35.091182 
L 69.218182 -35.091182 
z
" style="stroke: #ffac1e; stroke-opacity: 0.2"/>
    </defs>
    <g clip-path="url(#p25a65bf5f3)">
     <use xlink:href="#md66037894f" x="0" y="288" style="fill: #ffac1e; fill-opacity: 0.2; stroke: #ffac1e; stroke-opacity: 0.2"/>
    </g>
   </g>
   <g id="PolyCollection_5">
    <defs>
     <path id="m84a05ed78a" d="M 69.218182 -33.288873 
L 69.218182 -33.288873 
L 74.376888 -35.091182 
L 79.535593 -35.091182 
L 84.694299 -147.587965 
L 89.853005 -186.485089 
L 95.01171 -193.935101 
L 100.170416 -193.935101 
L 105.329122 -193.93241 
L 110.487827 -193.935101 
L 115.646533 -183.89351 
L 120.805239 -185.311788 
L 125.963945 -193.563848 
L 131.12265 -193.827159 
L 136.281356 -201.113479 
L 141.440062 -107.513816 
L 146.598767 -201.110082 
L 151.757473 -202.536589 
L 156.916179 -202.539982 
L 162.074884 -183.304261 
L 167.23359 -179.957425 
L 172.392296 -201.916794 
L 177.551002 -180.298148 
L 182.709707 -202.836886 
L 187.868413 -202.836886 
L 193.027119 -183.318312 
L 198.185824 -202.836886 
L 203.34453 -183.318312 
L 208.503236 -202.836886 
L 213.661941 -183.318312 
L 218.820647 -202.836886 
L 223.979353 -202.840184 
L 229.138059 -183.304261 
L 234.296764 -183.304261 
L 239.45547 -202.837241 
L 244.614176 -183.304261 
L 249.772881 -202.840184 
L 254.931587 -202.840184 
L 260.090293 -202.840184 
L 265.248998 -183.304261 
L 270.407704 -202.837241 
L 275.56641 -202.840184 
L 280.725116 -202.840184 
L 285.883821 -202.837241 
L 291.042527 -183.304261 
L 296.201233 -203.260087 
L 301.359938 -203.260087 
L 306.518644 -178.28138 
L 311.67735 -203.260087 
L 316.836055 -203.260087 
L 321.994761 -178.28138 
L 327.153467 -203.260087 
L 332.312173 -203.257124 
L 337.470878 -202.225105 
L 342.629584 -202.225105 
L 347.78829 -192.884911 
L 352.946995 -202.225105 
L 358.105701 -192.884757 
L 363.264407 -192.884911 
L 368.423112 -192.884911 
L 373.581818 -202.225105 
L 373.581818 -202.225105 
L 373.581818 -202.225105 
L 368.423112 -192.884911 
L 363.264407 -192.884911 
L 358.105701 -192.884757 
L 352.946995 -202.225105 
L 347.78829 -192.884911 
L 342.629584 -202.225105 
L 337.470878 -202.225105 
L 332.312173 -203.257124 
L 327.153467 -203.260087 
L 321.994761 -178.28138 
L 316.836055 -203.260087 
L 311.67735 -203.260087 
L 306.518644 -178.28138 
L 301.359938 -203.260087 
L 296.201233 -203.260087 
L 291.042527 -183.304261 
L 285.883821 -202.837241 
L 280.725116 -202.840184 
L 275.56641 -202.840184 
L 270.407704 -202.837241 
L 265.248998 -183.304261 
L 260.090293 -202.840184 
L 254.931587 -202.840184 
L 249.772881 -202.840184 
L 244.614176 -183.304261 
L 239.45547 -202.837241 
L 234.296764 -183.304261 
L 229.138059 -183.304261 
L 223.979353 -202.840184 
L 218.820647 -202.836886 
L 213.661941 -183.318312 
L 208.503236 -202.836886 
L 203.34453 -183.318312 
L 198.185824 -202.836886 
L 193.027119 -183.318312 
L 187.868413 -202.836886 
L 182.709707 -202.836886 
L 177.551002 -180.298148 
L 172.392296 -201.916794 
L 167.23359 -179.957425 
L 162.074884 -183.304261 
L 156.916179 -202.539982 
L 151.757473 -202.536589 
L 146.598767 -201.110082 
L 141.440062 -107.513816 
L 136.281356 -201.113479 
L 131.12265 -193.827159 
L 125.963945 -193.563848 
L 120.805239 -185.311788 
L 115.646533 -183.89351 
L 110.487827 -193.935101 
L 105.329122 -193.93241 
L 100.170416 -193.935101 
L 95.01171 -193.935101 
L 89.853005 -186.485089 
L 84.694299 -147.587965 
L 79.535593 -35.091182 
L 74.376888 -35.091182 
L 69.218182 -33.288873 
z
" style="stroke: #009435; stroke-opacity: 0.2"/>
    </defs>
    <g clip-path="url(#p25a65bf5f3)">
     <use xlink:href="#m84a05ed78a" x="0" y="288" style="fill: #009435; fill-opacity: 0.2; stroke: #009435; stroke-opacity: 0.2"/>
    </g>
   </g>
   <g id="matplotlib.axis_1">
    <g id="xtick_1">
     <g id="line2d_1">
      <path d="M 69.218182 252 
L 69.218182 34.56 
" clip-path="url(#p25a65bf5f3)" style="fill: none; stroke-dasharray: 2.96,1.28; stroke-dashoffset: 0; stroke: #b0b0b0; stroke-width: 0.8"/>
     </g>
     <g id="line2d_2">
      <defs>
       <path id="m858d55d697" d="M 0 0 
L 0 3.5 
" style="stroke: #000000; stroke-width: 0.8"/>
      </defs>
      <g>
       <use xlink:href="#m858d55d697" x="69.218182" y="252" style="stroke: #000000; stroke-width: 0.8"/>
      </g>
     </g>
     <g id="text_1">
      <!-- 0 -->
      <g transform="translate(66.036932 266.598437)scale(0.1 -0.1)">
       <defs>
        <path id="DejaVuSans-30" d="M 2034 4250 
Q 1547 4250 1301 3770 
Q 1056 3291 1056 2328 
Q 1056 1369 1301 889 
Q 1547 409 2034 409 
Q 2525 409 2770 889 
Q 3016 1369 3016 2328 
Q 3016 3291 2770 3770 
Q 2525 4250 2034 4250 
z
M 2034 4750 
Q 2819 4750 3233 4129 
Q 3647 3509 3647 2328 
Q 3647 1150 3233 529 
Q 2819 -91 2034 -91 
Q 1250 -91 836 529 
Q 422 1150 422 2328 
Q 422 3509 836 4129 
Q 1250 4750 2034 4750 
z
" transform="scale(0.015625)"/>
       </defs>
       <use xlink:href="#DejaVuSans-30"/>
      </g>
     </g>
    </g>
    <g id="xtick_2">
     <g id="line2d_3">
      <path d="M 120.805239 252 
L 120.805239 34.56 
" clip-path="url(#p25a65bf5f3)" style="fill: none; stroke-dasharray: 2.96,1.28; stroke-dashoffset: 0; stroke: #b0b0b0; stroke-width: 0.8"/>
     </g>
     <g id="line2d_4">
      <g>
       <use xlink:href="#m858d55d697" x="120.805239" y="252" style="stroke: #000000; stroke-width: 0.8"/>
      </g>
     </g>
     <g id="text_2">
      <!-- 500 -->
      <g transform="translate(111.261489 266.598437)scale(0.1 -0.1)">
       <defs>
        <path id="DejaVuSans-35" d="M 691 4666 
L 3169 4666 
L 3169 4134 
L 1269 4134 
L 1269 2991 
Q 1406 3038 1543 3061 
Q 1681 3084 1819 3084 
Q 2600 3084 3056 2656 
Q 3513 2228 3513 1497 
Q 3513 744 3044 326 
Q 2575 -91 1722 -91 
Q 1428 -91 1123 -41 
Q 819 9 494 109 
L 494 744 
Q 775 591 1075 516 
Q 1375 441 1709 441 
Q 2250 441 2565 725 
Q 2881 1009 2881 1497 
Q 2881 1984 2565 2268 
Q 2250 2553 1709 2553 
Q 1456 2553 1204 2497 
Q 953 2441 691 2322 
L 691 4666 
z
" transform="scale(0.015625)"/>
       </defs>
       <use xlink:href="#DejaVuSans-35"/>
       <use xlink:href="#DejaVuSans-30" x="63.623047"/>
       <use xlink:href="#DejaVuSans-30" x="127.246094"/>
      </g>
     </g>
    </g>
    <g id="xtick_3">
     <g id="line2d_5">
      <path d="M 172.392296 252 
L 172.392296 34.56 
" clip-path="url(#p25a65bf5f3)" style="fill: none; stroke-dasharray: 2.96,1.28; stroke-dashoffset: 0; stroke: #b0b0b0; stroke-width: 0.8"/>
     </g>
     <g id="line2d_6">
      <g>
       <use xlink:href="#m858d55d697" x="172.392296" y="252" style="stroke: #000000; stroke-width: 0.8"/>
      </g>
     </g>
     <g id="text_3">
      <!-- 1000 -->
      <g transform="translate(159.667296 266.598437)scale(0.1 -0.1)">
       <defs>
        <path id="DejaVuSans-31" d="M 794 531 
L 1825 531 
L 1825 4091 
L 703 3866 
L 703 4441 
L 1819 4666 
L 2450 4666 
L 2450 531 
L 3481 531 
L 3481 0 
L 794 0 
L 794 531 
z
" transform="scale(0.015625)"/>
       </defs>
       <use xlink:href="#DejaVuSans-31"/>
       <use xlink:href="#DejaVuSans-30" x="63.623047"/>
       <use xlink:href="#DejaVuSans-30" x="127.246094"/>
       <use xlink:href="#DejaVuSans-30" x="190.869141"/>
      </g>
     </g>
    </g>
    <g id="xtick_4">
     <g id="line2d_7">
      <path d="M 223.979353 252 
L 223.979353 34.56 
" clip-path="url(#p25a65bf5f3)" style="fill: none; stroke-dasharray: 2.96,1.28; stroke-dashoffset: 0; stroke: #b0b0b0; stroke-width: 0.8"/>
     </g>
     <g id="line2d_8">
      <g>
       <use xlink:href="#m858d55d697" x="223.979353" y="252" style="stroke: #000000; stroke-width: 0.8"/>
      </g>
     </g>
     <g id="text_4">
      <!-- 1500 -->
      <g transform="translate(211.254353 266.598437)scale(0.1 -0.1)">
       <use xlink:href="#DejaVuSans-31"/>
       <use xlink:href="#DejaVuSans-35" x="63.623047"/>
       <use xlink:href="#DejaVuSans-30" x="127.246094"/>
       <use xlink:href="#DejaVuSans-30" x="190.869141"/>
      </g>
     </g>
    </g>
    <g id="xtick_5">
     <g id="line2d_9">
      <path d="M 275.56641 252 
L 275.56641 34.56 
" clip-path="url(#p25a65bf5f3)" style="fill: none; stroke-dasharray: 2.96,1.28; stroke-dashoffset: 0; stroke: #b0b0b0; stroke-width: 0.8"/>
     </g>
     <g id="line2d_10">
      <g>
       <use xlink:href="#m858d55d697" x="275.56641" y="252" style="stroke: #000000; stroke-width: 0.8"/>
      </g>
     </g>
     <g id="text_5">
      <!-- 2000 -->
      <g transform="translate(262.84141 266.598437)scale(0.1 -0.1)">
       <defs>
        <path id="DejaVuSans-32" d="M 1228 531 
L 3431 531 
L 3431 0 
L 469 0 
L 469 531 
Q 828 903 1448 1529 
Q 2069 2156 2228 2338 
Q 2531 2678 2651 2914 
Q 2772 3150 2772 3378 
Q 2772 3750 2511 3984 
Q 2250 4219 1831 4219 
Q 1534 4219 1204 4116 
Q 875 4013 500 3803 
L 500 4441 
Q 881 4594 1212 4672 
Q 1544 4750 1819 4750 
Q 2544 4750 2975 4387 
Q 3406 4025 3406 3419 
Q 3406 3131 3298 2873 
Q 3191 2616 2906 2266 
Q 2828 2175 2409 1742 
Q 1991 1309 1228 531 
z
" transform="scale(0.015625)"/>
       </defs>
       <use xlink:href="#DejaVuSans-32"/>
       <use xlink:href="#DejaVuSans-30" x="63.623047"/>
       <use xlink:href="#DejaVuSans-30" x="127.246094"/>
       <use xlink:href="#DejaVuSans-30" x="190.869141"/>
      </g>
     </g>
    </g>
    <g id="xtick_6">
     <g id="line2d_11">
      <path d="M 327.153467 252 
L 327.153467 34.56 
" clip-path="url(#p25a65bf5f3)" style="fill: none; stroke-dasharray: 2.96,1.28; stroke-dashoffset: 0; stroke: #b0b0b0; stroke-width: 0.8"/>
     </g>
     <g id="line2d_12">
      <g>
       <use xlink:href="#m858d55d697" x="327.153467" y="252" style="stroke: #000000; stroke-width: 0.8"/>
      </g>
     </g>
     <g id="text_6">
      <!-- 2500 -->
      <g transform="translate(314.428467 266.598437)scale(0.1 -0.1)">
       <use xlink:href="#DejaVuSans-32"/>
       <use xlink:href="#DejaVuSans-35" x="63.623047"/>
       <use xlink:href="#DejaVuSans-30" x="127.246094"/>
       <use xlink:href="#DejaVuSans-30" x="190.869141"/>
      </g>
     </g>
    </g>
    <g id="xtick_7">
     <g id="line2d_13">
      <path d="M 378.740524 252 
L 378.740524 34.56 
" clip-path="url(#p25a65bf5f3)" style="fill: none; stroke-dasharray: 2.96,1.28; stroke-dashoffset: 0; stroke: #b0b0b0; stroke-width: 0.8"/>
     </g>
     <g id="line2d_14">
      <g>
       <use xlink:href="#m858d55d697" x="378.740524" y="252" style="stroke: #000000; stroke-width: 0.8"/>
      </g>
     </g>
     <g id="text_7">
      <!-- 3000 -->
      <g transform="translate(366.015524 266.598437)scale(0.1 -0.1)">
       <defs>
        <path id="DejaVuSans-33" d="M 2597 2516 
Q 3050 2419 3304 2112 
Q 3559 1806 3559 1356 
Q 3559 666 3084 287 
Q 2609 -91 1734 -91 
Q 1441 -91 1130 -33 
Q 819 25 488 141 
L 488 750 
Q 750 597 1062 519 
Q 1375 441 1716 441 
Q 2309 441 2620 675 
Q 2931 909 2931 1356 
Q 2931 1769 2642 2001 
Q 2353 2234 1838 2234 
L 1294 2234 
L 1294 2753 
L 1863 2753 
Q 2328 2753 2575 2939 
Q 2822 3125 2822 3475 
Q 2822 3834 2567 4026 
Q 2313 4219 1838 4219 
Q 1578 4219 1281 4162 
Q 984 4106 628 3988 
L 628 4550 
Q 988 4650 1302 4700 
Q 1616 4750 1894 4750 
Q 2613 4750 3031 4423 
Q 3450 4097 3450 3541 
Q 3450 3153 3228 2886 
Q 3006 2619 2597 2516 
z
" transform="scale(0.015625)"/>
       </defs>
       <use xlink:href="#DejaVuSans-33"/>
       <use xlink:href="#DejaVuSans-30" x="63.623047"/>
       <use xlink:href="#DejaVuSans-30" x="127.246094"/>
       <use xlink:href="#DejaVuSans-30" x="190.869141"/>
      </g>
     </g>
    </g>
    <g id="text_8">
     <!-- Steps -->
     <g transform="translate(207.410156 280.276563)scale(0.1 -0.1)">
      <defs>
       <path id="DejaVuSans-53" d="M 3425 4513 
L 3425 3897 
Q 3066 4069 2747 4153 
Q 2428 4238 2131 4238 
Q 1616 4238 1336 4038 
Q 1056 3838 1056 3469 
Q 1056 3159 1242 3001 
Q 1428 2844 1947 2747 
L 2328 2669 
Q 3034 2534 3370 2195 
Q 3706 1856 3706 1288 
Q 3706 609 3251 259 
Q 2797 -91 1919 -91 
Q 1588 -91 1214 -16 
Q 841 59 441 206 
L 441 856 
Q 825 641 1194 531 
Q 1563 422 1919 422 
Q 2459 422 2753 634 
Q 3047 847 3047 1241 
Q 3047 1584 2836 1778 
Q 2625 1972 2144 2069 
L 1759 2144 
Q 1053 2284 737 2584 
Q 422 2884 422 3419 
Q 422 4038 858 4394 
Q 1294 4750 2059 4750 
Q 2388 4750 2728 4690 
Q 3069 4631 3425 4513 
z
" transform="scale(0.015625)"/>
       <path id="DejaVuSans-74" d="M 1172 4494 
L 1172 3500 
L 2356 3500 
L 2356 3053 
L 1172 3053 
L 1172 1153 
Q 1172 725 1289 603 
Q 1406 481 1766 481 
L 2356 481 
L 2356 0 
L 1766 0 
Q 1100 0 847 248 
Q 594 497 594 1153 
L 594 3053 
L 172 3053 
L 172 3500 
L 594 3500 
L 594 4494 
L 1172 4494 
z
" transform="scale(0.015625)"/>
       <path id="DejaVuSans-65" d="M 3597 1894 
L 3597 1613 
L 953 1613 
Q 991 1019 1311 708 
Q 1631 397 2203 397 
Q 2534 397 2845 478 
Q 3156 559 3463 722 
L 3463 178 
Q 3153 47 2828 -22 
Q 2503 -91 2169 -91 
Q 1331 -91 842 396 
Q 353 884 353 1716 
Q 353 2575 817 3079 
Q 1281 3584 2069 3584 
Q 2775 3584 3186 3129 
Q 3597 2675 3597 1894 
z
M 3022 2063 
Q 3016 2534 2758 2815 
Q 2500 3097 2075 3097 
Q 1594 3097 1305 2825 
Q 1016 2553 972 2059 
L 3022 2063 
z
" transform="scale(0.015625)"/>
       <path id="DejaVuSans-70" d="M 1159 525 
L 1159 -1331 
L 581 -1331 
L 581 3500 
L 1159 3500 
L 1159 2969 
Q 1341 3281 1617 3432 
Q 1894 3584 2278 3584 
Q 2916 3584 3314 3078 
Q 3713 2572 3713 1747 
Q 3713 922 3314 415 
Q 2916 -91 2278 -91 
Q 1894 -91 1617 61 
Q 1341 213 1159 525 
z
M 3116 1747 
Q 3116 2381 2855 2742 
Q 2594 3103 2138 3103 
Q 1681 3103 1420 2742 
Q 1159 2381 1159 1747 
Q 1159 1113 1420 752 
Q 1681 391 2138 391 
Q 2594 391 2855 752 
Q 3116 1113 3116 1747 
z
" transform="scale(0.015625)"/>
       <path id="DejaVuSans-73" d="M 2834 3397 
L 2834 2853 
Q 2591 2978 2328 3040 
Q 2066 3103 1784 3103 
Q 1356 3103 1142 2972 
Q 928 2841 928 2578 
Q 928 2378 1081 2264 
Q 1234 2150 1697 2047 
L 1894 2003 
Q 2506 1872 2764 1633 
Q 3022 1394 3022 966 
Q 3022 478 2636 193 
Q 2250 -91 1575 -91 
Q 1294 -91 989 -36 
Q 684 19 347 128 
L 347 722 
Q 666 556 975 473 
Q 1284 391 1588 391 
Q 1994 391 2212 530 
Q 2431 669 2431 922 
Q 2431 1156 2273 1281 
Q 2116 1406 1581 1522 
L 1381 1569 
Q 847 1681 609 1914 
Q 372 2147 372 2553 
Q 372 3047 722 3315 
Q 1072 3584 1716 3584 
Q 2034 3584 2315 3537 
Q 2597 3491 2834 3397 
z
" transform="scale(0.015625)"/>
      </defs>
      <use xlink:href="#DejaVuSans-53"/>
      <use xlink:href="#DejaVuSans-74" x="63.476562"/>
      <use xlink:href="#DejaVuSans-65" x="102.685547"/>
      <use xlink:href="#DejaVuSans-70" x="164.208984"/>
      <use xlink:href="#DejaVuSans-73" x="227.685547"/>
     </g>
    </g>
   </g>
   <g id="matplotlib.axis_2">
    <g id="ytick_1">
     <g id="line2d_15">
      <path d="M 54 243.636923 
L 388.8 243.636923 
" clip-path="url(#p25a65bf5f3)" style="fill: none; stroke-dasharray: 2.96,1.28; stroke-dashoffset: 0; stroke: #b0b0b0; stroke-width: 0.8"/>
     </g>
     <g id="line2d_16">
      <defs>
       <path id="ma21f6ee9b5" d="M 0 0 
L -3.5 0 
" style="stroke: #000000; stroke-width: 0.8"/>
      </defs>
      <g>
       <use xlink:href="#ma21f6ee9b5" x="54" y="243.636923" style="stroke: #000000; stroke-width: 0.8"/>
      </g>
     </g>
     <g id="text_9">
      <!-- −12 -->
      <g transform="translate(25.895312 247.436142)scale(0.1 -0.1)">
       <defs>
        <path id="DejaVuSans-2212" d="M 678 2272 
L 4684 2272 
L 4684 1741 
L 678 1741 
L 678 2272 
z
" transform="scale(0.015625)"/>
       </defs>
       <use xlink:href="#DejaVuSans-2212"/>
       <use xlink:href="#DejaVuSans-31" x="83.789062"/>
       <use xlink:href="#DejaVuSans-32" x="147.412109"/>
      </g>
     </g>
    </g>
    <g id="ytick_2">
     <g id="line2d_17">
      <path d="M 54 210.184615 
L 388.8 210.184615 
" clip-path="url(#p25a65bf5f3)" style="fill: none; stroke-dasharray: 2.96,1.28; stroke-dashoffset: 0; stroke: #b0b0b0; stroke-width: 0.8"/>
     </g>
     <g id="line2d_18">
      <g>
       <use xlink:href="#ma21f6ee9b5" x="54" y="210.184615" style="stroke: #000000; stroke-width: 0.8"/>
      </g>
     </g>
     <g id="text_10">
      <!-- −10 -->
      <g transform="translate(25.895312 213.983834)scale(0.1 -0.1)">
       <use xlink:href="#DejaVuSans-2212"/>
       <use xlink:href="#DejaVuSans-31" x="83.789062"/>
       <use xlink:href="#DejaVuSans-30" x="147.412109"/>
      </g>
     </g>
    </g>
    <g id="ytick_3">
     <g id="line2d_19">
      <path d="M 54 176.732308 
L 388.8 176.732308 
" clip-path="url(#p25a65bf5f3)" style="fill: none; stroke-dasharray: 2.96,1.28; stroke-dashoffset: 0; stroke: #b0b0b0; stroke-width: 0.8"/>
     </g>
     <g id="line2d_20">
      <g>
       <use xlink:href="#ma21f6ee9b5" x="54" y="176.732308" style="stroke: #000000; stroke-width: 0.8"/>
      </g>
     </g>
     <g id="text_11">
      <!-- −8 -->
      <g transform="translate(32.257812 180.531526)scale(0.1 -0.1)">
       <defs>
        <path id="DejaVuSans-38" d="M 2034 2216 
Q 1584 2216 1326 1975 
Q 1069 1734 1069 1313 
Q 1069 891 1326 650 
Q 1584 409 2034 409 
Q 2484 409 2743 651 
Q 3003 894 3003 1313 
Q 3003 1734 2745 1975 
Q 2488 2216 2034 2216 
z
M 1403 2484 
Q 997 2584 770 2862 
Q 544 3141 544 3541 
Q 544 4100 942 4425 
Q 1341 4750 2034 4750 
Q 2731 4750 3128 4425 
Q 3525 4100 3525 3541 
Q 3525 3141 3298 2862 
Q 3072 2584 2669 2484 
Q 3125 2378 3379 2068 
Q 3634 1759 3634 1313 
Q 3634 634 3220 271 
Q 2806 -91 2034 -91 
Q 1263 -91 848 271 
Q 434 634 434 1313 
Q 434 1759 690 2068 
Q 947 2378 1403 2484 
z
M 1172 3481 
Q 1172 3119 1398 2916 
Q 1625 2713 2034 2713 
Q 2441 2713 2670 2916 
Q 2900 3119 2900 3481 
Q 2900 3844 2670 4047 
Q 2441 4250 2034 4250 
Q 1625 4250 1398 4047 
Q 1172 3844 1172 3481 
z
" transform="scale(0.015625)"/>
       </defs>
       <use xlink:href="#DejaVuSans-2212"/>
       <use xlink:href="#DejaVuSans-38" x="83.789062"/>
      </g>
     </g>
    </g>
    <g id="ytick_4">
     <g id="line2d_21">
      <path d="M 54 143.28 
L 388.8 143.28 
" clip-path="url(#p25a65bf5f3)" style="fill: none; stroke-dasharray: 2.96,1.28; stroke-dashoffset: 0; stroke: #b0b0b0; stroke-width: 0.8"/>
     </g>
     <g id="line2d_22">
      <g>
       <use xlink:href="#ma21f6ee9b5" x="54" y="143.28" style="stroke: #000000; stroke-width: 0.8"/>
      </g>
     </g>
     <g id="text_12">
      <!-- −6 -->
      <g transform="translate(32.257812 147.079219)scale(0.1 -0.1)">
       <defs>
        <path id="DejaVuSans-36" d="M 2113 2584 
Q 1688 2584 1439 2293 
Q 1191 2003 1191 1497 
Q 1191 994 1439 701 
Q 1688 409 2113 409 
Q 2538 409 2786 701 
Q 3034 994 3034 1497 
Q 3034 2003 2786 2293 
Q 2538 2584 2113 2584 
z
M 3366 4563 
L 3366 3988 
Q 3128 4100 2886 4159 
Q 2644 4219 2406 4219 
Q 1781 4219 1451 3797 
Q 1122 3375 1075 2522 
Q 1259 2794 1537 2939 
Q 1816 3084 2150 3084 
Q 2853 3084 3261 2657 
Q 3669 2231 3669 1497 
Q 3669 778 3244 343 
Q 2819 -91 2113 -91 
Q 1303 -91 875 529 
Q 447 1150 447 2328 
Q 447 3434 972 4092 
Q 1497 4750 2381 4750 
Q 2619 4750 2861 4703 
Q 3103 4656 3366 4563 
z
" transform="scale(0.015625)"/>
       </defs>
       <use xlink:href="#DejaVuSans-2212"/>
       <use xlink:href="#DejaVuSans-36" x="83.789062"/>
      </g>
     </g>
    </g>
    <g id="ytick_5">
     <g id="line2d_23">
      <path d="M 54 109.827692 
L 388.8 109.827692 
" clip-path="url(#p25a65bf5f3)" style="fill: none; stroke-dasharray: 2.96,1.28; stroke-dashoffset: 0; stroke: #b0b0b0; stroke-width: 0.8"/>
     </g>
     <g id="line2d_24">
      <g>
       <use xlink:href="#ma21f6ee9b5" x="54" y="109.827692" style="stroke: #000000; stroke-width: 0.8"/>
      </g>
     </g>
     <g id="text_13">
      <!-- −4 -->
      <g transform="translate(32.257812 113.626911)scale(0.1 -0.1)">
       <defs>
        <path id="DejaVuSans-34" d="M 2419 4116 
L 825 1625 
L 2419 1625 
L 2419 4116 
z
M 2253 4666 
L 3047 4666 
L 3047 1625 
L 3713 1625 
L 3713 1100 
L 3047 1100 
L 3047 0 
L 2419 0 
L 2419 1100 
L 313 1100 
L 313 1709 
L 2253 4666 
z
" transform="scale(0.015625)"/>
       </defs>
       <use xlink:href="#DejaVuSans-2212"/>
       <use xlink:href="#DejaVuSans-34" x="83.789062"/>
      </g>
     </g>
    </g>
    <g id="ytick_6">
     <g id="line2d_25">
      <path d="M 54 76.375385 
L 388.8 76.375385 
" clip-path="url(#p25a65bf5f3)" style="fill: none; stroke-dasharray: 2.96,1.28; stroke-dashoffset: 0; stroke: #b0b0b0; stroke-width: 0.8"/>
     </g>
     <g id="line2d_26">
      <g>
       <use xlink:href="#ma21f6ee9b5" x="54" y="76.375385" style="stroke: #000000; stroke-width: 0.8"/>
      </g>
     </g>
     <g id="text_14">
      <!-- −2 -->
      <g transform="translate(32.257812 80.174603)scale(0.1 -0.1)">
       <use xlink:href="#DejaVuSans-2212"/>
       <use xlink:href="#DejaVuSans-32" x="83.789062"/>
      </g>
     </g>
    </g>
    <g id="ytick_7">
     <g id="line2d_27">
      <path d="M 54 42.923077 
L 388.8 42.923077 
" clip-path="url(#p25a65bf5f3)" style="fill: none; stroke-dasharray: 2.96,1.28; stroke-dashoffset: 0; stroke: #b0b0b0; stroke-width: 0.8"/>
     </g>
     <g id="line2d_28">
      <g>
       <use xlink:href="#ma21f6ee9b5" x="54" y="42.923077" style="stroke: #000000; stroke-width: 0.8"/>
      </g>
     </g>
     <g id="text_15">
      <!-- 0 -->
      <g transform="translate(40.6375 46.722296)scale(0.1 -0.1)">
       <use xlink:href="#DejaVuSans-30"/>
      </g>
     </g>
    </g>
    <g id="text_16">
     <!-- Policy value error -->
     <g transform="translate(19.815625 186.597969)rotate(-90)scale(0.1 -0.1)">
      <defs>
       <path id="DejaVuSans-50" d="M 1259 4147 
L 1259 2394 
L 2053 2394 
Q 2494 2394 2734 2622 
Q 2975 2850 2975 3272 
Q 2975 3691 2734 3919 
Q 2494 4147 2053 4147 
L 1259 4147 
z
M 628 4666 
L 2053 4666 
Q 2838 4666 3239 4311 
Q 3641 3956 3641 3272 
Q 3641 2581 3239 2228 
Q 2838 1875 2053 1875 
L 1259 1875 
L 1259 0 
L 628 0 
L 628 4666 
z
" transform="scale(0.015625)"/>
       <path id="DejaVuSans-6f" d="M 1959 3097 
Q 1497 3097 1228 2736 
Q 959 2375 959 1747 
Q 959 1119 1226 758 
Q 1494 397 1959 397 
Q 2419 397 2687 759 
Q 2956 1122 2956 1747 
Q 2956 2369 2687 2733 
Q 2419 3097 1959 3097 
z
M 1959 3584 
Q 2709 3584 3137 3096 
Q 3566 2609 3566 1747 
Q 3566 888 3137 398 
Q 2709 -91 1959 -91 
Q 1206 -91 779 398 
Q 353 888 353 1747 
Q 353 2609 779 3096 
Q 1206 3584 1959 3584 
z
" transform="scale(0.015625)"/>
       <path id="DejaVuSans-6c" d="M 603 4863 
L 1178 4863 
L 1178 0 
L 603 0 
L 603 4863 
z
" transform="scale(0.015625)"/>
       <path id="DejaVuSans-69" d="M 603 3500 
L 1178 3500 
L 1178 0 
L 603 0 
L 603 3500 
z
M 603 4863 
L 1178 4863 
L 1178 4134 
L 603 4134 
L 603 4863 
z
" transform="scale(0.015625)"/>
       <path id="DejaVuSans-63" d="M 3122 3366 
L 3122 2828 
Q 2878 2963 2633 3030 
Q 2388 3097 2138 3097 
Q 1578 3097 1268 2742 
Q 959 2388 959 1747 
Q 959 1106 1268 751 
Q 1578 397 2138 397 
Q 2388 397 2633 464 
Q 2878 531 3122 666 
L 3122 134 
Q 2881 22 2623 -34 
Q 2366 -91 2075 -91 
Q 1284 -91 818 406 
Q 353 903 353 1747 
Q 353 2603 823 3093 
Q 1294 3584 2113 3584 
Q 2378 3584 2631 3529 
Q 2884 3475 3122 3366 
z
" transform="scale(0.015625)"/>
       <path id="DejaVuSans-79" d="M 2059 -325 
Q 1816 -950 1584 -1140 
Q 1353 -1331 966 -1331 
L 506 -1331 
L 506 -850 
L 844 -850 
Q 1081 -850 1212 -737 
Q 1344 -625 1503 -206 
L 1606 56 
L 191 3500 
L 800 3500 
L 1894 763 
L 2988 3500 
L 3597 3500 
L 2059 -325 
z
" transform="scale(0.015625)"/>
       <path id="DejaVuSans-20" transform="scale(0.015625)"/>
       <path id="DejaVuSans-76" d="M 191 3500 
L 800 3500 
L 1894 563 
L 2988 3500 
L 3597 3500 
L 2284 0 
L 1503 0 
L 191 3500 
z
" transform="scale(0.015625)"/>
       <path id="DejaVuSans-61" d="M 2194 1759 
Q 1497 1759 1228 1600 
Q 959 1441 959 1056 
Q 959 750 1161 570 
Q 1363 391 1709 391 
Q 2188 391 2477 730 
Q 2766 1069 2766 1631 
L 2766 1759 
L 2194 1759 
z
M 3341 1997 
L 3341 0 
L 2766 0 
L 2766 531 
Q 2569 213 2275 61 
Q 1981 -91 1556 -91 
Q 1019 -91 701 211 
Q 384 513 384 1019 
Q 384 1609 779 1909 
Q 1175 2209 1959 2209 
L 2766 2209 
L 2766 2266 
Q 2766 2663 2505 2880 
Q 2244 3097 1772 3097 
Q 1472 3097 1187 3025 
Q 903 2953 641 2809 
L 641 3341 
Q 956 3463 1253 3523 
Q 1550 3584 1831 3584 
Q 2591 3584 2966 3190 
Q 3341 2797 3341 1997 
z
" transform="scale(0.015625)"/>
       <path id="DejaVuSans-75" d="M 544 1381 
L 544 3500 
L 1119 3500 
L 1119 1403 
Q 1119 906 1312 657 
Q 1506 409 1894 409 
Q 2359 409 2629 706 
Q 2900 1003 2900 1516 
L 2900 3500 
L 3475 3500 
L 3475 0 
L 2900 0 
L 2900 538 
Q 2691 219 2414 64 
Q 2138 -91 1772 -91 
Q 1169 -91 856 284 
Q 544 659 544 1381 
z
M 1991 3584 
L 1991 3584 
z
" transform="scale(0.015625)"/>
       <path id="DejaVuSans-72" d="M 2631 2963 
Q 2534 3019 2420 3045 
Q 2306 3072 2169 3072 
Q 1681 3072 1420 2755 
Q 1159 2438 1159 1844 
L 1159 0 
L 581 0 
L 581 3500 
L 1159 3500 
L 1159 2956 
Q 1341 3275 1631 3429 
Q 1922 3584 2338 3584 
Q 2397 3584 2469 3576 
Q 2541 3569 2628 3553 
L 2631 2963 
z
" transform="scale(0.015625)"/>
      </defs>
      <use xlink:href="#DejaVuSans-50"/>
      <use xlink:href="#DejaVuSans-6f" x="56.677734"/>
      <use xlink:href="#DejaVuSans-6c" x="117.859375"/>
      <use xlink:href="#DejaVuSans-69" x="145.642578"/>
      <use xlink:href="#DejaVuSans-63" x="173.425781"/>
      <use xlink:href="#DejaVuSans-79" x="228.40625"/>
      <use xlink:href="#DejaVuSans-20" x="287.585938"/>
      <use xlink:href="#DejaVuSans-76" x="319.373047"/>
      <use xlink:href="#DejaVuSans-61" x="378.552734"/>
      <use xlink:href="#DejaVuSans-6c" x="439.832031"/>
      <use xlink:href="#DejaVuSans-75" x="467.615234"/>
      <use xlink:href="#DejaVuSans-65" x="530.994141"/>
      <use xlink:href="#DejaVuSans-20" x="592.517578"/>
      <use xlink:href="#DejaVuSans-65" x="624.304688"/>
      <use xlink:href="#DejaVuSans-72" x="685.828125"/>
      <use xlink:href="#DejaVuSans-72" x="725.191406"/>
      <use xlink:href="#DejaVuSans-6f" x="764.054688"/>
      <use xlink:href="#DejaVuSans-72" x="825.236328"/>
     </g>
    </g>
   </g>
   <g id="line2d_29">
    <path d="M 69.218182 250.446395 
L 74.376888 232.069445 
L 79.535593 139.947785 
L 84.694299 93.022101 
L 89.853005 87.528897 
L 95.01171 72.69768 
L 100.170416 86.927658 
L 105.329122 91.682263 
L 110.487827 100.343853 
L 115.646533 84.446761 
L 120.805239 89.927435 
L 125.963945 84.970212 
L 131.12265 74.59598 
L 136.281356 101.526328 
L 141.440062 91.980823 
L 146.598767 70.047022 
L 151.757473 69.673523 
L 156.916179 69.67353 
L 162.074884 69.673523 
L 167.23359 69.673523 
L 172.392296 69.673523 
L 177.551002 69.673523 
L 182.709707 69.673523 
L 187.868413 70.239755 
L 193.027119 70.239774 
L 198.185824 92.94339 
L 203.34453 92.94339 
L 208.503236 70.239774 
L 213.661941 70.239755 
L 218.820647 70.239774 
L 223.979353 70.239755 
L 229.138059 70.239755 
L 234.296764 70.239774 
L 239.45547 70.239774 
L 244.614176 70.239774 
L 249.772881 70.239774 
L 254.931587 70.239774 
L 260.090293 70.239755 
L 265.248998 69.673523 
L 270.407704 69.673523 
L 275.56641 69.67353 
L 280.725116 69.67353 
L 285.883821 67.583722 
L 291.042527 67.583722 
L 296.201233 67.583722 
L 301.359938 67.583725 
L 306.518644 67.583722 
L 311.67735 67.583725 
L 316.836055 67.583725 
L 321.994761 67.583722 
L 327.153467 67.583725 
L 332.312173 67.583722 
L 337.470878 67.583722 
L 342.629584 67.583725 
L 347.78829 67.583722 
L 352.946995 67.583725 
L 358.105701 67.583722 
L 363.264407 67.583725 
L 368.423112 67.583722 
L 373.581818 67.583725 
" clip-path="url(#p25a65bf5f3)" style="fill: none; stroke: #9d02d7; stroke-width: 1.5; stroke-linecap: square"/>
    <defs>
     <path id="m767bd83daa" d="M 0 -2 
L -2 2 
L 2 2 
z
" style="stroke: #9d02d7; stroke-linejoin: miter"/>
    </defs>
    <g clip-path="url(#p25a65bf5f3)">
     <use xlink:href="#m767bd83daa" x="69.218182" y="250.446395" style="fill: #9d02d7; stroke: #9d02d7; stroke-linejoin: miter"/>
     <use xlink:href="#m767bd83daa" x="74.376888" y="232.069445" style="fill: #9d02d7; stroke: #9d02d7; stroke-linejoin: miter"/>
     <use xlink:href="#m767bd83daa" x="79.535593" y="139.947785" style="fill: #9d02d7; stroke: #9d02d7; stroke-linejoin: miter"/>
     <use xlink:href="#m767bd83daa" x="84.694299" y="93.022101" style="fill: #9d02d7; stroke: #9d02d7; stroke-linejoin: miter"/>
     <use xlink:href="#m767bd83daa" x="89.853005" y="87.528897" style="fill: #9d02d7; stroke: #9d02d7; stroke-linejoin: miter"/>
     <use xlink:href="#m767bd83daa" x="95.01171" y="72.69768" style="fill: #9d02d7; stroke: #9d02d7; stroke-linejoin: miter"/>
     <use xlink:href="#m767bd83daa" x="100.170416" y="86.927658" style="fill: #9d02d7; stroke: #9d02d7; stroke-linejoin: miter"/>
     <use xlink:href="#m767bd83daa" x="105.329122" y="91.682263" style="fill: #9d02d7; stroke: #9d02d7; stroke-linejoin: miter"/>
     <use xlink:href="#m767bd83daa" x="110.487827" y="100.343853" style="fill: #9d02d7; stroke: #9d02d7; stroke-linejoin: miter"/>
     <use xlink:href="#m767bd83daa" x="115.646533" y="84.446761" style="fill: #9d02d7; stroke: #9d02d7; stroke-linejoin: miter"/>
     <use xlink:href="#m767bd83daa" x="120.805239" y="89.927435" style="fill: #9d02d7; stroke: #9d02d7; stroke-linejoin: miter"/>
     <use xlink:href="#m767bd83daa" x="125.963945" y="84.970212" style="fill: #9d02d7; stroke: #9d02d7; stroke-linejoin: miter"/>
     <use xlink:href="#m767bd83daa" x="131.12265" y="74.59598" style="fill: #9d02d7; stroke: #9d02d7; stroke-linejoin: miter"/>
     <use xlink:href="#m767bd83daa" x="136.281356" y="101.526328" style="fill: #9d02d7; stroke: #9d02d7; stroke-linejoin: miter"/>
     <use xlink:href="#m767bd83daa" x="141.440062" y="91.980823" style="fill: #9d02d7; stroke: #9d02d7; stroke-linejoin: miter"/>
     <use xlink:href="#m767bd83daa" x="146.598767" y="70.047022" style="fill: #9d02d7; stroke: #9d02d7; stroke-linejoin: miter"/>
     <use xlink:href="#m767bd83daa" x="151.757473" y="69.673523" style="fill: #9d02d7; stroke: #9d02d7; stroke-linejoin: miter"/>
     <use xlink:href="#m767bd83daa" x="156.916179" y="69.67353" style="fill: #9d02d7; stroke: #9d02d7; stroke-linejoin: miter"/>
     <use xlink:href="#m767bd83daa" x="162.074884" y="69.673523" style="fill: #9d02d7; stroke: #9d02d7; stroke-linejoin: miter"/>
     <use xlink:href="#m767bd83daa" x="167.23359" y="69.673523" style="fill: #9d02d7; stroke: #9d02d7; stroke-linejoin: miter"/>
     <use xlink:href="#m767bd83daa" x="172.392296" y="69.673523" style="fill: #9d02d7; stroke: #9d02d7; stroke-linejoin: miter"/>
     <use xlink:href="#m767bd83daa" x="177.551002" y="69.673523" style="fill: #9d02d7; stroke: #9d02d7; stroke-linejoin: miter"/>
     <use xlink:href="#m767bd83daa" x="182.709707" y="69.673523" style="fill: #9d02d7; stroke: #9d02d7; stroke-linejoin: miter"/>
     <use xlink:href="#m767bd83daa" x="187.868413" y="70.239755" style="fill: #9d02d7; stroke: #9d02d7; stroke-linejoin: miter"/>
     <use xlink:href="#m767bd83daa" x="193.027119" y="70.239774" style="fill: #9d02d7; stroke: #9d02d7; stroke-linejoin: miter"/>
     <use xlink:href="#m767bd83daa" x="198.185824" y="92.94339" style="fill: #9d02d7; stroke: #9d02d7; stroke-linejoin: miter"/>
     <use xlink:href="#m767bd83daa" x="203.34453" y="92.94339" style="fill: #9d02d7; stroke: #9d02d7; stroke-linejoin: miter"/>
     <use xlink:href="#m767bd83daa" x="208.503236" y="70.239774" style="fill: #9d02d7; stroke: #9d02d7; stroke-linejoin: miter"/>
     <use xlink:href="#m767bd83daa" x="213.661941" y="70.239755" style="fill: #9d02d7; stroke: #9d02d7; stroke-linejoin: miter"/>
     <use xlink:href="#m767bd83daa" x="218.820647" y="70.239774" style="fill: #9d02d7; stroke: #9d02d7; stroke-linejoin: miter"/>
     <use xlink:href="#m767bd83daa" x="223.979353" y="70.239755" style="fill: #9d02d7; stroke: #9d02d7; stroke-linejoin: miter"/>
     <use xlink:href="#m767bd83daa" x="229.138059" y="70.239755" style="fill: #9d02d7; stroke: #9d02d7; stroke-linejoin: miter"/>
     <use xlink:href="#m767bd83daa" x="234.296764" y="70.239774" style="fill: #9d02d7; stroke: #9d02d7; stroke-linejoin: miter"/>
     <use xlink:href="#m767bd83daa" x="239.45547" y="70.239774" style="fill: #9d02d7; stroke: #9d02d7; stroke-linejoin: miter"/>
     <use xlink:href="#m767bd83daa" x="244.614176" y="70.239774" style="fill: #9d02d7; stroke: #9d02d7; stroke-linejoin: miter"/>
     <use xlink:href="#m767bd83daa" x="249.772881" y="70.239774" style="fill: #9d02d7; stroke: #9d02d7; stroke-linejoin: miter"/>
     <use xlink:href="#m767bd83daa" x="254.931587" y="70.239774" style="fill: #9d02d7; stroke: #9d02d7; stroke-linejoin: miter"/>
     <use xlink:href="#m767bd83daa" x="260.090293" y="70.239755" style="fill: #9d02d7; stroke: #9d02d7; stroke-linejoin: miter"/>
     <use xlink:href="#m767bd83daa" x="265.248998" y="69.673523" style="fill: #9d02d7; stroke: #9d02d7; stroke-linejoin: miter"/>
     <use xlink:href="#m767bd83daa" x="270.407704" y="69.673523" style="fill: #9d02d7; stroke: #9d02d7; stroke-linejoin: miter"/>
     <use xlink:href="#m767bd83daa" x="275.56641" y="69.67353" style="fill: #9d02d7; stroke: #9d02d7; stroke-linejoin: miter"/>
     <use xlink:href="#m767bd83daa" x="280.725116" y="69.67353" style="fill: #9d02d7; stroke: #9d02d7; stroke-linejoin: miter"/>
     <use xlink:href="#m767bd83daa" x="285.883821" y="67.583722" style="fill: #9d02d7; stroke: #9d02d7; stroke-linejoin: miter"/>
     <use xlink:href="#m767bd83daa" x="291.042527" y="67.583722" style="fill: #9d02d7; stroke: #9d02d7; stroke-linejoin: miter"/>
     <use xlink:href="#m767bd83daa" x="296.201233" y="67.583722" style="fill: #9d02d7; stroke: #9d02d7; stroke-linejoin: miter"/>
     <use xlink:href="#m767bd83daa" x="301.359938" y="67.583725" style="fill: #9d02d7; stroke: #9d02d7; stroke-linejoin: miter"/>
     <use xlink:href="#m767bd83daa" x="306.518644" y="67.583722" style="fill: #9d02d7; stroke: #9d02d7; stroke-linejoin: miter"/>
     <use xlink:href="#m767bd83daa" x="311.67735" y="67.583725" style="fill: #9d02d7; stroke: #9d02d7; stroke-linejoin: miter"/>
     <use xlink:href="#m767bd83daa" x="316.836055" y="67.583725" style="fill: #9d02d7; stroke: #9d02d7; stroke-linejoin: miter"/>
     <use xlink:href="#m767bd83daa" x="321.994761" y="67.583722" style="fill: #9d02d7; stroke: #9d02d7; stroke-linejoin: miter"/>
     <use xlink:href="#m767bd83daa" x="327.153467" y="67.583725" style="fill: #9d02d7; stroke: #9d02d7; stroke-linejoin: miter"/>
     <use xlink:href="#m767bd83daa" x="332.312173" y="67.583722" style="fill: #9d02d7; stroke: #9d02d7; stroke-linejoin: miter"/>
     <use xlink:href="#m767bd83daa" x="337.470878" y="67.583722" style="fill: #9d02d7; stroke: #9d02d7; stroke-linejoin: miter"/>
     <use xlink:href="#m767bd83daa" x="342.629584" y="67.583725" style="fill: #9d02d7; stroke: #9d02d7; stroke-linejoin: miter"/>
     <use xlink:href="#m767bd83daa" x="347.78829" y="67.583722" style="fill: #9d02d7; stroke: #9d02d7; stroke-linejoin: miter"/>
     <use xlink:href="#m767bd83daa" x="352.946995" y="67.583725" style="fill: #9d02d7; stroke: #9d02d7; stroke-linejoin: miter"/>
     <use xlink:href="#m767bd83daa" x="358.105701" y="67.583722" style="fill: #9d02d7; stroke: #9d02d7; stroke-linejoin: miter"/>
     <use xlink:href="#m767bd83daa" x="363.264407" y="67.583725" style="fill: #9d02d7; stroke: #9d02d7; stroke-linejoin: miter"/>
     <use xlink:href="#m767bd83daa" x="368.423112" y="67.583722" style="fill: #9d02d7; stroke: #9d02d7; stroke-linejoin: miter"/>
     <use xlink:href="#m767bd83daa" x="373.581818" y="67.583725" style="fill: #9d02d7; stroke: #9d02d7; stroke-linejoin: miter"/>
    </g>
   </g>
   <g id="line2d_30">
    <path d="M 69.218182 252.908818 
L 74.376888 252.908818 
L 79.535593 218.535838 
L 84.694299 53.64015 
L 89.853005 59.246519 
L 95.01171 63.602617 
L 100.170416 80.615843 
L 105.329122 61.906704 
L 110.487827 55.94916 
L 115.646533 64.19434 
L 120.805239 65.09788 
L 125.963945 53.433371 
L 131.12265 62.109066 
L 136.281356 62.117935 
L 141.440062 62.593521 
L 146.598767 75.423806 
L 151.757473 63.271722 
L 156.916179 87.652275 
L 162.074884 115.588853 
L 167.23359 104.028604 
L 172.392296 60.830026 
L 177.551002 51.976336 
L 182.709707 147.042739 
L 187.868413 253.998638 
L 193.027119 115.307738 
L 198.185824 225.136461 
L 203.34453 242.65441 
L 208.503236 248.79895 
L 213.661941 107.772417 
L 218.820647 82.017477 
L 223.979353 206.323005 
L 229.138059 228.044777 
L 234.296764 242.426889 
L 239.45547 107.085639 
L 244.614176 225.136355 
L 249.772881 250.190002 
L 254.931587 250.225269 
L 260.090293 107.029136 
L 265.248998 47.807153 
L 270.407704 55.49851 
L 275.56641 52.542465 
L 280.725116 52.255611 
L 285.883821 52.10339 
L 291.042527 52.05324 
L 296.201233 71.732294 
L 301.359938 53.377732 
L 306.518644 49.152334 
L 311.67735 46.049213 
L 316.836055 53.188482 
L 321.994761 46.040134 
L 327.153467 45.822409 
L 332.312173 49.044052 
L 337.470878 53.289869 
L 342.629584 46.048485 
L 347.78829 55.497945 
L 352.946995 53.486949 
L 358.105701 71.596705 
L 363.264407 72.36835 
L 368.423112 52.234766 
L 373.581818 72.39175 
" clip-path="url(#p25a65bf5f3)" style="fill: none; stroke: #0000ff; stroke-width: 1.5; stroke-linecap: square"/>
    <defs>
     <path id="mc3ae664b70" d="M 0 2 
C 0.530406 2 1.03916 1.789267 1.414214 1.414214 
C 1.789267 1.03916 2 0.530406 2 0 
C 2 -0.530406 1.789267 -1.03916 1.414214 -1.414214 
C 1.03916 -1.789267 0.530406 -2 0 -2 
C -0.530406 -2 -1.03916 -1.789267 -1.414214 -1.414214 
C -1.789267 -1.03916 -2 -0.530406 -2 0 
C -2 0.530406 -1.789267 1.03916 -1.414214 1.414214 
C -1.03916 1.789267 -0.530406 2 0 2 
z
" style="stroke: #0000ff"/>
    </defs>
    <g clip-path="url(#p25a65bf5f3)">
     <use xlink:href="#mc3ae664b70" x="69.218182" y="252.908818" style="fill: #0000ff; stroke: #0000ff"/>
     <use xlink:href="#mc3ae664b70" x="74.376888" y="252.908818" style="fill: #0000ff; stroke: #0000ff"/>
     <use xlink:href="#mc3ae664b70" x="79.535593" y="218.535838" style="fill: #0000ff; stroke: #0000ff"/>
     <use xlink:href="#mc3ae664b70" x="84.694299" y="53.64015" style="fill: #0000ff; stroke: #0000ff"/>
     <use xlink:href="#mc3ae664b70" x="89.853005" y="59.246519" style="fill: #0000ff; stroke: #0000ff"/>
     <use xlink:href="#mc3ae664b70" x="95.01171" y="63.602617" style="fill: #0000ff; stroke: #0000ff"/>
     <use xlink:href="#mc3ae664b70" x="100.170416" y="80.615843" style="fill: #0000ff; stroke: #0000ff"/>
     <use xlink:href="#mc3ae664b70" x="105.329122" y="61.906704" style="fill: #0000ff; stroke: #0000ff"/>
     <use xlink:href="#mc3ae664b70" x="110.487827" y="55.94916" style="fill: #0000ff; stroke: #0000ff"/>
     <use xlink:href="#mc3ae664b70" x="115.646533" y="64.19434" style="fill: #0000ff; stroke: #0000ff"/>
     <use xlink:href="#mc3ae664b70" x="120.805239" y="65.09788" style="fill: #0000ff; stroke: #0000ff"/>
     <use xlink:href="#mc3ae664b70" x="125.963945" y="53.433371" style="fill: #0000ff; stroke: #0000ff"/>
     <use xlink:href="#mc3ae664b70" x="131.12265" y="62.109066" style="fill: #0000ff; stroke: #0000ff"/>
     <use xlink:href="#mc3ae664b70" x="136.281356" y="62.117935" style="fill: #0000ff; stroke: #0000ff"/>
     <use xlink:href="#mc3ae664b70" x="141.440062" y="62.593521" style="fill: #0000ff; stroke: #0000ff"/>
     <use xlink:href="#mc3ae664b70" x="146.598767" y="75.423806" style="fill: #0000ff; stroke: #0000ff"/>
     <use xlink:href="#mc3ae664b70" x="151.757473" y="63.271722" style="fill: #0000ff; stroke: #0000ff"/>
     <use xlink:href="#mc3ae664b70" x="156.916179" y="87.652275" style="fill: #0000ff; stroke: #0000ff"/>
     <use xlink:href="#mc3ae664b70" x="162.074884" y="115.588853" style="fill: #0000ff; stroke: #0000ff"/>
     <use xlink:href="#mc3ae664b70" x="167.23359" y="104.028604" style="fill: #0000ff; stroke: #0000ff"/>
     <use xlink:href="#mc3ae664b70" x="172.392296" y="60.830026" style="fill: #0000ff; stroke: #0000ff"/>
     <use xlink:href="#mc3ae664b70" x="177.551002" y="51.976336" style="fill: #0000ff; stroke: #0000ff"/>
     <use xlink:href="#mc3ae664b70" x="182.709707" y="147.042739" style="fill: #0000ff; stroke: #0000ff"/>
     <use xlink:href="#mc3ae664b70" x="187.868413" y="253.998638" style="fill: #0000ff; stroke: #0000ff"/>
     <use xlink:href="#mc3ae664b70" x="193.027119" y="115.307738" style="fill: #0000ff; stroke: #0000ff"/>
     <use xlink:href="#mc3ae664b70" x="198.185824" y="225.136461" style="fill: #0000ff; stroke: #0000ff"/>
     <use xlink:href="#mc3ae664b70" x="203.34453" y="242.65441" style="fill: #0000ff; stroke: #0000ff"/>
     <use xlink:href="#mc3ae664b70" x="208.503236" y="248.79895" style="fill: #0000ff; stroke: #0000ff"/>
     <use xlink:href="#mc3ae664b70" x="213.661941" y="107.772417" style="fill: #0000ff; stroke: #0000ff"/>
     <use xlink:href="#mc3ae664b70" x="218.820647" y="82.017477" style="fill: #0000ff; stroke: #0000ff"/>
     <use xlink:href="#mc3ae664b70" x="223.979353" y="206.323005" style="fill: #0000ff; stroke: #0000ff"/>
     <use xlink:href="#mc3ae664b70" x="229.138059" y="228.044777" style="fill: #0000ff; stroke: #0000ff"/>
     <use xlink:href="#mc3ae664b70" x="234.296764" y="242.426889" style="fill: #0000ff; stroke: #0000ff"/>
     <use xlink:href="#mc3ae664b70" x="239.45547" y="107.085639" style="fill: #0000ff; stroke: #0000ff"/>
     <use xlink:href="#mc3ae664b70" x="244.614176" y="225.136355" style="fill: #0000ff; stroke: #0000ff"/>
     <use xlink:href="#mc3ae664b70" x="249.772881" y="250.190002" style="fill: #0000ff; stroke: #0000ff"/>
     <use xlink:href="#mc3ae664b70" x="254.931587" y="250.225269" style="fill: #0000ff; stroke: #0000ff"/>
     <use xlink:href="#mc3ae664b70" x="260.090293" y="107.029136" style="fill: #0000ff; stroke: #0000ff"/>
     <use xlink:href="#mc3ae664b70" x="265.248998" y="47.807153" style="fill: #0000ff; stroke: #0000ff"/>
     <use xlink:href="#mc3ae664b70" x="270.407704" y="55.49851" style="fill: #0000ff; stroke: #0000ff"/>
     <use xlink:href="#mc3ae664b70" x="275.56641" y="52.542465" style="fill: #0000ff; stroke: #0000ff"/>
     <use xlink:href="#mc3ae664b70" x="280.725116" y="52.255611" style="fill: #0000ff; stroke: #0000ff"/>
     <use xlink:href="#mc3ae664b70" x="285.883821" y="52.10339" style="fill: #0000ff; stroke: #0000ff"/>
     <use xlink:href="#mc3ae664b70" x="291.042527" y="52.05324" style="fill: #0000ff; stroke: #0000ff"/>
     <use xlink:href="#mc3ae664b70" x="296.201233" y="71.732294" style="fill: #0000ff; stroke: #0000ff"/>
     <use xlink:href="#mc3ae664b70" x="301.359938" y="53.377732" style="fill: #0000ff; stroke: #0000ff"/>
     <use xlink:href="#mc3ae664b70" x="306.518644" y="49.152334" style="fill: #0000ff; stroke: #0000ff"/>
     <use xlink:href="#mc3ae664b70" x="311.67735" y="46.049213" style="fill: #0000ff; stroke: #0000ff"/>
     <use xlink:href="#mc3ae664b70" x="316.836055" y="53.188482" style="fill: #0000ff; stroke: #0000ff"/>
     <use xlink:href="#mc3ae664b70" x="321.994761" y="46.040134" style="fill: #0000ff; stroke: #0000ff"/>
     <use xlink:href="#mc3ae664b70" x="327.153467" y="45.822409" style="fill: #0000ff; stroke: #0000ff"/>
     <use xlink:href="#mc3ae664b70" x="332.312173" y="49.044052" style="fill: #0000ff; stroke: #0000ff"/>
     <use xlink:href="#mc3ae664b70" x="337.470878" y="53.289869" style="fill: #0000ff; stroke: #0000ff"/>
     <use xlink:href="#mc3ae664b70" x="342.629584" y="46.048485" style="fill: #0000ff; stroke: #0000ff"/>
     <use xlink:href="#mc3ae664b70" x="347.78829" y="55.497945" style="fill: #0000ff; stroke: #0000ff"/>
     <use xlink:href="#mc3ae664b70" x="352.946995" y="53.486949" style="fill: #0000ff; stroke: #0000ff"/>
     <use xlink:href="#mc3ae664b70" x="358.105701" y="71.596705" style="fill: #0000ff; stroke: #0000ff"/>
     <use xlink:href="#mc3ae664b70" x="363.264407" y="72.36835" style="fill: #0000ff; stroke: #0000ff"/>
     <use xlink:href="#mc3ae664b70" x="368.423112" y="52.234766" style="fill: #0000ff; stroke: #0000ff"/>
     <use xlink:href="#mc3ae664b70" x="373.581818" y="72.39175" style="fill: #0000ff; stroke: #0000ff"/>
    </g>
   </g>
   <g id="line2d_31">
    <path d="M 69.218182 252.908818 
L 74.376888 252.989916 
L 79.535593 261.141829 
L 84.694299 194.068718 
L 89.853005 137.347204 
L 95.01171 160.707785 
L 100.170416 168.25404 
L 105.329122 167.280881 
L 110.487827 167.635439 
L 115.646533 149.284502 
L 120.805239 149.284502 
L 125.963945 149.284502 
L 131.12265 149.284502 
L 136.281356 149.284502 
L 141.440062 139.494222 
L 146.598767 139.494222 
L 151.757473 149.281711 
L 156.916179 135.116488 
L 162.074884 135.116488 
L 167.23359 198.314563 
L 172.392296 128.29993 
L 177.551002 128.29993 
L 182.709707 128.29993 
L 187.868413 128.29993 
L 193.027119 128.29993 
L 198.185824 128.29993 
L 203.34453 128.29993 
L 208.503236 128.29993 
L 213.661941 128.299268 
L 218.820647 128.29993 
L 223.979353 128.299268 
L 229.138059 132.978967 
L 234.296764 132.978036 
L 239.45547 132.978036 
L 244.614176 132.978036 
L 249.772881 132.978036 
L 254.931587 132.978036 
L 260.090293 126.398186 
L 265.248998 126.398186 
L 270.407704 126.398186 
L 275.56641 126.398186 
L 280.725116 126.398186 
L 285.883821 126.398186 
L 291.042527 126.398186 
L 296.201233 126.398186 
L 301.359938 126.398186 
L 306.518644 126.398186 
L 311.67735 126.398186 
L 316.836055 60.251488 
L 321.994761 60.251488 
L 327.153467 60.251488 
L 332.312173 60.251488 
L 337.470878 60.251488 
L 342.629584 60.251488 
L 347.78829 60.251488 
L 352.946995 60.251488 
L 358.105701 60.251488 
L 363.264407 60.251488 
L 368.423112 60.251488 
L 373.581818 60.251488 
" clip-path="url(#p25a65bf5f3)" style="fill: none; stroke: #ff7763; stroke-width: 1.5; stroke-linecap: square"/>
    <defs>
     <path id="md79d1e3b9d" d="M -2 2 
L 2 -2 
M -2 -2 
L 2 2 
" style="stroke: #ff7763"/>
    </defs>
    <g clip-path="url(#p25a65bf5f3)">
     <use xlink:href="#md79d1e3b9d" x="69.218182" y="252.908818" style="fill: #ff7763; stroke: #ff7763"/>
     <use xlink:href="#md79d1e3b9d" x="74.376888" y="252.989916" style="fill: #ff7763; stroke: #ff7763"/>
     <use xlink:href="#md79d1e3b9d" x="79.535593" y="261.141829" style="fill: #ff7763; stroke: #ff7763"/>
     <use xlink:href="#md79d1e3b9d" x="84.694299" y="194.068718" style="fill: #ff7763; stroke: #ff7763"/>
     <use xlink:href="#md79d1e3b9d" x="89.853005" y="137.347204" style="fill: #ff7763; stroke: #ff7763"/>
     <use xlink:href="#md79d1e3b9d" x="95.01171" y="160.707785" style="fill: #ff7763; stroke: #ff7763"/>
     <use xlink:href="#md79d1e3b9d" x="100.170416" y="168.25404" style="fill: #ff7763; stroke: #ff7763"/>
     <use xlink:href="#md79d1e3b9d" x="105.329122" y="167.280881" style="fill: #ff7763; stroke: #ff7763"/>
     <use xlink:href="#md79d1e3b9d" x="110.487827" y="167.635439" style="fill: #ff7763; stroke: #ff7763"/>
     <use xlink:href="#md79d1e3b9d" x="115.646533" y="149.284502" style="fill: #ff7763; stroke: #ff7763"/>
     <use xlink:href="#md79d1e3b9d" x="120.805239" y="149.284502" style="fill: #ff7763; stroke: #ff7763"/>
     <use xlink:href="#md79d1e3b9d" x="125.963945" y="149.284502" style="fill: #ff7763; stroke: #ff7763"/>
     <use xlink:href="#md79d1e3b9d" x="131.12265" y="149.284502" style="fill: #ff7763; stroke: #ff7763"/>
     <use xlink:href="#md79d1e3b9d" x="136.281356" y="149.284502" style="fill: #ff7763; stroke: #ff7763"/>
     <use xlink:href="#md79d1e3b9d" x="141.440062" y="139.494222" style="fill: #ff7763; stroke: #ff7763"/>
     <use xlink:href="#md79d1e3b9d" x="146.598767" y="139.494222" style="fill: #ff7763; stroke: #ff7763"/>
     <use xlink:href="#md79d1e3b9d" x="151.757473" y="149.281711" style="fill: #ff7763; stroke: #ff7763"/>
     <use xlink:href="#md79d1e3b9d" x="156.916179" y="135.116488" style="fill: #ff7763; stroke: #ff7763"/>
     <use xlink:href="#md79d1e3b9d" x="162.074884" y="135.116488" style="fill: #ff7763; stroke: #ff7763"/>
     <use xlink:href="#md79d1e3b9d" x="167.23359" y="198.314563" style="fill: #ff7763; stroke: #ff7763"/>
     <use xlink:href="#md79d1e3b9d" x="172.392296" y="128.29993" style="fill: #ff7763; stroke: #ff7763"/>
     <use xlink:href="#md79d1e3b9d" x="177.551002" y="128.29993" style="fill: #ff7763; stroke: #ff7763"/>
     <use xlink:href="#md79d1e3b9d" x="182.709707" y="128.29993" style="fill: #ff7763; stroke: #ff7763"/>
     <use xlink:href="#md79d1e3b9d" x="187.868413" y="128.29993" style="fill: #ff7763; stroke: #ff7763"/>
     <use xlink:href="#md79d1e3b9d" x="193.027119" y="128.29993" style="fill: #ff7763; stroke: #ff7763"/>
     <use xlink:href="#md79d1e3b9d" x="198.185824" y="128.29993" style="fill: #ff7763; stroke: #ff7763"/>
     <use xlink:href="#md79d1e3b9d" x="203.34453" y="128.29993" style="fill: #ff7763; stroke: #ff7763"/>
     <use xlink:href="#md79d1e3b9d" x="208.503236" y="128.29993" style="fill: #ff7763; stroke: #ff7763"/>
     <use xlink:href="#md79d1e3b9d" x="213.661941" y="128.299268" style="fill: #ff7763; stroke: #ff7763"/>
     <use xlink:href="#md79d1e3b9d" x="218.820647" y="128.29993" style="fill: #ff7763; stroke: #ff7763"/>
     <use xlink:href="#md79d1e3b9d" x="223.979353" y="128.299268" style="fill: #ff7763; stroke: #ff7763"/>
     <use xlink:href="#md79d1e3b9d" x="229.138059" y="132.978967" style="fill: #ff7763; stroke: #ff7763"/>
     <use xlink:href="#md79d1e3b9d" x="234.296764" y="132.978036" style="fill: #ff7763; stroke: #ff7763"/>
     <use xlink:href="#md79d1e3b9d" x="239.45547" y="132.978036" style="fill: #ff7763; stroke: #ff7763"/>
     <use xlink:href="#md79d1e3b9d" x="244.614176" y="132.978036" style="fill: #ff7763; stroke: #ff7763"/>
     <use xlink:href="#md79d1e3b9d" x="249.772881" y="132.978036" style="fill: #ff7763; stroke: #ff7763"/>
     <use xlink:href="#md79d1e3b9d" x="254.931587" y="132.978036" style="fill: #ff7763; stroke: #ff7763"/>
     <use xlink:href="#md79d1e3b9d" x="260.090293" y="126.398186" style="fill: #ff7763; stroke: #ff7763"/>
     <use xlink:href="#md79d1e3b9d" x="265.248998" y="126.398186" style="fill: #ff7763; stroke: #ff7763"/>
     <use xlink:href="#md79d1e3b9d" x="270.407704" y="126.398186" style="fill: #ff7763; stroke: #ff7763"/>
     <use xlink:href="#md79d1e3b9d" x="275.56641" y="126.398186" style="fill: #ff7763; stroke: #ff7763"/>
     <use xlink:href="#md79d1e3b9d" x="280.725116" y="126.398186" style="fill: #ff7763; stroke: #ff7763"/>
     <use xlink:href="#md79d1e3b9d" x="285.883821" y="126.398186" style="fill: #ff7763; stroke: #ff7763"/>
     <use xlink:href="#md79d1e3b9d" x="291.042527" y="126.398186" style="fill: #ff7763; stroke: #ff7763"/>
     <use xlink:href="#md79d1e3b9d" x="296.201233" y="126.398186" style="fill: #ff7763; stroke: #ff7763"/>
     <use xlink:href="#md79d1e3b9d" x="301.359938" y="126.398186" style="fill: #ff7763; stroke: #ff7763"/>
     <use xlink:href="#md79d1e3b9d" x="306.518644" y="126.398186" style="fill: #ff7763; stroke: #ff7763"/>
     <use xlink:href="#md79d1e3b9d" x="311.67735" y="126.398186" style="fill: #ff7763; stroke: #ff7763"/>
     <use xlink:href="#md79d1e3b9d" x="316.836055" y="60.251488" style="fill: #ff7763; stroke: #ff7763"/>
     <use xlink:href="#md79d1e3b9d" x="321.994761" y="60.251488" style="fill: #ff7763; stroke: #ff7763"/>
     <use xlink:href="#md79d1e3b9d" x="327.153467" y="60.251488" style="fill: #ff7763; stroke: #ff7763"/>
     <use xlink:href="#md79d1e3b9d" x="332.312173" y="60.251488" style="fill: #ff7763; stroke: #ff7763"/>
     <use xlink:href="#md79d1e3b9d" x="337.470878" y="60.251488" style="fill: #ff7763; stroke: #ff7763"/>
     <use xlink:href="#md79d1e3b9d" x="342.629584" y="60.251488" style="fill: #ff7763; stroke: #ff7763"/>
     <use xlink:href="#md79d1e3b9d" x="347.78829" y="60.251488" style="fill: #ff7763; stroke: #ff7763"/>
     <use xlink:href="#md79d1e3b9d" x="352.946995" y="60.251488" style="fill: #ff7763; stroke: #ff7763"/>
     <use xlink:href="#md79d1e3b9d" x="358.105701" y="60.251488" style="fill: #ff7763; stroke: #ff7763"/>
     <use xlink:href="#md79d1e3b9d" x="363.264407" y="60.251488" style="fill: #ff7763; stroke: #ff7763"/>
     <use xlink:href="#md79d1e3b9d" x="368.423112" y="60.251488" style="fill: #ff7763; stroke: #ff7763"/>
     <use xlink:href="#md79d1e3b9d" x="373.581818" y="60.251488" style="fill: #ff7763; stroke: #ff7763"/>
    </g>
   </g>
   <g id="line2d_32">
    <path d="M 69.218182 252.908818 
L 74.376888 252.908818 
L 79.535593 247.921598 
L 84.694299 246.159817 
L 89.853005 224.992145 
L 95.01171 135.858695 
L 100.170416 115.099471 
L 105.329122 114.926893 
L 110.487827 80.850984 
L 115.646533 82.65065 
L 120.805239 127.459477 
L 125.963945 98.333269 
L 131.12265 96.123114 
L 136.281356 96.056893 
L 141.440062 99.130101 
L 146.598767 124.42451 
L 151.757473 99.130101 
L 156.916179 124.127316 
L 162.074884 98.793694 
L 167.23359 99.235225 
L 172.392296 127.591462 
L 177.551002 127.591462 
L 182.709707 98.915507 
L 187.868413 95.407884 
L 193.027119 96.056893 
L 198.185824 124.820438 
L 203.34453 127.131166 
L 208.503236 96.056893 
L 213.661941 124.766061 
L 218.820647 98.915507 
L 223.979353 98.793694 
L 229.138059 99.235225 
L 234.296764 95.124299 
L 239.45547 124.42451 
L 244.614176 124.209756 
L 249.772881 98.899073 
L 254.931587 98.899073 
L 260.090293 123.682015 
L 265.248998 94.8634 
L 270.407704 124.167705 
L 275.56641 124.167705 
L 280.725116 94.558744 
L 285.883821 124.049524 
L 291.042527 95.216718 
L 296.201233 123.46457 
L 301.359938 124.049524 
L 306.518644 95.216718 
L 311.67735 123.682015 
L 316.836055 95.216718 
L 321.994761 95.216718 
L 327.153467 94.270947 
L 332.312173 124.027535 
L 337.470878 94.991009 
L 342.629584 94.270947 
L 347.78829 94.646901 
L 352.946995 94.192393 
L 358.105701 124.028883 
L 363.264407 116.621486 
L 368.423112 117.129425 
L 373.581818 116.573078 
" clip-path="url(#p25a65bf5f3)" style="fill: none; stroke: #ffac1e; stroke-width: 1.5; stroke-linecap: square"/>
    <defs>
     <path id="m1fbe9d51c8" d="M 0 -2 
L -0.449028 -0.618034 
L -1.902113 -0.618034 
L -0.726543 0.236068 
L -1.175571 1.618034 
L -0 0.763932 
L 1.175571 1.618034 
L 0.726543 0.236068 
L 1.902113 -0.618034 
L 0.449028 -0.618034 
z
" style="stroke: #ffac1e; stroke-linejoin: bevel"/>
    </defs>
    <g clip-path="url(#p25a65bf5f3)">
     <use xlink:href="#m1fbe9d51c8" x="69.218182" y="252.908818" style="fill: #ffac1e; stroke: #ffac1e; stroke-linejoin: bevel"/>
     <use xlink:href="#m1fbe9d51c8" x="74.376888" y="252.908818" style="fill: #ffac1e; stroke: #ffac1e; stroke-linejoin: bevel"/>
     <use xlink:href="#m1fbe9d51c8" x="79.535593" y="247.921598" style="fill: #ffac1e; stroke: #ffac1e; stroke-linejoin: bevel"/>
     <use xlink:href="#m1fbe9d51c8" x="84.694299" y="246.159817" style="fill: #ffac1e; stroke: #ffac1e; stroke-linejoin: bevel"/>
     <use xlink:href="#m1fbe9d51c8" x="89.853005" y="224.992145" style="fill: #ffac1e; stroke: #ffac1e; stroke-linejoin: bevel"/>
     <use xlink:href="#m1fbe9d51c8" x="95.01171" y="135.858695" style="fill: #ffac1e; stroke: #ffac1e; stroke-linejoin: bevel"/>
     <use xlink:href="#m1fbe9d51c8" x="100.170416" y="115.099471" style="fill: #ffac1e; stroke: #ffac1e; stroke-linejoin: bevel"/>
     <use xlink:href="#m1fbe9d51c8" x="105.329122" y="114.926893" style="fill: #ffac1e; stroke: #ffac1e; stroke-linejoin: bevel"/>
     <use xlink:href="#m1fbe9d51c8" x="110.487827" y="80.850984" style="fill: #ffac1e; stroke: #ffac1e; stroke-linejoin: bevel"/>
     <use xlink:href="#m1fbe9d51c8" x="115.646533" y="82.65065" style="fill: #ffac1e; stroke: #ffac1e; stroke-linejoin: bevel"/>
     <use xlink:href="#m1fbe9d51c8" x="120.805239" y="127.459477" style="fill: #ffac1e; stroke: #ffac1e; stroke-linejoin: bevel"/>
     <use xlink:href="#m1fbe9d51c8" x="125.963945" y="98.333269" style="fill: #ffac1e; stroke: #ffac1e; stroke-linejoin: bevel"/>
     <use xlink:href="#m1fbe9d51c8" x="131.12265" y="96.123114" style="fill: #ffac1e; stroke: #ffac1e; stroke-linejoin: bevel"/>
     <use xlink:href="#m1fbe9d51c8" x="136.281356" y="96.056893" style="fill: #ffac1e; stroke: #ffac1e; stroke-linejoin: bevel"/>
     <use xlink:href="#m1fbe9d51c8" x="141.440062" y="99.130101" style="fill: #ffac1e; stroke: #ffac1e; stroke-linejoin: bevel"/>
     <use xlink:href="#m1fbe9d51c8" x="146.598767" y="124.42451" style="fill: #ffac1e; stroke: #ffac1e; stroke-linejoin: bevel"/>
     <use xlink:href="#m1fbe9d51c8" x="151.757473" y="99.130101" style="fill: #ffac1e; stroke: #ffac1e; stroke-linejoin: bevel"/>
     <use xlink:href="#m1fbe9d51c8" x="156.916179" y="124.127316" style="fill: #ffac1e; stroke: #ffac1e; stroke-linejoin: bevel"/>
     <use xlink:href="#m1fbe9d51c8" x="162.074884" y="98.793694" style="fill: #ffac1e; stroke: #ffac1e; stroke-linejoin: bevel"/>
     <use xlink:href="#m1fbe9d51c8" x="167.23359" y="99.235225" style="fill: #ffac1e; stroke: #ffac1e; stroke-linejoin: bevel"/>
     <use xlink:href="#m1fbe9d51c8" x="172.392296" y="127.591462" style="fill: #ffac1e; stroke: #ffac1e; stroke-linejoin: bevel"/>
     <use xlink:href="#m1fbe9d51c8" x="177.551002" y="127.591462" style="fill: #ffac1e; stroke: #ffac1e; stroke-linejoin: bevel"/>
     <use xlink:href="#m1fbe9d51c8" x="182.709707" y="98.915507" style="fill: #ffac1e; stroke: #ffac1e; stroke-linejoin: bevel"/>
     <use xlink:href="#m1fbe9d51c8" x="187.868413" y="95.407884" style="fill: #ffac1e; stroke: #ffac1e; stroke-linejoin: bevel"/>
     <use xlink:href="#m1fbe9d51c8" x="193.027119" y="96.056893" style="fill: #ffac1e; stroke: #ffac1e; stroke-linejoin: bevel"/>
     <use xlink:href="#m1fbe9d51c8" x="198.185824" y="124.820438" style="fill: #ffac1e; stroke: #ffac1e; stroke-linejoin: bevel"/>
     <use xlink:href="#m1fbe9d51c8" x="203.34453" y="127.131166" style="fill: #ffac1e; stroke: #ffac1e; stroke-linejoin: bevel"/>
     <use xlink:href="#m1fbe9d51c8" x="208.503236" y="96.056893" style="fill: #ffac1e; stroke: #ffac1e; stroke-linejoin: bevel"/>
     <use xlink:href="#m1fbe9d51c8" x="213.661941" y="124.766061" style="fill: #ffac1e; stroke: #ffac1e; stroke-linejoin: bevel"/>
     <use xlink:href="#m1fbe9d51c8" x="218.820647" y="98.915507" style="fill: #ffac1e; stroke: #ffac1e; stroke-linejoin: bevel"/>
     <use xlink:href="#m1fbe9d51c8" x="223.979353" y="98.793694" style="fill: #ffac1e; stroke: #ffac1e; stroke-linejoin: bevel"/>
     <use xlink:href="#m1fbe9d51c8" x="229.138059" y="99.235225" style="fill: #ffac1e; stroke: #ffac1e; stroke-linejoin: bevel"/>
     <use xlink:href="#m1fbe9d51c8" x="234.296764" y="95.124299" style="fill: #ffac1e; stroke: #ffac1e; stroke-linejoin: bevel"/>
     <use xlink:href="#m1fbe9d51c8" x="239.45547" y="124.42451" style="fill: #ffac1e; stroke: #ffac1e; stroke-linejoin: bevel"/>
     <use xlink:href="#m1fbe9d51c8" x="244.614176" y="124.209756" style="fill: #ffac1e; stroke: #ffac1e; stroke-linejoin: bevel"/>
     <use xlink:href="#m1fbe9d51c8" x="249.772881" y="98.899073" style="fill: #ffac1e; stroke: #ffac1e; stroke-linejoin: bevel"/>
     <use xlink:href="#m1fbe9d51c8" x="254.931587" y="98.899073" style="fill: #ffac1e; stroke: #ffac1e; stroke-linejoin: bevel"/>
     <use xlink:href="#m1fbe9d51c8" x="260.090293" y="123.682015" style="fill: #ffac1e; stroke: #ffac1e; stroke-linejoin: bevel"/>
     <use xlink:href="#m1fbe9d51c8" x="265.248998" y="94.8634" style="fill: #ffac1e; stroke: #ffac1e; stroke-linejoin: bevel"/>
     <use xlink:href="#m1fbe9d51c8" x="270.407704" y="124.167705" style="fill: #ffac1e; stroke: #ffac1e; stroke-linejoin: bevel"/>
     <use xlink:href="#m1fbe9d51c8" x="275.56641" y="124.167705" style="fill: #ffac1e; stroke: #ffac1e; stroke-linejoin: bevel"/>
     <use xlink:href="#m1fbe9d51c8" x="280.725116" y="94.558744" style="fill: #ffac1e; stroke: #ffac1e; stroke-linejoin: bevel"/>
     <use xlink:href="#m1fbe9d51c8" x="285.883821" y="124.049524" style="fill: #ffac1e; stroke: #ffac1e; stroke-linejoin: bevel"/>
     <use xlink:href="#m1fbe9d51c8" x="291.042527" y="95.216718" style="fill: #ffac1e; stroke: #ffac1e; stroke-linejoin: bevel"/>
     <use xlink:href="#m1fbe9d51c8" x="296.201233" y="123.46457" style="fill: #ffac1e; stroke: #ffac1e; stroke-linejoin: bevel"/>
     <use xlink:href="#m1fbe9d51c8" x="301.359938" y="124.049524" style="fill: #ffac1e; stroke: #ffac1e; stroke-linejoin: bevel"/>
     <use xlink:href="#m1fbe9d51c8" x="306.518644" y="95.216718" style="fill: #ffac1e; stroke: #ffac1e; stroke-linejoin: bevel"/>
     <use xlink:href="#m1fbe9d51c8" x="311.67735" y="123.682015" style="fill: #ffac1e; stroke: #ffac1e; stroke-linejoin: bevel"/>
     <use xlink:href="#m1fbe9d51c8" x="316.836055" y="95.216718" style="fill: #ffac1e; stroke: #ffac1e; stroke-linejoin: bevel"/>
     <use xlink:href="#m1fbe9d51c8" x="321.994761" y="95.216718" style="fill: #ffac1e; stroke: #ffac1e; stroke-linejoin: bevel"/>
     <use xlink:href="#m1fbe9d51c8" x="327.153467" y="94.270947" style="fill: #ffac1e; stroke: #ffac1e; stroke-linejoin: bevel"/>
     <use xlink:href="#m1fbe9d51c8" x="332.312173" y="124.027535" style="fill: #ffac1e; stroke: #ffac1e; stroke-linejoin: bevel"/>
     <use xlink:href="#m1fbe9d51c8" x="337.470878" y="94.991009" style="fill: #ffac1e; stroke: #ffac1e; stroke-linejoin: bevel"/>
     <use xlink:href="#m1fbe9d51c8" x="342.629584" y="94.270947" style="fill: #ffac1e; stroke: #ffac1e; stroke-linejoin: bevel"/>
     <use xlink:href="#m1fbe9d51c8" x="347.78829" y="94.646901" style="fill: #ffac1e; stroke: #ffac1e; stroke-linejoin: bevel"/>
     <use xlink:href="#m1fbe9d51c8" x="352.946995" y="94.192393" style="fill: #ffac1e; stroke: #ffac1e; stroke-linejoin: bevel"/>
     <use xlink:href="#m1fbe9d51c8" x="358.105701" y="124.028883" style="fill: #ffac1e; stroke: #ffac1e; stroke-linejoin: bevel"/>
     <use xlink:href="#m1fbe9d51c8" x="363.264407" y="116.621486" style="fill: #ffac1e; stroke: #ffac1e; stroke-linejoin: bevel"/>
     <use xlink:href="#m1fbe9d51c8" x="368.423112" y="117.129425" style="fill: #ffac1e; stroke: #ffac1e; stroke-linejoin: bevel"/>
     <use xlink:href="#m1fbe9d51c8" x="373.581818" y="116.573078" style="fill: #ffac1e; stroke: #ffac1e; stroke-linejoin: bevel"/>
    </g>
   </g>
   <g id="line2d_33">
    <path d="M 69.218182 254.711127 
L 74.376888 252.908818 
L 79.535593 252.908818 
L 84.694299 140.412035 
L 89.853005 101.514911 
L 95.01171 94.064899 
L 100.170416 94.064899 
L 105.329122 94.06759 
L 110.487827 94.064899 
L 115.646533 104.10649 
L 120.805239 102.688212 
L 125.963945 94.436152 
L 131.12265 94.172841 
L 136.281356 86.886521 
L 141.440062 180.486184 
L 146.598767 86.889918 
L 151.757473 85.463411 
L 156.916179 85.460018 
L 162.074884 104.695739 
L 167.23359 108.042575 
L 172.392296 86.083206 
L 177.551002 107.701852 
L 182.709707 85.163114 
L 187.868413 85.163114 
L 193.027119 104.681688 
L 198.185824 85.163114 
L 203.34453 104.681688 
L 208.503236 85.163114 
L 213.661941 104.681688 
L 218.820647 85.163114 
L 223.979353 85.159816 
L 229.138059 104.695739 
L 234.296764 104.695739 
L 239.45547 85.162759 
L 244.614176 104.695739 
L 249.772881 85.159816 
L 254.931587 85.159816 
L 260.090293 85.159816 
L 265.248998 104.695739 
L 270.407704 85.162759 
L 275.56641 85.159816 
L 280.725116 85.159816 
L 285.883821 85.162759 
L 291.042527 104.695739 
L 296.201233 84.739913 
L 301.359938 84.739913 
L 306.518644 109.71862 
L 311.67735 84.739913 
L 316.836055 84.739913 
L 321.994761 109.71862 
L 327.153467 84.739913 
L 332.312173 84.742876 
L 337.470878 85.774895 
L 342.629584 85.774895 
L 347.78829 95.115089 
L 352.946995 85.774895 
L 358.105701 95.115243 
L 363.264407 95.115089 
L 368.423112 95.115089 
L 373.581818 85.774895 
" clip-path="url(#p25a65bf5f3)" style="fill: none; stroke: #009435; stroke-width: 1.5; stroke-linecap: square"/>
    <defs>
     <path id="m06b467e952" d="M -2 2 
L 2 2 
L 2 -2 
L -2 -2 
z
" style="stroke: #009435; stroke-linejoin: miter"/>
    </defs>
    <g clip-path="url(#p25a65bf5f3)">
     <use xlink:href="#m06b467e952" x="69.218182" y="254.711127" style="fill: #009435; stroke: #009435; stroke-linejoin: miter"/>
     <use xlink:href="#m06b467e952" x="74.376888" y="252.908818" style="fill: #009435; stroke: #009435; stroke-linejoin: miter"/>
     <use xlink:href="#m06b467e952" x="79.535593" y="252.908818" style="fill: #009435; stroke: #009435; stroke-linejoin: miter"/>
     <use xlink:href="#m06b467e952" x="84.694299" y="140.412035" style="fill: #009435; stroke: #009435; stroke-linejoin: miter"/>
     <use xlink:href="#m06b467e952" x="89.853005" y="101.514911" style="fill: #009435; stroke: #009435; stroke-linejoin: miter"/>
     <use xlink:href="#m06b467e952" x="95.01171" y="94.064899" style="fill: #009435; stroke: #009435; stroke-linejoin: miter"/>
     <use xlink:href="#m06b467e952" x="100.170416" y="94.064899" style="fill: #009435; stroke: #009435; stroke-linejoin: miter"/>
     <use xlink:href="#m06b467e952" x="105.329122" y="94.06759" style="fill: #009435; stroke: #009435; stroke-linejoin: miter"/>
     <use xlink:href="#m06b467e952" x="110.487827" y="94.064899" style="fill: #009435; stroke: #009435; stroke-linejoin: miter"/>
     <use xlink:href="#m06b467e952" x="115.646533" y="104.10649" style="fill: #009435; stroke: #009435; stroke-linejoin: miter"/>
     <use xlink:href="#m06b467e952" x="120.805239" y="102.688212" style="fill: #009435; stroke: #009435; stroke-linejoin: miter"/>
     <use xlink:href="#m06b467e952" x="125.963945" y="94.436152" style="fill: #009435; stroke: #009435; stroke-linejoin: miter"/>
     <use xlink:href="#m06b467e952" x="131.12265" y="94.172841" style="fill: #009435; stroke: #009435; stroke-linejoin: miter"/>
     <use xlink:href="#m06b467e952" x="136.281356" y="86.886521" style="fill: #009435; stroke: #009435; stroke-linejoin: miter"/>
     <use xlink:href="#m06b467e952" x="141.440062" y="180.486184" style="fill: #009435; stroke: #009435; stroke-linejoin: miter"/>
     <use xlink:href="#m06b467e952" x="146.598767" y="86.889918" style="fill: #009435; stroke: #009435; stroke-linejoin: miter"/>
     <use xlink:href="#m06b467e952" x="151.757473" y="85.463411" style="fill: #009435; stroke: #009435; stroke-linejoin: miter"/>
     <use xlink:href="#m06b467e952" x="156.916179" y="85.460018" style="fill: #009435; stroke: #009435; stroke-linejoin: miter"/>
     <use xlink:href="#m06b467e952" x="162.074884" y="104.695739" style="fill: #009435; stroke: #009435; stroke-linejoin: miter"/>
     <use xlink:href="#m06b467e952" x="167.23359" y="108.042575" style="fill: #009435; stroke: #009435; stroke-linejoin: miter"/>
     <use xlink:href="#m06b467e952" x="172.392296" y="86.083206" style="fill: #009435; stroke: #009435; stroke-linejoin: miter"/>
     <use xlink:href="#m06b467e952" x="177.551002" y="107.701852" style="fill: #009435; stroke: #009435; stroke-linejoin: miter"/>
     <use xlink:href="#m06b467e952" x="182.709707" y="85.163114" style="fill: #009435; stroke: #009435; stroke-linejoin: miter"/>
     <use xlink:href="#m06b467e952" x="187.868413" y="85.163114" style="fill: #009435; stroke: #009435; stroke-linejoin: miter"/>
     <use xlink:href="#m06b467e952" x="193.027119" y="104.681688" style="fill: #009435; stroke: #009435; stroke-linejoin: miter"/>
     <use xlink:href="#m06b467e952" x="198.185824" y="85.163114" style="fill: #009435; stroke: #009435; stroke-linejoin: miter"/>
     <use xlink:href="#m06b467e952" x="203.34453" y="104.681688" style="fill: #009435; stroke: #009435; stroke-linejoin: miter"/>
     <use xlink:href="#m06b467e952" x="208.503236" y="85.163114" style="fill: #009435; stroke: #009435; stroke-linejoin: miter"/>
     <use xlink:href="#m06b467e952" x="213.661941" y="104.681688" style="fill: #009435; stroke: #009435; stroke-linejoin: miter"/>
     <use xlink:href="#m06b467e952" x="218.820647" y="85.163114" style="fill: #009435; stroke: #009435; stroke-linejoin: miter"/>
     <use xlink:href="#m06b467e952" x="223.979353" y="85.159816" style="fill: #009435; stroke: #009435; stroke-linejoin: miter"/>
     <use xlink:href="#m06b467e952" x="229.138059" y="104.695739" style="fill: #009435; stroke: #009435; stroke-linejoin: miter"/>
     <use xlink:href="#m06b467e952" x="234.296764" y="104.695739" style="fill: #009435; stroke: #009435; stroke-linejoin: miter"/>
     <use xlink:href="#m06b467e952" x="239.45547" y="85.162759" style="fill: #009435; stroke: #009435; stroke-linejoin: miter"/>
     <use xlink:href="#m06b467e952" x="244.614176" y="104.695739" style="fill: #009435; stroke: #009435; stroke-linejoin: miter"/>
     <use xlink:href="#m06b467e952" x="249.772881" y="85.159816" style="fill: #009435; stroke: #009435; stroke-linejoin: miter"/>
     <use xlink:href="#m06b467e952" x="254.931587" y="85.159816" style="fill: #009435; stroke: #009435; stroke-linejoin: miter"/>
     <use xlink:href="#m06b467e952" x="260.090293" y="85.159816" style="fill: #009435; stroke: #009435; stroke-linejoin: miter"/>
     <use xlink:href="#m06b467e952" x="265.248998" y="104.695739" style="fill: #009435; stroke: #009435; stroke-linejoin: miter"/>
     <use xlink:href="#m06b467e952" x="270.407704" y="85.162759" style="fill: #009435; stroke: #009435; stroke-linejoin: miter"/>
     <use xlink:href="#m06b467e952" x="275.56641" y="85.159816" style="fill: #009435; stroke: #009435; stroke-linejoin: miter"/>
     <use xlink:href="#m06b467e952" x="280.725116" y="85.159816" style="fill: #009435; stroke: #009435; stroke-linejoin: miter"/>
     <use xlink:href="#m06b467e952" x="285.883821" y="85.162759" style="fill: #009435; stroke: #009435; stroke-linejoin: miter"/>
     <use xlink:href="#m06b467e952" x="291.042527" y="104.695739" style="fill: #009435; stroke: #009435; stroke-linejoin: miter"/>
     <use xlink:href="#m06b467e952" x="296.201233" y="84.739913" style="fill: #009435; stroke: #009435; stroke-linejoin: miter"/>
     <use xlink:href="#m06b467e952" x="301.359938" y="84.739913" style="fill: #009435; stroke: #009435; stroke-linejoin: miter"/>
     <use xlink:href="#m06b467e952" x="306.518644" y="109.71862" style="fill: #009435; stroke: #009435; stroke-linejoin: miter"/>
     <use xlink:href="#m06b467e952" x="311.67735" y="84.739913" style="fill: #009435; stroke: #009435; stroke-linejoin: miter"/>
     <use xlink:href="#m06b467e952" x="316.836055" y="84.739913" style="fill: #009435; stroke: #009435; stroke-linejoin: miter"/>
     <use xlink:href="#m06b467e952" x="321.994761" y="109.71862" style="fill: #009435; stroke: #009435; stroke-linejoin: miter"/>
     <use xlink:href="#m06b467e952" x="327.153467" y="84.739913" style="fill: #009435; stroke: #009435; stroke-linejoin: miter"/>
     <use xlink:href="#m06b467e952" x="332.312173" y="84.742876" style="fill: #009435; stroke: #009435; stroke-linejoin: miter"/>
     <use xlink:href="#m06b467e952" x="337.470878" y="85.774895" style="fill: #009435; stroke: #009435; stroke-linejoin: miter"/>
     <use xlink:href="#m06b467e952" x="342.629584" y="85.774895" style="fill: #009435; stroke: #009435; stroke-linejoin: miter"/>
     <use xlink:href="#m06b467e952" x="347.78829" y="95.115089" style="fill: #009435; stroke: #009435; stroke-linejoin: miter"/>
     <use xlink:href="#m06b467e952" x="352.946995" y="85.774895" style="fill: #009435; stroke: #009435; stroke-linejoin: miter"/>
     <use xlink:href="#m06b467e952" x="358.105701" y="95.115243" style="fill: #009435; stroke: #009435; stroke-linejoin: miter"/>
     <use xlink:href="#m06b467e952" x="363.264407" y="95.115089" style="fill: #009435; stroke: #009435; stroke-linejoin: miter"/>
     <use xlink:href="#m06b467e952" x="368.423112" y="95.115089" style="fill: #009435; stroke: #009435; stroke-linejoin: miter"/>
     <use xlink:href="#m06b467e952" x="373.581818" y="85.774895" style="fill: #009435; stroke: #009435; stroke-linejoin: miter"/>
    </g>
   </g>
   <g id="patch_3">
    <path d="M 54 252 
L 54 34.56 
" style="fill: none; stroke: #000000; stroke-width: 0.8; stroke-linejoin: miter; stroke-linecap: square"/>
   </g>
   <g id="patch_4">
    <path d="M 388.8 252 
L 388.8 34.56 
" style="fill: none; stroke: #000000; stroke-width: 0.8; stroke-linejoin: miter; stroke-linecap: square"/>
   </g>
   <g id="patch_5">
    <path d="M 54 252 
L 388.8 252 
" style="fill: none; stroke: #000000; stroke-width: 0.8; stroke-linejoin: miter; stroke-linecap: square"/>
   </g>
   <g id="patch_6">
    <path d="M 54 34.56 
L 388.8 34.56 
" style="fill: none; stroke: #000000; stroke-width: 0.8; stroke-linejoin: miter; stroke-linecap: square"/>
   </g>
   <g id="text_17">
    <!-- ζ-EB optimal policy with beta = 1.0 -->
    <g transform="translate(115.442813 28.56)scale(0.12 -0.12)">
     <defs>
      <path id="DejaVuSans-3b6" d="M 2231 397 
Q 2644 394 2891 159 
Q 3153 -88 3153 -463 
Q 3153 -822 2922 -1072 
Q 2672 -1344 2163 -1344 
Q 2163 -1109 2163 -872 
Q 2378 -888 2509 -750 
Q 2609 -641 2609 -525 
Q 2609 -359 2509 -222 
Q 2413 -91 2231 -91 
Q 338 -91 334 1669 
Q 334 3206 2119 4284 
L 456 4284 
L 456 4863 
L 3175 4863 
L 3175 4284 
Q 913 3147 913 1669 
Q 913 397 2231 397 
z
" transform="scale(0.015625)"/>
      <path id="DejaVuSans-2d" d="M 313 2009 
L 1997 2009 
L 1997 1497 
L 313 1497 
L 313 2009 
z
" transform="scale(0.015625)"/>
      <path id="DejaVuSans-45" d="M 628 4666 
L 3578 4666 
L 3578 4134 
L 1259 4134 
L 1259 2753 
L 3481 2753 
L 3481 2222 
L 1259 2222 
L 1259 531 
L 3634 531 
L 3634 0 
L 628 0 
L 628 4666 
z
" transform="scale(0.015625)"/>
      <path id="DejaVuSans-42" d="M 1259 2228 
L 1259 519 
L 2272 519 
Q 2781 519 3026 730 
Q 3272 941 3272 1375 
Q 3272 1813 3026 2020 
Q 2781 2228 2272 2228 
L 1259 2228 
z
M 1259 4147 
L 1259 2741 
L 2194 2741 
Q 2656 2741 2882 2914 
Q 3109 3088 3109 3444 
Q 3109 3797 2882 3972 
Q 2656 4147 2194 4147 
L 1259 4147 
z
M 628 4666 
L 2241 4666 
Q 2963 4666 3353 4366 
Q 3744 4066 3744 3513 
Q 3744 3084 3544 2831 
Q 3344 2578 2956 2516 
Q 3422 2416 3680 2098 
Q 3938 1781 3938 1306 
Q 3938 681 3513 340 
Q 3088 0 2303 0 
L 628 0 
L 628 4666 
z
" transform="scale(0.015625)"/>
      <path id="DejaVuSans-6d" d="M 3328 2828 
Q 3544 3216 3844 3400 
Q 4144 3584 4550 3584 
Q 5097 3584 5394 3201 
Q 5691 2819 5691 2113 
L 5691 0 
L 5113 0 
L 5113 2094 
Q 5113 2597 4934 2840 
Q 4756 3084 4391 3084 
Q 3944 3084 3684 2787 
Q 3425 2491 3425 1978 
L 3425 0 
L 2847 0 
L 2847 2094 
Q 2847 2600 2669 2842 
Q 2491 3084 2119 3084 
Q 1678 3084 1418 2786 
Q 1159 2488 1159 1978 
L 1159 0 
L 581 0 
L 581 3500 
L 1159 3500 
L 1159 2956 
Q 1356 3278 1631 3431 
Q 1906 3584 2284 3584 
Q 2666 3584 2933 3390 
Q 3200 3197 3328 2828 
z
" transform="scale(0.015625)"/>
      <path id="DejaVuSans-77" d="M 269 3500 
L 844 3500 
L 1563 769 
L 2278 3500 
L 2956 3500 
L 3675 769 
L 4391 3500 
L 4966 3500 
L 4050 0 
L 3372 0 
L 2619 2869 
L 1863 0 
L 1184 0 
L 269 3500 
z
" transform="scale(0.015625)"/>
      <path id="DejaVuSans-68" d="M 3513 2113 
L 3513 0 
L 2938 0 
L 2938 2094 
Q 2938 2591 2744 2837 
Q 2550 3084 2163 3084 
Q 1697 3084 1428 2787 
Q 1159 2491 1159 1978 
L 1159 0 
L 581 0 
L 581 4863 
L 1159 4863 
L 1159 2956 
Q 1366 3272 1645 3428 
Q 1925 3584 2291 3584 
Q 2894 3584 3203 3211 
Q 3513 2838 3513 2113 
z
" transform="scale(0.015625)"/>
      <path id="DejaVuSans-62" d="M 3116 1747 
Q 3116 2381 2855 2742 
Q 2594 3103 2138 3103 
Q 1681 3103 1420 2742 
Q 1159 2381 1159 1747 
Q 1159 1113 1420 752 
Q 1681 391 2138 391 
Q 2594 391 2855 752 
Q 3116 1113 3116 1747 
z
M 1159 2969 
Q 1341 3281 1617 3432 
Q 1894 3584 2278 3584 
Q 2916 3584 3314 3078 
Q 3713 2572 3713 1747 
Q 3713 922 3314 415 
Q 2916 -91 2278 -91 
Q 1894 -91 1617 61 
Q 1341 213 1159 525 
L 1159 0 
L 581 0 
L 581 4863 
L 1159 4863 
L 1159 2969 
z
" transform="scale(0.015625)"/>
      <path id="DejaVuSans-3d" d="M 678 2906 
L 4684 2906 
L 4684 2381 
L 678 2381 
L 678 2906 
z
M 678 1631 
L 4684 1631 
L 4684 1100 
L 678 1100 
L 678 1631 
z
" transform="scale(0.015625)"/>
      <path id="DejaVuSans-2e" d="M 684 794 
L 1344 794 
L 1344 0 
L 684 0 
L 684 794 
z
" transform="scale(0.015625)"/>
     </defs>
     <use xlink:href="#DejaVuSans-3b6"/>
     <use xlink:href="#DejaVuSans-2d" x="54.394531"/>
     <use xlink:href="#DejaVuSans-45" x="90.478516"/>
     <use xlink:href="#DejaVuSans-42" x="153.662109"/>
     <use xlink:href="#DejaVuSans-20" x="222.265625"/>
     <use xlink:href="#DejaVuSans-6f" x="254.052734"/>
     <use xlink:href="#DejaVuSans-70" x="315.234375"/>
     <use xlink:href="#DejaVuSans-74" x="378.710938"/>
     <use xlink:href="#DejaVuSans-69" x="417.919922"/>
     <use xlink:href="#DejaVuSans-6d" x="445.703125"/>
     <use xlink:href="#DejaVuSans-61" x="543.115234"/>
     <use xlink:href="#DejaVuSans-6c" x="604.394531"/>
     <use xlink:href="#DejaVuSans-20" x="632.177734"/>
     <use xlink:href="#DejaVuSans-70" x="663.964844"/>
     <use xlink:href="#DejaVuSans-6f" x="727.441406"/>
     <use xlink:href="#DejaVuSans-6c" x="788.623047"/>
     <use xlink:href="#DejaVuSans-69" x="816.40625"/>
     <use xlink:href="#DejaVuSans-63" x="844.189453"/>
     <use xlink:href="#DejaVuSans-79" x="899.169922"/>
     <use xlink:href="#DejaVuSans-20" x="958.349609"/>
     <use xlink:href="#DejaVuSans-77" x="990.136719"/>
     <use xlink:href="#DejaVuSans-69" x="1071.923828"/>
     <use xlink:href="#DejaVuSans-74" x="1099.707031"/>
     <use xlink:href="#DejaVuSans-68" x="1138.916016"/>
     <use xlink:href="#DejaVuSans-20" x="1202.294922"/>
     <use xlink:href="#DejaVuSans-62" x="1234.082031"/>
     <use xlink:href="#DejaVuSans-65" x="1297.558594"/>
     <use xlink:href="#DejaVuSans-74" x="1359.082031"/>
     <use xlink:href="#DejaVuSans-61" x="1398.291016"/>
     <use xlink:href="#DejaVuSans-20" x="1459.570312"/>
     <use xlink:href="#DejaVuSans-3d" x="1491.357422"/>
     <use xlink:href="#DejaVuSans-20" x="1575.146484"/>
     <use xlink:href="#DejaVuSans-31" x="1606.933594"/>
     <use xlink:href="#DejaVuSans-2e" x="1670.556641"/>
     <use xlink:href="#DejaVuSans-30" x="1702.34375"/>
    </g>
   </g>
   <g id="legend_1">
    <g id="patch_7">
     <path d="M 297.796875 247 
L 381.8 247 
Q 383.8 247 383.8 245 
L 383.8 172.609375 
Q 383.8 170.609375 381.8 170.609375 
L 297.796875 170.609375 
Q 295.796875 170.609375 295.796875 172.609375 
L 295.796875 245 
Q 295.796875 247 297.796875 247 
z
" style="fill: #ffffff; opacity: 0.8; stroke: #cccccc; stroke-linejoin: miter"/>
    </g>
    <g id="line2d_34">
     <path d="M 299.796875 178.707812 
L 309.796875 178.707812 
L 319.796875 178.707812 
" style="fill: none; stroke: #9d02d7; stroke-width: 1.5; stroke-linecap: square"/>
     <g>
      <use xlink:href="#m767bd83daa" x="309.796875" y="178.707812" style="fill: #9d02d7; stroke: #9d02d7; stroke-linejoin: miter"/>
     </g>
    </g>
    <g id="text_18">
     <!-- alpha=0.1 -->
     <g transform="translate(327.796875 182.207812)scale(0.1 -0.1)">
      <use xlink:href="#DejaVuSans-61"/>
      <use xlink:href="#DejaVuSans-6c" x="61.279297"/>
      <use xlink:href="#DejaVuSans-70" x="89.0625"/>
      <use xlink:href="#DejaVuSans-68" x="152.539062"/>
      <use xlink:href="#DejaVuSans-61" x="215.917969"/>
      <use xlink:href="#DejaVuSans-3d" x="277.197266"/>
      <use xlink:href="#DejaVuSans-30" x="360.986328"/>
      <use xlink:href="#DejaVuSans-2e" x="424.609375"/>
      <use xlink:href="#DejaVuSans-31" x="456.396484"/>
     </g>
    </g>
    <g id="line2d_35">
     <path d="M 299.796875 193.385938 
L 309.796875 193.385938 
L 319.796875 193.385938 
" style="fill: none; stroke: #0000ff; stroke-width: 1.5; stroke-linecap: square"/>
     <g>
      <use xlink:href="#mc3ae664b70" x="309.796875" y="193.385938" style="fill: #0000ff; stroke: #0000ff"/>
     </g>
    </g>
    <g id="text_19">
     <!-- alpha=0.5 -->
     <g transform="translate(327.796875 196.885938)scale(0.1 -0.1)">
      <use xlink:href="#DejaVuSans-61"/>
      <use xlink:href="#DejaVuSans-6c" x="61.279297"/>
      <use xlink:href="#DejaVuSans-70" x="89.0625"/>
      <use xlink:href="#DejaVuSans-68" x="152.539062"/>
      <use xlink:href="#DejaVuSans-61" x="215.917969"/>
      <use xlink:href="#DejaVuSans-3d" x="277.197266"/>
      <use xlink:href="#DejaVuSans-30" x="360.986328"/>
      <use xlink:href="#DejaVuSans-2e" x="424.609375"/>
      <use xlink:href="#DejaVuSans-35" x="456.396484"/>
     </g>
    </g>
    <g id="line2d_36">
     <path d="M 299.796875 208.064063 
L 309.796875 208.064063 
L 319.796875 208.064063 
" style="fill: none; stroke: #ff7763; stroke-width: 1.5; stroke-linecap: square"/>
     <g>
      <use xlink:href="#md79d1e3b9d" x="309.796875" y="208.064063" style="fill: #ff7763; stroke: #ff7763"/>
     </g>
    </g>
    <g id="text_20">
     <!-- alpha=1.0 -->
     <g transform="translate(327.796875 211.564063)scale(0.1 -0.1)">
      <use xlink:href="#DejaVuSans-61"/>
      <use xlink:href="#DejaVuSans-6c" x="61.279297"/>
      <use xlink:href="#DejaVuSans-70" x="89.0625"/>
      <use xlink:href="#DejaVuSans-68" x="152.539062"/>
      <use xlink:href="#DejaVuSans-61" x="215.917969"/>
      <use xlink:href="#DejaVuSans-3d" x="277.197266"/>
      <use xlink:href="#DejaVuSans-31" x="360.986328"/>
      <use xlink:href="#DejaVuSans-2e" x="424.609375"/>
      <use xlink:href="#DejaVuSans-30" x="456.396484"/>
     </g>
    </g>
    <g id="line2d_37">
     <path d="M 299.796875 222.742188 
L 309.796875 222.742188 
L 319.796875 222.742188 
" style="fill: none; stroke: #ffac1e; stroke-width: 1.5; stroke-linecap: square"/>
     <g>
      <use xlink:href="#m1fbe9d51c8" x="309.796875" y="222.742188" style="fill: #ffac1e; stroke: #ffac1e; stroke-linejoin: bevel"/>
     </g>
    </g>
    <g id="text_21">
     <!-- alpha=1.5 -->
     <g transform="translate(327.796875 226.242188)scale(0.1 -0.1)">
      <use xlink:href="#DejaVuSans-61"/>
      <use xlink:href="#DejaVuSans-6c" x="61.279297"/>
      <use xlink:href="#DejaVuSans-70" x="89.0625"/>
      <use xlink:href="#DejaVuSans-68" x="152.539062"/>
      <use xlink:href="#DejaVuSans-61" x="215.917969"/>
      <use xlink:href="#DejaVuSans-3d" x="277.197266"/>
      <use xlink:href="#DejaVuSans-31" x="360.986328"/>
      <use xlink:href="#DejaVuSans-2e" x="424.609375"/>
      <use xlink:href="#DejaVuSans-35" x="456.396484"/>
     </g>
    </g>
    <g id="line2d_38">
     <path d="M 299.796875 237.420313 
L 309.796875 237.420313 
L 319.796875 237.420313 
" style="fill: none; stroke: #009435; stroke-width: 1.5; stroke-linecap: square"/>
     <g>
      <use xlink:href="#m06b467e952" x="309.796875" y="237.420313" style="fill: #009435; stroke: #009435; stroke-linejoin: miter"/>
     </g>
    </g>
    <g id="text_22">
     <!-- alpha=2.0 -->
     <g transform="translate(327.796875 240.920313)scale(0.1 -0.1)">
      <use xlink:href="#DejaVuSans-61"/>
      <use xlink:href="#DejaVuSans-6c" x="61.279297"/>
      <use xlink:href="#DejaVuSans-70" x="89.0625"/>
      <use xlink:href="#DejaVuSans-68" x="152.539062"/>
      <use xlink:href="#DejaVuSans-61" x="215.917969"/>
      <use xlink:href="#DejaVuSans-3d" x="277.197266"/>
      <use xlink:href="#DejaVuSans-32" x="360.986328"/>
      <use xlink:href="#DejaVuSans-2e" x="424.609375"/>
      <use xlink:href="#DejaVuSans-30" x="456.396484"/>
     </g>
    </g>
   </g>
  </g>
 </g>
 <defs>
  <clipPath id="p25a65bf5f3">
   <rect x="54" y="34.56" width="334.8" height="217.44"/>
  </clipPath>
 </defs>
</svg>
