<?xml version="1.0" encoding="utf-8" standalone="no"?>
<!DOCTYPE svg PUBLIC "-//W3C//DTD SVG 1.1//EN"
  "http://www.w3.org/Graphics/SVG/1.1/DTD/svg11.dtd">
<svg xmlns:xlink="http://www.w3.org/1999/xlink" width="432pt" height="288pt" viewBox="0 0 432 288" xmlns="http://www.w3.org/2000/svg" version="1.1">
 <metadata>
  <rdf:RDF xmlns:dc="http://purl.org/dc/elements/1.1/" xmlns:cc="http://creativecommons.org/ns#" xmlns:rdf="http://www.w3.org/1999/02/22-rdf-syntax-ns#">
   <cc:Work>
    <dc:type rdf:resource="http://purl.org/dc/dcmitype/StillImage"/>
    <dc:date>2023-01-11T15:36:06.823742</dc:date>
    <dc:format>image/svg+xml</dc:format>
    <dc:creator>
     <cc:Agent>
      <dc:title>Matplotlib v3.5.2, https://matplotlib.org/</dc:title>
     </cc:Agent>
    </dc:creator>
   </cc:Work>
  </rdf:RDF>
 </metadata>
 <defs>
  <style type="text/css">*{stroke-linejoin: round; stroke-linecap: butt}</style>
 </defs>
 <g id="figure_1">
  <g id="patch_1">
   <path d="M 0 288 
L 432 288 
L 432 0 
L 0 0 
z
" style="fill: #ffffff"/>
  </g>
  <g id="axes_1">
   <g id="patch_2">
    <path d="M 54 252 
L 388.8 252 
L 388.8 34.56 
L 54 34.56 
z
" style="fill: #ffffff"/>
   </g>
   <g id="PolyCollection_1">
    <defs>
     <path id="md070dde8d5" d="M 69.218182 -28.345272 
L 69.218182 -28.345272 
L 74.376888 -33.202153 
L 79.535593 -26.091109 
L 84.694299 -26.108368 
L 89.853005 -35.078951 
L 95.01171 -34.397143 
L 100.170416 -34.556136 
L 105.329122 -35.642459 
L 110.487827 -40.305195 
L 115.646533 -34.361159 
L 120.805239 -34.310013 
L 125.963945 -29.205692 
L 131.12265 -27.300586 
L 136.281356 -34.907844 
L 141.440062 -35.16937 
L 146.598767 -20.725055 
L 151.757473 -30.965049 
L 156.916179 -31.856004 
L 162.074884 -32.503125 
L 167.23359 -33.140105 
L 172.392296 -31.809803 
L 177.551002 -30.430249 
L 182.709707 -30.586672 
L 187.868413 -32.560364 
L 193.027119 -30.284765 
L 198.185824 -28.977755 
L 203.34453 -13.945691 
L 208.503236 -13.700816 
L 213.661941 -30.348618 
L 218.820647 -25.984713 
L 223.979353 -17.279892 
L 229.138059 -23.889905 
L 234.296764 -34.162811 
L 239.45547 -32.140762 
L 244.614176 -28.085464 
L 249.772881 -52.078905 
L 254.931587 -41.624994 
L 260.090293 -84.902236 
L 265.248998 -79.884509 
L 270.407704 -52.995811 
L 275.56641 -88.583055 
L 280.725116 -67.55937 
L 285.883821 -121.061168 
L 291.042527 -38.928541 
L 296.201233 -42.510989 
L 301.359938 -85.992803 
L 306.518644 -34.035367 
L 311.67735 -32.190565 
L 316.836055 -94.929734 
L 321.994761 -117.902121 
L 327.153467 -128.658698 
L 332.312173 -35.611261 
L 337.470878 -57.878305 
L 342.629584 -47.844599 
L 347.78829 -77.24845 
L 352.946995 -76.373064 
L 358.105701 -92.783699 
L 363.264407 -154.896306 
L 368.423112 -195.607002 
L 373.581818 -200.135949 
L 373.581818 -200.135949 
L 373.581818 -200.135949 
L 368.423112 -195.607002 
L 363.264407 -154.896306 
L 358.105701 -92.783699 
L 352.946995 -76.373064 
L 347.78829 -77.24845 
L 342.629584 -47.844599 
L 337.470878 -57.878305 
L 332.312173 -35.611261 
L 327.153467 -128.658698 
L 321.994761 -117.902121 
L 316.836055 -94.929734 
L 311.67735 -32.190565 
L 306.518644 -34.035367 
L 301.359938 -85.992803 
L 296.201233 -42.510989 
L 291.042527 -38.928541 
L 285.883821 -121.061168 
L 280.725116 -67.55937 
L 275.56641 -88.583055 
L 270.407704 -52.995811 
L 265.248998 -79.884509 
L 260.090293 -84.902236 
L 254.931587 -41.624994 
L 249.772881 -52.078905 
L 244.614176 -28.085464 
L 239.45547 -32.140762 
L 234.296764 -34.162811 
L 229.138059 -23.889905 
L 223.979353 -17.279892 
L 218.820647 -25.984713 
L 213.661941 -30.348618 
L 208.503236 -13.700816 
L 203.34453 -13.945691 
L 198.185824 -28.977755 
L 193.027119 -30.284765 
L 187.868413 -32.560364 
L 182.709707 -30.586672 
L 177.551002 -30.430249 
L 172.392296 -31.809803 
L 167.23359 -33.140105 
L 162.074884 -32.503125 
L 156.916179 -31.856004 
L 151.757473 -30.965049 
L 146.598767 -20.725055 
L 141.440062 -35.16937 
L 136.281356 -34.907844 
L 131.12265 -27.300586 
L 125.963945 -29.205692 
L 120.805239 -34.310013 
L 115.646533 -34.361159 
L 110.487827 -40.305195 
L 105.329122 -35.642459 
L 100.170416 -34.556136 
L 95.01171 -34.397143 
L 89.853005 -35.078951 
L 84.694299 -26.108368 
L 79.535593 -26.091109 
L 74.376888 -33.202153 
L 69.218182 -28.345272 
z
" style="stroke: #9d02d7; stroke-opacity: 0.2"/>
    </defs>
    <g clip-path="url(#pa118605c88)">
     <use xlink:href="#md070dde8d5" x="0" y="288" style="fill: #9d02d7; fill-opacity: 0.2; stroke: #9d02d7; stroke-opacity: 0.2"/>
    </g>
   </g>
   <g id="PolyCollection_2">
    <defs>
     <path id="m14b4b0dd4d" d="M 69.218182 -35.02044 
L 69.218182 -35.02044 
L 74.376888 -35.091182 
L 79.535593 -26.332308 
L 84.694299 -27.375948 
L 89.853005 -26.638236 
L 95.01171 -32.657246 
L 100.170416 -33.986518 
L 105.329122 -28.270597 
L 110.487827 -25.720432 
L 115.646533 -25.311335 
L 120.805239 -54.901711 
L 125.963945 -34.118411 
L 131.12265 -28.284757 
L 136.281356 -28.452131 
L 141.440062 -28.896722 
L 146.598767 -29.998045 
L 151.757473 -31.310197 
L 156.916179 -34.043633 
L 162.074884 -25.350963 
L 167.23359 -25.751045 
L 172.392296 -28.190392 
L 177.551002 -32.11101 
L 182.709707 -30.899311 
L 187.868413 -25.120803 
L 193.027119 -38.1413 
L 198.185824 -33.806351 
L 203.34453 -29.663269 
L 208.503236 -30.56054 
L 213.661941 -30.088938 
L 218.820647 -34.507093 
L 223.979353 -131.499846 
L 229.138059 -34.123206 
L 234.296764 -33.945256 
L 239.45547 -34.842064 
L 244.614176 -34.009988 
L 249.772881 -34.135535 
L 254.931587 -34.068166 
L 260.090293 -33.611028 
L 265.248998 -33.600514 
L 270.407704 -32.915481 
L 275.56641 -31.81068 
L 280.725116 -26.260017 
L 285.883821 -27.832489 
L 291.042527 -39.069589 
L 296.201233 -41.831013 
L 301.359938 -27.367973 
L 306.518644 -26.794469 
L 311.67735 -127.790212 
L 316.836055 -97.170394 
L 321.994761 -116.709731 
L 327.153467 -177.138148 
L 332.312173 -108.600454 
L 337.470878 -33.025073 
L 342.629584 -41.42538 
L 347.78829 -37.102184 
L 352.946995 -192.932391 
L 358.105701 -41.811186 
L 363.264407 -31.090359 
L 368.423112 -80.383999 
L 373.581818 -227.091473 
L 373.581818 -227.091473 
L 373.581818 -227.091473 
L 368.423112 -80.383999 
L 363.264407 -31.090359 
L 358.105701 -41.811186 
L 352.946995 -192.932391 
L 347.78829 -37.102184 
L 342.629584 -41.42538 
L 337.470878 -33.025073 
L 332.312173 -108.600454 
L 327.153467 -177.138148 
L 321.994761 -116.709731 
L 316.836055 -97.170394 
L 311.67735 -127.790212 
L 306.518644 -26.794469 
L 301.359938 -27.367973 
L 296.201233 -41.831013 
L 291.042527 -39.069589 
L 285.883821 -27.832489 
L 280.725116 -26.260017 
L 275.56641 -31.81068 
L 270.407704 -32.915481 
L 265.248998 -33.600514 
L 260.090293 -33.611028 
L 254.931587 -34.068166 
L 249.772881 -34.135535 
L 244.614176 -34.009988 
L 239.45547 -34.842064 
L 234.296764 -33.945256 
L 229.138059 -34.123206 
L 223.979353 -131.499846 
L 218.820647 -34.507093 
L 213.661941 -30.088938 
L 208.503236 -30.56054 
L 203.34453 -29.663269 
L 198.185824 -33.806351 
L 193.027119 -38.1413 
L 187.868413 -25.120803 
L 182.709707 -30.899311 
L 177.551002 -32.11101 
L 172.392296 -28.190392 
L 167.23359 -25.751045 
L 162.074884 -25.350963 
L 156.916179 -34.043633 
L 151.757473 -31.310197 
L 146.598767 -29.998045 
L 141.440062 -28.896722 
L 136.281356 -28.452131 
L 131.12265 -28.284757 
L 125.963945 -34.118411 
L 120.805239 -54.901711 
L 115.646533 -25.311335 
L 110.487827 -25.720432 
L 105.329122 -28.270597 
L 100.170416 -33.986518 
L 95.01171 -32.657246 
L 89.853005 -26.638236 
L 84.694299 -27.375948 
L 79.535593 -26.332308 
L 74.376888 -35.091182 
L 69.218182 -35.02044 
z
" style="stroke: #0000ff; stroke-opacity: 0.2"/>
    </defs>
    <g clip-path="url(#pa118605c88)">
     <use xlink:href="#m14b4b0dd4d" x="0" y="288" style="fill: #0000ff; fill-opacity: 0.2; stroke: #0000ff; stroke-opacity: 0.2"/>
    </g>
   </g>
   <g id="PolyCollection_3">
    <defs>
     <path id="m810eae28d3" d="M 69.218182 -25.952497 
L 69.218182 -25.952497 
L 74.376888 -35.086593 
L 79.535593 -33.590268 
L 84.694299 -40.870573 
L 89.853005 -34.855858 
L 95.01171 -35.091182 
L 100.170416 -34.905601 
L 105.329122 -35.091182 
L 110.487827 -35.087625 
L 115.646533 -35.087267 
L 120.805239 -34.29769 
L 125.963945 -30.787489 
L 131.12265 -25.159574 
L 136.281356 -34.268687 
L 141.440062 -31.778701 
L 146.598767 -39.533739 
L 151.757473 -32.44985 
L 156.916179 -32.784352 
L 162.074884 -35.30473 
L 167.23359 -27.861964 
L 172.392296 -29.895378 
L 177.551002 -26.037742 
L 182.709707 -29.974825 
L 187.868413 -35.523255 
L 193.027119 -75.051871 
L 198.185824 -24.773719 
L 203.34453 -43.082514 
L 208.503236 -28.684169 
L 213.661941 -25.632158 
L 218.820647 -29.237282 
L 223.979353 -31.285813 
L 229.138059 -25.970129 
L 234.296764 -33.452024 
L 239.45547 -32.574742 
L 244.614176 -29.401515 
L 249.772881 -41.723274 
L 254.931587 -40.155583 
L 260.090293 -30.817678 
L 265.248998 -34.53516 
L 270.407704 -27.649112 
L 275.56641 -31.72966 
L 280.725116 -35.4211 
L 285.883821 -40.532242 
L 291.042527 -35.850527 
L 296.201233 -40.511643 
L 301.359938 -129.319887 
L 306.518644 -34.763984 
L 311.67735 -33.848587 
L 316.836055 -35.537685 
L 321.994761 -34.309056 
L 327.153467 -36.24225 
L 332.312173 -51.225125 
L 337.470878 -65.046788 
L 342.629584 -35.544482 
L 347.78829 -61.428072 
L 352.946995 -183.882254 
L 358.105701 -183.872735 
L 363.264407 -29.234316 
L 368.423112 -59.242116 
L 373.581818 -71.835914 
L 373.581818 -71.835914 
L 373.581818 -71.835914 
L 368.423112 -59.242116 
L 363.264407 -29.234316 
L 358.105701 -183.872735 
L 352.946995 -183.882254 
L 347.78829 -61.428072 
L 342.629584 -35.544482 
L 337.470878 -65.046788 
L 332.312173 -51.225125 
L 327.153467 -36.24225 
L 321.994761 -34.309056 
L 316.836055 -35.537685 
L 311.67735 -33.848587 
L 306.518644 -34.763984 
L 301.359938 -129.319887 
L 296.201233 -40.511643 
L 291.042527 -35.850527 
L 285.883821 -40.532242 
L 280.725116 -35.4211 
L 275.56641 -31.72966 
L 270.407704 -27.649112 
L 265.248998 -34.53516 
L 260.090293 -30.817678 
L 254.931587 -40.155583 
L 249.772881 -41.723274 
L 244.614176 -29.401515 
L 239.45547 -32.574742 
L 234.296764 -33.452024 
L 229.138059 -25.970129 
L 223.979353 -31.285813 
L 218.820647 -29.237282 
L 213.661941 -25.632158 
L 208.503236 -28.684169 
L 203.34453 -43.082514 
L 198.185824 -24.773719 
L 193.027119 -75.051871 
L 187.868413 -35.523255 
L 182.709707 -29.974825 
L 177.551002 -26.037742 
L 172.392296 -29.895378 
L 167.23359 -27.861964 
L 162.074884 -35.30473 
L 156.916179 -32.784352 
L 151.757473 -32.44985 
L 146.598767 -39.533739 
L 141.440062 -31.778701 
L 136.281356 -34.268687 
L 131.12265 -25.159574 
L 125.963945 -30.787489 
L 120.805239 -34.29769 
L 115.646533 -35.087267 
L 110.487827 -35.087625 
L 105.329122 -35.091182 
L 100.170416 -34.905601 
L 95.01171 -35.091182 
L 89.853005 -34.855858 
L 84.694299 -40.870573 
L 79.535593 -33.590268 
L 74.376888 -35.086593 
L 69.218182 -25.952497 
z
" style="stroke: #ff7763; stroke-opacity: 0.2"/>
    </defs>
    <g clip-path="url(#pa118605c88)">
     <use xlink:href="#m810eae28d3" x="0" y="288" style="fill: #ff7763; fill-opacity: 0.2; stroke: #ff7763; stroke-opacity: 0.2"/>
    </g>
   </g>
   <g id="matplotlib.axis_1">
    <g id="xtick_1">
     <g id="line2d_1">
      <path d="M 69.218182 252 
L 69.218182 34.56 
" clip-path="url(#pa118605c88)" style="fill: none; stroke-dasharray: 2.96,1.28; stroke-dashoffset: 0; stroke: #b0b0b0; stroke-width: 0.8"/>
     </g>
     <g id="line2d_2">
      <defs>
       <path id="m93fb97d0a7" d="M 0 0 
L 0 3.5 
" style="stroke: #000000; stroke-width: 0.8"/>
      </defs>
      <g>
       <use xlink:href="#m93fb97d0a7" x="69.218182" y="252" style="stroke: #000000; stroke-width: 0.8"/>
      </g>
     </g>
     <g id="text_1">
      <!-- 0 -->
      <g transform="translate(66.036932 266.598437)scale(0.1 -0.1)">
       <defs>
        <path id="DejaVuSans-30" d="M 2034 4250 
Q 1547 4250 1301 3770 
Q 1056 3291 1056 2328 
Q 1056 1369 1301 889 
Q 1547 409 2034 409 
Q 2525 409 2770 889 
Q 3016 1369 3016 2328 
Q 3016 3291 2770 3770 
Q 2525 4250 2034 4250 
z
M 2034 4750 
Q 2819 4750 3233 4129 
Q 3647 3509 3647 2328 
Q 3647 1150 3233 529 
Q 2819 -91 2034 -91 
Q 1250 -91 836 529 
Q 422 1150 422 2328 
Q 422 3509 836 4129 
Q 1250 4750 2034 4750 
z
" transform="scale(0.015625)"/>
       </defs>
       <use xlink:href="#DejaVuSans-30"/>
      </g>
     </g>
    </g>
    <g id="xtick_2">
     <g id="line2d_3">
      <path d="M 120.805239 252 
L 120.805239 34.56 
" clip-path="url(#pa118605c88)" style="fill: none; stroke-dasharray: 2.96,1.28; stroke-dashoffset: 0; stroke: #b0b0b0; stroke-width: 0.8"/>
     </g>
     <g id="line2d_4">
      <g>
       <use xlink:href="#m93fb97d0a7" x="120.805239" y="252" style="stroke: #000000; stroke-width: 0.8"/>
      </g>
     </g>
     <g id="text_2">
      <!-- 500 -->
      <g transform="translate(111.261489 266.598437)scale(0.1 -0.1)">
       <defs>
        <path id="DejaVuSans-35" d="M 691 4666 
L 3169 4666 
L 3169 4134 
L 1269 4134 
L 1269 2991 
Q 1406 3038 1543 3061 
Q 1681 3084 1819 3084 
Q 2600 3084 3056 2656 
Q 3513 2228 3513 1497 
Q 3513 744 3044 326 
Q 2575 -91 1722 -91 
Q 1428 -91 1123 -41 
Q 819 9 494 109 
L 494 744 
Q 775 591 1075 516 
Q 1375 441 1709 441 
Q 2250 441 2565 725 
Q 2881 1009 2881 1497 
Q 2881 1984 2565 2268 
Q 2250 2553 1709 2553 
Q 1456 2553 1204 2497 
Q 953 2441 691 2322 
L 691 4666 
z
" transform="scale(0.015625)"/>
       </defs>
       <use xlink:href="#DejaVuSans-35"/>
       <use xlink:href="#DejaVuSans-30" x="63.623047"/>
       <use xlink:href="#DejaVuSans-30" x="127.246094"/>
      </g>
     </g>
    </g>
    <g id="xtick_3">
     <g id="line2d_5">
      <path d="M 172.392296 252 
L 172.392296 34.56 
" clip-path="url(#pa118605c88)" style="fill: none; stroke-dasharray: 2.96,1.28; stroke-dashoffset: 0; stroke: #b0b0b0; stroke-width: 0.8"/>
     </g>
     <g id="line2d_6">
      <g>
       <use xlink:href="#m93fb97d0a7" x="172.392296" y="252" style="stroke: #000000; stroke-width: 0.8"/>
      </g>
     </g>
     <g id="text_3">
      <!-- 1000 -->
      <g transform="translate(159.667296 266.598437)scale(0.1 -0.1)">
       <defs>
        <path id="DejaVuSans-31" d="M 794 531 
L 1825 531 
L 1825 4091 
L 703 3866 
L 703 4441 
L 1819 4666 
L 2450 4666 
L 2450 531 
L 3481 531 
L 3481 0 
L 794 0 
L 794 531 
z
" transform="scale(0.015625)"/>
       </defs>
       <use xlink:href="#DejaVuSans-31"/>
       <use xlink:href="#DejaVuSans-30" x="63.623047"/>
       <use xlink:href="#DejaVuSans-30" x="127.246094"/>
       <use xlink:href="#DejaVuSans-30" x="190.869141"/>
      </g>
     </g>
    </g>
    <g id="xtick_4">
     <g id="line2d_7">
      <path d="M 223.979353 252 
L 223.979353 34.56 
" clip-path="url(#pa118605c88)" style="fill: none; stroke-dasharray: 2.96,1.28; stroke-dashoffset: 0; stroke: #b0b0b0; stroke-width: 0.8"/>
     </g>
     <g id="line2d_8">
      <g>
       <use xlink:href="#m93fb97d0a7" x="223.979353" y="252" style="stroke: #000000; stroke-width: 0.8"/>
      </g>
     </g>
     <g id="text_4">
      <!-- 1500 -->
      <g transform="translate(211.254353 266.598437)scale(0.1 -0.1)">
       <use xlink:href="#DejaVuSans-31"/>
       <use xlink:href="#DejaVuSans-35" x="63.623047"/>
       <use xlink:href="#DejaVuSans-30" x="127.246094"/>
       <use xlink:href="#DejaVuSans-30" x="190.869141"/>
      </g>
     </g>
    </g>
    <g id="xtick_5">
     <g id="line2d_9">
      <path d="M 275.56641 252 
L 275.56641 34.56 
" clip-path="url(#pa118605c88)" style="fill: none; stroke-dasharray: 2.96,1.28; stroke-dashoffset: 0; stroke: #b0b0b0; stroke-width: 0.8"/>
     </g>
     <g id="line2d_10">
      <g>
       <use xlink:href="#m93fb97d0a7" x="275.56641" y="252" style="stroke: #000000; stroke-width: 0.8"/>
      </g>
     </g>
     <g id="text_5">
      <!-- 2000 -->
      <g transform="translate(262.84141 266.598437)scale(0.1 -0.1)">
       <defs>
        <path id="DejaVuSans-32" d="M 1228 531 
L 3431 531 
L 3431 0 
L 469 0 
L 469 531 
Q 828 903 1448 1529 
Q 2069 2156 2228 2338 
Q 2531 2678 2651 2914 
Q 2772 3150 2772 3378 
Q 2772 3750 2511 3984 
Q 2250 4219 1831 4219 
Q 1534 4219 1204 4116 
Q 875 4013 500 3803 
L 500 4441 
Q 881 4594 1212 4672 
Q 1544 4750 1819 4750 
Q 2544 4750 2975 4387 
Q 3406 4025 3406 3419 
Q 3406 3131 3298 2873 
Q 3191 2616 2906 2266 
Q 2828 2175 2409 1742 
Q 1991 1309 1228 531 
z
" transform="scale(0.015625)"/>
       </defs>
       <use xlink:href="#DejaVuSans-32"/>
       <use xlink:href="#DejaVuSans-30" x="63.623047"/>
       <use xlink:href="#DejaVuSans-30" x="127.246094"/>
       <use xlink:href="#DejaVuSans-30" x="190.869141"/>
      </g>
     </g>
    </g>
    <g id="xtick_6">
     <g id="line2d_11">
      <path d="M 327.153467 252 
L 327.153467 34.56 
" clip-path="url(#pa118605c88)" style="fill: none; stroke-dasharray: 2.96,1.28; stroke-dashoffset: 0; stroke: #b0b0b0; stroke-width: 0.8"/>
     </g>
     <g id="line2d_12">
      <g>
       <use xlink:href="#m93fb97d0a7" x="327.153467" y="252" style="stroke: #000000; stroke-width: 0.8"/>
      </g>
     </g>
     <g id="text_6">
      <!-- 2500 -->
      <g transform="translate(314.428467 266.598437)scale(0.1 -0.1)">
       <use xlink:href="#DejaVuSans-32"/>
       <use xlink:href="#DejaVuSans-35" x="63.623047"/>
       <use xlink:href="#DejaVuSans-30" x="127.246094"/>
       <use xlink:href="#DejaVuSans-30" x="190.869141"/>
      </g>
     </g>
    </g>
    <g id="xtick_7">
     <g id="line2d_13">
      <path d="M 378.740524 252 
L 378.740524 34.56 
" clip-path="url(#pa118605c88)" style="fill: none; stroke-dasharray: 2.96,1.28; stroke-dashoffset: 0; stroke: #b0b0b0; stroke-width: 0.8"/>
     </g>
     <g id="line2d_14">
      <g>
       <use xlink:href="#m93fb97d0a7" x="378.740524" y="252" style="stroke: #000000; stroke-width: 0.8"/>
      </g>
     </g>
     <g id="text_7">
      <!-- 3000 -->
      <g transform="translate(366.015524 266.598437)scale(0.1 -0.1)">
       <defs>
        <path id="DejaVuSans-33" d="M 2597 2516 
Q 3050 2419 3304 2112 
Q 3559 1806 3559 1356 
Q 3559 666 3084 287 
Q 2609 -91 1734 -91 
Q 1441 -91 1130 -33 
Q 819 25 488 141 
L 488 750 
Q 750 597 1062 519 
Q 1375 441 1716 441 
Q 2309 441 2620 675 
Q 2931 909 2931 1356 
Q 2931 1769 2642 2001 
Q 2353 2234 1838 2234 
L 1294 2234 
L 1294 2753 
L 1863 2753 
Q 2328 2753 2575 2939 
Q 2822 3125 2822 3475 
Q 2822 3834 2567 4026 
Q 2313 4219 1838 4219 
Q 1578 4219 1281 4162 
Q 984 4106 628 3988 
L 628 4550 
Q 988 4650 1302 4700 
Q 1616 4750 1894 4750 
Q 2613 4750 3031 4423 
Q 3450 4097 3450 3541 
Q 3450 3153 3228 2886 
Q 3006 2619 2597 2516 
z
" transform="scale(0.015625)"/>
       </defs>
       <use xlink:href="#DejaVuSans-33"/>
       <use xlink:href="#DejaVuSans-30" x="63.623047"/>
       <use xlink:href="#DejaVuSans-30" x="127.246094"/>
       <use xlink:href="#DejaVuSans-30" x="190.869141"/>
      </g>
     </g>
    </g>
    <g id="text_8">
     <!-- Steps -->
     <g transform="translate(207.410156 280.276563)scale(0.1 -0.1)">
      <defs>
       <path id="DejaVuSans-53" d="M 3425 4513 
L 3425 3897 
Q 3066 4069 2747 4153 
Q 2428 4238 2131 4238 
Q 1616 4238 1336 4038 
Q 1056 3838 1056 3469 
Q 1056 3159 1242 3001 
Q 1428 2844 1947 2747 
L 2328 2669 
Q 3034 2534 3370 2195 
Q 3706 1856 3706 1288 
Q 3706 609 3251 259 
Q 2797 -91 1919 -91 
Q 1588 -91 1214 -16 
Q 841 59 441 206 
L 441 856 
Q 825 641 1194 531 
Q 1563 422 1919 422 
Q 2459 422 2753 634 
Q 3047 847 3047 1241 
Q 3047 1584 2836 1778 
Q 2625 1972 2144 2069 
L 1759 2144 
Q 1053 2284 737 2584 
Q 422 2884 422 3419 
Q 422 4038 858 4394 
Q 1294 4750 2059 4750 
Q 2388 4750 2728 4690 
Q 3069 4631 3425 4513 
z
" transform="scale(0.015625)"/>
       <path id="DejaVuSans-74" d="M 1172 4494 
L 1172 3500 
L 2356 3500 
L 2356 3053 
L 1172 3053 
L 1172 1153 
Q 1172 725 1289 603 
Q 1406 481 1766 481 
L 2356 481 
L 2356 0 
L 1766 0 
Q 1100 0 847 248 
Q 594 497 594 1153 
L 594 3053 
L 172 3053 
L 172 3500 
L 594 3500 
L 594 4494 
L 1172 4494 
z
" transform="scale(0.015625)"/>
       <path id="DejaVuSans-65" d="M 3597 1894 
L 3597 1613 
L 953 1613 
Q 991 1019 1311 708 
Q 1631 397 2203 397 
Q 2534 397 2845 478 
Q 3156 559 3463 722 
L 3463 178 
Q 3153 47 2828 -22 
Q 2503 -91 2169 -91 
Q 1331 -91 842 396 
Q 353 884 353 1716 
Q 353 2575 817 3079 
Q 1281 3584 2069 3584 
Q 2775 3584 3186 3129 
Q 3597 2675 3597 1894 
z
M 3022 2063 
Q 3016 2534 2758 2815 
Q 2500 3097 2075 3097 
Q 1594 3097 1305 2825 
Q 1016 2553 972 2059 
L 3022 2063 
z
" transform="scale(0.015625)"/>
       <path id="DejaVuSans-70" d="M 1159 525 
L 1159 -1331 
L 581 -1331 
L 581 3500 
L 1159 3500 
L 1159 2969 
Q 1341 3281 1617 3432 
Q 1894 3584 2278 3584 
Q 2916 3584 3314 3078 
Q 3713 2572 3713 1747 
Q 3713 922 3314 415 
Q 2916 -91 2278 -91 
Q 1894 -91 1617 61 
Q 1341 213 1159 525 
z
M 3116 1747 
Q 3116 2381 2855 2742 
Q 2594 3103 2138 3103 
Q 1681 3103 1420 2742 
Q 1159 2381 1159 1747 
Q 1159 1113 1420 752 
Q 1681 391 2138 391 
Q 2594 391 2855 752 
Q 3116 1113 3116 1747 
z
" transform="scale(0.015625)"/>
       <path id="DejaVuSans-73" d="M 2834 3397 
L 2834 2853 
Q 2591 2978 2328 3040 
Q 2066 3103 1784 3103 
Q 1356 3103 1142 2972 
Q 928 2841 928 2578 
Q 928 2378 1081 2264 
Q 1234 2150 1697 2047 
L 1894 2003 
Q 2506 1872 2764 1633 
Q 3022 1394 3022 966 
Q 3022 478 2636 193 
Q 2250 -91 1575 -91 
Q 1294 -91 989 -36 
Q 684 19 347 128 
L 347 722 
Q 666 556 975 473 
Q 1284 391 1588 391 
Q 1994 391 2212 530 
Q 2431 669 2431 922 
Q 2431 1156 2273 1281 
Q 2116 1406 1581 1522 
L 1381 1569 
Q 847 1681 609 1914 
Q 372 2147 372 2553 
Q 372 3047 722 3315 
Q 1072 3584 1716 3584 
Q 2034 3584 2315 3537 
Q 2597 3491 2834 3397 
z
" transform="scale(0.015625)"/>
      </defs>
      <use xlink:href="#DejaVuSans-53"/>
      <use xlink:href="#DejaVuSans-74" x="63.476562"/>
      <use xlink:href="#DejaVuSans-65" x="102.685547"/>
      <use xlink:href="#DejaVuSans-70" x="164.208984"/>
      <use xlink:href="#DejaVuSans-73" x="227.685547"/>
     </g>
    </g>
   </g>
   <g id="matplotlib.axis_2">
    <g id="ytick_1">
     <g id="line2d_15">
      <path d="M 54 243.636923 
L 388.8 243.636923 
" clip-path="url(#pa118605c88)" style="fill: none; stroke-dasharray: 2.96,1.28; stroke-dashoffset: 0; stroke: #b0b0b0; stroke-width: 0.8"/>
     </g>
     <g id="line2d_16">
      <defs>
       <path id="m996f0592e8" d="M 0 0 
L -3.5 0 
" style="stroke: #000000; stroke-width: 0.8"/>
      </defs>
      <g>
       <use xlink:href="#m996f0592e8" x="54" y="243.636923" style="stroke: #000000; stroke-width: 0.8"/>
      </g>
     </g>
     <g id="text_9">
      <!-- −12 -->
      <g transform="translate(25.895312 247.436142)scale(0.1 -0.1)">
       <defs>
        <path id="DejaVuSans-2212" d="M 678 2272 
L 4684 2272 
L 4684 1741 
L 678 1741 
L 678 2272 
z
" transform="scale(0.015625)"/>
       </defs>
       <use xlink:href="#DejaVuSans-2212"/>
       <use xlink:href="#DejaVuSans-31" x="83.789062"/>
       <use xlink:href="#DejaVuSans-32" x="147.412109"/>
      </g>
     </g>
    </g>
    <g id="ytick_2">
     <g id="line2d_17">
      <path d="M 54 210.184615 
L 388.8 210.184615 
" clip-path="url(#pa118605c88)" style="fill: none; stroke-dasharray: 2.96,1.28; stroke-dashoffset: 0; stroke: #b0b0b0; stroke-width: 0.8"/>
     </g>
     <g id="line2d_18">
      <g>
       <use xlink:href="#m996f0592e8" x="54" y="210.184615" style="stroke: #000000; stroke-width: 0.8"/>
      </g>
     </g>
     <g id="text_10">
      <!-- −10 -->
      <g transform="translate(25.895312 213.983834)scale(0.1 -0.1)">
       <use xlink:href="#DejaVuSans-2212"/>
       <use xlink:href="#DejaVuSans-31" x="83.789062"/>
       <use xlink:href="#DejaVuSans-30" x="147.412109"/>
      </g>
     </g>
    </g>
    <g id="ytick_3">
     <g id="line2d_19">
      <path d="M 54 176.732308 
L 388.8 176.732308 
" clip-path="url(#pa118605c88)" style="fill: none; stroke-dasharray: 2.96,1.28; stroke-dashoffset: 0; stroke: #b0b0b0; stroke-width: 0.8"/>
     </g>
     <g id="line2d_20">
      <g>
       <use xlink:href="#m996f0592e8" x="54" y="176.732308" style="stroke: #000000; stroke-width: 0.8"/>
      </g>
     </g>
     <g id="text_11">
      <!-- −8 -->
      <g transform="translate(32.257812 180.531526)scale(0.1 -0.1)">
       <defs>
        <path id="DejaVuSans-38" d="M 2034 2216 
Q 1584 2216 1326 1975 
Q 1069 1734 1069 1313 
Q 1069 891 1326 650 
Q 1584 409 2034 409 
Q 2484 409 2743 651 
Q 3003 894 3003 1313 
Q 3003 1734 2745 1975 
Q 2488 2216 2034 2216 
z
M 1403 2484 
Q 997 2584 770 2862 
Q 544 3141 544 3541 
Q 544 4100 942 4425 
Q 1341 4750 2034 4750 
Q 2731 4750 3128 4425 
Q 3525 4100 3525 3541 
Q 3525 3141 3298 2862 
Q 3072 2584 2669 2484 
Q 3125 2378 3379 2068 
Q 3634 1759 3634 1313 
Q 3634 634 3220 271 
Q 2806 -91 2034 -91 
Q 1263 -91 848 271 
Q 434 634 434 1313 
Q 434 1759 690 2068 
Q 947 2378 1403 2484 
z
M 1172 3481 
Q 1172 3119 1398 2916 
Q 1625 2713 2034 2713 
Q 2441 2713 2670 2916 
Q 2900 3119 2900 3481 
Q 2900 3844 2670 4047 
Q 2441 4250 2034 4250 
Q 1625 4250 1398 4047 
Q 1172 3844 1172 3481 
z
" transform="scale(0.015625)"/>
       </defs>
       <use xlink:href="#DejaVuSans-2212"/>
       <use xlink:href="#DejaVuSans-38" x="83.789062"/>
      </g>
     </g>
    </g>
    <g id="ytick_4">
     <g id="line2d_21">
      <path d="M 54 143.28 
L 388.8 143.28 
" clip-path="url(#pa118605c88)" style="fill: none; stroke-dasharray: 2.96,1.28; stroke-dashoffset: 0; stroke: #b0b0b0; stroke-width: 0.8"/>
     </g>
     <g id="line2d_22">
      <g>
       <use xlink:href="#m996f0592e8" x="54" y="143.28" style="stroke: #000000; stroke-width: 0.8"/>
      </g>
     </g>
     <g id="text_12">
      <!-- −6 -->
      <g transform="translate(32.257812 147.079219)scale(0.1 -0.1)">
       <defs>
        <path id="DejaVuSans-36" d="M 2113 2584 
Q 1688 2584 1439 2293 
Q 1191 2003 1191 1497 
Q 1191 994 1439 701 
Q 1688 409 2113 409 
Q 2538 409 2786 701 
Q 3034 994 3034 1497 
Q 3034 2003 2786 2293 
Q 2538 2584 2113 2584 
z
M 3366 4563 
L 3366 3988 
Q 3128 4100 2886 4159 
Q 2644 4219 2406 4219 
Q 1781 4219 1451 3797 
Q 1122 3375 1075 2522 
Q 1259 2794 1537 2939 
Q 1816 3084 2150 3084 
Q 2853 3084 3261 2657 
Q 3669 2231 3669 1497 
Q 3669 778 3244 343 
Q 2819 -91 2113 -91 
Q 1303 -91 875 529 
Q 447 1150 447 2328 
Q 447 3434 972 4092 
Q 1497 4750 2381 4750 
Q 2619 4750 2861 4703 
Q 3103 4656 3366 4563 
z
" transform="scale(0.015625)"/>
       </defs>
       <use xlink:href="#DejaVuSans-2212"/>
       <use xlink:href="#DejaVuSans-36" x="83.789062"/>
      </g>
     </g>
    </g>
    <g id="ytick_5">
     <g id="line2d_23">
      <path d="M 54 109.827692 
L 388.8 109.827692 
" clip-path="url(#pa118605c88)" style="fill: none; stroke-dasharray: 2.96,1.28; stroke-dashoffset: 0; stroke: #b0b0b0; stroke-width: 0.8"/>
     </g>
     <g id="line2d_24">
      <g>
       <use xlink:href="#m996f0592e8" x="54" y="109.827692" style="stroke: #000000; stroke-width: 0.8"/>
      </g>
     </g>
     <g id="text_13">
      <!-- −4 -->
      <g transform="translate(32.257812 113.626911)scale(0.1 -0.1)">
       <defs>
        <path id="DejaVuSans-34" d="M 2419 4116 
L 825 1625 
L 2419 1625 
L 2419 4116 
z
M 2253 4666 
L 3047 4666 
L 3047 1625 
L 3713 1625 
L 3713 1100 
L 3047 1100 
L 3047 0 
L 2419 0 
L 2419 1100 
L 313 1100 
L 313 1709 
L 2253 4666 
z
" transform="scale(0.015625)"/>
       </defs>
       <use xlink:href="#DejaVuSans-2212"/>
       <use xlink:href="#DejaVuSans-34" x="83.789062"/>
      </g>
     </g>
    </g>
    <g id="ytick_6">
     <g id="line2d_25">
      <path d="M 54 76.375385 
L 388.8 76.375385 
" clip-path="url(#pa118605c88)" style="fill: none; stroke-dasharray: 2.96,1.28; stroke-dashoffset: 0; stroke: #b0b0b0; stroke-width: 0.8"/>
     </g>
     <g id="line2d_26">
      <g>
       <use xlink:href="#m996f0592e8" x="54" y="76.375385" style="stroke: #000000; stroke-width: 0.8"/>
      </g>
     </g>
     <g id="text_14">
      <!-- −2 -->
      <g transform="translate(32.257812 80.174603)scale(0.1 -0.1)">
       <use xlink:href="#DejaVuSans-2212"/>
       <use xlink:href="#DejaVuSans-32" x="83.789062"/>
      </g>
     </g>
    </g>
    <g id="ytick_7">
     <g id="line2d_27">
      <path d="M 54 42.923077 
L 388.8 42.923077 
" clip-path="url(#pa118605c88)" style="fill: none; stroke-dasharray: 2.96,1.28; stroke-dashoffset: 0; stroke: #b0b0b0; stroke-width: 0.8"/>
     </g>
     <g id="line2d_28">
      <g>
       <use xlink:href="#m996f0592e8" x="54" y="42.923077" style="stroke: #000000; stroke-width: 0.8"/>
      </g>
     </g>
     <g id="text_15">
      <!-- 0 -->
      <g transform="translate(40.6375 46.722296)scale(0.1 -0.1)">
       <use xlink:href="#DejaVuSans-30"/>
      </g>
     </g>
    </g>
    <g id="text_16">
     <!-- Policy value error -->
     <g transform="translate(19.815625 186.597969)rotate(-90)scale(0.1 -0.1)">
      <defs>
       <path id="DejaVuSans-50" d="M 1259 4147 
L 1259 2394 
L 2053 2394 
Q 2494 2394 2734 2622 
Q 2975 2850 2975 3272 
Q 2975 3691 2734 3919 
Q 2494 4147 2053 4147 
L 1259 4147 
z
M 628 4666 
L 2053 4666 
Q 2838 4666 3239 4311 
Q 3641 3956 3641 3272 
Q 3641 2581 3239 2228 
Q 2838 1875 2053 1875 
L 1259 1875 
L 1259 0 
L 628 0 
L 628 4666 
z
" transform="scale(0.015625)"/>
       <path id="DejaVuSans-6f" d="M 1959 3097 
Q 1497 3097 1228 2736 
Q 959 2375 959 1747 
Q 959 1119 1226 758 
Q 1494 397 1959 397 
Q 2419 397 2687 759 
Q 2956 1122 2956 1747 
Q 2956 2369 2687 2733 
Q 2419 3097 1959 3097 
z
M 1959 3584 
Q 2709 3584 3137 3096 
Q 3566 2609 3566 1747 
Q 3566 888 3137 398 
Q 2709 -91 1959 -91 
Q 1206 -91 779 398 
Q 353 888 353 1747 
Q 353 2609 779 3096 
Q 1206 3584 1959 3584 
z
" transform="scale(0.015625)"/>
       <path id="DejaVuSans-6c" d="M 603 4863 
L 1178 4863 
L 1178 0 
L 603 0 
L 603 4863 
z
" transform="scale(0.015625)"/>
       <path id="DejaVuSans-69" d="M 603 3500 
L 1178 3500 
L 1178 0 
L 603 0 
L 603 3500 
z
M 603 4863 
L 1178 4863 
L 1178 4134 
L 603 4134 
L 603 4863 
z
" transform="scale(0.015625)"/>
       <path id="DejaVuSans-63" d="M 3122 3366 
L 3122 2828 
Q 2878 2963 2633 3030 
Q 2388 3097 2138 3097 
Q 1578 3097 1268 2742 
Q 959 2388 959 1747 
Q 959 1106 1268 751 
Q 1578 397 2138 397 
Q 2388 397 2633 464 
Q 2878 531 3122 666 
L 3122 134 
Q 2881 22 2623 -34 
Q 2366 -91 2075 -91 
Q 1284 -91 818 406 
Q 353 903 353 1747 
Q 353 2603 823 3093 
Q 1294 3584 2113 3584 
Q 2378 3584 2631 3529 
Q 2884 3475 3122 3366 
z
" transform="scale(0.015625)"/>
       <path id="DejaVuSans-79" d="M 2059 -325 
Q 1816 -950 1584 -1140 
Q 1353 -1331 966 -1331 
L 506 -1331 
L 506 -850 
L 844 -850 
Q 1081 -850 1212 -737 
Q 1344 -625 1503 -206 
L 1606 56 
L 191 3500 
L 800 3500 
L 1894 763 
L 2988 3500 
L 3597 3500 
L 2059 -325 
z
" transform="scale(0.015625)"/>
       <path id="DejaVuSans-20" transform="scale(0.015625)"/>
       <path id="DejaVuSans-76" d="M 191 3500 
L 800 3500 
L 1894 563 
L 2988 3500 
L 3597 3500 
L 2284 0 
L 1503 0 
L 191 3500 
z
" transform="scale(0.015625)"/>
       <path id="DejaVuSans-61" d="M 2194 1759 
Q 1497 1759 1228 1600 
Q 959 1441 959 1056 
Q 959 750 1161 570 
Q 1363 391 1709 391 
Q 2188 391 2477 730 
Q 2766 1069 2766 1631 
L 2766 1759 
L 2194 1759 
z
M 3341 1997 
L 3341 0 
L 2766 0 
L 2766 531 
Q 2569 213 2275 61 
Q 1981 -91 1556 -91 
Q 1019 -91 701 211 
Q 384 513 384 1019 
Q 384 1609 779 1909 
Q 1175 2209 1959 2209 
L 2766 2209 
L 2766 2266 
Q 2766 2663 2505 2880 
Q 2244 3097 1772 3097 
Q 1472 3097 1187 3025 
Q 903 2953 641 2809 
L 641 3341 
Q 956 3463 1253 3523 
Q 1550 3584 1831 3584 
Q 2591 3584 2966 3190 
Q 3341 2797 3341 1997 
z
" transform="scale(0.015625)"/>
       <path id="DejaVuSans-75" d="M 544 1381 
L 544 3500 
L 1119 3500 
L 1119 1403 
Q 1119 906 1312 657 
Q 1506 409 1894 409 
Q 2359 409 2629 706 
Q 2900 1003 2900 1516 
L 2900 3500 
L 3475 3500 
L 3475 0 
L 2900 0 
L 2900 538 
Q 2691 219 2414 64 
Q 2138 -91 1772 -91 
Q 1169 -91 856 284 
Q 544 659 544 1381 
z
M 1991 3584 
L 1991 3584 
z
" transform="scale(0.015625)"/>
       <path id="DejaVuSans-72" d="M 2631 2963 
Q 2534 3019 2420 3045 
Q 2306 3072 2169 3072 
Q 1681 3072 1420 2755 
Q 1159 2438 1159 1844 
L 1159 0 
L 581 0 
L 581 3500 
L 1159 3500 
L 1159 2956 
Q 1341 3275 1631 3429 
Q 1922 3584 2338 3584 
Q 2397 3584 2469 3576 
Q 2541 3569 2628 3553 
L 2631 2963 
z
" transform="scale(0.015625)"/>
      </defs>
      <use xlink:href="#DejaVuSans-50"/>
      <use xlink:href="#DejaVuSans-6f" x="56.677734"/>
      <use xlink:href="#DejaVuSans-6c" x="117.859375"/>
      <use xlink:href="#DejaVuSans-69" x="145.642578"/>
      <use xlink:href="#DejaVuSans-63" x="173.425781"/>
      <use xlink:href="#DejaVuSans-79" x="228.40625"/>
      <use xlink:href="#DejaVuSans-20" x="287.585938"/>
      <use xlink:href="#DejaVuSans-76" x="319.373047"/>
      <use xlink:href="#DejaVuSans-61" x="378.552734"/>
      <use xlink:href="#DejaVuSans-6c" x="439.832031"/>
      <use xlink:href="#DejaVuSans-75" x="467.615234"/>
      <use xlink:href="#DejaVuSans-65" x="530.994141"/>
      <use xlink:href="#DejaVuSans-20" x="592.517578"/>
      <use xlink:href="#DejaVuSans-65" x="624.304688"/>
      <use xlink:href="#DejaVuSans-72" x="685.828125"/>
      <use xlink:href="#DejaVuSans-72" x="725.191406"/>
      <use xlink:href="#DejaVuSans-6f" x="764.054688"/>
      <use xlink:href="#DejaVuSans-72" x="825.236328"/>
     </g>
    </g>
   </g>
   <g id="line2d_29">
    <path d="M 69.218182 259.654728 
L 74.376888 254.797847 
L 79.535593 261.908891 
L 84.694299 261.891632 
L 89.853005 252.921049 
L 95.01171 253.602857 
L 100.170416 253.443864 
L 105.329122 252.357541 
L 110.487827 247.694805 
L 115.646533 253.638841 
L 120.805239 253.689987 
L 125.963945 258.794308 
L 131.12265 260.699414 
L 136.281356 253.092156 
L 141.440062 252.83063 
L 146.598767 267.274945 
L 151.757473 257.034951 
L 156.916179 256.143996 
L 162.074884 255.496875 
L 167.23359 254.859895 
L 172.392296 256.190197 
L 177.551002 257.569751 
L 182.709707 257.413328 
L 187.868413 255.439636 
L 193.027119 257.715235 
L 198.185824 259.022245 
L 203.34453 274.054309 
L 208.503236 274.299184 
L 213.661941 257.651382 
L 218.820647 262.015287 
L 223.979353 270.720108 
L 229.138059 264.110095 
L 234.296764 253.837189 
L 239.45547 255.859238 
L 244.614176 259.914536 
L 249.772881 235.921095 
L 254.931587 246.375006 
L 260.090293 203.097764 
L 265.248998 208.115491 
L 270.407704 235.004189 
L 275.56641 199.416945 
L 280.725116 220.44063 
L 285.883821 166.938832 
L 291.042527 249.071459 
L 296.201233 245.489011 
L 301.359938 202.007197 
L 306.518644 253.964633 
L 311.67735 255.809435 
L 316.836055 193.070266 
L 321.994761 170.097879 
L 327.153467 159.341302 
L 332.312173 252.388739 
L 337.470878 230.121695 
L 342.629584 240.155401 
L 347.78829 210.75155 
L 352.946995 211.626936 
L 358.105701 195.216301 
L 363.264407 133.103694 
L 368.423112 92.392998 
L 373.581818 87.864051 
" clip-path="url(#pa118605c88)" style="fill: none; stroke: #9d02d7; stroke-width: 1.5; stroke-linecap: square"/>
    <defs>
     <path id="m15911debfe" d="M 0 -2 
L -2 2 
L 2 2 
z
" style="stroke: #9d02d7; stroke-linejoin: miter"/>
    </defs>
    <g clip-path="url(#pa118605c88)">
     <use xlink:href="#m15911debfe" x="69.218182" y="259.654728" style="fill: #9d02d7; stroke: #9d02d7; stroke-linejoin: miter"/>
     <use xlink:href="#m15911debfe" x="74.376888" y="254.797847" style="fill: #9d02d7; stroke: #9d02d7; stroke-linejoin: miter"/>
     <use xlink:href="#m15911debfe" x="79.535593" y="261.908891" style="fill: #9d02d7; stroke: #9d02d7; stroke-linejoin: miter"/>
     <use xlink:href="#m15911debfe" x="84.694299" y="261.891632" style="fill: #9d02d7; stroke: #9d02d7; stroke-linejoin: miter"/>
     <use xlink:href="#m15911debfe" x="89.853005" y="252.921049" style="fill: #9d02d7; stroke: #9d02d7; stroke-linejoin: miter"/>
     <use xlink:href="#m15911debfe" x="95.01171" y="253.602857" style="fill: #9d02d7; stroke: #9d02d7; stroke-linejoin: miter"/>
     <use xlink:href="#m15911debfe" x="100.170416" y="253.443864" style="fill: #9d02d7; stroke: #9d02d7; stroke-linejoin: miter"/>
     <use xlink:href="#m15911debfe" x="105.329122" y="252.357541" style="fill: #9d02d7; stroke: #9d02d7; stroke-linejoin: miter"/>
     <use xlink:href="#m15911debfe" x="110.487827" y="247.694805" style="fill: #9d02d7; stroke: #9d02d7; stroke-linejoin: miter"/>
     <use xlink:href="#m15911debfe" x="115.646533" y="253.638841" style="fill: #9d02d7; stroke: #9d02d7; stroke-linejoin: miter"/>
     <use xlink:href="#m15911debfe" x="120.805239" y="253.689987" style="fill: #9d02d7; stroke: #9d02d7; stroke-linejoin: miter"/>
     <use xlink:href="#m15911debfe" x="125.963945" y="258.794308" style="fill: #9d02d7; stroke: #9d02d7; stroke-linejoin: miter"/>
     <use xlink:href="#m15911debfe" x="131.12265" y="260.699414" style="fill: #9d02d7; stroke: #9d02d7; stroke-linejoin: miter"/>
     <use xlink:href="#m15911debfe" x="136.281356" y="253.092156" style="fill: #9d02d7; stroke: #9d02d7; stroke-linejoin: miter"/>
     <use xlink:href="#m15911debfe" x="141.440062" y="252.83063" style="fill: #9d02d7; stroke: #9d02d7; stroke-linejoin: miter"/>
     <use xlink:href="#m15911debfe" x="146.598767" y="267.274945" style="fill: #9d02d7; stroke: #9d02d7; stroke-linejoin: miter"/>
     <use xlink:href="#m15911debfe" x="151.757473" y="257.034951" style="fill: #9d02d7; stroke: #9d02d7; stroke-linejoin: miter"/>
     <use xlink:href="#m15911debfe" x="156.916179" y="256.143996" style="fill: #9d02d7; stroke: #9d02d7; stroke-linejoin: miter"/>
     <use xlink:href="#m15911debfe" x="162.074884" y="255.496875" style="fill: #9d02d7; stroke: #9d02d7; stroke-linejoin: miter"/>
     <use xlink:href="#m15911debfe" x="167.23359" y="254.859895" style="fill: #9d02d7; stroke: #9d02d7; stroke-linejoin: miter"/>
     <use xlink:href="#m15911debfe" x="172.392296" y="256.190197" style="fill: #9d02d7; stroke: #9d02d7; stroke-linejoin: miter"/>
     <use xlink:href="#m15911debfe" x="177.551002" y="257.569751" style="fill: #9d02d7; stroke: #9d02d7; stroke-linejoin: miter"/>
     <use xlink:href="#m15911debfe" x="182.709707" y="257.413328" style="fill: #9d02d7; stroke: #9d02d7; stroke-linejoin: miter"/>
     <use xlink:href="#m15911debfe" x="187.868413" y="255.439636" style="fill: #9d02d7; stroke: #9d02d7; stroke-linejoin: miter"/>
     <use xlink:href="#m15911debfe" x="193.027119" y="257.715235" style="fill: #9d02d7; stroke: #9d02d7; stroke-linejoin: miter"/>
     <use xlink:href="#m15911debfe" x="198.185824" y="259.022245" style="fill: #9d02d7; stroke: #9d02d7; stroke-linejoin: miter"/>
     <use xlink:href="#m15911debfe" x="203.34453" y="274.054309" style="fill: #9d02d7; stroke: #9d02d7; stroke-linejoin: miter"/>
     <use xlink:href="#m15911debfe" x="208.503236" y="274.299184" style="fill: #9d02d7; stroke: #9d02d7; stroke-linejoin: miter"/>
     <use xlink:href="#m15911debfe" x="213.661941" y="257.651382" style="fill: #9d02d7; stroke: #9d02d7; stroke-linejoin: miter"/>
     <use xlink:href="#m15911debfe" x="218.820647" y="262.015287" style="fill: #9d02d7; stroke: #9d02d7; stroke-linejoin: miter"/>
     <use xlink:href="#m15911debfe" x="223.979353" y="270.720108" style="fill: #9d02d7; stroke: #9d02d7; stroke-linejoin: miter"/>
     <use xlink:href="#m15911debfe" x="229.138059" y="264.110095" style="fill: #9d02d7; stroke: #9d02d7; stroke-linejoin: miter"/>
     <use xlink:href="#m15911debfe" x="234.296764" y="253.837189" style="fill: #9d02d7; stroke: #9d02d7; stroke-linejoin: miter"/>
     <use xlink:href="#m15911debfe" x="239.45547" y="255.859238" style="fill: #9d02d7; stroke: #9d02d7; stroke-linejoin: miter"/>
     <use xlink:href="#m15911debfe" x="244.614176" y="259.914536" style="fill: #9d02d7; stroke: #9d02d7; stroke-linejoin: miter"/>
     <use xlink:href="#m15911debfe" x="249.772881" y="235.921095" style="fill: #9d02d7; stroke: #9d02d7; stroke-linejoin: miter"/>
     <use xlink:href="#m15911debfe" x="254.931587" y="246.375006" style="fill: #9d02d7; stroke: #9d02d7; stroke-linejoin: miter"/>
     <use xlink:href="#m15911debfe" x="260.090293" y="203.097764" style="fill: #9d02d7; stroke: #9d02d7; stroke-linejoin: miter"/>
     <use xlink:href="#m15911debfe" x="265.248998" y="208.115491" style="fill: #9d02d7; stroke: #9d02d7; stroke-linejoin: miter"/>
     <use xlink:href="#m15911debfe" x="270.407704" y="235.004189" style="fill: #9d02d7; stroke: #9d02d7; stroke-linejoin: miter"/>
     <use xlink:href="#m15911debfe" x="275.56641" y="199.416945" style="fill: #9d02d7; stroke: #9d02d7; stroke-linejoin: miter"/>
     <use xlink:href="#m15911debfe" x="280.725116" y="220.44063" style="fill: #9d02d7; stroke: #9d02d7; stroke-linejoin: miter"/>
     <use xlink:href="#m15911debfe" x="285.883821" y="166.938832" style="fill: #9d02d7; stroke: #9d02d7; stroke-linejoin: miter"/>
     <use xlink:href="#m15911debfe" x="291.042527" y="249.071459" style="fill: #9d02d7; stroke: #9d02d7; stroke-linejoin: miter"/>
     <use xlink:href="#m15911debfe" x="296.201233" y="245.489011" style="fill: #9d02d7; stroke: #9d02d7; stroke-linejoin: miter"/>
     <use xlink:href="#m15911debfe" x="301.359938" y="202.007197" style="fill: #9d02d7; stroke: #9d02d7; stroke-linejoin: miter"/>
     <use xlink:href="#m15911debfe" x="306.518644" y="253.964633" style="fill: #9d02d7; stroke: #9d02d7; stroke-linejoin: miter"/>
     <use xlink:href="#m15911debfe" x="311.67735" y="255.809435" style="fill: #9d02d7; stroke: #9d02d7; stroke-linejoin: miter"/>
     <use xlink:href="#m15911debfe" x="316.836055" y="193.070266" style="fill: #9d02d7; stroke: #9d02d7; stroke-linejoin: miter"/>
     <use xlink:href="#m15911debfe" x="321.994761" y="170.097879" style="fill: #9d02d7; stroke: #9d02d7; stroke-linejoin: miter"/>
     <use xlink:href="#m15911debfe" x="327.153467" y="159.341302" style="fill: #9d02d7; stroke: #9d02d7; stroke-linejoin: miter"/>
     <use xlink:href="#m15911debfe" x="332.312173" y="252.388739" style="fill: #9d02d7; stroke: #9d02d7; stroke-linejoin: miter"/>
     <use xlink:href="#m15911debfe" x="337.470878" y="230.121695" style="fill: #9d02d7; stroke: #9d02d7; stroke-linejoin: miter"/>
     <use xlink:href="#m15911debfe" x="342.629584" y="240.155401" style="fill: #9d02d7; stroke: #9d02d7; stroke-linejoin: miter"/>
     <use xlink:href="#m15911debfe" x="347.78829" y="210.75155" style="fill: #9d02d7; stroke: #9d02d7; stroke-linejoin: miter"/>
     <use xlink:href="#m15911debfe" x="352.946995" y="211.626936" style="fill: #9d02d7; stroke: #9d02d7; stroke-linejoin: miter"/>
     <use xlink:href="#m15911debfe" x="358.105701" y="195.216301" style="fill: #9d02d7; stroke: #9d02d7; stroke-linejoin: miter"/>
     <use xlink:href="#m15911debfe" x="363.264407" y="133.103694" style="fill: #9d02d7; stroke: #9d02d7; stroke-linejoin: miter"/>
     <use xlink:href="#m15911debfe" x="368.423112" y="92.392998" style="fill: #9d02d7; stroke: #9d02d7; stroke-linejoin: miter"/>
     <use xlink:href="#m15911debfe" x="373.581818" y="87.864051" style="fill: #9d02d7; stroke: #9d02d7; stroke-linejoin: miter"/>
    </g>
   </g>
   <g id="line2d_30">
    <path d="M 69.218182 252.97956 
L 74.376888 252.908818 
L 79.535593 261.667692 
L 84.694299 260.624052 
L 89.853005 261.361764 
L 95.01171 255.342754 
L 100.170416 254.013482 
L 105.329122 259.729403 
L 110.487827 262.279568 
L 115.646533 262.688665 
L 120.805239 233.098289 
L 125.963945 253.881589 
L 131.12265 259.715243 
L 136.281356 259.547869 
L 141.440062 259.103278 
L 146.598767 258.001955 
L 151.757473 256.689803 
L 156.916179 253.956367 
L 162.074884 262.649037 
L 167.23359 262.248955 
L 172.392296 259.809608 
L 177.551002 255.88899 
L 182.709707 257.100689 
L 187.868413 262.879197 
L 193.027119 249.8587 
L 198.185824 254.193649 
L 203.34453 258.336731 
L 208.503236 257.43946 
L 213.661941 257.911062 
L 218.820647 253.492907 
L 223.979353 156.500154 
L 229.138059 253.876794 
L 234.296764 254.054744 
L 239.45547 253.157936 
L 244.614176 253.990012 
L 249.772881 253.864465 
L 254.931587 253.931834 
L 260.090293 254.388972 
L 265.248998 254.399486 
L 270.407704 255.084519 
L 275.56641 256.18932 
L 280.725116 261.739983 
L 285.883821 260.167511 
L 291.042527 248.930411 
L 296.201233 246.168987 
L 301.359938 260.632027 
L 306.518644 261.205531 
L 311.67735 160.209788 
L 316.836055 190.829606 
L 321.994761 171.290269 
L 327.153467 110.861852 
L 332.312173 179.399546 
L 337.470878 254.974927 
L 342.629584 246.57462 
L 347.78829 250.897816 
L 352.946995 95.067609 
L 358.105701 246.188814 
L 363.264407 256.909641 
L 368.423112 207.616001 
L 373.581818 60.908527 
" clip-path="url(#pa118605c88)" style="fill: none; stroke: #0000ff; stroke-width: 1.5; stroke-linecap: square"/>
    <defs>
     <path id="m3f7482b905" d="M 0 2 
C 0.530406 2 1.03916 1.789267 1.414214 1.414214 
C 1.789267 1.03916 2 0.530406 2 0 
C 2 -0.530406 1.789267 -1.03916 1.414214 -1.414214 
C 1.03916 -1.789267 0.530406 -2 0 -2 
C -0.530406 -2 -1.03916 -1.789267 -1.414214 -1.414214 
C -1.789267 -1.03916 -2 -0.530406 -2 0 
C -2 0.530406 -1.789267 1.03916 -1.414214 1.414214 
C -1.03916 1.789267 -0.530406 2 0 2 
z
" style="stroke: #0000ff"/>
    </defs>
    <g clip-path="url(#pa118605c88)">
     <use xlink:href="#m3f7482b905" x="69.218182" y="252.97956" style="fill: #0000ff; stroke: #0000ff"/>
     <use xlink:href="#m3f7482b905" x="74.376888" y="252.908818" style="fill: #0000ff; stroke: #0000ff"/>
     <use xlink:href="#m3f7482b905" x="79.535593" y="261.667692" style="fill: #0000ff; stroke: #0000ff"/>
     <use xlink:href="#m3f7482b905" x="84.694299" y="260.624052" style="fill: #0000ff; stroke: #0000ff"/>
     <use xlink:href="#m3f7482b905" x="89.853005" y="261.361764" style="fill: #0000ff; stroke: #0000ff"/>
     <use xlink:href="#m3f7482b905" x="95.01171" y="255.342754" style="fill: #0000ff; stroke: #0000ff"/>
     <use xlink:href="#m3f7482b905" x="100.170416" y="254.013482" style="fill: #0000ff; stroke: #0000ff"/>
     <use xlink:href="#m3f7482b905" x="105.329122" y="259.729403" style="fill: #0000ff; stroke: #0000ff"/>
     <use xlink:href="#m3f7482b905" x="110.487827" y="262.279568" style="fill: #0000ff; stroke: #0000ff"/>
     <use xlink:href="#m3f7482b905" x="115.646533" y="262.688665" style="fill: #0000ff; stroke: #0000ff"/>
     <use xlink:href="#m3f7482b905" x="120.805239" y="233.098289" style="fill: #0000ff; stroke: #0000ff"/>
     <use xlink:href="#m3f7482b905" x="125.963945" y="253.881589" style="fill: #0000ff; stroke: #0000ff"/>
     <use xlink:href="#m3f7482b905" x="131.12265" y="259.715243" style="fill: #0000ff; stroke: #0000ff"/>
     <use xlink:href="#m3f7482b905" x="136.281356" y="259.547869" style="fill: #0000ff; stroke: #0000ff"/>
     <use xlink:href="#m3f7482b905" x="141.440062" y="259.103278" style="fill: #0000ff; stroke: #0000ff"/>
     <use xlink:href="#m3f7482b905" x="146.598767" y="258.001955" style="fill: #0000ff; stroke: #0000ff"/>
     <use xlink:href="#m3f7482b905" x="151.757473" y="256.689803" style="fill: #0000ff; stroke: #0000ff"/>
     <use xlink:href="#m3f7482b905" x="156.916179" y="253.956367" style="fill: #0000ff; stroke: #0000ff"/>
     <use xlink:href="#m3f7482b905" x="162.074884" y="262.649037" style="fill: #0000ff; stroke: #0000ff"/>
     <use xlink:href="#m3f7482b905" x="167.23359" y="262.248955" style="fill: #0000ff; stroke: #0000ff"/>
     <use xlink:href="#m3f7482b905" x="172.392296" y="259.809608" style="fill: #0000ff; stroke: #0000ff"/>
     <use xlink:href="#m3f7482b905" x="177.551002" y="255.88899" style="fill: #0000ff; stroke: #0000ff"/>
     <use xlink:href="#m3f7482b905" x="182.709707" y="257.100689" style="fill: #0000ff; stroke: #0000ff"/>
     <use xlink:href="#m3f7482b905" x="187.868413" y="262.879197" style="fill: #0000ff; stroke: #0000ff"/>
     <use xlink:href="#m3f7482b905" x="193.027119" y="249.8587" style="fill: #0000ff; stroke: #0000ff"/>
     <use xlink:href="#m3f7482b905" x="198.185824" y="254.193649" style="fill: #0000ff; stroke: #0000ff"/>
     <use xlink:href="#m3f7482b905" x="203.34453" y="258.336731" style="fill: #0000ff; stroke: #0000ff"/>
     <use xlink:href="#m3f7482b905" x="208.503236" y="257.43946" style="fill: #0000ff; stroke: #0000ff"/>
     <use xlink:href="#m3f7482b905" x="213.661941" y="257.911062" style="fill: #0000ff; stroke: #0000ff"/>
     <use xlink:href="#m3f7482b905" x="218.820647" y="253.492907" style="fill: #0000ff; stroke: #0000ff"/>
     <use xlink:href="#m3f7482b905" x="223.979353" y="156.500154" style="fill: #0000ff; stroke: #0000ff"/>
     <use xlink:href="#m3f7482b905" x="229.138059" y="253.876794" style="fill: #0000ff; stroke: #0000ff"/>
     <use xlink:href="#m3f7482b905" x="234.296764" y="254.054744" style="fill: #0000ff; stroke: #0000ff"/>
     <use xlink:href="#m3f7482b905" x="239.45547" y="253.157936" style="fill: #0000ff; stroke: #0000ff"/>
     <use xlink:href="#m3f7482b905" x="244.614176" y="253.990012" style="fill: #0000ff; stroke: #0000ff"/>
     <use xlink:href="#m3f7482b905" x="249.772881" y="253.864465" style="fill: #0000ff; stroke: #0000ff"/>
     <use xlink:href="#m3f7482b905" x="254.931587" y="253.931834" style="fill: #0000ff; stroke: #0000ff"/>
     <use xlink:href="#m3f7482b905" x="260.090293" y="254.388972" style="fill: #0000ff; stroke: #0000ff"/>
     <use xlink:href="#m3f7482b905" x="265.248998" y="254.399486" style="fill: #0000ff; stroke: #0000ff"/>
     <use xlink:href="#m3f7482b905" x="270.407704" y="255.084519" style="fill: #0000ff; stroke: #0000ff"/>
     <use xlink:href="#m3f7482b905" x="275.56641" y="256.18932" style="fill: #0000ff; stroke: #0000ff"/>
     <use xlink:href="#m3f7482b905" x="280.725116" y="261.739983" style="fill: #0000ff; stroke: #0000ff"/>
     <use xlink:href="#m3f7482b905" x="285.883821" y="260.167511" style="fill: #0000ff; stroke: #0000ff"/>
     <use xlink:href="#m3f7482b905" x="291.042527" y="248.930411" style="fill: #0000ff; stroke: #0000ff"/>
     <use xlink:href="#m3f7482b905" x="296.201233" y="246.168987" style="fill: #0000ff; stroke: #0000ff"/>
     <use xlink:href="#m3f7482b905" x="301.359938" y="260.632027" style="fill: #0000ff; stroke: #0000ff"/>
     <use xlink:href="#m3f7482b905" x="306.518644" y="261.205531" style="fill: #0000ff; stroke: #0000ff"/>
     <use xlink:href="#m3f7482b905" x="311.67735" y="160.209788" style="fill: #0000ff; stroke: #0000ff"/>
     <use xlink:href="#m3f7482b905" x="316.836055" y="190.829606" style="fill: #0000ff; stroke: #0000ff"/>
     <use xlink:href="#m3f7482b905" x="321.994761" y="171.290269" style="fill: #0000ff; stroke: #0000ff"/>
     <use xlink:href="#m3f7482b905" x="327.153467" y="110.861852" style="fill: #0000ff; stroke: #0000ff"/>
     <use xlink:href="#m3f7482b905" x="332.312173" y="179.399546" style="fill: #0000ff; stroke: #0000ff"/>
     <use xlink:href="#m3f7482b905" x="337.470878" y="254.974927" style="fill: #0000ff; stroke: #0000ff"/>
     <use xlink:href="#m3f7482b905" x="342.629584" y="246.57462" style="fill: #0000ff; stroke: #0000ff"/>
     <use xlink:href="#m3f7482b905" x="347.78829" y="250.897816" style="fill: #0000ff; stroke: #0000ff"/>
     <use xlink:href="#m3f7482b905" x="352.946995" y="95.067609" style="fill: #0000ff; stroke: #0000ff"/>
     <use xlink:href="#m3f7482b905" x="358.105701" y="246.188814" style="fill: #0000ff; stroke: #0000ff"/>
     <use xlink:href="#m3f7482b905" x="363.264407" y="256.909641" style="fill: #0000ff; stroke: #0000ff"/>
     <use xlink:href="#m3f7482b905" x="368.423112" y="207.616001" style="fill: #0000ff; stroke: #0000ff"/>
     <use xlink:href="#m3f7482b905" x="373.581818" y="60.908527" style="fill: #0000ff; stroke: #0000ff"/>
    </g>
   </g>
   <g id="line2d_31">
    <path d="M 69.218182 262.047503 
L 74.376888 252.913407 
L 79.535593 254.409732 
L 84.694299 247.129427 
L 89.853005 253.144142 
L 95.01171 252.908818 
L 100.170416 253.094399 
L 105.329122 252.908818 
L 110.487827 252.912375 
L 115.646533 252.912733 
L 120.805239 253.70231 
L 125.963945 257.212511 
L 131.12265 262.840426 
L 136.281356 253.731313 
L 141.440062 256.221299 
L 146.598767 248.466261 
L 151.757473 255.55015 
L 156.916179 255.215648 
L 162.074884 252.69527 
L 167.23359 260.138036 
L 172.392296 258.104622 
L 177.551002 261.962258 
L 182.709707 258.025175 
L 187.868413 252.476745 
L 193.027119 212.948129 
L 198.185824 263.226281 
L 203.34453 244.917486 
L 208.503236 259.315831 
L 213.661941 262.367842 
L 218.820647 258.762718 
L 223.979353 256.714187 
L 229.138059 262.029871 
L 234.296764 254.547976 
L 239.45547 255.425258 
L 244.614176 258.598485 
L 249.772881 246.276726 
L 254.931587 247.844417 
L 260.090293 257.182322 
L 265.248998 253.46484 
L 270.407704 260.350888 
L 275.56641 256.27034 
L 280.725116 252.5789 
L 285.883821 247.467758 
L 291.042527 252.149473 
L 296.201233 247.488357 
L 301.359938 158.680113 
L 306.518644 253.236016 
L 311.67735 254.151413 
L 316.836055 252.462315 
L 321.994761 253.690944 
L 327.153467 251.75775 
L 332.312173 236.774875 
L 337.470878 222.953212 
L 342.629584 252.455518 
L 347.78829 226.571928 
L 352.946995 104.117746 
L 358.105701 104.127265 
L 363.264407 258.765684 
L 368.423112 228.757884 
L 373.581818 216.164086 
" clip-path="url(#pa118605c88)" style="fill: none; stroke: #ff7763; stroke-width: 1.5; stroke-linecap: square"/>
    <defs>
     <path id="mf0a548bd8b" d="M -2 2 
L 2 -2 
M -2 -2 
L 2 2 
" style="stroke: #ff7763"/>
    </defs>
    <g clip-path="url(#pa118605c88)">
     <use xlink:href="#mf0a548bd8b" x="69.218182" y="262.047503" style="fill: #ff7763; stroke: #ff7763"/>
     <use xlink:href="#mf0a548bd8b" x="74.376888" y="252.913407" style="fill: #ff7763; stroke: #ff7763"/>
     <use xlink:href="#mf0a548bd8b" x="79.535593" y="254.409732" style="fill: #ff7763; stroke: #ff7763"/>
     <use xlink:href="#mf0a548bd8b" x="84.694299" y="247.129427" style="fill: #ff7763; stroke: #ff7763"/>
     <use xlink:href="#mf0a548bd8b" x="89.853005" y="253.144142" style="fill: #ff7763; stroke: #ff7763"/>
     <use xlink:href="#mf0a548bd8b" x="95.01171" y="252.908818" style="fill: #ff7763; stroke: #ff7763"/>
     <use xlink:href="#mf0a548bd8b" x="100.170416" y="253.094399" style="fill: #ff7763; stroke: #ff7763"/>
     <use xlink:href="#mf0a548bd8b" x="105.329122" y="252.908818" style="fill: #ff7763; stroke: #ff7763"/>
     <use xlink:href="#mf0a548bd8b" x="110.487827" y="252.912375" style="fill: #ff7763; stroke: #ff7763"/>
     <use xlink:href="#mf0a548bd8b" x="115.646533" y="252.912733" style="fill: #ff7763; stroke: #ff7763"/>
     <use xlink:href="#mf0a548bd8b" x="120.805239" y="253.70231" style="fill: #ff7763; stroke: #ff7763"/>
     <use xlink:href="#mf0a548bd8b" x="125.963945" y="257.212511" style="fill: #ff7763; stroke: #ff7763"/>
     <use xlink:href="#mf0a548bd8b" x="131.12265" y="262.840426" style="fill: #ff7763; stroke: #ff7763"/>
     <use xlink:href="#mf0a548bd8b" x="136.281356" y="253.731313" style="fill: #ff7763; stroke: #ff7763"/>
     <use xlink:href="#mf0a548bd8b" x="141.440062" y="256.221299" style="fill: #ff7763; stroke: #ff7763"/>
     <use xlink:href="#mf0a548bd8b" x="146.598767" y="248.466261" style="fill: #ff7763; stroke: #ff7763"/>
     <use xlink:href="#mf0a548bd8b" x="151.757473" y="255.55015" style="fill: #ff7763; stroke: #ff7763"/>
     <use xlink:href="#mf0a548bd8b" x="156.916179" y="255.215648" style="fill: #ff7763; stroke: #ff7763"/>
     <use xlink:href="#mf0a548bd8b" x="162.074884" y="252.69527" style="fill: #ff7763; stroke: #ff7763"/>
     <use xlink:href="#mf0a548bd8b" x="167.23359" y="260.138036" style="fill: #ff7763; stroke: #ff7763"/>
     <use xlink:href="#mf0a548bd8b" x="172.392296" y="258.104622" style="fill: #ff7763; stroke: #ff7763"/>
     <use xlink:href="#mf0a548bd8b" x="177.551002" y="261.962258" style="fill: #ff7763; stroke: #ff7763"/>
     <use xlink:href="#mf0a548bd8b" x="182.709707" y="258.025175" style="fill: #ff7763; stroke: #ff7763"/>
     <use xlink:href="#mf0a548bd8b" x="187.868413" y="252.476745" style="fill: #ff7763; stroke: #ff7763"/>
     <use xlink:href="#mf0a548bd8b" x="193.027119" y="212.948129" style="fill: #ff7763; stroke: #ff7763"/>
     <use xlink:href="#mf0a548bd8b" x="198.185824" y="263.226281" style="fill: #ff7763; stroke: #ff7763"/>
     <use xlink:href="#mf0a548bd8b" x="203.34453" y="244.917486" style="fill: #ff7763; stroke: #ff7763"/>
     <use xlink:href="#mf0a548bd8b" x="208.503236" y="259.315831" style="fill: #ff7763; stroke: #ff7763"/>
     <use xlink:href="#mf0a548bd8b" x="213.661941" y="262.367842" style="fill: #ff7763; stroke: #ff7763"/>
     <use xlink:href="#mf0a548bd8b" x="218.820647" y="258.762718" style="fill: #ff7763; stroke: #ff7763"/>
     <use xlink:href="#mf0a548bd8b" x="223.979353" y="256.714187" style="fill: #ff7763; stroke: #ff7763"/>
     <use xlink:href="#mf0a548bd8b" x="229.138059" y="262.029871" style="fill: #ff7763; stroke: #ff7763"/>
     <use xlink:href="#mf0a548bd8b" x="234.296764" y="254.547976" style="fill: #ff7763; stroke: #ff7763"/>
     <use xlink:href="#mf0a548bd8b" x="239.45547" y="255.425258" style="fill: #ff7763; stroke: #ff7763"/>
     <use xlink:href="#mf0a548bd8b" x="244.614176" y="258.598485" style="fill: #ff7763; stroke: #ff7763"/>
     <use xlink:href="#mf0a548bd8b" x="249.772881" y="246.276726" style="fill: #ff7763; stroke: #ff7763"/>
     <use xlink:href="#mf0a548bd8b" x="254.931587" y="247.844417" style="fill: #ff7763; stroke: #ff7763"/>
     <use xlink:href="#mf0a548bd8b" x="260.090293" y="257.182322" style="fill: #ff7763; stroke: #ff7763"/>
     <use xlink:href="#mf0a548bd8b" x="265.248998" y="253.46484" style="fill: #ff7763; stroke: #ff7763"/>
     <use xlink:href="#mf0a548bd8b" x="270.407704" y="260.350888" style="fill: #ff7763; stroke: #ff7763"/>
     <use xlink:href="#mf0a548bd8b" x="275.56641" y="256.27034" style="fill: #ff7763; stroke: #ff7763"/>
     <use xlink:href="#mf0a548bd8b" x="280.725116" y="252.5789" style="fill: #ff7763; stroke: #ff7763"/>
     <use xlink:href="#mf0a548bd8b" x="285.883821" y="247.467758" style="fill: #ff7763; stroke: #ff7763"/>
     <use xlink:href="#mf0a548bd8b" x="291.042527" y="252.149473" style="fill: #ff7763; stroke: #ff7763"/>
     <use xlink:href="#mf0a548bd8b" x="296.201233" y="247.488357" style="fill: #ff7763; stroke: #ff7763"/>
     <use xlink:href="#mf0a548bd8b" x="301.359938" y="158.680113" style="fill: #ff7763; stroke: #ff7763"/>
     <use xlink:href="#mf0a548bd8b" x="306.518644" y="253.236016" style="fill: #ff7763; stroke: #ff7763"/>
     <use xlink:href="#mf0a548bd8b" x="311.67735" y="254.151413" style="fill: #ff7763; stroke: #ff7763"/>
     <use xlink:href="#mf0a548bd8b" x="316.836055" y="252.462315" style="fill: #ff7763; stroke: #ff7763"/>
     <use xlink:href="#mf0a548bd8b" x="321.994761" y="253.690944" style="fill: #ff7763; stroke: #ff7763"/>
     <use xlink:href="#mf0a548bd8b" x="327.153467" y="251.75775" style="fill: #ff7763; stroke: #ff7763"/>
     <use xlink:href="#mf0a548bd8b" x="332.312173" y="236.774875" style="fill: #ff7763; stroke: #ff7763"/>
     <use xlink:href="#mf0a548bd8b" x="337.470878" y="222.953212" style="fill: #ff7763; stroke: #ff7763"/>
     <use xlink:href="#mf0a548bd8b" x="342.629584" y="252.455518" style="fill: #ff7763; stroke: #ff7763"/>
     <use xlink:href="#mf0a548bd8b" x="347.78829" y="226.571928" style="fill: #ff7763; stroke: #ff7763"/>
     <use xlink:href="#mf0a548bd8b" x="352.946995" y="104.117746" style="fill: #ff7763; stroke: #ff7763"/>
     <use xlink:href="#mf0a548bd8b" x="358.105701" y="104.127265" style="fill: #ff7763; stroke: #ff7763"/>
     <use xlink:href="#mf0a548bd8b" x="363.264407" y="258.765684" style="fill: #ff7763; stroke: #ff7763"/>
     <use xlink:href="#mf0a548bd8b" x="368.423112" y="228.757884" style="fill: #ff7763; stroke: #ff7763"/>
     <use xlink:href="#mf0a548bd8b" x="373.581818" y="216.164086" style="fill: #ff7763; stroke: #ff7763"/>
    </g>
   </g>
   <g id="patch_3">
    <path d="M 54 252 
L 54 34.56 
" style="fill: none; stroke: #000000; stroke-width: 0.8; stroke-linejoin: miter; stroke-linecap: square"/>
   </g>
   <g id="patch_4">
    <path d="M 388.8 252 
L 388.8 34.56 
" style="fill: none; stroke: #000000; stroke-width: 0.8; stroke-linejoin: miter; stroke-linecap: square"/>
   </g>
   <g id="patch_5">
    <path d="M 54 252 
L 388.8 252 
" style="fill: none; stroke: #000000; stroke-width: 0.8; stroke-linejoin: miter; stroke-linecap: square"/>
   </g>
   <g id="patch_6">
    <path d="M 54 34.56 
L 388.8 34.56 
" style="fill: none; stroke: #000000; stroke-width: 0.8; stroke-linejoin: miter; stroke-linecap: square"/>
   </g>
   <g id="text_17">
    <!-- R-max agent policy with m = 25 -->
    <g transform="translate(124.56 28.56)scale(0.12 -0.12)">
     <defs>
      <path id="DejaVuSans-52" d="M 2841 2188 
Q 3044 2119 3236 1894 
Q 3428 1669 3622 1275 
L 4263 0 
L 3584 0 
L 2988 1197 
Q 2756 1666 2539 1819 
Q 2322 1972 1947 1972 
L 1259 1972 
L 1259 0 
L 628 0 
L 628 4666 
L 2053 4666 
Q 2853 4666 3247 4331 
Q 3641 3997 3641 3322 
Q 3641 2881 3436 2590 
Q 3231 2300 2841 2188 
z
M 1259 4147 
L 1259 2491 
L 2053 2491 
Q 2509 2491 2742 2702 
Q 2975 2913 2975 3322 
Q 2975 3731 2742 3939 
Q 2509 4147 2053 4147 
L 1259 4147 
z
" transform="scale(0.015625)"/>
      <path id="DejaVuSans-2d" d="M 313 2009 
L 1997 2009 
L 1997 1497 
L 313 1497 
L 313 2009 
z
" transform="scale(0.015625)"/>
      <path id="DejaVuSans-6d" d="M 3328 2828 
Q 3544 3216 3844 3400 
Q 4144 3584 4550 3584 
Q 5097 3584 5394 3201 
Q 5691 2819 5691 2113 
L 5691 0 
L 5113 0 
L 5113 2094 
Q 5113 2597 4934 2840 
Q 4756 3084 4391 3084 
Q 3944 3084 3684 2787 
Q 3425 2491 3425 1978 
L 3425 0 
L 2847 0 
L 2847 2094 
Q 2847 2600 2669 2842 
Q 2491 3084 2119 3084 
Q 1678 3084 1418 2786 
Q 1159 2488 1159 1978 
L 1159 0 
L 581 0 
L 581 3500 
L 1159 3500 
L 1159 2956 
Q 1356 3278 1631 3431 
Q 1906 3584 2284 3584 
Q 2666 3584 2933 3390 
Q 3200 3197 3328 2828 
z
" transform="scale(0.015625)"/>
      <path id="DejaVuSans-78" d="M 3513 3500 
L 2247 1797 
L 3578 0 
L 2900 0 
L 1881 1375 
L 863 0 
L 184 0 
L 1544 1831 
L 300 3500 
L 978 3500 
L 1906 2253 
L 2834 3500 
L 3513 3500 
z
" transform="scale(0.015625)"/>
      <path id="DejaVuSans-67" d="M 2906 1791 
Q 2906 2416 2648 2759 
Q 2391 3103 1925 3103 
Q 1463 3103 1205 2759 
Q 947 2416 947 1791 
Q 947 1169 1205 825 
Q 1463 481 1925 481 
Q 2391 481 2648 825 
Q 2906 1169 2906 1791 
z
M 3481 434 
Q 3481 -459 3084 -895 
Q 2688 -1331 1869 -1331 
Q 1566 -1331 1297 -1286 
Q 1028 -1241 775 -1147 
L 775 -588 
Q 1028 -725 1275 -790 
Q 1522 -856 1778 -856 
Q 2344 -856 2625 -561 
Q 2906 -266 2906 331 
L 2906 616 
Q 2728 306 2450 153 
Q 2172 0 1784 0 
Q 1141 0 747 490 
Q 353 981 353 1791 
Q 353 2603 747 3093 
Q 1141 3584 1784 3584 
Q 2172 3584 2450 3431 
Q 2728 3278 2906 2969 
L 2906 3500 
L 3481 3500 
L 3481 434 
z
" transform="scale(0.015625)"/>
      <path id="DejaVuSans-6e" d="M 3513 2113 
L 3513 0 
L 2938 0 
L 2938 2094 
Q 2938 2591 2744 2837 
Q 2550 3084 2163 3084 
Q 1697 3084 1428 2787 
Q 1159 2491 1159 1978 
L 1159 0 
L 581 0 
L 581 3500 
L 1159 3500 
L 1159 2956 
Q 1366 3272 1645 3428 
Q 1925 3584 2291 3584 
Q 2894 3584 3203 3211 
Q 3513 2838 3513 2113 
z
" transform="scale(0.015625)"/>
      <path id="DejaVuSans-77" d="M 269 3500 
L 844 3500 
L 1563 769 
L 2278 3500 
L 2956 3500 
L 3675 769 
L 4391 3500 
L 4966 3500 
L 4050 0 
L 3372 0 
L 2619 2869 
L 1863 0 
L 1184 0 
L 269 3500 
z
" transform="scale(0.015625)"/>
      <path id="DejaVuSans-68" d="M 3513 2113 
L 3513 0 
L 2938 0 
L 2938 2094 
Q 2938 2591 2744 2837 
Q 2550 3084 2163 3084 
Q 1697 3084 1428 2787 
Q 1159 2491 1159 1978 
L 1159 0 
L 581 0 
L 581 4863 
L 1159 4863 
L 1159 2956 
Q 1366 3272 1645 3428 
Q 1925 3584 2291 3584 
Q 2894 3584 3203 3211 
Q 3513 2838 3513 2113 
z
" transform="scale(0.015625)"/>
      <path id="DejaVuSans-3d" d="M 678 2906 
L 4684 2906 
L 4684 2381 
L 678 2381 
L 678 2906 
z
M 678 1631 
L 4684 1631 
L 4684 1100 
L 678 1100 
L 678 1631 
z
" transform="scale(0.015625)"/>
     </defs>
     <use xlink:href="#DejaVuSans-52"/>
     <use xlink:href="#DejaVuSans-2d" x="65.482422"/>
     <use xlink:href="#DejaVuSans-6d" x="101.566406"/>
     <use xlink:href="#DejaVuSans-61" x="198.978516"/>
     <use xlink:href="#DejaVuSans-78" x="260.257812"/>
     <use xlink:href="#DejaVuSans-20" x="319.4375"/>
     <use xlink:href="#DejaVuSans-61" x="351.224609"/>
     <use xlink:href="#DejaVuSans-67" x="412.503906"/>
     <use xlink:href="#DejaVuSans-65" x="475.980469"/>
     <use xlink:href="#DejaVuSans-6e" x="537.503906"/>
     <use xlink:href="#DejaVuSans-74" x="600.882812"/>
     <use xlink:href="#DejaVuSans-20" x="640.091797"/>
     <use xlink:href="#DejaVuSans-70" x="671.878906"/>
     <use xlink:href="#DejaVuSans-6f" x="735.355469"/>
     <use xlink:href="#DejaVuSans-6c" x="796.537109"/>
     <use xlink:href="#DejaVuSans-69" x="824.320312"/>
     <use xlink:href="#DejaVuSans-63" x="852.103516"/>
     <use xlink:href="#DejaVuSans-79" x="907.083984"/>
     <use xlink:href="#DejaVuSans-20" x="966.263672"/>
     <use xlink:href="#DejaVuSans-77" x="998.050781"/>
     <use xlink:href="#DejaVuSans-69" x="1079.837891"/>
     <use xlink:href="#DejaVuSans-74" x="1107.621094"/>
     <use xlink:href="#DejaVuSans-68" x="1146.830078"/>
     <use xlink:href="#DejaVuSans-20" x="1210.208984"/>
     <use xlink:href="#DejaVuSans-6d" x="1241.996094"/>
     <use xlink:href="#DejaVuSans-20" x="1339.408203"/>
     <use xlink:href="#DejaVuSans-3d" x="1371.195312"/>
     <use xlink:href="#DejaVuSans-20" x="1454.984375"/>
     <use xlink:href="#DejaVuSans-32" x="1486.771484"/>
     <use xlink:href="#DejaVuSans-35" x="1550.394531"/>
    </g>
   </g>
   <g id="legend_1">
    <g id="patch_7">
     <path d="M 61 87.42875 
L 211.9875 87.42875 
Q 213.9875 87.42875 213.9875 85.42875 
L 213.9875 41.56 
Q 213.9875 39.56 211.9875 39.56 
L 61 39.56 
Q 59 39.56 59 41.56 
L 59 85.42875 
Q 59 87.42875 61 87.42875 
z
" style="fill: #ffffff; opacity: 0.8; stroke: #cccccc; stroke-linejoin: miter"/>
    </g>
    <g id="line2d_32">
     <path d="M 63 47.658437 
L 73 47.658437 
L 83 47.658437 
" style="fill: none; stroke: #9d02d7; stroke-width: 1.5; stroke-linecap: square"/>
     <g>
      <use xlink:href="#m15911debfe" x="73" y="47.658437" style="fill: #9d02d7; stroke: #9d02d7; stroke-linejoin: miter"/>
     </g>
    </g>
    <g id="text_18">
     <!-- m_uncertain_states=30 -->
     <g transform="translate(91 51.158437)scale(0.1 -0.1)">
      <defs>
       <path id="DejaVuSans-5f" d="M 3263 -1063 
L 3263 -1509 
L -63 -1509 
L -63 -1063 
L 3263 -1063 
z
" transform="scale(0.015625)"/>
      </defs>
      <use xlink:href="#DejaVuSans-6d"/>
      <use xlink:href="#DejaVuSans-5f" x="97.412109"/>
      <use xlink:href="#DejaVuSans-75" x="147.412109"/>
      <use xlink:href="#DejaVuSans-6e" x="210.791016"/>
      <use xlink:href="#DejaVuSans-63" x="274.169922"/>
      <use xlink:href="#DejaVuSans-65" x="329.150391"/>
      <use xlink:href="#DejaVuSans-72" x="390.673828"/>
      <use xlink:href="#DejaVuSans-74" x="431.787109"/>
      <use xlink:href="#DejaVuSans-61" x="470.996094"/>
      <use xlink:href="#DejaVuSans-69" x="532.275391"/>
      <use xlink:href="#DejaVuSans-6e" x="560.058594"/>
      <use xlink:href="#DejaVuSans-5f" x="623.4375"/>
      <use xlink:href="#DejaVuSans-73" x="673.4375"/>
      <use xlink:href="#DejaVuSans-74" x="725.537109"/>
      <use xlink:href="#DejaVuSans-61" x="764.746094"/>
      <use xlink:href="#DejaVuSans-74" x="826.025391"/>
      <use xlink:href="#DejaVuSans-65" x="865.234375"/>
      <use xlink:href="#DejaVuSans-73" x="926.757812"/>
      <use xlink:href="#DejaVuSans-3d" x="978.857422"/>
      <use xlink:href="#DejaVuSans-33" x="1062.646484"/>
      <use xlink:href="#DejaVuSans-30" x="1126.269531"/>
     </g>
    </g>
    <g id="line2d_33">
     <path d="M 63 62.614688 
L 73 62.614688 
L 83 62.614688 
" style="fill: none; stroke: #0000ff; stroke-width: 1.5; stroke-linecap: square"/>
     <g>
      <use xlink:href="#m3f7482b905" x="73" y="62.614688" style="fill: #0000ff; stroke: #0000ff"/>
     </g>
    </g>
    <g id="text_19">
     <!-- m_uncertain_states=35 -->
     <g transform="translate(91 66.114688)scale(0.1 -0.1)">
      <use xlink:href="#DejaVuSans-6d"/>
      <use xlink:href="#DejaVuSans-5f" x="97.412109"/>
      <use xlink:href="#DejaVuSans-75" x="147.412109"/>
      <use xlink:href="#DejaVuSans-6e" x="210.791016"/>
      <use xlink:href="#DejaVuSans-63" x="274.169922"/>
      <use xlink:href="#DejaVuSans-65" x="329.150391"/>
      <use xlink:href="#DejaVuSans-72" x="390.673828"/>
      <use xlink:href="#DejaVuSans-74" x="431.787109"/>
      <use xlink:href="#DejaVuSans-61" x="470.996094"/>
      <use xlink:href="#DejaVuSans-69" x="532.275391"/>
      <use xlink:href="#DejaVuSans-6e" x="560.058594"/>
      <use xlink:href="#DejaVuSans-5f" x="623.4375"/>
      <use xlink:href="#DejaVuSans-73" x="673.4375"/>
      <use xlink:href="#DejaVuSans-74" x="725.537109"/>
      <use xlink:href="#DejaVuSans-61" x="764.746094"/>
      <use xlink:href="#DejaVuSans-74" x="826.025391"/>
      <use xlink:href="#DejaVuSans-65" x="865.234375"/>
      <use xlink:href="#DejaVuSans-73" x="926.757812"/>
      <use xlink:href="#DejaVuSans-3d" x="978.857422"/>
      <use xlink:href="#DejaVuSans-33" x="1062.646484"/>
      <use xlink:href="#DejaVuSans-35" x="1126.269531"/>
     </g>
    </g>
    <g id="line2d_34">
     <path d="M 63 77.570937 
L 73 77.570937 
L 83 77.570937 
" style="fill: none; stroke: #ff7763; stroke-width: 1.5; stroke-linecap: square"/>
     <g>
      <use xlink:href="#mf0a548bd8b" x="73" y="77.570937" style="fill: #ff7763; stroke: #ff7763"/>
     </g>
    </g>
    <g id="text_20">
     <!-- m_uncertain_states=40 -->
     <g transform="translate(91 81.070937)scale(0.1 -0.1)">
      <use xlink:href="#DejaVuSans-6d"/>
      <use xlink:href="#DejaVuSans-5f" x="97.412109"/>
      <use xlink:href="#DejaVuSans-75" x="147.412109"/>
      <use xlink:href="#DejaVuSans-6e" x="210.791016"/>
      <use xlink:href="#DejaVuSans-63" x="274.169922"/>
      <use xlink:href="#DejaVuSans-65" x="329.150391"/>
      <use xlink:href="#DejaVuSans-72" x="390.673828"/>
      <use xlink:href="#DejaVuSans-74" x="431.787109"/>
      <use xlink:href="#DejaVuSans-61" x="470.996094"/>
      <use xlink:href="#DejaVuSans-69" x="532.275391"/>
      <use xlink:href="#DejaVuSans-6e" x="560.058594"/>
      <use xlink:href="#DejaVuSans-5f" x="623.4375"/>
      <use xlink:href="#DejaVuSans-73" x="673.4375"/>
      <use xlink:href="#DejaVuSans-74" x="725.537109"/>
      <use xlink:href="#DejaVuSans-61" x="764.746094"/>
      <use xlink:href="#DejaVuSans-74" x="826.025391"/>
      <use xlink:href="#DejaVuSans-65" x="865.234375"/>
      <use xlink:href="#DejaVuSans-73" x="926.757812"/>
      <use xlink:href="#DejaVuSans-3d" x="978.857422"/>
      <use xlink:href="#DejaVuSans-34" x="1062.646484"/>
      <use xlink:href="#DejaVuSans-30" x="1126.269531"/>
     </g>
    </g>
   </g>
  </g>
 </g>
 <defs>
  <clipPath id="pa118605c88">
   <rect x="54" y="34.56" width="334.8" height="217.44"/>
  </clipPath>
 </defs>
</svg>
