<?xml version="1.0" encoding="utf-8" standalone="no"?>
<!DOCTYPE svg PUBLIC "-//W3C//DTD SVG 1.1//EN"
  "http://www.w3.org/Graphics/SVG/1.1/DTD/svg11.dtd">
<svg xmlns:xlink="http://www.w3.org/1999/xlink" width="432pt" height="288pt" viewBox="0 0 432 288" xmlns="http://www.w3.org/2000/svg" version="1.1">
 <metadata>
  <rdf:RDF xmlns:dc="http://purl.org/dc/elements/1.1/" xmlns:cc="http://creativecommons.org/ns#" xmlns:rdf="http://www.w3.org/1999/02/22-rdf-syntax-ns#">
   <cc:Work>
    <dc:type rdf:resource="http://purl.org/dc/dcmitype/StillImage"/>
    <dc:date>2023-01-11T15:36:40.187358</dc:date>
    <dc:format>image/svg+xml</dc:format>
    <dc:creator>
     <cc:Agent>
      <dc:title>Matplotlib v3.5.2, https://matplotlib.org/</dc:title>
     </cc:Agent>
    </dc:creator>
   </cc:Work>
  </rdf:RDF>
 </metadata>
 <defs>
  <style type="text/css">*{stroke-linejoin: round; stroke-linecap: butt}</style>
 </defs>
 <g id="figure_1">
  <g id="patch_1">
   <path d="M 0 288 
L 432 288 
L 432 0 
L 0 0 
z
" style="fill: #ffffff"/>
  </g>
  <g id="axes_1">
   <g id="patch_2">
    <path d="M 54 252 
L 388.8 252 
L 388.8 34.56 
L 54 34.56 
z
" style="fill: #ffffff"/>
   </g>
   <g id="PolyCollection_1">
    <defs>
     <path id="m7e07bf5d3c" d="M 69.218182 -35.079992 
L 69.218182 -35.079992 
L 74.376888 -37.647489 
L 79.535593 -142.580106 
L 84.694299 -211.072278 
L 89.853005 -228.815478 
L 95.01171 -236.373869 
L 100.170416 -242.562884 
L 105.329122 -236.553691 
L 110.487827 -242.627739 
L 115.646533 -243.49134 
L 120.805239 -242.525523 
L 125.963945 -241.854235 
L 131.12265 -244.506164 
L 136.281356 -244.503139 
L 141.440062 -241.613902 
L 146.598767 -244.503319 
L 151.757473 -239.090657 
L 156.916179 -244.67778 
L 162.074884 -244.316998 
L 167.23359 -242.009567 
L 172.392296 -242.578088 
L 177.551002 -242.737112 
L 182.709707 -242.734064 
L 187.868413 -245.072755 
L 193.027119 -242.763318 
L 198.185824 -242.393643 
L 203.34453 -241.804154 
L 208.503236 -229.154978 
L 213.661941 -241.803954 
L 218.820647 -241.803954 
L 223.979353 -241.803954 
L 229.138059 -242.393643 
L 234.296764 -242.393643 
L 239.45547 -241.989815 
L 244.614176 -241.104826 
L 249.772881 -241.989815 
L 254.931587 -231.387819 
L 260.090293 -242.396604 
L 265.248998 -242.396604 
L 270.407704 -242.393643 
L 275.56641 -242.396604 
L 280.725116 -242.396604 
L 285.883821 -242.396604 
L 291.042527 -242.396604 
L 296.201233 -242.396604 
L 301.359938 -242.393643 
L 306.518644 -242.411169 
L 311.67735 -242.411169 
L 316.836055 -242.411169 
L 321.994761 -242.411169 
L 327.153467 -242.393643 
L 332.312173 -242.393643 
L 337.470878 -241.986868 
L 342.629584 -241.986868 
L 347.78829 -241.986868 
L 352.946995 -241.804154 
L 358.105701 -241.986868 
L 363.264407 -241.630038 
L 368.423112 -241.630038 
L 373.581818 -241.630038 
L 373.581818 -241.630038 
L 373.581818 -241.630038 
L 368.423112 -241.630038 
L 363.264407 -241.630038 
L 358.105701 -241.986868 
L 352.946995 -241.804154 
L 347.78829 -241.986868 
L 342.629584 -241.986868 
L 337.470878 -241.986868 
L 332.312173 -242.393643 
L 327.153467 -242.393643 
L 321.994761 -242.411169 
L 316.836055 -242.411169 
L 311.67735 -242.411169 
L 306.518644 -242.411169 
L 301.359938 -242.393643 
L 296.201233 -242.396604 
L 291.042527 -242.396604 
L 285.883821 -242.396604 
L 280.725116 -242.396604 
L 275.56641 -242.396604 
L 270.407704 -242.393643 
L 265.248998 -242.396604 
L 260.090293 -242.396604 
L 254.931587 -231.387819 
L 249.772881 -241.989815 
L 244.614176 -241.104826 
L 239.45547 -241.989815 
L 234.296764 -242.393643 
L 229.138059 -242.393643 
L 223.979353 -241.803954 
L 218.820647 -241.803954 
L 213.661941 -241.803954 
L 208.503236 -229.154978 
L 203.34453 -241.804154 
L 198.185824 -242.393643 
L 193.027119 -242.763318 
L 187.868413 -245.072755 
L 182.709707 -242.734064 
L 177.551002 -242.737112 
L 172.392296 -242.578088 
L 167.23359 -242.009567 
L 162.074884 -244.316998 
L 156.916179 -244.67778 
L 151.757473 -239.090657 
L 146.598767 -244.503319 
L 141.440062 -241.613902 
L 136.281356 -244.503139 
L 131.12265 -244.506164 
L 125.963945 -241.854235 
L 120.805239 -242.525523 
L 115.646533 -243.49134 
L 110.487827 -242.627739 
L 105.329122 -236.553691 
L 100.170416 -242.562884 
L 95.01171 -236.373869 
L 89.853005 -228.815478 
L 84.694299 -211.072278 
L 79.535593 -142.580106 
L 74.376888 -37.647489 
L 69.218182 -35.079992 
z
" style="stroke: #9d02d7; stroke-opacity: 0.2"/>
    </defs>
    <g clip-path="url(#pf9596f598a)">
     <use xlink:href="#m7e07bf5d3c" x="0" y="288" style="fill: #9d02d7; fill-opacity: 0.2; stroke: #9d02d7; stroke-opacity: 0.2"/>
    </g>
   </g>
   <g id="PolyCollection_2">
    <defs>
     <path id="mdc619a9759" d="M 69.218182 -34.970827 
L 69.218182 -34.970827 
L 74.376888 -35.090673 
L 79.535593 -149.787475 
L 84.694299 -231.236888 
L 89.853005 -237.312134 
L 95.01171 -240.173204 
L 100.170416 -241.264383 
L 105.329122 -242.2674 
L 110.487827 -222.425994 
L 115.646533 -241.37354 
L 120.805239 -233.129912 
L 125.963945 -242.445416 
L 131.12265 -242.390264 
L 136.281356 -242.390264 
L 141.440062 -242.519714 
L 146.598767 -242.535941 
L 151.757473 -242.368705 
L 156.916179 -242.364661 
L 162.074884 -242.364437 
L 167.23359 -242.364437 
L 172.392296 -242.364437 
L 177.551002 -242.562884 
L 182.709707 -242.563103 
L 187.868413 -239.781912 
L 193.027119 -242.664779 
L 198.185824 -231.058667 
L 203.34453 -241.793556 
L 208.503236 -242.505409 
L 213.661941 -242.505409 
L 218.820647 -242.505409 
L 223.979353 -242.505409 
L 229.138059 -242.505409 
L 234.296764 -242.505409 
L 239.45547 -242.505409 
L 244.614176 -239.741808 
L 249.772881 -242.505409 
L 254.931587 -242.505409 
L 260.090293 -238.829029 
L 265.248998 -238.563277 
L 270.407704 -243.150403 
L 275.56641 -243.038462 
L 280.725116 -242.929276 
L 285.883821 -242.429387 
L 291.042527 -242.567374 
L 296.201233 -243.055683 
L 301.359938 -243.055683 
L 306.518644 -242.355623 
L 311.67735 -242.518053 
L 316.836055 -242.518053 
L 321.994761 -242.518053 
L 327.153467 -242.518053 
L 332.312173 -242.518053 
L 337.470878 -242.518053 
L 342.629584 -242.518053 
L 347.78829 -242.518053 
L 352.946995 -242.518053 
L 358.105701 -242.518053 
L 363.264407 -242.518053 
L 368.423112 -242.518053 
L 373.581818 -242.518053 
L 373.581818 -242.518053 
L 373.581818 -242.518053 
L 368.423112 -242.518053 
L 363.264407 -242.518053 
L 358.105701 -242.518053 
L 352.946995 -242.518053 
L 347.78829 -242.518053 
L 342.629584 -242.518053 
L 337.470878 -242.518053 
L 332.312173 -242.518053 
L 327.153467 -242.518053 
L 321.994761 -242.518053 
L 316.836055 -242.518053 
L 311.67735 -242.518053 
L 306.518644 -242.355623 
L 301.359938 -243.055683 
L 296.201233 -243.055683 
L 291.042527 -242.567374 
L 285.883821 -242.429387 
L 280.725116 -242.929276 
L 275.56641 -243.038462 
L 270.407704 -243.150403 
L 265.248998 -238.563277 
L 260.090293 -238.829029 
L 254.931587 -242.505409 
L 249.772881 -242.505409 
L 244.614176 -239.741808 
L 239.45547 -242.505409 
L 234.296764 -242.505409 
L 229.138059 -242.505409 
L 223.979353 -242.505409 
L 218.820647 -242.505409 
L 213.661941 -242.505409 
L 208.503236 -242.505409 
L 203.34453 -241.793556 
L 198.185824 -231.058667 
L 193.027119 -242.664779 
L 187.868413 -239.781912 
L 182.709707 -242.563103 
L 177.551002 -242.562884 
L 172.392296 -242.364437 
L 167.23359 -242.364437 
L 162.074884 -242.364437 
L 156.916179 -242.364661 
L 151.757473 -242.368705 
L 146.598767 -242.535941 
L 141.440062 -242.519714 
L 136.281356 -242.390264 
L 131.12265 -242.390264 
L 125.963945 -242.445416 
L 120.805239 -233.129912 
L 115.646533 -241.37354 
L 110.487827 -222.425994 
L 105.329122 -242.2674 
L 100.170416 -241.264383 
L 95.01171 -240.173204 
L 89.853005 -237.312134 
L 84.694299 -231.236888 
L 79.535593 -149.787475 
L 74.376888 -35.090673 
L 69.218182 -34.970827 
z
" style="stroke: #0000ff; stroke-opacity: 0.2"/>
    </defs>
    <g clip-path="url(#pf9596f598a)">
     <use xlink:href="#mdc619a9759" x="0" y="288" style="fill: #0000ff; fill-opacity: 0.2; stroke: #0000ff; stroke-opacity: 0.2"/>
    </g>
   </g>
   <g id="PolyCollection_3">
    <defs>
     <path id="m13ad13561e" d="M 69.218182 -34.69995 
L 69.218182 -34.69995 
L 74.376888 -34.343841 
L 79.535593 -33.179889 
L 84.694299 -151.942628 
L 89.853005 -238.679973 
L 95.01171 -228.838393 
L 100.170416 -220.486267 
L 105.329122 -240.705075 
L 110.487827 -239.348862 
L 115.646533 -238.844721 
L 120.805239 -226.350614 
L 125.963945 -240.681509 
L 131.12265 -233.996486 
L 136.281356 -239.894537 
L 141.440062 -240.475372 
L 146.598767 -240.638185 
L 151.757473 -240.638185 
L 156.916179 -240.901157 
L 162.074884 -240.789565 
L 167.23359 -240.638185 
L 172.392296 -240.789565 
L 177.551002 -240.995664 
L 182.709707 -239.46095 
L 187.868413 -240.680366 
L 193.027119 -235.905795 
L 198.185824 -236.898604 
L 203.34453 -236.898604 
L 208.503236 -236.898604 
L 213.661941 -236.898604 
L 218.820647 -238.487814 
L 223.979353 -234.286591 
L 229.138059 -240.789565 
L 234.296764 -240.789565 
L 239.45547 -240.995704 
L 244.614176 -238.683693 
L 249.772881 -241.010098 
L 254.931587 -240.754843 
L 260.090293 -238.683693 
L 265.248998 -238.683646 
L 270.407704 -238.683646 
L 275.56641 -238.683646 
L 280.725116 -238.683646 
L 285.883821 -238.683646 
L 291.042527 -238.683646 
L 296.201233 -238.683646 
L 301.359938 -240.754728 
L 306.518644 -235.235599 
L 311.67735 -240.754843 
L 316.836055 -241.010098 
L 321.994761 -244.860952 
L 327.153467 -244.860952 
L 332.312173 -241.100279 
L 337.470878 -240.966765 
L 342.629584 -240.8845 
L 347.78829 -240.8845 
L 352.946995 -240.995664 
L 358.105701 -240.995664 
L 363.264407 -240.995664 
L 368.423112 -240.995664 
L 373.581818 -240.995704 
L 373.581818 -240.995704 
L 373.581818 -240.995704 
L 368.423112 -240.995664 
L 363.264407 -240.995664 
L 358.105701 -240.995664 
L 352.946995 -240.995664 
L 347.78829 -240.8845 
L 342.629584 -240.8845 
L 337.470878 -240.966765 
L 332.312173 -241.100279 
L 327.153467 -244.860952 
L 321.994761 -244.860952 
L 316.836055 -241.010098 
L 311.67735 -240.754843 
L 306.518644 -235.235599 
L 301.359938 -240.754728 
L 296.201233 -238.683646 
L 291.042527 -238.683646 
L 285.883821 -238.683646 
L 280.725116 -238.683646 
L 275.56641 -238.683646 
L 270.407704 -238.683646 
L 265.248998 -238.683646 
L 260.090293 -238.683693 
L 254.931587 -240.754843 
L 249.772881 -241.010098 
L 244.614176 -238.683693 
L 239.45547 -240.995704 
L 234.296764 -240.789565 
L 229.138059 -240.789565 
L 223.979353 -234.286591 
L 218.820647 -238.487814 
L 213.661941 -236.898604 
L 208.503236 -236.898604 
L 203.34453 -236.898604 
L 198.185824 -236.898604 
L 193.027119 -235.905795 
L 187.868413 -240.680366 
L 182.709707 -239.46095 
L 177.551002 -240.995664 
L 172.392296 -240.789565 
L 167.23359 -240.638185 
L 162.074884 -240.789565 
L 156.916179 -240.901157 
L 151.757473 -240.638185 
L 146.598767 -240.638185 
L 141.440062 -240.475372 
L 136.281356 -239.894537 
L 131.12265 -233.996486 
L 125.963945 -240.681509 
L 120.805239 -226.350614 
L 115.646533 -238.844721 
L 110.487827 -239.348862 
L 105.329122 -240.705075 
L 100.170416 -220.486267 
L 95.01171 -228.838393 
L 89.853005 -238.679973 
L 84.694299 -151.942628 
L 79.535593 -33.179889 
L 74.376888 -34.343841 
L 69.218182 -34.69995 
z
" style="stroke: #ff7763; stroke-opacity: 0.2"/>
    </defs>
    <g clip-path="url(#pf9596f598a)">
     <use xlink:href="#m13ad13561e" x="0" y="288" style="fill: #ff7763; fill-opacity: 0.2; stroke: #ff7763; stroke-opacity: 0.2"/>
    </g>
   </g>
   <g id="PolyCollection_4">
    <defs>
     <path id="mc8dca3597e" d="M 69.218182 -32.089886 
L 69.218182 -32.089886 
L 74.376888 -33.341556 
L 79.535593 -33.095011 
L 84.694299 -35.052821 
L 89.853005 -233.721637 
L 95.01171 -240.679396 
L 100.170416 -241.076958 
L 105.329122 -228.344416 
L 110.487827 -240.774147 
L 115.646533 -240.774147 
L 120.805239 -203.511456 
L 125.963945 -242.404085 
L 131.12265 -242.243624 
L 136.281356 -244.522008 
L 141.440062 -244.522008 
L 146.598767 -242.403865 
L 151.757473 -230.590601 
L 156.916179 -235.69262 
L 162.074884 -235.69262 
L 167.23359 -235.69262 
L 172.392296 -236.225916 
L 177.551002 -236.716336 
L 182.709707 -235.69262 
L 187.868413 -229.763303 
L 193.027119 -229.829667 
L 198.185824 -229.346077 
L 203.34453 -235.692977 
L 208.503236 -235.692977 
L 213.661941 -236.130656 
L 218.820647 -236.194322 
L 223.979353 -236.194322 
L 229.138059 -237.203163 
L 234.296764 -236.082915 
L 239.45547 -241.931988 
L 244.614176 -241.897242 
L 249.772881 -241.893829 
L 254.931587 -241.893829 
L 260.090293 -240.541115 
L 265.248998 -242.376105 
L 270.407704 -242.376105 
L 275.56641 -244.316269 
L 280.725116 -243.659652 
L 285.883821 -243.682203 
L 291.042527 -238.543587 
L 296.201233 -242.142294 
L 301.359938 -243.133573 
L 306.518644 -243.137782 
L 311.67735 -243.137782 
L 316.836055 -213.94608 
L 321.994761 -239.724184 
L 327.153467 -243.137983 
L 332.312173 -243.026871 
L 337.470878 -243.137983 
L 342.629584 -243.634521 
L 347.78829 -243.743822 
L 352.946995 -243.743822 
L 358.105701 -243.814493 
L 363.264407 -243.814493 
L 368.423112 -244.470076 
L 373.581818 -243.744023 
L 373.581818 -243.744023 
L 373.581818 -243.744023 
L 368.423112 -244.470076 
L 363.264407 -243.814493 
L 358.105701 -243.814493 
L 352.946995 -243.743822 
L 347.78829 -243.743822 
L 342.629584 -243.634521 
L 337.470878 -243.137983 
L 332.312173 -243.026871 
L 327.153467 -243.137983 
L 321.994761 -239.724184 
L 316.836055 -213.94608 
L 311.67735 -243.137782 
L 306.518644 -243.137782 
L 301.359938 -243.133573 
L 296.201233 -242.142294 
L 291.042527 -238.543587 
L 285.883821 -243.682203 
L 280.725116 -243.659652 
L 275.56641 -244.316269 
L 270.407704 -242.376105 
L 265.248998 -242.376105 
L 260.090293 -240.541115 
L 254.931587 -241.893829 
L 249.772881 -241.893829 
L 244.614176 -241.897242 
L 239.45547 -241.931988 
L 234.296764 -236.082915 
L 229.138059 -237.203163 
L 223.979353 -236.194322 
L 218.820647 -236.194322 
L 213.661941 -236.130656 
L 208.503236 -235.692977 
L 203.34453 -235.692977 
L 198.185824 -229.346077 
L 193.027119 -229.829667 
L 187.868413 -229.763303 
L 182.709707 -235.69262 
L 177.551002 -236.716336 
L 172.392296 -236.225916 
L 167.23359 -235.69262 
L 162.074884 -235.69262 
L 156.916179 -235.69262 
L 151.757473 -230.590601 
L 146.598767 -242.403865 
L 141.440062 -244.522008 
L 136.281356 -244.522008 
L 131.12265 -242.243624 
L 125.963945 -242.404085 
L 120.805239 -203.511456 
L 115.646533 -240.774147 
L 110.487827 -240.774147 
L 105.329122 -228.344416 
L 100.170416 -241.076958 
L 95.01171 -240.679396 
L 89.853005 -233.721637 
L 84.694299 -35.052821 
L 79.535593 -33.095011 
L 74.376888 -33.341556 
L 69.218182 -32.089886 
z
" style="stroke: #ffac1e; stroke-opacity: 0.2"/>
    </defs>
    <g clip-path="url(#pf9596f598a)">
     <use xlink:href="#mc8dca3597e" x="0" y="288" style="fill: #ffac1e; fill-opacity: 0.2; stroke: #ffac1e; stroke-opacity: 0.2"/>
    </g>
   </g>
   <g id="PolyCollection_5">
    <defs>
     <path id="md760d57e23" d="M 69.218182 -35.091182 
L 69.218182 -35.091182 
L 74.376888 -142.495455 
L 79.535593 -94.702816 
L 84.694299 -227.664119 
L 89.853005 -231.051045 
L 95.01171 -207.535279 
L 100.170416 -240.787851 
L 105.329122 -240.73101 
L 110.487827 -240.73101 
L 115.646533 -240.730957 
L 120.805239 -238.650171 
L 125.963945 -210.455552 
L 131.12265 -235.467573 
L 136.281356 -238.282161 
L 141.440062 -238.723992 
L 146.598767 -238.442983 
L 151.757473 -238.628146 
L 156.916179 -234.744046 
L 162.074884 -237.750422 
L 167.23359 -237.74701 
L 172.392296 -239.597273 
L 177.551002 -237.74701 
L 182.709707 -239.597597 
L 187.868413 -240.770338 
L 193.027119 -240.90551 
L 198.185824 -240.905234 
L 203.34453 -240.867736 
L 208.503236 -244.503319 
L 213.661941 -243.811494 
L 218.820647 -244.309799 
L 223.979353 -244.309799 
L 229.138059 -244.312783 
L 234.296764 -244.312783 
L 239.45547 -239.090807 
L 244.614176 -235.013945 
L 249.772881 -239.178546 
L 254.931587 -243.578259 
L 260.090293 -243.951863 
L 265.248998 -243.822352 
L 270.407704 -243.822352 
L 275.56641 -240.458102 
L 280.725116 -240.458102 
L 285.883821 -244.550719 
L 291.042527 -203.58792 
L 296.201233 -244.550719 
L 301.359938 -244.676593 
L 306.518644 -244.676593 
L 311.67735 -244.688985 
L 316.836055 -240.457791 
L 321.994761 -242.127939 
L 327.153467 -242.130828 
L 332.312173 -242.127939 
L 337.470878 -242.127939 
L 342.629584 -243.525657 
L 347.78829 -240.400217 
L 352.946995 -243.525657 
L 358.105701 -242.130828 
L 363.264407 -244.82231 
L 368.423112 -244.82231 
L 373.581818 -244.82231 
L 373.581818 -244.82231 
L 373.581818 -244.82231 
L 368.423112 -244.82231 
L 363.264407 -244.82231 
L 358.105701 -242.130828 
L 352.946995 -243.525657 
L 347.78829 -240.400217 
L 342.629584 -243.525657 
L 337.470878 -242.127939 
L 332.312173 -242.127939 
L 327.153467 -242.130828 
L 321.994761 -242.127939 
L 316.836055 -240.457791 
L 311.67735 -244.688985 
L 306.518644 -244.676593 
L 301.359938 -244.676593 
L 296.201233 -244.550719 
L 291.042527 -203.58792 
L 285.883821 -244.550719 
L 280.725116 -240.458102 
L 275.56641 -240.458102 
L 270.407704 -243.822352 
L 265.248998 -243.822352 
L 260.090293 -243.951863 
L 254.931587 -243.578259 
L 249.772881 -239.178546 
L 244.614176 -235.013945 
L 239.45547 -239.090807 
L 234.296764 -244.312783 
L 229.138059 -244.312783 
L 223.979353 -244.309799 
L 218.820647 -244.309799 
L 213.661941 -243.811494 
L 208.503236 -244.503319 
L 203.34453 -240.867736 
L 198.185824 -240.905234 
L 193.027119 -240.90551 
L 187.868413 -240.770338 
L 182.709707 -239.597597 
L 177.551002 -237.74701 
L 172.392296 -239.597273 
L 167.23359 -237.74701 
L 162.074884 -237.750422 
L 156.916179 -234.744046 
L 151.757473 -238.628146 
L 146.598767 -238.442983 
L 141.440062 -238.723992 
L 136.281356 -238.282161 
L 131.12265 -235.467573 
L 125.963945 -210.455552 
L 120.805239 -238.650171 
L 115.646533 -240.730957 
L 110.487827 -240.73101 
L 105.329122 -240.73101 
L 100.170416 -240.787851 
L 95.01171 -207.535279 
L 89.853005 -231.051045 
L 84.694299 -227.664119 
L 79.535593 -94.702816 
L 74.376888 -142.495455 
L 69.218182 -35.091182 
z
" style="stroke: #009435; stroke-opacity: 0.2"/>
    </defs>
    <g clip-path="url(#pf9596f598a)">
     <use xlink:href="#md760d57e23" x="0" y="288" style="fill: #009435; fill-opacity: 0.2; stroke: #009435; stroke-opacity: 0.2"/>
    </g>
   </g>
   <g id="matplotlib.axis_1">
    <g id="xtick_1">
     <g id="line2d_1">
      <path d="M 69.218182 252 
L 69.218182 34.56 
" clip-path="url(#pf9596f598a)" style="fill: none; stroke-dasharray: 2.96,1.28; stroke-dashoffset: 0; stroke: #b0b0b0; stroke-width: 0.8"/>
     </g>
     <g id="line2d_2">
      <defs>
       <path id="m4f39aafe54" d="M 0 0 
L 0 3.5 
" style="stroke: #000000; stroke-width: 0.8"/>
      </defs>
      <g>
       <use xlink:href="#m4f39aafe54" x="69.218182" y="252" style="stroke: #000000; stroke-width: 0.8"/>
      </g>
     </g>
     <g id="text_1">
      <!-- 0 -->
      <g transform="translate(66.036932 266.598437)scale(0.1 -0.1)">
       <defs>
        <path id="DejaVuSans-30" d="M 2034 4250 
Q 1547 4250 1301 3770 
Q 1056 3291 1056 2328 
Q 1056 1369 1301 889 
Q 1547 409 2034 409 
Q 2525 409 2770 889 
Q 3016 1369 3016 2328 
Q 3016 3291 2770 3770 
Q 2525 4250 2034 4250 
z
M 2034 4750 
Q 2819 4750 3233 4129 
Q 3647 3509 3647 2328 
Q 3647 1150 3233 529 
Q 2819 -91 2034 -91 
Q 1250 -91 836 529 
Q 422 1150 422 2328 
Q 422 3509 836 4129 
Q 1250 4750 2034 4750 
z
" transform="scale(0.015625)"/>
       </defs>
       <use xlink:href="#DejaVuSans-30"/>
      </g>
     </g>
    </g>
    <g id="xtick_2">
     <g id="line2d_3">
      <path d="M 120.805239 252 
L 120.805239 34.56 
" clip-path="url(#pf9596f598a)" style="fill: none; stroke-dasharray: 2.96,1.28; stroke-dashoffset: 0; stroke: #b0b0b0; stroke-width: 0.8"/>
     </g>
     <g id="line2d_4">
      <g>
       <use xlink:href="#m4f39aafe54" x="120.805239" y="252" style="stroke: #000000; stroke-width: 0.8"/>
      </g>
     </g>
     <g id="text_2">
      <!-- 500 -->
      <g transform="translate(111.261489 266.598437)scale(0.1 -0.1)">
       <defs>
        <path id="DejaVuSans-35" d="M 691 4666 
L 3169 4666 
L 3169 4134 
L 1269 4134 
L 1269 2991 
Q 1406 3038 1543 3061 
Q 1681 3084 1819 3084 
Q 2600 3084 3056 2656 
Q 3513 2228 3513 1497 
Q 3513 744 3044 326 
Q 2575 -91 1722 -91 
Q 1428 -91 1123 -41 
Q 819 9 494 109 
L 494 744 
Q 775 591 1075 516 
Q 1375 441 1709 441 
Q 2250 441 2565 725 
Q 2881 1009 2881 1497 
Q 2881 1984 2565 2268 
Q 2250 2553 1709 2553 
Q 1456 2553 1204 2497 
Q 953 2441 691 2322 
L 691 4666 
z
" transform="scale(0.015625)"/>
       </defs>
       <use xlink:href="#DejaVuSans-35"/>
       <use xlink:href="#DejaVuSans-30" x="63.623047"/>
       <use xlink:href="#DejaVuSans-30" x="127.246094"/>
      </g>
     </g>
    </g>
    <g id="xtick_3">
     <g id="line2d_5">
      <path d="M 172.392296 252 
L 172.392296 34.56 
" clip-path="url(#pf9596f598a)" style="fill: none; stroke-dasharray: 2.96,1.28; stroke-dashoffset: 0; stroke: #b0b0b0; stroke-width: 0.8"/>
     </g>
     <g id="line2d_6">
      <g>
       <use xlink:href="#m4f39aafe54" x="172.392296" y="252" style="stroke: #000000; stroke-width: 0.8"/>
      </g>
     </g>
     <g id="text_3">
      <!-- 1000 -->
      <g transform="translate(159.667296 266.598437)scale(0.1 -0.1)">
       <defs>
        <path id="DejaVuSans-31" d="M 794 531 
L 1825 531 
L 1825 4091 
L 703 3866 
L 703 4441 
L 1819 4666 
L 2450 4666 
L 2450 531 
L 3481 531 
L 3481 0 
L 794 0 
L 794 531 
z
" transform="scale(0.015625)"/>
       </defs>
       <use xlink:href="#DejaVuSans-31"/>
       <use xlink:href="#DejaVuSans-30" x="63.623047"/>
       <use xlink:href="#DejaVuSans-30" x="127.246094"/>
       <use xlink:href="#DejaVuSans-30" x="190.869141"/>
      </g>
     </g>
    </g>
    <g id="xtick_4">
     <g id="line2d_7">
      <path d="M 223.979353 252 
L 223.979353 34.56 
" clip-path="url(#pf9596f598a)" style="fill: none; stroke-dasharray: 2.96,1.28; stroke-dashoffset: 0; stroke: #b0b0b0; stroke-width: 0.8"/>
     </g>
     <g id="line2d_8">
      <g>
       <use xlink:href="#m4f39aafe54" x="223.979353" y="252" style="stroke: #000000; stroke-width: 0.8"/>
      </g>
     </g>
     <g id="text_4">
      <!-- 1500 -->
      <g transform="translate(211.254353 266.598437)scale(0.1 -0.1)">
       <use xlink:href="#DejaVuSans-31"/>
       <use xlink:href="#DejaVuSans-35" x="63.623047"/>
       <use xlink:href="#DejaVuSans-30" x="127.246094"/>
       <use xlink:href="#DejaVuSans-30" x="190.869141"/>
      </g>
     </g>
    </g>
    <g id="xtick_5">
     <g id="line2d_9">
      <path d="M 275.56641 252 
L 275.56641 34.56 
" clip-path="url(#pf9596f598a)" style="fill: none; stroke-dasharray: 2.96,1.28; stroke-dashoffset: 0; stroke: #b0b0b0; stroke-width: 0.8"/>
     </g>
     <g id="line2d_10">
      <g>
       <use xlink:href="#m4f39aafe54" x="275.56641" y="252" style="stroke: #000000; stroke-width: 0.8"/>
      </g>
     </g>
     <g id="text_5">
      <!-- 2000 -->
      <g transform="translate(262.84141 266.598437)scale(0.1 -0.1)">
       <defs>
        <path id="DejaVuSans-32" d="M 1228 531 
L 3431 531 
L 3431 0 
L 469 0 
L 469 531 
Q 828 903 1448 1529 
Q 2069 2156 2228 2338 
Q 2531 2678 2651 2914 
Q 2772 3150 2772 3378 
Q 2772 3750 2511 3984 
Q 2250 4219 1831 4219 
Q 1534 4219 1204 4116 
Q 875 4013 500 3803 
L 500 4441 
Q 881 4594 1212 4672 
Q 1544 4750 1819 4750 
Q 2544 4750 2975 4387 
Q 3406 4025 3406 3419 
Q 3406 3131 3298 2873 
Q 3191 2616 2906 2266 
Q 2828 2175 2409 1742 
Q 1991 1309 1228 531 
z
" transform="scale(0.015625)"/>
       </defs>
       <use xlink:href="#DejaVuSans-32"/>
       <use xlink:href="#DejaVuSans-30" x="63.623047"/>
       <use xlink:href="#DejaVuSans-30" x="127.246094"/>
       <use xlink:href="#DejaVuSans-30" x="190.869141"/>
      </g>
     </g>
    </g>
    <g id="xtick_6">
     <g id="line2d_11">
      <path d="M 327.153467 252 
L 327.153467 34.56 
" clip-path="url(#pf9596f598a)" style="fill: none; stroke-dasharray: 2.96,1.28; stroke-dashoffset: 0; stroke: #b0b0b0; stroke-width: 0.8"/>
     </g>
     <g id="line2d_12">
      <g>
       <use xlink:href="#m4f39aafe54" x="327.153467" y="252" style="stroke: #000000; stroke-width: 0.8"/>
      </g>
     </g>
     <g id="text_6">
      <!-- 2500 -->
      <g transform="translate(314.428467 266.598437)scale(0.1 -0.1)">
       <use xlink:href="#DejaVuSans-32"/>
       <use xlink:href="#DejaVuSans-35" x="63.623047"/>
       <use xlink:href="#DejaVuSans-30" x="127.246094"/>
       <use xlink:href="#DejaVuSans-30" x="190.869141"/>
      </g>
     </g>
    </g>
    <g id="xtick_7">
     <g id="line2d_13">
      <path d="M 378.740524 252 
L 378.740524 34.56 
" clip-path="url(#pf9596f598a)" style="fill: none; stroke-dasharray: 2.96,1.28; stroke-dashoffset: 0; stroke: #b0b0b0; stroke-width: 0.8"/>
     </g>
     <g id="line2d_14">
      <g>
       <use xlink:href="#m4f39aafe54" x="378.740524" y="252" style="stroke: #000000; stroke-width: 0.8"/>
      </g>
     </g>
     <g id="text_7">
      <!-- 3000 -->
      <g transform="translate(366.015524 266.598437)scale(0.1 -0.1)">
       <defs>
        <path id="DejaVuSans-33" d="M 2597 2516 
Q 3050 2419 3304 2112 
Q 3559 1806 3559 1356 
Q 3559 666 3084 287 
Q 2609 -91 1734 -91 
Q 1441 -91 1130 -33 
Q 819 25 488 141 
L 488 750 
Q 750 597 1062 519 
Q 1375 441 1716 441 
Q 2309 441 2620 675 
Q 2931 909 2931 1356 
Q 2931 1769 2642 2001 
Q 2353 2234 1838 2234 
L 1294 2234 
L 1294 2753 
L 1863 2753 
Q 2328 2753 2575 2939 
Q 2822 3125 2822 3475 
Q 2822 3834 2567 4026 
Q 2313 4219 1838 4219 
Q 1578 4219 1281 4162 
Q 984 4106 628 3988 
L 628 4550 
Q 988 4650 1302 4700 
Q 1616 4750 1894 4750 
Q 2613 4750 3031 4423 
Q 3450 4097 3450 3541 
Q 3450 3153 3228 2886 
Q 3006 2619 2597 2516 
z
" transform="scale(0.015625)"/>
       </defs>
       <use xlink:href="#DejaVuSans-33"/>
       <use xlink:href="#DejaVuSans-30" x="63.623047"/>
       <use xlink:href="#DejaVuSans-30" x="127.246094"/>
       <use xlink:href="#DejaVuSans-30" x="190.869141"/>
      </g>
     </g>
    </g>
    <g id="text_8">
     <!-- Steps -->
     <g transform="translate(207.410156 280.276563)scale(0.1 -0.1)">
      <defs>
       <path id="DejaVuSans-53" d="M 3425 4513 
L 3425 3897 
Q 3066 4069 2747 4153 
Q 2428 4238 2131 4238 
Q 1616 4238 1336 4038 
Q 1056 3838 1056 3469 
Q 1056 3159 1242 3001 
Q 1428 2844 1947 2747 
L 2328 2669 
Q 3034 2534 3370 2195 
Q 3706 1856 3706 1288 
Q 3706 609 3251 259 
Q 2797 -91 1919 -91 
Q 1588 -91 1214 -16 
Q 841 59 441 206 
L 441 856 
Q 825 641 1194 531 
Q 1563 422 1919 422 
Q 2459 422 2753 634 
Q 3047 847 3047 1241 
Q 3047 1584 2836 1778 
Q 2625 1972 2144 2069 
L 1759 2144 
Q 1053 2284 737 2584 
Q 422 2884 422 3419 
Q 422 4038 858 4394 
Q 1294 4750 2059 4750 
Q 2388 4750 2728 4690 
Q 3069 4631 3425 4513 
z
" transform="scale(0.015625)"/>
       <path id="DejaVuSans-74" d="M 1172 4494 
L 1172 3500 
L 2356 3500 
L 2356 3053 
L 1172 3053 
L 1172 1153 
Q 1172 725 1289 603 
Q 1406 481 1766 481 
L 2356 481 
L 2356 0 
L 1766 0 
Q 1100 0 847 248 
Q 594 497 594 1153 
L 594 3053 
L 172 3053 
L 172 3500 
L 594 3500 
L 594 4494 
L 1172 4494 
z
" transform="scale(0.015625)"/>
       <path id="DejaVuSans-65" d="M 3597 1894 
L 3597 1613 
L 953 1613 
Q 991 1019 1311 708 
Q 1631 397 2203 397 
Q 2534 397 2845 478 
Q 3156 559 3463 722 
L 3463 178 
Q 3153 47 2828 -22 
Q 2503 -91 2169 -91 
Q 1331 -91 842 396 
Q 353 884 353 1716 
Q 353 2575 817 3079 
Q 1281 3584 2069 3584 
Q 2775 3584 3186 3129 
Q 3597 2675 3597 1894 
z
M 3022 2063 
Q 3016 2534 2758 2815 
Q 2500 3097 2075 3097 
Q 1594 3097 1305 2825 
Q 1016 2553 972 2059 
L 3022 2063 
z
" transform="scale(0.015625)"/>
       <path id="DejaVuSans-70" d="M 1159 525 
L 1159 -1331 
L 581 -1331 
L 581 3500 
L 1159 3500 
L 1159 2969 
Q 1341 3281 1617 3432 
Q 1894 3584 2278 3584 
Q 2916 3584 3314 3078 
Q 3713 2572 3713 1747 
Q 3713 922 3314 415 
Q 2916 -91 2278 -91 
Q 1894 -91 1617 61 
Q 1341 213 1159 525 
z
M 3116 1747 
Q 3116 2381 2855 2742 
Q 2594 3103 2138 3103 
Q 1681 3103 1420 2742 
Q 1159 2381 1159 1747 
Q 1159 1113 1420 752 
Q 1681 391 2138 391 
Q 2594 391 2855 752 
Q 3116 1113 3116 1747 
z
" transform="scale(0.015625)"/>
       <path id="DejaVuSans-73" d="M 2834 3397 
L 2834 2853 
Q 2591 2978 2328 3040 
Q 2066 3103 1784 3103 
Q 1356 3103 1142 2972 
Q 928 2841 928 2578 
Q 928 2378 1081 2264 
Q 1234 2150 1697 2047 
L 1894 2003 
Q 2506 1872 2764 1633 
Q 3022 1394 3022 966 
Q 3022 478 2636 193 
Q 2250 -91 1575 -91 
Q 1294 -91 989 -36 
Q 684 19 347 128 
L 347 722 
Q 666 556 975 473 
Q 1284 391 1588 391 
Q 1994 391 2212 530 
Q 2431 669 2431 922 
Q 2431 1156 2273 1281 
Q 2116 1406 1581 1522 
L 1381 1569 
Q 847 1681 609 1914 
Q 372 2147 372 2553 
Q 372 3047 722 3315 
Q 1072 3584 1716 3584 
Q 2034 3584 2315 3537 
Q 2597 3491 2834 3397 
z
" transform="scale(0.015625)"/>
      </defs>
      <use xlink:href="#DejaVuSans-53"/>
      <use xlink:href="#DejaVuSans-74" x="63.476562"/>
      <use xlink:href="#DejaVuSans-65" x="102.685547"/>
      <use xlink:href="#DejaVuSans-70" x="164.208984"/>
      <use xlink:href="#DejaVuSans-73" x="227.685547"/>
     </g>
    </g>
   </g>
   <g id="matplotlib.axis_2">
    <g id="ytick_1">
     <g id="line2d_15">
      <path d="M 54 243.636923 
L 388.8 243.636923 
" clip-path="url(#pf9596f598a)" style="fill: none; stroke-dasharray: 2.96,1.28; stroke-dashoffset: 0; stroke: #b0b0b0; stroke-width: 0.8"/>
     </g>
     <g id="line2d_16">
      <defs>
       <path id="mc9eede951d" d="M 0 0 
L -3.5 0 
" style="stroke: #000000; stroke-width: 0.8"/>
      </defs>
      <g>
       <use xlink:href="#mc9eede951d" x="54" y="243.636923" style="stroke: #000000; stroke-width: 0.8"/>
      </g>
     </g>
     <g id="text_9">
      <!-- −12 -->
      <g transform="translate(25.895312 247.436142)scale(0.1 -0.1)">
       <defs>
        <path id="DejaVuSans-2212" d="M 678 2272 
L 4684 2272 
L 4684 1741 
L 678 1741 
L 678 2272 
z
" transform="scale(0.015625)"/>
       </defs>
       <use xlink:href="#DejaVuSans-2212"/>
       <use xlink:href="#DejaVuSans-31" x="83.789062"/>
       <use xlink:href="#DejaVuSans-32" x="147.412109"/>
      </g>
     </g>
    </g>
    <g id="ytick_2">
     <g id="line2d_17">
      <path d="M 54 210.184615 
L 388.8 210.184615 
" clip-path="url(#pf9596f598a)" style="fill: none; stroke-dasharray: 2.96,1.28; stroke-dashoffset: 0; stroke: #b0b0b0; stroke-width: 0.8"/>
     </g>
     <g id="line2d_18">
      <g>
       <use xlink:href="#mc9eede951d" x="54" y="210.184615" style="stroke: #000000; stroke-width: 0.8"/>
      </g>
     </g>
     <g id="text_10">
      <!-- −10 -->
      <g transform="translate(25.895312 213.983834)scale(0.1 -0.1)">
       <use xlink:href="#DejaVuSans-2212"/>
       <use xlink:href="#DejaVuSans-31" x="83.789062"/>
       <use xlink:href="#DejaVuSans-30" x="147.412109"/>
      </g>
     </g>
    </g>
    <g id="ytick_3">
     <g id="line2d_19">
      <path d="M 54 176.732308 
L 388.8 176.732308 
" clip-path="url(#pf9596f598a)" style="fill: none; stroke-dasharray: 2.96,1.28; stroke-dashoffset: 0; stroke: #b0b0b0; stroke-width: 0.8"/>
     </g>
     <g id="line2d_20">
      <g>
       <use xlink:href="#mc9eede951d" x="54" y="176.732308" style="stroke: #000000; stroke-width: 0.8"/>
      </g>
     </g>
     <g id="text_11">
      <!-- −8 -->
      <g transform="translate(32.257812 180.531526)scale(0.1 -0.1)">
       <defs>
        <path id="DejaVuSans-38" d="M 2034 2216 
Q 1584 2216 1326 1975 
Q 1069 1734 1069 1313 
Q 1069 891 1326 650 
Q 1584 409 2034 409 
Q 2484 409 2743 651 
Q 3003 894 3003 1313 
Q 3003 1734 2745 1975 
Q 2488 2216 2034 2216 
z
M 1403 2484 
Q 997 2584 770 2862 
Q 544 3141 544 3541 
Q 544 4100 942 4425 
Q 1341 4750 2034 4750 
Q 2731 4750 3128 4425 
Q 3525 4100 3525 3541 
Q 3525 3141 3298 2862 
Q 3072 2584 2669 2484 
Q 3125 2378 3379 2068 
Q 3634 1759 3634 1313 
Q 3634 634 3220 271 
Q 2806 -91 2034 -91 
Q 1263 -91 848 271 
Q 434 634 434 1313 
Q 434 1759 690 2068 
Q 947 2378 1403 2484 
z
M 1172 3481 
Q 1172 3119 1398 2916 
Q 1625 2713 2034 2713 
Q 2441 2713 2670 2916 
Q 2900 3119 2900 3481 
Q 2900 3844 2670 4047 
Q 2441 4250 2034 4250 
Q 1625 4250 1398 4047 
Q 1172 3844 1172 3481 
z
" transform="scale(0.015625)"/>
       </defs>
       <use xlink:href="#DejaVuSans-2212"/>
       <use xlink:href="#DejaVuSans-38" x="83.789062"/>
      </g>
     </g>
    </g>
    <g id="ytick_4">
     <g id="line2d_21">
      <path d="M 54 143.28 
L 388.8 143.28 
" clip-path="url(#pf9596f598a)" style="fill: none; stroke-dasharray: 2.96,1.28; stroke-dashoffset: 0; stroke: #b0b0b0; stroke-width: 0.8"/>
     </g>
     <g id="line2d_22">
      <g>
       <use xlink:href="#mc9eede951d" x="54" y="143.28" style="stroke: #000000; stroke-width: 0.8"/>
      </g>
     </g>
     <g id="text_12">
      <!-- −6 -->
      <g transform="translate(32.257812 147.079219)scale(0.1 -0.1)">
       <defs>
        <path id="DejaVuSans-36" d="M 2113 2584 
Q 1688 2584 1439 2293 
Q 1191 2003 1191 1497 
Q 1191 994 1439 701 
Q 1688 409 2113 409 
Q 2538 409 2786 701 
Q 3034 994 3034 1497 
Q 3034 2003 2786 2293 
Q 2538 2584 2113 2584 
z
M 3366 4563 
L 3366 3988 
Q 3128 4100 2886 4159 
Q 2644 4219 2406 4219 
Q 1781 4219 1451 3797 
Q 1122 3375 1075 2522 
Q 1259 2794 1537 2939 
Q 1816 3084 2150 3084 
Q 2853 3084 3261 2657 
Q 3669 2231 3669 1497 
Q 3669 778 3244 343 
Q 2819 -91 2113 -91 
Q 1303 -91 875 529 
Q 447 1150 447 2328 
Q 447 3434 972 4092 
Q 1497 4750 2381 4750 
Q 2619 4750 2861 4703 
Q 3103 4656 3366 4563 
z
" transform="scale(0.015625)"/>
       </defs>
       <use xlink:href="#DejaVuSans-2212"/>
       <use xlink:href="#DejaVuSans-36" x="83.789062"/>
      </g>
     </g>
    </g>
    <g id="ytick_5">
     <g id="line2d_23">
      <path d="M 54 109.827692 
L 388.8 109.827692 
" clip-path="url(#pf9596f598a)" style="fill: none; stroke-dasharray: 2.96,1.28; stroke-dashoffset: 0; stroke: #b0b0b0; stroke-width: 0.8"/>
     </g>
     <g id="line2d_24">
      <g>
       <use xlink:href="#mc9eede951d" x="54" y="109.827692" style="stroke: #000000; stroke-width: 0.8"/>
      </g>
     </g>
     <g id="text_13">
      <!-- −4 -->
      <g transform="translate(32.257812 113.626911)scale(0.1 -0.1)">
       <defs>
        <path id="DejaVuSans-34" d="M 2419 4116 
L 825 1625 
L 2419 1625 
L 2419 4116 
z
M 2253 4666 
L 3047 4666 
L 3047 1625 
L 3713 1625 
L 3713 1100 
L 3047 1100 
L 3047 0 
L 2419 0 
L 2419 1100 
L 313 1100 
L 313 1709 
L 2253 4666 
z
" transform="scale(0.015625)"/>
       </defs>
       <use xlink:href="#DejaVuSans-2212"/>
       <use xlink:href="#DejaVuSans-34" x="83.789062"/>
      </g>
     </g>
    </g>
    <g id="ytick_6">
     <g id="line2d_25">
      <path d="M 54 76.375385 
L 388.8 76.375385 
" clip-path="url(#pf9596f598a)" style="fill: none; stroke-dasharray: 2.96,1.28; stroke-dashoffset: 0; stroke: #b0b0b0; stroke-width: 0.8"/>
     </g>
     <g id="line2d_26">
      <g>
       <use xlink:href="#mc9eede951d" x="54" y="76.375385" style="stroke: #000000; stroke-width: 0.8"/>
      </g>
     </g>
     <g id="text_14">
      <!-- −2 -->
      <g transform="translate(32.257812 80.174603)scale(0.1 -0.1)">
       <use xlink:href="#DejaVuSans-2212"/>
       <use xlink:href="#DejaVuSans-32" x="83.789062"/>
      </g>
     </g>
    </g>
    <g id="ytick_7">
     <g id="line2d_27">
      <path d="M 54 42.923077 
L 388.8 42.923077 
" clip-path="url(#pf9596f598a)" style="fill: none; stroke-dasharray: 2.96,1.28; stroke-dashoffset: 0; stroke: #b0b0b0; stroke-width: 0.8"/>
     </g>
     <g id="line2d_28">
      <g>
       <use xlink:href="#mc9eede951d" x="54" y="42.923077" style="stroke: #000000; stroke-width: 0.8"/>
      </g>
     </g>
     <g id="text_15">
      <!-- 0 -->
      <g transform="translate(40.6375 46.722296)scale(0.1 -0.1)">
       <use xlink:href="#DejaVuSans-30"/>
      </g>
     </g>
    </g>
    <g id="text_16">
     <!-- Policy value error -->
     <g transform="translate(19.815625 186.597969)rotate(-90)scale(0.1 -0.1)">
      <defs>
       <path id="DejaVuSans-50" d="M 1259 4147 
L 1259 2394 
L 2053 2394 
Q 2494 2394 2734 2622 
Q 2975 2850 2975 3272 
Q 2975 3691 2734 3919 
Q 2494 4147 2053 4147 
L 1259 4147 
z
M 628 4666 
L 2053 4666 
Q 2838 4666 3239 4311 
Q 3641 3956 3641 3272 
Q 3641 2581 3239 2228 
Q 2838 1875 2053 1875 
L 1259 1875 
L 1259 0 
L 628 0 
L 628 4666 
z
" transform="scale(0.015625)"/>
       <path id="DejaVuSans-6f" d="M 1959 3097 
Q 1497 3097 1228 2736 
Q 959 2375 959 1747 
Q 959 1119 1226 758 
Q 1494 397 1959 397 
Q 2419 397 2687 759 
Q 2956 1122 2956 1747 
Q 2956 2369 2687 2733 
Q 2419 3097 1959 3097 
z
M 1959 3584 
Q 2709 3584 3137 3096 
Q 3566 2609 3566 1747 
Q 3566 888 3137 398 
Q 2709 -91 1959 -91 
Q 1206 -91 779 398 
Q 353 888 353 1747 
Q 353 2609 779 3096 
Q 1206 3584 1959 3584 
z
" transform="scale(0.015625)"/>
       <path id="DejaVuSans-6c" d="M 603 4863 
L 1178 4863 
L 1178 0 
L 603 0 
L 603 4863 
z
" transform="scale(0.015625)"/>
       <path id="DejaVuSans-69" d="M 603 3500 
L 1178 3500 
L 1178 0 
L 603 0 
L 603 3500 
z
M 603 4863 
L 1178 4863 
L 1178 4134 
L 603 4134 
L 603 4863 
z
" transform="scale(0.015625)"/>
       <path id="DejaVuSans-63" d="M 3122 3366 
L 3122 2828 
Q 2878 2963 2633 3030 
Q 2388 3097 2138 3097 
Q 1578 3097 1268 2742 
Q 959 2388 959 1747 
Q 959 1106 1268 751 
Q 1578 397 2138 397 
Q 2388 397 2633 464 
Q 2878 531 3122 666 
L 3122 134 
Q 2881 22 2623 -34 
Q 2366 -91 2075 -91 
Q 1284 -91 818 406 
Q 353 903 353 1747 
Q 353 2603 823 3093 
Q 1294 3584 2113 3584 
Q 2378 3584 2631 3529 
Q 2884 3475 3122 3366 
z
" transform="scale(0.015625)"/>
       <path id="DejaVuSans-79" d="M 2059 -325 
Q 1816 -950 1584 -1140 
Q 1353 -1331 966 -1331 
L 506 -1331 
L 506 -850 
L 844 -850 
Q 1081 -850 1212 -737 
Q 1344 -625 1503 -206 
L 1606 56 
L 191 3500 
L 800 3500 
L 1894 763 
L 2988 3500 
L 3597 3500 
L 2059 -325 
z
" transform="scale(0.015625)"/>
       <path id="DejaVuSans-20" transform="scale(0.015625)"/>
       <path id="DejaVuSans-76" d="M 191 3500 
L 800 3500 
L 1894 563 
L 2988 3500 
L 3597 3500 
L 2284 0 
L 1503 0 
L 191 3500 
z
" transform="scale(0.015625)"/>
       <path id="DejaVuSans-61" d="M 2194 1759 
Q 1497 1759 1228 1600 
Q 959 1441 959 1056 
Q 959 750 1161 570 
Q 1363 391 1709 391 
Q 2188 391 2477 730 
Q 2766 1069 2766 1631 
L 2766 1759 
L 2194 1759 
z
M 3341 1997 
L 3341 0 
L 2766 0 
L 2766 531 
Q 2569 213 2275 61 
Q 1981 -91 1556 -91 
Q 1019 -91 701 211 
Q 384 513 384 1019 
Q 384 1609 779 1909 
Q 1175 2209 1959 2209 
L 2766 2209 
L 2766 2266 
Q 2766 2663 2505 2880 
Q 2244 3097 1772 3097 
Q 1472 3097 1187 3025 
Q 903 2953 641 2809 
L 641 3341 
Q 956 3463 1253 3523 
Q 1550 3584 1831 3584 
Q 2591 3584 2966 3190 
Q 3341 2797 3341 1997 
z
" transform="scale(0.015625)"/>
       <path id="DejaVuSans-75" d="M 544 1381 
L 544 3500 
L 1119 3500 
L 1119 1403 
Q 1119 906 1312 657 
Q 1506 409 1894 409 
Q 2359 409 2629 706 
Q 2900 1003 2900 1516 
L 2900 3500 
L 3475 3500 
L 3475 0 
L 2900 0 
L 2900 538 
Q 2691 219 2414 64 
Q 2138 -91 1772 -91 
Q 1169 -91 856 284 
Q 544 659 544 1381 
z
M 1991 3584 
L 1991 3584 
z
" transform="scale(0.015625)"/>
       <path id="DejaVuSans-72" d="M 2631 2963 
Q 2534 3019 2420 3045 
Q 2306 3072 2169 3072 
Q 1681 3072 1420 2755 
Q 1159 2438 1159 1844 
L 1159 0 
L 581 0 
L 581 3500 
L 1159 3500 
L 1159 2956 
Q 1341 3275 1631 3429 
Q 1922 3584 2338 3584 
Q 2397 3584 2469 3576 
Q 2541 3569 2628 3553 
L 2631 2963 
z
" transform="scale(0.015625)"/>
      </defs>
      <use xlink:href="#DejaVuSans-50"/>
      <use xlink:href="#DejaVuSans-6f" x="56.677734"/>
      <use xlink:href="#DejaVuSans-6c" x="117.859375"/>
      <use xlink:href="#DejaVuSans-69" x="145.642578"/>
      <use xlink:href="#DejaVuSans-63" x="173.425781"/>
      <use xlink:href="#DejaVuSans-79" x="228.40625"/>
      <use xlink:href="#DejaVuSans-20" x="287.585938"/>
      <use xlink:href="#DejaVuSans-76" x="319.373047"/>
      <use xlink:href="#DejaVuSans-61" x="378.552734"/>
      <use xlink:href="#DejaVuSans-6c" x="439.832031"/>
      <use xlink:href="#DejaVuSans-75" x="467.615234"/>
      <use xlink:href="#DejaVuSans-65" x="530.994141"/>
      <use xlink:href="#DejaVuSans-20" x="592.517578"/>
      <use xlink:href="#DejaVuSans-65" x="624.304688"/>
      <use xlink:href="#DejaVuSans-72" x="685.828125"/>
      <use xlink:href="#DejaVuSans-72" x="725.191406"/>
      <use xlink:href="#DejaVuSans-6f" x="764.054688"/>
      <use xlink:href="#DejaVuSans-72" x="825.236328"/>
     </g>
    </g>
   </g>
   <g id="line2d_29">
    <path d="M 69.218182 252.920008 
L 74.376888 250.352511 
L 79.535593 145.419894 
L 84.694299 76.927722 
L 89.853005 59.184522 
L 95.01171 51.626131 
L 100.170416 45.437116 
L 105.329122 51.446309 
L 110.487827 45.372261 
L 115.646533 44.50866 
L 120.805239 45.474477 
L 125.963945 46.145765 
L 131.12265 43.493836 
L 136.281356 43.496861 
L 141.440062 46.386098 
L 146.598767 43.496681 
L 151.757473 48.909343 
L 156.916179 43.32222 
L 162.074884 43.683002 
L 167.23359 45.990433 
L 172.392296 45.421912 
L 177.551002 45.262888 
L 182.709707 45.265936 
L 187.868413 42.927245 
L 193.027119 45.236682 
L 198.185824 45.606357 
L 203.34453 46.195846 
L 208.503236 58.845022 
L 213.661941 46.196046 
L 218.820647 46.196046 
L 223.979353 46.196046 
L 229.138059 45.606357 
L 234.296764 45.606357 
L 239.45547 46.010185 
L 244.614176 46.895174 
L 249.772881 46.010185 
L 254.931587 56.612181 
L 260.090293 45.603396 
L 265.248998 45.603396 
L 270.407704 45.606357 
L 275.56641 45.603396 
L 280.725116 45.603396 
L 285.883821 45.603396 
L 291.042527 45.603396 
L 296.201233 45.603396 
L 301.359938 45.606357 
L 306.518644 45.588831 
L 311.67735 45.588831 
L 316.836055 45.588831 
L 321.994761 45.588831 
L 327.153467 45.606357 
L 332.312173 45.606357 
L 337.470878 46.013132 
L 342.629584 46.013132 
L 347.78829 46.013132 
L 352.946995 46.195846 
L 358.105701 46.013132 
L 363.264407 46.369962 
L 368.423112 46.369962 
L 373.581818 46.369962 
" clip-path="url(#pf9596f598a)" style="fill: none; stroke: #9d02d7; stroke-width: 1.5; stroke-linecap: square"/>
    <defs>
     <path id="m2cd43144b0" d="M 0 -2 
L -2 2 
L 2 2 
z
" style="stroke: #9d02d7; stroke-linejoin: miter"/>
    </defs>
    <g clip-path="url(#pf9596f598a)">
     <use xlink:href="#m2cd43144b0" x="69.218182" y="252.920008" style="fill: #9d02d7; stroke: #9d02d7; stroke-linejoin: miter"/>
     <use xlink:href="#m2cd43144b0" x="74.376888" y="250.352511" style="fill: #9d02d7; stroke: #9d02d7; stroke-linejoin: miter"/>
     <use xlink:href="#m2cd43144b0" x="79.535593" y="145.419894" style="fill: #9d02d7; stroke: #9d02d7; stroke-linejoin: miter"/>
     <use xlink:href="#m2cd43144b0" x="84.694299" y="76.927722" style="fill: #9d02d7; stroke: #9d02d7; stroke-linejoin: miter"/>
     <use xlink:href="#m2cd43144b0" x="89.853005" y="59.184522" style="fill: #9d02d7; stroke: #9d02d7; stroke-linejoin: miter"/>
     <use xlink:href="#m2cd43144b0" x="95.01171" y="51.626131" style="fill: #9d02d7; stroke: #9d02d7; stroke-linejoin: miter"/>
     <use xlink:href="#m2cd43144b0" x="100.170416" y="45.437116" style="fill: #9d02d7; stroke: #9d02d7; stroke-linejoin: miter"/>
     <use xlink:href="#m2cd43144b0" x="105.329122" y="51.446309" style="fill: #9d02d7; stroke: #9d02d7; stroke-linejoin: miter"/>
     <use xlink:href="#m2cd43144b0" x="110.487827" y="45.372261" style="fill: #9d02d7; stroke: #9d02d7; stroke-linejoin: miter"/>
     <use xlink:href="#m2cd43144b0" x="115.646533" y="44.50866" style="fill: #9d02d7; stroke: #9d02d7; stroke-linejoin: miter"/>
     <use xlink:href="#m2cd43144b0" x="120.805239" y="45.474477" style="fill: #9d02d7; stroke: #9d02d7; stroke-linejoin: miter"/>
     <use xlink:href="#m2cd43144b0" x="125.963945" y="46.145765" style="fill: #9d02d7; stroke: #9d02d7; stroke-linejoin: miter"/>
     <use xlink:href="#m2cd43144b0" x="131.12265" y="43.493836" style="fill: #9d02d7; stroke: #9d02d7; stroke-linejoin: miter"/>
     <use xlink:href="#m2cd43144b0" x="136.281356" y="43.496861" style="fill: #9d02d7; stroke: #9d02d7; stroke-linejoin: miter"/>
     <use xlink:href="#m2cd43144b0" x="141.440062" y="46.386098" style="fill: #9d02d7; stroke: #9d02d7; stroke-linejoin: miter"/>
     <use xlink:href="#m2cd43144b0" x="146.598767" y="43.496681" style="fill: #9d02d7; stroke: #9d02d7; stroke-linejoin: miter"/>
     <use xlink:href="#m2cd43144b0" x="151.757473" y="48.909343" style="fill: #9d02d7; stroke: #9d02d7; stroke-linejoin: miter"/>
     <use xlink:href="#m2cd43144b0" x="156.916179" y="43.32222" style="fill: #9d02d7; stroke: #9d02d7; stroke-linejoin: miter"/>
     <use xlink:href="#m2cd43144b0" x="162.074884" y="43.683002" style="fill: #9d02d7; stroke: #9d02d7; stroke-linejoin: miter"/>
     <use xlink:href="#m2cd43144b0" x="167.23359" y="45.990433" style="fill: #9d02d7; stroke: #9d02d7; stroke-linejoin: miter"/>
     <use xlink:href="#m2cd43144b0" x="172.392296" y="45.421912" style="fill: #9d02d7; stroke: #9d02d7; stroke-linejoin: miter"/>
     <use xlink:href="#m2cd43144b0" x="177.551002" y="45.262888" style="fill: #9d02d7; stroke: #9d02d7; stroke-linejoin: miter"/>
     <use xlink:href="#m2cd43144b0" x="182.709707" y="45.265936" style="fill: #9d02d7; stroke: #9d02d7; stroke-linejoin: miter"/>
     <use xlink:href="#m2cd43144b0" x="187.868413" y="42.927245" style="fill: #9d02d7; stroke: #9d02d7; stroke-linejoin: miter"/>
     <use xlink:href="#m2cd43144b0" x="193.027119" y="45.236682" style="fill: #9d02d7; stroke: #9d02d7; stroke-linejoin: miter"/>
     <use xlink:href="#m2cd43144b0" x="198.185824" y="45.606357" style="fill: #9d02d7; stroke: #9d02d7; stroke-linejoin: miter"/>
     <use xlink:href="#m2cd43144b0" x="203.34453" y="46.195846" style="fill: #9d02d7; stroke: #9d02d7; stroke-linejoin: miter"/>
     <use xlink:href="#m2cd43144b0" x="208.503236" y="58.845022" style="fill: #9d02d7; stroke: #9d02d7; stroke-linejoin: miter"/>
     <use xlink:href="#m2cd43144b0" x="213.661941" y="46.196046" style="fill: #9d02d7; stroke: #9d02d7; stroke-linejoin: miter"/>
     <use xlink:href="#m2cd43144b0" x="218.820647" y="46.196046" style="fill: #9d02d7; stroke: #9d02d7; stroke-linejoin: miter"/>
     <use xlink:href="#m2cd43144b0" x="223.979353" y="46.196046" style="fill: #9d02d7; stroke: #9d02d7; stroke-linejoin: miter"/>
     <use xlink:href="#m2cd43144b0" x="229.138059" y="45.606357" style="fill: #9d02d7; stroke: #9d02d7; stroke-linejoin: miter"/>
     <use xlink:href="#m2cd43144b0" x="234.296764" y="45.606357" style="fill: #9d02d7; stroke: #9d02d7; stroke-linejoin: miter"/>
     <use xlink:href="#m2cd43144b0" x="239.45547" y="46.010185" style="fill: #9d02d7; stroke: #9d02d7; stroke-linejoin: miter"/>
     <use xlink:href="#m2cd43144b0" x="244.614176" y="46.895174" style="fill: #9d02d7; stroke: #9d02d7; stroke-linejoin: miter"/>
     <use xlink:href="#m2cd43144b0" x="249.772881" y="46.010185" style="fill: #9d02d7; stroke: #9d02d7; stroke-linejoin: miter"/>
     <use xlink:href="#m2cd43144b0" x="254.931587" y="56.612181" style="fill: #9d02d7; stroke: #9d02d7; stroke-linejoin: miter"/>
     <use xlink:href="#m2cd43144b0" x="260.090293" y="45.603396" style="fill: #9d02d7; stroke: #9d02d7; stroke-linejoin: miter"/>
     <use xlink:href="#m2cd43144b0" x="265.248998" y="45.603396" style="fill: #9d02d7; stroke: #9d02d7; stroke-linejoin: miter"/>
     <use xlink:href="#m2cd43144b0" x="270.407704" y="45.606357" style="fill: #9d02d7; stroke: #9d02d7; stroke-linejoin: miter"/>
     <use xlink:href="#m2cd43144b0" x="275.56641" y="45.603396" style="fill: #9d02d7; stroke: #9d02d7; stroke-linejoin: miter"/>
     <use xlink:href="#m2cd43144b0" x="280.725116" y="45.603396" style="fill: #9d02d7; stroke: #9d02d7; stroke-linejoin: miter"/>
     <use xlink:href="#m2cd43144b0" x="285.883821" y="45.603396" style="fill: #9d02d7; stroke: #9d02d7; stroke-linejoin: miter"/>
     <use xlink:href="#m2cd43144b0" x="291.042527" y="45.603396" style="fill: #9d02d7; stroke: #9d02d7; stroke-linejoin: miter"/>
     <use xlink:href="#m2cd43144b0" x="296.201233" y="45.603396" style="fill: #9d02d7; stroke: #9d02d7; stroke-linejoin: miter"/>
     <use xlink:href="#m2cd43144b0" x="301.359938" y="45.606357" style="fill: #9d02d7; stroke: #9d02d7; stroke-linejoin: miter"/>
     <use xlink:href="#m2cd43144b0" x="306.518644" y="45.588831" style="fill: #9d02d7; stroke: #9d02d7; stroke-linejoin: miter"/>
     <use xlink:href="#m2cd43144b0" x="311.67735" y="45.588831" style="fill: #9d02d7; stroke: #9d02d7; stroke-linejoin: miter"/>
     <use xlink:href="#m2cd43144b0" x="316.836055" y="45.588831" style="fill: #9d02d7; stroke: #9d02d7; stroke-linejoin: miter"/>
     <use xlink:href="#m2cd43144b0" x="321.994761" y="45.588831" style="fill: #9d02d7; stroke: #9d02d7; stroke-linejoin: miter"/>
     <use xlink:href="#m2cd43144b0" x="327.153467" y="45.606357" style="fill: #9d02d7; stroke: #9d02d7; stroke-linejoin: miter"/>
     <use xlink:href="#m2cd43144b0" x="332.312173" y="45.606357" style="fill: #9d02d7; stroke: #9d02d7; stroke-linejoin: miter"/>
     <use xlink:href="#m2cd43144b0" x="337.470878" y="46.013132" style="fill: #9d02d7; stroke: #9d02d7; stroke-linejoin: miter"/>
     <use xlink:href="#m2cd43144b0" x="342.629584" y="46.013132" style="fill: #9d02d7; stroke: #9d02d7; stroke-linejoin: miter"/>
     <use xlink:href="#m2cd43144b0" x="347.78829" y="46.013132" style="fill: #9d02d7; stroke: #9d02d7; stroke-linejoin: miter"/>
     <use xlink:href="#m2cd43144b0" x="352.946995" y="46.195846" style="fill: #9d02d7; stroke: #9d02d7; stroke-linejoin: miter"/>
     <use xlink:href="#m2cd43144b0" x="358.105701" y="46.013132" style="fill: #9d02d7; stroke: #9d02d7; stroke-linejoin: miter"/>
     <use xlink:href="#m2cd43144b0" x="363.264407" y="46.369962" style="fill: #9d02d7; stroke: #9d02d7; stroke-linejoin: miter"/>
     <use xlink:href="#m2cd43144b0" x="368.423112" y="46.369962" style="fill: #9d02d7; stroke: #9d02d7; stroke-linejoin: miter"/>
     <use xlink:href="#m2cd43144b0" x="373.581818" y="46.369962" style="fill: #9d02d7; stroke: #9d02d7; stroke-linejoin: miter"/>
    </g>
   </g>
   <g id="line2d_30">
    <path d="M 69.218182 253.029173 
L 74.376888 252.909327 
L 79.535593 138.212525 
L 84.694299 56.763112 
L 89.853005 50.687866 
L 95.01171 47.826796 
L 100.170416 46.735617 
L 105.329122 45.7326 
L 110.487827 65.574006 
L 115.646533 46.62646 
L 120.805239 54.870088 
L 125.963945 45.554584 
L 131.12265 45.609736 
L 136.281356 45.609736 
L 141.440062 45.480286 
L 146.598767 45.464059 
L 151.757473 45.631295 
L 156.916179 45.635339 
L 162.074884 45.635563 
L 167.23359 45.635563 
L 172.392296 45.635563 
L 177.551002 45.437116 
L 182.709707 45.436897 
L 187.868413 48.218088 
L 193.027119 45.335221 
L 198.185824 56.941333 
L 203.34453 46.206444 
L 208.503236 45.494591 
L 213.661941 45.494591 
L 218.820647 45.494591 
L 223.979353 45.494591 
L 229.138059 45.494591 
L 234.296764 45.494591 
L 239.45547 45.494591 
L 244.614176 48.258192 
L 249.772881 45.494591 
L 254.931587 45.494591 
L 260.090293 49.170971 
L 265.248998 49.436723 
L 270.407704 44.849597 
L 275.56641 44.961538 
L 280.725116 45.070724 
L 285.883821 45.570613 
L 291.042527 45.432626 
L 296.201233 44.944317 
L 301.359938 44.944317 
L 306.518644 45.644377 
L 311.67735 45.481947 
L 316.836055 45.481947 
L 321.994761 45.481947 
L 327.153467 45.481947 
L 332.312173 45.481947 
L 337.470878 45.481947 
L 342.629584 45.481947 
L 347.78829 45.481947 
L 352.946995 45.481947 
L 358.105701 45.481947 
L 363.264407 45.481947 
L 368.423112 45.481947 
L 373.581818 45.481947 
" clip-path="url(#pf9596f598a)" style="fill: none; stroke: #0000ff; stroke-width: 1.5; stroke-linecap: square"/>
    <defs>
     <path id="ma81010d21a" d="M 0 2 
C 0.530406 2 1.03916 1.789267 1.414214 1.414214 
C 1.789267 1.03916 2 0.530406 2 0 
C 2 -0.530406 1.789267 -1.03916 1.414214 -1.414214 
C 1.03916 -1.789267 0.530406 -2 0 -2 
C -0.530406 -2 -1.03916 -1.789267 -1.414214 -1.414214 
C -1.789267 -1.03916 -2 -0.530406 -2 0 
C -2 0.530406 -1.789267 1.03916 -1.414214 1.414214 
C -1.03916 1.789267 -0.530406 2 0 2 
z
" style="stroke: #0000ff"/>
    </defs>
    <g clip-path="url(#pf9596f598a)">
     <use xlink:href="#ma81010d21a" x="69.218182" y="253.029173" style="fill: #0000ff; stroke: #0000ff"/>
     <use xlink:href="#ma81010d21a" x="74.376888" y="252.909327" style="fill: #0000ff; stroke: #0000ff"/>
     <use xlink:href="#ma81010d21a" x="79.535593" y="138.212525" style="fill: #0000ff; stroke: #0000ff"/>
     <use xlink:href="#ma81010d21a" x="84.694299" y="56.763112" style="fill: #0000ff; stroke: #0000ff"/>
     <use xlink:href="#ma81010d21a" x="89.853005" y="50.687866" style="fill: #0000ff; stroke: #0000ff"/>
     <use xlink:href="#ma81010d21a" x="95.01171" y="47.826796" style="fill: #0000ff; stroke: #0000ff"/>
     <use xlink:href="#ma81010d21a" x="100.170416" y="46.735617" style="fill: #0000ff; stroke: #0000ff"/>
     <use xlink:href="#ma81010d21a" x="105.329122" y="45.7326" style="fill: #0000ff; stroke: #0000ff"/>
     <use xlink:href="#ma81010d21a" x="110.487827" y="65.574006" style="fill: #0000ff; stroke: #0000ff"/>
     <use xlink:href="#ma81010d21a" x="115.646533" y="46.62646" style="fill: #0000ff; stroke: #0000ff"/>
     <use xlink:href="#ma81010d21a" x="120.805239" y="54.870088" style="fill: #0000ff; stroke: #0000ff"/>
     <use xlink:href="#ma81010d21a" x="125.963945" y="45.554584" style="fill: #0000ff; stroke: #0000ff"/>
     <use xlink:href="#ma81010d21a" x="131.12265" y="45.609736" style="fill: #0000ff; stroke: #0000ff"/>
     <use xlink:href="#ma81010d21a" x="136.281356" y="45.609736" style="fill: #0000ff; stroke: #0000ff"/>
     <use xlink:href="#ma81010d21a" x="141.440062" y="45.480286" style="fill: #0000ff; stroke: #0000ff"/>
     <use xlink:href="#ma81010d21a" x="146.598767" y="45.464059" style="fill: #0000ff; stroke: #0000ff"/>
     <use xlink:href="#ma81010d21a" x="151.757473" y="45.631295" style="fill: #0000ff; stroke: #0000ff"/>
     <use xlink:href="#ma81010d21a" x="156.916179" y="45.635339" style="fill: #0000ff; stroke: #0000ff"/>
     <use xlink:href="#ma81010d21a" x="162.074884" y="45.635563" style="fill: #0000ff; stroke: #0000ff"/>
     <use xlink:href="#ma81010d21a" x="167.23359" y="45.635563" style="fill: #0000ff; stroke: #0000ff"/>
     <use xlink:href="#ma81010d21a" x="172.392296" y="45.635563" style="fill: #0000ff; stroke: #0000ff"/>
     <use xlink:href="#ma81010d21a" x="177.551002" y="45.437116" style="fill: #0000ff; stroke: #0000ff"/>
     <use xlink:href="#ma81010d21a" x="182.709707" y="45.436897" style="fill: #0000ff; stroke: #0000ff"/>
     <use xlink:href="#ma81010d21a" x="187.868413" y="48.218088" style="fill: #0000ff; stroke: #0000ff"/>
     <use xlink:href="#ma81010d21a" x="193.027119" y="45.335221" style="fill: #0000ff; stroke: #0000ff"/>
     <use xlink:href="#ma81010d21a" x="198.185824" y="56.941333" style="fill: #0000ff; stroke: #0000ff"/>
     <use xlink:href="#ma81010d21a" x="203.34453" y="46.206444" style="fill: #0000ff; stroke: #0000ff"/>
     <use xlink:href="#ma81010d21a" x="208.503236" y="45.494591" style="fill: #0000ff; stroke: #0000ff"/>
     <use xlink:href="#ma81010d21a" x="213.661941" y="45.494591" style="fill: #0000ff; stroke: #0000ff"/>
     <use xlink:href="#ma81010d21a" x="218.820647" y="45.494591" style="fill: #0000ff; stroke: #0000ff"/>
     <use xlink:href="#ma81010d21a" x="223.979353" y="45.494591" style="fill: #0000ff; stroke: #0000ff"/>
     <use xlink:href="#ma81010d21a" x="229.138059" y="45.494591" style="fill: #0000ff; stroke: #0000ff"/>
     <use xlink:href="#ma81010d21a" x="234.296764" y="45.494591" style="fill: #0000ff; stroke: #0000ff"/>
     <use xlink:href="#ma81010d21a" x="239.45547" y="45.494591" style="fill: #0000ff; stroke: #0000ff"/>
     <use xlink:href="#ma81010d21a" x="244.614176" y="48.258192" style="fill: #0000ff; stroke: #0000ff"/>
     <use xlink:href="#ma81010d21a" x="249.772881" y="45.494591" style="fill: #0000ff; stroke: #0000ff"/>
     <use xlink:href="#ma81010d21a" x="254.931587" y="45.494591" style="fill: #0000ff; stroke: #0000ff"/>
     <use xlink:href="#ma81010d21a" x="260.090293" y="49.170971" style="fill: #0000ff; stroke: #0000ff"/>
     <use xlink:href="#ma81010d21a" x="265.248998" y="49.436723" style="fill: #0000ff; stroke: #0000ff"/>
     <use xlink:href="#ma81010d21a" x="270.407704" y="44.849597" style="fill: #0000ff; stroke: #0000ff"/>
     <use xlink:href="#ma81010d21a" x="275.56641" y="44.961538" style="fill: #0000ff; stroke: #0000ff"/>
     <use xlink:href="#ma81010d21a" x="280.725116" y="45.070724" style="fill: #0000ff; stroke: #0000ff"/>
     <use xlink:href="#ma81010d21a" x="285.883821" y="45.570613" style="fill: #0000ff; stroke: #0000ff"/>
     <use xlink:href="#ma81010d21a" x="291.042527" y="45.432626" style="fill: #0000ff; stroke: #0000ff"/>
     <use xlink:href="#ma81010d21a" x="296.201233" y="44.944317" style="fill: #0000ff; stroke: #0000ff"/>
     <use xlink:href="#ma81010d21a" x="301.359938" y="44.944317" style="fill: #0000ff; stroke: #0000ff"/>
     <use xlink:href="#ma81010d21a" x="306.518644" y="45.644377" style="fill: #0000ff; stroke: #0000ff"/>
     <use xlink:href="#ma81010d21a" x="311.67735" y="45.481947" style="fill: #0000ff; stroke: #0000ff"/>
     <use xlink:href="#ma81010d21a" x="316.836055" y="45.481947" style="fill: #0000ff; stroke: #0000ff"/>
     <use xlink:href="#ma81010d21a" x="321.994761" y="45.481947" style="fill: #0000ff; stroke: #0000ff"/>
     <use xlink:href="#ma81010d21a" x="327.153467" y="45.481947" style="fill: #0000ff; stroke: #0000ff"/>
     <use xlink:href="#ma81010d21a" x="332.312173" y="45.481947" style="fill: #0000ff; stroke: #0000ff"/>
     <use xlink:href="#ma81010d21a" x="337.470878" y="45.481947" style="fill: #0000ff; stroke: #0000ff"/>
     <use xlink:href="#ma81010d21a" x="342.629584" y="45.481947" style="fill: #0000ff; stroke: #0000ff"/>
     <use xlink:href="#ma81010d21a" x="347.78829" y="45.481947" style="fill: #0000ff; stroke: #0000ff"/>
     <use xlink:href="#ma81010d21a" x="352.946995" y="45.481947" style="fill: #0000ff; stroke: #0000ff"/>
     <use xlink:href="#ma81010d21a" x="358.105701" y="45.481947" style="fill: #0000ff; stroke: #0000ff"/>
     <use xlink:href="#ma81010d21a" x="363.264407" y="45.481947" style="fill: #0000ff; stroke: #0000ff"/>
     <use xlink:href="#ma81010d21a" x="368.423112" y="45.481947" style="fill: #0000ff; stroke: #0000ff"/>
     <use xlink:href="#ma81010d21a" x="373.581818" y="45.481947" style="fill: #0000ff; stroke: #0000ff"/>
    </g>
   </g>
   <g id="line2d_31">
    <path d="M 69.218182 253.30005 
L 74.376888 253.656159 
L 79.535593 254.820111 
L 84.694299 136.057372 
L 89.853005 49.320027 
L 95.01171 59.161607 
L 100.170416 67.513733 
L 105.329122 47.294925 
L 110.487827 48.651138 
L 115.646533 49.155279 
L 120.805239 61.649386 
L 125.963945 47.318491 
L 131.12265 54.003514 
L 136.281356 48.105463 
L 141.440062 47.524628 
L 146.598767 47.361815 
L 151.757473 47.361815 
L 156.916179 47.098843 
L 162.074884 47.210435 
L 167.23359 47.361815 
L 172.392296 47.210435 
L 177.551002 47.004336 
L 182.709707 48.53905 
L 187.868413 47.319634 
L 193.027119 52.094205 
L 198.185824 51.101396 
L 203.34453 51.101396 
L 208.503236 51.101396 
L 213.661941 51.101396 
L 218.820647 49.512186 
L 223.979353 53.713409 
L 229.138059 47.210435 
L 234.296764 47.210435 
L 239.45547 47.004296 
L 244.614176 49.316307 
L 249.772881 46.989902 
L 254.931587 47.245157 
L 260.090293 49.316307 
L 265.248998 49.316354 
L 270.407704 49.316354 
L 275.56641 49.316354 
L 280.725116 49.316354 
L 285.883821 49.316354 
L 291.042527 49.316354 
L 296.201233 49.316354 
L 301.359938 47.245272 
L 306.518644 52.764401 
L 311.67735 47.245157 
L 316.836055 46.989902 
L 321.994761 43.139048 
L 327.153467 43.139048 
L 332.312173 46.899721 
L 337.470878 47.033235 
L 342.629584 47.1155 
L 347.78829 47.1155 
L 352.946995 47.004336 
L 358.105701 47.004336 
L 363.264407 47.004336 
L 368.423112 47.004336 
L 373.581818 47.004296 
" clip-path="url(#pf9596f598a)" style="fill: none; stroke: #ff7763; stroke-width: 1.5; stroke-linecap: square"/>
    <defs>
     <path id="m90dd3a6f30" d="M -2 2 
L 2 -2 
M -2 -2 
L 2 2 
" style="stroke: #ff7763"/>
    </defs>
    <g clip-path="url(#pf9596f598a)">
     <use xlink:href="#m90dd3a6f30" x="69.218182" y="253.30005" style="fill: #ff7763; stroke: #ff7763"/>
     <use xlink:href="#m90dd3a6f30" x="74.376888" y="253.656159" style="fill: #ff7763; stroke: #ff7763"/>
     <use xlink:href="#m90dd3a6f30" x="79.535593" y="254.820111" style="fill: #ff7763; stroke: #ff7763"/>
     <use xlink:href="#m90dd3a6f30" x="84.694299" y="136.057372" style="fill: #ff7763; stroke: #ff7763"/>
     <use xlink:href="#m90dd3a6f30" x="89.853005" y="49.320027" style="fill: #ff7763; stroke: #ff7763"/>
     <use xlink:href="#m90dd3a6f30" x="95.01171" y="59.161607" style="fill: #ff7763; stroke: #ff7763"/>
     <use xlink:href="#m90dd3a6f30" x="100.170416" y="67.513733" style="fill: #ff7763; stroke: #ff7763"/>
     <use xlink:href="#m90dd3a6f30" x="105.329122" y="47.294925" style="fill: #ff7763; stroke: #ff7763"/>
     <use xlink:href="#m90dd3a6f30" x="110.487827" y="48.651138" style="fill: #ff7763; stroke: #ff7763"/>
     <use xlink:href="#m90dd3a6f30" x="115.646533" y="49.155279" style="fill: #ff7763; stroke: #ff7763"/>
     <use xlink:href="#m90dd3a6f30" x="120.805239" y="61.649386" style="fill: #ff7763; stroke: #ff7763"/>
     <use xlink:href="#m90dd3a6f30" x="125.963945" y="47.318491" style="fill: #ff7763; stroke: #ff7763"/>
     <use xlink:href="#m90dd3a6f30" x="131.12265" y="54.003514" style="fill: #ff7763; stroke: #ff7763"/>
     <use xlink:href="#m90dd3a6f30" x="136.281356" y="48.105463" style="fill: #ff7763; stroke: #ff7763"/>
     <use xlink:href="#m90dd3a6f30" x="141.440062" y="47.524628" style="fill: #ff7763; stroke: #ff7763"/>
     <use xlink:href="#m90dd3a6f30" x="146.598767" y="47.361815" style="fill: #ff7763; stroke: #ff7763"/>
     <use xlink:href="#m90dd3a6f30" x="151.757473" y="47.361815" style="fill: #ff7763; stroke: #ff7763"/>
     <use xlink:href="#m90dd3a6f30" x="156.916179" y="47.098843" style="fill: #ff7763; stroke: #ff7763"/>
     <use xlink:href="#m90dd3a6f30" x="162.074884" y="47.210435" style="fill: #ff7763; stroke: #ff7763"/>
     <use xlink:href="#m90dd3a6f30" x="167.23359" y="47.361815" style="fill: #ff7763; stroke: #ff7763"/>
     <use xlink:href="#m90dd3a6f30" x="172.392296" y="47.210435" style="fill: #ff7763; stroke: #ff7763"/>
     <use xlink:href="#m90dd3a6f30" x="177.551002" y="47.004336" style="fill: #ff7763; stroke: #ff7763"/>
     <use xlink:href="#m90dd3a6f30" x="182.709707" y="48.53905" style="fill: #ff7763; stroke: #ff7763"/>
     <use xlink:href="#m90dd3a6f30" x="187.868413" y="47.319634" style="fill: #ff7763; stroke: #ff7763"/>
     <use xlink:href="#m90dd3a6f30" x="193.027119" y="52.094205" style="fill: #ff7763; stroke: #ff7763"/>
     <use xlink:href="#m90dd3a6f30" x="198.185824" y="51.101396" style="fill: #ff7763; stroke: #ff7763"/>
     <use xlink:href="#m90dd3a6f30" x="203.34453" y="51.101396" style="fill: #ff7763; stroke: #ff7763"/>
     <use xlink:href="#m90dd3a6f30" x="208.503236" y="51.101396" style="fill: #ff7763; stroke: #ff7763"/>
     <use xlink:href="#m90dd3a6f30" x="213.661941" y="51.101396" style="fill: #ff7763; stroke: #ff7763"/>
     <use xlink:href="#m90dd3a6f30" x="218.820647" y="49.512186" style="fill: #ff7763; stroke: #ff7763"/>
     <use xlink:href="#m90dd3a6f30" x="223.979353" y="53.713409" style="fill: #ff7763; stroke: #ff7763"/>
     <use xlink:href="#m90dd3a6f30" x="229.138059" y="47.210435" style="fill: #ff7763; stroke: #ff7763"/>
     <use xlink:href="#m90dd3a6f30" x="234.296764" y="47.210435" style="fill: #ff7763; stroke: #ff7763"/>
     <use xlink:href="#m90dd3a6f30" x="239.45547" y="47.004296" style="fill: #ff7763; stroke: #ff7763"/>
     <use xlink:href="#m90dd3a6f30" x="244.614176" y="49.316307" style="fill: #ff7763; stroke: #ff7763"/>
     <use xlink:href="#m90dd3a6f30" x="249.772881" y="46.989902" style="fill: #ff7763; stroke: #ff7763"/>
     <use xlink:href="#m90dd3a6f30" x="254.931587" y="47.245157" style="fill: #ff7763; stroke: #ff7763"/>
     <use xlink:href="#m90dd3a6f30" x="260.090293" y="49.316307" style="fill: #ff7763; stroke: #ff7763"/>
     <use xlink:href="#m90dd3a6f30" x="265.248998" y="49.316354" style="fill: #ff7763; stroke: #ff7763"/>
     <use xlink:href="#m90dd3a6f30" x="270.407704" y="49.316354" style="fill: #ff7763; stroke: #ff7763"/>
     <use xlink:href="#m90dd3a6f30" x="275.56641" y="49.316354" style="fill: #ff7763; stroke: #ff7763"/>
     <use xlink:href="#m90dd3a6f30" x="280.725116" y="49.316354" style="fill: #ff7763; stroke: #ff7763"/>
     <use xlink:href="#m90dd3a6f30" x="285.883821" y="49.316354" style="fill: #ff7763; stroke: #ff7763"/>
     <use xlink:href="#m90dd3a6f30" x="291.042527" y="49.316354" style="fill: #ff7763; stroke: #ff7763"/>
     <use xlink:href="#m90dd3a6f30" x="296.201233" y="49.316354" style="fill: #ff7763; stroke: #ff7763"/>
     <use xlink:href="#m90dd3a6f30" x="301.359938" y="47.245272" style="fill: #ff7763; stroke: #ff7763"/>
     <use xlink:href="#m90dd3a6f30" x="306.518644" y="52.764401" style="fill: #ff7763; stroke: #ff7763"/>
     <use xlink:href="#m90dd3a6f30" x="311.67735" y="47.245157" style="fill: #ff7763; stroke: #ff7763"/>
     <use xlink:href="#m90dd3a6f30" x="316.836055" y="46.989902" style="fill: #ff7763; stroke: #ff7763"/>
     <use xlink:href="#m90dd3a6f30" x="321.994761" y="43.139048" style="fill: #ff7763; stroke: #ff7763"/>
     <use xlink:href="#m90dd3a6f30" x="327.153467" y="43.139048" style="fill: #ff7763; stroke: #ff7763"/>
     <use xlink:href="#m90dd3a6f30" x="332.312173" y="46.899721" style="fill: #ff7763; stroke: #ff7763"/>
     <use xlink:href="#m90dd3a6f30" x="337.470878" y="47.033235" style="fill: #ff7763; stroke: #ff7763"/>
     <use xlink:href="#m90dd3a6f30" x="342.629584" y="47.1155" style="fill: #ff7763; stroke: #ff7763"/>
     <use xlink:href="#m90dd3a6f30" x="347.78829" y="47.1155" style="fill: #ff7763; stroke: #ff7763"/>
     <use xlink:href="#m90dd3a6f30" x="352.946995" y="47.004336" style="fill: #ff7763; stroke: #ff7763"/>
     <use xlink:href="#m90dd3a6f30" x="358.105701" y="47.004336" style="fill: #ff7763; stroke: #ff7763"/>
     <use xlink:href="#m90dd3a6f30" x="363.264407" y="47.004336" style="fill: #ff7763; stroke: #ff7763"/>
     <use xlink:href="#m90dd3a6f30" x="368.423112" y="47.004336" style="fill: #ff7763; stroke: #ff7763"/>
     <use xlink:href="#m90dd3a6f30" x="373.581818" y="47.004296" style="fill: #ff7763; stroke: #ff7763"/>
    </g>
   </g>
   <g id="line2d_32">
    <path d="M 69.218182 255.910114 
L 74.376888 254.658444 
L 79.535593 254.904989 
L 84.694299 252.947179 
L 89.853005 54.278363 
L 95.01171 47.320604 
L 100.170416 46.923042 
L 105.329122 59.655584 
L 110.487827 47.225853 
L 115.646533 47.225853 
L 120.805239 84.488544 
L 125.963945 45.595915 
L 131.12265 45.756376 
L 136.281356 43.477992 
L 141.440062 43.477992 
L 146.598767 45.596135 
L 151.757473 57.409399 
L 156.916179 52.30738 
L 162.074884 52.30738 
L 167.23359 52.30738 
L 172.392296 51.774084 
L 177.551002 51.283664 
L 182.709707 52.30738 
L 187.868413 58.236697 
L 193.027119 58.170333 
L 198.185824 58.653923 
L 203.34453 52.307023 
L 208.503236 52.307023 
L 213.661941 51.869344 
L 218.820647 51.805678 
L 223.979353 51.805678 
L 229.138059 50.796837 
L 234.296764 51.917085 
L 239.45547 46.068012 
L 244.614176 46.102758 
L 249.772881 46.106171 
L 254.931587 46.106171 
L 260.090293 47.458885 
L 265.248998 45.623895 
L 270.407704 45.623895 
L 275.56641 43.683731 
L 280.725116 44.340348 
L 285.883821 44.317797 
L 291.042527 49.456413 
L 296.201233 45.857706 
L 301.359938 44.866427 
L 306.518644 44.862218 
L 311.67735 44.862218 
L 316.836055 74.05392 
L 321.994761 48.275816 
L 327.153467 44.862017 
L 332.312173 44.973129 
L 337.470878 44.862017 
L 342.629584 44.365479 
L 347.78829 44.256178 
L 352.946995 44.256178 
L 358.105701 44.185507 
L 363.264407 44.185507 
L 368.423112 43.529924 
L 373.581818 44.255977 
" clip-path="url(#pf9596f598a)" style="fill: none; stroke: #ffac1e; stroke-width: 1.5; stroke-linecap: square"/>
    <defs>
     <path id="m287946f6c5" d="M 0 -2 
L -0.449028 -0.618034 
L -1.902113 -0.618034 
L -0.726543 0.236068 
L -1.175571 1.618034 
L -0 0.763932 
L 1.175571 1.618034 
L 0.726543 0.236068 
L 1.902113 -0.618034 
L 0.449028 -0.618034 
z
" style="stroke: #ffac1e; stroke-linejoin: bevel"/>
    </defs>
    <g clip-path="url(#pf9596f598a)">
     <use xlink:href="#m287946f6c5" x="69.218182" y="255.910114" style="fill: #ffac1e; stroke: #ffac1e; stroke-linejoin: bevel"/>
     <use xlink:href="#m287946f6c5" x="74.376888" y="254.658444" style="fill: #ffac1e; stroke: #ffac1e; stroke-linejoin: bevel"/>
     <use xlink:href="#m287946f6c5" x="79.535593" y="254.904989" style="fill: #ffac1e; stroke: #ffac1e; stroke-linejoin: bevel"/>
     <use xlink:href="#m287946f6c5" x="84.694299" y="252.947179" style="fill: #ffac1e; stroke: #ffac1e; stroke-linejoin: bevel"/>
     <use xlink:href="#m287946f6c5" x="89.853005" y="54.278363" style="fill: #ffac1e; stroke: #ffac1e; stroke-linejoin: bevel"/>
     <use xlink:href="#m287946f6c5" x="95.01171" y="47.320604" style="fill: #ffac1e; stroke: #ffac1e; stroke-linejoin: bevel"/>
     <use xlink:href="#m287946f6c5" x="100.170416" y="46.923042" style="fill: #ffac1e; stroke: #ffac1e; stroke-linejoin: bevel"/>
     <use xlink:href="#m287946f6c5" x="105.329122" y="59.655584" style="fill: #ffac1e; stroke: #ffac1e; stroke-linejoin: bevel"/>
     <use xlink:href="#m287946f6c5" x="110.487827" y="47.225853" style="fill: #ffac1e; stroke: #ffac1e; stroke-linejoin: bevel"/>
     <use xlink:href="#m287946f6c5" x="115.646533" y="47.225853" style="fill: #ffac1e; stroke: #ffac1e; stroke-linejoin: bevel"/>
     <use xlink:href="#m287946f6c5" x="120.805239" y="84.488544" style="fill: #ffac1e; stroke: #ffac1e; stroke-linejoin: bevel"/>
     <use xlink:href="#m287946f6c5" x="125.963945" y="45.595915" style="fill: #ffac1e; stroke: #ffac1e; stroke-linejoin: bevel"/>
     <use xlink:href="#m287946f6c5" x="131.12265" y="45.756376" style="fill: #ffac1e; stroke: #ffac1e; stroke-linejoin: bevel"/>
     <use xlink:href="#m287946f6c5" x="136.281356" y="43.477992" style="fill: #ffac1e; stroke: #ffac1e; stroke-linejoin: bevel"/>
     <use xlink:href="#m287946f6c5" x="141.440062" y="43.477992" style="fill: #ffac1e; stroke: #ffac1e; stroke-linejoin: bevel"/>
     <use xlink:href="#m287946f6c5" x="146.598767" y="45.596135" style="fill: #ffac1e; stroke: #ffac1e; stroke-linejoin: bevel"/>
     <use xlink:href="#m287946f6c5" x="151.757473" y="57.409399" style="fill: #ffac1e; stroke: #ffac1e; stroke-linejoin: bevel"/>
     <use xlink:href="#m287946f6c5" x="156.916179" y="52.30738" style="fill: #ffac1e; stroke: #ffac1e; stroke-linejoin: bevel"/>
     <use xlink:href="#m287946f6c5" x="162.074884" y="52.30738" style="fill: #ffac1e; stroke: #ffac1e; stroke-linejoin: bevel"/>
     <use xlink:href="#m287946f6c5" x="167.23359" y="52.30738" style="fill: #ffac1e; stroke: #ffac1e; stroke-linejoin: bevel"/>
     <use xlink:href="#m287946f6c5" x="172.392296" y="51.774084" style="fill: #ffac1e; stroke: #ffac1e; stroke-linejoin: bevel"/>
     <use xlink:href="#m287946f6c5" x="177.551002" y="51.283664" style="fill: #ffac1e; stroke: #ffac1e; stroke-linejoin: bevel"/>
     <use xlink:href="#m287946f6c5" x="182.709707" y="52.30738" style="fill: #ffac1e; stroke: #ffac1e; stroke-linejoin: bevel"/>
     <use xlink:href="#m287946f6c5" x="187.868413" y="58.236697" style="fill: #ffac1e; stroke: #ffac1e; stroke-linejoin: bevel"/>
     <use xlink:href="#m287946f6c5" x="193.027119" y="58.170333" style="fill: #ffac1e; stroke: #ffac1e; stroke-linejoin: bevel"/>
     <use xlink:href="#m287946f6c5" x="198.185824" y="58.653923" style="fill: #ffac1e; stroke: #ffac1e; stroke-linejoin: bevel"/>
     <use xlink:href="#m287946f6c5" x="203.34453" y="52.307023" style="fill: #ffac1e; stroke: #ffac1e; stroke-linejoin: bevel"/>
     <use xlink:href="#m287946f6c5" x="208.503236" y="52.307023" style="fill: #ffac1e; stroke: #ffac1e; stroke-linejoin: bevel"/>
     <use xlink:href="#m287946f6c5" x="213.661941" y="51.869344" style="fill: #ffac1e; stroke: #ffac1e; stroke-linejoin: bevel"/>
     <use xlink:href="#m287946f6c5" x="218.820647" y="51.805678" style="fill: #ffac1e; stroke: #ffac1e; stroke-linejoin: bevel"/>
     <use xlink:href="#m287946f6c5" x="223.979353" y="51.805678" style="fill: #ffac1e; stroke: #ffac1e; stroke-linejoin: bevel"/>
     <use xlink:href="#m287946f6c5" x="229.138059" y="50.796837" style="fill: #ffac1e; stroke: #ffac1e; stroke-linejoin: bevel"/>
     <use xlink:href="#m287946f6c5" x="234.296764" y="51.917085" style="fill: #ffac1e; stroke: #ffac1e; stroke-linejoin: bevel"/>
     <use xlink:href="#m287946f6c5" x="239.45547" y="46.068012" style="fill: #ffac1e; stroke: #ffac1e; stroke-linejoin: bevel"/>
     <use xlink:href="#m287946f6c5" x="244.614176" y="46.102758" style="fill: #ffac1e; stroke: #ffac1e; stroke-linejoin: bevel"/>
     <use xlink:href="#m287946f6c5" x="249.772881" y="46.106171" style="fill: #ffac1e; stroke: #ffac1e; stroke-linejoin: bevel"/>
     <use xlink:href="#m287946f6c5" x="254.931587" y="46.106171" style="fill: #ffac1e; stroke: #ffac1e; stroke-linejoin: bevel"/>
     <use xlink:href="#m287946f6c5" x="260.090293" y="47.458885" style="fill: #ffac1e; stroke: #ffac1e; stroke-linejoin: bevel"/>
     <use xlink:href="#m287946f6c5" x="265.248998" y="45.623895" style="fill: #ffac1e; stroke: #ffac1e; stroke-linejoin: bevel"/>
     <use xlink:href="#m287946f6c5" x="270.407704" y="45.623895" style="fill: #ffac1e; stroke: #ffac1e; stroke-linejoin: bevel"/>
     <use xlink:href="#m287946f6c5" x="275.56641" y="43.683731" style="fill: #ffac1e; stroke: #ffac1e; stroke-linejoin: bevel"/>
     <use xlink:href="#m287946f6c5" x="280.725116" y="44.340348" style="fill: #ffac1e; stroke: #ffac1e; stroke-linejoin: bevel"/>
     <use xlink:href="#m287946f6c5" x="285.883821" y="44.317797" style="fill: #ffac1e; stroke: #ffac1e; stroke-linejoin: bevel"/>
     <use xlink:href="#m287946f6c5" x="291.042527" y="49.456413" style="fill: #ffac1e; stroke: #ffac1e; stroke-linejoin: bevel"/>
     <use xlink:href="#m287946f6c5" x="296.201233" y="45.857706" style="fill: #ffac1e; stroke: #ffac1e; stroke-linejoin: bevel"/>
     <use xlink:href="#m287946f6c5" x="301.359938" y="44.866427" style="fill: #ffac1e; stroke: #ffac1e; stroke-linejoin: bevel"/>
     <use xlink:href="#m287946f6c5" x="306.518644" y="44.862218" style="fill: #ffac1e; stroke: #ffac1e; stroke-linejoin: bevel"/>
     <use xlink:href="#m287946f6c5" x="311.67735" y="44.862218" style="fill: #ffac1e; stroke: #ffac1e; stroke-linejoin: bevel"/>
     <use xlink:href="#m287946f6c5" x="316.836055" y="74.05392" style="fill: #ffac1e; stroke: #ffac1e; stroke-linejoin: bevel"/>
     <use xlink:href="#m287946f6c5" x="321.994761" y="48.275816" style="fill: #ffac1e; stroke: #ffac1e; stroke-linejoin: bevel"/>
     <use xlink:href="#m287946f6c5" x="327.153467" y="44.862017" style="fill: #ffac1e; stroke: #ffac1e; stroke-linejoin: bevel"/>
     <use xlink:href="#m287946f6c5" x="332.312173" y="44.973129" style="fill: #ffac1e; stroke: #ffac1e; stroke-linejoin: bevel"/>
     <use xlink:href="#m287946f6c5" x="337.470878" y="44.862017" style="fill: #ffac1e; stroke: #ffac1e; stroke-linejoin: bevel"/>
     <use xlink:href="#m287946f6c5" x="342.629584" y="44.365479" style="fill: #ffac1e; stroke: #ffac1e; stroke-linejoin: bevel"/>
     <use xlink:href="#m287946f6c5" x="347.78829" y="44.256178" style="fill: #ffac1e; stroke: #ffac1e; stroke-linejoin: bevel"/>
     <use xlink:href="#m287946f6c5" x="352.946995" y="44.256178" style="fill: #ffac1e; stroke: #ffac1e; stroke-linejoin: bevel"/>
     <use xlink:href="#m287946f6c5" x="358.105701" y="44.185507" style="fill: #ffac1e; stroke: #ffac1e; stroke-linejoin: bevel"/>
     <use xlink:href="#m287946f6c5" x="363.264407" y="44.185507" style="fill: #ffac1e; stroke: #ffac1e; stroke-linejoin: bevel"/>
     <use xlink:href="#m287946f6c5" x="368.423112" y="43.529924" style="fill: #ffac1e; stroke: #ffac1e; stroke-linejoin: bevel"/>
     <use xlink:href="#m287946f6c5" x="373.581818" y="44.255977" style="fill: #ffac1e; stroke: #ffac1e; stroke-linejoin: bevel"/>
    </g>
   </g>
   <g id="line2d_33">
    <path d="M 69.218182 252.908818 
L 74.376888 145.504545 
L 79.535593 193.297184 
L 84.694299 60.335881 
L 89.853005 56.948955 
L 95.01171 80.464721 
L 100.170416 47.212149 
L 105.329122 47.26899 
L 110.487827 47.26899 
L 115.646533 47.269043 
L 120.805239 49.349829 
L 125.963945 77.544448 
L 131.12265 52.532427 
L 136.281356 49.717839 
L 141.440062 49.276008 
L 146.598767 49.557017 
L 151.757473 49.371854 
L 156.916179 53.255954 
L 162.074884 50.249578 
L 167.23359 50.25299 
L 172.392296 48.402727 
L 177.551002 50.25299 
L 182.709707 48.402403 
L 187.868413 47.229662 
L 193.027119 47.09449 
L 198.185824 47.094766 
L 203.34453 47.132264 
L 208.503236 43.496681 
L 213.661941 44.188506 
L 218.820647 43.690201 
L 223.979353 43.690201 
L 229.138059 43.687217 
L 234.296764 43.687217 
L 239.45547 48.909193 
L 244.614176 52.986055 
L 249.772881 48.821454 
L 254.931587 44.421741 
L 260.090293 44.048137 
L 265.248998 44.177648 
L 270.407704 44.177648 
L 275.56641 47.541898 
L 280.725116 47.541898 
L 285.883821 43.449281 
L 291.042527 84.41208 
L 296.201233 43.449281 
L 301.359938 43.323407 
L 306.518644 43.323407 
L 311.67735 43.311015 
L 316.836055 47.542209 
L 321.994761 45.872061 
L 327.153467 45.869172 
L 332.312173 45.872061 
L 337.470878 45.872061 
L 342.629584 44.474343 
L 347.78829 47.599783 
L 352.946995 44.474343 
L 358.105701 45.869172 
L 363.264407 43.17769 
L 368.423112 43.17769 
L 373.581818 43.17769 
" clip-path="url(#pf9596f598a)" style="fill: none; stroke: #009435; stroke-width: 1.5; stroke-linecap: square"/>
    <defs>
     <path id="m7ba6ddf105" d="M -2 2 
L 2 2 
L 2 -2 
L -2 -2 
z
" style="stroke: #009435; stroke-linejoin: miter"/>
    </defs>
    <g clip-path="url(#pf9596f598a)">
     <use xlink:href="#m7ba6ddf105" x="69.218182" y="252.908818" style="fill: #009435; stroke: #009435; stroke-linejoin: miter"/>
     <use xlink:href="#m7ba6ddf105" x="74.376888" y="145.504545" style="fill: #009435; stroke: #009435; stroke-linejoin: miter"/>
     <use xlink:href="#m7ba6ddf105" x="79.535593" y="193.297184" style="fill: #009435; stroke: #009435; stroke-linejoin: miter"/>
     <use xlink:href="#m7ba6ddf105" x="84.694299" y="60.335881" style="fill: #009435; stroke: #009435; stroke-linejoin: miter"/>
     <use xlink:href="#m7ba6ddf105" x="89.853005" y="56.948955" style="fill: #009435; stroke: #009435; stroke-linejoin: miter"/>
     <use xlink:href="#m7ba6ddf105" x="95.01171" y="80.464721" style="fill: #009435; stroke: #009435; stroke-linejoin: miter"/>
     <use xlink:href="#m7ba6ddf105" x="100.170416" y="47.212149" style="fill: #009435; stroke: #009435; stroke-linejoin: miter"/>
     <use xlink:href="#m7ba6ddf105" x="105.329122" y="47.26899" style="fill: #009435; stroke: #009435; stroke-linejoin: miter"/>
     <use xlink:href="#m7ba6ddf105" x="110.487827" y="47.26899" style="fill: #009435; stroke: #009435; stroke-linejoin: miter"/>
     <use xlink:href="#m7ba6ddf105" x="115.646533" y="47.269043" style="fill: #009435; stroke: #009435; stroke-linejoin: miter"/>
     <use xlink:href="#m7ba6ddf105" x="120.805239" y="49.349829" style="fill: #009435; stroke: #009435; stroke-linejoin: miter"/>
     <use xlink:href="#m7ba6ddf105" x="125.963945" y="77.544448" style="fill: #009435; stroke: #009435; stroke-linejoin: miter"/>
     <use xlink:href="#m7ba6ddf105" x="131.12265" y="52.532427" style="fill: #009435; stroke: #009435; stroke-linejoin: miter"/>
     <use xlink:href="#m7ba6ddf105" x="136.281356" y="49.717839" style="fill: #009435; stroke: #009435; stroke-linejoin: miter"/>
     <use xlink:href="#m7ba6ddf105" x="141.440062" y="49.276008" style="fill: #009435; stroke: #009435; stroke-linejoin: miter"/>
     <use xlink:href="#m7ba6ddf105" x="146.598767" y="49.557017" style="fill: #009435; stroke: #009435; stroke-linejoin: miter"/>
     <use xlink:href="#m7ba6ddf105" x="151.757473" y="49.371854" style="fill: #009435; stroke: #009435; stroke-linejoin: miter"/>
     <use xlink:href="#m7ba6ddf105" x="156.916179" y="53.255954" style="fill: #009435; stroke: #009435; stroke-linejoin: miter"/>
     <use xlink:href="#m7ba6ddf105" x="162.074884" y="50.249578" style="fill: #009435; stroke: #009435; stroke-linejoin: miter"/>
     <use xlink:href="#m7ba6ddf105" x="167.23359" y="50.25299" style="fill: #009435; stroke: #009435; stroke-linejoin: miter"/>
     <use xlink:href="#m7ba6ddf105" x="172.392296" y="48.402727" style="fill: #009435; stroke: #009435; stroke-linejoin: miter"/>
     <use xlink:href="#m7ba6ddf105" x="177.551002" y="50.25299" style="fill: #009435; stroke: #009435; stroke-linejoin: miter"/>
     <use xlink:href="#m7ba6ddf105" x="182.709707" y="48.402403" style="fill: #009435; stroke: #009435; stroke-linejoin: miter"/>
     <use xlink:href="#m7ba6ddf105" x="187.868413" y="47.229662" style="fill: #009435; stroke: #009435; stroke-linejoin: miter"/>
     <use xlink:href="#m7ba6ddf105" x="193.027119" y="47.09449" style="fill: #009435; stroke: #009435; stroke-linejoin: miter"/>
     <use xlink:href="#m7ba6ddf105" x="198.185824" y="47.094766" style="fill: #009435; stroke: #009435; stroke-linejoin: miter"/>
     <use xlink:href="#m7ba6ddf105" x="203.34453" y="47.132264" style="fill: #009435; stroke: #009435; stroke-linejoin: miter"/>
     <use xlink:href="#m7ba6ddf105" x="208.503236" y="43.496681" style="fill: #009435; stroke: #009435; stroke-linejoin: miter"/>
     <use xlink:href="#m7ba6ddf105" x="213.661941" y="44.188506" style="fill: #009435; stroke: #009435; stroke-linejoin: miter"/>
     <use xlink:href="#m7ba6ddf105" x="218.820647" y="43.690201" style="fill: #009435; stroke: #009435; stroke-linejoin: miter"/>
     <use xlink:href="#m7ba6ddf105" x="223.979353" y="43.690201" style="fill: #009435; stroke: #009435; stroke-linejoin: miter"/>
     <use xlink:href="#m7ba6ddf105" x="229.138059" y="43.687217" style="fill: #009435; stroke: #009435; stroke-linejoin: miter"/>
     <use xlink:href="#m7ba6ddf105" x="234.296764" y="43.687217" style="fill: #009435; stroke: #009435; stroke-linejoin: miter"/>
     <use xlink:href="#m7ba6ddf105" x="239.45547" y="48.909193" style="fill: #009435; stroke: #009435; stroke-linejoin: miter"/>
     <use xlink:href="#m7ba6ddf105" x="244.614176" y="52.986055" style="fill: #009435; stroke: #009435; stroke-linejoin: miter"/>
     <use xlink:href="#m7ba6ddf105" x="249.772881" y="48.821454" style="fill: #009435; stroke: #009435; stroke-linejoin: miter"/>
     <use xlink:href="#m7ba6ddf105" x="254.931587" y="44.421741" style="fill: #009435; stroke: #009435; stroke-linejoin: miter"/>
     <use xlink:href="#m7ba6ddf105" x="260.090293" y="44.048137" style="fill: #009435; stroke: #009435; stroke-linejoin: miter"/>
     <use xlink:href="#m7ba6ddf105" x="265.248998" y="44.177648" style="fill: #009435; stroke: #009435; stroke-linejoin: miter"/>
     <use xlink:href="#m7ba6ddf105" x="270.407704" y="44.177648" style="fill: #009435; stroke: #009435; stroke-linejoin: miter"/>
     <use xlink:href="#m7ba6ddf105" x="275.56641" y="47.541898" style="fill: #009435; stroke: #009435; stroke-linejoin: miter"/>
     <use xlink:href="#m7ba6ddf105" x="280.725116" y="47.541898" style="fill: #009435; stroke: #009435; stroke-linejoin: miter"/>
     <use xlink:href="#m7ba6ddf105" x="285.883821" y="43.449281" style="fill: #009435; stroke: #009435; stroke-linejoin: miter"/>
     <use xlink:href="#m7ba6ddf105" x="291.042527" y="84.41208" style="fill: #009435; stroke: #009435; stroke-linejoin: miter"/>
     <use xlink:href="#m7ba6ddf105" x="296.201233" y="43.449281" style="fill: #009435; stroke: #009435; stroke-linejoin: miter"/>
     <use xlink:href="#m7ba6ddf105" x="301.359938" y="43.323407" style="fill: #009435; stroke: #009435; stroke-linejoin: miter"/>
     <use xlink:href="#m7ba6ddf105" x="306.518644" y="43.323407" style="fill: #009435; stroke: #009435; stroke-linejoin: miter"/>
     <use xlink:href="#m7ba6ddf105" x="311.67735" y="43.311015" style="fill: #009435; stroke: #009435; stroke-linejoin: miter"/>
     <use xlink:href="#m7ba6ddf105" x="316.836055" y="47.542209" style="fill: #009435; stroke: #009435; stroke-linejoin: miter"/>
     <use xlink:href="#m7ba6ddf105" x="321.994761" y="45.872061" style="fill: #009435; stroke: #009435; stroke-linejoin: miter"/>
     <use xlink:href="#m7ba6ddf105" x="327.153467" y="45.869172" style="fill: #009435; stroke: #009435; stroke-linejoin: miter"/>
     <use xlink:href="#m7ba6ddf105" x="332.312173" y="45.872061" style="fill: #009435; stroke: #009435; stroke-linejoin: miter"/>
     <use xlink:href="#m7ba6ddf105" x="337.470878" y="45.872061" style="fill: #009435; stroke: #009435; stroke-linejoin: miter"/>
     <use xlink:href="#m7ba6ddf105" x="342.629584" y="44.474343" style="fill: #009435; stroke: #009435; stroke-linejoin: miter"/>
     <use xlink:href="#m7ba6ddf105" x="347.78829" y="47.599783" style="fill: #009435; stroke: #009435; stroke-linejoin: miter"/>
     <use xlink:href="#m7ba6ddf105" x="352.946995" y="44.474343" style="fill: #009435; stroke: #009435; stroke-linejoin: miter"/>
     <use xlink:href="#m7ba6ddf105" x="358.105701" y="45.869172" style="fill: #009435; stroke: #009435; stroke-linejoin: miter"/>
     <use xlink:href="#m7ba6ddf105" x="363.264407" y="43.17769" style="fill: #009435; stroke: #009435; stroke-linejoin: miter"/>
     <use xlink:href="#m7ba6ddf105" x="368.423112" y="43.17769" style="fill: #009435; stroke: #009435; stroke-linejoin: miter"/>
     <use xlink:href="#m7ba6ddf105" x="373.581818" y="43.17769" style="fill: #009435; stroke: #009435; stroke-linejoin: miter"/>
    </g>
   </g>
   <g id="patch_3">
    <path d="M 54 252 
L 54 34.56 
" style="fill: none; stroke: #000000; stroke-width: 0.8; stroke-linejoin: miter; stroke-linecap: square"/>
   </g>
   <g id="patch_4">
    <path d="M 388.8 252 
L 388.8 34.56 
" style="fill: none; stroke: #000000; stroke-width: 0.8; stroke-linejoin: miter; stroke-linecap: square"/>
   </g>
   <g id="patch_5">
    <path d="M 54 252 
L 388.8 252 
" style="fill: none; stroke: #000000; stroke-width: 0.8; stroke-linejoin: miter; stroke-linecap: square"/>
   </g>
   <g id="patch_6">
    <path d="M 54 34.56 
L 388.8 34.56 
" style="fill: none; stroke: #000000; stroke-width: 0.8; stroke-linejoin: miter; stroke-linecap: square"/>
   </g>
   <g id="text_17">
    <!-- BEB optimal policy with coeff_prior = 3 -->
    <g transform="translate(104.041875 28.56)scale(0.12 -0.12)">
     <defs>
      <path id="DejaVuSans-42" d="M 1259 2228 
L 1259 519 
L 2272 519 
Q 2781 519 3026 730 
Q 3272 941 3272 1375 
Q 3272 1813 3026 2020 
Q 2781 2228 2272 2228 
L 1259 2228 
z
M 1259 4147 
L 1259 2741 
L 2194 2741 
Q 2656 2741 2882 2914 
Q 3109 3088 3109 3444 
Q 3109 3797 2882 3972 
Q 2656 4147 2194 4147 
L 1259 4147 
z
M 628 4666 
L 2241 4666 
Q 2963 4666 3353 4366 
Q 3744 4066 3744 3513 
Q 3744 3084 3544 2831 
Q 3344 2578 2956 2516 
Q 3422 2416 3680 2098 
Q 3938 1781 3938 1306 
Q 3938 681 3513 340 
Q 3088 0 2303 0 
L 628 0 
L 628 4666 
z
" transform="scale(0.015625)"/>
      <path id="DejaVuSans-45" d="M 628 4666 
L 3578 4666 
L 3578 4134 
L 1259 4134 
L 1259 2753 
L 3481 2753 
L 3481 2222 
L 1259 2222 
L 1259 531 
L 3634 531 
L 3634 0 
L 628 0 
L 628 4666 
z
" transform="scale(0.015625)"/>
      <path id="DejaVuSans-6d" d="M 3328 2828 
Q 3544 3216 3844 3400 
Q 4144 3584 4550 3584 
Q 5097 3584 5394 3201 
Q 5691 2819 5691 2113 
L 5691 0 
L 5113 0 
L 5113 2094 
Q 5113 2597 4934 2840 
Q 4756 3084 4391 3084 
Q 3944 3084 3684 2787 
Q 3425 2491 3425 1978 
L 3425 0 
L 2847 0 
L 2847 2094 
Q 2847 2600 2669 2842 
Q 2491 3084 2119 3084 
Q 1678 3084 1418 2786 
Q 1159 2488 1159 1978 
L 1159 0 
L 581 0 
L 581 3500 
L 1159 3500 
L 1159 2956 
Q 1356 3278 1631 3431 
Q 1906 3584 2284 3584 
Q 2666 3584 2933 3390 
Q 3200 3197 3328 2828 
z
" transform="scale(0.015625)"/>
      <path id="DejaVuSans-77" d="M 269 3500 
L 844 3500 
L 1563 769 
L 2278 3500 
L 2956 3500 
L 3675 769 
L 4391 3500 
L 4966 3500 
L 4050 0 
L 3372 0 
L 2619 2869 
L 1863 0 
L 1184 0 
L 269 3500 
z
" transform="scale(0.015625)"/>
      <path id="DejaVuSans-68" d="M 3513 2113 
L 3513 0 
L 2938 0 
L 2938 2094 
Q 2938 2591 2744 2837 
Q 2550 3084 2163 3084 
Q 1697 3084 1428 2787 
Q 1159 2491 1159 1978 
L 1159 0 
L 581 0 
L 581 4863 
L 1159 4863 
L 1159 2956 
Q 1366 3272 1645 3428 
Q 1925 3584 2291 3584 
Q 2894 3584 3203 3211 
Q 3513 2838 3513 2113 
z
" transform="scale(0.015625)"/>
      <path id="DejaVuSans-66" d="M 2375 4863 
L 2375 4384 
L 1825 4384 
Q 1516 4384 1395 4259 
Q 1275 4134 1275 3809 
L 1275 3500 
L 2222 3500 
L 2222 3053 
L 1275 3053 
L 1275 0 
L 697 0 
L 697 3053 
L 147 3053 
L 147 3500 
L 697 3500 
L 697 3744 
Q 697 4328 969 4595 
Q 1241 4863 1831 4863 
L 2375 4863 
z
" transform="scale(0.015625)"/>
      <path id="DejaVuSans-5f" d="M 3263 -1063 
L 3263 -1509 
L -63 -1509 
L -63 -1063 
L 3263 -1063 
z
" transform="scale(0.015625)"/>
      <path id="DejaVuSans-3d" d="M 678 2906 
L 4684 2906 
L 4684 2381 
L 678 2381 
L 678 2906 
z
M 678 1631 
L 4684 1631 
L 4684 1100 
L 678 1100 
L 678 1631 
z
" transform="scale(0.015625)"/>
     </defs>
     <use xlink:href="#DejaVuSans-42"/>
     <use xlink:href="#DejaVuSans-45" x="68.603516"/>
     <use xlink:href="#DejaVuSans-42" x="131.787109"/>
     <use xlink:href="#DejaVuSans-20" x="200.390625"/>
     <use xlink:href="#DejaVuSans-6f" x="232.177734"/>
     <use xlink:href="#DejaVuSans-70" x="293.359375"/>
     <use xlink:href="#DejaVuSans-74" x="356.835938"/>
     <use xlink:href="#DejaVuSans-69" x="396.044922"/>
     <use xlink:href="#DejaVuSans-6d" x="423.828125"/>
     <use xlink:href="#DejaVuSans-61" x="521.240234"/>
     <use xlink:href="#DejaVuSans-6c" x="582.519531"/>
     <use xlink:href="#DejaVuSans-20" x="610.302734"/>
     <use xlink:href="#DejaVuSans-70" x="642.089844"/>
     <use xlink:href="#DejaVuSans-6f" x="705.566406"/>
     <use xlink:href="#DejaVuSans-6c" x="766.748047"/>
     <use xlink:href="#DejaVuSans-69" x="794.53125"/>
     <use xlink:href="#DejaVuSans-63" x="822.314453"/>
     <use xlink:href="#DejaVuSans-79" x="877.294922"/>
     <use xlink:href="#DejaVuSans-20" x="936.474609"/>
     <use xlink:href="#DejaVuSans-77" x="968.261719"/>
     <use xlink:href="#DejaVuSans-69" x="1050.048828"/>
     <use xlink:href="#DejaVuSans-74" x="1077.832031"/>
     <use xlink:href="#DejaVuSans-68" x="1117.041016"/>
     <use xlink:href="#DejaVuSans-20" x="1180.419922"/>
     <use xlink:href="#DejaVuSans-63" x="1212.207031"/>
     <use xlink:href="#DejaVuSans-6f" x="1267.1875"/>
     <use xlink:href="#DejaVuSans-65" x="1328.369141"/>
     <use xlink:href="#DejaVuSans-66" x="1389.892578"/>
     <use xlink:href="#DejaVuSans-66" x="1425.097656"/>
     <use xlink:href="#DejaVuSans-5f" x="1460.302734"/>
     <use xlink:href="#DejaVuSans-70" x="1510.302734"/>
     <use xlink:href="#DejaVuSans-72" x="1573.779297"/>
     <use xlink:href="#DejaVuSans-69" x="1614.892578"/>
     <use xlink:href="#DejaVuSans-6f" x="1642.675781"/>
     <use xlink:href="#DejaVuSans-72" x="1703.857422"/>
     <use xlink:href="#DejaVuSans-20" x="1744.970703"/>
     <use xlink:href="#DejaVuSans-3d" x="1776.757812"/>
     <use xlink:href="#DejaVuSans-20" x="1860.546875"/>
     <use xlink:href="#DejaVuSans-33" x="1892.333984"/>
    </g>
   </g>
   <g id="legend_1">
    <g id="patch_7">
     <path d="M 312.507812 247 
L 381.8 247 
Q 383.8 247 383.8 245 
L 383.8 172.609375 
Q 383.8 170.609375 381.8 170.609375 
L 312.507812 170.609375 
Q 310.507812 170.609375 310.507812 172.609375 
L 310.507812 245 
Q 310.507812 247 312.507812 247 
z
" style="fill: #ffffff; opacity: 0.8; stroke: #cccccc; stroke-linejoin: miter"/>
    </g>
    <g id="line2d_34">
     <path d="M 314.507812 178.707812 
L 324.507812 178.707812 
L 334.507812 178.707812 
" style="fill: none; stroke: #9d02d7; stroke-width: 1.5; stroke-linecap: square"/>
     <g>
      <use xlink:href="#m2cd43144b0" x="324.507812" y="178.707812" style="fill: #9d02d7; stroke: #9d02d7; stroke-linejoin: miter"/>
     </g>
    </g>
    <g id="text_18">
     <!-- beta=5 -->
     <g transform="translate(342.507812 182.207812)scale(0.1 -0.1)">
      <defs>
       <path id="DejaVuSans-62" d="M 3116 1747 
Q 3116 2381 2855 2742 
Q 2594 3103 2138 3103 
Q 1681 3103 1420 2742 
Q 1159 2381 1159 1747 
Q 1159 1113 1420 752 
Q 1681 391 2138 391 
Q 2594 391 2855 752 
Q 3116 1113 3116 1747 
z
M 1159 2969 
Q 1341 3281 1617 3432 
Q 1894 3584 2278 3584 
Q 2916 3584 3314 3078 
Q 3713 2572 3713 1747 
Q 3713 922 3314 415 
Q 2916 -91 2278 -91 
Q 1894 -91 1617 61 
Q 1341 213 1159 525 
L 1159 0 
L 581 0 
L 581 4863 
L 1159 4863 
L 1159 2969 
z
" transform="scale(0.015625)"/>
      </defs>
      <use xlink:href="#DejaVuSans-62"/>
      <use xlink:href="#DejaVuSans-65" x="63.476562"/>
      <use xlink:href="#DejaVuSans-74" x="125"/>
      <use xlink:href="#DejaVuSans-61" x="164.208984"/>
      <use xlink:href="#DejaVuSans-3d" x="225.488281"/>
      <use xlink:href="#DejaVuSans-35" x="309.277344"/>
     </g>
    </g>
    <g id="line2d_35">
     <path d="M 314.507812 193.385938 
L 324.507812 193.385938 
L 334.507812 193.385938 
" style="fill: none; stroke: #0000ff; stroke-width: 1.5; stroke-linecap: square"/>
     <g>
      <use xlink:href="#ma81010d21a" x="324.507812" y="193.385938" style="fill: #0000ff; stroke: #0000ff"/>
     </g>
    </g>
    <g id="text_19">
     <!-- beta=6 -->
     <g transform="translate(342.507812 196.885938)scale(0.1 -0.1)">
      <use xlink:href="#DejaVuSans-62"/>
      <use xlink:href="#DejaVuSans-65" x="63.476562"/>
      <use xlink:href="#DejaVuSans-74" x="125"/>
      <use xlink:href="#DejaVuSans-61" x="164.208984"/>
      <use xlink:href="#DejaVuSans-3d" x="225.488281"/>
      <use xlink:href="#DejaVuSans-36" x="309.277344"/>
     </g>
    </g>
    <g id="line2d_36">
     <path d="M 314.507812 208.064063 
L 324.507812 208.064063 
L 334.507812 208.064063 
" style="fill: none; stroke: #ff7763; stroke-width: 1.5; stroke-linecap: square"/>
     <g>
      <use xlink:href="#m90dd3a6f30" x="324.507812" y="208.064063" style="fill: #ff7763; stroke: #ff7763"/>
     </g>
    </g>
    <g id="text_20">
     <!-- beta=7 -->
     <g transform="translate(342.507812 211.564063)scale(0.1 -0.1)">
      <defs>
       <path id="DejaVuSans-37" d="M 525 4666 
L 3525 4666 
L 3525 4397 
L 1831 0 
L 1172 0 
L 2766 4134 
L 525 4134 
L 525 4666 
z
" transform="scale(0.015625)"/>
      </defs>
      <use xlink:href="#DejaVuSans-62"/>
      <use xlink:href="#DejaVuSans-65" x="63.476562"/>
      <use xlink:href="#DejaVuSans-74" x="125"/>
      <use xlink:href="#DejaVuSans-61" x="164.208984"/>
      <use xlink:href="#DejaVuSans-3d" x="225.488281"/>
      <use xlink:href="#DejaVuSans-37" x="309.277344"/>
     </g>
    </g>
    <g id="line2d_37">
     <path d="M 314.507812 222.742188 
L 324.507812 222.742188 
L 334.507812 222.742188 
" style="fill: none; stroke: #ffac1e; stroke-width: 1.5; stroke-linecap: square"/>
     <g>
      <use xlink:href="#m287946f6c5" x="324.507812" y="222.742188" style="fill: #ffac1e; stroke: #ffac1e; stroke-linejoin: bevel"/>
     </g>
    </g>
    <g id="text_21">
     <!-- beta=8 -->
     <g transform="translate(342.507812 226.242188)scale(0.1 -0.1)">
      <use xlink:href="#DejaVuSans-62"/>
      <use xlink:href="#DejaVuSans-65" x="63.476562"/>
      <use xlink:href="#DejaVuSans-74" x="125"/>
      <use xlink:href="#DejaVuSans-61" x="164.208984"/>
      <use xlink:href="#DejaVuSans-3d" x="225.488281"/>
      <use xlink:href="#DejaVuSans-38" x="309.277344"/>
     </g>
    </g>
    <g id="line2d_38">
     <path d="M 314.507812 237.420313 
L 324.507812 237.420313 
L 334.507812 237.420313 
" style="fill: none; stroke: #009435; stroke-width: 1.5; stroke-linecap: square"/>
     <g>
      <use xlink:href="#m7ba6ddf105" x="324.507812" y="237.420313" style="fill: #009435; stroke: #009435; stroke-linejoin: miter"/>
     </g>
    </g>
    <g id="text_22">
     <!-- beta=9 -->
     <g transform="translate(342.507812 240.920313)scale(0.1 -0.1)">
      <defs>
       <path id="DejaVuSans-39" d="M 703 97 
L 703 672 
Q 941 559 1184 500 
Q 1428 441 1663 441 
Q 2288 441 2617 861 
Q 2947 1281 2994 2138 
Q 2813 1869 2534 1725 
Q 2256 1581 1919 1581 
Q 1219 1581 811 2004 
Q 403 2428 403 3163 
Q 403 3881 828 4315 
Q 1253 4750 1959 4750 
Q 2769 4750 3195 4129 
Q 3622 3509 3622 2328 
Q 3622 1225 3098 567 
Q 2575 -91 1691 -91 
Q 1453 -91 1209 -44 
Q 966 3 703 97 
z
M 1959 2075 
Q 2384 2075 2632 2365 
Q 2881 2656 2881 3163 
Q 2881 3666 2632 3958 
Q 2384 4250 1959 4250 
Q 1534 4250 1286 3958 
Q 1038 3666 1038 3163 
Q 1038 2656 1286 2365 
Q 1534 2075 1959 2075 
z
" transform="scale(0.015625)"/>
      </defs>
      <use xlink:href="#DejaVuSans-62"/>
      <use xlink:href="#DejaVuSans-65" x="63.476562"/>
      <use xlink:href="#DejaVuSans-74" x="125"/>
      <use xlink:href="#DejaVuSans-61" x="164.208984"/>
      <use xlink:href="#DejaVuSans-3d" x="225.488281"/>
      <use xlink:href="#DejaVuSans-39" x="309.277344"/>
     </g>
    </g>
   </g>
  </g>
 </g>
 <defs>
  <clipPath id="pf9596f598a">
   <rect x="54" y="34.56" width="334.8" height="217.44"/>
  </clipPath>
 </defs>
</svg>
