<?xml version="1.0" encoding="utf-8" standalone="no"?>
<!DOCTYPE svg PUBLIC "-//W3C//DTD SVG 1.1//EN"
  "http://www.w3.org/Graphics/SVG/1.1/DTD/svg11.dtd">
<svg xmlns:xlink="http://www.w3.org/1999/xlink" width="432pt" height="288pt" viewBox="0 0 432 288" xmlns="http://www.w3.org/2000/svg" version="1.1">
 <metadata>
  <rdf:RDF xmlns:dc="http://purl.org/dc/elements/1.1/" xmlns:cc="http://creativecommons.org/ns#" xmlns:rdf="http://www.w3.org/1999/02/22-rdf-syntax-ns#">
   <cc:Work>
    <dc:type rdf:resource="http://purl.org/dc/dcmitype/StillImage"/>
    <dc:date>2023-01-11T15:36:54.350960</dc:date>
    <dc:format>image/svg+xml</dc:format>
    <dc:creator>
     <cc:Agent>
      <dc:title>Matplotlib v3.5.2, https://matplotlib.org/</dc:title>
     </cc:Agent>
    </dc:creator>
   </cc:Work>
  </rdf:RDF>
 </metadata>
 <defs>
  <style type="text/css">*{stroke-linejoin: round; stroke-linecap: butt}</style>
 </defs>
 <g id="figure_1">
  <g id="patch_1">
   <path d="M 0 288 
L 432 288 
L 432 0 
L 0 0 
z
" style="fill: #ffffff"/>
  </g>
  <g id="axes_1">
   <g id="patch_2">
    <path d="M 54 252 
L 388.8 252 
L 388.8 34.56 
L 54 34.56 
z
" style="fill: #ffffff"/>
   </g>
   <g id="PolyCollection_1">
    <defs>
     <path id="mbe2f1645b8" d="M 69.218182 -31.669506 
L 69.218182 -31.669506 
L 74.376888 -33.696895 
L 79.535593 -34.781919 
L 84.694299 -36.564974 
L 89.853005 -41.75053 
L 95.01171 -203.564381 
L 100.170416 -184.837126 
L 105.329122 -184.226549 
L 110.487827 -183.298164 
L 115.646533 -183.966152 
L 120.805239 -185.15197 
L 125.963945 -235.465712 
L 131.12265 -236.809713 
L 136.281356 -236.767487 
L 141.440062 -236.659452 
L 146.598767 -236.825076 
L 151.757473 -236.809713 
L 156.916179 -236.012982 
L 162.074884 -235.999682 
L 167.23359 -236.365719 
L 172.392296 -236.767487 
L 177.551002 -236.036312 
L 182.709707 -236.365719 
L 187.868413 -224.828849 
L 193.027119 -236.83676 
L 198.185824 -236.143202 
L 203.34453 -236.036312 
L 208.503236 -235.707637 
L 213.661941 -236.848452 
L 218.820647 -236.83676 
L 223.979353 -236.622768 
L 229.138059 -236.744114 
L 234.296764 -236.825076 
L 239.45547 -235.684337 
L 244.614176 -236.83676 
L 249.772881 -236.377326 
L 254.931587 -231.749601 
L 260.090293 -234.678306 
L 265.248998 -233.434562 
L 270.407704 -236.487 
L 275.56641 -236.959351 
L 280.725116 -236.993161 
L 285.883821 -236.250241 
L 291.042527 -236.898166 
L 296.201233 -236.87696 
L 301.359938 -236.898166 
L 306.518644 -236.271392 
L 311.67735 -235.994537 
L 316.836055 -232.321956 
L 321.994761 -234.901502 
L 327.153467 -234.901502 
L 332.312173 -232.344425 
L 337.470878 -233.972896 
L 342.629584 -232.344425 
L 347.78829 -236.449197 
L 352.946995 -236.377326 
L 358.105701 -235.966167 
L 363.264407 -235.202014 
L 368.423112 -235.943542 
L 373.581818 -235.774531 
L 373.581818 -235.774531 
L 373.581818 -235.774531 
L 368.423112 -235.943542 
L 363.264407 -235.202014 
L 358.105701 -235.966167 
L 352.946995 -236.377326 
L 347.78829 -236.449197 
L 342.629584 -232.344425 
L 337.470878 -233.972896 
L 332.312173 -232.344425 
L 327.153467 -234.901502 
L 321.994761 -234.901502 
L 316.836055 -232.321956 
L 311.67735 -235.994537 
L 306.518644 -236.271392 
L 301.359938 -236.898166 
L 296.201233 -236.87696 
L 291.042527 -236.898166 
L 285.883821 -236.250241 
L 280.725116 -236.993161 
L 275.56641 -236.959351 
L 270.407704 -236.487 
L 265.248998 -233.434562 
L 260.090293 -234.678306 
L 254.931587 -231.749601 
L 249.772881 -236.377326 
L 244.614176 -236.83676 
L 239.45547 -235.684337 
L 234.296764 -236.825076 
L 229.138059 -236.744114 
L 223.979353 -236.622768 
L 218.820647 -236.83676 
L 213.661941 -236.848452 
L 208.503236 -235.707637 
L 203.34453 -236.036312 
L 198.185824 -236.143202 
L 193.027119 -236.83676 
L 187.868413 -224.828849 
L 182.709707 -236.365719 
L 177.551002 -236.036312 
L 172.392296 -236.767487 
L 167.23359 -236.365719 
L 162.074884 -235.999682 
L 156.916179 -236.012982 
L 151.757473 -236.809713 
L 146.598767 -236.825076 
L 141.440062 -236.659452 
L 136.281356 -236.767487 
L 131.12265 -236.809713 
L 125.963945 -235.465712 
L 120.805239 -185.15197 
L 115.646533 -183.966152 
L 110.487827 -183.298164 
L 105.329122 -184.226549 
L 100.170416 -184.837126 
L 95.01171 -203.564381 
L 89.853005 -41.75053 
L 84.694299 -36.564974 
L 79.535593 -34.781919 
L 74.376888 -33.696895 
L 69.218182 -31.669506 
z
" style="stroke: #9d02d7; stroke-opacity: 0.2"/>
    </defs>
    <g clip-path="url(#pf04b7d92f6)">
     <use xlink:href="#mbe2f1645b8" x="0" y="288" style="fill: #9d02d7; fill-opacity: 0.2; stroke: #9d02d7; stroke-opacity: 0.2"/>
    </g>
   </g>
   <g id="PolyCollection_2">
    <defs>
     <path id="m85be1d667f" d="M 69.218182 -34.797398 
L 69.218182 -34.797398 
L 74.376888 -33.003022 
L 79.535593 -41.528143 
L 84.694299 -55.493899 
L 89.853005 -36.745255 
L 95.01171 -158.700253 
L 100.170416 -143.728519 
L 105.329122 -206.049959 
L 110.487827 -206.049959 
L 115.646533 -206.875836 
L 120.805239 -206.049959 
L 125.963945 -209.289091 
L 131.12265 -200.798559 
L 136.281356 -206.049959 
L 141.440062 -206.049959 
L 146.598767 -209.289091 
L 151.757473 -209.289091 
L 156.916179 -209.289091 
L 162.074884 -209.289091 
L 167.23359 -205.070234 
L 172.392296 -207.830027 
L 177.551002 -207.830027 
L 182.709707 -209.289091 
L 187.868413 -206.049959 
L 193.027119 -206.049959 
L 198.185824 -209.289091 
L 203.34453 -206.049959 
L 208.503236 -209.289091 
L 213.661941 -206.049959 
L 218.820647 -209.289091 
L 223.979353 -206.049959 
L 229.138059 -209.289091 
L 234.296764 -206.049959 
L 239.45547 -206.049959 
L 244.614176 -206.049959 
L 249.772881 -206.049959 
L 254.931587 -211.011307 
L 260.090293 -211.011307 
L 265.248998 -211.011307 
L 270.407704 -211.011307 
L 275.56641 -206.231459 
L 280.725116 -211.011307 
L 285.883821 -206.231459 
L 291.042527 -206.231459 
L 296.201233 -211.011307 
L 301.359938 -211.011307 
L 306.518644 -211.011307 
L 311.67735 -211.011307 
L 316.836055 -211.011307 
L 321.994761 -211.011307 
L 327.153467 -211.011307 
L 332.312173 -211.011307 
L 337.470878 -211.011307 
L 342.629584 -211.011307 
L 347.78829 -211.011307 
L 352.946995 -211.011307 
L 358.105701 -211.011307 
L 363.264407 -211.011307 
L 368.423112 -211.011307 
L 373.581818 -211.011307 
L 373.581818 -211.011307 
L 373.581818 -211.011307 
L 368.423112 -211.011307 
L 363.264407 -211.011307 
L 358.105701 -211.011307 
L 352.946995 -211.011307 
L 347.78829 -211.011307 
L 342.629584 -211.011307 
L 337.470878 -211.011307 
L 332.312173 -211.011307 
L 327.153467 -211.011307 
L 321.994761 -211.011307 
L 316.836055 -211.011307 
L 311.67735 -211.011307 
L 306.518644 -211.011307 
L 301.359938 -211.011307 
L 296.201233 -211.011307 
L 291.042527 -206.231459 
L 285.883821 -206.231459 
L 280.725116 -211.011307 
L 275.56641 -206.231459 
L 270.407704 -211.011307 
L 265.248998 -211.011307 
L 260.090293 -211.011307 
L 254.931587 -211.011307 
L 249.772881 -206.049959 
L 244.614176 -206.049959 
L 239.45547 -206.049959 
L 234.296764 -206.049959 
L 229.138059 -209.289091 
L 223.979353 -206.049959 
L 218.820647 -209.289091 
L 213.661941 -206.049959 
L 208.503236 -209.289091 
L 203.34453 -206.049959 
L 198.185824 -209.289091 
L 193.027119 -206.049959 
L 187.868413 -206.049959 
L 182.709707 -209.289091 
L 177.551002 -207.830027 
L 172.392296 -207.830027 
L 167.23359 -205.070234 
L 162.074884 -209.289091 
L 156.916179 -209.289091 
L 151.757473 -209.289091 
L 146.598767 -209.289091 
L 141.440062 -206.049959 
L 136.281356 -206.049959 
L 131.12265 -200.798559 
L 125.963945 -209.289091 
L 120.805239 -206.049959 
L 115.646533 -206.875836 
L 110.487827 -206.049959 
L 105.329122 -206.049959 
L 100.170416 -143.728519 
L 95.01171 -158.700253 
L 89.853005 -36.745255 
L 84.694299 -55.493899 
L 79.535593 -41.528143 
L 74.376888 -33.003022 
L 69.218182 -34.797398 
z
" style="stroke: #0000ff; stroke-opacity: 0.2"/>
    </defs>
    <g clip-path="url(#pf04b7d92f6)">
     <use xlink:href="#m85be1d667f" x="0" y="288" style="fill: #0000ff; fill-opacity: 0.2; stroke: #0000ff; stroke-opacity: 0.2"/>
    </g>
   </g>
   <g id="PolyCollection_3">
    <defs>
     <path id="md051eef94f" d="M 69.218182 -33.4226 
L 69.218182 -33.4226 
L 74.376888 -45.787526 
L 79.535593 -34.134192 
L 84.694299 -34.743934 
L 89.853005 -57.661602 
L 95.01171 -87.522472 
L 100.170416 -118.655221 
L 105.329122 -161.115566 
L 110.487827 -176.542235 
L 115.646533 -186.26666 
L 120.805239 -173.81726 
L 125.963945 -188.726091 
L 131.12265 -188.726091 
L 136.281356 -188.726091 
L 141.440062 -188.726091 
L 146.598767 -188.726091 
L 151.757473 -186.113314 
L 156.916179 -188.008983 
L 162.074884 -188.008983 
L 167.23359 -188.008983 
L 172.392296 -188.008983 
L 177.551002 -188.008983 
L 182.709707 -187.950101 
L 187.868413 -188.008983 
L 193.027119 -188.008983 
L 198.185824 -187.950101 
L 203.34453 -187.950101 
L 208.503236 -187.950101 
L 213.661941 -187.444337 
L 218.820647 -187.444337 
L 223.979353 -187.705472 
L 229.138059 -187.444337 
L 234.296764 -187.444337 
L 239.45547 -188.21371 
L 244.614176 -188.21371 
L 249.772881 -188.21371 
L 254.931587 -188.21371 
L 260.090293 -187.444337 
L 265.248998 -187.444337 
L 270.407704 -187.444337 
L 275.56641 -187.444337 
L 280.725116 -187.444337 
L 285.883821 -187.444337 
L 291.042527 -187.444337 
L 296.201233 -187.444337 
L 301.359938 -187.444337 
L 306.518644 -187.444337 
L 311.67735 -187.444337 
L 316.836055 -187.444337 
L 321.994761 -187.444337 
L 327.153467 -187.444337 
L 332.312173 -187.444337 
L 337.470878 -187.705472 
L 342.629584 -187.444337 
L 347.78829 -187.444337 
L 352.946995 -185.4018 
L 358.105701 -185.520497 
L 363.264407 -185.520497 
L 368.423112 -185.520497 
L 373.581818 -187.705472 
L 373.581818 -187.705472 
L 373.581818 -187.705472 
L 368.423112 -185.520497 
L 363.264407 -185.520497 
L 358.105701 -185.520497 
L 352.946995 -185.4018 
L 347.78829 -187.444337 
L 342.629584 -187.444337 
L 337.470878 -187.705472 
L 332.312173 -187.444337 
L 327.153467 -187.444337 
L 321.994761 -187.444337 
L 316.836055 -187.444337 
L 311.67735 -187.444337 
L 306.518644 -187.444337 
L 301.359938 -187.444337 
L 296.201233 -187.444337 
L 291.042527 -187.444337 
L 285.883821 -187.444337 
L 280.725116 -187.444337 
L 275.56641 -187.444337 
L 270.407704 -187.444337 
L 265.248998 -187.444337 
L 260.090293 -187.444337 
L 254.931587 -188.21371 
L 249.772881 -188.21371 
L 244.614176 -188.21371 
L 239.45547 -188.21371 
L 234.296764 -187.444337 
L 229.138059 -187.444337 
L 223.979353 -187.705472 
L 218.820647 -187.444337 
L 213.661941 -187.444337 
L 208.503236 -187.950101 
L 203.34453 -187.950101 
L 198.185824 -187.950101 
L 193.027119 -188.008983 
L 187.868413 -188.008983 
L 182.709707 -187.950101 
L 177.551002 -188.008983 
L 172.392296 -188.008983 
L 167.23359 -188.008983 
L 162.074884 -188.008983 
L 156.916179 -188.008983 
L 151.757473 -186.113314 
L 146.598767 -188.726091 
L 141.440062 -188.726091 
L 136.281356 -188.726091 
L 131.12265 -188.726091 
L 125.963945 -188.726091 
L 120.805239 -173.81726 
L 115.646533 -186.26666 
L 110.487827 -176.542235 
L 105.329122 -161.115566 
L 100.170416 -118.655221 
L 95.01171 -87.522472 
L 89.853005 -57.661602 
L 84.694299 -34.743934 
L 79.535593 -34.134192 
L 74.376888 -45.787526 
L 69.218182 -33.4226 
z
" style="stroke: #ff7763; stroke-opacity: 0.2"/>
    </defs>
    <g clip-path="url(#pf04b7d92f6)">
     <use xlink:href="#md051eef94f" x="0" y="288" style="fill: #ff7763; fill-opacity: 0.2; stroke: #ff7763; stroke-opacity: 0.2"/>
    </g>
   </g>
   <g id="PolyCollection_4">
    <defs>
     <path id="mb75d7005ad" d="M 69.218182 -33.325949 
L 69.218182 -33.325949 
L 74.376888 -36.372751 
L 79.535593 -31.843821 
L 84.694299 -49.089474 
L 89.853005 -45.855747 
L 95.01171 -58.597884 
L 100.170416 -78.402284 
L 105.329122 -113.219135 
L 110.487827 -126.334258 
L 115.646533 -169.980348 
L 120.805239 -171.852756 
L 125.963945 -171.972803 
L 131.12265 -170.589488 
L 136.281356 -171.899365 
L 141.440062 -171.025238 
L 146.598767 -169.835914 
L 151.757473 -171.074984 
L 156.916179 -171.050335 
L 162.074884 -169.194795 
L 167.23359 -172.119641 
L 172.392296 -169.880521 
L 177.551002 -172.119641 
L 182.709707 -172.119641 
L 187.868413 -172.119641 
L 193.027119 -172.119641 
L 198.185824 -172.119641 
L 203.34453 -165.636857 
L 208.503236 -172.119641 
L 213.661941 -172.482384 
L 218.820647 -172.119641 
L 223.979353 -172.119641 
L 229.138059 -172.119641 
L 234.296764 -172.119641 
L 239.45547 -177.894406 
L 244.614176 -177.894406 
L 249.772881 -178.053582 
L 254.931587 -177.894406 
L 260.090293 -177.894406 
L 265.248998 -177.894406 
L 270.407704 -177.894406 
L 275.56641 -177.894406 
L 280.725116 -178.191149 
L 285.883821 -178.191149 
L 291.042527 -175.873398 
L 296.201233 -178.191149 
L 301.359938 -178.191149 
L 306.518644 -178.191149 
L 311.67735 -177.75864 
L 316.836055 -177.75864 
L 321.994761 -177.75864 
L 327.153467 -177.75864 
L 332.312173 -177.953042 
L 337.470878 -177.73504 
L 342.629584 -177.73504 
L 347.78829 -177.73504 
L 352.946995 -177.73504 
L 358.105701 -177.73504 
L 363.264407 -177.73504 
L 368.423112 -178.389604 
L 373.581818 -178.191149 
L 373.581818 -178.191149 
L 373.581818 -178.191149 
L 368.423112 -178.389604 
L 363.264407 -177.73504 
L 358.105701 -177.73504 
L 352.946995 -177.73504 
L 347.78829 -177.73504 
L 342.629584 -177.73504 
L 337.470878 -177.73504 
L 332.312173 -177.953042 
L 327.153467 -177.75864 
L 321.994761 -177.75864 
L 316.836055 -177.75864 
L 311.67735 -177.75864 
L 306.518644 -178.191149 
L 301.359938 -178.191149 
L 296.201233 -178.191149 
L 291.042527 -175.873398 
L 285.883821 -178.191149 
L 280.725116 -178.191149 
L 275.56641 -177.894406 
L 270.407704 -177.894406 
L 265.248998 -177.894406 
L 260.090293 -177.894406 
L 254.931587 -177.894406 
L 249.772881 -178.053582 
L 244.614176 -177.894406 
L 239.45547 -177.894406 
L 234.296764 -172.119641 
L 229.138059 -172.119641 
L 223.979353 -172.119641 
L 218.820647 -172.119641 
L 213.661941 -172.482384 
L 208.503236 -172.119641 
L 203.34453 -165.636857 
L 198.185824 -172.119641 
L 193.027119 -172.119641 
L 187.868413 -172.119641 
L 182.709707 -172.119641 
L 177.551002 -172.119641 
L 172.392296 -169.880521 
L 167.23359 -172.119641 
L 162.074884 -169.194795 
L 156.916179 -171.050335 
L 151.757473 -171.074984 
L 146.598767 -169.835914 
L 141.440062 -171.025238 
L 136.281356 -171.899365 
L 131.12265 -170.589488 
L 125.963945 -171.972803 
L 120.805239 -171.852756 
L 115.646533 -169.980348 
L 110.487827 -126.334258 
L 105.329122 -113.219135 
L 100.170416 -78.402284 
L 95.01171 -58.597884 
L 89.853005 -45.855747 
L 84.694299 -49.089474 
L 79.535593 -31.843821 
L 74.376888 -36.372751 
L 69.218182 -33.325949 
z
" style="stroke: #ffac1e; stroke-opacity: 0.2"/>
    </defs>
    <g clip-path="url(#pf04b7d92f6)">
     <use xlink:href="#mb75d7005ad" x="0" y="288" style="fill: #ffac1e; fill-opacity: 0.2; stroke: #ffac1e; stroke-opacity: 0.2"/>
    </g>
   </g>
   <g id="PolyCollection_5">
    <defs>
     <path id="mce167a1f38" d="M 69.218182 -34.470646 
L 69.218182 -34.470646 
L 74.376888 -33.123364 
L 79.535593 -30.737034 
L 84.694299 -39.103399 
L 89.853005 -99.83988 
L 95.01171 -102.925211 
L 100.170416 -127.951569 
L 105.329122 -142.793961 
L 110.487827 -148.481595 
L 115.646533 -148.481595 
L 120.805239 -148.982135 
L 125.963945 -148.415493 
L 131.12265 -148.184436 
L 136.281356 -143.94298 
L 141.440062 -143.94298 
L 146.598767 -143.826504 
L 151.757473 -148.184436 
L 156.916179 -148.184436 
L 162.074884 -148.184436 
L 167.23359 -148.184436 
L 172.392296 -148.670305 
L 177.551002 -138.96481 
L 182.709707 -150.755068 
L 187.868413 -150.755068 
L 193.027119 -150.759706 
L 198.185824 -147.857802 
L 203.34453 -147.857802 
L 208.503236 -148.226573 
L 213.661941 -148.226573 
L 218.820647 -148.226573 
L 223.979353 -147.857802 
L 229.138059 -150.755068 
L 234.296764 -150.156247 
L 239.45547 -150.156247 
L 244.614176 -150.755068 
L 249.772881 -150.755068 
L 254.931587 -150.755068 
L 260.090293 -150.755068 
L 265.248998 -144.40903 
L 270.407704 -144.40903 
L 275.56641 -144.40903 
L 280.725116 -150.755068 
L 285.883821 -150.755068 
L 291.042527 -150.755068 
L 296.201233 -150.755068 
L 301.359938 -150.755068 
L 306.518644 -150.755068 
L 311.67735 -150.755068 
L 316.836055 -150.755068 
L 321.994761 -150.755068 
L 327.153467 -150.755068 
L 332.312173 -150.755068 
L 337.470878 -150.755068 
L 342.629584 -150.755068 
L 347.78829 -150.755068 
L 352.946995 -150.755068 
L 358.105701 -150.755068 
L 363.264407 -150.755068 
L 368.423112 -150.755068 
L 373.581818 -150.755068 
L 373.581818 -150.755068 
L 373.581818 -150.755068 
L 368.423112 -150.755068 
L 363.264407 -150.755068 
L 358.105701 -150.755068 
L 352.946995 -150.755068 
L 347.78829 -150.755068 
L 342.629584 -150.755068 
L 337.470878 -150.755068 
L 332.312173 -150.755068 
L 327.153467 -150.755068 
L 321.994761 -150.755068 
L 316.836055 -150.755068 
L 311.67735 -150.755068 
L 306.518644 -150.755068 
L 301.359938 -150.755068 
L 296.201233 -150.755068 
L 291.042527 -150.755068 
L 285.883821 -150.755068 
L 280.725116 -150.755068 
L 275.56641 -144.40903 
L 270.407704 -144.40903 
L 265.248998 -144.40903 
L 260.090293 -150.755068 
L 254.931587 -150.755068 
L 249.772881 -150.755068 
L 244.614176 -150.755068 
L 239.45547 -150.156247 
L 234.296764 -150.156247 
L 229.138059 -150.755068 
L 223.979353 -147.857802 
L 218.820647 -148.226573 
L 213.661941 -148.226573 
L 208.503236 -148.226573 
L 203.34453 -147.857802 
L 198.185824 -147.857802 
L 193.027119 -150.759706 
L 187.868413 -150.755068 
L 182.709707 -150.755068 
L 177.551002 -138.96481 
L 172.392296 -148.670305 
L 167.23359 -148.184436 
L 162.074884 -148.184436 
L 156.916179 -148.184436 
L 151.757473 -148.184436 
L 146.598767 -143.826504 
L 141.440062 -143.94298 
L 136.281356 -143.94298 
L 131.12265 -148.184436 
L 125.963945 -148.415493 
L 120.805239 -148.982135 
L 115.646533 -148.481595 
L 110.487827 -148.481595 
L 105.329122 -142.793961 
L 100.170416 -127.951569 
L 95.01171 -102.925211 
L 89.853005 -99.83988 
L 84.694299 -39.103399 
L 79.535593 -30.737034 
L 74.376888 -33.123364 
L 69.218182 -34.470646 
z
" style="stroke: #009435; stroke-opacity: 0.2"/>
    </defs>
    <g clip-path="url(#pf04b7d92f6)">
     <use xlink:href="#mce167a1f38" x="0" y="288" style="fill: #009435; fill-opacity: 0.2; stroke: #009435; stroke-opacity: 0.2"/>
    </g>
   </g>
   <g id="matplotlib.axis_1">
    <g id="xtick_1">
     <g id="line2d_1">
      <path d="M 69.218182 252 
L 69.218182 34.56 
" clip-path="url(#pf04b7d92f6)" style="fill: none; stroke-dasharray: 2.96,1.28; stroke-dashoffset: 0; stroke: #b0b0b0; stroke-width: 0.8"/>
     </g>
     <g id="line2d_2">
      <defs>
       <path id="mecfe0ec5d9" d="M 0 0 
L 0 3.5 
" style="stroke: #000000; stroke-width: 0.8"/>
      </defs>
      <g>
       <use xlink:href="#mecfe0ec5d9" x="69.218182" y="252" style="stroke: #000000; stroke-width: 0.8"/>
      </g>
     </g>
     <g id="text_1">
      <!-- 0 -->
      <g transform="translate(66.036932 266.598437)scale(0.1 -0.1)">
       <defs>
        <path id="DejaVuSans-30" d="M 2034 4250 
Q 1547 4250 1301 3770 
Q 1056 3291 1056 2328 
Q 1056 1369 1301 889 
Q 1547 409 2034 409 
Q 2525 409 2770 889 
Q 3016 1369 3016 2328 
Q 3016 3291 2770 3770 
Q 2525 4250 2034 4250 
z
M 2034 4750 
Q 2819 4750 3233 4129 
Q 3647 3509 3647 2328 
Q 3647 1150 3233 529 
Q 2819 -91 2034 -91 
Q 1250 -91 836 529 
Q 422 1150 422 2328 
Q 422 3509 836 4129 
Q 1250 4750 2034 4750 
z
" transform="scale(0.015625)"/>
       </defs>
       <use xlink:href="#DejaVuSans-30"/>
      </g>
     </g>
    </g>
    <g id="xtick_2">
     <g id="line2d_3">
      <path d="M 120.805239 252 
L 120.805239 34.56 
" clip-path="url(#pf04b7d92f6)" style="fill: none; stroke-dasharray: 2.96,1.28; stroke-dashoffset: 0; stroke: #b0b0b0; stroke-width: 0.8"/>
     </g>
     <g id="line2d_4">
      <g>
       <use xlink:href="#mecfe0ec5d9" x="120.805239" y="252" style="stroke: #000000; stroke-width: 0.8"/>
      </g>
     </g>
     <g id="text_2">
      <!-- 500 -->
      <g transform="translate(111.261489 266.598437)scale(0.1 -0.1)">
       <defs>
        <path id="DejaVuSans-35" d="M 691 4666 
L 3169 4666 
L 3169 4134 
L 1269 4134 
L 1269 2991 
Q 1406 3038 1543 3061 
Q 1681 3084 1819 3084 
Q 2600 3084 3056 2656 
Q 3513 2228 3513 1497 
Q 3513 744 3044 326 
Q 2575 -91 1722 -91 
Q 1428 -91 1123 -41 
Q 819 9 494 109 
L 494 744 
Q 775 591 1075 516 
Q 1375 441 1709 441 
Q 2250 441 2565 725 
Q 2881 1009 2881 1497 
Q 2881 1984 2565 2268 
Q 2250 2553 1709 2553 
Q 1456 2553 1204 2497 
Q 953 2441 691 2322 
L 691 4666 
z
" transform="scale(0.015625)"/>
       </defs>
       <use xlink:href="#DejaVuSans-35"/>
       <use xlink:href="#DejaVuSans-30" x="63.623047"/>
       <use xlink:href="#DejaVuSans-30" x="127.246094"/>
      </g>
     </g>
    </g>
    <g id="xtick_3">
     <g id="line2d_5">
      <path d="M 172.392296 252 
L 172.392296 34.56 
" clip-path="url(#pf04b7d92f6)" style="fill: none; stroke-dasharray: 2.96,1.28; stroke-dashoffset: 0; stroke: #b0b0b0; stroke-width: 0.8"/>
     </g>
     <g id="line2d_6">
      <g>
       <use xlink:href="#mecfe0ec5d9" x="172.392296" y="252" style="stroke: #000000; stroke-width: 0.8"/>
      </g>
     </g>
     <g id="text_3">
      <!-- 1000 -->
      <g transform="translate(159.667296 266.598437)scale(0.1 -0.1)">
       <defs>
        <path id="DejaVuSans-31" d="M 794 531 
L 1825 531 
L 1825 4091 
L 703 3866 
L 703 4441 
L 1819 4666 
L 2450 4666 
L 2450 531 
L 3481 531 
L 3481 0 
L 794 0 
L 794 531 
z
" transform="scale(0.015625)"/>
       </defs>
       <use xlink:href="#DejaVuSans-31"/>
       <use xlink:href="#DejaVuSans-30" x="63.623047"/>
       <use xlink:href="#DejaVuSans-30" x="127.246094"/>
       <use xlink:href="#DejaVuSans-30" x="190.869141"/>
      </g>
     </g>
    </g>
    <g id="xtick_4">
     <g id="line2d_7">
      <path d="M 223.979353 252 
L 223.979353 34.56 
" clip-path="url(#pf04b7d92f6)" style="fill: none; stroke-dasharray: 2.96,1.28; stroke-dashoffset: 0; stroke: #b0b0b0; stroke-width: 0.8"/>
     </g>
     <g id="line2d_8">
      <g>
       <use xlink:href="#mecfe0ec5d9" x="223.979353" y="252" style="stroke: #000000; stroke-width: 0.8"/>
      </g>
     </g>
     <g id="text_4">
      <!-- 1500 -->
      <g transform="translate(211.254353 266.598437)scale(0.1 -0.1)">
       <use xlink:href="#DejaVuSans-31"/>
       <use xlink:href="#DejaVuSans-35" x="63.623047"/>
       <use xlink:href="#DejaVuSans-30" x="127.246094"/>
       <use xlink:href="#DejaVuSans-30" x="190.869141"/>
      </g>
     </g>
    </g>
    <g id="xtick_5">
     <g id="line2d_9">
      <path d="M 275.56641 252 
L 275.56641 34.56 
" clip-path="url(#pf04b7d92f6)" style="fill: none; stroke-dasharray: 2.96,1.28; stroke-dashoffset: 0; stroke: #b0b0b0; stroke-width: 0.8"/>
     </g>
     <g id="line2d_10">
      <g>
       <use xlink:href="#mecfe0ec5d9" x="275.56641" y="252" style="stroke: #000000; stroke-width: 0.8"/>
      </g>
     </g>
     <g id="text_5">
      <!-- 2000 -->
      <g transform="translate(262.84141 266.598437)scale(0.1 -0.1)">
       <defs>
        <path id="DejaVuSans-32" d="M 1228 531 
L 3431 531 
L 3431 0 
L 469 0 
L 469 531 
Q 828 903 1448 1529 
Q 2069 2156 2228 2338 
Q 2531 2678 2651 2914 
Q 2772 3150 2772 3378 
Q 2772 3750 2511 3984 
Q 2250 4219 1831 4219 
Q 1534 4219 1204 4116 
Q 875 4013 500 3803 
L 500 4441 
Q 881 4594 1212 4672 
Q 1544 4750 1819 4750 
Q 2544 4750 2975 4387 
Q 3406 4025 3406 3419 
Q 3406 3131 3298 2873 
Q 3191 2616 2906 2266 
Q 2828 2175 2409 1742 
Q 1991 1309 1228 531 
z
" transform="scale(0.015625)"/>
       </defs>
       <use xlink:href="#DejaVuSans-32"/>
       <use xlink:href="#DejaVuSans-30" x="63.623047"/>
       <use xlink:href="#DejaVuSans-30" x="127.246094"/>
       <use xlink:href="#DejaVuSans-30" x="190.869141"/>
      </g>
     </g>
    </g>
    <g id="xtick_6">
     <g id="line2d_11">
      <path d="M 327.153467 252 
L 327.153467 34.56 
" clip-path="url(#pf04b7d92f6)" style="fill: none; stroke-dasharray: 2.96,1.28; stroke-dashoffset: 0; stroke: #b0b0b0; stroke-width: 0.8"/>
     </g>
     <g id="line2d_12">
      <g>
       <use xlink:href="#mecfe0ec5d9" x="327.153467" y="252" style="stroke: #000000; stroke-width: 0.8"/>
      </g>
     </g>
     <g id="text_6">
      <!-- 2500 -->
      <g transform="translate(314.428467 266.598437)scale(0.1 -0.1)">
       <use xlink:href="#DejaVuSans-32"/>
       <use xlink:href="#DejaVuSans-35" x="63.623047"/>
       <use xlink:href="#DejaVuSans-30" x="127.246094"/>
       <use xlink:href="#DejaVuSans-30" x="190.869141"/>
      </g>
     </g>
    </g>
    <g id="xtick_7">
     <g id="line2d_13">
      <path d="M 378.740524 252 
L 378.740524 34.56 
" clip-path="url(#pf04b7d92f6)" style="fill: none; stroke-dasharray: 2.96,1.28; stroke-dashoffset: 0; stroke: #b0b0b0; stroke-width: 0.8"/>
     </g>
     <g id="line2d_14">
      <g>
       <use xlink:href="#mecfe0ec5d9" x="378.740524" y="252" style="stroke: #000000; stroke-width: 0.8"/>
      </g>
     </g>
     <g id="text_7">
      <!-- 3000 -->
      <g transform="translate(366.015524 266.598437)scale(0.1 -0.1)">
       <defs>
        <path id="DejaVuSans-33" d="M 2597 2516 
Q 3050 2419 3304 2112 
Q 3559 1806 3559 1356 
Q 3559 666 3084 287 
Q 2609 -91 1734 -91 
Q 1441 -91 1130 -33 
Q 819 25 488 141 
L 488 750 
Q 750 597 1062 519 
Q 1375 441 1716 441 
Q 2309 441 2620 675 
Q 2931 909 2931 1356 
Q 2931 1769 2642 2001 
Q 2353 2234 1838 2234 
L 1294 2234 
L 1294 2753 
L 1863 2753 
Q 2328 2753 2575 2939 
Q 2822 3125 2822 3475 
Q 2822 3834 2567 4026 
Q 2313 4219 1838 4219 
Q 1578 4219 1281 4162 
Q 984 4106 628 3988 
L 628 4550 
Q 988 4650 1302 4700 
Q 1616 4750 1894 4750 
Q 2613 4750 3031 4423 
Q 3450 4097 3450 3541 
Q 3450 3153 3228 2886 
Q 3006 2619 2597 2516 
z
" transform="scale(0.015625)"/>
       </defs>
       <use xlink:href="#DejaVuSans-33"/>
       <use xlink:href="#DejaVuSans-30" x="63.623047"/>
       <use xlink:href="#DejaVuSans-30" x="127.246094"/>
       <use xlink:href="#DejaVuSans-30" x="190.869141"/>
      </g>
     </g>
    </g>
    <g id="text_8">
     <!-- Steps -->
     <g transform="translate(207.410156 280.276563)scale(0.1 -0.1)">
      <defs>
       <path id="DejaVuSans-53" d="M 3425 4513 
L 3425 3897 
Q 3066 4069 2747 4153 
Q 2428 4238 2131 4238 
Q 1616 4238 1336 4038 
Q 1056 3838 1056 3469 
Q 1056 3159 1242 3001 
Q 1428 2844 1947 2747 
L 2328 2669 
Q 3034 2534 3370 2195 
Q 3706 1856 3706 1288 
Q 3706 609 3251 259 
Q 2797 -91 1919 -91 
Q 1588 -91 1214 -16 
Q 841 59 441 206 
L 441 856 
Q 825 641 1194 531 
Q 1563 422 1919 422 
Q 2459 422 2753 634 
Q 3047 847 3047 1241 
Q 3047 1584 2836 1778 
Q 2625 1972 2144 2069 
L 1759 2144 
Q 1053 2284 737 2584 
Q 422 2884 422 3419 
Q 422 4038 858 4394 
Q 1294 4750 2059 4750 
Q 2388 4750 2728 4690 
Q 3069 4631 3425 4513 
z
" transform="scale(0.015625)"/>
       <path id="DejaVuSans-74" d="M 1172 4494 
L 1172 3500 
L 2356 3500 
L 2356 3053 
L 1172 3053 
L 1172 1153 
Q 1172 725 1289 603 
Q 1406 481 1766 481 
L 2356 481 
L 2356 0 
L 1766 0 
Q 1100 0 847 248 
Q 594 497 594 1153 
L 594 3053 
L 172 3053 
L 172 3500 
L 594 3500 
L 594 4494 
L 1172 4494 
z
" transform="scale(0.015625)"/>
       <path id="DejaVuSans-65" d="M 3597 1894 
L 3597 1613 
L 953 1613 
Q 991 1019 1311 708 
Q 1631 397 2203 397 
Q 2534 397 2845 478 
Q 3156 559 3463 722 
L 3463 178 
Q 3153 47 2828 -22 
Q 2503 -91 2169 -91 
Q 1331 -91 842 396 
Q 353 884 353 1716 
Q 353 2575 817 3079 
Q 1281 3584 2069 3584 
Q 2775 3584 3186 3129 
Q 3597 2675 3597 1894 
z
M 3022 2063 
Q 3016 2534 2758 2815 
Q 2500 3097 2075 3097 
Q 1594 3097 1305 2825 
Q 1016 2553 972 2059 
L 3022 2063 
z
" transform="scale(0.015625)"/>
       <path id="DejaVuSans-70" d="M 1159 525 
L 1159 -1331 
L 581 -1331 
L 581 3500 
L 1159 3500 
L 1159 2969 
Q 1341 3281 1617 3432 
Q 1894 3584 2278 3584 
Q 2916 3584 3314 3078 
Q 3713 2572 3713 1747 
Q 3713 922 3314 415 
Q 2916 -91 2278 -91 
Q 1894 -91 1617 61 
Q 1341 213 1159 525 
z
M 3116 1747 
Q 3116 2381 2855 2742 
Q 2594 3103 2138 3103 
Q 1681 3103 1420 2742 
Q 1159 2381 1159 1747 
Q 1159 1113 1420 752 
Q 1681 391 2138 391 
Q 2594 391 2855 752 
Q 3116 1113 3116 1747 
z
" transform="scale(0.015625)"/>
       <path id="DejaVuSans-73" d="M 2834 3397 
L 2834 2853 
Q 2591 2978 2328 3040 
Q 2066 3103 1784 3103 
Q 1356 3103 1142 2972 
Q 928 2841 928 2578 
Q 928 2378 1081 2264 
Q 1234 2150 1697 2047 
L 1894 2003 
Q 2506 1872 2764 1633 
Q 3022 1394 3022 966 
Q 3022 478 2636 193 
Q 2250 -91 1575 -91 
Q 1294 -91 989 -36 
Q 684 19 347 128 
L 347 722 
Q 666 556 975 473 
Q 1284 391 1588 391 
Q 1994 391 2212 530 
Q 2431 669 2431 922 
Q 2431 1156 2273 1281 
Q 2116 1406 1581 1522 
L 1381 1569 
Q 847 1681 609 1914 
Q 372 2147 372 2553 
Q 372 3047 722 3315 
Q 1072 3584 1716 3584 
Q 2034 3584 2315 3537 
Q 2597 3491 2834 3397 
z
" transform="scale(0.015625)"/>
      </defs>
      <use xlink:href="#DejaVuSans-53"/>
      <use xlink:href="#DejaVuSans-74" x="63.476562"/>
      <use xlink:href="#DejaVuSans-65" x="102.685547"/>
      <use xlink:href="#DejaVuSans-70" x="164.208984"/>
      <use xlink:href="#DejaVuSans-73" x="227.685547"/>
     </g>
    </g>
   </g>
   <g id="matplotlib.axis_2">
    <g id="ytick_1">
     <g id="line2d_15">
      <path d="M 54 243.636923 
L 388.8 243.636923 
" clip-path="url(#pf04b7d92f6)" style="fill: none; stroke-dasharray: 2.96,1.28; stroke-dashoffset: 0; stroke: #b0b0b0; stroke-width: 0.8"/>
     </g>
     <g id="line2d_16">
      <defs>
       <path id="mb9e01ec3be" d="M 0 0 
L -3.5 0 
" style="stroke: #000000; stroke-width: 0.8"/>
      </defs>
      <g>
       <use xlink:href="#mb9e01ec3be" x="54" y="243.636923" style="stroke: #000000; stroke-width: 0.8"/>
      </g>
     </g>
     <g id="text_9">
      <!-- −12 -->
      <g transform="translate(25.895312 247.436142)scale(0.1 -0.1)">
       <defs>
        <path id="DejaVuSans-2212" d="M 678 2272 
L 4684 2272 
L 4684 1741 
L 678 1741 
L 678 2272 
z
" transform="scale(0.015625)"/>
       </defs>
       <use xlink:href="#DejaVuSans-2212"/>
       <use xlink:href="#DejaVuSans-31" x="83.789062"/>
       <use xlink:href="#DejaVuSans-32" x="147.412109"/>
      </g>
     </g>
    </g>
    <g id="ytick_2">
     <g id="line2d_17">
      <path d="M 54 210.184615 
L 388.8 210.184615 
" clip-path="url(#pf04b7d92f6)" style="fill: none; stroke-dasharray: 2.96,1.28; stroke-dashoffset: 0; stroke: #b0b0b0; stroke-width: 0.8"/>
     </g>
     <g id="line2d_18">
      <g>
       <use xlink:href="#mb9e01ec3be" x="54" y="210.184615" style="stroke: #000000; stroke-width: 0.8"/>
      </g>
     </g>
     <g id="text_10">
      <!-- −10 -->
      <g transform="translate(25.895312 213.983834)scale(0.1 -0.1)">
       <use xlink:href="#DejaVuSans-2212"/>
       <use xlink:href="#DejaVuSans-31" x="83.789062"/>
       <use xlink:href="#DejaVuSans-30" x="147.412109"/>
      </g>
     </g>
    </g>
    <g id="ytick_3">
     <g id="line2d_19">
      <path d="M 54 176.732308 
L 388.8 176.732308 
" clip-path="url(#pf04b7d92f6)" style="fill: none; stroke-dasharray: 2.96,1.28; stroke-dashoffset: 0; stroke: #b0b0b0; stroke-width: 0.8"/>
     </g>
     <g id="line2d_20">
      <g>
       <use xlink:href="#mb9e01ec3be" x="54" y="176.732308" style="stroke: #000000; stroke-width: 0.8"/>
      </g>
     </g>
     <g id="text_11">
      <!-- −8 -->
      <g transform="translate(32.257812 180.531526)scale(0.1 -0.1)">
       <defs>
        <path id="DejaVuSans-38" d="M 2034 2216 
Q 1584 2216 1326 1975 
Q 1069 1734 1069 1313 
Q 1069 891 1326 650 
Q 1584 409 2034 409 
Q 2484 409 2743 651 
Q 3003 894 3003 1313 
Q 3003 1734 2745 1975 
Q 2488 2216 2034 2216 
z
M 1403 2484 
Q 997 2584 770 2862 
Q 544 3141 544 3541 
Q 544 4100 942 4425 
Q 1341 4750 2034 4750 
Q 2731 4750 3128 4425 
Q 3525 4100 3525 3541 
Q 3525 3141 3298 2862 
Q 3072 2584 2669 2484 
Q 3125 2378 3379 2068 
Q 3634 1759 3634 1313 
Q 3634 634 3220 271 
Q 2806 -91 2034 -91 
Q 1263 -91 848 271 
Q 434 634 434 1313 
Q 434 1759 690 2068 
Q 947 2378 1403 2484 
z
M 1172 3481 
Q 1172 3119 1398 2916 
Q 1625 2713 2034 2713 
Q 2441 2713 2670 2916 
Q 2900 3119 2900 3481 
Q 2900 3844 2670 4047 
Q 2441 4250 2034 4250 
Q 1625 4250 1398 4047 
Q 1172 3844 1172 3481 
z
" transform="scale(0.015625)"/>
       </defs>
       <use xlink:href="#DejaVuSans-2212"/>
       <use xlink:href="#DejaVuSans-38" x="83.789062"/>
      </g>
     </g>
    </g>
    <g id="ytick_4">
     <g id="line2d_21">
      <path d="M 54 143.28 
L 388.8 143.28 
" clip-path="url(#pf04b7d92f6)" style="fill: none; stroke-dasharray: 2.96,1.28; stroke-dashoffset: 0; stroke: #b0b0b0; stroke-width: 0.8"/>
     </g>
     <g id="line2d_22">
      <g>
       <use xlink:href="#mb9e01ec3be" x="54" y="143.28" style="stroke: #000000; stroke-width: 0.8"/>
      </g>
     </g>
     <g id="text_12">
      <!-- −6 -->
      <g transform="translate(32.257812 147.079219)scale(0.1 -0.1)">
       <defs>
        <path id="DejaVuSans-36" d="M 2113 2584 
Q 1688 2584 1439 2293 
Q 1191 2003 1191 1497 
Q 1191 994 1439 701 
Q 1688 409 2113 409 
Q 2538 409 2786 701 
Q 3034 994 3034 1497 
Q 3034 2003 2786 2293 
Q 2538 2584 2113 2584 
z
M 3366 4563 
L 3366 3988 
Q 3128 4100 2886 4159 
Q 2644 4219 2406 4219 
Q 1781 4219 1451 3797 
Q 1122 3375 1075 2522 
Q 1259 2794 1537 2939 
Q 1816 3084 2150 3084 
Q 2853 3084 3261 2657 
Q 3669 2231 3669 1497 
Q 3669 778 3244 343 
Q 2819 -91 2113 -91 
Q 1303 -91 875 529 
Q 447 1150 447 2328 
Q 447 3434 972 4092 
Q 1497 4750 2381 4750 
Q 2619 4750 2861 4703 
Q 3103 4656 3366 4563 
z
" transform="scale(0.015625)"/>
       </defs>
       <use xlink:href="#DejaVuSans-2212"/>
       <use xlink:href="#DejaVuSans-36" x="83.789062"/>
      </g>
     </g>
    </g>
    <g id="ytick_5">
     <g id="line2d_23">
      <path d="M 54 109.827692 
L 388.8 109.827692 
" clip-path="url(#pf04b7d92f6)" style="fill: none; stroke-dasharray: 2.96,1.28; stroke-dashoffset: 0; stroke: #b0b0b0; stroke-width: 0.8"/>
     </g>
     <g id="line2d_24">
      <g>
       <use xlink:href="#mb9e01ec3be" x="54" y="109.827692" style="stroke: #000000; stroke-width: 0.8"/>
      </g>
     </g>
     <g id="text_13">
      <!-- −4 -->
      <g transform="translate(32.257812 113.626911)scale(0.1 -0.1)">
       <defs>
        <path id="DejaVuSans-34" d="M 2419 4116 
L 825 1625 
L 2419 1625 
L 2419 4116 
z
M 2253 4666 
L 3047 4666 
L 3047 1625 
L 3713 1625 
L 3713 1100 
L 3047 1100 
L 3047 0 
L 2419 0 
L 2419 1100 
L 313 1100 
L 313 1709 
L 2253 4666 
z
" transform="scale(0.015625)"/>
       </defs>
       <use xlink:href="#DejaVuSans-2212"/>
       <use xlink:href="#DejaVuSans-34" x="83.789062"/>
      </g>
     </g>
    </g>
    <g id="ytick_6">
     <g id="line2d_25">
      <path d="M 54 76.375385 
L 388.8 76.375385 
" clip-path="url(#pf04b7d92f6)" style="fill: none; stroke-dasharray: 2.96,1.28; stroke-dashoffset: 0; stroke: #b0b0b0; stroke-width: 0.8"/>
     </g>
     <g id="line2d_26">
      <g>
       <use xlink:href="#mb9e01ec3be" x="54" y="76.375385" style="stroke: #000000; stroke-width: 0.8"/>
      </g>
     </g>
     <g id="text_14">
      <!-- −2 -->
      <g transform="translate(32.257812 80.174603)scale(0.1 -0.1)">
       <use xlink:href="#DejaVuSans-2212"/>
       <use xlink:href="#DejaVuSans-32" x="83.789062"/>
      </g>
     </g>
    </g>
    <g id="ytick_7">
     <g id="line2d_27">
      <path d="M 54 42.923077 
L 388.8 42.923077 
" clip-path="url(#pf04b7d92f6)" style="fill: none; stroke-dasharray: 2.96,1.28; stroke-dashoffset: 0; stroke: #b0b0b0; stroke-width: 0.8"/>
     </g>
     <g id="line2d_28">
      <g>
       <use xlink:href="#mb9e01ec3be" x="54" y="42.923077" style="stroke: #000000; stroke-width: 0.8"/>
      </g>
     </g>
     <g id="text_15">
      <!-- 0 -->
      <g transform="translate(40.6375 46.722296)scale(0.1 -0.1)">
       <use xlink:href="#DejaVuSans-30"/>
      </g>
     </g>
    </g>
    <g id="text_16">
     <!-- Policy value error -->
     <g transform="translate(19.815625 186.597969)rotate(-90)scale(0.1 -0.1)">
      <defs>
       <path id="DejaVuSans-50" d="M 1259 4147 
L 1259 2394 
L 2053 2394 
Q 2494 2394 2734 2622 
Q 2975 2850 2975 3272 
Q 2975 3691 2734 3919 
Q 2494 4147 2053 4147 
L 1259 4147 
z
M 628 4666 
L 2053 4666 
Q 2838 4666 3239 4311 
Q 3641 3956 3641 3272 
Q 3641 2581 3239 2228 
Q 2838 1875 2053 1875 
L 1259 1875 
L 1259 0 
L 628 0 
L 628 4666 
z
" transform="scale(0.015625)"/>
       <path id="DejaVuSans-6f" d="M 1959 3097 
Q 1497 3097 1228 2736 
Q 959 2375 959 1747 
Q 959 1119 1226 758 
Q 1494 397 1959 397 
Q 2419 397 2687 759 
Q 2956 1122 2956 1747 
Q 2956 2369 2687 2733 
Q 2419 3097 1959 3097 
z
M 1959 3584 
Q 2709 3584 3137 3096 
Q 3566 2609 3566 1747 
Q 3566 888 3137 398 
Q 2709 -91 1959 -91 
Q 1206 -91 779 398 
Q 353 888 353 1747 
Q 353 2609 779 3096 
Q 1206 3584 1959 3584 
z
" transform="scale(0.015625)"/>
       <path id="DejaVuSans-6c" d="M 603 4863 
L 1178 4863 
L 1178 0 
L 603 0 
L 603 4863 
z
" transform="scale(0.015625)"/>
       <path id="DejaVuSans-69" d="M 603 3500 
L 1178 3500 
L 1178 0 
L 603 0 
L 603 3500 
z
M 603 4863 
L 1178 4863 
L 1178 4134 
L 603 4134 
L 603 4863 
z
" transform="scale(0.015625)"/>
       <path id="DejaVuSans-63" d="M 3122 3366 
L 3122 2828 
Q 2878 2963 2633 3030 
Q 2388 3097 2138 3097 
Q 1578 3097 1268 2742 
Q 959 2388 959 1747 
Q 959 1106 1268 751 
Q 1578 397 2138 397 
Q 2388 397 2633 464 
Q 2878 531 3122 666 
L 3122 134 
Q 2881 22 2623 -34 
Q 2366 -91 2075 -91 
Q 1284 -91 818 406 
Q 353 903 353 1747 
Q 353 2603 823 3093 
Q 1294 3584 2113 3584 
Q 2378 3584 2631 3529 
Q 2884 3475 3122 3366 
z
" transform="scale(0.015625)"/>
       <path id="DejaVuSans-79" d="M 2059 -325 
Q 1816 -950 1584 -1140 
Q 1353 -1331 966 -1331 
L 506 -1331 
L 506 -850 
L 844 -850 
Q 1081 -850 1212 -737 
Q 1344 -625 1503 -206 
L 1606 56 
L 191 3500 
L 800 3500 
L 1894 763 
L 2988 3500 
L 3597 3500 
L 2059 -325 
z
" transform="scale(0.015625)"/>
       <path id="DejaVuSans-20" transform="scale(0.015625)"/>
       <path id="DejaVuSans-76" d="M 191 3500 
L 800 3500 
L 1894 563 
L 2988 3500 
L 3597 3500 
L 2284 0 
L 1503 0 
L 191 3500 
z
" transform="scale(0.015625)"/>
       <path id="DejaVuSans-61" d="M 2194 1759 
Q 1497 1759 1228 1600 
Q 959 1441 959 1056 
Q 959 750 1161 570 
Q 1363 391 1709 391 
Q 2188 391 2477 730 
Q 2766 1069 2766 1631 
L 2766 1759 
L 2194 1759 
z
M 3341 1997 
L 3341 0 
L 2766 0 
L 2766 531 
Q 2569 213 2275 61 
Q 1981 -91 1556 -91 
Q 1019 -91 701 211 
Q 384 513 384 1019 
Q 384 1609 779 1909 
Q 1175 2209 1959 2209 
L 2766 2209 
L 2766 2266 
Q 2766 2663 2505 2880 
Q 2244 3097 1772 3097 
Q 1472 3097 1187 3025 
Q 903 2953 641 2809 
L 641 3341 
Q 956 3463 1253 3523 
Q 1550 3584 1831 3584 
Q 2591 3584 2966 3190 
Q 3341 2797 3341 1997 
z
" transform="scale(0.015625)"/>
       <path id="DejaVuSans-75" d="M 544 1381 
L 544 3500 
L 1119 3500 
L 1119 1403 
Q 1119 906 1312 657 
Q 1506 409 1894 409 
Q 2359 409 2629 706 
Q 2900 1003 2900 1516 
L 2900 3500 
L 3475 3500 
L 3475 0 
L 2900 0 
L 2900 538 
Q 2691 219 2414 64 
Q 2138 -91 1772 -91 
Q 1169 -91 856 284 
Q 544 659 544 1381 
z
M 1991 3584 
L 1991 3584 
z
" transform="scale(0.015625)"/>
       <path id="DejaVuSans-72" d="M 2631 2963 
Q 2534 3019 2420 3045 
Q 2306 3072 2169 3072 
Q 1681 3072 1420 2755 
Q 1159 2438 1159 1844 
L 1159 0 
L 581 0 
L 581 3500 
L 1159 3500 
L 1159 2956 
Q 1341 3275 1631 3429 
Q 1922 3584 2338 3584 
Q 2397 3584 2469 3576 
Q 2541 3569 2628 3553 
L 2631 2963 
z
" transform="scale(0.015625)"/>
      </defs>
      <use xlink:href="#DejaVuSans-50"/>
      <use xlink:href="#DejaVuSans-6f" x="56.677734"/>
      <use xlink:href="#DejaVuSans-6c" x="117.859375"/>
      <use xlink:href="#DejaVuSans-69" x="145.642578"/>
      <use xlink:href="#DejaVuSans-63" x="173.425781"/>
      <use xlink:href="#DejaVuSans-79" x="228.40625"/>
      <use xlink:href="#DejaVuSans-20" x="287.585938"/>
      <use xlink:href="#DejaVuSans-76" x="319.373047"/>
      <use xlink:href="#DejaVuSans-61" x="378.552734"/>
      <use xlink:href="#DejaVuSans-6c" x="439.832031"/>
      <use xlink:href="#DejaVuSans-75" x="467.615234"/>
      <use xlink:href="#DejaVuSans-65" x="530.994141"/>
      <use xlink:href="#DejaVuSans-20" x="592.517578"/>
      <use xlink:href="#DejaVuSans-65" x="624.304688"/>
      <use xlink:href="#DejaVuSans-72" x="685.828125"/>
      <use xlink:href="#DejaVuSans-72" x="725.191406"/>
      <use xlink:href="#DejaVuSans-6f" x="764.054688"/>
      <use xlink:href="#DejaVuSans-72" x="825.236328"/>
     </g>
    </g>
   </g>
   <g id="line2d_29">
    <path d="M 69.218182 256.330494 
L 74.376888 254.303105 
L 79.535593 253.218081 
L 84.694299 251.435026 
L 89.853005 246.24947 
L 95.01171 84.435619 
L 100.170416 103.162874 
L 105.329122 103.773451 
L 110.487827 104.701836 
L 115.646533 104.033848 
L 120.805239 102.84803 
L 125.963945 52.534288 
L 131.12265 51.190287 
L 136.281356 51.232513 
L 141.440062 51.340548 
L 146.598767 51.174924 
L 151.757473 51.190287 
L 156.916179 51.987018 
L 162.074884 52.000318 
L 167.23359 51.634281 
L 172.392296 51.232513 
L 177.551002 51.963688 
L 182.709707 51.634281 
L 187.868413 63.171151 
L 193.027119 51.16324 
L 198.185824 51.856798 
L 203.34453 51.963688 
L 208.503236 52.292363 
L 213.661941 51.151548 
L 218.820647 51.16324 
L 223.979353 51.377232 
L 229.138059 51.255886 
L 234.296764 51.174924 
L 239.45547 52.315663 
L 244.614176 51.16324 
L 249.772881 51.622674 
L 254.931587 56.250399 
L 260.090293 53.321694 
L 265.248998 54.565438 
L 270.407704 51.513 
L 275.56641 51.040649 
L 280.725116 51.006839 
L 285.883821 51.749759 
L 291.042527 51.101834 
L 296.201233 51.12304 
L 301.359938 51.101834 
L 306.518644 51.728608 
L 311.67735 52.005463 
L 316.836055 55.678044 
L 321.994761 53.098498 
L 327.153467 53.098498 
L 332.312173 55.655575 
L 337.470878 54.027104 
L 342.629584 55.655575 
L 347.78829 51.550803 
L 352.946995 51.622674 
L 358.105701 52.033833 
L 363.264407 52.797986 
L 368.423112 52.056458 
L 373.581818 52.225469 
" clip-path="url(#pf04b7d92f6)" style="fill: none; stroke: #9d02d7; stroke-width: 1.5; stroke-linecap: square"/>
    <defs>
     <path id="m470eb89948" d="M 0 -2 
L -2 2 
L 2 2 
z
" style="stroke: #9d02d7; stroke-linejoin: miter"/>
    </defs>
    <g clip-path="url(#pf04b7d92f6)">
     <use xlink:href="#m470eb89948" x="69.218182" y="256.330494" style="fill: #9d02d7; stroke: #9d02d7; stroke-linejoin: miter"/>
     <use xlink:href="#m470eb89948" x="74.376888" y="254.303105" style="fill: #9d02d7; stroke: #9d02d7; stroke-linejoin: miter"/>
     <use xlink:href="#m470eb89948" x="79.535593" y="253.218081" style="fill: #9d02d7; stroke: #9d02d7; stroke-linejoin: miter"/>
     <use xlink:href="#m470eb89948" x="84.694299" y="251.435026" style="fill: #9d02d7; stroke: #9d02d7; stroke-linejoin: miter"/>
     <use xlink:href="#m470eb89948" x="89.853005" y="246.24947" style="fill: #9d02d7; stroke: #9d02d7; stroke-linejoin: miter"/>
     <use xlink:href="#m470eb89948" x="95.01171" y="84.435619" style="fill: #9d02d7; stroke: #9d02d7; stroke-linejoin: miter"/>
     <use xlink:href="#m470eb89948" x="100.170416" y="103.162874" style="fill: #9d02d7; stroke: #9d02d7; stroke-linejoin: miter"/>
     <use xlink:href="#m470eb89948" x="105.329122" y="103.773451" style="fill: #9d02d7; stroke: #9d02d7; stroke-linejoin: miter"/>
     <use xlink:href="#m470eb89948" x="110.487827" y="104.701836" style="fill: #9d02d7; stroke: #9d02d7; stroke-linejoin: miter"/>
     <use xlink:href="#m470eb89948" x="115.646533" y="104.033848" style="fill: #9d02d7; stroke: #9d02d7; stroke-linejoin: miter"/>
     <use xlink:href="#m470eb89948" x="120.805239" y="102.84803" style="fill: #9d02d7; stroke: #9d02d7; stroke-linejoin: miter"/>
     <use xlink:href="#m470eb89948" x="125.963945" y="52.534288" style="fill: #9d02d7; stroke: #9d02d7; stroke-linejoin: miter"/>
     <use xlink:href="#m470eb89948" x="131.12265" y="51.190287" style="fill: #9d02d7; stroke: #9d02d7; stroke-linejoin: miter"/>
     <use xlink:href="#m470eb89948" x="136.281356" y="51.232513" style="fill: #9d02d7; stroke: #9d02d7; stroke-linejoin: miter"/>
     <use xlink:href="#m470eb89948" x="141.440062" y="51.340548" style="fill: #9d02d7; stroke: #9d02d7; stroke-linejoin: miter"/>
     <use xlink:href="#m470eb89948" x="146.598767" y="51.174924" style="fill: #9d02d7; stroke: #9d02d7; stroke-linejoin: miter"/>
     <use xlink:href="#m470eb89948" x="151.757473" y="51.190287" style="fill: #9d02d7; stroke: #9d02d7; stroke-linejoin: miter"/>
     <use xlink:href="#m470eb89948" x="156.916179" y="51.987018" style="fill: #9d02d7; stroke: #9d02d7; stroke-linejoin: miter"/>
     <use xlink:href="#m470eb89948" x="162.074884" y="52.000318" style="fill: #9d02d7; stroke: #9d02d7; stroke-linejoin: miter"/>
     <use xlink:href="#m470eb89948" x="167.23359" y="51.634281" style="fill: #9d02d7; stroke: #9d02d7; stroke-linejoin: miter"/>
     <use xlink:href="#m470eb89948" x="172.392296" y="51.232513" style="fill: #9d02d7; stroke: #9d02d7; stroke-linejoin: miter"/>
     <use xlink:href="#m470eb89948" x="177.551002" y="51.963688" style="fill: #9d02d7; stroke: #9d02d7; stroke-linejoin: miter"/>
     <use xlink:href="#m470eb89948" x="182.709707" y="51.634281" style="fill: #9d02d7; stroke: #9d02d7; stroke-linejoin: miter"/>
     <use xlink:href="#m470eb89948" x="187.868413" y="63.171151" style="fill: #9d02d7; stroke: #9d02d7; stroke-linejoin: miter"/>
     <use xlink:href="#m470eb89948" x="193.027119" y="51.16324" style="fill: #9d02d7; stroke: #9d02d7; stroke-linejoin: miter"/>
     <use xlink:href="#m470eb89948" x="198.185824" y="51.856798" style="fill: #9d02d7; stroke: #9d02d7; stroke-linejoin: miter"/>
     <use xlink:href="#m470eb89948" x="203.34453" y="51.963688" style="fill: #9d02d7; stroke: #9d02d7; stroke-linejoin: miter"/>
     <use xlink:href="#m470eb89948" x="208.503236" y="52.292363" style="fill: #9d02d7; stroke: #9d02d7; stroke-linejoin: miter"/>
     <use xlink:href="#m470eb89948" x="213.661941" y="51.151548" style="fill: #9d02d7; stroke: #9d02d7; stroke-linejoin: miter"/>
     <use xlink:href="#m470eb89948" x="218.820647" y="51.16324" style="fill: #9d02d7; stroke: #9d02d7; stroke-linejoin: miter"/>
     <use xlink:href="#m470eb89948" x="223.979353" y="51.377232" style="fill: #9d02d7; stroke: #9d02d7; stroke-linejoin: miter"/>
     <use xlink:href="#m470eb89948" x="229.138059" y="51.255886" style="fill: #9d02d7; stroke: #9d02d7; stroke-linejoin: miter"/>
     <use xlink:href="#m470eb89948" x="234.296764" y="51.174924" style="fill: #9d02d7; stroke: #9d02d7; stroke-linejoin: miter"/>
     <use xlink:href="#m470eb89948" x="239.45547" y="52.315663" style="fill: #9d02d7; stroke: #9d02d7; stroke-linejoin: miter"/>
     <use xlink:href="#m470eb89948" x="244.614176" y="51.16324" style="fill: #9d02d7; stroke: #9d02d7; stroke-linejoin: miter"/>
     <use xlink:href="#m470eb89948" x="249.772881" y="51.622674" style="fill: #9d02d7; stroke: #9d02d7; stroke-linejoin: miter"/>
     <use xlink:href="#m470eb89948" x="254.931587" y="56.250399" style="fill: #9d02d7; stroke: #9d02d7; stroke-linejoin: miter"/>
     <use xlink:href="#m470eb89948" x="260.090293" y="53.321694" style="fill: #9d02d7; stroke: #9d02d7; stroke-linejoin: miter"/>
     <use xlink:href="#m470eb89948" x="265.248998" y="54.565438" style="fill: #9d02d7; stroke: #9d02d7; stroke-linejoin: miter"/>
     <use xlink:href="#m470eb89948" x="270.407704" y="51.513" style="fill: #9d02d7; stroke: #9d02d7; stroke-linejoin: miter"/>
     <use xlink:href="#m470eb89948" x="275.56641" y="51.040649" style="fill: #9d02d7; stroke: #9d02d7; stroke-linejoin: miter"/>
     <use xlink:href="#m470eb89948" x="280.725116" y="51.006839" style="fill: #9d02d7; stroke: #9d02d7; stroke-linejoin: miter"/>
     <use xlink:href="#m470eb89948" x="285.883821" y="51.749759" style="fill: #9d02d7; stroke: #9d02d7; stroke-linejoin: miter"/>
     <use xlink:href="#m470eb89948" x="291.042527" y="51.101834" style="fill: #9d02d7; stroke: #9d02d7; stroke-linejoin: miter"/>
     <use xlink:href="#m470eb89948" x="296.201233" y="51.12304" style="fill: #9d02d7; stroke: #9d02d7; stroke-linejoin: miter"/>
     <use xlink:href="#m470eb89948" x="301.359938" y="51.101834" style="fill: #9d02d7; stroke: #9d02d7; stroke-linejoin: miter"/>
     <use xlink:href="#m470eb89948" x="306.518644" y="51.728608" style="fill: #9d02d7; stroke: #9d02d7; stroke-linejoin: miter"/>
     <use xlink:href="#m470eb89948" x="311.67735" y="52.005463" style="fill: #9d02d7; stroke: #9d02d7; stroke-linejoin: miter"/>
     <use xlink:href="#m470eb89948" x="316.836055" y="55.678044" style="fill: #9d02d7; stroke: #9d02d7; stroke-linejoin: miter"/>
     <use xlink:href="#m470eb89948" x="321.994761" y="53.098498" style="fill: #9d02d7; stroke: #9d02d7; stroke-linejoin: miter"/>
     <use xlink:href="#m470eb89948" x="327.153467" y="53.098498" style="fill: #9d02d7; stroke: #9d02d7; stroke-linejoin: miter"/>
     <use xlink:href="#m470eb89948" x="332.312173" y="55.655575" style="fill: #9d02d7; stroke: #9d02d7; stroke-linejoin: miter"/>
     <use xlink:href="#m470eb89948" x="337.470878" y="54.027104" style="fill: #9d02d7; stroke: #9d02d7; stroke-linejoin: miter"/>
     <use xlink:href="#m470eb89948" x="342.629584" y="55.655575" style="fill: #9d02d7; stroke: #9d02d7; stroke-linejoin: miter"/>
     <use xlink:href="#m470eb89948" x="347.78829" y="51.550803" style="fill: #9d02d7; stroke: #9d02d7; stroke-linejoin: miter"/>
     <use xlink:href="#m470eb89948" x="352.946995" y="51.622674" style="fill: #9d02d7; stroke: #9d02d7; stroke-linejoin: miter"/>
     <use xlink:href="#m470eb89948" x="358.105701" y="52.033833" style="fill: #9d02d7; stroke: #9d02d7; stroke-linejoin: miter"/>
     <use xlink:href="#m470eb89948" x="363.264407" y="52.797986" style="fill: #9d02d7; stroke: #9d02d7; stroke-linejoin: miter"/>
     <use xlink:href="#m470eb89948" x="368.423112" y="52.056458" style="fill: #9d02d7; stroke: #9d02d7; stroke-linejoin: miter"/>
     <use xlink:href="#m470eb89948" x="373.581818" y="52.225469" style="fill: #9d02d7; stroke: #9d02d7; stroke-linejoin: miter"/>
    </g>
   </g>
   <g id="line2d_30">
    <path d="M 69.218182 253.202602 
L 74.376888 254.996978 
L 79.535593 246.471857 
L 84.694299 232.506101 
L 89.853005 251.254745 
L 95.01171 129.299747 
L 100.170416 144.271481 
L 105.329122 81.950041 
L 110.487827 81.950041 
L 115.646533 81.124164 
L 120.805239 81.950041 
L 125.963945 78.710909 
L 131.12265 87.201441 
L 136.281356 81.950041 
L 141.440062 81.950041 
L 146.598767 78.710909 
L 151.757473 78.710909 
L 156.916179 78.710909 
L 162.074884 78.710909 
L 167.23359 82.929766 
L 172.392296 80.169973 
L 177.551002 80.169973 
L 182.709707 78.710909 
L 187.868413 81.950041 
L 193.027119 81.950041 
L 198.185824 78.710909 
L 203.34453 81.950041 
L 208.503236 78.710909 
L 213.661941 81.950041 
L 218.820647 78.710909 
L 223.979353 81.950041 
L 229.138059 78.710909 
L 234.296764 81.950041 
L 239.45547 81.950041 
L 244.614176 81.950041 
L 249.772881 81.950041 
L 254.931587 76.988693 
L 260.090293 76.988693 
L 265.248998 76.988693 
L 270.407704 76.988693 
L 275.56641 81.768541 
L 280.725116 76.988693 
L 285.883821 81.768541 
L 291.042527 81.768541 
L 296.201233 76.988693 
L 301.359938 76.988693 
L 306.518644 76.988693 
L 311.67735 76.988693 
L 316.836055 76.988693 
L 321.994761 76.988693 
L 327.153467 76.988693 
L 332.312173 76.988693 
L 337.470878 76.988693 
L 342.629584 76.988693 
L 347.78829 76.988693 
L 352.946995 76.988693 
L 358.105701 76.988693 
L 363.264407 76.988693 
L 368.423112 76.988693 
L 373.581818 76.988693 
" clip-path="url(#pf04b7d92f6)" style="fill: none; stroke: #0000ff; stroke-width: 1.5; stroke-linecap: square"/>
    <defs>
     <path id="me859a7a381" d="M 0 2 
C 0.530406 2 1.03916 1.789267 1.414214 1.414214 
C 1.789267 1.03916 2 0.530406 2 0 
C 2 -0.530406 1.789267 -1.03916 1.414214 -1.414214 
C 1.03916 -1.789267 0.530406 -2 0 -2 
C -0.530406 -2 -1.03916 -1.789267 -1.414214 -1.414214 
C -1.789267 -1.03916 -2 -0.530406 -2 0 
C -2 0.530406 -1.789267 1.03916 -1.414214 1.414214 
C -1.03916 1.789267 -0.530406 2 0 2 
z
" style="stroke: #0000ff"/>
    </defs>
    <g clip-path="url(#pf04b7d92f6)">
     <use xlink:href="#me859a7a381" x="69.218182" y="253.202602" style="fill: #0000ff; stroke: #0000ff"/>
     <use xlink:href="#me859a7a381" x="74.376888" y="254.996978" style="fill: #0000ff; stroke: #0000ff"/>
     <use xlink:href="#me859a7a381" x="79.535593" y="246.471857" style="fill: #0000ff; stroke: #0000ff"/>
     <use xlink:href="#me859a7a381" x="84.694299" y="232.506101" style="fill: #0000ff; stroke: #0000ff"/>
     <use xlink:href="#me859a7a381" x="89.853005" y="251.254745" style="fill: #0000ff; stroke: #0000ff"/>
     <use xlink:href="#me859a7a381" x="95.01171" y="129.299747" style="fill: #0000ff; stroke: #0000ff"/>
     <use xlink:href="#me859a7a381" x="100.170416" y="144.271481" style="fill: #0000ff; stroke: #0000ff"/>
     <use xlink:href="#me859a7a381" x="105.329122" y="81.950041" style="fill: #0000ff; stroke: #0000ff"/>
     <use xlink:href="#me859a7a381" x="110.487827" y="81.950041" style="fill: #0000ff; stroke: #0000ff"/>
     <use xlink:href="#me859a7a381" x="115.646533" y="81.124164" style="fill: #0000ff; stroke: #0000ff"/>
     <use xlink:href="#me859a7a381" x="120.805239" y="81.950041" style="fill: #0000ff; stroke: #0000ff"/>
     <use xlink:href="#me859a7a381" x="125.963945" y="78.710909" style="fill: #0000ff; stroke: #0000ff"/>
     <use xlink:href="#me859a7a381" x="131.12265" y="87.201441" style="fill: #0000ff; stroke: #0000ff"/>
     <use xlink:href="#me859a7a381" x="136.281356" y="81.950041" style="fill: #0000ff; stroke: #0000ff"/>
     <use xlink:href="#me859a7a381" x="141.440062" y="81.950041" style="fill: #0000ff; stroke: #0000ff"/>
     <use xlink:href="#me859a7a381" x="146.598767" y="78.710909" style="fill: #0000ff; stroke: #0000ff"/>
     <use xlink:href="#me859a7a381" x="151.757473" y="78.710909" style="fill: #0000ff; stroke: #0000ff"/>
     <use xlink:href="#me859a7a381" x="156.916179" y="78.710909" style="fill: #0000ff; stroke: #0000ff"/>
     <use xlink:href="#me859a7a381" x="162.074884" y="78.710909" style="fill: #0000ff; stroke: #0000ff"/>
     <use xlink:href="#me859a7a381" x="167.23359" y="82.929766" style="fill: #0000ff; stroke: #0000ff"/>
     <use xlink:href="#me859a7a381" x="172.392296" y="80.169973" style="fill: #0000ff; stroke: #0000ff"/>
     <use xlink:href="#me859a7a381" x="177.551002" y="80.169973" style="fill: #0000ff; stroke: #0000ff"/>
     <use xlink:href="#me859a7a381" x="182.709707" y="78.710909" style="fill: #0000ff; stroke: #0000ff"/>
     <use xlink:href="#me859a7a381" x="187.868413" y="81.950041" style="fill: #0000ff; stroke: #0000ff"/>
     <use xlink:href="#me859a7a381" x="193.027119" y="81.950041" style="fill: #0000ff; stroke: #0000ff"/>
     <use xlink:href="#me859a7a381" x="198.185824" y="78.710909" style="fill: #0000ff; stroke: #0000ff"/>
     <use xlink:href="#me859a7a381" x="203.34453" y="81.950041" style="fill: #0000ff; stroke: #0000ff"/>
     <use xlink:href="#me859a7a381" x="208.503236" y="78.710909" style="fill: #0000ff; stroke: #0000ff"/>
     <use xlink:href="#me859a7a381" x="213.661941" y="81.950041" style="fill: #0000ff; stroke: #0000ff"/>
     <use xlink:href="#me859a7a381" x="218.820647" y="78.710909" style="fill: #0000ff; stroke: #0000ff"/>
     <use xlink:href="#me859a7a381" x="223.979353" y="81.950041" style="fill: #0000ff; stroke: #0000ff"/>
     <use xlink:href="#me859a7a381" x="229.138059" y="78.710909" style="fill: #0000ff; stroke: #0000ff"/>
     <use xlink:href="#me859a7a381" x="234.296764" y="81.950041" style="fill: #0000ff; stroke: #0000ff"/>
     <use xlink:href="#me859a7a381" x="239.45547" y="81.950041" style="fill: #0000ff; stroke: #0000ff"/>
     <use xlink:href="#me859a7a381" x="244.614176" y="81.950041" style="fill: #0000ff; stroke: #0000ff"/>
     <use xlink:href="#me859a7a381" x="249.772881" y="81.950041" style="fill: #0000ff; stroke: #0000ff"/>
     <use xlink:href="#me859a7a381" x="254.931587" y="76.988693" style="fill: #0000ff; stroke: #0000ff"/>
     <use xlink:href="#me859a7a381" x="260.090293" y="76.988693" style="fill: #0000ff; stroke: #0000ff"/>
     <use xlink:href="#me859a7a381" x="265.248998" y="76.988693" style="fill: #0000ff; stroke: #0000ff"/>
     <use xlink:href="#me859a7a381" x="270.407704" y="76.988693" style="fill: #0000ff; stroke: #0000ff"/>
     <use xlink:href="#me859a7a381" x="275.56641" y="81.768541" style="fill: #0000ff; stroke: #0000ff"/>
     <use xlink:href="#me859a7a381" x="280.725116" y="76.988693" style="fill: #0000ff; stroke: #0000ff"/>
     <use xlink:href="#me859a7a381" x="285.883821" y="81.768541" style="fill: #0000ff; stroke: #0000ff"/>
     <use xlink:href="#me859a7a381" x="291.042527" y="81.768541" style="fill: #0000ff; stroke: #0000ff"/>
     <use xlink:href="#me859a7a381" x="296.201233" y="76.988693" style="fill: #0000ff; stroke: #0000ff"/>
     <use xlink:href="#me859a7a381" x="301.359938" y="76.988693" style="fill: #0000ff; stroke: #0000ff"/>
     <use xlink:href="#me859a7a381" x="306.518644" y="76.988693" style="fill: #0000ff; stroke: #0000ff"/>
     <use xlink:href="#me859a7a381" x="311.67735" y="76.988693" style="fill: #0000ff; stroke: #0000ff"/>
     <use xlink:href="#me859a7a381" x="316.836055" y="76.988693" style="fill: #0000ff; stroke: #0000ff"/>
     <use xlink:href="#me859a7a381" x="321.994761" y="76.988693" style="fill: #0000ff; stroke: #0000ff"/>
     <use xlink:href="#me859a7a381" x="327.153467" y="76.988693" style="fill: #0000ff; stroke: #0000ff"/>
     <use xlink:href="#me859a7a381" x="332.312173" y="76.988693" style="fill: #0000ff; stroke: #0000ff"/>
     <use xlink:href="#me859a7a381" x="337.470878" y="76.988693" style="fill: #0000ff; stroke: #0000ff"/>
     <use xlink:href="#me859a7a381" x="342.629584" y="76.988693" style="fill: #0000ff; stroke: #0000ff"/>
     <use xlink:href="#me859a7a381" x="347.78829" y="76.988693" style="fill: #0000ff; stroke: #0000ff"/>
     <use xlink:href="#me859a7a381" x="352.946995" y="76.988693" style="fill: #0000ff; stroke: #0000ff"/>
     <use xlink:href="#me859a7a381" x="358.105701" y="76.988693" style="fill: #0000ff; stroke: #0000ff"/>
     <use xlink:href="#me859a7a381" x="363.264407" y="76.988693" style="fill: #0000ff; stroke: #0000ff"/>
     <use xlink:href="#me859a7a381" x="368.423112" y="76.988693" style="fill: #0000ff; stroke: #0000ff"/>
     <use xlink:href="#me859a7a381" x="373.581818" y="76.988693" style="fill: #0000ff; stroke: #0000ff"/>
    </g>
   </g>
   <g id="line2d_31">
    <path d="M 69.218182 254.5774 
L 74.376888 242.212474 
L 79.535593 253.865808 
L 84.694299 253.256066 
L 89.853005 230.338398 
L 95.01171 200.477528 
L 100.170416 169.344779 
L 105.329122 126.884434 
L 110.487827 111.457765 
L 115.646533 101.73334 
L 120.805239 114.18274 
L 125.963945 99.273909 
L 131.12265 99.273909 
L 136.281356 99.273909 
L 141.440062 99.273909 
L 146.598767 99.273909 
L 151.757473 101.886686 
L 156.916179 99.991017 
L 162.074884 99.991017 
L 167.23359 99.991017 
L 172.392296 99.991017 
L 177.551002 99.991017 
L 182.709707 100.049899 
L 187.868413 99.991017 
L 193.027119 99.991017 
L 198.185824 100.049899 
L 203.34453 100.049899 
L 208.503236 100.049899 
L 213.661941 100.555663 
L 218.820647 100.555663 
L 223.979353 100.294528 
L 229.138059 100.555663 
L 234.296764 100.555663 
L 239.45547 99.78629 
L 244.614176 99.78629 
L 249.772881 99.78629 
L 254.931587 99.78629 
L 260.090293 100.555663 
L 265.248998 100.555663 
L 270.407704 100.555663 
L 275.56641 100.555663 
L 280.725116 100.555663 
L 285.883821 100.555663 
L 291.042527 100.555663 
L 296.201233 100.555663 
L 301.359938 100.555663 
L 306.518644 100.555663 
L 311.67735 100.555663 
L 316.836055 100.555663 
L 321.994761 100.555663 
L 327.153467 100.555663 
L 332.312173 100.555663 
L 337.470878 100.294528 
L 342.629584 100.555663 
L 347.78829 100.555663 
L 352.946995 102.5982 
L 358.105701 102.479503 
L 363.264407 102.479503 
L 368.423112 102.479503 
L 373.581818 100.294528 
" clip-path="url(#pf04b7d92f6)" style="fill: none; stroke: #ff7763; stroke-width: 1.5; stroke-linecap: square"/>
    <defs>
     <path id="m9d6400555c" d="M -2 2 
L 2 -2 
M -2 -2 
L 2 2 
" style="stroke: #ff7763"/>
    </defs>
    <g clip-path="url(#pf04b7d92f6)">
     <use xlink:href="#m9d6400555c" x="69.218182" y="254.5774" style="fill: #ff7763; stroke: #ff7763"/>
     <use xlink:href="#m9d6400555c" x="74.376888" y="242.212474" style="fill: #ff7763; stroke: #ff7763"/>
     <use xlink:href="#m9d6400555c" x="79.535593" y="253.865808" style="fill: #ff7763; stroke: #ff7763"/>
     <use xlink:href="#m9d6400555c" x="84.694299" y="253.256066" style="fill: #ff7763; stroke: #ff7763"/>
     <use xlink:href="#m9d6400555c" x="89.853005" y="230.338398" style="fill: #ff7763; stroke: #ff7763"/>
     <use xlink:href="#m9d6400555c" x="95.01171" y="200.477528" style="fill: #ff7763; stroke: #ff7763"/>
     <use xlink:href="#m9d6400555c" x="100.170416" y="169.344779" style="fill: #ff7763; stroke: #ff7763"/>
     <use xlink:href="#m9d6400555c" x="105.329122" y="126.884434" style="fill: #ff7763; stroke: #ff7763"/>
     <use xlink:href="#m9d6400555c" x="110.487827" y="111.457765" style="fill: #ff7763; stroke: #ff7763"/>
     <use xlink:href="#m9d6400555c" x="115.646533" y="101.73334" style="fill: #ff7763; stroke: #ff7763"/>
     <use xlink:href="#m9d6400555c" x="120.805239" y="114.18274" style="fill: #ff7763; stroke: #ff7763"/>
     <use xlink:href="#m9d6400555c" x="125.963945" y="99.273909" style="fill: #ff7763; stroke: #ff7763"/>
     <use xlink:href="#m9d6400555c" x="131.12265" y="99.273909" style="fill: #ff7763; stroke: #ff7763"/>
     <use xlink:href="#m9d6400555c" x="136.281356" y="99.273909" style="fill: #ff7763; stroke: #ff7763"/>
     <use xlink:href="#m9d6400555c" x="141.440062" y="99.273909" style="fill: #ff7763; stroke: #ff7763"/>
     <use xlink:href="#m9d6400555c" x="146.598767" y="99.273909" style="fill: #ff7763; stroke: #ff7763"/>
     <use xlink:href="#m9d6400555c" x="151.757473" y="101.886686" style="fill: #ff7763; stroke: #ff7763"/>
     <use xlink:href="#m9d6400555c" x="156.916179" y="99.991017" style="fill: #ff7763; stroke: #ff7763"/>
     <use xlink:href="#m9d6400555c" x="162.074884" y="99.991017" style="fill: #ff7763; stroke: #ff7763"/>
     <use xlink:href="#m9d6400555c" x="167.23359" y="99.991017" style="fill: #ff7763; stroke: #ff7763"/>
     <use xlink:href="#m9d6400555c" x="172.392296" y="99.991017" style="fill: #ff7763; stroke: #ff7763"/>
     <use xlink:href="#m9d6400555c" x="177.551002" y="99.991017" style="fill: #ff7763; stroke: #ff7763"/>
     <use xlink:href="#m9d6400555c" x="182.709707" y="100.049899" style="fill: #ff7763; stroke: #ff7763"/>
     <use xlink:href="#m9d6400555c" x="187.868413" y="99.991017" style="fill: #ff7763; stroke: #ff7763"/>
     <use xlink:href="#m9d6400555c" x="193.027119" y="99.991017" style="fill: #ff7763; stroke: #ff7763"/>
     <use xlink:href="#m9d6400555c" x="198.185824" y="100.049899" style="fill: #ff7763; stroke: #ff7763"/>
     <use xlink:href="#m9d6400555c" x="203.34453" y="100.049899" style="fill: #ff7763; stroke: #ff7763"/>
     <use xlink:href="#m9d6400555c" x="208.503236" y="100.049899" style="fill: #ff7763; stroke: #ff7763"/>
     <use xlink:href="#m9d6400555c" x="213.661941" y="100.555663" style="fill: #ff7763; stroke: #ff7763"/>
     <use xlink:href="#m9d6400555c" x="218.820647" y="100.555663" style="fill: #ff7763; stroke: #ff7763"/>
     <use xlink:href="#m9d6400555c" x="223.979353" y="100.294528" style="fill: #ff7763; stroke: #ff7763"/>
     <use xlink:href="#m9d6400555c" x="229.138059" y="100.555663" style="fill: #ff7763; stroke: #ff7763"/>
     <use xlink:href="#m9d6400555c" x="234.296764" y="100.555663" style="fill: #ff7763; stroke: #ff7763"/>
     <use xlink:href="#m9d6400555c" x="239.45547" y="99.78629" style="fill: #ff7763; stroke: #ff7763"/>
     <use xlink:href="#m9d6400555c" x="244.614176" y="99.78629" style="fill: #ff7763; stroke: #ff7763"/>
     <use xlink:href="#m9d6400555c" x="249.772881" y="99.78629" style="fill: #ff7763; stroke: #ff7763"/>
     <use xlink:href="#m9d6400555c" x="254.931587" y="99.78629" style="fill: #ff7763; stroke: #ff7763"/>
     <use xlink:href="#m9d6400555c" x="260.090293" y="100.555663" style="fill: #ff7763; stroke: #ff7763"/>
     <use xlink:href="#m9d6400555c" x="265.248998" y="100.555663" style="fill: #ff7763; stroke: #ff7763"/>
     <use xlink:href="#m9d6400555c" x="270.407704" y="100.555663" style="fill: #ff7763; stroke: #ff7763"/>
     <use xlink:href="#m9d6400555c" x="275.56641" y="100.555663" style="fill: #ff7763; stroke: #ff7763"/>
     <use xlink:href="#m9d6400555c" x="280.725116" y="100.555663" style="fill: #ff7763; stroke: #ff7763"/>
     <use xlink:href="#m9d6400555c" x="285.883821" y="100.555663" style="fill: #ff7763; stroke: #ff7763"/>
     <use xlink:href="#m9d6400555c" x="291.042527" y="100.555663" style="fill: #ff7763; stroke: #ff7763"/>
     <use xlink:href="#m9d6400555c" x="296.201233" y="100.555663" style="fill: #ff7763; stroke: #ff7763"/>
     <use xlink:href="#m9d6400555c" x="301.359938" y="100.555663" style="fill: #ff7763; stroke: #ff7763"/>
     <use xlink:href="#m9d6400555c" x="306.518644" y="100.555663" style="fill: #ff7763; stroke: #ff7763"/>
     <use xlink:href="#m9d6400555c" x="311.67735" y="100.555663" style="fill: #ff7763; stroke: #ff7763"/>
     <use xlink:href="#m9d6400555c" x="316.836055" y="100.555663" style="fill: #ff7763; stroke: #ff7763"/>
     <use xlink:href="#m9d6400555c" x="321.994761" y="100.555663" style="fill: #ff7763; stroke: #ff7763"/>
     <use xlink:href="#m9d6400555c" x="327.153467" y="100.555663" style="fill: #ff7763; stroke: #ff7763"/>
     <use xlink:href="#m9d6400555c" x="332.312173" y="100.555663" style="fill: #ff7763; stroke: #ff7763"/>
     <use xlink:href="#m9d6400555c" x="337.470878" y="100.294528" style="fill: #ff7763; stroke: #ff7763"/>
     <use xlink:href="#m9d6400555c" x="342.629584" y="100.555663" style="fill: #ff7763; stroke: #ff7763"/>
     <use xlink:href="#m9d6400555c" x="347.78829" y="100.555663" style="fill: #ff7763; stroke: #ff7763"/>
     <use xlink:href="#m9d6400555c" x="352.946995" y="102.5982" style="fill: #ff7763; stroke: #ff7763"/>
     <use xlink:href="#m9d6400555c" x="358.105701" y="102.479503" style="fill: #ff7763; stroke: #ff7763"/>
     <use xlink:href="#m9d6400555c" x="363.264407" y="102.479503" style="fill: #ff7763; stroke: #ff7763"/>
     <use xlink:href="#m9d6400555c" x="368.423112" y="102.479503" style="fill: #ff7763; stroke: #ff7763"/>
     <use xlink:href="#m9d6400555c" x="373.581818" y="100.294528" style="fill: #ff7763; stroke: #ff7763"/>
    </g>
   </g>
   <g id="line2d_32">
    <path d="M 69.218182 254.674051 
L 74.376888 251.627249 
L 79.535593 256.156179 
L 84.694299 238.910526 
L 89.853005 242.144253 
L 95.01171 229.402116 
L 100.170416 209.597716 
L 105.329122 174.780865 
L 110.487827 161.665742 
L 115.646533 118.019652 
L 120.805239 116.147244 
L 125.963945 116.027197 
L 131.12265 117.410512 
L 136.281356 116.100635 
L 141.440062 116.974762 
L 146.598767 118.164086 
L 151.757473 116.925016 
L 156.916179 116.949665 
L 162.074884 118.805205 
L 167.23359 115.880359 
L 172.392296 118.119479 
L 177.551002 115.880359 
L 182.709707 115.880359 
L 187.868413 115.880359 
L 193.027119 115.880359 
L 198.185824 115.880359 
L 203.34453 122.363143 
L 208.503236 115.880359 
L 213.661941 115.517616 
L 218.820647 115.880359 
L 223.979353 115.880359 
L 229.138059 115.880359 
L 234.296764 115.880359 
L 239.45547 110.105594 
L 244.614176 110.105594 
L 249.772881 109.946418 
L 254.931587 110.105594 
L 260.090293 110.105594 
L 265.248998 110.105594 
L 270.407704 110.105594 
L 275.56641 110.105594 
L 280.725116 109.808851 
L 285.883821 109.808851 
L 291.042527 112.126602 
L 296.201233 109.808851 
L 301.359938 109.808851 
L 306.518644 109.808851 
L 311.67735 110.24136 
L 316.836055 110.24136 
L 321.994761 110.24136 
L 327.153467 110.24136 
L 332.312173 110.046958 
L 337.470878 110.26496 
L 342.629584 110.26496 
L 347.78829 110.26496 
L 352.946995 110.26496 
L 358.105701 110.26496 
L 363.264407 110.26496 
L 368.423112 109.610396 
L 373.581818 109.808851 
" clip-path="url(#pf04b7d92f6)" style="fill: none; stroke: #ffac1e; stroke-width: 1.5; stroke-linecap: square"/>
    <defs>
     <path id="m4f10b187bf" d="M 0 -2 
L -0.449028 -0.618034 
L -1.902113 -0.618034 
L -0.726543 0.236068 
L -1.175571 1.618034 
L -0 0.763932 
L 1.175571 1.618034 
L 0.726543 0.236068 
L 1.902113 -0.618034 
L 0.449028 -0.618034 
z
" style="stroke: #ffac1e; stroke-linejoin: bevel"/>
    </defs>
    <g clip-path="url(#pf04b7d92f6)">
     <use xlink:href="#m4f10b187bf" x="69.218182" y="254.674051" style="fill: #ffac1e; stroke: #ffac1e; stroke-linejoin: bevel"/>
     <use xlink:href="#m4f10b187bf" x="74.376888" y="251.627249" style="fill: #ffac1e; stroke: #ffac1e; stroke-linejoin: bevel"/>
     <use xlink:href="#m4f10b187bf" x="79.535593" y="256.156179" style="fill: #ffac1e; stroke: #ffac1e; stroke-linejoin: bevel"/>
     <use xlink:href="#m4f10b187bf" x="84.694299" y="238.910526" style="fill: #ffac1e; stroke: #ffac1e; stroke-linejoin: bevel"/>
     <use xlink:href="#m4f10b187bf" x="89.853005" y="242.144253" style="fill: #ffac1e; stroke: #ffac1e; stroke-linejoin: bevel"/>
     <use xlink:href="#m4f10b187bf" x="95.01171" y="229.402116" style="fill: #ffac1e; stroke: #ffac1e; stroke-linejoin: bevel"/>
     <use xlink:href="#m4f10b187bf" x="100.170416" y="209.597716" style="fill: #ffac1e; stroke: #ffac1e; stroke-linejoin: bevel"/>
     <use xlink:href="#m4f10b187bf" x="105.329122" y="174.780865" style="fill: #ffac1e; stroke: #ffac1e; stroke-linejoin: bevel"/>
     <use xlink:href="#m4f10b187bf" x="110.487827" y="161.665742" style="fill: #ffac1e; stroke: #ffac1e; stroke-linejoin: bevel"/>
     <use xlink:href="#m4f10b187bf" x="115.646533" y="118.019652" style="fill: #ffac1e; stroke: #ffac1e; stroke-linejoin: bevel"/>
     <use xlink:href="#m4f10b187bf" x="120.805239" y="116.147244" style="fill: #ffac1e; stroke: #ffac1e; stroke-linejoin: bevel"/>
     <use xlink:href="#m4f10b187bf" x="125.963945" y="116.027197" style="fill: #ffac1e; stroke: #ffac1e; stroke-linejoin: bevel"/>
     <use xlink:href="#m4f10b187bf" x="131.12265" y="117.410512" style="fill: #ffac1e; stroke: #ffac1e; stroke-linejoin: bevel"/>
     <use xlink:href="#m4f10b187bf" x="136.281356" y="116.100635" style="fill: #ffac1e; stroke: #ffac1e; stroke-linejoin: bevel"/>
     <use xlink:href="#m4f10b187bf" x="141.440062" y="116.974762" style="fill: #ffac1e; stroke: #ffac1e; stroke-linejoin: bevel"/>
     <use xlink:href="#m4f10b187bf" x="146.598767" y="118.164086" style="fill: #ffac1e; stroke: #ffac1e; stroke-linejoin: bevel"/>
     <use xlink:href="#m4f10b187bf" x="151.757473" y="116.925016" style="fill: #ffac1e; stroke: #ffac1e; stroke-linejoin: bevel"/>
     <use xlink:href="#m4f10b187bf" x="156.916179" y="116.949665" style="fill: #ffac1e; stroke: #ffac1e; stroke-linejoin: bevel"/>
     <use xlink:href="#m4f10b187bf" x="162.074884" y="118.805205" style="fill: #ffac1e; stroke: #ffac1e; stroke-linejoin: bevel"/>
     <use xlink:href="#m4f10b187bf" x="167.23359" y="115.880359" style="fill: #ffac1e; stroke: #ffac1e; stroke-linejoin: bevel"/>
     <use xlink:href="#m4f10b187bf" x="172.392296" y="118.119479" style="fill: #ffac1e; stroke: #ffac1e; stroke-linejoin: bevel"/>
     <use xlink:href="#m4f10b187bf" x="177.551002" y="115.880359" style="fill: #ffac1e; stroke: #ffac1e; stroke-linejoin: bevel"/>
     <use xlink:href="#m4f10b187bf" x="182.709707" y="115.880359" style="fill: #ffac1e; stroke: #ffac1e; stroke-linejoin: bevel"/>
     <use xlink:href="#m4f10b187bf" x="187.868413" y="115.880359" style="fill: #ffac1e; stroke: #ffac1e; stroke-linejoin: bevel"/>
     <use xlink:href="#m4f10b187bf" x="193.027119" y="115.880359" style="fill: #ffac1e; stroke: #ffac1e; stroke-linejoin: bevel"/>
     <use xlink:href="#m4f10b187bf" x="198.185824" y="115.880359" style="fill: #ffac1e; stroke: #ffac1e; stroke-linejoin: bevel"/>
     <use xlink:href="#m4f10b187bf" x="203.34453" y="122.363143" style="fill: #ffac1e; stroke: #ffac1e; stroke-linejoin: bevel"/>
     <use xlink:href="#m4f10b187bf" x="208.503236" y="115.880359" style="fill: #ffac1e; stroke: #ffac1e; stroke-linejoin: bevel"/>
     <use xlink:href="#m4f10b187bf" x="213.661941" y="115.517616" style="fill: #ffac1e; stroke: #ffac1e; stroke-linejoin: bevel"/>
     <use xlink:href="#m4f10b187bf" x="218.820647" y="115.880359" style="fill: #ffac1e; stroke: #ffac1e; stroke-linejoin: bevel"/>
     <use xlink:href="#m4f10b187bf" x="223.979353" y="115.880359" style="fill: #ffac1e; stroke: #ffac1e; stroke-linejoin: bevel"/>
     <use xlink:href="#m4f10b187bf" x="229.138059" y="115.880359" style="fill: #ffac1e; stroke: #ffac1e; stroke-linejoin: bevel"/>
     <use xlink:href="#m4f10b187bf" x="234.296764" y="115.880359" style="fill: #ffac1e; stroke: #ffac1e; stroke-linejoin: bevel"/>
     <use xlink:href="#m4f10b187bf" x="239.45547" y="110.105594" style="fill: #ffac1e; stroke: #ffac1e; stroke-linejoin: bevel"/>
     <use xlink:href="#m4f10b187bf" x="244.614176" y="110.105594" style="fill: #ffac1e; stroke: #ffac1e; stroke-linejoin: bevel"/>
     <use xlink:href="#m4f10b187bf" x="249.772881" y="109.946418" style="fill: #ffac1e; stroke: #ffac1e; stroke-linejoin: bevel"/>
     <use xlink:href="#m4f10b187bf" x="254.931587" y="110.105594" style="fill: #ffac1e; stroke: #ffac1e; stroke-linejoin: bevel"/>
     <use xlink:href="#m4f10b187bf" x="260.090293" y="110.105594" style="fill: #ffac1e; stroke: #ffac1e; stroke-linejoin: bevel"/>
     <use xlink:href="#m4f10b187bf" x="265.248998" y="110.105594" style="fill: #ffac1e; stroke: #ffac1e; stroke-linejoin: bevel"/>
     <use xlink:href="#m4f10b187bf" x="270.407704" y="110.105594" style="fill: #ffac1e; stroke: #ffac1e; stroke-linejoin: bevel"/>
     <use xlink:href="#m4f10b187bf" x="275.56641" y="110.105594" style="fill: #ffac1e; stroke: #ffac1e; stroke-linejoin: bevel"/>
     <use xlink:href="#m4f10b187bf" x="280.725116" y="109.808851" style="fill: #ffac1e; stroke: #ffac1e; stroke-linejoin: bevel"/>
     <use xlink:href="#m4f10b187bf" x="285.883821" y="109.808851" style="fill: #ffac1e; stroke: #ffac1e; stroke-linejoin: bevel"/>
     <use xlink:href="#m4f10b187bf" x="291.042527" y="112.126602" style="fill: #ffac1e; stroke: #ffac1e; stroke-linejoin: bevel"/>
     <use xlink:href="#m4f10b187bf" x="296.201233" y="109.808851" style="fill: #ffac1e; stroke: #ffac1e; stroke-linejoin: bevel"/>
     <use xlink:href="#m4f10b187bf" x="301.359938" y="109.808851" style="fill: #ffac1e; stroke: #ffac1e; stroke-linejoin: bevel"/>
     <use xlink:href="#m4f10b187bf" x="306.518644" y="109.808851" style="fill: #ffac1e; stroke: #ffac1e; stroke-linejoin: bevel"/>
     <use xlink:href="#m4f10b187bf" x="311.67735" y="110.24136" style="fill: #ffac1e; stroke: #ffac1e; stroke-linejoin: bevel"/>
     <use xlink:href="#m4f10b187bf" x="316.836055" y="110.24136" style="fill: #ffac1e; stroke: #ffac1e; stroke-linejoin: bevel"/>
     <use xlink:href="#m4f10b187bf" x="321.994761" y="110.24136" style="fill: #ffac1e; stroke: #ffac1e; stroke-linejoin: bevel"/>
     <use xlink:href="#m4f10b187bf" x="327.153467" y="110.24136" style="fill: #ffac1e; stroke: #ffac1e; stroke-linejoin: bevel"/>
     <use xlink:href="#m4f10b187bf" x="332.312173" y="110.046958" style="fill: #ffac1e; stroke: #ffac1e; stroke-linejoin: bevel"/>
     <use xlink:href="#m4f10b187bf" x="337.470878" y="110.26496" style="fill: #ffac1e; stroke: #ffac1e; stroke-linejoin: bevel"/>
     <use xlink:href="#m4f10b187bf" x="342.629584" y="110.26496" style="fill: #ffac1e; stroke: #ffac1e; stroke-linejoin: bevel"/>
     <use xlink:href="#m4f10b187bf" x="347.78829" y="110.26496" style="fill: #ffac1e; stroke: #ffac1e; stroke-linejoin: bevel"/>
     <use xlink:href="#m4f10b187bf" x="352.946995" y="110.26496" style="fill: #ffac1e; stroke: #ffac1e; stroke-linejoin: bevel"/>
     <use xlink:href="#m4f10b187bf" x="358.105701" y="110.26496" style="fill: #ffac1e; stroke: #ffac1e; stroke-linejoin: bevel"/>
     <use xlink:href="#m4f10b187bf" x="363.264407" y="110.26496" style="fill: #ffac1e; stroke: #ffac1e; stroke-linejoin: bevel"/>
     <use xlink:href="#m4f10b187bf" x="368.423112" y="109.610396" style="fill: #ffac1e; stroke: #ffac1e; stroke-linejoin: bevel"/>
     <use xlink:href="#m4f10b187bf" x="373.581818" y="109.808851" style="fill: #ffac1e; stroke: #ffac1e; stroke-linejoin: bevel"/>
    </g>
   </g>
   <g id="line2d_33">
    <path d="M 69.218182 253.529354 
L 74.376888 254.876636 
L 79.535593 257.262966 
L 84.694299 248.896601 
L 89.853005 188.16012 
L 95.01171 185.074789 
L 100.170416 160.048431 
L 105.329122 145.206039 
L 110.487827 139.518405 
L 115.646533 139.518405 
L 120.805239 139.017865 
L 125.963945 139.584507 
L 131.12265 139.815564 
L 136.281356 144.05702 
L 141.440062 144.05702 
L 146.598767 144.173496 
L 151.757473 139.815564 
L 156.916179 139.815564 
L 162.074884 139.815564 
L 167.23359 139.815564 
L 172.392296 139.329695 
L 177.551002 149.03519 
L 182.709707 137.244932 
L 187.868413 137.244932 
L 193.027119 137.240294 
L 198.185824 140.142198 
L 203.34453 140.142198 
L 208.503236 139.773427 
L 213.661941 139.773427 
L 218.820647 139.773427 
L 223.979353 140.142198 
L 229.138059 137.244932 
L 234.296764 137.843753 
L 239.45547 137.843753 
L 244.614176 137.244932 
L 249.772881 137.244932 
L 254.931587 137.244932 
L 260.090293 137.244932 
L 265.248998 143.59097 
L 270.407704 143.59097 
L 275.56641 143.59097 
L 280.725116 137.244932 
L 285.883821 137.244932 
L 291.042527 137.244932 
L 296.201233 137.244932 
L 301.359938 137.244932 
L 306.518644 137.244932 
L 311.67735 137.244932 
L 316.836055 137.244932 
L 321.994761 137.244932 
L 327.153467 137.244932 
L 332.312173 137.244932 
L 337.470878 137.244932 
L 342.629584 137.244932 
L 347.78829 137.244932 
L 352.946995 137.244932 
L 358.105701 137.244932 
L 363.264407 137.244932 
L 368.423112 137.244932 
L 373.581818 137.244932 
" clip-path="url(#pf04b7d92f6)" style="fill: none; stroke: #009435; stroke-width: 1.5; stroke-linecap: square"/>
    <defs>
     <path id="m4eff9f5055" d="M -2 2 
L 2 2 
L 2 -2 
L -2 -2 
z
" style="stroke: #009435; stroke-linejoin: miter"/>
    </defs>
    <g clip-path="url(#pf04b7d92f6)">
     <use xlink:href="#m4eff9f5055" x="69.218182" y="253.529354" style="fill: #009435; stroke: #009435; stroke-linejoin: miter"/>
     <use xlink:href="#m4eff9f5055" x="74.376888" y="254.876636" style="fill: #009435; stroke: #009435; stroke-linejoin: miter"/>
     <use xlink:href="#m4eff9f5055" x="79.535593" y="257.262966" style="fill: #009435; stroke: #009435; stroke-linejoin: miter"/>
     <use xlink:href="#m4eff9f5055" x="84.694299" y="248.896601" style="fill: #009435; stroke: #009435; stroke-linejoin: miter"/>
     <use xlink:href="#m4eff9f5055" x="89.853005" y="188.16012" style="fill: #009435; stroke: #009435; stroke-linejoin: miter"/>
     <use xlink:href="#m4eff9f5055" x="95.01171" y="185.074789" style="fill: #009435; stroke: #009435; stroke-linejoin: miter"/>
     <use xlink:href="#m4eff9f5055" x="100.170416" y="160.048431" style="fill: #009435; stroke: #009435; stroke-linejoin: miter"/>
     <use xlink:href="#m4eff9f5055" x="105.329122" y="145.206039" style="fill: #009435; stroke: #009435; stroke-linejoin: miter"/>
     <use xlink:href="#m4eff9f5055" x="110.487827" y="139.518405" style="fill: #009435; stroke: #009435; stroke-linejoin: miter"/>
     <use xlink:href="#m4eff9f5055" x="115.646533" y="139.518405" style="fill: #009435; stroke: #009435; stroke-linejoin: miter"/>
     <use xlink:href="#m4eff9f5055" x="120.805239" y="139.017865" style="fill: #009435; stroke: #009435; stroke-linejoin: miter"/>
     <use xlink:href="#m4eff9f5055" x="125.963945" y="139.584507" style="fill: #009435; stroke: #009435; stroke-linejoin: miter"/>
     <use xlink:href="#m4eff9f5055" x="131.12265" y="139.815564" style="fill: #009435; stroke: #009435; stroke-linejoin: miter"/>
     <use xlink:href="#m4eff9f5055" x="136.281356" y="144.05702" style="fill: #009435; stroke: #009435; stroke-linejoin: miter"/>
     <use xlink:href="#m4eff9f5055" x="141.440062" y="144.05702" style="fill: #009435; stroke: #009435; stroke-linejoin: miter"/>
     <use xlink:href="#m4eff9f5055" x="146.598767" y="144.173496" style="fill: #009435; stroke: #009435; stroke-linejoin: miter"/>
     <use xlink:href="#m4eff9f5055" x="151.757473" y="139.815564" style="fill: #009435; stroke: #009435; stroke-linejoin: miter"/>
     <use xlink:href="#m4eff9f5055" x="156.916179" y="139.815564" style="fill: #009435; stroke: #009435; stroke-linejoin: miter"/>
     <use xlink:href="#m4eff9f5055" x="162.074884" y="139.815564" style="fill: #009435; stroke: #009435; stroke-linejoin: miter"/>
     <use xlink:href="#m4eff9f5055" x="167.23359" y="139.815564" style="fill: #009435; stroke: #009435; stroke-linejoin: miter"/>
     <use xlink:href="#m4eff9f5055" x="172.392296" y="139.329695" style="fill: #009435; stroke: #009435; stroke-linejoin: miter"/>
     <use xlink:href="#m4eff9f5055" x="177.551002" y="149.03519" style="fill: #009435; stroke: #009435; stroke-linejoin: miter"/>
     <use xlink:href="#m4eff9f5055" x="182.709707" y="137.244932" style="fill: #009435; stroke: #009435; stroke-linejoin: miter"/>
     <use xlink:href="#m4eff9f5055" x="187.868413" y="137.244932" style="fill: #009435; stroke: #009435; stroke-linejoin: miter"/>
     <use xlink:href="#m4eff9f5055" x="193.027119" y="137.240294" style="fill: #009435; stroke: #009435; stroke-linejoin: miter"/>
     <use xlink:href="#m4eff9f5055" x="198.185824" y="140.142198" style="fill: #009435; stroke: #009435; stroke-linejoin: miter"/>
     <use xlink:href="#m4eff9f5055" x="203.34453" y="140.142198" style="fill: #009435; stroke: #009435; stroke-linejoin: miter"/>
     <use xlink:href="#m4eff9f5055" x="208.503236" y="139.773427" style="fill: #009435; stroke: #009435; stroke-linejoin: miter"/>
     <use xlink:href="#m4eff9f5055" x="213.661941" y="139.773427" style="fill: #009435; stroke: #009435; stroke-linejoin: miter"/>
     <use xlink:href="#m4eff9f5055" x="218.820647" y="139.773427" style="fill: #009435; stroke: #009435; stroke-linejoin: miter"/>
     <use xlink:href="#m4eff9f5055" x="223.979353" y="140.142198" style="fill: #009435; stroke: #009435; stroke-linejoin: miter"/>
     <use xlink:href="#m4eff9f5055" x="229.138059" y="137.244932" style="fill: #009435; stroke: #009435; stroke-linejoin: miter"/>
     <use xlink:href="#m4eff9f5055" x="234.296764" y="137.843753" style="fill: #009435; stroke: #009435; stroke-linejoin: miter"/>
     <use xlink:href="#m4eff9f5055" x="239.45547" y="137.843753" style="fill: #009435; stroke: #009435; stroke-linejoin: miter"/>
     <use xlink:href="#m4eff9f5055" x="244.614176" y="137.244932" style="fill: #009435; stroke: #009435; stroke-linejoin: miter"/>
     <use xlink:href="#m4eff9f5055" x="249.772881" y="137.244932" style="fill: #009435; stroke: #009435; stroke-linejoin: miter"/>
     <use xlink:href="#m4eff9f5055" x="254.931587" y="137.244932" style="fill: #009435; stroke: #009435; stroke-linejoin: miter"/>
     <use xlink:href="#m4eff9f5055" x="260.090293" y="137.244932" style="fill: #009435; stroke: #009435; stroke-linejoin: miter"/>
     <use xlink:href="#m4eff9f5055" x="265.248998" y="143.59097" style="fill: #009435; stroke: #009435; stroke-linejoin: miter"/>
     <use xlink:href="#m4eff9f5055" x="270.407704" y="143.59097" style="fill: #009435; stroke: #009435; stroke-linejoin: miter"/>
     <use xlink:href="#m4eff9f5055" x="275.56641" y="143.59097" style="fill: #009435; stroke: #009435; stroke-linejoin: miter"/>
     <use xlink:href="#m4eff9f5055" x="280.725116" y="137.244932" style="fill: #009435; stroke: #009435; stroke-linejoin: miter"/>
     <use xlink:href="#m4eff9f5055" x="285.883821" y="137.244932" style="fill: #009435; stroke: #009435; stroke-linejoin: miter"/>
     <use xlink:href="#m4eff9f5055" x="291.042527" y="137.244932" style="fill: #009435; stroke: #009435; stroke-linejoin: miter"/>
     <use xlink:href="#m4eff9f5055" x="296.201233" y="137.244932" style="fill: #009435; stroke: #009435; stroke-linejoin: miter"/>
     <use xlink:href="#m4eff9f5055" x="301.359938" y="137.244932" style="fill: #009435; stroke: #009435; stroke-linejoin: miter"/>
     <use xlink:href="#m4eff9f5055" x="306.518644" y="137.244932" style="fill: #009435; stroke: #009435; stroke-linejoin: miter"/>
     <use xlink:href="#m4eff9f5055" x="311.67735" y="137.244932" style="fill: #009435; stroke: #009435; stroke-linejoin: miter"/>
     <use xlink:href="#m4eff9f5055" x="316.836055" y="137.244932" style="fill: #009435; stroke: #009435; stroke-linejoin: miter"/>
     <use xlink:href="#m4eff9f5055" x="321.994761" y="137.244932" style="fill: #009435; stroke: #009435; stroke-linejoin: miter"/>
     <use xlink:href="#m4eff9f5055" x="327.153467" y="137.244932" style="fill: #009435; stroke: #009435; stroke-linejoin: miter"/>
     <use xlink:href="#m4eff9f5055" x="332.312173" y="137.244932" style="fill: #009435; stroke: #009435; stroke-linejoin: miter"/>
     <use xlink:href="#m4eff9f5055" x="337.470878" y="137.244932" style="fill: #009435; stroke: #009435; stroke-linejoin: miter"/>
     <use xlink:href="#m4eff9f5055" x="342.629584" y="137.244932" style="fill: #009435; stroke: #009435; stroke-linejoin: miter"/>
     <use xlink:href="#m4eff9f5055" x="347.78829" y="137.244932" style="fill: #009435; stroke: #009435; stroke-linejoin: miter"/>
     <use xlink:href="#m4eff9f5055" x="352.946995" y="137.244932" style="fill: #009435; stroke: #009435; stroke-linejoin: miter"/>
     <use xlink:href="#m4eff9f5055" x="358.105701" y="137.244932" style="fill: #009435; stroke: #009435; stroke-linejoin: miter"/>
     <use xlink:href="#m4eff9f5055" x="363.264407" y="137.244932" style="fill: #009435; stroke: #009435; stroke-linejoin: miter"/>
     <use xlink:href="#m4eff9f5055" x="368.423112" y="137.244932" style="fill: #009435; stroke: #009435; stroke-linejoin: miter"/>
     <use xlink:href="#m4eff9f5055" x="373.581818" y="137.244932" style="fill: #009435; stroke: #009435; stroke-linejoin: miter"/>
    </g>
   </g>
   <g id="patch_3">
    <path d="M 54 252 
L 54 34.56 
" style="fill: none; stroke: #000000; stroke-width: 0.8; stroke-linejoin: miter; stroke-linecap: square"/>
   </g>
   <g id="patch_4">
    <path d="M 388.8 252 
L 388.8 34.56 
" style="fill: none; stroke: #000000; stroke-width: 0.8; stroke-linejoin: miter; stroke-linecap: square"/>
   </g>
   <g id="patch_5">
    <path d="M 54 252 
L 388.8 252 
" style="fill: none; stroke: #000000; stroke-width: 0.8; stroke-linejoin: miter; stroke-linecap: square"/>
   </g>
   <g id="patch_6">
    <path d="M 54 34.56 
L 388.8 34.56 
" style="fill: none; stroke: #000000; stroke-width: 0.8; stroke-linejoin: miter; stroke-linecap: square"/>
   </g>
   <g id="text_17">
    <!-- ε-greedy agent policy with gamma = 0.95 -->
    <g transform="translate(94.7025 28.56)scale(0.12 -0.12)">
     <defs>
      <path id="DejaVuSans-3b5" d="M 1234 1888 
Q 884 1963 697 2166 
Q 509 2366 509 2656 
Q 509 3097 866 3344 
Q 1219 3588 1831 3588 
Q 2069 3588 2334 3550 
Q 2600 3513 2906 3438 
L 2906 2916 
Q 2603 3006 2353 3047 
Q 2100 3088 1878 3088 
Q 1506 3088 1291 2944 
Q 1072 2800 1072 2600 
Q 1072 2381 1284 2241 
Q 1494 2103 1856 2103 
L 2341 2103 
L 2341 1628 
L 1878 1628 
Q 1450 1628 1225 1469 
Q 981 1294 981 1019 
Q 981 738 1244 563 
Q 1509 388 1981 388 
Q 2272 388 2538 444 
Q 2803 503 3025 619 
L 3025 84 
Q 2744 -3 2481 -47 
Q 2216 -91 1966 -91 
Q 1222 -91 819 194 
Q 416 478 416 1019 
Q 416 1356 631 1584 
Q 847 1813 1234 1888 
z
" transform="scale(0.015625)"/>
      <path id="DejaVuSans-2d" d="M 313 2009 
L 1997 2009 
L 1997 1497 
L 313 1497 
L 313 2009 
z
" transform="scale(0.015625)"/>
      <path id="DejaVuSans-67" d="M 2906 1791 
Q 2906 2416 2648 2759 
Q 2391 3103 1925 3103 
Q 1463 3103 1205 2759 
Q 947 2416 947 1791 
Q 947 1169 1205 825 
Q 1463 481 1925 481 
Q 2391 481 2648 825 
Q 2906 1169 2906 1791 
z
M 3481 434 
Q 3481 -459 3084 -895 
Q 2688 -1331 1869 -1331 
Q 1566 -1331 1297 -1286 
Q 1028 -1241 775 -1147 
L 775 -588 
Q 1028 -725 1275 -790 
Q 1522 -856 1778 -856 
Q 2344 -856 2625 -561 
Q 2906 -266 2906 331 
L 2906 616 
Q 2728 306 2450 153 
Q 2172 0 1784 0 
Q 1141 0 747 490 
Q 353 981 353 1791 
Q 353 2603 747 3093 
Q 1141 3584 1784 3584 
Q 2172 3584 2450 3431 
Q 2728 3278 2906 2969 
L 2906 3500 
L 3481 3500 
L 3481 434 
z
" transform="scale(0.015625)"/>
      <path id="DejaVuSans-64" d="M 2906 2969 
L 2906 4863 
L 3481 4863 
L 3481 0 
L 2906 0 
L 2906 525 
Q 2725 213 2448 61 
Q 2172 -91 1784 -91 
Q 1150 -91 751 415 
Q 353 922 353 1747 
Q 353 2572 751 3078 
Q 1150 3584 1784 3584 
Q 2172 3584 2448 3432 
Q 2725 3281 2906 2969 
z
M 947 1747 
Q 947 1113 1208 752 
Q 1469 391 1925 391 
Q 2381 391 2643 752 
Q 2906 1113 2906 1747 
Q 2906 2381 2643 2742 
Q 2381 3103 1925 3103 
Q 1469 3103 1208 2742 
Q 947 2381 947 1747 
z
" transform="scale(0.015625)"/>
      <path id="DejaVuSans-6e" d="M 3513 2113 
L 3513 0 
L 2938 0 
L 2938 2094 
Q 2938 2591 2744 2837 
Q 2550 3084 2163 3084 
Q 1697 3084 1428 2787 
Q 1159 2491 1159 1978 
L 1159 0 
L 581 0 
L 581 3500 
L 1159 3500 
L 1159 2956 
Q 1366 3272 1645 3428 
Q 1925 3584 2291 3584 
Q 2894 3584 3203 3211 
Q 3513 2838 3513 2113 
z
" transform="scale(0.015625)"/>
      <path id="DejaVuSans-77" d="M 269 3500 
L 844 3500 
L 1563 769 
L 2278 3500 
L 2956 3500 
L 3675 769 
L 4391 3500 
L 4966 3500 
L 4050 0 
L 3372 0 
L 2619 2869 
L 1863 0 
L 1184 0 
L 269 3500 
z
" transform="scale(0.015625)"/>
      <path id="DejaVuSans-68" d="M 3513 2113 
L 3513 0 
L 2938 0 
L 2938 2094 
Q 2938 2591 2744 2837 
Q 2550 3084 2163 3084 
Q 1697 3084 1428 2787 
Q 1159 2491 1159 1978 
L 1159 0 
L 581 0 
L 581 4863 
L 1159 4863 
L 1159 2956 
Q 1366 3272 1645 3428 
Q 1925 3584 2291 3584 
Q 2894 3584 3203 3211 
Q 3513 2838 3513 2113 
z
" transform="scale(0.015625)"/>
      <path id="DejaVuSans-6d" d="M 3328 2828 
Q 3544 3216 3844 3400 
Q 4144 3584 4550 3584 
Q 5097 3584 5394 3201 
Q 5691 2819 5691 2113 
L 5691 0 
L 5113 0 
L 5113 2094 
Q 5113 2597 4934 2840 
Q 4756 3084 4391 3084 
Q 3944 3084 3684 2787 
Q 3425 2491 3425 1978 
L 3425 0 
L 2847 0 
L 2847 2094 
Q 2847 2600 2669 2842 
Q 2491 3084 2119 3084 
Q 1678 3084 1418 2786 
Q 1159 2488 1159 1978 
L 1159 0 
L 581 0 
L 581 3500 
L 1159 3500 
L 1159 2956 
Q 1356 3278 1631 3431 
Q 1906 3584 2284 3584 
Q 2666 3584 2933 3390 
Q 3200 3197 3328 2828 
z
" transform="scale(0.015625)"/>
      <path id="DejaVuSans-3d" d="M 678 2906 
L 4684 2906 
L 4684 2381 
L 678 2381 
L 678 2906 
z
M 678 1631 
L 4684 1631 
L 4684 1100 
L 678 1100 
L 678 1631 
z
" transform="scale(0.015625)"/>
      <path id="DejaVuSans-2e" d="M 684 794 
L 1344 794 
L 1344 0 
L 684 0 
L 684 794 
z
" transform="scale(0.015625)"/>
      <path id="DejaVuSans-39" d="M 703 97 
L 703 672 
Q 941 559 1184 500 
Q 1428 441 1663 441 
Q 2288 441 2617 861 
Q 2947 1281 2994 2138 
Q 2813 1869 2534 1725 
Q 2256 1581 1919 1581 
Q 1219 1581 811 2004 
Q 403 2428 403 3163 
Q 403 3881 828 4315 
Q 1253 4750 1959 4750 
Q 2769 4750 3195 4129 
Q 3622 3509 3622 2328 
Q 3622 1225 3098 567 
Q 2575 -91 1691 -91 
Q 1453 -91 1209 -44 
Q 966 3 703 97 
z
M 1959 2075 
Q 2384 2075 2632 2365 
Q 2881 2656 2881 3163 
Q 2881 3666 2632 3958 
Q 2384 4250 1959 4250 
Q 1534 4250 1286 3958 
Q 1038 3666 1038 3163 
Q 1038 2656 1286 2365 
Q 1534 2075 1959 2075 
z
" transform="scale(0.015625)"/>
     </defs>
     <use xlink:href="#DejaVuSans-3b5"/>
     <use xlink:href="#DejaVuSans-2d" x="54.052734"/>
     <use xlink:href="#DejaVuSans-67" x="90.136719"/>
     <use xlink:href="#DejaVuSans-72" x="153.613281"/>
     <use xlink:href="#DejaVuSans-65" x="192.476562"/>
     <use xlink:href="#DejaVuSans-65" x="254"/>
     <use xlink:href="#DejaVuSans-64" x="315.523438"/>
     <use xlink:href="#DejaVuSans-79" x="379"/>
     <use xlink:href="#DejaVuSans-20" x="438.179688"/>
     <use xlink:href="#DejaVuSans-61" x="469.966797"/>
     <use xlink:href="#DejaVuSans-67" x="531.246094"/>
     <use xlink:href="#DejaVuSans-65" x="594.722656"/>
     <use xlink:href="#DejaVuSans-6e" x="656.246094"/>
     <use xlink:href="#DejaVuSans-74" x="719.625"/>
     <use xlink:href="#DejaVuSans-20" x="758.833984"/>
     <use xlink:href="#DejaVuSans-70" x="790.621094"/>
     <use xlink:href="#DejaVuSans-6f" x="854.097656"/>
     <use xlink:href="#DejaVuSans-6c" x="915.279297"/>
     <use xlink:href="#DejaVuSans-69" x="943.0625"/>
     <use xlink:href="#DejaVuSans-63" x="970.845703"/>
     <use xlink:href="#DejaVuSans-79" x="1025.826172"/>
     <use xlink:href="#DejaVuSans-20" x="1085.005859"/>
     <use xlink:href="#DejaVuSans-77" x="1116.792969"/>
     <use xlink:href="#DejaVuSans-69" x="1198.580078"/>
     <use xlink:href="#DejaVuSans-74" x="1226.363281"/>
     <use xlink:href="#DejaVuSans-68" x="1265.572266"/>
     <use xlink:href="#DejaVuSans-20" x="1328.951172"/>
     <use xlink:href="#DejaVuSans-67" x="1360.738281"/>
     <use xlink:href="#DejaVuSans-61" x="1424.214844"/>
     <use xlink:href="#DejaVuSans-6d" x="1485.494141"/>
     <use xlink:href="#DejaVuSans-6d" x="1582.90625"/>
     <use xlink:href="#DejaVuSans-61" x="1680.318359"/>
     <use xlink:href="#DejaVuSans-20" x="1741.597656"/>
     <use xlink:href="#DejaVuSans-3d" x="1773.384766"/>
     <use xlink:href="#DejaVuSans-20" x="1857.173828"/>
     <use xlink:href="#DejaVuSans-30" x="1888.960938"/>
     <use xlink:href="#DejaVuSans-2e" x="1952.583984"/>
     <use xlink:href="#DejaVuSans-39" x="1984.371094"/>
     <use xlink:href="#DejaVuSans-35" x="2047.994141"/>
    </g>
   </g>
   <g id="legend_1">
    <g id="patch_7">
     <path d="M 283.43125 247 
L 381.8 247 
Q 383.8 247 383.8 245 
L 383.8 172.609375 
Q 383.8 170.609375 381.8 170.609375 
L 283.43125 170.609375 
Q 281.43125 170.609375 281.43125 172.609375 
L 281.43125 245 
Q 281.43125 247 283.43125 247 
z
" style="fill: #ffffff; opacity: 0.8; stroke: #cccccc; stroke-linejoin: miter"/>
    </g>
    <g id="line2d_34">
     <path d="M 285.43125 178.707812 
L 295.43125 178.707812 
L 305.43125 178.707812 
" style="fill: none; stroke: #9d02d7; stroke-width: 1.5; stroke-linecap: square"/>
     <g>
      <use xlink:href="#m470eb89948" x="295.43125" y="178.707812" style="fill: #9d02d7; stroke: #9d02d7; stroke-linejoin: miter"/>
     </g>
    </g>
    <g id="text_18">
     <!-- epsilon=0.01 -->
     <g transform="translate(313.43125 182.207812)scale(0.1 -0.1)">
      <use xlink:href="#DejaVuSans-65"/>
      <use xlink:href="#DejaVuSans-70" x="61.523438"/>
      <use xlink:href="#DejaVuSans-73" x="125"/>
      <use xlink:href="#DejaVuSans-69" x="177.099609"/>
      <use xlink:href="#DejaVuSans-6c" x="204.882812"/>
      <use xlink:href="#DejaVuSans-6f" x="232.666016"/>
      <use xlink:href="#DejaVuSans-6e" x="293.847656"/>
      <use xlink:href="#DejaVuSans-3d" x="357.226562"/>
      <use xlink:href="#DejaVuSans-30" x="441.015625"/>
      <use xlink:href="#DejaVuSans-2e" x="504.638672"/>
      <use xlink:href="#DejaVuSans-30" x="536.425781"/>
      <use xlink:href="#DejaVuSans-31" x="600.048828"/>
     </g>
    </g>
    <g id="line2d_35">
     <path d="M 285.43125 193.385938 
L 295.43125 193.385938 
L 305.43125 193.385938 
" style="fill: none; stroke: #0000ff; stroke-width: 1.5; stroke-linecap: square"/>
     <g>
      <use xlink:href="#me859a7a381" x="295.43125" y="193.385938" style="fill: #0000ff; stroke: #0000ff"/>
     </g>
    </g>
    <g id="text_19">
     <!-- epsilon=0.05 -->
     <g transform="translate(313.43125 196.885938)scale(0.1 -0.1)">
      <use xlink:href="#DejaVuSans-65"/>
      <use xlink:href="#DejaVuSans-70" x="61.523438"/>
      <use xlink:href="#DejaVuSans-73" x="125"/>
      <use xlink:href="#DejaVuSans-69" x="177.099609"/>
      <use xlink:href="#DejaVuSans-6c" x="204.882812"/>
      <use xlink:href="#DejaVuSans-6f" x="232.666016"/>
      <use xlink:href="#DejaVuSans-6e" x="293.847656"/>
      <use xlink:href="#DejaVuSans-3d" x="357.226562"/>
      <use xlink:href="#DejaVuSans-30" x="441.015625"/>
      <use xlink:href="#DejaVuSans-2e" x="504.638672"/>
      <use xlink:href="#DejaVuSans-30" x="536.425781"/>
      <use xlink:href="#DejaVuSans-35" x="600.048828"/>
     </g>
    </g>
    <g id="line2d_36">
     <path d="M 285.43125 208.064063 
L 295.43125 208.064063 
L 305.43125 208.064063 
" style="fill: none; stroke: #ff7763; stroke-width: 1.5; stroke-linecap: square"/>
     <g>
      <use xlink:href="#m9d6400555c" x="295.43125" y="208.064063" style="fill: #ff7763; stroke: #ff7763"/>
     </g>
    </g>
    <g id="text_20">
     <!-- epsilon=0.1 -->
     <g transform="translate(313.43125 211.564063)scale(0.1 -0.1)">
      <use xlink:href="#DejaVuSans-65"/>
      <use xlink:href="#DejaVuSans-70" x="61.523438"/>
      <use xlink:href="#DejaVuSans-73" x="125"/>
      <use xlink:href="#DejaVuSans-69" x="177.099609"/>
      <use xlink:href="#DejaVuSans-6c" x="204.882812"/>
      <use xlink:href="#DejaVuSans-6f" x="232.666016"/>
      <use xlink:href="#DejaVuSans-6e" x="293.847656"/>
      <use xlink:href="#DejaVuSans-3d" x="357.226562"/>
      <use xlink:href="#DejaVuSans-30" x="441.015625"/>
      <use xlink:href="#DejaVuSans-2e" x="504.638672"/>
      <use xlink:href="#DejaVuSans-31" x="536.425781"/>
     </g>
    </g>
    <g id="line2d_37">
     <path d="M 285.43125 222.742188 
L 295.43125 222.742188 
L 305.43125 222.742188 
" style="fill: none; stroke: #ffac1e; stroke-width: 1.5; stroke-linecap: square"/>
     <g>
      <use xlink:href="#m4f10b187bf" x="295.43125" y="222.742188" style="fill: #ffac1e; stroke: #ffac1e; stroke-linejoin: bevel"/>
     </g>
    </g>
    <g id="text_21">
     <!-- epsilon=0.2 -->
     <g transform="translate(313.43125 226.242188)scale(0.1 -0.1)">
      <use xlink:href="#DejaVuSans-65"/>
      <use xlink:href="#DejaVuSans-70" x="61.523438"/>
      <use xlink:href="#DejaVuSans-73" x="125"/>
      <use xlink:href="#DejaVuSans-69" x="177.099609"/>
      <use xlink:href="#DejaVuSans-6c" x="204.882812"/>
      <use xlink:href="#DejaVuSans-6f" x="232.666016"/>
      <use xlink:href="#DejaVuSans-6e" x="293.847656"/>
      <use xlink:href="#DejaVuSans-3d" x="357.226562"/>
      <use xlink:href="#DejaVuSans-30" x="441.015625"/>
      <use xlink:href="#DejaVuSans-2e" x="504.638672"/>
      <use xlink:href="#DejaVuSans-32" x="536.425781"/>
     </g>
    </g>
    <g id="line2d_38">
     <path d="M 285.43125 237.420313 
L 295.43125 237.420313 
L 305.43125 237.420313 
" style="fill: none; stroke: #009435; stroke-width: 1.5; stroke-linecap: square"/>
     <g>
      <use xlink:href="#m4eff9f5055" x="295.43125" y="237.420313" style="fill: #009435; stroke: #009435; stroke-linejoin: miter"/>
     </g>
    </g>
    <g id="text_22">
     <!-- epsilon=0.3 -->
     <g transform="translate(313.43125 240.920313)scale(0.1 -0.1)">
      <use xlink:href="#DejaVuSans-65"/>
      <use xlink:href="#DejaVuSans-70" x="61.523438"/>
      <use xlink:href="#DejaVuSans-73" x="125"/>
      <use xlink:href="#DejaVuSans-69" x="177.099609"/>
      <use xlink:href="#DejaVuSans-6c" x="204.882812"/>
      <use xlink:href="#DejaVuSans-6f" x="232.666016"/>
      <use xlink:href="#DejaVuSans-6e" x="293.847656"/>
      <use xlink:href="#DejaVuSans-3d" x="357.226562"/>
      <use xlink:href="#DejaVuSans-30" x="441.015625"/>
      <use xlink:href="#DejaVuSans-2e" x="504.638672"/>
      <use xlink:href="#DejaVuSans-33" x="536.425781"/>
     </g>
    </g>
   </g>
  </g>
 </g>
 <defs>
  <clipPath id="pf04b7d92f6">
   <rect x="54" y="34.56" width="334.8" height="217.44"/>
  </clipPath>
 </defs>
</svg>
