<?xml version="1.0" encoding="utf-8" standalone="no"?>
<!DOCTYPE svg PUBLIC "-//W3C//DTD SVG 1.1//EN"
  "http://www.w3.org/Graphics/SVG/1.1/DTD/svg11.dtd">
<svg xmlns:xlink="http://www.w3.org/1999/xlink" width="432pt" height="288pt" viewBox="0 0 432 288" xmlns="http://www.w3.org/2000/svg" version="1.1">
 <metadata>
  <rdf:RDF xmlns:dc="http://purl.org/dc/elements/1.1/" xmlns:cc="http://creativecommons.org/ns#" xmlns:rdf="http://www.w3.org/1999/02/22-rdf-syntax-ns#">
   <cc:Work>
    <dc:type rdf:resource="http://purl.org/dc/dcmitype/StillImage"/>
    <dc:date>2023-01-11T15:36:51.602967</dc:date>
    <dc:format>image/svg+xml</dc:format>
    <dc:creator>
     <cc:Agent>
      <dc:title>Matplotlib v3.5.2, https://matplotlib.org/</dc:title>
     </cc:Agent>
    </dc:creator>
   </cc:Work>
  </rdf:RDF>
 </metadata>
 <defs>
  <style type="text/css">*{stroke-linejoin: round; stroke-linecap: butt}</style>
 </defs>
 <g id="figure_1">
  <g id="patch_1">
   <path d="M 0 288 
L 432 288 
L 432 0 
L 0 0 
z
" style="fill: #ffffff"/>
  </g>
  <g id="axes_1">
   <g id="patch_2">
    <path d="M 54 252 
L 388.8 252 
L 388.8 34.56 
L 54 34.56 
z
" style="fill: #ffffff"/>
   </g>
   <g id="PolyCollection_1">
    <defs>
     <path id="mb050e7d49a" d="M 69.218182 -39.268279 
L 69.218182 -39.268279 
L 74.376888 -36.477118 
L 79.535593 -32.594437 
L 84.694299 -33.781496 
L 89.853005 -31.927795 
L 95.01171 -33.095164 
L 100.170416 -33.941384 
L 105.329122 -33.561563 
L 110.487827 -36.90515 
L 115.646533 -38.264255 
L 120.805239 -34.633221 
L 125.963945 -33.940892 
L 131.12265 -33.502122 
L 136.281356 -34.178153 
L 141.440062 -34.178152 
L 146.598767 -35.014112 
L 151.757473 -35.014112 
L 156.916179 -32.858859 
L 162.074884 -33.173686 
L 167.23359 -34.341818 
L 172.392296 -34.71306 
L 177.551002 -34.524923 
L 182.709707 -34.681187 
L 187.868413 -32.98408 
L 193.027119 -34.399314 
L 198.185824 -31.767127 
L 203.34453 -28.241563 
L 208.503236 -28.241563 
L 213.661941 -29.319252 
L 218.820647 -29.315789 
L 223.979353 -31.571043 
L 229.138059 -31.813354 
L 234.296764 -27.731253 
L 239.45547 -35.476691 
L 244.614176 -31.516889 
L 249.772881 -30.61631 
L 254.931587 -31.648217 
L 260.090293 -28.512129 
L 265.248998 -31.039308 
L 270.407704 -21.660903 
L 275.56641 -21.758075 
L 280.725116 -17.328129 
L 285.883821 -9.077899 
L 291.042527 -30.748234 
L 296.201233 -30.562347 
L 301.359938 -21.661858 
L 306.518644 -28.588827 
L 311.67735 -33.288268 
L 316.836055 -32.085027 
L 321.994761 -17.387674 
L 327.153467 -20.322869 
L 332.312173 -34.874822 
L 337.470878 -32.958853 
L 342.629584 -29.937117 
L 347.78829 -31.490632 
L 352.946995 -28.002172 
L 358.105701 -37.967757 
L 363.264407 -34.544189 
L 368.423112 -40.689864 
L 373.581818 -54.210032 
L 373.581818 -54.210032 
L 373.581818 -54.210032 
L 368.423112 -40.689864 
L 363.264407 -34.544189 
L 358.105701 -37.967757 
L 352.946995 -28.002172 
L 347.78829 -31.490632 
L 342.629584 -29.937117 
L 337.470878 -32.958853 
L 332.312173 -34.874822 
L 327.153467 -20.322869 
L 321.994761 -17.387674 
L 316.836055 -32.085027 
L 311.67735 -33.288268 
L 306.518644 -28.588827 
L 301.359938 -21.661858 
L 296.201233 -30.562347 
L 291.042527 -30.748234 
L 285.883821 -9.077899 
L 280.725116 -17.328129 
L 275.56641 -21.758075 
L 270.407704 -21.660903 
L 265.248998 -31.039308 
L 260.090293 -28.512129 
L 254.931587 -31.648217 
L 249.772881 -30.61631 
L 244.614176 -31.516889 
L 239.45547 -35.476691 
L 234.296764 -27.731253 
L 229.138059 -31.813354 
L 223.979353 -31.571043 
L 218.820647 -29.315789 
L 213.661941 -29.319252 
L 208.503236 -28.241563 
L 203.34453 -28.241563 
L 198.185824 -31.767127 
L 193.027119 -34.399314 
L 187.868413 -32.98408 
L 182.709707 -34.681187 
L 177.551002 -34.524923 
L 172.392296 -34.71306 
L 167.23359 -34.341818 
L 162.074884 -33.173686 
L 156.916179 -32.858859 
L 151.757473 -35.014112 
L 146.598767 -35.014112 
L 141.440062 -34.178152 
L 136.281356 -34.178153 
L 131.12265 -33.502122 
L 125.963945 -33.940892 
L 120.805239 -34.633221 
L 115.646533 -38.264255 
L 110.487827 -36.90515 
L 105.329122 -33.561563 
L 100.170416 -33.941384 
L 95.01171 -33.095164 
L 89.853005 -31.927795 
L 84.694299 -33.781496 
L 79.535593 -32.594437 
L 74.376888 -36.477118 
L 69.218182 -39.268279 
z
" style="stroke: #9d02d7; stroke-opacity: 0.2"/>
    </defs>
    <g clip-path="url(#pce8b3742a8)">
     <use xlink:href="#mb050e7d49a" x="0" y="288" style="fill: #9d02d7; fill-opacity: 0.2; stroke: #9d02d7; stroke-opacity: 0.2"/>
    </g>
   </g>
   <g id="PolyCollection_2">
    <defs>
     <path id="m455fa97fa1" d="M 69.218182 -35.022493 
L 69.218182 -35.022493 
L 74.376888 -28.881944 
L 79.535593 -29.818427 
L 84.694299 -33.519983 
L 89.853005 -33.515421 
L 95.01171 -33.511294 
L 100.170416 -33.53404 
L 105.329122 -33.518716 
L 110.487827 -33.51331 
L 115.646533 -32.09841 
L 120.805239 -22.816333 
L 125.963945 -33.526528 
L 131.12265 -33.521364 
L 136.281356 -33.514451 
L 141.440062 -33.525022 
L 146.598767 -33.527244 
L 151.757473 -33.524252 
L 156.916179 -33.529711 
L 162.074884 -33.522718 
L 167.23359 -33.519223 
L 172.392296 -33.519998 
L 177.551002 -33.635308 
L 182.709707 -23.488542 
L 187.868413 -20.41678 
L 193.027119 -20.360273 
L 198.185824 -20.94478 
L 203.34453 -18.755698 
L 208.503236 -18.647003 
L 213.661941 -21.089307 
L 218.820647 -18.591238 
L 223.979353 -18.809344 
L 229.138059 -20.890835 
L 234.296764 -21.595238 
L 239.45547 -21.365786 
L 244.614176 -21.353045 
L 249.772881 -21.360849 
L 254.931587 -21.349046 
L 260.090293 -21.347964 
L 265.248998 -21.347001 
L 270.407704 -29.792095 
L 275.56641 -25.22026 
L 280.725116 -25.220859 
L 285.883821 -25.220846 
L 291.042527 -25.220621 
L 296.201233 -25.220846 
L 301.359938 -25.220621 
L 306.518644 -25.22042 
L 311.67735 -25.220452 
L 316.836055 -25.221889 
L 321.994761 -33.53978 
L 327.153467 -33.932443 
L 332.312173 -33.932443 
L 337.470878 -33.932462 
L 342.629584 -33.222539 
L 347.78829 -34.013601 
L 352.946995 -33.932441 
L 358.105701 -33.932441 
L 363.264407 -34.013602 
L 368.423112 -33.932441 
L 373.581818 -33.932441 
L 373.581818 -33.932441 
L 373.581818 -33.932441 
L 368.423112 -33.932441 
L 363.264407 -34.013602 
L 358.105701 -33.932441 
L 352.946995 -33.932441 
L 347.78829 -34.013601 
L 342.629584 -33.222539 
L 337.470878 -33.932462 
L 332.312173 -33.932443 
L 327.153467 -33.932443 
L 321.994761 -33.53978 
L 316.836055 -25.221889 
L 311.67735 -25.220452 
L 306.518644 -25.22042 
L 301.359938 -25.220621 
L 296.201233 -25.220846 
L 291.042527 -25.220621 
L 285.883821 -25.220846 
L 280.725116 -25.220859 
L 275.56641 -25.22026 
L 270.407704 -29.792095 
L 265.248998 -21.347001 
L 260.090293 -21.347964 
L 254.931587 -21.349046 
L 249.772881 -21.360849 
L 244.614176 -21.353045 
L 239.45547 -21.365786 
L 234.296764 -21.595238 
L 229.138059 -20.890835 
L 223.979353 -18.809344 
L 218.820647 -18.591238 
L 213.661941 -21.089307 
L 208.503236 -18.647003 
L 203.34453 -18.755698 
L 198.185824 -20.94478 
L 193.027119 -20.360273 
L 187.868413 -20.41678 
L 182.709707 -23.488542 
L 177.551002 -33.635308 
L 172.392296 -33.519998 
L 167.23359 -33.519223 
L 162.074884 -33.522718 
L 156.916179 -33.529711 
L 151.757473 -33.524252 
L 146.598767 -33.527244 
L 141.440062 -33.525022 
L 136.281356 -33.514451 
L 131.12265 -33.521364 
L 125.963945 -33.526528 
L 120.805239 -22.816333 
L 115.646533 -32.09841 
L 110.487827 -33.51331 
L 105.329122 -33.518716 
L 100.170416 -33.53404 
L 95.01171 -33.511294 
L 89.853005 -33.515421 
L 84.694299 -33.519983 
L 79.535593 -29.818427 
L 74.376888 -28.881944 
L 69.218182 -35.022493 
z
" style="stroke: #0000ff; stroke-opacity: 0.2"/>
    </defs>
    <g clip-path="url(#pce8b3742a8)">
     <use xlink:href="#m455fa97fa1" x="0" y="288" style="fill: #0000ff; fill-opacity: 0.2; stroke: #0000ff; stroke-opacity: 0.2"/>
    </g>
   </g>
   <g id="PolyCollection_3">
    <defs>
     <path id="m65fb087ffe" d="M 69.218182 -35.091182 
L 69.218182 -35.091182 
L 74.376888 -34.871833 
L 79.535593 -34.826673 
L 84.694299 -34.675479 
L 89.853005 -34.858566 
L 95.01171 -34.849927 
L 100.170416 -34.805964 
L 105.329122 -34.893518 
L 110.487827 -34.989529 
L 115.646533 -35.215472 
L 120.805239 -34.584201 
L 125.963945 -34.840821 
L 131.12265 -34.858644 
L 136.281356 -34.59252 
L 141.440062 -34.760137 
L 146.598767 -34.634835 
L 151.757473 -34.669236 
L 156.916179 -34.703624 
L 162.074884 -34.617656 
L 167.23359 -34.857841 
L 172.392296 -34.602162 
L 177.551002 -34.827412 
L 182.709707 -34.634826 
L 187.868413 -34.616026 
L 193.027119 -34.611833 
L 198.185824 -34.582613 
L 203.34453 -34.858292 
L 208.503236 -34.85827 
L 213.661941 -34.844136 
L 218.820647 -34.859053 
L 223.979353 -34.858258 
L 229.138059 -34.857843 
L 234.296764 -34.798475 
L 239.45547 -34.580944 
L 244.614176 -34.617857 
L 249.772881 -34.730268 
L 254.931587 -34.581235 
L 260.090293 -34.781694 
L 265.248998 -34.842195 
L 270.407704 -34.840417 
L 275.56641 -34.580366 
L 280.725116 -34.677861 
L 285.883821 -34.692115 
L 291.042527 -34.709465 
L 296.201233 -34.564345 
L 301.359938 -34.608105 
L 306.518644 -34.606424 
L 311.67735 -34.598205 
L 316.836055 -34.858499 
L 321.994761 -34.781914 
L 327.153467 -34.635049 
L 332.312173 -34.858501 
L 337.470878 -34.78385 
L 342.629584 -34.601018 
L 347.78829 -34.572624 
L 352.946995 -34.585642 
L 358.105701 -34.607747 
L 363.264407 -34.858288 
L 368.423112 -34.795604 
L 373.581818 -34.607013 
L 373.581818 -34.607013 
L 373.581818 -34.607013 
L 368.423112 -34.795604 
L 363.264407 -34.858288 
L 358.105701 -34.607747 
L 352.946995 -34.585642 
L 347.78829 -34.572624 
L 342.629584 -34.601018 
L 337.470878 -34.78385 
L 332.312173 -34.858501 
L 327.153467 -34.635049 
L 321.994761 -34.781914 
L 316.836055 -34.858499 
L 311.67735 -34.598205 
L 306.518644 -34.606424 
L 301.359938 -34.608105 
L 296.201233 -34.564345 
L 291.042527 -34.709465 
L 285.883821 -34.692115 
L 280.725116 -34.677861 
L 275.56641 -34.580366 
L 270.407704 -34.840417 
L 265.248998 -34.842195 
L 260.090293 -34.781694 
L 254.931587 -34.581235 
L 249.772881 -34.730268 
L 244.614176 -34.617857 
L 239.45547 -34.580944 
L 234.296764 -34.798475 
L 229.138059 -34.857843 
L 223.979353 -34.858258 
L 218.820647 -34.859053 
L 213.661941 -34.844136 
L 208.503236 -34.85827 
L 203.34453 -34.858292 
L 198.185824 -34.582613 
L 193.027119 -34.611833 
L 187.868413 -34.616026 
L 182.709707 -34.634826 
L 177.551002 -34.827412 
L 172.392296 -34.602162 
L 167.23359 -34.857841 
L 162.074884 -34.617656 
L 156.916179 -34.703624 
L 151.757473 -34.669236 
L 146.598767 -34.634835 
L 141.440062 -34.760137 
L 136.281356 -34.59252 
L 131.12265 -34.858644 
L 125.963945 -34.840821 
L 120.805239 -34.584201 
L 115.646533 -35.215472 
L 110.487827 -34.989529 
L 105.329122 -34.893518 
L 100.170416 -34.805964 
L 95.01171 -34.849927 
L 89.853005 -34.858566 
L 84.694299 -34.675479 
L 79.535593 -34.826673 
L 74.376888 -34.871833 
L 69.218182 -35.091182 
z
" style="stroke: #ff7763; stroke-opacity: 0.2"/>
    </defs>
    <g clip-path="url(#pce8b3742a8)">
     <use xlink:href="#m65fb087ffe" x="0" y="288" style="fill: #ff7763; fill-opacity: 0.2; stroke: #ff7763; stroke-opacity: 0.2"/>
    </g>
   </g>
   <g id="PolyCollection_4">
    <defs>
     <path id="m6b4543f103" d="M 69.218182 -35.032116 
L 69.218182 -35.032116 
L 74.376888 -35.091182 
L 79.535593 -35.091182 
L 84.694299 -35.091182 
L 89.853005 -35.091182 
L 95.01171 -35.091182 
L 100.170416 -35.091182 
L 105.329122 -35.091182 
L 110.487827 -35.091182 
L 115.646533 -35.091182 
L 120.805239 -35.091182 
L 125.963945 -35.091182 
L 131.12265 -35.091182 
L 136.281356 -35.091182 
L 141.440062 -35.091182 
L 146.598767 -35.091182 
L 151.757473 -35.091182 
L 156.916179 -35.091182 
L 162.074884 -35.091182 
L 167.23359 -35.091182 
L 172.392296 -35.091182 
L 177.551002 -35.091182 
L 182.709707 -35.091182 
L 187.868413 -35.091182 
L 193.027119 -35.091182 
L 198.185824 -35.091182 
L 203.34453 -35.091182 
L 208.503236 -35.091182 
L 213.661941 -35.091182 
L 218.820647 -35.091182 
L 223.979353 -35.091182 
L 229.138059 -35.091182 
L 234.296764 -35.091182 
L 239.45547 -35.091182 
L 244.614176 -35.091182 
L 249.772881 -35.091182 
L 254.931587 -35.091182 
L 260.090293 -35.091182 
L 265.248998 -35.091182 
L 270.407704 -35.091182 
L 275.56641 -35.091182 
L 280.725116 -35.091182 
L 285.883821 -35.091182 
L 291.042527 -31.799055 
L 296.201233 -44.093688 
L 301.359938 -39.221477 
L 306.518644 -53.141693 
L 311.67735 -59.344805 
L 316.836055 -56.284107 
L 321.994761 -65.176516 
L 327.153467 -55.16608 
L 332.312173 -65.991442 
L 337.470878 -64.831904 
L 342.629584 -67.25834 
L 347.78829 -64.34461 
L 352.946995 -64.337895 
L 358.105701 -65.947159 
L 363.264407 -64.85096 
L 368.423112 -64.344504 
L 373.581818 -65.991582 
L 373.581818 -65.991582 
L 373.581818 -65.991582 
L 368.423112 -64.344504 
L 363.264407 -64.85096 
L 358.105701 -65.947159 
L 352.946995 -64.337895 
L 347.78829 -64.34461 
L 342.629584 -67.25834 
L 337.470878 -64.831904 
L 332.312173 -65.991442 
L 327.153467 -55.16608 
L 321.994761 -65.176516 
L 316.836055 -56.284107 
L 311.67735 -59.344805 
L 306.518644 -53.141693 
L 301.359938 -39.221477 
L 296.201233 -44.093688 
L 291.042527 -31.799055 
L 285.883821 -35.091182 
L 280.725116 -35.091182 
L 275.56641 -35.091182 
L 270.407704 -35.091182 
L 265.248998 -35.091182 
L 260.090293 -35.091182 
L 254.931587 -35.091182 
L 249.772881 -35.091182 
L 244.614176 -35.091182 
L 239.45547 -35.091182 
L 234.296764 -35.091182 
L 229.138059 -35.091182 
L 223.979353 -35.091182 
L 218.820647 -35.091182 
L 213.661941 -35.091182 
L 208.503236 -35.091182 
L 203.34453 -35.091182 
L 198.185824 -35.091182 
L 193.027119 -35.091182 
L 187.868413 -35.091182 
L 182.709707 -35.091182 
L 177.551002 -35.091182 
L 172.392296 -35.091182 
L 167.23359 -35.091182 
L 162.074884 -35.091182 
L 156.916179 -35.091182 
L 151.757473 -35.091182 
L 146.598767 -35.091182 
L 141.440062 -35.091182 
L 136.281356 -35.091182 
L 131.12265 -35.091182 
L 125.963945 -35.091182 
L 120.805239 -35.091182 
L 115.646533 -35.091182 
L 110.487827 -35.091182 
L 105.329122 -35.091182 
L 100.170416 -35.091182 
L 95.01171 -35.091182 
L 89.853005 -35.091182 
L 84.694299 -35.091182 
L 79.535593 -35.091182 
L 74.376888 -35.091182 
L 69.218182 -35.032116 
z
" style="stroke: #ffac1e; stroke-opacity: 0.2"/>
    </defs>
    <g clip-path="url(#pce8b3742a8)">
     <use xlink:href="#m6b4543f103" x="0" y="288" style="fill: #ffac1e; fill-opacity: 0.2; stroke: #ffac1e; stroke-opacity: 0.2"/>
    </g>
   </g>
   <g id="PolyCollection_5">
    <defs>
     <path id="m1702ba0f98" d="M 69.218182 -35.091182 
L 69.218182 -35.091182 
L 74.376888 -28.352603 
L 79.535593 -27.886732 
L 84.694299 -28.59489 
L 89.853005 -27.630532 
L 95.01171 -28.359848 
L 100.170416 -28.777722 
L 105.329122 -27.887707 
L 110.487827 -27.472981 
L 115.646533 -27.927506 
L 120.805239 -27.992155 
L 125.963945 -27.964622 
L 131.12265 -28.364515 
L 136.281356 -27.726496 
L 141.440062 -27.940456 
L 146.598767 -27.578129 
L 151.757473 -27.813705 
L 156.916179 -27.825684 
L 162.074884 -27.937228 
L 167.23359 -27.943915 
L 172.392296 -27.966111 
L 177.551002 -27.896993 
L 182.709707 -27.878504 
L 187.868413 -27.896993 
L 193.027119 -27.883051 
L 198.185824 -27.651582 
L 203.34453 -27.938674 
L 208.503236 -27.89353 
L 213.661941 -27.914318 
L 218.820647 -27.879613 
L 223.979353 -27.880277 
L 229.138059 -27.886382 
L 234.296764 -27.61268 
L 239.45547 -27.939105 
L 244.614176 -27.88555 
L 249.772881 -27.87955 
L 254.931587 -27.897728 
L 260.090293 -27.88378 
L 265.248998 -27.884424 
L 270.407704 -27.894257 
L 275.56641 -27.892469 
L 280.725116 -27.893575 
L 285.883821 -27.886322 
L 291.042527 -27.880401 
L 296.201233 -27.879613 
L 301.359938 -27.612743 
L 306.518644 -27.893575 
L 311.67735 -27.618274 
L 316.836055 -27.973862 
L 321.994761 -27.889856 
L 327.153467 -27.614813 
L 332.312173 -27.895001 
L 337.470878 -27.938719 
L 342.629584 -27.973763 
L 347.78829 -27.920315 
L 352.946995 -27.938655 
L 358.105701 -27.614695 
L 363.264407 -27.936854 
L 368.423112 -27.624071 
L 373.581818 -27.883096 
L 373.581818 -27.883096 
L 373.581818 -27.883096 
L 368.423112 -27.624071 
L 363.264407 -27.936854 
L 358.105701 -27.614695 
L 352.946995 -27.938655 
L 347.78829 -27.920315 
L 342.629584 -27.973763 
L 337.470878 -27.938719 
L 332.312173 -27.895001 
L 327.153467 -27.614813 
L 321.994761 -27.889856 
L 316.836055 -27.973862 
L 311.67735 -27.618274 
L 306.518644 -27.893575 
L 301.359938 -27.612743 
L 296.201233 -27.879613 
L 291.042527 -27.880401 
L 285.883821 -27.886322 
L 280.725116 -27.893575 
L 275.56641 -27.892469 
L 270.407704 -27.894257 
L 265.248998 -27.884424 
L 260.090293 -27.88378 
L 254.931587 -27.897728 
L 249.772881 -27.87955 
L 244.614176 -27.88555 
L 239.45547 -27.939105 
L 234.296764 -27.61268 
L 229.138059 -27.886382 
L 223.979353 -27.880277 
L 218.820647 -27.879613 
L 213.661941 -27.914318 
L 208.503236 -27.89353 
L 203.34453 -27.938674 
L 198.185824 -27.651582 
L 193.027119 -27.883051 
L 187.868413 -27.896993 
L 182.709707 -27.878504 
L 177.551002 -27.896993 
L 172.392296 -27.966111 
L 167.23359 -27.943915 
L 162.074884 -27.937228 
L 156.916179 -27.825684 
L 151.757473 -27.813705 
L 146.598767 -27.578129 
L 141.440062 -27.940456 
L 136.281356 -27.726496 
L 131.12265 -28.364515 
L 125.963945 -27.964622 
L 120.805239 -27.992155 
L 115.646533 -27.927506 
L 110.487827 -27.472981 
L 105.329122 -27.887707 
L 100.170416 -28.777722 
L 95.01171 -28.359848 
L 89.853005 -27.630532 
L 84.694299 -28.59489 
L 79.535593 -27.886732 
L 74.376888 -28.352603 
L 69.218182 -35.091182 
z
" style="stroke: #009435; stroke-opacity: 0.2"/>
    </defs>
    <g clip-path="url(#pce8b3742a8)">
     <use xlink:href="#m1702ba0f98" x="0" y="288" style="fill: #009435; fill-opacity: 0.2; stroke: #009435; stroke-opacity: 0.2"/>
    </g>
   </g>
   <g id="matplotlib.axis_1">
    <g id="xtick_1">
     <g id="line2d_1">
      <path d="M 69.218182 252 
L 69.218182 34.56 
" clip-path="url(#pce8b3742a8)" style="fill: none; stroke-dasharray: 2.96,1.28; stroke-dashoffset: 0; stroke: #b0b0b0; stroke-width: 0.8"/>
     </g>
     <g id="line2d_2">
      <defs>
       <path id="mc44a615b66" d="M 0 0 
L 0 3.5 
" style="stroke: #000000; stroke-width: 0.8"/>
      </defs>
      <g>
       <use xlink:href="#mc44a615b66" x="69.218182" y="252" style="stroke: #000000; stroke-width: 0.8"/>
      </g>
     </g>
     <g id="text_1">
      <!-- 0 -->
      <g transform="translate(66.036932 266.598437)scale(0.1 -0.1)">
       <defs>
        <path id="DejaVuSans-30" d="M 2034 4250 
Q 1547 4250 1301 3770 
Q 1056 3291 1056 2328 
Q 1056 1369 1301 889 
Q 1547 409 2034 409 
Q 2525 409 2770 889 
Q 3016 1369 3016 2328 
Q 3016 3291 2770 3770 
Q 2525 4250 2034 4250 
z
M 2034 4750 
Q 2819 4750 3233 4129 
Q 3647 3509 3647 2328 
Q 3647 1150 3233 529 
Q 2819 -91 2034 -91 
Q 1250 -91 836 529 
Q 422 1150 422 2328 
Q 422 3509 836 4129 
Q 1250 4750 2034 4750 
z
" transform="scale(0.015625)"/>
       </defs>
       <use xlink:href="#DejaVuSans-30"/>
      </g>
     </g>
    </g>
    <g id="xtick_2">
     <g id="line2d_3">
      <path d="M 120.805239 252 
L 120.805239 34.56 
" clip-path="url(#pce8b3742a8)" style="fill: none; stroke-dasharray: 2.96,1.28; stroke-dashoffset: 0; stroke: #b0b0b0; stroke-width: 0.8"/>
     </g>
     <g id="line2d_4">
      <g>
       <use xlink:href="#mc44a615b66" x="120.805239" y="252" style="stroke: #000000; stroke-width: 0.8"/>
      </g>
     </g>
     <g id="text_2">
      <!-- 500 -->
      <g transform="translate(111.261489 266.598437)scale(0.1 -0.1)">
       <defs>
        <path id="DejaVuSans-35" d="M 691 4666 
L 3169 4666 
L 3169 4134 
L 1269 4134 
L 1269 2991 
Q 1406 3038 1543 3061 
Q 1681 3084 1819 3084 
Q 2600 3084 3056 2656 
Q 3513 2228 3513 1497 
Q 3513 744 3044 326 
Q 2575 -91 1722 -91 
Q 1428 -91 1123 -41 
Q 819 9 494 109 
L 494 744 
Q 775 591 1075 516 
Q 1375 441 1709 441 
Q 2250 441 2565 725 
Q 2881 1009 2881 1497 
Q 2881 1984 2565 2268 
Q 2250 2553 1709 2553 
Q 1456 2553 1204 2497 
Q 953 2441 691 2322 
L 691 4666 
z
" transform="scale(0.015625)"/>
       </defs>
       <use xlink:href="#DejaVuSans-35"/>
       <use xlink:href="#DejaVuSans-30" x="63.623047"/>
       <use xlink:href="#DejaVuSans-30" x="127.246094"/>
      </g>
     </g>
    </g>
    <g id="xtick_3">
     <g id="line2d_5">
      <path d="M 172.392296 252 
L 172.392296 34.56 
" clip-path="url(#pce8b3742a8)" style="fill: none; stroke-dasharray: 2.96,1.28; stroke-dashoffset: 0; stroke: #b0b0b0; stroke-width: 0.8"/>
     </g>
     <g id="line2d_6">
      <g>
       <use xlink:href="#mc44a615b66" x="172.392296" y="252" style="stroke: #000000; stroke-width: 0.8"/>
      </g>
     </g>
     <g id="text_3">
      <!-- 1000 -->
      <g transform="translate(159.667296 266.598437)scale(0.1 -0.1)">
       <defs>
        <path id="DejaVuSans-31" d="M 794 531 
L 1825 531 
L 1825 4091 
L 703 3866 
L 703 4441 
L 1819 4666 
L 2450 4666 
L 2450 531 
L 3481 531 
L 3481 0 
L 794 0 
L 794 531 
z
" transform="scale(0.015625)"/>
       </defs>
       <use xlink:href="#DejaVuSans-31"/>
       <use xlink:href="#DejaVuSans-30" x="63.623047"/>
       <use xlink:href="#DejaVuSans-30" x="127.246094"/>
       <use xlink:href="#DejaVuSans-30" x="190.869141"/>
      </g>
     </g>
    </g>
    <g id="xtick_4">
     <g id="line2d_7">
      <path d="M 223.979353 252 
L 223.979353 34.56 
" clip-path="url(#pce8b3742a8)" style="fill: none; stroke-dasharray: 2.96,1.28; stroke-dashoffset: 0; stroke: #b0b0b0; stroke-width: 0.8"/>
     </g>
     <g id="line2d_8">
      <g>
       <use xlink:href="#mc44a615b66" x="223.979353" y="252" style="stroke: #000000; stroke-width: 0.8"/>
      </g>
     </g>
     <g id="text_4">
      <!-- 1500 -->
      <g transform="translate(211.254353 266.598437)scale(0.1 -0.1)">
       <use xlink:href="#DejaVuSans-31"/>
       <use xlink:href="#DejaVuSans-35" x="63.623047"/>
       <use xlink:href="#DejaVuSans-30" x="127.246094"/>
       <use xlink:href="#DejaVuSans-30" x="190.869141"/>
      </g>
     </g>
    </g>
    <g id="xtick_5">
     <g id="line2d_9">
      <path d="M 275.56641 252 
L 275.56641 34.56 
" clip-path="url(#pce8b3742a8)" style="fill: none; stroke-dasharray: 2.96,1.28; stroke-dashoffset: 0; stroke: #b0b0b0; stroke-width: 0.8"/>
     </g>
     <g id="line2d_10">
      <g>
       <use xlink:href="#mc44a615b66" x="275.56641" y="252" style="stroke: #000000; stroke-width: 0.8"/>
      </g>
     </g>
     <g id="text_5">
      <!-- 2000 -->
      <g transform="translate(262.84141 266.598437)scale(0.1 -0.1)">
       <defs>
        <path id="DejaVuSans-32" d="M 1228 531 
L 3431 531 
L 3431 0 
L 469 0 
L 469 531 
Q 828 903 1448 1529 
Q 2069 2156 2228 2338 
Q 2531 2678 2651 2914 
Q 2772 3150 2772 3378 
Q 2772 3750 2511 3984 
Q 2250 4219 1831 4219 
Q 1534 4219 1204 4116 
Q 875 4013 500 3803 
L 500 4441 
Q 881 4594 1212 4672 
Q 1544 4750 1819 4750 
Q 2544 4750 2975 4387 
Q 3406 4025 3406 3419 
Q 3406 3131 3298 2873 
Q 3191 2616 2906 2266 
Q 2828 2175 2409 1742 
Q 1991 1309 1228 531 
z
" transform="scale(0.015625)"/>
       </defs>
       <use xlink:href="#DejaVuSans-32"/>
       <use xlink:href="#DejaVuSans-30" x="63.623047"/>
       <use xlink:href="#DejaVuSans-30" x="127.246094"/>
       <use xlink:href="#DejaVuSans-30" x="190.869141"/>
      </g>
     </g>
    </g>
    <g id="xtick_6">
     <g id="line2d_11">
      <path d="M 327.153467 252 
L 327.153467 34.56 
" clip-path="url(#pce8b3742a8)" style="fill: none; stroke-dasharray: 2.96,1.28; stroke-dashoffset: 0; stroke: #b0b0b0; stroke-width: 0.8"/>
     </g>
     <g id="line2d_12">
      <g>
       <use xlink:href="#mc44a615b66" x="327.153467" y="252" style="stroke: #000000; stroke-width: 0.8"/>
      </g>
     </g>
     <g id="text_6">
      <!-- 2500 -->
      <g transform="translate(314.428467 266.598437)scale(0.1 -0.1)">
       <use xlink:href="#DejaVuSans-32"/>
       <use xlink:href="#DejaVuSans-35" x="63.623047"/>
       <use xlink:href="#DejaVuSans-30" x="127.246094"/>
       <use xlink:href="#DejaVuSans-30" x="190.869141"/>
      </g>
     </g>
    </g>
    <g id="xtick_7">
     <g id="line2d_13">
      <path d="M 378.740524 252 
L 378.740524 34.56 
" clip-path="url(#pce8b3742a8)" style="fill: none; stroke-dasharray: 2.96,1.28; stroke-dashoffset: 0; stroke: #b0b0b0; stroke-width: 0.8"/>
     </g>
     <g id="line2d_14">
      <g>
       <use xlink:href="#mc44a615b66" x="378.740524" y="252" style="stroke: #000000; stroke-width: 0.8"/>
      </g>
     </g>
     <g id="text_7">
      <!-- 3000 -->
      <g transform="translate(366.015524 266.598437)scale(0.1 -0.1)">
       <defs>
        <path id="DejaVuSans-33" d="M 2597 2516 
Q 3050 2419 3304 2112 
Q 3559 1806 3559 1356 
Q 3559 666 3084 287 
Q 2609 -91 1734 -91 
Q 1441 -91 1130 -33 
Q 819 25 488 141 
L 488 750 
Q 750 597 1062 519 
Q 1375 441 1716 441 
Q 2309 441 2620 675 
Q 2931 909 2931 1356 
Q 2931 1769 2642 2001 
Q 2353 2234 1838 2234 
L 1294 2234 
L 1294 2753 
L 1863 2753 
Q 2328 2753 2575 2939 
Q 2822 3125 2822 3475 
Q 2822 3834 2567 4026 
Q 2313 4219 1838 4219 
Q 1578 4219 1281 4162 
Q 984 4106 628 3988 
L 628 4550 
Q 988 4650 1302 4700 
Q 1616 4750 1894 4750 
Q 2613 4750 3031 4423 
Q 3450 4097 3450 3541 
Q 3450 3153 3228 2886 
Q 3006 2619 2597 2516 
z
" transform="scale(0.015625)"/>
       </defs>
       <use xlink:href="#DejaVuSans-33"/>
       <use xlink:href="#DejaVuSans-30" x="63.623047"/>
       <use xlink:href="#DejaVuSans-30" x="127.246094"/>
       <use xlink:href="#DejaVuSans-30" x="190.869141"/>
      </g>
     </g>
    </g>
    <g id="text_8">
     <!-- Steps -->
     <g transform="translate(207.410156 280.276563)scale(0.1 -0.1)">
      <defs>
       <path id="DejaVuSans-53" d="M 3425 4513 
L 3425 3897 
Q 3066 4069 2747 4153 
Q 2428 4238 2131 4238 
Q 1616 4238 1336 4038 
Q 1056 3838 1056 3469 
Q 1056 3159 1242 3001 
Q 1428 2844 1947 2747 
L 2328 2669 
Q 3034 2534 3370 2195 
Q 3706 1856 3706 1288 
Q 3706 609 3251 259 
Q 2797 -91 1919 -91 
Q 1588 -91 1214 -16 
Q 841 59 441 206 
L 441 856 
Q 825 641 1194 531 
Q 1563 422 1919 422 
Q 2459 422 2753 634 
Q 3047 847 3047 1241 
Q 3047 1584 2836 1778 
Q 2625 1972 2144 2069 
L 1759 2144 
Q 1053 2284 737 2584 
Q 422 2884 422 3419 
Q 422 4038 858 4394 
Q 1294 4750 2059 4750 
Q 2388 4750 2728 4690 
Q 3069 4631 3425 4513 
z
" transform="scale(0.015625)"/>
       <path id="DejaVuSans-74" d="M 1172 4494 
L 1172 3500 
L 2356 3500 
L 2356 3053 
L 1172 3053 
L 1172 1153 
Q 1172 725 1289 603 
Q 1406 481 1766 481 
L 2356 481 
L 2356 0 
L 1766 0 
Q 1100 0 847 248 
Q 594 497 594 1153 
L 594 3053 
L 172 3053 
L 172 3500 
L 594 3500 
L 594 4494 
L 1172 4494 
z
" transform="scale(0.015625)"/>
       <path id="DejaVuSans-65" d="M 3597 1894 
L 3597 1613 
L 953 1613 
Q 991 1019 1311 708 
Q 1631 397 2203 397 
Q 2534 397 2845 478 
Q 3156 559 3463 722 
L 3463 178 
Q 3153 47 2828 -22 
Q 2503 -91 2169 -91 
Q 1331 -91 842 396 
Q 353 884 353 1716 
Q 353 2575 817 3079 
Q 1281 3584 2069 3584 
Q 2775 3584 3186 3129 
Q 3597 2675 3597 1894 
z
M 3022 2063 
Q 3016 2534 2758 2815 
Q 2500 3097 2075 3097 
Q 1594 3097 1305 2825 
Q 1016 2553 972 2059 
L 3022 2063 
z
" transform="scale(0.015625)"/>
       <path id="DejaVuSans-70" d="M 1159 525 
L 1159 -1331 
L 581 -1331 
L 581 3500 
L 1159 3500 
L 1159 2969 
Q 1341 3281 1617 3432 
Q 1894 3584 2278 3584 
Q 2916 3584 3314 3078 
Q 3713 2572 3713 1747 
Q 3713 922 3314 415 
Q 2916 -91 2278 -91 
Q 1894 -91 1617 61 
Q 1341 213 1159 525 
z
M 3116 1747 
Q 3116 2381 2855 2742 
Q 2594 3103 2138 3103 
Q 1681 3103 1420 2742 
Q 1159 2381 1159 1747 
Q 1159 1113 1420 752 
Q 1681 391 2138 391 
Q 2594 391 2855 752 
Q 3116 1113 3116 1747 
z
" transform="scale(0.015625)"/>
       <path id="DejaVuSans-73" d="M 2834 3397 
L 2834 2853 
Q 2591 2978 2328 3040 
Q 2066 3103 1784 3103 
Q 1356 3103 1142 2972 
Q 928 2841 928 2578 
Q 928 2378 1081 2264 
Q 1234 2150 1697 2047 
L 1894 2003 
Q 2506 1872 2764 1633 
Q 3022 1394 3022 966 
Q 3022 478 2636 193 
Q 2250 -91 1575 -91 
Q 1294 -91 989 -36 
Q 684 19 347 128 
L 347 722 
Q 666 556 975 473 
Q 1284 391 1588 391 
Q 1994 391 2212 530 
Q 2431 669 2431 922 
Q 2431 1156 2273 1281 
Q 2116 1406 1581 1522 
L 1381 1569 
Q 847 1681 609 1914 
Q 372 2147 372 2553 
Q 372 3047 722 3315 
Q 1072 3584 1716 3584 
Q 2034 3584 2315 3537 
Q 2597 3491 2834 3397 
z
" transform="scale(0.015625)"/>
      </defs>
      <use xlink:href="#DejaVuSans-53"/>
      <use xlink:href="#DejaVuSans-74" x="63.476562"/>
      <use xlink:href="#DejaVuSans-65" x="102.685547"/>
      <use xlink:href="#DejaVuSans-70" x="164.208984"/>
      <use xlink:href="#DejaVuSans-73" x="227.685547"/>
     </g>
    </g>
   </g>
   <g id="matplotlib.axis_2">
    <g id="ytick_1">
     <g id="line2d_15">
      <path d="M 54 243.636923 
L 388.8 243.636923 
" clip-path="url(#pce8b3742a8)" style="fill: none; stroke-dasharray: 2.96,1.28; stroke-dashoffset: 0; stroke: #b0b0b0; stroke-width: 0.8"/>
     </g>
     <g id="line2d_16">
      <defs>
       <path id="mc161db6147" d="M 0 0 
L -3.5 0 
" style="stroke: #000000; stroke-width: 0.8"/>
      </defs>
      <g>
       <use xlink:href="#mc161db6147" x="54" y="243.636923" style="stroke: #000000; stroke-width: 0.8"/>
      </g>
     </g>
     <g id="text_9">
      <!-- −12 -->
      <g transform="translate(25.895312 247.436142)scale(0.1 -0.1)">
       <defs>
        <path id="DejaVuSans-2212" d="M 678 2272 
L 4684 2272 
L 4684 1741 
L 678 1741 
L 678 2272 
z
" transform="scale(0.015625)"/>
       </defs>
       <use xlink:href="#DejaVuSans-2212"/>
       <use xlink:href="#DejaVuSans-31" x="83.789062"/>
       <use xlink:href="#DejaVuSans-32" x="147.412109"/>
      </g>
     </g>
    </g>
    <g id="ytick_2">
     <g id="line2d_17">
      <path d="M 54 210.184615 
L 388.8 210.184615 
" clip-path="url(#pce8b3742a8)" style="fill: none; stroke-dasharray: 2.96,1.28; stroke-dashoffset: 0; stroke: #b0b0b0; stroke-width: 0.8"/>
     </g>
     <g id="line2d_18">
      <g>
       <use xlink:href="#mc161db6147" x="54" y="210.184615" style="stroke: #000000; stroke-width: 0.8"/>
      </g>
     </g>
     <g id="text_10">
      <!-- −10 -->
      <g transform="translate(25.895312 213.983834)scale(0.1 -0.1)">
       <use xlink:href="#DejaVuSans-2212"/>
       <use xlink:href="#DejaVuSans-31" x="83.789062"/>
       <use xlink:href="#DejaVuSans-30" x="147.412109"/>
      </g>
     </g>
    </g>
    <g id="ytick_3">
     <g id="line2d_19">
      <path d="M 54 176.732308 
L 388.8 176.732308 
" clip-path="url(#pce8b3742a8)" style="fill: none; stroke-dasharray: 2.96,1.28; stroke-dashoffset: 0; stroke: #b0b0b0; stroke-width: 0.8"/>
     </g>
     <g id="line2d_20">
      <g>
       <use xlink:href="#mc161db6147" x="54" y="176.732308" style="stroke: #000000; stroke-width: 0.8"/>
      </g>
     </g>
     <g id="text_11">
      <!-- −8 -->
      <g transform="translate(32.257812 180.531526)scale(0.1 -0.1)">
       <defs>
        <path id="DejaVuSans-38" d="M 2034 2216 
Q 1584 2216 1326 1975 
Q 1069 1734 1069 1313 
Q 1069 891 1326 650 
Q 1584 409 2034 409 
Q 2484 409 2743 651 
Q 3003 894 3003 1313 
Q 3003 1734 2745 1975 
Q 2488 2216 2034 2216 
z
M 1403 2484 
Q 997 2584 770 2862 
Q 544 3141 544 3541 
Q 544 4100 942 4425 
Q 1341 4750 2034 4750 
Q 2731 4750 3128 4425 
Q 3525 4100 3525 3541 
Q 3525 3141 3298 2862 
Q 3072 2584 2669 2484 
Q 3125 2378 3379 2068 
Q 3634 1759 3634 1313 
Q 3634 634 3220 271 
Q 2806 -91 2034 -91 
Q 1263 -91 848 271 
Q 434 634 434 1313 
Q 434 1759 690 2068 
Q 947 2378 1403 2484 
z
M 1172 3481 
Q 1172 3119 1398 2916 
Q 1625 2713 2034 2713 
Q 2441 2713 2670 2916 
Q 2900 3119 2900 3481 
Q 2900 3844 2670 4047 
Q 2441 4250 2034 4250 
Q 1625 4250 1398 4047 
Q 1172 3844 1172 3481 
z
" transform="scale(0.015625)"/>
       </defs>
       <use xlink:href="#DejaVuSans-2212"/>
       <use xlink:href="#DejaVuSans-38" x="83.789062"/>
      </g>
     </g>
    </g>
    <g id="ytick_4">
     <g id="line2d_21">
      <path d="M 54 143.28 
L 388.8 143.28 
" clip-path="url(#pce8b3742a8)" style="fill: none; stroke-dasharray: 2.96,1.28; stroke-dashoffset: 0; stroke: #b0b0b0; stroke-width: 0.8"/>
     </g>
     <g id="line2d_22">
      <g>
       <use xlink:href="#mc161db6147" x="54" y="143.28" style="stroke: #000000; stroke-width: 0.8"/>
      </g>
     </g>
     <g id="text_12">
      <!-- −6 -->
      <g transform="translate(32.257812 147.079219)scale(0.1 -0.1)">
       <defs>
        <path id="DejaVuSans-36" d="M 2113 2584 
Q 1688 2584 1439 2293 
Q 1191 2003 1191 1497 
Q 1191 994 1439 701 
Q 1688 409 2113 409 
Q 2538 409 2786 701 
Q 3034 994 3034 1497 
Q 3034 2003 2786 2293 
Q 2538 2584 2113 2584 
z
M 3366 4563 
L 3366 3988 
Q 3128 4100 2886 4159 
Q 2644 4219 2406 4219 
Q 1781 4219 1451 3797 
Q 1122 3375 1075 2522 
Q 1259 2794 1537 2939 
Q 1816 3084 2150 3084 
Q 2853 3084 3261 2657 
Q 3669 2231 3669 1497 
Q 3669 778 3244 343 
Q 2819 -91 2113 -91 
Q 1303 -91 875 529 
Q 447 1150 447 2328 
Q 447 3434 972 4092 
Q 1497 4750 2381 4750 
Q 2619 4750 2861 4703 
Q 3103 4656 3366 4563 
z
" transform="scale(0.015625)"/>
       </defs>
       <use xlink:href="#DejaVuSans-2212"/>
       <use xlink:href="#DejaVuSans-36" x="83.789062"/>
      </g>
     </g>
    </g>
    <g id="ytick_5">
     <g id="line2d_23">
      <path d="M 54 109.827692 
L 388.8 109.827692 
" clip-path="url(#pce8b3742a8)" style="fill: none; stroke-dasharray: 2.96,1.28; stroke-dashoffset: 0; stroke: #b0b0b0; stroke-width: 0.8"/>
     </g>
     <g id="line2d_24">
      <g>
       <use xlink:href="#mc161db6147" x="54" y="109.827692" style="stroke: #000000; stroke-width: 0.8"/>
      </g>
     </g>
     <g id="text_13">
      <!-- −4 -->
      <g transform="translate(32.257812 113.626911)scale(0.1 -0.1)">
       <defs>
        <path id="DejaVuSans-34" d="M 2419 4116 
L 825 1625 
L 2419 1625 
L 2419 4116 
z
M 2253 4666 
L 3047 4666 
L 3047 1625 
L 3713 1625 
L 3713 1100 
L 3047 1100 
L 3047 0 
L 2419 0 
L 2419 1100 
L 313 1100 
L 313 1709 
L 2253 4666 
z
" transform="scale(0.015625)"/>
       </defs>
       <use xlink:href="#DejaVuSans-2212"/>
       <use xlink:href="#DejaVuSans-34" x="83.789062"/>
      </g>
     </g>
    </g>
    <g id="ytick_6">
     <g id="line2d_25">
      <path d="M 54 76.375385 
L 388.8 76.375385 
" clip-path="url(#pce8b3742a8)" style="fill: none; stroke-dasharray: 2.96,1.28; stroke-dashoffset: 0; stroke: #b0b0b0; stroke-width: 0.8"/>
     </g>
     <g id="line2d_26">
      <g>
       <use xlink:href="#mc161db6147" x="54" y="76.375385" style="stroke: #000000; stroke-width: 0.8"/>
      </g>
     </g>
     <g id="text_14">
      <!-- −2 -->
      <g transform="translate(32.257812 80.174603)scale(0.1 -0.1)">
       <use xlink:href="#DejaVuSans-2212"/>
       <use xlink:href="#DejaVuSans-32" x="83.789062"/>
      </g>
     </g>
    </g>
    <g id="ytick_7">
     <g id="line2d_27">
      <path d="M 54 42.923077 
L 388.8 42.923077 
" clip-path="url(#pce8b3742a8)" style="fill: none; stroke-dasharray: 2.96,1.28; stroke-dashoffset: 0; stroke: #b0b0b0; stroke-width: 0.8"/>
     </g>
     <g id="line2d_28">
      <g>
       <use xlink:href="#mc161db6147" x="54" y="42.923077" style="stroke: #000000; stroke-width: 0.8"/>
      </g>
     </g>
     <g id="text_15">
      <!-- 0 -->
      <g transform="translate(40.6375 46.722296)scale(0.1 -0.1)">
       <use xlink:href="#DejaVuSans-30"/>
      </g>
     </g>
    </g>
    <g id="text_16">
     <!-- Policy value error -->
     <g transform="translate(19.815625 186.597969)rotate(-90)scale(0.1 -0.1)">
      <defs>
       <path id="DejaVuSans-50" d="M 1259 4147 
L 1259 2394 
L 2053 2394 
Q 2494 2394 2734 2622 
Q 2975 2850 2975 3272 
Q 2975 3691 2734 3919 
Q 2494 4147 2053 4147 
L 1259 4147 
z
M 628 4666 
L 2053 4666 
Q 2838 4666 3239 4311 
Q 3641 3956 3641 3272 
Q 3641 2581 3239 2228 
Q 2838 1875 2053 1875 
L 1259 1875 
L 1259 0 
L 628 0 
L 628 4666 
z
" transform="scale(0.015625)"/>
       <path id="DejaVuSans-6f" d="M 1959 3097 
Q 1497 3097 1228 2736 
Q 959 2375 959 1747 
Q 959 1119 1226 758 
Q 1494 397 1959 397 
Q 2419 397 2687 759 
Q 2956 1122 2956 1747 
Q 2956 2369 2687 2733 
Q 2419 3097 1959 3097 
z
M 1959 3584 
Q 2709 3584 3137 3096 
Q 3566 2609 3566 1747 
Q 3566 888 3137 398 
Q 2709 -91 1959 -91 
Q 1206 -91 779 398 
Q 353 888 353 1747 
Q 353 2609 779 3096 
Q 1206 3584 1959 3584 
z
" transform="scale(0.015625)"/>
       <path id="DejaVuSans-6c" d="M 603 4863 
L 1178 4863 
L 1178 0 
L 603 0 
L 603 4863 
z
" transform="scale(0.015625)"/>
       <path id="DejaVuSans-69" d="M 603 3500 
L 1178 3500 
L 1178 0 
L 603 0 
L 603 3500 
z
M 603 4863 
L 1178 4863 
L 1178 4134 
L 603 4134 
L 603 4863 
z
" transform="scale(0.015625)"/>
       <path id="DejaVuSans-63" d="M 3122 3366 
L 3122 2828 
Q 2878 2963 2633 3030 
Q 2388 3097 2138 3097 
Q 1578 3097 1268 2742 
Q 959 2388 959 1747 
Q 959 1106 1268 751 
Q 1578 397 2138 397 
Q 2388 397 2633 464 
Q 2878 531 3122 666 
L 3122 134 
Q 2881 22 2623 -34 
Q 2366 -91 2075 -91 
Q 1284 -91 818 406 
Q 353 903 353 1747 
Q 353 2603 823 3093 
Q 1294 3584 2113 3584 
Q 2378 3584 2631 3529 
Q 2884 3475 3122 3366 
z
" transform="scale(0.015625)"/>
       <path id="DejaVuSans-79" d="M 2059 -325 
Q 1816 -950 1584 -1140 
Q 1353 -1331 966 -1331 
L 506 -1331 
L 506 -850 
L 844 -850 
Q 1081 -850 1212 -737 
Q 1344 -625 1503 -206 
L 1606 56 
L 191 3500 
L 800 3500 
L 1894 763 
L 2988 3500 
L 3597 3500 
L 2059 -325 
z
" transform="scale(0.015625)"/>
       <path id="DejaVuSans-20" transform="scale(0.015625)"/>
       <path id="DejaVuSans-76" d="M 191 3500 
L 800 3500 
L 1894 563 
L 2988 3500 
L 3597 3500 
L 2284 0 
L 1503 0 
L 191 3500 
z
" transform="scale(0.015625)"/>
       <path id="DejaVuSans-61" d="M 2194 1759 
Q 1497 1759 1228 1600 
Q 959 1441 959 1056 
Q 959 750 1161 570 
Q 1363 391 1709 391 
Q 2188 391 2477 730 
Q 2766 1069 2766 1631 
L 2766 1759 
L 2194 1759 
z
M 3341 1997 
L 3341 0 
L 2766 0 
L 2766 531 
Q 2569 213 2275 61 
Q 1981 -91 1556 -91 
Q 1019 -91 701 211 
Q 384 513 384 1019 
Q 384 1609 779 1909 
Q 1175 2209 1959 2209 
L 2766 2209 
L 2766 2266 
Q 2766 2663 2505 2880 
Q 2244 3097 1772 3097 
Q 1472 3097 1187 3025 
Q 903 2953 641 2809 
L 641 3341 
Q 956 3463 1253 3523 
Q 1550 3584 1831 3584 
Q 2591 3584 2966 3190 
Q 3341 2797 3341 1997 
z
" transform="scale(0.015625)"/>
       <path id="DejaVuSans-75" d="M 544 1381 
L 544 3500 
L 1119 3500 
L 1119 1403 
Q 1119 906 1312 657 
Q 1506 409 1894 409 
Q 2359 409 2629 706 
Q 2900 1003 2900 1516 
L 2900 3500 
L 3475 3500 
L 3475 0 
L 2900 0 
L 2900 538 
Q 2691 219 2414 64 
Q 2138 -91 1772 -91 
Q 1169 -91 856 284 
Q 544 659 544 1381 
z
M 1991 3584 
L 1991 3584 
z
" transform="scale(0.015625)"/>
       <path id="DejaVuSans-72" d="M 2631 2963 
Q 2534 3019 2420 3045 
Q 2306 3072 2169 3072 
Q 1681 3072 1420 2755 
Q 1159 2438 1159 1844 
L 1159 0 
L 581 0 
L 581 3500 
L 1159 3500 
L 1159 2956 
Q 1341 3275 1631 3429 
Q 1922 3584 2338 3584 
Q 2397 3584 2469 3576 
Q 2541 3569 2628 3553 
L 2631 2963 
z
" transform="scale(0.015625)"/>
      </defs>
      <use xlink:href="#DejaVuSans-50"/>
      <use xlink:href="#DejaVuSans-6f" x="56.677734"/>
      <use xlink:href="#DejaVuSans-6c" x="117.859375"/>
      <use xlink:href="#DejaVuSans-69" x="145.642578"/>
      <use xlink:href="#DejaVuSans-63" x="173.425781"/>
      <use xlink:href="#DejaVuSans-79" x="228.40625"/>
      <use xlink:href="#DejaVuSans-20" x="287.585938"/>
      <use xlink:href="#DejaVuSans-76" x="319.373047"/>
      <use xlink:href="#DejaVuSans-61" x="378.552734"/>
      <use xlink:href="#DejaVuSans-6c" x="439.832031"/>
      <use xlink:href="#DejaVuSans-75" x="467.615234"/>
      <use xlink:href="#DejaVuSans-65" x="530.994141"/>
      <use xlink:href="#DejaVuSans-20" x="592.517578"/>
      <use xlink:href="#DejaVuSans-65" x="624.304688"/>
      <use xlink:href="#DejaVuSans-72" x="685.828125"/>
      <use xlink:href="#DejaVuSans-72" x="725.191406"/>
      <use xlink:href="#DejaVuSans-6f" x="764.054688"/>
      <use xlink:href="#DejaVuSans-72" x="825.236328"/>
     </g>
    </g>
   </g>
   <g id="line2d_29">
    <path d="M 69.218182 248.731721 
L 74.376888 251.522882 
L 79.535593 255.405563 
L 84.694299 254.218504 
L 89.853005 256.072205 
L 95.01171 254.904836 
L 100.170416 254.058616 
L 105.329122 254.438437 
L 110.487827 251.09485 
L 115.646533 249.735745 
L 120.805239 253.366779 
L 125.963945 254.059108 
L 131.12265 254.497878 
L 136.281356 253.821847 
L 141.440062 253.821848 
L 146.598767 252.985888 
L 151.757473 252.985888 
L 156.916179 255.141141 
L 162.074884 254.826314 
L 167.23359 253.658182 
L 172.392296 253.28694 
L 177.551002 253.475077 
L 182.709707 253.318813 
L 187.868413 255.01592 
L 193.027119 253.600686 
L 198.185824 256.232873 
L 203.34453 259.758437 
L 208.503236 259.758437 
L 213.661941 258.680748 
L 218.820647 258.684211 
L 223.979353 256.428957 
L 229.138059 256.186646 
L 234.296764 260.268747 
L 239.45547 252.523309 
L 244.614176 256.483111 
L 249.772881 257.38369 
L 254.931587 256.351783 
L 260.090293 259.487871 
L 265.248998 256.960692 
L 270.407704 266.339097 
L 275.56641 266.241925 
L 280.725116 270.671871 
L 285.883821 278.922101 
L 291.042527 257.251766 
L 296.201233 257.437653 
L 301.359938 266.338142 
L 306.518644 259.411173 
L 311.67735 254.711732 
L 316.836055 255.914973 
L 321.994761 270.612326 
L 327.153467 267.677131 
L 332.312173 253.125178 
L 337.470878 255.041147 
L 342.629584 258.062883 
L 347.78829 256.509368 
L 352.946995 259.997828 
L 358.105701 250.032243 
L 363.264407 253.455811 
L 368.423112 247.310136 
L 373.581818 233.789968 
" clip-path="url(#pce8b3742a8)" style="fill: none; stroke: #9d02d7; stroke-width: 1.5; stroke-linecap: square"/>
    <defs>
     <path id="mefdce20be1" d="M 0 -2 
L -2 2 
L 2 2 
z
" style="stroke: #9d02d7; stroke-linejoin: miter"/>
    </defs>
    <g clip-path="url(#pce8b3742a8)">
     <use xlink:href="#mefdce20be1" x="69.218182" y="248.731721" style="fill: #9d02d7; stroke: #9d02d7; stroke-linejoin: miter"/>
     <use xlink:href="#mefdce20be1" x="74.376888" y="251.522882" style="fill: #9d02d7; stroke: #9d02d7; stroke-linejoin: miter"/>
     <use xlink:href="#mefdce20be1" x="79.535593" y="255.405563" style="fill: #9d02d7; stroke: #9d02d7; stroke-linejoin: miter"/>
     <use xlink:href="#mefdce20be1" x="84.694299" y="254.218504" style="fill: #9d02d7; stroke: #9d02d7; stroke-linejoin: miter"/>
     <use xlink:href="#mefdce20be1" x="89.853005" y="256.072205" style="fill: #9d02d7; stroke: #9d02d7; stroke-linejoin: miter"/>
     <use xlink:href="#mefdce20be1" x="95.01171" y="254.904836" style="fill: #9d02d7; stroke: #9d02d7; stroke-linejoin: miter"/>
     <use xlink:href="#mefdce20be1" x="100.170416" y="254.058616" style="fill: #9d02d7; stroke: #9d02d7; stroke-linejoin: miter"/>
     <use xlink:href="#mefdce20be1" x="105.329122" y="254.438437" style="fill: #9d02d7; stroke: #9d02d7; stroke-linejoin: miter"/>
     <use xlink:href="#mefdce20be1" x="110.487827" y="251.09485" style="fill: #9d02d7; stroke: #9d02d7; stroke-linejoin: miter"/>
     <use xlink:href="#mefdce20be1" x="115.646533" y="249.735745" style="fill: #9d02d7; stroke: #9d02d7; stroke-linejoin: miter"/>
     <use xlink:href="#mefdce20be1" x="120.805239" y="253.366779" style="fill: #9d02d7; stroke: #9d02d7; stroke-linejoin: miter"/>
     <use xlink:href="#mefdce20be1" x="125.963945" y="254.059108" style="fill: #9d02d7; stroke: #9d02d7; stroke-linejoin: miter"/>
     <use xlink:href="#mefdce20be1" x="131.12265" y="254.497878" style="fill: #9d02d7; stroke: #9d02d7; stroke-linejoin: miter"/>
     <use xlink:href="#mefdce20be1" x="136.281356" y="253.821847" style="fill: #9d02d7; stroke: #9d02d7; stroke-linejoin: miter"/>
     <use xlink:href="#mefdce20be1" x="141.440062" y="253.821848" style="fill: #9d02d7; stroke: #9d02d7; stroke-linejoin: miter"/>
     <use xlink:href="#mefdce20be1" x="146.598767" y="252.985888" style="fill: #9d02d7; stroke: #9d02d7; stroke-linejoin: miter"/>
     <use xlink:href="#mefdce20be1" x="151.757473" y="252.985888" style="fill: #9d02d7; stroke: #9d02d7; stroke-linejoin: miter"/>
     <use xlink:href="#mefdce20be1" x="156.916179" y="255.141141" style="fill: #9d02d7; stroke: #9d02d7; stroke-linejoin: miter"/>
     <use xlink:href="#mefdce20be1" x="162.074884" y="254.826314" style="fill: #9d02d7; stroke: #9d02d7; stroke-linejoin: miter"/>
     <use xlink:href="#mefdce20be1" x="167.23359" y="253.658182" style="fill: #9d02d7; stroke: #9d02d7; stroke-linejoin: miter"/>
     <use xlink:href="#mefdce20be1" x="172.392296" y="253.28694" style="fill: #9d02d7; stroke: #9d02d7; stroke-linejoin: miter"/>
     <use xlink:href="#mefdce20be1" x="177.551002" y="253.475077" style="fill: #9d02d7; stroke: #9d02d7; stroke-linejoin: miter"/>
     <use xlink:href="#mefdce20be1" x="182.709707" y="253.318813" style="fill: #9d02d7; stroke: #9d02d7; stroke-linejoin: miter"/>
     <use xlink:href="#mefdce20be1" x="187.868413" y="255.01592" style="fill: #9d02d7; stroke: #9d02d7; stroke-linejoin: miter"/>
     <use xlink:href="#mefdce20be1" x="193.027119" y="253.600686" style="fill: #9d02d7; stroke: #9d02d7; stroke-linejoin: miter"/>
     <use xlink:href="#mefdce20be1" x="198.185824" y="256.232873" style="fill: #9d02d7; stroke: #9d02d7; stroke-linejoin: miter"/>
     <use xlink:href="#mefdce20be1" x="203.34453" y="259.758437" style="fill: #9d02d7; stroke: #9d02d7; stroke-linejoin: miter"/>
     <use xlink:href="#mefdce20be1" x="208.503236" y="259.758437" style="fill: #9d02d7; stroke: #9d02d7; stroke-linejoin: miter"/>
     <use xlink:href="#mefdce20be1" x="213.661941" y="258.680748" style="fill: #9d02d7; stroke: #9d02d7; stroke-linejoin: miter"/>
     <use xlink:href="#mefdce20be1" x="218.820647" y="258.684211" style="fill: #9d02d7; stroke: #9d02d7; stroke-linejoin: miter"/>
     <use xlink:href="#mefdce20be1" x="223.979353" y="256.428957" style="fill: #9d02d7; stroke: #9d02d7; stroke-linejoin: miter"/>
     <use xlink:href="#mefdce20be1" x="229.138059" y="256.186646" style="fill: #9d02d7; stroke: #9d02d7; stroke-linejoin: miter"/>
     <use xlink:href="#mefdce20be1" x="234.296764" y="260.268747" style="fill: #9d02d7; stroke: #9d02d7; stroke-linejoin: miter"/>
     <use xlink:href="#mefdce20be1" x="239.45547" y="252.523309" style="fill: #9d02d7; stroke: #9d02d7; stroke-linejoin: miter"/>
     <use xlink:href="#mefdce20be1" x="244.614176" y="256.483111" style="fill: #9d02d7; stroke: #9d02d7; stroke-linejoin: miter"/>
     <use xlink:href="#mefdce20be1" x="249.772881" y="257.38369" style="fill: #9d02d7; stroke: #9d02d7; stroke-linejoin: miter"/>
     <use xlink:href="#mefdce20be1" x="254.931587" y="256.351783" style="fill: #9d02d7; stroke: #9d02d7; stroke-linejoin: miter"/>
     <use xlink:href="#mefdce20be1" x="260.090293" y="259.487871" style="fill: #9d02d7; stroke: #9d02d7; stroke-linejoin: miter"/>
     <use xlink:href="#mefdce20be1" x="265.248998" y="256.960692" style="fill: #9d02d7; stroke: #9d02d7; stroke-linejoin: miter"/>
     <use xlink:href="#mefdce20be1" x="270.407704" y="266.339097" style="fill: #9d02d7; stroke: #9d02d7; stroke-linejoin: miter"/>
     <use xlink:href="#mefdce20be1" x="275.56641" y="266.241925" style="fill: #9d02d7; stroke: #9d02d7; stroke-linejoin: miter"/>
     <use xlink:href="#mefdce20be1" x="280.725116" y="270.671871" style="fill: #9d02d7; stroke: #9d02d7; stroke-linejoin: miter"/>
     <use xlink:href="#mefdce20be1" x="285.883821" y="278.922101" style="fill: #9d02d7; stroke: #9d02d7; stroke-linejoin: miter"/>
     <use xlink:href="#mefdce20be1" x="291.042527" y="257.251766" style="fill: #9d02d7; stroke: #9d02d7; stroke-linejoin: miter"/>
     <use xlink:href="#mefdce20be1" x="296.201233" y="257.437653" style="fill: #9d02d7; stroke: #9d02d7; stroke-linejoin: miter"/>
     <use xlink:href="#mefdce20be1" x="301.359938" y="266.338142" style="fill: #9d02d7; stroke: #9d02d7; stroke-linejoin: miter"/>
     <use xlink:href="#mefdce20be1" x="306.518644" y="259.411173" style="fill: #9d02d7; stroke: #9d02d7; stroke-linejoin: miter"/>
     <use xlink:href="#mefdce20be1" x="311.67735" y="254.711732" style="fill: #9d02d7; stroke: #9d02d7; stroke-linejoin: miter"/>
     <use xlink:href="#mefdce20be1" x="316.836055" y="255.914973" style="fill: #9d02d7; stroke: #9d02d7; stroke-linejoin: miter"/>
     <use xlink:href="#mefdce20be1" x="321.994761" y="270.612326" style="fill: #9d02d7; stroke: #9d02d7; stroke-linejoin: miter"/>
     <use xlink:href="#mefdce20be1" x="327.153467" y="267.677131" style="fill: #9d02d7; stroke: #9d02d7; stroke-linejoin: miter"/>
     <use xlink:href="#mefdce20be1" x="332.312173" y="253.125178" style="fill: #9d02d7; stroke: #9d02d7; stroke-linejoin: miter"/>
     <use xlink:href="#mefdce20be1" x="337.470878" y="255.041147" style="fill: #9d02d7; stroke: #9d02d7; stroke-linejoin: miter"/>
     <use xlink:href="#mefdce20be1" x="342.629584" y="258.062883" style="fill: #9d02d7; stroke: #9d02d7; stroke-linejoin: miter"/>
     <use xlink:href="#mefdce20be1" x="347.78829" y="256.509368" style="fill: #9d02d7; stroke: #9d02d7; stroke-linejoin: miter"/>
     <use xlink:href="#mefdce20be1" x="352.946995" y="259.997828" style="fill: #9d02d7; stroke: #9d02d7; stroke-linejoin: miter"/>
     <use xlink:href="#mefdce20be1" x="358.105701" y="250.032243" style="fill: #9d02d7; stroke: #9d02d7; stroke-linejoin: miter"/>
     <use xlink:href="#mefdce20be1" x="363.264407" y="253.455811" style="fill: #9d02d7; stroke: #9d02d7; stroke-linejoin: miter"/>
     <use xlink:href="#mefdce20be1" x="368.423112" y="247.310136" style="fill: #9d02d7; stroke: #9d02d7; stroke-linejoin: miter"/>
     <use xlink:href="#mefdce20be1" x="373.581818" y="233.789968" style="fill: #9d02d7; stroke: #9d02d7; stroke-linejoin: miter"/>
    </g>
   </g>
   <g id="line2d_30">
    <path d="M 69.218182 252.977507 
L 74.376888 259.118056 
L 79.535593 258.181573 
L 84.694299 254.480017 
L 89.853005 254.484579 
L 95.01171 254.488706 
L 100.170416 254.46596 
L 105.329122 254.481284 
L 110.487827 254.48669 
L 115.646533 255.90159 
L 120.805239 265.183667 
L 125.963945 254.473472 
L 131.12265 254.478636 
L 136.281356 254.485549 
L 141.440062 254.474978 
L 146.598767 254.472756 
L 151.757473 254.475748 
L 156.916179 254.470289 
L 162.074884 254.477282 
L 167.23359 254.480777 
L 172.392296 254.480002 
L 177.551002 254.364692 
L 182.709707 264.511458 
L 187.868413 267.58322 
L 193.027119 267.639727 
L 198.185824 267.05522 
L 203.34453 269.244302 
L 208.503236 269.352997 
L 213.661941 266.910693 
L 218.820647 269.408762 
L 223.979353 269.190656 
L 229.138059 267.109165 
L 234.296764 266.404762 
L 239.45547 266.634214 
L 244.614176 266.646955 
L 249.772881 266.639151 
L 254.931587 266.650954 
L 260.090293 266.652036 
L 265.248998 266.652999 
L 270.407704 258.207905 
L 275.56641 262.77974 
L 280.725116 262.779141 
L 285.883821 262.779154 
L 291.042527 262.779379 
L 296.201233 262.779154 
L 301.359938 262.779379 
L 306.518644 262.77958 
L 311.67735 262.779548 
L 316.836055 262.778111 
L 321.994761 254.46022 
L 327.153467 254.067557 
L 332.312173 254.067557 
L 337.470878 254.067538 
L 342.629584 254.777461 
L 347.78829 253.986399 
L 352.946995 254.067559 
L 358.105701 254.067559 
L 363.264407 253.986398 
L 368.423112 254.067559 
L 373.581818 254.067559 
" clip-path="url(#pce8b3742a8)" style="fill: none; stroke: #0000ff; stroke-width: 1.5; stroke-linecap: square"/>
    <defs>
     <path id="m8e2239fafe" d="M 0 2 
C 0.530406 2 1.03916 1.789267 1.414214 1.414214 
C 1.789267 1.03916 2 0.530406 2 0 
C 2 -0.530406 1.789267 -1.03916 1.414214 -1.414214 
C 1.03916 -1.789267 0.530406 -2 0 -2 
C -0.530406 -2 -1.03916 -1.789267 -1.414214 -1.414214 
C -1.789267 -1.03916 -2 -0.530406 -2 0 
C -2 0.530406 -1.789267 1.03916 -1.414214 1.414214 
C -1.03916 1.789267 -0.530406 2 0 2 
z
" style="stroke: #0000ff"/>
    </defs>
    <g clip-path="url(#pce8b3742a8)">
     <use xlink:href="#m8e2239fafe" x="69.218182" y="252.977507" style="fill: #0000ff; stroke: #0000ff"/>
     <use xlink:href="#m8e2239fafe" x="74.376888" y="259.118056" style="fill: #0000ff; stroke: #0000ff"/>
     <use xlink:href="#m8e2239fafe" x="79.535593" y="258.181573" style="fill: #0000ff; stroke: #0000ff"/>
     <use xlink:href="#m8e2239fafe" x="84.694299" y="254.480017" style="fill: #0000ff; stroke: #0000ff"/>
     <use xlink:href="#m8e2239fafe" x="89.853005" y="254.484579" style="fill: #0000ff; stroke: #0000ff"/>
     <use xlink:href="#m8e2239fafe" x="95.01171" y="254.488706" style="fill: #0000ff; stroke: #0000ff"/>
     <use xlink:href="#m8e2239fafe" x="100.170416" y="254.46596" style="fill: #0000ff; stroke: #0000ff"/>
     <use xlink:href="#m8e2239fafe" x="105.329122" y="254.481284" style="fill: #0000ff; stroke: #0000ff"/>
     <use xlink:href="#m8e2239fafe" x="110.487827" y="254.48669" style="fill: #0000ff; stroke: #0000ff"/>
     <use xlink:href="#m8e2239fafe" x="115.646533" y="255.90159" style="fill: #0000ff; stroke: #0000ff"/>
     <use xlink:href="#m8e2239fafe" x="120.805239" y="265.183667" style="fill: #0000ff; stroke: #0000ff"/>
     <use xlink:href="#m8e2239fafe" x="125.963945" y="254.473472" style="fill: #0000ff; stroke: #0000ff"/>
     <use xlink:href="#m8e2239fafe" x="131.12265" y="254.478636" style="fill: #0000ff; stroke: #0000ff"/>
     <use xlink:href="#m8e2239fafe" x="136.281356" y="254.485549" style="fill: #0000ff; stroke: #0000ff"/>
     <use xlink:href="#m8e2239fafe" x="141.440062" y="254.474978" style="fill: #0000ff; stroke: #0000ff"/>
     <use xlink:href="#m8e2239fafe" x="146.598767" y="254.472756" style="fill: #0000ff; stroke: #0000ff"/>
     <use xlink:href="#m8e2239fafe" x="151.757473" y="254.475748" style="fill: #0000ff; stroke: #0000ff"/>
     <use xlink:href="#m8e2239fafe" x="156.916179" y="254.470289" style="fill: #0000ff; stroke: #0000ff"/>
     <use xlink:href="#m8e2239fafe" x="162.074884" y="254.477282" style="fill: #0000ff; stroke: #0000ff"/>
     <use xlink:href="#m8e2239fafe" x="167.23359" y="254.480777" style="fill: #0000ff; stroke: #0000ff"/>
     <use xlink:href="#m8e2239fafe" x="172.392296" y="254.480002" style="fill: #0000ff; stroke: #0000ff"/>
     <use xlink:href="#m8e2239fafe" x="177.551002" y="254.364692" style="fill: #0000ff; stroke: #0000ff"/>
     <use xlink:href="#m8e2239fafe" x="182.709707" y="264.511458" style="fill: #0000ff; stroke: #0000ff"/>
     <use xlink:href="#m8e2239fafe" x="187.868413" y="267.58322" style="fill: #0000ff; stroke: #0000ff"/>
     <use xlink:href="#m8e2239fafe" x="193.027119" y="267.639727" style="fill: #0000ff; stroke: #0000ff"/>
     <use xlink:href="#m8e2239fafe" x="198.185824" y="267.05522" style="fill: #0000ff; stroke: #0000ff"/>
     <use xlink:href="#m8e2239fafe" x="203.34453" y="269.244302" style="fill: #0000ff; stroke: #0000ff"/>
     <use xlink:href="#m8e2239fafe" x="208.503236" y="269.352997" style="fill: #0000ff; stroke: #0000ff"/>
     <use xlink:href="#m8e2239fafe" x="213.661941" y="266.910693" style="fill: #0000ff; stroke: #0000ff"/>
     <use xlink:href="#m8e2239fafe" x="218.820647" y="269.408762" style="fill: #0000ff; stroke: #0000ff"/>
     <use xlink:href="#m8e2239fafe" x="223.979353" y="269.190656" style="fill: #0000ff; stroke: #0000ff"/>
     <use xlink:href="#m8e2239fafe" x="229.138059" y="267.109165" style="fill: #0000ff; stroke: #0000ff"/>
     <use xlink:href="#m8e2239fafe" x="234.296764" y="266.404762" style="fill: #0000ff; stroke: #0000ff"/>
     <use xlink:href="#m8e2239fafe" x="239.45547" y="266.634214" style="fill: #0000ff; stroke: #0000ff"/>
     <use xlink:href="#m8e2239fafe" x="244.614176" y="266.646955" style="fill: #0000ff; stroke: #0000ff"/>
     <use xlink:href="#m8e2239fafe" x="249.772881" y="266.639151" style="fill: #0000ff; stroke: #0000ff"/>
     <use xlink:href="#m8e2239fafe" x="254.931587" y="266.650954" style="fill: #0000ff; stroke: #0000ff"/>
     <use xlink:href="#m8e2239fafe" x="260.090293" y="266.652036" style="fill: #0000ff; stroke: #0000ff"/>
     <use xlink:href="#m8e2239fafe" x="265.248998" y="266.652999" style="fill: #0000ff; stroke: #0000ff"/>
     <use xlink:href="#m8e2239fafe" x="270.407704" y="258.207905" style="fill: #0000ff; stroke: #0000ff"/>
     <use xlink:href="#m8e2239fafe" x="275.56641" y="262.77974" style="fill: #0000ff; stroke: #0000ff"/>
     <use xlink:href="#m8e2239fafe" x="280.725116" y="262.779141" style="fill: #0000ff; stroke: #0000ff"/>
     <use xlink:href="#m8e2239fafe" x="285.883821" y="262.779154" style="fill: #0000ff; stroke: #0000ff"/>
     <use xlink:href="#m8e2239fafe" x="291.042527" y="262.779379" style="fill: #0000ff; stroke: #0000ff"/>
     <use xlink:href="#m8e2239fafe" x="296.201233" y="262.779154" style="fill: #0000ff; stroke: #0000ff"/>
     <use xlink:href="#m8e2239fafe" x="301.359938" y="262.779379" style="fill: #0000ff; stroke: #0000ff"/>
     <use xlink:href="#m8e2239fafe" x="306.518644" y="262.77958" style="fill: #0000ff; stroke: #0000ff"/>
     <use xlink:href="#m8e2239fafe" x="311.67735" y="262.779548" style="fill: #0000ff; stroke: #0000ff"/>
     <use xlink:href="#m8e2239fafe" x="316.836055" y="262.778111" style="fill: #0000ff; stroke: #0000ff"/>
     <use xlink:href="#m8e2239fafe" x="321.994761" y="254.46022" style="fill: #0000ff; stroke: #0000ff"/>
     <use xlink:href="#m8e2239fafe" x="327.153467" y="254.067557" style="fill: #0000ff; stroke: #0000ff"/>
     <use xlink:href="#m8e2239fafe" x="332.312173" y="254.067557" style="fill: #0000ff; stroke: #0000ff"/>
     <use xlink:href="#m8e2239fafe" x="337.470878" y="254.067538" style="fill: #0000ff; stroke: #0000ff"/>
     <use xlink:href="#m8e2239fafe" x="342.629584" y="254.777461" style="fill: #0000ff; stroke: #0000ff"/>
     <use xlink:href="#m8e2239fafe" x="347.78829" y="253.986399" style="fill: #0000ff; stroke: #0000ff"/>
     <use xlink:href="#m8e2239fafe" x="352.946995" y="254.067559" style="fill: #0000ff; stroke: #0000ff"/>
     <use xlink:href="#m8e2239fafe" x="358.105701" y="254.067559" style="fill: #0000ff; stroke: #0000ff"/>
     <use xlink:href="#m8e2239fafe" x="363.264407" y="253.986398" style="fill: #0000ff; stroke: #0000ff"/>
     <use xlink:href="#m8e2239fafe" x="368.423112" y="254.067559" style="fill: #0000ff; stroke: #0000ff"/>
     <use xlink:href="#m8e2239fafe" x="373.581818" y="254.067559" style="fill: #0000ff; stroke: #0000ff"/>
    </g>
   </g>
   <g id="line2d_31">
    <path d="M 69.218182 252.908818 
L 74.376888 253.128167 
L 79.535593 253.173327 
L 84.694299 253.324521 
L 89.853005 253.141434 
L 95.01171 253.150073 
L 100.170416 253.194036 
L 105.329122 253.106482 
L 110.487827 253.010471 
L 115.646533 252.784528 
L 120.805239 253.415799 
L 125.963945 253.159179 
L 131.12265 253.141356 
L 136.281356 253.40748 
L 141.440062 253.239863 
L 146.598767 253.365165 
L 151.757473 253.330764 
L 156.916179 253.296376 
L 162.074884 253.382344 
L 167.23359 253.142159 
L 172.392296 253.397838 
L 177.551002 253.172588 
L 182.709707 253.365174 
L 187.868413 253.383974 
L 193.027119 253.388167 
L 198.185824 253.417387 
L 203.34453 253.141708 
L 208.503236 253.14173 
L 213.661941 253.155864 
L 218.820647 253.140947 
L 223.979353 253.141742 
L 229.138059 253.142157 
L 234.296764 253.201525 
L 239.45547 253.419056 
L 244.614176 253.382143 
L 249.772881 253.269732 
L 254.931587 253.418765 
L 260.090293 253.218306 
L 265.248998 253.157805 
L 270.407704 253.159583 
L 275.56641 253.419634 
L 280.725116 253.322139 
L 285.883821 253.307885 
L 291.042527 253.290535 
L 296.201233 253.435655 
L 301.359938 253.391895 
L 306.518644 253.393576 
L 311.67735 253.401795 
L 316.836055 253.141501 
L 321.994761 253.218086 
L 327.153467 253.364951 
L 332.312173 253.141499 
L 337.470878 253.21615 
L 342.629584 253.398982 
L 347.78829 253.427376 
L 352.946995 253.414358 
L 358.105701 253.392253 
L 363.264407 253.141712 
L 368.423112 253.204396 
L 373.581818 253.392987 
" clip-path="url(#pce8b3742a8)" style="fill: none; stroke: #ff7763; stroke-width: 1.5; stroke-linecap: square"/>
    <defs>
     <path id="m8b76111fee" d="M -2 2 
L 2 -2 
M -2 -2 
L 2 2 
" style="stroke: #ff7763"/>
    </defs>
    <g clip-path="url(#pce8b3742a8)">
     <use xlink:href="#m8b76111fee" x="69.218182" y="252.908818" style="fill: #ff7763; stroke: #ff7763"/>
     <use xlink:href="#m8b76111fee" x="74.376888" y="253.128167" style="fill: #ff7763; stroke: #ff7763"/>
     <use xlink:href="#m8b76111fee" x="79.535593" y="253.173327" style="fill: #ff7763; stroke: #ff7763"/>
     <use xlink:href="#m8b76111fee" x="84.694299" y="253.324521" style="fill: #ff7763; stroke: #ff7763"/>
     <use xlink:href="#m8b76111fee" x="89.853005" y="253.141434" style="fill: #ff7763; stroke: #ff7763"/>
     <use xlink:href="#m8b76111fee" x="95.01171" y="253.150073" style="fill: #ff7763; stroke: #ff7763"/>
     <use xlink:href="#m8b76111fee" x="100.170416" y="253.194036" style="fill: #ff7763; stroke: #ff7763"/>
     <use xlink:href="#m8b76111fee" x="105.329122" y="253.106482" style="fill: #ff7763; stroke: #ff7763"/>
     <use xlink:href="#m8b76111fee" x="110.487827" y="253.010471" style="fill: #ff7763; stroke: #ff7763"/>
     <use xlink:href="#m8b76111fee" x="115.646533" y="252.784528" style="fill: #ff7763; stroke: #ff7763"/>
     <use xlink:href="#m8b76111fee" x="120.805239" y="253.415799" style="fill: #ff7763; stroke: #ff7763"/>
     <use xlink:href="#m8b76111fee" x="125.963945" y="253.159179" style="fill: #ff7763; stroke: #ff7763"/>
     <use xlink:href="#m8b76111fee" x="131.12265" y="253.141356" style="fill: #ff7763; stroke: #ff7763"/>
     <use xlink:href="#m8b76111fee" x="136.281356" y="253.40748" style="fill: #ff7763; stroke: #ff7763"/>
     <use xlink:href="#m8b76111fee" x="141.440062" y="253.239863" style="fill: #ff7763; stroke: #ff7763"/>
     <use xlink:href="#m8b76111fee" x="146.598767" y="253.365165" style="fill: #ff7763; stroke: #ff7763"/>
     <use xlink:href="#m8b76111fee" x="151.757473" y="253.330764" style="fill: #ff7763; stroke: #ff7763"/>
     <use xlink:href="#m8b76111fee" x="156.916179" y="253.296376" style="fill: #ff7763; stroke: #ff7763"/>
     <use xlink:href="#m8b76111fee" x="162.074884" y="253.382344" style="fill: #ff7763; stroke: #ff7763"/>
     <use xlink:href="#m8b76111fee" x="167.23359" y="253.142159" style="fill: #ff7763; stroke: #ff7763"/>
     <use xlink:href="#m8b76111fee" x="172.392296" y="253.397838" style="fill: #ff7763; stroke: #ff7763"/>
     <use xlink:href="#m8b76111fee" x="177.551002" y="253.172588" style="fill: #ff7763; stroke: #ff7763"/>
     <use xlink:href="#m8b76111fee" x="182.709707" y="253.365174" style="fill: #ff7763; stroke: #ff7763"/>
     <use xlink:href="#m8b76111fee" x="187.868413" y="253.383974" style="fill: #ff7763; stroke: #ff7763"/>
     <use xlink:href="#m8b76111fee" x="193.027119" y="253.388167" style="fill: #ff7763; stroke: #ff7763"/>
     <use xlink:href="#m8b76111fee" x="198.185824" y="253.417387" style="fill: #ff7763; stroke: #ff7763"/>
     <use xlink:href="#m8b76111fee" x="203.34453" y="253.141708" style="fill: #ff7763; stroke: #ff7763"/>
     <use xlink:href="#m8b76111fee" x="208.503236" y="253.14173" style="fill: #ff7763; stroke: #ff7763"/>
     <use xlink:href="#m8b76111fee" x="213.661941" y="253.155864" style="fill: #ff7763; stroke: #ff7763"/>
     <use xlink:href="#m8b76111fee" x="218.820647" y="253.140947" style="fill: #ff7763; stroke: #ff7763"/>
     <use xlink:href="#m8b76111fee" x="223.979353" y="253.141742" style="fill: #ff7763; stroke: #ff7763"/>
     <use xlink:href="#m8b76111fee" x="229.138059" y="253.142157" style="fill: #ff7763; stroke: #ff7763"/>
     <use xlink:href="#m8b76111fee" x="234.296764" y="253.201525" style="fill: #ff7763; stroke: #ff7763"/>
     <use xlink:href="#m8b76111fee" x="239.45547" y="253.419056" style="fill: #ff7763; stroke: #ff7763"/>
     <use xlink:href="#m8b76111fee" x="244.614176" y="253.382143" style="fill: #ff7763; stroke: #ff7763"/>
     <use xlink:href="#m8b76111fee" x="249.772881" y="253.269732" style="fill: #ff7763; stroke: #ff7763"/>
     <use xlink:href="#m8b76111fee" x="254.931587" y="253.418765" style="fill: #ff7763; stroke: #ff7763"/>
     <use xlink:href="#m8b76111fee" x="260.090293" y="253.218306" style="fill: #ff7763; stroke: #ff7763"/>
     <use xlink:href="#m8b76111fee" x="265.248998" y="253.157805" style="fill: #ff7763; stroke: #ff7763"/>
     <use xlink:href="#m8b76111fee" x="270.407704" y="253.159583" style="fill: #ff7763; stroke: #ff7763"/>
     <use xlink:href="#m8b76111fee" x="275.56641" y="253.419634" style="fill: #ff7763; stroke: #ff7763"/>
     <use xlink:href="#m8b76111fee" x="280.725116" y="253.322139" style="fill: #ff7763; stroke: #ff7763"/>
     <use xlink:href="#m8b76111fee" x="285.883821" y="253.307885" style="fill: #ff7763; stroke: #ff7763"/>
     <use xlink:href="#m8b76111fee" x="291.042527" y="253.290535" style="fill: #ff7763; stroke: #ff7763"/>
     <use xlink:href="#m8b76111fee" x="296.201233" y="253.435655" style="fill: #ff7763; stroke: #ff7763"/>
     <use xlink:href="#m8b76111fee" x="301.359938" y="253.391895" style="fill: #ff7763; stroke: #ff7763"/>
     <use xlink:href="#m8b76111fee" x="306.518644" y="253.393576" style="fill: #ff7763; stroke: #ff7763"/>
     <use xlink:href="#m8b76111fee" x="311.67735" y="253.401795" style="fill: #ff7763; stroke: #ff7763"/>
     <use xlink:href="#m8b76111fee" x="316.836055" y="253.141501" style="fill: #ff7763; stroke: #ff7763"/>
     <use xlink:href="#m8b76111fee" x="321.994761" y="253.218086" style="fill: #ff7763; stroke: #ff7763"/>
     <use xlink:href="#m8b76111fee" x="327.153467" y="253.364951" style="fill: #ff7763; stroke: #ff7763"/>
     <use xlink:href="#m8b76111fee" x="332.312173" y="253.141499" style="fill: #ff7763; stroke: #ff7763"/>
     <use xlink:href="#m8b76111fee" x="337.470878" y="253.21615" style="fill: #ff7763; stroke: #ff7763"/>
     <use xlink:href="#m8b76111fee" x="342.629584" y="253.398982" style="fill: #ff7763; stroke: #ff7763"/>
     <use xlink:href="#m8b76111fee" x="347.78829" y="253.427376" style="fill: #ff7763; stroke: #ff7763"/>
     <use xlink:href="#m8b76111fee" x="352.946995" y="253.414358" style="fill: #ff7763; stroke: #ff7763"/>
     <use xlink:href="#m8b76111fee" x="358.105701" y="253.392253" style="fill: #ff7763; stroke: #ff7763"/>
     <use xlink:href="#m8b76111fee" x="363.264407" y="253.141712" style="fill: #ff7763; stroke: #ff7763"/>
     <use xlink:href="#m8b76111fee" x="368.423112" y="253.204396" style="fill: #ff7763; stroke: #ff7763"/>
     <use xlink:href="#m8b76111fee" x="373.581818" y="253.392987" style="fill: #ff7763; stroke: #ff7763"/>
    </g>
   </g>
   <g id="line2d_32">
    <path d="M 69.218182 252.967884 
L 74.376888 252.908818 
L 79.535593 252.908818 
L 84.694299 252.908818 
L 89.853005 252.908818 
L 95.01171 252.908818 
L 100.170416 252.908818 
L 105.329122 252.908818 
L 110.487827 252.908818 
L 115.646533 252.908818 
L 120.805239 252.908818 
L 125.963945 252.908818 
L 131.12265 252.908818 
L 136.281356 252.908818 
L 141.440062 252.908818 
L 146.598767 252.908818 
L 151.757473 252.908818 
L 156.916179 252.908818 
L 162.074884 252.908818 
L 167.23359 252.908818 
L 172.392296 252.908818 
L 177.551002 252.908818 
L 182.709707 252.908818 
L 187.868413 252.908818 
L 193.027119 252.908818 
L 198.185824 252.908818 
L 203.34453 252.908818 
L 208.503236 252.908818 
L 213.661941 252.908818 
L 218.820647 252.908818 
L 223.979353 252.908818 
L 229.138059 252.908818 
L 234.296764 252.908818 
L 239.45547 252.908818 
L 244.614176 252.908818 
L 249.772881 252.908818 
L 254.931587 252.908818 
L 260.090293 252.908818 
L 265.248998 252.908818 
L 270.407704 252.908818 
L 275.56641 252.908818 
L 280.725116 252.908818 
L 285.883821 252.908818 
L 291.042527 256.200945 
L 296.201233 243.906312 
L 301.359938 248.778523 
L 306.518644 234.858307 
L 311.67735 228.655195 
L 316.836055 231.715893 
L 321.994761 222.823484 
L 327.153467 232.83392 
L 332.312173 222.008558 
L 337.470878 223.168096 
L 342.629584 220.74166 
L 347.78829 223.65539 
L 352.946995 223.662105 
L 358.105701 222.052841 
L 363.264407 223.14904 
L 368.423112 223.655496 
L 373.581818 222.008418 
" clip-path="url(#pce8b3742a8)" style="fill: none; stroke: #ffac1e; stroke-width: 1.5; stroke-linecap: square"/>
    <defs>
     <path id="m04502290f2" d="M 0 -2 
L -0.449028 -0.618034 
L -1.902113 -0.618034 
L -0.726543 0.236068 
L -1.175571 1.618034 
L -0 0.763932 
L 1.175571 1.618034 
L 0.726543 0.236068 
L 1.902113 -0.618034 
L 0.449028 -0.618034 
z
" style="stroke: #ffac1e; stroke-linejoin: bevel"/>
    </defs>
    <g clip-path="url(#pce8b3742a8)">
     <use xlink:href="#m04502290f2" x="69.218182" y="252.967884" style="fill: #ffac1e; stroke: #ffac1e; stroke-linejoin: bevel"/>
     <use xlink:href="#m04502290f2" x="74.376888" y="252.908818" style="fill: #ffac1e; stroke: #ffac1e; stroke-linejoin: bevel"/>
     <use xlink:href="#m04502290f2" x="79.535593" y="252.908818" style="fill: #ffac1e; stroke: #ffac1e; stroke-linejoin: bevel"/>
     <use xlink:href="#m04502290f2" x="84.694299" y="252.908818" style="fill: #ffac1e; stroke: #ffac1e; stroke-linejoin: bevel"/>
     <use xlink:href="#m04502290f2" x="89.853005" y="252.908818" style="fill: #ffac1e; stroke: #ffac1e; stroke-linejoin: bevel"/>
     <use xlink:href="#m04502290f2" x="95.01171" y="252.908818" style="fill: #ffac1e; stroke: #ffac1e; stroke-linejoin: bevel"/>
     <use xlink:href="#m04502290f2" x="100.170416" y="252.908818" style="fill: #ffac1e; stroke: #ffac1e; stroke-linejoin: bevel"/>
     <use xlink:href="#m04502290f2" x="105.329122" y="252.908818" style="fill: #ffac1e; stroke: #ffac1e; stroke-linejoin: bevel"/>
     <use xlink:href="#m04502290f2" x="110.487827" y="252.908818" style="fill: #ffac1e; stroke: #ffac1e; stroke-linejoin: bevel"/>
     <use xlink:href="#m04502290f2" x="115.646533" y="252.908818" style="fill: #ffac1e; stroke: #ffac1e; stroke-linejoin: bevel"/>
     <use xlink:href="#m04502290f2" x="120.805239" y="252.908818" style="fill: #ffac1e; stroke: #ffac1e; stroke-linejoin: bevel"/>
     <use xlink:href="#m04502290f2" x="125.963945" y="252.908818" style="fill: #ffac1e; stroke: #ffac1e; stroke-linejoin: bevel"/>
     <use xlink:href="#m04502290f2" x="131.12265" y="252.908818" style="fill: #ffac1e; stroke: #ffac1e; stroke-linejoin: bevel"/>
     <use xlink:href="#m04502290f2" x="136.281356" y="252.908818" style="fill: #ffac1e; stroke: #ffac1e; stroke-linejoin: bevel"/>
     <use xlink:href="#m04502290f2" x="141.440062" y="252.908818" style="fill: #ffac1e; stroke: #ffac1e; stroke-linejoin: bevel"/>
     <use xlink:href="#m04502290f2" x="146.598767" y="252.908818" style="fill: #ffac1e; stroke: #ffac1e; stroke-linejoin: bevel"/>
     <use xlink:href="#m04502290f2" x="151.757473" y="252.908818" style="fill: #ffac1e; stroke: #ffac1e; stroke-linejoin: bevel"/>
     <use xlink:href="#m04502290f2" x="156.916179" y="252.908818" style="fill: #ffac1e; stroke: #ffac1e; stroke-linejoin: bevel"/>
     <use xlink:href="#m04502290f2" x="162.074884" y="252.908818" style="fill: #ffac1e; stroke: #ffac1e; stroke-linejoin: bevel"/>
     <use xlink:href="#m04502290f2" x="167.23359" y="252.908818" style="fill: #ffac1e; stroke: #ffac1e; stroke-linejoin: bevel"/>
     <use xlink:href="#m04502290f2" x="172.392296" y="252.908818" style="fill: #ffac1e; stroke: #ffac1e; stroke-linejoin: bevel"/>
     <use xlink:href="#m04502290f2" x="177.551002" y="252.908818" style="fill: #ffac1e; stroke: #ffac1e; stroke-linejoin: bevel"/>
     <use xlink:href="#m04502290f2" x="182.709707" y="252.908818" style="fill: #ffac1e; stroke: #ffac1e; stroke-linejoin: bevel"/>
     <use xlink:href="#m04502290f2" x="187.868413" y="252.908818" style="fill: #ffac1e; stroke: #ffac1e; stroke-linejoin: bevel"/>
     <use xlink:href="#m04502290f2" x="193.027119" y="252.908818" style="fill: #ffac1e; stroke: #ffac1e; stroke-linejoin: bevel"/>
     <use xlink:href="#m04502290f2" x="198.185824" y="252.908818" style="fill: #ffac1e; stroke: #ffac1e; stroke-linejoin: bevel"/>
     <use xlink:href="#m04502290f2" x="203.34453" y="252.908818" style="fill: #ffac1e; stroke: #ffac1e; stroke-linejoin: bevel"/>
     <use xlink:href="#m04502290f2" x="208.503236" y="252.908818" style="fill: #ffac1e; stroke: #ffac1e; stroke-linejoin: bevel"/>
     <use xlink:href="#m04502290f2" x="213.661941" y="252.908818" style="fill: #ffac1e; stroke: #ffac1e; stroke-linejoin: bevel"/>
     <use xlink:href="#m04502290f2" x="218.820647" y="252.908818" style="fill: #ffac1e; stroke: #ffac1e; stroke-linejoin: bevel"/>
     <use xlink:href="#m04502290f2" x="223.979353" y="252.908818" style="fill: #ffac1e; stroke: #ffac1e; stroke-linejoin: bevel"/>
     <use xlink:href="#m04502290f2" x="229.138059" y="252.908818" style="fill: #ffac1e; stroke: #ffac1e; stroke-linejoin: bevel"/>
     <use xlink:href="#m04502290f2" x="234.296764" y="252.908818" style="fill: #ffac1e; stroke: #ffac1e; stroke-linejoin: bevel"/>
     <use xlink:href="#m04502290f2" x="239.45547" y="252.908818" style="fill: #ffac1e; stroke: #ffac1e; stroke-linejoin: bevel"/>
     <use xlink:href="#m04502290f2" x="244.614176" y="252.908818" style="fill: #ffac1e; stroke: #ffac1e; stroke-linejoin: bevel"/>
     <use xlink:href="#m04502290f2" x="249.772881" y="252.908818" style="fill: #ffac1e; stroke: #ffac1e; stroke-linejoin: bevel"/>
     <use xlink:href="#m04502290f2" x="254.931587" y="252.908818" style="fill: #ffac1e; stroke: #ffac1e; stroke-linejoin: bevel"/>
     <use xlink:href="#m04502290f2" x="260.090293" y="252.908818" style="fill: #ffac1e; stroke: #ffac1e; stroke-linejoin: bevel"/>
     <use xlink:href="#m04502290f2" x="265.248998" y="252.908818" style="fill: #ffac1e; stroke: #ffac1e; stroke-linejoin: bevel"/>
     <use xlink:href="#m04502290f2" x="270.407704" y="252.908818" style="fill: #ffac1e; stroke: #ffac1e; stroke-linejoin: bevel"/>
     <use xlink:href="#m04502290f2" x="275.56641" y="252.908818" style="fill: #ffac1e; stroke: #ffac1e; stroke-linejoin: bevel"/>
     <use xlink:href="#m04502290f2" x="280.725116" y="252.908818" style="fill: #ffac1e; stroke: #ffac1e; stroke-linejoin: bevel"/>
     <use xlink:href="#m04502290f2" x="285.883821" y="252.908818" style="fill: #ffac1e; stroke: #ffac1e; stroke-linejoin: bevel"/>
     <use xlink:href="#m04502290f2" x="291.042527" y="256.200945" style="fill: #ffac1e; stroke: #ffac1e; stroke-linejoin: bevel"/>
     <use xlink:href="#m04502290f2" x="296.201233" y="243.906312" style="fill: #ffac1e; stroke: #ffac1e; stroke-linejoin: bevel"/>
     <use xlink:href="#m04502290f2" x="301.359938" y="248.778523" style="fill: #ffac1e; stroke: #ffac1e; stroke-linejoin: bevel"/>
     <use xlink:href="#m04502290f2" x="306.518644" y="234.858307" style="fill: #ffac1e; stroke: #ffac1e; stroke-linejoin: bevel"/>
     <use xlink:href="#m04502290f2" x="311.67735" y="228.655195" style="fill: #ffac1e; stroke: #ffac1e; stroke-linejoin: bevel"/>
     <use xlink:href="#m04502290f2" x="316.836055" y="231.715893" style="fill: #ffac1e; stroke: #ffac1e; stroke-linejoin: bevel"/>
     <use xlink:href="#m04502290f2" x="321.994761" y="222.823484" style="fill: #ffac1e; stroke: #ffac1e; stroke-linejoin: bevel"/>
     <use xlink:href="#m04502290f2" x="327.153467" y="232.83392" style="fill: #ffac1e; stroke: #ffac1e; stroke-linejoin: bevel"/>
     <use xlink:href="#m04502290f2" x="332.312173" y="222.008558" style="fill: #ffac1e; stroke: #ffac1e; stroke-linejoin: bevel"/>
     <use xlink:href="#m04502290f2" x="337.470878" y="223.168096" style="fill: #ffac1e; stroke: #ffac1e; stroke-linejoin: bevel"/>
     <use xlink:href="#m04502290f2" x="342.629584" y="220.74166" style="fill: #ffac1e; stroke: #ffac1e; stroke-linejoin: bevel"/>
     <use xlink:href="#m04502290f2" x="347.78829" y="223.65539" style="fill: #ffac1e; stroke: #ffac1e; stroke-linejoin: bevel"/>
     <use xlink:href="#m04502290f2" x="352.946995" y="223.662105" style="fill: #ffac1e; stroke: #ffac1e; stroke-linejoin: bevel"/>
     <use xlink:href="#m04502290f2" x="358.105701" y="222.052841" style="fill: #ffac1e; stroke: #ffac1e; stroke-linejoin: bevel"/>
     <use xlink:href="#m04502290f2" x="363.264407" y="223.14904" style="fill: #ffac1e; stroke: #ffac1e; stroke-linejoin: bevel"/>
     <use xlink:href="#m04502290f2" x="368.423112" y="223.655496" style="fill: #ffac1e; stroke: #ffac1e; stroke-linejoin: bevel"/>
     <use xlink:href="#m04502290f2" x="373.581818" y="222.008418" style="fill: #ffac1e; stroke: #ffac1e; stroke-linejoin: bevel"/>
    </g>
   </g>
   <g id="line2d_33">
    <path d="M 69.218182 252.908818 
L 74.376888 259.647397 
L 79.535593 260.113268 
L 84.694299 259.40511 
L 89.853005 260.369468 
L 95.01171 259.640152 
L 100.170416 259.222278 
L 105.329122 260.112293 
L 110.487827 260.527019 
L 115.646533 260.072494 
L 120.805239 260.007845 
L 125.963945 260.035378 
L 131.12265 259.635485 
L 136.281356 260.273504 
L 141.440062 260.059544 
L 146.598767 260.421871 
L 151.757473 260.186295 
L 156.916179 260.174316 
L 162.074884 260.062772 
L 167.23359 260.056085 
L 172.392296 260.033889 
L 177.551002 260.103007 
L 182.709707 260.121496 
L 187.868413 260.103007 
L 193.027119 260.116949 
L 198.185824 260.348418 
L 203.34453 260.061326 
L 208.503236 260.10647 
L 213.661941 260.085682 
L 218.820647 260.120387 
L 223.979353 260.119723 
L 229.138059 260.113618 
L 234.296764 260.38732 
L 239.45547 260.060895 
L 244.614176 260.11445 
L 249.772881 260.12045 
L 254.931587 260.102272 
L 260.090293 260.11622 
L 265.248998 260.115576 
L 270.407704 260.105743 
L 275.56641 260.107531 
L 280.725116 260.106425 
L 285.883821 260.113678 
L 291.042527 260.119599 
L 296.201233 260.120387 
L 301.359938 260.387257 
L 306.518644 260.106425 
L 311.67735 260.381726 
L 316.836055 260.026138 
L 321.994761 260.110144 
L 327.153467 260.385187 
L 332.312173 260.104999 
L 337.470878 260.061281 
L 342.629584 260.026237 
L 347.78829 260.079685 
L 352.946995 260.061345 
L 358.105701 260.385305 
L 363.264407 260.063146 
L 368.423112 260.375929 
L 373.581818 260.116904 
" clip-path="url(#pce8b3742a8)" style="fill: none; stroke: #009435; stroke-width: 1.5; stroke-linecap: square"/>
    <defs>
     <path id="m45862ae638" d="M -2 2 
L 2 2 
L 2 -2 
L -2 -2 
z
" style="stroke: #009435; stroke-linejoin: miter"/>
    </defs>
    <g clip-path="url(#pce8b3742a8)">
     <use xlink:href="#m45862ae638" x="69.218182" y="252.908818" style="fill: #009435; stroke: #009435; stroke-linejoin: miter"/>
     <use xlink:href="#m45862ae638" x="74.376888" y="259.647397" style="fill: #009435; stroke: #009435; stroke-linejoin: miter"/>
     <use xlink:href="#m45862ae638" x="79.535593" y="260.113268" style="fill: #009435; stroke: #009435; stroke-linejoin: miter"/>
     <use xlink:href="#m45862ae638" x="84.694299" y="259.40511" style="fill: #009435; stroke: #009435; stroke-linejoin: miter"/>
     <use xlink:href="#m45862ae638" x="89.853005" y="260.369468" style="fill: #009435; stroke: #009435; stroke-linejoin: miter"/>
     <use xlink:href="#m45862ae638" x="95.01171" y="259.640152" style="fill: #009435; stroke: #009435; stroke-linejoin: miter"/>
     <use xlink:href="#m45862ae638" x="100.170416" y="259.222278" style="fill: #009435; stroke: #009435; stroke-linejoin: miter"/>
     <use xlink:href="#m45862ae638" x="105.329122" y="260.112293" style="fill: #009435; stroke: #009435; stroke-linejoin: miter"/>
     <use xlink:href="#m45862ae638" x="110.487827" y="260.527019" style="fill: #009435; stroke: #009435; stroke-linejoin: miter"/>
     <use xlink:href="#m45862ae638" x="115.646533" y="260.072494" style="fill: #009435; stroke: #009435; stroke-linejoin: miter"/>
     <use xlink:href="#m45862ae638" x="120.805239" y="260.007845" style="fill: #009435; stroke: #009435; stroke-linejoin: miter"/>
     <use xlink:href="#m45862ae638" x="125.963945" y="260.035378" style="fill: #009435; stroke: #009435; stroke-linejoin: miter"/>
     <use xlink:href="#m45862ae638" x="131.12265" y="259.635485" style="fill: #009435; stroke: #009435; stroke-linejoin: miter"/>
     <use xlink:href="#m45862ae638" x="136.281356" y="260.273504" style="fill: #009435; stroke: #009435; stroke-linejoin: miter"/>
     <use xlink:href="#m45862ae638" x="141.440062" y="260.059544" style="fill: #009435; stroke: #009435; stroke-linejoin: miter"/>
     <use xlink:href="#m45862ae638" x="146.598767" y="260.421871" style="fill: #009435; stroke: #009435; stroke-linejoin: miter"/>
     <use xlink:href="#m45862ae638" x="151.757473" y="260.186295" style="fill: #009435; stroke: #009435; stroke-linejoin: miter"/>
     <use xlink:href="#m45862ae638" x="156.916179" y="260.174316" style="fill: #009435; stroke: #009435; stroke-linejoin: miter"/>
     <use xlink:href="#m45862ae638" x="162.074884" y="260.062772" style="fill: #009435; stroke: #009435; stroke-linejoin: miter"/>
     <use xlink:href="#m45862ae638" x="167.23359" y="260.056085" style="fill: #009435; stroke: #009435; stroke-linejoin: miter"/>
     <use xlink:href="#m45862ae638" x="172.392296" y="260.033889" style="fill: #009435; stroke: #009435; stroke-linejoin: miter"/>
     <use xlink:href="#m45862ae638" x="177.551002" y="260.103007" style="fill: #009435; stroke: #009435; stroke-linejoin: miter"/>
     <use xlink:href="#m45862ae638" x="182.709707" y="260.121496" style="fill: #009435; stroke: #009435; stroke-linejoin: miter"/>
     <use xlink:href="#m45862ae638" x="187.868413" y="260.103007" style="fill: #009435; stroke: #009435; stroke-linejoin: miter"/>
     <use xlink:href="#m45862ae638" x="193.027119" y="260.116949" style="fill: #009435; stroke: #009435; stroke-linejoin: miter"/>
     <use xlink:href="#m45862ae638" x="198.185824" y="260.348418" style="fill: #009435; stroke: #009435; stroke-linejoin: miter"/>
     <use xlink:href="#m45862ae638" x="203.34453" y="260.061326" style="fill: #009435; stroke: #009435; stroke-linejoin: miter"/>
     <use xlink:href="#m45862ae638" x="208.503236" y="260.10647" style="fill: #009435; stroke: #009435; stroke-linejoin: miter"/>
     <use xlink:href="#m45862ae638" x="213.661941" y="260.085682" style="fill: #009435; stroke: #009435; stroke-linejoin: miter"/>
     <use xlink:href="#m45862ae638" x="218.820647" y="260.120387" style="fill: #009435; stroke: #009435; stroke-linejoin: miter"/>
     <use xlink:href="#m45862ae638" x="223.979353" y="260.119723" style="fill: #009435; stroke: #009435; stroke-linejoin: miter"/>
     <use xlink:href="#m45862ae638" x="229.138059" y="260.113618" style="fill: #009435; stroke: #009435; stroke-linejoin: miter"/>
     <use xlink:href="#m45862ae638" x="234.296764" y="260.38732" style="fill: #009435; stroke: #009435; stroke-linejoin: miter"/>
     <use xlink:href="#m45862ae638" x="239.45547" y="260.060895" style="fill: #009435; stroke: #009435; stroke-linejoin: miter"/>
     <use xlink:href="#m45862ae638" x="244.614176" y="260.11445" style="fill: #009435; stroke: #009435; stroke-linejoin: miter"/>
     <use xlink:href="#m45862ae638" x="249.772881" y="260.12045" style="fill: #009435; stroke: #009435; stroke-linejoin: miter"/>
     <use xlink:href="#m45862ae638" x="254.931587" y="260.102272" style="fill: #009435; stroke: #009435; stroke-linejoin: miter"/>
     <use xlink:href="#m45862ae638" x="260.090293" y="260.11622" style="fill: #009435; stroke: #009435; stroke-linejoin: miter"/>
     <use xlink:href="#m45862ae638" x="265.248998" y="260.115576" style="fill: #009435; stroke: #009435; stroke-linejoin: miter"/>
     <use xlink:href="#m45862ae638" x="270.407704" y="260.105743" style="fill: #009435; stroke: #009435; stroke-linejoin: miter"/>
     <use xlink:href="#m45862ae638" x="275.56641" y="260.107531" style="fill: #009435; stroke: #009435; stroke-linejoin: miter"/>
     <use xlink:href="#m45862ae638" x="280.725116" y="260.106425" style="fill: #009435; stroke: #009435; stroke-linejoin: miter"/>
     <use xlink:href="#m45862ae638" x="285.883821" y="260.113678" style="fill: #009435; stroke: #009435; stroke-linejoin: miter"/>
     <use xlink:href="#m45862ae638" x="291.042527" y="260.119599" style="fill: #009435; stroke: #009435; stroke-linejoin: miter"/>
     <use xlink:href="#m45862ae638" x="296.201233" y="260.120387" style="fill: #009435; stroke: #009435; stroke-linejoin: miter"/>
     <use xlink:href="#m45862ae638" x="301.359938" y="260.387257" style="fill: #009435; stroke: #009435; stroke-linejoin: miter"/>
     <use xlink:href="#m45862ae638" x="306.518644" y="260.106425" style="fill: #009435; stroke: #009435; stroke-linejoin: miter"/>
     <use xlink:href="#m45862ae638" x="311.67735" y="260.381726" style="fill: #009435; stroke: #009435; stroke-linejoin: miter"/>
     <use xlink:href="#m45862ae638" x="316.836055" y="260.026138" style="fill: #009435; stroke: #009435; stroke-linejoin: miter"/>
     <use xlink:href="#m45862ae638" x="321.994761" y="260.110144" style="fill: #009435; stroke: #009435; stroke-linejoin: miter"/>
     <use xlink:href="#m45862ae638" x="327.153467" y="260.385187" style="fill: #009435; stroke: #009435; stroke-linejoin: miter"/>
     <use xlink:href="#m45862ae638" x="332.312173" y="260.104999" style="fill: #009435; stroke: #009435; stroke-linejoin: miter"/>
     <use xlink:href="#m45862ae638" x="337.470878" y="260.061281" style="fill: #009435; stroke: #009435; stroke-linejoin: miter"/>
     <use xlink:href="#m45862ae638" x="342.629584" y="260.026237" style="fill: #009435; stroke: #009435; stroke-linejoin: miter"/>
     <use xlink:href="#m45862ae638" x="347.78829" y="260.079685" style="fill: #009435; stroke: #009435; stroke-linejoin: miter"/>
     <use xlink:href="#m45862ae638" x="352.946995" y="260.061345" style="fill: #009435; stroke: #009435; stroke-linejoin: miter"/>
     <use xlink:href="#m45862ae638" x="358.105701" y="260.385305" style="fill: #009435; stroke: #009435; stroke-linejoin: miter"/>
     <use xlink:href="#m45862ae638" x="363.264407" y="260.063146" style="fill: #009435; stroke: #009435; stroke-linejoin: miter"/>
     <use xlink:href="#m45862ae638" x="368.423112" y="260.375929" style="fill: #009435; stroke: #009435; stroke-linejoin: miter"/>
     <use xlink:href="#m45862ae638" x="373.581818" y="260.116904" style="fill: #009435; stroke: #009435; stroke-linejoin: miter"/>
    </g>
   </g>
   <g id="patch_3">
    <path d="M 54 252 
L 54 34.56 
" style="fill: none; stroke: #000000; stroke-width: 0.8; stroke-linejoin: miter; stroke-linecap: square"/>
   </g>
   <g id="patch_4">
    <path d="M 388.8 252 
L 388.8 34.56 
" style="fill: none; stroke: #000000; stroke-width: 0.8; stroke-linejoin: miter; stroke-linecap: square"/>
   </g>
   <g id="patch_5">
    <path d="M 54 252 
L 388.8 252 
" style="fill: none; stroke: #000000; stroke-width: 0.8; stroke-linejoin: miter; stroke-linecap: square"/>
   </g>
   <g id="patch_6">
    <path d="M 54 34.56 
L 388.8 34.56 
" style="fill: none; stroke: #000000; stroke-width: 0.8; stroke-linejoin: miter; stroke-linecap: square"/>
   </g>
   <g id="text_17">
    <!-- ζ-EB agent policy with beta = 3.0 -->
    <g transform="translate(120.797813 28.56)scale(0.12 -0.12)">
     <defs>
      <path id="DejaVuSans-3b6" d="M 2231 397 
Q 2644 394 2891 159 
Q 3153 -88 3153 -463 
Q 3153 -822 2922 -1072 
Q 2672 -1344 2163 -1344 
Q 2163 -1109 2163 -872 
Q 2378 -888 2509 -750 
Q 2609 -641 2609 -525 
Q 2609 -359 2509 -222 
Q 2413 -91 2231 -91 
Q 338 -91 334 1669 
Q 334 3206 2119 4284 
L 456 4284 
L 456 4863 
L 3175 4863 
L 3175 4284 
Q 913 3147 913 1669 
Q 913 397 2231 397 
z
" transform="scale(0.015625)"/>
      <path id="DejaVuSans-2d" d="M 313 2009 
L 1997 2009 
L 1997 1497 
L 313 1497 
L 313 2009 
z
" transform="scale(0.015625)"/>
      <path id="DejaVuSans-45" d="M 628 4666 
L 3578 4666 
L 3578 4134 
L 1259 4134 
L 1259 2753 
L 3481 2753 
L 3481 2222 
L 1259 2222 
L 1259 531 
L 3634 531 
L 3634 0 
L 628 0 
L 628 4666 
z
" transform="scale(0.015625)"/>
      <path id="DejaVuSans-42" d="M 1259 2228 
L 1259 519 
L 2272 519 
Q 2781 519 3026 730 
Q 3272 941 3272 1375 
Q 3272 1813 3026 2020 
Q 2781 2228 2272 2228 
L 1259 2228 
z
M 1259 4147 
L 1259 2741 
L 2194 2741 
Q 2656 2741 2882 2914 
Q 3109 3088 3109 3444 
Q 3109 3797 2882 3972 
Q 2656 4147 2194 4147 
L 1259 4147 
z
M 628 4666 
L 2241 4666 
Q 2963 4666 3353 4366 
Q 3744 4066 3744 3513 
Q 3744 3084 3544 2831 
Q 3344 2578 2956 2516 
Q 3422 2416 3680 2098 
Q 3938 1781 3938 1306 
Q 3938 681 3513 340 
Q 3088 0 2303 0 
L 628 0 
L 628 4666 
z
" transform="scale(0.015625)"/>
      <path id="DejaVuSans-67" d="M 2906 1791 
Q 2906 2416 2648 2759 
Q 2391 3103 1925 3103 
Q 1463 3103 1205 2759 
Q 947 2416 947 1791 
Q 947 1169 1205 825 
Q 1463 481 1925 481 
Q 2391 481 2648 825 
Q 2906 1169 2906 1791 
z
M 3481 434 
Q 3481 -459 3084 -895 
Q 2688 -1331 1869 -1331 
Q 1566 -1331 1297 -1286 
Q 1028 -1241 775 -1147 
L 775 -588 
Q 1028 -725 1275 -790 
Q 1522 -856 1778 -856 
Q 2344 -856 2625 -561 
Q 2906 -266 2906 331 
L 2906 616 
Q 2728 306 2450 153 
Q 2172 0 1784 0 
Q 1141 0 747 490 
Q 353 981 353 1791 
Q 353 2603 747 3093 
Q 1141 3584 1784 3584 
Q 2172 3584 2450 3431 
Q 2728 3278 2906 2969 
L 2906 3500 
L 3481 3500 
L 3481 434 
z
" transform="scale(0.015625)"/>
      <path id="DejaVuSans-6e" d="M 3513 2113 
L 3513 0 
L 2938 0 
L 2938 2094 
Q 2938 2591 2744 2837 
Q 2550 3084 2163 3084 
Q 1697 3084 1428 2787 
Q 1159 2491 1159 1978 
L 1159 0 
L 581 0 
L 581 3500 
L 1159 3500 
L 1159 2956 
Q 1366 3272 1645 3428 
Q 1925 3584 2291 3584 
Q 2894 3584 3203 3211 
Q 3513 2838 3513 2113 
z
" transform="scale(0.015625)"/>
      <path id="DejaVuSans-77" d="M 269 3500 
L 844 3500 
L 1563 769 
L 2278 3500 
L 2956 3500 
L 3675 769 
L 4391 3500 
L 4966 3500 
L 4050 0 
L 3372 0 
L 2619 2869 
L 1863 0 
L 1184 0 
L 269 3500 
z
" transform="scale(0.015625)"/>
      <path id="DejaVuSans-68" d="M 3513 2113 
L 3513 0 
L 2938 0 
L 2938 2094 
Q 2938 2591 2744 2837 
Q 2550 3084 2163 3084 
Q 1697 3084 1428 2787 
Q 1159 2491 1159 1978 
L 1159 0 
L 581 0 
L 581 4863 
L 1159 4863 
L 1159 2956 
Q 1366 3272 1645 3428 
Q 1925 3584 2291 3584 
Q 2894 3584 3203 3211 
Q 3513 2838 3513 2113 
z
" transform="scale(0.015625)"/>
      <path id="DejaVuSans-62" d="M 3116 1747 
Q 3116 2381 2855 2742 
Q 2594 3103 2138 3103 
Q 1681 3103 1420 2742 
Q 1159 2381 1159 1747 
Q 1159 1113 1420 752 
Q 1681 391 2138 391 
Q 2594 391 2855 752 
Q 3116 1113 3116 1747 
z
M 1159 2969 
Q 1341 3281 1617 3432 
Q 1894 3584 2278 3584 
Q 2916 3584 3314 3078 
Q 3713 2572 3713 1747 
Q 3713 922 3314 415 
Q 2916 -91 2278 -91 
Q 1894 -91 1617 61 
Q 1341 213 1159 525 
L 1159 0 
L 581 0 
L 581 4863 
L 1159 4863 
L 1159 2969 
z
" transform="scale(0.015625)"/>
      <path id="DejaVuSans-3d" d="M 678 2906 
L 4684 2906 
L 4684 2381 
L 678 2381 
L 678 2906 
z
M 678 1631 
L 4684 1631 
L 4684 1100 
L 678 1100 
L 678 1631 
z
" transform="scale(0.015625)"/>
      <path id="DejaVuSans-2e" d="M 684 794 
L 1344 794 
L 1344 0 
L 684 0 
L 684 794 
z
" transform="scale(0.015625)"/>
     </defs>
     <use xlink:href="#DejaVuSans-3b6"/>
     <use xlink:href="#DejaVuSans-2d" x="54.394531"/>
     <use xlink:href="#DejaVuSans-45" x="90.478516"/>
     <use xlink:href="#DejaVuSans-42" x="153.662109"/>
     <use xlink:href="#DejaVuSans-20" x="222.265625"/>
     <use xlink:href="#DejaVuSans-61" x="254.052734"/>
     <use xlink:href="#DejaVuSans-67" x="315.332031"/>
     <use xlink:href="#DejaVuSans-65" x="378.808594"/>
     <use xlink:href="#DejaVuSans-6e" x="440.332031"/>
     <use xlink:href="#DejaVuSans-74" x="503.710938"/>
     <use xlink:href="#DejaVuSans-20" x="542.919922"/>
     <use xlink:href="#DejaVuSans-70" x="574.707031"/>
     <use xlink:href="#DejaVuSans-6f" x="638.183594"/>
     <use xlink:href="#DejaVuSans-6c" x="699.365234"/>
     <use xlink:href="#DejaVuSans-69" x="727.148438"/>
     <use xlink:href="#DejaVuSans-63" x="754.931641"/>
     <use xlink:href="#DejaVuSans-79" x="809.912109"/>
     <use xlink:href="#DejaVuSans-20" x="869.091797"/>
     <use xlink:href="#DejaVuSans-77" x="900.878906"/>
     <use xlink:href="#DejaVuSans-69" x="982.666016"/>
     <use xlink:href="#DejaVuSans-74" x="1010.449219"/>
     <use xlink:href="#DejaVuSans-68" x="1049.658203"/>
     <use xlink:href="#DejaVuSans-20" x="1113.037109"/>
     <use xlink:href="#DejaVuSans-62" x="1144.824219"/>
     <use xlink:href="#DejaVuSans-65" x="1208.300781"/>
     <use xlink:href="#DejaVuSans-74" x="1269.824219"/>
     <use xlink:href="#DejaVuSans-61" x="1309.033203"/>
     <use xlink:href="#DejaVuSans-20" x="1370.3125"/>
     <use xlink:href="#DejaVuSans-3d" x="1402.099609"/>
     <use xlink:href="#DejaVuSans-20" x="1485.888672"/>
     <use xlink:href="#DejaVuSans-33" x="1517.675781"/>
     <use xlink:href="#DejaVuSans-2e" x="1581.298828"/>
     <use xlink:href="#DejaVuSans-30" x="1613.085938"/>
    </g>
   </g>
   <g id="legend_1">
    <g id="patch_7">
     <path d="M 297.796875 115.950625 
L 381.8 115.950625 
Q 383.8 115.950625 383.8 113.950625 
L 383.8 41.56 
Q 383.8 39.56 381.8 39.56 
L 297.796875 39.56 
Q 295.796875 39.56 295.796875 41.56 
L 295.796875 113.950625 
Q 295.796875 115.950625 297.796875 115.950625 
z
" style="fill: #ffffff; opacity: 0.8; stroke: #cccccc; stroke-linejoin: miter"/>
    </g>
    <g id="line2d_34">
     <path d="M 299.796875 47.658437 
L 309.796875 47.658437 
L 319.796875 47.658437 
" style="fill: none; stroke: #9d02d7; stroke-width: 1.5; stroke-linecap: square"/>
     <g>
      <use xlink:href="#mefdce20be1" x="309.796875" y="47.658437" style="fill: #9d02d7; stroke: #9d02d7; stroke-linejoin: miter"/>
     </g>
    </g>
    <g id="text_18">
     <!-- alpha=0.1 -->
     <g transform="translate(327.796875 51.158437)scale(0.1 -0.1)">
      <use xlink:href="#DejaVuSans-61"/>
      <use xlink:href="#DejaVuSans-6c" x="61.279297"/>
      <use xlink:href="#DejaVuSans-70" x="89.0625"/>
      <use xlink:href="#DejaVuSans-68" x="152.539062"/>
      <use xlink:href="#DejaVuSans-61" x="215.917969"/>
      <use xlink:href="#DejaVuSans-3d" x="277.197266"/>
      <use xlink:href="#DejaVuSans-30" x="360.986328"/>
      <use xlink:href="#DejaVuSans-2e" x="424.609375"/>
      <use xlink:href="#DejaVuSans-31" x="456.396484"/>
     </g>
    </g>
    <g id="line2d_35">
     <path d="M 299.796875 62.336562 
L 309.796875 62.336562 
L 319.796875 62.336562 
" style="fill: none; stroke: #0000ff; stroke-width: 1.5; stroke-linecap: square"/>
     <g>
      <use xlink:href="#m8e2239fafe" x="309.796875" y="62.336562" style="fill: #0000ff; stroke: #0000ff"/>
     </g>
    </g>
    <g id="text_19">
     <!-- alpha=0.5 -->
     <g transform="translate(327.796875 65.836562)scale(0.1 -0.1)">
      <use xlink:href="#DejaVuSans-61"/>
      <use xlink:href="#DejaVuSans-6c" x="61.279297"/>
      <use xlink:href="#DejaVuSans-70" x="89.0625"/>
      <use xlink:href="#DejaVuSans-68" x="152.539062"/>
      <use xlink:href="#DejaVuSans-61" x="215.917969"/>
      <use xlink:href="#DejaVuSans-3d" x="277.197266"/>
      <use xlink:href="#DejaVuSans-30" x="360.986328"/>
      <use xlink:href="#DejaVuSans-2e" x="424.609375"/>
      <use xlink:href="#DejaVuSans-35" x="456.396484"/>
     </g>
    </g>
    <g id="line2d_36">
     <path d="M 299.796875 77.014687 
L 309.796875 77.014687 
L 319.796875 77.014687 
" style="fill: none; stroke: #ff7763; stroke-width: 1.5; stroke-linecap: square"/>
     <g>
      <use xlink:href="#m8b76111fee" x="309.796875" y="77.014687" style="fill: #ff7763; stroke: #ff7763"/>
     </g>
    </g>
    <g id="text_20">
     <!-- alpha=1.0 -->
     <g transform="translate(327.796875 80.514687)scale(0.1 -0.1)">
      <use xlink:href="#DejaVuSans-61"/>
      <use xlink:href="#DejaVuSans-6c" x="61.279297"/>
      <use xlink:href="#DejaVuSans-70" x="89.0625"/>
      <use xlink:href="#DejaVuSans-68" x="152.539062"/>
      <use xlink:href="#DejaVuSans-61" x="215.917969"/>
      <use xlink:href="#DejaVuSans-3d" x="277.197266"/>
      <use xlink:href="#DejaVuSans-31" x="360.986328"/>
      <use xlink:href="#DejaVuSans-2e" x="424.609375"/>
      <use xlink:href="#DejaVuSans-30" x="456.396484"/>
     </g>
    </g>
    <g id="line2d_37">
     <path d="M 299.796875 91.692813 
L 309.796875 91.692813 
L 319.796875 91.692813 
" style="fill: none; stroke: #ffac1e; stroke-width: 1.5; stroke-linecap: square"/>
     <g>
      <use xlink:href="#m04502290f2" x="309.796875" y="91.692813" style="fill: #ffac1e; stroke: #ffac1e; stroke-linejoin: bevel"/>
     </g>
    </g>
    <g id="text_21">
     <!-- alpha=1.5 -->
     <g transform="translate(327.796875 95.192813)scale(0.1 -0.1)">
      <use xlink:href="#DejaVuSans-61"/>
      <use xlink:href="#DejaVuSans-6c" x="61.279297"/>
      <use xlink:href="#DejaVuSans-70" x="89.0625"/>
      <use xlink:href="#DejaVuSans-68" x="152.539062"/>
      <use xlink:href="#DejaVuSans-61" x="215.917969"/>
      <use xlink:href="#DejaVuSans-3d" x="277.197266"/>
      <use xlink:href="#DejaVuSans-31" x="360.986328"/>
      <use xlink:href="#DejaVuSans-2e" x="424.609375"/>
      <use xlink:href="#DejaVuSans-35" x="456.396484"/>
     </g>
    </g>
    <g id="line2d_38">
     <path d="M 299.796875 106.370937 
L 309.796875 106.370937 
L 319.796875 106.370937 
" style="fill: none; stroke: #009435; stroke-width: 1.5; stroke-linecap: square"/>
     <g>
      <use xlink:href="#m45862ae638" x="309.796875" y="106.370937" style="fill: #009435; stroke: #009435; stroke-linejoin: miter"/>
     </g>
    </g>
    <g id="text_22">
     <!-- alpha=2.0 -->
     <g transform="translate(327.796875 109.870937)scale(0.1 -0.1)">
      <use xlink:href="#DejaVuSans-61"/>
      <use xlink:href="#DejaVuSans-6c" x="61.279297"/>
      <use xlink:href="#DejaVuSans-70" x="89.0625"/>
      <use xlink:href="#DejaVuSans-68" x="152.539062"/>
      <use xlink:href="#DejaVuSans-61" x="215.917969"/>
      <use xlink:href="#DejaVuSans-3d" x="277.197266"/>
      <use xlink:href="#DejaVuSans-32" x="360.986328"/>
      <use xlink:href="#DejaVuSans-2e" x="424.609375"/>
      <use xlink:href="#DejaVuSans-30" x="456.396484"/>
     </g>
    </g>
   </g>
  </g>
 </g>
 <defs>
  <clipPath id="pce8b3742a8">
   <rect x="54" y="34.56" width="334.8" height="217.44"/>
  </clipPath>
 </defs>
</svg>
