<?xml version="1.0" encoding="utf-8" standalone="no"?>
<!DOCTYPE svg PUBLIC "-//W3C//DTD SVG 1.1//EN"
  "http://www.w3.org/Graphics/SVG/1.1/DTD/svg11.dtd">
<svg xmlns:xlink="http://www.w3.org/1999/xlink" width="432pt" height="288pt" viewBox="0 0 432 288" xmlns="http://www.w3.org/2000/svg" version="1.1">
 <metadata>
  <rdf:RDF xmlns:dc="http://purl.org/dc/elements/1.1/" xmlns:cc="http://creativecommons.org/ns#" xmlns:rdf="http://www.w3.org/1999/02/22-rdf-syntax-ns#">
   <cc:Work>
    <dc:type rdf:resource="http://purl.org/dc/dcmitype/StillImage"/>
    <dc:date>2023-01-11T15:36:34.760159</dc:date>
    <dc:format>image/svg+xml</dc:format>
    <dc:creator>
     <cc:Agent>
      <dc:title>Matplotlib v3.5.2, https://matplotlib.org/</dc:title>
     </cc:Agent>
    </dc:creator>
   </cc:Work>
  </rdf:RDF>
 </metadata>
 <defs>
  <style type="text/css">*{stroke-linejoin: round; stroke-linecap: butt}</style>
 </defs>
 <g id="figure_1">
  <g id="patch_1">
   <path d="M 0 288 
L 432 288 
L 432 0 
L 0 0 
z
" style="fill: #ffffff"/>
  </g>
  <g id="axes_1">
   <g id="patch_2">
    <path d="M 54 252 
L 388.8 252 
L 388.8 34.56 
L 54 34.56 
z
" style="fill: #ffffff"/>
   </g>
   <g id="PolyCollection_1">
    <defs>
     <path id="me0626ac686" d="M 69.218182 -35.091182 
L 69.218182 -35.091182 
L 74.376888 -35.282459 
L 79.535593 -34.845442 
L 84.694299 -28.639507 
L 89.853005 -128.132121 
L 95.01171 -201.098221 
L 100.170416 -200.718563 
L 105.329122 -235.498139 
L 110.487827 -218.945458 
L 115.646533 -239.781483 
L 120.805239 -238.851546 
L 125.963945 -239.85675 
L 131.12265 -240.015473 
L 136.281356 -239.68603 
L 141.440062 -239.097298 
L 146.598767 -239.406333 
L 151.757473 -239.228903 
L 156.916179 -239.794292 
L 162.074884 -239.599522 
L 167.23359 -239.298173 
L 172.392296 -238.887287 
L 177.551002 -239.675256 
L 182.709707 -239.40183 
L 187.868413 -239.834108 
L 193.027119 -239.528441 
L 198.185824 -228.715731 
L 203.34453 -238.867273 
L 208.503236 -239.952499 
L 213.661941 -239.876085 
L 218.820647 -239.952759 
L 223.979353 -239.593525 
L 229.138059 -239.952759 
L 234.296764 -239.51132 
L 239.45547 -239.538869 
L 244.614176 -239.907674 
L 249.772881 -239.860026 
L 254.931587 -240.239188 
L 260.090293 -239.200914 
L 265.248998 -240.020472 
L 270.407704 -239.331833 
L 275.56641 -240.046659 
L 280.725116 -239.185458 
L 285.883821 -240.182956 
L 291.042527 -239.197757 
L 296.201233 -239.845215 
L 301.359938 -239.869462 
L 306.518644 -239.945038 
L 311.67735 -239.55472 
L 316.836055 -239.331833 
L 321.994761 -239.632889 
L 327.153467 -239.644577 
L 332.312173 -239.197757 
L 337.470878 -240.253469 
L 342.629584 -239.845215 
L 347.78829 -239.632889 
L 352.946995 -240.239188 
L 358.105701 -239.644577 
L 363.264407 -239.840295 
L 368.423112 -239.632889 
L 373.581818 -240.092767 
L 373.581818 -240.092767 
L 373.581818 -240.092767 
L 368.423112 -239.632889 
L 363.264407 -239.840295 
L 358.105701 -239.644577 
L 352.946995 -240.239188 
L 347.78829 -239.632889 
L 342.629584 -239.845215 
L 337.470878 -240.253469 
L 332.312173 -239.197757 
L 327.153467 -239.644577 
L 321.994761 -239.632889 
L 316.836055 -239.331833 
L 311.67735 -239.55472 
L 306.518644 -239.945038 
L 301.359938 -239.869462 
L 296.201233 -239.845215 
L 291.042527 -239.197757 
L 285.883821 -240.182956 
L 280.725116 -239.185458 
L 275.56641 -240.046659 
L 270.407704 -239.331833 
L 265.248998 -240.020472 
L 260.090293 -239.200914 
L 254.931587 -240.239188 
L 249.772881 -239.860026 
L 244.614176 -239.907674 
L 239.45547 -239.538869 
L 234.296764 -239.51132 
L 229.138059 -239.952759 
L 223.979353 -239.593525 
L 218.820647 -239.952759 
L 213.661941 -239.876085 
L 208.503236 -239.952499 
L 203.34453 -238.867273 
L 198.185824 -228.715731 
L 193.027119 -239.528441 
L 187.868413 -239.834108 
L 182.709707 -239.40183 
L 177.551002 -239.675256 
L 172.392296 -238.887287 
L 167.23359 -239.298173 
L 162.074884 -239.599522 
L 156.916179 -239.794292 
L 151.757473 -239.228903 
L 146.598767 -239.406333 
L 141.440062 -239.097298 
L 136.281356 -239.68603 
L 131.12265 -240.015473 
L 125.963945 -239.85675 
L 120.805239 -238.851546 
L 115.646533 -239.781483 
L 110.487827 -218.945458 
L 105.329122 -235.498139 
L 100.170416 -200.718563 
L 95.01171 -201.098221 
L 89.853005 -128.132121 
L 84.694299 -28.639507 
L 79.535593 -34.845442 
L 74.376888 -35.282459 
L 69.218182 -35.091182 
z
" style="stroke: #9d02d7; stroke-opacity: 0.2"/>
    </defs>
    <g clip-path="url(#pcf8c5a89b0)">
     <use xlink:href="#me0626ac686" x="0" y="288" style="fill: #9d02d7; fill-opacity: 0.2; stroke: #9d02d7; stroke-opacity: 0.2"/>
    </g>
   </g>
   <g id="PolyCollection_2">
    <defs>
     <path id="m680bb2bcdb" d="M 69.218182 -34.663389 
L 69.218182 -34.663389 
L 74.376888 -59.043603 
L 79.535593 -24.678532 
L 84.694299 -29.547339 
L 89.853005 -46.209198 
L 95.01171 -199.881377 
L 100.170416 -65.299233 
L 105.329122 -224.514979 
L 110.487827 -160.029261 
L 115.646533 -229.899366 
L 120.805239 -228.813792 
L 125.963945 -224.515844 
L 131.12265 -224.666392 
L 136.281356 -224.465998 
L 141.440062 -240.673159 
L 146.598767 -240.672923 
L 151.757473 -240.732735 
L 156.916179 -239.850334 
L 162.074884 -240.732766 
L 167.23359 -240.733167 
L 172.392296 -240.67811 
L 177.551002 -240.653764 
L 182.709707 -240.648813 
L 187.868413 -240.733167 
L 193.027119 -240.765833 
L 198.185824 -240.673159 
L 203.34453 -240.673159 
L 208.503236 -240.678075 
L 213.661941 -228.625988 
L 218.820647 -228.634749 
L 223.979353 -240.672904 
L 229.138059 -240.672923 
L 234.296764 -240.648559 
L 239.45547 -240.653729 
L 244.614176 -240.653764 
L 249.772881 -240.653764 
L 254.931587 -240.653729 
L 260.090293 -240.678075 
L 265.248998 -240.653764 
L 270.407704 -240.648813 
L 275.56641 -240.678075 
L 280.725116 -240.7571 
L 285.883821 -240.732735 
L 291.042527 -240.7571 
L 296.201233 -240.757069 
L 301.359938 -240.757069 
L 306.518644 -240.732766 
L 311.67735 -240.74156 
L 316.836055 -240.757069 
L 321.994761 -240.732766 
L 327.153467 -240.765893 
L 332.312173 -240.757069 
L 337.470878 -240.765833 
L 342.629584 -240.732766 
L 347.78829 -240.733167 
L 352.946995 -240.7571 
L 358.105701 -240.757501 
L 363.264407 -240.765893 
L 368.423112 -240.765893 
L 373.581818 -240.653729 
L 373.581818 -240.653729 
L 373.581818 -240.653729 
L 368.423112 -240.765893 
L 363.264407 -240.765893 
L 358.105701 -240.757501 
L 352.946995 -240.7571 
L 347.78829 -240.733167 
L 342.629584 -240.732766 
L 337.470878 -240.765833 
L 332.312173 -240.757069 
L 327.153467 -240.765893 
L 321.994761 -240.732766 
L 316.836055 -240.757069 
L 311.67735 -240.74156 
L 306.518644 -240.732766 
L 301.359938 -240.757069 
L 296.201233 -240.757069 
L 291.042527 -240.7571 
L 285.883821 -240.732735 
L 280.725116 -240.7571 
L 275.56641 -240.678075 
L 270.407704 -240.648813 
L 265.248998 -240.653764 
L 260.090293 -240.678075 
L 254.931587 -240.653729 
L 249.772881 -240.653764 
L 244.614176 -240.653764 
L 239.45547 -240.653729 
L 234.296764 -240.648559 
L 229.138059 -240.672923 
L 223.979353 -240.672904 
L 218.820647 -228.634749 
L 213.661941 -228.625988 
L 208.503236 -240.678075 
L 203.34453 -240.673159 
L 198.185824 -240.673159 
L 193.027119 -240.765833 
L 187.868413 -240.733167 
L 182.709707 -240.648813 
L 177.551002 -240.653764 
L 172.392296 -240.67811 
L 167.23359 -240.733167 
L 162.074884 -240.732766 
L 156.916179 -239.850334 
L 151.757473 -240.732735 
L 146.598767 -240.672923 
L 141.440062 -240.673159 
L 136.281356 -224.465998 
L 131.12265 -224.666392 
L 125.963945 -224.515844 
L 120.805239 -228.813792 
L 115.646533 -229.899366 
L 110.487827 -160.029261 
L 105.329122 -224.514979 
L 100.170416 -65.299233 
L 95.01171 -199.881377 
L 89.853005 -46.209198 
L 84.694299 -29.547339 
L 79.535593 -24.678532 
L 74.376888 -59.043603 
L 69.218182 -34.663389 
z
" style="stroke: #0000ff; stroke-opacity: 0.2"/>
    </defs>
    <g clip-path="url(#pcf8c5a89b0)">
     <use xlink:href="#m680bb2bcdb" x="0" y="288" style="fill: #0000ff; fill-opacity: 0.2; stroke: #0000ff; stroke-opacity: 0.2"/>
    </g>
   </g>
   <g id="PolyCollection_3">
    <defs>
     <path id="m8c39a2da46" d="M 69.218182 -34.609453 
L 69.218182 -34.609453 
L 74.376888 -11.634803 
L 79.535593 -33.641209 
L 84.694299 -41.794005 
L 89.853005 -18.493492 
L 95.01171 -161.096741 
L 100.170416 -207.489441 
L 105.329122 -162.899731 
L 110.487827 -132.642718 
L 115.646533 -234.262752 
L 120.805239 -225.671016 
L 125.963945 -238.878382 
L 131.12265 -238.878382 
L 136.281356 -238.878382 
L 141.440062 -239.162649 
L 146.598767 -239.162649 
L 151.757473 -239.162649 
L 156.916179 -239.162649 
L 162.074884 -231.250487 
L 167.23359 -237.090161 
L 172.392296 -237.440768 
L 177.551002 -240.798451 
L 182.709707 -240.966765 
L 187.868413 -244.859768 
L 193.027119 -244.859768 
L 198.185824 -244.859768 
L 203.34453 -244.859768 
L 208.503236 -244.859768 
L 213.661941 -244.859768 
L 218.820647 -242.706429 
L 223.979353 -244.859768 
L 229.138059 -244.859768 
L 234.296764 -244.859768 
L 239.45547 -244.859768 
L 244.614176 -244.859768 
L 249.772881 -244.859768 
L 254.931587 -244.859768 
L 260.090293 -244.859768 
L 265.248998 -244.859768 
L 270.407704 -244.859768 
L 275.56641 -244.859768 
L 280.725116 -244.859768 
L 285.883821 -244.859768 
L 291.042527 -244.859768 
L 296.201233 -244.859768 
L 301.359938 -244.859768 
L 306.518644 -244.859768 
L 311.67735 -244.859768 
L 316.836055 -244.859768 
L 321.994761 -244.859768 
L 327.153467 -244.859768 
L 332.312173 -244.859768 
L 337.470878 -244.859768 
L 342.629584 -244.859768 
L 347.78829 -244.859768 
L 352.946995 -244.859768 
L 358.105701 -244.859768 
L 363.264407 -244.859768 
L 368.423112 -244.859768 
L 373.581818 -244.859768 
L 373.581818 -244.859768 
L 373.581818 -244.859768 
L 368.423112 -244.859768 
L 363.264407 -244.859768 
L 358.105701 -244.859768 
L 352.946995 -244.859768 
L 347.78829 -244.859768 
L 342.629584 -244.859768 
L 337.470878 -244.859768 
L 332.312173 -244.859768 
L 327.153467 -244.859768 
L 321.994761 -244.859768 
L 316.836055 -244.859768 
L 311.67735 -244.859768 
L 306.518644 -244.859768 
L 301.359938 -244.859768 
L 296.201233 -244.859768 
L 291.042527 -244.859768 
L 285.883821 -244.859768 
L 280.725116 -244.859768 
L 275.56641 -244.859768 
L 270.407704 -244.859768 
L 265.248998 -244.859768 
L 260.090293 -244.859768 
L 254.931587 -244.859768 
L 249.772881 -244.859768 
L 244.614176 -244.859768 
L 239.45547 -244.859768 
L 234.296764 -244.859768 
L 229.138059 -244.859768 
L 223.979353 -244.859768 
L 218.820647 -242.706429 
L 213.661941 -244.859768 
L 208.503236 -244.859768 
L 203.34453 -244.859768 
L 198.185824 -244.859768 
L 193.027119 -244.859768 
L 187.868413 -244.859768 
L 182.709707 -240.966765 
L 177.551002 -240.798451 
L 172.392296 -237.440768 
L 167.23359 -237.090161 
L 162.074884 -231.250487 
L 156.916179 -239.162649 
L 151.757473 -239.162649 
L 146.598767 -239.162649 
L 141.440062 -239.162649 
L 136.281356 -238.878382 
L 131.12265 -238.878382 
L 125.963945 -238.878382 
L 120.805239 -225.671016 
L 115.646533 -234.262752 
L 110.487827 -132.642718 
L 105.329122 -162.899731 
L 100.170416 -207.489441 
L 95.01171 -161.096741 
L 89.853005 -18.493492 
L 84.694299 -41.794005 
L 79.535593 -33.641209 
L 74.376888 -11.634803 
L 69.218182 -34.609453 
z
" style="stroke: #ff7763; stroke-opacity: 0.2"/>
    </defs>
    <g clip-path="url(#pcf8c5a89b0)">
     <use xlink:href="#m8c39a2da46" x="0" y="288" style="fill: #ff7763; fill-opacity: 0.2; stroke: #ff7763; stroke-opacity: 0.2"/>
    </g>
   </g>
   <g id="PolyCollection_4">
    <defs>
     <path id="mfcd9e94854" d="M 69.218182 -35.076597 
L 69.218182 -35.076597 
L 74.376888 -30.755439 
L 79.535593 -30.784979 
L 84.694299 -46.454326 
L 89.853005 -56.316869 
L 95.01171 -184.49131 
L 100.170416 -235.935911 
L 105.329122 -236.536909 
L 110.487827 -237.803749 
L 115.646533 -236.390171 
L 120.805239 -238.237532 
L 125.963945 -238.587218 
L 131.12265 -210.108478 
L 136.281356 -211.064656 
L 141.440062 -219.069202 
L 146.598767 -231.078749 
L 151.757473 -219.683077 
L 156.916179 -230.281054 
L 162.074884 -236.725409 
L 167.23359 -235.770336 
L 172.392296 -236.725409 
L 177.551002 -235.770336 
L 182.709707 -236.725409 
L 187.868413 -229.563392 
L 193.027119 -219.683077 
L 198.185824 -218.028147 
L 203.34453 -229.170662 
L 208.503236 -219.069202 
L 213.661941 -229.170662 
L 218.820647 -235.832132 
L 223.979353 -235.832132 
L 229.138059 -236.855143 
L 234.296764 -236.855143 
L 239.45547 -237.922893 
L 244.614176 -237.922893 
L 249.772881 -237.443343 
L 254.931587 -237.443343 
L 260.090293 -236.855143 
L 265.248998 -226.294635 
L 270.407704 -237.443343 
L 275.56641 -237.443343 
L 280.725116 -237.443343 
L 285.883821 -237.443343 
L 291.042527 -237.443343 
L 296.201233 -242.052146 
L 301.359938 -242.052146 
L 306.518644 -242.052146 
L 311.67735 -241.577027 
L 316.836055 -241.577027 
L 321.994761 -241.577027 
L 327.153467 -241.577027 
L 332.312173 -241.577027 
L 337.470878 -242.052146 
L 342.629584 -242.052146 
L 347.78829 -242.052146 
L 352.946995 -237.443343 
L 358.105701 -236.855143 
L 363.264407 -242.052146 
L 368.423112 -242.052146 
L 373.581818 -242.052146 
L 373.581818 -242.052146 
L 373.581818 -242.052146 
L 368.423112 -242.052146 
L 363.264407 -242.052146 
L 358.105701 -236.855143 
L 352.946995 -237.443343 
L 347.78829 -242.052146 
L 342.629584 -242.052146 
L 337.470878 -242.052146 
L 332.312173 -241.577027 
L 327.153467 -241.577027 
L 321.994761 -241.577027 
L 316.836055 -241.577027 
L 311.67735 -241.577027 
L 306.518644 -242.052146 
L 301.359938 -242.052146 
L 296.201233 -242.052146 
L 291.042527 -237.443343 
L 285.883821 -237.443343 
L 280.725116 -237.443343 
L 275.56641 -237.443343 
L 270.407704 -237.443343 
L 265.248998 -226.294635 
L 260.090293 -236.855143 
L 254.931587 -237.443343 
L 249.772881 -237.443343 
L 244.614176 -237.922893 
L 239.45547 -237.922893 
L 234.296764 -236.855143 
L 229.138059 -236.855143 
L 223.979353 -235.832132 
L 218.820647 -235.832132 
L 213.661941 -229.170662 
L 208.503236 -219.069202 
L 203.34453 -229.170662 
L 198.185824 -218.028147 
L 193.027119 -219.683077 
L 187.868413 -229.563392 
L 182.709707 -236.725409 
L 177.551002 -235.770336 
L 172.392296 -236.725409 
L 167.23359 -235.770336 
L 162.074884 -236.725409 
L 156.916179 -230.281054 
L 151.757473 -219.683077 
L 146.598767 -231.078749 
L 141.440062 -219.069202 
L 136.281356 -211.064656 
L 131.12265 -210.108478 
L 125.963945 -238.587218 
L 120.805239 -238.237532 
L 115.646533 -236.390171 
L 110.487827 -237.803749 
L 105.329122 -236.536909 
L 100.170416 -235.935911 
L 95.01171 -184.49131 
L 89.853005 -56.316869 
L 84.694299 -46.454326 
L 79.535593 -30.784979 
L 74.376888 -30.755439 
L 69.218182 -35.076597 
z
" style="stroke: #ffac1e; stroke-opacity: 0.2"/>
    </defs>
    <g clip-path="url(#pcf8c5a89b0)">
     <use xlink:href="#mfcd9e94854" x="0" y="288" style="fill: #ffac1e; fill-opacity: 0.2; stroke: #ffac1e; stroke-opacity: 0.2"/>
    </g>
   </g>
   <g id="PolyCollection_5">
    <defs>
     <path id="m9bdb01c856" d="M 69.218182 -32.410766 
L 69.218182 -32.410766 
L 74.376888 -23.170083 
L 79.535593 -31.588638 
L 84.694299 -29.799328 
L 89.853005 -178.482398 
L 95.01171 -33.641786 
L 100.170416 -233.863723 
L 105.329122 -210.813937 
L 110.487827 -212.568987 
L 115.646533 -233.863723 
L 120.805239 -230.808032 
L 125.963945 -224.765874 
L 131.12265 -221.051318 
L 136.281356 -220.104002 
L 141.440062 -230.85757 
L 146.598767 -230.85757 
L 151.757473 -230.85757 
L 156.916179 -227.445427 
L 162.074884 -230.85757 
L 167.23359 -230.857571 
L 172.392296 -230.85757 
L 177.551002 -230.857571 
L 182.709707 -230.85757 
L 187.868413 -230.85757 
L 193.027119 -224.970305 
L 198.185824 -224.970305 
L 203.34453 -214.65995 
L 208.503236 -214.65995 
L 213.661941 -235.636824 
L 218.820647 -235.636824 
L 223.979353 -230.85757 
L 229.138059 -230.85757 
L 234.296764 -235.636824 
L 239.45547 -235.636824 
L 244.614176 -235.636824 
L 249.772881 -235.636824 
L 254.931587 -235.636824 
L 260.090293 -235.636824 
L 265.248998 -235.636824 
L 270.407704 -235.636824 
L 275.56641 -235.636824 
L 280.725116 -235.636824 
L 285.883821 -235.636824 
L 291.042527 -235.636824 
L 296.201233 -235.636824 
L 301.359938 -235.636824 
L 306.518644 -236.26003 
L 311.67735 -235.636824 
L 316.836055 -235.636824 
L 321.994761 -235.636824 
L 327.153467 -236.26003 
L 332.312173 -236.26003 
L 337.470878 -236.26003 
L 342.629584 -236.26003 
L 347.78829 -236.26003 
L 352.946995 -236.26003 
L 358.105701 -236.26003 
L 363.264407 -236.26003 
L 368.423112 -236.26003 
L 373.581818 -236.26003 
L 373.581818 -236.26003 
L 373.581818 -236.26003 
L 368.423112 -236.26003 
L 363.264407 -236.26003 
L 358.105701 -236.26003 
L 352.946995 -236.26003 
L 347.78829 -236.26003 
L 342.629584 -236.26003 
L 337.470878 -236.26003 
L 332.312173 -236.26003 
L 327.153467 -236.26003 
L 321.994761 -235.636824 
L 316.836055 -235.636824 
L 311.67735 -235.636824 
L 306.518644 -236.26003 
L 301.359938 -235.636824 
L 296.201233 -235.636824 
L 291.042527 -235.636824 
L 285.883821 -235.636824 
L 280.725116 -235.636824 
L 275.56641 -235.636824 
L 270.407704 -235.636824 
L 265.248998 -235.636824 
L 260.090293 -235.636824 
L 254.931587 -235.636824 
L 249.772881 -235.636824 
L 244.614176 -235.636824 
L 239.45547 -235.636824 
L 234.296764 -235.636824 
L 229.138059 -230.85757 
L 223.979353 -230.85757 
L 218.820647 -235.636824 
L 213.661941 -235.636824 
L 208.503236 -214.65995 
L 203.34453 -214.65995 
L 198.185824 -224.970305 
L 193.027119 -224.970305 
L 187.868413 -230.85757 
L 182.709707 -230.85757 
L 177.551002 -230.857571 
L 172.392296 -230.85757 
L 167.23359 -230.857571 
L 162.074884 -230.85757 
L 156.916179 -227.445427 
L 151.757473 -230.85757 
L 146.598767 -230.85757 
L 141.440062 -230.85757 
L 136.281356 -220.104002 
L 131.12265 -221.051318 
L 125.963945 -224.765874 
L 120.805239 -230.808032 
L 115.646533 -233.863723 
L 110.487827 -212.568987 
L 105.329122 -210.813937 
L 100.170416 -233.863723 
L 95.01171 -33.641786 
L 89.853005 -178.482398 
L 84.694299 -29.799328 
L 79.535593 -31.588638 
L 74.376888 -23.170083 
L 69.218182 -32.410766 
z
" style="stroke: #009435; stroke-opacity: 0.2"/>
    </defs>
    <g clip-path="url(#pcf8c5a89b0)">
     <use xlink:href="#m9bdb01c856" x="0" y="288" style="fill: #009435; fill-opacity: 0.2; stroke: #009435; stroke-opacity: 0.2"/>
    </g>
   </g>
   <g id="matplotlib.axis_1">
    <g id="xtick_1">
     <g id="line2d_1">
      <path d="M 69.218182 252 
L 69.218182 34.56 
" clip-path="url(#pcf8c5a89b0)" style="fill: none; stroke-dasharray: 2.96,1.28; stroke-dashoffset: 0; stroke: #b0b0b0; stroke-width: 0.8"/>
     </g>
     <g id="line2d_2">
      <defs>
       <path id="mcffb570ebb" d="M 0 0 
L 0 3.5 
" style="stroke: #000000; stroke-width: 0.8"/>
      </defs>
      <g>
       <use xlink:href="#mcffb570ebb" x="69.218182" y="252" style="stroke: #000000; stroke-width: 0.8"/>
      </g>
     </g>
     <g id="text_1">
      <!-- 0 -->
      <g transform="translate(66.036932 266.598437)scale(0.1 -0.1)">
       <defs>
        <path id="DejaVuSans-30" d="M 2034 4250 
Q 1547 4250 1301 3770 
Q 1056 3291 1056 2328 
Q 1056 1369 1301 889 
Q 1547 409 2034 409 
Q 2525 409 2770 889 
Q 3016 1369 3016 2328 
Q 3016 3291 2770 3770 
Q 2525 4250 2034 4250 
z
M 2034 4750 
Q 2819 4750 3233 4129 
Q 3647 3509 3647 2328 
Q 3647 1150 3233 529 
Q 2819 -91 2034 -91 
Q 1250 -91 836 529 
Q 422 1150 422 2328 
Q 422 3509 836 4129 
Q 1250 4750 2034 4750 
z
" transform="scale(0.015625)"/>
       </defs>
       <use xlink:href="#DejaVuSans-30"/>
      </g>
     </g>
    </g>
    <g id="xtick_2">
     <g id="line2d_3">
      <path d="M 120.805239 252 
L 120.805239 34.56 
" clip-path="url(#pcf8c5a89b0)" style="fill: none; stroke-dasharray: 2.96,1.28; stroke-dashoffset: 0; stroke: #b0b0b0; stroke-width: 0.8"/>
     </g>
     <g id="line2d_4">
      <g>
       <use xlink:href="#mcffb570ebb" x="120.805239" y="252" style="stroke: #000000; stroke-width: 0.8"/>
      </g>
     </g>
     <g id="text_2">
      <!-- 500 -->
      <g transform="translate(111.261489 266.598437)scale(0.1 -0.1)">
       <defs>
        <path id="DejaVuSans-35" d="M 691 4666 
L 3169 4666 
L 3169 4134 
L 1269 4134 
L 1269 2991 
Q 1406 3038 1543 3061 
Q 1681 3084 1819 3084 
Q 2600 3084 3056 2656 
Q 3513 2228 3513 1497 
Q 3513 744 3044 326 
Q 2575 -91 1722 -91 
Q 1428 -91 1123 -41 
Q 819 9 494 109 
L 494 744 
Q 775 591 1075 516 
Q 1375 441 1709 441 
Q 2250 441 2565 725 
Q 2881 1009 2881 1497 
Q 2881 1984 2565 2268 
Q 2250 2553 1709 2553 
Q 1456 2553 1204 2497 
Q 953 2441 691 2322 
L 691 4666 
z
" transform="scale(0.015625)"/>
       </defs>
       <use xlink:href="#DejaVuSans-35"/>
       <use xlink:href="#DejaVuSans-30" x="63.623047"/>
       <use xlink:href="#DejaVuSans-30" x="127.246094"/>
      </g>
     </g>
    </g>
    <g id="xtick_3">
     <g id="line2d_5">
      <path d="M 172.392296 252 
L 172.392296 34.56 
" clip-path="url(#pcf8c5a89b0)" style="fill: none; stroke-dasharray: 2.96,1.28; stroke-dashoffset: 0; stroke: #b0b0b0; stroke-width: 0.8"/>
     </g>
     <g id="line2d_6">
      <g>
       <use xlink:href="#mcffb570ebb" x="172.392296" y="252" style="stroke: #000000; stroke-width: 0.8"/>
      </g>
     </g>
     <g id="text_3">
      <!-- 1000 -->
      <g transform="translate(159.667296 266.598437)scale(0.1 -0.1)">
       <defs>
        <path id="DejaVuSans-31" d="M 794 531 
L 1825 531 
L 1825 4091 
L 703 3866 
L 703 4441 
L 1819 4666 
L 2450 4666 
L 2450 531 
L 3481 531 
L 3481 0 
L 794 0 
L 794 531 
z
" transform="scale(0.015625)"/>
       </defs>
       <use xlink:href="#DejaVuSans-31"/>
       <use xlink:href="#DejaVuSans-30" x="63.623047"/>
       <use xlink:href="#DejaVuSans-30" x="127.246094"/>
       <use xlink:href="#DejaVuSans-30" x="190.869141"/>
      </g>
     </g>
    </g>
    <g id="xtick_4">
     <g id="line2d_7">
      <path d="M 223.979353 252 
L 223.979353 34.56 
" clip-path="url(#pcf8c5a89b0)" style="fill: none; stroke-dasharray: 2.96,1.28; stroke-dashoffset: 0; stroke: #b0b0b0; stroke-width: 0.8"/>
     </g>
     <g id="line2d_8">
      <g>
       <use xlink:href="#mcffb570ebb" x="223.979353" y="252" style="stroke: #000000; stroke-width: 0.8"/>
      </g>
     </g>
     <g id="text_4">
      <!-- 1500 -->
      <g transform="translate(211.254353 266.598437)scale(0.1 -0.1)">
       <use xlink:href="#DejaVuSans-31"/>
       <use xlink:href="#DejaVuSans-35" x="63.623047"/>
       <use xlink:href="#DejaVuSans-30" x="127.246094"/>
       <use xlink:href="#DejaVuSans-30" x="190.869141"/>
      </g>
     </g>
    </g>
    <g id="xtick_5">
     <g id="line2d_9">
      <path d="M 275.56641 252 
L 275.56641 34.56 
" clip-path="url(#pcf8c5a89b0)" style="fill: none; stroke-dasharray: 2.96,1.28; stroke-dashoffset: 0; stroke: #b0b0b0; stroke-width: 0.8"/>
     </g>
     <g id="line2d_10">
      <g>
       <use xlink:href="#mcffb570ebb" x="275.56641" y="252" style="stroke: #000000; stroke-width: 0.8"/>
      </g>
     </g>
     <g id="text_5">
      <!-- 2000 -->
      <g transform="translate(262.84141 266.598437)scale(0.1 -0.1)">
       <defs>
        <path id="DejaVuSans-32" d="M 1228 531 
L 3431 531 
L 3431 0 
L 469 0 
L 469 531 
Q 828 903 1448 1529 
Q 2069 2156 2228 2338 
Q 2531 2678 2651 2914 
Q 2772 3150 2772 3378 
Q 2772 3750 2511 3984 
Q 2250 4219 1831 4219 
Q 1534 4219 1204 4116 
Q 875 4013 500 3803 
L 500 4441 
Q 881 4594 1212 4672 
Q 1544 4750 1819 4750 
Q 2544 4750 2975 4387 
Q 3406 4025 3406 3419 
Q 3406 3131 3298 2873 
Q 3191 2616 2906 2266 
Q 2828 2175 2409 1742 
Q 1991 1309 1228 531 
z
" transform="scale(0.015625)"/>
       </defs>
       <use xlink:href="#DejaVuSans-32"/>
       <use xlink:href="#DejaVuSans-30" x="63.623047"/>
       <use xlink:href="#DejaVuSans-30" x="127.246094"/>
       <use xlink:href="#DejaVuSans-30" x="190.869141"/>
      </g>
     </g>
    </g>
    <g id="xtick_6">
     <g id="line2d_11">
      <path d="M 327.153467 252 
L 327.153467 34.56 
" clip-path="url(#pcf8c5a89b0)" style="fill: none; stroke-dasharray: 2.96,1.28; stroke-dashoffset: 0; stroke: #b0b0b0; stroke-width: 0.8"/>
     </g>
     <g id="line2d_12">
      <g>
       <use xlink:href="#mcffb570ebb" x="327.153467" y="252" style="stroke: #000000; stroke-width: 0.8"/>
      </g>
     </g>
     <g id="text_6">
      <!-- 2500 -->
      <g transform="translate(314.428467 266.598437)scale(0.1 -0.1)">
       <use xlink:href="#DejaVuSans-32"/>
       <use xlink:href="#DejaVuSans-35" x="63.623047"/>
       <use xlink:href="#DejaVuSans-30" x="127.246094"/>
       <use xlink:href="#DejaVuSans-30" x="190.869141"/>
      </g>
     </g>
    </g>
    <g id="xtick_7">
     <g id="line2d_13">
      <path d="M 378.740524 252 
L 378.740524 34.56 
" clip-path="url(#pcf8c5a89b0)" style="fill: none; stroke-dasharray: 2.96,1.28; stroke-dashoffset: 0; stroke: #b0b0b0; stroke-width: 0.8"/>
     </g>
     <g id="line2d_14">
      <g>
       <use xlink:href="#mcffb570ebb" x="378.740524" y="252" style="stroke: #000000; stroke-width: 0.8"/>
      </g>
     </g>
     <g id="text_7">
      <!-- 3000 -->
      <g transform="translate(366.015524 266.598437)scale(0.1 -0.1)">
       <defs>
        <path id="DejaVuSans-33" d="M 2597 2516 
Q 3050 2419 3304 2112 
Q 3559 1806 3559 1356 
Q 3559 666 3084 287 
Q 2609 -91 1734 -91 
Q 1441 -91 1130 -33 
Q 819 25 488 141 
L 488 750 
Q 750 597 1062 519 
Q 1375 441 1716 441 
Q 2309 441 2620 675 
Q 2931 909 2931 1356 
Q 2931 1769 2642 2001 
Q 2353 2234 1838 2234 
L 1294 2234 
L 1294 2753 
L 1863 2753 
Q 2328 2753 2575 2939 
Q 2822 3125 2822 3475 
Q 2822 3834 2567 4026 
Q 2313 4219 1838 4219 
Q 1578 4219 1281 4162 
Q 984 4106 628 3988 
L 628 4550 
Q 988 4650 1302 4700 
Q 1616 4750 1894 4750 
Q 2613 4750 3031 4423 
Q 3450 4097 3450 3541 
Q 3450 3153 3228 2886 
Q 3006 2619 2597 2516 
z
" transform="scale(0.015625)"/>
       </defs>
       <use xlink:href="#DejaVuSans-33"/>
       <use xlink:href="#DejaVuSans-30" x="63.623047"/>
       <use xlink:href="#DejaVuSans-30" x="127.246094"/>
       <use xlink:href="#DejaVuSans-30" x="190.869141"/>
      </g>
     </g>
    </g>
    <g id="text_8">
     <!-- Steps -->
     <g transform="translate(207.410156 280.276563)scale(0.1 -0.1)">
      <defs>
       <path id="DejaVuSans-53" d="M 3425 4513 
L 3425 3897 
Q 3066 4069 2747 4153 
Q 2428 4238 2131 4238 
Q 1616 4238 1336 4038 
Q 1056 3838 1056 3469 
Q 1056 3159 1242 3001 
Q 1428 2844 1947 2747 
L 2328 2669 
Q 3034 2534 3370 2195 
Q 3706 1856 3706 1288 
Q 3706 609 3251 259 
Q 2797 -91 1919 -91 
Q 1588 -91 1214 -16 
Q 841 59 441 206 
L 441 856 
Q 825 641 1194 531 
Q 1563 422 1919 422 
Q 2459 422 2753 634 
Q 3047 847 3047 1241 
Q 3047 1584 2836 1778 
Q 2625 1972 2144 2069 
L 1759 2144 
Q 1053 2284 737 2584 
Q 422 2884 422 3419 
Q 422 4038 858 4394 
Q 1294 4750 2059 4750 
Q 2388 4750 2728 4690 
Q 3069 4631 3425 4513 
z
" transform="scale(0.015625)"/>
       <path id="DejaVuSans-74" d="M 1172 4494 
L 1172 3500 
L 2356 3500 
L 2356 3053 
L 1172 3053 
L 1172 1153 
Q 1172 725 1289 603 
Q 1406 481 1766 481 
L 2356 481 
L 2356 0 
L 1766 0 
Q 1100 0 847 248 
Q 594 497 594 1153 
L 594 3053 
L 172 3053 
L 172 3500 
L 594 3500 
L 594 4494 
L 1172 4494 
z
" transform="scale(0.015625)"/>
       <path id="DejaVuSans-65" d="M 3597 1894 
L 3597 1613 
L 953 1613 
Q 991 1019 1311 708 
Q 1631 397 2203 397 
Q 2534 397 2845 478 
Q 3156 559 3463 722 
L 3463 178 
Q 3153 47 2828 -22 
Q 2503 -91 2169 -91 
Q 1331 -91 842 396 
Q 353 884 353 1716 
Q 353 2575 817 3079 
Q 1281 3584 2069 3584 
Q 2775 3584 3186 3129 
Q 3597 2675 3597 1894 
z
M 3022 2063 
Q 3016 2534 2758 2815 
Q 2500 3097 2075 3097 
Q 1594 3097 1305 2825 
Q 1016 2553 972 2059 
L 3022 2063 
z
" transform="scale(0.015625)"/>
       <path id="DejaVuSans-70" d="M 1159 525 
L 1159 -1331 
L 581 -1331 
L 581 3500 
L 1159 3500 
L 1159 2969 
Q 1341 3281 1617 3432 
Q 1894 3584 2278 3584 
Q 2916 3584 3314 3078 
Q 3713 2572 3713 1747 
Q 3713 922 3314 415 
Q 2916 -91 2278 -91 
Q 1894 -91 1617 61 
Q 1341 213 1159 525 
z
M 3116 1747 
Q 3116 2381 2855 2742 
Q 2594 3103 2138 3103 
Q 1681 3103 1420 2742 
Q 1159 2381 1159 1747 
Q 1159 1113 1420 752 
Q 1681 391 2138 391 
Q 2594 391 2855 752 
Q 3116 1113 3116 1747 
z
" transform="scale(0.015625)"/>
       <path id="DejaVuSans-73" d="M 2834 3397 
L 2834 2853 
Q 2591 2978 2328 3040 
Q 2066 3103 1784 3103 
Q 1356 3103 1142 2972 
Q 928 2841 928 2578 
Q 928 2378 1081 2264 
Q 1234 2150 1697 2047 
L 1894 2003 
Q 2506 1872 2764 1633 
Q 3022 1394 3022 966 
Q 3022 478 2636 193 
Q 2250 -91 1575 -91 
Q 1294 -91 989 -36 
Q 684 19 347 128 
L 347 722 
Q 666 556 975 473 
Q 1284 391 1588 391 
Q 1994 391 2212 530 
Q 2431 669 2431 922 
Q 2431 1156 2273 1281 
Q 2116 1406 1581 1522 
L 1381 1569 
Q 847 1681 609 1914 
Q 372 2147 372 2553 
Q 372 3047 722 3315 
Q 1072 3584 1716 3584 
Q 2034 3584 2315 3537 
Q 2597 3491 2834 3397 
z
" transform="scale(0.015625)"/>
      </defs>
      <use xlink:href="#DejaVuSans-53"/>
      <use xlink:href="#DejaVuSans-74" x="63.476562"/>
      <use xlink:href="#DejaVuSans-65" x="102.685547"/>
      <use xlink:href="#DejaVuSans-70" x="164.208984"/>
      <use xlink:href="#DejaVuSans-73" x="227.685547"/>
     </g>
    </g>
   </g>
   <g id="matplotlib.axis_2">
    <g id="ytick_1">
     <g id="line2d_15">
      <path d="M 54 243.636923 
L 388.8 243.636923 
" clip-path="url(#pcf8c5a89b0)" style="fill: none; stroke-dasharray: 2.96,1.28; stroke-dashoffset: 0; stroke: #b0b0b0; stroke-width: 0.8"/>
     </g>
     <g id="line2d_16">
      <defs>
       <path id="m3b13c44beb" d="M 0 0 
L -3.5 0 
" style="stroke: #000000; stroke-width: 0.8"/>
      </defs>
      <g>
       <use xlink:href="#m3b13c44beb" x="54" y="243.636923" style="stroke: #000000; stroke-width: 0.8"/>
      </g>
     </g>
     <g id="text_9">
      <!-- −12 -->
      <g transform="translate(25.895312 247.436142)scale(0.1 -0.1)">
       <defs>
        <path id="DejaVuSans-2212" d="M 678 2272 
L 4684 2272 
L 4684 1741 
L 678 1741 
L 678 2272 
z
" transform="scale(0.015625)"/>
       </defs>
       <use xlink:href="#DejaVuSans-2212"/>
       <use xlink:href="#DejaVuSans-31" x="83.789062"/>
       <use xlink:href="#DejaVuSans-32" x="147.412109"/>
      </g>
     </g>
    </g>
    <g id="ytick_2">
     <g id="line2d_17">
      <path d="M 54 210.184615 
L 388.8 210.184615 
" clip-path="url(#pcf8c5a89b0)" style="fill: none; stroke-dasharray: 2.96,1.28; stroke-dashoffset: 0; stroke: #b0b0b0; stroke-width: 0.8"/>
     </g>
     <g id="line2d_18">
      <g>
       <use xlink:href="#m3b13c44beb" x="54" y="210.184615" style="stroke: #000000; stroke-width: 0.8"/>
      </g>
     </g>
     <g id="text_10">
      <!-- −10 -->
      <g transform="translate(25.895312 213.983834)scale(0.1 -0.1)">
       <use xlink:href="#DejaVuSans-2212"/>
       <use xlink:href="#DejaVuSans-31" x="83.789062"/>
       <use xlink:href="#DejaVuSans-30" x="147.412109"/>
      </g>
     </g>
    </g>
    <g id="ytick_3">
     <g id="line2d_19">
      <path d="M 54 176.732308 
L 388.8 176.732308 
" clip-path="url(#pcf8c5a89b0)" style="fill: none; stroke-dasharray: 2.96,1.28; stroke-dashoffset: 0; stroke: #b0b0b0; stroke-width: 0.8"/>
     </g>
     <g id="line2d_20">
      <g>
       <use xlink:href="#m3b13c44beb" x="54" y="176.732308" style="stroke: #000000; stroke-width: 0.8"/>
      </g>
     </g>
     <g id="text_11">
      <!-- −8 -->
      <g transform="translate(32.257812 180.531526)scale(0.1 -0.1)">
       <defs>
        <path id="DejaVuSans-38" d="M 2034 2216 
Q 1584 2216 1326 1975 
Q 1069 1734 1069 1313 
Q 1069 891 1326 650 
Q 1584 409 2034 409 
Q 2484 409 2743 651 
Q 3003 894 3003 1313 
Q 3003 1734 2745 1975 
Q 2488 2216 2034 2216 
z
M 1403 2484 
Q 997 2584 770 2862 
Q 544 3141 544 3541 
Q 544 4100 942 4425 
Q 1341 4750 2034 4750 
Q 2731 4750 3128 4425 
Q 3525 4100 3525 3541 
Q 3525 3141 3298 2862 
Q 3072 2584 2669 2484 
Q 3125 2378 3379 2068 
Q 3634 1759 3634 1313 
Q 3634 634 3220 271 
Q 2806 -91 2034 -91 
Q 1263 -91 848 271 
Q 434 634 434 1313 
Q 434 1759 690 2068 
Q 947 2378 1403 2484 
z
M 1172 3481 
Q 1172 3119 1398 2916 
Q 1625 2713 2034 2713 
Q 2441 2713 2670 2916 
Q 2900 3119 2900 3481 
Q 2900 3844 2670 4047 
Q 2441 4250 2034 4250 
Q 1625 4250 1398 4047 
Q 1172 3844 1172 3481 
z
" transform="scale(0.015625)"/>
       </defs>
       <use xlink:href="#DejaVuSans-2212"/>
       <use xlink:href="#DejaVuSans-38" x="83.789062"/>
      </g>
     </g>
    </g>
    <g id="ytick_4">
     <g id="line2d_21">
      <path d="M 54 143.28 
L 388.8 143.28 
" clip-path="url(#pcf8c5a89b0)" style="fill: none; stroke-dasharray: 2.96,1.28; stroke-dashoffset: 0; stroke: #b0b0b0; stroke-width: 0.8"/>
     </g>
     <g id="line2d_22">
      <g>
       <use xlink:href="#m3b13c44beb" x="54" y="143.28" style="stroke: #000000; stroke-width: 0.8"/>
      </g>
     </g>
     <g id="text_12">
      <!-- −6 -->
      <g transform="translate(32.257812 147.079219)scale(0.1 -0.1)">
       <defs>
        <path id="DejaVuSans-36" d="M 2113 2584 
Q 1688 2584 1439 2293 
Q 1191 2003 1191 1497 
Q 1191 994 1439 701 
Q 1688 409 2113 409 
Q 2538 409 2786 701 
Q 3034 994 3034 1497 
Q 3034 2003 2786 2293 
Q 2538 2584 2113 2584 
z
M 3366 4563 
L 3366 3988 
Q 3128 4100 2886 4159 
Q 2644 4219 2406 4219 
Q 1781 4219 1451 3797 
Q 1122 3375 1075 2522 
Q 1259 2794 1537 2939 
Q 1816 3084 2150 3084 
Q 2853 3084 3261 2657 
Q 3669 2231 3669 1497 
Q 3669 778 3244 343 
Q 2819 -91 2113 -91 
Q 1303 -91 875 529 
Q 447 1150 447 2328 
Q 447 3434 972 4092 
Q 1497 4750 2381 4750 
Q 2619 4750 2861 4703 
Q 3103 4656 3366 4563 
z
" transform="scale(0.015625)"/>
       </defs>
       <use xlink:href="#DejaVuSans-2212"/>
       <use xlink:href="#DejaVuSans-36" x="83.789062"/>
      </g>
     </g>
    </g>
    <g id="ytick_5">
     <g id="line2d_23">
      <path d="M 54 109.827692 
L 388.8 109.827692 
" clip-path="url(#pcf8c5a89b0)" style="fill: none; stroke-dasharray: 2.96,1.28; stroke-dashoffset: 0; stroke: #b0b0b0; stroke-width: 0.8"/>
     </g>
     <g id="line2d_24">
      <g>
       <use xlink:href="#m3b13c44beb" x="54" y="109.827692" style="stroke: #000000; stroke-width: 0.8"/>
      </g>
     </g>
     <g id="text_13">
      <!-- −4 -->
      <g transform="translate(32.257812 113.626911)scale(0.1 -0.1)">
       <defs>
        <path id="DejaVuSans-34" d="M 2419 4116 
L 825 1625 
L 2419 1625 
L 2419 4116 
z
M 2253 4666 
L 3047 4666 
L 3047 1625 
L 3713 1625 
L 3713 1100 
L 3047 1100 
L 3047 0 
L 2419 0 
L 2419 1100 
L 313 1100 
L 313 1709 
L 2253 4666 
z
" transform="scale(0.015625)"/>
       </defs>
       <use xlink:href="#DejaVuSans-2212"/>
       <use xlink:href="#DejaVuSans-34" x="83.789062"/>
      </g>
     </g>
    </g>
    <g id="ytick_6">
     <g id="line2d_25">
      <path d="M 54 76.375385 
L 388.8 76.375385 
" clip-path="url(#pcf8c5a89b0)" style="fill: none; stroke-dasharray: 2.96,1.28; stroke-dashoffset: 0; stroke: #b0b0b0; stroke-width: 0.8"/>
     </g>
     <g id="line2d_26">
      <g>
       <use xlink:href="#m3b13c44beb" x="54" y="76.375385" style="stroke: #000000; stroke-width: 0.8"/>
      </g>
     </g>
     <g id="text_14">
      <!-- −2 -->
      <g transform="translate(32.257812 80.174603)scale(0.1 -0.1)">
       <use xlink:href="#DejaVuSans-2212"/>
       <use xlink:href="#DejaVuSans-32" x="83.789062"/>
      </g>
     </g>
    </g>
    <g id="ytick_7">
     <g id="line2d_27">
      <path d="M 54 42.923077 
L 388.8 42.923077 
" clip-path="url(#pcf8c5a89b0)" style="fill: none; stroke-dasharray: 2.96,1.28; stroke-dashoffset: 0; stroke: #b0b0b0; stroke-width: 0.8"/>
     </g>
     <g id="line2d_28">
      <g>
       <use xlink:href="#m3b13c44beb" x="54" y="42.923077" style="stroke: #000000; stroke-width: 0.8"/>
      </g>
     </g>
     <g id="text_15">
      <!-- 0 -->
      <g transform="translate(40.6375 46.722296)scale(0.1 -0.1)">
       <use xlink:href="#DejaVuSans-30"/>
      </g>
     </g>
    </g>
    <g id="text_16">
     <!-- Policy value error -->
     <g transform="translate(19.815625 186.597969)rotate(-90)scale(0.1 -0.1)">
      <defs>
       <path id="DejaVuSans-50" d="M 1259 4147 
L 1259 2394 
L 2053 2394 
Q 2494 2394 2734 2622 
Q 2975 2850 2975 3272 
Q 2975 3691 2734 3919 
Q 2494 4147 2053 4147 
L 1259 4147 
z
M 628 4666 
L 2053 4666 
Q 2838 4666 3239 4311 
Q 3641 3956 3641 3272 
Q 3641 2581 3239 2228 
Q 2838 1875 2053 1875 
L 1259 1875 
L 1259 0 
L 628 0 
L 628 4666 
z
" transform="scale(0.015625)"/>
       <path id="DejaVuSans-6f" d="M 1959 3097 
Q 1497 3097 1228 2736 
Q 959 2375 959 1747 
Q 959 1119 1226 758 
Q 1494 397 1959 397 
Q 2419 397 2687 759 
Q 2956 1122 2956 1747 
Q 2956 2369 2687 2733 
Q 2419 3097 1959 3097 
z
M 1959 3584 
Q 2709 3584 3137 3096 
Q 3566 2609 3566 1747 
Q 3566 888 3137 398 
Q 2709 -91 1959 -91 
Q 1206 -91 779 398 
Q 353 888 353 1747 
Q 353 2609 779 3096 
Q 1206 3584 1959 3584 
z
" transform="scale(0.015625)"/>
       <path id="DejaVuSans-6c" d="M 603 4863 
L 1178 4863 
L 1178 0 
L 603 0 
L 603 4863 
z
" transform="scale(0.015625)"/>
       <path id="DejaVuSans-69" d="M 603 3500 
L 1178 3500 
L 1178 0 
L 603 0 
L 603 3500 
z
M 603 4863 
L 1178 4863 
L 1178 4134 
L 603 4134 
L 603 4863 
z
" transform="scale(0.015625)"/>
       <path id="DejaVuSans-63" d="M 3122 3366 
L 3122 2828 
Q 2878 2963 2633 3030 
Q 2388 3097 2138 3097 
Q 1578 3097 1268 2742 
Q 959 2388 959 1747 
Q 959 1106 1268 751 
Q 1578 397 2138 397 
Q 2388 397 2633 464 
Q 2878 531 3122 666 
L 3122 134 
Q 2881 22 2623 -34 
Q 2366 -91 2075 -91 
Q 1284 -91 818 406 
Q 353 903 353 1747 
Q 353 2603 823 3093 
Q 1294 3584 2113 3584 
Q 2378 3584 2631 3529 
Q 2884 3475 3122 3366 
z
" transform="scale(0.015625)"/>
       <path id="DejaVuSans-79" d="M 2059 -325 
Q 1816 -950 1584 -1140 
Q 1353 -1331 966 -1331 
L 506 -1331 
L 506 -850 
L 844 -850 
Q 1081 -850 1212 -737 
Q 1344 -625 1503 -206 
L 1606 56 
L 191 3500 
L 800 3500 
L 1894 763 
L 2988 3500 
L 3597 3500 
L 2059 -325 
z
" transform="scale(0.015625)"/>
       <path id="DejaVuSans-20" transform="scale(0.015625)"/>
       <path id="DejaVuSans-76" d="M 191 3500 
L 800 3500 
L 1894 563 
L 2988 3500 
L 3597 3500 
L 2284 0 
L 1503 0 
L 191 3500 
z
" transform="scale(0.015625)"/>
       <path id="DejaVuSans-61" d="M 2194 1759 
Q 1497 1759 1228 1600 
Q 959 1441 959 1056 
Q 959 750 1161 570 
Q 1363 391 1709 391 
Q 2188 391 2477 730 
Q 2766 1069 2766 1631 
L 2766 1759 
L 2194 1759 
z
M 3341 1997 
L 3341 0 
L 2766 0 
L 2766 531 
Q 2569 213 2275 61 
Q 1981 -91 1556 -91 
Q 1019 -91 701 211 
Q 384 513 384 1019 
Q 384 1609 779 1909 
Q 1175 2209 1959 2209 
L 2766 2209 
L 2766 2266 
Q 2766 2663 2505 2880 
Q 2244 3097 1772 3097 
Q 1472 3097 1187 3025 
Q 903 2953 641 2809 
L 641 3341 
Q 956 3463 1253 3523 
Q 1550 3584 1831 3584 
Q 2591 3584 2966 3190 
Q 3341 2797 3341 1997 
z
" transform="scale(0.015625)"/>
       <path id="DejaVuSans-75" d="M 544 1381 
L 544 3500 
L 1119 3500 
L 1119 1403 
Q 1119 906 1312 657 
Q 1506 409 1894 409 
Q 2359 409 2629 706 
Q 2900 1003 2900 1516 
L 2900 3500 
L 3475 3500 
L 3475 0 
L 2900 0 
L 2900 538 
Q 2691 219 2414 64 
Q 2138 -91 1772 -91 
Q 1169 -91 856 284 
Q 544 659 544 1381 
z
M 1991 3584 
L 1991 3584 
z
" transform="scale(0.015625)"/>
       <path id="DejaVuSans-72" d="M 2631 2963 
Q 2534 3019 2420 3045 
Q 2306 3072 2169 3072 
Q 1681 3072 1420 2755 
Q 1159 2438 1159 1844 
L 1159 0 
L 581 0 
L 581 3500 
L 1159 3500 
L 1159 2956 
Q 1341 3275 1631 3429 
Q 1922 3584 2338 3584 
Q 2397 3584 2469 3576 
Q 2541 3569 2628 3553 
L 2631 2963 
z
" transform="scale(0.015625)"/>
      </defs>
      <use xlink:href="#DejaVuSans-50"/>
      <use xlink:href="#DejaVuSans-6f" x="56.677734"/>
      <use xlink:href="#DejaVuSans-6c" x="117.859375"/>
      <use xlink:href="#DejaVuSans-69" x="145.642578"/>
      <use xlink:href="#DejaVuSans-63" x="173.425781"/>
      <use xlink:href="#DejaVuSans-79" x="228.40625"/>
      <use xlink:href="#DejaVuSans-20" x="287.585938"/>
      <use xlink:href="#DejaVuSans-76" x="319.373047"/>
      <use xlink:href="#DejaVuSans-61" x="378.552734"/>
      <use xlink:href="#DejaVuSans-6c" x="439.832031"/>
      <use xlink:href="#DejaVuSans-75" x="467.615234"/>
      <use xlink:href="#DejaVuSans-65" x="530.994141"/>
      <use xlink:href="#DejaVuSans-20" x="592.517578"/>
      <use xlink:href="#DejaVuSans-65" x="624.304688"/>
      <use xlink:href="#DejaVuSans-72" x="685.828125"/>
      <use xlink:href="#DejaVuSans-72" x="725.191406"/>
      <use xlink:href="#DejaVuSans-6f" x="764.054688"/>
      <use xlink:href="#DejaVuSans-72" x="825.236328"/>
     </g>
    </g>
   </g>
   <g id="line2d_29">
    <path d="M 69.218182 252.908818 
L 74.376888 252.717541 
L 79.535593 253.154558 
L 84.694299 259.360493 
L 89.853005 159.867879 
L 95.01171 86.901779 
L 100.170416 87.281437 
L 105.329122 52.501861 
L 110.487827 69.054542 
L 115.646533 48.218517 
L 120.805239 49.148454 
L 125.963945 48.14325 
L 131.12265 47.984527 
L 136.281356 48.31397 
L 141.440062 48.902702 
L 146.598767 48.593667 
L 151.757473 48.771097 
L 156.916179 48.205708 
L 162.074884 48.400478 
L 167.23359 48.701827 
L 172.392296 49.112713 
L 177.551002 48.324744 
L 182.709707 48.59817 
L 187.868413 48.165892 
L 193.027119 48.471559 
L 198.185824 59.284269 
L 203.34453 49.132727 
L 208.503236 48.047501 
L 213.661941 48.123915 
L 218.820647 48.047241 
L 223.979353 48.406475 
L 229.138059 48.047241 
L 234.296764 48.48868 
L 239.45547 48.461131 
L 244.614176 48.092326 
L 249.772881 48.139974 
L 254.931587 47.760812 
L 260.090293 48.799086 
L 265.248998 47.979528 
L 270.407704 48.668167 
L 275.56641 47.953341 
L 280.725116 48.814542 
L 285.883821 47.817044 
L 291.042527 48.802243 
L 296.201233 48.154785 
L 301.359938 48.130538 
L 306.518644 48.054962 
L 311.67735 48.44528 
L 316.836055 48.668167 
L 321.994761 48.367111 
L 327.153467 48.355423 
L 332.312173 48.802243 
L 337.470878 47.746531 
L 342.629584 48.154785 
L 347.78829 48.367111 
L 352.946995 47.760812 
L 358.105701 48.355423 
L 363.264407 48.159705 
L 368.423112 48.367111 
L 373.581818 47.907233 
" clip-path="url(#pcf8c5a89b0)" style="fill: none; stroke: #9d02d7; stroke-width: 1.5; stroke-linecap: square"/>
    <defs>
     <path id="mba39b20b54" d="M 0 -2 
L -2 2 
L 2 2 
z
" style="stroke: #9d02d7; stroke-linejoin: miter"/>
    </defs>
    <g clip-path="url(#pcf8c5a89b0)">
     <use xlink:href="#mba39b20b54" x="69.218182" y="252.908818" style="fill: #9d02d7; stroke: #9d02d7; stroke-linejoin: miter"/>
     <use xlink:href="#mba39b20b54" x="74.376888" y="252.717541" style="fill: #9d02d7; stroke: #9d02d7; stroke-linejoin: miter"/>
     <use xlink:href="#mba39b20b54" x="79.535593" y="253.154558" style="fill: #9d02d7; stroke: #9d02d7; stroke-linejoin: miter"/>
     <use xlink:href="#mba39b20b54" x="84.694299" y="259.360493" style="fill: #9d02d7; stroke: #9d02d7; stroke-linejoin: miter"/>
     <use xlink:href="#mba39b20b54" x="89.853005" y="159.867879" style="fill: #9d02d7; stroke: #9d02d7; stroke-linejoin: miter"/>
     <use xlink:href="#mba39b20b54" x="95.01171" y="86.901779" style="fill: #9d02d7; stroke: #9d02d7; stroke-linejoin: miter"/>
     <use xlink:href="#mba39b20b54" x="100.170416" y="87.281437" style="fill: #9d02d7; stroke: #9d02d7; stroke-linejoin: miter"/>
     <use xlink:href="#mba39b20b54" x="105.329122" y="52.501861" style="fill: #9d02d7; stroke: #9d02d7; stroke-linejoin: miter"/>
     <use xlink:href="#mba39b20b54" x="110.487827" y="69.054542" style="fill: #9d02d7; stroke: #9d02d7; stroke-linejoin: miter"/>
     <use xlink:href="#mba39b20b54" x="115.646533" y="48.218517" style="fill: #9d02d7; stroke: #9d02d7; stroke-linejoin: miter"/>
     <use xlink:href="#mba39b20b54" x="120.805239" y="49.148454" style="fill: #9d02d7; stroke: #9d02d7; stroke-linejoin: miter"/>
     <use xlink:href="#mba39b20b54" x="125.963945" y="48.14325" style="fill: #9d02d7; stroke: #9d02d7; stroke-linejoin: miter"/>
     <use xlink:href="#mba39b20b54" x="131.12265" y="47.984527" style="fill: #9d02d7; stroke: #9d02d7; stroke-linejoin: miter"/>
     <use xlink:href="#mba39b20b54" x="136.281356" y="48.31397" style="fill: #9d02d7; stroke: #9d02d7; stroke-linejoin: miter"/>
     <use xlink:href="#mba39b20b54" x="141.440062" y="48.902702" style="fill: #9d02d7; stroke: #9d02d7; stroke-linejoin: miter"/>
     <use xlink:href="#mba39b20b54" x="146.598767" y="48.593667" style="fill: #9d02d7; stroke: #9d02d7; stroke-linejoin: miter"/>
     <use xlink:href="#mba39b20b54" x="151.757473" y="48.771097" style="fill: #9d02d7; stroke: #9d02d7; stroke-linejoin: miter"/>
     <use xlink:href="#mba39b20b54" x="156.916179" y="48.205708" style="fill: #9d02d7; stroke: #9d02d7; stroke-linejoin: miter"/>
     <use xlink:href="#mba39b20b54" x="162.074884" y="48.400478" style="fill: #9d02d7; stroke: #9d02d7; stroke-linejoin: miter"/>
     <use xlink:href="#mba39b20b54" x="167.23359" y="48.701827" style="fill: #9d02d7; stroke: #9d02d7; stroke-linejoin: miter"/>
     <use xlink:href="#mba39b20b54" x="172.392296" y="49.112713" style="fill: #9d02d7; stroke: #9d02d7; stroke-linejoin: miter"/>
     <use xlink:href="#mba39b20b54" x="177.551002" y="48.324744" style="fill: #9d02d7; stroke: #9d02d7; stroke-linejoin: miter"/>
     <use xlink:href="#mba39b20b54" x="182.709707" y="48.59817" style="fill: #9d02d7; stroke: #9d02d7; stroke-linejoin: miter"/>
     <use xlink:href="#mba39b20b54" x="187.868413" y="48.165892" style="fill: #9d02d7; stroke: #9d02d7; stroke-linejoin: miter"/>
     <use xlink:href="#mba39b20b54" x="193.027119" y="48.471559" style="fill: #9d02d7; stroke: #9d02d7; stroke-linejoin: miter"/>
     <use xlink:href="#mba39b20b54" x="198.185824" y="59.284269" style="fill: #9d02d7; stroke: #9d02d7; stroke-linejoin: miter"/>
     <use xlink:href="#mba39b20b54" x="203.34453" y="49.132727" style="fill: #9d02d7; stroke: #9d02d7; stroke-linejoin: miter"/>
     <use xlink:href="#mba39b20b54" x="208.503236" y="48.047501" style="fill: #9d02d7; stroke: #9d02d7; stroke-linejoin: miter"/>
     <use xlink:href="#mba39b20b54" x="213.661941" y="48.123915" style="fill: #9d02d7; stroke: #9d02d7; stroke-linejoin: miter"/>
     <use xlink:href="#mba39b20b54" x="218.820647" y="48.047241" style="fill: #9d02d7; stroke: #9d02d7; stroke-linejoin: miter"/>
     <use xlink:href="#mba39b20b54" x="223.979353" y="48.406475" style="fill: #9d02d7; stroke: #9d02d7; stroke-linejoin: miter"/>
     <use xlink:href="#mba39b20b54" x="229.138059" y="48.047241" style="fill: #9d02d7; stroke: #9d02d7; stroke-linejoin: miter"/>
     <use xlink:href="#mba39b20b54" x="234.296764" y="48.48868" style="fill: #9d02d7; stroke: #9d02d7; stroke-linejoin: miter"/>
     <use xlink:href="#mba39b20b54" x="239.45547" y="48.461131" style="fill: #9d02d7; stroke: #9d02d7; stroke-linejoin: miter"/>
     <use xlink:href="#mba39b20b54" x="244.614176" y="48.092326" style="fill: #9d02d7; stroke: #9d02d7; stroke-linejoin: miter"/>
     <use xlink:href="#mba39b20b54" x="249.772881" y="48.139974" style="fill: #9d02d7; stroke: #9d02d7; stroke-linejoin: miter"/>
     <use xlink:href="#mba39b20b54" x="254.931587" y="47.760812" style="fill: #9d02d7; stroke: #9d02d7; stroke-linejoin: miter"/>
     <use xlink:href="#mba39b20b54" x="260.090293" y="48.799086" style="fill: #9d02d7; stroke: #9d02d7; stroke-linejoin: miter"/>
     <use xlink:href="#mba39b20b54" x="265.248998" y="47.979528" style="fill: #9d02d7; stroke: #9d02d7; stroke-linejoin: miter"/>
     <use xlink:href="#mba39b20b54" x="270.407704" y="48.668167" style="fill: #9d02d7; stroke: #9d02d7; stroke-linejoin: miter"/>
     <use xlink:href="#mba39b20b54" x="275.56641" y="47.953341" style="fill: #9d02d7; stroke: #9d02d7; stroke-linejoin: miter"/>
     <use xlink:href="#mba39b20b54" x="280.725116" y="48.814542" style="fill: #9d02d7; stroke: #9d02d7; stroke-linejoin: miter"/>
     <use xlink:href="#mba39b20b54" x="285.883821" y="47.817044" style="fill: #9d02d7; stroke: #9d02d7; stroke-linejoin: miter"/>
     <use xlink:href="#mba39b20b54" x="291.042527" y="48.802243" style="fill: #9d02d7; stroke: #9d02d7; stroke-linejoin: miter"/>
     <use xlink:href="#mba39b20b54" x="296.201233" y="48.154785" style="fill: #9d02d7; stroke: #9d02d7; stroke-linejoin: miter"/>
     <use xlink:href="#mba39b20b54" x="301.359938" y="48.130538" style="fill: #9d02d7; stroke: #9d02d7; stroke-linejoin: miter"/>
     <use xlink:href="#mba39b20b54" x="306.518644" y="48.054962" style="fill: #9d02d7; stroke: #9d02d7; stroke-linejoin: miter"/>
     <use xlink:href="#mba39b20b54" x="311.67735" y="48.44528" style="fill: #9d02d7; stroke: #9d02d7; stroke-linejoin: miter"/>
     <use xlink:href="#mba39b20b54" x="316.836055" y="48.668167" style="fill: #9d02d7; stroke: #9d02d7; stroke-linejoin: miter"/>
     <use xlink:href="#mba39b20b54" x="321.994761" y="48.367111" style="fill: #9d02d7; stroke: #9d02d7; stroke-linejoin: miter"/>
     <use xlink:href="#mba39b20b54" x="327.153467" y="48.355423" style="fill: #9d02d7; stroke: #9d02d7; stroke-linejoin: miter"/>
     <use xlink:href="#mba39b20b54" x="332.312173" y="48.802243" style="fill: #9d02d7; stroke: #9d02d7; stroke-linejoin: miter"/>
     <use xlink:href="#mba39b20b54" x="337.470878" y="47.746531" style="fill: #9d02d7; stroke: #9d02d7; stroke-linejoin: miter"/>
     <use xlink:href="#mba39b20b54" x="342.629584" y="48.154785" style="fill: #9d02d7; stroke: #9d02d7; stroke-linejoin: miter"/>
     <use xlink:href="#mba39b20b54" x="347.78829" y="48.367111" style="fill: #9d02d7; stroke: #9d02d7; stroke-linejoin: miter"/>
     <use xlink:href="#mba39b20b54" x="352.946995" y="47.760812" style="fill: #9d02d7; stroke: #9d02d7; stroke-linejoin: miter"/>
     <use xlink:href="#mba39b20b54" x="358.105701" y="48.355423" style="fill: #9d02d7; stroke: #9d02d7; stroke-linejoin: miter"/>
     <use xlink:href="#mba39b20b54" x="363.264407" y="48.159705" style="fill: #9d02d7; stroke: #9d02d7; stroke-linejoin: miter"/>
     <use xlink:href="#mba39b20b54" x="368.423112" y="48.367111" style="fill: #9d02d7; stroke: #9d02d7; stroke-linejoin: miter"/>
     <use xlink:href="#mba39b20b54" x="373.581818" y="47.907233" style="fill: #9d02d7; stroke: #9d02d7; stroke-linejoin: miter"/>
    </g>
   </g>
   <g id="line2d_30">
    <path d="M 69.218182 253.336611 
L 74.376888 228.956397 
L 79.535593 263.321468 
L 84.694299 258.452661 
L 89.853005 241.790802 
L 95.01171 88.118623 
L 100.170416 222.700767 
L 105.329122 63.485021 
L 110.487827 127.970739 
L 115.646533 58.100634 
L 120.805239 59.186208 
L 125.963945 63.484156 
L 131.12265 63.333608 
L 136.281356 63.534002 
L 141.440062 47.326841 
L 146.598767 47.327077 
L 151.757473 47.267265 
L 156.916179 48.149666 
L 162.074884 47.267234 
L 167.23359 47.266833 
L 172.392296 47.32189 
L 177.551002 47.346236 
L 182.709707 47.351187 
L 187.868413 47.266833 
L 193.027119 47.234167 
L 198.185824 47.326841 
L 203.34453 47.326841 
L 208.503236 47.321925 
L 213.661941 59.374012 
L 218.820647 59.365251 
L 223.979353 47.327096 
L 229.138059 47.327077 
L 234.296764 47.351441 
L 239.45547 47.346271 
L 244.614176 47.346236 
L 249.772881 47.346236 
L 254.931587 47.346271 
L 260.090293 47.321925 
L 265.248998 47.346236 
L 270.407704 47.351187 
L 275.56641 47.321925 
L 280.725116 47.2429 
L 285.883821 47.267265 
L 291.042527 47.2429 
L 296.201233 47.242931 
L 301.359938 47.242931 
L 306.518644 47.267234 
L 311.67735 47.25844 
L 316.836055 47.242931 
L 321.994761 47.267234 
L 327.153467 47.234107 
L 332.312173 47.242931 
L 337.470878 47.234167 
L 342.629584 47.267234 
L 347.78829 47.266833 
L 352.946995 47.2429 
L 358.105701 47.242499 
L 363.264407 47.234107 
L 368.423112 47.234107 
L 373.581818 47.346271 
" clip-path="url(#pcf8c5a89b0)" style="fill: none; stroke: #0000ff; stroke-width: 1.5; stroke-linecap: square"/>
    <defs>
     <path id="m99be63c0c3" d="M 0 2 
C 0.530406 2 1.03916 1.789267 1.414214 1.414214 
C 1.789267 1.03916 2 0.530406 2 0 
C 2 -0.530406 1.789267 -1.03916 1.414214 -1.414214 
C 1.03916 -1.789267 0.530406 -2 0 -2 
C -0.530406 -2 -1.03916 -1.789267 -1.414214 -1.414214 
C -1.789267 -1.03916 -2 -0.530406 -2 0 
C -2 0.530406 -1.789267 1.03916 -1.414214 1.414214 
C -1.03916 1.789267 -0.530406 2 0 2 
z
" style="stroke: #0000ff"/>
    </defs>
    <g clip-path="url(#pcf8c5a89b0)">
     <use xlink:href="#m99be63c0c3" x="69.218182" y="253.336611" style="fill: #0000ff; stroke: #0000ff"/>
     <use xlink:href="#m99be63c0c3" x="74.376888" y="228.956397" style="fill: #0000ff; stroke: #0000ff"/>
     <use xlink:href="#m99be63c0c3" x="79.535593" y="263.321468" style="fill: #0000ff; stroke: #0000ff"/>
     <use xlink:href="#m99be63c0c3" x="84.694299" y="258.452661" style="fill: #0000ff; stroke: #0000ff"/>
     <use xlink:href="#m99be63c0c3" x="89.853005" y="241.790802" style="fill: #0000ff; stroke: #0000ff"/>
     <use xlink:href="#m99be63c0c3" x="95.01171" y="88.118623" style="fill: #0000ff; stroke: #0000ff"/>
     <use xlink:href="#m99be63c0c3" x="100.170416" y="222.700767" style="fill: #0000ff; stroke: #0000ff"/>
     <use xlink:href="#m99be63c0c3" x="105.329122" y="63.485021" style="fill: #0000ff; stroke: #0000ff"/>
     <use xlink:href="#m99be63c0c3" x="110.487827" y="127.970739" style="fill: #0000ff; stroke: #0000ff"/>
     <use xlink:href="#m99be63c0c3" x="115.646533" y="58.100634" style="fill: #0000ff; stroke: #0000ff"/>
     <use xlink:href="#m99be63c0c3" x="120.805239" y="59.186208" style="fill: #0000ff; stroke: #0000ff"/>
     <use xlink:href="#m99be63c0c3" x="125.963945" y="63.484156" style="fill: #0000ff; stroke: #0000ff"/>
     <use xlink:href="#m99be63c0c3" x="131.12265" y="63.333608" style="fill: #0000ff; stroke: #0000ff"/>
     <use xlink:href="#m99be63c0c3" x="136.281356" y="63.534002" style="fill: #0000ff; stroke: #0000ff"/>
     <use xlink:href="#m99be63c0c3" x="141.440062" y="47.326841" style="fill: #0000ff; stroke: #0000ff"/>
     <use xlink:href="#m99be63c0c3" x="146.598767" y="47.327077" style="fill: #0000ff; stroke: #0000ff"/>
     <use xlink:href="#m99be63c0c3" x="151.757473" y="47.267265" style="fill: #0000ff; stroke: #0000ff"/>
     <use xlink:href="#m99be63c0c3" x="156.916179" y="48.149666" style="fill: #0000ff; stroke: #0000ff"/>
     <use xlink:href="#m99be63c0c3" x="162.074884" y="47.267234" style="fill: #0000ff; stroke: #0000ff"/>
     <use xlink:href="#m99be63c0c3" x="167.23359" y="47.266833" style="fill: #0000ff; stroke: #0000ff"/>
     <use xlink:href="#m99be63c0c3" x="172.392296" y="47.32189" style="fill: #0000ff; stroke: #0000ff"/>
     <use xlink:href="#m99be63c0c3" x="177.551002" y="47.346236" style="fill: #0000ff; stroke: #0000ff"/>
     <use xlink:href="#m99be63c0c3" x="182.709707" y="47.351187" style="fill: #0000ff; stroke: #0000ff"/>
     <use xlink:href="#m99be63c0c3" x="187.868413" y="47.266833" style="fill: #0000ff; stroke: #0000ff"/>
     <use xlink:href="#m99be63c0c3" x="193.027119" y="47.234167" style="fill: #0000ff; stroke: #0000ff"/>
     <use xlink:href="#m99be63c0c3" x="198.185824" y="47.326841" style="fill: #0000ff; stroke: #0000ff"/>
     <use xlink:href="#m99be63c0c3" x="203.34453" y="47.326841" style="fill: #0000ff; stroke: #0000ff"/>
     <use xlink:href="#m99be63c0c3" x="208.503236" y="47.321925" style="fill: #0000ff; stroke: #0000ff"/>
     <use xlink:href="#m99be63c0c3" x="213.661941" y="59.374012" style="fill: #0000ff; stroke: #0000ff"/>
     <use xlink:href="#m99be63c0c3" x="218.820647" y="59.365251" style="fill: #0000ff; stroke: #0000ff"/>
     <use xlink:href="#m99be63c0c3" x="223.979353" y="47.327096" style="fill: #0000ff; stroke: #0000ff"/>
     <use xlink:href="#m99be63c0c3" x="229.138059" y="47.327077" style="fill: #0000ff; stroke: #0000ff"/>
     <use xlink:href="#m99be63c0c3" x="234.296764" y="47.351441" style="fill: #0000ff; stroke: #0000ff"/>
     <use xlink:href="#m99be63c0c3" x="239.45547" y="47.346271" style="fill: #0000ff; stroke: #0000ff"/>
     <use xlink:href="#m99be63c0c3" x="244.614176" y="47.346236" style="fill: #0000ff; stroke: #0000ff"/>
     <use xlink:href="#m99be63c0c3" x="249.772881" y="47.346236" style="fill: #0000ff; stroke: #0000ff"/>
     <use xlink:href="#m99be63c0c3" x="254.931587" y="47.346271" style="fill: #0000ff; stroke: #0000ff"/>
     <use xlink:href="#m99be63c0c3" x="260.090293" y="47.321925" style="fill: #0000ff; stroke: #0000ff"/>
     <use xlink:href="#m99be63c0c3" x="265.248998" y="47.346236" style="fill: #0000ff; stroke: #0000ff"/>
     <use xlink:href="#m99be63c0c3" x="270.407704" y="47.351187" style="fill: #0000ff; stroke: #0000ff"/>
     <use xlink:href="#m99be63c0c3" x="275.56641" y="47.321925" style="fill: #0000ff; stroke: #0000ff"/>
     <use xlink:href="#m99be63c0c3" x="280.725116" y="47.2429" style="fill: #0000ff; stroke: #0000ff"/>
     <use xlink:href="#m99be63c0c3" x="285.883821" y="47.267265" style="fill: #0000ff; stroke: #0000ff"/>
     <use xlink:href="#m99be63c0c3" x="291.042527" y="47.2429" style="fill: #0000ff; stroke: #0000ff"/>
     <use xlink:href="#m99be63c0c3" x="296.201233" y="47.242931" style="fill: #0000ff; stroke: #0000ff"/>
     <use xlink:href="#m99be63c0c3" x="301.359938" y="47.242931" style="fill: #0000ff; stroke: #0000ff"/>
     <use xlink:href="#m99be63c0c3" x="306.518644" y="47.267234" style="fill: #0000ff; stroke: #0000ff"/>
     <use xlink:href="#m99be63c0c3" x="311.67735" y="47.25844" style="fill: #0000ff; stroke: #0000ff"/>
     <use xlink:href="#m99be63c0c3" x="316.836055" y="47.242931" style="fill: #0000ff; stroke: #0000ff"/>
     <use xlink:href="#m99be63c0c3" x="321.994761" y="47.267234" style="fill: #0000ff; stroke: #0000ff"/>
     <use xlink:href="#m99be63c0c3" x="327.153467" y="47.234107" style="fill: #0000ff; stroke: #0000ff"/>
     <use xlink:href="#m99be63c0c3" x="332.312173" y="47.242931" style="fill: #0000ff; stroke: #0000ff"/>
     <use xlink:href="#m99be63c0c3" x="337.470878" y="47.234167" style="fill: #0000ff; stroke: #0000ff"/>
     <use xlink:href="#m99be63c0c3" x="342.629584" y="47.267234" style="fill: #0000ff; stroke: #0000ff"/>
     <use xlink:href="#m99be63c0c3" x="347.78829" y="47.266833" style="fill: #0000ff; stroke: #0000ff"/>
     <use xlink:href="#m99be63c0c3" x="352.946995" y="47.2429" style="fill: #0000ff; stroke: #0000ff"/>
     <use xlink:href="#m99be63c0c3" x="358.105701" y="47.242499" style="fill: #0000ff; stroke: #0000ff"/>
     <use xlink:href="#m99be63c0c3" x="363.264407" y="47.234107" style="fill: #0000ff; stroke: #0000ff"/>
     <use xlink:href="#m99be63c0c3" x="368.423112" y="47.234107" style="fill: #0000ff; stroke: #0000ff"/>
     <use xlink:href="#m99be63c0c3" x="373.581818" y="47.346271" style="fill: #0000ff; stroke: #0000ff"/>
    </g>
   </g>
   <g id="line2d_31">
    <path d="M 69.218182 253.390547 
L 74.376888 276.365197 
L 79.535593 254.358791 
L 84.694299 246.205995 
L 89.853005 269.506508 
L 95.01171 126.903259 
L 100.170416 80.510559 
L 105.329122 125.100269 
L 110.487827 155.357282 
L 115.646533 53.737248 
L 120.805239 62.328984 
L 125.963945 49.121618 
L 131.12265 49.121618 
L 136.281356 49.121618 
L 141.440062 48.837351 
L 146.598767 48.837351 
L 151.757473 48.837351 
L 156.916179 48.837351 
L 162.074884 56.749513 
L 167.23359 50.909839 
L 172.392296 50.559232 
L 177.551002 47.201549 
L 182.709707 47.033235 
L 187.868413 43.140232 
L 193.027119 43.140232 
L 198.185824 43.140232 
L 203.34453 43.140232 
L 208.503236 43.140232 
L 213.661941 43.140232 
L 218.820647 45.293571 
L 223.979353 43.140232 
L 229.138059 43.140232 
L 234.296764 43.140232 
L 239.45547 43.140232 
L 244.614176 43.140232 
L 249.772881 43.140232 
L 254.931587 43.140232 
L 260.090293 43.140232 
L 265.248998 43.140232 
L 270.407704 43.140232 
L 275.56641 43.140232 
L 280.725116 43.140232 
L 285.883821 43.140232 
L 291.042527 43.140232 
L 296.201233 43.140232 
L 301.359938 43.140232 
L 306.518644 43.140232 
L 311.67735 43.140232 
L 316.836055 43.140232 
L 321.994761 43.140232 
L 327.153467 43.140232 
L 332.312173 43.140232 
L 337.470878 43.140232 
L 342.629584 43.140232 
L 347.78829 43.140232 
L 352.946995 43.140232 
L 358.105701 43.140232 
L 363.264407 43.140232 
L 368.423112 43.140232 
L 373.581818 43.140232 
" clip-path="url(#pcf8c5a89b0)" style="fill: none; stroke: #ff7763; stroke-width: 1.5; stroke-linecap: square"/>
    <defs>
     <path id="m54e5bd8f3d" d="M -2 2 
L 2 -2 
M -2 -2 
L 2 2 
" style="stroke: #ff7763"/>
    </defs>
    <g clip-path="url(#pcf8c5a89b0)">
     <use xlink:href="#m54e5bd8f3d" x="69.218182" y="253.390547" style="fill: #ff7763; stroke: #ff7763"/>
     <use xlink:href="#m54e5bd8f3d" x="74.376888" y="276.365197" style="fill: #ff7763; stroke: #ff7763"/>
     <use xlink:href="#m54e5bd8f3d" x="79.535593" y="254.358791" style="fill: #ff7763; stroke: #ff7763"/>
     <use xlink:href="#m54e5bd8f3d" x="84.694299" y="246.205995" style="fill: #ff7763; stroke: #ff7763"/>
     <use xlink:href="#m54e5bd8f3d" x="89.853005" y="269.506508" style="fill: #ff7763; stroke: #ff7763"/>
     <use xlink:href="#m54e5bd8f3d" x="95.01171" y="126.903259" style="fill: #ff7763; stroke: #ff7763"/>
     <use xlink:href="#m54e5bd8f3d" x="100.170416" y="80.510559" style="fill: #ff7763; stroke: #ff7763"/>
     <use xlink:href="#m54e5bd8f3d" x="105.329122" y="125.100269" style="fill: #ff7763; stroke: #ff7763"/>
     <use xlink:href="#m54e5bd8f3d" x="110.487827" y="155.357282" style="fill: #ff7763; stroke: #ff7763"/>
     <use xlink:href="#m54e5bd8f3d" x="115.646533" y="53.737248" style="fill: #ff7763; stroke: #ff7763"/>
     <use xlink:href="#m54e5bd8f3d" x="120.805239" y="62.328984" style="fill: #ff7763; stroke: #ff7763"/>
     <use xlink:href="#m54e5bd8f3d" x="125.963945" y="49.121618" style="fill: #ff7763; stroke: #ff7763"/>
     <use xlink:href="#m54e5bd8f3d" x="131.12265" y="49.121618" style="fill: #ff7763; stroke: #ff7763"/>
     <use xlink:href="#m54e5bd8f3d" x="136.281356" y="49.121618" style="fill: #ff7763; stroke: #ff7763"/>
     <use xlink:href="#m54e5bd8f3d" x="141.440062" y="48.837351" style="fill: #ff7763; stroke: #ff7763"/>
     <use xlink:href="#m54e5bd8f3d" x="146.598767" y="48.837351" style="fill: #ff7763; stroke: #ff7763"/>
     <use xlink:href="#m54e5bd8f3d" x="151.757473" y="48.837351" style="fill: #ff7763; stroke: #ff7763"/>
     <use xlink:href="#m54e5bd8f3d" x="156.916179" y="48.837351" style="fill: #ff7763; stroke: #ff7763"/>
     <use xlink:href="#m54e5bd8f3d" x="162.074884" y="56.749513" style="fill: #ff7763; stroke: #ff7763"/>
     <use xlink:href="#m54e5bd8f3d" x="167.23359" y="50.909839" style="fill: #ff7763; stroke: #ff7763"/>
     <use xlink:href="#m54e5bd8f3d" x="172.392296" y="50.559232" style="fill: #ff7763; stroke: #ff7763"/>
     <use xlink:href="#m54e5bd8f3d" x="177.551002" y="47.201549" style="fill: #ff7763; stroke: #ff7763"/>
     <use xlink:href="#m54e5bd8f3d" x="182.709707" y="47.033235" style="fill: #ff7763; stroke: #ff7763"/>
     <use xlink:href="#m54e5bd8f3d" x="187.868413" y="43.140232" style="fill: #ff7763; stroke: #ff7763"/>
     <use xlink:href="#m54e5bd8f3d" x="193.027119" y="43.140232" style="fill: #ff7763; stroke: #ff7763"/>
     <use xlink:href="#m54e5bd8f3d" x="198.185824" y="43.140232" style="fill: #ff7763; stroke: #ff7763"/>
     <use xlink:href="#m54e5bd8f3d" x="203.34453" y="43.140232" style="fill: #ff7763; stroke: #ff7763"/>
     <use xlink:href="#m54e5bd8f3d" x="208.503236" y="43.140232" style="fill: #ff7763; stroke: #ff7763"/>
     <use xlink:href="#m54e5bd8f3d" x="213.661941" y="43.140232" style="fill: #ff7763; stroke: #ff7763"/>
     <use xlink:href="#m54e5bd8f3d" x="218.820647" y="45.293571" style="fill: #ff7763; stroke: #ff7763"/>
     <use xlink:href="#m54e5bd8f3d" x="223.979353" y="43.140232" style="fill: #ff7763; stroke: #ff7763"/>
     <use xlink:href="#m54e5bd8f3d" x="229.138059" y="43.140232" style="fill: #ff7763; stroke: #ff7763"/>
     <use xlink:href="#m54e5bd8f3d" x="234.296764" y="43.140232" style="fill: #ff7763; stroke: #ff7763"/>
     <use xlink:href="#m54e5bd8f3d" x="239.45547" y="43.140232" style="fill: #ff7763; stroke: #ff7763"/>
     <use xlink:href="#m54e5bd8f3d" x="244.614176" y="43.140232" style="fill: #ff7763; stroke: #ff7763"/>
     <use xlink:href="#m54e5bd8f3d" x="249.772881" y="43.140232" style="fill: #ff7763; stroke: #ff7763"/>
     <use xlink:href="#m54e5bd8f3d" x="254.931587" y="43.140232" style="fill: #ff7763; stroke: #ff7763"/>
     <use xlink:href="#m54e5bd8f3d" x="260.090293" y="43.140232" style="fill: #ff7763; stroke: #ff7763"/>
     <use xlink:href="#m54e5bd8f3d" x="265.248998" y="43.140232" style="fill: #ff7763; stroke: #ff7763"/>
     <use xlink:href="#m54e5bd8f3d" x="270.407704" y="43.140232" style="fill: #ff7763; stroke: #ff7763"/>
     <use xlink:href="#m54e5bd8f3d" x="275.56641" y="43.140232" style="fill: #ff7763; stroke: #ff7763"/>
     <use xlink:href="#m54e5bd8f3d" x="280.725116" y="43.140232" style="fill: #ff7763; stroke: #ff7763"/>
     <use xlink:href="#m54e5bd8f3d" x="285.883821" y="43.140232" style="fill: #ff7763; stroke: #ff7763"/>
     <use xlink:href="#m54e5bd8f3d" x="291.042527" y="43.140232" style="fill: #ff7763; stroke: #ff7763"/>
     <use xlink:href="#m54e5bd8f3d" x="296.201233" y="43.140232" style="fill: #ff7763; stroke: #ff7763"/>
     <use xlink:href="#m54e5bd8f3d" x="301.359938" y="43.140232" style="fill: #ff7763; stroke: #ff7763"/>
     <use xlink:href="#m54e5bd8f3d" x="306.518644" y="43.140232" style="fill: #ff7763; stroke: #ff7763"/>
     <use xlink:href="#m54e5bd8f3d" x="311.67735" y="43.140232" style="fill: #ff7763; stroke: #ff7763"/>
     <use xlink:href="#m54e5bd8f3d" x="316.836055" y="43.140232" style="fill: #ff7763; stroke: #ff7763"/>
     <use xlink:href="#m54e5bd8f3d" x="321.994761" y="43.140232" style="fill: #ff7763; stroke: #ff7763"/>
     <use xlink:href="#m54e5bd8f3d" x="327.153467" y="43.140232" style="fill: #ff7763; stroke: #ff7763"/>
     <use xlink:href="#m54e5bd8f3d" x="332.312173" y="43.140232" style="fill: #ff7763; stroke: #ff7763"/>
     <use xlink:href="#m54e5bd8f3d" x="337.470878" y="43.140232" style="fill: #ff7763; stroke: #ff7763"/>
     <use xlink:href="#m54e5bd8f3d" x="342.629584" y="43.140232" style="fill: #ff7763; stroke: #ff7763"/>
     <use xlink:href="#m54e5bd8f3d" x="347.78829" y="43.140232" style="fill: #ff7763; stroke: #ff7763"/>
     <use xlink:href="#m54e5bd8f3d" x="352.946995" y="43.140232" style="fill: #ff7763; stroke: #ff7763"/>
     <use xlink:href="#m54e5bd8f3d" x="358.105701" y="43.140232" style="fill: #ff7763; stroke: #ff7763"/>
     <use xlink:href="#m54e5bd8f3d" x="363.264407" y="43.140232" style="fill: #ff7763; stroke: #ff7763"/>
     <use xlink:href="#m54e5bd8f3d" x="368.423112" y="43.140232" style="fill: #ff7763; stroke: #ff7763"/>
     <use xlink:href="#m54e5bd8f3d" x="373.581818" y="43.140232" style="fill: #ff7763; stroke: #ff7763"/>
    </g>
   </g>
   <g id="line2d_32">
    <path d="M 69.218182 252.923403 
L 74.376888 257.244561 
L 79.535593 257.215021 
L 84.694299 241.545674 
L 89.853005 231.683131 
L 95.01171 103.50869 
L 100.170416 52.064089 
L 105.329122 51.463091 
L 110.487827 50.196251 
L 115.646533 51.609829 
L 120.805239 49.762468 
L 125.963945 49.412782 
L 131.12265 77.891522 
L 136.281356 76.935344 
L 141.440062 68.930798 
L 146.598767 56.921251 
L 151.757473 68.316923 
L 156.916179 57.718946 
L 162.074884 51.274591 
L 167.23359 52.229664 
L 172.392296 51.274591 
L 177.551002 52.229664 
L 182.709707 51.274591 
L 187.868413 58.436608 
L 193.027119 68.316923 
L 198.185824 69.971853 
L 203.34453 58.829338 
L 208.503236 68.930798 
L 213.661941 58.829338 
L 218.820647 52.167868 
L 223.979353 52.167868 
L 229.138059 51.144857 
L 234.296764 51.144857 
L 239.45547 50.077107 
L 244.614176 50.077107 
L 249.772881 50.556657 
L 254.931587 50.556657 
L 260.090293 51.144857 
L 265.248998 61.705365 
L 270.407704 50.556657 
L 275.56641 50.556657 
L 280.725116 50.556657 
L 285.883821 50.556657 
L 291.042527 50.556657 
L 296.201233 45.947854 
L 301.359938 45.947854 
L 306.518644 45.947854 
L 311.67735 46.422973 
L 316.836055 46.422973 
L 321.994761 46.422973 
L 327.153467 46.422973 
L 332.312173 46.422973 
L 337.470878 45.947854 
L 342.629584 45.947854 
L 347.78829 45.947854 
L 352.946995 50.556657 
L 358.105701 51.144857 
L 363.264407 45.947854 
L 368.423112 45.947854 
L 373.581818 45.947854 
" clip-path="url(#pcf8c5a89b0)" style="fill: none; stroke: #ffac1e; stroke-width: 1.5; stroke-linecap: square"/>
    <defs>
     <path id="mbe99acab7c" d="M 0 -2 
L -0.449028 -0.618034 
L -1.902113 -0.618034 
L -0.726543 0.236068 
L -1.175571 1.618034 
L -0 0.763932 
L 1.175571 1.618034 
L 0.726543 0.236068 
L 1.902113 -0.618034 
L 0.449028 -0.618034 
z
" style="stroke: #ffac1e; stroke-linejoin: bevel"/>
    </defs>
    <g clip-path="url(#pcf8c5a89b0)">
     <use xlink:href="#mbe99acab7c" x="69.218182" y="252.923403" style="fill: #ffac1e; stroke: #ffac1e; stroke-linejoin: bevel"/>
     <use xlink:href="#mbe99acab7c" x="74.376888" y="257.244561" style="fill: #ffac1e; stroke: #ffac1e; stroke-linejoin: bevel"/>
     <use xlink:href="#mbe99acab7c" x="79.535593" y="257.215021" style="fill: #ffac1e; stroke: #ffac1e; stroke-linejoin: bevel"/>
     <use xlink:href="#mbe99acab7c" x="84.694299" y="241.545674" style="fill: #ffac1e; stroke: #ffac1e; stroke-linejoin: bevel"/>
     <use xlink:href="#mbe99acab7c" x="89.853005" y="231.683131" style="fill: #ffac1e; stroke: #ffac1e; stroke-linejoin: bevel"/>
     <use xlink:href="#mbe99acab7c" x="95.01171" y="103.50869" style="fill: #ffac1e; stroke: #ffac1e; stroke-linejoin: bevel"/>
     <use xlink:href="#mbe99acab7c" x="100.170416" y="52.064089" style="fill: #ffac1e; stroke: #ffac1e; stroke-linejoin: bevel"/>
     <use xlink:href="#mbe99acab7c" x="105.329122" y="51.463091" style="fill: #ffac1e; stroke: #ffac1e; stroke-linejoin: bevel"/>
     <use xlink:href="#mbe99acab7c" x="110.487827" y="50.196251" style="fill: #ffac1e; stroke: #ffac1e; stroke-linejoin: bevel"/>
     <use xlink:href="#mbe99acab7c" x="115.646533" y="51.609829" style="fill: #ffac1e; stroke: #ffac1e; stroke-linejoin: bevel"/>
     <use xlink:href="#mbe99acab7c" x="120.805239" y="49.762468" style="fill: #ffac1e; stroke: #ffac1e; stroke-linejoin: bevel"/>
     <use xlink:href="#mbe99acab7c" x="125.963945" y="49.412782" style="fill: #ffac1e; stroke: #ffac1e; stroke-linejoin: bevel"/>
     <use xlink:href="#mbe99acab7c" x="131.12265" y="77.891522" style="fill: #ffac1e; stroke: #ffac1e; stroke-linejoin: bevel"/>
     <use xlink:href="#mbe99acab7c" x="136.281356" y="76.935344" style="fill: #ffac1e; stroke: #ffac1e; stroke-linejoin: bevel"/>
     <use xlink:href="#mbe99acab7c" x="141.440062" y="68.930798" style="fill: #ffac1e; stroke: #ffac1e; stroke-linejoin: bevel"/>
     <use xlink:href="#mbe99acab7c" x="146.598767" y="56.921251" style="fill: #ffac1e; stroke: #ffac1e; stroke-linejoin: bevel"/>
     <use xlink:href="#mbe99acab7c" x="151.757473" y="68.316923" style="fill: #ffac1e; stroke: #ffac1e; stroke-linejoin: bevel"/>
     <use xlink:href="#mbe99acab7c" x="156.916179" y="57.718946" style="fill: #ffac1e; stroke: #ffac1e; stroke-linejoin: bevel"/>
     <use xlink:href="#mbe99acab7c" x="162.074884" y="51.274591" style="fill: #ffac1e; stroke: #ffac1e; stroke-linejoin: bevel"/>
     <use xlink:href="#mbe99acab7c" x="167.23359" y="52.229664" style="fill: #ffac1e; stroke: #ffac1e; stroke-linejoin: bevel"/>
     <use xlink:href="#mbe99acab7c" x="172.392296" y="51.274591" style="fill: #ffac1e; stroke: #ffac1e; stroke-linejoin: bevel"/>
     <use xlink:href="#mbe99acab7c" x="177.551002" y="52.229664" style="fill: #ffac1e; stroke: #ffac1e; stroke-linejoin: bevel"/>
     <use xlink:href="#mbe99acab7c" x="182.709707" y="51.274591" style="fill: #ffac1e; stroke: #ffac1e; stroke-linejoin: bevel"/>
     <use xlink:href="#mbe99acab7c" x="187.868413" y="58.436608" style="fill: #ffac1e; stroke: #ffac1e; stroke-linejoin: bevel"/>
     <use xlink:href="#mbe99acab7c" x="193.027119" y="68.316923" style="fill: #ffac1e; stroke: #ffac1e; stroke-linejoin: bevel"/>
     <use xlink:href="#mbe99acab7c" x="198.185824" y="69.971853" style="fill: #ffac1e; stroke: #ffac1e; stroke-linejoin: bevel"/>
     <use xlink:href="#mbe99acab7c" x="203.34453" y="58.829338" style="fill: #ffac1e; stroke: #ffac1e; stroke-linejoin: bevel"/>
     <use xlink:href="#mbe99acab7c" x="208.503236" y="68.930798" style="fill: #ffac1e; stroke: #ffac1e; stroke-linejoin: bevel"/>
     <use xlink:href="#mbe99acab7c" x="213.661941" y="58.829338" style="fill: #ffac1e; stroke: #ffac1e; stroke-linejoin: bevel"/>
     <use xlink:href="#mbe99acab7c" x="218.820647" y="52.167868" style="fill: #ffac1e; stroke: #ffac1e; stroke-linejoin: bevel"/>
     <use xlink:href="#mbe99acab7c" x="223.979353" y="52.167868" style="fill: #ffac1e; stroke: #ffac1e; stroke-linejoin: bevel"/>
     <use xlink:href="#mbe99acab7c" x="229.138059" y="51.144857" style="fill: #ffac1e; stroke: #ffac1e; stroke-linejoin: bevel"/>
     <use xlink:href="#mbe99acab7c" x="234.296764" y="51.144857" style="fill: #ffac1e; stroke: #ffac1e; stroke-linejoin: bevel"/>
     <use xlink:href="#mbe99acab7c" x="239.45547" y="50.077107" style="fill: #ffac1e; stroke: #ffac1e; stroke-linejoin: bevel"/>
     <use xlink:href="#mbe99acab7c" x="244.614176" y="50.077107" style="fill: #ffac1e; stroke: #ffac1e; stroke-linejoin: bevel"/>
     <use xlink:href="#mbe99acab7c" x="249.772881" y="50.556657" style="fill: #ffac1e; stroke: #ffac1e; stroke-linejoin: bevel"/>
     <use xlink:href="#mbe99acab7c" x="254.931587" y="50.556657" style="fill: #ffac1e; stroke: #ffac1e; stroke-linejoin: bevel"/>
     <use xlink:href="#mbe99acab7c" x="260.090293" y="51.144857" style="fill: #ffac1e; stroke: #ffac1e; stroke-linejoin: bevel"/>
     <use xlink:href="#mbe99acab7c" x="265.248998" y="61.705365" style="fill: #ffac1e; stroke: #ffac1e; stroke-linejoin: bevel"/>
     <use xlink:href="#mbe99acab7c" x="270.407704" y="50.556657" style="fill: #ffac1e; stroke: #ffac1e; stroke-linejoin: bevel"/>
     <use xlink:href="#mbe99acab7c" x="275.56641" y="50.556657" style="fill: #ffac1e; stroke: #ffac1e; stroke-linejoin: bevel"/>
     <use xlink:href="#mbe99acab7c" x="280.725116" y="50.556657" style="fill: #ffac1e; stroke: #ffac1e; stroke-linejoin: bevel"/>
     <use xlink:href="#mbe99acab7c" x="285.883821" y="50.556657" style="fill: #ffac1e; stroke: #ffac1e; stroke-linejoin: bevel"/>
     <use xlink:href="#mbe99acab7c" x="291.042527" y="50.556657" style="fill: #ffac1e; stroke: #ffac1e; stroke-linejoin: bevel"/>
     <use xlink:href="#mbe99acab7c" x="296.201233" y="45.947854" style="fill: #ffac1e; stroke: #ffac1e; stroke-linejoin: bevel"/>
     <use xlink:href="#mbe99acab7c" x="301.359938" y="45.947854" style="fill: #ffac1e; stroke: #ffac1e; stroke-linejoin: bevel"/>
     <use xlink:href="#mbe99acab7c" x="306.518644" y="45.947854" style="fill: #ffac1e; stroke: #ffac1e; stroke-linejoin: bevel"/>
     <use xlink:href="#mbe99acab7c" x="311.67735" y="46.422973" style="fill: #ffac1e; stroke: #ffac1e; stroke-linejoin: bevel"/>
     <use xlink:href="#mbe99acab7c" x="316.836055" y="46.422973" style="fill: #ffac1e; stroke: #ffac1e; stroke-linejoin: bevel"/>
     <use xlink:href="#mbe99acab7c" x="321.994761" y="46.422973" style="fill: #ffac1e; stroke: #ffac1e; stroke-linejoin: bevel"/>
     <use xlink:href="#mbe99acab7c" x="327.153467" y="46.422973" style="fill: #ffac1e; stroke: #ffac1e; stroke-linejoin: bevel"/>
     <use xlink:href="#mbe99acab7c" x="332.312173" y="46.422973" style="fill: #ffac1e; stroke: #ffac1e; stroke-linejoin: bevel"/>
     <use xlink:href="#mbe99acab7c" x="337.470878" y="45.947854" style="fill: #ffac1e; stroke: #ffac1e; stroke-linejoin: bevel"/>
     <use xlink:href="#mbe99acab7c" x="342.629584" y="45.947854" style="fill: #ffac1e; stroke: #ffac1e; stroke-linejoin: bevel"/>
     <use xlink:href="#mbe99acab7c" x="347.78829" y="45.947854" style="fill: #ffac1e; stroke: #ffac1e; stroke-linejoin: bevel"/>
     <use xlink:href="#mbe99acab7c" x="352.946995" y="50.556657" style="fill: #ffac1e; stroke: #ffac1e; stroke-linejoin: bevel"/>
     <use xlink:href="#mbe99acab7c" x="358.105701" y="51.144857" style="fill: #ffac1e; stroke: #ffac1e; stroke-linejoin: bevel"/>
     <use xlink:href="#mbe99acab7c" x="363.264407" y="45.947854" style="fill: #ffac1e; stroke: #ffac1e; stroke-linejoin: bevel"/>
     <use xlink:href="#mbe99acab7c" x="368.423112" y="45.947854" style="fill: #ffac1e; stroke: #ffac1e; stroke-linejoin: bevel"/>
     <use xlink:href="#mbe99acab7c" x="373.581818" y="45.947854" style="fill: #ffac1e; stroke: #ffac1e; stroke-linejoin: bevel"/>
    </g>
   </g>
   <g id="line2d_33">
    <path d="M 69.218182 255.589234 
L 74.376888 264.829917 
L 79.535593 256.411362 
L 84.694299 258.200672 
L 89.853005 109.517602 
L 95.01171 254.358214 
L 100.170416 54.136277 
L 105.329122 77.186063 
L 110.487827 75.431013 
L 115.646533 54.136277 
L 120.805239 57.191968 
L 125.963945 63.234126 
L 131.12265 66.948682 
L 136.281356 67.895998 
L 141.440062 57.14243 
L 146.598767 57.14243 
L 151.757473 57.14243 
L 156.916179 60.554573 
L 162.074884 57.14243 
L 167.23359 57.142429 
L 172.392296 57.14243 
L 177.551002 57.142429 
L 182.709707 57.14243 
L 187.868413 57.14243 
L 193.027119 63.029695 
L 198.185824 63.029695 
L 203.34453 73.34005 
L 208.503236 73.34005 
L 213.661941 52.363176 
L 218.820647 52.363176 
L 223.979353 57.14243 
L 229.138059 57.14243 
L 234.296764 52.363176 
L 239.45547 52.363176 
L 244.614176 52.363176 
L 249.772881 52.363176 
L 254.931587 52.363176 
L 260.090293 52.363176 
L 265.248998 52.363176 
L 270.407704 52.363176 
L 275.56641 52.363176 
L 280.725116 52.363176 
L 285.883821 52.363176 
L 291.042527 52.363176 
L 296.201233 52.363176 
L 301.359938 52.363176 
L 306.518644 51.73997 
L 311.67735 52.363176 
L 316.836055 52.363176 
L 321.994761 52.363176 
L 327.153467 51.73997 
L 332.312173 51.73997 
L 337.470878 51.73997 
L 342.629584 51.73997 
L 347.78829 51.73997 
L 352.946995 51.73997 
L 358.105701 51.73997 
L 363.264407 51.73997 
L 368.423112 51.73997 
L 373.581818 51.73997 
" clip-path="url(#pcf8c5a89b0)" style="fill: none; stroke: #009435; stroke-width: 1.5; stroke-linecap: square"/>
    <defs>
     <path id="m7ae5ec5342" d="M -2 2 
L 2 2 
L 2 -2 
L -2 -2 
z
" style="stroke: #009435; stroke-linejoin: miter"/>
    </defs>
    <g clip-path="url(#pcf8c5a89b0)">
     <use xlink:href="#m7ae5ec5342" x="69.218182" y="255.589234" style="fill: #009435; stroke: #009435; stroke-linejoin: miter"/>
     <use xlink:href="#m7ae5ec5342" x="74.376888" y="264.829917" style="fill: #009435; stroke: #009435; stroke-linejoin: miter"/>
     <use xlink:href="#m7ae5ec5342" x="79.535593" y="256.411362" style="fill: #009435; stroke: #009435; stroke-linejoin: miter"/>
     <use xlink:href="#m7ae5ec5342" x="84.694299" y="258.200672" style="fill: #009435; stroke: #009435; stroke-linejoin: miter"/>
     <use xlink:href="#m7ae5ec5342" x="89.853005" y="109.517602" style="fill: #009435; stroke: #009435; stroke-linejoin: miter"/>
     <use xlink:href="#m7ae5ec5342" x="95.01171" y="254.358214" style="fill: #009435; stroke: #009435; stroke-linejoin: miter"/>
     <use xlink:href="#m7ae5ec5342" x="100.170416" y="54.136277" style="fill: #009435; stroke: #009435; stroke-linejoin: miter"/>
     <use xlink:href="#m7ae5ec5342" x="105.329122" y="77.186063" style="fill: #009435; stroke: #009435; stroke-linejoin: miter"/>
     <use xlink:href="#m7ae5ec5342" x="110.487827" y="75.431013" style="fill: #009435; stroke: #009435; stroke-linejoin: miter"/>
     <use xlink:href="#m7ae5ec5342" x="115.646533" y="54.136277" style="fill: #009435; stroke: #009435; stroke-linejoin: miter"/>
     <use xlink:href="#m7ae5ec5342" x="120.805239" y="57.191968" style="fill: #009435; stroke: #009435; stroke-linejoin: miter"/>
     <use xlink:href="#m7ae5ec5342" x="125.963945" y="63.234126" style="fill: #009435; stroke: #009435; stroke-linejoin: miter"/>
     <use xlink:href="#m7ae5ec5342" x="131.12265" y="66.948682" style="fill: #009435; stroke: #009435; stroke-linejoin: miter"/>
     <use xlink:href="#m7ae5ec5342" x="136.281356" y="67.895998" style="fill: #009435; stroke: #009435; stroke-linejoin: miter"/>
     <use xlink:href="#m7ae5ec5342" x="141.440062" y="57.14243" style="fill: #009435; stroke: #009435; stroke-linejoin: miter"/>
     <use xlink:href="#m7ae5ec5342" x="146.598767" y="57.14243" style="fill: #009435; stroke: #009435; stroke-linejoin: miter"/>
     <use xlink:href="#m7ae5ec5342" x="151.757473" y="57.14243" style="fill: #009435; stroke: #009435; stroke-linejoin: miter"/>
     <use xlink:href="#m7ae5ec5342" x="156.916179" y="60.554573" style="fill: #009435; stroke: #009435; stroke-linejoin: miter"/>
     <use xlink:href="#m7ae5ec5342" x="162.074884" y="57.14243" style="fill: #009435; stroke: #009435; stroke-linejoin: miter"/>
     <use xlink:href="#m7ae5ec5342" x="167.23359" y="57.142429" style="fill: #009435; stroke: #009435; stroke-linejoin: miter"/>
     <use xlink:href="#m7ae5ec5342" x="172.392296" y="57.14243" style="fill: #009435; stroke: #009435; stroke-linejoin: miter"/>
     <use xlink:href="#m7ae5ec5342" x="177.551002" y="57.142429" style="fill: #009435; stroke: #009435; stroke-linejoin: miter"/>
     <use xlink:href="#m7ae5ec5342" x="182.709707" y="57.14243" style="fill: #009435; stroke: #009435; stroke-linejoin: miter"/>
     <use xlink:href="#m7ae5ec5342" x="187.868413" y="57.14243" style="fill: #009435; stroke: #009435; stroke-linejoin: miter"/>
     <use xlink:href="#m7ae5ec5342" x="193.027119" y="63.029695" style="fill: #009435; stroke: #009435; stroke-linejoin: miter"/>
     <use xlink:href="#m7ae5ec5342" x="198.185824" y="63.029695" style="fill: #009435; stroke: #009435; stroke-linejoin: miter"/>
     <use xlink:href="#m7ae5ec5342" x="203.34453" y="73.34005" style="fill: #009435; stroke: #009435; stroke-linejoin: miter"/>
     <use xlink:href="#m7ae5ec5342" x="208.503236" y="73.34005" style="fill: #009435; stroke: #009435; stroke-linejoin: miter"/>
     <use xlink:href="#m7ae5ec5342" x="213.661941" y="52.363176" style="fill: #009435; stroke: #009435; stroke-linejoin: miter"/>
     <use xlink:href="#m7ae5ec5342" x="218.820647" y="52.363176" style="fill: #009435; stroke: #009435; stroke-linejoin: miter"/>
     <use xlink:href="#m7ae5ec5342" x="223.979353" y="57.14243" style="fill: #009435; stroke: #009435; stroke-linejoin: miter"/>
     <use xlink:href="#m7ae5ec5342" x="229.138059" y="57.14243" style="fill: #009435; stroke: #009435; stroke-linejoin: miter"/>
     <use xlink:href="#m7ae5ec5342" x="234.296764" y="52.363176" style="fill: #009435; stroke: #009435; stroke-linejoin: miter"/>
     <use xlink:href="#m7ae5ec5342" x="239.45547" y="52.363176" style="fill: #009435; stroke: #009435; stroke-linejoin: miter"/>
     <use xlink:href="#m7ae5ec5342" x="244.614176" y="52.363176" style="fill: #009435; stroke: #009435; stroke-linejoin: miter"/>
     <use xlink:href="#m7ae5ec5342" x="249.772881" y="52.363176" style="fill: #009435; stroke: #009435; stroke-linejoin: miter"/>
     <use xlink:href="#m7ae5ec5342" x="254.931587" y="52.363176" style="fill: #009435; stroke: #009435; stroke-linejoin: miter"/>
     <use xlink:href="#m7ae5ec5342" x="260.090293" y="52.363176" style="fill: #009435; stroke: #009435; stroke-linejoin: miter"/>
     <use xlink:href="#m7ae5ec5342" x="265.248998" y="52.363176" style="fill: #009435; stroke: #009435; stroke-linejoin: miter"/>
     <use xlink:href="#m7ae5ec5342" x="270.407704" y="52.363176" style="fill: #009435; stroke: #009435; stroke-linejoin: miter"/>
     <use xlink:href="#m7ae5ec5342" x="275.56641" y="52.363176" style="fill: #009435; stroke: #009435; stroke-linejoin: miter"/>
     <use xlink:href="#m7ae5ec5342" x="280.725116" y="52.363176" style="fill: #009435; stroke: #009435; stroke-linejoin: miter"/>
     <use xlink:href="#m7ae5ec5342" x="285.883821" y="52.363176" style="fill: #009435; stroke: #009435; stroke-linejoin: miter"/>
     <use xlink:href="#m7ae5ec5342" x="291.042527" y="52.363176" style="fill: #009435; stroke: #009435; stroke-linejoin: miter"/>
     <use xlink:href="#m7ae5ec5342" x="296.201233" y="52.363176" style="fill: #009435; stroke: #009435; stroke-linejoin: miter"/>
     <use xlink:href="#m7ae5ec5342" x="301.359938" y="52.363176" style="fill: #009435; stroke: #009435; stroke-linejoin: miter"/>
     <use xlink:href="#m7ae5ec5342" x="306.518644" y="51.73997" style="fill: #009435; stroke: #009435; stroke-linejoin: miter"/>
     <use xlink:href="#m7ae5ec5342" x="311.67735" y="52.363176" style="fill: #009435; stroke: #009435; stroke-linejoin: miter"/>
     <use xlink:href="#m7ae5ec5342" x="316.836055" y="52.363176" style="fill: #009435; stroke: #009435; stroke-linejoin: miter"/>
     <use xlink:href="#m7ae5ec5342" x="321.994761" y="52.363176" style="fill: #009435; stroke: #009435; stroke-linejoin: miter"/>
     <use xlink:href="#m7ae5ec5342" x="327.153467" y="51.73997" style="fill: #009435; stroke: #009435; stroke-linejoin: miter"/>
     <use xlink:href="#m7ae5ec5342" x="332.312173" y="51.73997" style="fill: #009435; stroke: #009435; stroke-linejoin: miter"/>
     <use xlink:href="#m7ae5ec5342" x="337.470878" y="51.73997" style="fill: #009435; stroke: #009435; stroke-linejoin: miter"/>
     <use xlink:href="#m7ae5ec5342" x="342.629584" y="51.73997" style="fill: #009435; stroke: #009435; stroke-linejoin: miter"/>
     <use xlink:href="#m7ae5ec5342" x="347.78829" y="51.73997" style="fill: #009435; stroke: #009435; stroke-linejoin: miter"/>
     <use xlink:href="#m7ae5ec5342" x="352.946995" y="51.73997" style="fill: #009435; stroke: #009435; stroke-linejoin: miter"/>
     <use xlink:href="#m7ae5ec5342" x="358.105701" y="51.73997" style="fill: #009435; stroke: #009435; stroke-linejoin: miter"/>
     <use xlink:href="#m7ae5ec5342" x="363.264407" y="51.73997" style="fill: #009435; stroke: #009435; stroke-linejoin: miter"/>
     <use xlink:href="#m7ae5ec5342" x="368.423112" y="51.73997" style="fill: #009435; stroke: #009435; stroke-linejoin: miter"/>
     <use xlink:href="#m7ae5ec5342" x="373.581818" y="51.73997" style="fill: #009435; stroke: #009435; stroke-linejoin: miter"/>
    </g>
   </g>
   <g id="patch_3">
    <path d="M 54 252 
L 54 34.56 
" style="fill: none; stroke: #000000; stroke-width: 0.8; stroke-linejoin: miter; stroke-linecap: square"/>
   </g>
   <g id="patch_4">
    <path d="M 388.8 252 
L 388.8 34.56 
" style="fill: none; stroke: #000000; stroke-width: 0.8; stroke-linejoin: miter; stroke-linecap: square"/>
   </g>
   <g id="patch_5">
    <path d="M 54 252 
L 388.8 252 
" style="fill: none; stroke: #000000; stroke-width: 0.8; stroke-linejoin: miter; stroke-linecap: square"/>
   </g>
   <g id="patch_6">
    <path d="M 54 34.56 
L 388.8 34.56 
" style="fill: none; stroke: #000000; stroke-width: 0.8; stroke-linejoin: miter; stroke-linecap: square"/>
   </g>
   <g id="text_17">
    <!-- ζ-R-max agent policy with m = 3.5 -->
    <g transform="translate(117.225 28.56)scale(0.12 -0.12)">
     <defs>
      <path id="DejaVuSans-3b6" d="M 2231 397 
Q 2644 394 2891 159 
Q 3153 -88 3153 -463 
Q 3153 -822 2922 -1072 
Q 2672 -1344 2163 -1344 
Q 2163 -1109 2163 -872 
Q 2378 -888 2509 -750 
Q 2609 -641 2609 -525 
Q 2609 -359 2509 -222 
Q 2413 -91 2231 -91 
Q 338 -91 334 1669 
Q 334 3206 2119 4284 
L 456 4284 
L 456 4863 
L 3175 4863 
L 3175 4284 
Q 913 3147 913 1669 
Q 913 397 2231 397 
z
" transform="scale(0.015625)"/>
      <path id="DejaVuSans-2d" d="M 313 2009 
L 1997 2009 
L 1997 1497 
L 313 1497 
L 313 2009 
z
" transform="scale(0.015625)"/>
      <path id="DejaVuSans-52" d="M 2841 2188 
Q 3044 2119 3236 1894 
Q 3428 1669 3622 1275 
L 4263 0 
L 3584 0 
L 2988 1197 
Q 2756 1666 2539 1819 
Q 2322 1972 1947 1972 
L 1259 1972 
L 1259 0 
L 628 0 
L 628 4666 
L 2053 4666 
Q 2853 4666 3247 4331 
Q 3641 3997 3641 3322 
Q 3641 2881 3436 2590 
Q 3231 2300 2841 2188 
z
M 1259 4147 
L 1259 2491 
L 2053 2491 
Q 2509 2491 2742 2702 
Q 2975 2913 2975 3322 
Q 2975 3731 2742 3939 
Q 2509 4147 2053 4147 
L 1259 4147 
z
" transform="scale(0.015625)"/>
      <path id="DejaVuSans-6d" d="M 3328 2828 
Q 3544 3216 3844 3400 
Q 4144 3584 4550 3584 
Q 5097 3584 5394 3201 
Q 5691 2819 5691 2113 
L 5691 0 
L 5113 0 
L 5113 2094 
Q 5113 2597 4934 2840 
Q 4756 3084 4391 3084 
Q 3944 3084 3684 2787 
Q 3425 2491 3425 1978 
L 3425 0 
L 2847 0 
L 2847 2094 
Q 2847 2600 2669 2842 
Q 2491 3084 2119 3084 
Q 1678 3084 1418 2786 
Q 1159 2488 1159 1978 
L 1159 0 
L 581 0 
L 581 3500 
L 1159 3500 
L 1159 2956 
Q 1356 3278 1631 3431 
Q 1906 3584 2284 3584 
Q 2666 3584 2933 3390 
Q 3200 3197 3328 2828 
z
" transform="scale(0.015625)"/>
      <path id="DejaVuSans-78" d="M 3513 3500 
L 2247 1797 
L 3578 0 
L 2900 0 
L 1881 1375 
L 863 0 
L 184 0 
L 1544 1831 
L 300 3500 
L 978 3500 
L 1906 2253 
L 2834 3500 
L 3513 3500 
z
" transform="scale(0.015625)"/>
      <path id="DejaVuSans-67" d="M 2906 1791 
Q 2906 2416 2648 2759 
Q 2391 3103 1925 3103 
Q 1463 3103 1205 2759 
Q 947 2416 947 1791 
Q 947 1169 1205 825 
Q 1463 481 1925 481 
Q 2391 481 2648 825 
Q 2906 1169 2906 1791 
z
M 3481 434 
Q 3481 -459 3084 -895 
Q 2688 -1331 1869 -1331 
Q 1566 -1331 1297 -1286 
Q 1028 -1241 775 -1147 
L 775 -588 
Q 1028 -725 1275 -790 
Q 1522 -856 1778 -856 
Q 2344 -856 2625 -561 
Q 2906 -266 2906 331 
L 2906 616 
Q 2728 306 2450 153 
Q 2172 0 1784 0 
Q 1141 0 747 490 
Q 353 981 353 1791 
Q 353 2603 747 3093 
Q 1141 3584 1784 3584 
Q 2172 3584 2450 3431 
Q 2728 3278 2906 2969 
L 2906 3500 
L 3481 3500 
L 3481 434 
z
" transform="scale(0.015625)"/>
      <path id="DejaVuSans-6e" d="M 3513 2113 
L 3513 0 
L 2938 0 
L 2938 2094 
Q 2938 2591 2744 2837 
Q 2550 3084 2163 3084 
Q 1697 3084 1428 2787 
Q 1159 2491 1159 1978 
L 1159 0 
L 581 0 
L 581 3500 
L 1159 3500 
L 1159 2956 
Q 1366 3272 1645 3428 
Q 1925 3584 2291 3584 
Q 2894 3584 3203 3211 
Q 3513 2838 3513 2113 
z
" transform="scale(0.015625)"/>
      <path id="DejaVuSans-77" d="M 269 3500 
L 844 3500 
L 1563 769 
L 2278 3500 
L 2956 3500 
L 3675 769 
L 4391 3500 
L 4966 3500 
L 4050 0 
L 3372 0 
L 2619 2869 
L 1863 0 
L 1184 0 
L 269 3500 
z
" transform="scale(0.015625)"/>
      <path id="DejaVuSans-68" d="M 3513 2113 
L 3513 0 
L 2938 0 
L 2938 2094 
Q 2938 2591 2744 2837 
Q 2550 3084 2163 3084 
Q 1697 3084 1428 2787 
Q 1159 2491 1159 1978 
L 1159 0 
L 581 0 
L 581 4863 
L 1159 4863 
L 1159 2956 
Q 1366 3272 1645 3428 
Q 1925 3584 2291 3584 
Q 2894 3584 3203 3211 
Q 3513 2838 3513 2113 
z
" transform="scale(0.015625)"/>
      <path id="DejaVuSans-3d" d="M 678 2906 
L 4684 2906 
L 4684 2381 
L 678 2381 
L 678 2906 
z
M 678 1631 
L 4684 1631 
L 4684 1100 
L 678 1100 
L 678 1631 
z
" transform="scale(0.015625)"/>
      <path id="DejaVuSans-2e" d="M 684 794 
L 1344 794 
L 1344 0 
L 684 0 
L 684 794 
z
" transform="scale(0.015625)"/>
     </defs>
     <use xlink:href="#DejaVuSans-3b6"/>
     <use xlink:href="#DejaVuSans-2d" x="54.394531"/>
     <use xlink:href="#DejaVuSans-52" x="90.478516"/>
     <use xlink:href="#DejaVuSans-2d" x="155.960938"/>
     <use xlink:href="#DejaVuSans-6d" x="192.044922"/>
     <use xlink:href="#DejaVuSans-61" x="289.457031"/>
     <use xlink:href="#DejaVuSans-78" x="350.736328"/>
     <use xlink:href="#DejaVuSans-20" x="409.916016"/>
     <use xlink:href="#DejaVuSans-61" x="441.703125"/>
     <use xlink:href="#DejaVuSans-67" x="502.982422"/>
     <use xlink:href="#DejaVuSans-65" x="566.458984"/>
     <use xlink:href="#DejaVuSans-6e" x="627.982422"/>
     <use xlink:href="#DejaVuSans-74" x="691.361328"/>
     <use xlink:href="#DejaVuSans-20" x="730.570312"/>
     <use xlink:href="#DejaVuSans-70" x="762.357422"/>
     <use xlink:href="#DejaVuSans-6f" x="825.833984"/>
     <use xlink:href="#DejaVuSans-6c" x="887.015625"/>
     <use xlink:href="#DejaVuSans-69" x="914.798828"/>
     <use xlink:href="#DejaVuSans-63" x="942.582031"/>
     <use xlink:href="#DejaVuSans-79" x="997.5625"/>
     <use xlink:href="#DejaVuSans-20" x="1056.742188"/>
     <use xlink:href="#DejaVuSans-77" x="1088.529297"/>
     <use xlink:href="#DejaVuSans-69" x="1170.316406"/>
     <use xlink:href="#DejaVuSans-74" x="1198.099609"/>
     <use xlink:href="#DejaVuSans-68" x="1237.308594"/>
     <use xlink:href="#DejaVuSans-20" x="1300.6875"/>
     <use xlink:href="#DejaVuSans-6d" x="1332.474609"/>
     <use xlink:href="#DejaVuSans-20" x="1429.886719"/>
     <use xlink:href="#DejaVuSans-3d" x="1461.673828"/>
     <use xlink:href="#DejaVuSans-20" x="1545.462891"/>
     <use xlink:href="#DejaVuSans-33" x="1577.25"/>
     <use xlink:href="#DejaVuSans-2e" x="1640.873047"/>
     <use xlink:href="#DejaVuSans-35" x="1672.660156"/>
    </g>
   </g>
   <g id="legend_1">
    <g id="patch_7">
     <path d="M 297.796875 247 
L 381.8 247 
Q 383.8 247 383.8 245 
L 383.8 172.609375 
Q 383.8 170.609375 381.8 170.609375 
L 297.796875 170.609375 
Q 295.796875 170.609375 295.796875 172.609375 
L 295.796875 245 
Q 295.796875 247 297.796875 247 
z
" style="fill: #ffffff; opacity: 0.8; stroke: #cccccc; stroke-linejoin: miter"/>
    </g>
    <g id="line2d_34">
     <path d="M 299.796875 178.707812 
L 309.796875 178.707812 
L 319.796875 178.707812 
" style="fill: none; stroke: #9d02d7; stroke-width: 1.5; stroke-linecap: square"/>
     <g>
      <use xlink:href="#mba39b20b54" x="309.796875" y="178.707812" style="fill: #9d02d7; stroke: #9d02d7; stroke-linejoin: miter"/>
     </g>
    </g>
    <g id="text_18">
     <!-- alpha=0.1 -->
     <g transform="translate(327.796875 182.207812)scale(0.1 -0.1)">
      <use xlink:href="#DejaVuSans-61"/>
      <use xlink:href="#DejaVuSans-6c" x="61.279297"/>
      <use xlink:href="#DejaVuSans-70" x="89.0625"/>
      <use xlink:href="#DejaVuSans-68" x="152.539062"/>
      <use xlink:href="#DejaVuSans-61" x="215.917969"/>
      <use xlink:href="#DejaVuSans-3d" x="277.197266"/>
      <use xlink:href="#DejaVuSans-30" x="360.986328"/>
      <use xlink:href="#DejaVuSans-2e" x="424.609375"/>
      <use xlink:href="#DejaVuSans-31" x="456.396484"/>
     </g>
    </g>
    <g id="line2d_35">
     <path d="M 299.796875 193.385938 
L 309.796875 193.385938 
L 319.796875 193.385938 
" style="fill: none; stroke: #0000ff; stroke-width: 1.5; stroke-linecap: square"/>
     <g>
      <use xlink:href="#m99be63c0c3" x="309.796875" y="193.385938" style="fill: #0000ff; stroke: #0000ff"/>
     </g>
    </g>
    <g id="text_19">
     <!-- alpha=0.5 -->
     <g transform="translate(327.796875 196.885938)scale(0.1 -0.1)">
      <use xlink:href="#DejaVuSans-61"/>
      <use xlink:href="#DejaVuSans-6c" x="61.279297"/>
      <use xlink:href="#DejaVuSans-70" x="89.0625"/>
      <use xlink:href="#DejaVuSans-68" x="152.539062"/>
      <use xlink:href="#DejaVuSans-61" x="215.917969"/>
      <use xlink:href="#DejaVuSans-3d" x="277.197266"/>
      <use xlink:href="#DejaVuSans-30" x="360.986328"/>
      <use xlink:href="#DejaVuSans-2e" x="424.609375"/>
      <use xlink:href="#DejaVuSans-35" x="456.396484"/>
     </g>
    </g>
    <g id="line2d_36">
     <path d="M 299.796875 208.064063 
L 309.796875 208.064063 
L 319.796875 208.064063 
" style="fill: none; stroke: #ff7763; stroke-width: 1.5; stroke-linecap: square"/>
     <g>
      <use xlink:href="#m54e5bd8f3d" x="309.796875" y="208.064063" style="fill: #ff7763; stroke: #ff7763"/>
     </g>
    </g>
    <g id="text_20">
     <!-- alpha=1.0 -->
     <g transform="translate(327.796875 211.564063)scale(0.1 -0.1)">
      <use xlink:href="#DejaVuSans-61"/>
      <use xlink:href="#DejaVuSans-6c" x="61.279297"/>
      <use xlink:href="#DejaVuSans-70" x="89.0625"/>
      <use xlink:href="#DejaVuSans-68" x="152.539062"/>
      <use xlink:href="#DejaVuSans-61" x="215.917969"/>
      <use xlink:href="#DejaVuSans-3d" x="277.197266"/>
      <use xlink:href="#DejaVuSans-31" x="360.986328"/>
      <use xlink:href="#DejaVuSans-2e" x="424.609375"/>
      <use xlink:href="#DejaVuSans-30" x="456.396484"/>
     </g>
    </g>
    <g id="line2d_37">
     <path d="M 299.796875 222.742188 
L 309.796875 222.742188 
L 319.796875 222.742188 
" style="fill: none; stroke: #ffac1e; stroke-width: 1.5; stroke-linecap: square"/>
     <g>
      <use xlink:href="#mbe99acab7c" x="309.796875" y="222.742188" style="fill: #ffac1e; stroke: #ffac1e; stroke-linejoin: bevel"/>
     </g>
    </g>
    <g id="text_21">
     <!-- alpha=1.5 -->
     <g transform="translate(327.796875 226.242188)scale(0.1 -0.1)">
      <use xlink:href="#DejaVuSans-61"/>
      <use xlink:href="#DejaVuSans-6c" x="61.279297"/>
      <use xlink:href="#DejaVuSans-70" x="89.0625"/>
      <use xlink:href="#DejaVuSans-68" x="152.539062"/>
      <use xlink:href="#DejaVuSans-61" x="215.917969"/>
      <use xlink:href="#DejaVuSans-3d" x="277.197266"/>
      <use xlink:href="#DejaVuSans-31" x="360.986328"/>
      <use xlink:href="#DejaVuSans-2e" x="424.609375"/>
      <use xlink:href="#DejaVuSans-35" x="456.396484"/>
     </g>
    </g>
    <g id="line2d_38">
     <path d="M 299.796875 237.420313 
L 309.796875 237.420313 
L 319.796875 237.420313 
" style="fill: none; stroke: #009435; stroke-width: 1.5; stroke-linecap: square"/>
     <g>
      <use xlink:href="#m7ae5ec5342" x="309.796875" y="237.420313" style="fill: #009435; stroke: #009435; stroke-linejoin: miter"/>
     </g>
    </g>
    <g id="text_22">
     <!-- alpha=2.0 -->
     <g transform="translate(327.796875 240.920313)scale(0.1 -0.1)">
      <use xlink:href="#DejaVuSans-61"/>
      <use xlink:href="#DejaVuSans-6c" x="61.279297"/>
      <use xlink:href="#DejaVuSans-70" x="89.0625"/>
      <use xlink:href="#DejaVuSans-68" x="152.539062"/>
      <use xlink:href="#DejaVuSans-61" x="215.917969"/>
      <use xlink:href="#DejaVuSans-3d" x="277.197266"/>
      <use xlink:href="#DejaVuSans-32" x="360.986328"/>
      <use xlink:href="#DejaVuSans-2e" x="424.609375"/>
      <use xlink:href="#DejaVuSans-30" x="456.396484"/>
     </g>
    </g>
   </g>
  </g>
 </g>
 <defs>
  <clipPath id="pcf8c5a89b0">
   <rect x="54" y="34.56" width="334.8" height="217.44"/>
  </clipPath>
 </defs>
</svg>
