<?xml version="1.0" encoding="utf-8" standalone="no"?>
<!DOCTYPE svg PUBLIC "-//W3C//DTD SVG 1.1//EN"
  "http://www.w3.org/Graphics/SVG/1.1/DTD/svg11.dtd">
<svg xmlns:xlink="http://www.w3.org/1999/xlink" width="432pt" height="288pt" viewBox="0 0 432 288" xmlns="http://www.w3.org/2000/svg" version="1.1">
 <metadata>
  <rdf:RDF xmlns:dc="http://purl.org/dc/elements/1.1/" xmlns:cc="http://creativecommons.org/ns#" xmlns:rdf="http://www.w3.org/1999/02/22-rdf-syntax-ns#">
   <cc:Work>
    <dc:type rdf:resource="http://purl.org/dc/dcmitype/StillImage"/>
    <dc:date>2023-01-11T15:36:33.524502</dc:date>
    <dc:format>image/svg+xml</dc:format>
    <dc:creator>
     <cc:Agent>
      <dc:title>Matplotlib v3.5.2, https://matplotlib.org/</dc:title>
     </cc:Agent>
    </dc:creator>
   </cc:Work>
  </rdf:RDF>
 </metadata>
 <defs>
  <style type="text/css">*{stroke-linejoin: round; stroke-linecap: butt}</style>
 </defs>
 <g id="figure_1">
  <g id="patch_1">
   <path d="M 0 288 
L 432 288 
L 432 0 
L 0 0 
z
" style="fill: #ffffff"/>
  </g>
  <g id="axes_1">
   <g id="patch_2">
    <path d="M 54 252 
L 388.8 252 
L 388.8 34.56 
L 54 34.56 
z
" style="fill: #ffffff"/>
   </g>
   <g id="PolyCollection_1">
    <defs>
     <path id="m1a7460388e" d="M 69.218182 -35.036433 
L 69.218182 -35.036433 
L 74.376888 -26.664203 
L 79.535593 -35.091182 
L 84.694299 -35.058822 
L 89.853005 -38.497333 
L 95.01171 -32.658587 
L 100.170416 -35.035681 
L 105.329122 -35.091182 
L 110.487827 -35.082223 
L 115.646533 -28.440009 
L 120.805239 -35.002223 
L 125.963945 -32.781975 
L 131.12265 -27.523677 
L 136.281356 -34.365868 
L 141.440062 -34.21436 
L 146.598767 -31.361418 
L 151.757473 -35.082947 
L 156.916179 -34.312769 
L 162.074884 -33.408027 
L 167.23359 -33.392819 
L 172.392296 -33.190247 
L 177.551002 -37.45552 
L 182.709707 -38.92546 
L 187.868413 -32.85978 
L 193.027119 -16.856984 
L 198.185824 -35.091182 
L 203.34453 -30.47883 
L 208.503236 -33.580786 
L 213.661941 -35.250425 
L 218.820647 -35.091182 
L 223.979353 -35.091182 
L 229.138059 -35.091182 
L 234.296764 -38.842671 
L 239.45547 -33.808174 
L 244.614176 -35.091182 
L 249.772881 -35.091182 
L 254.931587 -27.584846 
L 260.090293 -30.505645 
L 265.248998 -34.670009 
L 270.407704 -32.900073 
L 275.56641 -28.688999 
L 280.725116 -35.091182 
L 285.883821 -31.140384 
L 291.042527 -34.819068 
L 296.201233 -29.378296 
L 301.359938 -35.091182 
L 306.518644 -30.669493 
L 311.67735 -35.091182 
L 316.836055 -34.66011 
L 321.994761 -34.824885 
L 327.153467 -35.091182 
L 332.312173 -35.091182 
L 337.470878 -20.800789 
L 342.629584 -34.229579 
L 347.78829 -32.003828 
L 352.946995 -35.025277 
L 358.105701 -33.702456 
L 363.264407 -34.851444 
L 368.423112 -34.98554 
L 373.581818 -34.705146 
L 373.581818 -34.705146 
L 373.581818 -34.705146 
L 368.423112 -34.98554 
L 363.264407 -34.851444 
L 358.105701 -33.702456 
L 352.946995 -35.025277 
L 347.78829 -32.003828 
L 342.629584 -34.229579 
L 337.470878 -20.800789 
L 332.312173 -35.091182 
L 327.153467 -35.091182 
L 321.994761 -34.824885 
L 316.836055 -34.66011 
L 311.67735 -35.091182 
L 306.518644 -30.669493 
L 301.359938 -35.091182 
L 296.201233 -29.378296 
L 291.042527 -34.819068 
L 285.883821 -31.140384 
L 280.725116 -35.091182 
L 275.56641 -28.688999 
L 270.407704 -32.900073 
L 265.248998 -34.670009 
L 260.090293 -30.505645 
L 254.931587 -27.584846 
L 249.772881 -35.091182 
L 244.614176 -35.091182 
L 239.45547 -33.808174 
L 234.296764 -38.842671 
L 229.138059 -35.091182 
L 223.979353 -35.091182 
L 218.820647 -35.091182 
L 213.661941 -35.250425 
L 208.503236 -33.580786 
L 203.34453 -30.47883 
L 198.185824 -35.091182 
L 193.027119 -16.856984 
L 187.868413 -32.85978 
L 182.709707 -38.92546 
L 177.551002 -37.45552 
L 172.392296 -33.190247 
L 167.23359 -33.392819 
L 162.074884 -33.408027 
L 156.916179 -34.312769 
L 151.757473 -35.082947 
L 146.598767 -31.361418 
L 141.440062 -34.21436 
L 136.281356 -34.365868 
L 131.12265 -27.523677 
L 125.963945 -32.781975 
L 120.805239 -35.002223 
L 115.646533 -28.440009 
L 110.487827 -35.082223 
L 105.329122 -35.091182 
L 100.170416 -35.035681 
L 95.01171 -32.658587 
L 89.853005 -38.497333 
L 84.694299 -35.058822 
L 79.535593 -35.091182 
L 74.376888 -26.664203 
L 69.218182 -35.036433 
z
" style="stroke: #9d02d7; stroke-opacity: 0.2"/>
    </defs>
    <g clip-path="url(#p922193b689)">
     <use xlink:href="#m1a7460388e" x="0" y="288" style="fill: #9d02d7; fill-opacity: 0.2; stroke: #9d02d7; stroke-opacity: 0.2"/>
    </g>
   </g>
   <g id="PolyCollection_2">
    <defs>
     <path id="md03784909e" d="M 69.218182 -35.091182 
L 69.218182 -35.091182 
L 74.376888 -32.290275 
L 79.535593 -28.920821 
L 84.694299 -34.195153 
L 89.853005 -34.081285 
L 95.01171 -35.027749 
L 100.170416 -35.043359 
L 105.329122 -34.739841 
L 110.487827 -32.914382 
L 115.646533 -17.658242 
L 120.805239 -26.620338 
L 125.963945 -38.445132 
L 131.12265 -35.083286 
L 136.281356 -34.76795 
L 141.440062 -34.932671 
L 146.598767 -35.091182 
L 151.757473 -35.091182 
L 156.916179 -28.144565 
L 162.074884 -35.091182 
L 167.23359 -35.091182 
L 172.392296 -35.080428 
L 177.551002 -35.055627 
L 182.709707 -27.7455 
L 187.868413 -33.152783 
L 193.027119 -35.091182 
L 198.185824 -33.772192 
L 203.34453 -26.213302 
L 208.503236 -35.091182 
L 213.661941 -32.492672 
L 218.820647 -35.075023 
L 223.979353 -34.11288 
L 229.138059 -30.397134 
L 234.296764 -35.079105 
L 239.45547 -34.884332 
L 244.614176 -35.091182 
L 249.772881 -34.780222 
L 254.931587 -33.126515 
L 260.090293 -30.368708 
L 265.248998 -28.061618 
L 270.407704 -27.219674 
L 275.56641 -24.202724 
L 280.725116 -17.717405 
L 285.883821 -35.091182 
L 291.042527 -35.292872 
L 296.201233 -34.344411 
L 301.359938 -35.091182 
L 306.518644 -17.066909 
L 311.67735 -34.971152 
L 316.836055 -33.291557 
L 321.994761 -33.003565 
L 327.153467 -33.091834 
L 332.312173 -34.569289 
L 337.470878 -31.680377 
L 342.629584 -35.091182 
L 347.78829 -33.893466 
L 352.946995 -34.059154 
L 358.105701 -35.077922 
L 363.264407 -35.091182 
L 368.423112 -34.103274 
L 373.581818 -32.916954 
L 373.581818 -32.916954 
L 373.581818 -32.916954 
L 368.423112 -34.103274 
L 363.264407 -35.091182 
L 358.105701 -35.077922 
L 352.946995 -34.059154 
L 347.78829 -33.893466 
L 342.629584 -35.091182 
L 337.470878 -31.680377 
L 332.312173 -34.569289 
L 327.153467 -33.091834 
L 321.994761 -33.003565 
L 316.836055 -33.291557 
L 311.67735 -34.971152 
L 306.518644 -17.066909 
L 301.359938 -35.091182 
L 296.201233 -34.344411 
L 291.042527 -35.292872 
L 285.883821 -35.091182 
L 280.725116 -17.717405 
L 275.56641 -24.202724 
L 270.407704 -27.219674 
L 265.248998 -28.061618 
L 260.090293 -30.368708 
L 254.931587 -33.126515 
L 249.772881 -34.780222 
L 244.614176 -35.091182 
L 239.45547 -34.884332 
L 234.296764 -35.079105 
L 229.138059 -30.397134 
L 223.979353 -34.11288 
L 218.820647 -35.075023 
L 213.661941 -32.492672 
L 208.503236 -35.091182 
L 203.34453 -26.213302 
L 198.185824 -33.772192 
L 193.027119 -35.091182 
L 187.868413 -33.152783 
L 182.709707 -27.7455 
L 177.551002 -35.055627 
L 172.392296 -35.080428 
L 167.23359 -35.091182 
L 162.074884 -35.091182 
L 156.916179 -28.144565 
L 151.757473 -35.091182 
L 146.598767 -35.091182 
L 141.440062 -34.932671 
L 136.281356 -34.76795 
L 131.12265 -35.083286 
L 125.963945 -38.445132 
L 120.805239 -26.620338 
L 115.646533 -17.658242 
L 110.487827 -32.914382 
L 105.329122 -34.739841 
L 100.170416 -35.043359 
L 95.01171 -35.027749 
L 89.853005 -34.081285 
L 84.694299 -34.195153 
L 79.535593 -28.920821 
L 74.376888 -32.290275 
L 69.218182 -35.091182 
z
" style="stroke: #0000ff; stroke-opacity: 0.2"/>
    </defs>
    <g clip-path="url(#p922193b689)">
     <use xlink:href="#md03784909e" x="0" y="288" style="fill: #0000ff; fill-opacity: 0.2; stroke: #0000ff; stroke-opacity: 0.2"/>
    </g>
   </g>
   <g id="PolyCollection_3">
    <defs>
     <path id="ma533f6d871" d="M 69.218182 -37.415712 
L 69.218182 -37.415712 
L 74.376888 -34.865846 
L 79.535593 -35.091182 
L 84.694299 -34.456252 
L 89.853005 -33.930854 
L 95.01171 -36.205213 
L 100.170416 -25.642941 
L 105.329122 -35.091182 
L 110.487827 -35.058617 
L 115.646533 -35.071252 
L 120.805239 -34.981857 
L 125.963945 -31.614095 
L 131.12265 -34.054018 
L 136.281356 -39.332585 
L 141.440062 -35.04161 
L 146.598767 -30.886195 
L 151.757473 -32.154397 
L 156.916179 -35.070688 
L 162.074884 -20.082276 
L 167.23359 -35.091182 
L 172.392296 -35.091182 
L 177.551002 -32.621039 
L 182.709707 -33.881804 
L 187.868413 -35.091182 
L 193.027119 -35.091182 
L 198.185824 -35.091182 
L 203.34453 -34.970513 
L 208.503236 -23.208468 
L 213.661941 -35.091182 
L 218.820647 -35.091182 
L 223.979353 -32.477205 
L 229.138059 -35.021882 
L 234.296764 -34.303445 
L 239.45547 -28.248199 
L 244.614176 -29.575596 
L 249.772881 -19.545042 
L 254.931587 -28.913917 
L 260.090293 -35.091182 
L 265.248998 -32.833933 
L 270.407704 -23.328223 
L 275.56641 -35.091182 
L 280.725116 -34.163532 
L 285.883821 -29.9909 
L 291.042527 -34.975774 
L 296.201233 -33.464892 
L 301.359938 -34.797267 
L 306.518644 -33.818826 
L 311.67735 -34.320152 
L 316.836055 -20.707134 
L 321.994761 -35.682021 
L 327.153467 -34.844299 
L 332.312173 -34.035418 
L 337.470878 -34.975799 
L 342.629584 -35.091182 
L 347.78829 -34.708677 
L 352.946995 -34.490271 
L 358.105701 -31.256358 
L 363.264407 -32.703651 
L 368.423112 -32.702067 
L 373.581818 -22.74318 
L 373.581818 -22.74318 
L 373.581818 -22.74318 
L 368.423112 -32.702067 
L 363.264407 -32.703651 
L 358.105701 -31.256358 
L 352.946995 -34.490271 
L 347.78829 -34.708677 
L 342.629584 -35.091182 
L 337.470878 -34.975799 
L 332.312173 -34.035418 
L 327.153467 -34.844299 
L 321.994761 -35.682021 
L 316.836055 -20.707134 
L 311.67735 -34.320152 
L 306.518644 -33.818826 
L 301.359938 -34.797267 
L 296.201233 -33.464892 
L 291.042527 -34.975774 
L 285.883821 -29.9909 
L 280.725116 -34.163532 
L 275.56641 -35.091182 
L 270.407704 -23.328223 
L 265.248998 -32.833933 
L 260.090293 -35.091182 
L 254.931587 -28.913917 
L 249.772881 -19.545042 
L 244.614176 -29.575596 
L 239.45547 -28.248199 
L 234.296764 -34.303445 
L 229.138059 -35.021882 
L 223.979353 -32.477205 
L 218.820647 -35.091182 
L 213.661941 -35.091182 
L 208.503236 -23.208468 
L 203.34453 -34.970513 
L 198.185824 -35.091182 
L 193.027119 -35.091182 
L 187.868413 -35.091182 
L 182.709707 -33.881804 
L 177.551002 -32.621039 
L 172.392296 -35.091182 
L 167.23359 -35.091182 
L 162.074884 -20.082276 
L 156.916179 -35.070688 
L 151.757473 -32.154397 
L 146.598767 -30.886195 
L 141.440062 -35.04161 
L 136.281356 -39.332585 
L 131.12265 -34.054018 
L 125.963945 -31.614095 
L 120.805239 -34.981857 
L 115.646533 -35.071252 
L 110.487827 -35.058617 
L 105.329122 -35.091182 
L 100.170416 -25.642941 
L 95.01171 -36.205213 
L 89.853005 -33.930854 
L 84.694299 -34.456252 
L 79.535593 -35.091182 
L 74.376888 -34.865846 
L 69.218182 -37.415712 
z
" style="stroke: #ff7763; stroke-opacity: 0.2"/>
    </defs>
    <g clip-path="url(#p922193b689)">
     <use xlink:href="#ma533f6d871" x="0" y="288" style="fill: #ff7763; fill-opacity: 0.2; stroke: #ff7763; stroke-opacity: 0.2"/>
    </g>
   </g>
   <g id="PolyCollection_4">
    <defs>
     <path id="m3d920a2e9a" d="M 69.218182 -28.914862 
L 69.218182 -28.914862 
L 74.376888 -32.805158 
L 79.535593 -34.806797 
L 84.694299 -35.087112 
L 89.853005 -35.082049 
L 95.01171 -35.091182 
L 100.170416 -34.925406 
L 105.329122 -35.004118 
L 110.487827 -33.218996 
L 115.646533 -35.091182 
L 120.805239 -35.091182 
L 125.963945 -33.139648 
L 131.12265 -31.062085 
L 136.281356 -34.832019 
L 141.440062 -34.950422 
L 146.598767 -35.031101 
L 151.757473 -27.711004 
L 156.916179 -33.058788 
L 162.074884 -30.331005 
L 167.23359 -32.6218 
L 172.392296 -35.024815 
L 177.551002 -35.05925 
L 182.709707 -35.091182 
L 187.868413 -35.091182 
L 193.027119 -35.091182 
L 198.185824 -35.091182 
L 203.34453 -35.080953 
L 208.503236 -27.386772 
L 213.661941 -34.967528 
L 218.820647 -30.587643 
L 223.979353 -34.81654 
L 229.138059 -35.026766 
L 234.296764 -35.091182 
L 239.45547 -32.760475 
L 244.614176 -34.883713 
L 249.772881 -34.566969 
L 254.931587 -33.713219 
L 260.090293 -35.091182 
L 265.248998 -34.87935 
L 270.407704 -35.055501 
L 275.56641 -27.871685 
L 280.725116 -34.654888 
L 285.883821 -35.091182 
L 291.042527 -35.045709 
L 296.201233 -35.559405 
L 301.359938 -31.701409 
L 306.518644 -34.90225 
L 311.67735 -35.434465 
L 316.836055 -34.744357 
L 321.994761 -35.056496 
L 327.153467 -35.091182 
L 332.312173 -33.934078 
L 337.470878 -31.735015 
L 342.629584 -35.064948 
L 347.78829 -34.893249 
L 352.946995 -34.296241 
L 358.105701 -35.091182 
L 363.264407 -35.091182 
L 368.423112 -30.61952 
L 373.581818 -35.091182 
L 373.581818 -35.091182 
L 373.581818 -35.091182 
L 368.423112 -30.61952 
L 363.264407 -35.091182 
L 358.105701 -35.091182 
L 352.946995 -34.296241 
L 347.78829 -34.893249 
L 342.629584 -35.064948 
L 337.470878 -31.735015 
L 332.312173 -33.934078 
L 327.153467 -35.091182 
L 321.994761 -35.056496 
L 316.836055 -34.744357 
L 311.67735 -35.434465 
L 306.518644 -34.90225 
L 301.359938 -31.701409 
L 296.201233 -35.559405 
L 291.042527 -35.045709 
L 285.883821 -35.091182 
L 280.725116 -34.654888 
L 275.56641 -27.871685 
L 270.407704 -35.055501 
L 265.248998 -34.87935 
L 260.090293 -35.091182 
L 254.931587 -33.713219 
L 249.772881 -34.566969 
L 244.614176 -34.883713 
L 239.45547 -32.760475 
L 234.296764 -35.091182 
L 229.138059 -35.026766 
L 223.979353 -34.81654 
L 218.820647 -30.587643 
L 213.661941 -34.967528 
L 208.503236 -27.386772 
L 203.34453 -35.080953 
L 198.185824 -35.091182 
L 193.027119 -35.091182 
L 187.868413 -35.091182 
L 182.709707 -35.091182 
L 177.551002 -35.05925 
L 172.392296 -35.024815 
L 167.23359 -32.6218 
L 162.074884 -30.331005 
L 156.916179 -33.058788 
L 151.757473 -27.711004 
L 146.598767 -35.031101 
L 141.440062 -34.950422 
L 136.281356 -34.832019 
L 131.12265 -31.062085 
L 125.963945 -33.139648 
L 120.805239 -35.091182 
L 115.646533 -35.091182 
L 110.487827 -33.218996 
L 105.329122 -35.004118 
L 100.170416 -34.925406 
L 95.01171 -35.091182 
L 89.853005 -35.082049 
L 84.694299 -35.087112 
L 79.535593 -34.806797 
L 74.376888 -32.805158 
L 69.218182 -28.914862 
z
" style="stroke: #ffac1e; stroke-opacity: 0.2"/>
    </defs>
    <g clip-path="url(#p922193b689)">
     <use xlink:href="#m3d920a2e9a" x="0" y="288" style="fill: #ffac1e; fill-opacity: 0.2; stroke: #ffac1e; stroke-opacity: 0.2"/>
    </g>
   </g>
   <g id="matplotlib.axis_1">
    <g id="xtick_1">
     <g id="line2d_1">
      <path d="M 69.218182 252 
L 69.218182 34.56 
" clip-path="url(#p922193b689)" style="fill: none; stroke-dasharray: 2.96,1.28; stroke-dashoffset: 0; stroke: #b0b0b0; stroke-width: 0.8"/>
     </g>
     <g id="line2d_2">
      <defs>
       <path id="m6ed7496b0d" d="M 0 0 
L 0 3.5 
" style="stroke: #000000; stroke-width: 0.8"/>
      </defs>
      <g>
       <use xlink:href="#m6ed7496b0d" x="69.218182" y="252" style="stroke: #000000; stroke-width: 0.8"/>
      </g>
     </g>
     <g id="text_1">
      <!-- 0 -->
      <g transform="translate(66.036932 266.598437)scale(0.1 -0.1)">
       <defs>
        <path id="DejaVuSans-30" d="M 2034 4250 
Q 1547 4250 1301 3770 
Q 1056 3291 1056 2328 
Q 1056 1369 1301 889 
Q 1547 409 2034 409 
Q 2525 409 2770 889 
Q 3016 1369 3016 2328 
Q 3016 3291 2770 3770 
Q 2525 4250 2034 4250 
z
M 2034 4750 
Q 2819 4750 3233 4129 
Q 3647 3509 3647 2328 
Q 3647 1150 3233 529 
Q 2819 -91 2034 -91 
Q 1250 -91 836 529 
Q 422 1150 422 2328 
Q 422 3509 836 4129 
Q 1250 4750 2034 4750 
z
" transform="scale(0.015625)"/>
       </defs>
       <use xlink:href="#DejaVuSans-30"/>
      </g>
     </g>
    </g>
    <g id="xtick_2">
     <g id="line2d_3">
      <path d="M 120.805239 252 
L 120.805239 34.56 
" clip-path="url(#p922193b689)" style="fill: none; stroke-dasharray: 2.96,1.28; stroke-dashoffset: 0; stroke: #b0b0b0; stroke-width: 0.8"/>
     </g>
     <g id="line2d_4">
      <g>
       <use xlink:href="#m6ed7496b0d" x="120.805239" y="252" style="stroke: #000000; stroke-width: 0.8"/>
      </g>
     </g>
     <g id="text_2">
      <!-- 500 -->
      <g transform="translate(111.261489 266.598437)scale(0.1 -0.1)">
       <defs>
        <path id="DejaVuSans-35" d="M 691 4666 
L 3169 4666 
L 3169 4134 
L 1269 4134 
L 1269 2991 
Q 1406 3038 1543 3061 
Q 1681 3084 1819 3084 
Q 2600 3084 3056 2656 
Q 3513 2228 3513 1497 
Q 3513 744 3044 326 
Q 2575 -91 1722 -91 
Q 1428 -91 1123 -41 
Q 819 9 494 109 
L 494 744 
Q 775 591 1075 516 
Q 1375 441 1709 441 
Q 2250 441 2565 725 
Q 2881 1009 2881 1497 
Q 2881 1984 2565 2268 
Q 2250 2553 1709 2553 
Q 1456 2553 1204 2497 
Q 953 2441 691 2322 
L 691 4666 
z
" transform="scale(0.015625)"/>
       </defs>
       <use xlink:href="#DejaVuSans-35"/>
       <use xlink:href="#DejaVuSans-30" x="63.623047"/>
       <use xlink:href="#DejaVuSans-30" x="127.246094"/>
      </g>
     </g>
    </g>
    <g id="xtick_3">
     <g id="line2d_5">
      <path d="M 172.392296 252 
L 172.392296 34.56 
" clip-path="url(#p922193b689)" style="fill: none; stroke-dasharray: 2.96,1.28; stroke-dashoffset: 0; stroke: #b0b0b0; stroke-width: 0.8"/>
     </g>
     <g id="line2d_6">
      <g>
       <use xlink:href="#m6ed7496b0d" x="172.392296" y="252" style="stroke: #000000; stroke-width: 0.8"/>
      </g>
     </g>
     <g id="text_3">
      <!-- 1000 -->
      <g transform="translate(159.667296 266.598437)scale(0.1 -0.1)">
       <defs>
        <path id="DejaVuSans-31" d="M 794 531 
L 1825 531 
L 1825 4091 
L 703 3866 
L 703 4441 
L 1819 4666 
L 2450 4666 
L 2450 531 
L 3481 531 
L 3481 0 
L 794 0 
L 794 531 
z
" transform="scale(0.015625)"/>
       </defs>
       <use xlink:href="#DejaVuSans-31"/>
       <use xlink:href="#DejaVuSans-30" x="63.623047"/>
       <use xlink:href="#DejaVuSans-30" x="127.246094"/>
       <use xlink:href="#DejaVuSans-30" x="190.869141"/>
      </g>
     </g>
    </g>
    <g id="xtick_4">
     <g id="line2d_7">
      <path d="M 223.979353 252 
L 223.979353 34.56 
" clip-path="url(#p922193b689)" style="fill: none; stroke-dasharray: 2.96,1.28; stroke-dashoffset: 0; stroke: #b0b0b0; stroke-width: 0.8"/>
     </g>
     <g id="line2d_8">
      <g>
       <use xlink:href="#m6ed7496b0d" x="223.979353" y="252" style="stroke: #000000; stroke-width: 0.8"/>
      </g>
     </g>
     <g id="text_4">
      <!-- 1500 -->
      <g transform="translate(211.254353 266.598437)scale(0.1 -0.1)">
       <use xlink:href="#DejaVuSans-31"/>
       <use xlink:href="#DejaVuSans-35" x="63.623047"/>
       <use xlink:href="#DejaVuSans-30" x="127.246094"/>
       <use xlink:href="#DejaVuSans-30" x="190.869141"/>
      </g>
     </g>
    </g>
    <g id="xtick_5">
     <g id="line2d_9">
      <path d="M 275.56641 252 
L 275.56641 34.56 
" clip-path="url(#p922193b689)" style="fill: none; stroke-dasharray: 2.96,1.28; stroke-dashoffset: 0; stroke: #b0b0b0; stroke-width: 0.8"/>
     </g>
     <g id="line2d_10">
      <g>
       <use xlink:href="#m6ed7496b0d" x="275.56641" y="252" style="stroke: #000000; stroke-width: 0.8"/>
      </g>
     </g>
     <g id="text_5">
      <!-- 2000 -->
      <g transform="translate(262.84141 266.598437)scale(0.1 -0.1)">
       <defs>
        <path id="DejaVuSans-32" d="M 1228 531 
L 3431 531 
L 3431 0 
L 469 0 
L 469 531 
Q 828 903 1448 1529 
Q 2069 2156 2228 2338 
Q 2531 2678 2651 2914 
Q 2772 3150 2772 3378 
Q 2772 3750 2511 3984 
Q 2250 4219 1831 4219 
Q 1534 4219 1204 4116 
Q 875 4013 500 3803 
L 500 4441 
Q 881 4594 1212 4672 
Q 1544 4750 1819 4750 
Q 2544 4750 2975 4387 
Q 3406 4025 3406 3419 
Q 3406 3131 3298 2873 
Q 3191 2616 2906 2266 
Q 2828 2175 2409 1742 
Q 1991 1309 1228 531 
z
" transform="scale(0.015625)"/>
       </defs>
       <use xlink:href="#DejaVuSans-32"/>
       <use xlink:href="#DejaVuSans-30" x="63.623047"/>
       <use xlink:href="#DejaVuSans-30" x="127.246094"/>
       <use xlink:href="#DejaVuSans-30" x="190.869141"/>
      </g>
     </g>
    </g>
    <g id="xtick_6">
     <g id="line2d_11">
      <path d="M 327.153467 252 
L 327.153467 34.56 
" clip-path="url(#p922193b689)" style="fill: none; stroke-dasharray: 2.96,1.28; stroke-dashoffset: 0; stroke: #b0b0b0; stroke-width: 0.8"/>
     </g>
     <g id="line2d_12">
      <g>
       <use xlink:href="#m6ed7496b0d" x="327.153467" y="252" style="stroke: #000000; stroke-width: 0.8"/>
      </g>
     </g>
     <g id="text_6">
      <!-- 2500 -->
      <g transform="translate(314.428467 266.598437)scale(0.1 -0.1)">
       <use xlink:href="#DejaVuSans-32"/>
       <use xlink:href="#DejaVuSans-35" x="63.623047"/>
       <use xlink:href="#DejaVuSans-30" x="127.246094"/>
       <use xlink:href="#DejaVuSans-30" x="190.869141"/>
      </g>
     </g>
    </g>
    <g id="xtick_7">
     <g id="line2d_13">
      <path d="M 378.740524 252 
L 378.740524 34.56 
" clip-path="url(#p922193b689)" style="fill: none; stroke-dasharray: 2.96,1.28; stroke-dashoffset: 0; stroke: #b0b0b0; stroke-width: 0.8"/>
     </g>
     <g id="line2d_14">
      <g>
       <use xlink:href="#m6ed7496b0d" x="378.740524" y="252" style="stroke: #000000; stroke-width: 0.8"/>
      </g>
     </g>
     <g id="text_7">
      <!-- 3000 -->
      <g transform="translate(366.015524 266.598437)scale(0.1 -0.1)">
       <defs>
        <path id="DejaVuSans-33" d="M 2597 2516 
Q 3050 2419 3304 2112 
Q 3559 1806 3559 1356 
Q 3559 666 3084 287 
Q 2609 -91 1734 -91 
Q 1441 -91 1130 -33 
Q 819 25 488 141 
L 488 750 
Q 750 597 1062 519 
Q 1375 441 1716 441 
Q 2309 441 2620 675 
Q 2931 909 2931 1356 
Q 2931 1769 2642 2001 
Q 2353 2234 1838 2234 
L 1294 2234 
L 1294 2753 
L 1863 2753 
Q 2328 2753 2575 2939 
Q 2822 3125 2822 3475 
Q 2822 3834 2567 4026 
Q 2313 4219 1838 4219 
Q 1578 4219 1281 4162 
Q 984 4106 628 3988 
L 628 4550 
Q 988 4650 1302 4700 
Q 1616 4750 1894 4750 
Q 2613 4750 3031 4423 
Q 3450 4097 3450 3541 
Q 3450 3153 3228 2886 
Q 3006 2619 2597 2516 
z
" transform="scale(0.015625)"/>
       </defs>
       <use xlink:href="#DejaVuSans-33"/>
       <use xlink:href="#DejaVuSans-30" x="63.623047"/>
       <use xlink:href="#DejaVuSans-30" x="127.246094"/>
       <use xlink:href="#DejaVuSans-30" x="190.869141"/>
      </g>
     </g>
    </g>
    <g id="text_8">
     <!-- Steps -->
     <g transform="translate(207.410156 280.276563)scale(0.1 -0.1)">
      <defs>
       <path id="DejaVuSans-53" d="M 3425 4513 
L 3425 3897 
Q 3066 4069 2747 4153 
Q 2428 4238 2131 4238 
Q 1616 4238 1336 4038 
Q 1056 3838 1056 3469 
Q 1056 3159 1242 3001 
Q 1428 2844 1947 2747 
L 2328 2669 
Q 3034 2534 3370 2195 
Q 3706 1856 3706 1288 
Q 3706 609 3251 259 
Q 2797 -91 1919 -91 
Q 1588 -91 1214 -16 
Q 841 59 441 206 
L 441 856 
Q 825 641 1194 531 
Q 1563 422 1919 422 
Q 2459 422 2753 634 
Q 3047 847 3047 1241 
Q 3047 1584 2836 1778 
Q 2625 1972 2144 2069 
L 1759 2144 
Q 1053 2284 737 2584 
Q 422 2884 422 3419 
Q 422 4038 858 4394 
Q 1294 4750 2059 4750 
Q 2388 4750 2728 4690 
Q 3069 4631 3425 4513 
z
" transform="scale(0.015625)"/>
       <path id="DejaVuSans-74" d="M 1172 4494 
L 1172 3500 
L 2356 3500 
L 2356 3053 
L 1172 3053 
L 1172 1153 
Q 1172 725 1289 603 
Q 1406 481 1766 481 
L 2356 481 
L 2356 0 
L 1766 0 
Q 1100 0 847 248 
Q 594 497 594 1153 
L 594 3053 
L 172 3053 
L 172 3500 
L 594 3500 
L 594 4494 
L 1172 4494 
z
" transform="scale(0.015625)"/>
       <path id="DejaVuSans-65" d="M 3597 1894 
L 3597 1613 
L 953 1613 
Q 991 1019 1311 708 
Q 1631 397 2203 397 
Q 2534 397 2845 478 
Q 3156 559 3463 722 
L 3463 178 
Q 3153 47 2828 -22 
Q 2503 -91 2169 -91 
Q 1331 -91 842 396 
Q 353 884 353 1716 
Q 353 2575 817 3079 
Q 1281 3584 2069 3584 
Q 2775 3584 3186 3129 
Q 3597 2675 3597 1894 
z
M 3022 2063 
Q 3016 2534 2758 2815 
Q 2500 3097 2075 3097 
Q 1594 3097 1305 2825 
Q 1016 2553 972 2059 
L 3022 2063 
z
" transform="scale(0.015625)"/>
       <path id="DejaVuSans-70" d="M 1159 525 
L 1159 -1331 
L 581 -1331 
L 581 3500 
L 1159 3500 
L 1159 2969 
Q 1341 3281 1617 3432 
Q 1894 3584 2278 3584 
Q 2916 3584 3314 3078 
Q 3713 2572 3713 1747 
Q 3713 922 3314 415 
Q 2916 -91 2278 -91 
Q 1894 -91 1617 61 
Q 1341 213 1159 525 
z
M 3116 1747 
Q 3116 2381 2855 2742 
Q 2594 3103 2138 3103 
Q 1681 3103 1420 2742 
Q 1159 2381 1159 1747 
Q 1159 1113 1420 752 
Q 1681 391 2138 391 
Q 2594 391 2855 752 
Q 3116 1113 3116 1747 
z
" transform="scale(0.015625)"/>
       <path id="DejaVuSans-73" d="M 2834 3397 
L 2834 2853 
Q 2591 2978 2328 3040 
Q 2066 3103 1784 3103 
Q 1356 3103 1142 2972 
Q 928 2841 928 2578 
Q 928 2378 1081 2264 
Q 1234 2150 1697 2047 
L 1894 2003 
Q 2506 1872 2764 1633 
Q 3022 1394 3022 966 
Q 3022 478 2636 193 
Q 2250 -91 1575 -91 
Q 1294 -91 989 -36 
Q 684 19 347 128 
L 347 722 
Q 666 556 975 473 
Q 1284 391 1588 391 
Q 1994 391 2212 530 
Q 2431 669 2431 922 
Q 2431 1156 2273 1281 
Q 2116 1406 1581 1522 
L 1381 1569 
Q 847 1681 609 1914 
Q 372 2147 372 2553 
Q 372 3047 722 3315 
Q 1072 3584 1716 3584 
Q 2034 3584 2315 3537 
Q 2597 3491 2834 3397 
z
" transform="scale(0.015625)"/>
      </defs>
      <use xlink:href="#DejaVuSans-53"/>
      <use xlink:href="#DejaVuSans-74" x="63.476562"/>
      <use xlink:href="#DejaVuSans-65" x="102.685547"/>
      <use xlink:href="#DejaVuSans-70" x="164.208984"/>
      <use xlink:href="#DejaVuSans-73" x="227.685547"/>
     </g>
    </g>
   </g>
   <g id="matplotlib.axis_2">
    <g id="ytick_1">
     <g id="line2d_15">
      <path d="M 54 243.636923 
L 388.8 243.636923 
" clip-path="url(#p922193b689)" style="fill: none; stroke-dasharray: 2.96,1.28; stroke-dashoffset: 0; stroke: #b0b0b0; stroke-width: 0.8"/>
     </g>
     <g id="line2d_16">
      <defs>
       <path id="m21df022678" d="M 0 0 
L -3.5 0 
" style="stroke: #000000; stroke-width: 0.8"/>
      </defs>
      <g>
       <use xlink:href="#m21df022678" x="54" y="243.636923" style="stroke: #000000; stroke-width: 0.8"/>
      </g>
     </g>
     <g id="text_9">
      <!-- −12 -->
      <g transform="translate(25.895312 247.436142)scale(0.1 -0.1)">
       <defs>
        <path id="DejaVuSans-2212" d="M 678 2272 
L 4684 2272 
L 4684 1741 
L 678 1741 
L 678 2272 
z
" transform="scale(0.015625)"/>
       </defs>
       <use xlink:href="#DejaVuSans-2212"/>
       <use xlink:href="#DejaVuSans-31" x="83.789062"/>
       <use xlink:href="#DejaVuSans-32" x="147.412109"/>
      </g>
     </g>
    </g>
    <g id="ytick_2">
     <g id="line2d_17">
      <path d="M 54 210.184615 
L 388.8 210.184615 
" clip-path="url(#p922193b689)" style="fill: none; stroke-dasharray: 2.96,1.28; stroke-dashoffset: 0; stroke: #b0b0b0; stroke-width: 0.8"/>
     </g>
     <g id="line2d_18">
      <g>
       <use xlink:href="#m21df022678" x="54" y="210.184615" style="stroke: #000000; stroke-width: 0.8"/>
      </g>
     </g>
     <g id="text_10">
      <!-- −10 -->
      <g transform="translate(25.895312 213.983834)scale(0.1 -0.1)">
       <use xlink:href="#DejaVuSans-2212"/>
       <use xlink:href="#DejaVuSans-31" x="83.789062"/>
       <use xlink:href="#DejaVuSans-30" x="147.412109"/>
      </g>
     </g>
    </g>
    <g id="ytick_3">
     <g id="line2d_19">
      <path d="M 54 176.732308 
L 388.8 176.732308 
" clip-path="url(#p922193b689)" style="fill: none; stroke-dasharray: 2.96,1.28; stroke-dashoffset: 0; stroke: #b0b0b0; stroke-width: 0.8"/>
     </g>
     <g id="line2d_20">
      <g>
       <use xlink:href="#m21df022678" x="54" y="176.732308" style="stroke: #000000; stroke-width: 0.8"/>
      </g>
     </g>
     <g id="text_11">
      <!-- −8 -->
      <g transform="translate(32.257812 180.531526)scale(0.1 -0.1)">
       <defs>
        <path id="DejaVuSans-38" d="M 2034 2216 
Q 1584 2216 1326 1975 
Q 1069 1734 1069 1313 
Q 1069 891 1326 650 
Q 1584 409 2034 409 
Q 2484 409 2743 651 
Q 3003 894 3003 1313 
Q 3003 1734 2745 1975 
Q 2488 2216 2034 2216 
z
M 1403 2484 
Q 997 2584 770 2862 
Q 544 3141 544 3541 
Q 544 4100 942 4425 
Q 1341 4750 2034 4750 
Q 2731 4750 3128 4425 
Q 3525 4100 3525 3541 
Q 3525 3141 3298 2862 
Q 3072 2584 2669 2484 
Q 3125 2378 3379 2068 
Q 3634 1759 3634 1313 
Q 3634 634 3220 271 
Q 2806 -91 2034 -91 
Q 1263 -91 848 271 
Q 434 634 434 1313 
Q 434 1759 690 2068 
Q 947 2378 1403 2484 
z
M 1172 3481 
Q 1172 3119 1398 2916 
Q 1625 2713 2034 2713 
Q 2441 2713 2670 2916 
Q 2900 3119 2900 3481 
Q 2900 3844 2670 4047 
Q 2441 4250 2034 4250 
Q 1625 4250 1398 4047 
Q 1172 3844 1172 3481 
z
" transform="scale(0.015625)"/>
       </defs>
       <use xlink:href="#DejaVuSans-2212"/>
       <use xlink:href="#DejaVuSans-38" x="83.789062"/>
      </g>
     </g>
    </g>
    <g id="ytick_4">
     <g id="line2d_21">
      <path d="M 54 143.28 
L 388.8 143.28 
" clip-path="url(#p922193b689)" style="fill: none; stroke-dasharray: 2.96,1.28; stroke-dashoffset: 0; stroke: #b0b0b0; stroke-width: 0.8"/>
     </g>
     <g id="line2d_22">
      <g>
       <use xlink:href="#m21df022678" x="54" y="143.28" style="stroke: #000000; stroke-width: 0.8"/>
      </g>
     </g>
     <g id="text_12">
      <!-- −6 -->
      <g transform="translate(32.257812 147.079219)scale(0.1 -0.1)">
       <defs>
        <path id="DejaVuSans-36" d="M 2113 2584 
Q 1688 2584 1439 2293 
Q 1191 2003 1191 1497 
Q 1191 994 1439 701 
Q 1688 409 2113 409 
Q 2538 409 2786 701 
Q 3034 994 3034 1497 
Q 3034 2003 2786 2293 
Q 2538 2584 2113 2584 
z
M 3366 4563 
L 3366 3988 
Q 3128 4100 2886 4159 
Q 2644 4219 2406 4219 
Q 1781 4219 1451 3797 
Q 1122 3375 1075 2522 
Q 1259 2794 1537 2939 
Q 1816 3084 2150 3084 
Q 2853 3084 3261 2657 
Q 3669 2231 3669 1497 
Q 3669 778 3244 343 
Q 2819 -91 2113 -91 
Q 1303 -91 875 529 
Q 447 1150 447 2328 
Q 447 3434 972 4092 
Q 1497 4750 2381 4750 
Q 2619 4750 2861 4703 
Q 3103 4656 3366 4563 
z
" transform="scale(0.015625)"/>
       </defs>
       <use xlink:href="#DejaVuSans-2212"/>
       <use xlink:href="#DejaVuSans-36" x="83.789062"/>
      </g>
     </g>
    </g>
    <g id="ytick_5">
     <g id="line2d_23">
      <path d="M 54 109.827692 
L 388.8 109.827692 
" clip-path="url(#p922193b689)" style="fill: none; stroke-dasharray: 2.96,1.28; stroke-dashoffset: 0; stroke: #b0b0b0; stroke-width: 0.8"/>
     </g>
     <g id="line2d_24">
      <g>
       <use xlink:href="#m21df022678" x="54" y="109.827692" style="stroke: #000000; stroke-width: 0.8"/>
      </g>
     </g>
     <g id="text_13">
      <!-- −4 -->
      <g transform="translate(32.257812 113.626911)scale(0.1 -0.1)">
       <defs>
        <path id="DejaVuSans-34" d="M 2419 4116 
L 825 1625 
L 2419 1625 
L 2419 4116 
z
M 2253 4666 
L 3047 4666 
L 3047 1625 
L 3713 1625 
L 3713 1100 
L 3047 1100 
L 3047 0 
L 2419 0 
L 2419 1100 
L 313 1100 
L 313 1709 
L 2253 4666 
z
" transform="scale(0.015625)"/>
       </defs>
       <use xlink:href="#DejaVuSans-2212"/>
       <use xlink:href="#DejaVuSans-34" x="83.789062"/>
      </g>
     </g>
    </g>
    <g id="ytick_6">
     <g id="line2d_25">
      <path d="M 54 76.375385 
L 388.8 76.375385 
" clip-path="url(#p922193b689)" style="fill: none; stroke-dasharray: 2.96,1.28; stroke-dashoffset: 0; stroke: #b0b0b0; stroke-width: 0.8"/>
     </g>
     <g id="line2d_26">
      <g>
       <use xlink:href="#m21df022678" x="54" y="76.375385" style="stroke: #000000; stroke-width: 0.8"/>
      </g>
     </g>
     <g id="text_14">
      <!-- −2 -->
      <g transform="translate(32.257812 80.174603)scale(0.1 -0.1)">
       <use xlink:href="#DejaVuSans-2212"/>
       <use xlink:href="#DejaVuSans-32" x="83.789062"/>
      </g>
     </g>
    </g>
    <g id="ytick_7">
     <g id="line2d_27">
      <path d="M 54 42.923077 
L 388.8 42.923077 
" clip-path="url(#p922193b689)" style="fill: none; stroke-dasharray: 2.96,1.28; stroke-dashoffset: 0; stroke: #b0b0b0; stroke-width: 0.8"/>
     </g>
     <g id="line2d_28">
      <g>
       <use xlink:href="#m21df022678" x="54" y="42.923077" style="stroke: #000000; stroke-width: 0.8"/>
      </g>
     </g>
     <g id="text_15">
      <!-- 0 -->
      <g transform="translate(40.6375 46.722296)scale(0.1 -0.1)">
       <use xlink:href="#DejaVuSans-30"/>
      </g>
     </g>
    </g>
    <g id="text_16">
     <!-- Policy value error -->
     <g transform="translate(19.815625 186.597969)rotate(-90)scale(0.1 -0.1)">
      <defs>
       <path id="DejaVuSans-50" d="M 1259 4147 
L 1259 2394 
L 2053 2394 
Q 2494 2394 2734 2622 
Q 2975 2850 2975 3272 
Q 2975 3691 2734 3919 
Q 2494 4147 2053 4147 
L 1259 4147 
z
M 628 4666 
L 2053 4666 
Q 2838 4666 3239 4311 
Q 3641 3956 3641 3272 
Q 3641 2581 3239 2228 
Q 2838 1875 2053 1875 
L 1259 1875 
L 1259 0 
L 628 0 
L 628 4666 
z
" transform="scale(0.015625)"/>
       <path id="DejaVuSans-6f" d="M 1959 3097 
Q 1497 3097 1228 2736 
Q 959 2375 959 1747 
Q 959 1119 1226 758 
Q 1494 397 1959 397 
Q 2419 397 2687 759 
Q 2956 1122 2956 1747 
Q 2956 2369 2687 2733 
Q 2419 3097 1959 3097 
z
M 1959 3584 
Q 2709 3584 3137 3096 
Q 3566 2609 3566 1747 
Q 3566 888 3137 398 
Q 2709 -91 1959 -91 
Q 1206 -91 779 398 
Q 353 888 353 1747 
Q 353 2609 779 3096 
Q 1206 3584 1959 3584 
z
" transform="scale(0.015625)"/>
       <path id="DejaVuSans-6c" d="M 603 4863 
L 1178 4863 
L 1178 0 
L 603 0 
L 603 4863 
z
" transform="scale(0.015625)"/>
       <path id="DejaVuSans-69" d="M 603 3500 
L 1178 3500 
L 1178 0 
L 603 0 
L 603 3500 
z
M 603 4863 
L 1178 4863 
L 1178 4134 
L 603 4134 
L 603 4863 
z
" transform="scale(0.015625)"/>
       <path id="DejaVuSans-63" d="M 3122 3366 
L 3122 2828 
Q 2878 2963 2633 3030 
Q 2388 3097 2138 3097 
Q 1578 3097 1268 2742 
Q 959 2388 959 1747 
Q 959 1106 1268 751 
Q 1578 397 2138 397 
Q 2388 397 2633 464 
Q 2878 531 3122 666 
L 3122 134 
Q 2881 22 2623 -34 
Q 2366 -91 2075 -91 
Q 1284 -91 818 406 
Q 353 903 353 1747 
Q 353 2603 823 3093 
Q 1294 3584 2113 3584 
Q 2378 3584 2631 3529 
Q 2884 3475 3122 3366 
z
" transform="scale(0.015625)"/>
       <path id="DejaVuSans-79" d="M 2059 -325 
Q 1816 -950 1584 -1140 
Q 1353 -1331 966 -1331 
L 506 -1331 
L 506 -850 
L 844 -850 
Q 1081 -850 1212 -737 
Q 1344 -625 1503 -206 
L 1606 56 
L 191 3500 
L 800 3500 
L 1894 763 
L 2988 3500 
L 3597 3500 
L 2059 -325 
z
" transform="scale(0.015625)"/>
       <path id="DejaVuSans-20" transform="scale(0.015625)"/>
       <path id="DejaVuSans-76" d="M 191 3500 
L 800 3500 
L 1894 563 
L 2988 3500 
L 3597 3500 
L 2284 0 
L 1503 0 
L 191 3500 
z
" transform="scale(0.015625)"/>
       <path id="DejaVuSans-61" d="M 2194 1759 
Q 1497 1759 1228 1600 
Q 959 1441 959 1056 
Q 959 750 1161 570 
Q 1363 391 1709 391 
Q 2188 391 2477 730 
Q 2766 1069 2766 1631 
L 2766 1759 
L 2194 1759 
z
M 3341 1997 
L 3341 0 
L 2766 0 
L 2766 531 
Q 2569 213 2275 61 
Q 1981 -91 1556 -91 
Q 1019 -91 701 211 
Q 384 513 384 1019 
Q 384 1609 779 1909 
Q 1175 2209 1959 2209 
L 2766 2209 
L 2766 2266 
Q 2766 2663 2505 2880 
Q 2244 3097 1772 3097 
Q 1472 3097 1187 3025 
Q 903 2953 641 2809 
L 641 3341 
Q 956 3463 1253 3523 
Q 1550 3584 1831 3584 
Q 2591 3584 2966 3190 
Q 3341 2797 3341 1997 
z
" transform="scale(0.015625)"/>
       <path id="DejaVuSans-75" d="M 544 1381 
L 544 3500 
L 1119 3500 
L 1119 1403 
Q 1119 906 1312 657 
Q 1506 409 1894 409 
Q 2359 409 2629 706 
Q 2900 1003 2900 1516 
L 2900 3500 
L 3475 3500 
L 3475 0 
L 2900 0 
L 2900 538 
Q 2691 219 2414 64 
Q 2138 -91 1772 -91 
Q 1169 -91 856 284 
Q 544 659 544 1381 
z
M 1991 3584 
L 1991 3584 
z
" transform="scale(0.015625)"/>
       <path id="DejaVuSans-72" d="M 2631 2963 
Q 2534 3019 2420 3045 
Q 2306 3072 2169 3072 
Q 1681 3072 1420 2755 
Q 1159 2438 1159 1844 
L 1159 0 
L 581 0 
L 581 3500 
L 1159 3500 
L 1159 2956 
Q 1341 3275 1631 3429 
Q 1922 3584 2338 3584 
Q 2397 3584 2469 3576 
Q 2541 3569 2628 3553 
L 2631 2963 
z
" transform="scale(0.015625)"/>
      </defs>
      <use xlink:href="#DejaVuSans-50"/>
      <use xlink:href="#DejaVuSans-6f" x="56.677734"/>
      <use xlink:href="#DejaVuSans-6c" x="117.859375"/>
      <use xlink:href="#DejaVuSans-69" x="145.642578"/>
      <use xlink:href="#DejaVuSans-63" x="173.425781"/>
      <use xlink:href="#DejaVuSans-79" x="228.40625"/>
      <use xlink:href="#DejaVuSans-20" x="287.585938"/>
      <use xlink:href="#DejaVuSans-76" x="319.373047"/>
      <use xlink:href="#DejaVuSans-61" x="378.552734"/>
      <use xlink:href="#DejaVuSans-6c" x="439.832031"/>
      <use xlink:href="#DejaVuSans-75" x="467.615234"/>
      <use xlink:href="#DejaVuSans-65" x="530.994141"/>
      <use xlink:href="#DejaVuSans-20" x="592.517578"/>
      <use xlink:href="#DejaVuSans-65" x="624.304688"/>
      <use xlink:href="#DejaVuSans-72" x="685.828125"/>
      <use xlink:href="#DejaVuSans-72" x="725.191406"/>
      <use xlink:href="#DejaVuSans-6f" x="764.054688"/>
      <use xlink:href="#DejaVuSans-72" x="825.236328"/>
     </g>
    </g>
   </g>
   <g id="line2d_29">
    <path d="M 69.218182 252.963567 
L 74.376888 261.335797 
L 79.535593 252.908818 
L 84.694299 252.941178 
L 89.853005 249.502667 
L 95.01171 255.341413 
L 100.170416 252.964319 
L 105.329122 252.908818 
L 110.487827 252.917777 
L 115.646533 259.559991 
L 120.805239 252.997777 
L 125.963945 255.218025 
L 131.12265 260.476323 
L 136.281356 253.634132 
L 141.440062 253.78564 
L 146.598767 256.638582 
L 151.757473 252.917053 
L 156.916179 253.687231 
L 162.074884 254.591973 
L 167.23359 254.607181 
L 172.392296 254.809753 
L 177.551002 250.54448 
L 182.709707 249.07454 
L 187.868413 255.14022 
L 193.027119 271.143016 
L 198.185824 252.908818 
L 203.34453 257.52117 
L 208.503236 254.419214 
L 213.661941 252.749575 
L 218.820647 252.908818 
L 223.979353 252.908818 
L 229.138059 252.908818 
L 234.296764 249.157329 
L 239.45547 254.191826 
L 244.614176 252.908818 
L 249.772881 252.908818 
L 254.931587 260.415154 
L 260.090293 257.494355 
L 265.248998 253.329991 
L 270.407704 255.099927 
L 275.56641 259.311001 
L 280.725116 252.908818 
L 285.883821 256.859616 
L 291.042527 253.180932 
L 296.201233 258.621704 
L 301.359938 252.908818 
L 306.518644 257.330507 
L 311.67735 252.908818 
L 316.836055 253.33989 
L 321.994761 253.175115 
L 327.153467 252.908818 
L 332.312173 252.908818 
L 337.470878 267.199211 
L 342.629584 253.770421 
L 347.78829 255.996172 
L 352.946995 252.974723 
L 358.105701 254.297544 
L 363.264407 253.148556 
L 368.423112 253.01446 
L 373.581818 253.294854 
" clip-path="url(#p922193b689)" style="fill: none; stroke: #9d02d7; stroke-width: 1.5; stroke-linecap: square"/>
    <defs>
     <path id="m36ae8464ec" d="M 0 -2 
L -2 2 
L 2 2 
z
" style="stroke: #9d02d7; stroke-linejoin: miter"/>
    </defs>
    <g clip-path="url(#p922193b689)">
     <use xlink:href="#m36ae8464ec" x="69.218182" y="252.963567" style="fill: #9d02d7; stroke: #9d02d7; stroke-linejoin: miter"/>
     <use xlink:href="#m36ae8464ec" x="74.376888" y="261.335797" style="fill: #9d02d7; stroke: #9d02d7; stroke-linejoin: miter"/>
     <use xlink:href="#m36ae8464ec" x="79.535593" y="252.908818" style="fill: #9d02d7; stroke: #9d02d7; stroke-linejoin: miter"/>
     <use xlink:href="#m36ae8464ec" x="84.694299" y="252.941178" style="fill: #9d02d7; stroke: #9d02d7; stroke-linejoin: miter"/>
     <use xlink:href="#m36ae8464ec" x="89.853005" y="249.502667" style="fill: #9d02d7; stroke: #9d02d7; stroke-linejoin: miter"/>
     <use xlink:href="#m36ae8464ec" x="95.01171" y="255.341413" style="fill: #9d02d7; stroke: #9d02d7; stroke-linejoin: miter"/>
     <use xlink:href="#m36ae8464ec" x="100.170416" y="252.964319" style="fill: #9d02d7; stroke: #9d02d7; stroke-linejoin: miter"/>
     <use xlink:href="#m36ae8464ec" x="105.329122" y="252.908818" style="fill: #9d02d7; stroke: #9d02d7; stroke-linejoin: miter"/>
     <use xlink:href="#m36ae8464ec" x="110.487827" y="252.917777" style="fill: #9d02d7; stroke: #9d02d7; stroke-linejoin: miter"/>
     <use xlink:href="#m36ae8464ec" x="115.646533" y="259.559991" style="fill: #9d02d7; stroke: #9d02d7; stroke-linejoin: miter"/>
     <use xlink:href="#m36ae8464ec" x="120.805239" y="252.997777" style="fill: #9d02d7; stroke: #9d02d7; stroke-linejoin: miter"/>
     <use xlink:href="#m36ae8464ec" x="125.963945" y="255.218025" style="fill: #9d02d7; stroke: #9d02d7; stroke-linejoin: miter"/>
     <use xlink:href="#m36ae8464ec" x="131.12265" y="260.476323" style="fill: #9d02d7; stroke: #9d02d7; stroke-linejoin: miter"/>
     <use xlink:href="#m36ae8464ec" x="136.281356" y="253.634132" style="fill: #9d02d7; stroke: #9d02d7; stroke-linejoin: miter"/>
     <use xlink:href="#m36ae8464ec" x="141.440062" y="253.78564" style="fill: #9d02d7; stroke: #9d02d7; stroke-linejoin: miter"/>
     <use xlink:href="#m36ae8464ec" x="146.598767" y="256.638582" style="fill: #9d02d7; stroke: #9d02d7; stroke-linejoin: miter"/>
     <use xlink:href="#m36ae8464ec" x="151.757473" y="252.917053" style="fill: #9d02d7; stroke: #9d02d7; stroke-linejoin: miter"/>
     <use xlink:href="#m36ae8464ec" x="156.916179" y="253.687231" style="fill: #9d02d7; stroke: #9d02d7; stroke-linejoin: miter"/>
     <use xlink:href="#m36ae8464ec" x="162.074884" y="254.591973" style="fill: #9d02d7; stroke: #9d02d7; stroke-linejoin: miter"/>
     <use xlink:href="#m36ae8464ec" x="167.23359" y="254.607181" style="fill: #9d02d7; stroke: #9d02d7; stroke-linejoin: miter"/>
     <use xlink:href="#m36ae8464ec" x="172.392296" y="254.809753" style="fill: #9d02d7; stroke: #9d02d7; stroke-linejoin: miter"/>
     <use xlink:href="#m36ae8464ec" x="177.551002" y="250.54448" style="fill: #9d02d7; stroke: #9d02d7; stroke-linejoin: miter"/>
     <use xlink:href="#m36ae8464ec" x="182.709707" y="249.07454" style="fill: #9d02d7; stroke: #9d02d7; stroke-linejoin: miter"/>
     <use xlink:href="#m36ae8464ec" x="187.868413" y="255.14022" style="fill: #9d02d7; stroke: #9d02d7; stroke-linejoin: miter"/>
     <use xlink:href="#m36ae8464ec" x="193.027119" y="271.143016" style="fill: #9d02d7; stroke: #9d02d7; stroke-linejoin: miter"/>
     <use xlink:href="#m36ae8464ec" x="198.185824" y="252.908818" style="fill: #9d02d7; stroke: #9d02d7; stroke-linejoin: miter"/>
     <use xlink:href="#m36ae8464ec" x="203.34453" y="257.52117" style="fill: #9d02d7; stroke: #9d02d7; stroke-linejoin: miter"/>
     <use xlink:href="#m36ae8464ec" x="208.503236" y="254.419214" style="fill: #9d02d7; stroke: #9d02d7; stroke-linejoin: miter"/>
     <use xlink:href="#m36ae8464ec" x="213.661941" y="252.749575" style="fill: #9d02d7; stroke: #9d02d7; stroke-linejoin: miter"/>
     <use xlink:href="#m36ae8464ec" x="218.820647" y="252.908818" style="fill: #9d02d7; stroke: #9d02d7; stroke-linejoin: miter"/>
     <use xlink:href="#m36ae8464ec" x="223.979353" y="252.908818" style="fill: #9d02d7; stroke: #9d02d7; stroke-linejoin: miter"/>
     <use xlink:href="#m36ae8464ec" x="229.138059" y="252.908818" style="fill: #9d02d7; stroke: #9d02d7; stroke-linejoin: miter"/>
     <use xlink:href="#m36ae8464ec" x="234.296764" y="249.157329" style="fill: #9d02d7; stroke: #9d02d7; stroke-linejoin: miter"/>
     <use xlink:href="#m36ae8464ec" x="239.45547" y="254.191826" style="fill: #9d02d7; stroke: #9d02d7; stroke-linejoin: miter"/>
     <use xlink:href="#m36ae8464ec" x="244.614176" y="252.908818" style="fill: #9d02d7; stroke: #9d02d7; stroke-linejoin: miter"/>
     <use xlink:href="#m36ae8464ec" x="249.772881" y="252.908818" style="fill: #9d02d7; stroke: #9d02d7; stroke-linejoin: miter"/>
     <use xlink:href="#m36ae8464ec" x="254.931587" y="260.415154" style="fill: #9d02d7; stroke: #9d02d7; stroke-linejoin: miter"/>
     <use xlink:href="#m36ae8464ec" x="260.090293" y="257.494355" style="fill: #9d02d7; stroke: #9d02d7; stroke-linejoin: miter"/>
     <use xlink:href="#m36ae8464ec" x="265.248998" y="253.329991" style="fill: #9d02d7; stroke: #9d02d7; stroke-linejoin: miter"/>
     <use xlink:href="#m36ae8464ec" x="270.407704" y="255.099927" style="fill: #9d02d7; stroke: #9d02d7; stroke-linejoin: miter"/>
     <use xlink:href="#m36ae8464ec" x="275.56641" y="259.311001" style="fill: #9d02d7; stroke: #9d02d7; stroke-linejoin: miter"/>
     <use xlink:href="#m36ae8464ec" x="280.725116" y="252.908818" style="fill: #9d02d7; stroke: #9d02d7; stroke-linejoin: miter"/>
     <use xlink:href="#m36ae8464ec" x="285.883821" y="256.859616" style="fill: #9d02d7; stroke: #9d02d7; stroke-linejoin: miter"/>
     <use xlink:href="#m36ae8464ec" x="291.042527" y="253.180932" style="fill: #9d02d7; stroke: #9d02d7; stroke-linejoin: miter"/>
     <use xlink:href="#m36ae8464ec" x="296.201233" y="258.621704" style="fill: #9d02d7; stroke: #9d02d7; stroke-linejoin: miter"/>
     <use xlink:href="#m36ae8464ec" x="301.359938" y="252.908818" style="fill: #9d02d7; stroke: #9d02d7; stroke-linejoin: miter"/>
     <use xlink:href="#m36ae8464ec" x="306.518644" y="257.330507" style="fill: #9d02d7; stroke: #9d02d7; stroke-linejoin: miter"/>
     <use xlink:href="#m36ae8464ec" x="311.67735" y="252.908818" style="fill: #9d02d7; stroke: #9d02d7; stroke-linejoin: miter"/>
     <use xlink:href="#m36ae8464ec" x="316.836055" y="253.33989" style="fill: #9d02d7; stroke: #9d02d7; stroke-linejoin: miter"/>
     <use xlink:href="#m36ae8464ec" x="321.994761" y="253.175115" style="fill: #9d02d7; stroke: #9d02d7; stroke-linejoin: miter"/>
     <use xlink:href="#m36ae8464ec" x="327.153467" y="252.908818" style="fill: #9d02d7; stroke: #9d02d7; stroke-linejoin: miter"/>
     <use xlink:href="#m36ae8464ec" x="332.312173" y="252.908818" style="fill: #9d02d7; stroke: #9d02d7; stroke-linejoin: miter"/>
     <use xlink:href="#m36ae8464ec" x="337.470878" y="267.199211" style="fill: #9d02d7; stroke: #9d02d7; stroke-linejoin: miter"/>
     <use xlink:href="#m36ae8464ec" x="342.629584" y="253.770421" style="fill: #9d02d7; stroke: #9d02d7; stroke-linejoin: miter"/>
     <use xlink:href="#m36ae8464ec" x="347.78829" y="255.996172" style="fill: #9d02d7; stroke: #9d02d7; stroke-linejoin: miter"/>
     <use xlink:href="#m36ae8464ec" x="352.946995" y="252.974723" style="fill: #9d02d7; stroke: #9d02d7; stroke-linejoin: miter"/>
     <use xlink:href="#m36ae8464ec" x="358.105701" y="254.297544" style="fill: #9d02d7; stroke: #9d02d7; stroke-linejoin: miter"/>
     <use xlink:href="#m36ae8464ec" x="363.264407" y="253.148556" style="fill: #9d02d7; stroke: #9d02d7; stroke-linejoin: miter"/>
     <use xlink:href="#m36ae8464ec" x="368.423112" y="253.01446" style="fill: #9d02d7; stroke: #9d02d7; stroke-linejoin: miter"/>
     <use xlink:href="#m36ae8464ec" x="373.581818" y="253.294854" style="fill: #9d02d7; stroke: #9d02d7; stroke-linejoin: miter"/>
    </g>
   </g>
   <g id="line2d_30">
    <path d="M 69.218182 252.908818 
L 74.376888 255.709725 
L 79.535593 259.079179 
L 84.694299 253.804847 
L 89.853005 253.918715 
L 95.01171 252.972251 
L 100.170416 252.956641 
L 105.329122 253.260159 
L 110.487827 255.085618 
L 115.646533 270.341758 
L 120.805239 261.379662 
L 125.963945 249.554868 
L 131.12265 252.916714 
L 136.281356 253.23205 
L 141.440062 253.067329 
L 146.598767 252.908818 
L 151.757473 252.908818 
L 156.916179 259.855435 
L 162.074884 252.908818 
L 167.23359 252.908818 
L 172.392296 252.919572 
L 177.551002 252.944373 
L 182.709707 260.2545 
L 187.868413 254.847217 
L 193.027119 252.908818 
L 198.185824 254.227808 
L 203.34453 261.786698 
L 208.503236 252.908818 
L 213.661941 255.507328 
L 218.820647 252.924977 
L 223.979353 253.88712 
L 229.138059 257.602866 
L 234.296764 252.920895 
L 239.45547 253.115668 
L 244.614176 252.908818 
L 249.772881 253.219778 
L 254.931587 254.873485 
L 260.090293 257.631292 
L 265.248998 259.938382 
L 270.407704 260.780326 
L 275.56641 263.797276 
L 280.725116 270.282595 
L 285.883821 252.908818 
L 291.042527 252.707128 
L 296.201233 253.655589 
L 301.359938 252.908818 
L 306.518644 270.933091 
L 311.67735 253.028848 
L 316.836055 254.708443 
L 321.994761 254.996435 
L 327.153467 254.908166 
L 332.312173 253.430711 
L 337.470878 256.319623 
L 342.629584 252.908818 
L 347.78829 254.106534 
L 352.946995 253.940846 
L 358.105701 252.922078 
L 363.264407 252.908818 
L 368.423112 253.896726 
L 373.581818 255.083046 
" clip-path="url(#p922193b689)" style="fill: none; stroke: #0000ff; stroke-width: 1.5; stroke-linecap: square"/>
    <defs>
     <path id="me3758ce8ad" d="M 0 2 
C 0.530406 2 1.03916 1.789267 1.414214 1.414214 
C 1.789267 1.03916 2 0.530406 2 0 
C 2 -0.530406 1.789267 -1.03916 1.414214 -1.414214 
C 1.03916 -1.789267 0.530406 -2 0 -2 
C -0.530406 -2 -1.03916 -1.789267 -1.414214 -1.414214 
C -1.789267 -1.03916 -2 -0.530406 -2 0 
C -2 0.530406 -1.789267 1.03916 -1.414214 1.414214 
C -1.03916 1.789267 -0.530406 2 0 2 
z
" style="stroke: #0000ff"/>
    </defs>
    <g clip-path="url(#p922193b689)">
     <use xlink:href="#me3758ce8ad" x="69.218182" y="252.908818" style="fill: #0000ff; stroke: #0000ff"/>
     <use xlink:href="#me3758ce8ad" x="74.376888" y="255.709725" style="fill: #0000ff; stroke: #0000ff"/>
     <use xlink:href="#me3758ce8ad" x="79.535593" y="259.079179" style="fill: #0000ff; stroke: #0000ff"/>
     <use xlink:href="#me3758ce8ad" x="84.694299" y="253.804847" style="fill: #0000ff; stroke: #0000ff"/>
     <use xlink:href="#me3758ce8ad" x="89.853005" y="253.918715" style="fill: #0000ff; stroke: #0000ff"/>
     <use xlink:href="#me3758ce8ad" x="95.01171" y="252.972251" style="fill: #0000ff; stroke: #0000ff"/>
     <use xlink:href="#me3758ce8ad" x="100.170416" y="252.956641" style="fill: #0000ff; stroke: #0000ff"/>
     <use xlink:href="#me3758ce8ad" x="105.329122" y="253.260159" style="fill: #0000ff; stroke: #0000ff"/>
     <use xlink:href="#me3758ce8ad" x="110.487827" y="255.085618" style="fill: #0000ff; stroke: #0000ff"/>
     <use xlink:href="#me3758ce8ad" x="115.646533" y="270.341758" style="fill: #0000ff; stroke: #0000ff"/>
     <use xlink:href="#me3758ce8ad" x="120.805239" y="261.379662" style="fill: #0000ff; stroke: #0000ff"/>
     <use xlink:href="#me3758ce8ad" x="125.963945" y="249.554868" style="fill: #0000ff; stroke: #0000ff"/>
     <use xlink:href="#me3758ce8ad" x="131.12265" y="252.916714" style="fill: #0000ff; stroke: #0000ff"/>
     <use xlink:href="#me3758ce8ad" x="136.281356" y="253.23205" style="fill: #0000ff; stroke: #0000ff"/>
     <use xlink:href="#me3758ce8ad" x="141.440062" y="253.067329" style="fill: #0000ff; stroke: #0000ff"/>
     <use xlink:href="#me3758ce8ad" x="146.598767" y="252.908818" style="fill: #0000ff; stroke: #0000ff"/>
     <use xlink:href="#me3758ce8ad" x="151.757473" y="252.908818" style="fill: #0000ff; stroke: #0000ff"/>
     <use xlink:href="#me3758ce8ad" x="156.916179" y="259.855435" style="fill: #0000ff; stroke: #0000ff"/>
     <use xlink:href="#me3758ce8ad" x="162.074884" y="252.908818" style="fill: #0000ff; stroke: #0000ff"/>
     <use xlink:href="#me3758ce8ad" x="167.23359" y="252.908818" style="fill: #0000ff; stroke: #0000ff"/>
     <use xlink:href="#me3758ce8ad" x="172.392296" y="252.919572" style="fill: #0000ff; stroke: #0000ff"/>
     <use xlink:href="#me3758ce8ad" x="177.551002" y="252.944373" style="fill: #0000ff; stroke: #0000ff"/>
     <use xlink:href="#me3758ce8ad" x="182.709707" y="260.2545" style="fill: #0000ff; stroke: #0000ff"/>
     <use xlink:href="#me3758ce8ad" x="187.868413" y="254.847217" style="fill: #0000ff; stroke: #0000ff"/>
     <use xlink:href="#me3758ce8ad" x="193.027119" y="252.908818" style="fill: #0000ff; stroke: #0000ff"/>
     <use xlink:href="#me3758ce8ad" x="198.185824" y="254.227808" style="fill: #0000ff; stroke: #0000ff"/>
     <use xlink:href="#me3758ce8ad" x="203.34453" y="261.786698" style="fill: #0000ff; stroke: #0000ff"/>
     <use xlink:href="#me3758ce8ad" x="208.503236" y="252.908818" style="fill: #0000ff; stroke: #0000ff"/>
     <use xlink:href="#me3758ce8ad" x="213.661941" y="255.507328" style="fill: #0000ff; stroke: #0000ff"/>
     <use xlink:href="#me3758ce8ad" x="218.820647" y="252.924977" style="fill: #0000ff; stroke: #0000ff"/>
     <use xlink:href="#me3758ce8ad" x="223.979353" y="253.88712" style="fill: #0000ff; stroke: #0000ff"/>
     <use xlink:href="#me3758ce8ad" x="229.138059" y="257.602866" style="fill: #0000ff; stroke: #0000ff"/>
     <use xlink:href="#me3758ce8ad" x="234.296764" y="252.920895" style="fill: #0000ff; stroke: #0000ff"/>
     <use xlink:href="#me3758ce8ad" x="239.45547" y="253.115668" style="fill: #0000ff; stroke: #0000ff"/>
     <use xlink:href="#me3758ce8ad" x="244.614176" y="252.908818" style="fill: #0000ff; stroke: #0000ff"/>
     <use xlink:href="#me3758ce8ad" x="249.772881" y="253.219778" style="fill: #0000ff; stroke: #0000ff"/>
     <use xlink:href="#me3758ce8ad" x="254.931587" y="254.873485" style="fill: #0000ff; stroke: #0000ff"/>
     <use xlink:href="#me3758ce8ad" x="260.090293" y="257.631292" style="fill: #0000ff; stroke: #0000ff"/>
     <use xlink:href="#me3758ce8ad" x="265.248998" y="259.938382" style="fill: #0000ff; stroke: #0000ff"/>
     <use xlink:href="#me3758ce8ad" x="270.407704" y="260.780326" style="fill: #0000ff; stroke: #0000ff"/>
     <use xlink:href="#me3758ce8ad" x="275.56641" y="263.797276" style="fill: #0000ff; stroke: #0000ff"/>
     <use xlink:href="#me3758ce8ad" x="280.725116" y="270.282595" style="fill: #0000ff; stroke: #0000ff"/>
     <use xlink:href="#me3758ce8ad" x="285.883821" y="252.908818" style="fill: #0000ff; stroke: #0000ff"/>
     <use xlink:href="#me3758ce8ad" x="291.042527" y="252.707128" style="fill: #0000ff; stroke: #0000ff"/>
     <use xlink:href="#me3758ce8ad" x="296.201233" y="253.655589" style="fill: #0000ff; stroke: #0000ff"/>
     <use xlink:href="#me3758ce8ad" x="301.359938" y="252.908818" style="fill: #0000ff; stroke: #0000ff"/>
     <use xlink:href="#me3758ce8ad" x="306.518644" y="270.933091" style="fill: #0000ff; stroke: #0000ff"/>
     <use xlink:href="#me3758ce8ad" x="311.67735" y="253.028848" style="fill: #0000ff; stroke: #0000ff"/>
     <use xlink:href="#me3758ce8ad" x="316.836055" y="254.708443" style="fill: #0000ff; stroke: #0000ff"/>
     <use xlink:href="#me3758ce8ad" x="321.994761" y="254.996435" style="fill: #0000ff; stroke: #0000ff"/>
     <use xlink:href="#me3758ce8ad" x="327.153467" y="254.908166" style="fill: #0000ff; stroke: #0000ff"/>
     <use xlink:href="#me3758ce8ad" x="332.312173" y="253.430711" style="fill: #0000ff; stroke: #0000ff"/>
     <use xlink:href="#me3758ce8ad" x="337.470878" y="256.319623" style="fill: #0000ff; stroke: #0000ff"/>
     <use xlink:href="#me3758ce8ad" x="342.629584" y="252.908818" style="fill: #0000ff; stroke: #0000ff"/>
     <use xlink:href="#me3758ce8ad" x="347.78829" y="254.106534" style="fill: #0000ff; stroke: #0000ff"/>
     <use xlink:href="#me3758ce8ad" x="352.946995" y="253.940846" style="fill: #0000ff; stroke: #0000ff"/>
     <use xlink:href="#me3758ce8ad" x="358.105701" y="252.922078" style="fill: #0000ff; stroke: #0000ff"/>
     <use xlink:href="#me3758ce8ad" x="363.264407" y="252.908818" style="fill: #0000ff; stroke: #0000ff"/>
     <use xlink:href="#me3758ce8ad" x="368.423112" y="253.896726" style="fill: #0000ff; stroke: #0000ff"/>
     <use xlink:href="#me3758ce8ad" x="373.581818" y="255.083046" style="fill: #0000ff; stroke: #0000ff"/>
    </g>
   </g>
   <g id="line2d_31">
    <path d="M 69.218182 250.584288 
L 74.376888 253.134154 
L 79.535593 252.908818 
L 84.694299 253.543748 
L 89.853005 254.069146 
L 95.01171 251.794787 
L 100.170416 262.357059 
L 105.329122 252.908818 
L 110.487827 252.941383 
L 115.646533 252.928748 
L 120.805239 253.018143 
L 125.963945 256.385905 
L 131.12265 253.945982 
L 136.281356 248.667415 
L 141.440062 252.95839 
L 146.598767 257.113805 
L 151.757473 255.845603 
L 156.916179 252.929312 
L 162.074884 267.917724 
L 167.23359 252.908818 
L 172.392296 252.908818 
L 177.551002 255.378961 
L 182.709707 254.118196 
L 187.868413 252.908818 
L 193.027119 252.908818 
L 198.185824 252.908818 
L 203.34453 253.029487 
L 208.503236 264.791532 
L 213.661941 252.908818 
L 218.820647 252.908818 
L 223.979353 255.522795 
L 229.138059 252.978118 
L 234.296764 253.696555 
L 239.45547 259.751801 
L 244.614176 258.424404 
L 249.772881 268.454958 
L 254.931587 259.086083 
L 260.090293 252.908818 
L 265.248998 255.166067 
L 270.407704 264.671777 
L 275.56641 252.908818 
L 280.725116 253.836468 
L 285.883821 258.0091 
L 291.042527 253.024226 
L 296.201233 254.535108 
L 301.359938 253.202733 
L 306.518644 254.181174 
L 311.67735 253.679848 
L 316.836055 267.292866 
L 321.994761 252.317979 
L 327.153467 253.155701 
L 332.312173 253.964582 
L 337.470878 253.024201 
L 342.629584 252.908818 
L 347.78829 253.291323 
L 352.946995 253.509729 
L 358.105701 256.743642 
L 363.264407 255.296349 
L 368.423112 255.297933 
L 373.581818 265.25682 
" clip-path="url(#p922193b689)" style="fill: none; stroke: #ff7763; stroke-width: 1.5; stroke-linecap: square"/>
    <defs>
     <path id="mb34ceb7c15" d="M -2 2 
L 2 -2 
M -2 -2 
L 2 2 
" style="stroke: #ff7763"/>
    </defs>
    <g clip-path="url(#p922193b689)">
     <use xlink:href="#mb34ceb7c15" x="69.218182" y="250.584288" style="fill: #ff7763; stroke: #ff7763"/>
     <use xlink:href="#mb34ceb7c15" x="74.376888" y="253.134154" style="fill: #ff7763; stroke: #ff7763"/>
     <use xlink:href="#mb34ceb7c15" x="79.535593" y="252.908818" style="fill: #ff7763; stroke: #ff7763"/>
     <use xlink:href="#mb34ceb7c15" x="84.694299" y="253.543748" style="fill: #ff7763; stroke: #ff7763"/>
     <use xlink:href="#mb34ceb7c15" x="89.853005" y="254.069146" style="fill: #ff7763; stroke: #ff7763"/>
     <use xlink:href="#mb34ceb7c15" x="95.01171" y="251.794787" style="fill: #ff7763; stroke: #ff7763"/>
     <use xlink:href="#mb34ceb7c15" x="100.170416" y="262.357059" style="fill: #ff7763; stroke: #ff7763"/>
     <use xlink:href="#mb34ceb7c15" x="105.329122" y="252.908818" style="fill: #ff7763; stroke: #ff7763"/>
     <use xlink:href="#mb34ceb7c15" x="110.487827" y="252.941383" style="fill: #ff7763; stroke: #ff7763"/>
     <use xlink:href="#mb34ceb7c15" x="115.646533" y="252.928748" style="fill: #ff7763; stroke: #ff7763"/>
     <use xlink:href="#mb34ceb7c15" x="120.805239" y="253.018143" style="fill: #ff7763; stroke: #ff7763"/>
     <use xlink:href="#mb34ceb7c15" x="125.963945" y="256.385905" style="fill: #ff7763; stroke: #ff7763"/>
     <use xlink:href="#mb34ceb7c15" x="131.12265" y="253.945982" style="fill: #ff7763; stroke: #ff7763"/>
     <use xlink:href="#mb34ceb7c15" x="136.281356" y="248.667415" style="fill: #ff7763; stroke: #ff7763"/>
     <use xlink:href="#mb34ceb7c15" x="141.440062" y="252.95839" style="fill: #ff7763; stroke: #ff7763"/>
     <use xlink:href="#mb34ceb7c15" x="146.598767" y="257.113805" style="fill: #ff7763; stroke: #ff7763"/>
     <use xlink:href="#mb34ceb7c15" x="151.757473" y="255.845603" style="fill: #ff7763; stroke: #ff7763"/>
     <use xlink:href="#mb34ceb7c15" x="156.916179" y="252.929312" style="fill: #ff7763; stroke: #ff7763"/>
     <use xlink:href="#mb34ceb7c15" x="162.074884" y="267.917724" style="fill: #ff7763; stroke: #ff7763"/>
     <use xlink:href="#mb34ceb7c15" x="167.23359" y="252.908818" style="fill: #ff7763; stroke: #ff7763"/>
     <use xlink:href="#mb34ceb7c15" x="172.392296" y="252.908818" style="fill: #ff7763; stroke: #ff7763"/>
     <use xlink:href="#mb34ceb7c15" x="177.551002" y="255.378961" style="fill: #ff7763; stroke: #ff7763"/>
     <use xlink:href="#mb34ceb7c15" x="182.709707" y="254.118196" style="fill: #ff7763; stroke: #ff7763"/>
     <use xlink:href="#mb34ceb7c15" x="187.868413" y="252.908818" style="fill: #ff7763; stroke: #ff7763"/>
     <use xlink:href="#mb34ceb7c15" x="193.027119" y="252.908818" style="fill: #ff7763; stroke: #ff7763"/>
     <use xlink:href="#mb34ceb7c15" x="198.185824" y="252.908818" style="fill: #ff7763; stroke: #ff7763"/>
     <use xlink:href="#mb34ceb7c15" x="203.34453" y="253.029487" style="fill: #ff7763; stroke: #ff7763"/>
     <use xlink:href="#mb34ceb7c15" x="208.503236" y="264.791532" style="fill: #ff7763; stroke: #ff7763"/>
     <use xlink:href="#mb34ceb7c15" x="213.661941" y="252.908818" style="fill: #ff7763; stroke: #ff7763"/>
     <use xlink:href="#mb34ceb7c15" x="218.820647" y="252.908818" style="fill: #ff7763; stroke: #ff7763"/>
     <use xlink:href="#mb34ceb7c15" x="223.979353" y="255.522795" style="fill: #ff7763; stroke: #ff7763"/>
     <use xlink:href="#mb34ceb7c15" x="229.138059" y="252.978118" style="fill: #ff7763; stroke: #ff7763"/>
     <use xlink:href="#mb34ceb7c15" x="234.296764" y="253.696555" style="fill: #ff7763; stroke: #ff7763"/>
     <use xlink:href="#mb34ceb7c15" x="239.45547" y="259.751801" style="fill: #ff7763; stroke: #ff7763"/>
     <use xlink:href="#mb34ceb7c15" x="244.614176" y="258.424404" style="fill: #ff7763; stroke: #ff7763"/>
     <use xlink:href="#mb34ceb7c15" x="249.772881" y="268.454958" style="fill: #ff7763; stroke: #ff7763"/>
     <use xlink:href="#mb34ceb7c15" x="254.931587" y="259.086083" style="fill: #ff7763; stroke: #ff7763"/>
     <use xlink:href="#mb34ceb7c15" x="260.090293" y="252.908818" style="fill: #ff7763; stroke: #ff7763"/>
     <use xlink:href="#mb34ceb7c15" x="265.248998" y="255.166067" style="fill: #ff7763; stroke: #ff7763"/>
     <use xlink:href="#mb34ceb7c15" x="270.407704" y="264.671777" style="fill: #ff7763; stroke: #ff7763"/>
     <use xlink:href="#mb34ceb7c15" x="275.56641" y="252.908818" style="fill: #ff7763; stroke: #ff7763"/>
     <use xlink:href="#mb34ceb7c15" x="280.725116" y="253.836468" style="fill: #ff7763; stroke: #ff7763"/>
     <use xlink:href="#mb34ceb7c15" x="285.883821" y="258.0091" style="fill: #ff7763; stroke: #ff7763"/>
     <use xlink:href="#mb34ceb7c15" x="291.042527" y="253.024226" style="fill: #ff7763; stroke: #ff7763"/>
     <use xlink:href="#mb34ceb7c15" x="296.201233" y="254.535108" style="fill: #ff7763; stroke: #ff7763"/>
     <use xlink:href="#mb34ceb7c15" x="301.359938" y="253.202733" style="fill: #ff7763; stroke: #ff7763"/>
     <use xlink:href="#mb34ceb7c15" x="306.518644" y="254.181174" style="fill: #ff7763; stroke: #ff7763"/>
     <use xlink:href="#mb34ceb7c15" x="311.67735" y="253.679848" style="fill: #ff7763; stroke: #ff7763"/>
     <use xlink:href="#mb34ceb7c15" x="316.836055" y="267.292866" style="fill: #ff7763; stroke: #ff7763"/>
     <use xlink:href="#mb34ceb7c15" x="321.994761" y="252.317979" style="fill: #ff7763; stroke: #ff7763"/>
     <use xlink:href="#mb34ceb7c15" x="327.153467" y="253.155701" style="fill: #ff7763; stroke: #ff7763"/>
     <use xlink:href="#mb34ceb7c15" x="332.312173" y="253.964582" style="fill: #ff7763; stroke: #ff7763"/>
     <use xlink:href="#mb34ceb7c15" x="337.470878" y="253.024201" style="fill: #ff7763; stroke: #ff7763"/>
     <use xlink:href="#mb34ceb7c15" x="342.629584" y="252.908818" style="fill: #ff7763; stroke: #ff7763"/>
     <use xlink:href="#mb34ceb7c15" x="347.78829" y="253.291323" style="fill: #ff7763; stroke: #ff7763"/>
     <use xlink:href="#mb34ceb7c15" x="352.946995" y="253.509729" style="fill: #ff7763; stroke: #ff7763"/>
     <use xlink:href="#mb34ceb7c15" x="358.105701" y="256.743642" style="fill: #ff7763; stroke: #ff7763"/>
     <use xlink:href="#mb34ceb7c15" x="363.264407" y="255.296349" style="fill: #ff7763; stroke: #ff7763"/>
     <use xlink:href="#mb34ceb7c15" x="368.423112" y="255.297933" style="fill: #ff7763; stroke: #ff7763"/>
     <use xlink:href="#mb34ceb7c15" x="373.581818" y="265.25682" style="fill: #ff7763; stroke: #ff7763"/>
    </g>
   </g>
   <g id="line2d_32">
    <path d="M 69.218182 259.085138 
L 74.376888 255.194842 
L 79.535593 253.193203 
L 84.694299 252.912888 
L 89.853005 252.917951 
L 95.01171 252.908818 
L 100.170416 253.074594 
L 105.329122 252.995882 
L 110.487827 254.781004 
L 115.646533 252.908818 
L 120.805239 252.908818 
L 125.963945 254.860352 
L 131.12265 256.937915 
L 136.281356 253.167981 
L 141.440062 253.049578 
L 146.598767 252.968899 
L 151.757473 260.288996 
L 156.916179 254.941212 
L 162.074884 257.668995 
L 167.23359 255.3782 
L 172.392296 252.975185 
L 177.551002 252.94075 
L 182.709707 252.908818 
L 187.868413 252.908818 
L 193.027119 252.908818 
L 198.185824 252.908818 
L 203.34453 252.919047 
L 208.503236 260.613228 
L 213.661941 253.032472 
L 218.820647 257.412357 
L 223.979353 253.18346 
L 229.138059 252.973234 
L 234.296764 252.908818 
L 239.45547 255.239525 
L 244.614176 253.116287 
L 249.772881 253.433031 
L 254.931587 254.286781 
L 260.090293 252.908818 
L 265.248998 253.12065 
L 270.407704 252.944499 
L 275.56641 260.128315 
L 280.725116 253.345112 
L 285.883821 252.908818 
L 291.042527 252.954291 
L 296.201233 252.440595 
L 301.359938 256.298591 
L 306.518644 253.09775 
L 311.67735 252.565535 
L 316.836055 253.255643 
L 321.994761 252.943504 
L 327.153467 252.908818 
L 332.312173 254.065922 
L 337.470878 256.264985 
L 342.629584 252.935052 
L 347.78829 253.106751 
L 352.946995 253.703759 
L 358.105701 252.908818 
L 363.264407 252.908818 
L 368.423112 257.38048 
L 373.581818 252.908818 
" clip-path="url(#p922193b689)" style="fill: none; stroke: #ffac1e; stroke-width: 1.5; stroke-linecap: square"/>
    <defs>
     <path id="m7f01352b7e" d="M 0 -2 
L -0.449028 -0.618034 
L -1.902113 -0.618034 
L -0.726543 0.236068 
L -1.175571 1.618034 
L -0 0.763932 
L 1.175571 1.618034 
L 0.726543 0.236068 
L 1.902113 -0.618034 
L 0.449028 -0.618034 
z
" style="stroke: #ffac1e; stroke-linejoin: bevel"/>
    </defs>
    <g clip-path="url(#p922193b689)">
     <use xlink:href="#m7f01352b7e" x="69.218182" y="259.085138" style="fill: #ffac1e; stroke: #ffac1e; stroke-linejoin: bevel"/>
     <use xlink:href="#m7f01352b7e" x="74.376888" y="255.194842" style="fill: #ffac1e; stroke: #ffac1e; stroke-linejoin: bevel"/>
     <use xlink:href="#m7f01352b7e" x="79.535593" y="253.193203" style="fill: #ffac1e; stroke: #ffac1e; stroke-linejoin: bevel"/>
     <use xlink:href="#m7f01352b7e" x="84.694299" y="252.912888" style="fill: #ffac1e; stroke: #ffac1e; stroke-linejoin: bevel"/>
     <use xlink:href="#m7f01352b7e" x="89.853005" y="252.917951" style="fill: #ffac1e; stroke: #ffac1e; stroke-linejoin: bevel"/>
     <use xlink:href="#m7f01352b7e" x="95.01171" y="252.908818" style="fill: #ffac1e; stroke: #ffac1e; stroke-linejoin: bevel"/>
     <use xlink:href="#m7f01352b7e" x="100.170416" y="253.074594" style="fill: #ffac1e; stroke: #ffac1e; stroke-linejoin: bevel"/>
     <use xlink:href="#m7f01352b7e" x="105.329122" y="252.995882" style="fill: #ffac1e; stroke: #ffac1e; stroke-linejoin: bevel"/>
     <use xlink:href="#m7f01352b7e" x="110.487827" y="254.781004" style="fill: #ffac1e; stroke: #ffac1e; stroke-linejoin: bevel"/>
     <use xlink:href="#m7f01352b7e" x="115.646533" y="252.908818" style="fill: #ffac1e; stroke: #ffac1e; stroke-linejoin: bevel"/>
     <use xlink:href="#m7f01352b7e" x="120.805239" y="252.908818" style="fill: #ffac1e; stroke: #ffac1e; stroke-linejoin: bevel"/>
     <use xlink:href="#m7f01352b7e" x="125.963945" y="254.860352" style="fill: #ffac1e; stroke: #ffac1e; stroke-linejoin: bevel"/>
     <use xlink:href="#m7f01352b7e" x="131.12265" y="256.937915" style="fill: #ffac1e; stroke: #ffac1e; stroke-linejoin: bevel"/>
     <use xlink:href="#m7f01352b7e" x="136.281356" y="253.167981" style="fill: #ffac1e; stroke: #ffac1e; stroke-linejoin: bevel"/>
     <use xlink:href="#m7f01352b7e" x="141.440062" y="253.049578" style="fill: #ffac1e; stroke: #ffac1e; stroke-linejoin: bevel"/>
     <use xlink:href="#m7f01352b7e" x="146.598767" y="252.968899" style="fill: #ffac1e; stroke: #ffac1e; stroke-linejoin: bevel"/>
     <use xlink:href="#m7f01352b7e" x="151.757473" y="260.288996" style="fill: #ffac1e; stroke: #ffac1e; stroke-linejoin: bevel"/>
     <use xlink:href="#m7f01352b7e" x="156.916179" y="254.941212" style="fill: #ffac1e; stroke: #ffac1e; stroke-linejoin: bevel"/>
     <use xlink:href="#m7f01352b7e" x="162.074884" y="257.668995" style="fill: #ffac1e; stroke: #ffac1e; stroke-linejoin: bevel"/>
     <use xlink:href="#m7f01352b7e" x="167.23359" y="255.3782" style="fill: #ffac1e; stroke: #ffac1e; stroke-linejoin: bevel"/>
     <use xlink:href="#m7f01352b7e" x="172.392296" y="252.975185" style="fill: #ffac1e; stroke: #ffac1e; stroke-linejoin: bevel"/>
     <use xlink:href="#m7f01352b7e" x="177.551002" y="252.94075" style="fill: #ffac1e; stroke: #ffac1e; stroke-linejoin: bevel"/>
     <use xlink:href="#m7f01352b7e" x="182.709707" y="252.908818" style="fill: #ffac1e; stroke: #ffac1e; stroke-linejoin: bevel"/>
     <use xlink:href="#m7f01352b7e" x="187.868413" y="252.908818" style="fill: #ffac1e; stroke: #ffac1e; stroke-linejoin: bevel"/>
     <use xlink:href="#m7f01352b7e" x="193.027119" y="252.908818" style="fill: #ffac1e; stroke: #ffac1e; stroke-linejoin: bevel"/>
     <use xlink:href="#m7f01352b7e" x="198.185824" y="252.908818" style="fill: #ffac1e; stroke: #ffac1e; stroke-linejoin: bevel"/>
     <use xlink:href="#m7f01352b7e" x="203.34453" y="252.919047" style="fill: #ffac1e; stroke: #ffac1e; stroke-linejoin: bevel"/>
     <use xlink:href="#m7f01352b7e" x="208.503236" y="260.613228" style="fill: #ffac1e; stroke: #ffac1e; stroke-linejoin: bevel"/>
     <use xlink:href="#m7f01352b7e" x="213.661941" y="253.032472" style="fill: #ffac1e; stroke: #ffac1e; stroke-linejoin: bevel"/>
     <use xlink:href="#m7f01352b7e" x="218.820647" y="257.412357" style="fill: #ffac1e; stroke: #ffac1e; stroke-linejoin: bevel"/>
     <use xlink:href="#m7f01352b7e" x="223.979353" y="253.18346" style="fill: #ffac1e; stroke: #ffac1e; stroke-linejoin: bevel"/>
     <use xlink:href="#m7f01352b7e" x="229.138059" y="252.973234" style="fill: #ffac1e; stroke: #ffac1e; stroke-linejoin: bevel"/>
     <use xlink:href="#m7f01352b7e" x="234.296764" y="252.908818" style="fill: #ffac1e; stroke: #ffac1e; stroke-linejoin: bevel"/>
     <use xlink:href="#m7f01352b7e" x="239.45547" y="255.239525" style="fill: #ffac1e; stroke: #ffac1e; stroke-linejoin: bevel"/>
     <use xlink:href="#m7f01352b7e" x="244.614176" y="253.116287" style="fill: #ffac1e; stroke: #ffac1e; stroke-linejoin: bevel"/>
     <use xlink:href="#m7f01352b7e" x="249.772881" y="253.433031" style="fill: #ffac1e; stroke: #ffac1e; stroke-linejoin: bevel"/>
     <use xlink:href="#m7f01352b7e" x="254.931587" y="254.286781" style="fill: #ffac1e; stroke: #ffac1e; stroke-linejoin: bevel"/>
     <use xlink:href="#m7f01352b7e" x="260.090293" y="252.908818" style="fill: #ffac1e; stroke: #ffac1e; stroke-linejoin: bevel"/>
     <use xlink:href="#m7f01352b7e" x="265.248998" y="253.12065" style="fill: #ffac1e; stroke: #ffac1e; stroke-linejoin: bevel"/>
     <use xlink:href="#m7f01352b7e" x="270.407704" y="252.944499" style="fill: #ffac1e; stroke: #ffac1e; stroke-linejoin: bevel"/>
     <use xlink:href="#m7f01352b7e" x="275.56641" y="260.128315" style="fill: #ffac1e; stroke: #ffac1e; stroke-linejoin: bevel"/>
     <use xlink:href="#m7f01352b7e" x="280.725116" y="253.345112" style="fill: #ffac1e; stroke: #ffac1e; stroke-linejoin: bevel"/>
     <use xlink:href="#m7f01352b7e" x="285.883821" y="252.908818" style="fill: #ffac1e; stroke: #ffac1e; stroke-linejoin: bevel"/>
     <use xlink:href="#m7f01352b7e" x="291.042527" y="252.954291" style="fill: #ffac1e; stroke: #ffac1e; stroke-linejoin: bevel"/>
     <use xlink:href="#m7f01352b7e" x="296.201233" y="252.440595" style="fill: #ffac1e; stroke: #ffac1e; stroke-linejoin: bevel"/>
     <use xlink:href="#m7f01352b7e" x="301.359938" y="256.298591" style="fill: #ffac1e; stroke: #ffac1e; stroke-linejoin: bevel"/>
     <use xlink:href="#m7f01352b7e" x="306.518644" y="253.09775" style="fill: #ffac1e; stroke: #ffac1e; stroke-linejoin: bevel"/>
     <use xlink:href="#m7f01352b7e" x="311.67735" y="252.565535" style="fill: #ffac1e; stroke: #ffac1e; stroke-linejoin: bevel"/>
     <use xlink:href="#m7f01352b7e" x="316.836055" y="253.255643" style="fill: #ffac1e; stroke: #ffac1e; stroke-linejoin: bevel"/>
     <use xlink:href="#m7f01352b7e" x="321.994761" y="252.943504" style="fill: #ffac1e; stroke: #ffac1e; stroke-linejoin: bevel"/>
     <use xlink:href="#m7f01352b7e" x="327.153467" y="252.908818" style="fill: #ffac1e; stroke: #ffac1e; stroke-linejoin: bevel"/>
     <use xlink:href="#m7f01352b7e" x="332.312173" y="254.065922" style="fill: #ffac1e; stroke: #ffac1e; stroke-linejoin: bevel"/>
     <use xlink:href="#m7f01352b7e" x="337.470878" y="256.264985" style="fill: #ffac1e; stroke: #ffac1e; stroke-linejoin: bevel"/>
     <use xlink:href="#m7f01352b7e" x="342.629584" y="252.935052" style="fill: #ffac1e; stroke: #ffac1e; stroke-linejoin: bevel"/>
     <use xlink:href="#m7f01352b7e" x="347.78829" y="253.106751" style="fill: #ffac1e; stroke: #ffac1e; stroke-linejoin: bevel"/>
     <use xlink:href="#m7f01352b7e" x="352.946995" y="253.703759" style="fill: #ffac1e; stroke: #ffac1e; stroke-linejoin: bevel"/>
     <use xlink:href="#m7f01352b7e" x="358.105701" y="252.908818" style="fill: #ffac1e; stroke: #ffac1e; stroke-linejoin: bevel"/>
     <use xlink:href="#m7f01352b7e" x="363.264407" y="252.908818" style="fill: #ffac1e; stroke: #ffac1e; stroke-linejoin: bevel"/>
     <use xlink:href="#m7f01352b7e" x="368.423112" y="257.38048" style="fill: #ffac1e; stroke: #ffac1e; stroke-linejoin: bevel"/>
     <use xlink:href="#m7f01352b7e" x="373.581818" y="252.908818" style="fill: #ffac1e; stroke: #ffac1e; stroke-linejoin: bevel"/>
    </g>
   </g>
   <g id="patch_3">
    <path d="M 54 252 
L 54 34.56 
" style="fill: none; stroke: #000000; stroke-width: 0.8; stroke-linejoin: miter; stroke-linecap: square"/>
   </g>
   <g id="patch_4">
    <path d="M 388.8 252 
L 388.8 34.56 
" style="fill: none; stroke: #000000; stroke-width: 0.8; stroke-linejoin: miter; stroke-linecap: square"/>
   </g>
   <g id="patch_5">
    <path d="M 54 252 
L 388.8 252 
" style="fill: none; stroke: #000000; stroke-width: 0.8; stroke-linejoin: miter; stroke-linecap: square"/>
   </g>
   <g id="patch_6">
    <path d="M 54 34.56 
L 388.8 34.56 
" style="fill: none; stroke: #000000; stroke-width: 0.8; stroke-linejoin: miter; stroke-linecap: square"/>
   </g>
   <g id="text_17">
    <!-- ζ-R-max agent policy with m = 0.5 -->
    <g transform="translate(117.225 28.56)scale(0.12 -0.12)">
     <defs>
      <path id="DejaVuSans-3b6" d="M 2231 397 
Q 2644 394 2891 159 
Q 3153 -88 3153 -463 
Q 3153 -822 2922 -1072 
Q 2672 -1344 2163 -1344 
Q 2163 -1109 2163 -872 
Q 2378 -888 2509 -750 
Q 2609 -641 2609 -525 
Q 2609 -359 2509 -222 
Q 2413 -91 2231 -91 
Q 338 -91 334 1669 
Q 334 3206 2119 4284 
L 456 4284 
L 456 4863 
L 3175 4863 
L 3175 4284 
Q 913 3147 913 1669 
Q 913 397 2231 397 
z
" transform="scale(0.015625)"/>
      <path id="DejaVuSans-2d" d="M 313 2009 
L 1997 2009 
L 1997 1497 
L 313 1497 
L 313 2009 
z
" transform="scale(0.015625)"/>
      <path id="DejaVuSans-52" d="M 2841 2188 
Q 3044 2119 3236 1894 
Q 3428 1669 3622 1275 
L 4263 0 
L 3584 0 
L 2988 1197 
Q 2756 1666 2539 1819 
Q 2322 1972 1947 1972 
L 1259 1972 
L 1259 0 
L 628 0 
L 628 4666 
L 2053 4666 
Q 2853 4666 3247 4331 
Q 3641 3997 3641 3322 
Q 3641 2881 3436 2590 
Q 3231 2300 2841 2188 
z
M 1259 4147 
L 1259 2491 
L 2053 2491 
Q 2509 2491 2742 2702 
Q 2975 2913 2975 3322 
Q 2975 3731 2742 3939 
Q 2509 4147 2053 4147 
L 1259 4147 
z
" transform="scale(0.015625)"/>
      <path id="DejaVuSans-6d" d="M 3328 2828 
Q 3544 3216 3844 3400 
Q 4144 3584 4550 3584 
Q 5097 3584 5394 3201 
Q 5691 2819 5691 2113 
L 5691 0 
L 5113 0 
L 5113 2094 
Q 5113 2597 4934 2840 
Q 4756 3084 4391 3084 
Q 3944 3084 3684 2787 
Q 3425 2491 3425 1978 
L 3425 0 
L 2847 0 
L 2847 2094 
Q 2847 2600 2669 2842 
Q 2491 3084 2119 3084 
Q 1678 3084 1418 2786 
Q 1159 2488 1159 1978 
L 1159 0 
L 581 0 
L 581 3500 
L 1159 3500 
L 1159 2956 
Q 1356 3278 1631 3431 
Q 1906 3584 2284 3584 
Q 2666 3584 2933 3390 
Q 3200 3197 3328 2828 
z
" transform="scale(0.015625)"/>
      <path id="DejaVuSans-78" d="M 3513 3500 
L 2247 1797 
L 3578 0 
L 2900 0 
L 1881 1375 
L 863 0 
L 184 0 
L 1544 1831 
L 300 3500 
L 978 3500 
L 1906 2253 
L 2834 3500 
L 3513 3500 
z
" transform="scale(0.015625)"/>
      <path id="DejaVuSans-67" d="M 2906 1791 
Q 2906 2416 2648 2759 
Q 2391 3103 1925 3103 
Q 1463 3103 1205 2759 
Q 947 2416 947 1791 
Q 947 1169 1205 825 
Q 1463 481 1925 481 
Q 2391 481 2648 825 
Q 2906 1169 2906 1791 
z
M 3481 434 
Q 3481 -459 3084 -895 
Q 2688 -1331 1869 -1331 
Q 1566 -1331 1297 -1286 
Q 1028 -1241 775 -1147 
L 775 -588 
Q 1028 -725 1275 -790 
Q 1522 -856 1778 -856 
Q 2344 -856 2625 -561 
Q 2906 -266 2906 331 
L 2906 616 
Q 2728 306 2450 153 
Q 2172 0 1784 0 
Q 1141 0 747 490 
Q 353 981 353 1791 
Q 353 2603 747 3093 
Q 1141 3584 1784 3584 
Q 2172 3584 2450 3431 
Q 2728 3278 2906 2969 
L 2906 3500 
L 3481 3500 
L 3481 434 
z
" transform="scale(0.015625)"/>
      <path id="DejaVuSans-6e" d="M 3513 2113 
L 3513 0 
L 2938 0 
L 2938 2094 
Q 2938 2591 2744 2837 
Q 2550 3084 2163 3084 
Q 1697 3084 1428 2787 
Q 1159 2491 1159 1978 
L 1159 0 
L 581 0 
L 581 3500 
L 1159 3500 
L 1159 2956 
Q 1366 3272 1645 3428 
Q 1925 3584 2291 3584 
Q 2894 3584 3203 3211 
Q 3513 2838 3513 2113 
z
" transform="scale(0.015625)"/>
      <path id="DejaVuSans-77" d="M 269 3500 
L 844 3500 
L 1563 769 
L 2278 3500 
L 2956 3500 
L 3675 769 
L 4391 3500 
L 4966 3500 
L 4050 0 
L 3372 0 
L 2619 2869 
L 1863 0 
L 1184 0 
L 269 3500 
z
" transform="scale(0.015625)"/>
      <path id="DejaVuSans-68" d="M 3513 2113 
L 3513 0 
L 2938 0 
L 2938 2094 
Q 2938 2591 2744 2837 
Q 2550 3084 2163 3084 
Q 1697 3084 1428 2787 
Q 1159 2491 1159 1978 
L 1159 0 
L 581 0 
L 581 4863 
L 1159 4863 
L 1159 2956 
Q 1366 3272 1645 3428 
Q 1925 3584 2291 3584 
Q 2894 3584 3203 3211 
Q 3513 2838 3513 2113 
z
" transform="scale(0.015625)"/>
      <path id="DejaVuSans-3d" d="M 678 2906 
L 4684 2906 
L 4684 2381 
L 678 2381 
L 678 2906 
z
M 678 1631 
L 4684 1631 
L 4684 1100 
L 678 1100 
L 678 1631 
z
" transform="scale(0.015625)"/>
      <path id="DejaVuSans-2e" d="M 684 794 
L 1344 794 
L 1344 0 
L 684 0 
L 684 794 
z
" transform="scale(0.015625)"/>
     </defs>
     <use xlink:href="#DejaVuSans-3b6"/>
     <use xlink:href="#DejaVuSans-2d" x="54.394531"/>
     <use xlink:href="#DejaVuSans-52" x="90.478516"/>
     <use xlink:href="#DejaVuSans-2d" x="155.960938"/>
     <use xlink:href="#DejaVuSans-6d" x="192.044922"/>
     <use xlink:href="#DejaVuSans-61" x="289.457031"/>
     <use xlink:href="#DejaVuSans-78" x="350.736328"/>
     <use xlink:href="#DejaVuSans-20" x="409.916016"/>
     <use xlink:href="#DejaVuSans-61" x="441.703125"/>
     <use xlink:href="#DejaVuSans-67" x="502.982422"/>
     <use xlink:href="#DejaVuSans-65" x="566.458984"/>
     <use xlink:href="#DejaVuSans-6e" x="627.982422"/>
     <use xlink:href="#DejaVuSans-74" x="691.361328"/>
     <use xlink:href="#DejaVuSans-20" x="730.570312"/>
     <use xlink:href="#DejaVuSans-70" x="762.357422"/>
     <use xlink:href="#DejaVuSans-6f" x="825.833984"/>
     <use xlink:href="#DejaVuSans-6c" x="887.015625"/>
     <use xlink:href="#DejaVuSans-69" x="914.798828"/>
     <use xlink:href="#DejaVuSans-63" x="942.582031"/>
     <use xlink:href="#DejaVuSans-79" x="997.5625"/>
     <use xlink:href="#DejaVuSans-20" x="1056.742188"/>
     <use xlink:href="#DejaVuSans-77" x="1088.529297"/>
     <use xlink:href="#DejaVuSans-69" x="1170.316406"/>
     <use xlink:href="#DejaVuSans-74" x="1198.099609"/>
     <use xlink:href="#DejaVuSans-68" x="1237.308594"/>
     <use xlink:href="#DejaVuSans-20" x="1300.6875"/>
     <use xlink:href="#DejaVuSans-6d" x="1332.474609"/>
     <use xlink:href="#DejaVuSans-20" x="1429.886719"/>
     <use xlink:href="#DejaVuSans-3d" x="1461.673828"/>
     <use xlink:href="#DejaVuSans-20" x="1545.462891"/>
     <use xlink:href="#DejaVuSans-30" x="1577.25"/>
     <use xlink:href="#DejaVuSans-2e" x="1640.873047"/>
     <use xlink:href="#DejaVuSans-35" x="1672.660156"/>
    </g>
   </g>
   <g id="legend_1">
    <g id="patch_7">
     <path d="M 297.796875 101.2725 
L 381.8 101.2725 
Q 383.8 101.2725 383.8 99.2725 
L 383.8 41.56 
Q 383.8 39.56 381.8 39.56 
L 297.796875 39.56 
Q 295.796875 39.56 295.796875 41.56 
L 295.796875 99.2725 
Q 295.796875 101.2725 297.796875 101.2725 
z
" style="fill: #ffffff; opacity: 0.8; stroke: #cccccc; stroke-linejoin: miter"/>
    </g>
    <g id="line2d_33">
     <path d="M 299.796875 47.658437 
L 309.796875 47.658437 
L 319.796875 47.658437 
" style="fill: none; stroke: #9d02d7; stroke-width: 1.5; stroke-linecap: square"/>
     <g>
      <use xlink:href="#m36ae8464ec" x="309.796875" y="47.658437" style="fill: #9d02d7; stroke: #9d02d7; stroke-linejoin: miter"/>
     </g>
    </g>
    <g id="text_18">
     <!-- alpha=2.5 -->
     <g transform="translate(327.796875 51.158437)scale(0.1 -0.1)">
      <use xlink:href="#DejaVuSans-61"/>
      <use xlink:href="#DejaVuSans-6c" x="61.279297"/>
      <use xlink:href="#DejaVuSans-70" x="89.0625"/>
      <use xlink:href="#DejaVuSans-68" x="152.539062"/>
      <use xlink:href="#DejaVuSans-61" x="215.917969"/>
      <use xlink:href="#DejaVuSans-3d" x="277.197266"/>
      <use xlink:href="#DejaVuSans-32" x="360.986328"/>
      <use xlink:href="#DejaVuSans-2e" x="424.609375"/>
      <use xlink:href="#DejaVuSans-35" x="456.396484"/>
     </g>
    </g>
    <g id="line2d_34">
     <path d="M 299.796875 62.336562 
L 309.796875 62.336562 
L 319.796875 62.336562 
" style="fill: none; stroke: #0000ff; stroke-width: 1.5; stroke-linecap: square"/>
     <g>
      <use xlink:href="#me3758ce8ad" x="309.796875" y="62.336562" style="fill: #0000ff; stroke: #0000ff"/>
     </g>
    </g>
    <g id="text_19">
     <!-- alpha=3.0 -->
     <g transform="translate(327.796875 65.836562)scale(0.1 -0.1)">
      <use xlink:href="#DejaVuSans-61"/>
      <use xlink:href="#DejaVuSans-6c" x="61.279297"/>
      <use xlink:href="#DejaVuSans-70" x="89.0625"/>
      <use xlink:href="#DejaVuSans-68" x="152.539062"/>
      <use xlink:href="#DejaVuSans-61" x="215.917969"/>
      <use xlink:href="#DejaVuSans-3d" x="277.197266"/>
      <use xlink:href="#DejaVuSans-33" x="360.986328"/>
      <use xlink:href="#DejaVuSans-2e" x="424.609375"/>
      <use xlink:href="#DejaVuSans-30" x="456.396484"/>
     </g>
    </g>
    <g id="line2d_35">
     <path d="M 299.796875 77.014687 
L 309.796875 77.014687 
L 319.796875 77.014687 
" style="fill: none; stroke: #ff7763; stroke-width: 1.5; stroke-linecap: square"/>
     <g>
      <use xlink:href="#mb34ceb7c15" x="309.796875" y="77.014687" style="fill: #ff7763; stroke: #ff7763"/>
     </g>
    </g>
    <g id="text_20">
     <!-- alpha=3.5 -->
     <g transform="translate(327.796875 80.514687)scale(0.1 -0.1)">
      <use xlink:href="#DejaVuSans-61"/>
      <use xlink:href="#DejaVuSans-6c" x="61.279297"/>
      <use xlink:href="#DejaVuSans-70" x="89.0625"/>
      <use xlink:href="#DejaVuSans-68" x="152.539062"/>
      <use xlink:href="#DejaVuSans-61" x="215.917969"/>
      <use xlink:href="#DejaVuSans-3d" x="277.197266"/>
      <use xlink:href="#DejaVuSans-33" x="360.986328"/>
      <use xlink:href="#DejaVuSans-2e" x="424.609375"/>
      <use xlink:href="#DejaVuSans-35" x="456.396484"/>
     </g>
    </g>
    <g id="line2d_36">
     <path d="M 299.796875 91.692813 
L 309.796875 91.692813 
L 319.796875 91.692813 
" style="fill: none; stroke: #ffac1e; stroke-width: 1.5; stroke-linecap: square"/>
     <g>
      <use xlink:href="#m7f01352b7e" x="309.796875" y="91.692813" style="fill: #ffac1e; stroke: #ffac1e; stroke-linejoin: bevel"/>
     </g>
    </g>
    <g id="text_21">
     <!-- alpha=4.0 -->
     <g transform="translate(327.796875 95.192813)scale(0.1 -0.1)">
      <use xlink:href="#DejaVuSans-61"/>
      <use xlink:href="#DejaVuSans-6c" x="61.279297"/>
      <use xlink:href="#DejaVuSans-70" x="89.0625"/>
      <use xlink:href="#DejaVuSans-68" x="152.539062"/>
      <use xlink:href="#DejaVuSans-61" x="215.917969"/>
      <use xlink:href="#DejaVuSans-3d" x="277.197266"/>
      <use xlink:href="#DejaVuSans-34" x="360.986328"/>
      <use xlink:href="#DejaVuSans-2e" x="424.609375"/>
      <use xlink:href="#DejaVuSans-30" x="456.396484"/>
     </g>
    </g>
   </g>
  </g>
 </g>
 <defs>
  <clipPath id="p922193b689">
   <rect x="54" y="34.56" width="334.8" height="217.44"/>
  </clipPath>
 </defs>
</svg>
