<?xml version="1.0" encoding="utf-8" standalone="no"?>
<!DOCTYPE svg PUBLIC "-//W3C//DTD SVG 1.1//EN"
  "http://www.w3.org/Graphics/SVG/1.1/DTD/svg11.dtd">
<svg xmlns:xlink="http://www.w3.org/1999/xlink" width="432pt" height="288pt" viewBox="0 0 432 288" xmlns="http://www.w3.org/2000/svg" version="1.1">
 <metadata>
  <rdf:RDF xmlns:dc="http://purl.org/dc/elements/1.1/" xmlns:cc="http://creativecommons.org/ns#" xmlns:rdf="http://www.w3.org/1999/02/22-rdf-syntax-ns#">
   <cc:Work>
    <dc:type rdf:resource="http://purl.org/dc/dcmitype/StillImage"/>
    <dc:date>2023-01-11T15:36:20.709566</dc:date>
    <dc:format>image/svg+xml</dc:format>
    <dc:creator>
     <cc:Agent>
      <dc:title>Matplotlib v3.5.2, https://matplotlib.org/</dc:title>
     </cc:Agent>
    </dc:creator>
   </cc:Work>
  </rdf:RDF>
 </metadata>
 <defs>
  <style type="text/css">*{stroke-linejoin: round; stroke-linecap: butt}</style>
 </defs>
 <g id="figure_1">
  <g id="patch_1">
   <path d="M 0 288 
L 432 288 
L 432 0 
L 0 0 
z
" style="fill: #ffffff"/>
  </g>
  <g id="axes_1">
   <g id="patch_2">
    <path d="M 54 252 
L 388.8 252 
L 388.8 34.56 
L 54 34.56 
z
" style="fill: #ffffff"/>
   </g>
   <g id="PolyCollection_1">
    <defs>
     <path id="mabd9387d6d" d="M 69.218182 -25.360885 
L 69.218182 -25.360885 
L 74.376888 -34.658943 
L 79.535593 -33.825833 
L 84.694299 -57.728253 
L 89.853005 -94.682381 
L 95.01171 -159.842438 
L 100.170416 -180.051857 
L 105.329122 -98.887167 
L 110.487827 -187.958692 
L 115.646533 -187.958692 
L 120.805239 -193.990518 
L 125.963945 -193.990518 
L 131.12265 -193.990518 
L 136.281356 -214.989815 
L 141.440062 -217.046555 
L 146.598767 -217.046555 
L 151.757473 -217.046555 
L 156.916179 -217.046555 
L 162.074884 -217.046555 
L 167.23359 -217.046555 
L 172.392296 -217.046555 
L 177.551002 -217.046555 
L 182.709707 -217.046555 
L 187.868413 -217.046555 
L 193.027119 -217.046555 
L 198.185824 -217.046555 
L 203.34453 -216.617526 
L 208.503236 -216.617526 
L 213.661941 -217.046555 
L 218.820647 -217.046555 
L 223.979353 -217.046555 
L 229.138059 -217.046555 
L 234.296764 -217.046555 
L 239.45547 -217.046555 
L 244.614176 -216.617526 
L 249.772881 -217.046555 
L 254.931587 -217.046555 
L 260.090293 -214.737125 
L 265.248998 -214.737125 
L 270.407704 -214.737125 
L 275.56641 -214.737125 
L 280.725116 -214.737125 
L 285.883821 -214.737125 
L 291.042527 -214.737125 
L 296.201233 -216.680875 
L 301.359938 -216.680875 
L 306.518644 -214.810274 
L 311.67735 -214.810274 
L 316.836055 -214.737125 
L 321.994761 -216.046314 
L 327.153467 -217.046555 
L 332.312173 -217.046555 
L 337.470878 -217.046555 
L 342.629584 -217.046555 
L 347.78829 -217.046555 
L 352.946995 -217.046555 
L 358.105701 -217.046555 
L 363.264407 -217.046555 
L 368.423112 -216.046314 
L 373.581818 -217.046555 
L 373.581818 -217.046555 
L 373.581818 -217.046555 
L 368.423112 -216.046314 
L 363.264407 -217.046555 
L 358.105701 -217.046555 
L 352.946995 -217.046555 
L 347.78829 -217.046555 
L 342.629584 -217.046555 
L 337.470878 -217.046555 
L 332.312173 -217.046555 
L 327.153467 -217.046555 
L 321.994761 -216.046314 
L 316.836055 -214.737125 
L 311.67735 -214.810274 
L 306.518644 -214.810274 
L 301.359938 -216.680875 
L 296.201233 -216.680875 
L 291.042527 -214.737125 
L 285.883821 -214.737125 
L 280.725116 -214.737125 
L 275.56641 -214.737125 
L 270.407704 -214.737125 
L 265.248998 -214.737125 
L 260.090293 -214.737125 
L 254.931587 -217.046555 
L 249.772881 -217.046555 
L 244.614176 -216.617526 
L 239.45547 -217.046555 
L 234.296764 -217.046555 
L 229.138059 -217.046555 
L 223.979353 -217.046555 
L 218.820647 -217.046555 
L 213.661941 -217.046555 
L 208.503236 -216.617526 
L 203.34453 -216.617526 
L 198.185824 -217.046555 
L 193.027119 -217.046555 
L 187.868413 -217.046555 
L 182.709707 -217.046555 
L 177.551002 -217.046555 
L 172.392296 -217.046555 
L 167.23359 -217.046555 
L 162.074884 -217.046555 
L 156.916179 -217.046555 
L 151.757473 -217.046555 
L 146.598767 -217.046555 
L 141.440062 -217.046555 
L 136.281356 -214.989815 
L 131.12265 -193.990518 
L 125.963945 -193.990518 
L 120.805239 -193.990518 
L 115.646533 -187.958692 
L 110.487827 -187.958692 
L 105.329122 -98.887167 
L 100.170416 -180.051857 
L 95.01171 -159.842438 
L 89.853005 -94.682381 
L 84.694299 -57.728253 
L 79.535593 -33.825833 
L 74.376888 -34.658943 
L 69.218182 -25.360885 
z
" style="stroke: #9d02d7; stroke-opacity: 0.2"/>
    </defs>
    <g clip-path="url(#p695f4f5f57)">
     <use xlink:href="#mabd9387d6d" x="0" y="288" style="fill: #9d02d7; fill-opacity: 0.2; stroke: #9d02d7; stroke-opacity: 0.2"/>
    </g>
   </g>
   <g id="PolyCollection_2">
    <defs>
     <path id="mb60f188ba6" d="M 69.218182 -32.558421 
L 69.218182 -32.558421 
L 74.376888 -35.202217 
L 79.535593 -79.463269 
L 84.694299 -117.827529 
L 89.853005 -134.627946 
L 95.01171 -120.747055 
L 100.170416 -233.174002 
L 105.329122 -241.662283 
L 110.487827 -242.396662 
L 115.646533 -242.552508 
L 120.805239 -242.413467 
L 125.963945 -240.984951 
L 131.12265 -242.553465 
L 136.281356 -242.55225 
L 141.440062 -242.55225 
L 146.598767 -240.997624 
L 151.757473 -240.997992 
L 156.916179 -240.997624 
L 162.074884 -240.997624 
L 167.23359 -244.304754 
L 172.392296 -244.304754 
L 177.551002 -244.544368 
L 182.709707 -244.545391 
L 187.868413 -242.55225 
L 193.027119 -242.553465 
L 198.185824 -242.55225 
L 203.34453 -242.55225 
L 208.503236 -242.55225 
L 213.661941 -244.545391 
L 218.820647 -244.545391 
L 223.979353 -244.545391 
L 229.138059 -244.545391 
L 234.296764 -244.545391 
L 239.45547 -244.545391 
L 244.614176 -244.545391 
L 249.772881 -244.545391 
L 254.931587 -244.545391 
L 260.090293 -244.545391 
L 265.248998 -244.545391 
L 270.407704 -244.545391 
L 275.56641 -244.545391 
L 280.725116 -244.545391 
L 285.883821 -244.545391 
L 291.042527 -244.545391 
L 296.201233 -244.545391 
L 301.359938 -244.545391 
L 306.518644 -244.545391 
L 311.67735 -244.545391 
L 316.836055 -244.545391 
L 321.994761 -244.545391 
L 327.153467 -244.545391 
L 332.312173 -244.545391 
L 337.470878 -244.545391 
L 342.629584 -244.545391 
L 347.78829 -244.545391 
L 352.946995 -244.545391 
L 358.105701 -244.545391 
L 363.264407 -244.545391 
L 368.423112 -242.553465 
L 373.581818 -244.545391 
L 373.581818 -244.545391 
L 373.581818 -244.545391 
L 368.423112 -242.553465 
L 363.264407 -244.545391 
L 358.105701 -244.545391 
L 352.946995 -244.545391 
L 347.78829 -244.545391 
L 342.629584 -244.545391 
L 337.470878 -244.545391 
L 332.312173 -244.545391 
L 327.153467 -244.545391 
L 321.994761 -244.545391 
L 316.836055 -244.545391 
L 311.67735 -244.545391 
L 306.518644 -244.545391 
L 301.359938 -244.545391 
L 296.201233 -244.545391 
L 291.042527 -244.545391 
L 285.883821 -244.545391 
L 280.725116 -244.545391 
L 275.56641 -244.545391 
L 270.407704 -244.545391 
L 265.248998 -244.545391 
L 260.090293 -244.545391 
L 254.931587 -244.545391 
L 249.772881 -244.545391 
L 244.614176 -244.545391 
L 239.45547 -244.545391 
L 234.296764 -244.545391 
L 229.138059 -244.545391 
L 223.979353 -244.545391 
L 218.820647 -244.545391 
L 213.661941 -244.545391 
L 208.503236 -242.55225 
L 203.34453 -242.55225 
L 198.185824 -242.55225 
L 193.027119 -242.553465 
L 187.868413 -242.55225 
L 182.709707 -244.545391 
L 177.551002 -244.544368 
L 172.392296 -244.304754 
L 167.23359 -244.304754 
L 162.074884 -240.997624 
L 156.916179 -240.997624 
L 151.757473 -240.997992 
L 146.598767 -240.997624 
L 141.440062 -242.55225 
L 136.281356 -242.55225 
L 131.12265 -242.553465 
L 125.963945 -240.984951 
L 120.805239 -242.413467 
L 115.646533 -242.552508 
L 110.487827 -242.396662 
L 105.329122 -241.662283 
L 100.170416 -233.174002 
L 95.01171 -120.747055 
L 89.853005 -134.627946 
L 84.694299 -117.827529 
L 79.535593 -79.463269 
L 74.376888 -35.202217 
L 69.218182 -32.558421 
z
" style="stroke: #0000ff; stroke-opacity: 0.2"/>
    </defs>
    <g clip-path="url(#p695f4f5f57)">
     <use xlink:href="#mb60f188ba6" x="0" y="288" style="fill: #0000ff; fill-opacity: 0.2; stroke: #0000ff; stroke-opacity: 0.2"/>
    </g>
   </g>
   <g id="PolyCollection_3">
    <defs>
     <path id="m1fced88743" d="M 69.218182 -24.732693 
L 69.218182 -24.732693 
L 74.376888 -35.091182 
L 79.535593 -35.091182 
L 84.694299 -120.26281 
L 89.853005 -141.064391 
L 95.01171 -125.963483 
L 100.170416 -196.380054 
L 105.329122 -211.470018 
L 110.487827 -220.256245 
L 115.646533 -225.682621 
L 120.805239 -226.071298 
L 125.963945 -226.071298 
L 131.12265 -225.936274 
L 136.281356 -225.936274 
L 141.440062 -236.814432 
L 146.598767 -236.528609 
L 151.757473 -236.208003 
L 156.916179 -237.039383 
L 162.074884 -237.039383 
L 167.23359 -236.452019 
L 172.392296 -237.039383 
L 177.551002 -237.039383 
L 182.709707 -237.039383 
L 187.868413 -237.039383 
L 193.027119 -237.039383 
L 198.185824 -237.039383 
L 203.34453 -236.452019 
L 208.503236 -236.452019 
L 213.661941 -236.452019 
L 218.820647 -237.039383 
L 223.979353 -237.039383 
L 229.138059 -237.039383 
L 234.296764 -237.039383 
L 239.45547 -237.039383 
L 244.614176 -236.452019 
L 249.772881 -236.452019 
L 254.931587 -237.039383 
L 260.090293 -237.039383 
L 265.248998 -236.452019 
L 270.407704 -236.452019 
L 275.56641 -236.452019 
L 280.725116 -236.452019 
L 285.883821 -236.452019 
L 291.042527 -236.452019 
L 296.201233 -236.452019 
L 301.359938 -236.452019 
L 306.518644 -236.452019 
L 311.67735 -236.452019 
L 316.836055 -236.452019 
L 321.994761 -236.452019 
L 327.153467 -234.967858 
L 332.312173 -236.452019 
L 337.470878 -236.452019 
L 342.629584 -236.452019 
L 347.78829 -236.452019 
L 352.946995 -236.452019 
L 358.105701 -236.452019 
L 363.264407 -236.452019 
L 368.423112 -236.452019 
L 373.581818 -236.452019 
L 373.581818 -236.452019 
L 373.581818 -236.452019 
L 368.423112 -236.452019 
L 363.264407 -236.452019 
L 358.105701 -236.452019 
L 352.946995 -236.452019 
L 347.78829 -236.452019 
L 342.629584 -236.452019 
L 337.470878 -236.452019 
L 332.312173 -236.452019 
L 327.153467 -234.967858 
L 321.994761 -236.452019 
L 316.836055 -236.452019 
L 311.67735 -236.452019 
L 306.518644 -236.452019 
L 301.359938 -236.452019 
L 296.201233 -236.452019 
L 291.042527 -236.452019 
L 285.883821 -236.452019 
L 280.725116 -236.452019 
L 275.56641 -236.452019 
L 270.407704 -236.452019 
L 265.248998 -236.452019 
L 260.090293 -237.039383 
L 254.931587 -237.039383 
L 249.772881 -236.452019 
L 244.614176 -236.452019 
L 239.45547 -237.039383 
L 234.296764 -237.039383 
L 229.138059 -237.039383 
L 223.979353 -237.039383 
L 218.820647 -237.039383 
L 213.661941 -236.452019 
L 208.503236 -236.452019 
L 203.34453 -236.452019 
L 198.185824 -237.039383 
L 193.027119 -237.039383 
L 187.868413 -237.039383 
L 182.709707 -237.039383 
L 177.551002 -237.039383 
L 172.392296 -237.039383 
L 167.23359 -236.452019 
L 162.074884 -237.039383 
L 156.916179 -237.039383 
L 151.757473 -236.208003 
L 146.598767 -236.528609 
L 141.440062 -236.814432 
L 136.281356 -225.936274 
L 131.12265 -225.936274 
L 125.963945 -226.071298 
L 120.805239 -226.071298 
L 115.646533 -225.682621 
L 110.487827 -220.256245 
L 105.329122 -211.470018 
L 100.170416 -196.380054 
L 95.01171 -125.963483 
L 89.853005 -141.064391 
L 84.694299 -120.26281 
L 79.535593 -35.091182 
L 74.376888 -35.091182 
L 69.218182 -24.732693 
z
" style="stroke: #ff7763; stroke-opacity: 0.2"/>
    </defs>
    <g clip-path="url(#p695f4f5f57)">
     <use xlink:href="#m1fced88743" x="0" y="288" style="fill: #ff7763; fill-opacity: 0.2; stroke: #ff7763; stroke-opacity: 0.2"/>
    </g>
   </g>
   <g id="PolyCollection_4">
    <defs>
     <path id="mbc468f57e6" d="M 69.218182 -35.04523 
L 69.218182 -35.04523 
L 74.376888 -35.076299 
L 79.535593 -49.769607 
L 84.694299 -55.761879 
L 89.853005 -76.316501 
L 95.01171 -195.544443 
L 100.170416 -181.284514 
L 105.329122 -227.840522 
L 110.487827 -229.544781 
L 115.646533 -243.515636 
L 120.805239 -233.448545 
L 125.963945 -234.429118 
L 131.12265 -243.385591 
L 136.281356 -243.385591 
L 141.440062 -243.386518 
L 146.598767 -243.386518 
L 151.757473 -243.385591 
L 156.916179 -243.386518 
L 162.074884 -243.385591 
L 167.23359 -243.386518 
L 172.392296 -243.385591 
L 177.551002 -243.386518 
L 182.709707 -243.385591 
L 187.868413 -243.385591 
L 193.027119 -243.385591 
L 198.185824 -243.385591 
L 203.34453 -242.172857 
L 208.503236 -242.172857 
L 213.661941 -242.312013 
L 218.820647 -242.312013 
L 223.979353 -242.411972 
L 229.138059 -242.411972 
L 234.296764 -242.4129 
L 239.45547 -242.411972 
L 244.614176 -242.411972 
L 249.772881 -242.4129 
L 254.931587 -242.4129 
L 260.090293 -241.937213 
L 265.248998 -242.171928 
L 270.407704 -241.79542 
L 275.56641 -243.498819 
L 280.725116 -243.498819 
L 285.883821 -243.385591 
L 291.042527 -243.386518 
L 296.201233 -243.386518 
L 301.359938 -243.385591 
L 306.518644 -243.386518 
L 311.67735 -243.385591 
L 316.836055 -241.977899 
L 321.994761 -241.976873 
L 327.153467 -241.976873 
L 332.312173 -243.386518 
L 337.470878 -241.976873 
L 342.629584 -241.976873 
L 347.78829 -241.976873 
L 352.946995 -241.977899 
L 358.105701 -241.977899 
L 363.264407 -241.976873 
L 368.423112 -243.386518 
L 373.581818 -243.613264 
L 373.581818 -243.613264 
L 373.581818 -243.613264 
L 368.423112 -243.386518 
L 363.264407 -241.976873 
L 358.105701 -241.977899 
L 352.946995 -241.977899 
L 347.78829 -241.976873 
L 342.629584 -241.976873 
L 337.470878 -241.976873 
L 332.312173 -243.386518 
L 327.153467 -241.976873 
L 321.994761 -241.976873 
L 316.836055 -241.977899 
L 311.67735 -243.385591 
L 306.518644 -243.386518 
L 301.359938 -243.385591 
L 296.201233 -243.386518 
L 291.042527 -243.386518 
L 285.883821 -243.385591 
L 280.725116 -243.498819 
L 275.56641 -243.498819 
L 270.407704 -241.79542 
L 265.248998 -242.171928 
L 260.090293 -241.937213 
L 254.931587 -242.4129 
L 249.772881 -242.4129 
L 244.614176 -242.411972 
L 239.45547 -242.411972 
L 234.296764 -242.4129 
L 229.138059 -242.411972 
L 223.979353 -242.411972 
L 218.820647 -242.312013 
L 213.661941 -242.312013 
L 208.503236 -242.172857 
L 203.34453 -242.172857 
L 198.185824 -243.385591 
L 193.027119 -243.385591 
L 187.868413 -243.385591 
L 182.709707 -243.385591 
L 177.551002 -243.386518 
L 172.392296 -243.385591 
L 167.23359 -243.386518 
L 162.074884 -243.385591 
L 156.916179 -243.386518 
L 151.757473 -243.385591 
L 146.598767 -243.386518 
L 141.440062 -243.386518 
L 136.281356 -243.385591 
L 131.12265 -243.385591 
L 125.963945 -234.429118 
L 120.805239 -233.448545 
L 115.646533 -243.515636 
L 110.487827 -229.544781 
L 105.329122 -227.840522 
L 100.170416 -181.284514 
L 95.01171 -195.544443 
L 89.853005 -76.316501 
L 84.694299 -55.761879 
L 79.535593 -49.769607 
L 74.376888 -35.076299 
L 69.218182 -35.04523 
z
" style="stroke: #ffac1e; stroke-opacity: 0.2"/>
    </defs>
    <g clip-path="url(#p695f4f5f57)">
     <use xlink:href="#mbc468f57e6" x="0" y="288" style="fill: #ffac1e; fill-opacity: 0.2; stroke: #ffac1e; stroke-opacity: 0.2"/>
    </g>
   </g>
   <g id="PolyCollection_5">
    <defs>
     <path id="ma895eddb82" d="M 69.218182 -32.89535 
L 69.218182 -32.89535 
L 74.376888 -35.084 
L 79.535593 -35.085088 
L 84.694299 -32.005473 
L 89.853005 -160.206913 
L 95.01171 -187.446209 
L 100.170416 -190.99855 
L 105.329122 -226.810793 
L 110.487827 -222.876389 
L 115.646533 -223.951784 
L 120.805239 -222.622804 
L 125.963945 -222.622804 
L 131.12265 -241.846095 
L 136.281356 -241.316735 
L 141.440062 -241.846095 
L 146.598767 -241.846095 
L 151.757473 -241.846095 
L 156.916179 -241.846095 
L 162.074884 -241.846095 
L 167.23359 -241.846095 
L 172.392296 -241.846095 
L 177.551002 -241.846095 
L 182.709707 -244.778643 
L 187.868413 -244.778643 
L 193.027119 -241.907748 
L 198.185824 -241.907748 
L 203.34453 -241.907748 
L 208.503236 -241.907748 
L 213.661941 -241.286874 
L 218.820647 -241.052336 
L 223.979353 -241.052336 
L 229.138059 -241.052336 
L 234.296764 -241.052446 
L 239.45547 -241.052446 
L 244.614176 -241.052446 
L 249.772881 -241.052446 
L 254.931587 -241.052446 
L 260.090293 -241.052446 
L 265.248998 -241.052336 
L 270.407704 -241.052336 
L 275.56641 -241.052336 
L 280.725116 -241.052336 
L 285.883821 -241.052336 
L 291.042527 -241.052336 
L 296.201233 -241.052446 
L 301.359938 -241.052446 
L 306.518644 -241.052446 
L 311.67735 -241.052336 
L 316.836055 -241.052336 
L 321.994761 -241.052336 
L 327.153467 -241.052336 
L 332.312173 -241.052336 
L 337.470878 -241.052336 
L 342.629584 -241.052336 
L 347.78829 -241.052336 
L 352.946995 -241.052336 
L 358.105701 -241.052336 
L 363.264407 -241.052336 
L 368.423112 -241.052336 
L 373.581818 -241.052336 
L 373.581818 -241.052336 
L 373.581818 -241.052336 
L 368.423112 -241.052336 
L 363.264407 -241.052336 
L 358.105701 -241.052336 
L 352.946995 -241.052336 
L 347.78829 -241.052336 
L 342.629584 -241.052336 
L 337.470878 -241.052336 
L 332.312173 -241.052336 
L 327.153467 -241.052336 
L 321.994761 -241.052336 
L 316.836055 -241.052336 
L 311.67735 -241.052336 
L 306.518644 -241.052446 
L 301.359938 -241.052446 
L 296.201233 -241.052446 
L 291.042527 -241.052336 
L 285.883821 -241.052336 
L 280.725116 -241.052336 
L 275.56641 -241.052336 
L 270.407704 -241.052336 
L 265.248998 -241.052336 
L 260.090293 -241.052446 
L 254.931587 -241.052446 
L 249.772881 -241.052446 
L 244.614176 -241.052446 
L 239.45547 -241.052446 
L 234.296764 -241.052446 
L 229.138059 -241.052336 
L 223.979353 -241.052336 
L 218.820647 -241.052336 
L 213.661941 -241.286874 
L 208.503236 -241.907748 
L 203.34453 -241.907748 
L 198.185824 -241.907748 
L 193.027119 -241.907748 
L 187.868413 -244.778643 
L 182.709707 -244.778643 
L 177.551002 -241.846095 
L 172.392296 -241.846095 
L 167.23359 -241.846095 
L 162.074884 -241.846095 
L 156.916179 -241.846095 
L 151.757473 -241.846095 
L 146.598767 -241.846095 
L 141.440062 -241.846095 
L 136.281356 -241.316735 
L 131.12265 -241.846095 
L 125.963945 -222.622804 
L 120.805239 -222.622804 
L 115.646533 -223.951784 
L 110.487827 -222.876389 
L 105.329122 -226.810793 
L 100.170416 -190.99855 
L 95.01171 -187.446209 
L 89.853005 -160.206913 
L 84.694299 -32.005473 
L 79.535593 -35.085088 
L 74.376888 -35.084 
L 69.218182 -32.89535 
z
" style="stroke: #009435; stroke-opacity: 0.2"/>
    </defs>
    <g clip-path="url(#p695f4f5f57)">
     <use xlink:href="#ma895eddb82" x="0" y="288" style="fill: #009435; fill-opacity: 0.2; stroke: #009435; stroke-opacity: 0.2"/>
    </g>
   </g>
   <g id="matplotlib.axis_1">
    <g id="xtick_1">
     <g id="line2d_1">
      <path d="M 69.218182 252 
L 69.218182 34.56 
" clip-path="url(#p695f4f5f57)" style="fill: none; stroke-dasharray: 2.96,1.28; stroke-dashoffset: 0; stroke: #b0b0b0; stroke-width: 0.8"/>
     </g>
     <g id="line2d_2">
      <defs>
       <path id="mc0e3b945f3" d="M 0 0 
L 0 3.5 
" style="stroke: #000000; stroke-width: 0.8"/>
      </defs>
      <g>
       <use xlink:href="#mc0e3b945f3" x="69.218182" y="252" style="stroke: #000000; stroke-width: 0.8"/>
      </g>
     </g>
     <g id="text_1">
      <!-- 0 -->
      <g transform="translate(66.036932 266.598437)scale(0.1 -0.1)">
       <defs>
        <path id="DejaVuSans-30" d="M 2034 4250 
Q 1547 4250 1301 3770 
Q 1056 3291 1056 2328 
Q 1056 1369 1301 889 
Q 1547 409 2034 409 
Q 2525 409 2770 889 
Q 3016 1369 3016 2328 
Q 3016 3291 2770 3770 
Q 2525 4250 2034 4250 
z
M 2034 4750 
Q 2819 4750 3233 4129 
Q 3647 3509 3647 2328 
Q 3647 1150 3233 529 
Q 2819 -91 2034 -91 
Q 1250 -91 836 529 
Q 422 1150 422 2328 
Q 422 3509 836 4129 
Q 1250 4750 2034 4750 
z
" transform="scale(0.015625)"/>
       </defs>
       <use xlink:href="#DejaVuSans-30"/>
      </g>
     </g>
    </g>
    <g id="xtick_2">
     <g id="line2d_3">
      <path d="M 120.805239 252 
L 120.805239 34.56 
" clip-path="url(#p695f4f5f57)" style="fill: none; stroke-dasharray: 2.96,1.28; stroke-dashoffset: 0; stroke: #b0b0b0; stroke-width: 0.8"/>
     </g>
     <g id="line2d_4">
      <g>
       <use xlink:href="#mc0e3b945f3" x="120.805239" y="252" style="stroke: #000000; stroke-width: 0.8"/>
      </g>
     </g>
     <g id="text_2">
      <!-- 500 -->
      <g transform="translate(111.261489 266.598437)scale(0.1 -0.1)">
       <defs>
        <path id="DejaVuSans-35" d="M 691 4666 
L 3169 4666 
L 3169 4134 
L 1269 4134 
L 1269 2991 
Q 1406 3038 1543 3061 
Q 1681 3084 1819 3084 
Q 2600 3084 3056 2656 
Q 3513 2228 3513 1497 
Q 3513 744 3044 326 
Q 2575 -91 1722 -91 
Q 1428 -91 1123 -41 
Q 819 9 494 109 
L 494 744 
Q 775 591 1075 516 
Q 1375 441 1709 441 
Q 2250 441 2565 725 
Q 2881 1009 2881 1497 
Q 2881 1984 2565 2268 
Q 2250 2553 1709 2553 
Q 1456 2553 1204 2497 
Q 953 2441 691 2322 
L 691 4666 
z
" transform="scale(0.015625)"/>
       </defs>
       <use xlink:href="#DejaVuSans-35"/>
       <use xlink:href="#DejaVuSans-30" x="63.623047"/>
       <use xlink:href="#DejaVuSans-30" x="127.246094"/>
      </g>
     </g>
    </g>
    <g id="xtick_3">
     <g id="line2d_5">
      <path d="M 172.392296 252 
L 172.392296 34.56 
" clip-path="url(#p695f4f5f57)" style="fill: none; stroke-dasharray: 2.96,1.28; stroke-dashoffset: 0; stroke: #b0b0b0; stroke-width: 0.8"/>
     </g>
     <g id="line2d_6">
      <g>
       <use xlink:href="#mc0e3b945f3" x="172.392296" y="252" style="stroke: #000000; stroke-width: 0.8"/>
      </g>
     </g>
     <g id="text_3">
      <!-- 1000 -->
      <g transform="translate(159.667296 266.598437)scale(0.1 -0.1)">
       <defs>
        <path id="DejaVuSans-31" d="M 794 531 
L 1825 531 
L 1825 4091 
L 703 3866 
L 703 4441 
L 1819 4666 
L 2450 4666 
L 2450 531 
L 3481 531 
L 3481 0 
L 794 0 
L 794 531 
z
" transform="scale(0.015625)"/>
       </defs>
       <use xlink:href="#DejaVuSans-31"/>
       <use xlink:href="#DejaVuSans-30" x="63.623047"/>
       <use xlink:href="#DejaVuSans-30" x="127.246094"/>
       <use xlink:href="#DejaVuSans-30" x="190.869141"/>
      </g>
     </g>
    </g>
    <g id="xtick_4">
     <g id="line2d_7">
      <path d="M 223.979353 252 
L 223.979353 34.56 
" clip-path="url(#p695f4f5f57)" style="fill: none; stroke-dasharray: 2.96,1.28; stroke-dashoffset: 0; stroke: #b0b0b0; stroke-width: 0.8"/>
     </g>
     <g id="line2d_8">
      <g>
       <use xlink:href="#mc0e3b945f3" x="223.979353" y="252" style="stroke: #000000; stroke-width: 0.8"/>
      </g>
     </g>
     <g id="text_4">
      <!-- 1500 -->
      <g transform="translate(211.254353 266.598437)scale(0.1 -0.1)">
       <use xlink:href="#DejaVuSans-31"/>
       <use xlink:href="#DejaVuSans-35" x="63.623047"/>
       <use xlink:href="#DejaVuSans-30" x="127.246094"/>
       <use xlink:href="#DejaVuSans-30" x="190.869141"/>
      </g>
     </g>
    </g>
    <g id="xtick_5">
     <g id="line2d_9">
      <path d="M 275.56641 252 
L 275.56641 34.56 
" clip-path="url(#p695f4f5f57)" style="fill: none; stroke-dasharray: 2.96,1.28; stroke-dashoffset: 0; stroke: #b0b0b0; stroke-width: 0.8"/>
     </g>
     <g id="line2d_10">
      <g>
       <use xlink:href="#mc0e3b945f3" x="275.56641" y="252" style="stroke: #000000; stroke-width: 0.8"/>
      </g>
     </g>
     <g id="text_5">
      <!-- 2000 -->
      <g transform="translate(262.84141 266.598437)scale(0.1 -0.1)">
       <defs>
        <path id="DejaVuSans-32" d="M 1228 531 
L 3431 531 
L 3431 0 
L 469 0 
L 469 531 
Q 828 903 1448 1529 
Q 2069 2156 2228 2338 
Q 2531 2678 2651 2914 
Q 2772 3150 2772 3378 
Q 2772 3750 2511 3984 
Q 2250 4219 1831 4219 
Q 1534 4219 1204 4116 
Q 875 4013 500 3803 
L 500 4441 
Q 881 4594 1212 4672 
Q 1544 4750 1819 4750 
Q 2544 4750 2975 4387 
Q 3406 4025 3406 3419 
Q 3406 3131 3298 2873 
Q 3191 2616 2906 2266 
Q 2828 2175 2409 1742 
Q 1991 1309 1228 531 
z
" transform="scale(0.015625)"/>
       </defs>
       <use xlink:href="#DejaVuSans-32"/>
       <use xlink:href="#DejaVuSans-30" x="63.623047"/>
       <use xlink:href="#DejaVuSans-30" x="127.246094"/>
       <use xlink:href="#DejaVuSans-30" x="190.869141"/>
      </g>
     </g>
    </g>
    <g id="xtick_6">
     <g id="line2d_11">
      <path d="M 327.153467 252 
L 327.153467 34.56 
" clip-path="url(#p695f4f5f57)" style="fill: none; stroke-dasharray: 2.96,1.28; stroke-dashoffset: 0; stroke: #b0b0b0; stroke-width: 0.8"/>
     </g>
     <g id="line2d_12">
      <g>
       <use xlink:href="#mc0e3b945f3" x="327.153467" y="252" style="stroke: #000000; stroke-width: 0.8"/>
      </g>
     </g>
     <g id="text_6">
      <!-- 2500 -->
      <g transform="translate(314.428467 266.598437)scale(0.1 -0.1)">
       <use xlink:href="#DejaVuSans-32"/>
       <use xlink:href="#DejaVuSans-35" x="63.623047"/>
       <use xlink:href="#DejaVuSans-30" x="127.246094"/>
       <use xlink:href="#DejaVuSans-30" x="190.869141"/>
      </g>
     </g>
    </g>
    <g id="xtick_7">
     <g id="line2d_13">
      <path d="M 378.740524 252 
L 378.740524 34.56 
" clip-path="url(#p695f4f5f57)" style="fill: none; stroke-dasharray: 2.96,1.28; stroke-dashoffset: 0; stroke: #b0b0b0; stroke-width: 0.8"/>
     </g>
     <g id="line2d_14">
      <g>
       <use xlink:href="#mc0e3b945f3" x="378.740524" y="252" style="stroke: #000000; stroke-width: 0.8"/>
      </g>
     </g>
     <g id="text_7">
      <!-- 3000 -->
      <g transform="translate(366.015524 266.598437)scale(0.1 -0.1)">
       <defs>
        <path id="DejaVuSans-33" d="M 2597 2516 
Q 3050 2419 3304 2112 
Q 3559 1806 3559 1356 
Q 3559 666 3084 287 
Q 2609 -91 1734 -91 
Q 1441 -91 1130 -33 
Q 819 25 488 141 
L 488 750 
Q 750 597 1062 519 
Q 1375 441 1716 441 
Q 2309 441 2620 675 
Q 2931 909 2931 1356 
Q 2931 1769 2642 2001 
Q 2353 2234 1838 2234 
L 1294 2234 
L 1294 2753 
L 1863 2753 
Q 2328 2753 2575 2939 
Q 2822 3125 2822 3475 
Q 2822 3834 2567 4026 
Q 2313 4219 1838 4219 
Q 1578 4219 1281 4162 
Q 984 4106 628 3988 
L 628 4550 
Q 988 4650 1302 4700 
Q 1616 4750 1894 4750 
Q 2613 4750 3031 4423 
Q 3450 4097 3450 3541 
Q 3450 3153 3228 2886 
Q 3006 2619 2597 2516 
z
" transform="scale(0.015625)"/>
       </defs>
       <use xlink:href="#DejaVuSans-33"/>
       <use xlink:href="#DejaVuSans-30" x="63.623047"/>
       <use xlink:href="#DejaVuSans-30" x="127.246094"/>
       <use xlink:href="#DejaVuSans-30" x="190.869141"/>
      </g>
     </g>
    </g>
    <g id="text_8">
     <!-- Steps -->
     <g transform="translate(207.410156 280.276563)scale(0.1 -0.1)">
      <defs>
       <path id="DejaVuSans-53" d="M 3425 4513 
L 3425 3897 
Q 3066 4069 2747 4153 
Q 2428 4238 2131 4238 
Q 1616 4238 1336 4038 
Q 1056 3838 1056 3469 
Q 1056 3159 1242 3001 
Q 1428 2844 1947 2747 
L 2328 2669 
Q 3034 2534 3370 2195 
Q 3706 1856 3706 1288 
Q 3706 609 3251 259 
Q 2797 -91 1919 -91 
Q 1588 -91 1214 -16 
Q 841 59 441 206 
L 441 856 
Q 825 641 1194 531 
Q 1563 422 1919 422 
Q 2459 422 2753 634 
Q 3047 847 3047 1241 
Q 3047 1584 2836 1778 
Q 2625 1972 2144 2069 
L 1759 2144 
Q 1053 2284 737 2584 
Q 422 2884 422 3419 
Q 422 4038 858 4394 
Q 1294 4750 2059 4750 
Q 2388 4750 2728 4690 
Q 3069 4631 3425 4513 
z
" transform="scale(0.015625)"/>
       <path id="DejaVuSans-74" d="M 1172 4494 
L 1172 3500 
L 2356 3500 
L 2356 3053 
L 1172 3053 
L 1172 1153 
Q 1172 725 1289 603 
Q 1406 481 1766 481 
L 2356 481 
L 2356 0 
L 1766 0 
Q 1100 0 847 248 
Q 594 497 594 1153 
L 594 3053 
L 172 3053 
L 172 3500 
L 594 3500 
L 594 4494 
L 1172 4494 
z
" transform="scale(0.015625)"/>
       <path id="DejaVuSans-65" d="M 3597 1894 
L 3597 1613 
L 953 1613 
Q 991 1019 1311 708 
Q 1631 397 2203 397 
Q 2534 397 2845 478 
Q 3156 559 3463 722 
L 3463 178 
Q 3153 47 2828 -22 
Q 2503 -91 2169 -91 
Q 1331 -91 842 396 
Q 353 884 353 1716 
Q 353 2575 817 3079 
Q 1281 3584 2069 3584 
Q 2775 3584 3186 3129 
Q 3597 2675 3597 1894 
z
M 3022 2063 
Q 3016 2534 2758 2815 
Q 2500 3097 2075 3097 
Q 1594 3097 1305 2825 
Q 1016 2553 972 2059 
L 3022 2063 
z
" transform="scale(0.015625)"/>
       <path id="DejaVuSans-70" d="M 1159 525 
L 1159 -1331 
L 581 -1331 
L 581 3500 
L 1159 3500 
L 1159 2969 
Q 1341 3281 1617 3432 
Q 1894 3584 2278 3584 
Q 2916 3584 3314 3078 
Q 3713 2572 3713 1747 
Q 3713 922 3314 415 
Q 2916 -91 2278 -91 
Q 1894 -91 1617 61 
Q 1341 213 1159 525 
z
M 3116 1747 
Q 3116 2381 2855 2742 
Q 2594 3103 2138 3103 
Q 1681 3103 1420 2742 
Q 1159 2381 1159 1747 
Q 1159 1113 1420 752 
Q 1681 391 2138 391 
Q 2594 391 2855 752 
Q 3116 1113 3116 1747 
z
" transform="scale(0.015625)"/>
       <path id="DejaVuSans-73" d="M 2834 3397 
L 2834 2853 
Q 2591 2978 2328 3040 
Q 2066 3103 1784 3103 
Q 1356 3103 1142 2972 
Q 928 2841 928 2578 
Q 928 2378 1081 2264 
Q 1234 2150 1697 2047 
L 1894 2003 
Q 2506 1872 2764 1633 
Q 3022 1394 3022 966 
Q 3022 478 2636 193 
Q 2250 -91 1575 -91 
Q 1294 -91 989 -36 
Q 684 19 347 128 
L 347 722 
Q 666 556 975 473 
Q 1284 391 1588 391 
Q 1994 391 2212 530 
Q 2431 669 2431 922 
Q 2431 1156 2273 1281 
Q 2116 1406 1581 1522 
L 1381 1569 
Q 847 1681 609 1914 
Q 372 2147 372 2553 
Q 372 3047 722 3315 
Q 1072 3584 1716 3584 
Q 2034 3584 2315 3537 
Q 2597 3491 2834 3397 
z
" transform="scale(0.015625)"/>
      </defs>
      <use xlink:href="#DejaVuSans-53"/>
      <use xlink:href="#DejaVuSans-74" x="63.476562"/>
      <use xlink:href="#DejaVuSans-65" x="102.685547"/>
      <use xlink:href="#DejaVuSans-70" x="164.208984"/>
      <use xlink:href="#DejaVuSans-73" x="227.685547"/>
     </g>
    </g>
   </g>
   <g id="matplotlib.axis_2">
    <g id="ytick_1">
     <g id="line2d_15">
      <path d="M 54 243.636923 
L 388.8 243.636923 
" clip-path="url(#p695f4f5f57)" style="fill: none; stroke-dasharray: 2.96,1.28; stroke-dashoffset: 0; stroke: #b0b0b0; stroke-width: 0.8"/>
     </g>
     <g id="line2d_16">
      <defs>
       <path id="maa967f4166" d="M 0 0 
L -3.5 0 
" style="stroke: #000000; stroke-width: 0.8"/>
      </defs>
      <g>
       <use xlink:href="#maa967f4166" x="54" y="243.636923" style="stroke: #000000; stroke-width: 0.8"/>
      </g>
     </g>
     <g id="text_9">
      <!-- −12 -->
      <g transform="translate(25.895312 247.436142)scale(0.1 -0.1)">
       <defs>
        <path id="DejaVuSans-2212" d="M 678 2272 
L 4684 2272 
L 4684 1741 
L 678 1741 
L 678 2272 
z
" transform="scale(0.015625)"/>
       </defs>
       <use xlink:href="#DejaVuSans-2212"/>
       <use xlink:href="#DejaVuSans-31" x="83.789062"/>
       <use xlink:href="#DejaVuSans-32" x="147.412109"/>
      </g>
     </g>
    </g>
    <g id="ytick_2">
     <g id="line2d_17">
      <path d="M 54 210.184615 
L 388.8 210.184615 
" clip-path="url(#p695f4f5f57)" style="fill: none; stroke-dasharray: 2.96,1.28; stroke-dashoffset: 0; stroke: #b0b0b0; stroke-width: 0.8"/>
     </g>
     <g id="line2d_18">
      <g>
       <use xlink:href="#maa967f4166" x="54" y="210.184615" style="stroke: #000000; stroke-width: 0.8"/>
      </g>
     </g>
     <g id="text_10">
      <!-- −10 -->
      <g transform="translate(25.895312 213.983834)scale(0.1 -0.1)">
       <use xlink:href="#DejaVuSans-2212"/>
       <use xlink:href="#DejaVuSans-31" x="83.789062"/>
       <use xlink:href="#DejaVuSans-30" x="147.412109"/>
      </g>
     </g>
    </g>
    <g id="ytick_3">
     <g id="line2d_19">
      <path d="M 54 176.732308 
L 388.8 176.732308 
" clip-path="url(#p695f4f5f57)" style="fill: none; stroke-dasharray: 2.96,1.28; stroke-dashoffset: 0; stroke: #b0b0b0; stroke-width: 0.8"/>
     </g>
     <g id="line2d_20">
      <g>
       <use xlink:href="#maa967f4166" x="54" y="176.732308" style="stroke: #000000; stroke-width: 0.8"/>
      </g>
     </g>
     <g id="text_11">
      <!-- −8 -->
      <g transform="translate(32.257812 180.531526)scale(0.1 -0.1)">
       <defs>
        <path id="DejaVuSans-38" d="M 2034 2216 
Q 1584 2216 1326 1975 
Q 1069 1734 1069 1313 
Q 1069 891 1326 650 
Q 1584 409 2034 409 
Q 2484 409 2743 651 
Q 3003 894 3003 1313 
Q 3003 1734 2745 1975 
Q 2488 2216 2034 2216 
z
M 1403 2484 
Q 997 2584 770 2862 
Q 544 3141 544 3541 
Q 544 4100 942 4425 
Q 1341 4750 2034 4750 
Q 2731 4750 3128 4425 
Q 3525 4100 3525 3541 
Q 3525 3141 3298 2862 
Q 3072 2584 2669 2484 
Q 3125 2378 3379 2068 
Q 3634 1759 3634 1313 
Q 3634 634 3220 271 
Q 2806 -91 2034 -91 
Q 1263 -91 848 271 
Q 434 634 434 1313 
Q 434 1759 690 2068 
Q 947 2378 1403 2484 
z
M 1172 3481 
Q 1172 3119 1398 2916 
Q 1625 2713 2034 2713 
Q 2441 2713 2670 2916 
Q 2900 3119 2900 3481 
Q 2900 3844 2670 4047 
Q 2441 4250 2034 4250 
Q 1625 4250 1398 4047 
Q 1172 3844 1172 3481 
z
" transform="scale(0.015625)"/>
       </defs>
       <use xlink:href="#DejaVuSans-2212"/>
       <use xlink:href="#DejaVuSans-38" x="83.789062"/>
      </g>
     </g>
    </g>
    <g id="ytick_4">
     <g id="line2d_21">
      <path d="M 54 143.28 
L 388.8 143.28 
" clip-path="url(#p695f4f5f57)" style="fill: none; stroke-dasharray: 2.96,1.28; stroke-dashoffset: 0; stroke: #b0b0b0; stroke-width: 0.8"/>
     </g>
     <g id="line2d_22">
      <g>
       <use xlink:href="#maa967f4166" x="54" y="143.28" style="stroke: #000000; stroke-width: 0.8"/>
      </g>
     </g>
     <g id="text_12">
      <!-- −6 -->
      <g transform="translate(32.257812 147.079219)scale(0.1 -0.1)">
       <defs>
        <path id="DejaVuSans-36" d="M 2113 2584 
Q 1688 2584 1439 2293 
Q 1191 2003 1191 1497 
Q 1191 994 1439 701 
Q 1688 409 2113 409 
Q 2538 409 2786 701 
Q 3034 994 3034 1497 
Q 3034 2003 2786 2293 
Q 2538 2584 2113 2584 
z
M 3366 4563 
L 3366 3988 
Q 3128 4100 2886 4159 
Q 2644 4219 2406 4219 
Q 1781 4219 1451 3797 
Q 1122 3375 1075 2522 
Q 1259 2794 1537 2939 
Q 1816 3084 2150 3084 
Q 2853 3084 3261 2657 
Q 3669 2231 3669 1497 
Q 3669 778 3244 343 
Q 2819 -91 2113 -91 
Q 1303 -91 875 529 
Q 447 1150 447 2328 
Q 447 3434 972 4092 
Q 1497 4750 2381 4750 
Q 2619 4750 2861 4703 
Q 3103 4656 3366 4563 
z
" transform="scale(0.015625)"/>
       </defs>
       <use xlink:href="#DejaVuSans-2212"/>
       <use xlink:href="#DejaVuSans-36" x="83.789062"/>
      </g>
     </g>
    </g>
    <g id="ytick_5">
     <g id="line2d_23">
      <path d="M 54 109.827692 
L 388.8 109.827692 
" clip-path="url(#p695f4f5f57)" style="fill: none; stroke-dasharray: 2.96,1.28; stroke-dashoffset: 0; stroke: #b0b0b0; stroke-width: 0.8"/>
     </g>
     <g id="line2d_24">
      <g>
       <use xlink:href="#maa967f4166" x="54" y="109.827692" style="stroke: #000000; stroke-width: 0.8"/>
      </g>
     </g>
     <g id="text_13">
      <!-- −4 -->
      <g transform="translate(32.257812 113.626911)scale(0.1 -0.1)">
       <defs>
        <path id="DejaVuSans-34" d="M 2419 4116 
L 825 1625 
L 2419 1625 
L 2419 4116 
z
M 2253 4666 
L 3047 4666 
L 3047 1625 
L 3713 1625 
L 3713 1100 
L 3047 1100 
L 3047 0 
L 2419 0 
L 2419 1100 
L 313 1100 
L 313 1709 
L 2253 4666 
z
" transform="scale(0.015625)"/>
       </defs>
       <use xlink:href="#DejaVuSans-2212"/>
       <use xlink:href="#DejaVuSans-34" x="83.789062"/>
      </g>
     </g>
    </g>
    <g id="ytick_6">
     <g id="line2d_25">
      <path d="M 54 76.375385 
L 388.8 76.375385 
" clip-path="url(#p695f4f5f57)" style="fill: none; stroke-dasharray: 2.96,1.28; stroke-dashoffset: 0; stroke: #b0b0b0; stroke-width: 0.8"/>
     </g>
     <g id="line2d_26">
      <g>
       <use xlink:href="#maa967f4166" x="54" y="76.375385" style="stroke: #000000; stroke-width: 0.8"/>
      </g>
     </g>
     <g id="text_14">
      <!-- −2 -->
      <g transform="translate(32.257812 80.174603)scale(0.1 -0.1)">
       <use xlink:href="#DejaVuSans-2212"/>
       <use xlink:href="#DejaVuSans-32" x="83.789062"/>
      </g>
     </g>
    </g>
    <g id="ytick_7">
     <g id="line2d_27">
      <path d="M 54 42.923077 
L 388.8 42.923077 
" clip-path="url(#p695f4f5f57)" style="fill: none; stroke-dasharray: 2.96,1.28; stroke-dashoffset: 0; stroke: #b0b0b0; stroke-width: 0.8"/>
     </g>
     <g id="line2d_28">
      <g>
       <use xlink:href="#maa967f4166" x="54" y="42.923077" style="stroke: #000000; stroke-width: 0.8"/>
      </g>
     </g>
     <g id="text_15">
      <!-- 0 -->
      <g transform="translate(40.6375 46.722296)scale(0.1 -0.1)">
       <use xlink:href="#DejaVuSans-30"/>
      </g>
     </g>
    </g>
    <g id="text_16">
     <!-- Policy value error -->
     <g transform="translate(19.815625 186.597969)rotate(-90)scale(0.1 -0.1)">
      <defs>
       <path id="DejaVuSans-50" d="M 1259 4147 
L 1259 2394 
L 2053 2394 
Q 2494 2394 2734 2622 
Q 2975 2850 2975 3272 
Q 2975 3691 2734 3919 
Q 2494 4147 2053 4147 
L 1259 4147 
z
M 628 4666 
L 2053 4666 
Q 2838 4666 3239 4311 
Q 3641 3956 3641 3272 
Q 3641 2581 3239 2228 
Q 2838 1875 2053 1875 
L 1259 1875 
L 1259 0 
L 628 0 
L 628 4666 
z
" transform="scale(0.015625)"/>
       <path id="DejaVuSans-6f" d="M 1959 3097 
Q 1497 3097 1228 2736 
Q 959 2375 959 1747 
Q 959 1119 1226 758 
Q 1494 397 1959 397 
Q 2419 397 2687 759 
Q 2956 1122 2956 1747 
Q 2956 2369 2687 2733 
Q 2419 3097 1959 3097 
z
M 1959 3584 
Q 2709 3584 3137 3096 
Q 3566 2609 3566 1747 
Q 3566 888 3137 398 
Q 2709 -91 1959 -91 
Q 1206 -91 779 398 
Q 353 888 353 1747 
Q 353 2609 779 3096 
Q 1206 3584 1959 3584 
z
" transform="scale(0.015625)"/>
       <path id="DejaVuSans-6c" d="M 603 4863 
L 1178 4863 
L 1178 0 
L 603 0 
L 603 4863 
z
" transform="scale(0.015625)"/>
       <path id="DejaVuSans-69" d="M 603 3500 
L 1178 3500 
L 1178 0 
L 603 0 
L 603 3500 
z
M 603 4863 
L 1178 4863 
L 1178 4134 
L 603 4134 
L 603 4863 
z
" transform="scale(0.015625)"/>
       <path id="DejaVuSans-63" d="M 3122 3366 
L 3122 2828 
Q 2878 2963 2633 3030 
Q 2388 3097 2138 3097 
Q 1578 3097 1268 2742 
Q 959 2388 959 1747 
Q 959 1106 1268 751 
Q 1578 397 2138 397 
Q 2388 397 2633 464 
Q 2878 531 3122 666 
L 3122 134 
Q 2881 22 2623 -34 
Q 2366 -91 2075 -91 
Q 1284 -91 818 406 
Q 353 903 353 1747 
Q 353 2603 823 3093 
Q 1294 3584 2113 3584 
Q 2378 3584 2631 3529 
Q 2884 3475 3122 3366 
z
" transform="scale(0.015625)"/>
       <path id="DejaVuSans-79" d="M 2059 -325 
Q 1816 -950 1584 -1140 
Q 1353 -1331 966 -1331 
L 506 -1331 
L 506 -850 
L 844 -850 
Q 1081 -850 1212 -737 
Q 1344 -625 1503 -206 
L 1606 56 
L 191 3500 
L 800 3500 
L 1894 763 
L 2988 3500 
L 3597 3500 
L 2059 -325 
z
" transform="scale(0.015625)"/>
       <path id="DejaVuSans-20" transform="scale(0.015625)"/>
       <path id="DejaVuSans-76" d="M 191 3500 
L 800 3500 
L 1894 563 
L 2988 3500 
L 3597 3500 
L 2284 0 
L 1503 0 
L 191 3500 
z
" transform="scale(0.015625)"/>
       <path id="DejaVuSans-61" d="M 2194 1759 
Q 1497 1759 1228 1600 
Q 959 1441 959 1056 
Q 959 750 1161 570 
Q 1363 391 1709 391 
Q 2188 391 2477 730 
Q 2766 1069 2766 1631 
L 2766 1759 
L 2194 1759 
z
M 3341 1997 
L 3341 0 
L 2766 0 
L 2766 531 
Q 2569 213 2275 61 
Q 1981 -91 1556 -91 
Q 1019 -91 701 211 
Q 384 513 384 1019 
Q 384 1609 779 1909 
Q 1175 2209 1959 2209 
L 2766 2209 
L 2766 2266 
Q 2766 2663 2505 2880 
Q 2244 3097 1772 3097 
Q 1472 3097 1187 3025 
Q 903 2953 641 2809 
L 641 3341 
Q 956 3463 1253 3523 
Q 1550 3584 1831 3584 
Q 2591 3584 2966 3190 
Q 3341 2797 3341 1997 
z
" transform="scale(0.015625)"/>
       <path id="DejaVuSans-75" d="M 544 1381 
L 544 3500 
L 1119 3500 
L 1119 1403 
Q 1119 906 1312 657 
Q 1506 409 1894 409 
Q 2359 409 2629 706 
Q 2900 1003 2900 1516 
L 2900 3500 
L 3475 3500 
L 3475 0 
L 2900 0 
L 2900 538 
Q 2691 219 2414 64 
Q 2138 -91 1772 -91 
Q 1169 -91 856 284 
Q 544 659 544 1381 
z
M 1991 3584 
L 1991 3584 
z
" transform="scale(0.015625)"/>
       <path id="DejaVuSans-72" d="M 2631 2963 
Q 2534 3019 2420 3045 
Q 2306 3072 2169 3072 
Q 1681 3072 1420 2755 
Q 1159 2438 1159 1844 
L 1159 0 
L 581 0 
L 581 3500 
L 1159 3500 
L 1159 2956 
Q 1341 3275 1631 3429 
Q 1922 3584 2338 3584 
Q 2397 3584 2469 3576 
Q 2541 3569 2628 3553 
L 2631 2963 
z
" transform="scale(0.015625)"/>
      </defs>
      <use xlink:href="#DejaVuSans-50"/>
      <use xlink:href="#DejaVuSans-6f" x="56.677734"/>
      <use xlink:href="#DejaVuSans-6c" x="117.859375"/>
      <use xlink:href="#DejaVuSans-69" x="145.642578"/>
      <use xlink:href="#DejaVuSans-63" x="173.425781"/>
      <use xlink:href="#DejaVuSans-79" x="228.40625"/>
      <use xlink:href="#DejaVuSans-20" x="287.585938"/>
      <use xlink:href="#DejaVuSans-76" x="319.373047"/>
      <use xlink:href="#DejaVuSans-61" x="378.552734"/>
      <use xlink:href="#DejaVuSans-6c" x="439.832031"/>
      <use xlink:href="#DejaVuSans-75" x="467.615234"/>
      <use xlink:href="#DejaVuSans-65" x="530.994141"/>
      <use xlink:href="#DejaVuSans-20" x="592.517578"/>
      <use xlink:href="#DejaVuSans-65" x="624.304688"/>
      <use xlink:href="#DejaVuSans-72" x="685.828125"/>
      <use xlink:href="#DejaVuSans-72" x="725.191406"/>
      <use xlink:href="#DejaVuSans-6f" x="764.054688"/>
      <use xlink:href="#DejaVuSans-72" x="825.236328"/>
     </g>
    </g>
   </g>
   <g id="line2d_29">
    <path d="M 69.218182 262.639115 
L 74.376888 253.341057 
L 79.535593 254.174167 
L 84.694299 230.271747 
L 89.853005 193.317619 
L 95.01171 128.157562 
L 100.170416 107.948143 
L 105.329122 189.112833 
L 110.487827 100.041308 
L 115.646533 100.041308 
L 120.805239 94.009482 
L 125.963945 94.009482 
L 131.12265 94.009482 
L 136.281356 73.010185 
L 141.440062 70.953445 
L 146.598767 70.953445 
L 151.757473 70.953445 
L 156.916179 70.953445 
L 162.074884 70.953445 
L 167.23359 70.953445 
L 172.392296 70.953445 
L 177.551002 70.953445 
L 182.709707 70.953445 
L 187.868413 70.953445 
L 193.027119 70.953445 
L 198.185824 70.953445 
L 203.34453 71.382474 
L 208.503236 71.382474 
L 213.661941 70.953445 
L 218.820647 70.953445 
L 223.979353 70.953445 
L 229.138059 70.953445 
L 234.296764 70.953445 
L 239.45547 70.953445 
L 244.614176 71.382474 
L 249.772881 70.953445 
L 254.931587 70.953445 
L 260.090293 73.262875 
L 265.248998 73.262875 
L 270.407704 73.262875 
L 275.56641 73.262875 
L 280.725116 73.262875 
L 285.883821 73.262875 
L 291.042527 73.262875 
L 296.201233 71.319125 
L 301.359938 71.319125 
L 306.518644 73.189726 
L 311.67735 73.189726 
L 316.836055 73.262875 
L 321.994761 71.953686 
L 327.153467 70.953445 
L 332.312173 70.953445 
L 337.470878 70.953445 
L 342.629584 70.953445 
L 347.78829 70.953445 
L 352.946995 70.953445 
L 358.105701 70.953445 
L 363.264407 70.953445 
L 368.423112 71.953686 
L 373.581818 70.953445 
" clip-path="url(#p695f4f5f57)" style="fill: none; stroke: #9d02d7; stroke-width: 1.5; stroke-linecap: square"/>
    <defs>
     <path id="m148266c94d" d="M 0 -2 
L -2 2 
L 2 2 
z
" style="stroke: #9d02d7; stroke-linejoin: miter"/>
    </defs>
    <g clip-path="url(#p695f4f5f57)">
     <use xlink:href="#m148266c94d" x="69.218182" y="262.639115" style="fill: #9d02d7; stroke: #9d02d7; stroke-linejoin: miter"/>
     <use xlink:href="#m148266c94d" x="74.376888" y="253.341057" style="fill: #9d02d7; stroke: #9d02d7; stroke-linejoin: miter"/>
     <use xlink:href="#m148266c94d" x="79.535593" y="254.174167" style="fill: #9d02d7; stroke: #9d02d7; stroke-linejoin: miter"/>
     <use xlink:href="#m148266c94d" x="84.694299" y="230.271747" style="fill: #9d02d7; stroke: #9d02d7; stroke-linejoin: miter"/>
     <use xlink:href="#m148266c94d" x="89.853005" y="193.317619" style="fill: #9d02d7; stroke: #9d02d7; stroke-linejoin: miter"/>
     <use xlink:href="#m148266c94d" x="95.01171" y="128.157562" style="fill: #9d02d7; stroke: #9d02d7; stroke-linejoin: miter"/>
     <use xlink:href="#m148266c94d" x="100.170416" y="107.948143" style="fill: #9d02d7; stroke: #9d02d7; stroke-linejoin: miter"/>
     <use xlink:href="#m148266c94d" x="105.329122" y="189.112833" style="fill: #9d02d7; stroke: #9d02d7; stroke-linejoin: miter"/>
     <use xlink:href="#m148266c94d" x="110.487827" y="100.041308" style="fill: #9d02d7; stroke: #9d02d7; stroke-linejoin: miter"/>
     <use xlink:href="#m148266c94d" x="115.646533" y="100.041308" style="fill: #9d02d7; stroke: #9d02d7; stroke-linejoin: miter"/>
     <use xlink:href="#m148266c94d" x="120.805239" y="94.009482" style="fill: #9d02d7; stroke: #9d02d7; stroke-linejoin: miter"/>
     <use xlink:href="#m148266c94d" x="125.963945" y="94.009482" style="fill: #9d02d7; stroke: #9d02d7; stroke-linejoin: miter"/>
     <use xlink:href="#m148266c94d" x="131.12265" y="94.009482" style="fill: #9d02d7; stroke: #9d02d7; stroke-linejoin: miter"/>
     <use xlink:href="#m148266c94d" x="136.281356" y="73.010185" style="fill: #9d02d7; stroke: #9d02d7; stroke-linejoin: miter"/>
     <use xlink:href="#m148266c94d" x="141.440062" y="70.953445" style="fill: #9d02d7; stroke: #9d02d7; stroke-linejoin: miter"/>
     <use xlink:href="#m148266c94d" x="146.598767" y="70.953445" style="fill: #9d02d7; stroke: #9d02d7; stroke-linejoin: miter"/>
     <use xlink:href="#m148266c94d" x="151.757473" y="70.953445" style="fill: #9d02d7; stroke: #9d02d7; stroke-linejoin: miter"/>
     <use xlink:href="#m148266c94d" x="156.916179" y="70.953445" style="fill: #9d02d7; stroke: #9d02d7; stroke-linejoin: miter"/>
     <use xlink:href="#m148266c94d" x="162.074884" y="70.953445" style="fill: #9d02d7; stroke: #9d02d7; stroke-linejoin: miter"/>
     <use xlink:href="#m148266c94d" x="167.23359" y="70.953445" style="fill: #9d02d7; stroke: #9d02d7; stroke-linejoin: miter"/>
     <use xlink:href="#m148266c94d" x="172.392296" y="70.953445" style="fill: #9d02d7; stroke: #9d02d7; stroke-linejoin: miter"/>
     <use xlink:href="#m148266c94d" x="177.551002" y="70.953445" style="fill: #9d02d7; stroke: #9d02d7; stroke-linejoin: miter"/>
     <use xlink:href="#m148266c94d" x="182.709707" y="70.953445" style="fill: #9d02d7; stroke: #9d02d7; stroke-linejoin: miter"/>
     <use xlink:href="#m148266c94d" x="187.868413" y="70.953445" style="fill: #9d02d7; stroke: #9d02d7; stroke-linejoin: miter"/>
     <use xlink:href="#m148266c94d" x="193.027119" y="70.953445" style="fill: #9d02d7; stroke: #9d02d7; stroke-linejoin: miter"/>
     <use xlink:href="#m148266c94d" x="198.185824" y="70.953445" style="fill: #9d02d7; stroke: #9d02d7; stroke-linejoin: miter"/>
     <use xlink:href="#m148266c94d" x="203.34453" y="71.382474" style="fill: #9d02d7; stroke: #9d02d7; stroke-linejoin: miter"/>
     <use xlink:href="#m148266c94d" x="208.503236" y="71.382474" style="fill: #9d02d7; stroke: #9d02d7; stroke-linejoin: miter"/>
     <use xlink:href="#m148266c94d" x="213.661941" y="70.953445" style="fill: #9d02d7; stroke: #9d02d7; stroke-linejoin: miter"/>
     <use xlink:href="#m148266c94d" x="218.820647" y="70.953445" style="fill: #9d02d7; stroke: #9d02d7; stroke-linejoin: miter"/>
     <use xlink:href="#m148266c94d" x="223.979353" y="70.953445" style="fill: #9d02d7; stroke: #9d02d7; stroke-linejoin: miter"/>
     <use xlink:href="#m148266c94d" x="229.138059" y="70.953445" style="fill: #9d02d7; stroke: #9d02d7; stroke-linejoin: miter"/>
     <use xlink:href="#m148266c94d" x="234.296764" y="70.953445" style="fill: #9d02d7; stroke: #9d02d7; stroke-linejoin: miter"/>
     <use xlink:href="#m148266c94d" x="239.45547" y="70.953445" style="fill: #9d02d7; stroke: #9d02d7; stroke-linejoin: miter"/>
     <use xlink:href="#m148266c94d" x="244.614176" y="71.382474" style="fill: #9d02d7; stroke: #9d02d7; stroke-linejoin: miter"/>
     <use xlink:href="#m148266c94d" x="249.772881" y="70.953445" style="fill: #9d02d7; stroke: #9d02d7; stroke-linejoin: miter"/>
     <use xlink:href="#m148266c94d" x="254.931587" y="70.953445" style="fill: #9d02d7; stroke: #9d02d7; stroke-linejoin: miter"/>
     <use xlink:href="#m148266c94d" x="260.090293" y="73.262875" style="fill: #9d02d7; stroke: #9d02d7; stroke-linejoin: miter"/>
     <use xlink:href="#m148266c94d" x="265.248998" y="73.262875" style="fill: #9d02d7; stroke: #9d02d7; stroke-linejoin: miter"/>
     <use xlink:href="#m148266c94d" x="270.407704" y="73.262875" style="fill: #9d02d7; stroke: #9d02d7; stroke-linejoin: miter"/>
     <use xlink:href="#m148266c94d" x="275.56641" y="73.262875" style="fill: #9d02d7; stroke: #9d02d7; stroke-linejoin: miter"/>
     <use xlink:href="#m148266c94d" x="280.725116" y="73.262875" style="fill: #9d02d7; stroke: #9d02d7; stroke-linejoin: miter"/>
     <use xlink:href="#m148266c94d" x="285.883821" y="73.262875" style="fill: #9d02d7; stroke: #9d02d7; stroke-linejoin: miter"/>
     <use xlink:href="#m148266c94d" x="291.042527" y="73.262875" style="fill: #9d02d7; stroke: #9d02d7; stroke-linejoin: miter"/>
     <use xlink:href="#m148266c94d" x="296.201233" y="71.319125" style="fill: #9d02d7; stroke: #9d02d7; stroke-linejoin: miter"/>
     <use xlink:href="#m148266c94d" x="301.359938" y="71.319125" style="fill: #9d02d7; stroke: #9d02d7; stroke-linejoin: miter"/>
     <use xlink:href="#m148266c94d" x="306.518644" y="73.189726" style="fill: #9d02d7; stroke: #9d02d7; stroke-linejoin: miter"/>
     <use xlink:href="#m148266c94d" x="311.67735" y="73.189726" style="fill: #9d02d7; stroke: #9d02d7; stroke-linejoin: miter"/>
     <use xlink:href="#m148266c94d" x="316.836055" y="73.262875" style="fill: #9d02d7; stroke: #9d02d7; stroke-linejoin: miter"/>
     <use xlink:href="#m148266c94d" x="321.994761" y="71.953686" style="fill: #9d02d7; stroke: #9d02d7; stroke-linejoin: miter"/>
     <use xlink:href="#m148266c94d" x="327.153467" y="70.953445" style="fill: #9d02d7; stroke: #9d02d7; stroke-linejoin: miter"/>
     <use xlink:href="#m148266c94d" x="332.312173" y="70.953445" style="fill: #9d02d7; stroke: #9d02d7; stroke-linejoin: miter"/>
     <use xlink:href="#m148266c94d" x="337.470878" y="70.953445" style="fill: #9d02d7; stroke: #9d02d7; stroke-linejoin: miter"/>
     <use xlink:href="#m148266c94d" x="342.629584" y="70.953445" style="fill: #9d02d7; stroke: #9d02d7; stroke-linejoin: miter"/>
     <use xlink:href="#m148266c94d" x="347.78829" y="70.953445" style="fill: #9d02d7; stroke: #9d02d7; stroke-linejoin: miter"/>
     <use xlink:href="#m148266c94d" x="352.946995" y="70.953445" style="fill: #9d02d7; stroke: #9d02d7; stroke-linejoin: miter"/>
     <use xlink:href="#m148266c94d" x="358.105701" y="70.953445" style="fill: #9d02d7; stroke: #9d02d7; stroke-linejoin: miter"/>
     <use xlink:href="#m148266c94d" x="363.264407" y="70.953445" style="fill: #9d02d7; stroke: #9d02d7; stroke-linejoin: miter"/>
     <use xlink:href="#m148266c94d" x="368.423112" y="71.953686" style="fill: #9d02d7; stroke: #9d02d7; stroke-linejoin: miter"/>
     <use xlink:href="#m148266c94d" x="373.581818" y="70.953445" style="fill: #9d02d7; stroke: #9d02d7; stroke-linejoin: miter"/>
    </g>
   </g>
   <g id="line2d_30">
    <path d="M 69.218182 255.441579 
L 74.376888 252.797783 
L 79.535593 208.536731 
L 84.694299 170.172471 
L 89.853005 153.372054 
L 95.01171 167.252945 
L 100.170416 54.825998 
L 105.329122 46.337717 
L 110.487827 45.603338 
L 115.646533 45.447492 
L 120.805239 45.586533 
L 125.963945 47.015049 
L 131.12265 45.446535 
L 136.281356 45.44775 
L 141.440062 45.44775 
L 146.598767 47.002376 
L 151.757473 47.002008 
L 156.916179 47.002376 
L 162.074884 47.002376 
L 167.23359 43.695246 
L 172.392296 43.695246 
L 177.551002 43.455632 
L 182.709707 43.454609 
L 187.868413 45.44775 
L 193.027119 45.446535 
L 198.185824 45.44775 
L 203.34453 45.44775 
L 208.503236 45.44775 
L 213.661941 43.454609 
L 218.820647 43.454609 
L 223.979353 43.454609 
L 229.138059 43.454609 
L 234.296764 43.454609 
L 239.45547 43.454609 
L 244.614176 43.454609 
L 249.772881 43.454609 
L 254.931587 43.454609 
L 260.090293 43.454609 
L 265.248998 43.454609 
L 270.407704 43.454609 
L 275.56641 43.454609 
L 280.725116 43.454609 
L 285.883821 43.454609 
L 291.042527 43.454609 
L 296.201233 43.454609 
L 301.359938 43.454609 
L 306.518644 43.454609 
L 311.67735 43.454609 
L 316.836055 43.454609 
L 321.994761 43.454609 
L 327.153467 43.454609 
L 332.312173 43.454609 
L 337.470878 43.454609 
L 342.629584 43.454609 
L 347.78829 43.454609 
L 352.946995 43.454609 
L 358.105701 43.454609 
L 363.264407 43.454609 
L 368.423112 45.446535 
L 373.581818 43.454609 
" clip-path="url(#p695f4f5f57)" style="fill: none; stroke: #0000ff; stroke-width: 1.5; stroke-linecap: square"/>
    <defs>
     <path id="mfd0175f230" d="M 0 2 
C 0.530406 2 1.03916 1.789267 1.414214 1.414214 
C 1.789267 1.03916 2 0.530406 2 0 
C 2 -0.530406 1.789267 -1.03916 1.414214 -1.414214 
C 1.03916 -1.789267 0.530406 -2 0 -2 
C -0.530406 -2 -1.03916 -1.789267 -1.414214 -1.414214 
C -1.789267 -1.03916 -2 -0.530406 -2 0 
C -2 0.530406 -1.789267 1.03916 -1.414214 1.414214 
C -1.03916 1.789267 -0.530406 2 0 2 
z
" style="stroke: #0000ff"/>
    </defs>
    <g clip-path="url(#p695f4f5f57)">
     <use xlink:href="#mfd0175f230" x="69.218182" y="255.441579" style="fill: #0000ff; stroke: #0000ff"/>
     <use xlink:href="#mfd0175f230" x="74.376888" y="252.797783" style="fill: #0000ff; stroke: #0000ff"/>
     <use xlink:href="#mfd0175f230" x="79.535593" y="208.536731" style="fill: #0000ff; stroke: #0000ff"/>
     <use xlink:href="#mfd0175f230" x="84.694299" y="170.172471" style="fill: #0000ff; stroke: #0000ff"/>
     <use xlink:href="#mfd0175f230" x="89.853005" y="153.372054" style="fill: #0000ff; stroke: #0000ff"/>
     <use xlink:href="#mfd0175f230" x="95.01171" y="167.252945" style="fill: #0000ff; stroke: #0000ff"/>
     <use xlink:href="#mfd0175f230" x="100.170416" y="54.825998" style="fill: #0000ff; stroke: #0000ff"/>
     <use xlink:href="#mfd0175f230" x="105.329122" y="46.337717" style="fill: #0000ff; stroke: #0000ff"/>
     <use xlink:href="#mfd0175f230" x="110.487827" y="45.603338" style="fill: #0000ff; stroke: #0000ff"/>
     <use xlink:href="#mfd0175f230" x="115.646533" y="45.447492" style="fill: #0000ff; stroke: #0000ff"/>
     <use xlink:href="#mfd0175f230" x="120.805239" y="45.586533" style="fill: #0000ff; stroke: #0000ff"/>
     <use xlink:href="#mfd0175f230" x="125.963945" y="47.015049" style="fill: #0000ff; stroke: #0000ff"/>
     <use xlink:href="#mfd0175f230" x="131.12265" y="45.446535" style="fill: #0000ff; stroke: #0000ff"/>
     <use xlink:href="#mfd0175f230" x="136.281356" y="45.44775" style="fill: #0000ff; stroke: #0000ff"/>
     <use xlink:href="#mfd0175f230" x="141.440062" y="45.44775" style="fill: #0000ff; stroke: #0000ff"/>
     <use xlink:href="#mfd0175f230" x="146.598767" y="47.002376" style="fill: #0000ff; stroke: #0000ff"/>
     <use xlink:href="#mfd0175f230" x="151.757473" y="47.002008" style="fill: #0000ff; stroke: #0000ff"/>
     <use xlink:href="#mfd0175f230" x="156.916179" y="47.002376" style="fill: #0000ff; stroke: #0000ff"/>
     <use xlink:href="#mfd0175f230" x="162.074884" y="47.002376" style="fill: #0000ff; stroke: #0000ff"/>
     <use xlink:href="#mfd0175f230" x="167.23359" y="43.695246" style="fill: #0000ff; stroke: #0000ff"/>
     <use xlink:href="#mfd0175f230" x="172.392296" y="43.695246" style="fill: #0000ff; stroke: #0000ff"/>
     <use xlink:href="#mfd0175f230" x="177.551002" y="43.455632" style="fill: #0000ff; stroke: #0000ff"/>
     <use xlink:href="#mfd0175f230" x="182.709707" y="43.454609" style="fill: #0000ff; stroke: #0000ff"/>
     <use xlink:href="#mfd0175f230" x="187.868413" y="45.44775" style="fill: #0000ff; stroke: #0000ff"/>
     <use xlink:href="#mfd0175f230" x="193.027119" y="45.446535" style="fill: #0000ff; stroke: #0000ff"/>
     <use xlink:href="#mfd0175f230" x="198.185824" y="45.44775" style="fill: #0000ff; stroke: #0000ff"/>
     <use xlink:href="#mfd0175f230" x="203.34453" y="45.44775" style="fill: #0000ff; stroke: #0000ff"/>
     <use xlink:href="#mfd0175f230" x="208.503236" y="45.44775" style="fill: #0000ff; stroke: #0000ff"/>
     <use xlink:href="#mfd0175f230" x="213.661941" y="43.454609" style="fill: #0000ff; stroke: #0000ff"/>
     <use xlink:href="#mfd0175f230" x="218.820647" y="43.454609" style="fill: #0000ff; stroke: #0000ff"/>
     <use xlink:href="#mfd0175f230" x="223.979353" y="43.454609" style="fill: #0000ff; stroke: #0000ff"/>
     <use xlink:href="#mfd0175f230" x="229.138059" y="43.454609" style="fill: #0000ff; stroke: #0000ff"/>
     <use xlink:href="#mfd0175f230" x="234.296764" y="43.454609" style="fill: #0000ff; stroke: #0000ff"/>
     <use xlink:href="#mfd0175f230" x="239.45547" y="43.454609" style="fill: #0000ff; stroke: #0000ff"/>
     <use xlink:href="#mfd0175f230" x="244.614176" y="43.454609" style="fill: #0000ff; stroke: #0000ff"/>
     <use xlink:href="#mfd0175f230" x="249.772881" y="43.454609" style="fill: #0000ff; stroke: #0000ff"/>
     <use xlink:href="#mfd0175f230" x="254.931587" y="43.454609" style="fill: #0000ff; stroke: #0000ff"/>
     <use xlink:href="#mfd0175f230" x="260.090293" y="43.454609" style="fill: #0000ff; stroke: #0000ff"/>
     <use xlink:href="#mfd0175f230" x="265.248998" y="43.454609" style="fill: #0000ff; stroke: #0000ff"/>
     <use xlink:href="#mfd0175f230" x="270.407704" y="43.454609" style="fill: #0000ff; stroke: #0000ff"/>
     <use xlink:href="#mfd0175f230" x="275.56641" y="43.454609" style="fill: #0000ff; stroke: #0000ff"/>
     <use xlink:href="#mfd0175f230" x="280.725116" y="43.454609" style="fill: #0000ff; stroke: #0000ff"/>
     <use xlink:href="#mfd0175f230" x="285.883821" y="43.454609" style="fill: #0000ff; stroke: #0000ff"/>
     <use xlink:href="#mfd0175f230" x="291.042527" y="43.454609" style="fill: #0000ff; stroke: #0000ff"/>
     <use xlink:href="#mfd0175f230" x="296.201233" y="43.454609" style="fill: #0000ff; stroke: #0000ff"/>
     <use xlink:href="#mfd0175f230" x="301.359938" y="43.454609" style="fill: #0000ff; stroke: #0000ff"/>
     <use xlink:href="#mfd0175f230" x="306.518644" y="43.454609" style="fill: #0000ff; stroke: #0000ff"/>
     <use xlink:href="#mfd0175f230" x="311.67735" y="43.454609" style="fill: #0000ff; stroke: #0000ff"/>
     <use xlink:href="#mfd0175f230" x="316.836055" y="43.454609" style="fill: #0000ff; stroke: #0000ff"/>
     <use xlink:href="#mfd0175f230" x="321.994761" y="43.454609" style="fill: #0000ff; stroke: #0000ff"/>
     <use xlink:href="#mfd0175f230" x="327.153467" y="43.454609" style="fill: #0000ff; stroke: #0000ff"/>
     <use xlink:href="#mfd0175f230" x="332.312173" y="43.454609" style="fill: #0000ff; stroke: #0000ff"/>
     <use xlink:href="#mfd0175f230" x="337.470878" y="43.454609" style="fill: #0000ff; stroke: #0000ff"/>
     <use xlink:href="#mfd0175f230" x="342.629584" y="43.454609" style="fill: #0000ff; stroke: #0000ff"/>
     <use xlink:href="#mfd0175f230" x="347.78829" y="43.454609" style="fill: #0000ff; stroke: #0000ff"/>
     <use xlink:href="#mfd0175f230" x="352.946995" y="43.454609" style="fill: #0000ff; stroke: #0000ff"/>
     <use xlink:href="#mfd0175f230" x="358.105701" y="43.454609" style="fill: #0000ff; stroke: #0000ff"/>
     <use xlink:href="#mfd0175f230" x="363.264407" y="43.454609" style="fill: #0000ff; stroke: #0000ff"/>
     <use xlink:href="#mfd0175f230" x="368.423112" y="45.446535" style="fill: #0000ff; stroke: #0000ff"/>
     <use xlink:href="#mfd0175f230" x="373.581818" y="43.454609" style="fill: #0000ff; stroke: #0000ff"/>
    </g>
   </g>
   <g id="line2d_31">
    <path d="M 69.218182 263.267307 
L 74.376888 252.908818 
L 79.535593 252.908818 
L 84.694299 167.73719 
L 89.853005 146.935609 
L 95.01171 162.036517 
L 100.170416 91.619946 
L 105.329122 76.529982 
L 110.487827 67.743755 
L 115.646533 62.317379 
L 120.805239 61.928702 
L 125.963945 61.928702 
L 131.12265 62.063726 
L 136.281356 62.063726 
L 141.440062 51.185568 
L 146.598767 51.471391 
L 151.757473 51.791997 
L 156.916179 50.960617 
L 162.074884 50.960617 
L 167.23359 51.547981 
L 172.392296 50.960617 
L 177.551002 50.960617 
L 182.709707 50.960617 
L 187.868413 50.960617 
L 193.027119 50.960617 
L 198.185824 50.960617 
L 203.34453 51.547981 
L 208.503236 51.547981 
L 213.661941 51.547981 
L 218.820647 50.960617 
L 223.979353 50.960617 
L 229.138059 50.960617 
L 234.296764 50.960617 
L 239.45547 50.960617 
L 244.614176 51.547981 
L 249.772881 51.547981 
L 254.931587 50.960617 
L 260.090293 50.960617 
L 265.248998 51.547981 
L 270.407704 51.547981 
L 275.56641 51.547981 
L 280.725116 51.547981 
L 285.883821 51.547981 
L 291.042527 51.547981 
L 296.201233 51.547981 
L 301.359938 51.547981 
L 306.518644 51.547981 
L 311.67735 51.547981 
L 316.836055 51.547981 
L 321.994761 51.547981 
L 327.153467 53.032142 
L 332.312173 51.547981 
L 337.470878 51.547981 
L 342.629584 51.547981 
L 347.78829 51.547981 
L 352.946995 51.547981 
L 358.105701 51.547981 
L 363.264407 51.547981 
L 368.423112 51.547981 
L 373.581818 51.547981 
" clip-path="url(#p695f4f5f57)" style="fill: none; stroke: #ff7763; stroke-width: 1.5; stroke-linecap: square"/>
    <defs>
     <path id="m62d35db577" d="M -2 2 
L 2 -2 
M -2 -2 
L 2 2 
" style="stroke: #ff7763"/>
    </defs>
    <g clip-path="url(#p695f4f5f57)">
     <use xlink:href="#m62d35db577" x="69.218182" y="263.267307" style="fill: #ff7763; stroke: #ff7763"/>
     <use xlink:href="#m62d35db577" x="74.376888" y="252.908818" style="fill: #ff7763; stroke: #ff7763"/>
     <use xlink:href="#m62d35db577" x="79.535593" y="252.908818" style="fill: #ff7763; stroke: #ff7763"/>
     <use xlink:href="#m62d35db577" x="84.694299" y="167.73719" style="fill: #ff7763; stroke: #ff7763"/>
     <use xlink:href="#m62d35db577" x="89.853005" y="146.935609" style="fill: #ff7763; stroke: #ff7763"/>
     <use xlink:href="#m62d35db577" x="95.01171" y="162.036517" style="fill: #ff7763; stroke: #ff7763"/>
     <use xlink:href="#m62d35db577" x="100.170416" y="91.619946" style="fill: #ff7763; stroke: #ff7763"/>
     <use xlink:href="#m62d35db577" x="105.329122" y="76.529982" style="fill: #ff7763; stroke: #ff7763"/>
     <use xlink:href="#m62d35db577" x="110.487827" y="67.743755" style="fill: #ff7763; stroke: #ff7763"/>
     <use xlink:href="#m62d35db577" x="115.646533" y="62.317379" style="fill: #ff7763; stroke: #ff7763"/>
     <use xlink:href="#m62d35db577" x="120.805239" y="61.928702" style="fill: #ff7763; stroke: #ff7763"/>
     <use xlink:href="#m62d35db577" x="125.963945" y="61.928702" style="fill: #ff7763; stroke: #ff7763"/>
     <use xlink:href="#m62d35db577" x="131.12265" y="62.063726" style="fill: #ff7763; stroke: #ff7763"/>
     <use xlink:href="#m62d35db577" x="136.281356" y="62.063726" style="fill: #ff7763; stroke: #ff7763"/>
     <use xlink:href="#m62d35db577" x="141.440062" y="51.185568" style="fill: #ff7763; stroke: #ff7763"/>
     <use xlink:href="#m62d35db577" x="146.598767" y="51.471391" style="fill: #ff7763; stroke: #ff7763"/>
     <use xlink:href="#m62d35db577" x="151.757473" y="51.791997" style="fill: #ff7763; stroke: #ff7763"/>
     <use xlink:href="#m62d35db577" x="156.916179" y="50.960617" style="fill: #ff7763; stroke: #ff7763"/>
     <use xlink:href="#m62d35db577" x="162.074884" y="50.960617" style="fill: #ff7763; stroke: #ff7763"/>
     <use xlink:href="#m62d35db577" x="167.23359" y="51.547981" style="fill: #ff7763; stroke: #ff7763"/>
     <use xlink:href="#m62d35db577" x="172.392296" y="50.960617" style="fill: #ff7763; stroke: #ff7763"/>
     <use xlink:href="#m62d35db577" x="177.551002" y="50.960617" style="fill: #ff7763; stroke: #ff7763"/>
     <use xlink:href="#m62d35db577" x="182.709707" y="50.960617" style="fill: #ff7763; stroke: #ff7763"/>
     <use xlink:href="#m62d35db577" x="187.868413" y="50.960617" style="fill: #ff7763; stroke: #ff7763"/>
     <use xlink:href="#m62d35db577" x="193.027119" y="50.960617" style="fill: #ff7763; stroke: #ff7763"/>
     <use xlink:href="#m62d35db577" x="198.185824" y="50.960617" style="fill: #ff7763; stroke: #ff7763"/>
     <use xlink:href="#m62d35db577" x="203.34453" y="51.547981" style="fill: #ff7763; stroke: #ff7763"/>
     <use xlink:href="#m62d35db577" x="208.503236" y="51.547981" style="fill: #ff7763; stroke: #ff7763"/>
     <use xlink:href="#m62d35db577" x="213.661941" y="51.547981" style="fill: #ff7763; stroke: #ff7763"/>
     <use xlink:href="#m62d35db577" x="218.820647" y="50.960617" style="fill: #ff7763; stroke: #ff7763"/>
     <use xlink:href="#m62d35db577" x="223.979353" y="50.960617" style="fill: #ff7763; stroke: #ff7763"/>
     <use xlink:href="#m62d35db577" x="229.138059" y="50.960617" style="fill: #ff7763; stroke: #ff7763"/>
     <use xlink:href="#m62d35db577" x="234.296764" y="50.960617" style="fill: #ff7763; stroke: #ff7763"/>
     <use xlink:href="#m62d35db577" x="239.45547" y="50.960617" style="fill: #ff7763; stroke: #ff7763"/>
     <use xlink:href="#m62d35db577" x="244.614176" y="51.547981" style="fill: #ff7763; stroke: #ff7763"/>
     <use xlink:href="#m62d35db577" x="249.772881" y="51.547981" style="fill: #ff7763; stroke: #ff7763"/>
     <use xlink:href="#m62d35db577" x="254.931587" y="50.960617" style="fill: #ff7763; stroke: #ff7763"/>
     <use xlink:href="#m62d35db577" x="260.090293" y="50.960617" style="fill: #ff7763; stroke: #ff7763"/>
     <use xlink:href="#m62d35db577" x="265.248998" y="51.547981" style="fill: #ff7763; stroke: #ff7763"/>
     <use xlink:href="#m62d35db577" x="270.407704" y="51.547981" style="fill: #ff7763; stroke: #ff7763"/>
     <use xlink:href="#m62d35db577" x="275.56641" y="51.547981" style="fill: #ff7763; stroke: #ff7763"/>
     <use xlink:href="#m62d35db577" x="280.725116" y="51.547981" style="fill: #ff7763; stroke: #ff7763"/>
     <use xlink:href="#m62d35db577" x="285.883821" y="51.547981" style="fill: #ff7763; stroke: #ff7763"/>
     <use xlink:href="#m62d35db577" x="291.042527" y="51.547981" style="fill: #ff7763; stroke: #ff7763"/>
     <use xlink:href="#m62d35db577" x="296.201233" y="51.547981" style="fill: #ff7763; stroke: #ff7763"/>
     <use xlink:href="#m62d35db577" x="301.359938" y="51.547981" style="fill: #ff7763; stroke: #ff7763"/>
     <use xlink:href="#m62d35db577" x="306.518644" y="51.547981" style="fill: #ff7763; stroke: #ff7763"/>
     <use xlink:href="#m62d35db577" x="311.67735" y="51.547981" style="fill: #ff7763; stroke: #ff7763"/>
     <use xlink:href="#m62d35db577" x="316.836055" y="51.547981" style="fill: #ff7763; stroke: #ff7763"/>
     <use xlink:href="#m62d35db577" x="321.994761" y="51.547981" style="fill: #ff7763; stroke: #ff7763"/>
     <use xlink:href="#m62d35db577" x="327.153467" y="53.032142" style="fill: #ff7763; stroke: #ff7763"/>
     <use xlink:href="#m62d35db577" x="332.312173" y="51.547981" style="fill: #ff7763; stroke: #ff7763"/>
     <use xlink:href="#m62d35db577" x="337.470878" y="51.547981" style="fill: #ff7763; stroke: #ff7763"/>
     <use xlink:href="#m62d35db577" x="342.629584" y="51.547981" style="fill: #ff7763; stroke: #ff7763"/>
     <use xlink:href="#m62d35db577" x="347.78829" y="51.547981" style="fill: #ff7763; stroke: #ff7763"/>
     <use xlink:href="#m62d35db577" x="352.946995" y="51.547981" style="fill: #ff7763; stroke: #ff7763"/>
     <use xlink:href="#m62d35db577" x="358.105701" y="51.547981" style="fill: #ff7763; stroke: #ff7763"/>
     <use xlink:href="#m62d35db577" x="363.264407" y="51.547981" style="fill: #ff7763; stroke: #ff7763"/>
     <use xlink:href="#m62d35db577" x="368.423112" y="51.547981" style="fill: #ff7763; stroke: #ff7763"/>
     <use xlink:href="#m62d35db577" x="373.581818" y="51.547981" style="fill: #ff7763; stroke: #ff7763"/>
    </g>
   </g>
   <g id="line2d_32">
    <path d="M 69.218182 252.95477 
L 74.376888 252.923701 
L 79.535593 238.230393 
L 84.694299 232.238121 
L 89.853005 211.683499 
L 95.01171 92.455557 
L 100.170416 106.715486 
L 105.329122 60.159478 
L 110.487827 58.455219 
L 115.646533 44.484364 
L 120.805239 54.551455 
L 125.963945 53.570882 
L 131.12265 44.614409 
L 136.281356 44.614409 
L 141.440062 44.613482 
L 146.598767 44.613482 
L 151.757473 44.614409 
L 156.916179 44.613482 
L 162.074884 44.614409 
L 167.23359 44.613482 
L 172.392296 44.614409 
L 177.551002 44.613482 
L 182.709707 44.614409 
L 187.868413 44.614409 
L 193.027119 44.614409 
L 198.185824 44.614409 
L 203.34453 45.827143 
L 208.503236 45.827143 
L 213.661941 45.687987 
L 218.820647 45.687987 
L 223.979353 45.588028 
L 229.138059 45.588028 
L 234.296764 45.5871 
L 239.45547 45.588028 
L 244.614176 45.588028 
L 249.772881 45.5871 
L 254.931587 45.5871 
L 260.090293 46.062787 
L 265.248998 45.828072 
L 270.407704 46.20458 
L 275.56641 44.501181 
L 280.725116 44.501181 
L 285.883821 44.614409 
L 291.042527 44.613482 
L 296.201233 44.613482 
L 301.359938 44.614409 
L 306.518644 44.613482 
L 311.67735 44.614409 
L 316.836055 46.022101 
L 321.994761 46.023127 
L 327.153467 46.023127 
L 332.312173 44.613482 
L 337.470878 46.023127 
L 342.629584 46.023127 
L 347.78829 46.023127 
L 352.946995 46.022101 
L 358.105701 46.022101 
L 363.264407 46.023127 
L 368.423112 44.613482 
L 373.581818 44.386736 
" clip-path="url(#p695f4f5f57)" style="fill: none; stroke: #ffac1e; stroke-width: 1.5; stroke-linecap: square"/>
    <defs>
     <path id="m5e0df5306d" d="M 0 -2 
L -0.449028 -0.618034 
L -1.902113 -0.618034 
L -0.726543 0.236068 
L -1.175571 1.618034 
L -0 0.763932 
L 1.175571 1.618034 
L 0.726543 0.236068 
L 1.902113 -0.618034 
L 0.449028 -0.618034 
z
" style="stroke: #ffac1e; stroke-linejoin: bevel"/>
    </defs>
    <g clip-path="url(#p695f4f5f57)">
     <use xlink:href="#m5e0df5306d" x="69.218182" y="252.95477" style="fill: #ffac1e; stroke: #ffac1e; stroke-linejoin: bevel"/>
     <use xlink:href="#m5e0df5306d" x="74.376888" y="252.923701" style="fill: #ffac1e; stroke: #ffac1e; stroke-linejoin: bevel"/>
     <use xlink:href="#m5e0df5306d" x="79.535593" y="238.230393" style="fill: #ffac1e; stroke: #ffac1e; stroke-linejoin: bevel"/>
     <use xlink:href="#m5e0df5306d" x="84.694299" y="232.238121" style="fill: #ffac1e; stroke: #ffac1e; stroke-linejoin: bevel"/>
     <use xlink:href="#m5e0df5306d" x="89.853005" y="211.683499" style="fill: #ffac1e; stroke: #ffac1e; stroke-linejoin: bevel"/>
     <use xlink:href="#m5e0df5306d" x="95.01171" y="92.455557" style="fill: #ffac1e; stroke: #ffac1e; stroke-linejoin: bevel"/>
     <use xlink:href="#m5e0df5306d" x="100.170416" y="106.715486" style="fill: #ffac1e; stroke: #ffac1e; stroke-linejoin: bevel"/>
     <use xlink:href="#m5e0df5306d" x="105.329122" y="60.159478" style="fill: #ffac1e; stroke: #ffac1e; stroke-linejoin: bevel"/>
     <use xlink:href="#m5e0df5306d" x="110.487827" y="58.455219" style="fill: #ffac1e; stroke: #ffac1e; stroke-linejoin: bevel"/>
     <use xlink:href="#m5e0df5306d" x="115.646533" y="44.484364" style="fill: #ffac1e; stroke: #ffac1e; stroke-linejoin: bevel"/>
     <use xlink:href="#m5e0df5306d" x="120.805239" y="54.551455" style="fill: #ffac1e; stroke: #ffac1e; stroke-linejoin: bevel"/>
     <use xlink:href="#m5e0df5306d" x="125.963945" y="53.570882" style="fill: #ffac1e; stroke: #ffac1e; stroke-linejoin: bevel"/>
     <use xlink:href="#m5e0df5306d" x="131.12265" y="44.614409" style="fill: #ffac1e; stroke: #ffac1e; stroke-linejoin: bevel"/>
     <use xlink:href="#m5e0df5306d" x="136.281356" y="44.614409" style="fill: #ffac1e; stroke: #ffac1e; stroke-linejoin: bevel"/>
     <use xlink:href="#m5e0df5306d" x="141.440062" y="44.613482" style="fill: #ffac1e; stroke: #ffac1e; stroke-linejoin: bevel"/>
     <use xlink:href="#m5e0df5306d" x="146.598767" y="44.613482" style="fill: #ffac1e; stroke: #ffac1e; stroke-linejoin: bevel"/>
     <use xlink:href="#m5e0df5306d" x="151.757473" y="44.614409" style="fill: #ffac1e; stroke: #ffac1e; stroke-linejoin: bevel"/>
     <use xlink:href="#m5e0df5306d" x="156.916179" y="44.613482" style="fill: #ffac1e; stroke: #ffac1e; stroke-linejoin: bevel"/>
     <use xlink:href="#m5e0df5306d" x="162.074884" y="44.614409" style="fill: #ffac1e; stroke: #ffac1e; stroke-linejoin: bevel"/>
     <use xlink:href="#m5e0df5306d" x="167.23359" y="44.613482" style="fill: #ffac1e; stroke: #ffac1e; stroke-linejoin: bevel"/>
     <use xlink:href="#m5e0df5306d" x="172.392296" y="44.614409" style="fill: #ffac1e; stroke: #ffac1e; stroke-linejoin: bevel"/>
     <use xlink:href="#m5e0df5306d" x="177.551002" y="44.613482" style="fill: #ffac1e; stroke: #ffac1e; stroke-linejoin: bevel"/>
     <use xlink:href="#m5e0df5306d" x="182.709707" y="44.614409" style="fill: #ffac1e; stroke: #ffac1e; stroke-linejoin: bevel"/>
     <use xlink:href="#m5e0df5306d" x="187.868413" y="44.614409" style="fill: #ffac1e; stroke: #ffac1e; stroke-linejoin: bevel"/>
     <use xlink:href="#m5e0df5306d" x="193.027119" y="44.614409" style="fill: #ffac1e; stroke: #ffac1e; stroke-linejoin: bevel"/>
     <use xlink:href="#m5e0df5306d" x="198.185824" y="44.614409" style="fill: #ffac1e; stroke: #ffac1e; stroke-linejoin: bevel"/>
     <use xlink:href="#m5e0df5306d" x="203.34453" y="45.827143" style="fill: #ffac1e; stroke: #ffac1e; stroke-linejoin: bevel"/>
     <use xlink:href="#m5e0df5306d" x="208.503236" y="45.827143" style="fill: #ffac1e; stroke: #ffac1e; stroke-linejoin: bevel"/>
     <use xlink:href="#m5e0df5306d" x="213.661941" y="45.687987" style="fill: #ffac1e; stroke: #ffac1e; stroke-linejoin: bevel"/>
     <use xlink:href="#m5e0df5306d" x="218.820647" y="45.687987" style="fill: #ffac1e; stroke: #ffac1e; stroke-linejoin: bevel"/>
     <use xlink:href="#m5e0df5306d" x="223.979353" y="45.588028" style="fill: #ffac1e; stroke: #ffac1e; stroke-linejoin: bevel"/>
     <use xlink:href="#m5e0df5306d" x="229.138059" y="45.588028" style="fill: #ffac1e; stroke: #ffac1e; stroke-linejoin: bevel"/>
     <use xlink:href="#m5e0df5306d" x="234.296764" y="45.5871" style="fill: #ffac1e; stroke: #ffac1e; stroke-linejoin: bevel"/>
     <use xlink:href="#m5e0df5306d" x="239.45547" y="45.588028" style="fill: #ffac1e; stroke: #ffac1e; stroke-linejoin: bevel"/>
     <use xlink:href="#m5e0df5306d" x="244.614176" y="45.588028" style="fill: #ffac1e; stroke: #ffac1e; stroke-linejoin: bevel"/>
     <use xlink:href="#m5e0df5306d" x="249.772881" y="45.5871" style="fill: #ffac1e; stroke: #ffac1e; stroke-linejoin: bevel"/>
     <use xlink:href="#m5e0df5306d" x="254.931587" y="45.5871" style="fill: #ffac1e; stroke: #ffac1e; stroke-linejoin: bevel"/>
     <use xlink:href="#m5e0df5306d" x="260.090293" y="46.062787" style="fill: #ffac1e; stroke: #ffac1e; stroke-linejoin: bevel"/>
     <use xlink:href="#m5e0df5306d" x="265.248998" y="45.828072" style="fill: #ffac1e; stroke: #ffac1e; stroke-linejoin: bevel"/>
     <use xlink:href="#m5e0df5306d" x="270.407704" y="46.20458" style="fill: #ffac1e; stroke: #ffac1e; stroke-linejoin: bevel"/>
     <use xlink:href="#m5e0df5306d" x="275.56641" y="44.501181" style="fill: #ffac1e; stroke: #ffac1e; stroke-linejoin: bevel"/>
     <use xlink:href="#m5e0df5306d" x="280.725116" y="44.501181" style="fill: #ffac1e; stroke: #ffac1e; stroke-linejoin: bevel"/>
     <use xlink:href="#m5e0df5306d" x="285.883821" y="44.614409" style="fill: #ffac1e; stroke: #ffac1e; stroke-linejoin: bevel"/>
     <use xlink:href="#m5e0df5306d" x="291.042527" y="44.613482" style="fill: #ffac1e; stroke: #ffac1e; stroke-linejoin: bevel"/>
     <use xlink:href="#m5e0df5306d" x="296.201233" y="44.613482" style="fill: #ffac1e; stroke: #ffac1e; stroke-linejoin: bevel"/>
     <use xlink:href="#m5e0df5306d" x="301.359938" y="44.614409" style="fill: #ffac1e; stroke: #ffac1e; stroke-linejoin: bevel"/>
     <use xlink:href="#m5e0df5306d" x="306.518644" y="44.613482" style="fill: #ffac1e; stroke: #ffac1e; stroke-linejoin: bevel"/>
     <use xlink:href="#m5e0df5306d" x="311.67735" y="44.614409" style="fill: #ffac1e; stroke: #ffac1e; stroke-linejoin: bevel"/>
     <use xlink:href="#m5e0df5306d" x="316.836055" y="46.022101" style="fill: #ffac1e; stroke: #ffac1e; stroke-linejoin: bevel"/>
     <use xlink:href="#m5e0df5306d" x="321.994761" y="46.023127" style="fill: #ffac1e; stroke: #ffac1e; stroke-linejoin: bevel"/>
     <use xlink:href="#m5e0df5306d" x="327.153467" y="46.023127" style="fill: #ffac1e; stroke: #ffac1e; stroke-linejoin: bevel"/>
     <use xlink:href="#m5e0df5306d" x="332.312173" y="44.613482" style="fill: #ffac1e; stroke: #ffac1e; stroke-linejoin: bevel"/>
     <use xlink:href="#m5e0df5306d" x="337.470878" y="46.023127" style="fill: #ffac1e; stroke: #ffac1e; stroke-linejoin: bevel"/>
     <use xlink:href="#m5e0df5306d" x="342.629584" y="46.023127" style="fill: #ffac1e; stroke: #ffac1e; stroke-linejoin: bevel"/>
     <use xlink:href="#m5e0df5306d" x="347.78829" y="46.023127" style="fill: #ffac1e; stroke: #ffac1e; stroke-linejoin: bevel"/>
     <use xlink:href="#m5e0df5306d" x="352.946995" y="46.022101" style="fill: #ffac1e; stroke: #ffac1e; stroke-linejoin: bevel"/>
     <use xlink:href="#m5e0df5306d" x="358.105701" y="46.022101" style="fill: #ffac1e; stroke: #ffac1e; stroke-linejoin: bevel"/>
     <use xlink:href="#m5e0df5306d" x="363.264407" y="46.023127" style="fill: #ffac1e; stroke: #ffac1e; stroke-linejoin: bevel"/>
     <use xlink:href="#m5e0df5306d" x="368.423112" y="44.613482" style="fill: #ffac1e; stroke: #ffac1e; stroke-linejoin: bevel"/>
     <use xlink:href="#m5e0df5306d" x="373.581818" y="44.386736" style="fill: #ffac1e; stroke: #ffac1e; stroke-linejoin: bevel"/>
    </g>
   </g>
   <g id="line2d_33">
    <path d="M 69.218182 255.10465 
L 74.376888 252.916 
L 79.535593 252.914912 
L 84.694299 255.994527 
L 89.853005 127.793087 
L 95.01171 100.553791 
L 100.170416 97.00145 
L 105.329122 61.189207 
L 110.487827 65.123611 
L 115.646533 64.048216 
L 120.805239 65.377196 
L 125.963945 65.377196 
L 131.12265 46.153905 
L 136.281356 46.683265 
L 141.440062 46.153905 
L 146.598767 46.153905 
L 151.757473 46.153905 
L 156.916179 46.153905 
L 162.074884 46.153905 
L 167.23359 46.153905 
L 172.392296 46.153905 
L 177.551002 46.153905 
L 182.709707 43.221357 
L 187.868413 43.221357 
L 193.027119 46.092252 
L 198.185824 46.092252 
L 203.34453 46.092252 
L 208.503236 46.092252 
L 213.661941 46.713126 
L 218.820647 46.947664 
L 223.979353 46.947664 
L 229.138059 46.947664 
L 234.296764 46.947554 
L 239.45547 46.947554 
L 244.614176 46.947554 
L 249.772881 46.947554 
L 254.931587 46.947554 
L 260.090293 46.947554 
L 265.248998 46.947664 
L 270.407704 46.947664 
L 275.56641 46.947664 
L 280.725116 46.947664 
L 285.883821 46.947664 
L 291.042527 46.947664 
L 296.201233 46.947554 
L 301.359938 46.947554 
L 306.518644 46.947554 
L 311.67735 46.947664 
L 316.836055 46.947664 
L 321.994761 46.947664 
L 327.153467 46.947664 
L 332.312173 46.947664 
L 337.470878 46.947664 
L 342.629584 46.947664 
L 347.78829 46.947664 
L 352.946995 46.947664 
L 358.105701 46.947664 
L 363.264407 46.947664 
L 368.423112 46.947664 
L 373.581818 46.947664 
" clip-path="url(#p695f4f5f57)" style="fill: none; stroke: #009435; stroke-width: 1.5; stroke-linecap: square"/>
    <defs>
     <path id="m655f3f953b" d="M -2 2 
L 2 2 
L 2 -2 
L -2 -2 
z
" style="stroke: #009435; stroke-linejoin: miter"/>
    </defs>
    <g clip-path="url(#p695f4f5f57)">
     <use xlink:href="#m655f3f953b" x="69.218182" y="255.10465" style="fill: #009435; stroke: #009435; stroke-linejoin: miter"/>
     <use xlink:href="#m655f3f953b" x="74.376888" y="252.916" style="fill: #009435; stroke: #009435; stroke-linejoin: miter"/>
     <use xlink:href="#m655f3f953b" x="79.535593" y="252.914912" style="fill: #009435; stroke: #009435; stroke-linejoin: miter"/>
     <use xlink:href="#m655f3f953b" x="84.694299" y="255.994527" style="fill: #009435; stroke: #009435; stroke-linejoin: miter"/>
     <use xlink:href="#m655f3f953b" x="89.853005" y="127.793087" style="fill: #009435; stroke: #009435; stroke-linejoin: miter"/>
     <use xlink:href="#m655f3f953b" x="95.01171" y="100.553791" style="fill: #009435; stroke: #009435; stroke-linejoin: miter"/>
     <use xlink:href="#m655f3f953b" x="100.170416" y="97.00145" style="fill: #009435; stroke: #009435; stroke-linejoin: miter"/>
     <use xlink:href="#m655f3f953b" x="105.329122" y="61.189207" style="fill: #009435; stroke: #009435; stroke-linejoin: miter"/>
     <use xlink:href="#m655f3f953b" x="110.487827" y="65.123611" style="fill: #009435; stroke: #009435; stroke-linejoin: miter"/>
     <use xlink:href="#m655f3f953b" x="115.646533" y="64.048216" style="fill: #009435; stroke: #009435; stroke-linejoin: miter"/>
     <use xlink:href="#m655f3f953b" x="120.805239" y="65.377196" style="fill: #009435; stroke: #009435; stroke-linejoin: miter"/>
     <use xlink:href="#m655f3f953b" x="125.963945" y="65.377196" style="fill: #009435; stroke: #009435; stroke-linejoin: miter"/>
     <use xlink:href="#m655f3f953b" x="131.12265" y="46.153905" style="fill: #009435; stroke: #009435; stroke-linejoin: miter"/>
     <use xlink:href="#m655f3f953b" x="136.281356" y="46.683265" style="fill: #009435; stroke: #009435; stroke-linejoin: miter"/>
     <use xlink:href="#m655f3f953b" x="141.440062" y="46.153905" style="fill: #009435; stroke: #009435; stroke-linejoin: miter"/>
     <use xlink:href="#m655f3f953b" x="146.598767" y="46.153905" style="fill: #009435; stroke: #009435; stroke-linejoin: miter"/>
     <use xlink:href="#m655f3f953b" x="151.757473" y="46.153905" style="fill: #009435; stroke: #009435; stroke-linejoin: miter"/>
     <use xlink:href="#m655f3f953b" x="156.916179" y="46.153905" style="fill: #009435; stroke: #009435; stroke-linejoin: miter"/>
     <use xlink:href="#m655f3f953b" x="162.074884" y="46.153905" style="fill: #009435; stroke: #009435; stroke-linejoin: miter"/>
     <use xlink:href="#m655f3f953b" x="167.23359" y="46.153905" style="fill: #009435; stroke: #009435; stroke-linejoin: miter"/>
     <use xlink:href="#m655f3f953b" x="172.392296" y="46.153905" style="fill: #009435; stroke: #009435; stroke-linejoin: miter"/>
     <use xlink:href="#m655f3f953b" x="177.551002" y="46.153905" style="fill: #009435; stroke: #009435; stroke-linejoin: miter"/>
     <use xlink:href="#m655f3f953b" x="182.709707" y="43.221357" style="fill: #009435; stroke: #009435; stroke-linejoin: miter"/>
     <use xlink:href="#m655f3f953b" x="187.868413" y="43.221357" style="fill: #009435; stroke: #009435; stroke-linejoin: miter"/>
     <use xlink:href="#m655f3f953b" x="193.027119" y="46.092252" style="fill: #009435; stroke: #009435; stroke-linejoin: miter"/>
     <use xlink:href="#m655f3f953b" x="198.185824" y="46.092252" style="fill: #009435; stroke: #009435; stroke-linejoin: miter"/>
     <use xlink:href="#m655f3f953b" x="203.34453" y="46.092252" style="fill: #009435; stroke: #009435; stroke-linejoin: miter"/>
     <use xlink:href="#m655f3f953b" x="208.503236" y="46.092252" style="fill: #009435; stroke: #009435; stroke-linejoin: miter"/>
     <use xlink:href="#m655f3f953b" x="213.661941" y="46.713126" style="fill: #009435; stroke: #009435; stroke-linejoin: miter"/>
     <use xlink:href="#m655f3f953b" x="218.820647" y="46.947664" style="fill: #009435; stroke: #009435; stroke-linejoin: miter"/>
     <use xlink:href="#m655f3f953b" x="223.979353" y="46.947664" style="fill: #009435; stroke: #009435; stroke-linejoin: miter"/>
     <use xlink:href="#m655f3f953b" x="229.138059" y="46.947664" style="fill: #009435; stroke: #009435; stroke-linejoin: miter"/>
     <use xlink:href="#m655f3f953b" x="234.296764" y="46.947554" style="fill: #009435; stroke: #009435; stroke-linejoin: miter"/>
     <use xlink:href="#m655f3f953b" x="239.45547" y="46.947554" style="fill: #009435; stroke: #009435; stroke-linejoin: miter"/>
     <use xlink:href="#m655f3f953b" x="244.614176" y="46.947554" style="fill: #009435; stroke: #009435; stroke-linejoin: miter"/>
     <use xlink:href="#m655f3f953b" x="249.772881" y="46.947554" style="fill: #009435; stroke: #009435; stroke-linejoin: miter"/>
     <use xlink:href="#m655f3f953b" x="254.931587" y="46.947554" style="fill: #009435; stroke: #009435; stroke-linejoin: miter"/>
     <use xlink:href="#m655f3f953b" x="260.090293" y="46.947554" style="fill: #009435; stroke: #009435; stroke-linejoin: miter"/>
     <use xlink:href="#m655f3f953b" x="265.248998" y="46.947664" style="fill: #009435; stroke: #009435; stroke-linejoin: miter"/>
     <use xlink:href="#m655f3f953b" x="270.407704" y="46.947664" style="fill: #009435; stroke: #009435; stroke-linejoin: miter"/>
     <use xlink:href="#m655f3f953b" x="275.56641" y="46.947664" style="fill: #009435; stroke: #009435; stroke-linejoin: miter"/>
     <use xlink:href="#m655f3f953b" x="280.725116" y="46.947664" style="fill: #009435; stroke: #009435; stroke-linejoin: miter"/>
     <use xlink:href="#m655f3f953b" x="285.883821" y="46.947664" style="fill: #009435; stroke: #009435; stroke-linejoin: miter"/>
     <use xlink:href="#m655f3f953b" x="291.042527" y="46.947664" style="fill: #009435; stroke: #009435; stroke-linejoin: miter"/>
     <use xlink:href="#m655f3f953b" x="296.201233" y="46.947554" style="fill: #009435; stroke: #009435; stroke-linejoin: miter"/>
     <use xlink:href="#m655f3f953b" x="301.359938" y="46.947554" style="fill: #009435; stroke: #009435; stroke-linejoin: miter"/>
     <use xlink:href="#m655f3f953b" x="306.518644" y="46.947554" style="fill: #009435; stroke: #009435; stroke-linejoin: miter"/>
     <use xlink:href="#m655f3f953b" x="311.67735" y="46.947664" style="fill: #009435; stroke: #009435; stroke-linejoin: miter"/>
     <use xlink:href="#m655f3f953b" x="316.836055" y="46.947664" style="fill: #009435; stroke: #009435; stroke-linejoin: miter"/>
     <use xlink:href="#m655f3f953b" x="321.994761" y="46.947664" style="fill: #009435; stroke: #009435; stroke-linejoin: miter"/>
     <use xlink:href="#m655f3f953b" x="327.153467" y="46.947664" style="fill: #009435; stroke: #009435; stroke-linejoin: miter"/>
     <use xlink:href="#m655f3f953b" x="332.312173" y="46.947664" style="fill: #009435; stroke: #009435; stroke-linejoin: miter"/>
     <use xlink:href="#m655f3f953b" x="337.470878" y="46.947664" style="fill: #009435; stroke: #009435; stroke-linejoin: miter"/>
     <use xlink:href="#m655f3f953b" x="342.629584" y="46.947664" style="fill: #009435; stroke: #009435; stroke-linejoin: miter"/>
     <use xlink:href="#m655f3f953b" x="347.78829" y="46.947664" style="fill: #009435; stroke: #009435; stroke-linejoin: miter"/>
     <use xlink:href="#m655f3f953b" x="352.946995" y="46.947664" style="fill: #009435; stroke: #009435; stroke-linejoin: miter"/>
     <use xlink:href="#m655f3f953b" x="358.105701" y="46.947664" style="fill: #009435; stroke: #009435; stroke-linejoin: miter"/>
     <use xlink:href="#m655f3f953b" x="363.264407" y="46.947664" style="fill: #009435; stroke: #009435; stroke-linejoin: miter"/>
     <use xlink:href="#m655f3f953b" x="368.423112" y="46.947664" style="fill: #009435; stroke: #009435; stroke-linejoin: miter"/>
     <use xlink:href="#m655f3f953b" x="373.581818" y="46.947664" style="fill: #009435; stroke: #009435; stroke-linejoin: miter"/>
    </g>
   </g>
   <g id="patch_3">
    <path d="M 54 252 
L 54 34.56 
" style="fill: none; stroke: #000000; stroke-width: 0.8; stroke-linejoin: miter; stroke-linecap: square"/>
   </g>
   <g id="patch_4">
    <path d="M 388.8 252 
L 388.8 34.56 
" style="fill: none; stroke: #000000; stroke-width: 0.8; stroke-linejoin: miter; stroke-linecap: square"/>
   </g>
   <g id="patch_5">
    <path d="M 54 252 
L 388.8 252 
" style="fill: none; stroke: #000000; stroke-width: 0.8; stroke-linejoin: miter; stroke-linecap: square"/>
   </g>
   <g id="patch_6">
    <path d="M 54 34.56 
L 388.8 34.56 
" style="fill: none; stroke: #000000; stroke-width: 0.8; stroke-linejoin: miter; stroke-linecap: square"/>
   </g>
   <g id="text_17">
    <!-- R-max optimal policy with m = 2 -->
    <g transform="translate(123.0225 28.56)scale(0.12 -0.12)">
     <defs>
      <path id="DejaVuSans-52" d="M 2841 2188 
Q 3044 2119 3236 1894 
Q 3428 1669 3622 1275 
L 4263 0 
L 3584 0 
L 2988 1197 
Q 2756 1666 2539 1819 
Q 2322 1972 1947 1972 
L 1259 1972 
L 1259 0 
L 628 0 
L 628 4666 
L 2053 4666 
Q 2853 4666 3247 4331 
Q 3641 3997 3641 3322 
Q 3641 2881 3436 2590 
Q 3231 2300 2841 2188 
z
M 1259 4147 
L 1259 2491 
L 2053 2491 
Q 2509 2491 2742 2702 
Q 2975 2913 2975 3322 
Q 2975 3731 2742 3939 
Q 2509 4147 2053 4147 
L 1259 4147 
z
" transform="scale(0.015625)"/>
      <path id="DejaVuSans-2d" d="M 313 2009 
L 1997 2009 
L 1997 1497 
L 313 1497 
L 313 2009 
z
" transform="scale(0.015625)"/>
      <path id="DejaVuSans-6d" d="M 3328 2828 
Q 3544 3216 3844 3400 
Q 4144 3584 4550 3584 
Q 5097 3584 5394 3201 
Q 5691 2819 5691 2113 
L 5691 0 
L 5113 0 
L 5113 2094 
Q 5113 2597 4934 2840 
Q 4756 3084 4391 3084 
Q 3944 3084 3684 2787 
Q 3425 2491 3425 1978 
L 3425 0 
L 2847 0 
L 2847 2094 
Q 2847 2600 2669 2842 
Q 2491 3084 2119 3084 
Q 1678 3084 1418 2786 
Q 1159 2488 1159 1978 
L 1159 0 
L 581 0 
L 581 3500 
L 1159 3500 
L 1159 2956 
Q 1356 3278 1631 3431 
Q 1906 3584 2284 3584 
Q 2666 3584 2933 3390 
Q 3200 3197 3328 2828 
z
" transform="scale(0.015625)"/>
      <path id="DejaVuSans-78" d="M 3513 3500 
L 2247 1797 
L 3578 0 
L 2900 0 
L 1881 1375 
L 863 0 
L 184 0 
L 1544 1831 
L 300 3500 
L 978 3500 
L 1906 2253 
L 2834 3500 
L 3513 3500 
z
" transform="scale(0.015625)"/>
      <path id="DejaVuSans-77" d="M 269 3500 
L 844 3500 
L 1563 769 
L 2278 3500 
L 2956 3500 
L 3675 769 
L 4391 3500 
L 4966 3500 
L 4050 0 
L 3372 0 
L 2619 2869 
L 1863 0 
L 1184 0 
L 269 3500 
z
" transform="scale(0.015625)"/>
      <path id="DejaVuSans-68" d="M 3513 2113 
L 3513 0 
L 2938 0 
L 2938 2094 
Q 2938 2591 2744 2837 
Q 2550 3084 2163 3084 
Q 1697 3084 1428 2787 
Q 1159 2491 1159 1978 
L 1159 0 
L 581 0 
L 581 4863 
L 1159 4863 
L 1159 2956 
Q 1366 3272 1645 3428 
Q 1925 3584 2291 3584 
Q 2894 3584 3203 3211 
Q 3513 2838 3513 2113 
z
" transform="scale(0.015625)"/>
      <path id="DejaVuSans-3d" d="M 678 2906 
L 4684 2906 
L 4684 2381 
L 678 2381 
L 678 2906 
z
M 678 1631 
L 4684 1631 
L 4684 1100 
L 678 1100 
L 678 1631 
z
" transform="scale(0.015625)"/>
     </defs>
     <use xlink:href="#DejaVuSans-52"/>
     <use xlink:href="#DejaVuSans-2d" x="65.482422"/>
     <use xlink:href="#DejaVuSans-6d" x="101.566406"/>
     <use xlink:href="#DejaVuSans-61" x="198.978516"/>
     <use xlink:href="#DejaVuSans-78" x="260.257812"/>
     <use xlink:href="#DejaVuSans-20" x="319.4375"/>
     <use xlink:href="#DejaVuSans-6f" x="351.224609"/>
     <use xlink:href="#DejaVuSans-70" x="412.40625"/>
     <use xlink:href="#DejaVuSans-74" x="475.882812"/>
     <use xlink:href="#DejaVuSans-69" x="515.091797"/>
     <use xlink:href="#DejaVuSans-6d" x="542.875"/>
     <use xlink:href="#DejaVuSans-61" x="640.287109"/>
     <use xlink:href="#DejaVuSans-6c" x="701.566406"/>
     <use xlink:href="#DejaVuSans-20" x="729.349609"/>
     <use xlink:href="#DejaVuSans-70" x="761.136719"/>
     <use xlink:href="#DejaVuSans-6f" x="824.613281"/>
     <use xlink:href="#DejaVuSans-6c" x="885.794922"/>
     <use xlink:href="#DejaVuSans-69" x="913.578125"/>
     <use xlink:href="#DejaVuSans-63" x="941.361328"/>
     <use xlink:href="#DejaVuSans-79" x="996.341797"/>
     <use xlink:href="#DejaVuSans-20" x="1055.521484"/>
     <use xlink:href="#DejaVuSans-77" x="1087.308594"/>
     <use xlink:href="#DejaVuSans-69" x="1169.095703"/>
     <use xlink:href="#DejaVuSans-74" x="1196.878906"/>
     <use xlink:href="#DejaVuSans-68" x="1236.087891"/>
     <use xlink:href="#DejaVuSans-20" x="1299.466797"/>
     <use xlink:href="#DejaVuSans-6d" x="1331.253906"/>
     <use xlink:href="#DejaVuSans-20" x="1428.666016"/>
     <use xlink:href="#DejaVuSans-3d" x="1460.453125"/>
     <use xlink:href="#DejaVuSans-20" x="1544.242188"/>
     <use xlink:href="#DejaVuSans-32" x="1576.029297"/>
    </g>
   </g>
   <g id="legend_1">
    <g id="patch_7">
     <path d="M 230.8125 247 
L 381.8 247 
Q 383.8 247 383.8 245 
L 383.8 171.21875 
Q 383.8 169.21875 381.8 169.21875 
L 230.8125 169.21875 
Q 228.8125 169.21875 228.8125 171.21875 
L 228.8125 245 
Q 228.8125 247 230.8125 247 
z
" style="fill: #ffffff; opacity: 0.8; stroke: #cccccc; stroke-linejoin: miter"/>
    </g>
    <g id="line2d_34">
     <path d="M 232.8125 177.317187 
L 242.8125 177.317187 
L 252.8125 177.317187 
" style="fill: none; stroke: #9d02d7; stroke-width: 1.5; stroke-linecap: square"/>
     <g>
      <use xlink:href="#m148266c94d" x="242.8125" y="177.317187" style="fill: #9d02d7; stroke: #9d02d7; stroke-linejoin: miter"/>
     </g>
    </g>
    <g id="text_18">
     <!-- m_uncertain_states=12 -->
     <g transform="translate(260.8125 180.817187)scale(0.1 -0.1)">
      <defs>
       <path id="DejaVuSans-5f" d="M 3263 -1063 
L 3263 -1509 
L -63 -1509 
L -63 -1063 
L 3263 -1063 
z
" transform="scale(0.015625)"/>
       <path id="DejaVuSans-6e" d="M 3513 2113 
L 3513 0 
L 2938 0 
L 2938 2094 
Q 2938 2591 2744 2837 
Q 2550 3084 2163 3084 
Q 1697 3084 1428 2787 
Q 1159 2491 1159 1978 
L 1159 0 
L 581 0 
L 581 3500 
L 1159 3500 
L 1159 2956 
Q 1366 3272 1645 3428 
Q 1925 3584 2291 3584 
Q 2894 3584 3203 3211 
Q 3513 2838 3513 2113 
z
" transform="scale(0.015625)"/>
      </defs>
      <use xlink:href="#DejaVuSans-6d"/>
      <use xlink:href="#DejaVuSans-5f" x="97.412109"/>
      <use xlink:href="#DejaVuSans-75" x="147.412109"/>
      <use xlink:href="#DejaVuSans-6e" x="210.791016"/>
      <use xlink:href="#DejaVuSans-63" x="274.169922"/>
      <use xlink:href="#DejaVuSans-65" x="329.150391"/>
      <use xlink:href="#DejaVuSans-72" x="390.673828"/>
      <use xlink:href="#DejaVuSans-74" x="431.787109"/>
      <use xlink:href="#DejaVuSans-61" x="470.996094"/>
      <use xlink:href="#DejaVuSans-69" x="532.275391"/>
      <use xlink:href="#DejaVuSans-6e" x="560.058594"/>
      <use xlink:href="#DejaVuSans-5f" x="623.4375"/>
      <use xlink:href="#DejaVuSans-73" x="673.4375"/>
      <use xlink:href="#DejaVuSans-74" x="725.537109"/>
      <use xlink:href="#DejaVuSans-61" x="764.746094"/>
      <use xlink:href="#DejaVuSans-74" x="826.025391"/>
      <use xlink:href="#DejaVuSans-65" x="865.234375"/>
      <use xlink:href="#DejaVuSans-73" x="926.757812"/>
      <use xlink:href="#DejaVuSans-3d" x="978.857422"/>
      <use xlink:href="#DejaVuSans-31" x="1062.646484"/>
      <use xlink:href="#DejaVuSans-32" x="1126.269531"/>
     </g>
    </g>
    <g id="line2d_35">
     <path d="M 232.8125 192.273438 
L 242.8125 192.273438 
L 252.8125 192.273438 
" style="fill: none; stroke: #0000ff; stroke-width: 1.5; stroke-linecap: square"/>
     <g>
      <use xlink:href="#mfd0175f230" x="242.8125" y="192.273438" style="fill: #0000ff; stroke: #0000ff"/>
     </g>
    </g>
    <g id="text_19">
     <!-- m_uncertain_states=14 -->
     <g transform="translate(260.8125 195.773438)scale(0.1 -0.1)">
      <use xlink:href="#DejaVuSans-6d"/>
      <use xlink:href="#DejaVuSans-5f" x="97.412109"/>
      <use xlink:href="#DejaVuSans-75" x="147.412109"/>
      <use xlink:href="#DejaVuSans-6e" x="210.791016"/>
      <use xlink:href="#DejaVuSans-63" x="274.169922"/>
      <use xlink:href="#DejaVuSans-65" x="329.150391"/>
      <use xlink:href="#DejaVuSans-72" x="390.673828"/>
      <use xlink:href="#DejaVuSans-74" x="431.787109"/>
      <use xlink:href="#DejaVuSans-61" x="470.996094"/>
      <use xlink:href="#DejaVuSans-69" x="532.275391"/>
      <use xlink:href="#DejaVuSans-6e" x="560.058594"/>
      <use xlink:href="#DejaVuSans-5f" x="623.4375"/>
      <use xlink:href="#DejaVuSans-73" x="673.4375"/>
      <use xlink:href="#DejaVuSans-74" x="725.537109"/>
      <use xlink:href="#DejaVuSans-61" x="764.746094"/>
      <use xlink:href="#DejaVuSans-74" x="826.025391"/>
      <use xlink:href="#DejaVuSans-65" x="865.234375"/>
      <use xlink:href="#DejaVuSans-73" x="926.757812"/>
      <use xlink:href="#DejaVuSans-3d" x="978.857422"/>
      <use xlink:href="#DejaVuSans-31" x="1062.646484"/>
      <use xlink:href="#DejaVuSans-34" x="1126.269531"/>
     </g>
    </g>
    <g id="line2d_36">
     <path d="M 232.8125 207.229688 
L 242.8125 207.229688 
L 252.8125 207.229688 
" style="fill: none; stroke: #ff7763; stroke-width: 1.5; stroke-linecap: square"/>
     <g>
      <use xlink:href="#m62d35db577" x="242.8125" y="207.229688" style="fill: #ff7763; stroke: #ff7763"/>
     </g>
    </g>
    <g id="text_20">
     <!-- m_uncertain_states=16 -->
     <g transform="translate(260.8125 210.729688)scale(0.1 -0.1)">
      <use xlink:href="#DejaVuSans-6d"/>
      <use xlink:href="#DejaVuSans-5f" x="97.412109"/>
      <use xlink:href="#DejaVuSans-75" x="147.412109"/>
      <use xlink:href="#DejaVuSans-6e" x="210.791016"/>
      <use xlink:href="#DejaVuSans-63" x="274.169922"/>
      <use xlink:href="#DejaVuSans-65" x="329.150391"/>
      <use xlink:href="#DejaVuSans-72" x="390.673828"/>
      <use xlink:href="#DejaVuSans-74" x="431.787109"/>
      <use xlink:href="#DejaVuSans-61" x="470.996094"/>
      <use xlink:href="#DejaVuSans-69" x="532.275391"/>
      <use xlink:href="#DejaVuSans-6e" x="560.058594"/>
      <use xlink:href="#DejaVuSans-5f" x="623.4375"/>
      <use xlink:href="#DejaVuSans-73" x="673.4375"/>
      <use xlink:href="#DejaVuSans-74" x="725.537109"/>
      <use xlink:href="#DejaVuSans-61" x="764.746094"/>
      <use xlink:href="#DejaVuSans-74" x="826.025391"/>
      <use xlink:href="#DejaVuSans-65" x="865.234375"/>
      <use xlink:href="#DejaVuSans-73" x="926.757812"/>
      <use xlink:href="#DejaVuSans-3d" x="978.857422"/>
      <use xlink:href="#DejaVuSans-31" x="1062.646484"/>
      <use xlink:href="#DejaVuSans-36" x="1126.269531"/>
     </g>
    </g>
    <g id="line2d_37">
     <path d="M 232.8125 222.185938 
L 242.8125 222.185938 
L 252.8125 222.185938 
" style="fill: none; stroke: #ffac1e; stroke-width: 1.5; stroke-linecap: square"/>
     <g>
      <use xlink:href="#m5e0df5306d" x="242.8125" y="222.185938" style="fill: #ffac1e; stroke: #ffac1e; stroke-linejoin: bevel"/>
     </g>
    </g>
    <g id="text_21">
     <!-- m_uncertain_states=18 -->
     <g transform="translate(260.8125 225.685938)scale(0.1 -0.1)">
      <use xlink:href="#DejaVuSans-6d"/>
      <use xlink:href="#DejaVuSans-5f" x="97.412109"/>
      <use xlink:href="#DejaVuSans-75" x="147.412109"/>
      <use xlink:href="#DejaVuSans-6e" x="210.791016"/>
      <use xlink:href="#DejaVuSans-63" x="274.169922"/>
      <use xlink:href="#DejaVuSans-65" x="329.150391"/>
      <use xlink:href="#DejaVuSans-72" x="390.673828"/>
      <use xlink:href="#DejaVuSans-74" x="431.787109"/>
      <use xlink:href="#DejaVuSans-61" x="470.996094"/>
      <use xlink:href="#DejaVuSans-69" x="532.275391"/>
      <use xlink:href="#DejaVuSans-6e" x="560.058594"/>
      <use xlink:href="#DejaVuSans-5f" x="623.4375"/>
      <use xlink:href="#DejaVuSans-73" x="673.4375"/>
      <use xlink:href="#DejaVuSans-74" x="725.537109"/>
      <use xlink:href="#DejaVuSans-61" x="764.746094"/>
      <use xlink:href="#DejaVuSans-74" x="826.025391"/>
      <use xlink:href="#DejaVuSans-65" x="865.234375"/>
      <use xlink:href="#DejaVuSans-73" x="926.757812"/>
      <use xlink:href="#DejaVuSans-3d" x="978.857422"/>
      <use xlink:href="#DejaVuSans-31" x="1062.646484"/>
      <use xlink:href="#DejaVuSans-38" x="1126.269531"/>
     </g>
    </g>
    <g id="line2d_38">
     <path d="M 232.8125 237.142188 
L 242.8125 237.142188 
L 252.8125 237.142188 
" style="fill: none; stroke: #009435; stroke-width: 1.5; stroke-linecap: square"/>
     <g>
      <use xlink:href="#m655f3f953b" x="242.8125" y="237.142188" style="fill: #009435; stroke: #009435; stroke-linejoin: miter"/>
     </g>
    </g>
    <g id="text_22">
     <!-- m_uncertain_states=20 -->
     <g transform="translate(260.8125 240.642188)scale(0.1 -0.1)">
      <use xlink:href="#DejaVuSans-6d"/>
      <use xlink:href="#DejaVuSans-5f" x="97.412109"/>
      <use xlink:href="#DejaVuSans-75" x="147.412109"/>
      <use xlink:href="#DejaVuSans-6e" x="210.791016"/>
      <use xlink:href="#DejaVuSans-63" x="274.169922"/>
      <use xlink:href="#DejaVuSans-65" x="329.150391"/>
      <use xlink:href="#DejaVuSans-72" x="390.673828"/>
      <use xlink:href="#DejaVuSans-74" x="431.787109"/>
      <use xlink:href="#DejaVuSans-61" x="470.996094"/>
      <use xlink:href="#DejaVuSans-69" x="532.275391"/>
      <use xlink:href="#DejaVuSans-6e" x="560.058594"/>
      <use xlink:href="#DejaVuSans-5f" x="623.4375"/>
      <use xlink:href="#DejaVuSans-73" x="673.4375"/>
      <use xlink:href="#DejaVuSans-74" x="725.537109"/>
      <use xlink:href="#DejaVuSans-61" x="764.746094"/>
      <use xlink:href="#DejaVuSans-74" x="826.025391"/>
      <use xlink:href="#DejaVuSans-65" x="865.234375"/>
      <use xlink:href="#DejaVuSans-73" x="926.757812"/>
      <use xlink:href="#DejaVuSans-3d" x="978.857422"/>
      <use xlink:href="#DejaVuSans-32" x="1062.646484"/>
      <use xlink:href="#DejaVuSans-30" x="1126.269531"/>
     </g>
    </g>
   </g>
  </g>
 </g>
 <defs>
  <clipPath id="p695f4f5f57">
   <rect x="54" y="34.56" width="334.8" height="217.44"/>
  </clipPath>
 </defs>
</svg>
