<?xml version="1.0" encoding="utf-8" standalone="no"?>
<!DOCTYPE svg PUBLIC "-//W3C//DTD SVG 1.1//EN"
  "http://www.w3.org/Graphics/SVG/1.1/DTD/svg11.dtd">
<svg xmlns:xlink="http://www.w3.org/1999/xlink" width="432pt" height="288pt" viewBox="0 0 432 288" xmlns="http://www.w3.org/2000/svg" version="1.1">
 <metadata>
  <rdf:RDF xmlns:dc="http://purl.org/dc/elements/1.1/" xmlns:cc="http://creativecommons.org/ns#" xmlns:rdf="http://www.w3.org/1999/02/22-rdf-syntax-ns#">
   <cc:Work>
    <dc:type rdf:resource="http://purl.org/dc/dcmitype/StillImage"/>
    <dc:date>2023-01-11T15:36:07.753865</dc:date>
    <dc:format>image/svg+xml</dc:format>
    <dc:creator>
     <cc:Agent>
      <dc:title>Matplotlib v3.5.2, https://matplotlib.org/</dc:title>
     </cc:Agent>
    </dc:creator>
   </cc:Work>
  </rdf:RDF>
 </metadata>
 <defs>
  <style type="text/css">*{stroke-linejoin: round; stroke-linecap: butt}</style>
 </defs>
 <g id="figure_1">
  <g id="patch_1">
   <path d="M 0 288 
L 432 288 
L 432 0 
L 0 0 
z
" style="fill: #ffffff"/>
  </g>
  <g id="axes_1">
   <g id="patch_2">
    <path d="M 54 252 
L 388.8 252 
L 388.8 34.56 
L 54 34.56 
z
" style="fill: #ffffff"/>
   </g>
   <g id="PolyCollection_1">
    <defs>
     <path id="mb5c4be017d" d="M 69.218182 -32.037674 
L 69.218182 -32.037674 
L 74.376888 -37.996389 
L 79.535593 -62.797821 
L 84.694299 -56.426833 
L 89.853005 -131.964513 
L 95.01171 -127.290154 
L 100.170416 -214.884321 
L 105.329122 -213.696236 
L 110.487827 -213.614358 
L 115.646533 -221.227388 
L 120.805239 -231.287326 
L 125.963945 -221.227668 
L 131.12265 -221.470338 
L 136.281356 -221.6984 
L 141.440062 -241.165378 
L 146.598767 -240.10113 
L 151.757473 -241.168368 
L 156.916179 -241.168368 
L 162.074884 -241.168368 
L 167.23359 -241.168368 
L 172.392296 -241.168368 
L 177.551002 -241.335252 
L 182.709707 -241.335252 
L 187.868413 -241.335252 
L 193.027119 -241.335252 
L 198.185824 -241.335252 
L 203.34453 -241.335252 
L 208.503236 -241.335252 
L 213.661941 -241.335252 
L 218.820647 -241.335252 
L 223.979353 -241.335252 
L 229.138059 -241.335252 
L 234.296764 -241.335252 
L 239.45547 -244.330747 
L 244.614176 -243.822352 
L 249.772881 -243.822352 
L 254.931587 -243.822352 
L 260.090293 -243.822352 
L 265.248998 -243.822352 
L 270.407704 -243.822352 
L 275.56641 -243.822352 
L 280.725116 -243.822352 
L 285.883821 -243.822352 
L 291.042527 -243.822352 
L 296.201233 -243.822352 
L 301.359938 -243.822352 
L 306.518644 -243.822352 
L 311.67735 -244.550719 
L 316.836055 -244.550719 
L 321.994761 -244.550719 
L 327.153467 -244.550719 
L 332.312173 -244.550719 
L 337.470878 -244.550719 
L 342.629584 -244.550719 
L 347.78829 -244.550719 
L 352.946995 -244.550719 
L 358.105701 -244.550719 
L 363.264407 -244.550719 
L 368.423112 -244.550719 
L 373.581818 -244.550719 
L 373.581818 -244.550719 
L 373.581818 -244.550719 
L 368.423112 -244.550719 
L 363.264407 -244.550719 
L 358.105701 -244.550719 
L 352.946995 -244.550719 
L 347.78829 -244.550719 
L 342.629584 -244.550719 
L 337.470878 -244.550719 
L 332.312173 -244.550719 
L 327.153467 -244.550719 
L 321.994761 -244.550719 
L 316.836055 -244.550719 
L 311.67735 -244.550719 
L 306.518644 -243.822352 
L 301.359938 -243.822352 
L 296.201233 -243.822352 
L 291.042527 -243.822352 
L 285.883821 -243.822352 
L 280.725116 -243.822352 
L 275.56641 -243.822352 
L 270.407704 -243.822352 
L 265.248998 -243.822352 
L 260.090293 -243.822352 
L 254.931587 -243.822352 
L 249.772881 -243.822352 
L 244.614176 -243.822352 
L 239.45547 -244.330747 
L 234.296764 -241.335252 
L 229.138059 -241.335252 
L 223.979353 -241.335252 
L 218.820647 -241.335252 
L 213.661941 -241.335252 
L 208.503236 -241.335252 
L 203.34453 -241.335252 
L 198.185824 -241.335252 
L 193.027119 -241.335252 
L 187.868413 -241.335252 
L 182.709707 -241.335252 
L 177.551002 -241.335252 
L 172.392296 -241.168368 
L 167.23359 -241.168368 
L 162.074884 -241.168368 
L 156.916179 -241.168368 
L 151.757473 -241.168368 
L 146.598767 -240.10113 
L 141.440062 -241.165378 
L 136.281356 -221.6984 
L 131.12265 -221.470338 
L 125.963945 -221.227668 
L 120.805239 -231.287326 
L 115.646533 -221.227388 
L 110.487827 -213.614358 
L 105.329122 -213.696236 
L 100.170416 -214.884321 
L 95.01171 -127.290154 
L 89.853005 -131.964513 
L 84.694299 -56.426833 
L 79.535593 -62.797821 
L 74.376888 -37.996389 
L 69.218182 -32.037674 
z
" style="stroke: #9d02d7; stroke-opacity: 0.2"/>
    </defs>
    <g clip-path="url(#p80f5979dde)">
     <use xlink:href="#mb5c4be017d" x="0" y="288" style="fill: #9d02d7; fill-opacity: 0.2; stroke: #9d02d7; stroke-opacity: 0.2"/>
    </g>
   </g>
   <g id="PolyCollection_2">
    <defs>
     <path id="mc07bf79e3a" d="M 69.218182 -35.250769 
L 69.218182 -35.250769 
L 74.376888 -35.091182 
L 79.535593 -37.237597 
L 84.694299 -37.34625 
L 89.853005 -34.956184 
L 95.01171 -36.870207 
L 100.170416 -83.252925 
L 105.329122 -113.949427 
L 110.487827 -110.50281 
L 115.646533 -117.818972 
L 120.805239 -111.333286 
L 125.963945 -121.528639 
L 131.12265 -113.909905 
L 136.281356 -210.516671 
L 141.440062 -210.516576 
L 146.598767 -210.919428 
L 151.757473 -238.258324 
L 156.916179 -236.376046 
L 162.074884 -236.555644 
L 167.23359 -236.375947 
L 172.392296 -236.375947 
L 177.551002 -236.375947 
L 182.709707 -236.375947 
L 187.868413 -239.233013 
L 193.027119 -239.233013 
L 198.185824 -239.232931 
L 203.34453 -239.233013 
L 208.503236 -236.555547 
L 213.661941 -240.488063 
L 218.820647 -240.488063 
L 223.979353 -241.208686 
L 229.138059 -241.208686 
L 234.296764 -237.933801 
L 239.45547 -237.933801 
L 244.614176 -240.900064 
L 249.772881 -240.900782 
L 254.931587 -240.900782 
L 260.090293 -240.900782 
L 265.248998 -240.900064 
L 270.407704 -240.900782 
L 275.56641 -241.128179 
L 280.725116 -241.128179 
L 285.883821 -240.966144 
L 291.042527 -240.966555 
L 296.201233 -240.966555 
L 301.359938 -240.884097 
L 306.518644 -240.966555 
L 311.67735 -240.884358 
L 316.836055 -240.966555 
L 321.994761 -240.966555 
L 327.153467 -241.127046 
L 332.312173 -240.900064 
L 337.470878 -241.127046 
L 342.629584 -241.127046 
L 347.78829 -241.127046 
L 352.946995 -240.966144 
L 358.105701 -240.966144 
L 363.264407 -240.966144 
L 368.423112 -240.966144 
L 373.581818 -240.966144 
L 373.581818 -240.966144 
L 373.581818 -240.966144 
L 368.423112 -240.966144 
L 363.264407 -240.966144 
L 358.105701 -240.966144 
L 352.946995 -240.966144 
L 347.78829 -241.127046 
L 342.629584 -241.127046 
L 337.470878 -241.127046 
L 332.312173 -240.900064 
L 327.153467 -241.127046 
L 321.994761 -240.966555 
L 316.836055 -240.966555 
L 311.67735 -240.884358 
L 306.518644 -240.966555 
L 301.359938 -240.884097 
L 296.201233 -240.966555 
L 291.042527 -240.966555 
L 285.883821 -240.966144 
L 280.725116 -241.128179 
L 275.56641 -241.128179 
L 270.407704 -240.900782 
L 265.248998 -240.900064 
L 260.090293 -240.900782 
L 254.931587 -240.900782 
L 249.772881 -240.900782 
L 244.614176 -240.900064 
L 239.45547 -237.933801 
L 234.296764 -237.933801 
L 229.138059 -241.208686 
L 223.979353 -241.208686 
L 218.820647 -240.488063 
L 213.661941 -240.488063 
L 208.503236 -236.555547 
L 203.34453 -239.233013 
L 198.185824 -239.232931 
L 193.027119 -239.233013 
L 187.868413 -239.233013 
L 182.709707 -236.375947 
L 177.551002 -236.375947 
L 172.392296 -236.375947 
L 167.23359 -236.375947 
L 162.074884 -236.555644 
L 156.916179 -236.376046 
L 151.757473 -238.258324 
L 146.598767 -210.919428 
L 141.440062 -210.516576 
L 136.281356 -210.516671 
L 131.12265 -113.909905 
L 125.963945 -121.528639 
L 120.805239 -111.333286 
L 115.646533 -117.818972 
L 110.487827 -110.50281 
L 105.329122 -113.949427 
L 100.170416 -83.252925 
L 95.01171 -36.870207 
L 89.853005 -34.956184 
L 84.694299 -37.34625 
L 79.535593 -37.237597 
L 74.376888 -35.091182 
L 69.218182 -35.250769 
z
" style="stroke: #0000ff; stroke-opacity: 0.2"/>
    </defs>
    <g clip-path="url(#p80f5979dde)">
     <use xlink:href="#mc07bf79e3a" x="0" y="288" style="fill: #0000ff; fill-opacity: 0.2; stroke: #0000ff; stroke-opacity: 0.2"/>
    </g>
   </g>
   <g id="PolyCollection_3">
    <defs>
     <path id="m08cba74dac" d="M 69.218182 -34.421178 
L 69.218182 -34.421178 
L 74.376888 -33.056179 
L 79.535593 -37.175617 
L 84.694299 -35.054503 
L 89.853005 -35.01707 
L 95.01171 -35.020766 
L 100.170416 -35.091182 
L 105.329122 -112.45038 
L 110.487827 -121.007142 
L 115.646533 -125.325244 
L 120.805239 -125.221178 
L 125.963945 -231.004167 
L 131.12265 -238.18441 
L 136.281356 -238.18441 
L 141.440062 -238.189306 
L 146.598767 -238.189346 
L 151.757473 -231.482942 
L 156.916179 -238.469687 
L 162.074884 -238.469561 
L 167.23359 -238.46966 
L 172.392296 -238.469561 
L 177.551002 -238.469561 
L 182.709707 -238.469687 
L 187.868413 -238.469561 
L 193.027119 -238.469687 
L 198.185824 -238.469618 
L 203.34453 -238.469618 
L 208.503236 -238.469618 
L 213.661941 -238.667886 
L 218.820647 -238.469618 
L 223.979353 -238.469618 
L 229.138059 -240.240201 
L 234.296764 -244.129844 
L 239.45547 -240.708048 
L 244.614176 -240.708048 
L 249.772881 -240.708048 
L 254.931587 -240.708048 
L 260.090293 -240.708048 
L 265.248998 -240.708048 
L 270.407704 -240.708048 
L 275.56641 -240.708048 
L 280.725116 -240.708048 
L 285.883821 -240.708048 
L 291.042527 -241.128745 
L 296.201233 -241.128745 
L 301.359938 -241.128745 
L 306.518644 -241.128745 
L 311.67735 -241.128745 
L 316.836055 -241.128745 
L 321.994761 -241.128905 
L 327.153467 -241.128905 
L 332.312173 -241.128905 
L 337.470878 -241.128905 
L 342.629584 -241.128905 
L 347.78829 -241.128905 
L 352.946995 -241.128905 
L 358.105701 -241.128905 
L 363.264407 -241.128905 
L 368.423112 -241.128905 
L 373.581818 -241.128905 
L 373.581818 -241.128905 
L 373.581818 -241.128905 
L 368.423112 -241.128905 
L 363.264407 -241.128905 
L 358.105701 -241.128905 
L 352.946995 -241.128905 
L 347.78829 -241.128905 
L 342.629584 -241.128905 
L 337.470878 -241.128905 
L 332.312173 -241.128905 
L 327.153467 -241.128905 
L 321.994761 -241.128905 
L 316.836055 -241.128745 
L 311.67735 -241.128745 
L 306.518644 -241.128745 
L 301.359938 -241.128745 
L 296.201233 -241.128745 
L 291.042527 -241.128745 
L 285.883821 -240.708048 
L 280.725116 -240.708048 
L 275.56641 -240.708048 
L 270.407704 -240.708048 
L 265.248998 -240.708048 
L 260.090293 -240.708048 
L 254.931587 -240.708048 
L 249.772881 -240.708048 
L 244.614176 -240.708048 
L 239.45547 -240.708048 
L 234.296764 -244.129844 
L 229.138059 -240.240201 
L 223.979353 -238.469618 
L 218.820647 -238.469618 
L 213.661941 -238.667886 
L 208.503236 -238.469618 
L 203.34453 -238.469618 
L 198.185824 -238.469618 
L 193.027119 -238.469687 
L 187.868413 -238.469561 
L 182.709707 -238.469687 
L 177.551002 -238.469561 
L 172.392296 -238.469561 
L 167.23359 -238.46966 
L 162.074884 -238.469561 
L 156.916179 -238.469687 
L 151.757473 -231.482942 
L 146.598767 -238.189346 
L 141.440062 -238.189306 
L 136.281356 -238.18441 
L 131.12265 -238.18441 
L 125.963945 -231.004167 
L 120.805239 -125.221178 
L 115.646533 -125.325244 
L 110.487827 -121.007142 
L 105.329122 -112.45038 
L 100.170416 -35.091182 
L 95.01171 -35.020766 
L 89.853005 -35.01707 
L 84.694299 -35.054503 
L 79.535593 -37.175617 
L 74.376888 -33.056179 
L 69.218182 -34.421178 
z
" style="stroke: #ff7763; stroke-opacity: 0.2"/>
    </defs>
    <g clip-path="url(#p80f5979dde)">
     <use xlink:href="#m08cba74dac" x="0" y="288" style="fill: #ff7763; fill-opacity: 0.2; stroke: #ff7763; stroke-opacity: 0.2"/>
    </g>
   </g>
   <g id="PolyCollection_4">
    <defs>
     <path id="m44058e137c" d="M 69.218182 -34.642635 
L 69.218182 -34.642635 
L 74.376888 -33.367261 
L 79.535593 -34.683924 
L 84.694299 -35.086306 
L 89.853005 -35.091182 
L 95.01171 -35.078825 
L 100.170416 -35.044173 
L 105.329122 -138.054726 
L 110.487827 -174.811271 
L 115.646533 -216.709261 
L 120.805239 -151.847669 
L 125.963945 -220.250698 
L 131.12265 -220.118101 
L 136.281356 -220.250698 
L 141.440062 -220.250698 
L 146.598767 -220.250798 
L 151.757473 -220.25025 
L 156.916179 -218.785718 
L 162.074884 -218.785631 
L 167.23359 -216.213591 
L 172.392296 -216.214287 
L 177.551002 -216.214287 
L 182.709707 -216.213892 
L 187.868413 -216.213892 
L 193.027119 -216.214287 
L 198.185824 -216.213892 
L 203.34453 -216.214287 
L 208.503236 -216.214287 
L 213.661941 -216.213892 
L 218.820647 -216.214287 
L 223.979353 -216.214287 
L 229.138059 -216.214287 
L 234.296764 -218.20994 
L 239.45547 -218.209492 
L 244.614176 -227.67466 
L 249.772881 -227.9842 
L 254.931587 -227.983839 
L 260.090293 -228.985458 
L 265.248998 -228.985869 
L 270.407704 -228.985458 
L 275.56641 -237.979864 
L 280.725116 -237.980274 
L 285.883821 -237.980274 
L 291.042527 -237.979864 
L 296.201233 -237.979864 
L 301.359938 -237.138499 
L 306.518644 -237.138499 
L 311.67735 -237.979864 
L 316.836055 -237.980274 
L 321.994761 -237.980274 
L 327.153467 -237.979864 
L 332.312173 -237.980274 
L 337.470878 -235.670356 
L 342.629584 -235.670356 
L 347.78829 -235.669956 
L 352.946995 -236.621231 
L 358.105701 -236.621231 
L 363.264407 -238.08175 
L 368.423112 -238.082162 
L 373.581818 -238.082162 
L 373.581818 -238.082162 
L 373.581818 -238.082162 
L 368.423112 -238.082162 
L 363.264407 -238.08175 
L 358.105701 -236.621231 
L 352.946995 -236.621231 
L 347.78829 -235.669956 
L 342.629584 -235.670356 
L 337.470878 -235.670356 
L 332.312173 -237.980274 
L 327.153467 -237.979864 
L 321.994761 -237.980274 
L 316.836055 -237.980274 
L 311.67735 -237.979864 
L 306.518644 -237.138499 
L 301.359938 -237.138499 
L 296.201233 -237.979864 
L 291.042527 -237.979864 
L 285.883821 -237.980274 
L 280.725116 -237.980274 
L 275.56641 -237.979864 
L 270.407704 -228.985458 
L 265.248998 -228.985869 
L 260.090293 -228.985458 
L 254.931587 -227.983839 
L 249.772881 -227.9842 
L 244.614176 -227.67466 
L 239.45547 -218.209492 
L 234.296764 -218.20994 
L 229.138059 -216.214287 
L 223.979353 -216.214287 
L 218.820647 -216.214287 
L 213.661941 -216.213892 
L 208.503236 -216.214287 
L 203.34453 -216.214287 
L 198.185824 -216.213892 
L 193.027119 -216.214287 
L 187.868413 -216.213892 
L 182.709707 -216.213892 
L 177.551002 -216.214287 
L 172.392296 -216.214287 
L 167.23359 -216.213591 
L 162.074884 -218.785631 
L 156.916179 -218.785718 
L 151.757473 -220.25025 
L 146.598767 -220.250798 
L 141.440062 -220.250698 
L 136.281356 -220.250698 
L 131.12265 -220.118101 
L 125.963945 -220.250698 
L 120.805239 -151.847669 
L 115.646533 -216.709261 
L 110.487827 -174.811271 
L 105.329122 -138.054726 
L 100.170416 -35.044173 
L 95.01171 -35.078825 
L 89.853005 -35.091182 
L 84.694299 -35.086306 
L 79.535593 -34.683924 
L 74.376888 -33.367261 
L 69.218182 -34.642635 
z
" style="stroke: #ffac1e; stroke-opacity: 0.2"/>
    </defs>
    <g clip-path="url(#p80f5979dde)">
     <use xlink:href="#m44058e137c" x="0" y="288" style="fill: #ffac1e; fill-opacity: 0.2; stroke: #ffac1e; stroke-opacity: 0.2"/>
    </g>
   </g>
   <g id="PolyCollection_5">
    <defs>
     <path id="ma8b4e29a07" d="M 69.218182 -26.498302 
L 69.218182 -26.498302 
L 74.376888 -34.534153 
L 79.535593 -129.501617 
L 84.694299 -47.484109 
L 89.853005 -97.862019 
L 95.01171 -95.231827 
L 100.170416 -37.998375 
L 105.329122 -50.284328 
L 110.487827 -50.233795 
L 115.646533 -139.765889 
L 120.805239 -217.005195 
L 125.963945 -163.673974 
L 131.12265 -163.50388 
L 136.281356 -223.899678 
L 141.440062 -222.451219 
L 146.598767 -224.783861 
L 151.757473 -233.552336 
L 156.916179 -240.754728 
L 162.074884 -237.314555 
L 167.23359 -240.754728 
L 172.392296 -237.314555 
L 177.551002 -240.45403 
L 182.709707 -239.165842 
L 187.868413 -239.502169 
L 193.027119 -239.165842 
L 198.185824 -239.165842 
L 203.34453 -240.901157 
L 208.503236 -240.45403 
L 213.661941 -240.45403 
L 218.820647 -240.45403 
L 223.979353 -240.45403 
L 229.138059 -240.45403 
L 234.296764 -240.45403 
L 239.45547 -240.45403 
L 244.614176 -240.45403 
L 249.772881 -240.453789 
L 254.931587 -240.453789 
L 260.090293 -240.900924 
L 265.248998 -240.45403 
L 270.407704 -240.901157 
L 275.56641 -240.901157 
L 280.725116 -240.901157 
L 285.883821 -240.901157 
L 291.042527 -240.901157 
L 296.201233 -240.901157 
L 301.359938 -240.901157 
L 306.518644 -240.901157 
L 311.67735 -241.09162 
L 316.836055 -241.09162 
L 321.994761 -240.901157 
L 327.153467 -240.901157 
L 332.312173 -240.901157 
L 337.470878 -241.09162 
L 342.629584 -241.09162 
L 347.78829 -241.09162 
L 352.946995 -241.09162 
L 358.105701 -241.09162 
L 363.264407 -240.901157 
L 368.423112 -241.09162 
L 373.581818 -241.09162 
L 373.581818 -241.09162 
L 373.581818 -241.09162 
L 368.423112 -241.09162 
L 363.264407 -240.901157 
L 358.105701 -241.09162 
L 352.946995 -241.09162 
L 347.78829 -241.09162 
L 342.629584 -241.09162 
L 337.470878 -241.09162 
L 332.312173 -240.901157 
L 327.153467 -240.901157 
L 321.994761 -240.901157 
L 316.836055 -241.09162 
L 311.67735 -241.09162 
L 306.518644 -240.901157 
L 301.359938 -240.901157 
L 296.201233 -240.901157 
L 291.042527 -240.901157 
L 285.883821 -240.901157 
L 280.725116 -240.901157 
L 275.56641 -240.901157 
L 270.407704 -240.901157 
L 265.248998 -240.45403 
L 260.090293 -240.900924 
L 254.931587 -240.453789 
L 249.772881 -240.453789 
L 244.614176 -240.45403 
L 239.45547 -240.45403 
L 234.296764 -240.45403 
L 229.138059 -240.45403 
L 223.979353 -240.45403 
L 218.820647 -240.45403 
L 213.661941 -240.45403 
L 208.503236 -240.45403 
L 203.34453 -240.901157 
L 198.185824 -239.165842 
L 193.027119 -239.165842 
L 187.868413 -239.502169 
L 182.709707 -239.165842 
L 177.551002 -240.45403 
L 172.392296 -237.314555 
L 167.23359 -240.754728 
L 162.074884 -237.314555 
L 156.916179 -240.754728 
L 151.757473 -233.552336 
L 146.598767 -224.783861 
L 141.440062 -222.451219 
L 136.281356 -223.899678 
L 131.12265 -163.50388 
L 125.963945 -163.673974 
L 120.805239 -217.005195 
L 115.646533 -139.765889 
L 110.487827 -50.233795 
L 105.329122 -50.284328 
L 100.170416 -37.998375 
L 95.01171 -95.231827 
L 89.853005 -97.862019 
L 84.694299 -47.484109 
L 79.535593 -129.501617 
L 74.376888 -34.534153 
L 69.218182 -26.498302 
z
" style="stroke: #009435; stroke-opacity: 0.2"/>
    </defs>
    <g clip-path="url(#p80f5979dde)">
     <use xlink:href="#ma8b4e29a07" x="0" y="288" style="fill: #009435; fill-opacity: 0.2; stroke: #009435; stroke-opacity: 0.2"/>
    </g>
   </g>
   <g id="matplotlib.axis_1">
    <g id="xtick_1">
     <g id="line2d_1">
      <path d="M 69.218182 252 
L 69.218182 34.56 
" clip-path="url(#p80f5979dde)" style="fill: none; stroke-dasharray: 2.96,1.28; stroke-dashoffset: 0; stroke: #b0b0b0; stroke-width: 0.8"/>
     </g>
     <g id="line2d_2">
      <defs>
       <path id="mf90e80e31d" d="M 0 0 
L 0 3.5 
" style="stroke: #000000; stroke-width: 0.8"/>
      </defs>
      <g>
       <use xlink:href="#mf90e80e31d" x="69.218182" y="252" style="stroke: #000000; stroke-width: 0.8"/>
      </g>
     </g>
     <g id="text_1">
      <!-- 0 -->
      <g transform="translate(66.036932 266.598437)scale(0.1 -0.1)">
       <defs>
        <path id="DejaVuSans-30" d="M 2034 4250 
Q 1547 4250 1301 3770 
Q 1056 3291 1056 2328 
Q 1056 1369 1301 889 
Q 1547 409 2034 409 
Q 2525 409 2770 889 
Q 3016 1369 3016 2328 
Q 3016 3291 2770 3770 
Q 2525 4250 2034 4250 
z
M 2034 4750 
Q 2819 4750 3233 4129 
Q 3647 3509 3647 2328 
Q 3647 1150 3233 529 
Q 2819 -91 2034 -91 
Q 1250 -91 836 529 
Q 422 1150 422 2328 
Q 422 3509 836 4129 
Q 1250 4750 2034 4750 
z
" transform="scale(0.015625)"/>
       </defs>
       <use xlink:href="#DejaVuSans-30"/>
      </g>
     </g>
    </g>
    <g id="xtick_2">
     <g id="line2d_3">
      <path d="M 120.805239 252 
L 120.805239 34.56 
" clip-path="url(#p80f5979dde)" style="fill: none; stroke-dasharray: 2.96,1.28; stroke-dashoffset: 0; stroke: #b0b0b0; stroke-width: 0.8"/>
     </g>
     <g id="line2d_4">
      <g>
       <use xlink:href="#mf90e80e31d" x="120.805239" y="252" style="stroke: #000000; stroke-width: 0.8"/>
      </g>
     </g>
     <g id="text_2">
      <!-- 500 -->
      <g transform="translate(111.261489 266.598437)scale(0.1 -0.1)">
       <defs>
        <path id="DejaVuSans-35" d="M 691 4666 
L 3169 4666 
L 3169 4134 
L 1269 4134 
L 1269 2991 
Q 1406 3038 1543 3061 
Q 1681 3084 1819 3084 
Q 2600 3084 3056 2656 
Q 3513 2228 3513 1497 
Q 3513 744 3044 326 
Q 2575 -91 1722 -91 
Q 1428 -91 1123 -41 
Q 819 9 494 109 
L 494 744 
Q 775 591 1075 516 
Q 1375 441 1709 441 
Q 2250 441 2565 725 
Q 2881 1009 2881 1497 
Q 2881 1984 2565 2268 
Q 2250 2553 1709 2553 
Q 1456 2553 1204 2497 
Q 953 2441 691 2322 
L 691 4666 
z
" transform="scale(0.015625)"/>
       </defs>
       <use xlink:href="#DejaVuSans-35"/>
       <use xlink:href="#DejaVuSans-30" x="63.623047"/>
       <use xlink:href="#DejaVuSans-30" x="127.246094"/>
      </g>
     </g>
    </g>
    <g id="xtick_3">
     <g id="line2d_5">
      <path d="M 172.392296 252 
L 172.392296 34.56 
" clip-path="url(#p80f5979dde)" style="fill: none; stroke-dasharray: 2.96,1.28; stroke-dashoffset: 0; stroke: #b0b0b0; stroke-width: 0.8"/>
     </g>
     <g id="line2d_6">
      <g>
       <use xlink:href="#mf90e80e31d" x="172.392296" y="252" style="stroke: #000000; stroke-width: 0.8"/>
      </g>
     </g>
     <g id="text_3">
      <!-- 1000 -->
      <g transform="translate(159.667296 266.598437)scale(0.1 -0.1)">
       <defs>
        <path id="DejaVuSans-31" d="M 794 531 
L 1825 531 
L 1825 4091 
L 703 3866 
L 703 4441 
L 1819 4666 
L 2450 4666 
L 2450 531 
L 3481 531 
L 3481 0 
L 794 0 
L 794 531 
z
" transform="scale(0.015625)"/>
       </defs>
       <use xlink:href="#DejaVuSans-31"/>
       <use xlink:href="#DejaVuSans-30" x="63.623047"/>
       <use xlink:href="#DejaVuSans-30" x="127.246094"/>
       <use xlink:href="#DejaVuSans-30" x="190.869141"/>
      </g>
     </g>
    </g>
    <g id="xtick_4">
     <g id="line2d_7">
      <path d="M 223.979353 252 
L 223.979353 34.56 
" clip-path="url(#p80f5979dde)" style="fill: none; stroke-dasharray: 2.96,1.28; stroke-dashoffset: 0; stroke: #b0b0b0; stroke-width: 0.8"/>
     </g>
     <g id="line2d_8">
      <g>
       <use xlink:href="#mf90e80e31d" x="223.979353" y="252" style="stroke: #000000; stroke-width: 0.8"/>
      </g>
     </g>
     <g id="text_4">
      <!-- 1500 -->
      <g transform="translate(211.254353 266.598437)scale(0.1 -0.1)">
       <use xlink:href="#DejaVuSans-31"/>
       <use xlink:href="#DejaVuSans-35" x="63.623047"/>
       <use xlink:href="#DejaVuSans-30" x="127.246094"/>
       <use xlink:href="#DejaVuSans-30" x="190.869141"/>
      </g>
     </g>
    </g>
    <g id="xtick_5">
     <g id="line2d_9">
      <path d="M 275.56641 252 
L 275.56641 34.56 
" clip-path="url(#p80f5979dde)" style="fill: none; stroke-dasharray: 2.96,1.28; stroke-dashoffset: 0; stroke: #b0b0b0; stroke-width: 0.8"/>
     </g>
     <g id="line2d_10">
      <g>
       <use xlink:href="#mf90e80e31d" x="275.56641" y="252" style="stroke: #000000; stroke-width: 0.8"/>
      </g>
     </g>
     <g id="text_5">
      <!-- 2000 -->
      <g transform="translate(262.84141 266.598437)scale(0.1 -0.1)">
       <defs>
        <path id="DejaVuSans-32" d="M 1228 531 
L 3431 531 
L 3431 0 
L 469 0 
L 469 531 
Q 828 903 1448 1529 
Q 2069 2156 2228 2338 
Q 2531 2678 2651 2914 
Q 2772 3150 2772 3378 
Q 2772 3750 2511 3984 
Q 2250 4219 1831 4219 
Q 1534 4219 1204 4116 
Q 875 4013 500 3803 
L 500 4441 
Q 881 4594 1212 4672 
Q 1544 4750 1819 4750 
Q 2544 4750 2975 4387 
Q 3406 4025 3406 3419 
Q 3406 3131 3298 2873 
Q 3191 2616 2906 2266 
Q 2828 2175 2409 1742 
Q 1991 1309 1228 531 
z
" transform="scale(0.015625)"/>
       </defs>
       <use xlink:href="#DejaVuSans-32"/>
       <use xlink:href="#DejaVuSans-30" x="63.623047"/>
       <use xlink:href="#DejaVuSans-30" x="127.246094"/>
       <use xlink:href="#DejaVuSans-30" x="190.869141"/>
      </g>
     </g>
    </g>
    <g id="xtick_6">
     <g id="line2d_11">
      <path d="M 327.153467 252 
L 327.153467 34.56 
" clip-path="url(#p80f5979dde)" style="fill: none; stroke-dasharray: 2.96,1.28; stroke-dashoffset: 0; stroke: #b0b0b0; stroke-width: 0.8"/>
     </g>
     <g id="line2d_12">
      <g>
       <use xlink:href="#mf90e80e31d" x="327.153467" y="252" style="stroke: #000000; stroke-width: 0.8"/>
      </g>
     </g>
     <g id="text_6">
      <!-- 2500 -->
      <g transform="translate(314.428467 266.598437)scale(0.1 -0.1)">
       <use xlink:href="#DejaVuSans-32"/>
       <use xlink:href="#DejaVuSans-35" x="63.623047"/>
       <use xlink:href="#DejaVuSans-30" x="127.246094"/>
       <use xlink:href="#DejaVuSans-30" x="190.869141"/>
      </g>
     </g>
    </g>
    <g id="xtick_7">
     <g id="line2d_13">
      <path d="M 378.740524 252 
L 378.740524 34.56 
" clip-path="url(#p80f5979dde)" style="fill: none; stroke-dasharray: 2.96,1.28; stroke-dashoffset: 0; stroke: #b0b0b0; stroke-width: 0.8"/>
     </g>
     <g id="line2d_14">
      <g>
       <use xlink:href="#mf90e80e31d" x="378.740524" y="252" style="stroke: #000000; stroke-width: 0.8"/>
      </g>
     </g>
     <g id="text_7">
      <!-- 3000 -->
      <g transform="translate(366.015524 266.598437)scale(0.1 -0.1)">
       <defs>
        <path id="DejaVuSans-33" d="M 2597 2516 
Q 3050 2419 3304 2112 
Q 3559 1806 3559 1356 
Q 3559 666 3084 287 
Q 2609 -91 1734 -91 
Q 1441 -91 1130 -33 
Q 819 25 488 141 
L 488 750 
Q 750 597 1062 519 
Q 1375 441 1716 441 
Q 2309 441 2620 675 
Q 2931 909 2931 1356 
Q 2931 1769 2642 2001 
Q 2353 2234 1838 2234 
L 1294 2234 
L 1294 2753 
L 1863 2753 
Q 2328 2753 2575 2939 
Q 2822 3125 2822 3475 
Q 2822 3834 2567 4026 
Q 2313 4219 1838 4219 
Q 1578 4219 1281 4162 
Q 984 4106 628 3988 
L 628 4550 
Q 988 4650 1302 4700 
Q 1616 4750 1894 4750 
Q 2613 4750 3031 4423 
Q 3450 4097 3450 3541 
Q 3450 3153 3228 2886 
Q 3006 2619 2597 2516 
z
" transform="scale(0.015625)"/>
       </defs>
       <use xlink:href="#DejaVuSans-33"/>
       <use xlink:href="#DejaVuSans-30" x="63.623047"/>
       <use xlink:href="#DejaVuSans-30" x="127.246094"/>
       <use xlink:href="#DejaVuSans-30" x="190.869141"/>
      </g>
     </g>
    </g>
    <g id="text_8">
     <!-- Steps -->
     <g transform="translate(207.410156 280.276563)scale(0.1 -0.1)">
      <defs>
       <path id="DejaVuSans-53" d="M 3425 4513 
L 3425 3897 
Q 3066 4069 2747 4153 
Q 2428 4238 2131 4238 
Q 1616 4238 1336 4038 
Q 1056 3838 1056 3469 
Q 1056 3159 1242 3001 
Q 1428 2844 1947 2747 
L 2328 2669 
Q 3034 2534 3370 2195 
Q 3706 1856 3706 1288 
Q 3706 609 3251 259 
Q 2797 -91 1919 -91 
Q 1588 -91 1214 -16 
Q 841 59 441 206 
L 441 856 
Q 825 641 1194 531 
Q 1563 422 1919 422 
Q 2459 422 2753 634 
Q 3047 847 3047 1241 
Q 3047 1584 2836 1778 
Q 2625 1972 2144 2069 
L 1759 2144 
Q 1053 2284 737 2584 
Q 422 2884 422 3419 
Q 422 4038 858 4394 
Q 1294 4750 2059 4750 
Q 2388 4750 2728 4690 
Q 3069 4631 3425 4513 
z
" transform="scale(0.015625)"/>
       <path id="DejaVuSans-74" d="M 1172 4494 
L 1172 3500 
L 2356 3500 
L 2356 3053 
L 1172 3053 
L 1172 1153 
Q 1172 725 1289 603 
Q 1406 481 1766 481 
L 2356 481 
L 2356 0 
L 1766 0 
Q 1100 0 847 248 
Q 594 497 594 1153 
L 594 3053 
L 172 3053 
L 172 3500 
L 594 3500 
L 594 4494 
L 1172 4494 
z
" transform="scale(0.015625)"/>
       <path id="DejaVuSans-65" d="M 3597 1894 
L 3597 1613 
L 953 1613 
Q 991 1019 1311 708 
Q 1631 397 2203 397 
Q 2534 397 2845 478 
Q 3156 559 3463 722 
L 3463 178 
Q 3153 47 2828 -22 
Q 2503 -91 2169 -91 
Q 1331 -91 842 396 
Q 353 884 353 1716 
Q 353 2575 817 3079 
Q 1281 3584 2069 3584 
Q 2775 3584 3186 3129 
Q 3597 2675 3597 1894 
z
M 3022 2063 
Q 3016 2534 2758 2815 
Q 2500 3097 2075 3097 
Q 1594 3097 1305 2825 
Q 1016 2553 972 2059 
L 3022 2063 
z
" transform="scale(0.015625)"/>
       <path id="DejaVuSans-70" d="M 1159 525 
L 1159 -1331 
L 581 -1331 
L 581 3500 
L 1159 3500 
L 1159 2969 
Q 1341 3281 1617 3432 
Q 1894 3584 2278 3584 
Q 2916 3584 3314 3078 
Q 3713 2572 3713 1747 
Q 3713 922 3314 415 
Q 2916 -91 2278 -91 
Q 1894 -91 1617 61 
Q 1341 213 1159 525 
z
M 3116 1747 
Q 3116 2381 2855 2742 
Q 2594 3103 2138 3103 
Q 1681 3103 1420 2742 
Q 1159 2381 1159 1747 
Q 1159 1113 1420 752 
Q 1681 391 2138 391 
Q 2594 391 2855 752 
Q 3116 1113 3116 1747 
z
" transform="scale(0.015625)"/>
       <path id="DejaVuSans-73" d="M 2834 3397 
L 2834 2853 
Q 2591 2978 2328 3040 
Q 2066 3103 1784 3103 
Q 1356 3103 1142 2972 
Q 928 2841 928 2578 
Q 928 2378 1081 2264 
Q 1234 2150 1697 2047 
L 1894 2003 
Q 2506 1872 2764 1633 
Q 3022 1394 3022 966 
Q 3022 478 2636 193 
Q 2250 -91 1575 -91 
Q 1294 -91 989 -36 
Q 684 19 347 128 
L 347 722 
Q 666 556 975 473 
Q 1284 391 1588 391 
Q 1994 391 2212 530 
Q 2431 669 2431 922 
Q 2431 1156 2273 1281 
Q 2116 1406 1581 1522 
L 1381 1569 
Q 847 1681 609 1914 
Q 372 2147 372 2553 
Q 372 3047 722 3315 
Q 1072 3584 1716 3584 
Q 2034 3584 2315 3537 
Q 2597 3491 2834 3397 
z
" transform="scale(0.015625)"/>
      </defs>
      <use xlink:href="#DejaVuSans-53"/>
      <use xlink:href="#DejaVuSans-74" x="63.476562"/>
      <use xlink:href="#DejaVuSans-65" x="102.685547"/>
      <use xlink:href="#DejaVuSans-70" x="164.208984"/>
      <use xlink:href="#DejaVuSans-73" x="227.685547"/>
     </g>
    </g>
   </g>
   <g id="matplotlib.axis_2">
    <g id="ytick_1">
     <g id="line2d_15">
      <path d="M 54 243.636923 
L 388.8 243.636923 
" clip-path="url(#p80f5979dde)" style="fill: none; stroke-dasharray: 2.96,1.28; stroke-dashoffset: 0; stroke: #b0b0b0; stroke-width: 0.8"/>
     </g>
     <g id="line2d_16">
      <defs>
       <path id="m77897cdc07" d="M 0 0 
L -3.5 0 
" style="stroke: #000000; stroke-width: 0.8"/>
      </defs>
      <g>
       <use xlink:href="#m77897cdc07" x="54" y="243.636923" style="stroke: #000000; stroke-width: 0.8"/>
      </g>
     </g>
     <g id="text_9">
      <!-- −12 -->
      <g transform="translate(25.895312 247.436142)scale(0.1 -0.1)">
       <defs>
        <path id="DejaVuSans-2212" d="M 678 2272 
L 4684 2272 
L 4684 1741 
L 678 1741 
L 678 2272 
z
" transform="scale(0.015625)"/>
       </defs>
       <use xlink:href="#DejaVuSans-2212"/>
       <use xlink:href="#DejaVuSans-31" x="83.789062"/>
       <use xlink:href="#DejaVuSans-32" x="147.412109"/>
      </g>
     </g>
    </g>
    <g id="ytick_2">
     <g id="line2d_17">
      <path d="M 54 210.184615 
L 388.8 210.184615 
" clip-path="url(#p80f5979dde)" style="fill: none; stroke-dasharray: 2.96,1.28; stroke-dashoffset: 0; stroke: #b0b0b0; stroke-width: 0.8"/>
     </g>
     <g id="line2d_18">
      <g>
       <use xlink:href="#m77897cdc07" x="54" y="210.184615" style="stroke: #000000; stroke-width: 0.8"/>
      </g>
     </g>
     <g id="text_10">
      <!-- −10 -->
      <g transform="translate(25.895312 213.983834)scale(0.1 -0.1)">
       <use xlink:href="#DejaVuSans-2212"/>
       <use xlink:href="#DejaVuSans-31" x="83.789062"/>
       <use xlink:href="#DejaVuSans-30" x="147.412109"/>
      </g>
     </g>
    </g>
    <g id="ytick_3">
     <g id="line2d_19">
      <path d="M 54 176.732308 
L 388.8 176.732308 
" clip-path="url(#p80f5979dde)" style="fill: none; stroke-dasharray: 2.96,1.28; stroke-dashoffset: 0; stroke: #b0b0b0; stroke-width: 0.8"/>
     </g>
     <g id="line2d_20">
      <g>
       <use xlink:href="#m77897cdc07" x="54" y="176.732308" style="stroke: #000000; stroke-width: 0.8"/>
      </g>
     </g>
     <g id="text_11">
      <!-- −8 -->
      <g transform="translate(32.257812 180.531526)scale(0.1 -0.1)">
       <defs>
        <path id="DejaVuSans-38" d="M 2034 2216 
Q 1584 2216 1326 1975 
Q 1069 1734 1069 1313 
Q 1069 891 1326 650 
Q 1584 409 2034 409 
Q 2484 409 2743 651 
Q 3003 894 3003 1313 
Q 3003 1734 2745 1975 
Q 2488 2216 2034 2216 
z
M 1403 2484 
Q 997 2584 770 2862 
Q 544 3141 544 3541 
Q 544 4100 942 4425 
Q 1341 4750 2034 4750 
Q 2731 4750 3128 4425 
Q 3525 4100 3525 3541 
Q 3525 3141 3298 2862 
Q 3072 2584 2669 2484 
Q 3125 2378 3379 2068 
Q 3634 1759 3634 1313 
Q 3634 634 3220 271 
Q 2806 -91 2034 -91 
Q 1263 -91 848 271 
Q 434 634 434 1313 
Q 434 1759 690 2068 
Q 947 2378 1403 2484 
z
M 1172 3481 
Q 1172 3119 1398 2916 
Q 1625 2713 2034 2713 
Q 2441 2713 2670 2916 
Q 2900 3119 2900 3481 
Q 2900 3844 2670 4047 
Q 2441 4250 2034 4250 
Q 1625 4250 1398 4047 
Q 1172 3844 1172 3481 
z
" transform="scale(0.015625)"/>
       </defs>
       <use xlink:href="#DejaVuSans-2212"/>
       <use xlink:href="#DejaVuSans-38" x="83.789062"/>
      </g>
     </g>
    </g>
    <g id="ytick_4">
     <g id="line2d_21">
      <path d="M 54 143.28 
L 388.8 143.28 
" clip-path="url(#p80f5979dde)" style="fill: none; stroke-dasharray: 2.96,1.28; stroke-dashoffset: 0; stroke: #b0b0b0; stroke-width: 0.8"/>
     </g>
     <g id="line2d_22">
      <g>
       <use xlink:href="#m77897cdc07" x="54" y="143.28" style="stroke: #000000; stroke-width: 0.8"/>
      </g>
     </g>
     <g id="text_12">
      <!-- −6 -->
      <g transform="translate(32.257812 147.079219)scale(0.1 -0.1)">
       <defs>
        <path id="DejaVuSans-36" d="M 2113 2584 
Q 1688 2584 1439 2293 
Q 1191 2003 1191 1497 
Q 1191 994 1439 701 
Q 1688 409 2113 409 
Q 2538 409 2786 701 
Q 3034 994 3034 1497 
Q 3034 2003 2786 2293 
Q 2538 2584 2113 2584 
z
M 3366 4563 
L 3366 3988 
Q 3128 4100 2886 4159 
Q 2644 4219 2406 4219 
Q 1781 4219 1451 3797 
Q 1122 3375 1075 2522 
Q 1259 2794 1537 2939 
Q 1816 3084 2150 3084 
Q 2853 3084 3261 2657 
Q 3669 2231 3669 1497 
Q 3669 778 3244 343 
Q 2819 -91 2113 -91 
Q 1303 -91 875 529 
Q 447 1150 447 2328 
Q 447 3434 972 4092 
Q 1497 4750 2381 4750 
Q 2619 4750 2861 4703 
Q 3103 4656 3366 4563 
z
" transform="scale(0.015625)"/>
       </defs>
       <use xlink:href="#DejaVuSans-2212"/>
       <use xlink:href="#DejaVuSans-36" x="83.789062"/>
      </g>
     </g>
    </g>
    <g id="ytick_5">
     <g id="line2d_23">
      <path d="M 54 109.827692 
L 388.8 109.827692 
" clip-path="url(#p80f5979dde)" style="fill: none; stroke-dasharray: 2.96,1.28; stroke-dashoffset: 0; stroke: #b0b0b0; stroke-width: 0.8"/>
     </g>
     <g id="line2d_24">
      <g>
       <use xlink:href="#m77897cdc07" x="54" y="109.827692" style="stroke: #000000; stroke-width: 0.8"/>
      </g>
     </g>
     <g id="text_13">
      <!-- −4 -->
      <g transform="translate(32.257812 113.626911)scale(0.1 -0.1)">
       <defs>
        <path id="DejaVuSans-34" d="M 2419 4116 
L 825 1625 
L 2419 1625 
L 2419 4116 
z
M 2253 4666 
L 3047 4666 
L 3047 1625 
L 3713 1625 
L 3713 1100 
L 3047 1100 
L 3047 0 
L 2419 0 
L 2419 1100 
L 313 1100 
L 313 1709 
L 2253 4666 
z
" transform="scale(0.015625)"/>
       </defs>
       <use xlink:href="#DejaVuSans-2212"/>
       <use xlink:href="#DejaVuSans-34" x="83.789062"/>
      </g>
     </g>
    </g>
    <g id="ytick_6">
     <g id="line2d_25">
      <path d="M 54 76.375385 
L 388.8 76.375385 
" clip-path="url(#p80f5979dde)" style="fill: none; stroke-dasharray: 2.96,1.28; stroke-dashoffset: 0; stroke: #b0b0b0; stroke-width: 0.8"/>
     </g>
     <g id="line2d_26">
      <g>
       <use xlink:href="#m77897cdc07" x="54" y="76.375385" style="stroke: #000000; stroke-width: 0.8"/>
      </g>
     </g>
     <g id="text_14">
      <!-- −2 -->
      <g transform="translate(32.257812 80.174603)scale(0.1 -0.1)">
       <use xlink:href="#DejaVuSans-2212"/>
       <use xlink:href="#DejaVuSans-32" x="83.789062"/>
      </g>
     </g>
    </g>
    <g id="ytick_7">
     <g id="line2d_27">
      <path d="M 54 42.923077 
L 388.8 42.923077 
" clip-path="url(#p80f5979dde)" style="fill: none; stroke-dasharray: 2.96,1.28; stroke-dashoffset: 0; stroke: #b0b0b0; stroke-width: 0.8"/>
     </g>
     <g id="line2d_28">
      <g>
       <use xlink:href="#m77897cdc07" x="54" y="42.923077" style="stroke: #000000; stroke-width: 0.8"/>
      </g>
     </g>
     <g id="text_15">
      <!-- 0 -->
      <g transform="translate(40.6375 46.722296)scale(0.1 -0.1)">
       <use xlink:href="#DejaVuSans-30"/>
      </g>
     </g>
    </g>
    <g id="text_16">
     <!-- Policy value error -->
     <g transform="translate(19.815625 186.597969)rotate(-90)scale(0.1 -0.1)">
      <defs>
       <path id="DejaVuSans-50" d="M 1259 4147 
L 1259 2394 
L 2053 2394 
Q 2494 2394 2734 2622 
Q 2975 2850 2975 3272 
Q 2975 3691 2734 3919 
Q 2494 4147 2053 4147 
L 1259 4147 
z
M 628 4666 
L 2053 4666 
Q 2838 4666 3239 4311 
Q 3641 3956 3641 3272 
Q 3641 2581 3239 2228 
Q 2838 1875 2053 1875 
L 1259 1875 
L 1259 0 
L 628 0 
L 628 4666 
z
" transform="scale(0.015625)"/>
       <path id="DejaVuSans-6f" d="M 1959 3097 
Q 1497 3097 1228 2736 
Q 959 2375 959 1747 
Q 959 1119 1226 758 
Q 1494 397 1959 397 
Q 2419 397 2687 759 
Q 2956 1122 2956 1747 
Q 2956 2369 2687 2733 
Q 2419 3097 1959 3097 
z
M 1959 3584 
Q 2709 3584 3137 3096 
Q 3566 2609 3566 1747 
Q 3566 888 3137 398 
Q 2709 -91 1959 -91 
Q 1206 -91 779 398 
Q 353 888 353 1747 
Q 353 2609 779 3096 
Q 1206 3584 1959 3584 
z
" transform="scale(0.015625)"/>
       <path id="DejaVuSans-6c" d="M 603 4863 
L 1178 4863 
L 1178 0 
L 603 0 
L 603 4863 
z
" transform="scale(0.015625)"/>
       <path id="DejaVuSans-69" d="M 603 3500 
L 1178 3500 
L 1178 0 
L 603 0 
L 603 3500 
z
M 603 4863 
L 1178 4863 
L 1178 4134 
L 603 4134 
L 603 4863 
z
" transform="scale(0.015625)"/>
       <path id="DejaVuSans-63" d="M 3122 3366 
L 3122 2828 
Q 2878 2963 2633 3030 
Q 2388 3097 2138 3097 
Q 1578 3097 1268 2742 
Q 959 2388 959 1747 
Q 959 1106 1268 751 
Q 1578 397 2138 397 
Q 2388 397 2633 464 
Q 2878 531 3122 666 
L 3122 134 
Q 2881 22 2623 -34 
Q 2366 -91 2075 -91 
Q 1284 -91 818 406 
Q 353 903 353 1747 
Q 353 2603 823 3093 
Q 1294 3584 2113 3584 
Q 2378 3584 2631 3529 
Q 2884 3475 3122 3366 
z
" transform="scale(0.015625)"/>
       <path id="DejaVuSans-79" d="M 2059 -325 
Q 1816 -950 1584 -1140 
Q 1353 -1331 966 -1331 
L 506 -1331 
L 506 -850 
L 844 -850 
Q 1081 -850 1212 -737 
Q 1344 -625 1503 -206 
L 1606 56 
L 191 3500 
L 800 3500 
L 1894 763 
L 2988 3500 
L 3597 3500 
L 2059 -325 
z
" transform="scale(0.015625)"/>
       <path id="DejaVuSans-20" transform="scale(0.015625)"/>
       <path id="DejaVuSans-76" d="M 191 3500 
L 800 3500 
L 1894 563 
L 2988 3500 
L 3597 3500 
L 2284 0 
L 1503 0 
L 191 3500 
z
" transform="scale(0.015625)"/>
       <path id="DejaVuSans-61" d="M 2194 1759 
Q 1497 1759 1228 1600 
Q 959 1441 959 1056 
Q 959 750 1161 570 
Q 1363 391 1709 391 
Q 2188 391 2477 730 
Q 2766 1069 2766 1631 
L 2766 1759 
L 2194 1759 
z
M 3341 1997 
L 3341 0 
L 2766 0 
L 2766 531 
Q 2569 213 2275 61 
Q 1981 -91 1556 -91 
Q 1019 -91 701 211 
Q 384 513 384 1019 
Q 384 1609 779 1909 
Q 1175 2209 1959 2209 
L 2766 2209 
L 2766 2266 
Q 2766 2663 2505 2880 
Q 2244 3097 1772 3097 
Q 1472 3097 1187 3025 
Q 903 2953 641 2809 
L 641 3341 
Q 956 3463 1253 3523 
Q 1550 3584 1831 3584 
Q 2591 3584 2966 3190 
Q 3341 2797 3341 1997 
z
" transform="scale(0.015625)"/>
       <path id="DejaVuSans-75" d="M 544 1381 
L 544 3500 
L 1119 3500 
L 1119 1403 
Q 1119 906 1312 657 
Q 1506 409 1894 409 
Q 2359 409 2629 706 
Q 2900 1003 2900 1516 
L 2900 3500 
L 3475 3500 
L 3475 0 
L 2900 0 
L 2900 538 
Q 2691 219 2414 64 
Q 2138 -91 1772 -91 
Q 1169 -91 856 284 
Q 544 659 544 1381 
z
M 1991 3584 
L 1991 3584 
z
" transform="scale(0.015625)"/>
       <path id="DejaVuSans-72" d="M 2631 2963 
Q 2534 3019 2420 3045 
Q 2306 3072 2169 3072 
Q 1681 3072 1420 2755 
Q 1159 2438 1159 1844 
L 1159 0 
L 581 0 
L 581 3500 
L 1159 3500 
L 1159 2956 
Q 1341 3275 1631 3429 
Q 1922 3584 2338 3584 
Q 2397 3584 2469 3576 
Q 2541 3569 2628 3553 
L 2631 2963 
z
" transform="scale(0.015625)"/>
      </defs>
      <use xlink:href="#DejaVuSans-50"/>
      <use xlink:href="#DejaVuSans-6f" x="56.677734"/>
      <use xlink:href="#DejaVuSans-6c" x="117.859375"/>
      <use xlink:href="#DejaVuSans-69" x="145.642578"/>
      <use xlink:href="#DejaVuSans-63" x="173.425781"/>
      <use xlink:href="#DejaVuSans-79" x="228.40625"/>
      <use xlink:href="#DejaVuSans-20" x="287.585938"/>
      <use xlink:href="#DejaVuSans-76" x="319.373047"/>
      <use xlink:href="#DejaVuSans-61" x="378.552734"/>
      <use xlink:href="#DejaVuSans-6c" x="439.832031"/>
      <use xlink:href="#DejaVuSans-75" x="467.615234"/>
      <use xlink:href="#DejaVuSans-65" x="530.994141"/>
      <use xlink:href="#DejaVuSans-20" x="592.517578"/>
      <use xlink:href="#DejaVuSans-65" x="624.304688"/>
      <use xlink:href="#DejaVuSans-72" x="685.828125"/>
      <use xlink:href="#DejaVuSans-72" x="725.191406"/>
      <use xlink:href="#DejaVuSans-6f" x="764.054688"/>
      <use xlink:href="#DejaVuSans-72" x="825.236328"/>
     </g>
    </g>
   </g>
   <g id="line2d_29">
    <path d="M 69.218182 255.962326 
L 74.376888 250.003611 
L 79.535593 225.202179 
L 84.694299 231.573167 
L 89.853005 156.035487 
L 95.01171 160.709846 
L 100.170416 73.115679 
L 105.329122 74.303764 
L 110.487827 74.385642 
L 115.646533 66.772612 
L 120.805239 56.712674 
L 125.963945 66.772332 
L 131.12265 66.529662 
L 136.281356 66.3016 
L 141.440062 46.834622 
L 146.598767 47.89887 
L 151.757473 46.831632 
L 156.916179 46.831632 
L 162.074884 46.831632 
L 167.23359 46.831632 
L 172.392296 46.831632 
L 177.551002 46.664748 
L 182.709707 46.664748 
L 187.868413 46.664748 
L 193.027119 46.664748 
L 198.185824 46.664748 
L 203.34453 46.664748 
L 208.503236 46.664748 
L 213.661941 46.664748 
L 218.820647 46.664748 
L 223.979353 46.664748 
L 229.138059 46.664748 
L 234.296764 46.664748 
L 239.45547 43.669253 
L 244.614176 44.177648 
L 249.772881 44.177648 
L 254.931587 44.177648 
L 260.090293 44.177648 
L 265.248998 44.177648 
L 270.407704 44.177648 
L 275.56641 44.177648 
L 280.725116 44.177648 
L 285.883821 44.177648 
L 291.042527 44.177648 
L 296.201233 44.177648 
L 301.359938 44.177648 
L 306.518644 44.177648 
L 311.67735 43.449281 
L 316.836055 43.449281 
L 321.994761 43.449281 
L 327.153467 43.449281 
L 332.312173 43.449281 
L 337.470878 43.449281 
L 342.629584 43.449281 
L 347.78829 43.449281 
L 352.946995 43.449281 
L 358.105701 43.449281 
L 363.264407 43.449281 
L 368.423112 43.449281 
L 373.581818 43.449281 
" clip-path="url(#p80f5979dde)" style="fill: none; stroke: #9d02d7; stroke-width: 1.5; stroke-linecap: square"/>
    <defs>
     <path id="mc72f53b0a4" d="M 0 -2 
L -2 2 
L 2 2 
z
" style="stroke: #9d02d7; stroke-linejoin: miter"/>
    </defs>
    <g clip-path="url(#p80f5979dde)">
     <use xlink:href="#mc72f53b0a4" x="69.218182" y="255.962326" style="fill: #9d02d7; stroke: #9d02d7; stroke-linejoin: miter"/>
     <use xlink:href="#mc72f53b0a4" x="74.376888" y="250.003611" style="fill: #9d02d7; stroke: #9d02d7; stroke-linejoin: miter"/>
     <use xlink:href="#mc72f53b0a4" x="79.535593" y="225.202179" style="fill: #9d02d7; stroke: #9d02d7; stroke-linejoin: miter"/>
     <use xlink:href="#mc72f53b0a4" x="84.694299" y="231.573167" style="fill: #9d02d7; stroke: #9d02d7; stroke-linejoin: miter"/>
     <use xlink:href="#mc72f53b0a4" x="89.853005" y="156.035487" style="fill: #9d02d7; stroke: #9d02d7; stroke-linejoin: miter"/>
     <use xlink:href="#mc72f53b0a4" x="95.01171" y="160.709846" style="fill: #9d02d7; stroke: #9d02d7; stroke-linejoin: miter"/>
     <use xlink:href="#mc72f53b0a4" x="100.170416" y="73.115679" style="fill: #9d02d7; stroke: #9d02d7; stroke-linejoin: miter"/>
     <use xlink:href="#mc72f53b0a4" x="105.329122" y="74.303764" style="fill: #9d02d7; stroke: #9d02d7; stroke-linejoin: miter"/>
     <use xlink:href="#mc72f53b0a4" x="110.487827" y="74.385642" style="fill: #9d02d7; stroke: #9d02d7; stroke-linejoin: miter"/>
     <use xlink:href="#mc72f53b0a4" x="115.646533" y="66.772612" style="fill: #9d02d7; stroke: #9d02d7; stroke-linejoin: miter"/>
     <use xlink:href="#mc72f53b0a4" x="120.805239" y="56.712674" style="fill: #9d02d7; stroke: #9d02d7; stroke-linejoin: miter"/>
     <use xlink:href="#mc72f53b0a4" x="125.963945" y="66.772332" style="fill: #9d02d7; stroke: #9d02d7; stroke-linejoin: miter"/>
     <use xlink:href="#mc72f53b0a4" x="131.12265" y="66.529662" style="fill: #9d02d7; stroke: #9d02d7; stroke-linejoin: miter"/>
     <use xlink:href="#mc72f53b0a4" x="136.281356" y="66.3016" style="fill: #9d02d7; stroke: #9d02d7; stroke-linejoin: miter"/>
     <use xlink:href="#mc72f53b0a4" x="141.440062" y="46.834622" style="fill: #9d02d7; stroke: #9d02d7; stroke-linejoin: miter"/>
     <use xlink:href="#mc72f53b0a4" x="146.598767" y="47.89887" style="fill: #9d02d7; stroke: #9d02d7; stroke-linejoin: miter"/>
     <use xlink:href="#mc72f53b0a4" x="151.757473" y="46.831632" style="fill: #9d02d7; stroke: #9d02d7; stroke-linejoin: miter"/>
     <use xlink:href="#mc72f53b0a4" x="156.916179" y="46.831632" style="fill: #9d02d7; stroke: #9d02d7; stroke-linejoin: miter"/>
     <use xlink:href="#mc72f53b0a4" x="162.074884" y="46.831632" style="fill: #9d02d7; stroke: #9d02d7; stroke-linejoin: miter"/>
     <use xlink:href="#mc72f53b0a4" x="167.23359" y="46.831632" style="fill: #9d02d7; stroke: #9d02d7; stroke-linejoin: miter"/>
     <use xlink:href="#mc72f53b0a4" x="172.392296" y="46.831632" style="fill: #9d02d7; stroke: #9d02d7; stroke-linejoin: miter"/>
     <use xlink:href="#mc72f53b0a4" x="177.551002" y="46.664748" style="fill: #9d02d7; stroke: #9d02d7; stroke-linejoin: miter"/>
     <use xlink:href="#mc72f53b0a4" x="182.709707" y="46.664748" style="fill: #9d02d7; stroke: #9d02d7; stroke-linejoin: miter"/>
     <use xlink:href="#mc72f53b0a4" x="187.868413" y="46.664748" style="fill: #9d02d7; stroke: #9d02d7; stroke-linejoin: miter"/>
     <use xlink:href="#mc72f53b0a4" x="193.027119" y="46.664748" style="fill: #9d02d7; stroke: #9d02d7; stroke-linejoin: miter"/>
     <use xlink:href="#mc72f53b0a4" x="198.185824" y="46.664748" style="fill: #9d02d7; stroke: #9d02d7; stroke-linejoin: miter"/>
     <use xlink:href="#mc72f53b0a4" x="203.34453" y="46.664748" style="fill: #9d02d7; stroke: #9d02d7; stroke-linejoin: miter"/>
     <use xlink:href="#mc72f53b0a4" x="208.503236" y="46.664748" style="fill: #9d02d7; stroke: #9d02d7; stroke-linejoin: miter"/>
     <use xlink:href="#mc72f53b0a4" x="213.661941" y="46.664748" style="fill: #9d02d7; stroke: #9d02d7; stroke-linejoin: miter"/>
     <use xlink:href="#mc72f53b0a4" x="218.820647" y="46.664748" style="fill: #9d02d7; stroke: #9d02d7; stroke-linejoin: miter"/>
     <use xlink:href="#mc72f53b0a4" x="223.979353" y="46.664748" style="fill: #9d02d7; stroke: #9d02d7; stroke-linejoin: miter"/>
     <use xlink:href="#mc72f53b0a4" x="229.138059" y="46.664748" style="fill: #9d02d7; stroke: #9d02d7; stroke-linejoin: miter"/>
     <use xlink:href="#mc72f53b0a4" x="234.296764" y="46.664748" style="fill: #9d02d7; stroke: #9d02d7; stroke-linejoin: miter"/>
     <use xlink:href="#mc72f53b0a4" x="239.45547" y="43.669253" style="fill: #9d02d7; stroke: #9d02d7; stroke-linejoin: miter"/>
     <use xlink:href="#mc72f53b0a4" x="244.614176" y="44.177648" style="fill: #9d02d7; stroke: #9d02d7; stroke-linejoin: miter"/>
     <use xlink:href="#mc72f53b0a4" x="249.772881" y="44.177648" style="fill: #9d02d7; stroke: #9d02d7; stroke-linejoin: miter"/>
     <use xlink:href="#mc72f53b0a4" x="254.931587" y="44.177648" style="fill: #9d02d7; stroke: #9d02d7; stroke-linejoin: miter"/>
     <use xlink:href="#mc72f53b0a4" x="260.090293" y="44.177648" style="fill: #9d02d7; stroke: #9d02d7; stroke-linejoin: miter"/>
     <use xlink:href="#mc72f53b0a4" x="265.248998" y="44.177648" style="fill: #9d02d7; stroke: #9d02d7; stroke-linejoin: miter"/>
     <use xlink:href="#mc72f53b0a4" x="270.407704" y="44.177648" style="fill: #9d02d7; stroke: #9d02d7; stroke-linejoin: miter"/>
     <use xlink:href="#mc72f53b0a4" x="275.56641" y="44.177648" style="fill: #9d02d7; stroke: #9d02d7; stroke-linejoin: miter"/>
     <use xlink:href="#mc72f53b0a4" x="280.725116" y="44.177648" style="fill: #9d02d7; stroke: #9d02d7; stroke-linejoin: miter"/>
     <use xlink:href="#mc72f53b0a4" x="285.883821" y="44.177648" style="fill: #9d02d7; stroke: #9d02d7; stroke-linejoin: miter"/>
     <use xlink:href="#mc72f53b0a4" x="291.042527" y="44.177648" style="fill: #9d02d7; stroke: #9d02d7; stroke-linejoin: miter"/>
     <use xlink:href="#mc72f53b0a4" x="296.201233" y="44.177648" style="fill: #9d02d7; stroke: #9d02d7; stroke-linejoin: miter"/>
     <use xlink:href="#mc72f53b0a4" x="301.359938" y="44.177648" style="fill: #9d02d7; stroke: #9d02d7; stroke-linejoin: miter"/>
     <use xlink:href="#mc72f53b0a4" x="306.518644" y="44.177648" style="fill: #9d02d7; stroke: #9d02d7; stroke-linejoin: miter"/>
     <use xlink:href="#mc72f53b0a4" x="311.67735" y="43.449281" style="fill: #9d02d7; stroke: #9d02d7; stroke-linejoin: miter"/>
     <use xlink:href="#mc72f53b0a4" x="316.836055" y="43.449281" style="fill: #9d02d7; stroke: #9d02d7; stroke-linejoin: miter"/>
     <use xlink:href="#mc72f53b0a4" x="321.994761" y="43.449281" style="fill: #9d02d7; stroke: #9d02d7; stroke-linejoin: miter"/>
     <use xlink:href="#mc72f53b0a4" x="327.153467" y="43.449281" style="fill: #9d02d7; stroke: #9d02d7; stroke-linejoin: miter"/>
     <use xlink:href="#mc72f53b0a4" x="332.312173" y="43.449281" style="fill: #9d02d7; stroke: #9d02d7; stroke-linejoin: miter"/>
     <use xlink:href="#mc72f53b0a4" x="337.470878" y="43.449281" style="fill: #9d02d7; stroke: #9d02d7; stroke-linejoin: miter"/>
     <use xlink:href="#mc72f53b0a4" x="342.629584" y="43.449281" style="fill: #9d02d7; stroke: #9d02d7; stroke-linejoin: miter"/>
     <use xlink:href="#mc72f53b0a4" x="347.78829" y="43.449281" style="fill: #9d02d7; stroke: #9d02d7; stroke-linejoin: miter"/>
     <use xlink:href="#mc72f53b0a4" x="352.946995" y="43.449281" style="fill: #9d02d7; stroke: #9d02d7; stroke-linejoin: miter"/>
     <use xlink:href="#mc72f53b0a4" x="358.105701" y="43.449281" style="fill: #9d02d7; stroke: #9d02d7; stroke-linejoin: miter"/>
     <use xlink:href="#mc72f53b0a4" x="363.264407" y="43.449281" style="fill: #9d02d7; stroke: #9d02d7; stroke-linejoin: miter"/>
     <use xlink:href="#mc72f53b0a4" x="368.423112" y="43.449281" style="fill: #9d02d7; stroke: #9d02d7; stroke-linejoin: miter"/>
     <use xlink:href="#mc72f53b0a4" x="373.581818" y="43.449281" style="fill: #9d02d7; stroke: #9d02d7; stroke-linejoin: miter"/>
    </g>
   </g>
   <g id="line2d_30">
    <path d="M 69.218182 252.749231 
L 74.376888 252.908818 
L 79.535593 250.762403 
L 84.694299 250.65375 
L 89.853005 253.043816 
L 95.01171 251.129793 
L 100.170416 204.747075 
L 105.329122 174.050573 
L 110.487827 177.49719 
L 115.646533 170.181028 
L 120.805239 176.666714 
L 125.963945 166.471361 
L 131.12265 174.090095 
L 136.281356 77.483329 
L 141.440062 77.483424 
L 146.598767 77.080572 
L 151.757473 49.741676 
L 156.916179 51.623954 
L 162.074884 51.444356 
L 167.23359 51.624053 
L 172.392296 51.624053 
L 177.551002 51.624053 
L 182.709707 51.624053 
L 187.868413 48.766987 
L 193.027119 48.766987 
L 198.185824 48.767069 
L 203.34453 48.766987 
L 208.503236 51.444453 
L 213.661941 47.511937 
L 218.820647 47.511937 
L 223.979353 46.791314 
L 229.138059 46.791314 
L 234.296764 50.066199 
L 239.45547 50.066199 
L 244.614176 47.099936 
L 249.772881 47.099218 
L 254.931587 47.099218 
L 260.090293 47.099218 
L 265.248998 47.099936 
L 270.407704 47.099218 
L 275.56641 46.871821 
L 280.725116 46.871821 
L 285.883821 47.033856 
L 291.042527 47.033445 
L 296.201233 47.033445 
L 301.359938 47.115903 
L 306.518644 47.033445 
L 311.67735 47.115642 
L 316.836055 47.033445 
L 321.994761 47.033445 
L 327.153467 46.872954 
L 332.312173 47.099936 
L 337.470878 46.872954 
L 342.629584 46.872954 
L 347.78829 46.872954 
L 352.946995 47.033856 
L 358.105701 47.033856 
L 363.264407 47.033856 
L 368.423112 47.033856 
L 373.581818 47.033856 
" clip-path="url(#p80f5979dde)" style="fill: none; stroke: #0000ff; stroke-width: 1.5; stroke-linecap: square"/>
    <defs>
     <path id="mda9965a642" d="M 0 2 
C 0.530406 2 1.03916 1.789267 1.414214 1.414214 
C 1.789267 1.03916 2 0.530406 2 0 
C 2 -0.530406 1.789267 -1.03916 1.414214 -1.414214 
C 1.03916 -1.789267 0.530406 -2 0 -2 
C -0.530406 -2 -1.03916 -1.789267 -1.414214 -1.414214 
C -1.789267 -1.03916 -2 -0.530406 -2 0 
C -2 0.530406 -1.789267 1.03916 -1.414214 1.414214 
C -1.03916 1.789267 -0.530406 2 0 2 
z
" style="stroke: #0000ff"/>
    </defs>
    <g clip-path="url(#p80f5979dde)">
     <use xlink:href="#mda9965a642" x="69.218182" y="252.749231" style="fill: #0000ff; stroke: #0000ff"/>
     <use xlink:href="#mda9965a642" x="74.376888" y="252.908818" style="fill: #0000ff; stroke: #0000ff"/>
     <use xlink:href="#mda9965a642" x="79.535593" y="250.762403" style="fill: #0000ff; stroke: #0000ff"/>
     <use xlink:href="#mda9965a642" x="84.694299" y="250.65375" style="fill: #0000ff; stroke: #0000ff"/>
     <use xlink:href="#mda9965a642" x="89.853005" y="253.043816" style="fill: #0000ff; stroke: #0000ff"/>
     <use xlink:href="#mda9965a642" x="95.01171" y="251.129793" style="fill: #0000ff; stroke: #0000ff"/>
     <use xlink:href="#mda9965a642" x="100.170416" y="204.747075" style="fill: #0000ff; stroke: #0000ff"/>
     <use xlink:href="#mda9965a642" x="105.329122" y="174.050573" style="fill: #0000ff; stroke: #0000ff"/>
     <use xlink:href="#mda9965a642" x="110.487827" y="177.49719" style="fill: #0000ff; stroke: #0000ff"/>
     <use xlink:href="#mda9965a642" x="115.646533" y="170.181028" style="fill: #0000ff; stroke: #0000ff"/>
     <use xlink:href="#mda9965a642" x="120.805239" y="176.666714" style="fill: #0000ff; stroke: #0000ff"/>
     <use xlink:href="#mda9965a642" x="125.963945" y="166.471361" style="fill: #0000ff; stroke: #0000ff"/>
     <use xlink:href="#mda9965a642" x="131.12265" y="174.090095" style="fill: #0000ff; stroke: #0000ff"/>
     <use xlink:href="#mda9965a642" x="136.281356" y="77.483329" style="fill: #0000ff; stroke: #0000ff"/>
     <use xlink:href="#mda9965a642" x="141.440062" y="77.483424" style="fill: #0000ff; stroke: #0000ff"/>
     <use xlink:href="#mda9965a642" x="146.598767" y="77.080572" style="fill: #0000ff; stroke: #0000ff"/>
     <use xlink:href="#mda9965a642" x="151.757473" y="49.741676" style="fill: #0000ff; stroke: #0000ff"/>
     <use xlink:href="#mda9965a642" x="156.916179" y="51.623954" style="fill: #0000ff; stroke: #0000ff"/>
     <use xlink:href="#mda9965a642" x="162.074884" y="51.444356" style="fill: #0000ff; stroke: #0000ff"/>
     <use xlink:href="#mda9965a642" x="167.23359" y="51.624053" style="fill: #0000ff; stroke: #0000ff"/>
     <use xlink:href="#mda9965a642" x="172.392296" y="51.624053" style="fill: #0000ff; stroke: #0000ff"/>
     <use xlink:href="#mda9965a642" x="177.551002" y="51.624053" style="fill: #0000ff; stroke: #0000ff"/>
     <use xlink:href="#mda9965a642" x="182.709707" y="51.624053" style="fill: #0000ff; stroke: #0000ff"/>
     <use xlink:href="#mda9965a642" x="187.868413" y="48.766987" style="fill: #0000ff; stroke: #0000ff"/>
     <use xlink:href="#mda9965a642" x="193.027119" y="48.766987" style="fill: #0000ff; stroke: #0000ff"/>
     <use xlink:href="#mda9965a642" x="198.185824" y="48.767069" style="fill: #0000ff; stroke: #0000ff"/>
     <use xlink:href="#mda9965a642" x="203.34453" y="48.766987" style="fill: #0000ff; stroke: #0000ff"/>
     <use xlink:href="#mda9965a642" x="208.503236" y="51.444453" style="fill: #0000ff; stroke: #0000ff"/>
     <use xlink:href="#mda9965a642" x="213.661941" y="47.511937" style="fill: #0000ff; stroke: #0000ff"/>
     <use xlink:href="#mda9965a642" x="218.820647" y="47.511937" style="fill: #0000ff; stroke: #0000ff"/>
     <use xlink:href="#mda9965a642" x="223.979353" y="46.791314" style="fill: #0000ff; stroke: #0000ff"/>
     <use xlink:href="#mda9965a642" x="229.138059" y="46.791314" style="fill: #0000ff; stroke: #0000ff"/>
     <use xlink:href="#mda9965a642" x="234.296764" y="50.066199" style="fill: #0000ff; stroke: #0000ff"/>
     <use xlink:href="#mda9965a642" x="239.45547" y="50.066199" style="fill: #0000ff; stroke: #0000ff"/>
     <use xlink:href="#mda9965a642" x="244.614176" y="47.099936" style="fill: #0000ff; stroke: #0000ff"/>
     <use xlink:href="#mda9965a642" x="249.772881" y="47.099218" style="fill: #0000ff; stroke: #0000ff"/>
     <use xlink:href="#mda9965a642" x="254.931587" y="47.099218" style="fill: #0000ff; stroke: #0000ff"/>
     <use xlink:href="#mda9965a642" x="260.090293" y="47.099218" style="fill: #0000ff; stroke: #0000ff"/>
     <use xlink:href="#mda9965a642" x="265.248998" y="47.099936" style="fill: #0000ff; stroke: #0000ff"/>
     <use xlink:href="#mda9965a642" x="270.407704" y="47.099218" style="fill: #0000ff; stroke: #0000ff"/>
     <use xlink:href="#mda9965a642" x="275.56641" y="46.871821" style="fill: #0000ff; stroke: #0000ff"/>
     <use xlink:href="#mda9965a642" x="280.725116" y="46.871821" style="fill: #0000ff; stroke: #0000ff"/>
     <use xlink:href="#mda9965a642" x="285.883821" y="47.033856" style="fill: #0000ff; stroke: #0000ff"/>
     <use xlink:href="#mda9965a642" x="291.042527" y="47.033445" style="fill: #0000ff; stroke: #0000ff"/>
     <use xlink:href="#mda9965a642" x="296.201233" y="47.033445" style="fill: #0000ff; stroke: #0000ff"/>
     <use xlink:href="#mda9965a642" x="301.359938" y="47.115903" style="fill: #0000ff; stroke: #0000ff"/>
     <use xlink:href="#mda9965a642" x="306.518644" y="47.033445" style="fill: #0000ff; stroke: #0000ff"/>
     <use xlink:href="#mda9965a642" x="311.67735" y="47.115642" style="fill: #0000ff; stroke: #0000ff"/>
     <use xlink:href="#mda9965a642" x="316.836055" y="47.033445" style="fill: #0000ff; stroke: #0000ff"/>
     <use xlink:href="#mda9965a642" x="321.994761" y="47.033445" style="fill: #0000ff; stroke: #0000ff"/>
     <use xlink:href="#mda9965a642" x="327.153467" y="46.872954" style="fill: #0000ff; stroke: #0000ff"/>
     <use xlink:href="#mda9965a642" x="332.312173" y="47.099936" style="fill: #0000ff; stroke: #0000ff"/>
     <use xlink:href="#mda9965a642" x="337.470878" y="46.872954" style="fill: #0000ff; stroke: #0000ff"/>
     <use xlink:href="#mda9965a642" x="342.629584" y="46.872954" style="fill: #0000ff; stroke: #0000ff"/>
     <use xlink:href="#mda9965a642" x="347.78829" y="46.872954" style="fill: #0000ff; stroke: #0000ff"/>
     <use xlink:href="#mda9965a642" x="352.946995" y="47.033856" style="fill: #0000ff; stroke: #0000ff"/>
     <use xlink:href="#mda9965a642" x="358.105701" y="47.033856" style="fill: #0000ff; stroke: #0000ff"/>
     <use xlink:href="#mda9965a642" x="363.264407" y="47.033856" style="fill: #0000ff; stroke: #0000ff"/>
     <use xlink:href="#mda9965a642" x="368.423112" y="47.033856" style="fill: #0000ff; stroke: #0000ff"/>
     <use xlink:href="#mda9965a642" x="373.581818" y="47.033856" style="fill: #0000ff; stroke: #0000ff"/>
    </g>
   </g>
   <g id="line2d_31">
    <path d="M 69.218182 253.578822 
L 74.376888 254.943821 
L 79.535593 250.824383 
L 84.694299 252.945497 
L 89.853005 252.98293 
L 95.01171 252.979234 
L 100.170416 252.908818 
L 105.329122 175.54962 
L 110.487827 166.992858 
L 115.646533 162.674756 
L 120.805239 162.778822 
L 125.963945 56.995833 
L 131.12265 49.81559 
L 136.281356 49.81559 
L 141.440062 49.810694 
L 146.598767 49.810654 
L 151.757473 56.517058 
L 156.916179 49.530313 
L 162.074884 49.530439 
L 167.23359 49.53034 
L 172.392296 49.530439 
L 177.551002 49.530439 
L 182.709707 49.530313 
L 187.868413 49.530439 
L 193.027119 49.530313 
L 198.185824 49.530382 
L 203.34453 49.530382 
L 208.503236 49.530382 
L 213.661941 49.332114 
L 218.820647 49.530382 
L 223.979353 49.530382 
L 229.138059 47.759799 
L 234.296764 43.870156 
L 239.45547 47.291952 
L 244.614176 47.291952 
L 249.772881 47.291952 
L 254.931587 47.291952 
L 260.090293 47.291952 
L 265.248998 47.291952 
L 270.407704 47.291952 
L 275.56641 47.291952 
L 280.725116 47.291952 
L 285.883821 47.291952 
L 291.042527 46.871255 
L 296.201233 46.871255 
L 301.359938 46.871255 
L 306.518644 46.871255 
L 311.67735 46.871255 
L 316.836055 46.871255 
L 321.994761 46.871095 
L 327.153467 46.871095 
L 332.312173 46.871095 
L 337.470878 46.871095 
L 342.629584 46.871095 
L 347.78829 46.871095 
L 352.946995 46.871095 
L 358.105701 46.871095 
L 363.264407 46.871095 
L 368.423112 46.871095 
L 373.581818 46.871095 
" clip-path="url(#p80f5979dde)" style="fill: none; stroke: #ff7763; stroke-width: 1.5; stroke-linecap: square"/>
    <defs>
     <path id="mc902189f26" d="M -2 2 
L 2 -2 
M -2 -2 
L 2 2 
" style="stroke: #ff7763"/>
    </defs>
    <g clip-path="url(#p80f5979dde)">
     <use xlink:href="#mc902189f26" x="69.218182" y="253.578822" style="fill: #ff7763; stroke: #ff7763"/>
     <use xlink:href="#mc902189f26" x="74.376888" y="254.943821" style="fill: #ff7763; stroke: #ff7763"/>
     <use xlink:href="#mc902189f26" x="79.535593" y="250.824383" style="fill: #ff7763; stroke: #ff7763"/>
     <use xlink:href="#mc902189f26" x="84.694299" y="252.945497" style="fill: #ff7763; stroke: #ff7763"/>
     <use xlink:href="#mc902189f26" x="89.853005" y="252.98293" style="fill: #ff7763; stroke: #ff7763"/>
     <use xlink:href="#mc902189f26" x="95.01171" y="252.979234" style="fill: #ff7763; stroke: #ff7763"/>
     <use xlink:href="#mc902189f26" x="100.170416" y="252.908818" style="fill: #ff7763; stroke: #ff7763"/>
     <use xlink:href="#mc902189f26" x="105.329122" y="175.54962" style="fill: #ff7763; stroke: #ff7763"/>
     <use xlink:href="#mc902189f26" x="110.487827" y="166.992858" style="fill: #ff7763; stroke: #ff7763"/>
     <use xlink:href="#mc902189f26" x="115.646533" y="162.674756" style="fill: #ff7763; stroke: #ff7763"/>
     <use xlink:href="#mc902189f26" x="120.805239" y="162.778822" style="fill: #ff7763; stroke: #ff7763"/>
     <use xlink:href="#mc902189f26" x="125.963945" y="56.995833" style="fill: #ff7763; stroke: #ff7763"/>
     <use xlink:href="#mc902189f26" x="131.12265" y="49.81559" style="fill: #ff7763; stroke: #ff7763"/>
     <use xlink:href="#mc902189f26" x="136.281356" y="49.81559" style="fill: #ff7763; stroke: #ff7763"/>
     <use xlink:href="#mc902189f26" x="141.440062" y="49.810694" style="fill: #ff7763; stroke: #ff7763"/>
     <use xlink:href="#mc902189f26" x="146.598767" y="49.810654" style="fill: #ff7763; stroke: #ff7763"/>
     <use xlink:href="#mc902189f26" x="151.757473" y="56.517058" style="fill: #ff7763; stroke: #ff7763"/>
     <use xlink:href="#mc902189f26" x="156.916179" y="49.530313" style="fill: #ff7763; stroke: #ff7763"/>
     <use xlink:href="#mc902189f26" x="162.074884" y="49.530439" style="fill: #ff7763; stroke: #ff7763"/>
     <use xlink:href="#mc902189f26" x="167.23359" y="49.53034" style="fill: #ff7763; stroke: #ff7763"/>
     <use xlink:href="#mc902189f26" x="172.392296" y="49.530439" style="fill: #ff7763; stroke: #ff7763"/>
     <use xlink:href="#mc902189f26" x="177.551002" y="49.530439" style="fill: #ff7763; stroke: #ff7763"/>
     <use xlink:href="#mc902189f26" x="182.709707" y="49.530313" style="fill: #ff7763; stroke: #ff7763"/>
     <use xlink:href="#mc902189f26" x="187.868413" y="49.530439" style="fill: #ff7763; stroke: #ff7763"/>
     <use xlink:href="#mc902189f26" x="193.027119" y="49.530313" style="fill: #ff7763; stroke: #ff7763"/>
     <use xlink:href="#mc902189f26" x="198.185824" y="49.530382" style="fill: #ff7763; stroke: #ff7763"/>
     <use xlink:href="#mc902189f26" x="203.34453" y="49.530382" style="fill: #ff7763; stroke: #ff7763"/>
     <use xlink:href="#mc902189f26" x="208.503236" y="49.530382" style="fill: #ff7763; stroke: #ff7763"/>
     <use xlink:href="#mc902189f26" x="213.661941" y="49.332114" style="fill: #ff7763; stroke: #ff7763"/>
     <use xlink:href="#mc902189f26" x="218.820647" y="49.530382" style="fill: #ff7763; stroke: #ff7763"/>
     <use xlink:href="#mc902189f26" x="223.979353" y="49.530382" style="fill: #ff7763; stroke: #ff7763"/>
     <use xlink:href="#mc902189f26" x="229.138059" y="47.759799" style="fill: #ff7763; stroke: #ff7763"/>
     <use xlink:href="#mc902189f26" x="234.296764" y="43.870156" style="fill: #ff7763; stroke: #ff7763"/>
     <use xlink:href="#mc902189f26" x="239.45547" y="47.291952" style="fill: #ff7763; stroke: #ff7763"/>
     <use xlink:href="#mc902189f26" x="244.614176" y="47.291952" style="fill: #ff7763; stroke: #ff7763"/>
     <use xlink:href="#mc902189f26" x="249.772881" y="47.291952" style="fill: #ff7763; stroke: #ff7763"/>
     <use xlink:href="#mc902189f26" x="254.931587" y="47.291952" style="fill: #ff7763; stroke: #ff7763"/>
     <use xlink:href="#mc902189f26" x="260.090293" y="47.291952" style="fill: #ff7763; stroke: #ff7763"/>
     <use xlink:href="#mc902189f26" x="265.248998" y="47.291952" style="fill: #ff7763; stroke: #ff7763"/>
     <use xlink:href="#mc902189f26" x="270.407704" y="47.291952" style="fill: #ff7763; stroke: #ff7763"/>
     <use xlink:href="#mc902189f26" x="275.56641" y="47.291952" style="fill: #ff7763; stroke: #ff7763"/>
     <use xlink:href="#mc902189f26" x="280.725116" y="47.291952" style="fill: #ff7763; stroke: #ff7763"/>
     <use xlink:href="#mc902189f26" x="285.883821" y="47.291952" style="fill: #ff7763; stroke: #ff7763"/>
     <use xlink:href="#mc902189f26" x="291.042527" y="46.871255" style="fill: #ff7763; stroke: #ff7763"/>
     <use xlink:href="#mc902189f26" x="296.201233" y="46.871255" style="fill: #ff7763; stroke: #ff7763"/>
     <use xlink:href="#mc902189f26" x="301.359938" y="46.871255" style="fill: #ff7763; stroke: #ff7763"/>
     <use xlink:href="#mc902189f26" x="306.518644" y="46.871255" style="fill: #ff7763; stroke: #ff7763"/>
     <use xlink:href="#mc902189f26" x="311.67735" y="46.871255" style="fill: #ff7763; stroke: #ff7763"/>
     <use xlink:href="#mc902189f26" x="316.836055" y="46.871255" style="fill: #ff7763; stroke: #ff7763"/>
     <use xlink:href="#mc902189f26" x="321.994761" y="46.871095" style="fill: #ff7763; stroke: #ff7763"/>
     <use xlink:href="#mc902189f26" x="327.153467" y="46.871095" style="fill: #ff7763; stroke: #ff7763"/>
     <use xlink:href="#mc902189f26" x="332.312173" y="46.871095" style="fill: #ff7763; stroke: #ff7763"/>
     <use xlink:href="#mc902189f26" x="337.470878" y="46.871095" style="fill: #ff7763; stroke: #ff7763"/>
     <use xlink:href="#mc902189f26" x="342.629584" y="46.871095" style="fill: #ff7763; stroke: #ff7763"/>
     <use xlink:href="#mc902189f26" x="347.78829" y="46.871095" style="fill: #ff7763; stroke: #ff7763"/>
     <use xlink:href="#mc902189f26" x="352.946995" y="46.871095" style="fill: #ff7763; stroke: #ff7763"/>
     <use xlink:href="#mc902189f26" x="358.105701" y="46.871095" style="fill: #ff7763; stroke: #ff7763"/>
     <use xlink:href="#mc902189f26" x="363.264407" y="46.871095" style="fill: #ff7763; stroke: #ff7763"/>
     <use xlink:href="#mc902189f26" x="368.423112" y="46.871095" style="fill: #ff7763; stroke: #ff7763"/>
     <use xlink:href="#mc902189f26" x="373.581818" y="46.871095" style="fill: #ff7763; stroke: #ff7763"/>
    </g>
   </g>
   <g id="line2d_32">
    <path d="M 69.218182 253.357365 
L 74.376888 254.632739 
L 79.535593 253.316076 
L 84.694299 252.913694 
L 89.853005 252.908818 
L 95.01171 252.921175 
L 100.170416 252.955827 
L 105.329122 149.945274 
L 110.487827 113.188729 
L 115.646533 71.290739 
L 120.805239 136.152331 
L 125.963945 67.749302 
L 131.12265 67.881899 
L 136.281356 67.749302 
L 141.440062 67.749302 
L 146.598767 67.749202 
L 151.757473 67.74975 
L 156.916179 69.214282 
L 162.074884 69.214369 
L 167.23359 71.786409 
L 172.392296 71.785713 
L 177.551002 71.785713 
L 182.709707 71.786108 
L 187.868413 71.786108 
L 193.027119 71.785713 
L 198.185824 71.786108 
L 203.34453 71.785713 
L 208.503236 71.785713 
L 213.661941 71.786108 
L 218.820647 71.785713 
L 223.979353 71.785713 
L 229.138059 71.785713 
L 234.296764 69.79006 
L 239.45547 69.790508 
L 244.614176 60.32534 
L 249.772881 60.0158 
L 254.931587 60.016161 
L 260.090293 59.014542 
L 265.248998 59.014131 
L 270.407704 59.014542 
L 275.56641 50.020136 
L 280.725116 50.019726 
L 285.883821 50.019726 
L 291.042527 50.020136 
L 296.201233 50.020136 
L 301.359938 50.861501 
L 306.518644 50.861501 
L 311.67735 50.020136 
L 316.836055 50.019726 
L 321.994761 50.019726 
L 327.153467 50.020136 
L 332.312173 50.019726 
L 337.470878 52.329644 
L 342.629584 52.329644 
L 347.78829 52.330044 
L 352.946995 51.378769 
L 358.105701 51.378769 
L 363.264407 49.91825 
L 368.423112 49.917838 
L 373.581818 49.917838 
" clip-path="url(#p80f5979dde)" style="fill: none; stroke: #ffac1e; stroke-width: 1.5; stroke-linecap: square"/>
    <defs>
     <path id="ma415997e3a" d="M 0 -2 
L -0.449028 -0.618034 
L -1.902113 -0.618034 
L -0.726543 0.236068 
L -1.175571 1.618034 
L -0 0.763932 
L 1.175571 1.618034 
L 0.726543 0.236068 
L 1.902113 -0.618034 
L 0.449028 -0.618034 
z
" style="stroke: #ffac1e; stroke-linejoin: bevel"/>
    </defs>
    <g clip-path="url(#p80f5979dde)">
     <use xlink:href="#ma415997e3a" x="69.218182" y="253.357365" style="fill: #ffac1e; stroke: #ffac1e; stroke-linejoin: bevel"/>
     <use xlink:href="#ma415997e3a" x="74.376888" y="254.632739" style="fill: #ffac1e; stroke: #ffac1e; stroke-linejoin: bevel"/>
     <use xlink:href="#ma415997e3a" x="79.535593" y="253.316076" style="fill: #ffac1e; stroke: #ffac1e; stroke-linejoin: bevel"/>
     <use xlink:href="#ma415997e3a" x="84.694299" y="252.913694" style="fill: #ffac1e; stroke: #ffac1e; stroke-linejoin: bevel"/>
     <use xlink:href="#ma415997e3a" x="89.853005" y="252.908818" style="fill: #ffac1e; stroke: #ffac1e; stroke-linejoin: bevel"/>
     <use xlink:href="#ma415997e3a" x="95.01171" y="252.921175" style="fill: #ffac1e; stroke: #ffac1e; stroke-linejoin: bevel"/>
     <use xlink:href="#ma415997e3a" x="100.170416" y="252.955827" style="fill: #ffac1e; stroke: #ffac1e; stroke-linejoin: bevel"/>
     <use xlink:href="#ma415997e3a" x="105.329122" y="149.945274" style="fill: #ffac1e; stroke: #ffac1e; stroke-linejoin: bevel"/>
     <use xlink:href="#ma415997e3a" x="110.487827" y="113.188729" style="fill: #ffac1e; stroke: #ffac1e; stroke-linejoin: bevel"/>
     <use xlink:href="#ma415997e3a" x="115.646533" y="71.290739" style="fill: #ffac1e; stroke: #ffac1e; stroke-linejoin: bevel"/>
     <use xlink:href="#ma415997e3a" x="120.805239" y="136.152331" style="fill: #ffac1e; stroke: #ffac1e; stroke-linejoin: bevel"/>
     <use xlink:href="#ma415997e3a" x="125.963945" y="67.749302" style="fill: #ffac1e; stroke: #ffac1e; stroke-linejoin: bevel"/>
     <use xlink:href="#ma415997e3a" x="131.12265" y="67.881899" style="fill: #ffac1e; stroke: #ffac1e; stroke-linejoin: bevel"/>
     <use xlink:href="#ma415997e3a" x="136.281356" y="67.749302" style="fill: #ffac1e; stroke: #ffac1e; stroke-linejoin: bevel"/>
     <use xlink:href="#ma415997e3a" x="141.440062" y="67.749302" style="fill: #ffac1e; stroke: #ffac1e; stroke-linejoin: bevel"/>
     <use xlink:href="#ma415997e3a" x="146.598767" y="67.749202" style="fill: #ffac1e; stroke: #ffac1e; stroke-linejoin: bevel"/>
     <use xlink:href="#ma415997e3a" x="151.757473" y="67.74975" style="fill: #ffac1e; stroke: #ffac1e; stroke-linejoin: bevel"/>
     <use xlink:href="#ma415997e3a" x="156.916179" y="69.214282" style="fill: #ffac1e; stroke: #ffac1e; stroke-linejoin: bevel"/>
     <use xlink:href="#ma415997e3a" x="162.074884" y="69.214369" style="fill: #ffac1e; stroke: #ffac1e; stroke-linejoin: bevel"/>
     <use xlink:href="#ma415997e3a" x="167.23359" y="71.786409" style="fill: #ffac1e; stroke: #ffac1e; stroke-linejoin: bevel"/>
     <use xlink:href="#ma415997e3a" x="172.392296" y="71.785713" style="fill: #ffac1e; stroke: #ffac1e; stroke-linejoin: bevel"/>
     <use xlink:href="#ma415997e3a" x="177.551002" y="71.785713" style="fill: #ffac1e; stroke: #ffac1e; stroke-linejoin: bevel"/>
     <use xlink:href="#ma415997e3a" x="182.709707" y="71.786108" style="fill: #ffac1e; stroke: #ffac1e; stroke-linejoin: bevel"/>
     <use xlink:href="#ma415997e3a" x="187.868413" y="71.786108" style="fill: #ffac1e; stroke: #ffac1e; stroke-linejoin: bevel"/>
     <use xlink:href="#ma415997e3a" x="193.027119" y="71.785713" style="fill: #ffac1e; stroke: #ffac1e; stroke-linejoin: bevel"/>
     <use xlink:href="#ma415997e3a" x="198.185824" y="71.786108" style="fill: #ffac1e; stroke: #ffac1e; stroke-linejoin: bevel"/>
     <use xlink:href="#ma415997e3a" x="203.34453" y="71.785713" style="fill: #ffac1e; stroke: #ffac1e; stroke-linejoin: bevel"/>
     <use xlink:href="#ma415997e3a" x="208.503236" y="71.785713" style="fill: #ffac1e; stroke: #ffac1e; stroke-linejoin: bevel"/>
     <use xlink:href="#ma415997e3a" x="213.661941" y="71.786108" style="fill: #ffac1e; stroke: #ffac1e; stroke-linejoin: bevel"/>
     <use xlink:href="#ma415997e3a" x="218.820647" y="71.785713" style="fill: #ffac1e; stroke: #ffac1e; stroke-linejoin: bevel"/>
     <use xlink:href="#ma415997e3a" x="223.979353" y="71.785713" style="fill: #ffac1e; stroke: #ffac1e; stroke-linejoin: bevel"/>
     <use xlink:href="#ma415997e3a" x="229.138059" y="71.785713" style="fill: #ffac1e; stroke: #ffac1e; stroke-linejoin: bevel"/>
     <use xlink:href="#ma415997e3a" x="234.296764" y="69.79006" style="fill: #ffac1e; stroke: #ffac1e; stroke-linejoin: bevel"/>
     <use xlink:href="#ma415997e3a" x="239.45547" y="69.790508" style="fill: #ffac1e; stroke: #ffac1e; stroke-linejoin: bevel"/>
     <use xlink:href="#ma415997e3a" x="244.614176" y="60.32534" style="fill: #ffac1e; stroke: #ffac1e; stroke-linejoin: bevel"/>
     <use xlink:href="#ma415997e3a" x="249.772881" y="60.0158" style="fill: #ffac1e; stroke: #ffac1e; stroke-linejoin: bevel"/>
     <use xlink:href="#ma415997e3a" x="254.931587" y="60.016161" style="fill: #ffac1e; stroke: #ffac1e; stroke-linejoin: bevel"/>
     <use xlink:href="#ma415997e3a" x="260.090293" y="59.014542" style="fill: #ffac1e; stroke: #ffac1e; stroke-linejoin: bevel"/>
     <use xlink:href="#ma415997e3a" x="265.248998" y="59.014131" style="fill: #ffac1e; stroke: #ffac1e; stroke-linejoin: bevel"/>
     <use xlink:href="#ma415997e3a" x="270.407704" y="59.014542" style="fill: #ffac1e; stroke: #ffac1e; stroke-linejoin: bevel"/>
     <use xlink:href="#ma415997e3a" x="275.56641" y="50.020136" style="fill: #ffac1e; stroke: #ffac1e; stroke-linejoin: bevel"/>
     <use xlink:href="#ma415997e3a" x="280.725116" y="50.019726" style="fill: #ffac1e; stroke: #ffac1e; stroke-linejoin: bevel"/>
     <use xlink:href="#ma415997e3a" x="285.883821" y="50.019726" style="fill: #ffac1e; stroke: #ffac1e; stroke-linejoin: bevel"/>
     <use xlink:href="#ma415997e3a" x="291.042527" y="50.020136" style="fill: #ffac1e; stroke: #ffac1e; stroke-linejoin: bevel"/>
     <use xlink:href="#ma415997e3a" x="296.201233" y="50.020136" style="fill: #ffac1e; stroke: #ffac1e; stroke-linejoin: bevel"/>
     <use xlink:href="#ma415997e3a" x="301.359938" y="50.861501" style="fill: #ffac1e; stroke: #ffac1e; stroke-linejoin: bevel"/>
     <use xlink:href="#ma415997e3a" x="306.518644" y="50.861501" style="fill: #ffac1e; stroke: #ffac1e; stroke-linejoin: bevel"/>
     <use xlink:href="#ma415997e3a" x="311.67735" y="50.020136" style="fill: #ffac1e; stroke: #ffac1e; stroke-linejoin: bevel"/>
     <use xlink:href="#ma415997e3a" x="316.836055" y="50.019726" style="fill: #ffac1e; stroke: #ffac1e; stroke-linejoin: bevel"/>
     <use xlink:href="#ma415997e3a" x="321.994761" y="50.019726" style="fill: #ffac1e; stroke: #ffac1e; stroke-linejoin: bevel"/>
     <use xlink:href="#ma415997e3a" x="327.153467" y="50.020136" style="fill: #ffac1e; stroke: #ffac1e; stroke-linejoin: bevel"/>
     <use xlink:href="#ma415997e3a" x="332.312173" y="50.019726" style="fill: #ffac1e; stroke: #ffac1e; stroke-linejoin: bevel"/>
     <use xlink:href="#ma415997e3a" x="337.470878" y="52.329644" style="fill: #ffac1e; stroke: #ffac1e; stroke-linejoin: bevel"/>
     <use xlink:href="#ma415997e3a" x="342.629584" y="52.329644" style="fill: #ffac1e; stroke: #ffac1e; stroke-linejoin: bevel"/>
     <use xlink:href="#ma415997e3a" x="347.78829" y="52.330044" style="fill: #ffac1e; stroke: #ffac1e; stroke-linejoin: bevel"/>
     <use xlink:href="#ma415997e3a" x="352.946995" y="51.378769" style="fill: #ffac1e; stroke: #ffac1e; stroke-linejoin: bevel"/>
     <use xlink:href="#ma415997e3a" x="358.105701" y="51.378769" style="fill: #ffac1e; stroke: #ffac1e; stroke-linejoin: bevel"/>
     <use xlink:href="#ma415997e3a" x="363.264407" y="49.91825" style="fill: #ffac1e; stroke: #ffac1e; stroke-linejoin: bevel"/>
     <use xlink:href="#ma415997e3a" x="368.423112" y="49.917838" style="fill: #ffac1e; stroke: #ffac1e; stroke-linejoin: bevel"/>
     <use xlink:href="#ma415997e3a" x="373.581818" y="49.917838" style="fill: #ffac1e; stroke: #ffac1e; stroke-linejoin: bevel"/>
    </g>
   </g>
   <g id="line2d_33">
    <path d="M 69.218182 261.501698 
L 74.376888 253.465847 
L 79.535593 158.498383 
L 84.694299 240.515891 
L 89.853005 190.137981 
L 95.01171 192.768173 
L 100.170416 250.001625 
L 105.329122 237.715672 
L 110.487827 237.766205 
L 115.646533 148.234111 
L 120.805239 70.994805 
L 125.963945 124.326026 
L 131.12265 124.49612 
L 136.281356 64.100322 
L 141.440062 65.548781 
L 146.598767 63.216139 
L 151.757473 54.447664 
L 156.916179 47.245272 
L 162.074884 50.685445 
L 167.23359 47.245272 
L 172.392296 50.685445 
L 177.551002 47.54597 
L 182.709707 48.834158 
L 187.868413 48.497831 
L 193.027119 48.834158 
L 198.185824 48.834158 
L 203.34453 47.098843 
L 208.503236 47.54597 
L 213.661941 47.54597 
L 218.820647 47.54597 
L 223.979353 47.54597 
L 229.138059 47.54597 
L 234.296764 47.54597 
L 239.45547 47.54597 
L 244.614176 47.54597 
L 249.772881 47.546211 
L 254.931587 47.546211 
L 260.090293 47.099076 
L 265.248998 47.54597 
L 270.407704 47.098843 
L 275.56641 47.098843 
L 280.725116 47.098843 
L 285.883821 47.098843 
L 291.042527 47.098843 
L 296.201233 47.098843 
L 301.359938 47.098843 
L 306.518644 47.098843 
L 311.67735 46.90838 
L 316.836055 46.90838 
L 321.994761 47.098843 
L 327.153467 47.098843 
L 332.312173 47.098843 
L 337.470878 46.90838 
L 342.629584 46.90838 
L 347.78829 46.90838 
L 352.946995 46.90838 
L 358.105701 46.90838 
L 363.264407 47.098843 
L 368.423112 46.90838 
L 373.581818 46.90838 
" clip-path="url(#p80f5979dde)" style="fill: none; stroke: #009435; stroke-width: 1.5; stroke-linecap: square"/>
    <defs>
     <path id="m899db891b2" d="M -2 2 
L 2 2 
L 2 -2 
L -2 -2 
z
" style="stroke: #009435; stroke-linejoin: miter"/>
    </defs>
    <g clip-path="url(#p80f5979dde)">
     <use xlink:href="#m899db891b2" x="69.218182" y="261.501698" style="fill: #009435; stroke: #009435; stroke-linejoin: miter"/>
     <use xlink:href="#m899db891b2" x="74.376888" y="253.465847" style="fill: #009435; stroke: #009435; stroke-linejoin: miter"/>
     <use xlink:href="#m899db891b2" x="79.535593" y="158.498383" style="fill: #009435; stroke: #009435; stroke-linejoin: miter"/>
     <use xlink:href="#m899db891b2" x="84.694299" y="240.515891" style="fill: #009435; stroke: #009435; stroke-linejoin: miter"/>
     <use xlink:href="#m899db891b2" x="89.853005" y="190.137981" style="fill: #009435; stroke: #009435; stroke-linejoin: miter"/>
     <use xlink:href="#m899db891b2" x="95.01171" y="192.768173" style="fill: #009435; stroke: #009435; stroke-linejoin: miter"/>
     <use xlink:href="#m899db891b2" x="100.170416" y="250.001625" style="fill: #009435; stroke: #009435; stroke-linejoin: miter"/>
     <use xlink:href="#m899db891b2" x="105.329122" y="237.715672" style="fill: #009435; stroke: #009435; stroke-linejoin: miter"/>
     <use xlink:href="#m899db891b2" x="110.487827" y="237.766205" style="fill: #009435; stroke: #009435; stroke-linejoin: miter"/>
     <use xlink:href="#m899db891b2" x="115.646533" y="148.234111" style="fill: #009435; stroke: #009435; stroke-linejoin: miter"/>
     <use xlink:href="#m899db891b2" x="120.805239" y="70.994805" style="fill: #009435; stroke: #009435; stroke-linejoin: miter"/>
     <use xlink:href="#m899db891b2" x="125.963945" y="124.326026" style="fill: #009435; stroke: #009435; stroke-linejoin: miter"/>
     <use xlink:href="#m899db891b2" x="131.12265" y="124.49612" style="fill: #009435; stroke: #009435; stroke-linejoin: miter"/>
     <use xlink:href="#m899db891b2" x="136.281356" y="64.100322" style="fill: #009435; stroke: #009435; stroke-linejoin: miter"/>
     <use xlink:href="#m899db891b2" x="141.440062" y="65.548781" style="fill: #009435; stroke: #009435; stroke-linejoin: miter"/>
     <use xlink:href="#m899db891b2" x="146.598767" y="63.216139" style="fill: #009435; stroke: #009435; stroke-linejoin: miter"/>
     <use xlink:href="#m899db891b2" x="151.757473" y="54.447664" style="fill: #009435; stroke: #009435; stroke-linejoin: miter"/>
     <use xlink:href="#m899db891b2" x="156.916179" y="47.245272" style="fill: #009435; stroke: #009435; stroke-linejoin: miter"/>
     <use xlink:href="#m899db891b2" x="162.074884" y="50.685445" style="fill: #009435; stroke: #009435; stroke-linejoin: miter"/>
     <use xlink:href="#m899db891b2" x="167.23359" y="47.245272" style="fill: #009435; stroke: #009435; stroke-linejoin: miter"/>
     <use xlink:href="#m899db891b2" x="172.392296" y="50.685445" style="fill: #009435; stroke: #009435; stroke-linejoin: miter"/>
     <use xlink:href="#m899db891b2" x="177.551002" y="47.54597" style="fill: #009435; stroke: #009435; stroke-linejoin: miter"/>
     <use xlink:href="#m899db891b2" x="182.709707" y="48.834158" style="fill: #009435; stroke: #009435; stroke-linejoin: miter"/>
     <use xlink:href="#m899db891b2" x="187.868413" y="48.497831" style="fill: #009435; stroke: #009435; stroke-linejoin: miter"/>
     <use xlink:href="#m899db891b2" x="193.027119" y="48.834158" style="fill: #009435; stroke: #009435; stroke-linejoin: miter"/>
     <use xlink:href="#m899db891b2" x="198.185824" y="48.834158" style="fill: #009435; stroke: #009435; stroke-linejoin: miter"/>
     <use xlink:href="#m899db891b2" x="203.34453" y="47.098843" style="fill: #009435; stroke: #009435; stroke-linejoin: miter"/>
     <use xlink:href="#m899db891b2" x="208.503236" y="47.54597" style="fill: #009435; stroke: #009435; stroke-linejoin: miter"/>
     <use xlink:href="#m899db891b2" x="213.661941" y="47.54597" style="fill: #009435; stroke: #009435; stroke-linejoin: miter"/>
     <use xlink:href="#m899db891b2" x="218.820647" y="47.54597" style="fill: #009435; stroke: #009435; stroke-linejoin: miter"/>
     <use xlink:href="#m899db891b2" x="223.979353" y="47.54597" style="fill: #009435; stroke: #009435; stroke-linejoin: miter"/>
     <use xlink:href="#m899db891b2" x="229.138059" y="47.54597" style="fill: #009435; stroke: #009435; stroke-linejoin: miter"/>
     <use xlink:href="#m899db891b2" x="234.296764" y="47.54597" style="fill: #009435; stroke: #009435; stroke-linejoin: miter"/>
     <use xlink:href="#m899db891b2" x="239.45547" y="47.54597" style="fill: #009435; stroke: #009435; stroke-linejoin: miter"/>
     <use xlink:href="#m899db891b2" x="244.614176" y="47.54597" style="fill: #009435; stroke: #009435; stroke-linejoin: miter"/>
     <use xlink:href="#m899db891b2" x="249.772881" y="47.546211" style="fill: #009435; stroke: #009435; stroke-linejoin: miter"/>
     <use xlink:href="#m899db891b2" x="254.931587" y="47.546211" style="fill: #009435; stroke: #009435; stroke-linejoin: miter"/>
     <use xlink:href="#m899db891b2" x="260.090293" y="47.099076" style="fill: #009435; stroke: #009435; stroke-linejoin: miter"/>
     <use xlink:href="#m899db891b2" x="265.248998" y="47.54597" style="fill: #009435; stroke: #009435; stroke-linejoin: miter"/>
     <use xlink:href="#m899db891b2" x="270.407704" y="47.098843" style="fill: #009435; stroke: #009435; stroke-linejoin: miter"/>
     <use xlink:href="#m899db891b2" x="275.56641" y="47.098843" style="fill: #009435; stroke: #009435; stroke-linejoin: miter"/>
     <use xlink:href="#m899db891b2" x="280.725116" y="47.098843" style="fill: #009435; stroke: #009435; stroke-linejoin: miter"/>
     <use xlink:href="#m899db891b2" x="285.883821" y="47.098843" style="fill: #009435; stroke: #009435; stroke-linejoin: miter"/>
     <use xlink:href="#m899db891b2" x="291.042527" y="47.098843" style="fill: #009435; stroke: #009435; stroke-linejoin: miter"/>
     <use xlink:href="#m899db891b2" x="296.201233" y="47.098843" style="fill: #009435; stroke: #009435; stroke-linejoin: miter"/>
     <use xlink:href="#m899db891b2" x="301.359938" y="47.098843" style="fill: #009435; stroke: #009435; stroke-linejoin: miter"/>
     <use xlink:href="#m899db891b2" x="306.518644" y="47.098843" style="fill: #009435; stroke: #009435; stroke-linejoin: miter"/>
     <use xlink:href="#m899db891b2" x="311.67735" y="46.90838" style="fill: #009435; stroke: #009435; stroke-linejoin: miter"/>
     <use xlink:href="#m899db891b2" x="316.836055" y="46.90838" style="fill: #009435; stroke: #009435; stroke-linejoin: miter"/>
     <use xlink:href="#m899db891b2" x="321.994761" y="47.098843" style="fill: #009435; stroke: #009435; stroke-linejoin: miter"/>
     <use xlink:href="#m899db891b2" x="327.153467" y="47.098843" style="fill: #009435; stroke: #009435; stroke-linejoin: miter"/>
     <use xlink:href="#m899db891b2" x="332.312173" y="47.098843" style="fill: #009435; stroke: #009435; stroke-linejoin: miter"/>
     <use xlink:href="#m899db891b2" x="337.470878" y="46.90838" style="fill: #009435; stroke: #009435; stroke-linejoin: miter"/>
     <use xlink:href="#m899db891b2" x="342.629584" y="46.90838" style="fill: #009435; stroke: #009435; stroke-linejoin: miter"/>
     <use xlink:href="#m899db891b2" x="347.78829" y="46.90838" style="fill: #009435; stroke: #009435; stroke-linejoin: miter"/>
     <use xlink:href="#m899db891b2" x="352.946995" y="46.90838" style="fill: #009435; stroke: #009435; stroke-linejoin: miter"/>
     <use xlink:href="#m899db891b2" x="358.105701" y="46.90838" style="fill: #009435; stroke: #009435; stroke-linejoin: miter"/>
     <use xlink:href="#m899db891b2" x="363.264407" y="47.098843" style="fill: #009435; stroke: #009435; stroke-linejoin: miter"/>
     <use xlink:href="#m899db891b2" x="368.423112" y="46.90838" style="fill: #009435; stroke: #009435; stroke-linejoin: miter"/>
     <use xlink:href="#m899db891b2" x="373.581818" y="46.90838" style="fill: #009435; stroke: #009435; stroke-linejoin: miter"/>
    </g>
   </g>
   <g id="patch_3">
    <path d="M 54 252 
L 54 34.56 
" style="fill: none; stroke: #000000; stroke-width: 0.8; stroke-linejoin: miter; stroke-linecap: square"/>
   </g>
   <g id="patch_4">
    <path d="M 388.8 252 
L 388.8 34.56 
" style="fill: none; stroke: #000000; stroke-width: 0.8; stroke-linejoin: miter; stroke-linecap: square"/>
   </g>
   <g id="patch_5">
    <path d="M 54 252 
L 388.8 252 
" style="fill: none; stroke: #000000; stroke-width: 0.8; stroke-linejoin: miter; stroke-linecap: square"/>
   </g>
   <g id="patch_6">
    <path d="M 54 34.56 
L 388.8 34.56 
" style="fill: none; stroke: #000000; stroke-width: 0.8; stroke-linejoin: miter; stroke-linecap: square"/>
   </g>
   <g id="text_17">
    <!-- R-max optimal policy with m = 5 -->
    <g transform="translate(123.0225 28.56)scale(0.12 -0.12)">
     <defs>
      <path id="DejaVuSans-52" d="M 2841 2188 
Q 3044 2119 3236 1894 
Q 3428 1669 3622 1275 
L 4263 0 
L 3584 0 
L 2988 1197 
Q 2756 1666 2539 1819 
Q 2322 1972 1947 1972 
L 1259 1972 
L 1259 0 
L 628 0 
L 628 4666 
L 2053 4666 
Q 2853 4666 3247 4331 
Q 3641 3997 3641 3322 
Q 3641 2881 3436 2590 
Q 3231 2300 2841 2188 
z
M 1259 4147 
L 1259 2491 
L 2053 2491 
Q 2509 2491 2742 2702 
Q 2975 2913 2975 3322 
Q 2975 3731 2742 3939 
Q 2509 4147 2053 4147 
L 1259 4147 
z
" transform="scale(0.015625)"/>
      <path id="DejaVuSans-2d" d="M 313 2009 
L 1997 2009 
L 1997 1497 
L 313 1497 
L 313 2009 
z
" transform="scale(0.015625)"/>
      <path id="DejaVuSans-6d" d="M 3328 2828 
Q 3544 3216 3844 3400 
Q 4144 3584 4550 3584 
Q 5097 3584 5394 3201 
Q 5691 2819 5691 2113 
L 5691 0 
L 5113 0 
L 5113 2094 
Q 5113 2597 4934 2840 
Q 4756 3084 4391 3084 
Q 3944 3084 3684 2787 
Q 3425 2491 3425 1978 
L 3425 0 
L 2847 0 
L 2847 2094 
Q 2847 2600 2669 2842 
Q 2491 3084 2119 3084 
Q 1678 3084 1418 2786 
Q 1159 2488 1159 1978 
L 1159 0 
L 581 0 
L 581 3500 
L 1159 3500 
L 1159 2956 
Q 1356 3278 1631 3431 
Q 1906 3584 2284 3584 
Q 2666 3584 2933 3390 
Q 3200 3197 3328 2828 
z
" transform="scale(0.015625)"/>
      <path id="DejaVuSans-78" d="M 3513 3500 
L 2247 1797 
L 3578 0 
L 2900 0 
L 1881 1375 
L 863 0 
L 184 0 
L 1544 1831 
L 300 3500 
L 978 3500 
L 1906 2253 
L 2834 3500 
L 3513 3500 
z
" transform="scale(0.015625)"/>
      <path id="DejaVuSans-77" d="M 269 3500 
L 844 3500 
L 1563 769 
L 2278 3500 
L 2956 3500 
L 3675 769 
L 4391 3500 
L 4966 3500 
L 4050 0 
L 3372 0 
L 2619 2869 
L 1863 0 
L 1184 0 
L 269 3500 
z
" transform="scale(0.015625)"/>
      <path id="DejaVuSans-68" d="M 3513 2113 
L 3513 0 
L 2938 0 
L 2938 2094 
Q 2938 2591 2744 2837 
Q 2550 3084 2163 3084 
Q 1697 3084 1428 2787 
Q 1159 2491 1159 1978 
L 1159 0 
L 581 0 
L 581 4863 
L 1159 4863 
L 1159 2956 
Q 1366 3272 1645 3428 
Q 1925 3584 2291 3584 
Q 2894 3584 3203 3211 
Q 3513 2838 3513 2113 
z
" transform="scale(0.015625)"/>
      <path id="DejaVuSans-3d" d="M 678 2906 
L 4684 2906 
L 4684 2381 
L 678 2381 
L 678 2906 
z
M 678 1631 
L 4684 1631 
L 4684 1100 
L 678 1100 
L 678 1631 
z
" transform="scale(0.015625)"/>
     </defs>
     <use xlink:href="#DejaVuSans-52"/>
     <use xlink:href="#DejaVuSans-2d" x="65.482422"/>
     <use xlink:href="#DejaVuSans-6d" x="101.566406"/>
     <use xlink:href="#DejaVuSans-61" x="198.978516"/>
     <use xlink:href="#DejaVuSans-78" x="260.257812"/>
     <use xlink:href="#DejaVuSans-20" x="319.4375"/>
     <use xlink:href="#DejaVuSans-6f" x="351.224609"/>
     <use xlink:href="#DejaVuSans-70" x="412.40625"/>
     <use xlink:href="#DejaVuSans-74" x="475.882812"/>
     <use xlink:href="#DejaVuSans-69" x="515.091797"/>
     <use xlink:href="#DejaVuSans-6d" x="542.875"/>
     <use xlink:href="#DejaVuSans-61" x="640.287109"/>
     <use xlink:href="#DejaVuSans-6c" x="701.566406"/>
     <use xlink:href="#DejaVuSans-20" x="729.349609"/>
     <use xlink:href="#DejaVuSans-70" x="761.136719"/>
     <use xlink:href="#DejaVuSans-6f" x="824.613281"/>
     <use xlink:href="#DejaVuSans-6c" x="885.794922"/>
     <use xlink:href="#DejaVuSans-69" x="913.578125"/>
     <use xlink:href="#DejaVuSans-63" x="941.361328"/>
     <use xlink:href="#DejaVuSans-79" x="996.341797"/>
     <use xlink:href="#DejaVuSans-20" x="1055.521484"/>
     <use xlink:href="#DejaVuSans-77" x="1087.308594"/>
     <use xlink:href="#DejaVuSans-69" x="1169.095703"/>
     <use xlink:href="#DejaVuSans-74" x="1196.878906"/>
     <use xlink:href="#DejaVuSans-68" x="1236.087891"/>
     <use xlink:href="#DejaVuSans-20" x="1299.466797"/>
     <use xlink:href="#DejaVuSans-6d" x="1331.253906"/>
     <use xlink:href="#DejaVuSans-20" x="1428.666016"/>
     <use xlink:href="#DejaVuSans-3d" x="1460.453125"/>
     <use xlink:href="#DejaVuSans-20" x="1544.242188"/>
     <use xlink:href="#DejaVuSans-35" x="1576.029297"/>
    </g>
   </g>
   <g id="legend_1">
    <g id="patch_7">
     <path d="M 230.8125 247 
L 381.8 247 
Q 383.8 247 383.8 245 
L 383.8 171.21875 
Q 383.8 169.21875 381.8 169.21875 
L 230.8125 169.21875 
Q 228.8125 169.21875 228.8125 171.21875 
L 228.8125 245 
Q 228.8125 247 230.8125 247 
z
" style="fill: #ffffff; opacity: 0.8; stroke: #cccccc; stroke-linejoin: miter"/>
    </g>
    <g id="line2d_34">
     <path d="M 232.8125 177.317187 
L 242.8125 177.317187 
L 252.8125 177.317187 
" style="fill: none; stroke: #9d02d7; stroke-width: 1.5; stroke-linecap: square"/>
     <g>
      <use xlink:href="#mc72f53b0a4" x="242.8125" y="177.317187" style="fill: #9d02d7; stroke: #9d02d7; stroke-linejoin: miter"/>
     </g>
    </g>
    <g id="text_18">
     <!-- m_uncertain_states=5 -->
     <g transform="translate(260.8125 180.817187)scale(0.1 -0.1)">
      <defs>
       <path id="DejaVuSans-5f" d="M 3263 -1063 
L 3263 -1509 
L -63 -1509 
L -63 -1063 
L 3263 -1063 
z
" transform="scale(0.015625)"/>
       <path id="DejaVuSans-6e" d="M 3513 2113 
L 3513 0 
L 2938 0 
L 2938 2094 
Q 2938 2591 2744 2837 
Q 2550 3084 2163 3084 
Q 1697 3084 1428 2787 
Q 1159 2491 1159 1978 
L 1159 0 
L 581 0 
L 581 3500 
L 1159 3500 
L 1159 2956 
Q 1366 3272 1645 3428 
Q 1925 3584 2291 3584 
Q 2894 3584 3203 3211 
Q 3513 2838 3513 2113 
z
" transform="scale(0.015625)"/>
      </defs>
      <use xlink:href="#DejaVuSans-6d"/>
      <use xlink:href="#DejaVuSans-5f" x="97.412109"/>
      <use xlink:href="#DejaVuSans-75" x="147.412109"/>
      <use xlink:href="#DejaVuSans-6e" x="210.791016"/>
      <use xlink:href="#DejaVuSans-63" x="274.169922"/>
      <use xlink:href="#DejaVuSans-65" x="329.150391"/>
      <use xlink:href="#DejaVuSans-72" x="390.673828"/>
      <use xlink:href="#DejaVuSans-74" x="431.787109"/>
      <use xlink:href="#DejaVuSans-61" x="470.996094"/>
      <use xlink:href="#DejaVuSans-69" x="532.275391"/>
      <use xlink:href="#DejaVuSans-6e" x="560.058594"/>
      <use xlink:href="#DejaVuSans-5f" x="623.4375"/>
      <use xlink:href="#DejaVuSans-73" x="673.4375"/>
      <use xlink:href="#DejaVuSans-74" x="725.537109"/>
      <use xlink:href="#DejaVuSans-61" x="764.746094"/>
      <use xlink:href="#DejaVuSans-74" x="826.025391"/>
      <use xlink:href="#DejaVuSans-65" x="865.234375"/>
      <use xlink:href="#DejaVuSans-73" x="926.757812"/>
      <use xlink:href="#DejaVuSans-3d" x="978.857422"/>
      <use xlink:href="#DejaVuSans-35" x="1062.646484"/>
     </g>
    </g>
    <g id="line2d_35">
     <path d="M 232.8125 192.273438 
L 242.8125 192.273438 
L 252.8125 192.273438 
" style="fill: none; stroke: #0000ff; stroke-width: 1.5; stroke-linecap: square"/>
     <g>
      <use xlink:href="#mda9965a642" x="242.8125" y="192.273438" style="fill: #0000ff; stroke: #0000ff"/>
     </g>
    </g>
    <g id="text_19">
     <!-- m_uncertain_states=10 -->
     <g transform="translate(260.8125 195.773438)scale(0.1 -0.1)">
      <use xlink:href="#DejaVuSans-6d"/>
      <use xlink:href="#DejaVuSans-5f" x="97.412109"/>
      <use xlink:href="#DejaVuSans-75" x="147.412109"/>
      <use xlink:href="#DejaVuSans-6e" x="210.791016"/>
      <use xlink:href="#DejaVuSans-63" x="274.169922"/>
      <use xlink:href="#DejaVuSans-65" x="329.150391"/>
      <use xlink:href="#DejaVuSans-72" x="390.673828"/>
      <use xlink:href="#DejaVuSans-74" x="431.787109"/>
      <use xlink:href="#DejaVuSans-61" x="470.996094"/>
      <use xlink:href="#DejaVuSans-69" x="532.275391"/>
      <use xlink:href="#DejaVuSans-6e" x="560.058594"/>
      <use xlink:href="#DejaVuSans-5f" x="623.4375"/>
      <use xlink:href="#DejaVuSans-73" x="673.4375"/>
      <use xlink:href="#DejaVuSans-74" x="725.537109"/>
      <use xlink:href="#DejaVuSans-61" x="764.746094"/>
      <use xlink:href="#DejaVuSans-74" x="826.025391"/>
      <use xlink:href="#DejaVuSans-65" x="865.234375"/>
      <use xlink:href="#DejaVuSans-73" x="926.757812"/>
      <use xlink:href="#DejaVuSans-3d" x="978.857422"/>
      <use xlink:href="#DejaVuSans-31" x="1062.646484"/>
      <use xlink:href="#DejaVuSans-30" x="1126.269531"/>
     </g>
    </g>
    <g id="line2d_36">
     <path d="M 232.8125 207.229688 
L 242.8125 207.229688 
L 252.8125 207.229688 
" style="fill: none; stroke: #ff7763; stroke-width: 1.5; stroke-linecap: square"/>
     <g>
      <use xlink:href="#mc902189f26" x="242.8125" y="207.229688" style="fill: #ff7763; stroke: #ff7763"/>
     </g>
    </g>
    <g id="text_20">
     <!-- m_uncertain_states=15 -->
     <g transform="translate(260.8125 210.729688)scale(0.1 -0.1)">
      <use xlink:href="#DejaVuSans-6d"/>
      <use xlink:href="#DejaVuSans-5f" x="97.412109"/>
      <use xlink:href="#DejaVuSans-75" x="147.412109"/>
      <use xlink:href="#DejaVuSans-6e" x="210.791016"/>
      <use xlink:href="#DejaVuSans-63" x="274.169922"/>
      <use xlink:href="#DejaVuSans-65" x="329.150391"/>
      <use xlink:href="#DejaVuSans-72" x="390.673828"/>
      <use xlink:href="#DejaVuSans-74" x="431.787109"/>
      <use xlink:href="#DejaVuSans-61" x="470.996094"/>
      <use xlink:href="#DejaVuSans-69" x="532.275391"/>
      <use xlink:href="#DejaVuSans-6e" x="560.058594"/>
      <use xlink:href="#DejaVuSans-5f" x="623.4375"/>
      <use xlink:href="#DejaVuSans-73" x="673.4375"/>
      <use xlink:href="#DejaVuSans-74" x="725.537109"/>
      <use xlink:href="#DejaVuSans-61" x="764.746094"/>
      <use xlink:href="#DejaVuSans-74" x="826.025391"/>
      <use xlink:href="#DejaVuSans-65" x="865.234375"/>
      <use xlink:href="#DejaVuSans-73" x="926.757812"/>
      <use xlink:href="#DejaVuSans-3d" x="978.857422"/>
      <use xlink:href="#DejaVuSans-31" x="1062.646484"/>
      <use xlink:href="#DejaVuSans-35" x="1126.269531"/>
     </g>
    </g>
    <g id="line2d_37">
     <path d="M 232.8125 222.185938 
L 242.8125 222.185938 
L 252.8125 222.185938 
" style="fill: none; stroke: #ffac1e; stroke-width: 1.5; stroke-linecap: square"/>
     <g>
      <use xlink:href="#ma415997e3a" x="242.8125" y="222.185938" style="fill: #ffac1e; stroke: #ffac1e; stroke-linejoin: bevel"/>
     </g>
    </g>
    <g id="text_21">
     <!-- m_uncertain_states=20 -->
     <g transform="translate(260.8125 225.685938)scale(0.1 -0.1)">
      <use xlink:href="#DejaVuSans-6d"/>
      <use xlink:href="#DejaVuSans-5f" x="97.412109"/>
      <use xlink:href="#DejaVuSans-75" x="147.412109"/>
      <use xlink:href="#DejaVuSans-6e" x="210.791016"/>
      <use xlink:href="#DejaVuSans-63" x="274.169922"/>
      <use xlink:href="#DejaVuSans-65" x="329.150391"/>
      <use xlink:href="#DejaVuSans-72" x="390.673828"/>
      <use xlink:href="#DejaVuSans-74" x="431.787109"/>
      <use xlink:href="#DejaVuSans-61" x="470.996094"/>
      <use xlink:href="#DejaVuSans-69" x="532.275391"/>
      <use xlink:href="#DejaVuSans-6e" x="560.058594"/>
      <use xlink:href="#DejaVuSans-5f" x="623.4375"/>
      <use xlink:href="#DejaVuSans-73" x="673.4375"/>
      <use xlink:href="#DejaVuSans-74" x="725.537109"/>
      <use xlink:href="#DejaVuSans-61" x="764.746094"/>
      <use xlink:href="#DejaVuSans-74" x="826.025391"/>
      <use xlink:href="#DejaVuSans-65" x="865.234375"/>
      <use xlink:href="#DejaVuSans-73" x="926.757812"/>
      <use xlink:href="#DejaVuSans-3d" x="978.857422"/>
      <use xlink:href="#DejaVuSans-32" x="1062.646484"/>
      <use xlink:href="#DejaVuSans-30" x="1126.269531"/>
     </g>
    </g>
    <g id="line2d_38">
     <path d="M 232.8125 237.142188 
L 242.8125 237.142188 
L 252.8125 237.142188 
" style="fill: none; stroke: #009435; stroke-width: 1.5; stroke-linecap: square"/>
     <g>
      <use xlink:href="#m899db891b2" x="242.8125" y="237.142188" style="fill: #009435; stroke: #009435; stroke-linejoin: miter"/>
     </g>
    </g>
    <g id="text_22">
     <!-- m_uncertain_states=25 -->
     <g transform="translate(260.8125 240.642188)scale(0.1 -0.1)">
      <use xlink:href="#DejaVuSans-6d"/>
      <use xlink:href="#DejaVuSans-5f" x="97.412109"/>
      <use xlink:href="#DejaVuSans-75" x="147.412109"/>
      <use xlink:href="#DejaVuSans-6e" x="210.791016"/>
      <use xlink:href="#DejaVuSans-63" x="274.169922"/>
      <use xlink:href="#DejaVuSans-65" x="329.150391"/>
      <use xlink:href="#DejaVuSans-72" x="390.673828"/>
      <use xlink:href="#DejaVuSans-74" x="431.787109"/>
      <use xlink:href="#DejaVuSans-61" x="470.996094"/>
      <use xlink:href="#DejaVuSans-69" x="532.275391"/>
      <use xlink:href="#DejaVuSans-6e" x="560.058594"/>
      <use xlink:href="#DejaVuSans-5f" x="623.4375"/>
      <use xlink:href="#DejaVuSans-73" x="673.4375"/>
      <use xlink:href="#DejaVuSans-74" x="725.537109"/>
      <use xlink:href="#DejaVuSans-61" x="764.746094"/>
      <use xlink:href="#DejaVuSans-74" x="826.025391"/>
      <use xlink:href="#DejaVuSans-65" x="865.234375"/>
      <use xlink:href="#DejaVuSans-73" x="926.757812"/>
      <use xlink:href="#DejaVuSans-3d" x="978.857422"/>
      <use xlink:href="#DejaVuSans-32" x="1062.646484"/>
      <use xlink:href="#DejaVuSans-35" x="1126.269531"/>
     </g>
    </g>
   </g>
  </g>
 </g>
 <defs>
  <clipPath id="p80f5979dde">
   <rect x="54" y="34.56" width="334.8" height="217.44"/>
  </clipPath>
 </defs>
</svg>
