<?xml version="1.0" encoding="utf-8" standalone="no"?>
<!DOCTYPE svg PUBLIC "-//W3C//DTD SVG 1.1//EN"
  "http://www.w3.org/Graphics/SVG/1.1/DTD/svg11.dtd">
<svg xmlns:xlink="http://www.w3.org/1999/xlink" width="432pt" height="288pt" viewBox="0 0 432 288" xmlns="http://www.w3.org/2000/svg" version="1.1">
 <metadata>
  <rdf:RDF xmlns:dc="http://purl.org/dc/elements/1.1/" xmlns:cc="http://creativecommons.org/ns#" xmlns:rdf="http://www.w3.org/1999/02/22-rdf-syntax-ns#">
   <cc:Work>
    <dc:type rdf:resource="http://purl.org/dc/dcmitype/StillImage"/>
    <dc:date>2023-01-11T15:36:34.655075</dc:date>
    <dc:format>image/svg+xml</dc:format>
    <dc:creator>
     <cc:Agent>
      <dc:title>Matplotlib v3.5.2, https://matplotlib.org/</dc:title>
     </cc:Agent>
    </dc:creator>
   </cc:Work>
  </rdf:RDF>
 </metadata>
 <defs>
  <style type="text/css">*{stroke-linejoin: round; stroke-linecap: butt}</style>
 </defs>
 <g id="figure_1">
  <g id="patch_1">
   <path d="M 0 288 
L 432 288 
L 432 0 
L 0 0 
z
" style="fill: #ffffff"/>
  </g>
  <g id="axes_1">
   <g id="patch_2">
    <path d="M 54 252 
L 388.8 252 
L 388.8 34.56 
L 54 34.56 
z
" style="fill: #ffffff"/>
   </g>
   <g id="PolyCollection_1">
    <defs>
     <path id="mb66389c83d" d="M 69.218182 -34.666846 
L 69.218182 -34.666846 
L 74.376888 -33.869789 
L 79.535593 -35.63844 
L 84.694299 -28.050606 
L 89.853005 -33.931862 
L 95.01171 -35.091182 
L 100.170416 -33.445852 
L 105.329122 -29.640249 
L 110.487827 -39.401478 
L 115.646533 -34.262871 
L 120.805239 -33.431886 
L 125.963945 -34.223974 
L 131.12265 -33.975973 
L 136.281356 -32.982807 
L 141.440062 -42.098948 
L 146.598767 -30.018961 
L 151.757473 -34.737402 
L 156.916179 -78.291221 
L 162.074884 -33.102649 
L 167.23359 -33.676325 
L 172.392296 -33.876529 
L 177.551002 -53.332666 
L 182.709707 -38.912209 
L 187.868413 -33.805033 
L 193.027119 -36.963261 
L 198.185824 -76.029238 
L 203.34453 -39.545213 
L 208.503236 -40.762598 
L 213.661941 -35.877802 
L 218.820647 -40.493224 
L 223.979353 -119.097368 
L 229.138059 -138.322597 
L 234.296764 -105.742806 
L 239.45547 -104.001008 
L 244.614176 -31.36583 
L 249.772881 -216.814527 
L 254.931587 -216.814527 
L 260.090293 -204.82884 
L 265.248998 -204.131375 
L 270.407704 -204.131375 
L 275.56641 -216.529885 
L 280.725116 -165.916421 
L 285.883821 -196.347994 
L 291.042527 -196.013136 
L 296.201233 -214.535561 
L 301.359938 -191.163622 
L 306.518644 -234.265817 
L 311.67735 -235.182159 
L 316.836055 -197.931318 
L 321.994761 -231.424338 
L 327.153467 -137.050404 
L 332.312173 -231.424518 
L 337.470878 -231.424518 
L 342.629584 -229.21676 
L 347.78829 -229.21676 
L 352.946995 -231.424597 
L 358.105701 -214.955543 
L 363.264407 -216.427952 
L 368.423112 -216.428072 
L 373.581818 -242.441396 
L 373.581818 -242.441396 
L 373.581818 -242.441396 
L 368.423112 -216.428072 
L 363.264407 -216.427952 
L 358.105701 -214.955543 
L 352.946995 -231.424597 
L 347.78829 -229.21676 
L 342.629584 -229.21676 
L 337.470878 -231.424518 
L 332.312173 -231.424518 
L 327.153467 -137.050404 
L 321.994761 -231.424338 
L 316.836055 -197.931318 
L 311.67735 -235.182159 
L 306.518644 -234.265817 
L 301.359938 -191.163622 
L 296.201233 -214.535561 
L 291.042527 -196.013136 
L 285.883821 -196.347994 
L 280.725116 -165.916421 
L 275.56641 -216.529885 
L 270.407704 -204.131375 
L 265.248998 -204.131375 
L 260.090293 -204.82884 
L 254.931587 -216.814527 
L 249.772881 -216.814527 
L 244.614176 -31.36583 
L 239.45547 -104.001008 
L 234.296764 -105.742806 
L 229.138059 -138.322597 
L 223.979353 -119.097368 
L 218.820647 -40.493224 
L 213.661941 -35.877802 
L 208.503236 -40.762598 
L 203.34453 -39.545213 
L 198.185824 -76.029238 
L 193.027119 -36.963261 
L 187.868413 -33.805033 
L 182.709707 -38.912209 
L 177.551002 -53.332666 
L 172.392296 -33.876529 
L 167.23359 -33.676325 
L 162.074884 -33.102649 
L 156.916179 -78.291221 
L 151.757473 -34.737402 
L 146.598767 -30.018961 
L 141.440062 -42.098948 
L 136.281356 -32.982807 
L 131.12265 -33.975973 
L 125.963945 -34.223974 
L 120.805239 -33.431886 
L 115.646533 -34.262871 
L 110.487827 -39.401478 
L 105.329122 -29.640249 
L 100.170416 -33.445852 
L 95.01171 -35.091182 
L 89.853005 -33.931862 
L 84.694299 -28.050606 
L 79.535593 -35.63844 
L 74.376888 -33.869789 
L 69.218182 -34.666846 
z
" style="stroke: #9d02d7; stroke-opacity: 0.2"/>
    </defs>
    <g clip-path="url(#pea70956e5e)">
     <use xlink:href="#mb66389c83d" x="0" y="288" style="fill: #9d02d7; fill-opacity: 0.2; stroke: #9d02d7; stroke-opacity: 0.2"/>
    </g>
   </g>
   <g id="PolyCollection_2">
    <defs>
     <path id="mf6360f6b56" d="M 69.218182 -33.191759 
L 69.218182 -33.191759 
L 74.376888 -31.727846 
L 79.535593 -34.858589 
L 84.694299 -31.741837 
L 89.853005 -32.913726 
L 95.01171 -34.722442 
L 100.170416 -32.726411 
L 105.329122 -28.345238 
L 110.487827 -14.080596 
L 115.646533 -29.005956 
L 120.805239 -32.669479 
L 125.963945 -31.450031 
L 131.12265 -30.884383 
L 136.281356 -30.701316 
L 141.440062 -30.29565 
L 146.598767 -26.92793 
L 151.757473 -34.488635 
L 156.916179 -34.903537 
L 162.074884 -34.633645 
L 167.23359 -28.477641 
L 172.392296 -31.210398 
L 177.551002 -47.849713 
L 182.709707 -29.959197 
L 187.868413 -32.885759 
L 193.027119 -30.863149 
L 198.185824 -29.726738 
L 203.34453 -30.425792 
L 208.503236 -30.694601 
L 213.661941 -32.368255 
L 218.820647 -48.261671 
L 223.979353 -33.072636 
L 229.138059 -43.368146 
L 234.296764 -30.593657 
L 239.45547 -38.0738 
L 244.614176 -51.997875 
L 249.772881 -32.730504 
L 254.931587 -32.640368 
L 260.090293 -153.497511 
L 265.248998 -36.600919 
L 270.407704 -31.746388 
L 275.56641 -105.950996 
L 280.725116 -95.418633 
L 285.883821 -186.071919 
L 291.042527 -186.071919 
L 296.201233 -186.071919 
L 301.359938 -186.071919 
L 306.518644 -189.069768 
L 311.67735 -128.499097 
L 316.836055 -30.811424 
L 321.994761 -30.811424 
L 327.153467 -192.332795 
L 332.312173 -194.631105 
L 337.470878 -156.10901 
L 342.629584 -156.10901 
L 347.78829 -156.47873 
L 352.946995 -191.312498 
L 358.105701 -191.312498 
L 363.264407 -216.46935 
L 368.423112 -216.46935 
L 373.581818 -214.080488 
L 373.581818 -214.080488 
L 373.581818 -214.080488 
L 368.423112 -216.46935 
L 363.264407 -216.46935 
L 358.105701 -191.312498 
L 352.946995 -191.312498 
L 347.78829 -156.47873 
L 342.629584 -156.10901 
L 337.470878 -156.10901 
L 332.312173 -194.631105 
L 327.153467 -192.332795 
L 321.994761 -30.811424 
L 316.836055 -30.811424 
L 311.67735 -128.499097 
L 306.518644 -189.069768 
L 301.359938 -186.071919 
L 296.201233 -186.071919 
L 291.042527 -186.071919 
L 285.883821 -186.071919 
L 280.725116 -95.418633 
L 275.56641 -105.950996 
L 270.407704 -31.746388 
L 265.248998 -36.600919 
L 260.090293 -153.497511 
L 254.931587 -32.640368 
L 249.772881 -32.730504 
L 244.614176 -51.997875 
L 239.45547 -38.0738 
L 234.296764 -30.593657 
L 229.138059 -43.368146 
L 223.979353 -33.072636 
L 218.820647 -48.261671 
L 213.661941 -32.368255 
L 208.503236 -30.694601 
L 203.34453 -30.425792 
L 198.185824 -29.726738 
L 193.027119 -30.863149 
L 187.868413 -32.885759 
L 182.709707 -29.959197 
L 177.551002 -47.849713 
L 172.392296 -31.210398 
L 167.23359 -28.477641 
L 162.074884 -34.633645 
L 156.916179 -34.903537 
L 151.757473 -34.488635 
L 146.598767 -26.92793 
L 141.440062 -30.29565 
L 136.281356 -30.701316 
L 131.12265 -30.884383 
L 125.963945 -31.450031 
L 120.805239 -32.669479 
L 115.646533 -29.005956 
L 110.487827 -14.080596 
L 105.329122 -28.345238 
L 100.170416 -32.726411 
L 95.01171 -34.722442 
L 89.853005 -32.913726 
L 84.694299 -31.741837 
L 79.535593 -34.858589 
L 74.376888 -31.727846 
L 69.218182 -33.191759 
z
" style="stroke: #0000ff; stroke-opacity: 0.2"/>
    </defs>
    <g clip-path="url(#pea70956e5e)">
     <use xlink:href="#mf6360f6b56" x="0" y="288" style="fill: #0000ff; fill-opacity: 0.2; stroke: #0000ff; stroke-opacity: 0.2"/>
    </g>
   </g>
   <g id="PolyCollection_3">
    <defs>
     <path id="m81dd1da8fe" d="M 69.218182 -35.091182 
L 69.218182 -35.091182 
L 74.376888 -35.065753 
L 79.535593 -33.940659 
L 84.694299 -34.930145 
L 89.853005 -35.091182 
L 95.01171 -34.034731 
L 100.170416 -35.036081 
L 105.329122 -32.843635 
L 110.487827 -30.165076 
L 115.646533 -32.798634 
L 120.805239 -29.850784 
L 125.963945 -31.488201 
L 131.12265 -23.525268 
L 136.281356 -28.036397 
L 141.440062 -28.984837 
L 146.598767 -33.136394 
L 151.757473 -34.657783 
L 156.916179 -32.970982 
L 162.074884 -44.972622 
L 167.23359 -34.145358 
L 172.392296 -48.551266 
L 177.551002 -32.28948 
L 182.709707 -35.343262 
L 187.868413 -41.50314 
L 193.027119 -34.461803 
L 198.185824 -39.461986 
L 203.34453 -34.051447 
L 208.503236 -34.614058 
L 213.661941 -32.624269 
L 218.820647 -33.073764 
L 223.979353 -86.445619 
L 229.138059 -33.972033 
L 234.296764 -91.452772 
L 239.45547 -37.807193 
L 244.614176 -130.593866 
L 249.772881 -44.694782 
L 254.931587 -47.505635 
L 260.090293 -44.799988 
L 265.248998 -47.479262 
L 270.407704 -157.79756 
L 275.56641 -192.036351 
L 280.725116 -69.127765 
L 285.883821 -203.536998 
L 291.042527 -88.091066 
L 296.201233 -35.54714 
L 301.359938 -148.05953 
L 306.518644 -148.621569 
L 311.67735 -199.794529 
L 316.836055 -235.970628 
L 321.994761 -235.541882 
L 327.153467 -135.99868 
L 332.312173 -34.933994 
L 337.470878 -35.188562 
L 342.629584 -106.965309 
L 347.78829 -44.105406 
L 352.946995 -234.313053 
L 358.105701 -234.593325 
L 363.264407 -234.593325 
L 368.423112 -234.593325 
L 373.581818 -234.593325 
L 373.581818 -234.593325 
L 373.581818 -234.593325 
L 368.423112 -234.593325 
L 363.264407 -234.593325 
L 358.105701 -234.593325 
L 352.946995 -234.313053 
L 347.78829 -44.105406 
L 342.629584 -106.965309 
L 337.470878 -35.188562 
L 332.312173 -34.933994 
L 327.153467 -135.99868 
L 321.994761 -235.541882 
L 316.836055 -235.970628 
L 311.67735 -199.794529 
L 306.518644 -148.621569 
L 301.359938 -148.05953 
L 296.201233 -35.54714 
L 291.042527 -88.091066 
L 285.883821 -203.536998 
L 280.725116 -69.127765 
L 275.56641 -192.036351 
L 270.407704 -157.79756 
L 265.248998 -47.479262 
L 260.090293 -44.799988 
L 254.931587 -47.505635 
L 249.772881 -44.694782 
L 244.614176 -130.593866 
L 239.45547 -37.807193 
L 234.296764 -91.452772 
L 229.138059 -33.972033 
L 223.979353 -86.445619 
L 218.820647 -33.073764 
L 213.661941 -32.624269 
L 208.503236 -34.614058 
L 203.34453 -34.051447 
L 198.185824 -39.461986 
L 193.027119 -34.461803 
L 187.868413 -41.50314 
L 182.709707 -35.343262 
L 177.551002 -32.28948 
L 172.392296 -48.551266 
L 167.23359 -34.145358 
L 162.074884 -44.972622 
L 156.916179 -32.970982 
L 151.757473 -34.657783 
L 146.598767 -33.136394 
L 141.440062 -28.984837 
L 136.281356 -28.036397 
L 131.12265 -23.525268 
L 125.963945 -31.488201 
L 120.805239 -29.850784 
L 115.646533 -32.798634 
L 110.487827 -30.165076 
L 105.329122 -32.843635 
L 100.170416 -35.036081 
L 95.01171 -34.034731 
L 89.853005 -35.091182 
L 84.694299 -34.930145 
L 79.535593 -33.940659 
L 74.376888 -35.065753 
L 69.218182 -35.091182 
z
" style="stroke: #ff7763; stroke-opacity: 0.2"/>
    </defs>
    <g clip-path="url(#pea70956e5e)">
     <use xlink:href="#m81dd1da8fe" x="0" y="288" style="fill: #ff7763; fill-opacity: 0.2; stroke: #ff7763; stroke-opacity: 0.2"/>
    </g>
   </g>
   <g id="PolyCollection_4">
    <defs>
     <path id="m7d417748f3" d="M 69.218182 -34.353773 
L 69.218182 -34.353773 
L 74.376888 -35.017751 
L 79.535593 -34.962892 
L 84.694299 -34.131801 
L 89.853005 -21.352974 
L 95.01171 -34.714321 
L 100.170416 -34.05626 
L 105.329122 -33.797243 
L 110.487827 -33.569404 
L 115.646533 -26.20708 
L 120.805239 -27.097348 
L 125.963945 -22.244935 
L 131.12265 -34.061913 
L 136.281356 -34.146561 
L 141.440062 -33.777839 
L 146.598767 -32.052283 
L 151.757473 -61.50008 
L 156.916179 -25.750331 
L 162.074884 -34.352774 
L 167.23359 -40.401988 
L 172.392296 -25.993073 
L 177.551002 -25.16256 
L 182.709707 -51.229306 
L 187.868413 -25.278691 
L 193.027119 -38.43392 
L 198.185824 -31.015331 
L 203.34453 -25.646999 
L 208.503236 -24.804437 
L 213.661941 -33.438506 
L 218.820647 -43.522427 
L 223.979353 -26.622381 
L 229.138059 -33.998557 
L 234.296764 -22.727312 
L 239.45547 -34.454253 
L 244.614176 -31.287726 
L 249.772881 -44.755541 
L 254.931587 -32.964761 
L 260.090293 -31.226669 
L 265.248998 -31.243181 
L 270.407704 -30.93592 
L 275.56641 -54.890983 
L 280.725116 -30.987406 
L 285.883821 -37.565854 
L 291.042527 -37.426107 
L 296.201233 -94.127821 
L 301.359938 -127.244858 
L 306.518644 -115.002407 
L 311.67735 -148.690451 
L 316.836055 -115.377247 
L 321.994761 -193.719945 
L 327.153467 -131.788987 
L 332.312173 -194.43656 
L 337.470878 -226.376509 
L 342.629584 -147.539222 
L 347.78829 -147.539222 
L 352.946995 -221.187656 
L 358.105701 -193.376798 
L 363.264407 -193.376798 
L 368.423112 -48.259694 
L 373.581818 -97.445104 
L 373.581818 -97.445104 
L 373.581818 -97.445104 
L 368.423112 -48.259694 
L 363.264407 -193.376798 
L 358.105701 -193.376798 
L 352.946995 -221.187656 
L 347.78829 -147.539222 
L 342.629584 -147.539222 
L 337.470878 -226.376509 
L 332.312173 -194.43656 
L 327.153467 -131.788987 
L 321.994761 -193.719945 
L 316.836055 -115.377247 
L 311.67735 -148.690451 
L 306.518644 -115.002407 
L 301.359938 -127.244858 
L 296.201233 -94.127821 
L 291.042527 -37.426107 
L 285.883821 -37.565854 
L 280.725116 -30.987406 
L 275.56641 -54.890983 
L 270.407704 -30.93592 
L 265.248998 -31.243181 
L 260.090293 -31.226669 
L 254.931587 -32.964761 
L 249.772881 -44.755541 
L 244.614176 -31.287726 
L 239.45547 -34.454253 
L 234.296764 -22.727312 
L 229.138059 -33.998557 
L 223.979353 -26.622381 
L 218.820647 -43.522427 
L 213.661941 -33.438506 
L 208.503236 -24.804437 
L 203.34453 -25.646999 
L 198.185824 -31.015331 
L 193.027119 -38.43392 
L 187.868413 -25.278691 
L 182.709707 -51.229306 
L 177.551002 -25.16256 
L 172.392296 -25.993073 
L 167.23359 -40.401988 
L 162.074884 -34.352774 
L 156.916179 -25.750331 
L 151.757473 -61.50008 
L 146.598767 -32.052283 
L 141.440062 -33.777839 
L 136.281356 -34.146561 
L 131.12265 -34.061913 
L 125.963945 -22.244935 
L 120.805239 -27.097348 
L 115.646533 -26.20708 
L 110.487827 -33.569404 
L 105.329122 -33.797243 
L 100.170416 -34.05626 
L 95.01171 -34.714321 
L 89.853005 -21.352974 
L 84.694299 -34.131801 
L 79.535593 -34.962892 
L 74.376888 -35.017751 
L 69.218182 -34.353773 
z
" style="stroke: #ffac1e; stroke-opacity: 0.2"/>
    </defs>
    <g clip-path="url(#pea70956e5e)">
     <use xlink:href="#m7d417748f3" x="0" y="288" style="fill: #ffac1e; fill-opacity: 0.2; stroke: #ffac1e; stroke-opacity: 0.2"/>
    </g>
   </g>
   <g id="matplotlib.axis_1">
    <g id="xtick_1">
     <g id="line2d_1">
      <path d="M 69.218182 252 
L 69.218182 34.56 
" clip-path="url(#pea70956e5e)" style="fill: none; stroke-dasharray: 2.96,1.28; stroke-dashoffset: 0; stroke: #b0b0b0; stroke-width: 0.8"/>
     </g>
     <g id="line2d_2">
      <defs>
       <path id="m709fc9c3e1" d="M 0 0 
L 0 3.5 
" style="stroke: #000000; stroke-width: 0.8"/>
      </defs>
      <g>
       <use xlink:href="#m709fc9c3e1" x="69.218182" y="252" style="stroke: #000000; stroke-width: 0.8"/>
      </g>
     </g>
     <g id="text_1">
      <!-- 0 -->
      <g transform="translate(66.036932 266.598437)scale(0.1 -0.1)">
       <defs>
        <path id="DejaVuSans-30" d="M 2034 4250 
Q 1547 4250 1301 3770 
Q 1056 3291 1056 2328 
Q 1056 1369 1301 889 
Q 1547 409 2034 409 
Q 2525 409 2770 889 
Q 3016 1369 3016 2328 
Q 3016 3291 2770 3770 
Q 2525 4250 2034 4250 
z
M 2034 4750 
Q 2819 4750 3233 4129 
Q 3647 3509 3647 2328 
Q 3647 1150 3233 529 
Q 2819 -91 2034 -91 
Q 1250 -91 836 529 
Q 422 1150 422 2328 
Q 422 3509 836 4129 
Q 1250 4750 2034 4750 
z
" transform="scale(0.015625)"/>
       </defs>
       <use xlink:href="#DejaVuSans-30"/>
      </g>
     </g>
    </g>
    <g id="xtick_2">
     <g id="line2d_3">
      <path d="M 120.805239 252 
L 120.805239 34.56 
" clip-path="url(#pea70956e5e)" style="fill: none; stroke-dasharray: 2.96,1.28; stroke-dashoffset: 0; stroke: #b0b0b0; stroke-width: 0.8"/>
     </g>
     <g id="line2d_4">
      <g>
       <use xlink:href="#m709fc9c3e1" x="120.805239" y="252" style="stroke: #000000; stroke-width: 0.8"/>
      </g>
     </g>
     <g id="text_2">
      <!-- 500 -->
      <g transform="translate(111.261489 266.598437)scale(0.1 -0.1)">
       <defs>
        <path id="DejaVuSans-35" d="M 691 4666 
L 3169 4666 
L 3169 4134 
L 1269 4134 
L 1269 2991 
Q 1406 3038 1543 3061 
Q 1681 3084 1819 3084 
Q 2600 3084 3056 2656 
Q 3513 2228 3513 1497 
Q 3513 744 3044 326 
Q 2575 -91 1722 -91 
Q 1428 -91 1123 -41 
Q 819 9 494 109 
L 494 744 
Q 775 591 1075 516 
Q 1375 441 1709 441 
Q 2250 441 2565 725 
Q 2881 1009 2881 1497 
Q 2881 1984 2565 2268 
Q 2250 2553 1709 2553 
Q 1456 2553 1204 2497 
Q 953 2441 691 2322 
L 691 4666 
z
" transform="scale(0.015625)"/>
       </defs>
       <use xlink:href="#DejaVuSans-35"/>
       <use xlink:href="#DejaVuSans-30" x="63.623047"/>
       <use xlink:href="#DejaVuSans-30" x="127.246094"/>
      </g>
     </g>
    </g>
    <g id="xtick_3">
     <g id="line2d_5">
      <path d="M 172.392296 252 
L 172.392296 34.56 
" clip-path="url(#pea70956e5e)" style="fill: none; stroke-dasharray: 2.96,1.28; stroke-dashoffset: 0; stroke: #b0b0b0; stroke-width: 0.8"/>
     </g>
     <g id="line2d_6">
      <g>
       <use xlink:href="#m709fc9c3e1" x="172.392296" y="252" style="stroke: #000000; stroke-width: 0.8"/>
      </g>
     </g>
     <g id="text_3">
      <!-- 1000 -->
      <g transform="translate(159.667296 266.598437)scale(0.1 -0.1)">
       <defs>
        <path id="DejaVuSans-31" d="M 794 531 
L 1825 531 
L 1825 4091 
L 703 3866 
L 703 4441 
L 1819 4666 
L 2450 4666 
L 2450 531 
L 3481 531 
L 3481 0 
L 794 0 
L 794 531 
z
" transform="scale(0.015625)"/>
       </defs>
       <use xlink:href="#DejaVuSans-31"/>
       <use xlink:href="#DejaVuSans-30" x="63.623047"/>
       <use xlink:href="#DejaVuSans-30" x="127.246094"/>
       <use xlink:href="#DejaVuSans-30" x="190.869141"/>
      </g>
     </g>
    </g>
    <g id="xtick_4">
     <g id="line2d_7">
      <path d="M 223.979353 252 
L 223.979353 34.56 
" clip-path="url(#pea70956e5e)" style="fill: none; stroke-dasharray: 2.96,1.28; stroke-dashoffset: 0; stroke: #b0b0b0; stroke-width: 0.8"/>
     </g>
     <g id="line2d_8">
      <g>
       <use xlink:href="#m709fc9c3e1" x="223.979353" y="252" style="stroke: #000000; stroke-width: 0.8"/>
      </g>
     </g>
     <g id="text_4">
      <!-- 1500 -->
      <g transform="translate(211.254353 266.598437)scale(0.1 -0.1)">
       <use xlink:href="#DejaVuSans-31"/>
       <use xlink:href="#DejaVuSans-35" x="63.623047"/>
       <use xlink:href="#DejaVuSans-30" x="127.246094"/>
       <use xlink:href="#DejaVuSans-30" x="190.869141"/>
      </g>
     </g>
    </g>
    <g id="xtick_5">
     <g id="line2d_9">
      <path d="M 275.56641 252 
L 275.56641 34.56 
" clip-path="url(#pea70956e5e)" style="fill: none; stroke-dasharray: 2.96,1.28; stroke-dashoffset: 0; stroke: #b0b0b0; stroke-width: 0.8"/>
     </g>
     <g id="line2d_10">
      <g>
       <use xlink:href="#m709fc9c3e1" x="275.56641" y="252" style="stroke: #000000; stroke-width: 0.8"/>
      </g>
     </g>
     <g id="text_5">
      <!-- 2000 -->
      <g transform="translate(262.84141 266.598437)scale(0.1 -0.1)">
       <defs>
        <path id="DejaVuSans-32" d="M 1228 531 
L 3431 531 
L 3431 0 
L 469 0 
L 469 531 
Q 828 903 1448 1529 
Q 2069 2156 2228 2338 
Q 2531 2678 2651 2914 
Q 2772 3150 2772 3378 
Q 2772 3750 2511 3984 
Q 2250 4219 1831 4219 
Q 1534 4219 1204 4116 
Q 875 4013 500 3803 
L 500 4441 
Q 881 4594 1212 4672 
Q 1544 4750 1819 4750 
Q 2544 4750 2975 4387 
Q 3406 4025 3406 3419 
Q 3406 3131 3298 2873 
Q 3191 2616 2906 2266 
Q 2828 2175 2409 1742 
Q 1991 1309 1228 531 
z
" transform="scale(0.015625)"/>
       </defs>
       <use xlink:href="#DejaVuSans-32"/>
       <use xlink:href="#DejaVuSans-30" x="63.623047"/>
       <use xlink:href="#DejaVuSans-30" x="127.246094"/>
       <use xlink:href="#DejaVuSans-30" x="190.869141"/>
      </g>
     </g>
    </g>
    <g id="xtick_6">
     <g id="line2d_11">
      <path d="M 327.153467 252 
L 327.153467 34.56 
" clip-path="url(#pea70956e5e)" style="fill: none; stroke-dasharray: 2.96,1.28; stroke-dashoffset: 0; stroke: #b0b0b0; stroke-width: 0.8"/>
     </g>
     <g id="line2d_12">
      <g>
       <use xlink:href="#m709fc9c3e1" x="327.153467" y="252" style="stroke: #000000; stroke-width: 0.8"/>
      </g>
     </g>
     <g id="text_6">
      <!-- 2500 -->
      <g transform="translate(314.428467 266.598437)scale(0.1 -0.1)">
       <use xlink:href="#DejaVuSans-32"/>
       <use xlink:href="#DejaVuSans-35" x="63.623047"/>
       <use xlink:href="#DejaVuSans-30" x="127.246094"/>
       <use xlink:href="#DejaVuSans-30" x="190.869141"/>
      </g>
     </g>
    </g>
    <g id="xtick_7">
     <g id="line2d_13">
      <path d="M 378.740524 252 
L 378.740524 34.56 
" clip-path="url(#pea70956e5e)" style="fill: none; stroke-dasharray: 2.96,1.28; stroke-dashoffset: 0; stroke: #b0b0b0; stroke-width: 0.8"/>
     </g>
     <g id="line2d_14">
      <g>
       <use xlink:href="#m709fc9c3e1" x="378.740524" y="252" style="stroke: #000000; stroke-width: 0.8"/>
      </g>
     </g>
     <g id="text_7">
      <!-- 3000 -->
      <g transform="translate(366.015524 266.598437)scale(0.1 -0.1)">
       <defs>
        <path id="DejaVuSans-33" d="M 2597 2516 
Q 3050 2419 3304 2112 
Q 3559 1806 3559 1356 
Q 3559 666 3084 287 
Q 2609 -91 1734 -91 
Q 1441 -91 1130 -33 
Q 819 25 488 141 
L 488 750 
Q 750 597 1062 519 
Q 1375 441 1716 441 
Q 2309 441 2620 675 
Q 2931 909 2931 1356 
Q 2931 1769 2642 2001 
Q 2353 2234 1838 2234 
L 1294 2234 
L 1294 2753 
L 1863 2753 
Q 2328 2753 2575 2939 
Q 2822 3125 2822 3475 
Q 2822 3834 2567 4026 
Q 2313 4219 1838 4219 
Q 1578 4219 1281 4162 
Q 984 4106 628 3988 
L 628 4550 
Q 988 4650 1302 4700 
Q 1616 4750 1894 4750 
Q 2613 4750 3031 4423 
Q 3450 4097 3450 3541 
Q 3450 3153 3228 2886 
Q 3006 2619 2597 2516 
z
" transform="scale(0.015625)"/>
       </defs>
       <use xlink:href="#DejaVuSans-33"/>
       <use xlink:href="#DejaVuSans-30" x="63.623047"/>
       <use xlink:href="#DejaVuSans-30" x="127.246094"/>
       <use xlink:href="#DejaVuSans-30" x="190.869141"/>
      </g>
     </g>
    </g>
    <g id="text_8">
     <!-- Steps -->
     <g transform="translate(207.410156 280.276563)scale(0.1 -0.1)">
      <defs>
       <path id="DejaVuSans-53" d="M 3425 4513 
L 3425 3897 
Q 3066 4069 2747 4153 
Q 2428 4238 2131 4238 
Q 1616 4238 1336 4038 
Q 1056 3838 1056 3469 
Q 1056 3159 1242 3001 
Q 1428 2844 1947 2747 
L 2328 2669 
Q 3034 2534 3370 2195 
Q 3706 1856 3706 1288 
Q 3706 609 3251 259 
Q 2797 -91 1919 -91 
Q 1588 -91 1214 -16 
Q 841 59 441 206 
L 441 856 
Q 825 641 1194 531 
Q 1563 422 1919 422 
Q 2459 422 2753 634 
Q 3047 847 3047 1241 
Q 3047 1584 2836 1778 
Q 2625 1972 2144 2069 
L 1759 2144 
Q 1053 2284 737 2584 
Q 422 2884 422 3419 
Q 422 4038 858 4394 
Q 1294 4750 2059 4750 
Q 2388 4750 2728 4690 
Q 3069 4631 3425 4513 
z
" transform="scale(0.015625)"/>
       <path id="DejaVuSans-74" d="M 1172 4494 
L 1172 3500 
L 2356 3500 
L 2356 3053 
L 1172 3053 
L 1172 1153 
Q 1172 725 1289 603 
Q 1406 481 1766 481 
L 2356 481 
L 2356 0 
L 1766 0 
Q 1100 0 847 248 
Q 594 497 594 1153 
L 594 3053 
L 172 3053 
L 172 3500 
L 594 3500 
L 594 4494 
L 1172 4494 
z
" transform="scale(0.015625)"/>
       <path id="DejaVuSans-65" d="M 3597 1894 
L 3597 1613 
L 953 1613 
Q 991 1019 1311 708 
Q 1631 397 2203 397 
Q 2534 397 2845 478 
Q 3156 559 3463 722 
L 3463 178 
Q 3153 47 2828 -22 
Q 2503 -91 2169 -91 
Q 1331 -91 842 396 
Q 353 884 353 1716 
Q 353 2575 817 3079 
Q 1281 3584 2069 3584 
Q 2775 3584 3186 3129 
Q 3597 2675 3597 1894 
z
M 3022 2063 
Q 3016 2534 2758 2815 
Q 2500 3097 2075 3097 
Q 1594 3097 1305 2825 
Q 1016 2553 972 2059 
L 3022 2063 
z
" transform="scale(0.015625)"/>
       <path id="DejaVuSans-70" d="M 1159 525 
L 1159 -1331 
L 581 -1331 
L 581 3500 
L 1159 3500 
L 1159 2969 
Q 1341 3281 1617 3432 
Q 1894 3584 2278 3584 
Q 2916 3584 3314 3078 
Q 3713 2572 3713 1747 
Q 3713 922 3314 415 
Q 2916 -91 2278 -91 
Q 1894 -91 1617 61 
Q 1341 213 1159 525 
z
M 3116 1747 
Q 3116 2381 2855 2742 
Q 2594 3103 2138 3103 
Q 1681 3103 1420 2742 
Q 1159 2381 1159 1747 
Q 1159 1113 1420 752 
Q 1681 391 2138 391 
Q 2594 391 2855 752 
Q 3116 1113 3116 1747 
z
" transform="scale(0.015625)"/>
       <path id="DejaVuSans-73" d="M 2834 3397 
L 2834 2853 
Q 2591 2978 2328 3040 
Q 2066 3103 1784 3103 
Q 1356 3103 1142 2972 
Q 928 2841 928 2578 
Q 928 2378 1081 2264 
Q 1234 2150 1697 2047 
L 1894 2003 
Q 2506 1872 2764 1633 
Q 3022 1394 3022 966 
Q 3022 478 2636 193 
Q 2250 -91 1575 -91 
Q 1294 -91 989 -36 
Q 684 19 347 128 
L 347 722 
Q 666 556 975 473 
Q 1284 391 1588 391 
Q 1994 391 2212 530 
Q 2431 669 2431 922 
Q 2431 1156 2273 1281 
Q 2116 1406 1581 1522 
L 1381 1569 
Q 847 1681 609 1914 
Q 372 2147 372 2553 
Q 372 3047 722 3315 
Q 1072 3584 1716 3584 
Q 2034 3584 2315 3537 
Q 2597 3491 2834 3397 
z
" transform="scale(0.015625)"/>
      </defs>
      <use xlink:href="#DejaVuSans-53"/>
      <use xlink:href="#DejaVuSans-74" x="63.476562"/>
      <use xlink:href="#DejaVuSans-65" x="102.685547"/>
      <use xlink:href="#DejaVuSans-70" x="164.208984"/>
      <use xlink:href="#DejaVuSans-73" x="227.685547"/>
     </g>
    </g>
   </g>
   <g id="matplotlib.axis_2">
    <g id="ytick_1">
     <g id="line2d_15">
      <path d="M 54 243.636923 
L 388.8 243.636923 
" clip-path="url(#pea70956e5e)" style="fill: none; stroke-dasharray: 2.96,1.28; stroke-dashoffset: 0; stroke: #b0b0b0; stroke-width: 0.8"/>
     </g>
     <g id="line2d_16">
      <defs>
       <path id="ma771e00edd" d="M 0 0 
L -3.5 0 
" style="stroke: #000000; stroke-width: 0.8"/>
      </defs>
      <g>
       <use xlink:href="#ma771e00edd" x="54" y="243.636923" style="stroke: #000000; stroke-width: 0.8"/>
      </g>
     </g>
     <g id="text_9">
      <!-- −12 -->
      <g transform="translate(25.895312 247.436142)scale(0.1 -0.1)">
       <defs>
        <path id="DejaVuSans-2212" d="M 678 2272 
L 4684 2272 
L 4684 1741 
L 678 1741 
L 678 2272 
z
" transform="scale(0.015625)"/>
       </defs>
       <use xlink:href="#DejaVuSans-2212"/>
       <use xlink:href="#DejaVuSans-31" x="83.789062"/>
       <use xlink:href="#DejaVuSans-32" x="147.412109"/>
      </g>
     </g>
    </g>
    <g id="ytick_2">
     <g id="line2d_17">
      <path d="M 54 210.184615 
L 388.8 210.184615 
" clip-path="url(#pea70956e5e)" style="fill: none; stroke-dasharray: 2.96,1.28; stroke-dashoffset: 0; stroke: #b0b0b0; stroke-width: 0.8"/>
     </g>
     <g id="line2d_18">
      <g>
       <use xlink:href="#ma771e00edd" x="54" y="210.184615" style="stroke: #000000; stroke-width: 0.8"/>
      </g>
     </g>
     <g id="text_10">
      <!-- −10 -->
      <g transform="translate(25.895312 213.983834)scale(0.1 -0.1)">
       <use xlink:href="#DejaVuSans-2212"/>
       <use xlink:href="#DejaVuSans-31" x="83.789062"/>
       <use xlink:href="#DejaVuSans-30" x="147.412109"/>
      </g>
     </g>
    </g>
    <g id="ytick_3">
     <g id="line2d_19">
      <path d="M 54 176.732308 
L 388.8 176.732308 
" clip-path="url(#pea70956e5e)" style="fill: none; stroke-dasharray: 2.96,1.28; stroke-dashoffset: 0; stroke: #b0b0b0; stroke-width: 0.8"/>
     </g>
     <g id="line2d_20">
      <g>
       <use xlink:href="#ma771e00edd" x="54" y="176.732308" style="stroke: #000000; stroke-width: 0.8"/>
      </g>
     </g>
     <g id="text_11">
      <!-- −8 -->
      <g transform="translate(32.257812 180.531526)scale(0.1 -0.1)">
       <defs>
        <path id="DejaVuSans-38" d="M 2034 2216 
Q 1584 2216 1326 1975 
Q 1069 1734 1069 1313 
Q 1069 891 1326 650 
Q 1584 409 2034 409 
Q 2484 409 2743 651 
Q 3003 894 3003 1313 
Q 3003 1734 2745 1975 
Q 2488 2216 2034 2216 
z
M 1403 2484 
Q 997 2584 770 2862 
Q 544 3141 544 3541 
Q 544 4100 942 4425 
Q 1341 4750 2034 4750 
Q 2731 4750 3128 4425 
Q 3525 4100 3525 3541 
Q 3525 3141 3298 2862 
Q 3072 2584 2669 2484 
Q 3125 2378 3379 2068 
Q 3634 1759 3634 1313 
Q 3634 634 3220 271 
Q 2806 -91 2034 -91 
Q 1263 -91 848 271 
Q 434 634 434 1313 
Q 434 1759 690 2068 
Q 947 2378 1403 2484 
z
M 1172 3481 
Q 1172 3119 1398 2916 
Q 1625 2713 2034 2713 
Q 2441 2713 2670 2916 
Q 2900 3119 2900 3481 
Q 2900 3844 2670 4047 
Q 2441 4250 2034 4250 
Q 1625 4250 1398 4047 
Q 1172 3844 1172 3481 
z
" transform="scale(0.015625)"/>
       </defs>
       <use xlink:href="#DejaVuSans-2212"/>
       <use xlink:href="#DejaVuSans-38" x="83.789062"/>
      </g>
     </g>
    </g>
    <g id="ytick_4">
     <g id="line2d_21">
      <path d="M 54 143.28 
L 388.8 143.28 
" clip-path="url(#pea70956e5e)" style="fill: none; stroke-dasharray: 2.96,1.28; stroke-dashoffset: 0; stroke: #b0b0b0; stroke-width: 0.8"/>
     </g>
     <g id="line2d_22">
      <g>
       <use xlink:href="#ma771e00edd" x="54" y="143.28" style="stroke: #000000; stroke-width: 0.8"/>
      </g>
     </g>
     <g id="text_12">
      <!-- −6 -->
      <g transform="translate(32.257812 147.079219)scale(0.1 -0.1)">
       <defs>
        <path id="DejaVuSans-36" d="M 2113 2584 
Q 1688 2584 1439 2293 
Q 1191 2003 1191 1497 
Q 1191 994 1439 701 
Q 1688 409 2113 409 
Q 2538 409 2786 701 
Q 3034 994 3034 1497 
Q 3034 2003 2786 2293 
Q 2538 2584 2113 2584 
z
M 3366 4563 
L 3366 3988 
Q 3128 4100 2886 4159 
Q 2644 4219 2406 4219 
Q 1781 4219 1451 3797 
Q 1122 3375 1075 2522 
Q 1259 2794 1537 2939 
Q 1816 3084 2150 3084 
Q 2853 3084 3261 2657 
Q 3669 2231 3669 1497 
Q 3669 778 3244 343 
Q 2819 -91 2113 -91 
Q 1303 -91 875 529 
Q 447 1150 447 2328 
Q 447 3434 972 4092 
Q 1497 4750 2381 4750 
Q 2619 4750 2861 4703 
Q 3103 4656 3366 4563 
z
" transform="scale(0.015625)"/>
       </defs>
       <use xlink:href="#DejaVuSans-2212"/>
       <use xlink:href="#DejaVuSans-36" x="83.789062"/>
      </g>
     </g>
    </g>
    <g id="ytick_5">
     <g id="line2d_23">
      <path d="M 54 109.827692 
L 388.8 109.827692 
" clip-path="url(#pea70956e5e)" style="fill: none; stroke-dasharray: 2.96,1.28; stroke-dashoffset: 0; stroke: #b0b0b0; stroke-width: 0.8"/>
     </g>
     <g id="line2d_24">
      <g>
       <use xlink:href="#ma771e00edd" x="54" y="109.827692" style="stroke: #000000; stroke-width: 0.8"/>
      </g>
     </g>
     <g id="text_13">
      <!-- −4 -->
      <g transform="translate(32.257812 113.626911)scale(0.1 -0.1)">
       <defs>
        <path id="DejaVuSans-34" d="M 2419 4116 
L 825 1625 
L 2419 1625 
L 2419 4116 
z
M 2253 4666 
L 3047 4666 
L 3047 1625 
L 3713 1625 
L 3713 1100 
L 3047 1100 
L 3047 0 
L 2419 0 
L 2419 1100 
L 313 1100 
L 313 1709 
L 2253 4666 
z
" transform="scale(0.015625)"/>
       </defs>
       <use xlink:href="#DejaVuSans-2212"/>
       <use xlink:href="#DejaVuSans-34" x="83.789062"/>
      </g>
     </g>
    </g>
    <g id="ytick_6">
     <g id="line2d_25">
      <path d="M 54 76.375385 
L 388.8 76.375385 
" clip-path="url(#pea70956e5e)" style="fill: none; stroke-dasharray: 2.96,1.28; stroke-dashoffset: 0; stroke: #b0b0b0; stroke-width: 0.8"/>
     </g>
     <g id="line2d_26">
      <g>
       <use xlink:href="#ma771e00edd" x="54" y="76.375385" style="stroke: #000000; stroke-width: 0.8"/>
      </g>
     </g>
     <g id="text_14">
      <!-- −2 -->
      <g transform="translate(32.257812 80.174603)scale(0.1 -0.1)">
       <use xlink:href="#DejaVuSans-2212"/>
       <use xlink:href="#DejaVuSans-32" x="83.789062"/>
      </g>
     </g>
    </g>
    <g id="ytick_7">
     <g id="line2d_27">
      <path d="M 54 42.923077 
L 388.8 42.923077 
" clip-path="url(#pea70956e5e)" style="fill: none; stroke-dasharray: 2.96,1.28; stroke-dashoffset: 0; stroke: #b0b0b0; stroke-width: 0.8"/>
     </g>
     <g id="line2d_28">
      <g>
       <use xlink:href="#ma771e00edd" x="54" y="42.923077" style="stroke: #000000; stroke-width: 0.8"/>
      </g>
     </g>
     <g id="text_15">
      <!-- 0 -->
      <g transform="translate(40.6375 46.722296)scale(0.1 -0.1)">
       <use xlink:href="#DejaVuSans-30"/>
      </g>
     </g>
    </g>
    <g id="text_16">
     <!-- Policy value error -->
     <g transform="translate(19.815625 186.597969)rotate(-90)scale(0.1 -0.1)">
      <defs>
       <path id="DejaVuSans-50" d="M 1259 4147 
L 1259 2394 
L 2053 2394 
Q 2494 2394 2734 2622 
Q 2975 2850 2975 3272 
Q 2975 3691 2734 3919 
Q 2494 4147 2053 4147 
L 1259 4147 
z
M 628 4666 
L 2053 4666 
Q 2838 4666 3239 4311 
Q 3641 3956 3641 3272 
Q 3641 2581 3239 2228 
Q 2838 1875 2053 1875 
L 1259 1875 
L 1259 0 
L 628 0 
L 628 4666 
z
" transform="scale(0.015625)"/>
       <path id="DejaVuSans-6f" d="M 1959 3097 
Q 1497 3097 1228 2736 
Q 959 2375 959 1747 
Q 959 1119 1226 758 
Q 1494 397 1959 397 
Q 2419 397 2687 759 
Q 2956 1122 2956 1747 
Q 2956 2369 2687 2733 
Q 2419 3097 1959 3097 
z
M 1959 3584 
Q 2709 3584 3137 3096 
Q 3566 2609 3566 1747 
Q 3566 888 3137 398 
Q 2709 -91 1959 -91 
Q 1206 -91 779 398 
Q 353 888 353 1747 
Q 353 2609 779 3096 
Q 1206 3584 1959 3584 
z
" transform="scale(0.015625)"/>
       <path id="DejaVuSans-6c" d="M 603 4863 
L 1178 4863 
L 1178 0 
L 603 0 
L 603 4863 
z
" transform="scale(0.015625)"/>
       <path id="DejaVuSans-69" d="M 603 3500 
L 1178 3500 
L 1178 0 
L 603 0 
L 603 3500 
z
M 603 4863 
L 1178 4863 
L 1178 4134 
L 603 4134 
L 603 4863 
z
" transform="scale(0.015625)"/>
       <path id="DejaVuSans-63" d="M 3122 3366 
L 3122 2828 
Q 2878 2963 2633 3030 
Q 2388 3097 2138 3097 
Q 1578 3097 1268 2742 
Q 959 2388 959 1747 
Q 959 1106 1268 751 
Q 1578 397 2138 397 
Q 2388 397 2633 464 
Q 2878 531 3122 666 
L 3122 134 
Q 2881 22 2623 -34 
Q 2366 -91 2075 -91 
Q 1284 -91 818 406 
Q 353 903 353 1747 
Q 353 2603 823 3093 
Q 1294 3584 2113 3584 
Q 2378 3584 2631 3529 
Q 2884 3475 3122 3366 
z
" transform="scale(0.015625)"/>
       <path id="DejaVuSans-79" d="M 2059 -325 
Q 1816 -950 1584 -1140 
Q 1353 -1331 966 -1331 
L 506 -1331 
L 506 -850 
L 844 -850 
Q 1081 -850 1212 -737 
Q 1344 -625 1503 -206 
L 1606 56 
L 191 3500 
L 800 3500 
L 1894 763 
L 2988 3500 
L 3597 3500 
L 2059 -325 
z
" transform="scale(0.015625)"/>
       <path id="DejaVuSans-20" transform="scale(0.015625)"/>
       <path id="DejaVuSans-76" d="M 191 3500 
L 800 3500 
L 1894 563 
L 2988 3500 
L 3597 3500 
L 2284 0 
L 1503 0 
L 191 3500 
z
" transform="scale(0.015625)"/>
       <path id="DejaVuSans-61" d="M 2194 1759 
Q 1497 1759 1228 1600 
Q 959 1441 959 1056 
Q 959 750 1161 570 
Q 1363 391 1709 391 
Q 2188 391 2477 730 
Q 2766 1069 2766 1631 
L 2766 1759 
L 2194 1759 
z
M 3341 1997 
L 3341 0 
L 2766 0 
L 2766 531 
Q 2569 213 2275 61 
Q 1981 -91 1556 -91 
Q 1019 -91 701 211 
Q 384 513 384 1019 
Q 384 1609 779 1909 
Q 1175 2209 1959 2209 
L 2766 2209 
L 2766 2266 
Q 2766 2663 2505 2880 
Q 2244 3097 1772 3097 
Q 1472 3097 1187 3025 
Q 903 2953 641 2809 
L 641 3341 
Q 956 3463 1253 3523 
Q 1550 3584 1831 3584 
Q 2591 3584 2966 3190 
Q 3341 2797 3341 1997 
z
" transform="scale(0.015625)"/>
       <path id="DejaVuSans-75" d="M 544 1381 
L 544 3500 
L 1119 3500 
L 1119 1403 
Q 1119 906 1312 657 
Q 1506 409 1894 409 
Q 2359 409 2629 706 
Q 2900 1003 2900 1516 
L 2900 3500 
L 3475 3500 
L 3475 0 
L 2900 0 
L 2900 538 
Q 2691 219 2414 64 
Q 2138 -91 1772 -91 
Q 1169 -91 856 284 
Q 544 659 544 1381 
z
M 1991 3584 
L 1991 3584 
z
" transform="scale(0.015625)"/>
       <path id="DejaVuSans-72" d="M 2631 2963 
Q 2534 3019 2420 3045 
Q 2306 3072 2169 3072 
Q 1681 3072 1420 2755 
Q 1159 2438 1159 1844 
L 1159 0 
L 581 0 
L 581 3500 
L 1159 3500 
L 1159 2956 
Q 1341 3275 1631 3429 
Q 1922 3584 2338 3584 
Q 2397 3584 2469 3576 
Q 2541 3569 2628 3553 
L 2631 2963 
z
" transform="scale(0.015625)"/>
      </defs>
      <use xlink:href="#DejaVuSans-50"/>
      <use xlink:href="#DejaVuSans-6f" x="56.677734"/>
      <use xlink:href="#DejaVuSans-6c" x="117.859375"/>
      <use xlink:href="#DejaVuSans-69" x="145.642578"/>
      <use xlink:href="#DejaVuSans-63" x="173.425781"/>
      <use xlink:href="#DejaVuSans-79" x="228.40625"/>
      <use xlink:href="#DejaVuSans-20" x="287.585938"/>
      <use xlink:href="#DejaVuSans-76" x="319.373047"/>
      <use xlink:href="#DejaVuSans-61" x="378.552734"/>
      <use xlink:href="#DejaVuSans-6c" x="439.832031"/>
      <use xlink:href="#DejaVuSans-75" x="467.615234"/>
      <use xlink:href="#DejaVuSans-65" x="530.994141"/>
      <use xlink:href="#DejaVuSans-20" x="592.517578"/>
      <use xlink:href="#DejaVuSans-65" x="624.304688"/>
      <use xlink:href="#DejaVuSans-72" x="685.828125"/>
      <use xlink:href="#DejaVuSans-72" x="725.191406"/>
      <use xlink:href="#DejaVuSans-6f" x="764.054688"/>
      <use xlink:href="#DejaVuSans-72" x="825.236328"/>
     </g>
    </g>
   </g>
   <g id="line2d_29">
    <path d="M 69.218182 253.333154 
L 74.376888 254.130211 
L 79.535593 252.36156 
L 84.694299 259.949394 
L 89.853005 254.068138 
L 95.01171 252.908818 
L 100.170416 254.554148 
L 105.329122 258.359751 
L 110.487827 248.598522 
L 115.646533 253.737129 
L 120.805239 254.568114 
L 125.963945 253.776026 
L 131.12265 254.024027 
L 136.281356 255.017193 
L 141.440062 245.901052 
L 146.598767 257.981039 
L 151.757473 253.262598 
L 156.916179 209.708779 
L 162.074884 254.897351 
L 167.23359 254.323675 
L 172.392296 254.123471 
L 177.551002 234.667334 
L 182.709707 249.087791 
L 187.868413 254.194967 
L 193.027119 251.036739 
L 198.185824 211.970762 
L 203.34453 248.454787 
L 208.503236 247.237402 
L 213.661941 252.122198 
L 218.820647 247.506776 
L 223.979353 168.902632 
L 229.138059 149.677403 
L 234.296764 182.257194 
L 239.45547 183.998992 
L 244.614176 256.63417 
L 249.772881 71.185473 
L 254.931587 71.185473 
L 260.090293 83.17116 
L 265.248998 83.868625 
L 270.407704 83.868625 
L 275.56641 71.470115 
L 280.725116 122.083579 
L 285.883821 91.652006 
L 291.042527 91.986864 
L 296.201233 73.464439 
L 301.359938 96.836378 
L 306.518644 53.734183 
L 311.67735 52.817841 
L 316.836055 90.068682 
L 321.994761 56.575662 
L 327.153467 150.949596 
L 332.312173 56.575482 
L 337.470878 56.575482 
L 342.629584 58.78324 
L 347.78829 58.78324 
L 352.946995 56.575403 
L 358.105701 73.044457 
L 363.264407 71.572048 
L 368.423112 71.571928 
L 373.581818 45.558604 
" clip-path="url(#pea70956e5e)" style="fill: none; stroke: #9d02d7; stroke-width: 1.5; stroke-linecap: square"/>
    <defs>
     <path id="m35e7a1e9d3" d="M 0 -2 
L -2 2 
L 2 2 
z
" style="stroke: #9d02d7; stroke-linejoin: miter"/>
    </defs>
    <g clip-path="url(#pea70956e5e)">
     <use xlink:href="#m35e7a1e9d3" x="69.218182" y="253.333154" style="fill: #9d02d7; stroke: #9d02d7; stroke-linejoin: miter"/>
     <use xlink:href="#m35e7a1e9d3" x="74.376888" y="254.130211" style="fill: #9d02d7; stroke: #9d02d7; stroke-linejoin: miter"/>
     <use xlink:href="#m35e7a1e9d3" x="79.535593" y="252.36156" style="fill: #9d02d7; stroke: #9d02d7; stroke-linejoin: miter"/>
     <use xlink:href="#m35e7a1e9d3" x="84.694299" y="259.949394" style="fill: #9d02d7; stroke: #9d02d7; stroke-linejoin: miter"/>
     <use xlink:href="#m35e7a1e9d3" x="89.853005" y="254.068138" style="fill: #9d02d7; stroke: #9d02d7; stroke-linejoin: miter"/>
     <use xlink:href="#m35e7a1e9d3" x="95.01171" y="252.908818" style="fill: #9d02d7; stroke: #9d02d7; stroke-linejoin: miter"/>
     <use xlink:href="#m35e7a1e9d3" x="100.170416" y="254.554148" style="fill: #9d02d7; stroke: #9d02d7; stroke-linejoin: miter"/>
     <use xlink:href="#m35e7a1e9d3" x="105.329122" y="258.359751" style="fill: #9d02d7; stroke: #9d02d7; stroke-linejoin: miter"/>
     <use xlink:href="#m35e7a1e9d3" x="110.487827" y="248.598522" style="fill: #9d02d7; stroke: #9d02d7; stroke-linejoin: miter"/>
     <use xlink:href="#m35e7a1e9d3" x="115.646533" y="253.737129" style="fill: #9d02d7; stroke: #9d02d7; stroke-linejoin: miter"/>
     <use xlink:href="#m35e7a1e9d3" x="120.805239" y="254.568114" style="fill: #9d02d7; stroke: #9d02d7; stroke-linejoin: miter"/>
     <use xlink:href="#m35e7a1e9d3" x="125.963945" y="253.776026" style="fill: #9d02d7; stroke: #9d02d7; stroke-linejoin: miter"/>
     <use xlink:href="#m35e7a1e9d3" x="131.12265" y="254.024027" style="fill: #9d02d7; stroke: #9d02d7; stroke-linejoin: miter"/>
     <use xlink:href="#m35e7a1e9d3" x="136.281356" y="255.017193" style="fill: #9d02d7; stroke: #9d02d7; stroke-linejoin: miter"/>
     <use xlink:href="#m35e7a1e9d3" x="141.440062" y="245.901052" style="fill: #9d02d7; stroke: #9d02d7; stroke-linejoin: miter"/>
     <use xlink:href="#m35e7a1e9d3" x="146.598767" y="257.981039" style="fill: #9d02d7; stroke: #9d02d7; stroke-linejoin: miter"/>
     <use xlink:href="#m35e7a1e9d3" x="151.757473" y="253.262598" style="fill: #9d02d7; stroke: #9d02d7; stroke-linejoin: miter"/>
     <use xlink:href="#m35e7a1e9d3" x="156.916179" y="209.708779" style="fill: #9d02d7; stroke: #9d02d7; stroke-linejoin: miter"/>
     <use xlink:href="#m35e7a1e9d3" x="162.074884" y="254.897351" style="fill: #9d02d7; stroke: #9d02d7; stroke-linejoin: miter"/>
     <use xlink:href="#m35e7a1e9d3" x="167.23359" y="254.323675" style="fill: #9d02d7; stroke: #9d02d7; stroke-linejoin: miter"/>
     <use xlink:href="#m35e7a1e9d3" x="172.392296" y="254.123471" style="fill: #9d02d7; stroke: #9d02d7; stroke-linejoin: miter"/>
     <use xlink:href="#m35e7a1e9d3" x="177.551002" y="234.667334" style="fill: #9d02d7; stroke: #9d02d7; stroke-linejoin: miter"/>
     <use xlink:href="#m35e7a1e9d3" x="182.709707" y="249.087791" style="fill: #9d02d7; stroke: #9d02d7; stroke-linejoin: miter"/>
     <use xlink:href="#m35e7a1e9d3" x="187.868413" y="254.194967" style="fill: #9d02d7; stroke: #9d02d7; stroke-linejoin: miter"/>
     <use xlink:href="#m35e7a1e9d3" x="193.027119" y="251.036739" style="fill: #9d02d7; stroke: #9d02d7; stroke-linejoin: miter"/>
     <use xlink:href="#m35e7a1e9d3" x="198.185824" y="211.970762" style="fill: #9d02d7; stroke: #9d02d7; stroke-linejoin: miter"/>
     <use xlink:href="#m35e7a1e9d3" x="203.34453" y="248.454787" style="fill: #9d02d7; stroke: #9d02d7; stroke-linejoin: miter"/>
     <use xlink:href="#m35e7a1e9d3" x="208.503236" y="247.237402" style="fill: #9d02d7; stroke: #9d02d7; stroke-linejoin: miter"/>
     <use xlink:href="#m35e7a1e9d3" x="213.661941" y="252.122198" style="fill: #9d02d7; stroke: #9d02d7; stroke-linejoin: miter"/>
     <use xlink:href="#m35e7a1e9d3" x="218.820647" y="247.506776" style="fill: #9d02d7; stroke: #9d02d7; stroke-linejoin: miter"/>
     <use xlink:href="#m35e7a1e9d3" x="223.979353" y="168.902632" style="fill: #9d02d7; stroke: #9d02d7; stroke-linejoin: miter"/>
     <use xlink:href="#m35e7a1e9d3" x="229.138059" y="149.677403" style="fill: #9d02d7; stroke: #9d02d7; stroke-linejoin: miter"/>
     <use xlink:href="#m35e7a1e9d3" x="234.296764" y="182.257194" style="fill: #9d02d7; stroke: #9d02d7; stroke-linejoin: miter"/>
     <use xlink:href="#m35e7a1e9d3" x="239.45547" y="183.998992" style="fill: #9d02d7; stroke: #9d02d7; stroke-linejoin: miter"/>
     <use xlink:href="#m35e7a1e9d3" x="244.614176" y="256.63417" style="fill: #9d02d7; stroke: #9d02d7; stroke-linejoin: miter"/>
     <use xlink:href="#m35e7a1e9d3" x="249.772881" y="71.185473" style="fill: #9d02d7; stroke: #9d02d7; stroke-linejoin: miter"/>
     <use xlink:href="#m35e7a1e9d3" x="254.931587" y="71.185473" style="fill: #9d02d7; stroke: #9d02d7; stroke-linejoin: miter"/>
     <use xlink:href="#m35e7a1e9d3" x="260.090293" y="83.17116" style="fill: #9d02d7; stroke: #9d02d7; stroke-linejoin: miter"/>
     <use xlink:href="#m35e7a1e9d3" x="265.248998" y="83.868625" style="fill: #9d02d7; stroke: #9d02d7; stroke-linejoin: miter"/>
     <use xlink:href="#m35e7a1e9d3" x="270.407704" y="83.868625" style="fill: #9d02d7; stroke: #9d02d7; stroke-linejoin: miter"/>
     <use xlink:href="#m35e7a1e9d3" x="275.56641" y="71.470115" style="fill: #9d02d7; stroke: #9d02d7; stroke-linejoin: miter"/>
     <use xlink:href="#m35e7a1e9d3" x="280.725116" y="122.083579" style="fill: #9d02d7; stroke: #9d02d7; stroke-linejoin: miter"/>
     <use xlink:href="#m35e7a1e9d3" x="285.883821" y="91.652006" style="fill: #9d02d7; stroke: #9d02d7; stroke-linejoin: miter"/>
     <use xlink:href="#m35e7a1e9d3" x="291.042527" y="91.986864" style="fill: #9d02d7; stroke: #9d02d7; stroke-linejoin: miter"/>
     <use xlink:href="#m35e7a1e9d3" x="296.201233" y="73.464439" style="fill: #9d02d7; stroke: #9d02d7; stroke-linejoin: miter"/>
     <use xlink:href="#m35e7a1e9d3" x="301.359938" y="96.836378" style="fill: #9d02d7; stroke: #9d02d7; stroke-linejoin: miter"/>
     <use xlink:href="#m35e7a1e9d3" x="306.518644" y="53.734183" style="fill: #9d02d7; stroke: #9d02d7; stroke-linejoin: miter"/>
     <use xlink:href="#m35e7a1e9d3" x="311.67735" y="52.817841" style="fill: #9d02d7; stroke: #9d02d7; stroke-linejoin: miter"/>
     <use xlink:href="#m35e7a1e9d3" x="316.836055" y="90.068682" style="fill: #9d02d7; stroke: #9d02d7; stroke-linejoin: miter"/>
     <use xlink:href="#m35e7a1e9d3" x="321.994761" y="56.575662" style="fill: #9d02d7; stroke: #9d02d7; stroke-linejoin: miter"/>
     <use xlink:href="#m35e7a1e9d3" x="327.153467" y="150.949596" style="fill: #9d02d7; stroke: #9d02d7; stroke-linejoin: miter"/>
     <use xlink:href="#m35e7a1e9d3" x="332.312173" y="56.575482" style="fill: #9d02d7; stroke: #9d02d7; stroke-linejoin: miter"/>
     <use xlink:href="#m35e7a1e9d3" x="337.470878" y="56.575482" style="fill: #9d02d7; stroke: #9d02d7; stroke-linejoin: miter"/>
     <use xlink:href="#m35e7a1e9d3" x="342.629584" y="58.78324" style="fill: #9d02d7; stroke: #9d02d7; stroke-linejoin: miter"/>
     <use xlink:href="#m35e7a1e9d3" x="347.78829" y="58.78324" style="fill: #9d02d7; stroke: #9d02d7; stroke-linejoin: miter"/>
     <use xlink:href="#m35e7a1e9d3" x="352.946995" y="56.575403" style="fill: #9d02d7; stroke: #9d02d7; stroke-linejoin: miter"/>
     <use xlink:href="#m35e7a1e9d3" x="358.105701" y="73.044457" style="fill: #9d02d7; stroke: #9d02d7; stroke-linejoin: miter"/>
     <use xlink:href="#m35e7a1e9d3" x="363.264407" y="71.572048" style="fill: #9d02d7; stroke: #9d02d7; stroke-linejoin: miter"/>
     <use xlink:href="#m35e7a1e9d3" x="368.423112" y="71.571928" style="fill: #9d02d7; stroke: #9d02d7; stroke-linejoin: miter"/>
     <use xlink:href="#m35e7a1e9d3" x="373.581818" y="45.558604" style="fill: #9d02d7; stroke: #9d02d7; stroke-linejoin: miter"/>
    </g>
   </g>
   <g id="line2d_30">
    <path d="M 69.218182 254.808241 
L 74.376888 256.272154 
L 79.535593 253.141411 
L 84.694299 256.258163 
L 89.853005 255.086274 
L 95.01171 253.277558 
L 100.170416 255.273589 
L 105.329122 259.654762 
L 110.487827 273.919404 
L 115.646533 258.994044 
L 120.805239 255.330521 
L 125.963945 256.549969 
L 131.12265 257.115617 
L 136.281356 257.298684 
L 141.440062 257.70435 
L 146.598767 261.07207 
L 151.757473 253.511365 
L 156.916179 253.096463 
L 162.074884 253.366355 
L 167.23359 259.522359 
L 172.392296 256.789602 
L 177.551002 240.150287 
L 182.709707 258.040803 
L 187.868413 255.114241 
L 193.027119 257.136851 
L 198.185824 258.273262 
L 203.34453 257.574208 
L 208.503236 257.305399 
L 213.661941 255.631745 
L 218.820647 239.738329 
L 223.979353 254.927364 
L 229.138059 244.631854 
L 234.296764 257.406343 
L 239.45547 249.9262 
L 244.614176 236.002125 
L 249.772881 255.269496 
L 254.931587 255.359632 
L 260.090293 134.502489 
L 265.248998 251.399081 
L 270.407704 256.253612 
L 275.56641 182.049004 
L 280.725116 192.581367 
L 285.883821 101.928081 
L 291.042527 101.928081 
L 296.201233 101.928081 
L 301.359938 101.928081 
L 306.518644 98.930232 
L 311.67735 159.500903 
L 316.836055 257.188576 
L 321.994761 257.188576 
L 327.153467 95.667205 
L 332.312173 93.368895 
L 337.470878 131.89099 
L 342.629584 131.89099 
L 347.78829 131.52127 
L 352.946995 96.687502 
L 358.105701 96.687502 
L 363.264407 71.53065 
L 368.423112 71.53065 
L 373.581818 73.919512 
" clip-path="url(#pea70956e5e)" style="fill: none; stroke: #0000ff; stroke-width: 1.5; stroke-linecap: square"/>
    <defs>
     <path id="m2daa8d4b25" d="M 0 2 
C 0.530406 2 1.03916 1.789267 1.414214 1.414214 
C 1.789267 1.03916 2 0.530406 2 0 
C 2 -0.530406 1.789267 -1.03916 1.414214 -1.414214 
C 1.03916 -1.789267 0.530406 -2 0 -2 
C -0.530406 -2 -1.03916 -1.789267 -1.414214 -1.414214 
C -1.789267 -1.03916 -2 -0.530406 -2 0 
C -2 0.530406 -1.789267 1.03916 -1.414214 1.414214 
C -1.03916 1.789267 -0.530406 2 0 2 
z
" style="stroke: #0000ff"/>
    </defs>
    <g clip-path="url(#pea70956e5e)">
     <use xlink:href="#m2daa8d4b25" x="69.218182" y="254.808241" style="fill: #0000ff; stroke: #0000ff"/>
     <use xlink:href="#m2daa8d4b25" x="74.376888" y="256.272154" style="fill: #0000ff; stroke: #0000ff"/>
     <use xlink:href="#m2daa8d4b25" x="79.535593" y="253.141411" style="fill: #0000ff; stroke: #0000ff"/>
     <use xlink:href="#m2daa8d4b25" x="84.694299" y="256.258163" style="fill: #0000ff; stroke: #0000ff"/>
     <use xlink:href="#m2daa8d4b25" x="89.853005" y="255.086274" style="fill: #0000ff; stroke: #0000ff"/>
     <use xlink:href="#m2daa8d4b25" x="95.01171" y="253.277558" style="fill: #0000ff; stroke: #0000ff"/>
     <use xlink:href="#m2daa8d4b25" x="100.170416" y="255.273589" style="fill: #0000ff; stroke: #0000ff"/>
     <use xlink:href="#m2daa8d4b25" x="105.329122" y="259.654762" style="fill: #0000ff; stroke: #0000ff"/>
     <use xlink:href="#m2daa8d4b25" x="110.487827" y="273.919404" style="fill: #0000ff; stroke: #0000ff"/>
     <use xlink:href="#m2daa8d4b25" x="115.646533" y="258.994044" style="fill: #0000ff; stroke: #0000ff"/>
     <use xlink:href="#m2daa8d4b25" x="120.805239" y="255.330521" style="fill: #0000ff; stroke: #0000ff"/>
     <use xlink:href="#m2daa8d4b25" x="125.963945" y="256.549969" style="fill: #0000ff; stroke: #0000ff"/>
     <use xlink:href="#m2daa8d4b25" x="131.12265" y="257.115617" style="fill: #0000ff; stroke: #0000ff"/>
     <use xlink:href="#m2daa8d4b25" x="136.281356" y="257.298684" style="fill: #0000ff; stroke: #0000ff"/>
     <use xlink:href="#m2daa8d4b25" x="141.440062" y="257.70435" style="fill: #0000ff; stroke: #0000ff"/>
     <use xlink:href="#m2daa8d4b25" x="146.598767" y="261.07207" style="fill: #0000ff; stroke: #0000ff"/>
     <use xlink:href="#m2daa8d4b25" x="151.757473" y="253.511365" style="fill: #0000ff; stroke: #0000ff"/>
     <use xlink:href="#m2daa8d4b25" x="156.916179" y="253.096463" style="fill: #0000ff; stroke: #0000ff"/>
     <use xlink:href="#m2daa8d4b25" x="162.074884" y="253.366355" style="fill: #0000ff; stroke: #0000ff"/>
     <use xlink:href="#m2daa8d4b25" x="167.23359" y="259.522359" style="fill: #0000ff; stroke: #0000ff"/>
     <use xlink:href="#m2daa8d4b25" x="172.392296" y="256.789602" style="fill: #0000ff; stroke: #0000ff"/>
     <use xlink:href="#m2daa8d4b25" x="177.551002" y="240.150287" style="fill: #0000ff; stroke: #0000ff"/>
     <use xlink:href="#m2daa8d4b25" x="182.709707" y="258.040803" style="fill: #0000ff; stroke: #0000ff"/>
     <use xlink:href="#m2daa8d4b25" x="187.868413" y="255.114241" style="fill: #0000ff; stroke: #0000ff"/>
     <use xlink:href="#m2daa8d4b25" x="193.027119" y="257.136851" style="fill: #0000ff; stroke: #0000ff"/>
     <use xlink:href="#m2daa8d4b25" x="198.185824" y="258.273262" style="fill: #0000ff; stroke: #0000ff"/>
     <use xlink:href="#m2daa8d4b25" x="203.34453" y="257.574208" style="fill: #0000ff; stroke: #0000ff"/>
     <use xlink:href="#m2daa8d4b25" x="208.503236" y="257.305399" style="fill: #0000ff; stroke: #0000ff"/>
     <use xlink:href="#m2daa8d4b25" x="213.661941" y="255.631745" style="fill: #0000ff; stroke: #0000ff"/>
     <use xlink:href="#m2daa8d4b25" x="218.820647" y="239.738329" style="fill: #0000ff; stroke: #0000ff"/>
     <use xlink:href="#m2daa8d4b25" x="223.979353" y="254.927364" style="fill: #0000ff; stroke: #0000ff"/>
     <use xlink:href="#m2daa8d4b25" x="229.138059" y="244.631854" style="fill: #0000ff; stroke: #0000ff"/>
     <use xlink:href="#m2daa8d4b25" x="234.296764" y="257.406343" style="fill: #0000ff; stroke: #0000ff"/>
     <use xlink:href="#m2daa8d4b25" x="239.45547" y="249.9262" style="fill: #0000ff; stroke: #0000ff"/>
     <use xlink:href="#m2daa8d4b25" x="244.614176" y="236.002125" style="fill: #0000ff; stroke: #0000ff"/>
     <use xlink:href="#m2daa8d4b25" x="249.772881" y="255.269496" style="fill: #0000ff; stroke: #0000ff"/>
     <use xlink:href="#m2daa8d4b25" x="254.931587" y="255.359632" style="fill: #0000ff; stroke: #0000ff"/>
     <use xlink:href="#m2daa8d4b25" x="260.090293" y="134.502489" style="fill: #0000ff; stroke: #0000ff"/>
     <use xlink:href="#m2daa8d4b25" x="265.248998" y="251.399081" style="fill: #0000ff; stroke: #0000ff"/>
     <use xlink:href="#m2daa8d4b25" x="270.407704" y="256.253612" style="fill: #0000ff; stroke: #0000ff"/>
     <use xlink:href="#m2daa8d4b25" x="275.56641" y="182.049004" style="fill: #0000ff; stroke: #0000ff"/>
     <use xlink:href="#m2daa8d4b25" x="280.725116" y="192.581367" style="fill: #0000ff; stroke: #0000ff"/>
     <use xlink:href="#m2daa8d4b25" x="285.883821" y="101.928081" style="fill: #0000ff; stroke: #0000ff"/>
     <use xlink:href="#m2daa8d4b25" x="291.042527" y="101.928081" style="fill: #0000ff; stroke: #0000ff"/>
     <use xlink:href="#m2daa8d4b25" x="296.201233" y="101.928081" style="fill: #0000ff; stroke: #0000ff"/>
     <use xlink:href="#m2daa8d4b25" x="301.359938" y="101.928081" style="fill: #0000ff; stroke: #0000ff"/>
     <use xlink:href="#m2daa8d4b25" x="306.518644" y="98.930232" style="fill: #0000ff; stroke: #0000ff"/>
     <use xlink:href="#m2daa8d4b25" x="311.67735" y="159.500903" style="fill: #0000ff; stroke: #0000ff"/>
     <use xlink:href="#m2daa8d4b25" x="316.836055" y="257.188576" style="fill: #0000ff; stroke: #0000ff"/>
     <use xlink:href="#m2daa8d4b25" x="321.994761" y="257.188576" style="fill: #0000ff; stroke: #0000ff"/>
     <use xlink:href="#m2daa8d4b25" x="327.153467" y="95.667205" style="fill: #0000ff; stroke: #0000ff"/>
     <use xlink:href="#m2daa8d4b25" x="332.312173" y="93.368895" style="fill: #0000ff; stroke: #0000ff"/>
     <use xlink:href="#m2daa8d4b25" x="337.470878" y="131.89099" style="fill: #0000ff; stroke: #0000ff"/>
     <use xlink:href="#m2daa8d4b25" x="342.629584" y="131.89099" style="fill: #0000ff; stroke: #0000ff"/>
     <use xlink:href="#m2daa8d4b25" x="347.78829" y="131.52127" style="fill: #0000ff; stroke: #0000ff"/>
     <use xlink:href="#m2daa8d4b25" x="352.946995" y="96.687502" style="fill: #0000ff; stroke: #0000ff"/>
     <use xlink:href="#m2daa8d4b25" x="358.105701" y="96.687502" style="fill: #0000ff; stroke: #0000ff"/>
     <use xlink:href="#m2daa8d4b25" x="363.264407" y="71.53065" style="fill: #0000ff; stroke: #0000ff"/>
     <use xlink:href="#m2daa8d4b25" x="368.423112" y="71.53065" style="fill: #0000ff; stroke: #0000ff"/>
     <use xlink:href="#m2daa8d4b25" x="373.581818" y="73.919512" style="fill: #0000ff; stroke: #0000ff"/>
    </g>
   </g>
   <g id="line2d_31">
    <path d="M 69.218182 252.908818 
L 74.376888 252.934247 
L 79.535593 254.059341 
L 84.694299 253.069855 
L 89.853005 252.908818 
L 95.01171 253.965269 
L 100.170416 252.963919 
L 105.329122 255.156365 
L 110.487827 257.834924 
L 115.646533 255.201366 
L 120.805239 258.149216 
L 125.963945 256.511799 
L 131.12265 264.474732 
L 136.281356 259.963603 
L 141.440062 259.015163 
L 146.598767 254.863606 
L 151.757473 253.342217 
L 156.916179 255.029018 
L 162.074884 243.027378 
L 167.23359 253.854642 
L 172.392296 239.448734 
L 177.551002 255.71052 
L 182.709707 252.656738 
L 187.868413 246.49686 
L 193.027119 253.538197 
L 198.185824 248.538014 
L 203.34453 253.948553 
L 208.503236 253.385942 
L 213.661941 255.375731 
L 218.820647 254.926236 
L 223.979353 201.554381 
L 229.138059 254.027967 
L 234.296764 196.547228 
L 239.45547 250.192807 
L 244.614176 157.406134 
L 249.772881 243.305218 
L 254.931587 240.494365 
L 260.090293 243.200012 
L 265.248998 240.520738 
L 270.407704 130.20244 
L 275.56641 95.963649 
L 280.725116 218.872235 
L 285.883821 84.463002 
L 291.042527 199.908934 
L 296.201233 252.45286 
L 301.359938 139.94047 
L 306.518644 139.378431 
L 311.67735 88.205471 
L 316.836055 52.029372 
L 321.994761 52.458118 
L 327.153467 152.00132 
L 332.312173 253.066006 
L 337.470878 252.811438 
L 342.629584 181.034691 
L 347.78829 243.894594 
L 352.946995 53.686947 
L 358.105701 53.406675 
L 363.264407 53.406675 
L 368.423112 53.406675 
L 373.581818 53.406675 
" clip-path="url(#pea70956e5e)" style="fill: none; stroke: #ff7763; stroke-width: 1.5; stroke-linecap: square"/>
    <defs>
     <path id="ma31408ed93" d="M -2 2 
L 2 -2 
M -2 -2 
L 2 2 
" style="stroke: #ff7763"/>
    </defs>
    <g clip-path="url(#pea70956e5e)">
     <use xlink:href="#ma31408ed93" x="69.218182" y="252.908818" style="fill: #ff7763; stroke: #ff7763"/>
     <use xlink:href="#ma31408ed93" x="74.376888" y="252.934247" style="fill: #ff7763; stroke: #ff7763"/>
     <use xlink:href="#ma31408ed93" x="79.535593" y="254.059341" style="fill: #ff7763; stroke: #ff7763"/>
     <use xlink:href="#ma31408ed93" x="84.694299" y="253.069855" style="fill: #ff7763; stroke: #ff7763"/>
     <use xlink:href="#ma31408ed93" x="89.853005" y="252.908818" style="fill: #ff7763; stroke: #ff7763"/>
     <use xlink:href="#ma31408ed93" x="95.01171" y="253.965269" style="fill: #ff7763; stroke: #ff7763"/>
     <use xlink:href="#ma31408ed93" x="100.170416" y="252.963919" style="fill: #ff7763; stroke: #ff7763"/>
     <use xlink:href="#ma31408ed93" x="105.329122" y="255.156365" style="fill: #ff7763; stroke: #ff7763"/>
     <use xlink:href="#ma31408ed93" x="110.487827" y="257.834924" style="fill: #ff7763; stroke: #ff7763"/>
     <use xlink:href="#ma31408ed93" x="115.646533" y="255.201366" style="fill: #ff7763; stroke: #ff7763"/>
     <use xlink:href="#ma31408ed93" x="120.805239" y="258.149216" style="fill: #ff7763; stroke: #ff7763"/>
     <use xlink:href="#ma31408ed93" x="125.963945" y="256.511799" style="fill: #ff7763; stroke: #ff7763"/>
     <use xlink:href="#ma31408ed93" x="131.12265" y="264.474732" style="fill: #ff7763; stroke: #ff7763"/>
     <use xlink:href="#ma31408ed93" x="136.281356" y="259.963603" style="fill: #ff7763; stroke: #ff7763"/>
     <use xlink:href="#ma31408ed93" x="141.440062" y="259.015163" style="fill: #ff7763; stroke: #ff7763"/>
     <use xlink:href="#ma31408ed93" x="146.598767" y="254.863606" style="fill: #ff7763; stroke: #ff7763"/>
     <use xlink:href="#ma31408ed93" x="151.757473" y="253.342217" style="fill: #ff7763; stroke: #ff7763"/>
     <use xlink:href="#ma31408ed93" x="156.916179" y="255.029018" style="fill: #ff7763; stroke: #ff7763"/>
     <use xlink:href="#ma31408ed93" x="162.074884" y="243.027378" style="fill: #ff7763; stroke: #ff7763"/>
     <use xlink:href="#ma31408ed93" x="167.23359" y="253.854642" style="fill: #ff7763; stroke: #ff7763"/>
     <use xlink:href="#ma31408ed93" x="172.392296" y="239.448734" style="fill: #ff7763; stroke: #ff7763"/>
     <use xlink:href="#ma31408ed93" x="177.551002" y="255.71052" style="fill: #ff7763; stroke: #ff7763"/>
     <use xlink:href="#ma31408ed93" x="182.709707" y="252.656738" style="fill: #ff7763; stroke: #ff7763"/>
     <use xlink:href="#ma31408ed93" x="187.868413" y="246.49686" style="fill: #ff7763; stroke: #ff7763"/>
     <use xlink:href="#ma31408ed93" x="193.027119" y="253.538197" style="fill: #ff7763; stroke: #ff7763"/>
     <use xlink:href="#ma31408ed93" x="198.185824" y="248.538014" style="fill: #ff7763; stroke: #ff7763"/>
     <use xlink:href="#ma31408ed93" x="203.34453" y="253.948553" style="fill: #ff7763; stroke: #ff7763"/>
     <use xlink:href="#ma31408ed93" x="208.503236" y="253.385942" style="fill: #ff7763; stroke: #ff7763"/>
     <use xlink:href="#ma31408ed93" x="213.661941" y="255.375731" style="fill: #ff7763; stroke: #ff7763"/>
     <use xlink:href="#ma31408ed93" x="218.820647" y="254.926236" style="fill: #ff7763; stroke: #ff7763"/>
     <use xlink:href="#ma31408ed93" x="223.979353" y="201.554381" style="fill: #ff7763; stroke: #ff7763"/>
     <use xlink:href="#ma31408ed93" x="229.138059" y="254.027967" style="fill: #ff7763; stroke: #ff7763"/>
     <use xlink:href="#ma31408ed93" x="234.296764" y="196.547228" style="fill: #ff7763; stroke: #ff7763"/>
     <use xlink:href="#ma31408ed93" x="239.45547" y="250.192807" style="fill: #ff7763; stroke: #ff7763"/>
     <use xlink:href="#ma31408ed93" x="244.614176" y="157.406134" style="fill: #ff7763; stroke: #ff7763"/>
     <use xlink:href="#ma31408ed93" x="249.772881" y="243.305218" style="fill: #ff7763; stroke: #ff7763"/>
     <use xlink:href="#ma31408ed93" x="254.931587" y="240.494365" style="fill: #ff7763; stroke: #ff7763"/>
     <use xlink:href="#ma31408ed93" x="260.090293" y="243.200012" style="fill: #ff7763; stroke: #ff7763"/>
     <use xlink:href="#ma31408ed93" x="265.248998" y="240.520738" style="fill: #ff7763; stroke: #ff7763"/>
     <use xlink:href="#ma31408ed93" x="270.407704" y="130.20244" style="fill: #ff7763; stroke: #ff7763"/>
     <use xlink:href="#ma31408ed93" x="275.56641" y="95.963649" style="fill: #ff7763; stroke: #ff7763"/>
     <use xlink:href="#ma31408ed93" x="280.725116" y="218.872235" style="fill: #ff7763; stroke: #ff7763"/>
     <use xlink:href="#ma31408ed93" x="285.883821" y="84.463002" style="fill: #ff7763; stroke: #ff7763"/>
     <use xlink:href="#ma31408ed93" x="291.042527" y="199.908934" style="fill: #ff7763; stroke: #ff7763"/>
     <use xlink:href="#ma31408ed93" x="296.201233" y="252.45286" style="fill: #ff7763; stroke: #ff7763"/>
     <use xlink:href="#ma31408ed93" x="301.359938" y="139.94047" style="fill: #ff7763; stroke: #ff7763"/>
     <use xlink:href="#ma31408ed93" x="306.518644" y="139.378431" style="fill: #ff7763; stroke: #ff7763"/>
     <use xlink:href="#ma31408ed93" x="311.67735" y="88.205471" style="fill: #ff7763; stroke: #ff7763"/>
     <use xlink:href="#ma31408ed93" x="316.836055" y="52.029372" style="fill: #ff7763; stroke: #ff7763"/>
     <use xlink:href="#ma31408ed93" x="321.994761" y="52.458118" style="fill: #ff7763; stroke: #ff7763"/>
     <use xlink:href="#ma31408ed93" x="327.153467" y="152.00132" style="fill: #ff7763; stroke: #ff7763"/>
     <use xlink:href="#ma31408ed93" x="332.312173" y="253.066006" style="fill: #ff7763; stroke: #ff7763"/>
     <use xlink:href="#ma31408ed93" x="337.470878" y="252.811438" style="fill: #ff7763; stroke: #ff7763"/>
     <use xlink:href="#ma31408ed93" x="342.629584" y="181.034691" style="fill: #ff7763; stroke: #ff7763"/>
     <use xlink:href="#ma31408ed93" x="347.78829" y="243.894594" style="fill: #ff7763; stroke: #ff7763"/>
     <use xlink:href="#ma31408ed93" x="352.946995" y="53.686947" style="fill: #ff7763; stroke: #ff7763"/>
     <use xlink:href="#ma31408ed93" x="358.105701" y="53.406675" style="fill: #ff7763; stroke: #ff7763"/>
     <use xlink:href="#ma31408ed93" x="363.264407" y="53.406675" style="fill: #ff7763; stroke: #ff7763"/>
     <use xlink:href="#ma31408ed93" x="368.423112" y="53.406675" style="fill: #ff7763; stroke: #ff7763"/>
     <use xlink:href="#ma31408ed93" x="373.581818" y="53.406675" style="fill: #ff7763; stroke: #ff7763"/>
    </g>
   </g>
   <g id="line2d_32">
    <path d="M 69.218182 253.646227 
L 74.376888 252.982249 
L 79.535593 253.037108 
L 84.694299 253.868199 
L 89.853005 266.647026 
L 95.01171 253.285679 
L 100.170416 253.94374 
L 105.329122 254.202757 
L 110.487827 254.430596 
L 115.646533 261.79292 
L 120.805239 260.902652 
L 125.963945 265.755065 
L 131.12265 253.938087 
L 136.281356 253.853439 
L 141.440062 254.222161 
L 146.598767 255.947717 
L 151.757473 226.49992 
L 156.916179 262.249669 
L 162.074884 253.647226 
L 167.23359 247.598012 
L 172.392296 262.006927 
L 177.551002 262.83744 
L 182.709707 236.770694 
L 187.868413 262.721309 
L 193.027119 249.56608 
L 198.185824 256.984669 
L 203.34453 262.353001 
L 208.503236 263.195563 
L 213.661941 254.561494 
L 218.820647 244.477573 
L 223.979353 261.377619 
L 229.138059 254.001443 
L 234.296764 265.272688 
L 239.45547 253.545747 
L 244.614176 256.712274 
L 249.772881 243.244459 
L 254.931587 255.035239 
L 260.090293 256.773331 
L 265.248998 256.756819 
L 270.407704 257.06408 
L 275.56641 233.109017 
L 280.725116 257.012594 
L 285.883821 250.434146 
L 291.042527 250.573893 
L 296.201233 193.872179 
L 301.359938 160.755142 
L 306.518644 172.997593 
L 311.67735 139.309549 
L 316.836055 172.622753 
L 321.994761 94.280055 
L 327.153467 156.211013 
L 332.312173 93.56344 
L 337.470878 61.623491 
L 342.629584 140.460778 
L 347.78829 140.460778 
L 352.946995 66.812344 
L 358.105701 94.623202 
L 363.264407 94.623202 
L 368.423112 239.740306 
L 373.581818 190.554896 
" clip-path="url(#pea70956e5e)" style="fill: none; stroke: #ffac1e; stroke-width: 1.5; stroke-linecap: square"/>
    <defs>
     <path id="m6c298ce653" d="M 0 -2 
L -0.449028 -0.618034 
L -1.902113 -0.618034 
L -0.726543 0.236068 
L -1.175571 1.618034 
L -0 0.763932 
L 1.175571 1.618034 
L 0.726543 0.236068 
L 1.902113 -0.618034 
L 0.449028 -0.618034 
z
" style="stroke: #ffac1e; stroke-linejoin: bevel"/>
    </defs>
    <g clip-path="url(#pea70956e5e)">
     <use xlink:href="#m6c298ce653" x="69.218182" y="253.646227" style="fill: #ffac1e; stroke: #ffac1e; stroke-linejoin: bevel"/>
     <use xlink:href="#m6c298ce653" x="74.376888" y="252.982249" style="fill: #ffac1e; stroke: #ffac1e; stroke-linejoin: bevel"/>
     <use xlink:href="#m6c298ce653" x="79.535593" y="253.037108" style="fill: #ffac1e; stroke: #ffac1e; stroke-linejoin: bevel"/>
     <use xlink:href="#m6c298ce653" x="84.694299" y="253.868199" style="fill: #ffac1e; stroke: #ffac1e; stroke-linejoin: bevel"/>
     <use xlink:href="#m6c298ce653" x="89.853005" y="266.647026" style="fill: #ffac1e; stroke: #ffac1e; stroke-linejoin: bevel"/>
     <use xlink:href="#m6c298ce653" x="95.01171" y="253.285679" style="fill: #ffac1e; stroke: #ffac1e; stroke-linejoin: bevel"/>
     <use xlink:href="#m6c298ce653" x="100.170416" y="253.94374" style="fill: #ffac1e; stroke: #ffac1e; stroke-linejoin: bevel"/>
     <use xlink:href="#m6c298ce653" x="105.329122" y="254.202757" style="fill: #ffac1e; stroke: #ffac1e; stroke-linejoin: bevel"/>
     <use xlink:href="#m6c298ce653" x="110.487827" y="254.430596" style="fill: #ffac1e; stroke: #ffac1e; stroke-linejoin: bevel"/>
     <use xlink:href="#m6c298ce653" x="115.646533" y="261.79292" style="fill: #ffac1e; stroke: #ffac1e; stroke-linejoin: bevel"/>
     <use xlink:href="#m6c298ce653" x="120.805239" y="260.902652" style="fill: #ffac1e; stroke: #ffac1e; stroke-linejoin: bevel"/>
     <use xlink:href="#m6c298ce653" x="125.963945" y="265.755065" style="fill: #ffac1e; stroke: #ffac1e; stroke-linejoin: bevel"/>
     <use xlink:href="#m6c298ce653" x="131.12265" y="253.938087" style="fill: #ffac1e; stroke: #ffac1e; stroke-linejoin: bevel"/>
     <use xlink:href="#m6c298ce653" x="136.281356" y="253.853439" style="fill: #ffac1e; stroke: #ffac1e; stroke-linejoin: bevel"/>
     <use xlink:href="#m6c298ce653" x="141.440062" y="254.222161" style="fill: #ffac1e; stroke: #ffac1e; stroke-linejoin: bevel"/>
     <use xlink:href="#m6c298ce653" x="146.598767" y="255.947717" style="fill: #ffac1e; stroke: #ffac1e; stroke-linejoin: bevel"/>
     <use xlink:href="#m6c298ce653" x="151.757473" y="226.49992" style="fill: #ffac1e; stroke: #ffac1e; stroke-linejoin: bevel"/>
     <use xlink:href="#m6c298ce653" x="156.916179" y="262.249669" style="fill: #ffac1e; stroke: #ffac1e; stroke-linejoin: bevel"/>
     <use xlink:href="#m6c298ce653" x="162.074884" y="253.647226" style="fill: #ffac1e; stroke: #ffac1e; stroke-linejoin: bevel"/>
     <use xlink:href="#m6c298ce653" x="167.23359" y="247.598012" style="fill: #ffac1e; stroke: #ffac1e; stroke-linejoin: bevel"/>
     <use xlink:href="#m6c298ce653" x="172.392296" y="262.006927" style="fill: #ffac1e; stroke: #ffac1e; stroke-linejoin: bevel"/>
     <use xlink:href="#m6c298ce653" x="177.551002" y="262.83744" style="fill: #ffac1e; stroke: #ffac1e; stroke-linejoin: bevel"/>
     <use xlink:href="#m6c298ce653" x="182.709707" y="236.770694" style="fill: #ffac1e; stroke: #ffac1e; stroke-linejoin: bevel"/>
     <use xlink:href="#m6c298ce653" x="187.868413" y="262.721309" style="fill: #ffac1e; stroke: #ffac1e; stroke-linejoin: bevel"/>
     <use xlink:href="#m6c298ce653" x="193.027119" y="249.56608" style="fill: #ffac1e; stroke: #ffac1e; stroke-linejoin: bevel"/>
     <use xlink:href="#m6c298ce653" x="198.185824" y="256.984669" style="fill: #ffac1e; stroke: #ffac1e; stroke-linejoin: bevel"/>
     <use xlink:href="#m6c298ce653" x="203.34453" y="262.353001" style="fill: #ffac1e; stroke: #ffac1e; stroke-linejoin: bevel"/>
     <use xlink:href="#m6c298ce653" x="208.503236" y="263.195563" style="fill: #ffac1e; stroke: #ffac1e; stroke-linejoin: bevel"/>
     <use xlink:href="#m6c298ce653" x="213.661941" y="254.561494" style="fill: #ffac1e; stroke: #ffac1e; stroke-linejoin: bevel"/>
     <use xlink:href="#m6c298ce653" x="218.820647" y="244.477573" style="fill: #ffac1e; stroke: #ffac1e; stroke-linejoin: bevel"/>
     <use xlink:href="#m6c298ce653" x="223.979353" y="261.377619" style="fill: #ffac1e; stroke: #ffac1e; stroke-linejoin: bevel"/>
     <use xlink:href="#m6c298ce653" x="229.138059" y="254.001443" style="fill: #ffac1e; stroke: #ffac1e; stroke-linejoin: bevel"/>
     <use xlink:href="#m6c298ce653" x="234.296764" y="265.272688" style="fill: #ffac1e; stroke: #ffac1e; stroke-linejoin: bevel"/>
     <use xlink:href="#m6c298ce653" x="239.45547" y="253.545747" style="fill: #ffac1e; stroke: #ffac1e; stroke-linejoin: bevel"/>
     <use xlink:href="#m6c298ce653" x="244.614176" y="256.712274" style="fill: #ffac1e; stroke: #ffac1e; stroke-linejoin: bevel"/>
     <use xlink:href="#m6c298ce653" x="249.772881" y="243.244459" style="fill: #ffac1e; stroke: #ffac1e; stroke-linejoin: bevel"/>
     <use xlink:href="#m6c298ce653" x="254.931587" y="255.035239" style="fill: #ffac1e; stroke: #ffac1e; stroke-linejoin: bevel"/>
     <use xlink:href="#m6c298ce653" x="260.090293" y="256.773331" style="fill: #ffac1e; stroke: #ffac1e; stroke-linejoin: bevel"/>
     <use xlink:href="#m6c298ce653" x="265.248998" y="256.756819" style="fill: #ffac1e; stroke: #ffac1e; stroke-linejoin: bevel"/>
     <use xlink:href="#m6c298ce653" x="270.407704" y="257.06408" style="fill: #ffac1e; stroke: #ffac1e; stroke-linejoin: bevel"/>
     <use xlink:href="#m6c298ce653" x="275.56641" y="233.109017" style="fill: #ffac1e; stroke: #ffac1e; stroke-linejoin: bevel"/>
     <use xlink:href="#m6c298ce653" x="280.725116" y="257.012594" style="fill: #ffac1e; stroke: #ffac1e; stroke-linejoin: bevel"/>
     <use xlink:href="#m6c298ce653" x="285.883821" y="250.434146" style="fill: #ffac1e; stroke: #ffac1e; stroke-linejoin: bevel"/>
     <use xlink:href="#m6c298ce653" x="291.042527" y="250.573893" style="fill: #ffac1e; stroke: #ffac1e; stroke-linejoin: bevel"/>
     <use xlink:href="#m6c298ce653" x="296.201233" y="193.872179" style="fill: #ffac1e; stroke: #ffac1e; stroke-linejoin: bevel"/>
     <use xlink:href="#m6c298ce653" x="301.359938" y="160.755142" style="fill: #ffac1e; stroke: #ffac1e; stroke-linejoin: bevel"/>
     <use xlink:href="#m6c298ce653" x="306.518644" y="172.997593" style="fill: #ffac1e; stroke: #ffac1e; stroke-linejoin: bevel"/>
     <use xlink:href="#m6c298ce653" x="311.67735" y="139.309549" style="fill: #ffac1e; stroke: #ffac1e; stroke-linejoin: bevel"/>
     <use xlink:href="#m6c298ce653" x="316.836055" y="172.622753" style="fill: #ffac1e; stroke: #ffac1e; stroke-linejoin: bevel"/>
     <use xlink:href="#m6c298ce653" x="321.994761" y="94.280055" style="fill: #ffac1e; stroke: #ffac1e; stroke-linejoin: bevel"/>
     <use xlink:href="#m6c298ce653" x="327.153467" y="156.211013" style="fill: #ffac1e; stroke: #ffac1e; stroke-linejoin: bevel"/>
     <use xlink:href="#m6c298ce653" x="332.312173" y="93.56344" style="fill: #ffac1e; stroke: #ffac1e; stroke-linejoin: bevel"/>
     <use xlink:href="#m6c298ce653" x="337.470878" y="61.623491" style="fill: #ffac1e; stroke: #ffac1e; stroke-linejoin: bevel"/>
     <use xlink:href="#m6c298ce653" x="342.629584" y="140.460778" style="fill: #ffac1e; stroke: #ffac1e; stroke-linejoin: bevel"/>
     <use xlink:href="#m6c298ce653" x="347.78829" y="140.460778" style="fill: #ffac1e; stroke: #ffac1e; stroke-linejoin: bevel"/>
     <use xlink:href="#m6c298ce653" x="352.946995" y="66.812344" style="fill: #ffac1e; stroke: #ffac1e; stroke-linejoin: bevel"/>
     <use xlink:href="#m6c298ce653" x="358.105701" y="94.623202" style="fill: #ffac1e; stroke: #ffac1e; stroke-linejoin: bevel"/>
     <use xlink:href="#m6c298ce653" x="363.264407" y="94.623202" style="fill: #ffac1e; stroke: #ffac1e; stroke-linejoin: bevel"/>
     <use xlink:href="#m6c298ce653" x="368.423112" y="239.740306" style="fill: #ffac1e; stroke: #ffac1e; stroke-linejoin: bevel"/>
     <use xlink:href="#m6c298ce653" x="373.581818" y="190.554896" style="fill: #ffac1e; stroke: #ffac1e; stroke-linejoin: bevel"/>
    </g>
   </g>
   <g id="patch_3">
    <path d="M 54 252 
L 54 34.56 
" style="fill: none; stroke: #000000; stroke-width: 0.8; stroke-linejoin: miter; stroke-linecap: square"/>
   </g>
   <g id="patch_4">
    <path d="M 388.8 252 
L 388.8 34.56 
" style="fill: none; stroke: #000000; stroke-width: 0.8; stroke-linejoin: miter; stroke-linecap: square"/>
   </g>
   <g id="patch_5">
    <path d="M 54 252 
L 388.8 252 
" style="fill: none; stroke: #000000; stroke-width: 0.8; stroke-linejoin: miter; stroke-linecap: square"/>
   </g>
   <g id="patch_6">
    <path d="M 54 34.56 
L 388.8 34.56 
" style="fill: none; stroke: #000000; stroke-width: 0.8; stroke-linejoin: miter; stroke-linecap: square"/>
   </g>
   <g id="text_17">
    <!-- ζ-R-max agent policy with m = 3.0 -->
    <g transform="translate(117.225 28.56)scale(0.12 -0.12)">
     <defs>
      <path id="DejaVuSans-3b6" d="M 2231 397 
Q 2644 394 2891 159 
Q 3153 -88 3153 -463 
Q 3153 -822 2922 -1072 
Q 2672 -1344 2163 -1344 
Q 2163 -1109 2163 -872 
Q 2378 -888 2509 -750 
Q 2609 -641 2609 -525 
Q 2609 -359 2509 -222 
Q 2413 -91 2231 -91 
Q 338 -91 334 1669 
Q 334 3206 2119 4284 
L 456 4284 
L 456 4863 
L 3175 4863 
L 3175 4284 
Q 913 3147 913 1669 
Q 913 397 2231 397 
z
" transform="scale(0.015625)"/>
      <path id="DejaVuSans-2d" d="M 313 2009 
L 1997 2009 
L 1997 1497 
L 313 1497 
L 313 2009 
z
" transform="scale(0.015625)"/>
      <path id="DejaVuSans-52" d="M 2841 2188 
Q 3044 2119 3236 1894 
Q 3428 1669 3622 1275 
L 4263 0 
L 3584 0 
L 2988 1197 
Q 2756 1666 2539 1819 
Q 2322 1972 1947 1972 
L 1259 1972 
L 1259 0 
L 628 0 
L 628 4666 
L 2053 4666 
Q 2853 4666 3247 4331 
Q 3641 3997 3641 3322 
Q 3641 2881 3436 2590 
Q 3231 2300 2841 2188 
z
M 1259 4147 
L 1259 2491 
L 2053 2491 
Q 2509 2491 2742 2702 
Q 2975 2913 2975 3322 
Q 2975 3731 2742 3939 
Q 2509 4147 2053 4147 
L 1259 4147 
z
" transform="scale(0.015625)"/>
      <path id="DejaVuSans-6d" d="M 3328 2828 
Q 3544 3216 3844 3400 
Q 4144 3584 4550 3584 
Q 5097 3584 5394 3201 
Q 5691 2819 5691 2113 
L 5691 0 
L 5113 0 
L 5113 2094 
Q 5113 2597 4934 2840 
Q 4756 3084 4391 3084 
Q 3944 3084 3684 2787 
Q 3425 2491 3425 1978 
L 3425 0 
L 2847 0 
L 2847 2094 
Q 2847 2600 2669 2842 
Q 2491 3084 2119 3084 
Q 1678 3084 1418 2786 
Q 1159 2488 1159 1978 
L 1159 0 
L 581 0 
L 581 3500 
L 1159 3500 
L 1159 2956 
Q 1356 3278 1631 3431 
Q 1906 3584 2284 3584 
Q 2666 3584 2933 3390 
Q 3200 3197 3328 2828 
z
" transform="scale(0.015625)"/>
      <path id="DejaVuSans-78" d="M 3513 3500 
L 2247 1797 
L 3578 0 
L 2900 0 
L 1881 1375 
L 863 0 
L 184 0 
L 1544 1831 
L 300 3500 
L 978 3500 
L 1906 2253 
L 2834 3500 
L 3513 3500 
z
" transform="scale(0.015625)"/>
      <path id="DejaVuSans-67" d="M 2906 1791 
Q 2906 2416 2648 2759 
Q 2391 3103 1925 3103 
Q 1463 3103 1205 2759 
Q 947 2416 947 1791 
Q 947 1169 1205 825 
Q 1463 481 1925 481 
Q 2391 481 2648 825 
Q 2906 1169 2906 1791 
z
M 3481 434 
Q 3481 -459 3084 -895 
Q 2688 -1331 1869 -1331 
Q 1566 -1331 1297 -1286 
Q 1028 -1241 775 -1147 
L 775 -588 
Q 1028 -725 1275 -790 
Q 1522 -856 1778 -856 
Q 2344 -856 2625 -561 
Q 2906 -266 2906 331 
L 2906 616 
Q 2728 306 2450 153 
Q 2172 0 1784 0 
Q 1141 0 747 490 
Q 353 981 353 1791 
Q 353 2603 747 3093 
Q 1141 3584 1784 3584 
Q 2172 3584 2450 3431 
Q 2728 3278 2906 2969 
L 2906 3500 
L 3481 3500 
L 3481 434 
z
" transform="scale(0.015625)"/>
      <path id="DejaVuSans-6e" d="M 3513 2113 
L 3513 0 
L 2938 0 
L 2938 2094 
Q 2938 2591 2744 2837 
Q 2550 3084 2163 3084 
Q 1697 3084 1428 2787 
Q 1159 2491 1159 1978 
L 1159 0 
L 581 0 
L 581 3500 
L 1159 3500 
L 1159 2956 
Q 1366 3272 1645 3428 
Q 1925 3584 2291 3584 
Q 2894 3584 3203 3211 
Q 3513 2838 3513 2113 
z
" transform="scale(0.015625)"/>
      <path id="DejaVuSans-77" d="M 269 3500 
L 844 3500 
L 1563 769 
L 2278 3500 
L 2956 3500 
L 3675 769 
L 4391 3500 
L 4966 3500 
L 4050 0 
L 3372 0 
L 2619 2869 
L 1863 0 
L 1184 0 
L 269 3500 
z
" transform="scale(0.015625)"/>
      <path id="DejaVuSans-68" d="M 3513 2113 
L 3513 0 
L 2938 0 
L 2938 2094 
Q 2938 2591 2744 2837 
Q 2550 3084 2163 3084 
Q 1697 3084 1428 2787 
Q 1159 2491 1159 1978 
L 1159 0 
L 581 0 
L 581 4863 
L 1159 4863 
L 1159 2956 
Q 1366 3272 1645 3428 
Q 1925 3584 2291 3584 
Q 2894 3584 3203 3211 
Q 3513 2838 3513 2113 
z
" transform="scale(0.015625)"/>
      <path id="DejaVuSans-3d" d="M 678 2906 
L 4684 2906 
L 4684 2381 
L 678 2381 
L 678 2906 
z
M 678 1631 
L 4684 1631 
L 4684 1100 
L 678 1100 
L 678 1631 
z
" transform="scale(0.015625)"/>
      <path id="DejaVuSans-2e" d="M 684 794 
L 1344 794 
L 1344 0 
L 684 0 
L 684 794 
z
" transform="scale(0.015625)"/>
     </defs>
     <use xlink:href="#DejaVuSans-3b6"/>
     <use xlink:href="#DejaVuSans-2d" x="54.394531"/>
     <use xlink:href="#DejaVuSans-52" x="90.478516"/>
     <use xlink:href="#DejaVuSans-2d" x="155.960938"/>
     <use xlink:href="#DejaVuSans-6d" x="192.044922"/>
     <use xlink:href="#DejaVuSans-61" x="289.457031"/>
     <use xlink:href="#DejaVuSans-78" x="350.736328"/>
     <use xlink:href="#DejaVuSans-20" x="409.916016"/>
     <use xlink:href="#DejaVuSans-61" x="441.703125"/>
     <use xlink:href="#DejaVuSans-67" x="502.982422"/>
     <use xlink:href="#DejaVuSans-65" x="566.458984"/>
     <use xlink:href="#DejaVuSans-6e" x="627.982422"/>
     <use xlink:href="#DejaVuSans-74" x="691.361328"/>
     <use xlink:href="#DejaVuSans-20" x="730.570312"/>
     <use xlink:href="#DejaVuSans-70" x="762.357422"/>
     <use xlink:href="#DejaVuSans-6f" x="825.833984"/>
     <use xlink:href="#DejaVuSans-6c" x="887.015625"/>
     <use xlink:href="#DejaVuSans-69" x="914.798828"/>
     <use xlink:href="#DejaVuSans-63" x="942.582031"/>
     <use xlink:href="#DejaVuSans-79" x="997.5625"/>
     <use xlink:href="#DejaVuSans-20" x="1056.742188"/>
     <use xlink:href="#DejaVuSans-77" x="1088.529297"/>
     <use xlink:href="#DejaVuSans-69" x="1170.316406"/>
     <use xlink:href="#DejaVuSans-74" x="1198.099609"/>
     <use xlink:href="#DejaVuSans-68" x="1237.308594"/>
     <use xlink:href="#DejaVuSans-20" x="1300.6875"/>
     <use xlink:href="#DejaVuSans-6d" x="1332.474609"/>
     <use xlink:href="#DejaVuSans-20" x="1429.886719"/>
     <use xlink:href="#DejaVuSans-3d" x="1461.673828"/>
     <use xlink:href="#DejaVuSans-20" x="1545.462891"/>
     <use xlink:href="#DejaVuSans-33" x="1577.25"/>
     <use xlink:href="#DejaVuSans-2e" x="1640.873047"/>
     <use xlink:href="#DejaVuSans-30" x="1672.660156"/>
    </g>
   </g>
   <g id="legend_1">
    <g id="patch_7">
     <path d="M 61 101.2725 
L 145.003125 101.2725 
Q 147.003125 101.2725 147.003125 99.2725 
L 147.003125 41.56 
Q 147.003125 39.56 145.003125 39.56 
L 61 39.56 
Q 59 39.56 59 41.56 
L 59 99.2725 
Q 59 101.2725 61 101.2725 
z
" style="fill: #ffffff; opacity: 0.8; stroke: #cccccc; stroke-linejoin: miter"/>
    </g>
    <g id="line2d_33">
     <path d="M 63 47.658437 
L 73 47.658437 
L 83 47.658437 
" style="fill: none; stroke: #9d02d7; stroke-width: 1.5; stroke-linecap: square"/>
     <g>
      <use xlink:href="#m35e7a1e9d3" x="73" y="47.658437" style="fill: #9d02d7; stroke: #9d02d7; stroke-linejoin: miter"/>
     </g>
    </g>
    <g id="text_18">
     <!-- alpha=2.5 -->
     <g transform="translate(91 51.158437)scale(0.1 -0.1)">
      <use xlink:href="#DejaVuSans-61"/>
      <use xlink:href="#DejaVuSans-6c" x="61.279297"/>
      <use xlink:href="#DejaVuSans-70" x="89.0625"/>
      <use xlink:href="#DejaVuSans-68" x="152.539062"/>
      <use xlink:href="#DejaVuSans-61" x="215.917969"/>
      <use xlink:href="#DejaVuSans-3d" x="277.197266"/>
      <use xlink:href="#DejaVuSans-32" x="360.986328"/>
      <use xlink:href="#DejaVuSans-2e" x="424.609375"/>
      <use xlink:href="#DejaVuSans-35" x="456.396484"/>
     </g>
    </g>
    <g id="line2d_34">
     <path d="M 63 62.336562 
L 73 62.336562 
L 83 62.336562 
" style="fill: none; stroke: #0000ff; stroke-width: 1.5; stroke-linecap: square"/>
     <g>
      <use xlink:href="#m2daa8d4b25" x="73" y="62.336562" style="fill: #0000ff; stroke: #0000ff"/>
     </g>
    </g>
    <g id="text_19">
     <!-- alpha=3.0 -->
     <g transform="translate(91 65.836562)scale(0.1 -0.1)">
      <use xlink:href="#DejaVuSans-61"/>
      <use xlink:href="#DejaVuSans-6c" x="61.279297"/>
      <use xlink:href="#DejaVuSans-70" x="89.0625"/>
      <use xlink:href="#DejaVuSans-68" x="152.539062"/>
      <use xlink:href="#DejaVuSans-61" x="215.917969"/>
      <use xlink:href="#DejaVuSans-3d" x="277.197266"/>
      <use xlink:href="#DejaVuSans-33" x="360.986328"/>
      <use xlink:href="#DejaVuSans-2e" x="424.609375"/>
      <use xlink:href="#DejaVuSans-30" x="456.396484"/>
     </g>
    </g>
    <g id="line2d_35">
     <path d="M 63 77.014687 
L 73 77.014687 
L 83 77.014687 
" style="fill: none; stroke: #ff7763; stroke-width: 1.5; stroke-linecap: square"/>
     <g>
      <use xlink:href="#ma31408ed93" x="73" y="77.014687" style="fill: #ff7763; stroke: #ff7763"/>
     </g>
    </g>
    <g id="text_20">
     <!-- alpha=3.5 -->
     <g transform="translate(91 80.514687)scale(0.1 -0.1)">
      <use xlink:href="#DejaVuSans-61"/>
      <use xlink:href="#DejaVuSans-6c" x="61.279297"/>
      <use xlink:href="#DejaVuSans-70" x="89.0625"/>
      <use xlink:href="#DejaVuSans-68" x="152.539062"/>
      <use xlink:href="#DejaVuSans-61" x="215.917969"/>
      <use xlink:href="#DejaVuSans-3d" x="277.197266"/>
      <use xlink:href="#DejaVuSans-33" x="360.986328"/>
      <use xlink:href="#DejaVuSans-2e" x="424.609375"/>
      <use xlink:href="#DejaVuSans-35" x="456.396484"/>
     </g>
    </g>
    <g id="line2d_36">
     <path d="M 63 91.692813 
L 73 91.692813 
L 83 91.692813 
" style="fill: none; stroke: #ffac1e; stroke-width: 1.5; stroke-linecap: square"/>
     <g>
      <use xlink:href="#m6c298ce653" x="73" y="91.692813" style="fill: #ffac1e; stroke: #ffac1e; stroke-linejoin: bevel"/>
     </g>
    </g>
    <g id="text_21">
     <!-- alpha=4.0 -->
     <g transform="translate(91 95.192813)scale(0.1 -0.1)">
      <use xlink:href="#DejaVuSans-61"/>
      <use xlink:href="#DejaVuSans-6c" x="61.279297"/>
      <use xlink:href="#DejaVuSans-70" x="89.0625"/>
      <use xlink:href="#DejaVuSans-68" x="152.539062"/>
      <use xlink:href="#DejaVuSans-61" x="215.917969"/>
      <use xlink:href="#DejaVuSans-3d" x="277.197266"/>
      <use xlink:href="#DejaVuSans-34" x="360.986328"/>
      <use xlink:href="#DejaVuSans-2e" x="424.609375"/>
      <use xlink:href="#DejaVuSans-30" x="456.396484"/>
     </g>
    </g>
   </g>
  </g>
 </g>
 <defs>
  <clipPath id="pea70956e5e">
   <rect x="54" y="34.56" width="334.8" height="217.44"/>
  </clipPath>
 </defs>
</svg>
