<?xml version="1.0" encoding="utf-8" standalone="no"?>
<!DOCTYPE svg PUBLIC "-//W3C//DTD SVG 1.1//EN"
  "http://www.w3.org/Graphics/SVG/1.1/DTD/svg11.dtd">
<svg xmlns:xlink="http://www.w3.org/1999/xlink" width="432pt" height="288pt" viewBox="0 0 432 288" xmlns="http://www.w3.org/2000/svg" version="1.1">
 <metadata>
  <rdf:RDF xmlns:dc="http://purl.org/dc/elements/1.1/" xmlns:cc="http://creativecommons.org/ns#" xmlns:rdf="http://www.w3.org/1999/02/22-rdf-syntax-ns#">
   <cc:Work>
    <dc:type rdf:resource="http://purl.org/dc/dcmitype/StillImage"/>
    <dc:date>2023-01-11T15:36:36.483919</dc:date>
    <dc:format>image/svg+xml</dc:format>
    <dc:creator>
     <cc:Agent>
      <dc:title>Matplotlib v3.5.2, https://matplotlib.org/</dc:title>
     </cc:Agent>
    </dc:creator>
   </cc:Work>
  </rdf:RDF>
 </metadata>
 <defs>
  <style type="text/css">*{stroke-linejoin: round; stroke-linecap: butt}</style>
 </defs>
 <g id="figure_1">
  <g id="patch_1">
   <path d="M 0 288 
L 432 288 
L 432 0 
L 0 0 
z
" style="fill: #ffffff"/>
  </g>
  <g id="axes_1">
   <g id="patch_2">
    <path d="M 54 252 
L 388.8 252 
L 388.8 34.56 
L 54 34.56 
z
" style="fill: #ffffff"/>
   </g>
   <g id="PolyCollection_1">
    <defs>
     <path id="m3375bdcb80" d="M 69.218182 -34.939036 
L 69.218182 -34.939036 
L 74.376888 -33.900813 
L 79.535593 -35.091182 
L 84.694299 -35.091182 
L 89.853005 -35.091182 
L 95.01171 -35.087103 
L 100.170416 -34.94475 
L 105.329122 -34.855369 
L 110.487827 -34.852239 
L 115.646533 -35.081191 
L 120.805239 -34.813005 
L 125.963945 -35.07881 
L 131.12265 -35.087556 
L 136.281356 -35.084142 
L 141.440062 -33.839275 
L 146.598767 -35.091182 
L 151.757473 -46.259273 
L 156.916179 -33.880961 
L 162.074884 -35.083314 
L 167.23359 -33.956142 
L 172.392296 -48.46838 
L 177.551002 -65.986058 
L 182.709707 -73.567324 
L 187.868413 -229.612626 
L 193.027119 -239.955606 
L 198.185824 -239.407872 
L 203.34453 -239.407872 
L 208.503236 -227.582981 
L 213.661941 -227.582981 
L 218.820647 -239.407872 
L 223.979353 -182.699309 
L 229.138059 -147.188065 
L 234.296764 -233.478689 
L 239.45547 -240.443915 
L 244.614176 -244.651221 
L 249.772881 -244.651221 
L 254.931587 -244.651221 
L 260.090293 -240.443915 
L 265.248998 -240.161519 
L 270.407704 -240.161519 
L 275.56641 -240.161519 
L 280.725116 -240.161519 
L 285.883821 -240.161519 
L 291.042527 -240.443915 
L 296.201233 -240.443915 
L 301.359938 -240.443915 
L 306.518644 -240.443915 
L 311.67735 -240.443915 
L 316.836055 -244.651221 
L 321.994761 -244.651221 
L 327.153467 -244.651221 
L 332.312173 -244.651221 
L 337.470878 -244.651221 
L 342.629584 -244.654567 
L 347.78829 -244.654567 
L 352.946995 -244.654567 
L 358.105701 -244.651221 
L 363.264407 -244.651221 
L 368.423112 -244.654567 
L 373.581818 -244.654567 
L 373.581818 -244.654567 
L 373.581818 -244.654567 
L 368.423112 -244.654567 
L 363.264407 -244.651221 
L 358.105701 -244.651221 
L 352.946995 -244.654567 
L 347.78829 -244.654567 
L 342.629584 -244.654567 
L 337.470878 -244.651221 
L 332.312173 -244.651221 
L 327.153467 -244.651221 
L 321.994761 -244.651221 
L 316.836055 -244.651221 
L 311.67735 -240.443915 
L 306.518644 -240.443915 
L 301.359938 -240.443915 
L 296.201233 -240.443915 
L 291.042527 -240.443915 
L 285.883821 -240.161519 
L 280.725116 -240.161519 
L 275.56641 -240.161519 
L 270.407704 -240.161519 
L 265.248998 -240.161519 
L 260.090293 -240.443915 
L 254.931587 -244.651221 
L 249.772881 -244.651221 
L 244.614176 -244.651221 
L 239.45547 -240.443915 
L 234.296764 -233.478689 
L 229.138059 -147.188065 
L 223.979353 -182.699309 
L 218.820647 -239.407872 
L 213.661941 -227.582981 
L 208.503236 -227.582981 
L 203.34453 -239.407872 
L 198.185824 -239.407872 
L 193.027119 -239.955606 
L 187.868413 -229.612626 
L 182.709707 -73.567324 
L 177.551002 -65.986058 
L 172.392296 -48.46838 
L 167.23359 -33.956142 
L 162.074884 -35.083314 
L 156.916179 -33.880961 
L 151.757473 -46.259273 
L 146.598767 -35.091182 
L 141.440062 -33.839275 
L 136.281356 -35.084142 
L 131.12265 -35.087556 
L 125.963945 -35.07881 
L 120.805239 -34.813005 
L 115.646533 -35.081191 
L 110.487827 -34.852239 
L 105.329122 -34.855369 
L 100.170416 -34.94475 
L 95.01171 -35.087103 
L 89.853005 -35.091182 
L 84.694299 -35.091182 
L 79.535593 -35.091182 
L 74.376888 -33.900813 
L 69.218182 -34.939036 
z
" style="stroke: #9d02d7; stroke-opacity: 0.2"/>
    </defs>
    <g clip-path="url(#p21c63c2cfd)">
     <use xlink:href="#m3375bdcb80" x="0" y="288" style="fill: #9d02d7; fill-opacity: 0.2; stroke: #9d02d7; stroke-opacity: 0.2"/>
    </g>
   </g>
   <g id="PolyCollection_2">
    <defs>
     <path id="m7d8f338d55" d="M 69.218182 -35.114885 
L 69.218182 -35.114885 
L 74.376888 -35.091182 
L 79.535593 -32.893139 
L 84.694299 -34.137708 
L 89.853005 -35.901059 
L 95.01171 -34.23048 
L 100.170416 -34.4536 
L 105.329122 -34.06406 
L 110.487827 -39.297099 
L 115.646533 -39.908511 
L 120.805239 -103.71162 
L 125.963945 -36.64961 
L 131.12265 -129.728317 
L 136.281356 -38.394577 
L 141.440062 -34.994059 
L 146.598767 -34.86783 
L 151.757473 -35.592537 
L 156.916179 -41.653816 
L 162.074884 -41.52377 
L 167.23359 -52.820969 
L 172.392296 -46.843452 
L 177.551002 -55.7512 
L 182.709707 -222.642688 
L 187.868413 -226.161651 
L 193.027119 -223.454817 
L 198.185824 -227.402319 
L 203.34453 -233.017742 
L 208.503236 -237.990184 
L 213.661941 -234.971301 
L 218.820647 -189.37843 
L 223.979353 -237.821948 
L 229.138059 -240.80156 
L 234.296764 -240.804588 
L 239.45547 -240.804588 
L 244.614176 -240.80156 
L 249.772881 -240.80156 
L 254.931587 -240.804588 
L 260.090293 -240.805203 
L 265.248998 -240.805203 
L 270.407704 -240.805203 
L 275.56641 -238.45489 
L 280.725116 -238.45489 
L 285.883821 -238.45489 
L 291.042527 -238.45489 
L 296.201233 -238.45489 
L 301.359938 -238.45489 
L 306.518644 -238.45489 
L 311.67735 -240.805203 
L 316.836055 -240.805203 
L 321.994761 -240.805203 
L 327.153467 -240.805203 
L 332.312173 -240.805203 
L 337.470878 -240.805203 
L 342.629584 -240.805203 
L 347.78829 -240.805203 
L 352.946995 -240.805203 
L 358.105701 -240.805203 
L 363.264407 -240.805203 
L 368.423112 -240.805203 
L 373.581818 -240.805203 
L 373.581818 -240.805203 
L 373.581818 -240.805203 
L 368.423112 -240.805203 
L 363.264407 -240.805203 
L 358.105701 -240.805203 
L 352.946995 -240.805203 
L 347.78829 -240.805203 
L 342.629584 -240.805203 
L 337.470878 -240.805203 
L 332.312173 -240.805203 
L 327.153467 -240.805203 
L 321.994761 -240.805203 
L 316.836055 -240.805203 
L 311.67735 -240.805203 
L 306.518644 -238.45489 
L 301.359938 -238.45489 
L 296.201233 -238.45489 
L 291.042527 -238.45489 
L 285.883821 -238.45489 
L 280.725116 -238.45489 
L 275.56641 -238.45489 
L 270.407704 -240.805203 
L 265.248998 -240.805203 
L 260.090293 -240.805203 
L 254.931587 -240.804588 
L 249.772881 -240.80156 
L 244.614176 -240.80156 
L 239.45547 -240.804588 
L 234.296764 -240.804588 
L 229.138059 -240.80156 
L 223.979353 -237.821948 
L 218.820647 -189.37843 
L 213.661941 -234.971301 
L 208.503236 -237.990184 
L 203.34453 -233.017742 
L 198.185824 -227.402319 
L 193.027119 -223.454817 
L 187.868413 -226.161651 
L 182.709707 -222.642688 
L 177.551002 -55.7512 
L 172.392296 -46.843452 
L 167.23359 -52.820969 
L 162.074884 -41.52377 
L 156.916179 -41.653816 
L 151.757473 -35.592537 
L 146.598767 -34.86783 
L 141.440062 -34.994059 
L 136.281356 -38.394577 
L 131.12265 -129.728317 
L 125.963945 -36.64961 
L 120.805239 -103.71162 
L 115.646533 -39.908511 
L 110.487827 -39.297099 
L 105.329122 -34.06406 
L 100.170416 -34.4536 
L 95.01171 -34.23048 
L 89.853005 -35.901059 
L 84.694299 -34.137708 
L 79.535593 -32.893139 
L 74.376888 -35.091182 
L 69.218182 -35.114885 
z
" style="stroke: #0000ff; stroke-opacity: 0.2"/>
    </defs>
    <g clip-path="url(#p21c63c2cfd)">
     <use xlink:href="#m7d8f338d55" x="0" y="288" style="fill: #0000ff; fill-opacity: 0.2; stroke: #0000ff; stroke-opacity: 0.2"/>
    </g>
   </g>
   <g id="PolyCollection_3">
    <defs>
     <path id="m0f92604fbd" d="M 69.218182 -35.091182 
L 69.218182 -35.091182 
L 74.376888 -31.80177 
L 79.535593 -32.520745 
L 84.694299 -35.716421 
L 89.853005 -34.033098 
L 95.01171 -34.015175 
L 100.170416 -33.707043 
L 105.329122 -31.926592 
L 110.487827 -35.061158 
L 115.646533 -97.979702 
L 120.805239 -37.50305 
L 125.963945 -36.987908 
L 131.12265 -41.951546 
L 136.281356 -100.796683 
L 141.440062 -133.268512 
L 146.598767 -136.903021 
L 151.757473 -136.248485 
L 156.916179 -136.137192 
L 162.074884 -134.980468 
L 167.23359 -134.427869 
L 172.392296 -136.382047 
L 177.551002 -49.169076 
L 182.709707 -136.386478 
L 187.868413 -135.263942 
L 193.027119 -135.172939 
L 198.185824 -134.398569 
L 203.34453 -134.50256 
L 208.503236 -135.265414 
L 213.661941 -134.29138 
L 218.820647 -221.859501 
L 223.979353 -227.183856 
L 229.138059 -238.441931 
L 234.296764 -242.950366 
L 239.45547 -244.179917 
L 244.614176 -231.993448 
L 249.772881 -231.993448 
L 254.931587 -231.993448 
L 260.090293 -231.993448 
L 265.248998 -231.993448 
L 270.407704 -231.993448 
L 275.56641 -238.569476 
L 280.725116 -242.716675 
L 285.883821 -242.716675 
L 291.042527 -231.993448 
L 296.201233 -231.993448 
L 301.359938 -242.716675 
L 306.518644 -242.715861 
L 311.67735 -242.715861 
L 316.836055 -242.715861 
L 321.994761 -242.716675 
L 327.153467 -242.716675 
L 332.312173 -242.716675 
L 337.470878 -242.716675 
L 342.629584 -242.716675 
L 347.78829 -242.716675 
L 352.946995 -242.715861 
L 358.105701 -242.716675 
L 363.264407 -242.716675 
L 368.423112 -242.716675 
L 373.581818 -242.716675 
L 373.581818 -242.716675 
L 373.581818 -242.716675 
L 368.423112 -242.716675 
L 363.264407 -242.716675 
L 358.105701 -242.716675 
L 352.946995 -242.715861 
L 347.78829 -242.716675 
L 342.629584 -242.716675 
L 337.470878 -242.716675 
L 332.312173 -242.716675 
L 327.153467 -242.716675 
L 321.994761 -242.716675 
L 316.836055 -242.715861 
L 311.67735 -242.715861 
L 306.518644 -242.715861 
L 301.359938 -242.716675 
L 296.201233 -231.993448 
L 291.042527 -231.993448 
L 285.883821 -242.716675 
L 280.725116 -242.716675 
L 275.56641 -238.569476 
L 270.407704 -231.993448 
L 265.248998 -231.993448 
L 260.090293 -231.993448 
L 254.931587 -231.993448 
L 249.772881 -231.993448 
L 244.614176 -231.993448 
L 239.45547 -244.179917 
L 234.296764 -242.950366 
L 229.138059 -238.441931 
L 223.979353 -227.183856 
L 218.820647 -221.859501 
L 213.661941 -134.29138 
L 208.503236 -135.265414 
L 203.34453 -134.50256 
L 198.185824 -134.398569 
L 193.027119 -135.172939 
L 187.868413 -135.263942 
L 182.709707 -136.386478 
L 177.551002 -49.169076 
L 172.392296 -136.382047 
L 167.23359 -134.427869 
L 162.074884 -134.980468 
L 156.916179 -136.137192 
L 151.757473 -136.248485 
L 146.598767 -136.903021 
L 141.440062 -133.268512 
L 136.281356 -100.796683 
L 131.12265 -41.951546 
L 125.963945 -36.987908 
L 120.805239 -37.50305 
L 115.646533 -97.979702 
L 110.487827 -35.061158 
L 105.329122 -31.926592 
L 100.170416 -33.707043 
L 95.01171 -34.015175 
L 89.853005 -34.033098 
L 84.694299 -35.716421 
L 79.535593 -32.520745 
L 74.376888 -31.80177 
L 69.218182 -35.091182 
z
" style="stroke: #ff7763; stroke-opacity: 0.2"/>
    </defs>
    <g clip-path="url(#p21c63c2cfd)">
     <use xlink:href="#m0f92604fbd" x="0" y="288" style="fill: #ff7763; fill-opacity: 0.2; stroke: #ff7763; stroke-opacity: 0.2"/>
    </g>
   </g>
   <g id="PolyCollection_4">
    <defs>
     <path id="m2b4a93379b" d="M 69.218182 -36.645001 
L 69.218182 -36.645001 
L 74.376888 -35.094744 
L 79.535593 -33.45272 
L 84.694299 -34.552687 
L 89.853005 -34.517867 
L 95.01171 -35.091182 
L 100.170416 -35.086824 
L 105.329122 -34.984585 
L 110.487827 -35.057842 
L 115.646533 -34.673841 
L 120.805239 -35.091182 
L 125.963945 -37.687014 
L 131.12265 -34.748971 
L 136.281356 -37.67042 
L 141.440062 -34.747462 
L 146.598767 -70.047051 
L 151.757473 -193.314286 
L 156.916179 -188.922218 
L 162.074884 -193.205938 
L 167.23359 -192.20829 
L 172.392296 -223.057101 
L 177.551002 -221.131805 
L 182.709707 -214.097489 
L 187.868413 -226.986823 
L 193.027119 -224.732419 
L 198.185824 -229.509346 
L 203.34453 -231.789669 
L 208.503236 -231.551004 
L 213.661941 -212.521803 
L 218.820647 -231.789687 
L 223.979353 -231.789687 
L 229.138059 -231.789687 
L 234.296764 -231.789687 
L 239.45547 -231.789687 
L 244.614176 -231.789687 
L 249.772881 -231.766015 
L 254.931587 -231.693345 
L 260.090293 -231.789687 
L 265.248998 -230.06437 
L 270.407704 -230.064355 
L 275.56641 -223.067494 
L 280.725116 -228.744141 
L 285.883821 -228.744141 
L 291.042527 -228.744158 
L 296.201233 -232.223205 
L 301.359938 -238.667886 
L 306.518644 -238.569405 
L 311.67735 -240.892896 
L 316.836055 -240.892896 
L 321.994761 -240.892896 
L 327.153467 -240.966765 
L 332.312173 -240.966765 
L 337.470878 -240.966765 
L 342.629584 -240.966765 
L 347.78829 -240.966765 
L 352.946995 -240.892896 
L 358.105701 -240.892896 
L 363.264407 -240.892896 
L 368.423112 -240.892896 
L 373.581818 -240.966765 
L 373.581818 -240.966765 
L 373.581818 -240.966765 
L 368.423112 -240.892896 
L 363.264407 -240.892896 
L 358.105701 -240.892896 
L 352.946995 -240.892896 
L 347.78829 -240.966765 
L 342.629584 -240.966765 
L 337.470878 -240.966765 
L 332.312173 -240.966765 
L 327.153467 -240.966765 
L 321.994761 -240.892896 
L 316.836055 -240.892896 
L 311.67735 -240.892896 
L 306.518644 -238.569405 
L 301.359938 -238.667886 
L 296.201233 -232.223205 
L 291.042527 -228.744158 
L 285.883821 -228.744141 
L 280.725116 -228.744141 
L 275.56641 -223.067494 
L 270.407704 -230.064355 
L 265.248998 -230.06437 
L 260.090293 -231.789687 
L 254.931587 -231.693345 
L 249.772881 -231.766015 
L 244.614176 -231.789687 
L 239.45547 -231.789687 
L 234.296764 -231.789687 
L 229.138059 -231.789687 
L 223.979353 -231.789687 
L 218.820647 -231.789687 
L 213.661941 -212.521803 
L 208.503236 -231.551004 
L 203.34453 -231.789669 
L 198.185824 -229.509346 
L 193.027119 -224.732419 
L 187.868413 -226.986823 
L 182.709707 -214.097489 
L 177.551002 -221.131805 
L 172.392296 -223.057101 
L 167.23359 -192.20829 
L 162.074884 -193.205938 
L 156.916179 -188.922218 
L 151.757473 -193.314286 
L 146.598767 -70.047051 
L 141.440062 -34.747462 
L 136.281356 -37.67042 
L 131.12265 -34.748971 
L 125.963945 -37.687014 
L 120.805239 -35.091182 
L 115.646533 -34.673841 
L 110.487827 -35.057842 
L 105.329122 -34.984585 
L 100.170416 -35.086824 
L 95.01171 -35.091182 
L 89.853005 -34.517867 
L 84.694299 -34.552687 
L 79.535593 -33.45272 
L 74.376888 -35.094744 
L 69.218182 -36.645001 
z
" style="stroke: #ffac1e; stroke-opacity: 0.2"/>
    </defs>
    <g clip-path="url(#p21c63c2cfd)">
     <use xlink:href="#m2b4a93379b" x="0" y="288" style="fill: #ffac1e; fill-opacity: 0.2; stroke: #ffac1e; stroke-opacity: 0.2"/>
    </g>
   </g>
   <g id="matplotlib.axis_1">
    <g id="xtick_1">
     <g id="line2d_1">
      <path d="M 69.218182 252 
L 69.218182 34.56 
" clip-path="url(#p21c63c2cfd)" style="fill: none; stroke-dasharray: 2.96,1.28; stroke-dashoffset: 0; stroke: #b0b0b0; stroke-width: 0.8"/>
     </g>
     <g id="line2d_2">
      <defs>
       <path id="mb8e2fe3f55" d="M 0 0 
L 0 3.5 
" style="stroke: #000000; stroke-width: 0.8"/>
      </defs>
      <g>
       <use xlink:href="#mb8e2fe3f55" x="69.218182" y="252" style="stroke: #000000; stroke-width: 0.8"/>
      </g>
     </g>
     <g id="text_1">
      <!-- 0 -->
      <g transform="translate(66.036932 266.598437)scale(0.1 -0.1)">
       <defs>
        <path id="DejaVuSans-30" d="M 2034 4250 
Q 1547 4250 1301 3770 
Q 1056 3291 1056 2328 
Q 1056 1369 1301 889 
Q 1547 409 2034 409 
Q 2525 409 2770 889 
Q 3016 1369 3016 2328 
Q 3016 3291 2770 3770 
Q 2525 4250 2034 4250 
z
M 2034 4750 
Q 2819 4750 3233 4129 
Q 3647 3509 3647 2328 
Q 3647 1150 3233 529 
Q 2819 -91 2034 -91 
Q 1250 -91 836 529 
Q 422 1150 422 2328 
Q 422 3509 836 4129 
Q 1250 4750 2034 4750 
z
" transform="scale(0.015625)"/>
       </defs>
       <use xlink:href="#DejaVuSans-30"/>
      </g>
     </g>
    </g>
    <g id="xtick_2">
     <g id="line2d_3">
      <path d="M 120.805239 252 
L 120.805239 34.56 
" clip-path="url(#p21c63c2cfd)" style="fill: none; stroke-dasharray: 2.96,1.28; stroke-dashoffset: 0; stroke: #b0b0b0; stroke-width: 0.8"/>
     </g>
     <g id="line2d_4">
      <g>
       <use xlink:href="#mb8e2fe3f55" x="120.805239" y="252" style="stroke: #000000; stroke-width: 0.8"/>
      </g>
     </g>
     <g id="text_2">
      <!-- 500 -->
      <g transform="translate(111.261489 266.598437)scale(0.1 -0.1)">
       <defs>
        <path id="DejaVuSans-35" d="M 691 4666 
L 3169 4666 
L 3169 4134 
L 1269 4134 
L 1269 2991 
Q 1406 3038 1543 3061 
Q 1681 3084 1819 3084 
Q 2600 3084 3056 2656 
Q 3513 2228 3513 1497 
Q 3513 744 3044 326 
Q 2575 -91 1722 -91 
Q 1428 -91 1123 -41 
Q 819 9 494 109 
L 494 744 
Q 775 591 1075 516 
Q 1375 441 1709 441 
Q 2250 441 2565 725 
Q 2881 1009 2881 1497 
Q 2881 1984 2565 2268 
Q 2250 2553 1709 2553 
Q 1456 2553 1204 2497 
Q 953 2441 691 2322 
L 691 4666 
z
" transform="scale(0.015625)"/>
       </defs>
       <use xlink:href="#DejaVuSans-35"/>
       <use xlink:href="#DejaVuSans-30" x="63.623047"/>
       <use xlink:href="#DejaVuSans-30" x="127.246094"/>
      </g>
     </g>
    </g>
    <g id="xtick_3">
     <g id="line2d_5">
      <path d="M 172.392296 252 
L 172.392296 34.56 
" clip-path="url(#p21c63c2cfd)" style="fill: none; stroke-dasharray: 2.96,1.28; stroke-dashoffset: 0; stroke: #b0b0b0; stroke-width: 0.8"/>
     </g>
     <g id="line2d_6">
      <g>
       <use xlink:href="#mb8e2fe3f55" x="172.392296" y="252" style="stroke: #000000; stroke-width: 0.8"/>
      </g>
     </g>
     <g id="text_3">
      <!-- 1000 -->
      <g transform="translate(159.667296 266.598437)scale(0.1 -0.1)">
       <defs>
        <path id="DejaVuSans-31" d="M 794 531 
L 1825 531 
L 1825 4091 
L 703 3866 
L 703 4441 
L 1819 4666 
L 2450 4666 
L 2450 531 
L 3481 531 
L 3481 0 
L 794 0 
L 794 531 
z
" transform="scale(0.015625)"/>
       </defs>
       <use xlink:href="#DejaVuSans-31"/>
       <use xlink:href="#DejaVuSans-30" x="63.623047"/>
       <use xlink:href="#DejaVuSans-30" x="127.246094"/>
       <use xlink:href="#DejaVuSans-30" x="190.869141"/>
      </g>
     </g>
    </g>
    <g id="xtick_4">
     <g id="line2d_7">
      <path d="M 223.979353 252 
L 223.979353 34.56 
" clip-path="url(#p21c63c2cfd)" style="fill: none; stroke-dasharray: 2.96,1.28; stroke-dashoffset: 0; stroke: #b0b0b0; stroke-width: 0.8"/>
     </g>
     <g id="line2d_8">
      <g>
       <use xlink:href="#mb8e2fe3f55" x="223.979353" y="252" style="stroke: #000000; stroke-width: 0.8"/>
      </g>
     </g>
     <g id="text_4">
      <!-- 1500 -->
      <g transform="translate(211.254353 266.598437)scale(0.1 -0.1)">
       <use xlink:href="#DejaVuSans-31"/>
       <use xlink:href="#DejaVuSans-35" x="63.623047"/>
       <use xlink:href="#DejaVuSans-30" x="127.246094"/>
       <use xlink:href="#DejaVuSans-30" x="190.869141"/>
      </g>
     </g>
    </g>
    <g id="xtick_5">
     <g id="line2d_9">
      <path d="M 275.56641 252 
L 275.56641 34.56 
" clip-path="url(#p21c63c2cfd)" style="fill: none; stroke-dasharray: 2.96,1.28; stroke-dashoffset: 0; stroke: #b0b0b0; stroke-width: 0.8"/>
     </g>
     <g id="line2d_10">
      <g>
       <use xlink:href="#mb8e2fe3f55" x="275.56641" y="252" style="stroke: #000000; stroke-width: 0.8"/>
      </g>
     </g>
     <g id="text_5">
      <!-- 2000 -->
      <g transform="translate(262.84141 266.598437)scale(0.1 -0.1)">
       <defs>
        <path id="DejaVuSans-32" d="M 1228 531 
L 3431 531 
L 3431 0 
L 469 0 
L 469 531 
Q 828 903 1448 1529 
Q 2069 2156 2228 2338 
Q 2531 2678 2651 2914 
Q 2772 3150 2772 3378 
Q 2772 3750 2511 3984 
Q 2250 4219 1831 4219 
Q 1534 4219 1204 4116 
Q 875 4013 500 3803 
L 500 4441 
Q 881 4594 1212 4672 
Q 1544 4750 1819 4750 
Q 2544 4750 2975 4387 
Q 3406 4025 3406 3419 
Q 3406 3131 3298 2873 
Q 3191 2616 2906 2266 
Q 2828 2175 2409 1742 
Q 1991 1309 1228 531 
z
" transform="scale(0.015625)"/>
       </defs>
       <use xlink:href="#DejaVuSans-32"/>
       <use xlink:href="#DejaVuSans-30" x="63.623047"/>
       <use xlink:href="#DejaVuSans-30" x="127.246094"/>
       <use xlink:href="#DejaVuSans-30" x="190.869141"/>
      </g>
     </g>
    </g>
    <g id="xtick_6">
     <g id="line2d_11">
      <path d="M 327.153467 252 
L 327.153467 34.56 
" clip-path="url(#p21c63c2cfd)" style="fill: none; stroke-dasharray: 2.96,1.28; stroke-dashoffset: 0; stroke: #b0b0b0; stroke-width: 0.8"/>
     </g>
     <g id="line2d_12">
      <g>
       <use xlink:href="#mb8e2fe3f55" x="327.153467" y="252" style="stroke: #000000; stroke-width: 0.8"/>
      </g>
     </g>
     <g id="text_6">
      <!-- 2500 -->
      <g transform="translate(314.428467 266.598437)scale(0.1 -0.1)">
       <use xlink:href="#DejaVuSans-32"/>
       <use xlink:href="#DejaVuSans-35" x="63.623047"/>
       <use xlink:href="#DejaVuSans-30" x="127.246094"/>
       <use xlink:href="#DejaVuSans-30" x="190.869141"/>
      </g>
     </g>
    </g>
    <g id="xtick_7">
     <g id="line2d_13">
      <path d="M 378.740524 252 
L 378.740524 34.56 
" clip-path="url(#p21c63c2cfd)" style="fill: none; stroke-dasharray: 2.96,1.28; stroke-dashoffset: 0; stroke: #b0b0b0; stroke-width: 0.8"/>
     </g>
     <g id="line2d_14">
      <g>
       <use xlink:href="#mb8e2fe3f55" x="378.740524" y="252" style="stroke: #000000; stroke-width: 0.8"/>
      </g>
     </g>
     <g id="text_7">
      <!-- 3000 -->
      <g transform="translate(366.015524 266.598437)scale(0.1 -0.1)">
       <defs>
        <path id="DejaVuSans-33" d="M 2597 2516 
Q 3050 2419 3304 2112 
Q 3559 1806 3559 1356 
Q 3559 666 3084 287 
Q 2609 -91 1734 -91 
Q 1441 -91 1130 -33 
Q 819 25 488 141 
L 488 750 
Q 750 597 1062 519 
Q 1375 441 1716 441 
Q 2309 441 2620 675 
Q 2931 909 2931 1356 
Q 2931 1769 2642 2001 
Q 2353 2234 1838 2234 
L 1294 2234 
L 1294 2753 
L 1863 2753 
Q 2328 2753 2575 2939 
Q 2822 3125 2822 3475 
Q 2822 3834 2567 4026 
Q 2313 4219 1838 4219 
Q 1578 4219 1281 4162 
Q 984 4106 628 3988 
L 628 4550 
Q 988 4650 1302 4700 
Q 1616 4750 1894 4750 
Q 2613 4750 3031 4423 
Q 3450 4097 3450 3541 
Q 3450 3153 3228 2886 
Q 3006 2619 2597 2516 
z
" transform="scale(0.015625)"/>
       </defs>
       <use xlink:href="#DejaVuSans-33"/>
       <use xlink:href="#DejaVuSans-30" x="63.623047"/>
       <use xlink:href="#DejaVuSans-30" x="127.246094"/>
       <use xlink:href="#DejaVuSans-30" x="190.869141"/>
      </g>
     </g>
    </g>
    <g id="text_8">
     <!-- Steps -->
     <g transform="translate(207.410156 280.276563)scale(0.1 -0.1)">
      <defs>
       <path id="DejaVuSans-53" d="M 3425 4513 
L 3425 3897 
Q 3066 4069 2747 4153 
Q 2428 4238 2131 4238 
Q 1616 4238 1336 4038 
Q 1056 3838 1056 3469 
Q 1056 3159 1242 3001 
Q 1428 2844 1947 2747 
L 2328 2669 
Q 3034 2534 3370 2195 
Q 3706 1856 3706 1288 
Q 3706 609 3251 259 
Q 2797 -91 1919 -91 
Q 1588 -91 1214 -16 
Q 841 59 441 206 
L 441 856 
Q 825 641 1194 531 
Q 1563 422 1919 422 
Q 2459 422 2753 634 
Q 3047 847 3047 1241 
Q 3047 1584 2836 1778 
Q 2625 1972 2144 2069 
L 1759 2144 
Q 1053 2284 737 2584 
Q 422 2884 422 3419 
Q 422 4038 858 4394 
Q 1294 4750 2059 4750 
Q 2388 4750 2728 4690 
Q 3069 4631 3425 4513 
z
" transform="scale(0.015625)"/>
       <path id="DejaVuSans-74" d="M 1172 4494 
L 1172 3500 
L 2356 3500 
L 2356 3053 
L 1172 3053 
L 1172 1153 
Q 1172 725 1289 603 
Q 1406 481 1766 481 
L 2356 481 
L 2356 0 
L 1766 0 
Q 1100 0 847 248 
Q 594 497 594 1153 
L 594 3053 
L 172 3053 
L 172 3500 
L 594 3500 
L 594 4494 
L 1172 4494 
z
" transform="scale(0.015625)"/>
       <path id="DejaVuSans-65" d="M 3597 1894 
L 3597 1613 
L 953 1613 
Q 991 1019 1311 708 
Q 1631 397 2203 397 
Q 2534 397 2845 478 
Q 3156 559 3463 722 
L 3463 178 
Q 3153 47 2828 -22 
Q 2503 -91 2169 -91 
Q 1331 -91 842 396 
Q 353 884 353 1716 
Q 353 2575 817 3079 
Q 1281 3584 2069 3584 
Q 2775 3584 3186 3129 
Q 3597 2675 3597 1894 
z
M 3022 2063 
Q 3016 2534 2758 2815 
Q 2500 3097 2075 3097 
Q 1594 3097 1305 2825 
Q 1016 2553 972 2059 
L 3022 2063 
z
" transform="scale(0.015625)"/>
       <path id="DejaVuSans-70" d="M 1159 525 
L 1159 -1331 
L 581 -1331 
L 581 3500 
L 1159 3500 
L 1159 2969 
Q 1341 3281 1617 3432 
Q 1894 3584 2278 3584 
Q 2916 3584 3314 3078 
Q 3713 2572 3713 1747 
Q 3713 922 3314 415 
Q 2916 -91 2278 -91 
Q 1894 -91 1617 61 
Q 1341 213 1159 525 
z
M 3116 1747 
Q 3116 2381 2855 2742 
Q 2594 3103 2138 3103 
Q 1681 3103 1420 2742 
Q 1159 2381 1159 1747 
Q 1159 1113 1420 752 
Q 1681 391 2138 391 
Q 2594 391 2855 752 
Q 3116 1113 3116 1747 
z
" transform="scale(0.015625)"/>
       <path id="DejaVuSans-73" d="M 2834 3397 
L 2834 2853 
Q 2591 2978 2328 3040 
Q 2066 3103 1784 3103 
Q 1356 3103 1142 2972 
Q 928 2841 928 2578 
Q 928 2378 1081 2264 
Q 1234 2150 1697 2047 
L 1894 2003 
Q 2506 1872 2764 1633 
Q 3022 1394 3022 966 
Q 3022 478 2636 193 
Q 2250 -91 1575 -91 
Q 1294 -91 989 -36 
Q 684 19 347 128 
L 347 722 
Q 666 556 975 473 
Q 1284 391 1588 391 
Q 1994 391 2212 530 
Q 2431 669 2431 922 
Q 2431 1156 2273 1281 
Q 2116 1406 1581 1522 
L 1381 1569 
Q 847 1681 609 1914 
Q 372 2147 372 2553 
Q 372 3047 722 3315 
Q 1072 3584 1716 3584 
Q 2034 3584 2315 3537 
Q 2597 3491 2834 3397 
z
" transform="scale(0.015625)"/>
      </defs>
      <use xlink:href="#DejaVuSans-53"/>
      <use xlink:href="#DejaVuSans-74" x="63.476562"/>
      <use xlink:href="#DejaVuSans-65" x="102.685547"/>
      <use xlink:href="#DejaVuSans-70" x="164.208984"/>
      <use xlink:href="#DejaVuSans-73" x="227.685547"/>
     </g>
    </g>
   </g>
   <g id="matplotlib.axis_2">
    <g id="ytick_1">
     <g id="line2d_15">
      <path d="M 54 243.636923 
L 388.8 243.636923 
" clip-path="url(#p21c63c2cfd)" style="fill: none; stroke-dasharray: 2.96,1.28; stroke-dashoffset: 0; stroke: #b0b0b0; stroke-width: 0.8"/>
     </g>
     <g id="line2d_16">
      <defs>
       <path id="m26423dab00" d="M 0 0 
L -3.5 0 
" style="stroke: #000000; stroke-width: 0.8"/>
      </defs>
      <g>
       <use xlink:href="#m26423dab00" x="54" y="243.636923" style="stroke: #000000; stroke-width: 0.8"/>
      </g>
     </g>
     <g id="text_9">
      <!-- −12 -->
      <g transform="translate(25.895312 247.436142)scale(0.1 -0.1)">
       <defs>
        <path id="DejaVuSans-2212" d="M 678 2272 
L 4684 2272 
L 4684 1741 
L 678 1741 
L 678 2272 
z
" transform="scale(0.015625)"/>
       </defs>
       <use xlink:href="#DejaVuSans-2212"/>
       <use xlink:href="#DejaVuSans-31" x="83.789062"/>
       <use xlink:href="#DejaVuSans-32" x="147.412109"/>
      </g>
     </g>
    </g>
    <g id="ytick_2">
     <g id="line2d_17">
      <path d="M 54 210.184615 
L 388.8 210.184615 
" clip-path="url(#p21c63c2cfd)" style="fill: none; stroke-dasharray: 2.96,1.28; stroke-dashoffset: 0; stroke: #b0b0b0; stroke-width: 0.8"/>
     </g>
     <g id="line2d_18">
      <g>
       <use xlink:href="#m26423dab00" x="54" y="210.184615" style="stroke: #000000; stroke-width: 0.8"/>
      </g>
     </g>
     <g id="text_10">
      <!-- −10 -->
      <g transform="translate(25.895312 213.983834)scale(0.1 -0.1)">
       <use xlink:href="#DejaVuSans-2212"/>
       <use xlink:href="#DejaVuSans-31" x="83.789062"/>
       <use xlink:href="#DejaVuSans-30" x="147.412109"/>
      </g>
     </g>
    </g>
    <g id="ytick_3">
     <g id="line2d_19">
      <path d="M 54 176.732308 
L 388.8 176.732308 
" clip-path="url(#p21c63c2cfd)" style="fill: none; stroke-dasharray: 2.96,1.28; stroke-dashoffset: 0; stroke: #b0b0b0; stroke-width: 0.8"/>
     </g>
     <g id="line2d_20">
      <g>
       <use xlink:href="#m26423dab00" x="54" y="176.732308" style="stroke: #000000; stroke-width: 0.8"/>
      </g>
     </g>
     <g id="text_11">
      <!-- −8 -->
      <g transform="translate(32.257812 180.531526)scale(0.1 -0.1)">
       <defs>
        <path id="DejaVuSans-38" d="M 2034 2216 
Q 1584 2216 1326 1975 
Q 1069 1734 1069 1313 
Q 1069 891 1326 650 
Q 1584 409 2034 409 
Q 2484 409 2743 651 
Q 3003 894 3003 1313 
Q 3003 1734 2745 1975 
Q 2488 2216 2034 2216 
z
M 1403 2484 
Q 997 2584 770 2862 
Q 544 3141 544 3541 
Q 544 4100 942 4425 
Q 1341 4750 2034 4750 
Q 2731 4750 3128 4425 
Q 3525 4100 3525 3541 
Q 3525 3141 3298 2862 
Q 3072 2584 2669 2484 
Q 3125 2378 3379 2068 
Q 3634 1759 3634 1313 
Q 3634 634 3220 271 
Q 2806 -91 2034 -91 
Q 1263 -91 848 271 
Q 434 634 434 1313 
Q 434 1759 690 2068 
Q 947 2378 1403 2484 
z
M 1172 3481 
Q 1172 3119 1398 2916 
Q 1625 2713 2034 2713 
Q 2441 2713 2670 2916 
Q 2900 3119 2900 3481 
Q 2900 3844 2670 4047 
Q 2441 4250 2034 4250 
Q 1625 4250 1398 4047 
Q 1172 3844 1172 3481 
z
" transform="scale(0.015625)"/>
       </defs>
       <use xlink:href="#DejaVuSans-2212"/>
       <use xlink:href="#DejaVuSans-38" x="83.789062"/>
      </g>
     </g>
    </g>
    <g id="ytick_4">
     <g id="line2d_21">
      <path d="M 54 143.28 
L 388.8 143.28 
" clip-path="url(#p21c63c2cfd)" style="fill: none; stroke-dasharray: 2.96,1.28; stroke-dashoffset: 0; stroke: #b0b0b0; stroke-width: 0.8"/>
     </g>
     <g id="line2d_22">
      <g>
       <use xlink:href="#m26423dab00" x="54" y="143.28" style="stroke: #000000; stroke-width: 0.8"/>
      </g>
     </g>
     <g id="text_12">
      <!-- −6 -->
      <g transform="translate(32.257812 147.079219)scale(0.1 -0.1)">
       <defs>
        <path id="DejaVuSans-36" d="M 2113 2584 
Q 1688 2584 1439 2293 
Q 1191 2003 1191 1497 
Q 1191 994 1439 701 
Q 1688 409 2113 409 
Q 2538 409 2786 701 
Q 3034 994 3034 1497 
Q 3034 2003 2786 2293 
Q 2538 2584 2113 2584 
z
M 3366 4563 
L 3366 3988 
Q 3128 4100 2886 4159 
Q 2644 4219 2406 4219 
Q 1781 4219 1451 3797 
Q 1122 3375 1075 2522 
Q 1259 2794 1537 2939 
Q 1816 3084 2150 3084 
Q 2853 3084 3261 2657 
Q 3669 2231 3669 1497 
Q 3669 778 3244 343 
Q 2819 -91 2113 -91 
Q 1303 -91 875 529 
Q 447 1150 447 2328 
Q 447 3434 972 4092 
Q 1497 4750 2381 4750 
Q 2619 4750 2861 4703 
Q 3103 4656 3366 4563 
z
" transform="scale(0.015625)"/>
       </defs>
       <use xlink:href="#DejaVuSans-2212"/>
       <use xlink:href="#DejaVuSans-36" x="83.789062"/>
      </g>
     </g>
    </g>
    <g id="ytick_5">
     <g id="line2d_23">
      <path d="M 54 109.827692 
L 388.8 109.827692 
" clip-path="url(#p21c63c2cfd)" style="fill: none; stroke-dasharray: 2.96,1.28; stroke-dashoffset: 0; stroke: #b0b0b0; stroke-width: 0.8"/>
     </g>
     <g id="line2d_24">
      <g>
       <use xlink:href="#m26423dab00" x="54" y="109.827692" style="stroke: #000000; stroke-width: 0.8"/>
      </g>
     </g>
     <g id="text_13">
      <!-- −4 -->
      <g transform="translate(32.257812 113.626911)scale(0.1 -0.1)">
       <defs>
        <path id="DejaVuSans-34" d="M 2419 4116 
L 825 1625 
L 2419 1625 
L 2419 4116 
z
M 2253 4666 
L 3047 4666 
L 3047 1625 
L 3713 1625 
L 3713 1100 
L 3047 1100 
L 3047 0 
L 2419 0 
L 2419 1100 
L 313 1100 
L 313 1709 
L 2253 4666 
z
" transform="scale(0.015625)"/>
       </defs>
       <use xlink:href="#DejaVuSans-2212"/>
       <use xlink:href="#DejaVuSans-34" x="83.789062"/>
      </g>
     </g>
    </g>
    <g id="ytick_6">
     <g id="line2d_25">
      <path d="M 54 76.375385 
L 388.8 76.375385 
" clip-path="url(#p21c63c2cfd)" style="fill: none; stroke-dasharray: 2.96,1.28; stroke-dashoffset: 0; stroke: #b0b0b0; stroke-width: 0.8"/>
     </g>
     <g id="line2d_26">
      <g>
       <use xlink:href="#m26423dab00" x="54" y="76.375385" style="stroke: #000000; stroke-width: 0.8"/>
      </g>
     </g>
     <g id="text_14">
      <!-- −2 -->
      <g transform="translate(32.257812 80.174603)scale(0.1 -0.1)">
       <use xlink:href="#DejaVuSans-2212"/>
       <use xlink:href="#DejaVuSans-32" x="83.789062"/>
      </g>
     </g>
    </g>
    <g id="ytick_7">
     <g id="line2d_27">
      <path d="M 54 42.923077 
L 388.8 42.923077 
" clip-path="url(#p21c63c2cfd)" style="fill: none; stroke-dasharray: 2.96,1.28; stroke-dashoffset: 0; stroke: #b0b0b0; stroke-width: 0.8"/>
     </g>
     <g id="line2d_28">
      <g>
       <use xlink:href="#m26423dab00" x="54" y="42.923077" style="stroke: #000000; stroke-width: 0.8"/>
      </g>
     </g>
     <g id="text_15">
      <!-- 0 -->
      <g transform="translate(40.6375 46.722296)scale(0.1 -0.1)">
       <use xlink:href="#DejaVuSans-30"/>
      </g>
     </g>
    </g>
    <g id="text_16">
     <!-- Policy value error -->
     <g transform="translate(19.815625 186.597969)rotate(-90)scale(0.1 -0.1)">
      <defs>
       <path id="DejaVuSans-50" d="M 1259 4147 
L 1259 2394 
L 2053 2394 
Q 2494 2394 2734 2622 
Q 2975 2850 2975 3272 
Q 2975 3691 2734 3919 
Q 2494 4147 2053 4147 
L 1259 4147 
z
M 628 4666 
L 2053 4666 
Q 2838 4666 3239 4311 
Q 3641 3956 3641 3272 
Q 3641 2581 3239 2228 
Q 2838 1875 2053 1875 
L 1259 1875 
L 1259 0 
L 628 0 
L 628 4666 
z
" transform="scale(0.015625)"/>
       <path id="DejaVuSans-6f" d="M 1959 3097 
Q 1497 3097 1228 2736 
Q 959 2375 959 1747 
Q 959 1119 1226 758 
Q 1494 397 1959 397 
Q 2419 397 2687 759 
Q 2956 1122 2956 1747 
Q 2956 2369 2687 2733 
Q 2419 3097 1959 3097 
z
M 1959 3584 
Q 2709 3584 3137 3096 
Q 3566 2609 3566 1747 
Q 3566 888 3137 398 
Q 2709 -91 1959 -91 
Q 1206 -91 779 398 
Q 353 888 353 1747 
Q 353 2609 779 3096 
Q 1206 3584 1959 3584 
z
" transform="scale(0.015625)"/>
       <path id="DejaVuSans-6c" d="M 603 4863 
L 1178 4863 
L 1178 0 
L 603 0 
L 603 4863 
z
" transform="scale(0.015625)"/>
       <path id="DejaVuSans-69" d="M 603 3500 
L 1178 3500 
L 1178 0 
L 603 0 
L 603 3500 
z
M 603 4863 
L 1178 4863 
L 1178 4134 
L 603 4134 
L 603 4863 
z
" transform="scale(0.015625)"/>
       <path id="DejaVuSans-63" d="M 3122 3366 
L 3122 2828 
Q 2878 2963 2633 3030 
Q 2388 3097 2138 3097 
Q 1578 3097 1268 2742 
Q 959 2388 959 1747 
Q 959 1106 1268 751 
Q 1578 397 2138 397 
Q 2388 397 2633 464 
Q 2878 531 3122 666 
L 3122 134 
Q 2881 22 2623 -34 
Q 2366 -91 2075 -91 
Q 1284 -91 818 406 
Q 353 903 353 1747 
Q 353 2603 823 3093 
Q 1294 3584 2113 3584 
Q 2378 3584 2631 3529 
Q 2884 3475 3122 3366 
z
" transform="scale(0.015625)"/>
       <path id="DejaVuSans-79" d="M 2059 -325 
Q 1816 -950 1584 -1140 
Q 1353 -1331 966 -1331 
L 506 -1331 
L 506 -850 
L 844 -850 
Q 1081 -850 1212 -737 
Q 1344 -625 1503 -206 
L 1606 56 
L 191 3500 
L 800 3500 
L 1894 763 
L 2988 3500 
L 3597 3500 
L 2059 -325 
z
" transform="scale(0.015625)"/>
       <path id="DejaVuSans-20" transform="scale(0.015625)"/>
       <path id="DejaVuSans-76" d="M 191 3500 
L 800 3500 
L 1894 563 
L 2988 3500 
L 3597 3500 
L 2284 0 
L 1503 0 
L 191 3500 
z
" transform="scale(0.015625)"/>
       <path id="DejaVuSans-61" d="M 2194 1759 
Q 1497 1759 1228 1600 
Q 959 1441 959 1056 
Q 959 750 1161 570 
Q 1363 391 1709 391 
Q 2188 391 2477 730 
Q 2766 1069 2766 1631 
L 2766 1759 
L 2194 1759 
z
M 3341 1997 
L 3341 0 
L 2766 0 
L 2766 531 
Q 2569 213 2275 61 
Q 1981 -91 1556 -91 
Q 1019 -91 701 211 
Q 384 513 384 1019 
Q 384 1609 779 1909 
Q 1175 2209 1959 2209 
L 2766 2209 
L 2766 2266 
Q 2766 2663 2505 2880 
Q 2244 3097 1772 3097 
Q 1472 3097 1187 3025 
Q 903 2953 641 2809 
L 641 3341 
Q 956 3463 1253 3523 
Q 1550 3584 1831 3584 
Q 2591 3584 2966 3190 
Q 3341 2797 3341 1997 
z
" transform="scale(0.015625)"/>
       <path id="DejaVuSans-75" d="M 544 1381 
L 544 3500 
L 1119 3500 
L 1119 1403 
Q 1119 906 1312 657 
Q 1506 409 1894 409 
Q 2359 409 2629 706 
Q 2900 1003 2900 1516 
L 2900 3500 
L 3475 3500 
L 3475 0 
L 2900 0 
L 2900 538 
Q 2691 219 2414 64 
Q 2138 -91 1772 -91 
Q 1169 -91 856 284 
Q 544 659 544 1381 
z
M 1991 3584 
L 1991 3584 
z
" transform="scale(0.015625)"/>
       <path id="DejaVuSans-72" d="M 2631 2963 
Q 2534 3019 2420 3045 
Q 2306 3072 2169 3072 
Q 1681 3072 1420 2755 
Q 1159 2438 1159 1844 
L 1159 0 
L 581 0 
L 581 3500 
L 1159 3500 
L 1159 2956 
Q 1341 3275 1631 3429 
Q 1922 3584 2338 3584 
Q 2397 3584 2469 3576 
Q 2541 3569 2628 3553 
L 2631 2963 
z
" transform="scale(0.015625)"/>
      </defs>
      <use xlink:href="#DejaVuSans-50"/>
      <use xlink:href="#DejaVuSans-6f" x="56.677734"/>
      <use xlink:href="#DejaVuSans-6c" x="117.859375"/>
      <use xlink:href="#DejaVuSans-69" x="145.642578"/>
      <use xlink:href="#DejaVuSans-63" x="173.425781"/>
      <use xlink:href="#DejaVuSans-79" x="228.40625"/>
      <use xlink:href="#DejaVuSans-20" x="287.585938"/>
      <use xlink:href="#DejaVuSans-76" x="319.373047"/>
      <use xlink:href="#DejaVuSans-61" x="378.552734"/>
      <use xlink:href="#DejaVuSans-6c" x="439.832031"/>
      <use xlink:href="#DejaVuSans-75" x="467.615234"/>
      <use xlink:href="#DejaVuSans-65" x="530.994141"/>
      <use xlink:href="#DejaVuSans-20" x="592.517578"/>
      <use xlink:href="#DejaVuSans-65" x="624.304688"/>
      <use xlink:href="#DejaVuSans-72" x="685.828125"/>
      <use xlink:href="#DejaVuSans-72" x="725.191406"/>
      <use xlink:href="#DejaVuSans-6f" x="764.054688"/>
      <use xlink:href="#DejaVuSans-72" x="825.236328"/>
     </g>
    </g>
   </g>
   <g id="line2d_29">
    <path d="M 69.218182 253.060964 
L 74.376888 254.099187 
L 79.535593 252.908818 
L 84.694299 252.908818 
L 89.853005 252.908818 
L 95.01171 252.912897 
L 100.170416 253.05525 
L 105.329122 253.144631 
L 110.487827 253.147761 
L 115.646533 252.918809 
L 120.805239 253.186995 
L 125.963945 252.92119 
L 131.12265 252.912444 
L 136.281356 252.915858 
L 141.440062 254.160725 
L 146.598767 252.908818 
L 151.757473 241.740727 
L 156.916179 254.119039 
L 162.074884 252.916686 
L 167.23359 254.043858 
L 172.392296 239.53162 
L 177.551002 222.013942 
L 182.709707 214.432676 
L 187.868413 58.387374 
L 193.027119 48.044394 
L 198.185824 48.592128 
L 203.34453 48.592128 
L 208.503236 60.417019 
L 213.661941 60.417019 
L 218.820647 48.592128 
L 223.979353 105.300691 
L 229.138059 140.811935 
L 234.296764 54.521311 
L 239.45547 47.556085 
L 244.614176 43.348779 
L 249.772881 43.348779 
L 254.931587 43.348779 
L 260.090293 47.556085 
L 265.248998 47.838481 
L 270.407704 47.838481 
L 275.56641 47.838481 
L 280.725116 47.838481 
L 285.883821 47.838481 
L 291.042527 47.556085 
L 296.201233 47.556085 
L 301.359938 47.556085 
L 306.518644 47.556085 
L 311.67735 47.556085 
L 316.836055 43.348779 
L 321.994761 43.348779 
L 327.153467 43.348779 
L 332.312173 43.348779 
L 337.470878 43.348779 
L 342.629584 43.345433 
L 347.78829 43.345433 
L 352.946995 43.345433 
L 358.105701 43.348779 
L 363.264407 43.348779 
L 368.423112 43.345433 
L 373.581818 43.345433 
" clip-path="url(#p21c63c2cfd)" style="fill: none; stroke: #9d02d7; stroke-width: 1.5; stroke-linecap: square"/>
    <defs>
     <path id="mca9774cff4" d="M 0 -2 
L -2 2 
L 2 2 
z
" style="stroke: #9d02d7; stroke-linejoin: miter"/>
    </defs>
    <g clip-path="url(#p21c63c2cfd)">
     <use xlink:href="#mca9774cff4" x="69.218182" y="253.060964" style="fill: #9d02d7; stroke: #9d02d7; stroke-linejoin: miter"/>
     <use xlink:href="#mca9774cff4" x="74.376888" y="254.099187" style="fill: #9d02d7; stroke: #9d02d7; stroke-linejoin: miter"/>
     <use xlink:href="#mca9774cff4" x="79.535593" y="252.908818" style="fill: #9d02d7; stroke: #9d02d7; stroke-linejoin: miter"/>
     <use xlink:href="#mca9774cff4" x="84.694299" y="252.908818" style="fill: #9d02d7; stroke: #9d02d7; stroke-linejoin: miter"/>
     <use xlink:href="#mca9774cff4" x="89.853005" y="252.908818" style="fill: #9d02d7; stroke: #9d02d7; stroke-linejoin: miter"/>
     <use xlink:href="#mca9774cff4" x="95.01171" y="252.912897" style="fill: #9d02d7; stroke: #9d02d7; stroke-linejoin: miter"/>
     <use xlink:href="#mca9774cff4" x="100.170416" y="253.05525" style="fill: #9d02d7; stroke: #9d02d7; stroke-linejoin: miter"/>
     <use xlink:href="#mca9774cff4" x="105.329122" y="253.144631" style="fill: #9d02d7; stroke: #9d02d7; stroke-linejoin: miter"/>
     <use xlink:href="#mca9774cff4" x="110.487827" y="253.147761" style="fill: #9d02d7; stroke: #9d02d7; stroke-linejoin: miter"/>
     <use xlink:href="#mca9774cff4" x="115.646533" y="252.918809" style="fill: #9d02d7; stroke: #9d02d7; stroke-linejoin: miter"/>
     <use xlink:href="#mca9774cff4" x="120.805239" y="253.186995" style="fill: #9d02d7; stroke: #9d02d7; stroke-linejoin: miter"/>
     <use xlink:href="#mca9774cff4" x="125.963945" y="252.92119" style="fill: #9d02d7; stroke: #9d02d7; stroke-linejoin: miter"/>
     <use xlink:href="#mca9774cff4" x="131.12265" y="252.912444" style="fill: #9d02d7; stroke: #9d02d7; stroke-linejoin: miter"/>
     <use xlink:href="#mca9774cff4" x="136.281356" y="252.915858" style="fill: #9d02d7; stroke: #9d02d7; stroke-linejoin: miter"/>
     <use xlink:href="#mca9774cff4" x="141.440062" y="254.160725" style="fill: #9d02d7; stroke: #9d02d7; stroke-linejoin: miter"/>
     <use xlink:href="#mca9774cff4" x="146.598767" y="252.908818" style="fill: #9d02d7; stroke: #9d02d7; stroke-linejoin: miter"/>
     <use xlink:href="#mca9774cff4" x="151.757473" y="241.740727" style="fill: #9d02d7; stroke: #9d02d7; stroke-linejoin: miter"/>
     <use xlink:href="#mca9774cff4" x="156.916179" y="254.119039" style="fill: #9d02d7; stroke: #9d02d7; stroke-linejoin: miter"/>
     <use xlink:href="#mca9774cff4" x="162.074884" y="252.916686" style="fill: #9d02d7; stroke: #9d02d7; stroke-linejoin: miter"/>
     <use xlink:href="#mca9774cff4" x="167.23359" y="254.043858" style="fill: #9d02d7; stroke: #9d02d7; stroke-linejoin: miter"/>
     <use xlink:href="#mca9774cff4" x="172.392296" y="239.53162" style="fill: #9d02d7; stroke: #9d02d7; stroke-linejoin: miter"/>
     <use xlink:href="#mca9774cff4" x="177.551002" y="222.013942" style="fill: #9d02d7; stroke: #9d02d7; stroke-linejoin: miter"/>
     <use xlink:href="#mca9774cff4" x="182.709707" y="214.432676" style="fill: #9d02d7; stroke: #9d02d7; stroke-linejoin: miter"/>
     <use xlink:href="#mca9774cff4" x="187.868413" y="58.387374" style="fill: #9d02d7; stroke: #9d02d7; stroke-linejoin: miter"/>
     <use xlink:href="#mca9774cff4" x="193.027119" y="48.044394" style="fill: #9d02d7; stroke: #9d02d7; stroke-linejoin: miter"/>
     <use xlink:href="#mca9774cff4" x="198.185824" y="48.592128" style="fill: #9d02d7; stroke: #9d02d7; stroke-linejoin: miter"/>
     <use xlink:href="#mca9774cff4" x="203.34453" y="48.592128" style="fill: #9d02d7; stroke: #9d02d7; stroke-linejoin: miter"/>
     <use xlink:href="#mca9774cff4" x="208.503236" y="60.417019" style="fill: #9d02d7; stroke: #9d02d7; stroke-linejoin: miter"/>
     <use xlink:href="#mca9774cff4" x="213.661941" y="60.417019" style="fill: #9d02d7; stroke: #9d02d7; stroke-linejoin: miter"/>
     <use xlink:href="#mca9774cff4" x="218.820647" y="48.592128" style="fill: #9d02d7; stroke: #9d02d7; stroke-linejoin: miter"/>
     <use xlink:href="#mca9774cff4" x="223.979353" y="105.300691" style="fill: #9d02d7; stroke: #9d02d7; stroke-linejoin: miter"/>
     <use xlink:href="#mca9774cff4" x="229.138059" y="140.811935" style="fill: #9d02d7; stroke: #9d02d7; stroke-linejoin: miter"/>
     <use xlink:href="#mca9774cff4" x="234.296764" y="54.521311" style="fill: #9d02d7; stroke: #9d02d7; stroke-linejoin: miter"/>
     <use xlink:href="#mca9774cff4" x="239.45547" y="47.556085" style="fill: #9d02d7; stroke: #9d02d7; stroke-linejoin: miter"/>
     <use xlink:href="#mca9774cff4" x="244.614176" y="43.348779" style="fill: #9d02d7; stroke: #9d02d7; stroke-linejoin: miter"/>
     <use xlink:href="#mca9774cff4" x="249.772881" y="43.348779" style="fill: #9d02d7; stroke: #9d02d7; stroke-linejoin: miter"/>
     <use xlink:href="#mca9774cff4" x="254.931587" y="43.348779" style="fill: #9d02d7; stroke: #9d02d7; stroke-linejoin: miter"/>
     <use xlink:href="#mca9774cff4" x="260.090293" y="47.556085" style="fill: #9d02d7; stroke: #9d02d7; stroke-linejoin: miter"/>
     <use xlink:href="#mca9774cff4" x="265.248998" y="47.838481" style="fill: #9d02d7; stroke: #9d02d7; stroke-linejoin: miter"/>
     <use xlink:href="#mca9774cff4" x="270.407704" y="47.838481" style="fill: #9d02d7; stroke: #9d02d7; stroke-linejoin: miter"/>
     <use xlink:href="#mca9774cff4" x="275.56641" y="47.838481" style="fill: #9d02d7; stroke: #9d02d7; stroke-linejoin: miter"/>
     <use xlink:href="#mca9774cff4" x="280.725116" y="47.838481" style="fill: #9d02d7; stroke: #9d02d7; stroke-linejoin: miter"/>
     <use xlink:href="#mca9774cff4" x="285.883821" y="47.838481" style="fill: #9d02d7; stroke: #9d02d7; stroke-linejoin: miter"/>
     <use xlink:href="#mca9774cff4" x="291.042527" y="47.556085" style="fill: #9d02d7; stroke: #9d02d7; stroke-linejoin: miter"/>
     <use xlink:href="#mca9774cff4" x="296.201233" y="47.556085" style="fill: #9d02d7; stroke: #9d02d7; stroke-linejoin: miter"/>
     <use xlink:href="#mca9774cff4" x="301.359938" y="47.556085" style="fill: #9d02d7; stroke: #9d02d7; stroke-linejoin: miter"/>
     <use xlink:href="#mca9774cff4" x="306.518644" y="47.556085" style="fill: #9d02d7; stroke: #9d02d7; stroke-linejoin: miter"/>
     <use xlink:href="#mca9774cff4" x="311.67735" y="47.556085" style="fill: #9d02d7; stroke: #9d02d7; stroke-linejoin: miter"/>
     <use xlink:href="#mca9774cff4" x="316.836055" y="43.348779" style="fill: #9d02d7; stroke: #9d02d7; stroke-linejoin: miter"/>
     <use xlink:href="#mca9774cff4" x="321.994761" y="43.348779" style="fill: #9d02d7; stroke: #9d02d7; stroke-linejoin: miter"/>
     <use xlink:href="#mca9774cff4" x="327.153467" y="43.348779" style="fill: #9d02d7; stroke: #9d02d7; stroke-linejoin: miter"/>
     <use xlink:href="#mca9774cff4" x="332.312173" y="43.348779" style="fill: #9d02d7; stroke: #9d02d7; stroke-linejoin: miter"/>
     <use xlink:href="#mca9774cff4" x="337.470878" y="43.348779" style="fill: #9d02d7; stroke: #9d02d7; stroke-linejoin: miter"/>
     <use xlink:href="#mca9774cff4" x="342.629584" y="43.345433" style="fill: #9d02d7; stroke: #9d02d7; stroke-linejoin: miter"/>
     <use xlink:href="#mca9774cff4" x="347.78829" y="43.345433" style="fill: #9d02d7; stroke: #9d02d7; stroke-linejoin: miter"/>
     <use xlink:href="#mca9774cff4" x="352.946995" y="43.345433" style="fill: #9d02d7; stroke: #9d02d7; stroke-linejoin: miter"/>
     <use xlink:href="#mca9774cff4" x="358.105701" y="43.348779" style="fill: #9d02d7; stroke: #9d02d7; stroke-linejoin: miter"/>
     <use xlink:href="#mca9774cff4" x="363.264407" y="43.348779" style="fill: #9d02d7; stroke: #9d02d7; stroke-linejoin: miter"/>
     <use xlink:href="#mca9774cff4" x="368.423112" y="43.345433" style="fill: #9d02d7; stroke: #9d02d7; stroke-linejoin: miter"/>
     <use xlink:href="#mca9774cff4" x="373.581818" y="43.345433" style="fill: #9d02d7; stroke: #9d02d7; stroke-linejoin: miter"/>
    </g>
   </g>
   <g id="line2d_30">
    <path d="M 69.218182 252.885115 
L 74.376888 252.908818 
L 79.535593 255.106861 
L 84.694299 253.862292 
L 89.853005 252.098941 
L 95.01171 253.76952 
L 100.170416 253.5464 
L 105.329122 253.93594 
L 110.487827 248.702901 
L 115.646533 248.091489 
L 120.805239 184.28838 
L 125.963945 251.35039 
L 131.12265 158.271683 
L 136.281356 249.605423 
L 141.440062 253.005941 
L 146.598767 253.13217 
L 151.757473 252.407463 
L 156.916179 246.346184 
L 162.074884 246.47623 
L 167.23359 235.179031 
L 172.392296 241.156548 
L 177.551002 232.2488 
L 182.709707 65.357312 
L 187.868413 61.838349 
L 193.027119 64.545183 
L 198.185824 60.597681 
L 203.34453 54.982258 
L 208.503236 50.009816 
L 213.661941 53.028699 
L 218.820647 98.62157 
L 223.979353 50.178052 
L 229.138059 47.19844 
L 234.296764 47.195412 
L 239.45547 47.195412 
L 244.614176 47.19844 
L 249.772881 47.19844 
L 254.931587 47.195412 
L 260.090293 47.194797 
L 265.248998 47.194797 
L 270.407704 47.194797 
L 275.56641 49.54511 
L 280.725116 49.54511 
L 285.883821 49.54511 
L 291.042527 49.54511 
L 296.201233 49.54511 
L 301.359938 49.54511 
L 306.518644 49.54511 
L 311.67735 47.194797 
L 316.836055 47.194797 
L 321.994761 47.194797 
L 327.153467 47.194797 
L 332.312173 47.194797 
L 337.470878 47.194797 
L 342.629584 47.194797 
L 347.78829 47.194797 
L 352.946995 47.194797 
L 358.105701 47.194797 
L 363.264407 47.194797 
L 368.423112 47.194797 
L 373.581818 47.194797 
" clip-path="url(#p21c63c2cfd)" style="fill: none; stroke: #0000ff; stroke-width: 1.5; stroke-linecap: square"/>
    <defs>
     <path id="m869381486e" d="M 0 2 
C 0.530406 2 1.03916 1.789267 1.414214 1.414214 
C 1.789267 1.03916 2 0.530406 2 0 
C 2 -0.530406 1.789267 -1.03916 1.414214 -1.414214 
C 1.03916 -1.789267 0.530406 -2 0 -2 
C -0.530406 -2 -1.03916 -1.789267 -1.414214 -1.414214 
C -1.789267 -1.03916 -2 -0.530406 -2 0 
C -2 0.530406 -1.789267 1.03916 -1.414214 1.414214 
C -1.03916 1.789267 -0.530406 2 0 2 
z
" style="stroke: #0000ff"/>
    </defs>
    <g clip-path="url(#p21c63c2cfd)">
     <use xlink:href="#m869381486e" x="69.218182" y="252.885115" style="fill: #0000ff; stroke: #0000ff"/>
     <use xlink:href="#m869381486e" x="74.376888" y="252.908818" style="fill: #0000ff; stroke: #0000ff"/>
     <use xlink:href="#m869381486e" x="79.535593" y="255.106861" style="fill: #0000ff; stroke: #0000ff"/>
     <use xlink:href="#m869381486e" x="84.694299" y="253.862292" style="fill: #0000ff; stroke: #0000ff"/>
     <use xlink:href="#m869381486e" x="89.853005" y="252.098941" style="fill: #0000ff; stroke: #0000ff"/>
     <use xlink:href="#m869381486e" x="95.01171" y="253.76952" style="fill: #0000ff; stroke: #0000ff"/>
     <use xlink:href="#m869381486e" x="100.170416" y="253.5464" style="fill: #0000ff; stroke: #0000ff"/>
     <use xlink:href="#m869381486e" x="105.329122" y="253.93594" style="fill: #0000ff; stroke: #0000ff"/>
     <use xlink:href="#m869381486e" x="110.487827" y="248.702901" style="fill: #0000ff; stroke: #0000ff"/>
     <use xlink:href="#m869381486e" x="115.646533" y="248.091489" style="fill: #0000ff; stroke: #0000ff"/>
     <use xlink:href="#m869381486e" x="120.805239" y="184.28838" style="fill: #0000ff; stroke: #0000ff"/>
     <use xlink:href="#m869381486e" x="125.963945" y="251.35039" style="fill: #0000ff; stroke: #0000ff"/>
     <use xlink:href="#m869381486e" x="131.12265" y="158.271683" style="fill: #0000ff; stroke: #0000ff"/>
     <use xlink:href="#m869381486e" x="136.281356" y="249.605423" style="fill: #0000ff; stroke: #0000ff"/>
     <use xlink:href="#m869381486e" x="141.440062" y="253.005941" style="fill: #0000ff; stroke: #0000ff"/>
     <use xlink:href="#m869381486e" x="146.598767" y="253.13217" style="fill: #0000ff; stroke: #0000ff"/>
     <use xlink:href="#m869381486e" x="151.757473" y="252.407463" style="fill: #0000ff; stroke: #0000ff"/>
     <use xlink:href="#m869381486e" x="156.916179" y="246.346184" style="fill: #0000ff; stroke: #0000ff"/>
     <use xlink:href="#m869381486e" x="162.074884" y="246.47623" style="fill: #0000ff; stroke: #0000ff"/>
     <use xlink:href="#m869381486e" x="167.23359" y="235.179031" style="fill: #0000ff; stroke: #0000ff"/>
     <use xlink:href="#m869381486e" x="172.392296" y="241.156548" style="fill: #0000ff; stroke: #0000ff"/>
     <use xlink:href="#m869381486e" x="177.551002" y="232.2488" style="fill: #0000ff; stroke: #0000ff"/>
     <use xlink:href="#m869381486e" x="182.709707" y="65.357312" style="fill: #0000ff; stroke: #0000ff"/>
     <use xlink:href="#m869381486e" x="187.868413" y="61.838349" style="fill: #0000ff; stroke: #0000ff"/>
     <use xlink:href="#m869381486e" x="193.027119" y="64.545183" style="fill: #0000ff; stroke: #0000ff"/>
     <use xlink:href="#m869381486e" x="198.185824" y="60.597681" style="fill: #0000ff; stroke: #0000ff"/>
     <use xlink:href="#m869381486e" x="203.34453" y="54.982258" style="fill: #0000ff; stroke: #0000ff"/>
     <use xlink:href="#m869381486e" x="208.503236" y="50.009816" style="fill: #0000ff; stroke: #0000ff"/>
     <use xlink:href="#m869381486e" x="213.661941" y="53.028699" style="fill: #0000ff; stroke: #0000ff"/>
     <use xlink:href="#m869381486e" x="218.820647" y="98.62157" style="fill: #0000ff; stroke: #0000ff"/>
     <use xlink:href="#m869381486e" x="223.979353" y="50.178052" style="fill: #0000ff; stroke: #0000ff"/>
     <use xlink:href="#m869381486e" x="229.138059" y="47.19844" style="fill: #0000ff; stroke: #0000ff"/>
     <use xlink:href="#m869381486e" x="234.296764" y="47.195412" style="fill: #0000ff; stroke: #0000ff"/>
     <use xlink:href="#m869381486e" x="239.45547" y="47.195412" style="fill: #0000ff; stroke: #0000ff"/>
     <use xlink:href="#m869381486e" x="244.614176" y="47.19844" style="fill: #0000ff; stroke: #0000ff"/>
     <use xlink:href="#m869381486e" x="249.772881" y="47.19844" style="fill: #0000ff; stroke: #0000ff"/>
     <use xlink:href="#m869381486e" x="254.931587" y="47.195412" style="fill: #0000ff; stroke: #0000ff"/>
     <use xlink:href="#m869381486e" x="260.090293" y="47.194797" style="fill: #0000ff; stroke: #0000ff"/>
     <use xlink:href="#m869381486e" x="265.248998" y="47.194797" style="fill: #0000ff; stroke: #0000ff"/>
     <use xlink:href="#m869381486e" x="270.407704" y="47.194797" style="fill: #0000ff; stroke: #0000ff"/>
     <use xlink:href="#m869381486e" x="275.56641" y="49.54511" style="fill: #0000ff; stroke: #0000ff"/>
     <use xlink:href="#m869381486e" x="280.725116" y="49.54511" style="fill: #0000ff; stroke: #0000ff"/>
     <use xlink:href="#m869381486e" x="285.883821" y="49.54511" style="fill: #0000ff; stroke: #0000ff"/>
     <use xlink:href="#m869381486e" x="291.042527" y="49.54511" style="fill: #0000ff; stroke: #0000ff"/>
     <use xlink:href="#m869381486e" x="296.201233" y="49.54511" style="fill: #0000ff; stroke: #0000ff"/>
     <use xlink:href="#m869381486e" x="301.359938" y="49.54511" style="fill: #0000ff; stroke: #0000ff"/>
     <use xlink:href="#m869381486e" x="306.518644" y="49.54511" style="fill: #0000ff; stroke: #0000ff"/>
     <use xlink:href="#m869381486e" x="311.67735" y="47.194797" style="fill: #0000ff; stroke: #0000ff"/>
     <use xlink:href="#m869381486e" x="316.836055" y="47.194797" style="fill: #0000ff; stroke: #0000ff"/>
     <use xlink:href="#m869381486e" x="321.994761" y="47.194797" style="fill: #0000ff; stroke: #0000ff"/>
     <use xlink:href="#m869381486e" x="327.153467" y="47.194797" style="fill: #0000ff; stroke: #0000ff"/>
     <use xlink:href="#m869381486e" x="332.312173" y="47.194797" style="fill: #0000ff; stroke: #0000ff"/>
     <use xlink:href="#m869381486e" x="337.470878" y="47.194797" style="fill: #0000ff; stroke: #0000ff"/>
     <use xlink:href="#m869381486e" x="342.629584" y="47.194797" style="fill: #0000ff; stroke: #0000ff"/>
     <use xlink:href="#m869381486e" x="347.78829" y="47.194797" style="fill: #0000ff; stroke: #0000ff"/>
     <use xlink:href="#m869381486e" x="352.946995" y="47.194797" style="fill: #0000ff; stroke: #0000ff"/>
     <use xlink:href="#m869381486e" x="358.105701" y="47.194797" style="fill: #0000ff; stroke: #0000ff"/>
     <use xlink:href="#m869381486e" x="363.264407" y="47.194797" style="fill: #0000ff; stroke: #0000ff"/>
     <use xlink:href="#m869381486e" x="368.423112" y="47.194797" style="fill: #0000ff; stroke: #0000ff"/>
     <use xlink:href="#m869381486e" x="373.581818" y="47.194797" style="fill: #0000ff; stroke: #0000ff"/>
    </g>
   </g>
   <g id="line2d_31">
    <path d="M 69.218182 252.908818 
L 74.376888 256.19823 
L 79.535593 255.479255 
L 84.694299 252.283579 
L 89.853005 253.966902 
L 95.01171 253.984825 
L 100.170416 254.292957 
L 105.329122 256.073408 
L 110.487827 252.938842 
L 115.646533 190.020298 
L 120.805239 250.49695 
L 125.963945 251.012092 
L 131.12265 246.048454 
L 136.281356 187.203317 
L 141.440062 154.731488 
L 146.598767 151.096979 
L 151.757473 151.751515 
L 156.916179 151.862808 
L 162.074884 153.019532 
L 167.23359 153.572131 
L 172.392296 151.617953 
L 177.551002 238.830924 
L 182.709707 151.613522 
L 187.868413 152.736058 
L 193.027119 152.827061 
L 198.185824 153.601431 
L 203.34453 153.49744 
L 208.503236 152.734586 
L 213.661941 153.70862 
L 218.820647 66.140499 
L 223.979353 60.816144 
L 229.138059 49.558069 
L 234.296764 45.049634 
L 239.45547 43.820083 
L 244.614176 56.006552 
L 249.772881 56.006552 
L 254.931587 56.006552 
L 260.090293 56.006552 
L 265.248998 56.006552 
L 270.407704 56.006552 
L 275.56641 49.430524 
L 280.725116 45.283325 
L 285.883821 45.283325 
L 291.042527 56.006552 
L 296.201233 56.006552 
L 301.359938 45.283325 
L 306.518644 45.284139 
L 311.67735 45.284139 
L 316.836055 45.284139 
L 321.994761 45.283325 
L 327.153467 45.283325 
L 332.312173 45.283325 
L 337.470878 45.283325 
L 342.629584 45.283325 
L 347.78829 45.283325 
L 352.946995 45.284139 
L 358.105701 45.283325 
L 363.264407 45.283325 
L 368.423112 45.283325 
L 373.581818 45.283325 
" clip-path="url(#p21c63c2cfd)" style="fill: none; stroke: #ff7763; stroke-width: 1.5; stroke-linecap: square"/>
    <defs>
     <path id="m7d6a535f5a" d="M -2 2 
L 2 -2 
M -2 -2 
L 2 2 
" style="stroke: #ff7763"/>
    </defs>
    <g clip-path="url(#p21c63c2cfd)">
     <use xlink:href="#m7d6a535f5a" x="69.218182" y="252.908818" style="fill: #ff7763; stroke: #ff7763"/>
     <use xlink:href="#m7d6a535f5a" x="74.376888" y="256.19823" style="fill: #ff7763; stroke: #ff7763"/>
     <use xlink:href="#m7d6a535f5a" x="79.535593" y="255.479255" style="fill: #ff7763; stroke: #ff7763"/>
     <use xlink:href="#m7d6a535f5a" x="84.694299" y="252.283579" style="fill: #ff7763; stroke: #ff7763"/>
     <use xlink:href="#m7d6a535f5a" x="89.853005" y="253.966902" style="fill: #ff7763; stroke: #ff7763"/>
     <use xlink:href="#m7d6a535f5a" x="95.01171" y="253.984825" style="fill: #ff7763; stroke: #ff7763"/>
     <use xlink:href="#m7d6a535f5a" x="100.170416" y="254.292957" style="fill: #ff7763; stroke: #ff7763"/>
     <use xlink:href="#m7d6a535f5a" x="105.329122" y="256.073408" style="fill: #ff7763; stroke: #ff7763"/>
     <use xlink:href="#m7d6a535f5a" x="110.487827" y="252.938842" style="fill: #ff7763; stroke: #ff7763"/>
     <use xlink:href="#m7d6a535f5a" x="115.646533" y="190.020298" style="fill: #ff7763; stroke: #ff7763"/>
     <use xlink:href="#m7d6a535f5a" x="120.805239" y="250.49695" style="fill: #ff7763; stroke: #ff7763"/>
     <use xlink:href="#m7d6a535f5a" x="125.963945" y="251.012092" style="fill: #ff7763; stroke: #ff7763"/>
     <use xlink:href="#m7d6a535f5a" x="131.12265" y="246.048454" style="fill: #ff7763; stroke: #ff7763"/>
     <use xlink:href="#m7d6a535f5a" x="136.281356" y="187.203317" style="fill: #ff7763; stroke: #ff7763"/>
     <use xlink:href="#m7d6a535f5a" x="141.440062" y="154.731488" style="fill: #ff7763; stroke: #ff7763"/>
     <use xlink:href="#m7d6a535f5a" x="146.598767" y="151.096979" style="fill: #ff7763; stroke: #ff7763"/>
     <use xlink:href="#m7d6a535f5a" x="151.757473" y="151.751515" style="fill: #ff7763; stroke: #ff7763"/>
     <use xlink:href="#m7d6a535f5a" x="156.916179" y="151.862808" style="fill: #ff7763; stroke: #ff7763"/>
     <use xlink:href="#m7d6a535f5a" x="162.074884" y="153.019532" style="fill: #ff7763; stroke: #ff7763"/>
     <use xlink:href="#m7d6a535f5a" x="167.23359" y="153.572131" style="fill: #ff7763; stroke: #ff7763"/>
     <use xlink:href="#m7d6a535f5a" x="172.392296" y="151.617953" style="fill: #ff7763; stroke: #ff7763"/>
     <use xlink:href="#m7d6a535f5a" x="177.551002" y="238.830924" style="fill: #ff7763; stroke: #ff7763"/>
     <use xlink:href="#m7d6a535f5a" x="182.709707" y="151.613522" style="fill: #ff7763; stroke: #ff7763"/>
     <use xlink:href="#m7d6a535f5a" x="187.868413" y="152.736058" style="fill: #ff7763; stroke: #ff7763"/>
     <use xlink:href="#m7d6a535f5a" x="193.027119" y="152.827061" style="fill: #ff7763; stroke: #ff7763"/>
     <use xlink:href="#m7d6a535f5a" x="198.185824" y="153.601431" style="fill: #ff7763; stroke: #ff7763"/>
     <use xlink:href="#m7d6a535f5a" x="203.34453" y="153.49744" style="fill: #ff7763; stroke: #ff7763"/>
     <use xlink:href="#m7d6a535f5a" x="208.503236" y="152.734586" style="fill: #ff7763; stroke: #ff7763"/>
     <use xlink:href="#m7d6a535f5a" x="213.661941" y="153.70862" style="fill: #ff7763; stroke: #ff7763"/>
     <use xlink:href="#m7d6a535f5a" x="218.820647" y="66.140499" style="fill: #ff7763; stroke: #ff7763"/>
     <use xlink:href="#m7d6a535f5a" x="223.979353" y="60.816144" style="fill: #ff7763; stroke: #ff7763"/>
     <use xlink:href="#m7d6a535f5a" x="229.138059" y="49.558069" style="fill: #ff7763; stroke: #ff7763"/>
     <use xlink:href="#m7d6a535f5a" x="234.296764" y="45.049634" style="fill: #ff7763; stroke: #ff7763"/>
     <use xlink:href="#m7d6a535f5a" x="239.45547" y="43.820083" style="fill: #ff7763; stroke: #ff7763"/>
     <use xlink:href="#m7d6a535f5a" x="244.614176" y="56.006552" style="fill: #ff7763; stroke: #ff7763"/>
     <use xlink:href="#m7d6a535f5a" x="249.772881" y="56.006552" style="fill: #ff7763; stroke: #ff7763"/>
     <use xlink:href="#m7d6a535f5a" x="254.931587" y="56.006552" style="fill: #ff7763; stroke: #ff7763"/>
     <use xlink:href="#m7d6a535f5a" x="260.090293" y="56.006552" style="fill: #ff7763; stroke: #ff7763"/>
     <use xlink:href="#m7d6a535f5a" x="265.248998" y="56.006552" style="fill: #ff7763; stroke: #ff7763"/>
     <use xlink:href="#m7d6a535f5a" x="270.407704" y="56.006552" style="fill: #ff7763; stroke: #ff7763"/>
     <use xlink:href="#m7d6a535f5a" x="275.56641" y="49.430524" style="fill: #ff7763; stroke: #ff7763"/>
     <use xlink:href="#m7d6a535f5a" x="280.725116" y="45.283325" style="fill: #ff7763; stroke: #ff7763"/>
     <use xlink:href="#m7d6a535f5a" x="285.883821" y="45.283325" style="fill: #ff7763; stroke: #ff7763"/>
     <use xlink:href="#m7d6a535f5a" x="291.042527" y="56.006552" style="fill: #ff7763; stroke: #ff7763"/>
     <use xlink:href="#m7d6a535f5a" x="296.201233" y="56.006552" style="fill: #ff7763; stroke: #ff7763"/>
     <use xlink:href="#m7d6a535f5a" x="301.359938" y="45.283325" style="fill: #ff7763; stroke: #ff7763"/>
     <use xlink:href="#m7d6a535f5a" x="306.518644" y="45.284139" style="fill: #ff7763; stroke: #ff7763"/>
     <use xlink:href="#m7d6a535f5a" x="311.67735" y="45.284139" style="fill: #ff7763; stroke: #ff7763"/>
     <use xlink:href="#m7d6a535f5a" x="316.836055" y="45.284139" style="fill: #ff7763; stroke: #ff7763"/>
     <use xlink:href="#m7d6a535f5a" x="321.994761" y="45.283325" style="fill: #ff7763; stroke: #ff7763"/>
     <use xlink:href="#m7d6a535f5a" x="327.153467" y="45.283325" style="fill: #ff7763; stroke: #ff7763"/>
     <use xlink:href="#m7d6a535f5a" x="332.312173" y="45.283325" style="fill: #ff7763; stroke: #ff7763"/>
     <use xlink:href="#m7d6a535f5a" x="337.470878" y="45.283325" style="fill: #ff7763; stroke: #ff7763"/>
     <use xlink:href="#m7d6a535f5a" x="342.629584" y="45.283325" style="fill: #ff7763; stroke: #ff7763"/>
     <use xlink:href="#m7d6a535f5a" x="347.78829" y="45.283325" style="fill: #ff7763; stroke: #ff7763"/>
     <use xlink:href="#m7d6a535f5a" x="352.946995" y="45.284139" style="fill: #ff7763; stroke: #ff7763"/>
     <use xlink:href="#m7d6a535f5a" x="358.105701" y="45.283325" style="fill: #ff7763; stroke: #ff7763"/>
     <use xlink:href="#m7d6a535f5a" x="363.264407" y="45.283325" style="fill: #ff7763; stroke: #ff7763"/>
     <use xlink:href="#m7d6a535f5a" x="368.423112" y="45.283325" style="fill: #ff7763; stroke: #ff7763"/>
     <use xlink:href="#m7d6a535f5a" x="373.581818" y="45.283325" style="fill: #ff7763; stroke: #ff7763"/>
    </g>
   </g>
   <g id="line2d_32">
    <path d="M 69.218182 251.354999 
L 74.376888 252.905256 
L 79.535593 254.54728 
L 84.694299 253.447313 
L 89.853005 253.482133 
L 95.01171 252.908818 
L 100.170416 252.913176 
L 105.329122 253.015415 
L 110.487827 252.942158 
L 115.646533 253.326159 
L 120.805239 252.908818 
L 125.963945 250.312986 
L 131.12265 253.251029 
L 136.281356 250.32958 
L 141.440062 253.252538 
L 146.598767 217.952949 
L 151.757473 94.685714 
L 156.916179 99.077782 
L 162.074884 94.794062 
L 167.23359 95.79171 
L 172.392296 64.942899 
L 177.551002 66.868195 
L 182.709707 73.902511 
L 187.868413 61.013177 
L 193.027119 63.267581 
L 198.185824 58.490654 
L 203.34453 56.210331 
L 208.503236 56.448996 
L 213.661941 75.478197 
L 218.820647 56.210313 
L 223.979353 56.210313 
L 229.138059 56.210313 
L 234.296764 56.210313 
L 239.45547 56.210313 
L 244.614176 56.210313 
L 249.772881 56.233985 
L 254.931587 56.306655 
L 260.090293 56.210313 
L 265.248998 57.93563 
L 270.407704 57.935645 
L 275.56641 64.932506 
L 280.725116 59.255859 
L 285.883821 59.255859 
L 291.042527 59.255842 
L 296.201233 55.776795 
L 301.359938 49.332114 
L 306.518644 49.430595 
L 311.67735 47.107104 
L 316.836055 47.107104 
L 321.994761 47.107104 
L 327.153467 47.033235 
L 332.312173 47.033235 
L 337.470878 47.033235 
L 342.629584 47.033235 
L 347.78829 47.033235 
L 352.946995 47.107104 
L 358.105701 47.107104 
L 363.264407 47.107104 
L 368.423112 47.107104 
L 373.581818 47.033235 
" clip-path="url(#p21c63c2cfd)" style="fill: none; stroke: #ffac1e; stroke-width: 1.5; stroke-linecap: square"/>
    <defs>
     <path id="maee4bcc06b" d="M 0 -2 
L -0.449028 -0.618034 
L -1.902113 -0.618034 
L -0.726543 0.236068 
L -1.175571 1.618034 
L -0 0.763932 
L 1.175571 1.618034 
L 0.726543 0.236068 
L 1.902113 -0.618034 
L 0.449028 -0.618034 
z
" style="stroke: #ffac1e; stroke-linejoin: bevel"/>
    </defs>
    <g clip-path="url(#p21c63c2cfd)">
     <use xlink:href="#maee4bcc06b" x="69.218182" y="251.354999" style="fill: #ffac1e; stroke: #ffac1e; stroke-linejoin: bevel"/>
     <use xlink:href="#maee4bcc06b" x="74.376888" y="252.905256" style="fill: #ffac1e; stroke: #ffac1e; stroke-linejoin: bevel"/>
     <use xlink:href="#maee4bcc06b" x="79.535593" y="254.54728" style="fill: #ffac1e; stroke: #ffac1e; stroke-linejoin: bevel"/>
     <use xlink:href="#maee4bcc06b" x="84.694299" y="253.447313" style="fill: #ffac1e; stroke: #ffac1e; stroke-linejoin: bevel"/>
     <use xlink:href="#maee4bcc06b" x="89.853005" y="253.482133" style="fill: #ffac1e; stroke: #ffac1e; stroke-linejoin: bevel"/>
     <use xlink:href="#maee4bcc06b" x="95.01171" y="252.908818" style="fill: #ffac1e; stroke: #ffac1e; stroke-linejoin: bevel"/>
     <use xlink:href="#maee4bcc06b" x="100.170416" y="252.913176" style="fill: #ffac1e; stroke: #ffac1e; stroke-linejoin: bevel"/>
     <use xlink:href="#maee4bcc06b" x="105.329122" y="253.015415" style="fill: #ffac1e; stroke: #ffac1e; stroke-linejoin: bevel"/>
     <use xlink:href="#maee4bcc06b" x="110.487827" y="252.942158" style="fill: #ffac1e; stroke: #ffac1e; stroke-linejoin: bevel"/>
     <use xlink:href="#maee4bcc06b" x="115.646533" y="253.326159" style="fill: #ffac1e; stroke: #ffac1e; stroke-linejoin: bevel"/>
     <use xlink:href="#maee4bcc06b" x="120.805239" y="252.908818" style="fill: #ffac1e; stroke: #ffac1e; stroke-linejoin: bevel"/>
     <use xlink:href="#maee4bcc06b" x="125.963945" y="250.312986" style="fill: #ffac1e; stroke: #ffac1e; stroke-linejoin: bevel"/>
     <use xlink:href="#maee4bcc06b" x="131.12265" y="253.251029" style="fill: #ffac1e; stroke: #ffac1e; stroke-linejoin: bevel"/>
     <use xlink:href="#maee4bcc06b" x="136.281356" y="250.32958" style="fill: #ffac1e; stroke: #ffac1e; stroke-linejoin: bevel"/>
     <use xlink:href="#maee4bcc06b" x="141.440062" y="253.252538" style="fill: #ffac1e; stroke: #ffac1e; stroke-linejoin: bevel"/>
     <use xlink:href="#maee4bcc06b" x="146.598767" y="217.952949" style="fill: #ffac1e; stroke: #ffac1e; stroke-linejoin: bevel"/>
     <use xlink:href="#maee4bcc06b" x="151.757473" y="94.685714" style="fill: #ffac1e; stroke: #ffac1e; stroke-linejoin: bevel"/>
     <use xlink:href="#maee4bcc06b" x="156.916179" y="99.077782" style="fill: #ffac1e; stroke: #ffac1e; stroke-linejoin: bevel"/>
     <use xlink:href="#maee4bcc06b" x="162.074884" y="94.794062" style="fill: #ffac1e; stroke: #ffac1e; stroke-linejoin: bevel"/>
     <use xlink:href="#maee4bcc06b" x="167.23359" y="95.79171" style="fill: #ffac1e; stroke: #ffac1e; stroke-linejoin: bevel"/>
     <use xlink:href="#maee4bcc06b" x="172.392296" y="64.942899" style="fill: #ffac1e; stroke: #ffac1e; stroke-linejoin: bevel"/>
     <use xlink:href="#maee4bcc06b" x="177.551002" y="66.868195" style="fill: #ffac1e; stroke: #ffac1e; stroke-linejoin: bevel"/>
     <use xlink:href="#maee4bcc06b" x="182.709707" y="73.902511" style="fill: #ffac1e; stroke: #ffac1e; stroke-linejoin: bevel"/>
     <use xlink:href="#maee4bcc06b" x="187.868413" y="61.013177" style="fill: #ffac1e; stroke: #ffac1e; stroke-linejoin: bevel"/>
     <use xlink:href="#maee4bcc06b" x="193.027119" y="63.267581" style="fill: #ffac1e; stroke: #ffac1e; stroke-linejoin: bevel"/>
     <use xlink:href="#maee4bcc06b" x="198.185824" y="58.490654" style="fill: #ffac1e; stroke: #ffac1e; stroke-linejoin: bevel"/>
     <use xlink:href="#maee4bcc06b" x="203.34453" y="56.210331" style="fill: #ffac1e; stroke: #ffac1e; stroke-linejoin: bevel"/>
     <use xlink:href="#maee4bcc06b" x="208.503236" y="56.448996" style="fill: #ffac1e; stroke: #ffac1e; stroke-linejoin: bevel"/>
     <use xlink:href="#maee4bcc06b" x="213.661941" y="75.478197" style="fill: #ffac1e; stroke: #ffac1e; stroke-linejoin: bevel"/>
     <use xlink:href="#maee4bcc06b" x="218.820647" y="56.210313" style="fill: #ffac1e; stroke: #ffac1e; stroke-linejoin: bevel"/>
     <use xlink:href="#maee4bcc06b" x="223.979353" y="56.210313" style="fill: #ffac1e; stroke: #ffac1e; stroke-linejoin: bevel"/>
     <use xlink:href="#maee4bcc06b" x="229.138059" y="56.210313" style="fill: #ffac1e; stroke: #ffac1e; stroke-linejoin: bevel"/>
     <use xlink:href="#maee4bcc06b" x="234.296764" y="56.210313" style="fill: #ffac1e; stroke: #ffac1e; stroke-linejoin: bevel"/>
     <use xlink:href="#maee4bcc06b" x="239.45547" y="56.210313" style="fill: #ffac1e; stroke: #ffac1e; stroke-linejoin: bevel"/>
     <use xlink:href="#maee4bcc06b" x="244.614176" y="56.210313" style="fill: #ffac1e; stroke: #ffac1e; stroke-linejoin: bevel"/>
     <use xlink:href="#maee4bcc06b" x="249.772881" y="56.233985" style="fill: #ffac1e; stroke: #ffac1e; stroke-linejoin: bevel"/>
     <use xlink:href="#maee4bcc06b" x="254.931587" y="56.306655" style="fill: #ffac1e; stroke: #ffac1e; stroke-linejoin: bevel"/>
     <use xlink:href="#maee4bcc06b" x="260.090293" y="56.210313" style="fill: #ffac1e; stroke: #ffac1e; stroke-linejoin: bevel"/>
     <use xlink:href="#maee4bcc06b" x="265.248998" y="57.93563" style="fill: #ffac1e; stroke: #ffac1e; stroke-linejoin: bevel"/>
     <use xlink:href="#maee4bcc06b" x="270.407704" y="57.935645" style="fill: #ffac1e; stroke: #ffac1e; stroke-linejoin: bevel"/>
     <use xlink:href="#maee4bcc06b" x="275.56641" y="64.932506" style="fill: #ffac1e; stroke: #ffac1e; stroke-linejoin: bevel"/>
     <use xlink:href="#maee4bcc06b" x="280.725116" y="59.255859" style="fill: #ffac1e; stroke: #ffac1e; stroke-linejoin: bevel"/>
     <use xlink:href="#maee4bcc06b" x="285.883821" y="59.255859" style="fill: #ffac1e; stroke: #ffac1e; stroke-linejoin: bevel"/>
     <use xlink:href="#maee4bcc06b" x="291.042527" y="59.255842" style="fill: #ffac1e; stroke: #ffac1e; stroke-linejoin: bevel"/>
     <use xlink:href="#maee4bcc06b" x="296.201233" y="55.776795" style="fill: #ffac1e; stroke: #ffac1e; stroke-linejoin: bevel"/>
     <use xlink:href="#maee4bcc06b" x="301.359938" y="49.332114" style="fill: #ffac1e; stroke: #ffac1e; stroke-linejoin: bevel"/>
     <use xlink:href="#maee4bcc06b" x="306.518644" y="49.430595" style="fill: #ffac1e; stroke: #ffac1e; stroke-linejoin: bevel"/>
     <use xlink:href="#maee4bcc06b" x="311.67735" y="47.107104" style="fill: #ffac1e; stroke: #ffac1e; stroke-linejoin: bevel"/>
     <use xlink:href="#maee4bcc06b" x="316.836055" y="47.107104" style="fill: #ffac1e; stroke: #ffac1e; stroke-linejoin: bevel"/>
     <use xlink:href="#maee4bcc06b" x="321.994761" y="47.107104" style="fill: #ffac1e; stroke: #ffac1e; stroke-linejoin: bevel"/>
     <use xlink:href="#maee4bcc06b" x="327.153467" y="47.033235" style="fill: #ffac1e; stroke: #ffac1e; stroke-linejoin: bevel"/>
     <use xlink:href="#maee4bcc06b" x="332.312173" y="47.033235" style="fill: #ffac1e; stroke: #ffac1e; stroke-linejoin: bevel"/>
     <use xlink:href="#maee4bcc06b" x="337.470878" y="47.033235" style="fill: #ffac1e; stroke: #ffac1e; stroke-linejoin: bevel"/>
     <use xlink:href="#maee4bcc06b" x="342.629584" y="47.033235" style="fill: #ffac1e; stroke: #ffac1e; stroke-linejoin: bevel"/>
     <use xlink:href="#maee4bcc06b" x="347.78829" y="47.033235" style="fill: #ffac1e; stroke: #ffac1e; stroke-linejoin: bevel"/>
     <use xlink:href="#maee4bcc06b" x="352.946995" y="47.107104" style="fill: #ffac1e; stroke: #ffac1e; stroke-linejoin: bevel"/>
     <use xlink:href="#maee4bcc06b" x="358.105701" y="47.107104" style="fill: #ffac1e; stroke: #ffac1e; stroke-linejoin: bevel"/>
     <use xlink:href="#maee4bcc06b" x="363.264407" y="47.107104" style="fill: #ffac1e; stroke: #ffac1e; stroke-linejoin: bevel"/>
     <use xlink:href="#maee4bcc06b" x="368.423112" y="47.107104" style="fill: #ffac1e; stroke: #ffac1e; stroke-linejoin: bevel"/>
     <use xlink:href="#maee4bcc06b" x="373.581818" y="47.033235" style="fill: #ffac1e; stroke: #ffac1e; stroke-linejoin: bevel"/>
    </g>
   </g>
   <g id="patch_3">
    <path d="M 54 252 
L 54 34.56 
" style="fill: none; stroke: #000000; stroke-width: 0.8; stroke-linejoin: miter; stroke-linecap: square"/>
   </g>
   <g id="patch_4">
    <path d="M 388.8 252 
L 388.8 34.56 
" style="fill: none; stroke: #000000; stroke-width: 0.8; stroke-linejoin: miter; stroke-linecap: square"/>
   </g>
   <g id="patch_5">
    <path d="M 54 252 
L 388.8 252 
" style="fill: none; stroke: #000000; stroke-width: 0.8; stroke-linejoin: miter; stroke-linecap: square"/>
   </g>
   <g id="patch_6">
    <path d="M 54 34.56 
L 388.8 34.56 
" style="fill: none; stroke: #000000; stroke-width: 0.8; stroke-linejoin: miter; stroke-linecap: square"/>
   </g>
   <g id="text_17">
    <!-- ζ-R-max optimal policy with m = 3.0 -->
    <g transform="translate(111.87 28.56)scale(0.12 -0.12)">
     <defs>
      <path id="DejaVuSans-3b6" d="M 2231 397 
Q 2644 394 2891 159 
Q 3153 -88 3153 -463 
Q 3153 -822 2922 -1072 
Q 2672 -1344 2163 -1344 
Q 2163 -1109 2163 -872 
Q 2378 -888 2509 -750 
Q 2609 -641 2609 -525 
Q 2609 -359 2509 -222 
Q 2413 -91 2231 -91 
Q 338 -91 334 1669 
Q 334 3206 2119 4284 
L 456 4284 
L 456 4863 
L 3175 4863 
L 3175 4284 
Q 913 3147 913 1669 
Q 913 397 2231 397 
z
" transform="scale(0.015625)"/>
      <path id="DejaVuSans-2d" d="M 313 2009 
L 1997 2009 
L 1997 1497 
L 313 1497 
L 313 2009 
z
" transform="scale(0.015625)"/>
      <path id="DejaVuSans-52" d="M 2841 2188 
Q 3044 2119 3236 1894 
Q 3428 1669 3622 1275 
L 4263 0 
L 3584 0 
L 2988 1197 
Q 2756 1666 2539 1819 
Q 2322 1972 1947 1972 
L 1259 1972 
L 1259 0 
L 628 0 
L 628 4666 
L 2053 4666 
Q 2853 4666 3247 4331 
Q 3641 3997 3641 3322 
Q 3641 2881 3436 2590 
Q 3231 2300 2841 2188 
z
M 1259 4147 
L 1259 2491 
L 2053 2491 
Q 2509 2491 2742 2702 
Q 2975 2913 2975 3322 
Q 2975 3731 2742 3939 
Q 2509 4147 2053 4147 
L 1259 4147 
z
" transform="scale(0.015625)"/>
      <path id="DejaVuSans-6d" d="M 3328 2828 
Q 3544 3216 3844 3400 
Q 4144 3584 4550 3584 
Q 5097 3584 5394 3201 
Q 5691 2819 5691 2113 
L 5691 0 
L 5113 0 
L 5113 2094 
Q 5113 2597 4934 2840 
Q 4756 3084 4391 3084 
Q 3944 3084 3684 2787 
Q 3425 2491 3425 1978 
L 3425 0 
L 2847 0 
L 2847 2094 
Q 2847 2600 2669 2842 
Q 2491 3084 2119 3084 
Q 1678 3084 1418 2786 
Q 1159 2488 1159 1978 
L 1159 0 
L 581 0 
L 581 3500 
L 1159 3500 
L 1159 2956 
Q 1356 3278 1631 3431 
Q 1906 3584 2284 3584 
Q 2666 3584 2933 3390 
Q 3200 3197 3328 2828 
z
" transform="scale(0.015625)"/>
      <path id="DejaVuSans-78" d="M 3513 3500 
L 2247 1797 
L 3578 0 
L 2900 0 
L 1881 1375 
L 863 0 
L 184 0 
L 1544 1831 
L 300 3500 
L 978 3500 
L 1906 2253 
L 2834 3500 
L 3513 3500 
z
" transform="scale(0.015625)"/>
      <path id="DejaVuSans-77" d="M 269 3500 
L 844 3500 
L 1563 769 
L 2278 3500 
L 2956 3500 
L 3675 769 
L 4391 3500 
L 4966 3500 
L 4050 0 
L 3372 0 
L 2619 2869 
L 1863 0 
L 1184 0 
L 269 3500 
z
" transform="scale(0.015625)"/>
      <path id="DejaVuSans-68" d="M 3513 2113 
L 3513 0 
L 2938 0 
L 2938 2094 
Q 2938 2591 2744 2837 
Q 2550 3084 2163 3084 
Q 1697 3084 1428 2787 
Q 1159 2491 1159 1978 
L 1159 0 
L 581 0 
L 581 4863 
L 1159 4863 
L 1159 2956 
Q 1366 3272 1645 3428 
Q 1925 3584 2291 3584 
Q 2894 3584 3203 3211 
Q 3513 2838 3513 2113 
z
" transform="scale(0.015625)"/>
      <path id="DejaVuSans-3d" d="M 678 2906 
L 4684 2906 
L 4684 2381 
L 678 2381 
L 678 2906 
z
M 678 1631 
L 4684 1631 
L 4684 1100 
L 678 1100 
L 678 1631 
z
" transform="scale(0.015625)"/>
      <path id="DejaVuSans-2e" d="M 684 794 
L 1344 794 
L 1344 0 
L 684 0 
L 684 794 
z
" transform="scale(0.015625)"/>
     </defs>
     <use xlink:href="#DejaVuSans-3b6"/>
     <use xlink:href="#DejaVuSans-2d" x="54.394531"/>
     <use xlink:href="#DejaVuSans-52" x="90.478516"/>
     <use xlink:href="#DejaVuSans-2d" x="155.960938"/>
     <use xlink:href="#DejaVuSans-6d" x="192.044922"/>
     <use xlink:href="#DejaVuSans-61" x="289.457031"/>
     <use xlink:href="#DejaVuSans-78" x="350.736328"/>
     <use xlink:href="#DejaVuSans-20" x="409.916016"/>
     <use xlink:href="#DejaVuSans-6f" x="441.703125"/>
     <use xlink:href="#DejaVuSans-70" x="502.884766"/>
     <use xlink:href="#DejaVuSans-74" x="566.361328"/>
     <use xlink:href="#DejaVuSans-69" x="605.570312"/>
     <use xlink:href="#DejaVuSans-6d" x="633.353516"/>
     <use xlink:href="#DejaVuSans-61" x="730.765625"/>
     <use xlink:href="#DejaVuSans-6c" x="792.044922"/>
     <use xlink:href="#DejaVuSans-20" x="819.828125"/>
     <use xlink:href="#DejaVuSans-70" x="851.615234"/>
     <use xlink:href="#DejaVuSans-6f" x="915.091797"/>
     <use xlink:href="#DejaVuSans-6c" x="976.273438"/>
     <use xlink:href="#DejaVuSans-69" x="1004.056641"/>
     <use xlink:href="#DejaVuSans-63" x="1031.839844"/>
     <use xlink:href="#DejaVuSans-79" x="1086.820312"/>
     <use xlink:href="#DejaVuSans-20" x="1146"/>
     <use xlink:href="#DejaVuSans-77" x="1177.787109"/>
     <use xlink:href="#DejaVuSans-69" x="1259.574219"/>
     <use xlink:href="#DejaVuSans-74" x="1287.357422"/>
     <use xlink:href="#DejaVuSans-68" x="1326.566406"/>
     <use xlink:href="#DejaVuSans-20" x="1389.945312"/>
     <use xlink:href="#DejaVuSans-6d" x="1421.732422"/>
     <use xlink:href="#DejaVuSans-20" x="1519.144531"/>
     <use xlink:href="#DejaVuSans-3d" x="1550.931641"/>
     <use xlink:href="#DejaVuSans-20" x="1634.720703"/>
     <use xlink:href="#DejaVuSans-33" x="1666.507812"/>
     <use xlink:href="#DejaVuSans-2e" x="1730.130859"/>
     <use xlink:href="#DejaVuSans-30" x="1761.917969"/>
    </g>
   </g>
   <g id="legend_1">
    <g id="patch_7">
     <path d="M 61 101.2725 
L 145.003125 101.2725 
Q 147.003125 101.2725 147.003125 99.2725 
L 147.003125 41.56 
Q 147.003125 39.56 145.003125 39.56 
L 61 39.56 
Q 59 39.56 59 41.56 
L 59 99.2725 
Q 59 101.2725 61 101.2725 
z
" style="fill: #ffffff; opacity: 0.8; stroke: #cccccc; stroke-linejoin: miter"/>
    </g>
    <g id="line2d_33">
     <path d="M 63 47.658437 
L 73 47.658437 
L 83 47.658437 
" style="fill: none; stroke: #9d02d7; stroke-width: 1.5; stroke-linecap: square"/>
     <g>
      <use xlink:href="#mca9774cff4" x="73" y="47.658437" style="fill: #9d02d7; stroke: #9d02d7; stroke-linejoin: miter"/>
     </g>
    </g>
    <g id="text_18">
     <!-- alpha=2.5 -->
     <g transform="translate(91 51.158437)scale(0.1 -0.1)">
      <use xlink:href="#DejaVuSans-61"/>
      <use xlink:href="#DejaVuSans-6c" x="61.279297"/>
      <use xlink:href="#DejaVuSans-70" x="89.0625"/>
      <use xlink:href="#DejaVuSans-68" x="152.539062"/>
      <use xlink:href="#DejaVuSans-61" x="215.917969"/>
      <use xlink:href="#DejaVuSans-3d" x="277.197266"/>
      <use xlink:href="#DejaVuSans-32" x="360.986328"/>
      <use xlink:href="#DejaVuSans-2e" x="424.609375"/>
      <use xlink:href="#DejaVuSans-35" x="456.396484"/>
     </g>
    </g>
    <g id="line2d_34">
     <path d="M 63 62.336562 
L 73 62.336562 
L 83 62.336562 
" style="fill: none; stroke: #0000ff; stroke-width: 1.5; stroke-linecap: square"/>
     <g>
      <use xlink:href="#m869381486e" x="73" y="62.336562" style="fill: #0000ff; stroke: #0000ff"/>
     </g>
    </g>
    <g id="text_19">
     <!-- alpha=3.0 -->
     <g transform="translate(91 65.836562)scale(0.1 -0.1)">
      <use xlink:href="#DejaVuSans-61"/>
      <use xlink:href="#DejaVuSans-6c" x="61.279297"/>
      <use xlink:href="#DejaVuSans-70" x="89.0625"/>
      <use xlink:href="#DejaVuSans-68" x="152.539062"/>
      <use xlink:href="#DejaVuSans-61" x="215.917969"/>
      <use xlink:href="#DejaVuSans-3d" x="277.197266"/>
      <use xlink:href="#DejaVuSans-33" x="360.986328"/>
      <use xlink:href="#DejaVuSans-2e" x="424.609375"/>
      <use xlink:href="#DejaVuSans-30" x="456.396484"/>
     </g>
    </g>
    <g id="line2d_35">
     <path d="M 63 77.014687 
L 73 77.014687 
L 83 77.014687 
" style="fill: none; stroke: #ff7763; stroke-width: 1.5; stroke-linecap: square"/>
     <g>
      <use xlink:href="#m7d6a535f5a" x="73" y="77.014687" style="fill: #ff7763; stroke: #ff7763"/>
     </g>
    </g>
    <g id="text_20">
     <!-- alpha=3.5 -->
     <g transform="translate(91 80.514687)scale(0.1 -0.1)">
      <use xlink:href="#DejaVuSans-61"/>
      <use xlink:href="#DejaVuSans-6c" x="61.279297"/>
      <use xlink:href="#DejaVuSans-70" x="89.0625"/>
      <use xlink:href="#DejaVuSans-68" x="152.539062"/>
      <use xlink:href="#DejaVuSans-61" x="215.917969"/>
      <use xlink:href="#DejaVuSans-3d" x="277.197266"/>
      <use xlink:href="#DejaVuSans-33" x="360.986328"/>
      <use xlink:href="#DejaVuSans-2e" x="424.609375"/>
      <use xlink:href="#DejaVuSans-35" x="456.396484"/>
     </g>
    </g>
    <g id="line2d_36">
     <path d="M 63 91.692813 
L 73 91.692813 
L 83 91.692813 
" style="fill: none; stroke: #ffac1e; stroke-width: 1.5; stroke-linecap: square"/>
     <g>
      <use xlink:href="#maee4bcc06b" x="73" y="91.692813" style="fill: #ffac1e; stroke: #ffac1e; stroke-linejoin: bevel"/>
     </g>
    </g>
    <g id="text_21">
     <!-- alpha=4.0 -->
     <g transform="translate(91 95.192813)scale(0.1 -0.1)">
      <use xlink:href="#DejaVuSans-61"/>
      <use xlink:href="#DejaVuSans-6c" x="61.279297"/>
      <use xlink:href="#DejaVuSans-70" x="89.0625"/>
      <use xlink:href="#DejaVuSans-68" x="152.539062"/>
      <use xlink:href="#DejaVuSans-61" x="215.917969"/>
      <use xlink:href="#DejaVuSans-3d" x="277.197266"/>
      <use xlink:href="#DejaVuSans-34" x="360.986328"/>
      <use xlink:href="#DejaVuSans-2e" x="424.609375"/>
      <use xlink:href="#DejaVuSans-30" x="456.396484"/>
     </g>
    </g>
   </g>
  </g>
 </g>
 <defs>
  <clipPath id="p21c63c2cfd">
   <rect x="54" y="34.56" width="334.8" height="217.44"/>
  </clipPath>
 </defs>
</svg>
