<?xml version="1.0" encoding="utf-8" standalone="no"?>
<!DOCTYPE svg PUBLIC "-//W3C//DTD SVG 1.1//EN"
  "http://www.w3.org/Graphics/SVG/1.1/DTD/svg11.dtd">
<svg xmlns:xlink="http://www.w3.org/1999/xlink" width="432pt" height="288pt" viewBox="0 0 432 288" xmlns="http://www.w3.org/2000/svg" version="1.1">
 <metadata>
  <rdf:RDF xmlns:dc="http://purl.org/dc/elements/1.1/" xmlns:cc="http://creativecommons.org/ns#" xmlns:rdf="http://www.w3.org/1999/02/22-rdf-syntax-ns#">
   <cc:Work>
    <dc:type rdf:resource="http://purl.org/dc/dcmitype/StillImage"/>
    <dc:date>2023-01-11T15:36:36.296817</dc:date>
    <dc:format>image/svg+xml</dc:format>
    <dc:creator>
     <cc:Agent>
      <dc:title>Matplotlib v3.5.2, https://matplotlib.org/</dc:title>
     </cc:Agent>
    </dc:creator>
   </cc:Work>
  </rdf:RDF>
 </metadata>
 <defs>
  <style type="text/css">*{stroke-linejoin: round; stroke-linecap: butt}</style>
 </defs>
 <g id="figure_1">
  <g id="patch_1">
   <path d="M 0 288 
L 432 288 
L 432 0 
L 0 0 
z
" style="fill: #ffffff"/>
  </g>
  <g id="axes_1">
   <g id="patch_2">
    <path d="M 54 252 
L 388.8 252 
L 388.8 34.56 
L 54 34.56 
z
" style="fill: #ffffff"/>
   </g>
   <g id="PolyCollection_1">
    <defs>
     <path id="m35824415c6" d="M 69.218182 -25.918952 
L 69.218182 -25.918952 
L 74.376888 -35.091182 
L 79.535593 -32.657658 
L 84.694299 -35.032321 
L 89.853005 -33.374768 
L 95.01171 -35.091182 
L 100.170416 -34.583751 
L 105.329122 -35.091182 
L 110.487827 -35.008391 
L 115.646533 -36.957954 
L 120.805239 -35.107091 
L 125.963945 -35.091182 
L 131.12265 -30.230025 
L 136.281356 -38.628059 
L 141.440062 -47.214426 
L 146.598767 -63.510998 
L 151.757473 -125.454507 
L 156.916179 -124.743309 
L 162.074884 -157.476917 
L 167.23359 -61.304322 
L 172.392296 -60.980543 
L 177.551002 -62.719176 
L 182.709707 -167.899994 
L 187.868413 -164.340382 
L 193.027119 -164.340382 
L 198.185824 -164.343009 
L 203.34453 -164.343009 
L 208.503236 -166.736335 
L 213.661941 -160.669828 
L 218.820647 -160.669828 
L 223.979353 -160.669828 
L 229.138059 -159.713994 
L 234.296764 -173.666896 
L 239.45547 -155.427652 
L 244.614176 -155.427652 
L 249.772881 -155.427652 
L 254.931587 -244.933613 
L 260.090293 -244.933613 
L 265.248998 -244.933613 
L 270.407704 -244.933613 
L 275.56641 -244.933613 
L 280.725116 -244.674237 
L 285.883821 -244.675381 
L 291.042527 -244.675381 
L 296.201233 -244.675381 
L 301.359938 -244.675381 
L 306.518644 -244.675381 
L 311.67735 -244.675381 
L 316.836055 -244.675381 
L 321.994761 -244.675381 
L 327.153467 -244.675381 
L 332.312173 -244.675381 
L 337.470878 -244.675381 
L 342.629584 -244.675381 
L 347.78829 -244.675381 
L 352.946995 -244.675381 
L 358.105701 -244.675381 
L 363.264407 -244.675381 
L 368.423112 -244.675381 
L 373.581818 -244.675381 
L 373.581818 -244.675381 
L 373.581818 -244.675381 
L 368.423112 -244.675381 
L 363.264407 -244.675381 
L 358.105701 -244.675381 
L 352.946995 -244.675381 
L 347.78829 -244.675381 
L 342.629584 -244.675381 
L 337.470878 -244.675381 
L 332.312173 -244.675381 
L 327.153467 -244.675381 
L 321.994761 -244.675381 
L 316.836055 -244.675381 
L 311.67735 -244.675381 
L 306.518644 -244.675381 
L 301.359938 -244.675381 
L 296.201233 -244.675381 
L 291.042527 -244.675381 
L 285.883821 -244.675381 
L 280.725116 -244.674237 
L 275.56641 -244.933613 
L 270.407704 -244.933613 
L 265.248998 -244.933613 
L 260.090293 -244.933613 
L 254.931587 -244.933613 
L 249.772881 -155.427652 
L 244.614176 -155.427652 
L 239.45547 -155.427652 
L 234.296764 -173.666896 
L 229.138059 -159.713994 
L 223.979353 -160.669828 
L 218.820647 -160.669828 
L 213.661941 -160.669828 
L 208.503236 -166.736335 
L 203.34453 -164.343009 
L 198.185824 -164.343009 
L 193.027119 -164.340382 
L 187.868413 -164.340382 
L 182.709707 -167.899994 
L 177.551002 -62.719176 
L 172.392296 -60.980543 
L 167.23359 -61.304322 
L 162.074884 -157.476917 
L 156.916179 -124.743309 
L 151.757473 -125.454507 
L 146.598767 -63.510998 
L 141.440062 -47.214426 
L 136.281356 -38.628059 
L 131.12265 -30.230025 
L 125.963945 -35.091182 
L 120.805239 -35.107091 
L 115.646533 -36.957954 
L 110.487827 -35.008391 
L 105.329122 -35.091182 
L 100.170416 -34.583751 
L 95.01171 -35.091182 
L 89.853005 -33.374768 
L 84.694299 -35.032321 
L 79.535593 -32.657658 
L 74.376888 -35.091182 
L 69.218182 -25.918952 
z
" style="stroke: #9d02d7; stroke-opacity: 0.2"/>
    </defs>
    <g clip-path="url(#pe88fa055cd)">
     <use xlink:href="#m35824415c6" x="0" y="288" style="fill: #9d02d7; fill-opacity: 0.2; stroke: #9d02d7; stroke-opacity: 0.2"/>
    </g>
   </g>
   <g id="PolyCollection_2">
    <defs>
     <path id="m0e5051b9f3" d="M 69.218182 -32.112248 
L 69.218182 -32.112248 
L 74.376888 -35.091182 
L 79.535593 -45.821977 
L 84.694299 -41.608817 
L 89.853005 -41.171107 
L 95.01171 -35.60574 
L 100.170416 -35.754287 
L 105.329122 -35.495232 
L 110.487827 -38.510124 
L 115.646533 -38.917601 
L 120.805239 -41.024567 
L 125.963945 -39.73656 
L 131.12265 -40.986374 
L 136.281356 -30.986816 
L 141.440062 -41.819244 
L 146.598767 -42.648974 
L 151.757473 -43.397184 
L 156.916179 -36.293096 
L 162.074884 -36.292784 
L 167.23359 -41.408734 
L 172.392296 -41.583992 
L 177.551002 -43.945891 
L 182.709707 -41.583998 
L 187.868413 -34.215844 
L 193.027119 -41.690364 
L 198.185824 -42.280845 
L 203.34453 -46.485177 
L 208.503236 -46.484582 
L 213.661941 -43.0886 
L 218.820647 -42.049299 
L 223.979353 -42.199407 
L 229.138059 -41.720478 
L 234.296764 -43.2121 
L 239.45547 -47.121481 
L 244.614176 -46.933582 
L 249.772881 -47.121481 
L 254.931587 -47.12196 
L 260.090293 -47.12196 
L 265.248998 -67.346103 
L 270.407704 -67.343924 
L 275.56641 -67.671729 
L 280.725116 -67.722661 
L 285.883821 -67.722661 
L 291.042527 -67.767351 
L 296.201233 -67.343924 
L 301.359938 -67.783925 
L 306.518644 -241.846693 
L 311.67735 -244.180422 
L 316.836055 -244.180422 
L 321.994761 -244.180577 
L 327.153467 -244.180577 
L 332.312173 -244.180577 
L 337.470878 -244.180577 
L 342.629584 -244.180577 
L 347.78829 -244.180577 
L 352.946995 -244.180577 
L 358.105701 -244.180577 
L 363.264407 -244.180577 
L 368.423112 -244.180577 
L 373.581818 -244.180577 
L 373.581818 -244.180577 
L 373.581818 -244.180577 
L 368.423112 -244.180577 
L 363.264407 -244.180577 
L 358.105701 -244.180577 
L 352.946995 -244.180577 
L 347.78829 -244.180577 
L 342.629584 -244.180577 
L 337.470878 -244.180577 
L 332.312173 -244.180577 
L 327.153467 -244.180577 
L 321.994761 -244.180577 
L 316.836055 -244.180422 
L 311.67735 -244.180422 
L 306.518644 -241.846693 
L 301.359938 -67.783925 
L 296.201233 -67.343924 
L 291.042527 -67.767351 
L 285.883821 -67.722661 
L 280.725116 -67.722661 
L 275.56641 -67.671729 
L 270.407704 -67.343924 
L 265.248998 -67.346103 
L 260.090293 -47.12196 
L 254.931587 -47.12196 
L 249.772881 -47.121481 
L 244.614176 -46.933582 
L 239.45547 -47.121481 
L 234.296764 -43.2121 
L 229.138059 -41.720478 
L 223.979353 -42.199407 
L 218.820647 -42.049299 
L 213.661941 -43.0886 
L 208.503236 -46.484582 
L 203.34453 -46.485177 
L 198.185824 -42.280845 
L 193.027119 -41.690364 
L 187.868413 -34.215844 
L 182.709707 -41.583998 
L 177.551002 -43.945891 
L 172.392296 -41.583992 
L 167.23359 -41.408734 
L 162.074884 -36.292784 
L 156.916179 -36.293096 
L 151.757473 -43.397184 
L 146.598767 -42.648974 
L 141.440062 -41.819244 
L 136.281356 -30.986816 
L 131.12265 -40.986374 
L 125.963945 -39.73656 
L 120.805239 -41.024567 
L 115.646533 -38.917601 
L 110.487827 -38.510124 
L 105.329122 -35.495232 
L 100.170416 -35.754287 
L 95.01171 -35.60574 
L 89.853005 -41.171107 
L 84.694299 -41.608817 
L 79.535593 -45.821977 
L 74.376888 -35.091182 
L 69.218182 -32.112248 
z
" style="stroke: #0000ff; stroke-opacity: 0.2"/>
    </defs>
    <g clip-path="url(#pe88fa055cd)">
     <use xlink:href="#m0e5051b9f3" x="0" y="288" style="fill: #0000ff; fill-opacity: 0.2; stroke: #0000ff; stroke-opacity: 0.2"/>
    </g>
   </g>
   <g id="PolyCollection_3">
    <defs>
     <path id="mde34d91880" d="M 69.218182 -34.430601 
L 69.218182 -34.430601 
L 74.376888 -35.083399 
L 79.535593 -120.903817 
L 84.694299 -108.95255 
L 89.853005 -79.834673 
L 95.01171 -103.818196 
L 100.170416 -165.21314 
L 105.329122 -65.500549 
L 110.487827 -97.034483 
L 115.646533 -64.148103 
L 120.805239 -62.74326 
L 125.963945 -53.482056 
L 131.12265 -127.425796 
L 136.281356 -44.952988 
L 141.440062 -140.255282 
L 146.598767 -146.932413 
L 151.757473 -190.265831 
L 156.916179 -108.812343 
L 162.074884 -133.749574 
L 167.23359 -132.990922 
L 172.392296 -164.953583 
L 177.551002 -148.719234 
L 182.709707 -133.411402 
L 187.868413 -151.760299 
L 193.027119 -188.844541 
L 198.185824 -151.962546 
L 203.34453 -192.557474 
L 208.503236 -192.557474 
L 213.661941 -240.858364 
L 218.820647 -240.851303 
L 223.979353 -241.41074 
L 229.138059 -241.41074 
L 234.296764 -243.15961 
L 239.45547 -241.411725 
L 244.614176 -240.851811 
L 249.772881 -244.18325 
L 254.931587 -244.18441 
L 260.090293 -244.18441 
L 265.248998 -244.548865 
L 270.407704 -244.54471 
L 275.56641 -215.178774 
L 280.725116 -215.182185 
L 285.883821 -241.0417 
L 291.042527 -241.698833 
L 296.201233 -241.698833 
L 301.359938 -241.69899 
L 306.518644 -244.677286 
L 311.67735 -244.677286 
L 316.836055 -244.677286 
L 321.994761 -244.677286 
L 327.153467 -244.677286 
L 332.312173 -244.677286 
L 337.470878 -244.677599 
L 342.629584 -244.677599 
L 347.78829 -244.677326 
L 352.946995 -244.675281 
L 358.105701 -244.675281 
L 363.264407 -244.675281 
L 368.423112 -244.677326 
L 373.581818 -244.675281 
L 373.581818 -244.675281 
L 373.581818 -244.675281 
L 368.423112 -244.677326 
L 363.264407 -244.675281 
L 358.105701 -244.675281 
L 352.946995 -244.675281 
L 347.78829 -244.677326 
L 342.629584 -244.677599 
L 337.470878 -244.677599 
L 332.312173 -244.677286 
L 327.153467 -244.677286 
L 321.994761 -244.677286 
L 316.836055 -244.677286 
L 311.67735 -244.677286 
L 306.518644 -244.677286 
L 301.359938 -241.69899 
L 296.201233 -241.698833 
L 291.042527 -241.698833 
L 285.883821 -241.0417 
L 280.725116 -215.182185 
L 275.56641 -215.178774 
L 270.407704 -244.54471 
L 265.248998 -244.548865 
L 260.090293 -244.18441 
L 254.931587 -244.18441 
L 249.772881 -244.18325 
L 244.614176 -240.851811 
L 239.45547 -241.411725 
L 234.296764 -243.15961 
L 229.138059 -241.41074 
L 223.979353 -241.41074 
L 218.820647 -240.851303 
L 213.661941 -240.858364 
L 208.503236 -192.557474 
L 203.34453 -192.557474 
L 198.185824 -151.962546 
L 193.027119 -188.844541 
L 187.868413 -151.760299 
L 182.709707 -133.411402 
L 177.551002 -148.719234 
L 172.392296 -164.953583 
L 167.23359 -132.990922 
L 162.074884 -133.749574 
L 156.916179 -108.812343 
L 151.757473 -190.265831 
L 146.598767 -146.932413 
L 141.440062 -140.255282 
L 136.281356 -44.952988 
L 131.12265 -127.425796 
L 125.963945 -53.482056 
L 120.805239 -62.74326 
L 115.646533 -64.148103 
L 110.487827 -97.034483 
L 105.329122 -65.500549 
L 100.170416 -165.21314 
L 95.01171 -103.818196 
L 89.853005 -79.834673 
L 84.694299 -108.95255 
L 79.535593 -120.903817 
L 74.376888 -35.083399 
L 69.218182 -34.430601 
z
" style="stroke: #ff7763; stroke-opacity: 0.2"/>
    </defs>
    <g clip-path="url(#pe88fa055cd)">
     <use xlink:href="#mde34d91880" x="0" y="288" style="fill: #ff7763; fill-opacity: 0.2; stroke: #ff7763; stroke-opacity: 0.2"/>
    </g>
   </g>
   <g id="PolyCollection_4">
    <defs>
     <path id="m180a32825f" d="M 69.218182 -31.188202 
L 69.218182 -31.188202 
L 74.376888 -35.084102 
L 79.535593 -35.091182 
L 84.694299 -34.163855 
L 89.853005 -31.800811 
L 95.01171 -34.074256 
L 100.170416 -35.063001 
L 105.329122 -35.091182 
L 110.487827 -34.957338 
L 115.646533 -31.953281 
L 120.805239 -34.209648 
L 125.963945 -35.091182 
L 131.12265 -34.571865 
L 136.281356 -25.314154 
L 141.440062 -34.619056 
L 146.598767 -25.16905 
L 151.757473 -29.739231 
L 156.916179 -33.462445 
L 162.074884 -31.210023 
L 167.23359 -35.00884 
L 172.392296 -34.391187 
L 177.551002 -35.091182 
L 182.709707 -35.061613 
L 187.868413 -25.02905 
L 193.027119 -33.518341 
L 198.185824 -35.018526 
L 203.34453 -35.057206 
L 208.503236 -34.971215 
L 213.661941 -35.067744 
L 218.820647 -107.583099 
L 223.979353 -34.379676 
L 229.138059 -35.062008 
L 234.296764 -35.078071 
L 239.45547 -34.977337 
L 244.614176 -32.610806 
L 249.772881 -34.714297 
L 254.931587 -35.566254 
L 260.090293 -36.717876 
L 265.248998 -62.146574 
L 270.407704 -41.087403 
L 275.56641 -48.572378 
L 280.725116 -54.287607 
L 285.883821 -80.737153 
L 291.042527 -53.245092 
L 296.201233 -71.033944 
L 301.359938 -95.381886 
L 306.518644 -92.368608 
L 311.67735 -92.646342 
L 316.836055 -165.023814 
L 321.994761 -187.723026 
L 327.153467 -208.72484 
L 332.312173 -234.966619 
L 337.470878 -234.9675 
L 342.629584 -234.823744 
L 347.78829 -223.0768 
L 352.946995 -222.443558 
L 358.105701 -222.443558 
L 363.264407 -222.443558 
L 368.423112 -222.683584 
L 373.581818 -222.684974 
L 373.581818 -222.684974 
L 373.581818 -222.684974 
L 368.423112 -222.683584 
L 363.264407 -222.443558 
L 358.105701 -222.443558 
L 352.946995 -222.443558 
L 347.78829 -223.0768 
L 342.629584 -234.823744 
L 337.470878 -234.9675 
L 332.312173 -234.966619 
L 327.153467 -208.72484 
L 321.994761 -187.723026 
L 316.836055 -165.023814 
L 311.67735 -92.646342 
L 306.518644 -92.368608 
L 301.359938 -95.381886 
L 296.201233 -71.033944 
L 291.042527 -53.245092 
L 285.883821 -80.737153 
L 280.725116 -54.287607 
L 275.56641 -48.572378 
L 270.407704 -41.087403 
L 265.248998 -62.146574 
L 260.090293 -36.717876 
L 254.931587 -35.566254 
L 249.772881 -34.714297 
L 244.614176 -32.610806 
L 239.45547 -34.977337 
L 234.296764 -35.078071 
L 229.138059 -35.062008 
L 223.979353 -34.379676 
L 218.820647 -107.583099 
L 213.661941 -35.067744 
L 208.503236 -34.971215 
L 203.34453 -35.057206 
L 198.185824 -35.018526 
L 193.027119 -33.518341 
L 187.868413 -25.02905 
L 182.709707 -35.061613 
L 177.551002 -35.091182 
L 172.392296 -34.391187 
L 167.23359 -35.00884 
L 162.074884 -31.210023 
L 156.916179 -33.462445 
L 151.757473 -29.739231 
L 146.598767 -25.16905 
L 141.440062 -34.619056 
L 136.281356 -25.314154 
L 131.12265 -34.571865 
L 125.963945 -35.091182 
L 120.805239 -34.209648 
L 115.646533 -31.953281 
L 110.487827 -34.957338 
L 105.329122 -35.091182 
L 100.170416 -35.063001 
L 95.01171 -34.074256 
L 89.853005 -31.800811 
L 84.694299 -34.163855 
L 79.535593 -35.091182 
L 74.376888 -35.084102 
L 69.218182 -31.188202 
z
" style="stroke: #ffac1e; stroke-opacity: 0.2"/>
    </defs>
    <g clip-path="url(#pe88fa055cd)">
     <use xlink:href="#m180a32825f" x="0" y="288" style="fill: #ffac1e; fill-opacity: 0.2; stroke: #ffac1e; stroke-opacity: 0.2"/>
    </g>
   </g>
   <g id="matplotlib.axis_1">
    <g id="xtick_1">
     <g id="line2d_1">
      <path d="M 69.218182 252 
L 69.218182 34.56 
" clip-path="url(#pe88fa055cd)" style="fill: none; stroke-dasharray: 2.96,1.28; stroke-dashoffset: 0; stroke: #b0b0b0; stroke-width: 0.8"/>
     </g>
     <g id="line2d_2">
      <defs>
       <path id="maa980ea968" d="M 0 0 
L 0 3.5 
" style="stroke: #000000; stroke-width: 0.8"/>
      </defs>
      <g>
       <use xlink:href="#maa980ea968" x="69.218182" y="252" style="stroke: #000000; stroke-width: 0.8"/>
      </g>
     </g>
     <g id="text_1">
      <!-- 0 -->
      <g transform="translate(66.036932 266.598437)scale(0.1 -0.1)">
       <defs>
        <path id="DejaVuSans-30" d="M 2034 4250 
Q 1547 4250 1301 3770 
Q 1056 3291 1056 2328 
Q 1056 1369 1301 889 
Q 1547 409 2034 409 
Q 2525 409 2770 889 
Q 3016 1369 3016 2328 
Q 3016 3291 2770 3770 
Q 2525 4250 2034 4250 
z
M 2034 4750 
Q 2819 4750 3233 4129 
Q 3647 3509 3647 2328 
Q 3647 1150 3233 529 
Q 2819 -91 2034 -91 
Q 1250 -91 836 529 
Q 422 1150 422 2328 
Q 422 3509 836 4129 
Q 1250 4750 2034 4750 
z
" transform="scale(0.015625)"/>
       </defs>
       <use xlink:href="#DejaVuSans-30"/>
      </g>
     </g>
    </g>
    <g id="xtick_2">
     <g id="line2d_3">
      <path d="M 120.805239 252 
L 120.805239 34.56 
" clip-path="url(#pe88fa055cd)" style="fill: none; stroke-dasharray: 2.96,1.28; stroke-dashoffset: 0; stroke: #b0b0b0; stroke-width: 0.8"/>
     </g>
     <g id="line2d_4">
      <g>
       <use xlink:href="#maa980ea968" x="120.805239" y="252" style="stroke: #000000; stroke-width: 0.8"/>
      </g>
     </g>
     <g id="text_2">
      <!-- 500 -->
      <g transform="translate(111.261489 266.598437)scale(0.1 -0.1)">
       <defs>
        <path id="DejaVuSans-35" d="M 691 4666 
L 3169 4666 
L 3169 4134 
L 1269 4134 
L 1269 2991 
Q 1406 3038 1543 3061 
Q 1681 3084 1819 3084 
Q 2600 3084 3056 2656 
Q 3513 2228 3513 1497 
Q 3513 744 3044 326 
Q 2575 -91 1722 -91 
Q 1428 -91 1123 -41 
Q 819 9 494 109 
L 494 744 
Q 775 591 1075 516 
Q 1375 441 1709 441 
Q 2250 441 2565 725 
Q 2881 1009 2881 1497 
Q 2881 1984 2565 2268 
Q 2250 2553 1709 2553 
Q 1456 2553 1204 2497 
Q 953 2441 691 2322 
L 691 4666 
z
" transform="scale(0.015625)"/>
       </defs>
       <use xlink:href="#DejaVuSans-35"/>
       <use xlink:href="#DejaVuSans-30" x="63.623047"/>
       <use xlink:href="#DejaVuSans-30" x="127.246094"/>
      </g>
     </g>
    </g>
    <g id="xtick_3">
     <g id="line2d_5">
      <path d="M 172.392296 252 
L 172.392296 34.56 
" clip-path="url(#pe88fa055cd)" style="fill: none; stroke-dasharray: 2.96,1.28; stroke-dashoffset: 0; stroke: #b0b0b0; stroke-width: 0.8"/>
     </g>
     <g id="line2d_6">
      <g>
       <use xlink:href="#maa980ea968" x="172.392296" y="252" style="stroke: #000000; stroke-width: 0.8"/>
      </g>
     </g>
     <g id="text_3">
      <!-- 1000 -->
      <g transform="translate(159.667296 266.598437)scale(0.1 -0.1)">
       <defs>
        <path id="DejaVuSans-31" d="M 794 531 
L 1825 531 
L 1825 4091 
L 703 3866 
L 703 4441 
L 1819 4666 
L 2450 4666 
L 2450 531 
L 3481 531 
L 3481 0 
L 794 0 
L 794 531 
z
" transform="scale(0.015625)"/>
       </defs>
       <use xlink:href="#DejaVuSans-31"/>
       <use xlink:href="#DejaVuSans-30" x="63.623047"/>
       <use xlink:href="#DejaVuSans-30" x="127.246094"/>
       <use xlink:href="#DejaVuSans-30" x="190.869141"/>
      </g>
     </g>
    </g>
    <g id="xtick_4">
     <g id="line2d_7">
      <path d="M 223.979353 252 
L 223.979353 34.56 
" clip-path="url(#pe88fa055cd)" style="fill: none; stroke-dasharray: 2.96,1.28; stroke-dashoffset: 0; stroke: #b0b0b0; stroke-width: 0.8"/>
     </g>
     <g id="line2d_8">
      <g>
       <use xlink:href="#maa980ea968" x="223.979353" y="252" style="stroke: #000000; stroke-width: 0.8"/>
      </g>
     </g>
     <g id="text_4">
      <!-- 1500 -->
      <g transform="translate(211.254353 266.598437)scale(0.1 -0.1)">
       <use xlink:href="#DejaVuSans-31"/>
       <use xlink:href="#DejaVuSans-35" x="63.623047"/>
       <use xlink:href="#DejaVuSans-30" x="127.246094"/>
       <use xlink:href="#DejaVuSans-30" x="190.869141"/>
      </g>
     </g>
    </g>
    <g id="xtick_5">
     <g id="line2d_9">
      <path d="M 275.56641 252 
L 275.56641 34.56 
" clip-path="url(#pe88fa055cd)" style="fill: none; stroke-dasharray: 2.96,1.28; stroke-dashoffset: 0; stroke: #b0b0b0; stroke-width: 0.8"/>
     </g>
     <g id="line2d_10">
      <g>
       <use xlink:href="#maa980ea968" x="275.56641" y="252" style="stroke: #000000; stroke-width: 0.8"/>
      </g>
     </g>
     <g id="text_5">
      <!-- 2000 -->
      <g transform="translate(262.84141 266.598437)scale(0.1 -0.1)">
       <defs>
        <path id="DejaVuSans-32" d="M 1228 531 
L 3431 531 
L 3431 0 
L 469 0 
L 469 531 
Q 828 903 1448 1529 
Q 2069 2156 2228 2338 
Q 2531 2678 2651 2914 
Q 2772 3150 2772 3378 
Q 2772 3750 2511 3984 
Q 2250 4219 1831 4219 
Q 1534 4219 1204 4116 
Q 875 4013 500 3803 
L 500 4441 
Q 881 4594 1212 4672 
Q 1544 4750 1819 4750 
Q 2544 4750 2975 4387 
Q 3406 4025 3406 3419 
Q 3406 3131 3298 2873 
Q 3191 2616 2906 2266 
Q 2828 2175 2409 1742 
Q 1991 1309 1228 531 
z
" transform="scale(0.015625)"/>
       </defs>
       <use xlink:href="#DejaVuSans-32"/>
       <use xlink:href="#DejaVuSans-30" x="63.623047"/>
       <use xlink:href="#DejaVuSans-30" x="127.246094"/>
       <use xlink:href="#DejaVuSans-30" x="190.869141"/>
      </g>
     </g>
    </g>
    <g id="xtick_6">
     <g id="line2d_11">
      <path d="M 327.153467 252 
L 327.153467 34.56 
" clip-path="url(#pe88fa055cd)" style="fill: none; stroke-dasharray: 2.96,1.28; stroke-dashoffset: 0; stroke: #b0b0b0; stroke-width: 0.8"/>
     </g>
     <g id="line2d_12">
      <g>
       <use xlink:href="#maa980ea968" x="327.153467" y="252" style="stroke: #000000; stroke-width: 0.8"/>
      </g>
     </g>
     <g id="text_6">
      <!-- 2500 -->
      <g transform="translate(314.428467 266.598437)scale(0.1 -0.1)">
       <use xlink:href="#DejaVuSans-32"/>
       <use xlink:href="#DejaVuSans-35" x="63.623047"/>
       <use xlink:href="#DejaVuSans-30" x="127.246094"/>
       <use xlink:href="#DejaVuSans-30" x="190.869141"/>
      </g>
     </g>
    </g>
    <g id="xtick_7">
     <g id="line2d_13">
      <path d="M 378.740524 252 
L 378.740524 34.56 
" clip-path="url(#pe88fa055cd)" style="fill: none; stroke-dasharray: 2.96,1.28; stroke-dashoffset: 0; stroke: #b0b0b0; stroke-width: 0.8"/>
     </g>
     <g id="line2d_14">
      <g>
       <use xlink:href="#maa980ea968" x="378.740524" y="252" style="stroke: #000000; stroke-width: 0.8"/>
      </g>
     </g>
     <g id="text_7">
      <!-- 3000 -->
      <g transform="translate(366.015524 266.598437)scale(0.1 -0.1)">
       <defs>
        <path id="DejaVuSans-33" d="M 2597 2516 
Q 3050 2419 3304 2112 
Q 3559 1806 3559 1356 
Q 3559 666 3084 287 
Q 2609 -91 1734 -91 
Q 1441 -91 1130 -33 
Q 819 25 488 141 
L 488 750 
Q 750 597 1062 519 
Q 1375 441 1716 441 
Q 2309 441 2620 675 
Q 2931 909 2931 1356 
Q 2931 1769 2642 2001 
Q 2353 2234 1838 2234 
L 1294 2234 
L 1294 2753 
L 1863 2753 
Q 2328 2753 2575 2939 
Q 2822 3125 2822 3475 
Q 2822 3834 2567 4026 
Q 2313 4219 1838 4219 
Q 1578 4219 1281 4162 
Q 984 4106 628 3988 
L 628 4550 
Q 988 4650 1302 4700 
Q 1616 4750 1894 4750 
Q 2613 4750 3031 4423 
Q 3450 4097 3450 3541 
Q 3450 3153 3228 2886 
Q 3006 2619 2597 2516 
z
" transform="scale(0.015625)"/>
       </defs>
       <use xlink:href="#DejaVuSans-33"/>
       <use xlink:href="#DejaVuSans-30" x="63.623047"/>
       <use xlink:href="#DejaVuSans-30" x="127.246094"/>
       <use xlink:href="#DejaVuSans-30" x="190.869141"/>
      </g>
     </g>
    </g>
    <g id="text_8">
     <!-- Steps -->
     <g transform="translate(207.410156 280.276563)scale(0.1 -0.1)">
      <defs>
       <path id="DejaVuSans-53" d="M 3425 4513 
L 3425 3897 
Q 3066 4069 2747 4153 
Q 2428 4238 2131 4238 
Q 1616 4238 1336 4038 
Q 1056 3838 1056 3469 
Q 1056 3159 1242 3001 
Q 1428 2844 1947 2747 
L 2328 2669 
Q 3034 2534 3370 2195 
Q 3706 1856 3706 1288 
Q 3706 609 3251 259 
Q 2797 -91 1919 -91 
Q 1588 -91 1214 -16 
Q 841 59 441 206 
L 441 856 
Q 825 641 1194 531 
Q 1563 422 1919 422 
Q 2459 422 2753 634 
Q 3047 847 3047 1241 
Q 3047 1584 2836 1778 
Q 2625 1972 2144 2069 
L 1759 2144 
Q 1053 2284 737 2584 
Q 422 2884 422 3419 
Q 422 4038 858 4394 
Q 1294 4750 2059 4750 
Q 2388 4750 2728 4690 
Q 3069 4631 3425 4513 
z
" transform="scale(0.015625)"/>
       <path id="DejaVuSans-74" d="M 1172 4494 
L 1172 3500 
L 2356 3500 
L 2356 3053 
L 1172 3053 
L 1172 1153 
Q 1172 725 1289 603 
Q 1406 481 1766 481 
L 2356 481 
L 2356 0 
L 1766 0 
Q 1100 0 847 248 
Q 594 497 594 1153 
L 594 3053 
L 172 3053 
L 172 3500 
L 594 3500 
L 594 4494 
L 1172 4494 
z
" transform="scale(0.015625)"/>
       <path id="DejaVuSans-65" d="M 3597 1894 
L 3597 1613 
L 953 1613 
Q 991 1019 1311 708 
Q 1631 397 2203 397 
Q 2534 397 2845 478 
Q 3156 559 3463 722 
L 3463 178 
Q 3153 47 2828 -22 
Q 2503 -91 2169 -91 
Q 1331 -91 842 396 
Q 353 884 353 1716 
Q 353 2575 817 3079 
Q 1281 3584 2069 3584 
Q 2775 3584 3186 3129 
Q 3597 2675 3597 1894 
z
M 3022 2063 
Q 3016 2534 2758 2815 
Q 2500 3097 2075 3097 
Q 1594 3097 1305 2825 
Q 1016 2553 972 2059 
L 3022 2063 
z
" transform="scale(0.015625)"/>
       <path id="DejaVuSans-70" d="M 1159 525 
L 1159 -1331 
L 581 -1331 
L 581 3500 
L 1159 3500 
L 1159 2969 
Q 1341 3281 1617 3432 
Q 1894 3584 2278 3584 
Q 2916 3584 3314 3078 
Q 3713 2572 3713 1747 
Q 3713 922 3314 415 
Q 2916 -91 2278 -91 
Q 1894 -91 1617 61 
Q 1341 213 1159 525 
z
M 3116 1747 
Q 3116 2381 2855 2742 
Q 2594 3103 2138 3103 
Q 1681 3103 1420 2742 
Q 1159 2381 1159 1747 
Q 1159 1113 1420 752 
Q 1681 391 2138 391 
Q 2594 391 2855 752 
Q 3116 1113 3116 1747 
z
" transform="scale(0.015625)"/>
       <path id="DejaVuSans-73" d="M 2834 3397 
L 2834 2853 
Q 2591 2978 2328 3040 
Q 2066 3103 1784 3103 
Q 1356 3103 1142 2972 
Q 928 2841 928 2578 
Q 928 2378 1081 2264 
Q 1234 2150 1697 2047 
L 1894 2003 
Q 2506 1872 2764 1633 
Q 3022 1394 3022 966 
Q 3022 478 2636 193 
Q 2250 -91 1575 -91 
Q 1294 -91 989 -36 
Q 684 19 347 128 
L 347 722 
Q 666 556 975 473 
Q 1284 391 1588 391 
Q 1994 391 2212 530 
Q 2431 669 2431 922 
Q 2431 1156 2273 1281 
Q 2116 1406 1581 1522 
L 1381 1569 
Q 847 1681 609 1914 
Q 372 2147 372 2553 
Q 372 3047 722 3315 
Q 1072 3584 1716 3584 
Q 2034 3584 2315 3537 
Q 2597 3491 2834 3397 
z
" transform="scale(0.015625)"/>
      </defs>
      <use xlink:href="#DejaVuSans-53"/>
      <use xlink:href="#DejaVuSans-74" x="63.476562"/>
      <use xlink:href="#DejaVuSans-65" x="102.685547"/>
      <use xlink:href="#DejaVuSans-70" x="164.208984"/>
      <use xlink:href="#DejaVuSans-73" x="227.685547"/>
     </g>
    </g>
   </g>
   <g id="matplotlib.axis_2">
    <g id="ytick_1">
     <g id="line2d_15">
      <path d="M 54 243.636923 
L 388.8 243.636923 
" clip-path="url(#pe88fa055cd)" style="fill: none; stroke-dasharray: 2.96,1.28; stroke-dashoffset: 0; stroke: #b0b0b0; stroke-width: 0.8"/>
     </g>
     <g id="line2d_16">
      <defs>
       <path id="md20b7b3c8e" d="M 0 0 
L -3.5 0 
" style="stroke: #000000; stroke-width: 0.8"/>
      </defs>
      <g>
       <use xlink:href="#md20b7b3c8e" x="54" y="243.636923" style="stroke: #000000; stroke-width: 0.8"/>
      </g>
     </g>
     <g id="text_9">
      <!-- −12 -->
      <g transform="translate(25.895312 247.436142)scale(0.1 -0.1)">
       <defs>
        <path id="DejaVuSans-2212" d="M 678 2272 
L 4684 2272 
L 4684 1741 
L 678 1741 
L 678 2272 
z
" transform="scale(0.015625)"/>
       </defs>
       <use xlink:href="#DejaVuSans-2212"/>
       <use xlink:href="#DejaVuSans-31" x="83.789062"/>
       <use xlink:href="#DejaVuSans-32" x="147.412109"/>
      </g>
     </g>
    </g>
    <g id="ytick_2">
     <g id="line2d_17">
      <path d="M 54 210.184615 
L 388.8 210.184615 
" clip-path="url(#pe88fa055cd)" style="fill: none; stroke-dasharray: 2.96,1.28; stroke-dashoffset: 0; stroke: #b0b0b0; stroke-width: 0.8"/>
     </g>
     <g id="line2d_18">
      <g>
       <use xlink:href="#md20b7b3c8e" x="54" y="210.184615" style="stroke: #000000; stroke-width: 0.8"/>
      </g>
     </g>
     <g id="text_10">
      <!-- −10 -->
      <g transform="translate(25.895312 213.983834)scale(0.1 -0.1)">
       <use xlink:href="#DejaVuSans-2212"/>
       <use xlink:href="#DejaVuSans-31" x="83.789062"/>
       <use xlink:href="#DejaVuSans-30" x="147.412109"/>
      </g>
     </g>
    </g>
    <g id="ytick_3">
     <g id="line2d_19">
      <path d="M 54 176.732308 
L 388.8 176.732308 
" clip-path="url(#pe88fa055cd)" style="fill: none; stroke-dasharray: 2.96,1.28; stroke-dashoffset: 0; stroke: #b0b0b0; stroke-width: 0.8"/>
     </g>
     <g id="line2d_20">
      <g>
       <use xlink:href="#md20b7b3c8e" x="54" y="176.732308" style="stroke: #000000; stroke-width: 0.8"/>
      </g>
     </g>
     <g id="text_11">
      <!-- −8 -->
      <g transform="translate(32.257812 180.531526)scale(0.1 -0.1)">
       <defs>
        <path id="DejaVuSans-38" d="M 2034 2216 
Q 1584 2216 1326 1975 
Q 1069 1734 1069 1313 
Q 1069 891 1326 650 
Q 1584 409 2034 409 
Q 2484 409 2743 651 
Q 3003 894 3003 1313 
Q 3003 1734 2745 1975 
Q 2488 2216 2034 2216 
z
M 1403 2484 
Q 997 2584 770 2862 
Q 544 3141 544 3541 
Q 544 4100 942 4425 
Q 1341 4750 2034 4750 
Q 2731 4750 3128 4425 
Q 3525 4100 3525 3541 
Q 3525 3141 3298 2862 
Q 3072 2584 2669 2484 
Q 3125 2378 3379 2068 
Q 3634 1759 3634 1313 
Q 3634 634 3220 271 
Q 2806 -91 2034 -91 
Q 1263 -91 848 271 
Q 434 634 434 1313 
Q 434 1759 690 2068 
Q 947 2378 1403 2484 
z
M 1172 3481 
Q 1172 3119 1398 2916 
Q 1625 2713 2034 2713 
Q 2441 2713 2670 2916 
Q 2900 3119 2900 3481 
Q 2900 3844 2670 4047 
Q 2441 4250 2034 4250 
Q 1625 4250 1398 4047 
Q 1172 3844 1172 3481 
z
" transform="scale(0.015625)"/>
       </defs>
       <use xlink:href="#DejaVuSans-2212"/>
       <use xlink:href="#DejaVuSans-38" x="83.789062"/>
      </g>
     </g>
    </g>
    <g id="ytick_4">
     <g id="line2d_21">
      <path d="M 54 143.28 
L 388.8 143.28 
" clip-path="url(#pe88fa055cd)" style="fill: none; stroke-dasharray: 2.96,1.28; stroke-dashoffset: 0; stroke: #b0b0b0; stroke-width: 0.8"/>
     </g>
     <g id="line2d_22">
      <g>
       <use xlink:href="#md20b7b3c8e" x="54" y="143.28" style="stroke: #000000; stroke-width: 0.8"/>
      </g>
     </g>
     <g id="text_12">
      <!-- −6 -->
      <g transform="translate(32.257812 147.079219)scale(0.1 -0.1)">
       <defs>
        <path id="DejaVuSans-36" d="M 2113 2584 
Q 1688 2584 1439 2293 
Q 1191 2003 1191 1497 
Q 1191 994 1439 701 
Q 1688 409 2113 409 
Q 2538 409 2786 701 
Q 3034 994 3034 1497 
Q 3034 2003 2786 2293 
Q 2538 2584 2113 2584 
z
M 3366 4563 
L 3366 3988 
Q 3128 4100 2886 4159 
Q 2644 4219 2406 4219 
Q 1781 4219 1451 3797 
Q 1122 3375 1075 2522 
Q 1259 2794 1537 2939 
Q 1816 3084 2150 3084 
Q 2853 3084 3261 2657 
Q 3669 2231 3669 1497 
Q 3669 778 3244 343 
Q 2819 -91 2113 -91 
Q 1303 -91 875 529 
Q 447 1150 447 2328 
Q 447 3434 972 4092 
Q 1497 4750 2381 4750 
Q 2619 4750 2861 4703 
Q 3103 4656 3366 4563 
z
" transform="scale(0.015625)"/>
       </defs>
       <use xlink:href="#DejaVuSans-2212"/>
       <use xlink:href="#DejaVuSans-36" x="83.789062"/>
      </g>
     </g>
    </g>
    <g id="ytick_5">
     <g id="line2d_23">
      <path d="M 54 109.827692 
L 388.8 109.827692 
" clip-path="url(#pe88fa055cd)" style="fill: none; stroke-dasharray: 2.96,1.28; stroke-dashoffset: 0; stroke: #b0b0b0; stroke-width: 0.8"/>
     </g>
     <g id="line2d_24">
      <g>
       <use xlink:href="#md20b7b3c8e" x="54" y="109.827692" style="stroke: #000000; stroke-width: 0.8"/>
      </g>
     </g>
     <g id="text_13">
      <!-- −4 -->
      <g transform="translate(32.257812 113.626911)scale(0.1 -0.1)">
       <defs>
        <path id="DejaVuSans-34" d="M 2419 4116 
L 825 1625 
L 2419 1625 
L 2419 4116 
z
M 2253 4666 
L 3047 4666 
L 3047 1625 
L 3713 1625 
L 3713 1100 
L 3047 1100 
L 3047 0 
L 2419 0 
L 2419 1100 
L 313 1100 
L 313 1709 
L 2253 4666 
z
" transform="scale(0.015625)"/>
       </defs>
       <use xlink:href="#DejaVuSans-2212"/>
       <use xlink:href="#DejaVuSans-34" x="83.789062"/>
      </g>
     </g>
    </g>
    <g id="ytick_6">
     <g id="line2d_25">
      <path d="M 54 76.375385 
L 388.8 76.375385 
" clip-path="url(#pe88fa055cd)" style="fill: none; stroke-dasharray: 2.96,1.28; stroke-dashoffset: 0; stroke: #b0b0b0; stroke-width: 0.8"/>
     </g>
     <g id="line2d_26">
      <g>
       <use xlink:href="#md20b7b3c8e" x="54" y="76.375385" style="stroke: #000000; stroke-width: 0.8"/>
      </g>
     </g>
     <g id="text_14">
      <!-- −2 -->
      <g transform="translate(32.257812 80.174603)scale(0.1 -0.1)">
       <use xlink:href="#DejaVuSans-2212"/>
       <use xlink:href="#DejaVuSans-32" x="83.789062"/>
      </g>
     </g>
    </g>
    <g id="ytick_7">
     <g id="line2d_27">
      <path d="M 54 42.923077 
L 388.8 42.923077 
" clip-path="url(#pe88fa055cd)" style="fill: none; stroke-dasharray: 2.96,1.28; stroke-dashoffset: 0; stroke: #b0b0b0; stroke-width: 0.8"/>
     </g>
     <g id="line2d_28">
      <g>
       <use xlink:href="#md20b7b3c8e" x="54" y="42.923077" style="stroke: #000000; stroke-width: 0.8"/>
      </g>
     </g>
     <g id="text_15">
      <!-- 0 -->
      <g transform="translate(40.6375 46.722296)scale(0.1 -0.1)">
       <use xlink:href="#DejaVuSans-30"/>
      </g>
     </g>
    </g>
    <g id="text_16">
     <!-- Policy value error -->
     <g transform="translate(19.815625 186.597969)rotate(-90)scale(0.1 -0.1)">
      <defs>
       <path id="DejaVuSans-50" d="M 1259 4147 
L 1259 2394 
L 2053 2394 
Q 2494 2394 2734 2622 
Q 2975 2850 2975 3272 
Q 2975 3691 2734 3919 
Q 2494 4147 2053 4147 
L 1259 4147 
z
M 628 4666 
L 2053 4666 
Q 2838 4666 3239 4311 
Q 3641 3956 3641 3272 
Q 3641 2581 3239 2228 
Q 2838 1875 2053 1875 
L 1259 1875 
L 1259 0 
L 628 0 
L 628 4666 
z
" transform="scale(0.015625)"/>
       <path id="DejaVuSans-6f" d="M 1959 3097 
Q 1497 3097 1228 2736 
Q 959 2375 959 1747 
Q 959 1119 1226 758 
Q 1494 397 1959 397 
Q 2419 397 2687 759 
Q 2956 1122 2956 1747 
Q 2956 2369 2687 2733 
Q 2419 3097 1959 3097 
z
M 1959 3584 
Q 2709 3584 3137 3096 
Q 3566 2609 3566 1747 
Q 3566 888 3137 398 
Q 2709 -91 1959 -91 
Q 1206 -91 779 398 
Q 353 888 353 1747 
Q 353 2609 779 3096 
Q 1206 3584 1959 3584 
z
" transform="scale(0.015625)"/>
       <path id="DejaVuSans-6c" d="M 603 4863 
L 1178 4863 
L 1178 0 
L 603 0 
L 603 4863 
z
" transform="scale(0.015625)"/>
       <path id="DejaVuSans-69" d="M 603 3500 
L 1178 3500 
L 1178 0 
L 603 0 
L 603 3500 
z
M 603 4863 
L 1178 4863 
L 1178 4134 
L 603 4134 
L 603 4863 
z
" transform="scale(0.015625)"/>
       <path id="DejaVuSans-63" d="M 3122 3366 
L 3122 2828 
Q 2878 2963 2633 3030 
Q 2388 3097 2138 3097 
Q 1578 3097 1268 2742 
Q 959 2388 959 1747 
Q 959 1106 1268 751 
Q 1578 397 2138 397 
Q 2388 397 2633 464 
Q 2878 531 3122 666 
L 3122 134 
Q 2881 22 2623 -34 
Q 2366 -91 2075 -91 
Q 1284 -91 818 406 
Q 353 903 353 1747 
Q 353 2603 823 3093 
Q 1294 3584 2113 3584 
Q 2378 3584 2631 3529 
Q 2884 3475 3122 3366 
z
" transform="scale(0.015625)"/>
       <path id="DejaVuSans-79" d="M 2059 -325 
Q 1816 -950 1584 -1140 
Q 1353 -1331 966 -1331 
L 506 -1331 
L 506 -850 
L 844 -850 
Q 1081 -850 1212 -737 
Q 1344 -625 1503 -206 
L 1606 56 
L 191 3500 
L 800 3500 
L 1894 763 
L 2988 3500 
L 3597 3500 
L 2059 -325 
z
" transform="scale(0.015625)"/>
       <path id="DejaVuSans-20" transform="scale(0.015625)"/>
       <path id="DejaVuSans-76" d="M 191 3500 
L 800 3500 
L 1894 563 
L 2988 3500 
L 3597 3500 
L 2284 0 
L 1503 0 
L 191 3500 
z
" transform="scale(0.015625)"/>
       <path id="DejaVuSans-61" d="M 2194 1759 
Q 1497 1759 1228 1600 
Q 959 1441 959 1056 
Q 959 750 1161 570 
Q 1363 391 1709 391 
Q 2188 391 2477 730 
Q 2766 1069 2766 1631 
L 2766 1759 
L 2194 1759 
z
M 3341 1997 
L 3341 0 
L 2766 0 
L 2766 531 
Q 2569 213 2275 61 
Q 1981 -91 1556 -91 
Q 1019 -91 701 211 
Q 384 513 384 1019 
Q 384 1609 779 1909 
Q 1175 2209 1959 2209 
L 2766 2209 
L 2766 2266 
Q 2766 2663 2505 2880 
Q 2244 3097 1772 3097 
Q 1472 3097 1187 3025 
Q 903 2953 641 2809 
L 641 3341 
Q 956 3463 1253 3523 
Q 1550 3584 1831 3584 
Q 2591 3584 2966 3190 
Q 3341 2797 3341 1997 
z
" transform="scale(0.015625)"/>
       <path id="DejaVuSans-75" d="M 544 1381 
L 544 3500 
L 1119 3500 
L 1119 1403 
Q 1119 906 1312 657 
Q 1506 409 1894 409 
Q 2359 409 2629 706 
Q 2900 1003 2900 1516 
L 2900 3500 
L 3475 3500 
L 3475 0 
L 2900 0 
L 2900 538 
Q 2691 219 2414 64 
Q 2138 -91 1772 -91 
Q 1169 -91 856 284 
Q 544 659 544 1381 
z
M 1991 3584 
L 1991 3584 
z
" transform="scale(0.015625)"/>
       <path id="DejaVuSans-72" d="M 2631 2963 
Q 2534 3019 2420 3045 
Q 2306 3072 2169 3072 
Q 1681 3072 1420 2755 
Q 1159 2438 1159 1844 
L 1159 0 
L 581 0 
L 581 3500 
L 1159 3500 
L 1159 2956 
Q 1341 3275 1631 3429 
Q 1922 3584 2338 3584 
Q 2397 3584 2469 3576 
Q 2541 3569 2628 3553 
L 2631 2963 
z
" transform="scale(0.015625)"/>
      </defs>
      <use xlink:href="#DejaVuSans-50"/>
      <use xlink:href="#DejaVuSans-6f" x="56.677734"/>
      <use xlink:href="#DejaVuSans-6c" x="117.859375"/>
      <use xlink:href="#DejaVuSans-69" x="145.642578"/>
      <use xlink:href="#DejaVuSans-63" x="173.425781"/>
      <use xlink:href="#DejaVuSans-79" x="228.40625"/>
      <use xlink:href="#DejaVuSans-20" x="287.585938"/>
      <use xlink:href="#DejaVuSans-76" x="319.373047"/>
      <use xlink:href="#DejaVuSans-61" x="378.552734"/>
      <use xlink:href="#DejaVuSans-6c" x="439.832031"/>
      <use xlink:href="#DejaVuSans-75" x="467.615234"/>
      <use xlink:href="#DejaVuSans-65" x="530.994141"/>
      <use xlink:href="#DejaVuSans-20" x="592.517578"/>
      <use xlink:href="#DejaVuSans-65" x="624.304688"/>
      <use xlink:href="#DejaVuSans-72" x="685.828125"/>
      <use xlink:href="#DejaVuSans-72" x="725.191406"/>
      <use xlink:href="#DejaVuSans-6f" x="764.054688"/>
      <use xlink:href="#DejaVuSans-72" x="825.236328"/>
     </g>
    </g>
   </g>
   <g id="line2d_29">
    <path d="M 69.218182 262.081048 
L 74.376888 252.908818 
L 79.535593 255.342342 
L 84.694299 252.967679 
L 89.853005 254.625232 
L 95.01171 252.908818 
L 100.170416 253.416249 
L 105.329122 252.908818 
L 110.487827 252.991609 
L 115.646533 251.042046 
L 120.805239 252.892909 
L 125.963945 252.908818 
L 131.12265 257.769975 
L 136.281356 249.371941 
L 141.440062 240.785574 
L 146.598767 224.489002 
L 151.757473 162.545493 
L 156.916179 163.256691 
L 162.074884 130.523083 
L 167.23359 226.695678 
L 172.392296 227.019457 
L 177.551002 225.280824 
L 182.709707 120.100006 
L 187.868413 123.659618 
L 193.027119 123.659618 
L 198.185824 123.656991 
L 203.34453 123.656991 
L 208.503236 121.263665 
L 213.661941 127.330172 
L 218.820647 127.330172 
L 223.979353 127.330172 
L 229.138059 128.286006 
L 234.296764 114.333104 
L 239.45547 132.572348 
L 244.614176 132.572348 
L 249.772881 132.572348 
L 254.931587 43.066387 
L 260.090293 43.066387 
L 265.248998 43.066387 
L 270.407704 43.066387 
L 275.56641 43.066387 
L 280.725116 43.325763 
L 285.883821 43.324619 
L 291.042527 43.324619 
L 296.201233 43.324619 
L 301.359938 43.324619 
L 306.518644 43.324619 
L 311.67735 43.324619 
L 316.836055 43.324619 
L 321.994761 43.324619 
L 327.153467 43.324619 
L 332.312173 43.324619 
L 337.470878 43.324619 
L 342.629584 43.324619 
L 347.78829 43.324619 
L 352.946995 43.324619 
L 358.105701 43.324619 
L 363.264407 43.324619 
L 368.423112 43.324619 
L 373.581818 43.324619 
" clip-path="url(#pe88fa055cd)" style="fill: none; stroke: #9d02d7; stroke-width: 1.5; stroke-linecap: square"/>
    <defs>
     <path id="m48cfa6e037" d="M 0 -2 
L -2 2 
L 2 2 
z
" style="stroke: #9d02d7; stroke-linejoin: miter"/>
    </defs>
    <g clip-path="url(#pe88fa055cd)">
     <use xlink:href="#m48cfa6e037" x="69.218182" y="262.081048" style="fill: #9d02d7; stroke: #9d02d7; stroke-linejoin: miter"/>
     <use xlink:href="#m48cfa6e037" x="74.376888" y="252.908818" style="fill: #9d02d7; stroke: #9d02d7; stroke-linejoin: miter"/>
     <use xlink:href="#m48cfa6e037" x="79.535593" y="255.342342" style="fill: #9d02d7; stroke: #9d02d7; stroke-linejoin: miter"/>
     <use xlink:href="#m48cfa6e037" x="84.694299" y="252.967679" style="fill: #9d02d7; stroke: #9d02d7; stroke-linejoin: miter"/>
     <use xlink:href="#m48cfa6e037" x="89.853005" y="254.625232" style="fill: #9d02d7; stroke: #9d02d7; stroke-linejoin: miter"/>
     <use xlink:href="#m48cfa6e037" x="95.01171" y="252.908818" style="fill: #9d02d7; stroke: #9d02d7; stroke-linejoin: miter"/>
     <use xlink:href="#m48cfa6e037" x="100.170416" y="253.416249" style="fill: #9d02d7; stroke: #9d02d7; stroke-linejoin: miter"/>
     <use xlink:href="#m48cfa6e037" x="105.329122" y="252.908818" style="fill: #9d02d7; stroke: #9d02d7; stroke-linejoin: miter"/>
     <use xlink:href="#m48cfa6e037" x="110.487827" y="252.991609" style="fill: #9d02d7; stroke: #9d02d7; stroke-linejoin: miter"/>
     <use xlink:href="#m48cfa6e037" x="115.646533" y="251.042046" style="fill: #9d02d7; stroke: #9d02d7; stroke-linejoin: miter"/>
     <use xlink:href="#m48cfa6e037" x="120.805239" y="252.892909" style="fill: #9d02d7; stroke: #9d02d7; stroke-linejoin: miter"/>
     <use xlink:href="#m48cfa6e037" x="125.963945" y="252.908818" style="fill: #9d02d7; stroke: #9d02d7; stroke-linejoin: miter"/>
     <use xlink:href="#m48cfa6e037" x="131.12265" y="257.769975" style="fill: #9d02d7; stroke: #9d02d7; stroke-linejoin: miter"/>
     <use xlink:href="#m48cfa6e037" x="136.281356" y="249.371941" style="fill: #9d02d7; stroke: #9d02d7; stroke-linejoin: miter"/>
     <use xlink:href="#m48cfa6e037" x="141.440062" y="240.785574" style="fill: #9d02d7; stroke: #9d02d7; stroke-linejoin: miter"/>
     <use xlink:href="#m48cfa6e037" x="146.598767" y="224.489002" style="fill: #9d02d7; stroke: #9d02d7; stroke-linejoin: miter"/>
     <use xlink:href="#m48cfa6e037" x="151.757473" y="162.545493" style="fill: #9d02d7; stroke: #9d02d7; stroke-linejoin: miter"/>
     <use xlink:href="#m48cfa6e037" x="156.916179" y="163.256691" style="fill: #9d02d7; stroke: #9d02d7; stroke-linejoin: miter"/>
     <use xlink:href="#m48cfa6e037" x="162.074884" y="130.523083" style="fill: #9d02d7; stroke: #9d02d7; stroke-linejoin: miter"/>
     <use xlink:href="#m48cfa6e037" x="167.23359" y="226.695678" style="fill: #9d02d7; stroke: #9d02d7; stroke-linejoin: miter"/>
     <use xlink:href="#m48cfa6e037" x="172.392296" y="227.019457" style="fill: #9d02d7; stroke: #9d02d7; stroke-linejoin: miter"/>
     <use xlink:href="#m48cfa6e037" x="177.551002" y="225.280824" style="fill: #9d02d7; stroke: #9d02d7; stroke-linejoin: miter"/>
     <use xlink:href="#m48cfa6e037" x="182.709707" y="120.100006" style="fill: #9d02d7; stroke: #9d02d7; stroke-linejoin: miter"/>
     <use xlink:href="#m48cfa6e037" x="187.868413" y="123.659618" style="fill: #9d02d7; stroke: #9d02d7; stroke-linejoin: miter"/>
     <use xlink:href="#m48cfa6e037" x="193.027119" y="123.659618" style="fill: #9d02d7; stroke: #9d02d7; stroke-linejoin: miter"/>
     <use xlink:href="#m48cfa6e037" x="198.185824" y="123.656991" style="fill: #9d02d7; stroke: #9d02d7; stroke-linejoin: miter"/>
     <use xlink:href="#m48cfa6e037" x="203.34453" y="123.656991" style="fill: #9d02d7; stroke: #9d02d7; stroke-linejoin: miter"/>
     <use xlink:href="#m48cfa6e037" x="208.503236" y="121.263665" style="fill: #9d02d7; stroke: #9d02d7; stroke-linejoin: miter"/>
     <use xlink:href="#m48cfa6e037" x="213.661941" y="127.330172" style="fill: #9d02d7; stroke: #9d02d7; stroke-linejoin: miter"/>
     <use xlink:href="#m48cfa6e037" x="218.820647" y="127.330172" style="fill: #9d02d7; stroke: #9d02d7; stroke-linejoin: miter"/>
     <use xlink:href="#m48cfa6e037" x="223.979353" y="127.330172" style="fill: #9d02d7; stroke: #9d02d7; stroke-linejoin: miter"/>
     <use xlink:href="#m48cfa6e037" x="229.138059" y="128.286006" style="fill: #9d02d7; stroke: #9d02d7; stroke-linejoin: miter"/>
     <use xlink:href="#m48cfa6e037" x="234.296764" y="114.333104" style="fill: #9d02d7; stroke: #9d02d7; stroke-linejoin: miter"/>
     <use xlink:href="#m48cfa6e037" x="239.45547" y="132.572348" style="fill: #9d02d7; stroke: #9d02d7; stroke-linejoin: miter"/>
     <use xlink:href="#m48cfa6e037" x="244.614176" y="132.572348" style="fill: #9d02d7; stroke: #9d02d7; stroke-linejoin: miter"/>
     <use xlink:href="#m48cfa6e037" x="249.772881" y="132.572348" style="fill: #9d02d7; stroke: #9d02d7; stroke-linejoin: miter"/>
     <use xlink:href="#m48cfa6e037" x="254.931587" y="43.066387" style="fill: #9d02d7; stroke: #9d02d7; stroke-linejoin: miter"/>
     <use xlink:href="#m48cfa6e037" x="260.090293" y="43.066387" style="fill: #9d02d7; stroke: #9d02d7; stroke-linejoin: miter"/>
     <use xlink:href="#m48cfa6e037" x="265.248998" y="43.066387" style="fill: #9d02d7; stroke: #9d02d7; stroke-linejoin: miter"/>
     <use xlink:href="#m48cfa6e037" x="270.407704" y="43.066387" style="fill: #9d02d7; stroke: #9d02d7; stroke-linejoin: miter"/>
     <use xlink:href="#m48cfa6e037" x="275.56641" y="43.066387" style="fill: #9d02d7; stroke: #9d02d7; stroke-linejoin: miter"/>
     <use xlink:href="#m48cfa6e037" x="280.725116" y="43.325763" style="fill: #9d02d7; stroke: #9d02d7; stroke-linejoin: miter"/>
     <use xlink:href="#m48cfa6e037" x="285.883821" y="43.324619" style="fill: #9d02d7; stroke: #9d02d7; stroke-linejoin: miter"/>
     <use xlink:href="#m48cfa6e037" x="291.042527" y="43.324619" style="fill: #9d02d7; stroke: #9d02d7; stroke-linejoin: miter"/>
     <use xlink:href="#m48cfa6e037" x="296.201233" y="43.324619" style="fill: #9d02d7; stroke: #9d02d7; stroke-linejoin: miter"/>
     <use xlink:href="#m48cfa6e037" x="301.359938" y="43.324619" style="fill: #9d02d7; stroke: #9d02d7; stroke-linejoin: miter"/>
     <use xlink:href="#m48cfa6e037" x="306.518644" y="43.324619" style="fill: #9d02d7; stroke: #9d02d7; stroke-linejoin: miter"/>
     <use xlink:href="#m48cfa6e037" x="311.67735" y="43.324619" style="fill: #9d02d7; stroke: #9d02d7; stroke-linejoin: miter"/>
     <use xlink:href="#m48cfa6e037" x="316.836055" y="43.324619" style="fill: #9d02d7; stroke: #9d02d7; stroke-linejoin: miter"/>
     <use xlink:href="#m48cfa6e037" x="321.994761" y="43.324619" style="fill: #9d02d7; stroke: #9d02d7; stroke-linejoin: miter"/>
     <use xlink:href="#m48cfa6e037" x="327.153467" y="43.324619" style="fill: #9d02d7; stroke: #9d02d7; stroke-linejoin: miter"/>
     <use xlink:href="#m48cfa6e037" x="332.312173" y="43.324619" style="fill: #9d02d7; stroke: #9d02d7; stroke-linejoin: miter"/>
     <use xlink:href="#m48cfa6e037" x="337.470878" y="43.324619" style="fill: #9d02d7; stroke: #9d02d7; stroke-linejoin: miter"/>
     <use xlink:href="#m48cfa6e037" x="342.629584" y="43.324619" style="fill: #9d02d7; stroke: #9d02d7; stroke-linejoin: miter"/>
     <use xlink:href="#m48cfa6e037" x="347.78829" y="43.324619" style="fill: #9d02d7; stroke: #9d02d7; stroke-linejoin: miter"/>
     <use xlink:href="#m48cfa6e037" x="352.946995" y="43.324619" style="fill: #9d02d7; stroke: #9d02d7; stroke-linejoin: miter"/>
     <use xlink:href="#m48cfa6e037" x="358.105701" y="43.324619" style="fill: #9d02d7; stroke: #9d02d7; stroke-linejoin: miter"/>
     <use xlink:href="#m48cfa6e037" x="363.264407" y="43.324619" style="fill: #9d02d7; stroke: #9d02d7; stroke-linejoin: miter"/>
     <use xlink:href="#m48cfa6e037" x="368.423112" y="43.324619" style="fill: #9d02d7; stroke: #9d02d7; stroke-linejoin: miter"/>
     <use xlink:href="#m48cfa6e037" x="373.581818" y="43.324619" style="fill: #9d02d7; stroke: #9d02d7; stroke-linejoin: miter"/>
    </g>
   </g>
   <g id="line2d_30">
    <path d="M 69.218182 255.887752 
L 74.376888 252.908818 
L 79.535593 242.178023 
L 84.694299 246.391183 
L 89.853005 246.828893 
L 95.01171 252.39426 
L 100.170416 252.245713 
L 105.329122 252.504768 
L 110.487827 249.489876 
L 115.646533 249.082399 
L 120.805239 246.975433 
L 125.963945 248.26344 
L 131.12265 247.013626 
L 136.281356 257.013184 
L 141.440062 246.180756 
L 146.598767 245.351026 
L 151.757473 244.602816 
L 156.916179 251.706904 
L 162.074884 251.707216 
L 167.23359 246.591266 
L 172.392296 246.416008 
L 177.551002 244.054109 
L 182.709707 246.416002 
L 187.868413 253.784156 
L 193.027119 246.309636 
L 198.185824 245.719155 
L 203.34453 241.514823 
L 208.503236 241.515418 
L 213.661941 244.9114 
L 218.820647 245.950701 
L 223.979353 245.800593 
L 229.138059 246.279522 
L 234.296764 244.7879 
L 239.45547 240.878519 
L 244.614176 241.066418 
L 249.772881 240.878519 
L 254.931587 240.87804 
L 260.090293 240.87804 
L 265.248998 220.653897 
L 270.407704 220.656076 
L 275.56641 220.328271 
L 280.725116 220.277339 
L 285.883821 220.277339 
L 291.042527 220.232649 
L 296.201233 220.656076 
L 301.359938 220.216075 
L 306.518644 46.153307 
L 311.67735 43.819578 
L 316.836055 43.819578 
L 321.994761 43.819423 
L 327.153467 43.819423 
L 332.312173 43.819423 
L 337.470878 43.819423 
L 342.629584 43.819423 
L 347.78829 43.819423 
L 352.946995 43.819423 
L 358.105701 43.819423 
L 363.264407 43.819423 
L 368.423112 43.819423 
L 373.581818 43.819423 
" clip-path="url(#pe88fa055cd)" style="fill: none; stroke: #0000ff; stroke-width: 1.5; stroke-linecap: square"/>
    <defs>
     <path id="m0e24ac95b5" d="M 0 2 
C 0.530406 2 1.03916 1.789267 1.414214 1.414214 
C 1.789267 1.03916 2 0.530406 2 0 
C 2 -0.530406 1.789267 -1.03916 1.414214 -1.414214 
C 1.03916 -1.789267 0.530406 -2 0 -2 
C -0.530406 -2 -1.03916 -1.789267 -1.414214 -1.414214 
C -1.789267 -1.03916 -2 -0.530406 -2 0 
C -2 0.530406 -1.789267 1.03916 -1.414214 1.414214 
C -1.03916 1.789267 -0.530406 2 0 2 
z
" style="stroke: #0000ff"/>
    </defs>
    <g clip-path="url(#pe88fa055cd)">
     <use xlink:href="#m0e24ac95b5" x="69.218182" y="255.887752" style="fill: #0000ff; stroke: #0000ff"/>
     <use xlink:href="#m0e24ac95b5" x="74.376888" y="252.908818" style="fill: #0000ff; stroke: #0000ff"/>
     <use xlink:href="#m0e24ac95b5" x="79.535593" y="242.178023" style="fill: #0000ff; stroke: #0000ff"/>
     <use xlink:href="#m0e24ac95b5" x="84.694299" y="246.391183" style="fill: #0000ff; stroke: #0000ff"/>
     <use xlink:href="#m0e24ac95b5" x="89.853005" y="246.828893" style="fill: #0000ff; stroke: #0000ff"/>
     <use xlink:href="#m0e24ac95b5" x="95.01171" y="252.39426" style="fill: #0000ff; stroke: #0000ff"/>
     <use xlink:href="#m0e24ac95b5" x="100.170416" y="252.245713" style="fill: #0000ff; stroke: #0000ff"/>
     <use xlink:href="#m0e24ac95b5" x="105.329122" y="252.504768" style="fill: #0000ff; stroke: #0000ff"/>
     <use xlink:href="#m0e24ac95b5" x="110.487827" y="249.489876" style="fill: #0000ff; stroke: #0000ff"/>
     <use xlink:href="#m0e24ac95b5" x="115.646533" y="249.082399" style="fill: #0000ff; stroke: #0000ff"/>
     <use xlink:href="#m0e24ac95b5" x="120.805239" y="246.975433" style="fill: #0000ff; stroke: #0000ff"/>
     <use xlink:href="#m0e24ac95b5" x="125.963945" y="248.26344" style="fill: #0000ff; stroke: #0000ff"/>
     <use xlink:href="#m0e24ac95b5" x="131.12265" y="247.013626" style="fill: #0000ff; stroke: #0000ff"/>
     <use xlink:href="#m0e24ac95b5" x="136.281356" y="257.013184" style="fill: #0000ff; stroke: #0000ff"/>
     <use xlink:href="#m0e24ac95b5" x="141.440062" y="246.180756" style="fill: #0000ff; stroke: #0000ff"/>
     <use xlink:href="#m0e24ac95b5" x="146.598767" y="245.351026" style="fill: #0000ff; stroke: #0000ff"/>
     <use xlink:href="#m0e24ac95b5" x="151.757473" y="244.602816" style="fill: #0000ff; stroke: #0000ff"/>
     <use xlink:href="#m0e24ac95b5" x="156.916179" y="251.706904" style="fill: #0000ff; stroke: #0000ff"/>
     <use xlink:href="#m0e24ac95b5" x="162.074884" y="251.707216" style="fill: #0000ff; stroke: #0000ff"/>
     <use xlink:href="#m0e24ac95b5" x="167.23359" y="246.591266" style="fill: #0000ff; stroke: #0000ff"/>
     <use xlink:href="#m0e24ac95b5" x="172.392296" y="246.416008" style="fill: #0000ff; stroke: #0000ff"/>
     <use xlink:href="#m0e24ac95b5" x="177.551002" y="244.054109" style="fill: #0000ff; stroke: #0000ff"/>
     <use xlink:href="#m0e24ac95b5" x="182.709707" y="246.416002" style="fill: #0000ff; stroke: #0000ff"/>
     <use xlink:href="#m0e24ac95b5" x="187.868413" y="253.784156" style="fill: #0000ff; stroke: #0000ff"/>
     <use xlink:href="#m0e24ac95b5" x="193.027119" y="246.309636" style="fill: #0000ff; stroke: #0000ff"/>
     <use xlink:href="#m0e24ac95b5" x="198.185824" y="245.719155" style="fill: #0000ff; stroke: #0000ff"/>
     <use xlink:href="#m0e24ac95b5" x="203.34453" y="241.514823" style="fill: #0000ff; stroke: #0000ff"/>
     <use xlink:href="#m0e24ac95b5" x="208.503236" y="241.515418" style="fill: #0000ff; stroke: #0000ff"/>
     <use xlink:href="#m0e24ac95b5" x="213.661941" y="244.9114" style="fill: #0000ff; stroke: #0000ff"/>
     <use xlink:href="#m0e24ac95b5" x="218.820647" y="245.950701" style="fill: #0000ff; stroke: #0000ff"/>
     <use xlink:href="#m0e24ac95b5" x="223.979353" y="245.800593" style="fill: #0000ff; stroke: #0000ff"/>
     <use xlink:href="#m0e24ac95b5" x="229.138059" y="246.279522" style="fill: #0000ff; stroke: #0000ff"/>
     <use xlink:href="#m0e24ac95b5" x="234.296764" y="244.7879" style="fill: #0000ff; stroke: #0000ff"/>
     <use xlink:href="#m0e24ac95b5" x="239.45547" y="240.878519" style="fill: #0000ff; stroke: #0000ff"/>
     <use xlink:href="#m0e24ac95b5" x="244.614176" y="241.066418" style="fill: #0000ff; stroke: #0000ff"/>
     <use xlink:href="#m0e24ac95b5" x="249.772881" y="240.878519" style="fill: #0000ff; stroke: #0000ff"/>
     <use xlink:href="#m0e24ac95b5" x="254.931587" y="240.87804" style="fill: #0000ff; stroke: #0000ff"/>
     <use xlink:href="#m0e24ac95b5" x="260.090293" y="240.87804" style="fill: #0000ff; stroke: #0000ff"/>
     <use xlink:href="#m0e24ac95b5" x="265.248998" y="220.653897" style="fill: #0000ff; stroke: #0000ff"/>
     <use xlink:href="#m0e24ac95b5" x="270.407704" y="220.656076" style="fill: #0000ff; stroke: #0000ff"/>
     <use xlink:href="#m0e24ac95b5" x="275.56641" y="220.328271" style="fill: #0000ff; stroke: #0000ff"/>
     <use xlink:href="#m0e24ac95b5" x="280.725116" y="220.277339" style="fill: #0000ff; stroke: #0000ff"/>
     <use xlink:href="#m0e24ac95b5" x="285.883821" y="220.277339" style="fill: #0000ff; stroke: #0000ff"/>
     <use xlink:href="#m0e24ac95b5" x="291.042527" y="220.232649" style="fill: #0000ff; stroke: #0000ff"/>
     <use xlink:href="#m0e24ac95b5" x="296.201233" y="220.656076" style="fill: #0000ff; stroke: #0000ff"/>
     <use xlink:href="#m0e24ac95b5" x="301.359938" y="220.216075" style="fill: #0000ff; stroke: #0000ff"/>
     <use xlink:href="#m0e24ac95b5" x="306.518644" y="46.153307" style="fill: #0000ff; stroke: #0000ff"/>
     <use xlink:href="#m0e24ac95b5" x="311.67735" y="43.819578" style="fill: #0000ff; stroke: #0000ff"/>
     <use xlink:href="#m0e24ac95b5" x="316.836055" y="43.819578" style="fill: #0000ff; stroke: #0000ff"/>
     <use xlink:href="#m0e24ac95b5" x="321.994761" y="43.819423" style="fill: #0000ff; stroke: #0000ff"/>
     <use xlink:href="#m0e24ac95b5" x="327.153467" y="43.819423" style="fill: #0000ff; stroke: #0000ff"/>
     <use xlink:href="#m0e24ac95b5" x="332.312173" y="43.819423" style="fill: #0000ff; stroke: #0000ff"/>
     <use xlink:href="#m0e24ac95b5" x="337.470878" y="43.819423" style="fill: #0000ff; stroke: #0000ff"/>
     <use xlink:href="#m0e24ac95b5" x="342.629584" y="43.819423" style="fill: #0000ff; stroke: #0000ff"/>
     <use xlink:href="#m0e24ac95b5" x="347.78829" y="43.819423" style="fill: #0000ff; stroke: #0000ff"/>
     <use xlink:href="#m0e24ac95b5" x="352.946995" y="43.819423" style="fill: #0000ff; stroke: #0000ff"/>
     <use xlink:href="#m0e24ac95b5" x="358.105701" y="43.819423" style="fill: #0000ff; stroke: #0000ff"/>
     <use xlink:href="#m0e24ac95b5" x="363.264407" y="43.819423" style="fill: #0000ff; stroke: #0000ff"/>
     <use xlink:href="#m0e24ac95b5" x="368.423112" y="43.819423" style="fill: #0000ff; stroke: #0000ff"/>
     <use xlink:href="#m0e24ac95b5" x="373.581818" y="43.819423" style="fill: #0000ff; stroke: #0000ff"/>
    </g>
   </g>
   <g id="line2d_31">
    <path d="M 69.218182 253.569399 
L 74.376888 252.916601 
L 79.535593 167.096183 
L 84.694299 179.04745 
L 89.853005 208.165327 
L 95.01171 184.181804 
L 100.170416 122.78686 
L 105.329122 222.499451 
L 110.487827 190.965517 
L 115.646533 223.851897 
L 120.805239 225.25674 
L 125.963945 234.517944 
L 131.12265 160.574204 
L 136.281356 243.047012 
L 141.440062 147.744718 
L 146.598767 141.067587 
L 151.757473 97.734169 
L 156.916179 179.187657 
L 162.074884 154.250426 
L 167.23359 155.009078 
L 172.392296 123.046417 
L 177.551002 139.280766 
L 182.709707 154.588598 
L 187.868413 136.239701 
L 193.027119 99.155459 
L 198.185824 136.037454 
L 203.34453 95.442526 
L 208.503236 95.442526 
L 213.661941 47.141636 
L 218.820647 47.148697 
L 223.979353 46.58926 
L 229.138059 46.58926 
L 234.296764 44.84039 
L 239.45547 46.588275 
L 244.614176 47.148189 
L 249.772881 43.81675 
L 254.931587 43.81559 
L 260.090293 43.81559 
L 265.248998 43.451135 
L 270.407704 43.45529 
L 275.56641 72.821226 
L 280.725116 72.817815 
L 285.883821 46.9583 
L 291.042527 46.301167 
L 296.201233 46.301167 
L 301.359938 46.30101 
L 306.518644 43.322714 
L 311.67735 43.322714 
L 316.836055 43.322714 
L 321.994761 43.322714 
L 327.153467 43.322714 
L 332.312173 43.322714 
L 337.470878 43.322401 
L 342.629584 43.322401 
L 347.78829 43.322674 
L 352.946995 43.324719 
L 358.105701 43.324719 
L 363.264407 43.324719 
L 368.423112 43.322674 
L 373.581818 43.324719 
" clip-path="url(#pe88fa055cd)" style="fill: none; stroke: #ff7763; stroke-width: 1.5; stroke-linecap: square"/>
    <defs>
     <path id="m5dc9e55560" d="M -2 2 
L 2 -2 
M -2 -2 
L 2 2 
" style="stroke: #ff7763"/>
    </defs>
    <g clip-path="url(#pe88fa055cd)">
     <use xlink:href="#m5dc9e55560" x="69.218182" y="253.569399" style="fill: #ff7763; stroke: #ff7763"/>
     <use xlink:href="#m5dc9e55560" x="74.376888" y="252.916601" style="fill: #ff7763; stroke: #ff7763"/>
     <use xlink:href="#m5dc9e55560" x="79.535593" y="167.096183" style="fill: #ff7763; stroke: #ff7763"/>
     <use xlink:href="#m5dc9e55560" x="84.694299" y="179.04745" style="fill: #ff7763; stroke: #ff7763"/>
     <use xlink:href="#m5dc9e55560" x="89.853005" y="208.165327" style="fill: #ff7763; stroke: #ff7763"/>
     <use xlink:href="#m5dc9e55560" x="95.01171" y="184.181804" style="fill: #ff7763; stroke: #ff7763"/>
     <use xlink:href="#m5dc9e55560" x="100.170416" y="122.78686" style="fill: #ff7763; stroke: #ff7763"/>
     <use xlink:href="#m5dc9e55560" x="105.329122" y="222.499451" style="fill: #ff7763; stroke: #ff7763"/>
     <use xlink:href="#m5dc9e55560" x="110.487827" y="190.965517" style="fill: #ff7763; stroke: #ff7763"/>
     <use xlink:href="#m5dc9e55560" x="115.646533" y="223.851897" style="fill: #ff7763; stroke: #ff7763"/>
     <use xlink:href="#m5dc9e55560" x="120.805239" y="225.25674" style="fill: #ff7763; stroke: #ff7763"/>
     <use xlink:href="#m5dc9e55560" x="125.963945" y="234.517944" style="fill: #ff7763; stroke: #ff7763"/>
     <use xlink:href="#m5dc9e55560" x="131.12265" y="160.574204" style="fill: #ff7763; stroke: #ff7763"/>
     <use xlink:href="#m5dc9e55560" x="136.281356" y="243.047012" style="fill: #ff7763; stroke: #ff7763"/>
     <use xlink:href="#m5dc9e55560" x="141.440062" y="147.744718" style="fill: #ff7763; stroke: #ff7763"/>
     <use xlink:href="#m5dc9e55560" x="146.598767" y="141.067587" style="fill: #ff7763; stroke: #ff7763"/>
     <use xlink:href="#m5dc9e55560" x="151.757473" y="97.734169" style="fill: #ff7763; stroke: #ff7763"/>
     <use xlink:href="#m5dc9e55560" x="156.916179" y="179.187657" style="fill: #ff7763; stroke: #ff7763"/>
     <use xlink:href="#m5dc9e55560" x="162.074884" y="154.250426" style="fill: #ff7763; stroke: #ff7763"/>
     <use xlink:href="#m5dc9e55560" x="167.23359" y="155.009078" style="fill: #ff7763; stroke: #ff7763"/>
     <use xlink:href="#m5dc9e55560" x="172.392296" y="123.046417" style="fill: #ff7763; stroke: #ff7763"/>
     <use xlink:href="#m5dc9e55560" x="177.551002" y="139.280766" style="fill: #ff7763; stroke: #ff7763"/>
     <use xlink:href="#m5dc9e55560" x="182.709707" y="154.588598" style="fill: #ff7763; stroke: #ff7763"/>
     <use xlink:href="#m5dc9e55560" x="187.868413" y="136.239701" style="fill: #ff7763; stroke: #ff7763"/>
     <use xlink:href="#m5dc9e55560" x="193.027119" y="99.155459" style="fill: #ff7763; stroke: #ff7763"/>
     <use xlink:href="#m5dc9e55560" x="198.185824" y="136.037454" style="fill: #ff7763; stroke: #ff7763"/>
     <use xlink:href="#m5dc9e55560" x="203.34453" y="95.442526" style="fill: #ff7763; stroke: #ff7763"/>
     <use xlink:href="#m5dc9e55560" x="208.503236" y="95.442526" style="fill: #ff7763; stroke: #ff7763"/>
     <use xlink:href="#m5dc9e55560" x="213.661941" y="47.141636" style="fill: #ff7763; stroke: #ff7763"/>
     <use xlink:href="#m5dc9e55560" x="218.820647" y="47.148697" style="fill: #ff7763; stroke: #ff7763"/>
     <use xlink:href="#m5dc9e55560" x="223.979353" y="46.58926" style="fill: #ff7763; stroke: #ff7763"/>
     <use xlink:href="#m5dc9e55560" x="229.138059" y="46.58926" style="fill: #ff7763; stroke: #ff7763"/>
     <use xlink:href="#m5dc9e55560" x="234.296764" y="44.84039" style="fill: #ff7763; stroke: #ff7763"/>
     <use xlink:href="#m5dc9e55560" x="239.45547" y="46.588275" style="fill: #ff7763; stroke: #ff7763"/>
     <use xlink:href="#m5dc9e55560" x="244.614176" y="47.148189" style="fill: #ff7763; stroke: #ff7763"/>
     <use xlink:href="#m5dc9e55560" x="249.772881" y="43.81675" style="fill: #ff7763; stroke: #ff7763"/>
     <use xlink:href="#m5dc9e55560" x="254.931587" y="43.81559" style="fill: #ff7763; stroke: #ff7763"/>
     <use xlink:href="#m5dc9e55560" x="260.090293" y="43.81559" style="fill: #ff7763; stroke: #ff7763"/>
     <use xlink:href="#m5dc9e55560" x="265.248998" y="43.451135" style="fill: #ff7763; stroke: #ff7763"/>
     <use xlink:href="#m5dc9e55560" x="270.407704" y="43.45529" style="fill: #ff7763; stroke: #ff7763"/>
     <use xlink:href="#m5dc9e55560" x="275.56641" y="72.821226" style="fill: #ff7763; stroke: #ff7763"/>
     <use xlink:href="#m5dc9e55560" x="280.725116" y="72.817815" style="fill: #ff7763; stroke: #ff7763"/>
     <use xlink:href="#m5dc9e55560" x="285.883821" y="46.9583" style="fill: #ff7763; stroke: #ff7763"/>
     <use xlink:href="#m5dc9e55560" x="291.042527" y="46.301167" style="fill: #ff7763; stroke: #ff7763"/>
     <use xlink:href="#m5dc9e55560" x="296.201233" y="46.301167" style="fill: #ff7763; stroke: #ff7763"/>
     <use xlink:href="#m5dc9e55560" x="301.359938" y="46.30101" style="fill: #ff7763; stroke: #ff7763"/>
     <use xlink:href="#m5dc9e55560" x="306.518644" y="43.322714" style="fill: #ff7763; stroke: #ff7763"/>
     <use xlink:href="#m5dc9e55560" x="311.67735" y="43.322714" style="fill: #ff7763; stroke: #ff7763"/>
     <use xlink:href="#m5dc9e55560" x="316.836055" y="43.322714" style="fill: #ff7763; stroke: #ff7763"/>
     <use xlink:href="#m5dc9e55560" x="321.994761" y="43.322714" style="fill: #ff7763; stroke: #ff7763"/>
     <use xlink:href="#m5dc9e55560" x="327.153467" y="43.322714" style="fill: #ff7763; stroke: #ff7763"/>
     <use xlink:href="#m5dc9e55560" x="332.312173" y="43.322714" style="fill: #ff7763; stroke: #ff7763"/>
     <use xlink:href="#m5dc9e55560" x="337.470878" y="43.322401" style="fill: #ff7763; stroke: #ff7763"/>
     <use xlink:href="#m5dc9e55560" x="342.629584" y="43.322401" style="fill: #ff7763; stroke: #ff7763"/>
     <use xlink:href="#m5dc9e55560" x="347.78829" y="43.322674" style="fill: #ff7763; stroke: #ff7763"/>
     <use xlink:href="#m5dc9e55560" x="352.946995" y="43.324719" style="fill: #ff7763; stroke: #ff7763"/>
     <use xlink:href="#m5dc9e55560" x="358.105701" y="43.324719" style="fill: #ff7763; stroke: #ff7763"/>
     <use xlink:href="#m5dc9e55560" x="363.264407" y="43.324719" style="fill: #ff7763; stroke: #ff7763"/>
     <use xlink:href="#m5dc9e55560" x="368.423112" y="43.322674" style="fill: #ff7763; stroke: #ff7763"/>
     <use xlink:href="#m5dc9e55560" x="373.581818" y="43.324719" style="fill: #ff7763; stroke: #ff7763"/>
    </g>
   </g>
   <g id="line2d_32">
    <path d="M 69.218182 256.811798 
L 74.376888 252.915898 
L 79.535593 252.908818 
L 84.694299 253.836145 
L 89.853005 256.199189 
L 95.01171 253.925744 
L 100.170416 252.936999 
L 105.329122 252.908818 
L 110.487827 253.042662 
L 115.646533 256.046719 
L 120.805239 253.790352 
L 125.963945 252.908818 
L 131.12265 253.428135 
L 136.281356 262.685846 
L 141.440062 253.380944 
L 146.598767 262.83095 
L 151.757473 258.260769 
L 156.916179 254.537555 
L 162.074884 256.789977 
L 167.23359 252.99116 
L 172.392296 253.608813 
L 177.551002 252.908818 
L 182.709707 252.938387 
L 187.868413 262.97095 
L 193.027119 254.481659 
L 198.185824 252.981474 
L 203.34453 252.942794 
L 208.503236 253.028785 
L 213.661941 252.932256 
L 218.820647 180.416901 
L 223.979353 253.620324 
L 229.138059 252.937992 
L 234.296764 252.921929 
L 239.45547 253.022663 
L 244.614176 255.389194 
L 249.772881 253.285703 
L 254.931587 252.433746 
L 260.090293 251.282124 
L 265.248998 225.853426 
L 270.407704 246.912597 
L 275.56641 239.427622 
L 280.725116 233.712393 
L 285.883821 207.262847 
L 291.042527 234.754908 
L 296.201233 216.966056 
L 301.359938 192.618114 
L 306.518644 195.631392 
L 311.67735 195.353658 
L 316.836055 122.976186 
L 321.994761 100.276974 
L 327.153467 79.27516 
L 332.312173 53.033381 
L 337.470878 53.0325 
L 342.629584 53.176256 
L 347.78829 64.9232 
L 352.946995 65.556442 
L 358.105701 65.556442 
L 363.264407 65.556442 
L 368.423112 65.316416 
L 373.581818 65.315026 
" clip-path="url(#pe88fa055cd)" style="fill: none; stroke: #ffac1e; stroke-width: 1.5; stroke-linecap: square"/>
    <defs>
     <path id="m7f9a6189cd" d="M 0 -2 
L -0.449028 -0.618034 
L -1.902113 -0.618034 
L -0.726543 0.236068 
L -1.175571 1.618034 
L -0 0.763932 
L 1.175571 1.618034 
L 0.726543 0.236068 
L 1.902113 -0.618034 
L 0.449028 -0.618034 
z
" style="stroke: #ffac1e; stroke-linejoin: bevel"/>
    </defs>
    <g clip-path="url(#pe88fa055cd)">
     <use xlink:href="#m7f9a6189cd" x="69.218182" y="256.811798" style="fill: #ffac1e; stroke: #ffac1e; stroke-linejoin: bevel"/>
     <use xlink:href="#m7f9a6189cd" x="74.376888" y="252.915898" style="fill: #ffac1e; stroke: #ffac1e; stroke-linejoin: bevel"/>
     <use xlink:href="#m7f9a6189cd" x="79.535593" y="252.908818" style="fill: #ffac1e; stroke: #ffac1e; stroke-linejoin: bevel"/>
     <use xlink:href="#m7f9a6189cd" x="84.694299" y="253.836145" style="fill: #ffac1e; stroke: #ffac1e; stroke-linejoin: bevel"/>
     <use xlink:href="#m7f9a6189cd" x="89.853005" y="256.199189" style="fill: #ffac1e; stroke: #ffac1e; stroke-linejoin: bevel"/>
     <use xlink:href="#m7f9a6189cd" x="95.01171" y="253.925744" style="fill: #ffac1e; stroke: #ffac1e; stroke-linejoin: bevel"/>
     <use xlink:href="#m7f9a6189cd" x="100.170416" y="252.936999" style="fill: #ffac1e; stroke: #ffac1e; stroke-linejoin: bevel"/>
     <use xlink:href="#m7f9a6189cd" x="105.329122" y="252.908818" style="fill: #ffac1e; stroke: #ffac1e; stroke-linejoin: bevel"/>
     <use xlink:href="#m7f9a6189cd" x="110.487827" y="253.042662" style="fill: #ffac1e; stroke: #ffac1e; stroke-linejoin: bevel"/>
     <use xlink:href="#m7f9a6189cd" x="115.646533" y="256.046719" style="fill: #ffac1e; stroke: #ffac1e; stroke-linejoin: bevel"/>
     <use xlink:href="#m7f9a6189cd" x="120.805239" y="253.790352" style="fill: #ffac1e; stroke: #ffac1e; stroke-linejoin: bevel"/>
     <use xlink:href="#m7f9a6189cd" x="125.963945" y="252.908818" style="fill: #ffac1e; stroke: #ffac1e; stroke-linejoin: bevel"/>
     <use xlink:href="#m7f9a6189cd" x="131.12265" y="253.428135" style="fill: #ffac1e; stroke: #ffac1e; stroke-linejoin: bevel"/>
     <use xlink:href="#m7f9a6189cd" x="136.281356" y="262.685846" style="fill: #ffac1e; stroke: #ffac1e; stroke-linejoin: bevel"/>
     <use xlink:href="#m7f9a6189cd" x="141.440062" y="253.380944" style="fill: #ffac1e; stroke: #ffac1e; stroke-linejoin: bevel"/>
     <use xlink:href="#m7f9a6189cd" x="146.598767" y="262.83095" style="fill: #ffac1e; stroke: #ffac1e; stroke-linejoin: bevel"/>
     <use xlink:href="#m7f9a6189cd" x="151.757473" y="258.260769" style="fill: #ffac1e; stroke: #ffac1e; stroke-linejoin: bevel"/>
     <use xlink:href="#m7f9a6189cd" x="156.916179" y="254.537555" style="fill: #ffac1e; stroke: #ffac1e; stroke-linejoin: bevel"/>
     <use xlink:href="#m7f9a6189cd" x="162.074884" y="256.789977" style="fill: #ffac1e; stroke: #ffac1e; stroke-linejoin: bevel"/>
     <use xlink:href="#m7f9a6189cd" x="167.23359" y="252.99116" style="fill: #ffac1e; stroke: #ffac1e; stroke-linejoin: bevel"/>
     <use xlink:href="#m7f9a6189cd" x="172.392296" y="253.608813" style="fill: #ffac1e; stroke: #ffac1e; stroke-linejoin: bevel"/>
     <use xlink:href="#m7f9a6189cd" x="177.551002" y="252.908818" style="fill: #ffac1e; stroke: #ffac1e; stroke-linejoin: bevel"/>
     <use xlink:href="#m7f9a6189cd" x="182.709707" y="252.938387" style="fill: #ffac1e; stroke: #ffac1e; stroke-linejoin: bevel"/>
     <use xlink:href="#m7f9a6189cd" x="187.868413" y="262.97095" style="fill: #ffac1e; stroke: #ffac1e; stroke-linejoin: bevel"/>
     <use xlink:href="#m7f9a6189cd" x="193.027119" y="254.481659" style="fill: #ffac1e; stroke: #ffac1e; stroke-linejoin: bevel"/>
     <use xlink:href="#m7f9a6189cd" x="198.185824" y="252.981474" style="fill: #ffac1e; stroke: #ffac1e; stroke-linejoin: bevel"/>
     <use xlink:href="#m7f9a6189cd" x="203.34453" y="252.942794" style="fill: #ffac1e; stroke: #ffac1e; stroke-linejoin: bevel"/>
     <use xlink:href="#m7f9a6189cd" x="208.503236" y="253.028785" style="fill: #ffac1e; stroke: #ffac1e; stroke-linejoin: bevel"/>
     <use xlink:href="#m7f9a6189cd" x="213.661941" y="252.932256" style="fill: #ffac1e; stroke: #ffac1e; stroke-linejoin: bevel"/>
     <use xlink:href="#m7f9a6189cd" x="218.820647" y="180.416901" style="fill: #ffac1e; stroke: #ffac1e; stroke-linejoin: bevel"/>
     <use xlink:href="#m7f9a6189cd" x="223.979353" y="253.620324" style="fill: #ffac1e; stroke: #ffac1e; stroke-linejoin: bevel"/>
     <use xlink:href="#m7f9a6189cd" x="229.138059" y="252.937992" style="fill: #ffac1e; stroke: #ffac1e; stroke-linejoin: bevel"/>
     <use xlink:href="#m7f9a6189cd" x="234.296764" y="252.921929" style="fill: #ffac1e; stroke: #ffac1e; stroke-linejoin: bevel"/>
     <use xlink:href="#m7f9a6189cd" x="239.45547" y="253.022663" style="fill: #ffac1e; stroke: #ffac1e; stroke-linejoin: bevel"/>
     <use xlink:href="#m7f9a6189cd" x="244.614176" y="255.389194" style="fill: #ffac1e; stroke: #ffac1e; stroke-linejoin: bevel"/>
     <use xlink:href="#m7f9a6189cd" x="249.772881" y="253.285703" style="fill: #ffac1e; stroke: #ffac1e; stroke-linejoin: bevel"/>
     <use xlink:href="#m7f9a6189cd" x="254.931587" y="252.433746" style="fill: #ffac1e; stroke: #ffac1e; stroke-linejoin: bevel"/>
     <use xlink:href="#m7f9a6189cd" x="260.090293" y="251.282124" style="fill: #ffac1e; stroke: #ffac1e; stroke-linejoin: bevel"/>
     <use xlink:href="#m7f9a6189cd" x="265.248998" y="225.853426" style="fill: #ffac1e; stroke: #ffac1e; stroke-linejoin: bevel"/>
     <use xlink:href="#m7f9a6189cd" x="270.407704" y="246.912597" style="fill: #ffac1e; stroke: #ffac1e; stroke-linejoin: bevel"/>
     <use xlink:href="#m7f9a6189cd" x="275.56641" y="239.427622" style="fill: #ffac1e; stroke: #ffac1e; stroke-linejoin: bevel"/>
     <use xlink:href="#m7f9a6189cd" x="280.725116" y="233.712393" style="fill: #ffac1e; stroke: #ffac1e; stroke-linejoin: bevel"/>
     <use xlink:href="#m7f9a6189cd" x="285.883821" y="207.262847" style="fill: #ffac1e; stroke: #ffac1e; stroke-linejoin: bevel"/>
     <use xlink:href="#m7f9a6189cd" x="291.042527" y="234.754908" style="fill: #ffac1e; stroke: #ffac1e; stroke-linejoin: bevel"/>
     <use xlink:href="#m7f9a6189cd" x="296.201233" y="216.966056" style="fill: #ffac1e; stroke: #ffac1e; stroke-linejoin: bevel"/>
     <use xlink:href="#m7f9a6189cd" x="301.359938" y="192.618114" style="fill: #ffac1e; stroke: #ffac1e; stroke-linejoin: bevel"/>
     <use xlink:href="#m7f9a6189cd" x="306.518644" y="195.631392" style="fill: #ffac1e; stroke: #ffac1e; stroke-linejoin: bevel"/>
     <use xlink:href="#m7f9a6189cd" x="311.67735" y="195.353658" style="fill: #ffac1e; stroke: #ffac1e; stroke-linejoin: bevel"/>
     <use xlink:href="#m7f9a6189cd" x="316.836055" y="122.976186" style="fill: #ffac1e; stroke: #ffac1e; stroke-linejoin: bevel"/>
     <use xlink:href="#m7f9a6189cd" x="321.994761" y="100.276974" style="fill: #ffac1e; stroke: #ffac1e; stroke-linejoin: bevel"/>
     <use xlink:href="#m7f9a6189cd" x="327.153467" y="79.27516" style="fill: #ffac1e; stroke: #ffac1e; stroke-linejoin: bevel"/>
     <use xlink:href="#m7f9a6189cd" x="332.312173" y="53.033381" style="fill: #ffac1e; stroke: #ffac1e; stroke-linejoin: bevel"/>
     <use xlink:href="#m7f9a6189cd" x="337.470878" y="53.0325" style="fill: #ffac1e; stroke: #ffac1e; stroke-linejoin: bevel"/>
     <use xlink:href="#m7f9a6189cd" x="342.629584" y="53.176256" style="fill: #ffac1e; stroke: #ffac1e; stroke-linejoin: bevel"/>
     <use xlink:href="#m7f9a6189cd" x="347.78829" y="64.9232" style="fill: #ffac1e; stroke: #ffac1e; stroke-linejoin: bevel"/>
     <use xlink:href="#m7f9a6189cd" x="352.946995" y="65.556442" style="fill: #ffac1e; stroke: #ffac1e; stroke-linejoin: bevel"/>
     <use xlink:href="#m7f9a6189cd" x="358.105701" y="65.556442" style="fill: #ffac1e; stroke: #ffac1e; stroke-linejoin: bevel"/>
     <use xlink:href="#m7f9a6189cd" x="363.264407" y="65.556442" style="fill: #ffac1e; stroke: #ffac1e; stroke-linejoin: bevel"/>
     <use xlink:href="#m7f9a6189cd" x="368.423112" y="65.316416" style="fill: #ffac1e; stroke: #ffac1e; stroke-linejoin: bevel"/>
     <use xlink:href="#m7f9a6189cd" x="373.581818" y="65.315026" style="fill: #ffac1e; stroke: #ffac1e; stroke-linejoin: bevel"/>
    </g>
   </g>
   <g id="patch_3">
    <path d="M 54 252 
L 54 34.56 
" style="fill: none; stroke: #000000; stroke-width: 0.8; stroke-linejoin: miter; stroke-linecap: square"/>
   </g>
   <g id="patch_4">
    <path d="M 388.8 252 
L 388.8 34.56 
" style="fill: none; stroke: #000000; stroke-width: 0.8; stroke-linejoin: miter; stroke-linecap: square"/>
   </g>
   <g id="patch_5">
    <path d="M 54 252 
L 388.8 252 
" style="fill: none; stroke: #000000; stroke-width: 0.8; stroke-linejoin: miter; stroke-linecap: square"/>
   </g>
   <g id="patch_6">
    <path d="M 54 34.56 
L 388.8 34.56 
" style="fill: none; stroke: #000000; stroke-width: 0.8; stroke-linejoin: miter; stroke-linecap: square"/>
   </g>
   <g id="text_17">
    <!-- ζ-R-max optimal policy with m = 2.5 -->
    <g transform="translate(111.87 28.56)scale(0.12 -0.12)">
     <defs>
      <path id="DejaVuSans-3b6" d="M 2231 397 
Q 2644 394 2891 159 
Q 3153 -88 3153 -463 
Q 3153 -822 2922 -1072 
Q 2672 -1344 2163 -1344 
Q 2163 -1109 2163 -872 
Q 2378 -888 2509 -750 
Q 2609 -641 2609 -525 
Q 2609 -359 2509 -222 
Q 2413 -91 2231 -91 
Q 338 -91 334 1669 
Q 334 3206 2119 4284 
L 456 4284 
L 456 4863 
L 3175 4863 
L 3175 4284 
Q 913 3147 913 1669 
Q 913 397 2231 397 
z
" transform="scale(0.015625)"/>
      <path id="DejaVuSans-2d" d="M 313 2009 
L 1997 2009 
L 1997 1497 
L 313 1497 
L 313 2009 
z
" transform="scale(0.015625)"/>
      <path id="DejaVuSans-52" d="M 2841 2188 
Q 3044 2119 3236 1894 
Q 3428 1669 3622 1275 
L 4263 0 
L 3584 0 
L 2988 1197 
Q 2756 1666 2539 1819 
Q 2322 1972 1947 1972 
L 1259 1972 
L 1259 0 
L 628 0 
L 628 4666 
L 2053 4666 
Q 2853 4666 3247 4331 
Q 3641 3997 3641 3322 
Q 3641 2881 3436 2590 
Q 3231 2300 2841 2188 
z
M 1259 4147 
L 1259 2491 
L 2053 2491 
Q 2509 2491 2742 2702 
Q 2975 2913 2975 3322 
Q 2975 3731 2742 3939 
Q 2509 4147 2053 4147 
L 1259 4147 
z
" transform="scale(0.015625)"/>
      <path id="DejaVuSans-6d" d="M 3328 2828 
Q 3544 3216 3844 3400 
Q 4144 3584 4550 3584 
Q 5097 3584 5394 3201 
Q 5691 2819 5691 2113 
L 5691 0 
L 5113 0 
L 5113 2094 
Q 5113 2597 4934 2840 
Q 4756 3084 4391 3084 
Q 3944 3084 3684 2787 
Q 3425 2491 3425 1978 
L 3425 0 
L 2847 0 
L 2847 2094 
Q 2847 2600 2669 2842 
Q 2491 3084 2119 3084 
Q 1678 3084 1418 2786 
Q 1159 2488 1159 1978 
L 1159 0 
L 581 0 
L 581 3500 
L 1159 3500 
L 1159 2956 
Q 1356 3278 1631 3431 
Q 1906 3584 2284 3584 
Q 2666 3584 2933 3390 
Q 3200 3197 3328 2828 
z
" transform="scale(0.015625)"/>
      <path id="DejaVuSans-78" d="M 3513 3500 
L 2247 1797 
L 3578 0 
L 2900 0 
L 1881 1375 
L 863 0 
L 184 0 
L 1544 1831 
L 300 3500 
L 978 3500 
L 1906 2253 
L 2834 3500 
L 3513 3500 
z
" transform="scale(0.015625)"/>
      <path id="DejaVuSans-77" d="M 269 3500 
L 844 3500 
L 1563 769 
L 2278 3500 
L 2956 3500 
L 3675 769 
L 4391 3500 
L 4966 3500 
L 4050 0 
L 3372 0 
L 2619 2869 
L 1863 0 
L 1184 0 
L 269 3500 
z
" transform="scale(0.015625)"/>
      <path id="DejaVuSans-68" d="M 3513 2113 
L 3513 0 
L 2938 0 
L 2938 2094 
Q 2938 2591 2744 2837 
Q 2550 3084 2163 3084 
Q 1697 3084 1428 2787 
Q 1159 2491 1159 1978 
L 1159 0 
L 581 0 
L 581 4863 
L 1159 4863 
L 1159 2956 
Q 1366 3272 1645 3428 
Q 1925 3584 2291 3584 
Q 2894 3584 3203 3211 
Q 3513 2838 3513 2113 
z
" transform="scale(0.015625)"/>
      <path id="DejaVuSans-3d" d="M 678 2906 
L 4684 2906 
L 4684 2381 
L 678 2381 
L 678 2906 
z
M 678 1631 
L 4684 1631 
L 4684 1100 
L 678 1100 
L 678 1631 
z
" transform="scale(0.015625)"/>
      <path id="DejaVuSans-2e" d="M 684 794 
L 1344 794 
L 1344 0 
L 684 0 
L 684 794 
z
" transform="scale(0.015625)"/>
     </defs>
     <use xlink:href="#DejaVuSans-3b6"/>
     <use xlink:href="#DejaVuSans-2d" x="54.394531"/>
     <use xlink:href="#DejaVuSans-52" x="90.478516"/>
     <use xlink:href="#DejaVuSans-2d" x="155.960938"/>
     <use xlink:href="#DejaVuSans-6d" x="192.044922"/>
     <use xlink:href="#DejaVuSans-61" x="289.457031"/>
     <use xlink:href="#DejaVuSans-78" x="350.736328"/>
     <use xlink:href="#DejaVuSans-20" x="409.916016"/>
     <use xlink:href="#DejaVuSans-6f" x="441.703125"/>
     <use xlink:href="#DejaVuSans-70" x="502.884766"/>
     <use xlink:href="#DejaVuSans-74" x="566.361328"/>
     <use xlink:href="#DejaVuSans-69" x="605.570312"/>
     <use xlink:href="#DejaVuSans-6d" x="633.353516"/>
     <use xlink:href="#DejaVuSans-61" x="730.765625"/>
     <use xlink:href="#DejaVuSans-6c" x="792.044922"/>
     <use xlink:href="#DejaVuSans-20" x="819.828125"/>
     <use xlink:href="#DejaVuSans-70" x="851.615234"/>
     <use xlink:href="#DejaVuSans-6f" x="915.091797"/>
     <use xlink:href="#DejaVuSans-6c" x="976.273438"/>
     <use xlink:href="#DejaVuSans-69" x="1004.056641"/>
     <use xlink:href="#DejaVuSans-63" x="1031.839844"/>
     <use xlink:href="#DejaVuSans-79" x="1086.820312"/>
     <use xlink:href="#DejaVuSans-20" x="1146"/>
     <use xlink:href="#DejaVuSans-77" x="1177.787109"/>
     <use xlink:href="#DejaVuSans-69" x="1259.574219"/>
     <use xlink:href="#DejaVuSans-74" x="1287.357422"/>
     <use xlink:href="#DejaVuSans-68" x="1326.566406"/>
     <use xlink:href="#DejaVuSans-20" x="1389.945312"/>
     <use xlink:href="#DejaVuSans-6d" x="1421.732422"/>
     <use xlink:href="#DejaVuSans-20" x="1519.144531"/>
     <use xlink:href="#DejaVuSans-3d" x="1550.931641"/>
     <use xlink:href="#DejaVuSans-20" x="1634.720703"/>
     <use xlink:href="#DejaVuSans-32" x="1666.507812"/>
     <use xlink:href="#DejaVuSans-2e" x="1730.130859"/>
     <use xlink:href="#DejaVuSans-35" x="1761.917969"/>
    </g>
   </g>
   <g id="legend_1">
    <g id="patch_7">
     <path d="M 61 101.2725 
L 145.003125 101.2725 
Q 147.003125 101.2725 147.003125 99.2725 
L 147.003125 41.56 
Q 147.003125 39.56 145.003125 39.56 
L 61 39.56 
Q 59 39.56 59 41.56 
L 59 99.2725 
Q 59 101.2725 61 101.2725 
z
" style="fill: #ffffff; opacity: 0.8; stroke: #cccccc; stroke-linejoin: miter"/>
    </g>
    <g id="line2d_33">
     <path d="M 63 47.658437 
L 73 47.658437 
L 83 47.658437 
" style="fill: none; stroke: #9d02d7; stroke-width: 1.5; stroke-linecap: square"/>
     <g>
      <use xlink:href="#m48cfa6e037" x="73" y="47.658437" style="fill: #9d02d7; stroke: #9d02d7; stroke-linejoin: miter"/>
     </g>
    </g>
    <g id="text_18">
     <!-- alpha=2.5 -->
     <g transform="translate(91 51.158437)scale(0.1 -0.1)">
      <use xlink:href="#DejaVuSans-61"/>
      <use xlink:href="#DejaVuSans-6c" x="61.279297"/>
      <use xlink:href="#DejaVuSans-70" x="89.0625"/>
      <use xlink:href="#DejaVuSans-68" x="152.539062"/>
      <use xlink:href="#DejaVuSans-61" x="215.917969"/>
      <use xlink:href="#DejaVuSans-3d" x="277.197266"/>
      <use xlink:href="#DejaVuSans-32" x="360.986328"/>
      <use xlink:href="#DejaVuSans-2e" x="424.609375"/>
      <use xlink:href="#DejaVuSans-35" x="456.396484"/>
     </g>
    </g>
    <g id="line2d_34">
     <path d="M 63 62.336562 
L 73 62.336562 
L 83 62.336562 
" style="fill: none; stroke: #0000ff; stroke-width: 1.5; stroke-linecap: square"/>
     <g>
      <use xlink:href="#m0e24ac95b5" x="73" y="62.336562" style="fill: #0000ff; stroke: #0000ff"/>
     </g>
    </g>
    <g id="text_19">
     <!-- alpha=3.0 -->
     <g transform="translate(91 65.836562)scale(0.1 -0.1)">
      <use xlink:href="#DejaVuSans-61"/>
      <use xlink:href="#DejaVuSans-6c" x="61.279297"/>
      <use xlink:href="#DejaVuSans-70" x="89.0625"/>
      <use xlink:href="#DejaVuSans-68" x="152.539062"/>
      <use xlink:href="#DejaVuSans-61" x="215.917969"/>
      <use xlink:href="#DejaVuSans-3d" x="277.197266"/>
      <use xlink:href="#DejaVuSans-33" x="360.986328"/>
      <use xlink:href="#DejaVuSans-2e" x="424.609375"/>
      <use xlink:href="#DejaVuSans-30" x="456.396484"/>
     </g>
    </g>
    <g id="line2d_35">
     <path d="M 63 77.014687 
L 73 77.014687 
L 83 77.014687 
" style="fill: none; stroke: #ff7763; stroke-width: 1.5; stroke-linecap: square"/>
     <g>
      <use xlink:href="#m5dc9e55560" x="73" y="77.014687" style="fill: #ff7763; stroke: #ff7763"/>
     </g>
    </g>
    <g id="text_20">
     <!-- alpha=3.5 -->
     <g transform="translate(91 80.514687)scale(0.1 -0.1)">
      <use xlink:href="#DejaVuSans-61"/>
      <use xlink:href="#DejaVuSans-6c" x="61.279297"/>
      <use xlink:href="#DejaVuSans-70" x="89.0625"/>
      <use xlink:href="#DejaVuSans-68" x="152.539062"/>
      <use xlink:href="#DejaVuSans-61" x="215.917969"/>
      <use xlink:href="#DejaVuSans-3d" x="277.197266"/>
      <use xlink:href="#DejaVuSans-33" x="360.986328"/>
      <use xlink:href="#DejaVuSans-2e" x="424.609375"/>
      <use xlink:href="#DejaVuSans-35" x="456.396484"/>
     </g>
    </g>
    <g id="line2d_36">
     <path d="M 63 91.692813 
L 73 91.692813 
L 83 91.692813 
" style="fill: none; stroke: #ffac1e; stroke-width: 1.5; stroke-linecap: square"/>
     <g>
      <use xlink:href="#m7f9a6189cd" x="73" y="91.692813" style="fill: #ffac1e; stroke: #ffac1e; stroke-linejoin: bevel"/>
     </g>
    </g>
    <g id="text_21">
     <!-- alpha=4.0 -->
     <g transform="translate(91 95.192813)scale(0.1 -0.1)">
      <use xlink:href="#DejaVuSans-61"/>
      <use xlink:href="#DejaVuSans-6c" x="61.279297"/>
      <use xlink:href="#DejaVuSans-70" x="89.0625"/>
      <use xlink:href="#DejaVuSans-68" x="152.539062"/>
      <use xlink:href="#DejaVuSans-61" x="215.917969"/>
      <use xlink:href="#DejaVuSans-3d" x="277.197266"/>
      <use xlink:href="#DejaVuSans-34" x="360.986328"/>
      <use xlink:href="#DejaVuSans-2e" x="424.609375"/>
      <use xlink:href="#DejaVuSans-30" x="456.396484"/>
     </g>
    </g>
   </g>
  </g>
 </g>
 <defs>
  <clipPath id="pe88fa055cd">
   <rect x="54" y="34.56" width="334.8" height="217.44"/>
  </clipPath>
 </defs>
</svg>
