<?xml version="1.0" encoding="utf-8" standalone="no"?>
<!DOCTYPE svg PUBLIC "-//W3C//DTD SVG 1.1//EN"
  "http://www.w3.org/Graphics/SVG/1.1/DTD/svg11.dtd">
<svg xmlns:xlink="http://www.w3.org/1999/xlink" width="432pt" height="288pt" viewBox="0 0 432 288" xmlns="http://www.w3.org/2000/svg" version="1.1">
 <metadata>
  <rdf:RDF xmlns:dc="http://purl.org/dc/elements/1.1/" xmlns:cc="http://creativecommons.org/ns#" xmlns:rdf="http://www.w3.org/1999/02/22-rdf-syntax-ns#">
   <cc:Work>
    <dc:type rdf:resource="http://purl.org/dc/dcmitype/StillImage"/>
    <dc:date>2023-01-11T15:37:02.881970</dc:date>
    <dc:format>image/svg+xml</dc:format>
    <dc:creator>
     <cc:Agent>
      <dc:title>Matplotlib v3.5.2, https://matplotlib.org/</dc:title>
     </cc:Agent>
    </dc:creator>
   </cc:Work>
  </rdf:RDF>
 </metadata>
 <defs>
  <style type="text/css">*{stroke-linejoin: round; stroke-linecap: butt}</style>
 </defs>
 <g id="figure_1">
  <g id="patch_1">
   <path d="M 0 288 
L 432 288 
L 432 0 
L 0 0 
z
" style="fill: #ffffff"/>
  </g>
  <g id="axes_1">
   <g id="patch_2">
    <path d="M 54 252 
L 388.8 252 
L 388.8 34.56 
L 54 34.56 
z
" style="fill: #ffffff"/>
   </g>
   <g id="PolyCollection_1">
    <defs>
     <path id="m386944be7d" d="M 69.218182 -33.233774 
L 69.218182 -33.233774 
L 74.376888 -34.906388 
L 79.535593 -33.560708 
L 84.694299 -33.399945 
L 89.853005 -15.016349 
L 95.01171 -31.174189 
L 100.170416 -42.007938 
L 105.329122 -29.893372 
L 110.487827 -31.130736 
L 115.646533 -23.511568 
L 120.805239 -34.455531 
L 125.963945 -27.552551 
L 131.12265 -29.890549 
L 136.281356 -32.473963 
L 141.440062 -34.326442 
L 146.598767 -37.978653 
L 151.757473 -34.447192 
L 156.916179 -27.41257 
L 162.074884 -58.012418 
L 167.23359 -35.548158 
L 172.392296 -38.091165 
L 177.551002 -34.867214 
L 182.709707 -35.287703 
L 187.868413 -32.889065 
L 193.027119 -31.384918 
L 198.185824 -39.200658 
L 203.34453 -38.003656 
L 208.503236 -238.136499 
L 213.661941 -204.947376 
L 218.820647 -209.087878 
L 223.979353 -205.415761 
L 229.138059 -209.936577 
L 234.296764 -234.30564 
L 239.45547 -234.30564 
L 244.614176 -234.30564 
L 249.772881 -234.30564 
L 254.931587 -234.30564 
L 260.090293 -234.30564 
L 265.248998 -239.508082 
L 270.407704 -239.508082 
L 275.56641 -242.230159 
L 280.725116 -242.230159 
L 285.883821 -242.230159 
L 291.042527 -242.158395 
L 296.201233 -236.408516 
L 301.359938 -236.316678 
L 306.518644 -236.316678 
L 311.67735 -240.135557 
L 316.836055 -240.135557 
L 321.994761 -240.135557 
L 327.153467 -240.135557 
L 332.312173 -240.135557 
L 337.470878 -240.135557 
L 342.629584 -240.135557 
L 347.78829 -240.135557 
L 352.946995 -240.135557 
L 358.105701 -240.135557 
L 363.264407 -236.408516 
L 368.423112 -239.42874 
L 373.581818 -238.95383 
L 373.581818 -238.95383 
L 373.581818 -238.95383 
L 368.423112 -239.42874 
L 363.264407 -236.408516 
L 358.105701 -240.135557 
L 352.946995 -240.135557 
L 347.78829 -240.135557 
L 342.629584 -240.135557 
L 337.470878 -240.135557 
L 332.312173 -240.135557 
L 327.153467 -240.135557 
L 321.994761 -240.135557 
L 316.836055 -240.135557 
L 311.67735 -240.135557 
L 306.518644 -236.316678 
L 301.359938 -236.316678 
L 296.201233 -236.408516 
L 291.042527 -242.158395 
L 285.883821 -242.230159 
L 280.725116 -242.230159 
L 275.56641 -242.230159 
L 270.407704 -239.508082 
L 265.248998 -239.508082 
L 260.090293 -234.30564 
L 254.931587 -234.30564 
L 249.772881 -234.30564 
L 244.614176 -234.30564 
L 239.45547 -234.30564 
L 234.296764 -234.30564 
L 229.138059 -209.936577 
L 223.979353 -205.415761 
L 218.820647 -209.087878 
L 213.661941 -204.947376 
L 208.503236 -238.136499 
L 203.34453 -38.003656 
L 198.185824 -39.200658 
L 193.027119 -31.384918 
L 187.868413 -32.889065 
L 182.709707 -35.287703 
L 177.551002 -34.867214 
L 172.392296 -38.091165 
L 167.23359 -35.548158 
L 162.074884 -58.012418 
L 156.916179 -27.41257 
L 151.757473 -34.447192 
L 146.598767 -37.978653 
L 141.440062 -34.326442 
L 136.281356 -32.473963 
L 131.12265 -29.890549 
L 125.963945 -27.552551 
L 120.805239 -34.455531 
L 115.646533 -23.511568 
L 110.487827 -31.130736 
L 105.329122 -29.893372 
L 100.170416 -42.007938 
L 95.01171 -31.174189 
L 89.853005 -15.016349 
L 84.694299 -33.399945 
L 79.535593 -33.560708 
L 74.376888 -34.906388 
L 69.218182 -33.233774 
z
" style="stroke: #9d02d7; stroke-opacity: 0.2"/>
    </defs>
    <g clip-path="url(#p9d64475f34)">
     <use xlink:href="#m386944be7d" x="0" y="288" style="fill: #9d02d7; fill-opacity: 0.2; stroke: #9d02d7; stroke-opacity: 0.2"/>
    </g>
   </g>
   <g id="PolyCollection_2">
    <defs>
     <path id="md6f7d44528" d="M 69.218182 -33.006088 
L 69.218182 -33.006088 
L 74.376888 -35.091182 
L 79.535593 -34.052595 
L 84.694299 -33.403172 
L 89.853005 -32.40219 
L 95.01171 -32.295134 
L 100.170416 -34.222638 
L 105.329122 -49.163359 
L 110.487827 -33.5536 
L 115.646533 -33.272947 
L 120.805239 -32.422929 
L 125.963945 -32.678802 
L 131.12265 -28.525666 
L 136.281356 -32.078095 
L 141.440062 -35.749869 
L 146.598767 -31.830917 
L 151.757473 -29.432432 
L 156.916179 -32.421277 
L 162.074884 -24.764815 
L 167.23359 -29.100042 
L 172.392296 -34.507782 
L 177.551002 -56.685609 
L 182.709707 -83.777538 
L 187.868413 -20.164171 
L 193.027119 -37.630925 
L 198.185824 -29.685519 
L 203.34453 -33.779511 
L 208.503236 -22.884433 
L 213.661941 -152.432308 
L 218.820647 -33.882896 
L 223.979353 -46.578255 
L 229.138059 -214.870944 
L 234.296764 -232.817135 
L 239.45547 -232.980614 
L 244.614176 -232.980614 
L 249.772881 -232.980614 
L 254.931587 -233.303362 
L 260.090293 -233.303362 
L 265.248998 -213.651985 
L 270.407704 -217.628582 
L 275.56641 -228.209234 
L 280.725116 -227.844796 
L 285.883821 -227.844796 
L 291.042527 -235.458606 
L 296.201233 -235.458606 
L 301.359938 -234.445134 
L 306.518644 -234.445134 
L 311.67735 -234.445134 
L 316.836055 -228.673247 
L 321.994761 -228.673247 
L 327.153467 -236.445237 
L 332.312173 -236.445237 
L 337.470878 -241.40438 
L 342.629584 -241.40438 
L 347.78829 -241.40438 
L 352.946995 -241.40438 
L 358.105701 -241.40438 
L 363.264407 -241.40438 
L 368.423112 -241.40438 
L 373.581818 -241.40438 
L 373.581818 -241.40438 
L 373.581818 -241.40438 
L 368.423112 -241.40438 
L 363.264407 -241.40438 
L 358.105701 -241.40438 
L 352.946995 -241.40438 
L 347.78829 -241.40438 
L 342.629584 -241.40438 
L 337.470878 -241.40438 
L 332.312173 -236.445237 
L 327.153467 -236.445237 
L 321.994761 -228.673247 
L 316.836055 -228.673247 
L 311.67735 -234.445134 
L 306.518644 -234.445134 
L 301.359938 -234.445134 
L 296.201233 -235.458606 
L 291.042527 -235.458606 
L 285.883821 -227.844796 
L 280.725116 -227.844796 
L 275.56641 -228.209234 
L 270.407704 -217.628582 
L 265.248998 -213.651985 
L 260.090293 -233.303362 
L 254.931587 -233.303362 
L 249.772881 -232.980614 
L 244.614176 -232.980614 
L 239.45547 -232.980614 
L 234.296764 -232.817135 
L 229.138059 -214.870944 
L 223.979353 -46.578255 
L 218.820647 -33.882896 
L 213.661941 -152.432308 
L 208.503236 -22.884433 
L 203.34453 -33.779511 
L 198.185824 -29.685519 
L 193.027119 -37.630925 
L 187.868413 -20.164171 
L 182.709707 -83.777538 
L 177.551002 -56.685609 
L 172.392296 -34.507782 
L 167.23359 -29.100042 
L 162.074884 -24.764815 
L 156.916179 -32.421277 
L 151.757473 -29.432432 
L 146.598767 -31.830917 
L 141.440062 -35.749869 
L 136.281356 -32.078095 
L 131.12265 -28.525666 
L 125.963945 -32.678802 
L 120.805239 -32.422929 
L 115.646533 -33.272947 
L 110.487827 -33.5536 
L 105.329122 -49.163359 
L 100.170416 -34.222638 
L 95.01171 -32.295134 
L 89.853005 -32.40219 
L 84.694299 -33.403172 
L 79.535593 -34.052595 
L 74.376888 -35.091182 
L 69.218182 -33.006088 
z
" style="stroke: #0000ff; stroke-opacity: 0.2"/>
    </defs>
    <g clip-path="url(#p9d64475f34)">
     <use xlink:href="#md6f7d44528" x="0" y="288" style="fill: #0000ff; fill-opacity: 0.2; stroke: #0000ff; stroke-opacity: 0.2"/>
    </g>
   </g>
   <g id="PolyCollection_3">
    <defs>
     <path id="m7489a1fac1" d="M 69.218182 -35.083381 
L 69.218182 -35.083381 
L 74.376888 -34.069841 
L 79.535593 -34.738121 
L 84.694299 -40.794604 
L 89.853005 -34.630626 
L 95.01171 -34.846487 
L 100.170416 -34.598055 
L 105.329122 -30.444747 
L 110.487827 -32.866423 
L 115.646533 -63.503947 
L 120.805239 -31.394654 
L 125.963945 -27.567067 
L 131.12265 -29.840052 
L 136.281356 -32.134477 
L 141.440062 -33.389311 
L 146.598767 -34.71887 
L 151.757473 -34.668929 
L 156.916179 -52.283443 
L 162.074884 -34.551003 
L 167.23359 -33.746419 
L 172.392296 -45.048945 
L 177.551002 -35.3044 
L 182.709707 -34.686487 
L 187.868413 -34.570941 
L 193.027119 -34.536191 
L 198.185824 -36.357057 
L 203.34453 -33.3729 
L 208.503236 -45.316169 
L 213.661941 -34.224053 
L 218.820647 -33.981113 
L 223.979353 -33.666473 
L 229.138059 -33.570846 
L 234.296764 -39.009794 
L 239.45547 -32.352621 
L 244.614176 -29.864875 
L 249.772881 -30.570701 
L 254.931587 -46.904698 
L 260.090293 -30.602083 
L 265.248998 -204.265144 
L 270.407704 -186.151884 
L 275.56641 -196.42547 
L 280.725116 -218.284254 
L 285.883821 -232.060913 
L 291.042527 -236.246231 
L 296.201233 -236.246231 
L 301.359938 -229.653601 
L 306.518644 -230.966348 
L 311.67735 -236.246231 
L 316.836055 -236.246231 
L 321.994761 -236.246231 
L 327.153467 -236.246231 
L 332.312173 -236.246231 
L 337.470878 -239.19173 
L 342.629584 -239.191688 
L 347.78829 -239.191688 
L 352.946995 -239.191688 
L 358.105701 -239.191688 
L 363.264407 -239.191688 
L 368.423112 -239.451596 
L 373.581818 -239.191688 
L 373.581818 -239.191688 
L 373.581818 -239.191688 
L 368.423112 -239.451596 
L 363.264407 -239.191688 
L 358.105701 -239.191688 
L 352.946995 -239.191688 
L 347.78829 -239.191688 
L 342.629584 -239.191688 
L 337.470878 -239.19173 
L 332.312173 -236.246231 
L 327.153467 -236.246231 
L 321.994761 -236.246231 
L 316.836055 -236.246231 
L 311.67735 -236.246231 
L 306.518644 -230.966348 
L 301.359938 -229.653601 
L 296.201233 -236.246231 
L 291.042527 -236.246231 
L 285.883821 -232.060913 
L 280.725116 -218.284254 
L 275.56641 -196.42547 
L 270.407704 -186.151884 
L 265.248998 -204.265144 
L 260.090293 -30.602083 
L 254.931587 -46.904698 
L 249.772881 -30.570701 
L 244.614176 -29.864875 
L 239.45547 -32.352621 
L 234.296764 -39.009794 
L 229.138059 -33.570846 
L 223.979353 -33.666473 
L 218.820647 -33.981113 
L 213.661941 -34.224053 
L 208.503236 -45.316169 
L 203.34453 -33.3729 
L 198.185824 -36.357057 
L 193.027119 -34.536191 
L 187.868413 -34.570941 
L 182.709707 -34.686487 
L 177.551002 -35.3044 
L 172.392296 -45.048945 
L 167.23359 -33.746419 
L 162.074884 -34.551003 
L 156.916179 -52.283443 
L 151.757473 -34.668929 
L 146.598767 -34.71887 
L 141.440062 -33.389311 
L 136.281356 -32.134477 
L 131.12265 -29.840052 
L 125.963945 -27.567067 
L 120.805239 -31.394654 
L 115.646533 -63.503947 
L 110.487827 -32.866423 
L 105.329122 -30.444747 
L 100.170416 -34.598055 
L 95.01171 -34.846487 
L 89.853005 -34.630626 
L 84.694299 -40.794604 
L 79.535593 -34.738121 
L 74.376888 -34.069841 
L 69.218182 -35.083381 
z
" style="stroke: #ff7763; stroke-opacity: 0.2"/>
    </defs>
    <g clip-path="url(#p9d64475f34)">
     <use xlink:href="#m7489a1fac1" x="0" y="288" style="fill: #ff7763; fill-opacity: 0.2; stroke: #ff7763; stroke-opacity: 0.2"/>
    </g>
   </g>
   <g id="PolyCollection_4">
    <defs>
     <path id="m7e103053f3" d="M 69.218182 -34.704016 
L 69.218182 -34.704016 
L 74.376888 -35.064732 
L 79.535593 -35.019613 
L 84.694299 -23.918175 
L 89.853005 -35.091182 
L 95.01171 -33.331965 
L 100.170416 -34.664438 
L 105.329122 -32.132647 
L 110.487827 -27.473469 
L 115.646533 -31.255551 
L 120.805239 -33.095171 
L 125.963945 -32.104845 
L 131.12265 -31.736561 
L 136.281356 -42.676386 
L 141.440062 -30.647974 
L 146.598767 -34.832154 
L 151.757473 -32.571575 
L 156.916179 -32.988649 
L 162.074884 -34.729783 
L 167.23359 -58.141318 
L 172.392296 -34.506598 
L 177.551002 -33.850684 
L 182.709707 -34.487852 
L 187.868413 -32.150637 
L 193.027119 -33.963045 
L 198.185824 -35.38062 
L 203.34453 -40.798892 
L 208.503236 -62.281039 
L 213.661941 -35.712806 
L 218.820647 -36.960014 
L 223.979353 -35.919124 
L 229.138059 -37.186856 
L 234.296764 -33.40005 
L 239.45547 -41.315116 
L 244.614176 -93.803244 
L 249.772881 -38.176646 
L 254.931587 -84.413916 
L 260.090293 -118.828943 
L 265.248998 -22.40087 
L 270.407704 -36.960002 
L 275.56641 -157.291087 
L 280.725116 -139.935132 
L 285.883821 -192.98138 
L 291.042527 -179.368421 
L 296.201233 -179.368421 
L 301.359938 -179.368421 
L 306.518644 -227.034774 
L 311.67735 -227.034774 
L 316.836055 -227.034774 
L 321.994761 -221.047206 
L 327.153467 -221.047206 
L 332.312173 -227.053655 
L 337.470878 -231.081127 
L 342.629584 -231.081127 
L 347.78829 -231.041973 
L 352.946995 -234.524281 
L 358.105701 -237.273726 
L 363.264407 -237.273726 
L 368.423112 -236.540702 
L 373.581818 -236.540702 
L 373.581818 -236.540702 
L 373.581818 -236.540702 
L 368.423112 -236.540702 
L 363.264407 -237.273726 
L 358.105701 -237.273726 
L 352.946995 -234.524281 
L 347.78829 -231.041973 
L 342.629584 -231.081127 
L 337.470878 -231.081127 
L 332.312173 -227.053655 
L 327.153467 -221.047206 
L 321.994761 -221.047206 
L 316.836055 -227.034774 
L 311.67735 -227.034774 
L 306.518644 -227.034774 
L 301.359938 -179.368421 
L 296.201233 -179.368421 
L 291.042527 -179.368421 
L 285.883821 -192.98138 
L 280.725116 -139.935132 
L 275.56641 -157.291087 
L 270.407704 -36.960002 
L 265.248998 -22.40087 
L 260.090293 -118.828943 
L 254.931587 -84.413916 
L 249.772881 -38.176646 
L 244.614176 -93.803244 
L 239.45547 -41.315116 
L 234.296764 -33.40005 
L 229.138059 -37.186856 
L 223.979353 -35.919124 
L 218.820647 -36.960014 
L 213.661941 -35.712806 
L 208.503236 -62.281039 
L 203.34453 -40.798892 
L 198.185824 -35.38062 
L 193.027119 -33.963045 
L 187.868413 -32.150637 
L 182.709707 -34.487852 
L 177.551002 -33.850684 
L 172.392296 -34.506598 
L 167.23359 -58.141318 
L 162.074884 -34.729783 
L 156.916179 -32.988649 
L 151.757473 -32.571575 
L 146.598767 -34.832154 
L 141.440062 -30.647974 
L 136.281356 -42.676386 
L 131.12265 -31.736561 
L 125.963945 -32.104845 
L 120.805239 -33.095171 
L 115.646533 -31.255551 
L 110.487827 -27.473469 
L 105.329122 -32.132647 
L 100.170416 -34.664438 
L 95.01171 -33.331965 
L 89.853005 -35.091182 
L 84.694299 -23.918175 
L 79.535593 -35.019613 
L 74.376888 -35.064732 
L 69.218182 -34.704016 
z
" style="stroke: #ffac1e; stroke-opacity: 0.2"/>
    </defs>
    <g clip-path="url(#p9d64475f34)">
     <use xlink:href="#m7e103053f3" x="0" y="288" style="fill: #ffac1e; fill-opacity: 0.2; stroke: #ffac1e; stroke-opacity: 0.2"/>
    </g>
   </g>
   <g id="PolyCollection_5">
    <defs>
     <path id="m52f3aeaac1" d="M 69.218182 -31.03067 
L 69.218182 -31.03067 
L 74.376888 -34.487095 
L 79.535593 -35.28878 
L 84.694299 -35.091182 
L 89.853005 -35.07715 
L 95.01171 -23.861023 
L 100.170416 -28.890528 
L 105.329122 -31.307641 
L 110.487827 -34.434279 
L 115.646533 -30.850607 
L 120.805239 -26.298268 
L 125.963945 -25.256168 
L 131.12265 -25.283769 
L 136.281356 -33.649259 
L 141.440062 -34.920448 
L 146.598767 -22.828781 
L 151.757473 -37.940704 
L 156.916179 -31.193201 
L 162.074884 -33.845191 
L 167.23359 -34.578576 
L 172.392296 -33.091103 
L 177.551002 -31.838505 
L 182.709707 -34.298664 
L 187.868413 -34.936309 
L 193.027119 -20.239019 
L 198.185824 -29.232351 
L 203.34453 -26.813221 
L 208.503236 -43.705506 
L 213.661941 -34.164064 
L 218.820647 -47.06985 
L 223.979353 -34.852747 
L 229.138059 -35.019706 
L 234.296764 -63.557836 
L 239.45547 -35.374894 
L 244.614176 -36.611279 
L 249.772881 -109.356917 
L 254.931587 -45.506409 
L 260.090293 -35.216994 
L 265.248998 -39.3092 
L 270.407704 -35.839918 
L 275.56641 -35.572885 
L 280.725116 -34.0115 
L 285.883821 -33.829677 
L 291.042527 -169.352648 
L 296.201233 -52.868819 
L 301.359938 -147.769858 
L 306.518644 -214.596975 
L 311.67735 -199.651049 
L 316.836055 -199.651049 
L 321.994761 -228.270482 
L 327.153467 -228.228821 
L 332.312173 -216.659598 
L 337.470878 -211.787895 
L 342.629584 -224.504586 
L 347.78829 -215.082347 
L 352.946995 -228.392583 
L 358.105701 -223.829693 
L 363.264407 -222.640448 
L 368.423112 -229.323327 
L 373.581818 -223.000811 
L 373.581818 -223.000811 
L 373.581818 -223.000811 
L 368.423112 -229.323327 
L 363.264407 -222.640448 
L 358.105701 -223.829693 
L 352.946995 -228.392583 
L 347.78829 -215.082347 
L 342.629584 -224.504586 
L 337.470878 -211.787895 
L 332.312173 -216.659598 
L 327.153467 -228.228821 
L 321.994761 -228.270482 
L 316.836055 -199.651049 
L 311.67735 -199.651049 
L 306.518644 -214.596975 
L 301.359938 -147.769858 
L 296.201233 -52.868819 
L 291.042527 -169.352648 
L 285.883821 -33.829677 
L 280.725116 -34.0115 
L 275.56641 -35.572885 
L 270.407704 -35.839918 
L 265.248998 -39.3092 
L 260.090293 -35.216994 
L 254.931587 -45.506409 
L 249.772881 -109.356917 
L 244.614176 -36.611279 
L 239.45547 -35.374894 
L 234.296764 -63.557836 
L 229.138059 -35.019706 
L 223.979353 -34.852747 
L 218.820647 -47.06985 
L 213.661941 -34.164064 
L 208.503236 -43.705506 
L 203.34453 -26.813221 
L 198.185824 -29.232351 
L 193.027119 -20.239019 
L 187.868413 -34.936309 
L 182.709707 -34.298664 
L 177.551002 -31.838505 
L 172.392296 -33.091103 
L 167.23359 -34.578576 
L 162.074884 -33.845191 
L 156.916179 -31.193201 
L 151.757473 -37.940704 
L 146.598767 -22.828781 
L 141.440062 -34.920448 
L 136.281356 -33.649259 
L 131.12265 -25.283769 
L 125.963945 -25.256168 
L 120.805239 -26.298268 
L 115.646533 -30.850607 
L 110.487827 -34.434279 
L 105.329122 -31.307641 
L 100.170416 -28.890528 
L 95.01171 -23.861023 
L 89.853005 -35.07715 
L 84.694299 -35.091182 
L 79.535593 -35.28878 
L 74.376888 -34.487095 
L 69.218182 -31.03067 
z
" style="stroke: #009435; stroke-opacity: 0.2"/>
    </defs>
    <g clip-path="url(#p9d64475f34)">
     <use xlink:href="#m52f3aeaac1" x="0" y="288" style="fill: #009435; fill-opacity: 0.2; stroke: #009435; stroke-opacity: 0.2"/>
    </g>
   </g>
   <g id="matplotlib.axis_1">
    <g id="xtick_1">
     <g id="line2d_1">
      <path d="M 69.218182 252 
L 69.218182 34.56 
" clip-path="url(#p9d64475f34)" style="fill: none; stroke-dasharray: 2.96,1.28; stroke-dashoffset: 0; stroke: #b0b0b0; stroke-width: 0.8"/>
     </g>
     <g id="line2d_2">
      <defs>
       <path id="m767c5c6674" d="M 0 0 
L 0 3.5 
" style="stroke: #000000; stroke-width: 0.8"/>
      </defs>
      <g>
       <use xlink:href="#m767c5c6674" x="69.218182" y="252" style="stroke: #000000; stroke-width: 0.8"/>
      </g>
     </g>
     <g id="text_1">
      <!-- 0 -->
      <g transform="translate(66.036932 266.598437)scale(0.1 -0.1)">
       <defs>
        <path id="DejaVuSans-30" d="M 2034 4250 
Q 1547 4250 1301 3770 
Q 1056 3291 1056 2328 
Q 1056 1369 1301 889 
Q 1547 409 2034 409 
Q 2525 409 2770 889 
Q 3016 1369 3016 2328 
Q 3016 3291 2770 3770 
Q 2525 4250 2034 4250 
z
M 2034 4750 
Q 2819 4750 3233 4129 
Q 3647 3509 3647 2328 
Q 3647 1150 3233 529 
Q 2819 -91 2034 -91 
Q 1250 -91 836 529 
Q 422 1150 422 2328 
Q 422 3509 836 4129 
Q 1250 4750 2034 4750 
z
" transform="scale(0.015625)"/>
       </defs>
       <use xlink:href="#DejaVuSans-30"/>
      </g>
     </g>
    </g>
    <g id="xtick_2">
     <g id="line2d_3">
      <path d="M 120.805239 252 
L 120.805239 34.56 
" clip-path="url(#p9d64475f34)" style="fill: none; stroke-dasharray: 2.96,1.28; stroke-dashoffset: 0; stroke: #b0b0b0; stroke-width: 0.8"/>
     </g>
     <g id="line2d_4">
      <g>
       <use xlink:href="#m767c5c6674" x="120.805239" y="252" style="stroke: #000000; stroke-width: 0.8"/>
      </g>
     </g>
     <g id="text_2">
      <!-- 500 -->
      <g transform="translate(111.261489 266.598437)scale(0.1 -0.1)">
       <defs>
        <path id="DejaVuSans-35" d="M 691 4666 
L 3169 4666 
L 3169 4134 
L 1269 4134 
L 1269 2991 
Q 1406 3038 1543 3061 
Q 1681 3084 1819 3084 
Q 2600 3084 3056 2656 
Q 3513 2228 3513 1497 
Q 3513 744 3044 326 
Q 2575 -91 1722 -91 
Q 1428 -91 1123 -41 
Q 819 9 494 109 
L 494 744 
Q 775 591 1075 516 
Q 1375 441 1709 441 
Q 2250 441 2565 725 
Q 2881 1009 2881 1497 
Q 2881 1984 2565 2268 
Q 2250 2553 1709 2553 
Q 1456 2553 1204 2497 
Q 953 2441 691 2322 
L 691 4666 
z
" transform="scale(0.015625)"/>
       </defs>
       <use xlink:href="#DejaVuSans-35"/>
       <use xlink:href="#DejaVuSans-30" x="63.623047"/>
       <use xlink:href="#DejaVuSans-30" x="127.246094"/>
      </g>
     </g>
    </g>
    <g id="xtick_3">
     <g id="line2d_5">
      <path d="M 172.392296 252 
L 172.392296 34.56 
" clip-path="url(#p9d64475f34)" style="fill: none; stroke-dasharray: 2.96,1.28; stroke-dashoffset: 0; stroke: #b0b0b0; stroke-width: 0.8"/>
     </g>
     <g id="line2d_6">
      <g>
       <use xlink:href="#m767c5c6674" x="172.392296" y="252" style="stroke: #000000; stroke-width: 0.8"/>
      </g>
     </g>
     <g id="text_3">
      <!-- 1000 -->
      <g transform="translate(159.667296 266.598437)scale(0.1 -0.1)">
       <defs>
        <path id="DejaVuSans-31" d="M 794 531 
L 1825 531 
L 1825 4091 
L 703 3866 
L 703 4441 
L 1819 4666 
L 2450 4666 
L 2450 531 
L 3481 531 
L 3481 0 
L 794 0 
L 794 531 
z
" transform="scale(0.015625)"/>
       </defs>
       <use xlink:href="#DejaVuSans-31"/>
       <use xlink:href="#DejaVuSans-30" x="63.623047"/>
       <use xlink:href="#DejaVuSans-30" x="127.246094"/>
       <use xlink:href="#DejaVuSans-30" x="190.869141"/>
      </g>
     </g>
    </g>
    <g id="xtick_4">
     <g id="line2d_7">
      <path d="M 223.979353 252 
L 223.979353 34.56 
" clip-path="url(#p9d64475f34)" style="fill: none; stroke-dasharray: 2.96,1.28; stroke-dashoffset: 0; stroke: #b0b0b0; stroke-width: 0.8"/>
     </g>
     <g id="line2d_8">
      <g>
       <use xlink:href="#m767c5c6674" x="223.979353" y="252" style="stroke: #000000; stroke-width: 0.8"/>
      </g>
     </g>
     <g id="text_4">
      <!-- 1500 -->
      <g transform="translate(211.254353 266.598437)scale(0.1 -0.1)">
       <use xlink:href="#DejaVuSans-31"/>
       <use xlink:href="#DejaVuSans-35" x="63.623047"/>
       <use xlink:href="#DejaVuSans-30" x="127.246094"/>
       <use xlink:href="#DejaVuSans-30" x="190.869141"/>
      </g>
     </g>
    </g>
    <g id="xtick_5">
     <g id="line2d_9">
      <path d="M 275.56641 252 
L 275.56641 34.56 
" clip-path="url(#p9d64475f34)" style="fill: none; stroke-dasharray: 2.96,1.28; stroke-dashoffset: 0; stroke: #b0b0b0; stroke-width: 0.8"/>
     </g>
     <g id="line2d_10">
      <g>
       <use xlink:href="#m767c5c6674" x="275.56641" y="252" style="stroke: #000000; stroke-width: 0.8"/>
      </g>
     </g>
     <g id="text_5">
      <!-- 2000 -->
      <g transform="translate(262.84141 266.598437)scale(0.1 -0.1)">
       <defs>
        <path id="DejaVuSans-32" d="M 1228 531 
L 3431 531 
L 3431 0 
L 469 0 
L 469 531 
Q 828 903 1448 1529 
Q 2069 2156 2228 2338 
Q 2531 2678 2651 2914 
Q 2772 3150 2772 3378 
Q 2772 3750 2511 3984 
Q 2250 4219 1831 4219 
Q 1534 4219 1204 4116 
Q 875 4013 500 3803 
L 500 4441 
Q 881 4594 1212 4672 
Q 1544 4750 1819 4750 
Q 2544 4750 2975 4387 
Q 3406 4025 3406 3419 
Q 3406 3131 3298 2873 
Q 3191 2616 2906 2266 
Q 2828 2175 2409 1742 
Q 1991 1309 1228 531 
z
" transform="scale(0.015625)"/>
       </defs>
       <use xlink:href="#DejaVuSans-32"/>
       <use xlink:href="#DejaVuSans-30" x="63.623047"/>
       <use xlink:href="#DejaVuSans-30" x="127.246094"/>
       <use xlink:href="#DejaVuSans-30" x="190.869141"/>
      </g>
     </g>
    </g>
    <g id="xtick_6">
     <g id="line2d_11">
      <path d="M 327.153467 252 
L 327.153467 34.56 
" clip-path="url(#p9d64475f34)" style="fill: none; stroke-dasharray: 2.96,1.28; stroke-dashoffset: 0; stroke: #b0b0b0; stroke-width: 0.8"/>
     </g>
     <g id="line2d_12">
      <g>
       <use xlink:href="#m767c5c6674" x="327.153467" y="252" style="stroke: #000000; stroke-width: 0.8"/>
      </g>
     </g>
     <g id="text_6">
      <!-- 2500 -->
      <g transform="translate(314.428467 266.598437)scale(0.1 -0.1)">
       <use xlink:href="#DejaVuSans-32"/>
       <use xlink:href="#DejaVuSans-35" x="63.623047"/>
       <use xlink:href="#DejaVuSans-30" x="127.246094"/>
       <use xlink:href="#DejaVuSans-30" x="190.869141"/>
      </g>
     </g>
    </g>
    <g id="xtick_7">
     <g id="line2d_13">
      <path d="M 378.740524 252 
L 378.740524 34.56 
" clip-path="url(#p9d64475f34)" style="fill: none; stroke-dasharray: 2.96,1.28; stroke-dashoffset: 0; stroke: #b0b0b0; stroke-width: 0.8"/>
     </g>
     <g id="line2d_14">
      <g>
       <use xlink:href="#m767c5c6674" x="378.740524" y="252" style="stroke: #000000; stroke-width: 0.8"/>
      </g>
     </g>
     <g id="text_7">
      <!-- 3000 -->
      <g transform="translate(366.015524 266.598437)scale(0.1 -0.1)">
       <defs>
        <path id="DejaVuSans-33" d="M 2597 2516 
Q 3050 2419 3304 2112 
Q 3559 1806 3559 1356 
Q 3559 666 3084 287 
Q 2609 -91 1734 -91 
Q 1441 -91 1130 -33 
Q 819 25 488 141 
L 488 750 
Q 750 597 1062 519 
Q 1375 441 1716 441 
Q 2309 441 2620 675 
Q 2931 909 2931 1356 
Q 2931 1769 2642 2001 
Q 2353 2234 1838 2234 
L 1294 2234 
L 1294 2753 
L 1863 2753 
Q 2328 2753 2575 2939 
Q 2822 3125 2822 3475 
Q 2822 3834 2567 4026 
Q 2313 4219 1838 4219 
Q 1578 4219 1281 4162 
Q 984 4106 628 3988 
L 628 4550 
Q 988 4650 1302 4700 
Q 1616 4750 1894 4750 
Q 2613 4750 3031 4423 
Q 3450 4097 3450 3541 
Q 3450 3153 3228 2886 
Q 3006 2619 2597 2516 
z
" transform="scale(0.015625)"/>
       </defs>
       <use xlink:href="#DejaVuSans-33"/>
       <use xlink:href="#DejaVuSans-30" x="63.623047"/>
       <use xlink:href="#DejaVuSans-30" x="127.246094"/>
       <use xlink:href="#DejaVuSans-30" x="190.869141"/>
      </g>
     </g>
    </g>
    <g id="text_8">
     <!-- Steps -->
     <g transform="translate(207.410156 280.276563)scale(0.1 -0.1)">
      <defs>
       <path id="DejaVuSans-53" d="M 3425 4513 
L 3425 3897 
Q 3066 4069 2747 4153 
Q 2428 4238 2131 4238 
Q 1616 4238 1336 4038 
Q 1056 3838 1056 3469 
Q 1056 3159 1242 3001 
Q 1428 2844 1947 2747 
L 2328 2669 
Q 3034 2534 3370 2195 
Q 3706 1856 3706 1288 
Q 3706 609 3251 259 
Q 2797 -91 1919 -91 
Q 1588 -91 1214 -16 
Q 841 59 441 206 
L 441 856 
Q 825 641 1194 531 
Q 1563 422 1919 422 
Q 2459 422 2753 634 
Q 3047 847 3047 1241 
Q 3047 1584 2836 1778 
Q 2625 1972 2144 2069 
L 1759 2144 
Q 1053 2284 737 2584 
Q 422 2884 422 3419 
Q 422 4038 858 4394 
Q 1294 4750 2059 4750 
Q 2388 4750 2728 4690 
Q 3069 4631 3425 4513 
z
" transform="scale(0.015625)"/>
       <path id="DejaVuSans-74" d="M 1172 4494 
L 1172 3500 
L 2356 3500 
L 2356 3053 
L 1172 3053 
L 1172 1153 
Q 1172 725 1289 603 
Q 1406 481 1766 481 
L 2356 481 
L 2356 0 
L 1766 0 
Q 1100 0 847 248 
Q 594 497 594 1153 
L 594 3053 
L 172 3053 
L 172 3500 
L 594 3500 
L 594 4494 
L 1172 4494 
z
" transform="scale(0.015625)"/>
       <path id="DejaVuSans-65" d="M 3597 1894 
L 3597 1613 
L 953 1613 
Q 991 1019 1311 708 
Q 1631 397 2203 397 
Q 2534 397 2845 478 
Q 3156 559 3463 722 
L 3463 178 
Q 3153 47 2828 -22 
Q 2503 -91 2169 -91 
Q 1331 -91 842 396 
Q 353 884 353 1716 
Q 353 2575 817 3079 
Q 1281 3584 2069 3584 
Q 2775 3584 3186 3129 
Q 3597 2675 3597 1894 
z
M 3022 2063 
Q 3016 2534 2758 2815 
Q 2500 3097 2075 3097 
Q 1594 3097 1305 2825 
Q 1016 2553 972 2059 
L 3022 2063 
z
" transform="scale(0.015625)"/>
       <path id="DejaVuSans-70" d="M 1159 525 
L 1159 -1331 
L 581 -1331 
L 581 3500 
L 1159 3500 
L 1159 2969 
Q 1341 3281 1617 3432 
Q 1894 3584 2278 3584 
Q 2916 3584 3314 3078 
Q 3713 2572 3713 1747 
Q 3713 922 3314 415 
Q 2916 -91 2278 -91 
Q 1894 -91 1617 61 
Q 1341 213 1159 525 
z
M 3116 1747 
Q 3116 2381 2855 2742 
Q 2594 3103 2138 3103 
Q 1681 3103 1420 2742 
Q 1159 2381 1159 1747 
Q 1159 1113 1420 752 
Q 1681 391 2138 391 
Q 2594 391 2855 752 
Q 3116 1113 3116 1747 
z
" transform="scale(0.015625)"/>
       <path id="DejaVuSans-73" d="M 2834 3397 
L 2834 2853 
Q 2591 2978 2328 3040 
Q 2066 3103 1784 3103 
Q 1356 3103 1142 2972 
Q 928 2841 928 2578 
Q 928 2378 1081 2264 
Q 1234 2150 1697 2047 
L 1894 2003 
Q 2506 1872 2764 1633 
Q 3022 1394 3022 966 
Q 3022 478 2636 193 
Q 2250 -91 1575 -91 
Q 1294 -91 989 -36 
Q 684 19 347 128 
L 347 722 
Q 666 556 975 473 
Q 1284 391 1588 391 
Q 1994 391 2212 530 
Q 2431 669 2431 922 
Q 2431 1156 2273 1281 
Q 2116 1406 1581 1522 
L 1381 1569 
Q 847 1681 609 1914 
Q 372 2147 372 2553 
Q 372 3047 722 3315 
Q 1072 3584 1716 3584 
Q 2034 3584 2315 3537 
Q 2597 3491 2834 3397 
z
" transform="scale(0.015625)"/>
      </defs>
      <use xlink:href="#DejaVuSans-53"/>
      <use xlink:href="#DejaVuSans-74" x="63.476562"/>
      <use xlink:href="#DejaVuSans-65" x="102.685547"/>
      <use xlink:href="#DejaVuSans-70" x="164.208984"/>
      <use xlink:href="#DejaVuSans-73" x="227.685547"/>
     </g>
    </g>
   </g>
   <g id="matplotlib.axis_2">
    <g id="ytick_1">
     <g id="line2d_15">
      <path d="M 54 243.636923 
L 388.8 243.636923 
" clip-path="url(#p9d64475f34)" style="fill: none; stroke-dasharray: 2.96,1.28; stroke-dashoffset: 0; stroke: #b0b0b0; stroke-width: 0.8"/>
     </g>
     <g id="line2d_16">
      <defs>
       <path id="m25ea837f7f" d="M 0 0 
L -3.5 0 
" style="stroke: #000000; stroke-width: 0.8"/>
      </defs>
      <g>
       <use xlink:href="#m25ea837f7f" x="54" y="243.636923" style="stroke: #000000; stroke-width: 0.8"/>
      </g>
     </g>
     <g id="text_9">
      <!-- −12 -->
      <g transform="translate(25.895312 247.436142)scale(0.1 -0.1)">
       <defs>
        <path id="DejaVuSans-2212" d="M 678 2272 
L 4684 2272 
L 4684 1741 
L 678 1741 
L 678 2272 
z
" transform="scale(0.015625)"/>
       </defs>
       <use xlink:href="#DejaVuSans-2212"/>
       <use xlink:href="#DejaVuSans-31" x="83.789062"/>
       <use xlink:href="#DejaVuSans-32" x="147.412109"/>
      </g>
     </g>
    </g>
    <g id="ytick_2">
     <g id="line2d_17">
      <path d="M 54 210.184615 
L 388.8 210.184615 
" clip-path="url(#p9d64475f34)" style="fill: none; stroke-dasharray: 2.96,1.28; stroke-dashoffset: 0; stroke: #b0b0b0; stroke-width: 0.8"/>
     </g>
     <g id="line2d_18">
      <g>
       <use xlink:href="#m25ea837f7f" x="54" y="210.184615" style="stroke: #000000; stroke-width: 0.8"/>
      </g>
     </g>
     <g id="text_10">
      <!-- −10 -->
      <g transform="translate(25.895312 213.983834)scale(0.1 -0.1)">
       <use xlink:href="#DejaVuSans-2212"/>
       <use xlink:href="#DejaVuSans-31" x="83.789062"/>
       <use xlink:href="#DejaVuSans-30" x="147.412109"/>
      </g>
     </g>
    </g>
    <g id="ytick_3">
     <g id="line2d_19">
      <path d="M 54 176.732308 
L 388.8 176.732308 
" clip-path="url(#p9d64475f34)" style="fill: none; stroke-dasharray: 2.96,1.28; stroke-dashoffset: 0; stroke: #b0b0b0; stroke-width: 0.8"/>
     </g>
     <g id="line2d_20">
      <g>
       <use xlink:href="#m25ea837f7f" x="54" y="176.732308" style="stroke: #000000; stroke-width: 0.8"/>
      </g>
     </g>
     <g id="text_11">
      <!-- −8 -->
      <g transform="translate(32.257812 180.531526)scale(0.1 -0.1)">
       <defs>
        <path id="DejaVuSans-38" d="M 2034 2216 
Q 1584 2216 1326 1975 
Q 1069 1734 1069 1313 
Q 1069 891 1326 650 
Q 1584 409 2034 409 
Q 2484 409 2743 651 
Q 3003 894 3003 1313 
Q 3003 1734 2745 1975 
Q 2488 2216 2034 2216 
z
M 1403 2484 
Q 997 2584 770 2862 
Q 544 3141 544 3541 
Q 544 4100 942 4425 
Q 1341 4750 2034 4750 
Q 2731 4750 3128 4425 
Q 3525 4100 3525 3541 
Q 3525 3141 3298 2862 
Q 3072 2584 2669 2484 
Q 3125 2378 3379 2068 
Q 3634 1759 3634 1313 
Q 3634 634 3220 271 
Q 2806 -91 2034 -91 
Q 1263 -91 848 271 
Q 434 634 434 1313 
Q 434 1759 690 2068 
Q 947 2378 1403 2484 
z
M 1172 3481 
Q 1172 3119 1398 2916 
Q 1625 2713 2034 2713 
Q 2441 2713 2670 2916 
Q 2900 3119 2900 3481 
Q 2900 3844 2670 4047 
Q 2441 4250 2034 4250 
Q 1625 4250 1398 4047 
Q 1172 3844 1172 3481 
z
" transform="scale(0.015625)"/>
       </defs>
       <use xlink:href="#DejaVuSans-2212"/>
       <use xlink:href="#DejaVuSans-38" x="83.789062"/>
      </g>
     </g>
    </g>
    <g id="ytick_4">
     <g id="line2d_21">
      <path d="M 54 143.28 
L 388.8 143.28 
" clip-path="url(#p9d64475f34)" style="fill: none; stroke-dasharray: 2.96,1.28; stroke-dashoffset: 0; stroke: #b0b0b0; stroke-width: 0.8"/>
     </g>
     <g id="line2d_22">
      <g>
       <use xlink:href="#m25ea837f7f" x="54" y="143.28" style="stroke: #000000; stroke-width: 0.8"/>
      </g>
     </g>
     <g id="text_12">
      <!-- −6 -->
      <g transform="translate(32.257812 147.079219)scale(0.1 -0.1)">
       <defs>
        <path id="DejaVuSans-36" d="M 2113 2584 
Q 1688 2584 1439 2293 
Q 1191 2003 1191 1497 
Q 1191 994 1439 701 
Q 1688 409 2113 409 
Q 2538 409 2786 701 
Q 3034 994 3034 1497 
Q 3034 2003 2786 2293 
Q 2538 2584 2113 2584 
z
M 3366 4563 
L 3366 3988 
Q 3128 4100 2886 4159 
Q 2644 4219 2406 4219 
Q 1781 4219 1451 3797 
Q 1122 3375 1075 2522 
Q 1259 2794 1537 2939 
Q 1816 3084 2150 3084 
Q 2853 3084 3261 2657 
Q 3669 2231 3669 1497 
Q 3669 778 3244 343 
Q 2819 -91 2113 -91 
Q 1303 -91 875 529 
Q 447 1150 447 2328 
Q 447 3434 972 4092 
Q 1497 4750 2381 4750 
Q 2619 4750 2861 4703 
Q 3103 4656 3366 4563 
z
" transform="scale(0.015625)"/>
       </defs>
       <use xlink:href="#DejaVuSans-2212"/>
       <use xlink:href="#DejaVuSans-36" x="83.789062"/>
      </g>
     </g>
    </g>
    <g id="ytick_5">
     <g id="line2d_23">
      <path d="M 54 109.827692 
L 388.8 109.827692 
" clip-path="url(#p9d64475f34)" style="fill: none; stroke-dasharray: 2.96,1.28; stroke-dashoffset: 0; stroke: #b0b0b0; stroke-width: 0.8"/>
     </g>
     <g id="line2d_24">
      <g>
       <use xlink:href="#m25ea837f7f" x="54" y="109.827692" style="stroke: #000000; stroke-width: 0.8"/>
      </g>
     </g>
     <g id="text_13">
      <!-- −4 -->
      <g transform="translate(32.257812 113.626911)scale(0.1 -0.1)">
       <defs>
        <path id="DejaVuSans-34" d="M 2419 4116 
L 825 1625 
L 2419 1625 
L 2419 4116 
z
M 2253 4666 
L 3047 4666 
L 3047 1625 
L 3713 1625 
L 3713 1100 
L 3047 1100 
L 3047 0 
L 2419 0 
L 2419 1100 
L 313 1100 
L 313 1709 
L 2253 4666 
z
" transform="scale(0.015625)"/>
       </defs>
       <use xlink:href="#DejaVuSans-2212"/>
       <use xlink:href="#DejaVuSans-34" x="83.789062"/>
      </g>
     </g>
    </g>
    <g id="ytick_6">
     <g id="line2d_25">
      <path d="M 54 76.375385 
L 388.8 76.375385 
" clip-path="url(#p9d64475f34)" style="fill: none; stroke-dasharray: 2.96,1.28; stroke-dashoffset: 0; stroke: #b0b0b0; stroke-width: 0.8"/>
     </g>
     <g id="line2d_26">
      <g>
       <use xlink:href="#m25ea837f7f" x="54" y="76.375385" style="stroke: #000000; stroke-width: 0.8"/>
      </g>
     </g>
     <g id="text_14">
      <!-- −2 -->
      <g transform="translate(32.257812 80.174603)scale(0.1 -0.1)">
       <use xlink:href="#DejaVuSans-2212"/>
       <use xlink:href="#DejaVuSans-32" x="83.789062"/>
      </g>
     </g>
    </g>
    <g id="ytick_7">
     <g id="line2d_27">
      <path d="M 54 42.923077 
L 388.8 42.923077 
" clip-path="url(#p9d64475f34)" style="fill: none; stroke-dasharray: 2.96,1.28; stroke-dashoffset: 0; stroke: #b0b0b0; stroke-width: 0.8"/>
     </g>
     <g id="line2d_28">
      <g>
       <use xlink:href="#m25ea837f7f" x="54" y="42.923077" style="stroke: #000000; stroke-width: 0.8"/>
      </g>
     </g>
     <g id="text_15">
      <!-- 0 -->
      <g transform="translate(40.6375 46.722296)scale(0.1 -0.1)">
       <use xlink:href="#DejaVuSans-30"/>
      </g>
     </g>
    </g>
    <g id="text_16">
     <!-- Policy value error -->
     <g transform="translate(19.815625 186.597969)rotate(-90)scale(0.1 -0.1)">
      <defs>
       <path id="DejaVuSans-50" d="M 1259 4147 
L 1259 2394 
L 2053 2394 
Q 2494 2394 2734 2622 
Q 2975 2850 2975 3272 
Q 2975 3691 2734 3919 
Q 2494 4147 2053 4147 
L 1259 4147 
z
M 628 4666 
L 2053 4666 
Q 2838 4666 3239 4311 
Q 3641 3956 3641 3272 
Q 3641 2581 3239 2228 
Q 2838 1875 2053 1875 
L 1259 1875 
L 1259 0 
L 628 0 
L 628 4666 
z
" transform="scale(0.015625)"/>
       <path id="DejaVuSans-6f" d="M 1959 3097 
Q 1497 3097 1228 2736 
Q 959 2375 959 1747 
Q 959 1119 1226 758 
Q 1494 397 1959 397 
Q 2419 397 2687 759 
Q 2956 1122 2956 1747 
Q 2956 2369 2687 2733 
Q 2419 3097 1959 3097 
z
M 1959 3584 
Q 2709 3584 3137 3096 
Q 3566 2609 3566 1747 
Q 3566 888 3137 398 
Q 2709 -91 1959 -91 
Q 1206 -91 779 398 
Q 353 888 353 1747 
Q 353 2609 779 3096 
Q 1206 3584 1959 3584 
z
" transform="scale(0.015625)"/>
       <path id="DejaVuSans-6c" d="M 603 4863 
L 1178 4863 
L 1178 0 
L 603 0 
L 603 4863 
z
" transform="scale(0.015625)"/>
       <path id="DejaVuSans-69" d="M 603 3500 
L 1178 3500 
L 1178 0 
L 603 0 
L 603 3500 
z
M 603 4863 
L 1178 4863 
L 1178 4134 
L 603 4134 
L 603 4863 
z
" transform="scale(0.015625)"/>
       <path id="DejaVuSans-63" d="M 3122 3366 
L 3122 2828 
Q 2878 2963 2633 3030 
Q 2388 3097 2138 3097 
Q 1578 3097 1268 2742 
Q 959 2388 959 1747 
Q 959 1106 1268 751 
Q 1578 397 2138 397 
Q 2388 397 2633 464 
Q 2878 531 3122 666 
L 3122 134 
Q 2881 22 2623 -34 
Q 2366 -91 2075 -91 
Q 1284 -91 818 406 
Q 353 903 353 1747 
Q 353 2603 823 3093 
Q 1294 3584 2113 3584 
Q 2378 3584 2631 3529 
Q 2884 3475 3122 3366 
z
" transform="scale(0.015625)"/>
       <path id="DejaVuSans-79" d="M 2059 -325 
Q 1816 -950 1584 -1140 
Q 1353 -1331 966 -1331 
L 506 -1331 
L 506 -850 
L 844 -850 
Q 1081 -850 1212 -737 
Q 1344 -625 1503 -206 
L 1606 56 
L 191 3500 
L 800 3500 
L 1894 763 
L 2988 3500 
L 3597 3500 
L 2059 -325 
z
" transform="scale(0.015625)"/>
       <path id="DejaVuSans-20" transform="scale(0.015625)"/>
       <path id="DejaVuSans-76" d="M 191 3500 
L 800 3500 
L 1894 563 
L 2988 3500 
L 3597 3500 
L 2284 0 
L 1503 0 
L 191 3500 
z
" transform="scale(0.015625)"/>
       <path id="DejaVuSans-61" d="M 2194 1759 
Q 1497 1759 1228 1600 
Q 959 1441 959 1056 
Q 959 750 1161 570 
Q 1363 391 1709 391 
Q 2188 391 2477 730 
Q 2766 1069 2766 1631 
L 2766 1759 
L 2194 1759 
z
M 3341 1997 
L 3341 0 
L 2766 0 
L 2766 531 
Q 2569 213 2275 61 
Q 1981 -91 1556 -91 
Q 1019 -91 701 211 
Q 384 513 384 1019 
Q 384 1609 779 1909 
Q 1175 2209 1959 2209 
L 2766 2209 
L 2766 2266 
Q 2766 2663 2505 2880 
Q 2244 3097 1772 3097 
Q 1472 3097 1187 3025 
Q 903 2953 641 2809 
L 641 3341 
Q 956 3463 1253 3523 
Q 1550 3584 1831 3584 
Q 2591 3584 2966 3190 
Q 3341 2797 3341 1997 
z
" transform="scale(0.015625)"/>
       <path id="DejaVuSans-75" d="M 544 1381 
L 544 3500 
L 1119 3500 
L 1119 1403 
Q 1119 906 1312 657 
Q 1506 409 1894 409 
Q 2359 409 2629 706 
Q 2900 1003 2900 1516 
L 2900 3500 
L 3475 3500 
L 3475 0 
L 2900 0 
L 2900 538 
Q 2691 219 2414 64 
Q 2138 -91 1772 -91 
Q 1169 -91 856 284 
Q 544 659 544 1381 
z
M 1991 3584 
L 1991 3584 
z
" transform="scale(0.015625)"/>
       <path id="DejaVuSans-72" d="M 2631 2963 
Q 2534 3019 2420 3045 
Q 2306 3072 2169 3072 
Q 1681 3072 1420 2755 
Q 1159 2438 1159 1844 
L 1159 0 
L 581 0 
L 581 3500 
L 1159 3500 
L 1159 2956 
Q 1341 3275 1631 3429 
Q 1922 3584 2338 3584 
Q 2397 3584 2469 3576 
Q 2541 3569 2628 3553 
L 2631 2963 
z
" transform="scale(0.015625)"/>
      </defs>
      <use xlink:href="#DejaVuSans-50"/>
      <use xlink:href="#DejaVuSans-6f" x="56.677734"/>
      <use xlink:href="#DejaVuSans-6c" x="117.859375"/>
      <use xlink:href="#DejaVuSans-69" x="145.642578"/>
      <use xlink:href="#DejaVuSans-63" x="173.425781"/>
      <use xlink:href="#DejaVuSans-79" x="228.40625"/>
      <use xlink:href="#DejaVuSans-20" x="287.585938"/>
      <use xlink:href="#DejaVuSans-76" x="319.373047"/>
      <use xlink:href="#DejaVuSans-61" x="378.552734"/>
      <use xlink:href="#DejaVuSans-6c" x="439.832031"/>
      <use xlink:href="#DejaVuSans-75" x="467.615234"/>
      <use xlink:href="#DejaVuSans-65" x="530.994141"/>
      <use xlink:href="#DejaVuSans-20" x="592.517578"/>
      <use xlink:href="#DejaVuSans-65" x="624.304688"/>
      <use xlink:href="#DejaVuSans-72" x="685.828125"/>
      <use xlink:href="#DejaVuSans-72" x="725.191406"/>
      <use xlink:href="#DejaVuSans-6f" x="764.054688"/>
      <use xlink:href="#DejaVuSans-72" x="825.236328"/>
     </g>
    </g>
   </g>
   <g id="line2d_29">
    <path d="M 69.218182 254.766226 
L 74.376888 253.093612 
L 79.535593 254.439292 
L 84.694299 254.600055 
L 89.853005 272.983651 
L 95.01171 256.825811 
L 100.170416 245.992062 
L 105.329122 258.106628 
L 110.487827 256.869264 
L 115.646533 264.488432 
L 120.805239 253.544469 
L 125.963945 260.447449 
L 131.12265 258.109451 
L 136.281356 255.526037 
L 141.440062 253.673558 
L 146.598767 250.021347 
L 151.757473 253.552808 
L 156.916179 260.58743 
L 162.074884 229.987582 
L 167.23359 252.451842 
L 172.392296 249.908835 
L 177.551002 253.132786 
L 182.709707 252.712297 
L 187.868413 255.110935 
L 193.027119 256.615082 
L 198.185824 248.799342 
L 203.34453 249.996344 
L 208.503236 49.863501 
L 213.661941 83.052624 
L 218.820647 78.912122 
L 223.979353 82.584239 
L 229.138059 78.063423 
L 234.296764 53.69436 
L 239.45547 53.69436 
L 244.614176 53.69436 
L 249.772881 53.69436 
L 254.931587 53.69436 
L 260.090293 53.69436 
L 265.248998 48.491918 
L 270.407704 48.491918 
L 275.56641 45.769841 
L 280.725116 45.769841 
L 285.883821 45.769841 
L 291.042527 45.841605 
L 296.201233 51.591484 
L 301.359938 51.683322 
L 306.518644 51.683322 
L 311.67735 47.864443 
L 316.836055 47.864443 
L 321.994761 47.864443 
L 327.153467 47.864443 
L 332.312173 47.864443 
L 337.470878 47.864443 
L 342.629584 47.864443 
L 347.78829 47.864443 
L 352.946995 47.864443 
L 358.105701 47.864443 
L 363.264407 51.591484 
L 368.423112 48.57126 
L 373.581818 49.04617 
" clip-path="url(#p9d64475f34)" style="fill: none; stroke: #9d02d7; stroke-width: 1.5; stroke-linecap: square"/>
    <defs>
     <path id="m0c6fd6b58f" d="M 0 -2 
L -2 2 
L 2 2 
z
" style="stroke: #9d02d7; stroke-linejoin: miter"/>
    </defs>
    <g clip-path="url(#p9d64475f34)">
     <use xlink:href="#m0c6fd6b58f" x="69.218182" y="254.766226" style="fill: #9d02d7; stroke: #9d02d7; stroke-linejoin: miter"/>
     <use xlink:href="#m0c6fd6b58f" x="74.376888" y="253.093612" style="fill: #9d02d7; stroke: #9d02d7; stroke-linejoin: miter"/>
     <use xlink:href="#m0c6fd6b58f" x="79.535593" y="254.439292" style="fill: #9d02d7; stroke: #9d02d7; stroke-linejoin: miter"/>
     <use xlink:href="#m0c6fd6b58f" x="84.694299" y="254.600055" style="fill: #9d02d7; stroke: #9d02d7; stroke-linejoin: miter"/>
     <use xlink:href="#m0c6fd6b58f" x="89.853005" y="272.983651" style="fill: #9d02d7; stroke: #9d02d7; stroke-linejoin: miter"/>
     <use xlink:href="#m0c6fd6b58f" x="95.01171" y="256.825811" style="fill: #9d02d7; stroke: #9d02d7; stroke-linejoin: miter"/>
     <use xlink:href="#m0c6fd6b58f" x="100.170416" y="245.992062" style="fill: #9d02d7; stroke: #9d02d7; stroke-linejoin: miter"/>
     <use xlink:href="#m0c6fd6b58f" x="105.329122" y="258.106628" style="fill: #9d02d7; stroke: #9d02d7; stroke-linejoin: miter"/>
     <use xlink:href="#m0c6fd6b58f" x="110.487827" y="256.869264" style="fill: #9d02d7; stroke: #9d02d7; stroke-linejoin: miter"/>
     <use xlink:href="#m0c6fd6b58f" x="115.646533" y="264.488432" style="fill: #9d02d7; stroke: #9d02d7; stroke-linejoin: miter"/>
     <use xlink:href="#m0c6fd6b58f" x="120.805239" y="253.544469" style="fill: #9d02d7; stroke: #9d02d7; stroke-linejoin: miter"/>
     <use xlink:href="#m0c6fd6b58f" x="125.963945" y="260.447449" style="fill: #9d02d7; stroke: #9d02d7; stroke-linejoin: miter"/>
     <use xlink:href="#m0c6fd6b58f" x="131.12265" y="258.109451" style="fill: #9d02d7; stroke: #9d02d7; stroke-linejoin: miter"/>
     <use xlink:href="#m0c6fd6b58f" x="136.281356" y="255.526037" style="fill: #9d02d7; stroke: #9d02d7; stroke-linejoin: miter"/>
     <use xlink:href="#m0c6fd6b58f" x="141.440062" y="253.673558" style="fill: #9d02d7; stroke: #9d02d7; stroke-linejoin: miter"/>
     <use xlink:href="#m0c6fd6b58f" x="146.598767" y="250.021347" style="fill: #9d02d7; stroke: #9d02d7; stroke-linejoin: miter"/>
     <use xlink:href="#m0c6fd6b58f" x="151.757473" y="253.552808" style="fill: #9d02d7; stroke: #9d02d7; stroke-linejoin: miter"/>
     <use xlink:href="#m0c6fd6b58f" x="156.916179" y="260.58743" style="fill: #9d02d7; stroke: #9d02d7; stroke-linejoin: miter"/>
     <use xlink:href="#m0c6fd6b58f" x="162.074884" y="229.987582" style="fill: #9d02d7; stroke: #9d02d7; stroke-linejoin: miter"/>
     <use xlink:href="#m0c6fd6b58f" x="167.23359" y="252.451842" style="fill: #9d02d7; stroke: #9d02d7; stroke-linejoin: miter"/>
     <use xlink:href="#m0c6fd6b58f" x="172.392296" y="249.908835" style="fill: #9d02d7; stroke: #9d02d7; stroke-linejoin: miter"/>
     <use xlink:href="#m0c6fd6b58f" x="177.551002" y="253.132786" style="fill: #9d02d7; stroke: #9d02d7; stroke-linejoin: miter"/>
     <use xlink:href="#m0c6fd6b58f" x="182.709707" y="252.712297" style="fill: #9d02d7; stroke: #9d02d7; stroke-linejoin: miter"/>
     <use xlink:href="#m0c6fd6b58f" x="187.868413" y="255.110935" style="fill: #9d02d7; stroke: #9d02d7; stroke-linejoin: miter"/>
     <use xlink:href="#m0c6fd6b58f" x="193.027119" y="256.615082" style="fill: #9d02d7; stroke: #9d02d7; stroke-linejoin: miter"/>
     <use xlink:href="#m0c6fd6b58f" x="198.185824" y="248.799342" style="fill: #9d02d7; stroke: #9d02d7; stroke-linejoin: miter"/>
     <use xlink:href="#m0c6fd6b58f" x="203.34453" y="249.996344" style="fill: #9d02d7; stroke: #9d02d7; stroke-linejoin: miter"/>
     <use xlink:href="#m0c6fd6b58f" x="208.503236" y="49.863501" style="fill: #9d02d7; stroke: #9d02d7; stroke-linejoin: miter"/>
     <use xlink:href="#m0c6fd6b58f" x="213.661941" y="83.052624" style="fill: #9d02d7; stroke: #9d02d7; stroke-linejoin: miter"/>
     <use xlink:href="#m0c6fd6b58f" x="218.820647" y="78.912122" style="fill: #9d02d7; stroke: #9d02d7; stroke-linejoin: miter"/>
     <use xlink:href="#m0c6fd6b58f" x="223.979353" y="82.584239" style="fill: #9d02d7; stroke: #9d02d7; stroke-linejoin: miter"/>
     <use xlink:href="#m0c6fd6b58f" x="229.138059" y="78.063423" style="fill: #9d02d7; stroke: #9d02d7; stroke-linejoin: miter"/>
     <use xlink:href="#m0c6fd6b58f" x="234.296764" y="53.69436" style="fill: #9d02d7; stroke: #9d02d7; stroke-linejoin: miter"/>
     <use xlink:href="#m0c6fd6b58f" x="239.45547" y="53.69436" style="fill: #9d02d7; stroke: #9d02d7; stroke-linejoin: miter"/>
     <use xlink:href="#m0c6fd6b58f" x="244.614176" y="53.69436" style="fill: #9d02d7; stroke: #9d02d7; stroke-linejoin: miter"/>
     <use xlink:href="#m0c6fd6b58f" x="249.772881" y="53.69436" style="fill: #9d02d7; stroke: #9d02d7; stroke-linejoin: miter"/>
     <use xlink:href="#m0c6fd6b58f" x="254.931587" y="53.69436" style="fill: #9d02d7; stroke: #9d02d7; stroke-linejoin: miter"/>
     <use xlink:href="#m0c6fd6b58f" x="260.090293" y="53.69436" style="fill: #9d02d7; stroke: #9d02d7; stroke-linejoin: miter"/>
     <use xlink:href="#m0c6fd6b58f" x="265.248998" y="48.491918" style="fill: #9d02d7; stroke: #9d02d7; stroke-linejoin: miter"/>
     <use xlink:href="#m0c6fd6b58f" x="270.407704" y="48.491918" style="fill: #9d02d7; stroke: #9d02d7; stroke-linejoin: miter"/>
     <use xlink:href="#m0c6fd6b58f" x="275.56641" y="45.769841" style="fill: #9d02d7; stroke: #9d02d7; stroke-linejoin: miter"/>
     <use xlink:href="#m0c6fd6b58f" x="280.725116" y="45.769841" style="fill: #9d02d7; stroke: #9d02d7; stroke-linejoin: miter"/>
     <use xlink:href="#m0c6fd6b58f" x="285.883821" y="45.769841" style="fill: #9d02d7; stroke: #9d02d7; stroke-linejoin: miter"/>
     <use xlink:href="#m0c6fd6b58f" x="291.042527" y="45.841605" style="fill: #9d02d7; stroke: #9d02d7; stroke-linejoin: miter"/>
     <use xlink:href="#m0c6fd6b58f" x="296.201233" y="51.591484" style="fill: #9d02d7; stroke: #9d02d7; stroke-linejoin: miter"/>
     <use xlink:href="#m0c6fd6b58f" x="301.359938" y="51.683322" style="fill: #9d02d7; stroke: #9d02d7; stroke-linejoin: miter"/>
     <use xlink:href="#m0c6fd6b58f" x="306.518644" y="51.683322" style="fill: #9d02d7; stroke: #9d02d7; stroke-linejoin: miter"/>
     <use xlink:href="#m0c6fd6b58f" x="311.67735" y="47.864443" style="fill: #9d02d7; stroke: #9d02d7; stroke-linejoin: miter"/>
     <use xlink:href="#m0c6fd6b58f" x="316.836055" y="47.864443" style="fill: #9d02d7; stroke: #9d02d7; stroke-linejoin: miter"/>
     <use xlink:href="#m0c6fd6b58f" x="321.994761" y="47.864443" style="fill: #9d02d7; stroke: #9d02d7; stroke-linejoin: miter"/>
     <use xlink:href="#m0c6fd6b58f" x="327.153467" y="47.864443" style="fill: #9d02d7; stroke: #9d02d7; stroke-linejoin: miter"/>
     <use xlink:href="#m0c6fd6b58f" x="332.312173" y="47.864443" style="fill: #9d02d7; stroke: #9d02d7; stroke-linejoin: miter"/>
     <use xlink:href="#m0c6fd6b58f" x="337.470878" y="47.864443" style="fill: #9d02d7; stroke: #9d02d7; stroke-linejoin: miter"/>
     <use xlink:href="#m0c6fd6b58f" x="342.629584" y="47.864443" style="fill: #9d02d7; stroke: #9d02d7; stroke-linejoin: miter"/>
     <use xlink:href="#m0c6fd6b58f" x="347.78829" y="47.864443" style="fill: #9d02d7; stroke: #9d02d7; stroke-linejoin: miter"/>
     <use xlink:href="#m0c6fd6b58f" x="352.946995" y="47.864443" style="fill: #9d02d7; stroke: #9d02d7; stroke-linejoin: miter"/>
     <use xlink:href="#m0c6fd6b58f" x="358.105701" y="47.864443" style="fill: #9d02d7; stroke: #9d02d7; stroke-linejoin: miter"/>
     <use xlink:href="#m0c6fd6b58f" x="363.264407" y="51.591484" style="fill: #9d02d7; stroke: #9d02d7; stroke-linejoin: miter"/>
     <use xlink:href="#m0c6fd6b58f" x="368.423112" y="48.57126" style="fill: #9d02d7; stroke: #9d02d7; stroke-linejoin: miter"/>
     <use xlink:href="#m0c6fd6b58f" x="373.581818" y="49.04617" style="fill: #9d02d7; stroke: #9d02d7; stroke-linejoin: miter"/>
    </g>
   </g>
   <g id="line2d_30">
    <path d="M 69.218182 254.993912 
L 74.376888 252.908818 
L 79.535593 253.947405 
L 84.694299 254.596828 
L 89.853005 255.59781 
L 95.01171 255.704866 
L 100.170416 253.777362 
L 105.329122 238.836641 
L 110.487827 254.4464 
L 115.646533 254.727053 
L 120.805239 255.577071 
L 125.963945 255.321198 
L 131.12265 259.474334 
L 136.281356 255.921905 
L 141.440062 252.250131 
L 146.598767 256.169083 
L 151.757473 258.567568 
L 156.916179 255.578723 
L 162.074884 263.235185 
L 167.23359 258.899958 
L 172.392296 253.492218 
L 177.551002 231.314391 
L 182.709707 204.222462 
L 187.868413 267.835829 
L 193.027119 250.369075 
L 198.185824 258.314481 
L 203.34453 254.220489 
L 208.503236 265.115567 
L 213.661941 135.567692 
L 218.820647 254.117104 
L 223.979353 241.421745 
L 229.138059 73.129056 
L 234.296764 55.182865 
L 239.45547 55.019386 
L 244.614176 55.019386 
L 249.772881 55.019386 
L 254.931587 54.696638 
L 260.090293 54.696638 
L 265.248998 74.348015 
L 270.407704 70.371418 
L 275.56641 59.790766 
L 280.725116 60.155204 
L 285.883821 60.155204 
L 291.042527 52.541394 
L 296.201233 52.541394 
L 301.359938 53.554866 
L 306.518644 53.554866 
L 311.67735 53.554866 
L 316.836055 59.326753 
L 321.994761 59.326753 
L 327.153467 51.554763 
L 332.312173 51.554763 
L 337.470878 46.59562 
L 342.629584 46.59562 
L 347.78829 46.59562 
L 352.946995 46.59562 
L 358.105701 46.59562 
L 363.264407 46.59562 
L 368.423112 46.59562 
L 373.581818 46.59562 
" clip-path="url(#p9d64475f34)" style="fill: none; stroke: #0000ff; stroke-width: 1.5; stroke-linecap: square"/>
    <defs>
     <path id="mdfe11f2901" d="M 0 2 
C 0.530406 2 1.03916 1.789267 1.414214 1.414214 
C 1.789267 1.03916 2 0.530406 2 0 
C 2 -0.530406 1.789267 -1.03916 1.414214 -1.414214 
C 1.03916 -1.789267 0.530406 -2 0 -2 
C -0.530406 -2 -1.03916 -1.789267 -1.414214 -1.414214 
C -1.789267 -1.03916 -2 -0.530406 -2 0 
C -2 0.530406 -1.789267 1.03916 -1.414214 1.414214 
C -1.03916 1.789267 -0.530406 2 0 2 
z
" style="stroke: #0000ff"/>
    </defs>
    <g clip-path="url(#p9d64475f34)">
     <use xlink:href="#mdfe11f2901" x="69.218182" y="254.993912" style="fill: #0000ff; stroke: #0000ff"/>
     <use xlink:href="#mdfe11f2901" x="74.376888" y="252.908818" style="fill: #0000ff; stroke: #0000ff"/>
     <use xlink:href="#mdfe11f2901" x="79.535593" y="253.947405" style="fill: #0000ff; stroke: #0000ff"/>
     <use xlink:href="#mdfe11f2901" x="84.694299" y="254.596828" style="fill: #0000ff; stroke: #0000ff"/>
     <use xlink:href="#mdfe11f2901" x="89.853005" y="255.59781" style="fill: #0000ff; stroke: #0000ff"/>
     <use xlink:href="#mdfe11f2901" x="95.01171" y="255.704866" style="fill: #0000ff; stroke: #0000ff"/>
     <use xlink:href="#mdfe11f2901" x="100.170416" y="253.777362" style="fill: #0000ff; stroke: #0000ff"/>
     <use xlink:href="#mdfe11f2901" x="105.329122" y="238.836641" style="fill: #0000ff; stroke: #0000ff"/>
     <use xlink:href="#mdfe11f2901" x="110.487827" y="254.4464" style="fill: #0000ff; stroke: #0000ff"/>
     <use xlink:href="#mdfe11f2901" x="115.646533" y="254.727053" style="fill: #0000ff; stroke: #0000ff"/>
     <use xlink:href="#mdfe11f2901" x="120.805239" y="255.577071" style="fill: #0000ff; stroke: #0000ff"/>
     <use xlink:href="#mdfe11f2901" x="125.963945" y="255.321198" style="fill: #0000ff; stroke: #0000ff"/>
     <use xlink:href="#mdfe11f2901" x="131.12265" y="259.474334" style="fill: #0000ff; stroke: #0000ff"/>
     <use xlink:href="#mdfe11f2901" x="136.281356" y="255.921905" style="fill: #0000ff; stroke: #0000ff"/>
     <use xlink:href="#mdfe11f2901" x="141.440062" y="252.250131" style="fill: #0000ff; stroke: #0000ff"/>
     <use xlink:href="#mdfe11f2901" x="146.598767" y="256.169083" style="fill: #0000ff; stroke: #0000ff"/>
     <use xlink:href="#mdfe11f2901" x="151.757473" y="258.567568" style="fill: #0000ff; stroke: #0000ff"/>
     <use xlink:href="#mdfe11f2901" x="156.916179" y="255.578723" style="fill: #0000ff; stroke: #0000ff"/>
     <use xlink:href="#mdfe11f2901" x="162.074884" y="263.235185" style="fill: #0000ff; stroke: #0000ff"/>
     <use xlink:href="#mdfe11f2901" x="167.23359" y="258.899958" style="fill: #0000ff; stroke: #0000ff"/>
     <use xlink:href="#mdfe11f2901" x="172.392296" y="253.492218" style="fill: #0000ff; stroke: #0000ff"/>
     <use xlink:href="#mdfe11f2901" x="177.551002" y="231.314391" style="fill: #0000ff; stroke: #0000ff"/>
     <use xlink:href="#mdfe11f2901" x="182.709707" y="204.222462" style="fill: #0000ff; stroke: #0000ff"/>
     <use xlink:href="#mdfe11f2901" x="187.868413" y="267.835829" style="fill: #0000ff; stroke: #0000ff"/>
     <use xlink:href="#mdfe11f2901" x="193.027119" y="250.369075" style="fill: #0000ff; stroke: #0000ff"/>
     <use xlink:href="#mdfe11f2901" x="198.185824" y="258.314481" style="fill: #0000ff; stroke: #0000ff"/>
     <use xlink:href="#mdfe11f2901" x="203.34453" y="254.220489" style="fill: #0000ff; stroke: #0000ff"/>
     <use xlink:href="#mdfe11f2901" x="208.503236" y="265.115567" style="fill: #0000ff; stroke: #0000ff"/>
     <use xlink:href="#mdfe11f2901" x="213.661941" y="135.567692" style="fill: #0000ff; stroke: #0000ff"/>
     <use xlink:href="#mdfe11f2901" x="218.820647" y="254.117104" style="fill: #0000ff; stroke: #0000ff"/>
     <use xlink:href="#mdfe11f2901" x="223.979353" y="241.421745" style="fill: #0000ff; stroke: #0000ff"/>
     <use xlink:href="#mdfe11f2901" x="229.138059" y="73.129056" style="fill: #0000ff; stroke: #0000ff"/>
     <use xlink:href="#mdfe11f2901" x="234.296764" y="55.182865" style="fill: #0000ff; stroke: #0000ff"/>
     <use xlink:href="#mdfe11f2901" x="239.45547" y="55.019386" style="fill: #0000ff; stroke: #0000ff"/>
     <use xlink:href="#mdfe11f2901" x="244.614176" y="55.019386" style="fill: #0000ff; stroke: #0000ff"/>
     <use xlink:href="#mdfe11f2901" x="249.772881" y="55.019386" style="fill: #0000ff; stroke: #0000ff"/>
     <use xlink:href="#mdfe11f2901" x="254.931587" y="54.696638" style="fill: #0000ff; stroke: #0000ff"/>
     <use xlink:href="#mdfe11f2901" x="260.090293" y="54.696638" style="fill: #0000ff; stroke: #0000ff"/>
     <use xlink:href="#mdfe11f2901" x="265.248998" y="74.348015" style="fill: #0000ff; stroke: #0000ff"/>
     <use xlink:href="#mdfe11f2901" x="270.407704" y="70.371418" style="fill: #0000ff; stroke: #0000ff"/>
     <use xlink:href="#mdfe11f2901" x="275.56641" y="59.790766" style="fill: #0000ff; stroke: #0000ff"/>
     <use xlink:href="#mdfe11f2901" x="280.725116" y="60.155204" style="fill: #0000ff; stroke: #0000ff"/>
     <use xlink:href="#mdfe11f2901" x="285.883821" y="60.155204" style="fill: #0000ff; stroke: #0000ff"/>
     <use xlink:href="#mdfe11f2901" x="291.042527" y="52.541394" style="fill: #0000ff; stroke: #0000ff"/>
     <use xlink:href="#mdfe11f2901" x="296.201233" y="52.541394" style="fill: #0000ff; stroke: #0000ff"/>
     <use xlink:href="#mdfe11f2901" x="301.359938" y="53.554866" style="fill: #0000ff; stroke: #0000ff"/>
     <use xlink:href="#mdfe11f2901" x="306.518644" y="53.554866" style="fill: #0000ff; stroke: #0000ff"/>
     <use xlink:href="#mdfe11f2901" x="311.67735" y="53.554866" style="fill: #0000ff; stroke: #0000ff"/>
     <use xlink:href="#mdfe11f2901" x="316.836055" y="59.326753" style="fill: #0000ff; stroke: #0000ff"/>
     <use xlink:href="#mdfe11f2901" x="321.994761" y="59.326753" style="fill: #0000ff; stroke: #0000ff"/>
     <use xlink:href="#mdfe11f2901" x="327.153467" y="51.554763" style="fill: #0000ff; stroke: #0000ff"/>
     <use xlink:href="#mdfe11f2901" x="332.312173" y="51.554763" style="fill: #0000ff; stroke: #0000ff"/>
     <use xlink:href="#mdfe11f2901" x="337.470878" y="46.59562" style="fill: #0000ff; stroke: #0000ff"/>
     <use xlink:href="#mdfe11f2901" x="342.629584" y="46.59562" style="fill: #0000ff; stroke: #0000ff"/>
     <use xlink:href="#mdfe11f2901" x="347.78829" y="46.59562" style="fill: #0000ff; stroke: #0000ff"/>
     <use xlink:href="#mdfe11f2901" x="352.946995" y="46.59562" style="fill: #0000ff; stroke: #0000ff"/>
     <use xlink:href="#mdfe11f2901" x="358.105701" y="46.59562" style="fill: #0000ff; stroke: #0000ff"/>
     <use xlink:href="#mdfe11f2901" x="363.264407" y="46.59562" style="fill: #0000ff; stroke: #0000ff"/>
     <use xlink:href="#mdfe11f2901" x="368.423112" y="46.59562" style="fill: #0000ff; stroke: #0000ff"/>
     <use xlink:href="#mdfe11f2901" x="373.581818" y="46.59562" style="fill: #0000ff; stroke: #0000ff"/>
    </g>
   </g>
   <g id="line2d_31">
    <path d="M 69.218182 252.916619 
L 74.376888 253.930159 
L 79.535593 253.261879 
L 84.694299 247.205396 
L 89.853005 253.369374 
L 95.01171 253.153513 
L 100.170416 253.401945 
L 105.329122 257.555253 
L 110.487827 255.133577 
L 115.646533 224.496053 
L 120.805239 256.605346 
L 125.963945 260.432933 
L 131.12265 258.159948 
L 136.281356 255.865523 
L 141.440062 254.610689 
L 146.598767 253.28113 
L 151.757473 253.331071 
L 156.916179 235.716557 
L 162.074884 253.448997 
L 167.23359 254.253581 
L 172.392296 242.951055 
L 177.551002 252.6956 
L 182.709707 253.313513 
L 187.868413 253.429059 
L 193.027119 253.463809 
L 198.185824 251.642943 
L 203.34453 254.6271 
L 208.503236 242.683831 
L 213.661941 253.775947 
L 218.820647 254.018887 
L 223.979353 254.333527 
L 229.138059 254.429154 
L 234.296764 248.990206 
L 239.45547 255.647379 
L 244.614176 258.135125 
L 249.772881 257.429299 
L 254.931587 241.095302 
L 260.090293 257.397917 
L 265.248998 83.734856 
L 270.407704 101.848116 
L 275.56641 91.57453 
L 280.725116 69.715746 
L 285.883821 55.939087 
L 291.042527 51.753769 
L 296.201233 51.753769 
L 301.359938 58.346399 
L 306.518644 57.033652 
L 311.67735 51.753769 
L 316.836055 51.753769 
L 321.994761 51.753769 
L 327.153467 51.753769 
L 332.312173 51.753769 
L 337.470878 48.80827 
L 342.629584 48.808312 
L 347.78829 48.808312 
L 352.946995 48.808312 
L 358.105701 48.808312 
L 363.264407 48.808312 
L 368.423112 48.548404 
L 373.581818 48.808312 
" clip-path="url(#p9d64475f34)" style="fill: none; stroke: #ff7763; stroke-width: 1.5; stroke-linecap: square"/>
    <defs>
     <path id="m32ae9d14e9" d="M -2 2 
L 2 -2 
M -2 -2 
L 2 2 
" style="stroke: #ff7763"/>
    </defs>
    <g clip-path="url(#p9d64475f34)">
     <use xlink:href="#m32ae9d14e9" x="69.218182" y="252.916619" style="fill: #ff7763; stroke: #ff7763"/>
     <use xlink:href="#m32ae9d14e9" x="74.376888" y="253.930159" style="fill: #ff7763; stroke: #ff7763"/>
     <use xlink:href="#m32ae9d14e9" x="79.535593" y="253.261879" style="fill: #ff7763; stroke: #ff7763"/>
     <use xlink:href="#m32ae9d14e9" x="84.694299" y="247.205396" style="fill: #ff7763; stroke: #ff7763"/>
     <use xlink:href="#m32ae9d14e9" x="89.853005" y="253.369374" style="fill: #ff7763; stroke: #ff7763"/>
     <use xlink:href="#m32ae9d14e9" x="95.01171" y="253.153513" style="fill: #ff7763; stroke: #ff7763"/>
     <use xlink:href="#m32ae9d14e9" x="100.170416" y="253.401945" style="fill: #ff7763; stroke: #ff7763"/>
     <use xlink:href="#m32ae9d14e9" x="105.329122" y="257.555253" style="fill: #ff7763; stroke: #ff7763"/>
     <use xlink:href="#m32ae9d14e9" x="110.487827" y="255.133577" style="fill: #ff7763; stroke: #ff7763"/>
     <use xlink:href="#m32ae9d14e9" x="115.646533" y="224.496053" style="fill: #ff7763; stroke: #ff7763"/>
     <use xlink:href="#m32ae9d14e9" x="120.805239" y="256.605346" style="fill: #ff7763; stroke: #ff7763"/>
     <use xlink:href="#m32ae9d14e9" x="125.963945" y="260.432933" style="fill: #ff7763; stroke: #ff7763"/>
     <use xlink:href="#m32ae9d14e9" x="131.12265" y="258.159948" style="fill: #ff7763; stroke: #ff7763"/>
     <use xlink:href="#m32ae9d14e9" x="136.281356" y="255.865523" style="fill: #ff7763; stroke: #ff7763"/>
     <use xlink:href="#m32ae9d14e9" x="141.440062" y="254.610689" style="fill: #ff7763; stroke: #ff7763"/>
     <use xlink:href="#m32ae9d14e9" x="146.598767" y="253.28113" style="fill: #ff7763; stroke: #ff7763"/>
     <use xlink:href="#m32ae9d14e9" x="151.757473" y="253.331071" style="fill: #ff7763; stroke: #ff7763"/>
     <use xlink:href="#m32ae9d14e9" x="156.916179" y="235.716557" style="fill: #ff7763; stroke: #ff7763"/>
     <use xlink:href="#m32ae9d14e9" x="162.074884" y="253.448997" style="fill: #ff7763; stroke: #ff7763"/>
     <use xlink:href="#m32ae9d14e9" x="167.23359" y="254.253581" style="fill: #ff7763; stroke: #ff7763"/>
     <use xlink:href="#m32ae9d14e9" x="172.392296" y="242.951055" style="fill: #ff7763; stroke: #ff7763"/>
     <use xlink:href="#m32ae9d14e9" x="177.551002" y="252.6956" style="fill: #ff7763; stroke: #ff7763"/>
     <use xlink:href="#m32ae9d14e9" x="182.709707" y="253.313513" style="fill: #ff7763; stroke: #ff7763"/>
     <use xlink:href="#m32ae9d14e9" x="187.868413" y="253.429059" style="fill: #ff7763; stroke: #ff7763"/>
     <use xlink:href="#m32ae9d14e9" x="193.027119" y="253.463809" style="fill: #ff7763; stroke: #ff7763"/>
     <use xlink:href="#m32ae9d14e9" x="198.185824" y="251.642943" style="fill: #ff7763; stroke: #ff7763"/>
     <use xlink:href="#m32ae9d14e9" x="203.34453" y="254.6271" style="fill: #ff7763; stroke: #ff7763"/>
     <use xlink:href="#m32ae9d14e9" x="208.503236" y="242.683831" style="fill: #ff7763; stroke: #ff7763"/>
     <use xlink:href="#m32ae9d14e9" x="213.661941" y="253.775947" style="fill: #ff7763; stroke: #ff7763"/>
     <use xlink:href="#m32ae9d14e9" x="218.820647" y="254.018887" style="fill: #ff7763; stroke: #ff7763"/>
     <use xlink:href="#m32ae9d14e9" x="223.979353" y="254.333527" style="fill: #ff7763; stroke: #ff7763"/>
     <use xlink:href="#m32ae9d14e9" x="229.138059" y="254.429154" style="fill: #ff7763; stroke: #ff7763"/>
     <use xlink:href="#m32ae9d14e9" x="234.296764" y="248.990206" style="fill: #ff7763; stroke: #ff7763"/>
     <use xlink:href="#m32ae9d14e9" x="239.45547" y="255.647379" style="fill: #ff7763; stroke: #ff7763"/>
     <use xlink:href="#m32ae9d14e9" x="244.614176" y="258.135125" style="fill: #ff7763; stroke: #ff7763"/>
     <use xlink:href="#m32ae9d14e9" x="249.772881" y="257.429299" style="fill: #ff7763; stroke: #ff7763"/>
     <use xlink:href="#m32ae9d14e9" x="254.931587" y="241.095302" style="fill: #ff7763; stroke: #ff7763"/>
     <use xlink:href="#m32ae9d14e9" x="260.090293" y="257.397917" style="fill: #ff7763; stroke: #ff7763"/>
     <use xlink:href="#m32ae9d14e9" x="265.248998" y="83.734856" style="fill: #ff7763; stroke: #ff7763"/>
     <use xlink:href="#m32ae9d14e9" x="270.407704" y="101.848116" style="fill: #ff7763; stroke: #ff7763"/>
     <use xlink:href="#m32ae9d14e9" x="275.56641" y="91.57453" style="fill: #ff7763; stroke: #ff7763"/>
     <use xlink:href="#m32ae9d14e9" x="280.725116" y="69.715746" style="fill: #ff7763; stroke: #ff7763"/>
     <use xlink:href="#m32ae9d14e9" x="285.883821" y="55.939087" style="fill: #ff7763; stroke: #ff7763"/>
     <use xlink:href="#m32ae9d14e9" x="291.042527" y="51.753769" style="fill: #ff7763; stroke: #ff7763"/>
     <use xlink:href="#m32ae9d14e9" x="296.201233" y="51.753769" style="fill: #ff7763; stroke: #ff7763"/>
     <use xlink:href="#m32ae9d14e9" x="301.359938" y="58.346399" style="fill: #ff7763; stroke: #ff7763"/>
     <use xlink:href="#m32ae9d14e9" x="306.518644" y="57.033652" style="fill: #ff7763; stroke: #ff7763"/>
     <use xlink:href="#m32ae9d14e9" x="311.67735" y="51.753769" style="fill: #ff7763; stroke: #ff7763"/>
     <use xlink:href="#m32ae9d14e9" x="316.836055" y="51.753769" style="fill: #ff7763; stroke: #ff7763"/>
     <use xlink:href="#m32ae9d14e9" x="321.994761" y="51.753769" style="fill: #ff7763; stroke: #ff7763"/>
     <use xlink:href="#m32ae9d14e9" x="327.153467" y="51.753769" style="fill: #ff7763; stroke: #ff7763"/>
     <use xlink:href="#m32ae9d14e9" x="332.312173" y="51.753769" style="fill: #ff7763; stroke: #ff7763"/>
     <use xlink:href="#m32ae9d14e9" x="337.470878" y="48.80827" style="fill: #ff7763; stroke: #ff7763"/>
     <use xlink:href="#m32ae9d14e9" x="342.629584" y="48.808312" style="fill: #ff7763; stroke: #ff7763"/>
     <use xlink:href="#m32ae9d14e9" x="347.78829" y="48.808312" style="fill: #ff7763; stroke: #ff7763"/>
     <use xlink:href="#m32ae9d14e9" x="352.946995" y="48.808312" style="fill: #ff7763; stroke: #ff7763"/>
     <use xlink:href="#m32ae9d14e9" x="358.105701" y="48.808312" style="fill: #ff7763; stroke: #ff7763"/>
     <use xlink:href="#m32ae9d14e9" x="363.264407" y="48.808312" style="fill: #ff7763; stroke: #ff7763"/>
     <use xlink:href="#m32ae9d14e9" x="368.423112" y="48.548404" style="fill: #ff7763; stroke: #ff7763"/>
     <use xlink:href="#m32ae9d14e9" x="373.581818" y="48.808312" style="fill: #ff7763; stroke: #ff7763"/>
    </g>
   </g>
   <g id="line2d_32">
    <path d="M 69.218182 253.295984 
L 74.376888 252.935268 
L 79.535593 252.980387 
L 84.694299 264.081825 
L 89.853005 252.908818 
L 95.01171 254.668035 
L 100.170416 253.335562 
L 105.329122 255.867353 
L 110.487827 260.526531 
L 115.646533 256.744449 
L 120.805239 254.904829 
L 125.963945 255.895155 
L 131.12265 256.263439 
L 136.281356 245.323614 
L 141.440062 257.352026 
L 146.598767 253.167846 
L 151.757473 255.428425 
L 156.916179 255.011351 
L 162.074884 253.270217 
L 167.23359 229.858682 
L 172.392296 253.493402 
L 177.551002 254.149316 
L 182.709707 253.512148 
L 187.868413 255.849363 
L 193.027119 254.036955 
L 198.185824 252.61938 
L 203.34453 247.201108 
L 208.503236 225.718961 
L 213.661941 252.287194 
L 218.820647 251.039986 
L 223.979353 252.080876 
L 229.138059 250.813144 
L 234.296764 254.59995 
L 239.45547 246.684884 
L 244.614176 194.196756 
L 249.772881 249.823354 
L 254.931587 203.586084 
L 260.090293 169.171057 
L 265.248998 265.59913 
L 270.407704 251.039998 
L 275.56641 130.708913 
L 280.725116 148.064868 
L 285.883821 95.01862 
L 291.042527 108.631579 
L 296.201233 108.631579 
L 301.359938 108.631579 
L 306.518644 60.965226 
L 311.67735 60.965226 
L 316.836055 60.965226 
L 321.994761 66.952794 
L 327.153467 66.952794 
L 332.312173 60.946345 
L 337.470878 56.918873 
L 342.629584 56.918873 
L 347.78829 56.958027 
L 352.946995 53.475719 
L 358.105701 50.726274 
L 363.264407 50.726274 
L 368.423112 51.459298 
L 373.581818 51.459298 
" clip-path="url(#p9d64475f34)" style="fill: none; stroke: #ffac1e; stroke-width: 1.5; stroke-linecap: square"/>
    <defs>
     <path id="mf5b15060ef" d="M 0 -2 
L -0.449028 -0.618034 
L -1.902113 -0.618034 
L -0.726543 0.236068 
L -1.175571 1.618034 
L -0 0.763932 
L 1.175571 1.618034 
L 0.726543 0.236068 
L 1.902113 -0.618034 
L 0.449028 -0.618034 
z
" style="stroke: #ffac1e; stroke-linejoin: bevel"/>
    </defs>
    <g clip-path="url(#p9d64475f34)">
     <use xlink:href="#mf5b15060ef" x="69.218182" y="253.295984" style="fill: #ffac1e; stroke: #ffac1e; stroke-linejoin: bevel"/>
     <use xlink:href="#mf5b15060ef" x="74.376888" y="252.935268" style="fill: #ffac1e; stroke: #ffac1e; stroke-linejoin: bevel"/>
     <use xlink:href="#mf5b15060ef" x="79.535593" y="252.980387" style="fill: #ffac1e; stroke: #ffac1e; stroke-linejoin: bevel"/>
     <use xlink:href="#mf5b15060ef" x="84.694299" y="264.081825" style="fill: #ffac1e; stroke: #ffac1e; stroke-linejoin: bevel"/>
     <use xlink:href="#mf5b15060ef" x="89.853005" y="252.908818" style="fill: #ffac1e; stroke: #ffac1e; stroke-linejoin: bevel"/>
     <use xlink:href="#mf5b15060ef" x="95.01171" y="254.668035" style="fill: #ffac1e; stroke: #ffac1e; stroke-linejoin: bevel"/>
     <use xlink:href="#mf5b15060ef" x="100.170416" y="253.335562" style="fill: #ffac1e; stroke: #ffac1e; stroke-linejoin: bevel"/>
     <use xlink:href="#mf5b15060ef" x="105.329122" y="255.867353" style="fill: #ffac1e; stroke: #ffac1e; stroke-linejoin: bevel"/>
     <use xlink:href="#mf5b15060ef" x="110.487827" y="260.526531" style="fill: #ffac1e; stroke: #ffac1e; stroke-linejoin: bevel"/>
     <use xlink:href="#mf5b15060ef" x="115.646533" y="256.744449" style="fill: #ffac1e; stroke: #ffac1e; stroke-linejoin: bevel"/>
     <use xlink:href="#mf5b15060ef" x="120.805239" y="254.904829" style="fill: #ffac1e; stroke: #ffac1e; stroke-linejoin: bevel"/>
     <use xlink:href="#mf5b15060ef" x="125.963945" y="255.895155" style="fill: #ffac1e; stroke: #ffac1e; stroke-linejoin: bevel"/>
     <use xlink:href="#mf5b15060ef" x="131.12265" y="256.263439" style="fill: #ffac1e; stroke: #ffac1e; stroke-linejoin: bevel"/>
     <use xlink:href="#mf5b15060ef" x="136.281356" y="245.323614" style="fill: #ffac1e; stroke: #ffac1e; stroke-linejoin: bevel"/>
     <use xlink:href="#mf5b15060ef" x="141.440062" y="257.352026" style="fill: #ffac1e; stroke: #ffac1e; stroke-linejoin: bevel"/>
     <use xlink:href="#mf5b15060ef" x="146.598767" y="253.167846" style="fill: #ffac1e; stroke: #ffac1e; stroke-linejoin: bevel"/>
     <use xlink:href="#mf5b15060ef" x="151.757473" y="255.428425" style="fill: #ffac1e; stroke: #ffac1e; stroke-linejoin: bevel"/>
     <use xlink:href="#mf5b15060ef" x="156.916179" y="255.011351" style="fill: #ffac1e; stroke: #ffac1e; stroke-linejoin: bevel"/>
     <use xlink:href="#mf5b15060ef" x="162.074884" y="253.270217" style="fill: #ffac1e; stroke: #ffac1e; stroke-linejoin: bevel"/>
     <use xlink:href="#mf5b15060ef" x="167.23359" y="229.858682" style="fill: #ffac1e; stroke: #ffac1e; stroke-linejoin: bevel"/>
     <use xlink:href="#mf5b15060ef" x="172.392296" y="253.493402" style="fill: #ffac1e; stroke: #ffac1e; stroke-linejoin: bevel"/>
     <use xlink:href="#mf5b15060ef" x="177.551002" y="254.149316" style="fill: #ffac1e; stroke: #ffac1e; stroke-linejoin: bevel"/>
     <use xlink:href="#mf5b15060ef" x="182.709707" y="253.512148" style="fill: #ffac1e; stroke: #ffac1e; stroke-linejoin: bevel"/>
     <use xlink:href="#mf5b15060ef" x="187.868413" y="255.849363" style="fill: #ffac1e; stroke: #ffac1e; stroke-linejoin: bevel"/>
     <use xlink:href="#mf5b15060ef" x="193.027119" y="254.036955" style="fill: #ffac1e; stroke: #ffac1e; stroke-linejoin: bevel"/>
     <use xlink:href="#mf5b15060ef" x="198.185824" y="252.61938" style="fill: #ffac1e; stroke: #ffac1e; stroke-linejoin: bevel"/>
     <use xlink:href="#mf5b15060ef" x="203.34453" y="247.201108" style="fill: #ffac1e; stroke: #ffac1e; stroke-linejoin: bevel"/>
     <use xlink:href="#mf5b15060ef" x="208.503236" y="225.718961" style="fill: #ffac1e; stroke: #ffac1e; stroke-linejoin: bevel"/>
     <use xlink:href="#mf5b15060ef" x="213.661941" y="252.287194" style="fill: #ffac1e; stroke: #ffac1e; stroke-linejoin: bevel"/>
     <use xlink:href="#mf5b15060ef" x="218.820647" y="251.039986" style="fill: #ffac1e; stroke: #ffac1e; stroke-linejoin: bevel"/>
     <use xlink:href="#mf5b15060ef" x="223.979353" y="252.080876" style="fill: #ffac1e; stroke: #ffac1e; stroke-linejoin: bevel"/>
     <use xlink:href="#mf5b15060ef" x="229.138059" y="250.813144" style="fill: #ffac1e; stroke: #ffac1e; stroke-linejoin: bevel"/>
     <use xlink:href="#mf5b15060ef" x="234.296764" y="254.59995" style="fill: #ffac1e; stroke: #ffac1e; stroke-linejoin: bevel"/>
     <use xlink:href="#mf5b15060ef" x="239.45547" y="246.684884" style="fill: #ffac1e; stroke: #ffac1e; stroke-linejoin: bevel"/>
     <use xlink:href="#mf5b15060ef" x="244.614176" y="194.196756" style="fill: #ffac1e; stroke: #ffac1e; stroke-linejoin: bevel"/>
     <use xlink:href="#mf5b15060ef" x="249.772881" y="249.823354" style="fill: #ffac1e; stroke: #ffac1e; stroke-linejoin: bevel"/>
     <use xlink:href="#mf5b15060ef" x="254.931587" y="203.586084" style="fill: #ffac1e; stroke: #ffac1e; stroke-linejoin: bevel"/>
     <use xlink:href="#mf5b15060ef" x="260.090293" y="169.171057" style="fill: #ffac1e; stroke: #ffac1e; stroke-linejoin: bevel"/>
     <use xlink:href="#mf5b15060ef" x="265.248998" y="265.59913" style="fill: #ffac1e; stroke: #ffac1e; stroke-linejoin: bevel"/>
     <use xlink:href="#mf5b15060ef" x="270.407704" y="251.039998" style="fill: #ffac1e; stroke: #ffac1e; stroke-linejoin: bevel"/>
     <use xlink:href="#mf5b15060ef" x="275.56641" y="130.708913" style="fill: #ffac1e; stroke: #ffac1e; stroke-linejoin: bevel"/>
     <use xlink:href="#mf5b15060ef" x="280.725116" y="148.064868" style="fill: #ffac1e; stroke: #ffac1e; stroke-linejoin: bevel"/>
     <use xlink:href="#mf5b15060ef" x="285.883821" y="95.01862" style="fill: #ffac1e; stroke: #ffac1e; stroke-linejoin: bevel"/>
     <use xlink:href="#mf5b15060ef" x="291.042527" y="108.631579" style="fill: #ffac1e; stroke: #ffac1e; stroke-linejoin: bevel"/>
     <use xlink:href="#mf5b15060ef" x="296.201233" y="108.631579" style="fill: #ffac1e; stroke: #ffac1e; stroke-linejoin: bevel"/>
     <use xlink:href="#mf5b15060ef" x="301.359938" y="108.631579" style="fill: #ffac1e; stroke: #ffac1e; stroke-linejoin: bevel"/>
     <use xlink:href="#mf5b15060ef" x="306.518644" y="60.965226" style="fill: #ffac1e; stroke: #ffac1e; stroke-linejoin: bevel"/>
     <use xlink:href="#mf5b15060ef" x="311.67735" y="60.965226" style="fill: #ffac1e; stroke: #ffac1e; stroke-linejoin: bevel"/>
     <use xlink:href="#mf5b15060ef" x="316.836055" y="60.965226" style="fill: #ffac1e; stroke: #ffac1e; stroke-linejoin: bevel"/>
     <use xlink:href="#mf5b15060ef" x="321.994761" y="66.952794" style="fill: #ffac1e; stroke: #ffac1e; stroke-linejoin: bevel"/>
     <use xlink:href="#mf5b15060ef" x="327.153467" y="66.952794" style="fill: #ffac1e; stroke: #ffac1e; stroke-linejoin: bevel"/>
     <use xlink:href="#mf5b15060ef" x="332.312173" y="60.946345" style="fill: #ffac1e; stroke: #ffac1e; stroke-linejoin: bevel"/>
     <use xlink:href="#mf5b15060ef" x="337.470878" y="56.918873" style="fill: #ffac1e; stroke: #ffac1e; stroke-linejoin: bevel"/>
     <use xlink:href="#mf5b15060ef" x="342.629584" y="56.918873" style="fill: #ffac1e; stroke: #ffac1e; stroke-linejoin: bevel"/>
     <use xlink:href="#mf5b15060ef" x="347.78829" y="56.958027" style="fill: #ffac1e; stroke: #ffac1e; stroke-linejoin: bevel"/>
     <use xlink:href="#mf5b15060ef" x="352.946995" y="53.475719" style="fill: #ffac1e; stroke: #ffac1e; stroke-linejoin: bevel"/>
     <use xlink:href="#mf5b15060ef" x="358.105701" y="50.726274" style="fill: #ffac1e; stroke: #ffac1e; stroke-linejoin: bevel"/>
     <use xlink:href="#mf5b15060ef" x="363.264407" y="50.726274" style="fill: #ffac1e; stroke: #ffac1e; stroke-linejoin: bevel"/>
     <use xlink:href="#mf5b15060ef" x="368.423112" y="51.459298" style="fill: #ffac1e; stroke: #ffac1e; stroke-linejoin: bevel"/>
     <use xlink:href="#mf5b15060ef" x="373.581818" y="51.459298" style="fill: #ffac1e; stroke: #ffac1e; stroke-linejoin: bevel"/>
    </g>
   </g>
   <g id="line2d_33">
    <path d="M 69.218182 256.96933 
L 74.376888 253.512905 
L 79.535593 252.71122 
L 84.694299 252.908818 
L 89.853005 252.92285 
L 95.01171 264.138977 
L 100.170416 259.109472 
L 105.329122 256.692359 
L 110.487827 253.565721 
L 115.646533 257.149393 
L 120.805239 261.701732 
L 125.963945 262.743832 
L 131.12265 262.716231 
L 136.281356 254.350741 
L 141.440062 253.079552 
L 146.598767 265.171219 
L 151.757473 250.059296 
L 156.916179 256.806799 
L 162.074884 254.154809 
L 167.23359 253.421424 
L 172.392296 254.908897 
L 177.551002 256.161495 
L 182.709707 253.701336 
L 187.868413 253.063691 
L 193.027119 267.760981 
L 198.185824 258.767649 
L 203.34453 261.186779 
L 208.503236 244.294494 
L 213.661941 253.835936 
L 218.820647 240.93015 
L 223.979353 253.147253 
L 229.138059 252.980294 
L 234.296764 224.442164 
L 239.45547 252.625106 
L 244.614176 251.388721 
L 249.772881 178.643083 
L 254.931587 242.493591 
L 260.090293 252.783006 
L 265.248998 248.6908 
L 270.407704 252.160082 
L 275.56641 252.427115 
L 280.725116 253.9885 
L 285.883821 254.170323 
L 291.042527 118.647352 
L 296.201233 235.131181 
L 301.359938 140.230142 
L 306.518644 73.403025 
L 311.67735 88.348951 
L 316.836055 88.348951 
L 321.994761 59.729518 
L 327.153467 59.771179 
L 332.312173 71.340402 
L 337.470878 76.212105 
L 342.629584 63.495414 
L 347.78829 72.917653 
L 352.946995 59.607417 
L 358.105701 64.170307 
L 363.264407 65.359552 
L 368.423112 58.676673 
L 373.581818 64.999189 
" clip-path="url(#p9d64475f34)" style="fill: none; stroke: #009435; stroke-width: 1.5; stroke-linecap: square"/>
    <defs>
     <path id="m79221c80df" d="M -2 2 
L 2 2 
L 2 -2 
L -2 -2 
z
" style="stroke: #009435; stroke-linejoin: miter"/>
    </defs>
    <g clip-path="url(#p9d64475f34)">
     <use xlink:href="#m79221c80df" x="69.218182" y="256.96933" style="fill: #009435; stroke: #009435; stroke-linejoin: miter"/>
     <use xlink:href="#m79221c80df" x="74.376888" y="253.512905" style="fill: #009435; stroke: #009435; stroke-linejoin: miter"/>
     <use xlink:href="#m79221c80df" x="79.535593" y="252.71122" style="fill: #009435; stroke: #009435; stroke-linejoin: miter"/>
     <use xlink:href="#m79221c80df" x="84.694299" y="252.908818" style="fill: #009435; stroke: #009435; stroke-linejoin: miter"/>
     <use xlink:href="#m79221c80df" x="89.853005" y="252.92285" style="fill: #009435; stroke: #009435; stroke-linejoin: miter"/>
     <use xlink:href="#m79221c80df" x="95.01171" y="264.138977" style="fill: #009435; stroke: #009435; stroke-linejoin: miter"/>
     <use xlink:href="#m79221c80df" x="100.170416" y="259.109472" style="fill: #009435; stroke: #009435; stroke-linejoin: miter"/>
     <use xlink:href="#m79221c80df" x="105.329122" y="256.692359" style="fill: #009435; stroke: #009435; stroke-linejoin: miter"/>
     <use xlink:href="#m79221c80df" x="110.487827" y="253.565721" style="fill: #009435; stroke: #009435; stroke-linejoin: miter"/>
     <use xlink:href="#m79221c80df" x="115.646533" y="257.149393" style="fill: #009435; stroke: #009435; stroke-linejoin: miter"/>
     <use xlink:href="#m79221c80df" x="120.805239" y="261.701732" style="fill: #009435; stroke: #009435; stroke-linejoin: miter"/>
     <use xlink:href="#m79221c80df" x="125.963945" y="262.743832" style="fill: #009435; stroke: #009435; stroke-linejoin: miter"/>
     <use xlink:href="#m79221c80df" x="131.12265" y="262.716231" style="fill: #009435; stroke: #009435; stroke-linejoin: miter"/>
     <use xlink:href="#m79221c80df" x="136.281356" y="254.350741" style="fill: #009435; stroke: #009435; stroke-linejoin: miter"/>
     <use xlink:href="#m79221c80df" x="141.440062" y="253.079552" style="fill: #009435; stroke: #009435; stroke-linejoin: miter"/>
     <use xlink:href="#m79221c80df" x="146.598767" y="265.171219" style="fill: #009435; stroke: #009435; stroke-linejoin: miter"/>
     <use xlink:href="#m79221c80df" x="151.757473" y="250.059296" style="fill: #009435; stroke: #009435; stroke-linejoin: miter"/>
     <use xlink:href="#m79221c80df" x="156.916179" y="256.806799" style="fill: #009435; stroke: #009435; stroke-linejoin: miter"/>
     <use xlink:href="#m79221c80df" x="162.074884" y="254.154809" style="fill: #009435; stroke: #009435; stroke-linejoin: miter"/>
     <use xlink:href="#m79221c80df" x="167.23359" y="253.421424" style="fill: #009435; stroke: #009435; stroke-linejoin: miter"/>
     <use xlink:href="#m79221c80df" x="172.392296" y="254.908897" style="fill: #009435; stroke: #009435; stroke-linejoin: miter"/>
     <use xlink:href="#m79221c80df" x="177.551002" y="256.161495" style="fill: #009435; stroke: #009435; stroke-linejoin: miter"/>
     <use xlink:href="#m79221c80df" x="182.709707" y="253.701336" style="fill: #009435; stroke: #009435; stroke-linejoin: miter"/>
     <use xlink:href="#m79221c80df" x="187.868413" y="253.063691" style="fill: #009435; stroke: #009435; stroke-linejoin: miter"/>
     <use xlink:href="#m79221c80df" x="193.027119" y="267.760981" style="fill: #009435; stroke: #009435; stroke-linejoin: miter"/>
     <use xlink:href="#m79221c80df" x="198.185824" y="258.767649" style="fill: #009435; stroke: #009435; stroke-linejoin: miter"/>
     <use xlink:href="#m79221c80df" x="203.34453" y="261.186779" style="fill: #009435; stroke: #009435; stroke-linejoin: miter"/>
     <use xlink:href="#m79221c80df" x="208.503236" y="244.294494" style="fill: #009435; stroke: #009435; stroke-linejoin: miter"/>
     <use xlink:href="#m79221c80df" x="213.661941" y="253.835936" style="fill: #009435; stroke: #009435; stroke-linejoin: miter"/>
     <use xlink:href="#m79221c80df" x="218.820647" y="240.93015" style="fill: #009435; stroke: #009435; stroke-linejoin: miter"/>
     <use xlink:href="#m79221c80df" x="223.979353" y="253.147253" style="fill: #009435; stroke: #009435; stroke-linejoin: miter"/>
     <use xlink:href="#m79221c80df" x="229.138059" y="252.980294" style="fill: #009435; stroke: #009435; stroke-linejoin: miter"/>
     <use xlink:href="#m79221c80df" x="234.296764" y="224.442164" style="fill: #009435; stroke: #009435; stroke-linejoin: miter"/>
     <use xlink:href="#m79221c80df" x="239.45547" y="252.625106" style="fill: #009435; stroke: #009435; stroke-linejoin: miter"/>
     <use xlink:href="#m79221c80df" x="244.614176" y="251.388721" style="fill: #009435; stroke: #009435; stroke-linejoin: miter"/>
     <use xlink:href="#m79221c80df" x="249.772881" y="178.643083" style="fill: #009435; stroke: #009435; stroke-linejoin: miter"/>
     <use xlink:href="#m79221c80df" x="254.931587" y="242.493591" style="fill: #009435; stroke: #009435; stroke-linejoin: miter"/>
     <use xlink:href="#m79221c80df" x="260.090293" y="252.783006" style="fill: #009435; stroke: #009435; stroke-linejoin: miter"/>
     <use xlink:href="#m79221c80df" x="265.248998" y="248.6908" style="fill: #009435; stroke: #009435; stroke-linejoin: miter"/>
     <use xlink:href="#m79221c80df" x="270.407704" y="252.160082" style="fill: #009435; stroke: #009435; stroke-linejoin: miter"/>
     <use xlink:href="#m79221c80df" x="275.56641" y="252.427115" style="fill: #009435; stroke: #009435; stroke-linejoin: miter"/>
     <use xlink:href="#m79221c80df" x="280.725116" y="253.9885" style="fill: #009435; stroke: #009435; stroke-linejoin: miter"/>
     <use xlink:href="#m79221c80df" x="285.883821" y="254.170323" style="fill: #009435; stroke: #009435; stroke-linejoin: miter"/>
     <use xlink:href="#m79221c80df" x="291.042527" y="118.647352" style="fill: #009435; stroke: #009435; stroke-linejoin: miter"/>
     <use xlink:href="#m79221c80df" x="296.201233" y="235.131181" style="fill: #009435; stroke: #009435; stroke-linejoin: miter"/>
     <use xlink:href="#m79221c80df" x="301.359938" y="140.230142" style="fill: #009435; stroke: #009435; stroke-linejoin: miter"/>
     <use xlink:href="#m79221c80df" x="306.518644" y="73.403025" style="fill: #009435; stroke: #009435; stroke-linejoin: miter"/>
     <use xlink:href="#m79221c80df" x="311.67735" y="88.348951" style="fill: #009435; stroke: #009435; stroke-linejoin: miter"/>
     <use xlink:href="#m79221c80df" x="316.836055" y="88.348951" style="fill: #009435; stroke: #009435; stroke-linejoin: miter"/>
     <use xlink:href="#m79221c80df" x="321.994761" y="59.729518" style="fill: #009435; stroke: #009435; stroke-linejoin: miter"/>
     <use xlink:href="#m79221c80df" x="327.153467" y="59.771179" style="fill: #009435; stroke: #009435; stroke-linejoin: miter"/>
     <use xlink:href="#m79221c80df" x="332.312173" y="71.340402" style="fill: #009435; stroke: #009435; stroke-linejoin: miter"/>
     <use xlink:href="#m79221c80df" x="337.470878" y="76.212105" style="fill: #009435; stroke: #009435; stroke-linejoin: miter"/>
     <use xlink:href="#m79221c80df" x="342.629584" y="63.495414" style="fill: #009435; stroke: #009435; stroke-linejoin: miter"/>
     <use xlink:href="#m79221c80df" x="347.78829" y="72.917653" style="fill: #009435; stroke: #009435; stroke-linejoin: miter"/>
     <use xlink:href="#m79221c80df" x="352.946995" y="59.607417" style="fill: #009435; stroke: #009435; stroke-linejoin: miter"/>
     <use xlink:href="#m79221c80df" x="358.105701" y="64.170307" style="fill: #009435; stroke: #009435; stroke-linejoin: miter"/>
     <use xlink:href="#m79221c80df" x="363.264407" y="65.359552" style="fill: #009435; stroke: #009435; stroke-linejoin: miter"/>
     <use xlink:href="#m79221c80df" x="368.423112" y="58.676673" style="fill: #009435; stroke: #009435; stroke-linejoin: miter"/>
     <use xlink:href="#m79221c80df" x="373.581818" y="64.999189" style="fill: #009435; stroke: #009435; stroke-linejoin: miter"/>
    </g>
   </g>
   <g id="patch_3">
    <path d="M 54 252 
L 54 34.56 
" style="fill: none; stroke: #000000; stroke-width: 0.8; stroke-linejoin: miter; stroke-linecap: square"/>
   </g>
   <g id="patch_4">
    <path d="M 388.8 252 
L 388.8 34.56 
" style="fill: none; stroke: #000000; stroke-width: 0.8; stroke-linejoin: miter; stroke-linecap: square"/>
   </g>
   <g id="patch_5">
    <path d="M 54 252 
L 388.8 252 
" style="fill: none; stroke: #000000; stroke-width: 0.8; stroke-linejoin: miter; stroke-linecap: square"/>
   </g>
   <g id="patch_6">
    <path d="M 54 34.56 
L 388.8 34.56 
" style="fill: none; stroke: #000000; stroke-width: 0.8; stroke-linejoin: miter; stroke-linecap: square"/>
   </g>
   <g id="text_17">
    <!-- R-max agent policy with gamma = 0.95 -->
    <g transform="translate(101.828438 28.56)scale(0.12 -0.12)">
     <defs>
      <path id="DejaVuSans-52" d="M 2841 2188 
Q 3044 2119 3236 1894 
Q 3428 1669 3622 1275 
L 4263 0 
L 3584 0 
L 2988 1197 
Q 2756 1666 2539 1819 
Q 2322 1972 1947 1972 
L 1259 1972 
L 1259 0 
L 628 0 
L 628 4666 
L 2053 4666 
Q 2853 4666 3247 4331 
Q 3641 3997 3641 3322 
Q 3641 2881 3436 2590 
Q 3231 2300 2841 2188 
z
M 1259 4147 
L 1259 2491 
L 2053 2491 
Q 2509 2491 2742 2702 
Q 2975 2913 2975 3322 
Q 2975 3731 2742 3939 
Q 2509 4147 2053 4147 
L 1259 4147 
z
" transform="scale(0.015625)"/>
      <path id="DejaVuSans-2d" d="M 313 2009 
L 1997 2009 
L 1997 1497 
L 313 1497 
L 313 2009 
z
" transform="scale(0.015625)"/>
      <path id="DejaVuSans-6d" d="M 3328 2828 
Q 3544 3216 3844 3400 
Q 4144 3584 4550 3584 
Q 5097 3584 5394 3201 
Q 5691 2819 5691 2113 
L 5691 0 
L 5113 0 
L 5113 2094 
Q 5113 2597 4934 2840 
Q 4756 3084 4391 3084 
Q 3944 3084 3684 2787 
Q 3425 2491 3425 1978 
L 3425 0 
L 2847 0 
L 2847 2094 
Q 2847 2600 2669 2842 
Q 2491 3084 2119 3084 
Q 1678 3084 1418 2786 
Q 1159 2488 1159 1978 
L 1159 0 
L 581 0 
L 581 3500 
L 1159 3500 
L 1159 2956 
Q 1356 3278 1631 3431 
Q 1906 3584 2284 3584 
Q 2666 3584 2933 3390 
Q 3200 3197 3328 2828 
z
" transform="scale(0.015625)"/>
      <path id="DejaVuSans-78" d="M 3513 3500 
L 2247 1797 
L 3578 0 
L 2900 0 
L 1881 1375 
L 863 0 
L 184 0 
L 1544 1831 
L 300 3500 
L 978 3500 
L 1906 2253 
L 2834 3500 
L 3513 3500 
z
" transform="scale(0.015625)"/>
      <path id="DejaVuSans-67" d="M 2906 1791 
Q 2906 2416 2648 2759 
Q 2391 3103 1925 3103 
Q 1463 3103 1205 2759 
Q 947 2416 947 1791 
Q 947 1169 1205 825 
Q 1463 481 1925 481 
Q 2391 481 2648 825 
Q 2906 1169 2906 1791 
z
M 3481 434 
Q 3481 -459 3084 -895 
Q 2688 -1331 1869 -1331 
Q 1566 -1331 1297 -1286 
Q 1028 -1241 775 -1147 
L 775 -588 
Q 1028 -725 1275 -790 
Q 1522 -856 1778 -856 
Q 2344 -856 2625 -561 
Q 2906 -266 2906 331 
L 2906 616 
Q 2728 306 2450 153 
Q 2172 0 1784 0 
Q 1141 0 747 490 
Q 353 981 353 1791 
Q 353 2603 747 3093 
Q 1141 3584 1784 3584 
Q 2172 3584 2450 3431 
Q 2728 3278 2906 2969 
L 2906 3500 
L 3481 3500 
L 3481 434 
z
" transform="scale(0.015625)"/>
      <path id="DejaVuSans-6e" d="M 3513 2113 
L 3513 0 
L 2938 0 
L 2938 2094 
Q 2938 2591 2744 2837 
Q 2550 3084 2163 3084 
Q 1697 3084 1428 2787 
Q 1159 2491 1159 1978 
L 1159 0 
L 581 0 
L 581 3500 
L 1159 3500 
L 1159 2956 
Q 1366 3272 1645 3428 
Q 1925 3584 2291 3584 
Q 2894 3584 3203 3211 
Q 3513 2838 3513 2113 
z
" transform="scale(0.015625)"/>
      <path id="DejaVuSans-77" d="M 269 3500 
L 844 3500 
L 1563 769 
L 2278 3500 
L 2956 3500 
L 3675 769 
L 4391 3500 
L 4966 3500 
L 4050 0 
L 3372 0 
L 2619 2869 
L 1863 0 
L 1184 0 
L 269 3500 
z
" transform="scale(0.015625)"/>
      <path id="DejaVuSans-68" d="M 3513 2113 
L 3513 0 
L 2938 0 
L 2938 2094 
Q 2938 2591 2744 2837 
Q 2550 3084 2163 3084 
Q 1697 3084 1428 2787 
Q 1159 2491 1159 1978 
L 1159 0 
L 581 0 
L 581 4863 
L 1159 4863 
L 1159 2956 
Q 1366 3272 1645 3428 
Q 1925 3584 2291 3584 
Q 2894 3584 3203 3211 
Q 3513 2838 3513 2113 
z
" transform="scale(0.015625)"/>
      <path id="DejaVuSans-3d" d="M 678 2906 
L 4684 2906 
L 4684 2381 
L 678 2381 
L 678 2906 
z
M 678 1631 
L 4684 1631 
L 4684 1100 
L 678 1100 
L 678 1631 
z
" transform="scale(0.015625)"/>
      <path id="DejaVuSans-2e" d="M 684 794 
L 1344 794 
L 1344 0 
L 684 0 
L 684 794 
z
" transform="scale(0.015625)"/>
      <path id="DejaVuSans-39" d="M 703 97 
L 703 672 
Q 941 559 1184 500 
Q 1428 441 1663 441 
Q 2288 441 2617 861 
Q 2947 1281 2994 2138 
Q 2813 1869 2534 1725 
Q 2256 1581 1919 1581 
Q 1219 1581 811 2004 
Q 403 2428 403 3163 
Q 403 3881 828 4315 
Q 1253 4750 1959 4750 
Q 2769 4750 3195 4129 
Q 3622 3509 3622 2328 
Q 3622 1225 3098 567 
Q 2575 -91 1691 -91 
Q 1453 -91 1209 -44 
Q 966 3 703 97 
z
M 1959 2075 
Q 2384 2075 2632 2365 
Q 2881 2656 2881 3163 
Q 2881 3666 2632 3958 
Q 2384 4250 1959 4250 
Q 1534 4250 1286 3958 
Q 1038 3666 1038 3163 
Q 1038 2656 1286 2365 
Q 1534 2075 1959 2075 
z
" transform="scale(0.015625)"/>
     </defs>
     <use xlink:href="#DejaVuSans-52"/>
     <use xlink:href="#DejaVuSans-2d" x="65.482422"/>
     <use xlink:href="#DejaVuSans-6d" x="101.566406"/>
     <use xlink:href="#DejaVuSans-61" x="198.978516"/>
     <use xlink:href="#DejaVuSans-78" x="260.257812"/>
     <use xlink:href="#DejaVuSans-20" x="319.4375"/>
     <use xlink:href="#DejaVuSans-61" x="351.224609"/>
     <use xlink:href="#DejaVuSans-67" x="412.503906"/>
     <use xlink:href="#DejaVuSans-65" x="475.980469"/>
     <use xlink:href="#DejaVuSans-6e" x="537.503906"/>
     <use xlink:href="#DejaVuSans-74" x="600.882812"/>
     <use xlink:href="#DejaVuSans-20" x="640.091797"/>
     <use xlink:href="#DejaVuSans-70" x="671.878906"/>
     <use xlink:href="#DejaVuSans-6f" x="735.355469"/>
     <use xlink:href="#DejaVuSans-6c" x="796.537109"/>
     <use xlink:href="#DejaVuSans-69" x="824.320312"/>
     <use xlink:href="#DejaVuSans-63" x="852.103516"/>
     <use xlink:href="#DejaVuSans-79" x="907.083984"/>
     <use xlink:href="#DejaVuSans-20" x="966.263672"/>
     <use xlink:href="#DejaVuSans-77" x="998.050781"/>
     <use xlink:href="#DejaVuSans-69" x="1079.837891"/>
     <use xlink:href="#DejaVuSans-74" x="1107.621094"/>
     <use xlink:href="#DejaVuSans-68" x="1146.830078"/>
     <use xlink:href="#DejaVuSans-20" x="1210.208984"/>
     <use xlink:href="#DejaVuSans-67" x="1241.996094"/>
     <use xlink:href="#DejaVuSans-61" x="1305.472656"/>
     <use xlink:href="#DejaVuSans-6d" x="1366.751953"/>
     <use xlink:href="#DejaVuSans-6d" x="1464.164062"/>
     <use xlink:href="#DejaVuSans-61" x="1561.576172"/>
     <use xlink:href="#DejaVuSans-20" x="1622.855469"/>
     <use xlink:href="#DejaVuSans-3d" x="1654.642578"/>
     <use xlink:href="#DejaVuSans-20" x="1738.431641"/>
     <use xlink:href="#DejaVuSans-30" x="1770.21875"/>
     <use xlink:href="#DejaVuSans-2e" x="1833.841797"/>
     <use xlink:href="#DejaVuSans-39" x="1865.628906"/>
     <use xlink:href="#DejaVuSans-35" x="1929.251953"/>
    </g>
   </g>
   <g id="legend_1">
    <g id="patch_7">
     <path d="M 61 115.950625 
L 123.845313 115.950625 
Q 125.845313 115.950625 125.845313 113.950625 
L 125.845313 41.56 
Q 125.845313 39.56 123.845313 39.56 
L 61 39.56 
Q 59 39.56 59 41.56 
L 59 113.950625 
Q 59 115.950625 61 115.950625 
z
" style="fill: #ffffff; opacity: 0.8; stroke: #cccccc; stroke-linejoin: miter"/>
    </g>
    <g id="line2d_34">
     <path d="M 63 47.658437 
L 73 47.658437 
L 83 47.658437 
" style="fill: none; stroke: #9d02d7; stroke-width: 1.5; stroke-linecap: square"/>
     <g>
      <use xlink:href="#m0c6fd6b58f" x="73" y="47.658437" style="fill: #9d02d7; stroke: #9d02d7; stroke-linejoin: miter"/>
     </g>
    </g>
    <g id="text_18">
     <!-- m=12 -->
     <g transform="translate(91 51.158437)scale(0.1 -0.1)">
      <use xlink:href="#DejaVuSans-6d"/>
      <use xlink:href="#DejaVuSans-3d" x="97.412109"/>
      <use xlink:href="#DejaVuSans-31" x="181.201172"/>
      <use xlink:href="#DejaVuSans-32" x="244.824219"/>
     </g>
    </g>
    <g id="line2d_35">
     <path d="M 63 62.336562 
L 73 62.336562 
L 83 62.336562 
" style="fill: none; stroke: #0000ff; stroke-width: 1.5; stroke-linecap: square"/>
     <g>
      <use xlink:href="#mdfe11f2901" x="73" y="62.336562" style="fill: #0000ff; stroke: #0000ff"/>
     </g>
    </g>
    <g id="text_19">
     <!-- m=14 -->
     <g transform="translate(91 65.836562)scale(0.1 -0.1)">
      <use xlink:href="#DejaVuSans-6d"/>
      <use xlink:href="#DejaVuSans-3d" x="97.412109"/>
      <use xlink:href="#DejaVuSans-31" x="181.201172"/>
      <use xlink:href="#DejaVuSans-34" x="244.824219"/>
     </g>
    </g>
    <g id="line2d_36">
     <path d="M 63 77.014687 
L 73 77.014687 
L 83 77.014687 
" style="fill: none; stroke: #ff7763; stroke-width: 1.5; stroke-linecap: square"/>
     <g>
      <use xlink:href="#m32ae9d14e9" x="73" y="77.014687" style="fill: #ff7763; stroke: #ff7763"/>
     </g>
    </g>
    <g id="text_20">
     <!-- m=16 -->
     <g transform="translate(91 80.514687)scale(0.1 -0.1)">
      <use xlink:href="#DejaVuSans-6d"/>
      <use xlink:href="#DejaVuSans-3d" x="97.412109"/>
      <use xlink:href="#DejaVuSans-31" x="181.201172"/>
      <use xlink:href="#DejaVuSans-36" x="244.824219"/>
     </g>
    </g>
    <g id="line2d_37">
     <path d="M 63 91.692813 
L 73 91.692813 
L 83 91.692813 
" style="fill: none; stroke: #ffac1e; stroke-width: 1.5; stroke-linecap: square"/>
     <g>
      <use xlink:href="#mf5b15060ef" x="73" y="91.692813" style="fill: #ffac1e; stroke: #ffac1e; stroke-linejoin: bevel"/>
     </g>
    </g>
    <g id="text_21">
     <!-- m=18 -->
     <g transform="translate(91 95.192813)scale(0.1 -0.1)">
      <use xlink:href="#DejaVuSans-6d"/>
      <use xlink:href="#DejaVuSans-3d" x="97.412109"/>
      <use xlink:href="#DejaVuSans-31" x="181.201172"/>
      <use xlink:href="#DejaVuSans-38" x="244.824219"/>
     </g>
    </g>
    <g id="line2d_38">
     <path d="M 63 106.370937 
L 73 106.370937 
L 83 106.370937 
" style="fill: none; stroke: #009435; stroke-width: 1.5; stroke-linecap: square"/>
     <g>
      <use xlink:href="#m79221c80df" x="73" y="106.370937" style="fill: #009435; stroke: #009435; stroke-linejoin: miter"/>
     </g>
    </g>
    <g id="text_22">
     <!-- m=20 -->
     <g transform="translate(91 109.870937)scale(0.1 -0.1)">
      <use xlink:href="#DejaVuSans-6d"/>
      <use xlink:href="#DejaVuSans-3d" x="97.412109"/>
      <use xlink:href="#DejaVuSans-32" x="181.201172"/>
      <use xlink:href="#DejaVuSans-30" x="244.824219"/>
     </g>
    </g>
   </g>
  </g>
 </g>
 <defs>
  <clipPath id="p9d64475f34">
   <rect x="54" y="34.56" width="334.8" height="217.44"/>
  </clipPath>
 </defs>
</svg>
