<?xml version="1.0" encoding="utf-8" standalone="no"?>
<!DOCTYPE svg PUBLIC "-//W3C//DTD SVG 1.1//EN"
  "http://www.w3.org/Graphics/SVG/1.1/DTD/svg11.dtd">
<svg xmlns:xlink="http://www.w3.org/1999/xlink" width="432pt" height="288pt" viewBox="0 0 432 288" xmlns="http://www.w3.org/2000/svg" version="1.1">
 <metadata>
  <rdf:RDF xmlns:dc="http://purl.org/dc/elements/1.1/" xmlns:cc="http://creativecommons.org/ns#" xmlns:rdf="http://www.w3.org/1999/02/22-rdf-syntax-ns#">
   <cc:Work>
    <dc:type rdf:resource="http://purl.org/dc/dcmitype/StillImage"/>
    <dc:date>2023-01-11T15:36:36.767064</dc:date>
    <dc:format>image/svg+xml</dc:format>
    <dc:creator>
     <cc:Agent>
      <dc:title>Matplotlib v3.5.2, https://matplotlib.org/</dc:title>
     </cc:Agent>
    </dc:creator>
   </cc:Work>
  </rdf:RDF>
 </metadata>
 <defs>
  <style type="text/css">*{stroke-linejoin: round; stroke-linecap: butt}</style>
 </defs>
 <g id="figure_1">
  <g id="patch_1">
   <path d="M 0 288 
L 432 288 
L 432 0 
L 0 0 
z
" style="fill: #ffffff"/>
  </g>
  <g id="axes_1">
   <g id="patch_2">
    <path d="M 54 252 
L 388.8 252 
L 388.8 34.56 
L 54 34.56 
z
" style="fill: #ffffff"/>
   </g>
   <g id="PolyCollection_1">
    <defs>
     <path id="mf54194f736" d="M 69.218182 -30.119098 
L 69.218182 -30.119098 
L 74.376888 -32.025589 
L 79.535593 -66.46968 
L 84.694299 -131.754643 
L 89.853005 -120.316279 
L 95.01171 -205.518392 
L 100.170416 -206.469159 
L 105.329122 -195.368902 
L 110.487827 -232.739377 
L 115.646533 -229.826583 
L 120.805239 -229.826583 
L 125.963945 -229.826583 
L 131.12265 -204.533929 
L 136.281356 -225.587303 
L 141.440062 -229.826583 
L 146.598767 -229.790921 
L 151.757473 -225.587303 
L 156.916179 -229.790921 
L 162.074884 -229.790921 
L 167.23359 -229.790921 
L 172.392296 -229.790921 
L 177.551002 -229.790921 
L 182.709707 -229.790921 
L 187.868413 -229.790921 
L 193.027119 -229.790921 
L 198.185824 -229.790921 
L 203.34453 -229.730477 
L 208.503236 -229.730477 
L 213.661941 -229.730477 
L 218.820647 -229.730477 
L 223.979353 -229.730477 
L 229.138059 -229.730477 
L 234.296764 -229.730477 
L 239.45547 -229.730477 
L 244.614176 -229.730477 
L 249.772881 -229.730477 
L 254.931587 -229.730477 
L 260.090293 -229.730477 
L 265.248998 -229.730477 
L 270.407704 -229.730477 
L 275.56641 -229.730477 
L 280.725116 -229.730477 
L 285.883821 -229.730477 
L 291.042527 -229.730477 
L 296.201233 -229.730477 
L 301.359938 -230.357821 
L 306.518644 -230.357821 
L 311.67735 -230.357821 
L 316.836055 -230.357821 
L 321.994761 -230.357821 
L 327.153467 -230.357821 
L 332.312173 -230.357821 
L 337.470878 -230.357821 
L 342.629584 -230.357821 
L 347.78829 -230.357821 
L 352.946995 -230.357821 
L 358.105701 -230.357821 
L 363.264407 -230.357821 
L 368.423112 -230.357821 
L 373.581818 -229.826583 
L 373.581818 -229.826583 
L 373.581818 -229.826583 
L 368.423112 -230.357821 
L 363.264407 -230.357821 
L 358.105701 -230.357821 
L 352.946995 -230.357821 
L 347.78829 -230.357821 
L 342.629584 -230.357821 
L 337.470878 -230.357821 
L 332.312173 -230.357821 
L 327.153467 -230.357821 
L 321.994761 -230.357821 
L 316.836055 -230.357821 
L 311.67735 -230.357821 
L 306.518644 -230.357821 
L 301.359938 -230.357821 
L 296.201233 -229.730477 
L 291.042527 -229.730477 
L 285.883821 -229.730477 
L 280.725116 -229.730477 
L 275.56641 -229.730477 
L 270.407704 -229.730477 
L 265.248998 -229.730477 
L 260.090293 -229.730477 
L 254.931587 -229.730477 
L 249.772881 -229.730477 
L 244.614176 -229.730477 
L 239.45547 -229.730477 
L 234.296764 -229.730477 
L 229.138059 -229.730477 
L 223.979353 -229.730477 
L 218.820647 -229.730477 
L 213.661941 -229.730477 
L 208.503236 -229.730477 
L 203.34453 -229.730477 
L 198.185824 -229.790921 
L 193.027119 -229.790921 
L 187.868413 -229.790921 
L 182.709707 -229.790921 
L 177.551002 -229.790921 
L 172.392296 -229.790921 
L 167.23359 -229.790921 
L 162.074884 -229.790921 
L 156.916179 -229.790921 
L 151.757473 -225.587303 
L 146.598767 -229.790921 
L 141.440062 -229.826583 
L 136.281356 -225.587303 
L 131.12265 -204.533929 
L 125.963945 -229.826583 
L 120.805239 -229.826583 
L 115.646533 -229.826583 
L 110.487827 -232.739377 
L 105.329122 -195.368902 
L 100.170416 -206.469159 
L 95.01171 -205.518392 
L 89.853005 -120.316279 
L 84.694299 -131.754643 
L 79.535593 -66.46968 
L 74.376888 -32.025589 
L 69.218182 -30.119098 
z
" style="stroke: #9d02d7; stroke-opacity: 0.2"/>
    </defs>
    <g clip-path="url(#p2ccf6b0cde)">
     <use xlink:href="#mf54194f736" x="0" y="288" style="fill: #9d02d7; fill-opacity: 0.2; stroke: #9d02d7; stroke-opacity: 0.2"/>
    </g>
   </g>
   <g id="PolyCollection_2">
    <defs>
     <path id="mb20ddf6fd7" d="M 69.218182 -33.697876 
L 69.218182 -33.697876 
L 74.376888 -34.246504 
L 79.535593 -52.207638 
L 84.694299 -116.412986 
L 89.853005 -196.765138 
L 95.01171 -205.685916 
L 100.170416 -207.333279 
L 105.329122 -206.034458 
L 110.487827 -205.688887 
L 115.646533 -206.990538 
L 120.805239 -205.824468 
L 125.963945 -196.060809 
L 131.12265 -205.824468 
L 136.281356 -215.537893 
L 141.440062 -215.284289 
L 146.598767 -215.284289 
L 151.757473 -215.537893 
L 156.916179 -215.537893 
L 162.074884 -215.537893 
L 167.23359 -215.284289 
L 172.392296 -215.537893 
L 177.551002 -215.537893 
L 182.709707 -214.649904 
L 187.868413 -214.649904 
L 193.027119 -214.649904 
L 198.185824 -215.537893 
L 203.34453 -215.537893 
L 208.503236 -215.284289 
L 213.661941 -225.347238 
L 218.820647 -214.348877 
L 223.979353 -215.537893 
L 229.138059 -215.284289 
L 234.296764 -225.254057 
L 239.45547 -225.347238 
L 244.614176 -225.254057 
L 249.772881 -225.347238 
L 254.931587 -225.347238 
L 260.090293 -225.347238 
L 265.248998 -225.347238 
L 270.407704 -225.254057 
L 275.56641 -225.254057 
L 280.725116 -225.347238 
L 285.883821 -225.254057 
L 291.042527 -225.347238 
L 296.201233 -225.347238 
L 301.359938 -225.347238 
L 306.518644 -225.347238 
L 311.67735 -225.347238 
L 316.836055 -225.254057 
L 321.994761 -225.254057 
L 327.153467 -225.347238 
L 332.312173 -225.254057 
L 337.470878 -225.254057 
L 342.629584 -225.347238 
L 347.78829 -225.254057 
L 352.946995 -225.254057 
L 358.105701 -225.347238 
L 363.264407 -225.254057 
L 368.423112 -225.347238 
L 373.581818 -225.347238 
L 373.581818 -225.347238 
L 373.581818 -225.347238 
L 368.423112 -225.347238 
L 363.264407 -225.254057 
L 358.105701 -225.347238 
L 352.946995 -225.254057 
L 347.78829 -225.254057 
L 342.629584 -225.347238 
L 337.470878 -225.254057 
L 332.312173 -225.254057 
L 327.153467 -225.347238 
L 321.994761 -225.254057 
L 316.836055 -225.254057 
L 311.67735 -225.347238 
L 306.518644 -225.347238 
L 301.359938 -225.347238 
L 296.201233 -225.347238 
L 291.042527 -225.347238 
L 285.883821 -225.254057 
L 280.725116 -225.347238 
L 275.56641 -225.254057 
L 270.407704 -225.254057 
L 265.248998 -225.347238 
L 260.090293 -225.347238 
L 254.931587 -225.347238 
L 249.772881 -225.347238 
L 244.614176 -225.254057 
L 239.45547 -225.347238 
L 234.296764 -225.254057 
L 229.138059 -215.284289 
L 223.979353 -215.537893 
L 218.820647 -214.348877 
L 213.661941 -225.347238 
L 208.503236 -215.284289 
L 203.34453 -215.537893 
L 198.185824 -215.537893 
L 193.027119 -214.649904 
L 187.868413 -214.649904 
L 182.709707 -214.649904 
L 177.551002 -215.537893 
L 172.392296 -215.537893 
L 167.23359 -215.284289 
L 162.074884 -215.537893 
L 156.916179 -215.537893 
L 151.757473 -215.537893 
L 146.598767 -215.284289 
L 141.440062 -215.284289 
L 136.281356 -215.537893 
L 131.12265 -205.824468 
L 125.963945 -196.060809 
L 120.805239 -205.824468 
L 115.646533 -206.990538 
L 110.487827 -205.688887 
L 105.329122 -206.034458 
L 100.170416 -207.333279 
L 95.01171 -205.685916 
L 89.853005 -196.765138 
L 84.694299 -116.412986 
L 79.535593 -52.207638 
L 74.376888 -34.246504 
L 69.218182 -33.697876 
z
" style="stroke: #0000ff; stroke-opacity: 0.2"/>
    </defs>
    <g clip-path="url(#p2ccf6b0cde)">
     <use xlink:href="#mb20ddf6fd7" x="0" y="288" style="fill: #0000ff; fill-opacity: 0.2; stroke: #0000ff; stroke-opacity: 0.2"/>
    </g>
   </g>
   <g id="PolyCollection_3">
    <defs>
     <path id="m0466ac35bc" d="M 69.218182 -35.091182 
L 69.218182 -35.091182 
L 74.376888 -34.586602 
L 79.535593 -128.493051 
L 84.694299 -177.294093 
L 89.853005 -228.273574 
L 95.01171 -234.515523 
L 100.170416 -234.944943 
L 105.329122 -226.011086 
L 110.487827 -230.946898 
L 115.646533 -222.304592 
L 120.805239 -226.011086 
L 125.963945 -234.706286 
L 131.12265 -236.673068 
L 136.281356 -221.590624 
L 141.440062 -228.328511 
L 146.598767 -230.71932 
L 151.757473 -230.956836 
L 156.916179 -223.17509 
L 162.074884 -228.579417 
L 167.23359 -233.141522 
L 172.392296 -233.141522 
L 177.551002 -233.141522 
L 182.709707 -229.345975 
L 187.868413 -233.013927 
L 193.027119 -224.738857 
L 198.185824 -233.584515 
L 203.34453 -233.584515 
L 208.503236 -230.804784 
L 213.661941 -233.584515 
L 218.820647 -230.804784 
L 223.979353 -236.486435 
L 229.138059 -236.610841 
L 234.296764 -237.782662 
L 239.45547 -234.38431 
L 244.614176 -234.694406 
L 249.772881 -237.673281 
L 254.931587 -234.515523 
L 260.090293 -230.804784 
L 265.248998 -233.718155 
L 270.407704 -236.486435 
L 275.56641 -236.486435 
L 280.725116 -234.694406 
L 285.883821 -237.782662 
L 291.042527 -237.782662 
L 296.201233 -226.316594 
L 301.359938 -236.486435 
L 306.518644 -236.610841 
L 311.67735 -234.38431 
L 316.836055 -236.610841 
L 321.994761 -233.718155 
L 327.153467 -233.718155 
L 332.312173 -236.486435 
L 337.470878 -236.486435 
L 342.629584 -236.486435 
L 347.78829 -236.486435 
L 352.946995 -236.610841 
L 358.105701 -236.486435 
L 363.264407 -236.610841 
L 368.423112 -236.610841 
L 373.581818 -236.486435 
L 373.581818 -236.486435 
L 373.581818 -236.486435 
L 368.423112 -236.610841 
L 363.264407 -236.610841 
L 358.105701 -236.486435 
L 352.946995 -236.610841 
L 347.78829 -236.486435 
L 342.629584 -236.486435 
L 337.470878 -236.486435 
L 332.312173 -236.486435 
L 327.153467 -233.718155 
L 321.994761 -233.718155 
L 316.836055 -236.610841 
L 311.67735 -234.38431 
L 306.518644 -236.610841 
L 301.359938 -236.486435 
L 296.201233 -226.316594 
L 291.042527 -237.782662 
L 285.883821 -237.782662 
L 280.725116 -234.694406 
L 275.56641 -236.486435 
L 270.407704 -236.486435 
L 265.248998 -233.718155 
L 260.090293 -230.804784 
L 254.931587 -234.515523 
L 249.772881 -237.673281 
L 244.614176 -234.694406 
L 239.45547 -234.38431 
L 234.296764 -237.782662 
L 229.138059 -236.610841 
L 223.979353 -236.486435 
L 218.820647 -230.804784 
L 213.661941 -233.584515 
L 208.503236 -230.804784 
L 203.34453 -233.584515 
L 198.185824 -233.584515 
L 193.027119 -224.738857 
L 187.868413 -233.013927 
L 182.709707 -229.345975 
L 177.551002 -233.141522 
L 172.392296 -233.141522 
L 167.23359 -233.141522 
L 162.074884 -228.579417 
L 156.916179 -223.17509 
L 151.757473 -230.956836 
L 146.598767 -230.71932 
L 141.440062 -228.328511 
L 136.281356 -221.590624 
L 131.12265 -236.673068 
L 125.963945 -234.706286 
L 120.805239 -226.011086 
L 115.646533 -222.304592 
L 110.487827 -230.946898 
L 105.329122 -226.011086 
L 100.170416 -234.944943 
L 95.01171 -234.515523 
L 89.853005 -228.273574 
L 84.694299 -177.294093 
L 79.535593 -128.493051 
L 74.376888 -34.586602 
L 69.218182 -35.091182 
z
" style="stroke: #ff7763; stroke-opacity: 0.2"/>
    </defs>
    <g clip-path="url(#p2ccf6b0cde)">
     <use xlink:href="#m0466ac35bc" x="0" y="288" style="fill: #ff7763; fill-opacity: 0.2; stroke: #ff7763; stroke-opacity: 0.2"/>
    </g>
   </g>
   <g id="PolyCollection_4">
    <defs>
     <path id="m5e04666420" d="M 69.218182 -35.027958 
L 69.218182 -35.027958 
L 74.376888 -34.939506 
L 79.535593 -198.136233 
L 84.694299 -208.750794 
L 89.853005 -188.190875 
L 95.01171 -137.15991 
L 100.170416 -191.840631 
L 105.329122 -242.312982 
L 110.487827 -242.290997 
L 115.646533 -242.290997 
L 120.805239 -242.287251 
L 125.963945 -242.312982 
L 131.12265 -242.312982 
L 136.281356 -242.312982 
L 141.440062 -242.290997 
L 146.598767 -242.290997 
L 151.757473 -241.98553 
L 156.916179 -241.853541 
L 162.074884 -241.853541 
L 167.23359 -241.853541 
L 172.392296 -241.853541 
L 177.551002 -241.853541 
L 182.709707 -241.831884 
L 187.868413 -241.663071 
L 193.027119 -241.663071 
L 198.185824 -241.663071 
L 203.34453 -241.684714 
L 208.503236 -241.684714 
L 213.661941 -241.684714 
L 218.820647 -241.684714 
L 223.979353 -241.663071 
L 229.138059 -241.831884 
L 234.296764 -241.831884 
L 239.45547 -241.853541 
L 244.614176 -241.831884 
L 249.772881 -241.831884 
L 254.931587 -241.636034 
L 260.090293 -241.853541 
L 265.248998 -241.853541 
L 270.407704 -241.65768 
L 275.56641 -241.636034 
L 280.725116 -241.651382 
L 285.883821 -241.853541 
L 291.042527 -241.774723 
L 296.201233 -241.774723 
L 301.359938 -241.796075 
L 306.518644 -241.65768 
L 311.67735 -241.774723 
L 316.836055 -241.796075 
L 321.994761 -241.636034 
L 327.153467 -241.65768 
L 332.312173 -241.636034 
L 337.470878 -241.636034 
L 342.629584 -241.65768 
L 347.78829 -241.636034 
L 352.946995 -241.636034 
L 358.105701 -241.65768 
L 363.264407 -241.65768 
L 368.423112 -241.636034 
L 373.581818 -241.636034 
L 373.581818 -241.636034 
L 373.581818 -241.636034 
L 368.423112 -241.636034 
L 363.264407 -241.65768 
L 358.105701 -241.65768 
L 352.946995 -241.636034 
L 347.78829 -241.636034 
L 342.629584 -241.65768 
L 337.470878 -241.636034 
L 332.312173 -241.636034 
L 327.153467 -241.65768 
L 321.994761 -241.636034 
L 316.836055 -241.796075 
L 311.67735 -241.774723 
L 306.518644 -241.65768 
L 301.359938 -241.796075 
L 296.201233 -241.774723 
L 291.042527 -241.774723 
L 285.883821 -241.853541 
L 280.725116 -241.651382 
L 275.56641 -241.636034 
L 270.407704 -241.65768 
L 265.248998 -241.853541 
L 260.090293 -241.853541 
L 254.931587 -241.636034 
L 249.772881 -241.831884 
L 244.614176 -241.831884 
L 239.45547 -241.853541 
L 234.296764 -241.831884 
L 229.138059 -241.831884 
L 223.979353 -241.663071 
L 218.820647 -241.684714 
L 213.661941 -241.684714 
L 208.503236 -241.684714 
L 203.34453 -241.684714 
L 198.185824 -241.663071 
L 193.027119 -241.663071 
L 187.868413 -241.663071 
L 182.709707 -241.831884 
L 177.551002 -241.853541 
L 172.392296 -241.853541 
L 167.23359 -241.853541 
L 162.074884 -241.853541 
L 156.916179 -241.853541 
L 151.757473 -241.98553 
L 146.598767 -242.290997 
L 141.440062 -242.290997 
L 136.281356 -242.312982 
L 131.12265 -242.312982 
L 125.963945 -242.312982 
L 120.805239 -242.287251 
L 115.646533 -242.290997 
L 110.487827 -242.290997 
L 105.329122 -242.312982 
L 100.170416 -191.840631 
L 95.01171 -137.15991 
L 89.853005 -188.190875 
L 84.694299 -208.750794 
L 79.535593 -198.136233 
L 74.376888 -34.939506 
L 69.218182 -35.027958 
z
" style="stroke: #ffac1e; stroke-opacity: 0.2"/>
    </defs>
    <g clip-path="url(#p2ccf6b0cde)">
     <use xlink:href="#m5e04666420" x="0" y="288" style="fill: #ffac1e; fill-opacity: 0.2; stroke: #ffac1e; stroke-opacity: 0.2"/>
    </g>
   </g>
   <g id="PolyCollection_5">
    <defs>
     <path id="m4fb49226ce" d="M 69.218182 -35.091182 
L 69.218182 -35.091182 
L 74.376888 -32.55959 
L 79.535593 -28.900266 
L 84.694299 -37.049009 
L 89.853005 -52.700696 
L 95.01171 -121.254536 
L 100.170416 -122.040918 
L 105.329122 -168.504368 
L 110.487827 -168.504368 
L 115.646533 -168.504368 
L 120.805239 -171.00219 
L 125.963945 -168.717885 
L 131.12265 -168.717885 
L 136.281356 -168.717885 
L 141.440062 -169.093594 
L 146.598767 -169.093594 
L 151.757473 -168.000322 
L 156.916179 -168.000322 
L 162.074884 -168.000322 
L 167.23359 -168.000322 
L 172.392296 -168.000322 
L 177.551002 -168.717885 
L 182.709707 -168.717885 
L 187.868413 -168.717885 
L 193.027119 -168.717885 
L 198.185824 -168.717885 
L 203.34453 -168.717885 
L 208.503236 -168.717885 
L 213.661941 -168.717885 
L 218.820647 -168.717885 
L 223.979353 -168.717885 
L 229.138059 -168.717885 
L 234.296764 -168.717885 
L 239.45547 -168.717885 
L 244.614176 -168.717885 
L 249.772881 -168.717885 
L 254.931587 -168.717885 
L 260.090293 -168.717885 
L 265.248998 -168.717885 
L 270.407704 -168.717885 
L 275.56641 -168.717885 
L 280.725116 -168.717885 
L 285.883821 -168.717885 
L 291.042527 -168.717885 
L 296.201233 -168.717885 
L 301.359938 -168.717885 
L 306.518644 -168.717885 
L 311.67735 -168.717885 
L 316.836055 -168.717885 
L 321.994761 -168.717885 
L 327.153467 -168.717885 
L 332.312173 -168.717885 
L 337.470878 -168.717885 
L 342.629584 -168.717885 
L 347.78829 -168.717885 
L 352.946995 -168.717885 
L 358.105701 -168.717885 
L 363.264407 -168.717885 
L 368.423112 -168.717885 
L 373.581818 -168.717885 
L 373.581818 -168.717885 
L 373.581818 -168.717885 
L 368.423112 -168.717885 
L 363.264407 -168.717885 
L 358.105701 -168.717885 
L 352.946995 -168.717885 
L 347.78829 -168.717885 
L 342.629584 -168.717885 
L 337.470878 -168.717885 
L 332.312173 -168.717885 
L 327.153467 -168.717885 
L 321.994761 -168.717885 
L 316.836055 -168.717885 
L 311.67735 -168.717885 
L 306.518644 -168.717885 
L 301.359938 -168.717885 
L 296.201233 -168.717885 
L 291.042527 -168.717885 
L 285.883821 -168.717885 
L 280.725116 -168.717885 
L 275.56641 -168.717885 
L 270.407704 -168.717885 
L 265.248998 -168.717885 
L 260.090293 -168.717885 
L 254.931587 -168.717885 
L 249.772881 -168.717885 
L 244.614176 -168.717885 
L 239.45547 -168.717885 
L 234.296764 -168.717885 
L 229.138059 -168.717885 
L 223.979353 -168.717885 
L 218.820647 -168.717885 
L 213.661941 -168.717885 
L 208.503236 -168.717885 
L 203.34453 -168.717885 
L 198.185824 -168.717885 
L 193.027119 -168.717885 
L 187.868413 -168.717885 
L 182.709707 -168.717885 
L 177.551002 -168.717885 
L 172.392296 -168.000322 
L 167.23359 -168.000322 
L 162.074884 -168.000322 
L 156.916179 -168.000322 
L 151.757473 -168.000322 
L 146.598767 -169.093594 
L 141.440062 -169.093594 
L 136.281356 -168.717885 
L 131.12265 -168.717885 
L 125.963945 -168.717885 
L 120.805239 -171.00219 
L 115.646533 -168.504368 
L 110.487827 -168.504368 
L 105.329122 -168.504368 
L 100.170416 -122.040918 
L 95.01171 -121.254536 
L 89.853005 -52.700696 
L 84.694299 -37.049009 
L 79.535593 -28.900266 
L 74.376888 -32.55959 
L 69.218182 -35.091182 
z
" style="stroke: #009435; stroke-opacity: 0.2"/>
    </defs>
    <g clip-path="url(#p2ccf6b0cde)">
     <use xlink:href="#m4fb49226ce" x="0" y="288" style="fill: #009435; fill-opacity: 0.2; stroke: #009435; stroke-opacity: 0.2"/>
    </g>
   </g>
   <g id="matplotlib.axis_1">
    <g id="xtick_1">
     <g id="line2d_1">
      <path d="M 69.218182 252 
L 69.218182 34.56 
" clip-path="url(#p2ccf6b0cde)" style="fill: none; stroke-dasharray: 2.96,1.28; stroke-dashoffset: 0; stroke: #b0b0b0; stroke-width: 0.8"/>
     </g>
     <g id="line2d_2">
      <defs>
       <path id="m9ec291e509" d="M 0 0 
L 0 3.5 
" style="stroke: #000000; stroke-width: 0.8"/>
      </defs>
      <g>
       <use xlink:href="#m9ec291e509" x="69.218182" y="252" style="stroke: #000000; stroke-width: 0.8"/>
      </g>
     </g>
     <g id="text_1">
      <!-- 0 -->
      <g transform="translate(66.036932 266.598437)scale(0.1 -0.1)">
       <defs>
        <path id="DejaVuSans-30" d="M 2034 4250 
Q 1547 4250 1301 3770 
Q 1056 3291 1056 2328 
Q 1056 1369 1301 889 
Q 1547 409 2034 409 
Q 2525 409 2770 889 
Q 3016 1369 3016 2328 
Q 3016 3291 2770 3770 
Q 2525 4250 2034 4250 
z
M 2034 4750 
Q 2819 4750 3233 4129 
Q 3647 3509 3647 2328 
Q 3647 1150 3233 529 
Q 2819 -91 2034 -91 
Q 1250 -91 836 529 
Q 422 1150 422 2328 
Q 422 3509 836 4129 
Q 1250 4750 2034 4750 
z
" transform="scale(0.015625)"/>
       </defs>
       <use xlink:href="#DejaVuSans-30"/>
      </g>
     </g>
    </g>
    <g id="xtick_2">
     <g id="line2d_3">
      <path d="M 120.805239 252 
L 120.805239 34.56 
" clip-path="url(#p2ccf6b0cde)" style="fill: none; stroke-dasharray: 2.96,1.28; stroke-dashoffset: 0; stroke: #b0b0b0; stroke-width: 0.8"/>
     </g>
     <g id="line2d_4">
      <g>
       <use xlink:href="#m9ec291e509" x="120.805239" y="252" style="stroke: #000000; stroke-width: 0.8"/>
      </g>
     </g>
     <g id="text_2">
      <!-- 500 -->
      <g transform="translate(111.261489 266.598437)scale(0.1 -0.1)">
       <defs>
        <path id="DejaVuSans-35" d="M 691 4666 
L 3169 4666 
L 3169 4134 
L 1269 4134 
L 1269 2991 
Q 1406 3038 1543 3061 
Q 1681 3084 1819 3084 
Q 2600 3084 3056 2656 
Q 3513 2228 3513 1497 
Q 3513 744 3044 326 
Q 2575 -91 1722 -91 
Q 1428 -91 1123 -41 
Q 819 9 494 109 
L 494 744 
Q 775 591 1075 516 
Q 1375 441 1709 441 
Q 2250 441 2565 725 
Q 2881 1009 2881 1497 
Q 2881 1984 2565 2268 
Q 2250 2553 1709 2553 
Q 1456 2553 1204 2497 
Q 953 2441 691 2322 
L 691 4666 
z
" transform="scale(0.015625)"/>
       </defs>
       <use xlink:href="#DejaVuSans-35"/>
       <use xlink:href="#DejaVuSans-30" x="63.623047"/>
       <use xlink:href="#DejaVuSans-30" x="127.246094"/>
      </g>
     </g>
    </g>
    <g id="xtick_3">
     <g id="line2d_5">
      <path d="M 172.392296 252 
L 172.392296 34.56 
" clip-path="url(#p2ccf6b0cde)" style="fill: none; stroke-dasharray: 2.96,1.28; stroke-dashoffset: 0; stroke: #b0b0b0; stroke-width: 0.8"/>
     </g>
     <g id="line2d_6">
      <g>
       <use xlink:href="#m9ec291e509" x="172.392296" y="252" style="stroke: #000000; stroke-width: 0.8"/>
      </g>
     </g>
     <g id="text_3">
      <!-- 1000 -->
      <g transform="translate(159.667296 266.598437)scale(0.1 -0.1)">
       <defs>
        <path id="DejaVuSans-31" d="M 794 531 
L 1825 531 
L 1825 4091 
L 703 3866 
L 703 4441 
L 1819 4666 
L 2450 4666 
L 2450 531 
L 3481 531 
L 3481 0 
L 794 0 
L 794 531 
z
" transform="scale(0.015625)"/>
       </defs>
       <use xlink:href="#DejaVuSans-31"/>
       <use xlink:href="#DejaVuSans-30" x="63.623047"/>
       <use xlink:href="#DejaVuSans-30" x="127.246094"/>
       <use xlink:href="#DejaVuSans-30" x="190.869141"/>
      </g>
     </g>
    </g>
    <g id="xtick_4">
     <g id="line2d_7">
      <path d="M 223.979353 252 
L 223.979353 34.56 
" clip-path="url(#p2ccf6b0cde)" style="fill: none; stroke-dasharray: 2.96,1.28; stroke-dashoffset: 0; stroke: #b0b0b0; stroke-width: 0.8"/>
     </g>
     <g id="line2d_8">
      <g>
       <use xlink:href="#m9ec291e509" x="223.979353" y="252" style="stroke: #000000; stroke-width: 0.8"/>
      </g>
     </g>
     <g id="text_4">
      <!-- 1500 -->
      <g transform="translate(211.254353 266.598437)scale(0.1 -0.1)">
       <use xlink:href="#DejaVuSans-31"/>
       <use xlink:href="#DejaVuSans-35" x="63.623047"/>
       <use xlink:href="#DejaVuSans-30" x="127.246094"/>
       <use xlink:href="#DejaVuSans-30" x="190.869141"/>
      </g>
     </g>
    </g>
    <g id="xtick_5">
     <g id="line2d_9">
      <path d="M 275.56641 252 
L 275.56641 34.56 
" clip-path="url(#p2ccf6b0cde)" style="fill: none; stroke-dasharray: 2.96,1.28; stroke-dashoffset: 0; stroke: #b0b0b0; stroke-width: 0.8"/>
     </g>
     <g id="line2d_10">
      <g>
       <use xlink:href="#m9ec291e509" x="275.56641" y="252" style="stroke: #000000; stroke-width: 0.8"/>
      </g>
     </g>
     <g id="text_5">
      <!-- 2000 -->
      <g transform="translate(262.84141 266.598437)scale(0.1 -0.1)">
       <defs>
        <path id="DejaVuSans-32" d="M 1228 531 
L 3431 531 
L 3431 0 
L 469 0 
L 469 531 
Q 828 903 1448 1529 
Q 2069 2156 2228 2338 
Q 2531 2678 2651 2914 
Q 2772 3150 2772 3378 
Q 2772 3750 2511 3984 
Q 2250 4219 1831 4219 
Q 1534 4219 1204 4116 
Q 875 4013 500 3803 
L 500 4441 
Q 881 4594 1212 4672 
Q 1544 4750 1819 4750 
Q 2544 4750 2975 4387 
Q 3406 4025 3406 3419 
Q 3406 3131 3298 2873 
Q 3191 2616 2906 2266 
Q 2828 2175 2409 1742 
Q 1991 1309 1228 531 
z
" transform="scale(0.015625)"/>
       </defs>
       <use xlink:href="#DejaVuSans-32"/>
       <use xlink:href="#DejaVuSans-30" x="63.623047"/>
       <use xlink:href="#DejaVuSans-30" x="127.246094"/>
       <use xlink:href="#DejaVuSans-30" x="190.869141"/>
      </g>
     </g>
    </g>
    <g id="xtick_6">
     <g id="line2d_11">
      <path d="M 327.153467 252 
L 327.153467 34.56 
" clip-path="url(#p2ccf6b0cde)" style="fill: none; stroke-dasharray: 2.96,1.28; stroke-dashoffset: 0; stroke: #b0b0b0; stroke-width: 0.8"/>
     </g>
     <g id="line2d_12">
      <g>
       <use xlink:href="#m9ec291e509" x="327.153467" y="252" style="stroke: #000000; stroke-width: 0.8"/>
      </g>
     </g>
     <g id="text_6">
      <!-- 2500 -->
      <g transform="translate(314.428467 266.598437)scale(0.1 -0.1)">
       <use xlink:href="#DejaVuSans-32"/>
       <use xlink:href="#DejaVuSans-35" x="63.623047"/>
       <use xlink:href="#DejaVuSans-30" x="127.246094"/>
       <use xlink:href="#DejaVuSans-30" x="190.869141"/>
      </g>
     </g>
    </g>
    <g id="xtick_7">
     <g id="line2d_13">
      <path d="M 378.740524 252 
L 378.740524 34.56 
" clip-path="url(#p2ccf6b0cde)" style="fill: none; stroke-dasharray: 2.96,1.28; stroke-dashoffset: 0; stroke: #b0b0b0; stroke-width: 0.8"/>
     </g>
     <g id="line2d_14">
      <g>
       <use xlink:href="#m9ec291e509" x="378.740524" y="252" style="stroke: #000000; stroke-width: 0.8"/>
      </g>
     </g>
     <g id="text_7">
      <!-- 3000 -->
      <g transform="translate(366.015524 266.598437)scale(0.1 -0.1)">
       <defs>
        <path id="DejaVuSans-33" d="M 2597 2516 
Q 3050 2419 3304 2112 
Q 3559 1806 3559 1356 
Q 3559 666 3084 287 
Q 2609 -91 1734 -91 
Q 1441 -91 1130 -33 
Q 819 25 488 141 
L 488 750 
Q 750 597 1062 519 
Q 1375 441 1716 441 
Q 2309 441 2620 675 
Q 2931 909 2931 1356 
Q 2931 1769 2642 2001 
Q 2353 2234 1838 2234 
L 1294 2234 
L 1294 2753 
L 1863 2753 
Q 2328 2753 2575 2939 
Q 2822 3125 2822 3475 
Q 2822 3834 2567 4026 
Q 2313 4219 1838 4219 
Q 1578 4219 1281 4162 
Q 984 4106 628 3988 
L 628 4550 
Q 988 4650 1302 4700 
Q 1616 4750 1894 4750 
Q 2613 4750 3031 4423 
Q 3450 4097 3450 3541 
Q 3450 3153 3228 2886 
Q 3006 2619 2597 2516 
z
" transform="scale(0.015625)"/>
       </defs>
       <use xlink:href="#DejaVuSans-33"/>
       <use xlink:href="#DejaVuSans-30" x="63.623047"/>
       <use xlink:href="#DejaVuSans-30" x="127.246094"/>
       <use xlink:href="#DejaVuSans-30" x="190.869141"/>
      </g>
     </g>
    </g>
    <g id="text_8">
     <!-- Steps -->
     <g transform="translate(207.410156 280.276563)scale(0.1 -0.1)">
      <defs>
       <path id="DejaVuSans-53" d="M 3425 4513 
L 3425 3897 
Q 3066 4069 2747 4153 
Q 2428 4238 2131 4238 
Q 1616 4238 1336 4038 
Q 1056 3838 1056 3469 
Q 1056 3159 1242 3001 
Q 1428 2844 1947 2747 
L 2328 2669 
Q 3034 2534 3370 2195 
Q 3706 1856 3706 1288 
Q 3706 609 3251 259 
Q 2797 -91 1919 -91 
Q 1588 -91 1214 -16 
Q 841 59 441 206 
L 441 856 
Q 825 641 1194 531 
Q 1563 422 1919 422 
Q 2459 422 2753 634 
Q 3047 847 3047 1241 
Q 3047 1584 2836 1778 
Q 2625 1972 2144 2069 
L 1759 2144 
Q 1053 2284 737 2584 
Q 422 2884 422 3419 
Q 422 4038 858 4394 
Q 1294 4750 2059 4750 
Q 2388 4750 2728 4690 
Q 3069 4631 3425 4513 
z
" transform="scale(0.015625)"/>
       <path id="DejaVuSans-74" d="M 1172 4494 
L 1172 3500 
L 2356 3500 
L 2356 3053 
L 1172 3053 
L 1172 1153 
Q 1172 725 1289 603 
Q 1406 481 1766 481 
L 2356 481 
L 2356 0 
L 1766 0 
Q 1100 0 847 248 
Q 594 497 594 1153 
L 594 3053 
L 172 3053 
L 172 3500 
L 594 3500 
L 594 4494 
L 1172 4494 
z
" transform="scale(0.015625)"/>
       <path id="DejaVuSans-65" d="M 3597 1894 
L 3597 1613 
L 953 1613 
Q 991 1019 1311 708 
Q 1631 397 2203 397 
Q 2534 397 2845 478 
Q 3156 559 3463 722 
L 3463 178 
Q 3153 47 2828 -22 
Q 2503 -91 2169 -91 
Q 1331 -91 842 396 
Q 353 884 353 1716 
Q 353 2575 817 3079 
Q 1281 3584 2069 3584 
Q 2775 3584 3186 3129 
Q 3597 2675 3597 1894 
z
M 3022 2063 
Q 3016 2534 2758 2815 
Q 2500 3097 2075 3097 
Q 1594 3097 1305 2825 
Q 1016 2553 972 2059 
L 3022 2063 
z
" transform="scale(0.015625)"/>
       <path id="DejaVuSans-70" d="M 1159 525 
L 1159 -1331 
L 581 -1331 
L 581 3500 
L 1159 3500 
L 1159 2969 
Q 1341 3281 1617 3432 
Q 1894 3584 2278 3584 
Q 2916 3584 3314 3078 
Q 3713 2572 3713 1747 
Q 3713 922 3314 415 
Q 2916 -91 2278 -91 
Q 1894 -91 1617 61 
Q 1341 213 1159 525 
z
M 3116 1747 
Q 3116 2381 2855 2742 
Q 2594 3103 2138 3103 
Q 1681 3103 1420 2742 
Q 1159 2381 1159 1747 
Q 1159 1113 1420 752 
Q 1681 391 2138 391 
Q 2594 391 2855 752 
Q 3116 1113 3116 1747 
z
" transform="scale(0.015625)"/>
       <path id="DejaVuSans-73" d="M 2834 3397 
L 2834 2853 
Q 2591 2978 2328 3040 
Q 2066 3103 1784 3103 
Q 1356 3103 1142 2972 
Q 928 2841 928 2578 
Q 928 2378 1081 2264 
Q 1234 2150 1697 2047 
L 1894 2003 
Q 2506 1872 2764 1633 
Q 3022 1394 3022 966 
Q 3022 478 2636 193 
Q 2250 -91 1575 -91 
Q 1294 -91 989 -36 
Q 684 19 347 128 
L 347 722 
Q 666 556 975 473 
Q 1284 391 1588 391 
Q 1994 391 2212 530 
Q 2431 669 2431 922 
Q 2431 1156 2273 1281 
Q 2116 1406 1581 1522 
L 1381 1569 
Q 847 1681 609 1914 
Q 372 2147 372 2553 
Q 372 3047 722 3315 
Q 1072 3584 1716 3584 
Q 2034 3584 2315 3537 
Q 2597 3491 2834 3397 
z
" transform="scale(0.015625)"/>
      </defs>
      <use xlink:href="#DejaVuSans-53"/>
      <use xlink:href="#DejaVuSans-74" x="63.476562"/>
      <use xlink:href="#DejaVuSans-65" x="102.685547"/>
      <use xlink:href="#DejaVuSans-70" x="164.208984"/>
      <use xlink:href="#DejaVuSans-73" x="227.685547"/>
     </g>
    </g>
   </g>
   <g id="matplotlib.axis_2">
    <g id="ytick_1">
     <g id="line2d_15">
      <path d="M 54 243.636923 
L 388.8 243.636923 
" clip-path="url(#p2ccf6b0cde)" style="fill: none; stroke-dasharray: 2.96,1.28; stroke-dashoffset: 0; stroke: #b0b0b0; stroke-width: 0.8"/>
     </g>
     <g id="line2d_16">
      <defs>
       <path id="mc9baf2449d" d="M 0 0 
L -3.5 0 
" style="stroke: #000000; stroke-width: 0.8"/>
      </defs>
      <g>
       <use xlink:href="#mc9baf2449d" x="54" y="243.636923" style="stroke: #000000; stroke-width: 0.8"/>
      </g>
     </g>
     <g id="text_9">
      <!-- −12 -->
      <g transform="translate(25.895312 247.436142)scale(0.1 -0.1)">
       <defs>
        <path id="DejaVuSans-2212" d="M 678 2272 
L 4684 2272 
L 4684 1741 
L 678 1741 
L 678 2272 
z
" transform="scale(0.015625)"/>
       </defs>
       <use xlink:href="#DejaVuSans-2212"/>
       <use xlink:href="#DejaVuSans-31" x="83.789062"/>
       <use xlink:href="#DejaVuSans-32" x="147.412109"/>
      </g>
     </g>
    </g>
    <g id="ytick_2">
     <g id="line2d_17">
      <path d="M 54 210.184615 
L 388.8 210.184615 
" clip-path="url(#p2ccf6b0cde)" style="fill: none; stroke-dasharray: 2.96,1.28; stroke-dashoffset: 0; stroke: #b0b0b0; stroke-width: 0.8"/>
     </g>
     <g id="line2d_18">
      <g>
       <use xlink:href="#mc9baf2449d" x="54" y="210.184615" style="stroke: #000000; stroke-width: 0.8"/>
      </g>
     </g>
     <g id="text_10">
      <!-- −10 -->
      <g transform="translate(25.895312 213.983834)scale(0.1 -0.1)">
       <use xlink:href="#DejaVuSans-2212"/>
       <use xlink:href="#DejaVuSans-31" x="83.789062"/>
       <use xlink:href="#DejaVuSans-30" x="147.412109"/>
      </g>
     </g>
    </g>
    <g id="ytick_3">
     <g id="line2d_19">
      <path d="M 54 176.732308 
L 388.8 176.732308 
" clip-path="url(#p2ccf6b0cde)" style="fill: none; stroke-dasharray: 2.96,1.28; stroke-dashoffset: 0; stroke: #b0b0b0; stroke-width: 0.8"/>
     </g>
     <g id="line2d_20">
      <g>
       <use xlink:href="#mc9baf2449d" x="54" y="176.732308" style="stroke: #000000; stroke-width: 0.8"/>
      </g>
     </g>
     <g id="text_11">
      <!-- −8 -->
      <g transform="translate(32.257812 180.531526)scale(0.1 -0.1)">
       <defs>
        <path id="DejaVuSans-38" d="M 2034 2216 
Q 1584 2216 1326 1975 
Q 1069 1734 1069 1313 
Q 1069 891 1326 650 
Q 1584 409 2034 409 
Q 2484 409 2743 651 
Q 3003 894 3003 1313 
Q 3003 1734 2745 1975 
Q 2488 2216 2034 2216 
z
M 1403 2484 
Q 997 2584 770 2862 
Q 544 3141 544 3541 
Q 544 4100 942 4425 
Q 1341 4750 2034 4750 
Q 2731 4750 3128 4425 
Q 3525 4100 3525 3541 
Q 3525 3141 3298 2862 
Q 3072 2584 2669 2484 
Q 3125 2378 3379 2068 
Q 3634 1759 3634 1313 
Q 3634 634 3220 271 
Q 2806 -91 2034 -91 
Q 1263 -91 848 271 
Q 434 634 434 1313 
Q 434 1759 690 2068 
Q 947 2378 1403 2484 
z
M 1172 3481 
Q 1172 3119 1398 2916 
Q 1625 2713 2034 2713 
Q 2441 2713 2670 2916 
Q 2900 3119 2900 3481 
Q 2900 3844 2670 4047 
Q 2441 4250 2034 4250 
Q 1625 4250 1398 4047 
Q 1172 3844 1172 3481 
z
" transform="scale(0.015625)"/>
       </defs>
       <use xlink:href="#DejaVuSans-2212"/>
       <use xlink:href="#DejaVuSans-38" x="83.789062"/>
      </g>
     </g>
    </g>
    <g id="ytick_4">
     <g id="line2d_21">
      <path d="M 54 143.28 
L 388.8 143.28 
" clip-path="url(#p2ccf6b0cde)" style="fill: none; stroke-dasharray: 2.96,1.28; stroke-dashoffset: 0; stroke: #b0b0b0; stroke-width: 0.8"/>
     </g>
     <g id="line2d_22">
      <g>
       <use xlink:href="#mc9baf2449d" x="54" y="143.28" style="stroke: #000000; stroke-width: 0.8"/>
      </g>
     </g>
     <g id="text_12">
      <!-- −6 -->
      <g transform="translate(32.257812 147.079219)scale(0.1 -0.1)">
       <defs>
        <path id="DejaVuSans-36" d="M 2113 2584 
Q 1688 2584 1439 2293 
Q 1191 2003 1191 1497 
Q 1191 994 1439 701 
Q 1688 409 2113 409 
Q 2538 409 2786 701 
Q 3034 994 3034 1497 
Q 3034 2003 2786 2293 
Q 2538 2584 2113 2584 
z
M 3366 4563 
L 3366 3988 
Q 3128 4100 2886 4159 
Q 2644 4219 2406 4219 
Q 1781 4219 1451 3797 
Q 1122 3375 1075 2522 
Q 1259 2794 1537 2939 
Q 1816 3084 2150 3084 
Q 2853 3084 3261 2657 
Q 3669 2231 3669 1497 
Q 3669 778 3244 343 
Q 2819 -91 2113 -91 
Q 1303 -91 875 529 
Q 447 1150 447 2328 
Q 447 3434 972 4092 
Q 1497 4750 2381 4750 
Q 2619 4750 2861 4703 
Q 3103 4656 3366 4563 
z
" transform="scale(0.015625)"/>
       </defs>
       <use xlink:href="#DejaVuSans-2212"/>
       <use xlink:href="#DejaVuSans-36" x="83.789062"/>
      </g>
     </g>
    </g>
    <g id="ytick_5">
     <g id="line2d_23">
      <path d="M 54 109.827692 
L 388.8 109.827692 
" clip-path="url(#p2ccf6b0cde)" style="fill: none; stroke-dasharray: 2.96,1.28; stroke-dashoffset: 0; stroke: #b0b0b0; stroke-width: 0.8"/>
     </g>
     <g id="line2d_24">
      <g>
       <use xlink:href="#mc9baf2449d" x="54" y="109.827692" style="stroke: #000000; stroke-width: 0.8"/>
      </g>
     </g>
     <g id="text_13">
      <!-- −4 -->
      <g transform="translate(32.257812 113.626911)scale(0.1 -0.1)">
       <defs>
        <path id="DejaVuSans-34" d="M 2419 4116 
L 825 1625 
L 2419 1625 
L 2419 4116 
z
M 2253 4666 
L 3047 4666 
L 3047 1625 
L 3713 1625 
L 3713 1100 
L 3047 1100 
L 3047 0 
L 2419 0 
L 2419 1100 
L 313 1100 
L 313 1709 
L 2253 4666 
z
" transform="scale(0.015625)"/>
       </defs>
       <use xlink:href="#DejaVuSans-2212"/>
       <use xlink:href="#DejaVuSans-34" x="83.789062"/>
      </g>
     </g>
    </g>
    <g id="ytick_6">
     <g id="line2d_25">
      <path d="M 54 76.375385 
L 388.8 76.375385 
" clip-path="url(#p2ccf6b0cde)" style="fill: none; stroke-dasharray: 2.96,1.28; stroke-dashoffset: 0; stroke: #b0b0b0; stroke-width: 0.8"/>
     </g>
     <g id="line2d_26">
      <g>
       <use xlink:href="#mc9baf2449d" x="54" y="76.375385" style="stroke: #000000; stroke-width: 0.8"/>
      </g>
     </g>
     <g id="text_14">
      <!-- −2 -->
      <g transform="translate(32.257812 80.174603)scale(0.1 -0.1)">
       <use xlink:href="#DejaVuSans-2212"/>
       <use xlink:href="#DejaVuSans-32" x="83.789062"/>
      </g>
     </g>
    </g>
    <g id="ytick_7">
     <g id="line2d_27">
      <path d="M 54 42.923077 
L 388.8 42.923077 
" clip-path="url(#p2ccf6b0cde)" style="fill: none; stroke-dasharray: 2.96,1.28; stroke-dashoffset: 0; stroke: #b0b0b0; stroke-width: 0.8"/>
     </g>
     <g id="line2d_28">
      <g>
       <use xlink:href="#mc9baf2449d" x="54" y="42.923077" style="stroke: #000000; stroke-width: 0.8"/>
      </g>
     </g>
     <g id="text_15">
      <!-- 0 -->
      <g transform="translate(40.6375 46.722296)scale(0.1 -0.1)">
       <use xlink:href="#DejaVuSans-30"/>
      </g>
     </g>
    </g>
    <g id="text_16">
     <!-- Policy value error -->
     <g transform="translate(19.815625 186.597969)rotate(-90)scale(0.1 -0.1)">
      <defs>
       <path id="DejaVuSans-50" d="M 1259 4147 
L 1259 2394 
L 2053 2394 
Q 2494 2394 2734 2622 
Q 2975 2850 2975 3272 
Q 2975 3691 2734 3919 
Q 2494 4147 2053 4147 
L 1259 4147 
z
M 628 4666 
L 2053 4666 
Q 2838 4666 3239 4311 
Q 3641 3956 3641 3272 
Q 3641 2581 3239 2228 
Q 2838 1875 2053 1875 
L 1259 1875 
L 1259 0 
L 628 0 
L 628 4666 
z
" transform="scale(0.015625)"/>
       <path id="DejaVuSans-6f" d="M 1959 3097 
Q 1497 3097 1228 2736 
Q 959 2375 959 1747 
Q 959 1119 1226 758 
Q 1494 397 1959 397 
Q 2419 397 2687 759 
Q 2956 1122 2956 1747 
Q 2956 2369 2687 2733 
Q 2419 3097 1959 3097 
z
M 1959 3584 
Q 2709 3584 3137 3096 
Q 3566 2609 3566 1747 
Q 3566 888 3137 398 
Q 2709 -91 1959 -91 
Q 1206 -91 779 398 
Q 353 888 353 1747 
Q 353 2609 779 3096 
Q 1206 3584 1959 3584 
z
" transform="scale(0.015625)"/>
       <path id="DejaVuSans-6c" d="M 603 4863 
L 1178 4863 
L 1178 0 
L 603 0 
L 603 4863 
z
" transform="scale(0.015625)"/>
       <path id="DejaVuSans-69" d="M 603 3500 
L 1178 3500 
L 1178 0 
L 603 0 
L 603 3500 
z
M 603 4863 
L 1178 4863 
L 1178 4134 
L 603 4134 
L 603 4863 
z
" transform="scale(0.015625)"/>
       <path id="DejaVuSans-63" d="M 3122 3366 
L 3122 2828 
Q 2878 2963 2633 3030 
Q 2388 3097 2138 3097 
Q 1578 3097 1268 2742 
Q 959 2388 959 1747 
Q 959 1106 1268 751 
Q 1578 397 2138 397 
Q 2388 397 2633 464 
Q 2878 531 3122 666 
L 3122 134 
Q 2881 22 2623 -34 
Q 2366 -91 2075 -91 
Q 1284 -91 818 406 
Q 353 903 353 1747 
Q 353 2603 823 3093 
Q 1294 3584 2113 3584 
Q 2378 3584 2631 3529 
Q 2884 3475 3122 3366 
z
" transform="scale(0.015625)"/>
       <path id="DejaVuSans-79" d="M 2059 -325 
Q 1816 -950 1584 -1140 
Q 1353 -1331 966 -1331 
L 506 -1331 
L 506 -850 
L 844 -850 
Q 1081 -850 1212 -737 
Q 1344 -625 1503 -206 
L 1606 56 
L 191 3500 
L 800 3500 
L 1894 763 
L 2988 3500 
L 3597 3500 
L 2059 -325 
z
" transform="scale(0.015625)"/>
       <path id="DejaVuSans-20" transform="scale(0.015625)"/>
       <path id="DejaVuSans-76" d="M 191 3500 
L 800 3500 
L 1894 563 
L 2988 3500 
L 3597 3500 
L 2284 0 
L 1503 0 
L 191 3500 
z
" transform="scale(0.015625)"/>
       <path id="DejaVuSans-61" d="M 2194 1759 
Q 1497 1759 1228 1600 
Q 959 1441 959 1056 
Q 959 750 1161 570 
Q 1363 391 1709 391 
Q 2188 391 2477 730 
Q 2766 1069 2766 1631 
L 2766 1759 
L 2194 1759 
z
M 3341 1997 
L 3341 0 
L 2766 0 
L 2766 531 
Q 2569 213 2275 61 
Q 1981 -91 1556 -91 
Q 1019 -91 701 211 
Q 384 513 384 1019 
Q 384 1609 779 1909 
Q 1175 2209 1959 2209 
L 2766 2209 
L 2766 2266 
Q 2766 2663 2505 2880 
Q 2244 3097 1772 3097 
Q 1472 3097 1187 3025 
Q 903 2953 641 2809 
L 641 3341 
Q 956 3463 1253 3523 
Q 1550 3584 1831 3584 
Q 2591 3584 2966 3190 
Q 3341 2797 3341 1997 
z
" transform="scale(0.015625)"/>
       <path id="DejaVuSans-75" d="M 544 1381 
L 544 3500 
L 1119 3500 
L 1119 1403 
Q 1119 906 1312 657 
Q 1506 409 1894 409 
Q 2359 409 2629 706 
Q 2900 1003 2900 1516 
L 2900 3500 
L 3475 3500 
L 3475 0 
L 2900 0 
L 2900 538 
Q 2691 219 2414 64 
Q 2138 -91 1772 -91 
Q 1169 -91 856 284 
Q 544 659 544 1381 
z
M 1991 3584 
L 1991 3584 
z
" transform="scale(0.015625)"/>
       <path id="DejaVuSans-72" d="M 2631 2963 
Q 2534 3019 2420 3045 
Q 2306 3072 2169 3072 
Q 1681 3072 1420 2755 
Q 1159 2438 1159 1844 
L 1159 0 
L 581 0 
L 581 3500 
L 1159 3500 
L 1159 2956 
Q 1341 3275 1631 3429 
Q 1922 3584 2338 3584 
Q 2397 3584 2469 3576 
Q 2541 3569 2628 3553 
L 2631 2963 
z
" transform="scale(0.015625)"/>
      </defs>
      <use xlink:href="#DejaVuSans-50"/>
      <use xlink:href="#DejaVuSans-6f" x="56.677734"/>
      <use xlink:href="#DejaVuSans-6c" x="117.859375"/>
      <use xlink:href="#DejaVuSans-69" x="145.642578"/>
      <use xlink:href="#DejaVuSans-63" x="173.425781"/>
      <use xlink:href="#DejaVuSans-79" x="228.40625"/>
      <use xlink:href="#DejaVuSans-20" x="287.585938"/>
      <use xlink:href="#DejaVuSans-76" x="319.373047"/>
      <use xlink:href="#DejaVuSans-61" x="378.552734"/>
      <use xlink:href="#DejaVuSans-6c" x="439.832031"/>
      <use xlink:href="#DejaVuSans-75" x="467.615234"/>
      <use xlink:href="#DejaVuSans-65" x="530.994141"/>
      <use xlink:href="#DejaVuSans-20" x="592.517578"/>
      <use xlink:href="#DejaVuSans-65" x="624.304688"/>
      <use xlink:href="#DejaVuSans-72" x="685.828125"/>
      <use xlink:href="#DejaVuSans-72" x="725.191406"/>
      <use xlink:href="#DejaVuSans-6f" x="764.054688"/>
      <use xlink:href="#DejaVuSans-72" x="825.236328"/>
     </g>
    </g>
   </g>
   <g id="line2d_29">
    <path d="M 69.218182 257.880902 
L 74.376888 255.974411 
L 79.535593 221.53032 
L 84.694299 156.245357 
L 89.853005 167.683721 
L 95.01171 82.481608 
L 100.170416 81.530841 
L 105.329122 92.631098 
L 110.487827 55.260623 
L 115.646533 58.173417 
L 120.805239 58.173417 
L 125.963945 58.173417 
L 131.12265 83.466071 
L 136.281356 62.412697 
L 141.440062 58.173417 
L 146.598767 58.209079 
L 151.757473 62.412697 
L 156.916179 58.209079 
L 162.074884 58.209079 
L 167.23359 58.209079 
L 172.392296 58.209079 
L 177.551002 58.209079 
L 182.709707 58.209079 
L 187.868413 58.209079 
L 193.027119 58.209079 
L 198.185824 58.209079 
L 203.34453 58.269523 
L 208.503236 58.269523 
L 213.661941 58.269523 
L 218.820647 58.269523 
L 223.979353 58.269523 
L 229.138059 58.269523 
L 234.296764 58.269523 
L 239.45547 58.269523 
L 244.614176 58.269523 
L 249.772881 58.269523 
L 254.931587 58.269523 
L 260.090293 58.269523 
L 265.248998 58.269523 
L 270.407704 58.269523 
L 275.56641 58.269523 
L 280.725116 58.269523 
L 285.883821 58.269523 
L 291.042527 58.269523 
L 296.201233 58.269523 
L 301.359938 57.642179 
L 306.518644 57.642179 
L 311.67735 57.642179 
L 316.836055 57.642179 
L 321.994761 57.642179 
L 327.153467 57.642179 
L 332.312173 57.642179 
L 337.470878 57.642179 
L 342.629584 57.642179 
L 347.78829 57.642179 
L 352.946995 57.642179 
L 358.105701 57.642179 
L 363.264407 57.642179 
L 368.423112 57.642179 
L 373.581818 58.173417 
" clip-path="url(#p2ccf6b0cde)" style="fill: none; stroke: #9d02d7; stroke-width: 1.5; stroke-linecap: square"/>
    <defs>
     <path id="m2dda32bdfc" d="M 0 -2 
L -2 2 
L 2 2 
z
" style="stroke: #9d02d7; stroke-linejoin: miter"/>
    </defs>
    <g clip-path="url(#p2ccf6b0cde)">
     <use xlink:href="#m2dda32bdfc" x="69.218182" y="257.880902" style="fill: #9d02d7; stroke: #9d02d7; stroke-linejoin: miter"/>
     <use xlink:href="#m2dda32bdfc" x="74.376888" y="255.974411" style="fill: #9d02d7; stroke: #9d02d7; stroke-linejoin: miter"/>
     <use xlink:href="#m2dda32bdfc" x="79.535593" y="221.53032" style="fill: #9d02d7; stroke: #9d02d7; stroke-linejoin: miter"/>
     <use xlink:href="#m2dda32bdfc" x="84.694299" y="156.245357" style="fill: #9d02d7; stroke: #9d02d7; stroke-linejoin: miter"/>
     <use xlink:href="#m2dda32bdfc" x="89.853005" y="167.683721" style="fill: #9d02d7; stroke: #9d02d7; stroke-linejoin: miter"/>
     <use xlink:href="#m2dda32bdfc" x="95.01171" y="82.481608" style="fill: #9d02d7; stroke: #9d02d7; stroke-linejoin: miter"/>
     <use xlink:href="#m2dda32bdfc" x="100.170416" y="81.530841" style="fill: #9d02d7; stroke: #9d02d7; stroke-linejoin: miter"/>
     <use xlink:href="#m2dda32bdfc" x="105.329122" y="92.631098" style="fill: #9d02d7; stroke: #9d02d7; stroke-linejoin: miter"/>
     <use xlink:href="#m2dda32bdfc" x="110.487827" y="55.260623" style="fill: #9d02d7; stroke: #9d02d7; stroke-linejoin: miter"/>
     <use xlink:href="#m2dda32bdfc" x="115.646533" y="58.173417" style="fill: #9d02d7; stroke: #9d02d7; stroke-linejoin: miter"/>
     <use xlink:href="#m2dda32bdfc" x="120.805239" y="58.173417" style="fill: #9d02d7; stroke: #9d02d7; stroke-linejoin: miter"/>
     <use xlink:href="#m2dda32bdfc" x="125.963945" y="58.173417" style="fill: #9d02d7; stroke: #9d02d7; stroke-linejoin: miter"/>
     <use xlink:href="#m2dda32bdfc" x="131.12265" y="83.466071" style="fill: #9d02d7; stroke: #9d02d7; stroke-linejoin: miter"/>
     <use xlink:href="#m2dda32bdfc" x="136.281356" y="62.412697" style="fill: #9d02d7; stroke: #9d02d7; stroke-linejoin: miter"/>
     <use xlink:href="#m2dda32bdfc" x="141.440062" y="58.173417" style="fill: #9d02d7; stroke: #9d02d7; stroke-linejoin: miter"/>
     <use xlink:href="#m2dda32bdfc" x="146.598767" y="58.209079" style="fill: #9d02d7; stroke: #9d02d7; stroke-linejoin: miter"/>
     <use xlink:href="#m2dda32bdfc" x="151.757473" y="62.412697" style="fill: #9d02d7; stroke: #9d02d7; stroke-linejoin: miter"/>
     <use xlink:href="#m2dda32bdfc" x="156.916179" y="58.209079" style="fill: #9d02d7; stroke: #9d02d7; stroke-linejoin: miter"/>
     <use xlink:href="#m2dda32bdfc" x="162.074884" y="58.209079" style="fill: #9d02d7; stroke: #9d02d7; stroke-linejoin: miter"/>
     <use xlink:href="#m2dda32bdfc" x="167.23359" y="58.209079" style="fill: #9d02d7; stroke: #9d02d7; stroke-linejoin: miter"/>
     <use xlink:href="#m2dda32bdfc" x="172.392296" y="58.209079" style="fill: #9d02d7; stroke: #9d02d7; stroke-linejoin: miter"/>
     <use xlink:href="#m2dda32bdfc" x="177.551002" y="58.209079" style="fill: #9d02d7; stroke: #9d02d7; stroke-linejoin: miter"/>
     <use xlink:href="#m2dda32bdfc" x="182.709707" y="58.209079" style="fill: #9d02d7; stroke: #9d02d7; stroke-linejoin: miter"/>
     <use xlink:href="#m2dda32bdfc" x="187.868413" y="58.209079" style="fill: #9d02d7; stroke: #9d02d7; stroke-linejoin: miter"/>
     <use xlink:href="#m2dda32bdfc" x="193.027119" y="58.209079" style="fill: #9d02d7; stroke: #9d02d7; stroke-linejoin: miter"/>
     <use xlink:href="#m2dda32bdfc" x="198.185824" y="58.209079" style="fill: #9d02d7; stroke: #9d02d7; stroke-linejoin: miter"/>
     <use xlink:href="#m2dda32bdfc" x="203.34453" y="58.269523" style="fill: #9d02d7; stroke: #9d02d7; stroke-linejoin: miter"/>
     <use xlink:href="#m2dda32bdfc" x="208.503236" y="58.269523" style="fill: #9d02d7; stroke: #9d02d7; stroke-linejoin: miter"/>
     <use xlink:href="#m2dda32bdfc" x="213.661941" y="58.269523" style="fill: #9d02d7; stroke: #9d02d7; stroke-linejoin: miter"/>
     <use xlink:href="#m2dda32bdfc" x="218.820647" y="58.269523" style="fill: #9d02d7; stroke: #9d02d7; stroke-linejoin: miter"/>
     <use xlink:href="#m2dda32bdfc" x="223.979353" y="58.269523" style="fill: #9d02d7; stroke: #9d02d7; stroke-linejoin: miter"/>
     <use xlink:href="#m2dda32bdfc" x="229.138059" y="58.269523" style="fill: #9d02d7; stroke: #9d02d7; stroke-linejoin: miter"/>
     <use xlink:href="#m2dda32bdfc" x="234.296764" y="58.269523" style="fill: #9d02d7; stroke: #9d02d7; stroke-linejoin: miter"/>
     <use xlink:href="#m2dda32bdfc" x="239.45547" y="58.269523" style="fill: #9d02d7; stroke: #9d02d7; stroke-linejoin: miter"/>
     <use xlink:href="#m2dda32bdfc" x="244.614176" y="58.269523" style="fill: #9d02d7; stroke: #9d02d7; stroke-linejoin: miter"/>
     <use xlink:href="#m2dda32bdfc" x="249.772881" y="58.269523" style="fill: #9d02d7; stroke: #9d02d7; stroke-linejoin: miter"/>
     <use xlink:href="#m2dda32bdfc" x="254.931587" y="58.269523" style="fill: #9d02d7; stroke: #9d02d7; stroke-linejoin: miter"/>
     <use xlink:href="#m2dda32bdfc" x="260.090293" y="58.269523" style="fill: #9d02d7; stroke: #9d02d7; stroke-linejoin: miter"/>
     <use xlink:href="#m2dda32bdfc" x="265.248998" y="58.269523" style="fill: #9d02d7; stroke: #9d02d7; stroke-linejoin: miter"/>
     <use xlink:href="#m2dda32bdfc" x="270.407704" y="58.269523" style="fill: #9d02d7; stroke: #9d02d7; stroke-linejoin: miter"/>
     <use xlink:href="#m2dda32bdfc" x="275.56641" y="58.269523" style="fill: #9d02d7; stroke: #9d02d7; stroke-linejoin: miter"/>
     <use xlink:href="#m2dda32bdfc" x="280.725116" y="58.269523" style="fill: #9d02d7; stroke: #9d02d7; stroke-linejoin: miter"/>
     <use xlink:href="#m2dda32bdfc" x="285.883821" y="58.269523" style="fill: #9d02d7; stroke: #9d02d7; stroke-linejoin: miter"/>
     <use xlink:href="#m2dda32bdfc" x="291.042527" y="58.269523" style="fill: #9d02d7; stroke: #9d02d7; stroke-linejoin: miter"/>
     <use xlink:href="#m2dda32bdfc" x="296.201233" y="58.269523" style="fill: #9d02d7; stroke: #9d02d7; stroke-linejoin: miter"/>
     <use xlink:href="#m2dda32bdfc" x="301.359938" y="57.642179" style="fill: #9d02d7; stroke: #9d02d7; stroke-linejoin: miter"/>
     <use xlink:href="#m2dda32bdfc" x="306.518644" y="57.642179" style="fill: #9d02d7; stroke: #9d02d7; stroke-linejoin: miter"/>
     <use xlink:href="#m2dda32bdfc" x="311.67735" y="57.642179" style="fill: #9d02d7; stroke: #9d02d7; stroke-linejoin: miter"/>
     <use xlink:href="#m2dda32bdfc" x="316.836055" y="57.642179" style="fill: #9d02d7; stroke: #9d02d7; stroke-linejoin: miter"/>
     <use xlink:href="#m2dda32bdfc" x="321.994761" y="57.642179" style="fill: #9d02d7; stroke: #9d02d7; stroke-linejoin: miter"/>
     <use xlink:href="#m2dda32bdfc" x="327.153467" y="57.642179" style="fill: #9d02d7; stroke: #9d02d7; stroke-linejoin: miter"/>
     <use xlink:href="#m2dda32bdfc" x="332.312173" y="57.642179" style="fill: #9d02d7; stroke: #9d02d7; stroke-linejoin: miter"/>
     <use xlink:href="#m2dda32bdfc" x="337.470878" y="57.642179" style="fill: #9d02d7; stroke: #9d02d7; stroke-linejoin: miter"/>
     <use xlink:href="#m2dda32bdfc" x="342.629584" y="57.642179" style="fill: #9d02d7; stroke: #9d02d7; stroke-linejoin: miter"/>
     <use xlink:href="#m2dda32bdfc" x="347.78829" y="57.642179" style="fill: #9d02d7; stroke: #9d02d7; stroke-linejoin: miter"/>
     <use xlink:href="#m2dda32bdfc" x="352.946995" y="57.642179" style="fill: #9d02d7; stroke: #9d02d7; stroke-linejoin: miter"/>
     <use xlink:href="#m2dda32bdfc" x="358.105701" y="57.642179" style="fill: #9d02d7; stroke: #9d02d7; stroke-linejoin: miter"/>
     <use xlink:href="#m2dda32bdfc" x="363.264407" y="57.642179" style="fill: #9d02d7; stroke: #9d02d7; stroke-linejoin: miter"/>
     <use xlink:href="#m2dda32bdfc" x="368.423112" y="57.642179" style="fill: #9d02d7; stroke: #9d02d7; stroke-linejoin: miter"/>
     <use xlink:href="#m2dda32bdfc" x="373.581818" y="58.173417" style="fill: #9d02d7; stroke: #9d02d7; stroke-linejoin: miter"/>
    </g>
   </g>
   <g id="line2d_30">
    <path d="M 69.218182 254.302124 
L 74.376888 253.753496 
L 79.535593 235.792362 
L 84.694299 171.587014 
L 89.853005 91.234862 
L 95.01171 82.314084 
L 100.170416 80.666721 
L 105.329122 81.965542 
L 110.487827 82.311113 
L 115.646533 81.009462 
L 120.805239 82.175532 
L 125.963945 91.939191 
L 131.12265 82.175532 
L 136.281356 72.462107 
L 141.440062 72.715711 
L 146.598767 72.715711 
L 151.757473 72.462107 
L 156.916179 72.462107 
L 162.074884 72.462107 
L 167.23359 72.715711 
L 172.392296 72.462107 
L 177.551002 72.462107 
L 182.709707 73.350096 
L 187.868413 73.350096 
L 193.027119 73.350096 
L 198.185824 72.462107 
L 203.34453 72.462107 
L 208.503236 72.715711 
L 213.661941 62.652762 
L 218.820647 73.651123 
L 223.979353 72.462107 
L 229.138059 72.715711 
L 234.296764 62.745943 
L 239.45547 62.652762 
L 244.614176 62.745943 
L 249.772881 62.652762 
L 254.931587 62.652762 
L 260.090293 62.652762 
L 265.248998 62.652762 
L 270.407704 62.745943 
L 275.56641 62.745943 
L 280.725116 62.652762 
L 285.883821 62.745943 
L 291.042527 62.652762 
L 296.201233 62.652762 
L 301.359938 62.652762 
L 306.518644 62.652762 
L 311.67735 62.652762 
L 316.836055 62.745943 
L 321.994761 62.745943 
L 327.153467 62.652762 
L 332.312173 62.745943 
L 337.470878 62.745943 
L 342.629584 62.652762 
L 347.78829 62.745943 
L 352.946995 62.745943 
L 358.105701 62.652762 
L 363.264407 62.745943 
L 368.423112 62.652762 
L 373.581818 62.652762 
" clip-path="url(#p2ccf6b0cde)" style="fill: none; stroke: #0000ff; stroke-width: 1.5; stroke-linecap: square"/>
    <defs>
     <path id="m36ae1be7b9" d="M 0 2 
C 0.530406 2 1.03916 1.789267 1.414214 1.414214 
C 1.789267 1.03916 2 0.530406 2 0 
C 2 -0.530406 1.789267 -1.03916 1.414214 -1.414214 
C 1.03916 -1.789267 0.530406 -2 0 -2 
C -0.530406 -2 -1.03916 -1.789267 -1.414214 -1.414214 
C -1.789267 -1.03916 -2 -0.530406 -2 0 
C -2 0.530406 -1.789267 1.03916 -1.414214 1.414214 
C -1.03916 1.789267 -0.530406 2 0 2 
z
" style="stroke: #0000ff"/>
    </defs>
    <g clip-path="url(#p2ccf6b0cde)">
     <use xlink:href="#m36ae1be7b9" x="69.218182" y="254.302124" style="fill: #0000ff; stroke: #0000ff"/>
     <use xlink:href="#m36ae1be7b9" x="74.376888" y="253.753496" style="fill: #0000ff; stroke: #0000ff"/>
     <use xlink:href="#m36ae1be7b9" x="79.535593" y="235.792362" style="fill: #0000ff; stroke: #0000ff"/>
     <use xlink:href="#m36ae1be7b9" x="84.694299" y="171.587014" style="fill: #0000ff; stroke: #0000ff"/>
     <use xlink:href="#m36ae1be7b9" x="89.853005" y="91.234862" style="fill: #0000ff; stroke: #0000ff"/>
     <use xlink:href="#m36ae1be7b9" x="95.01171" y="82.314084" style="fill: #0000ff; stroke: #0000ff"/>
     <use xlink:href="#m36ae1be7b9" x="100.170416" y="80.666721" style="fill: #0000ff; stroke: #0000ff"/>
     <use xlink:href="#m36ae1be7b9" x="105.329122" y="81.965542" style="fill: #0000ff; stroke: #0000ff"/>
     <use xlink:href="#m36ae1be7b9" x="110.487827" y="82.311113" style="fill: #0000ff; stroke: #0000ff"/>
     <use xlink:href="#m36ae1be7b9" x="115.646533" y="81.009462" style="fill: #0000ff; stroke: #0000ff"/>
     <use xlink:href="#m36ae1be7b9" x="120.805239" y="82.175532" style="fill: #0000ff; stroke: #0000ff"/>
     <use xlink:href="#m36ae1be7b9" x="125.963945" y="91.939191" style="fill: #0000ff; stroke: #0000ff"/>
     <use xlink:href="#m36ae1be7b9" x="131.12265" y="82.175532" style="fill: #0000ff; stroke: #0000ff"/>
     <use xlink:href="#m36ae1be7b9" x="136.281356" y="72.462107" style="fill: #0000ff; stroke: #0000ff"/>
     <use xlink:href="#m36ae1be7b9" x="141.440062" y="72.715711" style="fill: #0000ff; stroke: #0000ff"/>
     <use xlink:href="#m36ae1be7b9" x="146.598767" y="72.715711" style="fill: #0000ff; stroke: #0000ff"/>
     <use xlink:href="#m36ae1be7b9" x="151.757473" y="72.462107" style="fill: #0000ff; stroke: #0000ff"/>
     <use xlink:href="#m36ae1be7b9" x="156.916179" y="72.462107" style="fill: #0000ff; stroke: #0000ff"/>
     <use xlink:href="#m36ae1be7b9" x="162.074884" y="72.462107" style="fill: #0000ff; stroke: #0000ff"/>
     <use xlink:href="#m36ae1be7b9" x="167.23359" y="72.715711" style="fill: #0000ff; stroke: #0000ff"/>
     <use xlink:href="#m36ae1be7b9" x="172.392296" y="72.462107" style="fill: #0000ff; stroke: #0000ff"/>
     <use xlink:href="#m36ae1be7b9" x="177.551002" y="72.462107" style="fill: #0000ff; stroke: #0000ff"/>
     <use xlink:href="#m36ae1be7b9" x="182.709707" y="73.350096" style="fill: #0000ff; stroke: #0000ff"/>
     <use xlink:href="#m36ae1be7b9" x="187.868413" y="73.350096" style="fill: #0000ff; stroke: #0000ff"/>
     <use xlink:href="#m36ae1be7b9" x="193.027119" y="73.350096" style="fill: #0000ff; stroke: #0000ff"/>
     <use xlink:href="#m36ae1be7b9" x="198.185824" y="72.462107" style="fill: #0000ff; stroke: #0000ff"/>
     <use xlink:href="#m36ae1be7b9" x="203.34453" y="72.462107" style="fill: #0000ff; stroke: #0000ff"/>
     <use xlink:href="#m36ae1be7b9" x="208.503236" y="72.715711" style="fill: #0000ff; stroke: #0000ff"/>
     <use xlink:href="#m36ae1be7b9" x="213.661941" y="62.652762" style="fill: #0000ff; stroke: #0000ff"/>
     <use xlink:href="#m36ae1be7b9" x="218.820647" y="73.651123" style="fill: #0000ff; stroke: #0000ff"/>
     <use xlink:href="#m36ae1be7b9" x="223.979353" y="72.462107" style="fill: #0000ff; stroke: #0000ff"/>
     <use xlink:href="#m36ae1be7b9" x="229.138059" y="72.715711" style="fill: #0000ff; stroke: #0000ff"/>
     <use xlink:href="#m36ae1be7b9" x="234.296764" y="62.745943" style="fill: #0000ff; stroke: #0000ff"/>
     <use xlink:href="#m36ae1be7b9" x="239.45547" y="62.652762" style="fill: #0000ff; stroke: #0000ff"/>
     <use xlink:href="#m36ae1be7b9" x="244.614176" y="62.745943" style="fill: #0000ff; stroke: #0000ff"/>
     <use xlink:href="#m36ae1be7b9" x="249.772881" y="62.652762" style="fill: #0000ff; stroke: #0000ff"/>
     <use xlink:href="#m36ae1be7b9" x="254.931587" y="62.652762" style="fill: #0000ff; stroke: #0000ff"/>
     <use xlink:href="#m36ae1be7b9" x="260.090293" y="62.652762" style="fill: #0000ff; stroke: #0000ff"/>
     <use xlink:href="#m36ae1be7b9" x="265.248998" y="62.652762" style="fill: #0000ff; stroke: #0000ff"/>
     <use xlink:href="#m36ae1be7b9" x="270.407704" y="62.745943" style="fill: #0000ff; stroke: #0000ff"/>
     <use xlink:href="#m36ae1be7b9" x="275.56641" y="62.745943" style="fill: #0000ff; stroke: #0000ff"/>
     <use xlink:href="#m36ae1be7b9" x="280.725116" y="62.652762" style="fill: #0000ff; stroke: #0000ff"/>
     <use xlink:href="#m36ae1be7b9" x="285.883821" y="62.745943" style="fill: #0000ff; stroke: #0000ff"/>
     <use xlink:href="#m36ae1be7b9" x="291.042527" y="62.652762" style="fill: #0000ff; stroke: #0000ff"/>
     <use xlink:href="#m36ae1be7b9" x="296.201233" y="62.652762" style="fill: #0000ff; stroke: #0000ff"/>
     <use xlink:href="#m36ae1be7b9" x="301.359938" y="62.652762" style="fill: #0000ff; stroke: #0000ff"/>
     <use xlink:href="#m36ae1be7b9" x="306.518644" y="62.652762" style="fill: #0000ff; stroke: #0000ff"/>
     <use xlink:href="#m36ae1be7b9" x="311.67735" y="62.652762" style="fill: #0000ff; stroke: #0000ff"/>
     <use xlink:href="#m36ae1be7b9" x="316.836055" y="62.745943" style="fill: #0000ff; stroke: #0000ff"/>
     <use xlink:href="#m36ae1be7b9" x="321.994761" y="62.745943" style="fill: #0000ff; stroke: #0000ff"/>
     <use xlink:href="#m36ae1be7b9" x="327.153467" y="62.652762" style="fill: #0000ff; stroke: #0000ff"/>
     <use xlink:href="#m36ae1be7b9" x="332.312173" y="62.745943" style="fill: #0000ff; stroke: #0000ff"/>
     <use xlink:href="#m36ae1be7b9" x="337.470878" y="62.745943" style="fill: #0000ff; stroke: #0000ff"/>
     <use xlink:href="#m36ae1be7b9" x="342.629584" y="62.652762" style="fill: #0000ff; stroke: #0000ff"/>
     <use xlink:href="#m36ae1be7b9" x="347.78829" y="62.745943" style="fill: #0000ff; stroke: #0000ff"/>
     <use xlink:href="#m36ae1be7b9" x="352.946995" y="62.745943" style="fill: #0000ff; stroke: #0000ff"/>
     <use xlink:href="#m36ae1be7b9" x="358.105701" y="62.652762" style="fill: #0000ff; stroke: #0000ff"/>
     <use xlink:href="#m36ae1be7b9" x="363.264407" y="62.745943" style="fill: #0000ff; stroke: #0000ff"/>
     <use xlink:href="#m36ae1be7b9" x="368.423112" y="62.652762" style="fill: #0000ff; stroke: #0000ff"/>
     <use xlink:href="#m36ae1be7b9" x="373.581818" y="62.652762" style="fill: #0000ff; stroke: #0000ff"/>
    </g>
   </g>
   <g id="line2d_31">
    <path d="M 69.218182 252.908818 
L 74.376888 253.413398 
L 79.535593 159.506949 
L 84.694299 110.705907 
L 89.853005 59.726426 
L 95.01171 53.484477 
L 100.170416 53.055057 
L 105.329122 61.988914 
L 110.487827 57.053102 
L 115.646533 65.695408 
L 120.805239 61.988914 
L 125.963945 53.293714 
L 131.12265 51.326932 
L 136.281356 66.409376 
L 141.440062 59.671489 
L 146.598767 57.28068 
L 151.757473 57.043164 
L 156.916179 64.82491 
L 162.074884 59.420583 
L 167.23359 54.858478 
L 172.392296 54.858478 
L 177.551002 54.858478 
L 182.709707 58.654025 
L 187.868413 54.986073 
L 193.027119 63.261143 
L 198.185824 54.415485 
L 203.34453 54.415485 
L 208.503236 57.195216 
L 213.661941 54.415485 
L 218.820647 57.195216 
L 223.979353 51.513565 
L 229.138059 51.389159 
L 234.296764 50.217338 
L 239.45547 53.61569 
L 244.614176 53.305594 
L 249.772881 50.326719 
L 254.931587 53.484477 
L 260.090293 57.195216 
L 265.248998 54.281845 
L 270.407704 51.513565 
L 275.56641 51.513565 
L 280.725116 53.305594 
L 285.883821 50.217338 
L 291.042527 50.217338 
L 296.201233 61.683406 
L 301.359938 51.513565 
L 306.518644 51.389159 
L 311.67735 53.61569 
L 316.836055 51.389159 
L 321.994761 54.281845 
L 327.153467 54.281845 
L 332.312173 51.513565 
L 337.470878 51.513565 
L 342.629584 51.513565 
L 347.78829 51.513565 
L 352.946995 51.389159 
L 358.105701 51.513565 
L 363.264407 51.389159 
L 368.423112 51.389159 
L 373.581818 51.513565 
" clip-path="url(#p2ccf6b0cde)" style="fill: none; stroke: #ff7763; stroke-width: 1.5; stroke-linecap: square"/>
    <defs>
     <path id="md9ea8b2900" d="M -2 2 
L 2 -2 
M -2 -2 
L 2 2 
" style="stroke: #ff7763"/>
    </defs>
    <g clip-path="url(#p2ccf6b0cde)">
     <use xlink:href="#md9ea8b2900" x="69.218182" y="252.908818" style="fill: #ff7763; stroke: #ff7763"/>
     <use xlink:href="#md9ea8b2900" x="74.376888" y="253.413398" style="fill: #ff7763; stroke: #ff7763"/>
     <use xlink:href="#md9ea8b2900" x="79.535593" y="159.506949" style="fill: #ff7763; stroke: #ff7763"/>
     <use xlink:href="#md9ea8b2900" x="84.694299" y="110.705907" style="fill: #ff7763; stroke: #ff7763"/>
     <use xlink:href="#md9ea8b2900" x="89.853005" y="59.726426" style="fill: #ff7763; stroke: #ff7763"/>
     <use xlink:href="#md9ea8b2900" x="95.01171" y="53.484477" style="fill: #ff7763; stroke: #ff7763"/>
     <use xlink:href="#md9ea8b2900" x="100.170416" y="53.055057" style="fill: #ff7763; stroke: #ff7763"/>
     <use xlink:href="#md9ea8b2900" x="105.329122" y="61.988914" style="fill: #ff7763; stroke: #ff7763"/>
     <use xlink:href="#md9ea8b2900" x="110.487827" y="57.053102" style="fill: #ff7763; stroke: #ff7763"/>
     <use xlink:href="#md9ea8b2900" x="115.646533" y="65.695408" style="fill: #ff7763; stroke: #ff7763"/>
     <use xlink:href="#md9ea8b2900" x="120.805239" y="61.988914" style="fill: #ff7763; stroke: #ff7763"/>
     <use xlink:href="#md9ea8b2900" x="125.963945" y="53.293714" style="fill: #ff7763; stroke: #ff7763"/>
     <use xlink:href="#md9ea8b2900" x="131.12265" y="51.326932" style="fill: #ff7763; stroke: #ff7763"/>
     <use xlink:href="#md9ea8b2900" x="136.281356" y="66.409376" style="fill: #ff7763; stroke: #ff7763"/>
     <use xlink:href="#md9ea8b2900" x="141.440062" y="59.671489" style="fill: #ff7763; stroke: #ff7763"/>
     <use xlink:href="#md9ea8b2900" x="146.598767" y="57.28068" style="fill: #ff7763; stroke: #ff7763"/>
     <use xlink:href="#md9ea8b2900" x="151.757473" y="57.043164" style="fill: #ff7763; stroke: #ff7763"/>
     <use xlink:href="#md9ea8b2900" x="156.916179" y="64.82491" style="fill: #ff7763; stroke: #ff7763"/>
     <use xlink:href="#md9ea8b2900" x="162.074884" y="59.420583" style="fill: #ff7763; stroke: #ff7763"/>
     <use xlink:href="#md9ea8b2900" x="167.23359" y="54.858478" style="fill: #ff7763; stroke: #ff7763"/>
     <use xlink:href="#md9ea8b2900" x="172.392296" y="54.858478" style="fill: #ff7763; stroke: #ff7763"/>
     <use xlink:href="#md9ea8b2900" x="177.551002" y="54.858478" style="fill: #ff7763; stroke: #ff7763"/>
     <use xlink:href="#md9ea8b2900" x="182.709707" y="58.654025" style="fill: #ff7763; stroke: #ff7763"/>
     <use xlink:href="#md9ea8b2900" x="187.868413" y="54.986073" style="fill: #ff7763; stroke: #ff7763"/>
     <use xlink:href="#md9ea8b2900" x="193.027119" y="63.261143" style="fill: #ff7763; stroke: #ff7763"/>
     <use xlink:href="#md9ea8b2900" x="198.185824" y="54.415485" style="fill: #ff7763; stroke: #ff7763"/>
     <use xlink:href="#md9ea8b2900" x="203.34453" y="54.415485" style="fill: #ff7763; stroke: #ff7763"/>
     <use xlink:href="#md9ea8b2900" x="208.503236" y="57.195216" style="fill: #ff7763; stroke: #ff7763"/>
     <use xlink:href="#md9ea8b2900" x="213.661941" y="54.415485" style="fill: #ff7763; stroke: #ff7763"/>
     <use xlink:href="#md9ea8b2900" x="218.820647" y="57.195216" style="fill: #ff7763; stroke: #ff7763"/>
     <use xlink:href="#md9ea8b2900" x="223.979353" y="51.513565" style="fill: #ff7763; stroke: #ff7763"/>
     <use xlink:href="#md9ea8b2900" x="229.138059" y="51.389159" style="fill: #ff7763; stroke: #ff7763"/>
     <use xlink:href="#md9ea8b2900" x="234.296764" y="50.217338" style="fill: #ff7763; stroke: #ff7763"/>
     <use xlink:href="#md9ea8b2900" x="239.45547" y="53.61569" style="fill: #ff7763; stroke: #ff7763"/>
     <use xlink:href="#md9ea8b2900" x="244.614176" y="53.305594" style="fill: #ff7763; stroke: #ff7763"/>
     <use xlink:href="#md9ea8b2900" x="249.772881" y="50.326719" style="fill: #ff7763; stroke: #ff7763"/>
     <use xlink:href="#md9ea8b2900" x="254.931587" y="53.484477" style="fill: #ff7763; stroke: #ff7763"/>
     <use xlink:href="#md9ea8b2900" x="260.090293" y="57.195216" style="fill: #ff7763; stroke: #ff7763"/>
     <use xlink:href="#md9ea8b2900" x="265.248998" y="54.281845" style="fill: #ff7763; stroke: #ff7763"/>
     <use xlink:href="#md9ea8b2900" x="270.407704" y="51.513565" style="fill: #ff7763; stroke: #ff7763"/>
     <use xlink:href="#md9ea8b2900" x="275.56641" y="51.513565" style="fill: #ff7763; stroke: #ff7763"/>
     <use xlink:href="#md9ea8b2900" x="280.725116" y="53.305594" style="fill: #ff7763; stroke: #ff7763"/>
     <use xlink:href="#md9ea8b2900" x="285.883821" y="50.217338" style="fill: #ff7763; stroke: #ff7763"/>
     <use xlink:href="#md9ea8b2900" x="291.042527" y="50.217338" style="fill: #ff7763; stroke: #ff7763"/>
     <use xlink:href="#md9ea8b2900" x="296.201233" y="61.683406" style="fill: #ff7763; stroke: #ff7763"/>
     <use xlink:href="#md9ea8b2900" x="301.359938" y="51.513565" style="fill: #ff7763; stroke: #ff7763"/>
     <use xlink:href="#md9ea8b2900" x="306.518644" y="51.389159" style="fill: #ff7763; stroke: #ff7763"/>
     <use xlink:href="#md9ea8b2900" x="311.67735" y="53.61569" style="fill: #ff7763; stroke: #ff7763"/>
     <use xlink:href="#md9ea8b2900" x="316.836055" y="51.389159" style="fill: #ff7763; stroke: #ff7763"/>
     <use xlink:href="#md9ea8b2900" x="321.994761" y="54.281845" style="fill: #ff7763; stroke: #ff7763"/>
     <use xlink:href="#md9ea8b2900" x="327.153467" y="54.281845" style="fill: #ff7763; stroke: #ff7763"/>
     <use xlink:href="#md9ea8b2900" x="332.312173" y="51.513565" style="fill: #ff7763; stroke: #ff7763"/>
     <use xlink:href="#md9ea8b2900" x="337.470878" y="51.513565" style="fill: #ff7763; stroke: #ff7763"/>
     <use xlink:href="#md9ea8b2900" x="342.629584" y="51.513565" style="fill: #ff7763; stroke: #ff7763"/>
     <use xlink:href="#md9ea8b2900" x="347.78829" y="51.513565" style="fill: #ff7763; stroke: #ff7763"/>
     <use xlink:href="#md9ea8b2900" x="352.946995" y="51.389159" style="fill: #ff7763; stroke: #ff7763"/>
     <use xlink:href="#md9ea8b2900" x="358.105701" y="51.513565" style="fill: #ff7763; stroke: #ff7763"/>
     <use xlink:href="#md9ea8b2900" x="363.264407" y="51.389159" style="fill: #ff7763; stroke: #ff7763"/>
     <use xlink:href="#md9ea8b2900" x="368.423112" y="51.389159" style="fill: #ff7763; stroke: #ff7763"/>
     <use xlink:href="#md9ea8b2900" x="373.581818" y="51.513565" style="fill: #ff7763; stroke: #ff7763"/>
    </g>
   </g>
   <g id="line2d_32">
    <path d="M 69.218182 252.972042 
L 74.376888 253.060494 
L 79.535593 89.863767 
L 84.694299 79.249206 
L 89.853005 99.809125 
L 95.01171 150.84009 
L 100.170416 96.159369 
L 105.329122 45.687018 
L 110.487827 45.709003 
L 115.646533 45.709003 
L 120.805239 45.712749 
L 125.963945 45.687018 
L 131.12265 45.687018 
L 136.281356 45.687018 
L 141.440062 45.709003 
L 146.598767 45.709003 
L 151.757473 46.01447 
L 156.916179 46.146459 
L 162.074884 46.146459 
L 167.23359 46.146459 
L 172.392296 46.146459 
L 177.551002 46.146459 
L 182.709707 46.168116 
L 187.868413 46.336929 
L 193.027119 46.336929 
L 198.185824 46.336929 
L 203.34453 46.315286 
L 208.503236 46.315286 
L 213.661941 46.315286 
L 218.820647 46.315286 
L 223.979353 46.336929 
L 229.138059 46.168116 
L 234.296764 46.168116 
L 239.45547 46.146459 
L 244.614176 46.168116 
L 249.772881 46.168116 
L 254.931587 46.363966 
L 260.090293 46.146459 
L 265.248998 46.146459 
L 270.407704 46.34232 
L 275.56641 46.363966 
L 280.725116 46.348618 
L 285.883821 46.146459 
L 291.042527 46.225277 
L 296.201233 46.225277 
L 301.359938 46.203925 
L 306.518644 46.34232 
L 311.67735 46.225277 
L 316.836055 46.203925 
L 321.994761 46.363966 
L 327.153467 46.34232 
L 332.312173 46.363966 
L 337.470878 46.363966 
L 342.629584 46.34232 
L 347.78829 46.363966 
L 352.946995 46.363966 
L 358.105701 46.34232 
L 363.264407 46.34232 
L 368.423112 46.363966 
L 373.581818 46.363966 
" clip-path="url(#p2ccf6b0cde)" style="fill: none; stroke: #ffac1e; stroke-width: 1.5; stroke-linecap: square"/>
    <defs>
     <path id="mce0edaeba9" d="M 0 -2 
L -0.449028 -0.618034 
L -1.902113 -0.618034 
L -0.726543 0.236068 
L -1.175571 1.618034 
L -0 0.763932 
L 1.175571 1.618034 
L 0.726543 0.236068 
L 1.902113 -0.618034 
L 0.449028 -0.618034 
z
" style="stroke: #ffac1e; stroke-linejoin: bevel"/>
    </defs>
    <g clip-path="url(#p2ccf6b0cde)">
     <use xlink:href="#mce0edaeba9" x="69.218182" y="252.972042" style="fill: #ffac1e; stroke: #ffac1e; stroke-linejoin: bevel"/>
     <use xlink:href="#mce0edaeba9" x="74.376888" y="253.060494" style="fill: #ffac1e; stroke: #ffac1e; stroke-linejoin: bevel"/>
     <use xlink:href="#mce0edaeba9" x="79.535593" y="89.863767" style="fill: #ffac1e; stroke: #ffac1e; stroke-linejoin: bevel"/>
     <use xlink:href="#mce0edaeba9" x="84.694299" y="79.249206" style="fill: #ffac1e; stroke: #ffac1e; stroke-linejoin: bevel"/>
     <use xlink:href="#mce0edaeba9" x="89.853005" y="99.809125" style="fill: #ffac1e; stroke: #ffac1e; stroke-linejoin: bevel"/>
     <use xlink:href="#mce0edaeba9" x="95.01171" y="150.84009" style="fill: #ffac1e; stroke: #ffac1e; stroke-linejoin: bevel"/>
     <use xlink:href="#mce0edaeba9" x="100.170416" y="96.159369" style="fill: #ffac1e; stroke: #ffac1e; stroke-linejoin: bevel"/>
     <use xlink:href="#mce0edaeba9" x="105.329122" y="45.687018" style="fill: #ffac1e; stroke: #ffac1e; stroke-linejoin: bevel"/>
     <use xlink:href="#mce0edaeba9" x="110.487827" y="45.709003" style="fill: #ffac1e; stroke: #ffac1e; stroke-linejoin: bevel"/>
     <use xlink:href="#mce0edaeba9" x="115.646533" y="45.709003" style="fill: #ffac1e; stroke: #ffac1e; stroke-linejoin: bevel"/>
     <use xlink:href="#mce0edaeba9" x="120.805239" y="45.712749" style="fill: #ffac1e; stroke: #ffac1e; stroke-linejoin: bevel"/>
     <use xlink:href="#mce0edaeba9" x="125.963945" y="45.687018" style="fill: #ffac1e; stroke: #ffac1e; stroke-linejoin: bevel"/>
     <use xlink:href="#mce0edaeba9" x="131.12265" y="45.687018" style="fill: #ffac1e; stroke: #ffac1e; stroke-linejoin: bevel"/>
     <use xlink:href="#mce0edaeba9" x="136.281356" y="45.687018" style="fill: #ffac1e; stroke: #ffac1e; stroke-linejoin: bevel"/>
     <use xlink:href="#mce0edaeba9" x="141.440062" y="45.709003" style="fill: #ffac1e; stroke: #ffac1e; stroke-linejoin: bevel"/>
     <use xlink:href="#mce0edaeba9" x="146.598767" y="45.709003" style="fill: #ffac1e; stroke: #ffac1e; stroke-linejoin: bevel"/>
     <use xlink:href="#mce0edaeba9" x="151.757473" y="46.01447" style="fill: #ffac1e; stroke: #ffac1e; stroke-linejoin: bevel"/>
     <use xlink:href="#mce0edaeba9" x="156.916179" y="46.146459" style="fill: #ffac1e; stroke: #ffac1e; stroke-linejoin: bevel"/>
     <use xlink:href="#mce0edaeba9" x="162.074884" y="46.146459" style="fill: #ffac1e; stroke: #ffac1e; stroke-linejoin: bevel"/>
     <use xlink:href="#mce0edaeba9" x="167.23359" y="46.146459" style="fill: #ffac1e; stroke: #ffac1e; stroke-linejoin: bevel"/>
     <use xlink:href="#mce0edaeba9" x="172.392296" y="46.146459" style="fill: #ffac1e; stroke: #ffac1e; stroke-linejoin: bevel"/>
     <use xlink:href="#mce0edaeba9" x="177.551002" y="46.146459" style="fill: #ffac1e; stroke: #ffac1e; stroke-linejoin: bevel"/>
     <use xlink:href="#mce0edaeba9" x="182.709707" y="46.168116" style="fill: #ffac1e; stroke: #ffac1e; stroke-linejoin: bevel"/>
     <use xlink:href="#mce0edaeba9" x="187.868413" y="46.336929" style="fill: #ffac1e; stroke: #ffac1e; stroke-linejoin: bevel"/>
     <use xlink:href="#mce0edaeba9" x="193.027119" y="46.336929" style="fill: #ffac1e; stroke: #ffac1e; stroke-linejoin: bevel"/>
     <use xlink:href="#mce0edaeba9" x="198.185824" y="46.336929" style="fill: #ffac1e; stroke: #ffac1e; stroke-linejoin: bevel"/>
     <use xlink:href="#mce0edaeba9" x="203.34453" y="46.315286" style="fill: #ffac1e; stroke: #ffac1e; stroke-linejoin: bevel"/>
     <use xlink:href="#mce0edaeba9" x="208.503236" y="46.315286" style="fill: #ffac1e; stroke: #ffac1e; stroke-linejoin: bevel"/>
     <use xlink:href="#mce0edaeba9" x="213.661941" y="46.315286" style="fill: #ffac1e; stroke: #ffac1e; stroke-linejoin: bevel"/>
     <use xlink:href="#mce0edaeba9" x="218.820647" y="46.315286" style="fill: #ffac1e; stroke: #ffac1e; stroke-linejoin: bevel"/>
     <use xlink:href="#mce0edaeba9" x="223.979353" y="46.336929" style="fill: #ffac1e; stroke: #ffac1e; stroke-linejoin: bevel"/>
     <use xlink:href="#mce0edaeba9" x="229.138059" y="46.168116" style="fill: #ffac1e; stroke: #ffac1e; stroke-linejoin: bevel"/>
     <use xlink:href="#mce0edaeba9" x="234.296764" y="46.168116" style="fill: #ffac1e; stroke: #ffac1e; stroke-linejoin: bevel"/>
     <use xlink:href="#mce0edaeba9" x="239.45547" y="46.146459" style="fill: #ffac1e; stroke: #ffac1e; stroke-linejoin: bevel"/>
     <use xlink:href="#mce0edaeba9" x="244.614176" y="46.168116" style="fill: #ffac1e; stroke: #ffac1e; stroke-linejoin: bevel"/>
     <use xlink:href="#mce0edaeba9" x="249.772881" y="46.168116" style="fill: #ffac1e; stroke: #ffac1e; stroke-linejoin: bevel"/>
     <use xlink:href="#mce0edaeba9" x="254.931587" y="46.363966" style="fill: #ffac1e; stroke: #ffac1e; stroke-linejoin: bevel"/>
     <use xlink:href="#mce0edaeba9" x="260.090293" y="46.146459" style="fill: #ffac1e; stroke: #ffac1e; stroke-linejoin: bevel"/>
     <use xlink:href="#mce0edaeba9" x="265.248998" y="46.146459" style="fill: #ffac1e; stroke: #ffac1e; stroke-linejoin: bevel"/>
     <use xlink:href="#mce0edaeba9" x="270.407704" y="46.34232" style="fill: #ffac1e; stroke: #ffac1e; stroke-linejoin: bevel"/>
     <use xlink:href="#mce0edaeba9" x="275.56641" y="46.363966" style="fill: #ffac1e; stroke: #ffac1e; stroke-linejoin: bevel"/>
     <use xlink:href="#mce0edaeba9" x="280.725116" y="46.348618" style="fill: #ffac1e; stroke: #ffac1e; stroke-linejoin: bevel"/>
     <use xlink:href="#mce0edaeba9" x="285.883821" y="46.146459" style="fill: #ffac1e; stroke: #ffac1e; stroke-linejoin: bevel"/>
     <use xlink:href="#mce0edaeba9" x="291.042527" y="46.225277" style="fill: #ffac1e; stroke: #ffac1e; stroke-linejoin: bevel"/>
     <use xlink:href="#mce0edaeba9" x="296.201233" y="46.225277" style="fill: #ffac1e; stroke: #ffac1e; stroke-linejoin: bevel"/>
     <use xlink:href="#mce0edaeba9" x="301.359938" y="46.203925" style="fill: #ffac1e; stroke: #ffac1e; stroke-linejoin: bevel"/>
     <use xlink:href="#mce0edaeba9" x="306.518644" y="46.34232" style="fill: #ffac1e; stroke: #ffac1e; stroke-linejoin: bevel"/>
     <use xlink:href="#mce0edaeba9" x="311.67735" y="46.225277" style="fill: #ffac1e; stroke: #ffac1e; stroke-linejoin: bevel"/>
     <use xlink:href="#mce0edaeba9" x="316.836055" y="46.203925" style="fill: #ffac1e; stroke: #ffac1e; stroke-linejoin: bevel"/>
     <use xlink:href="#mce0edaeba9" x="321.994761" y="46.363966" style="fill: #ffac1e; stroke: #ffac1e; stroke-linejoin: bevel"/>
     <use xlink:href="#mce0edaeba9" x="327.153467" y="46.34232" style="fill: #ffac1e; stroke: #ffac1e; stroke-linejoin: bevel"/>
     <use xlink:href="#mce0edaeba9" x="332.312173" y="46.363966" style="fill: #ffac1e; stroke: #ffac1e; stroke-linejoin: bevel"/>
     <use xlink:href="#mce0edaeba9" x="337.470878" y="46.363966" style="fill: #ffac1e; stroke: #ffac1e; stroke-linejoin: bevel"/>
     <use xlink:href="#mce0edaeba9" x="342.629584" y="46.34232" style="fill: #ffac1e; stroke: #ffac1e; stroke-linejoin: bevel"/>
     <use xlink:href="#mce0edaeba9" x="347.78829" y="46.363966" style="fill: #ffac1e; stroke: #ffac1e; stroke-linejoin: bevel"/>
     <use xlink:href="#mce0edaeba9" x="352.946995" y="46.363966" style="fill: #ffac1e; stroke: #ffac1e; stroke-linejoin: bevel"/>
     <use xlink:href="#mce0edaeba9" x="358.105701" y="46.34232" style="fill: #ffac1e; stroke: #ffac1e; stroke-linejoin: bevel"/>
     <use xlink:href="#mce0edaeba9" x="363.264407" y="46.34232" style="fill: #ffac1e; stroke: #ffac1e; stroke-linejoin: bevel"/>
     <use xlink:href="#mce0edaeba9" x="368.423112" y="46.363966" style="fill: #ffac1e; stroke: #ffac1e; stroke-linejoin: bevel"/>
     <use xlink:href="#mce0edaeba9" x="373.581818" y="46.363966" style="fill: #ffac1e; stroke: #ffac1e; stroke-linejoin: bevel"/>
    </g>
   </g>
   <g id="line2d_33">
    <path d="M 69.218182 252.908818 
L 74.376888 255.44041 
L 79.535593 259.099734 
L 84.694299 250.950991 
L 89.853005 235.299304 
L 95.01171 166.745464 
L 100.170416 165.959082 
L 105.329122 119.495632 
L 110.487827 119.495632 
L 115.646533 119.495632 
L 120.805239 116.99781 
L 125.963945 119.282115 
L 131.12265 119.282115 
L 136.281356 119.282115 
L 141.440062 118.906406 
L 146.598767 118.906406 
L 151.757473 119.999678 
L 156.916179 119.999678 
L 162.074884 119.999678 
L 167.23359 119.999678 
L 172.392296 119.999678 
L 177.551002 119.282115 
L 182.709707 119.282115 
L 187.868413 119.282115 
L 193.027119 119.282115 
L 198.185824 119.282115 
L 203.34453 119.282115 
L 208.503236 119.282115 
L 213.661941 119.282115 
L 218.820647 119.282115 
L 223.979353 119.282115 
L 229.138059 119.282115 
L 234.296764 119.282115 
L 239.45547 119.282115 
L 244.614176 119.282115 
L 249.772881 119.282115 
L 254.931587 119.282115 
L 260.090293 119.282115 
L 265.248998 119.282115 
L 270.407704 119.282115 
L 275.56641 119.282115 
L 280.725116 119.282115 
L 285.883821 119.282115 
L 291.042527 119.282115 
L 296.201233 119.282115 
L 301.359938 119.282115 
L 306.518644 119.282115 
L 311.67735 119.282115 
L 316.836055 119.282115 
L 321.994761 119.282115 
L 327.153467 119.282115 
L 332.312173 119.282115 
L 337.470878 119.282115 
L 342.629584 119.282115 
L 347.78829 119.282115 
L 352.946995 119.282115 
L 358.105701 119.282115 
L 363.264407 119.282115 
L 368.423112 119.282115 
L 373.581818 119.282115 
" clip-path="url(#p2ccf6b0cde)" style="fill: none; stroke: #009435; stroke-width: 1.5; stroke-linecap: square"/>
    <defs>
     <path id="m3c55609b6d" d="M -2 2 
L 2 2 
L 2 -2 
L -2 -2 
z
" style="stroke: #009435; stroke-linejoin: miter"/>
    </defs>
    <g clip-path="url(#p2ccf6b0cde)">
     <use xlink:href="#m3c55609b6d" x="69.218182" y="252.908818" style="fill: #009435; stroke: #009435; stroke-linejoin: miter"/>
     <use xlink:href="#m3c55609b6d" x="74.376888" y="255.44041" style="fill: #009435; stroke: #009435; stroke-linejoin: miter"/>
     <use xlink:href="#m3c55609b6d" x="79.535593" y="259.099734" style="fill: #009435; stroke: #009435; stroke-linejoin: miter"/>
     <use xlink:href="#m3c55609b6d" x="84.694299" y="250.950991" style="fill: #009435; stroke: #009435; stroke-linejoin: miter"/>
     <use xlink:href="#m3c55609b6d" x="89.853005" y="235.299304" style="fill: #009435; stroke: #009435; stroke-linejoin: miter"/>
     <use xlink:href="#m3c55609b6d" x="95.01171" y="166.745464" style="fill: #009435; stroke: #009435; stroke-linejoin: miter"/>
     <use xlink:href="#m3c55609b6d" x="100.170416" y="165.959082" style="fill: #009435; stroke: #009435; stroke-linejoin: miter"/>
     <use xlink:href="#m3c55609b6d" x="105.329122" y="119.495632" style="fill: #009435; stroke: #009435; stroke-linejoin: miter"/>
     <use xlink:href="#m3c55609b6d" x="110.487827" y="119.495632" style="fill: #009435; stroke: #009435; stroke-linejoin: miter"/>
     <use xlink:href="#m3c55609b6d" x="115.646533" y="119.495632" style="fill: #009435; stroke: #009435; stroke-linejoin: miter"/>
     <use xlink:href="#m3c55609b6d" x="120.805239" y="116.99781" style="fill: #009435; stroke: #009435; stroke-linejoin: miter"/>
     <use xlink:href="#m3c55609b6d" x="125.963945" y="119.282115" style="fill: #009435; stroke: #009435; stroke-linejoin: miter"/>
     <use xlink:href="#m3c55609b6d" x="131.12265" y="119.282115" style="fill: #009435; stroke: #009435; stroke-linejoin: miter"/>
     <use xlink:href="#m3c55609b6d" x="136.281356" y="119.282115" style="fill: #009435; stroke: #009435; stroke-linejoin: miter"/>
     <use xlink:href="#m3c55609b6d" x="141.440062" y="118.906406" style="fill: #009435; stroke: #009435; stroke-linejoin: miter"/>
     <use xlink:href="#m3c55609b6d" x="146.598767" y="118.906406" style="fill: #009435; stroke: #009435; stroke-linejoin: miter"/>
     <use xlink:href="#m3c55609b6d" x="151.757473" y="119.999678" style="fill: #009435; stroke: #009435; stroke-linejoin: miter"/>
     <use xlink:href="#m3c55609b6d" x="156.916179" y="119.999678" style="fill: #009435; stroke: #009435; stroke-linejoin: miter"/>
     <use xlink:href="#m3c55609b6d" x="162.074884" y="119.999678" style="fill: #009435; stroke: #009435; stroke-linejoin: miter"/>
     <use xlink:href="#m3c55609b6d" x="167.23359" y="119.999678" style="fill: #009435; stroke: #009435; stroke-linejoin: miter"/>
     <use xlink:href="#m3c55609b6d" x="172.392296" y="119.999678" style="fill: #009435; stroke: #009435; stroke-linejoin: miter"/>
     <use xlink:href="#m3c55609b6d" x="177.551002" y="119.282115" style="fill: #009435; stroke: #009435; stroke-linejoin: miter"/>
     <use xlink:href="#m3c55609b6d" x="182.709707" y="119.282115" style="fill: #009435; stroke: #009435; stroke-linejoin: miter"/>
     <use xlink:href="#m3c55609b6d" x="187.868413" y="119.282115" style="fill: #009435; stroke: #009435; stroke-linejoin: miter"/>
     <use xlink:href="#m3c55609b6d" x="193.027119" y="119.282115" style="fill: #009435; stroke: #009435; stroke-linejoin: miter"/>
     <use xlink:href="#m3c55609b6d" x="198.185824" y="119.282115" style="fill: #009435; stroke: #009435; stroke-linejoin: miter"/>
     <use xlink:href="#m3c55609b6d" x="203.34453" y="119.282115" style="fill: #009435; stroke: #009435; stroke-linejoin: miter"/>
     <use xlink:href="#m3c55609b6d" x="208.503236" y="119.282115" style="fill: #009435; stroke: #009435; stroke-linejoin: miter"/>
     <use xlink:href="#m3c55609b6d" x="213.661941" y="119.282115" style="fill: #009435; stroke: #009435; stroke-linejoin: miter"/>
     <use xlink:href="#m3c55609b6d" x="218.820647" y="119.282115" style="fill: #009435; stroke: #009435; stroke-linejoin: miter"/>
     <use xlink:href="#m3c55609b6d" x="223.979353" y="119.282115" style="fill: #009435; stroke: #009435; stroke-linejoin: miter"/>
     <use xlink:href="#m3c55609b6d" x="229.138059" y="119.282115" style="fill: #009435; stroke: #009435; stroke-linejoin: miter"/>
     <use xlink:href="#m3c55609b6d" x="234.296764" y="119.282115" style="fill: #009435; stroke: #009435; stroke-linejoin: miter"/>
     <use xlink:href="#m3c55609b6d" x="239.45547" y="119.282115" style="fill: #009435; stroke: #009435; stroke-linejoin: miter"/>
     <use xlink:href="#m3c55609b6d" x="244.614176" y="119.282115" style="fill: #009435; stroke: #009435; stroke-linejoin: miter"/>
     <use xlink:href="#m3c55609b6d" x="249.772881" y="119.282115" style="fill: #009435; stroke: #009435; stroke-linejoin: miter"/>
     <use xlink:href="#m3c55609b6d" x="254.931587" y="119.282115" style="fill: #009435; stroke: #009435; stroke-linejoin: miter"/>
     <use xlink:href="#m3c55609b6d" x="260.090293" y="119.282115" style="fill: #009435; stroke: #009435; stroke-linejoin: miter"/>
     <use xlink:href="#m3c55609b6d" x="265.248998" y="119.282115" style="fill: #009435; stroke: #009435; stroke-linejoin: miter"/>
     <use xlink:href="#m3c55609b6d" x="270.407704" y="119.282115" style="fill: #009435; stroke: #009435; stroke-linejoin: miter"/>
     <use xlink:href="#m3c55609b6d" x="275.56641" y="119.282115" style="fill: #009435; stroke: #009435; stroke-linejoin: miter"/>
     <use xlink:href="#m3c55609b6d" x="280.725116" y="119.282115" style="fill: #009435; stroke: #009435; stroke-linejoin: miter"/>
     <use xlink:href="#m3c55609b6d" x="285.883821" y="119.282115" style="fill: #009435; stroke: #009435; stroke-linejoin: miter"/>
     <use xlink:href="#m3c55609b6d" x="291.042527" y="119.282115" style="fill: #009435; stroke: #009435; stroke-linejoin: miter"/>
     <use xlink:href="#m3c55609b6d" x="296.201233" y="119.282115" style="fill: #009435; stroke: #009435; stroke-linejoin: miter"/>
     <use xlink:href="#m3c55609b6d" x="301.359938" y="119.282115" style="fill: #009435; stroke: #009435; stroke-linejoin: miter"/>
     <use xlink:href="#m3c55609b6d" x="306.518644" y="119.282115" style="fill: #009435; stroke: #009435; stroke-linejoin: miter"/>
     <use xlink:href="#m3c55609b6d" x="311.67735" y="119.282115" style="fill: #009435; stroke: #009435; stroke-linejoin: miter"/>
     <use xlink:href="#m3c55609b6d" x="316.836055" y="119.282115" style="fill: #009435; stroke: #009435; stroke-linejoin: miter"/>
     <use xlink:href="#m3c55609b6d" x="321.994761" y="119.282115" style="fill: #009435; stroke: #009435; stroke-linejoin: miter"/>
     <use xlink:href="#m3c55609b6d" x="327.153467" y="119.282115" style="fill: #009435; stroke: #009435; stroke-linejoin: miter"/>
     <use xlink:href="#m3c55609b6d" x="332.312173" y="119.282115" style="fill: #009435; stroke: #009435; stroke-linejoin: miter"/>
     <use xlink:href="#m3c55609b6d" x="337.470878" y="119.282115" style="fill: #009435; stroke: #009435; stroke-linejoin: miter"/>
     <use xlink:href="#m3c55609b6d" x="342.629584" y="119.282115" style="fill: #009435; stroke: #009435; stroke-linejoin: miter"/>
     <use xlink:href="#m3c55609b6d" x="347.78829" y="119.282115" style="fill: #009435; stroke: #009435; stroke-linejoin: miter"/>
     <use xlink:href="#m3c55609b6d" x="352.946995" y="119.282115" style="fill: #009435; stroke: #009435; stroke-linejoin: miter"/>
     <use xlink:href="#m3c55609b6d" x="358.105701" y="119.282115" style="fill: #009435; stroke: #009435; stroke-linejoin: miter"/>
     <use xlink:href="#m3c55609b6d" x="363.264407" y="119.282115" style="fill: #009435; stroke: #009435; stroke-linejoin: miter"/>
     <use xlink:href="#m3c55609b6d" x="368.423112" y="119.282115" style="fill: #009435; stroke: #009435; stroke-linejoin: miter"/>
     <use xlink:href="#m3c55609b6d" x="373.581818" y="119.282115" style="fill: #009435; stroke: #009435; stroke-linejoin: miter"/>
    </g>
   </g>
   <g id="patch_3">
    <path d="M 54 252 
L 54 34.56 
" style="fill: none; stroke: #000000; stroke-width: 0.8; stroke-linejoin: miter; stroke-linecap: square"/>
   </g>
   <g id="patch_4">
    <path d="M 388.8 252 
L 388.8 34.56 
" style="fill: none; stroke: #000000; stroke-width: 0.8; stroke-linejoin: miter; stroke-linecap: square"/>
   </g>
   <g id="patch_5">
    <path d="M 54 252 
L 388.8 252 
" style="fill: none; stroke: #000000; stroke-width: 0.8; stroke-linejoin: miter; stroke-linecap: square"/>
   </g>
   <g id="patch_6">
    <path d="M 54 34.56 
L 388.8 34.56 
" style="fill: none; stroke: #000000; stroke-width: 0.8; stroke-linejoin: miter; stroke-linecap: square"/>
   </g>
   <g id="text_17">
    <!-- ζ-R-max optimal policy with m = 4.0 -->
    <g transform="translate(111.87 28.56)scale(0.12 -0.12)">
     <defs>
      <path id="DejaVuSans-3b6" d="M 2231 397 
Q 2644 394 2891 159 
Q 3153 -88 3153 -463 
Q 3153 -822 2922 -1072 
Q 2672 -1344 2163 -1344 
Q 2163 -1109 2163 -872 
Q 2378 -888 2509 -750 
Q 2609 -641 2609 -525 
Q 2609 -359 2509 -222 
Q 2413 -91 2231 -91 
Q 338 -91 334 1669 
Q 334 3206 2119 4284 
L 456 4284 
L 456 4863 
L 3175 4863 
L 3175 4284 
Q 913 3147 913 1669 
Q 913 397 2231 397 
z
" transform="scale(0.015625)"/>
      <path id="DejaVuSans-2d" d="M 313 2009 
L 1997 2009 
L 1997 1497 
L 313 1497 
L 313 2009 
z
" transform="scale(0.015625)"/>
      <path id="DejaVuSans-52" d="M 2841 2188 
Q 3044 2119 3236 1894 
Q 3428 1669 3622 1275 
L 4263 0 
L 3584 0 
L 2988 1197 
Q 2756 1666 2539 1819 
Q 2322 1972 1947 1972 
L 1259 1972 
L 1259 0 
L 628 0 
L 628 4666 
L 2053 4666 
Q 2853 4666 3247 4331 
Q 3641 3997 3641 3322 
Q 3641 2881 3436 2590 
Q 3231 2300 2841 2188 
z
M 1259 4147 
L 1259 2491 
L 2053 2491 
Q 2509 2491 2742 2702 
Q 2975 2913 2975 3322 
Q 2975 3731 2742 3939 
Q 2509 4147 2053 4147 
L 1259 4147 
z
" transform="scale(0.015625)"/>
      <path id="DejaVuSans-6d" d="M 3328 2828 
Q 3544 3216 3844 3400 
Q 4144 3584 4550 3584 
Q 5097 3584 5394 3201 
Q 5691 2819 5691 2113 
L 5691 0 
L 5113 0 
L 5113 2094 
Q 5113 2597 4934 2840 
Q 4756 3084 4391 3084 
Q 3944 3084 3684 2787 
Q 3425 2491 3425 1978 
L 3425 0 
L 2847 0 
L 2847 2094 
Q 2847 2600 2669 2842 
Q 2491 3084 2119 3084 
Q 1678 3084 1418 2786 
Q 1159 2488 1159 1978 
L 1159 0 
L 581 0 
L 581 3500 
L 1159 3500 
L 1159 2956 
Q 1356 3278 1631 3431 
Q 1906 3584 2284 3584 
Q 2666 3584 2933 3390 
Q 3200 3197 3328 2828 
z
" transform="scale(0.015625)"/>
      <path id="DejaVuSans-78" d="M 3513 3500 
L 2247 1797 
L 3578 0 
L 2900 0 
L 1881 1375 
L 863 0 
L 184 0 
L 1544 1831 
L 300 3500 
L 978 3500 
L 1906 2253 
L 2834 3500 
L 3513 3500 
z
" transform="scale(0.015625)"/>
      <path id="DejaVuSans-77" d="M 269 3500 
L 844 3500 
L 1563 769 
L 2278 3500 
L 2956 3500 
L 3675 769 
L 4391 3500 
L 4966 3500 
L 4050 0 
L 3372 0 
L 2619 2869 
L 1863 0 
L 1184 0 
L 269 3500 
z
" transform="scale(0.015625)"/>
      <path id="DejaVuSans-68" d="M 3513 2113 
L 3513 0 
L 2938 0 
L 2938 2094 
Q 2938 2591 2744 2837 
Q 2550 3084 2163 3084 
Q 1697 3084 1428 2787 
Q 1159 2491 1159 1978 
L 1159 0 
L 581 0 
L 581 4863 
L 1159 4863 
L 1159 2956 
Q 1366 3272 1645 3428 
Q 1925 3584 2291 3584 
Q 2894 3584 3203 3211 
Q 3513 2838 3513 2113 
z
" transform="scale(0.015625)"/>
      <path id="DejaVuSans-3d" d="M 678 2906 
L 4684 2906 
L 4684 2381 
L 678 2381 
L 678 2906 
z
M 678 1631 
L 4684 1631 
L 4684 1100 
L 678 1100 
L 678 1631 
z
" transform="scale(0.015625)"/>
      <path id="DejaVuSans-2e" d="M 684 794 
L 1344 794 
L 1344 0 
L 684 0 
L 684 794 
z
" transform="scale(0.015625)"/>
     </defs>
     <use xlink:href="#DejaVuSans-3b6"/>
     <use xlink:href="#DejaVuSans-2d" x="54.394531"/>
     <use xlink:href="#DejaVuSans-52" x="90.478516"/>
     <use xlink:href="#DejaVuSans-2d" x="155.960938"/>
     <use xlink:href="#DejaVuSans-6d" x="192.044922"/>
     <use xlink:href="#DejaVuSans-61" x="289.457031"/>
     <use xlink:href="#DejaVuSans-78" x="350.736328"/>
     <use xlink:href="#DejaVuSans-20" x="409.916016"/>
     <use xlink:href="#DejaVuSans-6f" x="441.703125"/>
     <use xlink:href="#DejaVuSans-70" x="502.884766"/>
     <use xlink:href="#DejaVuSans-74" x="566.361328"/>
     <use xlink:href="#DejaVuSans-69" x="605.570312"/>
     <use xlink:href="#DejaVuSans-6d" x="633.353516"/>
     <use xlink:href="#DejaVuSans-61" x="730.765625"/>
     <use xlink:href="#DejaVuSans-6c" x="792.044922"/>
     <use xlink:href="#DejaVuSans-20" x="819.828125"/>
     <use xlink:href="#DejaVuSans-70" x="851.615234"/>
     <use xlink:href="#DejaVuSans-6f" x="915.091797"/>
     <use xlink:href="#DejaVuSans-6c" x="976.273438"/>
     <use xlink:href="#DejaVuSans-69" x="1004.056641"/>
     <use xlink:href="#DejaVuSans-63" x="1031.839844"/>
     <use xlink:href="#DejaVuSans-79" x="1086.820312"/>
     <use xlink:href="#DejaVuSans-20" x="1146"/>
     <use xlink:href="#DejaVuSans-77" x="1177.787109"/>
     <use xlink:href="#DejaVuSans-69" x="1259.574219"/>
     <use xlink:href="#DejaVuSans-74" x="1287.357422"/>
     <use xlink:href="#DejaVuSans-68" x="1326.566406"/>
     <use xlink:href="#DejaVuSans-20" x="1389.945312"/>
     <use xlink:href="#DejaVuSans-6d" x="1421.732422"/>
     <use xlink:href="#DejaVuSans-20" x="1519.144531"/>
     <use xlink:href="#DejaVuSans-3d" x="1550.931641"/>
     <use xlink:href="#DejaVuSans-20" x="1634.720703"/>
     <use xlink:href="#DejaVuSans-34" x="1666.507812"/>
     <use xlink:href="#DejaVuSans-2e" x="1730.130859"/>
     <use xlink:href="#DejaVuSans-30" x="1761.917969"/>
    </g>
   </g>
   <g id="legend_1">
    <g id="patch_7">
     <path d="M 297.796875 247 
L 381.8 247 
Q 383.8 247 383.8 245 
L 383.8 172.609375 
Q 383.8 170.609375 381.8 170.609375 
L 297.796875 170.609375 
Q 295.796875 170.609375 295.796875 172.609375 
L 295.796875 245 
Q 295.796875 247 297.796875 247 
z
" style="fill: #ffffff; opacity: 0.8; stroke: #cccccc; stroke-linejoin: miter"/>
    </g>
    <g id="line2d_34">
     <path d="M 299.796875 178.707812 
L 309.796875 178.707812 
L 319.796875 178.707812 
" style="fill: none; stroke: #9d02d7; stroke-width: 1.5; stroke-linecap: square"/>
     <g>
      <use xlink:href="#m2dda32bdfc" x="309.796875" y="178.707812" style="fill: #9d02d7; stroke: #9d02d7; stroke-linejoin: miter"/>
     </g>
    </g>
    <g id="text_18">
     <!-- alpha=0.1 -->
     <g transform="translate(327.796875 182.207812)scale(0.1 -0.1)">
      <use xlink:href="#DejaVuSans-61"/>
      <use xlink:href="#DejaVuSans-6c" x="61.279297"/>
      <use xlink:href="#DejaVuSans-70" x="89.0625"/>
      <use xlink:href="#DejaVuSans-68" x="152.539062"/>
      <use xlink:href="#DejaVuSans-61" x="215.917969"/>
      <use xlink:href="#DejaVuSans-3d" x="277.197266"/>
      <use xlink:href="#DejaVuSans-30" x="360.986328"/>
      <use xlink:href="#DejaVuSans-2e" x="424.609375"/>
      <use xlink:href="#DejaVuSans-31" x="456.396484"/>
     </g>
    </g>
    <g id="line2d_35">
     <path d="M 299.796875 193.385938 
L 309.796875 193.385938 
L 319.796875 193.385938 
" style="fill: none; stroke: #0000ff; stroke-width: 1.5; stroke-linecap: square"/>
     <g>
      <use xlink:href="#m36ae1be7b9" x="309.796875" y="193.385938" style="fill: #0000ff; stroke: #0000ff"/>
     </g>
    </g>
    <g id="text_19">
     <!-- alpha=0.5 -->
     <g transform="translate(327.796875 196.885938)scale(0.1 -0.1)">
      <use xlink:href="#DejaVuSans-61"/>
      <use xlink:href="#DejaVuSans-6c" x="61.279297"/>
      <use xlink:href="#DejaVuSans-70" x="89.0625"/>
      <use xlink:href="#DejaVuSans-68" x="152.539062"/>
      <use xlink:href="#DejaVuSans-61" x="215.917969"/>
      <use xlink:href="#DejaVuSans-3d" x="277.197266"/>
      <use xlink:href="#DejaVuSans-30" x="360.986328"/>
      <use xlink:href="#DejaVuSans-2e" x="424.609375"/>
      <use xlink:href="#DejaVuSans-35" x="456.396484"/>
     </g>
    </g>
    <g id="line2d_36">
     <path d="M 299.796875 208.064063 
L 309.796875 208.064063 
L 319.796875 208.064063 
" style="fill: none; stroke: #ff7763; stroke-width: 1.5; stroke-linecap: square"/>
     <g>
      <use xlink:href="#md9ea8b2900" x="309.796875" y="208.064063" style="fill: #ff7763; stroke: #ff7763"/>
     </g>
    </g>
    <g id="text_20">
     <!-- alpha=1.0 -->
     <g transform="translate(327.796875 211.564063)scale(0.1 -0.1)">
      <use xlink:href="#DejaVuSans-61"/>
      <use xlink:href="#DejaVuSans-6c" x="61.279297"/>
      <use xlink:href="#DejaVuSans-70" x="89.0625"/>
      <use xlink:href="#DejaVuSans-68" x="152.539062"/>
      <use xlink:href="#DejaVuSans-61" x="215.917969"/>
      <use xlink:href="#DejaVuSans-3d" x="277.197266"/>
      <use xlink:href="#DejaVuSans-31" x="360.986328"/>
      <use xlink:href="#DejaVuSans-2e" x="424.609375"/>
      <use xlink:href="#DejaVuSans-30" x="456.396484"/>
     </g>
    </g>
    <g id="line2d_37">
     <path d="M 299.796875 222.742188 
L 309.796875 222.742188 
L 319.796875 222.742188 
" style="fill: none; stroke: #ffac1e; stroke-width: 1.5; stroke-linecap: square"/>
     <g>
      <use xlink:href="#mce0edaeba9" x="309.796875" y="222.742188" style="fill: #ffac1e; stroke: #ffac1e; stroke-linejoin: bevel"/>
     </g>
    </g>
    <g id="text_21">
     <!-- alpha=1.5 -->
     <g transform="translate(327.796875 226.242188)scale(0.1 -0.1)">
      <use xlink:href="#DejaVuSans-61"/>
      <use xlink:href="#DejaVuSans-6c" x="61.279297"/>
      <use xlink:href="#DejaVuSans-70" x="89.0625"/>
      <use xlink:href="#DejaVuSans-68" x="152.539062"/>
      <use xlink:href="#DejaVuSans-61" x="215.917969"/>
      <use xlink:href="#DejaVuSans-3d" x="277.197266"/>
      <use xlink:href="#DejaVuSans-31" x="360.986328"/>
      <use xlink:href="#DejaVuSans-2e" x="424.609375"/>
      <use xlink:href="#DejaVuSans-35" x="456.396484"/>
     </g>
    </g>
    <g id="line2d_38">
     <path d="M 299.796875 237.420313 
L 309.796875 237.420313 
L 319.796875 237.420313 
" style="fill: none; stroke: #009435; stroke-width: 1.5; stroke-linecap: square"/>
     <g>
      <use xlink:href="#m3c55609b6d" x="309.796875" y="237.420313" style="fill: #009435; stroke: #009435; stroke-linejoin: miter"/>
     </g>
    </g>
    <g id="text_22">
     <!-- alpha=2.0 -->
     <g transform="translate(327.796875 240.920313)scale(0.1 -0.1)">
      <use xlink:href="#DejaVuSans-61"/>
      <use xlink:href="#DejaVuSans-6c" x="61.279297"/>
      <use xlink:href="#DejaVuSans-70" x="89.0625"/>
      <use xlink:href="#DejaVuSans-68" x="152.539062"/>
      <use xlink:href="#DejaVuSans-61" x="215.917969"/>
      <use xlink:href="#DejaVuSans-3d" x="277.197266"/>
      <use xlink:href="#DejaVuSans-32" x="360.986328"/>
      <use xlink:href="#DejaVuSans-2e" x="424.609375"/>
      <use xlink:href="#DejaVuSans-30" x="456.396484"/>
     </g>
    </g>
   </g>
  </g>
 </g>
 <defs>
  <clipPath id="p2ccf6b0cde">
   <rect x="54" y="34.56" width="334.8" height="217.44"/>
  </clipPath>
 </defs>
</svg>
